<?xml version="1.0" encoding="UTF-8" standalone="no"?>
<!DOCTYPE svg PUBLIC "-//W3C//DTD SVG 1.1//EN"
 "http://www.w3.org/Graphics/SVG/1.1/DTD/svg11.dtd">
<!-- Generated by graphviz version 2.46.0 (20210119.1425)
 -->
<!-- Title: dependencies Pages: 1 -->
<svg width="508pt" height="211pt"
 viewBox="0.00 0.00 508.00 211.00" xmlns="http://www.w3.org/2000/svg" xmlns:xlink="http://www.w3.org/1999/xlink">
<g id="graph0" class="graph" transform="scale(1 1) rotate(0) translate(4 207)">
<title>dependencies</title>
<polygon fill="white" stroke="transparent" points="-4,4 -4,-207 504,-207 504,4 -4,4"/>
<text text-anchor="start" x="229.01" y="-42.4" font-family="sans-serif" font-weight="bold" font-size="14.00">Legend</text>
<polygon fill="#ffffb3" stroke="transparent" points="16,-10 16,-30 36,-30 36,-10 16,-10"/>
<text text-anchor="start" x="39.63" y="-15.4" font-family="sans-serif" font-size="14.00"> &#160;Declarations</text>
<polygon fill="#8dd3c7" stroke="transparent" points="129,-10 129,-30 149,-30 149,-10 129,-10"/>
<text text-anchor="start" x="152.73" y="-15.4" font-family="sans-serif" font-size="14.00"> &#160;Module</text>
<polygon fill="#80b1d3" stroke="transparent" points="215,-10 215,-30 235,-30 235,-10 215,-10"/>
<text text-anchor="start" x="238.78" y="-15.4" font-family="sans-serif" font-size="14.00"> &#160;Bootstrap</text>
<polygon fill="#fdb462" stroke="transparent" points="312,-10 312,-30 332,-30 332,-10 312,-10"/>
<text text-anchor="start" x="335.67" y="-15.4" font-family="sans-serif" font-size="14.00"> &#160;Providers</text>
<polygon fill="#fb8072" stroke="transparent" points="408,-10 408,-30 428,-30 428,-10 408,-10"/>
<text text-anchor="start" x="431.73" y="-15.4" font-family="sans-serif" font-size="14.00"> &#160;Exports</text>
<g id="clust1" class="cluster">
<title>cluster_BaseOccModule</title>
<polygon fill="none" stroke="black" stroke-dasharray="1,5" points="8,-70 8,-195 492,-195 492,-70 8,-70"/>
</g>
<g id="clust3" class="cluster">
<title>cluster_BaseOccModule_imports</title>
<polygon fill="none" stroke="black" points="16,-78 16,-130 484,-130 484,-78 16,-78"/>
</g>
<!-- CmsOccModule -->
<g id="node1" class="node">
<title>CmsOccModule</title>
<polygon fill="#8dd3c7" stroke="black" points="475.76,-122 472.76,-126 451.76,-126 448.76,-122 368.24,-122 368.24,-86 475.76,-86 475.76,-122"/>
<text text-anchor="middle" x="422" y="-99.8" font-family="Times,serif" font-size="14.00">CmsOccModule</text>
</g>
<!-- BaseOccModule -->
<g id="node4" class="node">
<title>BaseOccModule</title>
<polygon fill="#8dd3c7" stroke="black" points="324.8,-187 321.8,-191 300.8,-191 297.8,-187 215.2,-187 215.2,-151 324.8,-151 324.8,-187"/>
<text text-anchor="middle" x="270" y="-164.8" font-family="Times,serif" font-size="14.00">BaseOccModule</text>
</g>
<!-- CmsOccModule&#45;&gt;BaseOccModule -->
<g id="edge1" class="edge">
<title>CmsOccModule&#45;&gt;BaseOccModule</title>
<path fill="none" stroke="black" d="M422,-122.11C422,-141.34 422,-169 422,-169 422,-169 334.88,-169 334.88,-169"/>
<polygon fill="black" stroke="black" points="334.88,-165.5 324.88,-169 334.88,-172.5 334.88,-165.5"/>
</g>
<!-- OccConfigLoaderModule -->
<g id="node2" class="node">
<title>OccConfigLoaderModule</title>
<polygon fill="#8dd3c7" stroke="black" points="350.12,-122 347.12,-126 326.12,-126 323.12,-122 189.88,-122 189.88,-86 350.12,-86 350.12,-122"/>
<text text-anchor="middle" x="270" y="-99.8" font-family="Times,serif" font-size="14.00">OccConfigLoaderModule</text>
</g>
<!-- OccConfigLoaderModule&#45;&gt;BaseOccModule -->
<g id="edge2" class="edge">
<title>OccConfigLoaderModule&#45;&gt;BaseOccModule</title>
<path fill="none" stroke="black" d="M270,-122.11C270,-122.11 270,-140.99 270,-140.99"/>
<polygon fill="black" stroke="black" points="266.5,-140.99 270,-150.99 273.5,-140.99 266.5,-140.99"/>
</g>
<!-- SiteContextOccModule -->
<g id="node3" class="node">
<title>SiteContextOccModule</title>
<polygon fill="#8dd3c7" stroke="black" points="172.2,-122 169.2,-126 148.2,-126 145.2,-122 23.8,-122 23.8,-86 172.2,-86 172.2,-122"/>
<text text-anchor="middle" x="98" y="-99.8" font-family="Times,serif" font-size="14.00">SiteContextOccModule</text>
</g>
<!-- SiteContextOccModule&#45;&gt;BaseOccModule -->
<g id="edge3" class="edge">
<title>SiteContextOccModule&#45;&gt;BaseOccModule</title>
<path fill="none" stroke="black" d="M98,-122.11C98,-141.34 98,-169 98,-169 98,-169 205.11,-169 205.11,-169"/>
<polygon fill="black" stroke="black" points="205.11,-172.5 215.11,-169 205.11,-165.5 205.11,-172.5"/>
</g>
</g>
</svg>
