<?xml version="1.0" encoding="UTF-8" standalone="no"?>
<!DOCTYPE svg PUBLIC "-//W3C//DTD SVG 1.1//EN"
 "http://www.w3.org/Graphics/SVG/1.1/DTD/svg11.dtd">
<!-- Generated by graphviz version 2.47.3 (20210619.1520)
 -->
<!-- Title: dependencies Pages: 1 -->
<svg width="508pt" height="174pt"
 viewBox="0.00 0.00 508.00 173.80" xmlns="http://www.w3.org/2000/svg" xmlns:xlink="http://www.w3.org/1999/xlink">
<g id="graph0" class="graph" transform="scale(1 1) rotate(0) translate(4 169.8)">
<title>dependencies</title>
<polygon fill="white" stroke="transparent" points="-4,4 -4,-169.8 504,-169.8 504,4 -4,4"/>
<text text-anchor="middle" x="250" y="-8.2" font-family="sans-serif" font-size="14.00">dependencies</text>
<g id="clust1" class="cluster">
<title>cluster_BaseOccModule</title>
<polygon fill="none" stroke="black" stroke-dasharray="1,5" points="8,-32.8 8,-157.8 492,-157.8 492,-32.8 8,-32.8"/>
</g>
<g id="clust3" class="cluster">
<title>cluster_BaseOccModule_imports</title>
<polygon fill="none" stroke="black" points="16,-40.8 16,-92.8 484,-92.8 484,-40.8 16,-40.8"/>
</g>
<!-- CmsOccModule -->
<g id="node1" class="node">
<title>CmsOccModule</title>
<polygon fill="#8dd3c7" stroke="black" points="475.76,-84.8 472.76,-88.8 451.76,-88.8 448.76,-84.8 368.24,-84.8 368.24,-48.8 475.76,-48.8 475.76,-84.8"/>
<text text-anchor="middle" x="422" y="-62.6" font-family="Times,serif" font-size="14.00">CmsOccModule</text>
</g>
<!-- BaseOccModule -->
<g id="node4" class="node">
<title>BaseOccModule</title>
<polygon fill="#8dd3c7" stroke="black" points="324.8,-149.8 321.8,-153.8 300.8,-153.8 297.8,-149.8 215.2,-149.8 215.2,-113.8 324.8,-113.8 324.8,-149.8"/>
<text text-anchor="middle" x="270" y="-127.6" font-family="Times,serif" font-size="14.00">BaseOccModule</text>
</g>
<!-- CmsOccModule&#45;&gt;BaseOccModule -->
<g id="edge1" class="edge">
<title>CmsOccModule&#45;&gt;BaseOccModule</title>
<path fill="none" stroke="black" d="M422,-84.91C422,-104.14 422,-131.8 422,-131.8 422,-131.8 334.88,-131.8 334.88,-131.8"/>
<polygon fill="black" stroke="black" points="334.88,-128.3 324.88,-131.8 334.88,-135.3 334.88,-128.3"/>
</g>
<!-- OccConfigLoaderModule -->
<g id="node2" class="node">
<title>OccConfigLoaderModule</title>
<polygon fill="#8dd3c7" stroke="black" points="350.12,-84.8 347.12,-88.8 326.12,-88.8 323.12,-84.8 189.88,-84.8 189.88,-48.8 350.12,-48.8 350.12,-84.8"/>
<text text-anchor="middle" x="270" y="-62.6" font-family="Times,serif" font-size="14.00">OccConfigLoaderModule</text>
</g>
<!-- OccConfigLoaderModule&#45;&gt;BaseOccModule -->
<g id="edge2" class="edge">
<title>OccConfigLoaderModule&#45;&gt;BaseOccModule</title>
<path fill="none" stroke="black" d="M270,-84.91C270,-84.91 270,-103.79 270,-103.79"/>
<polygon fill="black" stroke="black" points="266.5,-103.79 270,-113.79 273.5,-103.79 266.5,-103.79"/>
</g>
<!-- SiteContextOccModule -->
<g id="node3" class="node">
<title>SiteContextOccModule</title>
<polygon fill="#8dd3c7" stroke="black" points="172.2,-84.8 169.2,-88.8 148.2,-88.8 145.2,-84.8 23.8,-84.8 23.8,-48.8 172.2,-48.8 172.2,-84.8"/>
<text text-anchor="middle" x="98" y="-62.6" font-family="Times,serif" font-size="14.00">SiteContextOccModule</text>
</g>
<!-- SiteContextOccModule&#45;&gt;BaseOccModule -->
<g id="edge3" class="edge">
<title>SiteContextOccModule&#45;&gt;BaseOccModule</title>
<path fill="none" stroke="black" d="M98,-84.91C98,-104.14 98,-131.8 98,-131.8 98,-131.8 205.11,-131.8 205.11,-131.8"/>
<polygon fill="black" stroke="black" points="205.11,-135.3 215.11,-131.8 205.11,-128.3 205.11,-135.3"/>
</g>
</g>
</svg>
