<?xml version="1.0" encoding="UTF-8" standalone="no"?>
<!DOCTYPE svg PUBLIC "-//W3C//DTD SVG 1.1//EN"
 "http://www.w3.org/Graphics/SVG/1.1/DTD/svg11.dtd">
<!-- Generated by graphviz version 2.40.1 (20161225.0304)
 -->
<!-- Title: dependencies Pages: 1 -->
<svg width="504pt" height="284pt"
 viewBox="0.00 0.00 504.00 284.00" xmlns="http://www.w3.org/2000/svg" xmlns:xlink="http://www.w3.org/1999/xlink">
<g id="graph0" class="graph" transform="scale(1 1) rotate(0) translate(4 280)">
<title>dependencies</title>
<polygon fill="#ffffff" stroke="transparent" points="-4,4 -4,-280 500,-280 500,4 -4,4"/>
<text text-anchor="start" x="227.0091" y="-42.4" font-family="sans-serif" font-weight="bold" font-size="14.00" fill="#000000">Legend</text>
<polygon fill="#ffffb3" stroke="transparent" points="14,-10 14,-30 34,-30 34,-10 14,-10"/>
<text text-anchor="start" x="37.629" y="-15.4" font-family="sans-serif" font-size="14.00" fill="#000000"> &#160;Declarations</text>
<polygon fill="#8dd3c7" stroke="transparent" points="127,-10 127,-30 147,-30 147,-10 127,-10"/>
<text text-anchor="start" x="150.7251" y="-15.4" font-family="sans-serif" font-size="14.00" fill="#000000"> &#160;Module</text>
<polygon fill="#80b1d3" stroke="transparent" points="213,-10 213,-30 233,-30 233,-10 213,-10"/>
<text text-anchor="start" x="236.7812" y="-15.4" font-family="sans-serif" font-size="14.00" fill="#000000"> &#160;Bootstrap</text>
<polygon fill="#fdb462" stroke="transparent" points="310,-10 310,-30 330,-30 330,-10 310,-10"/>
<text text-anchor="start" x="333.6732" y="-15.4" font-family="sans-serif" font-size="14.00" fill="#000000"> &#160;Providers</text>
<polygon fill="#fb8072" stroke="transparent" points="406,-10 406,-30 426,-30 426,-10 406,-10"/>
<text text-anchor="start" x="429.7258" y="-15.4" font-family="sans-serif" font-size="14.00" fill="#000000"> &#160;Exports</text>
<g id="clust1" class="cluster">
<title>cluster_BillingAddressFormModule</title>
<polygon fill="none" stroke="#000000" stroke-dasharray="1,5" points="79,-70 79,-268 417,-268 417,-70 79,-70"/>
</g>
<g id="clust2" class="cluster">
<title>cluster_BillingAddressFormModule_declarations</title>
<polygon fill="none" stroke="#000000" points="197,-78 197,-130 409,-130 409,-78 197,-78"/>
</g>
<g id="clust4" class="cluster">
<title>cluster_BillingAddressFormModule_imports</title>
<polygon fill="none" stroke="#000000" points="87,-78 87,-130 189,-130 189,-78 87,-78"/>
</g>
<g id="clust5" class="cluster">
<title>cluster_BillingAddressFormModule_exports</title>
<polygon fill="none" stroke="#000000" points="140,-208 140,-260 356,-260 356,-208 140,-208"/>
</g>
<!-- BillingAddressFormComponent -->
<g id="node1" class="node">
<title>BillingAddressFormComponent</title>
<polygon fill="#ffffb3" stroke="#000000" points="401.4367,-122 204.5633,-122 204.5633,-86 401.4367,-86 401.4367,-122"/>
<text text-anchor="middle" x="303" y="-99.8" font-family="Times,serif" font-size="14.00" fill="#000000">BillingAddressFormComponent</text>
</g>
<!-- BillingAddressFormModule -->
<g id="node2" class="node">
<title>BillingAddressFormModule</title>
<polygon fill="#8dd3c7" stroke="#000000" points="335.1539,-187 332.1539,-191 311.1539,-191 308.1539,-187 160.8461,-187 160.8461,-151 335.1539,-151 335.1539,-187"/>
<text text-anchor="middle" x="248" y="-164.8" font-family="Times,serif" font-size="14.00" fill="#000000">BillingAddressFormModule</text>
</g>
<!-- BillingAddressFormComponent&#45;&gt;BillingAddressFormModule -->
<g id="edge1" class="edge">
<title>BillingAddressFormComponent&#45;&gt;BillingAddressFormModule</title>
<path fill="none" stroke="#000000" d="M270.0544,-122.1061C270.0544,-122.1061 270.0544,-140.991 270.0544,-140.991"/>
<polygon fill="#000000" stroke="#000000" points="266.5544,-140.9909 270.0544,-150.991 273.5544,-140.991 266.5544,-140.9909"/>
</g>
<!-- BillingAddressFormComponent  -->
<g id="node4" class="node">
<title>BillingAddressFormComponent </title>
<polygon fill="#fb8072" stroke="#000000" points="347.9362,-252 148.0638,-252 148.0638,-216 347.9362,-216 347.9362,-252"/>
<text text-anchor="middle" x="248" y="-229.8" font-family="Times,serif" font-size="14.00" fill="#000000">BillingAddressFormComponent </text>
</g>
<!-- BillingAddressFormModule&#45;&gt;BillingAddressFormComponent  -->
<g id="edge3" class="edge">
<title>BillingAddressFormModule&#45;&gt;BillingAddressFormComponent </title>
<path fill="none" stroke="#000000" stroke-dasharray="5,2" d="M248,-187.1061C248,-187.1061 248,-205.991 248,-205.991"/>
<polygon fill="#000000" stroke="#000000" points="244.5001,-205.9909 248,-215.991 251.5001,-205.991 244.5001,-205.9909"/>
</g>
<!-- I18nModule -->
<g id="node3" class="node">
<title>I18nModule</title>
<polygon fill="#8dd3c7" stroke="#000000" points="180.7107,-122 177.7107,-126 156.7107,-126 153.7107,-122 95.2893,-122 95.2893,-86 180.7107,-86 180.7107,-122"/>
<text text-anchor="middle" x="138" y="-99.8" font-family="Times,serif" font-size="14.00" fill="#000000">I18nModule</text>
</g>
<!-- I18nModule&#45;&gt;BillingAddressFormModule -->
<g id="edge2" class="edge">
<title>I18nModule&#45;&gt;BillingAddressFormModule</title>
<path fill="none" stroke="#000000" d="M170.6392,-122.1061C170.6392,-122.1061 170.6392,-140.991 170.6392,-140.991"/>
<polygon fill="#000000" stroke="#000000" points="167.1393,-140.9909 170.6392,-150.991 174.1393,-140.991 167.1393,-140.9909"/>
</g>
</g>
</svg>
