<?xml version="1.0" encoding="UTF-8" standalone="no"?>
<!DOCTYPE svg PUBLIC "-//W3C//DTD SVG 1.1//EN"
 "http://www.w3.org/Graphics/SVG/1.1/DTD/svg11.dtd">
<!-- Generated by graphviz version 2.46.0 (20210119.1425)
 -->
<!-- Title: dependencies Pages: 1 -->
<svg width="504pt" height="284pt"
 viewBox="0.00 0.00 504.00 284.00" xmlns="http://www.w3.org/2000/svg" xmlns:xlink="http://www.w3.org/1999/xlink">
<g id="graph0" class="graph" transform="scale(1 1) rotate(0) translate(4 280)">
<title>dependencies</title>
<polygon fill="white" stroke="transparent" points="-4,4 -4,-280 500,-280 500,4 -4,4"/>
<text text-anchor="start" x="227.01" y="-42.4" font-family="sans-serif" font-weight="bold" font-size="14.00">Legend</text>
<polygon fill="#ffffb3" stroke="transparent" points="14,-10 14,-30 34,-30 34,-10 14,-10"/>
<text text-anchor="start" x="37.63" y="-15.4" font-family="sans-serif" font-size="14.00"> &#160;Declarations</text>
<polygon fill="#8dd3c7" stroke="transparent" points="127,-10 127,-30 147,-30 147,-10 127,-10"/>
<text text-anchor="start" x="150.73" y="-15.4" font-family="sans-serif" font-size="14.00"> &#160;Module</text>
<polygon fill="#80b1d3" stroke="transparent" points="213,-10 213,-30 233,-30 233,-10 213,-10"/>
<text text-anchor="start" x="236.78" y="-15.4" font-family="sans-serif" font-size="14.00"> &#160;Bootstrap</text>
<polygon fill="#fdb462" stroke="transparent" points="310,-10 310,-30 330,-30 330,-10 310,-10"/>
<text text-anchor="start" x="333.67" y="-15.4" font-family="sans-serif" font-size="14.00"> &#160;Providers</text>
<polygon fill="#fb8072" stroke="transparent" points="406,-10 406,-30 426,-30 426,-10 406,-10"/>
<text text-anchor="start" x="429.73" y="-15.4" font-family="sans-serif" font-size="14.00"> &#160;Exports</text>
<g id="clust1" class="cluster">
<title>cluster_BreadcrumbModule</title>
<polygon fill="none" stroke="black" stroke-dasharray="1,5" points="76,-70 76,-268 420,-268 420,-70 76,-70"/>
</g>
<g id="clust2" class="cluster">
<title>cluster_BreadcrumbModule_declarations</title>
<polygon fill="none" stroke="black" points="246,-78 246,-130 412,-130 412,-78 246,-78"/>
</g>
<g id="clust4" class="cluster">
<title>cluster_BreadcrumbModule_imports</title>
<polygon fill="none" stroke="black" points="84,-78 84,-130 238,-130 238,-78 84,-78"/>
</g>
<g id="clust5" class="cluster">
<title>cluster_BreadcrumbModule_exports</title>
<polygon fill="none" stroke="black" points="163,-208 163,-260 333,-260 333,-208 163,-208"/>
</g>
<!-- BreadcrumbComponent -->
<g id="node1" class="node">
<title>BreadcrumbComponent</title>
<polygon fill="#ffffb3" stroke="black" points="404.03,-122 253.97,-122 253.97,-86 404.03,-86 404.03,-122"/>
<text text-anchor="middle" x="329" y="-99.8" font-family="Times,serif" font-size="14.00">BreadcrumbComponent</text>
</g>
<!-- BreadcrumbModule -->
<g id="node2" class="node">
<title>BreadcrumbModule</title>
<polygon fill="#8dd3c7" stroke="black" points="312.24,-187 309.24,-191 288.24,-191 285.24,-187 183.76,-187 183.76,-151 312.24,-151 312.24,-187"/>
<text text-anchor="middle" x="248" y="-164.8" font-family="Times,serif" font-size="14.00">BreadcrumbModule</text>
</g>
<!-- BreadcrumbComponent&#45;&gt;BreadcrumbModule -->
<g id="edge1" class="edge">
<title>BreadcrumbComponent&#45;&gt;BreadcrumbModule</title>
<path fill="none" stroke="black" d="M283.05,-122.11C283.05,-122.11 283.05,-140.99 283.05,-140.99"/>
<polygon fill="black" stroke="black" points="279.55,-140.99 283.05,-150.99 286.55,-140.99 279.55,-140.99"/>
</g>
<!-- BreadcrumbComponent  -->
<g id="node4" class="node">
<title>BreadcrumbComponent </title>
<polygon fill="#fb8072" stroke="black" points="325.02,-252 170.98,-252 170.98,-216 325.02,-216 325.02,-252"/>
<text text-anchor="middle" x="248" y="-229.8" font-family="Times,serif" font-size="14.00">BreadcrumbComponent </text>
</g>
<!-- BreadcrumbModule&#45;&gt;BreadcrumbComponent  -->
<g id="edge3" class="edge">
<title>BreadcrumbModule&#45;&gt;BreadcrumbComponent </title>
<path fill="none" stroke="black" stroke-dasharray="5,2" d="M248,-187.11C248,-187.11 248,-205.99 248,-205.99"/>
<polygon fill="black" stroke="black" points="244.5,-205.99 248,-215.99 251.5,-205.99 244.5,-205.99"/>
</g>
<!-- CmsPageTitleModule -->
<g id="node3" class="node">
<title>CmsPageTitleModule</title>
<polygon fill="#8dd3c7" stroke="black" points="230.37,-122 227.37,-126 206.37,-126 203.37,-122 91.63,-122 91.63,-86 230.37,-86 230.37,-122"/>
<text text-anchor="middle" x="161" y="-99.8" font-family="Times,serif" font-size="14.00">CmsPageTitleModule</text>
</g>
<!-- CmsPageTitleModule&#45;&gt;BreadcrumbModule -->
<g id="edge2" class="edge">
<title>CmsPageTitleModule&#45;&gt;BreadcrumbModule</title>
<path fill="none" stroke="black" d="M207.03,-122.11C207.03,-122.11 207.03,-140.99 207.03,-140.99"/>
<polygon fill="black" stroke="black" points="203.53,-140.99 207.03,-150.99 210.53,-140.99 203.53,-140.99"/>
</g>
</g>
</svg>
