<?xml version="1.0" encoding="UTF-8" standalone="no"?>
<!DOCTYPE svg PUBLIC "-//W3C//DTD SVG 1.1//EN"
 "http://www.w3.org/Graphics/SVG/1.1/DTD/svg11.dtd">
<!-- Generated by graphviz version 2.47.3 (20210619.1520)
 -->
<!-- Title: dependencies Pages: 1 -->
<svg width="368pt" height="247pt"
 viewBox="0.00 0.00 368.00 246.80" xmlns="http://www.w3.org/2000/svg" xmlns:xlink="http://www.w3.org/1999/xlink">
<g id="graph0" class="graph" transform="scale(1 1) rotate(0) translate(4 242.8)">
<title>dependencies</title>
<polygon fill="white" stroke="transparent" points="-4,4 -4,-242.8 364,-242.8 364,4 -4,4"/>
<text text-anchor="middle" x="180" y="-8.2" font-family="sans-serif" font-size="14.00">dependencies</text>
<g id="clust1" class="cluster">
<title>cluster_BreadcrumbModule</title>
<polygon fill="none" stroke="black" stroke-dasharray="1,5" points="8,-32.8 8,-230.8 352,-230.8 352,-32.8 8,-32.8"/>
</g>
<g id="clust2" class="cluster">
<title>cluster_BreadcrumbModule_declarations</title>
<polygon fill="none" stroke="black" points="178,-40.8 178,-92.8 344,-92.8 344,-40.8 178,-40.8"/>
</g>
<g id="clust5" class="cluster">
<title>cluster_BreadcrumbModule_exports</title>
<polygon fill="none" stroke="black" points="95,-170.8 95,-222.8 265,-222.8 265,-170.8 95,-170.8"/>
</g>
<g id="clust4" class="cluster">
<title>cluster_BreadcrumbModule_imports</title>
<polygon fill="none" stroke="black" points="16,-40.8 16,-92.8 170,-92.8 170,-40.8 16,-40.8"/>
</g>
<!-- BreadcrumbComponent -->
<g id="node1" class="node">
<title>BreadcrumbComponent</title>
<polygon fill="#ffffb3" stroke="black" points="336.03,-84.8 185.97,-84.8 185.97,-48.8 336.03,-48.8 336.03,-84.8"/>
<text text-anchor="middle" x="261" y="-62.6" font-family="Times,serif" font-size="14.00">BreadcrumbComponent</text>
</g>
<!-- BreadcrumbModule -->
<g id="node2" class="node">
<title>BreadcrumbModule</title>
<polygon fill="#8dd3c7" stroke="black" points="244.24,-149.8 241.24,-153.8 220.24,-153.8 217.24,-149.8 115.76,-149.8 115.76,-113.8 244.24,-113.8 244.24,-149.8"/>
<text text-anchor="middle" x="180" y="-127.6" font-family="Times,serif" font-size="14.00">BreadcrumbModule</text>
</g>
<!-- BreadcrumbComponent&#45;&gt;BreadcrumbModule -->
<g id="edge1" class="edge">
<title>BreadcrumbComponent&#45;&gt;BreadcrumbModule</title>
<path fill="none" stroke="black" d="M215.05,-84.91C215.05,-84.91 215.05,-103.79 215.05,-103.79"/>
<polygon fill="black" stroke="black" points="211.55,-103.79 215.05,-113.79 218.55,-103.79 211.55,-103.79"/>
</g>
<!-- BreadcrumbComponent  -->
<g id="node4" class="node">
<title>BreadcrumbComponent </title>
<polygon fill="#fb8072" stroke="black" points="257.02,-214.8 102.98,-214.8 102.98,-178.8 257.02,-178.8 257.02,-214.8"/>
<text text-anchor="middle" x="180" y="-192.6" font-family="Times,serif" font-size="14.00">BreadcrumbComponent </text>
</g>
<!-- BreadcrumbModule&#45;&gt;BreadcrumbComponent  -->
<g id="edge3" class="edge">
<title>BreadcrumbModule&#45;&gt;BreadcrumbComponent </title>
<path fill="none" stroke="black" stroke-dasharray="5,2" d="M180,-149.91C180,-149.91 180,-168.79 180,-168.79"/>
<polygon fill="black" stroke="black" points="176.5,-168.79 180,-178.79 183.5,-168.79 176.5,-168.79"/>
</g>
<!-- CmsPageTitleModule -->
<g id="node3" class="node">
<title>CmsPageTitleModule</title>
<polygon fill="#8dd3c7" stroke="black" points="162.37,-84.8 159.37,-88.8 138.37,-88.8 135.37,-84.8 23.63,-84.8 23.63,-48.8 162.37,-48.8 162.37,-84.8"/>
<text text-anchor="middle" x="93" y="-62.6" font-family="Times,serif" font-size="14.00">CmsPageTitleModule</text>
</g>
<!-- CmsPageTitleModule&#45;&gt;BreadcrumbModule -->
<g id="edge2" class="edge">
<title>CmsPageTitleModule&#45;&gt;BreadcrumbModule</title>
<path fill="none" stroke="black" d="M139.03,-84.91C139.03,-84.91 139.03,-103.79 139.03,-103.79"/>
<polygon fill="black" stroke="black" points="135.53,-103.79 139.03,-113.79 142.53,-103.79 135.53,-103.79"/>
</g>
</g>
</svg>
