<?xml version="1.0" encoding="UTF-8" standalone="no"?>
<!DOCTYPE svg PUBLIC "-//W3C//DTD SVG 1.1//EN"
 "http://www.w3.org/Graphics/SVG/1.1/DTD/svg11.dtd">
<!-- Generated by graphviz version 2.47.3 (20210619.1520)
 -->
<!-- Title: dependencies Pages: 1 -->
<svg width="742pt" height="285pt"
 viewBox="0.00 0.00 742.00 285.39" xmlns="http://www.w3.org/2000/svg" xmlns:xlink="http://www.w3.org/1999/xlink">
<g id="graph0" class="graph" transform="scale(1 1) rotate(0) translate(4 281.39)">
<title>dependencies</title>
<polygon fill="white" stroke="transparent" points="-4,4 -4,-281.39 738,-281.39 738,4 -4,4"/>
<text text-anchor="middle" x="367" y="-8.2" font-family="sans-serif" font-size="14.00">dependencies</text>
<g id="clust1" class="cluster">
<title>cluster_BudgetCostCenterListModule</title>
<polygon fill="none" stroke="black" stroke-dasharray="1,5" points="8,-32.8 8,-269.39 726,-269.39 726,-32.8 8,-32.8"/>
</g>
<g id="clust3" class="cluster">
<title>cluster_BudgetCostCenterListModule_BudgetCostCenterListComponent_providers</title>
<polygon fill="none" stroke="black" points="144,-40.8 144,-204.39 718,-204.39 718,-40.8 144,-40.8"/>
</g>
<g id="clust4" class="cluster">
<title>cluster_BudgetCostCenterListModule_imports</title>
<polygon fill="none" stroke="black" points="16,-152.39 16,-204.39 136,-204.39 136,-152.39 16,-152.39"/>
</g>
<!-- BudgetCostCenterListComponent -->
<g id="node1" class="node">
<title>BudgetCostCenterListComponent</title>
<polygon fill="#ffffb3" stroke="black" points="446.04,-196.39 239.96,-196.39 239.96,-160.39 446.04,-160.39 446.04,-196.39"/>
<text text-anchor="middle" x="343" y="-174.19" font-family="Times,serif" font-size="14.00">BudgetCostCenterListComponent</text>
</g>
<!-- BudgetCostCenterListModule -->
<g id="node2" class="node">
<title>BudgetCostCenterListModule</title>
<polygon fill="#8dd3c7" stroke="black" points="273.26,-261.39 270.26,-265.39 249.26,-265.39 246.26,-261.39 88.74,-261.39 88.74,-225.39 273.26,-225.39 273.26,-261.39"/>
<text text-anchor="middle" x="181" y="-239.19" font-family="Times,serif" font-size="14.00">BudgetCostCenterListModule</text>
</g>
<!-- BudgetCostCenterListComponent&#45;&gt;BudgetCostCenterListModule -->
<g id="edge1" class="edge">
<title>BudgetCostCenterListComponent&#45;&gt;BudgetCostCenterListModule</title>
<path fill="none" stroke="black" d="M256.55,-196.5C256.55,-196.5 256.55,-215.38 256.55,-215.38"/>
<polygon fill="black" stroke="black" points="253.05,-215.38 256.55,-225.38 260.05,-215.38 253.05,-215.38"/>
</g>
<!-- {
 &#160;&#160;&#160;provide: ListService, useExisting: BudgetCostCenterListService,
} -->
<g id="node3" class="node">
<title>{
 &#160;&#160;&#160;provide: ListService, useExisting: BudgetCostCenterListService,
}</title>
<ellipse fill="#fdb462" stroke="black" cx="431" cy="-90.1" rx="278.65" ry="41.09"/>
<text text-anchor="middle" x="431" y="-102.7" font-family="Times,serif" font-size="14.00">{</text>
<text text-anchor="middle" x="431" y="-85.9" font-family="Times,serif" font-size="14.00"> &#160;&#160;&#160;provide: ListService, useExisting: BudgetCostCenterListService,</text>
<text text-anchor="middle" x="431" y="-69.1" font-family="Times,serif" font-size="14.00">}</text>
</g>
<!-- {
 &#160;&#160;&#160;provide: ListService, useExisting: BudgetCostCenterListService,
}&#45;&gt;BudgetCostCenterListComponent -->
<g id="edge2" class="edge">
<title>{
 &#160;&#160;&#160;provide: ListService, useExisting: BudgetCostCenterListService,
}&#45;&gt;BudgetCostCenterListComponent</title>
<path fill="none" stroke="black" d="M343,-129.34C343,-129.34 343,-150.01 343,-150.01"/>
<polygon fill="black" stroke="black" points="339.5,-150.01 343,-160.01 346.5,-150.01 339.5,-150.01"/>
</g>
<!-- SubListModule -->
<g id="node4" class="node">
<title>SubListModule</title>
<polygon fill="#8dd3c7" stroke="black" points="127.61,-196.39 124.61,-200.39 103.61,-200.39 100.61,-196.39 24.39,-196.39 24.39,-160.39 127.61,-160.39 127.61,-196.39"/>
<text text-anchor="middle" x="76" y="-174.19" font-family="Times,serif" font-size="14.00">SubListModule</text>
</g>
<!-- SubListModule&#45;&gt;BudgetCostCenterListModule -->
<g id="edge3" class="edge">
<title>SubListModule&#45;&gt;BudgetCostCenterListModule</title>
<path fill="none" stroke="black" d="M108.09,-196.5C108.09,-196.5 108.09,-215.38 108.09,-215.38"/>
<polygon fill="black" stroke="black" points="104.59,-215.38 108.09,-225.38 111.59,-215.38 104.59,-215.38"/>
</g>
</g>
</svg>
