<?xml version="1.0" encoding="UTF-8" standalone="no"?>
<!DOCTYPE svg PUBLIC "-//W3C//DTD SVG 1.1//EN"
 "http://www.w3.org/Graphics/SVG/1.1/DTD/svg11.dtd">
<!-- Generated by graphviz version 2.47.0 (20210316.0004)
 -->
<!-- Title: dependencies Pages: 1 -->
<svg width="742pt" height="323pt"
 viewBox="0.00 0.00 742.00 322.59" xmlns="http://www.w3.org/2000/svg" xmlns:xlink="http://www.w3.org/1999/xlink">
<g id="graph0" class="graph" transform="scale(1 1) rotate(0) translate(4 318.59)">
<title>dependencies</title>
<polygon fill="white" stroke="transparent" points="-4,4 -4,-318.59 738,-318.59 738,4 -4,4"/>
<text text-anchor="start" x="346.01" y="-42.4" font-family="sans-serif" font-weight="bold" font-size="14.00">Legend</text>
<polygon fill="#ffffb3" stroke="transparent" points="133,-10 133,-30 153,-30 153,-10 133,-10"/>
<text text-anchor="start" x="156.63" y="-15.4" font-family="sans-serif" font-size="14.00"> &#160;Declarations</text>
<polygon fill="#8dd3c7" stroke="transparent" points="246,-10 246,-30 266,-30 266,-10 246,-10"/>
<text text-anchor="start" x="269.73" y="-15.4" font-family="sans-serif" font-size="14.00"> &#160;Module</text>
<polygon fill="#80b1d3" stroke="transparent" points="332,-10 332,-30 352,-30 352,-10 332,-10"/>
<text text-anchor="start" x="355.78" y="-15.4" font-family="sans-serif" font-size="14.00"> &#160;Bootstrap</text>
<polygon fill="#fdb462" stroke="transparent" points="429,-10 429,-30 449,-30 449,-10 429,-10"/>
<text text-anchor="start" x="452.67" y="-15.4" font-family="sans-serif" font-size="14.00"> &#160;Providers</text>
<polygon fill="#fb8072" stroke="transparent" points="525,-10 525,-30 545,-30 545,-10 525,-10"/>
<text text-anchor="start" x="548.73" y="-15.4" font-family="sans-serif" font-size="14.00"> &#160;Exports</text>
<g id="clust1" class="cluster">
<title>cluster_BudgetCostCenterListModule</title>
<polygon fill="none" stroke="black" stroke-dasharray="1,5" points="8,-70 8,-306.59 726,-306.59 726,-70 8,-70"/>
</g>
<g id="clust3" class="cluster">
<title>cluster_BudgetCostCenterListModule_BudgetCostCenterListComponent_providers</title>
<polygon fill="none" stroke="black" points="144,-78 144,-241.59 718,-241.59 718,-78 144,-78"/>
</g>
<g id="clust4" class="cluster">
<title>cluster_BudgetCostCenterListModule_imports</title>
<polygon fill="none" stroke="black" points="16,-189.59 16,-241.59 136,-241.59 136,-189.59 16,-189.59"/>
</g>
<!-- BudgetCostCenterListComponent -->
<g id="node1" class="node">
<title>BudgetCostCenterListComponent</title>
<polygon fill="#ffffb3" stroke="black" points="446.04,-233.59 239.96,-233.59 239.96,-197.59 446.04,-197.59 446.04,-233.59"/>
<text text-anchor="middle" x="343" y="-211.39" font-family="Times,serif" font-size="14.00">BudgetCostCenterListComponent</text>
</g>
<!-- BudgetCostCenterListModule -->
<g id="node2" class="node">
<title>BudgetCostCenterListModule</title>
<polygon fill="#8dd3c7" stroke="black" points="273.26,-298.59 270.26,-302.59 249.26,-302.59 246.26,-298.59 88.74,-298.59 88.74,-262.59 273.26,-262.59 273.26,-298.59"/>
<text text-anchor="middle" x="181" y="-276.39" font-family="Times,serif" font-size="14.00">BudgetCostCenterListModule</text>
</g>
<!-- BudgetCostCenterListComponent&#45;&gt;BudgetCostCenterListModule -->
<g id="edge1" class="edge">
<title>BudgetCostCenterListComponent&#45;&gt;BudgetCostCenterListModule</title>
<path fill="none" stroke="black" d="M256.55,-233.7C256.55,-233.7 256.55,-252.58 256.55,-252.58"/>
<polygon fill="black" stroke="black" points="253.05,-252.58 256.55,-262.58 260.05,-252.58 253.05,-252.58"/>
</g>
<!-- {
 &#160;&#160;&#160;provide: ListService, useExisting: BudgetCostCenterListService,
} -->
<g id="node3" class="node">
<title>{
 &#160;&#160;&#160;provide: ListService, useExisting: BudgetCostCenterListService,
}</title>
<ellipse fill="#fdb462" stroke="black" cx="431" cy="-127.3" rx="278.65" ry="41.09"/>
<text text-anchor="middle" x="431" y="-139.9" font-family="Times,serif" font-size="14.00">{</text>
<text text-anchor="middle" x="431" y="-123.1" font-family="Times,serif" font-size="14.00"> &#160;&#160;&#160;provide: ListService, useExisting: BudgetCostCenterListService,</text>
<text text-anchor="middle" x="431" y="-106.3" font-family="Times,serif" font-size="14.00">}</text>
</g>
<!-- {
 &#160;&#160;&#160;provide: ListService, useExisting: BudgetCostCenterListService,
}&#45;&gt;BudgetCostCenterListComponent -->
<g id="edge2" class="edge">
<title>{
 &#160;&#160;&#160;provide: ListService, useExisting: BudgetCostCenterListService,
}&#45;&gt;BudgetCostCenterListComponent</title>
<path fill="none" stroke="black" d="M343,-166.54C343,-166.54 343,-187.21 343,-187.21"/>
<polygon fill="black" stroke="black" points="339.5,-187.21 343,-197.21 346.5,-187.21 339.5,-187.21"/>
</g>
<!-- SubListModule -->
<g id="node4" class="node">
<title>SubListModule</title>
<polygon fill="#8dd3c7" stroke="black" points="127.61,-233.59 124.61,-237.59 103.61,-237.59 100.61,-233.59 24.39,-233.59 24.39,-197.59 127.61,-197.59 127.61,-233.59"/>
<text text-anchor="middle" x="76" y="-211.39" font-family="Times,serif" font-size="14.00">SubListModule</text>
</g>
<!-- SubListModule&#45;&gt;BudgetCostCenterListModule -->
<g id="edge3" class="edge">
<title>SubListModule&#45;&gt;BudgetCostCenterListModule</title>
<path fill="none" stroke="black" d="M108.09,-233.7C108.09,-233.7 108.09,-252.58 108.09,-252.58"/>
<polygon fill="black" stroke="black" points="104.59,-252.58 108.09,-262.58 111.59,-252.58 104.59,-252.58"/>
</g>
</g>
</svg>
