<?xml version="1.0" encoding="UTF-8" standalone="no"?>
<!DOCTYPE svg PUBLIC "-//W3C//DTD SVG 1.1//EN"
 "http://www.w3.org/Graphics/SVG/1.1/DTD/svg11.dtd">
<!-- Generated by graphviz version 2.40.1 (20161225.0304)
 -->
<!-- Title: dependencies Pages: 1 -->
<svg width="614pt" height="323pt"
 viewBox="0.00 0.00 614.00 322.59" xmlns="http://www.w3.org/2000/svg" xmlns:xlink="http://www.w3.org/1999/xlink">
<g id="graph0" class="graph" transform="scale(1 1) rotate(0) translate(4 318.5901)">
<title>dependencies</title>
<polygon fill="#ffffff" stroke="transparent" points="-4,4 -4,-318.5901 610,-318.5901 610,4 -4,4"/>
<text text-anchor="start" x="282.0091" y="-42.4" font-family="sans-serif" font-weight="bold" font-size="14.00" fill="#000000">Legend</text>
<polygon fill="#ffffb3" stroke="transparent" points="69,-10 69,-30 89,-30 89,-10 69,-10"/>
<text text-anchor="start" x="92.629" y="-15.4" font-family="sans-serif" font-size="14.00" fill="#000000"> &#160;Declarations</text>
<polygon fill="#8dd3c7" stroke="transparent" points="182,-10 182,-30 202,-30 202,-10 182,-10"/>
<text text-anchor="start" x="205.7251" y="-15.4" font-family="sans-serif" font-size="14.00" fill="#000000"> &#160;Module</text>
<polygon fill="#80b1d3" stroke="transparent" points="268,-10 268,-30 288,-30 288,-10 268,-10"/>
<text text-anchor="start" x="291.7812" y="-15.4" font-family="sans-serif" font-size="14.00" fill="#000000"> &#160;Bootstrap</text>
<polygon fill="#fdb462" stroke="transparent" points="365,-10 365,-30 385,-30 385,-10 365,-10"/>
<text text-anchor="start" x="388.6732" y="-15.4" font-family="sans-serif" font-size="14.00" fill="#000000"> &#160;Providers</text>
<polygon fill="#fb8072" stroke="transparent" points="461,-10 461,-30 481,-30 481,-10 461,-10"/>
<text text-anchor="start" x="484.7258" y="-15.4" font-family="sans-serif" font-size="14.00" fill="#000000"> &#160;Exports</text>
<g id="clust1" class="cluster">
<title>cluster_BudgetCostCenterListModule</title>
<polygon fill="none" stroke="#000000" stroke-dasharray="1,5" points="8,-70 8,-306.5901 598,-306.5901 598,-70 8,-70"/>
</g>
<g id="clust2" class="cluster">
<title>cluster_BudgetCostCenterListModule_declarations</title>
<polygon fill="none" stroke="#000000" points="192,-189.5901 192,-241.5901 414,-241.5901 414,-189.5901 192,-189.5901"/>
</g>
<g id="clust3" class="cluster">
<title>cluster_BudgetCostCenterListModule_BudgetCostCenterListComponent_providers</title>
<polygon fill="none" stroke="#000000" points="16,-78 16,-176.5901 590,-176.5901 590,-78 16,-78"/>
</g>
<g id="clust4" class="cluster">
<title>cluster_BudgetCostCenterListModule_imports</title>
<polygon fill="none" stroke="#000000" points="64,-189.5901 64,-241.5901 184,-241.5901 184,-189.5901 64,-189.5901"/>
</g>
<!-- BudgetCostCenterListComponent -->
<g id="node1" class="node">
<title>BudgetCostCenterListComponent</title>
<polygon fill="#ffffb3" stroke="#000000" points="406.0419,-233.5901 199.9581,-233.5901 199.9581,-197.5901 406.0419,-197.5901 406.0419,-233.5901"/>
<text text-anchor="middle" x="303" y="-211.3901" font-family="Times,serif" font-size="14.00" fill="#000000">BudgetCostCenterListComponent</text>
</g>
<!-- BudgetCostCenterListModule -->
<g id="node2" class="node">
<title>BudgetCostCenterListModule</title>
<polygon fill="#8dd3c7" stroke="#000000" points="305.259,-298.5901 302.259,-302.5901 281.259,-302.5901 278.259,-298.5901 120.741,-298.5901 120.741,-262.5901 305.259,-262.5901 305.259,-298.5901"/>
<text text-anchor="middle" x="213" y="-276.3901" font-family="Times,serif" font-size="14.00" fill="#000000">BudgetCostCenterListModule</text>
</g>
<!-- BudgetCostCenterListComponent&#45;&gt;BudgetCostCenterListModule -->
<g id="edge1" class="edge">
<title>BudgetCostCenterListComponent&#45;&gt;BudgetCostCenterListModule</title>
<path fill="none" stroke="#000000" d="M252.5544,-233.6962C252.5544,-233.6962 252.5544,-252.581 252.5544,-252.581"/>
<polygon fill="#000000" stroke="#000000" points="249.0544,-252.581 252.5544,-262.581 256.0544,-252.5811 249.0544,-252.581"/>
</g>
<!-- {
 &#160;&#160;&#160;provide: ListService, useExisting: BudgetCostCenterListService,
} -->
<g id="node3" class="node">
<title>{
 &#160;&#160;&#160;provide: ListService, useExisting: BudgetCostCenterListService,
}</title>
<ellipse fill="#fdb462" stroke="#000000" cx="303" cy="-127.295" rx="278.6497" ry="41.0911"/>
<text text-anchor="middle" x="303" y="-139.895" font-family="Times,serif" font-size="14.00" fill="#000000">{</text>
<text text-anchor="middle" x="303" y="-123.095" font-family="Times,serif" font-size="14.00" fill="#000000"> &#160;&#160;&#160;provide: ListService, useExisting: BudgetCostCenterListService,</text>
<text text-anchor="middle" x="303" y="-106.295" font-family="Times,serif" font-size="14.00" fill="#000000">}</text>
</g>
<!-- {
 &#160;&#160;&#160;provide: ListService, useExisting: BudgetCostCenterListService,
}&#45;&gt;BudgetCostCenterListComponent -->
<g id="edge2" class="edge">
<title>{
 &#160;&#160;&#160;provide: ListService, useExisting: BudgetCostCenterListService,
}&#45;&gt;BudgetCostCenterListComponent</title>
<path fill="none" stroke="#000000" d="M303,-168.5989C303,-168.5989 303,-187.2551 303,-187.2551"/>
<polygon fill="#000000" stroke="#000000" points="299.5001,-187.255 303,-197.2551 306.5001,-187.2551 299.5001,-187.255"/>
</g>
<!-- SubListModule -->
<g id="node4" class="node">
<title>SubListModule</title>
<polygon fill="#8dd3c7" stroke="#000000" points="175.6109,-233.5901 172.6109,-237.5901 151.6109,-237.5901 148.6109,-233.5901 72.3891,-233.5901 72.3891,-197.5901 175.6109,-197.5901 175.6109,-233.5901"/>
<text text-anchor="middle" x="124" y="-211.3901" font-family="Times,serif" font-size="14.00" fill="#000000">SubListModule</text>
</g>
<!-- SubListModule&#45;&gt;BudgetCostCenterListModule -->
<g id="edge3" class="edge">
<title>SubListModule&#45;&gt;BudgetCostCenterListModule</title>
<path fill="none" stroke="#000000" d="M148.088,-233.6962C148.088,-233.6962 148.088,-252.581 148.088,-252.581"/>
<polygon fill="#000000" stroke="#000000" points="144.5881,-252.581 148.088,-262.581 151.5881,-252.5811 144.5881,-252.581"/>
</g>
</g>
</svg>
