<?xml version="1.0" encoding="UTF-8" standalone="no"?>
<!DOCTYPE svg PUBLIC "-//W3C//DTD SVG 1.1//EN"
 "http://www.w3.org/Graphics/SVG/1.1/DTD/svg11.dtd">
<!-- Generated by graphviz version 2.47.3 (20210619.1520)
 -->
<!-- Title: dependencies Pages: 1 -->
<svg width="614pt" height="285pt"
 viewBox="0.00 0.00 614.00 285.39" xmlns="http://www.w3.org/2000/svg" xmlns:xlink="http://www.w3.org/1999/xlink">
<g id="graph0" class="graph" transform="scale(1 1) rotate(0) translate(4 281.39)">
<title>dependencies</title>
<polygon fill="white" stroke="transparent" points="-4,4 -4,-281.39 610,-281.39 610,4 -4,4"/>
<text text-anchor="middle" x="303" y="-8.2" font-family="sans-serif" font-size="14.00">dependencies</text>
<g id="clust1" class="cluster">
<title>cluster_BudgetCostCenterListModule</title>
<polygon fill="none" stroke="black" stroke-dasharray="1,5" points="8,-32.8 8,-269.39 598,-269.39 598,-32.8 8,-32.8"/>
</g>
<g id="clust2" class="cluster">
<title>cluster_BudgetCostCenterListModule_declarations</title>
<polygon fill="none" stroke="black" points="192,-152.39 192,-204.39 414,-204.39 414,-152.39 192,-152.39"/>
</g>
<g id="clust3" class="cluster">
<title>cluster_BudgetCostCenterListModule_BudgetCostCenterListComponent_providers</title>
<polygon fill="none" stroke="black" points="16,-40.8 16,-139.39 590,-139.39 590,-40.8 16,-40.8"/>
</g>
<g id="clust4" class="cluster">
<title>cluster_BudgetCostCenterListModule_imports</title>
<polygon fill="none" stroke="black" points="64,-152.39 64,-204.39 184,-204.39 184,-152.39 64,-152.39"/>
</g>
<!-- BudgetCostCenterListComponent -->
<g id="node1" class="node">
<title>BudgetCostCenterListComponent</title>
<polygon fill="#ffffb3" stroke="black" points="406.04,-196.39 199.96,-196.39 199.96,-160.39 406.04,-160.39 406.04,-196.39"/>
<text text-anchor="middle" x="303" y="-174.19" font-family="Times,serif" font-size="14.00">BudgetCostCenterListComponent</text>
</g>
<!-- BudgetCostCenterListModule -->
<g id="node2" class="node">
<title>BudgetCostCenterListModule</title>
<polygon fill="#8dd3c7" stroke="black" points="305.26,-261.39 302.26,-265.39 281.26,-265.39 278.26,-261.39 120.74,-261.39 120.74,-225.39 305.26,-225.39 305.26,-261.39"/>
<text text-anchor="middle" x="213" y="-239.19" font-family="Times,serif" font-size="14.00">BudgetCostCenterListModule</text>
</g>
<!-- BudgetCostCenterListComponent&#45;&gt;BudgetCostCenterListModule -->
<g id="edge1" class="edge">
<title>BudgetCostCenterListComponent&#45;&gt;BudgetCostCenterListModule</title>
<path fill="none" stroke="black" d="M252.55,-196.5C252.55,-196.5 252.55,-215.38 252.55,-215.38"/>
<polygon fill="black" stroke="black" points="249.05,-215.38 252.55,-225.38 256.05,-215.38 249.05,-215.38"/>
</g>
<!-- {
 &#160;&#160;&#160;provide: ListService, useExisting: BudgetCostCenterListService,
} -->
<g id="node3" class="node">
<title>{
 &#160;&#160;&#160;provide: ListService, useExisting: BudgetCostCenterListService,
}</title>
<ellipse fill="#fdb462" stroke="black" cx="303" cy="-90.1" rx="278.65" ry="41.09"/>
<text text-anchor="middle" x="303" y="-102.7" font-family="Times,serif" font-size="14.00">{</text>
<text text-anchor="middle" x="303" y="-85.9" font-family="Times,serif" font-size="14.00"> &#160;&#160;&#160;provide: ListService, useExisting: BudgetCostCenterListService,</text>
<text text-anchor="middle" x="303" y="-69.1" font-family="Times,serif" font-size="14.00">}</text>
</g>
<!-- {
 &#160;&#160;&#160;provide: ListService, useExisting: BudgetCostCenterListService,
}&#45;&gt;BudgetCostCenterListComponent -->
<g id="edge2" class="edge">
<title>{
 &#160;&#160;&#160;provide: ListService, useExisting: BudgetCostCenterListService,
}&#45;&gt;BudgetCostCenterListComponent</title>
<path fill="none" stroke="black" d="M303,-131.4C303,-131.4 303,-150.06 303,-150.06"/>
<polygon fill="black" stroke="black" points="299.5,-150.06 303,-160.06 306.5,-150.06 299.5,-150.06"/>
</g>
<!-- SubListModule -->
<g id="node4" class="node">
<title>SubListModule</title>
<polygon fill="#8dd3c7" stroke="black" points="175.61,-196.39 172.61,-200.39 151.61,-200.39 148.61,-196.39 72.39,-196.39 72.39,-160.39 175.61,-160.39 175.61,-196.39"/>
<text text-anchor="middle" x="124" y="-174.19" font-family="Times,serif" font-size="14.00">SubListModule</text>
</g>
<!-- SubListModule&#45;&gt;BudgetCostCenterListModule -->
<g id="edge3" class="edge">
<title>SubListModule&#45;&gt;BudgetCostCenterListModule</title>
<path fill="none" stroke="black" d="M148.09,-196.5C148.09,-196.5 148.09,-215.38 148.09,-215.38"/>
<polygon fill="black" stroke="black" points="144.59,-215.38 148.09,-225.38 151.59,-215.38 144.59,-215.38"/>
</g>
</g>
</svg>
