<?xml version="1.0" encoding="UTF-8" standalone="no"?>
<!DOCTYPE svg PUBLIC "-//W3C//DTD SVG 1.1//EN"
 "http://www.w3.org/Graphics/SVG/1.1/DTD/svg11.dtd">
<!-- Generated by graphviz version 2.47.0 (20210316.0004)
 -->
<!-- Title: dependencies Pages: 1 -->
<svg width="614pt" height="323pt"
 viewBox="0.00 0.00 614.00 322.59" xmlns="http://www.w3.org/2000/svg" xmlns:xlink="http://www.w3.org/1999/xlink">
<g id="graph0" class="graph" transform="scale(1 1) rotate(0) translate(4 318.59)">
<title>dependencies</title>
<polygon fill="white" stroke="transparent" points="-4,4 -4,-318.59 610,-318.59 610,4 -4,4"/>
<text text-anchor="start" x="282.01" y="-42.4" font-family="sans-serif" font-weight="bold" font-size="14.00">Legend</text>
<polygon fill="#ffffb3" stroke="transparent" points="69,-10 69,-30 89,-30 89,-10 69,-10"/>
<text text-anchor="start" x="92.63" y="-15.4" font-family="sans-serif" font-size="14.00"> &#160;Declarations</text>
<polygon fill="#8dd3c7" stroke="transparent" points="182,-10 182,-30 202,-30 202,-10 182,-10"/>
<text text-anchor="start" x="205.73" y="-15.4" font-family="sans-serif" font-size="14.00"> &#160;Module</text>
<polygon fill="#80b1d3" stroke="transparent" points="268,-10 268,-30 288,-30 288,-10 268,-10"/>
<text text-anchor="start" x="291.78" y="-15.4" font-family="sans-serif" font-size="14.00"> &#160;Bootstrap</text>
<polygon fill="#fdb462" stroke="transparent" points="365,-10 365,-30 385,-30 385,-10 365,-10"/>
<text text-anchor="start" x="388.67" y="-15.4" font-family="sans-serif" font-size="14.00"> &#160;Providers</text>
<polygon fill="#fb8072" stroke="transparent" points="461,-10 461,-30 481,-30 481,-10 461,-10"/>
<text text-anchor="start" x="484.73" y="-15.4" font-family="sans-serif" font-size="14.00"> &#160;Exports</text>
<g id="clust1" class="cluster">
<title>cluster_BudgetCostCenterListModule</title>
<polygon fill="none" stroke="black" stroke-dasharray="1,5" points="8,-70 8,-306.59 598,-306.59 598,-70 8,-70"/>
</g>
<g id="clust2" class="cluster">
<title>cluster_BudgetCostCenterListModule_declarations</title>
<polygon fill="none" stroke="black" points="192,-189.59 192,-241.59 414,-241.59 414,-189.59 192,-189.59"/>
</g>
<g id="clust3" class="cluster">
<title>cluster_BudgetCostCenterListModule_BudgetCostCenterListComponent_providers</title>
<polygon fill="none" stroke="black" points="16,-78 16,-176.59 590,-176.59 590,-78 16,-78"/>
</g>
<g id="clust4" class="cluster">
<title>cluster_BudgetCostCenterListModule_imports</title>
<polygon fill="none" stroke="black" points="64,-189.59 64,-241.59 184,-241.59 184,-189.59 64,-189.59"/>
</g>
<!-- BudgetCostCenterListComponent -->
<g id="node1" class="node">
<title>BudgetCostCenterListComponent</title>
<polygon fill="#ffffb3" stroke="black" points="406.04,-233.59 199.96,-233.59 199.96,-197.59 406.04,-197.59 406.04,-233.59"/>
<text text-anchor="middle" x="303" y="-211.39" font-family="Times,serif" font-size="14.00">BudgetCostCenterListComponent</text>
</g>
<!-- BudgetCostCenterListModule -->
<g id="node2" class="node">
<title>BudgetCostCenterListModule</title>
<polygon fill="#8dd3c7" stroke="black" points="305.26,-298.59 302.26,-302.59 281.26,-302.59 278.26,-298.59 120.74,-298.59 120.74,-262.59 305.26,-262.59 305.26,-298.59"/>
<text text-anchor="middle" x="213" y="-276.39" font-family="Times,serif" font-size="14.00">BudgetCostCenterListModule</text>
</g>
<!-- BudgetCostCenterListComponent&#45;&gt;BudgetCostCenterListModule -->
<g id="edge1" class="edge">
<title>BudgetCostCenterListComponent&#45;&gt;BudgetCostCenterListModule</title>
<path fill="none" stroke="black" d="M252.55,-233.7C252.55,-233.7 252.55,-252.58 252.55,-252.58"/>
<polygon fill="black" stroke="black" points="249.05,-252.58 252.55,-262.58 256.05,-252.58 249.05,-252.58"/>
</g>
<!-- {
 &#160;&#160;&#160;provide: ListService, useExisting: BudgetCostCenterListService,
} -->
<g id="node3" class="node">
<title>{
 &#160;&#160;&#160;provide: ListService, useExisting: BudgetCostCenterListService,
}</title>
<ellipse fill="#fdb462" stroke="black" cx="303" cy="-127.3" rx="278.65" ry="41.09"/>
<text text-anchor="middle" x="303" y="-139.9" font-family="Times,serif" font-size="14.00">{</text>
<text text-anchor="middle" x="303" y="-123.1" font-family="Times,serif" font-size="14.00"> &#160;&#160;&#160;provide: ListService, useExisting: BudgetCostCenterListService,</text>
<text text-anchor="middle" x="303" y="-106.3" font-family="Times,serif" font-size="14.00">}</text>
</g>
<!-- {
 &#160;&#160;&#160;provide: ListService, useExisting: BudgetCostCenterListService,
}&#45;&gt;BudgetCostCenterListComponent -->
<g id="edge2" class="edge">
<title>{
 &#160;&#160;&#160;provide: ListService, useExisting: BudgetCostCenterListService,
}&#45;&gt;BudgetCostCenterListComponent</title>
<path fill="none" stroke="black" d="M303,-168.6C303,-168.6 303,-187.26 303,-187.26"/>
<polygon fill="black" stroke="black" points="299.5,-187.26 303,-197.26 306.5,-187.26 299.5,-187.26"/>
</g>
<!-- SubListModule -->
<g id="node4" class="node">
<title>SubListModule</title>
<polygon fill="#8dd3c7" stroke="black" points="175.61,-233.59 172.61,-237.59 151.61,-237.59 148.61,-233.59 72.39,-233.59 72.39,-197.59 175.61,-197.59 175.61,-233.59"/>
<text text-anchor="middle" x="124" y="-211.39" font-family="Times,serif" font-size="14.00">SubListModule</text>
</g>
<!-- SubListModule&#45;&gt;BudgetCostCenterListModule -->
<g id="edge3" class="edge">
<title>SubListModule&#45;&gt;BudgetCostCenterListModule</title>
<path fill="none" stroke="black" d="M148.09,-233.7C148.09,-233.7 148.09,-252.58 148.09,-252.58"/>
<polygon fill="black" stroke="black" points="144.59,-252.58 148.09,-262.58 151.59,-252.58 144.59,-252.58"/>
</g>
</g>
</svg>
