<?xml version="1.0" encoding="UTF-8" standalone="no"?>
<!DOCTYPE svg PUBLIC "-//W3C//DTD SVG 1.1//EN"
 "http://www.w3.org/Graphics/SVG/1.1/DTD/svg11.dtd">
<!-- Generated by graphviz version 2.47.3 (20210619.1520)
 -->
<!-- Title: dependencies Pages: 1 -->
<svg width="390pt" height="174pt"
 viewBox="0.00 0.00 390.00 173.80" xmlns="http://www.w3.org/2000/svg" xmlns:xlink="http://www.w3.org/1999/xlink">
<g id="graph0" class="graph" transform="scale(1 1) rotate(0) translate(4 169.8)">
<title>dependencies</title>
<polygon fill="white" stroke="transparent" points="-4,4 -4,-169.8 386,-169.8 386,4 -4,4"/>
<text text-anchor="middle" x="191" y="-8.2" font-family="sans-serif" font-size="14.00">dependencies</text>
<g id="clust1" class="cluster">
<title>cluster_BudgetCostCenterListModule</title>
<polygon fill="none" stroke="black" stroke-dasharray="1,5" points="8,-32.8 8,-157.8 374,-157.8 374,-32.8 8,-32.8"/>
</g>
<g id="clust2" class="cluster">
<title>cluster_BudgetCostCenterListModule_declarations</title>
<polygon fill="none" stroke="black" points="144,-40.8 144,-92.8 366,-92.8 366,-40.8 144,-40.8"/>
</g>
<g id="clust4" class="cluster">
<title>cluster_BudgetCostCenterListModule_imports</title>
<polygon fill="none" stroke="black" points="16,-40.8 16,-92.8 136,-92.8 136,-40.8 16,-40.8"/>
</g>
<!-- BudgetCostCenterListComponent -->
<g id="node1" class="node">
<title>BudgetCostCenterListComponent</title>
<polygon fill="#ffffb3" stroke="black" points="358.04,-84.8 151.96,-84.8 151.96,-48.8 358.04,-48.8 358.04,-84.8"/>
<text text-anchor="middle" x="255" y="-62.6" font-family="Times,serif" font-size="14.00">BudgetCostCenterListComponent</text>
</g>
<!-- BudgetCostCenterListModule -->
<g id="node2" class="node">
<title>BudgetCostCenterListModule</title>
<polygon fill="#8dd3c7" stroke="black" points="273.26,-149.8 270.26,-153.8 249.26,-153.8 246.26,-149.8 88.74,-149.8 88.74,-113.8 273.26,-113.8 273.26,-149.8"/>
<text text-anchor="middle" x="181" y="-127.6" font-family="Times,serif" font-size="14.00">BudgetCostCenterListModule</text>
</g>
<!-- BudgetCostCenterListComponent&#45;&gt;BudgetCostCenterListModule -->
<g id="edge1" class="edge">
<title>BudgetCostCenterListComponent&#45;&gt;BudgetCostCenterListModule</title>
<path fill="none" stroke="black" d="M212.55,-84.91C212.55,-84.91 212.55,-103.79 212.55,-103.79"/>
<polygon fill="black" stroke="black" points="209.05,-103.79 212.55,-113.79 216.05,-103.79 209.05,-103.79"/>
</g>
<!-- SubListModule -->
<g id="node3" class="node">
<title>SubListModule</title>
<polygon fill="#8dd3c7" stroke="black" points="127.61,-84.8 124.61,-88.8 103.61,-88.8 100.61,-84.8 24.39,-84.8 24.39,-48.8 127.61,-48.8 127.61,-84.8"/>
<text text-anchor="middle" x="76" y="-62.6" font-family="Times,serif" font-size="14.00">SubListModule</text>
</g>
<!-- SubListModule&#45;&gt;BudgetCostCenterListModule -->
<g id="edge2" class="edge">
<title>SubListModule&#45;&gt;BudgetCostCenterListModule</title>
<path fill="none" stroke="black" d="M108.09,-84.91C108.09,-84.91 108.09,-103.79 108.09,-103.79"/>
<polygon fill="black" stroke="black" points="104.59,-103.79 108.09,-113.79 111.59,-103.79 104.59,-103.79"/>
</g>
</g>
</svg>
