<?xml version="1.0" encoding="UTF-8" standalone="no"?>
<!DOCTYPE svg PUBLIC "-//W3C//DTD SVG 1.1//EN"
 "http://www.w3.org/Graphics/SVG/1.1/DTD/svg11.dtd">
<!-- Generated by graphviz version 2.40.1 (20161225.0304)
 -->
<!-- Title: dependencies Pages: 1 -->
<svg width="632pt" height="284pt"
 viewBox="0.00 0.00 632.00 284.00" xmlns="http://www.w3.org/2000/svg" xmlns:xlink="http://www.w3.org/1999/xlink">
<g id="graph0" class="graph" transform="scale(1 1) rotate(0) translate(4 280)">
<title>dependencies</title>
<polygon fill="#ffffff" stroke="transparent" points="-4,4 -4,-280 628,-280 628,4 -4,4"/>
<text text-anchor="start" x="291.0091" y="-42.4" font-family="sans-serif" font-weight="bold" font-size="14.00" fill="#000000">Legend</text>
<polygon fill="#ffffb3" stroke="transparent" points="78,-10 78,-30 98,-30 98,-10 78,-10"/>
<text text-anchor="start" x="101.629" y="-15.4" font-family="sans-serif" font-size="14.00" fill="#000000"> &#160;Declarations</text>
<polygon fill="#8dd3c7" stroke="transparent" points="191,-10 191,-30 211,-30 211,-10 191,-10"/>
<text text-anchor="start" x="214.7251" y="-15.4" font-family="sans-serif" font-size="14.00" fill="#000000"> &#160;Module</text>
<polygon fill="#80b1d3" stroke="transparent" points="277,-10 277,-30 297,-30 297,-10 277,-10"/>
<text text-anchor="start" x="300.7812" y="-15.4" font-family="sans-serif" font-size="14.00" fill="#000000"> &#160;Bootstrap</text>
<polygon fill="#fdb462" stroke="transparent" points="374,-10 374,-30 394,-30 394,-10 374,-10"/>
<text text-anchor="start" x="397.6732" y="-15.4" font-family="sans-serif" font-size="14.00" fill="#000000"> &#160;Providers</text>
<polygon fill="#fb8072" stroke="transparent" points="470,-10 470,-30 490,-30 490,-10 470,-10"/>
<text text-anchor="start" x="493.7258" y="-15.4" font-family="sans-serif" font-size="14.00" fill="#000000"> &#160;Exports</text>
<g id="clust1" class="cluster">
<title>cluster_CancelOrReturnItemsModule</title>
<polygon fill="none" stroke="#000000" stroke-dasharray="1,5" points="8,-70 8,-268 616,-268 616,-70 8,-70"/>
</g>
<g id="clust2" class="cluster">
<title>cluster_CancelOrReturnItemsModule_declarations</title>
<polygon fill="none" stroke="#000000" points="388,-78 388,-130 608,-130 608,-78 388,-78"/>
</g>
<g id="clust4" class="cluster">
<title>cluster_CancelOrReturnItemsModule_imports</title>
<polygon fill="none" stroke="#000000" points="16,-78 16,-130 380,-130 380,-78 16,-78"/>
</g>
<g id="clust5" class="cluster">
<title>cluster_CancelOrReturnItemsModule_exports</title>
<polygon fill="none" stroke="#000000" points="154,-208 154,-260 378,-260 378,-208 154,-208"/>
</g>
<!-- CancelOrReturnItemsComponent -->
<g id="node1" class="node">
<title>CancelOrReturnItemsComponent</title>
<polygon fill="#ffffb3" stroke="#000000" points="600.1741,-122 395.8259,-122 395.8259,-86 600.1741,-86 600.1741,-122"/>
<text text-anchor="middle" x="498" y="-99.8" font-family="Times,serif" font-size="14.00" fill="#000000">CancelOrReturnItemsComponent</text>
</g>
<!-- CancelOrReturnItemsModule -->
<g id="node2" class="node">
<title>CancelOrReturnItemsModule</title>
<polygon fill="#8dd3c7" stroke="#000000" points="357.3918,-187 354.3918,-191 333.3918,-191 330.3918,-187 174.6082,-187 174.6082,-151 357.3918,-151 357.3918,-187"/>
<text text-anchor="middle" x="266" y="-164.8" font-family="Times,serif" font-size="14.00" fill="#000000">CancelOrReturnItemsModule</text>
</g>
<!-- CancelOrReturnItemsComponent&#45;&gt;CancelOrReturnItemsModule -->
<g id="edge1" class="edge">
<title>CancelOrReturnItemsComponent&#45;&gt;CancelOrReturnItemsModule</title>
<path fill="none" stroke="#000000" d="M498,-122.1061C498,-141.3391 498,-169 498,-169 498,-169 367.3595,-169 367.3595,-169"/>
<polygon fill="#000000" stroke="#000000" points="367.3595,-165.5001 357.3595,-169 367.3595,-172.5001 367.3595,-165.5001"/>
</g>
<!-- CancelOrReturnItemsComponent  -->
<g id="node6" class="node">
<title>CancelOrReturnItemsComponent </title>
<polygon fill="#fb8072" stroke="#000000" points="369.6743,-252 162.3257,-252 162.3257,-216 369.6743,-216 369.6743,-252"/>
<text text-anchor="middle" x="266" y="-229.8" font-family="Times,serif" font-size="14.00" fill="#000000">CancelOrReturnItemsComponent </text>
</g>
<!-- CancelOrReturnItemsModule&#45;&gt;CancelOrReturnItemsComponent  -->
<g id="edge5" class="edge">
<title>CancelOrReturnItemsModule&#45;&gt;CancelOrReturnItemsComponent </title>
<path fill="none" stroke="#000000" stroke-dasharray="5,2" d="M266,-187.1061C266,-187.1061 266,-205.991 266,-205.991"/>
<polygon fill="#000000" stroke="#000000" points="262.5001,-205.9909 266,-215.991 269.5001,-205.991 262.5001,-205.9909"/>
</g>
<!-- I18nModule -->
<g id="node3" class="node">
<title>I18nModule</title>
<polygon fill="#8dd3c7" stroke="#000000" points="371.7107,-122 368.7107,-126 347.7107,-126 344.7107,-122 286.2893,-122 286.2893,-86 371.7107,-86 371.7107,-122"/>
<text text-anchor="middle" x="329" y="-99.8" font-family="Times,serif" font-size="14.00" fill="#000000">I18nModule</text>
</g>
<!-- I18nModule&#45;&gt;CancelOrReturnItemsModule -->
<g id="edge2" class="edge">
<title>I18nModule&#45;&gt;CancelOrReturnItemsModule</title>
<path fill="none" stroke="#000000" d="M321.7953,-122.1061C321.7953,-122.1061 321.7953,-140.991 321.7953,-140.991"/>
<polygon fill="#000000" stroke="#000000" points="318.2953,-140.9909 321.7953,-150.991 325.2953,-140.991 318.2953,-140.9909"/>
</g>
<!-- ItemCounterModule -->
<g id="node4" class="node">
<title>ItemCounterModule</title>
<polygon fill="#8dd3c7" stroke="#000000" points="268.309,-122 265.309,-126 244.309,-126 241.309,-122 137.691,-122 137.691,-86 268.309,-86 268.309,-122"/>
<text text-anchor="middle" x="203" y="-99.8" font-family="Times,serif" font-size="14.00" fill="#000000">ItemCounterModule</text>
</g>
<!-- ItemCounterModule&#45;&gt;CancelOrReturnItemsModule -->
<g id="edge3" class="edge">
<title>ItemCounterModule&#45;&gt;CancelOrReturnItemsModule</title>
<path fill="none" stroke="#000000" d="M221.4793,-122.1061C221.4793,-122.1061 221.4793,-140.991 221.4793,-140.991"/>
<polygon fill="#000000" stroke="#000000" points="217.9794,-140.9909 221.4793,-150.991 224.9794,-140.991 217.9794,-140.9909"/>
</g>
<!-- MediaModule -->
<g id="node5" class="node">
<title>MediaModule</title>
<polygon fill="#8dd3c7" stroke="#000000" points="119.8147,-122 116.8147,-126 95.8147,-126 92.8147,-122 24.1853,-122 24.1853,-86 119.8147,-86 119.8147,-122"/>
<text text-anchor="middle" x="72" y="-99.8" font-family="Times,serif" font-size="14.00" fill="#000000">MediaModule</text>
</g>
<!-- MediaModule&#45;&gt;CancelOrReturnItemsModule -->
<g id="edge4" class="edge">
<title>MediaModule&#45;&gt;CancelOrReturnItemsModule</title>
<path fill="none" stroke="#000000" d="M72,-122.1061C72,-141.3391 72,-169 72,-169 72,-169 164.6807,-169 164.6807,-169"/>
<polygon fill="#000000" stroke="#000000" points="164.6807,-172.5001 174.6807,-169 164.6807,-165.5001 164.6807,-172.5001"/>
</g>
</g>
</svg>
