<?xml version="1.0" encoding="UTF-8" standalone="no"?>
<!DOCTYPE svg PUBLIC "-//W3C//DTD SVG 1.1//EN"
 "http://www.w3.org/Graphics/SVG/1.1/DTD/svg11.dtd">
<!-- Generated by graphviz version 2.47.3 (20210619.1520)
 -->
<!-- Title: dependencies Pages: 1 -->
<svg width="856pt" height="312pt"
 viewBox="0.00 0.00 856.00 311.80" xmlns="http://www.w3.org/2000/svg" xmlns:xlink="http://www.w3.org/1999/xlink">
<g id="graph0" class="graph" transform="scale(1 1) rotate(0) translate(4 307.8)">
<title>dependencies</title>
<polygon fill="white" stroke="transparent" points="-4,4 -4,-307.8 852,-307.8 852,4 -4,4"/>
<text text-anchor="middle" x="424" y="-8.2" font-family="sans-serif" font-size="14.00">dependencies</text>
<g id="clust1" class="cluster">
<title>cluster_CardModule</title>
<polygon fill="none" stroke="black" stroke-dasharray="1,5" points="8,-32.8 8,-295.8 840,-295.8 840,-32.8 8,-32.8"/>
</g>
<g id="clust5" class="cluster">
<title>cluster_CardModule_exports</title>
<polygon fill="none" stroke="black" points="375,-235.8 375,-287.8 503,-287.8 503,-235.8 375,-235.8"/>
</g>
<g id="clust4" class="cluster">
<title>cluster_CardModule_imports</title>
<polygon fill="none" stroke="black" points="148,-105.8 148,-157.8 832,-157.8 832,-105.8 148,-105.8"/>
</g>
<g id="clust2" class="cluster">
<title>cluster_CardModule_declarations</title>
<polygon fill="none" stroke="black" points="16,-105.8 16,-157.8 140,-157.8 140,-105.8 16,-105.8"/>
</g>
<g id="clust3" class="cluster">
<title>cluster_CardModule_CardComponent_providers</title>
<polygon fill="none" stroke="black" points="16,-40.8 16,-92.8 180,-92.8 180,-40.8 16,-40.8"/>
</g>
<!-- CardComponent -->
<g id="node1" class="node">
<title>CardComponent</title>
<polygon fill="#ffffb3" stroke="black" points="132.05,-149.8 23.95,-149.8 23.95,-113.8 132.05,-113.8 132.05,-149.8"/>
<text text-anchor="middle" x="78" y="-127.6" font-family="Times,serif" font-size="14.00">CardComponent</text>
</g>
<!-- CardModule -->
<g id="node2" class="node">
<title>CardModule</title>
<polygon fill="#8dd3c7" stroke="black" points="482.26,-214.8 479.26,-218.8 458.26,-218.8 455.26,-214.8 395.74,-214.8 395.74,-178.8 482.26,-178.8 482.26,-214.8"/>
<text text-anchor="middle" x="439" y="-192.6" font-family="Times,serif" font-size="14.00">CardModule</text>
</g>
<!-- CardComponent&#45;&gt;CardModule -->
<g id="edge1" class="edge">
<title>CardComponent&#45;&gt;CardModule</title>
<path fill="none" stroke="black" d="M78,-150.09C78,-172.01 78,-205.8 78,-205.8 78,-205.8 385.45,-205.8 385.45,-205.8"/>
<polygon fill="black" stroke="black" points="385.46,-209.3 395.45,-205.8 385.45,-202.3 385.46,-209.3"/>
</g>
<!-- CardComponent  -->
<g id="node10" class="node">
<title>CardComponent </title>
<polygon fill="#fb8072" stroke="black" points="495.04,-279.8 382.96,-279.8 382.96,-243.8 495.04,-243.8 495.04,-279.8"/>
<text text-anchor="middle" x="439" y="-257.6" font-family="Times,serif" font-size="14.00">CardComponent </text>
</g>
<!-- CardModule&#45;&gt;CardComponent  -->
<g id="edge9" class="edge">
<title>CardModule&#45;&gt;CardComponent </title>
<path fill="none" stroke="black" stroke-dasharray="5,2" d="M439,-214.91C439,-214.91 439,-233.79 439,-233.79"/>
<polygon fill="black" stroke="black" points="435.5,-233.79 439,-243.79 442.5,-233.79 435.5,-233.79"/>
</g>
<!-- MessageService -->
<g id="node3" class="node">
<title>MessageService</title>
<ellipse fill="#fdb462" stroke="black" cx="98" cy="-66.8" rx="73.55" ry="18"/>
<text text-anchor="middle" x="98" y="-62.6" font-family="Times,serif" font-size="14.00">MessageService</text>
</g>
<!-- MessageService&#45;&gt;CardComponent -->
<g id="edge2" class="edge">
<title>MessageService&#45;&gt;CardComponent</title>
<path fill="none" stroke="black" d="M78.25,-84.22C78.25,-84.22 78.25,-103.42 78.25,-103.42"/>
<polygon fill="black" stroke="black" points="74.75,-103.42 78.25,-113.42 81.75,-103.42 74.75,-103.42"/>
</g>
<!-- I18nModule -->
<g id="node4" class="node">
<title>I18nModule</title>
<polygon fill="#8dd3c7" stroke="black" points="823.71,-149.8 820.71,-153.8 799.71,-153.8 796.71,-149.8 738.29,-149.8 738.29,-113.8 823.71,-113.8 823.71,-149.8"/>
<text text-anchor="middle" x="781" y="-127.6" font-family="Times,serif" font-size="14.00">I18nModule</text>
</g>
<!-- I18nModule&#45;&gt;CardModule -->
<g id="edge3" class="edge">
<title>I18nModule&#45;&gt;CardModule</title>
<path fill="none" stroke="black" d="M781,-150.09C781,-172.01 781,-205.8 781,-205.8 781,-205.8 492.31,-205.8 492.31,-205.8"/>
<polygon fill="black" stroke="black" points="492.31,-202.3 482.31,-205.8 492.31,-209.3 492.31,-202.3"/>
</g>
<!-- IconModule -->
<g id="node5" class="node">
<title>IconModule</title>
<polygon fill="#8dd3c7" stroke="black" points="720.43,-149.8 717.43,-153.8 696.43,-153.8 693.43,-149.8 635.57,-149.8 635.57,-113.8 720.43,-113.8 720.43,-149.8"/>
<text text-anchor="middle" x="678" y="-127.6" font-family="Times,serif" font-size="14.00">IconModule</text>
</g>
<!-- IconModule&#45;&gt;CardModule -->
<g id="edge4" class="edge">
<title>IconModule&#45;&gt;CardModule</title>
<path fill="none" stroke="black" d="M678,-149.91C678,-169.14 678,-196.8 678,-196.8 678,-196.8 492.28,-196.8 492.28,-196.8"/>
<polygon fill="black" stroke="black" points="492.28,-193.3 482.28,-196.8 492.28,-200.3 492.28,-193.3"/>
</g>
<!-- MessageModule -->
<g id="node6" class="node">
<title>MessageModule</title>
<polygon fill="#8dd3c7" stroke="black" points="618.03,-149.8 615.03,-153.8 594.03,-153.8 591.03,-149.8 509.97,-149.8 509.97,-113.8 618.03,-113.8 618.03,-149.8"/>
<text text-anchor="middle" x="564" y="-127.6" font-family="Times,serif" font-size="14.00">MessageModule</text>
</g>
<!-- MessageModule&#45;&gt;CardModule -->
<g id="edge5" class="edge">
<title>MessageModule&#45;&gt;CardModule</title>
<path fill="none" stroke="black" d="M564,-149.83C564,-166.2 564,-187.8 564,-187.8 564,-187.8 492.37,-187.8 492.37,-187.8"/>
<polygon fill="black" stroke="black" points="492.37,-184.3 482.37,-187.8 492.37,-191.3 492.37,-184.3"/>
</g>
<!-- PopoverModule -->
<g id="node7" class="node">
<title>PopoverModule</title>
<polygon fill="#8dd3c7" stroke="black" points="492.21,-149.8 489.21,-153.8 468.21,-153.8 465.21,-149.8 385.79,-149.8 385.79,-113.8 492.21,-113.8 492.21,-149.8"/>
<text text-anchor="middle" x="439" y="-127.6" font-family="Times,serif" font-size="14.00">PopoverModule</text>
</g>
<!-- PopoverModule&#45;&gt;CardModule -->
<g id="edge6" class="edge">
<title>PopoverModule&#45;&gt;CardModule</title>
<path fill="none" stroke="black" d="M439,-149.91C439,-149.91 439,-168.79 439,-168.79"/>
<polygon fill="black" stroke="black" points="435.5,-168.79 439,-178.79 442.5,-168.79 435.5,-168.79"/>
</g>
<!-- SplitViewModule -->
<g id="node8" class="node">
<title>SplitViewModule</title>
<polygon fill="#8dd3c7" stroke="black" points="368.32,-149.8 365.32,-153.8 344.32,-153.8 341.32,-149.8 251.68,-149.8 251.68,-113.8 368.32,-113.8 368.32,-149.8"/>
<text text-anchor="middle" x="310" y="-127.6" font-family="Times,serif" font-size="14.00">SplitViewModule</text>
</g>
<!-- SplitViewModule&#45;&gt;CardModule -->
<g id="edge7" class="edge">
<title>SplitViewModule&#45;&gt;CardModule</title>
<path fill="none" stroke="black" d="M310,-149.83C310,-166.2 310,-187.8 310,-187.8 310,-187.8 385.69,-187.8 385.69,-187.8"/>
<polygon fill="black" stroke="black" points="385.69,-191.3 395.69,-187.8 385.69,-184.3 385.69,-191.3"/>
</g>
<!-- UrlModule -->
<g id="node9" class="node">
<title>UrlModule</title>
<polygon fill="#8dd3c7" stroke="black" points="234.21,-149.8 231.21,-153.8 210.21,-153.8 207.21,-149.8 155.79,-149.8 155.79,-113.8 234.21,-113.8 234.21,-149.8"/>
<text text-anchor="middle" x="195" y="-127.6" font-family="Times,serif" font-size="14.00">UrlModule</text>
</g>
<!-- UrlModule&#45;&gt;CardModule -->
<g id="edge8" class="edge">
<title>UrlModule&#45;&gt;CardModule</title>
<path fill="none" stroke="black" d="M195,-149.91C195,-169.14 195,-196.8 195,-196.8 195,-196.8 385.66,-196.8 385.66,-196.8"/>
<polygon fill="black" stroke="black" points="385.66,-200.3 395.66,-196.8 385.66,-193.3 385.66,-200.3"/>
</g>
</g>
</svg>
