<?xml version="1.0" encoding="UTF-8" standalone="no"?>
<!DOCTYPE svg PUBLIC "-//W3C//DTD SVG 1.1//EN"
 "http://www.w3.org/Graphics/SVG/1.1/DTD/svg11.dtd">
<!-- Generated by graphviz version 2.40.1 (20161225.0304)
 -->
<!-- Title: dependencies Pages: 1 -->
<svg width="856pt" height="349pt"
 viewBox="0.00 0.00 856.00 349.00" xmlns="http://www.w3.org/2000/svg" xmlns:xlink="http://www.w3.org/1999/xlink">
<g id="graph0" class="graph" transform="scale(1 1) rotate(0) translate(4 345)">
<title>dependencies</title>
<polygon fill="#ffffff" stroke="transparent" points="-4,4 -4,-345 852,-345 852,4 -4,4"/>
<text text-anchor="start" x="403.0091" y="-42.4" font-family="sans-serif" font-weight="bold" font-size="14.00" fill="#000000">Legend</text>
<polygon fill="#ffffb3" stroke="transparent" points="190,-10 190,-30 210,-30 210,-10 190,-10"/>
<text text-anchor="start" x="213.629" y="-15.4" font-family="sans-serif" font-size="14.00" fill="#000000"> &#160;Declarations</text>
<polygon fill="#8dd3c7" stroke="transparent" points="303,-10 303,-30 323,-30 323,-10 303,-10"/>
<text text-anchor="start" x="326.7251" y="-15.4" font-family="sans-serif" font-size="14.00" fill="#000000"> &#160;Module</text>
<polygon fill="#80b1d3" stroke="transparent" points="389,-10 389,-30 409,-30 409,-10 389,-10"/>
<text text-anchor="start" x="412.7812" y="-15.4" font-family="sans-serif" font-size="14.00" fill="#000000"> &#160;Bootstrap</text>
<polygon fill="#fdb462" stroke="transparent" points="486,-10 486,-30 506,-30 506,-10 486,-10"/>
<text text-anchor="start" x="509.6732" y="-15.4" font-family="sans-serif" font-size="14.00" fill="#000000"> &#160;Providers</text>
<polygon fill="#fb8072" stroke="transparent" points="582,-10 582,-30 602,-30 602,-10 582,-10"/>
<text text-anchor="start" x="605.7258" y="-15.4" font-family="sans-serif" font-size="14.00" fill="#000000"> &#160;Exports</text>
<g id="clust1" class="cluster">
<title>cluster_CardModule</title>
<polygon fill="none" stroke="#000000" stroke-dasharray="1,5" points="8,-70 8,-333 840,-333 840,-70 8,-70"/>
</g>
<g id="clust2" class="cluster">
<title>cluster_CardModule_declarations</title>
<polygon fill="none" stroke="#000000" points="708,-143 708,-195 832,-195 832,-143 708,-143"/>
</g>
<g id="clust3" class="cluster">
<title>cluster_CardModule_CardComponent_providers</title>
<polygon fill="none" stroke="#000000" points="668,-78 668,-130 832,-130 832,-78 668,-78"/>
</g>
<g id="clust4" class="cluster">
<title>cluster_CardModule_imports</title>
<polygon fill="none" stroke="#000000" points="16,-143 16,-195 700,-195 700,-143 16,-143"/>
</g>
<g id="clust5" class="cluster">
<title>cluster_CardModule_exports</title>
<polygon fill="none" stroke="#000000" points="368,-273 368,-325 496,-325 496,-273 368,-273"/>
</g>
<!-- CardComponent -->
<g id="node1" class="node">
<title>CardComponent</title>
<polygon fill="#ffffb3" stroke="#000000" points="824.0452,-187 715.9548,-187 715.9548,-151 824.0452,-151 824.0452,-187"/>
<text text-anchor="middle" x="770" y="-164.8" font-family="Times,serif" font-size="14.00" fill="#000000">CardComponent</text>
</g>
<!-- CardModule -->
<g id="node2" class="node">
<title>CardModule</title>
<polygon fill="#8dd3c7" stroke="#000000" points="475.2619,-252 472.2619,-256 451.2619,-256 448.2619,-252 388.7381,-252 388.7381,-216 475.2619,-216 475.2619,-252"/>
<text text-anchor="middle" x="432" y="-229.8" font-family="Times,serif" font-size="14.00" fill="#000000">CardModule</text>
</g>
<!-- CardComponent&#45;&gt;CardModule -->
<g id="edge1" class="edge">
<title>CardComponent&#45;&gt;CardModule</title>
<path fill="none" stroke="#000000" d="M770,-187.2921C770,-209.2057 770,-243 770,-243 770,-243 485.4956,-243 485.4956,-243"/>
<polygon fill="#000000" stroke="#000000" points="485.4957,-239.5001 475.4956,-243 485.4956,-246.5001 485.4957,-239.5001"/>
</g>
<!-- CardComponent  -->
<g id="node10" class="node">
<title>CardComponent </title>
<polygon fill="#fb8072" stroke="#000000" points="488.0442,-317 375.9558,-317 375.9558,-281 488.0442,-281 488.0442,-317"/>
<text text-anchor="middle" x="432" y="-294.8" font-family="Times,serif" font-size="14.00" fill="#000000">CardComponent </text>
</g>
<!-- CardModule&#45;&gt;CardComponent  -->
<g id="edge9" class="edge">
<title>CardModule&#45;&gt;CardComponent </title>
<path fill="none" stroke="#000000" stroke-dasharray="5,2" d="M432,-252.1061C432,-252.1061 432,-270.991 432,-270.991"/>
<polygon fill="#000000" stroke="#000000" points="428.5001,-270.9909 432,-280.991 435.5001,-270.991 428.5001,-270.9909"/>
</g>
<!-- MessageService -->
<g id="node3" class="node">
<title>MessageService</title>
<ellipse fill="#fdb462" stroke="#000000" cx="750" cy="-104" rx="73.5522" ry="18"/>
<text text-anchor="middle" x="750" y="-99.8" font-family="Times,serif" font-size="14.00" fill="#000000">MessageService</text>
</g>
<!-- MessageService&#45;&gt;CardComponent -->
<g id="edge2" class="edge">
<title>MessageService&#45;&gt;CardComponent</title>
<path fill="none" stroke="#000000" d="M769.7518,-121.4188C769.7518,-121.4188 769.7518,-140.6234 769.7518,-140.6234"/>
<polygon fill="#000000" stroke="#000000" points="766.2519,-140.6234 769.7518,-150.6234 773.2519,-140.6234 766.2519,-140.6234"/>
</g>
<!-- I18nModule -->
<g id="node4" class="node">
<title>I18nModule</title>
<polygon fill="#8dd3c7" stroke="#000000" points="691.7107,-187 688.7107,-191 667.7107,-191 664.7107,-187 606.2893,-187 606.2893,-151 691.7107,-151 691.7107,-187"/>
<text text-anchor="middle" x="649" y="-164.8" font-family="Times,serif" font-size="14.00" fill="#000000">I18nModule</text>
</g>
<!-- I18nModule&#45;&gt;CardModule -->
<g id="edge3" class="edge">
<title>I18nModule&#45;&gt;CardModule</title>
<path fill="none" stroke="#000000" d="M649,-187.1061C649,-206.3391 649,-234 649,-234 649,-234 485.3916,-234 485.3916,-234"/>
<polygon fill="#000000" stroke="#000000" points="485.3917,-230.5001 475.3916,-234 485.3916,-237.5001 485.3917,-230.5001"/>
</g>
<!-- IconModule -->
<g id="node5" class="node">
<title>IconModule</title>
<polygon fill="#8dd3c7" stroke="#000000" points="588.4261,-187 585.4261,-191 564.4261,-191 561.4261,-187 503.5739,-187 503.5739,-151 588.4261,-151 588.4261,-187"/>
<text text-anchor="middle" x="546" y="-164.8" font-family="Times,serif" font-size="14.00" fill="#000000">IconModule</text>
</g>
<!-- IconModule&#45;&gt;CardModule -->
<g id="edge4" class="edge">
<title>IconModule&#45;&gt;CardModule</title>
<path fill="none" stroke="#000000" d="M546,-187.027C546,-203.3976 546,-225 546,-225 546,-225 485.4237,-225 485.4237,-225"/>
<polygon fill="#000000" stroke="#000000" points="485.4238,-221.5001 475.4237,-225 485.4237,-228.5001 485.4238,-221.5001"/>
</g>
<!-- MessageModule -->
<g id="node6" class="node">
<title>MessageModule</title>
<polygon fill="#8dd3c7" stroke="#000000" points="486.0284,-187 483.0284,-191 462.0284,-191 459.0284,-187 377.9716,-187 377.9716,-151 486.0284,-151 486.0284,-187"/>
<text text-anchor="middle" x="432" y="-164.8" font-family="Times,serif" font-size="14.00" fill="#000000">MessageModule</text>
</g>
<!-- MessageModule&#45;&gt;CardModule -->
<g id="edge5" class="edge">
<title>MessageModule&#45;&gt;CardModule</title>
<path fill="none" stroke="#000000" d="M432,-187.1061C432,-187.1061 432,-205.991 432,-205.991"/>
<polygon fill="#000000" stroke="#000000" points="428.5001,-205.9909 432,-215.991 435.5001,-205.991 428.5001,-205.9909"/>
</g>
<!-- PopoverModule -->
<g id="node7" class="node">
<title>PopoverModule</title>
<polygon fill="#8dd3c7" stroke="#000000" points="360.2078,-187 357.2078,-191 336.2078,-191 333.2078,-187 253.7922,-187 253.7922,-151 360.2078,-151 360.2078,-187"/>
<text text-anchor="middle" x="307" y="-164.8" font-family="Times,serif" font-size="14.00" fill="#000000">PopoverModule</text>
</g>
<!-- PopoverModule&#45;&gt;CardModule -->
<g id="edge6" class="edge">
<title>PopoverModule&#45;&gt;CardModule</title>
<path fill="none" stroke="#000000" d="M307,-187.027C307,-203.3976 307,-225 307,-225 307,-225 378.6319,-225 378.6319,-225"/>
<polygon fill="#000000" stroke="#000000" points="378.6319,-228.5001 388.6319,-225 378.6318,-221.5001 378.6319,-228.5001"/>
</g>
<!-- SplitViewModule -->
<g id="node8" class="node">
<title>SplitViewModule</title>
<polygon fill="#8dd3c7" stroke="#000000" points="236.323,-187 233.323,-191 212.323,-191 209.323,-187 119.677,-187 119.677,-151 236.323,-151 236.323,-187"/>
<text text-anchor="middle" x="178" y="-164.8" font-family="Times,serif" font-size="14.00" fill="#000000">SplitViewModule</text>
</g>
<!-- SplitViewModule&#45;&gt;CardModule -->
<g id="edge7" class="edge">
<title>SplitViewModule&#45;&gt;CardModule</title>
<path fill="none" stroke="#000000" d="M178,-187.1061C178,-206.3391 178,-234 178,-234 178,-234 378.6244,-234 378.6244,-234"/>
<polygon fill="#000000" stroke="#000000" points="378.6245,-237.5001 388.6244,-234 378.6244,-230.5001 378.6245,-237.5001"/>
</g>
<!-- UrlModule -->
<g id="node9" class="node">
<title>UrlModule</title>
<polygon fill="#8dd3c7" stroke="#000000" points="102.2079,-187 99.2079,-191 78.2079,-191 75.2079,-187 23.7921,-187 23.7921,-151 102.2079,-151 102.2079,-187"/>
<text text-anchor="middle" x="63" y="-164.8" font-family="Times,serif" font-size="14.00" fill="#000000">UrlModule</text>
</g>
<!-- UrlModule&#45;&gt;CardModule -->
<g id="edge8" class="edge">
<title>UrlModule&#45;&gt;CardModule</title>
<path fill="none" stroke="#000000" d="M63,-187.2921C63,-209.2057 63,-243 63,-243 63,-243 378.5859,-243 378.5859,-243"/>
<polygon fill="#000000" stroke="#000000" points="378.586,-246.5001 388.5859,-243 378.5859,-239.5001 378.586,-246.5001"/>
</g>
</g>
</svg>
