<?xml version="1.0" encoding="UTF-8" standalone="no"?>
<!DOCTYPE svg PUBLIC "-//W3C//DTD SVG 1.1//EN"
 "http://www.w3.org/Graphics/SVG/1.1/DTD/svg11.dtd">
<!-- Generated by graphviz version 2.44.1 (20200629.0846)
 -->
<!-- Title: dependencies Pages: 1 -->
<svg width="504pt" height="284pt"
 viewBox="0.00 0.00 504.00 284.00" xmlns="http://www.w3.org/2000/svg" xmlns:xlink="http://www.w3.org/1999/xlink">
<g id="graph0" class="graph" transform="scale(1 1) rotate(0) translate(4 280)">
<title>dependencies</title>
<polygon fill="white" stroke="transparent" points="-4,4 -4,-280 500,-280 500,4 -4,4"/>
<text text-anchor="start" x="227.01" y="-42.4" font-family="sans-serif" font-weight="bold" font-size="14.00">Legend</text>
<polygon fill="#ffffb3" stroke="transparent" points="14,-10 14,-30 34,-30 34,-10 14,-10"/>
<text text-anchor="start" x="37.63" y="-15.4" font-family="sans-serif" font-size="14.00"> &#160;Declarations</text>
<polygon fill="#8dd3c7" stroke="transparent" points="127,-10 127,-30 147,-30 147,-10 127,-10"/>
<text text-anchor="start" x="150.73" y="-15.4" font-family="sans-serif" font-size="14.00"> &#160;Module</text>
<polygon fill="#80b1d3" stroke="transparent" points="213,-10 213,-30 233,-30 233,-10 213,-10"/>
<text text-anchor="start" x="236.78" y="-15.4" font-family="sans-serif" font-size="14.00"> &#160;Bootstrap</text>
<polygon fill="#fdb462" stroke="transparent" points="310,-10 310,-30 330,-30 330,-10 310,-10"/>
<text text-anchor="start" x="333.67" y="-15.4" font-family="sans-serif" font-size="14.00"> &#160;Providers</text>
<polygon fill="#fb8072" stroke="transparent" points="406,-10 406,-30 426,-30 426,-10 406,-10"/>
<text text-anchor="start" x="429.73" y="-15.4" font-family="sans-serif" font-size="14.00"> &#160;Exports</text>
<g id="clust1" class="cluster">
<title>cluster_CardModule</title>
<polygon fill="none" stroke="black" stroke-dasharray="1,5" points="72,-70 72,-268 424,-268 424,-70 72,-70"/>
</g>
<g id="clust4" class="cluster">
<title>cluster_CardModule_imports</title>
<polygon fill="none" stroke="black" points="212,-78 212,-130 416,-130 416,-78 212,-78"/>
</g>
<g id="clust2" class="cluster">
<title>cluster_CardModule_declarations</title>
<polygon fill="none" stroke="black" points="80,-78 80,-130 204,-130 204,-78 80,-78"/>
</g>
<g id="clust5" class="cluster">
<title>cluster_CardModule_exports</title>
<polygon fill="none" stroke="black" points="198,-208 198,-260 326,-260 326,-208 198,-208"/>
</g>
<!-- CardComponent -->
<g id="node1" class="node">
<title>CardComponent</title>
<polygon fill="#ffffb3" stroke="black" points="196.05,-122 87.95,-122 87.95,-86 196.05,-86 196.05,-122"/>
<text text-anchor="middle" x="142" y="-99.8" font-family="Times,serif" font-size="14.00">CardComponent</text>
</g>
<!-- CardModule -->
<g id="node2" class="node">
<title>CardModule</title>
<polygon fill="#8dd3c7" stroke="black" points="305.26,-187 302.26,-191 281.26,-191 278.26,-187 218.74,-187 218.74,-151 305.26,-151 305.26,-187"/>
<text text-anchor="middle" x="262" y="-164.8" font-family="Times,serif" font-size="14.00">CardModule</text>
</g>
<!-- CardComponent&#45;&gt;CardModule -->
<g id="edge1" class="edge">
<title>CardComponent&#45;&gt;CardModule</title>
<path fill="none" stroke="black" d="M142,-122.11C142,-141.34 142,-169 142,-169 142,-169 208.68,-169 208.68,-169"/>
<polygon fill="black" stroke="black" points="208.68,-172.5 218.68,-169 208.68,-165.5 208.68,-172.5"/>
</g>
<!-- CardComponent  -->
<g id="node5" class="node">
<title>CardComponent </title>
<polygon fill="#fb8072" stroke="black" points="318.04,-252 205.96,-252 205.96,-216 318.04,-216 318.04,-252"/>
<text text-anchor="middle" x="262" y="-229.8" font-family="Times,serif" font-size="14.00">CardComponent </text>
</g>
<!-- CardModule&#45;&gt;CardComponent  -->
<g id="edge4" class="edge">
<title>CardModule&#45;&gt;CardComponent </title>
<path fill="none" stroke="black" stroke-dasharray="5,2" d="M262,-187.11C262,-187.11 262,-205.99 262,-205.99"/>
<polygon fill="black" stroke="black" points="258.5,-205.99 262,-215.99 265.5,-205.99 258.5,-205.99"/>
</g>
<!-- I18nModule -->
<g id="node3" class="node">
<title>I18nModule</title>
<polygon fill="#8dd3c7" stroke="black" points="407.71,-122 404.71,-126 383.71,-126 380.71,-122 322.29,-122 322.29,-86 407.71,-86 407.71,-122"/>
<text text-anchor="middle" x="365" y="-99.8" font-family="Times,serif" font-size="14.00">I18nModule</text>
</g>
<!-- I18nModule&#45;&gt;CardModule -->
<g id="edge2" class="edge">
<title>I18nModule&#45;&gt;CardModule</title>
<path fill="none" stroke="black" d="M365,-122.11C365,-141.34 365,-169 365,-169 365,-169 315.38,-169 315.38,-169"/>
<polygon fill="black" stroke="black" points="315.38,-165.5 305.38,-169 315.38,-172.5 315.38,-165.5"/>
</g>
<!-- IconModule -->
<g id="node4" class="node">
<title>IconModule</title>
<polygon fill="#8dd3c7" stroke="black" points="304.43,-122 301.43,-126 280.43,-126 277.43,-122 219.57,-122 219.57,-86 304.43,-86 304.43,-122"/>
<text text-anchor="middle" x="262" y="-99.8" font-family="Times,serif" font-size="14.00">IconModule</text>
</g>
<!-- IconModule&#45;&gt;CardModule -->
<g id="edge3" class="edge">
<title>IconModule&#45;&gt;CardModule</title>
<path fill="none" stroke="black" d="M262,-122.11C262,-122.11 262,-140.99 262,-140.99"/>
<polygon fill="black" stroke="black" points="258.5,-140.99 262,-150.99 265.5,-140.99 258.5,-140.99"/>
</g>
</g>
</svg>
