<?xml version="1.0" encoding="UTF-8" standalone="no"?>
<!DOCTYPE svg PUBLIC "-//W3C//DTD SVG 1.1//EN"
 "http://www.w3.org/Graphics/SVG/1.1/DTD/svg11.dtd">
<!-- Generated by graphviz version 2.46.0 (20210119.1425)
 -->
<!-- Title: dependencies Pages: 1 -->
<svg width="772pt" height="349pt"
 viewBox="0.00 0.00 772.00 349.00" xmlns="http://www.w3.org/2000/svg" xmlns:xlink="http://www.w3.org/1999/xlink">
<g id="graph0" class="graph" transform="scale(1 1) rotate(0) translate(4 345)">
<title>dependencies</title>
<polygon fill="white" stroke="transparent" points="-4,4 -4,-345 768,-345 768,4 -4,4"/>
<text text-anchor="start" x="361.01" y="-42.4" font-family="sans-serif" font-weight="bold" font-size="14.00">Legend</text>
<polygon fill="#ffffb3" stroke="transparent" points="148,-10 148,-30 168,-30 168,-10 148,-10"/>
<text text-anchor="start" x="171.63" y="-15.4" font-family="sans-serif" font-size="14.00"> &#160;Declarations</text>
<polygon fill="#8dd3c7" stroke="transparent" points="261,-10 261,-30 281,-30 281,-10 261,-10"/>
<text text-anchor="start" x="284.73" y="-15.4" font-family="sans-serif" font-size="14.00"> &#160;Module</text>
<polygon fill="#80b1d3" stroke="transparent" points="347,-10 347,-30 367,-30 367,-10 347,-10"/>
<text text-anchor="start" x="370.78" y="-15.4" font-family="sans-serif" font-size="14.00"> &#160;Bootstrap</text>
<polygon fill="#fdb462" stroke="transparent" points="444,-10 444,-30 464,-30 464,-10 444,-10"/>
<text text-anchor="start" x="467.67" y="-15.4" font-family="sans-serif" font-size="14.00"> &#160;Providers</text>
<polygon fill="#fb8072" stroke="transparent" points="540,-10 540,-30 560,-30 560,-10 540,-10"/>
<text text-anchor="start" x="563.73" y="-15.4" font-family="sans-serif" font-size="14.00"> &#160;Exports</text>
<g id="clust1" class="cluster">
<title>cluster_CardModule</title>
<polygon fill="none" stroke="black" stroke-dasharray="1,5" points="8,-70 8,-333 756,-333 756,-70 8,-70"/>
</g>
<g id="clust3" class="cluster">
<title>cluster_CardModule_CardComponent_providers</title>
<polygon fill="none" stroke="black" points="584,-78 584,-195 748,-195 748,-78 584,-78"/>
</g>
<g id="clust5" class="cluster">
<title>cluster_CardModule_exports</title>
<polygon fill="none" stroke="black" points="301,-273 301,-325 429,-325 429,-273 301,-273"/>
</g>
<g id="clust4" class="cluster">
<title>cluster_CardModule_imports</title>
<polygon fill="none" stroke="black" points="16,-143 16,-195 576,-195 576,-143 16,-143"/>
</g>
<!-- CardComponent -->
<g id="node1" class="node">
<title>CardComponent</title>
<polygon fill="#ffffb3" stroke="black" points="710.05,-187 601.95,-187 601.95,-151 710.05,-151 710.05,-187"/>
<text text-anchor="middle" x="656" y="-164.8" font-family="Times,serif" font-size="14.00">CardComponent</text>
</g>
<!-- CardModule -->
<g id="node2" class="node">
<title>CardModule</title>
<polygon fill="#8dd3c7" stroke="black" points="408.26,-252 405.26,-256 384.26,-256 381.26,-252 321.74,-252 321.74,-216 408.26,-216 408.26,-252"/>
<text text-anchor="middle" x="365" y="-229.8" font-family="Times,serif" font-size="14.00">CardModule</text>
</g>
<!-- CardComponent&#45;&gt;CardModule -->
<g id="edge1" class="edge">
<title>CardComponent&#45;&gt;CardModule</title>
<path fill="none" stroke="black" d="M656,-187.28C656,-208.32 656,-240 656,-240 656,-240 418.57,-240 418.57,-240"/>
<polygon fill="black" stroke="black" points="418.57,-236.5 408.57,-240 418.57,-243.5 418.57,-236.5"/>
</g>
<!-- CardComponent  -->
<g id="node9" class="node">
<title>CardComponent </title>
<polygon fill="#fb8072" stroke="black" points="421.04,-317 308.96,-317 308.96,-281 421.04,-281 421.04,-317"/>
<text text-anchor="middle" x="365" y="-294.8" font-family="Times,serif" font-size="14.00">CardComponent </text>
</g>
<!-- CardModule&#45;&gt;CardComponent  -->
<g id="edge8" class="edge">
<title>CardModule&#45;&gt;CardComponent </title>
<path fill="none" stroke="black" stroke-dasharray="5,2" d="M365,-252.11C365,-252.11 365,-270.99 365,-270.99"/>
<polygon fill="black" stroke="black" points="361.5,-270.99 365,-280.99 368.5,-270.99 361.5,-270.99"/>
</g>
<!-- MessageService -->
<g id="node3" class="node">
<title>MessageService</title>
<ellipse fill="#fdb462" stroke="black" cx="666" cy="-104" rx="73.55" ry="18"/>
<text text-anchor="middle" x="666" y="-99.8" font-family="Times,serif" font-size="14.00">MessageService</text>
</g>
<!-- MessageService&#45;&gt;CardComponent -->
<g id="edge2" class="edge">
<title>MessageService&#45;&gt;CardComponent</title>
<path fill="none" stroke="black" d="M656,-122.11C656,-122.11 656,-140.99 656,-140.99"/>
<polygon fill="black" stroke="black" points="652.5,-140.99 656,-150.99 659.5,-140.99 652.5,-140.99"/>
</g>
<!-- I18nModule -->
<g id="node4" class="node">
<title>I18nModule</title>
<polygon fill="#8dd3c7" stroke="black" points="567.71,-187 564.71,-191 543.71,-191 540.71,-187 482.29,-187 482.29,-151 567.71,-151 567.71,-187"/>
<text text-anchor="middle" x="525" y="-164.8" font-family="Times,serif" font-size="14.00">I18nModule</text>
</g>
<!-- I18nModule&#45;&gt;CardModule -->
<g id="edge3" class="edge">
<title>I18nModule&#45;&gt;CardModule</title>
<path fill="none" stroke="black" d="M525,-187.02C525,-204.37 525,-228 525,-228 525,-228 418.3,-228 418.3,-228"/>
<polygon fill="black" stroke="black" points="418.3,-224.5 408.3,-228 418.3,-231.5 418.3,-224.5"/>
</g>
<!-- IconModule -->
<g id="node5" class="node">
<title>IconModule</title>
<polygon fill="#8dd3c7" stroke="black" points="464.43,-187 461.43,-191 440.43,-191 437.43,-187 379.57,-187 379.57,-151 464.43,-151 464.43,-187"/>
<text text-anchor="middle" x="422" y="-164.8" font-family="Times,serif" font-size="14.00">IconModule</text>
</g>
<!-- IconModule&#45;&gt;CardModule -->
<g id="edge4" class="edge">
<title>IconModule&#45;&gt;CardModule</title>
<path fill="none" stroke="black" d="M394.08,-187.11C394.08,-187.11 394.08,-205.99 394.08,-205.99"/>
<polygon fill="black" stroke="black" points="390.58,-205.99 394.08,-215.99 397.58,-205.99 390.58,-205.99"/>
</g>
<!-- MessageModule -->
<g id="node6" class="node">
<title>MessageModule</title>
<polygon fill="#8dd3c7" stroke="black" points="362.03,-187 359.03,-191 338.03,-191 335.03,-187 253.97,-187 253.97,-151 362.03,-151 362.03,-187"/>
<text text-anchor="middle" x="308" y="-164.8" font-family="Times,serif" font-size="14.00">MessageModule</text>
</g>
<!-- MessageModule&#45;&gt;CardModule -->
<g id="edge5" class="edge">
<title>MessageModule&#45;&gt;CardModule</title>
<path fill="none" stroke="black" d="M341.94,-187.11C341.94,-187.11 341.94,-205.99 341.94,-205.99"/>
<polygon fill="black" stroke="black" points="338.44,-205.99 341.94,-215.99 345.44,-205.99 338.44,-205.99"/>
</g>
<!-- SplitViewModule -->
<g id="node7" class="node">
<title>SplitViewModule</title>
<polygon fill="#8dd3c7" stroke="black" points="236.32,-187 233.32,-191 212.32,-191 209.32,-187 119.68,-187 119.68,-151 236.32,-151 236.32,-187"/>
<text text-anchor="middle" x="178" y="-164.8" font-family="Times,serif" font-size="14.00">SplitViewModule</text>
</g>
<!-- SplitViewModule&#45;&gt;CardModule -->
<g id="edge6" class="edge">
<title>SplitViewModule&#45;&gt;CardModule</title>
<path fill="none" stroke="black" d="M178,-187.02C178,-204.37 178,-228 178,-228 178,-228 311.63,-228 311.63,-228"/>
<polygon fill="black" stroke="black" points="311.63,-231.5 321.63,-228 311.63,-224.5 311.63,-231.5"/>
</g>
<!-- UrlModule -->
<g id="node8" class="node">
<title>UrlModule</title>
<polygon fill="#8dd3c7" stroke="black" points="102.21,-187 99.21,-191 78.21,-191 75.21,-187 23.79,-187 23.79,-151 102.21,-151 102.21,-187"/>
<text text-anchor="middle" x="63" y="-164.8" font-family="Times,serif" font-size="14.00">UrlModule</text>
</g>
<!-- UrlModule&#45;&gt;CardModule -->
<g id="edge7" class="edge">
<title>UrlModule&#45;&gt;CardModule</title>
<path fill="none" stroke="black" d="M63,-187.28C63,-208.32 63,-240 63,-240 63,-240 311.73,-240 311.73,-240"/>
<polygon fill="black" stroke="black" points="311.73,-243.5 321.73,-240 311.73,-236.5 311.73,-243.5"/>
</g>
</g>
</svg>
