<?xml version="1.0" encoding="UTF-8" standalone="no"?>
<!DOCTYPE svg PUBLIC "-//W3C//DTD SVG 1.1//EN"
 "http://www.w3.org/Graphics/SVG/1.1/DTD/svg11.dtd">
<!-- Generated by graphviz version 2.47.0 (20210316.0004)
 -->
<!-- Title: dependencies Pages: 1 -->
<svg width="856pt" height="349pt"
 viewBox="0.00 0.00 856.00 349.00" xmlns="http://www.w3.org/2000/svg" xmlns:xlink="http://www.w3.org/1999/xlink">
<g id="graph0" class="graph" transform="scale(1 1) rotate(0) translate(4 345)">
<title>dependencies</title>
<polygon fill="white" stroke="transparent" points="-4,4 -4,-345 852,-345 852,4 -4,4"/>
<text text-anchor="start" x="403.01" y="-42.4" font-family="sans-serif" font-weight="bold" font-size="14.00">Legend</text>
<polygon fill="#ffffb3" stroke="transparent" points="190,-10 190,-30 210,-30 210,-10 190,-10"/>
<text text-anchor="start" x="213.63" y="-15.4" font-family="sans-serif" font-size="14.00"> &#160;Declarations</text>
<polygon fill="#8dd3c7" stroke="transparent" points="303,-10 303,-30 323,-30 323,-10 303,-10"/>
<text text-anchor="start" x="326.73" y="-15.4" font-family="sans-serif" font-size="14.00"> &#160;Module</text>
<polygon fill="#80b1d3" stroke="transparent" points="389,-10 389,-30 409,-30 409,-10 389,-10"/>
<text text-anchor="start" x="412.78" y="-15.4" font-family="sans-serif" font-size="14.00"> &#160;Bootstrap</text>
<polygon fill="#fdb462" stroke="transparent" points="486,-10 486,-30 506,-30 506,-10 486,-10"/>
<text text-anchor="start" x="509.67" y="-15.4" font-family="sans-serif" font-size="14.00"> &#160;Providers</text>
<polygon fill="#fb8072" stroke="transparent" points="582,-10 582,-30 602,-30 602,-10 582,-10"/>
<text text-anchor="start" x="605.73" y="-15.4" font-family="sans-serif" font-size="14.00"> &#160;Exports</text>
<g id="clust1" class="cluster">
<title>cluster_CardModule</title>
<polygon fill="none" stroke="black" stroke-dasharray="1,5" points="8,-70 8,-333 840,-333 840,-70 8,-70"/>
</g>
<g id="clust4" class="cluster">
<title>cluster_CardModule_imports</title>
<polygon fill="none" stroke="black" points="148,-143 148,-195 832,-195 832,-143 148,-143"/>
</g>
<g id="clust5" class="cluster">
<title>cluster_CardModule_exports</title>
<polygon fill="none" stroke="black" points="375,-273 375,-325 503,-325 503,-273 375,-273"/>
</g>
<g id="clust2" class="cluster">
<title>cluster_CardModule_declarations</title>
<polygon fill="none" stroke="black" points="16,-143 16,-195 140,-195 140,-143 16,-143"/>
</g>
<g id="clust3" class="cluster">
<title>cluster_CardModule_CardComponent_providers</title>
<polygon fill="none" stroke="black" points="16,-78 16,-130 180,-130 180,-78 16,-78"/>
</g>
<!-- CardComponent -->
<g id="node1" class="node">
<title>CardComponent</title>
<polygon fill="#ffffb3" stroke="black" points="132.05,-187 23.95,-187 23.95,-151 132.05,-151 132.05,-187"/>
<text text-anchor="middle" x="78" y="-164.8" font-family="Times,serif" font-size="14.00">CardComponent</text>
</g>
<!-- CardModule -->
<g id="node2" class="node">
<title>CardModule</title>
<polygon fill="#8dd3c7" stroke="black" points="482.26,-252 479.26,-256 458.26,-256 455.26,-252 395.74,-252 395.74,-216 482.26,-216 482.26,-252"/>
<text text-anchor="middle" x="439" y="-229.8" font-family="Times,serif" font-size="14.00">CardModule</text>
</g>
<!-- CardComponent&#45;&gt;CardModule -->
<g id="edge1" class="edge">
<title>CardComponent&#45;&gt;CardModule</title>
<path fill="none" stroke="black" d="M78,-187.29C78,-209.21 78,-243 78,-243 78,-243 385.45,-243 385.45,-243"/>
<polygon fill="black" stroke="black" points="385.46,-246.5 395.45,-243 385.45,-239.5 385.46,-246.5"/>
</g>
<!-- CardComponent  -->
<g id="node10" class="node">
<title>CardComponent </title>
<polygon fill="#fb8072" stroke="black" points="495.04,-317 382.96,-317 382.96,-281 495.04,-281 495.04,-317"/>
<text text-anchor="middle" x="439" y="-294.8" font-family="Times,serif" font-size="14.00">CardComponent </text>
</g>
<!-- CardModule&#45;&gt;CardComponent  -->
<g id="edge9" class="edge">
<title>CardModule&#45;&gt;CardComponent </title>
<path fill="none" stroke="black" stroke-dasharray="5,2" d="M439,-252.11C439,-252.11 439,-270.99 439,-270.99"/>
<polygon fill="black" stroke="black" points="435.5,-270.99 439,-280.99 442.5,-270.99 435.5,-270.99"/>
</g>
<!-- MessageService -->
<g id="node3" class="node">
<title>MessageService</title>
<ellipse fill="#fdb462" stroke="black" cx="98" cy="-104" rx="73.55" ry="18"/>
<text text-anchor="middle" x="98" y="-99.8" font-family="Times,serif" font-size="14.00">MessageService</text>
</g>
<!-- MessageService&#45;&gt;CardComponent -->
<g id="edge2" class="edge">
<title>MessageService&#45;&gt;CardComponent</title>
<path fill="none" stroke="black" d="M78.25,-121.42C78.25,-121.42 78.25,-140.62 78.25,-140.62"/>
<polygon fill="black" stroke="black" points="74.75,-140.62 78.25,-150.62 81.75,-140.62 74.75,-140.62"/>
</g>
<!-- I18nModule -->
<g id="node4" class="node">
<title>I18nModule</title>
<polygon fill="#8dd3c7" stroke="black" points="823.71,-187 820.71,-191 799.71,-191 796.71,-187 738.29,-187 738.29,-151 823.71,-151 823.71,-187"/>
<text text-anchor="middle" x="781" y="-164.8" font-family="Times,serif" font-size="14.00">I18nModule</text>
</g>
<!-- I18nModule&#45;&gt;CardModule -->
<g id="edge3" class="edge">
<title>I18nModule&#45;&gt;CardModule</title>
<path fill="none" stroke="black" d="M781,-187.29C781,-209.21 781,-243 781,-243 781,-243 492.31,-243 492.31,-243"/>
<polygon fill="black" stroke="black" points="492.31,-239.5 482.31,-243 492.31,-246.5 492.31,-239.5"/>
</g>
<!-- IconModule -->
<g id="node5" class="node">
<title>IconModule</title>
<polygon fill="#8dd3c7" stroke="black" points="720.43,-187 717.43,-191 696.43,-191 693.43,-187 635.57,-187 635.57,-151 720.43,-151 720.43,-187"/>
<text text-anchor="middle" x="678" y="-164.8" font-family="Times,serif" font-size="14.00">IconModule</text>
</g>
<!-- IconModule&#45;&gt;CardModule -->
<g id="edge4" class="edge">
<title>IconModule&#45;&gt;CardModule</title>
<path fill="none" stroke="black" d="M678,-187.11C678,-206.34 678,-234 678,-234 678,-234 492.28,-234 492.28,-234"/>
<polygon fill="black" stroke="black" points="492.28,-230.5 482.28,-234 492.28,-237.5 492.28,-230.5"/>
</g>
<!-- MessageModule -->
<g id="node6" class="node">
<title>MessageModule</title>
<polygon fill="#8dd3c7" stroke="black" points="618.03,-187 615.03,-191 594.03,-191 591.03,-187 509.97,-187 509.97,-151 618.03,-151 618.03,-187"/>
<text text-anchor="middle" x="564" y="-164.8" font-family="Times,serif" font-size="14.00">MessageModule</text>
</g>
<!-- MessageModule&#45;&gt;CardModule -->
<g id="edge5" class="edge">
<title>MessageModule&#45;&gt;CardModule</title>
<path fill="none" stroke="black" d="M564,-187.03C564,-203.4 564,-225 564,-225 564,-225 492.37,-225 492.37,-225"/>
<polygon fill="black" stroke="black" points="492.37,-221.5 482.37,-225 492.37,-228.5 492.37,-221.5"/>
</g>
<!-- PopoverModule -->
<g id="node7" class="node">
<title>PopoverModule</title>
<polygon fill="#8dd3c7" stroke="black" points="492.21,-187 489.21,-191 468.21,-191 465.21,-187 385.79,-187 385.79,-151 492.21,-151 492.21,-187"/>
<text text-anchor="middle" x="439" y="-164.8" font-family="Times,serif" font-size="14.00">PopoverModule</text>
</g>
<!-- PopoverModule&#45;&gt;CardModule -->
<g id="edge6" class="edge">
<title>PopoverModule&#45;&gt;CardModule</title>
<path fill="none" stroke="black" d="M439,-187.11C439,-187.11 439,-205.99 439,-205.99"/>
<polygon fill="black" stroke="black" points="435.5,-205.99 439,-215.99 442.5,-205.99 435.5,-205.99"/>
</g>
<!-- SplitViewModule -->
<g id="node8" class="node">
<title>SplitViewModule</title>
<polygon fill="#8dd3c7" stroke="black" points="368.32,-187 365.32,-191 344.32,-191 341.32,-187 251.68,-187 251.68,-151 368.32,-151 368.32,-187"/>
<text text-anchor="middle" x="310" y="-164.8" font-family="Times,serif" font-size="14.00">SplitViewModule</text>
</g>
<!-- SplitViewModule&#45;&gt;CardModule -->
<g id="edge7" class="edge">
<title>SplitViewModule&#45;&gt;CardModule</title>
<path fill="none" stroke="black" d="M310,-187.03C310,-203.4 310,-225 310,-225 310,-225 385.69,-225 385.69,-225"/>
<polygon fill="black" stroke="black" points="385.69,-228.5 395.69,-225 385.69,-221.5 385.69,-228.5"/>
</g>
<!-- UrlModule -->
<g id="node9" class="node">
<title>UrlModule</title>
<polygon fill="#8dd3c7" stroke="black" points="234.21,-187 231.21,-191 210.21,-191 207.21,-187 155.79,-187 155.79,-151 234.21,-151 234.21,-187"/>
<text text-anchor="middle" x="195" y="-164.8" font-family="Times,serif" font-size="14.00">UrlModule</text>
</g>
<!-- UrlModule&#45;&gt;CardModule -->
<g id="edge8" class="edge">
<title>UrlModule&#45;&gt;CardModule</title>
<path fill="none" stroke="black" d="M195,-187.11C195,-206.34 195,-234 195,-234 195,-234 385.66,-234 385.66,-234"/>
<polygon fill="black" stroke="black" points="385.66,-237.5 395.66,-234 385.66,-230.5 385.66,-237.5"/>
</g>
</g>
</svg>
