<?xml version="1.0" encoding="UTF-8" standalone="no"?>
<!DOCTYPE svg PUBLIC "-//W3C//DTD SVG 1.1//EN"
 "http://www.w3.org/Graphics/SVG/1.1/DTD/svg11.dtd">
<!-- Generated by graphviz version 2.40.1 (20161225.0304)
 -->
<!-- Title: dependencies Pages: 1 -->
<svg width="840pt" height="284pt"
 viewBox="0.00 0.00 840.00 284.00" xmlns="http://www.w3.org/2000/svg" xmlns:xlink="http://www.w3.org/1999/xlink">
<g id="graph0" class="graph" transform="scale(1 1) rotate(0) translate(4 280)">
<title>dependencies</title>
<polygon fill="#ffffff" stroke="transparent" points="-4,4 -4,-280 836,-280 836,4 -4,4"/>
<text text-anchor="start" x="395.0091" y="-42.4" font-family="sans-serif" font-weight="bold" font-size="14.00" fill="#000000">Legend</text>
<polygon fill="#ffffb3" stroke="transparent" points="182,-10 182,-30 202,-30 202,-10 182,-10"/>
<text text-anchor="start" x="205.629" y="-15.4" font-family="sans-serif" font-size="14.00" fill="#000000"> &#160;Declarations</text>
<polygon fill="#8dd3c7" stroke="transparent" points="295,-10 295,-30 315,-30 315,-10 295,-10"/>
<text text-anchor="start" x="318.7251" y="-15.4" font-family="sans-serif" font-size="14.00" fill="#000000"> &#160;Module</text>
<polygon fill="#80b1d3" stroke="transparent" points="381,-10 381,-30 401,-30 401,-10 381,-10"/>
<text text-anchor="start" x="404.7812" y="-15.4" font-family="sans-serif" font-size="14.00" fill="#000000"> &#160;Bootstrap</text>
<polygon fill="#fdb462" stroke="transparent" points="478,-10 478,-30 498,-30 498,-10 478,-10"/>
<text text-anchor="start" x="501.6732" y="-15.4" font-family="sans-serif" font-size="14.00" fill="#000000"> &#160;Providers</text>
<polygon fill="#fb8072" stroke="transparent" points="574,-10 574,-30 594,-30 594,-10 574,-10"/>
<text text-anchor="start" x="597.7258" y="-15.4" font-family="sans-serif" font-size="14.00" fill="#000000"> &#160;Exports</text>
<g id="clust1" class="cluster">
<title>cluster_LoginModule</title>
<polygon fill="none" stroke="#000000" stroke-dasharray="1,5" points="8,-70 8,-268 824,-268 824,-70 8,-70"/>
</g>
<g id="clust2" class="cluster">
<title>cluster_LoginModule_declarations</title>
<polygon fill="none" stroke="#000000" points="522,-78 522,-130 816,-130 816,-78 522,-78"/>
</g>
<g id="clust5" class="cluster">
<title>cluster_LoginModule_imports</title>
<polygon fill="none" stroke="#000000" points="16,-78 16,-130 514,-130 514,-78 16,-78"/>
</g>
<g id="clust6" class="cluster">
<title>cluster_LoginModule_exports</title>
<polygon fill="none" stroke="#000000" points="233,-208 233,-260 533,-260 533,-208 233,-208"/>
</g>
<!-- LoginComponent -->
<g id="node1" class="node">
<title>LoginComponent</title>
<polygon fill="#ffffb3" stroke="#000000" points="808.2758,-122 693.7242,-122 693.7242,-86 808.2758,-86 808.2758,-122"/>
<text text-anchor="middle" x="751" y="-99.8" font-family="Times,serif" font-size="14.00" fill="#000000">LoginComponent</text>
</g>
<!-- LoginModule -->
<g id="node3" class="node">
<title>LoginModule</title>
<polygon fill="#8dd3c7" stroke="#000000" points="436.493,-187 433.493,-191 412.493,-191 409.493,-187 343.507,-187 343.507,-151 436.493,-151 436.493,-187"/>
<text text-anchor="middle" x="390" y="-164.8" font-family="Times,serif" font-size="14.00" fill="#000000">LoginModule</text>
</g>
<!-- LoginComponent&#45;&gt;LoginModule -->
<g id="edge1" class="edge">
<title>LoginComponent&#45;&gt;LoginModule</title>
<path fill="none" stroke="#000000" d="M751,-122.2843C751,-143.3211 751,-175 751,-175 751,-175 446.8244,-175 446.8244,-175"/>
<polygon fill="#000000" stroke="#000000" points="446.8244,-171.5001 436.8244,-175 446.8243,-178.5001 446.8244,-171.5001"/>
</g>
<!-- LoginFormComponent -->
<g id="node2" class="node">
<title>LoginFormComponent</title>
<polygon fill="#ffffb3" stroke="#000000" points="675.6094,-122 530.3906,-122 530.3906,-86 675.6094,-86 675.6094,-122"/>
<text text-anchor="middle" x="603" y="-99.8" font-family="Times,serif" font-size="14.00" fill="#000000">LoginFormComponent</text>
</g>
<!-- LoginFormComponent&#45;&gt;LoginModule -->
<g id="edge2" class="edge">
<title>LoginFormComponent&#45;&gt;LoginModule</title>
<path fill="none" stroke="#000000" d="M603,-122.0225C603,-139.3734 603,-163 603,-163 603,-163 446.7438,-163 446.7438,-163"/>
<polygon fill="#000000" stroke="#000000" points="446.7438,-159.5001 436.7438,-163 446.7437,-166.5001 446.7438,-159.5001"/>
</g>
<!-- LoginComponent  -->
<g id="node8" class="node">
<title>LoginComponent </title>
<polygon fill="#fb8072" stroke="#000000" points="525.2759,-252 406.7241,-252 406.7241,-216 525.2759,-216 525.2759,-252"/>
<text text-anchor="middle" x="466" y="-229.8" font-family="Times,serif" font-size="14.00" fill="#000000">LoginComponent </text>
</g>
<!-- LoginModule&#45;&gt;LoginComponent  -->
<g id="edge7" class="edge">
<title>LoginModule&#45;&gt;LoginComponent </title>
<path fill="none" stroke="#000000" stroke-dasharray="5,2" d="M421.6794,-187.1061C421.6794,-187.1061 421.6794,-205.991 421.6794,-205.991"/>
<polygon fill="#000000" stroke="#000000" points="418.1794,-205.9909 421.6794,-215.991 425.1794,-205.991 418.1794,-205.9909"/>
</g>
<!-- LoginFormComponent  -->
<g id="node9" class="node">
<title>LoginFormComponent </title>
<polygon fill="#fb8072" stroke="#000000" points="389.1099,-252 240.8901,-252 240.8901,-216 389.1099,-216 389.1099,-252"/>
<text text-anchor="middle" x="315" y="-229.8" font-family="Times,serif" font-size="14.00" fill="#000000">LoginFormComponent </text>
</g>
<!-- LoginModule&#45;&gt;LoginFormComponent  -->
<g id="edge8" class="edge">
<title>LoginModule&#45;&gt;LoginFormComponent </title>
<path fill="none" stroke="#000000" stroke-dasharray="5,2" d="M366.4041,-187.1061C366.4041,-187.1061 366.4041,-205.991 366.4041,-205.991"/>
<polygon fill="#000000" stroke="#000000" points="362.9042,-205.9909 366.4041,-215.991 369.9042,-205.991 362.9042,-205.9909"/>
</g>
<!-- BootstrapModule -->
<g id="node4" class="node">
<title>BootstrapModule</title>
<polygon fill="#8dd3c7" stroke="#000000" points="505.9874,-122 502.9874,-126 481.9874,-126 478.9874,-122 392.0126,-122 392.0126,-86 505.9874,-86 505.9874,-122"/>
<text text-anchor="middle" x="449" y="-99.8" font-family="Times,serif" font-size="14.00" fill="#000000">BootstrapModule</text>
</g>
<!-- BootstrapModule&#45;&gt;LoginModule -->
<g id="edge3" class="edge">
<title>BootstrapModule&#45;&gt;LoginModule</title>
<path fill="none" stroke="#000000" d="M414.2514,-122.1061C414.2514,-122.1061 414.2514,-140.991 414.2514,-140.991"/>
<polygon fill="#000000" stroke="#000000" points="410.7515,-140.9909 414.2514,-150.991 417.7515,-140.991 410.7515,-140.9909"/>
</g>
<!-- CmsModule -->
<g id="node5" class="node">
<title>CmsModule</title>
<polygon fill="#8dd3c7" stroke="#000000" points="373.7219,-122 370.7219,-126 349.7219,-126 346.7219,-122 288.2781,-122 288.2781,-86 373.7219,-86 373.7219,-122"/>
<text text-anchor="middle" x="331" y="-99.8" font-family="Times,serif" font-size="14.00" fill="#000000">CmsModule</text>
</g>
<!-- CmsModule&#45;&gt;LoginModule -->
<g id="edge4" class="edge">
<title>CmsModule&#45;&gt;LoginModule</title>
<path fill="none" stroke="#000000" d="M358.5572,-122.1061C358.5572,-122.1061 358.5572,-140.991 358.5572,-140.991"/>
<polygon fill="#000000" stroke="#000000" points="355.0572,-140.9909 358.5572,-150.991 362.0572,-140.991 355.0572,-140.9909"/>
</g>
<!-- UrlTranslationModule -->
<g id="node6" class="node">
<title>UrlTranslationModule</title>
<polygon fill="#8dd3c7" stroke="#000000" points="269.9664,-122 266.9664,-126 245.9664,-126 242.9664,-122 128.0336,-122 128.0336,-86 269.9664,-86 269.9664,-122"/>
<text text-anchor="middle" x="199" y="-99.8" font-family="Times,serif" font-size="14.00" fill="#000000">UrlTranslationModule</text>
</g>
<!-- UrlTranslationModule&#45;&gt;LoginModule -->
<g id="edge5" class="edge">
<title>UrlTranslationModule&#45;&gt;LoginModule</title>
<path fill="none" stroke="#000000" d="M255.3393,-122.0225C255.3393,-139.3734 255.3393,-163 255.3393,-163 255.3393,-163 333.2801,-163 333.2801,-163"/>
<polygon fill="#000000" stroke="#000000" points="333.2802,-166.5001 343.2801,-163 333.2801,-159.5001 333.2802,-166.5001"/>
</g>
<!-- UserModule -->
<g id="node7" class="node">
<title>UserModule</title>
<polygon fill="#8dd3c7" stroke="#000000" points="109.9762,-122 106.9762,-126 85.9762,-126 82.9762,-122 24.0238,-122 24.0238,-86 109.9762,-86 109.9762,-122"/>
<text text-anchor="middle" x="67" y="-99.8" font-family="Times,serif" font-size="14.00" fill="#000000">UserModule</text>
</g>
<!-- UserModule&#45;&gt;LoginModule -->
<g id="edge6" class="edge">
<title>UserModule&#45;&gt;LoginModule</title>
<path fill="none" stroke="#000000" d="M67,-122.2843C67,-143.3211 67,-175 67,-175 67,-175 333.378,-175 333.378,-175"/>
<polygon fill="#000000" stroke="#000000" points="333.378,-178.5001 343.378,-175 333.3779,-171.5001 333.378,-178.5001"/>
</g>
</g>
</svg>
