<?xml version="1.0" encoding="UTF-8" standalone="no"?>
<!DOCTYPE svg PUBLIC "-//W3C//DTD SVG 1.1//EN"
 "http://www.w3.org/Graphics/SVG/1.1/DTD/svg11.dtd">
<!-- Generated by graphviz version 2.47.0 (20210316.0004)
 -->
<!-- Title: dependencies Pages: 1 -->
<svg width="531pt" height="284pt"
 viewBox="0.00 0.00 531.00 284.00" xmlns="http://www.w3.org/2000/svg" xmlns:xlink="http://www.w3.org/1999/xlink">
<g id="graph0" class="graph" transform="scale(1 1) rotate(0) translate(4 280)">
<title>dependencies</title>
<polygon fill="white" stroke="transparent" points="-4,4 -4,-280 527,-280 527,4 -4,4"/>
<text text-anchor="start" x="240.51" y="-42.4" font-family="sans-serif" font-weight="bold" font-size="14.00">Legend</text>
<polygon fill="#ffffb3" stroke="transparent" points="27.5,-10 27.5,-30 47.5,-30 47.5,-10 27.5,-10"/>
<text text-anchor="start" x="51.13" y="-15.4" font-family="sans-serif" font-size="14.00"> &#160;Declarations</text>
<polygon fill="#8dd3c7" stroke="transparent" points="140.5,-10 140.5,-30 160.5,-30 160.5,-10 140.5,-10"/>
<text text-anchor="start" x="164.23" y="-15.4" font-family="sans-serif" font-size="14.00"> &#160;Module</text>
<polygon fill="#80b1d3" stroke="transparent" points="226.5,-10 226.5,-30 246.5,-30 246.5,-10 226.5,-10"/>
<text text-anchor="start" x="250.28" y="-15.4" font-family="sans-serif" font-size="14.00"> &#160;Bootstrap</text>
<polygon fill="#fdb462" stroke="transparent" points="323.5,-10 323.5,-30 343.5,-30 343.5,-10 323.5,-10"/>
<text text-anchor="start" x="347.17" y="-15.4" font-family="sans-serif" font-size="14.00"> &#160;Providers</text>
<polygon fill="#fb8072" stroke="transparent" points="419.5,-10 419.5,-30 439.5,-30 439.5,-10 419.5,-10"/>
<text text-anchor="start" x="443.23" y="-15.4" font-family="sans-serif" font-size="14.00"> &#160;Exports</text>
<g id="clust1" class="cluster">
<title>cluster_ConfiguratorUpdateMessageModule</title>
<polygon fill="none" stroke="black" stroke-dasharray="1,5" points="8,-70 8,-268 515,-268 515,-70 8,-70"/>
</g>
<g id="clust2" class="cluster">
<title>cluster_ConfiguratorUpdateMessageModule_declarations</title>
<polygon fill="none" stroke="black" points="247,-78 247,-130 507,-130 507,-78 247,-78"/>
</g>
<g id="clust4" class="cluster">
<title>cluster_ConfiguratorUpdateMessageModule_imports</title>
<polygon fill="none" stroke="black" points="16,-78 16,-130 239,-130 239,-78 16,-78"/>
</g>
<g id="clust5" class="cluster">
<title>cluster_ConfiguratorUpdateMessageModule_exports</title>
<polygon fill="none" stroke="black" points="57,-208 57,-260 319,-260 319,-208 57,-208"/>
</g>
<!-- ConfiguratorUpdateMessageComponent -->
<g id="node1" class="node">
<title>ConfiguratorUpdateMessageComponent</title>
<polygon fill="#ffffb3" stroke="black" points="498.55,-122 255.45,-122 255.45,-86 498.55,-86 498.55,-122"/>
<text text-anchor="middle" x="377" y="-99.8" font-family="Times,serif" font-size="14.00">ConfiguratorUpdateMessageComponent</text>
</g>
<!-- ConfiguratorUpdateMessageModule -->
<g id="node2" class="node">
<title>ConfiguratorUpdateMessageModule</title>
<polygon fill="#8dd3c7" stroke="black" points="298.77,-187 295.77,-191 274.77,-191 271.77,-187 77.23,-187 77.23,-151 298.77,-151 298.77,-187"/>
<text text-anchor="middle" x="188" y="-164.8" font-family="Times,serif" font-size="14.00">ConfiguratorUpdateMessageModule</text>
</g>
<!-- ConfiguratorUpdateMessageComponent&#45;&gt;ConfiguratorUpdateMessageModule -->
<g id="edge1" class="edge">
<title>ConfiguratorUpdateMessageComponent&#45;&gt;ConfiguratorUpdateMessageModule</title>
<path fill="none" stroke="black" d="M277.05,-122.11C277.05,-122.11 277.05,-140.99 277.05,-140.99"/>
<polygon fill="black" stroke="black" points="273.55,-140.99 277.05,-150.99 280.55,-140.99 273.55,-140.99"/>
</g>
<!-- ConfiguratorUpdateMessageComponent  -->
<g id="node5" class="node">
<title>ConfiguratorUpdateMessageComponent </title>
<polygon fill="#fb8072" stroke="black" points="311.05,-252 64.95,-252 64.95,-216 311.05,-216 311.05,-252"/>
<text text-anchor="middle" x="188" y="-229.8" font-family="Times,serif" font-size="14.00">ConfiguratorUpdateMessageComponent </text>
</g>
<!-- ConfiguratorUpdateMessageModule&#45;&gt;ConfiguratorUpdateMessageComponent  -->
<g id="edge4" class="edge">
<title>ConfiguratorUpdateMessageModule&#45;&gt;ConfiguratorUpdateMessageComponent </title>
<path fill="none" stroke="black" stroke-dasharray="5,2" d="M188,-187.11C188,-187.11 188,-205.99 188,-205.99"/>
<polygon fill="black" stroke="black" points="184.5,-205.99 188,-215.99 191.5,-205.99 184.5,-205.99"/>
</g>
<!-- I18nModule -->
<g id="node3" class="node">
<title>I18nModule</title>
<polygon fill="#8dd3c7" stroke="black" points="230.71,-122 227.71,-126 206.71,-126 203.71,-122 145.29,-122 145.29,-86 230.71,-86 230.71,-122"/>
<text text-anchor="middle" x="188" y="-99.8" font-family="Times,serif" font-size="14.00">I18nModule</text>
</g>
<!-- I18nModule&#45;&gt;ConfiguratorUpdateMessageModule -->
<g id="edge2" class="edge">
<title>I18nModule&#45;&gt;ConfiguratorUpdateMessageModule</title>
<path fill="none" stroke="black" d="M188,-122.11C188,-122.11 188,-140.99 188,-140.99"/>
<polygon fill="black" stroke="black" points="184.5,-140.99 188,-150.99 191.5,-140.99 184.5,-140.99"/>
</g>
<!-- SpinnerModule -->
<g id="node4" class="node">
<title>SpinnerModule</title>
<polygon fill="#8dd3c7" stroke="black" points="127.6,-122 124.6,-126 103.6,-126 100.6,-122 24.4,-122 24.4,-86 127.6,-86 127.6,-122"/>
<text text-anchor="middle" x="76" y="-99.8" font-family="Times,serif" font-size="14.00">SpinnerModule</text>
</g>
<!-- SpinnerModule&#45;&gt;ConfiguratorUpdateMessageModule -->
<g id="edge3" class="edge">
<title>SpinnerModule&#45;&gt;ConfiguratorUpdateMessageModule</title>
<path fill="none" stroke="black" d="M102.46,-122.11C102.46,-122.11 102.46,-140.99 102.46,-140.99"/>
<polygon fill="black" stroke="black" points="98.96,-140.99 102.46,-150.99 105.96,-140.99 98.96,-140.99"/>
</g>
</g>
</svg>
