<?xml version="1.0" encoding="UTF-8" standalone="no"?>
<!DOCTYPE svg PUBLIC "-//W3C//DTD SVG 1.1//EN"
 "http://www.w3.org/Graphics/SVG/1.1/DTD/svg11.dtd">
<!-- Generated by graphviz version 2.40.1 (20161225.0304)
 -->
<!-- Title: dependencies Pages: 1 -->
<svg width="531pt" height="284pt"
 viewBox="0.00 0.00 531.00 284.00" xmlns="http://www.w3.org/2000/svg" xmlns:xlink="http://www.w3.org/1999/xlink">
<g id="graph0" class="graph" transform="scale(1 1) rotate(0) translate(4 280)">
<title>dependencies</title>
<polygon fill="#ffffff" stroke="transparent" points="-4,4 -4,-280 527,-280 527,4 -4,4"/>
<text text-anchor="start" x="240.5091" y="-42.4" font-family="sans-serif" font-weight="bold" font-size="14.00" fill="#000000">Legend</text>
<polygon fill="#ffffb3" stroke="transparent" points="27.5,-10 27.5,-30 47.5,-30 47.5,-10 27.5,-10"/>
<text text-anchor="start" x="51.129" y="-15.4" font-family="sans-serif" font-size="14.00" fill="#000000"> &#160;Declarations</text>
<polygon fill="#8dd3c7" stroke="transparent" points="140.5,-10 140.5,-30 160.5,-30 160.5,-10 140.5,-10"/>
<text text-anchor="start" x="164.2251" y="-15.4" font-family="sans-serif" font-size="14.00" fill="#000000"> &#160;Module</text>
<polygon fill="#80b1d3" stroke="transparent" points="226.5,-10 226.5,-30 246.5,-30 246.5,-10 226.5,-10"/>
<text text-anchor="start" x="250.2812" y="-15.4" font-family="sans-serif" font-size="14.00" fill="#000000"> &#160;Bootstrap</text>
<polygon fill="#fdb462" stroke="transparent" points="323.5,-10 323.5,-30 343.5,-30 343.5,-10 323.5,-10"/>
<text text-anchor="start" x="347.1732" y="-15.4" font-family="sans-serif" font-size="14.00" fill="#000000"> &#160;Providers</text>
<polygon fill="#fb8072" stroke="transparent" points="419.5,-10 419.5,-30 439.5,-30 439.5,-10 419.5,-10"/>
<text text-anchor="start" x="443.2258" y="-15.4" font-family="sans-serif" font-size="14.00" fill="#000000"> &#160;Exports</text>
<g id="clust1" class="cluster">
<title>cluster_ConfiguratorUpdateMessageModule</title>
<polygon fill="none" stroke="#000000" stroke-dasharray="1,5" points="8,-70 8,-268 515,-268 515,-70 8,-70"/>
</g>
<g id="clust2" class="cluster">
<title>cluster_ConfiguratorUpdateMessageModule_declarations</title>
<polygon fill="none" stroke="#000000" points="247,-78 247,-130 507,-130 507,-78 247,-78"/>
</g>
<g id="clust4" class="cluster">
<title>cluster_ConfiguratorUpdateMessageModule_imports</title>
<polygon fill="none" stroke="#000000" points="16,-78 16,-130 239,-130 239,-78 16,-78"/>
</g>
<g id="clust5" class="cluster">
<title>cluster_ConfiguratorUpdateMessageModule_exports</title>
<polygon fill="none" stroke="#000000" points="57,-208 57,-260 319,-260 319,-208 57,-208"/>
</g>
<!-- ConfiguratorUpdateMessageComponent -->
<g id="node1" class="node">
<title>ConfiguratorUpdateMessageComponent</title>
<polygon fill="#ffffb3" stroke="#000000" points="498.5506,-122 255.4494,-122 255.4494,-86 498.5506,-86 498.5506,-122"/>
<text text-anchor="middle" x="377" y="-99.8" font-family="Times,serif" font-size="14.00" fill="#000000">ConfiguratorUpdateMessageComponent</text>
</g>
<!-- ConfiguratorUpdateMessageModule -->
<g id="node2" class="node">
<title>ConfiguratorUpdateMessageModule</title>
<polygon fill="#8dd3c7" stroke="#000000" points="298.7682,-187 295.7682,-191 274.7682,-191 271.7682,-187 77.2318,-187 77.2318,-151 298.7682,-151 298.7682,-187"/>
<text text-anchor="middle" x="188" y="-164.8" font-family="Times,serif" font-size="14.00" fill="#000000">ConfiguratorUpdateMessageModule</text>
</g>
<!-- ConfiguratorUpdateMessageComponent&#45;&gt;ConfiguratorUpdateMessageModule -->
<g id="edge1" class="edge">
<title>ConfiguratorUpdateMessageComponent&#45;&gt;ConfiguratorUpdateMessageModule</title>
<path fill="none" stroke="#000000" d="M277.0544,-122.1061C277.0544,-122.1061 277.0544,-140.991 277.0544,-140.991"/>
<polygon fill="#000000" stroke="#000000" points="273.5544,-140.9909 277.0544,-150.991 280.5544,-140.991 273.5544,-140.9909"/>
</g>
<!-- ConfiguratorUpdateMessageComponent  -->
<g id="node5" class="node">
<title>ConfiguratorUpdateMessageComponent </title>
<polygon fill="#fb8072" stroke="#000000" points="311.051,-252 64.949,-252 64.949,-216 311.051,-216 311.051,-252"/>
<text text-anchor="middle" x="188" y="-229.8" font-family="Times,serif" font-size="14.00" fill="#000000">ConfiguratorUpdateMessageComponent </text>
</g>
<!-- ConfiguratorUpdateMessageModule&#45;&gt;ConfiguratorUpdateMessageComponent  -->
<g id="edge4" class="edge">
<title>ConfiguratorUpdateMessageModule&#45;&gt;ConfiguratorUpdateMessageComponent </title>
<path fill="none" stroke="#000000" stroke-dasharray="5,2" d="M188,-187.1061C188,-187.1061 188,-205.991 188,-205.991"/>
<polygon fill="#000000" stroke="#000000" points="184.5001,-205.9909 188,-215.991 191.5001,-205.991 184.5001,-205.9909"/>
</g>
<!-- I18nModule -->
<g id="node3" class="node">
<title>I18nModule</title>
<polygon fill="#8dd3c7" stroke="#000000" points="230.7107,-122 227.7107,-126 206.7107,-126 203.7107,-122 145.2893,-122 145.2893,-86 230.7107,-86 230.7107,-122"/>
<text text-anchor="middle" x="188" y="-99.8" font-family="Times,serif" font-size="14.00" fill="#000000">I18nModule</text>
</g>
<!-- I18nModule&#45;&gt;ConfiguratorUpdateMessageModule -->
<g id="edge2" class="edge">
<title>I18nModule&#45;&gt;ConfiguratorUpdateMessageModule</title>
<path fill="none" stroke="#000000" d="M188,-122.1061C188,-122.1061 188,-140.991 188,-140.991"/>
<polygon fill="#000000" stroke="#000000" points="184.5001,-140.9909 188,-150.991 191.5001,-140.991 184.5001,-140.9909"/>
</g>
<!-- SpinnerModule -->
<g id="node4" class="node">
<title>SpinnerModule</title>
<polygon fill="#8dd3c7" stroke="#000000" points="127.5982,-122 124.5982,-126 103.5982,-126 100.5982,-122 24.4018,-122 24.4018,-86 127.5982,-86 127.5982,-122"/>
<text text-anchor="middle" x="76" y="-99.8" font-family="Times,serif" font-size="14.00" fill="#000000">SpinnerModule</text>
</g>
<!-- SpinnerModule&#45;&gt;ConfiguratorUpdateMessageModule -->
<g id="edge3" class="edge">
<title>SpinnerModule&#45;&gt;ConfiguratorUpdateMessageModule</title>
<path fill="none" stroke="#000000" d="M102.4576,-122.1061C102.4576,-122.1061 102.4576,-140.991 102.4576,-140.991"/>
<polygon fill="#000000" stroke="#000000" points="98.9576,-140.9909 102.4576,-150.991 105.9576,-140.991 98.9576,-140.9909"/>
</g>
</g>
</svg>
