<?xml version="1.0" encoding="UTF-8" standalone="no"?>
<!DOCTYPE svg PUBLIC "-//W3C//DTD SVG 1.1//EN"
 "http://www.w3.org/Graphics/SVG/1.1/DTD/svg11.dtd">
<!-- Generated by graphviz version 2.47.3 (20210619.1520)
 -->
<!-- Title: dependencies Pages: 1 -->
<svg width="531pt" height="247pt"
 viewBox="0.00 0.00 531.00 246.80" xmlns="http://www.w3.org/2000/svg" xmlns:xlink="http://www.w3.org/1999/xlink">
<g id="graph0" class="graph" transform="scale(1 1) rotate(0) translate(4 242.8)">
<title>dependencies</title>
<polygon fill="white" stroke="transparent" points="-4,4 -4,-242.8 527,-242.8 527,4 -4,4"/>
<text text-anchor="middle" x="261.5" y="-8.2" font-family="sans-serif" font-size="14.00">dependencies</text>
<g id="clust1" class="cluster">
<title>cluster_ConfiguratorUpdateMessageModule</title>
<polygon fill="none" stroke="black" stroke-dasharray="1,5" points="8,-32.8 8,-230.8 515,-230.8 515,-32.8 8,-32.8"/>
</g>
<g id="clust4" class="cluster">
<title>cluster_ConfiguratorUpdateMessageModule_imports</title>
<polygon fill="none" stroke="black" points="284,-40.8 284,-92.8 507,-92.8 507,-40.8 284,-40.8"/>
</g>
<g id="clust2" class="cluster">
<title>cluster_ConfiguratorUpdateMessageModule_declarations</title>
<polygon fill="none" stroke="black" points="16,-40.8 16,-92.8 276,-92.8 276,-40.8 16,-40.8"/>
</g>
<g id="clust5" class="cluster">
<title>cluster_ConfiguratorUpdateMessageModule_exports</title>
<polygon fill="none" stroke="black" points="213,-170.8 213,-222.8 475,-222.8 475,-170.8 213,-170.8"/>
</g>
<!-- ConfiguratorUpdateMessageComponent -->
<g id="node1" class="node">
<title>ConfiguratorUpdateMessageComponent</title>
<polygon fill="#ffffb3" stroke="black" points="267.55,-84.8 24.45,-84.8 24.45,-48.8 267.55,-48.8 267.55,-84.8"/>
<text text-anchor="middle" x="146" y="-62.6" font-family="Times,serif" font-size="14.00">ConfiguratorUpdateMessageComponent</text>
</g>
<!-- ConfiguratorUpdateMessageModule -->
<g id="node2" class="node">
<title>ConfiguratorUpdateMessageModule</title>
<polygon fill="#8dd3c7" stroke="black" points="454.77,-149.8 451.77,-153.8 430.77,-153.8 427.77,-149.8 233.23,-149.8 233.23,-113.8 454.77,-113.8 454.77,-149.8"/>
<text text-anchor="middle" x="344" y="-127.6" font-family="Times,serif" font-size="14.00">ConfiguratorUpdateMessageModule</text>
</g>
<!-- ConfiguratorUpdateMessageComponent&#45;&gt;ConfiguratorUpdateMessageModule -->
<g id="edge1" class="edge">
<title>ConfiguratorUpdateMessageComponent&#45;&gt;ConfiguratorUpdateMessageModule</title>
<path fill="none" stroke="black" d="M250.45,-84.91C250.45,-84.91 250.45,-103.79 250.45,-103.79"/>
<polygon fill="black" stroke="black" points="246.95,-103.79 250.45,-113.79 253.95,-103.79 246.95,-103.79"/>
</g>
<!-- ConfiguratorUpdateMessageComponent  -->
<g id="node5" class="node">
<title>ConfiguratorUpdateMessageComponent </title>
<polygon fill="#fb8072" stroke="black" points="467.05,-214.8 220.95,-214.8 220.95,-178.8 467.05,-178.8 467.05,-214.8"/>
<text text-anchor="middle" x="344" y="-192.6" font-family="Times,serif" font-size="14.00">ConfiguratorUpdateMessageComponent </text>
</g>
<!-- ConfiguratorUpdateMessageModule&#45;&gt;ConfiguratorUpdateMessageComponent  -->
<g id="edge4" class="edge">
<title>ConfiguratorUpdateMessageModule&#45;&gt;ConfiguratorUpdateMessageComponent </title>
<path fill="none" stroke="black" stroke-dasharray="5,2" d="M344,-149.91C344,-149.91 344,-168.79 344,-168.79"/>
<polygon fill="black" stroke="black" points="340.5,-168.79 344,-178.79 347.5,-168.79 340.5,-168.79"/>
</g>
<!-- I18nModule -->
<g id="node3" class="node">
<title>I18nModule</title>
<polygon fill="#8dd3c7" stroke="black" points="498.71,-84.8 495.71,-88.8 474.71,-88.8 471.71,-84.8 413.29,-84.8 413.29,-48.8 498.71,-48.8 498.71,-84.8"/>
<text text-anchor="middle" x="456" y="-62.6" font-family="Times,serif" font-size="14.00">I18nModule</text>
</g>
<!-- I18nModule&#45;&gt;ConfiguratorUpdateMessageModule -->
<g id="edge2" class="edge">
<title>I18nModule&#45;&gt;ConfiguratorUpdateMessageModule</title>
<path fill="none" stroke="black" d="M434.01,-84.91C434.01,-84.91 434.01,-103.79 434.01,-103.79"/>
<polygon fill="black" stroke="black" points="430.51,-103.79 434.01,-113.79 437.51,-103.79 430.51,-103.79"/>
</g>
<!-- SpinnerModule -->
<g id="node4" class="node">
<title>SpinnerModule</title>
<polygon fill="#8dd3c7" stroke="black" points="395.6,-84.8 392.6,-88.8 371.6,-88.8 368.6,-84.8 292.4,-84.8 292.4,-48.8 395.6,-48.8 395.6,-84.8"/>
<text text-anchor="middle" x="344" y="-62.6" font-family="Times,serif" font-size="14.00">SpinnerModule</text>
</g>
<!-- SpinnerModule&#45;&gt;ConfiguratorUpdateMessageModule -->
<g id="edge3" class="edge">
<title>SpinnerModule&#45;&gt;ConfiguratorUpdateMessageModule</title>
<path fill="none" stroke="black" d="M344,-84.91C344,-84.91 344,-103.79 344,-103.79"/>
<polygon fill="black" stroke="black" points="340.5,-103.79 344,-113.79 347.5,-103.79 340.5,-103.79"/>
</g>
</g>
</svg>
