<?xml version="1.0" encoding="UTF-8" standalone="no"?>
<!DOCTYPE svg PUBLIC "-//W3C//DTD SVG 1.1//EN"
 "http://www.w3.org/Graphics/SVG/1.1/DTD/svg11.dtd">
<!-- Generated by graphviz version 2.47.3 (20210619.1520)
 -->
<!-- Title: dependencies Pages: 1 -->
<svg width="531pt" height="247pt"
 viewBox="0.00 0.00 531.00 246.80" xmlns="http://www.w3.org/2000/svg" xmlns:xlink="http://www.w3.org/1999/xlink">
<g id="graph0" class="graph" transform="scale(1 1) rotate(0) translate(4 242.8)">
<title>dependencies</title>
<polygon fill="white" stroke="transparent" points="-4,4 -4,-242.8 527,-242.8 527,4 -4,4"/>
<text text-anchor="middle" x="261.5" y="-8.2" font-family="sans-serif" font-size="14.00">dependencies</text>
<g id="clust1" class="cluster">
<title>cluster_ConfiguratorUpdateMessageModule</title>
<polygon fill="none" stroke="black" stroke-dasharray="1,5" points="8,-32.8 8,-230.8 515,-230.8 515,-32.8 8,-32.8"/>
</g>
<g id="clust2" class="cluster">
<title>cluster_ConfiguratorUpdateMessageModule_declarations</title>
<polygon fill="none" stroke="black" points="247,-40.8 247,-92.8 507,-92.8 507,-40.8 247,-40.8"/>
</g>
<g id="clust5" class="cluster">
<title>cluster_ConfiguratorUpdateMessageModule_exports</title>
<polygon fill="none" stroke="black" points="57,-170.8 57,-222.8 319,-222.8 319,-170.8 57,-170.8"/>
</g>
<g id="clust4" class="cluster">
<title>cluster_ConfiguratorUpdateMessageModule_imports</title>
<polygon fill="none" stroke="black" points="16,-40.8 16,-92.8 239,-92.8 239,-40.8 16,-40.8"/>
</g>
<!-- ConfiguratorUpdateMessageComponent -->
<g id="node1" class="node">
<title>ConfiguratorUpdateMessageComponent</title>
<polygon fill="#ffffb3" stroke="black" points="498.55,-84.8 255.45,-84.8 255.45,-48.8 498.55,-48.8 498.55,-84.8"/>
<text text-anchor="middle" x="377" y="-62.6" font-family="Times,serif" font-size="14.00">ConfiguratorUpdateMessageComponent</text>
</g>
<!-- ConfiguratorUpdateMessageModule -->
<g id="node2" class="node">
<title>ConfiguratorUpdateMessageModule</title>
<polygon fill="#8dd3c7" stroke="black" points="298.77,-149.8 295.77,-153.8 274.77,-153.8 271.77,-149.8 77.23,-149.8 77.23,-113.8 298.77,-113.8 298.77,-149.8"/>
<text text-anchor="middle" x="188" y="-127.6" font-family="Times,serif" font-size="14.00">ConfiguratorUpdateMessageModule</text>
</g>
<!-- ConfiguratorUpdateMessageComponent&#45;&gt;ConfiguratorUpdateMessageModule -->
<g id="edge1" class="edge">
<title>ConfiguratorUpdateMessageComponent&#45;&gt;ConfiguratorUpdateMessageModule</title>
<path fill="none" stroke="black" d="M277.05,-84.91C277.05,-84.91 277.05,-103.79 277.05,-103.79"/>
<polygon fill="black" stroke="black" points="273.55,-103.79 277.05,-113.79 280.55,-103.79 273.55,-103.79"/>
</g>
<!-- ConfiguratorUpdateMessageComponent  -->
<g id="node5" class="node">
<title>ConfiguratorUpdateMessageComponent </title>
<polygon fill="#fb8072" stroke="black" points="311.05,-214.8 64.95,-214.8 64.95,-178.8 311.05,-178.8 311.05,-214.8"/>
<text text-anchor="middle" x="188" y="-192.6" font-family="Times,serif" font-size="14.00">ConfiguratorUpdateMessageComponent </text>
</g>
<!-- ConfiguratorUpdateMessageModule&#45;&gt;ConfiguratorUpdateMessageComponent  -->
<g id="edge4" class="edge">
<title>ConfiguratorUpdateMessageModule&#45;&gt;ConfiguratorUpdateMessageComponent </title>
<path fill="none" stroke="black" stroke-dasharray="5,2" d="M188,-149.91C188,-149.91 188,-168.79 188,-168.79"/>
<polygon fill="black" stroke="black" points="184.5,-168.79 188,-178.79 191.5,-168.79 184.5,-168.79"/>
</g>
<!-- I18nModule -->
<g id="node3" class="node">
<title>I18nModule</title>
<polygon fill="#8dd3c7" stroke="black" points="230.71,-84.8 227.71,-88.8 206.71,-88.8 203.71,-84.8 145.29,-84.8 145.29,-48.8 230.71,-48.8 230.71,-84.8"/>
<text text-anchor="middle" x="188" y="-62.6" font-family="Times,serif" font-size="14.00">I18nModule</text>
</g>
<!-- I18nModule&#45;&gt;ConfiguratorUpdateMessageModule -->
<g id="edge2" class="edge">
<title>I18nModule&#45;&gt;ConfiguratorUpdateMessageModule</title>
<path fill="none" stroke="black" d="M188,-84.91C188,-84.91 188,-103.79 188,-103.79"/>
<polygon fill="black" stroke="black" points="184.5,-103.79 188,-113.79 191.5,-103.79 184.5,-103.79"/>
</g>
<!-- SpinnerModule -->
<g id="node4" class="node">
<title>SpinnerModule</title>
<polygon fill="#8dd3c7" stroke="black" points="127.6,-84.8 124.6,-88.8 103.6,-88.8 100.6,-84.8 24.4,-84.8 24.4,-48.8 127.6,-48.8 127.6,-84.8"/>
<text text-anchor="middle" x="76" y="-62.6" font-family="Times,serif" font-size="14.00">SpinnerModule</text>
</g>
<!-- SpinnerModule&#45;&gt;ConfiguratorUpdateMessageModule -->
<g id="edge3" class="edge">
<title>SpinnerModule&#45;&gt;ConfiguratorUpdateMessageModule</title>
<path fill="none" stroke="black" d="M102.46,-84.91C102.46,-84.91 102.46,-103.79 102.46,-103.79"/>
<polygon fill="black" stroke="black" points="98.96,-103.79 102.46,-113.79 105.96,-103.79 98.96,-103.79"/>
</g>
</g>
</svg>
