<?xml version="1.0" encoding="UTF-8" standalone="no"?>
<!DOCTYPE svg PUBLIC "-//W3C//DTD SVG 1.1//EN"
 "http://www.w3.org/Graphics/SVG/1.1/DTD/svg11.dtd">
<!-- Generated by graphviz version 2.40.1 (20161225.0304)
 -->
<!-- Title: dependencies Pages: 1 -->
<svg width="504pt" height="284pt"
 viewBox="0.00 0.00 504.00 284.00" xmlns="http://www.w3.org/2000/svg" xmlns:xlink="http://www.w3.org/1999/xlink">
<g id="graph0" class="graph" transform="scale(1 1) rotate(0) translate(4 280)">
<title>dependencies</title>
<polygon fill="#ffffff" stroke="transparent" points="-4,4 -4,-280 500,-280 500,4 -4,4"/>
<text text-anchor="start" x="227.0091" y="-42.4" font-family="sans-serif" font-weight="bold" font-size="14.00" fill="#000000">Legend</text>
<polygon fill="#ffffb3" stroke="transparent" points="14,-10 14,-30 34,-30 34,-10 14,-10"/>
<text text-anchor="start" x="37.629" y="-15.4" font-family="sans-serif" font-size="14.00" fill="#000000"> &#160;Declarations</text>
<polygon fill="#8dd3c7" stroke="transparent" points="127,-10 127,-30 147,-30 147,-10 127,-10"/>
<text text-anchor="start" x="150.7251" y="-15.4" font-family="sans-serif" font-size="14.00" fill="#000000"> &#160;Module</text>
<polygon fill="#80b1d3" stroke="transparent" points="213,-10 213,-30 233,-30 233,-10 213,-10"/>
<text text-anchor="start" x="236.7812" y="-15.4" font-family="sans-serif" font-size="14.00" fill="#000000"> &#160;Bootstrap</text>
<polygon fill="#fdb462" stroke="transparent" points="310,-10 310,-30 330,-30 330,-10 310,-10"/>
<text text-anchor="start" x="333.6732" y="-15.4" font-family="sans-serif" font-size="14.00" fill="#000000"> &#160;Providers</text>
<polygon fill="#fb8072" stroke="transparent" points="406,-10 406,-30 426,-30 426,-10 406,-10"/>
<text text-anchor="start" x="429.7258" y="-15.4" font-family="sans-serif" font-size="14.00" fill="#000000"> &#160;Exports</text>
<g id="clust1" class="cluster">
<title>cluster_PlaceOrderModule</title>
<polygon fill="none" stroke="#000000" stroke-dasharray="1,5" points="57,-70 57,-268 439,-268 439,-70 57,-70"/>
</g>
<g id="clust2" class="cluster">
<title>cluster_PlaceOrderModule_declarations</title>
<polygon fill="none" stroke="#000000" points="271,-78 271,-130 431,-130 431,-78 271,-78"/>
</g>
<g id="clust4" class="cluster">
<title>cluster_PlaceOrderModule_imports</title>
<polygon fill="none" stroke="#000000" points="65,-78 65,-130 263,-130 263,-78 65,-78"/>
</g>
<g id="clust5" class="cluster">
<title>cluster_PlaceOrderModule_exports</title>
<polygon fill="none" stroke="#000000" points="130,-208 130,-260 294,-260 294,-208 130,-208"/>
</g>
<!-- PlaceOrderComponent -->
<g id="node1" class="node">
<title>PlaceOrderComponent</title>
<polygon fill="#ffffb3" stroke="#000000" points="423.2921,-122 278.7079,-122 278.7079,-86 423.2921,-86 423.2921,-122"/>
<text text-anchor="middle" x="351" y="-99.8" font-family="Times,serif" font-size="14.00" fill="#000000">PlaceOrderComponent</text>
</g>
<!-- PlaceOrderModule -->
<g id="node2" class="node">
<title>PlaceOrderModule</title>
<polygon fill="#8dd3c7" stroke="#000000" points="273.0102,-187 270.0102,-191 249.0102,-191 246.0102,-187 150.9898,-187 150.9898,-151 273.0102,-151 273.0102,-187"/>
<text text-anchor="middle" x="212" y="-164.8" font-family="Times,serif" font-size="14.00" fill="#000000">PlaceOrderModule</text>
</g>
<!-- PlaceOrderComponent&#45;&gt;PlaceOrderModule -->
<g id="edge1" class="edge">
<title>PlaceOrderComponent&#45;&gt;PlaceOrderModule</title>
<path fill="none" stroke="#000000" d="M282.375,-122.1061C282.375,-141.3391 282.375,-169 282.375,-169 282.375,-169 281.455,-169 281.455,-169"/>
<polygon fill="#000000" stroke="#000000" points="283.1747,-165.5001 273.1747,-169 283.1747,-172.5001 283.1747,-165.5001"/>
</g>
<!-- PlaceOrderComponent  -->
<g id="node5" class="node">
<title>PlaceOrderComponent </title>
<polygon fill="#fb8072" stroke="#000000" points="285.7919,-252 138.2081,-252 138.2081,-216 285.7919,-216 285.7919,-252"/>
<text text-anchor="middle" x="212" y="-229.8" font-family="Times,serif" font-size="14.00" fill="#000000">PlaceOrderComponent </text>
</g>
<!-- PlaceOrderModule&#45;&gt;PlaceOrderComponent  -->
<g id="edge4" class="edge">
<title>PlaceOrderModule&#45;&gt;PlaceOrderComponent </title>
<path fill="none" stroke="#000000" stroke-dasharray="5,2" d="M212,-187.1061C212,-187.1061 212,-205.991 212,-205.991"/>
<polygon fill="#000000" stroke="#000000" points="208.5001,-205.9909 212,-215.991 215.5001,-205.991 208.5001,-205.9909"/>
</g>
<!-- I18nModule -->
<g id="node3" class="node">
<title>I18nModule</title>
<polygon fill="#8dd3c7" stroke="#000000" points="254.7107,-122 251.7107,-126 230.7107,-126 227.7107,-122 169.2893,-122 169.2893,-86 254.7107,-86 254.7107,-122"/>
<text text-anchor="middle" x="212" y="-99.8" font-family="Times,serif" font-size="14.00" fill="#000000">I18nModule</text>
</g>
<!-- I18nModule&#45;&gt;PlaceOrderModule -->
<g id="edge2" class="edge">
<title>I18nModule&#45;&gt;PlaceOrderModule</title>
<path fill="none" stroke="#000000" d="M212,-122.1061C212,-122.1061 212,-140.991 212,-140.991"/>
<polygon fill="#000000" stroke="#000000" points="208.5001,-140.9909 212,-150.991 215.5001,-140.991 208.5001,-140.9909"/>
</g>
<!-- UrlModule -->
<g id="node4" class="node">
<title>UrlModule</title>
<polygon fill="#8dd3c7" stroke="#000000" points="151.2079,-122 148.2079,-126 127.2079,-126 124.2079,-122 72.7921,-122 72.7921,-86 151.2079,-86 151.2079,-122"/>
<text text-anchor="middle" x="112" y="-99.8" font-family="Times,serif" font-size="14.00" fill="#000000">UrlModule</text>
</g>
<!-- UrlModule&#45;&gt;PlaceOrderModule -->
<g id="edge3" class="edge">
<title>UrlModule&#45;&gt;PlaceOrderModule</title>
<path fill="none" stroke="#000000" d="M144.4248,-122.1061C144.4248,-141.3391 144.4248,-169 144.4248,-169 144.4248,-169 145.0727,-169 145.0727,-169"/>
<polygon fill="#000000" stroke="#000000" points="140.9042,-172.5002 150.9041,-169 140.9041,-165.5002 140.9042,-172.5002"/>
</g>
</g>
</svg>
