<?xml version="1.0" encoding="UTF-8" standalone="no"?>
<!DOCTYPE svg PUBLIC "-//W3C//DTD SVG 1.1//EN"
 "http://www.w3.org/Graphics/SVG/1.1/DTD/svg11.dtd">
<!-- Generated by graphviz version 2.40.1 (20161225.0304)
 -->
<!-- Title: dependencies Pages: 1 -->
<svg width="548pt" height="284pt"
 viewBox="0.00 0.00 548.00 284.00" xmlns="http://www.w3.org/2000/svg" xmlns:xlink="http://www.w3.org/1999/xlink">
<g id="graph0" class="graph" transform="scale(1 1) rotate(0) translate(4 280)">
<title>dependencies</title>
<polygon fill="#ffffff" stroke="transparent" points="-4,4 -4,-280 544,-280 544,4 -4,4"/>
<text text-anchor="start" x="249.0091" y="-42.4" font-family="sans-serif" font-weight="bold" font-size="14.00" fill="#000000">Legend</text>
<polygon fill="#ffffb3" stroke="transparent" points="36,-10 36,-30 56,-30 56,-10 36,-10"/>
<text text-anchor="start" x="59.629" y="-15.4" font-family="sans-serif" font-size="14.00" fill="#000000"> &#160;Declarations</text>
<polygon fill="#8dd3c7" stroke="transparent" points="149,-10 149,-30 169,-30 169,-10 149,-10"/>
<text text-anchor="start" x="172.7251" y="-15.4" font-family="sans-serif" font-size="14.00" fill="#000000"> &#160;Module</text>
<polygon fill="#80b1d3" stroke="transparent" points="235,-10 235,-30 255,-30 255,-10 235,-10"/>
<text text-anchor="start" x="258.7812" y="-15.4" font-family="sans-serif" font-size="14.00" fill="#000000"> &#160;Bootstrap</text>
<polygon fill="#fdb462" stroke="transparent" points="332,-10 332,-30 352,-30 352,-10 332,-10"/>
<text text-anchor="start" x="355.6732" y="-15.4" font-family="sans-serif" font-size="14.00" fill="#000000"> &#160;Providers</text>
<polygon fill="#fb8072" stroke="transparent" points="428,-10 428,-30 448,-30 448,-10 428,-10"/>
<text text-anchor="start" x="451.7258" y="-15.4" font-family="sans-serif" font-size="14.00" fill="#000000"> &#160;Exports</text>
<g id="clust1" class="cluster">
<title>cluster_PlaceOrderModule</title>
<polygon fill="none" stroke="#000000" stroke-dasharray="1,5" points="8,-70 8,-268 532,-268 532,-70 8,-70"/>
</g>
<g id="clust2" class="cluster">
<title>cluster_PlaceOrderModule_declarations</title>
<polygon fill="none" stroke="#000000" points="364,-78 364,-130 524,-130 524,-78 364,-78"/>
</g>
<g id="clust4" class="cluster">
<title>cluster_PlaceOrderModule_imports</title>
<polygon fill="none" stroke="#000000" points="16,-78 16,-130 356,-130 356,-78 16,-78"/>
</g>
<g id="clust5" class="cluster">
<title>cluster_PlaceOrderModule_exports</title>
<polygon fill="none" stroke="#000000" points="142,-208 142,-260 306,-260 306,-208 142,-208"/>
</g>
<!-- PlaceOrderComponent -->
<g id="node1" class="node">
<title>PlaceOrderComponent</title>
<polygon fill="#ffffb3" stroke="#000000" points="516.2921,-122 371.7079,-122 371.7079,-86 516.2921,-86 516.2921,-122"/>
<text text-anchor="middle" x="444" y="-99.8" font-family="Times,serif" font-size="14.00" fill="#000000">PlaceOrderComponent</text>
</g>
<!-- PlaceOrderModule -->
<g id="node2" class="node">
<title>PlaceOrderModule</title>
<polygon fill="#8dd3c7" stroke="#000000" points="285.0102,-187 282.0102,-191 261.0102,-191 258.0102,-187 162.9898,-187 162.9898,-151 285.0102,-151 285.0102,-187"/>
<text text-anchor="middle" x="224" y="-164.8" font-family="Times,serif" font-size="14.00" fill="#000000">PlaceOrderModule</text>
</g>
<!-- PlaceOrderComponent&#45;&gt;PlaceOrderModule -->
<g id="edge1" class="edge">
<title>PlaceOrderComponent&#45;&gt;PlaceOrderModule</title>
<path fill="none" stroke="#000000" d="M444,-122.1061C444,-141.3391 444,-169 444,-169 444,-169 295.2823,-169 295.2823,-169"/>
<polygon fill="#000000" stroke="#000000" points="295.2823,-165.5001 285.2823,-169 295.2822,-172.5001 295.2823,-165.5001"/>
</g>
<!-- PlaceOrderComponent  -->
<g id="node6" class="node">
<title>PlaceOrderComponent </title>
<polygon fill="#fb8072" stroke="#000000" points="297.7919,-252 150.2081,-252 150.2081,-216 297.7919,-216 297.7919,-252"/>
<text text-anchor="middle" x="224" y="-229.8" font-family="Times,serif" font-size="14.00" fill="#000000">PlaceOrderComponent </text>
</g>
<!-- PlaceOrderModule&#45;&gt;PlaceOrderComponent  -->
<g id="edge5" class="edge">
<title>PlaceOrderModule&#45;&gt;PlaceOrderComponent </title>
<path fill="none" stroke="#000000" stroke-dasharray="5,2" d="M224,-187.1061C224,-187.1061 224,-205.991 224,-205.991"/>
<polygon fill="#000000" stroke="#000000" points="220.5001,-205.9909 224,-215.991 227.5001,-205.991 220.5001,-205.9909"/>
</g>
<!-- FormErrorsModule -->
<g id="node3" class="node">
<title>FormErrorsModule</title>
<polygon fill="#8dd3c7" stroke="#000000" points="348.3627,-122 345.3627,-126 324.3627,-126 321.3627,-122 223.6373,-122 223.6373,-86 348.3627,-86 348.3627,-122"/>
<text text-anchor="middle" x="286" y="-99.8" font-family="Times,serif" font-size="14.00" fill="#000000">FormErrorsModule</text>
</g>
<!-- FormErrorsModule&#45;&gt;PlaceOrderModule -->
<g id="edge2" class="edge">
<title>FormErrorsModule&#45;&gt;PlaceOrderModule</title>
<path fill="none" stroke="#000000" d="M254.4117,-122.1061C254.4117,-122.1061 254.4117,-140.991 254.4117,-140.991"/>
<polygon fill="#000000" stroke="#000000" points="250.9117,-140.9909 254.4117,-150.991 257.9117,-140.991 250.9117,-140.9909"/>
</g>
<!-- I18nModule -->
<g id="node4" class="node">
<title>I18nModule</title>
<polygon fill="#8dd3c7" stroke="#000000" points="205.7107,-122 202.7107,-126 181.7107,-126 178.7107,-122 120.2893,-122 120.2893,-86 205.7107,-86 205.7107,-122"/>
<text text-anchor="middle" x="163" y="-99.8" font-family="Times,serif" font-size="14.00" fill="#000000">I18nModule</text>
</g>
<!-- I18nModule&#45;&gt;PlaceOrderModule -->
<g id="edge3" class="edge">
<title>I18nModule&#45;&gt;PlaceOrderModule</title>
<path fill="none" stroke="#000000" d="M184.1753,-122.1061C184.1753,-122.1061 184.1753,-140.991 184.1753,-140.991"/>
<polygon fill="#000000" stroke="#000000" points="180.6754,-140.9909 184.1753,-150.991 187.6754,-140.991 180.6754,-140.9909"/>
</g>
<!-- UrlModule -->
<g id="node5" class="node">
<title>UrlModule</title>
<polygon fill="#8dd3c7" stroke="#000000" points="102.2079,-122 99.2079,-126 78.2079,-126 75.2079,-122 23.7921,-122 23.7921,-86 102.2079,-86 102.2079,-122"/>
<text text-anchor="middle" x="63" y="-99.8" font-family="Times,serif" font-size="14.00" fill="#000000">UrlModule</text>
</g>
<!-- UrlModule&#45;&gt;PlaceOrderModule -->
<g id="edge4" class="edge">
<title>UrlModule&#45;&gt;PlaceOrderModule</title>
<path fill="none" stroke="#000000" d="M63,-122.1061C63,-141.3391 63,-169 63,-169 63,-169 152.6735,-169 152.6735,-169"/>
<polygon fill="#000000" stroke="#000000" points="152.6736,-172.5001 162.6735,-169 152.6735,-165.5001 152.6736,-172.5001"/>
</g>
</g>
</svg>
