<?xml version="1.0" encoding="UTF-8" standalone="no"?>
<!DOCTYPE svg PUBLIC "-//W3C//DTD SVG 1.1//EN"
 "http://www.w3.org/Graphics/SVG/1.1/DTD/svg11.dtd">
<!-- Generated by graphviz version 2.40.1 (20161225.0304)
 -->
<!-- Title: dependencies Pages: 1 -->
<svg width="522pt" height="284pt"
 viewBox="0.00 0.00 522.00 284.00" xmlns="http://www.w3.org/2000/svg" xmlns:xlink="http://www.w3.org/1999/xlink">
<g id="graph0" class="graph" transform="scale(1 1) rotate(0) translate(4 280)">
<title>dependencies</title>
<polygon fill="#ffffff" stroke="transparent" points="-4,4 -4,-280 518,-280 518,4 -4,4"/>
<text text-anchor="start" x="236.0091" y="-42.4" font-family="sans-serif" font-weight="bold" font-size="14.00" fill="#000000">Legend</text>
<polygon fill="#ffffb3" stroke="transparent" points="23,-10 23,-30 43,-30 43,-10 23,-10"/>
<text text-anchor="start" x="46.629" y="-15.4" font-family="sans-serif" font-size="14.00" fill="#000000"> &#160;Declarations</text>
<polygon fill="#8dd3c7" stroke="transparent" points="136,-10 136,-30 156,-30 156,-10 136,-10"/>
<text text-anchor="start" x="159.7251" y="-15.4" font-family="sans-serif" font-size="14.00" fill="#000000"> &#160;Module</text>
<polygon fill="#80b1d3" stroke="transparent" points="222,-10 222,-30 242,-30 242,-10 222,-10"/>
<text text-anchor="start" x="245.7812" y="-15.4" font-family="sans-serif" font-size="14.00" fill="#000000"> &#160;Bootstrap</text>
<polygon fill="#fdb462" stroke="transparent" points="319,-10 319,-30 339,-30 339,-10 319,-10"/>
<text text-anchor="start" x="342.6732" y="-15.4" font-family="sans-serif" font-size="14.00" fill="#000000"> &#160;Providers</text>
<polygon fill="#fb8072" stroke="transparent" points="415,-10 415,-30 435,-30 435,-10 415,-10"/>
<text text-anchor="start" x="438.7258" y="-15.4" font-family="sans-serif" font-size="14.00" fill="#000000"> &#160;Exports</text>
<g id="clust1" class="cluster">
<title>cluster_PlaceOrderModule</title>
<polygon fill="none" stroke="#000000" stroke-dasharray="1,5" points="8,-70 8,-268 506,-268 506,-70 8,-70"/>
</g>
<g id="clust2" class="cluster">
<title>cluster_PlaceOrderModule_declarations</title>
<polygon fill="none" stroke="#000000" points="338,-78 338,-130 498,-130 498,-78 338,-78"/>
</g>
<g id="clust4" class="cluster">
<title>cluster_PlaceOrderModule_imports</title>
<polygon fill="none" stroke="#000000" points="16,-78 16,-130 330,-130 330,-78 16,-78"/>
</g>
<g id="clust5" class="cluster">
<title>cluster_PlaceOrderModule_exports</title>
<polygon fill="none" stroke="#000000" points="136,-208 136,-260 300,-260 300,-208 136,-208"/>
</g>
<!-- PlaceOrderComponent -->
<g id="node1" class="node">
<title>PlaceOrderComponent</title>
<polygon fill="#ffffb3" stroke="#000000" points="490.2921,-122 345.7079,-122 345.7079,-86 490.2921,-86 490.2921,-122"/>
<text text-anchor="middle" x="418" y="-99.8" font-family="Times,serif" font-size="14.00" fill="#000000">PlaceOrderComponent</text>
</g>
<!-- PlaceOrderModule -->
<g id="node2" class="node">
<title>PlaceOrderModule</title>
<polygon fill="#8dd3c7" stroke="#000000" points="279.0102,-187 276.0102,-191 255.0102,-191 252.0102,-187 156.9898,-187 156.9898,-151 279.0102,-151 279.0102,-187"/>
<text text-anchor="middle" x="218" y="-164.8" font-family="Times,serif" font-size="14.00" fill="#000000">PlaceOrderModule</text>
</g>
<!-- PlaceOrderComponent&#45;&gt;PlaceOrderModule -->
<g id="edge1" class="edge">
<title>PlaceOrderComponent&#45;&gt;PlaceOrderModule</title>
<path fill="none" stroke="#000000" d="M418,-122.1061C418,-141.3391 418,-169 418,-169 418,-169 289.0933,-169 289.0933,-169"/>
<polygon fill="#000000" stroke="#000000" points="289.0934,-165.5001 279.0933,-169 289.0933,-172.5001 289.0934,-165.5001"/>
</g>
<!-- PlaceOrderComponent  -->
<g id="node6" class="node">
<title>PlaceOrderComponent </title>
<polygon fill="#fb8072" stroke="#000000" points="291.7919,-252 144.2081,-252 144.2081,-216 291.7919,-216 291.7919,-252"/>
<text text-anchor="middle" x="218" y="-229.8" font-family="Times,serif" font-size="14.00" fill="#000000">PlaceOrderComponent </text>
</g>
<!-- PlaceOrderModule&#45;&gt;PlaceOrderComponent  -->
<g id="edge5" class="edge">
<title>PlaceOrderModule&#45;&gt;PlaceOrderComponent </title>
<path fill="none" stroke="#000000" stroke-dasharray="5,2" d="M218,-187.1061C218,-187.1061 218,-205.991 218,-205.991"/>
<polygon fill="#000000" stroke="#000000" points="214.5001,-205.9909 218,-215.991 221.5001,-205.991 214.5001,-205.9909"/>
</g>
<!-- ConfigModule -->
<g id="node3" class="node">
<title>ConfigModule</title>
<polygon fill="#8dd3c7" stroke="#000000" points="322.4386,-122 319.4386,-126 298.4386,-126 295.4386,-122 223.5614,-122 223.5614,-86 322.4386,-86 322.4386,-122"/>
<text text-anchor="middle" x="273" y="-99.8" font-family="Times,serif" font-size="14.00" fill="#000000">ConfigModule</text>
</g>
<!-- ConfigModule&#45;&gt;PlaceOrderModule -->
<g id="edge2" class="edge">
<title>ConfigModule&#45;&gt;PlaceOrderModule</title>
<path fill="none" stroke="#000000" d="M251.5179,-122.1061C251.5179,-122.1061 251.5179,-140.991 251.5179,-140.991"/>
<polygon fill="#000000" stroke="#000000" points="248.018,-140.9909 251.5179,-150.991 255.018,-140.991 248.018,-140.9909"/>
</g>
<!-- I18nModule -->
<g id="node4" class="node">
<title>I18nModule</title>
<polygon fill="#8dd3c7" stroke="#000000" points="205.7107,-122 202.7107,-126 181.7107,-126 178.7107,-122 120.2893,-122 120.2893,-86 205.7107,-86 205.7107,-122"/>
<text text-anchor="middle" x="163" y="-99.8" font-family="Times,serif" font-size="14.00" fill="#000000">I18nModule</text>
</g>
<!-- I18nModule&#45;&gt;PlaceOrderModule -->
<g id="edge3" class="edge">
<title>I18nModule&#45;&gt;PlaceOrderModule</title>
<path fill="none" stroke="#000000" d="M181.1753,-122.1061C181.1753,-122.1061 181.1753,-140.991 181.1753,-140.991"/>
<polygon fill="#000000" stroke="#000000" points="177.6754,-140.9909 181.1753,-150.991 184.6754,-140.991 177.6754,-140.9909"/>
</g>
<!-- UrlModule -->
<g id="node5" class="node">
<title>UrlModule</title>
<polygon fill="#8dd3c7" stroke="#000000" points="102.2079,-122 99.2079,-126 78.2079,-126 75.2079,-122 23.7921,-122 23.7921,-86 102.2079,-86 102.2079,-122"/>
<text text-anchor="middle" x="63" y="-99.8" font-family="Times,serif" font-size="14.00" fill="#000000">UrlModule</text>
</g>
<!-- UrlModule&#45;&gt;PlaceOrderModule -->
<g id="edge4" class="edge">
<title>UrlModule&#45;&gt;PlaceOrderModule</title>
<path fill="none" stroke="#000000" d="M63,-122.1061C63,-141.3391 63,-169 63,-169 63,-169 146.7399,-169 146.7399,-169"/>
<polygon fill="#000000" stroke="#000000" points="146.7399,-172.5001 156.7399,-169 146.7399,-165.5001 146.7399,-172.5001"/>
</g>
</g>
</svg>
