<?xml version="1.0" encoding="UTF-8" standalone="no"?>
<!DOCTYPE svg PUBLIC "-//W3C//DTD SVG 1.1//EN"
 "http://www.w3.org/Graphics/SVG/1.1/DTD/svg11.dtd">
<!-- Generated by graphviz version 2.47.3 (20210619.1520)
 -->
<!-- Title: dependencies Pages: 1 -->
<svg width="464pt" height="247pt"
 viewBox="0.00 0.00 464.00 246.80" xmlns="http://www.w3.org/2000/svg" xmlns:xlink="http://www.w3.org/1999/xlink">
<g id="graph0" class="graph" transform="scale(1 1) rotate(0) translate(4 242.8)">
<title>dependencies</title>
<polygon fill="white" stroke="transparent" points="-4,4 -4,-242.8 460,-242.8 460,4 -4,4"/>
<text text-anchor="middle" x="228" y="-8.2" font-family="sans-serif" font-size="14.00">dependencies</text>
<g id="clust1" class="cluster">
<title>cluster_SaveForLaterModule</title>
<polygon fill="none" stroke="black" stroke-dasharray="1,5" points="8,-32.8 8,-230.8 448,-230.8 448,-32.8 8,-32.8"/>
</g>
<g id="clust5" class="cluster">
<title>cluster_SaveForLaterModule_exports</title>
<polygon fill="none" stroke="black" points="100,-170.8 100,-222.8 278,-222.8 278,-170.8 100,-170.8"/>
</g>
<g id="clust2" class="cluster">
<title>cluster_SaveForLaterModule_declarations</title>
<polygon fill="none" stroke="black" points="266,-40.8 266,-92.8 440,-92.8 440,-40.8 266,-40.8"/>
</g>
<g id="clust4" class="cluster">
<title>cluster_SaveForLaterModule_imports</title>
<polygon fill="none" stroke="black" points="16,-40.8 16,-92.8 258,-92.8 258,-40.8 16,-40.8"/>
</g>
<!-- SaveForLaterComponent -->
<g id="node1" class="node">
<title>SaveForLaterComponent</title>
<polygon fill="#ffffb3" stroke="black" points="431.52,-84.8 274.48,-84.8 274.48,-48.8 431.52,-48.8 431.52,-84.8"/>
<text text-anchor="middle" x="353" y="-62.6" font-family="Times,serif" font-size="14.00">SaveForLaterComponent</text>
</g>
<!-- SaveForLaterModule -->
<g id="node2" class="node">
<title>SaveForLaterModule</title>
<polygon fill="#8dd3c7" stroke="black" points="256.74,-149.8 253.74,-153.8 232.74,-153.8 229.74,-149.8 121.26,-149.8 121.26,-113.8 256.74,-113.8 256.74,-149.8"/>
<text text-anchor="middle" x="189" y="-127.6" font-family="Times,serif" font-size="14.00">SaveForLaterModule</text>
</g>
<!-- SaveForLaterComponent&#45;&gt;SaveForLaterModule -->
<g id="edge1" class="edge">
<title>SaveForLaterComponent&#45;&gt;SaveForLaterModule</title>
<path fill="none" stroke="black" d="M353,-84.91C353,-104.14 353,-131.8 353,-131.8 353,-131.8 267.13,-131.8 267.13,-131.8"/>
<polygon fill="black" stroke="black" points="267.13,-128.3 257.13,-131.8 267.13,-135.3 267.13,-128.3"/>
</g>
<!-- SaveForLaterComponent  -->
<g id="node5" class="node">
<title>SaveForLaterComponent </title>
<polygon fill="#fb8072" stroke="black" points="269.52,-214.8 108.48,-214.8 108.48,-178.8 269.52,-178.8 269.52,-214.8"/>
<text text-anchor="middle" x="189" y="-192.6" font-family="Times,serif" font-size="14.00">SaveForLaterComponent </text>
</g>
<!-- SaveForLaterModule&#45;&gt;SaveForLaterComponent  -->
<g id="edge4" class="edge">
<title>SaveForLaterModule&#45;&gt;SaveForLaterComponent </title>
<path fill="none" stroke="black" stroke-dasharray="5,2" d="M189,-149.91C189,-149.91 189,-168.79 189,-168.79"/>
<polygon fill="black" stroke="black" points="185.5,-168.79 189,-178.79 192.5,-168.79 185.5,-168.79"/>
</g>
<!-- CartSharedModule -->
<g id="node3" class="node">
<title>CartSharedModule</title>
<polygon fill="#8dd3c7" stroke="black" points="250.03,-84.8 247.03,-88.8 226.03,-88.8 223.03,-84.8 127.97,-84.8 127.97,-48.8 250.03,-48.8 250.03,-84.8"/>
<text text-anchor="middle" x="189" y="-62.6" font-family="Times,serif" font-size="14.00">CartSharedModule</text>
</g>
<!-- CartSharedModule&#45;&gt;SaveForLaterModule -->
<g id="edge2" class="edge">
<title>CartSharedModule&#45;&gt;SaveForLaterModule</title>
<path fill="none" stroke="black" d="M189,-84.91C189,-84.91 189,-103.79 189,-103.79"/>
<polygon fill="black" stroke="black" points="185.5,-103.79 189,-113.79 192.5,-103.79 185.5,-103.79"/>
</g>
<!-- I18nModule -->
<g id="node4" class="node">
<title>I18nModule</title>
<polygon fill="#8dd3c7" stroke="black" points="109.71,-84.8 106.71,-88.8 85.71,-88.8 82.71,-84.8 24.29,-84.8 24.29,-48.8 109.71,-48.8 109.71,-84.8"/>
<text text-anchor="middle" x="67" y="-62.6" font-family="Times,serif" font-size="14.00">I18nModule</text>
</g>
<!-- I18nModule&#45;&gt;SaveForLaterModule -->
<g id="edge3" class="edge">
<title>I18nModule&#45;&gt;SaveForLaterModule</title>
<path fill="none" stroke="black" d="M66.44,-84.91C66.44,-104.14 66.44,-131.8 66.44,-131.8 66.44,-131.8 110.91,-131.8 110.91,-131.8"/>
<polygon fill="black" stroke="black" points="110.91,-135.3 120.91,-131.8 110.91,-128.3 110.91,-135.3"/>
</g>
</g>
</svg>
