<?xml version="1.0" encoding="UTF-8" standalone="no"?>
<!DOCTYPE svg PUBLIC "-//W3C//DTD SVG 1.1//EN"
 "http://www.w3.org/Graphics/SVG/1.1/DTD/svg11.dtd">
<!-- Generated by graphviz version 2.40.1 (20161225.0304)
 -->
<!-- Title: dependencies Pages: 1 -->
<svg width="504pt" height="284pt"
 viewBox="0.00 0.00 504.00 284.00" xmlns="http://www.w3.org/2000/svg" xmlns:xlink="http://www.w3.org/1999/xlink">
<g id="graph0" class="graph" transform="scale(1 1) rotate(0) translate(4 280)">
<title>dependencies</title>
<polygon fill="#ffffff" stroke="transparent" points="-4,4 -4,-280 500,-280 500,4 -4,4"/>
<text text-anchor="start" x="227.0091" y="-42.4" font-family="sans-serif" font-weight="bold" font-size="14.00" fill="#000000">Legend</text>
<polygon fill="#ffffb3" stroke="transparent" points="14,-10 14,-30 34,-30 34,-10 14,-10"/>
<text text-anchor="start" x="37.629" y="-15.4" font-family="sans-serif" font-size="14.00" fill="#000000"> &#160;Declarations</text>
<polygon fill="#8dd3c7" stroke="transparent" points="127,-10 127,-30 147,-30 147,-10 127,-10"/>
<text text-anchor="start" x="150.7251" y="-15.4" font-family="sans-serif" font-size="14.00" fill="#000000"> &#160;Module</text>
<polygon fill="#80b1d3" stroke="transparent" points="213,-10 213,-30 233,-30 233,-10 213,-10"/>
<text text-anchor="start" x="236.7812" y="-15.4" font-family="sans-serif" font-size="14.00" fill="#000000"> &#160;Bootstrap</text>
<polygon fill="#fdb462" stroke="transparent" points="310,-10 310,-30 330,-30 330,-10 310,-10"/>
<text text-anchor="start" x="333.6732" y="-15.4" font-family="sans-serif" font-size="14.00" fill="#000000"> &#160;Providers</text>
<polygon fill="#fb8072" stroke="transparent" points="406,-10 406,-30 426,-30 426,-10 406,-10"/>
<text text-anchor="start" x="429.7258" y="-15.4" font-family="sans-serif" font-size="14.00" fill="#000000"> &#160;Exports</text>
<g id="clust1" class="cluster">
<title>cluster_SaveForLaterModule</title>
<polygon fill="none" stroke="#000000" stroke-dasharray="1,5" points="28,-70 28,-268 468,-268 468,-70 28,-70"/>
</g>
<g id="clust2" class="cluster">
<title>cluster_SaveForLaterModule_declarations</title>
<polygon fill="none" stroke="#000000" points="286,-78 286,-130 460,-130 460,-78 286,-78"/>
</g>
<g id="clust4" class="cluster">
<title>cluster_SaveForLaterModule_imports</title>
<polygon fill="none" stroke="#000000" points="36,-78 36,-130 278,-130 278,-78 36,-78"/>
</g>
<g id="clust5" class="cluster">
<title>cluster_SaveForLaterModule_exports</title>
<polygon fill="none" stroke="#000000" points="120,-208 120,-260 298,-260 298,-208 120,-208"/>
</g>
<!-- SaveForLaterComponent -->
<g id="node1" class="node">
<title>SaveForLaterComponent</title>
<polygon fill="#ffffb3" stroke="#000000" points="451.5211,-122 294.4789,-122 294.4789,-86 451.5211,-86 451.5211,-122"/>
<text text-anchor="middle" x="373" y="-99.8" font-family="Times,serif" font-size="14.00" fill="#000000">SaveForLaterComponent</text>
</g>
<!-- SaveForLaterModule -->
<g id="node2" class="node">
<title>SaveForLaterModule</title>
<polygon fill="#8dd3c7" stroke="#000000" points="276.7381,-187 273.7381,-191 252.7381,-191 249.7381,-187 141.2619,-187 141.2619,-151 276.7381,-151 276.7381,-187"/>
<text text-anchor="middle" x="209" y="-164.8" font-family="Times,serif" font-size="14.00" fill="#000000">SaveForLaterModule</text>
</g>
<!-- SaveForLaterComponent&#45;&gt;SaveForLaterModule -->
<g id="edge1" class="edge">
<title>SaveForLaterComponent&#45;&gt;SaveForLaterModule</title>
<path fill="none" stroke="#000000" d="M373,-122.1061C373,-141.3391 373,-169 373,-169 373,-169 287.126,-169 287.126,-169"/>
<polygon fill="#000000" stroke="#000000" points="287.126,-165.5001 277.126,-169 287.126,-172.5001 287.126,-165.5001"/>
</g>
<!-- SaveForLaterComponent  -->
<g id="node5" class="node">
<title>SaveForLaterComponent </title>
<polygon fill="#fb8072" stroke="#000000" points="289.5204,-252 128.4796,-252 128.4796,-216 289.5204,-216 289.5204,-252"/>
<text text-anchor="middle" x="209" y="-229.8" font-family="Times,serif" font-size="14.00" fill="#000000">SaveForLaterComponent </text>
</g>
<!-- SaveForLaterModule&#45;&gt;SaveForLaterComponent  -->
<g id="edge4" class="edge">
<title>SaveForLaterModule&#45;&gt;SaveForLaterComponent </title>
<path fill="none" stroke="#000000" stroke-dasharray="5,2" d="M209,-187.1061C209,-187.1061 209,-205.991 209,-205.991"/>
<polygon fill="#000000" stroke="#000000" points="205.5001,-205.9909 209,-215.991 212.5001,-205.991 205.5001,-205.9909"/>
</g>
<!-- CartSharedModule -->
<g id="node3" class="node">
<title>CartSharedModule</title>
<polygon fill="#8dd3c7" stroke="#000000" points="270.0255,-122 267.0255,-126 246.0255,-126 243.0255,-122 147.9745,-122 147.9745,-86 270.0255,-86 270.0255,-122"/>
<text text-anchor="middle" x="209" y="-99.8" font-family="Times,serif" font-size="14.00" fill="#000000">CartSharedModule</text>
</g>
<!-- CartSharedModule&#45;&gt;SaveForLaterModule -->
<g id="edge2" class="edge">
<title>CartSharedModule&#45;&gt;SaveForLaterModule</title>
<path fill="none" stroke="#000000" d="M209,-122.1061C209,-122.1061 209,-140.991 209,-140.991"/>
<polygon fill="#000000" stroke="#000000" points="205.5001,-140.9909 209,-150.991 212.5001,-140.991 205.5001,-140.9909"/>
</g>
<!-- I18nModule -->
<g id="node4" class="node">
<title>I18nModule</title>
<polygon fill="#8dd3c7" stroke="#000000" points="129.7107,-122 126.7107,-126 105.7107,-126 102.7107,-122 44.2893,-122 44.2893,-86 129.7107,-86 129.7107,-122"/>
<text text-anchor="middle" x="87" y="-99.8" font-family="Times,serif" font-size="14.00" fill="#000000">I18nModule</text>
</g>
<!-- I18nModule&#45;&gt;SaveForLaterModule -->
<g id="edge3" class="edge">
<title>I18nModule&#45;&gt;SaveForLaterModule</title>
<path fill="none" stroke="#000000" d="M86.4423,-122.1061C86.4423,-141.3391 86.4423,-169 86.4423,-169 86.4423,-169 130.9116,-169 130.9116,-169"/>
<polygon fill="#000000" stroke="#000000" points="130.9117,-172.5001 140.9116,-169 130.9116,-165.5001 130.9117,-172.5001"/>
</g>
</g>
</svg>
