<?xml version="1.0" encoding="UTF-8" standalone="no"?>
<!DOCTYPE svg PUBLIC "-//W3C//DTD SVG 1.1//EN"
 "http://www.w3.org/Graphics/SVG/1.1/DTD/svg11.dtd">
<!-- Generated by graphviz version 2.40.1 (20161225.0304)
 -->
<!-- Title: dependencies Pages: 1 -->
<svg width="580pt" height="284pt"
 viewBox="0.00 0.00 580.00 284.00" xmlns="http://www.w3.org/2000/svg" xmlns:xlink="http://www.w3.org/1999/xlink">
<g id="graph0" class="graph" transform="scale(1 1) rotate(0) translate(4 280)">
<title>dependencies</title>
<polygon fill="#ffffff" stroke="transparent" points="-4,4 -4,-280 576,-280 576,4 -4,4"/>
<text text-anchor="start" x="265.0091" y="-42.4" font-family="sans-serif" font-weight="bold" font-size="14.00" fill="#000000">Legend</text>
<polygon fill="#ffffb3" stroke="transparent" points="52,-10 52,-30 72,-30 72,-10 52,-10"/>
<text text-anchor="start" x="75.629" y="-15.4" font-family="sans-serif" font-size="14.00" fill="#000000"> &#160;Declarations</text>
<polygon fill="#8dd3c7" stroke="transparent" points="165,-10 165,-30 185,-30 185,-10 165,-10"/>
<text text-anchor="start" x="188.7251" y="-15.4" font-family="sans-serif" font-size="14.00" fill="#000000"> &#160;Module</text>
<polygon fill="#80b1d3" stroke="transparent" points="251,-10 251,-30 271,-30 271,-10 251,-10"/>
<text text-anchor="start" x="274.7812" y="-15.4" font-family="sans-serif" font-size="14.00" fill="#000000"> &#160;Bootstrap</text>
<polygon fill="#fdb462" stroke="transparent" points="348,-10 348,-30 368,-30 368,-10 348,-10"/>
<text text-anchor="start" x="371.6732" y="-15.4" font-family="sans-serif" font-size="14.00" fill="#000000"> &#160;Providers</text>
<polygon fill="#fb8072" stroke="transparent" points="444,-10 444,-30 464,-30 464,-10 444,-10"/>
<text text-anchor="start" x="467.7258" y="-15.4" font-family="sans-serif" font-size="14.00" fill="#000000"> &#160;Exports</text>
<g id="clust1" class="cluster">
<title>cluster_SaveForLaterModule</title>
<polygon fill="none" stroke="#000000" stroke-dasharray="1,5" points="8,-70 8,-268 564,-268 564,-70 8,-70"/>
</g>
<g id="clust2" class="cluster">
<title>cluster_SaveForLaterModule_declarations</title>
<polygon fill="none" stroke="#000000" points="382,-78 382,-130 556,-130 556,-78 382,-78"/>
</g>
<g id="clust4" class="cluster">
<title>cluster_SaveForLaterModule_imports</title>
<polygon fill="none" stroke="#000000" points="16,-78 16,-130 374,-130 374,-78 16,-78"/>
</g>
<g id="clust5" class="cluster">
<title>cluster_SaveForLaterModule_exports</title>
<polygon fill="none" stroke="#000000" points="152,-208 152,-260 330,-260 330,-208 152,-208"/>
</g>
<!-- SaveForLaterComponent -->
<g id="node1" class="node">
<title>SaveForLaterComponent</title>
<polygon fill="#ffffb3" stroke="#000000" points="547.5211,-122 390.4789,-122 390.4789,-86 547.5211,-86 547.5211,-122"/>
<text text-anchor="middle" x="469" y="-99.8" font-family="Times,serif" font-size="14.00" fill="#000000">SaveForLaterComponent</text>
</g>
<!-- SaveForLaterModule -->
<g id="node2" class="node">
<title>SaveForLaterModule</title>
<polygon fill="#8dd3c7" stroke="#000000" points="308.7381,-187 305.7381,-191 284.7381,-191 281.7381,-187 173.2619,-187 173.2619,-151 308.7381,-151 308.7381,-187"/>
<text text-anchor="middle" x="241" y="-164.8" font-family="Times,serif" font-size="14.00" fill="#000000">SaveForLaterModule</text>
</g>
<!-- SaveForLaterComponent&#45;&gt;SaveForLaterModule -->
<g id="edge1" class="edge">
<title>SaveForLaterComponent&#45;&gt;SaveForLaterModule</title>
<path fill="none" stroke="#000000" d="M469,-122.1061C469,-141.3391 469,-169 469,-169 469,-169 318.7902,-169 318.7902,-169"/>
<polygon fill="#000000" stroke="#000000" points="318.7902,-165.5001 308.7902,-169 318.7902,-172.5001 318.7902,-165.5001"/>
</g>
<!-- SaveForLaterComponent  -->
<g id="node6" class="node">
<title>SaveForLaterComponent </title>
<polygon fill="#fb8072" stroke="#000000" points="321.5204,-252 160.4796,-252 160.4796,-216 321.5204,-216 321.5204,-252"/>
<text text-anchor="middle" x="241" y="-229.8" font-family="Times,serif" font-size="14.00" fill="#000000">SaveForLaterComponent </text>
</g>
<!-- SaveForLaterModule&#45;&gt;SaveForLaterComponent  -->
<g id="edge5" class="edge">
<title>SaveForLaterModule&#45;&gt;SaveForLaterComponent </title>
<path fill="none" stroke="#000000" stroke-dasharray="5,2" d="M241,-187.1061C241,-187.1061 241,-205.991 241,-205.991"/>
<polygon fill="#000000" stroke="#000000" points="237.5001,-205.9909 241,-215.991 244.5001,-205.991 237.5001,-205.9909"/>
</g>
<!-- CartSharedModule -->
<g id="node3" class="node">
<title>CartSharedModule</title>
<polygon fill="#8dd3c7" stroke="#000000" points="366.0255,-122 363.0255,-126 342.0255,-126 339.0255,-122 243.9745,-122 243.9745,-86 366.0255,-86 366.0255,-122"/>
<text text-anchor="middle" x="305" y="-99.8" font-family="Times,serif" font-size="14.00" fill="#000000">CartSharedModule</text>
</g>
<!-- CartSharedModule&#45;&gt;SaveForLaterModule -->
<g id="edge2" class="edge">
<title>CartSharedModule&#45;&gt;SaveForLaterModule</title>
<path fill="none" stroke="#000000" d="M276.3033,-122.1061C276.3033,-122.1061 276.3033,-140.991 276.3033,-140.991"/>
<polygon fill="#000000" stroke="#000000" points="272.8034,-140.9909 276.3033,-150.991 279.8034,-140.991 272.8034,-140.9909"/>
</g>
<!-- ConfigModule -->
<g id="node4" class="node">
<title>ConfigModule</title>
<polygon fill="#8dd3c7" stroke="#000000" points="226.4386,-122 223.4386,-126 202.4386,-126 199.4386,-122 127.5614,-122 127.5614,-86 226.4386,-86 226.4386,-122"/>
<text text-anchor="middle" x="177" y="-99.8" font-family="Times,serif" font-size="14.00" fill="#000000">ConfigModule</text>
</g>
<!-- ConfigModule&#45;&gt;SaveForLaterModule -->
<g id="edge3" class="edge">
<title>ConfigModule&#45;&gt;SaveForLaterModule</title>
<path fill="none" stroke="#000000" d="M199.675,-122.1061C199.675,-122.1061 199.675,-140.991 199.675,-140.991"/>
<polygon fill="#000000" stroke="#000000" points="196.175,-140.9909 199.675,-150.991 203.175,-140.991 196.175,-140.9909"/>
</g>
<!-- I18nModule -->
<g id="node5" class="node">
<title>I18nModule</title>
<polygon fill="#8dd3c7" stroke="#000000" points="109.7107,-122 106.7107,-126 85.7107,-126 82.7107,-122 24.2893,-122 24.2893,-86 109.7107,-86 109.7107,-122"/>
<text text-anchor="middle" x="67" y="-99.8" font-family="Times,serif" font-size="14.00" fill="#000000">I18nModule</text>
</g>
<!-- I18nModule&#45;&gt;SaveForLaterModule -->
<g id="edge4" class="edge">
<title>I18nModule&#45;&gt;SaveForLaterModule</title>
<path fill="none" stroke="#000000" d="M67,-122.1061C67,-141.3391 67,-169 67,-169 67,-169 163.2288,-169 163.2288,-169"/>
<polygon fill="#000000" stroke="#000000" points="163.2289,-172.5001 173.2288,-169 163.2288,-165.5001 163.2289,-172.5001"/>
</g>
</g>
</svg>
