<?xml version="1.0" encoding="UTF-8" standalone="no"?>
<!DOCTYPE svg PUBLIC "-//W3C//DTD SVG 1.1//EN"
 "http://www.w3.org/Graphics/SVG/1.1/DTD/svg11.dtd">
<!-- Generated by graphviz version 2.47.0 (20210316.0004)
 -->
<!-- Title: dependencies Pages: 1 -->
<svg width="504pt" height="284pt"
 viewBox="0.00 0.00 504.00 284.00" xmlns="http://www.w3.org/2000/svg" xmlns:xlink="http://www.w3.org/1999/xlink">
<g id="graph0" class="graph" transform="scale(1 1) rotate(0) translate(4 280)">
<title>dependencies</title>
<polygon fill="white" stroke="transparent" points="-4,4 -4,-280 500,-280 500,4 -4,4"/>
<text text-anchor="start" x="227.01" y="-42.4" font-family="sans-serif" font-weight="bold" font-size="14.00">Legend</text>
<polygon fill="#ffffb3" stroke="transparent" points="14,-10 14,-30 34,-30 34,-10 14,-10"/>
<text text-anchor="start" x="37.63" y="-15.4" font-family="sans-serif" font-size="14.00"> &#160;Declarations</text>
<polygon fill="#8dd3c7" stroke="transparent" points="127,-10 127,-30 147,-30 147,-10 127,-10"/>
<text text-anchor="start" x="150.73" y="-15.4" font-family="sans-serif" font-size="14.00"> &#160;Module</text>
<polygon fill="#80b1d3" stroke="transparent" points="213,-10 213,-30 233,-30 233,-10 213,-10"/>
<text text-anchor="start" x="236.78" y="-15.4" font-family="sans-serif" font-size="14.00"> &#160;Bootstrap</text>
<polygon fill="#fdb462" stroke="transparent" points="310,-10 310,-30 330,-30 330,-10 310,-10"/>
<text text-anchor="start" x="333.67" y="-15.4" font-family="sans-serif" font-size="14.00"> &#160;Providers</text>
<polygon fill="#fb8072" stroke="transparent" points="406,-10 406,-30 426,-30 426,-10 406,-10"/>
<text text-anchor="start" x="429.73" y="-15.4" font-family="sans-serif" font-size="14.00"> &#160;Exports</text>
<g id="clust1" class="cluster">
<title>cluster_SaveForLaterModule</title>
<polygon fill="none" stroke="black" stroke-dasharray="1,5" points="28,-70 28,-268 468,-268 468,-70 28,-70"/>
</g>
<g id="clust4" class="cluster">
<title>cluster_SaveForLaterModule_imports</title>
<polygon fill="none" stroke="black" points="218,-78 218,-130 460,-130 460,-78 218,-78"/>
</g>
<g id="clust2" class="cluster">
<title>cluster_SaveForLaterModule_declarations</title>
<polygon fill="none" stroke="black" points="36,-78 36,-130 210,-130 210,-78 36,-78"/>
</g>
<g id="clust5" class="cluster">
<title>cluster_SaveForLaterModule_exports</title>
<polygon fill="none" stroke="black" points="180,-208 180,-260 358,-260 358,-208 180,-208"/>
</g>
<!-- SaveForLaterComponent -->
<g id="node1" class="node">
<title>SaveForLaterComponent</title>
<polygon fill="#ffffb3" stroke="black" points="201.52,-122 44.48,-122 44.48,-86 201.52,-86 201.52,-122"/>
<text text-anchor="middle" x="123" y="-99.8" font-family="Times,serif" font-size="14.00">SaveForLaterComponent</text>
</g>
<!-- SaveForLaterModule -->
<g id="node2" class="node">
<title>SaveForLaterModule</title>
<polygon fill="#8dd3c7" stroke="black" points="336.74,-187 333.74,-191 312.74,-191 309.74,-187 201.26,-187 201.26,-151 336.74,-151 336.74,-187"/>
<text text-anchor="middle" x="269" y="-164.8" font-family="Times,serif" font-size="14.00">SaveForLaterModule</text>
</g>
<!-- SaveForLaterComponent&#45;&gt;SaveForLaterModule -->
<g id="edge1" class="edge">
<title>SaveForLaterComponent&#45;&gt;SaveForLaterModule</title>
<path fill="none" stroke="black" d="M194.81,-122.11C194.81,-141.34 194.81,-169 194.81,-169 194.81,-169 195.44,-169 195.44,-169"/>
<polygon fill="black" stroke="black" points="191.14,-172.5 201.14,-169 191.14,-165.5 191.14,-172.5"/>
</g>
<!-- SaveForLaterComponent  -->
<g id="node5" class="node">
<title>SaveForLaterComponent </title>
<polygon fill="#fb8072" stroke="black" points="349.52,-252 188.48,-252 188.48,-216 349.52,-216 349.52,-252"/>
<text text-anchor="middle" x="269" y="-229.8" font-family="Times,serif" font-size="14.00">SaveForLaterComponent </text>
</g>
<!-- SaveForLaterModule&#45;&gt;SaveForLaterComponent  -->
<g id="edge4" class="edge">
<title>SaveForLaterModule&#45;&gt;SaveForLaterComponent </title>
<path fill="none" stroke="black" stroke-dasharray="5,2" d="M269,-187.11C269,-187.11 269,-205.99 269,-205.99"/>
<polygon fill="black" stroke="black" points="265.5,-205.99 269,-215.99 272.5,-205.99 265.5,-205.99"/>
</g>
<!-- CartSharedModule -->
<g id="node3" class="node">
<title>CartSharedModule</title>
<polygon fill="#8dd3c7" stroke="black" points="452.03,-122 449.03,-126 428.03,-126 425.03,-122 329.97,-122 329.97,-86 452.03,-86 452.03,-122"/>
<text text-anchor="middle" x="391" y="-99.8" font-family="Times,serif" font-size="14.00">CartSharedModule</text>
</g>
<!-- CartSharedModule&#45;&gt;SaveForLaterModule -->
<g id="edge2" class="edge">
<title>CartSharedModule&#45;&gt;SaveForLaterModule</title>
<path fill="none" stroke="black" d="M333.3,-122.11C333.3,-122.11 333.3,-140.99 333.3,-140.99"/>
<polygon fill="black" stroke="black" points="329.8,-140.99 333.3,-150.99 336.8,-140.99 329.8,-140.99"/>
</g>
<!-- I18nModule -->
<g id="node4" class="node">
<title>I18nModule</title>
<polygon fill="#8dd3c7" stroke="black" points="311.71,-122 308.71,-126 287.71,-126 284.71,-122 226.29,-122 226.29,-86 311.71,-86 311.71,-122"/>
<text text-anchor="middle" x="269" y="-99.8" font-family="Times,serif" font-size="14.00">I18nModule</text>
</g>
<!-- I18nModule&#45;&gt;SaveForLaterModule -->
<g id="edge3" class="edge">
<title>I18nModule&#45;&gt;SaveForLaterModule</title>
<path fill="none" stroke="black" d="M269,-122.11C269,-122.11 269,-140.99 269,-140.99"/>
<polygon fill="black" stroke="black" points="265.5,-140.99 269,-150.99 272.5,-140.99 265.5,-140.99"/>
</g>
</g>
</svg>
