<?xml version="1.0" encoding="UTF-8" standalone="no"?>
<!DOCTYPE svg PUBLIC "-//W3C//DTD SVG 1.1//EN"
 "http://www.w3.org/Graphics/SVG/1.1/DTD/svg11.dtd">
<!-- Generated by graphviz version 2.47.3 (20210619.1520)
 -->
<!-- Title: dependencies Pages: 1 -->
<svg width="464pt" height="247pt"
 viewBox="0.00 0.00 464.00 246.80" xmlns="http://www.w3.org/2000/svg" xmlns:xlink="http://www.w3.org/1999/xlink">
<g id="graph0" class="graph" transform="scale(1 1) rotate(0) translate(4 242.8)">
<title>dependencies</title>
<polygon fill="white" stroke="transparent" points="-4,4 -4,-242.8 460,-242.8 460,4 -4,4"/>
<text text-anchor="middle" x="228" y="-8.2" font-family="sans-serif" font-size="14.00">dependencies</text>
<g id="clust1" class="cluster">
<title>cluster_SaveForLaterModule</title>
<polygon fill="none" stroke="black" stroke-dasharray="1,5" points="8,-32.8 8,-230.8 448,-230.8 448,-32.8 8,-32.8"/>
</g>
<g id="clust4" class="cluster">
<title>cluster_SaveForLaterModule_imports</title>
<polygon fill="none" stroke="black" points="198,-40.8 198,-92.8 440,-92.8 440,-40.8 198,-40.8"/>
</g>
<g id="clust2" class="cluster">
<title>cluster_SaveForLaterModule_declarations</title>
<polygon fill="none" stroke="black" points="16,-40.8 16,-92.8 190,-92.8 190,-40.8 16,-40.8"/>
</g>
<g id="clust5" class="cluster">
<title>cluster_SaveForLaterModule_exports</title>
<polygon fill="none" stroke="black" points="160,-170.8 160,-222.8 338,-222.8 338,-170.8 160,-170.8"/>
</g>
<!-- SaveForLaterComponent -->
<g id="node1" class="node">
<title>SaveForLaterComponent</title>
<polygon fill="#ffffb3" stroke="black" points="181.52,-84.8 24.48,-84.8 24.48,-48.8 181.52,-48.8 181.52,-84.8"/>
<text text-anchor="middle" x="103" y="-62.6" font-family="Times,serif" font-size="14.00">SaveForLaterComponent</text>
</g>
<!-- SaveForLaterModule -->
<g id="node2" class="node">
<title>SaveForLaterModule</title>
<polygon fill="#8dd3c7" stroke="black" points="316.74,-149.8 313.74,-153.8 292.74,-153.8 289.74,-149.8 181.26,-149.8 181.26,-113.8 316.74,-113.8 316.74,-149.8"/>
<text text-anchor="middle" x="249" y="-127.6" font-family="Times,serif" font-size="14.00">SaveForLaterModule</text>
</g>
<!-- SaveForLaterComponent&#45;&gt;SaveForLaterModule -->
<g id="edge1" class="edge">
<title>SaveForLaterComponent&#45;&gt;SaveForLaterModule</title>
<path fill="none" stroke="black" d="M174.81,-84.91C174.81,-104.14 174.81,-131.8 174.81,-131.8 174.81,-131.8 175.44,-131.8 175.44,-131.8"/>
<polygon fill="black" stroke="black" points="171.14,-135.3 181.14,-131.8 171.14,-128.3 171.14,-135.3"/>
</g>
<!-- SaveForLaterComponent  -->
<g id="node5" class="node">
<title>SaveForLaterComponent </title>
<polygon fill="#fb8072" stroke="black" points="329.52,-214.8 168.48,-214.8 168.48,-178.8 329.52,-178.8 329.52,-214.8"/>
<text text-anchor="middle" x="249" y="-192.6" font-family="Times,serif" font-size="14.00">SaveForLaterComponent </text>
</g>
<!-- SaveForLaterModule&#45;&gt;SaveForLaterComponent  -->
<g id="edge4" class="edge">
<title>SaveForLaterModule&#45;&gt;SaveForLaterComponent </title>
<path fill="none" stroke="black" stroke-dasharray="5,2" d="M249,-149.91C249,-149.91 249,-168.79 249,-168.79"/>
<polygon fill="black" stroke="black" points="245.5,-168.79 249,-178.79 252.5,-168.79 245.5,-168.79"/>
</g>
<!-- CartSharedModule -->
<g id="node3" class="node">
<title>CartSharedModule</title>
<polygon fill="#8dd3c7" stroke="black" points="432.03,-84.8 429.03,-88.8 408.03,-88.8 405.03,-84.8 309.97,-84.8 309.97,-48.8 432.03,-48.8 432.03,-84.8"/>
<text text-anchor="middle" x="371" y="-62.6" font-family="Times,serif" font-size="14.00">CartSharedModule</text>
</g>
<!-- CartSharedModule&#45;&gt;SaveForLaterModule -->
<g id="edge2" class="edge">
<title>CartSharedModule&#45;&gt;SaveForLaterModule</title>
<path fill="none" stroke="black" d="M313.3,-84.91C313.3,-84.91 313.3,-103.79 313.3,-103.79"/>
<polygon fill="black" stroke="black" points="309.8,-103.79 313.3,-113.79 316.8,-103.79 309.8,-103.79"/>
</g>
<!-- I18nModule -->
<g id="node4" class="node">
<title>I18nModule</title>
<polygon fill="#8dd3c7" stroke="black" points="291.71,-84.8 288.71,-88.8 267.71,-88.8 264.71,-84.8 206.29,-84.8 206.29,-48.8 291.71,-48.8 291.71,-84.8"/>
<text text-anchor="middle" x="249" y="-62.6" font-family="Times,serif" font-size="14.00">I18nModule</text>
</g>
<!-- I18nModule&#45;&gt;SaveForLaterModule -->
<g id="edge3" class="edge">
<title>I18nModule&#45;&gt;SaveForLaterModule</title>
<path fill="none" stroke="black" d="M249,-84.91C249,-84.91 249,-103.79 249,-103.79"/>
<polygon fill="black" stroke="black" points="245.5,-103.79 249,-113.79 252.5,-103.79 245.5,-103.79"/>
</g>
</g>
</svg>
