<?xml version="1.0" encoding="UTF-8" standalone="no"?>
<!DOCTYPE svg PUBLIC "-//W3C//DTD SVG 1.1//EN"
 "http://www.w3.org/Graphics/SVG/1.1/DTD/svg11.dtd">
<!-- Generated by graphviz version 2.40.1 (20161225.0304)
 -->
<!-- Title: dependencies Pages: 1 -->
<svg width="2185pt" height="284pt"
 viewBox="0.00 0.00 2185.00 284.00" xmlns="http://www.w3.org/2000/svg" xmlns:xlink="http://www.w3.org/1999/xlink">
<g id="graph0" class="graph" transform="scale(1 1) rotate(0) translate(4 280)">
<title>dependencies</title>
<polygon fill="#ffffff" stroke="transparent" points="-4,4 -4,-280 2181,-280 2181,4 -4,4"/>
<text text-anchor="start" x="1067.5091" y="-42.4" font-family="sans-serif" font-weight="bold" font-size="14.00" fill="#000000">Legend</text>
<polygon fill="#ffffb3" stroke="transparent" points="854.5,-10 854.5,-30 874.5,-30 874.5,-10 854.5,-10"/>
<text text-anchor="start" x="878.129" y="-15.4" font-family="sans-serif" font-size="14.00" fill="#000000"> &#160;Declarations</text>
<polygon fill="#8dd3c7" stroke="transparent" points="967.5,-10 967.5,-30 987.5,-30 987.5,-10 967.5,-10"/>
<text text-anchor="start" x="991.2251" y="-15.4" font-family="sans-serif" font-size="14.00" fill="#000000"> &#160;Module</text>
<polygon fill="#80b1d3" stroke="transparent" points="1053.5,-10 1053.5,-30 1073.5,-30 1073.5,-10 1053.5,-10"/>
<text text-anchor="start" x="1077.2812" y="-15.4" font-family="sans-serif" font-size="14.00" fill="#000000"> &#160;Bootstrap</text>
<polygon fill="#fdb462" stroke="transparent" points="1150.5,-10 1150.5,-30 1170.5,-30 1170.5,-10 1150.5,-10"/>
<text text-anchor="start" x="1174.1732" y="-15.4" font-family="sans-serif" font-size="14.00" fill="#000000"> &#160;Providers</text>
<polygon fill="#fb8072" stroke="transparent" points="1246.5,-10 1246.5,-30 1266.5,-30 1266.5,-10 1246.5,-10"/>
<text text-anchor="start" x="1270.2258" y="-15.4" font-family="sans-serif" font-size="14.00" fill="#000000"> &#160;Exports</text>
<g id="clust1" class="cluster">
<title>cluster_OrderConfirmationModule</title>
<polygon fill="none" stroke="#000000" stroke-dasharray="1,5" points="8,-70 8,-268 2169,-268 2169,-70 8,-70"/>
</g>
<g id="clust2" class="cluster">
<title>cluster_OrderConfirmationModule_declarations</title>
<polygon fill="none" stroke="#000000" points="895,-78 895,-130 2161,-130 2161,-78 895,-78"/>
</g>
<g id="clust8" class="cluster">
<title>cluster_OrderConfirmationModule_imports</title>
<polygon fill="none" stroke="#000000" points="16,-78 16,-130 887,-130 887,-78 16,-78"/>
</g>
<g id="clust9" class="cluster">
<title>cluster_OrderConfirmationModule_exports</title>
<polygon fill="none" stroke="#000000" points="77,-208 77,-260 1361,-260 1361,-208 77,-208"/>
</g>
<!-- GuestRegisterFormComponent -->
<g id="node1" class="node">
<title>GuestRegisterFormComponent</title>
<polygon fill="#ffffb3" stroke="#000000" points="2153.4748,-122 1962.5252,-122 1962.5252,-86 2153.4748,-86 2153.4748,-122"/>
<text text-anchor="middle" x="2058" y="-99.8" font-family="Times,serif" font-size="14.00" fill="#000000">GuestRegisterFormComponent</text>
</g>
<!-- OrderConfirmationModule -->
<g id="node6" class="node">
<title>OrderConfirmationModule</title>
<polygon fill="#8dd3c7" stroke="#000000" points="858.6274,-187 855.6274,-191 834.6274,-191 831.6274,-187 691.3726,-187 691.3726,-151 858.6274,-151 858.6274,-187"/>
<text text-anchor="middle" x="775" y="-164.8" font-family="Times,serif" font-size="14.00" fill="#000000">OrderConfirmationModule</text>
</g>
<!-- GuestRegisterFormComponent&#45;&gt;OrderConfirmationModule -->
<g id="edge1" class="edge">
<title>GuestRegisterFormComponent&#45;&gt;OrderConfirmationModule</title>
<path fill="none" stroke="#000000" d="M2058,-122.0267C2058,-142.7672 2058,-174 2058,-174 2058,-174 868.6863,-174 868.6863,-174"/>
<polygon fill="#000000" stroke="#000000" points="868.6863,-170.5001 858.6863,-174 868.6863,-177.5001 868.6863,-170.5001"/>
</g>
<!-- OrderConfirmationItemsComponent -->
<g id="node2" class="node">
<title>OrderConfirmationItemsComponent</title>
<polygon fill="#ffffb3" stroke="#000000" points="1944.0111,-122 1723.9889,-122 1723.9889,-86 1944.0111,-86 1944.0111,-122"/>
<text text-anchor="middle" x="1834" y="-99.8" font-family="Times,serif" font-size="14.00" fill="#000000">OrderConfirmationItemsComponent</text>
</g>
<!-- OrderConfirmationItemsComponent&#45;&gt;OrderConfirmationModule -->
<g id="edge2" class="edge">
<title>OrderConfirmationItemsComponent&#45;&gt;OrderConfirmationModule</title>
<path fill="none" stroke="#000000" d="M1834,-122.1061C1834,-141.3391 1834,-169 1834,-169 1834,-169 868.9831,-169 868.9831,-169"/>
<polygon fill="#000000" stroke="#000000" points="868.9832,-165.5001 858.9831,-169 868.9831,-172.5001 868.9832,-165.5001"/>
</g>
<!-- OrderConfirmationOverviewComponent -->
<g id="node3" class="node">
<title>OrderConfirmationOverviewComponent</title>
<polygon fill="#ffffb3" stroke="#000000" points="1705.1035,-122 1460.8965,-122 1460.8965,-86 1705.1035,-86 1705.1035,-122"/>
<text text-anchor="middle" x="1583" y="-99.8" font-family="Times,serif" font-size="14.00" fill="#000000">OrderConfirmationOverviewComponent</text>
</g>
<!-- OrderConfirmationOverviewComponent&#45;&gt;OrderConfirmationModule -->
<g id="edge3" class="edge">
<title>OrderConfirmationOverviewComponent&#45;&gt;OrderConfirmationModule</title>
<path fill="none" stroke="#000000" d="M1583,-122.302C1583,-140.2699 1583,-165 1583,-165 1583,-165 868.8049,-165 868.8049,-165"/>
<polygon fill="#000000" stroke="#000000" points="868.8049,-161.5001 858.8049,-165 868.8048,-168.5001 868.8049,-161.5001"/>
</g>
<!-- OrderConfirmationThankYouMessageComponent -->
<g id="node4" class="node">
<title>OrderConfirmationThankYouMessageComponent</title>
<polygon fill="#ffffb3" stroke="#000000" points="1443.2611,-122 1144.7389,-122 1144.7389,-86 1443.2611,-86 1443.2611,-122"/>
<text text-anchor="middle" x="1294" y="-99.8" font-family="Times,serif" font-size="14.00" fill="#000000">OrderConfirmationThankYouMessageComponent</text>
</g>
<!-- OrderConfirmationThankYouMessageComponent&#45;&gt;OrderConfirmationModule -->
<g id="edge4" class="edge">
<title>OrderConfirmationThankYouMessageComponent&#45;&gt;OrderConfirmationModule</title>
<path fill="none" stroke="#000000" d="M1151.816,-122.027C1151.816,-138.3976 1151.816,-160 1151.816,-160 1151.816,-160 868.6277,-160 868.6277,-160"/>
<polygon fill="#000000" stroke="#000000" points="868.6277,-156.5001 858.6277,-160 868.6277,-163.5001 868.6277,-156.5001"/>
</g>
<!-- OrderConfirmationTotalsComponent -->
<g id="node5" class="node">
<title>OrderConfirmationTotalsComponent</title>
<polygon fill="#ffffb3" stroke="#000000" points="1127.403,-122 902.597,-122 902.597,-86 1127.403,-86 1127.403,-122"/>
<text text-anchor="middle" x="1015" y="-99.8" font-family="Times,serif" font-size="14.00" fill="#000000">OrderConfirmationTotalsComponent</text>
</g>
<!-- OrderConfirmationTotalsComponent&#45;&gt;OrderConfirmationModule -->
<g id="edge5" class="edge">
<title>OrderConfirmationTotalsComponent&#45;&gt;OrderConfirmationModule</title>
<path fill="none" stroke="#000000" d="M909.8967,-122.1871C909.8967,-137.1824 909.8967,-156 909.8967,-156 909.8967,-156 868.898,-156 868.898,-156"/>
<polygon fill="#000000" stroke="#000000" points="868.8981,-152.5001 858.898,-156 868.898,-159.5001 868.8981,-152.5001"/>
</g>
<!-- GuestRegisterFormComponent  -->
<g id="node14" class="node">
<title>GuestRegisterFormComponent </title>
<polygon fill="#fb8072" stroke="#000000" points="1353.4754,-252 1158.5246,-252 1158.5246,-216 1353.4754,-216 1353.4754,-252"/>
<text text-anchor="middle" x="1256" y="-229.8" font-family="Times,serif" font-size="14.00" fill="#000000">GuestRegisterFormComponent </text>
</g>
<!-- OrderConfirmationModule&#45;&gt;GuestRegisterFormComponent  -->
<g id="edge13" class="edge">
<title>OrderConfirmationModule&#45;&gt;GuestRegisterFormComponent </title>
<path fill="none" stroke="#000000" stroke-dasharray="5,2" d="M858.7838,-178C996.5935,-178 1256,-178 1256,-178 1256,-178 1256,-205.973 1256,-205.973"/>
<polygon fill="#000000" stroke="#000000" points="1252.5001,-205.973 1256,-215.973 1259.5001,-205.973 1252.5001,-205.973"/>
</g>
<!-- OrderConfirmationItemsComponent  -->
<g id="node15" class="node">
<title>OrderConfirmationItemsComponent </title>
<polygon fill="#fb8072" stroke="#000000" points="1141.0106,-252 916.9894,-252 916.9894,-216 1141.0106,-216 1141.0106,-252"/>
<text text-anchor="middle" x="1029" y="-229.8" font-family="Times,serif" font-size="14.00" fill="#000000">OrderConfirmationItemsComponent </text>
</g>
<!-- OrderConfirmationModule&#45;&gt;OrderConfirmationItemsComponent  -->
<g id="edge14" class="edge">
<title>OrderConfirmationModule&#45;&gt;OrderConfirmationItemsComponent </title>
<path fill="none" stroke="#000000" stroke-dasharray="5,2" d="M858.6561,-183C930.3411,-183 1022.098,-183 1022.098,-183 1022.098,-183 1022.098,-205.8757 1022.098,-205.8757"/>
<polygon fill="#000000" stroke="#000000" points="1018.5981,-205.8757 1022.098,-215.8757 1025.5981,-205.8757 1018.5981,-205.8757"/>
</g>
<!-- OrderConfirmationOverviewComponent  -->
<g id="node16" class="node">
<title>OrderConfirmationOverviewComponent </title>
<polygon fill="#fb8072" stroke="#000000" points="899.1032,-252 650.8968,-252 650.8968,-216 899.1032,-216 899.1032,-252"/>
<text text-anchor="middle" x="775" y="-229.8" font-family="Times,serif" font-size="14.00" fill="#000000">OrderConfirmationOverviewComponent </text>
</g>
<!-- OrderConfirmationModule&#45;&gt;OrderConfirmationOverviewComponent  -->
<g id="edge15" class="edge">
<title>OrderConfirmationModule&#45;&gt;OrderConfirmationOverviewComponent </title>
<path fill="none" stroke="#000000" stroke-dasharray="5,2" d="M775,-187.1061C775,-187.1061 775,-205.991 775,-205.991"/>
<polygon fill="#000000" stroke="#000000" points="771.5001,-205.9909 775,-215.991 778.5001,-205.991 771.5001,-205.9909"/>
</g>
<!-- OrderConfirmationThankYouMessageComponent  -->
<g id="node17" class="node">
<title>OrderConfirmationThankYouMessageComponent </title>
<polygon fill="#fb8072" stroke="#000000" points="632.7611,-252 331.2389,-252 331.2389,-216 632.7611,-216 632.7611,-252"/>
<text text-anchor="middle" x="482" y="-229.8" font-family="Times,serif" font-size="14.00" fill="#000000">OrderConfirmationThankYouMessageComponent </text>
</g>
<!-- OrderConfirmationModule&#45;&gt;OrderConfirmationThankYouMessageComponent  -->
<g id="edge16" class="edge">
<title>OrderConfirmationModule&#45;&gt;OrderConfirmationThankYouMessageComponent </title>
<path fill="none" stroke="#000000" stroke-dasharray="5,2" d="M691.1634,-183C633.8245,-183 568.1476,-183 568.1476,-183 568.1476,-183 568.1476,-205.8757 568.1476,-205.8757"/>
<polygon fill="#000000" stroke="#000000" points="564.6477,-205.8757 568.1476,-215.8757 571.6477,-205.8757 564.6477,-205.8757"/>
</g>
<!-- OrderConfirmationTotalsComponent  -->
<g id="node18" class="node">
<title>OrderConfirmationTotalsComponent </title>
<polygon fill="#fb8072" stroke="#000000" points="312.9026,-252 85.0974,-252 85.0974,-216 312.9026,-216 312.9026,-252"/>
<text text-anchor="middle" x="199" y="-229.8" font-family="Times,serif" font-size="14.00" fill="#000000">OrderConfirmationTotalsComponent </text>
</g>
<!-- OrderConfirmationModule&#45;&gt;OrderConfirmationTotalsComponent  -->
<g id="edge17" class="edge">
<title>OrderConfirmationModule&#45;&gt;OrderConfirmationTotalsComponent </title>
<path fill="none" stroke="#000000" stroke-dasharray="5,2" d="M691.1896,-178C552.5689,-178 290.6731,-178 290.6731,-178 290.6731,-178 290.6731,-205.973 290.6731,-205.973"/>
<polygon fill="#000000" stroke="#000000" points="287.1731,-205.973 290.6731,-215.973 294.1731,-205.973 287.1731,-205.973"/>
</g>
<!-- CardModule -->
<g id="node7" class="node">
<title>CardModule</title>
<polygon fill="#8dd3c7" stroke="#000000" points="879.2619,-122 876.2619,-126 855.2619,-126 852.2619,-122 792.7381,-122 792.7381,-86 879.2619,-86 879.2619,-122"/>
<text text-anchor="middle" x="836" y="-99.8" font-family="Times,serif" font-size="14.00" fill="#000000">CardModule</text>
</g>
<!-- CardModule&#45;&gt;OrderConfirmationModule -->
<g id="edge6" class="edge">
<title>CardModule&#45;&gt;OrderConfirmationModule</title>
<path fill="none" stroke="#000000" d="M825.7163,-122.1061C825.7163,-122.1061 825.7163,-140.991 825.7163,-140.991"/>
<polygon fill="#000000" stroke="#000000" points="822.2164,-140.9909 825.7163,-150.991 829.2164,-140.991 822.2164,-140.9909"/>
</g>
<!-- CartSharedModule -->
<g id="node8" class="node">
<title>CartSharedModule</title>
<polygon fill="#8dd3c7" stroke="#000000" points="774.0255,-122 771.0255,-126 750.0255,-126 747.0255,-122 651.9745,-122 651.9745,-86 774.0255,-86 774.0255,-122"/>
<text text-anchor="middle" x="713" y="-99.8" font-family="Times,serif" font-size="14.00" fill="#000000">CartSharedModule</text>
</g>
<!-- CartSharedModule&#45;&gt;OrderConfirmationModule -->
<g id="edge7" class="edge">
<title>CartSharedModule&#45;&gt;OrderConfirmationModule</title>
<path fill="none" stroke="#000000" d="M732.7244,-122.1061C732.7244,-122.1061 732.7244,-140.991 732.7244,-140.991"/>
<polygon fill="#000000" stroke="#000000" points="729.2245,-140.9909 732.7244,-150.991 736.2245,-140.991 729.2245,-140.9909"/>
</g>
<!-- ConfigModule -->
<g id="node9" class="node">
<title>ConfigModule</title>
<polygon fill="#8dd3c7" stroke="#000000" points="634.4386,-122 631.4386,-126 610.4386,-126 607.4386,-122 535.5614,-122 535.5614,-86 634.4386,-86 634.4386,-122"/>
<text text-anchor="middle" x="585" y="-99.8" font-family="Times,serif" font-size="14.00" fill="#000000">ConfigModule</text>
</g>
<!-- ConfigModule&#45;&gt;OrderConfirmationModule -->
<g id="edge8" class="edge">
<title>ConfigModule&#45;&gt;OrderConfirmationModule</title>
<path fill="none" stroke="#000000" d="M600.5141,-122.1871C600.5141,-137.1824 600.5141,-156 600.5141,-156 600.5141,-156 681.3345,-156 681.3345,-156"/>
<polygon fill="#000000" stroke="#000000" points="681.3345,-159.5001 691.3345,-156 681.3344,-152.5001 681.3345,-159.5001"/>
</g>
<!-- FeaturesConfigModule -->
<g id="node10" class="node">
<title>FeaturesConfigModule</title>
<polygon fill="#8dd3c7" stroke="#000000" points="517.8599,-122 514.8599,-126 493.8599,-126 490.8599,-122 372.1401,-122 372.1401,-86 517.8599,-86 517.8599,-122"/>
<text text-anchor="middle" x="445" y="-99.8" font-family="Times,serif" font-size="14.00" fill="#000000">FeaturesConfigModule</text>
</g>
<!-- FeaturesConfigModule&#45;&gt;OrderConfirmationModule -->
<g id="edge9" class="edge">
<title>FeaturesConfigModule&#45;&gt;OrderConfirmationModule</title>
<path fill="none" stroke="#000000" d="M445,-122.027C445,-138.3976 445,-160 445,-160 445,-160 681.3005,-160 681.3005,-160"/>
<polygon fill="#000000" stroke="#000000" points="681.3005,-163.5001 691.3005,-160 681.3004,-156.5001 681.3005,-163.5001"/>
</g>
<!-- I18nModule -->
<g id="node11" class="node">
<title>I18nModule</title>
<polygon fill="#8dd3c7" stroke="#000000" points="353.7107,-122 350.7107,-126 329.7107,-126 326.7107,-122 268.2893,-122 268.2893,-86 353.7107,-86 353.7107,-122"/>
<text text-anchor="middle" x="311" y="-99.8" font-family="Times,serif" font-size="14.00" fill="#000000">I18nModule</text>
</g>
<!-- I18nModule&#45;&gt;OrderConfirmationModule -->
<g id="edge10" class="edge">
<title>I18nModule&#45;&gt;OrderConfirmationModule</title>
<path fill="none" stroke="#000000" d="M342.3624,-122.302C342.3624,-140.2699 342.3624,-165 342.3624,-165 342.3624,-165 681.3268,-165 681.3268,-165"/>
<polygon fill="#000000" stroke="#000000" points="681.3268,-168.5001 691.3268,-165 681.3267,-161.5001 681.3268,-168.5001"/>
</g>
<!-- PromotionsModule -->
<g id="node12" class="node">
<title>PromotionsModule</title>
<polygon fill="#8dd3c7" stroke="#000000" points="250.1094,-122 247.1094,-126 226.1094,-126 223.1094,-122 125.8906,-122 125.8906,-86 250.1094,-86 250.1094,-122"/>
<text text-anchor="middle" x="188" y="-99.8" font-family="Times,serif" font-size="14.00" fill="#000000">PromotionsModule</text>
</g>
<!-- PromotionsModule&#45;&gt;OrderConfirmationModule -->
<g id="edge11" class="edge">
<title>PromotionsModule&#45;&gt;OrderConfirmationModule</title>
<path fill="none" stroke="#000000" d="M188,-122.1061C188,-141.3391 188,-169 188,-169 188,-169 681.2091,-169 681.2091,-169"/>
<polygon fill="#000000" stroke="#000000" points="681.2092,-172.5001 691.2091,-169 681.2091,-165.5001 681.2092,-172.5001"/>
</g>
<!-- PwaModule -->
<g id="node13" class="node">
<title>PwaModule</title>
<polygon fill="#8dd3c7" stroke="#000000" points="107.6543,-122 104.6543,-126 83.6543,-126 80.6543,-122 24.3457,-122 24.3457,-86 107.6543,-86 107.6543,-122"/>
<text text-anchor="middle" x="66" y="-99.8" font-family="Times,serif" font-size="14.00" fill="#000000">PwaModule</text>
</g>
<!-- PwaModule&#45;&gt;OrderConfirmationModule -->
<g id="edge12" class="edge">
<title>PwaModule&#45;&gt;OrderConfirmationModule</title>
<path fill="none" stroke="#000000" d="M96.4377,-122.0267C96.4377,-142.7672 96.4377,-174 96.4378,-174 96.4378,-174 681.1144,-174 681.1144,-174"/>
<polygon fill="#000000" stroke="#000000" points="681.1144,-177.5001 691.1144,-174 681.1143,-170.5001 681.1144,-177.5001"/>
</g>
</g>
</svg>
