<?xml version="1.0" encoding="UTF-8" standalone="no"?>
<!DOCTYPE svg PUBLIC "-//W3C//DTD SVG 1.1//EN"
 "http://www.w3.org/Graphics/SVG/1.1/DTD/svg11.dtd">
<!-- Generated by graphviz version 2.47.0 (20210316.0004)
 -->
<!-- Title: dependencies Pages: 1 -->
<svg width="2376pt" height="284pt"
 viewBox="0.00 0.00 2376.00 284.00" xmlns="http://www.w3.org/2000/svg" xmlns:xlink="http://www.w3.org/1999/xlink">
<g id="graph0" class="graph" transform="scale(1 1) rotate(0) translate(4 280)">
<title>dependencies</title>
<polygon fill="white" stroke="transparent" points="-4,4 -4,-280 2372,-280 2372,4 -4,4"/>
<text text-anchor="start" x="1163.01" y="-42.4" font-family="sans-serif" font-weight="bold" font-size="14.00">Legend</text>
<polygon fill="#ffffb3" stroke="transparent" points="950,-10 950,-30 970,-30 970,-10 950,-10"/>
<text text-anchor="start" x="973.63" y="-15.4" font-family="sans-serif" font-size="14.00"> &#160;Declarations</text>
<polygon fill="#8dd3c7" stroke="transparent" points="1063,-10 1063,-30 1083,-30 1083,-10 1063,-10"/>
<text text-anchor="start" x="1086.73" y="-15.4" font-family="sans-serif" font-size="14.00"> &#160;Module</text>
<polygon fill="#80b1d3" stroke="transparent" points="1149,-10 1149,-30 1169,-30 1169,-10 1149,-10"/>
<text text-anchor="start" x="1172.78" y="-15.4" font-family="sans-serif" font-size="14.00"> &#160;Bootstrap</text>
<polygon fill="#fdb462" stroke="transparent" points="1246,-10 1246,-30 1266,-30 1266,-10 1246,-10"/>
<text text-anchor="start" x="1269.67" y="-15.4" font-family="sans-serif" font-size="14.00"> &#160;Providers</text>
<polygon fill="#fb8072" stroke="transparent" points="1342,-10 1342,-30 1362,-30 1362,-10 1342,-10"/>
<text text-anchor="start" x="1365.73" y="-15.4" font-family="sans-serif" font-size="14.00"> &#160;Exports</text>
<g id="clust1" class="cluster">
<title>cluster_OrderConfirmationModule</title>
<polygon fill="none" stroke="black" stroke-dasharray="1,5" points="8,-70 8,-268 2360,-268 2360,-70 8,-70"/>
</g>
<g id="clust2" class="cluster">
<title>cluster_OrderConfirmationModule_declarations</title>
<polygon fill="none" stroke="black" points="1086,-78 1086,-130 2352,-130 2352,-78 1086,-78"/>
</g>
<g id="clust8" class="cluster">
<title>cluster_OrderConfirmationModule_imports</title>
<polygon fill="none" stroke="black" points="16,-78 16,-130 1078,-130 1078,-78 16,-78"/>
</g>
<g id="clust9" class="cluster">
<title>cluster_OrderConfirmationModule_exports</title>
<polygon fill="none" stroke="black" points="206,-208 206,-260 1490,-260 1490,-208 206,-208"/>
</g>
<!-- GuestRegisterFormComponent -->
<g id="node1" class="node">
<title>GuestRegisterFormComponent</title>
<polygon fill="#ffffb3" stroke="black" points="2344.47,-122 2153.53,-122 2153.53,-86 2344.47,-86 2344.47,-122"/>
<text text-anchor="middle" x="2249" y="-99.8" font-family="Times,serif" font-size="14.00">GuestRegisterFormComponent</text>
</g>
<!-- OrderConfirmationModule -->
<g id="node6" class="node">
<title>OrderConfirmationModule</title>
<polygon fill="#8dd3c7" stroke="black" points="987.63,-187 984.63,-191 963.63,-191 960.63,-187 820.37,-187 820.37,-151 987.63,-151 987.63,-187"/>
<text text-anchor="middle" x="904" y="-164.8" font-family="Times,serif" font-size="14.00">OrderConfirmationModule</text>
</g>
<!-- GuestRegisterFormComponent&#45;&gt;OrderConfirmationModule -->
<g id="edge1" class="edge">
<title>GuestRegisterFormComponent&#45;&gt;OrderConfirmationModule</title>
<path fill="none" stroke="black" d="M2249,-122.03C2249,-142.77 2249,-174 2249,-174 2249,-174 997.63,-174 997.63,-174"/>
<polygon fill="black" stroke="black" points="997.63,-170.5 987.63,-174 997.63,-177.5 997.63,-170.5"/>
</g>
<!-- OrderConfirmationItemsComponent -->
<g id="node2" class="node">
<title>OrderConfirmationItemsComponent</title>
<polygon fill="#ffffb3" stroke="black" points="2135.01,-122 1914.99,-122 1914.99,-86 2135.01,-86 2135.01,-122"/>
<text text-anchor="middle" x="2025" y="-99.8" font-family="Times,serif" font-size="14.00">OrderConfirmationItemsComponent</text>
</g>
<!-- OrderConfirmationItemsComponent&#45;&gt;OrderConfirmationModule -->
<g id="edge2" class="edge">
<title>OrderConfirmationItemsComponent&#45;&gt;OrderConfirmationModule</title>
<path fill="none" stroke="black" d="M2025,-122.11C2025,-141.34 2025,-169 2025,-169 2025,-169 997.8,-169 997.8,-169"/>
<polygon fill="black" stroke="black" points="997.8,-165.5 987.8,-169 997.8,-172.5 997.8,-165.5"/>
</g>
<!-- OrderConfirmationOverviewComponent -->
<g id="node3" class="node">
<title>OrderConfirmationOverviewComponent</title>
<polygon fill="#ffffb3" stroke="black" points="1896.1,-122 1651.9,-122 1651.9,-86 1896.1,-86 1896.1,-122"/>
<text text-anchor="middle" x="1774" y="-99.8" font-family="Times,serif" font-size="14.00">OrderConfirmationOverviewComponent</text>
</g>
<!-- OrderConfirmationOverviewComponent&#45;&gt;OrderConfirmationModule -->
<g id="edge3" class="edge">
<title>OrderConfirmationOverviewComponent&#45;&gt;OrderConfirmationModule</title>
<path fill="none" stroke="black" d="M1774,-122.3C1774,-140.27 1774,-165 1774,-165 1774,-165 997.81,-165 997.81,-165"/>
<polygon fill="black" stroke="black" points="997.81,-161.5 987.81,-165 997.81,-168.5 997.81,-161.5"/>
</g>
<!-- OrderConfirmationThankYouMessageComponent -->
<g id="node4" class="node">
<title>OrderConfirmationThankYouMessageComponent</title>
<polygon fill="#ffffb3" stroke="black" points="1634.26,-122 1335.74,-122 1335.74,-86 1634.26,-86 1634.26,-122"/>
<text text-anchor="middle" x="1485" y="-99.8" font-family="Times,serif" font-size="14.00">OrderConfirmationThankYouMessageComponent</text>
</g>
<!-- OrderConfirmationThankYouMessageComponent&#45;&gt;OrderConfirmationModule -->
<g id="edge4" class="edge">
<title>OrderConfirmationThankYouMessageComponent&#45;&gt;OrderConfirmationModule</title>
<path fill="none" stroke="black" d="M1409.05,-122.03C1409.05,-138.4 1409.05,-160 1409.05,-160 1409.05,-160 997.68,-160 997.68,-160"/>
<polygon fill="black" stroke="black" points="997.68,-156.5 987.68,-160 997.68,-163.5 997.68,-156.5"/>
</g>
<!-- OrderConfirmationTotalsComponent -->
<g id="node5" class="node">
<title>OrderConfirmationTotalsComponent</title>
<polygon fill="#ffffb3" stroke="black" points="1318.4,-122 1093.6,-122 1093.6,-86 1318.4,-86 1318.4,-122"/>
<text text-anchor="middle" x="1206" y="-99.8" font-family="Times,serif" font-size="14.00">OrderConfirmationTotalsComponent</text>
</g>
<!-- OrderConfirmationTotalsComponent&#45;&gt;OrderConfirmationModule -->
<g id="edge5" class="edge">
<title>OrderConfirmationTotalsComponent&#45;&gt;OrderConfirmationModule</title>
<path fill="none" stroke="black" d="M1181.9,-122.19C1181.9,-137.18 1181.9,-156 1181.9,-156 1181.9,-156 997.76,-156 997.76,-156"/>
<polygon fill="black" stroke="black" points="997.76,-152.5 987.76,-156 997.76,-159.5 997.76,-152.5"/>
</g>
<!-- GuestRegisterFormComponent  -->
<g id="node15" class="node">
<title>GuestRegisterFormComponent </title>
<polygon fill="#fb8072" stroke="black" points="1482.48,-252 1287.52,-252 1287.52,-216 1482.48,-216 1482.48,-252"/>
<text text-anchor="middle" x="1385" y="-229.8" font-family="Times,serif" font-size="14.00">GuestRegisterFormComponent </text>
</g>
<!-- OrderConfirmationModule&#45;&gt;GuestRegisterFormComponent  -->
<g id="edge14" class="edge">
<title>OrderConfirmationModule&#45;&gt;GuestRegisterFormComponent </title>
<path fill="none" stroke="black" stroke-dasharray="5,2" d="M987.64,-178C1104.63,-178 1302.98,-178 1302.98,-178 1302.98,-178 1302.98,-205.97 1302.98,-205.97"/>
<polygon fill="black" stroke="black" points="1299.48,-205.97 1302.98,-215.97 1306.48,-205.97 1299.48,-205.97"/>
</g>
<!-- OrderConfirmationItemsComponent  -->
<g id="node16" class="node">
<title>OrderConfirmationItemsComponent </title>
<polygon fill="#fb8072" stroke="black" points="1270.01,-252 1045.99,-252 1045.99,-216 1270.01,-216 1270.01,-252"/>
<text text-anchor="middle" x="1158" y="-229.8" font-family="Times,serif" font-size="14.00">OrderConfirmationItemsComponent </text>
</g>
<!-- OrderConfirmationModule&#45;&gt;OrderConfirmationItemsComponent  -->
<g id="edge15" class="edge">
<title>OrderConfirmationModule&#45;&gt;OrderConfirmationItemsComponent </title>
<path fill="none" stroke="black" stroke-dasharray="5,2" d="M987.86,-183C1024.03,-183 1058.19,-183 1058.19,-183 1058.19,-183 1058.19,-205.88 1058.19,-205.88"/>
<polygon fill="black" stroke="black" points="1054.69,-205.88 1058.19,-215.88 1061.69,-205.88 1054.69,-205.88"/>
</g>
<!-- OrderConfirmationOverviewComponent  -->
<g id="node17" class="node">
<title>OrderConfirmationOverviewComponent </title>
<polygon fill="#fb8072" stroke="black" points="1028.1,-252 779.9,-252 779.9,-216 1028.1,-216 1028.1,-252"/>
<text text-anchor="middle" x="904" y="-229.8" font-family="Times,serif" font-size="14.00">OrderConfirmationOverviewComponent </text>
</g>
<!-- OrderConfirmationModule&#45;&gt;OrderConfirmationOverviewComponent  -->
<g id="edge16" class="edge">
<title>OrderConfirmationModule&#45;&gt;OrderConfirmationOverviewComponent </title>
<path fill="none" stroke="black" stroke-dasharray="5,2" d="M904,-187.11C904,-187.11 904,-205.99 904,-205.99"/>
<polygon fill="black" stroke="black" points="900.5,-205.99 904,-215.99 907.5,-205.99 900.5,-205.99"/>
</g>
<!-- OrderConfirmationThankYouMessageComponent  -->
<g id="node18" class="node">
<title>OrderConfirmationThankYouMessageComponent </title>
<polygon fill="#fb8072" stroke="black" points="761.76,-252 460.24,-252 460.24,-216 761.76,-216 761.76,-252"/>
<text text-anchor="middle" x="611" y="-229.8" font-family="Times,serif" font-size="14.00">OrderConfirmationThankYouMessageComponent </text>
</g>
<!-- OrderConfirmationModule&#45;&gt;OrderConfirmationThankYouMessageComponent  -->
<g id="edge17" class="edge">
<title>OrderConfirmationModule&#45;&gt;OrderConfirmationThankYouMessageComponent </title>
<path fill="none" stroke="black" stroke-dasharray="5,2" d="M820.29,-183C771.89,-183 720.48,-183 720.48,-183 720.48,-183 720.48,-205.88 720.48,-205.88"/>
<polygon fill="black" stroke="black" points="716.98,-205.88 720.48,-215.88 723.98,-205.88 716.98,-205.88"/>
</g>
<!-- OrderConfirmationTotalsComponent  -->
<g id="node19" class="node">
<title>OrderConfirmationTotalsComponent </title>
<polygon fill="#fb8072" stroke="black" points="441.9,-252 214.1,-252 214.1,-216 441.9,-216 441.9,-252"/>
<text text-anchor="middle" x="328" y="-229.8" font-family="Times,serif" font-size="14.00">OrderConfirmationTotalsComponent </text>
</g>
<!-- OrderConfirmationModule&#45;&gt;OrderConfirmationTotalsComponent  -->
<g id="edge18" class="edge">
<title>OrderConfirmationModule&#45;&gt;OrderConfirmationTotalsComponent </title>
<path fill="none" stroke="black" stroke-dasharray="5,2" d="M820.36,-178C686.17,-178 437.67,-178 437.67,-178 437.67,-178 437.67,-205.97 437.67,-205.97"/>
<polygon fill="black" stroke="black" points="434.17,-205.97 437.67,-215.97 441.17,-205.97 434.17,-205.97"/>
</g>
<!-- CardModule -->
<g id="node7" class="node">
<title>CardModule</title>
<polygon fill="#8dd3c7" stroke="black" points="1070.26,-122 1067.26,-126 1046.26,-126 1043.26,-122 983.74,-122 983.74,-86 1070.26,-86 1070.26,-122"/>
<text text-anchor="middle" x="1027" y="-99.8" font-family="Times,serif" font-size="14.00">CardModule</text>
</g>
<!-- CardModule&#45;&gt;OrderConfirmationModule -->
<g id="edge6" class="edge">
<title>CardModule&#45;&gt;OrderConfirmationModule</title>
<path fill="none" stroke="black" d="M983.6,-104C978.15,-104 974.44,-104 974.44,-104 974.44,-104 974.44,-140.89 974.44,-140.89"/>
<polygon fill="black" stroke="black" points="970.94,-140.89 974.44,-150.89 977.94,-140.89 970.94,-140.89"/>
</g>
<!-- CartSharedModule -->
<g id="node8" class="node">
<title>CartSharedModule</title>
<polygon fill="#8dd3c7" stroke="black" points="965.03,-122 962.03,-126 941.03,-126 938.03,-122 842.97,-122 842.97,-86 965.03,-86 965.03,-122"/>
<text text-anchor="middle" x="904" y="-99.8" font-family="Times,serif" font-size="14.00">CartSharedModule</text>
</g>
<!-- CartSharedModule&#45;&gt;OrderConfirmationModule -->
<g id="edge7" class="edge">
<title>CartSharedModule&#45;&gt;OrderConfirmationModule</title>
<path fill="none" stroke="black" d="M904,-122.11C904,-122.11 904,-140.99 904,-140.99"/>
<polygon fill="black" stroke="black" points="900.5,-140.99 904,-150.99 907.5,-140.99 900.5,-140.99"/>
</g>
<!-- FeaturesConfigModule -->
<g id="node9" class="node">
<title>FeaturesConfigModule</title>
<polygon fill="#8dd3c7" stroke="black" points="824.86,-122 821.86,-126 800.86,-126 797.86,-122 679.14,-122 679.14,-86 824.86,-86 824.86,-122"/>
<text text-anchor="middle" x="752" y="-99.8" font-family="Times,serif" font-size="14.00">FeaturesConfigModule</text>
</g>
<!-- FeaturesConfigModule&#45;&gt;OrderConfirmationModule -->
<g id="edge8" class="edge">
<title>FeaturesConfigModule&#45;&gt;OrderConfirmationModule</title>
<path fill="none" stroke="black" d="M825.08,-104C830.46,-104 833.83,-104 833.83,-104 833.83,-104 833.83,-140.89 833.83,-140.89"/>
<polygon fill="black" stroke="black" points="830.33,-140.89 833.83,-150.89 837.33,-140.89 830.33,-140.89"/>
</g>
<!-- FormErrorsModule -->
<g id="node10" class="node">
<title>FormErrorsModule</title>
<polygon fill="#8dd3c7" stroke="black" points="661.36,-122 658.36,-126 637.36,-126 634.36,-122 536.64,-122 536.64,-86 661.36,-86 661.36,-122"/>
<text text-anchor="middle" x="599" y="-99.8" font-family="Times,serif" font-size="14.00">FormErrorsModule</text>
</g>
<!-- FormErrorsModule&#45;&gt;OrderConfirmationModule -->
<g id="edge9" class="edge">
<title>FormErrorsModule&#45;&gt;OrderConfirmationModule</title>
<path fill="none" stroke="black" d="M599,-122.19C599,-137.18 599,-156 599,-156 599,-156 810.25,-156 810.25,-156"/>
<polygon fill="black" stroke="black" points="810.25,-159.5 820.25,-156 810.25,-152.5 810.25,-159.5"/>
</g>
<!-- I18nModule -->
<g id="node11" class="node">
<title>I18nModule</title>
<polygon fill="#8dd3c7" stroke="black" points="518.71,-122 515.71,-126 494.71,-126 491.71,-122 433.29,-122 433.29,-86 518.71,-86 518.71,-122"/>
<text text-anchor="middle" x="476" y="-99.8" font-family="Times,serif" font-size="14.00">I18nModule</text>
</g>
<!-- I18nModule&#45;&gt;OrderConfirmationModule -->
<g id="edge10" class="edge">
<title>I18nModule&#45;&gt;OrderConfirmationModule</title>
<path fill="none" stroke="black" d="M489.36,-122.03C489.36,-138.4 489.36,-160 489.36,-160 489.36,-160 810.09,-160 810.09,-160"/>
<polygon fill="black" stroke="black" points="810.09,-163.5 820.09,-160 810.09,-156.5 810.09,-163.5"/>
</g>
<!-- OrderOverviewModule -->
<g id="node12" class="node">
<title>OrderOverviewModule</title>
<polygon fill="#8dd3c7" stroke="black" points="415.89,-122 412.89,-126 391.89,-126 388.89,-122 268.11,-122 268.11,-86 415.89,-86 415.89,-122"/>
<text text-anchor="middle" x="342" y="-99.8" font-family="Times,serif" font-size="14.00">OrderOverviewModule</text>
</g>
<!-- OrderOverviewModule&#45;&gt;OrderConfirmationModule -->
<g id="edge11" class="edge">
<title>OrderOverviewModule&#45;&gt;OrderConfirmationModule</title>
<path fill="none" stroke="black" d="M342,-122.3C342,-140.27 342,-165 342,-165 342,-165 810.17,-165 810.17,-165"/>
<polygon fill="black" stroke="black" points="810.17,-168.5 820.17,-165 810.17,-161.5 810.17,-168.5"/>
</g>
<!-- PromotionsModule -->
<g id="node13" class="node">
<title>PromotionsModule</title>
<polygon fill="#8dd3c7" stroke="black" points="250.11,-122 247.11,-126 226.11,-126 223.11,-122 125.89,-122 125.89,-86 250.11,-86 250.11,-122"/>
<text text-anchor="middle" x="188" y="-99.8" font-family="Times,serif" font-size="14.00">PromotionsModule</text>
</g>
<!-- PromotionsModule&#45;&gt;OrderConfirmationModule -->
<g id="edge12" class="edge">
<title>PromotionsModule&#45;&gt;OrderConfirmationModule</title>
<path fill="none" stroke="black" d="M232.05,-122.11C232.05,-141.34 232.05,-169 232.05,-169 232.05,-169 810.26,-169 810.26,-169"/>
<polygon fill="black" stroke="black" points="810.26,-172.5 820.26,-169 810.26,-165.5 810.26,-172.5"/>
</g>
<!-- PwaModule -->
<g id="node14" class="node">
<title>PwaModule</title>
<polygon fill="#8dd3c7" stroke="black" points="107.65,-122 104.65,-126 83.65,-126 80.65,-122 24.35,-122 24.35,-86 107.65,-86 107.65,-122"/>
<text text-anchor="middle" x="66" y="-99.8" font-family="Times,serif" font-size="14.00">PwaModule</text>
</g>
<!-- PwaModule&#45;&gt;OrderConfirmationModule -->
<g id="edge13" class="edge">
<title>PwaModule&#45;&gt;OrderConfirmationModule</title>
<path fill="none" stroke="black" d="M66,-122.03C66,-142.77 66,-174 66,-174 66,-174 810.2,-174 810.2,-174"/>
<polygon fill="black" stroke="black" points="810.2,-177.5 820.2,-174 810.2,-170.5 810.2,-177.5"/>
</g>
</g>
</svg>
