<?xml version="1.0" encoding="UTF-8" standalone="no"?>
<!DOCTYPE svg PUBLIC "-//W3C//DTD SVG 1.1//EN"
 "http://www.w3.org/Graphics/SVG/1.1/DTD/svg11.dtd">
<!-- Generated by graphviz version 2.47.0 (20210316.0004)
 -->
<!-- Title: dependencies Pages: 1 -->
<svg width="734pt" height="284pt"
 viewBox="0.00 0.00 734.00 284.00" xmlns="http://www.w3.org/2000/svg" xmlns:xlink="http://www.w3.org/1999/xlink">
<g id="graph0" class="graph" transform="scale(1 1) rotate(0) translate(4 280)">
<title>dependencies</title>
<polygon fill="white" stroke="transparent" points="-4,4 -4,-280 730,-280 730,4 -4,4"/>
<text text-anchor="start" x="342.01" y="-42.4" font-family="sans-serif" font-weight="bold" font-size="14.00">Legend</text>
<polygon fill="#ffffb3" stroke="transparent" points="129,-10 129,-30 149,-30 149,-10 129,-10"/>
<text text-anchor="start" x="152.63" y="-15.4" font-family="sans-serif" font-size="14.00"> &#160;Declarations</text>
<polygon fill="#8dd3c7" stroke="transparent" points="242,-10 242,-30 262,-30 262,-10 242,-10"/>
<text text-anchor="start" x="265.73" y="-15.4" font-family="sans-serif" font-size="14.00"> &#160;Module</text>
<polygon fill="#80b1d3" stroke="transparent" points="328,-10 328,-30 348,-30 348,-10 328,-10"/>
<text text-anchor="start" x="351.78" y="-15.4" font-family="sans-serif" font-size="14.00"> &#160;Bootstrap</text>
<polygon fill="#fdb462" stroke="transparent" points="425,-10 425,-30 445,-30 445,-10 425,-10"/>
<text text-anchor="start" x="448.67" y="-15.4" font-family="sans-serif" font-size="14.00"> &#160;Providers</text>
<polygon fill="#fb8072" stroke="transparent" points="521,-10 521,-30 541,-30 541,-10 521,-10"/>
<text text-anchor="start" x="544.73" y="-15.4" font-family="sans-serif" font-size="14.00"> &#160;Exports</text>
<g id="clust1" class="cluster">
<title>cluster_ReturnOrderModule</title>
<polygon fill="none" stroke="black" stroke-dasharray="1,5" points="8,-70 8,-268 718,-268 718,-70 8,-70"/>
</g>
<g id="clust5" class="cluster">
<title>cluster_ReturnOrderModule_exports</title>
<polygon fill="none" stroke="black" points="257,-208 257,-260 429,-260 429,-208 257,-208"/>
</g>
<g id="clust2" class="cluster">
<title>cluster_ReturnOrderModule_declarations</title>
<polygon fill="none" stroke="black" points="542,-78 542,-130 710,-130 710,-78 542,-78"/>
</g>
<g id="clust4" class="cluster">
<title>cluster_ReturnOrderModule_imports</title>
<polygon fill="none" stroke="black" points="16,-78 16,-130 534,-130 534,-78 16,-78"/>
</g>
<!-- ReturnOrderComponent -->
<g id="node1" class="node">
<title>ReturnOrderComponent</title>
<polygon fill="#ffffb3" stroke="black" points="702.08,-122 549.92,-122 549.92,-86 702.08,-86 702.08,-122"/>
<text text-anchor="middle" x="626" y="-99.8" font-family="Times,serif" font-size="14.00">ReturnOrderComponent</text>
</g>
<!-- ReturnOrderModule -->
<g id="node2" class="node">
<title>ReturnOrderModule</title>
<polygon fill="#8dd3c7" stroke="black" points="408.29,-187 405.29,-191 384.29,-191 381.29,-187 277.71,-187 277.71,-151 408.29,-151 408.29,-187"/>
<text text-anchor="middle" x="343" y="-164.8" font-family="Times,serif" font-size="14.00">ReturnOrderModule</text>
</g>
<!-- ReturnOrderComponent&#45;&gt;ReturnOrderModule -->
<g id="edge1" class="edge">
<title>ReturnOrderComponent&#45;&gt;ReturnOrderModule</title>
<path fill="none" stroke="black" d="M626,-122.11C626,-141.34 626,-169 626,-169 626,-169 418.28,-169 418.28,-169"/>
<polygon fill="black" stroke="black" points="418.28,-165.5 408.28,-169 418.28,-172.5 418.28,-165.5"/>
</g>
<!-- ReturnOrderComponent  -->
<g id="node6" class="node">
<title>ReturnOrderComponent </title>
<polygon fill="#fb8072" stroke="black" points="420.58,-252 265.42,-252 265.42,-216 420.58,-216 420.58,-252"/>
<text text-anchor="middle" x="343" y="-229.8" font-family="Times,serif" font-size="14.00">ReturnOrderComponent </text>
</g>
<!-- ReturnOrderModule&#45;&gt;ReturnOrderComponent  -->
<g id="edge5" class="edge">
<title>ReturnOrderModule&#45;&gt;ReturnOrderComponent </title>
<path fill="none" stroke="black" stroke-dasharray="5,2" d="M343,-187.11C343,-187.11 343,-205.99 343,-205.99"/>
<polygon fill="black" stroke="black" points="339.5,-205.99 343,-215.99 346.5,-205.99 339.5,-205.99"/>
</g>
<!-- AmendOrderActionsModule -->
<g id="node3" class="node">
<title>AmendOrderActionsModule</title>
<polygon fill="#8dd3c7" stroke="black" points="526.45,-122 523.45,-126 502.45,-126 499.45,-122 349.55,-122 349.55,-86 526.45,-86 526.45,-122"/>
<text text-anchor="middle" x="438" y="-99.8" font-family="Times,serif" font-size="14.00">AmendOrderActionsModule</text>
</g>
<!-- AmendOrderActionsModule&#45;&gt;ReturnOrderModule -->
<g id="edge2" class="edge">
<title>AmendOrderActionsModule&#45;&gt;ReturnOrderModule</title>
<path fill="none" stroke="black" d="M378.84,-122.11C378.84,-122.11 378.84,-140.99 378.84,-140.99"/>
<polygon fill="black" stroke="black" points="375.34,-140.99 378.84,-150.99 382.34,-140.99 375.34,-140.99"/>
</g>
<!-- AmendOrderItemsModule -->
<g id="node4" class="node">
<title>AmendOrderItemsModule</title>
<polygon fill="#8dd3c7" stroke="black" points="331.01,-122 328.01,-126 307.01,-126 304.01,-122 166.99,-122 166.99,-86 331.01,-86 331.01,-122"/>
<text text-anchor="middle" x="249" y="-99.8" font-family="Times,serif" font-size="14.00">AmendOrderItemsModule</text>
</g>
<!-- AmendOrderItemsModule&#45;&gt;ReturnOrderModule -->
<g id="edge3" class="edge">
<title>AmendOrderItemsModule&#45;&gt;ReturnOrderModule</title>
<path fill="none" stroke="black" d="M304.55,-122.11C304.55,-122.11 304.55,-140.99 304.55,-140.99"/>
<polygon fill="black" stroke="black" points="301.05,-140.99 304.55,-150.99 308.05,-140.99 301.05,-140.99"/>
</g>
<!-- FormErrorsModule -->
<g id="node5" class="node">
<title>FormErrorsModule</title>
<polygon fill="#8dd3c7" stroke="black" points="148.36,-122 145.36,-126 124.36,-126 121.36,-122 23.64,-122 23.64,-86 148.36,-86 148.36,-122"/>
<text text-anchor="middle" x="86" y="-99.8" font-family="Times,serif" font-size="14.00">FormErrorsModule</text>
</g>
<!-- FormErrorsModule&#45;&gt;ReturnOrderModule -->
<g id="edge4" class="edge">
<title>FormErrorsModule&#45;&gt;ReturnOrderModule</title>
<path fill="none" stroke="black" d="M86,-122.11C86,-141.34 86,-169 86,-169 86,-169 267.82,-169 267.82,-169"/>
<polygon fill="black" stroke="black" points="267.82,-172.5 277.82,-169 267.82,-165.5 267.82,-172.5"/>
</g>
</g>
</svg>
