<?xml version="1.0" encoding="UTF-8" standalone="no"?>
<!DOCTYPE svg PUBLIC "-//W3C//DTD SVG 1.1//EN"
 "http://www.w3.org/Graphics/SVG/1.1/DTD/svg11.dtd">
<!-- Generated by graphviz version 2.47.0 (20210316.0004)
 -->
<!-- Title: dependencies Pages: 1 -->
<svg width="504pt" height="211pt"
 viewBox="0.00 0.00 504.00 211.00" xmlns="http://www.w3.org/2000/svg" xmlns:xlink="http://www.w3.org/1999/xlink">
<g id="graph0" class="graph" transform="scale(1 1) rotate(0) translate(4 207)">
<title>dependencies</title>
<polygon fill="white" stroke="transparent" points="-4,4 -4,-207 500,-207 500,4 -4,4"/>
<text text-anchor="start" x="227.01" y="-42.4" font-family="sans-serif" font-weight="bold" font-size="14.00">Legend</text>
<polygon fill="#ffffb3" stroke="transparent" points="14,-10 14,-30 34,-30 34,-10 14,-10"/>
<text text-anchor="start" x="37.63" y="-15.4" font-family="sans-serif" font-size="14.00"> &#160;Declarations</text>
<polygon fill="#8dd3c7" stroke="transparent" points="127,-10 127,-30 147,-30 147,-10 127,-10"/>
<text text-anchor="start" x="150.73" y="-15.4" font-family="sans-serif" font-size="14.00"> &#160;Module</text>
<polygon fill="#80b1d3" stroke="transparent" points="213,-10 213,-30 233,-30 233,-10 213,-10"/>
<text text-anchor="start" x="236.78" y="-15.4" font-family="sans-serif" font-size="14.00"> &#160;Bootstrap</text>
<polygon fill="#fdb462" stroke="transparent" points="310,-10 310,-30 330,-30 330,-10 310,-10"/>
<text text-anchor="start" x="333.67" y="-15.4" font-family="sans-serif" font-size="14.00"> &#160;Providers</text>
<polygon fill="#fb8072" stroke="transparent" points="406,-10 406,-30 426,-30 426,-10 406,-10"/>
<text text-anchor="start" x="429.73" y="-15.4" font-family="sans-serif" font-size="14.00"> &#160;Exports</text>
<g id="clust1" class="cluster">
<title>cluster_StoreFinderCoreModule</title>
<polygon fill="none" stroke="black" stroke-dasharray="1,5" points="45,-70 45,-195 451,-195 451,-70 45,-70"/>
</g>
<g id="clust6" class="cluster">
<title>cluster_StoreFinderCoreModule_providers</title>
<polygon fill="none" stroke="black" points="233,-78 233,-130 443,-130 443,-78 233,-78"/>
</g>
<g id="clust3" class="cluster">
<title>cluster_StoreFinderCoreModule_imports</title>
<polygon fill="none" stroke="black" points="53,-78 53,-130 225,-130 225,-78 53,-78"/>
</g>
<!-- StoreFinderStoreModule -->
<g id="node1" class="node">
<title>StoreFinderStoreModule</title>
<polygon fill="#8dd3c7" stroke="black" points="216.7,-122 213.7,-126 192.7,-126 189.7,-122 61.3,-122 61.3,-86 216.7,-86 216.7,-122"/>
<text text-anchor="middle" x="139" y="-99.8" font-family="Times,serif" font-size="14.00">StoreFinderStoreModule</text>
</g>
<!-- StoreFinderCoreModule -->
<g id="node2" class="node">
<title>StoreFinderCoreModule</title>
<polygon fill="#8dd3c7" stroke="black" points="314.36,-187 311.36,-191 290.36,-191 287.36,-187 161.64,-187 161.64,-151 314.36,-151 314.36,-187"/>
<text text-anchor="middle" x="238" y="-164.8" font-family="Times,serif" font-size="14.00">StoreFinderCoreModule</text>
</g>
<!-- StoreFinderStoreModule&#45;&gt;StoreFinderCoreModule -->
<g id="edge1" class="edge">
<title>StoreFinderStoreModule&#45;&gt;StoreFinderCoreModule</title>
<path fill="none" stroke="black" d="M189.08,-122.11C189.08,-122.11 189.08,-140.99 189.08,-140.99"/>
<polygon fill="black" stroke="black" points="185.58,-140.99 189.08,-150.99 192.58,-140.99 185.58,-140.99"/>
</g>
<!-- StoreFinderConnector -->
<g id="node3" class="node">
<title>StoreFinderConnector</title>
<ellipse fill="#fdb462" stroke="black" cx="338" cy="-104" rx="96.71" ry="18"/>
<text text-anchor="middle" x="338" y="-99.8" font-family="Times,serif" font-size="14.00">StoreFinderConnector</text>
</g>
<!-- StoreFinderConnector&#45;&gt;StoreFinderCoreModule -->
<g id="edge2" class="edge">
<title>StoreFinderConnector&#45;&gt;StoreFinderCoreModule</title>
<path fill="none" stroke="black" d="M277.79,-118.1C277.79,-118.1 277.79,-140.72 277.79,-140.72"/>
<polygon fill="black" stroke="black" points="274.29,-140.72 277.79,-150.72 281.29,-140.72 274.29,-140.72"/>
</g>
</g>
</svg>
