<?xml version="1.0" encoding="UTF-8" standalone="no"?>
<!DOCTYPE svg PUBLIC "-//W3C//DTD SVG 1.1//EN"
 "http://www.w3.org/Graphics/SVG/1.1/DTD/svg11.dtd">
<!-- Generated by graphviz version 2.47.3 (20210619.1520)
 -->
<!-- Title: dependencies Pages: 1 -->
<svg width="616pt" height="247pt"
 viewBox="0.00 0.00 616.00 246.80" xmlns="http://www.w3.org/2000/svg" xmlns:xlink="http://www.w3.org/1999/xlink">
<g id="graph0" class="graph" transform="scale(1 1) rotate(0) translate(4 242.8)">
<title>dependencies</title>
<polygon fill="white" stroke="transparent" points="-4,4 -4,-242.8 612,-242.8 612,4 -4,4"/>
<text text-anchor="middle" x="304" y="-8.2" font-family="sans-serif" font-size="14.00">dependencies</text>
<g id="clust1" class="cluster">
<title>cluster_PageLayoutModule</title>
<polygon fill="none" stroke="black" stroke-dasharray="1,5" points="8,-32.8 8,-230.8 600,-230.8 600,-32.8 8,-32.8"/>
</g>
<g id="clust2" class="cluster">
<title>cluster_PageLayoutModule_declarations</title>
<polygon fill="none" stroke="black" points="262,-40.8 262,-92.8 592,-92.8 592,-40.8 262,-40.8"/>
</g>
<g id="clust6" class="cluster">
<title>cluster_PageLayoutModule_exports</title>
<polygon fill="none" stroke="black" points="100,-170.8 100,-222.8 438,-222.8 438,-170.8 100,-170.8"/>
</g>
<g id="clust5" class="cluster">
<title>cluster_PageLayoutModule_imports</title>
<polygon fill="none" stroke="black" points="16,-40.8 16,-92.8 254,-92.8 254,-40.8 16,-40.8"/>
</g>
<!-- PageLayoutComponent -->
<g id="node1" class="node">
<title>PageLayoutComponent</title>
<polygon fill="#ffffb3" stroke="black" points="584.2,-84.8 435.8,-84.8 435.8,-48.8 584.2,-48.8 584.2,-84.8"/>
<text text-anchor="middle" x="510" y="-62.6" font-family="Times,serif" font-size="14.00">PageLayoutComponent</text>
</g>
<!-- PageLayoutModule -->
<g id="node3" class="node">
<title>PageLayoutModule</title>
<polygon fill="#8dd3c7" stroke="black" points="331.42,-149.8 328.42,-153.8 307.42,-153.8 304.42,-149.8 204.58,-149.8 204.58,-113.8 331.42,-113.8 331.42,-149.8"/>
<text text-anchor="middle" x="268" y="-127.6" font-family="Times,serif" font-size="14.00">PageLayoutModule</text>
</g>
<!-- PageLayoutComponent&#45;&gt;PageLayoutModule -->
<g id="edge1" class="edge">
<title>PageLayoutComponent&#45;&gt;PageLayoutModule</title>
<path fill="none" stroke="black" d="M510,-84.91C510,-104.14 510,-131.8 510,-131.8 510,-131.8 341.27,-131.8 341.27,-131.8"/>
<polygon fill="black" stroke="black" points="341.27,-128.3 331.27,-131.8 341.27,-135.3 341.27,-128.3"/>
</g>
<!-- PageTemplateDirective -->
<g id="node2" class="node">
<title>PageTemplateDirective</title>
<polygon fill="#ffffb3" stroke="black" points="418.16,-84.8 269.84,-84.8 269.84,-48.8 418.16,-48.8 418.16,-84.8"/>
<text text-anchor="middle" x="344" y="-62.6" font-family="Times,serif" font-size="14.00">PageTemplateDirective</text>
</g>
<!-- PageTemplateDirective&#45;&gt;PageLayoutModule -->
<g id="edge2" class="edge">
<title>PageTemplateDirective&#45;&gt;PageLayoutModule</title>
<path fill="none" stroke="black" d="M300.56,-84.91C300.56,-84.91 300.56,-103.79 300.56,-103.79"/>
<polygon fill="black" stroke="black" points="297.06,-103.79 300.56,-113.79 304.06,-103.79 297.06,-103.79"/>
</g>
<!-- PageLayoutComponent  -->
<g id="node6" class="node">
<title>PageLayoutComponent </title>
<polygon fill="#fb8072" stroke="black" points="429.7,-214.8 278.3,-214.8 278.3,-178.8 429.7,-178.8 429.7,-214.8"/>
<text text-anchor="middle" x="354" y="-192.6" font-family="Times,serif" font-size="14.00">PageLayoutComponent </text>
</g>
<!-- PageLayoutModule&#45;&gt;PageLayoutComponent  -->
<g id="edge5" class="edge">
<title>PageLayoutModule&#45;&gt;PageLayoutComponent </title>
<path fill="none" stroke="black" stroke-dasharray="5,2" d="M304.68,-149.91C304.68,-149.91 304.68,-168.79 304.68,-168.79"/>
<polygon fill="black" stroke="black" points="301.18,-168.79 304.68,-178.79 308.18,-168.79 301.18,-168.79"/>
</g>
<!-- PageTemplateDirective  -->
<g id="node7" class="node">
<title>PageTemplateDirective </title>
<polygon fill="#fb8072" stroke="black" points="259.66,-214.8 108.34,-214.8 108.34,-178.8 259.66,-178.8 259.66,-214.8"/>
<text text-anchor="middle" x="184" y="-192.6" font-family="Times,serif" font-size="14.00">PageTemplateDirective </text>
</g>
<!-- PageLayoutModule&#45;&gt;PageTemplateDirective  -->
<g id="edge6" class="edge">
<title>PageLayoutModule&#45;&gt;PageTemplateDirective </title>
<path fill="none" stroke="black" stroke-dasharray="5,2" d="M232.31,-149.91C232.31,-149.91 232.31,-168.79 232.31,-168.79"/>
<polygon fill="black" stroke="black" points="228.81,-168.79 232.31,-178.79 235.81,-168.79 228.81,-168.79"/>
</g>
<!-- OutletModule -->
<g id="node4" class="node">
<title>OutletModule</title>
<polygon fill="#8dd3c7" stroke="black" points="246.04,-84.8 243.04,-88.8 222.04,-88.8 219.04,-84.8 151.96,-84.8 151.96,-48.8 246.04,-48.8 246.04,-84.8"/>
<text text-anchor="middle" x="199" y="-62.6" font-family="Times,serif" font-size="14.00">OutletModule</text>
</g>
<!-- OutletModule&#45;&gt;PageLayoutModule -->
<g id="edge3" class="edge">
<title>OutletModule&#45;&gt;PageLayoutModule</title>
<path fill="none" stroke="black" d="M225.53,-84.91C225.53,-84.91 225.53,-103.79 225.53,-103.79"/>
<polygon fill="black" stroke="black" points="222.03,-103.79 225.53,-113.79 229.03,-103.79 222.03,-103.79"/>
</g>
<!-- PageSlotModule -->
<g id="node5" class="node">
<title>PageSlotModule</title>
<polygon fill="#8dd3c7" stroke="black" points="133.83,-84.8 130.83,-88.8 109.83,-88.8 106.83,-84.8 24.17,-84.8 24.17,-48.8 133.83,-48.8 133.83,-84.8"/>
<text text-anchor="middle" x="79" y="-62.6" font-family="Times,serif" font-size="14.00">PageSlotModule</text>
</g>
<!-- PageSlotModule&#45;&gt;PageLayoutModule -->
<g id="edge4" class="edge">
<title>PageSlotModule&#45;&gt;PageLayoutModule</title>
<path fill="none" stroke="black" d="M120.92,-84.91C120.92,-104.14 120.92,-131.8 120.92,-131.8 120.92,-131.8 194.77,-131.8 194.77,-131.8"/>
<polygon fill="black" stroke="black" points="194.77,-135.3 204.77,-131.8 194.77,-128.3 194.77,-135.3"/>
</g>
</g>
</svg>
