<?xml version="1.0" encoding="UTF-8" standalone="no"?>
<!DOCTYPE svg PUBLIC "-//W3C//DTD SVG 1.1//EN"
 "http://www.w3.org/Graphics/SVG/1.1/DTD/svg11.dtd">
<!-- Generated by graphviz version 2.40.1 (20161225.0304)
 -->
<!-- Title: dependencies Pages: 1 -->
<svg width="616pt" height="284pt"
 viewBox="0.00 0.00 616.00 284.00" xmlns="http://www.w3.org/2000/svg" xmlns:xlink="http://www.w3.org/1999/xlink">
<g id="graph0" class="graph" transform="scale(1 1) rotate(0) translate(4 280)">
<title>dependencies</title>
<polygon fill="#ffffff" stroke="transparent" points="-4,4 -4,-280 612,-280 612,4 -4,4"/>
<text text-anchor="start" x="283.0091" y="-42.4" font-family="sans-serif" font-weight="bold" font-size="14.00" fill="#000000">Legend</text>
<polygon fill="#ffffb3" stroke="transparent" points="70,-10 70,-30 90,-30 90,-10 70,-10"/>
<text text-anchor="start" x="93.629" y="-15.4" font-family="sans-serif" font-size="14.00" fill="#000000"> &#160;Declarations</text>
<polygon fill="#8dd3c7" stroke="transparent" points="183,-10 183,-30 203,-30 203,-10 183,-10"/>
<text text-anchor="start" x="206.7251" y="-15.4" font-family="sans-serif" font-size="14.00" fill="#000000"> &#160;Module</text>
<polygon fill="#80b1d3" stroke="transparent" points="269,-10 269,-30 289,-30 289,-10 269,-10"/>
<text text-anchor="start" x="292.7812" y="-15.4" font-family="sans-serif" font-size="14.00" fill="#000000"> &#160;Bootstrap</text>
<polygon fill="#fdb462" stroke="transparent" points="366,-10 366,-30 386,-30 386,-10 366,-10"/>
<text text-anchor="start" x="389.6732" y="-15.4" font-family="sans-serif" font-size="14.00" fill="#000000"> &#160;Providers</text>
<polygon fill="#fb8072" stroke="transparent" points="462,-10 462,-30 482,-30 482,-10 462,-10"/>
<text text-anchor="start" x="485.7258" y="-15.4" font-family="sans-serif" font-size="14.00" fill="#000000"> &#160;Exports</text>
<g id="clust1" class="cluster">
<title>cluster_PageLayoutModule</title>
<polygon fill="none" stroke="#000000" stroke-dasharray="1,5" points="8,-70 8,-268 600,-268 600,-70 8,-70"/>
</g>
<g id="clust2" class="cluster">
<title>cluster_PageLayoutModule_declarations</title>
<polygon fill="none" stroke="#000000" points="262,-78 262,-130 592,-130 592,-78 262,-78"/>
</g>
<g id="clust5" class="cluster">
<title>cluster_PageLayoutModule_imports</title>
<polygon fill="none" stroke="#000000" points="16,-78 16,-130 254,-130 254,-78 16,-78"/>
</g>
<g id="clust6" class="cluster">
<title>cluster_PageLayoutModule_exports</title>
<polygon fill="none" stroke="#000000" points="100,-208 100,-260 438,-260 438,-208 100,-208"/>
</g>
<!-- PageLayoutComponent -->
<g id="node1" class="node">
<title>PageLayoutComponent</title>
<polygon fill="#ffffb3" stroke="#000000" points="584.2021,-122 435.7979,-122 435.7979,-86 584.2021,-86 584.2021,-122"/>
<text text-anchor="middle" x="510" y="-99.8" font-family="Times,serif" font-size="14.00" fill="#000000">PageLayoutComponent</text>
</g>
<!-- PageLayoutModule -->
<g id="node3" class="node">
<title>PageLayoutModule</title>
<polygon fill="#8dd3c7" stroke="#000000" points="331.4201,-187 328.4201,-191 307.4201,-191 304.4201,-187 204.5799,-187 204.5799,-151 331.4201,-151 331.4201,-187"/>
<text text-anchor="middle" x="268" y="-164.8" font-family="Times,serif" font-size="14.00" fill="#000000">PageLayoutModule</text>
</g>
<!-- PageLayoutComponent&#45;&gt;PageLayoutModule -->
<g id="edge1" class="edge">
<title>PageLayoutComponent&#45;&gt;PageLayoutModule</title>
<path fill="none" stroke="#000000" d="M510,-122.1061C510,-141.3391 510,-169 510,-169 510,-169 341.2666,-169 341.2666,-169"/>
<polygon fill="#000000" stroke="#000000" points="341.2666,-165.5001 331.2666,-169 341.2665,-172.5001 341.2666,-165.5001"/>
</g>
<!-- PageTemplateDirective -->
<g id="node2" class="node">
<title>PageTemplateDirective</title>
<polygon fill="#ffffb3" stroke="#000000" points="418.1629,-122 269.8371,-122 269.8371,-86 418.1629,-86 418.1629,-122"/>
<text text-anchor="middle" x="344" y="-99.8" font-family="Times,serif" font-size="14.00" fill="#000000">PageTemplateDirective</text>
</g>
<!-- PageTemplateDirective&#45;&gt;PageLayoutModule -->
<g id="edge2" class="edge">
<title>PageTemplateDirective&#45;&gt;PageLayoutModule</title>
<path fill="none" stroke="#000000" d="M300.5642,-122.1061C300.5642,-122.1061 300.5642,-140.991 300.5642,-140.991"/>
<polygon fill="#000000" stroke="#000000" points="297.0642,-140.9909 300.5642,-150.991 304.0642,-140.991 297.0642,-140.9909"/>
</g>
<!-- PageLayoutComponent  -->
<g id="node6" class="node">
<title>PageLayoutComponent </title>
<polygon fill="#fb8072" stroke="#000000" points="429.7023,-252 278.2977,-252 278.2977,-216 429.7023,-216 429.7023,-252"/>
<text text-anchor="middle" x="354" y="-229.8" font-family="Times,serif" font-size="14.00" fill="#000000">PageLayoutComponent </text>
</g>
<!-- PageLayoutModule&#45;&gt;PageLayoutComponent  -->
<g id="edge5" class="edge">
<title>PageLayoutModule&#45;&gt;PageLayoutComponent </title>
<path fill="none" stroke="#000000" stroke-dasharray="5,2" d="M304.6794,-187.1061C304.6794,-187.1061 304.6794,-205.991 304.6794,-205.991"/>
<polygon fill="#000000" stroke="#000000" points="301.1794,-205.9909 304.6794,-215.991 308.1794,-205.991 301.1794,-205.9909"/>
</g>
<!-- PageTemplateDirective  -->
<g id="node7" class="node">
<title>PageTemplateDirective </title>
<polygon fill="#fb8072" stroke="#000000" points="259.6632,-252 108.3368,-252 108.3368,-216 259.6632,-216 259.6632,-252"/>
<text text-anchor="middle" x="184" y="-229.8" font-family="Times,serif" font-size="14.00" fill="#000000">PageTemplateDirective </text>
</g>
<!-- PageLayoutModule&#45;&gt;PageTemplateDirective  -->
<g id="edge6" class="edge">
<title>PageLayoutModule&#45;&gt;PageTemplateDirective </title>
<path fill="none" stroke="#000000" stroke-dasharray="5,2" d="M232.3109,-187.1061C232.3109,-187.1061 232.3109,-205.991 232.3109,-205.991"/>
<polygon fill="#000000" stroke="#000000" points="228.8109,-205.9909 232.3109,-215.991 235.8109,-205.991 228.8109,-205.9909"/>
</g>
<!-- OutletModule -->
<g id="node4" class="node">
<title>OutletModule</title>
<polygon fill="#8dd3c7" stroke="#000000" points="246.0439,-122 243.0439,-126 222.0439,-126 219.0439,-122 151.9561,-122 151.9561,-86 246.0439,-86 246.0439,-122"/>
<text text-anchor="middle" x="199" y="-99.8" font-family="Times,serif" font-size="14.00" fill="#000000">OutletModule</text>
</g>
<!-- OutletModule&#45;&gt;PageLayoutModule -->
<g id="edge3" class="edge">
<title>OutletModule&#45;&gt;PageLayoutModule</title>
<path fill="none" stroke="#000000" d="M225.5309,-122.1061C225.5309,-122.1061 225.5309,-140.991 225.5309,-140.991"/>
<polygon fill="#000000" stroke="#000000" points="222.0309,-140.9909 225.5309,-150.991 229.0309,-140.991 222.0309,-140.9909"/>
</g>
<!-- PageSlotModule -->
<g id="node5" class="node">
<title>PageSlotModule</title>
<polygon fill="#8dd3c7" stroke="#000000" points="133.8259,-122 130.8259,-126 109.8259,-126 106.8259,-122 24.1741,-122 24.1741,-86 133.8259,-86 133.8259,-122"/>
<text text-anchor="middle" x="79" y="-99.8" font-family="Times,serif" font-size="14.00" fill="#000000">PageSlotModule</text>
</g>
<!-- PageSlotModule&#45;&gt;PageLayoutModule -->
<g id="edge4" class="edge">
<title>PageSlotModule&#45;&gt;PageLayoutModule</title>
<path fill="none" stroke="#000000" d="M120.9157,-122.1061C120.9157,-141.3391 120.9157,-169 120.9157,-169 120.9157,-169 194.7694,-169 194.7694,-169"/>
<polygon fill="#000000" stroke="#000000" points="194.7694,-172.5001 204.7694,-169 194.7694,-165.5001 194.7694,-172.5001"/>
</g>
</g>
</svg>
