<?xml version="1.0" encoding="UTF-8" standalone="no"?>
<!DOCTYPE svg PUBLIC "-//W3C//DTD SVG 1.1//EN"
 "http://www.w3.org/Graphics/SVG/1.1/DTD/svg11.dtd">
<!-- Generated by graphviz version 2.47.0 (20210316.0004)
 -->
<!-- Title: dependencies Pages: 1 -->
<svg width="681pt" height="211pt"
 viewBox="0.00 0.00 681.00 211.00" xmlns="http://www.w3.org/2000/svg" xmlns:xlink="http://www.w3.org/1999/xlink">
<g id="graph0" class="graph" transform="scale(1 1) rotate(0) translate(4 207)">
<title>dependencies</title>
<polygon fill="white" stroke="transparent" points="-4,4 -4,-207 677,-207 677,4 -4,4"/>
<text text-anchor="start" x="315.51" y="-42.4" font-family="sans-serif" font-weight="bold" font-size="14.00">Legend</text>
<polygon fill="#ffffb3" stroke="transparent" points="102.5,-10 102.5,-30 122.5,-30 122.5,-10 102.5,-10"/>
<text text-anchor="start" x="126.13" y="-15.4" font-family="sans-serif" font-size="14.00"> &#160;Declarations</text>
<polygon fill="#8dd3c7" stroke="transparent" points="215.5,-10 215.5,-30 235.5,-30 235.5,-10 215.5,-10"/>
<text text-anchor="start" x="239.23" y="-15.4" font-family="sans-serif" font-size="14.00"> &#160;Module</text>
<polygon fill="#80b1d3" stroke="transparent" points="301.5,-10 301.5,-30 321.5,-30 321.5,-10 301.5,-10"/>
<text text-anchor="start" x="325.28" y="-15.4" font-family="sans-serif" font-size="14.00"> &#160;Bootstrap</text>
<polygon fill="#fdb462" stroke="transparent" points="398.5,-10 398.5,-30 418.5,-30 418.5,-10 398.5,-10"/>
<text text-anchor="start" x="422.17" y="-15.4" font-family="sans-serif" font-size="14.00"> &#160;Providers</text>
<polygon fill="#fb8072" stroke="transparent" points="494.5,-10 494.5,-30 514.5,-30 514.5,-10 494.5,-10"/>
<text text-anchor="start" x="518.23" y="-15.4" font-family="sans-serif" font-size="14.00"> &#160;Exports</text>
<g id="clust1" class="cluster">
<title>cluster_UpdateEmailModule</title>
<polygon fill="none" stroke="black" stroke-dasharray="1,5" points="8,-70 8,-195 665,-195 665,-70 8,-70"/>
</g>
<g id="clust2" class="cluster">
<title>cluster_UpdateEmailModule_declarations</title>
<polygon fill="none" stroke="black" points="485,-78 485,-130 657,-130 657,-78 485,-78"/>
</g>
<g id="clust4" class="cluster">
<title>cluster_UpdateEmailModule_imports</title>
<polygon fill="none" stroke="black" points="16,-78 16,-130 477,-130 477,-78 16,-78"/>
</g>
<!-- UpdateEmailComponent -->
<g id="node1" class="node">
<title>UpdateEmailComponent</title>
<polygon fill="#ffffb3" stroke="black" points="648.7,-122 493.3,-122 493.3,-86 648.7,-86 648.7,-122"/>
<text text-anchor="middle" x="571" y="-99.8" font-family="Times,serif" font-size="14.00">UpdateEmailComponent</text>
</g>
<!-- UpdateEmailModule -->
<g id="node2" class="node">
<title>UpdateEmailModule</title>
<polygon fill="#8dd3c7" stroke="black" points="350.92,-187 347.92,-191 326.92,-191 323.92,-187 217.08,-187 217.08,-151 350.92,-151 350.92,-187"/>
<text text-anchor="middle" x="284" y="-164.8" font-family="Times,serif" font-size="14.00">UpdateEmailModule</text>
</g>
<!-- UpdateEmailComponent&#45;&gt;UpdateEmailModule -->
<g id="edge1" class="edge">
<title>UpdateEmailComponent&#45;&gt;UpdateEmailModule</title>
<path fill="none" stroke="black" d="M571,-122.11C571,-141.34 571,-169 571,-169 571,-169 360.93,-169 360.93,-169"/>
<polygon fill="black" stroke="black" points="360.93,-165.5 350.93,-169 360.93,-172.5 360.93,-165.5"/>
</g>
<!-- FormErrorsModule -->
<g id="node3" class="node">
<title>FormErrorsModule</title>
<polygon fill="#8dd3c7" stroke="black" points="469.36,-122 466.36,-126 445.36,-126 442.36,-122 344.64,-122 344.64,-86 469.36,-86 469.36,-122"/>
<text text-anchor="middle" x="407" y="-99.8" font-family="Times,serif" font-size="14.00">FormErrorsModule</text>
</g>
<!-- FormErrorsModule&#45;&gt;UpdateEmailModule -->
<g id="edge2" class="edge">
<title>FormErrorsModule&#45;&gt;UpdateEmailModule</title>
<path fill="none" stroke="black" d="M344.63,-104C339.13,-104 335.59,-104 335.59,-104 335.59,-104 335.59,-140.89 335.59,-140.89"/>
<polygon fill="black" stroke="black" points="332.09,-140.89 335.59,-150.89 339.09,-140.89 332.09,-140.89"/>
</g>
<!-- I18nModule -->
<g id="node4" class="node">
<title>I18nModule</title>
<polygon fill="#8dd3c7" stroke="black" points="326.71,-122 323.71,-126 302.71,-126 299.71,-122 241.29,-122 241.29,-86 326.71,-86 326.71,-122"/>
<text text-anchor="middle" x="284" y="-99.8" font-family="Times,serif" font-size="14.00">I18nModule</text>
</g>
<!-- I18nModule&#45;&gt;UpdateEmailModule -->
<g id="edge3" class="edge">
<title>I18nModule&#45;&gt;UpdateEmailModule</title>
<path fill="none" stroke="black" d="M284,-122.11C284,-122.11 284,-140.99 284,-140.99"/>
<polygon fill="black" stroke="black" points="280.5,-140.99 284,-150.99 287.5,-140.99 280.5,-140.99"/>
</g>
<!-- SpinnerModule -->
<g id="node5" class="node">
<title>SpinnerModule</title>
<polygon fill="#8dd3c7" stroke="black" points="223.6,-122 220.6,-126 199.6,-126 196.6,-122 120.4,-122 120.4,-86 223.6,-86 223.6,-122"/>
<text text-anchor="middle" x="172" y="-99.8" font-family="Times,serif" font-size="14.00">SpinnerModule</text>
</g>
<!-- SpinnerModule&#45;&gt;UpdateEmailModule -->
<g id="edge4" class="edge">
<title>SpinnerModule&#45;&gt;UpdateEmailModule</title>
<path fill="none" stroke="black" d="M223.55,-104C228.92,-104 232.47,-104 232.47,-104 232.47,-104 232.47,-140.89 232.47,-140.89"/>
<polygon fill="black" stroke="black" points="228.97,-140.89 232.47,-150.89 235.97,-140.89 228.97,-140.89"/>
</g>
<!-- UrlModule -->
<g id="node6" class="node">
<title>UrlModule</title>
<polygon fill="#8dd3c7" stroke="black" points="102.21,-122 99.21,-126 78.21,-126 75.21,-122 23.79,-122 23.79,-86 102.21,-86 102.21,-122"/>
<text text-anchor="middle" x="63" y="-99.8" font-family="Times,serif" font-size="14.00">UrlModule</text>
</g>
<!-- UrlModule&#45;&gt;UpdateEmailModule -->
<g id="edge5" class="edge">
<title>UrlModule&#45;&gt;UpdateEmailModule</title>
<path fill="none" stroke="black" d="M63,-122.11C63,-141.34 63,-169 63,-169 63,-169 207.09,-169 207.09,-169"/>
<polygon fill="black" stroke="black" points="207.09,-172.5 217.09,-169 207.09,-165.5 207.09,-172.5"/>
</g>
</g>
</svg>
