<?xml version="1.0" encoding="UTF-8" standalone="no"?>
<!DOCTYPE svg PUBLIC "-//W3C//DTD SVG 1.1//EN"
 "http://www.w3.org/Graphics/SVG/1.1/DTD/svg11.dtd">
<!-- Generated by graphviz version 2.47.0 (20210316.0004)
 -->
<!-- Title: dependencies Pages: 1 -->
<svg width="642pt" height="284pt"
 viewBox="0.00 0.00 642.00 284.00" xmlns="http://www.w3.org/2000/svg" xmlns:xlink="http://www.w3.org/1999/xlink">
<g id="graph0" class="graph" transform="scale(1 1) rotate(0) translate(4 280)">
<title>dependencies</title>
<polygon fill="white" stroke="transparent" points="-4,4 -4,-280 638,-280 638,4 -4,4"/>
<text text-anchor="start" x="296.01" y="-42.4" font-family="sans-serif" font-weight="bold" font-size="14.00">Legend</text>
<polygon fill="#ffffb3" stroke="transparent" points="83,-10 83,-30 103,-30 103,-10 83,-10"/>
<text text-anchor="start" x="106.63" y="-15.4" font-family="sans-serif" font-size="14.00"> &#160;Declarations</text>
<polygon fill="#8dd3c7" stroke="transparent" points="196,-10 196,-30 216,-30 216,-10 196,-10"/>
<text text-anchor="start" x="219.73" y="-15.4" font-family="sans-serif" font-size="14.00"> &#160;Module</text>
<polygon fill="#80b1d3" stroke="transparent" points="282,-10 282,-30 302,-30 302,-10 282,-10"/>
<text text-anchor="start" x="305.78" y="-15.4" font-family="sans-serif" font-size="14.00"> &#160;Bootstrap</text>
<polygon fill="#fdb462" stroke="transparent" points="379,-10 379,-30 399,-30 399,-10 379,-10"/>
<text text-anchor="start" x="402.67" y="-15.4" font-family="sans-serif" font-size="14.00"> &#160;Providers</text>
<polygon fill="#fb8072" stroke="transparent" points="475,-10 475,-30 495,-30 495,-10 475,-10"/>
<text text-anchor="start" x="498.73" y="-15.4" font-family="sans-serif" font-size="14.00"> &#160;Exports</text>
<g id="clust1" class="cluster">
<title>cluster_FacetModule</title>
<polygon fill="none" stroke="black" stroke-dasharray="1,5" points="8,-70 8,-268 626,-268 626,-70 8,-70"/>
</g>
<g id="clust4" class="cluster">
<title>cluster_FacetModule_imports</title>
<polygon fill="none" stroke="black" points="152,-78 152,-130 618,-130 618,-78 152,-78"/>
</g>
<g id="clust5" class="cluster">
<title>cluster_FacetModule_exports</title>
<polygon fill="none" stroke="black" points="264,-208 264,-260 396,-260 396,-208 264,-208"/>
</g>
<g id="clust2" class="cluster">
<title>cluster_FacetModule_declarations</title>
<polygon fill="none" stroke="black" points="16,-78 16,-130 144,-130 144,-78 16,-78"/>
</g>
<!-- FacetComponent -->
<g id="node1" class="node">
<title>FacetComponent</title>
<polygon fill="#ffffb3" stroke="black" points="135.65,-122 24.35,-122 24.35,-86 135.65,-86 135.65,-122"/>
<text text-anchor="middle" x="80" y="-99.8" font-family="Times,serif" font-size="14.00">FacetComponent</text>
</g>
<!-- FacetModule -->
<g id="node2" class="node">
<title>FacetModule</title>
<polygon fill="#8dd3c7" stroke="black" points="374.87,-187 371.87,-191 350.87,-191 347.87,-187 285.13,-187 285.13,-151 374.87,-151 374.87,-187"/>
<text text-anchor="middle" x="330" y="-164.8" font-family="Times,serif" font-size="14.00">FacetModule</text>
</g>
<!-- FacetComponent&#45;&gt;FacetModule -->
<g id="edge1" class="edge">
<title>FacetComponent&#45;&gt;FacetModule</title>
<path fill="none" stroke="black" d="M80,-122.28C80,-143.32 80,-175 80,-175 80,-175 275.02,-175 275.02,-175"/>
<polygon fill="black" stroke="black" points="275.02,-178.5 285.02,-175 275.02,-171.5 275.02,-178.5"/>
</g>
<!-- FacetComponent  -->
<g id="node7" class="node">
<title>FacetComponent </title>
<polygon fill="#fb8072" stroke="black" points="387.65,-252 272.35,-252 272.35,-216 387.65,-216 387.65,-252"/>
<text text-anchor="middle" x="330" y="-229.8" font-family="Times,serif" font-size="14.00">FacetComponent </text>
</g>
<!-- FacetModule&#45;&gt;FacetComponent  -->
<g id="edge6" class="edge">
<title>FacetModule&#45;&gt;FacetComponent </title>
<path fill="none" stroke="black" stroke-dasharray="5,2" d="M330,-187.11C330,-187.11 330,-205.99 330,-205.99"/>
<polygon fill="black" stroke="black" points="326.5,-205.99 330,-215.99 333.5,-205.99 326.5,-205.99"/>
</g>
<!-- I18nModule -->
<g id="node3" class="node">
<title>I18nModule</title>
<polygon fill="#8dd3c7" stroke="black" points="609.71,-122 606.71,-126 585.71,-126 582.71,-122 524.29,-122 524.29,-86 609.71,-86 609.71,-122"/>
<text text-anchor="middle" x="567" y="-99.8" font-family="Times,serif" font-size="14.00">I18nModule</text>
</g>
<!-- I18nModule&#45;&gt;FacetModule -->
<g id="edge2" class="edge">
<title>I18nModule&#45;&gt;FacetModule</title>
<path fill="none" stroke="black" d="M567,-122.28C567,-143.32 567,-175 567,-175 567,-175 385.14,-175 385.14,-175"/>
<polygon fill="black" stroke="black" points="385.14,-171.5 375.14,-175 385.14,-178.5 385.14,-171.5"/>
</g>
<!-- IconModule -->
<g id="node4" class="node">
<title>IconModule</title>
<polygon fill="#8dd3c7" stroke="black" points="506.43,-122 503.43,-126 482.43,-126 479.43,-122 421.57,-122 421.57,-86 506.43,-86 506.43,-122"/>
<text text-anchor="middle" x="464" y="-99.8" font-family="Times,serif" font-size="14.00">IconModule</text>
</g>
<!-- IconModule&#45;&gt;FacetModule -->
<g id="edge3" class="edge">
<title>IconModule&#45;&gt;FacetModule</title>
<path fill="none" stroke="black" d="M464,-122.02C464,-139.37 464,-163 464,-163 464,-163 384.99,-163 384.99,-163"/>
<polygon fill="black" stroke="black" points="384.99,-159.5 374.99,-163 384.99,-166.5 384.99,-159.5"/>
</g>
<!-- KeyboardFocusModule -->
<g id="node5" class="node">
<title>KeyboardFocusModule</title>
<polygon fill="#8dd3c7" stroke="black" points="404.19,-122 401.19,-126 380.19,-126 377.19,-122 255.81,-122 255.81,-86 404.19,-86 404.19,-122"/>
<text text-anchor="middle" x="330" y="-99.8" font-family="Times,serif" font-size="14.00">KeyboardFocusModule</text>
</g>
<!-- KeyboardFocusModule&#45;&gt;FacetModule -->
<g id="edge4" class="edge">
<title>KeyboardFocusModule&#45;&gt;FacetModule</title>
<path fill="none" stroke="black" d="M330,-122.11C330,-122.11 330,-140.99 330,-140.99"/>
<polygon fill="black" stroke="black" points="326.5,-140.99 330,-150.99 333.5,-140.99 326.5,-140.99"/>
</g>
<!-- UrlModule -->
<g id="node6" class="node">
<title>UrlModule</title>
<polygon fill="#8dd3c7" stroke="black" points="238.21,-122 235.21,-126 214.21,-126 211.21,-122 159.79,-122 159.79,-86 238.21,-86 238.21,-122"/>
<text text-anchor="middle" x="199" y="-99.8" font-family="Times,serif" font-size="14.00">UrlModule</text>
</g>
<!-- UrlModule&#45;&gt;FacetModule -->
<g id="edge5" class="edge">
<title>UrlModule&#45;&gt;FacetModule</title>
<path fill="none" stroke="black" d="M199,-122.02C199,-139.37 199,-163 199,-163 199,-163 274.92,-163 274.92,-163"/>
<polygon fill="black" stroke="black" points="274.92,-166.5 284.92,-163 274.92,-159.5 274.92,-166.5"/>
</g>
</g>
</svg>
