<?xml version="1.0" encoding="UTF-8" standalone="no"?>
<!DOCTYPE svg PUBLIC "-//W3C//DTD SVG 1.1//EN"
 "http://www.w3.org/Graphics/SVG/1.1/DTD/svg11.dtd">
<!-- Generated by graphviz version 2.47.0 (20210316.0004)
 -->
<!-- Title: dependencies Pages: 1 -->
<svg width="504pt" height="284pt"
 viewBox="0.00 0.00 504.00 284.00" xmlns="http://www.w3.org/2000/svg" xmlns:xlink="http://www.w3.org/1999/xlink">
<g id="graph0" class="graph" transform="scale(1 1) rotate(0) translate(4 280)">
<title>dependencies</title>
<polygon fill="white" stroke="transparent" points="-4,4 -4,-280 500,-280 500,4 -4,4"/>
<text text-anchor="start" x="227.01" y="-42.4" font-family="sans-serif" font-weight="bold" font-size="14.00">Legend</text>
<polygon fill="#ffffb3" stroke="transparent" points="14,-10 14,-30 34,-30 34,-10 14,-10"/>
<text text-anchor="start" x="37.63" y="-15.4" font-family="sans-serif" font-size="14.00"> &#160;Declarations</text>
<polygon fill="#8dd3c7" stroke="transparent" points="127,-10 127,-30 147,-30 147,-10 127,-10"/>
<text text-anchor="start" x="150.73" y="-15.4" font-family="sans-serif" font-size="14.00"> &#160;Module</text>
<polygon fill="#80b1d3" stroke="transparent" points="213,-10 213,-30 233,-30 233,-10 213,-10"/>
<text text-anchor="start" x="236.78" y="-15.4" font-family="sans-serif" font-size="14.00"> &#160;Bootstrap</text>
<polygon fill="#fdb462" stroke="transparent" points="310,-10 310,-30 330,-30 330,-10 310,-10"/>
<text text-anchor="start" x="333.67" y="-15.4" font-family="sans-serif" font-size="14.00"> &#160;Providers</text>
<polygon fill="#fb8072" stroke="transparent" points="406,-10 406,-30 426,-30 426,-10 406,-10"/>
<text text-anchor="start" x="429.73" y="-15.4" font-family="sans-serif" font-size="14.00"> &#160;Exports</text>
<g id="clust1" class="cluster">
<title>cluster_VariantSizeSelectorModule</title>
<polygon fill="none" stroke="black" stroke-dasharray="1,5" points="32,-70 32,-268 464,-268 464,-70 32,-70"/>
</g>
<g id="clust5" class="cluster">
<title>cluster_VariantSizeSelectorModule_exports</title>
<polygon fill="none" stroke="black" points="199,-208 199,-260 411,-260 411,-208 199,-208"/>
</g>
<g id="clust4" class="cluster">
<title>cluster_VariantSizeSelectorModule_imports</title>
<polygon fill="none" stroke="black" points="258,-78 258,-130 456,-130 456,-78 258,-78"/>
</g>
<g id="clust2" class="cluster">
<title>cluster_VariantSizeSelectorModule_declarations</title>
<polygon fill="none" stroke="black" points="40,-78 40,-130 250,-130 250,-78 40,-78"/>
</g>
<!-- VariantSizeSelectorComponent -->
<g id="node1" class="node">
<title>VariantSizeSelectorComponent</title>
<polygon fill="#ffffb3" stroke="black" points="241.78,-122 48.22,-122 48.22,-86 241.78,-86 241.78,-122"/>
<text text-anchor="middle" x="145" y="-99.8" font-family="Times,serif" font-size="14.00">VariantSizeSelectorComponent</text>
</g>
<!-- VariantSizeSelectorModule -->
<g id="node2" class="node">
<title>VariantSizeSelectorModule</title>
<polygon fill="#8dd3c7" stroke="black" points="391,-187 388,-191 367,-191 364,-187 219,-187 219,-151 391,-151 391,-187"/>
<text text-anchor="middle" x="305" y="-164.8" font-family="Times,serif" font-size="14.00">VariantSizeSelectorModule</text>
</g>
<!-- VariantSizeSelectorComponent&#45;&gt;VariantSizeSelectorModule -->
<g id="edge1" class="edge">
<title>VariantSizeSelectorComponent&#45;&gt;VariantSizeSelectorModule</title>
<path fill="none" stroke="black" d="M230.45,-122.11C230.45,-122.11 230.45,-140.99 230.45,-140.99"/>
<polygon fill="black" stroke="black" points="226.95,-140.99 230.45,-150.99 233.95,-140.99 226.95,-140.99"/>
</g>
<!-- VariantSizeSelectorComponent  -->
<g id="node5" class="node">
<title>VariantSizeSelectorComponent </title>
<polygon fill="#fb8072" stroke="black" points="403.28,-252 206.72,-252 206.72,-216 403.28,-216 403.28,-252"/>
<text text-anchor="middle" x="305" y="-229.8" font-family="Times,serif" font-size="14.00">VariantSizeSelectorComponent </text>
</g>
<!-- VariantSizeSelectorModule&#45;&gt;VariantSizeSelectorComponent  -->
<g id="edge4" class="edge">
<title>VariantSizeSelectorModule&#45;&gt;VariantSizeSelectorComponent </title>
<path fill="none" stroke="black" stroke-dasharray="5,2" d="M305,-187.11C305,-187.11 305,-205.99 305,-205.99"/>
<polygon fill="black" stroke="black" points="301.5,-205.99 305,-215.99 308.5,-205.99 301.5,-205.99"/>
</g>
<!-- I18nModule -->
<g id="node3" class="node">
<title>I18nModule</title>
<polygon fill="#8dd3c7" stroke="black" points="447.71,-122 444.71,-126 423.71,-126 420.71,-122 362.29,-122 362.29,-86 447.71,-86 447.71,-122"/>
<text text-anchor="middle" x="405" y="-99.8" font-family="Times,serif" font-size="14.00">I18nModule</text>
</g>
<!-- I18nModule&#45;&gt;VariantSizeSelectorModule -->
<g id="edge2" class="edge">
<title>I18nModule&#45;&gt;VariantSizeSelectorModule</title>
<path fill="none" stroke="black" d="M376.57,-122.11C376.57,-122.11 376.57,-140.99 376.57,-140.99"/>
<polygon fill="black" stroke="black" points="373.07,-140.99 376.57,-150.99 380.07,-140.99 373.07,-140.99"/>
</g>
<!-- UrlModule -->
<g id="node4" class="node">
<title>UrlModule</title>
<polygon fill="#8dd3c7" stroke="black" points="344.21,-122 341.21,-126 320.21,-126 317.21,-122 265.79,-122 265.79,-86 344.21,-86 344.21,-122"/>
<text text-anchor="middle" x="305" y="-99.8" font-family="Times,serif" font-size="14.00">UrlModule</text>
</g>
<!-- UrlModule&#45;&gt;VariantSizeSelectorModule -->
<g id="edge3" class="edge">
<title>UrlModule&#45;&gt;VariantSizeSelectorModule</title>
<path fill="none" stroke="black" d="M305,-122.11C305,-122.11 305,-140.99 305,-140.99"/>
<polygon fill="black" stroke="black" points="301.5,-140.99 305,-150.99 308.5,-140.99 301.5,-140.99"/>
</g>
</g>
</svg>
