<?xml version="1.0" encoding="UTF-8" standalone="no"?>
<!DOCTYPE svg PUBLIC "-//W3C//DTD SVG 1.1//EN"
 "http://www.w3.org/Graphics/SVG/1.1/DTD/svg11.dtd">
<!-- Generated by graphviz version 2.47.3 (20210619.1520)
 -->
<!-- Title: dependencies Pages: 1 -->
<svg width="475pt" height="247pt"
 viewBox="0.00 0.00 475.00 246.80" xmlns="http://www.w3.org/2000/svg" xmlns:xlink="http://www.w3.org/1999/xlink">
<g id="graph0" class="graph" transform="scale(1 1) rotate(0) translate(4 242.8)">
<title>dependencies</title>
<polygon fill="white" stroke="transparent" points="-4,4 -4,-242.8 471,-242.8 471,4 -4,4"/>
<text text-anchor="middle" x="233.5" y="-8.2" font-family="sans-serif" font-size="14.00">dependencies</text>
<g id="clust1" class="cluster">
<title>cluster_BannerCarouselModule</title>
<polygon fill="none" stroke="black" stroke-dasharray="1,5" points="8,-32.8 8,-230.8 459,-230.8 459,-32.8 8,-32.8"/>
</g>
<g id="clust4" class="cluster">
<title>cluster_BannerCarouselModule_imports</title>
<polygon fill="none" stroke="black" points="212,-40.8 212,-92.8 451,-92.8 451,-40.8 212,-40.8"/>
</g>
<g id="clust5" class="cluster">
<title>cluster_BannerCarouselModule_exports</title>
<polygon fill="none" stroke="black" points="172,-170.8 172,-222.8 364,-222.8 364,-170.8 172,-170.8"/>
</g>
<g id="clust2" class="cluster">
<title>cluster_BannerCarouselModule_declarations</title>
<polygon fill="none" stroke="black" points="16,-40.8 16,-92.8 204,-92.8 204,-40.8 16,-40.8"/>
</g>
<!-- BannerCarouselComponent -->
<g id="node1" class="node">
<title>BannerCarouselComponent</title>
<polygon fill="#ffffb3" stroke="black" points="195.52,-84.8 24.48,-84.8 24.48,-48.8 195.52,-48.8 195.52,-84.8"/>
<text text-anchor="middle" x="110" y="-62.6" font-family="Times,serif" font-size="14.00">BannerCarouselComponent</text>
</g>
<!-- BannerCarouselModule -->
<g id="node2" class="node">
<title>BannerCarouselModule</title>
<polygon fill="#8dd3c7" stroke="black" points="342.74,-149.8 339.74,-153.8 318.74,-153.8 315.74,-149.8 193.26,-149.8 193.26,-113.8 342.74,-113.8 342.74,-149.8"/>
<text text-anchor="middle" x="268" y="-127.6" font-family="Times,serif" font-size="14.00">BannerCarouselModule</text>
</g>
<!-- BannerCarouselComponent&#45;&gt;BannerCarouselModule -->
<g id="edge1" class="edge">
<title>BannerCarouselComponent&#45;&gt;BannerCarouselModule</title>
<path fill="none" stroke="black" d="M186.81,-84.91C186.81,-104.14 186.81,-131.8 186.81,-131.8 186.81,-131.8 187.45,-131.8 187.45,-131.8"/>
<polygon fill="black" stroke="black" points="183.18,-135.3 193.18,-131.8 183.18,-128.3 183.18,-135.3"/>
</g>
<!-- BannerCarouselComponent  -->
<g id="node5" class="node">
<title>BannerCarouselComponent </title>
<polygon fill="#fb8072" stroke="black" points="355.52,-214.8 180.48,-214.8 180.48,-178.8 355.52,-178.8 355.52,-214.8"/>
<text text-anchor="middle" x="268" y="-192.6" font-family="Times,serif" font-size="14.00">BannerCarouselComponent </text>
</g>
<!-- BannerCarouselModule&#45;&gt;BannerCarouselComponent  -->
<g id="edge4" class="edge">
<title>BannerCarouselModule&#45;&gt;BannerCarouselComponent </title>
<path fill="none" stroke="black" stroke-dasharray="5,2" d="M268,-149.91C268,-149.91 268,-168.79 268,-168.79"/>
<polygon fill="black" stroke="black" points="264.5,-168.79 268,-178.79 271.5,-168.79 264.5,-168.79"/>
</g>
<!-- CarouselModule -->
<g id="node3" class="node">
<title>CarouselModule</title>
<polygon fill="#8dd3c7" stroke="black" points="442.81,-84.8 439.81,-88.8 418.81,-88.8 415.81,-84.8 333.19,-84.8 333.19,-48.8 442.81,-48.8 442.81,-84.8"/>
<text text-anchor="middle" x="388" y="-62.6" font-family="Times,serif" font-size="14.00">CarouselModule</text>
</g>
<!-- CarouselModule&#45;&gt;BannerCarouselModule -->
<g id="edge2" class="edge">
<title>CarouselModule&#45;&gt;BannerCarouselModule</title>
<path fill="none" stroke="black" d="M338.11,-84.91C338.11,-84.91 338.11,-103.79 338.11,-103.79"/>
<polygon fill="black" stroke="black" points="334.61,-103.79 338.11,-113.79 341.61,-103.79 334.61,-103.79"/>
</g>
<!-- MediaModule -->
<g id="node4" class="node">
<title>MediaModule</title>
<polygon fill="#8dd3c7" stroke="black" points="315.81,-84.8 312.81,-88.8 291.81,-88.8 288.81,-84.8 220.19,-84.8 220.19,-48.8 315.81,-48.8 315.81,-84.8"/>
<text text-anchor="middle" x="268" y="-62.6" font-family="Times,serif" font-size="14.00">MediaModule</text>
</g>
<!-- MediaModule&#45;&gt;BannerCarouselModule -->
<g id="edge3" class="edge">
<title>MediaModule&#45;&gt;BannerCarouselModule</title>
<path fill="none" stroke="black" d="M268,-84.91C268,-84.91 268,-103.79 268,-103.79"/>
<polygon fill="black" stroke="black" points="264.5,-103.79 268,-113.79 271.5,-103.79 264.5,-103.79"/>
</g>
</g>
</svg>
