<?xml version="1.0" encoding="UTF-8" standalone="no"?>
<!DOCTYPE svg PUBLIC "-//W3C//DTD SVG 1.1//EN"
 "http://www.w3.org/Graphics/SVG/1.1/DTD/svg11.dtd">
<!-- Generated by graphviz version 2.40.1 (20161225.0304)
 -->
<!-- Title: dependencies Pages: 1 -->
<svg width="504pt" height="284pt"
 viewBox="0.00 0.00 504.00 284.00" xmlns="http://www.w3.org/2000/svg" xmlns:xlink="http://www.w3.org/1999/xlink">
<g id="graph0" class="graph" transform="scale(1 1) rotate(0) translate(4 280)">
<title>dependencies</title>
<polygon fill="#ffffff" stroke="transparent" points="-4,4 -4,-280 500,-280 500,4 -4,4"/>
<text text-anchor="start" x="227.0091" y="-42.4" font-family="sans-serif" font-weight="bold" font-size="14.00" fill="#000000">Legend</text>
<polygon fill="#ffffb3" stroke="transparent" points="14,-10 14,-30 34,-30 34,-10 14,-10"/>
<text text-anchor="start" x="37.629" y="-15.4" font-family="sans-serif" font-size="14.00" fill="#000000"> &#160;Declarations</text>
<polygon fill="#8dd3c7" stroke="transparent" points="127,-10 127,-30 147,-30 147,-10 127,-10"/>
<text text-anchor="start" x="150.7251" y="-15.4" font-family="sans-serif" font-size="14.00" fill="#000000"> &#160;Module</text>
<polygon fill="#80b1d3" stroke="transparent" points="213,-10 213,-30 233,-30 233,-10 213,-10"/>
<text text-anchor="start" x="236.7812" y="-15.4" font-family="sans-serif" font-size="14.00" fill="#000000"> &#160;Bootstrap</text>
<polygon fill="#fdb462" stroke="transparent" points="310,-10 310,-30 330,-30 330,-10 310,-10"/>
<text text-anchor="start" x="333.6732" y="-15.4" font-family="sans-serif" font-size="14.00" fill="#000000"> &#160;Providers</text>
<polygon fill="#fb8072" stroke="transparent" points="406,-10 406,-30 426,-30 426,-10 406,-10"/>
<text text-anchor="start" x="429.7258" y="-15.4" font-family="sans-serif" font-size="14.00" fill="#000000"> &#160;Exports</text>
<g id="clust1" class="cluster">
<title>cluster_BannerCarouselModule</title>
<polygon fill="none" stroke="#000000" stroke-dasharray="1,5" points="22.5,-70 22.5,-268 473.5,-268 473.5,-70 22.5,-70"/>
</g>
<g id="clust2" class="cluster">
<title>cluster_BannerCarouselModule_declarations</title>
<polygon fill="none" stroke="#000000" points="277.5,-78 277.5,-130 465.5,-130 465.5,-78 277.5,-78"/>
</g>
<g id="clust4" class="cluster">
<title>cluster_BannerCarouselModule_imports</title>
<polygon fill="none" stroke="#000000" points="30.5,-78 30.5,-130 269.5,-130 269.5,-78 30.5,-78"/>
</g>
<g id="clust5" class="cluster">
<title>cluster_BannerCarouselModule_exports</title>
<polygon fill="none" stroke="#000000" points="110.5,-208 110.5,-260 302.5,-260 302.5,-208 110.5,-208"/>
</g>
<!-- BannerCarouselComponent -->
<g id="node1" class="node">
<title>BannerCarouselComponent</title>
<polygon fill="#ffffb3" stroke="#000000" points="457.0211,-122 285.9789,-122 285.9789,-86 457.0211,-86 457.0211,-122"/>
<text text-anchor="middle" x="371.5" y="-99.8" font-family="Times,serif" font-size="14.00" fill="#000000">BannerCarouselComponent</text>
</g>
<!-- BannerCarouselModule -->
<g id="node2" class="node">
<title>BannerCarouselModule</title>
<polygon fill="#8dd3c7" stroke="#000000" points="281.238,-187 278.238,-191 257.238,-191 254.238,-187 131.762,-187 131.762,-151 281.238,-151 281.238,-187"/>
<text text-anchor="middle" x="206.5" y="-164.8" font-family="Times,serif" font-size="14.00" fill="#000000">BannerCarouselModule</text>
</g>
<!-- BannerCarouselComponent&#45;&gt;BannerCarouselModule -->
<g id="edge1" class="edge">
<title>BannerCarouselComponent&#45;&gt;BannerCarouselModule</title>
<path fill="none" stroke="#000000" d="M289.875,-122.1061C289.875,-141.3391 289.875,-169 289.875,-169 289.875,-169 289.0141,-169 289.0141,-169"/>
<polygon fill="#000000" stroke="#000000" points="291.2665,-165.5001 281.2664,-169 291.2664,-172.5001 291.2665,-165.5001"/>
</g>
<!-- BannerCarouselComponent  -->
<g id="node5" class="node">
<title>BannerCarouselComponent </title>
<polygon fill="#fb8072" stroke="#000000" points="294.0204,-252 118.9796,-252 118.9796,-216 294.0204,-216 294.0204,-252"/>
<text text-anchor="middle" x="206.5" y="-229.8" font-family="Times,serif" font-size="14.00" fill="#000000">BannerCarouselComponent </text>
</g>
<!-- BannerCarouselModule&#45;&gt;BannerCarouselComponent  -->
<g id="edge4" class="edge">
<title>BannerCarouselModule&#45;&gt;BannerCarouselComponent </title>
<path fill="none" stroke="#000000" stroke-dasharray="5,2" d="M206.5,-187.1061C206.5,-187.1061 206.5,-205.991 206.5,-205.991"/>
<polygon fill="#000000" stroke="#000000" points="203.0001,-205.9909 206.5,-215.991 210.0001,-205.991 203.0001,-205.9909"/>
</g>
<!-- CarouselModule -->
<g id="node3" class="node">
<title>CarouselModule</title>
<polygon fill="#8dd3c7" stroke="#000000" points="261.3118,-122 258.3118,-126 237.3118,-126 234.3118,-122 151.6882,-122 151.6882,-86 261.3118,-86 261.3118,-122"/>
<text text-anchor="middle" x="206.5" y="-99.8" font-family="Times,serif" font-size="14.00" fill="#000000">CarouselModule</text>
</g>
<!-- CarouselModule&#45;&gt;BannerCarouselModule -->
<g id="edge2" class="edge">
<title>CarouselModule&#45;&gt;BannerCarouselModule</title>
<path fill="none" stroke="#000000" d="M206.5,-122.1061C206.5,-122.1061 206.5,-140.991 206.5,-140.991"/>
<polygon fill="#000000" stroke="#000000" points="203.0001,-140.9909 206.5,-150.991 210.0001,-140.991 203.0001,-140.9909"/>
</g>
<!-- MediaModule -->
<g id="node4" class="node">
<title>MediaModule</title>
<polygon fill="#8dd3c7" stroke="#000000" points="134.3147,-122 131.3147,-126 110.3147,-126 107.3147,-122 38.6853,-122 38.6853,-86 134.3147,-86 134.3147,-122"/>
<text text-anchor="middle" x="86.5" y="-99.8" font-family="Times,serif" font-size="14.00" fill="#000000">MediaModule</text>
</g>
<!-- MediaModule&#45;&gt;BannerCarouselModule -->
<g id="edge3" class="edge">
<title>MediaModule&#45;&gt;BannerCarouselModule</title>
<path fill="none" stroke="#000000" d="M125.3105,-122.1061C125.3105,-141.3391 125.3105,-169 125.3105,-169 125.3105,-169 125.9475,-169 125.9475,-169"/>
<polygon fill="#000000" stroke="#000000" points="121.6813,-172.5002 131.6813,-169 121.6812,-165.5002 121.6813,-172.5002"/>
</g>
</g>
</svg>
