<?xml version="1.0" encoding="UTF-8" standalone="no"?>
<!DOCTYPE svg PUBLIC "-//W3C//DTD SVG 1.1//EN"
 "http://www.w3.org/Graphics/SVG/1.1/DTD/svg11.dtd">
<!-- Generated by graphviz version 2.40.1 (20161225.0304)
 -->
<!-- Title: dependencies Pages: 1 -->
<svg width="592pt" height="284pt"
 viewBox="0.00 0.00 592.00 284.00" xmlns="http://www.w3.org/2000/svg" xmlns:xlink="http://www.w3.org/1999/xlink">
<g id="graph0" class="graph" transform="scale(1 1) rotate(0) translate(4 280)">
<title>dependencies</title>
<polygon fill="#ffffff" stroke="transparent" points="-4,4 -4,-280 588,-280 588,4 -4,4"/>
<text text-anchor="start" x="271.0091" y="-42.4" font-family="sans-serif" font-weight="bold" font-size="14.00" fill="#000000">Legend</text>
<polygon fill="#ffffb3" stroke="transparent" points="58,-10 58,-30 78,-30 78,-10 58,-10"/>
<text text-anchor="start" x="81.629" y="-15.4" font-family="sans-serif" font-size="14.00" fill="#000000"> &#160;Declarations</text>
<polygon fill="#8dd3c7" stroke="transparent" points="171,-10 171,-30 191,-30 191,-10 171,-10"/>
<text text-anchor="start" x="194.7251" y="-15.4" font-family="sans-serif" font-size="14.00" fill="#000000"> &#160;Module</text>
<polygon fill="#80b1d3" stroke="transparent" points="257,-10 257,-30 277,-30 277,-10 257,-10"/>
<text text-anchor="start" x="280.7812" y="-15.4" font-family="sans-serif" font-size="14.00" fill="#000000"> &#160;Bootstrap</text>
<polygon fill="#fdb462" stroke="transparent" points="354,-10 354,-30 374,-30 374,-10 354,-10"/>
<text text-anchor="start" x="377.6732" y="-15.4" font-family="sans-serif" font-size="14.00" fill="#000000"> &#160;Providers</text>
<polygon fill="#fb8072" stroke="transparent" points="450,-10 450,-30 470,-30 470,-10 450,-10"/>
<text text-anchor="start" x="473.7258" y="-15.4" font-family="sans-serif" font-size="14.00" fill="#000000"> &#160;Exports</text>
<g id="clust1" class="cluster">
<title>cluster_BannerCarouselModule</title>
<polygon fill="none" stroke="#000000" stroke-dasharray="1,5" points="8,-70 8,-268 576,-268 576,-70 8,-70"/>
</g>
<g id="clust2" class="cluster">
<title>cluster_BannerCarouselModule_declarations</title>
<polygon fill="none" stroke="#000000" points="380,-78 380,-130 568,-130 568,-78 380,-78"/>
</g>
<g id="clust4" class="cluster">
<title>cluster_BannerCarouselModule_imports</title>
<polygon fill="none" stroke="#000000" points="16,-78 16,-130 372,-130 372,-78 16,-78"/>
</g>
<g id="clust5" class="cluster">
<title>cluster_BannerCarouselModule_exports</title>
<polygon fill="none" stroke="#000000" points="152,-208 152,-260 344,-260 344,-208 152,-208"/>
</g>
<!-- BannerCarouselComponent -->
<g id="node1" class="node">
<title>BannerCarouselComponent</title>
<polygon fill="#ffffb3" stroke="#000000" points="559.5211,-122 388.4789,-122 388.4789,-86 559.5211,-86 559.5211,-122"/>
<text text-anchor="middle" x="474" y="-99.8" font-family="Times,serif" font-size="14.00" fill="#000000">BannerCarouselComponent</text>
</g>
<!-- BannerCarouselModule -->
<g id="node2" class="node">
<title>BannerCarouselModule</title>
<polygon fill="#8dd3c7" stroke="#000000" points="322.738,-187 319.738,-191 298.738,-191 295.738,-187 173.262,-187 173.262,-151 322.738,-151 322.738,-187"/>
<text text-anchor="middle" x="248" y="-164.8" font-family="Times,serif" font-size="14.00" fill="#000000">BannerCarouselModule</text>
</g>
<!-- BannerCarouselComponent&#45;&gt;BannerCarouselModule -->
<g id="edge1" class="edge">
<title>BannerCarouselComponent&#45;&gt;BannerCarouselModule</title>
<path fill="none" stroke="#000000" d="M474,-122.1061C474,-141.3391 474,-169 474,-169 474,-169 332.9408,-169 332.9408,-169"/>
<polygon fill="#000000" stroke="#000000" points="332.9408,-165.5001 322.9408,-169 332.9408,-172.5001 332.9408,-165.5001"/>
</g>
<!-- BannerCarouselComponent  -->
<g id="node6" class="node">
<title>BannerCarouselComponent </title>
<polygon fill="#fb8072" stroke="#000000" points="335.5204,-252 160.4796,-252 160.4796,-216 335.5204,-216 335.5204,-252"/>
<text text-anchor="middle" x="248" y="-229.8" font-family="Times,serif" font-size="14.00" fill="#000000">BannerCarouselComponent </text>
</g>
<!-- BannerCarouselModule&#45;&gt;BannerCarouselComponent  -->
<g id="edge5" class="edge">
<title>BannerCarouselModule&#45;&gt;BannerCarouselComponent </title>
<path fill="none" stroke="#000000" stroke-dasharray="5,2" d="M248,-187.1061C248,-187.1061 248,-205.991 248,-205.991"/>
<polygon fill="#000000" stroke="#000000" points="244.5001,-205.9909 248,-215.991 251.5001,-205.991 244.5001,-205.9909"/>
</g>
<!-- CarouselModule -->
<g id="node3" class="node">
<title>CarouselModule</title>
<polygon fill="#8dd3c7" stroke="#000000" points="363.8118,-122 360.8118,-126 339.8118,-126 336.8118,-122 254.1882,-122 254.1882,-86 363.8118,-86 363.8118,-122"/>
<text text-anchor="middle" x="309" y="-99.8" font-family="Times,serif" font-size="14.00" fill="#000000">CarouselModule</text>
</g>
<!-- CarouselModule&#45;&gt;BannerCarouselModule -->
<g id="edge2" class="edge">
<title>CarouselModule&#45;&gt;BannerCarouselModule</title>
<path fill="none" stroke="#000000" d="M288.6066,-122.1061C288.6066,-122.1061 288.6066,-140.991 288.6066,-140.991"/>
<polygon fill="#000000" stroke="#000000" points="285.1067,-140.9909 288.6066,-150.991 292.1067,-140.991 285.1067,-140.9909"/>
</g>
<!-- ConfigModule -->
<g id="node4" class="node">
<title>ConfigModule</title>
<polygon fill="#8dd3c7" stroke="#000000" points="236.4386,-122 233.4386,-126 212.4386,-126 209.4386,-122 137.5614,-122 137.5614,-86 236.4386,-86 236.4386,-122"/>
<text text-anchor="middle" x="187" y="-99.8" font-family="Times,serif" font-size="14.00" fill="#000000">ConfigModule</text>
</g>
<!-- ConfigModule&#45;&gt;BannerCarouselModule -->
<g id="edge3" class="edge">
<title>ConfigModule&#45;&gt;BannerCarouselModule</title>
<path fill="none" stroke="#000000" d="M204.675,-122.1061C204.675,-122.1061 204.675,-140.991 204.675,-140.991"/>
<polygon fill="#000000" stroke="#000000" points="201.175,-140.9909 204.675,-150.991 208.175,-140.991 201.175,-140.9909"/>
</g>
<!-- MediaModule -->
<g id="node5" class="node">
<title>MediaModule</title>
<polygon fill="#8dd3c7" stroke="#000000" points="119.8147,-122 116.8147,-126 95.8147,-126 92.8147,-122 24.1853,-122 24.1853,-86 119.8147,-86 119.8147,-122"/>
<text text-anchor="middle" x="72" y="-99.8" font-family="Times,serif" font-size="14.00" fill="#000000">MediaModule</text>
</g>
<!-- MediaModule&#45;&gt;BannerCarouselModule -->
<g id="edge4" class="edge">
<title>MediaModule&#45;&gt;BannerCarouselModule</title>
<path fill="none" stroke="#000000" d="M72,-122.1061C72,-141.3391 72,-169 72,-169 72,-169 163.105,-169 163.105,-169"/>
<polygon fill="#000000" stroke="#000000" points="163.105,-172.5001 173.105,-169 163.1049,-165.5001 163.105,-172.5001"/>
</g>
</g>
</svg>
