<?xml version="1.0" encoding="UTF-8" standalone="no"?>
<!DOCTYPE svg PUBLIC "-//W3C//DTD SVG 1.1//EN"
 "http://www.w3.org/Graphics/SVG/1.1/DTD/svg11.dtd">
<!-- Generated by graphviz version 2.47.3 (20210619.1520)
 -->
<!-- Title: dependencies Pages: 1 -->
<svg width="1318pt" height="285pt"
 viewBox="0.00 0.00 1318.00 285.39" xmlns="http://www.w3.org/2000/svg" xmlns:xlink="http://www.w3.org/1999/xlink">
<g id="graph0" class="graph" transform="scale(1 1) rotate(0) translate(4 281.39)">
<title>dependencies</title>
<polygon fill="white" stroke="transparent" points="-4,4 -4,-281.39 1314,-281.39 1314,4 -4,4"/>
<text text-anchor="middle" x="655" y="-8.2" font-family="sans-serif" font-size="14.00">dependencies</text>
<g id="clust1" class="cluster">
<title>cluster_UserGroupDetailsModule</title>
<polygon fill="none" stroke="black" stroke-dasharray="1,5" points="8,-32.8 8,-269.39 1302,-269.39 1302,-32.8 8,-32.8"/>
</g>
<g id="clust4" class="cluster">
<title>cluster_UserGroupDetailsModule_imports</title>
<polygon fill="none" stroke="black" points="550,-152.39 550,-204.39 1294,-204.39 1294,-152.39 550,-152.39"/>
</g>
<g id="clust3" class="cluster">
<title>cluster_UserGroupDetailsModule_UserGroupDetailsComponent_providers</title>
<polygon fill="none" stroke="black" points="16,-40.8 16,-204.39 542,-204.39 542,-40.8 16,-40.8"/>
</g>
<!-- UserGroupDetailsComponent -->
<g id="node1" class="node">
<title>UserGroupDetailsComponent</title>
<polygon fill="#ffffb3" stroke="black" points="451.68,-196.39 268.32,-196.39 268.32,-160.39 451.68,-160.39 451.68,-196.39"/>
<text text-anchor="middle" x="360" y="-174.19" font-family="Times,serif" font-size="14.00">UserGroupDetailsComponent</text>
</g>
<!-- UserGroupDetailsModule -->
<g id="node2" class="node">
<title>UserGroupDetailsModule</title>
<polygon fill="#8dd3c7" stroke="black" points="960.9,-261.39 957.9,-265.39 936.9,-265.39 933.9,-261.39 799.1,-261.39 799.1,-225.39 960.9,-225.39 960.9,-261.39"/>
<text text-anchor="middle" x="880" y="-239.19" font-family="Times,serif" font-size="14.00">UserGroupDetailsModule</text>
</g>
<!-- UserGroupDetailsComponent&#45;&gt;UserGroupDetailsModule -->
<g id="edge1" class="edge">
<title>UserGroupDetailsComponent&#45;&gt;UserGroupDetailsModule</title>
<path fill="none" stroke="black" d="M360,-196.67C360,-217.71 360,-249.39 360,-249.39 360,-249.39 789.04,-249.39 789.04,-249.39"/>
<polygon fill="black" stroke="black" points="789.04,-252.89 799.04,-249.39 789.04,-245.89 789.04,-252.89"/>
</g>
<!-- {
 &#160;&#160;&#160;provide: ItemService, useExisting: UserGroupItemService,
} -->
<g id="node3" class="node">
<title>{
 &#160;&#160;&#160;provide: ItemService, useExisting: UserGroupItemService,
}</title>
<ellipse fill="#fdb462" stroke="black" cx="279" cy="-90.1" rx="255.3" ry="41.09"/>
<text text-anchor="middle" x="279" y="-102.7" font-family="Times,serif" font-size="14.00">{</text>
<text text-anchor="middle" x="279" y="-85.9" font-family="Times,serif" font-size="14.00"> &#160;&#160;&#160;provide: ItemService, useExisting: UserGroupItemService,</text>
<text text-anchor="middle" x="279" y="-69.1" font-family="Times,serif" font-size="14.00">}</text>
</g>
<!-- {
 &#160;&#160;&#160;provide: ItemService, useExisting: UserGroupItemService,
}&#45;&gt;UserGroupDetailsComponent -->
<g id="edge2" class="edge">
<title>{
 &#160;&#160;&#160;provide: ItemService, useExisting: UserGroupItemService,
}&#45;&gt;UserGroupDetailsComponent</title>
<path fill="none" stroke="black" d="M360,-129.34C360,-129.34 360,-150.01 360,-150.01"/>
<polygon fill="black" stroke="black" points="356.5,-150.01 360,-160.01 363.5,-150.01 356.5,-150.01"/>
</g>
<!-- CardModule -->
<g id="node4" class="node">
<title>CardModule</title>
<polygon fill="#8dd3c7" stroke="black" points="1286.26,-196.39 1283.26,-200.39 1262.26,-200.39 1259.26,-196.39 1199.74,-196.39 1199.74,-160.39 1286.26,-160.39 1286.26,-196.39"/>
<text text-anchor="middle" x="1243" y="-174.19" font-family="Times,serif" font-size="14.00">CardModule</text>
</g>
<!-- CardModule&#45;&gt;UserGroupDetailsModule -->
<g id="edge3" class="edge">
<title>CardModule&#45;&gt;UserGroupDetailsModule</title>
<path fill="none" stroke="black" d="M1243,-196.67C1243,-217.71 1243,-249.39 1243,-249.39 1243,-249.39 971.01,-249.39 971.01,-249.39"/>
<polygon fill="black" stroke="black" points="971.01,-245.89 961.01,-249.39 971.01,-252.89 971.01,-245.89"/>
</g>
<!-- DeleteItemModule -->
<g id="node5" class="node">
<title>DeleteItemModule</title>
<polygon fill="#8dd3c7" stroke="black" points="1181.74,-196.39 1178.74,-200.39 1157.74,-200.39 1154.74,-196.39 1060.26,-196.39 1060.26,-160.39 1181.74,-160.39 1181.74,-196.39"/>
<text text-anchor="middle" x="1121" y="-174.19" font-family="Times,serif" font-size="14.00">DeleteItemModule</text>
</g>
<!-- DeleteItemModule&#45;&gt;UserGroupDetailsModule -->
<g id="edge4" class="edge">
<title>DeleteItemModule&#45;&gt;UserGroupDetailsModule</title>
<path fill="none" stroke="black" d="M1121,-196.41C1121,-213.76 1121,-237.39 1121,-237.39 1121,-237.39 970.92,-237.39 970.92,-237.39"/>
<polygon fill="black" stroke="black" points="970.92,-233.89 960.92,-237.39 970.92,-240.89 970.92,-233.89"/>
</g>
<!-- I18nModule -->
<g id="node6" class="node">
<title>I18nModule</title>
<polygon fill="#8dd3c7" stroke="black" points="1042.71,-196.39 1039.71,-200.39 1018.71,-200.39 1015.71,-196.39 957.29,-196.39 957.29,-160.39 1042.71,-160.39 1042.71,-196.39"/>
<text text-anchor="middle" x="1000" y="-174.19" font-family="Times,serif" font-size="14.00">I18nModule</text>
</g>
<!-- I18nModule&#45;&gt;UserGroupDetailsModule -->
<g id="edge5" class="edge">
<title>I18nModule&#45;&gt;UserGroupDetailsModule</title>
<path fill="none" stroke="black" d="M957.05,-178.39C951.97,-178.39 948.55,-178.39 948.55,-178.39 948.55,-178.39 948.55,-215.28 948.55,-215.28"/>
<polygon fill="black" stroke="black" points="945.05,-215.28 948.55,-225.28 952.05,-215.28 945.05,-215.28"/>
</g>
<!-- ItemExistsModule -->
<g id="node7" class="node">
<title>ItemExistsModule</title>
<polygon fill="#8dd3c7" stroke="black" points="939.93,-196.39 936.93,-200.39 915.93,-200.39 912.93,-196.39 820.07,-196.39 820.07,-160.39 939.93,-160.39 939.93,-196.39"/>
<text text-anchor="middle" x="880" y="-174.19" font-family="Times,serif" font-size="14.00">ItemExistsModule</text>
</g>
<!-- ItemExistsModule&#45;&gt;UserGroupDetailsModule -->
<g id="edge6" class="edge">
<title>ItemExistsModule&#45;&gt;UserGroupDetailsModule</title>
<path fill="none" stroke="black" d="M880,-196.5C880,-196.5 880,-215.38 880,-215.38"/>
<polygon fill="black" stroke="black" points="876.5,-215.38 880,-225.38 883.5,-215.38 876.5,-215.38"/>
</g>
<!-- KeyboardFocusModule -->
<g id="node8" class="node">
<title>KeyboardFocusModule</title>
<polygon fill="#8dd3c7" stroke="black" points="802.19,-196.39 799.19,-200.39 778.19,-200.39 775.19,-196.39 653.81,-196.39 653.81,-160.39 802.19,-160.39 802.19,-196.39"/>
<text text-anchor="middle" x="728" y="-174.19" font-family="Times,serif" font-size="14.00">KeyboardFocusModule</text>
</g>
<!-- KeyboardFocusModule&#45;&gt;UserGroupDetailsModule -->
<g id="edge7" class="edge">
<title>KeyboardFocusModule&#45;&gt;UserGroupDetailsModule</title>
<path fill="none" stroke="black" d="M802.29,-178.39C807.76,-178.39 811.19,-178.39 811.19,-178.39 811.19,-178.39 811.19,-215.28 811.19,-215.28"/>
<polygon fill="black" stroke="black" points="807.69,-215.28 811.19,-225.28 814.69,-215.28 807.69,-215.28"/>
</g>
<!-- UrlModule -->
<g id="node9" class="node">
<title>UrlModule</title>
<polygon fill="#8dd3c7" stroke="black" points="636.21,-196.39 633.21,-200.39 612.21,-200.39 609.21,-196.39 557.79,-196.39 557.79,-160.39 636.21,-160.39 636.21,-196.39"/>
<text text-anchor="middle" x="597" y="-174.19" font-family="Times,serif" font-size="14.00">UrlModule</text>
</g>
<!-- UrlModule&#45;&gt;UserGroupDetailsModule -->
<g id="edge8" class="edge">
<title>UrlModule&#45;&gt;UserGroupDetailsModule</title>
<path fill="none" stroke="black" d="M597,-196.41C597,-213.76 597,-237.39 597,-237.39 597,-237.39 789.28,-237.39 789.28,-237.39"/>
<polygon fill="black" stroke="black" points="789.28,-240.89 799.28,-237.39 789.28,-233.89 789.28,-240.89"/>
</g>
</g>
</svg>
