<?xml version="1.0" encoding="UTF-8" standalone="no"?>
<!DOCTYPE svg PUBLIC "-//W3C//DTD SVG 1.1//EN"
 "http://www.w3.org/Graphics/SVG/1.1/DTD/svg11.dtd">
<!-- Generated by graphviz version 2.47.0 (20210316.0004)
 -->
<!-- Title: dependencies Pages: 1 -->
<svg width="992pt" height="323pt"
 viewBox="0.00 0.00 992.00 322.59" xmlns="http://www.w3.org/2000/svg" xmlns:xlink="http://www.w3.org/1999/xlink">
<g id="graph0" class="graph" transform="scale(1 1) rotate(0) translate(4 318.59)">
<title>dependencies</title>
<polygon fill="white" stroke="transparent" points="-4,4 -4,-318.59 988,-318.59 988,4 -4,4"/>
<text text-anchor="start" x="471.01" y="-42.4" font-family="sans-serif" font-weight="bold" font-size="14.00">Legend</text>
<polygon fill="#ffffb3" stroke="transparent" points="258,-10 258,-30 278,-30 278,-10 258,-10"/>
<text text-anchor="start" x="281.63" y="-15.4" font-family="sans-serif" font-size="14.00"> &#160;Declarations</text>
<polygon fill="#8dd3c7" stroke="transparent" points="371,-10 371,-30 391,-30 391,-10 371,-10"/>
<text text-anchor="start" x="394.73" y="-15.4" font-family="sans-serif" font-size="14.00"> &#160;Module</text>
<polygon fill="#80b1d3" stroke="transparent" points="457,-10 457,-30 477,-30 477,-10 457,-10"/>
<text text-anchor="start" x="480.78" y="-15.4" font-family="sans-serif" font-size="14.00"> &#160;Bootstrap</text>
<polygon fill="#fdb462" stroke="transparent" points="554,-10 554,-30 574,-30 574,-10 554,-10"/>
<text text-anchor="start" x="577.67" y="-15.4" font-family="sans-serif" font-size="14.00"> &#160;Providers</text>
<polygon fill="#fb8072" stroke="transparent" points="650,-10 650,-30 670,-30 670,-10 650,-10"/>
<text text-anchor="start" x="673.73" y="-15.4" font-family="sans-serif" font-size="14.00"> &#160;Exports</text>
<g id="clust1" class="cluster">
<title>cluster_UserGroupDetailsModule</title>
<polygon fill="none" stroke="black" stroke-dasharray="1,5" points="8,-70 8,-306.59 976,-306.59 976,-70 8,-70"/>
</g>
<g id="clust4" class="cluster">
<title>cluster_UserGroupDetailsModule_imports</title>
<polygon fill="none" stroke="black" points="224,-189.59 224,-241.59 968,-241.59 968,-189.59 224,-189.59"/>
</g>
<g id="clust2" class="cluster">
<title>cluster_UserGroupDetailsModule_declarations</title>
<polygon fill="none" stroke="black" points="16,-189.59 16,-241.59 216,-241.59 216,-189.59 16,-189.59"/>
</g>
<g id="clust3" class="cluster">
<title>cluster_UserGroupDetailsModule_UserGroupDetailsComponent_providers</title>
<polygon fill="none" stroke="black" points="16,-78 16,-176.59 542,-176.59 542,-78 16,-78"/>
</g>
<!-- UserGroupDetailsComponent -->
<g id="node1" class="node">
<title>UserGroupDetailsComponent</title>
<polygon fill="#ffffb3" stroke="black" points="207.68,-233.59 24.32,-233.59 24.32,-197.59 207.68,-197.59 207.68,-233.59"/>
<text text-anchor="middle" x="116" y="-211.39" font-family="Times,serif" font-size="14.00">UserGroupDetailsComponent</text>
</g>
<!-- UserGroupDetailsModule -->
<g id="node2" class="node">
<title>UserGroupDetailsModule</title>
<polygon fill="#8dd3c7" stroke="black" points="634.9,-298.59 631.9,-302.59 610.9,-302.59 607.9,-298.59 473.1,-298.59 473.1,-262.59 634.9,-262.59 634.9,-298.59"/>
<text text-anchor="middle" x="554" y="-276.39" font-family="Times,serif" font-size="14.00">UserGroupDetailsModule</text>
</g>
<!-- UserGroupDetailsComponent&#45;&gt;UserGroupDetailsModule -->
<g id="edge1" class="edge">
<title>UserGroupDetailsComponent&#45;&gt;UserGroupDetailsModule</title>
<path fill="none" stroke="black" d="M116,-233.87C116,-254.91 116,-286.59 116,-286.59 116,-286.59 463.15,-286.59 463.15,-286.59"/>
<polygon fill="black" stroke="black" points="463.15,-290.09 473.15,-286.59 463.15,-283.09 463.15,-290.09"/>
</g>
<!-- {
 &#160;&#160;&#160;provide: ItemService, useExisting: UserGroupItemService,
} -->
<g id="node3" class="node">
<title>{
 &#160;&#160;&#160;provide: ItemService, useExisting: UserGroupItemService,
}</title>
<ellipse fill="#fdb462" stroke="black" cx="279" cy="-127.3" rx="255.3" ry="41.09"/>
<text text-anchor="middle" x="279" y="-139.9" font-family="Times,serif" font-size="14.00">{</text>
<text text-anchor="middle" x="279" y="-123.1" font-family="Times,serif" font-size="14.00"> &#160;&#160;&#160;provide: ItemService, useExisting: UserGroupItemService,</text>
<text text-anchor="middle" x="279" y="-106.3" font-family="Times,serif" font-size="14.00">}</text>
</g>
<!-- {
 &#160;&#160;&#160;provide: ItemService, useExisting: UserGroupItemService,
}&#45;&gt;UserGroupDetailsComponent -->
<g id="edge2" class="edge">
<title>{
 &#160;&#160;&#160;provide: ItemService, useExisting: UserGroupItemService,
}&#45;&gt;UserGroupDetailsComponent</title>
<path fill="none" stroke="black" d="M116,-159.17C116,-159.17 116,-187.38 116,-187.38"/>
<polygon fill="black" stroke="black" points="112.5,-187.38 116,-197.38 119.5,-187.38 112.5,-187.38"/>
</g>
<!-- CardModule -->
<g id="node4" class="node">
<title>CardModule</title>
<polygon fill="#8dd3c7" stroke="black" points="960.26,-233.59 957.26,-237.59 936.26,-237.59 933.26,-233.59 873.74,-233.59 873.74,-197.59 960.26,-197.59 960.26,-233.59"/>
<text text-anchor="middle" x="917" y="-211.39" font-family="Times,serif" font-size="14.00">CardModule</text>
</g>
<!-- CardModule&#45;&gt;UserGroupDetailsModule -->
<g id="edge3" class="edge">
<title>CardModule&#45;&gt;UserGroupDetailsModule</title>
<path fill="none" stroke="black" d="M917,-233.87C917,-254.91 917,-286.59 917,-286.59 917,-286.59 645.01,-286.59 645.01,-286.59"/>
<polygon fill="black" stroke="black" points="645.01,-283.09 635.01,-286.59 645.01,-290.09 645.01,-283.09"/>
</g>
<!-- DeleteItemModule -->
<g id="node5" class="node">
<title>DeleteItemModule</title>
<polygon fill="#8dd3c7" stroke="black" points="855.74,-233.59 852.74,-237.59 831.74,-237.59 828.74,-233.59 734.26,-233.59 734.26,-197.59 855.74,-197.59 855.74,-233.59"/>
<text text-anchor="middle" x="795" y="-211.39" font-family="Times,serif" font-size="14.00">DeleteItemModule</text>
</g>
<!-- DeleteItemModule&#45;&gt;UserGroupDetailsModule -->
<g id="edge4" class="edge">
<title>DeleteItemModule&#45;&gt;UserGroupDetailsModule</title>
<path fill="none" stroke="black" d="M795,-233.61C795,-250.96 795,-274.59 795,-274.59 795,-274.59 644.92,-274.59 644.92,-274.59"/>
<polygon fill="black" stroke="black" points="644.92,-271.09 634.92,-274.59 644.92,-278.09 644.92,-271.09"/>
</g>
<!-- I18nModule -->
<g id="node6" class="node">
<title>I18nModule</title>
<polygon fill="#8dd3c7" stroke="black" points="716.71,-233.59 713.71,-237.59 692.71,-237.59 689.71,-233.59 631.29,-233.59 631.29,-197.59 716.71,-197.59 716.71,-233.59"/>
<text text-anchor="middle" x="674" y="-211.39" font-family="Times,serif" font-size="14.00">I18nModule</text>
</g>
<!-- I18nModule&#45;&gt;UserGroupDetailsModule -->
<g id="edge5" class="edge">
<title>I18nModule&#45;&gt;UserGroupDetailsModule</title>
<path fill="none" stroke="black" d="M631.05,-215.59C625.97,-215.59 622.55,-215.59 622.55,-215.59 622.55,-215.59 622.55,-252.48 622.55,-252.48"/>
<polygon fill="black" stroke="black" points="619.05,-252.48 622.55,-262.48 626.05,-252.48 619.05,-252.48"/>
</g>
<!-- ItemExistsModule -->
<g id="node7" class="node">
<title>ItemExistsModule</title>
<polygon fill="#8dd3c7" stroke="black" points="613.93,-233.59 610.93,-237.59 589.93,-237.59 586.93,-233.59 494.07,-233.59 494.07,-197.59 613.93,-197.59 613.93,-233.59"/>
<text text-anchor="middle" x="554" y="-211.39" font-family="Times,serif" font-size="14.00">ItemExistsModule</text>
</g>
<!-- ItemExistsModule&#45;&gt;UserGroupDetailsModule -->
<g id="edge6" class="edge">
<title>ItemExistsModule&#45;&gt;UserGroupDetailsModule</title>
<path fill="none" stroke="black" d="M554,-233.7C554,-233.7 554,-252.58 554,-252.58"/>
<polygon fill="black" stroke="black" points="550.5,-252.58 554,-262.58 557.5,-252.58 550.5,-252.58"/>
</g>
<!-- KeyboardFocusModule -->
<g id="node8" class="node">
<title>KeyboardFocusModule</title>
<polygon fill="#8dd3c7" stroke="black" points="476.19,-233.59 473.19,-237.59 452.19,-237.59 449.19,-233.59 327.81,-233.59 327.81,-197.59 476.19,-197.59 476.19,-233.59"/>
<text text-anchor="middle" x="402" y="-211.39" font-family="Times,serif" font-size="14.00">KeyboardFocusModule</text>
</g>
<!-- KeyboardFocusModule&#45;&gt;UserGroupDetailsModule -->
<g id="edge7" class="edge">
<title>KeyboardFocusModule&#45;&gt;UserGroupDetailsModule</title>
<path fill="none" stroke="black" d="M476.29,-215.59C481.76,-215.59 485.19,-215.59 485.19,-215.59 485.19,-215.59 485.19,-252.48 485.19,-252.48"/>
<polygon fill="black" stroke="black" points="481.69,-252.48 485.19,-262.48 488.69,-252.48 481.69,-252.48"/>
</g>
<!-- UrlModule -->
<g id="node9" class="node">
<title>UrlModule</title>
<polygon fill="#8dd3c7" stroke="black" points="310.21,-233.59 307.21,-237.59 286.21,-237.59 283.21,-233.59 231.79,-233.59 231.79,-197.59 310.21,-197.59 310.21,-233.59"/>
<text text-anchor="middle" x="271" y="-211.39" font-family="Times,serif" font-size="14.00">UrlModule</text>
</g>
<!-- UrlModule&#45;&gt;UserGroupDetailsModule -->
<g id="edge8" class="edge">
<title>UrlModule&#45;&gt;UserGroupDetailsModule</title>
<path fill="none" stroke="black" d="M271,-233.61C271,-250.96 271,-274.59 271,-274.59 271,-274.59 463.28,-274.59 463.28,-274.59"/>
<polygon fill="black" stroke="black" points="463.28,-278.09 473.28,-274.59 463.28,-271.09 463.28,-278.09"/>
</g>
</g>
</svg>
