<?xml version="1.0" encoding="UTF-8" standalone="no"?>
<!DOCTYPE svg PUBLIC "-//W3C//DTD SVG 1.1//EN"
 "http://www.w3.org/Graphics/SVG/1.1/DTD/svg11.dtd">
<!-- Generated by graphviz version 2.47.3 (20210619.1520)
 -->
<!-- Title: dependencies Pages: 1 -->
<svg width="638pt" height="247pt"
 viewBox="0.00 0.00 638.00 246.80" xmlns="http://www.w3.org/2000/svg" xmlns:xlink="http://www.w3.org/1999/xlink">
<g id="graph0" class="graph" transform="scale(1 1) rotate(0) translate(4 242.8)">
<title>dependencies</title>
<polygon fill="white" stroke="transparent" points="-4,4 -4,-242.8 634,-242.8 634,4 -4,4"/>
<text text-anchor="middle" x="315" y="-8.2" font-family="sans-serif" font-size="14.00">dependencies</text>
<g id="clust1" class="cluster">
<title>cluster_ReplenishmentOrderCancellationDialogModule</title>
<polygon fill="none" stroke="black" stroke-dasharray="1,5" points="8,-32.8 8,-230.8 622,-230.8 622,-32.8 8,-32.8"/>
</g>
<g id="clust4" class="cluster">
<title>cluster_ReplenishmentOrderCancellationDialogModule_imports</title>
<polygon fill="none" stroke="black" points="346,-40.8 346,-92.8 614,-92.8 614,-40.8 346,-40.8"/>
</g>
<g id="clust2" class="cluster">
<title>cluster_ReplenishmentOrderCancellationDialogModule_declarations</title>
<polygon fill="none" stroke="black" points="16,-40.8 16,-92.8 338,-92.8 338,-40.8 16,-40.8"/>
</g>
<g id="clust5" class="cluster">
<title>cluster_ReplenishmentOrderCancellationDialogModule_exports</title>
<polygon fill="none" stroke="black" points="265,-170.8 265,-222.8 591,-222.8 591,-170.8 265,-170.8"/>
</g>
<!-- ReplenishmentOrderCancellationDialogComponent -->
<g id="node1" class="node">
<title>ReplenishmentOrderCancellationDialogComponent</title>
<polygon fill="#ffffb3" stroke="black" points="330.32,-84.8 23.68,-84.8 23.68,-48.8 330.32,-48.8 330.32,-84.8"/>
<text text-anchor="middle" x="177" y="-62.6" font-family="Times,serif" font-size="14.00">ReplenishmentOrderCancellationDialogComponent</text>
</g>
<!-- ReplenishmentOrderCancellationDialogModule -->
<g id="node2" class="node">
<title>ReplenishmentOrderCancellationDialogModule</title>
<polygon fill="#8dd3c7" stroke="black" points="570.54,-149.8 567.54,-153.8 546.54,-153.8 543.54,-149.8 285.46,-149.8 285.46,-113.8 570.54,-113.8 570.54,-149.8"/>
<text text-anchor="middle" x="428" y="-127.6" font-family="Times,serif" font-size="14.00">ReplenishmentOrderCancellationDialogModule</text>
</g>
<!-- ReplenishmentOrderCancellationDialogComponent&#45;&gt;ReplenishmentOrderCancellationDialogModule -->
<g id="edge1" class="edge">
<title>ReplenishmentOrderCancellationDialogComponent&#45;&gt;ReplenishmentOrderCancellationDialogModule</title>
<path fill="none" stroke="black" d="M307.95,-84.91C307.95,-84.91 307.95,-103.79 307.95,-103.79"/>
<polygon fill="black" stroke="black" points="304.45,-103.79 307.95,-113.79 311.45,-103.79 304.45,-103.79"/>
</g>
<!-- ReplenishmentOrderCancellationDialogComponent  -->
<g id="node5" class="node">
<title>ReplenishmentOrderCancellationDialogComponent </title>
<polygon fill="#fb8072" stroke="black" points="583.32,-214.8 272.68,-214.8 272.68,-178.8 583.32,-178.8 583.32,-214.8"/>
<text text-anchor="middle" x="428" y="-192.6" font-family="Times,serif" font-size="14.00">ReplenishmentOrderCancellationDialogComponent </text>
</g>
<!-- ReplenishmentOrderCancellationDialogModule&#45;&gt;ReplenishmentOrderCancellationDialogComponent  -->
<g id="edge4" class="edge">
<title>ReplenishmentOrderCancellationDialogModule&#45;&gt;ReplenishmentOrderCancellationDialogComponent </title>
<path fill="none" stroke="black" stroke-dasharray="5,2" d="M428,-149.91C428,-149.91 428,-168.79 428,-168.79"/>
<polygon fill="black" stroke="black" points="424.5,-168.79 428,-178.79 431.5,-168.79 424.5,-168.79"/>
</g>
<!-- I18nModule -->
<g id="node3" class="node">
<title>I18nModule</title>
<polygon fill="#8dd3c7" stroke="black" points="605.71,-84.8 602.71,-88.8 581.71,-88.8 578.71,-84.8 520.29,-84.8 520.29,-48.8 605.71,-48.8 605.71,-84.8"/>
<text text-anchor="middle" x="563" y="-62.6" font-family="Times,serif" font-size="14.00">I18nModule</text>
</g>
<!-- I18nModule&#45;&gt;ReplenishmentOrderCancellationDialogModule -->
<g id="edge2" class="edge">
<title>I18nModule&#45;&gt;ReplenishmentOrderCancellationDialogModule</title>
<path fill="none" stroke="black" d="M545.46,-84.91C545.46,-84.91 545.46,-103.79 545.46,-103.79"/>
<polygon fill="black" stroke="black" points="541.96,-103.79 545.46,-113.79 548.96,-103.79 541.96,-103.79"/>
</g>
<!-- KeyboardFocusModule -->
<g id="node4" class="node">
<title>KeyboardFocusModule</title>
<polygon fill="#8dd3c7" stroke="black" points="502.19,-84.8 499.19,-88.8 478.19,-88.8 475.19,-84.8 353.81,-84.8 353.81,-48.8 502.19,-48.8 502.19,-84.8"/>
<text text-anchor="middle" x="428" y="-62.6" font-family="Times,serif" font-size="14.00">KeyboardFocusModule</text>
</g>
<!-- KeyboardFocusModule&#45;&gt;ReplenishmentOrderCancellationDialogModule -->
<g id="edge3" class="edge">
<title>KeyboardFocusModule&#45;&gt;ReplenishmentOrderCancellationDialogModule</title>
<path fill="none" stroke="black" d="M428,-84.91C428,-84.91 428,-103.79 428,-103.79"/>
<polygon fill="black" stroke="black" points="424.5,-103.79 428,-113.79 431.5,-103.79 424.5,-103.79"/>
</g>
</g>
</svg>
