<?xml version="1.0" encoding="UTF-8" standalone="no"?>
<!DOCTYPE svg PUBLIC "-//W3C//DTD SVG 1.1//EN"
 "http://www.w3.org/Graphics/SVG/1.1/DTD/svg11.dtd">
<!-- Generated by graphviz version 2.47.3 (20210619.1520)
 -->
<!-- Title: dependencies Pages: 1 -->
<svg width="638pt" height="247pt"
 viewBox="0.00 0.00 638.00 246.80" xmlns="http://www.w3.org/2000/svg" xmlns:xlink="http://www.w3.org/1999/xlink">
<g id="graph0" class="graph" transform="scale(1 1) rotate(0) translate(4 242.8)">
<title>dependencies</title>
<polygon fill="white" stroke="transparent" points="-4,4 -4,-242.8 634,-242.8 634,4 -4,4"/>
<text text-anchor="middle" x="315" y="-8.2" font-family="sans-serif" font-size="14.00">dependencies</text>
<g id="clust1" class="cluster">
<title>cluster_ReplenishmentOrderCancellationDialogModule</title>
<polygon fill="none" stroke="black" stroke-dasharray="1,5" points="8,-32.8 8,-230.8 622,-230.8 622,-32.8 8,-32.8"/>
</g>
<g id="clust2" class="cluster">
<title>cluster_ReplenishmentOrderCancellationDialogModule_declarations</title>
<polygon fill="none" stroke="black" points="292,-40.8 292,-92.8 614,-92.8 614,-40.8 292,-40.8"/>
</g>
<g id="clust4" class="cluster">
<title>cluster_ReplenishmentOrderCancellationDialogModule_imports</title>
<polygon fill="none" stroke="black" points="16,-40.8 16,-92.8 284,-92.8 284,-40.8 16,-40.8"/>
</g>
<g id="clust5" class="cluster">
<title>cluster_ReplenishmentOrderCancellationDialogModule_exports</title>
<polygon fill="none" stroke="black" points="70,-170.8 70,-222.8 396,-222.8 396,-170.8 70,-170.8"/>
</g>
<!-- ReplenishmentOrderCancellationDialogComponent -->
<g id="node1" class="node">
<title>ReplenishmentOrderCancellationDialogComponent</title>
<polygon fill="#ffffb3" stroke="black" points="606.32,-84.8 299.68,-84.8 299.68,-48.8 606.32,-48.8 606.32,-84.8"/>
<text text-anchor="middle" x="453" y="-62.6" font-family="Times,serif" font-size="14.00">ReplenishmentOrderCancellationDialogComponent</text>
</g>
<!-- ReplenishmentOrderCancellationDialogModule -->
<g id="node2" class="node">
<title>ReplenishmentOrderCancellationDialogModule</title>
<polygon fill="#8dd3c7" stroke="black" points="375.54,-149.8 372.54,-153.8 351.54,-153.8 348.54,-149.8 90.46,-149.8 90.46,-113.8 375.54,-113.8 375.54,-149.8"/>
<text text-anchor="middle" x="233" y="-127.6" font-family="Times,serif" font-size="14.00">ReplenishmentOrderCancellationDialogModule</text>
</g>
<!-- ReplenishmentOrderCancellationDialogComponent&#45;&gt;ReplenishmentOrderCancellationDialogModule -->
<g id="edge1" class="edge">
<title>ReplenishmentOrderCancellationDialogComponent&#45;&gt;ReplenishmentOrderCancellationDialogModule</title>
<path fill="none" stroke="black" d="M337.55,-84.91C337.55,-84.91 337.55,-103.79 337.55,-103.79"/>
<polygon fill="black" stroke="black" points="334.05,-103.79 337.55,-113.79 341.05,-103.79 334.05,-103.79"/>
</g>
<!-- ReplenishmentOrderCancellationDialogComponent  -->
<g id="node5" class="node">
<title>ReplenishmentOrderCancellationDialogComponent </title>
<polygon fill="#fb8072" stroke="black" points="388.32,-214.8 77.68,-214.8 77.68,-178.8 388.32,-178.8 388.32,-214.8"/>
<text text-anchor="middle" x="233" y="-192.6" font-family="Times,serif" font-size="14.00">ReplenishmentOrderCancellationDialogComponent </text>
</g>
<!-- ReplenishmentOrderCancellationDialogModule&#45;&gt;ReplenishmentOrderCancellationDialogComponent  -->
<g id="edge4" class="edge">
<title>ReplenishmentOrderCancellationDialogModule&#45;&gt;ReplenishmentOrderCancellationDialogComponent </title>
<path fill="none" stroke="black" stroke-dasharray="5,2" d="M233,-149.91C233,-149.91 233,-168.79 233,-168.79"/>
<polygon fill="black" stroke="black" points="229.5,-168.79 233,-178.79 236.5,-168.79 229.5,-168.79"/>
</g>
<!-- I18nModule -->
<g id="node3" class="node">
<title>I18nModule</title>
<polygon fill="#8dd3c7" stroke="black" points="275.71,-84.8 272.71,-88.8 251.71,-88.8 248.71,-84.8 190.29,-84.8 190.29,-48.8 275.71,-48.8 275.71,-84.8"/>
<text text-anchor="middle" x="233" y="-62.6" font-family="Times,serif" font-size="14.00">I18nModule</text>
</g>
<!-- I18nModule&#45;&gt;ReplenishmentOrderCancellationDialogModule -->
<g id="edge2" class="edge">
<title>I18nModule&#45;&gt;ReplenishmentOrderCancellationDialogModule</title>
<path fill="none" stroke="black" d="M233,-84.91C233,-84.91 233,-103.79 233,-103.79"/>
<polygon fill="black" stroke="black" points="229.5,-103.79 233,-113.79 236.5,-103.79 229.5,-103.79"/>
</g>
<!-- KeyboardFocusModule -->
<g id="node4" class="node">
<title>KeyboardFocusModule</title>
<polygon fill="#8dd3c7" stroke="black" points="172.19,-84.8 169.19,-88.8 148.19,-88.8 145.19,-84.8 23.81,-84.8 23.81,-48.8 172.19,-48.8 172.19,-84.8"/>
<text text-anchor="middle" x="98" y="-62.6" font-family="Times,serif" font-size="14.00">KeyboardFocusModule</text>
</g>
<!-- KeyboardFocusModule&#45;&gt;ReplenishmentOrderCancellationDialogModule -->
<g id="edge3" class="edge">
<title>KeyboardFocusModule&#45;&gt;ReplenishmentOrderCancellationDialogModule</title>
<path fill="none" stroke="black" d="M131.29,-84.91C131.29,-84.91 131.29,-103.79 131.29,-103.79"/>
<polygon fill="black" stroke="black" points="127.79,-103.79 131.29,-113.79 134.79,-103.79 127.79,-103.79"/>
</g>
</g>
</svg>
