<?xml version="1.0" encoding="UTF-8" standalone="no"?>
<!DOCTYPE svg PUBLIC "-//W3C//DTD SVG 1.1//EN"
 "http://www.w3.org/Graphics/SVG/1.1/DTD/svg11.dtd">
<!-- Generated by graphviz version 2.47.0 (20210316.0004)
 -->
<!-- Title: dependencies Pages: 1 -->
<svg width="8233pt" height="211pt"
 viewBox="0.00 0.00 8233.00 211.00" xmlns="http://www.w3.org/2000/svg" xmlns:xlink="http://www.w3.org/1999/xlink">
<g id="graph0" class="graph" transform="scale(1 1) rotate(0) translate(4 207)">
<title>dependencies</title>
<polygon fill="white" stroke="transparent" points="-4,4 -4,-207 8229,-207 8229,4 -4,4"/>
<text text-anchor="start" x="4091.51" y="-42.4" font-family="sans-serif" font-weight="bold" font-size="14.00">Legend</text>
<polygon fill="#ffffb3" stroke="transparent" points="3878.5,-10 3878.5,-30 3898.5,-30 3898.5,-10 3878.5,-10"/>
<text text-anchor="start" x="3902.13" y="-15.4" font-family="sans-serif" font-size="14.00"> &#160;Declarations</text>
<polygon fill="#8dd3c7" stroke="transparent" points="3991.5,-10 3991.5,-30 4011.5,-30 4011.5,-10 3991.5,-10"/>
<text text-anchor="start" x="4015.23" y="-15.4" font-family="sans-serif" font-size="14.00"> &#160;Module</text>
<polygon fill="#80b1d3" stroke="transparent" points="4077.5,-10 4077.5,-30 4097.5,-30 4097.5,-10 4077.5,-10"/>
<text text-anchor="start" x="4101.28" y="-15.4" font-family="sans-serif" font-size="14.00"> &#160;Bootstrap</text>
<polygon fill="#fdb462" stroke="transparent" points="4174.5,-10 4174.5,-30 4194.5,-30 4194.5,-10 4174.5,-10"/>
<text text-anchor="start" x="4198.17" y="-15.4" font-family="sans-serif" font-size="14.00"> &#160;Providers</text>
<polygon fill="#fb8072" stroke="transparent" points="4270.5,-10 4270.5,-30 4290.5,-30 4290.5,-10 4270.5,-10"/>
<text text-anchor="start" x="4294.23" y="-15.4" font-family="sans-serif" font-size="14.00"> &#160;Exports</text>
<g id="clust1" class="cluster">
<title>cluster_CmsLibModule</title>
<polygon fill="none" stroke="black" stroke-dasharray="1,5" points="8,-70 8,-195 8217,-195 8217,-70 8,-70"/>
</g>
<g id="clust3" class="cluster">
<title>cluster_CmsLibModule_imports</title>
<polygon fill="none" stroke="black" points="16,-78 16,-130 8209,-130 8209,-78 16,-78"/>
</g>
<!-- AddressBookModule -->
<g id="node1" class="node">
<title>AddressBookModule</title>
<polygon fill="#8dd3c7" stroke="black" points="8200.76,-122 8197.76,-126 8176.76,-126 8173.76,-122 8065.24,-122 8065.24,-86 8200.76,-86 8200.76,-122"/>
<text text-anchor="middle" x="8133" y="-99.8" font-family="Times,serif" font-size="14.00">AddressBookModule</text>
</g>
<!-- CmsLibModule -->
<g id="node49" class="node">
<title>CmsLibModule</title>
<polygon fill="#8dd3c7" stroke="black" points="4313.17,-187 4310.17,-191 4289.17,-191 4286.17,-187 4208.83,-187 4208.83,-151 4313.17,-151 4313.17,-187"/>
<text text-anchor="middle" x="4261" y="-164.8" font-family="Times,serif" font-size="14.00">CmsLibModule</text>
</g>
<!-- AddressBookModule&#45;&gt;CmsLibModule -->
<g id="edge1" class="edge">
<title>AddressBookModule&#45;&gt;CmsLibModule</title>
<path fill="none" stroke="black" d="M8133,-122.2C8133,-146.36 8133,-186 8133,-186 8133,-186 4323.17,-186 4323.17,-186"/>
<polygon fill="black" stroke="black" points="4323.17,-182.5 4313.17,-186 4323.17,-189.5 4323.17,-182.5"/>
</g>
<!-- AnonymousConsentManagementBannerModule -->
<g id="node2" class="node">
<title>AnonymousConsentManagementBannerModule</title>
<polygon fill="#8dd3c7" stroke="black" points="8046.89,-122 8043.89,-126 8022.89,-126 8019.89,-122 7759.11,-122 7759.11,-86 8046.89,-86 8046.89,-122"/>
<text text-anchor="middle" x="7903" y="-99.8" font-family="Times,serif" font-size="14.00">AnonymousConsentManagementBannerModule</text>
</g>
<!-- AnonymousConsentManagementBannerModule&#45;&gt;CmsLibModule -->
<g id="edge2" class="edge">
<title>AnonymousConsentManagementBannerModule&#45;&gt;CmsLibModule</title>
<path fill="none" stroke="black" d="M7903,-122.15C7903,-145.76 7903,-184 7903,-184 7903,-184 4323.18,-184 4323.18,-184"/>
<polygon fill="black" stroke="black" points="4323.18,-180.5 4313.18,-184 4323.18,-187.5 4323.18,-180.5"/>
</g>
<!-- AsmModule -->
<g id="node3" class="node">
<title>AsmModule</title>
<polygon fill="#8dd3c7" stroke="black" points="7740.99,-122 7737.99,-126 7716.99,-126 7713.99,-122 7655.01,-122 7655.01,-86 7740.99,-86 7740.99,-122"/>
<text text-anchor="middle" x="7698" y="-99.8" font-family="Times,serif" font-size="14.00">AsmModule</text>
</g>
<!-- AsmModule&#45;&gt;CmsLibModule -->
<g id="edge3" class="edge">
<title>AsmModule&#45;&gt;CmsLibModule</title>
<path fill="none" stroke="black" d="M7698,-122.32C7698,-145.66 7698,-183 7698,-183 7698,-183 4323.27,-183 4323.27,-183"/>
<polygon fill="black" stroke="black" points="4323.27,-179.5 4313.27,-183 4323.27,-186.5 4323.27,-179.5"/>
</g>
<!-- BannerCarouselModule -->
<g id="node4" class="node">
<title>BannerCarouselModule</title>
<polygon fill="#8dd3c7" stroke="black" points="7636.74,-122 7633.74,-126 7612.74,-126 7609.74,-122 7487.26,-122 7487.26,-86 7636.74,-86 7636.74,-122"/>
<text text-anchor="middle" x="7562" y="-99.8" font-family="Times,serif" font-size="14.00">BannerCarouselModule</text>
</g>
<!-- BannerCarouselModule&#45;&gt;CmsLibModule -->
<g id="edge4" class="edge">
<title>BannerCarouselModule&#45;&gt;CmsLibModule</title>
<path fill="none" stroke="black" d="M7562,-122.09C7562,-145.13 7562,-182 7562,-182 7562,-182 4323.18,-182 4323.18,-182"/>
<polygon fill="black" stroke="black" points="4323.18,-178.5 4313.18,-182 4323.18,-185.5 4323.18,-178.5"/>
</g>
<!-- BannerModule -->
<g id="node5" class="node">
<title>BannerModule</title>
<polygon fill="#8dd3c7" stroke="black" points="7468.98,-122 7465.98,-126 7444.98,-126 7441.98,-122 7369.02,-122 7369.02,-86 7468.98,-86 7468.98,-122"/>
<text text-anchor="middle" x="7419" y="-99.8" font-family="Times,serif" font-size="14.00">BannerModule</text>
</g>
<!-- BannerModule&#45;&gt;CmsLibModule -->
<g id="edge5" class="edge">
<title>BannerModule&#45;&gt;CmsLibModule</title>
<path fill="none" stroke="black" d="M7419,-122.01C7419,-144.49 7419,-180 7419,-180 7419,-180 4323.18,-180 4323.18,-180"/>
<polygon fill="black" stroke="black" points="4323.18,-176.5 4313.18,-180 4323.18,-183.5 4323.18,-176.5"/>
</g>
<!-- BreadcrumbModule -->
<g id="node6" class="node">
<title>BreadcrumbModule</title>
<polygon fill="#8dd3c7" stroke="black" points="7351.24,-122 7348.24,-126 7327.24,-126 7324.24,-122 7222.76,-122 7222.76,-86 7351.24,-86 7351.24,-122"/>
<text text-anchor="middle" x="7287" y="-99.8" font-family="Times,serif" font-size="14.00">BreadcrumbModule</text>
</g>
<!-- BreadcrumbModule&#45;&gt;CmsLibModule -->
<g id="edge6" class="edge">
<title>BreadcrumbModule&#45;&gt;CmsLibModule</title>
<path fill="none" stroke="black" d="M7287,-122.29C7287,-144.21 7287,-178 7287,-178 7287,-178 4323.2,-178 4323.2,-178"/>
<polygon fill="black" stroke="black" points="4323.2,-174.5 4313.2,-178 4323.2,-181.5 4323.2,-174.5"/>
</g>
<!-- CategoryNavigationModule -->
<g id="node7" class="node">
<title>CategoryNavigationModule</title>
<polygon fill="#8dd3c7" stroke="black" points="7204.57,-122 7201.57,-126 7180.57,-126 7177.57,-122 7031.43,-122 7031.43,-86 7204.57,-86 7204.57,-122"/>
<text text-anchor="middle" x="7118" y="-99.8" font-family="Times,serif" font-size="14.00">CategoryNavigationModule</text>
</g>
<!-- CategoryNavigationModule&#45;&gt;CmsLibModule -->
<g id="edge7" class="edge">
<title>CategoryNavigationModule&#45;&gt;CmsLibModule</title>
<path fill="none" stroke="black" d="M7118,-122.04C7118,-143.66 7118,-177 7118,-177 7118,-177 4323.34,-177 4323.34,-177"/>
<polygon fill="black" stroke="black" points="4323.34,-173.5 4313.34,-177 4323.34,-180.5 4323.34,-173.5"/>
</g>
<!-- CloseAccountModule -->
<g id="node8" class="node">
<title>CloseAccountModule</title>
<polygon fill="#8dd3c7" stroke="black" points="7013.36,-122 7010.36,-126 6989.36,-126 6986.36,-122 6874.64,-122 6874.64,-86 7013.36,-86 7013.36,-122"/>
<text text-anchor="middle" x="6944" y="-99.8" font-family="Times,serif" font-size="14.00">CloseAccountModule</text>
</g>
<!-- CloseAccountModule&#45;&gt;CmsLibModule -->
<g id="edge8" class="edge">
<title>CloseAccountModule&#45;&gt;CmsLibModule</title>
<path fill="none" stroke="black" d="M6944,-122.28C6944,-143.32 6944,-175 6944,-175 6944,-175 4323.39,-175 4323.39,-175"/>
<polygon fill="black" stroke="black" points="4323.39,-171.5 4313.39,-175 4323.39,-178.5 4323.39,-171.5"/>
</g>
<!-- CmsParagraphModule -->
<g id="node9" class="node">
<title>CmsParagraphModule</title>
<polygon fill="#8dd3c7" stroke="black" points="6856.97,-122 6853.97,-126 6832.97,-126 6829.97,-122 6715.03,-122 6715.03,-86 6856.97,-86 6856.97,-122"/>
<text text-anchor="middle" x="6786" y="-99.8" font-family="Times,serif" font-size="14.00">CmsParagraphModule</text>
</g>
<!-- CmsParagraphModule&#45;&gt;CmsLibModule -->
<g id="edge9" class="edge">
<title>CmsParagraphModule&#45;&gt;CmsLibModule</title>
<path fill="none" stroke="black" d="M6786,-122.03C6786,-142.77 6786,-174 6786,-174 6786,-174 4323.45,-174 4323.45,-174"/>
<polygon fill="black" stroke="black" points="4323.45,-170.5 4313.45,-174 4323.45,-177.5 4323.45,-170.5"/>
</g>
<!-- ConsentManagementModule -->
<g id="node10" class="node">
<title>ConsentManagementModule</title>
<polygon fill="#8dd3c7" stroke="black" points="6697.02,-122 6694.02,-126 6673.02,-126 6670.02,-122 6518.98,-122 6518.98,-86 6697.02,-86 6697.02,-122"/>
<text text-anchor="middle" x="6608" y="-99.8" font-family="Times,serif" font-size="14.00">ConsentManagementModule</text>
</g>
<!-- ConsentManagementModule&#45;&gt;CmsLibModule -->
<g id="edge10" class="edge">
<title>ConsentManagementModule&#45;&gt;CmsLibModule</title>
<path fill="none" stroke="black" d="M6608,-122.22C6608,-142.37 6608,-172 6608,-172 6608,-172 4323.31,-172 4323.31,-172"/>
<polygon fill="black" stroke="black" points="4323.31,-168.5 4313.31,-172 4323.31,-175.5 4323.31,-168.5"/>
</g>
<!-- FooterNavigationModule -->
<g id="node11" class="node">
<title>FooterNavigationModule</title>
<polygon fill="#8dd3c7" stroke="black" points="6501.31,-122 6498.31,-126 6477.31,-126 6474.31,-122 6342.69,-122 6342.69,-86 6501.31,-86 6501.31,-122"/>
<text text-anchor="middle" x="6422" y="-99.8" font-family="Times,serif" font-size="14.00">FooterNavigationModule</text>
</g>
<!-- FooterNavigationModule&#45;&gt;CmsLibModule -->
<g id="edge11" class="edge">
<title>FooterNavigationModule&#45;&gt;CmsLibModule</title>
<path fill="none" stroke="black" d="M6422,-122.31C6422,-142.15 6422,-171 6422,-171 6422,-171 4323.35,-171 4323.35,-171"/>
<polygon fill="black" stroke="black" points="4323.35,-167.5 4313.35,-171 4323.35,-174.5 4323.35,-167.5"/>
</g>
<!-- ForgotPasswordModule -->
<g id="node12" class="node">
<title>ForgotPasswordModule</title>
<polygon fill="#8dd3c7" stroke="black" points="6325.04,-122 6322.04,-126 6301.04,-126 6298.04,-122 6174.96,-122 6174.96,-86 6325.04,-86 6325.04,-122"/>
<text text-anchor="middle" x="6250" y="-99.8" font-family="Times,serif" font-size="14.00">ForgotPasswordModule</text>
</g>
<!-- ForgotPasswordModule&#45;&gt;CmsLibModule -->
<g id="edge12" class="edge">
<title>ForgotPasswordModule&#45;&gt;CmsLibModule</title>
<path fill="none" stroke="black" d="M6250,-122.11C6250,-141.34 6250,-169 6250,-169 6250,-169 4323.18,-169 4323.18,-169"/>
<polygon fill="black" stroke="black" points="4323.18,-165.5 4313.18,-169 4323.18,-172.5 4323.18,-165.5"/>
</g>
<!-- HamburgerMenuModule -->
<g id="node13" class="node">
<title>HamburgerMenuModule</title>
<polygon fill="#8dd3c7" stroke="black" points="6156.96,-122 6153.96,-126 6132.96,-126 6129.96,-122 6001.04,-122 6001.04,-86 6156.96,-86 6156.96,-122"/>
<text text-anchor="middle" x="6079" y="-99.8" font-family="Times,serif" font-size="14.00">HamburgerMenuModule</text>
</g>
<!-- HamburgerMenuModule&#45;&gt;CmsLibModule -->
<g id="edge13" class="edge">
<title>HamburgerMenuModule&#45;&gt;CmsLibModule</title>
<path fill="none" stroke="black" d="M6079,-122.17C6079,-141.09 6079,-168 6079,-168 6079,-168 4323.45,-168 4323.45,-168"/>
<polygon fill="black" stroke="black" points="4323.45,-164.5 4313.45,-168 4323.45,-171.5 4323.45,-164.5"/>
</g>
<!-- LinkModule -->
<g id="node14" class="node">
<title>LinkModule</title>
<polygon fill="#8dd3c7" stroke="black" points="5982.99,-122 5979.99,-126 5958.99,-126 5955.99,-122 5897.01,-122 5897.01,-86 5982.99,-86 5982.99,-122"/>
<text text-anchor="middle" x="5940" y="-99.8" font-family="Times,serif" font-size="14.00">LinkModule</text>
</g>
<!-- LinkModule&#45;&gt;CmsLibModule -->
<g id="edge14" class="edge">
<title>LinkModule&#45;&gt;CmsLibModule</title>
<path fill="none" stroke="black" d="M5940,-122.22C5940,-140.83 5940,-167 5940,-167 5940,-167 4323.56,-167 4323.56,-167"/>
<polygon fill="black" stroke="black" points="4323.56,-163.5 4313.56,-167 4323.56,-170.5 4323.56,-163.5"/>
</g>
<!-- MyCouponsModule -->
<g id="node15" class="node">
<title>MyCouponsModule</title>
<polygon fill="#8dd3c7" stroke="black" points="5879.28,-122 5876.28,-126 5855.28,-126 5852.28,-122 5750.72,-122 5750.72,-86 5879.28,-86 5879.28,-122"/>
<text text-anchor="middle" x="5815" y="-99.8" font-family="Times,serif" font-size="14.00">MyCouponsModule</text>
</g>
<!-- MyCouponsModule&#45;&gt;CmsLibModule -->
<g id="edge15" class="edge">
<title>MyCouponsModule&#45;&gt;CmsLibModule</title>
<path fill="none" stroke="black" d="M5815,-122.3C5815,-140.27 5815,-165 5815,-165 5815,-165 4323.59,-165 4323.59,-165"/>
<polygon fill="black" stroke="black" points="4323.59,-161.5 4313.59,-165 4323.59,-168.5 4323.59,-161.5"/>
</g>
<!-- MyInterestsModule -->
<g id="node16" class="node">
<title>MyInterestsModule</title>
<polygon fill="#8dd3c7" stroke="black" points="5732.42,-122 5729.42,-126 5708.42,-126 5705.42,-122 5605.58,-122 5605.58,-86 5732.42,-86 5732.42,-122"/>
<text text-anchor="middle" x="5669" y="-99.8" font-family="Times,serif" font-size="14.00">MyInterestsModule</text>
</g>
<!-- MyInterestsModule&#45;&gt;CmsLibModule -->
<g id="edge16" class="edge">
<title>MyInterestsModule&#45;&gt;CmsLibModule</title>
<path fill="none" stroke="black" d="M5669,-122.02C5669,-139.37 5669,-163 5669,-163 5669,-163 4323.2,-163 4323.2,-163"/>
<polygon fill="black" stroke="black" points="4323.2,-159.5 4313.2,-163 4323.2,-166.5 4323.2,-159.5"/>
</g>
<!-- NavigationModule -->
<g id="node17" class="node">
<title>NavigationModule</title>
<polygon fill="#8dd3c7" stroke="black" points="5587.76,-122 5584.76,-126 5563.76,-126 5560.76,-122 5466.24,-122 5466.24,-86 5587.76,-86 5587.76,-122"/>
<text text-anchor="middle" x="5527" y="-99.8" font-family="Times,serif" font-size="14.00">NavigationModule</text>
</g>
<!-- NavigationModule&#45;&gt;CmsLibModule -->
<g id="edge17" class="edge">
<title>NavigationModule&#45;&gt;CmsLibModule</title>
<path fill="none" stroke="black" d="M5527,-122.03C5527,-139.06 5527,-162 5527,-162 5527,-162 4323.39,-162 4323.39,-162"/>
<polygon fill="black" stroke="black" points="4323.39,-158.5 4313.39,-162 4323.39,-165.5 4323.39,-158.5"/>
</g>
<!-- NotificationPreferenceModule -->
<g id="node18" class="node">
<title>NotificationPreferenceModule</title>
<polygon fill="#8dd3c7" stroke="black" points="5448.54,-122 5445.54,-126 5424.54,-126 5421.54,-122 5261.46,-122 5261.46,-86 5448.54,-86 5448.54,-122"/>
<text text-anchor="middle" x="5355" y="-99.8" font-family="Times,serif" font-size="14.00">NotificationPreferenceModule</text>
</g>
<!-- NotificationPreferenceModule&#45;&gt;CmsLibModule -->
<g id="edge18" class="edge">
<title>NotificationPreferenceModule&#45;&gt;CmsLibModule</title>
<path fill="none" stroke="black" d="M5355,-122.03C5355,-138.4 5355,-160 5355,-160 5355,-160 4323.4,-160 4323.4,-160"/>
<polygon fill="black" stroke="black" points="4323.4,-156.5 4313.4,-160 4323.4,-163.5 4323.4,-156.5"/>
</g>
<!-- OrderCancellationModule -->
<g id="node19" class="node">
<title>OrderCancellationModule</title>
<polygon fill="#8dd3c7" stroke="black" points="5243.45,-122 5240.45,-126 5219.45,-126 5216.45,-122 5080.55,-122 5080.55,-86 5243.45,-86 5243.45,-122"/>
<text text-anchor="middle" x="5162" y="-99.8" font-family="Times,serif" font-size="14.00">OrderCancellationModule</text>
</g>
<!-- OrderCancellationModule&#45;&gt;CmsLibModule -->
<g id="edge19" class="edge">
<title>OrderCancellationModule&#45;&gt;CmsLibModule</title>
<path fill="none" stroke="black" d="M5162,-122.01C5162,-138.05 5162,-159 5162,-159 5162,-159 4323.34,-159 4323.34,-159"/>
<polygon fill="black" stroke="black" points="4323.34,-155.5 4313.34,-159 4323.34,-162.5 4323.34,-155.5"/>
</g>
<!-- OrderConfirmationModule -->
<g id="node20" class="node">
<title>OrderConfirmationModule</title>
<polygon fill="#8dd3c7" stroke="black" points="5062.63,-122 5059.63,-126 5038.63,-126 5035.63,-122 4895.37,-122 4895.37,-86 5062.63,-86 5062.63,-122"/>
<text text-anchor="middle" x="4979" y="-99.8" font-family="Times,serif" font-size="14.00">OrderConfirmationModule</text>
</g>
<!-- OrderConfirmationModule&#45;&gt;CmsLibModule -->
<g id="edge20" class="edge">
<title>OrderConfirmationModule&#45;&gt;CmsLibModule</title>
<path fill="none" stroke="black" d="M4979,-122.24C4979,-137.57 4979,-157 4979,-157 4979,-157 4323.22,-157 4323.22,-157"/>
<polygon fill="black" stroke="black" points="4323.22,-153.5 4313.22,-157 4323.22,-160.5 4323.22,-153.5"/>
</g>
<!-- OrderDetailsModule -->
<g id="node21" class="node">
<title>OrderDetailsModule</title>
<polygon fill="#8dd3c7" stroke="black" points="4876.84,-122 4873.84,-126 4852.84,-126 4849.84,-122 4745.16,-122 4745.16,-86 4876.84,-86 4876.84,-122"/>
<text text-anchor="middle" x="4811" y="-99.8" font-family="Times,serif" font-size="14.00">OrderDetailsModule</text>
</g>
<!-- OrderDetailsModule&#45;&gt;CmsLibModule -->
<g id="edge21" class="edge">
<title>OrderDetailsModule&#45;&gt;CmsLibModule</title>
<path fill="none" stroke="black" d="M4811,-122.19C4811,-137.18 4811,-156 4811,-156 4811,-156 4323.24,-156 4323.24,-156"/>
<polygon fill="black" stroke="black" points="4323.24,-152.5 4313.24,-156 4323.24,-159.5 4323.24,-152.5"/>
</g>
<!-- OrderHistoryModule -->
<g id="node22" class="node">
<title>OrderHistoryModule</title>
<polygon fill="#8dd3c7" stroke="black" points="4727.19,-122 4724.19,-126 4703.19,-126 4700.19,-122 4592.81,-122 4592.81,-86 4727.19,-86 4727.19,-122"/>
<text text-anchor="middle" x="4660" y="-99.8" font-family="Times,serif" font-size="14.00">OrderHistoryModule</text>
</g>
<!-- OrderHistoryModule&#45;&gt;CmsLibModule -->
<g id="edge22" class="edge">
<title>OrderHistoryModule&#45;&gt;CmsLibModule</title>
<path fill="none" stroke="black" d="M4660,-122.05C4660,-136.37 4660,-154 4660,-154 4660,-154 4323.57,-154 4323.57,-154"/>
<polygon fill="black" stroke="black" points="4323.57,-150.5 4313.57,-154 4323.57,-157.5 4323.57,-150.5"/>
</g>
<!-- OrderReturnModule -->
<g id="node23" class="node">
<title>OrderReturnModule</title>
<polygon fill="#8dd3c7" stroke="black" points="4575.29,-122 4572.29,-126 4551.29,-126 4548.29,-122 4444.71,-122 4444.71,-86 4575.29,-86 4575.29,-122"/>
<text text-anchor="middle" x="4510" y="-99.8" font-family="Times,serif" font-size="14.00">OrderReturnModule</text>
</g>
<!-- OrderReturnModule&#45;&gt;CmsLibModule -->
<g id="edge23" class="edge">
<title>OrderReturnModule&#45;&gt;CmsLibModule</title>
<path fill="none" stroke="black" d="M4510,-122.25C4510,-136.18 4510,-153 4510,-153 4510,-153 4323.2,-153 4323.2,-153"/>
<polygon fill="black" stroke="black" points="4323.2,-149.5 4313.2,-153 4323.2,-156.5 4323.2,-149.5"/>
</g>
<!-- PaymentMethodsModule -->
<g id="node24" class="node">
<title>PaymentMethodsModule</title>
<polygon fill="#8dd3c7" stroke="black" points="4426.54,-122 4423.54,-126 4402.54,-126 4399.54,-122 4269.46,-122 4269.46,-86 4426.54,-86 4426.54,-122"/>
<text text-anchor="middle" x="4348" y="-99.8" font-family="Times,serif" font-size="14.00">PaymentMethodsModule</text>
</g>
<!-- PaymentMethodsModule&#45;&gt;CmsLibModule -->
<g id="edge24" class="edge">
<title>PaymentMethodsModule&#45;&gt;CmsLibModule</title>
<path fill="none" stroke="black" d="M4291.28,-122.11C4291.28,-122.11 4291.28,-140.99 4291.28,-140.99"/>
<polygon fill="black" stroke="black" points="4287.78,-140.99 4291.28,-150.99 4294.78,-140.99 4287.78,-140.99"/>
</g>
<!-- ProductCarouselModule -->
<g id="node25" class="node">
<title>ProductCarouselModule</title>
<polygon fill="#8dd3c7" stroke="black" points="4251.36,-122 4248.36,-126 4227.36,-126 4224.36,-122 4098.64,-122 4098.64,-86 4251.36,-86 4251.36,-122"/>
<text text-anchor="middle" x="4175" y="-99.8" font-family="Times,serif" font-size="14.00">ProductCarouselModule</text>
</g>
<!-- ProductCarouselModule&#45;&gt;CmsLibModule -->
<g id="edge25" class="edge">
<title>ProductCarouselModule&#45;&gt;CmsLibModule</title>
<path fill="none" stroke="black" d="M4230.05,-122.11C4230.05,-122.11 4230.05,-140.99 4230.05,-140.99"/>
<polygon fill="black" stroke="black" points="4226.55,-140.99 4230.05,-150.99 4233.55,-140.99 4226.55,-140.99"/>
</g>
<!-- ProductFacetNavigationModule -->
<g id="node26" class="node">
<title>ProductFacetNavigationModule</title>
<polygon fill="#8dd3c7" stroke="black" points="4080.62,-122 4077.62,-126 4056.62,-126 4053.62,-122 3885.38,-122 3885.38,-86 4080.62,-86 4080.62,-122"/>
<text text-anchor="middle" x="3983" y="-99.8" font-family="Times,serif" font-size="14.00">ProductFacetNavigationModule</text>
</g>
<!-- ProductFacetNavigationModule&#45;&gt;CmsLibModule -->
<g id="edge26" class="edge">
<title>ProductFacetNavigationModule&#45;&gt;CmsLibModule</title>
<path fill="none" stroke="black" d="M3983,-122.25C3983,-136.18 3983,-153 3983,-153 3983,-153 4198.71,-153 4198.71,-153"/>
<polygon fill="black" stroke="black" points="4198.71,-156.5 4208.71,-153 4198.71,-149.5 4198.71,-156.5"/>
</g>
<!-- ProductImagesModule -->
<g id="node27" class="node">
<title>ProductImagesModule</title>
<polygon fill="#8dd3c7" stroke="black" points="3866.52,-122 3863.52,-126 3842.52,-126 3839.52,-122 3723.48,-122 3723.48,-86 3866.52,-86 3866.52,-122"/>
<text text-anchor="middle" x="3795" y="-99.8" font-family="Times,serif" font-size="14.00">ProductImagesModule</text>
</g>
<!-- ProductImagesModule&#45;&gt;CmsLibModule -->
<g id="edge27" class="edge">
<title>ProductImagesModule&#45;&gt;CmsLibModule</title>
<path fill="none" stroke="black" d="M3795,-122.05C3795,-136.37 3795,-154 3795,-154 3795,-154 4198.45,-154 4198.45,-154"/>
<polygon fill="black" stroke="black" points="4198.45,-157.5 4208.45,-154 4198.45,-150.5 4198.45,-157.5"/>
</g>
<!-- ProductIntroModule -->
<g id="node28" class="node">
<title>ProductIntroModule</title>
<polygon fill="#8dd3c7" stroke="black" points="3705.31,-122 3702.31,-126 3681.31,-126 3678.31,-122 3574.69,-122 3574.69,-86 3705.31,-86 3705.31,-122"/>
<text text-anchor="middle" x="3640" y="-99.8" font-family="Times,serif" font-size="14.00">ProductIntroModule</text>
</g>
<!-- ProductIntroModule&#45;&gt;CmsLibModule -->
<g id="edge28" class="edge">
<title>ProductIntroModule&#45;&gt;CmsLibModule</title>
<path fill="none" stroke="black" d="M3640,-122.19C3640,-137.18 3640,-156 3640,-156 3640,-156 4198.59,-156 4198.59,-156"/>
<polygon fill="black" stroke="black" points="4198.59,-159.5 4208.59,-156 4198.59,-152.5 4198.59,-159.5"/>
</g>
<!-- ProductListModule -->
<g id="node29" class="node">
<title>ProductListModule</title>
<polygon fill="#8dd3c7" stroke="black" points="3556.38,-122 3553.38,-126 3532.38,-126 3529.38,-122 3431.62,-122 3431.62,-86 3556.38,-86 3556.38,-122"/>
<text text-anchor="middle" x="3494" y="-99.8" font-family="Times,serif" font-size="14.00">ProductListModule</text>
</g>
<!-- ProductListModule&#45;&gt;CmsLibModule -->
<g id="edge29" class="edge">
<title>ProductListModule&#45;&gt;CmsLibModule</title>
<path fill="none" stroke="black" d="M3494,-122.24C3494,-137.57 3494,-157 3494,-157 3494,-157 4198.58,-157 4198.58,-157"/>
<polygon fill="black" stroke="black" points="4198.58,-160.5 4208.58,-157 4198.58,-153.5 4198.58,-160.5"/>
</g>
<!-- ProductReferencesModule -->
<g id="node30" class="node">
<title>ProductReferencesModule</title>
<polygon fill="#8dd3c7" stroke="black" points="3413.77,-122 3410.77,-126 3389.77,-126 3386.77,-122 3248.23,-122 3248.23,-86 3413.77,-86 3413.77,-122"/>
<text text-anchor="middle" x="3331" y="-99.8" font-family="Times,serif" font-size="14.00">ProductReferencesModule</text>
</g>
<!-- ProductReferencesModule&#45;&gt;CmsLibModule -->
<g id="edge30" class="edge">
<title>ProductReferencesModule&#45;&gt;CmsLibModule</title>
<path fill="none" stroke="black" d="M3331,-122.01C3331,-138.05 3331,-159 3331,-159 3331,-159 4198.67,-159 4198.67,-159"/>
<polygon fill="black" stroke="black" points="4198.67,-162.5 4208.67,-159 4198.67,-155.5 4198.67,-162.5"/>
</g>
<!-- ProductSummaryModule -->
<g id="node31" class="node">
<title>ProductSummaryModule</title>
<polygon fill="#8dd3c7" stroke="black" points="3230.54,-122 3227.54,-126 3206.54,-126 3203.54,-122 3073.46,-122 3073.46,-86 3230.54,-86 3230.54,-122"/>
<text text-anchor="middle" x="3152" y="-99.8" font-family="Times,serif" font-size="14.00">ProductSummaryModule</text>
</g>
<!-- ProductSummaryModule&#45;&gt;CmsLibModule -->
<g id="edge31" class="edge">
<title>ProductSummaryModule&#45;&gt;CmsLibModule</title>
<path fill="none" stroke="black" d="M3152,-122.03C3152,-138.4 3152,-160 3152,-160 3152,-160 4198.63,-160 4198.63,-160"/>
<polygon fill="black" stroke="black" points="4198.63,-163.5 4208.63,-160 4198.63,-156.5 4198.63,-163.5"/>
</g>
<!-- ProductTabsModule -->
<g id="node32" class="node">
<title>ProductTabsModule</title>
<polygon fill="#8dd3c7" stroke="black" points="3055.31,-122 3052.31,-126 3031.31,-126 3028.31,-122 2924.69,-122 2924.69,-86 3055.31,-86 3055.31,-122"/>
<text text-anchor="middle" x="2990" y="-99.8" font-family="Times,serif" font-size="14.00">ProductTabsModule</text>
</g>
<!-- ProductTabsModule&#45;&gt;CmsLibModule -->
<g id="edge32" class="edge">
<title>ProductTabsModule&#45;&gt;CmsLibModule</title>
<path fill="none" stroke="black" d="M2990,-122.03C2990,-139.06 2990,-162 2990,-162 2990,-162 4198.81,-162 4198.81,-162"/>
<polygon fill="black" stroke="black" points="4198.81,-165.5 4208.81,-162 4198.81,-158.5 4198.81,-165.5"/>
</g>
<!-- ProductVariantsModule -->
<g id="node33" class="node">
<title>ProductVariantsModule</title>
<polygon fill="#8dd3c7" stroke="black" points="2907.02,-122 2904.02,-126 2883.02,-126 2880.02,-122 2756.98,-122 2756.98,-86 2907.02,-86 2907.02,-122"/>
<text text-anchor="middle" x="2832" y="-99.8" font-family="Times,serif" font-size="14.00">ProductVariantsModule</text>
</g>
<!-- ProductVariantsModule&#45;&gt;CmsLibModule -->
<g id="edge33" class="edge">
<title>ProductVariantsModule&#45;&gt;CmsLibModule</title>
<path fill="none" stroke="black" d="M2832,-122.02C2832,-139.37 2832,-163 2832,-163 2832,-163 4198.45,-163 4198.45,-163"/>
<polygon fill="black" stroke="black" points="4198.45,-166.5 4208.45,-163 4198.45,-159.5 4198.45,-166.5"/>
</g>
<!-- QualtricsModule -->
<g id="node34" class="node">
<title>QualtricsModule</title>
<polygon fill="#8dd3c7" stroke="black" points="2738.36,-122 2735.36,-126 2714.36,-126 2711.36,-122 2627.64,-122 2627.64,-86 2738.36,-86 2738.36,-122"/>
<text text-anchor="middle" x="2683" y="-99.8" font-family="Times,serif" font-size="14.00">QualtricsModule</text>
</g>
<!-- QualtricsModule&#45;&gt;CmsLibModule -->
<g id="edge34" class="edge">
<title>QualtricsModule&#45;&gt;CmsLibModule</title>
<path fill="none" stroke="black" d="M2683,-122.3C2683,-140.27 2683,-165 2683,-165 2683,-165 4198.5,-165 4198.5,-165"/>
<polygon fill="black" stroke="black" points="4198.5,-168.5 4208.5,-165 4198.5,-161.5 4198.5,-168.5"/>
</g>
<!-- ReplenishmentOrderConfirmationModule -->
<g id="node35" class="node">
<title>ReplenishmentOrderConfirmationModule</title>
<polygon fill="#8dd3c7" stroke="black" points="2609.61,-122 2606.61,-126 2585.61,-126 2582.61,-122 2358.39,-122 2358.39,-86 2609.61,-86 2609.61,-122"/>
<text text-anchor="middle" x="2484" y="-99.8" font-family="Times,serif" font-size="14.00">ReplenishmentOrderConfirmationModule</text>
</g>
<!-- ReplenishmentOrderConfirmationModule&#45;&gt;CmsLibModule -->
<g id="edge35" class="edge">
<title>ReplenishmentOrderConfirmationModule&#45;&gt;CmsLibModule</title>
<path fill="none" stroke="black" d="M2484,-122.22C2484,-140.83 2484,-167 2484,-167 2484,-167 4198.78,-167 4198.78,-167"/>
<polygon fill="black" stroke="black" points="4198.78,-170.5 4208.78,-167 4198.78,-163.5 4198.78,-170.5"/>
</g>
<!-- ReplenishmentOrderDetailsModule -->
<g id="node36" class="node">
<title>ReplenishmentOrderDetailsModule</title>
<polygon fill="#8dd3c7" stroke="black" points="2339.83,-122 2336.83,-126 2315.83,-126 2312.83,-122 2124.17,-122 2124.17,-86 2339.83,-86 2339.83,-122"/>
<text text-anchor="middle" x="2232" y="-99.8" font-family="Times,serif" font-size="14.00">ReplenishmentOrderDetailsModule</text>
</g>
<!-- ReplenishmentOrderDetailsModule&#45;&gt;CmsLibModule -->
<g id="edge36" class="edge">
<title>ReplenishmentOrderDetailsModule&#45;&gt;CmsLibModule</title>
<path fill="none" stroke="black" d="M2232,-122.17C2232,-141.09 2232,-168 2232,-168 2232,-168 4198.81,-168 4198.81,-168"/>
<polygon fill="black" stroke="black" points="4198.81,-171.5 4208.81,-168 4198.81,-164.5 4198.81,-171.5"/>
</g>
<!-- ReplenishmentOrderHistoryModule -->
<g id="node37" class="node">
<title>ReplenishmentOrderHistoryModule</title>
<polygon fill="#8dd3c7" stroke="black" points="2106.17,-122 2103.17,-126 2082.17,-126 2079.17,-122 1887.83,-122 1887.83,-86 2106.17,-86 2106.17,-122"/>
<text text-anchor="middle" x="1997" y="-99.8" font-family="Times,serif" font-size="14.00">ReplenishmentOrderHistoryModule</text>
</g>
<!-- ReplenishmentOrderHistoryModule&#45;&gt;CmsLibModule -->
<g id="edge37" class="edge">
<title>ReplenishmentOrderHistoryModule&#45;&gt;CmsLibModule</title>
<path fill="none" stroke="black" d="M1997,-122.11C1997,-141.34 1997,-169 1997,-169 1997,-169 4198.64,-169 4198.64,-169"/>
<polygon fill="black" stroke="black" points="4198.64,-172.5 4208.64,-169 4198.64,-165.5 4198.64,-172.5"/>
</g>
<!-- ResetPasswordModule -->
<g id="node38" class="node">
<title>ResetPasswordModule</title>
<polygon fill="#8dd3c7" stroke="black" points="1870.3,-122 1867.3,-126 1846.3,-126 1843.3,-122 1725.7,-122 1725.7,-86 1870.3,-86 1870.3,-122"/>
<text text-anchor="middle" x="1798" y="-99.8" font-family="Times,serif" font-size="14.00">ResetPasswordModule</text>
</g>
<!-- ResetPasswordModule&#45;&gt;CmsLibModule -->
<g id="edge38" class="edge">
<title>ResetPasswordModule&#45;&gt;CmsLibModule</title>
<path fill="none" stroke="black" d="M1798,-122.31C1798,-142.15 1798,-171 1798,-171 1798,-171 4198.7,-171 4198.7,-171"/>
<polygon fill="black" stroke="black" points="4198.7,-174.5 4208.7,-171 4198.7,-167.5 4198.7,-174.5"/>
</g>
<!-- ReturnRequestDetailModule -->
<g id="node39" class="node">
<title>ReturnRequestDetailModule</title>
<polygon fill="#8dd3c7" stroke="black" points="1707.46,-122 1704.46,-126 1683.46,-126 1680.46,-122 1530.54,-122 1530.54,-86 1707.46,-86 1707.46,-122"/>
<text text-anchor="middle" x="1619" y="-99.8" font-family="Times,serif" font-size="14.00">ReturnRequestDetailModule</text>
</g>
<!-- ReturnRequestDetailModule&#45;&gt;CmsLibModule -->
<g id="edge39" class="edge">
<title>ReturnRequestDetailModule&#45;&gt;CmsLibModule</title>
<path fill="none" stroke="black" d="M1619,-122.22C1619,-142.37 1619,-172 1619,-172 1619,-172 4198.82,-172 4198.82,-172"/>
<polygon fill="black" stroke="black" points="4198.82,-175.5 4208.82,-172 4198.82,-168.5 4198.82,-175.5"/>
</g>
<!-- ReturnRequestListModule -->
<g id="node40" class="node">
<title>ReturnRequestListModule</title>
<polygon fill="#8dd3c7" stroke="black" points="1512.03,-122 1509.03,-126 1488.03,-126 1485.03,-122 1347.97,-122 1347.97,-86 1512.03,-86 1512.03,-122"/>
<text text-anchor="middle" x="1430" y="-99.8" font-family="Times,serif" font-size="14.00">ReturnRequestListModule</text>
</g>
<!-- ReturnRequestListModule&#45;&gt;CmsLibModule -->
<g id="edge40" class="edge">
<title>ReturnRequestListModule&#45;&gt;CmsLibModule</title>
<path fill="none" stroke="black" d="M1430,-122.03C1430,-142.77 1430,-174 1430,-174 1430,-174 4198.83,-174 4198.83,-174"/>
<polygon fill="black" stroke="black" points="4198.83,-177.5 4208.83,-174 4198.83,-170.5 4198.83,-177.5"/>
</g>
<!-- SearchBoxModule -->
<g id="node41" class="node">
<title>SearchBoxModule</title>
<polygon fill="#8dd3c7" stroke="black" points="1329.47,-122 1326.47,-126 1305.47,-126 1302.47,-122 1208.53,-122 1208.53,-86 1329.47,-86 1329.47,-122"/>
<text text-anchor="middle" x="1269" y="-99.8" font-family="Times,serif" font-size="14.00">SearchBoxModule</text>
</g>
<!-- SearchBoxModule&#45;&gt;CmsLibModule -->
<g id="edge41" class="edge">
<title>SearchBoxModule&#45;&gt;CmsLibModule</title>
<path fill="none" stroke="black" d="M1269,-122.28C1269,-143.32 1269,-175 1269,-175 1269,-175 4198.75,-175 4198.75,-175"/>
<polygon fill="black" stroke="black" points="4198.75,-178.5 4208.75,-175 4198.75,-171.5 4198.75,-178.5"/>
</g>
<!-- SiteContextSelectorModule -->
<g id="node42" class="node">
<title>SiteContextSelectorModule</title>
<polygon fill="#8dd3c7" stroke="black" points="1190.53,-122 1187.53,-126 1166.53,-126 1163.53,-122 1019.47,-122 1019.47,-86 1190.53,-86 1190.53,-122"/>
<text text-anchor="middle" x="1105" y="-99.8" font-family="Times,serif" font-size="14.00">SiteContextSelectorModule</text>
</g>
<!-- SiteContextSelectorModule&#45;&gt;CmsLibModule -->
<g id="edge42" class="edge">
<title>SiteContextSelectorModule&#45;&gt;CmsLibModule</title>
<path fill="none" stroke="black" d="M1105,-122.04C1105,-143.66 1105,-177 1105,-177 1105,-177 4198.53,-177 4198.53,-177"/>
<polygon fill="black" stroke="black" points="4198.53,-180.5 4208.53,-177 4198.53,-173.5 4198.53,-180.5"/>
</g>
<!-- StockNotificationModule -->
<g id="node43" class="node">
<title>StockNotificationModule</title>
<polygon fill="#8dd3c7" stroke="black" points="1001.59,-122 998.59,-126 977.59,-126 974.59,-122 842.41,-122 842.41,-86 1001.59,-86 1001.59,-122"/>
<text text-anchor="middle" x="922" y="-99.8" font-family="Times,serif" font-size="14.00">StockNotificationModule</text>
</g>
<!-- StockNotificationModule&#45;&gt;CmsLibModule -->
<g id="edge43" class="edge">
<title>StockNotificationModule&#45;&gt;CmsLibModule</title>
<path fill="none" stroke="black" d="M922,-122.29C922,-144.21 922,-178 922,-178 922,-178 4198.55,-178 4198.55,-178"/>
<polygon fill="black" stroke="black" points="4198.55,-181.5 4208.55,-178 4198.55,-174.5 4198.55,-181.5"/>
</g>
<!-- TabParagraphContainerModule -->
<g id="node44" class="node">
<title>TabParagraphContainerModule</title>
<polygon fill="#8dd3c7" stroke="black" points="824.77,-122 821.77,-126 800.77,-126 797.77,-122 631.23,-122 631.23,-86 824.77,-86 824.77,-122"/>
<text text-anchor="middle" x="728" y="-99.8" font-family="Times,serif" font-size="14.00">TabParagraphContainerModule</text>
</g>
<!-- TabParagraphContainerModule&#45;&gt;CmsLibModule -->
<g id="edge44" class="edge">
<title>TabParagraphContainerModule&#45;&gt;CmsLibModule</title>
<path fill="none" stroke="black" d="M728,-122.01C728,-144.49 728,-180 728,-180 728,-180 4198.66,-180 4198.66,-180"/>
<polygon fill="black" stroke="black" points="4198.66,-183.5 4208.66,-180 4198.66,-176.5 4198.66,-183.5"/>
</g>
<!-- UpdateEmailModule -->
<g id="node45" class="node">
<title>UpdateEmailModule</title>
<polygon fill="#8dd3c7" stroke="black" points="613.92,-122 610.92,-126 589.92,-126 586.92,-122 480.08,-122 480.08,-86 613.92,-86 613.92,-122"/>
<text text-anchor="middle" x="547" y="-99.8" font-family="Times,serif" font-size="14.00">UpdateEmailModule</text>
</g>
<!-- UpdateEmailModule&#45;&gt;CmsLibModule -->
<g id="edge45" class="edge">
<title>UpdateEmailModule&#45;&gt;CmsLibModule</title>
<path fill="none" stroke="black" d="M547,-122.09C547,-145.13 547,-182 547,-182 547,-182 4198.5,-182 4198.5,-182"/>
<polygon fill="black" stroke="black" points="4198.5,-185.5 4208.5,-182 4198.5,-178.5 4198.5,-185.5"/>
</g>
<!-- UpdatePasswordModule -->
<g id="node46" class="node">
<title>UpdatePasswordModule</title>
<polygon fill="#8dd3c7" stroke="black" points="461.63,-122 458.63,-126 437.63,-126 434.63,-122 308.37,-122 308.37,-86 461.63,-86 461.63,-122"/>
<text text-anchor="middle" x="385" y="-99.8" font-family="Times,serif" font-size="14.00">UpdatePasswordModule</text>
</g>
<!-- UpdatePasswordModule&#45;&gt;CmsLibModule -->
<g id="edge46" class="edge">
<title>UpdatePasswordModule&#45;&gt;CmsLibModule</title>
<path fill="none" stroke="black" d="M385,-122.32C385,-145.66 385,-183 385,-183 385,-183 4198.78,-183 4198.78,-183"/>
<polygon fill="black" stroke="black" points="4198.78,-186.5 4208.78,-183 4198.78,-179.5 4198.78,-186.5"/>
</g>
<!-- UpdateProfileModule -->
<g id="node47" class="node">
<title>UpdateProfileModule</title>
<polygon fill="#8dd3c7" stroke="black" points="290.08,-122 287.08,-126 266.08,-126 263.08,-122 151.92,-122 151.92,-86 290.08,-86 290.08,-122"/>
<text text-anchor="middle" x="221" y="-99.8" font-family="Times,serif" font-size="14.00">UpdateProfileModule</text>
</g>
<!-- UpdateProfileModule&#45;&gt;CmsLibModule -->
<g id="edge47" class="edge">
<title>UpdateProfileModule&#45;&gt;CmsLibModule</title>
<path fill="none" stroke="black" d="M221,-122.15C221,-145.76 221,-184 221,-184 221,-184 4198.81,-184 4198.81,-184"/>
<polygon fill="black" stroke="black" points="4198.81,-187.5 4208.81,-184 4198.81,-180.5 4198.81,-187.5"/>
</g>
<!-- WishListModule -->
<g id="node48" class="node">
<title>WishListModule</title>
<polygon fill="#8dd3c7" stroke="black" points="134.38,-122 131.38,-126 110.38,-126 107.38,-122 23.62,-122 23.62,-86 134.38,-86 134.38,-122"/>
<text text-anchor="middle" x="79" y="-99.8" font-family="Times,serif" font-size="14.00">WishListModule</text>
</g>
<!-- WishListModule&#45;&gt;CmsLibModule -->
<g id="edge48" class="edge">
<title>WishListModule&#45;&gt;CmsLibModule</title>
<path fill="none" stroke="black" d="M79,-122.2C79,-146.36 79,-186 79,-186 79,-186 4198.5,-186 4198.5,-186"/>
<polygon fill="black" stroke="black" points="4198.5,-189.5 4208.5,-186 4198.5,-182.5 4198.5,-189.5"/>
</g>
</g>
</svg>
