<?xml version="1.0" encoding="UTF-8" standalone="no"?>
<!DOCTYPE svg PUBLIC "-//W3C//DTD SVG 1.1//EN"
 "http://www.w3.org/Graphics/SVG/1.1/DTD/svg11.dtd">
<!-- Generated by graphviz version 2.40.1 (20161225.0304)
 -->
<!-- Title: dependencies Pages: 1 -->
<svg width="7423pt" height="211pt"
 viewBox="0.00 0.00 7423.00 211.00" xmlns="http://www.w3.org/2000/svg" xmlns:xlink="http://www.w3.org/1999/xlink">
<g id="graph0" class="graph" transform="scale(1 1) rotate(0) translate(4 207)">
<title>dependencies</title>
<polygon fill="#ffffff" stroke="transparent" points="-4,4 -4,-207 7419,-207 7419,4 -4,4"/>
<text text-anchor="start" x="3686.5091" y="-42.4" font-family="sans-serif" font-weight="bold" font-size="14.00" fill="#000000">Legend</text>
<polygon fill="#ffffb3" stroke="transparent" points="3473.5,-10 3473.5,-30 3493.5,-30 3493.5,-10 3473.5,-10"/>
<text text-anchor="start" x="3497.129" y="-15.4" font-family="sans-serif" font-size="14.00" fill="#000000"> &#160;Declarations</text>
<polygon fill="#8dd3c7" stroke="transparent" points="3586.5,-10 3586.5,-30 3606.5,-30 3606.5,-10 3586.5,-10"/>
<text text-anchor="start" x="3610.2251" y="-15.4" font-family="sans-serif" font-size="14.00" fill="#000000"> &#160;Module</text>
<polygon fill="#80b1d3" stroke="transparent" points="3672.5,-10 3672.5,-30 3692.5,-30 3692.5,-10 3672.5,-10"/>
<text text-anchor="start" x="3696.2812" y="-15.4" font-family="sans-serif" font-size="14.00" fill="#000000"> &#160;Bootstrap</text>
<polygon fill="#fdb462" stroke="transparent" points="3769.5,-10 3769.5,-30 3789.5,-30 3789.5,-10 3769.5,-10"/>
<text text-anchor="start" x="3793.1732" y="-15.4" font-family="sans-serif" font-size="14.00" fill="#000000"> &#160;Providers</text>
<polygon fill="#fb8072" stroke="transparent" points="3865.5,-10 3865.5,-30 3885.5,-30 3885.5,-10 3865.5,-10"/>
<text text-anchor="start" x="3889.2258" y="-15.4" font-family="sans-serif" font-size="14.00" fill="#000000"> &#160;Exports</text>
<g id="clust1" class="cluster">
<title>cluster_CmsLibModule</title>
<polygon fill="none" stroke="#000000" stroke-dasharray="1,5" points="8,-70 8,-195 7407,-195 7407,-70 8,-70"/>
</g>
<g id="clust3" class="cluster">
<title>cluster_CmsLibModule_imports</title>
<polygon fill="none" stroke="#000000" points="16,-78 16,-130 7399,-130 7399,-78 16,-78"/>
</g>
<!-- AddressBookModule -->
<g id="node1" class="node">
<title>AddressBookModule</title>
<polygon fill="#8dd3c7" stroke="#000000" points="7390.7576,-122 7387.7576,-126 7366.7576,-126 7363.7576,-122 7255.2424,-122 7255.2424,-86 7390.7576,-86 7390.7576,-122"/>
<text text-anchor="middle" x="7323" y="-99.8" font-family="Times,serif" font-size="14.00" fill="#000000">AddressBookModule</text>
</g>
<!-- CmsLibModule -->
<g id="node46" class="node">
<title>CmsLibModule</title>
<polygon fill="#8dd3c7" stroke="#000000" points="3752.1653,-187 3749.1653,-191 3728.1653,-191 3725.1653,-187 3647.8347,-187 3647.8347,-151 3752.1653,-151 3752.1653,-187"/>
<text text-anchor="middle" x="3700" y="-164.8" font-family="Times,serif" font-size="14.00" fill="#000000">CmsLibModule</text>
</g>
<!-- AddressBookModule&#45;&gt;CmsLibModule -->
<g id="edge1" class="edge">
<title>AddressBookModule&#45;&gt;CmsLibModule</title>
<path fill="none" stroke="#000000" d="M7323,-122.1985C7323,-146.3563 7323,-186 7323,-186 7323,-186 3762.2616,-186 3762.2616,-186"/>
<polygon fill="#000000" stroke="#000000" points="3762.2617,-182.5001 3752.2616,-186 3762.2616,-189.5001 3762.2617,-182.5001"/>
</g>
<!-- AnonymousConsentManagementBannerModule -->
<g id="node2" class="node">
<title>AnonymousConsentManagementBannerModule</title>
<polygon fill="#8dd3c7" stroke="#000000" points="7236.8889,-122 7233.8889,-126 7212.8889,-126 7209.8889,-122 6949.1111,-122 6949.1111,-86 7236.8889,-86 7236.8889,-122"/>
<text text-anchor="middle" x="7093" y="-99.8" font-family="Times,serif" font-size="14.00" fill="#000000">AnonymousConsentManagementBannerModule</text>
</g>
<!-- AnonymousConsentManagementBannerModule&#45;&gt;CmsLibModule -->
<g id="edge2" class="edge">
<title>AnonymousConsentManagementBannerModule&#45;&gt;CmsLibModule</title>
<path fill="none" stroke="#000000" d="M7093,-122.1532C7093,-145.7566 7093,-184 7093,-184 7093,-184 3762.2761,-184 3762.2761,-184"/>
<polygon fill="#000000" stroke="#000000" points="3762.2761,-180.5001 3752.2761,-184 3762.276,-187.5001 3762.2761,-180.5001"/>
</g>
<!-- AsmModule -->
<g id="node3" class="node">
<title>AsmModule</title>
<polygon fill="#8dd3c7" stroke="#000000" points="6930.9916,-122 6927.9916,-126 6906.9916,-126 6903.9916,-122 6845.0084,-122 6845.0084,-86 6930.9916,-86 6930.9916,-122"/>
<text text-anchor="middle" x="6888" y="-99.8" font-family="Times,serif" font-size="14.00" fill="#000000">AsmModule</text>
</g>
<!-- AsmModule&#45;&gt;CmsLibModule -->
<g id="edge3" class="edge">
<title>AsmModule&#45;&gt;CmsLibModule</title>
<path fill="none" stroke="#000000" d="M6888,-122.3228C6888,-145.6602 6888,-183 6888,-183 6888,-183 3762.3457,-183 3762.3457,-183"/>
<polygon fill="#000000" stroke="#000000" points="3762.3458,-179.5001 3752.3457,-183 3762.3457,-186.5001 3762.3458,-179.5001"/>
</g>
<!-- BannerCarouselModule -->
<g id="node4" class="node">
<title>BannerCarouselModule</title>
<polygon fill="#8dd3c7" stroke="#000000" points="6826.738,-122 6823.738,-126 6802.738,-126 6799.738,-122 6677.262,-122 6677.262,-86 6826.738,-86 6826.738,-122"/>
<text text-anchor="middle" x="6752" y="-99.8" font-family="Times,serif" font-size="14.00" fill="#000000">BannerCarouselModule</text>
</g>
<!-- BannerCarouselModule&#45;&gt;CmsLibModule -->
<g id="edge4" class="edge">
<title>BannerCarouselModule&#45;&gt;CmsLibModule</title>
<path fill="none" stroke="#000000" d="M6752,-122.2479C6752,-145.0179 6752,-181 6752,-181 6752,-181 3762.331,-181 3762.331,-181"/>
<polygon fill="#000000" stroke="#000000" points="3762.3311,-177.5001 3752.331,-181 3762.331,-184.5001 3762.3311,-177.5001"/>
</g>
<!-- BannerModule -->
<g id="node5" class="node">
<title>BannerModule</title>
<polygon fill="#8dd3c7" stroke="#000000" points="6658.9762,-122 6655.9762,-126 6634.9762,-126 6631.9762,-122 6559.0238,-122 6559.0238,-86 6658.9762,-86 6658.9762,-122"/>
<text text-anchor="middle" x="6609" y="-99.8" font-family="Times,serif" font-size="14.00" fill="#000000">BannerModule</text>
</g>
<!-- BannerModule&#45;&gt;CmsLibModule -->
<g id="edge5" class="edge">
<title>BannerModule&#45;&gt;CmsLibModule</title>
<path fill="none" stroke="#000000" d="M6609,-122.0109C6609,-144.4852 6609,-180 6609,-180 6609,-180 3762.3483,-180 3762.3483,-180"/>
<polygon fill="#000000" stroke="#000000" points="3762.3484,-176.5001 3752.3483,-180 3762.3483,-183.5001 3762.3484,-176.5001"/>
</g>
<!-- BreadcrumbModule -->
<g id="node6" class="node">
<title>BreadcrumbModule</title>
<polygon fill="#8dd3c7" stroke="#000000" points="6541.2423,-122 6538.2423,-126 6517.2423,-126 6514.2423,-122 6412.7577,-122 6412.7577,-86 6541.2423,-86 6541.2423,-122"/>
<text text-anchor="middle" x="6477" y="-99.8" font-family="Times,serif" font-size="14.00" fill="#000000">BreadcrumbModule</text>
</g>
<!-- BreadcrumbModule&#45;&gt;CmsLibModule -->
<g id="edge6" class="edge">
<title>BreadcrumbModule&#45;&gt;CmsLibModule</title>
<path fill="none" stroke="#000000" d="M6477,-122.2921C6477,-144.2057 6477,-178 6477,-178 6477,-178 3762.3836,-178 3762.3836,-178"/>
<polygon fill="#000000" stroke="#000000" points="3762.3836,-174.5001 3752.3836,-178 3762.3835,-181.5001 3762.3836,-174.5001"/>
</g>
<!-- CategoryNavigationModule -->
<g id="node7" class="node">
<title>CategoryNavigationModule</title>
<polygon fill="#8dd3c7" stroke="#000000" points="6394.5744,-122 6391.5744,-126 6370.5744,-126 6367.5744,-122 6221.4256,-122 6221.4256,-86 6394.5744,-86 6394.5744,-122"/>
<text text-anchor="middle" x="6308" y="-99.8" font-family="Times,serif" font-size="14.00" fill="#000000">CategoryNavigationModule</text>
</g>
<!-- CategoryNavigationModule&#45;&gt;CmsLibModule -->
<g id="edge7" class="edge">
<title>CategoryNavigationModule&#45;&gt;CmsLibModule</title>
<path fill="none" stroke="#000000" d="M6308,-122.0449C6308,-143.6623 6308,-177 6308,-177 6308,-177 3762.3901,-177 3762.3901,-177"/>
<polygon fill="#000000" stroke="#000000" points="3762.3901,-173.5001 3752.3901,-177 3762.39,-180.5001 3762.3901,-173.5001"/>
</g>
<!-- CloseAccountModule -->
<g id="node8" class="node">
<title>CloseAccountModule</title>
<polygon fill="#8dd3c7" stroke="#000000" points="6203.3627,-122 6200.3627,-126 6179.3627,-126 6176.3627,-122 6064.6373,-122 6064.6373,-86 6203.3627,-86 6203.3627,-122"/>
<text text-anchor="middle" x="6134" y="-99.8" font-family="Times,serif" font-size="14.00" fill="#000000">CloseAccountModule</text>
</g>
<!-- CloseAccountModule&#45;&gt;CmsLibModule -->
<g id="edge8" class="edge">
<title>CloseAccountModule&#45;&gt;CmsLibModule</title>
<path fill="none" stroke="#000000" d="M6134,-122.2843C6134,-143.3211 6134,-175 6134,-175 6134,-175 3762.2469,-175 3762.2469,-175"/>
<polygon fill="#000000" stroke="#000000" points="3762.2469,-171.5001 3752.2469,-175 3762.2469,-178.5001 3762.2469,-171.5001"/>
</g>
<!-- CmsParagraphModule -->
<g id="node9" class="node">
<title>CmsParagraphModule</title>
<polygon fill="#8dd3c7" stroke="#000000" points="6046.9692,-122 6043.9692,-126 6022.9692,-126 6019.9692,-122 5905.0308,-122 5905.0308,-86 6046.9692,-86 6046.9692,-122"/>
<text text-anchor="middle" x="5976" y="-99.8" font-family="Times,serif" font-size="14.00" fill="#000000">CmsParagraphModule</text>
</g>
<!-- CmsParagraphModule&#45;&gt;CmsLibModule -->
<g id="edge9" class="edge">
<title>CmsParagraphModule&#45;&gt;CmsLibModule</title>
<path fill="none" stroke="#000000" d="M5976,-122.1289C5976,-142.5724 5976,-173 5976,-173 5976,-173 3762.3604,-173 3762.3604,-173"/>
<polygon fill="#000000" stroke="#000000" points="3762.3604,-169.5001 3752.3604,-173 3762.3603,-176.5001 3762.3604,-169.5001"/>
</g>
<!-- ConsentManagementModule -->
<g id="node10" class="node">
<title>ConsentManagementModule</title>
<polygon fill="#8dd3c7" stroke="#000000" points="5887.021,-122 5884.021,-126 5863.021,-126 5860.021,-122 5708.979,-122 5708.979,-86 5887.021,-86 5887.021,-122"/>
<text text-anchor="middle" x="5798" y="-99.8" font-family="Times,serif" font-size="14.00" fill="#000000">ConsentManagementModule</text>
</g>
<!-- ConsentManagementModule&#45;&gt;CmsLibModule -->
<g id="edge10" class="edge">
<title>ConsentManagementModule&#45;&gt;CmsLibModule</title>
<path fill="none" stroke="#000000" d="M5798,-122.2228C5798,-142.3652 5798,-172 5798,-172 5798,-172 3762.3844,-172 3762.3844,-172"/>
<polygon fill="#000000" stroke="#000000" points="3762.3844,-168.5001 3752.3844,-172 3762.3844,-175.5001 3762.3844,-168.5001"/>
</g>
<!-- FooterNavigationModule -->
<g id="node11" class="node">
<title>FooterNavigationModule</title>
<polygon fill="#8dd3c7" stroke="#000000" points="5691.3061,-122 5688.3061,-126 5667.3061,-126 5664.3061,-122 5532.6939,-122 5532.6939,-86 5691.3061,-86 5691.3061,-122"/>
<text text-anchor="middle" x="5612" y="-99.8" font-family="Times,serif" font-size="14.00" fill="#000000">FooterNavigationModule</text>
</g>
<!-- FooterNavigationModule&#45;&gt;CmsLibModule -->
<g id="edge11" class="edge">
<title>FooterNavigationModule&#45;&gt;CmsLibModule</title>
<path fill="none" stroke="#000000" d="M5612,-122.0348C5612,-141.5762 5612,-170 5612,-170 5612,-170 3762.6321,-170 3762.6321,-170"/>
<polygon fill="#000000" stroke="#000000" points="3762.6321,-166.5001 3752.6321,-170 3762.6321,-173.5001 3762.6321,-166.5001"/>
</g>
<!-- ForgotPasswordModule -->
<g id="node12" class="node">
<title>ForgotPasswordModule</title>
<polygon fill="#8dd3c7" stroke="#000000" points="5515.0379,-122 5512.0379,-126 5491.0379,-126 5488.0379,-122 5364.9621,-122 5364.9621,-86 5515.0379,-86 5515.0379,-122"/>
<text text-anchor="middle" x="5440" y="-99.8" font-family="Times,serif" font-size="14.00" fill="#000000">ForgotPasswordModule</text>
</g>
<!-- ForgotPasswordModule&#45;&gt;CmsLibModule -->
<g id="edge12" class="edge">
<title>ForgotPasswordModule&#45;&gt;CmsLibModule</title>
<path fill="none" stroke="#000000" d="M5440,-122.1061C5440,-141.3391 5440,-169 5440,-169 5440,-169 3762.5488,-169 3762.5488,-169"/>
<polygon fill="#000000" stroke="#000000" points="3762.5488,-165.5001 3752.5488,-169 3762.5488,-172.5001 3762.5488,-165.5001"/>
</g>
<!-- HamburgerMenuModule -->
<g id="node13" class="node">
<title>HamburgerMenuModule</title>
<polygon fill="#8dd3c7" stroke="#000000" points="5346.9566,-122 5343.9566,-126 5322.9566,-126 5319.9566,-122 5191.0434,-122 5191.0434,-86 5346.9566,-86 5346.9566,-122"/>
<text text-anchor="middle" x="5269" y="-99.8" font-family="Times,serif" font-size="14.00" fill="#000000">HamburgerMenuModule</text>
</g>
<!-- HamburgerMenuModule&#45;&gt;CmsLibModule -->
<g id="edge13" class="edge">
<title>HamburgerMenuModule&#45;&gt;CmsLibModule</title>
<path fill="none" stroke="#000000" d="M5269,-122.2222C5269,-140.8285 5269,-167 5269,-167 5269,-167 3762.2034,-167 3762.2034,-167"/>
<polygon fill="#000000" stroke="#000000" points="3762.2035,-163.5001 3752.2034,-167 3762.2034,-170.5001 3762.2035,-163.5001"/>
</g>
<!-- LinkModule -->
<g id="node14" class="node">
<title>LinkModule</title>
<polygon fill="#8dd3c7" stroke="#000000" points="5172.993,-122 5169.993,-126 5148.993,-126 5145.993,-122 5087.007,-122 5087.007,-86 5172.993,-86 5172.993,-122"/>
<text text-anchor="middle" x="5130" y="-99.8" font-family="Times,serif" font-size="14.00" fill="#000000">LinkModule</text>
</g>
<!-- LinkModule&#45;&gt;CmsLibModule -->
<g id="edge14" class="edge">
<title>LinkModule&#45;&gt;CmsLibModule</title>
<path fill="none" stroke="#000000" d="M5130,-122.2667C5130,-140.5552 5130,-166 5130,-166 5130,-166 3762.5904,-166 3762.5904,-166"/>
<polygon fill="#000000" stroke="#000000" points="3762.5904,-162.5001 3752.5904,-166 3762.5904,-169.5001 3762.5904,-162.5001"/>
</g>
<!-- MyCouponsModule -->
<g id="node15" class="node">
<title>MyCouponsModule</title>
<polygon fill="#8dd3c7" stroke="#000000" points="5069.2758,-122 5066.2758,-126 5045.2758,-126 5042.2758,-122 4940.7242,-122 4940.7242,-86 5069.2758,-86 5069.2758,-122"/>
<text text-anchor="middle" x="5005" y="-99.8" font-family="Times,serif" font-size="14.00" fill="#000000">MyCouponsModule</text>
</g>
<!-- MyCouponsModule&#45;&gt;CmsLibModule -->
<g id="edge15" class="edge">
<title>MyCouponsModule&#45;&gt;CmsLibModule</title>
<path fill="none" stroke="#000000" d="M5005,-122.002C5005,-139.6754 5005,-164 5005,-164 5005,-164 3762.3676,-164 3762.3676,-164"/>
<polygon fill="#000000" stroke="#000000" points="3762.3677,-160.5001 3752.3676,-164 3762.3676,-167.5001 3762.3677,-160.5001"/>
</g>
<!-- MyInterestsModule -->
<g id="node16" class="node">
<title>MyInterestsModule</title>
<polygon fill="#8dd3c7" stroke="#000000" points="4922.4159,-122 4919.4159,-126 4898.4159,-126 4895.4159,-122 4795.5841,-122 4795.5841,-86 4922.4159,-86 4922.4159,-122"/>
<text text-anchor="middle" x="4859" y="-99.8" font-family="Times,serif" font-size="14.00" fill="#000000">MyInterestsModule</text>
</g>
<!-- MyInterestsModule&#45;&gt;CmsLibModule -->
<g id="edge16" class="edge">
<title>MyInterestsModule&#45;&gt;CmsLibModule</title>
<path fill="none" stroke="#000000" d="M4859,-122.0336C4859,-139.0597 4859,-162 4859,-162 4859,-162 3762.4308,-162 3762.4308,-162"/>
<polygon fill="#000000" stroke="#000000" points="3762.4309,-158.5001 3752.4308,-162 3762.4308,-165.5001 3762.4309,-158.5001"/>
</g>
<!-- NavigationModule -->
<g id="node17" class="node">
<title>NavigationModule</title>
<polygon fill="#8dd3c7" stroke="#000000" points="4777.7576,-122 4774.7576,-126 4753.7576,-126 4750.7576,-122 4656.2424,-122 4656.2424,-86 4777.7576,-86 4777.7576,-122"/>
<text text-anchor="middle" x="4717" y="-99.8" font-family="Times,serif" font-size="14.00" fill="#000000">NavigationModule</text>
</g>
<!-- NavigationModule&#45;&gt;CmsLibModule -->
<g id="edge17" class="edge">
<title>NavigationModule&#45;&gt;CmsLibModule</title>
<path fill="none" stroke="#000000" d="M4717,-122.0352C4717,-138.7344 4717,-161 4717,-161 4717,-161 3762.1835,-161 3762.1835,-161"/>
<polygon fill="#000000" stroke="#000000" points="3762.1836,-157.5001 3752.1835,-161 3762.1835,-164.5001 3762.1836,-157.5001"/>
</g>
<!-- NotificationPreferenceModule -->
<g id="node18" class="node">
<title>NotificationPreferenceModule</title>
<polygon fill="#8dd3c7" stroke="#000000" points="4638.5366,-122 4635.5366,-126 4614.5366,-126 4611.5366,-122 4451.4634,-122 4451.4634,-86 4638.5366,-86 4638.5366,-122"/>
<text text-anchor="middle" x="4545" y="-99.8" font-family="Times,serif" font-size="14.00" fill="#000000">NotificationPreferenceModule</text>
</g>
<!-- NotificationPreferenceModule&#45;&gt;CmsLibModule -->
<g id="edge18" class="edge">
<title>NotificationPreferenceModule&#45;&gt;CmsLibModule</title>
<path fill="none" stroke="#000000" d="M4545,-122.0091C4545,-138.0494 4545,-159 4545,-159 4545,-159 3762.2208,-159 3762.2208,-159"/>
<polygon fill="#000000" stroke="#000000" points="3762.2209,-155.5001 3752.2208,-159 3762.2208,-162.5001 3762.2209,-155.5001"/>
</g>
<!-- OrderCancellationModule -->
<g id="node19" class="node">
<title>OrderCancellationModule</title>
<polygon fill="#8dd3c7" stroke="#000000" points="4433.4496,-122 4430.4496,-126 4409.4496,-126 4406.4496,-122 4270.5504,-122 4270.5504,-86 4433.4496,-86 4433.4496,-122"/>
<text text-anchor="middle" x="4352" y="-99.8" font-family="Times,serif" font-size="14.00" fill="#000000">OrderCancellationModule</text>
</g>
<!-- OrderCancellationModule&#45;&gt;CmsLibModule -->
<g id="edge19" class="edge">
<title>OrderCancellationModule&#45;&gt;CmsLibModule</title>
<path fill="none" stroke="#000000" d="M4352,-122.2819C4352,-137.9478 4352,-158 4352,-158 4352,-158 3762.2538,-158 3762.2538,-158"/>
<polygon fill="#000000" stroke="#000000" points="3762.2538,-154.5001 3752.2538,-158 3762.2537,-161.5001 3762.2538,-154.5001"/>
</g>
<!-- OrderConfirmationModule -->
<g id="node20" class="node">
<title>OrderConfirmationModule</title>
<polygon fill="#8dd3c7" stroke="#000000" points="4252.6274,-122 4249.6274,-126 4228.6274,-126 4225.6274,-122 4085.3726,-122 4085.3726,-86 4252.6274,-86 4252.6274,-122"/>
<text text-anchor="middle" x="4169" y="-99.8" font-family="Times,serif" font-size="14.00" fill="#000000">OrderConfirmationModule</text>
</g>
<!-- OrderConfirmationModule&#45;&gt;CmsLibModule -->
<g id="edge20" class="edge">
<title>OrderConfirmationModule&#45;&gt;CmsLibModule</title>
<path fill="none" stroke="#000000" d="M4169,-122.1871C4169,-137.1824 4169,-156 4169,-156 4169,-156 3762.4351,-156 3762.4351,-156"/>
<polygon fill="#000000" stroke="#000000" points="3762.4351,-152.5001 3752.4351,-156 3762.4351,-159.5001 3762.4351,-152.5001"/>
</g>
<!-- OrderDetailsModule -->
<g id="node21" class="node">
<title>OrderDetailsModule</title>
<polygon fill="#8dd3c7" stroke="#000000" points="4066.8445,-122 4063.8445,-126 4042.8445,-126 4039.8445,-122 3935.1555,-122 3935.1555,-86 4066.8445,-86 4066.8445,-122"/>
<text text-anchor="middle" x="4001" y="-99.8" font-family="Times,serif" font-size="14.00" fill="#000000">OrderDetailsModule</text>
</g>
<!-- OrderDetailsModule&#45;&gt;CmsLibModule -->
<g id="edge21" class="edge">
<title>OrderDetailsModule&#45;&gt;CmsLibModule</title>
<path fill="none" stroke="#000000" d="M4001,-122.1243C4001,-136.7832 4001,-155 4001,-155 4001,-155 3762.4302,-155 3762.4302,-155"/>
<polygon fill="#000000" stroke="#000000" points="3762.4302,-151.5001 3752.4302,-155 3762.4302,-158.5001 3762.4302,-151.5001"/>
</g>
<!-- OrderHistoryModule -->
<g id="node22" class="node">
<title>OrderHistoryModule</title>
<polygon fill="#8dd3c7" stroke="#000000" points="3917.1853,-122 3914.1853,-126 3893.1853,-126 3890.1853,-122 3782.8147,-122 3782.8147,-86 3917.1853,-86 3917.1853,-122"/>
<text text-anchor="middle" x="3850" y="-99.8" font-family="Times,serif" font-size="14.00" fill="#000000">OrderHistoryModule</text>
</g>
<!-- OrderHistoryModule&#45;&gt;CmsLibModule -->
<g id="edge22" class="edge">
<title>OrderHistoryModule&#45;&gt;CmsLibModule</title>
<path fill="none" stroke="#000000" d="M3850,-122.2458C3850,-136.1772 3850,-153 3850,-153 3850,-153 3762.4627,-153 3762.4627,-153"/>
<polygon fill="#000000" stroke="#000000" points="3762.4628,-149.5001 3752.4627,-153 3762.4627,-156.5001 3762.4628,-149.5001"/>
</g>
<!-- OrderReturnModule -->
<g id="node23" class="node">
<title>OrderReturnModule</title>
<polygon fill="#8dd3c7" stroke="#000000" points="3765.2949,-122 3762.2949,-126 3741.2949,-126 3738.2949,-122 3634.7051,-122 3634.7051,-86 3765.2949,-86 3765.2949,-122"/>
<text text-anchor="middle" x="3700" y="-99.8" font-family="Times,serif" font-size="14.00" fill="#000000">OrderReturnModule</text>
</g>
<!-- OrderReturnModule&#45;&gt;CmsLibModule -->
<g id="edge23" class="edge">
<title>OrderReturnModule&#45;&gt;CmsLibModule</title>
<path fill="none" stroke="#000000" d="M3700,-122.1061C3700,-122.1061 3700,-140.991 3700,-140.991"/>
<polygon fill="#000000" stroke="#000000" points="3696.5001,-140.9909 3700,-150.991 3703.5001,-140.991 3696.5001,-140.9909"/>
</g>
<!-- PaymentMethodsModule -->
<g id="node24" class="node">
<title>PaymentMethodsModule</title>
<polygon fill="#8dd3c7" stroke="#000000" points="3616.5379,-122 3613.5379,-126 3592.5379,-126 3589.5379,-122 3459.4621,-122 3459.4621,-86 3616.5379,-86 3616.5379,-122"/>
<text text-anchor="middle" x="3538" y="-99.8" font-family="Times,serif" font-size="14.00" fill="#000000">PaymentMethodsModule</text>
</g>
<!-- PaymentMethodsModule&#45;&gt;CmsLibModule -->
<g id="edge24" class="edge">
<title>PaymentMethodsModule&#45;&gt;CmsLibModule</title>
<path fill="none" stroke="#000000" d="M3538,-122.2458C3538,-136.1772 3538,-153 3538,-153 3538,-153 3637.4032,-153 3637.4032,-153"/>
<polygon fill="#000000" stroke="#000000" points="3637.4033,-156.5001 3647.4032,-153 3637.4032,-149.5001 3637.4033,-156.5001"/>
</g>
<!-- ProductCarouselModule -->
<g id="node25" class="node">
<title>ProductCarouselModule</title>
<polygon fill="#8dd3c7" stroke="#000000" points="3441.3599,-122 3438.3599,-126 3417.3599,-126 3414.3599,-122 3288.6401,-122 3288.6401,-86 3441.3599,-86 3441.3599,-122"/>
<text text-anchor="middle" x="3365" y="-99.8" font-family="Times,serif" font-size="14.00" fill="#000000">ProductCarouselModule</text>
</g>
<!-- ProductCarouselModule&#45;&gt;CmsLibModule -->
<g id="edge25" class="edge">
<title>ProductCarouselModule&#45;&gt;CmsLibModule</title>
<path fill="none" stroke="#000000" d="M3365,-122.1243C3365,-136.7832 3365,-155 3365,-155 3365,-155 3637.6563,-155 3637.6563,-155"/>
<polygon fill="#000000" stroke="#000000" points="3637.6563,-158.5001 3647.6563,-155 3637.6562,-151.5001 3637.6563,-158.5001"/>
</g>
<!-- ProductImagesModule -->
<g id="node26" class="node">
<title>ProductImagesModule</title>
<polygon fill="#8dd3c7" stroke="#000000" points="3270.524,-122 3267.524,-126 3246.524,-126 3243.524,-122 3127.476,-122 3127.476,-86 3270.524,-86 3270.524,-122"/>
<text text-anchor="middle" x="3199" y="-99.8" font-family="Times,serif" font-size="14.00" fill="#000000">ProductImagesModule</text>
</g>
<!-- ProductImagesModule&#45;&gt;CmsLibModule -->
<g id="edge26" class="edge">
<title>ProductImagesModule&#45;&gt;CmsLibModule</title>
<path fill="none" stroke="#000000" d="M3199,-122.1871C3199,-137.1824 3199,-156 3199,-156 3199,-156 3637.802,-156 3637.802,-156"/>
<polygon fill="#000000" stroke="#000000" points="3637.8021,-159.5001 3647.802,-156 3637.802,-152.5001 3637.8021,-159.5001"/>
</g>
<!-- ProductIntroModule -->
<g id="node27" class="node">
<title>ProductIntroModule</title>
<polygon fill="#8dd3c7" stroke="#000000" points="3109.3104,-122 3106.3104,-126 3085.3104,-126 3082.3104,-122 2978.6896,-122 2978.6896,-86 3109.3104,-86 3109.3104,-122"/>
<text text-anchor="middle" x="3044" y="-99.8" font-family="Times,serif" font-size="14.00" fill="#000000">ProductIntroModule</text>
</g>
<!-- ProductIntroModule&#45;&gt;CmsLibModule -->
<g id="edge27" class="edge">
<title>ProductIntroModule&#45;&gt;CmsLibModule</title>
<path fill="none" stroke="#000000" d="M3044,-122.2819C3044,-137.9478 3044,-158 3044,-158 3044,-158 3637.7014,-158 3637.7014,-158"/>
<polygon fill="#000000" stroke="#000000" points="3637.7014,-161.5001 3647.7014,-158 3637.7013,-154.5001 3637.7014,-161.5001"/>
</g>
<!-- ProductListModule -->
<g id="node28" class="node">
<title>ProductListModule</title>
<polygon fill="#8dd3c7" stroke="#000000" points="2960.3767,-122 2957.3767,-126 2936.3767,-126 2933.3767,-122 2835.6233,-122 2835.6233,-86 2960.3767,-86 2960.3767,-122"/>
<text text-anchor="middle" x="2898" y="-99.8" font-family="Times,serif" font-size="14.00" fill="#000000">ProductListModule</text>
</g>
<!-- ProductListModule&#45;&gt;CmsLibModule -->
<g id="edge28" class="edge">
<title>ProductListModule&#45;&gt;CmsLibModule</title>
<path fill="none" stroke="#000000" d="M2898,-122.0091C2898,-138.0494 2898,-159 2898,-159 2898,-159 3637.6879,-159 3637.6879,-159"/>
<polygon fill="#000000" stroke="#000000" points="3637.6879,-162.5001 3647.6879,-159 3637.6879,-155.5001 3637.6879,-162.5001"/>
</g>
<!-- ProductReferencesModule -->
<g id="node29" class="node">
<title>ProductReferencesModule</title>
<polygon fill="#8dd3c7" stroke="#000000" points="2817.7738,-122 2814.7738,-126 2793.7738,-126 2790.7738,-122 2652.2262,-122 2652.2262,-86 2817.7738,-86 2817.7738,-122"/>
<text text-anchor="middle" x="2735" y="-99.8" font-family="Times,serif" font-size="14.00" fill="#000000">ProductReferencesModule</text>
</g>
<!-- ProductReferencesModule&#45;&gt;CmsLibModule -->
<g id="edge29" class="edge">
<title>ProductReferencesModule&#45;&gt;CmsLibModule</title>
<path fill="none" stroke="#000000" d="M2735,-122.0352C2735,-138.7344 2735,-161 2735,-161 2735,-161 3637.7753,-161 3637.7753,-161"/>
<polygon fill="#000000" stroke="#000000" points="3637.7753,-164.5001 3647.7753,-161 3637.7752,-157.5001 3637.7753,-164.5001"/>
</g>
<!-- ProductSummaryModule -->
<g id="node30" class="node">
<title>ProductSummaryModule</title>
<polygon fill="#8dd3c7" stroke="#000000" points="2634.5379,-122 2631.5379,-126 2610.5379,-126 2607.5379,-122 2477.4621,-122 2477.4621,-86 2634.5379,-86 2634.5379,-122"/>
<text text-anchor="middle" x="2556" y="-99.8" font-family="Times,serif" font-size="14.00" fill="#000000">ProductSummaryModule</text>
</g>
<!-- ProductSummaryModule&#45;&gt;CmsLibModule -->
<g id="edge30" class="edge">
<title>ProductSummaryModule&#45;&gt;CmsLibModule</title>
<path fill="none" stroke="#000000" d="M2556,-122.0336C2556,-139.0597 2556,-162 2556,-162 2556,-162 3637.495,-162 3637.495,-162"/>
<polygon fill="#000000" stroke="#000000" points="3637.4951,-165.5001 3647.495,-162 3637.495,-158.5001 3637.4951,-165.5001"/>
</g>
<!-- ProductTabsModule -->
<g id="node31" class="node">
<title>ProductTabsModule</title>
<polygon fill="#8dd3c7" stroke="#000000" points="2459.3104,-122 2456.3104,-126 2435.3104,-126 2432.3104,-122 2328.6896,-122 2328.6896,-86 2459.3104,-86 2459.3104,-122"/>
<text text-anchor="middle" x="2394" y="-99.8" font-family="Times,serif" font-size="14.00" fill="#000000">ProductTabsModule</text>
</g>
<!-- ProductTabsModule&#45;&gt;CmsLibModule -->
<g id="edge31" class="edge">
<title>ProductTabsModule&#45;&gt;CmsLibModule</title>
<path fill="none" stroke="#000000" d="M2394,-122.002C2394,-139.6754 2394,-164 2394,-164 2394,-164 3637.5922,-164 3637.5922,-164"/>
<polygon fill="#000000" stroke="#000000" points="3637.5923,-167.5001 3647.5922,-164 3637.5922,-160.5001 3637.5923,-167.5001"/>
</g>
<!-- ProductVariantsModule -->
<g id="node32" class="node">
<title>ProductVariantsModule</title>
<polygon fill="#8dd3c7" stroke="#000000" points="2311.0212,-122 2308.0212,-126 2287.0212,-126 2284.0212,-122 2160.9788,-122 2160.9788,-86 2311.0212,-86 2311.0212,-122"/>
<text text-anchor="middle" x="2236" y="-99.8" font-family="Times,serif" font-size="14.00" fill="#000000">ProductVariantsModule</text>
</g>
<!-- ProductVariantsModule&#45;&gt;CmsLibModule -->
<g id="edge32" class="edge">
<title>ProductVariantsModule&#45;&gt;CmsLibModule</title>
<path fill="none" stroke="#000000" d="M2236,-122.2667C2236,-140.5552 2236,-166 2236,-166 2236,-166 3637.4638,-166 3637.4638,-166"/>
<polygon fill="#000000" stroke="#000000" points="3637.4639,-169.5001 3647.4638,-166 3637.4638,-162.5001 3637.4639,-169.5001"/>
</g>
<!-- QualtricsModule -->
<g id="node33" class="node">
<title>QualtricsModule</title>
<polygon fill="#8dd3c7" stroke="#000000" points="2142.3627,-122 2139.3627,-126 2118.3627,-126 2115.3627,-122 2031.6373,-122 2031.6373,-86 2142.3627,-86 2142.3627,-122"/>
<text text-anchor="middle" x="2087" y="-99.8" font-family="Times,serif" font-size="14.00" fill="#000000">QualtricsModule</text>
</g>
<!-- QualtricsModule&#45;&gt;CmsLibModule -->
<g id="edge33" class="edge">
<title>QualtricsModule&#45;&gt;CmsLibModule</title>
<path fill="none" stroke="#000000" d="M2087,-122.2222C2087,-140.8285 2087,-167 2087,-167 2087,-167 3637.7055,-167 3637.7055,-167"/>
<polygon fill="#000000" stroke="#000000" points="3637.7055,-170.5001 3647.7055,-167 3637.7054,-163.5001 3637.7055,-170.5001"/>
</g>
<!-- ResetPasswordModule -->
<g id="node34" class="node">
<title>ResetPasswordModule</title>
<polygon fill="#8dd3c7" stroke="#000000" points="2013.3047,-122 2010.3047,-126 1989.3047,-126 1986.3047,-122 1868.6953,-122 1868.6953,-86 2013.3047,-86 2013.3047,-122"/>
<text text-anchor="middle" x="1941" y="-99.8" font-family="Times,serif" font-size="14.00" fill="#000000">ResetPasswordModule</text>
</g>
<!-- ResetPasswordModule&#45;&gt;CmsLibModule -->
<g id="edge34" class="edge">
<title>ResetPasswordModule&#45;&gt;CmsLibModule</title>
<path fill="none" stroke="#000000" d="M1941,-122.1061C1941,-141.3391 1941,-169 1941,-169 1941,-169 3637.8339,-169 3637.8339,-169"/>
<polygon fill="#000000" stroke="#000000" points="3637.8339,-172.5001 3647.8339,-169 3637.8338,-165.5001 3637.8339,-172.5001"/>
</g>
<!-- ReturnRequestDetailModule -->
<g id="node35" class="node">
<title>ReturnRequestDetailModule</title>
<polygon fill="#8dd3c7" stroke="#000000" points="1850.4608,-122 1847.4608,-126 1826.4608,-126 1823.4608,-122 1673.5392,-122 1673.5392,-86 1850.4608,-86 1850.4608,-122"/>
<text text-anchor="middle" x="1762" y="-99.8" font-family="Times,serif" font-size="14.00" fill="#000000">ReturnRequestDetailModule</text>
</g>
<!-- ReturnRequestDetailModule&#45;&gt;CmsLibModule -->
<g id="edge35" class="edge">
<title>ReturnRequestDetailModule&#45;&gt;CmsLibModule</title>
<path fill="none" stroke="#000000" d="M1762,-122.0348C1762,-141.5762 1762,-170 1762,-170 1762,-170 3637.6617,-170 3637.6617,-170"/>
<polygon fill="#000000" stroke="#000000" points="3637.6618,-173.5001 3647.6617,-170 3637.6617,-166.5001 3637.6618,-173.5001"/>
</g>
<!-- ReturnRequestListModule -->
<g id="node36" class="node">
<title>ReturnRequestListModule</title>
<polygon fill="#8dd3c7" stroke="#000000" points="1655.0323,-122 1652.0323,-126 1631.0323,-126 1628.0323,-122 1490.9677,-122 1490.9677,-86 1655.0323,-86 1655.0323,-122"/>
<text text-anchor="middle" x="1573" y="-99.8" font-family="Times,serif" font-size="14.00" fill="#000000">ReturnRequestListModule</text>
</g>
<!-- ReturnRequestListModule&#45;&gt;CmsLibModule -->
<g id="edge36" class="edge">
<title>ReturnRequestListModule&#45;&gt;CmsLibModule</title>
<path fill="none" stroke="#000000" d="M1573,-122.2228C1573,-142.3652 1573,-172 1573,-172 1573,-172 3637.6866,-172 3637.6866,-172"/>
<polygon fill="#000000" stroke="#000000" points="3637.6866,-175.5001 3647.6866,-172 3637.6866,-168.5001 3637.6866,-175.5001"/>
</g>
<!-- SearchBoxModule -->
<g id="node37" class="node">
<title>SearchBoxModule</title>
<polygon fill="#8dd3c7" stroke="#000000" points="1472.4734,-122 1469.4734,-126 1448.4734,-126 1445.4734,-122 1351.5266,-122 1351.5266,-86 1472.4734,-86 1472.4734,-122"/>
<text text-anchor="middle" x="1412" y="-99.8" font-family="Times,serif" font-size="14.00" fill="#000000">SearchBoxModule</text>
</g>
<!-- SearchBoxModule&#45;&gt;CmsLibModule -->
<g id="edge37" class="edge">
<title>SearchBoxModule&#45;&gt;CmsLibModule</title>
<path fill="none" stroke="#000000" d="M1412,-122.1289C1412,-142.5724 1412,-173 1412,-173 1412,-173 3637.6386,-173 3637.6386,-173"/>
<polygon fill="#000000" stroke="#000000" points="3637.6387,-176.5001 3647.6386,-173 3637.6386,-169.5001 3637.6387,-176.5001"/>
</g>
<!-- SiteContextSelectorModule -->
<g id="node38" class="node">
<title>SiteContextSelectorModule</title>
<polygon fill="#8dd3c7" stroke="#000000" points="1333.5294,-122 1330.5294,-126 1309.5294,-126 1306.5294,-122 1162.4706,-122 1162.4706,-86 1333.5294,-86 1333.5294,-122"/>
<text text-anchor="middle" x="1248" y="-99.8" font-family="Times,serif" font-size="14.00" fill="#000000">SiteContextSelectorModule</text>
</g>
<!-- SiteContextSelectorModule&#45;&gt;CmsLibModule -->
<g id="edge38" class="edge">
<title>SiteContextSelectorModule&#45;&gt;CmsLibModule</title>
<path fill="none" stroke="#000000" d="M1248,-122.2843C1248,-143.3211 1248,-175 1248,-175 1248,-175 3637.6521,-175 3637.6521,-175"/>
<polygon fill="#000000" stroke="#000000" points="3637.6522,-178.5001 3647.6521,-175 3637.6521,-171.5001 3637.6522,-178.5001"/>
</g>
<!-- StockNotificationModule -->
<g id="node39" class="node">
<title>StockNotificationModule</title>
<polygon fill="#8dd3c7" stroke="#000000" points="1144.587,-122 1141.587,-126 1120.587,-126 1117.587,-122 985.413,-122 985.413,-86 1144.587,-86 1144.587,-122"/>
<text text-anchor="middle" x="1065" y="-99.8" font-family="Times,serif" font-size="14.00" fill="#000000">StockNotificationModule</text>
</g>
<!-- StockNotificationModule&#45;&gt;CmsLibModule -->
<g id="edge39" class="edge">
<title>StockNotificationModule&#45;&gt;CmsLibModule</title>
<path fill="none" stroke="#000000" d="M1065,-122.0449C1065,-143.6623 1065,-177 1065,-177 1065,-177 3637.6614,-177 3637.6614,-177"/>
<polygon fill="#000000" stroke="#000000" points="3637.6615,-180.5001 3647.6614,-177 3637.6614,-173.5001 3637.6615,-180.5001"/>
</g>
<!-- StoreFinderModule -->
<g id="node40" class="node">
<title>StoreFinderModule</title>
<polygon fill="#8dd3c7" stroke="#000000" points="967.6471,-122 964.6471,-126 943.6471,-126 940.6471,-122 842.3529,-122 842.3529,-86 967.6471,-86 967.6471,-122"/>
<text text-anchor="middle" x="905" y="-99.8" font-family="Times,serif" font-size="14.00" fill="#000000">StoreFinderModule</text>
</g>
<!-- StoreFinderModule&#45;&gt;CmsLibModule -->
<g id="edge40" class="edge">
<title>StoreFinderModule&#45;&gt;CmsLibModule</title>
<path fill="none" stroke="#000000" d="M905,-122.2921C905,-144.2057 905,-178 905,-178 905,-178 3637.5831,-178 3637.5831,-178"/>
<polygon fill="#000000" stroke="#000000" points="3637.5831,-181.5001 3647.5831,-178 3637.5831,-174.5001 3637.5831,-181.5001"/>
</g>
<!-- TabParagraphContainerModule -->
<g id="node41" class="node">
<title>TabParagraphContainerModule</title>
<polygon fill="#8dd3c7" stroke="#000000" points="824.7724,-122 821.7724,-126 800.7724,-126 797.7724,-122 631.2276,-122 631.2276,-86 824.7724,-86 824.7724,-122"/>
<text text-anchor="middle" x="728" y="-99.8" font-family="Times,serif" font-size="14.00" fill="#000000">TabParagraphContainerModule</text>
</g>
<!-- TabParagraphContainerModule&#45;&gt;CmsLibModule -->
<g id="edge41" class="edge">
<title>TabParagraphContainerModule&#45;&gt;CmsLibModule</title>
<path fill="none" stroke="#000000" d="M728,-122.0109C728,-144.4852 728,-180 728,-180 728,-180 3637.7865,-180 3637.7865,-180"/>
<polygon fill="#000000" stroke="#000000" points="3637.7865,-183.5001 3647.7865,-180 3637.7865,-176.5001 3637.7865,-183.5001"/>
</g>
<!-- UpdateEmailModule -->
<g id="node42" class="node">
<title>UpdateEmailModule</title>
<polygon fill="#8dd3c7" stroke="#000000" points="613.9158,-122 610.9158,-126 589.9158,-126 586.9158,-122 480.0842,-122 480.0842,-86 613.9158,-86 613.9158,-122"/>
<text text-anchor="middle" x="547" y="-99.8" font-family="Times,serif" font-size="14.00" fill="#000000">UpdateEmailModule</text>
</g>
<!-- UpdateEmailModule&#45;&gt;CmsLibModule -->
<g id="edge42" class="edge">
<title>UpdateEmailModule&#45;&gt;CmsLibModule</title>
<path fill="none" stroke="#000000" d="M547,-122.2479C547,-145.0179 547,-181 547,-181 547,-181 3637.5789,-181 3637.5789,-181"/>
<polygon fill="#000000" stroke="#000000" points="3637.579,-184.5001 3647.5789,-181 3637.5789,-177.5001 3637.579,-184.5001"/>
</g>
<!-- UpdatePasswordModule -->
<g id="node43" class="node">
<title>UpdatePasswordModule</title>
<polygon fill="#8dd3c7" stroke="#000000" points="461.6302,-122 458.6302,-126 437.6302,-126 434.6302,-122 308.3698,-122 308.3698,-86 461.6302,-86 461.6302,-122"/>
<text text-anchor="middle" x="385" y="-99.8" font-family="Times,serif" font-size="14.00" fill="#000000">UpdatePasswordModule</text>
</g>
<!-- UpdatePasswordModule&#45;&gt;CmsLibModule -->
<g id="edge43" class="edge">
<title>UpdatePasswordModule&#45;&gt;CmsLibModule</title>
<path fill="none" stroke="#000000" d="M385,-122.3228C385,-145.6602 385,-183 385,-183 385,-183 3637.5951,-183 3637.5951,-183"/>
<polygon fill="#000000" stroke="#000000" points="3637.5951,-186.5001 3647.5951,-183 3637.5951,-179.5001 3637.5951,-186.5001"/>
</g>
<!-- UpdateProfileModule -->
<g id="node44" class="node">
<title>UpdateProfileModule</title>
<polygon fill="#8dd3c7" stroke="#000000" points="290.0758,-122 287.0758,-126 266.0758,-126 263.0758,-122 151.9242,-122 151.9242,-86 290.0758,-86 290.0758,-122"/>
<text text-anchor="middle" x="221" y="-99.8" font-family="Times,serif" font-size="14.00" fill="#000000">UpdateProfileModule</text>
</g>
<!-- UpdateProfileModule&#45;&gt;CmsLibModule -->
<g id="edge44" class="edge">
<title>UpdateProfileModule&#45;&gt;CmsLibModule</title>
<path fill="none" stroke="#000000" d="M221,-122.1532C221,-145.7566 221,-184 221,-184 221,-184 3637.7784,-184 3637.7784,-184"/>
<polygon fill="#000000" stroke="#000000" points="3637.7784,-187.5001 3647.7784,-184 3637.7783,-180.5001 3637.7784,-187.5001"/>
</g>
<!-- WishListModule -->
<g id="node45" class="node">
<title>WishListModule</title>
<polygon fill="#8dd3c7" stroke="#000000" points="134.3781,-122 131.3781,-126 110.3781,-126 107.3781,-122 23.6219,-122 23.6219,-86 134.3781,-86 134.3781,-122"/>
<text text-anchor="middle" x="79" y="-99.8" font-family="Times,serif" font-size="14.00" fill="#000000">WishListModule</text>
</g>
<!-- WishListModule&#45;&gt;CmsLibModule -->
<g id="edge45" class="edge">
<title>WishListModule&#45;&gt;CmsLibModule</title>
<path fill="none" stroke="#000000" d="M79,-122.1985C79,-146.3563 79,-186 79,-186 79,-186 3637.7672,-186 3637.7672,-186"/>
<polygon fill="#000000" stroke="#000000" points="3637.7673,-189.5001 3647.7672,-186 3637.7672,-182.5001 3637.7673,-189.5001"/>
</g>
</g>
</svg>
