<?xml version="1.0" encoding="UTF-8" standalone="no"?>
<!DOCTYPE svg PUBLIC "-//W3C//DTD SVG 1.1//EN"
 "http://www.w3.org/Graphics/SVG/1.1/DTD/svg11.dtd">
<!-- Generated by graphviz version 2.40.1 (20161225.0304)
 -->
<!-- Title: dependencies Pages: 1 -->
<svg width="812pt" height="284pt"
 viewBox="0.00 0.00 812.00 284.00" xmlns="http://www.w3.org/2000/svg" xmlns:xlink="http://www.w3.org/1999/xlink">
<g id="graph0" class="graph" transform="scale(1 1) rotate(0) translate(4 280)">
<title>dependencies</title>
<polygon fill="#ffffff" stroke="transparent" points="-4,4 -4,-280 808,-280 808,4 -4,4"/>
<text text-anchor="start" x="381.0091" y="-42.4" font-family="sans-serif" font-weight="bold" font-size="14.00" fill="#000000">Legend</text>
<polygon fill="#ffffb3" stroke="transparent" points="168,-10 168,-30 188,-30 188,-10 168,-10"/>
<text text-anchor="start" x="191.629" y="-15.4" font-family="sans-serif" font-size="14.00" fill="#000000"> &#160;Declarations</text>
<polygon fill="#8dd3c7" stroke="transparent" points="281,-10 281,-30 301,-30 301,-10 281,-10"/>
<text text-anchor="start" x="304.7251" y="-15.4" font-family="sans-serif" font-size="14.00" fill="#000000"> &#160;Module</text>
<polygon fill="#80b1d3" stroke="transparent" points="367,-10 367,-30 387,-30 387,-10 367,-10"/>
<text text-anchor="start" x="390.7812" y="-15.4" font-family="sans-serif" font-size="14.00" fill="#000000"> &#160;Bootstrap</text>
<polygon fill="#fdb462" stroke="transparent" points="464,-10 464,-30 484,-30 484,-10 464,-10"/>
<text text-anchor="start" x="487.6732" y="-15.4" font-family="sans-serif" font-size="14.00" fill="#000000"> &#160;Providers</text>
<polygon fill="#fb8072" stroke="transparent" points="560,-10 560,-30 580,-30 580,-10 560,-10"/>
<text text-anchor="start" x="583.7258" y="-15.4" font-family="sans-serif" font-size="14.00" fill="#000000"> &#160;Exports</text>
<g id="clust1" class="cluster">
<title>cluster_BannerModule</title>
<polygon fill="none" stroke="#000000" stroke-dasharray="1,5" points="8,-70 8,-268 796,-268 796,-70 8,-70"/>
</g>
<g id="clust2" class="cluster">
<title>cluster_BannerModule_declarations</title>
<polygon fill="none" stroke="#000000" points="446,-78 446,-130 788,-130 788,-78 446,-78"/>
</g>
<g id="clust5" class="cluster">
<title>cluster_BannerModule_imports</title>
<polygon fill="none" stroke="#000000" points="16,-78 16,-130 438,-130 438,-78 16,-78"/>
</g>
<g id="clust6" class="cluster">
<title>cluster_BannerModule_exports</title>
<polygon fill="none" stroke="#000000" points="190,-208 190,-260 540,-260 540,-208 190,-208"/>
</g>
<!-- BannerComponent -->
<g id="node1" class="node">
<title>BannerComponent</title>
<polygon fill="#ffffb3" stroke="#000000" points="779.759,-122 658.241,-122 658.241,-86 779.759,-86 779.759,-122"/>
<text text-anchor="middle" x="719" y="-99.8" font-family="Times,serif" font-size="14.00" fill="#000000">BannerComponent</text>
</g>
<!-- BannerModule -->
<g id="node3" class="node">
<title>BannerModule</title>
<polygon fill="#8dd3c7" stroke="#000000" points="430.9762,-187 427.9762,-191 406.9762,-191 403.9762,-187 331.0238,-187 331.0238,-151 430.9762,-151 430.9762,-187"/>
<text text-anchor="middle" x="381" y="-164.8" font-family="Times,serif" font-size="14.00" fill="#000000">BannerModule</text>
</g>
<!-- BannerComponent&#45;&gt;BannerModule -->
<g id="edge1" class="edge">
<title>BannerComponent&#45;&gt;BannerModule</title>
<path fill="none" stroke="#000000" d="M719,-122.2843C719,-143.3211 719,-175 719,-175 719,-175 441.237,-175 441.237,-175"/>
<polygon fill="#000000" stroke="#000000" points="441.2371,-171.5001 431.237,-175 441.237,-178.5001 441.2371,-171.5001"/>
</g>
<!-- ResponsiveBannerComponent -->
<g id="node2" class="node">
<title>ResponsiveBannerComponent</title>
<polygon fill="#ffffb3" stroke="#000000" points="640.3046,-122 453.6954,-122 453.6954,-86 640.3046,-86 640.3046,-122"/>
<text text-anchor="middle" x="547" y="-99.8" font-family="Times,serif" font-size="14.00" fill="#000000">ResponsiveBannerComponent</text>
</g>
<!-- ResponsiveBannerComponent&#45;&gt;BannerModule -->
<g id="edge2" class="edge">
<title>ResponsiveBannerComponent&#45;&gt;BannerModule</title>
<path fill="none" stroke="#000000" d="M492.7386,-122.0225C492.7386,-139.3734 492.7386,-163 492.7386,-163 492.7386,-163 440.9865,-163 440.9865,-163"/>
<polygon fill="#000000" stroke="#000000" points="440.9866,-159.5001 430.9865,-163 440.9865,-166.5001 440.9866,-159.5001"/>
</g>
<!-- BannerComponent  -->
<g id="node7" class="node">
<title>BannerComponent </title>
<polygon fill="#fb8072" stroke="#000000" points="531.7591,-252 406.2409,-252 406.2409,-216 531.7591,-216 531.7591,-252"/>
<text text-anchor="middle" x="469" y="-229.8" font-family="Times,serif" font-size="14.00" fill="#000000">BannerComponent </text>
</g>
<!-- BannerModule&#45;&gt;BannerComponent  -->
<g id="edge6" class="edge">
<title>BannerModule&#45;&gt;BannerComponent </title>
<path fill="none" stroke="#000000" stroke-dasharray="5,2" d="M418.6794,-187.1061C418.6794,-187.1061 418.6794,-205.991 418.6794,-205.991"/>
<polygon fill="#000000" stroke="#000000" points="415.1794,-205.9909 418.6794,-215.991 422.1794,-205.991 415.1794,-205.9909"/>
</g>
<!-- ResponsiveBannerComponent  -->
<g id="node8" class="node">
<title>ResponsiveBannerComponent </title>
<polygon fill="#fb8072" stroke="#000000" points="387.8045,-252 198.1955,-252 198.1955,-216 387.8045,-216 387.8045,-252"/>
<text text-anchor="middle" x="293" y="-229.8" font-family="Times,serif" font-size="14.00" fill="#000000">ResponsiveBannerComponent </text>
</g>
<!-- BannerModule&#45;&gt;ResponsiveBannerComponent  -->
<g id="edge7" class="edge">
<title>BannerModule&#45;&gt;ResponsiveBannerComponent </title>
<path fill="none" stroke="#000000" stroke-dasharray="5,2" d="M359.4571,-187.1061C359.4571,-187.1061 359.4571,-205.991 359.4571,-205.991"/>
<polygon fill="#000000" stroke="#000000" points="355.9571,-205.9909 359.4571,-215.991 362.9571,-205.991 355.9571,-205.9909"/>
</g>
<!-- ConfigModule -->
<g id="node4" class="node">
<title>ConfigModule</title>
<polygon fill="#8dd3c7" stroke="#000000" points="430.4386,-122 427.4386,-126 406.4386,-126 403.4386,-122 331.5614,-122 331.5614,-86 430.4386,-86 430.4386,-122"/>
<text text-anchor="middle" x="381" y="-99.8" font-family="Times,serif" font-size="14.00" fill="#000000">ConfigModule</text>
</g>
<!-- ConfigModule&#45;&gt;BannerModule -->
<g id="edge3" class="edge">
<title>ConfigModule&#45;&gt;BannerModule</title>
<path fill="none" stroke="#000000" d="M381,-122.1061C381,-122.1061 381,-140.991 381,-140.991"/>
<polygon fill="#000000" stroke="#000000" points="377.5001,-140.9909 381,-150.991 384.5001,-140.991 377.5001,-140.9909"/>
</g>
<!-- GenericLinkModule -->
<g id="node5" class="node">
<title>GenericLinkModule</title>
<polygon fill="#8dd3c7" stroke="#000000" points="314.2949,-122 311.2949,-126 290.2949,-126 287.2949,-122 183.7051,-122 183.7051,-86 314.2949,-86 314.2949,-122"/>
<text text-anchor="middle" x="249" y="-99.8" font-family="Times,serif" font-size="14.00" fill="#000000">GenericLinkModule</text>
</g>
<!-- GenericLinkModule&#45;&gt;BannerModule -->
<g id="edge4" class="edge">
<title>GenericLinkModule&#45;&gt;BannerModule</title>
<path fill="none" stroke="#000000" d="M256.1226,-122.0225C256.1226,-139.3734 256.1226,-163 256.1226,-163 256.1226,-163 320.9271,-163 320.9271,-163"/>
<polygon fill="#000000" stroke="#000000" points="320.9271,-166.5001 330.9271,-163 320.9271,-159.5001 320.9271,-166.5001"/>
</g>
<!-- UrlTranslationModule -->
<g id="node6" class="node">
<title>UrlTranslationModule</title>
<polygon fill="#8dd3c7" stroke="#000000" points="165.9664,-122 162.9664,-126 141.9664,-126 138.9664,-122 24.0336,-122 24.0336,-86 165.9664,-86 165.9664,-122"/>
<text text-anchor="middle" x="95" y="-99.8" font-family="Times,serif" font-size="14.00" fill="#000000">UrlTranslationModule</text>
</g>
<!-- UrlTranslationModule&#45;&gt;BannerModule -->
<g id="edge5" class="edge">
<title>UrlTranslationModule&#45;&gt;BannerModule</title>
<path fill="none" stroke="#000000" d="M95,-122.2843C95,-143.3211 95,-175 95,-175 95,-175 320.8553,-175 320.8553,-175"/>
<polygon fill="#000000" stroke="#000000" points="320.8554,-178.5001 330.8553,-175 320.8553,-171.5001 320.8554,-178.5001"/>
</g>
</g>
</svg>
