<?xml version="1.0" encoding="UTF-8" standalone="no"?>
<!DOCTYPE svg PUBLIC "-//W3C//DTD SVG 1.1//EN"
 "http://www.w3.org/Graphics/SVG/1.1/DTD/svg11.dtd">
<!-- Generated by graphviz version 2.40.1 (20161225.0304)
 -->
<!-- Title: dependencies Pages: 1 -->
<svg width="716pt" height="211pt"
 viewBox="0.00 0.00 716.00 211.00" xmlns="http://www.w3.org/2000/svg" xmlns:xlink="http://www.w3.org/1999/xlink">
<g id="graph0" class="graph" transform="scale(1 1) rotate(0) translate(4 207)">
<title>dependencies</title>
<polygon fill="#ffffff" stroke="transparent" points="-4,4 -4,-207 712,-207 712,4 -4,4"/>
<text text-anchor="start" x="333.0091" y="-42.4" font-family="sans-serif" font-weight="bold" font-size="14.00" fill="#000000">Legend</text>
<polygon fill="#ffffb3" stroke="transparent" points="120,-10 120,-30 140,-30 140,-10 120,-10"/>
<text text-anchor="start" x="143.629" y="-15.4" font-family="sans-serif" font-size="14.00" fill="#000000"> &#160;Declarations</text>
<polygon fill="#8dd3c7" stroke="transparent" points="233,-10 233,-30 253,-30 253,-10 233,-10"/>
<text text-anchor="start" x="256.7251" y="-15.4" font-family="sans-serif" font-size="14.00" fill="#000000"> &#160;Module</text>
<polygon fill="#80b1d3" stroke="transparent" points="319,-10 319,-30 339,-30 339,-10 319,-10"/>
<text text-anchor="start" x="342.7812" y="-15.4" font-family="sans-serif" font-size="14.00" fill="#000000"> &#160;Bootstrap</text>
<polygon fill="#fdb462" stroke="transparent" points="416,-10 416,-30 436,-30 436,-10 416,-10"/>
<text text-anchor="start" x="439.6732" y="-15.4" font-family="sans-serif" font-size="14.00" fill="#000000"> &#160;Providers</text>
<polygon fill="#fb8072" stroke="transparent" points="512,-10 512,-30 532,-30 532,-10 512,-10"/>
<text text-anchor="start" x="535.7258" y="-15.4" font-family="sans-serif" font-size="14.00" fill="#000000"> &#160;Exports</text>
<g id="clust1" class="cluster">
<title>cluster_CartPageModule</title>
<polygon fill="none" stroke="#000000" stroke-dasharray="1,5" points="8,-70 8,-195 700,-195 700,-70 8,-70"/>
</g>
<g id="clust2" class="cluster">
<title>cluster_CartPageModule_declarations</title>
<polygon fill="none" stroke="#000000" points="544,-78 544,-130 692,-130 692,-78 544,-78"/>
</g>
<g id="clust4" class="cluster">
<title>cluster_CartPageModule_imports</title>
<polygon fill="none" stroke="#000000" points="16,-78 16,-130 536,-130 536,-78 16,-78"/>
</g>
<!-- CartPageComponent -->
<g id="node1" class="node">
<title>CartPageComponent</title>
<polygon fill="#ffffb3" stroke="#000000" points="684.1471,-122 551.8529,-122 551.8529,-86 684.1471,-86 684.1471,-122"/>
<text text-anchor="middle" x="618" y="-99.8" font-family="Times,serif" font-size="14.00" fill="#000000">CartPageComponent</text>
</g>
<!-- CartPageModule -->
<g id="node2" class="node">
<title>CartPageModule</title>
<polygon fill="#8dd3c7" stroke="#000000" points="399.3641,-187 396.3641,-191 375.3641,-191 372.3641,-187 288.6359,-187 288.6359,-151 399.3641,-151 399.3641,-187"/>
<text text-anchor="middle" x="344" y="-164.8" font-family="Times,serif" font-size="14.00" fill="#000000">CartPageModule</text>
</g>
<!-- CartPageComponent&#45;&gt;CartPageModule -->
<g id="edge1" class="edge">
<title>CartPageComponent&#45;&gt;CartPageModule</title>
<path fill="none" stroke="#000000" d="M618,-122.1061C618,-141.3391 618,-169 618,-169 618,-169 409.448,-169 409.448,-169"/>
<polygon fill="#000000" stroke="#000000" points="409.448,-165.5001 399.448,-169 409.448,-172.5001 409.448,-165.5001"/>
</g>
<!-- CartDetailsModule -->
<g id="node3" class="node">
<title>CartDetailsModule</title>
<polygon fill="#8dd3c7" stroke="#000000" points="527.8048,-122 524.8048,-126 503.8048,-126 500.8048,-122 404.1952,-122 404.1952,-86 527.8048,-86 527.8048,-122"/>
<text text-anchor="middle" x="466" y="-99.8" font-family="Times,serif" font-size="14.00" fill="#000000">CartDetailsModule</text>
</g>
<!-- CartDetailsModule&#45;&gt;CartPageModule -->
<g id="edge2" class="edge">
<title>CartDetailsModule&#45;&gt;CartPageModule</title>
<path fill="none" stroke="#000000" d="M404.1053,-104C397.4411,-104 393.0214,-104 393.0214,-104 393.0214,-104 393.0214,-140.8939 393.0214,-140.8939"/>
<polygon fill="#000000" stroke="#000000" points="389.5215,-140.8938 393.0214,-150.8939 396.5215,-140.8939 389.5215,-140.8938"/>
</g>
<!-- CmsModule -->
<g id="node4" class="node">
<title>CmsModule</title>
<polygon fill="#8dd3c7" stroke="#000000" points="386.7219,-122 383.7219,-126 362.7219,-126 359.7219,-122 301.2781,-122 301.2781,-86 386.7219,-86 386.7219,-122"/>
<text text-anchor="middle" x="344" y="-99.8" font-family="Times,serif" font-size="14.00" fill="#000000">CmsModule</text>
</g>
<!-- CmsModule&#45;&gt;CartPageModule -->
<g id="edge3" class="edge">
<title>CmsModule&#45;&gt;CartPageModule</title>
<path fill="none" stroke="#000000" d="M344,-122.1061C344,-122.1061 344,-140.991 344,-140.991"/>
<polygon fill="#000000" stroke="#000000" points="340.5001,-140.9909 344,-150.991 347.5001,-140.991 340.5001,-140.9909"/>
</g>
<!-- OutletRefModule -->
<g id="node5" class="node">
<title>OutletRefModule</title>
<polygon fill="#8dd3c7" stroke="#000000" points="283.2549,-122 280.2549,-126 259.2549,-126 256.2549,-122 168.7451,-122 168.7451,-86 283.2549,-86 283.2549,-122"/>
<text text-anchor="middle" x="226" y="-99.8" font-family="Times,serif" font-size="14.00" fill="#000000">OutletRefModule</text>
</g>
<!-- OutletRefModule&#45;&gt;CartPageModule -->
<g id="edge4" class="edge">
<title>OutletRefModule&#45;&gt;CartPageModule</title>
<path fill="none" stroke="#000000" d="M283.2773,-104C290.2538,-104 294.9786,-104 294.9786,-104 294.9786,-104 294.9786,-140.8939 294.9786,-140.8939"/>
<polygon fill="#000000" stroke="#000000" points="291.4787,-140.8938 294.9786,-150.8939 298.4787,-140.8939 291.4787,-140.8938"/>
</g>
<!-- PageLayoutModule -->
<g id="node6" class="node">
<title>PageLayoutModule</title>
<polygon fill="#8dd3c7" stroke="#000000" points="150.4201,-122 147.4201,-126 126.4201,-126 123.4201,-122 23.5799,-122 23.5799,-86 150.4201,-86 150.4201,-122"/>
<text text-anchor="middle" x="87" y="-99.8" font-family="Times,serif" font-size="14.00" fill="#000000">PageLayoutModule</text>
</g>
<!-- PageLayoutModule&#45;&gt;CartPageModule -->
<g id="edge5" class="edge">
<title>PageLayoutModule&#45;&gt;CartPageModule</title>
<path fill="none" stroke="#000000" d="M87,-122.1061C87,-141.3391 87,-169 87,-169 87,-169 278.5512,-169 278.5512,-169"/>
<polygon fill="#000000" stroke="#000000" points="278.5513,-172.5001 288.5512,-169 278.5512,-165.5001 278.5513,-172.5001"/>
</g>
</g>
</svg>
