<?xml version="1.0" encoding="UTF-8" standalone="no"?>
<!DOCTYPE svg PUBLIC "-//W3C//DTD SVG 1.1//EN"
 "http://www.w3.org/Graphics/SVG/1.1/DTD/svg11.dtd">
<!-- Generated by graphviz version 2.47.0 (20210316.0004)
 -->
<!-- Title: dependencies Pages: 1 -->
<svg width="594pt" height="284pt"
 viewBox="0.00 0.00 594.00 284.00" xmlns="http://www.w3.org/2000/svg" xmlns:xlink="http://www.w3.org/1999/xlink">
<g id="graph0" class="graph" transform="scale(1 1) rotate(0) translate(4 280)">
<title>dependencies</title>
<polygon fill="white" stroke="transparent" points="-4,4 -4,-280 590,-280 590,4 -4,4"/>
<text text-anchor="start" x="272.01" y="-42.4" font-family="sans-serif" font-weight="bold" font-size="14.00">Legend</text>
<polygon fill="#ffffb3" stroke="transparent" points="59,-10 59,-30 79,-30 79,-10 59,-10"/>
<text text-anchor="start" x="82.63" y="-15.4" font-family="sans-serif" font-size="14.00"> &#160;Declarations</text>
<polygon fill="#8dd3c7" stroke="transparent" points="172,-10 172,-30 192,-30 192,-10 172,-10"/>
<text text-anchor="start" x="195.73" y="-15.4" font-family="sans-serif" font-size="14.00"> &#160;Module</text>
<polygon fill="#80b1d3" stroke="transparent" points="258,-10 258,-30 278,-30 278,-10 258,-10"/>
<text text-anchor="start" x="281.78" y="-15.4" font-family="sans-serif" font-size="14.00"> &#160;Bootstrap</text>
<polygon fill="#fdb462" stroke="transparent" points="355,-10 355,-30 375,-30 375,-10 355,-10"/>
<text text-anchor="start" x="378.67" y="-15.4" font-family="sans-serif" font-size="14.00"> &#160;Providers</text>
<polygon fill="#fb8072" stroke="transparent" points="451,-10 451,-30 471,-30 471,-10 451,-10"/>
<text text-anchor="start" x="474.73" y="-15.4" font-family="sans-serif" font-size="14.00"> &#160;Exports</text>
<g id="clust1" class="cluster">
<title>cluster_ConfiguratorAttributeInputFieldModule</title>
<polygon fill="none" stroke="black" stroke-dasharray="1,5" points="8,-70 8,-268 578,-268 578,-70 8,-70"/>
</g>
<g id="clust2" class="cluster">
<title>cluster_ConfiguratorAttributeInputFieldModule_declarations</title>
<polygon fill="none" stroke="black" points="292,-78 292,-130 570,-130 570,-78 292,-78"/>
</g>
<g id="clust5" class="cluster">
<title>cluster_ConfiguratorAttributeInputFieldModule_exports</title>
<polygon fill="none" stroke="black" points="92,-208 92,-260 374,-260 374,-208 92,-208"/>
</g>
<g id="clust4" class="cluster">
<title>cluster_ConfiguratorAttributeInputFieldModule_imports</title>
<polygon fill="none" stroke="black" points="16,-78 16,-130 284,-130 284,-78 16,-78"/>
</g>
<!-- ConfiguratorAttributeInputFieldComponent -->
<g id="node1" class="node">
<title>ConfiguratorAttributeInputFieldComponent</title>
<polygon fill="#ffffb3" stroke="black" points="562.02,-122 299.98,-122 299.98,-86 562.02,-86 562.02,-122"/>
<text text-anchor="middle" x="431" y="-99.8" font-family="Times,serif" font-size="14.00">ConfiguratorAttributeInputFieldComponent</text>
</g>
<!-- ConfiguratorAttributeInputFieldModule -->
<g id="node2" class="node">
<title>ConfiguratorAttributeInputFieldModule</title>
<polygon fill="#8dd3c7" stroke="black" points="353.24,-187 350.24,-191 329.24,-191 326.24,-187 112.76,-187 112.76,-151 353.24,-151 353.24,-187"/>
<text text-anchor="middle" x="233" y="-164.8" font-family="Times,serif" font-size="14.00">ConfiguratorAttributeInputFieldModule</text>
</g>
<!-- ConfiguratorAttributeInputFieldComponent&#45;&gt;ConfiguratorAttributeInputFieldModule -->
<g id="edge1" class="edge">
<title>ConfiguratorAttributeInputFieldComponent&#45;&gt;ConfiguratorAttributeInputFieldModule</title>
<path fill="none" stroke="black" d="M326.55,-122.11C326.55,-122.11 326.55,-140.99 326.55,-140.99"/>
<polygon fill="black" stroke="black" points="323.05,-140.99 326.55,-150.99 330.05,-140.99 323.05,-140.99"/>
</g>
<!-- ConfiguratorAttributeInputFieldComponent  -->
<g id="node5" class="node">
<title>ConfiguratorAttributeInputFieldComponent </title>
<polygon fill="#fb8072" stroke="black" points="366.02,-252 99.98,-252 99.98,-216 366.02,-216 366.02,-252"/>
<text text-anchor="middle" x="233" y="-229.8" font-family="Times,serif" font-size="14.00">ConfiguratorAttributeInputFieldComponent </text>
</g>
<!-- ConfiguratorAttributeInputFieldModule&#45;&gt;ConfiguratorAttributeInputFieldComponent  -->
<g id="edge4" class="edge">
<title>ConfiguratorAttributeInputFieldModule&#45;&gt;ConfiguratorAttributeInputFieldComponent </title>
<path fill="none" stroke="black" stroke-dasharray="5,2" d="M233,-187.11C233,-187.11 233,-205.99 233,-205.99"/>
<polygon fill="black" stroke="black" points="229.5,-205.99 233,-215.99 236.5,-205.99 229.5,-205.99"/>
</g>
<!-- I18nModule -->
<g id="node3" class="node">
<title>I18nModule</title>
<polygon fill="#8dd3c7" stroke="black" points="275.71,-122 272.71,-126 251.71,-126 248.71,-122 190.29,-122 190.29,-86 275.71,-86 275.71,-122"/>
<text text-anchor="middle" x="233" y="-99.8" font-family="Times,serif" font-size="14.00">I18nModule</text>
</g>
<!-- I18nModule&#45;&gt;ConfiguratorAttributeInputFieldModule -->
<g id="edge2" class="edge">
<title>I18nModule&#45;&gt;ConfiguratorAttributeInputFieldModule</title>
<path fill="none" stroke="black" d="M233,-122.11C233,-122.11 233,-140.99 233,-140.99"/>
<polygon fill="black" stroke="black" points="229.5,-140.99 233,-150.99 236.5,-140.99 229.5,-140.99"/>
</g>
<!-- KeyboardFocusModule -->
<g id="node4" class="node">
<title>KeyboardFocusModule</title>
<polygon fill="#8dd3c7" stroke="black" points="172.19,-122 169.19,-126 148.19,-126 145.19,-122 23.81,-122 23.81,-86 172.19,-86 172.19,-122"/>
<text text-anchor="middle" x="98" y="-99.8" font-family="Times,serif" font-size="14.00">KeyboardFocusModule</text>
</g>
<!-- KeyboardFocusModule&#45;&gt;ConfiguratorAttributeInputFieldModule -->
<g id="edge3" class="edge">
<title>KeyboardFocusModule&#45;&gt;ConfiguratorAttributeInputFieldModule</title>
<path fill="none" stroke="black" d="M142.36,-122.11C142.36,-122.11 142.36,-140.99 142.36,-140.99"/>
<polygon fill="black" stroke="black" points="138.86,-140.99 142.36,-150.99 145.86,-140.99 138.86,-140.99"/>
</g>
</g>
</svg>
