<?xml version="1.0" encoding="UTF-8" standalone="no"?>
<!DOCTYPE svg PUBLIC "-//W3C//DTD SVG 1.1//EN"
 "http://www.w3.org/Graphics/SVG/1.1/DTD/svg11.dtd">
<!-- Generated by graphviz version 2.47.3 (20210619.1520)
 -->
<!-- Title: dependencies Pages: 1 -->
<svg width="933pt" height="247pt"
 viewBox="0.00 0.00 933.00 246.80" xmlns="http://www.w3.org/2000/svg" xmlns:xlink="http://www.w3.org/1999/xlink">
<g id="graph0" class="graph" transform="scale(1 1) rotate(0) translate(4 242.8)">
<title>dependencies</title>
<polygon fill="white" stroke="transparent" points="-4,4 -4,-242.8 929,-242.8 929,4 -4,4"/>
<text text-anchor="middle" x="462.5" y="-8.2" font-family="sans-serif" font-size="14.00">dependencies</text>
<g id="clust1" class="cluster">
<title>cluster_VisualViewerModule</title>
<polygon fill="none" stroke="black" stroke-dasharray="1,5" points="8,-32.8 8,-230.8 917,-230.8 917,-32.8 8,-32.8"/>
</g>
<g id="clust5" class="cluster">
<title>cluster_VisualViewerModule_exports</title>
<polygon fill="none" stroke="black" points="473,-170.8 473,-222.8 651,-222.8 651,-170.8 473,-170.8"/>
</g>
<g id="clust2" class="cluster">
<title>cluster_VisualViewerModule_declarations</title>
<polygon fill="none" stroke="black" points="733,-40.8 733,-92.8 909,-92.8 909,-40.8 733,-40.8"/>
</g>
<g id="clust4" class="cluster">
<title>cluster_VisualViewerModule_imports</title>
<polygon fill="none" stroke="black" points="16,-40.8 16,-92.8 725,-92.8 725,-40.8 16,-40.8"/>
</g>
<!-- VisualViewerComponent -->
<g id="node1" class="node">
<title>VisualViewerComponent</title>
<polygon fill="#ffffb3" stroke="black" points="900.57,-84.8 741.43,-84.8 741.43,-48.8 900.57,-48.8 900.57,-84.8"/>
<text text-anchor="middle" x="821" y="-62.6" font-family="Times,serif" font-size="14.00">VisualViewerComponent</text>
</g>
<!-- VisualViewerModule -->
<g id="node2" class="node">
<title>VisualViewerModule</title>
<polygon fill="#8dd3c7" stroke="black" points="630.79,-149.8 627.79,-153.8 606.79,-153.8 603.79,-149.8 493.21,-149.8 493.21,-113.8 630.79,-113.8 630.79,-149.8"/>
<text text-anchor="middle" x="562" y="-127.6" font-family="Times,serif" font-size="14.00">VisualViewerModule</text>
</g>
<!-- VisualViewerComponent&#45;&gt;VisualViewerModule -->
<g id="edge1" class="edge">
<title>VisualViewerComponent&#45;&gt;VisualViewerModule</title>
<path fill="none" stroke="black" d="M821,-85.08C821,-106.12 821,-137.8 821,-137.8 821,-137.8 640.73,-137.8 640.73,-137.8"/>
<polygon fill="black" stroke="black" points="640.73,-134.3 630.73,-137.8 640.73,-141.3 640.73,-134.3"/>
</g>
<!-- VisualViewerComponent  -->
<g id="node7" class="node">
<title>VisualViewerComponent </title>
<polygon fill="#fb8072" stroke="black" points="643.07,-214.8 480.93,-214.8 480.93,-178.8 643.07,-178.8 643.07,-214.8"/>
<text text-anchor="middle" x="562" y="-192.6" font-family="Times,serif" font-size="14.00">VisualViewerComponent </text>
</g>
<!-- VisualViewerModule&#45;&gt;VisualViewerComponent  -->
<g id="edge6" class="edge">
<title>VisualViewerModule&#45;&gt;VisualViewerComponent </title>
<path fill="none" stroke="black" stroke-dasharray="5,2" d="M562,-149.91C562,-149.91 562,-168.79 562,-168.79"/>
<polygon fill="black" stroke="black" points="558.5,-168.79 562,-178.79 565.5,-168.79 558.5,-168.79"/>
</g>
<!-- I18nModule -->
<g id="node3" class="node">
<title>I18nModule</title>
<polygon fill="#8dd3c7" stroke="black" points="716.71,-84.8 713.71,-88.8 692.71,-88.8 689.71,-84.8 631.29,-84.8 631.29,-48.8 716.71,-48.8 716.71,-84.8"/>
<text text-anchor="middle" x="674" y="-62.6" font-family="Times,serif" font-size="14.00">I18nModule</text>
</g>
<!-- I18nModule&#45;&gt;VisualViewerModule -->
<g id="edge2" class="edge">
<title>I18nModule&#45;&gt;VisualViewerModule</title>
<path fill="none" stroke="black" d="M637.34,-84.82C637.34,-102.17 637.34,-125.8 637.34,-125.8 637.34,-125.8 636.67,-125.8 636.67,-125.8"/>
<polygon fill="black" stroke="black" points="640.65,-122.3 630.65,-125.8 640.65,-129.3 640.65,-122.3"/>
</g>
<!-- SpinnerModule -->
<g id="node4" class="node">
<title>SpinnerModule</title>
<polygon fill="#8dd3c7" stroke="black" points="613.6,-84.8 610.6,-88.8 589.6,-88.8 586.6,-84.8 510.4,-84.8 510.4,-48.8 613.6,-48.8 613.6,-84.8"/>
<text text-anchor="middle" x="562" y="-62.6" font-family="Times,serif" font-size="14.00">SpinnerModule</text>
</g>
<!-- SpinnerModule&#45;&gt;VisualViewerModule -->
<g id="edge3" class="edge">
<title>SpinnerModule&#45;&gt;VisualViewerModule</title>
<path fill="none" stroke="black" d="M562,-84.91C562,-84.91 562,-103.79 562,-103.79"/>
<polygon fill="black" stroke="black" points="558.5,-103.79 562,-113.79 565.5,-103.79 558.5,-103.79"/>
</g>
<!-- VisualViewerAnimationSliderModule -->
<g id="node5" class="node">
<title>VisualViewerAnimationSliderModule</title>
<polygon fill="#8dd3c7" stroke="black" points="492.11,-84.8 489.11,-88.8 468.11,-88.8 465.11,-84.8 261.89,-84.8 261.89,-48.8 492.11,-48.8 492.11,-84.8"/>
<text text-anchor="middle" x="377" y="-62.6" font-family="Times,serif" font-size="14.00">VisualViewerAnimationSliderModule</text>
</g>
<!-- VisualViewerAnimationSliderModule&#45;&gt;VisualViewerModule -->
<g id="edge4" class="edge">
<title>VisualViewerAnimationSliderModule&#45;&gt;VisualViewerModule</title>
<path fill="none" stroke="black" d="M486.51,-84.82C486.51,-102.17 486.51,-125.8 486.51,-125.8 486.51,-125.8 487.18,-125.8 487.18,-125.8"/>
<polygon fill="black" stroke="black" points="483.21,-129.3 493.21,-125.8 483.21,-122.3 483.21,-129.3"/>
</g>
<!-- VisualViewerToolbarButtonModule -->
<g id="node6" class="node">
<title>VisualViewerToolbarButtonModule</title>
<polygon fill="#8dd3c7" stroke="black" points="243.73,-84.8 240.73,-88.8 219.73,-88.8 216.73,-84.8 24.27,-84.8 24.27,-48.8 243.73,-48.8 243.73,-84.8"/>
<text text-anchor="middle" x="134" y="-62.6" font-family="Times,serif" font-size="14.00">VisualViewerToolbarButtonModule</text>
</g>
<!-- VisualViewerToolbarButtonModule&#45;&gt;VisualViewerModule -->
<g id="edge5" class="edge">
<title>VisualViewerToolbarButtonModule&#45;&gt;VisualViewerModule</title>
<path fill="none" stroke="black" d="M134,-85.08C134,-106.12 134,-137.8 134,-137.8 134,-137.8 483.23,-137.8 483.23,-137.8"/>
<polygon fill="black" stroke="black" points="483.23,-141.3 493.23,-137.8 483.23,-134.3 483.23,-141.3"/>
</g>
</g>
</svg>
