<?xml version="1.0" encoding="UTF-8" standalone="no"?>
<!DOCTYPE svg PUBLIC "-//W3C//DTD SVG 1.1//EN"
 "http://www.w3.org/Graphics/SVG/1.1/DTD/svg11.dtd">
<!-- Generated by graphviz version 2.40.1 (20161225.0304)
 -->
<!-- Title: dependencies Pages: 1 -->
<svg width="1227pt" height="284pt"
 viewBox="0.00 0.00 1227.00 284.00" xmlns="http://www.w3.org/2000/svg" xmlns:xlink="http://www.w3.org/1999/xlink">
<g id="graph0" class="graph" transform="scale(1 1) rotate(0) translate(4 280)">
<title>dependencies</title>
<polygon fill="#ffffff" stroke="transparent" points="-4,4 -4,-280 1223,-280 1223,4 -4,4"/>
<text text-anchor="start" x="588.5091" y="-42.4" font-family="sans-serif" font-weight="bold" font-size="14.00" fill="#000000">Legend</text>
<polygon fill="#ffffb3" stroke="transparent" points="375.5,-10 375.5,-30 395.5,-30 395.5,-10 375.5,-10"/>
<text text-anchor="start" x="399.129" y="-15.4" font-family="sans-serif" font-size="14.00" fill="#000000"> &#160;Declarations</text>
<polygon fill="#8dd3c7" stroke="transparent" points="488.5,-10 488.5,-30 508.5,-30 508.5,-10 488.5,-10"/>
<text text-anchor="start" x="512.2251" y="-15.4" font-family="sans-serif" font-size="14.00" fill="#000000"> &#160;Module</text>
<polygon fill="#80b1d3" stroke="transparent" points="574.5,-10 574.5,-30 594.5,-30 594.5,-10 574.5,-10"/>
<text text-anchor="start" x="598.2812" y="-15.4" font-family="sans-serif" font-size="14.00" fill="#000000"> &#160;Bootstrap</text>
<polygon fill="#fdb462" stroke="transparent" points="671.5,-10 671.5,-30 691.5,-30 691.5,-10 671.5,-10"/>
<text text-anchor="start" x="695.1732" y="-15.4" font-family="sans-serif" font-size="14.00" fill="#000000"> &#160;Providers</text>
<polygon fill="#fb8072" stroke="transparent" points="767.5,-10 767.5,-30 787.5,-30 787.5,-10 767.5,-10"/>
<text text-anchor="start" x="791.2258" y="-15.4" font-family="sans-serif" font-size="14.00" fill="#000000"> &#160;Exports</text>
<g id="clust1" class="cluster">
<title>cluster_WishListModule</title>
<polygon fill="none" stroke="#000000" stroke-dasharray="1,5" points="8,-70 8,-268 1211,-268 1211,-70 8,-70"/>
</g>
<g id="clust2" class="cluster">
<title>cluster_WishListModule_declarations</title>
<polygon fill="none" stroke="#000000" points="879,-78 879,-130 1203,-130 1203,-78 879,-78"/>
</g>
<g id="clust5" class="cluster">
<title>cluster_WishListModule_imports</title>
<polygon fill="none" stroke="#000000" points="16,-78 16,-130 871,-130 871,-78 16,-78"/>
</g>
<g id="clust6" class="cluster">
<title>cluster_WishListModule_exports</title>
<polygon fill="none" stroke="#000000" points="390,-208 390,-260 722,-260 722,-208 390,-208"/>
</g>
<!-- WishListComponent -->
<g id="node1" class="node">
<title>WishListComponent</title>
<polygon fill="#ffffb3" stroke="#000000" points="1195.161,-122 1062.839,-122 1062.839,-86 1195.161,-86 1195.161,-122"/>
<text text-anchor="middle" x="1129" y="-99.8" font-family="Times,serif" font-size="14.00" fill="#000000">WishListComponent</text>
</g>
<!-- WishListModule -->
<g id="node3" class="node">
<title>WishListModule</title>
<polygon fill="#8dd3c7" stroke="#000000" points="617.3781,-187 614.3781,-191 593.3781,-191 590.3781,-187 506.6219,-187 506.6219,-151 617.3781,-151 617.3781,-187"/>
<text text-anchor="middle" x="562" y="-164.8" font-family="Times,serif" font-size="14.00" fill="#000000">WishListModule</text>
</g>
<!-- WishListComponent&#45;&gt;WishListModule -->
<g id="edge1" class="edge">
<title>WishListComponent&#45;&gt;WishListModule</title>
<path fill="none" stroke="#000000" d="M1129,-122.2921C1129,-144.2057 1129,-178 1129,-178 1129,-178 627.3987,-178 627.3987,-178"/>
<polygon fill="#000000" stroke="#000000" points="627.3987,-174.5001 617.3987,-178 627.3987,-181.5001 627.3987,-174.5001"/>
</g>
<!-- WishListItemComponent -->
<g id="node2" class="node">
<title>WishListItemComponent</title>
<polygon fill="#ffffb3" stroke="#000000" points="1045.3173,-122 886.6827,-122 886.6827,-86 1045.3173,-86 1045.3173,-122"/>
<text text-anchor="middle" x="966" y="-99.8" font-family="Times,serif" font-size="14.00" fill="#000000">WishListItemComponent</text>
</g>
<!-- WishListItemComponent&#45;&gt;WishListModule -->
<g id="edge2" class="edge">
<title>WishListItemComponent&#45;&gt;WishListModule</title>
<path fill="none" stroke="#000000" d="M966,-122.1061C966,-141.3391 966,-169 966,-169 966,-169 627.7503,-169 627.7503,-169"/>
<polygon fill="#000000" stroke="#000000" points="627.7503,-165.5001 617.7503,-169 627.7503,-172.5001 627.7503,-165.5001"/>
</g>
<!-- WishListComponent  -->
<g id="node11" class="node">
<title>WishListComponent </title>
<polygon fill="#fb8072" stroke="#000000" points="714.1607,-252 577.8393,-252 577.8393,-216 714.1607,-216 714.1607,-252"/>
<text text-anchor="middle" x="646" y="-229.8" font-family="Times,serif" font-size="14.00" fill="#000000">WishListComponent </text>
</g>
<!-- WishListModule&#45;&gt;WishListComponent  -->
<g id="edge10" class="edge">
<title>WishListModule&#45;&gt;WishListComponent </title>
<path fill="none" stroke="#000000" stroke-dasharray="5,2" d="M597.6794,-187.1061C597.6794,-187.1061 597.6794,-205.991 597.6794,-205.991"/>
<polygon fill="#000000" stroke="#000000" points="594.1794,-205.9909 597.6794,-215.991 601.1794,-205.991 594.1794,-205.9909"/>
</g>
<!-- WishListItemComponent  -->
<g id="node12" class="node">
<title>WishListItemComponent </title>
<polygon fill="#fb8072" stroke="#000000" points="559.8171,-252 398.1829,-252 398.1829,-216 559.8171,-216 559.8171,-252"/>
<text text-anchor="middle" x="479" y="-229.8" font-family="Times,serif" font-size="14.00" fill="#000000">WishListItemComponent </text>
</g>
<!-- WishListModule&#45;&gt;WishListItemComponent  -->
<g id="edge11" class="edge">
<title>WishListModule&#45;&gt;WishListItemComponent </title>
<path fill="none" stroke="#000000" stroke-dasharray="5,2" d="M533.2348,-187.1061C533.2348,-187.1061 533.2348,-205.991 533.2348,-205.991"/>
<polygon fill="#000000" stroke="#000000" points="529.7348,-205.9909 533.2348,-215.991 536.7348,-205.991 529.7348,-205.9909"/>
</g>
<!-- AddToCartModule -->
<g id="node4" class="node">
<title>AddToCartModule</title>
<polygon fill="#8dd3c7" stroke="#000000" points="862.8118,-122 859.8118,-126 838.8118,-126 835.8118,-122 739.1882,-122 739.1882,-86 862.8118,-86 862.8118,-122"/>
<text text-anchor="middle" x="801" y="-99.8" font-family="Times,serif" font-size="14.00" fill="#000000">AddToCartModule</text>
</g>
<!-- AddToCartModule&#45;&gt;WishListModule -->
<g id="edge3" class="edge">
<title>AddToCartModule&#45;&gt;WishListModule</title>
<path fill="none" stroke="#000000" d="M801,-122.027C801,-138.3976 801,-160 801,-160 801,-160 627.4321,-160 627.4321,-160"/>
<polygon fill="#000000" stroke="#000000" points="627.4322,-156.5001 617.4321,-160 627.4321,-163.5001 627.4322,-156.5001"/>
</g>
<!-- ConfigModule -->
<g id="node5" class="node">
<title>ConfigModule</title>
<polygon fill="#8dd3c7" stroke="#000000" points="721.4386,-122 718.4386,-126 697.4386,-126 694.4386,-122 622.5614,-122 622.5614,-86 721.4386,-86 721.4386,-122"/>
<text text-anchor="middle" x="672" y="-99.8" font-family="Times,serif" font-size="14.00" fill="#000000">ConfigModule</text>
</g>
<!-- ConfigModule&#45;&gt;WishListModule -->
<g id="edge4" class="edge">
<title>ConfigModule&#45;&gt;WishListModule</title>
<path fill="none" stroke="#000000" d="M622.7793,-104C615.8455,-104 611.0221,-104 611.0221,-104 611.0221,-104 611.0221,-140.8939 611.0221,-140.8939"/>
<polygon fill="#000000" stroke="#000000" points="607.5222,-140.8938 611.0221,-150.8939 614.5222,-140.8939 607.5222,-140.8938"/>
</g>
<!-- I18nModule -->
<g id="node6" class="node">
<title>I18nModule</title>
<polygon fill="#8dd3c7" stroke="#000000" points="604.7107,-122 601.7107,-126 580.7107,-126 577.7107,-122 519.2893,-122 519.2893,-86 604.7107,-86 604.7107,-122"/>
<text text-anchor="middle" x="562" y="-99.8" font-family="Times,serif" font-size="14.00" fill="#000000">I18nModule</text>
</g>
<!-- I18nModule&#45;&gt;WishListModule -->
<g id="edge5" class="edge">
<title>I18nModule&#45;&gt;WishListModule</title>
<path fill="none" stroke="#000000" d="M562,-122.1061C562,-122.1061 562,-140.991 562,-140.991"/>
<polygon fill="#000000" stroke="#000000" points="558.5001,-140.9909 562,-150.991 565.5001,-140.991 558.5001,-140.9909"/>
</g>
<!-- ItemCounterModule -->
<g id="node7" class="node">
<title>ItemCounterModule</title>
<polygon fill="#8dd3c7" stroke="#000000" points="501.309,-122 498.309,-126 477.309,-126 474.309,-122 370.691,-122 370.691,-86 501.309,-86 501.309,-122"/>
<text text-anchor="middle" x="436" y="-99.8" font-family="Times,serif" font-size="14.00" fill="#000000">ItemCounterModule</text>
</g>
<!-- ItemCounterModule&#45;&gt;WishListModule -->
<g id="edge6" class="edge">
<title>ItemCounterModule&#45;&gt;WishListModule</title>
<path fill="none" stroke="#000000" d="M501.2866,-104C508.316,-104 512.9779,-104 512.9779,-104 512.9779,-104 512.9779,-140.8939 512.9779,-140.8939"/>
<polygon fill="#000000" stroke="#000000" points="509.478,-140.8938 512.9779,-150.8939 516.478,-140.8939 509.478,-140.8938"/>
</g>
<!-- MediaModule -->
<g id="node8" class="node">
<title>MediaModule</title>
<polygon fill="#8dd3c7" stroke="#000000" points="352.8147,-122 349.8147,-126 328.8147,-126 325.8147,-122 257.1853,-122 257.1853,-86 352.8147,-86 352.8147,-122"/>
<text text-anchor="middle" x="305" y="-99.8" font-family="Times,serif" font-size="14.00" fill="#000000">MediaModule</text>
</g>
<!-- MediaModule&#45;&gt;WishListModule -->
<g id="edge7" class="edge">
<title>MediaModule&#45;&gt;WishListModule</title>
<path fill="none" stroke="#000000" d="M305,-122.027C305,-138.3976 305,-160 305,-160 305,-160 496.5512,-160 496.5512,-160"/>
<polygon fill="#000000" stroke="#000000" points="496.5513,-163.5001 506.5512,-160 496.5512,-156.5001 496.5513,-163.5001"/>
</g>
<!-- StarRatingModule -->
<g id="node9" class="node">
<title>StarRatingModule</title>
<polygon fill="#8dd3c7" stroke="#000000" points="239.9314,-122 236.9314,-126 215.9314,-126 212.9314,-122 120.0686,-122 120.0686,-86 239.9314,-86 239.9314,-122"/>
<text text-anchor="middle" x="180" y="-99.8" font-family="Times,serif" font-size="14.00" fill="#000000">StarRatingModule</text>
</g>
<!-- StarRatingModule&#45;&gt;WishListModule -->
<g id="edge8" class="edge">
<title>StarRatingModule&#45;&gt;WishListModule</title>
<path fill="none" stroke="#000000" d="M180,-122.1061C180,-141.3391 180,-169 180,-169 180,-169 496.4539,-169 496.4539,-169"/>
<polygon fill="#000000" stroke="#000000" points="496.454,-172.5001 506.4539,-169 496.4539,-165.5001 496.454,-172.5001"/>
</g>
<!-- UrlModule -->
<g id="node10" class="node">
<title>UrlModule</title>
<polygon fill="#8dd3c7" stroke="#000000" points="102.2079,-122 99.2079,-126 78.2079,-126 75.2079,-122 23.7921,-122 23.7921,-86 102.2079,-86 102.2079,-122"/>
<text text-anchor="middle" x="63" y="-99.8" font-family="Times,serif" font-size="14.00" fill="#000000">UrlModule</text>
</g>
<!-- UrlModule&#45;&gt;WishListModule -->
<g id="edge9" class="edge">
<title>UrlModule&#45;&gt;WishListModule</title>
<path fill="none" stroke="#000000" d="M63,-122.2921C63,-144.2057 63,-178 63,-178 63,-178 496.2109,-178 496.2109,-178"/>
<polygon fill="#000000" stroke="#000000" points="496.2109,-181.5001 506.2109,-178 496.2108,-174.5001 496.2109,-181.5001"/>
</g>
</g>
</svg>
