<?xml version="1.0" encoding="UTF-8" standalone="no"?>
<!DOCTYPE svg PUBLIC "-//W3C//DTD SVG 1.1//EN"
 "http://www.w3.org/Graphics/SVG/1.1/DTD/svg11.dtd">
<!-- Generated by graphviz version 2.44.1 (20200629.0846)
 -->
<!-- Title: dependencies Pages: 1 -->
<svg width="1110pt" height="284pt"
 viewBox="0.00 0.00 1110.00 284.00" xmlns="http://www.w3.org/2000/svg" xmlns:xlink="http://www.w3.org/1999/xlink">
<g id="graph0" class="graph" transform="scale(1 1) rotate(0) translate(4 280)">
<title>dependencies</title>
<polygon fill="white" stroke="transparent" points="-4,4 -4,-280 1106,-280 1106,4 -4,4"/>
<text text-anchor="start" x="530.01" y="-42.4" font-family="sans-serif" font-weight="bold" font-size="14.00">Legend</text>
<polygon fill="#ffffb3" stroke="transparent" points="317,-10 317,-30 337,-30 337,-10 317,-10"/>
<text text-anchor="start" x="340.63" y="-15.4" font-family="sans-serif" font-size="14.00"> &#160;Declarations</text>
<polygon fill="#8dd3c7" stroke="transparent" points="430,-10 430,-30 450,-30 450,-10 430,-10"/>
<text text-anchor="start" x="453.73" y="-15.4" font-family="sans-serif" font-size="14.00"> &#160;Module</text>
<polygon fill="#80b1d3" stroke="transparent" points="516,-10 516,-30 536,-30 536,-10 516,-10"/>
<text text-anchor="start" x="539.78" y="-15.4" font-family="sans-serif" font-size="14.00"> &#160;Bootstrap</text>
<polygon fill="#fdb462" stroke="transparent" points="613,-10 613,-30 633,-30 633,-10 613,-10"/>
<text text-anchor="start" x="636.67" y="-15.4" font-family="sans-serif" font-size="14.00"> &#160;Providers</text>
<polygon fill="#fb8072" stroke="transparent" points="709,-10 709,-30 729,-30 729,-10 709,-10"/>
<text text-anchor="start" x="732.73" y="-15.4" font-family="sans-serif" font-size="14.00"> &#160;Exports</text>
<g id="clust1" class="cluster">
<title>cluster_WishListModule</title>
<polygon fill="none" stroke="black" stroke-dasharray="1,5" points="8,-70 8,-268 1094,-268 1094,-70 8,-70"/>
</g>
<g id="clust2" class="cluster">
<title>cluster_WishListModule_declarations</title>
<polygon fill="none" stroke="black" points="762,-78 762,-130 1086,-130 1086,-78 762,-78"/>
</g>
<g id="clust5" class="cluster">
<title>cluster_WishListModule_imports</title>
<polygon fill="none" stroke="black" points="16,-78 16,-130 754,-130 754,-78 16,-78"/>
</g>
<g id="clust6" class="cluster">
<title>cluster_WishListModule_exports</title>
<polygon fill="none" stroke="black" points="327,-208 327,-260 659,-260 659,-208 327,-208"/>
</g>
<!-- WishListComponent -->
<g id="node1" class="node">
<title>WishListComponent</title>
<polygon fill="#ffffb3" stroke="black" points="1078.16,-122 945.84,-122 945.84,-86 1078.16,-86 1078.16,-122"/>
<text text-anchor="middle" x="1012" y="-99.8" font-family="Times,serif" font-size="14.00">WishListComponent</text>
</g>
<!-- WishListModule -->
<g id="node3" class="node">
<title>WishListModule</title>
<polygon fill="#8dd3c7" stroke="black" points="554.38,-187 551.38,-191 530.38,-191 527.38,-187 443.62,-187 443.62,-151 554.38,-151 554.38,-187"/>
<text text-anchor="middle" x="499" y="-164.8" font-family="Times,serif" font-size="14.00">WishListModule</text>
</g>
<!-- WishListComponent&#45;&gt;WishListModule -->
<g id="edge1" class="edge">
<title>WishListComponent&#45;&gt;WishListModule</title>
<path fill="none" stroke="black" d="M1012,-122.29C1012,-144.21 1012,-178 1012,-178 1012,-178 564.39,-178 564.39,-178"/>
<polygon fill="black" stroke="black" points="564.39,-174.5 554.39,-178 564.39,-181.5 564.39,-174.5"/>
</g>
<!-- WishListItemComponent -->
<g id="node2" class="node">
<title>WishListItemComponent</title>
<polygon fill="#ffffb3" stroke="black" points="928.32,-122 769.68,-122 769.68,-86 928.32,-86 928.32,-122"/>
<text text-anchor="middle" x="849" y="-99.8" font-family="Times,serif" font-size="14.00">WishListItemComponent</text>
</g>
<!-- WishListItemComponent&#45;&gt;WishListModule -->
<g id="edge2" class="edge">
<title>WishListItemComponent&#45;&gt;WishListModule</title>
<path fill="none" stroke="black" d="M849,-122.11C849,-141.34 849,-169 849,-169 849,-169 564.46,-169 564.46,-169"/>
<polygon fill="black" stroke="black" points="564.46,-165.5 554.46,-169 564.46,-172.5 564.46,-165.5"/>
</g>
<!-- WishListComponent  -->
<g id="node10" class="node">
<title>WishListComponent </title>
<polygon fill="#fb8072" stroke="black" points="651.16,-252 514.84,-252 514.84,-216 651.16,-216 651.16,-252"/>
<text text-anchor="middle" x="583" y="-229.8" font-family="Times,serif" font-size="14.00">WishListComponent </text>
</g>
<!-- WishListModule&#45;&gt;WishListComponent  -->
<g id="edge9" class="edge">
<title>WishListModule&#45;&gt;WishListComponent </title>
<path fill="none" stroke="black" stroke-dasharray="5,2" d="M534.68,-187.11C534.68,-187.11 534.68,-205.99 534.68,-205.99"/>
<polygon fill="black" stroke="black" points="531.18,-205.99 534.68,-215.99 538.18,-205.99 531.18,-205.99"/>
</g>
<!-- WishListItemComponent  -->
<g id="node11" class="node">
<title>WishListItemComponent </title>
<polygon fill="#fb8072" stroke="black" points="496.82,-252 335.18,-252 335.18,-216 496.82,-216 496.82,-252"/>
<text text-anchor="middle" x="416" y="-229.8" font-family="Times,serif" font-size="14.00">WishListItemComponent </text>
</g>
<!-- WishListModule&#45;&gt;WishListItemComponent  -->
<g id="edge10" class="edge">
<title>WishListModule&#45;&gt;WishListItemComponent </title>
<path fill="none" stroke="black" stroke-dasharray="5,2" d="M470.23,-187.11C470.23,-187.11 470.23,-205.99 470.23,-205.99"/>
<polygon fill="black" stroke="black" points="466.73,-205.99 470.23,-215.99 473.73,-205.99 466.73,-205.99"/>
</g>
<!-- AddToCartModule -->
<g id="node4" class="node">
<title>AddToCartModule</title>
<polygon fill="#8dd3c7" stroke="black" points="745.81,-122 742.81,-126 721.81,-126 718.81,-122 622.19,-122 622.19,-86 745.81,-86 745.81,-122"/>
<text text-anchor="middle" x="684" y="-99.8" font-family="Times,serif" font-size="14.00">AddToCartModule</text>
</g>
<!-- AddToCartModule&#45;&gt;WishListModule -->
<g id="edge3" class="edge">
<title>AddToCartModule&#45;&gt;WishListModule</title>
<path fill="none" stroke="black" d="M636.71,-122.03C636.71,-138.4 636.71,-160 636.71,-160 636.71,-160 564.62,-160 564.62,-160"/>
<polygon fill="black" stroke="black" points="564.62,-156.5 554.62,-160 564.62,-163.5 564.62,-156.5"/>
</g>
<!-- I18nModule -->
<g id="node5" class="node">
<title>I18nModule</title>
<polygon fill="#8dd3c7" stroke="black" points="604.71,-122 601.71,-126 580.71,-126 577.71,-122 519.29,-122 519.29,-86 604.71,-86 604.71,-122"/>
<text text-anchor="middle" x="562" y="-99.8" font-family="Times,serif" font-size="14.00">I18nModule</text>
</g>
<!-- I18nModule&#45;&gt;WishListModule -->
<g id="edge4" class="edge">
<title>I18nModule&#45;&gt;WishListModule</title>
<path fill="none" stroke="black" d="M536.92,-122.11C536.92,-122.11 536.92,-140.99 536.92,-140.99"/>
<polygon fill="black" stroke="black" points="533.42,-140.99 536.92,-150.99 540.42,-140.99 533.42,-140.99"/>
</g>
<!-- ItemCounterModule -->
<g id="node6" class="node">
<title>ItemCounterModule</title>
<polygon fill="#8dd3c7" stroke="black" points="501.31,-122 498.31,-126 477.31,-126 474.31,-122 370.69,-122 370.69,-86 501.31,-86 501.31,-122"/>
<text text-anchor="middle" x="436" y="-99.8" font-family="Times,serif" font-size="14.00">ItemCounterModule</text>
</g>
<!-- ItemCounterModule&#45;&gt;WishListModule -->
<g id="edge5" class="edge">
<title>ItemCounterModule&#45;&gt;WishListModule</title>
<path fill="none" stroke="black" d="M472.36,-122.11C472.36,-122.11 472.36,-140.99 472.36,-140.99"/>
<polygon fill="black" stroke="black" points="468.86,-140.99 472.36,-150.99 475.86,-140.99 468.86,-140.99"/>
</g>
<!-- MediaModule -->
<g id="node7" class="node">
<title>MediaModule</title>
<polygon fill="#8dd3c7" stroke="black" points="352.81,-122 349.81,-126 328.81,-126 325.81,-122 257.19,-122 257.19,-86 352.81,-86 352.81,-122"/>
<text text-anchor="middle" x="305" y="-99.8" font-family="Times,serif" font-size="14.00">MediaModule</text>
</g>
<!-- MediaModule&#45;&gt;WishListModule -->
<g id="edge6" class="edge">
<title>MediaModule&#45;&gt;WishListModule</title>
<path fill="none" stroke="black" d="M343.87,-122.03C343.87,-138.4 343.87,-160 343.87,-160 343.87,-160 433.43,-160 433.43,-160"/>
<polygon fill="black" stroke="black" points="433.43,-163.5 443.43,-160 433.43,-156.5 433.43,-163.5"/>
</g>
<!-- StarRatingModule -->
<g id="node8" class="node">
<title>StarRatingModule</title>
<polygon fill="#8dd3c7" stroke="black" points="239.93,-122 236.93,-126 215.93,-126 212.93,-122 120.07,-122 120.07,-86 239.93,-86 239.93,-122"/>
<text text-anchor="middle" x="180" y="-99.8" font-family="Times,serif" font-size="14.00">StarRatingModule</text>
</g>
<!-- StarRatingModule&#45;&gt;WishListModule -->
<g id="edge7" class="edge">
<title>StarRatingModule&#45;&gt;WishListModule</title>
<path fill="none" stroke="black" d="M180,-122.11C180,-141.34 180,-169 180,-169 180,-169 433.43,-169 433.43,-169"/>
<polygon fill="black" stroke="black" points="433.43,-172.5 443.43,-169 433.43,-165.5 433.43,-172.5"/>
</g>
<!-- UrlModule -->
<g id="node9" class="node">
<title>UrlModule</title>
<polygon fill="#8dd3c7" stroke="black" points="102.21,-122 99.21,-126 78.21,-126 75.21,-122 23.79,-122 23.79,-86 102.21,-86 102.21,-122"/>
<text text-anchor="middle" x="63" y="-99.8" font-family="Times,serif" font-size="14.00">UrlModule</text>
</g>
<!-- UrlModule&#45;&gt;WishListModule -->
<g id="edge8" class="edge">
<title>UrlModule&#45;&gt;WishListModule</title>
<path fill="none" stroke="black" d="M63,-122.29C63,-144.21 63,-178 63,-178 63,-178 433.34,-178 433.34,-178"/>
<polygon fill="black" stroke="black" points="433.34,-181.5 443.34,-178 433.34,-174.5 433.34,-181.5"/>
</g>
</g>
</svg>
