<?xml version="1.0" encoding="UTF-8" standalone="no"?>
<!DOCTYPE svg PUBLIC "-//W3C//DTD SVG 1.1//EN"
 "http://www.w3.org/Graphics/SVG/1.1/DTD/svg11.dtd">
<!-- Generated by graphviz version 2.47.3 (20210619.1520)
 -->
<!-- Title: dependencies Pages: 1 -->
<svg width="1110pt" height="247pt"
 viewBox="0.00 0.00 1110.00 246.80" xmlns="http://www.w3.org/2000/svg" xmlns:xlink="http://www.w3.org/1999/xlink">
<g id="graph0" class="graph" transform="scale(1 1) rotate(0) translate(4 242.8)">
<title>dependencies</title>
<polygon fill="white" stroke="transparent" points="-4,4 -4,-242.8 1106,-242.8 1106,4 -4,4"/>
<text text-anchor="middle" x="551" y="-8.2" font-family="sans-serif" font-size="14.00">dependencies</text>
<g id="clust1" class="cluster">
<title>cluster_WishListModule</title>
<polygon fill="none" stroke="black" stroke-dasharray="1,5" points="8,-32.8 8,-230.8 1094,-230.8 1094,-32.8 8,-32.8"/>
</g>
<g id="clust6" class="cluster">
<title>cluster_WishListModule_exports</title>
<polygon fill="none" stroke="black" points="402,-170.8 402,-222.8 734,-222.8 734,-170.8 402,-170.8"/>
</g>
<g id="clust5" class="cluster">
<title>cluster_WishListModule_imports</title>
<polygon fill="none" stroke="black" points="348,-40.8 348,-92.8 1086,-92.8 1086,-40.8 348,-40.8"/>
</g>
<g id="clust2" class="cluster">
<title>cluster_WishListModule_declarations</title>
<polygon fill="none" stroke="black" points="16,-40.8 16,-92.8 340,-92.8 340,-40.8 16,-40.8"/>
</g>
<!-- WishListComponent -->
<g id="node1" class="node">
<title>WishListComponent</title>
<polygon fill="#ffffb3" stroke="black" points="332.16,-84.8 199.84,-84.8 199.84,-48.8 332.16,-48.8 332.16,-84.8"/>
<text text-anchor="middle" x="266" y="-62.6" font-family="Times,serif" font-size="14.00">WishListComponent</text>
</g>
<!-- WishListModule -->
<g id="node3" class="node">
<title>WishListModule</title>
<polygon fill="#8dd3c7" stroke="black" points="629.38,-149.8 626.38,-153.8 605.38,-153.8 602.38,-149.8 518.62,-149.8 518.62,-113.8 629.38,-113.8 629.38,-149.8"/>
<text text-anchor="middle" x="574" y="-127.6" font-family="Times,serif" font-size="14.00">WishListModule</text>
</g>
<!-- WishListComponent&#45;&gt;WishListModule -->
<g id="edge1" class="edge">
<title>WishListComponent&#45;&gt;WishListModule</title>
<path fill="none" stroke="black" d="M266,-84.91C266,-104.14 266,-131.8 266,-131.8 266,-131.8 508.58,-131.8 508.58,-131.8"/>
<polygon fill="black" stroke="black" points="508.58,-135.3 518.58,-131.8 508.58,-128.3 508.58,-135.3"/>
</g>
<!-- WishListItemComponent -->
<g id="node2" class="node">
<title>WishListItemComponent</title>
<polygon fill="#ffffb3" stroke="black" points="182.32,-84.8 23.68,-84.8 23.68,-48.8 182.32,-48.8 182.32,-84.8"/>
<text text-anchor="middle" x="103" y="-62.6" font-family="Times,serif" font-size="14.00">WishListItemComponent</text>
</g>
<!-- WishListItemComponent&#45;&gt;WishListModule -->
<g id="edge2" class="edge">
<title>WishListItemComponent&#45;&gt;WishListModule</title>
<path fill="none" stroke="black" d="M103,-85.09C103,-107.01 103,-140.8 103,-140.8 103,-140.8 508.59,-140.8 508.59,-140.8"/>
<polygon fill="black" stroke="black" points="508.59,-144.3 518.59,-140.8 508.59,-137.3 508.59,-144.3"/>
</g>
<!-- WishListComponent  -->
<g id="node10" class="node">
<title>WishListComponent </title>
<polygon fill="#fb8072" stroke="black" points="726.16,-214.8 589.84,-214.8 589.84,-178.8 726.16,-178.8 726.16,-214.8"/>
<text text-anchor="middle" x="658" y="-192.6" font-family="Times,serif" font-size="14.00">WishListComponent </text>
</g>
<!-- WishListModule&#45;&gt;WishListComponent  -->
<g id="edge9" class="edge">
<title>WishListModule&#45;&gt;WishListComponent </title>
<path fill="none" stroke="black" stroke-dasharray="5,2" d="M609.68,-149.91C609.68,-149.91 609.68,-168.79 609.68,-168.79"/>
<polygon fill="black" stroke="black" points="606.18,-168.79 609.68,-178.79 613.18,-168.79 606.18,-168.79"/>
</g>
<!-- WishListItemComponent  -->
<g id="node11" class="node">
<title>WishListItemComponent </title>
<polygon fill="#fb8072" stroke="black" points="571.82,-214.8 410.18,-214.8 410.18,-178.8 571.82,-178.8 571.82,-214.8"/>
<text text-anchor="middle" x="491" y="-192.6" font-family="Times,serif" font-size="14.00">WishListItemComponent </text>
</g>
<!-- WishListModule&#45;&gt;WishListItemComponent  -->
<g id="edge10" class="edge">
<title>WishListModule&#45;&gt;WishListItemComponent </title>
<path fill="none" stroke="black" stroke-dasharray="5,2" d="M545.23,-149.91C545.23,-149.91 545.23,-168.79 545.23,-168.79"/>
<polygon fill="black" stroke="black" points="541.73,-168.79 545.23,-178.79 548.73,-168.79 541.73,-168.79"/>
</g>
<!-- AddToCartModule -->
<g id="node4" class="node">
<title>AddToCartModule</title>
<polygon fill="#8dd3c7" stroke="black" points="1077.81,-84.8 1074.81,-88.8 1053.81,-88.8 1050.81,-84.8 954.19,-84.8 954.19,-48.8 1077.81,-48.8 1077.81,-84.8"/>
<text text-anchor="middle" x="1016" y="-62.6" font-family="Times,serif" font-size="14.00">AddToCartModule</text>
</g>
<!-- AddToCartModule&#45;&gt;WishListModule -->
<g id="edge3" class="edge">
<title>AddToCartModule&#45;&gt;WishListModule</title>
<path fill="none" stroke="black" d="M1016,-85.09C1016,-107.01 1016,-140.8 1016,-140.8 1016,-140.8 639.53,-140.8 639.53,-140.8"/>
<polygon fill="black" stroke="black" points="639.53,-137.3 629.53,-140.8 639.53,-144.3 639.53,-137.3"/>
</g>
<!-- I18nModule -->
<g id="node5" class="node">
<title>I18nModule</title>
<polygon fill="#8dd3c7" stroke="black" points="936.71,-84.8 933.71,-88.8 912.71,-88.8 909.71,-84.8 851.29,-84.8 851.29,-48.8 936.71,-48.8 936.71,-84.8"/>
<text text-anchor="middle" x="894" y="-62.6" font-family="Times,serif" font-size="14.00">I18nModule</text>
</g>
<!-- I18nModule&#45;&gt;WishListModule -->
<g id="edge4" class="edge">
<title>I18nModule&#45;&gt;WishListModule</title>
<path fill="none" stroke="black" d="M894,-84.91C894,-104.14 894,-131.8 894,-131.8 894,-131.8 639.74,-131.8 639.74,-131.8"/>
<polygon fill="black" stroke="black" points="639.74,-128.3 629.74,-131.8 639.74,-135.3 639.74,-128.3"/>
</g>
<!-- ItemCounterModule -->
<g id="node6" class="node">
<title>ItemCounterModule</title>
<polygon fill="#8dd3c7" stroke="black" points="833.31,-84.8 830.31,-88.8 809.31,-88.8 806.31,-84.8 702.69,-84.8 702.69,-48.8 833.31,-48.8 833.31,-84.8"/>
<text text-anchor="middle" x="768" y="-62.6" font-family="Times,serif" font-size="14.00">ItemCounterModule</text>
</g>
<!-- ItemCounterModule&#45;&gt;WishListModule -->
<g id="edge5" class="edge">
<title>ItemCounterModule&#45;&gt;WishListModule</title>
<path fill="none" stroke="black" d="M714.46,-84.83C714.46,-101.2 714.46,-122.8 714.46,-122.8 714.46,-122.8 639.51,-122.8 639.51,-122.8"/>
<polygon fill="black" stroke="black" points="639.51,-119.3 629.51,-122.8 639.51,-126.3 639.51,-119.3"/>
</g>
<!-- MediaModule -->
<g id="node7" class="node">
<title>MediaModule</title>
<polygon fill="#8dd3c7" stroke="black" points="684.81,-84.8 681.81,-88.8 660.81,-88.8 657.81,-84.8 589.19,-84.8 589.19,-48.8 684.81,-48.8 684.81,-84.8"/>
<text text-anchor="middle" x="637" y="-62.6" font-family="Times,serif" font-size="14.00">MediaModule</text>
</g>
<!-- MediaModule&#45;&gt;WishListModule -->
<g id="edge6" class="edge">
<title>MediaModule&#45;&gt;WishListModule</title>
<path fill="none" stroke="black" d="M609.39,-84.91C609.39,-84.91 609.39,-103.79 609.39,-103.79"/>
<polygon fill="black" stroke="black" points="605.89,-103.79 609.39,-113.79 612.89,-103.79 605.89,-103.79"/>
</g>
<!-- StarRatingModule -->
<g id="node8" class="node">
<title>StarRatingModule</title>
<polygon fill="#8dd3c7" stroke="black" points="571.93,-84.8 568.93,-88.8 547.93,-88.8 544.93,-84.8 452.07,-84.8 452.07,-48.8 571.93,-48.8 571.93,-84.8"/>
<text text-anchor="middle" x="512" y="-62.6" font-family="Times,serif" font-size="14.00">StarRatingModule</text>
</g>
<!-- StarRatingModule&#45;&gt;WishListModule -->
<g id="edge7" class="edge">
<title>StarRatingModule&#45;&gt;WishListModule</title>
<path fill="none" stroke="black" d="M545.14,-84.91C545.14,-84.91 545.14,-103.79 545.14,-103.79"/>
<polygon fill="black" stroke="black" points="541.64,-103.79 545.14,-113.79 548.64,-103.79 541.64,-103.79"/>
</g>
<!-- UrlModule -->
<g id="node9" class="node">
<title>UrlModule</title>
<polygon fill="#8dd3c7" stroke="black" points="434.21,-84.8 431.21,-88.8 410.21,-88.8 407.21,-84.8 355.79,-84.8 355.79,-48.8 434.21,-48.8 434.21,-84.8"/>
<text text-anchor="middle" x="395" y="-62.6" font-family="Times,serif" font-size="14.00">UrlModule</text>
</g>
<!-- UrlModule&#45;&gt;WishListModule -->
<g id="edge8" class="edge">
<title>UrlModule&#45;&gt;WishListModule</title>
<path fill="none" stroke="black" d="M422.1,-84.83C422.1,-101.2 422.1,-122.8 422.1,-122.8 422.1,-122.8 508.3,-122.8 508.3,-122.8"/>
<polygon fill="black" stroke="black" points="508.3,-126.3 518.3,-122.8 508.3,-119.3 508.3,-126.3"/>
</g>
</g>
</svg>
