<?xml version="1.0" encoding="UTF-8" standalone="no"?>
<!DOCTYPE svg PUBLIC "-//W3C//DTD SVG 1.1//EN"
 "http://www.w3.org/Graphics/SVG/1.1/DTD/svg11.dtd">
<!-- Generated by graphviz version 2.47.3 (20210619.1520)
 -->
<!-- Title: dependencies Pages: 1 -->
<svg width="1110pt" height="247pt"
 viewBox="0.00 0.00 1110.00 246.80" xmlns="http://www.w3.org/2000/svg" xmlns:xlink="http://www.w3.org/1999/xlink">
<g id="graph0" class="graph" transform="scale(1 1) rotate(0) translate(4 242.8)">
<title>dependencies</title>
<polygon fill="white" stroke="transparent" points="-4,4 -4,-242.8 1106,-242.8 1106,4 -4,4"/>
<text text-anchor="middle" x="551" y="-8.2" font-family="sans-serif" font-size="14.00">dependencies</text>
<g id="clust1" class="cluster">
<title>cluster_WishListModule</title>
<polygon fill="none" stroke="black" stroke-dasharray="1,5" points="8,-32.8 8,-230.8 1094,-230.8 1094,-32.8 8,-32.8"/>
</g>
<g id="clust2" class="cluster">
<title>cluster_WishListModule_declarations</title>
<polygon fill="none" stroke="black" points="762,-40.8 762,-92.8 1086,-92.8 1086,-40.8 762,-40.8"/>
</g>
<g id="clust5" class="cluster">
<title>cluster_WishListModule_imports</title>
<polygon fill="none" stroke="black" points="16,-40.8 16,-92.8 754,-92.8 754,-40.8 16,-40.8"/>
</g>
<g id="clust6" class="cluster">
<title>cluster_WishListModule_exports</title>
<polygon fill="none" stroke="black" points="327,-170.8 327,-222.8 659,-222.8 659,-170.8 327,-170.8"/>
</g>
<!-- WishListComponent -->
<g id="node1" class="node">
<title>WishListComponent</title>
<polygon fill="#ffffb3" stroke="black" points="1078.16,-84.8 945.84,-84.8 945.84,-48.8 1078.16,-48.8 1078.16,-84.8"/>
<text text-anchor="middle" x="1012" y="-62.6" font-family="Times,serif" font-size="14.00">WishListComponent</text>
</g>
<!-- WishListModule -->
<g id="node3" class="node">
<title>WishListModule</title>
<polygon fill="#8dd3c7" stroke="black" points="554.38,-149.8 551.38,-153.8 530.38,-153.8 527.38,-149.8 443.62,-149.8 443.62,-113.8 554.38,-113.8 554.38,-149.8"/>
<text text-anchor="middle" x="499" y="-127.6" font-family="Times,serif" font-size="14.00">WishListModule</text>
</g>
<!-- WishListComponent&#45;&gt;WishListModule -->
<g id="edge1" class="edge">
<title>WishListComponent&#45;&gt;WishListModule</title>
<path fill="none" stroke="black" d="M1012,-85.09C1012,-107.01 1012,-140.8 1012,-140.8 1012,-140.8 564.39,-140.8 564.39,-140.8"/>
<polygon fill="black" stroke="black" points="564.39,-137.3 554.39,-140.8 564.39,-144.3 564.39,-137.3"/>
</g>
<!-- WishListItemComponent -->
<g id="node2" class="node">
<title>WishListItemComponent</title>
<polygon fill="#ffffb3" stroke="black" points="928.32,-84.8 769.68,-84.8 769.68,-48.8 928.32,-48.8 928.32,-84.8"/>
<text text-anchor="middle" x="849" y="-62.6" font-family="Times,serif" font-size="14.00">WishListItemComponent</text>
</g>
<!-- WishListItemComponent&#45;&gt;WishListModule -->
<g id="edge2" class="edge">
<title>WishListItemComponent&#45;&gt;WishListModule</title>
<path fill="none" stroke="black" d="M849,-84.91C849,-104.14 849,-131.8 849,-131.8 849,-131.8 564.46,-131.8 564.46,-131.8"/>
<polygon fill="black" stroke="black" points="564.46,-128.3 554.46,-131.8 564.46,-135.3 564.46,-128.3"/>
</g>
<!-- WishListComponent  -->
<g id="node10" class="node">
<title>WishListComponent </title>
<polygon fill="#fb8072" stroke="black" points="651.16,-214.8 514.84,-214.8 514.84,-178.8 651.16,-178.8 651.16,-214.8"/>
<text text-anchor="middle" x="583" y="-192.6" font-family="Times,serif" font-size="14.00">WishListComponent </text>
</g>
<!-- WishListModule&#45;&gt;WishListComponent  -->
<g id="edge9" class="edge">
<title>WishListModule&#45;&gt;WishListComponent </title>
<path fill="none" stroke="black" stroke-dasharray="5,2" d="M534.68,-149.91C534.68,-149.91 534.68,-168.79 534.68,-168.79"/>
<polygon fill="black" stroke="black" points="531.18,-168.79 534.68,-178.79 538.18,-168.79 531.18,-168.79"/>
</g>
<!-- WishListItemComponent  -->
<g id="node11" class="node">
<title>WishListItemComponent </title>
<polygon fill="#fb8072" stroke="black" points="496.82,-214.8 335.18,-214.8 335.18,-178.8 496.82,-178.8 496.82,-214.8"/>
<text text-anchor="middle" x="416" y="-192.6" font-family="Times,serif" font-size="14.00">WishListItemComponent </text>
</g>
<!-- WishListModule&#45;&gt;WishListItemComponent  -->
<g id="edge10" class="edge">
<title>WishListModule&#45;&gt;WishListItemComponent </title>
<path fill="none" stroke="black" stroke-dasharray="5,2" d="M470.23,-149.91C470.23,-149.91 470.23,-168.79 470.23,-168.79"/>
<polygon fill="black" stroke="black" points="466.73,-168.79 470.23,-178.79 473.73,-168.79 466.73,-168.79"/>
</g>
<!-- AddToCartModule -->
<g id="node4" class="node">
<title>AddToCartModule</title>
<polygon fill="#8dd3c7" stroke="black" points="745.81,-84.8 742.81,-88.8 721.81,-88.8 718.81,-84.8 622.19,-84.8 622.19,-48.8 745.81,-48.8 745.81,-84.8"/>
<text text-anchor="middle" x="684" y="-62.6" font-family="Times,serif" font-size="14.00">AddToCartModule</text>
</g>
<!-- AddToCartModule&#45;&gt;WishListModule -->
<g id="edge3" class="edge">
<title>AddToCartModule&#45;&gt;WishListModule</title>
<path fill="none" stroke="black" d="M636.71,-84.83C636.71,-101.2 636.71,-122.8 636.71,-122.8 636.71,-122.8 564.62,-122.8 564.62,-122.8"/>
<polygon fill="black" stroke="black" points="564.62,-119.3 554.62,-122.8 564.62,-126.3 564.62,-119.3"/>
</g>
<!-- I18nModule -->
<g id="node5" class="node">
<title>I18nModule</title>
<polygon fill="#8dd3c7" stroke="black" points="604.71,-84.8 601.71,-88.8 580.71,-88.8 577.71,-84.8 519.29,-84.8 519.29,-48.8 604.71,-48.8 604.71,-84.8"/>
<text text-anchor="middle" x="562" y="-62.6" font-family="Times,serif" font-size="14.00">I18nModule</text>
</g>
<!-- I18nModule&#45;&gt;WishListModule -->
<g id="edge4" class="edge">
<title>I18nModule&#45;&gt;WishListModule</title>
<path fill="none" stroke="black" d="M536.92,-84.91C536.92,-84.91 536.92,-103.79 536.92,-103.79"/>
<polygon fill="black" stroke="black" points="533.42,-103.79 536.92,-113.79 540.42,-103.79 533.42,-103.79"/>
</g>
<!-- ItemCounterModule -->
<g id="node6" class="node">
<title>ItemCounterModule</title>
<polygon fill="#8dd3c7" stroke="black" points="501.31,-84.8 498.31,-88.8 477.31,-88.8 474.31,-84.8 370.69,-84.8 370.69,-48.8 501.31,-48.8 501.31,-84.8"/>
<text text-anchor="middle" x="436" y="-62.6" font-family="Times,serif" font-size="14.00">ItemCounterModule</text>
</g>
<!-- ItemCounterModule&#45;&gt;WishListModule -->
<g id="edge5" class="edge">
<title>ItemCounterModule&#45;&gt;WishListModule</title>
<path fill="none" stroke="black" d="M472.36,-84.91C472.36,-84.91 472.36,-103.79 472.36,-103.79"/>
<polygon fill="black" stroke="black" points="468.86,-103.79 472.36,-113.79 475.86,-103.79 468.86,-103.79"/>
</g>
<!-- MediaModule -->
<g id="node7" class="node">
<title>MediaModule</title>
<polygon fill="#8dd3c7" stroke="black" points="352.81,-84.8 349.81,-88.8 328.81,-88.8 325.81,-84.8 257.19,-84.8 257.19,-48.8 352.81,-48.8 352.81,-84.8"/>
<text text-anchor="middle" x="305" y="-62.6" font-family="Times,serif" font-size="14.00">MediaModule</text>
</g>
<!-- MediaModule&#45;&gt;WishListModule -->
<g id="edge6" class="edge">
<title>MediaModule&#45;&gt;WishListModule</title>
<path fill="none" stroke="black" d="M343.87,-84.83C343.87,-101.2 343.87,-122.8 343.87,-122.8 343.87,-122.8 433.43,-122.8 433.43,-122.8"/>
<polygon fill="black" stroke="black" points="433.43,-126.3 443.43,-122.8 433.43,-119.3 433.43,-126.3"/>
</g>
<!-- StarRatingModule -->
<g id="node8" class="node">
<title>StarRatingModule</title>
<polygon fill="#8dd3c7" stroke="black" points="239.93,-84.8 236.93,-88.8 215.93,-88.8 212.93,-84.8 120.07,-84.8 120.07,-48.8 239.93,-48.8 239.93,-84.8"/>
<text text-anchor="middle" x="180" y="-62.6" font-family="Times,serif" font-size="14.00">StarRatingModule</text>
</g>
<!-- StarRatingModule&#45;&gt;WishListModule -->
<g id="edge7" class="edge">
<title>StarRatingModule&#45;&gt;WishListModule</title>
<path fill="none" stroke="black" d="M180,-84.91C180,-104.14 180,-131.8 180,-131.8 180,-131.8 433.43,-131.8 433.43,-131.8"/>
<polygon fill="black" stroke="black" points="433.43,-135.3 443.43,-131.8 433.43,-128.3 433.43,-135.3"/>
</g>
<!-- UrlModule -->
<g id="node9" class="node">
<title>UrlModule</title>
<polygon fill="#8dd3c7" stroke="black" points="102.21,-84.8 99.21,-88.8 78.21,-88.8 75.21,-84.8 23.79,-84.8 23.79,-48.8 102.21,-48.8 102.21,-84.8"/>
<text text-anchor="middle" x="63" y="-62.6" font-family="Times,serif" font-size="14.00">UrlModule</text>
</g>
<!-- UrlModule&#45;&gt;WishListModule -->
<g id="edge8" class="edge">
<title>UrlModule&#45;&gt;WishListModule</title>
<path fill="none" stroke="black" d="M63,-85.09C63,-107.01 63,-140.8 63,-140.8 63,-140.8 433.34,-140.8 433.34,-140.8"/>
<polygon fill="black" stroke="black" points="433.34,-144.3 443.34,-140.8 433.34,-137.3 433.34,-144.3"/>
</g>
</g>
</svg>
