<?xml version="1.0" encoding="UTF-8" standalone="no"?>
<!DOCTYPE svg PUBLIC "-//W3C//DTD SVG 1.1//EN"
 "http://www.w3.org/Graphics/SVG/1.1/DTD/svg11.dtd">
<!-- Generated by graphviz version 2.40.1 (20161225.0304)
 -->
<!-- Title: dependencies Pages: 1 -->
<svg width="504pt" height="211pt"
 viewBox="0.00 0.00 504.00 211.00" xmlns="http://www.w3.org/2000/svg" xmlns:xlink="http://www.w3.org/1999/xlink">
<g id="graph0" class="graph" transform="scale(1 1) rotate(0) translate(4 207)">
<title>dependencies</title>
<polygon fill="#ffffff" stroke="transparent" points="-4,4 -4,-207 500,-207 500,4 -4,4"/>
<text text-anchor="start" x="227.0091" y="-42.4" font-family="sans-serif" font-weight="bold" font-size="14.00" fill="#000000">Legend</text>
<polygon fill="#ffffb3" stroke="transparent" points="14,-10 14,-30 34,-30 34,-10 14,-10"/>
<text text-anchor="start" x="37.629" y="-15.4" font-family="sans-serif" font-size="14.00" fill="#000000"> &#160;Declarations</text>
<polygon fill="#8dd3c7" stroke="transparent" points="127,-10 127,-30 147,-30 147,-10 127,-10"/>
<text text-anchor="start" x="150.7251" y="-15.4" font-family="sans-serif" font-size="14.00" fill="#000000"> &#160;Module</text>
<polygon fill="#80b1d3" stroke="transparent" points="213,-10 213,-30 233,-30 233,-10 213,-10"/>
<text text-anchor="start" x="236.7812" y="-15.4" font-family="sans-serif" font-size="14.00" fill="#000000"> &#160;Bootstrap</text>
<polygon fill="#fdb462" stroke="transparent" points="310,-10 310,-30 330,-30 330,-10 310,-10"/>
<text text-anchor="start" x="333.6732" y="-15.4" font-family="sans-serif" font-size="14.00" fill="#000000"> &#160;Providers</text>
<polygon fill="#fb8072" stroke="transparent" points="406,-10 406,-30 426,-30 426,-10 406,-10"/>
<text text-anchor="start" x="429.7258" y="-15.4" font-family="sans-serif" font-size="14.00" fill="#000000"> &#160;Exports</text>
<g id="clust1" class="cluster">
<title>cluster_SiteContextOccModule</title>
<polygon fill="none" stroke="#000000" stroke-dasharray="1,5" points="72,-70 72,-195 424,-195 424,-70 72,-70"/>
</g>
<g id="clust3" class="cluster">
<title>cluster_SiteContextOccModule_imports</title>
<polygon fill="none" stroke="#000000" points="302,-78 302,-130 416,-130 416,-78 302,-78"/>
</g>
<g id="clust6" class="cluster">
<title>cluster_SiteContextOccModule_providers</title>
<polygon fill="none" stroke="#000000" points="80,-78 80,-130 294,-130 294,-78 80,-78"/>
</g>
<!-- ConfigModule -->
<g id="node1" class="node">
<title>ConfigModule</title>
<polygon fill="#8dd3c7" stroke="#000000" points="408.4386,-122 405.4386,-126 384.4386,-126 381.4386,-122 309.5614,-122 309.5614,-86 408.4386,-86 408.4386,-122"/>
<text text-anchor="middle" x="359" y="-99.8" font-family="Times,serif" font-size="14.00" fill="#000000">ConfigModule</text>
</g>
<!-- SiteContextOccModule -->
<g id="node2" class="node">
<title>SiteContextOccModule</title>
<polygon fill="#8dd3c7" stroke="#000000" points="338.1965,-187 335.1965,-191 314.1965,-191 311.1965,-187 189.8035,-187 189.8035,-151 338.1965,-151 338.1965,-187"/>
<text text-anchor="middle" x="264" y="-164.8" font-family="Times,serif" font-size="14.00" fill="#000000">SiteContextOccModule</text>
</g>
<!-- ConfigModule&#45;&gt;SiteContextOccModule -->
<g id="edge1" class="edge">
<title>ConfigModule&#45;&gt;SiteContextOccModule</title>
<path fill="none" stroke="#000000" d="M323.9397,-122.1061C323.9397,-122.1061 323.9397,-140.991 323.9397,-140.991"/>
<polygon fill="#000000" stroke="#000000" points="320.4398,-140.9909 323.9397,-150.991 327.4398,-140.991 320.4398,-140.9909"/>
</g>
<!-- SiteContextInterceptor -->
<g id="node3" class="node">
<title>SiteContextInterceptor</title>
<ellipse fill="#fdb462" stroke="#000000" cx="187" cy="-104" rx="98.9916" ry="18"/>
<text text-anchor="middle" x="187" y="-99.8" font-family="Times,serif" font-size="14.00" fill="#000000">SiteContextInterceptor</text>
</g>
<!-- SiteContextInterceptor&#45;&gt;SiteContextOccModule -->
<g id="edge2" class="edge">
<title>SiteContextInterceptor&#45;&gt;SiteContextOccModule</title>
<path fill="none" stroke="#000000" d="M237.9488,-119.7347C237.9488,-119.7347 237.9488,-140.6451 237.9488,-140.6451"/>
<polygon fill="#000000" stroke="#000000" points="234.4489,-140.645 237.9488,-150.6451 241.4489,-140.6451 234.4489,-140.645"/>
</g>
</g>
</svg>
