<?xml version="1.0" encoding="UTF-8" standalone="no"?>
<!DOCTYPE svg PUBLIC "-//W3C//DTD SVG 1.1//EN"
 "http://www.w3.org/Graphics/SVG/1.1/DTD/svg11.dtd">
<!-- Generated by graphviz version 2.47.3 (20210619.1520)
 -->
<!-- Title: dependencies Pages: 1 -->
<svg width="254pt" height="174pt"
 viewBox="0.00 0.00 254.00 173.80" xmlns="http://www.w3.org/2000/svg" xmlns:xlink="http://www.w3.org/1999/xlink">
<g id="graph0" class="graph" transform="scale(1 1) rotate(0) translate(4 169.8)">
<title>dependencies</title>
<polygon fill="white" stroke="transparent" points="-4,4 -4,-169.8 250,-169.8 250,4 -4,4"/>
<text text-anchor="middle" x="123" y="-8.2" font-family="sans-serif" font-size="14.00">dependencies</text>
<g id="clust1" class="cluster">
<title>cluster_SiteContextOccModule</title>
<polygon fill="none" stroke="black" stroke-dasharray="1,5" points="8,-32.8 8,-157.8 238,-157.8 238,-32.8 8,-32.8"/>
</g>
<g id="clust6" class="cluster">
<title>cluster_SiteContextOccModule_providers</title>
<polygon fill="none" stroke="black" points="16,-40.8 16,-92.8 230,-92.8 230,-40.8 16,-40.8"/>
</g>
<!-- SiteContextInterceptor -->
<g id="node1" class="node">
<title>SiteContextInterceptor</title>
<ellipse fill="#fdb462" stroke="black" cx="123" cy="-66.8" rx="98.99" ry="18"/>
<text text-anchor="middle" x="123" y="-62.6" font-family="Times,serif" font-size="14.00">SiteContextInterceptor</text>
</g>
<!-- SiteContextOccModule -->
<g id="node2" class="node">
<title>SiteContextOccModule</title>
<polygon fill="#8dd3c7" stroke="black" points="197.2,-149.8 194.2,-153.8 173.2,-153.8 170.2,-149.8 48.8,-149.8 48.8,-113.8 197.2,-113.8 197.2,-149.8"/>
<text text-anchor="middle" x="123" y="-127.6" font-family="Times,serif" font-size="14.00">SiteContextOccModule</text>
</g>
<!-- SiteContextInterceptor&#45;&gt;SiteContextOccModule -->
<g id="edge1" class="edge">
<title>SiteContextInterceptor&#45;&gt;SiteContextOccModule</title>
<path fill="none" stroke="black" d="M123,-84.91C123,-84.91 123,-103.79 123,-103.79"/>
<polygon fill="black" stroke="black" points="119.5,-103.79 123,-113.79 126.5,-103.79 119.5,-103.79"/>
</g>
</g>
</svg>
