<?xml version="1.0" encoding="UTF-8" standalone="no"?>
<!DOCTYPE svg PUBLIC "-//W3C//DTD SVG 1.1//EN"
 "http://www.w3.org/Graphics/SVG/1.1/DTD/svg11.dtd">
<!-- Generated by graphviz version 2.40.1 (20161225.0304)
 -->
<!-- Title: dependencies Pages: 1 -->
<svg width="741pt" height="284pt"
 viewBox="0.00 0.00 741.00 284.00" xmlns="http://www.w3.org/2000/svg" xmlns:xlink="http://www.w3.org/1999/xlink">
<g id="graph0" class="graph" transform="scale(1 1) rotate(0) translate(4 280)">
<title>dependencies</title>
<polygon fill="#ffffff" stroke="transparent" points="-4,4 -4,-280 737,-280 737,4 -4,4"/>
<text text-anchor="start" x="345.5091" y="-42.4" font-family="sans-serif" font-weight="bold" font-size="14.00" fill="#000000">Legend</text>
<polygon fill="#ffffb3" stroke="transparent" points="132.5,-10 132.5,-30 152.5,-30 152.5,-10 132.5,-10"/>
<text text-anchor="start" x="156.129" y="-15.4" font-family="sans-serif" font-size="14.00" fill="#000000"> &#160;Declarations</text>
<polygon fill="#8dd3c7" stroke="transparent" points="245.5,-10 245.5,-30 265.5,-30 265.5,-10 245.5,-10"/>
<text text-anchor="start" x="269.2251" y="-15.4" font-family="sans-serif" font-size="14.00" fill="#000000"> &#160;Module</text>
<polygon fill="#80b1d3" stroke="transparent" points="331.5,-10 331.5,-30 351.5,-30 351.5,-10 331.5,-10"/>
<text text-anchor="start" x="355.2812" y="-15.4" font-family="sans-serif" font-size="14.00" fill="#000000"> &#160;Bootstrap</text>
<polygon fill="#fdb462" stroke="transparent" points="428.5,-10 428.5,-30 448.5,-30 448.5,-10 428.5,-10"/>
<text text-anchor="start" x="452.1732" y="-15.4" font-family="sans-serif" font-size="14.00" fill="#000000"> &#160;Providers</text>
<polygon fill="#fb8072" stroke="transparent" points="524.5,-10 524.5,-30 544.5,-30 544.5,-10 524.5,-10"/>
<text text-anchor="start" x="548.2258" y="-15.4" font-family="sans-serif" font-size="14.00" fill="#000000"> &#160;Exports</text>
<g id="clust1" class="cluster">
<title>cluster_OrderConfirmationPageModule</title>
<polygon fill="none" stroke="#000000" stroke-dasharray="1,5" points="8,-70 8,-268 725,-268 725,-70 8,-70"/>
</g>
<g id="clust2" class="cluster">
<title>cluster_OrderConfirmationPageModule_declarations</title>
<polygon fill="none" stroke="#000000" points="485,-78 485,-130 717,-130 717,-78 485,-78"/>
</g>
<g id="clust4" class="cluster">
<title>cluster_OrderConfirmationPageModule_imports</title>
<polygon fill="none" stroke="#000000" points="16,-78 16,-130 477,-130 477,-78 16,-78"/>
</g>
<g id="clust5" class="cluster">
<title>cluster_OrderConfirmationPageModule_exports</title>
<polygon fill="none" stroke="#000000" points="187,-208 187,-260 423,-260 423,-208 187,-208"/>
</g>
<!-- OrderConfirmationPageComponent -->
<g id="node1" class="node">
<title>OrderConfirmationPageComponent</title>
<polygon fill="#ffffb3" stroke="#000000" points="709.1217,-122 492.8783,-122 492.8783,-86 709.1217,-86 709.1217,-122"/>
<text text-anchor="middle" x="601" y="-99.8" font-family="Times,serif" font-size="14.00" fill="#000000">OrderConfirmationPageComponent</text>
</g>
<!-- OrderConfirmationPageModule -->
<g id="node2" class="node">
<title>OrderConfirmationPageModule</title>
<polygon fill="#8dd3c7" stroke="#000000" points="402.3389,-187 399.3389,-191 378.3389,-191 375.3389,-187 207.6611,-187 207.6611,-151 402.3389,-151 402.3389,-187"/>
<text text-anchor="middle" x="305" y="-164.8" font-family="Times,serif" font-size="14.00" fill="#000000">OrderConfirmationPageModule</text>
</g>
<!-- OrderConfirmationPageComponent&#45;&gt;OrderConfirmationPageModule -->
<g id="edge1" class="edge">
<title>OrderConfirmationPageComponent&#45;&gt;OrderConfirmationPageModule</title>
<path fill="none" stroke="#000000" d="M601,-122.1061C601,-141.3391 601,-169 601,-169 601,-169 412.7418,-169 412.7418,-169"/>
<polygon fill="#000000" stroke="#000000" points="412.7418,-165.5001 402.7418,-169 412.7418,-172.5001 412.7418,-165.5001"/>
</g>
<!-- OrderConfirmationPageComponent  -->
<g id="node6" class="node">
<title>OrderConfirmationPageComponent </title>
<polygon fill="#fb8072" stroke="#000000" points="415.1214,-252 194.8786,-252 194.8786,-216 415.1214,-216 415.1214,-252"/>
<text text-anchor="middle" x="305" y="-229.8" font-family="Times,serif" font-size="14.00" fill="#000000">OrderConfirmationPageComponent </text>
</g>
<!-- OrderConfirmationPageModule&#45;&gt;OrderConfirmationPageComponent  -->
<g id="edge5" class="edge">
<title>OrderConfirmationPageModule&#45;&gt;OrderConfirmationPageComponent </title>
<path fill="none" stroke="#000000" stroke-dasharray="5,2" d="M305,-187.1061C305,-187.1061 305,-205.991 305,-205.991"/>
<polygon fill="#000000" stroke="#000000" points="301.5001,-205.9909 305,-215.991 308.5001,-205.991 301.5001,-205.9909"/>
</g>
<!-- OrderConfirmationModule -->
<g id="node3" class="node">
<title>OrderConfirmationModule</title>
<polygon fill="#8dd3c7" stroke="#000000" points="468.6274,-122 465.6274,-126 444.6274,-126 441.6274,-122 301.3726,-122 301.3726,-86 468.6274,-86 468.6274,-122"/>
<text text-anchor="middle" x="385" y="-99.8" font-family="Times,serif" font-size="14.00" fill="#000000">OrderConfirmationModule</text>
</g>
<!-- OrderConfirmationModule&#45;&gt;OrderConfirmationPageModule -->
<g id="edge2" class="edge">
<title>OrderConfirmationModule&#45;&gt;OrderConfirmationPageModule</title>
<path fill="none" stroke="#000000" d="M351.803,-122.1061C351.803,-122.1061 351.803,-140.991 351.803,-140.991"/>
<polygon fill="#000000" stroke="#000000" points="348.303,-140.9909 351.803,-150.991 355.303,-140.991 348.303,-140.9909"/>
</g>
<!-- OutletRefModule -->
<g id="node4" class="node">
<title>OutletRefModule</title>
<polygon fill="#8dd3c7" stroke="#000000" points="283.2549,-122 280.2549,-126 259.2549,-126 256.2549,-122 168.7451,-122 168.7451,-86 283.2549,-86 283.2549,-122"/>
<text text-anchor="middle" x="226" y="-99.8" font-family="Times,serif" font-size="14.00" fill="#000000">OutletRefModule</text>
</g>
<!-- OutletRefModule&#45;&gt;OrderConfirmationPageModule -->
<g id="edge3" class="edge">
<title>OutletRefModule&#45;&gt;OrderConfirmationPageModule</title>
<path fill="none" stroke="#000000" d="M245.479,-122.1061C245.479,-122.1061 245.479,-140.991 245.479,-140.991"/>
<polygon fill="#000000" stroke="#000000" points="241.979,-140.9909 245.479,-150.991 248.979,-140.991 241.979,-140.9909"/>
</g>
<!-- PageLayoutModule -->
<g id="node5" class="node">
<title>PageLayoutModule</title>
<polygon fill="#8dd3c7" stroke="#000000" points="150.4201,-122 147.4201,-126 126.4201,-126 123.4201,-122 23.5799,-122 23.5799,-86 150.4201,-86 150.4201,-122"/>
<text text-anchor="middle" x="87" y="-99.8" font-family="Times,serif" font-size="14.00" fill="#000000">PageLayoutModule</text>
</g>
<!-- PageLayoutModule&#45;&gt;OrderConfirmationPageModule -->
<g id="edge4" class="edge">
<title>PageLayoutModule&#45;&gt;OrderConfirmationPageModule</title>
<path fill="none" stroke="#000000" d="M87,-122.1061C87,-141.3391 87,-169 87,-169 87,-169 197.4771,-169 197.4771,-169"/>
<polygon fill="#000000" stroke="#000000" points="197.4772,-172.5001 207.4771,-169 197.4771,-165.5001 197.4772,-172.5001"/>
</g>
</g>
</svg>
