<?xml version="1.0" encoding="UTF-8" standalone="no"?>
<!DOCTYPE svg PUBLIC "-//W3C//DTD SVG 1.1//EN"
 "http://www.w3.org/Graphics/SVG/1.1/DTD/svg11.dtd">
<!-- Generated by graphviz version 2.47.0 (20210316.0004)
 -->
<!-- Title: dependencies Pages: 1 -->
<svg width="671pt" height="211pt"
 viewBox="0.00 0.00 671.00 211.00" xmlns="http://www.w3.org/2000/svg" xmlns:xlink="http://www.w3.org/1999/xlink">
<g id="graph0" class="graph" transform="scale(1 1) rotate(0) translate(4 207)">
<title>dependencies</title>
<polygon fill="white" stroke="transparent" points="-4,4 -4,-207 667,-207 667,4 -4,4"/>
<text text-anchor="start" x="310.51" y="-42.4" font-family="sans-serif" font-weight="bold" font-size="14.00">Legend</text>
<polygon fill="#ffffb3" stroke="transparent" points="97.5,-10 97.5,-30 117.5,-30 117.5,-10 97.5,-10"/>
<text text-anchor="start" x="121.13" y="-15.4" font-family="sans-serif" font-size="14.00"> &#160;Declarations</text>
<polygon fill="#8dd3c7" stroke="transparent" points="210.5,-10 210.5,-30 230.5,-30 230.5,-10 210.5,-10"/>
<text text-anchor="start" x="234.23" y="-15.4" font-family="sans-serif" font-size="14.00"> &#160;Module</text>
<polygon fill="#80b1d3" stroke="transparent" points="296.5,-10 296.5,-30 316.5,-30 316.5,-10 296.5,-10"/>
<text text-anchor="start" x="320.28" y="-15.4" font-family="sans-serif" font-size="14.00"> &#160;Bootstrap</text>
<polygon fill="#fdb462" stroke="transparent" points="393.5,-10 393.5,-30 413.5,-30 413.5,-10 393.5,-10"/>
<text text-anchor="start" x="417.17" y="-15.4" font-family="sans-serif" font-size="14.00"> &#160;Providers</text>
<polygon fill="#fb8072" stroke="transparent" points="489.5,-10 489.5,-30 509.5,-30 509.5,-10 489.5,-10"/>
<text text-anchor="start" x="513.23" y="-15.4" font-family="sans-serif" font-size="14.00"> &#160;Exports</text>
<g id="clust1" class="cluster">
<title>cluster_LoginFormModule</title>
<polygon fill="none" stroke="black" stroke-dasharray="1,5" points="8,-70 8,-195 655,-195 655,-70 8,-70"/>
</g>
<g id="clust2" class="cluster">
<title>cluster_LoginFormModule_declarations</title>
<polygon fill="none" stroke="black" points="485,-78 485,-130 647,-130 647,-78 485,-78"/>
</g>
<g id="clust4" class="cluster">
<title>cluster_LoginFormModule_imports</title>
<polygon fill="none" stroke="black" points="16,-78 16,-130 477,-130 477,-78 16,-78"/>
</g>
<!-- LoginFormComponent -->
<g id="node1" class="node">
<title>LoginFormComponent</title>
<polygon fill="#ffffb3" stroke="black" points="638.61,-122 493.39,-122 493.39,-86 638.61,-86 638.61,-122"/>
<text text-anchor="middle" x="566" y="-99.8" font-family="Times,serif" font-size="14.00">LoginFormComponent</text>
</g>
<!-- LoginFormModule -->
<g id="node2" class="node">
<title>LoginFormModule</title>
<polygon fill="#8dd3c7" stroke="black" points="345.83,-187 342.83,-191 321.83,-191 318.83,-187 222.17,-187 222.17,-151 345.83,-151 345.83,-187"/>
<text text-anchor="middle" x="284" y="-164.8" font-family="Times,serif" font-size="14.00">LoginFormModule</text>
</g>
<!-- LoginFormComponent&#45;&gt;LoginFormModule -->
<g id="edge1" class="edge">
<title>LoginFormComponent&#45;&gt;LoginFormModule</title>
<path fill="none" stroke="black" d="M566,-122.11C566,-141.34 566,-169 566,-169 566,-169 355.89,-169 355.89,-169"/>
<polygon fill="black" stroke="black" points="355.89,-165.5 345.89,-169 355.89,-172.5 355.89,-165.5"/>
</g>
<!-- FormErrorsModule -->
<g id="node3" class="node">
<title>FormErrorsModule</title>
<polygon fill="#8dd3c7" stroke="black" points="469.36,-122 466.36,-126 445.36,-126 442.36,-122 344.64,-122 344.64,-86 469.36,-86 469.36,-122"/>
<text text-anchor="middle" x="407" y="-99.8" font-family="Times,serif" font-size="14.00">FormErrorsModule</text>
</g>
<!-- FormErrorsModule&#45;&gt;LoginFormModule -->
<g id="edge2" class="edge">
<title>FormErrorsModule&#45;&gt;LoginFormModule</title>
<path fill="none" stroke="black" d="M344.63,-104C339.13,-104 335.59,-104 335.59,-104 335.59,-104 335.59,-140.89 335.59,-140.89"/>
<polygon fill="black" stroke="black" points="332.09,-140.89 335.59,-150.89 339.09,-140.89 332.09,-140.89"/>
</g>
<!-- I18nModule -->
<g id="node4" class="node">
<title>I18nModule</title>
<polygon fill="#8dd3c7" stroke="black" points="326.71,-122 323.71,-126 302.71,-126 299.71,-122 241.29,-122 241.29,-86 326.71,-86 326.71,-122"/>
<text text-anchor="middle" x="284" y="-99.8" font-family="Times,serif" font-size="14.00">I18nModule</text>
</g>
<!-- I18nModule&#45;&gt;LoginFormModule -->
<g id="edge3" class="edge">
<title>I18nModule&#45;&gt;LoginFormModule</title>
<path fill="none" stroke="black" d="M284,-122.11C284,-122.11 284,-140.99 284,-140.99"/>
<polygon fill="black" stroke="black" points="280.5,-140.99 284,-150.99 287.5,-140.99 280.5,-140.99"/>
</g>
<!-- SpinnerModule -->
<g id="node5" class="node">
<title>SpinnerModule</title>
<polygon fill="#8dd3c7" stroke="black" points="223.6,-122 220.6,-126 199.6,-126 196.6,-122 120.4,-122 120.4,-86 223.6,-86 223.6,-122"/>
<text text-anchor="middle" x="172" y="-99.8" font-family="Times,serif" font-size="14.00">SpinnerModule</text>
</g>
<!-- SpinnerModule&#45;&gt;LoginFormModule -->
<g id="edge4" class="edge">
<title>SpinnerModule&#45;&gt;LoginFormModule</title>
<path fill="none" stroke="black" d="M223.55,-104C228.92,-104 232.47,-104 232.47,-104 232.47,-104 232.47,-140.89 232.47,-140.89"/>
<polygon fill="black" stroke="black" points="228.97,-140.89 232.47,-150.89 235.97,-140.89 228.97,-140.89"/>
</g>
<!-- UrlModule -->
<g id="node6" class="node">
<title>UrlModule</title>
<polygon fill="#8dd3c7" stroke="black" points="102.21,-122 99.21,-126 78.21,-126 75.21,-122 23.79,-122 23.79,-86 102.21,-86 102.21,-122"/>
<text text-anchor="middle" x="63" y="-99.8" font-family="Times,serif" font-size="14.00">UrlModule</text>
</g>
<!-- UrlModule&#45;&gt;LoginFormModule -->
<g id="edge5" class="edge">
<title>UrlModule&#45;&gt;LoginFormModule</title>
<path fill="none" stroke="black" d="M63,-122.11C63,-141.34 63,-169 63,-169 63,-169 212.15,-169 212.15,-169"/>
<polygon fill="black" stroke="black" points="212.15,-172.5 222.15,-169 212.15,-165.5 212.15,-172.5"/>
</g>
</g>
</svg>
