<?xml version="1.0" encoding="UTF-8" standalone="no"?>
<!DOCTYPE svg PUBLIC "-//W3C//DTD SVG 1.1//EN"
 "http://www.w3.org/Graphics/SVG/1.1/DTD/svg11.dtd">
<!-- Generated by graphviz version 2.40.1 (20161225.0304)
 -->
<!-- Title: dependencies Pages: 1 -->
<svg width="504pt" height="284pt"
 viewBox="0.00 0.00 504.00 284.00" xmlns="http://www.w3.org/2000/svg" xmlns:xlink="http://www.w3.org/1999/xlink">
<g id="graph0" class="graph" transform="scale(1 1) rotate(0) translate(4 280)">
<title>dependencies</title>
<polygon fill="#ffffff" stroke="transparent" points="-4,4 -4,-280 500,-280 500,4 -4,4"/>
<text text-anchor="start" x="227.0091" y="-42.4" font-family="sans-serif" font-weight="bold" font-size="14.00" fill="#000000">Legend</text>
<polygon fill="#ffffb3" stroke="transparent" points="14,-10 14,-30 34,-30 34,-10 14,-10"/>
<text text-anchor="start" x="37.629" y="-15.4" font-family="sans-serif" font-size="14.00" fill="#000000"> &#160;Declarations</text>
<polygon fill="#8dd3c7" stroke="transparent" points="127,-10 127,-30 147,-30 147,-10 127,-10"/>
<text text-anchor="start" x="150.7251" y="-15.4" font-family="sans-serif" font-size="14.00" fill="#000000"> &#160;Module</text>
<polygon fill="#80b1d3" stroke="transparent" points="213,-10 213,-30 233,-30 233,-10 213,-10"/>
<text text-anchor="start" x="236.7812" y="-15.4" font-family="sans-serif" font-size="14.00" fill="#000000"> &#160;Bootstrap</text>
<polygon fill="#fdb462" stroke="transparent" points="310,-10 310,-30 330,-30 330,-10 310,-10"/>
<text text-anchor="start" x="333.6732" y="-15.4" font-family="sans-serif" font-size="14.00" fill="#000000"> &#160;Providers</text>
<polygon fill="#fb8072" stroke="transparent" points="406,-10 406,-30 426,-30 426,-10 406,-10"/>
<text text-anchor="start" x="429.7258" y="-15.4" font-family="sans-serif" font-size="14.00" fill="#000000"> &#160;Exports</text>
<g id="clust1" class="cluster">
<title>cluster_LoginFormModule</title>
<polygon fill="none" stroke="#000000" stroke-dasharray="1,5" points="56,-70 56,-268 440,-268 440,-70 56,-70"/>
</g>
<g id="clust2" class="cluster">
<title>cluster_LoginFormModule_declarations</title>
<polygon fill="none" stroke="#000000" points="270,-78 270,-130 432,-130 432,-78 270,-78"/>
</g>
<g id="clust4" class="cluster">
<title>cluster_LoginFormModule_imports</title>
<polygon fill="none" stroke="#000000" points="64,-78 64,-130 262,-130 262,-78 64,-78"/>
</g>
<g id="clust5" class="cluster">
<title>cluster_LoginFormModule_exports</title>
<polygon fill="none" stroke="#000000" points="129,-208 129,-260 293,-260 293,-208 129,-208"/>
</g>
<!-- LoginFormComponent -->
<g id="node1" class="node">
<title>LoginFormComponent</title>
<polygon fill="#ffffb3" stroke="#000000" points="423.6094,-122 278.3906,-122 278.3906,-86 423.6094,-86 423.6094,-122"/>
<text text-anchor="middle" x="351" y="-99.8" font-family="Times,serif" font-size="14.00" fill="#000000">LoginFormComponent</text>
</g>
<!-- LoginFormModule -->
<g id="node2" class="node">
<title>LoginFormModule</title>
<polygon fill="#8dd3c7" stroke="#000000" points="272.8272,-187 269.8272,-191 248.8272,-191 245.8272,-187 149.1728,-187 149.1728,-151 272.8272,-151 272.8272,-187"/>
<text text-anchor="middle" x="211" y="-164.8" font-family="Times,serif" font-size="14.00" fill="#000000">LoginFormModule</text>
</g>
<!-- LoginFormComponent&#45;&gt;LoginFormModule -->
<g id="edge1" class="edge">
<title>LoginFormComponent&#45;&gt;LoginFormModule</title>
<path fill="none" stroke="#000000" d="M278.4393,-104C269.3338,-104 263.1343,-104 263.1343,-104 263.1343,-104 263.1343,-140.8939 263.1343,-140.8939"/>
<polygon fill="#000000" stroke="#000000" points="259.6344,-140.8938 263.1343,-150.8939 266.6344,-140.8939 259.6344,-140.8938"/>
</g>
<!-- LoginFormComponent  -->
<g id="node5" class="node">
<title>LoginFormComponent </title>
<polygon fill="#fb8072" stroke="#000000" points="285.1099,-252 136.8901,-252 136.8901,-216 285.1099,-216 285.1099,-252"/>
<text text-anchor="middle" x="211" y="-229.8" font-family="Times,serif" font-size="14.00" fill="#000000">LoginFormComponent </text>
</g>
<!-- LoginFormModule&#45;&gt;LoginFormComponent  -->
<g id="edge4" class="edge">
<title>LoginFormModule&#45;&gt;LoginFormComponent </title>
<path fill="none" stroke="#000000" stroke-dasharray="5,2" d="M211,-187.1061C211,-187.1061 211,-205.991 211,-205.991"/>
<polygon fill="#000000" stroke="#000000" points="207.5001,-205.9909 211,-215.991 214.5001,-205.991 207.5001,-205.9909"/>
</g>
<!-- I18nModule -->
<g id="node3" class="node">
<title>I18nModule</title>
<polygon fill="#8dd3c7" stroke="#000000" points="253.7107,-122 250.7107,-126 229.7107,-126 226.7107,-122 168.2893,-122 168.2893,-86 253.7107,-86 253.7107,-122"/>
<text text-anchor="middle" x="211" y="-99.8" font-family="Times,serif" font-size="14.00" fill="#000000">I18nModule</text>
</g>
<!-- I18nModule&#45;&gt;LoginFormModule -->
<g id="edge2" class="edge">
<title>I18nModule&#45;&gt;LoginFormModule</title>
<path fill="none" stroke="#000000" d="M211,-122.1061C211,-122.1061 211,-140.991 211,-140.991"/>
<polygon fill="#000000" stroke="#000000" points="207.5001,-140.9909 211,-150.991 214.5001,-140.991 207.5001,-140.9909"/>
</g>
<!-- UrlModule -->
<g id="node4" class="node">
<title>UrlModule</title>
<polygon fill="#8dd3c7" stroke="#000000" points="150.2079,-122 147.2079,-126 126.2079,-126 123.2079,-122 71.7921,-122 71.7921,-86 150.2079,-86 150.2079,-122"/>
<text text-anchor="middle" x="111" y="-99.8" font-family="Times,serif" font-size="14.00" fill="#000000">UrlModule</text>
</g>
<!-- UrlModule&#45;&gt;LoginFormModule -->
<g id="edge3" class="edge">
<title>UrlModule&#45;&gt;LoginFormModule</title>
<path fill="none" stroke="#000000" d="M143.016,-122.1061C143.016,-141.3391 143.016,-169 143.016,-169 143.016,-169 143.6433,-169 143.6433,-169"/>
<polygon fill="#000000" stroke="#000000" points="139.2899,-172.5002 149.2899,-169 139.2898,-165.5002 139.2899,-172.5002"/>
</g>
</g>
</svg>
