<?xml version="1.0" encoding="UTF-8" standalone="no"?>
<!DOCTYPE svg PUBLIC "-//W3C//DTD SVG 1.1//EN"
 "http://www.w3.org/Graphics/SVG/1.1/DTD/svg11.dtd">
<!-- Generated by graphviz version 2.47.3 (20210619.1520)
 -->
<!-- Title: dependencies Pages: 1 -->
<svg width="909pt" height="174pt"
 viewBox="0.00 0.00 909.00 173.80" xmlns="http://www.w3.org/2000/svg" xmlns:xlink="http://www.w3.org/1999/xlink">
<g id="graph0" class="graph" transform="scale(1 1) rotate(0) translate(4 169.8)">
<title>dependencies</title>
<polygon fill="white" stroke="transparent" points="-4,4 -4,-169.8 905,-169.8 905,4 -4,4"/>
<text text-anchor="middle" x="450.5" y="-8.2" font-family="sans-serif" font-size="14.00">dependencies</text>
<g id="clust1" class="cluster">
<title>cluster_UserChangePasswordFormModule</title>
<polygon fill="none" stroke="black" stroke-dasharray="1,5" points="8,-32.8 8,-157.8 893,-157.8 893,-32.8 8,-32.8"/>
</g>
<g id="clust4" class="cluster">
<title>cluster_UserChangePasswordFormModule_imports</title>
<polygon fill="none" stroke="black" points="274,-40.8 274,-92.8 885,-92.8 885,-40.8 274,-40.8"/>
</g>
<g id="clust2" class="cluster">
<title>cluster_UserChangePasswordFormModule_declarations</title>
<polygon fill="none" stroke="black" points="16,-40.8 16,-92.8 266,-92.8 266,-40.8 16,-40.8"/>
</g>
<!-- UserChangePasswordFormComponent -->
<g id="node1" class="node">
<title>UserChangePasswordFormComponent</title>
<polygon fill="#ffffb3" stroke="black" points="258.01,-84.8 23.99,-84.8 23.99,-48.8 258.01,-48.8 258.01,-84.8"/>
<text text-anchor="middle" x="141" y="-62.6" font-family="Times,serif" font-size="14.00">UserChangePasswordFormComponent</text>
</g>
<!-- UserChangePasswordFormModule -->
<g id="node2" class="node">
<title>UserChangePasswordFormModule</title>
<polygon fill="#8dd3c7" stroke="black" points="625.23,-149.8 622.23,-153.8 601.23,-153.8 598.23,-149.8 412.77,-149.8 412.77,-113.8 625.23,-113.8 625.23,-149.8"/>
<text text-anchor="middle" x="519" y="-127.6" font-family="Times,serif" font-size="14.00">UserChangePasswordFormModule</text>
</g>
<!-- UserChangePasswordFormComponent&#45;&gt;UserChangePasswordFormModule -->
<g id="edge1" class="edge">
<title>UserChangePasswordFormComponent&#45;&gt;UserChangePasswordFormModule</title>
<path fill="none" stroke="black" d="M141,-85.08C141,-106.12 141,-137.8 141,-137.8 141,-137.8 402.7,-137.8 402.7,-137.8"/>
<polygon fill="black" stroke="black" points="402.7,-141.3 412.7,-137.8 402.7,-134.3 402.7,-141.3"/>
</g>
<!-- CardModule -->
<g id="node3" class="node">
<title>CardModule</title>
<polygon fill="#8dd3c7" stroke="black" points="877.26,-84.8 874.26,-88.8 853.26,-88.8 850.26,-84.8 790.74,-84.8 790.74,-48.8 877.26,-48.8 877.26,-84.8"/>
<text text-anchor="middle" x="834" y="-62.6" font-family="Times,serif" font-size="14.00">CardModule</text>
</g>
<!-- CardModule&#45;&gt;UserChangePasswordFormModule -->
<g id="edge2" class="edge">
<title>CardModule&#45;&gt;UserChangePasswordFormModule</title>
<path fill="none" stroke="black" d="M834,-85.08C834,-106.12 834,-137.8 834,-137.8 834,-137.8 635.64,-137.8 635.64,-137.8"/>
<polygon fill="black" stroke="black" points="635.64,-134.3 625.64,-137.8 635.64,-141.3 635.64,-134.3"/>
</g>
<!-- FormErrorsModule -->
<g id="node4" class="node">
<title>FormErrorsModule</title>
<polygon fill="#8dd3c7" stroke="black" points="772.36,-84.8 769.36,-88.8 748.36,-88.8 745.36,-84.8 647.64,-84.8 647.64,-48.8 772.36,-48.8 772.36,-84.8"/>
<text text-anchor="middle" x="710" y="-62.6" font-family="Times,serif" font-size="14.00">FormErrorsModule</text>
</g>
<!-- FormErrorsModule&#45;&gt;UserChangePasswordFormModule -->
<g id="edge3" class="edge">
<title>FormErrorsModule&#45;&gt;UserChangePasswordFormModule</title>
<path fill="none" stroke="black" d="M710,-84.82C710,-102.17 710,-125.8 710,-125.8 710,-125.8 635.39,-125.8 635.39,-125.8"/>
<polygon fill="black" stroke="black" points="635.39,-122.3 625.39,-125.8 635.39,-129.3 635.39,-122.3"/>
</g>
<!-- I18nModule -->
<g id="node5" class="node">
<title>I18nModule</title>
<polygon fill="#8dd3c7" stroke="black" points="629.71,-84.8 626.71,-88.8 605.71,-88.8 602.71,-84.8 544.29,-84.8 544.29,-48.8 629.71,-48.8 629.71,-84.8"/>
<text text-anchor="middle" x="587" y="-62.6" font-family="Times,serif" font-size="14.00">I18nModule</text>
</g>
<!-- I18nModule&#45;&gt;UserChangePasswordFormModule -->
<g id="edge4" class="edge">
<title>I18nModule&#45;&gt;UserChangePasswordFormModule</title>
<path fill="none" stroke="black" d="M584.88,-84.91C584.88,-84.91 584.88,-103.79 584.88,-103.79"/>
<polygon fill="black" stroke="black" points="581.38,-103.79 584.88,-113.79 588.38,-103.79 581.38,-103.79"/>
</g>
<!-- KeyboardFocusModule -->
<g id="node6" class="node">
<title>KeyboardFocusModule</title>
<polygon fill="#8dd3c7" stroke="black" points="526.19,-84.8 523.19,-88.8 502.19,-88.8 499.19,-84.8 377.81,-84.8 377.81,-48.8 526.19,-48.8 526.19,-84.8"/>
<text text-anchor="middle" x="452" y="-62.6" font-family="Times,serif" font-size="14.00">KeyboardFocusModule</text>
</g>
<!-- KeyboardFocusModule&#45;&gt;UserChangePasswordFormModule -->
<g id="edge5" class="edge">
<title>KeyboardFocusModule&#45;&gt;UserChangePasswordFormModule</title>
<path fill="none" stroke="black" d="M469.36,-84.91C469.36,-84.91 469.36,-103.79 469.36,-103.79"/>
<polygon fill="black" stroke="black" points="465.86,-103.79 469.36,-113.79 472.86,-103.79 465.86,-103.79"/>
</g>
<!-- UrlModule -->
<g id="node7" class="node">
<title>UrlModule</title>
<polygon fill="#8dd3c7" stroke="black" points="360.21,-84.8 357.21,-88.8 336.21,-88.8 333.21,-84.8 281.79,-84.8 281.79,-48.8 360.21,-48.8 360.21,-84.8"/>
<text text-anchor="middle" x="321" y="-62.6" font-family="Times,serif" font-size="14.00">UrlModule</text>
</g>
<!-- UrlModule&#45;&gt;UserChangePasswordFormModule -->
<g id="edge6" class="edge">
<title>UrlModule&#45;&gt;UserChangePasswordFormModule</title>
<path fill="none" stroke="black" d="M321,-84.82C321,-102.17 321,-125.8 321,-125.8 321,-125.8 402.75,-125.8 402.75,-125.8"/>
<polygon fill="black" stroke="black" points="402.75,-129.3 412.75,-125.8 402.75,-122.3 402.75,-129.3"/>
</g>
</g>
</svg>
