<?xml version="1.0" encoding="UTF-8" standalone="no"?>
<!DOCTYPE svg PUBLIC "-//W3C//DTD SVG 1.1//EN"
 "http://www.w3.org/Graphics/SVG/1.1/DTD/svg11.dtd">
<!-- Generated by graphviz version 2.40.1 (20161225.0304)
 -->
<!-- Title: dependencies Pages: 1 -->
<svg width="909pt" height="211pt"
 viewBox="0.00 0.00 909.00 211.00" xmlns="http://www.w3.org/2000/svg" xmlns:xlink="http://www.w3.org/1999/xlink">
<g id="graph0" class="graph" transform="scale(1 1) rotate(0) translate(4 207)">
<title>dependencies</title>
<polygon fill="#ffffff" stroke="transparent" points="-4,4 -4,-207 905,-207 905,4 -4,4"/>
<text text-anchor="start" x="429.5091" y="-42.4" font-family="sans-serif" font-weight="bold" font-size="14.00" fill="#000000">Legend</text>
<polygon fill="#ffffb3" stroke="transparent" points="216.5,-10 216.5,-30 236.5,-30 236.5,-10 216.5,-10"/>
<text text-anchor="start" x="240.129" y="-15.4" font-family="sans-serif" font-size="14.00" fill="#000000"> &#160;Declarations</text>
<polygon fill="#8dd3c7" stroke="transparent" points="329.5,-10 329.5,-30 349.5,-30 349.5,-10 329.5,-10"/>
<text text-anchor="start" x="353.2251" y="-15.4" font-family="sans-serif" font-size="14.00" fill="#000000"> &#160;Module</text>
<polygon fill="#80b1d3" stroke="transparent" points="415.5,-10 415.5,-30 435.5,-30 435.5,-10 415.5,-10"/>
<text text-anchor="start" x="439.2812" y="-15.4" font-family="sans-serif" font-size="14.00" fill="#000000"> &#160;Bootstrap</text>
<polygon fill="#fdb462" stroke="transparent" points="512.5,-10 512.5,-30 532.5,-30 532.5,-10 512.5,-10"/>
<text text-anchor="start" x="536.1732" y="-15.4" font-family="sans-serif" font-size="14.00" fill="#000000"> &#160;Providers</text>
<polygon fill="#fb8072" stroke="transparent" points="608.5,-10 608.5,-30 628.5,-30 628.5,-10 608.5,-10"/>
<text text-anchor="start" x="632.2258" y="-15.4" font-family="sans-serif" font-size="14.00" fill="#000000"> &#160;Exports</text>
<g id="clust1" class="cluster">
<title>cluster_UserChangePasswordFormModule</title>
<polygon fill="none" stroke="#000000" stroke-dasharray="1,5" points="8,-70 8,-195 893,-195 893,-70 8,-70"/>
</g>
<g id="clust2" class="cluster">
<title>cluster_UserChangePasswordFormModule_declarations</title>
<polygon fill="none" stroke="#000000" points="635,-78 635,-130 885,-130 885,-78 635,-78"/>
</g>
<g id="clust4" class="cluster">
<title>cluster_UserChangePasswordFormModule_imports</title>
<polygon fill="none" stroke="#000000" points="16,-78 16,-130 627,-130 627,-78 16,-78"/>
</g>
<!-- UserChangePasswordFormComponent -->
<g id="node1" class="node">
<title>UserChangePasswordFormComponent</title>
<polygon fill="#ffffb3" stroke="#000000" points="877.0125,-122 642.9875,-122 642.9875,-86 877.0125,-86 877.0125,-122"/>
<text text-anchor="middle" x="760" y="-99.8" font-family="Times,serif" font-size="14.00" fill="#000000">UserChangePasswordFormComponent</text>
</g>
<!-- UserChangePasswordFormModule -->
<g id="node2" class="node">
<title>UserChangePasswordFormModule</title>
<polygon fill="#8dd3c7" stroke="#000000" points="496.2296,-187 493.2296,-191 472.2296,-191 469.2296,-187 283.7704,-187 283.7704,-151 496.2296,-151 496.2296,-187"/>
<text text-anchor="middle" x="390" y="-164.8" font-family="Times,serif" font-size="14.00" fill="#000000">UserChangePasswordFormModule</text>
</g>
<!-- UserChangePasswordFormComponent&#45;&gt;UserChangePasswordFormModule -->
<g id="edge1" class="edge">
<title>UserChangePasswordFormComponent&#45;&gt;UserChangePasswordFormModule</title>
<path fill="none" stroke="#000000" d="M760,-122.2843C760,-143.3211 760,-175 760,-175 760,-175 506.5229,-175 506.5229,-175"/>
<polygon fill="#000000" stroke="#000000" points="506.523,-171.5001 496.5229,-175 506.5229,-178.5001 506.523,-171.5001"/>
</g>
<!-- CardModule -->
<g id="node3" class="node">
<title>CardModule</title>
<polygon fill="#8dd3c7" stroke="#000000" points="619.2619,-122 616.2619,-126 595.2619,-126 592.2619,-122 532.7381,-122 532.7381,-86 619.2619,-86 619.2619,-122"/>
<text text-anchor="middle" x="576" y="-99.8" font-family="Times,serif" font-size="14.00" fill="#000000">CardModule</text>
</g>
<!-- CardModule&#45;&gt;UserChangePasswordFormModule -->
<g id="edge2" class="edge">
<title>CardModule&#45;&gt;UserChangePasswordFormModule</title>
<path fill="none" stroke="#000000" d="M576,-122.0225C576,-139.3734 576,-163 576,-163 576,-163 506.3098,-163 506.3098,-163"/>
<polygon fill="#000000" stroke="#000000" points="506.3099,-159.5001 496.3098,-163 506.3098,-166.5001 506.3099,-159.5001"/>
</g>
<!-- FormErrorsModule -->
<g id="node4" class="node">
<title>FormErrorsModule</title>
<polygon fill="#8dd3c7" stroke="#000000" points="514.3627,-122 511.3627,-126 490.3627,-126 487.3627,-122 389.6373,-122 389.6373,-86 514.3627,-86 514.3627,-122"/>
<text text-anchor="middle" x="452" y="-99.8" font-family="Times,serif" font-size="14.00" fill="#000000">FormErrorsModule</text>
</g>
<!-- FormErrorsModule&#45;&gt;UserChangePasswordFormModule -->
<g id="edge3" class="edge">
<title>FormErrorsModule&#45;&gt;UserChangePasswordFormModule</title>
<path fill="none" stroke="#000000" d="M442.9667,-122.1061C442.9667,-122.1061 442.9667,-140.991 442.9667,-140.991"/>
<polygon fill="#000000" stroke="#000000" points="439.4668,-140.9909 442.9667,-150.991 446.4668,-140.991 439.4668,-140.9909"/>
</g>
<!-- I18nModule -->
<g id="node5" class="node">
<title>I18nModule</title>
<polygon fill="#8dd3c7" stroke="#000000" points="371.7107,-122 368.7107,-126 347.7107,-126 344.7107,-122 286.2893,-122 286.2893,-86 371.7107,-86 371.7107,-122"/>
<text text-anchor="middle" x="329" y="-99.8" font-family="Times,serif" font-size="14.00" fill="#000000">I18nModule</text>
</g>
<!-- I18nModule&#45;&gt;UserChangePasswordFormModule -->
<g id="edge4" class="edge">
<title>I18nModule&#45;&gt;UserChangePasswordFormModule</title>
<path fill="none" stroke="#000000" d="M329,-122.1061C329,-122.1061 329,-140.991 329,-140.991"/>
<polygon fill="#000000" stroke="#000000" points="325.5001,-140.9909 329,-150.991 332.5001,-140.991 325.5001,-140.9909"/>
</g>
<!-- KeyboardFocusModule -->
<g id="node6" class="node">
<title>KeyboardFocusModule</title>
<polygon fill="#8dd3c7" stroke="#000000" points="268.1881,-122 265.1881,-126 244.1881,-126 241.1881,-122 119.8119,-122 119.8119,-86 268.1881,-86 268.1881,-122"/>
<text text-anchor="middle" x="194" y="-99.8" font-family="Times,serif" font-size="14.00" fill="#000000">KeyboardFocusModule</text>
</g>
<!-- KeyboardFocusModule&#45;&gt;UserChangePasswordFormModule -->
<g id="edge5" class="edge">
<title>KeyboardFocusModule&#45;&gt;UserChangePasswordFormModule</title>
<path fill="none" stroke="#000000" d="M194,-122.0225C194,-139.3734 194,-163 194,-163 194,-163 273.6827,-163 273.6827,-163"/>
<polygon fill="#000000" stroke="#000000" points="273.6828,-166.5001 283.6827,-163 273.6827,-159.5001 273.6828,-166.5001"/>
</g>
<!-- UrlModule -->
<g id="node7" class="node">
<title>UrlModule</title>
<polygon fill="#8dd3c7" stroke="#000000" points="102.2079,-122 99.2079,-126 78.2079,-126 75.2079,-122 23.7921,-122 23.7921,-86 102.2079,-86 102.2079,-122"/>
<text text-anchor="middle" x="63" y="-99.8" font-family="Times,serif" font-size="14.00" fill="#000000">UrlModule</text>
</g>
<!-- UrlModule&#45;&gt;UserChangePasswordFormModule -->
<g id="edge6" class="edge">
<title>UrlModule&#45;&gt;UserChangePasswordFormModule</title>
<path fill="none" stroke="#000000" d="M63,-122.2843C63,-143.3211 63,-175 63,-175 63,-175 273.3804,-175 273.3804,-175"/>
<polygon fill="#000000" stroke="#000000" points="273.3805,-178.5001 283.3804,-175 273.3804,-171.5001 273.3805,-178.5001"/>
</g>
</g>
</svg>
