<?xml version="1.0" encoding="UTF-8" standalone="no"?>
<!DOCTYPE svg PUBLIC "-//W3C//DTD SVG 1.1//EN"
 "http://www.w3.org/Graphics/SVG/1.1/DTD/svg11.dtd">
<!-- Generated by graphviz version 2.40.1 (20161225.0304)
 -->
<!-- Title: dependencies Pages: 1 -->
<svg width="743pt" height="211pt"
 viewBox="0.00 0.00 743.00 211.00" xmlns="http://www.w3.org/2000/svg" xmlns:xlink="http://www.w3.org/1999/xlink">
<g id="graph0" class="graph" transform="scale(1 1) rotate(0) translate(4 207)">
<title>dependencies</title>
<polygon fill="#ffffff" stroke="transparent" points="-4,4 -4,-207 739,-207 739,4 -4,4"/>
<text text-anchor="start" x="346.5091" y="-42.4" font-family="sans-serif" font-weight="bold" font-size="14.00" fill="#000000">Legend</text>
<polygon fill="#ffffb3" stroke="transparent" points="133.5,-10 133.5,-30 153.5,-30 153.5,-10 133.5,-10"/>
<text text-anchor="start" x="157.129" y="-15.4" font-family="sans-serif" font-size="14.00" fill="#000000"> &#160;Declarations</text>
<polygon fill="#8dd3c7" stroke="transparent" points="246.5,-10 246.5,-30 266.5,-30 266.5,-10 246.5,-10"/>
<text text-anchor="start" x="270.2251" y="-15.4" font-family="sans-serif" font-size="14.00" fill="#000000"> &#160;Module</text>
<polygon fill="#80b1d3" stroke="transparent" points="332.5,-10 332.5,-30 352.5,-30 352.5,-10 332.5,-10"/>
<text text-anchor="start" x="356.2812" y="-15.4" font-family="sans-serif" font-size="14.00" fill="#000000"> &#160;Bootstrap</text>
<polygon fill="#fdb462" stroke="transparent" points="429.5,-10 429.5,-30 449.5,-30 449.5,-10 429.5,-10"/>
<text text-anchor="start" x="453.1732" y="-15.4" font-family="sans-serif" font-size="14.00" fill="#000000"> &#160;Providers</text>
<polygon fill="#fb8072" stroke="transparent" points="525.5,-10 525.5,-30 545.5,-30 545.5,-10 525.5,-10"/>
<text text-anchor="start" x="549.2258" y="-15.4" font-family="sans-serif" font-size="14.00" fill="#000000"> &#160;Exports</text>
<g id="clust1" class="cluster">
<title>cluster_UserChangePasswordFormModule</title>
<polygon fill="none" stroke="#000000" stroke-dasharray="1,5" points="8,-70 8,-195 727,-195 727,-70 8,-70"/>
</g>
<g id="clust2" class="cluster">
<title>cluster_UserChangePasswordFormModule_declarations</title>
<polygon fill="none" stroke="#000000" points="469,-78 469,-130 719,-130 719,-78 469,-78"/>
</g>
<g id="clust4" class="cluster">
<title>cluster_UserChangePasswordFormModule_imports</title>
<polygon fill="none" stroke="#000000" points="16,-78 16,-130 461,-130 461,-78 16,-78"/>
</g>
<!-- UserChangePasswordFormComponent -->
<g id="node1" class="node">
<title>UserChangePasswordFormComponent</title>
<polygon fill="#ffffb3" stroke="#000000" points="711.0125,-122 476.9875,-122 476.9875,-86 711.0125,-86 711.0125,-122"/>
<text text-anchor="middle" x="594" y="-99.8" font-family="Times,serif" font-size="14.00" fill="#000000">UserChangePasswordFormComponent</text>
</g>
<!-- UserChangePasswordFormModule -->
<g id="node2" class="node">
<title>UserChangePasswordFormModule</title>
<polygon fill="#8dd3c7" stroke="#000000" points="392.2296,-187 389.2296,-191 368.2296,-191 365.2296,-187 179.7704,-187 179.7704,-151 392.2296,-151 392.2296,-187"/>
<text text-anchor="middle" x="286" y="-164.8" font-family="Times,serif" font-size="14.00" fill="#000000">UserChangePasswordFormModule</text>
</g>
<!-- UserChangePasswordFormComponent&#45;&gt;UserChangePasswordFormModule -->
<g id="edge1" class="edge">
<title>UserChangePasswordFormComponent&#45;&gt;UserChangePasswordFormModule</title>
<path fill="none" stroke="#000000" d="M594,-122.1061C594,-141.3391 594,-169 594,-169 594,-169 402.4274,-169 402.4274,-169"/>
<polygon fill="#000000" stroke="#000000" points="402.4274,-165.5001 392.4274,-169 402.4274,-172.5001 402.4274,-165.5001"/>
</g>
<!-- CardModule -->
<g id="node3" class="node">
<title>CardModule</title>
<polygon fill="#8dd3c7" stroke="#000000" points="453.2619,-122 450.2619,-126 429.2619,-126 426.2619,-122 366.7381,-122 366.7381,-86 453.2619,-86 453.2619,-122"/>
<text text-anchor="middle" x="410" y="-99.8" font-family="Times,serif" font-size="14.00" fill="#000000">CardModule</text>
</g>
<!-- CardModule&#45;&gt;UserChangePasswordFormModule -->
<g id="edge2" class="edge">
<title>CardModule&#45;&gt;UserChangePasswordFormModule</title>
<path fill="none" stroke="#000000" d="M379.4919,-122.1061C379.4919,-122.1061 379.4919,-140.991 379.4919,-140.991"/>
<polygon fill="#000000" stroke="#000000" points="375.992,-140.9909 379.4919,-150.991 382.992,-140.991 375.992,-140.9909"/>
</g>
<!-- FormErrorsModule -->
<g id="node4" class="node">
<title>FormErrorsModule</title>
<polygon fill="#8dd3c7" stroke="#000000" points="348.3627,-122 345.3627,-126 324.3627,-126 321.3627,-122 223.6373,-122 223.6373,-86 348.3627,-86 348.3627,-122"/>
<text text-anchor="middle" x="286" y="-99.8" font-family="Times,serif" font-size="14.00" fill="#000000">FormErrorsModule</text>
</g>
<!-- FormErrorsModule&#45;&gt;UserChangePasswordFormModule -->
<g id="edge3" class="edge">
<title>FormErrorsModule&#45;&gt;UserChangePasswordFormModule</title>
<path fill="none" stroke="#000000" d="M286,-122.1061C286,-122.1061 286,-140.991 286,-140.991"/>
<polygon fill="#000000" stroke="#000000" points="282.5001,-140.9909 286,-150.991 289.5001,-140.991 282.5001,-140.9909"/>
</g>
<!-- I18nModule -->
<g id="node5" class="node">
<title>I18nModule</title>
<polygon fill="#8dd3c7" stroke="#000000" points="205.7107,-122 202.7107,-126 181.7107,-126 178.7107,-122 120.2893,-122 120.2893,-86 205.7107,-86 205.7107,-122"/>
<text text-anchor="middle" x="163" y="-99.8" font-family="Times,serif" font-size="14.00" fill="#000000">I18nModule</text>
</g>
<!-- I18nModule&#45;&gt;UserChangePasswordFormModule -->
<g id="edge4" class="edge">
<title>I18nModule&#45;&gt;UserChangePasswordFormModule</title>
<path fill="none" stroke="#000000" d="M192.6203,-122.1061C192.6203,-122.1061 192.6203,-140.991 192.6203,-140.991"/>
<polygon fill="#000000" stroke="#000000" points="189.1203,-140.9909 192.6203,-150.991 196.1203,-140.991 189.1203,-140.9909"/>
</g>
<!-- UrlModule -->
<g id="node6" class="node">
<title>UrlModule</title>
<polygon fill="#8dd3c7" stroke="#000000" points="102.2079,-122 99.2079,-126 78.2079,-126 75.2079,-122 23.7921,-122 23.7921,-86 102.2079,-86 102.2079,-122"/>
<text text-anchor="middle" x="63" y="-99.8" font-family="Times,serif" font-size="14.00" fill="#000000">UrlModule</text>
</g>
<!-- UrlModule&#45;&gt;UserChangePasswordFormModule -->
<g id="edge5" class="edge">
<title>UrlModule&#45;&gt;UserChangePasswordFormModule</title>
<path fill="none" stroke="#000000" d="M63,-122.1061C63,-141.3391 63,-169 63,-169 63,-169 169.7249,-169 169.7249,-169"/>
<polygon fill="#000000" stroke="#000000" points="169.7249,-172.5001 179.7249,-169 169.7248,-165.5001 169.7249,-172.5001"/>
</g>
</g>
</svg>
