<?xml version="1.0" encoding="UTF-8" standalone="no"?>
<!DOCTYPE svg PUBLIC "-//W3C//DTD SVG 1.1//EN"
 "http://www.w3.org/Graphics/SVG/1.1/DTD/svg11.dtd">
<!-- Generated by graphviz version 2.47.3 (20210619.1520)
 -->
<!-- Title: dependencies Pages: 1 -->
<svg width="610pt" height="247pt"
 viewBox="0.00 0.00 610.00 246.80" xmlns="http://www.w3.org/2000/svg" xmlns:xlink="http://www.w3.org/1999/xlink">
<g id="graph0" class="graph" transform="scale(1 1) rotate(0) translate(4 242.8)">
<title>dependencies</title>
<polygon fill="white" stroke="transparent" points="-4,4 -4,-242.8 606,-242.8 606,4 -4,4"/>
<text text-anchor="middle" x="301" y="-8.2" font-family="sans-serif" font-size="14.00">dependencies</text>
<g id="clust1" class="cluster">
<title>cluster_CarouselModule</title>
<polygon fill="none" stroke="black" stroke-dasharray="1,5" points="8,-32.8 8,-230.8 594,-230.8 594,-32.8 8,-32.8"/>
</g>
<g id="clust5" class="cluster">
<title>cluster_CarouselModule_exports</title>
<polygon fill="none" stroke="black" points="201,-170.8 201,-222.8 351,-222.8 351,-170.8 201,-170.8"/>
</g>
<g id="clust2" class="cluster">
<title>cluster_CarouselModule_declarations</title>
<polygon fill="none" stroke="black" points="438,-40.8 438,-92.8 586,-92.8 586,-40.8 438,-40.8"/>
</g>
<g id="clust4" class="cluster">
<title>cluster_CarouselModule_imports</title>
<polygon fill="none" stroke="black" points="16,-40.8 16,-92.8 430,-92.8 430,-40.8 16,-40.8"/>
</g>
<!-- CarouselComponent -->
<g id="node1" class="node">
<title>CarouselComponent</title>
<polygon fill="#ffffb3" stroke="black" points="577.59,-84.8 446.41,-84.8 446.41,-48.8 577.59,-48.8 577.59,-84.8"/>
<text text-anchor="middle" x="512" y="-62.6" font-family="Times,serif" font-size="14.00">CarouselComponent</text>
</g>
<!-- CarouselModule -->
<g id="node2" class="node">
<title>CarouselModule</title>
<polygon fill="#8dd3c7" stroke="black" points="330.81,-149.8 327.81,-153.8 306.81,-153.8 303.81,-149.8 221.19,-149.8 221.19,-113.8 330.81,-113.8 330.81,-149.8"/>
<text text-anchor="middle" x="276" y="-127.6" font-family="Times,serif" font-size="14.00">CarouselModule</text>
</g>
<!-- CarouselComponent&#45;&gt;CarouselModule -->
<g id="edge1" class="edge">
<title>CarouselComponent&#45;&gt;CarouselModule</title>
<path fill="none" stroke="black" d="M512,-84.91C512,-104.14 512,-131.8 512,-131.8 512,-131.8 340.74,-131.8 340.74,-131.8"/>
<polygon fill="black" stroke="black" points="340.74,-128.3 330.74,-131.8 340.74,-135.3 340.74,-128.3"/>
</g>
<!-- CarouselComponent  -->
<g id="node7" class="node">
<title>CarouselComponent </title>
<polygon fill="#fb8072" stroke="black" points="343.09,-214.8 208.91,-214.8 208.91,-178.8 343.09,-178.8 343.09,-214.8"/>
<text text-anchor="middle" x="276" y="-192.6" font-family="Times,serif" font-size="14.00">CarouselComponent </text>
</g>
<!-- CarouselModule&#45;&gt;CarouselComponent  -->
<g id="edge6" class="edge">
<title>CarouselModule&#45;&gt;CarouselComponent </title>
<path fill="none" stroke="black" stroke-dasharray="5,2" d="M276,-149.91C276,-149.91 276,-168.79 276,-168.79"/>
<polygon fill="black" stroke="black" points="272.5,-168.79 276,-178.79 279.5,-168.79 272.5,-168.79"/>
</g>
<!-- I18nModule -->
<g id="node3" class="node">
<title>I18nModule</title>
<polygon fill="#8dd3c7" stroke="black" points="421.71,-84.8 418.71,-88.8 397.71,-88.8 394.71,-84.8 336.29,-84.8 336.29,-48.8 421.71,-48.8 421.71,-84.8"/>
<text text-anchor="middle" x="379" y="-62.6" font-family="Times,serif" font-size="14.00">I18nModule</text>
</g>
<!-- I18nModule&#45;&gt;CarouselModule -->
<g id="edge2" class="edge">
<title>I18nModule&#45;&gt;CarouselModule</title>
<path fill="none" stroke="black" d="M336.27,-66.8C329.37,-66.8 324.43,-66.8 324.43,-66.8 324.43,-66.8 324.43,-103.69 324.43,-103.69"/>
<polygon fill="black" stroke="black" points="320.93,-103.69 324.43,-113.69 327.93,-103.69 320.93,-103.69"/>
</g>
<!-- IconModule -->
<g id="node4" class="node">
<title>IconModule</title>
<polygon fill="#8dd3c7" stroke="black" points="318.43,-84.8 315.43,-88.8 294.43,-88.8 291.43,-84.8 233.57,-84.8 233.57,-48.8 318.43,-48.8 318.43,-84.8"/>
<text text-anchor="middle" x="276" y="-62.6" font-family="Times,serif" font-size="14.00">IconModule</text>
</g>
<!-- IconModule&#45;&gt;CarouselModule -->
<g id="edge3" class="edge">
<title>IconModule&#45;&gt;CarouselModule</title>
<path fill="none" stroke="black" d="M276,-84.91C276,-84.91 276,-103.79 276,-103.79"/>
<polygon fill="black" stroke="black" points="272.5,-103.79 276,-113.79 279.5,-103.79 272.5,-103.79"/>
</g>
<!-- MediaModule -->
<g id="node5" class="node">
<title>MediaModule</title>
<polygon fill="#8dd3c7" stroke="black" points="215.81,-84.8 212.81,-88.8 191.81,-88.8 188.81,-84.8 120.19,-84.8 120.19,-48.8 215.81,-48.8 215.81,-84.8"/>
<text text-anchor="middle" x="168" y="-62.6" font-family="Times,serif" font-size="14.00">MediaModule</text>
</g>
<!-- MediaModule&#45;&gt;CarouselModule -->
<g id="edge4" class="edge">
<title>MediaModule&#45;&gt;CarouselModule</title>
<path fill="none" stroke="black" d="M215.8,-66.8C222.72,-66.8 227.57,-66.8 227.57,-66.8 227.57,-66.8 227.57,-103.69 227.57,-103.69"/>
<polygon fill="black" stroke="black" points="224.07,-103.69 227.57,-113.69 231.07,-103.69 224.07,-103.69"/>
</g>
<!-- UrlModule -->
<g id="node6" class="node">
<title>UrlModule</title>
<polygon fill="#8dd3c7" stroke="black" points="102.21,-84.8 99.21,-88.8 78.21,-88.8 75.21,-84.8 23.79,-84.8 23.79,-48.8 102.21,-48.8 102.21,-84.8"/>
<text text-anchor="middle" x="63" y="-62.6" font-family="Times,serif" font-size="14.00">UrlModule</text>
</g>
<!-- UrlModule&#45;&gt;CarouselModule -->
<g id="edge5" class="edge">
<title>UrlModule&#45;&gt;CarouselModule</title>
<path fill="none" stroke="black" d="M63,-84.91C63,-104.14 63,-131.8 63,-131.8 63,-131.8 211.15,-131.8 211.15,-131.8"/>
<polygon fill="black" stroke="black" points="211.15,-135.3 221.15,-131.8 211.15,-128.3 211.15,-135.3"/>
</g>
</g>
</svg>
