<?xml version="1.0" encoding="UTF-8" standalone="no"?>
<!DOCTYPE svg PUBLIC "-//W3C//DTD SVG 1.1//EN"
 "http://www.w3.org/Graphics/SVG/1.1/DTD/svg11.dtd">
<!-- Generated by graphviz version 2.47.3 (20210619.1520)
 -->
<!-- Title: dependencies Pages: 1 -->
<svg width="1013pt" height="247pt"
 viewBox="0.00 0.00 1013.00 246.80" xmlns="http://www.w3.org/2000/svg" xmlns:xlink="http://www.w3.org/1999/xlink">
<g id="graph0" class="graph" transform="scale(1 1) rotate(0) translate(4 242.8)">
<title>dependencies</title>
<polygon fill="white" stroke="transparent" points="-4,4 -4,-242.8 1009,-242.8 1009,4 -4,4"/>
<text text-anchor="middle" x="502.5" y="-8.2" font-family="sans-serif" font-size="14.00">dependencies</text>
<g id="clust1" class="cluster">
<title>cluster_StorefrontComponentModule</title>
<polygon fill="none" stroke="black" stroke-dasharray="1,5" points="8,-32.8 8,-230.8 997,-230.8 997,-32.8 8,-32.8"/>
</g>
<g id="clust2" class="cluster">
<title>cluster_StorefrontComponentModule_declarations</title>
<polygon fill="none" stroke="black" points="835,-40.8 835,-92.8 989,-92.8 989,-40.8 835,-40.8"/>
</g>
<g id="clust4" class="cluster">
<title>cluster_StorefrontComponentModule_imports</title>
<polygon fill="none" stroke="black" points="16,-40.8 16,-92.8 827,-92.8 827,-40.8 16,-40.8"/>
</g>
<g id="clust5" class="cluster">
<title>cluster_StorefrontComponentModule_exports</title>
<polygon fill="none" stroke="black" points="404,-170.8 404,-222.8 562,-222.8 562,-170.8 404,-170.8"/>
</g>
<!-- StorefrontComponent -->
<g id="node1" class="node">
<title>StorefrontComponent</title>
<polygon fill="#ffffb3" stroke="black" points="981.09,-84.8 842.91,-84.8 842.91,-48.8 981.09,-48.8 981.09,-84.8"/>
<text text-anchor="middle" x="912" y="-62.6" font-family="Times,serif" font-size="14.00">StorefrontComponent</text>
</g>
<!-- StorefrontComponentModule -->
<g id="node2" class="node">
<title>StorefrontComponentModule</title>
<polygon fill="#8dd3c7" stroke="black" points="573.64,-149.8 570.64,-153.8 549.64,-153.8 546.64,-149.8 392.36,-149.8 392.36,-113.8 573.64,-113.8 573.64,-149.8"/>
<text text-anchor="middle" x="483" y="-127.6" font-family="Times,serif" font-size="14.00">StorefrontComponentModule</text>
</g>
<!-- StorefrontComponent&#45;&gt;StorefrontComponentModule -->
<g id="edge1" class="edge">
<title>StorefrontComponent&#45;&gt;StorefrontComponentModule</title>
<path fill="none" stroke="black" d="M912,-85.08C912,-106.12 912,-137.8 912,-137.8 912,-137.8 583.72,-137.8 583.72,-137.8"/>
<polygon fill="black" stroke="black" points="583.72,-134.3 573.72,-137.8 583.72,-141.3 583.72,-134.3"/>
</g>
<!-- StorefrontComponent  -->
<g id="node9" class="node">
<title>StorefrontComponent </title>
<polygon fill="#fb8072" stroke="black" points="553.59,-214.8 412.41,-214.8 412.41,-178.8 553.59,-178.8 553.59,-214.8"/>
<text text-anchor="middle" x="483" y="-192.6" font-family="Times,serif" font-size="14.00">StorefrontComponent </text>
</g>
<!-- StorefrontComponentModule&#45;&gt;StorefrontComponent  -->
<g id="edge8" class="edge">
<title>StorefrontComponentModule&#45;&gt;StorefrontComponent </title>
<path fill="none" stroke="black" stroke-dasharray="5,2" d="M483,-149.91C483,-149.91 483,-168.79 483,-168.79"/>
<polygon fill="black" stroke="black" points="479.5,-168.79 483,-178.79 486.5,-168.79 479.5,-168.79"/>
</g>
<!-- KeyboardFocusModule -->
<g id="node3" class="node">
<title>KeyboardFocusModule</title>
<polygon fill="#8dd3c7" stroke="black" points="819.19,-84.8 816.19,-88.8 795.19,-88.8 792.19,-84.8 670.81,-84.8 670.81,-48.8 819.19,-48.8 819.19,-84.8"/>
<text text-anchor="middle" x="745" y="-62.6" font-family="Times,serif" font-size="14.00">KeyboardFocusModule</text>
</g>
<!-- KeyboardFocusModule&#45;&gt;StorefrontComponentModule -->
<g id="edge2" class="edge">
<title>KeyboardFocusModule&#45;&gt;StorefrontComponentModule</title>
<path fill="none" stroke="black" d="M745,-84.82C745,-102.17 745,-125.8 745,-125.8 745,-125.8 583.9,-125.8 583.9,-125.8"/>
<polygon fill="black" stroke="black" points="583.9,-122.3 573.9,-125.8 583.9,-129.3 583.9,-122.3"/>
</g>
<!-- OutletModule -->
<g id="node4" class="node">
<title>OutletModule</title>
<polygon fill="#8dd3c7" stroke="black" points="653.04,-84.8 650.04,-88.8 629.04,-88.8 626.04,-84.8 558.96,-84.8 558.96,-48.8 653.04,-48.8 653.04,-84.8"/>
<text text-anchor="middle" x="606" y="-62.6" font-family="Times,serif" font-size="14.00">OutletModule</text>
</g>
<!-- OutletModule&#45;&gt;StorefrontComponentModule -->
<g id="edge3" class="edge">
<title>OutletModule&#45;&gt;StorefrontComponentModule</title>
<path fill="none" stroke="black" d="M566.27,-84.91C566.27,-84.91 566.27,-103.79 566.27,-103.79"/>
<polygon fill="black" stroke="black" points="562.77,-103.79 566.27,-113.79 569.77,-103.79 562.77,-103.79"/>
</g>
<!-- OutletRefModule -->
<g id="node5" class="node">
<title>OutletRefModule</title>
<polygon fill="#8dd3c7" stroke="black" points="540.25,-84.8 537.25,-88.8 516.25,-88.8 513.25,-84.8 425.75,-84.8 425.75,-48.8 540.25,-48.8 540.25,-84.8"/>
<text text-anchor="middle" x="483" y="-62.6" font-family="Times,serif" font-size="14.00">OutletRefModule</text>
</g>
<!-- OutletRefModule&#45;&gt;StorefrontComponentModule -->
<g id="edge4" class="edge">
<title>OutletRefModule&#45;&gt;StorefrontComponentModule</title>
<path fill="none" stroke="black" d="M483,-84.91C483,-84.91 483,-103.79 483,-103.79"/>
<polygon fill="black" stroke="black" points="479.5,-103.79 483,-113.79 486.5,-103.79 479.5,-103.79"/>
</g>
<!-- PageLayoutModule -->
<g id="node6" class="node">
<title>PageLayoutModule</title>
<polygon fill="#8dd3c7" stroke="black" points="407.42,-84.8 404.42,-88.8 383.42,-88.8 380.42,-84.8 280.58,-84.8 280.58,-48.8 407.42,-48.8 407.42,-84.8"/>
<text text-anchor="middle" x="344" y="-62.6" font-family="Times,serif" font-size="14.00">PageLayoutModule</text>
</g>
<!-- PageLayoutModule&#45;&gt;StorefrontComponentModule -->
<g id="edge5" class="edge">
<title>PageLayoutModule&#45;&gt;StorefrontComponentModule</title>
<path fill="none" stroke="black" d="M399.69,-84.91C399.69,-84.91 399.69,-103.79 399.69,-103.79"/>
<polygon fill="black" stroke="black" points="396.19,-103.79 399.69,-113.79 403.19,-103.79 396.19,-103.79"/>
</g>
<!-- PageSlotModule -->
<g id="node7" class="node">
<title>PageSlotModule</title>
<polygon fill="#8dd3c7" stroke="black" points="262.83,-84.8 259.83,-88.8 238.83,-88.8 235.83,-84.8 153.17,-84.8 153.17,-48.8 262.83,-48.8 262.83,-84.8"/>
<text text-anchor="middle" x="208" y="-62.6" font-family="Times,serif" font-size="14.00">PageSlotModule</text>
</g>
<!-- PageSlotModule&#45;&gt;StorefrontComponentModule -->
<g id="edge6" class="edge">
<title>PageSlotModule&#45;&gt;StorefrontComponentModule</title>
<path fill="none" stroke="black" d="M208,-84.82C208,-102.17 208,-125.8 208,-125.8 208,-125.8 382.19,-125.8 382.19,-125.8"/>
<polygon fill="black" stroke="black" points="382.19,-129.3 392.19,-125.8 382.19,-122.3 382.19,-129.3"/>
</g>
<!-- SkipLinkModule -->
<g id="node8" class="node">
<title>SkipLinkModule</title>
<polygon fill="#8dd3c7" stroke="black" points="135.67,-84.8 132.67,-88.8 111.67,-88.8 108.67,-84.8 24.33,-84.8 24.33,-48.8 135.67,-48.8 135.67,-84.8"/>
<text text-anchor="middle" x="80" y="-62.6" font-family="Times,serif" font-size="14.00">SkipLinkModule</text>
</g>
<!-- SkipLinkModule&#45;&gt;StorefrontComponentModule -->
<g id="edge7" class="edge">
<title>SkipLinkModule&#45;&gt;StorefrontComponentModule</title>
<path fill="none" stroke="black" d="M80,-85.08C80,-106.12 80,-137.8 80,-137.8 80,-137.8 382.31,-137.8 382.31,-137.8"/>
<polygon fill="black" stroke="black" points="382.31,-141.3 392.31,-137.8 382.31,-134.3 382.31,-141.3"/>
</g>
</g>
</svg>
