<?xml version="1.0" encoding="UTF-8" standalone="no"?>
<!DOCTYPE svg PUBLIC "-//W3C//DTD SVG 1.1//EN"
 "http://www.w3.org/Graphics/SVG/1.1/DTD/svg11.dtd">
<!-- Generated by graphviz version 2.40.1 (20161225.0304)
 -->
<!-- Title: dependencies Pages: 1 -->
<svg width="902pt" height="284pt"
 viewBox="0.00 0.00 902.00 284.00" xmlns="http://www.w3.org/2000/svg" xmlns:xlink="http://www.w3.org/1999/xlink">
<g id="graph0" class="graph" transform="scale(1 1) rotate(0) translate(4 280)">
<title>dependencies</title>
<polygon fill="#ffffff" stroke="transparent" points="-4,4 -4,-280 898,-280 898,4 -4,4"/>
<text text-anchor="start" x="426.0091" y="-42.4" font-family="sans-serif" font-weight="bold" font-size="14.00" fill="#000000">Legend</text>
<polygon fill="#ffffb3" stroke="transparent" points="213,-10 213,-30 233,-30 233,-10 213,-10"/>
<text text-anchor="start" x="236.629" y="-15.4" font-family="sans-serif" font-size="14.00" fill="#000000"> &#160;Declarations</text>
<polygon fill="#8dd3c7" stroke="transparent" points="326,-10 326,-30 346,-30 346,-10 326,-10"/>
<text text-anchor="start" x="349.7251" y="-15.4" font-family="sans-serif" font-size="14.00" fill="#000000"> &#160;Module</text>
<polygon fill="#80b1d3" stroke="transparent" points="412,-10 412,-30 432,-30 432,-10 412,-10"/>
<text text-anchor="start" x="435.7812" y="-15.4" font-family="sans-serif" font-size="14.00" fill="#000000"> &#160;Bootstrap</text>
<polygon fill="#fdb462" stroke="transparent" points="509,-10 509,-30 529,-30 529,-10 509,-10"/>
<text text-anchor="start" x="532.6732" y="-15.4" font-family="sans-serif" font-size="14.00" fill="#000000"> &#160;Providers</text>
<polygon fill="#fb8072" stroke="transparent" points="605,-10 605,-30 625,-30 625,-10 605,-10"/>
<text text-anchor="start" x="628.7258" y="-15.4" font-family="sans-serif" font-size="14.00" fill="#000000"> &#160;Exports</text>
<g id="clust1" class="cluster">
<title>cluster_PwaModule</title>
<polygon fill="none" stroke="#000000" stroke-dasharray="1,5" points="8,-70 8,-268 886,-268 886,-70 8,-70"/>
</g>
<g id="clust2" class="cluster">
<title>cluster_PwaModule_declarations</title>
<polygon fill="none" stroke="#000000" points="396,-78 396,-130 878,-130 878,-78 396,-78"/>
</g>
<g id="clust5" class="cluster">
<title>cluster_PwaModule_imports</title>
<polygon fill="none" stroke="#000000" points="274,-78 274,-130 388,-130 388,-78 274,-78"/>
</g>
<g id="clust6" class="cluster">
<title>cluster_PwaModule_exports</title>
<polygon fill="none" stroke="#000000" points="179,-208 179,-260 668,-260 668,-208 179,-208"/>
</g>
<g id="clust8" class="cluster">
<title>cluster_PwaModule_providers</title>
<polygon fill="none" stroke="#000000" points="16,-78 16,-130 266,-130 266,-78 16,-78"/>
</g>
<!-- AddToHomeScreenBannerComponent -->
<g id="node1" class="node">
<title>AddToHomeScreenBannerComponent</title>
<polygon fill="#ffffb3" stroke="#000000" points="869.717,-122 636.283,-122 636.283,-86 869.717,-86 869.717,-122"/>
<text text-anchor="middle" x="753" y="-99.8" font-family="Times,serif" font-size="14.00" fill="#000000">AddToHomeScreenBannerComponent</text>
</g>
<!-- PwaModule -->
<g id="node3" class="node">
<title>PwaModule</title>
<polygon fill="#8dd3c7" stroke="#000000" points="459.6543,-187 456.6543,-191 435.6543,-191 432.6543,-187 376.3457,-187 376.3457,-151 459.6543,-151 459.6543,-187"/>
<text text-anchor="middle" x="418" y="-164.8" font-family="Times,serif" font-size="14.00" fill="#000000">PwaModule</text>
</g>
<!-- AddToHomeScreenBannerComponent&#45;&gt;PwaModule -->
<g id="edge1" class="edge">
<title>AddToHomeScreenBannerComponent&#45;&gt;PwaModule</title>
<path fill="none" stroke="#000000" d="M647.875,-122.1061C647.875,-141.3391 647.875,-169 647.875,-169 647.875,-169 469.8953,-169 469.8953,-169"/>
<polygon fill="#000000" stroke="#000000" points="469.8954,-165.5001 459.8953,-169 469.8953,-172.5001 469.8954,-165.5001"/>
</g>
<!-- AddToHomeScreenBtnComponent -->
<g id="node2" class="node">
<title>AddToHomeScreenBtnComponent</title>
<polygon fill="#ffffb3" stroke="#000000" points="617.5181,-122 404.4819,-122 404.4819,-86 617.5181,-86 617.5181,-122"/>
<text text-anchor="middle" x="511" y="-99.8" font-family="Times,serif" font-size="14.00" fill="#000000">AddToHomeScreenBtnComponent</text>
</g>
<!-- AddToHomeScreenBtnComponent&#45;&gt;PwaModule -->
<g id="edge2" class="edge">
<title>AddToHomeScreenBtnComponent&#45;&gt;PwaModule</title>
<path fill="none" stroke="#000000" d="M432.034,-122.1061C432.034,-122.1061 432.034,-140.991 432.034,-140.991"/>
<polygon fill="#000000" stroke="#000000" points="428.5341,-140.9909 432.034,-150.991 435.5341,-140.991 428.5341,-140.9909"/>
</g>
<!-- AddToHomeScreenBannerComponent  -->
<g id="node5" class="node">
<title>AddToHomeScreenBannerComponent </title>
<polygon fill="#fb8072" stroke="#000000" points="659.7169,-252 422.2831,-252 422.2831,-216 659.7169,-216 659.7169,-252"/>
<text text-anchor="middle" x="541" y="-229.8" font-family="Times,serif" font-size="14.00" fill="#000000">AddToHomeScreenBannerComponent </text>
</g>
<!-- PwaModule&#45;&gt;AddToHomeScreenBannerComponent  -->
<g id="edge4" class="edge">
<title>PwaModule&#45;&gt;AddToHomeScreenBannerComponent </title>
<path fill="none" stroke="#000000" stroke-dasharray="5,2" d="M441.1092,-187.1061C441.1092,-187.1061 441.1092,-205.991 441.1092,-205.991"/>
<polygon fill="#000000" stroke="#000000" points="437.6093,-205.9909 441.1092,-215.991 444.6093,-205.991 437.6093,-205.9909"/>
</g>
<!-- AddToHomeScreenBtnComponent  -->
<g id="node6" class="node">
<title>AddToHomeScreenBtnComponent </title>
<polygon fill="#fb8072" stroke="#000000" points="404.5176,-252 187.4824,-252 187.4824,-216 404.5176,-216 404.5176,-252"/>
<text text-anchor="middle" x="296" y="-229.8" font-family="Times,serif" font-size="14.00" fill="#000000">AddToHomeScreenBtnComponent </text>
</g>
<!-- PwaModule&#45;&gt;AddToHomeScreenBtnComponent  -->
<g id="edge5" class="edge">
<title>PwaModule&#45;&gt;AddToHomeScreenBtnComponent </title>
<path fill="none" stroke="#000000" stroke-dasharray="5,2" d="M390.341,-187.1061C390.341,-187.1061 390.341,-205.991 390.341,-205.991"/>
<polygon fill="#000000" stroke="#000000" points="386.8411,-205.9909 390.341,-215.991 393.8411,-205.991 386.8411,-205.9909"/>
</g>
<!-- ConfigModule -->
<g id="node4" class="node">
<title>ConfigModule</title>
<polygon fill="#8dd3c7" stroke="#000000" points="380.4386,-122 377.4386,-126 356.4386,-126 353.4386,-122 281.5614,-122 281.5614,-86 380.4386,-86 380.4386,-122"/>
<text text-anchor="middle" x="331" y="-99.8" font-family="Times,serif" font-size="14.00" fill="#000000">ConfigModule</text>
</g>
<!-- ConfigModule&#45;&gt;PwaModule -->
<g id="edge3" class="edge">
<title>ConfigModule&#45;&gt;PwaModule</title>
<path fill="none" stroke="#000000" d="M380.4242,-104C387.3866,-104 392.23,-104 392.23,-104 392.23,-104 392.23,-140.8939 392.23,-140.8939"/>
<polygon fill="#000000" stroke="#000000" points="388.7301,-140.8938 392.23,-150.8939 395.7301,-140.8939 388.7301,-140.8938"/>
</g>
<!-- AddToHomeScreenService -->
<g id="node7" class="node">
<title>AddToHomeScreenService</title>
<ellipse fill="#fdb462" stroke="#000000" cx="141" cy="-104" rx="117.4374" ry="18"/>
<text text-anchor="middle" x="141" y="-99.8" font-family="Times,serif" font-size="14.00" fill="#000000">AddToHomeScreenService</text>
</g>
<!-- AddToHomeScreenService&#45;&gt;PwaModule -->
<g id="edge6" class="edge">
<title>AddToHomeScreenService&#45;&gt;PwaModule</title>
<path fill="none" stroke="#000000" d="M222.8548,-117.1537C222.8548,-136.1469 222.8548,-169 222.8548,-169 222.8548,-169 366.1365,-169 366.1365,-169"/>
<polygon fill="#000000" stroke="#000000" points="366.1365,-172.5001 376.1365,-169 366.1364,-165.5001 366.1365,-172.5001"/>
</g>
</g>
</svg>
