<?xml version="1.0" encoding="UTF-8" standalone="no"?>
<!DOCTYPE svg PUBLIC "-//W3C//DTD SVG 1.1//EN"
 "http://www.w3.org/Graphics/SVG/1.1/DTD/svg11.dtd">
<!-- Generated by graphviz version 2.47.3 (20210619.1520)
 -->
<!-- Title: dependencies Pages: 1 -->
<svg width="1110pt" height="247pt"
 viewBox="0.00 0.00 1110.00 246.80" xmlns="http://www.w3.org/2000/svg" xmlns:xlink="http://www.w3.org/1999/xlink">
<g id="graph0" class="graph" transform="scale(1 1) rotate(0) translate(4 242.8)">
<title>dependencies</title>
<polygon fill="white" stroke="transparent" points="-4,4 -4,-242.8 1106,-242.8 1106,4 -4,4"/>
<text text-anchor="middle" x="551" y="-8.2" font-family="sans-serif" font-size="14.00">dependencies</text>
<g id="clust1" class="cluster">
<title>cluster_UnitDetailsModule</title>
<polygon fill="none" stroke="black" stroke-dasharray="1,5" points="8,-32.8 8,-230.8 1094,-230.8 1094,-32.8 8,-32.8"/>
</g>
<g id="clust2" class="cluster">
<title>cluster_UnitDetailsModule_declarations</title>
<polygon fill="none" stroke="black" points="924,-40.8 924,-92.8 1086,-92.8 1086,-40.8 924,-40.8"/>
</g>
<g id="clust5" class="cluster">
<title>cluster_UnitDetailsModule_exports</title>
<polygon fill="none" stroke="black" points="475,-170.8 475,-222.8 641,-222.8 641,-170.8 475,-170.8"/>
</g>
<g id="clust4" class="cluster">
<title>cluster_UnitDetailsModule_imports</title>
<polygon fill="none" stroke="black" points="16,-40.8 16,-92.8 916,-92.8 916,-40.8 16,-40.8"/>
</g>
<!-- UnitDetailsComponent -->
<g id="node1" class="node">
<title>UnitDetailsComponent</title>
<polygon fill="#ffffb3" stroke="black" points="1077.87,-84.8 932.13,-84.8 932.13,-48.8 1077.87,-48.8 1077.87,-84.8"/>
<text text-anchor="middle" x="1005" y="-62.6" font-family="Times,serif" font-size="14.00">UnitDetailsComponent</text>
</g>
<!-- UnitDetailsModule -->
<g id="node2" class="node">
<title>UnitDetailsModule</title>
<polygon fill="#8dd3c7" stroke="black" points="620.09,-149.8 617.09,-153.8 596.09,-153.8 593.09,-149.8 495.91,-149.8 495.91,-113.8 620.09,-113.8 620.09,-149.8"/>
<text text-anchor="middle" x="558" y="-127.6" font-family="Times,serif" font-size="14.00">UnitDetailsModule</text>
</g>
<!-- UnitDetailsComponent&#45;&gt;UnitDetailsModule -->
<g id="edge1" class="edge">
<title>UnitDetailsComponent&#45;&gt;UnitDetailsModule</title>
<path fill="none" stroke="black" d="M1005,-85.09C1005,-107.01 1005,-140.8 1005,-140.8 1005,-140.8 630.15,-140.8 630.15,-140.8"/>
<polygon fill="black" stroke="black" points="630.15,-137.3 620.15,-140.8 630.15,-144.3 630.15,-137.3"/>
</g>
<!-- UnitDetailsComponent  -->
<g id="node10" class="node">
<title>UnitDetailsComponent </title>
<polygon fill="#fb8072" stroke="black" points="632.87,-214.8 483.13,-214.8 483.13,-178.8 632.87,-178.8 632.87,-214.8"/>
<text text-anchor="middle" x="558" y="-192.6" font-family="Times,serif" font-size="14.00">UnitDetailsComponent </text>
</g>
<!-- UnitDetailsModule&#45;&gt;UnitDetailsComponent  -->
<g id="edge9" class="edge">
<title>UnitDetailsModule&#45;&gt;UnitDetailsComponent </title>
<path fill="none" stroke="black" stroke-dasharray="5,2" d="M558,-149.91C558,-149.91 558,-168.79 558,-168.79"/>
<polygon fill="black" stroke="black" points="554.5,-168.79 558,-178.79 561.5,-168.79 554.5,-168.79"/>
</g>
<!-- CardModule -->
<g id="node3" class="node">
<title>CardModule</title>
<polygon fill="#8dd3c7" stroke="black" points="908.26,-84.8 905.26,-88.8 884.26,-88.8 881.26,-84.8 821.74,-84.8 821.74,-48.8 908.26,-48.8 908.26,-84.8"/>
<text text-anchor="middle" x="865" y="-62.6" font-family="Times,serif" font-size="14.00">CardModule</text>
</g>
<!-- CardModule&#45;&gt;UnitDetailsModule -->
<g id="edge2" class="edge">
<title>CardModule&#45;&gt;UnitDetailsModule</title>
<path fill="none" stroke="black" d="M865,-84.91C865,-104.14 865,-131.8 865,-131.8 865,-131.8 630.13,-131.8 630.13,-131.8"/>
<polygon fill="black" stroke="black" points="630.13,-128.3 620.13,-131.8 630.13,-135.3 630.13,-128.3"/>
</g>
<!-- DisableInfoModule -->
<g id="node4" class="node">
<title>DisableInfoModule</title>
<polygon fill="#8dd3c7" stroke="black" points="803.63,-84.8 800.63,-88.8 779.63,-88.8 776.63,-84.8 678.37,-84.8 678.37,-48.8 803.63,-48.8 803.63,-84.8"/>
<text text-anchor="middle" x="741" y="-62.6" font-family="Times,serif" font-size="14.00">DisableInfoModule</text>
</g>
<!-- DisableInfoModule&#45;&gt;UnitDetailsModule -->
<g id="edge3" class="edge">
<title>DisableInfoModule&#45;&gt;UnitDetailsModule</title>
<path fill="none" stroke="black" d="M741,-84.83C741,-101.2 741,-122.8 741,-122.8 741,-122.8 630.21,-122.8 630.21,-122.8"/>
<polygon fill="black" stroke="black" points="630.21,-119.3 620.21,-122.8 630.21,-126.3 630.21,-119.3"/>
</g>
<!-- I18nModule -->
<g id="node5" class="node">
<title>I18nModule</title>
<polygon fill="#8dd3c7" stroke="black" points="660.71,-84.8 657.71,-88.8 636.71,-88.8 633.71,-84.8 575.29,-84.8 575.29,-48.8 660.71,-48.8 660.71,-84.8"/>
<text text-anchor="middle" x="618" y="-62.6" font-family="Times,serif" font-size="14.00">I18nModule</text>
</g>
<!-- I18nModule&#45;&gt;UnitDetailsModule -->
<g id="edge4" class="edge">
<title>I18nModule&#45;&gt;UnitDetailsModule</title>
<path fill="none" stroke="black" d="M597.72,-84.91C597.72,-84.91 597.72,-103.79 597.72,-103.79"/>
<polygon fill="black" stroke="black" points="594.22,-103.79 597.72,-113.79 601.22,-103.79 594.22,-103.79"/>
</g>
<!-- ItemExistsModule -->
<g id="node6" class="node">
<title>ItemExistsModule</title>
<polygon fill="#8dd3c7" stroke="black" points="557.93,-84.8 554.93,-88.8 533.93,-88.8 530.93,-84.8 438.07,-84.8 438.07,-48.8 557.93,-48.8 557.93,-84.8"/>
<text text-anchor="middle" x="498" y="-62.6" font-family="Times,serif" font-size="14.00">ItemExistsModule</text>
</g>
<!-- ItemExistsModule&#45;&gt;UnitDetailsModule -->
<g id="edge5" class="edge">
<title>ItemExistsModule&#45;&gt;UnitDetailsModule</title>
<path fill="none" stroke="black" d="M526.83,-84.91C526.83,-84.91 526.83,-103.79 526.83,-103.79"/>
<polygon fill="black" stroke="black" points="523.33,-103.79 526.83,-113.79 530.33,-103.79 523.33,-103.79"/>
</g>
<!-- KeyboardFocusModule -->
<g id="node7" class="node">
<title>KeyboardFocusModule</title>
<polygon fill="#8dd3c7" stroke="black" points="420.19,-84.8 417.19,-88.8 396.19,-88.8 393.19,-84.8 271.81,-84.8 271.81,-48.8 420.19,-48.8 420.19,-84.8"/>
<text text-anchor="middle" x="346" y="-62.6" font-family="Times,serif" font-size="14.00">KeyboardFocusModule</text>
</g>
<!-- KeyboardFocusModule&#45;&gt;UnitDetailsModule -->
<g id="edge6" class="edge">
<title>KeyboardFocusModule&#45;&gt;UnitDetailsModule</title>
<path fill="none" stroke="black" d="M346,-84.83C346,-101.2 346,-122.8 346,-122.8 346,-122.8 485.83,-122.8 485.83,-122.8"/>
<polygon fill="black" stroke="black" points="485.83,-126.3 495.83,-122.8 485.83,-119.3 485.83,-126.3"/>
</g>
<!-- ToggleStatusModule -->
<g id="node8" class="node">
<title>ToggleStatusModule</title>
<polygon fill="#8dd3c7" stroke="black" points="253.93,-84.8 250.93,-88.8 229.93,-88.8 226.93,-84.8 120.07,-84.8 120.07,-48.8 253.93,-48.8 253.93,-84.8"/>
<text text-anchor="middle" x="187" y="-62.6" font-family="Times,serif" font-size="14.00">ToggleStatusModule</text>
</g>
<!-- ToggleStatusModule&#45;&gt;UnitDetailsModule -->
<g id="edge7" class="edge">
<title>ToggleStatusModule&#45;&gt;UnitDetailsModule</title>
<path fill="none" stroke="black" d="M187,-84.91C187,-104.14 187,-131.8 187,-131.8 187,-131.8 485.9,-131.8 485.9,-131.8"/>
<polygon fill="black" stroke="black" points="485.9,-135.3 495.9,-131.8 485.9,-128.3 485.9,-135.3"/>
</g>
<!-- UrlModule -->
<g id="node9" class="node">
<title>UrlModule</title>
<polygon fill="#8dd3c7" stroke="black" points="102.21,-84.8 99.21,-88.8 78.21,-88.8 75.21,-84.8 23.79,-84.8 23.79,-48.8 102.21,-48.8 102.21,-84.8"/>
<text text-anchor="middle" x="63" y="-62.6" font-family="Times,serif" font-size="14.00">UrlModule</text>
</g>
<!-- UrlModule&#45;&gt;UnitDetailsModule -->
<g id="edge8" class="edge">
<title>UrlModule&#45;&gt;UnitDetailsModule</title>
<path fill="none" stroke="black" d="M63,-85.09C63,-107.01 63,-140.8 63,-140.8 63,-140.8 485.81,-140.8 485.81,-140.8"/>
<polygon fill="black" stroke="black" points="485.81,-144.3 495.81,-140.8 485.81,-137.3 485.81,-144.3"/>
</g>
</g>
</svg>
