<?xml version="1.0" encoding="UTF-8" standalone="no"?>
<!DOCTYPE svg PUBLIC "-//W3C//DTD SVG 1.1//EN"
 "http://www.w3.org/Graphics/SVG/1.1/DTD/svg11.dtd">
<!-- Generated by graphviz version 2.47.3 (20210619.1520)
 -->
<!-- Title: dependencies Pages: 1 -->
<svg width="455pt" height="247pt"
 viewBox="0.00 0.00 455.00 246.80" xmlns="http://www.w3.org/2000/svg" xmlns:xlink="http://www.w3.org/1999/xlink">
<g id="graph0" class="graph" transform="scale(1 1) rotate(0) translate(4 242.8)">
<title>dependencies</title>
<polygon fill="white" stroke="transparent" points="-4,4 -4,-242.8 451,-242.8 451,4 -4,4"/>
<text text-anchor="middle" x="223.5" y="-8.2" font-family="sans-serif" font-size="14.00">dependencies</text>
<g id="clust1" class="cluster">
<title>cluster_ProductIntroModule</title>
<polygon fill="none" stroke="black" stroke-dasharray="1,5" points="8,-32.8 8,-230.8 439,-230.8 439,-32.8 8,-32.8"/>
</g>
<g id="clust5" class="cluster">
<title>cluster_ProductIntroModule_exports</title>
<polygon fill="none" stroke="black" points="118,-170.8 118,-222.8 290,-222.8 290,-170.8 118,-170.8"/>
</g>
<g id="clust2" class="cluster">
<title>cluster_ProductIntroModule_declarations</title>
<polygon fill="none" stroke="black" points="263,-40.8 263,-92.8 431,-92.8 431,-40.8 263,-40.8"/>
</g>
<g id="clust4" class="cluster">
<title>cluster_ProductIntroModule_imports</title>
<polygon fill="none" stroke="black" points="16,-40.8 16,-92.8 255,-92.8 255,-40.8 16,-40.8"/>
</g>
<!-- ProductIntroComponent -->
<g id="node1" class="node">
<title>ProductIntroComponent</title>
<polygon fill="#ffffb3" stroke="black" points="423.09,-84.8 270.91,-84.8 270.91,-48.8 423.09,-48.8 423.09,-84.8"/>
<text text-anchor="middle" x="347" y="-62.6" font-family="Times,serif" font-size="14.00">ProductIntroComponent</text>
</g>
<!-- ProductIntroModule -->
<g id="node2" class="node">
<title>ProductIntroModule</title>
<polygon fill="#8dd3c7" stroke="black" points="269.31,-149.8 266.31,-153.8 245.31,-153.8 242.31,-149.8 138.69,-149.8 138.69,-113.8 269.31,-113.8 269.31,-149.8"/>
<text text-anchor="middle" x="204" y="-127.6" font-family="Times,serif" font-size="14.00">ProductIntroModule</text>
</g>
<!-- ProductIntroComponent&#45;&gt;ProductIntroModule -->
<g id="edge1" class="edge">
<title>ProductIntroComponent&#45;&gt;ProductIntroModule</title>
<path fill="none" stroke="black" d="M276.38,-84.91C276.38,-104.14 276.38,-131.8 276.38,-131.8 276.38,-131.8 275.65,-131.8 275.65,-131.8"/>
<polygon fill="black" stroke="black" points="279.17,-128.3 269.17,-131.8 279.17,-135.3 279.17,-128.3"/>
</g>
<!-- ProductIntroComponent  -->
<g id="node5" class="node">
<title>ProductIntroComponent </title>
<polygon fill="#fb8072" stroke="black" points="281.59,-214.8 126.41,-214.8 126.41,-178.8 281.59,-178.8 281.59,-214.8"/>
<text text-anchor="middle" x="204" y="-192.6" font-family="Times,serif" font-size="14.00">ProductIntroComponent </text>
</g>
<!-- ProductIntroModule&#45;&gt;ProductIntroComponent  -->
<g id="edge4" class="edge">
<title>ProductIntroModule&#45;&gt;ProductIntroComponent </title>
<path fill="none" stroke="black" stroke-dasharray="5,2" d="M204,-149.91C204,-149.91 204,-168.79 204,-168.79"/>
<polygon fill="black" stroke="black" points="200.5,-168.79 204,-178.79 207.5,-168.79 200.5,-168.79"/>
</g>
<!-- I18nModule -->
<g id="node3" class="node">
<title>I18nModule</title>
<polygon fill="#8dd3c7" stroke="black" points="246.71,-84.8 243.71,-88.8 222.71,-88.8 219.71,-84.8 161.29,-84.8 161.29,-48.8 246.71,-48.8 246.71,-84.8"/>
<text text-anchor="middle" x="204" y="-62.6" font-family="Times,serif" font-size="14.00">I18nModule</text>
</g>
<!-- I18nModule&#45;&gt;ProductIntroModule -->
<g id="edge2" class="edge">
<title>I18nModule&#45;&gt;ProductIntroModule</title>
<path fill="none" stroke="black" d="M204,-84.91C204,-84.91 204,-103.79 204,-103.79"/>
<polygon fill="black" stroke="black" points="200.5,-103.79 204,-113.79 207.5,-103.79 200.5,-103.79"/>
</g>
<!-- StarRatingModule -->
<g id="node4" class="node">
<title>StarRatingModule</title>
<polygon fill="#8dd3c7" stroke="black" points="143.93,-84.8 140.93,-88.8 119.93,-88.8 116.93,-84.8 24.07,-84.8 24.07,-48.8 143.93,-48.8 143.93,-84.8"/>
<text text-anchor="middle" x="84" y="-62.6" font-family="Times,serif" font-size="14.00">StarRatingModule</text>
</g>
<!-- StarRatingModule&#45;&gt;ProductIntroModule -->
<g id="edge3" class="edge">
<title>StarRatingModule&#45;&gt;ProductIntroModule</title>
<path fill="none" stroke="black" d="M132.52,-84.91C132.52,-104.14 132.52,-131.8 132.52,-131.8 132.52,-131.8 133.13,-131.8 133.13,-131.8"/>
<polygon fill="black" stroke="black" points="128.62,-135.3 138.62,-131.8 128.62,-128.3 128.62,-135.3"/>
</g>
</g>
</svg>
