<?xml version="1.0" encoding="UTF-8" standalone="no"?>
<!DOCTYPE svg PUBLIC "-//W3C//DTD SVG 1.1//EN"
 "http://www.w3.org/Graphics/SVG/1.1/DTD/svg11.dtd">
<!-- Generated by graphviz version 2.40.1 (20161225.0304)
 -->
<!-- Title: dependencies Pages: 1 -->
<svg width="504pt" height="284pt"
 viewBox="0.00 0.00 504.00 284.00" xmlns="http://www.w3.org/2000/svg" xmlns:xlink="http://www.w3.org/1999/xlink">
<g id="graph0" class="graph" transform="scale(1 1) rotate(0) translate(4 280)">
<title>dependencies</title>
<polygon fill="#ffffff" stroke="transparent" points="-4,4 -4,-280 500,-280 500,4 -4,4"/>
<text text-anchor="start" x="227.0091" y="-42.4" font-family="sans-serif" font-weight="bold" font-size="14.00" fill="#000000">Legend</text>
<polygon fill="#ffffb3" stroke="transparent" points="14,-10 14,-30 34,-30 34,-10 14,-10"/>
<text text-anchor="start" x="37.629" y="-15.4" font-family="sans-serif" font-size="14.00" fill="#000000"> &#160;Declarations</text>
<polygon fill="#8dd3c7" stroke="transparent" points="127,-10 127,-30 147,-30 147,-10 127,-10"/>
<text text-anchor="start" x="150.7251" y="-15.4" font-family="sans-serif" font-size="14.00" fill="#000000"> &#160;Module</text>
<polygon fill="#80b1d3" stroke="transparent" points="213,-10 213,-30 233,-30 233,-10 213,-10"/>
<text text-anchor="start" x="236.7812" y="-15.4" font-family="sans-serif" font-size="14.00" fill="#000000"> &#160;Bootstrap</text>
<polygon fill="#fdb462" stroke="transparent" points="310,-10 310,-30 330,-30 330,-10 310,-10"/>
<text text-anchor="start" x="333.6732" y="-15.4" font-family="sans-serif" font-size="14.00" fill="#000000"> &#160;Providers</text>
<polygon fill="#fb8072" stroke="transparent" points="406,-10 406,-30 426,-30 426,-10 406,-10"/>
<text text-anchor="start" x="429.7258" y="-15.4" font-family="sans-serif" font-size="14.00" fill="#000000"> &#160;Exports</text>
<g id="clust1" class="cluster">
<title>cluster_CategoryNavigationModule</title>
<polygon fill="none" stroke="#000000" stroke-dasharray="1,5" points="62,-70 62,-268 434,-268 434,-70 62,-70"/>
</g>
<g id="clust2" class="cluster">
<title>cluster_CategoryNavigationModule_declarations</title>
<polygon fill="none" stroke="#000000" points="216,-78 216,-130 426,-130 426,-78 216,-78"/>
</g>
<g id="clust4" class="cluster">
<title>cluster_CategoryNavigationModule_imports</title>
<polygon fill="none" stroke="#000000" points="70,-78 70,-130 208,-130 208,-78 70,-78"/>
</g>
<g id="clust5" class="cluster">
<title>cluster_CategoryNavigationModule_exports</title>
<polygon fill="none" stroke="#000000" points="141,-208 141,-260 355,-260 355,-208 141,-208"/>
</g>
<!-- CategoryNavigationComponent -->
<g id="node1" class="node">
<title>CategoryNavigationComponent</title>
<polygon fill="#ffffb3" stroke="#000000" points="418.3571,-122 223.6429,-122 223.6429,-86 418.3571,-86 418.3571,-122"/>
<text text-anchor="middle" x="321" y="-99.8" font-family="Times,serif" font-size="14.00" fill="#000000">CategoryNavigationComponent</text>
</g>
<!-- CategoryNavigationModule -->
<g id="node2" class="node">
<title>CategoryNavigationModule</title>
<polygon fill="#8dd3c7" stroke="#000000" points="334.5744,-187 331.5744,-191 310.5744,-191 307.5744,-187 161.4256,-187 161.4256,-151 334.5744,-151 334.5744,-187"/>
<text text-anchor="middle" x="248" y="-164.8" font-family="Times,serif" font-size="14.00" fill="#000000">CategoryNavigationModule</text>
</g>
<!-- CategoryNavigationComponent&#45;&gt;CategoryNavigationModule -->
<g id="edge1" class="edge">
<title>CategoryNavigationComponent&#45;&gt;CategoryNavigationModule</title>
<path fill="none" stroke="#000000" d="M279.0544,-122.1061C279.0544,-122.1061 279.0544,-140.991 279.0544,-140.991"/>
<polygon fill="#000000" stroke="#000000" points="275.5544,-140.9909 279.0544,-150.991 282.5544,-140.991 275.5544,-140.9909"/>
</g>
<!-- CategoryNavigationComponent  -->
<g id="node4" class="node">
<title>CategoryNavigationComponent </title>
<polygon fill="#fb8072" stroke="#000000" points="347.3573,-252 148.6427,-252 148.6427,-216 347.3573,-216 347.3573,-252"/>
<text text-anchor="middle" x="248" y="-229.8" font-family="Times,serif" font-size="14.00" fill="#000000">CategoryNavigationComponent </text>
</g>
<!-- CategoryNavigationModule&#45;&gt;CategoryNavigationComponent  -->
<g id="edge3" class="edge">
<title>CategoryNavigationModule&#45;&gt;CategoryNavigationComponent </title>
<path fill="none" stroke="#000000" stroke-dasharray="5,2" d="M248,-187.1061C248,-187.1061 248,-205.991 248,-205.991"/>
<polygon fill="#000000" stroke="#000000" points="244.5001,-205.9909 248,-215.991 251.5001,-205.991 244.5001,-205.9909"/>
</g>
<!-- NavigationModule -->
<g id="node3" class="node">
<title>NavigationModule</title>
<polygon fill="#8dd3c7" stroke="#000000" points="199.7576,-122 196.7576,-126 175.7576,-126 172.7576,-122 78.2424,-122 78.2424,-86 199.7576,-86 199.7576,-122"/>
<text text-anchor="middle" x="139" y="-99.8" font-family="Times,serif" font-size="14.00" fill="#000000">NavigationModule</text>
</g>
<!-- NavigationModule&#45;&gt;CategoryNavigationModule -->
<g id="edge2" class="edge">
<title>NavigationModule&#45;&gt;CategoryNavigationModule</title>
<path fill="none" stroke="#000000" d="M180.6708,-122.1061C180.6708,-122.1061 180.6708,-140.991 180.6708,-140.991"/>
<polygon fill="#000000" stroke="#000000" points="177.1708,-140.9909 180.6708,-150.991 184.1708,-140.991 177.1708,-140.9909"/>
</g>
</g>
</svg>
