<?xml version="1.0" encoding="UTF-8" standalone="no"?>
<!DOCTYPE svg PUBLIC "-//W3C//DTD SVG 1.1//EN"
 "http://www.w3.org/Graphics/SVG/1.1/DTD/svg11.dtd">
<!-- Generated by graphviz version 2.47.0 (20210316.0004)
 -->
<!-- Title: dependencies Pages: 1 -->
<svg width="504pt" height="284pt"
 viewBox="0.00 0.00 504.00 284.00" xmlns="http://www.w3.org/2000/svg" xmlns:xlink="http://www.w3.org/1999/xlink">
<g id="graph0" class="graph" transform="scale(1 1) rotate(0) translate(4 280)">
<title>dependencies</title>
<polygon fill="white" stroke="transparent" points="-4,4 -4,-280 500,-280 500,4 -4,4"/>
<text text-anchor="start" x="227.01" y="-42.4" font-family="sans-serif" font-weight="bold" font-size="14.00">Legend</text>
<polygon fill="#ffffb3" stroke="transparent" points="14,-10 14,-30 34,-30 34,-10 14,-10"/>
<text text-anchor="start" x="37.63" y="-15.4" font-family="sans-serif" font-size="14.00"> &#160;Declarations</text>
<polygon fill="#8dd3c7" stroke="transparent" points="127,-10 127,-30 147,-30 147,-10 127,-10"/>
<text text-anchor="start" x="150.73" y="-15.4" font-family="sans-serif" font-size="14.00"> &#160;Module</text>
<polygon fill="#80b1d3" stroke="transparent" points="213,-10 213,-30 233,-30 233,-10 213,-10"/>
<text text-anchor="start" x="236.78" y="-15.4" font-family="sans-serif" font-size="14.00"> &#160;Bootstrap</text>
<polygon fill="#fdb462" stroke="transparent" points="310,-10 310,-30 330,-30 330,-10 310,-10"/>
<text text-anchor="start" x="333.67" y="-15.4" font-family="sans-serif" font-size="14.00"> &#160;Providers</text>
<polygon fill="#fb8072" stroke="transparent" points="406,-10 406,-30 426,-30 426,-10 406,-10"/>
<text text-anchor="start" x="429.73" y="-15.4" font-family="sans-serif" font-size="14.00"> &#160;Exports</text>
<g id="clust1" class="cluster">
<title>cluster_PageComponentModule</title>
<polygon fill="none" stroke="black" stroke-dasharray="1,5" points="31,-70 31,-268 465,-268 465,-70 31,-70"/>
</g>
<g id="clust2" class="cluster">
<title>cluster_PageComponentModule_declarations</title>
<polygon fill="none" stroke="black" points="43,-78 43,-130 454,-130 454,-78 43,-78"/>
</g>
<g id="clust6" class="cluster">
<title>cluster_PageComponentModule_exports</title>
<polygon fill="none" stroke="black" points="39,-208 39,-260 457,-260 457,-208 39,-208"/>
</g>
<!-- ComponentWrapperDirective -->
<g id="node1" class="node">
<title>ComponentWrapperDirective</title>
<polygon fill="#ffffb3" stroke="black" points="446.38,-122 263.62,-122 263.62,-86 446.38,-86 446.38,-122"/>
<text text-anchor="middle" x="355" y="-99.8" font-family="Times,serif" font-size="14.00">ComponentWrapperDirective</text>
</g>
<!-- PageComponentModule -->
<g id="node3" class="node">
<title>PageComponentModule</title>
<polygon fill="#8dd3c7" stroke="black" points="225.09,-187 222.09,-191 201.09,-191 198.09,-187 72.91,-187 72.91,-151 225.09,-151 225.09,-187"/>
<text text-anchor="middle" x="149" y="-164.8" font-family="Times,serif" font-size="14.00">PageComponentModule</text>
</g>
<!-- ComponentWrapperDirective&#45;&gt;PageComponentModule -->
<g id="edge1" class="edge">
<title>ComponentWrapperDirective&#45;&gt;PageComponentModule</title>
<path fill="none" stroke="black" d="M385.4,-122.02C385.4,-139.37 385.4,-163 385.4,-163 385.4,-163 235.1,-163 235.1,-163"/>
<polygon fill="black" stroke="black" points="235.1,-159.5 225.1,-163 235.1,-166.5 235.1,-159.5"/>
</g>
<!-- InnerComponentsHostDirective -->
<g id="node2" class="node">
<title>InnerComponentsHostDirective</title>
<polygon fill="#ffffb3" stroke="black" points="245.34,-122 50.66,-122 50.66,-86 245.34,-86 245.34,-122"/>
<text text-anchor="middle" x="148" y="-99.8" font-family="Times,serif" font-size="14.00">InnerComponentsHostDirective</text>
</g>
<!-- InnerComponentsHostDirective&#45;&gt;PageComponentModule -->
<g id="edge2" class="edge">
<title>InnerComponentsHostDirective&#45;&gt;PageComponentModule</title>
<path fill="none" stroke="black" d="M149,-122.11C149,-122.11 149,-140.99 149,-140.99"/>
<polygon fill="black" stroke="black" points="145.5,-140.99 149,-150.99 152.5,-140.99 145.5,-140.99"/>
</g>
<!-- ComponentWrapperDirective  -->
<g id="node4" class="node">
<title>ComponentWrapperDirective </title>
<polygon fill="#fb8072" stroke="black" points="448.88,-252 263.12,-252 263.12,-216 448.88,-216 448.88,-252"/>
<text text-anchor="middle" x="356" y="-229.8" font-family="Times,serif" font-size="14.00">ComponentWrapperDirective </text>
</g>
<!-- PageComponentModule&#45;&gt;ComponentWrapperDirective  -->
<g id="edge3" class="edge">
<title>PageComponentModule&#45;&gt;ComponentWrapperDirective </title>
<path fill="none" stroke="black" stroke-dasharray="5,2" d="M225.26,-175C272.65,-175 324.6,-175 324.6,-175 324.6,-175 324.6,-205.98 324.6,-205.98"/>
<polygon fill="black" stroke="black" points="321.1,-205.98 324.6,-215.98 328.1,-205.98 321.1,-205.98"/>
</g>
<!-- InnerComponentsHostDirective  -->
<g id="node5" class="node">
<title>InnerComponentsHostDirective </title>
<polygon fill="#fb8072" stroke="black" points="245.34,-252 46.66,-252 46.66,-216 245.34,-216 245.34,-252"/>
<text text-anchor="middle" x="146" y="-229.8" font-family="Times,serif" font-size="14.00">InnerComponentsHostDirective </text>
</g>
<!-- PageComponentModule&#45;&gt;InnerComponentsHostDirective  -->
<g id="edge4" class="edge">
<title>PageComponentModule&#45;&gt;InnerComponentsHostDirective </title>
<path fill="none" stroke="black" stroke-dasharray="5,2" d="M149,-187.11C149,-187.11 149,-205.99 149,-205.99"/>
<polygon fill="black" stroke="black" points="145.5,-205.99 149,-215.99 152.5,-205.99 145.5,-205.99"/>
</g>
</g>
</svg>
