<?xml version="1.0" encoding="UTF-8" standalone="no"?>
<!DOCTYPE svg PUBLIC "-//W3C//DTD SVG 1.1//EN"
 "http://www.w3.org/Graphics/SVG/1.1/DTD/svg11.dtd">
<!-- Generated by graphviz version 2.47.3 (20210619.1520)
 -->
<!-- Title: dependencies Pages: 1 -->
<svg width="832pt" height="247pt"
 viewBox="0.00 0.00 832.00 246.80" xmlns="http://www.w3.org/2000/svg" xmlns:xlink="http://www.w3.org/1999/xlink">
<g id="graph0" class="graph" transform="scale(1 1) rotate(0) translate(4 242.8)">
<title>dependencies</title>
<polygon fill="white" stroke="transparent" points="-4,4 -4,-242.8 828,-242.8 828,4 -4,4"/>
<text text-anchor="middle" x="412" y="-8.2" font-family="sans-serif" font-size="14.00">dependencies</text>
<g id="clust1" class="cluster">
<title>cluster_ConfiguratorAttributeMultiSelectionImageModule</title>
<polygon fill="none" stroke="black" stroke-dasharray="1,5" points="8,-32.8 8,-230.8 816,-230.8 816,-32.8 8,-32.8"/>
</g>
<g id="clust4" class="cluster">
<title>cluster_ConfiguratorAttributeMultiSelectionImageModule_imports</title>
<polygon fill="none" stroke="black" points="362,-40.8 362,-92.8 808,-92.8 808,-40.8 362,-40.8"/>
</g>
<g id="clust2" class="cluster">
<title>cluster_ConfiguratorAttributeMultiSelectionImageModule_declarations</title>
<polygon fill="none" stroke="black" points="16,-40.8 16,-92.8 354,-92.8 354,-40.8 16,-40.8"/>
</g>
<g id="clust5" class="cluster">
<title>cluster_ConfiguratorAttributeMultiSelectionImageModule_exports</title>
<polygon fill="none" stroke="black" points="340,-170.8 340,-222.8 682,-222.8 682,-170.8 340,-170.8"/>
</g>
<!-- ConfiguratorAttributeMultiSelectionImageComponent -->
<g id="node1" class="node">
<title>ConfiguratorAttributeMultiSelectionImageComponent</title>
<polygon fill="#ffffb3" stroke="black" points="346.39,-84.8 23.61,-84.8 23.61,-48.8 346.39,-48.8 346.39,-84.8"/>
<text text-anchor="middle" x="185" y="-62.6" font-family="Times,serif" font-size="14.00">ConfiguratorAttributeMultiSelectionImageComponent</text>
</g>
<!-- ConfiguratorAttributeMultiSelectionImageModule -->
<g id="node2" class="node">
<title>ConfiguratorAttributeMultiSelectionImageModule</title>
<polygon fill="#8dd3c7" stroke="black" points="661.1,-149.8 658.1,-153.8 637.1,-153.8 634.1,-149.8 360.9,-149.8 360.9,-113.8 661.1,-113.8 661.1,-149.8"/>
<text text-anchor="middle" x="511" y="-127.6" font-family="Times,serif" font-size="14.00">ConfiguratorAttributeMultiSelectionImageModule</text>
</g>
<!-- ConfiguratorAttributeMultiSelectionImageComponent&#45;&gt;ConfiguratorAttributeMultiSelectionImageModule -->
<g id="edge1" class="edge">
<title>ConfiguratorAttributeMultiSelectionImageComponent&#45;&gt;ConfiguratorAttributeMultiSelectionImageModule</title>
<path fill="none" stroke="black" d="M346.35,-66.8C358.01,-66.8 365.3,-66.8 365.3,-66.8 365.3,-66.8 365.3,-103.69 365.3,-103.69"/>
<polygon fill="black" stroke="black" points="361.8,-103.69 365.3,-113.69 368.8,-103.69 361.8,-103.69"/>
</g>
<!-- ConfiguratorAttributeMultiSelectionImageComponent  -->
<g id="node6" class="node">
<title>ConfiguratorAttributeMultiSelectionImageComponent </title>
<polygon fill="#fb8072" stroke="black" points="673.89,-214.8 348.11,-214.8 348.11,-178.8 673.89,-178.8 673.89,-214.8"/>
<text text-anchor="middle" x="511" y="-192.6" font-family="Times,serif" font-size="14.00">ConfiguratorAttributeMultiSelectionImageComponent </text>
</g>
<!-- ConfiguratorAttributeMultiSelectionImageModule&#45;&gt;ConfiguratorAttributeMultiSelectionImageComponent  -->
<g id="edge5" class="edge">
<title>ConfiguratorAttributeMultiSelectionImageModule&#45;&gt;ConfiguratorAttributeMultiSelectionImageComponent </title>
<path fill="none" stroke="black" stroke-dasharray="5,2" d="M511,-149.91C511,-149.91 511,-168.79 511,-168.79"/>
<polygon fill="black" stroke="black" points="507.5,-168.79 511,-178.79 514.5,-168.79 507.5,-168.79"/>
</g>
<!-- ConfiguratorPriceModule -->
<g id="node3" class="node">
<title>ConfiguratorPriceModule</title>
<polygon fill="#8dd3c7" stroke="black" points="800.13,-84.8 797.13,-88.8 776.13,-88.8 773.13,-84.8 639.87,-84.8 639.87,-48.8 800.13,-48.8 800.13,-84.8"/>
<text text-anchor="middle" x="720" y="-62.6" font-family="Times,serif" font-size="14.00">ConfiguratorPriceModule</text>
</g>
<!-- ConfiguratorPriceModule&#45;&gt;ConfiguratorAttributeMultiSelectionImageModule -->
<g id="edge2" class="edge">
<title>ConfiguratorPriceModule&#45;&gt;ConfiguratorAttributeMultiSelectionImageModule</title>
<path fill="none" stroke="black" d="M650.49,-84.91C650.49,-84.91 650.49,-103.79 650.49,-103.79"/>
<polygon fill="black" stroke="black" points="646.99,-103.79 650.49,-113.79 653.99,-103.79 646.99,-103.79"/>
</g>
<!-- I18nModule -->
<g id="node4" class="node">
<title>I18nModule</title>
<polygon fill="#8dd3c7" stroke="black" points="621.71,-84.8 618.71,-88.8 597.71,-88.8 594.71,-84.8 536.29,-84.8 536.29,-48.8 621.71,-48.8 621.71,-84.8"/>
<text text-anchor="middle" x="579" y="-62.6" font-family="Times,serif" font-size="14.00">I18nModule</text>
</g>
<!-- I18nModule&#45;&gt;ConfiguratorAttributeMultiSelectionImageModule -->
<g id="edge3" class="edge">
<title>I18nModule&#45;&gt;ConfiguratorAttributeMultiSelectionImageModule</title>
<path fill="none" stroke="black" d="M579,-84.91C579,-84.91 579,-103.79 579,-103.79"/>
<polygon fill="black" stroke="black" points="575.5,-103.79 579,-113.79 582.5,-103.79 575.5,-103.79"/>
</g>
<!-- KeyboardFocusModule -->
<g id="node5" class="node">
<title>KeyboardFocusModule</title>
<polygon fill="#8dd3c7" stroke="black" points="518.19,-84.8 515.19,-88.8 494.19,-88.8 491.19,-84.8 369.81,-84.8 369.81,-48.8 518.19,-48.8 518.19,-84.8"/>
<text text-anchor="middle" x="444" y="-62.6" font-family="Times,serif" font-size="14.00">KeyboardFocusModule</text>
</g>
<!-- KeyboardFocusModule&#45;&gt;ConfiguratorAttributeMultiSelectionImageModule -->
<g id="edge4" class="edge">
<title>KeyboardFocusModule&#45;&gt;ConfiguratorAttributeMultiSelectionImageModule</title>
<path fill="none" stroke="black" d="M444,-84.91C444,-84.91 444,-103.79 444,-103.79"/>
<polygon fill="black" stroke="black" points="440.5,-103.79 444,-113.79 447.5,-103.79 440.5,-103.79"/>
</g>
</g>
</svg>
