<?xml version="1.0" encoding="UTF-8" standalone="no"?>
<!DOCTYPE svg PUBLIC "-//W3C//DTD SVG 1.1//EN"
 "http://www.w3.org/Graphics/SVG/1.1/DTD/svg11.dtd">
<!-- Generated by graphviz version 2.47.0 (20210316.0004)
 -->
<!-- Title: dependencies Pages: 1 -->
<svg width="654pt" height="284pt"
 viewBox="0.00 0.00 654.00 284.00" xmlns="http://www.w3.org/2000/svg" xmlns:xlink="http://www.w3.org/1999/xlink">
<g id="graph0" class="graph" transform="scale(1 1) rotate(0) translate(4 280)">
<title>dependencies</title>
<polygon fill="white" stroke="transparent" points="-4,4 -4,-280 650,-280 650,4 -4,4"/>
<text text-anchor="start" x="302.01" y="-42.4" font-family="sans-serif" font-weight="bold" font-size="14.00">Legend</text>
<polygon fill="#ffffb3" stroke="transparent" points="89,-10 89,-30 109,-30 109,-10 89,-10"/>
<text text-anchor="start" x="112.63" y="-15.4" font-family="sans-serif" font-size="14.00"> &#160;Declarations</text>
<polygon fill="#8dd3c7" stroke="transparent" points="202,-10 202,-30 222,-30 222,-10 202,-10"/>
<text text-anchor="start" x="225.73" y="-15.4" font-family="sans-serif" font-size="14.00"> &#160;Module</text>
<polygon fill="#80b1d3" stroke="transparent" points="288,-10 288,-30 308,-30 308,-10 288,-10"/>
<text text-anchor="start" x="311.78" y="-15.4" font-family="sans-serif" font-size="14.00"> &#160;Bootstrap</text>
<polygon fill="#fdb462" stroke="transparent" points="385,-10 385,-30 405,-30 405,-10 385,-10"/>
<text text-anchor="start" x="408.67" y="-15.4" font-family="sans-serif" font-size="14.00"> &#160;Providers</text>
<polygon fill="#fb8072" stroke="transparent" points="481,-10 481,-30 501,-30 501,-10 481,-10"/>
<text text-anchor="start" x="504.73" y="-15.4" font-family="sans-serif" font-size="14.00"> &#160;Exports</text>
<g id="clust1" class="cluster">
<title>cluster_ConfiguratorAttributeMultiSelectionImageModule</title>
<polygon fill="none" stroke="black" stroke-dasharray="1,5" points="8,-70 8,-268 638,-268 638,-70 8,-70"/>
</g>
<g id="clust2" class="cluster">
<title>cluster_ConfiguratorAttributeMultiSelectionImageModule_declarations</title>
<polygon fill="none" stroke="black" points="292,-78 292,-130 630,-130 630,-78 292,-78"/>
</g>
<g id="clust4" class="cluster">
<title>cluster_ConfiguratorAttributeMultiSelectionImageModule_imports</title>
<polygon fill="none" stroke="black" points="16,-78 16,-130 284,-130 284,-78 16,-78"/>
</g>
<g id="clust5" class="cluster">
<title>cluster_ConfiguratorAttributeMultiSelectionImageModule_exports</title>
<polygon fill="none" stroke="black" points="62,-208 62,-260 404,-260 404,-208 62,-208"/>
</g>
<!-- ConfiguratorAttributeMultiSelectionImageComponent -->
<g id="node1" class="node">
<title>ConfiguratorAttributeMultiSelectionImageComponent</title>
<polygon fill="#ffffb3" stroke="black" points="622.39,-122 299.61,-122 299.61,-86 622.39,-86 622.39,-122"/>
<text text-anchor="middle" x="461" y="-99.8" font-family="Times,serif" font-size="14.00">ConfiguratorAttributeMultiSelectionImageComponent</text>
</g>
<!-- ConfiguratorAttributeMultiSelectionImageModule -->
<g id="node2" class="node">
<title>ConfiguratorAttributeMultiSelectionImageModule</title>
<polygon fill="#8dd3c7" stroke="black" points="383.1,-187 380.1,-191 359.1,-191 356.1,-187 82.9,-187 82.9,-151 383.1,-151 383.1,-187"/>
<text text-anchor="middle" x="233" y="-164.8" font-family="Times,serif" font-size="14.00">ConfiguratorAttributeMultiSelectionImageModule</text>
</g>
<!-- ConfiguratorAttributeMultiSelectionImageComponent&#45;&gt;ConfiguratorAttributeMultiSelectionImageModule -->
<g id="edge1" class="edge">
<title>ConfiguratorAttributeMultiSelectionImageComponent&#45;&gt;ConfiguratorAttributeMultiSelectionImageModule</title>
<path fill="none" stroke="black" d="M341.55,-122.11C341.55,-122.11 341.55,-140.99 341.55,-140.99"/>
<polygon fill="black" stroke="black" points="338.05,-140.99 341.55,-150.99 345.05,-140.99 338.05,-140.99"/>
</g>
<!-- ConfiguratorAttributeMultiSelectionImageComponent  -->
<g id="node5" class="node">
<title>ConfiguratorAttributeMultiSelectionImageComponent </title>
<polygon fill="#fb8072" stroke="black" points="395.89,-252 70.11,-252 70.11,-216 395.89,-216 395.89,-252"/>
<text text-anchor="middle" x="233" y="-229.8" font-family="Times,serif" font-size="14.00">ConfiguratorAttributeMultiSelectionImageComponent </text>
</g>
<!-- ConfiguratorAttributeMultiSelectionImageModule&#45;&gt;ConfiguratorAttributeMultiSelectionImageComponent  -->
<g id="edge4" class="edge">
<title>ConfiguratorAttributeMultiSelectionImageModule&#45;&gt;ConfiguratorAttributeMultiSelectionImageComponent </title>
<path fill="none" stroke="black" stroke-dasharray="5,2" d="M233,-187.11C233,-187.11 233,-205.99 233,-205.99"/>
<polygon fill="black" stroke="black" points="229.5,-205.99 233,-215.99 236.5,-205.99 229.5,-205.99"/>
</g>
<!-- I18nModule -->
<g id="node3" class="node">
<title>I18nModule</title>
<polygon fill="#8dd3c7" stroke="black" points="275.71,-122 272.71,-126 251.71,-126 248.71,-122 190.29,-122 190.29,-86 275.71,-86 275.71,-122"/>
<text text-anchor="middle" x="233" y="-99.8" font-family="Times,serif" font-size="14.00">I18nModule</text>
</g>
<!-- I18nModule&#45;&gt;ConfiguratorAttributeMultiSelectionImageModule -->
<g id="edge2" class="edge">
<title>I18nModule&#45;&gt;ConfiguratorAttributeMultiSelectionImageModule</title>
<path fill="none" stroke="black" d="M233,-122.11C233,-122.11 233,-140.99 233,-140.99"/>
<polygon fill="black" stroke="black" points="229.5,-140.99 233,-150.99 236.5,-140.99 229.5,-140.99"/>
</g>
<!-- KeyboardFocusModule -->
<g id="node4" class="node">
<title>KeyboardFocusModule</title>
<polygon fill="#8dd3c7" stroke="black" points="172.19,-122 169.19,-126 148.19,-126 145.19,-122 23.81,-122 23.81,-86 172.19,-86 172.19,-122"/>
<text text-anchor="middle" x="98" y="-99.8" font-family="Times,serif" font-size="14.00">KeyboardFocusModule</text>
</g>
<!-- KeyboardFocusModule&#45;&gt;ConfiguratorAttributeMultiSelectionImageModule -->
<g id="edge3" class="edge">
<title>KeyboardFocusModule&#45;&gt;ConfiguratorAttributeMultiSelectionImageModule</title>
<path fill="none" stroke="black" d="M127.4,-122.11C127.4,-122.11 127.4,-140.99 127.4,-140.99"/>
<polygon fill="black" stroke="black" points="123.9,-140.99 127.4,-150.99 130.9,-140.99 123.9,-140.99"/>
</g>
</g>
</svg>
