<?xml version="1.0" encoding="UTF-8" standalone="no"?>
<!DOCTYPE svg PUBLIC "-//W3C//DTD SVG 1.1//EN"
 "http://www.w3.org/Graphics/SVG/1.1/DTD/svg11.dtd">
<!-- Generated by graphviz version 2.47.3 (20210619.1520)
 -->
<!-- Title: dependencies Pages: 1 -->
<svg width="386pt" height="174pt"
 viewBox="0.00 0.00 386.00 173.80" xmlns="http://www.w3.org/2000/svg" xmlns:xlink="http://www.w3.org/1999/xlink">
<g id="graph0" class="graph" transform="scale(1 1) rotate(0) translate(4 169.8)">
<title>dependencies</title>
<polygon fill="white" stroke="transparent" points="-4,4 -4,-169.8 382,-169.8 382,4 -4,4"/>
<text text-anchor="middle" x="189" y="-8.2" font-family="sans-serif" font-size="14.00">dependencies</text>
<g id="clust1" class="cluster">
<title>cluster_CheckoutOccModule</title>
<polygon fill="none" stroke="black" stroke-dasharray="1,5" points="8,-32.8 8,-157.8 370,-157.8 370,-32.8 8,-32.8"/>
</g>
<g id="clust6" class="cluster">
<title>cluster_CheckoutOccModule_providers</title>
<polygon fill="none" stroke="black" points="16,-40.8 16,-92.8 362,-92.8 362,-40.8 16,-40.8"/>
</g>
<!-- OccReplenishmentOrderFormSerializer -->
<g id="node1" class="node">
<title>OccReplenishmentOrderFormSerializer</title>
<ellipse fill="#fdb462" stroke="black" cx="189" cy="-66.8" rx="164.9" ry="18"/>
<text text-anchor="middle" x="189" y="-62.6" font-family="Times,serif" font-size="14.00">OccReplenishmentOrderFormSerializer</text>
</g>
<!-- CheckoutOccModule -->
<g id="node2" class="node">
<title>CheckoutOccModule</title>
<polygon fill="#8dd3c7" stroke="black" points="256.74,-149.8 253.74,-153.8 232.74,-153.8 229.74,-149.8 121.26,-149.8 121.26,-113.8 256.74,-113.8 256.74,-149.8"/>
<text text-anchor="middle" x="189" y="-127.6" font-family="Times,serif" font-size="14.00">CheckoutOccModule</text>
</g>
<!-- OccReplenishmentOrderFormSerializer&#45;&gt;CheckoutOccModule -->
<g id="edge1" class="edge">
<title>OccReplenishmentOrderFormSerializer&#45;&gt;CheckoutOccModule</title>
<path fill="none" stroke="black" d="M189,-84.91C189,-84.91 189,-103.79 189,-103.79"/>
<polygon fill="black" stroke="black" points="185.5,-103.79 189,-113.79 192.5,-103.79 185.5,-103.79"/>
</g>
</g>
</svg>
