<?xml version="1.0" encoding="UTF-8" standalone="no"?>
<!DOCTYPE svg PUBLIC "-//W3C//DTD SVG 1.1//EN"
 "http://www.w3.org/Graphics/SVG/1.1/DTD/svg11.dtd">
<!-- Generated by graphviz version 2.47.3 (20210619.1520)
 -->
<!-- Title: dependencies Pages: 1 -->
<svg width="3107pt" height="174pt"
 viewBox="0.00 0.00 3107.00 173.80" xmlns="http://www.w3.org/2000/svg" xmlns:xlink="http://www.w3.org/1999/xlink">
<g id="graph0" class="graph" transform="scale(1 1) rotate(0) translate(4 169.8)">
<title>dependencies</title>
<polygon fill="white" stroke="transparent" points="-4,4 -4,-169.8 3103,-169.8 3103,4 -4,4"/>
<text text-anchor="middle" x="1549.5" y="-8.2" font-family="sans-serif" font-size="14.00">dependencies</text>
<g id="clust1" class="cluster">
<title>cluster_CheckoutComponentsModule</title>
<polygon fill="none" stroke="black" stroke-dasharray="1,5" points="8,-32.8 8,-157.8 3091,-157.8 3091,-32.8 8,-32.8"/>
</g>
<g id="clust3" class="cluster">
<title>cluster_CheckoutComponentsModule_imports</title>
<polygon fill="none" stroke="black" points="16,-40.8 16,-92.8 3083,-92.8 3083,-40.8 16,-40.8"/>
</g>
<!-- CheckoutLoginModule -->
<g id="node1" class="node">
<title>CheckoutLoginModule</title>
<polygon fill="#8dd3c7" stroke="black" points="3075.15,-84.8 3072.15,-88.8 3051.15,-88.8 3048.15,-84.8 2928.85,-84.8 2928.85,-48.8 3075.15,-48.8 3075.15,-84.8"/>
<text text-anchor="middle" x="3002" y="-62.6" font-family="Times,serif" font-size="14.00">CheckoutLoginModule</text>
</g>
<!-- CheckoutComponentsModule -->
<g id="node17" class="node">
<title>CheckoutComponentsModule</title>
<polygon fill="#8dd3c7" stroke="black" points="1601.98,-149.8 1598.98,-153.8 1577.98,-153.8 1574.98,-149.8 1418.02,-149.8 1418.02,-113.8 1601.98,-113.8 1601.98,-149.8"/>
<text text-anchor="middle" x="1510" y="-127.6" font-family="Times,serif" font-size="14.00">CheckoutComponentsModule</text>
</g>
<!-- CheckoutLoginModule&#45;&gt;CheckoutComponentsModule -->
<g id="edge1" class="edge">
<title>CheckoutLoginModule&#45;&gt;CheckoutComponentsModule</title>
<path fill="none" stroke="black" d="M3002,-85.12C3002,-108.46 3002,-145.8 3002,-145.8 3002,-145.8 1612.21,-145.8 1612.21,-145.8"/>
<polygon fill="black" stroke="black" points="1612.21,-142.3 1602.21,-145.8 1612.21,-149.3 1612.21,-142.3"/>
</g>
<!-- CheckoutOrchestratorModule -->
<g id="node2" class="node">
<title>CheckoutOrchestratorModule</title>
<polygon fill="#8dd3c7" stroke="black" points="2910.66,-84.8 2907.66,-88.8 2886.66,-88.8 2883.66,-84.8 2727.34,-84.8 2727.34,-48.8 2910.66,-48.8 2910.66,-84.8"/>
<text text-anchor="middle" x="2819" y="-62.6" font-family="Times,serif" font-size="14.00">CheckoutOrchestratorModule</text>
</g>
<!-- CheckoutOrchestratorModule&#45;&gt;CheckoutComponentsModule -->
<g id="edge2" class="edge">
<title>CheckoutOrchestratorModule&#45;&gt;CheckoutComponentsModule</title>
<path fill="none" stroke="black" d="M2819,-85.09C2819,-107.01 2819,-140.8 2819,-140.8 2819,-140.8 1612.05,-140.8 1612.05,-140.8"/>
<polygon fill="black" stroke="black" points="1612.05,-137.3 1602.05,-140.8 1612.05,-144.3 1612.05,-137.3"/>
</g>
<!-- CheckoutOrderSummaryModule -->
<g id="node3" class="node">
<title>CheckoutOrderSummaryModule</title>
<polygon fill="#8dd3c7" stroke="black" points="2709.29,-84.8 2706.29,-88.8 2685.29,-88.8 2682.29,-84.8 2508.71,-84.8 2508.71,-48.8 2709.29,-48.8 2709.29,-84.8"/>
<text text-anchor="middle" x="2609" y="-62.6" font-family="Times,serif" font-size="14.00">CheckoutOrderSummaryModule</text>
</g>
<!-- CheckoutOrderSummaryModule&#45;&gt;CheckoutComponentsModule -->
<g id="edge3" class="edge">
<title>CheckoutOrderSummaryModule&#45;&gt;CheckoutComponentsModule</title>
<path fill="none" stroke="black" d="M2609,-84.83C2609,-105.57 2609,-136.8 2609,-136.8 2609,-136.8 1612.28,-136.8 1612.28,-136.8"/>
<polygon fill="black" stroke="black" points="1612.28,-133.3 1602.28,-136.8 1612.28,-140.3 1612.28,-133.3"/>
</g>
<!-- CheckoutProgressMobileBottomModule -->
<g id="node4" class="node">
<title>CheckoutProgressMobileBottomModule</title>
<polygon fill="#8dd3c7" stroke="black" points="2490.86,-84.8 2487.86,-88.8 2466.86,-88.8 2463.86,-84.8 2247.14,-84.8 2247.14,-48.8 2490.86,-48.8 2490.86,-84.8"/>
<text text-anchor="middle" x="2369" y="-62.6" font-family="Times,serif" font-size="14.00">CheckoutProgressMobileBottomModule</text>
</g>
<!-- CheckoutProgressMobileBottomModule&#45;&gt;CheckoutComponentsModule -->
<g id="edge4" class="edge">
<title>CheckoutProgressMobileBottomModule&#45;&gt;CheckoutComponentsModule</title>
<path fill="none" stroke="black" d="M2369,-84.91C2369,-104.14 2369,-131.8 2369,-131.8 2369,-131.8 1612.34,-131.8 1612.34,-131.8"/>
<polygon fill="black" stroke="black" points="1612.34,-128.3 1602.34,-131.8 1612.34,-135.3 1612.34,-128.3"/>
</g>
<!-- CheckoutProgressMobileTopModule -->
<g id="node5" class="node">
<title>CheckoutProgressMobileTopModule</title>
<polygon fill="#8dd3c7" stroke="black" points="2229.41,-84.8 2226.41,-88.8 2205.41,-88.8 2202.41,-84.8 2004.59,-84.8 2004.59,-48.8 2229.41,-48.8 2229.41,-84.8"/>
<text text-anchor="middle" x="2117" y="-62.6" font-family="Times,serif" font-size="14.00">CheckoutProgressMobileTopModule</text>
</g>
<!-- CheckoutProgressMobileTopModule&#45;&gt;CheckoutComponentsModule -->
<g id="edge5" class="edge">
<title>CheckoutProgressMobileTopModule&#45;&gt;CheckoutComponentsModule</title>
<path fill="none" stroke="black" d="M2117,-85.1C2117,-103.07 2117,-127.8 2117,-127.8 2117,-127.8 1612.19,-127.8 1612.19,-127.8"/>
<polygon fill="black" stroke="black" points="1612.19,-124.3 1602.19,-127.8 1612.19,-131.3 1612.19,-124.3"/>
</g>
<!-- CheckoutProgressModule -->
<g id="node6" class="node">
<title>CheckoutProgressModule</title>
<polygon fill="#8dd3c7" stroke="black" points="1986.91,-84.8 1983.91,-88.8 1962.91,-88.8 1959.91,-84.8 1825.09,-84.8 1825.09,-48.8 1986.91,-48.8 1986.91,-84.8"/>
<text text-anchor="middle" x="1906" y="-62.6" font-family="Times,serif" font-size="14.00">CheckoutProgressModule</text>
</g>
<!-- CheckoutProgressModule&#45;&gt;CheckoutComponentsModule -->
<g id="edge6" class="edge">
<title>CheckoutProgressModule&#45;&gt;CheckoutComponentsModule</title>
<path fill="none" stroke="black" d="M1906,-84.83C1906,-101.2 1906,-122.8 1906,-122.8 1906,-122.8 1612.34,-122.8 1612.34,-122.8"/>
<polygon fill="black" stroke="black" points="1612.34,-119.3 1602.34,-122.8 1612.34,-126.3 1612.34,-119.3"/>
</g>
<!-- CostCenterModule -->
<g id="node7" class="node">
<title>CostCenterModule</title>
<polygon fill="#8dd3c7" stroke="black" points="1807.04,-84.8 1804.04,-88.8 1783.04,-88.8 1780.04,-84.8 1684.96,-84.8 1684.96,-48.8 1807.04,-48.8 1807.04,-84.8"/>
<text text-anchor="middle" x="1746" y="-62.6" font-family="Times,serif" font-size="14.00">CostCenterModule</text>
</g>
<!-- CostCenterModule&#45;&gt;CheckoutComponentsModule -->
<g id="edge7" class="edge">
<title>CostCenterModule&#45;&gt;CheckoutComponentsModule</title>
<path fill="none" stroke="black" d="M1746,-84.99C1746,-99.98 1746,-118.8 1746,-118.8 1746,-118.8 1612.26,-118.8 1612.26,-118.8"/>
<polygon fill="black" stroke="black" points="1612.26,-115.3 1602.26,-118.8 1612.26,-122.3 1612.26,-115.3"/>
</g>
<!-- DeliveryModeModule -->
<g id="node8" class="node">
<title>DeliveryModeModule</title>
<polygon fill="#8dd3c7" stroke="black" points="1666.69,-84.8 1663.69,-88.8 1642.69,-88.8 1639.69,-84.8 1525.31,-84.8 1525.31,-48.8 1666.69,-48.8 1666.69,-84.8"/>
<text text-anchor="middle" x="1596" y="-62.6" font-family="Times,serif" font-size="14.00">DeliveryModeModule</text>
</g>
<!-- DeliveryModeModule&#45;&gt;CheckoutComponentsModule -->
<g id="edge8" class="edge">
<title>DeliveryModeModule&#45;&gt;CheckoutComponentsModule</title>
<path fill="none" stroke="black" d="M1563.7,-84.91C1563.7,-84.91 1563.7,-103.79 1563.7,-103.79"/>
<polygon fill="black" stroke="black" points="1560.2,-103.79 1563.7,-113.79 1567.2,-103.79 1560.2,-103.79"/>
</g>
<!-- OrderConfirmationModule -->
<g id="node9" class="node">
<title>OrderConfirmationModule</title>
<polygon fill="#8dd3c7" stroke="black" points="1507.63,-84.8 1504.63,-88.8 1483.63,-88.8 1480.63,-84.8 1340.37,-84.8 1340.37,-48.8 1507.63,-48.8 1507.63,-84.8"/>
<text text-anchor="middle" x="1424" y="-62.6" font-family="Times,serif" font-size="14.00">OrderConfirmationModule</text>
</g>
<!-- OrderConfirmationModule&#45;&gt;CheckoutComponentsModule -->
<g id="edge9" class="edge">
<title>OrderConfirmationModule&#45;&gt;CheckoutComponentsModule</title>
<path fill="none" stroke="black" d="M1462.91,-84.91C1462.91,-84.91 1462.91,-103.79 1462.91,-103.79"/>
<polygon fill="black" stroke="black" points="1459.41,-103.79 1462.91,-113.79 1466.41,-103.79 1459.41,-103.79"/>
</g>
<!-- PaymentMethodModule -->
<g id="node10" class="node">
<title>PaymentMethodModule</title>
<polygon fill="#8dd3c7" stroke="black" points="1322.09,-84.8 1319.09,-88.8 1298.09,-88.8 1295.09,-84.8 1169.91,-84.8 1169.91,-48.8 1322.09,-48.8 1322.09,-84.8"/>
<text text-anchor="middle" x="1246" y="-62.6" font-family="Times,serif" font-size="14.00">PaymentMethodModule</text>
</g>
<!-- PaymentMethodModule&#45;&gt;CheckoutComponentsModule -->
<g id="edge10" class="edge">
<title>PaymentMethodModule&#45;&gt;CheckoutComponentsModule</title>
<path fill="none" stroke="black" d="M1246,-84.99C1246,-99.98 1246,-118.8 1246,-118.8 1246,-118.8 1407.67,-118.8 1407.67,-118.8"/>
<polygon fill="black" stroke="black" points="1407.67,-122.3 1417.67,-118.8 1407.67,-115.3 1407.67,-122.3"/>
</g>
<!-- PaymentTypeModule -->
<g id="node11" class="node">
<title>PaymentTypeModule</title>
<polygon fill="#8dd3c7" stroke="black" points="1151.81,-84.8 1148.81,-88.8 1127.81,-88.8 1124.81,-84.8 1014.19,-84.8 1014.19,-48.8 1151.81,-48.8 1151.81,-84.8"/>
<text text-anchor="middle" x="1083" y="-62.6" font-family="Times,serif" font-size="14.00">PaymentTypeModule</text>
</g>
<!-- PaymentTypeModule&#45;&gt;CheckoutComponentsModule -->
<g id="edge11" class="edge">
<title>PaymentTypeModule&#45;&gt;CheckoutComponentsModule</title>
<path fill="none" stroke="black" d="M1083,-84.83C1083,-101.2 1083,-122.8 1083,-122.8 1083,-122.8 1407.87,-122.8 1407.87,-122.8"/>
<polygon fill="black" stroke="black" points="1407.87,-126.3 1417.87,-122.8 1407.87,-119.3 1407.87,-126.3"/>
</g>
<!-- PlaceOrderModule -->
<g id="node12" class="node">
<title>PlaceOrderModule</title>
<polygon fill="#8dd3c7" stroke="black" points="996.01,-84.8 993.01,-88.8 972.01,-88.8 969.01,-84.8 873.99,-84.8 873.99,-48.8 996.01,-48.8 996.01,-84.8"/>
<text text-anchor="middle" x="935" y="-62.6" font-family="Times,serif" font-size="14.00">PlaceOrderModule</text>
</g>
<!-- PlaceOrderModule&#45;&gt;CheckoutComponentsModule -->
<g id="edge12" class="edge">
<title>PlaceOrderModule&#45;&gt;CheckoutComponentsModule</title>
<path fill="none" stroke="black" d="M935,-85.1C935,-103.07 935,-127.8 935,-127.8 935,-127.8 1407.94,-127.8 1407.94,-127.8"/>
<polygon fill="black" stroke="black" points="1407.94,-131.3 1417.94,-127.8 1407.94,-124.3 1407.94,-131.3"/>
</g>
<!-- ReplenishmentOrderConfirmationModule -->
<g id="node13" class="node">
<title>ReplenishmentOrderConfirmationModule</title>
<polygon fill="#8dd3c7" stroke="black" points="855.61,-84.8 852.61,-88.8 831.61,-88.8 828.61,-84.8 604.39,-84.8 604.39,-48.8 855.61,-48.8 855.61,-84.8"/>
<text text-anchor="middle" x="730" y="-62.6" font-family="Times,serif" font-size="14.00">ReplenishmentOrderConfirmationModule</text>
</g>
<!-- ReplenishmentOrderConfirmationModule&#45;&gt;CheckoutComponentsModule -->
<g id="edge13" class="edge">
<title>ReplenishmentOrderConfirmationModule&#45;&gt;CheckoutComponentsModule</title>
<path fill="none" stroke="black" d="M730,-84.91C730,-104.14 730,-131.8 730,-131.8 730,-131.8 1407.85,-131.8 1407.85,-131.8"/>
<polygon fill="black" stroke="black" points="1407.85,-135.3 1417.85,-131.8 1407.85,-128.3 1407.85,-135.3"/>
</g>
<!-- ReviewSubmitModule -->
<g id="node14" class="node">
<title>ReviewSubmitModule</title>
<polygon fill="#8dd3c7" stroke="black" points="586.27,-84.8 583.27,-88.8 562.27,-88.8 559.27,-84.8 443.73,-84.8 443.73,-48.8 586.27,-48.8 586.27,-84.8"/>
<text text-anchor="middle" x="515" y="-62.6" font-family="Times,serif" font-size="14.00">ReviewSubmitModule</text>
</g>
<!-- ReviewSubmitModule&#45;&gt;CheckoutComponentsModule -->
<g id="edge14" class="edge">
<title>ReviewSubmitModule&#45;&gt;CheckoutComponentsModule</title>
<path fill="none" stroke="black" d="M515,-84.83C515,-105.57 515,-136.8 515,-136.8 515,-136.8 1407.73,-136.8 1407.73,-136.8"/>
<polygon fill="black" stroke="black" points="1407.73,-140.3 1417.73,-136.8 1407.73,-133.3 1407.73,-140.3"/>
</g>
<!-- ScheduleReplenishmentOrderModule -->
<g id="node15" class="node">
<title>ScheduleReplenishmentOrderModule</title>
<polygon fill="#8dd3c7" stroke="black" points="426,-84.8 423,-88.8 402,-88.8 399,-84.8 198,-84.8 198,-48.8 426,-48.8 426,-84.8"/>
<text text-anchor="middle" x="312" y="-62.6" font-family="Times,serif" font-size="14.00">ScheduleReplenishmentOrderModule</text>
</g>
<!-- ScheduleReplenishmentOrderModule&#45;&gt;CheckoutComponentsModule -->
<g id="edge15" class="edge">
<title>ScheduleReplenishmentOrderModule&#45;&gt;CheckoutComponentsModule</title>
<path fill="none" stroke="black" d="M312,-85.09C312,-107.01 312,-140.8 312,-140.8 312,-140.8 1407.98,-140.8 1407.98,-140.8"/>
<polygon fill="black" stroke="black" points="1407.98,-144.3 1417.98,-140.8 1407.98,-137.3 1407.98,-144.3"/>
</g>
<!-- ShippingAddressModule -->
<g id="node16" class="node">
<title>ShippingAddressModule</title>
<polygon fill="#8dd3c7" stroke="black" points="179.98,-84.8 176.98,-88.8 155.98,-88.8 152.98,-84.8 24.02,-84.8 24.02,-48.8 179.98,-48.8 179.98,-84.8"/>
<text text-anchor="middle" x="102" y="-62.6" font-family="Times,serif" font-size="14.00">ShippingAddressModule</text>
</g>
<!-- ShippingAddressModule&#45;&gt;CheckoutComponentsModule -->
<g id="edge16" class="edge">
<title>ShippingAddressModule&#45;&gt;CheckoutComponentsModule</title>
<path fill="none" stroke="black" d="M102,-85.12C102,-108.46 102,-145.8 102,-145.8 102,-145.8 1407.89,-145.8 1407.89,-145.8"/>
<polygon fill="black" stroke="black" points="1407.89,-149.3 1417.89,-145.8 1407.89,-142.3 1407.89,-149.3"/>
</g>
</g>
</svg>
