<?xml version="1.0" encoding="UTF-8" standalone="no"?>
<!DOCTYPE svg PUBLIC "-//W3C//DTD SVG 1.1//EN"
 "http://www.w3.org/Graphics/SVG/1.1/DTD/svg11.dtd">
<!-- Generated by graphviz version 2.40.1 (20161225.0304)
 -->
<!-- Title: dependencies Pages: 1 -->
<svg width="697pt" height="211pt"
 viewBox="0.00 0.00 697.00 211.00" xmlns="http://www.w3.org/2000/svg" xmlns:xlink="http://www.w3.org/1999/xlink">
<g id="graph0" class="graph" transform="scale(1 1) rotate(0) translate(4 207)">
<title>dependencies</title>
<polygon fill="#ffffff" stroke="transparent" points="-4,4 -4,-207 693,-207 693,4 -4,4"/>
<text text-anchor="start" x="323.5091" y="-42.4" font-family="sans-serif" font-weight="bold" font-size="14.00" fill="#000000">Legend</text>
<polygon fill="#ffffb3" stroke="transparent" points="110.5,-10 110.5,-30 130.5,-30 130.5,-10 110.5,-10"/>
<text text-anchor="start" x="134.129" y="-15.4" font-family="sans-serif" font-size="14.00" fill="#000000"> &#160;Declarations</text>
<polygon fill="#8dd3c7" stroke="transparent" points="223.5,-10 223.5,-30 243.5,-30 243.5,-10 223.5,-10"/>
<text text-anchor="start" x="247.2251" y="-15.4" font-family="sans-serif" font-size="14.00" fill="#000000"> &#160;Module</text>
<polygon fill="#80b1d3" stroke="transparent" points="309.5,-10 309.5,-30 329.5,-30 329.5,-10 309.5,-10"/>
<text text-anchor="start" x="333.2812" y="-15.4" font-family="sans-serif" font-size="14.00" fill="#000000"> &#160;Bootstrap</text>
<polygon fill="#fdb462" stroke="transparent" points="406.5,-10 406.5,-30 426.5,-30 426.5,-10 406.5,-10"/>
<text text-anchor="start" x="430.1732" y="-15.4" font-family="sans-serif" font-size="14.00" fill="#000000"> &#160;Providers</text>
<polygon fill="#fb8072" stroke="transparent" points="502.5,-10 502.5,-30 522.5,-30 522.5,-10 502.5,-10"/>
<text text-anchor="start" x="526.2258" y="-15.4" font-family="sans-serif" font-size="14.00" fill="#000000"> &#160;Exports</text>
<g id="clust1" class="cluster">
<title>cluster_UnitAddressDetailsModule</title>
<polygon fill="none" stroke="#000000" stroke-dasharray="1,5" points="8,-70 8,-195 681,-195 681,-70 8,-70"/>
</g>
<g id="clust2" class="cluster">
<title>cluster_UnitAddressDetailsModule_declarations</title>
<polygon fill="none" stroke="#000000" points="465,-78 465,-130 673,-130 673,-78 465,-78"/>
</g>
<g id="clust4" class="cluster">
<title>cluster_UnitAddressDetailsModule_imports</title>
<polygon fill="none" stroke="#000000" points="16,-78 16,-130 457,-130 457,-78 16,-78"/>
</g>
<!-- UnitAddressDetailsComponent -->
<g id="node1" class="node">
<title>UnitAddressDetailsComponent</title>
<polygon fill="#ffffb3" stroke="#000000" points="664.7436,-122 473.2564,-122 473.2564,-86 664.7436,-86 664.7436,-122"/>
<text text-anchor="middle" x="569" y="-99.8" font-family="Times,serif" font-size="14.00" fill="#000000">UnitAddressDetailsComponent</text>
</g>
<!-- UnitAddressDetailsModule -->
<g id="node2" class="node">
<title>UnitAddressDetailsModule</title>
<polygon fill="#8dd3c7" stroke="#000000" points="368.9608,-187 365.9608,-191 344.9608,-191 341.9608,-187 199.0392,-187 199.0392,-151 368.9608,-151 368.9608,-187"/>
<text text-anchor="middle" x="284" y="-164.8" font-family="Times,serif" font-size="14.00" fill="#000000">UnitAddressDetailsModule</text>
</g>
<!-- UnitAddressDetailsComponent&#45;&gt;UnitAddressDetailsModule -->
<g id="edge1" class="edge">
<title>UnitAddressDetailsComponent&#45;&gt;UnitAddressDetailsModule</title>
<path fill="none" stroke="#000000" d="M569,-122.1061C569,-141.3391 569,-169 569,-169 569,-169 379.1234,-169 379.1234,-169"/>
<polygon fill="#000000" stroke="#000000" points="379.1234,-165.5001 369.1234,-169 379.1233,-172.5001 379.1234,-165.5001"/>
</g>
<!-- CardModule -->
<g id="node3" class="node">
<title>CardModule</title>
<polygon fill="#8dd3c7" stroke="#000000" points="449.2619,-122 446.2619,-126 425.2619,-126 422.2619,-122 362.7381,-122 362.7381,-86 449.2619,-86 449.2619,-122"/>
<text text-anchor="middle" x="406" y="-99.8" font-family="Times,serif" font-size="14.00" fill="#000000">CardModule</text>
</g>
<!-- CardModule&#45;&gt;UnitAddressDetailsModule -->
<g id="edge2" class="edge">
<title>CardModule&#45;&gt;UnitAddressDetailsModule</title>
<path fill="none" stroke="#000000" d="M362.3731,-104C357.2174,-104 353.7441,-104 353.7441,-104 353.7441,-104 353.7441,-140.8939 353.7441,-140.8939"/>
<polygon fill="#000000" stroke="#000000" points="350.2441,-140.8938 353.7441,-150.8939 357.2441,-140.8939 350.2441,-140.8938"/>
</g>
<!-- DeleteItemModule -->
<g id="node4" class="node">
<title>DeleteItemModule</title>
<polygon fill="#8dd3c7" stroke="#000000" points="344.7381,-122 341.7381,-126 320.7381,-126 317.7381,-122 223.2619,-122 223.2619,-86 344.7381,-86 344.7381,-122"/>
<text text-anchor="middle" x="284" y="-99.8" font-family="Times,serif" font-size="14.00" fill="#000000">DeleteItemModule</text>
</g>
<!-- DeleteItemModule&#45;&gt;UnitAddressDetailsModule -->
<g id="edge3" class="edge">
<title>DeleteItemModule&#45;&gt;UnitAddressDetailsModule</title>
<path fill="none" stroke="#000000" d="M284,-122.1061C284,-122.1061 284,-140.991 284,-140.991"/>
<polygon fill="#000000" stroke="#000000" points="280.5001,-140.9909 284,-150.991 287.5001,-140.991 280.5001,-140.9909"/>
</g>
<!-- I18nModule -->
<g id="node5" class="node">
<title>I18nModule</title>
<polygon fill="#8dd3c7" stroke="#000000" points="205.7107,-122 202.7107,-126 181.7107,-126 178.7107,-122 120.2893,-122 120.2893,-86 205.7107,-86 205.7107,-122"/>
<text text-anchor="middle" x="163" y="-99.8" font-family="Times,serif" font-size="14.00" fill="#000000">I18nModule</text>
</g>
<!-- I18nModule&#45;&gt;UnitAddressDetailsModule -->
<g id="edge4" class="edge">
<title>I18nModule&#45;&gt;UnitAddressDetailsModule</title>
<path fill="none" stroke="#000000" d="M205.8857,-104C210.9538,-104 214.3682,-104 214.3682,-104 214.3682,-104 214.3682,-140.8939 214.3682,-140.8939"/>
<polygon fill="#000000" stroke="#000000" points="210.8682,-140.8938 214.3682,-150.8939 217.8682,-140.8939 210.8682,-140.8938"/>
</g>
<!-- UrlModule -->
<g id="node6" class="node">
<title>UrlModule</title>
<polygon fill="#8dd3c7" stroke="#000000" points="102.2079,-122 99.2079,-126 78.2079,-126 75.2079,-122 23.7921,-122 23.7921,-86 102.2079,-86 102.2079,-122"/>
<text text-anchor="middle" x="63" y="-99.8" font-family="Times,serif" font-size="14.00" fill="#000000">UrlModule</text>
</g>
<!-- UrlModule&#45;&gt;UnitAddressDetailsModule -->
<g id="edge5" class="edge">
<title>UrlModule&#45;&gt;UnitAddressDetailsModule</title>
<path fill="none" stroke="#000000" d="M63,-122.1061C63,-141.3391 63,-169 63,-169 63,-169 188.8718,-169 188.8718,-169"/>
<polygon fill="#000000" stroke="#000000" points="188.8718,-172.5001 198.8718,-169 188.8717,-165.5001 188.8718,-172.5001"/>
</g>
</g>
</svg>
