<?xml version="1.0" encoding="UTF-8" standalone="no"?>
<!DOCTYPE svg PUBLIC "-//W3C//DTD SVG 1.1//EN"
 "http://www.w3.org/Graphics/SVG/1.1/DTD/svg11.dtd">
<!-- Generated by graphviz version 2.40.1 (20161225.0304)
 -->
<!-- Title: dependencies Pages: 1 -->
<svg width="697pt" height="323pt"
 viewBox="0.00 0.00 697.00 322.59" xmlns="http://www.w3.org/2000/svg" xmlns:xlink="http://www.w3.org/1999/xlink">
<g id="graph0" class="graph" transform="scale(1 1) rotate(0) translate(4 318.5901)">
<title>dependencies</title>
<polygon fill="#ffffff" stroke="transparent" points="-4,4 -4,-318.5901 693,-318.5901 693,4 -4,4"/>
<text text-anchor="start" x="323.5091" y="-42.4" font-family="sans-serif" font-weight="bold" font-size="14.00" fill="#000000">Legend</text>
<polygon fill="#ffffb3" stroke="transparent" points="110.5,-10 110.5,-30 130.5,-30 130.5,-10 110.5,-10"/>
<text text-anchor="start" x="134.129" y="-15.4" font-family="sans-serif" font-size="14.00" fill="#000000"> &#160;Declarations</text>
<polygon fill="#8dd3c7" stroke="transparent" points="223.5,-10 223.5,-30 243.5,-30 243.5,-10 223.5,-10"/>
<text text-anchor="start" x="247.2251" y="-15.4" font-family="sans-serif" font-size="14.00" fill="#000000"> &#160;Module</text>
<polygon fill="#80b1d3" stroke="transparent" points="309.5,-10 309.5,-30 329.5,-30 329.5,-10 309.5,-10"/>
<text text-anchor="start" x="333.2812" y="-15.4" font-family="sans-serif" font-size="14.00" fill="#000000"> &#160;Bootstrap</text>
<polygon fill="#fdb462" stroke="transparent" points="406.5,-10 406.5,-30 426.5,-30 426.5,-10 406.5,-10"/>
<text text-anchor="start" x="430.1732" y="-15.4" font-family="sans-serif" font-size="14.00" fill="#000000"> &#160;Providers</text>
<polygon fill="#fb8072" stroke="transparent" points="502.5,-10 502.5,-30 522.5,-30 522.5,-10 502.5,-10"/>
<text text-anchor="start" x="526.2258" y="-15.4" font-family="sans-serif" font-size="14.00" fill="#000000"> &#160;Exports</text>
<g id="clust1" class="cluster">
<title>cluster_UnitAddressDetailsModule</title>
<polygon fill="none" stroke="#000000" stroke-dasharray="1,5" points="8,-70 8,-306.5901 681,-306.5901 681,-70 8,-70"/>
</g>
<g id="clust2" class="cluster">
<title>cluster_UnitAddressDetailsModule_declarations</title>
<polygon fill="none" stroke="#000000" points="465,-189.5901 465,-241.5901 673,-241.5901 673,-189.5901 465,-189.5901"/>
</g>
<g id="clust3" class="cluster">
<title>cluster_UnitAddressDetailsModule_UnitAddressDetailsComponent_providers</title>
<polygon fill="none" stroke="#000000" points="135,-78 135,-176.5901 673,-176.5901 673,-78 135,-78"/>
</g>
<g id="clust4" class="cluster">
<title>cluster_UnitAddressDetailsModule_imports</title>
<polygon fill="none" stroke="#000000" points="16,-189.5901 16,-241.5901 457,-241.5901 457,-189.5901 16,-189.5901"/>
</g>
<!-- UnitAddressDetailsComponent -->
<g id="node1" class="node">
<title>UnitAddressDetailsComponent</title>
<polygon fill="#ffffb3" stroke="#000000" points="664.7436,-233.5901 473.2564,-233.5901 473.2564,-197.5901 664.7436,-197.5901 664.7436,-233.5901"/>
<text text-anchor="middle" x="569" y="-211.3901" font-family="Times,serif" font-size="14.00" fill="#000000">UnitAddressDetailsComponent</text>
</g>
<!-- UnitAddressDetailsModule -->
<g id="node2" class="node">
<title>UnitAddressDetailsModule</title>
<polygon fill="#8dd3c7" stroke="#000000" points="368.9608,-298.5901 365.9608,-302.5901 344.9608,-302.5901 341.9608,-298.5901 199.0392,-298.5901 199.0392,-262.5901 368.9608,-262.5901 368.9608,-298.5901"/>
<text text-anchor="middle" x="284" y="-276.3901" font-family="Times,serif" font-size="14.00" fill="#000000">UnitAddressDetailsModule</text>
</g>
<!-- UnitAddressDetailsComponent&#45;&gt;UnitAddressDetailsModule -->
<g id="edge1" class="edge">
<title>UnitAddressDetailsComponent&#45;&gt;UnitAddressDetailsModule</title>
<path fill="none" stroke="#000000" d="M569,-233.6962C569,-252.9292 569,-280.5901 569,-280.5901 569,-280.5901 379.1234,-280.5901 379.1234,-280.5901"/>
<polygon fill="#000000" stroke="#000000" points="379.1234,-277.0902 369.1234,-280.5901 379.1233,-284.0902 379.1234,-277.0902"/>
</g>
<!-- {
 &#160;&#160;&#160;provide: ItemService, useExisting: UnitAddressItemService,
} -->
<g id="node3" class="node">
<title>{
 &#160;&#160;&#160;provide: ItemService, useExisting: UnitAddressItemService,
}</title>
<ellipse fill="#fdb462" stroke="#000000" cx="404" cy="-127.295" rx="261.4135" ry="41.0911"/>
<text text-anchor="middle" x="404" y="-139.895" font-family="Times,serif" font-size="14.00" fill="#000000">{</text>
<text text-anchor="middle" x="404" y="-123.095" font-family="Times,serif" font-size="14.00" fill="#000000"> &#160;&#160;&#160;provide: ItemService, useExisting: UnitAddressItemService,</text>
<text text-anchor="middle" x="404" y="-106.295" font-family="Times,serif" font-size="14.00" fill="#000000">}</text>
</g>
<!-- {
 &#160;&#160;&#160;provide: ItemService, useExisting: UnitAddressItemService,
}&#45;&gt;UnitAddressDetailsComponent -->
<g id="edge2" class="edge">
<title>{
 &#160;&#160;&#160;provide: ItemService, useExisting: UnitAddressItemService,
}&#45;&gt;UnitAddressDetailsComponent</title>
<path fill="none" stroke="#000000" d="M569,-159.4213C569,-159.4213 569,-187.4808 569,-187.4808"/>
<polygon fill="#000000" stroke="#000000" points="565.5001,-187.4808 569,-197.4808 572.5001,-187.4809 565.5001,-187.4808"/>
</g>
<!-- CardModule -->
<g id="node4" class="node">
<title>CardModule</title>
<polygon fill="#8dd3c7" stroke="#000000" points="449.2619,-233.5901 446.2619,-237.5901 425.2619,-237.5901 422.2619,-233.5901 362.7381,-233.5901 362.7381,-197.5901 449.2619,-197.5901 449.2619,-233.5901"/>
<text text-anchor="middle" x="406" y="-211.3901" font-family="Times,serif" font-size="14.00" fill="#000000">CardModule</text>
</g>
<!-- CardModule&#45;&gt;UnitAddressDetailsModule -->
<g id="edge3" class="edge">
<title>CardModule&#45;&gt;UnitAddressDetailsModule</title>
<path fill="none" stroke="#000000" d="M362.3731,-215.5901C357.2174,-215.5901 353.7441,-215.5901 353.7441,-215.5901 353.7441,-215.5901 353.7441,-252.4839 353.7441,-252.4839"/>
<polygon fill="#000000" stroke="#000000" points="350.2441,-252.4839 353.7441,-262.4839 357.2441,-252.484 350.2441,-252.4839"/>
</g>
<!-- DeleteItemModule -->
<g id="node5" class="node">
<title>DeleteItemModule</title>
<polygon fill="#8dd3c7" stroke="#000000" points="344.7381,-233.5901 341.7381,-237.5901 320.7381,-237.5901 317.7381,-233.5901 223.2619,-233.5901 223.2619,-197.5901 344.7381,-197.5901 344.7381,-233.5901"/>
<text text-anchor="middle" x="284" y="-211.3901" font-family="Times,serif" font-size="14.00" fill="#000000">DeleteItemModule</text>
</g>
<!-- DeleteItemModule&#45;&gt;UnitAddressDetailsModule -->
<g id="edge4" class="edge">
<title>DeleteItemModule&#45;&gt;UnitAddressDetailsModule</title>
<path fill="none" stroke="#000000" d="M284,-233.6962C284,-233.6962 284,-252.581 284,-252.581"/>
<polygon fill="#000000" stroke="#000000" points="280.5001,-252.581 284,-262.581 287.5001,-252.5811 280.5001,-252.581"/>
</g>
<!-- I18nModule -->
<g id="node6" class="node">
<title>I18nModule</title>
<polygon fill="#8dd3c7" stroke="#000000" points="205.7107,-233.5901 202.7107,-237.5901 181.7107,-237.5901 178.7107,-233.5901 120.2893,-233.5901 120.2893,-197.5901 205.7107,-197.5901 205.7107,-233.5901"/>
<text text-anchor="middle" x="163" y="-211.3901" font-family="Times,serif" font-size="14.00" fill="#000000">I18nModule</text>
</g>
<!-- I18nModule&#45;&gt;UnitAddressDetailsModule -->
<g id="edge5" class="edge">
<title>I18nModule&#45;&gt;UnitAddressDetailsModule</title>
<path fill="none" stroke="#000000" d="M205.8857,-215.5901C210.9538,-215.5901 214.3682,-215.5901 214.3682,-215.5901 214.3682,-215.5901 214.3682,-252.4839 214.3682,-252.4839"/>
<polygon fill="#000000" stroke="#000000" points="210.8682,-252.4839 214.3682,-262.4839 217.8682,-252.484 210.8682,-252.4839"/>
</g>
<!-- UrlModule -->
<g id="node7" class="node">
<title>UrlModule</title>
<polygon fill="#8dd3c7" stroke="#000000" points="102.2079,-233.5901 99.2079,-237.5901 78.2079,-237.5901 75.2079,-233.5901 23.7921,-233.5901 23.7921,-197.5901 102.2079,-197.5901 102.2079,-233.5901"/>
<text text-anchor="middle" x="63" y="-211.3901" font-family="Times,serif" font-size="14.00" fill="#000000">UrlModule</text>
</g>
<!-- UrlModule&#45;&gt;UnitAddressDetailsModule -->
<g id="edge6" class="edge">
<title>UrlModule&#45;&gt;UnitAddressDetailsModule</title>
<path fill="none" stroke="#000000" d="M63,-233.6962C63,-252.9292 63,-280.5901 63,-280.5901 63,-280.5901 188.8718,-280.5901 188.8718,-280.5901"/>
<polygon fill="#000000" stroke="#000000" points="188.8718,-284.0902 198.8718,-280.5901 188.8717,-277.0902 188.8718,-284.0902"/>
</g>
</g>
</svg>
