<?xml version="1.0" encoding="UTF-8" standalone="no"?>
<!DOCTYPE svg PUBLIC "-//W3C//DTD SVG 1.1//EN"
 "http://www.w3.org/Graphics/SVG/1.1/DTD/svg11.dtd">
<!-- Generated by graphviz version 2.47.3 (20210619.1520)
 -->
<!-- Title: dependencies Pages: 1 -->
<svg width="863pt" height="174pt"
 viewBox="0.00 0.00 863.00 173.80" xmlns="http://www.w3.org/2000/svg" xmlns:xlink="http://www.w3.org/1999/xlink">
<g id="graph0" class="graph" transform="scale(1 1) rotate(0) translate(4 169.8)">
<title>dependencies</title>
<polygon fill="white" stroke="transparent" points="-4,4 -4,-169.8 859,-169.8 859,4 -4,4"/>
<text text-anchor="middle" x="427.5" y="-8.2" font-family="sans-serif" font-size="14.00">dependencies</text>
<g id="clust1" class="cluster">
<title>cluster_UnitAddressDetailsModule</title>
<polygon fill="none" stroke="black" stroke-dasharray="1,5" points="8,-32.8 8,-157.8 847,-157.8 847,-32.8 8,-32.8"/>
</g>
<g id="clust4" class="cluster">
<title>cluster_UnitAddressDetailsModule_imports</title>
<polygon fill="none" stroke="black" points="232,-40.8 232,-92.8 839,-92.8 839,-40.8 232,-40.8"/>
</g>
<g id="clust2" class="cluster">
<title>cluster_UnitAddressDetailsModule_declarations</title>
<polygon fill="none" stroke="black" points="16,-40.8 16,-92.8 224,-92.8 224,-40.8 16,-40.8"/>
</g>
<!-- UnitAddressDetailsComponent -->
<g id="node1" class="node">
<title>UnitAddressDetailsComponent</title>
<polygon fill="#ffffb3" stroke="black" points="215.74,-84.8 24.26,-84.8 24.26,-48.8 215.74,-48.8 215.74,-84.8"/>
<text text-anchor="middle" x="120" y="-62.6" font-family="Times,serif" font-size="14.00">UnitAddressDetailsComponent</text>
</g>
<!-- UnitAddressDetailsModule -->
<g id="node2" class="node">
<title>UnitAddressDetailsModule</title>
<polygon fill="#8dd3c7" stroke="black" points="561.96,-149.8 558.96,-153.8 537.96,-153.8 534.96,-149.8 392.04,-149.8 392.04,-113.8 561.96,-113.8 561.96,-149.8"/>
<text text-anchor="middle" x="477" y="-127.6" font-family="Times,serif" font-size="14.00">UnitAddressDetailsModule</text>
</g>
<!-- UnitAddressDetailsComponent&#45;&gt;UnitAddressDetailsModule -->
<g id="edge1" class="edge">
<title>UnitAddressDetailsComponent&#45;&gt;UnitAddressDetailsModule</title>
<path fill="none" stroke="black" d="M120,-85.08C120,-106.12 120,-137.8 120,-137.8 120,-137.8 381.94,-137.8 381.94,-137.8"/>
<polygon fill="black" stroke="black" points="381.94,-141.3 391.94,-137.8 381.94,-134.3 381.94,-141.3"/>
</g>
<!-- CardModule -->
<g id="node3" class="node">
<title>CardModule</title>
<polygon fill="#8dd3c7" stroke="black" points="831.26,-84.8 828.26,-88.8 807.26,-88.8 804.26,-84.8 744.74,-84.8 744.74,-48.8 831.26,-48.8 831.26,-84.8"/>
<text text-anchor="middle" x="788" y="-62.6" font-family="Times,serif" font-size="14.00">CardModule</text>
</g>
<!-- CardModule&#45;&gt;UnitAddressDetailsModule -->
<g id="edge2" class="edge">
<title>CardModule&#45;&gt;UnitAddressDetailsModule</title>
<path fill="none" stroke="black" d="M788,-85.08C788,-106.12 788,-137.8 788,-137.8 788,-137.8 571.98,-137.8 571.98,-137.8"/>
<polygon fill="black" stroke="black" points="571.98,-134.3 561.98,-137.8 571.98,-141.3 571.98,-134.3"/>
</g>
<!-- DeleteItemModule -->
<g id="node4" class="node">
<title>DeleteItemModule</title>
<polygon fill="#8dd3c7" stroke="black" points="726.74,-84.8 723.74,-88.8 702.74,-88.8 699.74,-84.8 605.26,-84.8 605.26,-48.8 726.74,-48.8 726.74,-84.8"/>
<text text-anchor="middle" x="666" y="-62.6" font-family="Times,serif" font-size="14.00">DeleteItemModule</text>
</g>
<!-- DeleteItemModule&#45;&gt;UnitAddressDetailsModule -->
<g id="edge3" class="edge">
<title>DeleteItemModule&#45;&gt;UnitAddressDetailsModule</title>
<path fill="none" stroke="black" d="M666,-84.82C666,-102.17 666,-125.8 666,-125.8 666,-125.8 572.1,-125.8 572.1,-125.8"/>
<polygon fill="black" stroke="black" points="572.1,-122.3 562.1,-125.8 572.1,-129.3 572.1,-122.3"/>
</g>
<!-- I18nModule -->
<g id="node5" class="node">
<title>I18nModule</title>
<polygon fill="#8dd3c7" stroke="black" points="587.71,-84.8 584.71,-88.8 563.71,-88.8 560.71,-84.8 502.29,-84.8 502.29,-48.8 587.71,-48.8 587.71,-84.8"/>
<text text-anchor="middle" x="545" y="-62.6" font-family="Times,serif" font-size="14.00">I18nModule</text>
</g>
<!-- I18nModule&#45;&gt;UnitAddressDetailsModule -->
<g id="edge4" class="edge">
<title>I18nModule&#45;&gt;UnitAddressDetailsModule</title>
<path fill="none" stroke="black" d="M532.19,-84.91C532.19,-84.91 532.19,-103.79 532.19,-103.79"/>
<polygon fill="black" stroke="black" points="528.69,-103.79 532.19,-113.79 535.69,-103.79 528.69,-103.79"/>
</g>
<!-- KeyboardFocusModule -->
<g id="node6" class="node">
<title>KeyboardFocusModule</title>
<polygon fill="#8dd3c7" stroke="black" points="484.19,-84.8 481.19,-88.8 460.19,-88.8 457.19,-84.8 335.81,-84.8 335.81,-48.8 484.19,-48.8 484.19,-84.8"/>
<text text-anchor="middle" x="410" y="-62.6" font-family="Times,serif" font-size="14.00">KeyboardFocusModule</text>
</g>
<!-- KeyboardFocusModule&#45;&gt;UnitAddressDetailsModule -->
<g id="edge5" class="edge">
<title>KeyboardFocusModule&#45;&gt;UnitAddressDetailsModule</title>
<path fill="none" stroke="black" d="M438.06,-84.91C438.06,-84.91 438.06,-103.79 438.06,-103.79"/>
<polygon fill="black" stroke="black" points="434.56,-103.79 438.06,-113.79 441.56,-103.79 434.56,-103.79"/>
</g>
<!-- UrlModule -->
<g id="node7" class="node">
<title>UrlModule</title>
<polygon fill="#8dd3c7" stroke="black" points="318.21,-84.8 315.21,-88.8 294.21,-88.8 291.21,-84.8 239.79,-84.8 239.79,-48.8 318.21,-48.8 318.21,-84.8"/>
<text text-anchor="middle" x="279" y="-62.6" font-family="Times,serif" font-size="14.00">UrlModule</text>
</g>
<!-- UrlModule&#45;&gt;UnitAddressDetailsModule -->
<g id="edge6" class="edge">
<title>UrlModule&#45;&gt;UnitAddressDetailsModule</title>
<path fill="none" stroke="black" d="M279,-84.82C279,-102.17 279,-125.8 279,-125.8 279,-125.8 381.88,-125.8 381.88,-125.8"/>
<polygon fill="black" stroke="black" points="381.88,-129.3 391.88,-125.8 381.88,-122.3 381.88,-129.3"/>
</g>
</g>
</svg>
