<?xml version="1.0" encoding="UTF-8" standalone="no"?>
<!DOCTYPE svg PUBLIC "-//W3C//DTD SVG 1.1//EN"
 "http://www.w3.org/Graphics/SVG/1.1/DTD/svg11.dtd">
<!-- Generated by graphviz version 2.47.3 (20210619.1520)
 -->
<!-- Title: dependencies Pages: 1 -->
<svg width="1118pt" height="285pt"
 viewBox="0.00 0.00 1118.00 285.39" xmlns="http://www.w3.org/2000/svg" xmlns:xlink="http://www.w3.org/1999/xlink">
<g id="graph0" class="graph" transform="scale(1 1) rotate(0) translate(4 281.39)">
<title>dependencies</title>
<polygon fill="white" stroke="transparent" points="-4,4 -4,-281.39 1114,-281.39 1114,4 -4,4"/>
<text text-anchor="middle" x="555" y="-8.2" font-family="sans-serif" font-size="14.00">dependencies</text>
<g id="clust1" class="cluster">
<title>cluster_BudgetFormModule</title>
<polygon fill="none" stroke="black" stroke-dasharray="1,5" points="8,-32.8 8,-269.39 1102,-269.39 1102,-32.8 8,-32.8"/>
</g>
<g id="clust2" class="cluster">
<title>cluster_BudgetFormModule_declarations</title>
<polygon fill="none" stroke="black" points="757,-152.39 757,-204.39 925,-204.39 925,-152.39 757,-152.39"/>
</g>
<g id="clust3" class="cluster">
<title>cluster_BudgetFormModule_BudgetFormComponent_providers</title>
<polygon fill="none" stroke="black" points="16,-40.8 16,-139.39 1094,-139.39 1094,-40.8 16,-40.8"/>
</g>
<g id="clust4" class="cluster">
<title>cluster_BudgetFormModule_imports</title>
<polygon fill="none" stroke="black" points="21,-152.39 21,-204.39 749,-204.39 749,-152.39 21,-152.39"/>
</g>
<!-- BudgetFormComponent -->
<g id="node1" class="node">
<title>BudgetFormComponent</title>
<polygon fill="#ffffb3" stroke="black" points="917.11,-196.39 764.89,-196.39 764.89,-160.39 917.11,-160.39 917.11,-196.39"/>
<text text-anchor="middle" x="841" y="-174.19" font-family="Times,serif" font-size="14.00">BudgetFormComponent</text>
</g>
<!-- BudgetFormModule -->
<g id="node2" class="node">
<title>BudgetFormModule</title>
<polygon fill="#8dd3c7" stroke="black" points="479.33,-261.39 476.33,-265.39 455.33,-265.39 452.33,-261.39 348.67,-261.39 348.67,-225.39 479.33,-225.39 479.33,-261.39"/>
<text text-anchor="middle" x="414" y="-239.19" font-family="Times,serif" font-size="14.00">BudgetFormModule</text>
</g>
<!-- BudgetFormComponent&#45;&gt;BudgetFormModule -->
<g id="edge1" class="edge">
<title>BudgetFormComponent&#45;&gt;BudgetFormModule</title>
<path fill="none" stroke="black" d="M841,-196.67C841,-217.71 841,-249.39 841,-249.39 841,-249.39 489.32,-249.39 489.32,-249.39"/>
<polygon fill="black" stroke="black" points="489.32,-245.89 479.32,-249.39 489.32,-252.89 489.32,-245.89"/>
</g>
<!-- {
 &#160;&#160;&#160;provide: ItemService, useExisting: BudgetItemService,
} -->
<g id="node3" class="node">
<title>{
 &#160;&#160;&#160;provide: ItemService, useExisting: BudgetItemService,
}</title>
<ellipse fill="#fdb462" stroke="black" cx="846" cy="-90.1" rx="239.54" ry="41.09"/>
<text text-anchor="middle" x="846" y="-102.7" font-family="Times,serif" font-size="14.00">{</text>
<text text-anchor="middle" x="846" y="-85.9" font-family="Times,serif" font-size="14.00"> &#160;&#160;&#160;provide: ItemService, useExisting: BudgetItemService,</text>
<text text-anchor="middle" x="846" y="-69.1" font-family="Times,serif" font-size="14.00">}</text>
</g>
<!-- {
 &#160;&#160;&#160;provide: ItemService, useExisting: BudgetItemService,
}&#45;&gt;BudgetFormComponent -->
<g id="edge2" class="edge">
<title>{
 &#160;&#160;&#160;provide: ItemService, useExisting: BudgetItemService,
}&#45;&gt;BudgetFormComponent</title>
<path fill="none" stroke="black" d="M866.35,-131.4C866.35,-131.4 866.35,-150.06 866.35,-150.06"/>
<polygon fill="black" stroke="black" points="862.85,-150.06 866.35,-160.06 869.85,-150.06 862.85,-150.06"/>
</g>
<!-- {
 &#160;&#160;&#160;provide: CurrentItemService, useExisting: CurrentBudgetService,
} -->
<g id="node4" class="node">
<title>{
 &#160;&#160;&#160;provide: CurrentItemService, useExisting: CurrentBudgetService,
}</title>
<ellipse fill="#fdb462" stroke="black" cx="306" cy="-90.1" rx="282.21" ry="41.09"/>
<text text-anchor="middle" x="306" y="-102.7" font-family="Times,serif" font-size="14.00">{</text>
<text text-anchor="middle" x="306" y="-85.9" font-family="Times,serif" font-size="14.00"> &#160;&#160;&#160;provide: CurrentItemService, useExisting: CurrentBudgetService,</text>
<text text-anchor="middle" x="306" y="-69.1" font-family="Times,serif" font-size="14.00">}</text>
</g>
<!-- {
 &#160;&#160;&#160;provide: CurrentItemService, useExisting: CurrentBudgetService,
}&#45;&gt;BudgetFormComponent -->
<g id="edge3" class="edge">
<title>{
 &#160;&#160;&#160;provide: CurrentItemService, useExisting: CurrentBudgetService,
}&#45;&gt;BudgetFormComponent</title>
<path fill="none" stroke="black" d="M532.34,-114.95C532.34,-130.03 532.34,-146.39 532.34,-146.39 532.34,-146.39 815.65,-146.39 815.65,-146.39 815.65,-146.39 815.65,-150.15 815.65,-150.15"/>
<polygon fill="black" stroke="black" points="812.15,-150.15 815.65,-160.15 819.15,-150.15 812.15,-150.15"/>
</g>
<!-- DatePickerModule -->
<g id="node5" class="node">
<title>DatePickerModule</title>
<polygon fill="#8dd3c7" stroke="black" points="740.74,-196.39 737.74,-200.39 716.74,-200.39 713.74,-196.39 619.26,-196.39 619.26,-160.39 740.74,-160.39 740.74,-196.39"/>
<text text-anchor="middle" x="680" y="-174.19" font-family="Times,serif" font-size="14.00">DatePickerModule</text>
</g>
<!-- DatePickerModule&#45;&gt;BudgetFormModule -->
<g id="edge4" class="edge">
<title>DatePickerModule&#45;&gt;BudgetFormModule</title>
<path fill="none" stroke="black" d="M680,-196.41C680,-213.76 680,-237.39 680,-237.39 680,-237.39 489.41,-237.39 489.41,-237.39"/>
<polygon fill="black" stroke="black" points="489.41,-233.89 479.41,-237.39 489.41,-240.89 489.41,-233.89"/>
</g>
<!-- FormErrorsModule -->
<g id="node6" class="node">
<title>FormErrorsModule</title>
<polygon fill="#8dd3c7" stroke="black" points="601.36,-196.39 598.36,-200.39 577.36,-200.39 574.36,-196.39 476.64,-196.39 476.64,-160.39 601.36,-160.39 601.36,-196.39"/>
<text text-anchor="middle" x="539" y="-174.19" font-family="Times,serif" font-size="14.00">FormErrorsModule</text>
</g>
<!-- FormErrorsModule&#45;&gt;BudgetFormModule -->
<g id="edge5" class="edge">
<title>FormErrorsModule&#45;&gt;BudgetFormModule</title>
<path fill="none" stroke="black" d="M476.49,-178.39C471.16,-178.39 467.76,-178.39 467.76,-178.39 467.76,-178.39 467.76,-215.28 467.76,-215.28"/>
<polygon fill="black" stroke="black" points="464.26,-215.28 467.76,-225.28 471.26,-215.28 464.26,-215.28"/>
</g>
<!-- FormModule -->
<g id="node7" class="node">
<title>FormModule</title>
<polygon fill="#8dd3c7" stroke="black" points="458.88,-196.39 455.88,-200.39 434.88,-200.39 431.88,-196.39 369.12,-196.39 369.12,-160.39 458.88,-160.39 458.88,-196.39"/>
<text text-anchor="middle" x="414" y="-174.19" font-family="Times,serif" font-size="14.00">FormModule</text>
</g>
<!-- FormModule&#45;&gt;BudgetFormModule -->
<g id="edge6" class="edge">
<title>FormModule&#45;&gt;BudgetFormModule</title>
<path fill="none" stroke="black" d="M414,-196.5C414,-196.5 414,-215.38 414,-215.38"/>
<polygon fill="black" stroke="black" points="410.5,-215.38 414,-225.38 417.5,-215.38 410.5,-215.38"/>
</g>
<!-- I18nModule -->
<g id="node8" class="node">
<title>I18nModule</title>
<polygon fill="#8dd3c7" stroke="black" points="350.71,-196.39 347.71,-200.39 326.71,-200.39 323.71,-196.39 265.29,-196.39 265.29,-160.39 350.71,-160.39 350.71,-196.39"/>
<text text-anchor="middle" x="308" y="-174.19" font-family="Times,serif" font-size="14.00">I18nModule</text>
</g>
<!-- I18nModule&#45;&gt;BudgetFormModule -->
<g id="edge7" class="edge">
<title>I18nModule&#45;&gt;BudgetFormModule</title>
<path fill="none" stroke="black" d="M350.8,-178.39C356.17,-178.39 359.83,-178.39 359.83,-178.39 359.83,-178.39 359.83,-215.28 359.83,-215.28"/>
<polygon fill="black" stroke="black" points="356.33,-215.28 359.83,-225.28 363.33,-215.28 356.33,-215.28"/>
</g>
<!-- ItemActiveModule -->
<g id="node9" class="node">
<title>ItemActiveModule</title>
<polygon fill="#8dd3c7" stroke="black" points="247.02,-196.39 244.02,-200.39 223.02,-200.39 220.02,-196.39 124.98,-196.39 124.98,-160.39 247.02,-160.39 247.02,-196.39"/>
<text text-anchor="middle" x="186" y="-174.19" font-family="Times,serif" font-size="14.00">ItemActiveModule</text>
</g>
<!-- ItemActiveModule&#45;&gt;BudgetFormModule -->
<g id="edge8" class="edge">
<title>ItemActiveModule&#45;&gt;BudgetFormModule</title>
<path fill="none" stroke="black" d="M186,-196.41C186,-213.76 186,-237.39 186,-237.39 186,-237.39 338.66,-237.39 338.66,-237.39"/>
<polygon fill="black" stroke="black" points="338.66,-240.89 348.66,-237.39 338.66,-233.89 338.66,-240.89"/>
</g>
<!-- UrlModule -->
<g id="node10" class="node">
<title>UrlModule</title>
<polygon fill="#8dd3c7" stroke="black" points="107.21,-196.39 104.21,-200.39 83.21,-200.39 80.21,-196.39 28.79,-196.39 28.79,-160.39 107.21,-160.39 107.21,-196.39"/>
<text text-anchor="middle" x="68" y="-174.19" font-family="Times,serif" font-size="14.00">UrlModule</text>
</g>
<!-- UrlModule&#45;&gt;BudgetFormModule -->
<g id="edge9" class="edge">
<title>UrlModule&#45;&gt;BudgetFormModule</title>
<path fill="none" stroke="black" d="M68,-196.67C68,-217.71 68,-249.39 68,-249.39 68,-249.39 338.51,-249.39 338.51,-249.39"/>
<polygon fill="black" stroke="black" points="338.51,-252.89 348.51,-249.39 338.51,-245.89 338.51,-252.89"/>
</g>
</g>
</svg>
