<?xml version="1.0" encoding="UTF-8" standalone="no"?>
<!DOCTYPE svg PUBLIC "-//W3C//DTD SVG 1.1//EN"
 "http://www.w3.org/Graphics/SVG/1.1/DTD/svg11.dtd">
<!-- Generated by graphviz version 2.47.3 (20210619.1520)
 -->
<!-- Title: dependencies Pages: 1 -->
<svg width="944pt" height="174pt"
 viewBox="0.00 0.00 944.00 173.80" xmlns="http://www.w3.org/2000/svg" xmlns:xlink="http://www.w3.org/1999/xlink">
<g id="graph0" class="graph" transform="scale(1 1) rotate(0) translate(4 169.8)">
<title>dependencies</title>
<polygon fill="white" stroke="transparent" points="-4,4 -4,-169.8 940,-169.8 940,4 -4,4"/>
<text text-anchor="middle" x="468" y="-8.2" font-family="sans-serif" font-size="14.00">dependencies</text>
<g id="clust1" class="cluster">
<title>cluster_BudgetFormModule</title>
<polygon fill="none" stroke="black" stroke-dasharray="1,5" points="8,-32.8 8,-157.8 928,-157.8 928,-32.8 8,-32.8"/>
</g>
<g id="clust2" class="cluster">
<title>cluster_BudgetFormModule_declarations</title>
<polygon fill="none" stroke="black" points="752,-40.8 752,-92.8 920,-92.8 920,-40.8 752,-40.8"/>
</g>
<g id="clust4" class="cluster">
<title>cluster_BudgetFormModule_imports</title>
<polygon fill="none" stroke="black" points="16,-40.8 16,-92.8 744,-92.8 744,-40.8 16,-40.8"/>
</g>
<!-- BudgetFormComponent -->
<g id="node1" class="node">
<title>BudgetFormComponent</title>
<polygon fill="#ffffb3" stroke="black" points="912.11,-84.8 759.89,-84.8 759.89,-48.8 912.11,-48.8 912.11,-84.8"/>
<text text-anchor="middle" x="836" y="-62.6" font-family="Times,serif" font-size="14.00">BudgetFormComponent</text>
</g>
<!-- BudgetFormModule -->
<g id="node2" class="node">
<title>BudgetFormModule</title>
<polygon fill="#8dd3c7" stroke="black" points="474.33,-149.8 471.33,-153.8 450.33,-153.8 447.33,-149.8 343.67,-149.8 343.67,-113.8 474.33,-113.8 474.33,-149.8"/>
<text text-anchor="middle" x="409" y="-127.6" font-family="Times,serif" font-size="14.00">BudgetFormModule</text>
</g>
<!-- BudgetFormComponent&#45;&gt;BudgetFormModule -->
<g id="edge1" class="edge">
<title>BudgetFormComponent&#45;&gt;BudgetFormModule</title>
<path fill="none" stroke="black" d="M836,-85.08C836,-106.12 836,-137.8 836,-137.8 836,-137.8 484.32,-137.8 484.32,-137.8"/>
<polygon fill="black" stroke="black" points="484.32,-134.3 474.32,-137.8 484.32,-141.3 484.32,-134.3"/>
</g>
<!-- DatePickerModule -->
<g id="node3" class="node">
<title>DatePickerModule</title>
<polygon fill="#8dd3c7" stroke="black" points="735.74,-84.8 732.74,-88.8 711.74,-88.8 708.74,-84.8 614.26,-84.8 614.26,-48.8 735.74,-48.8 735.74,-84.8"/>
<text text-anchor="middle" x="675" y="-62.6" font-family="Times,serif" font-size="14.00">DatePickerModule</text>
</g>
<!-- DatePickerModule&#45;&gt;BudgetFormModule -->
<g id="edge2" class="edge">
<title>DatePickerModule&#45;&gt;BudgetFormModule</title>
<path fill="none" stroke="black" d="M675,-84.82C675,-102.17 675,-125.8 675,-125.8 675,-125.8 484.41,-125.8 484.41,-125.8"/>
<polygon fill="black" stroke="black" points="484.41,-122.3 474.41,-125.8 484.41,-129.3 484.41,-122.3"/>
</g>
<!-- FormErrorsModule -->
<g id="node4" class="node">
<title>FormErrorsModule</title>
<polygon fill="#8dd3c7" stroke="black" points="596.36,-84.8 593.36,-88.8 572.36,-88.8 569.36,-84.8 471.64,-84.8 471.64,-48.8 596.36,-48.8 596.36,-84.8"/>
<text text-anchor="middle" x="534" y="-62.6" font-family="Times,serif" font-size="14.00">FormErrorsModule</text>
</g>
<!-- FormErrorsModule&#45;&gt;BudgetFormModule -->
<g id="edge3" class="edge">
<title>FormErrorsModule&#45;&gt;BudgetFormModule</title>
<path fill="none" stroke="black" d="M471.49,-66.8C466.16,-66.8 462.76,-66.8 462.76,-66.8 462.76,-66.8 462.76,-103.69 462.76,-103.69"/>
<polygon fill="black" stroke="black" points="459.26,-103.69 462.76,-113.69 466.26,-103.69 459.26,-103.69"/>
</g>
<!-- FormModule -->
<g id="node5" class="node">
<title>FormModule</title>
<polygon fill="#8dd3c7" stroke="black" points="453.88,-84.8 450.88,-88.8 429.88,-88.8 426.88,-84.8 364.12,-84.8 364.12,-48.8 453.88,-48.8 453.88,-84.8"/>
<text text-anchor="middle" x="409" y="-62.6" font-family="Times,serif" font-size="14.00">FormModule</text>
</g>
<!-- FormModule&#45;&gt;BudgetFormModule -->
<g id="edge4" class="edge">
<title>FormModule&#45;&gt;BudgetFormModule</title>
<path fill="none" stroke="black" d="M409,-84.91C409,-84.91 409,-103.79 409,-103.79"/>
<polygon fill="black" stroke="black" points="405.5,-103.79 409,-113.79 412.5,-103.79 405.5,-103.79"/>
</g>
<!-- I18nModule -->
<g id="node6" class="node">
<title>I18nModule</title>
<polygon fill="#8dd3c7" stroke="black" points="345.71,-84.8 342.71,-88.8 321.71,-88.8 318.71,-84.8 260.29,-84.8 260.29,-48.8 345.71,-48.8 345.71,-84.8"/>
<text text-anchor="middle" x="303" y="-62.6" font-family="Times,serif" font-size="14.00">I18nModule</text>
</g>
<!-- I18nModule&#45;&gt;BudgetFormModule -->
<g id="edge5" class="edge">
<title>I18nModule&#45;&gt;BudgetFormModule</title>
<path fill="none" stroke="black" d="M345.8,-66.8C351.17,-66.8 354.83,-66.8 354.83,-66.8 354.83,-66.8 354.83,-103.69 354.83,-103.69"/>
<polygon fill="black" stroke="black" points="351.33,-103.69 354.83,-113.69 358.33,-103.69 351.33,-103.69"/>
</g>
<!-- ItemActiveModule -->
<g id="node7" class="node">
<title>ItemActiveModule</title>
<polygon fill="#8dd3c7" stroke="black" points="242.02,-84.8 239.02,-88.8 218.02,-88.8 215.02,-84.8 119.98,-84.8 119.98,-48.8 242.02,-48.8 242.02,-84.8"/>
<text text-anchor="middle" x="181" y="-62.6" font-family="Times,serif" font-size="14.00">ItemActiveModule</text>
</g>
<!-- ItemActiveModule&#45;&gt;BudgetFormModule -->
<g id="edge6" class="edge">
<title>ItemActiveModule&#45;&gt;BudgetFormModule</title>
<path fill="none" stroke="black" d="M181,-84.82C181,-102.17 181,-125.8 181,-125.8 181,-125.8 333.66,-125.8 333.66,-125.8"/>
<polygon fill="black" stroke="black" points="333.66,-129.3 343.66,-125.8 333.66,-122.3 333.66,-129.3"/>
</g>
<!-- UrlModule -->
<g id="node8" class="node">
<title>UrlModule</title>
<polygon fill="#8dd3c7" stroke="black" points="102.21,-84.8 99.21,-88.8 78.21,-88.8 75.21,-84.8 23.79,-84.8 23.79,-48.8 102.21,-48.8 102.21,-84.8"/>
<text text-anchor="middle" x="63" y="-62.6" font-family="Times,serif" font-size="14.00">UrlModule</text>
</g>
<!-- UrlModule&#45;&gt;BudgetFormModule -->
<g id="edge7" class="edge">
<title>UrlModule&#45;&gt;BudgetFormModule</title>
<path fill="none" stroke="black" d="M63,-85.08C63,-106.12 63,-137.8 63,-137.8 63,-137.8 333.51,-137.8 333.51,-137.8"/>
<polygon fill="black" stroke="black" points="333.51,-141.3 343.51,-137.8 333.51,-134.3 333.51,-141.3"/>
</g>
</g>
</svg>
