<?xml version="1.0" encoding="UTF-8" standalone="no"?>
<!DOCTYPE svg PUBLIC "-//W3C//DTD SVG 1.1//EN"
 "http://www.w3.org/Graphics/SVG/1.1/DTD/svg11.dtd">
<!-- Generated by graphviz version 2.47.3 (20210619.1520)
 -->
<!-- Title: dependencies Pages: 1 -->
<svg width="1854pt" height="285pt"
 viewBox="0.00 0.00 1854.00 285.39" xmlns="http://www.w3.org/2000/svg" xmlns:xlink="http://www.w3.org/1999/xlink">
<g id="graph0" class="graph" transform="scale(1 1) rotate(0) translate(4 281.39)">
<title>dependencies</title>
<polygon fill="white" stroke="transparent" points="-4,4 -4,-281.39 1850,-281.39 1850,4 -4,4"/>
<text text-anchor="middle" x="923" y="-8.2" font-family="sans-serif" font-size="14.00">dependencies</text>
<g id="clust1" class="cluster">
<title>cluster_BudgetFormModule</title>
<polygon fill="none" stroke="black" stroke-dasharray="1,5" points="8,-32.8 8,-269.39 1838,-269.39 1838,-32.8 8,-32.8"/>
</g>
<g id="clust4" class="cluster">
<title>cluster_BudgetFormModule_imports</title>
<polygon fill="none" stroke="black" points="1102,-152.39 1102,-204.39 1830,-204.39 1830,-152.39 1102,-152.39"/>
</g>
<g id="clust3" class="cluster">
<title>cluster_BudgetFormModule_BudgetFormComponent_providers</title>
<polygon fill="none" stroke="black" points="16,-40.8 16,-204.39 1094,-204.39 1094,-40.8 16,-40.8"/>
</g>
<!-- BudgetFormComponent -->
<g id="node1" class="node">
<title>BudgetFormComponent</title>
<polygon fill="#ffffb3" stroke="black" points="922.11,-196.39 769.89,-196.39 769.89,-160.39 922.11,-160.39 922.11,-196.39"/>
<text text-anchor="middle" x="846" y="-174.19" font-family="Times,serif" font-size="14.00">BudgetFormComponent</text>
</g>
<!-- BudgetFormModule -->
<g id="node2" class="node">
<title>BudgetFormModule</title>
<polygon fill="#8dd3c7" stroke="black" points="1454.33,-261.39 1451.33,-265.39 1430.33,-265.39 1427.33,-261.39 1323.67,-261.39 1323.67,-225.39 1454.33,-225.39 1454.33,-261.39"/>
<text text-anchor="middle" x="1389" y="-239.19" font-family="Times,serif" font-size="14.00">BudgetFormModule</text>
</g>
<!-- BudgetFormComponent&#45;&gt;BudgetFormModule -->
<g id="edge1" class="edge">
<title>BudgetFormComponent&#45;&gt;BudgetFormModule</title>
<path fill="none" stroke="black" d="M846,-196.67C846,-217.71 846,-249.39 846,-249.39 846,-249.39 1313.77,-249.39 1313.77,-249.39"/>
<polygon fill="black" stroke="black" points="1313.77,-252.89 1323.77,-249.39 1313.77,-245.89 1313.77,-252.89"/>
</g>
<!-- {
 &#160;&#160;&#160;provide: ItemService, useExisting: BudgetItemService,
} -->
<g id="node3" class="node">
<title>{
 &#160;&#160;&#160;provide: ItemService, useExisting: BudgetItemService,
}</title>
<ellipse fill="#fdb462" stroke="black" cx="846" cy="-90.1" rx="239.54" ry="41.09"/>
<text text-anchor="middle" x="846" y="-102.7" font-family="Times,serif" font-size="14.00">{</text>
<text text-anchor="middle" x="846" y="-85.9" font-family="Times,serif" font-size="14.00"> &#160;&#160;&#160;provide: ItemService, useExisting: BudgetItemService,</text>
<text text-anchor="middle" x="846" y="-69.1" font-family="Times,serif" font-size="14.00">}</text>
</g>
<!-- {
 &#160;&#160;&#160;provide: ItemService, useExisting: BudgetItemService,
}&#45;&gt;BudgetFormComponent -->
<g id="edge2" class="edge">
<title>{
 &#160;&#160;&#160;provide: ItemService, useExisting: BudgetItemService,
}&#45;&gt;BudgetFormComponent</title>
<path fill="none" stroke="black" d="M846,-131.4C846,-131.4 846,-150.06 846,-150.06"/>
<polygon fill="black" stroke="black" points="842.5,-150.06 846,-160.06 849.5,-150.06 842.5,-150.06"/>
</g>
<!-- {
 &#160;&#160;&#160;provide: CurrentItemService, useExisting: CurrentBudgetService,
} -->
<g id="node4" class="node">
<title>{
 &#160;&#160;&#160;provide: CurrentItemService, useExisting: CurrentBudgetService,
}</title>
<ellipse fill="#fdb462" stroke="black" cx="306" cy="-90.1" rx="282.21" ry="41.09"/>
<text text-anchor="middle" x="306" y="-102.7" font-family="Times,serif" font-size="14.00">{</text>
<text text-anchor="middle" x="306" y="-85.9" font-family="Times,serif" font-size="14.00"> &#160;&#160;&#160;provide: CurrentItemService, useExisting: CurrentBudgetService,</text>
<text text-anchor="middle" x="306" y="-69.1" font-family="Times,serif" font-size="14.00">}</text>
</g>
<!-- {
 &#160;&#160;&#160;provide: CurrentItemService, useExisting: CurrentBudgetService,
}&#45;&gt;BudgetFormComponent -->
<g id="edge3" class="edge">
<title>{
 &#160;&#160;&#160;provide: CurrentItemService, useExisting: CurrentBudgetService,
}&#45;&gt;BudgetFormComponent</title>
<path fill="none" stroke="black" d="M306,-131.4C306,-154.38 306,-178.39 306,-178.39 306,-178.39 759.78,-178.39 759.78,-178.39"/>
<polygon fill="black" stroke="black" points="759.78,-181.89 769.78,-178.39 759.78,-174.89 759.78,-181.89"/>
</g>
<!-- DatePickerModule -->
<g id="node5" class="node">
<title>DatePickerModule</title>
<polygon fill="#8dd3c7" stroke="black" points="1821.74,-196.39 1818.74,-200.39 1797.74,-200.39 1794.74,-196.39 1700.26,-196.39 1700.26,-160.39 1821.74,-160.39 1821.74,-196.39"/>
<text text-anchor="middle" x="1761" y="-174.19" font-family="Times,serif" font-size="14.00">DatePickerModule</text>
</g>
<!-- DatePickerModule&#45;&gt;BudgetFormModule -->
<g id="edge4" class="edge">
<title>DatePickerModule&#45;&gt;BudgetFormModule</title>
<path fill="none" stroke="black" d="M1761,-196.67C1761,-217.71 1761,-249.39 1761,-249.39 1761,-249.39 1464.22,-249.39 1464.22,-249.39"/>
<polygon fill="black" stroke="black" points="1464.22,-245.89 1454.22,-249.39 1464.22,-252.89 1464.22,-245.89"/>
</g>
<!-- FormErrorsModule -->
<g id="node6" class="node">
<title>FormErrorsModule</title>
<polygon fill="#8dd3c7" stroke="black" points="1682.36,-196.39 1679.36,-200.39 1658.36,-200.39 1655.36,-196.39 1557.64,-196.39 1557.64,-160.39 1682.36,-160.39 1682.36,-196.39"/>
<text text-anchor="middle" x="1620" y="-174.19" font-family="Times,serif" font-size="14.00">FormErrorsModule</text>
</g>
<!-- FormErrorsModule&#45;&gt;BudgetFormModule -->
<g id="edge5" class="edge">
<title>FormErrorsModule&#45;&gt;BudgetFormModule</title>
<path fill="none" stroke="black" d="M1620,-196.41C1620,-213.76 1620,-237.39 1620,-237.39 1620,-237.39 1464.27,-237.39 1464.27,-237.39"/>
<polygon fill="black" stroke="black" points="1464.27,-233.89 1454.27,-237.39 1464.27,-240.89 1464.27,-233.89"/>
</g>
<!-- FormModule -->
<g id="node7" class="node">
<title>FormModule</title>
<polygon fill="#8dd3c7" stroke="black" points="1539.88,-196.39 1536.88,-200.39 1515.88,-200.39 1512.88,-196.39 1450.12,-196.39 1450.12,-160.39 1539.88,-160.39 1539.88,-196.39"/>
<text text-anchor="middle" x="1495" y="-174.19" font-family="Times,serif" font-size="14.00">FormModule</text>
</g>
<!-- FormModule&#45;&gt;BudgetFormModule -->
<g id="edge6" class="edge">
<title>FormModule&#45;&gt;BudgetFormModule</title>
<path fill="none" stroke="black" d="M1449.78,-178.39C1444.43,-178.39 1440.83,-178.39 1440.83,-178.39 1440.83,-178.39 1440.83,-215.28 1440.83,-215.28"/>
<polygon fill="black" stroke="black" points="1437.33,-215.28 1440.83,-225.28 1444.33,-215.28 1437.33,-215.28"/>
</g>
<!-- I18nModule -->
<g id="node8" class="node">
<title>I18nModule</title>
<polygon fill="#8dd3c7" stroke="black" points="1431.71,-196.39 1428.71,-200.39 1407.71,-200.39 1404.71,-196.39 1346.29,-196.39 1346.29,-160.39 1431.71,-160.39 1431.71,-196.39"/>
<text text-anchor="middle" x="1389" y="-174.19" font-family="Times,serif" font-size="14.00">I18nModule</text>
</g>
<!-- I18nModule&#45;&gt;BudgetFormModule -->
<g id="edge7" class="edge">
<title>I18nModule&#45;&gt;BudgetFormModule</title>
<path fill="none" stroke="black" d="M1389,-196.5C1389,-196.5 1389,-215.38 1389,-215.38"/>
<polygon fill="black" stroke="black" points="1385.5,-215.38 1389,-225.38 1392.5,-215.38 1385.5,-215.38"/>
</g>
<!-- ItemActiveModule -->
<g id="node9" class="node">
<title>ItemActiveModule</title>
<polygon fill="#8dd3c7" stroke="black" points="1328.02,-196.39 1325.02,-200.39 1304.02,-200.39 1301.02,-196.39 1205.98,-196.39 1205.98,-160.39 1328.02,-160.39 1328.02,-196.39"/>
<text text-anchor="middle" x="1267" y="-174.19" font-family="Times,serif" font-size="14.00">ItemActiveModule</text>
</g>
<!-- ItemActiveModule&#45;&gt;BudgetFormModule -->
<g id="edge8" class="edge">
<title>ItemActiveModule&#45;&gt;BudgetFormModule</title>
<path fill="none" stroke="black" d="M1328.13,-178.39C1333.72,-178.39 1337.33,-178.39 1337.33,-178.39 1337.33,-178.39 1337.33,-215.28 1337.33,-215.28"/>
<polygon fill="black" stroke="black" points="1333.83,-215.28 1337.33,-225.28 1340.83,-215.28 1333.83,-215.28"/>
</g>
<!-- UrlModule -->
<g id="node10" class="node">
<title>UrlModule</title>
<polygon fill="#8dd3c7" stroke="black" points="1188.21,-196.39 1185.21,-200.39 1164.21,-200.39 1161.21,-196.39 1109.79,-196.39 1109.79,-160.39 1188.21,-160.39 1188.21,-196.39"/>
<text text-anchor="middle" x="1149" y="-174.19" font-family="Times,serif" font-size="14.00">UrlModule</text>
</g>
<!-- UrlModule&#45;&gt;BudgetFormModule -->
<g id="edge9" class="edge">
<title>UrlModule&#45;&gt;BudgetFormModule</title>
<path fill="none" stroke="black" d="M1149,-196.41C1149,-213.76 1149,-237.39 1149,-237.39 1149,-237.39 1313.74,-237.39 1313.74,-237.39"/>
<polygon fill="black" stroke="black" points="1313.74,-240.89 1323.74,-237.39 1313.74,-233.89 1313.74,-240.89"/>
</g>
</g>
</svg>
