<?xml version="1.0" encoding="UTF-8" standalone="no"?>
<!DOCTYPE svg PUBLIC "-//W3C//DTD SVG 1.1//EN"
 "http://www.w3.org/Graphics/SVG/1.1/DTD/svg11.dtd">
<!-- Generated by graphviz version 2.46.0 (20210119.1425)
 -->
<!-- Title: dependencies Pages: 1 -->
<svg width="1129pt" height="276pt"
 viewBox="0.00 0.00 1129.00 276.00" xmlns="http://www.w3.org/2000/svg" xmlns:xlink="http://www.w3.org/1999/xlink">
<g id="graph0" class="graph" transform="scale(1 1) rotate(0) translate(4 272)">
<title>dependencies</title>
<polygon fill="white" stroke="transparent" points="-4,4 -4,-272 1125,-272 1125,4 -4,4"/>
<text text-anchor="start" x="539.51" y="-42.4" font-family="sans-serif" font-weight="bold" font-size="14.00">Legend</text>
<polygon fill="#ffffb3" stroke="transparent" points="326.5,-10 326.5,-30 346.5,-30 346.5,-10 326.5,-10"/>
<text text-anchor="start" x="350.13" y="-15.4" font-family="sans-serif" font-size="14.00"> &#160;Declarations</text>
<polygon fill="#8dd3c7" stroke="transparent" points="439.5,-10 439.5,-30 459.5,-30 459.5,-10 439.5,-10"/>
<text text-anchor="start" x="463.23" y="-15.4" font-family="sans-serif" font-size="14.00"> &#160;Module</text>
<polygon fill="#80b1d3" stroke="transparent" points="525.5,-10 525.5,-30 545.5,-30 545.5,-10 525.5,-10"/>
<text text-anchor="start" x="549.28" y="-15.4" font-family="sans-serif" font-size="14.00"> &#160;Bootstrap</text>
<polygon fill="#fdb462" stroke="transparent" points="622.5,-10 622.5,-30 642.5,-30 642.5,-10 622.5,-10"/>
<text text-anchor="start" x="646.17" y="-15.4" font-family="sans-serif" font-size="14.00"> &#160;Providers</text>
<polygon fill="#fb8072" stroke="transparent" points="718.5,-10 718.5,-30 738.5,-30 738.5,-10 718.5,-10"/>
<text text-anchor="start" x="742.23" y="-15.4" font-family="sans-serif" font-size="14.00"> &#160;Exports</text>
<g id="clust1" class="cluster">
<title>cluster_BudgetFormModule</title>
<polygon fill="none" stroke="black" stroke-dasharray="1,5" points="8,-70 8,-260 1113,-260 1113,-70 8,-70"/>
</g>
<g id="clust2" class="cluster">
<title>cluster_BudgetFormModule_declarations</title>
<polygon fill="none" stroke="black" points="761,-143 761,-195 929,-195 929,-143 761,-143"/>
</g>
<g id="clust3" class="cluster">
<title>cluster_BudgetFormModule_BudgetFormComponent_providers</title>
<polygon fill="none" stroke="black" points="16,-78 16,-130 1105,-130 1105,-78 16,-78"/>
</g>
<g id="clust4" class="cluster">
<title>cluster_BudgetFormModule_imports</title>
<polygon fill="none" stroke="black" points="25,-143 25,-195 753,-195 753,-143 25,-143"/>
</g>
<!-- BudgetFormComponent -->
<g id="node1" class="node">
<title>BudgetFormComponent</title>
<polygon fill="#ffffb3" stroke="black" points="921.11,-187 768.89,-187 768.89,-151 921.11,-151 921.11,-187"/>
<text text-anchor="middle" x="845" y="-164.8" font-family="Times,serif" font-size="14.00">BudgetFormComponent</text>
</g>
<!-- BudgetFormModule -->
<g id="node2" class="node">
<title>BudgetFormModule</title>
<polygon fill="#8dd3c7" stroke="black" points="483.33,-252 480.33,-256 459.33,-256 456.33,-252 352.67,-252 352.67,-216 483.33,-216 483.33,-252"/>
<text text-anchor="middle" x="418" y="-229.8" font-family="Times,serif" font-size="14.00">BudgetFormModule</text>
</g>
<!-- BudgetFormComponent&#45;&gt;BudgetFormModule -->
<g id="edge1" class="edge">
<title>BudgetFormComponent&#45;&gt;BudgetFormModule</title>
<path fill="none" stroke="black" d="M845,-187.28C845,-208.32 845,-240 845,-240 845,-240 493.32,-240 493.32,-240"/>
<polygon fill="black" stroke="black" points="493.32,-236.5 483.32,-240 493.32,-243.5 493.32,-236.5"/>
</g>
<!-- { &#160;&#160;&#160;provide: ItemService, useExisting: BudgetItemService,} -->
<g id="node3" class="node">
<title>{ &#160;&#160;&#160;provide: ItemService, useExisting: BudgetItemService,}</title>
<ellipse fill="#fdb462" stroke="black" cx="854" cy="-104" rx="243.33" ry="18"/>
<text text-anchor="middle" x="854" y="-99.8" font-family="Times,serif" font-size="14.00">{ &#160;&#160;&#160;provide: ItemService, useExisting: BudgetItemService,}</text>
</g>
<!-- { &#160;&#160;&#160;provide: ItemService, useExisting: BudgetItemService,}&#45;&gt;BudgetFormComponent -->
<g id="edge2" class="edge">
<title>{ &#160;&#160;&#160;provide: ItemService, useExisting: BudgetItemService,}&#45;&gt;BudgetFormComponent</title>
<path fill="none" stroke="black" d="M870.35,-122.11C870.35,-122.11 870.35,-140.99 870.35,-140.99"/>
<polygon fill="black" stroke="black" points="866.85,-140.99 870.35,-150.99 873.85,-140.99 866.85,-140.99"/>
</g>
<!-- { &#160;&#160;&#160;provide: CurrentItemService, useExisting: CurrentBudgetService,} -->
<g id="node4" class="node">
<title>{ &#160;&#160;&#160;provide: CurrentItemService, useExisting: CurrentBudgetService,}</title>
<ellipse fill="#fdb462" stroke="black" cx="308" cy="-104" rx="284.42" ry="18"/>
<text text-anchor="middle" x="308" y="-99.8" font-family="Times,serif" font-size="14.00">{ &#160;&#160;&#160;provide: CurrentItemService, useExisting: CurrentBudgetService,}</text>
</g>
<!-- { &#160;&#160;&#160;provide: CurrentItemService, useExisting: CurrentBudgetService,}&#45;&gt;BudgetFormComponent -->
<g id="edge3" class="edge">
<title>{ &#160;&#160;&#160;provide: CurrentItemService, useExisting: CurrentBudgetService,}&#45;&gt;BudgetFormComponent</title>
<path fill="none" stroke="black" d="M536.51,-114.81C536.51,-124.43 536.51,-137 536.51,-137 536.51,-137 819.65,-137 819.65,-137 819.65,-137 819.65,-140.76 819.65,-140.76"/>
<polygon fill="black" stroke="black" points="816.15,-140.76 819.65,-150.76 823.15,-140.76 816.15,-140.76"/>
</g>
<!-- DatePickerModule -->
<g id="node5" class="node">
<title>DatePickerModule</title>
<polygon fill="#8dd3c7" stroke="black" points="744.74,-187 741.74,-191 720.74,-191 717.74,-187 623.26,-187 623.26,-151 744.74,-151 744.74,-187"/>
<text text-anchor="middle" x="684" y="-164.8" font-family="Times,serif" font-size="14.00">DatePickerModule</text>
</g>
<!-- DatePickerModule&#45;&gt;BudgetFormModule -->
<g id="edge4" class="edge">
<title>DatePickerModule&#45;&gt;BudgetFormModule</title>
<path fill="none" stroke="black" d="M684,-187.02C684,-204.37 684,-228 684,-228 684,-228 493.41,-228 493.41,-228"/>
<polygon fill="black" stroke="black" points="493.41,-224.5 483.41,-228 493.41,-231.5 493.41,-224.5"/>
</g>
<!-- FormErrorsModule -->
<g id="node6" class="node">
<title>FormErrorsModule</title>
<polygon fill="#8dd3c7" stroke="black" points="605.36,-187 602.36,-191 581.36,-191 578.36,-187 480.64,-187 480.64,-151 605.36,-151 605.36,-187"/>
<text text-anchor="middle" x="543" y="-164.8" font-family="Times,serif" font-size="14.00">FormErrorsModule</text>
</g>
<!-- FormErrorsModule&#45;&gt;BudgetFormModule -->
<g id="edge5" class="edge">
<title>FormErrorsModule&#45;&gt;BudgetFormModule</title>
<path fill="none" stroke="black" d="M480.49,-169C475.16,-169 471.76,-169 471.76,-169 471.76,-169 471.76,-205.89 471.76,-205.89"/>
<polygon fill="black" stroke="black" points="468.26,-205.89 471.76,-215.89 475.26,-205.89 468.26,-205.89"/>
</g>
<!-- FormModule -->
<g id="node7" class="node">
<title>FormModule</title>
<polygon fill="#8dd3c7" stroke="black" points="462.88,-187 459.88,-191 438.88,-191 435.88,-187 373.12,-187 373.12,-151 462.88,-151 462.88,-187"/>
<text text-anchor="middle" x="418" y="-164.8" font-family="Times,serif" font-size="14.00">FormModule</text>
</g>
<!-- FormModule&#45;&gt;BudgetFormModule -->
<g id="edge6" class="edge">
<title>FormModule&#45;&gt;BudgetFormModule</title>
<path fill="none" stroke="black" d="M418,-187.11C418,-187.11 418,-205.99 418,-205.99"/>
<polygon fill="black" stroke="black" points="414.5,-205.99 418,-215.99 421.5,-205.99 414.5,-205.99"/>
</g>
<!-- I18nModule -->
<g id="node8" class="node">
<title>I18nModule</title>
<polygon fill="#8dd3c7" stroke="black" points="354.71,-187 351.71,-191 330.71,-191 327.71,-187 269.29,-187 269.29,-151 354.71,-151 354.71,-187"/>
<text text-anchor="middle" x="312" y="-164.8" font-family="Times,serif" font-size="14.00">I18nModule</text>
</g>
<!-- I18nModule&#45;&gt;BudgetFormModule -->
<g id="edge7" class="edge">
<title>I18nModule&#45;&gt;BudgetFormModule</title>
<path fill="none" stroke="black" d="M354.8,-169C360.17,-169 363.83,-169 363.83,-169 363.83,-169 363.83,-205.89 363.83,-205.89"/>
<polygon fill="black" stroke="black" points="360.33,-205.89 363.83,-215.89 367.33,-205.89 360.33,-205.89"/>
</g>
<!-- ItemActiveModule -->
<g id="node9" class="node">
<title>ItemActiveModule</title>
<polygon fill="#8dd3c7" stroke="black" points="251.02,-187 248.02,-191 227.02,-191 224.02,-187 128.98,-187 128.98,-151 251.02,-151 251.02,-187"/>
<text text-anchor="middle" x="190" y="-164.8" font-family="Times,serif" font-size="14.00">ItemActiveModule</text>
</g>
<!-- ItemActiveModule&#45;&gt;BudgetFormModule -->
<g id="edge8" class="edge">
<title>ItemActiveModule&#45;&gt;BudgetFormModule</title>
<path fill="none" stroke="black" d="M190,-187.02C190,-204.37 190,-228 190,-228 190,-228 342.66,-228 342.66,-228"/>
<polygon fill="black" stroke="black" points="342.66,-231.5 352.66,-228 342.66,-224.5 342.66,-231.5"/>
</g>
<!-- UrlModule -->
<g id="node10" class="node">
<title>UrlModule</title>
<polygon fill="#8dd3c7" stroke="black" points="111.21,-187 108.21,-191 87.21,-191 84.21,-187 32.79,-187 32.79,-151 111.21,-151 111.21,-187"/>
<text text-anchor="middle" x="72" y="-164.8" font-family="Times,serif" font-size="14.00">UrlModule</text>
</g>
<!-- UrlModule&#45;&gt;BudgetFormModule -->
<g id="edge9" class="edge">
<title>UrlModule&#45;&gt;BudgetFormModule</title>
<path fill="none" stroke="black" d="M72,-187.28C72,-208.32 72,-240 72,-240 72,-240 342.51,-240 342.51,-240"/>
<polygon fill="black" stroke="black" points="342.51,-243.5 352.51,-240 342.51,-236.5 342.51,-243.5"/>
</g>
</g>
</svg>
