<?xml version="1.0" encoding="UTF-8" standalone="no"?>
<!DOCTYPE svg PUBLIC "-//W3C//DTD SVG 1.1//EN"
 "http://www.w3.org/Graphics/SVG/1.1/DTD/svg11.dtd">
<!-- Generated by graphviz version 2.47.3 (20210619.1520)
 -->
<!-- Title: dependencies Pages: 1 -->
<svg width="504pt" height="247pt"
 viewBox="0.00 0.00 504.00 246.80" xmlns="http://www.w3.org/2000/svg" xmlns:xlink="http://www.w3.org/1999/xlink">
<g id="graph0" class="graph" transform="scale(1 1) rotate(0) translate(4 242.8)">
<title>dependencies</title>
<polygon fill="white" stroke="transparent" points="-4,4 -4,-242.8 500,-242.8 500,4 -4,4"/>
<text text-anchor="middle" x="248" y="-8.2" font-family="sans-serif" font-size="14.00">dependencies</text>
<g id="clust1" class="cluster">
<title>cluster_ProductVariantStyleSelectorModule</title>
<polygon fill="none" stroke="black" stroke-dasharray="1,5" points="8,-32.8 8,-230.8 488,-230.8 488,-32.8 8,-32.8"/>
</g>
<g id="clust4" class="cluster">
<title>cluster_ProductVariantStyleSelectorModule_imports</title>
<polygon fill="none" stroke="black" points="282,-40.8 282,-92.8 480,-92.8 480,-40.8 282,-40.8"/>
</g>
<g id="clust5" class="cluster">
<title>cluster_ProductVariantStyleSelectorModule_exports</title>
<polygon fill="none" stroke="black" points="198,-170.8 198,-222.8 460,-222.8 460,-170.8 198,-170.8"/>
</g>
<g id="clust2" class="cluster">
<title>cluster_ProductVariantStyleSelectorModule_declarations</title>
<polygon fill="none" stroke="black" points="16,-40.8 16,-92.8 274,-92.8 274,-40.8 16,-40.8"/>
</g>
<!-- ProductVariantStyleSelectorComponent -->
<g id="node1" class="node">
<title>ProductVariantStyleSelectorComponent</title>
<polygon fill="#ffffb3" stroke="black" points="265.51,-84.8 24.49,-84.8 24.49,-48.8 265.51,-48.8 265.51,-84.8"/>
<text text-anchor="middle" x="145" y="-62.6" font-family="Times,serif" font-size="14.00">ProductVariantStyleSelectorComponent</text>
</g>
<!-- ProductVariantStyleSelectorModule -->
<g id="node2" class="node">
<title>ProductVariantStyleSelectorModule</title>
<polygon fill="#8dd3c7" stroke="black" points="438.72,-149.8 435.72,-153.8 414.72,-153.8 411.72,-149.8 219.28,-149.8 219.28,-113.8 438.72,-113.8 438.72,-149.8"/>
<text text-anchor="middle" x="329" y="-127.6" font-family="Times,serif" font-size="14.00">ProductVariantStyleSelectorModule</text>
</g>
<!-- ProductVariantStyleSelectorComponent&#45;&gt;ProductVariantStyleSelectorModule -->
<g id="edge1" class="edge">
<title>ProductVariantStyleSelectorComponent&#45;&gt;ProductVariantStyleSelectorModule</title>
<path fill="none" stroke="black" d="M242.45,-84.91C242.45,-84.91 242.45,-103.79 242.45,-103.79"/>
<polygon fill="black" stroke="black" points="238.95,-103.79 242.45,-113.79 245.95,-103.79 238.95,-103.79"/>
</g>
<!-- ProductVariantStyleSelectorComponent  -->
<g id="node5" class="node">
<title>ProductVariantStyleSelectorComponent </title>
<polygon fill="#fb8072" stroke="black" points="451.51,-214.8 206.49,-214.8 206.49,-178.8 451.51,-178.8 451.51,-214.8"/>
<text text-anchor="middle" x="329" y="-192.6" font-family="Times,serif" font-size="14.00">ProductVariantStyleSelectorComponent </text>
</g>
<!-- ProductVariantStyleSelectorModule&#45;&gt;ProductVariantStyleSelectorComponent  -->
<g id="edge4" class="edge">
<title>ProductVariantStyleSelectorModule&#45;&gt;ProductVariantStyleSelectorComponent </title>
<path fill="none" stroke="black" stroke-dasharray="5,2" d="M329,-149.91C329,-149.91 329,-168.79 329,-168.79"/>
<polygon fill="black" stroke="black" points="325.5,-168.79 329,-178.79 332.5,-168.79 325.5,-168.79"/>
</g>
<!-- I18nModule -->
<g id="node3" class="node">
<title>I18nModule</title>
<polygon fill="#8dd3c7" stroke="black" points="471.71,-84.8 468.71,-88.8 447.71,-88.8 444.71,-84.8 386.29,-84.8 386.29,-48.8 471.71,-48.8 471.71,-84.8"/>
<text text-anchor="middle" x="429" y="-62.6" font-family="Times,serif" font-size="14.00">I18nModule</text>
</g>
<!-- I18nModule&#45;&gt;ProductVariantStyleSelectorModule -->
<g id="edge2" class="edge">
<title>I18nModule&#45;&gt;ProductVariantStyleSelectorModule</title>
<path fill="none" stroke="black" d="M412.63,-84.91C412.63,-84.91 412.63,-103.79 412.63,-103.79"/>
<polygon fill="black" stroke="black" points="409.13,-103.79 412.63,-113.79 416.13,-103.79 409.13,-103.79"/>
</g>
<!-- UrlModule -->
<g id="node4" class="node">
<title>UrlModule</title>
<polygon fill="#8dd3c7" stroke="black" points="368.21,-84.8 365.21,-88.8 344.21,-88.8 341.21,-84.8 289.79,-84.8 289.79,-48.8 368.21,-48.8 368.21,-84.8"/>
<text text-anchor="middle" x="329" y="-62.6" font-family="Times,serif" font-size="14.00">UrlModule</text>
</g>
<!-- UrlModule&#45;&gt;ProductVariantStyleSelectorModule -->
<g id="edge3" class="edge">
<title>UrlModule&#45;&gt;ProductVariantStyleSelectorModule</title>
<path fill="none" stroke="black" d="M329,-84.91C329,-84.91 329,-103.79 329,-103.79"/>
<polygon fill="black" stroke="black" points="325.5,-103.79 329,-113.79 332.5,-103.79 325.5,-103.79"/>
</g>
</g>
</svg>
