<?xml version="1.0" encoding="UTF-8" standalone="no"?>
<!DOCTYPE svg PUBLIC "-//W3C//DTD SVG 1.1//EN"
 "http://www.w3.org/Graphics/SVG/1.1/DTD/svg11.dtd">
<!-- Generated by graphviz version 2.47.0 (20210316.0004)
 -->
<!-- Title: dependencies Pages: 1 -->
<svg width="504pt" height="284pt"
 viewBox="0.00 0.00 504.00 284.00" xmlns="http://www.w3.org/2000/svg" xmlns:xlink="http://www.w3.org/1999/xlink">
<g id="graph0" class="graph" transform="scale(1 1) rotate(0) translate(4 280)">
<title>dependencies</title>
<polygon fill="white" stroke="transparent" points="-4,4 -4,-280 500,-280 500,4 -4,4"/>
<text text-anchor="start" x="227.01" y="-42.4" font-family="sans-serif" font-weight="bold" font-size="14.00">Legend</text>
<polygon fill="#ffffb3" stroke="transparent" points="14,-10 14,-30 34,-30 34,-10 14,-10"/>
<text text-anchor="start" x="37.63" y="-15.4" font-family="sans-serif" font-size="14.00"> &#160;Declarations</text>
<polygon fill="#8dd3c7" stroke="transparent" points="127,-10 127,-30 147,-30 147,-10 127,-10"/>
<text text-anchor="start" x="150.73" y="-15.4" font-family="sans-serif" font-size="14.00"> &#160;Module</text>
<polygon fill="#80b1d3" stroke="transparent" points="213,-10 213,-30 233,-30 233,-10 213,-10"/>
<text text-anchor="start" x="236.78" y="-15.4" font-family="sans-serif" font-size="14.00"> &#160;Bootstrap</text>
<polygon fill="#fdb462" stroke="transparent" points="310,-10 310,-30 330,-30 330,-10 310,-10"/>
<text text-anchor="start" x="333.67" y="-15.4" font-family="sans-serif" font-size="14.00"> &#160;Providers</text>
<polygon fill="#fb8072" stroke="transparent" points="406,-10 406,-30 426,-30 426,-10 406,-10"/>
<text text-anchor="start" x="429.73" y="-15.4" font-family="sans-serif" font-size="14.00"> &#160;Exports</text>
<g id="clust1" class="cluster">
<title>cluster_ProductVariantStyleSelectorModule</title>
<polygon fill="none" stroke="black" stroke-dasharray="1,5" points="8,-70 8,-268 488,-268 488,-70 8,-70"/>
</g>
<g id="clust4" class="cluster">
<title>cluster_ProductVariantStyleSelectorModule_imports</title>
<polygon fill="none" stroke="black" points="282,-78 282,-130 480,-130 480,-78 282,-78"/>
</g>
<g id="clust5" class="cluster">
<title>cluster_ProductVariantStyleSelectorModule_exports</title>
<polygon fill="none" stroke="black" points="198,-208 198,-260 460,-260 460,-208 198,-208"/>
</g>
<g id="clust2" class="cluster">
<title>cluster_ProductVariantStyleSelectorModule_declarations</title>
<polygon fill="none" stroke="black" points="16,-78 16,-130 274,-130 274,-78 16,-78"/>
</g>
<!-- ProductVariantStyleSelectorComponent -->
<g id="node1" class="node">
<title>ProductVariantStyleSelectorComponent</title>
<polygon fill="#ffffb3" stroke="black" points="265.51,-122 24.49,-122 24.49,-86 265.51,-86 265.51,-122"/>
<text text-anchor="middle" x="145" y="-99.8" font-family="Times,serif" font-size="14.00">ProductVariantStyleSelectorComponent</text>
</g>
<!-- ProductVariantStyleSelectorModule -->
<g id="node2" class="node">
<title>ProductVariantStyleSelectorModule</title>
<polygon fill="#8dd3c7" stroke="black" points="438.72,-187 435.72,-191 414.72,-191 411.72,-187 219.28,-187 219.28,-151 438.72,-151 438.72,-187"/>
<text text-anchor="middle" x="329" y="-164.8" font-family="Times,serif" font-size="14.00">ProductVariantStyleSelectorModule</text>
</g>
<!-- ProductVariantStyleSelectorComponent&#45;&gt;ProductVariantStyleSelectorModule -->
<g id="edge1" class="edge">
<title>ProductVariantStyleSelectorComponent&#45;&gt;ProductVariantStyleSelectorModule</title>
<path fill="none" stroke="black" d="M242.45,-122.11C242.45,-122.11 242.45,-140.99 242.45,-140.99"/>
<polygon fill="black" stroke="black" points="238.95,-140.99 242.45,-150.99 245.95,-140.99 238.95,-140.99"/>
</g>
<!-- ProductVariantStyleSelectorComponent  -->
<g id="node5" class="node">
<title>ProductVariantStyleSelectorComponent </title>
<polygon fill="#fb8072" stroke="black" points="451.51,-252 206.49,-252 206.49,-216 451.51,-216 451.51,-252"/>
<text text-anchor="middle" x="329" y="-229.8" font-family="Times,serif" font-size="14.00">ProductVariantStyleSelectorComponent </text>
</g>
<!-- ProductVariantStyleSelectorModule&#45;&gt;ProductVariantStyleSelectorComponent  -->
<g id="edge4" class="edge">
<title>ProductVariantStyleSelectorModule&#45;&gt;ProductVariantStyleSelectorComponent </title>
<path fill="none" stroke="black" stroke-dasharray="5,2" d="M329,-187.11C329,-187.11 329,-205.99 329,-205.99"/>
<polygon fill="black" stroke="black" points="325.5,-205.99 329,-215.99 332.5,-205.99 325.5,-205.99"/>
</g>
<!-- I18nModule -->
<g id="node3" class="node">
<title>I18nModule</title>
<polygon fill="#8dd3c7" stroke="black" points="471.71,-122 468.71,-126 447.71,-126 444.71,-122 386.29,-122 386.29,-86 471.71,-86 471.71,-122"/>
<text text-anchor="middle" x="429" y="-99.8" font-family="Times,serif" font-size="14.00">I18nModule</text>
</g>
<!-- I18nModule&#45;&gt;ProductVariantStyleSelectorModule -->
<g id="edge2" class="edge">
<title>I18nModule&#45;&gt;ProductVariantStyleSelectorModule</title>
<path fill="none" stroke="black" d="M412.63,-122.11C412.63,-122.11 412.63,-140.99 412.63,-140.99"/>
<polygon fill="black" stroke="black" points="409.13,-140.99 412.63,-150.99 416.13,-140.99 409.13,-140.99"/>
</g>
<!-- UrlModule -->
<g id="node4" class="node">
<title>UrlModule</title>
<polygon fill="#8dd3c7" stroke="black" points="368.21,-122 365.21,-126 344.21,-126 341.21,-122 289.79,-122 289.79,-86 368.21,-86 368.21,-122"/>
<text text-anchor="middle" x="329" y="-99.8" font-family="Times,serif" font-size="14.00">UrlModule</text>
</g>
<!-- UrlModule&#45;&gt;ProductVariantStyleSelectorModule -->
<g id="edge3" class="edge">
<title>UrlModule&#45;&gt;ProductVariantStyleSelectorModule</title>
<path fill="none" stroke="black" d="M329,-122.11C329,-122.11 329,-140.99 329,-140.99"/>
<polygon fill="black" stroke="black" points="325.5,-140.99 329,-150.99 332.5,-140.99 325.5,-140.99"/>
</g>
</g>
</svg>
