<?xml version="1.0" encoding="UTF-8" standalone="no"?>
<!DOCTYPE svg PUBLIC "-//W3C//DTD SVG 1.1//EN"
 "http://www.w3.org/Graphics/SVG/1.1/DTD/svg11.dtd">
<!-- Generated by graphviz version 2.47.3 (20210619.1520)
 -->
<!-- Title: dependencies Pages: 1 -->
<svg width="663pt" height="247pt"
 viewBox="0.00 0.00 663.00 246.80" xmlns="http://www.w3.org/2000/svg" xmlns:xlink="http://www.w3.org/1999/xlink">
<g id="graph0" class="graph" transform="scale(1 1) rotate(0) translate(4 242.8)">
<title>dependencies</title>
<polygon fill="white" stroke="transparent" points="-4,4 -4,-242.8 659,-242.8 659,4 -4,4"/>
<text text-anchor="middle" x="327.5" y="-8.2" font-family="sans-serif" font-size="14.00">dependencies</text>
<g id="clust1" class="cluster">
<title>cluster_ReplenishmentOrderHistoryModule</title>
<polygon fill="none" stroke="black" stroke-dasharray="1,5" points="8,-32.8 8,-230.8 647,-230.8 647,-32.8 8,-32.8"/>
</g>
<g id="clust5" class="cluster">
<title>cluster_ReplenishmentOrderHistoryModule_exports</title>
<polygon fill="none" stroke="black" points="261,-170.8 261,-222.8 521,-222.8 521,-170.8 261,-170.8"/>
</g>
<g id="clust4" class="cluster">
<title>cluster_ReplenishmentOrderHistoryModule_imports</title>
<polygon fill="none" stroke="black" points="280,-40.8 280,-92.8 639,-92.8 639,-40.8 280,-40.8"/>
</g>
<g id="clust2" class="cluster">
<title>cluster_ReplenishmentOrderHistoryModule_declarations</title>
<polygon fill="none" stroke="black" points="16,-40.8 16,-92.8 272,-92.8 272,-40.8 16,-40.8"/>
</g>
<!-- ReplenishmentOrderHistoryComponent -->
<g id="node1" class="node">
<title>ReplenishmentOrderHistoryComponent</title>
<polygon fill="#ffffb3" stroke="black" points="263.96,-84.8 24.04,-84.8 24.04,-48.8 263.96,-48.8 263.96,-84.8"/>
<text text-anchor="middle" x="144" y="-62.6" font-family="Times,serif" font-size="14.00">ReplenishmentOrderHistoryComponent</text>
</g>
<!-- ReplenishmentOrderHistoryModule -->
<g id="node2" class="node">
<title>ReplenishmentOrderHistoryModule</title>
<polygon fill="#8dd3c7" stroke="black" points="500.17,-149.8 497.17,-153.8 476.17,-153.8 473.17,-149.8 281.83,-149.8 281.83,-113.8 500.17,-113.8 500.17,-149.8"/>
<text text-anchor="middle" x="391" y="-127.6" font-family="Times,serif" font-size="14.00">ReplenishmentOrderHistoryModule</text>
</g>
<!-- ReplenishmentOrderHistoryComponent&#45;&gt;ReplenishmentOrderHistoryModule -->
<g id="edge1" class="edge">
<title>ReplenishmentOrderHistoryComponent&#45;&gt;ReplenishmentOrderHistoryModule</title>
<path fill="none" stroke="black" d="M144,-84.91C144,-104.14 144,-131.8 144,-131.8 144,-131.8 271.58,-131.8 271.58,-131.8"/>
<polygon fill="black" stroke="black" points="271.58,-135.3 281.58,-131.8 271.58,-128.3 271.58,-135.3"/>
</g>
<!-- ReplenishmentOrderHistoryComponent  -->
<g id="node6" class="node">
<title>ReplenishmentOrderHistoryComponent </title>
<polygon fill="#fb8072" stroke="black" points="512.96,-214.8 269.04,-214.8 269.04,-178.8 512.96,-178.8 512.96,-214.8"/>
<text text-anchor="middle" x="391" y="-192.6" font-family="Times,serif" font-size="14.00">ReplenishmentOrderHistoryComponent </text>
</g>
<!-- ReplenishmentOrderHistoryModule&#45;&gt;ReplenishmentOrderHistoryComponent  -->
<g id="edge5" class="edge">
<title>ReplenishmentOrderHistoryModule&#45;&gt;ReplenishmentOrderHistoryComponent </title>
<path fill="none" stroke="black" stroke-dasharray="5,2" d="M391,-149.91C391,-149.91 391,-168.79 391,-168.79"/>
<polygon fill="black" stroke="black" points="387.5,-168.79 391,-178.79 394.5,-168.79 387.5,-168.79"/>
</g>
<!-- I18nModule -->
<g id="node3" class="node">
<title>I18nModule</title>
<polygon fill="#8dd3c7" stroke="black" points="630.71,-84.8 627.71,-88.8 606.71,-88.8 603.71,-84.8 545.29,-84.8 545.29,-48.8 630.71,-48.8 630.71,-84.8"/>
<text text-anchor="middle" x="588" y="-62.6" font-family="Times,serif" font-size="14.00">I18nModule</text>
</g>
<!-- I18nModule&#45;&gt;ReplenishmentOrderHistoryModule -->
<g id="edge2" class="edge">
<title>I18nModule&#45;&gt;ReplenishmentOrderHistoryModule</title>
<path fill="none" stroke="black" d="M588,-84.91C588,-104.14 588,-131.8 588,-131.8 588,-131.8 510.16,-131.8 510.16,-131.8"/>
<polygon fill="black" stroke="black" points="510.16,-128.3 500.16,-131.8 510.16,-135.3 510.16,-128.3"/>
</g>
<!-- ListNavigationModule -->
<g id="node4" class="node">
<title>ListNavigationModule</title>
<polygon fill="#8dd3c7" stroke="black" points="527.54,-84.8 524.54,-88.8 503.54,-88.8 500.54,-84.8 384.46,-84.8 384.46,-48.8 527.54,-48.8 527.54,-84.8"/>
<text text-anchor="middle" x="456" y="-62.6" font-family="Times,serif" font-size="14.00">ListNavigationModule</text>
</g>
<!-- ListNavigationModule&#45;&gt;ReplenishmentOrderHistoryModule -->
<g id="edge3" class="edge">
<title>ListNavigationModule&#45;&gt;ReplenishmentOrderHistoryModule</title>
<path fill="none" stroke="black" d="M442.16,-84.91C442.16,-84.91 442.16,-103.79 442.16,-103.79"/>
<polygon fill="black" stroke="black" points="438.66,-103.79 442.16,-113.79 445.66,-103.79 438.66,-103.79"/>
</g>
<!-- UrlModule -->
<g id="node5" class="node">
<title>UrlModule</title>
<polygon fill="#8dd3c7" stroke="black" points="366.21,-84.8 363.21,-88.8 342.21,-88.8 339.21,-84.8 287.79,-84.8 287.79,-48.8 366.21,-48.8 366.21,-84.8"/>
<text text-anchor="middle" x="327" y="-62.6" font-family="Times,serif" font-size="14.00">UrlModule</text>
</g>
<!-- UrlModule&#45;&gt;ReplenishmentOrderHistoryModule -->
<g id="edge4" class="edge">
<title>UrlModule&#45;&gt;ReplenishmentOrderHistoryModule</title>
<path fill="none" stroke="black" d="M327,-84.91C327,-84.91 327,-103.79 327,-103.79"/>
<polygon fill="black" stroke="black" points="323.5,-103.79 327,-113.79 330.5,-103.79 323.5,-103.79"/>
</g>
</g>
</svg>
