<?xml version="1.0" encoding="UTF-8" standalone="no"?>
<!DOCTYPE svg PUBLIC "-//W3C//DTD SVG 1.1//EN"
 "http://www.w3.org/Graphics/SVG/1.1/DTD/svg11.dtd">
<!-- Generated by graphviz version 2.40.1 (20161225.0304)
 -->
<!-- Title: dependencies Pages: 1 -->
<svg width="663pt" height="284pt"
 viewBox="0.00 0.00 663.00 284.00" xmlns="http://www.w3.org/2000/svg" xmlns:xlink="http://www.w3.org/1999/xlink">
<g id="graph0" class="graph" transform="scale(1 1) rotate(0) translate(4 280)">
<title>dependencies</title>
<polygon fill="#ffffff" stroke="transparent" points="-4,4 -4,-280 659,-280 659,4 -4,4"/>
<text text-anchor="start" x="306.5091" y="-42.4" font-family="sans-serif" font-weight="bold" font-size="14.00" fill="#000000">Legend</text>
<polygon fill="#ffffb3" stroke="transparent" points="93.5,-10 93.5,-30 113.5,-30 113.5,-10 93.5,-10"/>
<text text-anchor="start" x="117.129" y="-15.4" font-family="sans-serif" font-size="14.00" fill="#000000"> &#160;Declarations</text>
<polygon fill="#8dd3c7" stroke="transparent" points="206.5,-10 206.5,-30 226.5,-30 226.5,-10 206.5,-10"/>
<text text-anchor="start" x="230.2251" y="-15.4" font-family="sans-serif" font-size="14.00" fill="#000000"> &#160;Module</text>
<polygon fill="#80b1d3" stroke="transparent" points="292.5,-10 292.5,-30 312.5,-30 312.5,-10 292.5,-10"/>
<text text-anchor="start" x="316.2812" y="-15.4" font-family="sans-serif" font-size="14.00" fill="#000000"> &#160;Bootstrap</text>
<polygon fill="#fdb462" stroke="transparent" points="389.5,-10 389.5,-30 409.5,-30 409.5,-10 389.5,-10"/>
<text text-anchor="start" x="413.1732" y="-15.4" font-family="sans-serif" font-size="14.00" fill="#000000"> &#160;Providers</text>
<polygon fill="#fb8072" stroke="transparent" points="485.5,-10 485.5,-30 505.5,-30 505.5,-10 485.5,-10"/>
<text text-anchor="start" x="509.2258" y="-15.4" font-family="sans-serif" font-size="14.00" fill="#000000"> &#160;Exports</text>
<g id="clust1" class="cluster">
<title>cluster_ReplenishmentOrderHistoryModule</title>
<polygon fill="none" stroke="#000000" stroke-dasharray="1,5" points="8,-70 8,-268 647,-268 647,-70 8,-70"/>
</g>
<g id="clust2" class="cluster">
<title>cluster_ReplenishmentOrderHistoryModule_declarations</title>
<polygon fill="none" stroke="#000000" points="383,-78 383,-130 639,-130 639,-78 383,-78"/>
</g>
<g id="clust4" class="cluster">
<title>cluster_ReplenishmentOrderHistoryModule_imports</title>
<polygon fill="none" stroke="#000000" points="16,-78 16,-130 375,-130 375,-78 16,-78"/>
</g>
<g id="clust5" class="cluster">
<title>cluster_ReplenishmentOrderHistoryModule_exports</title>
<polygon fill="none" stroke="#000000" points="128,-208 128,-260 388,-260 388,-208 128,-208"/>
</g>
<!-- ReplenishmentOrderHistoryComponent -->
<g id="node1" class="node">
<title>ReplenishmentOrderHistoryComponent</title>
<polygon fill="#ffffb3" stroke="#000000" points="630.9552,-122 391.0448,-122 391.0448,-86 630.9552,-86 630.9552,-122"/>
<text text-anchor="middle" x="511" y="-99.8" font-family="Times,serif" font-size="14.00" fill="#000000">ReplenishmentOrderHistoryComponent</text>
</g>
<!-- ReplenishmentOrderHistoryModule -->
<g id="node2" class="node">
<title>ReplenishmentOrderHistoryModule</title>
<polygon fill="#8dd3c7" stroke="#000000" points="367.1727,-187 364.1727,-191 343.1727,-191 340.1727,-187 148.8273,-187 148.8273,-151 367.1727,-151 367.1727,-187"/>
<text text-anchor="middle" x="258" y="-164.8" font-family="Times,serif" font-size="14.00" fill="#000000">ReplenishmentOrderHistoryModule</text>
</g>
<!-- ReplenishmentOrderHistoryComponent&#45;&gt;ReplenishmentOrderHistoryModule -->
<g id="edge1" class="edge">
<title>ReplenishmentOrderHistoryComponent&#45;&gt;ReplenishmentOrderHistoryModule</title>
<path fill="none" stroke="#000000" d="M511,-122.1061C511,-141.3391 511,-169 511,-169 511,-169 377.1305,-169 377.1305,-169"/>
<polygon fill="#000000" stroke="#000000" points="377.1305,-165.5001 367.1305,-169 377.1304,-172.5001 377.1305,-165.5001"/>
</g>
<!-- ReplenishmentOrderHistoryComponent  -->
<g id="node6" class="node">
<title>ReplenishmentOrderHistoryComponent </title>
<polygon fill="#fb8072" stroke="#000000" points="379.9556,-252 136.0444,-252 136.0444,-216 379.9556,-216 379.9556,-252"/>
<text text-anchor="middle" x="258" y="-229.8" font-family="Times,serif" font-size="14.00" fill="#000000">ReplenishmentOrderHistoryComponent </text>
</g>
<!-- ReplenishmentOrderHistoryModule&#45;&gt;ReplenishmentOrderHistoryComponent  -->
<g id="edge5" class="edge">
<title>ReplenishmentOrderHistoryModule&#45;&gt;ReplenishmentOrderHistoryComponent </title>
<path fill="none" stroke="#000000" stroke-dasharray="5,2" d="M258,-187.1061C258,-187.1061 258,-205.991 258,-205.991"/>
<polygon fill="#000000" stroke="#000000" points="254.5001,-205.9909 258,-215.991 261.5001,-205.991 254.5001,-205.9909"/>
</g>
<!-- I18nModule -->
<g id="node3" class="node">
<title>I18nModule</title>
<polygon fill="#8dd3c7" stroke="#000000" points="366.7107,-122 363.7107,-126 342.7107,-126 339.7107,-122 281.2893,-122 281.2893,-86 366.7107,-86 366.7107,-122"/>
<text text-anchor="middle" x="324" y="-99.8" font-family="Times,serif" font-size="14.00" fill="#000000">I18nModule</text>
</g>
<!-- I18nModule&#45;&gt;ReplenishmentOrderHistoryModule -->
<g id="edge2" class="edge">
<title>I18nModule&#45;&gt;ReplenishmentOrderHistoryModule</title>
<path fill="none" stroke="#000000" d="M324,-122.1061C324,-122.1061 324,-140.991 324,-140.991"/>
<polygon fill="#000000" stroke="#000000" points="320.5001,-140.9909 324,-150.991 327.5001,-140.991 320.5001,-140.9909"/>
</g>
<!-- ListNavigationModule -->
<g id="node4" class="node">
<title>ListNavigationModule</title>
<polygon fill="#8dd3c7" stroke="#000000" points="263.5365,-122 260.5365,-126 239.5365,-126 236.5365,-122 120.4635,-122 120.4635,-86 263.5365,-86 263.5365,-122"/>
<text text-anchor="middle" x="192" y="-99.8" font-family="Times,serif" font-size="14.00" fill="#000000">ListNavigationModule</text>
</g>
<!-- ListNavigationModule&#45;&gt;ReplenishmentOrderHistoryModule -->
<g id="edge3" class="edge">
<title>ListNavigationModule&#45;&gt;ReplenishmentOrderHistoryModule</title>
<path fill="none" stroke="#000000" d="M206.3408,-122.1061C206.3408,-122.1061 206.3408,-140.991 206.3408,-140.991"/>
<polygon fill="#000000" stroke="#000000" points="202.8409,-140.9909 206.3408,-150.991 209.8409,-140.991 202.8409,-140.9909"/>
</g>
<!-- UrlModule -->
<g id="node5" class="node">
<title>UrlModule</title>
<polygon fill="#8dd3c7" stroke="#000000" points="102.2079,-122 99.2079,-126 78.2079,-126 75.2079,-122 23.7921,-122 23.7921,-86 102.2079,-86 102.2079,-122"/>
<text text-anchor="middle" x="63" y="-99.8" font-family="Times,serif" font-size="14.00" fill="#000000">UrlModule</text>
</g>
<!-- UrlModule&#45;&gt;ReplenishmentOrderHistoryModule -->
<g id="edge4" class="edge">
<title>UrlModule&#45;&gt;ReplenishmentOrderHistoryModule</title>
<path fill="none" stroke="#000000" d="M63,-122.1061C63,-141.3391 63,-169 63,-169 63,-169 138.8136,-169 138.8136,-169"/>
<polygon fill="#000000" stroke="#000000" points="138.8136,-172.5001 148.8136,-169 138.8136,-165.5001 138.8136,-172.5001"/>
</g>
</g>
</svg>
