<?xml version="1.0" encoding="UTF-8" standalone="no"?>
<!DOCTYPE svg PUBLIC "-//W3C//DTD SVG 1.1//EN"
 "http://www.w3.org/Graphics/SVG/1.1/DTD/svg11.dtd">
<!-- Generated by graphviz version 2.46.0 (20210119.1425)
 -->
<!-- Title: dependencies Pages: 1 -->
<svg width="663pt" height="284pt"
 viewBox="0.00 0.00 663.00 284.00" xmlns="http://www.w3.org/2000/svg" xmlns:xlink="http://www.w3.org/1999/xlink">
<g id="graph0" class="graph" transform="scale(1 1) rotate(0) translate(4 280)">
<title>dependencies</title>
<polygon fill="white" stroke="transparent" points="-4,4 -4,-280 659,-280 659,4 -4,4"/>
<text text-anchor="start" x="306.51" y="-42.4" font-family="sans-serif" font-weight="bold" font-size="14.00">Legend</text>
<polygon fill="#ffffb3" stroke="transparent" points="93.5,-10 93.5,-30 113.5,-30 113.5,-10 93.5,-10"/>
<text text-anchor="start" x="117.13" y="-15.4" font-family="sans-serif" font-size="14.00"> &#160;Declarations</text>
<polygon fill="#8dd3c7" stroke="transparent" points="206.5,-10 206.5,-30 226.5,-30 226.5,-10 206.5,-10"/>
<text text-anchor="start" x="230.23" y="-15.4" font-family="sans-serif" font-size="14.00"> &#160;Module</text>
<polygon fill="#80b1d3" stroke="transparent" points="292.5,-10 292.5,-30 312.5,-30 312.5,-10 292.5,-10"/>
<text text-anchor="start" x="316.28" y="-15.4" font-family="sans-serif" font-size="14.00"> &#160;Bootstrap</text>
<polygon fill="#fdb462" stroke="transparent" points="389.5,-10 389.5,-30 409.5,-30 409.5,-10 389.5,-10"/>
<text text-anchor="start" x="413.17" y="-15.4" font-family="sans-serif" font-size="14.00"> &#160;Providers</text>
<polygon fill="#fb8072" stroke="transparent" points="485.5,-10 485.5,-30 505.5,-30 505.5,-10 485.5,-10"/>
<text text-anchor="start" x="509.23" y="-15.4" font-family="sans-serif" font-size="14.00"> &#160;Exports</text>
<g id="clust1" class="cluster">
<title>cluster_ReplenishmentOrderHistoryModule</title>
<polygon fill="none" stroke="black" stroke-dasharray="1,5" points="8,-70 8,-268 647,-268 647,-70 8,-70"/>
</g>
<g id="clust4" class="cluster">
<title>cluster_ReplenishmentOrderHistoryModule_imports</title>
<polygon fill="none" stroke="black" points="280,-78 280,-130 639,-130 639,-78 280,-78"/>
</g>
<g id="clust2" class="cluster">
<title>cluster_ReplenishmentOrderHistoryModule_declarations</title>
<polygon fill="none" stroke="black" points="16,-78 16,-130 272,-130 272,-78 16,-78"/>
</g>
<g id="clust5" class="cluster">
<title>cluster_ReplenishmentOrderHistoryModule_exports</title>
<polygon fill="none" stroke="black" points="261,-208 261,-260 521,-260 521,-208 261,-208"/>
</g>
<!-- ReplenishmentOrderHistoryComponent -->
<g id="node1" class="node">
<title>ReplenishmentOrderHistoryComponent</title>
<polygon fill="#ffffb3" stroke="black" points="263.96,-122 24.04,-122 24.04,-86 263.96,-86 263.96,-122"/>
<text text-anchor="middle" x="144" y="-99.8" font-family="Times,serif" font-size="14.00">ReplenishmentOrderHistoryComponent</text>
</g>
<!-- ReplenishmentOrderHistoryModule -->
<g id="node2" class="node">
<title>ReplenishmentOrderHistoryModule</title>
<polygon fill="#8dd3c7" stroke="black" points="500.17,-187 497.17,-191 476.17,-191 473.17,-187 281.83,-187 281.83,-151 500.17,-151 500.17,-187"/>
<text text-anchor="middle" x="391" y="-164.8" font-family="Times,serif" font-size="14.00">ReplenishmentOrderHistoryModule</text>
</g>
<!-- ReplenishmentOrderHistoryComponent&#45;&gt;ReplenishmentOrderHistoryModule -->
<g id="edge1" class="edge">
<title>ReplenishmentOrderHistoryComponent&#45;&gt;ReplenishmentOrderHistoryModule</title>
<path fill="none" stroke="black" d="M144,-122.11C144,-141.34 144,-169 144,-169 144,-169 271.58,-169 271.58,-169"/>
<polygon fill="black" stroke="black" points="271.58,-172.5 281.58,-169 271.58,-165.5 271.58,-172.5"/>
</g>
<!-- ReplenishmentOrderHistoryComponent  -->
<g id="node6" class="node">
<title>ReplenishmentOrderHistoryComponent </title>
<polygon fill="#fb8072" stroke="black" points="512.96,-252 269.04,-252 269.04,-216 512.96,-216 512.96,-252"/>
<text text-anchor="middle" x="391" y="-229.8" font-family="Times,serif" font-size="14.00">ReplenishmentOrderHistoryComponent </text>
</g>
<!-- ReplenishmentOrderHistoryModule&#45;&gt;ReplenishmentOrderHistoryComponent  -->
<g id="edge5" class="edge">
<title>ReplenishmentOrderHistoryModule&#45;&gt;ReplenishmentOrderHistoryComponent </title>
<path fill="none" stroke="black" stroke-dasharray="5,2" d="M391,-187.11C391,-187.11 391,-205.99 391,-205.99"/>
<polygon fill="black" stroke="black" points="387.5,-205.99 391,-215.99 394.5,-205.99 387.5,-205.99"/>
</g>
<!-- I18nModule -->
<g id="node3" class="node">
<title>I18nModule</title>
<polygon fill="#8dd3c7" stroke="black" points="630.71,-122 627.71,-126 606.71,-126 603.71,-122 545.29,-122 545.29,-86 630.71,-86 630.71,-122"/>
<text text-anchor="middle" x="588" y="-99.8" font-family="Times,serif" font-size="14.00">I18nModule</text>
</g>
<!-- I18nModule&#45;&gt;ReplenishmentOrderHistoryModule -->
<g id="edge2" class="edge">
<title>I18nModule&#45;&gt;ReplenishmentOrderHistoryModule</title>
<path fill="none" stroke="black" d="M588,-122.11C588,-141.34 588,-169 588,-169 588,-169 510.16,-169 510.16,-169"/>
<polygon fill="black" stroke="black" points="510.16,-165.5 500.16,-169 510.16,-172.5 510.16,-165.5"/>
</g>
<!-- ListNavigationModule -->
<g id="node4" class="node">
<title>ListNavigationModule</title>
<polygon fill="#8dd3c7" stroke="black" points="527.54,-122 524.54,-126 503.54,-126 500.54,-122 384.46,-122 384.46,-86 527.54,-86 527.54,-122"/>
<text text-anchor="middle" x="456" y="-99.8" font-family="Times,serif" font-size="14.00">ListNavigationModule</text>
</g>
<!-- ListNavigationModule&#45;&gt;ReplenishmentOrderHistoryModule -->
<g id="edge3" class="edge">
<title>ListNavigationModule&#45;&gt;ReplenishmentOrderHistoryModule</title>
<path fill="none" stroke="black" d="M442.16,-122.11C442.16,-122.11 442.16,-140.99 442.16,-140.99"/>
<polygon fill="black" stroke="black" points="438.66,-140.99 442.16,-150.99 445.66,-140.99 438.66,-140.99"/>
</g>
<!-- UrlModule -->
<g id="node5" class="node">
<title>UrlModule</title>
<polygon fill="#8dd3c7" stroke="black" points="366.21,-122 363.21,-126 342.21,-126 339.21,-122 287.79,-122 287.79,-86 366.21,-86 366.21,-122"/>
<text text-anchor="middle" x="327" y="-99.8" font-family="Times,serif" font-size="14.00">UrlModule</text>
</g>
<!-- UrlModule&#45;&gt;ReplenishmentOrderHistoryModule -->
<g id="edge4" class="edge">
<title>UrlModule&#45;&gt;ReplenishmentOrderHistoryModule</title>
<path fill="none" stroke="black" d="M327,-122.11C327,-122.11 327,-140.99 327,-140.99"/>
<polygon fill="black" stroke="black" points="323.5,-140.99 327,-150.99 330.5,-140.99 323.5,-140.99"/>
</g>
</g>
</svg>
