<?xml version="1.0" encoding="UTF-8" standalone="no"?>
<!DOCTYPE svg PUBLIC "-//W3C//DTD SVG 1.1//EN"
 "http://www.w3.org/Graphics/SVG/1.1/DTD/svg11.dtd">
<!-- Generated by graphviz version 2.47.0 (20210316.0004)
 -->
<!-- Title: dependencies Pages: 1 -->
<svg width="663pt" height="284pt"
 viewBox="0.00 0.00 663.00 284.00" xmlns="http://www.w3.org/2000/svg" xmlns:xlink="http://www.w3.org/1999/xlink">
<g id="graph0" class="graph" transform="scale(1 1) rotate(0) translate(4 280)">
<title>dependencies</title>
<polygon fill="white" stroke="transparent" points="-4,4 -4,-280 659,-280 659,4 -4,4"/>
<text text-anchor="start" x="306.51" y="-42.4" font-family="sans-serif" font-weight="bold" font-size="14.00">Legend</text>
<polygon fill="#ffffb3" stroke="transparent" points="93.5,-10 93.5,-30 113.5,-30 113.5,-10 93.5,-10"/>
<text text-anchor="start" x="117.13" y="-15.4" font-family="sans-serif" font-size="14.00"> &#160;Declarations</text>
<polygon fill="#8dd3c7" stroke="transparent" points="206.5,-10 206.5,-30 226.5,-30 226.5,-10 206.5,-10"/>
<text text-anchor="start" x="230.23" y="-15.4" font-family="sans-serif" font-size="14.00"> &#160;Module</text>
<polygon fill="#80b1d3" stroke="transparent" points="292.5,-10 292.5,-30 312.5,-30 312.5,-10 292.5,-10"/>
<text text-anchor="start" x="316.28" y="-15.4" font-family="sans-serif" font-size="14.00"> &#160;Bootstrap</text>
<polygon fill="#fdb462" stroke="transparent" points="389.5,-10 389.5,-30 409.5,-30 409.5,-10 389.5,-10"/>
<text text-anchor="start" x="413.17" y="-15.4" font-family="sans-serif" font-size="14.00"> &#160;Providers</text>
<polygon fill="#fb8072" stroke="transparent" points="485.5,-10 485.5,-30 505.5,-30 505.5,-10 485.5,-10"/>
<text text-anchor="start" x="509.23" y="-15.4" font-family="sans-serif" font-size="14.00"> &#160;Exports</text>
<g id="clust1" class="cluster">
<title>cluster_ReplenishmentOrderHistoryModule</title>
<polygon fill="none" stroke="black" stroke-dasharray="1,5" points="8,-70 8,-268 647,-268 647,-70 8,-70"/>
</g>
<g id="clust2" class="cluster">
<title>cluster_ReplenishmentOrderHistoryModule_declarations</title>
<polygon fill="none" stroke="black" points="383,-78 383,-130 639,-130 639,-78 383,-78"/>
</g>
<g id="clust4" class="cluster">
<title>cluster_ReplenishmentOrderHistoryModule_imports</title>
<polygon fill="none" stroke="black" points="16,-78 16,-130 375,-130 375,-78 16,-78"/>
</g>
<g id="clust5" class="cluster">
<title>cluster_ReplenishmentOrderHistoryModule_exports</title>
<polygon fill="none" stroke="black" points="128,-208 128,-260 388,-260 388,-208 128,-208"/>
</g>
<!-- ReplenishmentOrderHistoryComponent -->
<g id="node1" class="node">
<title>ReplenishmentOrderHistoryComponent</title>
<polygon fill="#ffffb3" stroke="black" points="630.96,-122 391.04,-122 391.04,-86 630.96,-86 630.96,-122"/>
<text text-anchor="middle" x="511" y="-99.8" font-family="Times,serif" font-size="14.00">ReplenishmentOrderHistoryComponent</text>
</g>
<!-- ReplenishmentOrderHistoryModule -->
<g id="node2" class="node">
<title>ReplenishmentOrderHistoryModule</title>
<polygon fill="#8dd3c7" stroke="black" points="367.17,-187 364.17,-191 343.17,-191 340.17,-187 148.83,-187 148.83,-151 367.17,-151 367.17,-187"/>
<text text-anchor="middle" x="258" y="-164.8" font-family="Times,serif" font-size="14.00">ReplenishmentOrderHistoryModule</text>
</g>
<!-- ReplenishmentOrderHistoryComponent&#45;&gt;ReplenishmentOrderHistoryModule -->
<g id="edge1" class="edge">
<title>ReplenishmentOrderHistoryComponent&#45;&gt;ReplenishmentOrderHistoryModule</title>
<path fill="none" stroke="black" d="M511,-122.11C511,-141.34 511,-169 511,-169 511,-169 377.13,-169 377.13,-169"/>
<polygon fill="black" stroke="black" points="377.13,-165.5 367.13,-169 377.13,-172.5 377.13,-165.5"/>
</g>
<!-- ReplenishmentOrderHistoryComponent  -->
<g id="node6" class="node">
<title>ReplenishmentOrderHistoryComponent </title>
<polygon fill="#fb8072" stroke="black" points="379.96,-252 136.04,-252 136.04,-216 379.96,-216 379.96,-252"/>
<text text-anchor="middle" x="258" y="-229.8" font-family="Times,serif" font-size="14.00">ReplenishmentOrderHistoryComponent </text>
</g>
<!-- ReplenishmentOrderHistoryModule&#45;&gt;ReplenishmentOrderHistoryComponent  -->
<g id="edge5" class="edge">
<title>ReplenishmentOrderHistoryModule&#45;&gt;ReplenishmentOrderHistoryComponent </title>
<path fill="none" stroke="black" stroke-dasharray="5,2" d="M258,-187.11C258,-187.11 258,-205.99 258,-205.99"/>
<polygon fill="black" stroke="black" points="254.5,-205.99 258,-215.99 261.5,-205.99 254.5,-205.99"/>
</g>
<!-- I18nModule -->
<g id="node3" class="node">
<title>I18nModule</title>
<polygon fill="#8dd3c7" stroke="black" points="366.71,-122 363.71,-126 342.71,-126 339.71,-122 281.29,-122 281.29,-86 366.71,-86 366.71,-122"/>
<text text-anchor="middle" x="324" y="-99.8" font-family="Times,serif" font-size="14.00">I18nModule</text>
</g>
<!-- I18nModule&#45;&gt;ReplenishmentOrderHistoryModule -->
<g id="edge2" class="edge">
<title>I18nModule&#45;&gt;ReplenishmentOrderHistoryModule</title>
<path fill="none" stroke="black" d="M324,-122.11C324,-122.11 324,-140.99 324,-140.99"/>
<polygon fill="black" stroke="black" points="320.5,-140.99 324,-150.99 327.5,-140.99 320.5,-140.99"/>
</g>
<!-- ListNavigationModule -->
<g id="node4" class="node">
<title>ListNavigationModule</title>
<polygon fill="#8dd3c7" stroke="black" points="263.54,-122 260.54,-126 239.54,-126 236.54,-122 120.46,-122 120.46,-86 263.54,-86 263.54,-122"/>
<text text-anchor="middle" x="192" y="-99.8" font-family="Times,serif" font-size="14.00">ListNavigationModule</text>
</g>
<!-- ListNavigationModule&#45;&gt;ReplenishmentOrderHistoryModule -->
<g id="edge3" class="edge">
<title>ListNavigationModule&#45;&gt;ReplenishmentOrderHistoryModule</title>
<path fill="none" stroke="black" d="M206.34,-122.11C206.34,-122.11 206.34,-140.99 206.34,-140.99"/>
<polygon fill="black" stroke="black" points="202.84,-140.99 206.34,-150.99 209.84,-140.99 202.84,-140.99"/>
</g>
<!-- UrlModule -->
<g id="node5" class="node">
<title>UrlModule</title>
<polygon fill="#8dd3c7" stroke="black" points="102.21,-122 99.21,-126 78.21,-126 75.21,-122 23.79,-122 23.79,-86 102.21,-86 102.21,-122"/>
<text text-anchor="middle" x="63" y="-99.8" font-family="Times,serif" font-size="14.00">UrlModule</text>
</g>
<!-- UrlModule&#45;&gt;ReplenishmentOrderHistoryModule -->
<g id="edge4" class="edge">
<title>UrlModule&#45;&gt;ReplenishmentOrderHistoryModule</title>
<path fill="none" stroke="black" d="M63,-122.11C63,-141.34 63,-169 63,-169 63,-169 138.81,-169 138.81,-169"/>
<polygon fill="black" stroke="black" points="138.81,-172.5 148.81,-169 138.81,-165.5 138.81,-172.5"/>
</g>
</g>
</svg>
