<?xml version="1.0" encoding="UTF-8" standalone="no"?>
<!DOCTYPE svg PUBLIC "-//W3C//DTD SVG 1.1//EN"
 "http://www.w3.org/Graphics/SVG/1.1/DTD/svg11.dtd">
<!-- Generated by graphviz version 2.47.3 (20210619.1520)
 -->
<!-- Title: dependencies Pages: 1 -->
<svg width="663pt" height="247pt"
 viewBox="0.00 0.00 663.00 246.80" xmlns="http://www.w3.org/2000/svg" xmlns:xlink="http://www.w3.org/1999/xlink">
<g id="graph0" class="graph" transform="scale(1 1) rotate(0) translate(4 242.8)">
<title>dependencies</title>
<polygon fill="white" stroke="transparent" points="-4,4 -4,-242.8 659,-242.8 659,4 -4,4"/>
<text text-anchor="middle" x="327.5" y="-8.2" font-family="sans-serif" font-size="14.00">dependencies</text>
<g id="clust1" class="cluster">
<title>cluster_ReplenishmentOrderHistoryModule</title>
<polygon fill="none" stroke="black" stroke-dasharray="1,5" points="8,-32.8 8,-230.8 647,-230.8 647,-32.8 8,-32.8"/>
</g>
<g id="clust5" class="cluster">
<title>cluster_ReplenishmentOrderHistoryModule_exports</title>
<polygon fill="none" stroke="black" points="128,-170.8 128,-222.8 388,-222.8 388,-170.8 128,-170.8"/>
</g>
<g id="clust2" class="cluster">
<title>cluster_ReplenishmentOrderHistoryModule_declarations</title>
<polygon fill="none" stroke="black" points="383,-40.8 383,-92.8 639,-92.8 639,-40.8 383,-40.8"/>
</g>
<g id="clust4" class="cluster">
<title>cluster_ReplenishmentOrderHistoryModule_imports</title>
<polygon fill="none" stroke="black" points="16,-40.8 16,-92.8 375,-92.8 375,-40.8 16,-40.8"/>
</g>
<!-- ReplenishmentOrderHistoryComponent -->
<g id="node1" class="node">
<title>ReplenishmentOrderHistoryComponent</title>
<polygon fill="#ffffb3" stroke="black" points="630.96,-84.8 391.04,-84.8 391.04,-48.8 630.96,-48.8 630.96,-84.8"/>
<text text-anchor="middle" x="511" y="-62.6" font-family="Times,serif" font-size="14.00">ReplenishmentOrderHistoryComponent</text>
</g>
<!-- ReplenishmentOrderHistoryModule -->
<g id="node2" class="node">
<title>ReplenishmentOrderHistoryModule</title>
<polygon fill="#8dd3c7" stroke="black" points="367.17,-149.8 364.17,-153.8 343.17,-153.8 340.17,-149.8 148.83,-149.8 148.83,-113.8 367.17,-113.8 367.17,-149.8"/>
<text text-anchor="middle" x="258" y="-127.6" font-family="Times,serif" font-size="14.00">ReplenishmentOrderHistoryModule</text>
</g>
<!-- ReplenishmentOrderHistoryComponent&#45;&gt;ReplenishmentOrderHistoryModule -->
<g id="edge1" class="edge">
<title>ReplenishmentOrderHistoryComponent&#45;&gt;ReplenishmentOrderHistoryModule</title>
<path fill="none" stroke="black" d="M511,-84.91C511,-104.14 511,-131.8 511,-131.8 511,-131.8 377.13,-131.8 377.13,-131.8"/>
<polygon fill="black" stroke="black" points="377.13,-128.3 367.13,-131.8 377.13,-135.3 377.13,-128.3"/>
</g>
<!-- ReplenishmentOrderHistoryComponent  -->
<g id="node6" class="node">
<title>ReplenishmentOrderHistoryComponent </title>
<polygon fill="#fb8072" stroke="black" points="379.96,-214.8 136.04,-214.8 136.04,-178.8 379.96,-178.8 379.96,-214.8"/>
<text text-anchor="middle" x="258" y="-192.6" font-family="Times,serif" font-size="14.00">ReplenishmentOrderHistoryComponent </text>
</g>
<!-- ReplenishmentOrderHistoryModule&#45;&gt;ReplenishmentOrderHistoryComponent  -->
<g id="edge5" class="edge">
<title>ReplenishmentOrderHistoryModule&#45;&gt;ReplenishmentOrderHistoryComponent </title>
<path fill="none" stroke="black" stroke-dasharray="5,2" d="M258,-149.91C258,-149.91 258,-168.79 258,-168.79"/>
<polygon fill="black" stroke="black" points="254.5,-168.79 258,-178.79 261.5,-168.79 254.5,-168.79"/>
</g>
<!-- I18nModule -->
<g id="node3" class="node">
<title>I18nModule</title>
<polygon fill="#8dd3c7" stroke="black" points="366.71,-84.8 363.71,-88.8 342.71,-88.8 339.71,-84.8 281.29,-84.8 281.29,-48.8 366.71,-48.8 366.71,-84.8"/>
<text text-anchor="middle" x="324" y="-62.6" font-family="Times,serif" font-size="14.00">I18nModule</text>
</g>
<!-- I18nModule&#45;&gt;ReplenishmentOrderHistoryModule -->
<g id="edge2" class="edge">
<title>I18nModule&#45;&gt;ReplenishmentOrderHistoryModule</title>
<path fill="none" stroke="black" d="M324,-84.91C324,-84.91 324,-103.79 324,-103.79"/>
<polygon fill="black" stroke="black" points="320.5,-103.79 324,-113.79 327.5,-103.79 320.5,-103.79"/>
</g>
<!-- ListNavigationModule -->
<g id="node4" class="node">
<title>ListNavigationModule</title>
<polygon fill="#8dd3c7" stroke="black" points="263.54,-84.8 260.54,-88.8 239.54,-88.8 236.54,-84.8 120.46,-84.8 120.46,-48.8 263.54,-48.8 263.54,-84.8"/>
<text text-anchor="middle" x="192" y="-62.6" font-family="Times,serif" font-size="14.00">ListNavigationModule</text>
</g>
<!-- ListNavigationModule&#45;&gt;ReplenishmentOrderHistoryModule -->
<g id="edge3" class="edge">
<title>ListNavigationModule&#45;&gt;ReplenishmentOrderHistoryModule</title>
<path fill="none" stroke="black" d="M206.34,-84.91C206.34,-84.91 206.34,-103.79 206.34,-103.79"/>
<polygon fill="black" stroke="black" points="202.84,-103.79 206.34,-113.79 209.84,-103.79 202.84,-103.79"/>
</g>
<!-- UrlModule -->
<g id="node5" class="node">
<title>UrlModule</title>
<polygon fill="#8dd3c7" stroke="black" points="102.21,-84.8 99.21,-88.8 78.21,-88.8 75.21,-84.8 23.79,-84.8 23.79,-48.8 102.21,-48.8 102.21,-84.8"/>
<text text-anchor="middle" x="63" y="-62.6" font-family="Times,serif" font-size="14.00">UrlModule</text>
</g>
<!-- UrlModule&#45;&gt;ReplenishmentOrderHistoryModule -->
<g id="edge4" class="edge">
<title>UrlModule&#45;&gt;ReplenishmentOrderHistoryModule</title>
<path fill="none" stroke="black" d="M63,-84.91C63,-104.14 63,-131.8 63,-131.8 63,-131.8 138.81,-131.8 138.81,-131.8"/>
<polygon fill="black" stroke="black" points="138.81,-135.3 148.81,-131.8 138.81,-128.3 138.81,-135.3"/>
</g>
</g>
</svg>
