<?xml version="1.0" encoding="UTF-8" standalone="no"?>
<!DOCTYPE svg PUBLIC "-//W3C//DTD SVG 1.1//EN"
 "http://www.w3.org/Graphics/SVG/1.1/DTD/svg11.dtd">
<!-- Generated by graphviz version 2.47.0 (20210316.0004)
 -->
<!-- Title: dependencies Pages: 1 -->
<svg width="1800pt" height="284pt"
 viewBox="0.00 0.00 1800.00 284.00" xmlns="http://www.w3.org/2000/svg" xmlns:xlink="http://www.w3.org/1999/xlink">
<g id="graph0" class="graph" transform="scale(1 1) rotate(0) translate(4 280)">
<title>dependencies</title>
<polygon fill="white" stroke="transparent" points="-4,4 -4,-280 1796,-280 1796,4 -4,4"/>
<text text-anchor="start" x="875.01" y="-42.4" font-family="sans-serif" font-weight="bold" font-size="14.00">Legend</text>
<polygon fill="#ffffb3" stroke="transparent" points="662,-10 662,-30 682,-30 682,-10 662,-10"/>
<text text-anchor="start" x="685.63" y="-15.4" font-family="sans-serif" font-size="14.00"> &#160;Declarations</text>
<polygon fill="#8dd3c7" stroke="transparent" points="775,-10 775,-30 795,-30 795,-10 775,-10"/>
<text text-anchor="start" x="798.73" y="-15.4" font-family="sans-serif" font-size="14.00"> &#160;Module</text>
<polygon fill="#80b1d3" stroke="transparent" points="861,-10 861,-30 881,-30 881,-10 861,-10"/>
<text text-anchor="start" x="884.78" y="-15.4" font-family="sans-serif" font-size="14.00"> &#160;Bootstrap</text>
<polygon fill="#fdb462" stroke="transparent" points="958,-10 958,-30 978,-30 978,-10 958,-10"/>
<text text-anchor="start" x="981.67" y="-15.4" font-family="sans-serif" font-size="14.00"> &#160;Providers</text>
<polygon fill="#fb8072" stroke="transparent" points="1054,-10 1054,-30 1074,-30 1074,-10 1054,-10"/>
<text text-anchor="start" x="1077.73" y="-15.4" font-family="sans-serif" font-size="14.00"> &#160;Exports</text>
<g id="clust1" class="cluster">
<title>cluster_SavedCartDetailsModule</title>
<polygon fill="none" stroke="black" stroke-dasharray="1,5" points="8,-70 8,-268 1784,-268 1784,-70 8,-70"/>
</g>
<g id="clust6" class="cluster">
<title>cluster_SavedCartDetailsModule_imports</title>
<polygon fill="none" stroke="black" points="738,-78 738,-130 1776,-130 1776,-78 738,-78"/>
</g>
<g id="clust2" class="cluster">
<title>cluster_SavedCartDetailsModule_declarations</title>
<polygon fill="none" stroke="black" points="16,-78 16,-130 730,-130 730,-78 16,-78"/>
</g>
<g id="clust7" class="cluster">
<title>cluster_SavedCartDetailsModule_exports</title>
<polygon fill="none" stroke="black" points="694,-208 694,-260 1418,-260 1418,-208 694,-208"/>
</g>
<!-- SavedCartDetailsActionComponent -->
<g id="node1" class="node">
<title>SavedCartDetailsActionComponent</title>
<polygon fill="#ffffb3" stroke="black" points="721.9,-122 504.1,-122 504.1,-86 721.9,-86 721.9,-122"/>
<text text-anchor="middle" x="613" y="-99.8" font-family="Times,serif" font-size="14.00">SavedCartDetailsActionComponent</text>
</g>
<!-- SavedCartDetailsModule -->
<g id="node4" class="node">
<title>SavedCartDetailsModule</title>
<polygon fill="#8dd3c7" stroke="black" points="1143.52,-187 1140.52,-191 1119.52,-191 1116.52,-187 986.48,-187 986.48,-151 1143.52,-151 1143.52,-187"/>
<text text-anchor="middle" x="1065" y="-164.8" font-family="Times,serif" font-size="14.00">SavedCartDetailsModule</text>
</g>
<!-- SavedCartDetailsActionComponent&#45;&gt;SavedCartDetailsModule -->
<g id="edge1" class="edge">
<title>SavedCartDetailsActionComponent&#45;&gt;SavedCartDetailsModule</title>
<path fill="none" stroke="black" d="M711.85,-122.22C711.85,-140.83 711.85,-167 711.85,-167 711.85,-167 976.19,-167 976.19,-167"/>
<polygon fill="black" stroke="black" points="976.19,-170.5 986.19,-167 976.19,-163.5 976.19,-170.5"/>
</g>
<!-- SavedCartDetailsItemsComponent -->
<g id="node2" class="node">
<title>SavedCartDetailsItemsComponent</title>
<polygon fill="#ffffb3" stroke="black" points="486.4,-122 275.6,-122 275.6,-86 486.4,-86 486.4,-122"/>
<text text-anchor="middle" x="381" y="-99.8" font-family="Times,serif" font-size="14.00">SavedCartDetailsItemsComponent</text>
</g>
<!-- SavedCartDetailsItemsComponent&#45;&gt;SavedCartDetailsModule -->
<g id="edge2" class="edge">
<title>SavedCartDetailsItemsComponent&#45;&gt;SavedCartDetailsModule</title>
<path fill="none" stroke="black" d="M381,-122.22C381,-142.37 381,-172 381,-172 381,-172 976.2,-172 976.2,-172"/>
<polygon fill="black" stroke="black" points="976.2,-175.5 986.2,-172 976.2,-168.5 976.2,-175.5"/>
</g>
<!-- SavedCartDetailsOverviewComponent -->
<g id="node3" class="node">
<title>SavedCartDetailsOverviewComponent</title>
<polygon fill="#ffffb3" stroke="black" points="258.49,-122 23.51,-122 23.51,-86 258.49,-86 258.49,-122"/>
<text text-anchor="middle" x="141" y="-99.8" font-family="Times,serif" font-size="14.00">SavedCartDetailsOverviewComponent</text>
</g>
<!-- SavedCartDetailsOverviewComponent&#45;&gt;SavedCartDetailsModule -->
<g id="edge3" class="edge">
<title>SavedCartDetailsOverviewComponent&#45;&gt;SavedCartDetailsModule</title>
<path fill="none" stroke="black" d="M141,-122.04C141,-143.66 141,-177 141,-177 141,-177 976.22,-177 976.22,-177"/>
<polygon fill="black" stroke="black" points="976.22,-180.5 986.22,-177 976.22,-173.5 976.22,-180.5"/>
</g>
<!-- SavedCartDetailsActionComponent  -->
<g id="node14" class="node">
<title>SavedCartDetailsActionComponent </title>
<polygon fill="#fb8072" stroke="black" points="1410.4,-252 1189.6,-252 1189.6,-216 1410.4,-216 1410.4,-252"/>
<text text-anchor="middle" x="1300" y="-229.8" font-family="Times,serif" font-size="14.00">SavedCartDetailsActionComponent </text>
</g>
<!-- SavedCartDetailsModule&#45;&gt;SavedCartDetailsActionComponent  -->
<g id="edge13" class="edge">
<title>SavedCartDetailsModule&#45;&gt;SavedCartDetailsActionComponent </title>
<path fill="none" stroke="black" stroke-dasharray="5,2" d="M1143.66,-182C1184.96,-182 1227.08,-182 1227.08,-182 1227.08,-182 1227.08,-205.81 1227.08,-205.81"/>
<polygon fill="black" stroke="black" points="1223.58,-205.81 1227.08,-215.81 1230.58,-205.81 1223.58,-205.81"/>
</g>
<!-- SavedCartDetailsItemsComponent  -->
<g id="node15" class="node">
<title>SavedCartDetailsItemsComponent </title>
<polygon fill="#fb8072" stroke="black" points="1171.9,-252 958.1,-252 958.1,-216 1171.9,-216 1171.9,-252"/>
<text text-anchor="middle" x="1065" y="-229.8" font-family="Times,serif" font-size="14.00">SavedCartDetailsItemsComponent </text>
</g>
<!-- SavedCartDetailsModule&#45;&gt;SavedCartDetailsItemsComponent  -->
<g id="edge14" class="edge">
<title>SavedCartDetailsModule&#45;&gt;SavedCartDetailsItemsComponent </title>
<path fill="none" stroke="black" stroke-dasharray="5,2" d="M1065,-187.11C1065,-187.11 1065,-205.99 1065,-205.99"/>
<polygon fill="black" stroke="black" points="1061.5,-205.99 1065,-215.99 1068.5,-205.99 1061.5,-205.99"/>
</g>
<!-- SavedCartDetailsOverviewComponent  -->
<g id="node16" class="node">
<title>SavedCartDetailsOverviewComponent </title>
<polygon fill="#fb8072" stroke="black" points="939.99,-252 702.01,-252 702.01,-216 939.99,-216 939.99,-252"/>
<text text-anchor="middle" x="821" y="-229.8" font-family="Times,serif" font-size="14.00">SavedCartDetailsOverviewComponent </text>
</g>
<!-- SavedCartDetailsModule&#45;&gt;SavedCartDetailsOverviewComponent  -->
<g id="edge15" class="edge">
<title>SavedCartDetailsModule&#45;&gt;SavedCartDetailsOverviewComponent </title>
<path fill="none" stroke="black" stroke-dasharray="5,2" d="M986.33,-182C934.05,-182 874.97,-182 874.97,-182 874.97,-182 874.97,-205.81 874.97,-205.81"/>
<polygon fill="black" stroke="black" points="871.47,-205.81 874.97,-215.81 878.47,-205.81 871.47,-205.81"/>
</g>
<!-- AddToCartModule -->
<g id="node5" class="node">
<title>AddToCartModule</title>
<polygon fill="#8dd3c7" stroke="black" points="1767.81,-122 1764.81,-126 1743.81,-126 1740.81,-122 1644.19,-122 1644.19,-86 1767.81,-86 1767.81,-122"/>
<text text-anchor="middle" x="1706" y="-99.8" font-family="Times,serif" font-size="14.00">AddToCartModule</text>
</g>
<!-- AddToCartModule&#45;&gt;SavedCartDetailsModule -->
<g id="edge4" class="edge">
<title>AddToCartModule&#45;&gt;SavedCartDetailsModule</title>
<path fill="none" stroke="black" d="M1706,-122.04C1706,-143.66 1706,-177 1706,-177 1706,-177 1153.6,-177 1153.6,-177"/>
<polygon fill="black" stroke="black" points="1153.6,-173.5 1143.6,-177 1153.6,-180.5 1153.6,-173.5"/>
</g>
<!-- CardModule -->
<g id="node6" class="node">
<title>CardModule</title>
<polygon fill="#8dd3c7" stroke="black" points="1626.26,-122 1623.26,-126 1602.26,-126 1599.26,-122 1539.74,-122 1539.74,-86 1626.26,-86 1626.26,-122"/>
<text text-anchor="middle" x="1583" y="-99.8" font-family="Times,serif" font-size="14.00">CardModule</text>
</g>
<!-- CardModule&#45;&gt;SavedCartDetailsModule -->
<g id="edge5" class="edge">
<title>CardModule&#45;&gt;SavedCartDetailsModule</title>
<path fill="none" stroke="black" d="M1583,-122.22C1583,-142.37 1583,-172 1583,-172 1583,-172 1153.67,-172 1153.67,-172"/>
<polygon fill="black" stroke="black" points="1153.67,-168.5 1143.67,-172 1153.67,-175.5 1153.67,-168.5"/>
</g>
<!-- CartSharedModule -->
<g id="node7" class="node">
<title>CartSharedModule</title>
<polygon fill="#8dd3c7" stroke="black" points="1521.03,-122 1518.03,-126 1497.03,-126 1494.03,-122 1398.97,-122 1398.97,-86 1521.03,-86 1521.03,-122"/>
<text text-anchor="middle" x="1460" y="-99.8" font-family="Times,serif" font-size="14.00">CartSharedModule</text>
</g>
<!-- CartSharedModule&#45;&gt;SavedCartDetailsModule -->
<g id="edge6" class="edge">
<title>CartSharedModule&#45;&gt;SavedCartDetailsModule</title>
<path fill="none" stroke="black" d="M1404.59,-122.22C1404.59,-140.83 1404.59,-167 1404.59,-167 1404.59,-167 1153.76,-167 1153.76,-167"/>
<polygon fill="black" stroke="black" points="1153.76,-163.5 1143.76,-167 1153.76,-170.5 1153.76,-163.5"/>
</g>
<!-- ConfigModule -->
<g id="node8" class="node">
<title>ConfigModule</title>
<polygon fill="#8dd3c7" stroke="black" points="1381.44,-122 1378.44,-126 1357.44,-126 1354.44,-122 1282.56,-122 1282.56,-86 1381.44,-86 1381.44,-122"/>
<text text-anchor="middle" x="1332" y="-99.8" font-family="Times,serif" font-size="14.00">ConfigModule</text>
</g>
<!-- ConfigModule&#45;&gt;SavedCartDetailsModule -->
<g id="edge7" class="edge">
<title>ConfigModule&#45;&gt;SavedCartDetailsModule</title>
<path fill="none" stroke="black" d="M1332,-122.03C1332,-139.06 1332,-162 1332,-162 1332,-162 1153.66,-162 1153.66,-162"/>
<polygon fill="black" stroke="black" points="1153.66,-158.5 1143.66,-162 1153.66,-165.5 1153.66,-158.5"/>
</g>
<!-- I18nModule -->
<g id="node9" class="node">
<title>I18nModule</title>
<polygon fill="#8dd3c7" stroke="black" points="1264.71,-122 1261.71,-126 1240.71,-126 1237.71,-122 1179.29,-122 1179.29,-86 1264.71,-86 1264.71,-122"/>
<text text-anchor="middle" x="1222" y="-99.8" font-family="Times,serif" font-size="14.00">I18nModule</text>
</g>
<!-- I18nModule&#45;&gt;SavedCartDetailsModule -->
<g id="edge8" class="edge">
<title>I18nModule&#45;&gt;SavedCartDetailsModule</title>
<path fill="none" stroke="black" d="M1184.47,-122.24C1184.47,-137.57 1184.47,-157 1184.47,-157 1184.47,-157 1153.69,-157 1153.69,-157"/>
<polygon fill="black" stroke="black" points="1153.69,-153.5 1143.69,-157 1153.69,-160.5 1153.69,-153.5"/>
</g>
<!-- IconModule -->
<g id="node10" class="node">
<title>IconModule</title>
<polygon fill="#8dd3c7" stroke="black" points="1161.43,-122 1158.43,-126 1137.43,-126 1134.43,-122 1076.57,-122 1076.57,-86 1161.43,-86 1161.43,-122"/>
<text text-anchor="middle" x="1119" y="-99.8" font-family="Times,serif" font-size="14.00">IconModule</text>
</g>
<!-- IconModule&#45;&gt;SavedCartDetailsModule -->
<g id="edge9" class="edge">
<title>IconModule&#45;&gt;SavedCartDetailsModule</title>
<path fill="none" stroke="black" d="M1110.27,-122.11C1110.27,-122.11 1110.27,-140.99 1110.27,-140.99"/>
<polygon fill="black" stroke="black" points="1106.77,-140.99 1110.27,-150.99 1113.77,-140.99 1106.77,-140.99"/>
</g>
<!-- MediaModule -->
<g id="node11" class="node">
<title>MediaModule</title>
<polygon fill="#8dd3c7" stroke="black" points="1058.81,-122 1055.81,-126 1034.81,-126 1031.81,-122 963.19,-122 963.19,-86 1058.81,-86 1058.81,-122"/>
<text text-anchor="middle" x="1011" y="-99.8" font-family="Times,serif" font-size="14.00">MediaModule</text>
</g>
<!-- MediaModule&#45;&gt;SavedCartDetailsModule -->
<g id="edge10" class="edge">
<title>MediaModule&#45;&gt;SavedCartDetailsModule</title>
<path fill="none" stroke="black" d="M1022.45,-122.11C1022.45,-122.11 1022.45,-140.99 1022.45,-140.99"/>
<polygon fill="black" stroke="black" points="1018.95,-140.99 1022.45,-150.99 1025.95,-140.99 1018.95,-140.99"/>
</g>
<!-- SpinnerModule -->
<g id="node12" class="node">
<title>SpinnerModule</title>
<polygon fill="#8dd3c7" stroke="black" points="945.6,-122 942.6,-126 921.6,-126 918.6,-122 842.4,-122 842.4,-86 945.6,-86 945.6,-122"/>
<text text-anchor="middle" x="894" y="-99.8" font-family="Times,serif" font-size="14.00">SpinnerModule</text>
</g>
<!-- SpinnerModule&#45;&gt;SavedCartDetailsModule -->
<g id="edge11" class="edge">
<title>SpinnerModule&#45;&gt;SavedCartDetailsModule</title>
<path fill="none" stroke="black" d="M907.48,-122.24C907.48,-137.57 907.48,-157 907.48,-157 907.48,-157 976.24,-157 976.24,-157"/>
<polygon fill="black" stroke="black" points="976.24,-160.5 986.24,-157 976.24,-153.5 976.24,-160.5"/>
</g>
<!-- UrlModule -->
<g id="node13" class="node">
<title>UrlModule</title>
<polygon fill="#8dd3c7" stroke="black" points="824.21,-122 821.21,-126 800.21,-126 797.21,-122 745.79,-122 745.79,-86 824.21,-86 824.21,-122"/>
<text text-anchor="middle" x="785" y="-99.8" font-family="Times,serif" font-size="14.00">UrlModule</text>
</g>
<!-- UrlModule&#45;&gt;SavedCartDetailsModule -->
<g id="edge12" class="edge">
<title>UrlModule&#45;&gt;SavedCartDetailsModule</title>
<path fill="none" stroke="black" d="M785,-122.03C785,-139.06 785,-162 785,-162 785,-162 976.26,-162 976.26,-162"/>
<polygon fill="black" stroke="black" points="976.26,-165.5 986.26,-162 976.26,-158.5 976.26,-165.5"/>
</g>
</g>
</svg>
