<?xml version="1.0" encoding="UTF-8" standalone="no"?>
<!DOCTYPE svg PUBLIC "-//W3C//DTD SVG 1.1//EN"
 "http://www.w3.org/Graphics/SVG/1.1/DTD/svg11.dtd">
<!-- Generated by graphviz version 2.47.3 (20210619.1520)
 -->
<!-- Title: dependencies Pages: 1 -->
<svg width="1800pt" height="247pt"
 viewBox="0.00 0.00 1800.00 246.80" xmlns="http://www.w3.org/2000/svg" xmlns:xlink="http://www.w3.org/1999/xlink">
<g id="graph0" class="graph" transform="scale(1 1) rotate(0) translate(4 242.8)">
<title>dependencies</title>
<polygon fill="white" stroke="transparent" points="-4,4 -4,-242.8 1796,-242.8 1796,4 -4,4"/>
<text text-anchor="middle" x="896" y="-8.2" font-family="sans-serif" font-size="14.00">dependencies</text>
<g id="clust1" class="cluster">
<title>cluster_SavedCartDetailsModule</title>
<polygon fill="none" stroke="black" stroke-dasharray="1,5" points="8,-32.8 8,-230.8 1784,-230.8 1784,-32.8 8,-32.8"/>
</g>
<g id="clust2" class="cluster">
<title>cluster_SavedCartDetailsModule_declarations</title>
<polygon fill="none" stroke="black" points="1062,-40.8 1062,-92.8 1776,-92.8 1776,-40.8 1062,-40.8"/>
</g>
<g id="clust6" class="cluster">
<title>cluster_SavedCartDetailsModule_imports</title>
<polygon fill="none" stroke="black" points="16,-40.8 16,-92.8 1054,-92.8 1054,-40.8 16,-40.8"/>
</g>
<g id="clust7" class="cluster">
<title>cluster_SavedCartDetailsModule_exports</title>
<polygon fill="none" stroke="black" points="303,-170.8 303,-222.8 1027,-222.8 1027,-170.8 303,-170.8"/>
</g>
<!-- SavedCartDetailsActionComponent -->
<g id="node1" class="node">
<title>SavedCartDetailsActionComponent</title>
<polygon fill="#ffffb3" stroke="black" points="1767.9,-84.8 1550.1,-84.8 1550.1,-48.8 1767.9,-48.8 1767.9,-84.8"/>
<text text-anchor="middle" x="1659" y="-62.6" font-family="Times,serif" font-size="14.00">SavedCartDetailsActionComponent</text>
</g>
<!-- SavedCartDetailsModule -->
<g id="node4" class="node">
<title>SavedCartDetailsModule</title>
<polygon fill="#8dd3c7" stroke="black" points="752.52,-149.8 749.52,-153.8 728.52,-153.8 725.52,-149.8 595.48,-149.8 595.48,-113.8 752.52,-113.8 752.52,-149.8"/>
<text text-anchor="middle" x="674" y="-127.6" font-family="Times,serif" font-size="14.00">SavedCartDetailsModule</text>
</g>
<!-- SavedCartDetailsActionComponent&#45;&gt;SavedCartDetailsModule -->
<g id="edge1" class="edge">
<title>SavedCartDetailsActionComponent&#45;&gt;SavedCartDetailsModule</title>
<path fill="none" stroke="black" d="M1659,-84.84C1659,-106.46 1659,-139.8 1659,-139.8 1659,-139.8 762.53,-139.8 762.53,-139.8"/>
<polygon fill="black" stroke="black" points="762.53,-136.3 752.53,-139.8 762.53,-143.3 762.53,-136.3"/>
</g>
<!-- SavedCartDetailsItemsComponent -->
<g id="node2" class="node">
<title>SavedCartDetailsItemsComponent</title>
<polygon fill="#ffffb3" stroke="black" points="1532.4,-84.8 1321.6,-84.8 1321.6,-48.8 1532.4,-48.8 1532.4,-84.8"/>
<text text-anchor="middle" x="1427" y="-62.6" font-family="Times,serif" font-size="14.00">SavedCartDetailsItemsComponent</text>
</g>
<!-- SavedCartDetailsItemsComponent&#45;&gt;SavedCartDetailsModule -->
<g id="edge2" class="edge">
<title>SavedCartDetailsItemsComponent&#45;&gt;SavedCartDetailsModule</title>
<path fill="none" stroke="black" d="M1427,-85.02C1427,-105.17 1427,-134.8 1427,-134.8 1427,-134.8 762.81,-134.8 762.81,-134.8"/>
<polygon fill="black" stroke="black" points="762.81,-131.3 752.81,-134.8 762.81,-138.3 762.81,-131.3"/>
</g>
<!-- SavedCartDetailsOverviewComponent -->
<g id="node3" class="node">
<title>SavedCartDetailsOverviewComponent</title>
<polygon fill="#ffffb3" stroke="black" points="1304.49,-84.8 1069.51,-84.8 1069.51,-48.8 1304.49,-48.8 1304.49,-84.8"/>
<text text-anchor="middle" x="1187" y="-62.6" font-family="Times,serif" font-size="14.00">SavedCartDetailsOverviewComponent</text>
</g>
<!-- SavedCartDetailsOverviewComponent&#45;&gt;SavedCartDetailsModule -->
<g id="edge3" class="edge">
<title>SavedCartDetailsOverviewComponent&#45;&gt;SavedCartDetailsModule</title>
<path fill="none" stroke="black" d="M1187,-85.02C1187,-103.63 1187,-129.8 1187,-129.8 1187,-129.8 762.75,-129.8 762.75,-129.8"/>
<polygon fill="black" stroke="black" points="762.75,-126.3 752.75,-129.8 762.75,-133.3 762.75,-126.3"/>
</g>
<!-- SavedCartDetailsActionComponent  -->
<g id="node14" class="node">
<title>SavedCartDetailsActionComponent </title>
<polygon fill="#fb8072" stroke="black" points="1019.4,-214.8 798.6,-214.8 798.6,-178.8 1019.4,-178.8 1019.4,-214.8"/>
<text text-anchor="middle" x="909" y="-192.6" font-family="Times,serif" font-size="14.00">SavedCartDetailsActionComponent </text>
</g>
<!-- SavedCartDetailsModule&#45;&gt;SavedCartDetailsActionComponent  -->
<g id="edge13" class="edge">
<title>SavedCartDetailsModule&#45;&gt;SavedCartDetailsActionComponent </title>
<path fill="none" stroke="black" stroke-dasharray="5,2" d="M752.59,-144.8C782.01,-144.8 808.44,-144.8 808.44,-144.8 808.44,-144.8 808.44,-168.61 808.44,-168.61"/>
<polygon fill="black" stroke="black" points="804.94,-168.61 808.44,-178.61 811.94,-168.61 804.94,-168.61"/>
</g>
<!-- SavedCartDetailsItemsComponent  -->
<g id="node15" class="node">
<title>SavedCartDetailsItemsComponent </title>
<polygon fill="#fb8072" stroke="black" points="780.9,-214.8 567.1,-214.8 567.1,-178.8 780.9,-178.8 780.9,-214.8"/>
<text text-anchor="middle" x="674" y="-192.6" font-family="Times,serif" font-size="14.00">SavedCartDetailsItemsComponent </text>
</g>
<!-- SavedCartDetailsModule&#45;&gt;SavedCartDetailsItemsComponent  -->
<g id="edge14" class="edge">
<title>SavedCartDetailsModule&#45;&gt;SavedCartDetailsItemsComponent </title>
<path fill="none" stroke="black" stroke-dasharray="5,2" d="M674,-149.91C674,-149.91 674,-168.79 674,-168.79"/>
<polygon fill="black" stroke="black" points="670.5,-168.79 674,-178.79 677.5,-168.79 670.5,-168.79"/>
</g>
<!-- SavedCartDetailsOverviewComponent  -->
<g id="node16" class="node">
<title>SavedCartDetailsOverviewComponent </title>
<polygon fill="#fb8072" stroke="black" points="548.99,-214.8 311.01,-214.8 311.01,-178.8 548.99,-178.8 548.99,-214.8"/>
<text text-anchor="middle" x="430" y="-192.6" font-family="Times,serif" font-size="14.00">SavedCartDetailsOverviewComponent </text>
</g>
<!-- SavedCartDetailsModule&#45;&gt;SavedCartDetailsOverviewComponent  -->
<g id="edge15" class="edge">
<title>SavedCartDetailsModule&#45;&gt;SavedCartDetailsOverviewComponent </title>
<path fill="none" stroke="black" stroke-dasharray="5,2" d="M595.28,-144.8C543.7,-144.8 485.8,-144.8 485.8,-144.8 485.8,-144.8 485.8,-168.61 485.8,-168.61"/>
<polygon fill="black" stroke="black" points="482.3,-168.61 485.8,-178.61 489.3,-168.61 482.3,-168.61"/>
</g>
<!-- AddToCartModule -->
<g id="node5" class="node">
<title>AddToCartModule</title>
<polygon fill="#8dd3c7" stroke="black" points="1045.81,-84.8 1042.81,-88.8 1021.81,-88.8 1018.81,-84.8 922.19,-84.8 922.19,-48.8 1045.81,-48.8 1045.81,-84.8"/>
<text text-anchor="middle" x="984" y="-62.6" font-family="Times,serif" font-size="14.00">AddToCartModule</text>
</g>
<!-- AddToCartModule&#45;&gt;SavedCartDetailsModule -->
<g id="edge4" class="edge">
<title>AddToCartModule&#45;&gt;SavedCartDetailsModule</title>
<path fill="none" stroke="black" d="M970.9,-84.83C970.9,-101.86 970.9,-124.8 970.9,-124.8 970.9,-124.8 762.78,-124.8 762.78,-124.8"/>
<polygon fill="black" stroke="black" points="762.78,-121.3 752.78,-124.8 762.78,-128.3 762.78,-121.3"/>
</g>
<!-- CardModule -->
<g id="node6" class="node">
<title>CardModule</title>
<polygon fill="#8dd3c7" stroke="black" points="904.26,-84.8 901.26,-88.8 880.26,-88.8 877.26,-84.8 817.74,-84.8 817.74,-48.8 904.26,-48.8 904.26,-84.8"/>
<text text-anchor="middle" x="861" y="-62.6" font-family="Times,serif" font-size="14.00">CardModule</text>
</g>
<!-- CardModule&#45;&gt;SavedCartDetailsModule -->
<g id="edge5" class="edge">
<title>CardModule&#45;&gt;SavedCartDetailsModule</title>
<path fill="none" stroke="black" d="M861,-85.04C861,-100.37 861,-119.8 861,-119.8 861,-119.8 762.76,-119.8 762.76,-119.8"/>
<polygon fill="black" stroke="black" points="762.76,-116.3 752.76,-119.8 762.76,-123.3 762.76,-116.3"/>
</g>
<!-- CartSharedModule -->
<g id="node7" class="node">
<title>CartSharedModule</title>
<polygon fill="#8dd3c7" stroke="black" points="799.03,-84.8 796.03,-88.8 775.03,-88.8 772.03,-84.8 676.97,-84.8 676.97,-48.8 799.03,-48.8 799.03,-84.8"/>
<text text-anchor="middle" x="738" y="-62.6" font-family="Times,serif" font-size="14.00">CartSharedModule</text>
</g>
<!-- CartSharedModule&#45;&gt;SavedCartDetailsModule -->
<g id="edge6" class="edge">
<title>CartSharedModule&#45;&gt;SavedCartDetailsModule</title>
<path fill="none" stroke="black" d="M714.75,-84.91C714.75,-84.91 714.75,-103.79 714.75,-103.79"/>
<polygon fill="black" stroke="black" points="711.25,-103.79 714.75,-113.79 718.25,-103.79 711.25,-103.79"/>
</g>
<!-- ConfigModule -->
<g id="node8" class="node">
<title>ConfigModule</title>
<polygon fill="#8dd3c7" stroke="black" points="659.44,-84.8 656.44,-88.8 635.44,-88.8 632.44,-84.8 560.56,-84.8 560.56,-48.8 659.44,-48.8 659.44,-84.8"/>
<text text-anchor="middle" x="610" y="-62.6" font-family="Times,serif" font-size="14.00">ConfigModule</text>
</g>
<!-- ConfigModule&#45;&gt;SavedCartDetailsModule -->
<g id="edge7" class="edge">
<title>ConfigModule&#45;&gt;SavedCartDetailsModule</title>
<path fill="none" stroke="black" d="M627.23,-84.91C627.23,-84.91 627.23,-103.79 627.23,-103.79"/>
<polygon fill="black" stroke="black" points="623.73,-103.79 627.23,-113.79 630.73,-103.79 623.73,-103.79"/>
</g>
<!-- I18nModule -->
<g id="node9" class="node">
<title>I18nModule</title>
<polygon fill="#8dd3c7" stroke="black" points="542.71,-84.8 539.71,-88.8 518.71,-88.8 515.71,-84.8 457.29,-84.8 457.29,-48.8 542.71,-48.8 542.71,-84.8"/>
<text text-anchor="middle" x="500" y="-62.6" font-family="Times,serif" font-size="14.00">I18nModule</text>
</g>
<!-- I18nModule&#45;&gt;SavedCartDetailsModule -->
<g id="edge8" class="edge">
<title>I18nModule&#45;&gt;SavedCartDetailsModule</title>
<path fill="none" stroke="black" d="M514.2,-85.04C514.2,-100.37 514.2,-119.8 514.2,-119.8 514.2,-119.8 585.04,-119.8 585.04,-119.8"/>
<polygon fill="black" stroke="black" points="585.04,-123.3 595.04,-119.8 585.04,-116.3 585.04,-123.3"/>
</g>
<!-- IconModule -->
<g id="node10" class="node">
<title>IconModule</title>
<polygon fill="#8dd3c7" stroke="black" points="439.43,-84.8 436.43,-88.8 415.43,-88.8 412.43,-84.8 354.57,-84.8 354.57,-48.8 439.43,-48.8 439.43,-84.8"/>
<text text-anchor="middle" x="397" y="-62.6" font-family="Times,serif" font-size="14.00">IconModule</text>
</g>
<!-- IconModule&#45;&gt;SavedCartDetailsModule -->
<g id="edge9" class="edge">
<title>IconModule&#45;&gt;SavedCartDetailsModule</title>
<path fill="none" stroke="black" d="M397,-84.83C397,-101.86 397,-124.8 397,-124.8 397,-124.8 585.36,-124.8 585.36,-124.8"/>
<polygon fill="black" stroke="black" points="585.36,-128.3 595.36,-124.8 585.36,-121.3 585.36,-128.3"/>
</g>
<!-- MediaModule -->
<g id="node11" class="node">
<title>MediaModule</title>
<polygon fill="#8dd3c7" stroke="black" points="336.81,-84.8 333.81,-88.8 312.81,-88.8 309.81,-84.8 241.19,-84.8 241.19,-48.8 336.81,-48.8 336.81,-84.8"/>
<text text-anchor="middle" x="289" y="-62.6" font-family="Times,serif" font-size="14.00">MediaModule</text>
</g>
<!-- MediaModule&#45;&gt;SavedCartDetailsModule -->
<g id="edge10" class="edge">
<title>MediaModule&#45;&gt;SavedCartDetailsModule</title>
<path fill="none" stroke="black" d="M323.83,-85.02C323.83,-103.63 323.83,-129.8 323.83,-129.8 323.83,-129.8 585.42,-129.8 585.42,-129.8"/>
<polygon fill="black" stroke="black" points="585.42,-133.3 595.42,-129.8 585.42,-126.3 585.42,-133.3"/>
</g>
<!-- SpinnerModule -->
<g id="node12" class="node">
<title>SpinnerModule</title>
<polygon fill="#8dd3c7" stroke="black" points="223.6,-84.8 220.6,-88.8 199.6,-88.8 196.6,-84.8 120.4,-84.8 120.4,-48.8 223.6,-48.8 223.6,-84.8"/>
<text text-anchor="middle" x="172" y="-62.6" font-family="Times,serif" font-size="14.00">SpinnerModule</text>
</g>
<!-- SpinnerModule&#45;&gt;SavedCartDetailsModule -->
<g id="edge11" class="edge">
<title>SpinnerModule&#45;&gt;SavedCartDetailsModule</title>
<path fill="none" stroke="black" d="M172,-85.02C172,-105.17 172,-134.8 172,-134.8 172,-134.8 585.29,-134.8 585.29,-134.8"/>
<polygon fill="black" stroke="black" points="585.29,-138.3 595.29,-134.8 585.29,-131.3 585.29,-138.3"/>
</g>
<!-- UrlModule -->
<g id="node13" class="node">
<title>UrlModule</title>
<polygon fill="#8dd3c7" stroke="black" points="102.21,-84.8 99.21,-88.8 78.21,-88.8 75.21,-84.8 23.79,-84.8 23.79,-48.8 102.21,-48.8 102.21,-84.8"/>
<text text-anchor="middle" x="63" y="-62.6" font-family="Times,serif" font-size="14.00">UrlModule</text>
</g>
<!-- UrlModule&#45;&gt;SavedCartDetailsModule -->
<g id="edge12" class="edge">
<title>UrlModule&#45;&gt;SavedCartDetailsModule</title>
<path fill="none" stroke="black" d="M63,-84.84C63,-106.46 63,-139.8 63,-139.8 63,-139.8 585.37,-139.8 585.37,-139.8"/>
<polygon fill="black" stroke="black" points="585.37,-143.3 595.37,-139.8 585.37,-136.3 585.37,-143.3"/>
</g>
</g>
</svg>
