<?xml version="1.0" encoding="UTF-8" standalone="no"?>
<!DOCTYPE svg PUBLIC "-//W3C//DTD SVG 1.1//EN"
 "http://www.w3.org/Graphics/SVG/1.1/DTD/svg11.dtd">
<!-- Generated by graphviz version 2.47.0 (20210316.0004)
 -->
<!-- Title: dependencies Pages: 1 -->
<svg width="602pt" height="284pt"
 viewBox="0.00 0.00 602.00 284.00" xmlns="http://www.w3.org/2000/svg" xmlns:xlink="http://www.w3.org/1999/xlink">
<g id="graph0" class="graph" transform="scale(1 1) rotate(0) translate(4 280)">
<title>dependencies</title>
<polygon fill="white" stroke="transparent" points="-4,4 -4,-280 598,-280 598,4 -4,4"/>
<text text-anchor="start" x="276.01" y="-42.4" font-family="sans-serif" font-weight="bold" font-size="14.00">Legend</text>
<polygon fill="#ffffb3" stroke="transparent" points="63,-10 63,-30 83,-30 83,-10 63,-10"/>
<text text-anchor="start" x="86.63" y="-15.4" font-family="sans-serif" font-size="14.00"> &#160;Declarations</text>
<polygon fill="#8dd3c7" stroke="transparent" points="176,-10 176,-30 196,-30 196,-10 176,-10"/>
<text text-anchor="start" x="199.73" y="-15.4" font-family="sans-serif" font-size="14.00"> &#160;Module</text>
<polygon fill="#80b1d3" stroke="transparent" points="262,-10 262,-30 282,-30 282,-10 262,-10"/>
<text text-anchor="start" x="285.78" y="-15.4" font-family="sans-serif" font-size="14.00"> &#160;Bootstrap</text>
<polygon fill="#fdb462" stroke="transparent" points="359,-10 359,-30 379,-30 379,-10 359,-10"/>
<text text-anchor="start" x="382.67" y="-15.4" font-family="sans-serif" font-size="14.00"> &#160;Providers</text>
<polygon fill="#fb8072" stroke="transparent" points="455,-10 455,-30 475,-30 475,-10 455,-10"/>
<text text-anchor="start" x="478.73" y="-15.4" font-family="sans-serif" font-size="14.00"> &#160;Exports</text>
<g id="clust1" class="cluster">
<title>cluster_TruncateTextPopoverModule</title>
<polygon fill="none" stroke="black" stroke-dasharray="1,5" points="8,-70 8,-268 586,-268 586,-70 8,-70"/>
</g>
<g id="clust6" class="cluster">
<title>cluster_TruncateTextPopoverModule_exports</title>
<polygon fill="none" stroke="black" points="127,-208 127,-260 462,-260 462,-208 127,-208"/>
</g>
<g id="clust5" class="cluster">
<title>cluster_TruncateTextPopoverModule_imports</title>
<polygon fill="none" stroke="black" points="352,-78 352,-130 578,-130 578,-78 352,-78"/>
</g>
<g id="clust2" class="cluster">
<title>cluster_TruncateTextPopoverModule_declarations</title>
<polygon fill="none" stroke="black" points="16,-78 16,-130 344,-130 344,-78 16,-78"/>
</g>
<!-- TruncatePipe -->
<g id="node1" class="node">
<title>TruncatePipe</title>
<polygon fill="#ffffb3" stroke="black" points="336.14,-122 245.86,-122 245.86,-86 336.14,-86 336.14,-122"/>
<text text-anchor="middle" x="291" y="-99.8" font-family="Times,serif" font-size="14.00">TruncatePipe</text>
</g>
<!-- TruncateTextPopoverModule -->
<g id="node3" class="node">
<title>TruncateTextPopoverModule</title>
<polygon fill="#8dd3c7" stroke="black" points="412.61,-187 409.61,-191 388.61,-191 385.61,-187 231.39,-187 231.39,-151 412.61,-151 412.61,-187"/>
<text text-anchor="middle" x="322" y="-164.8" font-family="Times,serif" font-size="14.00">TruncateTextPopoverModule</text>
</g>
<!-- TruncatePipe&#45;&gt;TruncateTextPopoverModule -->
<g id="edge1" class="edge">
<title>TruncatePipe&#45;&gt;TruncateTextPopoverModule</title>
<path fill="none" stroke="black" d="M291,-122.11C291,-122.11 291,-140.99 291,-140.99"/>
<polygon fill="black" stroke="black" points="287.5,-140.99 291,-150.99 294.5,-140.99 287.5,-140.99"/>
</g>
<!-- TruncateTextPopoverComponent -->
<g id="node2" class="node">
<title>TruncateTextPopoverComponent</title>
<polygon fill="#ffffb3" stroke="black" points="227.9,-122 24.1,-122 24.1,-86 227.9,-86 227.9,-122"/>
<text text-anchor="middle" x="126" y="-99.8" font-family="Times,serif" font-size="14.00">TruncateTextPopoverComponent</text>
</g>
<!-- TruncateTextPopoverComponent&#45;&gt;TruncateTextPopoverModule -->
<g id="edge2" class="edge">
<title>TruncateTextPopoverComponent&#45;&gt;TruncateTextPopoverModule</title>
<path fill="none" stroke="black" d="M228.06,-104C234.49,-104 238.44,-104 238.44,-104 238.44,-104 238.44,-140.89 238.44,-140.89"/>
<polygon fill="black" stroke="black" points="234.94,-140.89 238.44,-150.89 241.94,-140.89 234.94,-140.89"/>
</g>
<!-- TruncatePipe  -->
<g id="node6" class="node">
<title>TruncatePipe </title>
<polygon fill="#fb8072" stroke="black" points="454.14,-252 359.86,-252 359.86,-216 454.14,-216 454.14,-252"/>
<text text-anchor="middle" x="407" y="-229.8" font-family="Times,serif" font-size="14.00">TruncatePipe </text>
</g>
<!-- TruncateTextPopoverModule&#45;&gt;TruncatePipe  -->
<g id="edge5" class="edge">
<title>TruncateTextPopoverModule&#45;&gt;TruncatePipe </title>
<path fill="none" stroke="black" stroke-dasharray="5,2" d="M386.37,-187.11C386.37,-187.11 386.37,-205.99 386.37,-205.99"/>
<polygon fill="black" stroke="black" points="382.87,-205.99 386.37,-215.99 389.87,-205.99 382.87,-205.99"/>
</g>
<!-- TruncateTextPopoverComponent  -->
<g id="node7" class="node">
<title>TruncateTextPopoverComponent </title>
<polygon fill="#fb8072" stroke="black" points="341.4,-252 134.6,-252 134.6,-216 341.4,-216 341.4,-252"/>
<text text-anchor="middle" x="238" y="-229.8" font-family="Times,serif" font-size="14.00">TruncateTextPopoverComponent </text>
</g>
<!-- TruncateTextPopoverModule&#45;&gt;TruncateTextPopoverComponent  -->
<g id="edge6" class="edge">
<title>TruncateTextPopoverModule&#45;&gt;TruncateTextPopoverComponent </title>
<path fill="none" stroke="black" stroke-dasharray="5,2" d="M286.32,-187.11C286.32,-187.11 286.32,-205.99 286.32,-205.99"/>
<polygon fill="black" stroke="black" points="282.82,-205.99 286.32,-215.99 289.82,-205.99 282.82,-205.99"/>
</g>
<!-- I18nModule -->
<g id="node4" class="node">
<title>I18nModule</title>
<polygon fill="#8dd3c7" stroke="black" points="569.71,-122 566.71,-126 545.71,-126 542.71,-122 484.29,-122 484.29,-86 569.71,-86 569.71,-122"/>
<text text-anchor="middle" x="527" y="-99.8" font-family="Times,serif" font-size="14.00">I18nModule</text>
</g>
<!-- I18nModule&#45;&gt;TruncateTextPopoverModule -->
<g id="edge3" class="edge">
<title>I18nModule&#45;&gt;TruncateTextPopoverModule</title>
<path fill="none" stroke="black" d="M527,-122.11C527,-141.34 527,-169 527,-169 527,-169 422.81,-169 422.81,-169"/>
<polygon fill="black" stroke="black" points="422.81,-165.5 412.81,-169 422.81,-172.5 422.81,-165.5"/>
</g>
<!-- PopoverModule -->
<g id="node5" class="node">
<title>PopoverModule</title>
<polygon fill="#8dd3c7" stroke="black" points="466.21,-122 463.21,-126 442.21,-126 439.21,-122 359.79,-122 359.79,-86 466.21,-86 466.21,-122"/>
<text text-anchor="middle" x="413" y="-99.8" font-family="Times,serif" font-size="14.00">PopoverModule</text>
</g>
<!-- PopoverModule&#45;&gt;TruncateTextPopoverModule -->
<g id="edge4" class="edge">
<title>PopoverModule&#45;&gt;TruncateTextPopoverModule</title>
<path fill="none" stroke="black" d="M386.35,-122.11C386.35,-122.11 386.35,-140.99 386.35,-140.99"/>
<polygon fill="black" stroke="black" points="382.85,-140.99 386.35,-150.99 389.85,-140.99 382.85,-140.99"/>
</g>
</g>
</svg>
