<?xml version="1.0" encoding="UTF-8" standalone="no"?>
<!DOCTYPE svg PUBLIC "-//W3C//DTD SVG 1.1//EN"
 "http://www.w3.org/Graphics/SVG/1.1/DTD/svg11.dtd">
<!-- Generated by graphviz version 2.47.3 (20210619.1520)
 -->
<!-- Title: dependencies Pages: 1 -->
<svg width="602pt" height="247pt"
 viewBox="0.00 0.00 602.00 246.80" xmlns="http://www.w3.org/2000/svg" xmlns:xlink="http://www.w3.org/1999/xlink">
<g id="graph0" class="graph" transform="scale(1 1) rotate(0) translate(4 242.8)">
<title>dependencies</title>
<polygon fill="white" stroke="transparent" points="-4,4 -4,-242.8 598,-242.8 598,4 -4,4"/>
<text text-anchor="middle" x="297" y="-8.2" font-family="sans-serif" font-size="14.00">dependencies</text>
<g id="clust1" class="cluster">
<title>cluster_TruncateTextPopoverModule</title>
<polygon fill="none" stroke="black" stroke-dasharray="1,5" points="8,-32.8 8,-230.8 586,-230.8 586,-32.8 8,-32.8"/>
</g>
<g id="clust5" class="cluster">
<title>cluster_TruncateTextPopoverModule_imports</title>
<polygon fill="none" stroke="black" points="352,-40.8 352,-92.8 578,-92.8 578,-40.8 352,-40.8"/>
</g>
<g id="clust6" class="cluster">
<title>cluster_TruncateTextPopoverModule_exports</title>
<polygon fill="none" stroke="black" points="127,-170.8 127,-222.8 462,-222.8 462,-170.8 127,-170.8"/>
</g>
<g id="clust2" class="cluster">
<title>cluster_TruncateTextPopoverModule_declarations</title>
<polygon fill="none" stroke="black" points="16,-40.8 16,-92.8 344,-92.8 344,-40.8 16,-40.8"/>
</g>
<!-- TruncatePipe -->
<g id="node1" class="node">
<title>TruncatePipe</title>
<polygon fill="#ffffb3" stroke="black" points="336.14,-84.8 245.86,-84.8 245.86,-48.8 336.14,-48.8 336.14,-84.8"/>
<text text-anchor="middle" x="291" y="-62.6" font-family="Times,serif" font-size="14.00">TruncatePipe</text>
</g>
<!-- TruncateTextPopoverModule -->
<g id="node3" class="node">
<title>TruncateTextPopoverModule</title>
<polygon fill="#8dd3c7" stroke="black" points="412.61,-149.8 409.61,-153.8 388.61,-153.8 385.61,-149.8 231.39,-149.8 231.39,-113.8 412.61,-113.8 412.61,-149.8"/>
<text text-anchor="middle" x="322" y="-127.6" font-family="Times,serif" font-size="14.00">TruncateTextPopoverModule</text>
</g>
<!-- TruncatePipe&#45;&gt;TruncateTextPopoverModule -->
<g id="edge1" class="edge">
<title>TruncatePipe&#45;&gt;TruncateTextPopoverModule</title>
<path fill="none" stroke="black" d="M291,-84.91C291,-84.91 291,-103.79 291,-103.79"/>
<polygon fill="black" stroke="black" points="287.5,-103.79 291,-113.79 294.5,-103.79 287.5,-103.79"/>
</g>
<!-- TruncateTextPopoverComponent -->
<g id="node2" class="node">
<title>TruncateTextPopoverComponent</title>
<polygon fill="#ffffb3" stroke="black" points="227.9,-84.8 24.1,-84.8 24.1,-48.8 227.9,-48.8 227.9,-84.8"/>
<text text-anchor="middle" x="126" y="-62.6" font-family="Times,serif" font-size="14.00">TruncateTextPopoverComponent</text>
</g>
<!-- TruncateTextPopoverComponent&#45;&gt;TruncateTextPopoverModule -->
<g id="edge2" class="edge">
<title>TruncateTextPopoverComponent&#45;&gt;TruncateTextPopoverModule</title>
<path fill="none" stroke="black" d="M228.06,-66.8C234.49,-66.8 238.44,-66.8 238.44,-66.8 238.44,-66.8 238.44,-103.69 238.44,-103.69"/>
<polygon fill="black" stroke="black" points="234.94,-103.69 238.44,-113.69 241.94,-103.69 234.94,-103.69"/>
</g>
<!-- TruncatePipe  -->
<g id="node6" class="node">
<title>TruncatePipe </title>
<polygon fill="#fb8072" stroke="black" points="454.14,-214.8 359.86,-214.8 359.86,-178.8 454.14,-178.8 454.14,-214.8"/>
<text text-anchor="middle" x="407" y="-192.6" font-family="Times,serif" font-size="14.00">TruncatePipe </text>
</g>
<!-- TruncateTextPopoverModule&#45;&gt;TruncatePipe  -->
<g id="edge5" class="edge">
<title>TruncateTextPopoverModule&#45;&gt;TruncatePipe </title>
<path fill="none" stroke="black" stroke-dasharray="5,2" d="M386.37,-149.91C386.37,-149.91 386.37,-168.79 386.37,-168.79"/>
<polygon fill="black" stroke="black" points="382.87,-168.79 386.37,-178.79 389.87,-168.79 382.87,-168.79"/>
</g>
<!-- TruncateTextPopoverComponent  -->
<g id="node7" class="node">
<title>TruncateTextPopoverComponent </title>
<polygon fill="#fb8072" stroke="black" points="341.4,-214.8 134.6,-214.8 134.6,-178.8 341.4,-178.8 341.4,-214.8"/>
<text text-anchor="middle" x="238" y="-192.6" font-family="Times,serif" font-size="14.00">TruncateTextPopoverComponent </text>
</g>
<!-- TruncateTextPopoverModule&#45;&gt;TruncateTextPopoverComponent  -->
<g id="edge6" class="edge">
<title>TruncateTextPopoverModule&#45;&gt;TruncateTextPopoverComponent </title>
<path fill="none" stroke="black" stroke-dasharray="5,2" d="M286.32,-149.91C286.32,-149.91 286.32,-168.79 286.32,-168.79"/>
<polygon fill="black" stroke="black" points="282.82,-168.79 286.32,-178.79 289.82,-168.79 282.82,-168.79"/>
</g>
<!-- I18nModule -->
<g id="node4" class="node">
<title>I18nModule</title>
<polygon fill="#8dd3c7" stroke="black" points="569.71,-84.8 566.71,-88.8 545.71,-88.8 542.71,-84.8 484.29,-84.8 484.29,-48.8 569.71,-48.8 569.71,-84.8"/>
<text text-anchor="middle" x="527" y="-62.6" font-family="Times,serif" font-size="14.00">I18nModule</text>
</g>
<!-- I18nModule&#45;&gt;TruncateTextPopoverModule -->
<g id="edge3" class="edge">
<title>I18nModule&#45;&gt;TruncateTextPopoverModule</title>
<path fill="none" stroke="black" d="M527,-84.91C527,-104.14 527,-131.8 527,-131.8 527,-131.8 422.81,-131.8 422.81,-131.8"/>
<polygon fill="black" stroke="black" points="422.81,-128.3 412.81,-131.8 422.81,-135.3 422.81,-128.3"/>
</g>
<!-- PopoverModule -->
<g id="node5" class="node">
<title>PopoverModule</title>
<polygon fill="#8dd3c7" stroke="black" points="466.21,-84.8 463.21,-88.8 442.21,-88.8 439.21,-84.8 359.79,-84.8 359.79,-48.8 466.21,-48.8 466.21,-84.8"/>
<text text-anchor="middle" x="413" y="-62.6" font-family="Times,serif" font-size="14.00">PopoverModule</text>
</g>
<!-- PopoverModule&#45;&gt;TruncateTextPopoverModule -->
<g id="edge4" class="edge">
<title>PopoverModule&#45;&gt;TruncateTextPopoverModule</title>
<path fill="none" stroke="black" d="M386.35,-84.91C386.35,-84.91 386.35,-103.79 386.35,-103.79"/>
<polygon fill="black" stroke="black" points="382.85,-103.79 386.35,-113.79 389.85,-103.79 382.85,-103.79"/>
</g>
</g>
</svg>
