<?xml version="1.0" encoding="UTF-8" standalone="no"?>
<!DOCTYPE svg PUBLIC "-//W3C//DTD SVG 1.1//EN"
 "http://www.w3.org/Graphics/SVG/1.1/DTD/svg11.dtd">
<!-- Generated by graphviz version 2.47.3 (20210619.1520)
 -->
<!-- Title: dependencies Pages: 1 -->
<svg width="1431pt" height="247pt"
 viewBox="0.00 0.00 1431.00 246.80" xmlns="http://www.w3.org/2000/svg" xmlns:xlink="http://www.w3.org/1999/xlink">
<g id="graph0" class="graph" transform="scale(1 1) rotate(0) translate(4 242.8)">
<title>dependencies</title>
<polygon fill="white" stroke="transparent" points="-4,4 -4,-242.8 1427,-242.8 1427,4 -4,4"/>
<text text-anchor="middle" x="711.5" y="-8.2" font-family="sans-serif" font-size="14.00">dependencies</text>
<g id="clust1" class="cluster">
<title>cluster_MyCouponsModule</title>
<polygon fill="none" stroke="black" stroke-dasharray="1,5" points="8,-32.8 8,-230.8 1415,-230.8 1415,-32.8 8,-32.8"/>
</g>
<g id="clust2" class="cluster">
<title>cluster_MyCouponsModule_declarations</title>
<polygon fill="none" stroke="black" points="711,-40.8 711,-92.8 1407,-92.8 1407,-40.8 711,-40.8"/>
</g>
<g id="clust8" class="cluster">
<title>cluster_MyCouponsModule_exports</title>
<polygon fill="none" stroke="black" points="427,-170.8 427,-222.8 779,-222.8 779,-170.8 427,-170.8"/>
</g>
<g id="clust7" class="cluster">
<title>cluster_MyCouponsModule_imports</title>
<polygon fill="none" stroke="black" points="16,-40.8 16,-92.8 703,-92.8 703,-40.8 16,-40.8"/>
</g>
<!-- CouponCardComponent -->
<g id="node1" class="node">
<title>CouponCardComponent</title>
<polygon fill="#ffffb3" stroke="black" points="1399.38,-84.8 1246.62,-84.8 1246.62,-48.8 1399.38,-48.8 1399.38,-84.8"/>
<text text-anchor="middle" x="1323" y="-62.6" font-family="Times,serif" font-size="14.00">CouponCardComponent</text>
</g>
<!-- MyCouponsModule -->
<g id="node5" class="node">
<title>MyCouponsModule</title>
<polygon fill="#8dd3c7" stroke="black" points="664.28,-149.8 661.28,-153.8 640.28,-153.8 637.28,-149.8 535.72,-149.8 535.72,-113.8 664.28,-113.8 664.28,-149.8"/>
<text text-anchor="middle" x="600" y="-127.6" font-family="Times,serif" font-size="14.00">MyCouponsModule</text>
</g>
<!-- CouponCardComponent&#45;&gt;MyCouponsModule -->
<g id="edge1" class="edge">
<title>CouponCardComponent&#45;&gt;MyCouponsModule</title>
<path fill="none" stroke="black" d="M1323,-84.81C1323,-107.29 1323,-142.8 1323,-142.8 1323,-142.8 674.48,-142.8 674.48,-142.8"/>
<polygon fill="black" stroke="black" points="674.48,-139.3 664.48,-142.8 674.48,-146.3 674.48,-139.3"/>
</g>
<!-- CouponClaimComponent -->
<g id="node2" class="node">
<title>CouponClaimComponent</title>
<polygon fill="#ffffb3" stroke="black" points="1228.89,-84.8 1069.11,-84.8 1069.11,-48.8 1228.89,-48.8 1228.89,-84.8"/>
<text text-anchor="middle" x="1149" y="-62.6" font-family="Times,serif" font-size="14.00">CouponClaimComponent</text>
</g>
<!-- CouponClaimComponent&#45;&gt;MyCouponsModule -->
<g id="edge2" class="edge">
<title>CouponClaimComponent&#45;&gt;MyCouponsModule</title>
<path fill="none" stroke="black" d="M1149,-84.93C1149,-105.37 1149,-135.8 1149,-135.8 1149,-135.8 674.32,-135.8 674.32,-135.8"/>
<polygon fill="black" stroke="black" points="674.32,-132.3 664.32,-135.8 674.32,-139.3 674.32,-132.3"/>
</g>
<!-- CouponDialogComponent -->
<g id="node3" class="node">
<title>CouponDialogComponent</title>
<polygon fill="#ffffb3" stroke="black" points="1050.77,-84.8 887.23,-84.8 887.23,-48.8 1050.77,-48.8 1050.77,-84.8"/>
<text text-anchor="middle" x="969" y="-62.6" font-family="Times,serif" font-size="14.00">CouponDialogComponent</text>
</g>
<!-- CouponDialogComponent&#45;&gt;MyCouponsModule -->
<g id="edge3" class="edge">
<title>CouponDialogComponent&#45;&gt;MyCouponsModule</title>
<path fill="none" stroke="black" d="M969,-85.07C969,-103.36 969,-128.8 969,-128.8 969,-128.8 674.7,-128.8 674.7,-128.8"/>
<polygon fill="black" stroke="black" points="674.7,-125.3 664.7,-128.8 674.7,-132.3 674.7,-125.3"/>
</g>
<!-- MyCouponsComponent -->
<g id="node4" class="node">
<title>MyCouponsComponent</title>
<polygon fill="#ffffb3" stroke="black" points="869.06,-84.8 718.94,-84.8 718.94,-48.8 869.06,-48.8 869.06,-84.8"/>
<text text-anchor="middle" x="794" y="-62.6" font-family="Times,serif" font-size="14.00">MyCouponsComponent</text>
</g>
<!-- MyCouponsComponent&#45;&gt;MyCouponsModule -->
<g id="edge4" class="edge">
<title>MyCouponsComponent&#45;&gt;MyCouponsModule</title>
<path fill="none" stroke="black" d="M744.71,-84.81C744.71,-100.85 744.71,-121.8 744.71,-121.8 744.71,-121.8 674.31,-121.8 674.31,-121.8"/>
<polygon fill="black" stroke="black" points="674.31,-118.3 664.31,-121.8 674.31,-125.3 674.31,-118.3"/>
</g>
<!-- CouponClaimComponent  -->
<g id="node12" class="node">
<title>CouponClaimComponent </title>
<polygon fill="#fb8072" stroke="black" points="770.89,-214.8 607.11,-214.8 607.11,-178.8 770.89,-178.8 770.89,-214.8"/>
<text text-anchor="middle" x="689" y="-192.6" font-family="Times,serif" font-size="14.00">CouponClaimComponent </text>
</g>
<!-- MyCouponsModule&#45;&gt;CouponClaimComponent  -->
<g id="edge11" class="edge">
<title>MyCouponsModule&#45;&gt;CouponClaimComponent </title>
<path fill="none" stroke="black" stroke-dasharray="5,2" d="M635.85,-149.91C635.85,-149.91 635.85,-168.79 635.85,-168.79"/>
<polygon fill="black" stroke="black" points="632.35,-168.79 635.85,-178.79 639.35,-168.79 632.35,-168.79"/>
</g>
<!-- MyCouponsComponent  -->
<g id="node13" class="node">
<title>MyCouponsComponent </title>
<polygon fill="#fb8072" stroke="black" points="589.06,-214.8 434.94,-214.8 434.94,-178.8 589.06,-178.8 589.06,-214.8"/>
<text text-anchor="middle" x="512" y="-192.6" font-family="Times,serif" font-size="14.00">MyCouponsComponent </text>
</g>
<!-- MyCouponsModule&#45;&gt;MyCouponsComponent  -->
<g id="edge12" class="edge">
<title>MyCouponsModule&#45;&gt;MyCouponsComponent </title>
<path fill="none" stroke="black" stroke-dasharray="5,2" d="M562.32,-149.91C562.32,-149.91 562.32,-168.79 562.32,-168.79"/>
<polygon fill="black" stroke="black" points="558.82,-168.79 562.32,-178.79 565.82,-168.79 558.82,-168.79"/>
</g>
<!-- CardModule -->
<g id="node6" class="node">
<title>CardModule</title>
<polygon fill="#8dd3c7" stroke="black" points="695.26,-84.8 692.26,-88.8 671.26,-88.8 668.26,-84.8 608.74,-84.8 608.74,-48.8 695.26,-48.8 695.26,-84.8"/>
<text text-anchor="middle" x="652" y="-62.6" font-family="Times,serif" font-size="14.00">CardModule</text>
</g>
<!-- CardModule&#45;&gt;MyCouponsModule -->
<g id="edge5" class="edge">
<title>CardModule&#45;&gt;MyCouponsModule</title>
<path fill="none" stroke="black" d="M636.5,-84.91C636.5,-84.91 636.5,-103.79 636.5,-103.79"/>
<polygon fill="black" stroke="black" points="633,-103.79 636.5,-113.79 640,-103.79 633,-103.79"/>
</g>
<!-- I18nModule -->
<g id="node7" class="node">
<title>I18nModule</title>
<polygon fill="#8dd3c7" stroke="black" points="590.71,-84.8 587.71,-88.8 566.71,-88.8 563.71,-84.8 505.29,-84.8 505.29,-48.8 590.71,-48.8 590.71,-84.8"/>
<text text-anchor="middle" x="548" y="-62.6" font-family="Times,serif" font-size="14.00">I18nModule</text>
</g>
<!-- I18nModule&#45;&gt;MyCouponsModule -->
<g id="edge6" class="edge">
<title>I18nModule&#45;&gt;MyCouponsModule</title>
<path fill="none" stroke="black" d="M563.11,-84.91C563.11,-84.91 563.11,-103.79 563.11,-103.79"/>
<polygon fill="black" stroke="black" points="559.61,-103.79 563.11,-113.79 566.61,-103.79 559.61,-103.79"/>
</g>
<!-- IconModule -->
<g id="node8" class="node">
<title>IconModule</title>
<polygon fill="#8dd3c7" stroke="black" points="487.43,-84.8 484.43,-88.8 463.43,-88.8 460.43,-84.8 402.57,-84.8 402.57,-48.8 487.43,-48.8 487.43,-84.8"/>
<text text-anchor="middle" x="445" y="-62.6" font-family="Times,serif" font-size="14.00">IconModule</text>
</g>
<!-- IconModule&#45;&gt;MyCouponsModule -->
<g id="edge7" class="edge">
<title>IconModule&#45;&gt;MyCouponsModule</title>
<path fill="none" stroke="black" d="M461.09,-84.81C461.09,-100.85 461.09,-121.8 461.09,-121.8 461.09,-121.8 525.43,-121.8 525.43,-121.8"/>
<polygon fill="black" stroke="black" points="525.43,-125.3 535.43,-121.8 525.43,-118.3 525.43,-125.3"/>
</g>
<!-- ListNavigationModule -->
<g id="node9" class="node">
<title>ListNavigationModule</title>
<polygon fill="#8dd3c7" stroke="black" points="384.54,-84.8 381.54,-88.8 360.54,-88.8 357.54,-84.8 241.46,-84.8 241.46,-48.8 384.54,-48.8 384.54,-84.8"/>
<text text-anchor="middle" x="313" y="-62.6" font-family="Times,serif" font-size="14.00">ListNavigationModule</text>
</g>
<!-- ListNavigationModule&#45;&gt;MyCouponsModule -->
<g id="edge8" class="edge">
<title>ListNavigationModule&#45;&gt;MyCouponsModule</title>
<path fill="none" stroke="black" d="M313,-85.07C313,-103.36 313,-128.8 313,-128.8 313,-128.8 525.59,-128.8 525.59,-128.8"/>
<polygon fill="black" stroke="black" points="525.59,-132.3 535.59,-128.8 525.59,-125.3 525.59,-132.3"/>
</g>
<!-- SpinnerModule -->
<g id="node10" class="node">
<title>SpinnerModule</title>
<polygon fill="#8dd3c7" stroke="black" points="223.6,-84.8 220.6,-88.8 199.6,-88.8 196.6,-84.8 120.4,-84.8 120.4,-48.8 223.6,-48.8 223.6,-84.8"/>
<text text-anchor="middle" x="172" y="-62.6" font-family="Times,serif" font-size="14.00">SpinnerModule</text>
</g>
<!-- SpinnerModule&#45;&gt;MyCouponsModule -->
<g id="edge9" class="edge">
<title>SpinnerModule&#45;&gt;MyCouponsModule</title>
<path fill="none" stroke="black" d="M172,-84.93C172,-105.37 172,-135.8 172,-135.8 172,-135.8 525.46,-135.8 525.46,-135.8"/>
<polygon fill="black" stroke="black" points="525.46,-139.3 535.46,-135.8 525.46,-132.3 525.46,-139.3"/>
</g>
<!-- UrlModule -->
<g id="node11" class="node">
<title>UrlModule</title>
<polygon fill="#8dd3c7" stroke="black" points="102.21,-84.8 99.21,-88.8 78.21,-88.8 75.21,-84.8 23.79,-84.8 23.79,-48.8 102.21,-48.8 102.21,-84.8"/>
<text text-anchor="middle" x="63" y="-62.6" font-family="Times,serif" font-size="14.00">UrlModule</text>
</g>
<!-- UrlModule&#45;&gt;MyCouponsModule -->
<g id="edge10" class="edge">
<title>UrlModule&#45;&gt;MyCouponsModule</title>
<path fill="none" stroke="black" d="M63,-84.81C63,-107.29 63,-142.8 63,-142.8 63,-142.8 525.49,-142.8 525.49,-142.8"/>
<polygon fill="black" stroke="black" points="525.49,-146.3 535.49,-142.8 525.49,-139.3 525.49,-146.3"/>
</g>
</g>
</svg>
