<?xml version="1.0" encoding="UTF-8" standalone="no"?>
<!DOCTYPE svg PUBLIC "-//W3C//DTD SVG 1.1//EN"
 "http://www.w3.org/Graphics/SVG/1.1/DTD/svg11.dtd">
<!-- Generated by graphviz version 2.47.0 (20210316.0004)
 -->
<!-- Title: dependencies Pages: 1 -->
<svg width="1431pt" height="284pt"
 viewBox="0.00 0.00 1431.00 284.00" xmlns="http://www.w3.org/2000/svg" xmlns:xlink="http://www.w3.org/1999/xlink">
<g id="graph0" class="graph" transform="scale(1 1) rotate(0) translate(4 280)">
<title>dependencies</title>
<polygon fill="white" stroke="transparent" points="-4,4 -4,-280 1427,-280 1427,4 -4,4"/>
<text text-anchor="start" x="690.51" y="-42.4" font-family="sans-serif" font-weight="bold" font-size="14.00">Legend</text>
<polygon fill="#ffffb3" stroke="transparent" points="477.5,-10 477.5,-30 497.5,-30 497.5,-10 477.5,-10"/>
<text text-anchor="start" x="501.13" y="-15.4" font-family="sans-serif" font-size="14.00"> &#160;Declarations</text>
<polygon fill="#8dd3c7" stroke="transparent" points="590.5,-10 590.5,-30 610.5,-30 610.5,-10 590.5,-10"/>
<text text-anchor="start" x="614.23" y="-15.4" font-family="sans-serif" font-size="14.00"> &#160;Module</text>
<polygon fill="#80b1d3" stroke="transparent" points="676.5,-10 676.5,-30 696.5,-30 696.5,-10 676.5,-10"/>
<text text-anchor="start" x="700.28" y="-15.4" font-family="sans-serif" font-size="14.00"> &#160;Bootstrap</text>
<polygon fill="#fdb462" stroke="transparent" points="773.5,-10 773.5,-30 793.5,-30 793.5,-10 773.5,-10"/>
<text text-anchor="start" x="797.17" y="-15.4" font-family="sans-serif" font-size="14.00"> &#160;Providers</text>
<polygon fill="#fb8072" stroke="transparent" points="869.5,-10 869.5,-30 889.5,-30 889.5,-10 869.5,-10"/>
<text text-anchor="start" x="893.23" y="-15.4" font-family="sans-serif" font-size="14.00"> &#160;Exports</text>
<g id="clust1" class="cluster">
<title>cluster_MyCouponsModule</title>
<polygon fill="none" stroke="black" stroke-dasharray="1,5" points="8,-70 8,-268 1415,-268 1415,-70 8,-70"/>
</g>
<g id="clust2" class="cluster">
<title>cluster_MyCouponsModule_declarations</title>
<polygon fill="none" stroke="black" points="711,-78 711,-130 1407,-130 1407,-78 711,-78"/>
</g>
<g id="clust8" class="cluster">
<title>cluster_MyCouponsModule_exports</title>
<polygon fill="none" stroke="black" points="427,-208 427,-260 779,-260 779,-208 427,-208"/>
</g>
<g id="clust7" class="cluster">
<title>cluster_MyCouponsModule_imports</title>
<polygon fill="none" stroke="black" points="16,-78 16,-130 703,-130 703,-78 16,-78"/>
</g>
<!-- CouponCardComponent -->
<g id="node1" class="node">
<title>CouponCardComponent</title>
<polygon fill="#ffffb3" stroke="black" points="1399.38,-122 1246.62,-122 1246.62,-86 1399.38,-86 1399.38,-122"/>
<text text-anchor="middle" x="1323" y="-99.8" font-family="Times,serif" font-size="14.00">CouponCardComponent</text>
</g>
<!-- MyCouponsModule -->
<g id="node5" class="node">
<title>MyCouponsModule</title>
<polygon fill="#8dd3c7" stroke="black" points="664.28,-187 661.28,-191 640.28,-191 637.28,-187 535.72,-187 535.72,-151 664.28,-151 664.28,-187"/>
<text text-anchor="middle" x="600" y="-164.8" font-family="Times,serif" font-size="14.00">MyCouponsModule</text>
</g>
<!-- CouponCardComponent&#45;&gt;MyCouponsModule -->
<g id="edge1" class="edge">
<title>CouponCardComponent&#45;&gt;MyCouponsModule</title>
<path fill="none" stroke="black" d="M1323,-122.01C1323,-144.49 1323,-180 1323,-180 1323,-180 674.48,-180 674.48,-180"/>
<polygon fill="black" stroke="black" points="674.48,-176.5 664.48,-180 674.48,-183.5 674.48,-176.5"/>
</g>
<!-- CouponClaimComponent -->
<g id="node2" class="node">
<title>CouponClaimComponent</title>
<polygon fill="#ffffb3" stroke="black" points="1228.89,-122 1069.11,-122 1069.11,-86 1228.89,-86 1228.89,-122"/>
<text text-anchor="middle" x="1149" y="-99.8" font-family="Times,serif" font-size="14.00">CouponClaimComponent</text>
</g>
<!-- CouponClaimComponent&#45;&gt;MyCouponsModule -->
<g id="edge2" class="edge">
<title>CouponClaimComponent&#45;&gt;MyCouponsModule</title>
<path fill="none" stroke="black" d="M1149,-122.13C1149,-142.57 1149,-173 1149,-173 1149,-173 674.32,-173 674.32,-173"/>
<polygon fill="black" stroke="black" points="674.32,-169.5 664.32,-173 674.32,-176.5 674.32,-169.5"/>
</g>
<!-- CouponDialogComponent -->
<g id="node3" class="node">
<title>CouponDialogComponent</title>
<polygon fill="#ffffb3" stroke="black" points="1050.77,-122 887.23,-122 887.23,-86 1050.77,-86 1050.77,-122"/>
<text text-anchor="middle" x="969" y="-99.8" font-family="Times,serif" font-size="14.00">CouponDialogComponent</text>
</g>
<!-- CouponDialogComponent&#45;&gt;MyCouponsModule -->
<g id="edge3" class="edge">
<title>CouponDialogComponent&#45;&gt;MyCouponsModule</title>
<path fill="none" stroke="black" d="M969,-122.27C969,-140.56 969,-166 969,-166 969,-166 674.7,-166 674.7,-166"/>
<polygon fill="black" stroke="black" points="674.7,-162.5 664.7,-166 674.7,-169.5 674.7,-162.5"/>
</g>
<!-- MyCouponsComponent -->
<g id="node4" class="node">
<title>MyCouponsComponent</title>
<polygon fill="#ffffb3" stroke="black" points="869.06,-122 718.94,-122 718.94,-86 869.06,-86 869.06,-122"/>
<text text-anchor="middle" x="794" y="-99.8" font-family="Times,serif" font-size="14.00">MyCouponsComponent</text>
</g>
<!-- MyCouponsComponent&#45;&gt;MyCouponsModule -->
<g id="edge4" class="edge">
<title>MyCouponsComponent&#45;&gt;MyCouponsModule</title>
<path fill="none" stroke="black" d="M744.71,-122.01C744.71,-138.05 744.71,-159 744.71,-159 744.71,-159 674.31,-159 674.31,-159"/>
<polygon fill="black" stroke="black" points="674.31,-155.5 664.31,-159 674.31,-162.5 674.31,-155.5"/>
</g>
<!-- CouponClaimComponent  -->
<g id="node12" class="node">
<title>CouponClaimComponent </title>
<polygon fill="#fb8072" stroke="black" points="770.89,-252 607.11,-252 607.11,-216 770.89,-216 770.89,-252"/>
<text text-anchor="middle" x="689" y="-229.8" font-family="Times,serif" font-size="14.00">CouponClaimComponent </text>
</g>
<!-- MyCouponsModule&#45;&gt;CouponClaimComponent  -->
<g id="edge11" class="edge">
<title>MyCouponsModule&#45;&gt;CouponClaimComponent </title>
<path fill="none" stroke="black" stroke-dasharray="5,2" d="M635.85,-187.11C635.85,-187.11 635.85,-205.99 635.85,-205.99"/>
<polygon fill="black" stroke="black" points="632.35,-205.99 635.85,-215.99 639.35,-205.99 632.35,-205.99"/>
</g>
<!-- MyCouponsComponent  -->
<g id="node13" class="node">
<title>MyCouponsComponent </title>
<polygon fill="#fb8072" stroke="black" points="589.06,-252 434.94,-252 434.94,-216 589.06,-216 589.06,-252"/>
<text text-anchor="middle" x="512" y="-229.8" font-family="Times,serif" font-size="14.00">MyCouponsComponent </text>
</g>
<!-- MyCouponsModule&#45;&gt;MyCouponsComponent  -->
<g id="edge12" class="edge">
<title>MyCouponsModule&#45;&gt;MyCouponsComponent </title>
<path fill="none" stroke="black" stroke-dasharray="5,2" d="M562.32,-187.11C562.32,-187.11 562.32,-205.99 562.32,-205.99"/>
<polygon fill="black" stroke="black" points="558.82,-205.99 562.32,-215.99 565.82,-205.99 558.82,-205.99"/>
</g>
<!-- CardModule -->
<g id="node6" class="node">
<title>CardModule</title>
<polygon fill="#8dd3c7" stroke="black" points="695.26,-122 692.26,-126 671.26,-126 668.26,-122 608.74,-122 608.74,-86 695.26,-86 695.26,-122"/>
<text text-anchor="middle" x="652" y="-99.8" font-family="Times,serif" font-size="14.00">CardModule</text>
</g>
<!-- CardModule&#45;&gt;MyCouponsModule -->
<g id="edge5" class="edge">
<title>CardModule&#45;&gt;MyCouponsModule</title>
<path fill="none" stroke="black" d="M636.5,-122.11C636.5,-122.11 636.5,-140.99 636.5,-140.99"/>
<polygon fill="black" stroke="black" points="633,-140.99 636.5,-150.99 640,-140.99 633,-140.99"/>
</g>
<!-- I18nModule -->
<g id="node7" class="node">
<title>I18nModule</title>
<polygon fill="#8dd3c7" stroke="black" points="590.71,-122 587.71,-126 566.71,-126 563.71,-122 505.29,-122 505.29,-86 590.71,-86 590.71,-122"/>
<text text-anchor="middle" x="548" y="-99.8" font-family="Times,serif" font-size="14.00">I18nModule</text>
</g>
<!-- I18nModule&#45;&gt;MyCouponsModule -->
<g id="edge6" class="edge">
<title>I18nModule&#45;&gt;MyCouponsModule</title>
<path fill="none" stroke="black" d="M563.11,-122.11C563.11,-122.11 563.11,-140.99 563.11,-140.99"/>
<polygon fill="black" stroke="black" points="559.61,-140.99 563.11,-150.99 566.61,-140.99 559.61,-140.99"/>
</g>
<!-- IconModule -->
<g id="node8" class="node">
<title>IconModule</title>
<polygon fill="#8dd3c7" stroke="black" points="487.43,-122 484.43,-126 463.43,-126 460.43,-122 402.57,-122 402.57,-86 487.43,-86 487.43,-122"/>
<text text-anchor="middle" x="445" y="-99.8" font-family="Times,serif" font-size="14.00">IconModule</text>
</g>
<!-- IconModule&#45;&gt;MyCouponsModule -->
<g id="edge7" class="edge">
<title>IconModule&#45;&gt;MyCouponsModule</title>
<path fill="none" stroke="black" d="M461.09,-122.01C461.09,-138.05 461.09,-159 461.09,-159 461.09,-159 525.43,-159 525.43,-159"/>
<polygon fill="black" stroke="black" points="525.43,-162.5 535.43,-159 525.43,-155.5 525.43,-162.5"/>
</g>
<!-- ListNavigationModule -->
<g id="node9" class="node">
<title>ListNavigationModule</title>
<polygon fill="#8dd3c7" stroke="black" points="384.54,-122 381.54,-126 360.54,-126 357.54,-122 241.46,-122 241.46,-86 384.54,-86 384.54,-122"/>
<text text-anchor="middle" x="313" y="-99.8" font-family="Times,serif" font-size="14.00">ListNavigationModule</text>
</g>
<!-- ListNavigationModule&#45;&gt;MyCouponsModule -->
<g id="edge8" class="edge">
<title>ListNavigationModule&#45;&gt;MyCouponsModule</title>
<path fill="none" stroke="black" d="M313,-122.27C313,-140.56 313,-166 313,-166 313,-166 525.59,-166 525.59,-166"/>
<polygon fill="black" stroke="black" points="525.59,-169.5 535.59,-166 525.59,-162.5 525.59,-169.5"/>
</g>
<!-- SpinnerModule -->
<g id="node10" class="node">
<title>SpinnerModule</title>
<polygon fill="#8dd3c7" stroke="black" points="223.6,-122 220.6,-126 199.6,-126 196.6,-122 120.4,-122 120.4,-86 223.6,-86 223.6,-122"/>
<text text-anchor="middle" x="172" y="-99.8" font-family="Times,serif" font-size="14.00">SpinnerModule</text>
</g>
<!-- SpinnerModule&#45;&gt;MyCouponsModule -->
<g id="edge9" class="edge">
<title>SpinnerModule&#45;&gt;MyCouponsModule</title>
<path fill="none" stroke="black" d="M172,-122.13C172,-142.57 172,-173 172,-173 172,-173 525.46,-173 525.46,-173"/>
<polygon fill="black" stroke="black" points="525.46,-176.5 535.46,-173 525.46,-169.5 525.46,-176.5"/>
</g>
<!-- UrlModule -->
<g id="node11" class="node">
<title>UrlModule</title>
<polygon fill="#8dd3c7" stroke="black" points="102.21,-122 99.21,-126 78.21,-126 75.21,-122 23.79,-122 23.79,-86 102.21,-86 102.21,-122"/>
<text text-anchor="middle" x="63" y="-99.8" font-family="Times,serif" font-size="14.00">UrlModule</text>
</g>
<!-- UrlModule&#45;&gt;MyCouponsModule -->
<g id="edge10" class="edge">
<title>UrlModule&#45;&gt;MyCouponsModule</title>
<path fill="none" stroke="black" d="M63,-122.01C63,-144.49 63,-180 63,-180 63,-180 525.49,-180 525.49,-180"/>
<polygon fill="black" stroke="black" points="525.49,-183.5 535.49,-180 525.49,-176.5 525.49,-183.5"/>
</g>
</g>
</svg>
