<?xml version="1.0" encoding="UTF-8" standalone="no"?>
<!DOCTYPE svg PUBLIC "-//W3C//DTD SVG 1.1//EN"
 "http://www.w3.org/Graphics/SVG/1.1/DTD/svg11.dtd">
<!-- Generated by graphviz version 2.40.1 (20161225.0304)
 -->
<!-- Title: dependencies Pages: 1 -->
<svg width="624pt" height="284pt"
 viewBox="0.00 0.00 624.00 284.00" xmlns="http://www.w3.org/2000/svg" xmlns:xlink="http://www.w3.org/1999/xlink">
<g id="graph0" class="graph" transform="scale(1 1) rotate(0) translate(4 280)">
<title>dependencies</title>
<polygon fill="#ffffff" stroke="transparent" points="-4,4 -4,-280 620,-280 620,4 -4,4"/>
<text text-anchor="start" x="287.0091" y="-42.4" font-family="sans-serif" font-weight="bold" font-size="14.00" fill="#000000">Legend</text>
<polygon fill="#ffffb3" stroke="transparent" points="74,-10 74,-30 94,-30 94,-10 74,-10"/>
<text text-anchor="start" x="97.629" y="-15.4" font-family="sans-serif" font-size="14.00" fill="#000000"> &#160;Declarations</text>
<polygon fill="#8dd3c7" stroke="transparent" points="187,-10 187,-30 207,-30 207,-10 187,-10"/>
<text text-anchor="start" x="210.7251" y="-15.4" font-family="sans-serif" font-size="14.00" fill="#000000"> &#160;Module</text>
<polygon fill="#80b1d3" stroke="transparent" points="273,-10 273,-30 293,-30 293,-10 273,-10"/>
<text text-anchor="start" x="296.7812" y="-15.4" font-family="sans-serif" font-size="14.00" fill="#000000"> &#160;Bootstrap</text>
<polygon fill="#fdb462" stroke="transparent" points="370,-10 370,-30 390,-30 390,-10 370,-10"/>
<text text-anchor="start" x="393.6732" y="-15.4" font-family="sans-serif" font-size="14.00" fill="#000000"> &#160;Providers</text>
<polygon fill="#fb8072" stroke="transparent" points="466,-10 466,-30 486,-30 486,-10 466,-10"/>
<text text-anchor="start" x="489.7258" y="-15.4" font-family="sans-serif" font-size="14.00" fill="#000000"> &#160;Exports</text>
<g id="clust1" class="cluster">
<title>cluster_CheckoutProgressMobileTopModule</title>
<polygon fill="none" stroke="#000000" stroke-dasharray="1,5" points="8,-70 8,-268 608,-268 608,-70 8,-70"/>
</g>
<g id="clust2" class="cluster">
<title>cluster_CheckoutProgressMobileTopModule_declarations</title>
<polygon fill="none" stroke="#000000" points="338,-78 338,-130 600,-130 600,-78 338,-78"/>
</g>
<g id="clust4" class="cluster">
<title>cluster_CheckoutProgressMobileTopModule_imports</title>
<polygon fill="none" stroke="#000000" points="16,-78 16,-130 330,-130 330,-78 16,-78"/>
</g>
<g id="clust5" class="cluster">
<title>cluster_CheckoutProgressMobileTopModule_exports</title>
<polygon fill="none" stroke="#000000" points="140,-208 140,-260 406,-260 406,-208 140,-208"/>
</g>
<!-- CheckoutProgressMobileTopComponent -->
<g id="node1" class="node">
<title>CheckoutProgressMobileTopComponent</title>
<polygon fill="#ffffb3" stroke="#000000" points="592.1895,-122 345.8105,-122 345.8105,-86 592.1895,-86 592.1895,-122"/>
<text text-anchor="middle" x="469" y="-99.8" font-family="Times,serif" font-size="14.00" fill="#000000">CheckoutProgressMobileTopComponent</text>
</g>
<!-- CheckoutProgressMobileTopModule -->
<g id="node2" class="node">
<title>CheckoutProgressMobileTopModule</title>
<polygon fill="#8dd3c7" stroke="#000000" points="385.4072,-187 382.4072,-191 361.4072,-191 358.4072,-187 160.5928,-187 160.5928,-151 385.4072,-151 385.4072,-187"/>
<text text-anchor="middle" x="273" y="-164.8" font-family="Times,serif" font-size="14.00" fill="#000000">CheckoutProgressMobileTopModule</text>
</g>
<!-- CheckoutProgressMobileTopComponent&#45;&gt;CheckoutProgressMobileTopModule -->
<g id="edge1" class="edge">
<title>CheckoutProgressMobileTopComponent&#45;&gt;CheckoutProgressMobileTopModule</title>
<path fill="none" stroke="#000000" d="M365.5544,-122.1061C365.5544,-122.1061 365.5544,-140.991 365.5544,-140.991"/>
<polygon fill="#000000" stroke="#000000" points="362.0544,-140.9909 365.5544,-150.991 369.0544,-140.991 362.0544,-140.9909"/>
</g>
<!-- CheckoutProgressMobileTopComponent  -->
<g id="node6" class="node">
<title>CheckoutProgressMobileTopComponent </title>
<polygon fill="#fb8072" stroke="#000000" points="397.6896,-252 148.3104,-252 148.3104,-216 397.6896,-216 397.6896,-252"/>
<text text-anchor="middle" x="273" y="-229.8" font-family="Times,serif" font-size="14.00" fill="#000000">CheckoutProgressMobileTopComponent </text>
</g>
<!-- CheckoutProgressMobileTopModule&#45;&gt;CheckoutProgressMobileTopComponent  -->
<g id="edge6" class="edge">
<title>CheckoutProgressMobileTopModule&#45;&gt;CheckoutProgressMobileTopComponent </title>
<path fill="none" stroke="#000000" stroke-dasharray="5,2" d="M273,-187.1061C273,-187.1061 273,-205.991 273,-205.991"/>
<polygon fill="#000000" stroke="#000000" points="269.5001,-205.9909 273,-215.991 276.5001,-205.991 269.5001,-205.9909"/>
</g>
<!-- ConfigModule -->
<g id="node3" class="node">
<title>ConfigModule</title>
<polygon fill="#8dd3c7" stroke="#000000" points="322.4386,-122 319.4386,-126 298.4386,-126 295.4386,-122 223.5614,-122 223.5614,-86 322.4386,-86 322.4386,-122"/>
<text text-anchor="middle" x="273" y="-99.8" font-family="Times,serif" font-size="14.00" fill="#000000">ConfigModule</text>
</g>
<!-- ConfigModule&#45;&gt;CheckoutProgressMobileTopModule -->
<g id="edge2" class="edge">
<title>ConfigModule&#45;&gt;CheckoutProgressMobileTopModule</title>
<path fill="none" stroke="#000000" d="M256.5937,-122.1061C256.5937,-122.1061 256.5937,-140.991 256.5937,-140.991"/>
<polygon fill="#000000" stroke="#000000" points="253.0938,-140.9909 256.5937,-150.991 260.0938,-140.991 253.0938,-140.9909"/>
</g>
<!-- ConfigModule&#45;&gt;CheckoutProgressMobileTopModule -->
<g id="edge3" class="edge">
<title>ConfigModule&#45;&gt;CheckoutProgressMobileTopModule</title>
<path fill="none" stroke="#000000" d="M289.4063,-122.1061C289.4063,-122.1061 289.4063,-140.991 289.4063,-140.991"/>
<polygon fill="#000000" stroke="#000000" points="285.9064,-140.9909 289.4063,-150.991 292.9064,-140.991 285.9064,-140.9909"/>
</g>
<!-- I18nModule -->
<g id="node4" class="node">
<title>I18nModule</title>
<polygon fill="#8dd3c7" stroke="#000000" points="205.7107,-122 202.7107,-126 181.7107,-126 178.7107,-122 120.2893,-122 120.2893,-86 205.7107,-86 205.7107,-122"/>
<text text-anchor="middle" x="163" y="-99.8" font-family="Times,serif" font-size="14.00" fill="#000000">I18nModule</text>
</g>
<!-- I18nModule&#45;&gt;CheckoutProgressMobileTopModule -->
<g id="edge4" class="edge">
<title>I18nModule&#45;&gt;CheckoutProgressMobileTopModule</title>
<path fill="none" stroke="#000000" d="M183.2009,-122.1061C183.2009,-122.1061 183.2009,-140.991 183.2009,-140.991"/>
<polygon fill="#000000" stroke="#000000" points="179.701,-140.9909 183.2009,-150.991 186.701,-140.991 179.701,-140.9909"/>
</g>
<!-- UrlModule -->
<g id="node5" class="node">
<title>UrlModule</title>
<polygon fill="#8dd3c7" stroke="#000000" points="102.2079,-122 99.2079,-126 78.2079,-126 75.2079,-122 23.7921,-122 23.7921,-86 102.2079,-86 102.2079,-122"/>
<text text-anchor="middle" x="63" y="-99.8" font-family="Times,serif" font-size="14.00" fill="#000000">UrlModule</text>
</g>
<!-- UrlModule&#45;&gt;CheckoutProgressMobileTopModule -->
<g id="edge5" class="edge">
<title>UrlModule&#45;&gt;CheckoutProgressMobileTopModule</title>
<path fill="none" stroke="#000000" d="M63,-122.1061C63,-141.3391 63,-169 63,-169 63,-169 150.6226,-169 150.6226,-169"/>
<polygon fill="#000000" stroke="#000000" points="150.6226,-172.5001 160.6226,-169 150.6226,-165.5001 150.6226,-172.5001"/>
</g>
</g>
</svg>
