<?xml version="1.0" encoding="UTF-8" standalone="no"?>
<!DOCTYPE svg PUBLIC "-//W3C//DTD SVG 1.1//EN"
 "http://www.w3.org/Graphics/SVG/1.1/DTD/svg11.dtd">
<!-- Generated by graphviz version 2.47.3 (20210619.1520)
 -->
<!-- Title: dependencies Pages: 1 -->
<svg width="508pt" height="247pt"
 viewBox="0.00 0.00 508.00 246.80" xmlns="http://www.w3.org/2000/svg" xmlns:xlink="http://www.w3.org/1999/xlink">
<g id="graph0" class="graph" transform="scale(1 1) rotate(0) translate(4 242.8)">
<title>dependencies</title>
<polygon fill="white" stroke="transparent" points="-4,4 -4,-242.8 504,-242.8 504,4 -4,4"/>
<text text-anchor="middle" x="250" y="-8.2" font-family="sans-serif" font-size="14.00">dependencies</text>
<g id="clust1" class="cluster">
<title>cluster_CheckoutProgressMobileTopModule</title>
<polygon fill="none" stroke="black" stroke-dasharray="1,5" points="8,-32.8 8,-230.8 492,-230.8 492,-32.8 8,-32.8"/>
</g>
<g id="clust4" class="cluster">
<title>cluster_CheckoutProgressMobileTopModule_imports</title>
<polygon fill="none" stroke="black" points="286,-40.8 286,-92.8 484,-92.8 484,-40.8 286,-40.8"/>
</g>
<g id="clust5" class="cluster">
<title>cluster_CheckoutProgressMobileTopModule_exports</title>
<polygon fill="none" stroke="black" points="200,-170.8 200,-222.8 466,-222.8 466,-170.8 200,-170.8"/>
</g>
<g id="clust2" class="cluster">
<title>cluster_CheckoutProgressMobileTopModule_declarations</title>
<polygon fill="none" stroke="black" points="16,-40.8 16,-92.8 278,-92.8 278,-40.8 16,-40.8"/>
</g>
<!-- CheckoutProgressMobileTopComponent -->
<g id="node1" class="node">
<title>CheckoutProgressMobileTopComponent</title>
<polygon fill="#ffffb3" stroke="black" points="270.19,-84.8 23.81,-84.8 23.81,-48.8 270.19,-48.8 270.19,-84.8"/>
<text text-anchor="middle" x="147" y="-62.6" font-family="Times,serif" font-size="14.00">CheckoutProgressMobileTopComponent</text>
</g>
<!-- CheckoutProgressMobileTopModule -->
<g id="node2" class="node">
<title>CheckoutProgressMobileTopModule</title>
<polygon fill="#8dd3c7" stroke="black" points="445.41,-149.8 442.41,-153.8 421.41,-153.8 418.41,-149.8 220.59,-149.8 220.59,-113.8 445.41,-113.8 445.41,-149.8"/>
<text text-anchor="middle" x="333" y="-127.6" font-family="Times,serif" font-size="14.00">CheckoutProgressMobileTopModule</text>
</g>
<!-- CheckoutProgressMobileTopComponent&#45;&gt;CheckoutProgressMobileTopModule -->
<g id="edge1" class="edge">
<title>CheckoutProgressMobileTopComponent&#45;&gt;CheckoutProgressMobileTopModule</title>
<path fill="none" stroke="black" d="M245.45,-84.91C245.45,-84.91 245.45,-103.79 245.45,-103.79"/>
<polygon fill="black" stroke="black" points="241.95,-103.79 245.45,-113.79 248.95,-103.79 241.95,-103.79"/>
</g>
<!-- CheckoutProgressMobileTopComponent  -->
<g id="node5" class="node">
<title>CheckoutProgressMobileTopComponent </title>
<polygon fill="#fb8072" stroke="black" points="457.69,-214.8 208.31,-214.8 208.31,-178.8 457.69,-178.8 457.69,-214.8"/>
<text text-anchor="middle" x="333" y="-192.6" font-family="Times,serif" font-size="14.00">CheckoutProgressMobileTopComponent </text>
</g>
<!-- CheckoutProgressMobileTopModule&#45;&gt;CheckoutProgressMobileTopComponent  -->
<g id="edge4" class="edge">
<title>CheckoutProgressMobileTopModule&#45;&gt;CheckoutProgressMobileTopComponent </title>
<path fill="none" stroke="black" stroke-dasharray="5,2" d="M333,-149.91C333,-149.91 333,-168.79 333,-168.79"/>
<polygon fill="black" stroke="black" points="329.5,-168.79 333,-178.79 336.5,-168.79 329.5,-168.79"/>
</g>
<!-- I18nModule -->
<g id="node3" class="node">
<title>I18nModule</title>
<polygon fill="#8dd3c7" stroke="black" points="475.71,-84.8 472.71,-88.8 451.71,-88.8 448.71,-84.8 390.29,-84.8 390.29,-48.8 475.71,-48.8 475.71,-84.8"/>
<text text-anchor="middle" x="433" y="-62.6" font-family="Times,serif" font-size="14.00">I18nModule</text>
</g>
<!-- I18nModule&#45;&gt;CheckoutProgressMobileTopModule -->
<g id="edge2" class="edge">
<title>I18nModule&#45;&gt;CheckoutProgressMobileTopModule</title>
<path fill="none" stroke="black" d="M417.8,-84.91C417.8,-84.91 417.8,-103.79 417.8,-103.79"/>
<polygon fill="black" stroke="black" points="414.3,-103.79 417.8,-113.79 421.3,-103.79 414.3,-103.79"/>
</g>
<!-- UrlModule -->
<g id="node4" class="node">
<title>UrlModule</title>
<polygon fill="#8dd3c7" stroke="black" points="372.21,-84.8 369.21,-88.8 348.21,-88.8 345.21,-84.8 293.79,-84.8 293.79,-48.8 372.21,-48.8 372.21,-84.8"/>
<text text-anchor="middle" x="333" y="-62.6" font-family="Times,serif" font-size="14.00">UrlModule</text>
</g>
<!-- UrlModule&#45;&gt;CheckoutProgressMobileTopModule -->
<g id="edge3" class="edge">
<title>UrlModule&#45;&gt;CheckoutProgressMobileTopModule</title>
<path fill="none" stroke="black" d="M333,-84.91C333,-84.91 333,-103.79 333,-103.79"/>
<polygon fill="black" stroke="black" points="329.5,-103.79 333,-113.79 336.5,-103.79 329.5,-103.79"/>
</g>
</g>
</svg>
