<?xml version="1.0" encoding="UTF-8" standalone="no"?>
<!DOCTYPE svg PUBLIC "-//W3C//DTD SVG 1.1//EN"
 "http://www.w3.org/Graphics/SVG/1.1/DTD/svg11.dtd">
<!-- Generated by graphviz version 2.40.1 (20161225.0304)
 -->
<!-- Title: dependencies Pages: 1 -->
<svg width="530pt" height="284pt"
 viewBox="0.00 0.00 530.00 284.00" xmlns="http://www.w3.org/2000/svg" xmlns:xlink="http://www.w3.org/1999/xlink">
<g id="graph0" class="graph" transform="scale(1 1) rotate(0) translate(4 280)">
<title>dependencies</title>
<polygon fill="#ffffff" stroke="transparent" points="-4,4 -4,-280 526,-280 526,4 -4,4"/>
<text text-anchor="start" x="240.0091" y="-42.4" font-family="sans-serif" font-weight="bold" font-size="14.00" fill="#000000">Legend</text>
<polygon fill="#ffffb3" stroke="transparent" points="27,-10 27,-30 47,-30 47,-10 27,-10"/>
<text text-anchor="start" x="50.629" y="-15.4" font-family="sans-serif" font-size="14.00" fill="#000000"> &#160;Declarations</text>
<polygon fill="#8dd3c7" stroke="transparent" points="140,-10 140,-30 160,-30 160,-10 140,-10"/>
<text text-anchor="start" x="163.7251" y="-15.4" font-family="sans-serif" font-size="14.00" fill="#000000"> &#160;Module</text>
<polygon fill="#80b1d3" stroke="transparent" points="226,-10 226,-30 246,-30 246,-10 226,-10"/>
<text text-anchor="start" x="249.7812" y="-15.4" font-family="sans-serif" font-size="14.00" fill="#000000"> &#160;Bootstrap</text>
<polygon fill="#fdb462" stroke="transparent" points="323,-10 323,-30 343,-30 343,-10 323,-10"/>
<text text-anchor="start" x="346.6732" y="-15.4" font-family="sans-serif" font-size="14.00" fill="#000000"> &#160;Providers</text>
<polygon fill="#fb8072" stroke="transparent" points="419,-10 419,-30 439,-30 439,-10 419,-10"/>
<text text-anchor="start" x="442.7258" y="-15.4" font-family="sans-serif" font-size="14.00" fill="#000000"> &#160;Exports</text>
<g id="clust1" class="cluster">
<title>cluster_OrderConfirmationPageModule</title>
<polygon fill="none" stroke="#000000" stroke-dasharray="1,5" points="8,-70 8,-268 514,-268 514,-70 8,-70"/>
</g>
<g id="clust2" class="cluster">
<title>cluster_OrderConfirmationPageModule_declarations</title>
<polygon fill="none" stroke="#000000" points="274,-78 274,-130 506,-130 506,-78 274,-78"/>
</g>
<g id="clust4" class="cluster">
<title>cluster_OrderConfirmationPageModule_imports</title>
<polygon fill="none" stroke="#000000" points="16,-78 16,-130 266,-130 266,-78 16,-78"/>
</g>
<g id="clust5" class="cluster">
<title>cluster_OrderConfirmationPageModule_exports</title>
<polygon fill="none" stroke="#000000" points="146,-208 146,-260 382,-260 382,-208 146,-208"/>
</g>
<!-- OrderConfirmationPageComponent -->
<g id="node1" class="node">
<title>OrderConfirmationPageComponent</title>
<polygon fill="#ffffb3" stroke="#000000" points="498.1217,-122 281.8783,-122 281.8783,-86 498.1217,-86 498.1217,-122"/>
<text text-anchor="middle" x="390" y="-99.8" font-family="Times,serif" font-size="14.00" fill="#000000">OrderConfirmationPageComponent</text>
</g>
<!-- OrderConfirmationPageModule -->
<g id="node2" class="node">
<title>OrderConfirmationPageModule</title>
<polygon fill="#8dd3c7" stroke="#000000" points="361.3389,-187 358.3389,-191 337.3389,-191 334.3389,-187 166.6611,-187 166.6611,-151 361.3389,-151 361.3389,-187"/>
<text text-anchor="middle" x="264" y="-164.8" font-family="Times,serif" font-size="14.00" fill="#000000">OrderConfirmationPageModule</text>
</g>
<!-- OrderConfirmationPageComponent&#45;&gt;OrderConfirmationPageModule -->
<g id="edge1" class="edge">
<title>OrderConfirmationPageComponent&#45;&gt;OrderConfirmationPageModule</title>
<path fill="none" stroke="#000000" d="M321.5544,-122.1061C321.5544,-122.1061 321.5544,-140.991 321.5544,-140.991"/>
<polygon fill="#000000" stroke="#000000" points="318.0544,-140.9909 321.5544,-150.991 325.0544,-140.991 318.0544,-140.9909"/>
</g>
<!-- OrderConfirmationPageComponent  -->
<g id="node4" class="node">
<title>OrderConfirmationPageComponent </title>
<polygon fill="#fb8072" stroke="#000000" points="374.1214,-252 153.8786,-252 153.8786,-216 374.1214,-216 374.1214,-252"/>
<text text-anchor="middle" x="264" y="-229.8" font-family="Times,serif" font-size="14.00" fill="#000000">OrderConfirmationPageComponent </text>
</g>
<!-- OrderConfirmationPageModule&#45;&gt;OrderConfirmationPageComponent  -->
<g id="edge3" class="edge">
<title>OrderConfirmationPageModule&#45;&gt;OrderConfirmationPageComponent </title>
<path fill="none" stroke="#000000" stroke-dasharray="5,2" d="M264,-187.1061C264,-187.1061 264,-205.991 264,-205.991"/>
<polygon fill="#000000" stroke="#000000" points="260.5001,-205.9909 264,-215.991 267.5001,-205.991 260.5001,-205.9909"/>
</g>
<!-- OrderConfirmationPageLayoutModule -->
<g id="node3" class="node">
<title>OrderConfirmationPageLayoutModule</title>
<polygon fill="#8dd3c7" stroke="#000000" points="258.4971,-122 255.4971,-126 234.4971,-126 231.4971,-122 23.5029,-122 23.5029,-86 258.4971,-86 258.4971,-122"/>
<text text-anchor="middle" x="141" y="-99.8" font-family="Times,serif" font-size="14.00" fill="#000000">OrderConfirmationPageLayoutModule</text>
</g>
<!-- OrderConfirmationPageLayoutModule&#45;&gt;OrderConfirmationPageModule -->
<g id="edge2" class="edge">
<title>OrderConfirmationPageLayoutModule&#45;&gt;OrderConfirmationPageModule</title>
<path fill="none" stroke="#000000" d="M212.4145,-122.1061C212.4145,-122.1061 212.4145,-140.991 212.4145,-140.991"/>
<polygon fill="#000000" stroke="#000000" points="208.9145,-140.9909 212.4145,-150.991 215.9145,-140.991 208.9145,-140.9909"/>
</g>
</g>
</svg>
