<?xml version="1.0" encoding="UTF-8" standalone="no"?>
<!DOCTYPE svg PUBLIC "-//W3C//DTD SVG 1.1//EN"
 "http://www.w3.org/Graphics/SVG/1.1/DTD/svg11.dtd">
<!-- Generated by graphviz version 2.46.0 (20210119.1425)
 -->
<!-- Title: dependencies Pages: 1 -->
<svg width="2756pt" height="284pt"
 viewBox="0.00 0.00 2756.00 284.00" xmlns="http://www.w3.org/2000/svg" xmlns:xlink="http://www.w3.org/1999/xlink">
<g id="graph0" class="graph" transform="scale(1 1) rotate(0) translate(4 280)">
<title>dependencies</title>
<polygon fill="white" stroke="transparent" points="-4,4 -4,-280 2752,-280 2752,4 -4,4"/>
<text text-anchor="start" x="1353.01" y="-42.4" font-family="sans-serif" font-weight="bold" font-size="14.00">Legend</text>
<polygon fill="#ffffb3" stroke="transparent" points="1140,-10 1140,-30 1160,-30 1160,-10 1140,-10"/>
<text text-anchor="start" x="1163.63" y="-15.4" font-family="sans-serif" font-size="14.00"> &#160;Declarations</text>
<polygon fill="#8dd3c7" stroke="transparent" points="1253,-10 1253,-30 1273,-30 1273,-10 1253,-10"/>
<text text-anchor="start" x="1276.73" y="-15.4" font-family="sans-serif" font-size="14.00"> &#160;Module</text>
<polygon fill="#80b1d3" stroke="transparent" points="1339,-10 1339,-30 1359,-30 1359,-10 1339,-10"/>
<text text-anchor="start" x="1362.78" y="-15.4" font-family="sans-serif" font-size="14.00"> &#160;Bootstrap</text>
<polygon fill="#fdb462" stroke="transparent" points="1436,-10 1436,-30 1456,-30 1456,-10 1436,-10"/>
<text text-anchor="start" x="1459.67" y="-15.4" font-family="sans-serif" font-size="14.00"> &#160;Providers</text>
<polygon fill="#fb8072" stroke="transparent" points="1532,-10 1532,-30 1552,-30 1552,-10 1532,-10"/>
<text text-anchor="start" x="1555.73" y="-15.4" font-family="sans-serif" font-size="14.00"> &#160;Exports</text>
<g id="clust1" class="cluster">
<title>cluster_OrderDetailsModule</title>
<polygon fill="none" stroke="black" stroke-dasharray="1,5" points="8,-70 8,-268 2740,-268 2740,-70 8,-70"/>
</g>
<g id="clust10" class="cluster">
<title>cluster_OrderDetailsModule_imports</title>
<polygon fill="none" stroke="black" points="1696,-78 1696,-130 2732,-130 2732,-78 1696,-78"/>
</g>
<g id="clust2" class="cluster">
<title>cluster_OrderDetailsModule_declarations</title>
<polygon fill="none" stroke="black" points="220,-78 220,-130 1688,-130 1688,-78 220,-78"/>
</g>
<g id="clust13" class="cluster">
<title>cluster_OrderDetailsModule_providers</title>
<polygon fill="none" stroke="black" points="16,-78 16,-130 212,-130 212,-78 16,-78"/>
</g>
<g id="clust11" class="cluster">
<title>cluster_OrderDetailsModule_exports</title>
<polygon fill="none" stroke="black" points="944,-208 944,-260 2436,-260 2436,-208 944,-208"/>
</g>
<!-- ConsignmentTrackingComponent -->
<g id="node1" class="node">
<title>ConsignmentTrackingComponent</title>
<polygon fill="#ffffb3" stroke="black" points="1680.03,-122 1473.97,-122 1473.97,-86 1680.03,-86 1680.03,-122"/>
<text text-anchor="middle" x="1577" y="-99.8" font-family="Times,serif" font-size="14.00">ConsignmentTrackingComponent</text>
</g>
<!-- OrderDetailsModule -->
<g id="node8" class="node">
<title>OrderDetailsModule</title>
<polygon fill="#8dd3c7" stroke="black" points="1725.84,-187 1722.84,-191 1701.84,-191 1698.84,-187 1594.16,-187 1594.16,-151 1725.84,-151 1725.84,-187"/>
<text text-anchor="middle" x="1660" y="-164.8" font-family="Times,serif" font-size="14.00">OrderDetailsModule</text>
</g>
<!-- ConsignmentTrackingComponent&#45;&gt;OrderDetailsModule -->
<g id="edge1" class="edge">
<title>ConsignmentTrackingComponent&#45;&gt;OrderDetailsModule</title>
<path fill="none" stroke="black" d="M1637.17,-122.11C1637.17,-122.11 1637.17,-140.99 1637.17,-140.99"/>
<polygon fill="black" stroke="black" points="1633.67,-140.99 1637.17,-150.99 1640.67,-140.99 1633.67,-140.99"/>
</g>
<!-- OrderConsignedEntriesComponent -->
<g id="node2" class="node">
<title>OrderConsignedEntriesComponent</title>
<polygon fill="#ffffb3" stroke="black" points="1455.52,-122 1242.48,-122 1242.48,-86 1455.52,-86 1455.52,-122"/>
<text text-anchor="middle" x="1349" y="-99.8" font-family="Times,serif" font-size="14.00">OrderConsignedEntriesComponent</text>
</g>
<!-- OrderConsignedEntriesComponent&#45;&gt;OrderDetailsModule -->
<g id="edge2" class="edge">
<title>OrderConsignedEntriesComponent&#45;&gt;OrderDetailsModule</title>
<path fill="none" stroke="black" d="M1401.82,-122.12C1401.82,-136.78 1401.82,-155 1401.82,-155 1401.82,-155 1583.85,-155 1583.85,-155"/>
<polygon fill="black" stroke="black" points="1583.85,-158.5 1593.85,-155 1583.85,-151.5 1583.85,-158.5"/>
</g>
<!-- OrderDetailActionsComponent -->
<g id="node3" class="node">
<title>OrderDetailActionsComponent</title>
<polygon fill="#ffffb3" stroke="black" points="1223.73,-122 1032.27,-122 1032.27,-86 1223.73,-86 1223.73,-122"/>
<text text-anchor="middle" x="1128" y="-99.8" font-family="Times,serif" font-size="14.00">OrderDetailActionsComponent</text>
</g>
<!-- OrderDetailActionsComponent&#45;&gt;OrderDetailsModule -->
<g id="edge3" class="edge">
<title>OrderDetailActionsComponent&#45;&gt;OrderDetailsModule</title>
<path fill="none" stroke="black" d="M1183.76,-122.28C1183.76,-137.95 1183.76,-158 1183.76,-158 1183.76,-158 1583.78,-158 1583.78,-158"/>
<polygon fill="black" stroke="black" points="1583.78,-161.5 1593.78,-158 1583.78,-154.5 1583.78,-161.5"/>
</g>
<!-- OrderDetailItemsComponent -->
<g id="node4" class="node">
<title>OrderDetailItemsComponent</title>
<polygon fill="#ffffb3" stroke="black" points="1013.78,-122 834.22,-122 834.22,-86 1013.78,-86 1013.78,-122"/>
<text text-anchor="middle" x="924" y="-99.8" font-family="Times,serif" font-size="14.00">OrderDetailItemsComponent</text>
</g>
<!-- OrderDetailItemsComponent&#45;&gt;OrderDetailsModule -->
<g id="edge4" class="edge">
<title>OrderDetailItemsComponent&#45;&gt;OrderDetailsModule</title>
<path fill="none" stroke="black" d="M982.95,-122.04C982.95,-138.73 982.95,-161 982.95,-161 982.95,-161 1583.85,-161 1583.85,-161"/>
<polygon fill="black" stroke="black" points="1583.85,-164.5 1593.85,-161 1583.85,-157.5 1583.85,-164.5"/>
</g>
<!-- OrderDetailShippingComponent -->
<g id="node5" class="node">
<title>OrderDetailShippingComponent</title>
<polygon fill="#ffffb3" stroke="black" points="816.25,-122 617.75,-122 617.75,-86 816.25,-86 816.25,-122"/>
<text text-anchor="middle" x="717" y="-99.8" font-family="Times,serif" font-size="14.00">OrderDetailShippingComponent</text>
</g>
<!-- OrderDetailShippingComponent&#45;&gt;OrderDetailsModule -->
<g id="edge5" class="edge">
<title>OrderDetailShippingComponent&#45;&gt;OrderDetailsModule</title>
<path fill="none" stroke="black" d="M717,-122.3C717,-140.27 717,-165 717,-165 717,-165 1584.06,-165 1584.06,-165"/>
<polygon fill="black" stroke="black" points="1584.06,-168.5 1594.06,-165 1584.06,-161.5 1584.06,-168.5"/>
</g>
<!-- OrderDetailTotalsComponent -->
<g id="node6" class="node">
<title>OrderDetailTotalsComponent</title>
<polygon fill="#ffffb3" stroke="black" points="599.68,-122 416.32,-122 416.32,-86 599.68,-86 599.68,-122"/>
<text text-anchor="middle" x="508" y="-99.8" font-family="Times,serif" font-size="14.00">OrderDetailTotalsComponent</text>
</g>
<!-- OrderDetailTotalsComponent&#45;&gt;OrderDetailsModule -->
<g id="edge6" class="edge">
<title>OrderDetailTotalsComponent&#45;&gt;OrderDetailsModule</title>
<path fill="none" stroke="black" d="M508,-122.17C508,-141.09 508,-168 508,-168 508,-168 1583.93,-168 1583.93,-168"/>
<polygon fill="black" stroke="black" points="1583.93,-171.5 1593.93,-168 1583.93,-164.5 1583.93,-171.5"/>
</g>
<!-- TrackingEventsComponent -->
<g id="node7" class="node">
<title>TrackingEventsComponent</title>
<polygon fill="#ffffb3" stroke="black" points="397.97,-122 228.03,-122 228.03,-86 397.97,-86 397.97,-122"/>
<text text-anchor="middle" x="313" y="-99.8" font-family="Times,serif" font-size="14.00">TrackingEventsComponent</text>
</g>
<!-- TrackingEventsComponent&#45;&gt;OrderDetailsModule -->
<g id="edge7" class="edge">
<title>TrackingEventsComponent&#45;&gt;OrderDetailsModule</title>
<path fill="none" stroke="black" d="M313,-122.31C313,-142.15 313,-171 313,-171 313,-171 1584.12,-171 1584.12,-171"/>
<polygon fill="black" stroke="black" points="1584.12,-174.5 1594.12,-171 1584.12,-167.5 1584.12,-174.5"/>
</g>
<!-- ConsignmentTrackingComponent  -->
<g id="node17" class="node">
<title>ConsignmentTrackingComponent </title>
<polygon fill="#fb8072" stroke="black" points="2428.03,-252 2217.97,-252 2217.97,-216 2428.03,-216 2428.03,-252"/>
<text text-anchor="middle" x="2323" y="-229.8" font-family="Times,serif" font-size="14.00">ConsignmentTrackingComponent </text>
</g>
<!-- OrderDetailsModule&#45;&gt;ConsignmentTrackingComponent  -->
<g id="edge16" class="edge">
<title>OrderDetailsModule&#45;&gt;ConsignmentTrackingComponent </title>
<path fill="none" stroke="black" stroke-dasharray="5,2" d="M1726.04,-178C1874.89,-178 2223.69,-178 2223.69,-178 2223.69,-178 2223.69,-205.97 2223.69,-205.97"/>
<polygon fill="black" stroke="black" points="2220.19,-205.97 2223.69,-215.97 2227.19,-205.97 2220.19,-205.97"/>
</g>
<!-- OrderConsignedEntriesComponent  -->
<g id="node18" class="node">
<title>OrderConsignedEntriesComponent </title>
<polygon fill="#fb8072" stroke="black" points="2199.51,-252 1982.49,-252 1982.49,-216 2199.51,-216 2199.51,-252"/>
<text text-anchor="middle" x="2091" y="-229.8" font-family="Times,serif" font-size="14.00">OrderConsignedEntriesComponent </text>
</g>
<!-- OrderDetailsModule&#45;&gt;OrderConsignedEntriesComponent  -->
<g id="edge17" class="edge">
<title>OrderDetailsModule&#45;&gt;OrderConsignedEntriesComponent </title>
<path fill="none" stroke="black" stroke-dasharray="5,2" d="M1726.22,-181C1828.76,-181 2014.27,-181 2014.27,-181 2014.27,-181 2014.27,-205.76 2014.27,-205.76"/>
<polygon fill="black" stroke="black" points="2010.77,-205.76 2014.27,-215.76 2017.77,-205.76 2010.77,-205.76"/>
</g>
<!-- OrderDetailActionsComponent  -->
<g id="node19" class="node">
<title>OrderDetailActionsComponent </title>
<polygon fill="#fb8072" stroke="black" points="1964.73,-252 1769.27,-252 1769.27,-216 1964.73,-216 1964.73,-252"/>
<text text-anchor="middle" x="1867" y="-229.8" font-family="Times,serif" font-size="14.00">OrderDetailActionsComponent </text>
</g>
<!-- OrderDetailsModule&#45;&gt;OrderDetailActionsComponent  -->
<g id="edge18" class="edge">
<title>OrderDetailsModule&#45;&gt;OrderDetailActionsComponent </title>
<path fill="none" stroke="black" stroke-dasharray="5,2" d="M1725.99,-184C1751.98,-184 1775.74,-184 1775.74,-184 1775.74,-184 1775.74,-205.95 1775.74,-205.95"/>
<polygon fill="black" stroke="black" points="1772.24,-205.95 1775.74,-215.95 1779.24,-205.95 1772.24,-205.95"/>
</g>
<!-- OrderDetailItemsComponent  -->
<g id="node20" class="node">
<title>OrderDetailItemsComponent </title>
<polygon fill="#fb8072" stroke="black" points="1751.28,-252 1568.72,-252 1568.72,-216 1751.28,-216 1751.28,-252"/>
<text text-anchor="middle" x="1660" y="-229.8" font-family="Times,serif" font-size="14.00">OrderDetailItemsComponent </text>
</g>
<!-- OrderDetailsModule&#45;&gt;OrderDetailItemsComponent  -->
<g id="edge19" class="edge">
<title>OrderDetailsModule&#45;&gt;OrderDetailItemsComponent </title>
<path fill="none" stroke="black" stroke-dasharray="5,2" d="M1660,-187.11C1660,-187.11 1660,-205.99 1660,-205.99"/>
<polygon fill="black" stroke="black" points="1656.5,-205.99 1660,-215.99 1663.5,-205.99 1656.5,-205.99"/>
</g>
<!-- OrderDetailShippingComponent  -->
<g id="node21" class="node">
<title>OrderDetailShippingComponent </title>
<polygon fill="#fb8072" stroke="black" points="1550.25,-252 1347.75,-252 1347.75,-216 1550.25,-216 1550.25,-252"/>
<text text-anchor="middle" x="1449" y="-229.8" font-family="Times,serif" font-size="14.00">OrderDetailShippingComponent </text>
</g>
<!-- OrderDetailsModule&#45;&gt;OrderDetailShippingComponent  -->
<g id="edge20" class="edge">
<title>OrderDetailsModule&#45;&gt;OrderDetailShippingComponent </title>
<path fill="none" stroke="black" stroke-dasharray="5,2" d="M1593.76,-184C1554.33,-184 1511.93,-184 1511.93,-184 1511.93,-184 1511.93,-205.95 1511.93,-205.95"/>
<polygon fill="black" stroke="black" points="1508.43,-205.95 1511.93,-215.95 1515.43,-205.95 1508.43,-205.95"/>
</g>
<!-- OrderDetailTotalsComponent  -->
<g id="node22" class="node">
<title>OrderDetailTotalsComponent </title>
<polygon fill="#fb8072" stroke="black" points="1330.18,-252 1143.82,-252 1143.82,-216 1330.18,-216 1330.18,-252"/>
<text text-anchor="middle" x="1237" y="-229.8" font-family="Times,serif" font-size="14.00">OrderDetailTotalsComponent </text>
</g>
<!-- OrderDetailsModule&#45;&gt;OrderDetailTotalsComponent  -->
<g id="edge21" class="edge">
<title>OrderDetailsModule&#45;&gt;OrderDetailTotalsComponent </title>
<path fill="none" stroke="black" stroke-dasharray="5,2" d="M1594.05,-181C1486.76,-181 1286.29,-181 1286.29,-181 1286.29,-181 1286.29,-205.76 1286.29,-205.76"/>
<polygon fill="black" stroke="black" points="1282.79,-205.76 1286.29,-215.76 1289.79,-205.76 1282.79,-205.76"/>
</g>
<!-- TrackingEventsComponent  -->
<g id="node23" class="node">
<title>TrackingEventsComponent </title>
<polygon fill="#fb8072" stroke="black" points="1125.97,-252 952.03,-252 952.03,-216 1125.97,-216 1125.97,-252"/>
<text text-anchor="middle" x="1039" y="-229.8" font-family="Times,serif" font-size="14.00">TrackingEventsComponent </text>
</g>
<!-- OrderDetailsModule&#45;&gt;TrackingEventsComponent  -->
<g id="edge22" class="edge">
<title>OrderDetailsModule&#45;&gt;TrackingEventsComponent </title>
<path fill="none" stroke="black" stroke-dasharray="5,2" d="M1593.91,-178C1441.61,-178 1078.93,-178 1078.93,-178 1078.93,-178 1078.93,-205.97 1078.93,-205.97"/>
<polygon fill="black" stroke="black" points="1075.43,-205.97 1078.93,-215.97 1082.43,-205.97 1075.43,-205.97"/>
</g>
<!-- CardModule -->
<g id="node9" class="node">
<title>CardModule</title>
<polygon fill="#8dd3c7" stroke="black" points="2724.26,-122 2721.26,-126 2700.26,-126 2697.26,-122 2637.74,-122 2637.74,-86 2724.26,-86 2724.26,-122"/>
<text text-anchor="middle" x="2681" y="-99.8" font-family="Times,serif" font-size="14.00">CardModule</text>
</g>
<!-- CardModule&#45;&gt;OrderDetailsModule -->
<g id="edge8" class="edge">
<title>CardModule&#45;&gt;OrderDetailsModule</title>
<path fill="none" stroke="black" d="M2681,-122.03C2681,-142.77 2681,-174 2681,-174 2681,-174 1736.2,-174 1736.2,-174"/>
<polygon fill="black" stroke="black" points="1736.2,-170.5 1726.2,-174 1736.2,-177.5 1736.2,-170.5"/>
</g>
<!-- CartSharedModule -->
<g id="node10" class="node">
<title>CartSharedModule</title>
<polygon fill="#8dd3c7" stroke="black" points="2619.03,-122 2616.03,-126 2595.03,-126 2592.03,-122 2496.97,-122 2496.97,-86 2619.03,-86 2619.03,-122"/>
<text text-anchor="middle" x="2558" y="-99.8" font-family="Times,serif" font-size="14.00">CartSharedModule</text>
</g>
<!-- CartSharedModule&#45;&gt;OrderDetailsModule -->
<g id="edge9" class="edge">
<title>CartSharedModule&#45;&gt;OrderDetailsModule</title>
<path fill="none" stroke="black" d="M2558,-122.31C2558,-142.15 2558,-171 2558,-171 2558,-171 1736.03,-171 1736.03,-171"/>
<polygon fill="black" stroke="black" points="1736.03,-167.5 1726.03,-171 1736.03,-174.5 1736.03,-167.5"/>
</g>
<!-- FeaturesConfigModule -->
<g id="node11" class="node">
<title>FeaturesConfigModule</title>
<polygon fill="#8dd3c7" stroke="black" points="2478.86,-122 2475.86,-126 2454.86,-126 2451.86,-122 2333.14,-122 2333.14,-86 2478.86,-86 2478.86,-122"/>
<text text-anchor="middle" x="2406" y="-99.8" font-family="Times,serif" font-size="14.00">FeaturesConfigModule</text>
</g>
<!-- FeaturesConfigModule&#45;&gt;OrderDetailsModule -->
<g id="edge10" class="edge">
<title>FeaturesConfigModule&#45;&gt;OrderDetailsModule</title>
<path fill="none" stroke="black" d="M2380.54,-122.17C2380.54,-141.09 2380.54,-168 2380.54,-168 2380.54,-168 1735.85,-168 1735.85,-168"/>
<polygon fill="black" stroke="black" points="1735.85,-164.5 1725.85,-168 1735.85,-171.5 1735.85,-164.5"/>
</g>
<!-- I18nModule -->
<g id="node12" class="node">
<title>I18nModule</title>
<polygon fill="#8dd3c7" stroke="black" points="2314.71,-122 2311.71,-126 2290.71,-126 2287.71,-122 2229.29,-122 2229.29,-86 2314.71,-86 2314.71,-122"/>
<text text-anchor="middle" x="2272" y="-99.8" font-family="Times,serif" font-size="14.00">I18nModule</text>
</g>
<!-- I18nModule&#45;&gt;OrderDetailsModule -->
<g id="edge11" class="edge">
<title>I18nModule&#45;&gt;OrderDetailsModule</title>
<path fill="none" stroke="black" d="M2272,-122.3C2272,-140.27 2272,-165 2272,-165 2272,-165 1736.08,-165 1736.08,-165"/>
<polygon fill="black" stroke="black" points="1736.08,-161.5 1726.08,-165 1736.08,-168.5 1736.08,-161.5"/>
</g>
<!-- OrderOverviewModule -->
<g id="node13" class="node">
<title>OrderOverviewModule</title>
<polygon fill="#8dd3c7" stroke="black" points="2211.89,-122 2208.89,-126 2187.89,-126 2184.89,-122 2064.11,-122 2064.11,-86 2211.89,-86 2211.89,-122"/>
<text text-anchor="middle" x="2138" y="-99.8" font-family="Times,serif" font-size="14.00">OrderOverviewModule</text>
</g>
<!-- OrderOverviewModule&#45;&gt;OrderDetailsModule -->
<g id="edge12" class="edge">
<title>OrderOverviewModule&#45;&gt;OrderDetailsModule</title>
<path fill="none" stroke="black" d="M2131.91,-122.04C2131.91,-138.73 2131.91,-161 2131.91,-161 2131.91,-161 1736.11,-161 1736.11,-161"/>
<polygon fill="black" stroke="black" points="1736.11,-157.5 1726.11,-161 1736.11,-164.5 1736.11,-157.5"/>
</g>
<!-- PromotionsModule -->
<g id="node14" class="node">
<title>PromotionsModule</title>
<polygon fill="#8dd3c7" stroke="black" points="2046.11,-122 2043.11,-126 2022.11,-126 2019.11,-122 1921.89,-122 1921.89,-86 2046.11,-86 2046.11,-122"/>
<text text-anchor="middle" x="1984" y="-99.8" font-family="Times,serif" font-size="14.00">PromotionsModule</text>
</g>
<!-- PromotionsModule&#45;&gt;OrderDetailsModule -->
<g id="edge13" class="edge">
<title>PromotionsModule&#45;&gt;OrderDetailsModule</title>
<path fill="none" stroke="black" d="M1943.28,-122.28C1943.28,-137.95 1943.28,-158 1943.28,-158 1943.28,-158 1736.06,-158 1736.06,-158"/>
<polygon fill="black" stroke="black" points="1736.06,-154.5 1726.06,-158 1736.06,-161.5 1736.06,-154.5"/>
</g>
<!-- SpinnerModule -->
<g id="node15" class="node">
<title>SpinnerModule</title>
<polygon fill="#8dd3c7" stroke="black" points="1903.6,-122 1900.6,-126 1879.6,-126 1876.6,-122 1800.4,-122 1800.4,-86 1903.6,-86 1903.6,-122"/>
<text text-anchor="middle" x="1852" y="-99.8" font-family="Times,serif" font-size="14.00">SpinnerModule</text>
</g>
<!-- SpinnerModule&#45;&gt;OrderDetailsModule -->
<g id="edge14" class="edge">
<title>SpinnerModule&#45;&gt;OrderDetailsModule</title>
<path fill="none" stroke="black" d="M1852,-122.12C1852,-136.78 1852,-155 1852,-155 1852,-155 1736.08,-155 1736.08,-155"/>
<polygon fill="black" stroke="black" points="1736.08,-151.5 1726.08,-155 1736.08,-158.5 1736.08,-151.5"/>
</g>
<!-- UrlModule -->
<g id="node16" class="node">
<title>UrlModule</title>
<polygon fill="#8dd3c7" stroke="black" points="1782.21,-122 1779.21,-126 1758.21,-126 1755.21,-122 1703.79,-122 1703.79,-86 1782.21,-86 1782.21,-122"/>
<text text-anchor="middle" x="1743" y="-99.8" font-family="Times,serif" font-size="14.00">UrlModule</text>
</g>
<!-- UrlModule&#45;&gt;OrderDetailsModule -->
<g id="edge15" class="edge">
<title>UrlModule&#45;&gt;OrderDetailsModule</title>
<path fill="none" stroke="black" d="M1714.91,-122.11C1714.91,-122.11 1714.91,-140.99 1714.91,-140.99"/>
<polygon fill="black" stroke="black" points="1711.41,-140.99 1714.91,-150.99 1718.41,-140.99 1711.41,-140.99"/>
</g>
<!-- OrderDetailsService -->
<g id="node24" class="node">
<title>OrderDetailsService</title>
<ellipse fill="#fdb462" stroke="black" cx="114" cy="-104" rx="89.72" ry="18"/>
<text text-anchor="middle" x="114" y="-99.8" font-family="Times,serif" font-size="14.00">OrderDetailsService</text>
</g>
<!-- OrderDetailsService&#45;&gt;OrderDetailsModule -->
<g id="edge23" class="edge">
<title>OrderDetailsService&#45;&gt;OrderDetailsModule</title>
<path fill="none" stroke="black" d="M114,-122.03C114,-142.77 114,-174 114,-174 114,-174 1584.06,-174 1584.06,-174"/>
<polygon fill="black" stroke="black" points="1584.06,-177.5 1594.06,-174 1584.06,-170.5 1584.06,-177.5"/>
</g>
</g>
</svg>
