<?xml version="1.0" encoding="UTF-8" standalone="no"?>
<!DOCTYPE svg PUBLIC "-//W3C//DTD SVG 1.1//EN"
 "http://www.w3.org/Graphics/SVG/1.1/DTD/svg11.dtd">
<!-- Generated by graphviz version 2.40.1 (20161225.0304)
 -->
<!-- Title: dependencies Pages: 1 -->
<svg width="2548pt" height="284pt"
 viewBox="0.00 0.00 2548.00 284.00" xmlns="http://www.w3.org/2000/svg" xmlns:xlink="http://www.w3.org/1999/xlink">
<g id="graph0" class="graph" transform="scale(1 1) rotate(0) translate(4 280)">
<title>dependencies</title>
<polygon fill="#ffffff" stroke="transparent" points="-4,4 -4,-280 2544,-280 2544,4 -4,4"/>
<text text-anchor="start" x="1249.0091" y="-42.4" font-family="sans-serif" font-weight="bold" font-size="14.00" fill="#000000">Legend</text>
<polygon fill="#ffffb3" stroke="transparent" points="1036,-10 1036,-30 1056,-30 1056,-10 1036,-10"/>
<text text-anchor="start" x="1059.629" y="-15.4" font-family="sans-serif" font-size="14.00" fill="#000000"> &#160;Declarations</text>
<polygon fill="#8dd3c7" stroke="transparent" points="1149,-10 1149,-30 1169,-30 1169,-10 1149,-10"/>
<text text-anchor="start" x="1172.7251" y="-15.4" font-family="sans-serif" font-size="14.00" fill="#000000"> &#160;Module</text>
<polygon fill="#80b1d3" stroke="transparent" points="1235,-10 1235,-30 1255,-30 1255,-10 1235,-10"/>
<text text-anchor="start" x="1258.7812" y="-15.4" font-family="sans-serif" font-size="14.00" fill="#000000"> &#160;Bootstrap</text>
<polygon fill="#fdb462" stroke="transparent" points="1332,-10 1332,-30 1352,-30 1352,-10 1332,-10"/>
<text text-anchor="start" x="1355.6732" y="-15.4" font-family="sans-serif" font-size="14.00" fill="#000000"> &#160;Providers</text>
<polygon fill="#fb8072" stroke="transparent" points="1428,-10 1428,-30 1448,-30 1448,-10 1428,-10"/>
<text text-anchor="start" x="1451.7258" y="-15.4" font-family="sans-serif" font-size="14.00" fill="#000000"> &#160;Exports</text>
<g id="clust1" class="cluster">
<title>cluster_OrderDetailsModule</title>
<polygon fill="none" stroke="#000000" stroke-dasharray="1,5" points="8,-70 8,-268 2532,-268 2532,-70 8,-70"/>
</g>
<g id="clust2" class="cluster">
<title>cluster_OrderDetailsModule_declarations</title>
<polygon fill="none" stroke="#000000" points="1072,-78 1072,-130 2524,-130 2524,-78 1072,-78"/>
</g>
<g id="clust10" class="cluster">
<title>cluster_OrderDetailsModule_imports</title>
<polygon fill="none" stroke="#000000" points="220,-78 220,-130 1064,-130 1064,-78 220,-78"/>
</g>
<g id="clust11" class="cluster">
<title>cluster_OrderDetailsModule_exports</title>
<polygon fill="none" stroke="#000000" points="297,-208 297,-260 1774,-260 1774,-208 297,-208"/>
</g>
<g id="clust13" class="cluster">
<title>cluster_OrderDetailsModule_providers</title>
<polygon fill="none" stroke="#000000" points="16,-78 16,-130 212,-130 212,-78 16,-78"/>
</g>
<!-- ConsignmentTrackingComponent -->
<g id="node1" class="node">
<title>ConsignmentTrackingComponent</title>
<polygon fill="#ffffb3" stroke="#000000" points="2516.0335,-122 2309.9665,-122 2309.9665,-86 2516.0335,-86 2516.0335,-122"/>
<text text-anchor="middle" x="2413" y="-99.8" font-family="Times,serif" font-size="14.00" fill="#000000">ConsignmentTrackingComponent</text>
</g>
<!-- OrderDetailsModule -->
<g id="node8" class="node">
<title>OrderDetailsModule</title>
<polygon fill="#8dd3c7" stroke="#000000" points="1078.8445,-187 1075.8445,-191 1054.8445,-191 1051.8445,-187 947.1555,-187 947.1555,-151 1078.8445,-151 1078.8445,-187"/>
<text text-anchor="middle" x="1013" y="-164.8" font-family="Times,serif" font-size="14.00" fill="#000000">OrderDetailsModule</text>
</g>
<!-- ConsignmentTrackingComponent&#45;&gt;OrderDetailsModule -->
<g id="edge1" class="edge">
<title>ConsignmentTrackingComponent&#45;&gt;OrderDetailsModule</title>
<path fill="none" stroke="#000000" d="M2413,-122.1289C2413,-142.5724 2413,-173 2413,-173 2413,-173 1089.1144,-173 1089.1144,-173"/>
<polygon fill="#000000" stroke="#000000" points="1089.1144,-169.5001 1079.1144,-173 1089.1143,-176.5001 1089.1144,-169.5001"/>
</g>
<!-- OrderDetailActionsComponent -->
<g id="node2" class="node">
<title>OrderDetailActionsComponent</title>
<polygon fill="#ffffb3" stroke="#000000" points="2291.7296,-122 2100.2704,-122 2100.2704,-86 2291.7296,-86 2291.7296,-122"/>
<text text-anchor="middle" x="2196" y="-99.8" font-family="Times,serif" font-size="14.00" fill="#000000">OrderDetailActionsComponent</text>
</g>
<!-- OrderDetailActionsComponent&#45;&gt;OrderDetailsModule -->
<g id="edge2" class="edge">
<title>OrderDetailActionsComponent&#45;&gt;OrderDetailsModule</title>
<path fill="none" stroke="#000000" d="M2196,-122.1061C2196,-141.3391 2196,-169 2196,-169 2196,-169 1089.1381,-169 1089.1381,-169"/>
<polygon fill="#000000" stroke="#000000" points="1089.1381,-165.5001 1079.1381,-169 1089.1381,-172.5001 1089.1381,-165.5001"/>
</g>
<!-- OrderDetailHeadlineComponent -->
<g id="node3" class="node">
<title>OrderDetailHeadlineComponent</title>
<polygon fill="#ffffb3" stroke="#000000" points="2082.2142,-122 1883.7858,-122 1883.7858,-86 2082.2142,-86 2082.2142,-122"/>
<text text-anchor="middle" x="1983" y="-99.8" font-family="Times,serif" font-size="14.00" fill="#000000">OrderDetailHeadlineComponent</text>
</g>
<!-- OrderDetailHeadlineComponent&#45;&gt;OrderDetailsModule -->
<g id="edge3" class="edge">
<title>OrderDetailHeadlineComponent&#45;&gt;OrderDetailsModule</title>
<path fill="none" stroke="#000000" d="M1983,-122.2667C1983,-140.5552 1983,-166 1983,-166 1983,-166 1088.9094,-166 1088.9094,-166"/>
<polygon fill="#000000" stroke="#000000" points="1088.9095,-162.5001 1078.9094,-166 1088.9094,-169.5001 1088.9095,-162.5001"/>
</g>
<!-- OrderDetailItemsComponent -->
<g id="node4" class="node">
<title>OrderDetailItemsComponent</title>
<polygon fill="#ffffb3" stroke="#000000" points="1865.7836,-122 1686.2164,-122 1686.2164,-86 1865.7836,-86 1865.7836,-122"/>
<text text-anchor="middle" x="1776" y="-99.8" font-family="Times,serif" font-size="14.00" fill="#000000">OrderDetailItemsComponent</text>
</g>
<!-- OrderDetailItemsComponent&#45;&gt;OrderDetailsModule -->
<g id="edge4" class="edge">
<title>OrderDetailItemsComponent&#45;&gt;OrderDetailsModule</title>
<path fill="none" stroke="#000000" d="M1726.1874,-122.0336C1726.1874,-139.0597 1726.1874,-162 1726.1874,-162 1726.1874,-162 1089.1352,-162 1089.1352,-162"/>
<polygon fill="#000000" stroke="#000000" points="1089.1353,-158.5001 1079.1352,-162 1089.1352,-165.5001 1089.1353,-158.5001"/>
</g>
<!-- OrderDetailShippingComponent -->
<g id="node5" class="node">
<title>OrderDetailShippingComponent</title>
<polygon fill="#ffffb3" stroke="#000000" points="1668.2464,-122 1469.7536,-122 1469.7536,-86 1668.2464,-86 1668.2464,-122"/>
<text text-anchor="middle" x="1569" y="-99.8" font-family="Times,serif" font-size="14.00" fill="#000000">OrderDetailShippingComponent</text>
</g>
<!-- OrderDetailShippingComponent&#45;&gt;OrderDetailsModule -->
<g id="edge5" class="edge">
<title>OrderDetailShippingComponent&#45;&gt;OrderDetailsModule</title>
<path fill="none" stroke="#000000" d="M1503.6208,-122.0091C1503.6208,-138.0494 1503.6208,-159 1503.6208,-159 1503.6208,-159 1088.9126,-159 1088.9126,-159"/>
<polygon fill="#000000" stroke="#000000" points="1088.9126,-155.5001 1078.9126,-159 1088.9125,-162.5001 1088.9126,-155.5001"/>
</g>
<!-- OrderDetailTotalsComponent -->
<g id="node6" class="node">
<title>OrderDetailTotalsComponent</title>
<polygon fill="#ffffb3" stroke="#000000" points="1451.6755,-122 1268.3245,-122 1268.3245,-86 1451.6755,-86 1451.6755,-122"/>
<text text-anchor="middle" x="1360" y="-99.8" font-family="Times,serif" font-size="14.00" fill="#000000">OrderDetailTotalsComponent</text>
</g>
<!-- OrderDetailTotalsComponent&#45;&gt;OrderDetailsModule -->
<g id="edge6" class="edge">
<title>OrderDetailTotalsComponent&#45;&gt;OrderDetailsModule</title>
<path fill="none" stroke="#000000" d="M1296.2597,-122.1243C1296.2597,-136.7832 1296.2597,-155 1296.2597,-155 1296.2597,-155 1089.0543,-155 1089.0543,-155"/>
<polygon fill="#000000" stroke="#000000" points="1089.0543,-151.5001 1079.0543,-155 1089.0543,-158.5001 1089.0543,-151.5001"/>
</g>
<!-- TrackingEventsComponent -->
<g id="node7" class="node">
<title>TrackingEventsComponent</title>
<polygon fill="#ffffb3" stroke="#000000" points="1249.9678,-122 1080.0322,-122 1080.0322,-86 1249.9678,-86 1249.9678,-122"/>
<text text-anchor="middle" x="1165" y="-99.8" font-family="Times,serif" font-size="14.00" fill="#000000">TrackingEventsComponent</text>
</g>
<!-- TrackingEventsComponent&#45;&gt;OrderDetailsModule -->
<g id="edge7" class="edge">
<title>TrackingEventsComponent&#45;&gt;OrderDetailsModule</title>
<path fill="none" stroke="#000000" d="M1079.9808,-104C1072.4776,-104 1067.6515,-104 1067.6515,-104 1067.6515,-104 1067.6515,-140.8939 1067.6515,-140.8939"/>
<polygon fill="#000000" stroke="#000000" points="1064.1516,-140.8938 1067.6515,-150.8939 1071.1516,-140.8939 1064.1516,-140.8938"/>
</g>
<!-- ConsignmentTrackingComponent  -->
<g id="node16" class="node">
<title>ConsignmentTrackingComponent </title>
<polygon fill="#fb8072" stroke="#000000" points="1766.033,-252 1555.967,-252 1555.967,-216 1766.033,-216 1766.033,-252"/>
<text text-anchor="middle" x="1661" y="-229.8" font-family="Times,serif" font-size="14.00" fill="#000000">ConsignmentTrackingComponent </text>
</g>
<!-- OrderDetailsModule&#45;&gt;ConsignmentTrackingComponent  -->
<g id="edge15" class="edge">
<title>OrderDetailsModule&#45;&gt;ConsignmentTrackingComponent </title>
<path fill="none" stroke="#000000" stroke-dasharray="5,2" d="M1079.124,-177C1234.9512,-177 1612.1783,-177 1612.1783,-177 1612.1783,-177 1612.1783,-205.9648 1612.1783,-205.9648"/>
<polygon fill="#000000" stroke="#000000" points="1608.6784,-205.9648 1612.1783,-215.9648 1615.6784,-205.9649 1608.6784,-205.9648"/>
</g>
<!-- OrderDetailActionsComponent  -->
<g id="node17" class="node">
<title>OrderDetailActionsComponent </title>
<polygon fill="#fb8072" stroke="#000000" points="1537.7295,-252 1342.2705,-252 1342.2705,-216 1537.7295,-216 1537.7295,-252"/>
<text text-anchor="middle" x="1440" y="-229.8" font-family="Times,serif" font-size="14.00" fill="#000000">OrderDetailActionsComponent </text>
</g>
<!-- OrderDetailsModule&#45;&gt;OrderDetailActionsComponent  -->
<g id="edge16" class="edge">
<title>OrderDetailsModule&#45;&gt;OrderDetailActionsComponent </title>
<path fill="none" stroke="#000000" stroke-dasharray="5,2" d="M1079.0096,-180C1188.797,-180 1396.9865,-180 1396.9865,-180 1396.9865,-180 1396.9865,-205.7181 1396.9865,-205.7181"/>
<polygon fill="#000000" stroke="#000000" points="1393.4866,-205.718 1396.9865,-215.7181 1400.4866,-205.7181 1393.4866,-205.718"/>
</g>
<!-- OrderDetailHeadlineComponent  -->
<g id="node18" class="node">
<title>OrderDetailHeadlineComponent </title>
<polygon fill="#fb8072" stroke="#000000" points="1324.2141,-252 1121.7859,-252 1121.7859,-216 1324.2141,-216 1324.2141,-252"/>
<text text-anchor="middle" x="1223" y="-229.8" font-family="Times,serif" font-size="14.00" fill="#000000">OrderDetailHeadlineComponent </text>
</g>
<!-- OrderDetailsModule&#45;&gt;OrderDetailHeadlineComponent  -->
<g id="edge17" class="edge">
<title>OrderDetailsModule&#45;&gt;OrderDetailHeadlineComponent </title>
<path fill="none" stroke="#000000" stroke-dasharray="5,2" d="M1078.874,-184C1127.7463,-184 1185.9385,-184 1185.9385,-184 1185.9385,-184 1185.9385,-205.9489 1185.9385,-205.9489"/>
<polygon fill="#000000" stroke="#000000" points="1182.4385,-205.9488 1185.9385,-215.9489 1189.4385,-205.9489 1182.4385,-205.9488"/>
</g>
<!-- OrderDetailItemsComponent  -->
<g id="node19" class="node">
<title>OrderDetailItemsComponent </title>
<polygon fill="#fb8072" stroke="#000000" points="1104.2835,-252 921.7165,-252 921.7165,-216 1104.2835,-216 1104.2835,-252"/>
<text text-anchor="middle" x="1013" y="-229.8" font-family="Times,serif" font-size="14.00" fill="#000000">OrderDetailItemsComponent </text>
</g>
<!-- OrderDetailsModule&#45;&gt;OrderDetailItemsComponent  -->
<g id="edge18" class="edge">
<title>OrderDetailsModule&#45;&gt;OrderDetailItemsComponent </title>
<path fill="none" stroke="#000000" stroke-dasharray="5,2" d="M1013,-187.1061C1013,-187.1061 1013,-205.991 1013,-205.991"/>
<polygon fill="#000000" stroke="#000000" points="1009.5001,-205.9909 1013,-215.991 1016.5001,-205.991 1009.5001,-205.9909"/>
</g>
<!-- OrderDetailShippingComponent  -->
<g id="node20" class="node">
<title>OrderDetailShippingComponent </title>
<polygon fill="#fb8072" stroke="#000000" points="903.2464,-252 700.7536,-252 700.7536,-216 903.2464,-216 903.2464,-252"/>
<text text-anchor="middle" x="802" y="-229.8" font-family="Times,serif" font-size="14.00" fill="#000000">OrderDetailShippingComponent </text>
</g>
<!-- OrderDetailsModule&#45;&gt;OrderDetailShippingComponent  -->
<g id="edge19" class="edge">
<title>OrderDetailsModule&#45;&gt;OrderDetailShippingComponent </title>
<path fill="none" stroke="#000000" stroke-dasharray="5,2" d="M946.7792,-184C907.7431,-184 865.9304,-184 865.9304,-184 865.9304,-184 865.9304,-205.9489 865.9304,-205.9489"/>
<polygon fill="#000000" stroke="#000000" points="862.4305,-205.9488 865.9304,-215.9489 869.4305,-205.9489 862.4305,-205.9488"/>
</g>
<!-- OrderDetailTotalsComponent  -->
<g id="node21" class="node">
<title>OrderDetailTotalsComponent </title>
<polygon fill="#fb8072" stroke="#000000" points="683.1757,-252 496.8243,-252 496.8243,-216 683.1757,-216 683.1757,-252"/>
<text text-anchor="middle" x="590" y="-229.8" font-family="Times,serif" font-size="14.00" fill="#000000">OrderDetailTotalsComponent </text>
</g>
<!-- OrderDetailsModule&#45;&gt;OrderDetailTotalsComponent  -->
<g id="edge20" class="edge">
<title>OrderDetailsModule&#45;&gt;OrderDetailTotalsComponent </title>
<path fill="none" stroke="#000000" stroke-dasharray="5,2" d="M947.0318,-180C834.2012,-180 616.2039,-180 616.2039,-180 616.2039,-180 616.2039,-205.7181 616.2039,-205.7181"/>
<polygon fill="#000000" stroke="#000000" points="612.704,-205.718 616.2039,-215.7181 619.704,-205.7181 612.704,-205.718"/>
</g>
<!-- TrackingEventsComponent  -->
<g id="node22" class="node">
<title>TrackingEventsComponent </title>
<polygon fill="#fb8072" stroke="#000000" points="478.9684,-252 305.0316,-252 305.0316,-216 478.9684,-216 478.9684,-252"/>
<text text-anchor="middle" x="392" y="-229.8" font-family="Times,serif" font-size="14.00" fill="#000000">TrackingEventsComponent </text>
</g>
<!-- OrderDetailsModule&#45;&gt;TrackingEventsComponent  -->
<g id="edge21" class="edge">
<title>OrderDetailsModule&#45;&gt;TrackingEventsComponent </title>
<path fill="none" stroke="#000000" stroke-dasharray="5,2" d="M947.0915,-177C800.8555,-177 462.0644,-177 462.0644,-177 462.0644,-177 462.0644,-205.9648 462.0644,-205.9648"/>
<polygon fill="#000000" stroke="#000000" points="458.5644,-205.9648 462.0644,-215.9648 465.5644,-205.9649 458.5644,-205.9648"/>
</g>
<!-- CardModule -->
<g id="node9" class="node">
<title>CardModule</title>
<polygon fill="#8dd3c7" stroke="#000000" points="1056.2619,-122 1053.2619,-126 1032.2619,-126 1029.2619,-122 969.7381,-122 969.7381,-86 1056.2619,-86 1056.2619,-122"/>
<text text-anchor="middle" x="1013" y="-99.8" font-family="Times,serif" font-size="14.00" fill="#000000">CardModule</text>
</g>
<!-- CardModule&#45;&gt;OrderDetailsModule -->
<g id="edge8" class="edge">
<title>CardModule&#45;&gt;OrderDetailsModule</title>
<path fill="none" stroke="#000000" d="M1013,-122.1061C1013,-122.1061 1013,-140.991 1013,-140.991"/>
<polygon fill="#000000" stroke="#000000" points="1009.5001,-140.9909 1013,-150.991 1016.5001,-140.991 1009.5001,-140.9909"/>
</g>
<!-- CartSharedModule -->
<g id="node10" class="node">
<title>CartSharedModule</title>
<polygon fill="#8dd3c7" stroke="#000000" points="951.0255,-122 948.0255,-126 927.0255,-126 924.0255,-122 828.9745,-122 828.9745,-86 951.0255,-86 951.0255,-122"/>
<text text-anchor="middle" x="890" y="-99.8" font-family="Times,serif" font-size="14.00" fill="#000000">CartSharedModule</text>
</g>
<!-- CartSharedModule&#45;&gt;OrderDetailsModule -->
<g id="edge9" class="edge">
<title>CartSharedModule&#45;&gt;OrderDetailsModule</title>
<path fill="none" stroke="#000000" d="M951.2319,-104C956.825,-104 960.4408,-104 960.4408,-104 960.4408,-104 960.4408,-140.8939 960.4408,-140.8939"/>
<polygon fill="#000000" stroke="#000000" points="956.9408,-140.8938 960.4408,-150.8939 963.9408,-140.8939 956.9408,-140.8938"/>
</g>
<!-- ConfigModule -->
<g id="node11" class="node">
<title>ConfigModule</title>
<polygon fill="#8dd3c7" stroke="#000000" points="811.4386,-122 808.4386,-126 787.4386,-126 784.4386,-122 712.5614,-122 712.5614,-86 811.4386,-86 811.4386,-122"/>
<text text-anchor="middle" x="762" y="-99.8" font-family="Times,serif" font-size="14.00" fill="#000000">ConfigModule</text>
</g>
<!-- ConfigModule&#45;&gt;OrderDetailsModule -->
<g id="edge10" class="edge">
<title>ConfigModule&#45;&gt;OrderDetailsModule</title>
<path fill="none" stroke="#000000" d="M762,-122.1243C762,-136.7832 762,-155 762,-155 762,-155 937.0527,-155 937.0527,-155"/>
<polygon fill="#000000" stroke="#000000" points="937.0527,-158.5001 947.0527,-155 937.0527,-151.5001 937.0527,-158.5001"/>
</g>
<!-- FeaturesConfigModule -->
<g id="node12" class="node">
<title>FeaturesConfigModule</title>
<polygon fill="#8dd3c7" stroke="#000000" points="694.8599,-122 691.8599,-126 670.8599,-126 667.8599,-122 549.1401,-122 549.1401,-86 694.8599,-86 694.8599,-122"/>
<text text-anchor="middle" x="622" y="-99.8" font-family="Times,serif" font-size="14.00" fill="#000000">FeaturesConfigModule</text>
</g>
<!-- FeaturesConfigModule&#45;&gt;OrderDetailsModule -->
<g id="edge11" class="edge">
<title>FeaturesConfigModule&#45;&gt;OrderDetailsModule</title>
<path fill="none" stroke="#000000" d="M689.1338,-122.0091C689.1338,-138.0494 689.1338,-159 689.1338,-159 689.1338,-159 937.0705,-159 937.0705,-159"/>
<polygon fill="#000000" stroke="#000000" points="937.0705,-162.5001 947.0705,-159 937.0704,-155.5001 937.0705,-162.5001"/>
</g>
<!-- I18nModule -->
<g id="node13" class="node">
<title>I18nModule</title>
<polygon fill="#8dd3c7" stroke="#000000" points="530.7107,-122 527.7107,-126 506.7107,-126 503.7107,-122 445.2893,-122 445.2893,-86 530.7107,-86 530.7107,-122"/>
<text text-anchor="middle" x="488" y="-99.8" font-family="Times,serif" font-size="14.00" fill="#000000">I18nModule</text>
</g>
<!-- I18nModule&#45;&gt;OrderDetailsModule -->
<g id="edge12" class="edge">
<title>I18nModule&#45;&gt;OrderDetailsModule</title>
<path fill="none" stroke="#000000" d="M513.6338,-122.0336C513.6338,-139.0597 513.6338,-162 513.6338,-162 513.6338,-162 936.9457,-162 936.9457,-162"/>
<polygon fill="#000000" stroke="#000000" points="936.9458,-165.5001 946.9457,-162 936.9457,-158.5001 936.9458,-165.5001"/>
</g>
<!-- SpinnerModule -->
<g id="node14" class="node">
<title>SpinnerModule</title>
<polygon fill="#8dd3c7" stroke="#000000" points="427.5982,-122 424.5982,-126 403.5982,-126 400.5982,-122 324.4018,-122 324.4018,-86 427.5982,-86 427.5982,-122"/>
<text text-anchor="middle" x="376" y="-99.8" font-family="Times,serif" font-size="14.00" fill="#000000">SpinnerModule</text>
</g>
<!-- SpinnerModule&#45;&gt;OrderDetailsModule -->
<g id="edge13" class="edge">
<title>SpinnerModule&#45;&gt;OrderDetailsModule</title>
<path fill="none" stroke="#000000" d="M376,-122.2667C376,-140.5552 376,-166 376,-166 376,-166 936.9311,-166 936.9311,-166"/>
<polygon fill="#000000" stroke="#000000" points="936.9311,-169.5001 946.9311,-166 936.931,-162.5001 936.9311,-169.5001"/>
</g>
<!-- UrlModule -->
<g id="node15" class="node">
<title>UrlModule</title>
<polygon fill="#8dd3c7" stroke="#000000" points="306.2079,-122 303.2079,-126 282.2079,-126 279.2079,-122 227.7921,-122 227.7921,-86 306.2079,-86 306.2079,-122"/>
<text text-anchor="middle" x="267" y="-99.8" font-family="Times,serif" font-size="14.00" fill="#000000">UrlModule</text>
</g>
<!-- UrlModule&#45;&gt;OrderDetailsModule -->
<g id="edge14" class="edge">
<title>UrlModule&#45;&gt;OrderDetailsModule</title>
<path fill="none" stroke="#000000" d="M266.5812,-122.1061C266.5812,-141.3391 266.5812,-169 266.5812,-169 266.5812,-169 937.0877,-169 937.0877,-169"/>
<polygon fill="#000000" stroke="#000000" points="937.0878,-172.5001 947.0877,-169 937.0877,-165.5001 937.0878,-172.5001"/>
</g>
<!-- OrderDetailsService -->
<g id="node23" class="node">
<title>OrderDetailsService</title>
<ellipse fill="#fdb462" stroke="#000000" cx="114" cy="-104" rx="89.719" ry="18"/>
<text text-anchor="middle" x="114" y="-99.8" font-family="Times,serif" font-size="14.00" fill="#000000">OrderDetailsService</text>
</g>
<!-- OrderDetailsService&#45;&gt;OrderDetailsModule -->
<g id="edge22" class="edge">
<title>OrderDetailsService&#45;&gt;OrderDetailsModule</title>
<path fill="none" stroke="#000000" d="M114,-122.1289C114,-142.5724 114,-173 114,-173 114,-173 936.8944,-173 936.8944,-173"/>
<polygon fill="#000000" stroke="#000000" points="936.8944,-176.5001 946.8944,-173 936.8943,-169.5001 936.8944,-176.5001"/>
</g>
</g>
</svg>
