<?xml version="1.0" encoding="UTF-8" standalone="no"?>
<!DOCTYPE svg PUBLIC "-//W3C//DTD SVG 1.1//EN"
 "http://www.w3.org/Graphics/SVG/1.1/DTD/svg11.dtd">
<!-- Generated by graphviz version 2.47.0 (20210316.0004)
 -->
<!-- Title: dependencies Pages: 1 -->
<svg width="1164pt" height="284pt"
 viewBox="0.00 0.00 1164.00 284.00" xmlns="http://www.w3.org/2000/svg" xmlns:xlink="http://www.w3.org/1999/xlink">
<g id="graph0" class="graph" transform="scale(1 1) rotate(0) translate(4 280)">
<title>dependencies</title>
<polygon fill="white" stroke="transparent" points="-4,4 -4,-280 1160,-280 1160,4 -4,4"/>
<text text-anchor="start" x="557.01" y="-42.4" font-family="sans-serif" font-weight="bold" font-size="14.00">Legend</text>
<polygon fill="#ffffb3" stroke="transparent" points="344,-10 344,-30 364,-30 364,-10 344,-10"/>
<text text-anchor="start" x="367.63" y="-15.4" font-family="sans-serif" font-size="14.00"> &#160;Declarations</text>
<polygon fill="#8dd3c7" stroke="transparent" points="457,-10 457,-30 477,-30 477,-10 457,-10"/>
<text text-anchor="start" x="480.73" y="-15.4" font-family="sans-serif" font-size="14.00"> &#160;Module</text>
<polygon fill="#80b1d3" stroke="transparent" points="543,-10 543,-30 563,-30 563,-10 543,-10"/>
<text text-anchor="start" x="566.78" y="-15.4" font-family="sans-serif" font-size="14.00"> &#160;Bootstrap</text>
<polygon fill="#fdb462" stroke="transparent" points="640,-10 640,-30 660,-30 660,-10 640,-10"/>
<text text-anchor="start" x="663.67" y="-15.4" font-family="sans-serif" font-size="14.00"> &#160;Providers</text>
<polygon fill="#fb8072" stroke="transparent" points="736,-10 736,-30 756,-30 756,-10 736,-10"/>
<text text-anchor="start" x="759.73" y="-15.4" font-family="sans-serif" font-size="14.00"> &#160;Exports</text>
<g id="clust1" class="cluster">
<title>cluster_CostCenterFormModule</title>
<polygon fill="none" stroke="black" stroke-dasharray="1,5" points="8,-70 8,-268 1148,-268 1148,-70 8,-70"/>
</g>
<g id="clust2" class="cluster">
<title>cluster_CostCenterFormModule_declarations</title>
<polygon fill="none" stroke="black" points="950,-78 950,-130 1140,-130 1140,-78 950,-78"/>
</g>
<g id="clust7" class="cluster">
<title>cluster_CostCenterFormModule_providers</title>
<polygon fill="none" stroke="black" points="612,-78 612,-130 942,-130 942,-78 612,-78"/>
</g>
<g id="clust5" class="cluster">
<title>cluster_CostCenterFormModule_exports</title>
<polygon fill="none" stroke="black" points="374,-208 374,-260 568,-260 568,-208 374,-208"/>
</g>
<g id="clust4" class="cluster">
<title>cluster_CostCenterFormModule_imports</title>
<polygon fill="none" stroke="black" points="16,-78 16,-130 604,-130 604,-78 16,-78"/>
</g>
<!-- CostCenterFormComponent -->
<g id="node1" class="node">
<title>CostCenterFormComponent</title>
<polygon fill="#ffffb3" stroke="black" points="1132.16,-122 957.84,-122 957.84,-86 1132.16,-86 1132.16,-122"/>
<text text-anchor="middle" x="1045" y="-99.8" font-family="Times,serif" font-size="14.00">CostCenterFormComponent</text>
</g>
<!-- CostCenterFormModule -->
<g id="node2" class="node">
<title>CostCenterFormModule</title>
<polygon fill="#8dd3c7" stroke="black" points="547.37,-187 544.37,-191 523.37,-191 520.37,-187 394.63,-187 394.63,-151 547.37,-151 547.37,-187"/>
<text text-anchor="middle" x="471" y="-164.8" font-family="Times,serif" font-size="14.00">CostCenterFormModule</text>
</g>
<!-- CostCenterFormComponent&#45;&gt;CostCenterFormModule -->
<g id="edge1" class="edge">
<title>CostCenterFormComponent&#45;&gt;CostCenterFormModule</title>
<path fill="none" stroke="black" d="M1045,-122.29C1045,-144.21 1045,-178 1045,-178 1045,-178 557.52,-178 557.52,-178"/>
<polygon fill="black" stroke="black" points="557.52,-174.5 547.52,-178 557.52,-181.5 557.52,-174.5"/>
</g>
<!-- CostCenterFormComponent  -->
<g id="node8" class="node">
<title>CostCenterFormComponent </title>
<polygon fill="#fb8072" stroke="black" points="560.16,-252 381.84,-252 381.84,-216 560.16,-216 560.16,-252"/>
<text text-anchor="middle" x="471" y="-229.8" font-family="Times,serif" font-size="14.00">CostCenterFormComponent </text>
</g>
<!-- CostCenterFormModule&#45;&gt;CostCenterFormComponent  -->
<g id="edge7" class="edge">
<title>CostCenterFormModule&#45;&gt;CostCenterFormComponent </title>
<path fill="none" stroke="black" stroke-dasharray="5,2" d="M471,-187.11C471,-187.11 471,-205.99 471,-205.99"/>
<polygon fill="black" stroke="black" points="467.5,-205.99 471,-215.99 474.5,-205.99 467.5,-205.99"/>
</g>
<!-- FormErrorsModule -->
<g id="node3" class="node">
<title>FormErrorsModule</title>
<polygon fill="#8dd3c7" stroke="black" points="596.36,-122 593.36,-126 572.36,-126 569.36,-122 471.64,-122 471.64,-86 596.36,-86 596.36,-122"/>
<text text-anchor="middle" x="534" y="-99.8" font-family="Times,serif" font-size="14.00">FormErrorsModule</text>
</g>
<!-- FormErrorsModule&#45;&gt;CostCenterFormModule -->
<g id="edge2" class="edge">
<title>FormErrorsModule&#45;&gt;CostCenterFormModule</title>
<path fill="none" stroke="black" d="M509.5,-122.11C509.5,-122.11 509.5,-140.99 509.5,-140.99"/>
<polygon fill="black" stroke="black" points="506,-140.99 509.5,-150.99 513,-140.99 506,-140.99"/>
</g>
<!-- FormModule -->
<g id="node4" class="node">
<title>FormModule</title>
<polygon fill="#8dd3c7" stroke="black" points="453.88,-122 450.88,-126 429.88,-126 426.88,-122 364.12,-122 364.12,-86 453.88,-86 453.88,-122"/>
<text text-anchor="middle" x="409" y="-99.8" font-family="Times,serif" font-size="14.00">FormModule</text>
</g>
<!-- FormModule&#45;&gt;CostCenterFormModule -->
<g id="edge3" class="edge">
<title>FormModule&#45;&gt;CostCenterFormModule</title>
<path fill="none" stroke="black" d="M424.25,-122.11C424.25,-122.11 424.25,-140.99 424.25,-140.99"/>
<polygon fill="black" stroke="black" points="420.75,-140.99 424.25,-150.99 427.75,-140.99 420.75,-140.99"/>
</g>
<!-- I18nModule -->
<g id="node5" class="node">
<title>I18nModule</title>
<polygon fill="#8dd3c7" stroke="black" points="345.71,-122 342.71,-126 321.71,-126 318.71,-122 260.29,-122 260.29,-86 345.71,-86 345.71,-122"/>
<text text-anchor="middle" x="303" y="-99.8" font-family="Times,serif" font-size="14.00">I18nModule</text>
</g>
<!-- I18nModule&#45;&gt;CostCenterFormModule -->
<g id="edge4" class="edge">
<title>I18nModule&#45;&gt;CostCenterFormModule</title>
<path fill="none" stroke="black" d="M303,-122.03C303,-138.4 303,-160 303,-160 303,-160 384.37,-160 384.37,-160"/>
<polygon fill="black" stroke="black" points="384.37,-163.5 394.37,-160 384.37,-156.5 384.37,-163.5"/>
</g>
<!-- ItemActiveModule -->
<g id="node6" class="node">
<title>ItemActiveModule</title>
<polygon fill="#8dd3c7" stroke="black" points="242.02,-122 239.02,-126 218.02,-126 215.02,-122 119.98,-122 119.98,-86 242.02,-86 242.02,-122"/>
<text text-anchor="middle" x="181" y="-99.8" font-family="Times,serif" font-size="14.00">ItemActiveModule</text>
</g>
<!-- ItemActiveModule&#45;&gt;CostCenterFormModule -->
<g id="edge5" class="edge">
<title>ItemActiveModule&#45;&gt;CostCenterFormModule</title>
<path fill="none" stroke="black" d="M181,-122.11C181,-141.34 181,-169 181,-169 181,-169 384.43,-169 384.43,-169"/>
<polygon fill="black" stroke="black" points="384.43,-172.5 394.43,-169 384.43,-165.5 384.43,-172.5"/>
</g>
<!-- UrlModule -->
<g id="node7" class="node">
<title>UrlModule</title>
<polygon fill="#8dd3c7" stroke="black" points="102.21,-122 99.21,-126 78.21,-126 75.21,-122 23.79,-122 23.79,-86 102.21,-86 102.21,-122"/>
<text text-anchor="middle" x="63" y="-99.8" font-family="Times,serif" font-size="14.00">UrlModule</text>
</g>
<!-- UrlModule&#45;&gt;CostCenterFormModule -->
<g id="edge6" class="edge">
<title>UrlModule&#45;&gt;CostCenterFormModule</title>
<path fill="none" stroke="black" d="M63,-122.29C63,-144.21 63,-178 63,-178 63,-178 384.26,-178 384.26,-178"/>
<polygon fill="black" stroke="black" points="384.26,-181.5 394.26,-178 384.26,-174.5 384.26,-181.5"/>
</g>
<!-- CurrencyService -->
<g id="node9" class="node">
<title>CurrencyService</title>
<ellipse fill="#fdb462" stroke="black" cx="858" cy="-104" rx="75.84" ry="18"/>
<text text-anchor="middle" x="858" y="-99.8" font-family="Times,serif" font-size="14.00">CurrencyService</text>
</g>
<!-- CurrencyService&#45;&gt;CostCenterFormModule -->
<g id="edge8" class="edge">
<title>CurrencyService&#45;&gt;CostCenterFormModule</title>
<path fill="none" stroke="black" d="M858,-122.11C858,-141.34 858,-169 858,-169 858,-169 557.46,-169 557.46,-169"/>
<polygon fill="black" stroke="black" points="557.46,-165.5 547.46,-169 557.46,-172.5 557.46,-165.5"/>
</g>
<!-- OrgUnitService -->
<g id="node10" class="node">
<title>OrgUnitService</title>
<ellipse fill="#fdb462" stroke="black" cx="692" cy="-104" rx="72.35" ry="18"/>
<text text-anchor="middle" x="692" y="-99.8" font-family="Times,serif" font-size="14.00">OrgUnitService</text>
</g>
<!-- OrgUnitService&#45;&gt;CostCenterFormModule -->
<g id="edge9" class="edge">
<title>OrgUnitService&#45;&gt;CostCenterFormModule</title>
<path fill="none" stroke="black" d="M692,-122.03C692,-138.4 692,-160 692,-160 692,-160 557.67,-160 557.67,-160"/>
<polygon fill="black" stroke="black" points="557.67,-156.5 547.67,-160 557.67,-163.5 557.67,-156.5"/>
</g>
</g>
</svg>
