<?xml version="1.0" encoding="UTF-8" standalone="no"?>
<!DOCTYPE svg PUBLIC "-//W3C//DTD SVG 1.1//EN"
 "http://www.w3.org/Graphics/SVG/1.1/DTD/svg11.dtd">
<!-- Generated by graphviz version 2.47.0 (20210316.0004)
 -->
<!-- Title: dependencies Pages: 1 -->
<svg width="2116pt" height="396pt"
 viewBox="0.00 0.00 2116.00 395.59" xmlns="http://www.w3.org/2000/svg" xmlns:xlink="http://www.w3.org/1999/xlink">
<g id="graph0" class="graph" transform="scale(1 1) rotate(0) translate(4 391.59)">
<title>dependencies</title>
<polygon fill="white" stroke="transparent" points="-4,4 -4,-391.59 2112,-391.59 2112,4 -4,4"/>
<text text-anchor="start" x="1033.01" y="-42.4" font-family="sans-serif" font-weight="bold" font-size="14.00">Legend</text>
<polygon fill="#ffffb3" stroke="transparent" points="820,-10 820,-30 840,-30 840,-10 820,-10"/>
<text text-anchor="start" x="843.63" y="-15.4" font-family="sans-serif" font-size="14.00"> &#160;Declarations</text>
<polygon fill="#8dd3c7" stroke="transparent" points="933,-10 933,-30 953,-30 953,-10 933,-10"/>
<text text-anchor="start" x="956.73" y="-15.4" font-family="sans-serif" font-size="14.00"> &#160;Module</text>
<polygon fill="#80b1d3" stroke="transparent" points="1019,-10 1019,-30 1039,-30 1039,-10 1019,-10"/>
<text text-anchor="start" x="1042.78" y="-15.4" font-family="sans-serif" font-size="14.00"> &#160;Bootstrap</text>
<polygon fill="#fdb462" stroke="transparent" points="1116,-10 1116,-30 1136,-30 1136,-10 1116,-10"/>
<text text-anchor="start" x="1139.67" y="-15.4" font-family="sans-serif" font-size="14.00"> &#160;Providers</text>
<polygon fill="#fb8072" stroke="transparent" points="1212,-10 1212,-30 1232,-30 1232,-10 1212,-10"/>
<text text-anchor="start" x="1235.73" y="-15.4" font-family="sans-serif" font-size="14.00"> &#160;Exports</text>
<g id="clust1" class="cluster">
<title>cluster_CostCenterFormModule</title>
<polygon fill="none" stroke="black" stroke-dasharray="1,5" points="8,-70 8,-379.59 2100,-379.59 2100,-70 8,-70"/>
</g>
<g id="clust5" class="cluster">
<title>cluster_CostCenterFormModule_exports</title>
<polygon fill="none" stroke="black" points="483,-319.59 483,-371.59 677,-371.59 677,-319.59 483,-319.59"/>
</g>
<g id="clust3" class="cluster">
<title>cluster_CostCenterFormModule_CostCenterFormComponent_providers</title>
<polygon fill="none" stroke="black" points="950,-78 950,-241.59 2092,-241.59 2092,-78 950,-78"/>
</g>
<g id="clust4" class="cluster">
<title>cluster_CostCenterFormModule_imports</title>
<polygon fill="none" stroke="black" points="354,-189.59 354,-241.59 942,-241.59 942,-189.59 354,-189.59"/>
</g>
<g id="clust7" class="cluster">
<title>cluster_CostCenterFormModule_providers</title>
<polygon fill="none" stroke="black" points="16,-189.59 16,-241.59 346,-241.59 346,-189.59 16,-189.59"/>
</g>
<!-- CostCenterFormComponent -->
<g id="node1" class="node">
<title>CostCenterFormComponent</title>
<polygon fill="#ffffb3" stroke="black" points="1343.16,-233.59 1168.84,-233.59 1168.84,-197.59 1343.16,-197.59 1343.16,-233.59"/>
<text text-anchor="middle" x="1256" y="-211.39" font-family="Times,serif" font-size="14.00">CostCenterFormComponent</text>
</g>
<!-- CostCenterFormModule -->
<g id="node2" class="node">
<title>CostCenterFormModule</title>
<polygon fill="#8dd3c7" stroke="black" points="656.37,-298.59 653.37,-302.59 632.37,-302.59 629.37,-298.59 503.63,-298.59 503.63,-262.59 656.37,-262.59 656.37,-298.59"/>
<text text-anchor="middle" x="580" y="-276.39" font-family="Times,serif" font-size="14.00">CostCenterFormModule</text>
</g>
<!-- CostCenterFormComponent&#45;&gt;CostCenterFormModule -->
<g id="edge1" class="edge">
<title>CostCenterFormComponent&#45;&gt;CostCenterFormModule</title>
<path fill="none" stroke="black" d="M1256,-233.88C1256,-255.8 1256,-289.59 1256,-289.59 1256,-289.59 666.56,-289.59 666.56,-289.59"/>
<polygon fill="black" stroke="black" points="666.56,-286.09 656.56,-289.59 666.56,-293.09 666.56,-286.09"/>
</g>
<!-- CostCenterFormComponent  -->
<g id="node10" class="node">
<title>CostCenterFormComponent </title>
<polygon fill="#fb8072" stroke="black" points="669.16,-363.59 490.84,-363.59 490.84,-327.59 669.16,-327.59 669.16,-363.59"/>
<text text-anchor="middle" x="580" y="-341.39" font-family="Times,serif" font-size="14.00">CostCenterFormComponent </text>
</g>
<!-- CostCenterFormModule&#45;&gt;CostCenterFormComponent  -->
<g id="edge9" class="edge">
<title>CostCenterFormModule&#45;&gt;CostCenterFormComponent </title>
<path fill="none" stroke="black" stroke-dasharray="5,2" d="M580,-298.7C580,-298.7 580,-317.58 580,-317.58"/>
<polygon fill="black" stroke="black" points="576.5,-317.58 580,-327.58 583.5,-317.58 576.5,-317.58"/>
</g>
<!-- {
 &#160;&#160;&#160;provide: ItemService, useExisting: CostCenterItemService,
} -->
<g id="node3" class="node">
<title>{
 &#160;&#160;&#160;provide: ItemService, useExisting: CostCenterItemService,
}</title>
<ellipse fill="#fdb462" stroke="black" cx="1828" cy="-127.3" rx="255.93" ry="41.09"/>
<text text-anchor="middle" x="1828" y="-139.9" font-family="Times,serif" font-size="14.00">{</text>
<text text-anchor="middle" x="1828" y="-123.1" font-family="Times,serif" font-size="14.00"> &#160;&#160;&#160;provide: ItemService, useExisting: CostCenterItemService,</text>
<text text-anchor="middle" x="1828" y="-106.3" font-family="Times,serif" font-size="14.00">}</text>
</g>
<!-- {
 &#160;&#160;&#160;provide: ItemService, useExisting: CostCenterItemService,
}&#45;&gt;CostCenterFormComponent -->
<g id="edge2" class="edge">
<title>{
 &#160;&#160;&#160;provide: ItemService, useExisting: CostCenterItemService,
}&#45;&gt;CostCenterFormComponent</title>
<path fill="none" stroke="black" d="M1828,-168.6C1828,-191.58 1828,-215.59 1828,-215.59 1828,-215.59 1353.19,-215.59 1353.19,-215.59"/>
<polygon fill="black" stroke="black" points="1353.19,-212.09 1343.19,-215.59 1353.19,-219.09 1353.19,-212.09"/>
</g>
<!-- {
 &#160;&#160;&#160;provide: CurrentItemService, useExisting: CurrentCostCenterService,
} -->
<g id="node4" class="node">
<title>{
 &#160;&#160;&#160;provide: CurrentItemService, useExisting: CurrentCostCenterService,
}</title>
<ellipse fill="#fdb462" stroke="black" cx="1256" cy="-127.3" rx="298.09" ry="41.09"/>
<text text-anchor="middle" x="1256" y="-139.9" font-family="Times,serif" font-size="14.00">{</text>
<text text-anchor="middle" x="1256" y="-123.1" font-family="Times,serif" font-size="14.00"> &#160;&#160;&#160;provide: CurrentItemService, useExisting: CurrentCostCenterService,</text>
<text text-anchor="middle" x="1256" y="-106.3" font-family="Times,serif" font-size="14.00">}</text>
</g>
<!-- {
 &#160;&#160;&#160;provide: CurrentItemService, useExisting: CurrentCostCenterService,
}&#45;&gt;CostCenterFormComponent -->
<g id="edge3" class="edge">
<title>{
 &#160;&#160;&#160;provide: CurrentItemService, useExisting: CurrentCostCenterService,
}&#45;&gt;CostCenterFormComponent</title>
<path fill="none" stroke="black" d="M1256,-168.6C1256,-168.6 1256,-187.26 1256,-187.26"/>
<polygon fill="black" stroke="black" points="1252.5,-187.26 1256,-197.26 1259.5,-187.26 1252.5,-187.26"/>
</g>
<!-- FormErrorsModule -->
<g id="node5" class="node">
<title>FormErrorsModule</title>
<polygon fill="#8dd3c7" stroke="black" points="934.36,-233.59 931.36,-237.59 910.36,-237.59 907.36,-233.59 809.64,-233.59 809.64,-197.59 934.36,-197.59 934.36,-233.59"/>
<text text-anchor="middle" x="872" y="-211.39" font-family="Times,serif" font-size="14.00">FormErrorsModule</text>
</g>
<!-- FormErrorsModule&#45;&gt;CostCenterFormModule -->
<g id="edge4" class="edge">
<title>FormErrorsModule&#45;&gt;CostCenterFormModule</title>
<path fill="none" stroke="black" d="M872,-233.7C872,-252.93 872,-280.59 872,-280.59 872,-280.59 666.72,-280.59 666.72,-280.59"/>
<polygon fill="black" stroke="black" points="666.72,-277.09 656.72,-280.59 666.72,-284.09 666.72,-277.09"/>
</g>
<!-- FormModule -->
<g id="node6" class="node">
<title>FormModule</title>
<polygon fill="#8dd3c7" stroke="black" points="791.88,-233.59 788.88,-237.59 767.88,-237.59 764.88,-233.59 702.12,-233.59 702.12,-197.59 791.88,-197.59 791.88,-233.59"/>
<text text-anchor="middle" x="747" y="-211.39" font-family="Times,serif" font-size="14.00">FormModule</text>
</g>
<!-- FormModule&#45;&gt;CostCenterFormModule -->
<g id="edge5" class="edge">
<title>FormModule&#45;&gt;CostCenterFormModule</title>
<path fill="none" stroke="black" d="M747,-233.62C747,-249.99 747,-271.59 747,-271.59 747,-271.59 666.66,-271.59 666.66,-271.59"/>
<polygon fill="black" stroke="black" points="666.66,-268.09 656.66,-271.59 666.66,-275.09 666.66,-268.09"/>
</g>
<!-- I18nModule -->
<g id="node7" class="node">
<title>I18nModule</title>
<polygon fill="#8dd3c7" stroke="black" points="683.71,-233.59 680.71,-237.59 659.71,-237.59 656.71,-233.59 598.29,-233.59 598.29,-197.59 683.71,-197.59 683.71,-233.59"/>
<text text-anchor="middle" x="641" y="-211.39" font-family="Times,serif" font-size="14.00">I18nModule</text>
</g>
<!-- I18nModule&#45;&gt;CostCenterFormModule -->
<g id="edge6" class="edge">
<title>I18nModule&#45;&gt;CostCenterFormModule</title>
<path fill="none" stroke="black" d="M627.42,-233.7C627.42,-233.7 627.42,-252.58 627.42,-252.58"/>
<polygon fill="black" stroke="black" points="623.92,-252.58 627.42,-262.58 630.92,-252.58 623.92,-252.58"/>
</g>
<!-- ItemActiveModule -->
<g id="node8" class="node">
<title>ItemActiveModule</title>
<polygon fill="#8dd3c7" stroke="black" points="580.02,-233.59 577.02,-237.59 556.02,-237.59 553.02,-233.59 457.98,-233.59 457.98,-197.59 580.02,-197.59 580.02,-233.59"/>
<text text-anchor="middle" x="519" y="-211.39" font-family="Times,serif" font-size="14.00">ItemActiveModule</text>
</g>
<!-- ItemActiveModule&#45;&gt;CostCenterFormModule -->
<g id="edge7" class="edge">
<title>ItemActiveModule&#45;&gt;CostCenterFormModule</title>
<path fill="none" stroke="black" d="M541.91,-233.7C541.91,-233.7 541.91,-252.58 541.91,-252.58"/>
<polygon fill="black" stroke="black" points="538.41,-252.58 541.91,-262.58 545.41,-252.58 538.41,-252.58"/>
</g>
<!-- UrlModule -->
<g id="node9" class="node">
<title>UrlModule</title>
<polygon fill="#8dd3c7" stroke="black" points="440.21,-233.59 437.21,-237.59 416.21,-237.59 413.21,-233.59 361.79,-233.59 361.79,-197.59 440.21,-197.59 440.21,-233.59"/>
<text text-anchor="middle" x="401" y="-211.39" font-family="Times,serif" font-size="14.00">UrlModule</text>
</g>
<!-- UrlModule&#45;&gt;CostCenterFormModule -->
<g id="edge8" class="edge">
<title>UrlModule&#45;&gt;CostCenterFormModule</title>
<path fill="none" stroke="black" d="M401,-233.62C401,-249.99 401,-271.59 401,-271.59 401,-271.59 493.57,-271.59 493.57,-271.59"/>
<polygon fill="black" stroke="black" points="493.57,-275.09 503.57,-271.59 493.57,-268.09 493.57,-275.09"/>
</g>
<!-- CurrencyService -->
<g id="node11" class="node">
<title>CurrencyService</title>
<ellipse fill="#fdb462" stroke="black" cx="262" cy="-215.59" rx="75.84" ry="18"/>
<text text-anchor="middle" x="262" y="-211.39" font-family="Times,serif" font-size="14.00">CurrencyService</text>
</g>
<!-- CurrencyService&#45;&gt;CostCenterFormModule -->
<g id="edge10" class="edge">
<title>CurrencyService&#45;&gt;CostCenterFormModule</title>
<path fill="none" stroke="black" d="M262,-233.7C262,-252.93 262,-280.59 262,-280.59 262,-280.59 493.43,-280.59 493.43,-280.59"/>
<polygon fill="black" stroke="black" points="493.43,-284.09 503.43,-280.59 493.43,-277.09 493.43,-284.09"/>
</g>
<!-- OrgUnitService -->
<g id="node12" class="node">
<title>OrgUnitService</title>
<ellipse fill="#fdb462" stroke="black" cx="96" cy="-215.59" rx="72.35" ry="18"/>
<text text-anchor="middle" x="96" y="-211.39" font-family="Times,serif" font-size="14.00">OrgUnitService</text>
</g>
<!-- OrgUnitService&#45;&gt;CostCenterFormModule -->
<g id="edge11" class="edge">
<title>OrgUnitService&#45;&gt;CostCenterFormModule</title>
<path fill="none" stroke="black" d="M96,-233.88C96,-255.8 96,-289.59 96,-289.59 96,-289.59 493.58,-289.59 493.58,-289.59"/>
<polygon fill="black" stroke="black" points="493.58,-293.09 503.58,-289.59 493.58,-286.09 493.58,-293.09"/>
</g>
</g>
</svg>
