<?xml version="1.0" encoding="UTF-8" standalone="no"?>
<!DOCTYPE svg PUBLIC "-//W3C//DTD SVG 1.1//EN"
 "http://www.w3.org/Graphics/SVG/1.1/DTD/svg11.dtd">
<!-- Generated by graphviz version 2.47.3 (20210619.1520)
 -->
<!-- Title: dependencies Pages: 1 -->
<svg width="1164pt" height="247pt"
 viewBox="0.00 0.00 1164.00 246.80" xmlns="http://www.w3.org/2000/svg" xmlns:xlink="http://www.w3.org/1999/xlink">
<g id="graph0" class="graph" transform="scale(1 1) rotate(0) translate(4 242.8)">
<title>dependencies</title>
<polygon fill="white" stroke="transparent" points="-4,4 -4,-242.8 1160,-242.8 1160,4 -4,4"/>
<text text-anchor="middle" x="578" y="-8.2" font-family="sans-serif" font-size="14.00">dependencies</text>
<g id="clust1" class="cluster">
<title>cluster_CostCenterFormModule</title>
<polygon fill="none" stroke="black" stroke-dasharray="1,5" points="8,-32.8 8,-230.8 1148,-230.8 1148,-32.8 8,-32.8"/>
</g>
<g id="clust7" class="cluster">
<title>cluster_CostCenterFormModule_providers</title>
<polygon fill="none" stroke="black" points="810,-40.8 810,-92.8 1140,-92.8 1140,-40.8 810,-40.8"/>
</g>
<g id="clust5" class="cluster">
<title>cluster_CostCenterFormModule_exports</title>
<polygon fill="none" stroke="black" points="374,-170.8 374,-222.8 568,-222.8 568,-170.8 374,-170.8"/>
</g>
<g id="clust2" class="cluster">
<title>cluster_CostCenterFormModule_declarations</title>
<polygon fill="none" stroke="black" points="612,-40.8 612,-92.8 802,-92.8 802,-40.8 612,-40.8"/>
</g>
<g id="clust4" class="cluster">
<title>cluster_CostCenterFormModule_imports</title>
<polygon fill="none" stroke="black" points="16,-40.8 16,-92.8 604,-92.8 604,-40.8 16,-40.8"/>
</g>
<!-- CostCenterFormComponent -->
<g id="node1" class="node">
<title>CostCenterFormComponent</title>
<polygon fill="#ffffb3" stroke="black" points="794.16,-84.8 619.84,-84.8 619.84,-48.8 794.16,-48.8 794.16,-84.8"/>
<text text-anchor="middle" x="707" y="-62.6" font-family="Times,serif" font-size="14.00">CostCenterFormComponent</text>
</g>
<!-- CostCenterFormModule -->
<g id="node2" class="node">
<title>CostCenterFormModule</title>
<polygon fill="#8dd3c7" stroke="black" points="547.37,-149.8 544.37,-153.8 523.37,-153.8 520.37,-149.8 394.63,-149.8 394.63,-113.8 547.37,-113.8 547.37,-149.8"/>
<text text-anchor="middle" x="471" y="-127.6" font-family="Times,serif" font-size="14.00">CostCenterFormModule</text>
</g>
<!-- CostCenterFormComponent&#45;&gt;CostCenterFormModule -->
<g id="edge1" class="edge">
<title>CostCenterFormComponent&#45;&gt;CostCenterFormModule</title>
<path fill="none" stroke="black" d="M707,-84.83C707,-101.2 707,-122.8 707,-122.8 707,-122.8 557.62,-122.8 557.62,-122.8"/>
<polygon fill="black" stroke="black" points="557.62,-119.3 547.62,-122.8 557.62,-126.3 557.62,-119.3"/>
</g>
<!-- CostCenterFormComponent  -->
<g id="node8" class="node">
<title>CostCenterFormComponent </title>
<polygon fill="#fb8072" stroke="black" points="560.16,-214.8 381.84,-214.8 381.84,-178.8 560.16,-178.8 560.16,-214.8"/>
<text text-anchor="middle" x="471" y="-192.6" font-family="Times,serif" font-size="14.00">CostCenterFormComponent </text>
</g>
<!-- CostCenterFormModule&#45;&gt;CostCenterFormComponent  -->
<g id="edge7" class="edge">
<title>CostCenterFormModule&#45;&gt;CostCenterFormComponent </title>
<path fill="none" stroke="black" stroke-dasharray="5,2" d="M471,-149.91C471,-149.91 471,-168.79 471,-168.79"/>
<polygon fill="black" stroke="black" points="467.5,-168.79 471,-178.79 474.5,-168.79 467.5,-168.79"/>
</g>
<!-- FormErrorsModule -->
<g id="node3" class="node">
<title>FormErrorsModule</title>
<polygon fill="#8dd3c7" stroke="black" points="596.36,-84.8 593.36,-88.8 572.36,-88.8 569.36,-84.8 471.64,-84.8 471.64,-48.8 596.36,-48.8 596.36,-84.8"/>
<text text-anchor="middle" x="534" y="-62.6" font-family="Times,serif" font-size="14.00">FormErrorsModule</text>
</g>
<!-- FormErrorsModule&#45;&gt;CostCenterFormModule -->
<g id="edge2" class="edge">
<title>FormErrorsModule&#45;&gt;CostCenterFormModule</title>
<path fill="none" stroke="black" d="M509.5,-84.91C509.5,-84.91 509.5,-103.79 509.5,-103.79"/>
<polygon fill="black" stroke="black" points="506,-103.79 509.5,-113.79 513,-103.79 506,-103.79"/>
</g>
<!-- FormModule -->
<g id="node4" class="node">
<title>FormModule</title>
<polygon fill="#8dd3c7" stroke="black" points="453.88,-84.8 450.88,-88.8 429.88,-88.8 426.88,-84.8 364.12,-84.8 364.12,-48.8 453.88,-48.8 453.88,-84.8"/>
<text text-anchor="middle" x="409" y="-62.6" font-family="Times,serif" font-size="14.00">FormModule</text>
</g>
<!-- FormModule&#45;&gt;CostCenterFormModule -->
<g id="edge3" class="edge">
<title>FormModule&#45;&gt;CostCenterFormModule</title>
<path fill="none" stroke="black" d="M424.25,-84.91C424.25,-84.91 424.25,-103.79 424.25,-103.79"/>
<polygon fill="black" stroke="black" points="420.75,-103.79 424.25,-113.79 427.75,-103.79 420.75,-103.79"/>
</g>
<!-- I18nModule -->
<g id="node5" class="node">
<title>I18nModule</title>
<polygon fill="#8dd3c7" stroke="black" points="345.71,-84.8 342.71,-88.8 321.71,-88.8 318.71,-84.8 260.29,-84.8 260.29,-48.8 345.71,-48.8 345.71,-84.8"/>
<text text-anchor="middle" x="303" y="-62.6" font-family="Times,serif" font-size="14.00">I18nModule</text>
</g>
<!-- I18nModule&#45;&gt;CostCenterFormModule -->
<g id="edge4" class="edge">
<title>I18nModule&#45;&gt;CostCenterFormModule</title>
<path fill="none" stroke="black" d="M303,-84.83C303,-101.2 303,-122.8 303,-122.8 303,-122.8 384.37,-122.8 384.37,-122.8"/>
<polygon fill="black" stroke="black" points="384.37,-126.3 394.37,-122.8 384.37,-119.3 384.37,-126.3"/>
</g>
<!-- ItemActiveModule -->
<g id="node6" class="node">
<title>ItemActiveModule</title>
<polygon fill="#8dd3c7" stroke="black" points="242.02,-84.8 239.02,-88.8 218.02,-88.8 215.02,-84.8 119.98,-84.8 119.98,-48.8 242.02,-48.8 242.02,-84.8"/>
<text text-anchor="middle" x="181" y="-62.6" font-family="Times,serif" font-size="14.00">ItemActiveModule</text>
</g>
<!-- ItemActiveModule&#45;&gt;CostCenterFormModule -->
<g id="edge5" class="edge">
<title>ItemActiveModule&#45;&gt;CostCenterFormModule</title>
<path fill="none" stroke="black" d="M181,-84.91C181,-104.14 181,-131.8 181,-131.8 181,-131.8 384.43,-131.8 384.43,-131.8"/>
<polygon fill="black" stroke="black" points="384.43,-135.3 394.43,-131.8 384.43,-128.3 384.43,-135.3"/>
</g>
<!-- UrlModule -->
<g id="node7" class="node">
<title>UrlModule</title>
<polygon fill="#8dd3c7" stroke="black" points="102.21,-84.8 99.21,-88.8 78.21,-88.8 75.21,-84.8 23.79,-84.8 23.79,-48.8 102.21,-48.8 102.21,-84.8"/>
<text text-anchor="middle" x="63" y="-62.6" font-family="Times,serif" font-size="14.00">UrlModule</text>
</g>
<!-- UrlModule&#45;&gt;CostCenterFormModule -->
<g id="edge6" class="edge">
<title>UrlModule&#45;&gt;CostCenterFormModule</title>
<path fill="none" stroke="black" d="M63,-85.09C63,-107.01 63,-140.8 63,-140.8 63,-140.8 384.26,-140.8 384.26,-140.8"/>
<polygon fill="black" stroke="black" points="384.26,-144.3 394.26,-140.8 384.26,-137.3 384.26,-144.3"/>
</g>
<!-- CurrencyService -->
<g id="node9" class="node">
<title>CurrencyService</title>
<ellipse fill="#fdb462" stroke="black" cx="1056" cy="-66.8" rx="75.84" ry="18"/>
<text text-anchor="middle" x="1056" y="-62.6" font-family="Times,serif" font-size="14.00">CurrencyService</text>
</g>
<!-- CurrencyService&#45;&gt;CostCenterFormModule -->
<g id="edge8" class="edge">
<title>CurrencyService&#45;&gt;CostCenterFormModule</title>
<path fill="none" stroke="black" d="M1056,-85.09C1056,-107.01 1056,-140.8 1056,-140.8 1056,-140.8 557.48,-140.8 557.48,-140.8"/>
<polygon fill="black" stroke="black" points="557.48,-137.3 547.48,-140.8 557.48,-144.3 557.48,-137.3"/>
</g>
<!-- OrgUnitService -->
<g id="node10" class="node">
<title>OrgUnitService</title>
<ellipse fill="#fdb462" stroke="black" cx="890" cy="-66.8" rx="72.35" ry="18"/>
<text text-anchor="middle" x="890" y="-62.6" font-family="Times,serif" font-size="14.00">OrgUnitService</text>
</g>
<!-- OrgUnitService&#45;&gt;CostCenterFormModule -->
<g id="edge9" class="edge">
<title>OrgUnitService&#45;&gt;CostCenterFormModule</title>
<path fill="none" stroke="black" d="M890,-84.91C890,-104.14 890,-131.8 890,-131.8 890,-131.8 557.85,-131.8 557.85,-131.8"/>
<polygon fill="black" stroke="black" points="557.85,-128.3 547.85,-131.8 557.85,-135.3 557.85,-128.3"/>
</g>
</g>
</svg>
