<?xml version="1.0" encoding="UTF-8" standalone="no"?>
<!DOCTYPE svg PUBLIC "-//W3C//DTD SVG 1.1//EN"
 "http://www.w3.org/Graphics/SVG/1.1/DTD/svg11.dtd">
<!-- Generated by graphviz version 2.47.3 (20210619.1520)
 -->
<!-- Title: dependencies Pages: 1 -->
<svg width="1182pt" height="358pt"
 viewBox="0.00 0.00 1182.00 358.39" xmlns="http://www.w3.org/2000/svg" xmlns:xlink="http://www.w3.org/1999/xlink">
<g id="graph0" class="graph" transform="scale(1 1) rotate(0) translate(4 354.39)">
<title>dependencies</title>
<polygon fill="white" stroke="transparent" points="-4,4 -4,-354.39 1178,-354.39 1178,4 -4,4"/>
<text text-anchor="middle" x="587" y="-8.2" font-family="sans-serif" font-size="14.00">dependencies</text>
<g id="clust1" class="cluster">
<title>cluster_CostCenterFormModule</title>
<polygon fill="none" stroke="black" stroke-dasharray="1,5" points="8,-32.8 8,-342.39 1166,-342.39 1166,-32.8 8,-32.8"/>
</g>
<g id="clust7" class="cluster">
<title>cluster_CostCenterFormModule_providers</title>
<polygon fill="none" stroke="black" points="828,-152.39 828,-204.39 1158,-204.39 1158,-152.39 828,-152.39"/>
</g>
<g id="clust5" class="cluster">
<title>cluster_CostCenterFormModule_exports</title>
<polygon fill="none" stroke="black" points="475,-282.39 475,-334.39 669,-334.39 669,-282.39 475,-282.39"/>
</g>
<g id="clust2" class="cluster">
<title>cluster_CostCenterFormModule_declarations</title>
<polygon fill="none" stroke="black" points="34,-152.39 34,-204.39 224,-204.39 224,-152.39 34,-152.39"/>
</g>
<g id="clust4" class="cluster">
<title>cluster_CostCenterFormModule_imports</title>
<polygon fill="none" stroke="black" points="232,-152.39 232,-204.39 820,-204.39 820,-152.39 232,-152.39"/>
</g>
<g id="clust3" class="cluster">
<title>cluster_CostCenterFormModule_CostCenterFormComponent_providers</title>
<polygon fill="none" stroke="black" points="16,-40.8 16,-139.39 1158,-139.39 1158,-40.8 16,-40.8"/>
</g>
<!-- CostCenterFormComponent -->
<g id="node1" class="node">
<title>CostCenterFormComponent</title>
<polygon fill="#ffffb3" stroke="black" points="216.16,-196.39 41.84,-196.39 41.84,-160.39 216.16,-160.39 216.16,-196.39"/>
<text text-anchor="middle" x="129" y="-174.19" font-family="Times,serif" font-size="14.00">CostCenterFormComponent</text>
</g>
<!-- CostCenterFormModule -->
<g id="node2" class="node">
<title>CostCenterFormModule</title>
<polygon fill="#8dd3c7" stroke="black" points="648.37,-261.39 645.37,-265.39 624.37,-265.39 621.37,-261.39 495.63,-261.39 495.63,-225.39 648.37,-225.39 648.37,-261.39"/>
<text text-anchor="middle" x="572" y="-239.19" font-family="Times,serif" font-size="14.00">CostCenterFormModule</text>
</g>
<!-- CostCenterFormComponent&#45;&gt;CostCenterFormModule -->
<g id="edge1" class="edge">
<title>CostCenterFormComponent&#45;&gt;CostCenterFormModule</title>
<path fill="none" stroke="black" d="M129,-196.68C129,-218.6 129,-252.39 129,-252.39 129,-252.39 485.59,-252.39 485.59,-252.39"/>
<polygon fill="black" stroke="black" points="485.59,-255.89 495.59,-252.39 485.59,-248.89 485.59,-255.89"/>
</g>
<!-- CostCenterFormComponent  -->
<g id="node10" class="node">
<title>CostCenterFormComponent </title>
<polygon fill="#fb8072" stroke="black" points="661.16,-326.39 482.84,-326.39 482.84,-290.39 661.16,-290.39 661.16,-326.39"/>
<text text-anchor="middle" x="572" y="-304.19" font-family="Times,serif" font-size="14.00">CostCenterFormComponent </text>
</g>
<!-- CostCenterFormModule&#45;&gt;CostCenterFormComponent  -->
<g id="edge9" class="edge">
<title>CostCenterFormModule&#45;&gt;CostCenterFormComponent </title>
<path fill="none" stroke="black" stroke-dasharray="5,2" d="M572,-261.5C572,-261.5 572,-280.38 572,-280.38"/>
<polygon fill="black" stroke="black" points="568.5,-280.38 572,-290.38 575.5,-280.38 568.5,-280.38"/>
</g>
<!-- {
 &#160;&#160;&#160;provide: ItemService, useExisting: CostCenterItemService,
} -->
<g id="node3" class="node">
<title>{
 &#160;&#160;&#160;provide: ItemService, useExisting: CostCenterItemService,
}</title>
<ellipse fill="#fdb462" stroke="black" cx="894" cy="-90.1" rx="255.93" ry="41.09"/>
<text text-anchor="middle" x="894" y="-102.7" font-family="Times,serif" font-size="14.00">{</text>
<text text-anchor="middle" x="894" y="-85.9" font-family="Times,serif" font-size="14.00"> &#160;&#160;&#160;provide: ItemService, useExisting: CostCenterItemService,</text>
<text text-anchor="middle" x="894" y="-69.1" font-family="Times,serif" font-size="14.00">}</text>
</g>
<!-- {
 &#160;&#160;&#160;provide: ItemService, useExisting: CostCenterItemService,
}&#45;&gt;CostCenterFormComponent -->
<g id="edge2" class="edge">
<title>{
 &#160;&#160;&#160;provide: ItemService, useExisting: CostCenterItemService,
}&#45;&gt;CostCenterFormComponent</title>
<path fill="none" stroke="black" d="M654.11,-104.59C654.11,-121.27 654.11,-146.39 654.11,-146.39 654.11,-146.39 158.11,-146.39 158.11,-146.39 158.11,-146.39 158.11,-150.15 158.11,-150.15"/>
<polygon fill="black" stroke="black" points="154.61,-150.15 158.11,-160.15 161.61,-150.15 154.61,-150.15"/>
</g>
<!-- {
 &#160;&#160;&#160;provide: CurrentItemService, useExisting: CurrentCostCenterService,
} -->
<g id="node4" class="node">
<title>{
 &#160;&#160;&#160;provide: CurrentItemService, useExisting: CurrentCostCenterService,
}</title>
<ellipse fill="#fdb462" stroke="black" cx="322" cy="-90.1" rx="298.09" ry="41.09"/>
<text text-anchor="middle" x="322" y="-102.7" font-family="Times,serif" font-size="14.00">{</text>
<text text-anchor="middle" x="322" y="-85.9" font-family="Times,serif" font-size="14.00"> &#160;&#160;&#160;provide: CurrentItemService, useExisting: CurrentCostCenterService,</text>
<text text-anchor="middle" x="322" y="-69.1" font-family="Times,serif" font-size="14.00">}</text>
</g>
<!-- {
 &#160;&#160;&#160;provide: CurrentItemService, useExisting: CurrentCostCenterService,
}&#45;&gt;CostCenterFormComponent -->
<g id="edge3" class="edge">
<title>{
 &#160;&#160;&#160;provide: CurrentItemService, useExisting: CurrentCostCenterService,
}&#45;&gt;CostCenterFormComponent</title>
<path fill="none" stroke="black" d="M99.89,-118.03C99.89,-118.03 99.89,-150.36 99.89,-150.36"/>
<polygon fill="black" stroke="black" points="96.39,-150.36 99.89,-160.36 103.39,-150.36 96.39,-150.36"/>
</g>
<!-- FormErrorsModule -->
<g id="node5" class="node">
<title>FormErrorsModule</title>
<polygon fill="#8dd3c7" stroke="black" points="812.36,-196.39 809.36,-200.39 788.36,-200.39 785.36,-196.39 687.64,-196.39 687.64,-160.39 812.36,-160.39 812.36,-196.39"/>
<text text-anchor="middle" x="750" y="-174.19" font-family="Times,serif" font-size="14.00">FormErrorsModule</text>
</g>
<!-- FormErrorsModule&#45;&gt;CostCenterFormModule -->
<g id="edge4" class="edge">
<title>FormErrorsModule&#45;&gt;CostCenterFormModule</title>
<path fill="none" stroke="black" d="M750,-196.42C750,-212.79 750,-234.39 750,-234.39 750,-234.39 658.52,-234.39 658.52,-234.39"/>
<polygon fill="black" stroke="black" points="658.52,-230.89 648.52,-234.39 658.52,-237.89 658.52,-230.89"/>
</g>
<!-- FormModule -->
<g id="node6" class="node">
<title>FormModule</title>
<polygon fill="#8dd3c7" stroke="black" points="669.88,-196.39 666.88,-200.39 645.88,-200.39 642.88,-196.39 580.12,-196.39 580.12,-160.39 669.88,-160.39 669.88,-196.39"/>
<text text-anchor="middle" x="625" y="-174.19" font-family="Times,serif" font-size="14.00">FormModule</text>
</g>
<!-- FormModule&#45;&gt;CostCenterFormModule -->
<g id="edge5" class="edge">
<title>FormModule&#45;&gt;CostCenterFormModule</title>
<path fill="none" stroke="black" d="M614.25,-196.5C614.25,-196.5 614.25,-215.38 614.25,-215.38"/>
<polygon fill="black" stroke="black" points="610.75,-215.38 614.25,-225.38 617.75,-215.38 610.75,-215.38"/>
</g>
<!-- I18nModule -->
<g id="node7" class="node">
<title>I18nModule</title>
<polygon fill="#8dd3c7" stroke="black" points="561.71,-196.39 558.71,-200.39 537.71,-200.39 534.71,-196.39 476.29,-196.39 476.29,-160.39 561.71,-160.39 561.71,-196.39"/>
<text text-anchor="middle" x="519" y="-174.19" font-family="Times,serif" font-size="14.00">I18nModule</text>
</g>
<!-- I18nModule&#45;&gt;CostCenterFormModule -->
<g id="edge6" class="edge">
<title>I18nModule&#45;&gt;CostCenterFormModule</title>
<path fill="none" stroke="black" d="M528.58,-196.5C528.58,-196.5 528.58,-215.38 528.58,-215.38"/>
<polygon fill="black" stroke="black" points="525.08,-215.38 528.58,-225.38 532.08,-215.38 525.08,-215.38"/>
</g>
<!-- ItemActiveModule -->
<g id="node8" class="node">
<title>ItemActiveModule</title>
<polygon fill="#8dd3c7" stroke="black" points="458.02,-196.39 455.02,-200.39 434.02,-200.39 431.02,-196.39 335.98,-196.39 335.98,-160.39 458.02,-160.39 458.02,-196.39"/>
<text text-anchor="middle" x="397" y="-174.19" font-family="Times,serif" font-size="14.00">ItemActiveModule</text>
</g>
<!-- ItemActiveModule&#45;&gt;CostCenterFormModule -->
<g id="edge7" class="edge">
<title>ItemActiveModule&#45;&gt;CostCenterFormModule</title>
<path fill="none" stroke="black" d="M397,-196.42C397,-212.79 397,-234.39 397,-234.39 397,-234.39 485.5,-234.39 485.5,-234.39"/>
<polygon fill="black" stroke="black" points="485.5,-237.89 495.5,-234.39 485.5,-230.89 485.5,-237.89"/>
</g>
<!-- UrlModule -->
<g id="node9" class="node">
<title>UrlModule</title>
<polygon fill="#8dd3c7" stroke="black" points="318.21,-196.39 315.21,-200.39 294.21,-200.39 291.21,-196.39 239.79,-196.39 239.79,-160.39 318.21,-160.39 318.21,-196.39"/>
<text text-anchor="middle" x="279" y="-174.19" font-family="Times,serif" font-size="14.00">UrlModule</text>
</g>
<!-- UrlModule&#45;&gt;CostCenterFormModule -->
<g id="edge8" class="edge">
<title>UrlModule&#45;&gt;CostCenterFormModule</title>
<path fill="none" stroke="black" d="M279,-196.5C279,-215.73 279,-243.39 279,-243.39 279,-243.39 485.4,-243.39 485.4,-243.39"/>
<polygon fill="black" stroke="black" points="485.4,-246.89 495.4,-243.39 485.4,-239.89 485.4,-246.89"/>
</g>
<!-- CurrencyService -->
<g id="node11" class="node">
<title>CurrencyService</title>
<ellipse fill="#fdb462" stroke="black" cx="1074" cy="-178.39" rx="75.84" ry="18"/>
<text text-anchor="middle" x="1074" y="-174.19" font-family="Times,serif" font-size="14.00">CurrencyService</text>
</g>
<!-- CurrencyService&#45;&gt;CostCenterFormModule -->
<g id="edge10" class="edge">
<title>CurrencyService&#45;&gt;CostCenterFormModule</title>
<path fill="none" stroke="black" d="M1074,-196.68C1074,-218.6 1074,-252.39 1074,-252.39 1074,-252.39 658.52,-252.39 658.52,-252.39"/>
<polygon fill="black" stroke="black" points="658.52,-248.89 648.52,-252.39 658.52,-255.89 658.52,-248.89"/>
</g>
<!-- OrgUnitService -->
<g id="node12" class="node">
<title>OrgUnitService</title>
<ellipse fill="#fdb462" stroke="black" cx="908" cy="-178.39" rx="72.35" ry="18"/>
<text text-anchor="middle" x="908" y="-174.19" font-family="Times,serif" font-size="14.00">OrgUnitService</text>
</g>
<!-- OrgUnitService&#45;&gt;CostCenterFormModule -->
<g id="edge11" class="edge">
<title>OrgUnitService&#45;&gt;CostCenterFormModule</title>
<path fill="none" stroke="black" d="M908,-196.5C908,-215.73 908,-243.39 908,-243.39 908,-243.39 658.66,-243.39 658.66,-243.39"/>
<polygon fill="black" stroke="black" points="658.66,-239.89 648.66,-243.39 658.66,-246.89 658.66,-239.89"/>
</g>
</g>
</svg>
