<?xml version="1.0" encoding="UTF-8" standalone="no"?>
<!DOCTYPE svg PUBLIC "-//W3C//DTD SVG 1.1//EN"
 "http://www.w3.org/Graphics/SVG/1.1/DTD/svg11.dtd">
<!-- Generated by graphviz version 2.47.3 (20210619.1520)
 -->
<!-- Title: dependencies Pages: 1 -->
<svg width="1182pt" height="358pt"
 viewBox="0.00 0.00 1182.00 358.39" xmlns="http://www.w3.org/2000/svg" xmlns:xlink="http://www.w3.org/1999/xlink">
<g id="graph0" class="graph" transform="scale(1 1) rotate(0) translate(4 354.39)">
<title>dependencies</title>
<polygon fill="white" stroke="transparent" points="-4,4 -4,-354.39 1178,-354.39 1178,4 -4,4"/>
<text text-anchor="middle" x="587" y="-8.2" font-family="sans-serif" font-size="14.00">dependencies</text>
<g id="clust1" class="cluster">
<title>cluster_CostCenterFormModule</title>
<polygon fill="none" stroke="black" stroke-dasharray="1,5" points="8,-32.8 8,-342.39 1166,-342.39 1166,-32.8 8,-32.8"/>
</g>
<g id="clust7" class="cluster">
<title>cluster_CostCenterFormModule_providers</title>
<polygon fill="none" stroke="black" points="819,-152.39 819,-204.39 1149,-204.39 1149,-152.39 819,-152.39"/>
</g>
<g id="clust2" class="cluster">
<title>cluster_CostCenterFormModule_declarations</title>
<polygon fill="none" stroke="black" points="621,-152.39 621,-204.39 811,-204.39 811,-152.39 621,-152.39"/>
</g>
<g id="clust5" class="cluster">
<title>cluster_CostCenterFormModule_exports</title>
<polygon fill="none" stroke="black" points="383,-282.39 383,-334.39 577,-334.39 577,-282.39 383,-282.39"/>
</g>
<g id="clust3" class="cluster">
<title>cluster_CostCenterFormModule_CostCenterFormComponent_providers</title>
<polygon fill="none" stroke="black" points="16,-40.8 16,-139.39 1158,-139.39 1158,-40.8 16,-40.8"/>
</g>
<g id="clust4" class="cluster">
<title>cluster_CostCenterFormModule_imports</title>
<polygon fill="none" stroke="black" points="25,-152.39 25,-204.39 613,-204.39 613,-152.39 25,-152.39"/>
</g>
<!-- CostCenterFormComponent -->
<g id="node1" class="node">
<title>CostCenterFormComponent</title>
<polygon fill="#ffffb3" stroke="black" points="803.16,-196.39 628.84,-196.39 628.84,-160.39 803.16,-160.39 803.16,-196.39"/>
<text text-anchor="middle" x="716" y="-174.19" font-family="Times,serif" font-size="14.00">CostCenterFormComponent</text>
</g>
<!-- CostCenterFormModule -->
<g id="node2" class="node">
<title>CostCenterFormModule</title>
<polygon fill="#8dd3c7" stroke="black" points="556.37,-261.39 553.37,-265.39 532.37,-265.39 529.37,-261.39 403.63,-261.39 403.63,-225.39 556.37,-225.39 556.37,-261.39"/>
<text text-anchor="middle" x="480" y="-239.19" font-family="Times,serif" font-size="14.00">CostCenterFormModule</text>
</g>
<!-- CostCenterFormComponent&#45;&gt;CostCenterFormModule -->
<g id="edge1" class="edge">
<title>CostCenterFormComponent&#45;&gt;CostCenterFormModule</title>
<path fill="none" stroke="black" d="M716,-196.42C716,-212.79 716,-234.39 716,-234.39 716,-234.39 566.62,-234.39 566.62,-234.39"/>
<polygon fill="black" stroke="black" points="566.62,-230.89 556.62,-234.39 566.62,-237.89 566.62,-230.89"/>
</g>
<!-- CostCenterFormComponent  -->
<g id="node10" class="node">
<title>CostCenterFormComponent </title>
<polygon fill="#fb8072" stroke="black" points="569.16,-326.39 390.84,-326.39 390.84,-290.39 569.16,-290.39 569.16,-326.39"/>
<text text-anchor="middle" x="480" y="-304.19" font-family="Times,serif" font-size="14.00">CostCenterFormComponent </text>
</g>
<!-- CostCenterFormModule&#45;&gt;CostCenterFormComponent  -->
<g id="edge9" class="edge">
<title>CostCenterFormModule&#45;&gt;CostCenterFormComponent </title>
<path fill="none" stroke="black" stroke-dasharray="5,2" d="M480,-261.5C480,-261.5 480,-280.38 480,-280.38"/>
<polygon fill="black" stroke="black" points="476.5,-280.38 480,-290.38 483.5,-280.38 476.5,-280.38"/>
</g>
<!-- {
 &#160;&#160;&#160;provide: ItemService, useExisting: CostCenterItemService,
} -->
<g id="node3" class="node">
<title>{
 &#160;&#160;&#160;provide: ItemService, useExisting: CostCenterItemService,
}</title>
<ellipse fill="#fdb462" stroke="black" cx="894" cy="-90.1" rx="255.93" ry="41.09"/>
<text text-anchor="middle" x="894" y="-102.7" font-family="Times,serif" font-size="14.00">{</text>
<text text-anchor="middle" x="894" y="-85.9" font-family="Times,serif" font-size="14.00"> &#160;&#160;&#160;provide: ItemService, useExisting: CostCenterItemService,</text>
<text text-anchor="middle" x="894" y="-69.1" font-family="Times,serif" font-size="14.00">}</text>
</g>
<!-- {
 &#160;&#160;&#160;provide: ItemService, useExisting: CostCenterItemService,
}&#45;&gt;CostCenterFormComponent -->
<g id="edge2" class="edge">
<title>{
 &#160;&#160;&#160;provide: ItemService, useExisting: CostCenterItemService,
}&#45;&gt;CostCenterFormComponent</title>
<path fill="none" stroke="black" d="M720.81,-120.48C720.81,-120.48 720.81,-150.32 720.81,-150.32"/>
<polygon fill="black" stroke="black" points="717.31,-150.32 720.81,-160.32 724.31,-150.32 717.31,-150.32"/>
</g>
<!-- {
 &#160;&#160;&#160;provide: CurrentItemService, useExisting: CurrentCostCenterService,
} -->
<g id="node4" class="node">
<title>{
 &#160;&#160;&#160;provide: CurrentItemService, useExisting: CurrentCostCenterService,
}</title>
<ellipse fill="#fdb462" stroke="black" cx="322" cy="-90.1" rx="298.09" ry="41.09"/>
<text text-anchor="middle" x="322" y="-102.7" font-family="Times,serif" font-size="14.00">{</text>
<text text-anchor="middle" x="322" y="-85.9" font-family="Times,serif" font-size="14.00"> &#160;&#160;&#160;provide: CurrentItemService, useExisting: CurrentCostCenterService,</text>
<text text-anchor="middle" x="322" y="-69.1" font-family="Times,serif" font-size="14.00">}</text>
</g>
<!-- {
 &#160;&#160;&#160;provide: CurrentItemService, useExisting: CurrentCostCenterService,
}&#45;&gt;CostCenterFormComponent -->
<g id="edge3" class="edge">
<title>{
 &#160;&#160;&#160;provide: CurrentItemService, useExisting: CurrentCostCenterService,
}&#45;&gt;CostCenterFormComponent</title>
<path fill="none" stroke="black" d="M612.74,-99.21C612.74,-121.77 612.74,-178.39 612.74,-178.39 612.74,-178.39 618.42,-178.39 618.42,-178.39"/>
<polygon fill="black" stroke="black" points="618.42,-181.89 628.42,-178.39 618.42,-174.89 618.42,-181.89"/>
</g>
<!-- FormErrorsModule -->
<g id="node5" class="node">
<title>FormErrorsModule</title>
<polygon fill="#8dd3c7" stroke="black" points="605.36,-196.39 602.36,-200.39 581.36,-200.39 578.36,-196.39 480.64,-196.39 480.64,-160.39 605.36,-160.39 605.36,-196.39"/>
<text text-anchor="middle" x="543" y="-174.19" font-family="Times,serif" font-size="14.00">FormErrorsModule</text>
</g>
<!-- FormErrorsModule&#45;&gt;CostCenterFormModule -->
<g id="edge4" class="edge">
<title>FormErrorsModule&#45;&gt;CostCenterFormModule</title>
<path fill="none" stroke="black" d="M518.5,-196.5C518.5,-196.5 518.5,-215.38 518.5,-215.38"/>
<polygon fill="black" stroke="black" points="515,-215.38 518.5,-225.38 522,-215.38 515,-215.38"/>
</g>
<!-- FormModule -->
<g id="node6" class="node">
<title>FormModule</title>
<polygon fill="#8dd3c7" stroke="black" points="462.88,-196.39 459.88,-200.39 438.88,-200.39 435.88,-196.39 373.12,-196.39 373.12,-160.39 462.88,-160.39 462.88,-196.39"/>
<text text-anchor="middle" x="418" y="-174.19" font-family="Times,serif" font-size="14.00">FormModule</text>
</g>
<!-- FormModule&#45;&gt;CostCenterFormModule -->
<g id="edge5" class="edge">
<title>FormModule&#45;&gt;CostCenterFormModule</title>
<path fill="none" stroke="black" d="M433.25,-196.5C433.25,-196.5 433.25,-215.38 433.25,-215.38"/>
<polygon fill="black" stroke="black" points="429.75,-215.38 433.25,-225.38 436.75,-215.38 429.75,-215.38"/>
</g>
<!-- I18nModule -->
<g id="node7" class="node">
<title>I18nModule</title>
<polygon fill="#8dd3c7" stroke="black" points="354.71,-196.39 351.71,-200.39 330.71,-200.39 327.71,-196.39 269.29,-196.39 269.29,-160.39 354.71,-160.39 354.71,-196.39"/>
<text text-anchor="middle" x="312" y="-174.19" font-family="Times,serif" font-size="14.00">I18nModule</text>
</g>
<!-- I18nModule&#45;&gt;CostCenterFormModule -->
<g id="edge6" class="edge">
<title>I18nModule&#45;&gt;CostCenterFormModule</title>
<path fill="none" stroke="black" d="M312,-196.42C312,-212.79 312,-234.39 312,-234.39 312,-234.39 393.37,-234.39 393.37,-234.39"/>
<polygon fill="black" stroke="black" points="393.37,-237.89 403.37,-234.39 393.37,-230.89 393.37,-237.89"/>
</g>
<!-- ItemActiveModule -->
<g id="node8" class="node">
<title>ItemActiveModule</title>
<polygon fill="#8dd3c7" stroke="black" points="251.02,-196.39 248.02,-200.39 227.02,-200.39 224.02,-196.39 128.98,-196.39 128.98,-160.39 251.02,-160.39 251.02,-196.39"/>
<text text-anchor="middle" x="190" y="-174.19" font-family="Times,serif" font-size="14.00">ItemActiveModule</text>
</g>
<!-- ItemActiveModule&#45;&gt;CostCenterFormModule -->
<g id="edge7" class="edge">
<title>ItemActiveModule&#45;&gt;CostCenterFormModule</title>
<path fill="none" stroke="black" d="M190,-196.5C190,-215.73 190,-243.39 190,-243.39 190,-243.39 393.43,-243.39 393.43,-243.39"/>
<polygon fill="black" stroke="black" points="393.43,-246.89 403.43,-243.39 393.43,-239.89 393.43,-246.89"/>
</g>
<!-- UrlModule -->
<g id="node9" class="node">
<title>UrlModule</title>
<polygon fill="#8dd3c7" stroke="black" points="111.21,-196.39 108.21,-200.39 87.21,-200.39 84.21,-196.39 32.79,-196.39 32.79,-160.39 111.21,-160.39 111.21,-196.39"/>
<text text-anchor="middle" x="72" y="-174.19" font-family="Times,serif" font-size="14.00">UrlModule</text>
</g>
<!-- UrlModule&#45;&gt;CostCenterFormModule -->
<g id="edge8" class="edge">
<title>UrlModule&#45;&gt;CostCenterFormModule</title>
<path fill="none" stroke="black" d="M72,-196.68C72,-218.6 72,-252.39 72,-252.39 72,-252.39 393.26,-252.39 393.26,-252.39"/>
<polygon fill="black" stroke="black" points="393.26,-255.89 403.26,-252.39 393.26,-248.89 393.26,-255.89"/>
</g>
<!-- CurrencyService -->
<g id="node11" class="node">
<title>CurrencyService</title>
<ellipse fill="#fdb462" stroke="black" cx="1065" cy="-178.39" rx="75.84" ry="18"/>
<text text-anchor="middle" x="1065" y="-174.19" font-family="Times,serif" font-size="14.00">CurrencyService</text>
</g>
<!-- CurrencyService&#45;&gt;CostCenterFormModule -->
<g id="edge10" class="edge">
<title>CurrencyService&#45;&gt;CostCenterFormModule</title>
<path fill="none" stroke="black" d="M1065,-196.68C1065,-218.6 1065,-252.39 1065,-252.39 1065,-252.39 566.48,-252.39 566.48,-252.39"/>
<polygon fill="black" stroke="black" points="566.48,-248.89 556.48,-252.39 566.48,-255.89 566.48,-248.89"/>
</g>
<!-- OrgUnitService -->
<g id="node12" class="node">
<title>OrgUnitService</title>
<ellipse fill="#fdb462" stroke="black" cx="899" cy="-178.39" rx="72.35" ry="18"/>
<text text-anchor="middle" x="899" y="-174.19" font-family="Times,serif" font-size="14.00">OrgUnitService</text>
</g>
<!-- OrgUnitService&#45;&gt;CostCenterFormModule -->
<g id="edge11" class="edge">
<title>OrgUnitService&#45;&gt;CostCenterFormModule</title>
<path fill="none" stroke="black" d="M899,-196.5C899,-215.73 899,-243.39 899,-243.39 899,-243.39 566.85,-243.39 566.85,-243.39"/>
<polygon fill="black" stroke="black" points="566.85,-239.89 556.85,-243.39 566.85,-246.89 566.85,-239.89"/>
</g>
</g>
</svg>
