<?xml version="1.0" encoding="UTF-8" standalone="no"?>
<!DOCTYPE svg PUBLIC "-//W3C//DTD SVG 1.1//EN"
 "http://www.w3.org/Graphics/SVG/1.1/DTD/svg11.dtd">
<!-- Generated by graphviz version 2.47.0 (20210316.0004)
 -->
<!-- Title: dependencies Pages: 1 -->
<svg width="1182pt" height="396pt"
 viewBox="0.00 0.00 1182.00 395.59" xmlns="http://www.w3.org/2000/svg" xmlns:xlink="http://www.w3.org/1999/xlink">
<g id="graph0" class="graph" transform="scale(1 1) rotate(0) translate(4 391.59)">
<title>dependencies</title>
<polygon fill="white" stroke="transparent" points="-4,4 -4,-391.59 1178,-391.59 1178,4 -4,4"/>
<text text-anchor="start" x="566.01" y="-42.4" font-family="sans-serif" font-weight="bold" font-size="14.00">Legend</text>
<polygon fill="#ffffb3" stroke="transparent" points="353,-10 353,-30 373,-30 373,-10 353,-10"/>
<text text-anchor="start" x="376.63" y="-15.4" font-family="sans-serif" font-size="14.00"> &#160;Declarations</text>
<polygon fill="#8dd3c7" stroke="transparent" points="466,-10 466,-30 486,-30 486,-10 466,-10"/>
<text text-anchor="start" x="489.73" y="-15.4" font-family="sans-serif" font-size="14.00"> &#160;Module</text>
<polygon fill="#80b1d3" stroke="transparent" points="552,-10 552,-30 572,-30 572,-10 552,-10"/>
<text text-anchor="start" x="575.78" y="-15.4" font-family="sans-serif" font-size="14.00"> &#160;Bootstrap</text>
<polygon fill="#fdb462" stroke="transparent" points="649,-10 649,-30 669,-30 669,-10 649,-10"/>
<text text-anchor="start" x="672.67" y="-15.4" font-family="sans-serif" font-size="14.00"> &#160;Providers</text>
<polygon fill="#fb8072" stroke="transparent" points="745,-10 745,-30 765,-30 765,-10 745,-10"/>
<text text-anchor="start" x="768.73" y="-15.4" font-family="sans-serif" font-size="14.00"> &#160;Exports</text>
<g id="clust1" class="cluster">
<title>cluster_CostCenterFormModule</title>
<polygon fill="none" stroke="black" stroke-dasharray="1,5" points="8,-70 8,-379.59 1166,-379.59 1166,-70 8,-70"/>
</g>
<g id="clust7" class="cluster">
<title>cluster_CostCenterFormModule_providers</title>
<polygon fill="none" stroke="black" points="828,-189.59 828,-241.59 1158,-241.59 1158,-189.59 828,-189.59"/>
</g>
<g id="clust2" class="cluster">
<title>cluster_CostCenterFormModule_declarations</title>
<polygon fill="none" stroke="black" points="34,-189.59 34,-241.59 224,-241.59 224,-189.59 34,-189.59"/>
</g>
<g id="clust4" class="cluster">
<title>cluster_CostCenterFormModule_imports</title>
<polygon fill="none" stroke="black" points="232,-189.59 232,-241.59 820,-241.59 820,-189.59 232,-189.59"/>
</g>
<g id="clust3" class="cluster">
<title>cluster_CostCenterFormModule_CostCenterFormComponent_providers</title>
<polygon fill="none" stroke="black" points="16,-78 16,-176.59 1158,-176.59 1158,-78 16,-78"/>
</g>
<g id="clust5" class="cluster">
<title>cluster_CostCenterFormModule_exports</title>
<polygon fill="none" stroke="black" points="475,-319.59 475,-371.59 669,-371.59 669,-319.59 475,-319.59"/>
</g>
<!-- CostCenterFormComponent -->
<g id="node1" class="node">
<title>CostCenterFormComponent</title>
<polygon fill="#ffffb3" stroke="black" points="216.16,-233.59 41.84,-233.59 41.84,-197.59 216.16,-197.59 216.16,-233.59"/>
<text text-anchor="middle" x="129" y="-211.39" font-family="Times,serif" font-size="14.00">CostCenterFormComponent</text>
</g>
<!-- CostCenterFormModule -->
<g id="node2" class="node">
<title>CostCenterFormModule</title>
<polygon fill="#8dd3c7" stroke="black" points="648.37,-298.59 645.37,-302.59 624.37,-302.59 621.37,-298.59 495.63,-298.59 495.63,-262.59 648.37,-262.59 648.37,-298.59"/>
<text text-anchor="middle" x="572" y="-276.39" font-family="Times,serif" font-size="14.00">CostCenterFormModule</text>
</g>
<!-- CostCenterFormComponent&#45;&gt;CostCenterFormModule -->
<g id="edge1" class="edge">
<title>CostCenterFormComponent&#45;&gt;CostCenterFormModule</title>
<path fill="none" stroke="black" d="M129,-233.88C129,-255.8 129,-289.59 129,-289.59 129,-289.59 485.59,-289.59 485.59,-289.59"/>
<polygon fill="black" stroke="black" points="485.59,-293.09 495.59,-289.59 485.59,-286.09 485.59,-293.09"/>
</g>
<!-- CostCenterFormComponent  -->
<g id="node10" class="node">
<title>CostCenterFormComponent </title>
<polygon fill="#fb8072" stroke="black" points="661.16,-363.59 482.84,-363.59 482.84,-327.59 661.16,-327.59 661.16,-363.59"/>
<text text-anchor="middle" x="572" y="-341.39" font-family="Times,serif" font-size="14.00">CostCenterFormComponent </text>
</g>
<!-- CostCenterFormModule&#45;&gt;CostCenterFormComponent  -->
<g id="edge9" class="edge">
<title>CostCenterFormModule&#45;&gt;CostCenterFormComponent </title>
<path fill="none" stroke="black" stroke-dasharray="5,2" d="M572,-298.7C572,-298.7 572,-317.58 572,-317.58"/>
<polygon fill="black" stroke="black" points="568.5,-317.58 572,-327.58 575.5,-317.58 568.5,-317.58"/>
</g>
<!-- {
 &#160;&#160;&#160;provide: ItemService, useExisting: CostCenterItemService,
} -->
<g id="node3" class="node">
<title>{
 &#160;&#160;&#160;provide: ItemService, useExisting: CostCenterItemService,
}</title>
<ellipse fill="#fdb462" stroke="black" cx="894" cy="-127.3" rx="255.93" ry="41.09"/>
<text text-anchor="middle" x="894" y="-139.9" font-family="Times,serif" font-size="14.00">{</text>
<text text-anchor="middle" x="894" y="-123.1" font-family="Times,serif" font-size="14.00"> &#160;&#160;&#160;provide: ItemService, useExisting: CostCenterItemService,</text>
<text text-anchor="middle" x="894" y="-106.3" font-family="Times,serif" font-size="14.00">}</text>
</g>
<!-- {
 &#160;&#160;&#160;provide: ItemService, useExisting: CostCenterItemService,
}&#45;&gt;CostCenterFormComponent -->
<g id="edge2" class="edge">
<title>{
 &#160;&#160;&#160;provide: ItemService, useExisting: CostCenterItemService,
}&#45;&gt;CostCenterFormComponent</title>
<path fill="none" stroke="black" d="M654.11,-141.79C654.11,-158.47 654.11,-183.59 654.11,-183.59 654.11,-183.59 158.11,-183.59 158.11,-183.59 158.11,-183.59 158.11,-187.35 158.11,-187.35"/>
<polygon fill="black" stroke="black" points="154.61,-187.35 158.11,-197.35 161.61,-187.35 154.61,-187.35"/>
</g>
<!-- {
 &#160;&#160;&#160;provide: CurrentItemService, useExisting: CurrentCostCenterService,
} -->
<g id="node4" class="node">
<title>{
 &#160;&#160;&#160;provide: CurrentItemService, useExisting: CurrentCostCenterService,
}</title>
<ellipse fill="#fdb462" stroke="black" cx="322" cy="-127.3" rx="298.09" ry="41.09"/>
<text text-anchor="middle" x="322" y="-139.9" font-family="Times,serif" font-size="14.00">{</text>
<text text-anchor="middle" x="322" y="-123.1" font-family="Times,serif" font-size="14.00"> &#160;&#160;&#160;provide: CurrentItemService, useExisting: CurrentCostCenterService,</text>
<text text-anchor="middle" x="322" y="-106.3" font-family="Times,serif" font-size="14.00">}</text>
</g>
<!-- {
 &#160;&#160;&#160;provide: CurrentItemService, useExisting: CurrentCostCenterService,
}&#45;&gt;CostCenterFormComponent -->
<g id="edge3" class="edge">
<title>{
 &#160;&#160;&#160;provide: CurrentItemService, useExisting: CurrentCostCenterService,
}&#45;&gt;CostCenterFormComponent</title>
<path fill="none" stroke="black" d="M99.89,-155.23C99.89,-155.23 99.89,-187.56 99.89,-187.56"/>
<polygon fill="black" stroke="black" points="96.39,-187.56 99.89,-197.56 103.39,-187.56 96.39,-187.56"/>
</g>
<!-- FormErrorsModule -->
<g id="node5" class="node">
<title>FormErrorsModule</title>
<polygon fill="#8dd3c7" stroke="black" points="812.36,-233.59 809.36,-237.59 788.36,-237.59 785.36,-233.59 687.64,-233.59 687.64,-197.59 812.36,-197.59 812.36,-233.59"/>
<text text-anchor="middle" x="750" y="-211.39" font-family="Times,serif" font-size="14.00">FormErrorsModule</text>
</g>
<!-- FormErrorsModule&#45;&gt;CostCenterFormModule -->
<g id="edge4" class="edge">
<title>FormErrorsModule&#45;&gt;CostCenterFormModule</title>
<path fill="none" stroke="black" d="M750,-233.62C750,-249.99 750,-271.59 750,-271.59 750,-271.59 658.52,-271.59 658.52,-271.59"/>
<polygon fill="black" stroke="black" points="658.52,-268.09 648.52,-271.59 658.52,-275.09 658.52,-268.09"/>
</g>
<!-- FormModule -->
<g id="node6" class="node">
<title>FormModule</title>
<polygon fill="#8dd3c7" stroke="black" points="669.88,-233.59 666.88,-237.59 645.88,-237.59 642.88,-233.59 580.12,-233.59 580.12,-197.59 669.88,-197.59 669.88,-233.59"/>
<text text-anchor="middle" x="625" y="-211.39" font-family="Times,serif" font-size="14.00">FormModule</text>
</g>
<!-- FormModule&#45;&gt;CostCenterFormModule -->
<g id="edge5" class="edge">
<title>FormModule&#45;&gt;CostCenterFormModule</title>
<path fill="none" stroke="black" d="M614.25,-233.7C614.25,-233.7 614.25,-252.58 614.25,-252.58"/>
<polygon fill="black" stroke="black" points="610.75,-252.58 614.25,-262.58 617.75,-252.58 610.75,-252.58"/>
</g>
<!-- I18nModule -->
<g id="node7" class="node">
<title>I18nModule</title>
<polygon fill="#8dd3c7" stroke="black" points="561.71,-233.59 558.71,-237.59 537.71,-237.59 534.71,-233.59 476.29,-233.59 476.29,-197.59 561.71,-197.59 561.71,-233.59"/>
<text text-anchor="middle" x="519" y="-211.39" font-family="Times,serif" font-size="14.00">I18nModule</text>
</g>
<!-- I18nModule&#45;&gt;CostCenterFormModule -->
<g id="edge6" class="edge">
<title>I18nModule&#45;&gt;CostCenterFormModule</title>
<path fill="none" stroke="black" d="M528.58,-233.7C528.58,-233.7 528.58,-252.58 528.58,-252.58"/>
<polygon fill="black" stroke="black" points="525.08,-252.58 528.58,-262.58 532.08,-252.58 525.08,-252.58"/>
</g>
<!-- ItemActiveModule -->
<g id="node8" class="node">
<title>ItemActiveModule</title>
<polygon fill="#8dd3c7" stroke="black" points="458.02,-233.59 455.02,-237.59 434.02,-237.59 431.02,-233.59 335.98,-233.59 335.98,-197.59 458.02,-197.59 458.02,-233.59"/>
<text text-anchor="middle" x="397" y="-211.39" font-family="Times,serif" font-size="14.00">ItemActiveModule</text>
</g>
<!-- ItemActiveModule&#45;&gt;CostCenterFormModule -->
<g id="edge7" class="edge">
<title>ItemActiveModule&#45;&gt;CostCenterFormModule</title>
<path fill="none" stroke="black" d="M397,-233.62C397,-249.99 397,-271.59 397,-271.59 397,-271.59 485.5,-271.59 485.5,-271.59"/>
<polygon fill="black" stroke="black" points="485.5,-275.09 495.5,-271.59 485.5,-268.09 485.5,-275.09"/>
</g>
<!-- UrlModule -->
<g id="node9" class="node">
<title>UrlModule</title>
<polygon fill="#8dd3c7" stroke="black" points="318.21,-233.59 315.21,-237.59 294.21,-237.59 291.21,-233.59 239.79,-233.59 239.79,-197.59 318.21,-197.59 318.21,-233.59"/>
<text text-anchor="middle" x="279" y="-211.39" font-family="Times,serif" font-size="14.00">UrlModule</text>
</g>
<!-- UrlModule&#45;&gt;CostCenterFormModule -->
<g id="edge8" class="edge">
<title>UrlModule&#45;&gt;CostCenterFormModule</title>
<path fill="none" stroke="black" d="M279,-233.7C279,-252.93 279,-280.59 279,-280.59 279,-280.59 485.4,-280.59 485.4,-280.59"/>
<polygon fill="black" stroke="black" points="485.4,-284.09 495.4,-280.59 485.4,-277.09 485.4,-284.09"/>
</g>
<!-- CurrencyService -->
<g id="node11" class="node">
<title>CurrencyService</title>
<ellipse fill="#fdb462" stroke="black" cx="1074" cy="-215.59" rx="75.84" ry="18"/>
<text text-anchor="middle" x="1074" y="-211.39" font-family="Times,serif" font-size="14.00">CurrencyService</text>
</g>
<!-- CurrencyService&#45;&gt;CostCenterFormModule -->
<g id="edge10" class="edge">
<title>CurrencyService&#45;&gt;CostCenterFormModule</title>
<path fill="none" stroke="black" d="M1074,-233.88C1074,-255.8 1074,-289.59 1074,-289.59 1074,-289.59 658.52,-289.59 658.52,-289.59"/>
<polygon fill="black" stroke="black" points="658.52,-286.09 648.52,-289.59 658.52,-293.09 658.52,-286.09"/>
</g>
<!-- OrgUnitService -->
<g id="node12" class="node">
<title>OrgUnitService</title>
<ellipse fill="#fdb462" stroke="black" cx="908" cy="-215.59" rx="72.35" ry="18"/>
<text text-anchor="middle" x="908" y="-211.39" font-family="Times,serif" font-size="14.00">OrgUnitService</text>
</g>
<!-- OrgUnitService&#45;&gt;CostCenterFormModule -->
<g id="edge11" class="edge">
<title>OrgUnitService&#45;&gt;CostCenterFormModule</title>
<path fill="none" stroke="black" d="M908,-233.7C908,-252.93 908,-280.59 908,-280.59 908,-280.59 658.66,-280.59 658.66,-280.59"/>
<polygon fill="black" stroke="black" points="658.66,-277.09 648.66,-280.59 658.66,-284.09 658.66,-277.09"/>
</g>
</g>
</svg>
