<?xml version="1.0" encoding="UTF-8" standalone="no"?>
<!DOCTYPE svg PUBLIC "-//W3C//DTD SVG 1.1//EN"
 "http://www.w3.org/Graphics/SVG/1.1/DTD/svg11.dtd">
<!-- Generated by graphviz version 2.46.0 (20210119.1425)
 -->
<!-- Title: dependencies Pages: 1 -->
<svg width="1164pt" height="284pt"
 viewBox="0.00 0.00 1164.00 284.00" xmlns="http://www.w3.org/2000/svg" xmlns:xlink="http://www.w3.org/1999/xlink">
<g id="graph0" class="graph" transform="scale(1 1) rotate(0) translate(4 280)">
<title>dependencies</title>
<polygon fill="white" stroke="transparent" points="-4,4 -4,-280 1160,-280 1160,4 -4,4"/>
<text text-anchor="start" x="557.01" y="-42.4" font-family="sans-serif" font-weight="bold" font-size="14.00">Legend</text>
<polygon fill="#ffffb3" stroke="transparent" points="344,-10 344,-30 364,-30 364,-10 344,-10"/>
<text text-anchor="start" x="367.63" y="-15.4" font-family="sans-serif" font-size="14.00"> &#160;Declarations</text>
<polygon fill="#8dd3c7" stroke="transparent" points="457,-10 457,-30 477,-30 477,-10 457,-10"/>
<text text-anchor="start" x="480.73" y="-15.4" font-family="sans-serif" font-size="14.00"> &#160;Module</text>
<polygon fill="#80b1d3" stroke="transparent" points="543,-10 543,-30 563,-30 563,-10 543,-10"/>
<text text-anchor="start" x="566.78" y="-15.4" font-family="sans-serif" font-size="14.00"> &#160;Bootstrap</text>
<polygon fill="#fdb462" stroke="transparent" points="640,-10 640,-30 660,-30 660,-10 640,-10"/>
<text text-anchor="start" x="663.67" y="-15.4" font-family="sans-serif" font-size="14.00"> &#160;Providers</text>
<polygon fill="#fb8072" stroke="transparent" points="736,-10 736,-30 756,-30 756,-10 736,-10"/>
<text text-anchor="start" x="759.73" y="-15.4" font-family="sans-serif" font-size="14.00"> &#160;Exports</text>
<g id="clust1" class="cluster">
<title>cluster_CostCenterFormModule</title>
<polygon fill="none" stroke="black" stroke-dasharray="1,5" points="8,-70 8,-268 1148,-268 1148,-70 8,-70"/>
</g>
<g id="clust2" class="cluster">
<title>cluster_CostCenterFormModule_declarations</title>
<polygon fill="none" stroke="black" points="950,-78 950,-130 1140,-130 1140,-78 950,-78"/>
</g>
<g id="clust4" class="cluster">
<title>cluster_CostCenterFormModule_imports</title>
<polygon fill="none" stroke="black" points="354,-78 354,-130 942,-130 942,-78 354,-78"/>
</g>
<g id="clust5" class="cluster">
<title>cluster_CostCenterFormModule_exports</title>
<polygon fill="none" stroke="black" points="483,-208 483,-260 677,-260 677,-208 483,-208"/>
</g>
<g id="clust7" class="cluster">
<title>cluster_CostCenterFormModule_providers</title>
<polygon fill="none" stroke="black" points="16,-78 16,-130 346,-130 346,-78 16,-78"/>
</g>
<!-- CostCenterFormComponent -->
<g id="node1" class="node">
<title>CostCenterFormComponent</title>
<polygon fill="#ffffb3" stroke="black" points="1132.16,-122 957.84,-122 957.84,-86 1132.16,-86 1132.16,-122"/>
<text text-anchor="middle" x="1045" y="-99.8" font-family="Times,serif" font-size="14.00">CostCenterFormComponent</text>
</g>
<!-- CostCenterFormModule -->
<g id="node2" class="node">
<title>CostCenterFormModule</title>
<polygon fill="#8dd3c7" stroke="black" points="656.37,-187 653.37,-191 632.37,-191 629.37,-187 503.63,-187 503.63,-151 656.37,-151 656.37,-187"/>
<text text-anchor="middle" x="580" y="-164.8" font-family="Times,serif" font-size="14.00">CostCenterFormModule</text>
</g>
<!-- CostCenterFormComponent&#45;&gt;CostCenterFormModule -->
<g id="edge1" class="edge">
<title>CostCenterFormComponent&#45;&gt;CostCenterFormModule</title>
<path fill="none" stroke="black" d="M1045,-122.29C1045,-144.21 1045,-178 1045,-178 1045,-178 666.52,-178 666.52,-178"/>
<polygon fill="black" stroke="black" points="666.52,-174.5 656.52,-178 666.52,-181.5 666.52,-174.5"/>
</g>
<!-- CostCenterFormComponent  -->
<g id="node8" class="node">
<title>CostCenterFormComponent </title>
<polygon fill="#fb8072" stroke="black" points="669.16,-252 490.84,-252 490.84,-216 669.16,-216 669.16,-252"/>
<text text-anchor="middle" x="580" y="-229.8" font-family="Times,serif" font-size="14.00">CostCenterFormComponent </text>
</g>
<!-- CostCenterFormModule&#45;&gt;CostCenterFormComponent  -->
<g id="edge7" class="edge">
<title>CostCenterFormModule&#45;&gt;CostCenterFormComponent </title>
<path fill="none" stroke="black" stroke-dasharray="5,2" d="M580,-187.11C580,-187.11 580,-205.99 580,-205.99"/>
<polygon fill="black" stroke="black" points="576.5,-205.99 580,-215.99 583.5,-205.99 576.5,-205.99"/>
</g>
<!-- FormErrorsModule -->
<g id="node3" class="node">
<title>FormErrorsModule</title>
<polygon fill="#8dd3c7" stroke="black" points="934.36,-122 931.36,-126 910.36,-126 907.36,-122 809.64,-122 809.64,-86 934.36,-86 934.36,-122"/>
<text text-anchor="middle" x="872" y="-99.8" font-family="Times,serif" font-size="14.00">FormErrorsModule</text>
</g>
<!-- FormErrorsModule&#45;&gt;CostCenterFormModule -->
<g id="edge2" class="edge">
<title>FormErrorsModule&#45;&gt;CostCenterFormModule</title>
<path fill="none" stroke="black" d="M872,-122.11C872,-141.34 872,-169 872,-169 872,-169 666.72,-169 666.72,-169"/>
<polygon fill="black" stroke="black" points="666.72,-165.5 656.72,-169 666.72,-172.5 666.72,-165.5"/>
</g>
<!-- FormModule -->
<g id="node4" class="node">
<title>FormModule</title>
<polygon fill="#8dd3c7" stroke="black" points="791.88,-122 788.88,-126 767.88,-126 764.88,-122 702.12,-122 702.12,-86 791.88,-86 791.88,-122"/>
<text text-anchor="middle" x="747" y="-99.8" font-family="Times,serif" font-size="14.00">FormModule</text>
</g>
<!-- FormModule&#45;&gt;CostCenterFormModule -->
<g id="edge3" class="edge">
<title>FormModule&#45;&gt;CostCenterFormModule</title>
<path fill="none" stroke="black" d="M747,-122.03C747,-138.4 747,-160 747,-160 747,-160 666.66,-160 666.66,-160"/>
<polygon fill="black" stroke="black" points="666.66,-156.5 656.66,-160 666.66,-163.5 666.66,-156.5"/>
</g>
<!-- I18nModule -->
<g id="node5" class="node">
<title>I18nModule</title>
<polygon fill="#8dd3c7" stroke="black" points="683.71,-122 680.71,-126 659.71,-126 656.71,-122 598.29,-122 598.29,-86 683.71,-86 683.71,-122"/>
<text text-anchor="middle" x="641" y="-99.8" font-family="Times,serif" font-size="14.00">I18nModule</text>
</g>
<!-- I18nModule&#45;&gt;CostCenterFormModule -->
<g id="edge4" class="edge">
<title>I18nModule&#45;&gt;CostCenterFormModule</title>
<path fill="none" stroke="black" d="M627.42,-122.11C627.42,-122.11 627.42,-140.99 627.42,-140.99"/>
<polygon fill="black" stroke="black" points="623.92,-140.99 627.42,-150.99 630.92,-140.99 623.92,-140.99"/>
</g>
<!-- ItemActiveModule -->
<g id="node6" class="node">
<title>ItemActiveModule</title>
<polygon fill="#8dd3c7" stroke="black" points="580.02,-122 577.02,-126 556.02,-126 553.02,-122 457.98,-122 457.98,-86 580.02,-86 580.02,-122"/>
<text text-anchor="middle" x="519" y="-99.8" font-family="Times,serif" font-size="14.00">ItemActiveModule</text>
</g>
<!-- ItemActiveModule&#45;&gt;CostCenterFormModule -->
<g id="edge5" class="edge">
<title>ItemActiveModule&#45;&gt;CostCenterFormModule</title>
<path fill="none" stroke="black" d="M541.91,-122.11C541.91,-122.11 541.91,-140.99 541.91,-140.99"/>
<polygon fill="black" stroke="black" points="538.41,-140.99 541.91,-150.99 545.41,-140.99 538.41,-140.99"/>
</g>
<!-- UrlModule -->
<g id="node7" class="node">
<title>UrlModule</title>
<polygon fill="#8dd3c7" stroke="black" points="440.21,-122 437.21,-126 416.21,-126 413.21,-122 361.79,-122 361.79,-86 440.21,-86 440.21,-122"/>
<text text-anchor="middle" x="401" y="-99.8" font-family="Times,serif" font-size="14.00">UrlModule</text>
</g>
<!-- UrlModule&#45;&gt;CostCenterFormModule -->
<g id="edge6" class="edge">
<title>UrlModule&#45;&gt;CostCenterFormModule</title>
<path fill="none" stroke="black" d="M401,-122.03C401,-138.4 401,-160 401,-160 401,-160 493.57,-160 493.57,-160"/>
<polygon fill="black" stroke="black" points="493.57,-163.5 503.57,-160 493.57,-156.5 493.57,-163.5"/>
</g>
<!-- CurrencyService -->
<g id="node9" class="node">
<title>CurrencyService</title>
<ellipse fill="#fdb462" stroke="black" cx="262" cy="-104" rx="75.84" ry="18"/>
<text text-anchor="middle" x="262" y="-99.8" font-family="Times,serif" font-size="14.00">CurrencyService</text>
</g>
<!-- CurrencyService&#45;&gt;CostCenterFormModule -->
<g id="edge8" class="edge">
<title>CurrencyService&#45;&gt;CostCenterFormModule</title>
<path fill="none" stroke="black" d="M262,-122.11C262,-141.34 262,-169 262,-169 262,-169 493.43,-169 493.43,-169"/>
<polygon fill="black" stroke="black" points="493.43,-172.5 503.43,-169 493.43,-165.5 493.43,-172.5"/>
</g>
<!-- OrgUnitService -->
<g id="node10" class="node">
<title>OrgUnitService</title>
<ellipse fill="#fdb462" stroke="black" cx="96" cy="-104" rx="72.35" ry="18"/>
<text text-anchor="middle" x="96" y="-99.8" font-family="Times,serif" font-size="14.00">OrgUnitService</text>
</g>
<!-- OrgUnitService&#45;&gt;CostCenterFormModule -->
<g id="edge9" class="edge">
<title>OrgUnitService&#45;&gt;CostCenterFormModule</title>
<path fill="none" stroke="black" d="M96,-122.29C96,-144.21 96,-178 96,-178 96,-178 493.58,-178 493.58,-178"/>
<polygon fill="black" stroke="black" points="493.58,-181.5 503.58,-178 493.58,-174.5 493.58,-181.5"/>
</g>
</g>
</svg>
