<?xml version="1.0" encoding="UTF-8" standalone="no"?>
<!DOCTYPE svg PUBLIC "-//W3C//DTD SVG 1.1//EN"
 "http://www.w3.org/Graphics/SVG/1.1/DTD/svg11.dtd">
<!-- Generated by graphviz version 2.47.3 (20210619.1520)
 -->
<!-- Title: dependencies Pages: 1 -->
<svg width="2344pt" height="247pt"
 viewBox="0.00 0.00 2344.00 246.80" xmlns="http://www.w3.org/2000/svg" xmlns:xlink="http://www.w3.org/1999/xlink">
<g id="graph0" class="graph" transform="scale(1 1) rotate(0) translate(4 242.8)">
<title>dependencies</title>
<polygon fill="white" stroke="transparent" points="-4,4 -4,-242.8 2340,-242.8 2340,4 -4,4"/>
<text text-anchor="middle" x="1168" y="-8.2" font-family="sans-serif" font-size="14.00">dependencies</text>
<g id="clust1" class="cluster">
<title>cluster_ProductListModule</title>
<polygon fill="none" stroke="black" stroke-dasharray="1,5" points="8,-32.8 8,-230.8 2328,-230.8 2328,-32.8 8,-32.8"/>
</g>
<g id="clust2" class="cluster">
<title>cluster_ProductListModule_declarations</title>
<polygon fill="none" stroke="black" points="1424,-40.8 1424,-92.8 2320,-92.8 2320,-40.8 1424,-40.8"/>
</g>
<g id="clust9" class="cluster">
<title>cluster_ProductListModule_exports</title>
<polygon fill="none" stroke="black" points="555,-170.8 555,-222.8 1469,-222.8 1469,-170.8 555,-170.8"/>
</g>
<g id="clust8" class="cluster">
<title>cluster_ProductListModule_imports</title>
<polygon fill="none" stroke="black" points="16,-40.8 16,-92.8 1416,-92.8 1416,-40.8 16,-40.8"/>
</g>
<!-- ProductGridItemComponent -->
<g id="node1" class="node">
<title>ProductGridItemComponent</title>
<polygon fill="#ffffb3" stroke="black" points="2312.2,-84.8 2135.8,-84.8 2135.8,-48.8 2312.2,-48.8 2312.2,-84.8"/>
<text text-anchor="middle" x="2224" y="-62.6" font-family="Times,serif" font-size="14.00">ProductGridItemComponent</text>
</g>
<!-- ProductListModule -->
<g id="node6" class="node">
<title>ProductListModule</title>
<polygon fill="#8dd3c7" stroke="black" points="1069.38,-149.8 1066.38,-153.8 1045.38,-153.8 1042.38,-149.8 944.62,-149.8 944.62,-113.8 1069.38,-113.8 1069.38,-149.8"/>
<text text-anchor="middle" x="1007" y="-127.6" font-family="Times,serif" font-size="14.00">ProductListModule</text>
</g>
<!-- ProductGridItemComponent&#45;&gt;ProductListModule -->
<g id="edge1" class="edge">
<title>ProductGridItemComponent&#45;&gt;ProductListModule</title>
<path fill="none" stroke="black" d="M2224,-84.84C2224,-106.46 2224,-139.8 2224,-139.8 2224,-139.8 1079.45,-139.8 1079.45,-139.8"/>
<polygon fill="black" stroke="black" points="1079.45,-136.3 1069.45,-139.8 1079.45,-143.3 1079.45,-136.3"/>
</g>
<!-- ProductListComponent -->
<g id="node2" class="node">
<title>ProductListComponent</title>
<polygon fill="#ffffb3" stroke="black" points="2118.16,-84.8 1971.84,-84.8 1971.84,-48.8 2118.16,-48.8 2118.16,-84.8"/>
<text text-anchor="middle" x="2045" y="-62.6" font-family="Times,serif" font-size="14.00">ProductListComponent</text>
</g>
<!-- ProductListComponent&#45;&gt;ProductListModule -->
<g id="edge2" class="edge">
<title>ProductListComponent&#45;&gt;ProductListModule</title>
<path fill="none" stroke="black" d="M2045,-84.93C2045,-105.37 2045,-135.8 2045,-135.8 2045,-135.8 1079.59,-135.8 1079.59,-135.8"/>
<polygon fill="black" stroke="black" points="1079.59,-132.3 1069.59,-135.8 1079.59,-139.3 1079.59,-132.3"/>
</g>
<!-- ProductListItemComponent -->
<g id="node3" class="node">
<title>ProductListItemComponent</title>
<polygon fill="#ffffb3" stroke="black" points="1954.32,-84.8 1781.68,-84.8 1781.68,-48.8 1954.32,-48.8 1954.32,-84.8"/>
<text text-anchor="middle" x="1868" y="-62.6" font-family="Times,serif" font-size="14.00">ProductListItemComponent</text>
</g>
<!-- ProductListItemComponent&#45;&gt;ProductListModule -->
<g id="edge3" class="edge">
<title>ProductListItemComponent&#45;&gt;ProductListModule</title>
<path fill="none" stroke="black" d="M1868,-84.91C1868,-104.14 1868,-131.8 1868,-131.8 1868,-131.8 1079.61,-131.8 1079.61,-131.8"/>
<polygon fill="black" stroke="black" points="1079.61,-128.3 1069.61,-131.8 1079.61,-135.3 1079.61,-128.3"/>
</g>
<!-- ProductScrollComponent -->
<g id="node4" class="node">
<title>ProductScrollComponent</title>
<polygon fill="#ffffb3" stroke="black" points="1764.32,-84.8 1605.68,-84.8 1605.68,-48.8 1764.32,-48.8 1764.32,-84.8"/>
<text text-anchor="middle" x="1685" y="-62.6" font-family="Times,serif" font-size="14.00">ProductScrollComponent</text>
</g>
<!-- ProductScrollComponent&#45;&gt;ProductListModule -->
<g id="edge4" class="edge">
<title>ProductScrollComponent&#45;&gt;ProductListModule</title>
<path fill="none" stroke="black" d="M1685,-85.07C1685,-103.36 1685,-128.8 1685,-128.8 1685,-128.8 1079.57,-128.8 1079.57,-128.8"/>
<polygon fill="black" stroke="black" points="1079.57,-125.3 1069.57,-128.8 1079.57,-132.3 1079.57,-125.3"/>
</g>
<!-- ProductViewComponent -->
<g id="node5" class="node">
<title>ProductViewComponent</title>
<polygon fill="#ffffb3" stroke="black" points="1587.7,-84.8 1432.3,-84.8 1432.3,-48.8 1587.7,-48.8 1587.7,-84.8"/>
<text text-anchor="middle" x="1510" y="-62.6" font-family="Times,serif" font-size="14.00">ProductViewComponent</text>
</g>
<!-- ProductViewComponent&#45;&gt;ProductListModule -->
<g id="edge5" class="edge">
<title>ProductViewComponent&#45;&gt;ProductListModule</title>
<path fill="none" stroke="black" d="M1446.62,-84.83C1446.62,-101.86 1446.62,-124.8 1446.62,-124.8 1446.62,-124.8 1079.52,-124.8 1079.52,-124.8"/>
<polygon fill="black" stroke="black" points="1079.52,-121.3 1069.52,-124.8 1079.52,-128.3 1079.52,-121.3"/>
</g>
<!-- ProductGridItemComponent  -->
<g id="node18" class="node">
<title>ProductGridItemComponent </title>
<polygon fill="#fb8072" stroke="black" points="1460.7,-214.8 1281.3,-214.8 1281.3,-178.8 1460.7,-178.8 1460.7,-214.8"/>
<text text-anchor="middle" x="1371" y="-192.6" font-family="Times,serif" font-size="14.00">ProductGridItemComponent </text>
</g>
<!-- ProductListModule&#45;&gt;ProductGridItemComponent  -->
<g id="edge17" class="edge">
<title>ProductListModule&#45;&gt;ProductGridItemComponent </title>
<path fill="none" stroke="black" stroke-dasharray="5,2" d="M1069.54,-142.8C1162.28,-142.8 1325.45,-142.8 1325.45,-142.8 1325.45,-142.8 1325.45,-168.52 1325.45,-168.52"/>
<polygon fill="black" stroke="black" points="1321.95,-168.52 1325.45,-178.52 1328.95,-168.52 1321.95,-168.52"/>
</g>
<!-- ProductListComponent  -->
<g id="node19" class="node">
<title>ProductListComponent </title>
<polygon fill="#fb8072" stroke="black" points="1263.16,-214.8 1112.84,-214.8 1112.84,-178.8 1263.16,-178.8 1263.16,-214.8"/>
<text text-anchor="middle" x="1188" y="-192.6" font-family="Times,serif" font-size="14.00">ProductListComponent </text>
</g>
<!-- ProductListModule&#45;&gt;ProductListComponent  -->
<g id="edge18" class="edge">
<title>ProductListModule&#45;&gt;ProductListComponent </title>
<path fill="none" stroke="black" stroke-dasharray="5,2" d="M1069.42,-146.8C1094.01,-146.8 1116.5,-146.8 1116.5,-146.8 1116.5,-146.8 1116.5,-168.75 1116.5,-168.75"/>
<polygon fill="black" stroke="black" points="1113,-168.75 1116.5,-178.75 1120,-168.75 1113,-168.75"/>
</g>
<!-- ProductListItemComponent  -->
<g id="node20" class="node">
<title>ProductListItemComponent </title>
<polygon fill="#fb8072" stroke="black" points="1094.82,-214.8 919.18,-214.8 919.18,-178.8 1094.82,-178.8 1094.82,-214.8"/>
<text text-anchor="middle" x="1007" y="-192.6" font-family="Times,serif" font-size="14.00">ProductListItemComponent </text>
</g>
<!-- ProductListModule&#45;&gt;ProductListItemComponent  -->
<g id="edge19" class="edge">
<title>ProductListModule&#45;&gt;ProductListItemComponent </title>
<path fill="none" stroke="black" stroke-dasharray="5,2" d="M1007,-149.91C1007,-149.91 1007,-168.79 1007,-168.79"/>
<polygon fill="black" stroke="black" points="1003.5,-168.79 1007,-178.79 1010.5,-168.79 1003.5,-168.79"/>
</g>
<!-- ProductScrollComponent  -->
<g id="node21" class="node">
<title>ProductScrollComponent </title>
<polygon fill="#fb8072" stroke="black" points="900.82,-214.8 739.18,-214.8 739.18,-178.8 900.82,-178.8 900.82,-214.8"/>
<text text-anchor="middle" x="820" y="-192.6" font-family="Times,serif" font-size="14.00">ProductScrollComponent </text>
</g>
<!-- ProductListModule&#45;&gt;ProductScrollComponent  -->
<g id="edge20" class="edge">
<title>ProductListModule&#45;&gt;ProductScrollComponent </title>
<path fill="none" stroke="black" stroke-dasharray="5,2" d="M944.44,-146.8C886.52,-146.8 809.28,-146.8 809.28,-146.8 809.28,-146.8 809.28,-168.75 809.28,-168.75"/>
<polygon fill="black" stroke="black" points="805.78,-168.75 809.28,-178.75 812.78,-168.75 805.78,-168.75"/>
</g>
<!-- ProductViewComponent  -->
<g id="node22" class="node">
<title>ProductViewComponent </title>
<polygon fill="#fb8072" stroke="black" points="721.2,-214.8 562.8,-214.8 562.8,-178.8 721.2,-178.8 721.2,-214.8"/>
<text text-anchor="middle" x="642" y="-192.6" font-family="Times,serif" font-size="14.00">ProductViewComponent </text>
</g>
<!-- ProductListModule&#45;&gt;ProductViewComponent  -->
<g id="edge21" class="edge">
<title>ProductListModule&#45;&gt;ProductViewComponent </title>
<path fill="none" stroke="black" stroke-dasharray="5,2" d="M944.27,-142.8C844.99,-142.8 662.79,-142.8 662.79,-142.8 662.79,-142.8 662.79,-168.52 662.79,-168.52"/>
<polygon fill="black" stroke="black" points="659.29,-168.52 662.79,-178.52 666.29,-168.52 659.29,-168.52"/>
</g>
<!-- AddToCartModule -->
<g id="node7" class="node">
<title>AddToCartModule</title>
<polygon fill="#8dd3c7" stroke="black" points="1407.81,-84.8 1404.81,-88.8 1383.81,-88.8 1380.81,-84.8 1284.19,-84.8 1284.19,-48.8 1407.81,-48.8 1407.81,-84.8"/>
<text text-anchor="middle" x="1346" y="-62.6" font-family="Times,serif" font-size="14.00">AddToCartModule</text>
</g>
<!-- AddToCartModule&#45;&gt;ProductListModule -->
<g id="edge6" class="edge">
<title>AddToCartModule&#45;&gt;ProductListModule</title>
<path fill="none" stroke="black" d="M1366.55,-84.81C1366.55,-100.85 1366.55,-121.8 1366.55,-121.8 1366.55,-121.8 1079.63,-121.8 1079.63,-121.8"/>
<polygon fill="black" stroke="black" points="1079.63,-118.3 1069.63,-121.8 1079.63,-125.3 1079.63,-118.3"/>
</g>
<!-- FeaturesConfigModule -->
<g id="node8" class="node">
<title>FeaturesConfigModule</title>
<polygon fill="#8dd3c7" stroke="black" points="1265.86,-84.8 1262.86,-88.8 1241.86,-88.8 1238.86,-84.8 1120.14,-84.8 1120.14,-48.8 1265.86,-48.8 1265.86,-84.8"/>
<text text-anchor="middle" x="1193" y="-62.6" font-family="Times,serif" font-size="14.00">FeaturesConfigModule</text>
</g>
<!-- FeaturesConfigModule&#45;&gt;ProductListModule -->
<g id="edge7" class="edge">
<title>FeaturesConfigModule&#45;&gt;ProductListModule</title>
<path fill="none" stroke="black" d="M1191.57,-84.92C1191.57,-99.58 1191.57,-117.8 1191.57,-117.8 1191.57,-117.8 1079.49,-117.8 1079.49,-117.8"/>
<polygon fill="black" stroke="black" points="1079.49,-114.3 1069.49,-117.8 1079.49,-121.3 1079.49,-114.3"/>
</g>
<!-- I18nModule -->
<g id="node9" class="node">
<title>I18nModule</title>
<polygon fill="#8dd3c7" stroke="black" points="1101.71,-84.8 1098.71,-88.8 1077.71,-88.8 1074.71,-84.8 1016.29,-84.8 1016.29,-48.8 1101.71,-48.8 1101.71,-84.8"/>
<text text-anchor="middle" x="1059" y="-62.6" font-family="Times,serif" font-size="14.00">I18nModule</text>
</g>
<!-- I18nModule&#45;&gt;ProductListModule -->
<g id="edge8" class="edge">
<title>I18nModule&#45;&gt;ProductListModule</title>
<path fill="none" stroke="black" d="M1042.92,-84.91C1042.92,-84.91 1042.92,-103.79 1042.92,-103.79"/>
<polygon fill="black" stroke="black" points="1039.42,-103.79 1042.92,-113.79 1046.42,-103.79 1039.42,-103.79"/>
</g>
<!-- IconModule -->
<g id="node10" class="node">
<title>IconModule</title>
<polygon fill="#8dd3c7" stroke="black" points="998.43,-84.8 995.43,-88.8 974.43,-88.8 971.43,-84.8 913.57,-84.8 913.57,-48.8 998.43,-48.8 998.43,-84.8"/>
<text text-anchor="middle" x="956" y="-62.6" font-family="Times,serif" font-size="14.00">IconModule</text>
</g>
<!-- IconModule&#45;&gt;ProductListModule -->
<g id="edge9" class="edge">
<title>IconModule&#45;&gt;ProductListModule</title>
<path fill="none" stroke="black" d="M971.39,-84.91C971.39,-84.91 971.39,-103.79 971.39,-103.79"/>
<polygon fill="black" stroke="black" points="967.89,-103.79 971.39,-113.79 974.89,-103.79 967.89,-103.79"/>
</g>
<!-- ItemCounterModule -->
<g id="node11" class="node">
<title>ItemCounterModule</title>
<polygon fill="#8dd3c7" stroke="black" points="896.31,-84.8 893.31,-88.8 872.31,-88.8 869.31,-84.8 765.69,-84.8 765.69,-48.8 896.31,-48.8 896.31,-84.8"/>
<text text-anchor="middle" x="831" y="-62.6" font-family="Times,serif" font-size="14.00">ItemCounterModule</text>
</g>
<!-- ItemCounterModule&#45;&gt;ProductListModule -->
<g id="edge10" class="edge">
<title>ItemCounterModule&#45;&gt;ProductListModule</title>
<path fill="none" stroke="black" d="M852.72,-84.92C852.72,-99.58 852.72,-117.8 852.72,-117.8 852.72,-117.8 934.25,-117.8 934.25,-117.8"/>
<polygon fill="black" stroke="black" points="934.25,-121.3 944.25,-117.8 934.25,-114.3 934.25,-121.3"/>
</g>
<!-- ListNavigationModule -->
<g id="node12" class="node">
<title>ListNavigationModule</title>
<polygon fill="#8dd3c7" stroke="black" points="747.54,-84.8 744.54,-88.8 723.54,-88.8 720.54,-84.8 604.46,-84.8 604.46,-48.8 747.54,-48.8 747.54,-84.8"/>
<text text-anchor="middle" x="676" y="-62.6" font-family="Times,serif" font-size="14.00">ListNavigationModule</text>
</g>
<!-- ListNavigationModule&#45;&gt;ProductListModule -->
<g id="edge11" class="edge">
<title>ListNavigationModule&#45;&gt;ProductListModule</title>
<path fill="none" stroke="black" d="M743.43,-84.81C743.43,-100.85 743.43,-121.8 743.43,-121.8 743.43,-121.8 934.54,-121.8 934.54,-121.8"/>
<polygon fill="black" stroke="black" points="934.54,-125.3 944.54,-121.8 934.54,-118.3 934.54,-125.3"/>
</g>
<!-- MediaModule -->
<g id="node13" class="node">
<title>MediaModule</title>
<polygon fill="#8dd3c7" stroke="black" points="586.81,-84.8 583.81,-88.8 562.81,-88.8 559.81,-84.8 491.19,-84.8 491.19,-48.8 586.81,-48.8 586.81,-84.8"/>
<text text-anchor="middle" x="539" y="-62.6" font-family="Times,serif" font-size="14.00">MediaModule</text>
</g>
<!-- MediaModule&#45;&gt;ProductListModule -->
<g id="edge12" class="edge">
<title>MediaModule&#45;&gt;ProductListModule</title>
<path fill="none" stroke="black" d="M574.65,-84.83C574.65,-101.86 574.65,-124.8 574.65,-124.8 574.65,-124.8 934.59,-124.8 934.59,-124.8"/>
<polygon fill="black" stroke="black" points="934.59,-128.3 944.59,-124.8 934.59,-121.3 934.59,-128.3"/>
</g>
<!-- OutletModule -->
<g id="node14" class="node">
<title>OutletModule</title>
<polygon fill="#8dd3c7" stroke="black" points="473.04,-84.8 470.04,-88.8 449.04,-88.8 446.04,-84.8 378.96,-84.8 378.96,-48.8 473.04,-48.8 473.04,-84.8"/>
<text text-anchor="middle" x="426" y="-62.6" font-family="Times,serif" font-size="14.00">OutletModule</text>
</g>
<!-- OutletModule&#45;&gt;ProductListModule -->
<g id="edge13" class="edge">
<title>OutletModule&#45;&gt;ProductListModule</title>
<path fill="none" stroke="black" d="M426,-85.07C426,-103.36 426,-128.8 426,-128.8 426,-128.8 934.55,-128.8 934.55,-128.8"/>
<polygon fill="black" stroke="black" points="934.55,-132.3 944.55,-128.8 934.55,-125.3 934.55,-132.3"/>
</g>
<!-- SpinnerModule -->
<g id="node15" class="node">
<title>SpinnerModule</title>
<polygon fill="#8dd3c7" stroke="black" points="360.6,-84.8 357.6,-88.8 336.6,-88.8 333.6,-84.8 257.4,-84.8 257.4,-48.8 360.6,-48.8 360.6,-84.8"/>
<text text-anchor="middle" x="309" y="-62.6" font-family="Times,serif" font-size="14.00">SpinnerModule</text>
</g>
<!-- SpinnerModule&#45;&gt;ProductListModule -->
<g id="edge14" class="edge">
<title>SpinnerModule&#45;&gt;ProductListModule</title>
<path fill="none" stroke="black" d="M309,-84.91C309,-104.14 309,-131.8 309,-131.8 309,-131.8 934.44,-131.8 934.44,-131.8"/>
<polygon fill="black" stroke="black" points="934.44,-135.3 944.44,-131.8 934.44,-128.3 934.44,-135.3"/>
</g>
<!-- StarRatingModule -->
<g id="node16" class="node">
<title>StarRatingModule</title>
<polygon fill="#8dd3c7" stroke="black" points="239.93,-84.8 236.93,-88.8 215.93,-88.8 212.93,-84.8 120.07,-84.8 120.07,-48.8 239.93,-48.8 239.93,-84.8"/>
<text text-anchor="middle" x="180" y="-62.6" font-family="Times,serif" font-size="14.00">StarRatingModule</text>
</g>
<!-- StarRatingModule&#45;&gt;ProductListModule -->
<g id="edge15" class="edge">
<title>StarRatingModule&#45;&gt;ProductListModule</title>
<path fill="none" stroke="black" d="M180,-84.93C180,-105.37 180,-135.8 180,-135.8 180,-135.8 934.5,-135.8 934.5,-135.8"/>
<polygon fill="black" stroke="black" points="934.5,-139.3 944.5,-135.8 934.5,-132.3 934.5,-139.3"/>
</g>
<!-- UrlModule -->
<g id="node17" class="node">
<title>UrlModule</title>
<polygon fill="#8dd3c7" stroke="black" points="102.21,-84.8 99.21,-88.8 78.21,-88.8 75.21,-84.8 23.79,-84.8 23.79,-48.8 102.21,-48.8 102.21,-84.8"/>
<text text-anchor="middle" x="63" y="-62.6" font-family="Times,serif" font-size="14.00">UrlModule</text>
</g>
<!-- UrlModule&#45;&gt;ProductListModule -->
<g id="edge16" class="edge">
<title>UrlModule&#45;&gt;ProductListModule</title>
<path fill="none" stroke="black" d="M63,-84.84C63,-106.46 63,-139.8 63,-139.8 63,-139.8 934.33,-139.8 934.33,-139.8"/>
<polygon fill="black" stroke="black" points="934.33,-143.3 944.33,-139.8 934.33,-136.3 934.33,-143.3"/>
</g>
</g>
</svg>
