<?xml version="1.0" encoding="UTF-8" standalone="no"?>
<!DOCTYPE svg PUBLIC "-//W3C//DTD SVG 1.1//EN"
 "http://www.w3.org/Graphics/SVG/1.1/DTD/svg11.dtd">
<!-- Generated by graphviz version 2.40.1 (20161225.0304)
 -->
<!-- Title: dependencies Pages: 1 -->
<svg width="2898pt" height="284pt"
 viewBox="0.00 0.00 2898.00 284.00" xmlns="http://www.w3.org/2000/svg" xmlns:xlink="http://www.w3.org/1999/xlink">
<g id="graph0" class="graph" transform="scale(1 1) rotate(0) translate(4 280)">
<title>dependencies</title>
<polygon fill="#ffffff" stroke="transparent" points="-4,4 -4,-280 2894,-280 2894,4 -4,4"/>
<text text-anchor="start" x="1424.0091" y="-42.4" font-family="sans-serif" font-weight="bold" font-size="14.00" fill="#000000">Legend</text>
<polygon fill="#ffffb3" stroke="transparent" points="1211,-10 1211,-30 1231,-30 1231,-10 1211,-10"/>
<text text-anchor="start" x="1234.629" y="-15.4" font-family="sans-serif" font-size="14.00" fill="#000000"> &#160;Declarations</text>
<polygon fill="#8dd3c7" stroke="transparent" points="1324,-10 1324,-30 1344,-30 1344,-10 1324,-10"/>
<text text-anchor="start" x="1347.7251" y="-15.4" font-family="sans-serif" font-size="14.00" fill="#000000"> &#160;Module</text>
<polygon fill="#80b1d3" stroke="transparent" points="1410,-10 1410,-30 1430,-30 1430,-10 1410,-10"/>
<text text-anchor="start" x="1433.7812" y="-15.4" font-family="sans-serif" font-size="14.00" fill="#000000"> &#160;Bootstrap</text>
<polygon fill="#fdb462" stroke="transparent" points="1507,-10 1507,-30 1527,-30 1527,-10 1507,-10"/>
<text text-anchor="start" x="1530.6732" y="-15.4" font-family="sans-serif" font-size="14.00" fill="#000000"> &#160;Providers</text>
<polygon fill="#fb8072" stroke="transparent" points="1603,-10 1603,-30 1623,-30 1623,-10 1603,-10"/>
<text text-anchor="start" x="1626.7258" y="-15.4" font-family="sans-serif" font-size="14.00" fill="#000000"> &#160;Exports</text>
<g id="clust1" class="cluster">
<title>cluster_ProductListModule</title>
<polygon fill="none" stroke="#000000" stroke-dasharray="1,5" points="8,-70 8,-268 2882,-268 2882,-70 8,-70"/>
</g>
<g id="clust2" class="cluster">
<title>cluster_ProductListModule_declarations</title>
<polygon fill="none" stroke="#000000" points="1742,-78 1742,-130 2874,-130 2874,-78 1742,-78"/>
</g>
<g id="clust9" class="cluster">
<title>cluster_ProductListModule_imports</title>
<polygon fill="none" stroke="#000000" points="16,-78 16,-130 1734,-130 1734,-78 16,-78"/>
</g>
<g id="clust10" class="cluster">
<title>cluster_ProductListModule_exports</title>
<polygon fill="none" stroke="#000000" points="786,-208 786,-260 1938,-260 1938,-208 786,-208"/>
</g>
<!-- ProductFacetNavigationComponent -->
<g id="node1" class="node">
<title>ProductFacetNavigationComponent</title>
<polygon fill="#ffffb3" stroke="#000000" points="2865.9058,-122 2648.0942,-122 2648.0942,-86 2865.9058,-86 2865.9058,-122"/>
<text text-anchor="middle" x="2757" y="-99.8" font-family="Times,serif" font-size="14.00" fill="#000000">ProductFacetNavigationComponent</text>
</g>
<!-- ProductListModule -->
<g id="node7" class="node">
<title>ProductListModule</title>
<polygon fill="#8dd3c7" stroke="#000000" points="1390.3767,-187 1387.3767,-191 1366.3767,-191 1363.3767,-187 1265.6233,-187 1265.6233,-151 1390.3767,-151 1390.3767,-187"/>
<text text-anchor="middle" x="1328" y="-164.8" font-family="Times,serif" font-size="14.00" fill="#000000">ProductListModule</text>
</g>
<!-- ProductFacetNavigationComponent&#45;&gt;ProductListModule -->
<g id="edge1" class="edge">
<title>ProductFacetNavigationComponent&#45;&gt;ProductListModule</title>
<path fill="none" stroke="#000000" d="M2757,-122.2921C2757,-144.2057 2757,-178 2757,-178 2757,-178 1400.7829,-178 1400.7829,-178"/>
<polygon fill="#000000" stroke="#000000" points="1400.783,-174.5001 1390.7829,-178 1400.7829,-181.5001 1400.783,-174.5001"/>
</g>
<!-- ProductGridItemComponent -->
<g id="node2" class="node">
<title>ProductGridItemComponent</title>
<polygon fill="#ffffb3" stroke="#000000" points="2630.1951,-122 2453.8049,-122 2453.8049,-86 2630.1951,-86 2630.1951,-122"/>
<text text-anchor="middle" x="2542" y="-99.8" font-family="Times,serif" font-size="14.00" fill="#000000">ProductGridItemComponent</text>
</g>
<!-- ProductGridItemComponent&#45;&gt;ProductListModule -->
<g id="edge2" class="edge">
<title>ProductGridItemComponent&#45;&gt;ProductListModule</title>
<path fill="none" stroke="#000000" d="M2542,-122.2843C2542,-143.3211 2542,-175 2542,-175 2542,-175 1400.7135,-175 1400.7135,-175"/>
<polygon fill="#000000" stroke="#000000" points="1400.7136,-171.5001 1390.7135,-175 1400.7135,-178.5001 1400.7136,-171.5001"/>
</g>
<!-- ProductListComponent -->
<g id="node3" class="node">
<title>ProductListComponent</title>
<polygon fill="#ffffb3" stroke="#000000" points="2436.1596,-122 2289.8404,-122 2289.8404,-86 2436.1596,-86 2436.1596,-122"/>
<text text-anchor="middle" x="2363" y="-99.8" font-family="Times,serif" font-size="14.00" fill="#000000">ProductListComponent</text>
</g>
<!-- ProductListComponent&#45;&gt;ProductListModule -->
<g id="edge3" class="edge">
<title>ProductListComponent&#45;&gt;ProductListModule</title>
<path fill="none" stroke="#000000" d="M2363,-122.2228C2363,-142.3652 2363,-172 2363,-172 2363,-172 1400.4131,-172 1400.4131,-172"/>
<polygon fill="#000000" stroke="#000000" points="1400.4131,-168.5001 1390.4131,-172 1400.413,-175.5001 1400.4131,-168.5001"/>
</g>
<!-- ProductListItemComponent -->
<g id="node4" class="node">
<title>ProductListItemComponent</title>
<polygon fill="#ffffb3" stroke="#000000" points="2272.3159,-122 2099.6841,-122 2099.6841,-86 2272.3159,-86 2272.3159,-122"/>
<text text-anchor="middle" x="2186" y="-99.8" font-family="Times,serif" font-size="14.00" fill="#000000">ProductListItemComponent</text>
</g>
<!-- ProductListItemComponent&#45;&gt;ProductListModule -->
<g id="edge4" class="edge">
<title>ProductListItemComponent&#45;&gt;ProductListModule</title>
<path fill="none" stroke="#000000" d="M2186,-122.1061C2186,-141.3391 2186,-169 2186,-169 2186,-169 1400.3964,-169 1400.3964,-169"/>
<polygon fill="#000000" stroke="#000000" points="1400.3964,-165.5001 1390.3964,-169 1400.3963,-172.5001 1400.3964,-165.5001"/>
</g>
<!-- ProductScrollComponent -->
<g id="node5" class="node">
<title>ProductScrollComponent</title>
<polygon fill="#ffffb3" stroke="#000000" points="2082.3201,-122 1923.6799,-122 1923.6799,-86 2082.3201,-86 2082.3201,-122"/>
<text text-anchor="middle" x="2003" y="-99.8" font-family="Times,serif" font-size="14.00" fill="#000000">ProductScrollComponent</text>
</g>
<!-- ProductScrollComponent&#45;&gt;ProductListModule -->
<g id="edge5" class="edge">
<title>ProductScrollComponent&#45;&gt;ProductListModule</title>
<path fill="none" stroke="#000000" d="M2006.3063,-122.2667C2006.3063,-140.5552 2006.3063,-166 2006.3063,-166 2006.3063,-166 1400.5976,-166 1400.5976,-166"/>
<polygon fill="#000000" stroke="#000000" points="1400.5976,-162.5001 1390.5976,-166 1400.5976,-169.5001 1400.5976,-162.5001"/>
</g>
<!-- ProductViewComponent -->
<g id="node6" class="node">
<title>ProductViewComponent</title>
<polygon fill="#ffffb3" stroke="#000000" points="1905.6993,-122 1750.3007,-122 1750.3007,-86 1905.6993,-86 1905.6993,-122"/>
<text text-anchor="middle" x="1828" y="-99.8" font-family="Times,serif" font-size="14.00" fill="#000000">ProductViewComponent</text>
</g>
<!-- ProductViewComponent&#45;&gt;ProductListModule -->
<g id="edge6" class="edge">
<title>ProductViewComponent&#45;&gt;ProductListModule</title>
<path fill="none" stroke="#000000" d="M1828,-122.0225C1828,-139.3734 1828,-163 1828,-163 1828,-163 1400.5665,-163 1400.5665,-163"/>
<polygon fill="#000000" stroke="#000000" points="1400.5666,-159.5001 1390.5665,-163 1400.5665,-166.5001 1400.5666,-159.5001"/>
</g>
<!-- ProductFacetNavigationComponent  -->
<g id="node21" class="node">
<title>ProductFacetNavigationComponent </title>
<polygon fill="#fb8072" stroke="#000000" points="1930.4054,-252 1709.5946,-252 1709.5946,-216 1930.4054,-216 1930.4054,-252"/>
<text text-anchor="middle" x="1820" y="-229.8" font-family="Times,serif" font-size="14.00" fill="#000000">ProductFacetNavigationComponent </text>
</g>
<!-- ProductListModule&#45;&gt;ProductFacetNavigationComponent  -->
<g id="edge21" class="edge">
<title>ProductListModule&#45;&gt;ProductFacetNavigationComponent </title>
<path fill="none" stroke="#000000" stroke-dasharray="5,2" d="M1390.5962,-181C1500.7275,-181 1717.6015,-181 1717.6015,-181 1717.6015,-181 1717.6015,-205.7604 1717.6015,-205.7604"/>
<polygon fill="#000000" stroke="#000000" points="1714.1016,-205.7604 1717.6015,-215.7604 1721.1016,-205.7604 1714.1016,-205.7604"/>
</g>
<!-- ProductGridItemComponent  -->
<g id="node22" class="node">
<title>ProductGridItemComponent </title>
<polygon fill="#fb8072" stroke="#000000" points="1691.6953,-252 1512.3047,-252 1512.3047,-216 1691.6953,-216 1691.6953,-252"/>
<text text-anchor="middle" x="1602" y="-229.8" font-family="Times,serif" font-size="14.00" fill="#000000">ProductGridItemComponent </text>
</g>
<!-- ProductListModule&#45;&gt;ProductGridItemComponent  -->
<g id="edge22" class="edge">
<title>ProductListModule&#45;&gt;ProductGridItemComponent </title>
<path fill="none" stroke="#000000" stroke-dasharray="5,2" d="M1390.5074,-184C1455.6039,-184 1548.1856,-184 1548.1856,-184 1548.1856,-184 1548.1856,-205.9489 1548.1856,-205.9489"/>
<polygon fill="#000000" stroke="#000000" points="1544.6857,-205.9488 1548.1856,-215.9489 1551.6857,-205.9489 1544.6857,-205.9488"/>
</g>
<!-- ProductListComponent  -->
<g id="node23" class="node">
<title>ProductListComponent </title>
<polygon fill="#fb8072" stroke="#000000" points="1494.1593,-252 1343.8407,-252 1343.8407,-216 1494.1593,-216 1494.1593,-252"/>
<text text-anchor="middle" x="1419" y="-229.8" font-family="Times,serif" font-size="14.00" fill="#000000">ProductListComponent </text>
</g>
<!-- ProductListModule&#45;&gt;ProductListComponent  -->
<g id="edge23" class="edge">
<title>ProductListModule&#45;&gt;ProductListComponent </title>
<path fill="none" stroke="#000000" stroke-dasharray="5,2" d="M1367.1793,-187.1061C1367.1793,-187.1061 1367.1793,-205.991 1367.1793,-205.991"/>
<polygon fill="#000000" stroke="#000000" points="1363.6794,-205.9909 1367.1793,-215.991 1370.6794,-205.991 1363.6794,-205.9909"/>
</g>
<!-- ProductListItemComponent  -->
<g id="node24" class="node">
<title>ProductListItemComponent </title>
<polygon fill="#fb8072" stroke="#000000" points="1325.8157,-252 1150.1843,-252 1150.1843,-216 1325.8157,-216 1325.8157,-252"/>
<text text-anchor="middle" x="1238" y="-229.8" font-family="Times,serif" font-size="14.00" fill="#000000">ProductListItemComponent </text>
</g>
<!-- ProductListModule&#45;&gt;ProductListItemComponent  -->
<g id="edge24" class="edge">
<title>ProductListModule&#45;&gt;ProductListItemComponent </title>
<path fill="none" stroke="#000000" stroke-dasharray="5,2" d="M1295.7348,-187.1061C1295.7348,-187.1061 1295.7348,-205.991 1295.7348,-205.991"/>
<polygon fill="#000000" stroke="#000000" points="1292.2348,-205.9909 1295.7348,-215.991 1299.2348,-205.991 1292.2348,-205.9909"/>
</g>
<!-- ProductScrollComponent  -->
<g id="node25" class="node">
<title>ProductScrollComponent </title>
<polygon fill="#fb8072" stroke="#000000" points="1131.8199,-252 970.1801,-252 970.1801,-216 1131.8199,-216 1131.8199,-252"/>
<text text-anchor="middle" x="1051" y="-229.8" font-family="Times,serif" font-size="14.00" fill="#000000">ProductScrollComponent </text>
</g>
<!-- ProductListModule&#45;&gt;ProductScrollComponent  -->
<g id="edge25" class="edge">
<title>ProductListModule&#45;&gt;ProductScrollComponent </title>
<path fill="none" stroke="#000000" stroke-dasharray="5,2" d="M1265.3605,-184C1205.3493,-184 1123.8487,-184 1123.8487,-184 1123.8487,-184 1123.8487,-205.9489 1123.8487,-205.9489"/>
<polygon fill="#000000" stroke="#000000" points="1120.3488,-205.9488 1123.8487,-215.9489 1127.3488,-205.9489 1120.3488,-205.9488"/>
</g>
<!-- ProductViewComponent  -->
<g id="node26" class="node">
<title>ProductViewComponent </title>
<polygon fill="#fb8072" stroke="#000000" points="952.1995,-252 793.8005,-252 793.8005,-216 952.1995,-216 952.1995,-252"/>
<text text-anchor="middle" x="873" y="-229.8" font-family="Times,serif" font-size="14.00" fill="#000000">ProductViewComponent </text>
</g>
<!-- ProductListModule&#45;&gt;ProductViewComponent  -->
<g id="edge26" class="edge">
<title>ProductListModule&#45;&gt;ProductViewComponent </title>
<path fill="none" stroke="#000000" stroke-dasharray="5,2" d="M1265.5556,-181C1136.8651,-181 854.0774,-181 854.0774,-181 854.0774,-181 854.0774,-205.7604 854.0774,-205.7604"/>
<polygon fill="#000000" stroke="#000000" points="850.5775,-205.7604 854.0774,-215.7604 857.5775,-205.7604 850.5775,-205.7604"/>
</g>
<!-- AddToCartModule -->
<g id="node8" class="node">
<title>AddToCartModule</title>
<polygon fill="#8dd3c7" stroke="#000000" points="1725.8118,-122 1722.8118,-126 1701.8118,-126 1698.8118,-122 1602.1882,-122 1602.1882,-86 1725.8118,-86 1725.8118,-122"/>
<text text-anchor="middle" x="1664" y="-99.8" font-family="Times,serif" font-size="14.00" fill="#000000">AddToCartModule</text>
</g>
<!-- AddToCartModule&#45;&gt;ProductListModule -->
<g id="edge7" class="edge">
<title>AddToCartModule&#45;&gt;ProductListModule</title>
<path fill="none" stroke="#000000" d="M1647.0959,-122.027C1647.0959,-138.3976 1647.0959,-160 1647.0959,-160 1647.0959,-160 1400.6624,-160 1400.6624,-160"/>
<polygon fill="#000000" stroke="#000000" points="1400.6624,-156.5001 1390.6624,-160 1400.6623,-163.5001 1400.6624,-156.5001"/>
</g>
<!-- ConfigModule -->
<g id="node9" class="node">
<title>ConfigModule</title>
<polygon fill="#8dd3c7" stroke="#000000" points="1584.4386,-122 1581.4386,-126 1560.4386,-126 1557.4386,-122 1485.5614,-122 1485.5614,-86 1584.4386,-86 1584.4386,-122"/>
<text text-anchor="middle" x="1535" y="-99.8" font-family="Times,serif" font-size="14.00" fill="#000000">ConfigModule</text>
</g>
<!-- ConfigModule&#45;&gt;ProductListModule -->
<g id="edge8" class="edge">
<title>ConfigModule&#45;&gt;ProductListModule</title>
<path fill="none" stroke="#000000" d="M1491.3135,-122.2396C1491.3135,-137.5706 1491.3135,-157 1491.3135,-157 1491.3135,-157 1400.6742,-157 1400.6742,-157"/>
<polygon fill="#000000" stroke="#000000" points="1400.6742,-153.5001 1390.6742,-157 1400.6741,-160.5001 1400.6742,-153.5001"/>
</g>
<!-- ConfigModule&#45;&gt;ProductListModule -->
<g id="edge9" class="edge">
<title>ConfigModule&#45;&gt;ProductListModule</title>
<path fill="none" stroke="#000000" d="M1488.5473,-122.0511C1488.5473,-136.373 1488.5473,-154 1488.5473,-154 1488.5473,-154 1400.5315,-154 1400.5315,-154"/>
<polygon fill="#000000" stroke="#000000" points="1400.5315,-150.5001 1390.5315,-154 1400.5315,-157.5001 1400.5315,-150.5001"/>
</g>
<!-- FeaturesConfigModule -->
<g id="node10" class="node">
<title>FeaturesConfigModule</title>
<polygon fill="#8dd3c7" stroke="#000000" points="1467.8599,-122 1464.8599,-126 1443.8599,-126 1440.8599,-122 1322.1401,-122 1322.1401,-86 1467.8599,-86 1467.8599,-122"/>
<text text-anchor="middle" x="1395" y="-99.8" font-family="Times,serif" font-size="14.00" fill="#000000">FeaturesConfigModule</text>
</g>
<!-- FeaturesConfigModule&#45;&gt;ProductListModule -->
<g id="edge10" class="edge">
<title>FeaturesConfigModule&#45;&gt;ProductListModule</title>
<path fill="none" stroke="#000000" d="M1356.2542,-122.1061C1356.2542,-122.1061 1356.2542,-140.991 1356.2542,-140.991"/>
<polygon fill="#000000" stroke="#000000" points="1352.7543,-140.9909 1356.2542,-150.991 1359.7543,-140.991 1352.7543,-140.9909"/>
</g>
<!-- I18nModule -->
<g id="node11" class="node">
<title>I18nModule</title>
<polygon fill="#8dd3c7" stroke="#000000" points="1303.7107,-122 1300.7107,-126 1279.7107,-126 1276.7107,-122 1218.2893,-122 1218.2893,-86 1303.7107,-86 1303.7107,-122"/>
<text text-anchor="middle" x="1261" y="-99.8" font-family="Times,serif" font-size="14.00" fill="#000000">I18nModule</text>
</g>
<!-- I18nModule&#45;&gt;ProductListModule -->
<g id="edge11" class="edge">
<title>I18nModule&#45;&gt;ProductListModule</title>
<path fill="none" stroke="#000000" d="M1284.5835,-122.1061C1284.5835,-122.1061 1284.5835,-140.991 1284.5835,-140.991"/>
<polygon fill="#000000" stroke="#000000" points="1281.0835,-140.9909 1284.5835,-150.991 1288.0835,-140.991 1281.0835,-140.9909"/>
</g>
<!-- IconModule -->
<g id="node12" class="node">
<title>IconModule</title>
<polygon fill="#8dd3c7" stroke="#000000" points="1200.4261,-122 1197.4261,-126 1176.4261,-126 1173.4261,-122 1115.5739,-122 1115.5739,-86 1200.4261,-86 1200.4261,-122"/>
<text text-anchor="middle" x="1158" y="-99.8" font-family="Times,serif" font-size="14.00" fill="#000000">IconModule</text>
</g>
<!-- IconModule&#45;&gt;ProductListModule -->
<g id="edge12" class="edge">
<title>IconModule&#45;&gt;ProductListModule</title>
<path fill="none" stroke="#000000" d="M1175.1524,-122.0511C1175.1524,-136.373 1175.1524,-154 1175.1524,-154 1175.1524,-154 1255.39,-154 1255.39,-154"/>
<polygon fill="#000000" stroke="#000000" points="1255.39,-157.5001 1265.39,-154 1255.39,-150.5001 1255.39,-157.5001"/>
</g>
<!-- ItemCounterModule -->
<g id="node13" class="node">
<title>ItemCounterModule</title>
<polygon fill="#8dd3c7" stroke="#000000" points="1098.309,-122 1095.309,-126 1074.309,-126 1071.309,-122 967.691,-122 967.691,-86 1098.309,-86 1098.309,-122"/>
<text text-anchor="middle" x="1033" y="-99.8" font-family="Times,serif" font-size="14.00" fill="#000000">ItemCounterModule</text>
</g>
<!-- ItemCounterModule&#45;&gt;ProductListModule -->
<g id="edge13" class="edge">
<title>ItemCounterModule&#45;&gt;ProductListModule</title>
<path fill="none" stroke="#000000" d="M1034.1222,-122.2396C1034.1222,-137.5706 1034.1222,-157 1034.1222,-157 1034.1222,-157 1255.3163,-157 1255.3163,-157"/>
<polygon fill="#000000" stroke="#000000" points="1255.3163,-160.5001 1265.3163,-157 1255.3163,-153.5001 1255.3163,-160.5001"/>
</g>
<!-- ListNavigationModule -->
<g id="node14" class="node">
<title>ListNavigationModule</title>
<polygon fill="#8dd3c7" stroke="#000000" points="949.5365,-122 946.5365,-126 925.5365,-126 922.5365,-122 806.4635,-122 806.4635,-86 949.5365,-86 949.5365,-122"/>
<text text-anchor="middle" x="878" y="-99.8" font-family="Times,serif" font-size="14.00" fill="#000000">ListNavigationModule</text>
</g>
<!-- ListNavigationModule&#45;&gt;ProductListModule -->
<g id="edge14" class="edge">
<title>ListNavigationModule&#45;&gt;ProductListModule</title>
<path fill="none" stroke="#000000" d="M901.9226,-122.027C901.9226,-138.3976 901.9226,-160 901.9226,-160 901.9226,-160 1255.5884,-160 1255.5884,-160"/>
<polygon fill="#000000" stroke="#000000" points="1255.5884,-163.5001 1265.5884,-160 1255.5884,-156.5001 1255.5884,-163.5001"/>
</g>
<!-- MediaModule -->
<g id="node15" class="node">
<title>MediaModule</title>
<polygon fill="#8dd3c7" stroke="#000000" points="788.8147,-122 785.8147,-126 764.8147,-126 761.8147,-122 693.1853,-122 693.1853,-86 788.8147,-86 788.8147,-122"/>
<text text-anchor="middle" x="741" y="-99.8" font-family="Times,serif" font-size="14.00" fill="#000000">MediaModule</text>
</g>
<!-- MediaModule&#45;&gt;ProductListModule -->
<g id="edge15" class="edge">
<title>MediaModule&#45;&gt;ProductListModule</title>
<path fill="none" stroke="#000000" d="M741,-122.0225C741,-139.3734 741,-163 741,-163 741,-163 1255.4588,-163 1255.4588,-163"/>
<polygon fill="#000000" stroke="#000000" points="1255.4589,-166.5001 1265.4588,-163 1255.4588,-159.5001 1255.4589,-166.5001"/>
</g>
<!-- ProductVariantsModule -->
<g id="node16" class="node">
<title>ProductVariantsModule</title>
<polygon fill="#8dd3c7" stroke="#000000" points="675.0212,-122 672.0212,-126 651.0212,-126 648.0212,-122 524.9788,-122 524.9788,-86 675.0212,-86 675.0212,-122"/>
<text text-anchor="middle" x="600" y="-99.8" font-family="Times,serif" font-size="14.00" fill="#000000">ProductVariantsModule</text>
</g>
<!-- ProductVariantsModule&#45;&gt;ProductListModule -->
<g id="edge16" class="edge">
<title>ProductVariantsModule&#45;&gt;ProductListModule</title>
<path fill="none" stroke="#000000" d="M600,-122.2667C600,-140.5552 600,-166 600,-166 600,-166 1255.6164,-166 1255.6164,-166"/>
<polygon fill="#000000" stroke="#000000" points="1255.6165,-169.5001 1265.6164,-166 1255.6164,-162.5001 1255.6165,-169.5001"/>
</g>
<!-- SpinnerModule -->
<g id="node17" class="node">
<title>SpinnerModule</title>
<polygon fill="#8dd3c7" stroke="#000000" points="506.5982,-122 503.5982,-126 482.5982,-126 479.5982,-122 403.4018,-122 403.4018,-86 506.5982,-86 506.5982,-122"/>
<text text-anchor="middle" x="455" y="-99.8" font-family="Times,serif" font-size="14.00" fill="#000000">SpinnerModule</text>
</g>
<!-- SpinnerModule&#45;&gt;ProductListModule -->
<g id="edge17" class="edge">
<title>SpinnerModule&#45;&gt;ProductListModule</title>
<path fill="none" stroke="#000000" d="M455,-122.1061C455,-141.3391 455,-169 455,-169 455,-169 1255.5663,-169 1255.5663,-169"/>
<polygon fill="#000000" stroke="#000000" points="1255.5664,-172.5001 1265.5663,-169 1255.5663,-165.5001 1255.5664,-172.5001"/>
</g>
<!-- StarRatingModule -->
<g id="node18" class="node">
<title>StarRatingModule</title>
<polygon fill="#8dd3c7" stroke="#000000" points="385.9314,-122 382.9314,-126 361.9314,-126 358.9314,-122 266.0686,-122 266.0686,-86 385.9314,-86 385.9314,-122"/>
<text text-anchor="middle" x="326" y="-99.8" font-family="Times,serif" font-size="14.00" fill="#000000">StarRatingModule</text>
</g>
<!-- StarRatingModule&#45;&gt;ProductListModule -->
<g id="edge18" class="edge">
<title>StarRatingModule&#45;&gt;ProductListModule</title>
<path fill="none" stroke="#000000" d="M326,-122.2228C326,-142.3652 326,-172 326,-172 326,-172 1255.3204,-172 1255.3204,-172"/>
<polygon fill="#000000" stroke="#000000" points="1255.3204,-175.5001 1265.3204,-172 1255.3204,-168.5001 1255.3204,-175.5001"/>
</g>
<!-- UrlModule -->
<g id="node19" class="node">
<title>UrlModule</title>
<polygon fill="#8dd3c7" stroke="#000000" points="248.2079,-122 245.2079,-126 224.2079,-126 221.2079,-122 169.7921,-122 169.7921,-86 248.2079,-86 248.2079,-122"/>
<text text-anchor="middle" x="209" y="-99.8" font-family="Times,serif" font-size="14.00" fill="#000000">UrlModule</text>
</g>
<!-- UrlModule&#45;&gt;ProductListModule -->
<g id="edge19" class="edge">
<title>UrlModule&#45;&gt;ProductListModule</title>
<path fill="none" stroke="#000000" d="M209,-122.2843C209,-143.3211 209,-175 209,-175 209,-175 1255.4399,-175 1255.4399,-175"/>
<polygon fill="#000000" stroke="#000000" points="1255.44,-178.5001 1265.4399,-175 1255.4399,-171.5001 1255.44,-178.5001"/>
</g>
<!-- ViewConfigModule -->
<g id="node20" class="node">
<title>ViewConfigModule</title>
<polygon fill="#8dd3c7" stroke="#000000" points="152.2562,-122 149.2562,-126 128.2562,-126 125.2562,-122 23.7438,-122 23.7438,-86 152.2562,-86 152.2562,-122"/>
<text text-anchor="middle" x="88" y="-99.8" font-family="Times,serif" font-size="14.00" fill="#000000">ViewConfigModule</text>
</g>
<!-- ViewConfigModule&#45;&gt;ProductListModule -->
<g id="edge20" class="edge">
<title>ViewConfigModule&#45;&gt;ProductListModule</title>
<path fill="none" stroke="#000000" d="M88,-122.2921C88,-144.2057 88,-178 88,-178 88,-178 1255.2316,-178 1255.2316,-178"/>
<polygon fill="#000000" stroke="#000000" points="1255.2316,-181.5001 1265.2316,-178 1255.2315,-174.5001 1255.2316,-181.5001"/>
</g>
</g>
</svg>
