<?xml version="1.0" encoding="UTF-8" standalone="no"?>
<!DOCTYPE svg PUBLIC "-//W3C//DTD SVG 1.1//EN"
 "http://www.w3.org/Graphics/SVG/1.1/DTD/svg11.dtd">
<!-- Generated by graphviz version 2.40.1 (20161225.0304)
 -->
<!-- Title: dependencies Pages: 1 -->
<svg width="1529pt" height="284pt"
 viewBox="0.00 0.00 1529.00 284.00" xmlns="http://www.w3.org/2000/svg" xmlns:xlink="http://www.w3.org/1999/xlink">
<g id="graph0" class="graph" transform="scale(1 1) rotate(0) translate(4 280)">
<title>dependencies</title>
<polygon fill="#ffffff" stroke="transparent" points="-4,4 -4,-280 1525,-280 1525,4 -4,4"/>
<text text-anchor="start" x="739.5091" y="-42.4" font-family="sans-serif" font-weight="bold" font-size="14.00" fill="#000000">Legend</text>
<polygon fill="#ffffb3" stroke="transparent" points="526.5,-10 526.5,-30 546.5,-30 546.5,-10 526.5,-10"/>
<text text-anchor="start" x="550.129" y="-15.4" font-family="sans-serif" font-size="14.00" fill="#000000"> &#160;Declarations</text>
<polygon fill="#8dd3c7" stroke="transparent" points="639.5,-10 639.5,-30 659.5,-30 659.5,-10 639.5,-10"/>
<text text-anchor="start" x="663.2251" y="-15.4" font-family="sans-serif" font-size="14.00" fill="#000000"> &#160;Module</text>
<polygon fill="#80b1d3" stroke="transparent" points="725.5,-10 725.5,-30 745.5,-30 745.5,-10 725.5,-10"/>
<text text-anchor="start" x="749.2812" y="-15.4" font-family="sans-serif" font-size="14.00" fill="#000000"> &#160;Bootstrap</text>
<polygon fill="#fdb462" stroke="transparent" points="822.5,-10 822.5,-30 842.5,-30 842.5,-10 822.5,-10"/>
<text text-anchor="start" x="846.1732" y="-15.4" font-family="sans-serif" font-size="14.00" fill="#000000"> &#160;Providers</text>
<polygon fill="#fb8072" stroke="transparent" points="918.5,-10 918.5,-30 938.5,-30 938.5,-10 918.5,-10"/>
<text text-anchor="start" x="942.2258" y="-15.4" font-family="sans-serif" font-size="14.00" fill="#000000"> &#160;Exports</text>
<g id="clust1" class="cluster">
<title>cluster_StorefrontModule</title>
<polygon fill="none" stroke="#000000" stroke-dasharray="1,5" points="8,-70 8,-268 1513,-268 1513,-70 8,-70"/>
</g>
<g id="clust3" class="cluster">
<title>cluster_StorefrontModule_imports</title>
<polygon fill="none" stroke="#000000" points="16,-78 16,-130 1505,-130 1505,-78 16,-78"/>
</g>
<g id="clust4" class="cluster">
<title>cluster_StorefrontModule_exports</title>
<polygon fill="none" stroke="#000000" points="683,-208 683,-260 993,-260 993,-208 683,-208"/>
</g>
<!-- AsmModule -->
<g id="node1" class="node">
<title>AsmModule</title>
<polygon fill="#8dd3c7" stroke="#000000" points="1496.9916,-122 1493.9916,-126 1472.9916,-126 1469.9916,-122 1411.0084,-122 1411.0084,-86 1496.9916,-86 1496.9916,-122"/>
<text text-anchor="middle" x="1454" y="-99.8" font-family="Times,serif" font-size="14.00" fill="#000000">AsmModule</text>
</g>
<!-- StorefrontModule -->
<g id="node11" class="node">
<title>StorefrontModule</title>
<polygon fill="#8dd3c7" stroke="#000000" points="919.3104,-187 916.3104,-191 895.3104,-191 892.3104,-187 802.6896,-187 802.6896,-151 919.3104,-151 919.3104,-187"/>
<text text-anchor="middle" x="861" y="-164.8" font-family="Times,serif" font-size="14.00" fill="#000000">StorefrontModule</text>
</g>
<!-- AsmModule&#45;&gt;StorefrontModule -->
<g id="edge1" class="edge">
<title>AsmModule&#45;&gt;StorefrontModule</title>
<path fill="none" stroke="#000000" d="M1454,-122.0109C1454,-144.4852 1454,-180 1454,-180 1454,-180 929.2103,-180 929.2103,-180"/>
<polygon fill="#000000" stroke="#000000" points="929.2103,-176.5001 919.2103,-180 929.2102,-183.5001 929.2103,-176.5001"/>
</g>
<!-- ExternalRoutesModule -->
<g id="node2" class="node">
<title>ExternalRoutesModule</title>
<polygon fill="#8dd3c7" stroke="#000000" points="1392.8599,-122 1389.8599,-126 1368.8599,-126 1365.8599,-122 1247.1401,-122 1247.1401,-86 1392.8599,-86 1392.8599,-122"/>
<text text-anchor="middle" x="1320" y="-99.8" font-family="Times,serif" font-size="14.00" fill="#000000">ExternalRoutesModule</text>
</g>
<!-- ExternalRoutesModule&#45;&gt;StorefrontModule -->
<g id="edge2" class="edge">
<title>ExternalRoutesModule&#45;&gt;StorefrontModule</title>
<path fill="none" stroke="#000000" d="M1320,-122.1289C1320,-142.5724 1320,-173 1320,-173 1320,-173 929.5989,-173 929.5989,-173"/>
<polygon fill="#000000" stroke="#000000" points="929.5989,-169.5001 919.5989,-173 929.5989,-176.5001 929.5989,-169.5001"/>
</g>
<!-- MainModule -->
<g id="node3" class="node">
<title>MainModule</title>
<polygon fill="#8dd3c7" stroke="#000000" points="1229.5997,-122 1226.5997,-126 1205.5997,-126 1202.5997,-122 1140.4003,-122 1140.4003,-86 1229.5997,-86 1229.5997,-122"/>
<text text-anchor="middle" x="1185" y="-99.8" font-family="Times,serif" font-size="14.00" fill="#000000">MainModule</text>
</g>
<!-- MainModule&#45;&gt;StorefrontModule -->
<g id="edge3" class="edge">
<title>MainModule&#45;&gt;StorefrontModule</title>
<path fill="none" stroke="#000000" d="M1185,-122.2667C1185,-140.5552 1185,-166 1185,-166 1185,-166 929.2989,-166 929.2989,-166"/>
<polygon fill="#000000" stroke="#000000" points="929.2989,-162.5001 919.2989,-166 929.2989,-169.5001 929.2989,-162.5001"/>
</g>
<!-- OccModule -->
<g id="node4" class="node">
<title>OccModule</title>
<polygon fill="#8dd3c7" stroke="#000000" points="1122.0856,-122 1119.0856,-126 1098.0856,-126 1095.0856,-122 1039.9144,-122 1039.9144,-86 1122.0856,-86 1122.0856,-122"/>
<text text-anchor="middle" x="1081" y="-99.8" font-family="Times,serif" font-size="14.00" fill="#000000">OccModule</text>
</g>
<!-- OccModule&#45;&gt;StorefrontModule -->
<g id="edge4" class="edge">
<title>OccModule&#45;&gt;StorefrontModule</title>
<path fill="none" stroke="#000000" d="M1081,-122.0091C1081,-138.0494 1081,-159 1081,-159 1081,-159 929.3784,-159 929.3784,-159"/>
<polygon fill="#000000" stroke="#000000" points="929.3784,-155.5001 919.3784,-159 929.3783,-162.5001 929.3784,-155.5001"/>
</g>
<!-- PersonalizationModule -->
<g id="node5" class="node">
<title>PersonalizationModule</title>
<polygon fill="#8dd3c7" stroke="#000000" points="1021.8585,-122 1018.8585,-126 997.8585,-126 994.8585,-122 876.1415,-122 876.1415,-86 1021.8585,-86 1021.8585,-122"/>
<text text-anchor="middle" x="949" y="-99.8" font-family="Times,serif" font-size="14.00" fill="#000000">PersonalizationModule</text>
</g>
<!-- PersonalizationModule&#45;&gt;StorefrontModule -->
<g id="edge5" class="edge">
<title>PersonalizationModule&#45;&gt;StorefrontModule</title>
<path fill="none" stroke="#000000" d="M897.6129,-122.1061C897.6129,-122.1061 897.6129,-140.991 897.6129,-140.991"/>
<polygon fill="#000000" stroke="#000000" points="894.113,-140.9909 897.6129,-150.991 901.113,-140.991 894.113,-140.9909"/>
</g>
<!-- ProductDetailsPageModule -->
<g id="node6" class="node">
<title>ProductDetailsPageModule</title>
<polygon fill="#8dd3c7" stroke="#000000" points="857.9622,-122 854.9622,-126 833.9622,-126 830.9622,-122 688.0378,-122 688.0378,-86 857.9622,-86 857.9622,-122"/>
<text text-anchor="middle" x="773" y="-99.8" font-family="Times,serif" font-size="14.00" fill="#000000">ProductDetailsPageModule</text>
</g>
<!-- ProductDetailsPageModule&#45;&gt;StorefrontModule -->
<g id="edge6" class="edge">
<title>ProductDetailsPageModule&#45;&gt;StorefrontModule</title>
<path fill="none" stroke="#000000" d="M830.4131,-122.1061C830.4131,-122.1061 830.4131,-140.991 830.4131,-140.991"/>
<polygon fill="#000000" stroke="#000000" points="826.9131,-140.9909 830.4131,-150.991 833.9131,-140.991 826.9131,-140.9909"/>
</g>
<!-- ProductListingPageModule -->
<g id="node7" class="node">
<title>ProductListingPageModule</title>
<polygon fill="#8dd3c7" stroke="#000000" points="669.979,-122 666.979,-126 645.979,-126 642.979,-122 500.021,-122 500.021,-86 669.979,-86 669.979,-122"/>
<text text-anchor="middle" x="585" y="-99.8" font-family="Times,serif" font-size="14.00" fill="#000000">ProductListingPageModule</text>
</g>
<!-- ProductListingPageModule&#45;&gt;StorefrontModule -->
<g id="edge7" class="edge">
<title>ProductListingPageModule&#45;&gt;StorefrontModule</title>
<path fill="none" stroke="#000000" d="M585,-122.0091C585,-138.0494 585,-159 585,-159 585,-159 792.8047,-159 792.8047,-159"/>
<polygon fill="#000000" stroke="#000000" points="792.8048,-162.5001 802.8047,-159 792.8047,-155.5001 792.8048,-162.5001"/>
</g>
<!-- SiteContextModule -->
<g id="node8" class="node">
<title>SiteContextModule</title>
<polygon fill="#8dd3c7" stroke="#000000" points="481.6611,-122 478.6611,-126 457.6611,-126 454.6611,-122 356.3389,-122 356.3389,-86 481.6611,-86 481.6611,-122"/>
<text text-anchor="middle" x="419" y="-99.8" font-family="Times,serif" font-size="14.00" fill="#000000">SiteContextModule</text>
</g>
<!-- SiteContextModule&#45;&gt;StorefrontModule -->
<g id="edge8" class="edge">
<title>SiteContextModule&#45;&gt;StorefrontModule</title>
<path fill="none" stroke="#000000" d="M419,-122.2667C419,-140.5552 419,-166 419,-166 419,-166 792.7617,-166 792.7617,-166"/>
<polygon fill="#000000" stroke="#000000" points="792.7617,-169.5001 802.7617,-166 792.7617,-162.5001 792.7617,-169.5001"/>
</g>
<!-- SmartEditModule -->
<g id="node9" class="node">
<title>SmartEditModule</title>
<polygon fill="#8dd3c7" stroke="#000000" points="338.323,-122 335.323,-126 314.323,-126 311.323,-122 221.677,-122 221.677,-86 338.323,-86 338.323,-122"/>
<text text-anchor="middle" x="280" y="-99.8" font-family="Times,serif" font-size="14.00" fill="#000000">SmartEditModule</text>
</g>
<!-- SmartEditModule&#45;&gt;StorefrontModule -->
<g id="edge9" class="edge">
<title>SmartEditModule&#45;&gt;StorefrontModule</title>
<path fill="none" stroke="#000000" d="M280,-122.1289C280,-142.5724 280,-173 280,-173 280,-173 792.6314,-173 792.6314,-173"/>
<polygon fill="#000000" stroke="#000000" points="792.6314,-176.5001 802.6314,-173 792.6313,-169.5001 792.6314,-176.5001"/>
</g>
<!-- StorefrontFoundationModule -->
<g id="node10" class="node">
<title>StorefrontFoundationModule</title>
<polygon fill="#8dd3c7" stroke="#000000" points="204.0884,-122 201.0884,-126 180.0884,-126 177.0884,-122 23.9116,-122 23.9116,-86 204.0884,-86 204.0884,-122"/>
<text text-anchor="middle" x="114" y="-99.8" font-family="Times,serif" font-size="14.00" fill="#000000">StorefrontFoundationModule</text>
</g>
<!-- StorefrontFoundationModule&#45;&gt;StorefrontModule -->
<g id="edge10" class="edge">
<title>StorefrontFoundationModule&#45;&gt;StorefrontModule</title>
<path fill="none" stroke="#000000" d="M114,-122.0109C114,-144.4852 114,-180 114,-180 114,-180 792.6953,-180 792.6953,-180"/>
<polygon fill="#000000" stroke="#000000" points="792.6953,-183.5001 802.6953,-180 792.6953,-176.5001 792.6953,-183.5001"/>
</g>
<!-- MainModule  -->
<g id="node12" class="node">
<title>MainModule </title>
<polygon fill="#fb8072" stroke="#000000" points="985.1005,-252 892.8995,-252 892.8995,-216 985.1005,-216 985.1005,-252"/>
<text text-anchor="middle" x="939" y="-229.8" font-family="Times,serif" font-size="14.00" fill="#000000">MainModule </text>
</g>
<!-- StorefrontModule&#45;&gt;MainModule  -->
<g id="edge11" class="edge">
<title>StorefrontModule&#45;&gt;MainModule </title>
<path fill="none" stroke="#000000" stroke-dasharray="5,2" d="M905.9276,-187.1061C905.9276,-187.1061 905.9276,-205.991 905.9276,-205.991"/>
<polygon fill="#000000" stroke="#000000" points="902.4277,-205.9909 905.9276,-215.991 909.4277,-205.991 902.4277,-205.9909"/>
</g>
<!-- StorefrontFoundationModule  -->
<g id="node13" class="node">
<title>StorefrontFoundationModule </title>
<polygon fill="#fb8072" stroke="#000000" points="874.5889,-252 691.4111,-252 691.4111,-216 874.5889,-216 874.5889,-252"/>
<text text-anchor="middle" x="783" y="-229.8" font-family="Times,serif" font-size="14.00" fill="#000000">StorefrontFoundationModule </text>
</g>
<!-- StorefrontModule&#45;&gt;StorefrontFoundationModule  -->
<g id="edge12" class="edge">
<title>StorefrontModule&#45;&gt;StorefrontFoundationModule </title>
<path fill="none" stroke="#000000" stroke-dasharray="5,2" d="M838.8196,-187.1061C838.8196,-187.1061 838.8196,-205.991 838.8196,-205.991"/>
<polygon fill="#000000" stroke="#000000" points="835.3197,-205.9909 838.8196,-215.991 842.3197,-205.991 835.3197,-205.9909"/>
</g>
</g>
</svg>
