<?xml version="1.0" encoding="UTF-8" standalone="no"?>
<!DOCTYPE svg PUBLIC "-//W3C//DTD SVG 1.1//EN"
 "http://www.w3.org/Graphics/SVG/1.1/DTD/svg11.dtd">
<!-- Generated by graphviz version 2.40.1 (20161225.0304)
 -->
<!-- Title: dependencies Pages: 1 -->
<svg width="1425pt" height="284pt"
 viewBox="0.00 0.00 1425.00 284.00" xmlns="http://www.w3.org/2000/svg" xmlns:xlink="http://www.w3.org/1999/xlink">
<g id="graph0" class="graph" transform="scale(1 1) rotate(0) translate(4 280)">
<title>dependencies</title>
<polygon fill="#ffffff" stroke="transparent" points="-4,4 -4,-280 1421,-280 1421,4 -4,4"/>
<text text-anchor="start" x="687.5091" y="-42.4" font-family="sans-serif" font-weight="bold" font-size="14.00" fill="#000000">Legend</text>
<polygon fill="#ffffb3" stroke="transparent" points="474.5,-10 474.5,-30 494.5,-30 494.5,-10 474.5,-10"/>
<text text-anchor="start" x="498.129" y="-15.4" font-family="sans-serif" font-size="14.00" fill="#000000"> &#160;Declarations</text>
<polygon fill="#8dd3c7" stroke="transparent" points="587.5,-10 587.5,-30 607.5,-30 607.5,-10 587.5,-10"/>
<text text-anchor="start" x="611.2251" y="-15.4" font-family="sans-serif" font-size="14.00" fill="#000000"> &#160;Module</text>
<polygon fill="#80b1d3" stroke="transparent" points="673.5,-10 673.5,-30 693.5,-30 693.5,-10 673.5,-10"/>
<text text-anchor="start" x="697.2812" y="-15.4" font-family="sans-serif" font-size="14.00" fill="#000000"> &#160;Bootstrap</text>
<polygon fill="#fdb462" stroke="transparent" points="770.5,-10 770.5,-30 790.5,-30 790.5,-10 770.5,-10"/>
<text text-anchor="start" x="794.1732" y="-15.4" font-family="sans-serif" font-size="14.00" fill="#000000"> &#160;Providers</text>
<polygon fill="#fb8072" stroke="transparent" points="866.5,-10 866.5,-30 886.5,-30 886.5,-10 866.5,-10"/>
<text text-anchor="start" x="890.2258" y="-15.4" font-family="sans-serif" font-size="14.00" fill="#000000"> &#160;Exports</text>
<g id="clust1" class="cluster">
<title>cluster_StorefrontModule</title>
<polygon fill="none" stroke="#000000" stroke-dasharray="1,5" points="8,-70 8,-268 1409,-268 1409,-70 8,-70"/>
</g>
<g id="clust3" class="cluster">
<title>cluster_StorefrontModule_imports</title>
<polygon fill="none" stroke="#000000" points="16,-78 16,-130 1401,-130 1401,-78 16,-78"/>
</g>
<g id="clust4" class="cluster">
<title>cluster_StorefrontModule_exports</title>
<polygon fill="none" stroke="#000000" points="595,-208 595,-260 905,-260 905,-208 595,-208"/>
</g>
<!-- ExternalRoutesModule -->
<g id="node1" class="node">
<title>ExternalRoutesModule</title>
<polygon fill="#8dd3c7" stroke="#000000" points="1392.8599,-122 1389.8599,-126 1368.8599,-126 1365.8599,-122 1247.1401,-122 1247.1401,-86 1392.8599,-86 1392.8599,-122"/>
<text text-anchor="middle" x="1320" y="-99.8" font-family="Times,serif" font-size="14.00" fill="#000000">ExternalRoutesModule</text>
</g>
<!-- StorefrontModule -->
<g id="node10" class="node">
<title>StorefrontModule</title>
<polygon fill="#8dd3c7" stroke="#000000" points="831.3104,-187 828.3104,-191 807.3104,-191 804.3104,-187 714.6896,-187 714.6896,-151 831.3104,-151 831.3104,-187"/>
<text text-anchor="middle" x="773" y="-164.8" font-family="Times,serif" font-size="14.00" fill="#000000">StorefrontModule</text>
</g>
<!-- ExternalRoutesModule&#45;&gt;StorefrontModule -->
<g id="edge1" class="edge">
<title>ExternalRoutesModule&#45;&gt;StorefrontModule</title>
<path fill="none" stroke="#000000" d="M1320,-122.0109C1320,-144.4852 1320,-180 1320,-180 1320,-180 841.2794,-180 841.2794,-180"/>
<polygon fill="#000000" stroke="#000000" points="841.2795,-176.5001 831.2794,-180 841.2794,-183.5001 841.2795,-176.5001"/>
</g>
<!-- MainModule -->
<g id="node2" class="node">
<title>MainModule</title>
<polygon fill="#8dd3c7" stroke="#000000" points="1229.5997,-122 1226.5997,-126 1205.5997,-126 1202.5997,-122 1140.4003,-122 1140.4003,-86 1229.5997,-86 1229.5997,-122"/>
<text text-anchor="middle" x="1185" y="-99.8" font-family="Times,serif" font-size="14.00" fill="#000000">MainModule</text>
</g>
<!-- MainModule&#45;&gt;StorefrontModule -->
<g id="edge2" class="edge">
<title>MainModule&#45;&gt;StorefrontModule</title>
<path fill="none" stroke="#000000" d="M1185,-122.1289C1185,-142.5724 1185,-173 1185,-173 1185,-173 841.1557,-173 841.1557,-173"/>
<polygon fill="#000000" stroke="#000000" points="841.1557,-169.5001 831.1557,-173 841.1557,-176.5001 841.1557,-169.5001"/>
</g>
<!-- OccModule -->
<g id="node3" class="node">
<title>OccModule</title>
<polygon fill="#8dd3c7" stroke="#000000" points="1122.0856,-122 1119.0856,-126 1098.0856,-126 1095.0856,-122 1039.9144,-122 1039.9144,-86 1122.0856,-86 1122.0856,-122"/>
<text text-anchor="middle" x="1081" y="-99.8" font-family="Times,serif" font-size="14.00" fill="#000000">OccModule</text>
</g>
<!-- OccModule&#45;&gt;StorefrontModule -->
<g id="edge3" class="edge">
<title>OccModule&#45;&gt;StorefrontModule</title>
<path fill="none" stroke="#000000" d="M1081,-122.2667C1081,-140.5552 1081,-166 1081,-166 1081,-166 841.2945,-166 841.2945,-166"/>
<polygon fill="#000000" stroke="#000000" points="841.2946,-162.5001 831.2945,-166 841.2945,-169.5001 841.2946,-162.5001"/>
</g>
<!-- PersonalizationModule -->
<g id="node4" class="node">
<title>PersonalizationModule</title>
<polygon fill="#8dd3c7" stroke="#000000" points="1021.8585,-122 1018.8585,-126 997.8585,-126 994.8585,-122 876.1415,-122 876.1415,-86 1021.8585,-86 1021.8585,-122"/>
<text text-anchor="middle" x="949" y="-99.8" font-family="Times,serif" font-size="14.00" fill="#000000">PersonalizationModule</text>
</g>
<!-- PersonalizationModule&#45;&gt;StorefrontModule -->
<g id="edge4" class="edge">
<title>PersonalizationModule&#45;&gt;StorefrontModule</title>
<path fill="none" stroke="#000000" d="M886.6853,-122.0091C886.6853,-138.0494 886.6853,-159 886.6853,-159 886.6853,-159 841.1748,-159 841.1748,-159"/>
<polygon fill="#000000" stroke="#000000" points="841.1748,-155.5001 831.1748,-159 841.1748,-162.5001 841.1748,-155.5001"/>
</g>
<!-- ProductDetailsPageModule -->
<g id="node5" class="node">
<title>ProductDetailsPageModule</title>
<polygon fill="#8dd3c7" stroke="#000000" points="857.9622,-122 854.9622,-126 833.9622,-126 830.9622,-122 688.0378,-122 688.0378,-86 857.9622,-86 857.9622,-122"/>
<text text-anchor="middle" x="773" y="-99.8" font-family="Times,serif" font-size="14.00" fill="#000000">ProductDetailsPageModule</text>
</g>
<!-- ProductDetailsPageModule&#45;&gt;StorefrontModule -->
<g id="edge5" class="edge">
<title>ProductDetailsPageModule&#45;&gt;StorefrontModule</title>
<path fill="none" stroke="#000000" d="M773,-122.1061C773,-122.1061 773,-140.991 773,-140.991"/>
<polygon fill="#000000" stroke="#000000" points="769.5001,-140.9909 773,-150.991 776.5001,-140.991 769.5001,-140.9909"/>
</g>
<!-- ProductListingPageModule -->
<g id="node6" class="node">
<title>ProductListingPageModule</title>
<polygon fill="#8dd3c7" stroke="#000000" points="669.979,-122 666.979,-126 645.979,-126 642.979,-122 500.021,-122 500.021,-86 669.979,-86 669.979,-122"/>
<text text-anchor="middle" x="585" y="-99.8" font-family="Times,serif" font-size="14.00" fill="#000000">ProductListingPageModule</text>
</g>
<!-- ProductListingPageModule&#45;&gt;StorefrontModule -->
<g id="edge6" class="edge">
<title>ProductListingPageModule&#45;&gt;StorefrontModule</title>
<path fill="none" stroke="#000000" d="M636.5976,-122.0091C636.5976,-138.0494 636.5976,-159 636.5976,-159 636.5976,-159 704.7575,-159 704.7575,-159"/>
<polygon fill="#000000" stroke="#000000" points="704.7575,-162.5001 714.7575,-159 704.7574,-155.5001 704.7575,-162.5001"/>
</g>
<!-- SiteContextModule -->
<g id="node7" class="node">
<title>SiteContextModule</title>
<polygon fill="#8dd3c7" stroke="#000000" points="481.6611,-122 478.6611,-126 457.6611,-126 454.6611,-122 356.3389,-122 356.3389,-86 481.6611,-86 481.6611,-122"/>
<text text-anchor="middle" x="419" y="-99.8" font-family="Times,serif" font-size="14.00" fill="#000000">SiteContextModule</text>
</g>
<!-- SiteContextModule&#45;&gt;StorefrontModule -->
<g id="edge7" class="edge">
<title>SiteContextModule&#45;&gt;StorefrontModule</title>
<path fill="none" stroke="#000000" d="M419,-122.2667C419,-140.5552 419,-166 419,-166 419,-166 704.5441,-166 704.5441,-166"/>
<polygon fill="#000000" stroke="#000000" points="704.5441,-169.5001 714.5441,-166 704.5441,-162.5001 704.5441,-169.5001"/>
</g>
<!-- SmartEditModule -->
<g id="node8" class="node">
<title>SmartEditModule</title>
<polygon fill="#8dd3c7" stroke="#000000" points="338.323,-122 335.323,-126 314.323,-126 311.323,-122 221.677,-122 221.677,-86 338.323,-86 338.323,-122"/>
<text text-anchor="middle" x="280" y="-99.8" font-family="Times,serif" font-size="14.00" fill="#000000">SmartEditModule</text>
</g>
<!-- SmartEditModule&#45;&gt;StorefrontModule -->
<g id="edge8" class="edge">
<title>SmartEditModule&#45;&gt;StorefrontModule</title>
<path fill="none" stroke="#000000" d="M280,-122.1289C280,-142.5724 280,-173 280,-173 280,-173 704.5104,-173 704.5104,-173"/>
<polygon fill="#000000" stroke="#000000" points="704.5105,-176.5001 714.5104,-173 704.5104,-169.5001 704.5105,-176.5001"/>
</g>
<!-- StorefrontFoundationModule -->
<g id="node9" class="node">
<title>StorefrontFoundationModule</title>
<polygon fill="#8dd3c7" stroke="#000000" points="204.0884,-122 201.0884,-126 180.0884,-126 177.0884,-122 23.9116,-122 23.9116,-86 204.0884,-86 204.0884,-122"/>
<text text-anchor="middle" x="114" y="-99.8" font-family="Times,serif" font-size="14.00" fill="#000000">StorefrontFoundationModule</text>
</g>
<!-- StorefrontFoundationModule&#45;&gt;StorefrontModule -->
<g id="edge9" class="edge">
<title>StorefrontFoundationModule&#45;&gt;StorefrontModule</title>
<path fill="none" stroke="#000000" d="M114,-122.0109C114,-144.4852 114,-180 114,-180 114,-180 704.8072,-180 704.8072,-180"/>
<polygon fill="#000000" stroke="#000000" points="704.8073,-183.5001 714.8072,-180 704.8072,-176.5001 704.8073,-183.5001"/>
</g>
<!-- MainModule  -->
<g id="node11" class="node">
<title>MainModule </title>
<polygon fill="#fb8072" stroke="#000000" points="897.1005,-252 804.8995,-252 804.8995,-216 897.1005,-216 897.1005,-252"/>
<text text-anchor="middle" x="851" y="-229.8" font-family="Times,serif" font-size="14.00" fill="#000000">MainModule </text>
</g>
<!-- StorefrontModule&#45;&gt;MainModule  -->
<g id="edge10" class="edge">
<title>StorefrontModule&#45;&gt;MainModule </title>
<path fill="none" stroke="#000000" stroke-dasharray="5,2" d="M817.9276,-187.1061C817.9276,-187.1061 817.9276,-205.991 817.9276,-205.991"/>
<polygon fill="#000000" stroke="#000000" points="814.4277,-205.9909 817.9276,-215.991 821.4277,-205.991 814.4277,-205.9909"/>
</g>
<!-- StorefrontFoundationModule  -->
<g id="node12" class="node">
<title>StorefrontFoundationModule </title>
<polygon fill="#fb8072" stroke="#000000" points="786.5889,-252 603.4111,-252 603.4111,-216 786.5889,-216 786.5889,-252"/>
<text text-anchor="middle" x="695" y="-229.8" font-family="Times,serif" font-size="14.00" fill="#000000">StorefrontFoundationModule </text>
</g>
<!-- StorefrontModule&#45;&gt;StorefrontFoundationModule  -->
<g id="edge11" class="edge">
<title>StorefrontModule&#45;&gt;StorefrontFoundationModule </title>
<path fill="none" stroke="#000000" stroke-dasharray="5,2" d="M750.8196,-187.1061C750.8196,-187.1061 750.8196,-205.991 750.8196,-205.991"/>
<polygon fill="#000000" stroke="#000000" points="747.3197,-205.9909 750.8196,-215.991 754.3197,-205.991 747.3197,-205.9909"/>
</g>
</g>
</svg>
