<?xml version="1.0" encoding="UTF-8" standalone="no"?>
<!DOCTYPE svg PUBLIC "-//W3C//DTD SVG 1.1//EN"
 "http://www.w3.org/Graphics/SVG/1.1/DTD/svg11.dtd">
<!-- Generated by graphviz version 2.47.0 (20210316.0004)
 -->
<!-- Title: dependencies Pages: 1 -->
<svg width="752pt" height="211pt"
 viewBox="0.00 0.00 752.00 211.00" xmlns="http://www.w3.org/2000/svg" xmlns:xlink="http://www.w3.org/1999/xlink">
<g id="graph0" class="graph" transform="scale(1 1) rotate(0) translate(4 207)">
<title>dependencies</title>
<polygon fill="white" stroke="transparent" points="-4,4 -4,-207 748,-207 748,4 -4,4"/>
<text text-anchor="start" x="351.01" y="-42.4" font-family="sans-serif" font-weight="bold" font-size="14.00">Legend</text>
<polygon fill="#ffffb3" stroke="transparent" points="138,-10 138,-30 158,-30 158,-10 138,-10"/>
<text text-anchor="start" x="161.63" y="-15.4" font-family="sans-serif" font-size="14.00"> &#160;Declarations</text>
<polygon fill="#8dd3c7" stroke="transparent" points="251,-10 251,-30 271,-30 271,-10 251,-10"/>
<text text-anchor="start" x="274.73" y="-15.4" font-family="sans-serif" font-size="14.00"> &#160;Module</text>
<polygon fill="#80b1d3" stroke="transparent" points="337,-10 337,-30 357,-30 357,-10 337,-10"/>
<text text-anchor="start" x="360.78" y="-15.4" font-family="sans-serif" font-size="14.00"> &#160;Bootstrap</text>
<polygon fill="#fdb462" stroke="transparent" points="434,-10 434,-30 454,-30 454,-10 434,-10"/>
<text text-anchor="start" x="457.67" y="-15.4" font-family="sans-serif" font-size="14.00"> &#160;Providers</text>
<polygon fill="#fb8072" stroke="transparent" points="530,-10 530,-30 550,-30 550,-10 530,-10"/>
<text text-anchor="start" x="553.73" y="-15.4" font-family="sans-serif" font-size="14.00"> &#160;Exports</text>
<g id="clust1" class="cluster">
<title>cluster_SavedCartComponentsModule</title>
<polygon fill="none" stroke="black" stroke-dasharray="1,5" points="8,-70 8,-195 736,-195 736,-70 8,-70"/>
</g>
<g id="clust3" class="cluster">
<title>cluster_SavedCartComponentsModule_imports</title>
<polygon fill="none" stroke="black" points="16,-78 16,-130 728,-130 728,-78 16,-78"/>
</g>
<!-- AddToSavedCartModule -->
<g id="node1" class="node">
<title>AddToSavedCartModule</title>
<polygon fill="#8dd3c7" stroke="black" points="719.52,-122 716.52,-126 695.52,-126 692.52,-122 562.48,-122 562.48,-86 719.52,-86 719.52,-122"/>
<text text-anchor="middle" x="641" y="-99.8" font-family="Times,serif" font-size="14.00">AddToSavedCartModule</text>
</g>
<!-- SavedCartComponentsModule -->
<g id="node5" class="node">
<title>SavedCartComponentsModule</title>
<polygon fill="#8dd3c7" stroke="black" points="464.14,-187 461.14,-191 440.14,-191 437.14,-187 275.86,-187 275.86,-151 464.14,-151 464.14,-187"/>
<text text-anchor="middle" x="370" y="-164.8" font-family="Times,serif" font-size="14.00">SavedCartComponentsModule</text>
</g>
<!-- AddToSavedCartModule&#45;&gt;SavedCartComponentsModule -->
<g id="edge1" class="edge">
<title>AddToSavedCartModule&#45;&gt;SavedCartComponentsModule</title>
<path fill="none" stroke="black" d="M641,-122.11C641,-141.34 641,-169 641,-169 641,-169 474.4,-169 474.4,-169"/>
<polygon fill="black" stroke="black" points="474.4,-165.5 464.4,-169 474.4,-172.5 474.4,-165.5"/>
</g>
<!-- SavedCartDetailsModule -->
<g id="node2" class="node">
<title>SavedCartDetailsModule</title>
<polygon fill="#8dd3c7" stroke="black" points="543.52,-122 540.52,-126 519.52,-126 516.52,-122 386.48,-122 386.48,-86 543.52,-86 543.52,-122"/>
<text text-anchor="middle" x="465" y="-99.8" font-family="Times,serif" font-size="14.00">SavedCartDetailsModule</text>
</g>
<!-- SavedCartDetailsModule&#45;&gt;SavedCartComponentsModule -->
<g id="edge2" class="edge">
<title>SavedCartDetailsModule&#45;&gt;SavedCartComponentsModule</title>
<path fill="none" stroke="black" d="M425.28,-122.11C425.28,-122.11 425.28,-140.99 425.28,-140.99"/>
<polygon fill="black" stroke="black" points="421.78,-140.99 425.28,-150.99 428.78,-140.99 421.78,-140.99"/>
</g>
<!-- SavedCartFormDialogModule -->
<g id="node3" class="node">
<title>SavedCartFormDialogModule</title>
<polygon fill="#8dd3c7" stroke="black" points="368.3,-122 365.3,-126 344.3,-126 341.3,-122 181.7,-122 181.7,-86 368.3,-86 368.3,-122"/>
<text text-anchor="middle" x="275" y="-99.8" font-family="Times,serif" font-size="14.00">SavedCartFormDialogModule</text>
</g>
<!-- SavedCartFormDialogModule&#45;&gt;SavedCartComponentsModule -->
<g id="edge3" class="edge">
<title>SavedCartFormDialogModule&#45;&gt;SavedCartComponentsModule</title>
<path fill="none" stroke="black" d="M321.91,-122.11C321.91,-122.11 321.91,-140.99 321.91,-140.99"/>
<polygon fill="black" stroke="black" points="318.41,-140.99 321.91,-150.99 325.41,-140.99 318.41,-140.99"/>
</g>
<!-- SavedCartListModule -->
<g id="node4" class="node">
<title>SavedCartListModule</title>
<polygon fill="#8dd3c7" stroke="black" points="163.64,-122 160.64,-126 139.64,-126 136.64,-122 24.36,-122 24.36,-86 163.64,-86 163.64,-122"/>
<text text-anchor="middle" x="94" y="-99.8" font-family="Times,serif" font-size="14.00">SavedCartListModule</text>
</g>
<!-- SavedCartListModule&#45;&gt;SavedCartComponentsModule -->
<g id="edge4" class="edge">
<title>SavedCartListModule&#45;&gt;SavedCartComponentsModule</title>
<path fill="none" stroke="black" d="M94,-122.11C94,-141.34 94,-169 94,-169 94,-169 265.79,-169 265.79,-169"/>
<polygon fill="black" stroke="black" points="265.79,-172.5 275.79,-169 265.79,-165.5 265.79,-172.5"/>
</g>
</g>
</svg>
