<?xml version="1.0" encoding="UTF-8" standalone="no"?>
<!DOCTYPE svg PUBLIC "-//W3C//DTD SVG 1.1//EN"
 "http://www.w3.org/Graphics/SVG/1.1/DTD/svg11.dtd">
<!-- Generated by graphviz version 2.47.3 (20210619.1520)
 -->
<!-- Title: dependencies Pages: 1 -->
<svg width="752pt" height="174pt"
 viewBox="0.00 0.00 752.00 173.80" xmlns="http://www.w3.org/2000/svg" xmlns:xlink="http://www.w3.org/1999/xlink">
<g id="graph0" class="graph" transform="scale(1 1) rotate(0) translate(4 169.8)">
<title>dependencies</title>
<polygon fill="white" stroke="transparent" points="-4,4 -4,-169.8 748,-169.8 748,4 -4,4"/>
<text text-anchor="middle" x="372" y="-8.2" font-family="sans-serif" font-size="14.00">dependencies</text>
<g id="clust1" class="cluster">
<title>cluster_SavedCartComponentsModule</title>
<polygon fill="none" stroke="black" stroke-dasharray="1,5" points="8,-32.8 8,-157.8 736,-157.8 736,-32.8 8,-32.8"/>
</g>
<g id="clust3" class="cluster">
<title>cluster_SavedCartComponentsModule_imports</title>
<polygon fill="none" stroke="black" points="16,-40.8 16,-92.8 728,-92.8 728,-40.8 16,-40.8"/>
</g>
<!-- AddToSavedCartModule -->
<g id="node1" class="node">
<title>AddToSavedCartModule</title>
<polygon fill="#8dd3c7" stroke="black" points="719.52,-84.8 716.52,-88.8 695.52,-88.8 692.52,-84.8 562.48,-84.8 562.48,-48.8 719.52,-48.8 719.52,-84.8"/>
<text text-anchor="middle" x="641" y="-62.6" font-family="Times,serif" font-size="14.00">AddToSavedCartModule</text>
</g>
<!-- SavedCartComponentsModule -->
<g id="node5" class="node">
<title>SavedCartComponentsModule</title>
<polygon fill="#8dd3c7" stroke="black" points="464.14,-149.8 461.14,-153.8 440.14,-153.8 437.14,-149.8 275.86,-149.8 275.86,-113.8 464.14,-113.8 464.14,-149.8"/>
<text text-anchor="middle" x="370" y="-127.6" font-family="Times,serif" font-size="14.00">SavedCartComponentsModule</text>
</g>
<!-- AddToSavedCartModule&#45;&gt;SavedCartComponentsModule -->
<g id="edge1" class="edge">
<title>AddToSavedCartModule&#45;&gt;SavedCartComponentsModule</title>
<path fill="none" stroke="black" d="M641,-84.91C641,-104.14 641,-131.8 641,-131.8 641,-131.8 474.4,-131.8 474.4,-131.8"/>
<polygon fill="black" stroke="black" points="474.4,-128.3 464.4,-131.8 474.4,-135.3 474.4,-128.3"/>
</g>
<!-- SavedCartDetailsModule -->
<g id="node2" class="node">
<title>SavedCartDetailsModule</title>
<polygon fill="#8dd3c7" stroke="black" points="543.52,-84.8 540.52,-88.8 519.52,-88.8 516.52,-84.8 386.48,-84.8 386.48,-48.8 543.52,-48.8 543.52,-84.8"/>
<text text-anchor="middle" x="465" y="-62.6" font-family="Times,serif" font-size="14.00">SavedCartDetailsModule</text>
</g>
<!-- SavedCartDetailsModule&#45;&gt;SavedCartComponentsModule -->
<g id="edge2" class="edge">
<title>SavedCartDetailsModule&#45;&gt;SavedCartComponentsModule</title>
<path fill="none" stroke="black" d="M425.28,-84.91C425.28,-84.91 425.28,-103.79 425.28,-103.79"/>
<polygon fill="black" stroke="black" points="421.78,-103.79 425.28,-113.79 428.78,-103.79 421.78,-103.79"/>
</g>
<!-- SavedCartFormDialogModule -->
<g id="node3" class="node">
<title>SavedCartFormDialogModule</title>
<polygon fill="#8dd3c7" stroke="black" points="368.3,-84.8 365.3,-88.8 344.3,-88.8 341.3,-84.8 181.7,-84.8 181.7,-48.8 368.3,-48.8 368.3,-84.8"/>
<text text-anchor="middle" x="275" y="-62.6" font-family="Times,serif" font-size="14.00">SavedCartFormDialogModule</text>
</g>
<!-- SavedCartFormDialogModule&#45;&gt;SavedCartComponentsModule -->
<g id="edge3" class="edge">
<title>SavedCartFormDialogModule&#45;&gt;SavedCartComponentsModule</title>
<path fill="none" stroke="black" d="M321.91,-84.91C321.91,-84.91 321.91,-103.79 321.91,-103.79"/>
<polygon fill="black" stroke="black" points="318.41,-103.79 321.91,-113.79 325.41,-103.79 318.41,-103.79"/>
</g>
<!-- SavedCartListModule -->
<g id="node4" class="node">
<title>SavedCartListModule</title>
<polygon fill="#8dd3c7" stroke="black" points="163.64,-84.8 160.64,-88.8 139.64,-88.8 136.64,-84.8 24.36,-84.8 24.36,-48.8 163.64,-48.8 163.64,-84.8"/>
<text text-anchor="middle" x="94" y="-62.6" font-family="Times,serif" font-size="14.00">SavedCartListModule</text>
</g>
<!-- SavedCartListModule&#45;&gt;SavedCartComponentsModule -->
<g id="edge4" class="edge">
<title>SavedCartListModule&#45;&gt;SavedCartComponentsModule</title>
<path fill="none" stroke="black" d="M94,-84.91C94,-104.14 94,-131.8 94,-131.8 94,-131.8 265.79,-131.8 265.79,-131.8"/>
<polygon fill="black" stroke="black" points="265.79,-135.3 275.79,-131.8 265.79,-128.3 265.79,-135.3"/>
</g>
</g>
</svg>
