<?xml version="1.0" encoding="UTF-8" standalone="no"?>
<!DOCTYPE svg PUBLIC "-//W3C//DTD SVG 1.1//EN"
 "http://www.w3.org/Graphics/SVG/1.1/DTD/svg11.dtd">
<!-- Generated by graphviz version 2.47.3 (20210619.1520)
 -->
<!-- Title: dependencies Pages: 1 -->
<svg width="1196pt" height="174pt"
 viewBox="0.00 0.00 1196.00 173.80" xmlns="http://www.w3.org/2000/svg" xmlns:xlink="http://www.w3.org/1999/xlink">
<g id="graph0" class="graph" transform="scale(1 1) rotate(0) translate(4 169.8)">
<title>dependencies</title>
<polygon fill="white" stroke="transparent" points="-4,4 -4,-169.8 1192,-169.8 1192,4 -4,4"/>
<text text-anchor="middle" x="594" y="-8.2" font-family="sans-serif" font-size="14.00">dependencies</text>
<g id="clust1" class="cluster">
<title>cluster_ProductVariantsComponentsModule</title>
<polygon fill="none" stroke="black" stroke-dasharray="1,5" points="8,-32.8 8,-157.8 1180,-157.8 1180,-32.8 8,-32.8"/>
</g>
<g id="clust3" class="cluster">
<title>cluster_ProductVariantsComponentsModule_imports</title>
<polygon fill="none" stroke="black" points="16,-40.8 16,-92.8 1172,-92.8 1172,-40.8 16,-40.8"/>
</g>
<!-- ProductVariantColorSelectorModule -->
<g id="node1" class="node">
<title>ProductVariantColorSelectorModule</title>
<polygon fill="#8dd3c7" stroke="black" points="1164.33,-84.8 1161.33,-88.8 1140.33,-88.8 1137.33,-84.8 941.67,-84.8 941.67,-48.8 1164.33,-48.8 1164.33,-84.8"/>
<text text-anchor="middle" x="1053" y="-62.6" font-family="Times,serif" font-size="14.00">ProductVariantColorSelectorModule</text>
</g>
<!-- ProductVariantsComponentsModule -->
<g id="node6" class="node">
<title>ProductVariantsComponentsModule</title>
<polygon fill="#8dd3c7" stroke="black" points="698.8,-149.8 695.8,-153.8 674.8,-153.8 671.8,-149.8 477.2,-149.8 477.2,-113.8 698.8,-113.8 698.8,-149.8"/>
<text text-anchor="middle" x="588" y="-127.6" font-family="Times,serif" font-size="14.00">ProductVariantsComponentsModule</text>
</g>
<!-- ProductVariantColorSelectorModule&#45;&gt;ProductVariantsComponentsModule -->
<g id="edge1" class="edge">
<title>ProductVariantColorSelectorModule&#45;&gt;ProductVariantsComponentsModule</title>
<path fill="none" stroke="black" d="M1053,-84.91C1053,-104.14 1053,-131.8 1053,-131.8 1053,-131.8 708.79,-131.8 708.79,-131.8"/>
<polygon fill="black" stroke="black" points="708.79,-128.3 698.79,-131.8 708.79,-135.3 708.79,-128.3"/>
</g>
<!-- ProductVariantSizeSelectorModule -->
<g id="node2" class="node">
<title>ProductVariantSizeSelectorModule</title>
<polygon fill="#8dd3c7" stroke="black" points="923.55,-84.8 920.55,-88.8 899.55,-88.8 896.55,-84.8 708.45,-84.8 708.45,-48.8 923.55,-48.8 923.55,-84.8"/>
<text text-anchor="middle" x="816" y="-62.6" font-family="Times,serif" font-size="14.00">ProductVariantSizeSelectorModule</text>
</g>
<!-- ProductVariantSizeSelectorModule&#45;&gt;ProductVariantsComponentsModule -->
<g id="edge2" class="edge">
<title>ProductVariantSizeSelectorModule&#45;&gt;ProductVariantsComponentsModule</title>
<path fill="none" stroke="black" d="M708.32,-66.8C699.78,-66.8 694.37,-66.8 694.37,-66.8 694.37,-66.8 694.37,-103.69 694.37,-103.69"/>
<polygon fill="black" stroke="black" points="690.87,-103.69 694.37,-113.69 697.87,-103.69 690.87,-103.69"/>
</g>
<!-- ProductVariantStyleIconsModule -->
<g id="node3" class="node">
<title>ProductVariantStyleIconsModule</title>
<polygon fill="#8dd3c7" stroke="black" points="690.17,-84.8 687.17,-88.8 666.17,-88.8 663.17,-84.8 485.83,-84.8 485.83,-48.8 690.17,-48.8 690.17,-84.8"/>
<text text-anchor="middle" x="588" y="-62.6" font-family="Times,serif" font-size="14.00">ProductVariantStyleIconsModule</text>
</g>
<!-- ProductVariantStyleIconsModule&#45;&gt;ProductVariantsComponentsModule -->
<g id="edge3" class="edge">
<title>ProductVariantStyleIconsModule&#45;&gt;ProductVariantsComponentsModule</title>
<path fill="none" stroke="black" d="M588,-84.91C588,-84.91 588,-103.79 588,-103.79"/>
<polygon fill="black" stroke="black" points="584.5,-103.79 588,-113.79 591.5,-103.79 584.5,-103.79"/>
</g>
<!-- ProductVariantStyleSelectorModule -->
<g id="node4" class="node">
<title>ProductVariantStyleSelectorModule</title>
<polygon fill="#8dd3c7" stroke="black" points="467.72,-84.8 464.72,-88.8 443.72,-88.8 440.72,-84.8 248.28,-84.8 248.28,-48.8 467.72,-48.8 467.72,-84.8"/>
<text text-anchor="middle" x="358" y="-62.6" font-family="Times,serif" font-size="14.00">ProductVariantStyleSelectorModule</text>
</g>
<!-- ProductVariantStyleSelectorModule&#45;&gt;ProductVariantsComponentsModule -->
<g id="edge4" class="edge">
<title>ProductVariantStyleSelectorModule&#45;&gt;ProductVariantsComponentsModule</title>
<path fill="none" stroke="black" d="M467.93,-66.8C476.33,-66.8 481.63,-66.8 481.63,-66.8 481.63,-66.8 481.63,-103.69 481.63,-103.69"/>
<polygon fill="black" stroke="black" points="478.13,-103.69 481.63,-113.69 485.13,-103.69 478.13,-103.69"/>
</g>
<!-- ProductVariantsContainerModule -->
<g id="node5" class="node">
<title>ProductVariantsContainerModule</title>
<polygon fill="#8dd3c7" stroke="black" points="229.73,-84.8 226.73,-88.8 205.73,-88.8 202.73,-84.8 24.27,-84.8 24.27,-48.8 229.73,-48.8 229.73,-84.8"/>
<text text-anchor="middle" x="127" y="-62.6" font-family="Times,serif" font-size="14.00">ProductVariantsContainerModule</text>
</g>
<!-- ProductVariantsContainerModule&#45;&gt;ProductVariantsComponentsModule -->
<g id="edge5" class="edge">
<title>ProductVariantsContainerModule&#45;&gt;ProductVariantsComponentsModule</title>
<path fill="none" stroke="black" d="M127,-84.91C127,-104.14 127,-131.8 127,-131.8 127,-131.8 467.29,-131.8 467.29,-131.8"/>
<polygon fill="black" stroke="black" points="467.29,-135.3 477.29,-131.8 467.29,-128.3 467.29,-135.3"/>
</g>
</g>
</svg>
