<?xml version="1.0" encoding="UTF-8" standalone="no"?>
<!DOCTYPE svg PUBLIC "-//W3C//DTD SVG 1.1//EN"
 "http://www.w3.org/Graphics/SVG/1.1/DTD/svg11.dtd">
<!-- Generated by graphviz version 2.47.0 (20210316.0004)
 -->
<!-- Title: dependencies Pages: 1 -->
<svg width="1196pt" height="211pt"
 viewBox="0.00 0.00 1196.00 211.00" xmlns="http://www.w3.org/2000/svg" xmlns:xlink="http://www.w3.org/1999/xlink">
<g id="graph0" class="graph" transform="scale(1 1) rotate(0) translate(4 207)">
<title>dependencies</title>
<polygon fill="white" stroke="transparent" points="-4,4 -4,-207 1192,-207 1192,4 -4,4"/>
<text text-anchor="start" x="573.01" y="-42.4" font-family="sans-serif" font-weight="bold" font-size="14.00">Legend</text>
<polygon fill="#ffffb3" stroke="transparent" points="360,-10 360,-30 380,-30 380,-10 360,-10"/>
<text text-anchor="start" x="383.63" y="-15.4" font-family="sans-serif" font-size="14.00"> &#160;Declarations</text>
<polygon fill="#8dd3c7" stroke="transparent" points="473,-10 473,-30 493,-30 493,-10 473,-10"/>
<text text-anchor="start" x="496.73" y="-15.4" font-family="sans-serif" font-size="14.00"> &#160;Module</text>
<polygon fill="#80b1d3" stroke="transparent" points="559,-10 559,-30 579,-30 579,-10 559,-10"/>
<text text-anchor="start" x="582.78" y="-15.4" font-family="sans-serif" font-size="14.00"> &#160;Bootstrap</text>
<polygon fill="#fdb462" stroke="transparent" points="656,-10 656,-30 676,-30 676,-10 656,-10"/>
<text text-anchor="start" x="679.67" y="-15.4" font-family="sans-serif" font-size="14.00"> &#160;Providers</text>
<polygon fill="#fb8072" stroke="transparent" points="752,-10 752,-30 772,-30 772,-10 752,-10"/>
<text text-anchor="start" x="775.73" y="-15.4" font-family="sans-serif" font-size="14.00"> &#160;Exports</text>
<g id="clust1" class="cluster">
<title>cluster_ProductVariantsComponentsModule</title>
<polygon fill="none" stroke="black" stroke-dasharray="1,5" points="8,-70 8,-195 1180,-195 1180,-70 8,-70"/>
</g>
<g id="clust3" class="cluster">
<title>cluster_ProductVariantsComponentsModule_imports</title>
<polygon fill="none" stroke="black" points="16,-78 16,-130 1172,-130 1172,-78 16,-78"/>
</g>
<!-- ProductVariantColorSelectorModule -->
<g id="node1" class="node">
<title>ProductVariantColorSelectorModule</title>
<polygon fill="#8dd3c7" stroke="black" points="1164.33,-122 1161.33,-126 1140.33,-126 1137.33,-122 941.67,-122 941.67,-86 1164.33,-86 1164.33,-122"/>
<text text-anchor="middle" x="1053" y="-99.8" font-family="Times,serif" font-size="14.00">ProductVariantColorSelectorModule</text>
</g>
<!-- ProductVariantsComponentsModule -->
<g id="node6" class="node">
<title>ProductVariantsComponentsModule</title>
<polygon fill="#8dd3c7" stroke="black" points="698.8,-187 695.8,-191 674.8,-191 671.8,-187 477.2,-187 477.2,-151 698.8,-151 698.8,-187"/>
<text text-anchor="middle" x="588" y="-164.8" font-family="Times,serif" font-size="14.00">ProductVariantsComponentsModule</text>
</g>
<!-- ProductVariantColorSelectorModule&#45;&gt;ProductVariantsComponentsModule -->
<g id="edge1" class="edge">
<title>ProductVariantColorSelectorModule&#45;&gt;ProductVariantsComponentsModule</title>
<path fill="none" stroke="black" d="M1053,-122.11C1053,-141.34 1053,-169 1053,-169 1053,-169 708.79,-169 708.79,-169"/>
<polygon fill="black" stroke="black" points="708.79,-165.5 698.79,-169 708.79,-172.5 708.79,-165.5"/>
</g>
<!-- ProductVariantSizeSelectorModule -->
<g id="node2" class="node">
<title>ProductVariantSizeSelectorModule</title>
<polygon fill="#8dd3c7" stroke="black" points="923.55,-122 920.55,-126 899.55,-126 896.55,-122 708.45,-122 708.45,-86 923.55,-86 923.55,-122"/>
<text text-anchor="middle" x="816" y="-99.8" font-family="Times,serif" font-size="14.00">ProductVariantSizeSelectorModule</text>
</g>
<!-- ProductVariantSizeSelectorModule&#45;&gt;ProductVariantsComponentsModule -->
<g id="edge2" class="edge">
<title>ProductVariantSizeSelectorModule&#45;&gt;ProductVariantsComponentsModule</title>
<path fill="none" stroke="black" d="M708.32,-104C699.78,-104 694.37,-104 694.37,-104 694.37,-104 694.37,-140.89 694.37,-140.89"/>
<polygon fill="black" stroke="black" points="690.87,-140.89 694.37,-150.89 697.87,-140.89 690.87,-140.89"/>
</g>
<!-- ProductVariantStyleIconsModule -->
<g id="node3" class="node">
<title>ProductVariantStyleIconsModule</title>
<polygon fill="#8dd3c7" stroke="black" points="690.17,-122 687.17,-126 666.17,-126 663.17,-122 485.83,-122 485.83,-86 690.17,-86 690.17,-122"/>
<text text-anchor="middle" x="588" y="-99.8" font-family="Times,serif" font-size="14.00">ProductVariantStyleIconsModule</text>
</g>
<!-- ProductVariantStyleIconsModule&#45;&gt;ProductVariantsComponentsModule -->
<g id="edge3" class="edge">
<title>ProductVariantStyleIconsModule&#45;&gt;ProductVariantsComponentsModule</title>
<path fill="none" stroke="black" d="M588,-122.11C588,-122.11 588,-140.99 588,-140.99"/>
<polygon fill="black" stroke="black" points="584.5,-140.99 588,-150.99 591.5,-140.99 584.5,-140.99"/>
</g>
<!-- ProductVariantStyleSelectorModule -->
<g id="node4" class="node">
<title>ProductVariantStyleSelectorModule</title>
<polygon fill="#8dd3c7" stroke="black" points="467.72,-122 464.72,-126 443.72,-126 440.72,-122 248.28,-122 248.28,-86 467.72,-86 467.72,-122"/>
<text text-anchor="middle" x="358" y="-99.8" font-family="Times,serif" font-size="14.00">ProductVariantStyleSelectorModule</text>
</g>
<!-- ProductVariantStyleSelectorModule&#45;&gt;ProductVariantsComponentsModule -->
<g id="edge4" class="edge">
<title>ProductVariantStyleSelectorModule&#45;&gt;ProductVariantsComponentsModule</title>
<path fill="none" stroke="black" d="M467.93,-104C476.33,-104 481.63,-104 481.63,-104 481.63,-104 481.63,-140.89 481.63,-140.89"/>
<polygon fill="black" stroke="black" points="478.13,-140.89 481.63,-150.89 485.13,-140.89 478.13,-140.89"/>
</g>
<!-- ProductVariantsContainerModule -->
<g id="node5" class="node">
<title>ProductVariantsContainerModule</title>
<polygon fill="#8dd3c7" stroke="black" points="229.73,-122 226.73,-126 205.73,-126 202.73,-122 24.27,-122 24.27,-86 229.73,-86 229.73,-122"/>
<text text-anchor="middle" x="127" y="-99.8" font-family="Times,serif" font-size="14.00">ProductVariantsContainerModule</text>
</g>
<!-- ProductVariantsContainerModule&#45;&gt;ProductVariantsComponentsModule -->
<g id="edge5" class="edge">
<title>ProductVariantsContainerModule&#45;&gt;ProductVariantsComponentsModule</title>
<path fill="none" stroke="black" d="M127,-122.11C127,-141.34 127,-169 127,-169 127,-169 467.29,-169 467.29,-169"/>
<polygon fill="black" stroke="black" points="467.29,-172.5 477.29,-169 467.29,-165.5 467.29,-172.5"/>
</g>
</g>
</svg>
