<?xml version="1.0" encoding="UTF-8" standalone="no"?>
<!DOCTYPE svg PUBLIC "-//W3C//DTD SVG 1.1//EN"
 "http://www.w3.org/Graphics/SVG/1.1/DTD/svg11.dtd">
<!-- Generated by graphviz version 2.40.1 (20161225.0304)
 -->
<!-- Title: dependencies Pages: 1 -->
<svg width="591pt" height="284pt"
 viewBox="0.00 0.00 591.00 284.00" xmlns="http://www.w3.org/2000/svg" xmlns:xlink="http://www.w3.org/1999/xlink">
<g id="graph0" class="graph" transform="scale(1 1) rotate(0) translate(4 280)">
<title>dependencies</title>
<polygon fill="#ffffff" stroke="transparent" points="-4,4 -4,-280 587,-280 587,4 -4,4"/>
<text text-anchor="start" x="270.5091" y="-42.4" font-family="sans-serif" font-weight="bold" font-size="14.00" fill="#000000">Legend</text>
<polygon fill="#ffffb3" stroke="transparent" points="57.5,-10 57.5,-30 77.5,-30 77.5,-10 57.5,-10"/>
<text text-anchor="start" x="81.129" y="-15.4" font-family="sans-serif" font-size="14.00" fill="#000000"> &#160;Declarations</text>
<polygon fill="#8dd3c7" stroke="transparent" points="170.5,-10 170.5,-30 190.5,-30 190.5,-10 170.5,-10"/>
<text text-anchor="start" x="194.2251" y="-15.4" font-family="sans-serif" font-size="14.00" fill="#000000"> &#160;Module</text>
<polygon fill="#80b1d3" stroke="transparent" points="256.5,-10 256.5,-30 276.5,-30 276.5,-10 256.5,-10"/>
<text text-anchor="start" x="280.2812" y="-15.4" font-family="sans-serif" font-size="14.00" fill="#000000"> &#160;Bootstrap</text>
<polygon fill="#fdb462" stroke="transparent" points="353.5,-10 353.5,-30 373.5,-30 373.5,-10 353.5,-10"/>
<text text-anchor="start" x="377.1732" y="-15.4" font-family="sans-serif" font-size="14.00" fill="#000000"> &#160;Providers</text>
<polygon fill="#fb8072" stroke="transparent" points="449.5,-10 449.5,-30 469.5,-30 469.5,-10 449.5,-10"/>
<text text-anchor="start" x="473.2258" y="-15.4" font-family="sans-serif" font-size="14.00" fill="#000000"> &#160;Exports</text>
<g id="clust1" class="cluster">
<title>cluster_CancelOrderModule</title>
<polygon fill="none" stroke="#000000" stroke-dasharray="1,5" points="8,-70 8,-268 575,-268 575,-70 8,-70"/>
</g>
<g id="clust2" class="cluster">
<title>cluster_CancelOrderModule_declarations</title>
<polygon fill="none" stroke="#000000" points="399,-78 399,-130 567,-130 567,-78 399,-78"/>
</g>
<g id="clust4" class="cluster">
<title>cluster_CancelOrderModule_imports</title>
<polygon fill="none" stroke="#000000" points="16,-78 16,-130 391,-130 391,-78 16,-78"/>
</g>
<g id="clust5" class="cluster">
<title>cluster_CancelOrderModule_exports</title>
<polygon fill="none" stroke="#000000" points="209,-208 209,-260 381,-260 381,-208 209,-208"/>
</g>
<!-- CancelOrderComponent -->
<g id="node1" class="node">
<title>CancelOrderComponent</title>
<polygon fill="#ffffb3" stroke="#000000" points="559.3459,-122 406.6541,-122 406.6541,-86 559.3459,-86 559.3459,-122"/>
<text text-anchor="middle" x="483" y="-99.8" font-family="Times,serif" font-size="14.00" fill="#000000">CancelOrderComponent</text>
</g>
<!-- CancelOrderModule -->
<g id="node2" class="node">
<title>CancelOrderModule</title>
<polygon fill="#8dd3c7" stroke="#000000" points="360.5632,-187 357.5632,-191 336.5632,-191 333.5632,-187 229.4368,-187 229.4368,-151 360.5632,-151 360.5632,-187"/>
<text text-anchor="middle" x="295" y="-164.8" font-family="Times,serif" font-size="14.00" fill="#000000">CancelOrderModule</text>
</g>
<!-- CancelOrderComponent&#45;&gt;CancelOrderModule -->
<g id="edge1" class="edge">
<title>CancelOrderComponent&#45;&gt;CancelOrderModule</title>
<path fill="none" stroke="#000000" d="M483,-122.1061C483,-141.3391 483,-169 483,-169 483,-169 370.7533,-169 370.7533,-169"/>
<polygon fill="#000000" stroke="#000000" points="370.7533,-165.5001 360.7533,-169 370.7532,-172.5001 370.7533,-165.5001"/>
</g>
<!-- CancelOrderComponent  -->
<g id="node5" class="node">
<title>CancelOrderComponent </title>
<polygon fill="#fb8072" stroke="#000000" points="373.3462,-252 216.6538,-252 216.6538,-216 373.3462,-216 373.3462,-252"/>
<text text-anchor="middle" x="295" y="-229.8" font-family="Times,serif" font-size="14.00" fill="#000000">CancelOrderComponent </text>
</g>
<!-- CancelOrderModule&#45;&gt;CancelOrderComponent  -->
<g id="edge4" class="edge">
<title>CancelOrderModule&#45;&gt;CancelOrderComponent </title>
<path fill="none" stroke="#000000" stroke-dasharray="5,2" d="M295,-187.1061C295,-187.1061 295,-205.991 295,-205.991"/>
<polygon fill="#000000" stroke="#000000" points="291.5001,-205.9909 295,-215.991 298.5001,-205.991 291.5001,-205.9909"/>
</g>
<!-- AmendOrderActionsModule -->
<g id="node3" class="node">
<title>AmendOrderActionsModule</title>
<polygon fill="#8dd3c7" stroke="#000000" points="383.451,-122 380.451,-126 359.451,-126 356.451,-122 206.549,-122 206.549,-86 383.451,-86 383.451,-122"/>
<text text-anchor="middle" x="295" y="-99.8" font-family="Times,serif" font-size="14.00" fill="#000000">AmendOrderActionsModule</text>
</g>
<!-- AmendOrderActionsModule&#45;&gt;CancelOrderModule -->
<g id="edge2" class="edge">
<title>AmendOrderActionsModule&#45;&gt;CancelOrderModule</title>
<path fill="none" stroke="#000000" d="M295,-122.1061C295,-122.1061 295,-140.991 295,-140.991"/>
<polygon fill="#000000" stroke="#000000" points="291.5001,-140.9909 295,-150.991 298.5001,-140.991 291.5001,-140.9909"/>
</g>
<!-- AmendOrderItemsModule -->
<g id="node4" class="node">
<title>AmendOrderItemsModule</title>
<polygon fill="#8dd3c7" stroke="#000000" points="188.0057,-122 185.0057,-126 164.0057,-126 161.0057,-122 23.9943,-122 23.9943,-86 188.0057,-86 188.0057,-122"/>
<text text-anchor="middle" x="106" y="-99.8" font-family="Times,serif" font-size="14.00" fill="#000000">AmendOrderItemsModule</text>
</g>
<!-- AmendOrderItemsModule&#45;&gt;CancelOrderModule -->
<g id="edge3" class="edge">
<title>AmendOrderItemsModule&#45;&gt;CancelOrderModule</title>
<path fill="none" stroke="#000000" d="M106,-122.1061C106,-141.3391 106,-169 106,-169 106,-169 219.4274,-169 219.4274,-169"/>
<polygon fill="#000000" stroke="#000000" points="219.4274,-172.5001 229.4274,-169 219.4274,-165.5001 219.4274,-172.5001"/>
</g>
</g>
</svg>
