<?xml version="1.0" encoding="UTF-8" standalone="no"?>
<!DOCTYPE svg PUBLIC "-//W3C//DTD SVG 1.1//EN"
 "http://www.w3.org/Graphics/SVG/1.1/DTD/svg11.dtd">
<!-- Generated by graphviz version 2.47.3 (20210619.1520)
 -->
<!-- Title: dependencies Pages: 1 -->
<svg width="734pt" height="247pt"
 viewBox="0.00 0.00 734.00 246.80" xmlns="http://www.w3.org/2000/svg" xmlns:xlink="http://www.w3.org/1999/xlink">
<g id="graph0" class="graph" transform="scale(1 1) rotate(0) translate(4 242.8)">
<title>dependencies</title>
<polygon fill="white" stroke="transparent" points="-4,4 -4,-242.8 730,-242.8 730,4 -4,4"/>
<text text-anchor="middle" x="363" y="-8.2" font-family="sans-serif" font-size="14.00">dependencies</text>
<g id="clust1" class="cluster">
<title>cluster_CancelOrderModule</title>
<polygon fill="none" stroke="black" stroke-dasharray="1,5" points="8,-32.8 8,-230.8 718,-230.8 718,-32.8 8,-32.8"/>
</g>
<g id="clust2" class="cluster">
<title>cluster_CancelOrderModule_declarations</title>
<polygon fill="none" stroke="black" points="542,-40.8 542,-92.8 710,-92.8 710,-40.8 542,-40.8"/>
</g>
<g id="clust5" class="cluster">
<title>cluster_CancelOrderModule_exports</title>
<polygon fill="none" stroke="black" points="257,-170.8 257,-222.8 429,-222.8 429,-170.8 257,-170.8"/>
</g>
<g id="clust4" class="cluster">
<title>cluster_CancelOrderModule_imports</title>
<polygon fill="none" stroke="black" points="16,-40.8 16,-92.8 534,-92.8 534,-40.8 16,-40.8"/>
</g>
<!-- CancelOrderComponent -->
<g id="node1" class="node">
<title>CancelOrderComponent</title>
<polygon fill="#ffffb3" stroke="black" points="702.35,-84.8 549.65,-84.8 549.65,-48.8 702.35,-48.8 702.35,-84.8"/>
<text text-anchor="middle" x="626" y="-62.6" font-family="Times,serif" font-size="14.00">CancelOrderComponent</text>
</g>
<!-- CancelOrderModule -->
<g id="node2" class="node">
<title>CancelOrderModule</title>
<polygon fill="#8dd3c7" stroke="black" points="408.56,-149.8 405.56,-153.8 384.56,-153.8 381.56,-149.8 277.44,-149.8 277.44,-113.8 408.56,-113.8 408.56,-149.8"/>
<text text-anchor="middle" x="343" y="-127.6" font-family="Times,serif" font-size="14.00">CancelOrderModule</text>
</g>
<!-- CancelOrderComponent&#45;&gt;CancelOrderModule -->
<g id="edge1" class="edge">
<title>CancelOrderComponent&#45;&gt;CancelOrderModule</title>
<path fill="none" stroke="black" d="M626,-84.91C626,-104.14 626,-131.8 626,-131.8 626,-131.8 418.64,-131.8 418.64,-131.8"/>
<polygon fill="black" stroke="black" points="418.64,-128.3 408.64,-131.8 418.64,-135.3 418.64,-128.3"/>
</g>
<!-- CancelOrderComponent  -->
<g id="node6" class="node">
<title>CancelOrderComponent </title>
<polygon fill="#fb8072" stroke="black" points="421.35,-214.8 264.65,-214.8 264.65,-178.8 421.35,-178.8 421.35,-214.8"/>
<text text-anchor="middle" x="343" y="-192.6" font-family="Times,serif" font-size="14.00">CancelOrderComponent </text>
</g>
<!-- CancelOrderModule&#45;&gt;CancelOrderComponent  -->
<g id="edge5" class="edge">
<title>CancelOrderModule&#45;&gt;CancelOrderComponent </title>
<path fill="none" stroke="black" stroke-dasharray="5,2" d="M343,-149.91C343,-149.91 343,-168.79 343,-168.79"/>
<polygon fill="black" stroke="black" points="339.5,-168.79 343,-178.79 346.5,-168.79 339.5,-168.79"/>
</g>
<!-- AmendOrderActionsModule -->
<g id="node3" class="node">
<title>AmendOrderActionsModule</title>
<polygon fill="#8dd3c7" stroke="black" points="526.45,-84.8 523.45,-88.8 502.45,-88.8 499.45,-84.8 349.55,-84.8 349.55,-48.8 526.45,-48.8 526.45,-84.8"/>
<text text-anchor="middle" x="438" y="-62.6" font-family="Times,serif" font-size="14.00">AmendOrderActionsModule</text>
</g>
<!-- AmendOrderActionsModule&#45;&gt;CancelOrderModule -->
<g id="edge2" class="edge">
<title>AmendOrderActionsModule&#45;&gt;CancelOrderModule</title>
<path fill="none" stroke="black" d="M379.03,-84.91C379.03,-84.91 379.03,-103.79 379.03,-103.79"/>
<polygon fill="black" stroke="black" points="375.53,-103.79 379.03,-113.79 382.53,-103.79 375.53,-103.79"/>
</g>
<!-- AmendOrderItemsModule -->
<g id="node4" class="node">
<title>AmendOrderItemsModule</title>
<polygon fill="#8dd3c7" stroke="black" points="331.01,-84.8 328.01,-88.8 307.01,-88.8 304.01,-84.8 166.99,-84.8 166.99,-48.8 331.01,-48.8 331.01,-84.8"/>
<text text-anchor="middle" x="249" y="-62.6" font-family="Times,serif" font-size="14.00">AmendOrderItemsModule</text>
</g>
<!-- AmendOrderItemsModule&#45;&gt;CancelOrderModule -->
<g id="edge3" class="edge">
<title>AmendOrderItemsModule&#45;&gt;CancelOrderModule</title>
<path fill="none" stroke="black" d="M304.36,-84.91C304.36,-84.91 304.36,-103.79 304.36,-103.79"/>
<polygon fill="black" stroke="black" points="300.86,-103.79 304.36,-113.79 307.86,-103.79 300.86,-103.79"/>
</g>
<!-- FormErrorsModule -->
<g id="node5" class="node">
<title>FormErrorsModule</title>
<polygon fill="#8dd3c7" stroke="black" points="148.36,-84.8 145.36,-88.8 124.36,-88.8 121.36,-84.8 23.64,-84.8 23.64,-48.8 148.36,-48.8 148.36,-84.8"/>
<text text-anchor="middle" x="86" y="-62.6" font-family="Times,serif" font-size="14.00">FormErrorsModule</text>
</g>
<!-- FormErrorsModule&#45;&gt;CancelOrderModule -->
<g id="edge4" class="edge">
<title>FormErrorsModule&#45;&gt;CancelOrderModule</title>
<path fill="none" stroke="black" d="M86,-84.91C86,-104.14 86,-131.8 86,-131.8 86,-131.8 267.15,-131.8 267.15,-131.8"/>
<polygon fill="black" stroke="black" points="267.15,-135.3 277.15,-131.8 267.15,-128.3 267.15,-135.3"/>
</g>
</g>
</svg>
