<?xml version="1.0" encoding="UTF-8" standalone="no"?>
<!DOCTYPE svg PUBLIC "-//W3C//DTD SVG 1.1//EN"
 "http://www.w3.org/Graphics/SVG/1.1/DTD/svg11.dtd">
<!-- Generated by graphviz version 2.44.1 (20200629.0846)
 -->
<!-- Title: dependencies Pages: 1 -->
<svg width="734pt" height="284pt"
 viewBox="0.00 0.00 734.00 284.00" xmlns="http://www.w3.org/2000/svg" xmlns:xlink="http://www.w3.org/1999/xlink">
<g id="graph0" class="graph" transform="scale(1 1) rotate(0) translate(4 280)">
<title>dependencies</title>
<polygon fill="white" stroke="transparent" points="-4,4 -4,-280 730,-280 730,4 -4,4"/>
<text text-anchor="start" x="342.01" y="-42.4" font-family="sans-serif" font-weight="bold" font-size="14.00">Legend</text>
<polygon fill="#ffffb3" stroke="transparent" points="129,-10 129,-30 149,-30 149,-10 129,-10"/>
<text text-anchor="start" x="152.63" y="-15.4" font-family="sans-serif" font-size="14.00"> &#160;Declarations</text>
<polygon fill="#8dd3c7" stroke="transparent" points="242,-10 242,-30 262,-30 262,-10 242,-10"/>
<text text-anchor="start" x="265.73" y="-15.4" font-family="sans-serif" font-size="14.00"> &#160;Module</text>
<polygon fill="#80b1d3" stroke="transparent" points="328,-10 328,-30 348,-30 348,-10 328,-10"/>
<text text-anchor="start" x="351.78" y="-15.4" font-family="sans-serif" font-size="14.00"> &#160;Bootstrap</text>
<polygon fill="#fdb462" stroke="transparent" points="425,-10 425,-30 445,-30 445,-10 425,-10"/>
<text text-anchor="start" x="448.67" y="-15.4" font-family="sans-serif" font-size="14.00"> &#160;Providers</text>
<polygon fill="#fb8072" stroke="transparent" points="521,-10 521,-30 541,-30 541,-10 521,-10"/>
<text text-anchor="start" x="544.73" y="-15.4" font-family="sans-serif" font-size="14.00"> &#160;Exports</text>
<g id="clust1" class="cluster">
<title>cluster_CancelOrderModule</title>
<polygon fill="none" stroke="black" stroke-dasharray="1,5" points="8,-70 8,-268 718,-268 718,-70 8,-70"/>
</g>
<g id="clust4" class="cluster">
<title>cluster_CancelOrderModule_imports</title>
<polygon fill="none" stroke="black" points="192,-78 192,-130 710,-130 710,-78 192,-78"/>
</g>
<g id="clust2" class="cluster">
<title>cluster_CancelOrderModule_declarations</title>
<polygon fill="none" stroke="black" points="16,-78 16,-130 184,-130 184,-78 16,-78"/>
</g>
<g id="clust5" class="cluster">
<title>cluster_CancelOrderModule_exports</title>
<polygon fill="none" stroke="black" points="257,-208 257,-260 429,-260 429,-208 257,-208"/>
</g>
<!-- CancelOrderComponent -->
<g id="node1" class="node">
<title>CancelOrderComponent</title>
<polygon fill="#ffffb3" stroke="black" points="176.35,-122 23.65,-122 23.65,-86 176.35,-86 176.35,-122"/>
<text text-anchor="middle" x="100" y="-99.8" font-family="Times,serif" font-size="14.00">CancelOrderComponent</text>
</g>
<!-- CancelOrderModule -->
<g id="node2" class="node">
<title>CancelOrderModule</title>
<polygon fill="#8dd3c7" stroke="black" points="408.56,-187 405.56,-191 384.56,-191 381.56,-187 277.44,-187 277.44,-151 408.56,-151 408.56,-187"/>
<text text-anchor="middle" x="343" y="-164.8" font-family="Times,serif" font-size="14.00">CancelOrderModule</text>
</g>
<!-- CancelOrderComponent&#45;&gt;CancelOrderModule -->
<g id="edge1" class="edge">
<title>CancelOrderComponent&#45;&gt;CancelOrderModule</title>
<path fill="none" stroke="black" d="M100,-122.11C100,-141.34 100,-169 100,-169 100,-169 267.24,-169 267.24,-169"/>
<polygon fill="black" stroke="black" points="267.24,-172.5 277.24,-169 267.24,-165.5 267.24,-172.5"/>
</g>
<!-- CancelOrderComponent  -->
<g id="node6" class="node">
<title>CancelOrderComponent </title>
<polygon fill="#fb8072" stroke="black" points="421.35,-252 264.65,-252 264.65,-216 421.35,-216 421.35,-252"/>
<text text-anchor="middle" x="343" y="-229.8" font-family="Times,serif" font-size="14.00">CancelOrderComponent </text>
</g>
<!-- CancelOrderModule&#45;&gt;CancelOrderComponent  -->
<g id="edge5" class="edge">
<title>CancelOrderModule&#45;&gt;CancelOrderComponent </title>
<path fill="none" stroke="black" stroke-dasharray="5,2" d="M343,-187.11C343,-187.11 343,-205.99 343,-205.99"/>
<polygon fill="black" stroke="black" points="339.5,-205.99 343,-215.99 346.5,-205.99 339.5,-205.99"/>
</g>
<!-- AmendOrderActionsModule -->
<g id="node3" class="node">
<title>AmendOrderActionsModule</title>
<polygon fill="#8dd3c7" stroke="black" points="702.45,-122 699.45,-126 678.45,-126 675.45,-122 525.55,-122 525.55,-86 702.45,-86 702.45,-122"/>
<text text-anchor="middle" x="614" y="-99.8" font-family="Times,serif" font-size="14.00">AmendOrderActionsModule</text>
</g>
<!-- AmendOrderActionsModule&#45;&gt;CancelOrderModule -->
<g id="edge2" class="edge">
<title>AmendOrderActionsModule&#45;&gt;CancelOrderModule</title>
<path fill="none" stroke="black" d="M614,-122.11C614,-141.34 614,-169 614,-169 614,-169 418.6,-169 418.6,-169"/>
<polygon fill="black" stroke="black" points="418.6,-165.5 408.6,-169 418.6,-172.5 418.6,-165.5"/>
</g>
<!-- AmendOrderItemsModule -->
<g id="node4" class="node">
<title>AmendOrderItemsModule</title>
<polygon fill="#8dd3c7" stroke="black" points="507.01,-122 504.01,-126 483.01,-126 480.01,-122 342.99,-122 342.99,-86 507.01,-86 507.01,-122"/>
<text text-anchor="middle" x="425" y="-99.8" font-family="Times,serif" font-size="14.00">AmendOrderItemsModule</text>
</g>
<!-- AmendOrderItemsModule&#45;&gt;CancelOrderModule -->
<g id="edge3" class="edge">
<title>AmendOrderItemsModule&#45;&gt;CancelOrderModule</title>
<path fill="none" stroke="black" d="M375.64,-122.11C375.64,-122.11 375.64,-140.99 375.64,-140.99"/>
<polygon fill="black" stroke="black" points="372.14,-140.99 375.64,-150.99 379.14,-140.99 372.14,-140.99"/>
</g>
<!-- FormErrorsModule -->
<g id="node5" class="node">
<title>FormErrorsModule</title>
<polygon fill="#8dd3c7" stroke="black" points="324.36,-122 321.36,-126 300.36,-126 297.36,-122 199.64,-122 199.64,-86 324.36,-86 324.36,-122"/>
<text text-anchor="middle" x="262" y="-99.8" font-family="Times,serif" font-size="14.00">FormErrorsModule</text>
</g>
<!-- FormErrorsModule&#45;&gt;CancelOrderModule -->
<g id="edge4" class="edge">
<title>FormErrorsModule&#45;&gt;CancelOrderModule</title>
<path fill="none" stroke="black" d="M300.95,-122.11C300.95,-122.11 300.95,-140.99 300.95,-140.99"/>
<polygon fill="black" stroke="black" points="297.45,-140.99 300.95,-150.99 304.45,-140.99 297.45,-140.99"/>
</g>
</g>
</svg>
