<?xml version="1.0" encoding="UTF-8" standalone="no"?>
<!DOCTYPE svg PUBLIC "-//W3C//DTD SVG 1.1//EN"
 "http://www.w3.org/Graphics/SVG/1.1/DTD/svg11.dtd">
<!-- Generated by graphviz version 2.44.1 (20200629.0846)
 -->
<!-- Title: dependencies Pages: 1 -->
<svg width="504pt" height="284pt"
 viewBox="0.00 0.00 504.00 284.00" xmlns="http://www.w3.org/2000/svg" xmlns:xlink="http://www.w3.org/1999/xlink">
<g id="graph0" class="graph" transform="scale(1 1) rotate(0) translate(4 280)">
<title>dependencies</title>
<polygon fill="white" stroke="transparent" points="-4,4 -4,-280 500,-280 500,4 -4,4"/>
<text text-anchor="start" x="227.01" y="-42.4" font-family="sans-serif" font-weight="bold" font-size="14.00">Legend</text>
<polygon fill="#ffffb3" stroke="transparent" points="14,-10 14,-30 34,-30 34,-10 14,-10"/>
<text text-anchor="start" x="37.63" y="-15.4" font-family="sans-serif" font-size="14.00"> &#160;Declarations</text>
<polygon fill="#8dd3c7" stroke="transparent" points="127,-10 127,-30 147,-30 147,-10 127,-10"/>
<text text-anchor="start" x="150.73" y="-15.4" font-family="sans-serif" font-size="14.00"> &#160;Module</text>
<polygon fill="#80b1d3" stroke="transparent" points="213,-10 213,-30 233,-30 233,-10 213,-10"/>
<text text-anchor="start" x="236.78" y="-15.4" font-family="sans-serif" font-size="14.00"> &#160;Bootstrap</text>
<polygon fill="#fdb462" stroke="transparent" points="310,-10 310,-30 330,-30 330,-10 310,-10"/>
<text text-anchor="start" x="333.67" y="-15.4" font-family="sans-serif" font-size="14.00"> &#160;Providers</text>
<polygon fill="#fb8072" stroke="transparent" points="406,-10 406,-30 426,-30 426,-10 406,-10"/>
<text text-anchor="start" x="429.73" y="-15.4" font-family="sans-serif" font-size="14.00"> &#160;Exports</text>
<g id="clust1" class="cluster">
<title>cluster_MiniCartModule</title>
<polygon fill="none" stroke="black" stroke-dasharray="1,5" points="12,-70 12,-268 484,-268 484,-70 12,-70"/>
</g>
<g id="clust5" class="cluster">
<title>cluster_MiniCartModule_exports</title>
<polygon fill="none" stroke="black" points="196,-208 196,-260 348,-260 348,-208 196,-208"/>
</g>
<g id="clust4" class="cluster">
<title>cluster_MiniCartModule_imports</title>
<polygon fill="none" stroke="black" points="176,-78 176,-130 476,-130 476,-78 176,-78"/>
</g>
<g id="clust2" class="cluster">
<title>cluster_MiniCartModule_declarations</title>
<polygon fill="none" stroke="black" points="20,-78 20,-130 168,-130 168,-78 20,-78"/>
</g>
<!-- MiniCartComponent -->
<g id="node1" class="node">
<title>MiniCartComponent</title>
<polygon fill="#ffffb3" stroke="black" points="160.16,-122 27.84,-122 27.84,-86 160.16,-86 160.16,-122"/>
<text text-anchor="middle" x="94" y="-99.8" font-family="Times,serif" font-size="14.00">MiniCartComponent</text>
</g>
<!-- MiniCartModule -->
<g id="node2" class="node">
<title>MiniCartModule</title>
<polygon fill="#8dd3c7" stroke="black" points="327.38,-187 324.38,-191 303.38,-191 300.38,-187 216.62,-187 216.62,-151 327.38,-151 327.38,-187"/>
<text text-anchor="middle" x="272" y="-164.8" font-family="Times,serif" font-size="14.00">MiniCartModule</text>
</g>
<!-- MiniCartComponent&#45;&gt;MiniCartModule -->
<g id="edge1" class="edge">
<title>MiniCartComponent&#45;&gt;MiniCartModule</title>
<path fill="none" stroke="black" d="M94,-122.11C94,-141.34 94,-169 94,-169 94,-169 206.17,-169 206.17,-169"/>
<polygon fill="black" stroke="black" points="206.17,-172.5 216.17,-169 206.17,-165.5 206.17,-172.5"/>
</g>
<!-- MiniCartComponent  -->
<g id="node6" class="node">
<title>MiniCartComponent </title>
<polygon fill="#fb8072" stroke="black" points="340.16,-252 203.84,-252 203.84,-216 340.16,-216 340.16,-252"/>
<text text-anchor="middle" x="272" y="-229.8" font-family="Times,serif" font-size="14.00">MiniCartComponent </text>
</g>
<!-- MiniCartModule&#45;&gt;MiniCartComponent  -->
<g id="edge5" class="edge">
<title>MiniCartModule&#45;&gt;MiniCartComponent </title>
<path fill="none" stroke="black" stroke-dasharray="5,2" d="M272,-187.11C272,-187.11 272,-205.99 272,-205.99"/>
<polygon fill="black" stroke="black" points="268.5,-205.99 272,-215.99 275.5,-205.99 268.5,-205.99"/>
</g>
<!-- I18nModule -->
<g id="node3" class="node">
<title>I18nModule</title>
<polygon fill="#8dd3c7" stroke="black" points="467.71,-122 464.71,-126 443.71,-126 440.71,-122 382.29,-122 382.29,-86 467.71,-86 467.71,-122"/>
<text text-anchor="middle" x="425" y="-99.8" font-family="Times,serif" font-size="14.00">I18nModule</text>
</g>
<!-- I18nModule&#45;&gt;MiniCartModule -->
<g id="edge2" class="edge">
<title>I18nModule&#45;&gt;MiniCartModule</title>
<path fill="none" stroke="black" d="M425,-122.11C425,-141.34 425,-169 425,-169 425,-169 337.67,-169 337.67,-169"/>
<polygon fill="black" stroke="black" points="337.67,-165.5 327.67,-169 337.67,-172.5 337.67,-165.5"/>
</g>
<!-- IconModule -->
<g id="node4" class="node">
<title>IconModule</title>
<polygon fill="#8dd3c7" stroke="black" points="364.43,-122 361.43,-126 340.43,-126 337.43,-122 279.57,-122 279.57,-86 364.43,-86 364.43,-122"/>
<text text-anchor="middle" x="322" y="-99.8" font-family="Times,serif" font-size="14.00">IconModule</text>
</g>
<!-- IconModule&#45;&gt;MiniCartModule -->
<g id="edge3" class="edge">
<title>IconModule&#45;&gt;MiniCartModule</title>
<path fill="none" stroke="black" d="M303.61,-122.11C303.61,-122.11 303.61,-140.99 303.61,-140.99"/>
<polygon fill="black" stroke="black" points="300.11,-140.99 303.61,-150.99 307.11,-140.99 300.11,-140.99"/>
</g>
<!-- UrlModule -->
<g id="node5" class="node">
<title>UrlModule</title>
<polygon fill="#8dd3c7" stroke="black" points="262.21,-122 259.21,-126 238.21,-126 235.21,-122 183.79,-122 183.79,-86 262.21,-86 262.21,-122"/>
<text text-anchor="middle" x="223" y="-99.8" font-family="Times,serif" font-size="14.00">UrlModule</text>
</g>
<!-- UrlModule&#45;&gt;MiniCartModule -->
<g id="edge4" class="edge">
<title>UrlModule&#45;&gt;MiniCartModule</title>
<path fill="none" stroke="black" d="M239.33,-122.11C239.33,-122.11 239.33,-140.99 239.33,-140.99"/>
<polygon fill="black" stroke="black" points="235.83,-140.99 239.33,-150.99 242.83,-140.99 235.83,-140.99"/>
</g>
</g>
</svg>
