<?xml version="1.0" encoding="UTF-8" standalone="no"?>
<!DOCTYPE svg PUBLIC "-//W3C//DTD SVG 1.1//EN"
 "http://www.w3.org/Graphics/SVG/1.1/DTD/svg11.dtd">
<!-- Generated by graphviz version 2.47.3 (20210619.1520)
 -->
<!-- Title: dependencies Pages: 1 -->
<svg width="383pt" height="174pt"
 viewBox="0.00 0.00 383.00 173.80" xmlns="http://www.w3.org/2000/svg" xmlns:xlink="http://www.w3.org/1999/xlink">
<g id="graph0" class="graph" transform="scale(1 1) rotate(0) translate(4 169.8)">
<title>dependencies</title>
<polygon fill="white" stroke="transparent" points="-4,4 -4,-169.8 379,-169.8 379,4 -4,4"/>
<text text-anchor="middle" x="187.5" y="-8.2" font-family="sans-serif" font-size="14.00">dependencies</text>
<g id="clust1" class="cluster">
<title>cluster_BulkPricingModule</title>
<polygon fill="none" stroke="black" stroke-dasharray="1,5" points="8,-32.8 8,-157.8 367,-157.8 367,-32.8 8,-32.8"/>
</g>
<g id="clust3" class="cluster">
<title>cluster_BulkPricingModule_imports</title>
<polygon fill="none" stroke="black" points="16,-40.8 16,-92.8 359,-92.8 359,-40.8 16,-40.8"/>
</g>
<!-- BulkPricingOccModule -->
<g id="node1" class="node">
<title>BulkPricingOccModule</title>
<polygon fill="#8dd3c7" stroke="black" points="350.75,-84.8 347.75,-88.8 326.75,-88.8 323.75,-84.8 201.25,-84.8 201.25,-48.8 350.75,-48.8 350.75,-84.8"/>
<text text-anchor="middle" x="276" y="-62.6" font-family="Times,serif" font-size="14.00">BulkPricingOccModule</text>
</g>
<!-- BulkPricingModule -->
<g id="node3" class="node">
<title>BulkPricingModule</title>
<polygon fill="#8dd3c7" stroke="black" points="253.72,-149.8 250.72,-153.8 229.72,-153.8 226.72,-149.8 126.28,-149.8 126.28,-113.8 253.72,-113.8 253.72,-149.8"/>
<text text-anchor="middle" x="190" y="-127.6" font-family="Times,serif" font-size="14.00">BulkPricingModule</text>
</g>
<!-- BulkPricingOccModule&#45;&gt;BulkPricingModule -->
<g id="edge1" class="edge">
<title>BulkPricingOccModule&#45;&gt;BulkPricingModule</title>
<path fill="none" stroke="black" d="M227.37,-84.91C227.37,-84.91 227.37,-103.79 227.37,-103.79"/>
<polygon fill="black" stroke="black" points="223.87,-103.79 227.37,-113.79 230.87,-103.79 223.87,-103.79"/>
</g>
<!-- BulkPricingTableModule -->
<g id="node2" class="node">
<title>BulkPricingTableModule</title>
<polygon fill="#8dd3c7" stroke="black" points="183.59,-84.8 180.59,-88.8 159.59,-88.8 156.59,-84.8 24.41,-84.8 24.41,-48.8 183.59,-48.8 183.59,-84.8"/>
<text text-anchor="middle" x="104" y="-62.6" font-family="Times,serif" font-size="14.00">BulkPricingTableModule</text>
</g>
<!-- BulkPricingTableModule&#45;&gt;BulkPricingModule -->
<g id="edge2" class="edge">
<title>BulkPricingTableModule&#45;&gt;BulkPricingModule</title>
<path fill="none" stroke="black" d="M154.97,-84.91C154.97,-84.91 154.97,-103.79 154.97,-103.79"/>
<polygon fill="black" stroke="black" points="151.47,-103.79 154.97,-113.79 158.47,-103.79 151.47,-103.79"/>
</g>
</g>
</svg>
