<?xml version="1.0" encoding="UTF-8" standalone="no"?>
<!DOCTYPE svg PUBLIC "-//W3C//DTD SVG 1.1//EN"
 "http://www.w3.org/Graphics/SVG/1.1/DTD/svg11.dtd">
<!-- Generated by graphviz version 2.47.3 (20210619.1520)
 -->
<!-- Title: dependencies Pages: 1 -->
<svg width="1290pt" height="174pt"
 viewBox="0.00 0.00 1290.00 173.80" xmlns="http://www.w3.org/2000/svg" xmlns:xlink="http://www.w3.org/1999/xlink">
<g id="graph0" class="graph" transform="scale(1 1) rotate(0) translate(4 169.8)">
<title>dependencies</title>
<polygon fill="white" stroke="transparent" points="-4,4 -4,-169.8 1286,-169.8 1286,4 -4,4"/>
<text text-anchor="middle" x="641" y="-8.2" font-family="sans-serif" font-size="14.00">dependencies</text>
<g id="clust1" class="cluster">
<title>cluster_OrderCoreModule</title>
<polygon fill="none" stroke="black" stroke-dasharray="1,5" points="8,-32.8 8,-157.8 1274,-157.8 1274,-32.8 8,-32.8"/>
</g>
<g id="clust3" class="cluster">
<title>cluster_OrderCoreModule_imports</title>
<polygon fill="none" stroke="black" points="1128,-40.8 1128,-92.8 1266,-92.8 1266,-40.8 1128,-40.8"/>
</g>
<g id="clust6" class="cluster">
<title>cluster_OrderCoreModule_providers</title>
<polygon fill="none" stroke="black" points="16,-40.8 16,-92.8 1120,-92.8 1120,-40.8 16,-40.8"/>
</g>
<!-- OrderStoreModule -->
<g id="node1" class="node">
<title>OrderStoreModule</title>
<polygon fill="#8dd3c7" stroke="black" points="1257.74,-84.8 1254.74,-88.8 1233.74,-88.8 1230.74,-84.8 1136.26,-84.8 1136.26,-48.8 1257.74,-48.8 1257.74,-84.8"/>
<text text-anchor="middle" x="1197" y="-62.6" font-family="Times,serif" font-size="14.00">OrderStoreModule</text>
</g>
<!-- OrderCoreModule -->
<g id="node2" class="node">
<title>OrderCoreModule</title>
<polygon fill="#8dd3c7" stroke="black" points="785.9,-149.8 782.9,-153.8 761.9,-153.8 758.9,-149.8 666.1,-149.8 666.1,-113.8 785.9,-113.8 785.9,-149.8"/>
<text text-anchor="middle" x="726" y="-127.6" font-family="Times,serif" font-size="14.00">OrderCoreModule</text>
</g>
<!-- OrderStoreModule&#45;&gt;OrderCoreModule -->
<g id="edge1" class="edge">
<title>OrderStoreModule&#45;&gt;OrderCoreModule</title>
<path fill="none" stroke="black" d="M1197,-85.08C1197,-106.12 1197,-137.8 1197,-137.8 1197,-137.8 796.13,-137.8 796.13,-137.8"/>
<polygon fill="black" stroke="black" points="796.13,-134.3 786.13,-137.8 796.13,-141.3 796.13,-134.3"/>
</g>
<!-- OrderConnector -->
<g id="node3" class="node">
<title>OrderConnector</title>
<ellipse fill="#fdb462" stroke="black" cx="1038" cy="-66.8" rx="73.56" ry="18"/>
<text text-anchor="middle" x="1038" y="-62.6" font-family="Times,serif" font-size="14.00">OrderConnector</text>
</g>
<!-- OrderConnector&#45;&gt;OrderCoreModule -->
<g id="edge2" class="edge">
<title>OrderConnector&#45;&gt;OrderCoreModule</title>
<path fill="none" stroke="black" d="M1038,-84.82C1038,-102.17 1038,-125.8 1038,-125.8 1038,-125.8 795.79,-125.8 795.79,-125.8"/>
<polygon fill="black" stroke="black" points="795.79,-122.3 785.79,-125.8 795.79,-129.3 795.79,-122.3"/>
</g>
<!-- OrderReturnRequestService -->
<g id="node4" class="node">
<title>OrderReturnRequestService</title>
<ellipse fill="#fdb462" stroke="black" cx="826" cy="-66.8" rx="119.8" ry="18"/>
<text text-anchor="middle" x="826" y="-62.6" font-family="Times,serif" font-size="14.00">OrderReturnRequestService</text>
</g>
<!-- OrderReturnRequestService&#45;&gt;OrderCoreModule -->
<g id="edge3" class="edge">
<title>OrderReturnRequestService&#45;&gt;OrderCoreModule</title>
<path fill="none" stroke="black" d="M745.9,-80.27C745.9,-80.27 745.9,-103.66 745.9,-103.66"/>
<polygon fill="black" stroke="black" points="742.4,-103.66 745.9,-113.66 749.4,-103.66 742.4,-103.66"/>
</g>
<!-- OrderService -->
<g id="node5" class="node">
<title>OrderService</title>
<ellipse fill="#fdb462" stroke="black" cx="626" cy="-66.8" rx="62.52" ry="18"/>
<text text-anchor="middle" x="626" y="-62.6" font-family="Times,serif" font-size="14.00">OrderService</text>
</g>
<!-- OrderService&#45;&gt;OrderCoreModule -->
<g id="edge4" class="edge">
<title>OrderService&#45;&gt;OrderCoreModule</title>
<path fill="none" stroke="black" d="M677.4,-77.24C677.4,-77.24 677.4,-103.77 677.4,-103.77"/>
<polygon fill="black" stroke="black" points="673.9,-103.77 677.4,-113.77 680.9,-103.77 673.9,-103.77"/>
</g>
<!-- ReplenishmentOrderConnector -->
<g id="node6" class="node">
<title>ReplenishmentOrderConnector</title>
<ellipse fill="#fdb462" stroke="black" cx="414" cy="-66.8" rx="131.92" ry="18"/>
<text text-anchor="middle" x="414" y="-62.6" font-family="Times,serif" font-size="14.00">ReplenishmentOrderConnector</text>
</g>
<!-- ReplenishmentOrderConnector&#45;&gt;OrderCoreModule -->
<g id="edge5" class="edge">
<title>ReplenishmentOrderConnector&#45;&gt;OrderCoreModule</title>
<path fill="none" stroke="black" d="M414,-84.82C414,-102.17 414,-125.8 414,-125.8 414,-125.8 656.21,-125.8 656.21,-125.8"/>
<polygon fill="black" stroke="black" points="656.21,-129.3 666.21,-125.8 656.21,-122.3 656.21,-129.3"/>
</g>
<!-- ReplenishmentOrderService -->
<g id="node7" class="node">
<title>ReplenishmentOrderService</title>
<ellipse fill="#fdb462" stroke="black" cx="144" cy="-66.8" rx="120.38" ry="18"/>
<text text-anchor="middle" x="144" y="-62.6" font-family="Times,serif" font-size="14.00">ReplenishmentOrderService</text>
</g>
<!-- ReplenishmentOrderService&#45;&gt;OrderCoreModule -->
<g id="edge6" class="edge">
<title>ReplenishmentOrderService&#45;&gt;OrderCoreModule</title>
<path fill="none" stroke="black" d="M144,-85.08C144,-106.12 144,-137.8 144,-137.8 144,-137.8 656.18,-137.8 656.18,-137.8"/>
<polygon fill="black" stroke="black" points="656.18,-141.3 666.18,-137.8 656.18,-134.3 656.18,-141.3"/>
</g>
</g>
</svg>
