<?xml version="1.0" encoding="UTF-8" standalone="no"?>
<!DOCTYPE svg PUBLIC "-//W3C//DTD SVG 1.1//EN"
 "http://www.w3.org/Graphics/SVG/1.1/DTD/svg11.dtd">
<!-- Generated by graphviz version 2.47.0 (20210316.0004)
 -->
<!-- Title: dependencies Pages: 1 -->
<svg width="660pt" height="284pt"
 viewBox="0.00 0.00 660.00 284.00" xmlns="http://www.w3.org/2000/svg" xmlns:xlink="http://www.w3.org/1999/xlink">
<g id="graph0" class="graph" transform="scale(1 1) rotate(0) translate(4 280)">
<title>dependencies</title>
<polygon fill="white" stroke="transparent" points="-4,4 -4,-280 656,-280 656,4 -4,4"/>
<text text-anchor="start" x="305.01" y="-42.4" font-family="sans-serif" font-weight="bold" font-size="14.00">Legend</text>
<polygon fill="#ffffb3" stroke="transparent" points="92,-10 92,-30 112,-30 112,-10 92,-10"/>
<text text-anchor="start" x="115.63" y="-15.4" font-family="sans-serif" font-size="14.00"> &#160;Declarations</text>
<polygon fill="#8dd3c7" stroke="transparent" points="205,-10 205,-30 225,-30 225,-10 205,-10"/>
<text text-anchor="start" x="228.73" y="-15.4" font-family="sans-serif" font-size="14.00"> &#160;Module</text>
<polygon fill="#80b1d3" stroke="transparent" points="291,-10 291,-30 311,-30 311,-10 291,-10"/>
<text text-anchor="start" x="314.78" y="-15.4" font-family="sans-serif" font-size="14.00"> &#160;Bootstrap</text>
<polygon fill="#fdb462" stroke="transparent" points="388,-10 388,-30 408,-30 408,-10 388,-10"/>
<text text-anchor="start" x="411.67" y="-15.4" font-family="sans-serif" font-size="14.00"> &#160;Providers</text>
<polygon fill="#fb8072" stroke="transparent" points="484,-10 484,-30 504,-30 504,-10 484,-10"/>
<text text-anchor="start" x="507.73" y="-15.4" font-family="sans-serif" font-size="14.00"> &#160;Exports</text>
<g id="clust1" class="cluster">
<title>cluster_ConfiguratorAttributeSingleSelectionImageModule</title>
<polygon fill="none" stroke="black" stroke-dasharray="1,5" points="8,-70 8,-268 644,-268 644,-70 8,-70"/>
</g>
<g id="clust2" class="cluster">
<title>cluster_ConfiguratorAttributeSingleSelectionImageModule_declarations</title>
<polygon fill="none" stroke="black" points="292,-78 292,-130 636,-130 636,-78 292,-78"/>
</g>
<g id="clust4" class="cluster">
<title>cluster_ConfiguratorAttributeSingleSelectionImageModule_imports</title>
<polygon fill="none" stroke="black" points="16,-78 16,-130 284,-130 284,-78 16,-78"/>
</g>
<g id="clust5" class="cluster">
<title>cluster_ConfiguratorAttributeSingleSelectionImageModule_exports</title>
<polygon fill="none" stroke="black" points="60,-208 60,-260 406,-260 406,-208 60,-208"/>
</g>
<!-- ConfiguratorAttributeSingleSelectionImageComponent -->
<g id="node1" class="node">
<title>ConfiguratorAttributeSingleSelectionImageComponent</title>
<polygon fill="#ffffb3" stroke="black" points="627.55,-122 300.45,-122 300.45,-86 627.55,-86 627.55,-122"/>
<text text-anchor="middle" x="464" y="-99.8" font-family="Times,serif" font-size="14.00">ConfiguratorAttributeSingleSelectionImageComponent</text>
</g>
<!-- ConfiguratorAttributeSingleSelectionImageModule -->
<g id="node2" class="node">
<title>ConfiguratorAttributeSingleSelectionImageModule</title>
<polygon fill="#8dd3c7" stroke="black" points="385.77,-187 382.77,-191 361.77,-191 358.77,-187 80.23,-187 80.23,-151 385.77,-151 385.77,-187"/>
<text text-anchor="middle" x="233" y="-164.8" font-family="Times,serif" font-size="14.00">ConfiguratorAttributeSingleSelectionImageModule</text>
</g>
<!-- ConfiguratorAttributeSingleSelectionImageComponent&#45;&gt;ConfiguratorAttributeSingleSelectionImageModule -->
<g id="edge1" class="edge">
<title>ConfiguratorAttributeSingleSelectionImageComponent&#45;&gt;ConfiguratorAttributeSingleSelectionImageModule</title>
<path fill="none" stroke="black" d="M343.05,-122.11C343.05,-122.11 343.05,-140.99 343.05,-140.99"/>
<polygon fill="black" stroke="black" points="339.55,-140.99 343.05,-150.99 346.55,-140.99 339.55,-140.99"/>
</g>
<!-- ConfiguratorAttributeSingleSelectionImageComponent  -->
<g id="node5" class="node">
<title>ConfiguratorAttributeSingleSelectionImageComponent </title>
<polygon fill="#fb8072" stroke="black" points="398.05,-252 67.95,-252 67.95,-216 398.05,-216 398.05,-252"/>
<text text-anchor="middle" x="233" y="-229.8" font-family="Times,serif" font-size="14.00">ConfiguratorAttributeSingleSelectionImageComponent </text>
</g>
<!-- ConfiguratorAttributeSingleSelectionImageModule&#45;&gt;ConfiguratorAttributeSingleSelectionImageComponent  -->
<g id="edge4" class="edge">
<title>ConfiguratorAttributeSingleSelectionImageModule&#45;&gt;ConfiguratorAttributeSingleSelectionImageComponent </title>
<path fill="none" stroke="black" stroke-dasharray="5,2" d="M233,-187.11C233,-187.11 233,-205.99 233,-205.99"/>
<polygon fill="black" stroke="black" points="229.5,-205.99 233,-215.99 236.5,-205.99 229.5,-205.99"/>
</g>
<!-- I18nModule -->
<g id="node3" class="node">
<title>I18nModule</title>
<polygon fill="#8dd3c7" stroke="black" points="275.71,-122 272.71,-126 251.71,-126 248.71,-122 190.29,-122 190.29,-86 275.71,-86 275.71,-122"/>
<text text-anchor="middle" x="233" y="-99.8" font-family="Times,serif" font-size="14.00">I18nModule</text>
</g>
<!-- I18nModule&#45;&gt;ConfiguratorAttributeSingleSelectionImageModule -->
<g id="edge2" class="edge">
<title>I18nModule&#45;&gt;ConfiguratorAttributeSingleSelectionImageModule</title>
<path fill="none" stroke="black" d="M233,-122.11C233,-122.11 233,-140.99 233,-140.99"/>
<polygon fill="black" stroke="black" points="229.5,-140.99 233,-150.99 236.5,-140.99 229.5,-140.99"/>
</g>
<!-- KeyboardFocusModule -->
<g id="node4" class="node">
<title>KeyboardFocusModule</title>
<polygon fill="#8dd3c7" stroke="black" points="172.19,-122 169.19,-126 148.19,-126 145.19,-122 23.81,-122 23.81,-86 172.19,-86 172.19,-122"/>
<text text-anchor="middle" x="98" y="-99.8" font-family="Times,serif" font-size="14.00">KeyboardFocusModule</text>
</g>
<!-- KeyboardFocusModule&#45;&gt;ConfiguratorAttributeSingleSelectionImageModule -->
<g id="edge3" class="edge">
<title>KeyboardFocusModule&#45;&gt;ConfiguratorAttributeSingleSelectionImageModule</title>
<path fill="none" stroke="black" d="M126.23,-122.11C126.23,-122.11 126.23,-140.99 126.23,-140.99"/>
<polygon fill="black" stroke="black" points="122.73,-140.99 126.23,-150.99 129.73,-140.99 122.73,-140.99"/>
</g>
</g>
</svg>
