<?xml version="1.0" encoding="UTF-8" standalone="no"?>
<!DOCTYPE svg PUBLIC "-//W3C//DTD SVG 1.1//EN"
 "http://www.w3.org/Graphics/SVG/1.1/DTD/svg11.dtd">
<!-- Generated by graphviz version 2.40.1 (20161225.0304)
 -->
<!-- Title: dependencies Pages: 1 -->
<svg width="660pt" height="284pt"
 viewBox="0.00 0.00 660.00 284.00" xmlns="http://www.w3.org/2000/svg" xmlns:xlink="http://www.w3.org/1999/xlink">
<g id="graph0" class="graph" transform="scale(1 1) rotate(0) translate(4 280)">
<title>dependencies</title>
<polygon fill="#ffffff" stroke="transparent" points="-4,4 -4,-280 656,-280 656,4 -4,4"/>
<text text-anchor="start" x="305.0091" y="-42.4" font-family="sans-serif" font-weight="bold" font-size="14.00" fill="#000000">Legend</text>
<polygon fill="#ffffb3" stroke="transparent" points="92,-10 92,-30 112,-30 112,-10 92,-10"/>
<text text-anchor="start" x="115.629" y="-15.4" font-family="sans-serif" font-size="14.00" fill="#000000"> &#160;Declarations</text>
<polygon fill="#8dd3c7" stroke="transparent" points="205,-10 205,-30 225,-30 225,-10 205,-10"/>
<text text-anchor="start" x="228.7251" y="-15.4" font-family="sans-serif" font-size="14.00" fill="#000000"> &#160;Module</text>
<polygon fill="#80b1d3" stroke="transparent" points="291,-10 291,-30 311,-30 311,-10 291,-10"/>
<text text-anchor="start" x="314.7812" y="-15.4" font-family="sans-serif" font-size="14.00" fill="#000000"> &#160;Bootstrap</text>
<polygon fill="#fdb462" stroke="transparent" points="388,-10 388,-30 408,-30 408,-10 388,-10"/>
<text text-anchor="start" x="411.6732" y="-15.4" font-family="sans-serif" font-size="14.00" fill="#000000"> &#160;Providers</text>
<polygon fill="#fb8072" stroke="transparent" points="484,-10 484,-30 504,-30 504,-10 484,-10"/>
<text text-anchor="start" x="507.7258" y="-15.4" font-family="sans-serif" font-size="14.00" fill="#000000"> &#160;Exports</text>
<g id="clust1" class="cluster">
<title>cluster_ConfiguratorAttributeSingleSelectionImageModule</title>
<polygon fill="none" stroke="#000000" stroke-dasharray="1,5" points="8,-70 8,-268 644,-268 644,-70 8,-70"/>
</g>
<g id="clust2" class="cluster">
<title>cluster_ConfiguratorAttributeSingleSelectionImageModule_declarations</title>
<polygon fill="none" stroke="#000000" points="292,-78 292,-130 636,-130 636,-78 292,-78"/>
</g>
<g id="clust4" class="cluster">
<title>cluster_ConfiguratorAttributeSingleSelectionImageModule_imports</title>
<polygon fill="none" stroke="#000000" points="16,-78 16,-130 284,-130 284,-78 16,-78"/>
</g>
<g id="clust5" class="cluster">
<title>cluster_ConfiguratorAttributeSingleSelectionImageModule_exports</title>
<polygon fill="none" stroke="#000000" points="60,-208 60,-260 406,-260 406,-208 60,-208"/>
</g>
<!-- ConfiguratorAttributeSingleSelectionImageComponent -->
<g id="node1" class="node">
<title>ConfiguratorAttributeSingleSelectionImageComponent</title>
<polygon fill="#ffffb3" stroke="#000000" points="627.5478,-122 300.4522,-122 300.4522,-86 627.5478,-86 627.5478,-122"/>
<text text-anchor="middle" x="464" y="-99.8" font-family="Times,serif" font-size="14.00" fill="#000000">ConfiguratorAttributeSingleSelectionImageComponent</text>
</g>
<!-- ConfiguratorAttributeSingleSelectionImageModule -->
<g id="node2" class="node">
<title>ConfiguratorAttributeSingleSelectionImageModule</title>
<polygon fill="#8dd3c7" stroke="#000000" points="385.7653,-187 382.7653,-191 361.7653,-191 358.7653,-187 80.2347,-187 80.2347,-151 385.7653,-151 385.7653,-187"/>
<text text-anchor="middle" x="233" y="-164.8" font-family="Times,serif" font-size="14.00" fill="#000000">ConfiguratorAttributeSingleSelectionImageModule</text>
</g>
<!-- ConfiguratorAttributeSingleSelectionImageComponent&#45;&gt;ConfiguratorAttributeSingleSelectionImageModule -->
<g id="edge1" class="edge">
<title>ConfiguratorAttributeSingleSelectionImageComponent&#45;&gt;ConfiguratorAttributeSingleSelectionImageModule</title>
<path fill="none" stroke="#000000" d="M343.0544,-122.1061C343.0544,-122.1061 343.0544,-140.991 343.0544,-140.991"/>
<polygon fill="#000000" stroke="#000000" points="339.5544,-140.9909 343.0544,-150.991 346.5544,-140.991 339.5544,-140.9909"/>
</g>
<!-- ConfiguratorAttributeSingleSelectionImageComponent  -->
<g id="node5" class="node">
<title>ConfiguratorAttributeSingleSelectionImageComponent </title>
<polygon fill="#fb8072" stroke="#000000" points="398.0481,-252 67.9519,-252 67.9519,-216 398.0481,-216 398.0481,-252"/>
<text text-anchor="middle" x="233" y="-229.8" font-family="Times,serif" font-size="14.00" fill="#000000">ConfiguratorAttributeSingleSelectionImageComponent </text>
</g>
<!-- ConfiguratorAttributeSingleSelectionImageModule&#45;&gt;ConfiguratorAttributeSingleSelectionImageComponent  -->
<g id="edge4" class="edge">
<title>ConfiguratorAttributeSingleSelectionImageModule&#45;&gt;ConfiguratorAttributeSingleSelectionImageComponent </title>
<path fill="none" stroke="#000000" stroke-dasharray="5,2" d="M233,-187.1061C233,-187.1061 233,-205.991 233,-205.991"/>
<polygon fill="#000000" stroke="#000000" points="229.5001,-205.9909 233,-215.991 236.5001,-205.991 229.5001,-205.9909"/>
</g>
<!-- I18nModule -->
<g id="node3" class="node">
<title>I18nModule</title>
<polygon fill="#8dd3c7" stroke="#000000" points="275.7107,-122 272.7107,-126 251.7107,-126 248.7107,-122 190.2893,-122 190.2893,-86 275.7107,-86 275.7107,-122"/>
<text text-anchor="middle" x="233" y="-99.8" font-family="Times,serif" font-size="14.00" fill="#000000">I18nModule</text>
</g>
<!-- I18nModule&#45;&gt;ConfiguratorAttributeSingleSelectionImageModule -->
<g id="edge2" class="edge">
<title>I18nModule&#45;&gt;ConfiguratorAttributeSingleSelectionImageModule</title>
<path fill="none" stroke="#000000" d="M233,-122.1061C233,-122.1061 233,-140.991 233,-140.991"/>
<polygon fill="#000000" stroke="#000000" points="229.5001,-140.9909 233,-150.991 236.5001,-140.991 229.5001,-140.9909"/>
</g>
<!-- KeyboardFocusModule -->
<g id="node4" class="node">
<title>KeyboardFocusModule</title>
<polygon fill="#8dd3c7" stroke="#000000" points="172.1881,-122 169.1881,-126 148.1881,-126 145.1881,-122 23.8119,-122 23.8119,-86 172.1881,-86 172.1881,-122"/>
<text text-anchor="middle" x="98" y="-99.8" font-family="Times,serif" font-size="14.00" fill="#000000">KeyboardFocusModule</text>
</g>
<!-- KeyboardFocusModule&#45;&gt;ConfiguratorAttributeSingleSelectionImageModule -->
<g id="edge3" class="edge">
<title>KeyboardFocusModule&#45;&gt;ConfiguratorAttributeSingleSelectionImageModule</title>
<path fill="none" stroke="#000000" d="M126.2307,-122.1061C126.2307,-122.1061 126.2307,-140.991 126.2307,-140.991"/>
<polygon fill="#000000" stroke="#000000" points="122.7308,-140.9909 126.2307,-150.991 129.7308,-140.991 122.7308,-140.9909"/>
</g>
</g>
</svg>
