<?xml version="1.0" encoding="UTF-8" standalone="no"?>
<!DOCTYPE svg PUBLIC "-//W3C//DTD SVG 1.1//EN"
 "http://www.w3.org/Graphics/SVG/1.1/DTD/svg11.dtd">
<!-- Generated by graphviz version 2.47.3 (20210619.1520)
 -->
<!-- Title: dependencies Pages: 1 -->
<svg width="838pt" height="247pt"
 viewBox="0.00 0.00 838.00 246.80" xmlns="http://www.w3.org/2000/svg" xmlns:xlink="http://www.w3.org/1999/xlink">
<g id="graph0" class="graph" transform="scale(1 1) rotate(0) translate(4 242.8)">
<title>dependencies</title>
<polygon fill="white" stroke="transparent" points="-4,4 -4,-242.8 834,-242.8 834,4 -4,4"/>
<text text-anchor="middle" x="415" y="-8.2" font-family="sans-serif" font-size="14.00">dependencies</text>
<g id="clust1" class="cluster">
<title>cluster_ConfiguratorAttributeSingleSelectionImageModule</title>
<polygon fill="none" stroke="black" stroke-dasharray="1,5" points="8,-32.8 8,-230.8 822,-230.8 822,-32.8 8,-32.8"/>
</g>
<g id="clust2" class="cluster">
<title>cluster_ConfiguratorAttributeSingleSelectionImageModule_declarations</title>
<polygon fill="none" stroke="black" points="470,-40.8 470,-92.8 814,-92.8 814,-40.8 470,-40.8"/>
</g>
<g id="clust4" class="cluster">
<title>cluster_ConfiguratorAttributeSingleSelectionImageModule_imports</title>
<polygon fill="none" stroke="black" points="16,-40.8 16,-92.8 462,-92.8 462,-40.8 16,-40.8"/>
</g>
<g id="clust5" class="cluster">
<title>cluster_ConfiguratorAttributeSingleSelectionImageModule_exports</title>
<polygon fill="none" stroke="black" points="130,-170.8 130,-222.8 476,-222.8 476,-170.8 130,-170.8"/>
</g>
<!-- ConfiguratorAttributeSingleSelectionImageComponent -->
<g id="node1" class="node">
<title>ConfiguratorAttributeSingleSelectionImageComponent</title>
<polygon fill="#ffffb3" stroke="black" points="805.55,-84.8 478.45,-84.8 478.45,-48.8 805.55,-48.8 805.55,-84.8"/>
<text text-anchor="middle" x="642" y="-62.6" font-family="Times,serif" font-size="14.00">ConfiguratorAttributeSingleSelectionImageComponent</text>
</g>
<!-- ConfiguratorAttributeSingleSelectionImageModule -->
<g id="node2" class="node">
<title>ConfiguratorAttributeSingleSelectionImageModule</title>
<polygon fill="#8dd3c7" stroke="black" points="455.77,-149.8 452.77,-153.8 431.77,-153.8 428.77,-149.8 150.23,-149.8 150.23,-113.8 455.77,-113.8 455.77,-149.8"/>
<text text-anchor="middle" x="303" y="-127.6" font-family="Times,serif" font-size="14.00">ConfiguratorAttributeSingleSelectionImageModule</text>
</g>
<!-- ConfiguratorAttributeSingleSelectionImageComponent&#45;&gt;ConfiguratorAttributeSingleSelectionImageModule -->
<g id="edge1" class="edge">
<title>ConfiguratorAttributeSingleSelectionImageComponent&#45;&gt;ConfiguratorAttributeSingleSelectionImageModule</title>
<path fill="none" stroke="black" d="M642,-84.91C642,-104.14 642,-131.8 642,-131.8 642,-131.8 465.64,-131.8 465.64,-131.8"/>
<polygon fill="black" stroke="black" points="465.64,-128.3 455.64,-131.8 465.64,-135.3 465.64,-128.3"/>
</g>
<!-- ConfiguratorAttributeSingleSelectionImageComponent  -->
<g id="node6" class="node">
<title>ConfiguratorAttributeSingleSelectionImageComponent </title>
<polygon fill="#fb8072" stroke="black" points="468.05,-214.8 137.95,-214.8 137.95,-178.8 468.05,-178.8 468.05,-214.8"/>
<text text-anchor="middle" x="303" y="-192.6" font-family="Times,serif" font-size="14.00">ConfiguratorAttributeSingleSelectionImageComponent </text>
</g>
<!-- ConfiguratorAttributeSingleSelectionImageModule&#45;&gt;ConfiguratorAttributeSingleSelectionImageComponent  -->
<g id="edge5" class="edge">
<title>ConfiguratorAttributeSingleSelectionImageModule&#45;&gt;ConfiguratorAttributeSingleSelectionImageComponent </title>
<path fill="none" stroke="black" stroke-dasharray="5,2" d="M303,-149.91C303,-149.91 303,-168.79 303,-168.79"/>
<polygon fill="black" stroke="black" points="299.5,-168.79 303,-178.79 306.5,-168.79 299.5,-168.79"/>
</g>
<!-- ConfiguratorPriceModule -->
<g id="node3" class="node">
<title>ConfiguratorPriceModule</title>
<polygon fill="#8dd3c7" stroke="black" points="454.13,-84.8 451.13,-88.8 430.13,-88.8 427.13,-84.8 293.87,-84.8 293.87,-48.8 454.13,-48.8 454.13,-84.8"/>
<text text-anchor="middle" x="374" y="-62.6" font-family="Times,serif" font-size="14.00">ConfiguratorPriceModule</text>
</g>
<!-- ConfiguratorPriceModule&#45;&gt;ConfiguratorAttributeSingleSelectionImageModule -->
<g id="edge2" class="edge">
<title>ConfiguratorPriceModule&#45;&gt;ConfiguratorAttributeSingleSelectionImageModule</title>
<path fill="none" stroke="black" d="M374,-84.91C374,-84.91 374,-103.79 374,-103.79"/>
<polygon fill="black" stroke="black" points="370.5,-103.79 374,-113.79 377.5,-103.79 370.5,-103.79"/>
</g>
<!-- I18nModule -->
<g id="node4" class="node">
<title>I18nModule</title>
<polygon fill="#8dd3c7" stroke="black" points="275.71,-84.8 272.71,-88.8 251.71,-88.8 248.71,-84.8 190.29,-84.8 190.29,-48.8 275.71,-48.8 275.71,-84.8"/>
<text text-anchor="middle" x="233" y="-62.6" font-family="Times,serif" font-size="14.00">I18nModule</text>
</g>
<!-- I18nModule&#45;&gt;ConfiguratorAttributeSingleSelectionImageModule -->
<g id="edge3" class="edge">
<title>I18nModule&#45;&gt;ConfiguratorAttributeSingleSelectionImageModule</title>
<path fill="none" stroke="black" d="M233,-84.91C233,-84.91 233,-103.79 233,-103.79"/>
<polygon fill="black" stroke="black" points="229.5,-103.79 233,-113.79 236.5,-103.79 229.5,-103.79"/>
</g>
<!-- KeyboardFocusModule -->
<g id="node5" class="node">
<title>KeyboardFocusModule</title>
<polygon fill="#8dd3c7" stroke="black" points="172.19,-84.8 169.19,-88.8 148.19,-88.8 145.19,-84.8 23.81,-84.8 23.81,-48.8 172.19,-48.8 172.19,-84.8"/>
<text text-anchor="middle" x="98" y="-62.6" font-family="Times,serif" font-size="14.00">KeyboardFocusModule</text>
</g>
<!-- KeyboardFocusModule&#45;&gt;ConfiguratorAttributeSingleSelectionImageModule -->
<g id="edge4" class="edge">
<title>KeyboardFocusModule&#45;&gt;ConfiguratorAttributeSingleSelectionImageModule</title>
<path fill="none" stroke="black" d="M161.23,-84.91C161.23,-84.91 161.23,-103.79 161.23,-103.79"/>
<polygon fill="black" stroke="black" points="157.73,-103.79 161.23,-113.79 164.73,-103.79 157.73,-103.79"/>
</g>
</g>
</svg>
