<?xml version="1.0" encoding="UTF-8" standalone="no"?>
<!DOCTYPE svg PUBLIC "-//W3C//DTD SVG 1.1//EN"
 "http://www.w3.org/Graphics/SVG/1.1/DTD/svg11.dtd">
<!-- Generated by graphviz version 2.40.1 (20161225.0304)
 -->
<!-- Title: dependencies Pages: 1 -->
<svg width="504pt" height="211pt"
 viewBox="0.00 0.00 504.00 211.00" xmlns="http://www.w3.org/2000/svg" xmlns:xlink="http://www.w3.org/1999/xlink">
<g id="graph0" class="graph" transform="scale(1 1) rotate(0) translate(4 207)">
<title>dependencies</title>
<polygon fill="#ffffff" stroke="transparent" points="-4,4 -4,-207 500,-207 500,4 -4,4"/>
<text text-anchor="start" x="227.0091" y="-42.4" font-family="sans-serif" font-weight="bold" font-size="14.00" fill="#000000">Legend</text>
<polygon fill="#ffffb3" stroke="transparent" points="14,-10 14,-30 34,-30 34,-10 14,-10"/>
<text text-anchor="start" x="37.629" y="-15.4" font-family="sans-serif" font-size="14.00" fill="#000000"> &#160;Declarations</text>
<polygon fill="#8dd3c7" stroke="transparent" points="127,-10 127,-30 147,-30 147,-10 127,-10"/>
<text text-anchor="start" x="150.7251" y="-15.4" font-family="sans-serif" font-size="14.00" fill="#000000"> &#160;Module</text>
<polygon fill="#80b1d3" stroke="transparent" points="213,-10 213,-30 233,-30 233,-10 213,-10"/>
<text text-anchor="start" x="236.7812" y="-15.4" font-family="sans-serif" font-size="14.00" fill="#000000"> &#160;Bootstrap</text>
<polygon fill="#fdb462" stroke="transparent" points="310,-10 310,-30 330,-30 330,-10 310,-10"/>
<text text-anchor="start" x="333.6732" y="-15.4" font-family="sans-serif" font-size="14.00" fill="#000000"> &#160;Providers</text>
<polygon fill="#fb8072" stroke="transparent" points="406,-10 406,-30 426,-30 426,-10 406,-10"/>
<text text-anchor="start" x="429.7258" y="-15.4" font-family="sans-serif" font-size="14.00" fill="#000000"> &#160;Exports</text>
<g id="clust1" class="cluster">
<title>cluster_CdsModule</title>
<polygon fill="none" stroke="#000000" stroke-dasharray="1,5" points="27.5,-70 27.5,-195 468.5,-195 468.5,-70 27.5,-70"/>
</g>
<g id="clust3" class="cluster">
<title>cluster_CdsModule_imports</title>
<polygon fill="none" stroke="#000000" points="35.5,-78 35.5,-130 460.5,-130 460.5,-78 35.5,-78"/>
</g>
<!-- MerchandisingModule -->
<g id="node1" class="node">
<title>MerchandisingModule</title>
<polygon fill="#8dd3c7" stroke="#000000" points="452.0254,-122 449.0254,-126 428.0254,-126 425.0254,-122 308.9746,-122 308.9746,-86 452.0254,-86 452.0254,-122"/>
<text text-anchor="middle" x="380.5" y="-99.8" font-family="Times,serif" font-size="14.00" fill="#000000">MerchandisingModule</text>
</g>
<!-- CdsModule -->
<g id="node4" class="node">
<title>CdsModule</title>
<polygon fill="#8dd3c7" stroke="#000000" points="272.3317,-187 269.3317,-191 248.3317,-191 245.3317,-187 190.6683,-187 190.6683,-151 272.3317,-151 272.3317,-187"/>
<text text-anchor="middle" x="231.5" y="-164.8" font-family="Times,serif" font-size="14.00" fill="#000000">CdsModule</text>
</g>
<!-- MerchandisingModule&#45;&gt;CdsModule -->
<g id="edge1" class="edge">
<title>MerchandisingModule&#45;&gt;CdsModule</title>
<path fill="none" stroke="#000000" d="M380.5,-122.1061C380.5,-141.3391 380.5,-169 380.5,-169 380.5,-169 282.2149,-169 282.2149,-169"/>
<polygon fill="#000000" stroke="#000000" points="282.2149,-165.5001 272.2149,-169 282.2149,-172.5001 282.2149,-165.5001"/>
</g>
<!-- ProfileTagModule -->
<g id="node2" class="node">
<title>ProfileTagModule</title>
<polygon fill="#8dd3c7" stroke="#000000" points="291.4173,-122 288.4173,-126 267.4173,-126 264.4173,-122 171.5827,-122 171.5827,-86 291.4173,-86 291.4173,-122"/>
<text text-anchor="middle" x="231.5" y="-99.8" font-family="Times,serif" font-size="14.00" fill="#000000">ProfileTagModule</text>
</g>
<!-- ProfileTagModule&#45;&gt;CdsModule -->
<g id="edge2" class="edge">
<title>ProfileTagModule&#45;&gt;CdsModule</title>
<path fill="none" stroke="#000000" d="M231.5,-122.1061C231.5,-122.1061 231.5,-140.991 231.5,-140.991"/>
<polygon fill="#000000" stroke="#000000" points="228.0001,-140.9909 231.5,-150.991 235.0001,-140.991 228.0001,-140.9909"/>
</g>
<!-- TrackingModule -->
<g id="node3" class="node">
<title>TrackingModule</title>
<polygon fill="#8dd3c7" stroke="#000000" points="153.5828,-122 150.5828,-126 129.5828,-126 126.5828,-122 43.4172,-122 43.4172,-86 153.5828,-86 153.5828,-122"/>
<text text-anchor="middle" x="98.5" y="-99.8" font-family="Times,serif" font-size="14.00" fill="#000000">TrackingModule</text>
</g>
<!-- TrackingModule&#45;&gt;CdsModule -->
<g id="edge3" class="edge">
<title>TrackingModule&#45;&gt;CdsModule</title>
<path fill="none" stroke="#000000" d="M98.5,-122.1061C98.5,-141.3391 98.5,-169 98.5,-169 98.5,-169 180.5104,-169 180.5104,-169"/>
<polygon fill="#000000" stroke="#000000" points="180.5104,-172.5001 190.5104,-169 180.5103,-165.5001 180.5104,-172.5001"/>
</g>
</g>
</svg>
