<?xml version="1.0" encoding="UTF-8" standalone="no"?>
<!DOCTYPE svg PUBLIC "-//W3C//DTD SVG 1.1//EN"
 "http://www.w3.org/Graphics/SVG/1.1/DTD/svg11.dtd">
<!-- Generated by graphviz version 2.44.1 (20200629.0846)
 -->
<!-- Title: dependencies Pages: 1 -->
<svg width="504pt" height="211pt"
 viewBox="0.00 0.00 504.00 211.00" xmlns="http://www.w3.org/2000/svg" xmlns:xlink="http://www.w3.org/1999/xlink">
<g id="graph0" class="graph" transform="scale(1 1) rotate(0) translate(4 207)">
<title>dependencies</title>
<polygon fill="white" stroke="transparent" points="-4,4 -4,-207 500,-207 500,4 -4,4"/>
<text text-anchor="start" x="227.01" y="-42.4" font-family="sans-serif" font-weight="bold" font-size="14.00">Legend</text>
<polygon fill="#ffffb3" stroke="transparent" points="14,-10 14,-30 34,-30 34,-10 14,-10"/>
<text text-anchor="start" x="37.63" y="-15.4" font-family="sans-serif" font-size="14.00"> &#160;Declarations</text>
<polygon fill="#8dd3c7" stroke="transparent" points="127,-10 127,-30 147,-30 147,-10 127,-10"/>
<text text-anchor="start" x="150.73" y="-15.4" font-family="sans-serif" font-size="14.00"> &#160;Module</text>
<polygon fill="#80b1d3" stroke="transparent" points="213,-10 213,-30 233,-30 233,-10 213,-10"/>
<text text-anchor="start" x="236.78" y="-15.4" font-family="sans-serif" font-size="14.00"> &#160;Bootstrap</text>
<polygon fill="#fdb462" stroke="transparent" points="310,-10 310,-30 330,-30 330,-10 310,-10"/>
<text text-anchor="start" x="333.67" y="-15.4" font-family="sans-serif" font-size="14.00"> &#160;Providers</text>
<polygon fill="#fb8072" stroke="transparent" points="406,-10 406,-30 426,-30 426,-10 406,-10"/>
<text text-anchor="start" x="429.73" y="-15.4" font-family="sans-serif" font-size="14.00"> &#160;Exports</text>
<g id="clust1" class="cluster">
<title>cluster_CdsModule</title>
<polygon fill="none" stroke="black" stroke-dasharray="1,5" points="91.5,-70 91.5,-195 404.5,-195 404.5,-70 91.5,-70"/>
</g>
<g id="clust3" class="cluster">
<title>cluster_CdsModule_imports</title>
<polygon fill="none" stroke="black" points="99.5,-78 99.5,-130 396.5,-130 396.5,-78 99.5,-78"/>
</g>
<!-- MerchandisingModule -->
<g id="node1" class="node">
<title>MerchandisingModule</title>
<polygon fill="#8dd3c7" stroke="black" points="388.03,-122 385.03,-126 364.03,-126 361.03,-122 244.97,-122 244.97,-86 388.03,-86 388.03,-122"/>
<text text-anchor="middle" x="316.5" y="-99.8" font-family="Times,serif" font-size="14.00">MerchandisingModule</text>
</g>
<!-- CdsModule -->
<g id="node3" class="node">
<title>CdsModule</title>
<polygon fill="#8dd3c7" stroke="black" points="282.33,-187 279.33,-191 258.33,-191 255.33,-187 200.67,-187 200.67,-151 282.33,-151 282.33,-187"/>
<text text-anchor="middle" x="241.5" y="-164.8" font-family="Times,serif" font-size="14.00">CdsModule</text>
</g>
<!-- MerchandisingModule&#45;&gt;CdsModule -->
<g id="edge1" class="edge">
<title>MerchandisingModule&#45;&gt;CdsModule</title>
<path fill="none" stroke="black" d="M263.45,-122.11C263.45,-122.11 263.45,-140.99 263.45,-140.99"/>
<polygon fill="black" stroke="black" points="259.95,-140.99 263.45,-150.99 266.95,-140.99 259.95,-140.99"/>
</g>
<!-- ProfileTagModule -->
<g id="node2" class="node">
<title>ProfileTagModule</title>
<polygon fill="#8dd3c7" stroke="black" points="227.42,-122 224.42,-126 203.42,-126 200.42,-122 107.58,-122 107.58,-86 227.42,-86 227.42,-122"/>
<text text-anchor="middle" x="167.5" y="-99.8" font-family="Times,serif" font-size="14.00">ProfileTagModule</text>
</g>
<!-- ProfileTagModule&#45;&gt;CdsModule -->
<g id="edge2" class="edge">
<title>ProfileTagModule&#45;&gt;CdsModule</title>
<path fill="none" stroke="black" d="M214.02,-122.11C214.02,-122.11 214.02,-140.99 214.02,-140.99"/>
<polygon fill="black" stroke="black" points="210.52,-140.99 214.02,-150.99 217.52,-140.99 210.52,-140.99"/>
</g>
</g>
</svg>
