<?xml version="1.0" encoding="UTF-8" standalone="no"?>
<!DOCTYPE svg PUBLIC "-//W3C//DTD SVG 1.1//EN"
 "http://www.w3.org/Graphics/SVG/1.1/DTD/svg11.dtd">
<!-- Generated by graphviz version 2.46.0 (20210119.1425)
 -->
<!-- Title: dependencies Pages: 1 -->
<svg width="504pt" height="211pt"
 viewBox="0.00 0.00 504.00 211.00" xmlns="http://www.w3.org/2000/svg" xmlns:xlink="http://www.w3.org/1999/xlink">
<g id="graph0" class="graph" transform="scale(1 1) rotate(0) translate(4 207)">
<title>dependencies</title>
<polygon fill="white" stroke="transparent" points="-4,4 -4,-207 500,-207 500,4 -4,4"/>
<text text-anchor="start" x="227.01" y="-42.4" font-family="sans-serif" font-weight="bold" font-size="14.00">Legend</text>
<polygon fill="#ffffb3" stroke="transparent" points="14,-10 14,-30 34,-30 34,-10 14,-10"/>
<text text-anchor="start" x="37.63" y="-15.4" font-family="sans-serif" font-size="14.00"> &#160;Declarations</text>
<polygon fill="#8dd3c7" stroke="transparent" points="127,-10 127,-30 147,-30 147,-10 127,-10"/>
<text text-anchor="start" x="150.73" y="-15.4" font-family="sans-serif" font-size="14.00"> &#160;Module</text>
<polygon fill="#80b1d3" stroke="transparent" points="213,-10 213,-30 233,-30 233,-10 213,-10"/>
<text text-anchor="start" x="236.78" y="-15.4" font-family="sans-serif" font-size="14.00"> &#160;Bootstrap</text>
<polygon fill="#fdb462" stroke="transparent" points="310,-10 310,-30 330,-30 330,-10 310,-10"/>
<text text-anchor="start" x="333.67" y="-15.4" font-family="sans-serif" font-size="14.00"> &#160;Providers</text>
<polygon fill="#fb8072" stroke="transparent" points="406,-10 406,-30 426,-30 426,-10 406,-10"/>
<text text-anchor="start" x="429.73" y="-15.4" font-family="sans-serif" font-size="14.00"> &#160;Exports</text>
<g id="clust1" class="cluster">
<title>cluster_CdsModule</title>
<polygon fill="none" stroke="black" stroke-dasharray="1,5" points="27.5,-70 27.5,-195 468.5,-195 468.5,-70 27.5,-70"/>
</g>
<g id="clust3" class="cluster">
<title>cluster_CdsModule_imports</title>
<polygon fill="none" stroke="black" points="35.5,-78 35.5,-130 460.5,-130 460.5,-78 35.5,-78"/>
</g>
<!-- MerchandisingModule -->
<g id="node1" class="node">
<title>MerchandisingModule</title>
<polygon fill="#8dd3c7" stroke="black" points="452.03,-122 449.03,-126 428.03,-126 425.03,-122 308.97,-122 308.97,-86 452.03,-86 452.03,-122"/>
<text text-anchor="middle" x="380.5" y="-99.8" font-family="Times,serif" font-size="14.00">MerchandisingModule</text>
</g>
<!-- CdsModule -->
<g id="node4" class="node">
<title>CdsModule</title>
<polygon fill="#8dd3c7" stroke="black" points="272.33,-187 269.33,-191 248.33,-191 245.33,-187 190.67,-187 190.67,-151 272.33,-151 272.33,-187"/>
<text text-anchor="middle" x="231.5" y="-164.8" font-family="Times,serif" font-size="14.00">CdsModule</text>
</g>
<!-- MerchandisingModule&#45;&gt;CdsModule -->
<g id="edge1" class="edge">
<title>MerchandisingModule&#45;&gt;CdsModule</title>
<path fill="none" stroke="black" d="M380.5,-122.11C380.5,-141.34 380.5,-169 380.5,-169 380.5,-169 282.21,-169 282.21,-169"/>
<polygon fill="black" stroke="black" points="282.21,-165.5 272.21,-169 282.21,-172.5 282.21,-165.5"/>
</g>
<!-- ProfileTagModule -->
<g id="node2" class="node">
<title>ProfileTagModule</title>
<polygon fill="#8dd3c7" stroke="black" points="291.42,-122 288.42,-126 267.42,-126 264.42,-122 171.58,-122 171.58,-86 291.42,-86 291.42,-122"/>
<text text-anchor="middle" x="231.5" y="-99.8" font-family="Times,serif" font-size="14.00">ProfileTagModule</text>
</g>
<!-- ProfileTagModule&#45;&gt;CdsModule -->
<g id="edge2" class="edge">
<title>ProfileTagModule&#45;&gt;CdsModule</title>
<path fill="none" stroke="black" d="M231.5,-122.11C231.5,-122.11 231.5,-140.99 231.5,-140.99"/>
<polygon fill="black" stroke="black" points="228,-140.99 231.5,-150.99 235,-140.99 228,-140.99"/>
</g>
<!-- TrackingModule -->
<g id="node3" class="node">
<title>TrackingModule</title>
<polygon fill="#8dd3c7" stroke="black" points="153.58,-122 150.58,-126 129.58,-126 126.58,-122 43.42,-122 43.42,-86 153.58,-86 153.58,-122"/>
<text text-anchor="middle" x="98.5" y="-99.8" font-family="Times,serif" font-size="14.00">TrackingModule</text>
</g>
<!-- TrackingModule&#45;&gt;CdsModule -->
<g id="edge3" class="edge">
<title>TrackingModule&#45;&gt;CdsModule</title>
<path fill="none" stroke="black" d="M98.5,-122.11C98.5,-141.34 98.5,-169 98.5,-169 98.5,-169 180.51,-169 180.51,-169"/>
<polygon fill="black" stroke="black" points="180.51,-172.5 190.51,-169 180.51,-165.5 180.51,-172.5"/>
</g>
</g>
</svg>
