<?xml version="1.0" encoding="UTF-8" standalone="no"?>
<!DOCTYPE svg PUBLIC "-//W3C//DTD SVG 1.1//EN"
 "http://www.w3.org/Graphics/SVG/1.1/DTD/svg11.dtd">
<!-- Generated by graphviz version 2.40.1 (20161225.0304)
 -->
<!-- Title: dependencies Pages: 1 -->
<svg width="504pt" height="211pt"
 viewBox="0.00 0.00 504.00 211.00" xmlns="http://www.w3.org/2000/svg" xmlns:xlink="http://www.w3.org/1999/xlink">
<g id="graph0" class="graph" transform="scale(1 1) rotate(0) translate(4 207)">
<title>dependencies</title>
<polygon fill="#ffffff" stroke="transparent" points="-4,4 -4,-207 500,-207 500,4 -4,4"/>
<text text-anchor="start" x="227.0091" y="-42.4" font-family="sans-serif" font-weight="bold" font-size="14.00" fill="#000000">Legend</text>
<polygon fill="#ffffb3" stroke="transparent" points="14,-10 14,-30 34,-30 34,-10 14,-10"/>
<text text-anchor="start" x="37.629" y="-15.4" font-family="sans-serif" font-size="14.00" fill="#000000"> &#160;Declarations</text>
<polygon fill="#8dd3c7" stroke="transparent" points="127,-10 127,-30 147,-30 147,-10 127,-10"/>
<text text-anchor="start" x="150.7251" y="-15.4" font-family="sans-serif" font-size="14.00" fill="#000000"> &#160;Module</text>
<polygon fill="#80b1d3" stroke="transparent" points="213,-10 213,-30 233,-30 233,-10 213,-10"/>
<text text-anchor="start" x="236.7812" y="-15.4" font-family="sans-serif" font-size="14.00" fill="#000000"> &#160;Bootstrap</text>
<polygon fill="#fdb462" stroke="transparent" points="310,-10 310,-30 330,-30 330,-10 310,-10"/>
<text text-anchor="start" x="333.6732" y="-15.4" font-family="sans-serif" font-size="14.00" fill="#000000"> &#160;Providers</text>
<polygon fill="#fb8072" stroke="transparent" points="406,-10 406,-30 426,-30 426,-10 406,-10"/>
<text text-anchor="start" x="429.7258" y="-15.4" font-family="sans-serif" font-size="14.00" fill="#000000"> &#160;Exports</text>
<g id="clust1" class="cluster">
<title>cluster_CdsModule</title>
<polygon fill="none" stroke="#000000" stroke-dasharray="1,5" points="91.5,-70 91.5,-195 404.5,-195 404.5,-70 91.5,-70"/>
</g>
<g id="clust3" class="cluster">
<title>cluster_CdsModule_imports</title>
<polygon fill="none" stroke="#000000" points="99.5,-78 99.5,-130 396.5,-130 396.5,-78 99.5,-78"/>
</g>
<!-- MerchandisingModule -->
<g id="node1" class="node">
<title>MerchandisingModule</title>
<polygon fill="#8dd3c7" stroke="#000000" points="388.0254,-122 385.0254,-126 364.0254,-126 361.0254,-122 244.9746,-122 244.9746,-86 388.0254,-86 388.0254,-122"/>
<text text-anchor="middle" x="316.5" y="-99.8" font-family="Times,serif" font-size="14.00" fill="#000000">MerchandisingModule</text>
</g>
<!-- CdsModule -->
<g id="node3" class="node">
<title>CdsModule</title>
<polygon fill="#8dd3c7" stroke="#000000" points="282.3317,-187 279.3317,-191 258.3317,-191 255.3317,-187 200.6683,-187 200.6683,-151 282.3317,-151 282.3317,-187"/>
<text text-anchor="middle" x="241.5" y="-164.8" font-family="Times,serif" font-size="14.00" fill="#000000">CdsModule</text>
</g>
<!-- MerchandisingModule&#45;&gt;CdsModule -->
<g id="edge1" class="edge">
<title>MerchandisingModule&#45;&gt;CdsModule</title>
<path fill="none" stroke="#000000" d="M263.4516,-122.1061C263.4516,-122.1061 263.4516,-140.991 263.4516,-140.991"/>
<polygon fill="#000000" stroke="#000000" points="259.9517,-140.9909 263.4516,-150.991 266.9517,-140.991 259.9517,-140.9909"/>
</g>
<!-- ProfileTagModule -->
<g id="node2" class="node">
<title>ProfileTagModule</title>
<polygon fill="#8dd3c7" stroke="#000000" points="227.4173,-122 224.4173,-126 203.4173,-126 200.4173,-122 107.5827,-122 107.5827,-86 227.4173,-86 227.4173,-122"/>
<text text-anchor="middle" x="167.5" y="-99.8" font-family="Times,serif" font-size="14.00" fill="#000000">ProfileTagModule</text>
</g>
<!-- ProfileTagModule&#45;&gt;CdsModule -->
<g id="edge2" class="edge">
<title>ProfileTagModule&#45;&gt;CdsModule</title>
<path fill="none" stroke="#000000" d="M214.0214,-122.1061C214.0214,-122.1061 214.0214,-140.991 214.0214,-140.991"/>
<polygon fill="#000000" stroke="#000000" points="210.5215,-140.9909 214.0214,-150.991 217.5215,-140.991 210.5215,-140.9909"/>
</g>
</g>
</svg>
