<?xml version="1.0" encoding="UTF-8" standalone="no"?>
<!DOCTYPE svg PUBLIC "-//W3C//DTD SVG 1.1//EN"
 "http://www.w3.org/Graphics/SVG/1.1/DTD/svg11.dtd">
<!-- Generated by graphviz version 2.40.1 (20161225.0304)
 -->
<!-- Title: dependencies Pages: 1 -->
<svg width="802pt" height="396pt"
 viewBox="0.00 0.00 802.00 395.59" xmlns="http://www.w3.org/2000/svg" xmlns:xlink="http://www.w3.org/1999/xlink">
<g id="graph0" class="graph" transform="scale(1 1) rotate(0) translate(4 391.5901)">
<title>dependencies</title>
<polygon fill="#ffffff" stroke="transparent" points="-4,4 -4,-391.5901 798,-391.5901 798,4 -4,4"/>
<text text-anchor="start" x="376.0091" y="-42.4" font-family="sans-serif" font-weight="bold" font-size="14.00" fill="#000000">Legend</text>
<polygon fill="#ffffb3" stroke="transparent" points="163,-10 163,-30 183,-30 183,-10 163,-10"/>
<text text-anchor="start" x="186.629" y="-15.4" font-family="sans-serif" font-size="14.00" fill="#000000"> &#160;Declarations</text>
<polygon fill="#8dd3c7" stroke="transparent" points="276,-10 276,-30 296,-30 296,-10 276,-10"/>
<text text-anchor="start" x="299.7251" y="-15.4" font-family="sans-serif" font-size="14.00" fill="#000000"> &#160;Module</text>
<polygon fill="#80b1d3" stroke="transparent" points="362,-10 362,-30 382,-30 382,-10 362,-10"/>
<text text-anchor="start" x="385.7812" y="-15.4" font-family="sans-serif" font-size="14.00" fill="#000000"> &#160;Bootstrap</text>
<polygon fill="#fdb462" stroke="transparent" points="459,-10 459,-30 479,-30 479,-10 459,-10"/>
<text text-anchor="start" x="482.6732" y="-15.4" font-family="sans-serif" font-size="14.00" fill="#000000"> &#160;Providers</text>
<polygon fill="#fb8072" stroke="transparent" points="555,-10 555,-30 575,-30 575,-10 555,-10"/>
<text text-anchor="start" x="578.7258" y="-15.4" font-family="sans-serif" font-size="14.00" fill="#000000"> &#160;Exports</text>
<g id="clust1" class="cluster">
<title>cluster_UserDetailsModule</title>
<polygon fill="none" stroke="#000000" stroke-dasharray="1,5" points="8,-70 8,-379.5901 786,-379.5901 786,-70 8,-70"/>
</g>
<g id="clust2" class="cluster">
<title>cluster_UserDetailsModule_declarations</title>
<polygon fill="none" stroke="#000000" points="614,-189.5901 614,-241.5901 778,-241.5901 778,-189.5901 614,-189.5901"/>
</g>
<g id="clust3" class="cluster">
<title>cluster_UserDetailsModule_UserDetailsComponent_providers</title>
<polygon fill="none" stroke="#000000" points="302,-78 302,-176.5901 778,-176.5901 778,-78 302,-78"/>
</g>
<g id="clust4" class="cluster">
<title>cluster_UserDetailsModule_imports</title>
<polygon fill="none" stroke="#000000" points="16,-189.5901 16,-241.5901 606,-241.5901 606,-189.5901 16,-189.5901"/>
</g>
<g id="clust5" class="cluster">
<title>cluster_UserDetailsModule_exports</title>
<polygon fill="none" stroke="#000000" points="308,-319.5901 308,-371.5901 474,-371.5901 474,-319.5901 308,-319.5901"/>
</g>
<!-- UserDetailsComponent -->
<g id="node1" class="node">
<title>UserDetailsComponent</title>
<polygon fill="#ffffb3" stroke="#000000" points="769.9116,-233.5901 622.0884,-233.5901 622.0884,-197.5901 769.9116,-197.5901 769.9116,-233.5901"/>
<text text-anchor="middle" x="696" y="-211.3901" font-family="Times,serif" font-size="14.00" fill="#000000">UserDetailsComponent</text>
</g>
<!-- UserDetailsModule -->
<g id="node2" class="node">
<title>UserDetailsModule</title>
<polygon fill="#8dd3c7" stroke="#000000" points="453.6289,-298.5901 450.6289,-302.5901 429.6289,-302.5901 426.6289,-298.5901 328.3711,-298.5901 328.3711,-262.5901 453.6289,-262.5901 453.6289,-298.5901"/>
<text text-anchor="middle" x="391" y="-276.3901" font-family="Times,serif" font-size="14.00" fill="#000000">UserDetailsModule</text>
</g>
<!-- UserDetailsComponent&#45;&gt;UserDetailsModule -->
<g id="edge1" class="edge">
<title>UserDetailsComponent&#45;&gt;UserDetailsModule</title>
<path fill="none" stroke="#000000" d="M696,-233.8743C696,-254.9111 696,-286.5901 696,-286.5901 696,-286.5901 463.8264,-286.5901 463.8264,-286.5901"/>
<polygon fill="#000000" stroke="#000000" points="463.8264,-283.0902 453.8264,-286.5901 463.8263,-290.0902 463.8264,-283.0902"/>
</g>
<!-- UserDetailsComponent  -->
<g id="node9" class="node">
<title>UserDetailsComponent </title>
<polygon fill="#fb8072" stroke="#000000" points="466.411,-363.5901 315.589,-363.5901 315.589,-327.5901 466.411,-327.5901 466.411,-363.5901"/>
<text text-anchor="middle" x="391" y="-341.3901" font-family="Times,serif" font-size="14.00" fill="#000000">UserDetailsComponent </text>
</g>
<!-- UserDetailsModule&#45;&gt;UserDetailsComponent  -->
<g id="edge8" class="edge">
<title>UserDetailsModule&#45;&gt;UserDetailsComponent </title>
<path fill="none" stroke="#000000" stroke-dasharray="5,2" d="M391,-298.6962C391,-298.6962 391,-317.581 391,-317.581"/>
<polygon fill="#000000" stroke="#000000" points="387.5001,-317.581 391,-327.581 394.5001,-317.5811 387.5001,-317.581"/>
</g>
<!-- {
 &#160;&#160;&#160;provide: ItemService, useExisting: UserItemService,
} -->
<g id="node3" class="node">
<title>{
 &#160;&#160;&#160;provide: ItemService, useExisting: UserItemService,
}</title>
<ellipse fill="#fdb462" stroke="#000000" cx="540" cy="-127.295" rx="229.7179" ry="41.0911"/>
<text text-anchor="middle" x="540" y="-139.895" font-family="Times,serif" font-size="14.00" fill="#000000">{</text>
<text text-anchor="middle" x="540" y="-123.095" font-family="Times,serif" font-size="14.00" fill="#000000"> &#160;&#160;&#160;provide: ItemService, useExisting: UserItemService,</text>
<text text-anchor="middle" x="540" y="-106.295" font-family="Times,serif" font-size="14.00" fill="#000000">}</text>
</g>
<!-- {
 &#160;&#160;&#160;provide: ItemService, useExisting: UserItemService,
}&#45;&gt;UserDetailsComponent -->
<g id="edge2" class="edge">
<title>{
 &#160;&#160;&#160;provide: ItemService, useExisting: UserItemService,
}&#45;&gt;UserDetailsComponent</title>
<path fill="none" stroke="#000000" d="M696,-157.6812C696,-157.6812 696,-187.5209 696,-187.5209"/>
<polygon fill="#000000" stroke="#000000" points="692.5001,-187.5208 696,-197.5209 699.5001,-187.5209 692.5001,-187.5208"/>
</g>
<!-- CardModule -->
<g id="node4" class="node">
<title>CardModule</title>
<polygon fill="#8dd3c7" stroke="#000000" points="598.2619,-233.5901 595.2619,-237.5901 574.2619,-237.5901 571.2619,-233.5901 511.7381,-233.5901 511.7381,-197.5901 598.2619,-197.5901 598.2619,-233.5901"/>
<text text-anchor="middle" x="555" y="-211.3901" font-family="Times,serif" font-size="14.00" fill="#000000">CardModule</text>
</g>
<!-- CardModule&#45;&gt;UserDetailsModule -->
<g id="edge3" class="edge">
<title>CardModule&#45;&gt;UserDetailsModule</title>
<path fill="none" stroke="#000000" d="M555,-233.6126C555,-250.9634 555,-274.5901 555,-274.5901 555,-274.5901 463.9377,-274.5901 463.9377,-274.5901"/>
<polygon fill="#000000" stroke="#000000" points="463.9377,-271.0902 453.9377,-274.5901 463.9376,-278.0902 463.9377,-271.0902"/>
</g>
<!-- I18nModule -->
<g id="node5" class="node">
<title>I18nModule</title>
<polygon fill="#8dd3c7" stroke="#000000" points="493.7107,-233.5901 490.7107,-237.5901 469.7107,-237.5901 466.7107,-233.5901 408.2893,-233.5901 408.2893,-197.5901 493.7107,-197.5901 493.7107,-233.5901"/>
<text text-anchor="middle" x="451" y="-211.3901" font-family="Times,serif" font-size="14.00" fill="#000000">I18nModule</text>
</g>
<!-- I18nModule&#45;&gt;UserDetailsModule -->
<g id="edge4" class="edge">
<title>I18nModule&#45;&gt;UserDetailsModule</title>
<path fill="none" stroke="#000000" d="M431.1045,-233.6962C431.1045,-233.6962 431.1045,-252.581 431.1045,-252.581"/>
<polygon fill="#000000" stroke="#000000" points="427.6046,-252.581 431.1045,-262.581 434.6046,-252.5811 427.6046,-252.581"/>
</g>
<!-- ItemExistsModule -->
<g id="node6" class="node">
<title>ItemExistsModule</title>
<polygon fill="#8dd3c7" stroke="#000000" points="390.93,-233.5901 387.93,-237.5901 366.93,-237.5901 363.93,-233.5901 271.07,-233.5901 271.07,-197.5901 390.93,-197.5901 390.93,-233.5901"/>
<text text-anchor="middle" x="331" y="-211.3901" font-family="Times,serif" font-size="14.00" fill="#000000">ItemExistsModule</text>
</g>
<!-- ItemExistsModule&#45;&gt;UserDetailsModule -->
<g id="edge5" class="edge">
<title>ItemExistsModule&#45;&gt;UserDetailsModule</title>
<path fill="none" stroke="#000000" d="M359.4502,-233.6962C359.4502,-233.6962 359.4502,-252.581 359.4502,-252.581"/>
<polygon fill="#000000" stroke="#000000" points="355.9503,-252.581 359.4502,-262.581 362.9503,-252.5811 355.9503,-252.581"/>
</g>
<!-- ToggleStatusModule -->
<g id="node7" class="node">
<title>ToggleStatusModule</title>
<polygon fill="#8dd3c7" stroke="#000000" points="253.9313,-233.5901 250.9313,-237.5901 229.9313,-237.5901 226.9313,-233.5901 120.0687,-233.5901 120.0687,-197.5901 253.9313,-197.5901 253.9313,-233.5901"/>
<text text-anchor="middle" x="187" y="-211.3901" font-family="Times,serif" font-size="14.00" fill="#000000">ToggleStatusModule</text>
</g>
<!-- ToggleStatusModule&#45;&gt;UserDetailsModule -->
<g id="edge6" class="edge">
<title>ToggleStatusModule&#45;&gt;UserDetailsModule</title>
<path fill="none" stroke="#000000" d="M187,-233.6126C187,-250.9634 187,-274.5901 187,-274.5901 187,-274.5901 318.1287,-274.5901 318.1287,-274.5901"/>
<polygon fill="#000000" stroke="#000000" points="318.1287,-278.0902 328.1287,-274.5901 318.1287,-271.0902 318.1287,-278.0902"/>
</g>
<!-- UrlModule -->
<g id="node8" class="node">
<title>UrlModule</title>
<polygon fill="#8dd3c7" stroke="#000000" points="102.2079,-233.5901 99.2079,-237.5901 78.2079,-237.5901 75.2079,-233.5901 23.7921,-233.5901 23.7921,-197.5901 102.2079,-197.5901 102.2079,-233.5901"/>
<text text-anchor="middle" x="63" y="-211.3901" font-family="Times,serif" font-size="14.00" fill="#000000">UrlModule</text>
</g>
<!-- UrlModule&#45;&gt;UserDetailsModule -->
<g id="edge7" class="edge">
<title>UrlModule&#45;&gt;UserDetailsModule</title>
<path fill="none" stroke="#000000" d="M63,-233.8743C63,-254.9111 63,-286.5901 63,-286.5901 63,-286.5901 318.1464,-286.5901 318.1464,-286.5901"/>
<polygon fill="#000000" stroke="#000000" points="318.1464,-290.0902 328.1464,-286.5901 318.1464,-283.0902 318.1464,-290.0902"/>
</g>
</g>
</svg>
