<?xml version="1.0" encoding="UTF-8" standalone="no"?>
<!DOCTYPE svg PUBLIC "-//W3C//DTD SVG 1.1//EN"
 "http://www.w3.org/Graphics/SVG/1.1/DTD/svg11.dtd">
<!-- Generated by graphviz version 2.47.3 (20210619.1520)
 -->
<!-- Title: dependencies Pages: 1 -->
<svg width="1112pt" height="247pt"
 viewBox="0.00 0.00 1112.00 246.80" xmlns="http://www.w3.org/2000/svg" xmlns:xlink="http://www.w3.org/1999/xlink">
<g id="graph0" class="graph" transform="scale(1 1) rotate(0) translate(4 242.8)">
<title>dependencies</title>
<polygon fill="white" stroke="transparent" points="-4,4 -4,-242.8 1108,-242.8 1108,4 -4,4"/>
<text text-anchor="middle" x="552" y="-8.2" font-family="sans-serif" font-size="14.00">dependencies</text>
<g id="clust1" class="cluster">
<title>cluster_UserDetailsModule</title>
<polygon fill="none" stroke="black" stroke-dasharray="1,5" points="8,-32.8 8,-230.8 1096,-230.8 1096,-32.8 8,-32.8"/>
</g>
<g id="clust2" class="cluster">
<title>cluster_UserDetailsModule_declarations</title>
<polygon fill="none" stroke="black" points="924,-40.8 924,-92.8 1088,-92.8 1088,-40.8 924,-40.8"/>
</g>
<g id="clust5" class="cluster">
<title>cluster_UserDetailsModule_exports</title>
<polygon fill="none" stroke="black" points="475,-170.8 475,-222.8 641,-222.8 641,-170.8 475,-170.8"/>
</g>
<g id="clust4" class="cluster">
<title>cluster_UserDetailsModule_imports</title>
<polygon fill="none" stroke="black" points="16,-40.8 16,-92.8 916,-92.8 916,-40.8 16,-40.8"/>
</g>
<!-- UserDetailsComponent -->
<g id="node1" class="node">
<title>UserDetailsComponent</title>
<polygon fill="#ffffb3" stroke="black" points="1079.91,-84.8 932.09,-84.8 932.09,-48.8 1079.91,-48.8 1079.91,-84.8"/>
<text text-anchor="middle" x="1006" y="-62.6" font-family="Times,serif" font-size="14.00">UserDetailsComponent</text>
</g>
<!-- UserDetailsModule -->
<g id="node2" class="node">
<title>UserDetailsModule</title>
<polygon fill="#8dd3c7" stroke="black" points="620.63,-149.8 617.63,-153.8 596.63,-153.8 593.63,-149.8 495.37,-149.8 495.37,-113.8 620.63,-113.8 620.63,-149.8"/>
<text text-anchor="middle" x="558" y="-127.6" font-family="Times,serif" font-size="14.00">UserDetailsModule</text>
</g>
<!-- UserDetailsComponent&#45;&gt;UserDetailsModule -->
<g id="edge1" class="edge">
<title>UserDetailsComponent&#45;&gt;UserDetailsModule</title>
<path fill="none" stroke="black" d="M1006,-85.09C1006,-107.01 1006,-140.8 1006,-140.8 1006,-140.8 630.76,-140.8 630.76,-140.8"/>
<polygon fill="black" stroke="black" points="630.76,-137.3 620.76,-140.8 630.76,-144.3 630.76,-137.3"/>
</g>
<!-- UserDetailsComponent  -->
<g id="node10" class="node">
<title>UserDetailsComponent </title>
<polygon fill="#fb8072" stroke="black" points="633.41,-214.8 482.59,-214.8 482.59,-178.8 633.41,-178.8 633.41,-214.8"/>
<text text-anchor="middle" x="558" y="-192.6" font-family="Times,serif" font-size="14.00">UserDetailsComponent </text>
</g>
<!-- UserDetailsModule&#45;&gt;UserDetailsComponent  -->
<g id="edge9" class="edge">
<title>UserDetailsModule&#45;&gt;UserDetailsComponent </title>
<path fill="none" stroke="black" stroke-dasharray="5,2" d="M558,-149.91C558,-149.91 558,-168.79 558,-168.79"/>
<polygon fill="black" stroke="black" points="554.5,-168.79 558,-178.79 561.5,-168.79 554.5,-168.79"/>
</g>
<!-- CardModule -->
<g id="node3" class="node">
<title>CardModule</title>
<polygon fill="#8dd3c7" stroke="black" points="908.26,-84.8 905.26,-88.8 884.26,-88.8 881.26,-84.8 821.74,-84.8 821.74,-48.8 908.26,-48.8 908.26,-84.8"/>
<text text-anchor="middle" x="865" y="-62.6" font-family="Times,serif" font-size="14.00">CardModule</text>
</g>
<!-- CardModule&#45;&gt;UserDetailsModule -->
<g id="edge2" class="edge">
<title>CardModule&#45;&gt;UserDetailsModule</title>
<path fill="none" stroke="black" d="M865,-84.91C865,-104.14 865,-131.8 865,-131.8 865,-131.8 630.87,-131.8 630.87,-131.8"/>
<polygon fill="black" stroke="black" points="630.87,-128.3 620.87,-131.8 630.87,-135.3 630.87,-128.3"/>
</g>
<!-- DisableInfoModule -->
<g id="node4" class="node">
<title>DisableInfoModule</title>
<polygon fill="#8dd3c7" stroke="black" points="803.63,-84.8 800.63,-88.8 779.63,-88.8 776.63,-84.8 678.37,-84.8 678.37,-48.8 803.63,-48.8 803.63,-84.8"/>
<text text-anchor="middle" x="741" y="-62.6" font-family="Times,serif" font-size="14.00">DisableInfoModule</text>
</g>
<!-- DisableInfoModule&#45;&gt;UserDetailsModule -->
<g id="edge3" class="edge">
<title>DisableInfoModule&#45;&gt;UserDetailsModule</title>
<path fill="none" stroke="black" d="M741,-84.83C741,-101.2 741,-122.8 741,-122.8 741,-122.8 630.72,-122.8 630.72,-122.8"/>
<polygon fill="black" stroke="black" points="630.72,-119.3 620.72,-122.8 630.72,-126.3 630.72,-119.3"/>
</g>
<!-- I18nModule -->
<g id="node5" class="node">
<title>I18nModule</title>
<polygon fill="#8dd3c7" stroke="black" points="660.71,-84.8 657.71,-88.8 636.71,-88.8 633.71,-84.8 575.29,-84.8 575.29,-48.8 660.71,-48.8 660.71,-84.8"/>
<text text-anchor="middle" x="618" y="-62.6" font-family="Times,serif" font-size="14.00">I18nModule</text>
</g>
<!-- I18nModule&#45;&gt;UserDetailsModule -->
<g id="edge4" class="edge">
<title>I18nModule&#45;&gt;UserDetailsModule</title>
<path fill="none" stroke="black" d="M598.1,-84.91C598.1,-84.91 598.1,-103.79 598.1,-103.79"/>
<polygon fill="black" stroke="black" points="594.6,-103.79 598.1,-113.79 601.6,-103.79 594.6,-103.79"/>
</g>
<!-- ItemExistsModule -->
<g id="node6" class="node">
<title>ItemExistsModule</title>
<polygon fill="#8dd3c7" stroke="black" points="557.93,-84.8 554.93,-88.8 533.93,-88.8 530.93,-84.8 438.07,-84.8 438.07,-48.8 557.93,-48.8 557.93,-84.8"/>
<text text-anchor="middle" x="498" y="-62.6" font-family="Times,serif" font-size="14.00">ItemExistsModule</text>
</g>
<!-- ItemExistsModule&#45;&gt;UserDetailsModule -->
<g id="edge5" class="edge">
<title>ItemExistsModule&#45;&gt;UserDetailsModule</title>
<path fill="none" stroke="black" d="M526.45,-84.91C526.45,-84.91 526.45,-103.79 526.45,-103.79"/>
<polygon fill="black" stroke="black" points="522.95,-103.79 526.45,-113.79 529.95,-103.79 522.95,-103.79"/>
</g>
<!-- KeyboardFocusModule -->
<g id="node7" class="node">
<title>KeyboardFocusModule</title>
<polygon fill="#8dd3c7" stroke="black" points="420.19,-84.8 417.19,-88.8 396.19,-88.8 393.19,-84.8 271.81,-84.8 271.81,-48.8 420.19,-48.8 420.19,-84.8"/>
<text text-anchor="middle" x="346" y="-62.6" font-family="Times,serif" font-size="14.00">KeyboardFocusModule</text>
</g>
<!-- KeyboardFocusModule&#45;&gt;UserDetailsModule -->
<g id="edge6" class="edge">
<title>KeyboardFocusModule&#45;&gt;UserDetailsModule</title>
<path fill="none" stroke="black" d="M346,-84.83C346,-101.2 346,-122.8 346,-122.8 346,-122.8 485.25,-122.8 485.25,-122.8"/>
<polygon fill="black" stroke="black" points="485.25,-126.3 495.25,-122.8 485.25,-119.3 485.25,-126.3"/>
</g>
<!-- ToggleStatusModule -->
<g id="node8" class="node">
<title>ToggleStatusModule</title>
<polygon fill="#8dd3c7" stroke="black" points="253.93,-84.8 250.93,-88.8 229.93,-88.8 226.93,-84.8 120.07,-84.8 120.07,-48.8 253.93,-48.8 253.93,-84.8"/>
<text text-anchor="middle" x="187" y="-62.6" font-family="Times,serif" font-size="14.00">ToggleStatusModule</text>
</g>
<!-- ToggleStatusModule&#45;&gt;UserDetailsModule -->
<g id="edge7" class="edge">
<title>ToggleStatusModule&#45;&gt;UserDetailsModule</title>
<path fill="none" stroke="black" d="M187,-84.91C187,-104.14 187,-131.8 187,-131.8 187,-131.8 485.06,-131.8 485.06,-131.8"/>
<polygon fill="black" stroke="black" points="485.06,-135.3 495.06,-131.8 485.06,-128.3 485.06,-135.3"/>
</g>
<!-- UrlModule -->
<g id="node9" class="node">
<title>UrlModule</title>
<polygon fill="#8dd3c7" stroke="black" points="102.21,-84.8 99.21,-88.8 78.21,-88.8 75.21,-84.8 23.79,-84.8 23.79,-48.8 102.21,-48.8 102.21,-84.8"/>
<text text-anchor="middle" x="63" y="-62.6" font-family="Times,serif" font-size="14.00">UrlModule</text>
</g>
<!-- UrlModule&#45;&gt;UserDetailsModule -->
<g id="edge8" class="edge">
<title>UrlModule&#45;&gt;UserDetailsModule</title>
<path fill="none" stroke="black" d="M63,-85.09C63,-107.01 63,-140.8 63,-140.8 63,-140.8 485.31,-140.8 485.31,-140.8"/>
<polygon fill="black" stroke="black" points="485.31,-144.3 495.31,-140.8 485.31,-137.3 485.31,-144.3"/>
</g>
</g>
</svg>
