<?xml version="1.0" encoding="UTF-8" standalone="no"?>
<!DOCTYPE svg PUBLIC "-//W3C//DTD SVG 1.1//EN"
 "http://www.w3.org/Graphics/SVG/1.1/DTD/svg11.dtd">
<!-- Generated by graphviz version 2.47.0 (20210316.0004)
 -->
<!-- Title: dependencies Pages: 1 -->
<svg width="1190pt" height="323pt"
 viewBox="0.00 0.00 1190.00 322.59" xmlns="http://www.w3.org/2000/svg" xmlns:xlink="http://www.w3.org/1999/xlink">
<g id="graph0" class="graph" transform="scale(1 1) rotate(0) translate(4 318.59)">
<title>dependencies</title>
<polygon fill="white" stroke="transparent" points="-4,4 -4,-318.59 1186,-318.59 1186,4 -4,4"/>
<text text-anchor="start" x="570.01" y="-42.4" font-family="sans-serif" font-weight="bold" font-size="14.00">Legend</text>
<polygon fill="#ffffb3" stroke="transparent" points="357,-10 357,-30 377,-30 377,-10 357,-10"/>
<text text-anchor="start" x="380.63" y="-15.4" font-family="sans-serif" font-size="14.00"> &#160;Declarations</text>
<polygon fill="#8dd3c7" stroke="transparent" points="470,-10 470,-30 490,-30 490,-10 470,-10"/>
<text text-anchor="start" x="493.73" y="-15.4" font-family="sans-serif" font-size="14.00"> &#160;Module</text>
<polygon fill="#80b1d3" stroke="transparent" points="556,-10 556,-30 576,-30 576,-10 556,-10"/>
<text text-anchor="start" x="579.78" y="-15.4" font-family="sans-serif" font-size="14.00"> &#160;Bootstrap</text>
<polygon fill="#fdb462" stroke="transparent" points="653,-10 653,-30 673,-30 673,-10 653,-10"/>
<text text-anchor="start" x="676.67" y="-15.4" font-family="sans-serif" font-size="14.00"> &#160;Providers</text>
<polygon fill="#fb8072" stroke="transparent" points="749,-10 749,-30 769,-30 769,-10 749,-10"/>
<text text-anchor="start" x="772.73" y="-15.4" font-family="sans-serif" font-size="14.00"> &#160;Exports</text>
<g id="clust1" class="cluster">
<title>cluster_UserUserGroupsModule</title>
<polygon fill="none" stroke="black" stroke-dasharray="1,5" points="8,-70 8,-306.59 1174,-306.59 1174,-70 8,-70"/>
</g>
<g id="clust4" class="cluster">
<title>cluster_UserUserGroupsModule_UserUserGroupListComponent_providers</title>
<polygon fill="none" stroke="black" points="614,-78 614,-241.59 1166,-241.59 1166,-78 614,-78"/>
</g>
<g id="clust5" class="cluster">
<title>cluster_UserUserGroupsModule_imports</title>
<polygon fill="none" stroke="black" points="284,-189.59 284,-241.59 606,-241.59 606,-189.59 284,-189.59"/>
</g>
<g id="clust2" class="cluster">
<title>cluster_UserUserGroupsModule_declarations</title>
<polygon fill="none" stroke="black" points="16,-189.59 16,-241.59 276,-241.59 276,-189.59 16,-189.59"/>
</g>
<!-- UserAssignedUserGroupListComponent -->
<g id="node1" class="node">
<title>UserAssignedUserGroupListComponent</title>
<polygon fill="#ffffb3" stroke="black" points="267.83,-233.59 24.17,-233.59 24.17,-197.59 267.83,-197.59 267.83,-233.59"/>
<text text-anchor="middle" x="146" y="-211.39" font-family="Times,serif" font-size="14.00">UserAssignedUserGroupListComponent</text>
</g>
<!-- UserUserGroupsModule -->
<g id="node3" class="node">
<title>UserUserGroupsModule</title>
<polygon fill="#8dd3c7" stroke="black" points="530.61,-298.59 527.61,-302.59 506.61,-302.59 503.61,-298.59 377.39,-298.59 377.39,-262.59 530.61,-262.59 530.61,-298.59"/>
<text text-anchor="middle" x="454" y="-276.39" font-family="Times,serif" font-size="14.00">UserUserGroupsModule</text>
</g>
<!-- UserAssignedUserGroupListComponent&#45;&gt;UserUserGroupsModule -->
<g id="edge1" class="edge">
<title>UserAssignedUserGroupListComponent&#45;&gt;UserUserGroupsModule</title>
<path fill="none" stroke="black" d="M146,-233.7C146,-252.93 146,-280.59 146,-280.59 146,-280.59 367.07,-280.59 367.07,-280.59"/>
<polygon fill="black" stroke="black" points="367.07,-284.09 377.07,-280.59 367.07,-277.09 367.07,-284.09"/>
</g>
<!-- UserUserGroupListComponent -->
<g id="node2" class="node">
<title>UserUserGroupListComponent</title>
<polygon fill="#ffffb3" stroke="black" points="899.73,-233.59 708.27,-233.59 708.27,-197.59 899.73,-197.59 899.73,-233.59"/>
<text text-anchor="middle" x="804" y="-211.39" font-family="Times,serif" font-size="14.00">UserUserGroupListComponent</text>
</g>
<!-- UserUserGroupListComponent&#45;&gt;UserUserGroupsModule -->
<g id="edge2" class="edge">
<title>UserUserGroupListComponent&#45;&gt;UserUserGroupsModule</title>
<path fill="none" stroke="black" d="M804,-233.7C804,-252.93 804,-280.59 804,-280.59 804,-280.59 540.81,-280.59 540.81,-280.59"/>
<polygon fill="black" stroke="black" points="540.81,-277.09 530.81,-280.59 540.81,-284.09 540.81,-277.09"/>
</g>
<!-- {
 &#160;&#160;&#160;provide: ListService, useExisting: UserUserGroupListService,
} -->
<g id="node4" class="node">
<title>{
 &#160;&#160;&#160;provide: ListService, useExisting: UserUserGroupListService,
}</title>
<ellipse fill="#fdb462" stroke="black" cx="890" cy="-127.3" rx="268.2" ry="41.09"/>
<text text-anchor="middle" x="890" y="-139.9" font-family="Times,serif" font-size="14.00">{</text>
<text text-anchor="middle" x="890" y="-123.1" font-family="Times,serif" font-size="14.00"> &#160;&#160;&#160;provide: ListService, useExisting: UserUserGroupListService,</text>
<text text-anchor="middle" x="890" y="-106.3" font-family="Times,serif" font-size="14.00">}</text>
</g>
<!-- {
 &#160;&#160;&#160;provide: ListService, useExisting: UserUserGroupListService,
}&#45;&gt;UserUserGroupListComponent -->
<g id="edge3" class="edge">
<title>{
 &#160;&#160;&#160;provide: ListService, useExisting: UserUserGroupListService,
}&#45;&gt;UserUserGroupListComponent</title>
<path fill="none" stroke="black" d="M804,-166.54C804,-166.54 804,-187.21 804,-187.21"/>
<polygon fill="black" stroke="black" points="800.5,-187.21 804,-197.21 807.5,-187.21 800.5,-187.21"/>
</g>
<!-- I18nModule -->
<g id="node5" class="node">
<title>I18nModule</title>
<polygon fill="#8dd3c7" stroke="black" points="597.71,-233.59 594.71,-237.59 573.71,-237.59 570.71,-233.59 512.29,-233.59 512.29,-197.59 597.71,-197.59 597.71,-233.59"/>
<text text-anchor="middle" x="555" y="-211.39" font-family="Times,serif" font-size="14.00">I18nModule</text>
</g>
<!-- I18nModule&#45;&gt;UserUserGroupsModule -->
<g id="edge4" class="edge">
<title>I18nModule&#45;&gt;UserUserGroupsModule</title>
<path fill="none" stroke="black" d="M521.6,-233.7C521.6,-233.7 521.6,-252.58 521.6,-252.58"/>
<polygon fill="black" stroke="black" points="518.1,-252.58 521.6,-262.58 525.1,-252.58 518.1,-252.58"/>
</g>
<!-- ListModule -->
<g id="node6" class="node">
<title>ListModule</title>
<polygon fill="#8dd3c7" stroke="black" points="494.83,-233.59 491.83,-237.59 470.83,-237.59 467.83,-233.59 413.17,-233.59 413.17,-197.59 494.83,-197.59 494.83,-233.59"/>
<text text-anchor="middle" x="454" y="-211.39" font-family="Times,serif" font-size="14.00">ListModule</text>
</g>
<!-- ListModule&#45;&gt;UserUserGroupsModule -->
<g id="edge5" class="edge">
<title>ListModule&#45;&gt;UserUserGroupsModule</title>
<path fill="none" stroke="black" d="M454,-233.7C454,-233.7 454,-252.58 454,-252.58"/>
<polygon fill="black" stroke="black" points="450.5,-252.58 454,-262.58 457.5,-252.58 450.5,-252.58"/>
</g>
<!-- SubListModule -->
<g id="node7" class="node">
<title>SubListModule</title>
<polygon fill="#8dd3c7" stroke="black" points="395.61,-233.59 392.61,-237.59 371.61,-237.59 368.61,-233.59 292.39,-233.59 292.39,-197.59 395.61,-197.59 395.61,-233.59"/>
<text text-anchor="middle" x="344" y="-211.39" font-family="Times,serif" font-size="14.00">SubListModule</text>
</g>
<!-- SubListModule&#45;&gt;UserUserGroupsModule -->
<g id="edge6" class="edge">
<title>SubListModule&#45;&gt;UserUserGroupsModule</title>
<path fill="none" stroke="black" d="M386.37,-233.7C386.37,-233.7 386.37,-252.58 386.37,-252.58"/>
<polygon fill="black" stroke="black" points="382.87,-252.58 386.37,-262.58 389.87,-252.58 382.87,-252.58"/>
</g>
</g>
</svg>
