<?xml version="1.0" encoding="UTF-8" standalone="no"?>
<!DOCTYPE svg PUBLIC "-//W3C//DTD SVG 1.1//EN"
 "http://www.w3.org/Graphics/SVG/1.1/DTD/svg11.dtd">
<!-- Generated by graphviz version 2.47.3 (20210619.1520)
 -->
<!-- Title: dependencies Pages: 1 -->
<svg width="1190pt" height="285pt"
 viewBox="0.00 0.00 1190.00 285.39" xmlns="http://www.w3.org/2000/svg" xmlns:xlink="http://www.w3.org/1999/xlink">
<g id="graph0" class="graph" transform="scale(1 1) rotate(0) translate(4 281.39)">
<title>dependencies</title>
<polygon fill="white" stroke="transparent" points="-4,4 -4,-281.39 1186,-281.39 1186,4 -4,4"/>
<text text-anchor="middle" x="591" y="-8.2" font-family="sans-serif" font-size="14.00">dependencies</text>
<g id="clust1" class="cluster">
<title>cluster_UserUserGroupsModule</title>
<polygon fill="none" stroke="black" stroke-dasharray="1,5" points="8,-32.8 8,-269.39 1174,-269.39 1174,-32.8 8,-32.8"/>
</g>
<g id="clust4" class="cluster">
<title>cluster_UserUserGroupsModule_UserUserGroupListComponent_providers</title>
<polygon fill="none" stroke="black" points="614,-40.8 614,-204.39 1166,-204.39 1166,-40.8 614,-40.8"/>
</g>
<g id="clust5" class="cluster">
<title>cluster_UserUserGroupsModule_imports</title>
<polygon fill="none" stroke="black" points="284,-152.39 284,-204.39 606,-204.39 606,-152.39 284,-152.39"/>
</g>
<g id="clust2" class="cluster">
<title>cluster_UserUserGroupsModule_declarations</title>
<polygon fill="none" stroke="black" points="16,-152.39 16,-204.39 276,-204.39 276,-152.39 16,-152.39"/>
</g>
<!-- UserAssignedUserGroupListComponent -->
<g id="node1" class="node">
<title>UserAssignedUserGroupListComponent</title>
<polygon fill="#ffffb3" stroke="black" points="267.83,-196.39 24.17,-196.39 24.17,-160.39 267.83,-160.39 267.83,-196.39"/>
<text text-anchor="middle" x="146" y="-174.19" font-family="Times,serif" font-size="14.00">UserAssignedUserGroupListComponent</text>
</g>
<!-- UserUserGroupsModule -->
<g id="node3" class="node">
<title>UserUserGroupsModule</title>
<polygon fill="#8dd3c7" stroke="black" points="530.61,-261.39 527.61,-265.39 506.61,-265.39 503.61,-261.39 377.39,-261.39 377.39,-225.39 530.61,-225.39 530.61,-261.39"/>
<text text-anchor="middle" x="454" y="-239.19" font-family="Times,serif" font-size="14.00">UserUserGroupsModule</text>
</g>
<!-- UserAssignedUserGroupListComponent&#45;&gt;UserUserGroupsModule -->
<g id="edge1" class="edge">
<title>UserAssignedUserGroupListComponent&#45;&gt;UserUserGroupsModule</title>
<path fill="none" stroke="black" d="M146,-196.5C146,-215.73 146,-243.39 146,-243.39 146,-243.39 367.07,-243.39 367.07,-243.39"/>
<polygon fill="black" stroke="black" points="367.07,-246.89 377.07,-243.39 367.07,-239.89 367.07,-246.89"/>
</g>
<!-- UserUserGroupListComponent -->
<g id="node2" class="node">
<title>UserUserGroupListComponent</title>
<polygon fill="#ffffb3" stroke="black" points="899.73,-196.39 708.27,-196.39 708.27,-160.39 899.73,-160.39 899.73,-196.39"/>
<text text-anchor="middle" x="804" y="-174.19" font-family="Times,serif" font-size="14.00">UserUserGroupListComponent</text>
</g>
<!-- UserUserGroupListComponent&#45;&gt;UserUserGroupsModule -->
<g id="edge2" class="edge">
<title>UserUserGroupListComponent&#45;&gt;UserUserGroupsModule</title>
<path fill="none" stroke="black" d="M804,-196.5C804,-215.73 804,-243.39 804,-243.39 804,-243.39 540.81,-243.39 540.81,-243.39"/>
<polygon fill="black" stroke="black" points="540.81,-239.89 530.81,-243.39 540.81,-246.89 540.81,-239.89"/>
</g>
<!-- {
 &#160;&#160;&#160;provide: ListService, useExisting: UserUserGroupListService,
} -->
<g id="node4" class="node">
<title>{
 &#160;&#160;&#160;provide: ListService, useExisting: UserUserGroupListService,
}</title>
<ellipse fill="#fdb462" stroke="black" cx="890" cy="-90.1" rx="268.2" ry="41.09"/>
<text text-anchor="middle" x="890" y="-102.7" font-family="Times,serif" font-size="14.00">{</text>
<text text-anchor="middle" x="890" y="-85.9" font-family="Times,serif" font-size="14.00"> &#160;&#160;&#160;provide: ListService, useExisting: UserUserGroupListService,</text>
<text text-anchor="middle" x="890" y="-69.1" font-family="Times,serif" font-size="14.00">}</text>
</g>
<!-- {
 &#160;&#160;&#160;provide: ListService, useExisting: UserUserGroupListService,
}&#45;&gt;UserUserGroupListComponent -->
<g id="edge3" class="edge">
<title>{
 &#160;&#160;&#160;provide: ListService, useExisting: UserUserGroupListService,
}&#45;&gt;UserUserGroupListComponent</title>
<path fill="none" stroke="black" d="M804,-129.34C804,-129.34 804,-150.01 804,-150.01"/>
<polygon fill="black" stroke="black" points="800.5,-150.01 804,-160.01 807.5,-150.01 800.5,-150.01"/>
</g>
<!-- I18nModule -->
<g id="node5" class="node">
<title>I18nModule</title>
<polygon fill="#8dd3c7" stroke="black" points="597.71,-196.39 594.71,-200.39 573.71,-200.39 570.71,-196.39 512.29,-196.39 512.29,-160.39 597.71,-160.39 597.71,-196.39"/>
<text text-anchor="middle" x="555" y="-174.19" font-family="Times,serif" font-size="14.00">I18nModule</text>
</g>
<!-- I18nModule&#45;&gt;UserUserGroupsModule -->
<g id="edge4" class="edge">
<title>I18nModule&#45;&gt;UserUserGroupsModule</title>
<path fill="none" stroke="black" d="M521.6,-196.5C521.6,-196.5 521.6,-215.38 521.6,-215.38"/>
<polygon fill="black" stroke="black" points="518.1,-215.38 521.6,-225.38 525.1,-215.38 518.1,-215.38"/>
</g>
<!-- ListModule -->
<g id="node6" class="node">
<title>ListModule</title>
<polygon fill="#8dd3c7" stroke="black" points="494.83,-196.39 491.83,-200.39 470.83,-200.39 467.83,-196.39 413.17,-196.39 413.17,-160.39 494.83,-160.39 494.83,-196.39"/>
<text text-anchor="middle" x="454" y="-174.19" font-family="Times,serif" font-size="14.00">ListModule</text>
</g>
<!-- ListModule&#45;&gt;UserUserGroupsModule -->
<g id="edge5" class="edge">
<title>ListModule&#45;&gt;UserUserGroupsModule</title>
<path fill="none" stroke="black" d="M454,-196.5C454,-196.5 454,-215.38 454,-215.38"/>
<polygon fill="black" stroke="black" points="450.5,-215.38 454,-225.38 457.5,-215.38 450.5,-215.38"/>
</g>
<!-- SubListModule -->
<g id="node7" class="node">
<title>SubListModule</title>
<polygon fill="#8dd3c7" stroke="black" points="395.61,-196.39 392.61,-200.39 371.61,-200.39 368.61,-196.39 292.39,-196.39 292.39,-160.39 395.61,-160.39 395.61,-196.39"/>
<text text-anchor="middle" x="344" y="-174.19" font-family="Times,serif" font-size="14.00">SubListModule</text>
</g>
<!-- SubListModule&#45;&gt;UserUserGroupsModule -->
<g id="edge6" class="edge">
<title>SubListModule&#45;&gt;UserUserGroupsModule</title>
<path fill="none" stroke="black" d="M386.37,-196.5C386.37,-196.5 386.37,-215.38 386.37,-215.38"/>
<polygon fill="black" stroke="black" points="382.87,-215.38 386.37,-225.38 389.87,-215.38 382.87,-215.38"/>
</g>
</g>
</svg>
