<?xml version="1.0" encoding="UTF-8" standalone="no"?>
<!DOCTYPE svg PUBLIC "-//W3C//DTD SVG 1.1//EN"
 "http://www.w3.org/Graphics/SVG/1.1/DTD/svg11.dtd">
<!-- Generated by graphviz version 2.47.0 (20210316.0004)
 -->
<!-- Title: dependencies Pages: 1 -->
<svg width="1190pt" height="323pt"
 viewBox="0.00 0.00 1190.00 322.59" xmlns="http://www.w3.org/2000/svg" xmlns:xlink="http://www.w3.org/1999/xlink">
<g id="graph0" class="graph" transform="scale(1 1) rotate(0) translate(4 318.59)">
<title>dependencies</title>
<polygon fill="white" stroke="transparent" points="-4,4 -4,-318.59 1186,-318.59 1186,4 -4,4"/>
<text text-anchor="start" x="570.01" y="-42.4" font-family="sans-serif" font-weight="bold" font-size="14.00">Legend</text>
<polygon fill="#ffffb3" stroke="transparent" points="357,-10 357,-30 377,-30 377,-10 357,-10"/>
<text text-anchor="start" x="380.63" y="-15.4" font-family="sans-serif" font-size="14.00"> &#160;Declarations</text>
<polygon fill="#8dd3c7" stroke="transparent" points="470,-10 470,-30 490,-30 490,-10 470,-10"/>
<text text-anchor="start" x="493.73" y="-15.4" font-family="sans-serif" font-size="14.00"> &#160;Module</text>
<polygon fill="#80b1d3" stroke="transparent" points="556,-10 556,-30 576,-30 576,-10 556,-10"/>
<text text-anchor="start" x="579.78" y="-15.4" font-family="sans-serif" font-size="14.00"> &#160;Bootstrap</text>
<polygon fill="#fdb462" stroke="transparent" points="653,-10 653,-30 673,-30 673,-10 653,-10"/>
<text text-anchor="start" x="676.67" y="-15.4" font-family="sans-serif" font-size="14.00"> &#160;Providers</text>
<polygon fill="#fb8072" stroke="transparent" points="749,-10 749,-30 769,-30 769,-10 749,-10"/>
<text text-anchor="start" x="772.73" y="-15.4" font-family="sans-serif" font-size="14.00"> &#160;Exports</text>
<g id="clust1" class="cluster">
<title>cluster_UserUserGroupsModule</title>
<polygon fill="none" stroke="black" stroke-dasharray="1,5" points="8,-70 8,-306.59 1174,-306.59 1174,-70 8,-70"/>
</g>
<g id="clust5" class="cluster">
<title>cluster_UserUserGroupsModule_imports</title>
<polygon fill="none" stroke="black" points="844,-189.59 844,-241.59 1166,-241.59 1166,-189.59 844,-189.59"/>
</g>
<g id="clust4" class="cluster">
<title>cluster_UserUserGroupsModule_UserUserGroupListComponent_providers</title>
<polygon fill="none" stroke="black" points="284,-78 284,-241.59 836,-241.59 836,-78 284,-78"/>
</g>
<g id="clust2" class="cluster">
<title>cluster_UserUserGroupsModule_declarations</title>
<polygon fill="none" stroke="black" points="16,-189.59 16,-241.59 276,-241.59 276,-189.59 16,-189.59"/>
</g>
<!-- UserAssignedUserGroupListComponent -->
<g id="node1" class="node">
<title>UserAssignedUserGroupListComponent</title>
<polygon fill="#ffffb3" stroke="black" points="267.83,-233.59 24.17,-233.59 24.17,-197.59 267.83,-197.59 267.83,-233.59"/>
<text text-anchor="middle" x="146" y="-211.39" font-family="Times,serif" font-size="14.00">UserAssignedUserGroupListComponent</text>
</g>
<!-- UserUserGroupsModule -->
<g id="node3" class="node">
<title>UserUserGroupsModule</title>
<polygon fill="#8dd3c7" stroke="black" points="980.61,-298.59 977.61,-302.59 956.61,-302.59 953.61,-298.59 827.39,-298.59 827.39,-262.59 980.61,-262.59 980.61,-298.59"/>
<text text-anchor="middle" x="904" y="-276.39" font-family="Times,serif" font-size="14.00">UserUserGroupsModule</text>
</g>
<!-- UserAssignedUserGroupListComponent&#45;&gt;UserUserGroupsModule -->
<g id="edge1" class="edge">
<title>UserAssignedUserGroupListComponent&#45;&gt;UserUserGroupsModule</title>
<path fill="none" stroke="black" d="M146,-233.7C146,-252.93 146,-280.59 146,-280.59 146,-280.59 817.15,-280.59 817.15,-280.59"/>
<polygon fill="black" stroke="black" points="817.15,-284.09 827.15,-280.59 817.15,-277.09 817.15,-284.09"/>
</g>
<!-- UserUserGroupListComponent -->
<g id="node2" class="node">
<title>UserUserGroupListComponent</title>
<polygon fill="#ffffb3" stroke="black" points="741.73,-233.59 550.27,-233.59 550.27,-197.59 741.73,-197.59 741.73,-233.59"/>
<text text-anchor="middle" x="646" y="-211.39" font-family="Times,serif" font-size="14.00">UserUserGroupListComponent</text>
</g>
<!-- UserUserGroupListComponent&#45;&gt;UserUserGroupsModule -->
<g id="edge2" class="edge">
<title>UserUserGroupListComponent&#45;&gt;UserUserGroupsModule</title>
<path fill="none" stroke="black" d="M741.78,-215.59C790.84,-215.59 840.4,-215.59 840.4,-215.59 840.4,-215.59 840.4,-252.48 840.4,-252.48"/>
<polygon fill="black" stroke="black" points="836.9,-252.48 840.4,-262.48 843.9,-252.48 836.9,-252.48"/>
</g>
<!-- {
 &#160;&#160;&#160;provide: ListService, useExisting: UserUserGroupListService,
} -->
<g id="node4" class="node">
<title>{
 &#160;&#160;&#160;provide: ListService, useExisting: UserUserGroupListService,
}</title>
<ellipse fill="#fdb462" stroke="black" cx="560" cy="-127.3" rx="268.2" ry="41.09"/>
<text text-anchor="middle" x="560" y="-139.9" font-family="Times,serif" font-size="14.00">{</text>
<text text-anchor="middle" x="560" y="-123.1" font-family="Times,serif" font-size="14.00"> &#160;&#160;&#160;provide: ListService, useExisting: UserUserGroupListService,</text>
<text text-anchor="middle" x="560" y="-106.3" font-family="Times,serif" font-size="14.00">}</text>
</g>
<!-- {
 &#160;&#160;&#160;provide: ListService, useExisting: UserUserGroupListService,
}&#45;&gt;UserUserGroupListComponent -->
<g id="edge3" class="edge">
<title>{
 &#160;&#160;&#160;provide: ListService, useExisting: UserUserGroupListService,
}&#45;&gt;UserUserGroupListComponent</title>
<path fill="none" stroke="black" d="M646,-166.54C646,-166.54 646,-187.21 646,-187.21"/>
<polygon fill="black" stroke="black" points="642.5,-187.21 646,-197.21 649.5,-187.21 642.5,-187.21"/>
</g>
<!-- I18nModule -->
<g id="node5" class="node">
<title>I18nModule</title>
<polygon fill="#8dd3c7" stroke="black" points="1157.71,-233.59 1154.71,-237.59 1133.71,-237.59 1130.71,-233.59 1072.29,-233.59 1072.29,-197.59 1157.71,-197.59 1157.71,-233.59"/>
<text text-anchor="middle" x="1115" y="-211.39" font-family="Times,serif" font-size="14.00">I18nModule</text>
</g>
<!-- I18nModule&#45;&gt;UserUserGroupsModule -->
<g id="edge4" class="edge">
<title>I18nModule&#45;&gt;UserUserGroupsModule</title>
<path fill="none" stroke="black" d="M1115,-233.7C1115,-252.93 1115,-280.59 1115,-280.59 1115,-280.59 990.77,-280.59 990.77,-280.59"/>
<polygon fill="black" stroke="black" points="990.77,-277.09 980.77,-280.59 990.77,-284.09 990.77,-277.09"/>
</g>
<!-- ListModule -->
<g id="node6" class="node">
<title>ListModule</title>
<polygon fill="#8dd3c7" stroke="black" points="1054.83,-233.59 1051.83,-237.59 1030.83,-237.59 1027.83,-233.59 973.17,-233.59 973.17,-197.59 1054.83,-197.59 1054.83,-233.59"/>
<text text-anchor="middle" x="1014" y="-211.39" font-family="Times,serif" font-size="14.00">ListModule</text>
</g>
<!-- ListModule&#45;&gt;UserUserGroupsModule -->
<g id="edge5" class="edge">
<title>ListModule&#45;&gt;UserUserGroupsModule</title>
<path fill="none" stroke="black" d="M977.07,-233.7C977.07,-233.7 977.07,-252.58 977.07,-252.58"/>
<polygon fill="black" stroke="black" points="973.57,-252.58 977.07,-262.58 980.57,-252.58 973.57,-252.58"/>
</g>
<!-- SubListModule -->
<g id="node7" class="node">
<title>SubListModule</title>
<polygon fill="#8dd3c7" stroke="black" points="955.61,-233.59 952.61,-237.59 931.61,-237.59 928.61,-233.59 852.39,-233.59 852.39,-197.59 955.61,-197.59 955.61,-233.59"/>
<text text-anchor="middle" x="904" y="-211.39" font-family="Times,serif" font-size="14.00">SubListModule</text>
</g>
<!-- SubListModule&#45;&gt;UserUserGroupsModule -->
<g id="edge6" class="edge">
<title>SubListModule&#45;&gt;UserUserGroupsModule</title>
<path fill="none" stroke="black" d="M904,-233.7C904,-233.7 904,-252.58 904,-252.58"/>
<polygon fill="black" stroke="black" points="900.5,-252.58 904,-262.58 907.5,-252.58 900.5,-252.58"/>
</g>
</g>
</svg>
