<?xml version="1.0" encoding="UTF-8" standalone="no"?>
<!DOCTYPE svg PUBLIC "-//W3C//DTD SVG 1.1//EN"
 "http://www.w3.org/Graphics/SVG/1.1/DTD/svg11.dtd">
<!-- Generated by graphviz version 2.47.3 (20210619.1520)
 -->
<!-- Title: dependencies Pages: 1 -->
<svg width="840pt" height="174pt"
 viewBox="0.00 0.00 840.00 173.80" xmlns="http://www.w3.org/2000/svg" xmlns:xlink="http://www.w3.org/1999/xlink">
<g id="graph0" class="graph" transform="scale(1 1) rotate(0) translate(4 169.8)">
<title>dependencies</title>
<polygon fill="white" stroke="transparent" points="-4,4 -4,-169.8 836,-169.8 836,4 -4,4"/>
<text text-anchor="middle" x="416" y="-8.2" font-family="sans-serif" font-size="14.00">dependencies</text>
<g id="clust1" class="cluster">
<title>cluster_UserUserGroupsModule</title>
<polygon fill="none" stroke="black" stroke-dasharray="1,5" points="8,-32.8 8,-157.8 824,-157.8 824,-32.8 8,-32.8"/>
</g>
<g id="clust2" class="cluster">
<title>cluster_UserUserGroupsModule_declarations</title>
<polygon fill="none" stroke="black" points="346,-40.8 346,-92.8 816,-92.8 816,-40.8 346,-40.8"/>
</g>
<g id="clust5" class="cluster">
<title>cluster_UserUserGroupsModule_imports</title>
<polygon fill="none" stroke="black" points="16,-40.8 16,-92.8 338,-92.8 338,-40.8 16,-40.8"/>
</g>
<!-- UserAssignedUserGroupListComponent -->
<g id="node1" class="node">
<title>UserAssignedUserGroupListComponent</title>
<polygon fill="#ffffb3" stroke="black" points="807.83,-84.8 564.17,-84.8 564.17,-48.8 807.83,-48.8 807.83,-84.8"/>
<text text-anchor="middle" x="686" y="-62.6" font-family="Times,serif" font-size="14.00">UserAssignedUserGroupListComponent</text>
</g>
<!-- UserUserGroupsModule -->
<g id="node3" class="node">
<title>UserUserGroupsModule</title>
<polygon fill="#8dd3c7" stroke="black" points="363.61,-149.8 360.61,-153.8 339.61,-153.8 336.61,-149.8 210.39,-149.8 210.39,-113.8 363.61,-113.8 363.61,-149.8"/>
<text text-anchor="middle" x="287" y="-127.6" font-family="Times,serif" font-size="14.00">UserUserGroupsModule</text>
</g>
<!-- UserAssignedUserGroupListComponent&#45;&gt;UserUserGroupsModule -->
<g id="edge1" class="edge">
<title>UserAssignedUserGroupListComponent&#45;&gt;UserUserGroupsModule</title>
<path fill="none" stroke="black" d="M686,-84.91C686,-104.14 686,-131.8 686,-131.8 686,-131.8 373.93,-131.8 373.93,-131.8"/>
<polygon fill="black" stroke="black" points="373.93,-128.3 363.93,-131.8 373.93,-135.3 373.93,-128.3"/>
</g>
<!-- UserUserGroupListComponent -->
<g id="node2" class="node">
<title>UserUserGroupListComponent</title>
<polygon fill="#ffffb3" stroke="black" points="545.73,-84.8 354.27,-84.8 354.27,-48.8 545.73,-48.8 545.73,-84.8"/>
<text text-anchor="middle" x="450" y="-62.6" font-family="Times,serif" font-size="14.00">UserUserGroupListComponent</text>
</g>
<!-- UserUserGroupListComponent&#45;&gt;UserUserGroupsModule -->
<g id="edge2" class="edge">
<title>UserUserGroupListComponent&#45;&gt;UserUserGroupsModule</title>
<path fill="none" stroke="black" d="M358.97,-84.91C358.97,-84.91 358.97,-103.79 358.97,-103.79"/>
<polygon fill="black" stroke="black" points="355.47,-103.79 358.97,-113.79 362.47,-103.79 355.47,-103.79"/>
</g>
<!-- I18nModule -->
<g id="node4" class="node">
<title>I18nModule</title>
<polygon fill="#8dd3c7" stroke="black" points="329.71,-84.8 326.71,-88.8 305.71,-88.8 302.71,-84.8 244.29,-84.8 244.29,-48.8 329.71,-48.8 329.71,-84.8"/>
<text text-anchor="middle" x="287" y="-62.6" font-family="Times,serif" font-size="14.00">I18nModule</text>
</g>
<!-- I18nModule&#45;&gt;UserUserGroupsModule -->
<g id="edge3" class="edge">
<title>I18nModule&#45;&gt;UserUserGroupsModule</title>
<path fill="none" stroke="black" d="M287,-84.91C287,-84.91 287,-103.79 287,-103.79"/>
<polygon fill="black" stroke="black" points="283.5,-103.79 287,-113.79 290.5,-103.79 283.5,-103.79"/>
</g>
<!-- ListModule -->
<g id="node5" class="node">
<title>ListModule</title>
<polygon fill="#8dd3c7" stroke="black" points="226.83,-84.8 223.83,-88.8 202.83,-88.8 199.83,-84.8 145.17,-84.8 145.17,-48.8 226.83,-48.8 226.83,-84.8"/>
<text text-anchor="middle" x="186" y="-62.6" font-family="Times,serif" font-size="14.00">ListModule</text>
</g>
<!-- ListModule&#45;&gt;UserUserGroupsModule -->
<g id="edge4" class="edge">
<title>ListModule&#45;&gt;UserUserGroupsModule</title>
<path fill="none" stroke="black" d="M218.43,-84.91C218.43,-84.91 218.43,-103.79 218.43,-103.79"/>
<polygon fill="black" stroke="black" points="214.93,-103.79 218.43,-113.79 221.93,-103.79 214.93,-103.79"/>
</g>
<!-- SubListModule -->
<g id="node6" class="node">
<title>SubListModule</title>
<polygon fill="#8dd3c7" stroke="black" points="127.61,-84.8 124.61,-88.8 103.61,-88.8 100.61,-84.8 24.39,-84.8 24.39,-48.8 127.61,-48.8 127.61,-84.8"/>
<text text-anchor="middle" x="76" y="-62.6" font-family="Times,serif" font-size="14.00">SubListModule</text>
</g>
<!-- SubListModule&#45;&gt;UserUserGroupsModule -->
<g id="edge5" class="edge">
<title>SubListModule&#45;&gt;UserUserGroupsModule</title>
<path fill="none" stroke="black" d="M76,-84.91C76,-104.14 76,-131.8 76,-131.8 76,-131.8 200.23,-131.8 200.23,-131.8"/>
<polygon fill="black" stroke="black" points="200.23,-135.3 210.23,-131.8 200.23,-128.3 200.23,-135.3"/>
</g>
</g>
</svg>
