<?xml version="1.0" encoding="UTF-8" standalone="no"?>
<!DOCTYPE svg PUBLIC "-//W3C//DTD SVG 1.1//EN"
 "http://www.w3.org/Graphics/SVG/1.1/DTD/svg11.dtd">
<!-- Generated by graphviz version 2.47.3 (20210619.1520)
 -->
<!-- Title: dependencies Pages: 1 -->
<svg width="1190pt" height="285pt"
 viewBox="0.00 0.00 1190.00 285.39" xmlns="http://www.w3.org/2000/svg" xmlns:xlink="http://www.w3.org/1999/xlink">
<g id="graph0" class="graph" transform="scale(1 1) rotate(0) translate(4 281.39)">
<title>dependencies</title>
<polygon fill="white" stroke="transparent" points="-4,4 -4,-281.39 1186,-281.39 1186,4 -4,4"/>
<text text-anchor="middle" x="591" y="-8.2" font-family="sans-serif" font-size="14.00">dependencies</text>
<g id="clust1" class="cluster">
<title>cluster_UserUserGroupsModule</title>
<polygon fill="none" stroke="black" stroke-dasharray="1,5" points="8,-32.8 8,-269.39 1174,-269.39 1174,-32.8 8,-32.8"/>
</g>
<g id="clust4" class="cluster">
<title>cluster_UserUserGroupsModule_UserUserGroupListComponent_providers</title>
<polygon fill="none" stroke="black" points="614,-40.8 614,-204.39 1166,-204.39 1166,-40.8 614,-40.8"/>
</g>
<g id="clust2" class="cluster">
<title>cluster_UserUserGroupsModule_declarations</title>
<polygon fill="none" stroke="black" points="346,-152.39 346,-204.39 606,-204.39 606,-152.39 346,-152.39"/>
</g>
<g id="clust5" class="cluster">
<title>cluster_UserUserGroupsModule_imports</title>
<polygon fill="none" stroke="black" points="16,-152.39 16,-204.39 338,-204.39 338,-152.39 16,-152.39"/>
</g>
<!-- UserAssignedUserGroupListComponent -->
<g id="node1" class="node">
<title>UserAssignedUserGroupListComponent</title>
<polygon fill="#ffffb3" stroke="black" points="597.83,-196.39 354.17,-196.39 354.17,-160.39 597.83,-160.39 597.83,-196.39"/>
<text text-anchor="middle" x="476" y="-174.19" font-family="Times,serif" font-size="14.00">UserAssignedUserGroupListComponent</text>
</g>
<!-- UserUserGroupsModule -->
<g id="node3" class="node">
<title>UserUserGroupsModule</title>
<polygon fill="#8dd3c7" stroke="black" points="363.61,-261.39 360.61,-265.39 339.61,-265.39 336.61,-261.39 210.39,-261.39 210.39,-225.39 363.61,-225.39 363.61,-261.39"/>
<text text-anchor="middle" x="287" y="-239.19" font-family="Times,serif" font-size="14.00">UserUserGroupsModule</text>
</g>
<!-- UserAssignedUserGroupListComponent&#45;&gt;UserUserGroupsModule -->
<g id="edge1" class="edge">
<title>UserAssignedUserGroupListComponent&#45;&gt;UserUserGroupsModule</title>
<path fill="none" stroke="black" d="M358.95,-196.5C358.95,-196.5 358.95,-215.38 358.95,-215.38"/>
<polygon fill="black" stroke="black" points="355.45,-215.38 358.95,-225.38 362.45,-215.38 355.45,-215.38"/>
</g>
<!-- UserUserGroupListComponent -->
<g id="node2" class="node">
<title>UserUserGroupListComponent</title>
<polygon fill="#ffffb3" stroke="black" points="899.73,-196.39 708.27,-196.39 708.27,-160.39 899.73,-160.39 899.73,-196.39"/>
<text text-anchor="middle" x="804" y="-174.19" font-family="Times,serif" font-size="14.00">UserUserGroupListComponent</text>
</g>
<!-- UserUserGroupListComponent&#45;&gt;UserUserGroupsModule -->
<g id="edge2" class="edge">
<title>UserUserGroupListComponent&#45;&gt;UserUserGroupsModule</title>
<path fill="none" stroke="black" d="M804,-196.5C804,-215.73 804,-243.39 804,-243.39 804,-243.39 373.84,-243.39 373.84,-243.39"/>
<polygon fill="black" stroke="black" points="373.84,-239.89 363.84,-243.39 373.84,-246.89 373.84,-239.89"/>
</g>
<!-- {
 &#160;&#160;&#160;provide: ListService, useExisting: UserUserGroupListService,
} -->
<g id="node4" class="node">
<title>{
 &#160;&#160;&#160;provide: ListService, useExisting: UserUserGroupListService,
}</title>
<ellipse fill="#fdb462" stroke="black" cx="890" cy="-90.1" rx="268.2" ry="41.09"/>
<text text-anchor="middle" x="890" y="-102.7" font-family="Times,serif" font-size="14.00">{</text>
<text text-anchor="middle" x="890" y="-85.9" font-family="Times,serif" font-size="14.00"> &#160;&#160;&#160;provide: ListService, useExisting: UserUserGroupListService,</text>
<text text-anchor="middle" x="890" y="-69.1" font-family="Times,serif" font-size="14.00">}</text>
</g>
<!-- {
 &#160;&#160;&#160;provide: ListService, useExisting: UserUserGroupListService,
}&#45;&gt;UserUserGroupListComponent -->
<g id="edge3" class="edge">
<title>{
 &#160;&#160;&#160;provide: ListService, useExisting: UserUserGroupListService,
}&#45;&gt;UserUserGroupListComponent</title>
<path fill="none" stroke="black" d="M804,-129.34C804,-129.34 804,-150.01 804,-150.01"/>
<polygon fill="black" stroke="black" points="800.5,-150.01 804,-160.01 807.5,-150.01 800.5,-150.01"/>
</g>
<!-- I18nModule -->
<g id="node5" class="node">
<title>I18nModule</title>
<polygon fill="#8dd3c7" stroke="black" points="329.71,-196.39 326.71,-200.39 305.71,-200.39 302.71,-196.39 244.29,-196.39 244.29,-160.39 329.71,-160.39 329.71,-196.39"/>
<text text-anchor="middle" x="287" y="-174.19" font-family="Times,serif" font-size="14.00">I18nModule</text>
</g>
<!-- I18nModule&#45;&gt;UserUserGroupsModule -->
<g id="edge4" class="edge">
<title>I18nModule&#45;&gt;UserUserGroupsModule</title>
<path fill="none" stroke="black" d="M287,-196.5C287,-196.5 287,-215.38 287,-215.38"/>
<polygon fill="black" stroke="black" points="283.5,-215.38 287,-225.38 290.5,-215.38 283.5,-215.38"/>
</g>
<!-- ListModule -->
<g id="node6" class="node">
<title>ListModule</title>
<polygon fill="#8dd3c7" stroke="black" points="226.83,-196.39 223.83,-200.39 202.83,-200.39 199.83,-196.39 145.17,-196.39 145.17,-160.39 226.83,-160.39 226.83,-196.39"/>
<text text-anchor="middle" x="186" y="-174.19" font-family="Times,serif" font-size="14.00">ListModule</text>
</g>
<!-- ListModule&#45;&gt;UserUserGroupsModule -->
<g id="edge5" class="edge">
<title>ListModule&#45;&gt;UserUserGroupsModule</title>
<path fill="none" stroke="black" d="M218.43,-196.5C218.43,-196.5 218.43,-215.38 218.43,-215.38"/>
<polygon fill="black" stroke="black" points="214.93,-215.38 218.43,-225.38 221.93,-215.38 214.93,-215.38"/>
</g>
<!-- SubListModule -->
<g id="node7" class="node">
<title>SubListModule</title>
<polygon fill="#8dd3c7" stroke="black" points="127.61,-196.39 124.61,-200.39 103.61,-200.39 100.61,-196.39 24.39,-196.39 24.39,-160.39 127.61,-160.39 127.61,-196.39"/>
<text text-anchor="middle" x="76" y="-174.19" font-family="Times,serif" font-size="14.00">SubListModule</text>
</g>
<!-- SubListModule&#45;&gt;UserUserGroupsModule -->
<g id="edge6" class="edge">
<title>SubListModule&#45;&gt;UserUserGroupsModule</title>
<path fill="none" stroke="black" d="M76,-196.5C76,-215.73 76,-243.39 76,-243.39 76,-243.39 200.23,-243.39 200.23,-243.39"/>
<polygon fill="black" stroke="black" points="200.23,-246.89 210.23,-243.39 200.23,-239.89 200.23,-246.89"/>
</g>
</g>
</svg>
