<?xml version="1.0" encoding="UTF-8" standalone="no"?>
<!DOCTYPE svg PUBLIC "-//W3C//DTD SVG 1.1//EN"
 "http://www.w3.org/Graphics/SVG/1.1/DTD/svg11.dtd">
<!-- Generated by graphviz version 2.40.1 (20161225.0304)
 -->
<!-- Title: dependencies Pages: 1 -->
<svg width="504pt" height="284pt"
 viewBox="0.00 0.00 504.00 284.00" xmlns="http://www.w3.org/2000/svg" xmlns:xlink="http://www.w3.org/1999/xlink">
<g id="graph0" class="graph" transform="scale(1 1) rotate(0) translate(4 280)">
<title>dependencies</title>
<polygon fill="#ffffff" stroke="transparent" points="-4,4 -4,-280 500,-280 500,4 -4,4"/>
<text text-anchor="start" x="227.0091" y="-42.4" font-family="sans-serif" font-weight="bold" font-size="14.00" fill="#000000">Legend</text>
<polygon fill="#ffffb3" stroke="transparent" points="14,-10 14,-30 34,-30 34,-10 14,-10"/>
<text text-anchor="start" x="37.629" y="-15.4" font-family="sans-serif" font-size="14.00" fill="#000000"> &#160;Declarations</text>
<polygon fill="#8dd3c7" stroke="transparent" points="127,-10 127,-30 147,-30 147,-10 127,-10"/>
<text text-anchor="start" x="150.7251" y="-15.4" font-family="sans-serif" font-size="14.00" fill="#000000"> &#160;Module</text>
<polygon fill="#80b1d3" stroke="transparent" points="213,-10 213,-30 233,-30 233,-10 213,-10"/>
<text text-anchor="start" x="236.7812" y="-15.4" font-family="sans-serif" font-size="14.00" fill="#000000"> &#160;Bootstrap</text>
<polygon fill="#fdb462" stroke="transparent" points="310,-10 310,-30 330,-30 330,-10 310,-10"/>
<text text-anchor="start" x="333.6732" y="-15.4" font-family="sans-serif" font-size="14.00" fill="#000000"> &#160;Providers</text>
<polygon fill="#fb8072" stroke="transparent" points="406,-10 406,-30 426,-30 426,-10 406,-10"/>
<text text-anchor="start" x="429.7258" y="-15.4" font-family="sans-serif" font-size="14.00" fill="#000000"> &#160;Exports</text>
<g id="clust1" class="cluster">
<title>cluster_ConfiguratorTabBarModule</title>
<polygon fill="none" stroke="#000000" stroke-dasharray="1,5" points="31,-70 31,-268 465,-268 465,-70 31,-70"/>
</g>
<g id="clust2" class="cluster">
<title>cluster_ConfiguratorTabBarModule_declarations</title>
<polygon fill="none" stroke="#000000" points="245,-78 245,-130 457,-130 457,-78 245,-78"/>
</g>
<g id="clust4" class="cluster">
<title>cluster_ConfiguratorTabBarModule_imports</title>
<polygon fill="none" stroke="#000000" points="39,-78 39,-130 237,-130 237,-78 39,-78"/>
</g>
<g id="clust5" class="cluster">
<title>cluster_ConfiguratorTabBarModule_exports</title>
<polygon fill="none" stroke="#000000" points="78,-208 78,-260 294,-260 294,-208 78,-208"/>
</g>
<!-- ConfiguratorTabBarComponent -->
<g id="node1" class="node">
<title>ConfiguratorTabBarComponent</title>
<polygon fill="#ffffb3" stroke="#000000" points="448.626,-122 253.374,-122 253.374,-86 448.626,-86 448.626,-122"/>
<text text-anchor="middle" x="351" y="-99.8" font-family="Times,serif" font-size="14.00" fill="#000000">ConfiguratorTabBarComponent</text>
</g>
<!-- ConfiguratorTabBarModule -->
<g id="node2" class="node">
<title>ConfiguratorTabBarModule</title>
<polygon fill="#8dd3c7" stroke="#000000" points="272.8431,-187 269.8431,-191 248.8431,-191 245.8431,-187 99.1569,-187 99.1569,-151 272.8431,-151 272.8431,-187"/>
<text text-anchor="middle" x="186" y="-164.8" font-family="Times,serif" font-size="14.00" fill="#000000">ConfiguratorTabBarModule</text>
</g>
<!-- ConfiguratorTabBarComponent&#45;&gt;ConfiguratorTabBarModule -->
<g id="edge1" class="edge">
<title>ConfiguratorTabBarComponent&#45;&gt;ConfiguratorTabBarModule</title>
<path fill="none" stroke="#000000" d="M263.0544,-122.1061C263.0544,-122.1061 263.0544,-140.991 263.0544,-140.991"/>
<polygon fill="#000000" stroke="#000000" points="259.5544,-140.9909 263.0544,-150.991 266.5544,-140.991 259.5544,-140.9909"/>
</g>
<!-- ConfiguratorTabBarComponent  -->
<g id="node5" class="node">
<title>ConfiguratorTabBarComponent </title>
<polygon fill="#fb8072" stroke="#000000" points="285.6256,-252 86.3744,-252 86.3744,-216 285.6256,-216 285.6256,-252"/>
<text text-anchor="middle" x="186" y="-229.8" font-family="Times,serif" font-size="14.00" fill="#000000">ConfiguratorTabBarComponent </text>
</g>
<!-- ConfiguratorTabBarModule&#45;&gt;ConfiguratorTabBarComponent  -->
<g id="edge4" class="edge">
<title>ConfiguratorTabBarModule&#45;&gt;ConfiguratorTabBarComponent </title>
<path fill="none" stroke="#000000" stroke-dasharray="5,2" d="M186,-187.1061C186,-187.1061 186,-205.991 186,-205.991"/>
<polygon fill="#000000" stroke="#000000" points="182.5001,-205.9909 186,-215.991 189.5001,-205.991 182.5001,-205.9909"/>
</g>
<!-- I18nModule -->
<g id="node3" class="node">
<title>I18nModule</title>
<polygon fill="#8dd3c7" stroke="#000000" points="228.7107,-122 225.7107,-126 204.7107,-126 201.7107,-122 143.2893,-122 143.2893,-86 228.7107,-86 228.7107,-122"/>
<text text-anchor="middle" x="186" y="-99.8" font-family="Times,serif" font-size="14.00" fill="#000000">I18nModule</text>
</g>
<!-- I18nModule&#45;&gt;ConfiguratorTabBarModule -->
<g id="edge2" class="edge">
<title>I18nModule&#45;&gt;ConfiguratorTabBarModule</title>
<path fill="none" stroke="#000000" d="M186,-122.1061C186,-122.1061 186,-140.991 186,-140.991"/>
<polygon fill="#000000" stroke="#000000" points="182.5001,-140.9909 186,-150.991 189.5001,-140.991 182.5001,-140.9909"/>
</g>
<!-- UrlModule -->
<g id="node4" class="node">
<title>UrlModule</title>
<polygon fill="#8dd3c7" stroke="#000000" points="125.2079,-122 122.2079,-126 101.2079,-126 98.2079,-122 46.7921,-122 46.7921,-86 125.2079,-86 125.2079,-122"/>
<text text-anchor="middle" x="86" y="-99.8" font-family="Times,serif" font-size="14.00" fill="#000000">UrlModule</text>
</g>
<!-- UrlModule&#45;&gt;ConfiguratorTabBarModule -->
<g id="edge3" class="edge">
<title>UrlModule&#45;&gt;ConfiguratorTabBarModule</title>
<path fill="none" stroke="#000000" d="M112.0912,-122.1061C112.0912,-122.1061 112.0912,-140.991 112.0912,-140.991"/>
<polygon fill="#000000" stroke="#000000" points="108.5912,-140.9909 112.0912,-150.991 115.5912,-140.991 108.5912,-140.9909"/>
</g>
</g>
</svg>
