<?xml version="1.0" encoding="UTF-8" standalone="no"?>
<!DOCTYPE svg PUBLIC "-//W3C//DTD SVG 1.1//EN"
 "http://www.w3.org/Graphics/SVG/1.1/DTD/svg11.dtd">
<!-- Generated by graphviz version 2.46.0 (20210119.1425)
 -->
<!-- Title: dependencies Pages: 1 -->
<svg width="504pt" height="284pt"
 viewBox="0.00 0.00 504.00 284.00" xmlns="http://www.w3.org/2000/svg" xmlns:xlink="http://www.w3.org/1999/xlink">
<g id="graph0" class="graph" transform="scale(1 1) rotate(0) translate(4 280)">
<title>dependencies</title>
<polygon fill="white" stroke="transparent" points="-4,4 -4,-280 500,-280 500,4 -4,4"/>
<text text-anchor="start" x="227.01" y="-42.4" font-family="sans-serif" font-weight="bold" font-size="14.00">Legend</text>
<polygon fill="#ffffb3" stroke="transparent" points="14,-10 14,-30 34,-30 34,-10 14,-10"/>
<text text-anchor="start" x="37.63" y="-15.4" font-family="sans-serif" font-size="14.00"> &#160;Declarations</text>
<polygon fill="#8dd3c7" stroke="transparent" points="127,-10 127,-30 147,-30 147,-10 127,-10"/>
<text text-anchor="start" x="150.73" y="-15.4" font-family="sans-serif" font-size="14.00"> &#160;Module</text>
<polygon fill="#80b1d3" stroke="transparent" points="213,-10 213,-30 233,-30 233,-10 213,-10"/>
<text text-anchor="start" x="236.78" y="-15.4" font-family="sans-serif" font-size="14.00"> &#160;Bootstrap</text>
<polygon fill="#fdb462" stroke="transparent" points="310,-10 310,-30 330,-30 330,-10 310,-10"/>
<text text-anchor="start" x="333.67" y="-15.4" font-family="sans-serif" font-size="14.00"> &#160;Providers</text>
<polygon fill="#fb8072" stroke="transparent" points="406,-10 406,-30 426,-30 426,-10 406,-10"/>
<text text-anchor="start" x="429.73" y="-15.4" font-family="sans-serif" font-size="14.00"> &#160;Exports</text>
<g id="clust1" class="cluster">
<title>cluster_ConfiguratorTabBarModule</title>
<polygon fill="none" stroke="black" stroke-dasharray="1,5" points="31,-70 31,-268 465,-268 465,-70 31,-70"/>
</g>
<g id="clust2" class="cluster">
<title>cluster_ConfiguratorTabBarModule_declarations</title>
<polygon fill="none" stroke="black" points="245,-78 245,-130 457,-130 457,-78 245,-78"/>
</g>
<g id="clust4" class="cluster">
<title>cluster_ConfiguratorTabBarModule_imports</title>
<polygon fill="none" stroke="black" points="39,-78 39,-130 237,-130 237,-78 39,-78"/>
</g>
<g id="clust5" class="cluster">
<title>cluster_ConfiguratorTabBarModule_exports</title>
<polygon fill="none" stroke="black" points="78,-208 78,-260 294,-260 294,-208 78,-208"/>
</g>
<!-- ConfiguratorTabBarComponent -->
<g id="node1" class="node">
<title>ConfiguratorTabBarComponent</title>
<polygon fill="#ffffb3" stroke="black" points="448.63,-122 253.37,-122 253.37,-86 448.63,-86 448.63,-122"/>
<text text-anchor="middle" x="351" y="-99.8" font-family="Times,serif" font-size="14.00">ConfiguratorTabBarComponent</text>
</g>
<!-- ConfiguratorTabBarModule -->
<g id="node2" class="node">
<title>ConfiguratorTabBarModule</title>
<polygon fill="#8dd3c7" stroke="black" points="272.84,-187 269.84,-191 248.84,-191 245.84,-187 99.16,-187 99.16,-151 272.84,-151 272.84,-187"/>
<text text-anchor="middle" x="186" y="-164.8" font-family="Times,serif" font-size="14.00">ConfiguratorTabBarModule</text>
</g>
<!-- ConfiguratorTabBarComponent&#45;&gt;ConfiguratorTabBarModule -->
<g id="edge1" class="edge">
<title>ConfiguratorTabBarComponent&#45;&gt;ConfiguratorTabBarModule</title>
<path fill="none" stroke="black" d="M263.05,-122.11C263.05,-122.11 263.05,-140.99 263.05,-140.99"/>
<polygon fill="black" stroke="black" points="259.55,-140.99 263.05,-150.99 266.55,-140.99 259.55,-140.99"/>
</g>
<!-- ConfiguratorTabBarComponent  -->
<g id="node5" class="node">
<title>ConfiguratorTabBarComponent </title>
<polygon fill="#fb8072" stroke="black" points="285.63,-252 86.37,-252 86.37,-216 285.63,-216 285.63,-252"/>
<text text-anchor="middle" x="186" y="-229.8" font-family="Times,serif" font-size="14.00">ConfiguratorTabBarComponent </text>
</g>
<!-- ConfiguratorTabBarModule&#45;&gt;ConfiguratorTabBarComponent  -->
<g id="edge4" class="edge">
<title>ConfiguratorTabBarModule&#45;&gt;ConfiguratorTabBarComponent </title>
<path fill="none" stroke="black" stroke-dasharray="5,2" d="M186,-187.11C186,-187.11 186,-205.99 186,-205.99"/>
<polygon fill="black" stroke="black" points="182.5,-205.99 186,-215.99 189.5,-205.99 182.5,-205.99"/>
</g>
<!-- I18nModule -->
<g id="node3" class="node">
<title>I18nModule</title>
<polygon fill="#8dd3c7" stroke="black" points="228.71,-122 225.71,-126 204.71,-126 201.71,-122 143.29,-122 143.29,-86 228.71,-86 228.71,-122"/>
<text text-anchor="middle" x="186" y="-99.8" font-family="Times,serif" font-size="14.00">I18nModule</text>
</g>
<!-- I18nModule&#45;&gt;ConfiguratorTabBarModule -->
<g id="edge2" class="edge">
<title>I18nModule&#45;&gt;ConfiguratorTabBarModule</title>
<path fill="none" stroke="black" d="M186,-122.11C186,-122.11 186,-140.99 186,-140.99"/>
<polygon fill="black" stroke="black" points="182.5,-140.99 186,-150.99 189.5,-140.99 182.5,-140.99"/>
</g>
<!-- UrlModule -->
<g id="node4" class="node">
<title>UrlModule</title>
<polygon fill="#8dd3c7" stroke="black" points="125.21,-122 122.21,-126 101.21,-126 98.21,-122 46.79,-122 46.79,-86 125.21,-86 125.21,-122"/>
<text text-anchor="middle" x="86" y="-99.8" font-family="Times,serif" font-size="14.00">UrlModule</text>
</g>
<!-- UrlModule&#45;&gt;ConfiguratorTabBarModule -->
<g id="edge3" class="edge">
<title>UrlModule&#45;&gt;ConfiguratorTabBarModule</title>
<path fill="none" stroke="black" d="M112.09,-122.11C112.09,-122.11 112.09,-140.99 112.09,-140.99"/>
<polygon fill="black" stroke="black" points="108.59,-140.99 112.09,-150.99 115.59,-140.99 108.59,-140.99"/>
</g>
</g>
</svg>
