<?xml version="1.0" encoding="UTF-8" standalone="no"?>
<!DOCTYPE svg PUBLIC "-//W3C//DTD SVG 1.1//EN"
 "http://www.w3.org/Graphics/SVG/1.1/DTD/svg11.dtd">
<!-- Generated by graphviz version 2.40.1 (20161225.0304)
 -->
<!-- Title: dependencies Pages: 1 -->
<svg width="504pt" height="211pt"
 viewBox="0.00 0.00 504.00 211.00" xmlns="http://www.w3.org/2000/svg" xmlns:xlink="http://www.w3.org/1999/xlink">
<g id="graph0" class="graph" transform="scale(1 1) rotate(0) translate(4 207)">
<title>dependencies</title>
<polygon fill="#ffffff" stroke="transparent" points="-4,4 -4,-207 500,-207 500,4 -4,4"/>
<text text-anchor="start" x="227.0091" y="-42.4" font-family="sans-serif" font-weight="bold" font-size="14.00" fill="#000000">Legend</text>
<polygon fill="#ffffb3" stroke="transparent" points="14,-10 14,-30 34,-30 34,-10 14,-10"/>
<text text-anchor="start" x="37.629" y="-15.4" font-family="sans-serif" font-size="14.00" fill="#000000"> &#160;Declarations</text>
<polygon fill="#8dd3c7" stroke="transparent" points="127,-10 127,-30 147,-30 147,-10 127,-10"/>
<text text-anchor="start" x="150.7251" y="-15.4" font-family="sans-serif" font-size="14.00" fill="#000000"> &#160;Module</text>
<polygon fill="#80b1d3" stroke="transparent" points="213,-10 213,-30 233,-30 233,-10 213,-10"/>
<text text-anchor="start" x="236.7812" y="-15.4" font-family="sans-serif" font-size="14.00" fill="#000000"> &#160;Bootstrap</text>
<polygon fill="#fdb462" stroke="transparent" points="310,-10 310,-30 330,-30 330,-10 310,-10"/>
<text text-anchor="start" x="333.6732" y="-15.4" font-family="sans-serif" font-size="14.00" fill="#000000"> &#160;Providers</text>
<polygon fill="#fb8072" stroke="transparent" points="406,-10 406,-30 426,-30 426,-10 406,-10"/>
<text text-anchor="start" x="429.7258" y="-15.4" font-family="sans-serif" font-size="14.00" fill="#000000"> &#160;Exports</text>
<g id="clust1" class="cluster">
<title>cluster_OrderReturnModule</title>
<polygon fill="none" stroke="#000000" stroke-dasharray="1,5" points="55,-70 55,-195 441,-195 441,-70 55,-70"/>
</g>
<g id="clust3" class="cluster">
<title>cluster_OrderReturnModule_imports</title>
<polygon fill="none" stroke="#000000" points="63,-78 63,-130 433,-130 433,-78 63,-78"/>
</g>
<!-- ReturnOrderConfirmationModule -->
<g id="node1" class="node">
<title>ReturnOrderConfirmationModule</title>
<polygon fill="#8dd3c7" stroke="#000000" points="424.7296,-122 421.7296,-126 400.7296,-126 397.7296,-122 219.2704,-122 219.2704,-86 424.7296,-86 424.7296,-122"/>
<text text-anchor="middle" x="322" y="-99.8" font-family="Times,serif" font-size="14.00" fill="#000000">ReturnOrderConfirmationModule</text>
</g>
<!-- OrderReturnModule -->
<g id="node3" class="node">
<title>OrderReturnModule</title>
<polygon fill="#8dd3c7" stroke="#000000" points="294.2949,-187 291.2949,-191 270.2949,-191 267.2949,-187 163.7051,-187 163.7051,-151 294.2949,-151 294.2949,-187"/>
<text text-anchor="middle" x="229" y="-164.8" font-family="Times,serif" font-size="14.00" fill="#000000">OrderReturnModule</text>
</g>
<!-- ReturnOrderConfirmationModule&#45;&gt;OrderReturnModule -->
<g id="edge1" class="edge">
<title>ReturnOrderConfirmationModule&#45;&gt;OrderReturnModule</title>
<path fill="none" stroke="#000000" d="M256.6413,-122.1061C256.6413,-122.1061 256.6413,-140.991 256.6413,-140.991"/>
<polygon fill="#000000" stroke="#000000" points="253.1414,-140.9909 256.6413,-150.991 260.1414,-140.991 253.1414,-140.9909"/>
</g>
<!-- ReturnOrderModule -->
<g id="node2" class="node">
<title>ReturnOrderModule</title>
<polygon fill="#8dd3c7" stroke="#000000" points="201.2949,-122 198.2949,-126 177.2949,-126 174.2949,-122 70.7051,-122 70.7051,-86 201.2949,-86 201.2949,-122"/>
<text text-anchor="middle" x="136" y="-99.8" font-family="Times,serif" font-size="14.00" fill="#000000">ReturnOrderModule</text>
</g>
<!-- ReturnOrderModule&#45;&gt;OrderReturnModule -->
<g id="edge2" class="edge">
<title>ReturnOrderModule&#45;&gt;OrderReturnModule</title>
<path fill="none" stroke="#000000" d="M182.5,-122.1061C182.5,-122.1061 182.5,-140.991 182.5,-140.991"/>
<polygon fill="#000000" stroke="#000000" points="179.0001,-140.9909 182.5,-150.991 186.0001,-140.991 179.0001,-140.9909"/>
</g>
</g>
</svg>
