<?xml version="1.0" encoding="UTF-8" standalone="no"?>
<!DOCTYPE svg PUBLIC "-//W3C//DTD SVG 1.1//EN"
 "http://www.w3.org/Graphics/SVG/1.1/DTD/svg11.dtd">
<!-- Generated by graphviz version 2.47.3 (20210619.1520)
 -->
<!-- Title: dependencies Pages: 1 -->
<svg width="304pt" height="174pt"
 viewBox="0.00 0.00 304.00 173.80" xmlns="http://www.w3.org/2000/svg" xmlns:xlink="http://www.w3.org/1999/xlink">
<g id="graph0" class="graph" transform="scale(1 1) rotate(0) translate(4 169.8)">
<title>dependencies</title>
<polygon fill="white" stroke="transparent" points="-4,4 -4,-169.8 300,-169.8 300,4 -4,4"/>
<text text-anchor="middle" x="148" y="-8.2" font-family="sans-serif" font-size="14.00">dependencies</text>
<g id="clust1" class="cluster">
<title>cluster_CmsModule</title>
<polygon fill="none" stroke="black" stroke-dasharray="1,5" points="8,-32.8 8,-157.8 288,-157.8 288,-32.8 8,-32.8"/>
</g>
<g id="clust3" class="cluster">
<title>cluster_CmsModule_imports</title>
<polygon fill="none" stroke="black" points="16,-40.8 16,-92.8 280,-92.8 280,-40.8 16,-40.8"/>
</g>
<!-- CmsStoreModule -->
<g id="node1" class="node">
<title>CmsStoreModule</title>
<polygon fill="#8dd3c7" stroke="black" points="272.27,-84.8 269.27,-88.8 248.27,-88.8 245.27,-84.8 157.73,-84.8 157.73,-48.8 272.27,-48.8 272.27,-84.8"/>
<text text-anchor="middle" x="215" y="-62.6" font-family="Times,serif" font-size="14.00">CmsStoreModule</text>
</g>
<!-- CmsModule -->
<g id="node3" class="node">
<title>CmsModule</title>
<polygon fill="#8dd3c7" stroke="black" points="190.72,-149.8 187.72,-153.8 166.72,-153.8 163.72,-149.8 105.28,-149.8 105.28,-113.8 190.72,-113.8 190.72,-149.8"/>
<text text-anchor="middle" x="148" y="-127.6" font-family="Times,serif" font-size="14.00">CmsModule</text>
</g>
<!-- CmsStoreModule&#45;&gt;CmsModule -->
<g id="edge1" class="edge">
<title>CmsStoreModule&#45;&gt;CmsModule</title>
<path fill="none" stroke="black" d="M174.11,-84.91C174.11,-84.91 174.11,-103.79 174.11,-103.79"/>
<polygon fill="black" stroke="black" points="170.61,-103.79 174.11,-113.79 177.61,-103.79 170.61,-103.79"/>
</g>
<!-- PageMetaModule -->
<g id="node2" class="node">
<title>PageMetaModule</title>
<polygon fill="#8dd3c7" stroke="black" points="139.53,-84.8 136.53,-88.8 115.53,-88.8 112.53,-84.8 24.47,-84.8 24.47,-48.8 139.53,-48.8 139.53,-84.8"/>
<text text-anchor="middle" x="82" y="-62.6" font-family="Times,serif" font-size="14.00">PageMetaModule</text>
</g>
<!-- PageMetaModule&#45;&gt;CmsModule -->
<g id="edge2" class="edge">
<title>PageMetaModule&#45;&gt;CmsModule</title>
<path fill="none" stroke="black" d="M122.58,-84.91C122.58,-84.91 122.58,-103.79 122.58,-103.79"/>
<polygon fill="black" stroke="black" points="119.08,-103.79 122.58,-113.79 126.08,-103.79 119.08,-103.79"/>
</g>
</g>
</svg>
