<?xml version="1.0" encoding="UTF-8" standalone="no"?>
<!DOCTYPE svg PUBLIC "-//W3C//DTD SVG 1.1//EN"
 "http://www.w3.org/Graphics/SVG/1.1/DTD/svg11.dtd">
<!-- Generated by graphviz version 2.40.1 (20161225.0304)
 -->
<!-- Title: dependencies Pages: 1 -->
<svg width="504pt" height="211pt"
 viewBox="0.00 0.00 504.00 211.00" xmlns="http://www.w3.org/2000/svg" xmlns:xlink="http://www.w3.org/1999/xlink">
<g id="graph0" class="graph" transform="scale(1 1) rotate(0) translate(4 207)">
<title>dependencies</title>
<polygon fill="#ffffff" stroke="transparent" points="-4,4 -4,-207 500,-207 500,4 -4,4"/>
<text text-anchor="start" x="227.0091" y="-42.4" font-family="sans-serif" font-weight="bold" font-size="14.00" fill="#000000">Legend</text>
<polygon fill="#ffffb3" stroke="transparent" points="14,-10 14,-30 34,-30 34,-10 14,-10"/>
<text text-anchor="start" x="37.629" y="-15.4" font-family="sans-serif" font-size="14.00" fill="#000000"> &#160;Declarations</text>
<polygon fill="#8dd3c7" stroke="transparent" points="127,-10 127,-30 147,-30 147,-10 127,-10"/>
<text text-anchor="start" x="150.7251" y="-15.4" font-family="sans-serif" font-size="14.00" fill="#000000"> &#160;Module</text>
<polygon fill="#80b1d3" stroke="transparent" points="213,-10 213,-30 233,-30 233,-10 213,-10"/>
<text text-anchor="start" x="236.7812" y="-15.4" font-family="sans-serif" font-size="14.00" fill="#000000"> &#160;Bootstrap</text>
<polygon fill="#fdb462" stroke="transparent" points="310,-10 310,-30 330,-30 330,-10 310,-10"/>
<text text-anchor="start" x="333.6732" y="-15.4" font-family="sans-serif" font-size="14.00" fill="#000000"> &#160;Providers</text>
<polygon fill="#fb8072" stroke="transparent" points="406,-10 406,-30 426,-30 426,-10 406,-10"/>
<text text-anchor="start" x="429.7258" y="-15.4" font-family="sans-serif" font-size="14.00" fill="#000000"> &#160;Exports</text>
<g id="clust1" class="cluster">
<title>cluster_CmsModule</title>
<polygon fill="none" stroke="#000000" stroke-dasharray="1,5" points="96.5,-70 96.5,-195 399.5,-195 399.5,-70 96.5,-70"/>
</g>
<g id="clust3" class="cluster">
<title>cluster_CmsModule_imports</title>
<polygon fill="none" stroke="#000000" points="104.5,-78 104.5,-130 391.5,-130 391.5,-78 104.5,-78"/>
</g>
<!-- CmsPageTitleModule -->
<g id="node1" class="node">
<title>CmsPageTitleModule</title>
<polygon fill="#8dd3c7" stroke="#000000" points="383.8725,-122 380.8725,-126 359.8725,-126 356.8725,-122 245.1275,-122 245.1275,-86 383.8725,-86 383.8725,-122"/>
<text text-anchor="middle" x="314.5" y="-99.8" font-family="Times,serif" font-size="14.00" fill="#000000">CmsPageTitleModule</text>
</g>
<!-- CmsModule -->
<g id="node3" class="node">
<title>CmsModule</title>
<polygon fill="#8dd3c7" stroke="#000000" points="284.2219,-187 281.2219,-191 260.2219,-191 257.2219,-187 198.7781,-187 198.7781,-151 284.2219,-151 284.2219,-187"/>
<text text-anchor="middle" x="241.5" y="-164.8" font-family="Times,serif" font-size="14.00" fill="#000000">CmsModule</text>
</g>
<!-- CmsPageTitleModule&#45;&gt;CmsModule -->
<g id="edge1" class="edge">
<title>CmsPageTitleModule&#45;&gt;CmsModule</title>
<path fill="none" stroke="#000000" d="M264.5873,-122.1061C264.5873,-122.1061 264.5873,-140.991 264.5873,-140.991"/>
<polygon fill="#000000" stroke="#000000" points="261.0874,-140.9909 264.5873,-150.991 268.0874,-140.991 261.0874,-140.9909"/>
</g>
<!-- CmsStoreModule -->
<g id="node2" class="node">
<title>CmsStoreModule</title>
<polygon fill="#8dd3c7" stroke="#000000" points="226.7702,-122 223.7702,-126 202.7702,-126 199.7702,-122 112.2298,-122 112.2298,-86 226.7702,-86 226.7702,-122"/>
<text text-anchor="middle" x="169.5" y="-99.8" font-family="Times,serif" font-size="14.00" fill="#000000">CmsStoreModule</text>
</g>
<!-- CmsStoreModule&#45;&gt;CmsModule -->
<g id="edge2" class="edge">
<title>CmsStoreModule&#45;&gt;CmsModule</title>
<path fill="none" stroke="#000000" d="M212.8871,-122.1061C212.8871,-122.1061 212.8871,-140.991 212.8871,-140.991"/>
<polygon fill="#000000" stroke="#000000" points="209.3872,-140.9909 212.8871,-150.991 216.3872,-140.991 209.3872,-140.9909"/>
</g>
</g>
</svg>
