<?xml version="1.0" encoding="UTF-8" standalone="no"?>
<!DOCTYPE svg PUBLIC "-//W3C//DTD SVG 1.1//EN"
 "http://www.w3.org/Graphics/SVG/1.1/DTD/svg11.dtd">
<!-- Generated by graphviz version 2.47.0 (20210316.0004)
 -->
<!-- Title: dependencies Pages: 1 -->
<svg width="730pt" height="323pt"
 viewBox="0.00 0.00 730.00 322.59" xmlns="http://www.w3.org/2000/svg" xmlns:xlink="http://www.w3.org/1999/xlink">
<g id="graph0" class="graph" transform="scale(1 1) rotate(0) translate(4 318.59)">
<title>dependencies</title>
<polygon fill="white" stroke="transparent" points="-4,4 -4,-318.59 726,-318.59 726,4 -4,4"/>
<text text-anchor="start" x="340.01" y="-42.4" font-family="sans-serif" font-weight="bold" font-size="14.00">Legend</text>
<polygon fill="#ffffb3" stroke="transparent" points="127,-10 127,-30 147,-30 147,-10 127,-10"/>
<text text-anchor="start" x="150.63" y="-15.4" font-family="sans-serif" font-size="14.00"> &#160;Declarations</text>
<polygon fill="#8dd3c7" stroke="transparent" points="240,-10 240,-30 260,-30 260,-10 240,-10"/>
<text text-anchor="start" x="263.73" y="-15.4" font-family="sans-serif" font-size="14.00"> &#160;Module</text>
<polygon fill="#80b1d3" stroke="transparent" points="326,-10 326,-30 346,-30 346,-10 326,-10"/>
<text text-anchor="start" x="349.78" y="-15.4" font-family="sans-serif" font-size="14.00"> &#160;Bootstrap</text>
<polygon fill="#fdb462" stroke="transparent" points="423,-10 423,-30 443,-30 443,-10 423,-10"/>
<text text-anchor="start" x="446.67" y="-15.4" font-family="sans-serif" font-size="14.00"> &#160;Providers</text>
<polygon fill="#fb8072" stroke="transparent" points="519,-10 519,-30 539,-30 539,-10 519,-10"/>
<text text-anchor="start" x="542.73" y="-15.4" font-family="sans-serif" font-size="14.00"> &#160;Exports</text>
<g id="clust1" class="cluster">
<title>cluster_UnitChildCreateModule</title>
<polygon fill="none" stroke="black" stroke-dasharray="1,5" points="8,-70 8,-306.59 714,-306.59 714,-70 8,-70"/>
</g>
<g id="clust4" class="cluster">
<title>cluster_UnitChildCreateModule_imports</title>
<polygon fill="none" stroke="black" points="576,-189.59 576,-241.59 706,-241.59 706,-189.59 576,-189.59"/>
</g>
<g id="clust3" class="cluster">
<title>cluster_UnitChildCreateModule_UnitChildCreateComponent_providers</title>
<polygon fill="none" stroke="black" points="16,-78 16,-241.59 568,-241.59 568,-78 16,-78"/>
</g>
<!-- UnitChildCreateComponent -->
<g id="node1" class="node">
<title>UnitChildCreateComponent</title>
<polygon fill="#ffffb3" stroke="black" points="462.87,-233.59 289.13,-233.59 289.13,-197.59 462.87,-197.59 462.87,-233.59"/>
<text text-anchor="middle" x="376" y="-211.39" font-family="Times,serif" font-size="14.00">UnitChildCreateComponent</text>
</g>
<!-- UnitChildCreateModule -->
<g id="node2" class="node">
<title>UnitChildCreateModule</title>
<polygon fill="#8dd3c7" stroke="black" points="621.09,-298.59 618.09,-302.59 597.09,-302.59 594.09,-298.59 468.91,-298.59 468.91,-262.59 621.09,-262.59 621.09,-298.59"/>
<text text-anchor="middle" x="545" y="-276.39" font-family="Times,serif" font-size="14.00">UnitChildCreateModule</text>
</g>
<!-- UnitChildCreateComponent&#45;&gt;UnitChildCreateModule -->
<g id="edge1" class="edge">
<title>UnitChildCreateComponent&#45;&gt;UnitChildCreateModule</title>
<path fill="none" stroke="black" d="M463.03,-215.59C490.89,-215.59 514.66,-215.59 514.66,-215.59 514.66,-215.59 514.66,-252.48 514.66,-252.48"/>
<polygon fill="black" stroke="black" points="511.16,-252.48 514.66,-262.48 518.16,-252.48 511.16,-252.48"/>
</g>
<!-- {
 &#160;&#160;&#160;provide: UnitItemService, useExisting: UnitChildItemService,
} -->
<g id="node3" class="node">
<title>{
 &#160;&#160;&#160;provide: UnitItemService, useExisting: UnitChildItemService,
}</title>
<ellipse fill="#fdb462" stroke="black" cx="292" cy="-127.3" rx="268.25" ry="41.09"/>
<text text-anchor="middle" x="292" y="-139.9" font-family="Times,serif" font-size="14.00">{</text>
<text text-anchor="middle" x="292" y="-123.1" font-family="Times,serif" font-size="14.00"> &#160;&#160;&#160;provide: UnitItemService, useExisting: UnitChildItemService,</text>
<text text-anchor="middle" x="292" y="-106.3" font-family="Times,serif" font-size="14.00">}</text>
</g>
<!-- {
 &#160;&#160;&#160;provide: UnitItemService, useExisting: UnitChildItemService,
}&#45;&gt;UnitChildCreateComponent -->
<g id="edge2" class="edge">
<title>{
 &#160;&#160;&#160;provide: UnitItemService, useExisting: UnitChildItemService,
}&#45;&gt;UnitChildCreateComponent</title>
<path fill="none" stroke="black" d="M376,-166.54C376,-166.54 376,-187.21 376,-187.21"/>
<polygon fill="black" stroke="black" points="372.5,-187.21 376,-197.21 379.5,-187.21 372.5,-187.21"/>
</g>
<!-- UnitFormModule -->
<g id="node4" class="node">
<title>UnitFormModule</title>
<polygon fill="#8dd3c7" stroke="black" points="698.27,-233.59 695.27,-237.59 674.27,-237.59 671.27,-233.59 583.73,-233.59 583.73,-197.59 698.27,-197.59 698.27,-233.59"/>
<text text-anchor="middle" x="641" y="-211.39" font-family="Times,serif" font-size="14.00">UnitFormModule</text>
</g>
<!-- UnitFormModule&#45;&gt;UnitChildCreateModule -->
<g id="edge3" class="edge">
<title>UnitFormModule&#45;&gt;UnitChildCreateModule</title>
<path fill="none" stroke="black" d="M602.33,-233.7C602.33,-233.7 602.33,-252.58 602.33,-252.58"/>
<polygon fill="black" stroke="black" points="598.83,-252.58 602.33,-262.58 605.83,-252.58 598.83,-252.58"/>
</g>
</g>
</svg>
