<?xml version="1.0" encoding="UTF-8" standalone="no"?>
<!DOCTYPE svg PUBLIC "-//W3C//DTD SVG 1.1//EN"
 "http://www.w3.org/Graphics/SVG/1.1/DTD/svg11.dtd">
<!-- Generated by graphviz version 2.46.0 (20210119.1425)
 -->
<!-- Title: dependencies Pages: 1 -->
<svg width="598pt" height="276pt"
 viewBox="0.00 0.00 598.00 276.00" xmlns="http://www.w3.org/2000/svg" xmlns:xlink="http://www.w3.org/1999/xlink">
<g id="graph0" class="graph" transform="scale(1 1) rotate(0) translate(4 272)">
<title>dependencies</title>
<polygon fill="white" stroke="transparent" points="-4,4 -4,-272 594,-272 594,4 -4,4"/>
<text text-anchor="start" x="274.01" y="-42.4" font-family="sans-serif" font-weight="bold" font-size="14.00">Legend</text>
<polygon fill="#ffffb3" stroke="transparent" points="61,-10 61,-30 81,-30 81,-10 61,-10"/>
<text text-anchor="start" x="84.63" y="-15.4" font-family="sans-serif" font-size="14.00"> &#160;Declarations</text>
<polygon fill="#8dd3c7" stroke="transparent" points="174,-10 174,-30 194,-30 194,-10 174,-10"/>
<text text-anchor="start" x="197.73" y="-15.4" font-family="sans-serif" font-size="14.00"> &#160;Module</text>
<polygon fill="#80b1d3" stroke="transparent" points="260,-10 260,-30 280,-30 280,-10 260,-10"/>
<text text-anchor="start" x="283.78" y="-15.4" font-family="sans-serif" font-size="14.00"> &#160;Bootstrap</text>
<polygon fill="#fdb462" stroke="transparent" points="357,-10 357,-30 377,-30 377,-10 357,-10"/>
<text text-anchor="start" x="380.67" y="-15.4" font-family="sans-serif" font-size="14.00"> &#160;Providers</text>
<polygon fill="#fb8072" stroke="transparent" points="453,-10 453,-30 473,-30 473,-10 453,-10"/>
<text text-anchor="start" x="476.73" y="-15.4" font-family="sans-serif" font-size="14.00"> &#160;Exports</text>
<g id="clust1" class="cluster">
<title>cluster_UnitChildCreateModule</title>
<polygon fill="none" stroke="black" stroke-dasharray="1,5" points="8,-70 8,-260 582,-260 582,-70 8,-70"/>
</g>
<g id="clust4" class="cluster">
<title>cluster_UnitChildCreateModule_imports</title>
<polygon fill="none" stroke="black" points="398,-143 398,-195 528,-195 528,-143 398,-143"/>
</g>
<g id="clust2" class="cluster">
<title>cluster_UnitChildCreateModule_declarations</title>
<polygon fill="none" stroke="black" points="200,-143 200,-195 390,-195 390,-143 200,-143"/>
</g>
<g id="clust3" class="cluster">
<title>cluster_UnitChildCreateModule_UnitChildCreateComponent_providers</title>
<polygon fill="none" stroke="black" points="16,-78 16,-130 574,-130 574,-78 16,-78"/>
</g>
<!-- UnitChildCreateComponent -->
<g id="node1" class="node">
<title>UnitChildCreateComponent</title>
<polygon fill="#ffffb3" stroke="black" points="381.87,-187 208.13,-187 208.13,-151 381.87,-151 381.87,-187"/>
<text text-anchor="middle" x="295" y="-164.8" font-family="Times,serif" font-size="14.00">UnitChildCreateComponent</text>
</g>
<!-- UnitChildCreateModule -->
<g id="node2" class="node">
<title>UnitChildCreateModule</title>
<polygon fill="#8dd3c7" stroke="black" points="455.09,-252 452.09,-256 431.09,-256 428.09,-252 302.91,-252 302.91,-216 455.09,-216 455.09,-252"/>
<text text-anchor="middle" x="379" y="-229.8" font-family="Times,serif" font-size="14.00">UnitChildCreateModule</text>
</g>
<!-- UnitChildCreateComponent&#45;&gt;UnitChildCreateModule -->
<g id="edge1" class="edge">
<title>UnitChildCreateComponent&#45;&gt;UnitChildCreateModule</title>
<path fill="none" stroke="black" d="M342.45,-187.11C342.45,-187.11 342.45,-205.99 342.45,-205.99"/>
<polygon fill="black" stroke="black" points="338.95,-205.99 342.45,-215.99 345.95,-205.99 338.95,-205.99"/>
</g>
<!-- { &#160;&#160;&#160;provide: UnitItemService, useExisting: UnitChildItemService,} -->
<g id="node3" class="node">
<title>{ &#160;&#160;&#160;provide: UnitItemService, useExisting: UnitChildItemService,}</title>
<ellipse fill="#fdb462" stroke="black" cx="295" cy="-104" rx="271.13" ry="18"/>
<text text-anchor="middle" x="295" y="-99.8" font-family="Times,serif" font-size="14.00">{ &#160;&#160;&#160;provide: UnitItemService, useExisting: UnitChildItemService,}</text>
</g>
<!-- { &#160;&#160;&#160;provide: UnitItemService, useExisting: UnitChildItemService,}&#45;&gt;UnitChildCreateComponent -->
<g id="edge2" class="edge">
<title>{ &#160;&#160;&#160;provide: UnitItemService, useExisting: UnitChildItemService,}&#45;&gt;UnitChildCreateComponent</title>
<path fill="none" stroke="black" d="M295,-122.11C295,-122.11 295,-140.99 295,-140.99"/>
<polygon fill="black" stroke="black" points="291.5,-140.99 295,-150.99 298.5,-140.99 291.5,-140.99"/>
</g>
<!-- UnitFormModule -->
<g id="node4" class="node">
<title>UnitFormModule</title>
<polygon fill="#8dd3c7" stroke="black" points="520.27,-187 517.27,-191 496.27,-191 493.27,-187 405.73,-187 405.73,-151 520.27,-151 520.27,-187"/>
<text text-anchor="middle" x="463" y="-164.8" font-family="Times,serif" font-size="14.00">UnitFormModule</text>
</g>
<!-- UnitFormModule&#45;&gt;UnitChildCreateModule -->
<g id="edge3" class="edge">
<title>UnitFormModule&#45;&gt;UnitChildCreateModule</title>
<path fill="none" stroke="black" d="M430.33,-187.11C430.33,-187.11 430.33,-205.99 430.33,-205.99"/>
<polygon fill="black" stroke="black" points="426.83,-205.99 430.33,-215.99 433.83,-205.99 426.83,-205.99"/>
</g>
</g>
</svg>
