<?xml version="1.0" encoding="UTF-8" standalone="no"?>
<!DOCTYPE svg PUBLIC "-//W3C//DTD SVG 1.1//EN"
 "http://www.w3.org/Graphics/SVG/1.1/DTD/svg11.dtd">
<!-- Generated by graphviz version 2.47.3 (20210619.1520)
 -->
<!-- Title: dependencies Pages: 1 -->
<svg width="730pt" height="285pt"
 viewBox="0.00 0.00 730.00 285.39" xmlns="http://www.w3.org/2000/svg" xmlns:xlink="http://www.w3.org/1999/xlink">
<g id="graph0" class="graph" transform="scale(1 1) rotate(0) translate(4 281.39)">
<title>dependencies</title>
<polygon fill="white" stroke="transparent" points="-4,4 -4,-281.39 726,-281.39 726,4 -4,4"/>
<text text-anchor="middle" x="361" y="-8.2" font-family="sans-serif" font-size="14.00">dependencies</text>
<g id="clust1" class="cluster">
<title>cluster_UnitChildCreateModule</title>
<polygon fill="none" stroke="black" stroke-dasharray="1,5" points="8,-32.8 8,-269.39 714,-269.39 714,-32.8 8,-32.8"/>
</g>
<g id="clust3" class="cluster">
<title>cluster_UnitChildCreateModule_UnitChildCreateComponent_providers</title>
<polygon fill="none" stroke="black" points="154,-40.8 154,-204.39 706,-204.39 706,-40.8 154,-40.8"/>
</g>
<g id="clust4" class="cluster">
<title>cluster_UnitChildCreateModule_imports</title>
<polygon fill="none" stroke="black" points="16,-152.39 16,-204.39 146,-204.39 146,-152.39 16,-152.39"/>
</g>
<!-- UnitChildCreateComponent -->
<g id="node1" class="node">
<title>UnitChildCreateComponent</title>
<polygon fill="#ffffb3" stroke="black" points="425.87,-196.39 252.13,-196.39 252.13,-160.39 425.87,-160.39 425.87,-196.39"/>
<text text-anchor="middle" x="339" y="-174.19" font-family="Times,serif" font-size="14.00">UnitChildCreateComponent</text>
</g>
<!-- UnitChildCreateModule -->
<g id="node2" class="node">
<title>UnitChildCreateModule</title>
<polygon fill="#8dd3c7" stroke="black" points="246.09,-261.39 243.09,-265.39 222.09,-265.39 219.09,-261.39 93.91,-261.39 93.91,-225.39 246.09,-225.39 246.09,-261.39"/>
<text text-anchor="middle" x="170" y="-239.19" font-family="Times,serif" font-size="14.00">UnitChildCreateModule</text>
</g>
<!-- UnitChildCreateComponent&#45;&gt;UnitChildCreateModule -->
<g id="edge1" class="edge">
<title>UnitChildCreateComponent&#45;&gt;UnitChildCreateModule</title>
<path fill="none" stroke="black" d="M251.87,-178.39C225.72,-178.39 203.84,-178.39 203.84,-178.39 203.84,-178.39 203.84,-215.28 203.84,-215.28"/>
<polygon fill="black" stroke="black" points="200.34,-215.28 203.84,-225.28 207.34,-215.28 200.34,-215.28"/>
</g>
<!-- {
 &#160;&#160;&#160;provide: UnitItemService, useExisting: UnitChildItemService,
} -->
<g id="node3" class="node">
<title>{
 &#160;&#160;&#160;provide: UnitItemService, useExisting: UnitChildItemService,
}</title>
<ellipse fill="#fdb462" stroke="black" cx="430" cy="-90.1" rx="268.25" ry="41.09"/>
<text text-anchor="middle" x="430" y="-102.7" font-family="Times,serif" font-size="14.00">{</text>
<text text-anchor="middle" x="430" y="-85.9" font-family="Times,serif" font-size="14.00"> &#160;&#160;&#160;provide: UnitItemService, useExisting: UnitChildItemService,</text>
<text text-anchor="middle" x="430" y="-69.1" font-family="Times,serif" font-size="14.00">}</text>
</g>
<!-- {
 &#160;&#160;&#160;provide: UnitItemService, useExisting: UnitChildItemService,
}&#45;&gt;UnitChildCreateComponent -->
<g id="edge2" class="edge">
<title>{
 &#160;&#160;&#160;provide: UnitItemService, useExisting: UnitChildItemService,
}&#45;&gt;UnitChildCreateComponent</title>
<path fill="none" stroke="black" d="M339,-129.08C339,-129.08 339,-150.36 339,-150.36"/>
<polygon fill="black" stroke="black" points="335.5,-150.36 339,-160.36 342.5,-150.36 335.5,-150.36"/>
</g>
<!-- UnitFormModule -->
<g id="node4" class="node">
<title>UnitFormModule</title>
<polygon fill="#8dd3c7" stroke="black" points="138.27,-196.39 135.27,-200.39 114.27,-200.39 111.27,-196.39 23.73,-196.39 23.73,-160.39 138.27,-160.39 138.27,-196.39"/>
<text text-anchor="middle" x="81" y="-174.19" font-family="Times,serif" font-size="14.00">UnitFormModule</text>
</g>
<!-- UnitFormModule&#45;&gt;UnitChildCreateModule -->
<g id="edge3" class="edge">
<title>UnitFormModule&#45;&gt;UnitChildCreateModule</title>
<path fill="none" stroke="black" d="M116.17,-196.5C116.17,-196.5 116.17,-215.38 116.17,-215.38"/>
<polygon fill="black" stroke="black" points="112.67,-215.38 116.17,-225.38 119.67,-215.38 112.67,-215.38"/>
</g>
</g>
</svg>
