<?xml version="1.0" encoding="UTF-8" standalone="no"?>
<!DOCTYPE svg PUBLIC "-//W3C//DTD SVG 1.1//EN"
 "http://www.w3.org/Graphics/SVG/1.1/DTD/svg11.dtd">
<!-- Generated by graphviz version 2.47.3 (20210619.1520)
 -->
<!-- Title: dependencies Pages: 1 -->
<svg width="592pt" height="285pt"
 viewBox="0.00 0.00 592.00 285.39" xmlns="http://www.w3.org/2000/svg" xmlns:xlink="http://www.w3.org/1999/xlink">
<g id="graph0" class="graph" transform="scale(1 1) rotate(0) translate(4 281.39)">
<title>dependencies</title>
<polygon fill="white" stroke="transparent" points="-4,4 -4,-281.39 588,-281.39 588,4 -4,4"/>
<text text-anchor="middle" x="292" y="-8.2" font-family="sans-serif" font-size="14.00">dependencies</text>
<g id="clust1" class="cluster">
<title>cluster_UnitChildCreateModule</title>
<polygon fill="none" stroke="black" stroke-dasharray="1,5" points="8,-32.8 8,-269.39 576,-269.39 576,-32.8 8,-32.8"/>
</g>
<g id="clust2" class="cluster">
<title>cluster_UnitChildCreateModule_declarations</title>
<polygon fill="none" stroke="black" points="197,-152.39 197,-204.39 387,-204.39 387,-152.39 197,-152.39"/>
</g>
<g id="clust3" class="cluster">
<title>cluster_UnitChildCreateModule_UnitChildCreateComponent_providers</title>
<polygon fill="none" stroke="black" points="16,-40.8 16,-139.39 568,-139.39 568,-40.8 16,-40.8"/>
</g>
<g id="clust4" class="cluster">
<title>cluster_UnitChildCreateModule_imports</title>
<polygon fill="none" stroke="black" points="59,-152.39 59,-204.39 189,-204.39 189,-152.39 59,-152.39"/>
</g>
<!-- UnitChildCreateComponent -->
<g id="node1" class="node">
<title>UnitChildCreateComponent</title>
<polygon fill="#ffffb3" stroke="black" points="378.87,-196.39 205.13,-196.39 205.13,-160.39 378.87,-160.39 378.87,-196.39"/>
<text text-anchor="middle" x="292" y="-174.19" font-family="Times,serif" font-size="14.00">UnitChildCreateComponent</text>
</g>
<!-- UnitChildCreateModule -->
<g id="node2" class="node">
<title>UnitChildCreateModule</title>
<polygon fill="#8dd3c7" stroke="black" points="284.09,-261.39 281.09,-265.39 260.09,-265.39 257.09,-261.39 131.91,-261.39 131.91,-225.39 284.09,-225.39 284.09,-261.39"/>
<text text-anchor="middle" x="208" y="-239.19" font-family="Times,serif" font-size="14.00">UnitChildCreateModule</text>
</g>
<!-- UnitChildCreateComponent&#45;&gt;UnitChildCreateModule -->
<g id="edge1" class="edge">
<title>UnitChildCreateComponent&#45;&gt;UnitChildCreateModule</title>
<path fill="none" stroke="black" d="M244.55,-196.5C244.55,-196.5 244.55,-215.38 244.55,-215.38"/>
<polygon fill="black" stroke="black" points="241.05,-215.38 244.55,-225.38 248.05,-215.38 241.05,-215.38"/>
</g>
<!-- {
 &#160;&#160;&#160;provide: UnitItemService, useExisting: UnitChildItemService,
} -->
<g id="node3" class="node">
<title>{
 &#160;&#160;&#160;provide: UnitItemService, useExisting: UnitChildItemService,
}</title>
<ellipse fill="#fdb462" stroke="black" cx="292" cy="-90.1" rx="268.25" ry="41.09"/>
<text text-anchor="middle" x="292" y="-102.7" font-family="Times,serif" font-size="14.00">{</text>
<text text-anchor="middle" x="292" y="-85.9" font-family="Times,serif" font-size="14.00"> &#160;&#160;&#160;provide: UnitItemService, useExisting: UnitChildItemService,</text>
<text text-anchor="middle" x="292" y="-69.1" font-family="Times,serif" font-size="14.00">}</text>
</g>
<!-- {
 &#160;&#160;&#160;provide: UnitItemService, useExisting: UnitChildItemService,
}&#45;&gt;UnitChildCreateComponent -->
<g id="edge2" class="edge">
<title>{
 &#160;&#160;&#160;provide: UnitItemService, useExisting: UnitChildItemService,
}&#45;&gt;UnitChildCreateComponent</title>
<path fill="none" stroke="black" d="M292,-131.4C292,-131.4 292,-150.06 292,-150.06"/>
<polygon fill="black" stroke="black" points="288.5,-150.06 292,-160.06 295.5,-150.06 288.5,-150.06"/>
</g>
<!-- UnitFormModule -->
<g id="node4" class="node">
<title>UnitFormModule</title>
<polygon fill="#8dd3c7" stroke="black" points="181.27,-196.39 178.27,-200.39 157.27,-200.39 154.27,-196.39 66.73,-196.39 66.73,-160.39 181.27,-160.39 181.27,-196.39"/>
<text text-anchor="middle" x="124" y="-174.19" font-family="Times,serif" font-size="14.00">UnitFormModule</text>
</g>
<!-- UnitFormModule&#45;&gt;UnitChildCreateModule -->
<g id="edge3" class="edge">
<title>UnitFormModule&#45;&gt;UnitChildCreateModule</title>
<path fill="none" stroke="black" d="M156.67,-196.5C156.67,-196.5 156.67,-215.38 156.67,-215.38"/>
<polygon fill="black" stroke="black" points="153.17,-215.38 156.67,-225.38 160.17,-215.38 153.17,-215.38"/>
</g>
</g>
</svg>
