<?xml version="1.0" encoding="UTF-8" standalone="no"?>
<!DOCTYPE svg PUBLIC "-//W3C//DTD SVG 1.1//EN"
 "http://www.w3.org/Graphics/SVG/1.1/DTD/svg11.dtd">
<!-- Generated by graphviz version 2.40.1 (20161225.0304)
 -->
<!-- Title: dependencies Pages: 1 -->
<svg width="592pt" height="323pt"
 viewBox="0.00 0.00 592.00 322.59" xmlns="http://www.w3.org/2000/svg" xmlns:xlink="http://www.w3.org/1999/xlink">
<g id="graph0" class="graph" transform="scale(1 1) rotate(0) translate(4 318.5901)">
<title>dependencies</title>
<polygon fill="#ffffff" stroke="transparent" points="-4,4 -4,-318.5901 588,-318.5901 588,4 -4,4"/>
<text text-anchor="start" x="271.0091" y="-42.4" font-family="sans-serif" font-weight="bold" font-size="14.00" fill="#000000">Legend</text>
<polygon fill="#ffffb3" stroke="transparent" points="58,-10 58,-30 78,-30 78,-10 58,-10"/>
<text text-anchor="start" x="81.629" y="-15.4" font-family="sans-serif" font-size="14.00" fill="#000000"> &#160;Declarations</text>
<polygon fill="#8dd3c7" stroke="transparent" points="171,-10 171,-30 191,-30 191,-10 171,-10"/>
<text text-anchor="start" x="194.7251" y="-15.4" font-family="sans-serif" font-size="14.00" fill="#000000"> &#160;Module</text>
<polygon fill="#80b1d3" stroke="transparent" points="257,-10 257,-30 277,-30 277,-10 257,-10"/>
<text text-anchor="start" x="280.7812" y="-15.4" font-family="sans-serif" font-size="14.00" fill="#000000"> &#160;Bootstrap</text>
<polygon fill="#fdb462" stroke="transparent" points="354,-10 354,-30 374,-30 374,-10 354,-10"/>
<text text-anchor="start" x="377.6732" y="-15.4" font-family="sans-serif" font-size="14.00" fill="#000000"> &#160;Providers</text>
<polygon fill="#fb8072" stroke="transparent" points="450,-10 450,-30 470,-30 470,-10 450,-10"/>
<text text-anchor="start" x="473.7258" y="-15.4" font-family="sans-serif" font-size="14.00" fill="#000000"> &#160;Exports</text>
<g id="clust1" class="cluster">
<title>cluster_UnitChildCreateModule</title>
<polygon fill="none" stroke="#000000" stroke-dasharray="1,5" points="8,-70 8,-306.5901 576,-306.5901 576,-70 8,-70"/>
</g>
<g id="clust2" class="cluster">
<title>cluster_UnitChildCreateModule_declarations</title>
<polygon fill="none" stroke="#000000" points="197,-189.5901 197,-241.5901 387,-241.5901 387,-189.5901 197,-189.5901"/>
</g>
<g id="clust3" class="cluster">
<title>cluster_UnitChildCreateModule_UnitChildCreateComponent_providers</title>
<polygon fill="none" stroke="#000000" points="16,-78 16,-176.5901 568,-176.5901 568,-78 16,-78"/>
</g>
<g id="clust4" class="cluster">
<title>cluster_UnitChildCreateModule_imports</title>
<polygon fill="none" stroke="#000000" points="59,-189.5901 59,-241.5901 189,-241.5901 189,-189.5901 59,-189.5901"/>
</g>
<!-- UnitChildCreateComponent -->
<g id="node1" class="node">
<title>UnitChildCreateComponent</title>
<polygon fill="#ffffb3" stroke="#000000" points="378.8696,-233.5901 205.1304,-233.5901 205.1304,-197.5901 378.8696,-197.5901 378.8696,-233.5901"/>
<text text-anchor="middle" x="292" y="-211.3901" font-family="Times,serif" font-size="14.00" fill="#000000">UnitChildCreateComponent</text>
</g>
<!-- UnitChildCreateModule -->
<g id="node2" class="node">
<title>UnitChildCreateModule</title>
<polygon fill="#8dd3c7" stroke="#000000" points="284.087,-298.5901 281.087,-302.5901 260.087,-302.5901 257.087,-298.5901 131.913,-298.5901 131.913,-262.5901 284.087,-262.5901 284.087,-298.5901"/>
<text text-anchor="middle" x="208" y="-276.3901" font-family="Times,serif" font-size="14.00" fill="#000000">UnitChildCreateModule</text>
</g>
<!-- UnitChildCreateComponent&#45;&gt;UnitChildCreateModule -->
<g id="edge1" class="edge">
<title>UnitChildCreateComponent&#45;&gt;UnitChildCreateModule</title>
<path fill="none" stroke="#000000" d="M244.5544,-233.6962C244.5544,-233.6962 244.5544,-252.581 244.5544,-252.581"/>
<polygon fill="#000000" stroke="#000000" points="241.0544,-252.581 244.5544,-262.581 248.0544,-252.5811 241.0544,-252.581"/>
</g>
<!-- {
 &#160;&#160;&#160;provide: UnitItemService, useExisting: UnitChildItemService,
} -->
<g id="node3" class="node">
<title>{
 &#160;&#160;&#160;provide: UnitItemService, useExisting: UnitChildItemService,
}</title>
<ellipse fill="#fdb462" stroke="#000000" cx="292" cy="-127.295" rx="268.2459" ry="41.0911"/>
<text text-anchor="middle" x="292" y="-139.895" font-family="Times,serif" font-size="14.00" fill="#000000">{</text>
<text text-anchor="middle" x="292" y="-123.095" font-family="Times,serif" font-size="14.00" fill="#000000"> &#160;&#160;&#160;provide: UnitItemService, useExisting: UnitChildItemService,</text>
<text text-anchor="middle" x="292" y="-106.295" font-family="Times,serif" font-size="14.00" fill="#000000">}</text>
</g>
<!-- {
 &#160;&#160;&#160;provide: UnitItemService, useExisting: UnitChildItemService,
}&#45;&gt;UnitChildCreateComponent -->
<g id="edge2" class="edge">
<title>{
 &#160;&#160;&#160;provide: UnitItemService, useExisting: UnitChildItemService,
}&#45;&gt;UnitChildCreateComponent</title>
<path fill="none" stroke="#000000" d="M292,-168.5989C292,-168.5989 292,-187.2551 292,-187.2551"/>
<polygon fill="#000000" stroke="#000000" points="288.5001,-187.255 292,-197.2551 295.5001,-187.2551 288.5001,-187.255"/>
</g>
<!-- UnitFormModule -->
<g id="node4" class="node">
<title>UnitFormModule</title>
<polygon fill="#8dd3c7" stroke="#000000" points="181.2716,-233.5901 178.2716,-237.5901 157.2716,-237.5901 154.2716,-233.5901 66.7284,-233.5901 66.7284,-197.5901 181.2716,-197.5901 181.2716,-233.5901"/>
<text text-anchor="middle" x="124" y="-211.3901" font-family="Times,serif" font-size="14.00" fill="#000000">UnitFormModule</text>
</g>
<!-- UnitFormModule&#45;&gt;UnitChildCreateModule -->
<g id="edge3" class="edge">
<title>UnitFormModule&#45;&gt;UnitChildCreateModule</title>
<path fill="none" stroke="#000000" d="M156.6711,-233.6962C156.6711,-233.6962 156.6711,-252.581 156.6711,-252.581"/>
<polygon fill="#000000" stroke="#000000" points="153.1712,-252.581 156.6711,-262.581 160.1712,-252.5811 153.1712,-252.581"/>
</g>
</g>
</svg>
