<?xml version="1.0" encoding="UTF-8" standalone="no"?>
<!DOCTYPE svg PUBLIC "-//W3C//DTD SVG 1.1//EN"
 "http://www.w3.org/Graphics/SVG/1.1/DTD/svg11.dtd">
<!-- Generated by graphviz version 2.47.3 (20210619.1520)
 -->
<!-- Title: dependencies Pages: 1 -->
<svg width="368pt" height="174pt"
 viewBox="0.00 0.00 368.00 173.80" xmlns="http://www.w3.org/2000/svg" xmlns:xlink="http://www.w3.org/1999/xlink">
<g id="graph0" class="graph" transform="scale(1 1) rotate(0) translate(4 169.8)">
<title>dependencies</title>
<polygon fill="white" stroke="transparent" points="-4,4 -4,-169.8 364,-169.8 364,4 -4,4"/>
<text text-anchor="middle" x="180" y="-8.2" font-family="sans-serif" font-size="14.00">dependencies</text>
<g id="clust1" class="cluster">
<title>cluster_UnitChildCreateModule</title>
<polygon fill="none" stroke="black" stroke-dasharray="1,5" points="8,-32.8 8,-157.8 352,-157.8 352,-32.8 8,-32.8"/>
</g>
<g id="clust2" class="cluster">
<title>cluster_UnitChildCreateModule_declarations</title>
<polygon fill="none" stroke="black" points="154,-40.8 154,-92.8 344,-92.8 344,-40.8 154,-40.8"/>
</g>
<g id="clust4" class="cluster">
<title>cluster_UnitChildCreateModule_imports</title>
<polygon fill="none" stroke="black" points="16,-40.8 16,-92.8 146,-92.8 146,-40.8 16,-40.8"/>
</g>
<!-- UnitChildCreateComponent -->
<g id="node1" class="node">
<title>UnitChildCreateComponent</title>
<polygon fill="#ffffb3" stroke="black" points="335.87,-84.8 162.13,-84.8 162.13,-48.8 335.87,-48.8 335.87,-84.8"/>
<text text-anchor="middle" x="249" y="-62.6" font-family="Times,serif" font-size="14.00">UnitChildCreateComponent</text>
</g>
<!-- UnitChildCreateModule -->
<g id="node2" class="node">
<title>UnitChildCreateModule</title>
<polygon fill="#8dd3c7" stroke="black" points="246.09,-149.8 243.09,-153.8 222.09,-153.8 219.09,-149.8 93.91,-149.8 93.91,-113.8 246.09,-113.8 246.09,-149.8"/>
<text text-anchor="middle" x="170" y="-127.6" font-family="Times,serif" font-size="14.00">UnitChildCreateModule</text>
</g>
<!-- UnitChildCreateComponent&#45;&gt;UnitChildCreateModule -->
<g id="edge1" class="edge">
<title>UnitChildCreateComponent&#45;&gt;UnitChildCreateModule</title>
<path fill="none" stroke="black" d="M204.05,-84.91C204.05,-84.91 204.05,-103.79 204.05,-103.79"/>
<polygon fill="black" stroke="black" points="200.55,-103.79 204.05,-113.79 207.55,-103.79 200.55,-103.79"/>
</g>
<!-- UnitFormModule -->
<g id="node3" class="node">
<title>UnitFormModule</title>
<polygon fill="#8dd3c7" stroke="black" points="138.27,-84.8 135.27,-88.8 114.27,-88.8 111.27,-84.8 23.73,-84.8 23.73,-48.8 138.27,-48.8 138.27,-84.8"/>
<text text-anchor="middle" x="81" y="-62.6" font-family="Times,serif" font-size="14.00">UnitFormModule</text>
</g>
<!-- UnitFormModule&#45;&gt;UnitChildCreateModule -->
<g id="edge2" class="edge">
<title>UnitFormModule&#45;&gt;UnitChildCreateModule</title>
<path fill="none" stroke="black" d="M116.17,-84.91C116.17,-84.91 116.17,-103.79 116.17,-103.79"/>
<polygon fill="black" stroke="black" points="112.67,-103.79 116.17,-113.79 119.67,-103.79 112.67,-103.79"/>
</g>
</g>
</svg>
