<?xml version="1.0" encoding="UTF-8" standalone="no"?>
<!DOCTYPE svg PUBLIC "-//W3C//DTD SVG 1.1//EN"
 "http://www.w3.org/Graphics/SVG/1.1/DTD/svg11.dtd">
<!-- Generated by graphviz version 2.40.1 (20161225.0304)
 -->
<!-- Title: dependencies Pages: 1 -->
<svg width="588pt" height="284pt"
 viewBox="0.00 0.00 588.00 284.00" xmlns="http://www.w3.org/2000/svg" xmlns:xlink="http://www.w3.org/1999/xlink">
<g id="graph0" class="graph" transform="scale(1 1) rotate(0) translate(4 280)">
<title>dependencies</title>
<polygon fill="#ffffff" stroke="transparent" points="-4,4 -4,-280 584,-280 584,4 -4,4"/>
<text text-anchor="start" x="269.0091" y="-42.4" font-family="sans-serif" font-weight="bold" font-size="14.00" fill="#000000">Legend</text>
<polygon fill="#ffffb3" stroke="transparent" points="56,-10 56,-30 76,-30 76,-10 56,-10"/>
<text text-anchor="start" x="79.629" y="-15.4" font-family="sans-serif" font-size="14.00" fill="#000000"> &#160;Declarations</text>
<polygon fill="#8dd3c7" stroke="transparent" points="169,-10 169,-30 189,-30 189,-10 169,-10"/>
<text text-anchor="start" x="192.7251" y="-15.4" font-family="sans-serif" font-size="14.00" fill="#000000"> &#160;Module</text>
<polygon fill="#80b1d3" stroke="transparent" points="255,-10 255,-30 275,-30 275,-10 255,-10"/>
<text text-anchor="start" x="278.7812" y="-15.4" font-family="sans-serif" font-size="14.00" fill="#000000"> &#160;Bootstrap</text>
<polygon fill="#fdb462" stroke="transparent" points="352,-10 352,-30 372,-30 372,-10 352,-10"/>
<text text-anchor="start" x="375.6732" y="-15.4" font-family="sans-serif" font-size="14.00" fill="#000000"> &#160;Providers</text>
<polygon fill="#fb8072" stroke="transparent" points="448,-10 448,-30 468,-30 468,-10 448,-10"/>
<text text-anchor="start" x="471.7258" y="-15.4" font-family="sans-serif" font-size="14.00" fill="#000000"> &#160;Exports</text>
<g id="clust1" class="cluster">
<title>cluster_ActiveFacetsModule</title>
<polygon fill="none" stroke="#000000" stroke-dasharray="1,5" points="8,-70 8,-268 572,-268 572,-70 8,-70"/>
</g>
<g id="clust2" class="cluster">
<title>cluster_ActiveFacetsModule_declarations</title>
<polygon fill="none" stroke="#000000" points="394,-78 394,-130 564,-130 564,-78 394,-78"/>
</g>
<g id="clust4" class="cluster">
<title>cluster_ActiveFacetsModule_imports</title>
<polygon fill="none" stroke="#000000" points="16,-78 16,-130 386,-130 386,-78 16,-78"/>
</g>
<g id="clust5" class="cluster">
<title>cluster_ActiveFacetsModule_exports</title>
<polygon fill="none" stroke="#000000" points="196,-208 196,-260 370,-260 370,-208 196,-208"/>
</g>
<!-- ActiveFacetsComponent -->
<g id="node1" class="node">
<title>ActiveFacetsComponent</title>
<polygon fill="#ffffb3" stroke="#000000" points="556.4115,-122 401.5885,-122 401.5885,-86 556.4115,-86 556.4115,-122"/>
<text text-anchor="middle" x="479" y="-99.8" font-family="Times,serif" font-size="14.00" fill="#000000">ActiveFacetsComponent</text>
</g>
<!-- ActiveFacetsModule -->
<g id="node2" class="node">
<title>ActiveFacetsModule</title>
<polygon fill="#8dd3c7" stroke="#000000" points="349.1289,-187 346.1289,-191 325.1289,-191 322.1289,-187 216.8711,-187 216.8711,-151 349.1289,-151 349.1289,-187"/>
<text text-anchor="middle" x="283" y="-164.8" font-family="Times,serif" font-size="14.00" fill="#000000">ActiveFacetsModule</text>
</g>
<!-- ActiveFacetsComponent&#45;&gt;ActiveFacetsModule -->
<g id="edge1" class="edge">
<title>ActiveFacetsComponent&#45;&gt;ActiveFacetsModule</title>
<path fill="none" stroke="#000000" d="M479,-122.1061C479,-141.3391 479,-169 479,-169 479,-169 359.3567,-169 359.3567,-169"/>
<polygon fill="#000000" stroke="#000000" points="359.3567,-165.5001 349.3567,-169 359.3566,-172.5001 359.3567,-165.5001"/>
</g>
<!-- ActiveFacetsComponent  -->
<g id="node6" class="node">
<title>ActiveFacetsComponent </title>
<polygon fill="#fb8072" stroke="#000000" points="361.911,-252 204.089,-252 204.089,-216 361.911,-216 361.911,-252"/>
<text text-anchor="middle" x="283" y="-229.8" font-family="Times,serif" font-size="14.00" fill="#000000">ActiveFacetsComponent </text>
</g>
<!-- ActiveFacetsModule&#45;&gt;ActiveFacetsComponent  -->
<g id="edge5" class="edge">
<title>ActiveFacetsModule&#45;&gt;ActiveFacetsComponent </title>
<path fill="none" stroke="#000000" stroke-dasharray="5,2" d="M283,-187.1061C283,-187.1061 283,-205.991 283,-205.991"/>
<polygon fill="#000000" stroke="#000000" points="279.5001,-205.9909 283,-215.991 286.5001,-205.991 279.5001,-205.9909"/>
</g>
<!-- I18nModule -->
<g id="node3" class="node">
<title>I18nModule</title>
<polygon fill="#8dd3c7" stroke="#000000" points="377.7107,-122 374.7107,-126 353.7107,-126 350.7107,-122 292.2893,-122 292.2893,-86 377.7107,-86 377.7107,-122"/>
<text text-anchor="middle" x="335" y="-99.8" font-family="Times,serif" font-size="14.00" fill="#000000">I18nModule</text>
</g>
<!-- I18nModule&#45;&gt;ActiveFacetsModule -->
<g id="edge2" class="edge">
<title>I18nModule&#45;&gt;ActiveFacetsModule</title>
<path fill="none" stroke="#000000" d="M320.8545,-122.1061C320.8545,-122.1061 320.8545,-140.991 320.8545,-140.991"/>
<polygon fill="#000000" stroke="#000000" points="317.3546,-140.9909 320.8545,-150.991 324.3546,-140.991 317.3546,-140.9909"/>
</g>
<!-- IconModule -->
<g id="node4" class="node">
<title>IconModule</title>
<polygon fill="#8dd3c7" stroke="#000000" points="274.4261,-122 271.4261,-126 250.4261,-126 247.4261,-122 189.5739,-122 189.5739,-86 274.4261,-86 274.4261,-122"/>
<text text-anchor="middle" x="232" y="-99.8" font-family="Times,serif" font-size="14.00" fill="#000000">IconModule</text>
</g>
<!-- IconModule&#45;&gt;ActiveFacetsModule -->
<g id="edge3" class="edge">
<title>IconModule&#45;&gt;ActiveFacetsModule</title>
<path fill="none" stroke="#000000" d="M245.4492,-122.1061C245.4492,-122.1061 245.4492,-140.991 245.4492,-140.991"/>
<polygon fill="#000000" stroke="#000000" points="241.9492,-140.9909 245.4492,-150.991 248.9492,-140.991 241.9492,-140.9909"/>
</g>
<!-- KeyboardFocusModule -->
<g id="node5" class="node">
<title>KeyboardFocusModule</title>
<polygon fill="#8dd3c7" stroke="#000000" points="172.1881,-122 169.1881,-126 148.1881,-126 145.1881,-122 23.8119,-122 23.8119,-86 172.1881,-86 172.1881,-122"/>
<text text-anchor="middle" x="98" y="-99.8" font-family="Times,serif" font-size="14.00" fill="#000000">KeyboardFocusModule</text>
</g>
<!-- KeyboardFocusModule&#45;&gt;ActiveFacetsModule -->
<g id="edge4" class="edge">
<title>KeyboardFocusModule&#45;&gt;ActiveFacetsModule</title>
<path fill="none" stroke="#000000" d="M98,-122.1061C98,-141.3391 98,-169 98,-169 98,-169 206.7333,-169 206.7333,-169"/>
<polygon fill="#000000" stroke="#000000" points="206.7333,-172.5001 216.7333,-169 206.7333,-165.5001 206.7333,-172.5001"/>
</g>
</g>
</svg>
