<?xml version="1.0" encoding="UTF-8" standalone="no"?>
<!DOCTYPE svg PUBLIC "-//W3C//DTD SVG 1.1//EN"
 "http://www.w3.org/Graphics/SVG/1.1/DTD/svg11.dtd">
<!-- Generated by graphviz version 2.47.3 (20210619.1520)
 -->
<!-- Title: dependencies Pages: 1 -->
<svg width="588pt" height="247pt"
 viewBox="0.00 0.00 588.00 246.80" xmlns="http://www.w3.org/2000/svg" xmlns:xlink="http://www.w3.org/1999/xlink">
<g id="graph0" class="graph" transform="scale(1 1) rotate(0) translate(4 242.8)">
<title>dependencies</title>
<polygon fill="white" stroke="transparent" points="-4,4 -4,-242.8 584,-242.8 584,4 -4,4"/>
<text text-anchor="middle" x="290" y="-8.2" font-family="sans-serif" font-size="14.00">dependencies</text>
<g id="clust1" class="cluster">
<title>cluster_ActiveFacetsModule</title>
<polygon fill="none" stroke="black" stroke-dasharray="1,5" points="8,-32.8 8,-230.8 572,-230.8 572,-32.8 8,-32.8"/>
</g>
<g id="clust2" class="cluster">
<title>cluster_ActiveFacetsModule_declarations</title>
<polygon fill="none" stroke="black" points="394,-40.8 394,-92.8 564,-92.8 564,-40.8 394,-40.8"/>
</g>
<g id="clust4" class="cluster">
<title>cluster_ActiveFacetsModule_imports</title>
<polygon fill="none" stroke="black" points="16,-40.8 16,-92.8 386,-92.8 386,-40.8 16,-40.8"/>
</g>
<g id="clust5" class="cluster">
<title>cluster_ActiveFacetsModule_exports</title>
<polygon fill="none" stroke="black" points="196,-170.8 196,-222.8 370,-222.8 370,-170.8 196,-170.8"/>
</g>
<!-- ActiveFacetsComponent -->
<g id="node1" class="node">
<title>ActiveFacetsComponent</title>
<polygon fill="#ffffb3" stroke="black" points="556.41,-84.8 401.59,-84.8 401.59,-48.8 556.41,-48.8 556.41,-84.8"/>
<text text-anchor="middle" x="479" y="-62.6" font-family="Times,serif" font-size="14.00">ActiveFacetsComponent</text>
</g>
<!-- ActiveFacetsModule -->
<g id="node2" class="node">
<title>ActiveFacetsModule</title>
<polygon fill="#8dd3c7" stroke="black" points="349.13,-149.8 346.13,-153.8 325.13,-153.8 322.13,-149.8 216.87,-149.8 216.87,-113.8 349.13,-113.8 349.13,-149.8"/>
<text text-anchor="middle" x="283" y="-127.6" font-family="Times,serif" font-size="14.00">ActiveFacetsModule</text>
</g>
<!-- ActiveFacetsComponent&#45;&gt;ActiveFacetsModule -->
<g id="edge1" class="edge">
<title>ActiveFacetsComponent&#45;&gt;ActiveFacetsModule</title>
<path fill="none" stroke="black" d="M479,-84.91C479,-104.14 479,-131.8 479,-131.8 479,-131.8 359.36,-131.8 359.36,-131.8"/>
<polygon fill="black" stroke="black" points="359.36,-128.3 349.36,-131.8 359.36,-135.3 359.36,-128.3"/>
</g>
<!-- ActiveFacetsComponent  -->
<g id="node6" class="node">
<title>ActiveFacetsComponent </title>
<polygon fill="#fb8072" stroke="black" points="361.91,-214.8 204.09,-214.8 204.09,-178.8 361.91,-178.8 361.91,-214.8"/>
<text text-anchor="middle" x="283" y="-192.6" font-family="Times,serif" font-size="14.00">ActiveFacetsComponent </text>
</g>
<!-- ActiveFacetsModule&#45;&gt;ActiveFacetsComponent  -->
<g id="edge5" class="edge">
<title>ActiveFacetsModule&#45;&gt;ActiveFacetsComponent </title>
<path fill="none" stroke="black" stroke-dasharray="5,2" d="M283,-149.91C283,-149.91 283,-168.79 283,-168.79"/>
<polygon fill="black" stroke="black" points="279.5,-168.79 283,-178.79 286.5,-168.79 279.5,-168.79"/>
</g>
<!-- I18nModule -->
<g id="node3" class="node">
<title>I18nModule</title>
<polygon fill="#8dd3c7" stroke="black" points="377.71,-84.8 374.71,-88.8 353.71,-88.8 350.71,-84.8 292.29,-84.8 292.29,-48.8 377.71,-48.8 377.71,-84.8"/>
<text text-anchor="middle" x="335" y="-62.6" font-family="Times,serif" font-size="14.00">I18nModule</text>
</g>
<!-- I18nModule&#45;&gt;ActiveFacetsModule -->
<g id="edge2" class="edge">
<title>I18nModule&#45;&gt;ActiveFacetsModule</title>
<path fill="none" stroke="black" d="M320.85,-84.91C320.85,-84.91 320.85,-103.79 320.85,-103.79"/>
<polygon fill="black" stroke="black" points="317.35,-103.79 320.85,-113.79 324.35,-103.79 317.35,-103.79"/>
</g>
<!-- IconModule -->
<g id="node4" class="node">
<title>IconModule</title>
<polygon fill="#8dd3c7" stroke="black" points="274.43,-84.8 271.43,-88.8 250.43,-88.8 247.43,-84.8 189.57,-84.8 189.57,-48.8 274.43,-48.8 274.43,-84.8"/>
<text text-anchor="middle" x="232" y="-62.6" font-family="Times,serif" font-size="14.00">IconModule</text>
</g>
<!-- IconModule&#45;&gt;ActiveFacetsModule -->
<g id="edge3" class="edge">
<title>IconModule&#45;&gt;ActiveFacetsModule</title>
<path fill="none" stroke="black" d="M245.45,-84.91C245.45,-84.91 245.45,-103.79 245.45,-103.79"/>
<polygon fill="black" stroke="black" points="241.95,-103.79 245.45,-113.79 248.95,-103.79 241.95,-103.79"/>
</g>
<!-- KeyboardFocusModule -->
<g id="node5" class="node">
<title>KeyboardFocusModule</title>
<polygon fill="#8dd3c7" stroke="black" points="172.19,-84.8 169.19,-88.8 148.19,-88.8 145.19,-84.8 23.81,-84.8 23.81,-48.8 172.19,-48.8 172.19,-84.8"/>
<text text-anchor="middle" x="98" y="-62.6" font-family="Times,serif" font-size="14.00">KeyboardFocusModule</text>
</g>
<!-- KeyboardFocusModule&#45;&gt;ActiveFacetsModule -->
<g id="edge4" class="edge">
<title>KeyboardFocusModule&#45;&gt;ActiveFacetsModule</title>
<path fill="none" stroke="black" d="M98,-84.91C98,-104.14 98,-131.8 98,-131.8 98,-131.8 206.73,-131.8 206.73,-131.8"/>
<polygon fill="black" stroke="black" points="206.73,-135.3 216.73,-131.8 206.73,-128.3 206.73,-135.3"/>
</g>
</g>
</svg>
