<?xml version="1.0" encoding="UTF-8" standalone="no"?>
<!DOCTYPE svg PUBLIC "-//W3C//DTD SVG 1.1//EN"
 "http://www.w3.org/Graphics/SVG/1.1/DTD/svg11.dtd">
<!-- Generated by graphviz version 2.47.3 (20210619.1520)
 -->
<!-- Title: dependencies Pages: 1 -->
<svg width="805pt" height="247pt"
 viewBox="0.00 0.00 805.00 246.80" xmlns="http://www.w3.org/2000/svg" xmlns:xlink="http://www.w3.org/1999/xlink">
<g id="graph0" class="graph" transform="scale(1 1) rotate(0) translate(4 242.8)">
<title>dependencies</title>
<polygon fill="white" stroke="transparent" points="-4,4 -4,-242.8 801,-242.8 801,4 -4,4"/>
<text text-anchor="middle" x="398.5" y="-8.2" font-family="sans-serif" font-size="14.00">dependencies</text>
<g id="clust1" class="cluster">
<title>cluster_MyInterestsModule</title>
<polygon fill="none" stroke="black" stroke-dasharray="1,5" points="8,-32.8 8,-230.8 789,-230.8 789,-32.8 8,-32.8"/>
</g>
<g id="clust2" class="cluster">
<title>cluster_MyInterestsModule_declarations</title>
<polygon fill="none" stroke="black" points="617,-40.8 617,-92.8 781,-92.8 781,-40.8 617,-40.8"/>
</g>
<g id="clust5" class="cluster">
<title>cluster_MyInterestsModule_exports</title>
<polygon fill="none" stroke="black" points="342,-170.8 342,-222.8 510,-222.8 510,-170.8 342,-170.8"/>
</g>
<g id="clust4" class="cluster">
<title>cluster_MyInterestsModule_imports</title>
<polygon fill="none" stroke="black" points="16,-40.8 16,-92.8 609,-92.8 609,-40.8 16,-40.8"/>
</g>
<!-- MyInterestsComponent -->
<g id="node1" class="node">
<title>MyInterestsComponent</title>
<polygon fill="#ffffb3" stroke="black" points="773.2,-84.8 624.8,-84.8 624.8,-48.8 773.2,-48.8 773.2,-84.8"/>
<text text-anchor="middle" x="699" y="-62.6" font-family="Times,serif" font-size="14.00">MyInterestsComponent</text>
</g>
<!-- MyInterestsModule -->
<g id="node2" class="node">
<title>MyInterestsModule</title>
<polygon fill="#8dd3c7" stroke="black" points="489.42,-149.8 486.42,-153.8 465.42,-153.8 462.42,-149.8 362.58,-149.8 362.58,-113.8 489.42,-113.8 489.42,-149.8"/>
<text text-anchor="middle" x="426" y="-127.6" font-family="Times,serif" font-size="14.00">MyInterestsModule</text>
</g>
<!-- MyInterestsComponent&#45;&gt;MyInterestsModule -->
<g id="edge1" class="edge">
<title>MyInterestsComponent&#45;&gt;MyInterestsModule</title>
<path fill="none" stroke="black" d="M699,-85.09C699,-107.01 699,-140.8 699,-140.8 699,-140.8 499.32,-140.8 499.32,-140.8"/>
<polygon fill="black" stroke="black" points="499.32,-137.3 489.32,-140.8 499.32,-144.3 499.32,-137.3"/>
</g>
<!-- MyInterestsComponent  -->
<g id="node8" class="node">
<title>MyInterestsComponent </title>
<polygon fill="#fb8072" stroke="black" points="501.7,-214.8 350.3,-214.8 350.3,-178.8 501.7,-178.8 501.7,-214.8"/>
<text text-anchor="middle" x="426" y="-192.6" font-family="Times,serif" font-size="14.00">MyInterestsComponent </text>
</g>
<!-- MyInterestsModule&#45;&gt;MyInterestsComponent  -->
<g id="edge8" class="edge">
<title>MyInterestsModule&#45;&gt;MyInterestsComponent </title>
<path fill="none" stroke="black" stroke-dasharray="5,2" d="M426,-149.91C426,-149.91 426,-168.79 426,-168.79"/>
<polygon fill="black" stroke="black" points="422.5,-168.79 426,-178.79 429.5,-168.79 422.5,-168.79"/>
</g>
<!-- I18nModule -->
<g id="node3" class="node">
<title>I18nModule</title>
<polygon fill="#8dd3c7" stroke="black" points="600.71,-84.8 597.71,-88.8 576.71,-88.8 573.71,-84.8 515.29,-84.8 515.29,-48.8 600.71,-48.8 600.71,-84.8"/>
<text text-anchor="middle" x="558" y="-62.6" font-family="Times,serif" font-size="14.00">I18nModule</text>
</g>
<!-- I18nModule&#45;&gt;MyInterestsModule -->
<g id="edge2" class="edge">
<title>I18nModule&#45;&gt;MyInterestsModule</title>
<path fill="none" stroke="black" d="M543.8,-84.83C543.8,-101.2 543.8,-122.8 543.8,-122.8 543.8,-122.8 499.38,-122.8 499.38,-122.8"/>
<polygon fill="black" stroke="black" points="499.38,-119.3 489.38,-122.8 499.38,-126.3 499.38,-119.3"/>
</g>
<!-- I18nModule&#45;&gt;MyInterestsModule -->
<g id="edge3" class="edge">
<title>I18nModule&#45;&gt;MyInterestsModule</title>
<path fill="none" stroke="black" d="M572.2,-84.91C572.2,-104.14 572.2,-131.8 572.2,-131.8 572.2,-131.8 499.28,-131.8 499.28,-131.8"/>
<polygon fill="black" stroke="black" points="499.28,-128.3 489.28,-131.8 499.28,-135.3 499.28,-128.3"/>
</g>
<!-- ListNavigationModule -->
<g id="node4" class="node">
<title>ListNavigationModule</title>
<polygon fill="#8dd3c7" stroke="black" points="497.54,-84.8 494.54,-88.8 473.54,-88.8 470.54,-84.8 354.46,-84.8 354.46,-48.8 497.54,-48.8 497.54,-84.8"/>
<text text-anchor="middle" x="426" y="-62.6" font-family="Times,serif" font-size="14.00">ListNavigationModule</text>
</g>
<!-- ListNavigationModule&#45;&gt;MyInterestsModule -->
<g id="edge4" class="edge">
<title>ListNavigationModule&#45;&gt;MyInterestsModule</title>
<path fill="none" stroke="black" d="M426,-84.91C426,-84.91 426,-103.79 426,-103.79"/>
<polygon fill="black" stroke="black" points="422.5,-103.79 426,-113.79 429.5,-103.79 422.5,-103.79"/>
</g>
<!-- MediaModule -->
<g id="node5" class="node">
<title>MediaModule</title>
<polygon fill="#8dd3c7" stroke="black" points="336.81,-84.8 333.81,-88.8 312.81,-88.8 309.81,-84.8 241.19,-84.8 241.19,-48.8 336.81,-48.8 336.81,-84.8"/>
<text text-anchor="middle" x="289" y="-62.6" font-family="Times,serif" font-size="14.00">MediaModule</text>
</g>
<!-- MediaModule&#45;&gt;MyInterestsModule -->
<g id="edge5" class="edge">
<title>MediaModule&#45;&gt;MyInterestsModule</title>
<path fill="none" stroke="black" d="M289,-84.83C289,-101.2 289,-122.8 289,-122.8 289,-122.8 352.71,-122.8 352.71,-122.8"/>
<polygon fill="black" stroke="black" points="352.71,-126.3 362.71,-122.8 352.71,-119.3 352.71,-126.3"/>
</g>
<!-- SpinnerModule -->
<g id="node6" class="node">
<title>SpinnerModule</title>
<polygon fill="#8dd3c7" stroke="black" points="223.6,-84.8 220.6,-88.8 199.6,-88.8 196.6,-84.8 120.4,-84.8 120.4,-48.8 223.6,-48.8 223.6,-84.8"/>
<text text-anchor="middle" x="172" y="-62.6" font-family="Times,serif" font-size="14.00">SpinnerModule</text>
</g>
<!-- SpinnerModule&#45;&gt;MyInterestsModule -->
<g id="edge6" class="edge">
<title>SpinnerModule&#45;&gt;MyInterestsModule</title>
<path fill="none" stroke="black" d="M172,-84.91C172,-104.14 172,-131.8 172,-131.8 172,-131.8 352.56,-131.8 352.56,-131.8"/>
<polygon fill="black" stroke="black" points="352.56,-135.3 362.56,-131.8 352.56,-128.3 352.56,-135.3"/>
</g>
<!-- UrlModule -->
<g id="node7" class="node">
<title>UrlModule</title>
<polygon fill="#8dd3c7" stroke="black" points="102.21,-84.8 99.21,-88.8 78.21,-88.8 75.21,-84.8 23.79,-84.8 23.79,-48.8 102.21,-48.8 102.21,-84.8"/>
<text text-anchor="middle" x="63" y="-62.6" font-family="Times,serif" font-size="14.00">UrlModule</text>
</g>
<!-- UrlModule&#45;&gt;MyInterestsModule -->
<g id="edge7" class="edge">
<title>UrlModule&#45;&gt;MyInterestsModule</title>
<path fill="none" stroke="black" d="M63,-85.09C63,-107.01 63,-140.8 63,-140.8 63,-140.8 352.77,-140.8 352.77,-140.8"/>
<polygon fill="black" stroke="black" points="352.77,-144.3 362.77,-140.8 352.77,-137.3 352.77,-144.3"/>
</g>
</g>
</svg>
