<?xml version="1.0" encoding="UTF-8" standalone="no"?>
<!DOCTYPE svg PUBLIC "-//W3C//DTD SVG 1.1//EN"
 "http://www.w3.org/Graphics/SVG/1.1/DTD/svg11.dtd">
<!-- Generated by graphviz version 2.46.0 (20210119.1425)
 -->
<!-- Title: dependencies Pages: 1 -->
<svg width="805pt" height="284pt"
 viewBox="0.00 0.00 805.00 284.00" xmlns="http://www.w3.org/2000/svg" xmlns:xlink="http://www.w3.org/1999/xlink">
<g id="graph0" class="graph" transform="scale(1 1) rotate(0) translate(4 280)">
<title>dependencies</title>
<polygon fill="white" stroke="transparent" points="-4,4 -4,-280 801,-280 801,4 -4,4"/>
<text text-anchor="start" x="377.51" y="-42.4" font-family="sans-serif" font-weight="bold" font-size="14.00">Legend</text>
<polygon fill="#ffffb3" stroke="transparent" points="164.5,-10 164.5,-30 184.5,-30 184.5,-10 164.5,-10"/>
<text text-anchor="start" x="188.13" y="-15.4" font-family="sans-serif" font-size="14.00"> &#160;Declarations</text>
<polygon fill="#8dd3c7" stroke="transparent" points="277.5,-10 277.5,-30 297.5,-30 297.5,-10 277.5,-10"/>
<text text-anchor="start" x="301.23" y="-15.4" font-family="sans-serif" font-size="14.00"> &#160;Module</text>
<polygon fill="#80b1d3" stroke="transparent" points="363.5,-10 363.5,-30 383.5,-30 383.5,-10 363.5,-10"/>
<text text-anchor="start" x="387.28" y="-15.4" font-family="sans-serif" font-size="14.00"> &#160;Bootstrap</text>
<polygon fill="#fdb462" stroke="transparent" points="460.5,-10 460.5,-30 480.5,-30 480.5,-10 460.5,-10"/>
<text text-anchor="start" x="484.17" y="-15.4" font-family="sans-serif" font-size="14.00"> &#160;Providers</text>
<polygon fill="#fb8072" stroke="transparent" points="556.5,-10 556.5,-30 576.5,-30 576.5,-10 556.5,-10"/>
<text text-anchor="start" x="580.23" y="-15.4" font-family="sans-serif" font-size="14.00"> &#160;Exports</text>
<g id="clust1" class="cluster">
<title>cluster_MyInterestsModule</title>
<polygon fill="none" stroke="black" stroke-dasharray="1,5" points="8,-70 8,-268 789,-268 789,-70 8,-70"/>
</g>
<g id="clust2" class="cluster">
<title>cluster_MyInterestsModule_declarations</title>
<polygon fill="none" stroke="black" points="617,-78 617,-130 781,-130 781,-78 617,-78"/>
</g>
<g id="clust4" class="cluster">
<title>cluster_MyInterestsModule_imports</title>
<polygon fill="none" stroke="black" points="16,-78 16,-130 609,-130 609,-78 16,-78"/>
</g>
<g id="clust5" class="cluster">
<title>cluster_MyInterestsModule_exports</title>
<polygon fill="none" stroke="black" points="342,-208 342,-260 510,-260 510,-208 342,-208"/>
</g>
<!-- MyInterestsComponent -->
<g id="node1" class="node">
<title>MyInterestsComponent</title>
<polygon fill="#ffffb3" stroke="black" points="773.2,-122 624.8,-122 624.8,-86 773.2,-86 773.2,-122"/>
<text text-anchor="middle" x="699" y="-99.8" font-family="Times,serif" font-size="14.00">MyInterestsComponent</text>
</g>
<!-- MyInterestsModule -->
<g id="node2" class="node">
<title>MyInterestsModule</title>
<polygon fill="#8dd3c7" stroke="black" points="489.42,-187 486.42,-191 465.42,-191 462.42,-187 362.58,-187 362.58,-151 489.42,-151 489.42,-187"/>
<text text-anchor="middle" x="426" y="-164.8" font-family="Times,serif" font-size="14.00">MyInterestsModule</text>
</g>
<!-- MyInterestsComponent&#45;&gt;MyInterestsModule -->
<g id="edge1" class="edge">
<title>MyInterestsComponent&#45;&gt;MyInterestsModule</title>
<path fill="none" stroke="black" d="M699,-122.29C699,-144.21 699,-178 699,-178 699,-178 499.32,-178 499.32,-178"/>
<polygon fill="black" stroke="black" points="499.32,-174.5 489.32,-178 499.32,-181.5 499.32,-174.5"/>
</g>
<!-- MyInterestsComponent  -->
<g id="node8" class="node">
<title>MyInterestsComponent </title>
<polygon fill="#fb8072" stroke="black" points="501.7,-252 350.3,-252 350.3,-216 501.7,-216 501.7,-252"/>
<text text-anchor="middle" x="426" y="-229.8" font-family="Times,serif" font-size="14.00">MyInterestsComponent </text>
</g>
<!-- MyInterestsModule&#45;&gt;MyInterestsComponent  -->
<g id="edge8" class="edge">
<title>MyInterestsModule&#45;&gt;MyInterestsComponent </title>
<path fill="none" stroke="black" stroke-dasharray="5,2" d="M426,-187.11C426,-187.11 426,-205.99 426,-205.99"/>
<polygon fill="black" stroke="black" points="422.5,-205.99 426,-215.99 429.5,-205.99 422.5,-205.99"/>
</g>
<!-- I18nModule -->
<g id="node3" class="node">
<title>I18nModule</title>
<polygon fill="#8dd3c7" stroke="black" points="600.71,-122 597.71,-126 576.71,-126 573.71,-122 515.29,-122 515.29,-86 600.71,-86 600.71,-122"/>
<text text-anchor="middle" x="558" y="-99.8" font-family="Times,serif" font-size="14.00">I18nModule</text>
</g>
<!-- I18nModule&#45;&gt;MyInterestsModule -->
<g id="edge2" class="edge">
<title>I18nModule&#45;&gt;MyInterestsModule</title>
<path fill="none" stroke="black" d="M543.8,-122.03C543.8,-138.4 543.8,-160 543.8,-160 543.8,-160 499.38,-160 499.38,-160"/>
<polygon fill="black" stroke="black" points="499.38,-156.5 489.38,-160 499.38,-163.5 499.38,-156.5"/>
</g>
<!-- I18nModule&#45;&gt;MyInterestsModule -->
<g id="edge3" class="edge">
<title>I18nModule&#45;&gt;MyInterestsModule</title>
<path fill="none" stroke="black" d="M572.2,-122.11C572.2,-141.34 572.2,-169 572.2,-169 572.2,-169 499.28,-169 499.28,-169"/>
<polygon fill="black" stroke="black" points="499.28,-165.5 489.28,-169 499.28,-172.5 499.28,-165.5"/>
</g>
<!-- ListNavigationModule -->
<g id="node4" class="node">
<title>ListNavigationModule</title>
<polygon fill="#8dd3c7" stroke="black" points="497.54,-122 494.54,-126 473.54,-126 470.54,-122 354.46,-122 354.46,-86 497.54,-86 497.54,-122"/>
<text text-anchor="middle" x="426" y="-99.8" font-family="Times,serif" font-size="14.00">ListNavigationModule</text>
</g>
<!-- ListNavigationModule&#45;&gt;MyInterestsModule -->
<g id="edge4" class="edge">
<title>ListNavigationModule&#45;&gt;MyInterestsModule</title>
<path fill="none" stroke="black" d="M426,-122.11C426,-122.11 426,-140.99 426,-140.99"/>
<polygon fill="black" stroke="black" points="422.5,-140.99 426,-150.99 429.5,-140.99 422.5,-140.99"/>
</g>
<!-- MediaModule -->
<g id="node5" class="node">
<title>MediaModule</title>
<polygon fill="#8dd3c7" stroke="black" points="336.81,-122 333.81,-126 312.81,-126 309.81,-122 241.19,-122 241.19,-86 336.81,-86 336.81,-122"/>
<text text-anchor="middle" x="289" y="-99.8" font-family="Times,serif" font-size="14.00">MediaModule</text>
</g>
<!-- MediaModule&#45;&gt;MyInterestsModule -->
<g id="edge5" class="edge">
<title>MediaModule&#45;&gt;MyInterestsModule</title>
<path fill="none" stroke="black" d="M289,-122.03C289,-138.4 289,-160 289,-160 289,-160 352.71,-160 352.71,-160"/>
<polygon fill="black" stroke="black" points="352.71,-163.5 362.71,-160 352.71,-156.5 352.71,-163.5"/>
</g>
<!-- SpinnerModule -->
<g id="node6" class="node">
<title>SpinnerModule</title>
<polygon fill="#8dd3c7" stroke="black" points="223.6,-122 220.6,-126 199.6,-126 196.6,-122 120.4,-122 120.4,-86 223.6,-86 223.6,-122"/>
<text text-anchor="middle" x="172" y="-99.8" font-family="Times,serif" font-size="14.00">SpinnerModule</text>
</g>
<!-- SpinnerModule&#45;&gt;MyInterestsModule -->
<g id="edge6" class="edge">
<title>SpinnerModule&#45;&gt;MyInterestsModule</title>
<path fill="none" stroke="black" d="M172,-122.11C172,-141.34 172,-169 172,-169 172,-169 352.56,-169 352.56,-169"/>
<polygon fill="black" stroke="black" points="352.56,-172.5 362.56,-169 352.56,-165.5 352.56,-172.5"/>
</g>
<!-- UrlModule -->
<g id="node7" class="node">
<title>UrlModule</title>
<polygon fill="#8dd3c7" stroke="black" points="102.21,-122 99.21,-126 78.21,-126 75.21,-122 23.79,-122 23.79,-86 102.21,-86 102.21,-122"/>
<text text-anchor="middle" x="63" y="-99.8" font-family="Times,serif" font-size="14.00">UrlModule</text>
</g>
<!-- UrlModule&#45;&gt;MyInterestsModule -->
<g id="edge7" class="edge">
<title>UrlModule&#45;&gt;MyInterestsModule</title>
<path fill="none" stroke="black" d="M63,-122.29C63,-144.21 63,-178 63,-178 63,-178 352.77,-178 352.77,-178"/>
<polygon fill="black" stroke="black" points="352.77,-181.5 362.77,-178 352.77,-174.5 352.77,-181.5"/>
</g>
</g>
</svg>
