<?xml version="1.0" encoding="UTF-8" standalone="no"?>
<!DOCTYPE svg PUBLIC "-//W3C//DTD SVG 1.1//EN"
 "http://www.w3.org/Graphics/SVG/1.1/DTD/svg11.dtd">
<!-- Generated by graphviz version 2.40.1 (20161225.0304)
 -->
<!-- Title: dependencies Pages: 1 -->
<svg width="929pt" height="284pt"
 viewBox="0.00 0.00 929.00 284.00" xmlns="http://www.w3.org/2000/svg" xmlns:xlink="http://www.w3.org/1999/xlink">
<g id="graph0" class="graph" transform="scale(1 1) rotate(0) translate(4 280)">
<title>dependencies</title>
<polygon fill="#ffffff" stroke="transparent" points="-4,4 -4,-280 925,-280 925,4 -4,4"/>
<text text-anchor="start" x="439.5091" y="-42.4" font-family="sans-serif" font-weight="bold" font-size="14.00" fill="#000000">Legend</text>
<polygon fill="#ffffb3" stroke="transparent" points="226.5,-10 226.5,-30 246.5,-30 246.5,-10 226.5,-10"/>
<text text-anchor="start" x="250.129" y="-15.4" font-family="sans-serif" font-size="14.00" fill="#000000"> &#160;Declarations</text>
<polygon fill="#8dd3c7" stroke="transparent" points="339.5,-10 339.5,-30 359.5,-30 359.5,-10 339.5,-10"/>
<text text-anchor="start" x="363.2251" y="-15.4" font-family="sans-serif" font-size="14.00" fill="#000000"> &#160;Module</text>
<polygon fill="#80b1d3" stroke="transparent" points="425.5,-10 425.5,-30 445.5,-30 445.5,-10 425.5,-10"/>
<text text-anchor="start" x="449.2812" y="-15.4" font-family="sans-serif" font-size="14.00" fill="#000000"> &#160;Bootstrap</text>
<polygon fill="#fdb462" stroke="transparent" points="522.5,-10 522.5,-30 542.5,-30 542.5,-10 522.5,-10"/>
<text text-anchor="start" x="546.1732" y="-15.4" font-family="sans-serif" font-size="14.00" fill="#000000"> &#160;Providers</text>
<polygon fill="#fb8072" stroke="transparent" points="618.5,-10 618.5,-30 638.5,-30 638.5,-10 618.5,-10"/>
<text text-anchor="start" x="642.2258" y="-15.4" font-family="sans-serif" font-size="14.00" fill="#000000"> &#160;Exports</text>
<g id="clust1" class="cluster">
<title>cluster_SubListModule</title>
<polygon fill="none" stroke="#000000" stroke-dasharray="1,5" points="8,-70 8,-268 913,-268 913,-70 8,-70"/>
</g>
<g id="clust2" class="cluster">
<title>cluster_SubListModule_declarations</title>
<polygon fill="none" stroke="#000000" points="603,-78 603,-130 905,-130 905,-78 603,-78"/>
</g>
<g id="clust5" class="cluster">
<title>cluster_SubListModule_imports</title>
<polygon fill="none" stroke="#000000" points="16,-78 16,-130 595,-130 595,-78 16,-78"/>
</g>
<g id="clust6" class="cluster">
<title>cluster_SubListModule_exports</title>
<polygon fill="none" stroke="#000000" points="368,-208 368,-260 512,-260 512,-208 368,-208"/>
</g>
<!-- AssignCellComponent -->
<g id="node1" class="node">
<title>AssignCellComponent</title>
<polygon fill="#ffffb3" stroke="#000000" points="896.5519,-122 753.4481,-122 753.4481,-86 896.5519,-86 896.5519,-122"/>
<text text-anchor="middle" x="825" y="-99.8" font-family="Times,serif" font-size="14.00" fill="#000000">AssignCellComponent</text>
</g>
<!-- SubListModule -->
<g id="node3" class="node">
<title>SubListModule</title>
<polygon fill="#8dd3c7" stroke="#000000" points="491.6109,-187 488.6109,-191 467.6109,-191 464.6109,-187 388.3891,-187 388.3891,-151 491.6109,-151 491.6109,-187"/>
<text text-anchor="middle" x="440" y="-164.8" font-family="Times,serif" font-size="14.00" fill="#000000">SubListModule</text>
</g>
<!-- AssignCellComponent&#45;&gt;SubListModule -->
<g id="edge1" class="edge">
<title>AssignCellComponent&#45;&gt;SubListModule</title>
<path fill="none" stroke="#000000" d="M825,-122.2843C825,-143.3211 825,-175 825,-175 825,-175 501.9228,-175 501.9228,-175"/>
<polygon fill="#000000" stroke="#000000" points="501.9228,-171.5001 491.9228,-175 501.9228,-178.5001 501.9228,-171.5001"/>
</g>
<!-- SubListComponent -->
<g id="node2" class="node">
<title>SubListComponent</title>
<polygon fill="#ffffb3" stroke="#000000" points="735.3934,-122 610.6066,-122 610.6066,-86 735.3934,-86 735.3934,-122"/>
<text text-anchor="middle" x="673" y="-99.8" font-family="Times,serif" font-size="14.00" fill="#000000">SubListComponent</text>
</g>
<!-- SubListComponent&#45;&gt;SubListModule -->
<g id="edge2" class="edge">
<title>SubListComponent&#45;&gt;SubListModule</title>
<path fill="none" stroke="#000000" d="M673,-122.0225C673,-139.3734 673,-163 673,-163 673,-163 501.7103,-163 501.7103,-163"/>
<polygon fill="#000000" stroke="#000000" points="501.7103,-159.5001 491.7103,-163 501.7102,-166.5001 501.7103,-159.5001"/>
</g>
<!-- SubListComponent  -->
<g id="node9" class="node">
<title>SubListComponent </title>
<polygon fill="#fb8072" stroke="#000000" points="504.394,-252 375.606,-252 375.606,-216 504.394,-216 504.394,-252"/>
<text text-anchor="middle" x="440" y="-229.8" font-family="Times,serif" font-size="14.00" fill="#000000">SubListComponent </text>
</g>
<!-- SubListModule&#45;&gt;SubListComponent  -->
<g id="edge8" class="edge">
<title>SubListModule&#45;&gt;SubListComponent </title>
<path fill="none" stroke="#000000" stroke-dasharray="5,2" d="M440,-187.1061C440,-187.1061 440,-205.991 440,-205.991"/>
<polygon fill="#000000" stroke="#000000" points="436.5001,-205.9909 440,-215.991 443.5001,-205.991 436.5001,-205.9909"/>
</g>
<!-- CardModule -->
<g id="node4" class="node">
<title>CardModule</title>
<polygon fill="#8dd3c7" stroke="#000000" points="587.2619,-122 584.2619,-126 563.2619,-126 560.2619,-122 500.7381,-122 500.7381,-86 587.2619,-86 587.2619,-122"/>
<text text-anchor="middle" x="544" y="-99.8" font-family="Times,serif" font-size="14.00" fill="#000000">CardModule</text>
</g>
<!-- CardModule&#45;&gt;SubListModule -->
<g id="edge3" class="edge">
<title>CardModule&#45;&gt;SubListModule</title>
<path fill="none" stroke="#000000" d="M500.5695,-104C492.7787,-104 487.0803,-104 487.0803,-104 487.0803,-104 487.0803,-140.8939 487.0803,-140.8939"/>
<polygon fill="#000000" stroke="#000000" points="483.5804,-140.8938 487.0803,-150.8939 490.5804,-140.8939 483.5804,-140.8938"/>
</g>
<!-- I18nModule -->
<g id="node5" class="node">
<title>I18nModule</title>
<polygon fill="#8dd3c7" stroke="#000000" points="482.7107,-122 479.7107,-126 458.7107,-126 455.7107,-122 397.2893,-122 397.2893,-86 482.7107,-86 482.7107,-122"/>
<text text-anchor="middle" x="440" y="-99.8" font-family="Times,serif" font-size="14.00" fill="#000000">I18nModule</text>
</g>
<!-- I18nModule&#45;&gt;SubListModule -->
<g id="edge4" class="edge">
<title>I18nModule&#45;&gt;SubListModule</title>
<path fill="none" stroke="#000000" d="M440,-122.1061C440,-122.1061 440,-140.991 440,-140.991"/>
<polygon fill="#000000" stroke="#000000" points="436.5001,-140.9909 440,-150.991 443.5001,-140.991 436.5001,-140.9909"/>
</g>
<!-- MessageModule -->
<g id="node6" class="node">
<title>MessageModule</title>
<polygon fill="#8dd3c7" stroke="#000000" points="379.0284,-122 376.0284,-126 355.0284,-126 352.0284,-122 270.9716,-122 270.9716,-86 379.0284,-86 379.0284,-122"/>
<text text-anchor="middle" x="325" y="-99.8" font-family="Times,serif" font-size="14.00" fill="#000000">MessageModule</text>
</g>
<!-- MessageModule&#45;&gt;SubListModule -->
<g id="edge5" class="edge">
<title>MessageModule&#45;&gt;SubListModule</title>
<path fill="none" stroke="#000000" d="M379.1751,-104C387.2445,-104 392.9197,-104 392.9197,-104 392.9197,-104 392.9197,-140.8939 392.9197,-140.8939"/>
<polygon fill="#000000" stroke="#000000" points="389.4198,-140.8938 392.9197,-150.8939 396.4198,-140.8939 389.4198,-140.8938"/>
</g>
<!-- PaginationModule -->
<g id="node7" class="node">
<title>PaginationModule</title>
<polygon fill="#8dd3c7" stroke="#000000" points="252.9342,-122 249.9342,-126 228.9342,-126 225.9342,-122 133.0658,-122 133.0658,-86 252.9342,-86 252.9342,-122"/>
<text text-anchor="middle" x="193" y="-99.8" font-family="Times,serif" font-size="14.00" fill="#000000">PaginationModule</text>
</g>
<!-- PaginationModule&#45;&gt;SubListModule -->
<g id="edge6" class="edge">
<title>PaginationModule&#45;&gt;SubListModule</title>
<path fill="none" stroke="#000000" d="M193,-122.0225C193,-139.3734 193,-163 193,-163 193,-163 378.2207,-163 378.2207,-163"/>
<polygon fill="#000000" stroke="#000000" points="378.2207,-166.5001 388.2207,-163 378.2207,-159.5001 378.2207,-166.5001"/>
</g>
<!-- TableModule -->
<g id="node8" class="node">
<title>TableModule</title>
<polygon fill="#8dd3c7" stroke="#000000" points="115.9232,-122 112.9232,-126 91.9232,-126 88.9232,-122 24.0768,-122 24.0768,-86 115.9232,-86 115.9232,-122"/>
<text text-anchor="middle" x="70" y="-99.8" font-family="Times,serif" font-size="14.00" fill="#000000">TableModule</text>
</g>
<!-- TableModule&#45;&gt;SubListModule -->
<g id="edge7" class="edge">
<title>TableModule&#45;&gt;SubListModule</title>
<path fill="none" stroke="#000000" d="M70,-122.2843C70,-143.3211 70,-175 70,-175 70,-175 378.1635,-175 378.1635,-175"/>
<polygon fill="#000000" stroke="#000000" points="378.1635,-178.5001 388.1635,-175 378.1635,-171.5001 378.1635,-178.5001"/>
</g>
</g>
</svg>
