<?xml version="1.0" encoding="UTF-8" standalone="no"?>
<!DOCTYPE svg PUBLIC "-//W3C//DTD SVG 1.1//EN"
 "http://www.w3.org/Graphics/SVG/1.1/DTD/svg11.dtd">
<!-- Generated by graphviz version 2.40.1 (20161225.0304)
 -->
<!-- Title: dependencies Pages: 1 -->
<svg width="1095pt" height="284pt"
 viewBox="0.00 0.00 1095.00 284.00" xmlns="http://www.w3.org/2000/svg" xmlns:xlink="http://www.w3.org/1999/xlink">
<g id="graph0" class="graph" transform="scale(1 1) rotate(0) translate(4 280)">
<title>dependencies</title>
<polygon fill="#ffffff" stroke="transparent" points="-4,4 -4,-280 1091,-280 1091,4 -4,4"/>
<text text-anchor="start" x="522.5091" y="-42.4" font-family="sans-serif" font-weight="bold" font-size="14.00" fill="#000000">Legend</text>
<polygon fill="#ffffb3" stroke="transparent" points="309.5,-10 309.5,-30 329.5,-30 329.5,-10 309.5,-10"/>
<text text-anchor="start" x="333.129" y="-15.4" font-family="sans-serif" font-size="14.00" fill="#000000"> &#160;Declarations</text>
<polygon fill="#8dd3c7" stroke="transparent" points="422.5,-10 422.5,-30 442.5,-30 442.5,-10 422.5,-10"/>
<text text-anchor="start" x="446.2251" y="-15.4" font-family="sans-serif" font-size="14.00" fill="#000000"> &#160;Module</text>
<polygon fill="#80b1d3" stroke="transparent" points="508.5,-10 508.5,-30 528.5,-30 528.5,-10 508.5,-10"/>
<text text-anchor="start" x="532.2812" y="-15.4" font-family="sans-serif" font-size="14.00" fill="#000000"> &#160;Bootstrap</text>
<polygon fill="#fdb462" stroke="transparent" points="605.5,-10 605.5,-30 625.5,-30 625.5,-10 605.5,-10"/>
<text text-anchor="start" x="629.1732" y="-15.4" font-family="sans-serif" font-size="14.00" fill="#000000"> &#160;Providers</text>
<polygon fill="#fb8072" stroke="transparent" points="701.5,-10 701.5,-30 721.5,-30 721.5,-10 701.5,-10"/>
<text text-anchor="start" x="725.2258" y="-15.4" font-family="sans-serif" font-size="14.00" fill="#000000"> &#160;Exports</text>
<g id="clust1" class="cluster">
<title>cluster_SubListModule</title>
<polygon fill="none" stroke="#000000" stroke-dasharray="1,5" points="8,-70 8,-268 1079,-268 1079,-70 8,-70"/>
</g>
<g id="clust2" class="cluster">
<title>cluster_SubListModule_declarations</title>
<polygon fill="none" stroke="#000000" points="769,-78 769,-130 1071,-130 1071,-78 769,-78"/>
</g>
<g id="clust5" class="cluster">
<title>cluster_SubListModule_imports</title>
<polygon fill="none" stroke="#000000" points="16,-78 16,-130 761,-130 761,-78 16,-78"/>
</g>
<g id="clust6" class="cluster">
<title>cluster_SubListModule_exports</title>
<polygon fill="none" stroke="#000000" points="466,-208 466,-260 610,-260 610,-208 466,-208"/>
</g>
<!-- AssignCellComponent -->
<g id="node1" class="node">
<title>AssignCellComponent</title>
<polygon fill="#ffffb3" stroke="#000000" points="1062.5519,-122 919.4481,-122 919.4481,-86 1062.5519,-86 1062.5519,-122"/>
<text text-anchor="middle" x="991" y="-99.8" font-family="Times,serif" font-size="14.00" fill="#000000">AssignCellComponent</text>
</g>
<!-- SubListModule -->
<g id="node3" class="node">
<title>SubListModule</title>
<polygon fill="#8dd3c7" stroke="#000000" points="589.6109,-187 586.6109,-191 565.6109,-191 562.6109,-187 486.3891,-187 486.3891,-151 589.6109,-151 589.6109,-187"/>
<text text-anchor="middle" x="538" y="-164.8" font-family="Times,serif" font-size="14.00" fill="#000000">SubListModule</text>
</g>
<!-- AssignCellComponent&#45;&gt;SubListModule -->
<g id="edge1" class="edge">
<title>AssignCellComponent&#45;&gt;SubListModule</title>
<path fill="none" stroke="#000000" d="M991,-122.2921C991,-144.2057 991,-178 991,-178 991,-178 599.9649,-178 599.9649,-178"/>
<polygon fill="#000000" stroke="#000000" points="599.9649,-174.5001 589.9649,-178 599.9648,-181.5001 599.9649,-174.5001"/>
</g>
<!-- SubListComponent -->
<g id="node2" class="node">
<title>SubListComponent</title>
<polygon fill="#ffffb3" stroke="#000000" points="901.3934,-122 776.6066,-122 776.6066,-86 901.3934,-86 901.3934,-122"/>
<text text-anchor="middle" x="839" y="-99.8" font-family="Times,serif" font-size="14.00" fill="#000000">SubListComponent</text>
</g>
<!-- SubListComponent&#45;&gt;SubListModule -->
<g id="edge2" class="edge">
<title>SubListComponent&#45;&gt;SubListModule</title>
<path fill="none" stroke="#000000" d="M839,-122.1061C839,-141.3391 839,-169 839,-169 839,-169 599.7437,-169 599.7437,-169"/>
<polygon fill="#000000" stroke="#000000" points="599.7438,-165.5001 589.7437,-169 599.7437,-172.5001 599.7438,-165.5001"/>
</g>
<!-- SubListComponent  -->
<g id="node10" class="node">
<title>SubListComponent </title>
<polygon fill="#fb8072" stroke="#000000" points="602.394,-252 473.606,-252 473.606,-216 602.394,-216 602.394,-252"/>
<text text-anchor="middle" x="538" y="-229.8" font-family="Times,serif" font-size="14.00" fill="#000000">SubListComponent </text>
</g>
<!-- SubListModule&#45;&gt;SubListComponent  -->
<g id="edge9" class="edge">
<title>SubListModule&#45;&gt;SubListComponent </title>
<path fill="none" stroke="#000000" stroke-dasharray="5,2" d="M538,-187.1061C538,-187.1061 538,-205.991 538,-205.991"/>
<polygon fill="#000000" stroke="#000000" points="534.5001,-205.9909 538,-215.991 541.5001,-205.991 534.5001,-205.9909"/>
</g>
<!-- CardModule -->
<g id="node4" class="node">
<title>CardModule</title>
<polygon fill="#8dd3c7" stroke="#000000" points="753.2619,-122 750.2619,-126 729.2619,-126 726.2619,-122 666.7381,-122 666.7381,-86 753.2619,-86 753.2619,-122"/>
<text text-anchor="middle" x="710" y="-99.8" font-family="Times,serif" font-size="14.00" fill="#000000">CardModule</text>
</g>
<!-- CardModule&#45;&gt;SubListModule -->
<g id="edge3" class="edge">
<title>CardModule&#45;&gt;SubListModule</title>
<path fill="none" stroke="#000000" d="M710,-122.027C710,-138.3976 710,-160 710,-160 710,-160 599.6057,-160 599.6057,-160"/>
<polygon fill="#000000" stroke="#000000" points="599.6057,-156.5001 589.6057,-160 599.6056,-163.5001 599.6057,-156.5001"/>
</g>
<!-- I18nModule -->
<g id="node5" class="node">
<title>I18nModule</title>
<polygon fill="#8dd3c7" stroke="#000000" points="648.7107,-122 645.7107,-126 624.7107,-126 621.7107,-122 563.2893,-122 563.2893,-86 648.7107,-86 648.7107,-122"/>
<text text-anchor="middle" x="606" y="-99.8" font-family="Times,serif" font-size="14.00" fill="#000000">I18nModule</text>
</g>
<!-- I18nModule&#45;&gt;SubListModule -->
<g id="edge4" class="edge">
<title>I18nModule&#45;&gt;SubListModule</title>
<path fill="none" stroke="#000000" d="M576.4751,-122.1061C576.4751,-122.1061 576.4751,-140.991 576.4751,-140.991"/>
<polygon fill="#000000" stroke="#000000" points="572.9752,-140.9909 576.4751,-150.991 579.9752,-140.991 572.9752,-140.9909"/>
</g>
<!-- KeyboardFocusModule -->
<g id="node6" class="node">
<title>KeyboardFocusModule</title>
<polygon fill="#8dd3c7" stroke="#000000" points="545.1881,-122 542.1881,-126 521.1881,-126 518.1881,-122 396.8119,-122 396.8119,-86 545.1881,-86 545.1881,-122"/>
<text text-anchor="middle" x="471" y="-99.8" font-family="Times,serif" font-size="14.00" fill="#000000">KeyboardFocusModule</text>
</g>
<!-- KeyboardFocusModule&#45;&gt;SubListModule -->
<g id="edge5" class="edge">
<title>KeyboardFocusModule&#45;&gt;SubListModule</title>
<path fill="none" stroke="#000000" d="M515.7693,-122.1061C515.7693,-122.1061 515.7693,-140.991 515.7693,-140.991"/>
<polygon fill="#000000" stroke="#000000" points="512.2694,-140.9909 515.7693,-150.991 519.2694,-140.991 512.2694,-140.9909"/>
</g>
<!-- MessageModule -->
<g id="node7" class="node">
<title>MessageModule</title>
<polygon fill="#8dd3c7" stroke="#000000" points="379.0284,-122 376.0284,-126 355.0284,-126 352.0284,-122 270.9716,-122 270.9716,-86 379.0284,-86 379.0284,-122"/>
<text text-anchor="middle" x="325" y="-99.8" font-family="Times,serif" font-size="14.00" fill="#000000">MessageModule</text>
</g>
<!-- MessageModule&#45;&gt;SubListModule -->
<g id="edge6" class="edge">
<title>MessageModule&#45;&gt;SubListModule</title>
<path fill="none" stroke="#000000" d="M325,-122.027C325,-138.3976 325,-160 325,-160 325,-160 476.4386,-160 476.4386,-160"/>
<polygon fill="#000000" stroke="#000000" points="476.4387,-163.5001 486.4386,-160 476.4386,-156.5001 476.4387,-163.5001"/>
</g>
<!-- PaginationModule -->
<g id="node8" class="node">
<title>PaginationModule</title>
<polygon fill="#8dd3c7" stroke="#000000" points="252.9342,-122 249.9342,-126 228.9342,-126 225.9342,-122 133.0658,-122 133.0658,-86 252.9342,-86 252.9342,-122"/>
<text text-anchor="middle" x="193" y="-99.8" font-family="Times,serif" font-size="14.00" fill="#000000">PaginationModule</text>
</g>
<!-- PaginationModule&#45;&gt;SubListModule -->
<g id="edge7" class="edge">
<title>PaginationModule&#45;&gt;SubListModule</title>
<path fill="none" stroke="#000000" d="M193,-122.1061C193,-141.3391 193,-169 193,-169 193,-169 476.35,-169 476.35,-169"/>
<polygon fill="#000000" stroke="#000000" points="476.35,-172.5001 486.35,-169 476.35,-165.5001 476.35,-172.5001"/>
</g>
<!-- TableModule -->
<g id="node9" class="node">
<title>TableModule</title>
<polygon fill="#8dd3c7" stroke="#000000" points="115.9232,-122 112.9232,-126 91.9232,-126 88.9232,-122 24.0768,-122 24.0768,-86 115.9232,-86 115.9232,-122"/>
<text text-anchor="middle" x="70" y="-99.8" font-family="Times,serif" font-size="14.00" fill="#000000">TableModule</text>
</g>
<!-- TableModule&#45;&gt;SubListModule -->
<g id="edge8" class="edge">
<title>TableModule&#45;&gt;SubListModule</title>
<path fill="none" stroke="#000000" d="M70,-122.2921C70,-144.2057 70,-178 70,-178 70,-178 476.1277,-178 476.1277,-178"/>
<polygon fill="#000000" stroke="#000000" points="476.1277,-181.5001 486.1277,-178 476.1276,-174.5001 476.1277,-181.5001"/>
</g>
</g>
</svg>
