<?xml version="1.0" encoding="UTF-8" standalone="no"?>
<!DOCTYPE svg PUBLIC "-//W3C//DTD SVG 1.1//EN"
 "http://www.w3.org/Graphics/SVG/1.1/DTD/svg11.dtd">
<!-- Generated by graphviz version 2.40.1 (20161225.0304)
 -->
<!-- Title: dependencies Pages: 1 -->
<svg width="504pt" height="211pt"
 viewBox="0.00 0.00 504.00 211.00" xmlns="http://www.w3.org/2000/svg" xmlns:xlink="http://www.w3.org/1999/xlink">
<g id="graph0" class="graph" transform="scale(1 1) rotate(0) translate(4 207)">
<title>dependencies</title>
<polygon fill="#ffffff" stroke="transparent" points="-4,4 -4,-207 500,-207 500,4 -4,4"/>
<text text-anchor="start" x="227.0091" y="-42.4" font-family="sans-serif" font-weight="bold" font-size="14.00" fill="#000000">Legend</text>
<polygon fill="#ffffb3" stroke="transparent" points="14,-10 14,-30 34,-30 34,-10 14,-10"/>
<text text-anchor="start" x="37.629" y="-15.4" font-family="sans-serif" font-size="14.00" fill="#000000"> &#160;Declarations</text>
<polygon fill="#8dd3c7" stroke="transparent" points="127,-10 127,-30 147,-30 147,-10 127,-10"/>
<text text-anchor="start" x="150.7251" y="-15.4" font-family="sans-serif" font-size="14.00" fill="#000000"> &#160;Module</text>
<polygon fill="#80b1d3" stroke="transparent" points="213,-10 213,-30 233,-30 233,-10 213,-10"/>
<text text-anchor="start" x="236.7812" y="-15.4" font-family="sans-serif" font-size="14.00" fill="#000000"> &#160;Bootstrap</text>
<polygon fill="#fdb462" stroke="transparent" points="310,-10 310,-30 330,-30 330,-10 310,-10"/>
<text text-anchor="start" x="333.6732" y="-15.4" font-family="sans-serif" font-size="14.00" fill="#000000"> &#160;Providers</text>
<polygon fill="#fb8072" stroke="transparent" points="406,-10 406,-30 426,-30 426,-10 406,-10"/>
<text text-anchor="start" x="429.7258" y="-15.4" font-family="sans-serif" font-size="14.00" fill="#000000"> &#160;Exports</text>
<g id="clust1" class="cluster">
<title>cluster_QualtricsModule</title>
<polygon fill="none" stroke="#000000" stroke-dasharray="1,5" points="105,-70 105,-195 391,-195 391,-70 105,-70"/>
</g>
<g id="clust2" class="cluster">
<title>cluster_QualtricsModule_declarations</title>
<polygon fill="none" stroke="#000000" points="235,-78 235,-130 383,-130 383,-78 235,-78"/>
</g>
<g id="clust4" class="cluster">
<title>cluster_QualtricsModule_imports</title>
<polygon fill="none" stroke="#000000" points="113,-78 113,-130 227,-130 227,-78 113,-78"/>
</g>
<!-- QualtricsComponent -->
<g id="node1" class="node">
<title>QualtricsComponent</title>
<polygon fill="#ffffb3" stroke="#000000" points="375.1457,-122 242.8543,-122 242.8543,-86 375.1457,-86 375.1457,-122"/>
<text text-anchor="middle" x="309" y="-99.8" font-family="Times,serif" font-size="14.00" fill="#000000">QualtricsComponent</text>
</g>
<!-- QualtricsModule -->
<g id="node2" class="node">
<title>QualtricsModule</title>
<polygon fill="#8dd3c7" stroke="#000000" points="225.3627,-187 222.3627,-191 201.3627,-191 198.3627,-187 114.6373,-187 114.6373,-151 225.3627,-151 225.3627,-187"/>
<text text-anchor="middle" x="170" y="-164.8" font-family="Times,serif" font-size="14.00" fill="#000000">QualtricsModule</text>
</g>
<!-- QualtricsComponent&#45;&gt;QualtricsModule -->
<g id="edge1" class="edge">
<title>QualtricsComponent&#45;&gt;QualtricsModule</title>
<path fill="none" stroke="#000000" d="M309,-122.1061C309,-141.3391 309,-169 309,-169 309,-169 235.7357,-169 235.7357,-169"/>
<polygon fill="#000000" stroke="#000000" points="235.7357,-165.5001 225.7357,-169 235.7357,-172.5001 235.7357,-165.5001"/>
</g>
<!-- ConfigModule -->
<g id="node3" class="node">
<title>ConfigModule</title>
<polygon fill="#8dd3c7" stroke="#000000" points="219.4386,-122 216.4386,-126 195.4386,-126 192.4386,-122 120.5614,-122 120.5614,-86 219.4386,-86 219.4386,-122"/>
<text text-anchor="middle" x="170" y="-99.8" font-family="Times,serif" font-size="14.00" fill="#000000">ConfigModule</text>
</g>
<!-- ConfigModule&#45;&gt;QualtricsModule -->
<g id="edge2" class="edge">
<title>ConfigModule&#45;&gt;QualtricsModule</title>
<path fill="none" stroke="#000000" d="M186.4063,-122.1061C186.4063,-122.1061 186.4063,-140.991 186.4063,-140.991"/>
<polygon fill="#000000" stroke="#000000" points="182.9064,-140.9909 186.4063,-150.991 189.9064,-140.991 182.9064,-140.9909"/>
</g>
<!-- ConfigModule&#45;&gt;QualtricsModule -->
<g id="edge3" class="edge">
<title>ConfigModule&#45;&gt;QualtricsModule</title>
<path fill="none" stroke="#000000" d="M153.5937,-122.1061C153.5937,-122.1061 153.5937,-140.991 153.5937,-140.991"/>
<polygon fill="#000000" stroke="#000000" points="150.0938,-140.9909 153.5937,-150.991 157.0938,-140.991 150.0938,-140.9909"/>
</g>
</g>
</svg>
