<?xml version="1.0" encoding="UTF-8" standalone="no"?>
<!DOCTYPE svg PUBLIC "-//W3C//DTD SVG 1.1//EN"
 "http://www.w3.org/Graphics/SVG/1.1/DTD/svg11.dtd">
<!-- Generated by graphviz version 2.47.3 (20210619.1520)
 -->
<!-- Title: dependencies Pages: 1 -->
<svg width="984pt" height="247pt"
 viewBox="0.00 0.00 984.00 246.80" xmlns="http://www.w3.org/2000/svg" xmlns:xlink="http://www.w3.org/1999/xlink">
<g id="graph0" class="graph" transform="scale(1 1) rotate(0) translate(4 242.8)">
<title>dependencies</title>
<polygon fill="white" stroke="transparent" points="-4,4 -4,-242.8 980,-242.8 980,4 -4,4"/>
<text text-anchor="middle" x="488" y="-8.2" font-family="sans-serif" font-size="14.00">dependencies</text>
<g id="clust1" class="cluster">
<title>cluster_ImportExportOrderEntriesModule</title>
<polygon fill="none" stroke="black" stroke-dasharray="1,5" points="8,-32.8 8,-230.8 968,-230.8 968,-32.8 8,-32.8"/>
</g>
<g id="clust2" class="cluster">
<title>cluster_ImportExportOrderEntriesModule_declarations</title>
<polygon fill="none" stroke="black" points="714,-40.8 714,-92.8 960,-92.8 960,-40.8 714,-40.8"/>
</g>
<g id="clust4" class="cluster">
<title>cluster_ImportExportOrderEntriesModule_imports</title>
<polygon fill="none" stroke="black" points="16,-40.8 16,-92.8 706,-92.8 706,-40.8 16,-40.8"/>
</g>
<g id="clust5" class="cluster">
<title>cluster_ImportExportOrderEntriesModule_exports</title>
<polygon fill="none" stroke="black" points="299,-170.8 299,-222.8 549,-222.8 549,-170.8 299,-170.8"/>
</g>
<!-- ImportExportOrderEntriesComponent -->
<g id="node1" class="node">
<title>ImportExportOrderEntriesComponent</title>
<polygon fill="#ffffb3" stroke="black" points="951.83,-84.8 722.17,-84.8 722.17,-48.8 951.83,-48.8 951.83,-84.8"/>
<text text-anchor="middle" x="837" y="-62.6" font-family="Times,serif" font-size="14.00">ImportExportOrderEntriesComponent</text>
</g>
<!-- ImportExportOrderEntriesModule -->
<g id="node2" class="node">
<title>ImportExportOrderEntriesModule</title>
<polygon fill="#8dd3c7" stroke="black" points="528.05,-149.8 525.05,-153.8 504.05,-153.8 501.05,-149.8 319.95,-149.8 319.95,-113.8 528.05,-113.8 528.05,-149.8"/>
<text text-anchor="middle" x="424" y="-127.6" font-family="Times,serif" font-size="14.00">ImportExportOrderEntriesModule</text>
</g>
<!-- ImportExportOrderEntriesComponent&#45;&gt;ImportExportOrderEntriesModule -->
<g id="edge1" class="edge">
<title>ImportExportOrderEntriesComponent&#45;&gt;ImportExportOrderEntriesModule</title>
<path fill="none" stroke="black" d="M837,-85.08C837,-106.12 837,-137.8 837,-137.8 837,-137.8 538.22,-137.8 538.22,-137.8"/>
<polygon fill="black" stroke="black" points="538.22,-134.3 528.22,-137.8 538.22,-141.3 538.22,-134.3"/>
</g>
<!-- ImportExportOrderEntriesComponent  -->
<g id="node8" class="node">
<title>ImportExportOrderEntriesComponent </title>
<polygon fill="#fb8072" stroke="black" points="540.83,-214.8 307.17,-214.8 307.17,-178.8 540.83,-178.8 540.83,-214.8"/>
<text text-anchor="middle" x="424" y="-192.6" font-family="Times,serif" font-size="14.00">ImportExportOrderEntriesComponent </text>
</g>
<!-- ImportExportOrderEntriesModule&#45;&gt;ImportExportOrderEntriesComponent  -->
<g id="edge7" class="edge">
<title>ImportExportOrderEntriesModule&#45;&gt;ImportExportOrderEntriesComponent </title>
<path fill="none" stroke="black" stroke-dasharray="5,2" d="M424,-149.91C424,-149.91 424,-168.79 424,-168.79"/>
<polygon fill="black" stroke="black" points="420.5,-168.79 424,-178.79 427.5,-168.79 420.5,-168.79"/>
</g>
<!-- ConfigModule -->
<g id="node3" class="node">
<title>ConfigModule</title>
<polygon fill="#8dd3c7" stroke="black" points="698.44,-84.8 695.44,-88.8 674.44,-88.8 671.44,-84.8 599.56,-84.8 599.56,-48.8 698.44,-48.8 698.44,-84.8"/>
<text text-anchor="middle" x="649" y="-62.6" font-family="Times,serif" font-size="14.00">ConfigModule</text>
</g>
<!-- ConfigModule&#45;&gt;ImportExportOrderEntriesModule -->
<g id="edge2" class="edge">
<title>ConfigModule&#45;&gt;ImportExportOrderEntriesModule</title>
<path fill="none" stroke="black" d="M649,-84.82C649,-102.17 649,-125.8 649,-125.8 649,-125.8 538.27,-125.8 538.27,-125.8"/>
<polygon fill="black" stroke="black" points="538.27,-122.3 528.27,-125.8 538.27,-129.3 538.27,-122.3"/>
</g>
<!-- ExportOrderEntriesModule -->
<g id="node4" class="node">
<title>ExportOrderEntriesModule</title>
<polygon fill="#8dd3c7" stroke="black" points="581.95,-84.8 578.95,-88.8 557.95,-88.8 554.95,-84.8 412.05,-84.8 412.05,-48.8 581.95,-48.8 581.95,-84.8"/>
<text text-anchor="middle" x="497" y="-62.6" font-family="Times,serif" font-size="14.00">ExportOrderEntriesModule</text>
</g>
<!-- ExportOrderEntriesModule&#45;&gt;ImportExportOrderEntriesModule -->
<g id="edge3" class="edge">
<title>ExportOrderEntriesModule&#45;&gt;ImportExportOrderEntriesModule</title>
<path fill="none" stroke="black" d="M470.03,-84.91C470.03,-84.91 470.03,-103.79 470.03,-103.79"/>
<polygon fill="black" stroke="black" points="466.53,-103.79 470.03,-113.79 473.53,-103.79 466.53,-103.79"/>
</g>
<!-- I18nModule -->
<g id="node5" class="node">
<title>I18nModule</title>
<polygon fill="#8dd3c7" stroke="black" points="393.71,-84.8 390.71,-88.8 369.71,-88.8 366.71,-84.8 308.29,-84.8 308.29,-48.8 393.71,-48.8 393.71,-84.8"/>
<text text-anchor="middle" x="351" y="-62.6" font-family="Times,serif" font-size="14.00">I18nModule</text>
</g>
<!-- I18nModule&#45;&gt;ImportExportOrderEntriesModule -->
<g id="edge4" class="edge">
<title>I18nModule&#45;&gt;ImportExportOrderEntriesModule</title>
<path fill="none" stroke="black" d="M356.79,-84.91C356.79,-84.91 356.79,-103.79 356.79,-103.79"/>
<polygon fill="black" stroke="black" points="353.29,-103.79 356.79,-113.79 360.29,-103.79 353.29,-103.79"/>
</g>
<!-- ImportOrderEntriesModule -->
<g id="node6" class="node">
<title>ImportOrderEntriesModule</title>
<polygon fill="#8dd3c7" stroke="black" points="289.95,-84.8 286.95,-88.8 265.95,-88.8 262.95,-84.8 120.05,-84.8 120.05,-48.8 289.95,-48.8 289.95,-84.8"/>
<text text-anchor="middle" x="205" y="-62.6" font-family="Times,serif" font-size="14.00">ImportOrderEntriesModule</text>
</g>
<!-- ImportOrderEntriesModule&#45;&gt;ImportExportOrderEntriesModule -->
<g id="edge5" class="edge">
<title>ImportOrderEntriesModule&#45;&gt;ImportExportOrderEntriesModule</title>
<path fill="none" stroke="black" d="M205,-84.82C205,-102.17 205,-125.8 205,-125.8 205,-125.8 309.95,-125.8 309.95,-125.8"/>
<polygon fill="black" stroke="black" points="309.95,-129.3 319.95,-125.8 309.95,-122.3 309.95,-129.3"/>
</g>
<!-- UrlModule -->
<g id="node7" class="node">
<title>UrlModule</title>
<polygon fill="#8dd3c7" stroke="black" points="102.21,-84.8 99.21,-88.8 78.21,-88.8 75.21,-84.8 23.79,-84.8 23.79,-48.8 102.21,-48.8 102.21,-84.8"/>
<text text-anchor="middle" x="63" y="-62.6" font-family="Times,serif" font-size="14.00">UrlModule</text>
</g>
<!-- UrlModule&#45;&gt;ImportExportOrderEntriesModule -->
<g id="edge6" class="edge">
<title>UrlModule&#45;&gt;ImportExportOrderEntriesModule</title>
<path fill="none" stroke="black" d="M63,-85.08C63,-106.12 63,-137.8 63,-137.8 63,-137.8 309.58,-137.8 309.58,-137.8"/>
<polygon fill="black" stroke="black" points="309.58,-141.3 319.58,-137.8 309.58,-134.3 309.58,-141.3"/>
</g>
</g>
</svg>
