<?xml version="1.0" encoding="UTF-8" standalone="no"?>
<!DOCTYPE svg PUBLIC "-//W3C//DTD SVG 1.1//EN"
 "http://www.w3.org/Graphics/SVG/1.1/DTD/svg11.dtd">
<!-- Generated by graphviz version 2.40.1 (20161225.0304)
 -->
<!-- Title: dependencies Pages: 1 -->
<svg width="504pt" height="284pt"
 viewBox="0.00 0.00 504.00 284.00" xmlns="http://www.w3.org/2000/svg" xmlns:xlink="http://www.w3.org/1999/xlink">
<g id="graph0" class="graph" transform="scale(1 1) rotate(0) translate(4 280)">
<title>dependencies</title>
<polygon fill="#ffffff" stroke="transparent" points="-4,4 -4,-280 500,-280 500,4 -4,4"/>
<text text-anchor="start" x="227.0091" y="-42.4" font-family="sans-serif" font-weight="bold" font-size="14.00" fill="#000000">Legend</text>
<polygon fill="#ffffb3" stroke="transparent" points="14,-10 14,-30 34,-30 34,-10 14,-10"/>
<text text-anchor="start" x="37.629" y="-15.4" font-family="sans-serif" font-size="14.00" fill="#000000"> &#160;Declarations</text>
<polygon fill="#8dd3c7" stroke="transparent" points="127,-10 127,-30 147,-30 147,-10 127,-10"/>
<text text-anchor="start" x="150.7251" y="-15.4" font-family="sans-serif" font-size="14.00" fill="#000000"> &#160;Module</text>
<polygon fill="#80b1d3" stroke="transparent" points="213,-10 213,-30 233,-30 233,-10 213,-10"/>
<text text-anchor="start" x="236.7812" y="-15.4" font-family="sans-serif" font-size="14.00" fill="#000000"> &#160;Bootstrap</text>
<polygon fill="#fdb462" stroke="transparent" points="310,-10 310,-30 330,-30 330,-10 310,-10"/>
<text text-anchor="start" x="333.6732" y="-15.4" font-family="sans-serif" font-size="14.00" fill="#000000"> &#160;Providers</text>
<polygon fill="#fb8072" stroke="transparent" points="406,-10 406,-30 426,-30 426,-10 406,-10"/>
<text text-anchor="start" x="429.7258" y="-15.4" font-family="sans-serif" font-size="14.00" fill="#000000"> &#160;Exports</text>
<g id="clust1" class="cluster">
<title>cluster_IconTestingModule</title>
<polygon fill="none" stroke="#000000" stroke-dasharray="1,5" points="62,-70 62,-268 434,-268 434,-70 62,-70"/>
</g>
<g id="clust2" class="cluster">
<title>cluster_IconTestingModule_declarations</title>
<polygon fill="none" stroke="#000000" points="74,-78 74,-130 423,-130 423,-78 74,-78"/>
</g>
<g id="clust6" class="cluster">
<title>cluster_IconTestingModule_exports</title>
<polygon fill="none" stroke="#000000" points="70,-208 70,-260 426,-260 426,-208 70,-208"/>
</g>
<!-- MockSplitViewComponent -->
<g id="node1" class="node">
<title>MockSplitViewComponent</title>
<polygon fill="#ffffb3" stroke="#000000" points="415.2646,-122 244.7354,-122 244.7354,-86 415.2646,-86 415.2646,-122"/>
<text text-anchor="middle" x="330" y="-99.8" font-family="Times,serif" font-size="14.00" fill="#000000">MockSplitViewComponent</text>
</g>
<!-- IconTestingModule -->
<g id="node3" class="node">
<title>IconTestingModule</title>
<polygon fill="#8dd3c7" stroke="#000000" points="218.4187,-187 215.4187,-191 194.4187,-191 191.4187,-187 91.5813,-187 91.5813,-151 218.4187,-151 218.4187,-187"/>
<text text-anchor="middle" x="155" y="-164.8" font-family="Times,serif" font-size="14.00" fill="#000000">IconTestingModule</text>
</g>
<!-- MockSplitViewComponent&#45;&gt;IconTestingModule -->
<g id="edge1" class="edge">
<title>MockSplitViewComponent&#45;&gt;IconTestingModule</title>
<path fill="none" stroke="#000000" d="M358.4607,-122.0225C358.4607,-139.3734 358.4607,-163 358.4607,-163 358.4607,-163 228.261,-163 228.261,-163"/>
<polygon fill="#000000" stroke="#000000" points="228.261,-159.5001 218.261,-163 228.2609,-166.5001 228.261,-159.5001"/>
</g>
<!-- MockViewComponent -->
<g id="node2" class="node">
<title>MockViewComponent</title>
<polygon fill="#ffffb3" stroke="#000000" points="226.3103,-122 81.6897,-122 81.6897,-86 226.3103,-86 226.3103,-122"/>
<text text-anchor="middle" x="154" y="-99.8" font-family="Times,serif" font-size="14.00" fill="#000000">MockViewComponent</text>
</g>
<!-- MockViewComponent&#45;&gt;IconTestingModule -->
<g id="edge2" class="edge">
<title>MockViewComponent&#45;&gt;IconTestingModule</title>
<path fill="none" stroke="#000000" d="M155,-122.1061C155,-122.1061 155,-140.991 155,-140.991"/>
<polygon fill="#000000" stroke="#000000" points="151.5001,-140.9909 155,-150.991 158.5001,-140.991 151.5001,-140.9909"/>
</g>
<!-- MockSplitViewComponent  -->
<g id="node4" class="node">
<title>MockSplitViewComponent </title>
<polygon fill="#fb8072" stroke="#000000" points="418.2646,-252 243.7354,-252 243.7354,-216 418.2646,-216 418.2646,-252"/>
<text text-anchor="middle" x="331" y="-229.8" font-family="Times,serif" font-size="14.00" fill="#000000">MockSplitViewComponent </text>
</g>
<!-- IconTestingModule&#45;&gt;MockSplitViewComponent  -->
<g id="edge3" class="edge">
<title>IconTestingModule&#45;&gt;MockSplitViewComponent </title>
<path fill="none" stroke="#000000" stroke-dasharray="5,2" d="M218.422,-175C258.0259,-175 301.5393,-175 301.5393,-175 301.5393,-175 301.5393,-205.9775 301.5393,-205.9775"/>
<polygon fill="#000000" stroke="#000000" points="298.0394,-205.9774 301.5393,-215.9775 305.0394,-205.9775 298.0394,-205.9774"/>
</g>
<!-- MockViewComponent  -->
<g id="node5" class="node">
<title>MockViewComponent </title>
<polygon fill="#fb8072" stroke="#000000" points="225.8101,-252 78.1899,-252 78.1899,-216 225.8101,-216 225.8101,-252"/>
<text text-anchor="middle" x="152" y="-229.8" font-family="Times,serif" font-size="14.00" fill="#000000">MockViewComponent </text>
</g>
<!-- IconTestingModule&#45;&gt;MockViewComponent  -->
<g id="edge4" class="edge">
<title>IconTestingModule&#45;&gt;MockViewComponent </title>
<path fill="none" stroke="#000000" stroke-dasharray="5,2" d="M155,-187.1061C155,-187.1061 155,-205.991 155,-205.991"/>
<polygon fill="#000000" stroke="#000000" points="151.5001,-205.9909 155,-215.991 158.5001,-205.991 151.5001,-205.9909"/>
</g>
</g>
</svg>
