<?xml version="1.0" encoding="UTF-8" standalone="no"?>
<!DOCTYPE svg PUBLIC "-//W3C//DTD SVG 1.1//EN"
 "http://www.w3.org/Graphics/SVG/1.1/DTD/svg11.dtd">
<!-- Generated by graphviz version 2.47.3 (20210619.1520)
 -->
<!-- Title: dependencies Pages: 1 -->
<svg width="198pt" height="247pt"
 viewBox="0.00 0.00 198.00 246.80" xmlns="http://www.w3.org/2000/svg" xmlns:xlink="http://www.w3.org/1999/xlink">
<g id="graph0" class="graph" transform="scale(1 1) rotate(0) translate(4 242.8)">
<title>dependencies</title>
<polygon fill="white" stroke="transparent" points="-4,4 -4,-242.8 194,-242.8 194,4 -4,4"/>
<text text-anchor="middle" x="95" y="-8.2" font-family="sans-serif" font-size="14.00">dependencies</text>
<g id="clust1" class="cluster">
<title>cluster_IconTestingModule</title>
<polygon fill="none" stroke="black" stroke-dasharray="1,5" points="8,-32.8 8,-230.8 182,-230.8 182,-32.8 8,-32.8"/>
</g>
<g id="clust2" class="cluster">
<title>cluster_IconTestingModule_declarations</title>
<polygon fill="none" stroke="black" points="18,-40.8 18,-92.8 172,-92.8 172,-40.8 18,-40.8"/>
</g>
<g id="clust5" class="cluster">
<title>cluster_IconTestingModule_exports</title>
<polygon fill="none" stroke="black" points="16,-170.8 16,-222.8 174,-222.8 174,-170.8 16,-170.8"/>
</g>
<!-- MockIconComponent -->
<g id="node1" class="node">
<title>MockIconComponent</title>
<polygon fill="#ffffb3" stroke="black" points="164.37,-84.8 25.63,-84.8 25.63,-48.8 164.37,-48.8 164.37,-84.8"/>
<text text-anchor="middle" x="95" y="-62.6" font-family="Times,serif" font-size="14.00">MockIconComponent</text>
</g>
<!-- IconTestingModule -->
<g id="node2" class="node">
<title>IconTestingModule</title>
<polygon fill="#8dd3c7" stroke="black" points="158.42,-149.8 155.42,-153.8 134.42,-153.8 131.42,-149.8 31.58,-149.8 31.58,-113.8 158.42,-113.8 158.42,-149.8"/>
<text text-anchor="middle" x="95" y="-127.6" font-family="Times,serif" font-size="14.00">IconTestingModule</text>
</g>
<!-- MockIconComponent&#45;&gt;IconTestingModule -->
<g id="edge1" class="edge">
<title>MockIconComponent&#45;&gt;IconTestingModule</title>
<path fill="none" stroke="black" d="M95,-84.91C95,-84.91 95,-103.79 95,-103.79"/>
<polygon fill="black" stroke="black" points="91.5,-103.79 95,-113.79 98.5,-103.79 91.5,-103.79"/>
</g>
<!-- MockIconComponent  -->
<g id="node3" class="node">
<title>MockIconComponent </title>
<polygon fill="#fb8072" stroke="black" points="166.37,-214.8 23.63,-214.8 23.63,-178.8 166.37,-178.8 166.37,-214.8"/>
<text text-anchor="middle" x="95" y="-192.6" font-family="Times,serif" font-size="14.00">MockIconComponent </text>
</g>
<!-- IconTestingModule&#45;&gt;MockIconComponent  -->
<g id="edge2" class="edge">
<title>IconTestingModule&#45;&gt;MockIconComponent </title>
<path fill="none" stroke="black" stroke-dasharray="5,2" d="M95,-149.91C95,-149.91 95,-168.79 95,-168.79"/>
<polygon fill="black" stroke="black" points="91.5,-168.79 95,-178.79 98.5,-168.79 91.5,-168.79"/>
</g>
</g>
</svg>
