<?xml version="1.0" encoding="UTF-8" standalone="no"?>
<!DOCTYPE svg PUBLIC "-//W3C//DTD SVG 1.1//EN"
 "http://www.w3.org/Graphics/SVG/1.1/DTD/svg11.dtd">
<!-- Generated by graphviz version 2.40.1 (20161225.0304)
 -->
<!-- Title: dependencies Pages: 1 -->
<svg width="1029pt" height="284pt"
 viewBox="0.00 0.00 1029.00 284.00" xmlns="http://www.w3.org/2000/svg" xmlns:xlink="http://www.w3.org/1999/xlink">
<g id="graph0" class="graph" transform="scale(1 1) rotate(0) translate(4 280)">
<title>dependencies</title>
<polygon fill="#ffffff" stroke="transparent" points="-4,4 -4,-280 1025,-280 1025,4 -4,4"/>
<text text-anchor="start" x="489.5091" y="-42.4" font-family="sans-serif" font-weight="bold" font-size="14.00" fill="#000000">Legend</text>
<polygon fill="#ffffb3" stroke="transparent" points="276.5,-10 276.5,-30 296.5,-30 296.5,-10 276.5,-10"/>
<text text-anchor="start" x="300.129" y="-15.4" font-family="sans-serif" font-size="14.00" fill="#000000"> &#160;Declarations</text>
<polygon fill="#8dd3c7" stroke="transparent" points="389.5,-10 389.5,-30 409.5,-30 409.5,-10 389.5,-10"/>
<text text-anchor="start" x="413.2251" y="-15.4" font-family="sans-serif" font-size="14.00" fill="#000000"> &#160;Module</text>
<polygon fill="#80b1d3" stroke="transparent" points="475.5,-10 475.5,-30 495.5,-30 495.5,-10 475.5,-10"/>
<text text-anchor="start" x="499.2812" y="-15.4" font-family="sans-serif" font-size="14.00" fill="#000000"> &#160;Bootstrap</text>
<polygon fill="#fdb462" stroke="transparent" points="572.5,-10 572.5,-30 592.5,-30 592.5,-10 572.5,-10"/>
<text text-anchor="start" x="596.1732" y="-15.4" font-family="sans-serif" font-size="14.00" fill="#000000"> &#160;Providers</text>
<polygon fill="#fb8072" stroke="transparent" points="668.5,-10 668.5,-30 688.5,-30 688.5,-10 668.5,-10"/>
<text text-anchor="start" x="692.2258" y="-15.4" font-family="sans-serif" font-size="14.00" fill="#000000"> &#160;Exports</text>
<g id="clust1" class="cluster">
<title>cluster_AddressBookModule</title>
<polygon fill="none" stroke="#000000" stroke-dasharray="1,5" points="8,-70 8,-268 1013,-268 1013,-70 8,-70"/>
</g>
<g id="clust2" class="cluster">
<title>cluster_AddressBookModule_declarations</title>
<polygon fill="none" stroke="#000000" points="659,-78 659,-130 1005,-130 1005,-78 659,-78"/>
</g>
<g id="clust5" class="cluster">
<title>cluster_AddressBookModule_imports</title>
<polygon fill="none" stroke="#000000" points="156,-78 156,-130 651,-130 651,-78 156,-78"/>
</g>
<g id="clust6" class="cluster">
<title>cluster_AddressBookModule_exports</title>
<polygon fill="none" stroke="#000000" points="271,-208 271,-260 624,-260 624,-208 271,-208"/>
</g>
<g id="clust8" class="cluster">
<title>cluster_AddressBookModule_providers</title>
<polygon fill="none" stroke="#000000" points="16,-78 16,-130 148,-130 148,-78 16,-78"/>
</g>
<!-- AddressBookComponent -->
<g id="node1" class="node">
<title>AddressBookComponent</title>
<polygon fill="#ffffb3" stroke="#000000" points="996.5407,-122 839.4593,-122 839.4593,-86 996.5407,-86 996.5407,-122"/>
<text text-anchor="middle" x="918" y="-99.8" font-family="Times,serif" font-size="14.00" fill="#000000">AddressBookComponent</text>
</g>
<!-- AddressBookModule -->
<g id="node3" class="node">
<title>AddressBookModule</title>
<polygon fill="#8dd3c7" stroke="#000000" points="513.7576,-187 510.7576,-191 489.7576,-191 486.7576,-187 378.2424,-187 378.2424,-151 513.7576,-151 513.7576,-187"/>
<text text-anchor="middle" x="446" y="-164.8" font-family="Times,serif" font-size="14.00" fill="#000000">AddressBookModule</text>
</g>
<!-- AddressBookComponent&#45;&gt;AddressBookModule -->
<g id="edge1" class="edge">
<title>AddressBookComponent&#45;&gt;AddressBookModule</title>
<path fill="none" stroke="#000000" d="M918,-122.2843C918,-143.3211 918,-175 918,-175 918,-175 523.8773,-175 523.8773,-175"/>
<polygon fill="#000000" stroke="#000000" points="523.8773,-171.5001 513.8773,-175 523.8772,-178.5001 523.8773,-171.5001"/>
</g>
<!-- AddressCardComponent -->
<g id="node2" class="node">
<title>AddressCardComponent</title>
<polygon fill="#ffffb3" stroke="#000000" points="821.4158,-122 666.5842,-122 666.5842,-86 821.4158,-86 821.4158,-122"/>
<text text-anchor="middle" x="744" y="-99.8" font-family="Times,serif" font-size="14.00" fill="#000000">AddressCardComponent</text>
</g>
<!-- AddressCardComponent&#45;&gt;AddressBookModule -->
<g id="edge2" class="edge">
<title>AddressCardComponent&#45;&gt;AddressBookModule</title>
<path fill="none" stroke="#000000" d="M744,-122.0225C744,-139.3734 744,-163 744,-163 744,-163 523.9937,-163 523.9937,-163"/>
<polygon fill="#000000" stroke="#000000" points="523.9937,-159.5001 513.9937,-163 523.9937,-166.5001 523.9937,-159.5001"/>
</g>
<!-- AddressBookComponent  -->
<g id="node8" class="node">
<title>AddressBookComponent </title>
<polygon fill="#fb8072" stroke="#000000" points="615.54,-252 454.46,-252 454.46,-216 615.54,-216 615.54,-252"/>
<text text-anchor="middle" x="535" y="-229.8" font-family="Times,serif" font-size="14.00" fill="#000000">AddressBookComponent </text>
</g>
<!-- AddressBookModule&#45;&gt;AddressBookComponent  -->
<g id="edge7" class="edge">
<title>AddressBookModule&#45;&gt;AddressBookComponent </title>
<path fill="none" stroke="#000000" stroke-dasharray="5,2" d="M484.1794,-187.1061C484.1794,-187.1061 484.1794,-205.991 484.1794,-205.991"/>
<polygon fill="#000000" stroke="#000000" points="480.6794,-205.9909 484.1794,-215.991 487.6794,-205.991 480.6794,-205.9909"/>
</g>
<!-- AddressCardComponent  -->
<g id="node9" class="node">
<title>AddressCardComponent </title>
<polygon fill="#fb8072" stroke="#000000" points="436.9152,-252 279.0848,-252 279.0848,-216 436.9152,-216 436.9152,-252"/>
<text text-anchor="middle" x="358" y="-229.8" font-family="Times,serif" font-size="14.00" fill="#000000">AddressCardComponent </text>
</g>
<!-- AddressBookModule&#45;&gt;AddressCardComponent  -->
<g id="edge8" class="edge">
<title>AddressBookModule&#45;&gt;AddressCardComponent </title>
<path fill="none" stroke="#000000" stroke-dasharray="5,2" d="M407.5395,-187.1061C407.5395,-187.1061 407.5395,-205.991 407.5395,-205.991"/>
<polygon fill="#000000" stroke="#000000" points="404.0395,-205.9909 407.5395,-215.991 411.0395,-205.991 404.0395,-205.9909"/>
</g>
<!-- AddressFormModule -->
<g id="node4" class="node">
<title>AddressFormModule</title>
<polygon fill="#8dd3c7" stroke="#000000" points="642.7548,-122 639.7548,-126 618.7548,-126 615.7548,-122 507.2452,-122 507.2452,-86 642.7548,-86 642.7548,-122"/>
<text text-anchor="middle" x="575" y="-99.8" font-family="Times,serif" font-size="14.00" fill="#000000">AddressFormModule</text>
</g>
<!-- AddressFormModule&#45;&gt;AddressBookModule -->
<g id="edge3" class="edge">
<title>AddressFormModule&#45;&gt;AddressBookModule</title>
<path fill="none" stroke="#000000" d="M507.0558,-104C501.6666,-104 498.2518,-104 498.2518,-104 498.2518,-104 498.2518,-140.8939 498.2518,-140.8939"/>
<polygon fill="#000000" stroke="#000000" points="494.7518,-140.8938 498.2518,-150.8939 501.7518,-140.8939 494.7518,-140.8938"/>
</g>
<!-- CardModule -->
<g id="node5" class="node">
<title>CardModule</title>
<polygon fill="#8dd3c7" stroke="#000000" points="489.2619,-122 486.2619,-126 465.2619,-126 462.2619,-122 402.7381,-122 402.7381,-86 489.2619,-86 489.2619,-122"/>
<text text-anchor="middle" x="446" y="-99.8" font-family="Times,serif" font-size="14.00" fill="#000000">CardModule</text>
</g>
<!-- CardModule&#45;&gt;AddressBookModule -->
<g id="edge4" class="edge">
<title>CardModule&#45;&gt;AddressBookModule</title>
<path fill="none" stroke="#000000" d="M446,-122.1061C446,-122.1061 446,-140.991 446,-140.991"/>
<polygon fill="#000000" stroke="#000000" points="442.5001,-140.9909 446,-150.991 449.5001,-140.991 442.5001,-140.9909"/>
</g>
<!-- ConfigModule -->
<g id="node6" class="node">
<title>ConfigModule</title>
<polygon fill="#8dd3c7" stroke="#000000" points="384.4386,-122 381.4386,-126 360.4386,-126 357.4386,-122 285.5614,-122 285.5614,-86 384.4386,-86 384.4386,-122"/>
<text text-anchor="middle" x="335" y="-99.8" font-family="Times,serif" font-size="14.00" fill="#000000">ConfigModule</text>
</g>
<!-- ConfigModule&#45;&gt;AddressBookModule -->
<g id="edge5" class="edge">
<title>ConfigModule&#45;&gt;AddressBookModule</title>
<path fill="none" stroke="#000000" d="M384.291,-104C389.7678,-104 393.419,-104 393.419,-104 393.419,-104 393.419,-140.8939 393.419,-140.8939"/>
<polygon fill="#000000" stroke="#000000" points="389.9191,-140.8938 393.419,-150.8939 396.9191,-140.8939 389.9191,-140.8938"/>
</g>
<!-- SpinnerModule -->
<g id="node7" class="node">
<title>SpinnerModule</title>
<polygon fill="#8dd3c7" stroke="#000000" points="267.5982,-122 264.5982,-126 243.5982,-126 240.5982,-122 164.4018,-122 164.4018,-86 267.5982,-86 267.5982,-122"/>
<text text-anchor="middle" x="216" y="-99.8" font-family="Times,serif" font-size="14.00" fill="#000000">SpinnerModule</text>
</g>
<!-- SpinnerModule&#45;&gt;AddressBookModule -->
<g id="edge6" class="edge">
<title>SpinnerModule&#45;&gt;AddressBookModule</title>
<path fill="none" stroke="#000000" d="M216,-122.0225C216,-139.3734 216,-163 216,-163 216,-163 368.2364,-163 368.2364,-163"/>
<polygon fill="#000000" stroke="#000000" points="368.2364,-166.5001 378.2364,-163 368.2364,-159.5001 368.2364,-166.5001"/>
</g>
<!-- UserService -->
<g id="node10" class="node">
<title>UserService</title>
<ellipse fill="#fdb462" stroke="#000000" cx="82" cy="-104" rx="58.4415" ry="18"/>
<text text-anchor="middle" x="82" y="-99.8" font-family="Times,serif" font-size="14.00" fill="#000000">UserService</text>
</g>
<!-- UserService&#45;&gt;AddressBookModule -->
<g id="edge9" class="edge">
<title>UserService&#45;&gt;AddressBookModule</title>
<path fill="none" stroke="#000000" d="M82,-122.2843C82,-143.3211 82,-175 82,-175 82,-175 367.9614,-175 367.9614,-175"/>
<polygon fill="#000000" stroke="#000000" points="367.9614,-178.5001 377.9614,-175 367.9614,-171.5001 367.9614,-178.5001"/>
</g>
</g>
</svg>
