<?xml version="1.0" encoding="UTF-8" standalone="no"?>
<!DOCTYPE svg PUBLIC "-//W3C//DTD SVG 1.1//EN"
 "http://www.w3.org/Graphics/SVG/1.1/DTD/svg11.dtd">
<!-- Generated by graphviz version 2.40.1 (20161225.0304)
 -->
<!-- Title: dependencies Pages: 1 -->
<svg width="504pt" height="284pt"
 viewBox="0.00 0.00 504.00 284.00" xmlns="http://www.w3.org/2000/svg" xmlns:xlink="http://www.w3.org/1999/xlink">
<g id="graph0" class="graph" transform="scale(1 1) rotate(0) translate(4 280)">
<title>dependencies</title>
<polygon fill="#ffffff" stroke="transparent" points="-4,4 -4,-280 500,-280 500,4 -4,4"/>
<text text-anchor="start" x="227.0091" y="-42.4" font-family="sans-serif" font-weight="bold" font-size="14.00" fill="#000000">Legend</text>
<polygon fill="#ffffb3" stroke="transparent" points="14,-10 14,-30 34,-30 34,-10 14,-10"/>
<text text-anchor="start" x="37.629" y="-15.4" font-family="sans-serif" font-size="14.00" fill="#000000"> &#160;Declarations</text>
<polygon fill="#8dd3c7" stroke="transparent" points="127,-10 127,-30 147,-30 147,-10 127,-10"/>
<text text-anchor="start" x="150.7251" y="-15.4" font-family="sans-serif" font-size="14.00" fill="#000000"> &#160;Module</text>
<polygon fill="#80b1d3" stroke="transparent" points="213,-10 213,-30 233,-30 233,-10 213,-10"/>
<text text-anchor="start" x="236.7812" y="-15.4" font-family="sans-serif" font-size="14.00" fill="#000000"> &#160;Bootstrap</text>
<polygon fill="#fdb462" stroke="transparent" points="310,-10 310,-30 330,-30 330,-10 310,-10"/>
<text text-anchor="start" x="333.6732" y="-15.4" font-family="sans-serif" font-size="14.00" fill="#000000"> &#160;Providers</text>
<polygon fill="#fb8072" stroke="transparent" points="406,-10 406,-30 426,-30 426,-10 406,-10"/>
<text text-anchor="start" x="429.7258" y="-15.4" font-family="sans-serif" font-size="14.00" fill="#000000"> &#160;Exports</text>
<g id="clust1" class="cluster">
<title>cluster_IconModule</title>
<polygon fill="none" stroke="#000000" stroke-dasharray="1,5" points="118,-70 118,-268 378,-268 378,-70 118,-70"/>
</g>
<g id="clust2" class="cluster">
<title>cluster_IconModule_declarations</title>
<polygon fill="none" stroke="#000000" points="248,-78 248,-130 370,-130 370,-78 248,-78"/>
</g>
<g id="clust4" class="cluster">
<title>cluster_IconModule_imports</title>
<polygon fill="none" stroke="#000000" points="126,-78 126,-130 240,-130 240,-78 126,-78"/>
</g>
<g id="clust5" class="cluster">
<title>cluster_IconModule_exports</title>
<polygon fill="none" stroke="#000000" points="185,-208 185,-260 311,-260 311,-208 185,-208"/>
</g>
<!-- IconComponent -->
<g id="node1" class="node">
<title>IconComponent</title>
<polygon fill="#ffffb3" stroke="#000000" points="362.2078,-122 255.7922,-122 255.7922,-86 362.2078,-86 362.2078,-122"/>
<text text-anchor="middle" x="309" y="-99.8" font-family="Times,serif" font-size="14.00" fill="#000000">IconComponent</text>
</g>
<!-- IconModule -->
<g id="node2" class="node">
<title>IconModule</title>
<polygon fill="#8dd3c7" stroke="#000000" points="290.4261,-187 287.4261,-191 266.4261,-191 263.4261,-187 205.5739,-187 205.5739,-151 290.4261,-151 290.4261,-187"/>
<text text-anchor="middle" x="248" y="-164.8" font-family="Times,serif" font-size="14.00" fill="#000000">IconModule</text>
</g>
<!-- IconComponent&#45;&gt;IconModule -->
<g id="edge1" class="edge">
<title>IconComponent&#45;&gt;IconModule</title>
<path fill="none" stroke="#000000" d="M273.0544,-122.1061C273.0544,-122.1061 273.0544,-140.991 273.0544,-140.991"/>
<polygon fill="#000000" stroke="#000000" points="269.5544,-140.9909 273.0544,-150.991 276.5544,-140.991 269.5544,-140.9909"/>
</g>
<!-- IconComponent  -->
<g id="node4" class="node">
<title>IconComponent </title>
<polygon fill="#fb8072" stroke="#000000" points="302.708,-252 193.292,-252 193.292,-216 302.708,-216 302.708,-252"/>
<text text-anchor="middle" x="248" y="-229.8" font-family="Times,serif" font-size="14.00" fill="#000000">IconComponent </text>
</g>
<!-- IconModule&#45;&gt;IconComponent  -->
<g id="edge3" class="edge">
<title>IconModule&#45;&gt;IconComponent </title>
<path fill="none" stroke="#000000" stroke-dasharray="5,2" d="M248,-187.1061C248,-187.1061 248,-205.991 248,-205.991"/>
<polygon fill="#000000" stroke="#000000" points="244.5001,-205.9909 248,-215.991 251.5001,-205.991 244.5001,-205.9909"/>
</g>
<!-- ConfigModule -->
<g id="node3" class="node">
<title>ConfigModule</title>
<polygon fill="#8dd3c7" stroke="#000000" points="232.4386,-122 229.4386,-126 208.4386,-126 205.4386,-122 133.5614,-122 133.5614,-86 232.4386,-86 232.4386,-122"/>
<text text-anchor="middle" x="183" y="-99.8" font-family="Times,serif" font-size="14.00" fill="#000000">ConfigModule</text>
</g>
<!-- ConfigModule&#45;&gt;IconModule -->
<g id="edge2" class="edge">
<title>ConfigModule&#45;&gt;IconModule</title>
<path fill="none" stroke="#000000" d="M219.0032,-122.1061C219.0032,-122.1061 219.0032,-140.991 219.0032,-140.991"/>
<polygon fill="#000000" stroke="#000000" points="215.5032,-140.9909 219.0032,-150.991 222.5032,-140.991 215.5032,-140.9909"/>
</g>
</g>
</svg>
