<?xml version="1.0" encoding="UTF-8" standalone="no"?>
<!DOCTYPE svg PUBLIC "-//W3C//DTD SVG 1.1//EN"
 "http://www.w3.org/Graphics/SVG/1.1/DTD/svg11.dtd">
<!-- Generated by graphviz version 2.47.3 (20210619.1520)
 -->
<!-- Title: dependencies Pages: 1 -->
<svg width="1017pt" height="174pt"
 viewBox="0.00 0.00 1017.00 173.80" xmlns="http://www.w3.org/2000/svg" xmlns:xlink="http://www.w3.org/1999/xlink">
<g id="graph0" class="graph" transform="scale(1 1) rotate(0) translate(4 169.8)">
<title>dependencies</title>
<polygon fill="white" stroke="transparent" points="-4,4 -4,-169.8 1013,-169.8 1013,4 -4,4"/>
<text text-anchor="middle" x="504.5" y="-8.2" font-family="sans-serif" font-size="14.00">dependencies</text>
<g id="clust1" class="cluster">
<title>cluster_EpdVisualizationCoreModule</title>
<polygon fill="none" stroke="black" stroke-dasharray="1,5" points="8,-32.8 8,-157.8 1001,-157.8 1001,-32.8 8,-32.8"/>
</g>
<g id="clust6" class="cluster">
<title>cluster_EpdVisualizationCoreModule_providers</title>
<polygon fill="none" stroke="black" points="16,-40.8 16,-92.8 993,-92.8 993,-40.8 16,-40.8"/>
</g>
<!-- SceneConnector -->
<g id="node1" class="node">
<title>SceneConnector</title>
<ellipse fill="#fdb462" stroke="black" cx="911" cy="-66.8" rx="74.14" ry="18"/>
<text text-anchor="middle" x="911" y="-62.6" font-family="Times,serif" font-size="14.00">SceneConnector</text>
</g>
<!-- EpdVisualizationCoreModule -->
<g id="node5" class="node">
<title>EpdVisualizationCoreModule</title>
<polygon fill="#8dd3c7" stroke="black" points="617.96,-149.8 614.96,-153.8 593.96,-153.8 590.96,-149.8 434.04,-149.8 434.04,-113.8 617.96,-113.8 617.96,-149.8"/>
<text text-anchor="middle" x="526" y="-127.6" font-family="Times,serif" font-size="14.00">EpdVisualizationCoreModule</text>
</g>
<!-- SceneConnector&#45;&gt;EpdVisualizationCoreModule -->
<g id="edge1" class="edge">
<title>SceneConnector&#45;&gt;EpdVisualizationCoreModule</title>
<path fill="none" stroke="black" d="M911,-84.91C911,-104.14 911,-131.8 911,-131.8 911,-131.8 628.22,-131.8 628.22,-131.8"/>
<polygon fill="black" stroke="black" points="628.22,-128.3 618.22,-131.8 628.22,-135.3 628.22,-128.3"/>
</g>
<!-- SceneNodeToProductLookupService -->
<g id="node2" class="node">
<title>SceneNodeToProductLookupService</title>
<ellipse fill="#fdb462" stroke="black" cx="664" cy="-66.8" rx="154.55" ry="18"/>
<text text-anchor="middle" x="664" y="-62.6" font-family="Times,serif" font-size="14.00">SceneNodeToProductLookupService</text>
</g>
<!-- SceneNodeToProductLookupService&#45;&gt;EpdVisualizationCoreModule -->
<g id="edge2" class="edge">
<title>SceneNodeToProductLookupService&#45;&gt;EpdVisualizationCoreModule</title>
<path fill="none" stroke="black" d="M563.6,-80.58C563.6,-80.58 563.6,-103.35 563.6,-103.35"/>
<polygon fill="black" stroke="black" points="560.1,-103.35 563.6,-113.35 567.1,-103.35 560.1,-103.35"/>
</g>
<!-- VisualizationConnector -->
<g id="node3" class="node">
<title>VisualizationConnector</title>
<ellipse fill="#fdb462" stroke="black" cx="388" cy="-66.8" rx="102.51" ry="18"/>
<text text-anchor="middle" x="388" y="-62.6" font-family="Times,serif" font-size="14.00">VisualizationConnector</text>
</g>
<!-- VisualizationConnector&#45;&gt;EpdVisualizationCoreModule -->
<g id="edge3" class="edge">
<title>VisualizationConnector&#45;&gt;EpdVisualizationCoreModule</title>
<path fill="none" stroke="black" d="M462.39,-79.33C462.39,-79.33 462.39,-103.65 462.39,-103.65"/>
<polygon fill="black" stroke="black" points="458.89,-103.65 462.39,-113.65 465.89,-103.65 458.89,-103.65"/>
</g>
<!-- VisualizationLookupService -->
<g id="node4" class="node">
<title>VisualizationLookupService</title>
<ellipse fill="#fdb462" stroke="black" cx="146" cy="-66.8" rx="121.55" ry="18"/>
<text text-anchor="middle" x="146" y="-62.6" font-family="Times,serif" font-size="14.00">VisualizationLookupService</text>
</g>
<!-- VisualizationLookupService&#45;&gt;EpdVisualizationCoreModule -->
<g id="edge4" class="edge">
<title>VisualizationLookupService&#45;&gt;EpdVisualizationCoreModule</title>
<path fill="none" stroke="black" d="M146,-84.91C146,-104.14 146,-131.8 146,-131.8 146,-131.8 424.01,-131.8 424.01,-131.8"/>
<polygon fill="black" stroke="black" points="424.01,-135.3 434.01,-131.8 424.01,-128.3 424.01,-135.3"/>
</g>
</g>
</svg>
