<?xml version="1.0" encoding="UTF-8" standalone="no"?>
<!DOCTYPE svg PUBLIC "-//W3C//DTD SVG 1.1//EN"
 "http://www.w3.org/Graphics/SVG/1.1/DTD/svg11.dtd">
<!-- Generated by graphviz version 2.40.1 (20161225.0304)
 -->
<!-- Title: dependencies Pages: 1 -->
<svg width="504pt" height="284pt"
 viewBox="0.00 0.00 504.00 284.00" xmlns="http://www.w3.org/2000/svg" xmlns:xlink="http://www.w3.org/1999/xlink">
<g id="graph0" class="graph" transform="scale(1 1) rotate(0) translate(4 280)">
<title>dependencies</title>
<polygon fill="#ffffff" stroke="transparent" points="-4,4 -4,-280 500,-280 500,4 -4,4"/>
<text text-anchor="start" x="227.0091" y="-42.4" font-family="sans-serif" font-weight="bold" font-size="14.00" fill="#000000">Legend</text>
<polygon fill="#ffffb3" stroke="transparent" points="14,-10 14,-30 34,-30 34,-10 14,-10"/>
<text text-anchor="start" x="37.629" y="-15.4" font-family="sans-serif" font-size="14.00" fill="#000000"> &#160;Declarations</text>
<polygon fill="#8dd3c7" stroke="transparent" points="127,-10 127,-30 147,-30 147,-10 127,-10"/>
<text text-anchor="start" x="150.7251" y="-15.4" font-family="sans-serif" font-size="14.00" fill="#000000"> &#160;Module</text>
<polygon fill="#80b1d3" stroke="transparent" points="213,-10 213,-30 233,-30 233,-10 213,-10"/>
<text text-anchor="start" x="236.7812" y="-15.4" font-family="sans-serif" font-size="14.00" fill="#000000"> &#160;Bootstrap</text>
<polygon fill="#fdb462" stroke="transparent" points="310,-10 310,-30 330,-30 330,-10 310,-10"/>
<text text-anchor="start" x="333.6732" y="-15.4" font-family="sans-serif" font-size="14.00" fill="#000000"> &#160;Providers</text>
<polygon fill="#fb8072" stroke="transparent" points="406,-10 406,-30 426,-30 426,-10 406,-10"/>
<text text-anchor="start" x="429.7258" y="-15.4" font-family="sans-serif" font-size="14.00" fill="#000000"> &#160;Exports</text>
<g id="clust1" class="cluster">
<title>cluster_GlobalMessageComponentModule</title>
<polygon fill="none" stroke="#000000" stroke-dasharray="1,5" points="42,-70 42,-268 454,-268 454,-70 42,-70"/>
</g>
<g id="clust2" class="cluster">
<title>cluster_GlobalMessageComponentModule_declarations</title>
<polygon fill="none" stroke="#000000" points="262,-78 262,-130 446,-130 446,-78 262,-78"/>
</g>
<g id="clust4" class="cluster">
<title>cluster_GlobalMessageComponentModule_imports</title>
<polygon fill="none" stroke="#000000" points="50,-78 50,-130 254,-130 254,-78 50,-78"/>
</g>
<g id="clust5" class="cluster">
<title>cluster_GlobalMessageComponentModule_exports</title>
<polygon fill="none" stroke="#000000" points="109,-208 109,-260 297,-260 297,-208 109,-208"/>
</g>
<!-- GlobalMessageComponent -->
<g id="node1" class="node">
<title>GlobalMessageComponent</title>
<polygon fill="#ffffb3" stroke="#000000" points="438.4129,-122 269.5871,-122 269.5871,-86 438.4129,-86 438.4129,-122"/>
<text text-anchor="middle" x="354" y="-99.8" font-family="Times,serif" font-size="14.00" fill="#000000">GlobalMessageComponent</text>
</g>
<!-- GlobalMessageComponentModule -->
<g id="node2" class="node">
<title>GlobalMessageComponentModule</title>
<polygon fill="#8dd3c7" stroke="#000000" points="308.9622,-187 305.9622,-191 284.9622,-191 281.9622,-187 97.0378,-187 97.0378,-151 308.9622,-151 308.9622,-187"/>
<text text-anchor="middle" x="203" y="-164.8" font-family="Times,serif" font-size="14.00" fill="#000000">GlobalMessageComponentModule</text>
</g>
<!-- GlobalMessageComponent&#45;&gt;GlobalMessageComponentModule -->
<g id="edge1" class="edge">
<title>GlobalMessageComponent&#45;&gt;GlobalMessageComponentModule</title>
<path fill="none" stroke="#000000" d="M289.3875,-122.1061C289.3875,-122.1061 289.3875,-140.991 289.3875,-140.991"/>
<polygon fill="#000000" stroke="#000000" points="285.8875,-140.9909 289.3875,-150.991 292.8875,-140.991 285.8875,-140.9909"/>
</g>
<!-- GlobalMessageComponent  -->
<g id="node5" class="node">
<title>GlobalMessageComponent </title>
<polygon fill="#fb8072" stroke="#000000" points="288.9124,-252 117.0876,-252 117.0876,-216 288.9124,-216 288.9124,-252"/>
<text text-anchor="middle" x="203" y="-229.8" font-family="Times,serif" font-size="14.00" fill="#000000">GlobalMessageComponent </text>
</g>
<!-- GlobalMessageComponentModule&#45;&gt;GlobalMessageComponent  -->
<g id="edge4" class="edge">
<title>GlobalMessageComponentModule&#45;&gt;GlobalMessageComponent </title>
<path fill="none" stroke="#000000" stroke-dasharray="5,2" d="M203,-187.1061C203,-187.1061 203,-205.991 203,-205.991"/>
<polygon fill="#000000" stroke="#000000" points="199.5001,-205.9909 203,-215.991 206.5001,-205.991 199.5001,-205.9909"/>
</g>
<!-- I18nModule -->
<g id="node3" class="node">
<title>I18nModule</title>
<polygon fill="#8dd3c7" stroke="#000000" points="245.7107,-122 242.7107,-126 221.7107,-126 218.7107,-122 160.2893,-122 160.2893,-86 245.7107,-86 245.7107,-122"/>
<text text-anchor="middle" x="203" y="-99.8" font-family="Times,serif" font-size="14.00" fill="#000000">I18nModule</text>
</g>
<!-- I18nModule&#45;&gt;GlobalMessageComponentModule -->
<g id="edge2" class="edge">
<title>I18nModule&#45;&gt;GlobalMessageComponentModule</title>
<path fill="none" stroke="#000000" d="M203,-122.1061C203,-122.1061 203,-140.991 203,-140.991"/>
<polygon fill="#000000" stroke="#000000" points="199.5001,-140.9909 203,-150.991 206.5001,-140.991 199.5001,-140.9909"/>
</g>
<!-- IconModule -->
<g id="node4" class="node">
<title>IconModule</title>
<polygon fill="#8dd3c7" stroke="#000000" points="142.4261,-122 139.4261,-126 118.4261,-126 115.4261,-122 57.5739,-122 57.5739,-86 142.4261,-86 142.4261,-122"/>
<text text-anchor="middle" x="100" y="-99.8" font-family="Times,serif" font-size="14.00" fill="#000000">IconModule</text>
</g>
<!-- IconModule&#45;&gt;GlobalMessageComponentModule -->
<g id="edge3" class="edge">
<title>IconModule&#45;&gt;GlobalMessageComponentModule</title>
<path fill="none" stroke="#000000" d="M119.6157,-122.1061C119.6157,-122.1061 119.6157,-140.991 119.6157,-140.991"/>
<polygon fill="#000000" stroke="#000000" points="116.1158,-140.9909 119.6157,-150.991 123.1158,-140.991 116.1158,-140.9909"/>
</g>
</g>
</svg>
