<?xml version="1.0" encoding="UTF-8" standalone="no"?>
<!DOCTYPE svg PUBLIC "-//W3C//DTD SVG 1.1//EN"
 "http://www.w3.org/Graphics/SVG/1.1/DTD/svg11.dtd">
<!-- Generated by graphviz version 2.44.1 (20200629.0846)
 -->
<!-- Title: dependencies Pages: 1 -->
<svg width="504pt" height="284pt"
 viewBox="0.00 0.00 504.00 284.00" xmlns="http://www.w3.org/2000/svg" xmlns:xlink="http://www.w3.org/1999/xlink">
<g id="graph0" class="graph" transform="scale(1 1) rotate(0) translate(4 280)">
<title>dependencies</title>
<polygon fill="white" stroke="transparent" points="-4,4 -4,-280 500,-280 500,4 -4,4"/>
<text text-anchor="start" x="227.01" y="-42.4" font-family="sans-serif" font-weight="bold" font-size="14.00">Legend</text>
<polygon fill="#ffffb3" stroke="transparent" points="14,-10 14,-30 34,-30 34,-10 14,-10"/>
<text text-anchor="start" x="37.63" y="-15.4" font-family="sans-serif" font-size="14.00"> &#160;Declarations</text>
<polygon fill="#8dd3c7" stroke="transparent" points="127,-10 127,-30 147,-30 147,-10 127,-10"/>
<text text-anchor="start" x="150.73" y="-15.4" font-family="sans-serif" font-size="14.00"> &#160;Module</text>
<polygon fill="#80b1d3" stroke="transparent" points="213,-10 213,-30 233,-30 233,-10 213,-10"/>
<text text-anchor="start" x="236.78" y="-15.4" font-family="sans-serif" font-size="14.00"> &#160;Bootstrap</text>
<polygon fill="#fdb462" stroke="transparent" points="310,-10 310,-30 330,-30 330,-10 310,-10"/>
<text text-anchor="start" x="333.67" y="-15.4" font-family="sans-serif" font-size="14.00"> &#160;Providers</text>
<polygon fill="#fb8072" stroke="transparent" points="406,-10 406,-30 426,-30 426,-10 406,-10"/>
<text text-anchor="start" x="429.73" y="-15.4" font-family="sans-serif" font-size="14.00"> &#160;Exports</text>
<g id="clust1" class="cluster">
<title>cluster_GlobalMessageComponentModule</title>
<polygon fill="none" stroke="black" stroke-dasharray="1,5" points="42,-70 42,-268 454,-268 454,-70 42,-70"/>
</g>
<g id="clust5" class="cluster">
<title>cluster_GlobalMessageComponentModule_exports</title>
<polygon fill="none" stroke="black" points="198,-208 198,-260 386,-260 386,-208 198,-208"/>
</g>
<g id="clust4" class="cluster">
<title>cluster_GlobalMessageComponentModule_imports</title>
<polygon fill="none" stroke="black" points="242,-78 242,-130 446,-130 446,-78 242,-78"/>
</g>
<g id="clust2" class="cluster">
<title>cluster_GlobalMessageComponentModule_declarations</title>
<polygon fill="none" stroke="black" points="50,-78 50,-130 234,-130 234,-78 50,-78"/>
</g>
<!-- GlobalMessageComponent -->
<g id="node1" class="node">
<title>GlobalMessageComponent</title>
<polygon fill="#ffffb3" stroke="black" points="226.41,-122 57.59,-122 57.59,-86 226.41,-86 226.41,-122"/>
<text text-anchor="middle" x="142" y="-99.8" font-family="Times,serif" font-size="14.00">GlobalMessageComponent</text>
</g>
<!-- GlobalMessageComponentModule -->
<g id="node2" class="node">
<title>GlobalMessageComponentModule</title>
<polygon fill="#8dd3c7" stroke="black" points="397.96,-187 394.96,-191 373.96,-191 370.96,-187 186.04,-187 186.04,-151 397.96,-151 397.96,-187"/>
<text text-anchor="middle" x="292" y="-164.8" font-family="Times,serif" font-size="14.00">GlobalMessageComponentModule</text>
</g>
<!-- GlobalMessageComponent&#45;&gt;GlobalMessageComponentModule -->
<g id="edge1" class="edge">
<title>GlobalMessageComponent&#45;&gt;GlobalMessageComponentModule</title>
<path fill="none" stroke="black" d="M206.11,-122.11C206.11,-122.11 206.11,-140.99 206.11,-140.99"/>
<polygon fill="black" stroke="black" points="202.61,-140.99 206.11,-150.99 209.61,-140.99 202.61,-140.99"/>
</g>
<!-- GlobalMessageComponent  -->
<g id="node5" class="node">
<title>GlobalMessageComponent </title>
<polygon fill="#fb8072" stroke="black" points="377.91,-252 206.09,-252 206.09,-216 377.91,-216 377.91,-252"/>
<text text-anchor="middle" x="292" y="-229.8" font-family="Times,serif" font-size="14.00">GlobalMessageComponent </text>
</g>
<!-- GlobalMessageComponentModule&#45;&gt;GlobalMessageComponent  -->
<g id="edge4" class="edge">
<title>GlobalMessageComponentModule&#45;&gt;GlobalMessageComponent </title>
<path fill="none" stroke="black" stroke-dasharray="5,2" d="M292,-187.11C292,-187.11 292,-205.99 292,-205.99"/>
<polygon fill="black" stroke="black" points="288.5,-205.99 292,-215.99 295.5,-205.99 288.5,-205.99"/>
</g>
<!-- I18nModule -->
<g id="node3" class="node">
<title>I18nModule</title>
<polygon fill="#8dd3c7" stroke="black" points="437.71,-122 434.71,-126 413.71,-126 410.71,-122 352.29,-122 352.29,-86 437.71,-86 437.71,-122"/>
<text text-anchor="middle" x="395" y="-99.8" font-family="Times,serif" font-size="14.00">I18nModule</text>
</g>
<!-- I18nModule&#45;&gt;GlobalMessageComponentModule -->
<g id="edge2" class="edge">
<title>I18nModule&#45;&gt;GlobalMessageComponentModule</title>
<path fill="none" stroke="black" d="M375.19,-122.11C375.19,-122.11 375.19,-140.99 375.19,-140.99"/>
<polygon fill="black" stroke="black" points="371.69,-140.99 375.19,-150.99 378.69,-140.99 371.69,-140.99"/>
</g>
<!-- IconModule -->
<g id="node4" class="node">
<title>IconModule</title>
<polygon fill="#8dd3c7" stroke="black" points="334.43,-122 331.43,-126 310.43,-126 307.43,-122 249.57,-122 249.57,-86 334.43,-86 334.43,-122"/>
<text text-anchor="middle" x="292" y="-99.8" font-family="Times,serif" font-size="14.00">IconModule</text>
</g>
<!-- IconModule&#45;&gt;GlobalMessageComponentModule -->
<g id="edge3" class="edge">
<title>IconModule&#45;&gt;GlobalMessageComponentModule</title>
<path fill="none" stroke="black" d="M292,-122.11C292,-122.11 292,-140.99 292,-140.99"/>
<polygon fill="black" stroke="black" points="288.5,-140.99 292,-150.99 295.5,-140.99 288.5,-140.99"/>
</g>
</g>
</svg>
