<?xml version="1.0" encoding="UTF-8" standalone="no"?>
<!DOCTYPE svg PUBLIC "-//W3C//DTD SVG 1.1//EN"
 "http://www.w3.org/Graphics/SVG/1.1/DTD/svg11.dtd">
<!-- Generated by graphviz version 2.40.1 (20161225.0304)
 -->
<!-- Title: dependencies Pages: 1 -->
<svg width="504pt" height="211pt"
 viewBox="0.00 0.00 504.00 211.00" xmlns="http://www.w3.org/2000/svg" xmlns:xlink="http://www.w3.org/1999/xlink">
<g id="graph0" class="graph" transform="scale(1 1) rotate(0) translate(4 207)">
<title>dependencies</title>
<polygon fill="#ffffff" stroke="transparent" points="-4,4 -4,-207 500,-207 500,4 -4,4"/>
<text text-anchor="start" x="227.0091" y="-42.4" font-family="sans-serif" font-weight="bold" font-size="14.00" fill="#000000">Legend</text>
<polygon fill="#ffffb3" stroke="transparent" points="14,-10 14,-30 34,-30 34,-10 14,-10"/>
<text text-anchor="start" x="37.629" y="-15.4" font-family="sans-serif" font-size="14.00" fill="#000000"> &#160;Declarations</text>
<polygon fill="#8dd3c7" stroke="transparent" points="127,-10 127,-30 147,-30 147,-10 127,-10"/>
<text text-anchor="start" x="150.7251" y="-15.4" font-family="sans-serif" font-size="14.00" fill="#000000"> &#160;Module</text>
<polygon fill="#80b1d3" stroke="transparent" points="213,-10 213,-30 233,-30 233,-10 213,-10"/>
<text text-anchor="start" x="236.7812" y="-15.4" font-family="sans-serif" font-size="14.00" fill="#000000"> &#160;Bootstrap</text>
<polygon fill="#fdb462" stroke="transparent" points="310,-10 310,-30 330,-30 330,-10 310,-10"/>
<text text-anchor="start" x="333.6732" y="-15.4" font-family="sans-serif" font-size="14.00" fill="#000000"> &#160;Providers</text>
<polygon fill="#fb8072" stroke="transparent" points="406,-10 406,-30 426,-30 426,-10 406,-10"/>
<text text-anchor="start" x="429.7258" y="-15.4" font-family="sans-serif" font-size="14.00" fill="#000000"> &#160;Exports</text>
<g id="clust1" class="cluster">
<title>cluster_AdministrationCoreModule</title>
<polygon fill="none" stroke="#000000" stroke-dasharray="1,5" points="48,-70 48,-195 448,-195 448,-70 48,-70"/>
</g>
<g id="clust3" class="cluster">
<title>cluster_AdministrationCoreModule_imports</title>
<polygon fill="none" stroke="#000000" points="56,-78 56,-130 440,-130 440,-78 56,-78"/>
</g>
<!-- OrganizationPageMetaModule -->
<g id="node1" class="node">
<title>OrganizationPageMetaModule</title>
<polygon fill="#8dd3c7" stroke="#000000" points="432.1092,-122 429.1092,-126 408.1092,-126 405.1092,-122 243.8908,-122 243.8908,-86 432.1092,-86 432.1092,-122"/>
<text text-anchor="middle" x="338" y="-99.8" font-family="Times,serif" font-size="14.00" fill="#000000">OrganizationPageMetaModule</text>
</g>
<!-- AdministrationCoreModule -->
<g id="node3" class="node">
<title>AdministrationCoreModule</title>
<polygon fill="#8dd3c7" stroke="#000000" points="326.5322,-187 323.5322,-191 302.5322,-191 299.5322,-187 155.4678,-187 155.4678,-151 326.5322,-151 326.5322,-187"/>
<text text-anchor="middle" x="241" y="-164.8" font-family="Times,serif" font-size="14.00" fill="#000000">AdministrationCoreModule</text>
</g>
<!-- OrganizationPageMetaModule&#45;&gt;AdministrationCoreModule -->
<g id="edge1" class="edge">
<title>OrganizationPageMetaModule&#45;&gt;AdministrationCoreModule</title>
<path fill="none" stroke="#000000" d="M285.2307,-122.1061C285.2307,-122.1061 285.2307,-140.991 285.2307,-140.991"/>
<polygon fill="#000000" stroke="#000000" points="281.7308,-140.9909 285.2307,-150.991 288.7308,-140.991 281.7308,-140.9909"/>
</g>
<!-- OrganizationStoreModule -->
<g id="node2" class="node">
<title>OrganizationStoreModule</title>
<polygon fill="#8dd3c7" stroke="#000000" points="226.1811,-122 223.1811,-126 202.1811,-126 199.1811,-122 63.8189,-122 63.8189,-86 226.1811,-86 226.1811,-122"/>
<text text-anchor="middle" x="145" y="-99.8" font-family="Times,serif" font-size="14.00" fill="#000000">OrganizationStoreModule</text>
</g>
<!-- OrganizationStoreModule&#45;&gt;AdministrationCoreModule -->
<g id="edge2" class="edge">
<title>OrganizationStoreModule&#45;&gt;AdministrationCoreModule</title>
<path fill="none" stroke="#000000" d="M190.6624,-122.1061C190.6624,-122.1061 190.6624,-140.991 190.6624,-140.991"/>
<polygon fill="#000000" stroke="#000000" points="187.1624,-140.9909 190.6624,-150.991 194.1624,-140.991 187.1624,-140.9909"/>
</g>
</g>
</svg>
