<?xml version="1.0" encoding="UTF-8" standalone="no"?>
<!DOCTYPE svg PUBLIC "-//W3C//DTD SVG 1.1//EN"
 "http://www.w3.org/Graphics/SVG/1.1/DTD/svg11.dtd">
<!-- Generated by graphviz version 2.47.3 (20210619.1520)
 -->
<!-- Title: dependencies Pages: 1 -->
<svg width="282pt" height="174pt"
 viewBox="0.00 0.00 282.00 173.80" xmlns="http://www.w3.org/2000/svg" xmlns:xlink="http://www.w3.org/1999/xlink">
<g id="graph0" class="graph" transform="scale(1 1) rotate(0) translate(4 169.8)">
<title>dependencies</title>
<polygon fill="white" stroke="transparent" points="-4,4 -4,-169.8 278,-169.8 278,4 -4,4"/>
<text text-anchor="middle" x="137" y="-8.2" font-family="sans-serif" font-size="14.00">dependencies</text>
<g id="clust1" class="cluster">
<title>cluster_ProductImageZoomComponentsModule</title>
<polygon fill="none" stroke="black" stroke-dasharray="1,5" points="8,-32.8 8,-157.8 266,-157.8 266,-32.8 8,-32.8"/>
</g>
<g id="clust3" class="cluster">
<title>cluster_ProductImageZoomComponentsModule_imports</title>
<polygon fill="none" stroke="black" points="43,-40.8 43,-92.8 231,-92.8 231,-40.8 43,-40.8"/>
</g>
<!-- ProductImageZoomModule -->
<g id="node1" class="node">
<title>ProductImageZoomModule</title>
<polygon fill="#8dd3c7" stroke="black" points="222.52,-84.8 219.52,-88.8 198.52,-88.8 195.52,-84.8 51.48,-84.8 51.48,-48.8 222.52,-48.8 222.52,-84.8"/>
<text text-anchor="middle" x="137" y="-62.6" font-family="Times,serif" font-size="14.00">ProductImageZoomModule</text>
</g>
<!-- ProductImageZoomComponentsModule -->
<g id="node2" class="node">
<title>ProductImageZoomComponentsModule</title>
<polygon fill="#8dd3c7" stroke="black" points="258.3,-149.8 255.3,-153.8 234.3,-153.8 231.3,-149.8 15.7,-149.8 15.7,-113.8 258.3,-113.8 258.3,-149.8"/>
<text text-anchor="middle" x="137" y="-127.6" font-family="Times,serif" font-size="14.00">ProductImageZoomComponentsModule</text>
</g>
<!-- ProductImageZoomModule&#45;&gt;ProductImageZoomComponentsModule -->
<g id="edge1" class="edge">
<title>ProductImageZoomModule&#45;&gt;ProductImageZoomComponentsModule</title>
<path fill="none" stroke="black" d="M137,-84.91C137,-84.91 137,-103.79 137,-103.79"/>
<polygon fill="black" stroke="black" points="133.5,-103.79 137,-113.79 140.5,-103.79 133.5,-103.79"/>
</g>
</g>
</svg>
