<?xml version="1.0" encoding="UTF-8" standalone="no"?>
<!DOCTYPE svg PUBLIC "-//W3C//DTD SVG 1.1//EN"
 "http://www.w3.org/Graphics/SVG/1.1/DTD/svg11.dtd">
<!-- Generated by graphviz version 2.47.3 (20210619.1520)
 -->
<!-- Title: dependencies Pages: 1 -->
<svg width="253pt" height="247pt"
 viewBox="0.00 0.00 253.00 246.80" xmlns="http://www.w3.org/2000/svg" xmlns:xlink="http://www.w3.org/1999/xlink">
<g id="graph0" class="graph" transform="scale(1 1) rotate(0) translate(4 242.8)">
<title>dependencies</title>
<polygon fill="white" stroke="transparent" points="-4,4 -4,-242.8 249,-242.8 249,4 -4,4"/>
<text text-anchor="middle" x="122.5" y="-8.2" font-family="sans-serif" font-size="14.00">dependencies</text>
<g id="clust1" class="cluster">
<title>cluster_UrlModule</title>
<polygon fill="none" stroke="black" stroke-dasharray="1,5" points="8,-32.8 8,-230.8 237,-230.8 237,-32.8 8,-32.8"/>
</g>
<g id="clust2" class="cluster">
<title>cluster_UrlModule_declarations</title>
<polygon fill="none" stroke="black" points="17,-40.8 17,-92.8 223,-92.8 223,-40.8 17,-40.8"/>
</g>
<g id="clust6" class="cluster">
<title>cluster_UrlModule_exports</title>
<polygon fill="none" stroke="black" points="16,-170.8 16,-222.8 229,-222.8 229,-170.8 16,-170.8"/>
</g>
<!-- ProductURLPipe -->
<g id="node1" class="node">
<title>ProductURLPipe</title>
<polygon fill="#ffffb3" stroke="black" points="215.43,-84.8 102.57,-84.8 102.57,-48.8 215.43,-48.8 215.43,-84.8"/>
<text text-anchor="middle" x="159" y="-62.6" font-family="Times,serif" font-size="14.00">ProductURLPipe</text>
</g>
<!-- UrlModule -->
<g id="node3" class="node">
<title>UrlModule</title>
<polygon fill="#8dd3c7" stroke="black" points="146.21,-149.8 143.21,-153.8 122.21,-153.8 119.21,-149.8 67.79,-149.8 67.79,-113.8 146.21,-113.8 146.21,-149.8"/>
<text text-anchor="middle" x="107" y="-127.6" font-family="Times,serif" font-size="14.00">UrlModule</text>
</g>
<!-- ProductURLPipe&#45;&gt;UrlModule -->
<g id="edge1" class="edge">
<title>ProductURLPipe&#45;&gt;UrlModule</title>
<path fill="none" stroke="black" d="M124.44,-84.91C124.44,-84.91 124.44,-103.79 124.44,-103.79"/>
<polygon fill="black" stroke="black" points="120.94,-103.79 124.44,-113.79 127.94,-103.79 120.94,-103.79"/>
</g>
<!-- UrlPipe -->
<g id="node2" class="node">
<title>UrlPipe</title>
<polygon fill="#ffffb3" stroke="black" points="84.55,-84.8 25.45,-84.8 25.45,-48.8 84.55,-48.8 84.55,-84.8"/>
<text text-anchor="middle" x="55" y="-62.6" font-family="Times,serif" font-size="14.00">UrlPipe</text>
</g>
<!-- UrlPipe&#45;&gt;UrlModule -->
<g id="edge2" class="edge">
<title>UrlPipe&#45;&gt;UrlModule</title>
<path fill="none" stroke="black" d="M76.33,-84.91C76.33,-84.91 76.33,-103.79 76.33,-103.79"/>
<polygon fill="black" stroke="black" points="72.83,-103.79 76.33,-113.79 79.83,-103.79 72.83,-103.79"/>
</g>
<!-- ProductURLPipe  -->
<g id="node4" class="node">
<title>ProductURLPipe </title>
<polygon fill="#fb8072" stroke="black" points="220.93,-214.8 105.07,-214.8 105.07,-178.8 220.93,-178.8 220.93,-214.8"/>
<text text-anchor="middle" x="163" y="-192.6" font-family="Times,serif" font-size="14.00">ProductURLPipe </text>
</g>
<!-- UrlModule&#45;&gt;ProductURLPipe  -->
<g id="edge3" class="edge">
<title>UrlModule&#45;&gt;ProductURLPipe </title>
<path fill="none" stroke="black" stroke-dasharray="5,2" d="M125.57,-149.91C125.57,-149.91 125.57,-168.79 125.57,-168.79"/>
<polygon fill="black" stroke="black" points="122.07,-168.79 125.57,-178.79 129.07,-168.79 122.07,-168.79"/>
</g>
<!-- UrlPipe  -->
<g id="node5" class="node">
<title>UrlPipe </title>
<polygon fill="#fb8072" stroke="black" points="87.55,-214.8 24.45,-214.8 24.45,-178.8 87.55,-178.8 87.55,-214.8"/>
<text text-anchor="middle" x="56" y="-192.6" font-family="Times,serif" font-size="14.00">UrlPipe </text>
</g>
<!-- UrlModule&#45;&gt;UrlPipe  -->
<g id="edge4" class="edge">
<title>UrlModule&#45;&gt;UrlPipe </title>
<path fill="none" stroke="black" stroke-dasharray="5,2" d="M77.71,-149.91C77.71,-149.91 77.71,-168.79 77.71,-168.79"/>
<polygon fill="black" stroke="black" points="74.21,-168.79 77.71,-178.79 81.21,-168.79 74.21,-168.79"/>
</g>
</g>
</svg>
