<?xml version="1.0" encoding="UTF-8" standalone="no"?>
<!DOCTYPE svg PUBLIC "-//W3C//DTD SVG 1.1//EN"
 "http://www.w3.org/Graphics/SVG/1.1/DTD/svg11.dtd">
<!-- Generated by graphviz version 2.44.1 (20200629.0846)
 -->
<!-- Title: dependencies Pages: 1 -->
<svg width="504pt" height="284pt"
 viewBox="0.00 0.00 504.00 284.00" xmlns="http://www.w3.org/2000/svg" xmlns:xlink="http://www.w3.org/1999/xlink">
<g id="graph0" class="graph" transform="scale(1 1) rotate(0) translate(4 280)">
<title>dependencies</title>
<polygon fill="white" stroke="transparent" points="-4,4 -4,-280 500,-280 500,4 -4,4"/>
<text text-anchor="start" x="227.01" y="-42.4" font-family="sans-serif" font-weight="bold" font-size="14.00">Legend</text>
<polygon fill="#ffffb3" stroke="transparent" points="14,-10 14,-30 34,-30 34,-10 14,-10"/>
<text text-anchor="start" x="37.63" y="-15.4" font-family="sans-serif" font-size="14.00"> &#160;Declarations</text>
<polygon fill="#8dd3c7" stroke="transparent" points="127,-10 127,-30 147,-30 147,-10 127,-10"/>
<text text-anchor="start" x="150.73" y="-15.4" font-family="sans-serif" font-size="14.00"> &#160;Module</text>
<polygon fill="#80b1d3" stroke="transparent" points="213,-10 213,-30 233,-30 233,-10 213,-10"/>
<text text-anchor="start" x="236.78" y="-15.4" font-family="sans-serif" font-size="14.00"> &#160;Bootstrap</text>
<polygon fill="#fdb462" stroke="transparent" points="310,-10 310,-30 330,-30 330,-10 310,-10"/>
<text text-anchor="start" x="333.67" y="-15.4" font-family="sans-serif" font-size="14.00"> &#160;Providers</text>
<polygon fill="#fb8072" stroke="transparent" points="406,-10 406,-30 426,-30 426,-10 406,-10"/>
<text text-anchor="start" x="429.73" y="-15.4" font-family="sans-serif" font-size="14.00"> &#160;Exports</text>
<g id="clust1" class="cluster">
<title>cluster_UrlModule</title>
<polygon fill="none" stroke="black" stroke-dasharray="1,5" points="133.5,-70 133.5,-268 362.5,-268 362.5,-70 133.5,-70"/>
</g>
<g id="clust2" class="cluster">
<title>cluster_UrlModule_declarations</title>
<polygon fill="none" stroke="black" points="142.5,-78 142.5,-130 348.5,-130 348.5,-78 142.5,-78"/>
</g>
<g id="clust6" class="cluster">
<title>cluster_UrlModule_exports</title>
<polygon fill="none" stroke="black" points="141.5,-208 141.5,-260 354.5,-260 354.5,-208 141.5,-208"/>
</g>
<!-- ProductURLPipe -->
<g id="node1" class="node">
<title>ProductURLPipe</title>
<polygon fill="#ffffb3" stroke="black" points="340.93,-122 228.07,-122 228.07,-86 340.93,-86 340.93,-122"/>
<text text-anchor="middle" x="284.5" y="-99.8" font-family="Times,serif" font-size="14.00">ProductURLPipe</text>
</g>
<!-- UrlModule -->
<g id="node3" class="node">
<title>UrlModule</title>
<polygon fill="#8dd3c7" stroke="black" points="271.71,-187 268.71,-191 247.71,-191 244.71,-187 193.29,-187 193.29,-151 271.71,-151 271.71,-187"/>
<text text-anchor="middle" x="232.5" y="-164.8" font-family="Times,serif" font-size="14.00">UrlModule</text>
</g>
<!-- ProductURLPipe&#45;&gt;UrlModule -->
<g id="edge1" class="edge">
<title>ProductURLPipe&#45;&gt;UrlModule</title>
<path fill="none" stroke="black" d="M249.94,-122.11C249.94,-122.11 249.94,-140.99 249.94,-140.99"/>
<polygon fill="black" stroke="black" points="246.44,-140.99 249.94,-150.99 253.44,-140.99 246.44,-140.99"/>
</g>
<!-- UrlPipe -->
<g id="node2" class="node">
<title>UrlPipe</title>
<polygon fill="#ffffb3" stroke="black" points="210.05,-122 150.95,-122 150.95,-86 210.05,-86 210.05,-122"/>
<text text-anchor="middle" x="180.5" y="-99.8" font-family="Times,serif" font-size="14.00">UrlPipe</text>
</g>
<!-- UrlPipe&#45;&gt;UrlModule -->
<g id="edge2" class="edge">
<title>UrlPipe&#45;&gt;UrlModule</title>
<path fill="none" stroke="black" d="M201.83,-122.11C201.83,-122.11 201.83,-140.99 201.83,-140.99"/>
<polygon fill="black" stroke="black" points="198.33,-140.99 201.83,-150.99 205.33,-140.99 198.33,-140.99"/>
</g>
<!-- ProductURLPipe  -->
<g id="node4" class="node">
<title>ProductURLPipe </title>
<polygon fill="#fb8072" stroke="black" points="346.43,-252 230.57,-252 230.57,-216 346.43,-216 346.43,-252"/>
<text text-anchor="middle" x="288.5" y="-229.8" font-family="Times,serif" font-size="14.00">ProductURLPipe </text>
</g>
<!-- UrlModule&#45;&gt;ProductURLPipe  -->
<g id="edge3" class="edge">
<title>UrlModule&#45;&gt;ProductURLPipe </title>
<path fill="none" stroke="black" stroke-dasharray="5,2" d="M251.07,-187.11C251.07,-187.11 251.07,-205.99 251.07,-205.99"/>
<polygon fill="black" stroke="black" points="247.57,-205.99 251.07,-215.99 254.57,-205.99 247.57,-205.99"/>
</g>
<!-- UrlPipe  -->
<g id="node5" class="node">
<title>UrlPipe </title>
<polygon fill="#fb8072" stroke="black" points="213.05,-252 149.95,-252 149.95,-216 213.05,-216 213.05,-252"/>
<text text-anchor="middle" x="181.5" y="-229.8" font-family="Times,serif" font-size="14.00">UrlPipe </text>
</g>
<!-- UrlModule&#45;&gt;UrlPipe  -->
<g id="edge4" class="edge">
<title>UrlModule&#45;&gt;UrlPipe </title>
<path fill="none" stroke="black" stroke-dasharray="5,2" d="M203.21,-187.11C203.21,-187.11 203.21,-205.99 203.21,-205.99"/>
<polygon fill="black" stroke="black" points="199.71,-205.99 203.21,-215.99 206.71,-205.99 199.71,-205.99"/>
</g>
</g>
</svg>
