<?xml version="1.0" encoding="UTF-8" standalone="no"?>
<!DOCTYPE svg PUBLIC "-//W3C//DTD SVG 1.1//EN"
 "http://www.w3.org/Graphics/SVG/1.1/DTD/svg11.dtd">
<!-- Generated by graphviz version 2.47.0 (20210316.0004)
 -->
<!-- Title: dependencies Pages: 1 -->
<svg width="706pt" height="284pt"
 viewBox="0.00 0.00 706.00 284.00" xmlns="http://www.w3.org/2000/svg" xmlns:xlink="http://www.w3.org/1999/xlink">
<g id="graph0" class="graph" transform="scale(1 1) rotate(0) translate(4 280)">
<title>dependencies</title>
<polygon fill="white" stroke="transparent" points="-4,4 -4,-280 702,-280 702,4 -4,4"/>
<text text-anchor="start" x="328.01" y="-42.4" font-family="sans-serif" font-weight="bold" font-size="14.00">Legend</text>
<polygon fill="#ffffb3" stroke="transparent" points="115,-10 115,-30 135,-30 135,-10 115,-10"/>
<text text-anchor="start" x="138.63" y="-15.4" font-family="sans-serif" font-size="14.00"> &#160;Declarations</text>
<polygon fill="#8dd3c7" stroke="transparent" points="228,-10 228,-30 248,-30 248,-10 228,-10"/>
<text text-anchor="start" x="251.73" y="-15.4" font-family="sans-serif" font-size="14.00"> &#160;Module</text>
<polygon fill="#80b1d3" stroke="transparent" points="314,-10 314,-30 334,-30 334,-10 314,-10"/>
<text text-anchor="start" x="337.78" y="-15.4" font-family="sans-serif" font-size="14.00"> &#160;Bootstrap</text>
<polygon fill="#fdb462" stroke="transparent" points="411,-10 411,-30 431,-30 431,-10 411,-10"/>
<text text-anchor="start" x="434.67" y="-15.4" font-family="sans-serif" font-size="14.00"> &#160;Providers</text>
<polygon fill="#fb8072" stroke="transparent" points="507,-10 507,-30 527,-30 527,-10 507,-10"/>
<text text-anchor="start" x="530.73" y="-15.4" font-family="sans-serif" font-size="14.00"> &#160;Exports</text>
<g id="clust1" class="cluster">
<title>cluster_SavedCartListModule</title>
<polygon fill="none" stroke="black" stroke-dasharray="1,5" points="8,-70 8,-268 690,-268 690,-70 8,-70"/>
</g>
<g id="clust2" class="cluster">
<title>cluster_SavedCartListModule_declarations</title>
<polygon fill="none" stroke="black" points="504,-78 504,-130 682,-130 682,-78 504,-78"/>
</g>
<g id="clust5" class="cluster">
<title>cluster_SavedCartListModule_exports</title>
<polygon fill="none" stroke="black" points="223,-208 223,-260 403,-260 403,-208 223,-208"/>
</g>
<g id="clust4" class="cluster">
<title>cluster_SavedCartListModule_imports</title>
<polygon fill="none" stroke="black" points="16,-78 16,-130 496,-130 496,-78 16,-78"/>
</g>
<!-- SavedCartListComponent -->
<g id="node1" class="node">
<title>SavedCartListComponent</title>
<polygon fill="#ffffb3" stroke="black" points="673.93,-122 512.07,-122 512.07,-86 673.93,-86 673.93,-122"/>
<text text-anchor="middle" x="593" y="-99.8" font-family="Times,serif" font-size="14.00">SavedCartListComponent</text>
</g>
<!-- SavedCartListModule -->
<g id="node2" class="node">
<title>SavedCartListModule</title>
<polygon fill="#8dd3c7" stroke="black" points="382.64,-187 379.64,-191 358.64,-191 355.64,-187 243.36,-187 243.36,-151 382.64,-151 382.64,-187"/>
<text text-anchor="middle" x="313" y="-164.8" font-family="Times,serif" font-size="14.00">SavedCartListModule</text>
</g>
<!-- SavedCartListComponent&#45;&gt;SavedCartListModule -->
<g id="edge1" class="edge">
<title>SavedCartListComponent&#45;&gt;SavedCartListModule</title>
<path fill="none" stroke="black" d="M593,-122.28C593,-143.32 593,-175 593,-175 593,-175 392.93,-175 392.93,-175"/>
<polygon fill="black" stroke="black" points="392.93,-171.5 382.93,-175 392.93,-178.5 392.93,-171.5"/>
</g>
<!-- SavedCartListComponent  -->
<g id="node7" class="node">
<title>SavedCartListComponent </title>
<polygon fill="#fb8072" stroke="black" points="395.43,-252 230.57,-252 230.57,-216 395.43,-216 395.43,-252"/>
<text text-anchor="middle" x="313" y="-229.8" font-family="Times,serif" font-size="14.00">SavedCartListComponent </text>
</g>
<!-- SavedCartListModule&#45;&gt;SavedCartListComponent  -->
<g id="edge6" class="edge">
<title>SavedCartListModule&#45;&gt;SavedCartListComponent </title>
<path fill="none" stroke="black" stroke-dasharray="5,2" d="M313,-187.11C313,-187.11 313,-205.99 313,-205.99"/>
<polygon fill="black" stroke="black" points="309.5,-205.99 313,-215.99 316.5,-205.99 309.5,-205.99"/>
</g>
<!-- I18nModule -->
<g id="node3" class="node">
<title>I18nModule</title>
<polygon fill="#8dd3c7" stroke="black" points="487.71,-122 484.71,-126 463.71,-126 460.71,-122 402.29,-122 402.29,-86 487.71,-86 487.71,-122"/>
<text text-anchor="middle" x="445" y="-99.8" font-family="Times,serif" font-size="14.00">I18nModule</text>
</g>
<!-- I18nModule&#45;&gt;SavedCartListModule -->
<g id="edge2" class="edge">
<title>I18nModule&#45;&gt;SavedCartListModule</title>
<path fill="none" stroke="black" d="M445,-122.02C445,-139.37 445,-163 445,-163 445,-163 392.87,-163 392.87,-163"/>
<polygon fill="black" stroke="black" points="392.87,-159.5 382.87,-163 392.87,-166.5 392.87,-159.5"/>
</g>
<!-- ListNavigationModule -->
<g id="node4" class="node">
<title>ListNavigationModule</title>
<polygon fill="#8dd3c7" stroke="black" points="384.54,-122 381.54,-126 360.54,-126 357.54,-122 241.46,-122 241.46,-86 384.54,-86 384.54,-122"/>
<text text-anchor="middle" x="313" y="-99.8" font-family="Times,serif" font-size="14.00">ListNavigationModule</text>
</g>
<!-- ListNavigationModule&#45;&gt;SavedCartListModule -->
<g id="edge3" class="edge">
<title>ListNavigationModule&#45;&gt;SavedCartListModule</title>
<path fill="none" stroke="black" d="M313,-122.11C313,-122.11 313,-140.99 313,-140.99"/>
<polygon fill="black" stroke="black" points="309.5,-140.99 313,-150.99 316.5,-140.99 309.5,-140.99"/>
</g>
<!-- SpinnerModule -->
<g id="node5" class="node">
<title>SpinnerModule</title>
<polygon fill="#8dd3c7" stroke="black" points="223.6,-122 220.6,-126 199.6,-126 196.6,-122 120.4,-122 120.4,-86 223.6,-86 223.6,-122"/>
<text text-anchor="middle" x="172" y="-99.8" font-family="Times,serif" font-size="14.00">SpinnerModule</text>
</g>
<!-- SpinnerModule&#45;&gt;SavedCartListModule -->
<g id="edge4" class="edge">
<title>SpinnerModule&#45;&gt;SavedCartListModule</title>
<path fill="none" stroke="black" d="M172,-122.02C172,-139.37 172,-163 172,-163 172,-163 233.33,-163 233.33,-163"/>
<polygon fill="black" stroke="black" points="233.33,-166.5 243.33,-163 233.33,-159.5 233.33,-166.5"/>
</g>
<!-- UrlModule -->
<g id="node6" class="node">
<title>UrlModule</title>
<polygon fill="#8dd3c7" stroke="black" points="102.21,-122 99.21,-126 78.21,-126 75.21,-122 23.79,-122 23.79,-86 102.21,-86 102.21,-122"/>
<text text-anchor="middle" x="63" y="-99.8" font-family="Times,serif" font-size="14.00">UrlModule</text>
</g>
<!-- UrlModule&#45;&gt;SavedCartListModule -->
<g id="edge5" class="edge">
<title>UrlModule&#45;&gt;SavedCartListModule</title>
<path fill="none" stroke="black" d="M63,-122.28C63,-143.32 63,-175 63,-175 63,-175 233.03,-175 233.03,-175"/>
<polygon fill="black" stroke="black" points="233.03,-178.5 243.03,-175 233.03,-171.5 233.03,-178.5"/>
</g>
</g>
</svg>
