<?xml version="1.0" encoding="UTF-8" standalone="no"?>
<!DOCTYPE svg PUBLIC "-//W3C//DTD SVG 1.1//EN"
 "http://www.w3.org/Graphics/SVG/1.1/DTD/svg11.dtd">
<!-- Generated by graphviz version 2.40.1 (20161225.0304)
 -->
<!-- Title: dependencies Pages: 1 -->
<svg width="706pt" height="284pt"
 viewBox="0.00 0.00 706.00 284.00" xmlns="http://www.w3.org/2000/svg" xmlns:xlink="http://www.w3.org/1999/xlink">
<g id="graph0" class="graph" transform="scale(1 1) rotate(0) translate(4 280)">
<title>dependencies</title>
<polygon fill="#ffffff" stroke="transparent" points="-4,4 -4,-280 702,-280 702,4 -4,4"/>
<text text-anchor="start" x="328.0091" y="-42.4" font-family="sans-serif" font-weight="bold" font-size="14.00" fill="#000000">Legend</text>
<polygon fill="#ffffb3" stroke="transparent" points="115,-10 115,-30 135,-30 135,-10 115,-10"/>
<text text-anchor="start" x="138.629" y="-15.4" font-family="sans-serif" font-size="14.00" fill="#000000"> &#160;Declarations</text>
<polygon fill="#8dd3c7" stroke="transparent" points="228,-10 228,-30 248,-30 248,-10 228,-10"/>
<text text-anchor="start" x="251.7251" y="-15.4" font-family="sans-serif" font-size="14.00" fill="#000000"> &#160;Module</text>
<polygon fill="#80b1d3" stroke="transparent" points="314,-10 314,-30 334,-30 334,-10 314,-10"/>
<text text-anchor="start" x="337.7812" y="-15.4" font-family="sans-serif" font-size="14.00" fill="#000000"> &#160;Bootstrap</text>
<polygon fill="#fdb462" stroke="transparent" points="411,-10 411,-30 431,-30 431,-10 411,-10"/>
<text text-anchor="start" x="434.6732" y="-15.4" font-family="sans-serif" font-size="14.00" fill="#000000"> &#160;Providers</text>
<polygon fill="#fb8072" stroke="transparent" points="507,-10 507,-30 527,-30 527,-10 507,-10"/>
<text text-anchor="start" x="530.7258" y="-15.4" font-family="sans-serif" font-size="14.00" fill="#000000"> &#160;Exports</text>
<g id="clust1" class="cluster">
<title>cluster_SavedCartListModule</title>
<polygon fill="none" stroke="#000000" stroke-dasharray="1,5" points="8,-70 8,-268 690,-268 690,-70 8,-70"/>
</g>
<g id="clust2" class="cluster">
<title>cluster_SavedCartListModule_declarations</title>
<polygon fill="none" stroke="#000000" points="504,-78 504,-130 682,-130 682,-78 504,-78"/>
</g>
<g id="clust4" class="cluster">
<title>cluster_SavedCartListModule_imports</title>
<polygon fill="none" stroke="#000000" points="16,-78 16,-130 496,-130 496,-78 16,-78"/>
</g>
<g id="clust5" class="cluster">
<title>cluster_SavedCartListModule_exports</title>
<polygon fill="none" stroke="#000000" points="223,-208 223,-260 403,-260 403,-208 223,-208"/>
</g>
<!-- SavedCartListComponent -->
<g id="node1" class="node">
<title>SavedCartListComponent</title>
<polygon fill="#ffffb3" stroke="#000000" points="673.9256,-122 512.0744,-122 512.0744,-86 673.9256,-86 673.9256,-122"/>
<text text-anchor="middle" x="593" y="-99.8" font-family="Times,serif" font-size="14.00" fill="#000000">SavedCartListComponent</text>
</g>
<!-- SavedCartListModule -->
<g id="node2" class="node">
<title>SavedCartListModule</title>
<polygon fill="#8dd3c7" stroke="#000000" points="382.6429,-187 379.6429,-191 358.6429,-191 355.6429,-187 243.3571,-187 243.3571,-151 382.6429,-151 382.6429,-187"/>
<text text-anchor="middle" x="313" y="-164.8" font-family="Times,serif" font-size="14.00" fill="#000000">SavedCartListModule</text>
</g>
<!-- SavedCartListComponent&#45;&gt;SavedCartListModule -->
<g id="edge1" class="edge">
<title>SavedCartListComponent&#45;&gt;SavedCartListModule</title>
<path fill="none" stroke="#000000" d="M593,-122.2843C593,-143.3211 593,-175 593,-175 593,-175 392.9335,-175 392.9335,-175"/>
<polygon fill="#000000" stroke="#000000" points="392.9336,-171.5001 382.9335,-175 392.9335,-178.5001 392.9336,-171.5001"/>
</g>
<!-- SavedCartListComponent  -->
<g id="node7" class="node">
<title>SavedCartListComponent </title>
<polygon fill="#fb8072" stroke="#000000" points="395.425,-252 230.575,-252 230.575,-216 395.425,-216 395.425,-252"/>
<text text-anchor="middle" x="313" y="-229.8" font-family="Times,serif" font-size="14.00" fill="#000000">SavedCartListComponent </text>
</g>
<!-- SavedCartListModule&#45;&gt;SavedCartListComponent  -->
<g id="edge6" class="edge">
<title>SavedCartListModule&#45;&gt;SavedCartListComponent </title>
<path fill="none" stroke="#000000" stroke-dasharray="5,2" d="M313,-187.1061C313,-187.1061 313,-205.991 313,-205.991"/>
<polygon fill="#000000" stroke="#000000" points="309.5001,-205.9909 313,-215.991 316.5001,-205.991 309.5001,-205.9909"/>
</g>
<!-- I18nModule -->
<g id="node3" class="node">
<title>I18nModule</title>
<polygon fill="#8dd3c7" stroke="#000000" points="487.7107,-122 484.7107,-126 463.7107,-126 460.7107,-122 402.2893,-122 402.2893,-86 487.7107,-86 487.7107,-122"/>
<text text-anchor="middle" x="445" y="-99.8" font-family="Times,serif" font-size="14.00" fill="#000000">I18nModule</text>
</g>
<!-- I18nModule&#45;&gt;SavedCartListModule -->
<g id="edge2" class="edge">
<title>I18nModule&#45;&gt;SavedCartListModule</title>
<path fill="none" stroke="#000000" d="M445,-122.0225C445,-139.3734 445,-163 445,-163 445,-163 392.8652,-163 392.8652,-163"/>
<polygon fill="#000000" stroke="#000000" points="392.8653,-159.5001 382.8652,-163 392.8652,-166.5001 392.8653,-159.5001"/>
</g>
<!-- ListNavigationModule -->
<g id="node4" class="node">
<title>ListNavigationModule</title>
<polygon fill="#8dd3c7" stroke="#000000" points="384.5365,-122 381.5365,-126 360.5365,-126 357.5365,-122 241.4635,-122 241.4635,-86 384.5365,-86 384.5365,-122"/>
<text text-anchor="middle" x="313" y="-99.8" font-family="Times,serif" font-size="14.00" fill="#000000">ListNavigationModule</text>
</g>
<!-- ListNavigationModule&#45;&gt;SavedCartListModule -->
<g id="edge3" class="edge">
<title>ListNavigationModule&#45;&gt;SavedCartListModule</title>
<path fill="none" stroke="#000000" d="M313,-122.1061C313,-122.1061 313,-140.991 313,-140.991"/>
<polygon fill="#000000" stroke="#000000" points="309.5001,-140.9909 313,-150.991 316.5001,-140.991 309.5001,-140.9909"/>
</g>
<!-- SpinnerModule -->
<g id="node5" class="node">
<title>SpinnerModule</title>
<polygon fill="#8dd3c7" stroke="#000000" points="223.5982,-122 220.5982,-126 199.5982,-126 196.5982,-122 120.4018,-122 120.4018,-86 223.5982,-86 223.5982,-122"/>
<text text-anchor="middle" x="172" y="-99.8" font-family="Times,serif" font-size="14.00" fill="#000000">SpinnerModule</text>
</g>
<!-- SpinnerModule&#45;&gt;SavedCartListModule -->
<g id="edge4" class="edge">
<title>SpinnerModule&#45;&gt;SavedCartListModule</title>
<path fill="none" stroke="#000000" d="M172,-122.0225C172,-139.3734 172,-163 172,-163 172,-163 233.3262,-163 233.3262,-163"/>
<polygon fill="#000000" stroke="#000000" points="233.3262,-166.5001 243.3262,-163 233.3261,-159.5001 233.3262,-166.5001"/>
</g>
<!-- UrlModule -->
<g id="node6" class="node">
<title>UrlModule</title>
<polygon fill="#8dd3c7" stroke="#000000" points="102.2079,-122 99.2079,-126 78.2079,-126 75.2079,-122 23.7921,-122 23.7921,-86 102.2079,-86 102.2079,-122"/>
<text text-anchor="middle" x="63" y="-99.8" font-family="Times,serif" font-size="14.00" fill="#000000">UrlModule</text>
</g>
<!-- UrlModule&#45;&gt;SavedCartListModule -->
<g id="edge5" class="edge">
<title>UrlModule&#45;&gt;SavedCartListModule</title>
<path fill="none" stroke="#000000" d="M63,-122.2843C63,-143.3211 63,-175 63,-175 63,-175 233.0286,-175 233.0286,-175"/>
<polygon fill="#000000" stroke="#000000" points="233.0287,-178.5001 243.0286,-175 233.0286,-171.5001 233.0287,-178.5001"/>
</g>
</g>
</svg>
