<?xml version="1.0" encoding="UTF-8" standalone="no"?>
<!DOCTYPE svg PUBLIC "-//W3C//DTD SVG 1.1//EN"
 "http://www.w3.org/Graphics/SVG/1.1/DTD/svg11.dtd">
<!-- Generated by graphviz version 2.47.3 (20210619.1520)
 -->
<!-- Title: dependencies Pages: 1 -->
<svg width="444pt" height="247pt"
 viewBox="0.00 0.00 444.00 246.80" xmlns="http://www.w3.org/2000/svg" xmlns:xlink="http://www.w3.org/1999/xlink">
<g id="graph0" class="graph" transform="scale(1 1) rotate(0) translate(4 242.8)">
<title>dependencies</title>
<polygon fill="white" stroke="transparent" points="-4,4 -4,-242.8 440,-242.8 440,4 -4,4"/>
<text text-anchor="middle" x="218" y="-8.2" font-family="sans-serif" font-size="14.00">dependencies</text>
<g id="clust1" class="cluster">
<title>cluster_VariantStyleIconsModule</title>
<polygon fill="none" stroke="black" stroke-dasharray="1,5" points="8,-32.8 8,-230.8 428,-230.8 428,-32.8 8,-32.8"/>
</g>
<g id="clust2" class="cluster">
<title>cluster_VariantStyleIconsModule_declarations</title>
<polygon fill="none" stroke="black" points="222,-40.8 222,-92.8 420,-92.8 420,-40.8 222,-40.8"/>
</g>
<g id="clust5" class="cluster">
<title>cluster_VariantStyleIconsModule_exports</title>
<polygon fill="none" stroke="black" points="62,-170.8 62,-222.8 264,-222.8 264,-170.8 62,-170.8"/>
</g>
<g id="clust4" class="cluster">
<title>cluster_VariantStyleIconsModule_imports</title>
<polygon fill="none" stroke="black" points="16,-40.8 16,-92.8 214,-92.8 214,-40.8 16,-40.8"/>
</g>
<!-- VariantStyleIconsComponent -->
<g id="node1" class="node">
<title>VariantStyleIconsComponent</title>
<polygon fill="#ffffb3" stroke="black" points="412.41,-84.8 229.59,-84.8 229.59,-48.8 412.41,-48.8 412.41,-84.8"/>
<text text-anchor="middle" x="321" y="-62.6" font-family="Times,serif" font-size="14.00">VariantStyleIconsComponent</text>
</g>
<!-- VariantStyleIconsModule -->
<g id="node2" class="node">
<title>VariantStyleIconsModule</title>
<polygon fill="#8dd3c7" stroke="black" points="243.13,-149.8 240.13,-153.8 219.13,-153.8 216.13,-149.8 82.87,-149.8 82.87,-113.8 243.13,-113.8 243.13,-149.8"/>
<text text-anchor="middle" x="163" y="-127.6" font-family="Times,serif" font-size="14.00">VariantStyleIconsModule</text>
</g>
<!-- VariantStyleIconsComponent&#45;&gt;VariantStyleIconsModule -->
<g id="edge1" class="edge">
<title>VariantStyleIconsComponent&#45;&gt;VariantStyleIconsModule</title>
<path fill="none" stroke="black" d="M236.55,-84.91C236.55,-84.91 236.55,-103.79 236.55,-103.79"/>
<polygon fill="black" stroke="black" points="233.05,-103.79 236.55,-113.79 240.05,-103.79 233.05,-103.79"/>
</g>
<!-- VariantStyleIconsComponent  -->
<g id="node5" class="node">
<title>VariantStyleIconsComponent </title>
<polygon fill="#fb8072" stroke="black" points="255.91,-214.8 70.09,-214.8 70.09,-178.8 255.91,-178.8 255.91,-214.8"/>
<text text-anchor="middle" x="163" y="-192.6" font-family="Times,serif" font-size="14.00">VariantStyleIconsComponent </text>
</g>
<!-- VariantStyleIconsModule&#45;&gt;VariantStyleIconsComponent  -->
<g id="edge4" class="edge">
<title>VariantStyleIconsModule&#45;&gt;VariantStyleIconsComponent </title>
<path fill="none" stroke="black" stroke-dasharray="5,2" d="M163,-149.91C163,-149.91 163,-168.79 163,-168.79"/>
<polygon fill="black" stroke="black" points="159.5,-168.79 163,-178.79 166.5,-168.79 159.5,-168.79"/>
</g>
<!-- I18nModule -->
<g id="node3" class="node">
<title>I18nModule</title>
<polygon fill="#8dd3c7" stroke="black" points="205.71,-84.8 202.71,-88.8 181.71,-88.8 178.71,-84.8 120.29,-84.8 120.29,-48.8 205.71,-48.8 205.71,-84.8"/>
<text text-anchor="middle" x="163" y="-62.6" font-family="Times,serif" font-size="14.00">I18nModule</text>
</g>
<!-- I18nModule&#45;&gt;VariantStyleIconsModule -->
<g id="edge2" class="edge">
<title>I18nModule&#45;&gt;VariantStyleIconsModule</title>
<path fill="none" stroke="black" d="M163,-84.91C163,-84.91 163,-103.79 163,-103.79"/>
<polygon fill="black" stroke="black" points="159.5,-103.79 163,-113.79 166.5,-103.79 159.5,-103.79"/>
</g>
<!-- UrlModule -->
<g id="node4" class="node">
<title>UrlModule</title>
<polygon fill="#8dd3c7" stroke="black" points="102.21,-84.8 99.21,-88.8 78.21,-88.8 75.21,-84.8 23.79,-84.8 23.79,-48.8 102.21,-48.8 102.21,-84.8"/>
<text text-anchor="middle" x="63" y="-62.6" font-family="Times,serif" font-size="14.00">UrlModule</text>
</g>
<!-- UrlModule&#45;&gt;VariantStyleIconsModule -->
<g id="edge3" class="edge">
<title>UrlModule&#45;&gt;VariantStyleIconsModule</title>
<path fill="none" stroke="black" d="M92.4,-84.91C92.4,-84.91 92.4,-103.79 92.4,-103.79"/>
<polygon fill="black" stroke="black" points="88.9,-103.79 92.4,-113.79 95.9,-103.79 88.9,-103.79"/>
</g>
</g>
</svg>
