<?xml version="1.0" encoding="UTF-8" standalone="no"?>
<!DOCTYPE svg PUBLIC "-//W3C//DTD SVG 1.1//EN"
 "http://www.w3.org/Graphics/SVG/1.1/DTD/svg11.dtd">
<!-- Generated by graphviz version 2.46.0 (20210119.1425)
 -->
<!-- Title: dependencies Pages: 1 -->
<svg width="504pt" height="284pt"
 viewBox="0.00 0.00 504.00 284.00" xmlns="http://www.w3.org/2000/svg" xmlns:xlink="http://www.w3.org/1999/xlink">
<g id="graph0" class="graph" transform="scale(1 1) rotate(0) translate(4 280)">
<title>dependencies</title>
<polygon fill="white" stroke="transparent" points="-4,4 -4,-280 500,-280 500,4 -4,4"/>
<text text-anchor="start" x="227.01" y="-42.4" font-family="sans-serif" font-weight="bold" font-size="14.00">Legend</text>
<polygon fill="#ffffb3" stroke="transparent" points="14,-10 14,-30 34,-30 34,-10 14,-10"/>
<text text-anchor="start" x="37.63" y="-15.4" font-family="sans-serif" font-size="14.00"> &#160;Declarations</text>
<polygon fill="#8dd3c7" stroke="transparent" points="127,-10 127,-30 147,-30 147,-10 127,-10"/>
<text text-anchor="start" x="150.73" y="-15.4" font-family="sans-serif" font-size="14.00"> &#160;Module</text>
<polygon fill="#80b1d3" stroke="transparent" points="213,-10 213,-30 233,-30 233,-10 213,-10"/>
<text text-anchor="start" x="236.78" y="-15.4" font-family="sans-serif" font-size="14.00"> &#160;Bootstrap</text>
<polygon fill="#fdb462" stroke="transparent" points="310,-10 310,-30 330,-30 330,-10 310,-10"/>
<text text-anchor="start" x="333.67" y="-15.4" font-family="sans-serif" font-size="14.00"> &#160;Providers</text>
<polygon fill="#fb8072" stroke="transparent" points="406,-10 406,-30 426,-30 426,-10 406,-10"/>
<text text-anchor="start" x="429.73" y="-15.4" font-family="sans-serif" font-size="14.00"> &#160;Exports</text>
<g id="clust1" class="cluster">
<title>cluster_VariantStyleIconsModule</title>
<polygon fill="none" stroke="black" stroke-dasharray="1,5" points="38,-70 38,-268 458,-268 458,-70 38,-70"/>
</g>
<g id="clust4" class="cluster">
<title>cluster_VariantStyleIconsModule_imports</title>
<polygon fill="none" stroke="black" points="252,-78 252,-130 450,-130 450,-78 252,-78"/>
</g>
<g id="clust5" class="cluster">
<title>cluster_VariantStyleIconsModule_exports</title>
<polygon fill="none" stroke="black" points="198,-208 198,-260 400,-260 400,-208 198,-208"/>
</g>
<g id="clust2" class="cluster">
<title>cluster_VariantStyleIconsModule_declarations</title>
<polygon fill="none" stroke="black" points="46,-78 46,-130 244,-130 244,-78 46,-78"/>
</g>
<!-- VariantStyleIconsComponent -->
<g id="node1" class="node">
<title>VariantStyleIconsComponent</title>
<polygon fill="#ffffb3" stroke="black" points="236.41,-122 53.59,-122 53.59,-86 236.41,-86 236.41,-122"/>
<text text-anchor="middle" x="145" y="-99.8" font-family="Times,serif" font-size="14.00">VariantStyleIconsComponent</text>
</g>
<!-- VariantStyleIconsModule -->
<g id="node2" class="node">
<title>VariantStyleIconsModule</title>
<polygon fill="#8dd3c7" stroke="black" points="379.13,-187 376.13,-191 355.13,-191 352.13,-187 218.87,-187 218.87,-151 379.13,-151 379.13,-187"/>
<text text-anchor="middle" x="299" y="-164.8" font-family="Times,serif" font-size="14.00">VariantStyleIconsModule</text>
</g>
<!-- VariantStyleIconsComponent&#45;&gt;VariantStyleIconsModule -->
<g id="edge1" class="edge">
<title>VariantStyleIconsComponent&#45;&gt;VariantStyleIconsModule</title>
<path fill="none" stroke="black" d="M227.45,-122.11C227.45,-122.11 227.45,-140.99 227.45,-140.99"/>
<polygon fill="black" stroke="black" points="223.95,-140.99 227.45,-150.99 230.95,-140.99 223.95,-140.99"/>
</g>
<!-- VariantStyleIconsComponent  -->
<g id="node5" class="node">
<title>VariantStyleIconsComponent </title>
<polygon fill="#fb8072" stroke="black" points="391.91,-252 206.09,-252 206.09,-216 391.91,-216 391.91,-252"/>
<text text-anchor="middle" x="299" y="-229.8" font-family="Times,serif" font-size="14.00">VariantStyleIconsComponent </text>
</g>
<!-- VariantStyleIconsModule&#45;&gt;VariantStyleIconsComponent  -->
<g id="edge4" class="edge">
<title>VariantStyleIconsModule&#45;&gt;VariantStyleIconsComponent </title>
<path fill="none" stroke="black" stroke-dasharray="5,2" d="M299,-187.11C299,-187.11 299,-205.99 299,-205.99"/>
<polygon fill="black" stroke="black" points="295.5,-205.99 299,-215.99 302.5,-205.99 295.5,-205.99"/>
</g>
<!-- I18nModule -->
<g id="node3" class="node">
<title>I18nModule</title>
<polygon fill="#8dd3c7" stroke="black" points="441.71,-122 438.71,-126 417.71,-126 414.71,-122 356.29,-122 356.29,-86 441.71,-86 441.71,-122"/>
<text text-anchor="middle" x="399" y="-99.8" font-family="Times,serif" font-size="14.00">I18nModule</text>
</g>
<!-- I18nModule&#45;&gt;VariantStyleIconsModule -->
<g id="edge2" class="edge">
<title>I18nModule&#45;&gt;VariantStyleIconsModule</title>
<path fill="none" stroke="black" d="M367.85,-122.11C367.85,-122.11 367.85,-140.99 367.85,-140.99"/>
<polygon fill="black" stroke="black" points="364.35,-140.99 367.85,-150.99 371.35,-140.99 364.35,-140.99"/>
</g>
<!-- UrlModule -->
<g id="node4" class="node">
<title>UrlModule</title>
<polygon fill="#8dd3c7" stroke="black" points="338.21,-122 335.21,-126 314.21,-126 311.21,-122 259.79,-122 259.79,-86 338.21,-86 338.21,-122"/>
<text text-anchor="middle" x="299" y="-99.8" font-family="Times,serif" font-size="14.00">UrlModule</text>
</g>
<!-- UrlModule&#45;&gt;VariantStyleIconsModule -->
<g id="edge3" class="edge">
<title>UrlModule&#45;&gt;VariantStyleIconsModule</title>
<path fill="none" stroke="black" d="M299,-122.11C299,-122.11 299,-140.99 299,-140.99"/>
<polygon fill="black" stroke="black" points="295.5,-140.99 299,-150.99 302.5,-140.99 295.5,-140.99"/>
</g>
</g>
</svg>
