<?xml version="1.0" encoding="UTF-8" standalone="no"?>
<!DOCTYPE svg PUBLIC "-//W3C//DTD SVG 1.1//EN"
 "http://www.w3.org/Graphics/SVG/1.1/DTD/svg11.dtd">
<!-- Generated by graphviz version 2.40.1 (20161225.0304)
 -->
<!-- Title: dependencies Pages: 1 -->
<svg width="517pt" height="211pt"
 viewBox="0.00 0.00 517.00 211.00" xmlns="http://www.w3.org/2000/svg" xmlns:xlink="http://www.w3.org/1999/xlink">
<g id="graph0" class="graph" transform="scale(1 1) rotate(0) translate(4 207)">
<title>dependencies</title>
<polygon fill="#ffffff" stroke="transparent" points="-4,4 -4,-207 513,-207 513,4 -4,4"/>
<text text-anchor="start" x="233.5091" y="-42.4" font-family="sans-serif" font-weight="bold" font-size="14.00" fill="#000000">Legend</text>
<polygon fill="#ffffb3" stroke="transparent" points="20.5,-10 20.5,-30 40.5,-30 40.5,-10 20.5,-10"/>
<text text-anchor="start" x="44.129" y="-15.4" font-family="sans-serif" font-size="14.00" fill="#000000"> &#160;Declarations</text>
<polygon fill="#8dd3c7" stroke="transparent" points="133.5,-10 133.5,-30 153.5,-30 153.5,-10 133.5,-10"/>
<text text-anchor="start" x="157.2251" y="-15.4" font-family="sans-serif" font-size="14.00" fill="#000000"> &#160;Module</text>
<polygon fill="#80b1d3" stroke="transparent" points="219.5,-10 219.5,-30 239.5,-30 239.5,-10 219.5,-10"/>
<text text-anchor="start" x="243.2812" y="-15.4" font-family="sans-serif" font-size="14.00" fill="#000000"> &#160;Bootstrap</text>
<polygon fill="#fdb462" stroke="transparent" points="316.5,-10 316.5,-30 336.5,-30 336.5,-10 316.5,-10"/>
<text text-anchor="start" x="340.1732" y="-15.4" font-family="sans-serif" font-size="14.00" fill="#000000"> &#160;Providers</text>
<polygon fill="#fb8072" stroke="transparent" points="412.5,-10 412.5,-30 432.5,-30 432.5,-10 412.5,-10"/>
<text text-anchor="start" x="436.2258" y="-15.4" font-family="sans-serif" font-size="14.00" fill="#000000"> &#160;Exports</text>
<g id="clust1" class="cluster">
<title>cluster_EventsModule</title>
<polygon fill="none" stroke="#000000" stroke-dasharray="1,5" points="8,-70 8,-195 501,-195 501,-70 8,-70"/>
</g>
<g id="clust3" class="cluster">
<title>cluster_EventsModule_imports</title>
<polygon fill="none" stroke="#000000" points="16,-78 16,-130 493,-130 493,-78 16,-78"/>
</g>
<!-- CartPageEventModule -->
<g id="node1" class="node">
<title>CartPageEventModule</title>
<polygon fill="#8dd3c7" stroke="#000000" points="484.5226,-122 481.5226,-126 460.5226,-126 457.5226,-122 341.4774,-122 341.4774,-86 484.5226,-86 484.5226,-122"/>
<text text-anchor="middle" x="413" y="-99.8" font-family="Times,serif" font-size="14.00" fill="#000000">CartPageEventModule</text>
</g>
<!-- EventsModule -->
<g id="node4" class="node">
<title>EventsModule</title>
<polygon fill="#8dd3c7" stroke="#000000" points="312.6528,-187 309.6528,-191 288.6528,-191 285.6528,-187 215.3472,-187 215.3472,-151 312.6528,-151 312.6528,-187"/>
<text text-anchor="middle" x="264" y="-164.8" font-family="Times,serif" font-size="14.00" fill="#000000">EventsModule</text>
</g>
<!-- CartPageEventModule&#45;&gt;EventsModule -->
<g id="edge1" class="edge">
<title>CartPageEventModule&#45;&gt;EventsModule</title>
<path fill="none" stroke="#000000" d="M413,-122.1061C413,-141.3391 413,-169 413,-169 413,-169 322.7882,-169 322.7882,-169"/>
<polygon fill="#000000" stroke="#000000" points="322.7882,-165.5001 312.7882,-169 322.7881,-172.5001 322.7882,-165.5001"/>
</g>
<!-- PageEventModule -->
<g id="node2" class="node">
<title>PageEventModule</title>
<polygon fill="#8dd3c7" stroke="#000000" points="323.9201,-122 320.9201,-126 299.9201,-126 296.9201,-122 204.0799,-122 204.0799,-86 323.9201,-86 323.9201,-122"/>
<text text-anchor="middle" x="264" y="-99.8" font-family="Times,serif" font-size="14.00" fill="#000000">PageEventModule</text>
</g>
<!-- PageEventModule&#45;&gt;EventsModule -->
<g id="edge2" class="edge">
<title>PageEventModule&#45;&gt;EventsModule</title>
<path fill="none" stroke="#000000" d="M264,-122.1061C264,-122.1061 264,-140.991 264,-140.991"/>
<polygon fill="#000000" stroke="#000000" points="260.5001,-140.9909 264,-150.991 267.5001,-140.991 260.5001,-140.9909"/>
</g>
<!-- ProductPageEventModule -->
<g id="node3" class="node">
<title>ProductPageEventModule</title>
<polygon fill="#8dd3c7" stroke="#000000" points="186.4678,-122 183.4678,-126 162.4678,-126 159.4678,-122 23.5322,-122 23.5322,-86 186.4678,-86 186.4678,-122"/>
<text text-anchor="middle" x="105" y="-99.8" font-family="Times,serif" font-size="14.00" fill="#000000">ProductPageEventModule</text>
</g>
<!-- ProductPageEventModule&#45;&gt;EventsModule -->
<g id="edge3" class="edge">
<title>ProductPageEventModule&#45;&gt;EventsModule</title>
<path fill="none" stroke="#000000" d="M105,-122.1061C105,-141.3391 105,-169 105,-169 105,-169 204.9974,-169 204.9974,-169"/>
<polygon fill="#000000" stroke="#000000" points="204.9974,-172.5001 214.9974,-169 204.9973,-165.5001 204.9974,-172.5001"/>
</g>
</g>
</svg>
