<?xml version="1.0" encoding="UTF-8" standalone="no"?>
<!DOCTYPE svg PUBLIC "-//W3C//DTD SVG 1.1//EN"
 "http://www.w3.org/Graphics/SVG/1.1/DTD/svg11.dtd">
<!-- Generated by graphviz version 2.40.1 (20161225.0304)
 -->
<!-- Title: dependencies Pages: 1 -->
<svg width="504pt" height="284pt"
 viewBox="0.00 0.00 504.00 284.00" xmlns="http://www.w3.org/2000/svg" xmlns:xlink="http://www.w3.org/1999/xlink">
<g id="graph0" class="graph" transform="scale(1 1) rotate(0) translate(4 280)">
<title>dependencies</title>
<polygon fill="#ffffff" stroke="transparent" points="-4,4 -4,-280 500,-280 500,4 -4,4"/>
<text text-anchor="start" x="227.0091" y="-42.4" font-family="sans-serif" font-weight="bold" font-size="14.00" fill="#000000">Legend</text>
<polygon fill="#ffffb3" stroke="transparent" points="14,-10 14,-30 34,-30 34,-10 14,-10"/>
<text text-anchor="start" x="37.629" y="-15.4" font-family="sans-serif" font-size="14.00" fill="#000000"> &#160;Declarations</text>
<polygon fill="#8dd3c7" stroke="transparent" points="127,-10 127,-30 147,-30 147,-10 127,-10"/>
<text text-anchor="start" x="150.7251" y="-15.4" font-family="sans-serif" font-size="14.00" fill="#000000"> &#160;Module</text>
<polygon fill="#80b1d3" stroke="transparent" points="213,-10 213,-30 233,-30 233,-10 213,-10"/>
<text text-anchor="start" x="236.7812" y="-15.4" font-family="sans-serif" font-size="14.00" fill="#000000"> &#160;Bootstrap</text>
<polygon fill="#fdb462" stroke="transparent" points="310,-10 310,-30 330,-30 330,-10 310,-10"/>
<text text-anchor="start" x="333.6732" y="-15.4" font-family="sans-serif" font-size="14.00" fill="#000000"> &#160;Providers</text>
<polygon fill="#fb8072" stroke="transparent" points="406,-10 406,-30 426,-30 426,-10 406,-10"/>
<text text-anchor="start" x="429.7258" y="-15.4" font-family="sans-serif" font-size="14.00" fill="#000000"> &#160;Exports</text>
<g id="clust1" class="cluster">
<title>cluster_ResetPasswordModule</title>
<polygon fill="none" stroke="#000000" stroke-dasharray="1,5" points="79,-70 79,-268 417,-268 417,-70 79,-70"/>
</g>
<g id="clust2" class="cluster">
<title>cluster_ResetPasswordModule_declarations</title>
<polygon fill="none" stroke="#000000" points="197,-78 197,-130 409,-130 409,-78 197,-78"/>
</g>
<g id="clust4" class="cluster">
<title>cluster_ResetPasswordModule_imports</title>
<polygon fill="none" stroke="#000000" points="87,-78 87,-130 189,-130 189,-78 87,-78"/>
</g>
<g id="clust5" class="cluster">
<title>cluster_ResetPasswordModule_exports</title>
<polygon fill="none" stroke="#000000" points="140,-208 140,-260 356,-260 356,-208 140,-208"/>
</g>
<!-- ResetPasswordFormComponent -->
<g id="node1" class="node">
<title>ResetPasswordFormComponent</title>
<polygon fill="#ffffb3" stroke="#000000" points="401.4213,-122 204.5787,-122 204.5787,-86 401.4213,-86 401.4213,-122"/>
<text text-anchor="middle" x="303" y="-99.8" font-family="Times,serif" font-size="14.00" fill="#000000">ResetPasswordFormComponent</text>
</g>
<!-- ResetPasswordModule -->
<g id="node2" class="node">
<title>ResetPasswordModule</title>
<polygon fill="#8dd3c7" stroke="#000000" points="320.3047,-187 317.3047,-191 296.3047,-191 293.3047,-187 175.6953,-187 175.6953,-151 320.3047,-151 320.3047,-187"/>
<text text-anchor="middle" x="248" y="-164.8" font-family="Times,serif" font-size="14.00" fill="#000000">ResetPasswordModule</text>
</g>
<!-- ResetPasswordFormComponent&#45;&gt;ResetPasswordModule -->
<g id="edge1" class="edge">
<title>ResetPasswordFormComponent&#45;&gt;ResetPasswordModule</title>
<path fill="none" stroke="#000000" d="M262.4709,-122.1061C262.4709,-122.1061 262.4709,-140.991 262.4709,-140.991"/>
<polygon fill="#000000" stroke="#000000" points="258.971,-140.9909 262.4709,-150.991 265.971,-140.991 258.971,-140.9909"/>
</g>
<!-- ResetPasswordFormComponent  -->
<g id="node4" class="node">
<title>ResetPasswordFormComponent </title>
<polygon fill="#fb8072" stroke="#000000" points="347.9208,-252 148.0792,-252 148.0792,-216 347.9208,-216 347.9208,-252"/>
<text text-anchor="middle" x="248" y="-229.8" font-family="Times,serif" font-size="14.00" fill="#000000">ResetPasswordFormComponent </text>
</g>
<!-- ResetPasswordModule&#45;&gt;ResetPasswordFormComponent  -->
<g id="edge3" class="edge">
<title>ResetPasswordModule&#45;&gt;ResetPasswordFormComponent </title>
<path fill="none" stroke="#000000" stroke-dasharray="5,2" d="M248,-187.1061C248,-187.1061 248,-205.991 248,-205.991"/>
<polygon fill="#000000" stroke="#000000" points="244.5001,-205.9909 248,-215.991 251.5001,-205.991 244.5001,-205.9909"/>
</g>
<!-- I18nModule -->
<g id="node3" class="node">
<title>I18nModule</title>
<polygon fill="#8dd3c7" stroke="#000000" points="180.7107,-122 177.7107,-126 156.7107,-126 153.7107,-122 95.2893,-122 95.2893,-86 180.7107,-86 180.7107,-122"/>
<text text-anchor="middle" x="138" y="-99.8" font-family="Times,serif" font-size="14.00" fill="#000000">I18nModule</text>
</g>
<!-- I18nModule&#45;&gt;ResetPasswordModule -->
<g id="edge2" class="edge">
<title>I18nModule&#45;&gt;ResetPasswordModule</title>
<path fill="none" stroke="#000000" d="M180.8289,-104C187.749,-104 192.6974,-104 192.6974,-104 192.6974,-104 192.6974,-140.8939 192.6974,-140.8939"/>
<polygon fill="#000000" stroke="#000000" points="189.1973,-140.8939 192.6974,-150.8939 196.1973,-140.8938 189.1973,-140.8939"/>
</g>
</g>
</svg>
