<?xml version="1.0" encoding="UTF-8" standalone="no"?>
<!DOCTYPE svg PUBLIC "-//W3C//DTD SVG 1.1//EN"
 "http://www.w3.org/Graphics/SVG/1.1/DTD/svg11.dtd">
<!-- Generated by graphviz version 2.47.3 (20210619.1520)
 -->
<!-- Title: dependencies Pages: 1 -->
<svg width="595pt" height="174pt"
 viewBox="0.00 0.00 595.00 173.80" xmlns="http://www.w3.org/2000/svg" xmlns:xlink="http://www.w3.org/1999/xlink">
<g id="graph0" class="graph" transform="scale(1 1) rotate(0) translate(4 169.8)">
<title>dependencies</title>
<polygon fill="white" stroke="transparent" points="-4,4 -4,-169.8 591,-169.8 591,4 -4,4"/>
<text text-anchor="middle" x="293.5" y="-8.2" font-family="sans-serif" font-size="14.00">dependencies</text>
<g id="clust1" class="cluster">
<title>cluster_ResetPasswordModule</title>
<polygon fill="none" stroke="black" stroke-dasharray="1,5" points="8,-32.8 8,-157.8 579,-157.8 579,-32.8 8,-32.8"/>
</g>
<g id="clust2" class="cluster">
<title>cluster_ResetPasswordModule_declarations</title>
<polygon fill="none" stroke="black" points="389,-40.8 389,-92.8 571,-92.8 571,-40.8 389,-40.8"/>
</g>
<g id="clust4" class="cluster">
<title>cluster_ResetPasswordModule_imports</title>
<polygon fill="none" stroke="black" points="16,-40.8 16,-92.8 381,-92.8 381,-40.8 16,-40.8"/>
</g>
<!-- ResetPasswordComponent -->
<g id="node1" class="node">
<title>ResetPasswordComponent</title>
<polygon fill="#ffffb3" stroke="black" points="563.09,-84.8 396.91,-84.8 396.91,-48.8 563.09,-48.8 563.09,-84.8"/>
<text text-anchor="middle" x="480" y="-62.6" font-family="Times,serif" font-size="14.00">ResetPasswordComponent</text>
</g>
<!-- ResetPasswordModule -->
<g id="node2" class="node">
<title>ResetPasswordModule</title>
<polygon fill="#8dd3c7" stroke="black" points="321.3,-149.8 318.3,-153.8 297.3,-153.8 294.3,-149.8 176.7,-149.8 176.7,-113.8 321.3,-113.8 321.3,-149.8"/>
<text text-anchor="middle" x="249" y="-127.6" font-family="Times,serif" font-size="14.00">ResetPasswordModule</text>
</g>
<!-- ResetPasswordComponent&#45;&gt;ResetPasswordModule -->
<g id="edge1" class="edge">
<title>ResetPasswordComponent&#45;&gt;ResetPasswordModule</title>
<path fill="none" stroke="black" d="M480,-84.91C480,-104.14 480,-131.8 480,-131.8 480,-131.8 331.46,-131.8 331.46,-131.8"/>
<polygon fill="black" stroke="black" points="331.46,-128.3 321.46,-131.8 331.46,-135.3 331.46,-128.3"/>
</g>
<!-- FormErrorsModule -->
<g id="node3" class="node">
<title>FormErrorsModule</title>
<polygon fill="#8dd3c7" stroke="black" points="373.36,-84.8 370.36,-88.8 349.36,-88.8 346.36,-84.8 248.64,-84.8 248.64,-48.8 373.36,-48.8 373.36,-84.8"/>
<text text-anchor="middle" x="311" y="-62.6" font-family="Times,serif" font-size="14.00">FormErrorsModule</text>
</g>
<!-- FormErrorsModule&#45;&gt;ResetPasswordModule -->
<g id="edge2" class="edge">
<title>FormErrorsModule&#45;&gt;ResetPasswordModule</title>
<path fill="none" stroke="black" d="M284.86,-84.91C284.86,-84.91 284.86,-103.79 284.86,-103.79"/>
<polygon fill="black" stroke="black" points="281.36,-103.79 284.86,-113.79 288.36,-103.79 281.36,-103.79"/>
</g>
<!-- I18nModule -->
<g id="node4" class="node">
<title>I18nModule</title>
<polygon fill="#8dd3c7" stroke="black" points="230.71,-84.8 227.71,-88.8 206.71,-88.8 203.71,-84.8 145.29,-84.8 145.29,-48.8 230.71,-48.8 230.71,-84.8"/>
<text text-anchor="middle" x="188" y="-62.6" font-family="Times,serif" font-size="14.00">I18nModule</text>
</g>
<!-- I18nModule&#45;&gt;ResetPasswordModule -->
<g id="edge3" class="edge">
<title>I18nModule&#45;&gt;ResetPasswordModule</title>
<path fill="none" stroke="black" d="M203.73,-84.91C203.73,-84.91 203.73,-103.79 203.73,-103.79"/>
<polygon fill="black" stroke="black" points="200.23,-103.79 203.73,-113.79 207.23,-103.79 200.23,-103.79"/>
</g>
<!-- SpinnerModule -->
<g id="node5" class="node">
<title>SpinnerModule</title>
<polygon fill="#8dd3c7" stroke="black" points="127.6,-84.8 124.6,-88.8 103.6,-88.8 100.6,-84.8 24.4,-84.8 24.4,-48.8 127.6,-48.8 127.6,-84.8"/>
<text text-anchor="middle" x="76" y="-62.6" font-family="Times,serif" font-size="14.00">SpinnerModule</text>
</g>
<!-- SpinnerModule&#45;&gt;ResetPasswordModule -->
<g id="edge4" class="edge">
<title>SpinnerModule&#45;&gt;ResetPasswordModule</title>
<path fill="none" stroke="black" d="M76,-84.91C76,-104.14 76,-131.8 76,-131.8 76,-131.8 166.63,-131.8 166.63,-131.8"/>
<polygon fill="black" stroke="black" points="166.63,-135.3 176.63,-131.8 166.63,-128.3 166.63,-135.3"/>
</g>
</g>
</svg>
