<?xml version="1.0" encoding="UTF-8" standalone="no"?>
<!DOCTYPE svg PUBLIC "-//W3C//DTD SVG 1.1//EN"
 "http://www.w3.org/Graphics/SVG/1.1/DTD/svg11.dtd">
<!-- Generated by graphviz version 2.47.0 (20210316.0004)
 -->
<!-- Title: dependencies Pages: 1 -->
<svg width="722pt" height="284pt"
 viewBox="0.00 0.00 722.00 284.00" xmlns="http://www.w3.org/2000/svg" xmlns:xlink="http://www.w3.org/1999/xlink">
<g id="graph0" class="graph" transform="scale(1 1) rotate(0) translate(4 280)">
<title>dependencies</title>
<polygon fill="white" stroke="transparent" points="-4,4 -4,-280 718,-280 718,4 -4,4"/>
<text text-anchor="start" x="336.01" y="-42.4" font-family="sans-serif" font-weight="bold" font-size="14.00">Legend</text>
<polygon fill="#ffffb3" stroke="transparent" points="123,-10 123,-30 143,-30 143,-10 123,-10"/>
<text text-anchor="start" x="146.63" y="-15.4" font-family="sans-serif" font-size="14.00"> &#160;Declarations</text>
<polygon fill="#8dd3c7" stroke="transparent" points="236,-10 236,-30 256,-30 256,-10 236,-10"/>
<text text-anchor="start" x="259.73" y="-15.4" font-family="sans-serif" font-size="14.00"> &#160;Module</text>
<polygon fill="#80b1d3" stroke="transparent" points="322,-10 322,-30 342,-30 342,-10 322,-10"/>
<text text-anchor="start" x="345.78" y="-15.4" font-family="sans-serif" font-size="14.00"> &#160;Bootstrap</text>
<polygon fill="#fdb462" stroke="transparent" points="419,-10 419,-30 439,-30 439,-10 419,-10"/>
<text text-anchor="start" x="442.67" y="-15.4" font-family="sans-serif" font-size="14.00"> &#160;Providers</text>
<polygon fill="#fb8072" stroke="transparent" points="515,-10 515,-30 535,-30 535,-10 515,-10"/>
<text text-anchor="start" x="538.73" y="-15.4" font-family="sans-serif" font-size="14.00"> &#160;Exports</text>
<g id="clust1" class="cluster">
<title>cluster_PaymentMethodModule</title>
<polygon fill="none" stroke="black" stroke-dasharray="1,5" points="8,-70 8,-268 706,-268 706,-70 8,-70"/>
</g>
<g id="clust2" class="cluster">
<title>cluster_PaymentMethodModule_declarations</title>
<polygon fill="none" stroke="black" points="508,-78 508,-130 698,-130 698,-78 508,-78"/>
</g>
<g id="clust5" class="cluster">
<title>cluster_PaymentMethodModule_exports</title>
<polygon fill="none" stroke="black" points="248,-208 248,-260 442,-260 442,-208 248,-208"/>
</g>
<g id="clust4" class="cluster">
<title>cluster_PaymentMethodModule_imports</title>
<polygon fill="none" stroke="black" points="16,-78 16,-130 500,-130 500,-78 16,-78"/>
</g>
<!-- PaymentMethodComponent -->
<g id="node1" class="node">
<title>PaymentMethodComponent</title>
<polygon fill="#ffffb3" stroke="black" points="689.88,-122 516.12,-122 516.12,-86 689.88,-86 689.88,-122"/>
<text text-anchor="middle" x="603" y="-99.8" font-family="Times,serif" font-size="14.00">PaymentMethodComponent</text>
</g>
<!-- PaymentMethodModule -->
<g id="node2" class="node">
<title>PaymentMethodModule</title>
<polygon fill="#8dd3c7" stroke="black" points="421.09,-187 418.09,-191 397.09,-191 394.09,-187 268.91,-187 268.91,-151 421.09,-151 421.09,-187"/>
<text text-anchor="middle" x="345" y="-164.8" font-family="Times,serif" font-size="14.00">PaymentMethodModule</text>
</g>
<!-- PaymentMethodComponent&#45;&gt;PaymentMethodModule -->
<g id="edge1" class="edge">
<title>PaymentMethodComponent&#45;&gt;PaymentMethodModule</title>
<path fill="none" stroke="black" d="M603,-122.11C603,-141.34 603,-169 603,-169 603,-169 431.36,-169 431.36,-169"/>
<polygon fill="black" stroke="black" points="431.36,-165.5 421.36,-169 431.36,-172.5 431.36,-165.5"/>
</g>
<!-- PaymentMethodComponent  -->
<g id="node7" class="node">
<title>PaymentMethodComponent </title>
<polygon fill="#fb8072" stroke="black" points="433.88,-252 256.12,-252 256.12,-216 433.88,-216 433.88,-252"/>
<text text-anchor="middle" x="345" y="-229.8" font-family="Times,serif" font-size="14.00">PaymentMethodComponent </text>
</g>
<!-- PaymentMethodModule&#45;&gt;PaymentMethodComponent  -->
<g id="edge6" class="edge">
<title>PaymentMethodModule&#45;&gt;PaymentMethodComponent </title>
<path fill="none" stroke="black" stroke-dasharray="5,2" d="M345,-187.11C345,-187.11 345,-205.99 345,-205.99"/>
<polygon fill="black" stroke="black" points="341.5,-205.99 345,-215.99 348.5,-205.99 341.5,-205.99"/>
</g>
<!-- CardModule -->
<g id="node3" class="node">
<title>CardModule</title>
<polygon fill="#8dd3c7" stroke="black" points="492.26,-122 489.26,-126 468.26,-126 465.26,-122 405.74,-122 405.74,-86 492.26,-86 492.26,-122"/>
<text text-anchor="middle" x="449" y="-99.8" font-family="Times,serif" font-size="14.00">CardModule</text>
</g>
<!-- CardModule&#45;&gt;PaymentMethodModule -->
<g id="edge2" class="edge">
<title>CardModule&#45;&gt;PaymentMethodModule</title>
<path fill="none" stroke="black" d="M413.33,-122.11C413.33,-122.11 413.33,-140.99 413.33,-140.99"/>
<polygon fill="black" stroke="black" points="409.83,-140.99 413.33,-150.99 416.83,-140.99 409.83,-140.99"/>
</g>
<!-- I18nModule -->
<g id="node4" class="node">
<title>I18nModule</title>
<polygon fill="#8dd3c7" stroke="black" points="387.71,-122 384.71,-126 363.71,-126 360.71,-122 302.29,-122 302.29,-86 387.71,-86 387.71,-122"/>
<text text-anchor="middle" x="345" y="-99.8" font-family="Times,serif" font-size="14.00">I18nModule</text>
</g>
<!-- I18nModule&#45;&gt;PaymentMethodModule -->
<g id="edge3" class="edge">
<title>I18nModule&#45;&gt;PaymentMethodModule</title>
<path fill="none" stroke="black" d="M345,-122.11C345,-122.11 345,-140.99 345,-140.99"/>
<polygon fill="black" stroke="black" points="341.5,-140.99 345,-150.99 348.5,-140.99 341.5,-140.99"/>
</g>
<!-- PaymentFormModule -->
<g id="node5" class="node">
<title>PaymentFormModule</title>
<polygon fill="#8dd3c7" stroke="black" points="284.38,-122 281.38,-126 260.38,-126 257.38,-122 145.62,-122 145.62,-86 284.38,-86 284.38,-122"/>
<text text-anchor="middle" x="215" y="-99.8" font-family="Times,serif" font-size="14.00">PaymentFormModule</text>
</g>
<!-- PaymentFormModule&#45;&gt;PaymentMethodModule -->
<g id="edge4" class="edge">
<title>PaymentFormModule&#45;&gt;PaymentMethodModule</title>
<path fill="none" stroke="black" d="M276.7,-122.11C276.7,-122.11 276.7,-140.99 276.7,-140.99"/>
<polygon fill="black" stroke="black" points="273.2,-140.99 276.7,-150.99 280.2,-140.99 273.2,-140.99"/>
</g>
<!-- SpinnerModule -->
<g id="node6" class="node">
<title>SpinnerModule</title>
<polygon fill="#8dd3c7" stroke="black" points="127.6,-122 124.6,-126 103.6,-126 100.6,-122 24.4,-122 24.4,-86 127.6,-86 127.6,-122"/>
<text text-anchor="middle" x="76" y="-99.8" font-family="Times,serif" font-size="14.00">SpinnerModule</text>
</g>
<!-- SpinnerModule&#45;&gt;PaymentMethodModule -->
<g id="edge5" class="edge">
<title>SpinnerModule&#45;&gt;PaymentMethodModule</title>
<path fill="none" stroke="black" d="M76,-122.11C76,-141.34 76,-169 76,-169 76,-169 258.63,-169 258.63,-169"/>
<polygon fill="black" stroke="black" points="258.63,-172.5 268.63,-169 258.63,-165.5 258.63,-172.5"/>
</g>
</g>
</svg>
