<?xml version="1.0" encoding="UTF-8" standalone="no"?>
<!DOCTYPE svg PUBLIC "-//W3C//DTD SVG 1.1//EN"
 "http://www.w3.org/Graphics/SVG/1.1/DTD/svg11.dtd">
<!-- Generated by graphviz version 2.47.3 (20210619.1520)
 -->
<!-- Title: dependencies Pages: 1 -->
<svg width="722pt" height="247pt"
 viewBox="0.00 0.00 722.00 246.80" xmlns="http://www.w3.org/2000/svg" xmlns:xlink="http://www.w3.org/1999/xlink">
<g id="graph0" class="graph" transform="scale(1 1) rotate(0) translate(4 242.8)">
<title>dependencies</title>
<polygon fill="white" stroke="transparent" points="-4,4 -4,-242.8 718,-242.8 718,4 -4,4"/>
<text text-anchor="middle" x="357" y="-8.2" font-family="sans-serif" font-size="14.00">dependencies</text>
<g id="clust1" class="cluster">
<title>cluster_PaymentMethodModule</title>
<polygon fill="none" stroke="black" stroke-dasharray="1,5" points="8,-32.8 8,-230.8 706,-230.8 706,-32.8 8,-32.8"/>
</g>
<g id="clust2" class="cluster">
<title>cluster_PaymentMethodModule_declarations</title>
<polygon fill="none" stroke="black" points="508,-40.8 508,-92.8 698,-92.8 698,-40.8 508,-40.8"/>
</g>
<g id="clust5" class="cluster">
<title>cluster_PaymentMethodModule_exports</title>
<polygon fill="none" stroke="black" points="248,-170.8 248,-222.8 442,-222.8 442,-170.8 248,-170.8"/>
</g>
<g id="clust4" class="cluster">
<title>cluster_PaymentMethodModule_imports</title>
<polygon fill="none" stroke="black" points="16,-40.8 16,-92.8 500,-92.8 500,-40.8 16,-40.8"/>
</g>
<!-- PaymentMethodComponent -->
<g id="node1" class="node">
<title>PaymentMethodComponent</title>
<polygon fill="#ffffb3" stroke="black" points="689.88,-84.8 516.12,-84.8 516.12,-48.8 689.88,-48.8 689.88,-84.8"/>
<text text-anchor="middle" x="603" y="-62.6" font-family="Times,serif" font-size="14.00">PaymentMethodComponent</text>
</g>
<!-- PaymentMethodModule -->
<g id="node2" class="node">
<title>PaymentMethodModule</title>
<polygon fill="#8dd3c7" stroke="black" points="421.09,-149.8 418.09,-153.8 397.09,-153.8 394.09,-149.8 268.91,-149.8 268.91,-113.8 421.09,-113.8 421.09,-149.8"/>
<text text-anchor="middle" x="345" y="-127.6" font-family="Times,serif" font-size="14.00">PaymentMethodModule</text>
</g>
<!-- PaymentMethodComponent&#45;&gt;PaymentMethodModule -->
<g id="edge1" class="edge">
<title>PaymentMethodComponent&#45;&gt;PaymentMethodModule</title>
<path fill="none" stroke="black" d="M603,-84.91C603,-104.14 603,-131.8 603,-131.8 603,-131.8 431.36,-131.8 431.36,-131.8"/>
<polygon fill="black" stroke="black" points="431.36,-128.3 421.36,-131.8 431.36,-135.3 431.36,-128.3"/>
</g>
<!-- PaymentMethodComponent  -->
<g id="node7" class="node">
<title>PaymentMethodComponent </title>
<polygon fill="#fb8072" stroke="black" points="433.88,-214.8 256.12,-214.8 256.12,-178.8 433.88,-178.8 433.88,-214.8"/>
<text text-anchor="middle" x="345" y="-192.6" font-family="Times,serif" font-size="14.00">PaymentMethodComponent </text>
</g>
<!-- PaymentMethodModule&#45;&gt;PaymentMethodComponent  -->
<g id="edge6" class="edge">
<title>PaymentMethodModule&#45;&gt;PaymentMethodComponent </title>
<path fill="none" stroke="black" stroke-dasharray="5,2" d="M345,-149.91C345,-149.91 345,-168.79 345,-168.79"/>
<polygon fill="black" stroke="black" points="341.5,-168.79 345,-178.79 348.5,-168.79 341.5,-168.79"/>
</g>
<!-- CardModule -->
<g id="node3" class="node">
<title>CardModule</title>
<polygon fill="#8dd3c7" stroke="black" points="492.26,-84.8 489.26,-88.8 468.26,-88.8 465.26,-84.8 405.74,-84.8 405.74,-48.8 492.26,-48.8 492.26,-84.8"/>
<text text-anchor="middle" x="449" y="-62.6" font-family="Times,serif" font-size="14.00">CardModule</text>
</g>
<!-- CardModule&#45;&gt;PaymentMethodModule -->
<g id="edge2" class="edge">
<title>CardModule&#45;&gt;PaymentMethodModule</title>
<path fill="none" stroke="black" d="M413.33,-84.91C413.33,-84.91 413.33,-103.79 413.33,-103.79"/>
<polygon fill="black" stroke="black" points="409.83,-103.79 413.33,-113.79 416.83,-103.79 409.83,-103.79"/>
</g>
<!-- I18nModule -->
<g id="node4" class="node">
<title>I18nModule</title>
<polygon fill="#8dd3c7" stroke="black" points="387.71,-84.8 384.71,-88.8 363.71,-88.8 360.71,-84.8 302.29,-84.8 302.29,-48.8 387.71,-48.8 387.71,-84.8"/>
<text text-anchor="middle" x="345" y="-62.6" font-family="Times,serif" font-size="14.00">I18nModule</text>
</g>
<!-- I18nModule&#45;&gt;PaymentMethodModule -->
<g id="edge3" class="edge">
<title>I18nModule&#45;&gt;PaymentMethodModule</title>
<path fill="none" stroke="black" d="M345,-84.91C345,-84.91 345,-103.79 345,-103.79"/>
<polygon fill="black" stroke="black" points="341.5,-103.79 345,-113.79 348.5,-103.79 341.5,-103.79"/>
</g>
<!-- PaymentFormModule -->
<g id="node5" class="node">
<title>PaymentFormModule</title>
<polygon fill="#8dd3c7" stroke="black" points="284.38,-84.8 281.38,-88.8 260.38,-88.8 257.38,-84.8 145.62,-84.8 145.62,-48.8 284.38,-48.8 284.38,-84.8"/>
<text text-anchor="middle" x="215" y="-62.6" font-family="Times,serif" font-size="14.00">PaymentFormModule</text>
</g>
<!-- PaymentFormModule&#45;&gt;PaymentMethodModule -->
<g id="edge4" class="edge">
<title>PaymentFormModule&#45;&gt;PaymentMethodModule</title>
<path fill="none" stroke="black" d="M276.7,-84.91C276.7,-84.91 276.7,-103.79 276.7,-103.79"/>
<polygon fill="black" stroke="black" points="273.2,-103.79 276.7,-113.79 280.2,-103.79 273.2,-103.79"/>
</g>
<!-- SpinnerModule -->
<g id="node6" class="node">
<title>SpinnerModule</title>
<polygon fill="#8dd3c7" stroke="black" points="127.6,-84.8 124.6,-88.8 103.6,-88.8 100.6,-84.8 24.4,-84.8 24.4,-48.8 127.6,-48.8 127.6,-84.8"/>
<text text-anchor="middle" x="76" y="-62.6" font-family="Times,serif" font-size="14.00">SpinnerModule</text>
</g>
<!-- SpinnerModule&#45;&gt;PaymentMethodModule -->
<g id="edge5" class="edge">
<title>SpinnerModule&#45;&gt;PaymentMethodModule</title>
<path fill="none" stroke="black" d="M76,-84.91C76,-104.14 76,-131.8 76,-131.8 76,-131.8 258.63,-131.8 258.63,-131.8"/>
<polygon fill="black" stroke="black" points="258.63,-135.3 268.63,-131.8 258.63,-128.3 258.63,-135.3"/>
</g>
</g>
</svg>
