<?xml version="1.0" encoding="UTF-8" standalone="no"?>
<!DOCTYPE svg PUBLIC "-//W3C//DTD SVG 1.1//EN"
 "http://www.w3.org/Graphics/SVG/1.1/DTD/svg11.dtd">
<!-- Generated by graphviz version 2.40.1 (20161225.0304)
 -->
<!-- Title: dependencies Pages: 1 -->
<svg width="979pt" height="284pt"
 viewBox="0.00 0.00 979.00 284.00" xmlns="http://www.w3.org/2000/svg" xmlns:xlink="http://www.w3.org/1999/xlink">
<g id="graph0" class="graph" transform="scale(1 1) rotate(0) translate(4 280)">
<title>dependencies</title>
<polygon fill="#ffffff" stroke="transparent" points="-4,4 -4,-280 975,-280 975,4 -4,4"/>
<text text-anchor="start" x="464.5091" y="-42.4" font-family="sans-serif" font-weight="bold" font-size="14.00" fill="#000000">Legend</text>
<polygon fill="#ffffb3" stroke="transparent" points="251.5,-10 251.5,-30 271.5,-30 271.5,-10 251.5,-10"/>
<text text-anchor="start" x="275.129" y="-15.4" font-family="sans-serif" font-size="14.00" fill="#000000"> &#160;Declarations</text>
<polygon fill="#8dd3c7" stroke="transparent" points="364.5,-10 364.5,-30 384.5,-30 384.5,-10 364.5,-10"/>
<text text-anchor="start" x="388.2251" y="-15.4" font-family="sans-serif" font-size="14.00" fill="#000000"> &#160;Module</text>
<polygon fill="#80b1d3" stroke="transparent" points="450.5,-10 450.5,-30 470.5,-30 470.5,-10 450.5,-10"/>
<text text-anchor="start" x="474.2812" y="-15.4" font-family="sans-serif" font-size="14.00" fill="#000000"> &#160;Bootstrap</text>
<polygon fill="#fdb462" stroke="transparent" points="547.5,-10 547.5,-30 567.5,-30 567.5,-10 547.5,-10"/>
<text text-anchor="start" x="571.1732" y="-15.4" font-family="sans-serif" font-size="14.00" fill="#000000"> &#160;Providers</text>
<polygon fill="#fb8072" stroke="transparent" points="643.5,-10 643.5,-30 663.5,-30 663.5,-10 643.5,-10"/>
<text text-anchor="start" x="667.2258" y="-15.4" font-family="sans-serif" font-size="14.00" fill="#000000"> &#160;Exports</text>
<g id="clust1" class="cluster">
<title>cluster_PaymentMethodModule</title>
<polygon fill="none" stroke="#000000" stroke-dasharray="1,5" points="8,-70 8,-268 963,-268 963,-70 8,-70"/>
</g>
<g id="clust2" class="cluster">
<title>cluster_PaymentMethodModule_declarations</title>
<polygon fill="none" stroke="#000000" points="765,-78 765,-130 955,-130 955,-78 765,-78"/>
</g>
<g id="clust4" class="cluster">
<title>cluster_PaymentMethodModule_imports</title>
<polygon fill="none" stroke="#000000" points="156,-78 156,-130 757,-130 757,-78 156,-78"/>
</g>
<g id="clust5" class="cluster">
<title>cluster_PaymentMethodModule_exports</title>
<polygon fill="none" stroke="#000000" points="388,-208 388,-260 582,-260 582,-208 388,-208"/>
</g>
<g id="clust7" class="cluster">
<title>cluster_PaymentMethodModule_providers</title>
<polygon fill="none" stroke="#000000" points="16,-78 16,-130 148,-130 148,-78 16,-78"/>
</g>
<!-- PaymentMethodComponent -->
<g id="node1" class="node">
<title>PaymentMethodComponent</title>
<polygon fill="#ffffb3" stroke="#000000" points="946.8752,-122 773.1248,-122 773.1248,-86 946.8752,-86 946.8752,-122"/>
<text text-anchor="middle" x="860" y="-99.8" font-family="Times,serif" font-size="14.00" fill="#000000">PaymentMethodComponent</text>
</g>
<!-- PaymentMethodModule -->
<g id="node2" class="node">
<title>PaymentMethodModule</title>
<polygon fill="#8dd3c7" stroke="#000000" points="561.0926,-187 558.0926,-191 537.0926,-191 534.0926,-187 408.9074,-187 408.9074,-151 561.0926,-151 561.0926,-187"/>
<text text-anchor="middle" x="485" y="-164.8" font-family="Times,serif" font-size="14.00" fill="#000000">PaymentMethodModule</text>
</g>
<!-- PaymentMethodComponent&#45;&gt;PaymentMethodModule -->
<g id="edge1" class="edge">
<title>PaymentMethodComponent&#45;&gt;PaymentMethodModule</title>
<path fill="none" stroke="#000000" d="M860,-122.2843C860,-143.3211 860,-175 860,-175 860,-175 571.3388,-175 571.3388,-175"/>
<polygon fill="#000000" stroke="#000000" points="571.3389,-171.5001 561.3388,-175 571.3388,-178.5001 571.3389,-171.5001"/>
</g>
<!-- PaymentMethodComponent  -->
<g id="node8" class="node">
<title>PaymentMethodComponent </title>
<polygon fill="#fb8072" stroke="#000000" points="573.8756,-252 396.1244,-252 396.1244,-216 573.8756,-216 573.8756,-252"/>
<text text-anchor="middle" x="485" y="-229.8" font-family="Times,serif" font-size="14.00" fill="#000000">PaymentMethodComponent </text>
</g>
<!-- PaymentMethodModule&#45;&gt;PaymentMethodComponent  -->
<g id="edge7" class="edge">
<title>PaymentMethodModule&#45;&gt;PaymentMethodComponent </title>
<path fill="none" stroke="#000000" stroke-dasharray="5,2" d="M485,-187.1061C485,-187.1061 485,-205.991 485,-205.991"/>
<polygon fill="#000000" stroke="#000000" points="481.5001,-205.9909 485,-215.991 488.5001,-205.991 481.5001,-205.9909"/>
</g>
<!-- CardModule -->
<g id="node3" class="node">
<title>CardModule</title>
<polygon fill="#8dd3c7" stroke="#000000" points="749.2619,-122 746.2619,-126 725.2619,-126 722.2619,-122 662.7381,-122 662.7381,-86 749.2619,-86 749.2619,-122"/>
<text text-anchor="middle" x="706" y="-99.8" font-family="Times,serif" font-size="14.00" fill="#000000">CardModule</text>
</g>
<!-- CardModule&#45;&gt;PaymentMethodModule -->
<g id="edge2" class="edge">
<title>CardModule&#45;&gt;PaymentMethodModule</title>
<path fill="none" stroke="#000000" d="M706,-122.0225C706,-139.3734 706,-163 706,-163 706,-163 571.0557,-163 571.0557,-163"/>
<polygon fill="#000000" stroke="#000000" points="571.0557,-159.5001 561.0557,-163 571.0556,-166.5001 571.0557,-159.5001"/>
</g>
<!-- ConfigModule -->
<g id="node4" class="node">
<title>ConfigModule</title>
<polygon fill="#8dd3c7" stroke="#000000" points="644.4386,-122 641.4386,-126 620.4386,-126 617.4386,-122 545.5614,-122 545.5614,-86 644.4386,-86 644.4386,-122"/>
<text text-anchor="middle" x="595" y="-99.8" font-family="Times,serif" font-size="14.00" fill="#000000">ConfigModule</text>
</g>
<!-- ConfigModule&#45;&gt;PaymentMethodModule -->
<g id="edge3" class="edge">
<title>ConfigModule&#45;&gt;PaymentMethodModule</title>
<path fill="none" stroke="#000000" d="M553.4137,-122.1061C553.4137,-122.1061 553.4137,-140.991 553.4137,-140.991"/>
<polygon fill="#000000" stroke="#000000" points="549.9138,-140.9909 553.4137,-150.991 556.9138,-140.991 549.9138,-140.9909"/>
</g>
<!-- I18nModule -->
<g id="node5" class="node">
<title>I18nModule</title>
<polygon fill="#8dd3c7" stroke="#000000" points="527.7107,-122 524.7107,-126 503.7107,-126 500.7107,-122 442.2893,-122 442.2893,-86 527.7107,-86 527.7107,-122"/>
<text text-anchor="middle" x="485" y="-99.8" font-family="Times,serif" font-size="14.00" fill="#000000">I18nModule</text>
</g>
<!-- I18nModule&#45;&gt;PaymentMethodModule -->
<g id="edge4" class="edge">
<title>I18nModule&#45;&gt;PaymentMethodModule</title>
<path fill="none" stroke="#000000" d="M485,-122.1061C485,-122.1061 485,-140.991 485,-140.991"/>
<polygon fill="#000000" stroke="#000000" points="481.5001,-140.9909 485,-150.991 488.5001,-140.991 481.5001,-140.9909"/>
</g>
<!-- PaymentFormModule -->
<g id="node6" class="node">
<title>PaymentFormModule</title>
<polygon fill="#8dd3c7" stroke="#000000" points="424.3767,-122 421.3767,-126 400.3767,-126 397.3767,-122 285.6233,-122 285.6233,-86 424.3767,-86 424.3767,-122"/>
<text text-anchor="middle" x="355" y="-99.8" font-family="Times,serif" font-size="14.00" fill="#000000">PaymentFormModule</text>
</g>
<!-- PaymentFormModule&#45;&gt;PaymentMethodModule -->
<g id="edge5" class="edge">
<title>PaymentFormModule&#45;&gt;PaymentMethodModule</title>
<path fill="none" stroke="#000000" d="M416.696,-122.1061C416.696,-122.1061 416.696,-140.991 416.696,-140.991"/>
<polygon fill="#000000" stroke="#000000" points="413.1961,-140.9909 416.696,-150.991 420.1961,-140.991 413.1961,-140.9909"/>
</g>
<!-- SpinnerModule -->
<g id="node7" class="node">
<title>SpinnerModule</title>
<polygon fill="#8dd3c7" stroke="#000000" points="267.5982,-122 264.5982,-126 243.5982,-126 240.5982,-122 164.4018,-122 164.4018,-86 267.5982,-86 267.5982,-122"/>
<text text-anchor="middle" x="216" y="-99.8" font-family="Times,serif" font-size="14.00" fill="#000000">SpinnerModule</text>
</g>
<!-- SpinnerModule&#45;&gt;PaymentMethodModule -->
<g id="edge6" class="edge">
<title>SpinnerModule&#45;&gt;PaymentMethodModule</title>
<path fill="none" stroke="#000000" d="M216,-122.0225C216,-139.3734 216,-163 216,-163 216,-163 398.6349,-163 398.6349,-163"/>
<polygon fill="#000000" stroke="#000000" points="398.635,-166.5001 408.6349,-163 398.6349,-159.5001 398.635,-166.5001"/>
</g>
<!-- UserService -->
<g id="node9" class="node">
<title>UserService</title>
<ellipse fill="#fdb462" stroke="#000000" cx="82" cy="-104" rx="58.4415" ry="18"/>
<text text-anchor="middle" x="82" y="-99.8" font-family="Times,serif" font-size="14.00" fill="#000000">UserService</text>
</g>
<!-- UserService&#45;&gt;PaymentMethodModule -->
<g id="edge8" class="edge">
<title>UserService&#45;&gt;PaymentMethodModule</title>
<path fill="none" stroke="#000000" d="M82,-122.2843C82,-143.3211 82,-175 82,-175 82,-175 398.725,-175 398.725,-175"/>
<polygon fill="#000000" stroke="#000000" points="398.725,-178.5001 408.725,-175 398.725,-171.5001 398.725,-178.5001"/>
</g>
</g>
</svg>
