<?xml version="1.0" encoding="UTF-8" standalone="no"?>
<!DOCTYPE svg PUBLIC "-//W3C//DTD SVG 1.1//EN"
 "http://www.w3.org/Graphics/SVG/1.1/DTD/svg11.dtd">
<!-- Generated by graphviz version 2.47.0 (20210316.0004)
 -->
<!-- Title: dependencies Pages: 1 -->
<svg width="1190pt" height="323pt"
 viewBox="0.00 0.00 1190.00 322.59" xmlns="http://www.w3.org/2000/svg" xmlns:xlink="http://www.w3.org/1999/xlink">
<g id="graph0" class="graph" transform="scale(1 1) rotate(0) translate(4 318.59)">
<title>dependencies</title>
<polygon fill="white" stroke="transparent" points="-4,4 -4,-318.59 1186,-318.59 1186,4 -4,4"/>
<text text-anchor="start" x="570.01" y="-42.4" font-family="sans-serif" font-weight="bold" font-size="14.00">Legend</text>
<polygon fill="#ffffb3" stroke="transparent" points="357,-10 357,-30 377,-30 377,-10 357,-10"/>
<text text-anchor="start" x="380.63" y="-15.4" font-family="sans-serif" font-size="14.00"> &#160;Declarations</text>
<polygon fill="#8dd3c7" stroke="transparent" points="470,-10 470,-30 490,-30 490,-10 470,-10"/>
<text text-anchor="start" x="493.73" y="-15.4" font-family="sans-serif" font-size="14.00"> &#160;Module</text>
<polygon fill="#80b1d3" stroke="transparent" points="556,-10 556,-30 576,-30 576,-10 556,-10"/>
<text text-anchor="start" x="579.78" y="-15.4" font-family="sans-serif" font-size="14.00"> &#160;Bootstrap</text>
<polygon fill="#fdb462" stroke="transparent" points="653,-10 653,-30 673,-30 673,-10 653,-10"/>
<text text-anchor="start" x="676.67" y="-15.4" font-family="sans-serif" font-size="14.00"> &#160;Providers</text>
<polygon fill="#fb8072" stroke="transparent" points="749,-10 749,-30 769,-30 769,-10 749,-10"/>
<text text-anchor="start" x="772.73" y="-15.4" font-family="sans-serif" font-size="14.00"> &#160;Exports</text>
<g id="clust1" class="cluster">
<title>cluster_UserPermissionListModule</title>
<polygon fill="none" stroke="black" stroke-dasharray="1,5" points="8,-70 8,-306.59 1174,-306.59 1174,-70 8,-70"/>
</g>
<g id="clust4" class="cluster">
<title>cluster_UserPermissionListModule_UserPermissionListComponent_providers</title>
<polygon fill="none" stroke="black" points="614,-78 614,-241.59 1166,-241.59 1166,-78 614,-78"/>
</g>
<g id="clust2" class="cluster">
<title>cluster_UserPermissionListModule_declarations</title>
<polygon fill="none" stroke="black" points="346,-189.59 346,-241.59 606,-241.59 606,-189.59 346,-189.59"/>
</g>
<g id="clust5" class="cluster">
<title>cluster_UserPermissionListModule_imports</title>
<polygon fill="none" stroke="black" points="16,-189.59 16,-241.59 338,-241.59 338,-189.59 16,-189.59"/>
</g>
<!-- UserAssignedPermissionListComponent -->
<g id="node1" class="node">
<title>UserAssignedPermissionListComponent</title>
<polygon fill="#ffffb3" stroke="black" points="597.86,-233.59 354.14,-233.59 354.14,-197.59 597.86,-197.59 597.86,-233.59"/>
<text text-anchor="middle" x="476" y="-211.39" font-family="Times,serif" font-size="14.00">UserAssignedPermissionListComponent</text>
</g>
<!-- UserPermissionListModule -->
<g id="node3" class="node">
<title>UserPermissionListModule</title>
<polygon fill="#8dd3c7" stroke="black" points="371.97,-298.59 368.97,-302.59 347.97,-302.59 344.97,-298.59 202.03,-298.59 202.03,-262.59 371.97,-262.59 371.97,-298.59"/>
<text text-anchor="middle" x="287" y="-276.39" font-family="Times,serif" font-size="14.00">UserPermissionListModule</text>
</g>
<!-- UserAssignedPermissionListComponent&#45;&gt;UserPermissionListModule -->
<g id="edge1" class="edge">
<title>UserAssignedPermissionListComponent&#45;&gt;UserPermissionListModule</title>
<path fill="none" stroke="black" d="M363.03,-233.7C363.03,-233.7 363.03,-252.58 363.03,-252.58"/>
<polygon fill="black" stroke="black" points="359.53,-252.58 363.03,-262.58 366.53,-252.58 359.53,-252.58"/>
</g>
<!-- UserPermissionListComponent -->
<g id="node2" class="node">
<title>UserPermissionListComponent</title>
<polygon fill="#ffffb3" stroke="black" points="899.76,-233.59 708.24,-233.59 708.24,-197.59 899.76,-197.59 899.76,-233.59"/>
<text text-anchor="middle" x="804" y="-211.39" font-family="Times,serif" font-size="14.00">UserPermissionListComponent</text>
</g>
<!-- UserPermissionListComponent&#45;&gt;UserPermissionListModule -->
<g id="edge2" class="edge">
<title>UserPermissionListComponent&#45;&gt;UserPermissionListModule</title>
<path fill="none" stroke="black" d="M804,-233.7C804,-252.93 804,-280.59 804,-280.59 804,-280.59 382.08,-280.59 382.08,-280.59"/>
<polygon fill="black" stroke="black" points="382.08,-277.09 372.08,-280.59 382.08,-284.09 382.08,-277.09"/>
</g>
<!-- {
 &#160;&#160;&#160;provide: ListService, useExisting: UserPermissionListService,
} -->
<g id="node4" class="node">
<title>{
 &#160;&#160;&#160;provide: ListService, useExisting: UserPermissionListService,
}</title>
<ellipse fill="#fdb462" stroke="black" cx="890" cy="-127.3" rx="268.24" ry="41.09"/>
<text text-anchor="middle" x="890" y="-139.9" font-family="Times,serif" font-size="14.00">{</text>
<text text-anchor="middle" x="890" y="-123.1" font-family="Times,serif" font-size="14.00"> &#160;&#160;&#160;provide: ListService, useExisting: UserPermissionListService,</text>
<text text-anchor="middle" x="890" y="-106.3" font-family="Times,serif" font-size="14.00">}</text>
</g>
<!-- {
 &#160;&#160;&#160;provide: ListService, useExisting: UserPermissionListService,
}&#45;&gt;UserPermissionListComponent -->
<g id="edge3" class="edge">
<title>{
 &#160;&#160;&#160;provide: ListService, useExisting: UserPermissionListService,
}&#45;&gt;UserPermissionListComponent</title>
<path fill="none" stroke="black" d="M804,-166.54C804,-166.54 804,-187.21 804,-187.21"/>
<polygon fill="black" stroke="black" points="800.5,-187.21 804,-197.21 807.5,-187.21 800.5,-187.21"/>
</g>
<!-- I18nModule -->
<g id="node5" class="node">
<title>I18nModule</title>
<polygon fill="#8dd3c7" stroke="black" points="329.71,-233.59 326.71,-237.59 305.71,-237.59 302.71,-233.59 244.29,-233.59 244.29,-197.59 329.71,-197.59 329.71,-233.59"/>
<text text-anchor="middle" x="287" y="-211.39" font-family="Times,serif" font-size="14.00">I18nModule</text>
</g>
<!-- I18nModule&#45;&gt;UserPermissionListModule -->
<g id="edge4" class="edge">
<title>I18nModule&#45;&gt;UserPermissionListModule</title>
<path fill="none" stroke="black" d="M287,-233.7C287,-233.7 287,-252.58 287,-252.58"/>
<polygon fill="black" stroke="black" points="283.5,-252.58 287,-262.58 290.5,-252.58 283.5,-252.58"/>
</g>
<!-- ListModule -->
<g id="node6" class="node">
<title>ListModule</title>
<polygon fill="#8dd3c7" stroke="black" points="226.83,-233.59 223.83,-237.59 202.83,-237.59 199.83,-233.59 145.17,-233.59 145.17,-197.59 226.83,-197.59 226.83,-233.59"/>
<text text-anchor="middle" x="186" y="-211.39" font-family="Times,serif" font-size="14.00">ListModule</text>
</g>
<!-- ListModule&#45;&gt;UserPermissionListModule -->
<g id="edge5" class="edge">
<title>ListModule&#45;&gt;UserPermissionListModule</title>
<path fill="none" stroke="black" d="M214.34,-233.7C214.34,-233.7 214.34,-252.58 214.34,-252.58"/>
<polygon fill="black" stroke="black" points="210.84,-252.58 214.34,-262.58 217.84,-252.58 210.84,-252.58"/>
</g>
<!-- SubListModule -->
<g id="node7" class="node">
<title>SubListModule</title>
<polygon fill="#8dd3c7" stroke="black" points="127.61,-233.59 124.61,-237.59 103.61,-237.59 100.61,-233.59 24.39,-233.59 24.39,-197.59 127.61,-197.59 127.61,-233.59"/>
<text text-anchor="middle" x="76" y="-211.39" font-family="Times,serif" font-size="14.00">SubListModule</text>
</g>
<!-- SubListModule&#45;&gt;UserPermissionListModule -->
<g id="edge6" class="edge">
<title>SubListModule&#45;&gt;UserPermissionListModule</title>
<path fill="none" stroke="black" d="M76,-233.7C76,-252.93 76,-280.59 76,-280.59 76,-280.59 191.79,-280.59 191.79,-280.59"/>
<polygon fill="black" stroke="black" points="191.79,-284.09 201.79,-280.59 191.79,-277.09 191.79,-284.09"/>
</g>
</g>
</svg>
