<?xml version="1.0" encoding="UTF-8" standalone="no"?>
<!DOCTYPE svg PUBLIC "-//W3C//DTD SVG 1.1//EN"
 "http://www.w3.org/Graphics/SVG/1.1/DTD/svg11.dtd">
<!-- Generated by graphviz version 2.47.3 (20210619.1520)
 -->
<!-- Title: dependencies Pages: 1 -->
<svg width="840pt" height="174pt"
 viewBox="0.00 0.00 840.00 173.80" xmlns="http://www.w3.org/2000/svg" xmlns:xlink="http://www.w3.org/1999/xlink">
<g id="graph0" class="graph" transform="scale(1 1) rotate(0) translate(4 169.8)">
<title>dependencies</title>
<polygon fill="white" stroke="transparent" points="-4,4 -4,-169.8 836,-169.8 836,4 -4,4"/>
<text text-anchor="middle" x="416" y="-8.2" font-family="sans-serif" font-size="14.00">dependencies</text>
<g id="clust1" class="cluster">
<title>cluster_UserPermissionListModule</title>
<polygon fill="none" stroke="black" stroke-dasharray="1,5" points="8,-32.8 8,-157.8 824,-157.8 824,-32.8 8,-32.8"/>
</g>
<g id="clust2" class="cluster">
<title>cluster_UserPermissionListModule_declarations</title>
<polygon fill="none" stroke="black" points="346,-40.8 346,-92.8 816,-92.8 816,-40.8 346,-40.8"/>
</g>
<g id="clust5" class="cluster">
<title>cluster_UserPermissionListModule_imports</title>
<polygon fill="none" stroke="black" points="16,-40.8 16,-92.8 338,-92.8 338,-40.8 16,-40.8"/>
</g>
<!-- UserAssignedPermissionListComponent -->
<g id="node1" class="node">
<title>UserAssignedPermissionListComponent</title>
<polygon fill="#ffffb3" stroke="black" points="807.86,-84.8 564.14,-84.8 564.14,-48.8 807.86,-48.8 807.86,-84.8"/>
<text text-anchor="middle" x="686" y="-62.6" font-family="Times,serif" font-size="14.00">UserAssignedPermissionListComponent</text>
</g>
<!-- UserPermissionListModule -->
<g id="node3" class="node">
<title>UserPermissionListModule</title>
<polygon fill="#8dd3c7" stroke="black" points="371.97,-149.8 368.97,-153.8 347.97,-153.8 344.97,-149.8 202.03,-149.8 202.03,-113.8 371.97,-113.8 371.97,-149.8"/>
<text text-anchor="middle" x="287" y="-127.6" font-family="Times,serif" font-size="14.00">UserPermissionListModule</text>
</g>
<!-- UserAssignedPermissionListComponent&#45;&gt;UserPermissionListModule -->
<g id="edge1" class="edge">
<title>UserAssignedPermissionListComponent&#45;&gt;UserPermissionListModule</title>
<path fill="none" stroke="black" d="M686,-84.91C686,-104.14 686,-131.8 686,-131.8 686,-131.8 382.11,-131.8 382.11,-131.8"/>
<polygon fill="black" stroke="black" points="382.11,-128.3 372.11,-131.8 382.11,-135.3 382.11,-128.3"/>
</g>
<!-- UserPermissionListComponent -->
<g id="node2" class="node">
<title>UserPermissionListComponent</title>
<polygon fill="#ffffb3" stroke="black" points="545.76,-84.8 354.24,-84.8 354.24,-48.8 545.76,-48.8 545.76,-84.8"/>
<text text-anchor="middle" x="450" y="-62.6" font-family="Times,serif" font-size="14.00">UserPermissionListComponent</text>
</g>
<!-- UserPermissionListComponent&#45;&gt;UserPermissionListModule -->
<g id="edge2" class="edge">
<title>UserPermissionListComponent&#45;&gt;UserPermissionListModule</title>
<path fill="none" stroke="black" d="M363.05,-84.91C363.05,-84.91 363.05,-103.79 363.05,-103.79"/>
<polygon fill="black" stroke="black" points="359.55,-103.79 363.05,-113.79 366.55,-103.79 359.55,-103.79"/>
</g>
<!-- I18nModule -->
<g id="node4" class="node">
<title>I18nModule</title>
<polygon fill="#8dd3c7" stroke="black" points="329.71,-84.8 326.71,-88.8 305.71,-88.8 302.71,-84.8 244.29,-84.8 244.29,-48.8 329.71,-48.8 329.71,-84.8"/>
<text text-anchor="middle" x="287" y="-62.6" font-family="Times,serif" font-size="14.00">I18nModule</text>
</g>
<!-- I18nModule&#45;&gt;UserPermissionListModule -->
<g id="edge3" class="edge">
<title>I18nModule&#45;&gt;UserPermissionListModule</title>
<path fill="none" stroke="black" d="M287,-84.91C287,-84.91 287,-103.79 287,-103.79"/>
<polygon fill="black" stroke="black" points="283.5,-103.79 287,-113.79 290.5,-103.79 283.5,-103.79"/>
</g>
<!-- ListModule -->
<g id="node5" class="node">
<title>ListModule</title>
<polygon fill="#8dd3c7" stroke="black" points="226.83,-84.8 223.83,-88.8 202.83,-88.8 199.83,-84.8 145.17,-84.8 145.17,-48.8 226.83,-48.8 226.83,-84.8"/>
<text text-anchor="middle" x="186" y="-62.6" font-family="Times,serif" font-size="14.00">ListModule</text>
</g>
<!-- ListModule&#45;&gt;UserPermissionListModule -->
<g id="edge4" class="edge">
<title>ListModule&#45;&gt;UserPermissionListModule</title>
<path fill="none" stroke="black" d="M214.34,-84.91C214.34,-84.91 214.34,-103.79 214.34,-103.79"/>
<polygon fill="black" stroke="black" points="210.84,-103.79 214.34,-113.79 217.84,-103.79 210.84,-103.79"/>
</g>
<!-- SubListModule -->
<g id="node6" class="node">
<title>SubListModule</title>
<polygon fill="#8dd3c7" stroke="black" points="127.61,-84.8 124.61,-88.8 103.61,-88.8 100.61,-84.8 24.39,-84.8 24.39,-48.8 127.61,-48.8 127.61,-84.8"/>
<text text-anchor="middle" x="76" y="-62.6" font-family="Times,serif" font-size="14.00">SubListModule</text>
</g>
<!-- SubListModule&#45;&gt;UserPermissionListModule -->
<g id="edge5" class="edge">
<title>SubListModule&#45;&gt;UserPermissionListModule</title>
<path fill="none" stroke="black" d="M76,-84.91C76,-104.14 76,-131.8 76,-131.8 76,-131.8 191.79,-131.8 191.79,-131.8"/>
<polygon fill="black" stroke="black" points="191.79,-135.3 201.79,-131.8 191.79,-128.3 191.79,-135.3"/>
</g>
</g>
</svg>
