<?xml version="1.0" encoding="UTF-8" standalone="no"?>
<!DOCTYPE svg PUBLIC "-//W3C//DTD SVG 1.1//EN"
 "http://www.w3.org/Graphics/SVG/1.1/DTD/svg11.dtd">
<!-- Generated by graphviz version 2.40.1 (20161225.0304)
 -->
<!-- Title: dependencies Pages: 1 -->
<svg width="504pt" height="211pt"
 viewBox="0.00 0.00 504.00 211.00" xmlns="http://www.w3.org/2000/svg" xmlns:xlink="http://www.w3.org/1999/xlink">
<g id="graph0" class="graph" transform="scale(1 1) rotate(0) translate(4 207)">
<title>dependencies</title>
<polygon fill="#ffffff" stroke="transparent" points="-4,4 -4,-207 500,-207 500,4 -4,4"/>
<text text-anchor="start" x="227.0091" y="-42.4" font-family="sans-serif" font-weight="bold" font-size="14.00" fill="#000000">Legend</text>
<polygon fill="#ffffb3" stroke="transparent" points="14,-10 14,-30 34,-30 34,-10 14,-10"/>
<text text-anchor="start" x="37.629" y="-15.4" font-family="sans-serif" font-size="14.00" fill="#000000"> &#160;Declarations</text>
<polygon fill="#8dd3c7" stroke="transparent" points="127,-10 127,-30 147,-30 147,-10 127,-10"/>
<text text-anchor="start" x="150.7251" y="-15.4" font-family="sans-serif" font-size="14.00" fill="#000000"> &#160;Module</text>
<polygon fill="#80b1d3" stroke="transparent" points="213,-10 213,-30 233,-30 233,-10 213,-10"/>
<text text-anchor="start" x="236.7812" y="-15.4" font-family="sans-serif" font-size="14.00" fill="#000000"> &#160;Bootstrap</text>
<polygon fill="#fdb462" stroke="transparent" points="310,-10 310,-30 330,-30 330,-10 310,-10"/>
<text text-anchor="start" x="333.6732" y="-15.4" font-family="sans-serif" font-size="14.00" fill="#000000"> &#160;Providers</text>
<polygon fill="#fb8072" stroke="transparent" points="406,-10 406,-30 426,-30 426,-10 406,-10"/>
<text text-anchor="start" x="429.7258" y="-15.4" font-family="sans-serif" font-size="14.00" fill="#000000"> &#160;Exports</text>
<g id="clust1" class="cluster">
<title>cluster_CdcModule</title>
<polygon fill="none" stroke="#000000" stroke-dasharray="1,5" points="177,-70 177,-195 319,-195 319,-70 177,-70"/>
</g>
<g id="clust3" class="cluster">
<title>cluster_CdcModule_imports</title>
<polygon fill="none" stroke="#000000" points="185,-78 185,-130 311,-130 311,-78 185,-78"/>
</g>
<!-- CdcCoreModule -->
<g id="node1" class="node">
<title>CdcCoreModule</title>
<polygon fill="#8dd3c7" stroke="#000000" points="302.8132,-122 299.8132,-126 278.8132,-126 275.8132,-122 193.1868,-122 193.1868,-86 302.8132,-86 302.8132,-122"/>
<text text-anchor="middle" x="248" y="-99.8" font-family="Times,serif" font-size="14.00" fill="#000000">CdcCoreModule</text>
</g>
<!-- CdcModule -->
<g id="node2" class="node">
<title>CdcModule</title>
<polygon fill="#8dd3c7" stroke="#000000" points="289.1011,-187 286.1011,-191 265.1011,-191 262.1011,-187 206.8989,-187 206.8989,-151 289.1011,-151 289.1011,-187"/>
<text text-anchor="middle" x="248" y="-164.8" font-family="Times,serif" font-size="14.00" fill="#000000">CdcModule</text>
</g>
<!-- CdcCoreModule&#45;&gt;CdcModule -->
<g id="edge1" class="edge">
<title>CdcCoreModule&#45;&gt;CdcModule</title>
<path fill="none" stroke="#000000" d="M248,-122.1061C248,-122.1061 248,-140.991 248,-140.991"/>
<polygon fill="#000000" stroke="#000000" points="244.5001,-140.9909 248,-150.991 251.5001,-140.991 244.5001,-140.9909"/>
</g>
</g>
</svg>
