<?xml version="1.0" encoding="UTF-8" standalone="no"?>
<!DOCTYPE svg PUBLIC "-//W3C//DTD SVG 1.1//EN"
 "http://www.w3.org/Graphics/SVG/1.1/DTD/svg11.dtd">
<!-- Generated by graphviz version 2.44.1 (20200629.0846)
 -->
<!-- Title: dependencies Pages: 1 -->
<svg width="504pt" height="211pt"
 viewBox="0.00 0.00 504.00 211.00" xmlns="http://www.w3.org/2000/svg" xmlns:xlink="http://www.w3.org/1999/xlink">
<g id="graph0" class="graph" transform="scale(1 1) rotate(0) translate(4 207)">
<title>dependencies</title>
<polygon fill="white" stroke="transparent" points="-4,4 -4,-207 500,-207 500,4 -4,4"/>
<text text-anchor="start" x="227.01" y="-42.4" font-family="sans-serif" font-weight="bold" font-size="14.00">Legend</text>
<polygon fill="#ffffb3" stroke="transparent" points="14,-10 14,-30 34,-30 34,-10 14,-10"/>
<text text-anchor="start" x="37.63" y="-15.4" font-family="sans-serif" font-size="14.00"> &#160;Declarations</text>
<polygon fill="#8dd3c7" stroke="transparent" points="127,-10 127,-30 147,-30 147,-10 127,-10"/>
<text text-anchor="start" x="150.73" y="-15.4" font-family="sans-serif" font-size="14.00"> &#160;Module</text>
<polygon fill="#80b1d3" stroke="transparent" points="213,-10 213,-30 233,-30 233,-10 213,-10"/>
<text text-anchor="start" x="236.78" y="-15.4" font-family="sans-serif" font-size="14.00"> &#160;Bootstrap</text>
<polygon fill="#fdb462" stroke="transparent" points="310,-10 310,-30 330,-30 330,-10 310,-10"/>
<text text-anchor="start" x="333.67" y="-15.4" font-family="sans-serif" font-size="14.00"> &#160;Providers</text>
<polygon fill="#fb8072" stroke="transparent" points="406,-10 406,-30 426,-30 426,-10 406,-10"/>
<text text-anchor="start" x="429.73" y="-15.4" font-family="sans-serif" font-size="14.00"> &#160;Exports</text>
<g id="clust1" class="cluster">
<title>cluster_CdcModule</title>
<polygon fill="none" stroke="black" stroke-dasharray="1,5" points="107.5,-70 107.5,-195 388.5,-195 388.5,-70 107.5,-70"/>
</g>
<g id="clust3" class="cluster">
<title>cluster_CdcModule_imports</title>
<polygon fill="none" stroke="black" points="115.5,-78 115.5,-130 380.5,-130 380.5,-78 115.5,-78"/>
</g>
<!-- CdcAuthModule -->
<g id="node1" class="node">
<title>CdcAuthModule</title>
<polygon fill="#8dd3c7" stroke="black" points="372.6,-122 369.6,-126 348.6,-126 345.6,-122 262.4,-122 262.4,-86 372.6,-86 372.6,-122"/>
<text text-anchor="middle" x="317.5" y="-99.8" font-family="Times,serif" font-size="14.00">CdcAuthModule</text>
</g>
<!-- CdcModule -->
<g id="node3" class="node">
<title>CdcModule</title>
<polygon fill="#8dd3c7" stroke="black" points="291.6,-187 288.6,-191 267.6,-191 264.6,-187 209.4,-187 209.4,-151 291.6,-151 291.6,-187"/>
<text text-anchor="middle" x="250.5" y="-164.8" font-family="Times,serif" font-size="14.00">CdcModule</text>
</g>
<!-- CdcAuthModule&#45;&gt;CdcModule -->
<g id="edge1" class="edge">
<title>CdcAuthModule&#45;&gt;CdcModule</title>
<path fill="none" stroke="black" d="M277,-122.11C277,-122.11 277,-140.99 277,-140.99"/>
<polygon fill="black" stroke="black" points="273.5,-140.99 277,-150.99 280.5,-140.99 273.5,-140.99"/>
</g>
<!-- GigyaRaasModule -->
<g id="node2" class="node">
<title>GigyaRaasModule</title>
<polygon fill="#8dd3c7" stroke="black" points="243.97,-122 240.97,-126 219.97,-126 216.97,-122 123.03,-122 123.03,-86 243.97,-86 243.97,-122"/>
<text text-anchor="middle" x="183.5" y="-99.8" font-family="Times,serif" font-size="14.00">GigyaRaasModule</text>
</g>
<!-- GigyaRaasModule&#45;&gt;CdcModule -->
<g id="edge2" class="edge">
<title>GigyaRaasModule&#45;&gt;CdcModule</title>
<path fill="none" stroke="black" d="M226.72,-122.11C226.72,-122.11 226.72,-140.99 226.72,-140.99"/>
<polygon fill="black" stroke="black" points="223.22,-140.99 226.72,-150.99 230.22,-140.99 223.22,-140.99"/>
</g>
</g>
</svg>
