<?xml version="1.0" encoding="UTF-8" standalone="no"?>
<!DOCTYPE svg PUBLIC "-//W3C//DTD SVG 1.1//EN"
 "http://www.w3.org/Graphics/SVG/1.1/DTD/svg11.dtd">
<!-- Generated by graphviz version 2.47.3 (20210619.1520)
 -->
<!-- Title: dependencies Pages: 1 -->
<svg width="734pt" height="247pt"
 viewBox="0.00 0.00 734.00 246.80" xmlns="http://www.w3.org/2000/svg" xmlns:xlink="http://www.w3.org/1999/xlink">
<g id="graph0" class="graph" transform="scale(1 1) rotate(0) translate(4 242.8)">
<title>dependencies</title>
<polygon fill="white" stroke="transparent" points="-4,4 -4,-242.8 730,-242.8 730,4 -4,4"/>
<text text-anchor="middle" x="363" y="-8.2" font-family="sans-serif" font-size="14.00">dependencies</text>
<g id="clust1" class="cluster">
<title>cluster_ConfiguratorAttributeQuantityModule</title>
<polygon fill="none" stroke="black" stroke-dasharray="1,5" points="8,-32.8 8,-230.8 718,-230.8 718,-32.8 8,-32.8"/>
</g>
<g id="clust5" class="cluster">
<title>cluster_ConfiguratorAttributeQuantityModule_exports</title>
<polygon fill="none" stroke="black" points="318,-170.8 318,-222.8 590,-222.8 590,-170.8 318,-170.8"/>
</g>
<g id="clust4" class="cluster">
<title>cluster_ConfiguratorAttributeQuantityModule_imports</title>
<polygon fill="none" stroke="black" points="294,-40.8 294,-92.8 710,-92.8 710,-40.8 294,-40.8"/>
</g>
<g id="clust2" class="cluster">
<title>cluster_ConfiguratorAttributeQuantityModule_declarations</title>
<polygon fill="none" stroke="black" points="16,-40.8 16,-92.8 286,-92.8 286,-40.8 16,-40.8"/>
</g>
<!-- ConfiguratorAttributeQuantityComponent -->
<g id="node1" class="node">
<title>ConfiguratorAttributeQuantityComponent</title>
<polygon fill="#ffffb3" stroke="black" points="277.68,-84.8 24.32,-84.8 24.32,-48.8 277.68,-48.8 277.68,-84.8"/>
<text text-anchor="middle" x="151" y="-62.6" font-family="Times,serif" font-size="14.00">ConfiguratorAttributeQuantityComponent</text>
</g>
<!-- ConfiguratorAttributeQuantityModule -->
<g id="node2" class="node">
<title>ConfiguratorAttributeQuantityModule</title>
<polygon fill="#8dd3c7" stroke="black" points="569.9,-149.8 566.9,-153.8 545.9,-153.8 542.9,-149.8 338.1,-149.8 338.1,-113.8 569.9,-113.8 569.9,-149.8"/>
<text text-anchor="middle" x="454" y="-127.6" font-family="Times,serif" font-size="14.00">ConfiguratorAttributeQuantityModule</text>
</g>
<!-- ConfiguratorAttributeQuantityComponent&#45;&gt;ConfiguratorAttributeQuantityModule -->
<g id="edge1" class="edge">
<title>ConfiguratorAttributeQuantityComponent&#45;&gt;ConfiguratorAttributeQuantityModule</title>
<path fill="none" stroke="black" d="M151,-84.91C151,-104.14 151,-131.8 151,-131.8 151,-131.8 328.15,-131.8 328.15,-131.8"/>
<polygon fill="black" stroke="black" points="328.15,-135.3 338.15,-131.8 328.15,-128.3 328.15,-135.3"/>
</g>
<!-- ConfiguratorAttributeQuantityComponent  -->
<g id="node6" class="node">
<title>ConfiguratorAttributeQuantityComponent </title>
<polygon fill="#fb8072" stroke="black" points="582.18,-214.8 325.82,-214.8 325.82,-178.8 582.18,-178.8 582.18,-214.8"/>
<text text-anchor="middle" x="454" y="-192.6" font-family="Times,serif" font-size="14.00">ConfiguratorAttributeQuantityComponent </text>
</g>
<!-- ConfiguratorAttributeQuantityModule&#45;&gt;ConfiguratorAttributeQuantityComponent  -->
<g id="edge5" class="edge">
<title>ConfiguratorAttributeQuantityModule&#45;&gt;ConfiguratorAttributeQuantityComponent </title>
<path fill="none" stroke="black" stroke-dasharray="5,2" d="M454,-149.91C454,-149.91 454,-168.79 454,-168.79"/>
<polygon fill="black" stroke="black" points="450.5,-168.79 454,-178.79 457.5,-168.79 450.5,-168.79"/>
</g>
<!-- I18nModule -->
<g id="node3" class="node">
<title>I18nModule</title>
<polygon fill="#8dd3c7" stroke="black" points="701.71,-84.8 698.71,-88.8 677.71,-88.8 674.71,-84.8 616.29,-84.8 616.29,-48.8 701.71,-48.8 701.71,-84.8"/>
<text text-anchor="middle" x="659" y="-62.6" font-family="Times,serif" font-size="14.00">I18nModule</text>
</g>
<!-- I18nModule&#45;&gt;ConfiguratorAttributeQuantityModule -->
<g id="edge2" class="edge">
<title>I18nModule&#45;&gt;ConfiguratorAttributeQuantityModule</title>
<path fill="none" stroke="black" d="M659,-84.91C659,-104.14 659,-131.8 659,-131.8 659,-131.8 579.98,-131.8 579.98,-131.8"/>
<polygon fill="black" stroke="black" points="579.98,-128.3 569.98,-131.8 579.98,-135.3 579.98,-128.3"/>
</g>
<!-- ItemCounterModule -->
<g id="node4" class="node">
<title>ItemCounterModule</title>
<polygon fill="#8dd3c7" stroke="black" points="598.31,-84.8 595.31,-88.8 574.31,-88.8 571.31,-84.8 467.69,-84.8 467.69,-48.8 598.31,-48.8 598.31,-84.8"/>
<text text-anchor="middle" x="533" y="-62.6" font-family="Times,serif" font-size="14.00">ItemCounterModule</text>
</g>
<!-- ItemCounterModule&#45;&gt;ConfiguratorAttributeQuantityModule -->
<g id="edge3" class="edge">
<title>ItemCounterModule&#45;&gt;ConfiguratorAttributeQuantityModule</title>
<path fill="none" stroke="black" d="M518.77,-84.91C518.77,-84.91 518.77,-103.79 518.77,-103.79"/>
<polygon fill="black" stroke="black" points="515.27,-103.79 518.77,-113.79 522.27,-103.79 515.27,-103.79"/>
</g>
<!-- KeyboardFocusModule -->
<g id="node5" class="node">
<title>KeyboardFocusModule</title>
<polygon fill="#8dd3c7" stroke="black" points="450.19,-84.8 447.19,-88.8 426.19,-88.8 423.19,-84.8 301.81,-84.8 301.81,-48.8 450.19,-48.8 450.19,-84.8"/>
<text text-anchor="middle" x="376" y="-62.6" font-family="Times,serif" font-size="14.00">KeyboardFocusModule</text>
</g>
<!-- KeyboardFocusModule&#45;&gt;ConfiguratorAttributeQuantityModule -->
<g id="edge4" class="edge">
<title>KeyboardFocusModule&#45;&gt;ConfiguratorAttributeQuantityModule</title>
<path fill="none" stroke="black" d="M394.2,-84.91C394.2,-84.91 394.2,-103.79 394.2,-103.79"/>
<polygon fill="black" stroke="black" points="390.7,-103.79 394.2,-113.79 397.7,-103.79 390.7,-103.79"/>
</g>
</g>
</svg>
