<?xml version="1.0" encoding="UTF-8" standalone="no"?>
<!DOCTYPE svg PUBLIC "-//W3C//DTD SVG 1.1//EN"
 "http://www.w3.org/Graphics/SVG/1.1/DTD/svg11.dtd">
<!-- Generated by graphviz version 2.47.0 (20210316.0004)
 -->
<!-- Title: dependencies Pages: 1 -->
<svg width="734pt" height="284pt"
 viewBox="0.00 0.00 734.00 284.00" xmlns="http://www.w3.org/2000/svg" xmlns:xlink="http://www.w3.org/1999/xlink">
<g id="graph0" class="graph" transform="scale(1 1) rotate(0) translate(4 280)">
<title>dependencies</title>
<polygon fill="white" stroke="transparent" points="-4,4 -4,-280 730,-280 730,4 -4,4"/>
<text text-anchor="start" x="342.01" y="-42.4" font-family="sans-serif" font-weight="bold" font-size="14.00">Legend</text>
<polygon fill="#ffffb3" stroke="transparent" points="129,-10 129,-30 149,-30 149,-10 129,-10"/>
<text text-anchor="start" x="152.63" y="-15.4" font-family="sans-serif" font-size="14.00"> &#160;Declarations</text>
<polygon fill="#8dd3c7" stroke="transparent" points="242,-10 242,-30 262,-30 262,-10 242,-10"/>
<text text-anchor="start" x="265.73" y="-15.4" font-family="sans-serif" font-size="14.00"> &#160;Module</text>
<polygon fill="#80b1d3" stroke="transparent" points="328,-10 328,-30 348,-30 348,-10 328,-10"/>
<text text-anchor="start" x="351.78" y="-15.4" font-family="sans-serif" font-size="14.00"> &#160;Bootstrap</text>
<polygon fill="#fdb462" stroke="transparent" points="425,-10 425,-30 445,-30 445,-10 425,-10"/>
<text text-anchor="start" x="448.67" y="-15.4" font-family="sans-serif" font-size="14.00"> &#160;Providers</text>
<polygon fill="#fb8072" stroke="transparent" points="521,-10 521,-30 541,-30 541,-10 521,-10"/>
<text text-anchor="start" x="544.73" y="-15.4" font-family="sans-serif" font-size="14.00"> &#160;Exports</text>
<g id="clust1" class="cluster">
<title>cluster_ConfiguratorAttributeQuantityModule</title>
<polygon fill="none" stroke="black" stroke-dasharray="1,5" points="8,-70 8,-268 718,-268 718,-70 8,-70"/>
</g>
<g id="clust4" class="cluster">
<title>cluster_ConfiguratorAttributeQuantityModule_imports</title>
<polygon fill="none" stroke="black" points="294,-78 294,-130 710,-130 710,-78 294,-78"/>
</g>
<g id="clust5" class="cluster">
<title>cluster_ConfiguratorAttributeQuantityModule_exports</title>
<polygon fill="none" stroke="black" points="318,-208 318,-260 590,-260 590,-208 318,-208"/>
</g>
<g id="clust2" class="cluster">
<title>cluster_ConfiguratorAttributeQuantityModule_declarations</title>
<polygon fill="none" stroke="black" points="16,-78 16,-130 286,-130 286,-78 16,-78"/>
</g>
<!-- ConfiguratorAttributeQuantityComponent -->
<g id="node1" class="node">
<title>ConfiguratorAttributeQuantityComponent</title>
<polygon fill="#ffffb3" stroke="black" points="277.68,-122 24.32,-122 24.32,-86 277.68,-86 277.68,-122"/>
<text text-anchor="middle" x="151" y="-99.8" font-family="Times,serif" font-size="14.00">ConfiguratorAttributeQuantityComponent</text>
</g>
<!-- ConfiguratorAttributeQuantityModule -->
<g id="node2" class="node">
<title>ConfiguratorAttributeQuantityModule</title>
<polygon fill="#8dd3c7" stroke="black" points="569.9,-187 566.9,-191 545.9,-191 542.9,-187 338.1,-187 338.1,-151 569.9,-151 569.9,-187"/>
<text text-anchor="middle" x="454" y="-164.8" font-family="Times,serif" font-size="14.00">ConfiguratorAttributeQuantityModule</text>
</g>
<!-- ConfiguratorAttributeQuantityComponent&#45;&gt;ConfiguratorAttributeQuantityModule -->
<g id="edge1" class="edge">
<title>ConfiguratorAttributeQuantityComponent&#45;&gt;ConfiguratorAttributeQuantityModule</title>
<path fill="none" stroke="black" d="M151,-122.11C151,-141.34 151,-169 151,-169 151,-169 328.15,-169 328.15,-169"/>
<polygon fill="black" stroke="black" points="328.15,-172.5 338.15,-169 328.15,-165.5 328.15,-172.5"/>
</g>
<!-- ConfiguratorAttributeQuantityComponent  -->
<g id="node6" class="node">
<title>ConfiguratorAttributeQuantityComponent </title>
<polygon fill="#fb8072" stroke="black" points="582.18,-252 325.82,-252 325.82,-216 582.18,-216 582.18,-252"/>
<text text-anchor="middle" x="454" y="-229.8" font-family="Times,serif" font-size="14.00">ConfiguratorAttributeQuantityComponent </text>
</g>
<!-- ConfiguratorAttributeQuantityModule&#45;&gt;ConfiguratorAttributeQuantityComponent  -->
<g id="edge5" class="edge">
<title>ConfiguratorAttributeQuantityModule&#45;&gt;ConfiguratorAttributeQuantityComponent </title>
<path fill="none" stroke="black" stroke-dasharray="5,2" d="M454,-187.11C454,-187.11 454,-205.99 454,-205.99"/>
<polygon fill="black" stroke="black" points="450.5,-205.99 454,-215.99 457.5,-205.99 450.5,-205.99"/>
</g>
<!-- I18nModule -->
<g id="node3" class="node">
<title>I18nModule</title>
<polygon fill="#8dd3c7" stroke="black" points="701.71,-122 698.71,-126 677.71,-126 674.71,-122 616.29,-122 616.29,-86 701.71,-86 701.71,-122"/>
<text text-anchor="middle" x="659" y="-99.8" font-family="Times,serif" font-size="14.00">I18nModule</text>
</g>
<!-- I18nModule&#45;&gt;ConfiguratorAttributeQuantityModule -->
<g id="edge2" class="edge">
<title>I18nModule&#45;&gt;ConfiguratorAttributeQuantityModule</title>
<path fill="none" stroke="black" d="M659,-122.11C659,-141.34 659,-169 659,-169 659,-169 579.98,-169 579.98,-169"/>
<polygon fill="black" stroke="black" points="579.98,-165.5 569.98,-169 579.98,-172.5 579.98,-165.5"/>
</g>
<!-- ItemCounterModule -->
<g id="node4" class="node">
<title>ItemCounterModule</title>
<polygon fill="#8dd3c7" stroke="black" points="598.31,-122 595.31,-126 574.31,-126 571.31,-122 467.69,-122 467.69,-86 598.31,-86 598.31,-122"/>
<text text-anchor="middle" x="533" y="-99.8" font-family="Times,serif" font-size="14.00">ItemCounterModule</text>
</g>
<!-- ItemCounterModule&#45;&gt;ConfiguratorAttributeQuantityModule -->
<g id="edge3" class="edge">
<title>ItemCounterModule&#45;&gt;ConfiguratorAttributeQuantityModule</title>
<path fill="none" stroke="black" d="M518.77,-122.11C518.77,-122.11 518.77,-140.99 518.77,-140.99"/>
<polygon fill="black" stroke="black" points="515.27,-140.99 518.77,-150.99 522.27,-140.99 515.27,-140.99"/>
</g>
<!-- KeyboardFocusModule -->
<g id="node5" class="node">
<title>KeyboardFocusModule</title>
<polygon fill="#8dd3c7" stroke="black" points="450.19,-122 447.19,-126 426.19,-126 423.19,-122 301.81,-122 301.81,-86 450.19,-86 450.19,-122"/>
<text text-anchor="middle" x="376" y="-99.8" font-family="Times,serif" font-size="14.00">KeyboardFocusModule</text>
</g>
<!-- KeyboardFocusModule&#45;&gt;ConfiguratorAttributeQuantityModule -->
<g id="edge4" class="edge">
<title>KeyboardFocusModule&#45;&gt;ConfiguratorAttributeQuantityModule</title>
<path fill="none" stroke="black" d="M394.2,-122.11C394.2,-122.11 394.2,-140.99 394.2,-140.99"/>
<polygon fill="black" stroke="black" points="390.7,-140.99 394.2,-150.99 397.7,-140.99 390.7,-140.99"/>
</g>
</g>
</svg>
