<?xml version="1.0" encoding="UTF-8" standalone="no"?>
<!DOCTYPE svg PUBLIC "-//W3C//DTD SVG 1.1//EN"
 "http://www.w3.org/Graphics/SVG/1.1/DTD/svg11.dtd">
<!-- Generated by graphviz version 2.40.1 (20161225.0304)
 -->
<!-- Title: dependencies Pages: 1 -->
<svg width="978pt" height="284pt"
 viewBox="0.00 0.00 978.00 284.00" xmlns="http://www.w3.org/2000/svg" xmlns:xlink="http://www.w3.org/1999/xlink">
<g id="graph0" class="graph" transform="scale(1 1) rotate(0) translate(4 280)">
<title>dependencies</title>
<polygon fill="#ffffff" stroke="transparent" points="-4,4 -4,-280 974,-280 974,4 -4,4"/>
<text text-anchor="start" x="464.0091" y="-42.4" font-family="sans-serif" font-weight="bold" font-size="14.00" fill="#000000">Legend</text>
<polygon fill="#ffffb3" stroke="transparent" points="251,-10 251,-30 271,-30 271,-10 251,-10"/>
<text text-anchor="start" x="274.629" y="-15.4" font-family="sans-serif" font-size="14.00" fill="#000000"> &#160;Declarations</text>
<polygon fill="#8dd3c7" stroke="transparent" points="364,-10 364,-30 384,-30 384,-10 364,-10"/>
<text text-anchor="start" x="387.7251" y="-15.4" font-family="sans-serif" font-size="14.00" fill="#000000"> &#160;Module</text>
<polygon fill="#80b1d3" stroke="transparent" points="450,-10 450,-30 470,-30 470,-10 450,-10"/>
<text text-anchor="start" x="473.7812" y="-15.4" font-family="sans-serif" font-size="14.00" fill="#000000"> &#160;Bootstrap</text>
<polygon fill="#fdb462" stroke="transparent" points="547,-10 547,-30 567,-30 567,-10 547,-10"/>
<text text-anchor="start" x="570.6732" y="-15.4" font-family="sans-serif" font-size="14.00" fill="#000000"> &#160;Providers</text>
<polygon fill="#fb8072" stroke="transparent" points="643,-10 643,-30 663,-30 663,-10 643,-10"/>
<text text-anchor="start" x="666.7258" y="-15.4" font-family="sans-serif" font-size="14.00" fill="#000000"> &#160;Exports</text>
<g id="clust1" class="cluster">
<title>cluster_CloseAccountModule</title>
<polygon fill="none" stroke="#000000" stroke-dasharray="1,5" points="8,-70 8,-268 962,-268 962,-70 8,-70"/>
</g>
<g id="clust2" class="cluster">
<title>cluster_CloseAccountModule_declarations</title>
<polygon fill="none" stroke="#000000" points="562,-78 562,-130 954,-130 954,-78 562,-78"/>
</g>
<g id="clust5" class="cluster">
<title>cluster_CloseAccountModule_imports</title>
<polygon fill="none" stroke="#000000" points="16,-78 16,-130 554,-130 554,-78 16,-78"/>
</g>
<g id="clust6" class="cluster">
<title>cluster_CloseAccountModule_exports</title>
<polygon fill="none" stroke="#000000" points="179,-208 179,-260 577,-260 577,-208 179,-208"/>
</g>
<!-- CloseAccountComponent -->
<g id="node1" class="node">
<title>CloseAccountComponent</title>
<polygon fill="#ffffb3" stroke="#000000" points="946.1456,-122 785.8544,-122 785.8544,-86 946.1456,-86 946.1456,-122"/>
<text text-anchor="middle" x="866" y="-99.8" font-family="Times,serif" font-size="14.00" fill="#000000">CloseAccountComponent</text>
</g>
<!-- CloseAccountModule -->
<g id="node3" class="node">
<title>CloseAccountModule</title>
<polygon fill="#8dd3c7" stroke="#000000" points="456.3627,-187 453.3627,-191 432.3627,-191 429.3627,-187 317.6373,-187 317.6373,-151 456.3627,-151 456.3627,-187"/>
<text text-anchor="middle" x="387" y="-164.8" font-family="Times,serif" font-size="14.00" fill="#000000">CloseAccountModule</text>
</g>
<!-- CloseAccountComponent&#45;&gt;CloseAccountModule -->
<g id="edge1" class="edge">
<title>CloseAccountComponent&#45;&gt;CloseAccountModule</title>
<path fill="none" stroke="#000000" d="M866,-122.2843C866,-143.3211 866,-175 866,-175 866,-175 466.3948,-175 466.3948,-175"/>
<polygon fill="#000000" stroke="#000000" points="466.3948,-171.5001 456.3948,-175 466.3947,-178.5001 466.3948,-171.5001"/>
</g>
<!-- CloseAccountModalComponent -->
<g id="node2" class="node">
<title>CloseAccountModalComponent</title>
<polygon fill="#ffffb3" stroke="#000000" points="767.6951,-122 570.3049,-122 570.3049,-86 767.6951,-86 767.6951,-122"/>
<text text-anchor="middle" x="669" y="-99.8" font-family="Times,serif" font-size="14.00" fill="#000000">CloseAccountModalComponent</text>
</g>
<!-- CloseAccountModalComponent&#45;&gt;CloseAccountModule -->
<g id="edge2" class="edge">
<title>CloseAccountModalComponent&#45;&gt;CloseAccountModule</title>
<path fill="none" stroke="#000000" d="M669,-122.0225C669,-139.3734 669,-163 669,-163 669,-163 466.7079,-163 466.7079,-163"/>
<polygon fill="#000000" stroke="#000000" points="466.7079,-159.5001 456.7079,-163 466.7078,-166.5001 466.7079,-159.5001"/>
</g>
<!-- CloseAccountComponent  -->
<g id="node9" class="node">
<title>CloseAccountComponent </title>
<polygon fill="#fb8072" stroke="#000000" points="569.1453,-252 404.8547,-252 404.8547,-216 569.1453,-216 569.1453,-252"/>
<text text-anchor="middle" x="487" y="-229.8" font-family="Times,serif" font-size="14.00" fill="#000000">CloseAccountComponent </text>
</g>
<!-- CloseAccountModule&#45;&gt;CloseAccountComponent  -->
<g id="edge8" class="edge">
<title>CloseAccountModule&#45;&gt;CloseAccountComponent </title>
<path fill="none" stroke="#000000" stroke-dasharray="5,2" d="M430.6794,-187.1061C430.6794,-187.1061 430.6794,-205.991 430.6794,-205.991"/>
<polygon fill="#000000" stroke="#000000" points="427.1794,-205.9909 430.6794,-215.991 434.1794,-205.991 427.1794,-205.9909"/>
</g>
<!-- CloseAccountModalComponent  -->
<g id="node10" class="node">
<title>CloseAccountModalComponent </title>
<polygon fill="#fb8072" stroke="#000000" points="387.1952,-252 186.8048,-252 186.8048,-216 387.1952,-216 387.1952,-252"/>
<text text-anchor="middle" x="287" y="-229.8" font-family="Times,serif" font-size="14.00" fill="#000000">CloseAccountModalComponent </text>
</g>
<!-- CloseAccountModule&#45;&gt;CloseAccountModalComponent  -->
<g id="edge9" class="edge">
<title>CloseAccountModule&#45;&gt;CloseAccountModalComponent </title>
<path fill="none" stroke="#000000" stroke-dasharray="5,2" d="M352.4581,-187.1061C352.4581,-187.1061 352.4581,-205.991 352.4581,-205.991"/>
<polygon fill="#000000" stroke="#000000" points="348.9582,-205.9909 352.4581,-215.991 355.9582,-205.991 348.9582,-205.9909"/>
</g>
<!-- ConfigModule -->
<g id="node4" class="node">
<title>ConfigModule</title>
<polygon fill="#8dd3c7" stroke="#000000" points="546.4386,-122 543.4386,-126 522.4386,-126 519.4386,-122 447.5614,-122 447.5614,-86 546.4386,-86 546.4386,-122"/>
<text text-anchor="middle" x="497" y="-99.8" font-family="Times,serif" font-size="14.00" fill="#000000">ConfigModule</text>
</g>
<!-- ConfigModule&#45;&gt;CloseAccountModule -->
<g id="edge3" class="edge">
<title>ConfigModule&#45;&gt;CloseAccountModule</title>
<path fill="none" stroke="#000000" d="M452.1063,-122.1061C452.1063,-122.1061 452.1063,-140.991 452.1063,-140.991"/>
<polygon fill="#000000" stroke="#000000" points="448.6063,-140.9909 452.1063,-150.991 455.6063,-140.991 448.6063,-140.9909"/>
</g>
<!-- I18nModule -->
<g id="node5" class="node">
<title>I18nModule</title>
<polygon fill="#8dd3c7" stroke="#000000" points="429.7107,-122 426.7107,-126 405.7107,-126 402.7107,-122 344.2893,-122 344.2893,-86 429.7107,-86 429.7107,-122"/>
<text text-anchor="middle" x="387" y="-99.8" font-family="Times,serif" font-size="14.00" fill="#000000">I18nModule</text>
</g>
<!-- I18nModule&#45;&gt;CloseAccountModule -->
<g id="edge4" class="edge">
<title>I18nModule&#45;&gt;CloseAccountModule</title>
<path fill="none" stroke="#000000" d="M387,-122.1061C387,-122.1061 387,-140.991 387,-140.991"/>
<polygon fill="#000000" stroke="#000000" points="383.5001,-140.9909 387,-150.991 390.5001,-140.991 383.5001,-140.9909"/>
</g>
<!-- IconModule -->
<g id="node6" class="node">
<title>IconModule</title>
<polygon fill="#8dd3c7" stroke="#000000" points="326.4261,-122 323.4261,-126 302.4261,-126 299.4261,-122 241.5739,-122 241.5739,-86 326.4261,-86 326.4261,-122"/>
<text text-anchor="middle" x="284" y="-99.8" font-family="Times,serif" font-size="14.00" fill="#000000">IconModule</text>
</g>
<!-- IconModule&#45;&gt;CloseAccountModule -->
<g id="edge5" class="edge">
<title>IconModule&#45;&gt;CloseAccountModule</title>
<path fill="none" stroke="#000000" d="M321.8906,-122.1061C321.8906,-122.1061 321.8906,-140.991 321.8906,-140.991"/>
<polygon fill="#000000" stroke="#000000" points="318.3907,-140.9909 321.8906,-150.991 325.3907,-140.991 318.3907,-140.9909"/>
</g>
<!-- SpinnerModule -->
<g id="node7" class="node">
<title>SpinnerModule</title>
<polygon fill="#8dd3c7" stroke="#000000" points="223.5982,-122 220.5982,-126 199.5982,-126 196.5982,-122 120.4018,-122 120.4018,-86 223.5982,-86 223.5982,-122"/>
<text text-anchor="middle" x="172" y="-99.8" font-family="Times,serif" font-size="14.00" fill="#000000">SpinnerModule</text>
</g>
<!-- SpinnerModule&#45;&gt;CloseAccountModule -->
<g id="edge6" class="edge">
<title>SpinnerModule&#45;&gt;CloseAccountModule</title>
<path fill="none" stroke="#000000" d="M205.1008,-122.0225C205.1008,-139.3734 205.1008,-163 205.1008,-163 205.1008,-163 307.4531,-163 307.4531,-163"/>
<polygon fill="#000000" stroke="#000000" points="307.4531,-166.5001 317.4531,-163 307.4531,-159.5001 307.4531,-166.5001"/>
</g>
<!-- UrlModule -->
<g id="node8" class="node">
<title>UrlModule</title>
<polygon fill="#8dd3c7" stroke="#000000" points="102.2079,-122 99.2079,-126 78.2079,-126 75.2079,-122 23.7921,-122 23.7921,-86 102.2079,-86 102.2079,-122"/>
<text text-anchor="middle" x="63" y="-99.8" font-family="Times,serif" font-size="14.00" fill="#000000">UrlModule</text>
</g>
<!-- UrlModule&#45;&gt;CloseAccountModule -->
<g id="edge7" class="edge">
<title>UrlModule&#45;&gt;CloseAccountModule</title>
<path fill="none" stroke="#000000" d="M63,-122.2843C63,-143.3211 63,-175 63,-175 63,-175 307.4939,-175 307.4939,-175"/>
<polygon fill="#000000" stroke="#000000" points="307.4939,-178.5001 317.4939,-175 307.4938,-171.5001 307.4939,-178.5001"/>
</g>
</g>
</svg>
