<?xml version="1.0" encoding="UTF-8" standalone="no"?>
<!DOCTYPE svg PUBLIC "-//W3C//DTD SVG 1.1//EN"
 "http://www.w3.org/Graphics/SVG/1.1/DTD/svg11.dtd">
<!-- Generated by graphviz version 2.46.0 (20210119.1425)
 -->
<!-- Title: dependencies Pages: 1 -->
<svg width="862pt" height="284pt"
 viewBox="0.00 0.00 862.00 284.00" xmlns="http://www.w3.org/2000/svg" xmlns:xlink="http://www.w3.org/1999/xlink">
<g id="graph0" class="graph" transform="scale(1 1) rotate(0) translate(4 280)">
<title>dependencies</title>
<polygon fill="white" stroke="transparent" points="-4,4 -4,-280 858,-280 858,4 -4,4"/>
<text text-anchor="start" x="406.01" y="-42.4" font-family="sans-serif" font-weight="bold" font-size="14.00">Legend</text>
<polygon fill="#ffffb3" stroke="transparent" points="193,-10 193,-30 213,-30 213,-10 193,-10"/>
<text text-anchor="start" x="216.63" y="-15.4" font-family="sans-serif" font-size="14.00"> &#160;Declarations</text>
<polygon fill="#8dd3c7" stroke="transparent" points="306,-10 306,-30 326,-30 326,-10 306,-10"/>
<text text-anchor="start" x="329.73" y="-15.4" font-family="sans-serif" font-size="14.00"> &#160;Module</text>
<polygon fill="#80b1d3" stroke="transparent" points="392,-10 392,-30 412,-30 412,-10 392,-10"/>
<text text-anchor="start" x="415.78" y="-15.4" font-family="sans-serif" font-size="14.00"> &#160;Bootstrap</text>
<polygon fill="#fdb462" stroke="transparent" points="489,-10 489,-30 509,-30 509,-10 489,-10"/>
<text text-anchor="start" x="512.67" y="-15.4" font-family="sans-serif" font-size="14.00"> &#160;Providers</text>
<polygon fill="#fb8072" stroke="transparent" points="585,-10 585,-30 605,-30 605,-10 585,-10"/>
<text text-anchor="start" x="608.73" y="-15.4" font-family="sans-serif" font-size="14.00"> &#160;Exports</text>
<g id="clust1" class="cluster">
<title>cluster_CloseAccountModule</title>
<polygon fill="none" stroke="black" stroke-dasharray="1,5" points="8,-70 8,-268 846,-268 846,-70 8,-70"/>
</g>
<g id="clust5" class="cluster">
<title>cluster_CloseAccountModule_imports</title>
<polygon fill="none" stroke="black" points="416,-78 416,-130 838,-130 838,-78 416,-78"/>
</g>
<g id="clust6" class="cluster">
<title>cluster_CloseAccountModule_exports</title>
<polygon fill="none" stroke="black" points="297,-208 297,-260 695,-260 695,-208 297,-208"/>
</g>
<g id="clust2" class="cluster">
<title>cluster_CloseAccountModule_declarations</title>
<polygon fill="none" stroke="black" points="16,-78 16,-130 408,-130 408,-78 16,-78"/>
</g>
<!-- CloseAccountComponent -->
<g id="node1" class="node">
<title>CloseAccountComponent</title>
<polygon fill="#ffffb3" stroke="black" points="400.15,-122 239.85,-122 239.85,-86 400.15,-86 400.15,-122"/>
<text text-anchor="middle" x="320" y="-99.8" font-family="Times,serif" font-size="14.00">CloseAccountComponent</text>
</g>
<!-- CloseAccountModule -->
<g id="node3" class="node">
<title>CloseAccountModule</title>
<polygon fill="#8dd3c7" stroke="black" points="574.36,-187 571.36,-191 550.36,-191 547.36,-187 435.64,-187 435.64,-151 574.36,-151 574.36,-187"/>
<text text-anchor="middle" x="505" y="-164.8" font-family="Times,serif" font-size="14.00">CloseAccountModule</text>
</g>
<!-- CloseAccountComponent&#45;&gt;CloseAccountModule -->
<g id="edge1" class="edge">
<title>CloseAccountComponent&#45;&gt;CloseAccountModule</title>
<path fill="none" stroke="black" d="M352.49,-122.02C352.49,-139.37 352.49,-163 352.49,-163 352.49,-163 425.44,-163 425.44,-163"/>
<polygon fill="black" stroke="black" points="425.44,-166.5 435.44,-163 425.44,-159.5 425.44,-166.5"/>
</g>
<!-- CloseAccountModalComponent -->
<g id="node2" class="node">
<title>CloseAccountModalComponent</title>
<polygon fill="#ffffb3" stroke="black" points="221.7,-122 24.3,-122 24.3,-86 221.7,-86 221.7,-122"/>
<text text-anchor="middle" x="123" y="-99.8" font-family="Times,serif" font-size="14.00">CloseAccountModalComponent</text>
</g>
<!-- CloseAccountModalComponent&#45;&gt;CloseAccountModule -->
<g id="edge2" class="edge">
<title>CloseAccountModalComponent&#45;&gt;CloseAccountModule</title>
<path fill="none" stroke="black" d="M123,-122.28C123,-143.32 123,-175 123,-175 123,-175 425.38,-175 425.38,-175"/>
<polygon fill="black" stroke="black" points="425.38,-178.5 435.38,-175 425.38,-171.5 425.38,-178.5"/>
</g>
<!-- CloseAccountComponent  -->
<g id="node8" class="node">
<title>CloseAccountComponent </title>
<polygon fill="#fb8072" stroke="black" points="687.15,-252 522.85,-252 522.85,-216 687.15,-216 687.15,-252"/>
<text text-anchor="middle" x="605" y="-229.8" font-family="Times,serif" font-size="14.00">CloseAccountComponent </text>
</g>
<!-- CloseAccountModule&#45;&gt;CloseAccountComponent  -->
<g id="edge7" class="edge">
<title>CloseAccountModule&#45;&gt;CloseAccountComponent </title>
<path fill="none" stroke="black" stroke-dasharray="5,2" d="M548.68,-187.11C548.68,-187.11 548.68,-205.99 548.68,-205.99"/>
<polygon fill="black" stroke="black" points="545.18,-205.99 548.68,-215.99 552.18,-205.99 545.18,-205.99"/>
</g>
<!-- CloseAccountModalComponent  -->
<g id="node9" class="node">
<title>CloseAccountModalComponent </title>
<polygon fill="#fb8072" stroke="black" points="505.2,-252 304.8,-252 304.8,-216 505.2,-216 505.2,-252"/>
<text text-anchor="middle" x="405" y="-229.8" font-family="Times,serif" font-size="14.00">CloseAccountModalComponent </text>
</g>
<!-- CloseAccountModule&#45;&gt;CloseAccountModalComponent  -->
<g id="edge8" class="edge">
<title>CloseAccountModule&#45;&gt;CloseAccountModalComponent </title>
<path fill="none" stroke="black" stroke-dasharray="5,2" d="M470.46,-187.11C470.46,-187.11 470.46,-205.99 470.46,-205.99"/>
<polygon fill="black" stroke="black" points="466.96,-205.99 470.46,-215.99 473.96,-205.99 466.96,-205.99"/>
</g>
<!-- I18nModule -->
<g id="node4" class="node">
<title>I18nModule</title>
<polygon fill="#8dd3c7" stroke="black" points="829.71,-122 826.71,-126 805.71,-126 802.71,-122 744.29,-122 744.29,-86 829.71,-86 829.71,-122"/>
<text text-anchor="middle" x="787" y="-99.8" font-family="Times,serif" font-size="14.00">I18nModule</text>
</g>
<!-- I18nModule&#45;&gt;CloseAccountModule -->
<g id="edge3" class="edge">
<title>I18nModule&#45;&gt;CloseAccountModule</title>
<path fill="none" stroke="black" d="M787,-122.28C787,-143.32 787,-175 787,-175 787,-175 584.71,-175 584.71,-175"/>
<polygon fill="black" stroke="black" points="584.71,-171.5 574.71,-175 584.71,-178.5 584.71,-171.5"/>
</g>
<!-- IconModule -->
<g id="node5" class="node">
<title>IconModule</title>
<polygon fill="#8dd3c7" stroke="black" points="726.43,-122 723.43,-126 702.43,-126 699.43,-122 641.57,-122 641.57,-86 726.43,-86 726.43,-122"/>
<text text-anchor="middle" x="684" y="-99.8" font-family="Times,serif" font-size="14.00">IconModule</text>
</g>
<!-- IconModule&#45;&gt;CloseAccountModule -->
<g id="edge4" class="edge">
<title>IconModule&#45;&gt;CloseAccountModule</title>
<path fill="none" stroke="black" d="M664.43,-122.02C664.43,-139.37 664.43,-163 664.43,-163 664.43,-163 584.46,-163 584.46,-163"/>
<polygon fill="black" stroke="black" points="584.46,-159.5 574.46,-163 584.46,-166.5 584.46,-159.5"/>
</g>
<!-- SpinnerModule -->
<g id="node6" class="node">
<title>SpinnerModule</title>
<polygon fill="#8dd3c7" stroke="black" points="623.6,-122 620.6,-126 599.6,-126 596.6,-122 520.4,-122 520.4,-86 623.6,-86 623.6,-122"/>
<text text-anchor="middle" x="572" y="-99.8" font-family="Times,serif" font-size="14.00">SpinnerModule</text>
</g>
<!-- SpinnerModule&#45;&gt;CloseAccountModule -->
<g id="edge5" class="edge">
<title>SpinnerModule&#45;&gt;CloseAccountModule</title>
<path fill="none" stroke="black" d="M547.44,-122.11C547.44,-122.11 547.44,-140.99 547.44,-140.99"/>
<polygon fill="black" stroke="black" points="543.94,-140.99 547.44,-150.99 550.94,-140.99 543.94,-140.99"/>
</g>
<!-- UrlModule -->
<g id="node7" class="node">
<title>UrlModule</title>
<polygon fill="#8dd3c7" stroke="black" points="502.21,-122 499.21,-126 478.21,-126 475.21,-122 423.79,-122 423.79,-86 502.21,-86 502.21,-122"/>
<text text-anchor="middle" x="463" y="-99.8" font-family="Times,serif" font-size="14.00">UrlModule</text>
</g>
<!-- UrlModule&#45;&gt;CloseAccountModule -->
<g id="edge6" class="edge">
<title>UrlModule&#45;&gt;CloseAccountModule</title>
<path fill="none" stroke="black" d="M468.84,-122.11C468.84,-122.11 468.84,-140.99 468.84,-140.99"/>
<polygon fill="black" stroke="black" points="465.34,-140.99 468.84,-150.99 472.34,-140.99 465.34,-140.99"/>
</g>
</g>
</svg>
