<?xml version="1.0" encoding="UTF-8" standalone="no"?>
<!DOCTYPE svg PUBLIC "-//W3C//DTD SVG 1.1//EN"
 "http://www.w3.org/Graphics/SVG/1.1/DTD/svg11.dtd">
<!-- Generated by graphviz version 2.44.1 (20200629.0846)
 -->
<!-- Title: dependencies Pages: 1 -->
<svg width="862pt" height="284pt"
 viewBox="0.00 0.00 862.00 284.00" xmlns="http://www.w3.org/2000/svg" xmlns:xlink="http://www.w3.org/1999/xlink">
<g id="graph0" class="graph" transform="scale(1 1) rotate(0) translate(4 280)">
<title>dependencies</title>
<polygon fill="white" stroke="transparent" points="-4,4 -4,-280 858,-280 858,4 -4,4"/>
<text text-anchor="start" x="406.01" y="-42.4" font-family="sans-serif" font-weight="bold" font-size="14.00">Legend</text>
<polygon fill="#ffffb3" stroke="transparent" points="193,-10 193,-30 213,-30 213,-10 193,-10"/>
<text text-anchor="start" x="216.63" y="-15.4" font-family="sans-serif" font-size="14.00"> &#160;Declarations</text>
<polygon fill="#8dd3c7" stroke="transparent" points="306,-10 306,-30 326,-30 326,-10 306,-10"/>
<text text-anchor="start" x="329.73" y="-15.4" font-family="sans-serif" font-size="14.00"> &#160;Module</text>
<polygon fill="#80b1d3" stroke="transparent" points="392,-10 392,-30 412,-30 412,-10 392,-10"/>
<text text-anchor="start" x="415.78" y="-15.4" font-family="sans-serif" font-size="14.00"> &#160;Bootstrap</text>
<polygon fill="#fdb462" stroke="transparent" points="489,-10 489,-30 509,-30 509,-10 489,-10"/>
<text text-anchor="start" x="512.67" y="-15.4" font-family="sans-serif" font-size="14.00"> &#160;Providers</text>
<polygon fill="#fb8072" stroke="transparent" points="585,-10 585,-30 605,-30 605,-10 585,-10"/>
<text text-anchor="start" x="608.73" y="-15.4" font-family="sans-serif" font-size="14.00"> &#160;Exports</text>
<g id="clust1" class="cluster">
<title>cluster_CloseAccountModule</title>
<polygon fill="none" stroke="black" stroke-dasharray="1,5" points="8,-70 8,-268 846,-268 846,-70 8,-70"/>
</g>
<g id="clust2" class="cluster">
<title>cluster_CloseAccountModule_declarations</title>
<polygon fill="none" stroke="black" points="446,-78 446,-130 838,-130 838,-78 446,-78"/>
</g>
<g id="clust6" class="cluster">
<title>cluster_CloseAccountModule_exports</title>
<polygon fill="none" stroke="black" points="127,-208 127,-260 525,-260 525,-208 127,-208"/>
</g>
<g id="clust5" class="cluster">
<title>cluster_CloseAccountModule_imports</title>
<polygon fill="none" stroke="black" points="16,-78 16,-130 438,-130 438,-78 16,-78"/>
</g>
<!-- CloseAccountComponent -->
<g id="node1" class="node">
<title>CloseAccountComponent</title>
<polygon fill="#ffffb3" stroke="black" points="830.15,-122 669.85,-122 669.85,-86 830.15,-86 830.15,-122"/>
<text text-anchor="middle" x="750" y="-99.8" font-family="Times,serif" font-size="14.00">CloseAccountComponent</text>
</g>
<!-- CloseAccountModule -->
<g id="node3" class="node">
<title>CloseAccountModule</title>
<polygon fill="#8dd3c7" stroke="black" points="404.36,-187 401.36,-191 380.36,-191 377.36,-187 265.64,-187 265.64,-151 404.36,-151 404.36,-187"/>
<text text-anchor="middle" x="335" y="-164.8" font-family="Times,serif" font-size="14.00">CloseAccountModule</text>
</g>
<!-- CloseAccountComponent&#45;&gt;CloseAccountModule -->
<g id="edge1" class="edge">
<title>CloseAccountComponent&#45;&gt;CloseAccountModule</title>
<path fill="none" stroke="black" d="M750,-122.28C750,-143.32 750,-175 750,-175 750,-175 414.46,-175 414.46,-175"/>
<polygon fill="black" stroke="black" points="414.46,-171.5 404.46,-175 414.46,-178.5 414.46,-171.5"/>
</g>
<!-- CloseAccountModalComponent -->
<g id="node2" class="node">
<title>CloseAccountModalComponent</title>
<polygon fill="#ffffb3" stroke="black" points="651.7,-122 454.3,-122 454.3,-86 651.7,-86 651.7,-122"/>
<text text-anchor="middle" x="553" y="-99.8" font-family="Times,serif" font-size="14.00">CloseAccountModalComponent</text>
</g>
<!-- CloseAccountModalComponent&#45;&gt;CloseAccountModule -->
<g id="edge2" class="edge">
<title>CloseAccountModalComponent&#45;&gt;CloseAccountModule</title>
<path fill="none" stroke="black" d="M485.74,-122.02C485.74,-139.37 485.74,-163 485.74,-163 485.74,-163 414.63,-163 414.63,-163"/>
<polygon fill="black" stroke="black" points="414.63,-159.5 404.63,-163 414.63,-166.5 414.63,-159.5"/>
</g>
<!-- CloseAccountComponent  -->
<g id="node8" class="node">
<title>CloseAccountComponent </title>
<polygon fill="#fb8072" stroke="black" points="517.15,-252 352.85,-252 352.85,-216 517.15,-216 517.15,-252"/>
<text text-anchor="middle" x="435" y="-229.8" font-family="Times,serif" font-size="14.00">CloseAccountComponent </text>
</g>
<!-- CloseAccountModule&#45;&gt;CloseAccountComponent  -->
<g id="edge7" class="edge">
<title>CloseAccountModule&#45;&gt;CloseAccountComponent </title>
<path fill="none" stroke="black" stroke-dasharray="5,2" d="M378.68,-187.11C378.68,-187.11 378.68,-205.99 378.68,-205.99"/>
<polygon fill="black" stroke="black" points="375.18,-205.99 378.68,-215.99 382.18,-205.99 375.18,-205.99"/>
</g>
<!-- CloseAccountModalComponent  -->
<g id="node9" class="node">
<title>CloseAccountModalComponent </title>
<polygon fill="#fb8072" stroke="black" points="335.2,-252 134.8,-252 134.8,-216 335.2,-216 335.2,-252"/>
<text text-anchor="middle" x="235" y="-229.8" font-family="Times,serif" font-size="14.00">CloseAccountModalComponent </text>
</g>
<!-- CloseAccountModule&#45;&gt;CloseAccountModalComponent  -->
<g id="edge8" class="edge">
<title>CloseAccountModule&#45;&gt;CloseAccountModalComponent </title>
<path fill="none" stroke="black" stroke-dasharray="5,2" d="M300.46,-187.11C300.46,-187.11 300.46,-205.99 300.46,-205.99"/>
<polygon fill="black" stroke="black" points="296.96,-205.99 300.46,-215.99 303.96,-205.99 296.96,-205.99"/>
</g>
<!-- I18nModule -->
<g id="node4" class="node">
<title>I18nModule</title>
<polygon fill="#8dd3c7" stroke="black" points="429.71,-122 426.71,-126 405.71,-126 402.71,-122 344.29,-122 344.29,-86 429.71,-86 429.71,-122"/>
<text text-anchor="middle" x="387" y="-99.8" font-family="Times,serif" font-size="14.00">I18nModule</text>
</g>
<!-- I18nModule&#45;&gt;CloseAccountModule -->
<g id="edge3" class="edge">
<title>I18nModule&#45;&gt;CloseAccountModule</title>
<path fill="none" stroke="black" d="M374.41,-122.11C374.41,-122.11 374.41,-140.99 374.41,-140.99"/>
<polygon fill="black" stroke="black" points="370.91,-140.99 374.41,-150.99 377.91,-140.99 370.91,-140.99"/>
</g>
<!-- IconModule -->
<g id="node5" class="node">
<title>IconModule</title>
<polygon fill="#8dd3c7" stroke="black" points="326.43,-122 323.43,-126 302.43,-126 299.43,-122 241.57,-122 241.57,-86 326.43,-86 326.43,-122"/>
<text text-anchor="middle" x="284" y="-99.8" font-family="Times,serif" font-size="14.00">IconModule</text>
</g>
<!-- IconModule&#45;&gt;CloseAccountModule -->
<g id="edge4" class="edge">
<title>IconModule&#45;&gt;CloseAccountModule</title>
<path fill="none" stroke="black" d="M295.89,-122.11C295.89,-122.11 295.89,-140.99 295.89,-140.99"/>
<polygon fill="black" stroke="black" points="292.39,-140.99 295.89,-150.99 299.39,-140.99 292.39,-140.99"/>
</g>
<!-- SpinnerModule -->
<g id="node6" class="node">
<title>SpinnerModule</title>
<polygon fill="#8dd3c7" stroke="black" points="223.6,-122 220.6,-126 199.6,-126 196.6,-122 120.4,-122 120.4,-86 223.6,-86 223.6,-122"/>
<text text-anchor="middle" x="172" y="-99.8" font-family="Times,serif" font-size="14.00">SpinnerModule</text>
</g>
<!-- SpinnerModule&#45;&gt;CloseAccountModule -->
<g id="edge5" class="edge">
<title>SpinnerModule&#45;&gt;CloseAccountModule</title>
<path fill="none" stroke="black" d="M179.1,-122.02C179.1,-139.37 179.1,-163 179.1,-163 179.1,-163 255.26,-163 255.26,-163"/>
<polygon fill="black" stroke="black" points="255.26,-166.5 265.26,-163 255.26,-159.5 255.26,-166.5"/>
</g>
<!-- UrlModule -->
<g id="node7" class="node">
<title>UrlModule</title>
<polygon fill="#8dd3c7" stroke="black" points="102.21,-122 99.21,-126 78.21,-126 75.21,-122 23.79,-122 23.79,-86 102.21,-86 102.21,-122"/>
<text text-anchor="middle" x="63" y="-99.8" font-family="Times,serif" font-size="14.00">UrlModule</text>
</g>
<!-- UrlModule&#45;&gt;CloseAccountModule -->
<g id="edge6" class="edge">
<title>UrlModule&#45;&gt;CloseAccountModule</title>
<path fill="none" stroke="black" d="M63,-122.28C63,-143.32 63,-175 63,-175 63,-175 255.31,-175 255.31,-175"/>
<polygon fill="black" stroke="black" points="255.31,-178.5 265.31,-175 255.31,-171.5 255.31,-178.5"/>
</g>
</g>
</svg>
