<?xml version="1.0" encoding="UTF-8" standalone="no"?>
<!DOCTYPE svg PUBLIC "-//W3C//DTD SVG 1.1//EN"
 "http://www.w3.org/Graphics/SVG/1.1/DTD/svg11.dtd">
<!-- Generated by graphviz version 2.44.1 (20200629.0846)
 -->
<!-- Title: dependencies Pages: 1 -->
<svg width="504pt" height="284pt"
 viewBox="0.00 0.00 504.00 284.00" xmlns="http://www.w3.org/2000/svg" xmlns:xlink="http://www.w3.org/1999/xlink">
<g id="graph0" class="graph" transform="scale(1 1) rotate(0) translate(4 280)">
<title>dependencies</title>
<polygon fill="white" stroke="transparent" points="-4,4 -4,-280 500,-280 500,4 -4,4"/>
<text text-anchor="start" x="227.01" y="-42.4" font-family="sans-serif" font-weight="bold" font-size="14.00">Legend</text>
<polygon fill="#ffffb3" stroke="transparent" points="14,-10 14,-30 34,-30 34,-10 14,-10"/>
<text text-anchor="start" x="37.63" y="-15.4" font-family="sans-serif" font-size="14.00"> &#160;Declarations</text>
<polygon fill="#8dd3c7" stroke="transparent" points="127,-10 127,-30 147,-30 147,-10 127,-10"/>
<text text-anchor="start" x="150.73" y="-15.4" font-family="sans-serif" font-size="14.00"> &#160;Module</text>
<polygon fill="#80b1d3" stroke="transparent" points="213,-10 213,-30 233,-30 233,-10 213,-10"/>
<text text-anchor="start" x="236.78" y="-15.4" font-family="sans-serif" font-size="14.00"> &#160;Bootstrap</text>
<polygon fill="#fdb462" stroke="transparent" points="310,-10 310,-30 330,-30 330,-10 310,-10"/>
<text text-anchor="start" x="333.67" y="-15.4" font-family="sans-serif" font-size="14.00"> &#160;Providers</text>
<polygon fill="#fb8072" stroke="transparent" points="406,-10 406,-30 426,-30 426,-10 406,-10"/>
<text text-anchor="start" x="429.73" y="-15.4" font-family="sans-serif" font-size="14.00"> &#160;Exports</text>
<g id="clust1" class="cluster">
<title>cluster_AmendOrderActionsModule</title>
<polygon fill="none" stroke="black" stroke-dasharray="1,5" points="30,-70 30,-268 466,-268 466,-70 30,-70"/>
</g>
<g id="clust2" class="cluster">
<title>cluster_AmendOrderActionsModule_declarations</title>
<polygon fill="none" stroke="black" points="244,-78 244,-130 458,-130 458,-78 244,-78"/>
</g>
<g id="clust4" class="cluster">
<title>cluster_AmendOrderActionsModule_imports</title>
<polygon fill="none" stroke="black" points="38,-78 38,-130 236,-130 236,-78 38,-78"/>
</g>
<g id="clust5" class="cluster">
<title>cluster_AmendOrderActionsModule_exports</title>
<polygon fill="none" stroke="black" points="76,-208 76,-260 294,-260 294,-208 76,-208"/>
</g>
<!-- AmendOrderActionsComponent -->
<g id="node1" class="node">
<title>AmendOrderActionsComponent</title>
<polygon fill="#ffffb3" stroke="black" points="450.23,-122 251.77,-122 251.77,-86 450.23,-86 450.23,-122"/>
<text text-anchor="middle" x="351" y="-99.8" font-family="Times,serif" font-size="14.00">AmendOrderActionsComponent</text>
</g>
<!-- AmendOrderActionsModule -->
<g id="node2" class="node">
<title>AmendOrderActionsModule</title>
<polygon fill="#8dd3c7" stroke="black" points="273.45,-187 270.45,-191 249.45,-191 246.45,-187 96.55,-187 96.55,-151 273.45,-151 273.45,-187"/>
<text text-anchor="middle" x="185" y="-164.8" font-family="Times,serif" font-size="14.00">AmendOrderActionsModule</text>
</g>
<!-- AmendOrderActionsComponent&#45;&gt;AmendOrderActionsModule -->
<g id="edge1" class="edge">
<title>AmendOrderActionsComponent&#45;&gt;AmendOrderActionsModule</title>
<path fill="none" stroke="black" d="M262.55,-122.11C262.55,-122.11 262.55,-140.99 262.55,-140.99"/>
<polygon fill="black" stroke="black" points="259.05,-140.99 262.55,-150.99 266.05,-140.99 259.05,-140.99"/>
</g>
<!-- AmendOrderActionsComponent  -->
<g id="node5" class="node">
<title>AmendOrderActionsComponent </title>
<polygon fill="#fb8072" stroke="black" points="286.23,-252 83.77,-252 83.77,-216 286.23,-216 286.23,-252"/>
<text text-anchor="middle" x="185" y="-229.8" font-family="Times,serif" font-size="14.00">AmendOrderActionsComponent </text>
</g>
<!-- AmendOrderActionsModule&#45;&gt;AmendOrderActionsComponent  -->
<g id="edge4" class="edge">
<title>AmendOrderActionsModule&#45;&gt;AmendOrderActionsComponent </title>
<path fill="none" stroke="black" stroke-dasharray="5,2" d="M185,-187.11C185,-187.11 185,-205.99 185,-205.99"/>
<polygon fill="black" stroke="black" points="181.5,-205.99 185,-215.99 188.5,-205.99 181.5,-205.99"/>
</g>
<!-- I18nModule -->
<g id="node3" class="node">
<title>I18nModule</title>
<polygon fill="#8dd3c7" stroke="black" points="227.71,-122 224.71,-126 203.71,-126 200.71,-122 142.29,-122 142.29,-86 227.71,-86 227.71,-122"/>
<text text-anchor="middle" x="185" y="-99.8" font-family="Times,serif" font-size="14.00">I18nModule</text>
</g>
<!-- I18nModule&#45;&gt;AmendOrderActionsModule -->
<g id="edge2" class="edge">
<title>I18nModule&#45;&gt;AmendOrderActionsModule</title>
<path fill="none" stroke="black" d="M185,-122.11C185,-122.11 185,-140.99 185,-140.99"/>
<polygon fill="black" stroke="black" points="181.5,-140.99 185,-150.99 188.5,-140.99 181.5,-140.99"/>
</g>
<!-- UrlModule -->
<g id="node4" class="node">
<title>UrlModule</title>
<polygon fill="#8dd3c7" stroke="black" points="124.21,-122 121.21,-126 100.21,-126 97.21,-122 45.79,-122 45.79,-86 124.21,-86 124.21,-122"/>
<text text-anchor="middle" x="85" y="-99.8" font-family="Times,serif" font-size="14.00">UrlModule</text>
</g>
<!-- UrlModule&#45;&gt;AmendOrderActionsModule -->
<g id="edge3" class="edge">
<title>UrlModule&#45;&gt;AmendOrderActionsModule</title>
<path fill="none" stroke="black" d="M110.31,-122.11C110.31,-122.11 110.31,-140.99 110.31,-140.99"/>
<polygon fill="black" stroke="black" points="106.81,-140.99 110.31,-150.99 113.81,-140.99 106.81,-140.99"/>
</g>
</g>
</svg>
