<?xml version="1.0" encoding="UTF-8" standalone="no"?>
<!DOCTYPE svg PUBLIC "-//W3C//DTD SVG 1.1//EN"
 "http://www.w3.org/Graphics/SVG/1.1/DTD/svg11.dtd">
<!-- Generated by graphviz version 2.40.1 (20161225.0304)
 -->
<!-- Title: dependencies Pages: 1 -->
<svg width="504pt" height="284pt"
 viewBox="0.00 0.00 504.00 284.00" xmlns="http://www.w3.org/2000/svg" xmlns:xlink="http://www.w3.org/1999/xlink">
<g id="graph0" class="graph" transform="scale(1 1) rotate(0) translate(4 280)">
<title>dependencies</title>
<polygon fill="#ffffff" stroke="transparent" points="-4,4 -4,-280 500,-280 500,4 -4,4"/>
<text text-anchor="start" x="227.0091" y="-42.4" font-family="sans-serif" font-weight="bold" font-size="14.00" fill="#000000">Legend</text>
<polygon fill="#ffffb3" stroke="transparent" points="14,-10 14,-30 34,-30 34,-10 14,-10"/>
<text text-anchor="start" x="37.629" y="-15.4" font-family="sans-serif" font-size="14.00" fill="#000000"> &#160;Declarations</text>
<polygon fill="#8dd3c7" stroke="transparent" points="127,-10 127,-30 147,-30 147,-10 127,-10"/>
<text text-anchor="start" x="150.7251" y="-15.4" font-family="sans-serif" font-size="14.00" fill="#000000"> &#160;Module</text>
<polygon fill="#80b1d3" stroke="transparent" points="213,-10 213,-30 233,-30 233,-10 213,-10"/>
<text text-anchor="start" x="236.7812" y="-15.4" font-family="sans-serif" font-size="14.00" fill="#000000"> &#160;Bootstrap</text>
<polygon fill="#fdb462" stroke="transparent" points="310,-10 310,-30 330,-30 330,-10 310,-10"/>
<text text-anchor="start" x="333.6732" y="-15.4" font-family="sans-serif" font-size="14.00" fill="#000000"> &#160;Providers</text>
<polygon fill="#fb8072" stroke="transparent" points="406,-10 406,-30 426,-30 426,-10 406,-10"/>
<text text-anchor="start" x="429.7258" y="-15.4" font-family="sans-serif" font-size="14.00" fill="#000000"> &#160;Exports</text>
<g id="clust1" class="cluster">
<title>cluster_AmendOrderActionsModule</title>
<polygon fill="none" stroke="#000000" stroke-dasharray="1,5" points="30,-70 30,-268 466,-268 466,-70 30,-70"/>
</g>
<g id="clust2" class="cluster">
<title>cluster_AmendOrderActionsModule_declarations</title>
<polygon fill="none" stroke="#000000" points="244,-78 244,-130 458,-130 458,-78 244,-78"/>
</g>
<g id="clust4" class="cluster">
<title>cluster_AmendOrderActionsModule_imports</title>
<polygon fill="none" stroke="#000000" points="38,-78 38,-130 236,-130 236,-78 38,-78"/>
</g>
<g id="clust5" class="cluster">
<title>cluster_AmendOrderActionsModule_exports</title>
<polygon fill="none" stroke="#000000" points="76,-208 76,-260 294,-260 294,-208 76,-208"/>
</g>
<!-- AmendOrderActionsComponent -->
<g id="node1" class="node">
<title>AmendOrderActionsComponent</title>
<polygon fill="#ffffb3" stroke="#000000" points="450.2338,-122 251.7662,-122 251.7662,-86 450.2338,-86 450.2338,-122"/>
<text text-anchor="middle" x="351" y="-99.8" font-family="Times,serif" font-size="14.00" fill="#000000">AmendOrderActionsComponent</text>
</g>
<!-- AmendOrderActionsModule -->
<g id="node2" class="node">
<title>AmendOrderActionsModule</title>
<polygon fill="#8dd3c7" stroke="#000000" points="273.451,-187 270.451,-191 249.451,-191 246.451,-187 96.549,-187 96.549,-151 273.451,-151 273.451,-187"/>
<text text-anchor="middle" x="185" y="-164.8" font-family="Times,serif" font-size="14.00" fill="#000000">AmendOrderActionsModule</text>
</g>
<!-- AmendOrderActionsComponent&#45;&gt;AmendOrderActionsModule -->
<g id="edge1" class="edge">
<title>AmendOrderActionsComponent&#45;&gt;AmendOrderActionsModule</title>
<path fill="none" stroke="#000000" d="M262.5544,-122.1061C262.5544,-122.1061 262.5544,-140.991 262.5544,-140.991"/>
<polygon fill="#000000" stroke="#000000" points="259.0544,-140.9909 262.5544,-150.991 266.0544,-140.991 259.0544,-140.9909"/>
</g>
<!-- AmendOrderActionsComponent  -->
<g id="node5" class="node">
<title>AmendOrderActionsComponent </title>
<polygon fill="#fb8072" stroke="#000000" points="286.2337,-252 83.7663,-252 83.7663,-216 286.2337,-216 286.2337,-252"/>
<text text-anchor="middle" x="185" y="-229.8" font-family="Times,serif" font-size="14.00" fill="#000000">AmendOrderActionsComponent </text>
</g>
<!-- AmendOrderActionsModule&#45;&gt;AmendOrderActionsComponent  -->
<g id="edge4" class="edge">
<title>AmendOrderActionsModule&#45;&gt;AmendOrderActionsComponent </title>
<path fill="none" stroke="#000000" stroke-dasharray="5,2" d="M185,-187.1061C185,-187.1061 185,-205.991 185,-205.991"/>
<polygon fill="#000000" stroke="#000000" points="181.5001,-205.9909 185,-215.991 188.5001,-205.991 181.5001,-205.9909"/>
</g>
<!-- I18nModule -->
<g id="node3" class="node">
<title>I18nModule</title>
<polygon fill="#8dd3c7" stroke="#000000" points="227.7107,-122 224.7107,-126 203.7107,-126 200.7107,-122 142.2893,-122 142.2893,-86 227.7107,-86 227.7107,-122"/>
<text text-anchor="middle" x="185" y="-99.8" font-family="Times,serif" font-size="14.00" fill="#000000">I18nModule</text>
</g>
<!-- I18nModule&#45;&gt;AmendOrderActionsModule -->
<g id="edge2" class="edge">
<title>I18nModule&#45;&gt;AmendOrderActionsModule</title>
<path fill="none" stroke="#000000" d="M185,-122.1061C185,-122.1061 185,-140.991 185,-140.991"/>
<polygon fill="#000000" stroke="#000000" points="181.5001,-140.9909 185,-150.991 188.5001,-140.991 181.5001,-140.9909"/>
</g>
<!-- UrlModule -->
<g id="node4" class="node">
<title>UrlModule</title>
<polygon fill="#8dd3c7" stroke="#000000" points="124.2079,-122 121.2079,-126 100.2079,-126 97.2079,-122 45.7921,-122 45.7921,-86 124.2079,-86 124.2079,-122"/>
<text text-anchor="middle" x="85" y="-99.8" font-family="Times,serif" font-size="14.00" fill="#000000">UrlModule</text>
</g>
<!-- UrlModule&#45;&gt;AmendOrderActionsModule -->
<g id="edge3" class="edge">
<title>UrlModule&#45;&gt;AmendOrderActionsModule</title>
<path fill="none" stroke="#000000" d="M110.3142,-122.1061C110.3142,-122.1061 110.3142,-140.991 110.3142,-140.991"/>
<polygon fill="#000000" stroke="#000000" points="106.8142,-140.9909 110.3142,-150.991 113.8142,-140.991 106.8142,-140.9909"/>
</g>
</g>
</svg>
