<?xml version="1.0" encoding="UTF-8" standalone="no"?>
<!DOCTYPE svg PUBLIC "-//W3C//DTD SVG 1.1//EN"
 "http://www.w3.org/Graphics/SVG/1.1/DTD/svg11.dtd">
<!-- Generated by graphviz version 2.46.0 (20210119.1425)
 -->
<!-- Title: dependencies Pages: 1 -->
<svg width="518pt" height="284pt"
 viewBox="0.00 0.00 518.00 284.00" xmlns="http://www.w3.org/2000/svg" xmlns:xlink="http://www.w3.org/1999/xlink">
<g id="graph0" class="graph" transform="scale(1 1) rotate(0) translate(4 280)">
<title>dependencies</title>
<polygon fill="white" stroke="transparent" points="-4,4 -4,-280 514,-280 514,4 -4,4"/>
<text text-anchor="start" x="234.01" y="-42.4" font-family="sans-serif" font-weight="bold" font-size="14.00">Legend</text>
<polygon fill="#ffffb3" stroke="transparent" points="21,-10 21,-30 41,-30 41,-10 21,-10"/>
<text text-anchor="start" x="44.63" y="-15.4" font-family="sans-serif" font-size="14.00"> &#160;Declarations</text>
<polygon fill="#8dd3c7" stroke="transparent" points="134,-10 134,-30 154,-30 154,-10 134,-10"/>
<text text-anchor="start" x="157.73" y="-15.4" font-family="sans-serif" font-size="14.00"> &#160;Module</text>
<polygon fill="#80b1d3" stroke="transparent" points="220,-10 220,-30 240,-30 240,-10 220,-10"/>
<text text-anchor="start" x="243.78" y="-15.4" font-family="sans-serif" font-size="14.00"> &#160;Bootstrap</text>
<polygon fill="#fdb462" stroke="transparent" points="317,-10 317,-30 337,-30 337,-10 317,-10"/>
<text text-anchor="start" x="340.67" y="-15.4" font-family="sans-serif" font-size="14.00"> &#160;Providers</text>
<polygon fill="#fb8072" stroke="transparent" points="413,-10 413,-30 433,-30 433,-10 413,-10"/>
<text text-anchor="start" x="436.73" y="-15.4" font-family="sans-serif" font-size="14.00"> &#160;Exports</text>
<g id="clust1" class="cluster">
<title>cluster_ScheduleReplenishmentOrderModule</title>
<polygon fill="none" stroke="black" stroke-dasharray="1,5" points="8,-70 8,-268 502,-268 502,-70 8,-70"/>
</g>
<g id="clust5" class="cluster">
<title>cluster_ScheduleReplenishmentOrderModule_exports</title>
<polygon fill="none" stroke="black" points="35,-208 35,-260 303,-260 303,-208 35,-208"/>
</g>
<g id="clust2" class="cluster">
<title>cluster_ScheduleReplenishmentOrderModule_declarations</title>
<polygon fill="none" stroke="black" points="228,-78 228,-130 494,-130 494,-78 228,-78"/>
</g>
<g id="clust4" class="cluster">
<title>cluster_ScheduleReplenishmentOrderModule_imports</title>
<polygon fill="none" stroke="black" points="16,-78 16,-130 220,-130 220,-78 16,-78"/>
</g>
<!-- ScheduleReplenishmentOrderComponent -->
<g id="node1" class="node">
<title>ScheduleReplenishmentOrderComponent</title>
<polygon fill="#ffffb3" stroke="black" points="485.78,-122 236.22,-122 236.22,-86 485.78,-86 485.78,-122"/>
<text text-anchor="middle" x="361" y="-99.8" font-family="Times,serif" font-size="14.00">ScheduleReplenishmentOrderComponent</text>
</g>
<!-- ScheduleReplenishmentOrderModule -->
<g id="node2" class="node">
<title>ScheduleReplenishmentOrderModule</title>
<polygon fill="#8dd3c7" stroke="black" points="283,-187 280,-191 259,-191 256,-187 55,-187 55,-151 283,-151 283,-187"/>
<text text-anchor="middle" x="169" y="-164.8" font-family="Times,serif" font-size="14.00">ScheduleReplenishmentOrderModule</text>
</g>
<!-- ScheduleReplenishmentOrderComponent&#45;&gt;ScheduleReplenishmentOrderModule -->
<g id="edge1" class="edge">
<title>ScheduleReplenishmentOrderComponent&#45;&gt;ScheduleReplenishmentOrderModule</title>
<path fill="none" stroke="black" d="M259.55,-122.11C259.55,-122.11 259.55,-140.99 259.55,-140.99"/>
<polygon fill="black" stroke="black" points="256.05,-140.99 259.55,-150.99 263.05,-140.99 256.05,-140.99"/>
</g>
<!-- ScheduleReplenishmentOrderComponent  -->
<g id="node5" class="node">
<title>ScheduleReplenishmentOrderComponent </title>
<polygon fill="#fb8072" stroke="black" points="295.28,-252 42.72,-252 42.72,-216 295.28,-216 295.28,-252"/>
<text text-anchor="middle" x="169" y="-229.8" font-family="Times,serif" font-size="14.00">ScheduleReplenishmentOrderComponent </text>
</g>
<!-- ScheduleReplenishmentOrderModule&#45;&gt;ScheduleReplenishmentOrderComponent  -->
<g id="edge4" class="edge">
<title>ScheduleReplenishmentOrderModule&#45;&gt;ScheduleReplenishmentOrderComponent </title>
<path fill="none" stroke="black" stroke-dasharray="5,2" d="M169,-187.11C169,-187.11 169,-205.99 169,-205.99"/>
<polygon fill="black" stroke="black" points="165.5,-205.99 169,-215.99 172.5,-205.99 165.5,-205.99"/>
</g>
<!-- I18nModule -->
<g id="node3" class="node">
<title>I18nModule</title>
<polygon fill="#8dd3c7" stroke="black" points="211.71,-122 208.71,-126 187.71,-126 184.71,-122 126.29,-122 126.29,-86 211.71,-86 211.71,-122"/>
<text text-anchor="middle" x="169" y="-99.8" font-family="Times,serif" font-size="14.00">I18nModule</text>
</g>
<!-- I18nModule&#45;&gt;ScheduleReplenishmentOrderModule -->
<g id="edge2" class="edge">
<title>I18nModule&#45;&gt;ScheduleReplenishmentOrderModule</title>
<path fill="none" stroke="black" d="M169,-122.11C169,-122.11 169,-140.99 169,-140.99"/>
<polygon fill="black" stroke="black" points="165.5,-140.99 169,-150.99 172.5,-140.99 165.5,-140.99"/>
</g>
<!-- IconModule -->
<g id="node4" class="node">
<title>IconModule</title>
<polygon fill="#8dd3c7" stroke="black" points="108.43,-122 105.43,-126 84.43,-126 81.43,-122 23.57,-122 23.57,-86 108.43,-86 108.43,-122"/>
<text text-anchor="middle" x="66" y="-99.8" font-family="Times,serif" font-size="14.00">IconModule</text>
</g>
<!-- IconModule&#45;&gt;ScheduleReplenishmentOrderModule -->
<g id="edge3" class="edge">
<title>IconModule&#45;&gt;ScheduleReplenishmentOrderModule</title>
<path fill="none" stroke="black" d="M81.73,-122.11C81.73,-122.11 81.73,-140.99 81.73,-140.99"/>
<polygon fill="black" stroke="black" points="78.23,-140.99 81.73,-150.99 85.23,-140.99 78.23,-140.99"/>
</g>
</g>
</svg>
