<?xml version="1.0" encoding="UTF-8" standalone="no"?>
<!DOCTYPE svg PUBLIC "-//W3C//DTD SVG 1.1//EN"
 "http://www.w3.org/Graphics/SVG/1.1/DTD/svg11.dtd">
<!-- Generated by graphviz version 2.40.1 (20161225.0304)
 -->
<!-- Title: dependencies Pages: 1 -->
<svg width="518pt" height="284pt"
 viewBox="0.00 0.00 518.00 284.00" xmlns="http://www.w3.org/2000/svg" xmlns:xlink="http://www.w3.org/1999/xlink">
<g id="graph0" class="graph" transform="scale(1 1) rotate(0) translate(4 280)">
<title>dependencies</title>
<polygon fill="#ffffff" stroke="transparent" points="-4,4 -4,-280 514,-280 514,4 -4,4"/>
<text text-anchor="start" x="234.0091" y="-42.4" font-family="sans-serif" font-weight="bold" font-size="14.00" fill="#000000">Legend</text>
<polygon fill="#ffffb3" stroke="transparent" points="21,-10 21,-30 41,-30 41,-10 21,-10"/>
<text text-anchor="start" x="44.629" y="-15.4" font-family="sans-serif" font-size="14.00" fill="#000000"> &#160;Declarations</text>
<polygon fill="#8dd3c7" stroke="transparent" points="134,-10 134,-30 154,-30 154,-10 134,-10"/>
<text text-anchor="start" x="157.7251" y="-15.4" font-family="sans-serif" font-size="14.00" fill="#000000"> &#160;Module</text>
<polygon fill="#80b1d3" stroke="transparent" points="220,-10 220,-30 240,-30 240,-10 220,-10"/>
<text text-anchor="start" x="243.7812" y="-15.4" font-family="sans-serif" font-size="14.00" fill="#000000"> &#160;Bootstrap</text>
<polygon fill="#fdb462" stroke="transparent" points="317,-10 317,-30 337,-30 337,-10 317,-10"/>
<text text-anchor="start" x="340.6732" y="-15.4" font-family="sans-serif" font-size="14.00" fill="#000000"> &#160;Providers</text>
<polygon fill="#fb8072" stroke="transparent" points="413,-10 413,-30 433,-30 433,-10 413,-10"/>
<text text-anchor="start" x="436.7258" y="-15.4" font-family="sans-serif" font-size="14.00" fill="#000000"> &#160;Exports</text>
<g id="clust1" class="cluster">
<title>cluster_ScheduleReplenishmentOrderModule</title>
<polygon fill="none" stroke="#000000" stroke-dasharray="1,5" points="8,-70 8,-268 502,-268 502,-70 8,-70"/>
</g>
<g id="clust2" class="cluster">
<title>cluster_ScheduleReplenishmentOrderModule_declarations</title>
<polygon fill="none" stroke="#000000" points="228,-78 228,-130 494,-130 494,-78 228,-78"/>
</g>
<g id="clust4" class="cluster">
<title>cluster_ScheduleReplenishmentOrderModule_imports</title>
<polygon fill="none" stroke="#000000" points="16,-78 16,-130 220,-130 220,-78 16,-78"/>
</g>
<g id="clust5" class="cluster">
<title>cluster_ScheduleReplenishmentOrderModule_exports</title>
<polygon fill="none" stroke="#000000" points="35,-208 35,-260 303,-260 303,-208 35,-208"/>
</g>
<!-- ScheduleReplenishmentOrderComponent -->
<g id="node1" class="node">
<title>ScheduleReplenishmentOrderComponent</title>
<polygon fill="#ffffb3" stroke="#000000" points="485.7794,-122 236.2206,-122 236.2206,-86 485.7794,-86 485.7794,-122"/>
<text text-anchor="middle" x="361" y="-99.8" font-family="Times,serif" font-size="14.00" fill="#000000">ScheduleReplenishmentOrderComponent</text>
</g>
<!-- ScheduleReplenishmentOrderModule -->
<g id="node2" class="node">
<title>ScheduleReplenishmentOrderModule</title>
<polygon fill="#8dd3c7" stroke="#000000" points="282.9971,-187 279.9971,-191 258.9971,-191 255.9971,-187 55.0029,-187 55.0029,-151 282.9971,-151 282.9971,-187"/>
<text text-anchor="middle" x="169" y="-164.8" font-family="Times,serif" font-size="14.00" fill="#000000">ScheduleReplenishmentOrderModule</text>
</g>
<!-- ScheduleReplenishmentOrderComponent&#45;&gt;ScheduleReplenishmentOrderModule -->
<g id="edge1" class="edge">
<title>ScheduleReplenishmentOrderComponent&#45;&gt;ScheduleReplenishmentOrderModule</title>
<path fill="none" stroke="#000000" d="M259.5544,-122.1061C259.5544,-122.1061 259.5544,-140.991 259.5544,-140.991"/>
<polygon fill="#000000" stroke="#000000" points="256.0544,-140.9909 259.5544,-150.991 263.0544,-140.991 256.0544,-140.9909"/>
</g>
<!-- ScheduleReplenishmentOrderComponent  -->
<g id="node5" class="node">
<title>ScheduleReplenishmentOrderComponent </title>
<polygon fill="#fb8072" stroke="#000000" points="295.2793,-252 42.7207,-252 42.7207,-216 295.2793,-216 295.2793,-252"/>
<text text-anchor="middle" x="169" y="-229.8" font-family="Times,serif" font-size="14.00" fill="#000000">ScheduleReplenishmentOrderComponent </text>
</g>
<!-- ScheduleReplenishmentOrderModule&#45;&gt;ScheduleReplenishmentOrderComponent  -->
<g id="edge4" class="edge">
<title>ScheduleReplenishmentOrderModule&#45;&gt;ScheduleReplenishmentOrderComponent </title>
<path fill="none" stroke="#000000" stroke-dasharray="5,2" d="M169,-187.1061C169,-187.1061 169,-205.991 169,-205.991"/>
<polygon fill="#000000" stroke="#000000" points="165.5001,-205.9909 169,-215.991 172.5001,-205.991 165.5001,-205.9909"/>
</g>
<!-- I18nModule -->
<g id="node3" class="node">
<title>I18nModule</title>
<polygon fill="#8dd3c7" stroke="#000000" points="211.7107,-122 208.7107,-126 187.7107,-126 184.7107,-122 126.2893,-122 126.2893,-86 211.7107,-86 211.7107,-122"/>
<text text-anchor="middle" x="169" y="-99.8" font-family="Times,serif" font-size="14.00" fill="#000000">I18nModule</text>
</g>
<!-- I18nModule&#45;&gt;ScheduleReplenishmentOrderModule -->
<g id="edge2" class="edge">
<title>I18nModule&#45;&gt;ScheduleReplenishmentOrderModule</title>
<path fill="none" stroke="#000000" d="M169,-122.1061C169,-122.1061 169,-140.991 169,-140.991"/>
<polygon fill="#000000" stroke="#000000" points="165.5001,-140.9909 169,-150.991 172.5001,-140.991 165.5001,-140.9909"/>
</g>
<!-- IconModule -->
<g id="node4" class="node">
<title>IconModule</title>
<polygon fill="#8dd3c7" stroke="#000000" points="108.4261,-122 105.4261,-126 84.4261,-126 81.4261,-122 23.5739,-122 23.5739,-86 108.4261,-86 108.4261,-122"/>
<text text-anchor="middle" x="66" y="-99.8" font-family="Times,serif" font-size="14.00" fill="#000000">IconModule</text>
</g>
<!-- IconModule&#45;&gt;ScheduleReplenishmentOrderModule -->
<g id="edge3" class="edge">
<title>IconModule&#45;&gt;ScheduleReplenishmentOrderModule</title>
<path fill="none" stroke="#000000" d="M81.7321,-122.1061C81.7321,-122.1061 81.7321,-140.991 81.7321,-140.991"/>
<polygon fill="#000000" stroke="#000000" points="78.2322,-140.9909 81.7321,-150.991 85.2322,-140.991 78.2322,-140.9909"/>
</g>
</g>
</svg>
