<?xml version="1.0" encoding="UTF-8" standalone="no"?>
<!DOCTYPE svg PUBLIC "-//W3C//DTD SVG 1.1//EN"
 "http://www.w3.org/Graphics/SVG/1.1/DTD/svg11.dtd">
<!-- Generated by graphviz version 2.47.3 (20210619.1520)
 -->
<!-- Title: dependencies Pages: 1 -->
<svg width="224pt" height="174pt"
 viewBox="0.00 0.00 224.00 173.80" xmlns="http://www.w3.org/2000/svg" xmlns:xlink="http://www.w3.org/1999/xlink">
<g id="graph0" class="graph" transform="scale(1 1) rotate(0) translate(4 169.8)">
<title>dependencies</title>
<polygon fill="white" stroke="transparent" points="-4,4 -4,-169.8 220,-169.8 220,4 -4,4"/>
<text text-anchor="middle" x="108" y="-8.2" font-family="sans-serif" font-size="14.00">dependencies</text>
<g id="clust1" class="cluster">
<title>cluster_UserStoreTransitionalModule</title>
<polygon fill="none" stroke="black" stroke-dasharray="1,5" points="8,-32.8 8,-157.8 208,-157.8 208,-32.8 8,-32.8"/>
</g>
<g id="clust3" class="cluster">
<title>cluster_UserStoreTransitionalModule_imports</title>
<polygon fill="none" stroke="black" points="56,-40.8 56,-92.8 160,-92.8 160,-40.8 56,-40.8"/>
</g>
<!-- StateModule -->
<g id="node1" class="node">
<title>StateModule</title>
<polygon fill="#8dd3c7" stroke="black" points="151.54,-84.8 148.54,-88.8 127.54,-88.8 124.54,-84.8 64.46,-84.8 64.46,-48.8 151.54,-48.8 151.54,-84.8"/>
<text text-anchor="middle" x="108" y="-62.6" font-family="Times,serif" font-size="14.00">StateModule</text>
</g>
<!-- UserStoreTransitionalModule -->
<g id="node2" class="node">
<title>UserStoreTransitionalModule</title>
<polygon fill="#8dd3c7" stroke="black" points="199.67,-149.8 196.67,-153.8 175.67,-153.8 172.67,-149.8 16.33,-149.8 16.33,-113.8 199.67,-113.8 199.67,-149.8"/>
<text text-anchor="middle" x="108" y="-127.6" font-family="Times,serif" font-size="14.00">UserStoreTransitionalModule</text>
</g>
<!-- StateModule&#45;&gt;UserStoreTransitionalModule -->
<g id="edge1" class="edge">
<title>StateModule&#45;&gt;UserStoreTransitionalModule</title>
<path fill="none" stroke="black" d="M108,-84.91C108,-84.91 108,-103.79 108,-103.79"/>
<polygon fill="black" stroke="black" points="104.5,-103.79 108,-113.79 111.5,-103.79 104.5,-103.79"/>
</g>
</g>
</svg>
