<?xml version="1.0" encoding="UTF-8" standalone="no"?>
<!DOCTYPE svg PUBLIC "-//W3C//DTD SVG 1.1//EN"
 "http://www.w3.org/Graphics/SVG/1.1/DTD/svg11.dtd">
<!-- Generated by graphviz version 2.47.3 (20210619.1520)
 -->
<!-- Title: dependencies Pages: 1 -->
<svg width="748pt" height="247pt"
 viewBox="0.00 0.00 748.00 246.80" xmlns="http://www.w3.org/2000/svg" xmlns:xlink="http://www.w3.org/1999/xlink">
<g id="graph0" class="graph" transform="scale(1 1) rotate(0) translate(4 242.8)">
<title>dependencies</title>
<polygon fill="white" stroke="transparent" points="-4,4 -4,-242.8 744,-242.8 744,4 -4,4"/>
<text text-anchor="middle" x="370" y="-8.2" font-family="sans-serif" font-size="14.00">dependencies</text>
<g id="clust1" class="cluster">
<title>cluster_MerchandisingCarouselCmsModule</title>
<polygon fill="none" stroke="black" stroke-dasharray="1,5" points="8,-32.8 8,-230.8 732,-230.8 732,-32.8 8,-32.8"/>
</g>
<g id="clust4" class="cluster">
<title>cluster_MerchandisingCarouselCmsModule_imports</title>
<polygon fill="none" stroke="black" points="256,-40.8 256,-92.8 724,-92.8 724,-40.8 256,-40.8"/>
</g>
<g id="clust2" class="cluster">
<title>cluster_MerchandisingCarouselCmsModule_declarations</title>
<polygon fill="none" stroke="black" points="16,-40.8 16,-92.8 248,-92.8 248,-40.8 16,-40.8"/>
</g>
<g id="clust5" class="cluster">
<title>cluster_MerchandisingCarouselCmsModule_exports</title>
<polygon fill="none" stroke="black" points="291,-170.8 291,-222.8 525,-222.8 525,-170.8 291,-170.8"/>
</g>
<!-- MerchandisingCarouselComponent -->
<g id="node1" class="node">
<title>MerchandisingCarouselComponent</title>
<polygon fill="#ffffb3" stroke="black" points="239.57,-84.8 24.43,-84.8 24.43,-48.8 239.57,-48.8 239.57,-84.8"/>
<text text-anchor="middle" x="132" y="-62.6" font-family="Times,serif" font-size="14.00">MerchandisingCarouselComponent</text>
</g>
<!-- MerchandisingCarouselCmsModule -->
<g id="node2" class="node">
<title>MerchandisingCarouselCmsModule</title>
<polygon fill="#8dd3c7" stroke="black" points="517.46,-149.8 514.46,-153.8 493.46,-153.8 490.46,-149.8 298.54,-149.8 298.54,-113.8 517.46,-113.8 517.46,-149.8"/>
<text text-anchor="middle" x="408" y="-127.6" font-family="Times,serif" font-size="14.00">MerchandisingCarouselCmsModule</text>
</g>
<!-- MerchandisingCarouselComponent&#45;&gt;MerchandisingCarouselCmsModule -->
<g id="edge1" class="edge">
<title>MerchandisingCarouselComponent&#45;&gt;MerchandisingCarouselCmsModule</title>
<path fill="none" stroke="black" d="M132,-84.91C132,-104.14 132,-131.8 132,-131.8 132,-131.8 288.52,-131.8 288.52,-131.8"/>
<polygon fill="black" stroke="black" points="288.52,-135.3 298.52,-131.8 288.52,-128.3 288.52,-135.3"/>
</g>
<!-- MerchandisingCarouselComponent  -->
<g id="node7" class="node">
<title>MerchandisingCarouselComponent </title>
<polygon fill="#fb8072" stroke="black" points="517.07,-214.8 298.93,-214.8 298.93,-178.8 517.07,-178.8 517.07,-214.8"/>
<text text-anchor="middle" x="408" y="-192.6" font-family="Times,serif" font-size="14.00">MerchandisingCarouselComponent </text>
</g>
<!-- MerchandisingCarouselCmsModule&#45;&gt;MerchandisingCarouselComponent  -->
<g id="edge6" class="edge">
<title>MerchandisingCarouselCmsModule&#45;&gt;MerchandisingCarouselComponent </title>
<path fill="none" stroke="black" stroke-dasharray="5,2" d="M408,-149.91C408,-149.91 408,-168.79 408,-168.79"/>
<polygon fill="black" stroke="black" points="404.5,-168.79 408,-178.79 411.5,-168.79 404.5,-168.79"/>
</g>
<!-- AttributesModule -->
<g id="node3" class="node">
<title>AttributesModule</title>
<polygon fill="#8dd3c7" stroke="black" points="715.54,-84.8 712.54,-88.8 691.54,-88.8 688.54,-84.8 600.46,-84.8 600.46,-48.8 715.54,-48.8 715.54,-84.8"/>
<text text-anchor="middle" x="658" y="-62.6" font-family="Times,serif" font-size="14.00">AttributesModule</text>
</g>
<!-- AttributesModule&#45;&gt;MerchandisingCarouselCmsModule -->
<g id="edge2" class="edge">
<title>AttributesModule&#45;&gt;MerchandisingCarouselCmsModule</title>
<path fill="none" stroke="black" d="M658,-84.91C658,-104.14 658,-131.8 658,-131.8 658,-131.8 527.65,-131.8 527.65,-131.8"/>
<polygon fill="black" stroke="black" points="527.65,-128.3 517.65,-131.8 527.65,-135.3 527.65,-128.3"/>
</g>
<!-- CarouselModule -->
<g id="node4" class="node">
<title>CarouselModule</title>
<polygon fill="#8dd3c7" stroke="black" points="582.81,-84.8 579.81,-88.8 558.81,-88.8 555.81,-84.8 473.19,-84.8 473.19,-48.8 582.81,-48.8 582.81,-84.8"/>
<text text-anchor="middle" x="528" y="-62.6" font-family="Times,serif" font-size="14.00">CarouselModule</text>
</g>
<!-- CarouselModule&#45;&gt;MerchandisingCarouselCmsModule -->
<g id="edge3" class="edge">
<title>CarouselModule&#45;&gt;MerchandisingCarouselCmsModule</title>
<path fill="none" stroke="black" d="M495.41,-84.91C495.41,-84.91 495.41,-103.79 495.41,-103.79"/>
<polygon fill="black" stroke="black" points="491.91,-103.79 495.41,-113.79 498.91,-103.79 491.91,-103.79"/>
</g>
<!-- MediaModule -->
<g id="node5" class="node">
<title>MediaModule</title>
<polygon fill="#8dd3c7" stroke="black" points="455.81,-84.8 452.81,-88.8 431.81,-88.8 428.81,-84.8 360.19,-84.8 360.19,-48.8 455.81,-48.8 455.81,-84.8"/>
<text text-anchor="middle" x="408" y="-62.6" font-family="Times,serif" font-size="14.00">MediaModule</text>
</g>
<!-- MediaModule&#45;&gt;MerchandisingCarouselCmsModule -->
<g id="edge4" class="edge">
<title>MediaModule&#45;&gt;MerchandisingCarouselCmsModule</title>
<path fill="none" stroke="black" d="M408,-84.91C408,-84.91 408,-103.79 408,-103.79"/>
<polygon fill="black" stroke="black" points="404.5,-103.79 408,-113.79 411.5,-103.79 404.5,-103.79"/>
</g>
<!-- UrlModule -->
<g id="node6" class="node">
<title>UrlModule</title>
<polygon fill="#8dd3c7" stroke="black" points="342.21,-84.8 339.21,-88.8 318.21,-88.8 315.21,-84.8 263.79,-84.8 263.79,-48.8 342.21,-48.8 342.21,-84.8"/>
<text text-anchor="middle" x="303" y="-62.6" font-family="Times,serif" font-size="14.00">UrlModule</text>
</g>
<!-- UrlModule&#45;&gt;MerchandisingCarouselCmsModule -->
<g id="edge5" class="edge">
<title>UrlModule&#45;&gt;MerchandisingCarouselCmsModule</title>
<path fill="none" stroke="black" d="M320.31,-84.91C320.31,-84.91 320.31,-103.79 320.31,-103.79"/>
<polygon fill="black" stroke="black" points="316.81,-103.79 320.31,-113.79 323.81,-103.79 316.81,-103.79"/>
</g>
</g>
</svg>
