<?xml version="1.0" encoding="UTF-8" standalone="no"?>
<!DOCTYPE svg PUBLIC "-//W3C//DTD SVG 1.1//EN"
 "http://www.w3.org/Graphics/SVG/1.1/DTD/svg11.dtd">
<!-- Generated by graphviz version 2.47.3 (20210619.1520)
 -->
<!-- Title: dependencies Pages: 1 -->
<svg width="748pt" height="247pt"
 viewBox="0.00 0.00 748.00 246.80" xmlns="http://www.w3.org/2000/svg" xmlns:xlink="http://www.w3.org/1999/xlink">
<g id="graph0" class="graph" transform="scale(1 1) rotate(0) translate(4 242.8)">
<title>dependencies</title>
<polygon fill="white" stroke="transparent" points="-4,4 -4,-242.8 744,-242.8 744,4 -4,4"/>
<text text-anchor="middle" x="370" y="-8.2" font-family="sans-serif" font-size="14.00">dependencies</text>
<g id="clust1" class="cluster">
<title>cluster_MerchandisingCarouselCmsModule</title>
<polygon fill="none" stroke="black" stroke-dasharray="1,5" points="8,-32.8 8,-230.8 732,-230.8 732,-32.8 8,-32.8"/>
</g>
<g id="clust2" class="cluster">
<title>cluster_MerchandisingCarouselCmsModule_declarations</title>
<polygon fill="none" stroke="black" points="492,-40.8 492,-92.8 724,-92.8 724,-40.8 492,-40.8"/>
</g>
<g id="clust4" class="cluster">
<title>cluster_MerchandisingCarouselCmsModule_imports</title>
<polygon fill="none" stroke="black" points="16,-40.8 16,-92.8 484,-92.8 484,-40.8 16,-40.8"/>
</g>
<g id="clust5" class="cluster">
<title>cluster_MerchandisingCarouselCmsModule_exports</title>
<polygon fill="none" stroke="black" points="171,-170.8 171,-222.8 405,-222.8 405,-170.8 171,-170.8"/>
</g>
<!-- MerchandisingCarouselComponent -->
<g id="node1" class="node">
<title>MerchandisingCarouselComponent</title>
<polygon fill="#ffffb3" stroke="black" points="715.57,-84.8 500.43,-84.8 500.43,-48.8 715.57,-48.8 715.57,-84.8"/>
<text text-anchor="middle" x="608" y="-62.6" font-family="Times,serif" font-size="14.00">MerchandisingCarouselComponent</text>
</g>
<!-- MerchandisingCarouselCmsModule -->
<g id="node2" class="node">
<title>MerchandisingCarouselCmsModule</title>
<polygon fill="#8dd3c7" stroke="black" points="397.46,-149.8 394.46,-153.8 373.46,-153.8 370.46,-149.8 178.54,-149.8 178.54,-113.8 397.46,-113.8 397.46,-149.8"/>
<text text-anchor="middle" x="288" y="-127.6" font-family="Times,serif" font-size="14.00">MerchandisingCarouselCmsModule</text>
</g>
<!-- MerchandisingCarouselComponent&#45;&gt;MerchandisingCarouselCmsModule -->
<g id="edge1" class="edge">
<title>MerchandisingCarouselComponent&#45;&gt;MerchandisingCarouselCmsModule</title>
<path fill="none" stroke="black" d="M608,-84.91C608,-104.14 608,-131.8 608,-131.8 608,-131.8 407.68,-131.8 407.68,-131.8"/>
<polygon fill="black" stroke="black" points="407.68,-128.3 397.68,-131.8 407.68,-135.3 407.68,-128.3"/>
</g>
<!-- MerchandisingCarouselComponent  -->
<g id="node7" class="node">
<title>MerchandisingCarouselComponent </title>
<polygon fill="#fb8072" stroke="black" points="397.07,-214.8 178.93,-214.8 178.93,-178.8 397.07,-178.8 397.07,-214.8"/>
<text text-anchor="middle" x="288" y="-192.6" font-family="Times,serif" font-size="14.00">MerchandisingCarouselComponent </text>
</g>
<!-- MerchandisingCarouselCmsModule&#45;&gt;MerchandisingCarouselComponent  -->
<g id="edge6" class="edge">
<title>MerchandisingCarouselCmsModule&#45;&gt;MerchandisingCarouselComponent </title>
<path fill="none" stroke="black" stroke-dasharray="5,2" d="M288,-149.91C288,-149.91 288,-168.79 288,-168.79"/>
<polygon fill="black" stroke="black" points="284.5,-168.79 288,-178.79 291.5,-168.79 284.5,-168.79"/>
</g>
<!-- AttributesModule -->
<g id="node3" class="node">
<title>AttributesModule</title>
<polygon fill="#8dd3c7" stroke="black" points="475.54,-84.8 472.54,-88.8 451.54,-88.8 448.54,-84.8 360.46,-84.8 360.46,-48.8 475.54,-48.8 475.54,-84.8"/>
<text text-anchor="middle" x="418" y="-62.6" font-family="Times,serif" font-size="14.00">AttributesModule</text>
</g>
<!-- AttributesModule&#45;&gt;MerchandisingCarouselCmsModule -->
<g id="edge2" class="edge">
<title>AttributesModule&#45;&gt;MerchandisingCarouselCmsModule</title>
<path fill="none" stroke="black" d="M378.85,-84.91C378.85,-84.91 378.85,-103.79 378.85,-103.79"/>
<polygon fill="black" stroke="black" points="375.35,-103.79 378.85,-113.79 382.35,-103.79 375.35,-103.79"/>
</g>
<!-- CarouselModule -->
<g id="node4" class="node">
<title>CarouselModule</title>
<polygon fill="#8dd3c7" stroke="black" points="342.81,-84.8 339.81,-88.8 318.81,-88.8 315.81,-84.8 233.19,-84.8 233.19,-48.8 342.81,-48.8 342.81,-84.8"/>
<text text-anchor="middle" x="288" y="-62.6" font-family="Times,serif" font-size="14.00">CarouselModule</text>
</g>
<!-- CarouselModule&#45;&gt;MerchandisingCarouselCmsModule -->
<g id="edge3" class="edge">
<title>CarouselModule&#45;&gt;MerchandisingCarouselCmsModule</title>
<path fill="none" stroke="black" d="M288,-84.91C288,-84.91 288,-103.79 288,-103.79"/>
<polygon fill="black" stroke="black" points="284.5,-103.79 288,-113.79 291.5,-103.79 284.5,-103.79"/>
</g>
<!-- MediaModule -->
<g id="node5" class="node">
<title>MediaModule</title>
<polygon fill="#8dd3c7" stroke="black" points="215.81,-84.8 212.81,-88.8 191.81,-88.8 188.81,-84.8 120.19,-84.8 120.19,-48.8 215.81,-48.8 215.81,-84.8"/>
<text text-anchor="middle" x="168" y="-62.6" font-family="Times,serif" font-size="14.00">MediaModule</text>
</g>
<!-- MediaModule&#45;&gt;MerchandisingCarouselCmsModule -->
<g id="edge4" class="edge">
<title>MediaModule&#45;&gt;MerchandisingCarouselCmsModule</title>
<path fill="none" stroke="black" d="M197.09,-84.91C197.09,-84.91 197.09,-103.79 197.09,-103.79"/>
<polygon fill="black" stroke="black" points="193.59,-103.79 197.09,-113.79 200.59,-103.79 193.59,-103.79"/>
</g>
<!-- UrlModule -->
<g id="node6" class="node">
<title>UrlModule</title>
<polygon fill="#8dd3c7" stroke="black" points="102.21,-84.8 99.21,-88.8 78.21,-88.8 75.21,-84.8 23.79,-84.8 23.79,-48.8 102.21,-48.8 102.21,-84.8"/>
<text text-anchor="middle" x="63" y="-62.6" font-family="Times,serif" font-size="14.00">UrlModule</text>
</g>
<!-- UrlModule&#45;&gt;MerchandisingCarouselCmsModule -->
<g id="edge5" class="edge">
<title>UrlModule&#45;&gt;MerchandisingCarouselCmsModule</title>
<path fill="none" stroke="black" d="M63,-84.91C63,-104.14 63,-131.8 63,-131.8 63,-131.8 168.47,-131.8 168.47,-131.8"/>
<polygon fill="black" stroke="black" points="168.47,-135.3 178.47,-131.8 168.47,-128.3 168.47,-135.3"/>
</g>
</g>
</svg>
