<?xml version="1.0" encoding="UTF-8" standalone="no"?>
<!DOCTYPE svg PUBLIC "-//W3C//DTD SVG 1.1//EN"
 "http://www.w3.org/Graphics/SVG/1.1/DTD/svg11.dtd">
<!-- Generated by graphviz version 2.46.0 (20210119.1425)
 -->
<!-- Title: dependencies Pages: 1 -->
<svg width="748pt" height="284pt"
 viewBox="0.00 0.00 748.00 284.00" xmlns="http://www.w3.org/2000/svg" xmlns:xlink="http://www.w3.org/1999/xlink">
<g id="graph0" class="graph" transform="scale(1 1) rotate(0) translate(4 280)">
<title>dependencies</title>
<polygon fill="white" stroke="transparent" points="-4,4 -4,-280 744,-280 744,4 -4,4"/>
<text text-anchor="start" x="349.01" y="-42.4" font-family="sans-serif" font-weight="bold" font-size="14.00">Legend</text>
<polygon fill="#ffffb3" stroke="transparent" points="136,-10 136,-30 156,-30 156,-10 136,-10"/>
<text text-anchor="start" x="159.63" y="-15.4" font-family="sans-serif" font-size="14.00"> &#160;Declarations</text>
<polygon fill="#8dd3c7" stroke="transparent" points="249,-10 249,-30 269,-30 269,-10 249,-10"/>
<text text-anchor="start" x="272.73" y="-15.4" font-family="sans-serif" font-size="14.00"> &#160;Module</text>
<polygon fill="#80b1d3" stroke="transparent" points="335,-10 335,-30 355,-30 355,-10 335,-10"/>
<text text-anchor="start" x="358.78" y="-15.4" font-family="sans-serif" font-size="14.00"> &#160;Bootstrap</text>
<polygon fill="#fdb462" stroke="transparent" points="432,-10 432,-30 452,-30 452,-10 432,-10"/>
<text text-anchor="start" x="455.67" y="-15.4" font-family="sans-serif" font-size="14.00"> &#160;Providers</text>
<polygon fill="#fb8072" stroke="transparent" points="528,-10 528,-30 548,-30 548,-10 528,-10"/>
<text text-anchor="start" x="551.73" y="-15.4" font-family="sans-serif" font-size="14.00"> &#160;Exports</text>
<g id="clust1" class="cluster">
<title>cluster_MerchandisingCarouselCmsModule</title>
<polygon fill="none" stroke="black" stroke-dasharray="1,5" points="8,-70 8,-268 732,-268 732,-70 8,-70"/>
</g>
<g id="clust2" class="cluster">
<title>cluster_MerchandisingCarouselCmsModule_declarations</title>
<polygon fill="none" stroke="black" points="492,-78 492,-130 724,-130 724,-78 492,-78"/>
</g>
<g id="clust4" class="cluster">
<title>cluster_MerchandisingCarouselCmsModule_imports</title>
<polygon fill="none" stroke="black" points="16,-78 16,-130 484,-130 484,-78 16,-78"/>
</g>
<g id="clust5" class="cluster">
<title>cluster_MerchandisingCarouselCmsModule_exports</title>
<polygon fill="none" stroke="black" points="171,-208 171,-260 405,-260 405,-208 171,-208"/>
</g>
<!-- MerchandisingCarouselComponent -->
<g id="node1" class="node">
<title>MerchandisingCarouselComponent</title>
<polygon fill="#ffffb3" stroke="black" points="715.57,-122 500.43,-122 500.43,-86 715.57,-86 715.57,-122"/>
<text text-anchor="middle" x="608" y="-99.8" font-family="Times,serif" font-size="14.00">MerchandisingCarouselComponent</text>
</g>
<!-- MerchandisingCarouselCmsModule -->
<g id="node2" class="node">
<title>MerchandisingCarouselCmsModule</title>
<polygon fill="#8dd3c7" stroke="black" points="397.46,-187 394.46,-191 373.46,-191 370.46,-187 178.54,-187 178.54,-151 397.46,-151 397.46,-187"/>
<text text-anchor="middle" x="288" y="-164.8" font-family="Times,serif" font-size="14.00">MerchandisingCarouselCmsModule</text>
</g>
<!-- MerchandisingCarouselComponent&#45;&gt;MerchandisingCarouselCmsModule -->
<g id="edge1" class="edge">
<title>MerchandisingCarouselComponent&#45;&gt;MerchandisingCarouselCmsModule</title>
<path fill="none" stroke="black" d="M608,-122.11C608,-141.34 608,-169 608,-169 608,-169 407.68,-169 407.68,-169"/>
<polygon fill="black" stroke="black" points="407.68,-165.5 397.68,-169 407.68,-172.5 407.68,-165.5"/>
</g>
<!-- MerchandisingCarouselComponent  -->
<g id="node7" class="node">
<title>MerchandisingCarouselComponent </title>
<polygon fill="#fb8072" stroke="black" points="397.07,-252 178.93,-252 178.93,-216 397.07,-216 397.07,-252"/>
<text text-anchor="middle" x="288" y="-229.8" font-family="Times,serif" font-size="14.00">MerchandisingCarouselComponent </text>
</g>
<!-- MerchandisingCarouselCmsModule&#45;&gt;MerchandisingCarouselComponent  -->
<g id="edge6" class="edge">
<title>MerchandisingCarouselCmsModule&#45;&gt;MerchandisingCarouselComponent </title>
<path fill="none" stroke="black" stroke-dasharray="5,2" d="M288,-187.11C288,-187.11 288,-205.99 288,-205.99"/>
<polygon fill="black" stroke="black" points="284.5,-205.99 288,-215.99 291.5,-205.99 284.5,-205.99"/>
</g>
<!-- AttributesModule -->
<g id="node3" class="node">
<title>AttributesModule</title>
<polygon fill="#8dd3c7" stroke="black" points="475.54,-122 472.54,-126 451.54,-126 448.54,-122 360.46,-122 360.46,-86 475.54,-86 475.54,-122"/>
<text text-anchor="middle" x="418" y="-99.8" font-family="Times,serif" font-size="14.00">AttributesModule</text>
</g>
<!-- AttributesModule&#45;&gt;MerchandisingCarouselCmsModule -->
<g id="edge2" class="edge">
<title>AttributesModule&#45;&gt;MerchandisingCarouselCmsModule</title>
<path fill="none" stroke="black" d="M378.85,-122.11C378.85,-122.11 378.85,-140.99 378.85,-140.99"/>
<polygon fill="black" stroke="black" points="375.35,-140.99 378.85,-150.99 382.35,-140.99 375.35,-140.99"/>
</g>
<!-- CarouselModule -->
<g id="node4" class="node">
<title>CarouselModule</title>
<polygon fill="#8dd3c7" stroke="black" points="342.81,-122 339.81,-126 318.81,-126 315.81,-122 233.19,-122 233.19,-86 342.81,-86 342.81,-122"/>
<text text-anchor="middle" x="288" y="-99.8" font-family="Times,serif" font-size="14.00">CarouselModule</text>
</g>
<!-- CarouselModule&#45;&gt;MerchandisingCarouselCmsModule -->
<g id="edge3" class="edge">
<title>CarouselModule&#45;&gt;MerchandisingCarouselCmsModule</title>
<path fill="none" stroke="black" d="M288,-122.11C288,-122.11 288,-140.99 288,-140.99"/>
<polygon fill="black" stroke="black" points="284.5,-140.99 288,-150.99 291.5,-140.99 284.5,-140.99"/>
</g>
<!-- MediaModule -->
<g id="node5" class="node">
<title>MediaModule</title>
<polygon fill="#8dd3c7" stroke="black" points="215.81,-122 212.81,-126 191.81,-126 188.81,-122 120.19,-122 120.19,-86 215.81,-86 215.81,-122"/>
<text text-anchor="middle" x="168" y="-99.8" font-family="Times,serif" font-size="14.00">MediaModule</text>
</g>
<!-- MediaModule&#45;&gt;MerchandisingCarouselCmsModule -->
<g id="edge4" class="edge">
<title>MediaModule&#45;&gt;MerchandisingCarouselCmsModule</title>
<path fill="none" stroke="black" d="M197.09,-122.11C197.09,-122.11 197.09,-140.99 197.09,-140.99"/>
<polygon fill="black" stroke="black" points="193.59,-140.99 197.09,-150.99 200.59,-140.99 193.59,-140.99"/>
</g>
<!-- UrlModule -->
<g id="node6" class="node">
<title>UrlModule</title>
<polygon fill="#8dd3c7" stroke="black" points="102.21,-122 99.21,-126 78.21,-126 75.21,-122 23.79,-122 23.79,-86 102.21,-86 102.21,-122"/>
<text text-anchor="middle" x="63" y="-99.8" font-family="Times,serif" font-size="14.00">UrlModule</text>
</g>
<!-- UrlModule&#45;&gt;MerchandisingCarouselCmsModule -->
<g id="edge5" class="edge">
<title>UrlModule&#45;&gt;MerchandisingCarouselCmsModule</title>
<path fill="none" stroke="black" d="M63,-122.11C63,-141.34 63,-169 63,-169 63,-169 168.47,-169 168.47,-169"/>
<polygon fill="black" stroke="black" points="168.47,-172.5 178.47,-169 168.47,-165.5 168.47,-172.5"/>
</g>
</g>
</svg>
