<?xml version="1.0" encoding="UTF-8" standalone="no"?>
<!DOCTYPE svg PUBLIC "-//W3C//DTD SVG 1.1//EN"
 "http://www.w3.org/Graphics/SVG/1.1/DTD/svg11.dtd">
<!-- Generated by graphviz version 2.46.0 (20210119.1425)
 -->
<!-- Title: dependencies Pages: 1 -->
<svg width="981pt" height="349pt"
 viewBox="0.00 0.00 981.00 349.00" xmlns="http://www.w3.org/2000/svg" xmlns:xlink="http://www.w3.org/1999/xlink">
<g id="graph0" class="graph" transform="scale(1 1) rotate(0) translate(4 345)">
<title>dependencies</title>
<polygon fill="white" stroke="transparent" points="-4,4 -4,-345 977,-345 977,4 -4,4"/>
<text text-anchor="start" x="465.51" y="-42.4" font-family="sans-serif" font-weight="bold" font-size="14.00">Legend</text>
<polygon fill="#ffffb3" stroke="transparent" points="252.5,-10 252.5,-30 272.5,-30 272.5,-10 252.5,-10"/>
<text text-anchor="start" x="276.13" y="-15.4" font-family="sans-serif" font-size="14.00"> &#160;Declarations</text>
<polygon fill="#8dd3c7" stroke="transparent" points="365.5,-10 365.5,-30 385.5,-30 385.5,-10 365.5,-10"/>
<text text-anchor="start" x="389.23" y="-15.4" font-family="sans-serif" font-size="14.00"> &#160;Module</text>
<polygon fill="#80b1d3" stroke="transparent" points="451.5,-10 451.5,-30 471.5,-30 471.5,-10 451.5,-10"/>
<text text-anchor="start" x="475.28" y="-15.4" font-family="sans-serif" font-size="14.00"> &#160;Bootstrap</text>
<polygon fill="#fdb462" stroke="transparent" points="548.5,-10 548.5,-30 568.5,-30 568.5,-10 548.5,-10"/>
<text text-anchor="start" x="572.17" y="-15.4" font-family="sans-serif" font-size="14.00"> &#160;Providers</text>
<polygon fill="#fb8072" stroke="transparent" points="644.5,-10 644.5,-30 664.5,-30 664.5,-10 644.5,-10"/>
<text text-anchor="start" x="668.23" y="-15.4" font-family="sans-serif" font-size="14.00"> &#160;Exports</text>
<g id="clust1" class="cluster">
<title>cluster_PermissionDetailsModule</title>
<polygon fill="none" stroke="black" stroke-dasharray="1,5" points="8,-70 8,-333 965,-333 965,-70 8,-70"/>
</g>
<g id="clust5" class="cluster">
<title>cluster_PermissionDetailsModule_exports</title>
<polygon fill="none" stroke="black" points="350,-273 350,-325 552,-325 552,-273 350,-273"/>
</g>
<g id="clust2" class="cluster">
<title>cluster_PermissionDetailsModule_declarations</title>
<polygon fill="none" stroke="black" points="757,-143 757,-195 957,-195 957,-143 757,-143"/>
</g>
<g id="clust3" class="cluster">
<title>cluster_PermissionDetailsModule_PermissionDetailsComponent_providers</title>
<polygon fill="none" stroke="black" points="425,-78 425,-130 957,-130 957,-78 425,-78"/>
</g>
<g id="clust4" class="cluster">
<title>cluster_PermissionDetailsModule_imports</title>
<polygon fill="none" stroke="black" points="16,-143 16,-195 749,-195 749,-143 16,-143"/>
</g>
<!-- PermissionDetailsComponent -->
<g id="node1" class="node">
<title>PermissionDetailsComponent</title>
<polygon fill="#ffffb3" stroke="black" points="948.7,-187 765.3,-187 765.3,-151 948.7,-151 948.7,-187"/>
<text text-anchor="middle" x="857" y="-164.8" font-family="Times,serif" font-size="14.00">PermissionDetailsComponent</text>
</g>
<!-- PermissionDetailsModule -->
<g id="node2" class="node">
<title>PermissionDetailsModule</title>
<polygon fill="#8dd3c7" stroke="black" points="531.92,-252 528.92,-256 507.92,-256 504.92,-252 370.08,-252 370.08,-216 531.92,-216 531.92,-252"/>
<text text-anchor="middle" x="451" y="-229.8" font-family="Times,serif" font-size="14.00">PermissionDetailsModule</text>
</g>
<!-- PermissionDetailsComponent&#45;&gt;PermissionDetailsModule -->
<g id="edge1" class="edge">
<title>PermissionDetailsComponent&#45;&gt;PermissionDetailsModule</title>
<path fill="none" stroke="black" d="M857,-187.28C857,-208.32 857,-240 857,-240 857,-240 542.18,-240 542.18,-240"/>
<polygon fill="black" stroke="black" points="542.18,-236.5 532.18,-240 542.18,-243.5 542.18,-236.5"/>
</g>
<!-- PermissionDetailsComponent  -->
<g id="node10" class="node">
<title>PermissionDetailsComponent </title>
<polygon fill="#fb8072" stroke="black" points="544.2,-317 357.8,-317 357.8,-281 544.2,-281 544.2,-317"/>
<text text-anchor="middle" x="451" y="-294.8" font-family="Times,serif" font-size="14.00">PermissionDetailsComponent </text>
</g>
<!-- PermissionDetailsModule&#45;&gt;PermissionDetailsComponent  -->
<g id="edge9" class="edge">
<title>PermissionDetailsModule&#45;&gt;PermissionDetailsComponent </title>
<path fill="none" stroke="black" stroke-dasharray="5,2" d="M451,-252.11C451,-252.11 451,-270.99 451,-270.99"/>
<polygon fill="black" stroke="black" points="447.5,-270.99 451,-280.99 454.5,-270.99 447.5,-270.99"/>
</g>
<!-- { &#160;&#160;&#160;provide: ItemService, useExisting: PermissionItemService,} -->
<g id="node3" class="node">
<title>{ &#160;&#160;&#160;provide: ItemService, useExisting: PermissionItemService,}</title>
<ellipse fill="#fdb462" stroke="black" cx="691" cy="-104" rx="258.37" ry="18"/>
<text text-anchor="middle" x="691" y="-99.8" font-family="Times,serif" font-size="14.00">{ &#160;&#160;&#160;provide: ItemService, useExisting: PermissionItemService,}</text>
</g>
<!-- { &#160;&#160;&#160;provide: ItemService, useExisting: PermissionItemService,}&#45;&gt;PermissionDetailsComponent -->
<g id="edge2" class="edge">
<title>{ &#160;&#160;&#160;provide: ItemService, useExisting: PermissionItemService,}&#45;&gt;PermissionDetailsComponent</title>
<path fill="none" stroke="black" d="M857,-118.1C857,-118.1 857,-140.72 857,-140.72"/>
<polygon fill="black" stroke="black" points="853.5,-140.72 857,-150.72 860.5,-140.72 853.5,-140.72"/>
</g>
<!-- CardModule -->
<g id="node4" class="node">
<title>CardModule</title>
<polygon fill="#8dd3c7" stroke="black" points="741.26,-187 738.26,-191 717.26,-191 714.26,-187 654.74,-187 654.74,-151 741.26,-151 741.26,-187"/>
<text text-anchor="middle" x="698" y="-164.8" font-family="Times,serif" font-size="14.00">CardModule</text>
</g>
<!-- CardModule&#45;&gt;PermissionDetailsModule -->
<g id="edge3" class="edge">
<title>CardModule&#45;&gt;PermissionDetailsModule</title>
<path fill="none" stroke="black" d="M698,-187.02C698,-204.37 698,-228 698,-228 698,-228 541.88,-228 541.88,-228"/>
<polygon fill="black" stroke="black" points="541.88,-224.5 531.88,-228 541.88,-231.5 541.88,-224.5"/>
</g>
<!-- DisableInfoModule -->
<g id="node5" class="node">
<title>DisableInfoModule</title>
<polygon fill="#8dd3c7" stroke="black" points="636.63,-187 633.63,-191 612.63,-191 609.63,-187 511.37,-187 511.37,-151 636.63,-151 636.63,-187"/>
<text text-anchor="middle" x="574" y="-164.8" font-family="Times,serif" font-size="14.00">DisableInfoModule</text>
</g>
<!-- DisableInfoModule&#45;&gt;PermissionDetailsModule -->
<g id="edge4" class="edge">
<title>DisableInfoModule&#45;&gt;PermissionDetailsModule</title>
<path fill="none" stroke="black" d="M521.45,-187.11C521.45,-187.11 521.45,-205.99 521.45,-205.99"/>
<polygon fill="black" stroke="black" points="517.95,-205.99 521.45,-215.99 524.95,-205.99 517.95,-205.99"/>
</g>
<!-- I18nModule -->
<g id="node6" class="node">
<title>I18nModule</title>
<polygon fill="#8dd3c7" stroke="black" points="493.71,-187 490.71,-191 469.71,-191 466.71,-187 408.29,-187 408.29,-151 493.71,-151 493.71,-187"/>
<text text-anchor="middle" x="451" y="-164.8" font-family="Times,serif" font-size="14.00">I18nModule</text>
</g>
<!-- I18nModule&#45;&gt;PermissionDetailsModule -->
<g id="edge5" class="edge">
<title>I18nModule&#45;&gt;PermissionDetailsModule</title>
<path fill="none" stroke="black" d="M451,-187.11C451,-187.11 451,-205.99 451,-205.99"/>
<polygon fill="black" stroke="black" points="447.5,-205.99 451,-215.99 454.5,-205.99 447.5,-205.99"/>
</g>
<!-- ItemExistsModule -->
<g id="node7" class="node">
<title>ItemExistsModule</title>
<polygon fill="#8dd3c7" stroke="black" points="390.93,-187 387.93,-191 366.93,-191 363.93,-187 271.07,-187 271.07,-151 390.93,-151 390.93,-187"/>
<text text-anchor="middle" x="331" y="-164.8" font-family="Times,serif" font-size="14.00">ItemExistsModule</text>
</g>
<!-- ItemExistsModule&#45;&gt;PermissionDetailsModule -->
<g id="edge6" class="edge">
<title>ItemExistsModule&#45;&gt;PermissionDetailsModule</title>
<path fill="none" stroke="black" d="M380.5,-187.11C380.5,-187.11 380.5,-205.99 380.5,-205.99"/>
<polygon fill="black" stroke="black" points="377,-205.99 380.5,-215.99 384,-205.99 377,-205.99"/>
</g>
<!-- ToggleStatusModule -->
<g id="node8" class="node">
<title>ToggleStatusModule</title>
<polygon fill="#8dd3c7" stroke="black" points="253.93,-187 250.93,-191 229.93,-191 226.93,-187 120.07,-187 120.07,-151 253.93,-151 253.93,-187"/>
<text text-anchor="middle" x="187" y="-164.8" font-family="Times,serif" font-size="14.00">ToggleStatusModule</text>
</g>
<!-- ToggleStatusModule&#45;&gt;PermissionDetailsModule -->
<g id="edge7" class="edge">
<title>ToggleStatusModule&#45;&gt;PermissionDetailsModule</title>
<path fill="none" stroke="black" d="M187,-187.02C187,-204.37 187,-228 187,-228 187,-228 360,-228 360,-228"/>
<polygon fill="black" stroke="black" points="360,-231.5 370,-228 360,-224.5 360,-231.5"/>
</g>
<!-- UrlModule -->
<g id="node9" class="node">
<title>UrlModule</title>
<polygon fill="#8dd3c7" stroke="black" points="102.21,-187 99.21,-191 78.21,-191 75.21,-187 23.79,-187 23.79,-151 102.21,-151 102.21,-187"/>
<text text-anchor="middle" x="63" y="-164.8" font-family="Times,serif" font-size="14.00">UrlModule</text>
</g>
<!-- UrlModule&#45;&gt;PermissionDetailsModule -->
<g id="edge8" class="edge">
<title>UrlModule&#45;&gt;PermissionDetailsModule</title>
<path fill="none" stroke="black" d="M63,-187.28C63,-208.32 63,-240 63,-240 63,-240 360.13,-240 360.13,-240"/>
<polygon fill="black" stroke="black" points="360.13,-243.5 370.13,-240 360.13,-236.5 360.13,-243.5"/>
</g>
</g>
</svg>
