<?xml version="1.0" encoding="UTF-8" standalone="no"?>
<!DOCTYPE svg PUBLIC "-//W3C//DTD SVG 1.1//EN"
 "http://www.w3.org/Graphics/SVG/1.1/DTD/svg11.dtd">
<!-- Generated by graphviz version 2.47.3 (20210619.1520)
 -->
<!-- Title: dependencies Pages: 1 -->
<svg width="1148pt" height="358pt"
 viewBox="0.00 0.00 1148.00 358.39" xmlns="http://www.w3.org/2000/svg" xmlns:xlink="http://www.w3.org/1999/xlink">
<g id="graph0" class="graph" transform="scale(1 1) rotate(0) translate(4 354.39)">
<title>dependencies</title>
<polygon fill="white" stroke="transparent" points="-4,4 -4,-354.39 1144,-354.39 1144,4 -4,4"/>
<text text-anchor="middle" x="570" y="-8.2" font-family="sans-serif" font-size="14.00">dependencies</text>
<g id="clust1" class="cluster">
<title>cluster_PermissionDetailsModule</title>
<polygon fill="none" stroke="black" stroke-dasharray="1,5" points="8,-32.8 8,-342.39 1132,-342.39 1132,-32.8 8,-32.8"/>
</g>
<g id="clust4" class="cluster">
<title>cluster_PermissionDetailsModule_imports</title>
<polygon fill="none" stroke="black" points="224,-152.39 224,-204.39 1124,-204.39 1124,-152.39 224,-152.39"/>
</g>
<g id="clust2" class="cluster">
<title>cluster_PermissionDetailsModule_declarations</title>
<polygon fill="none" stroke="black" points="16,-152.39 16,-204.39 216,-204.39 216,-152.39 16,-152.39"/>
</g>
<g id="clust3" class="cluster">
<title>cluster_PermissionDetailsModule_PermissionDetailsComponent_providers</title>
<polygon fill="none" stroke="black" points="16,-40.8 16,-139.39 542,-139.39 542,-40.8 16,-40.8"/>
</g>
<g id="clust5" class="cluster">
<title>cluster_PermissionDetailsModule_exports</title>
<polygon fill="none" stroke="black" points="529,-282.39 529,-334.39 731,-334.39 731,-282.39 529,-282.39"/>
</g>
<!-- PermissionDetailsComponent -->
<g id="node1" class="node">
<title>PermissionDetailsComponent</title>
<polygon fill="#ffffb3" stroke="black" points="207.7,-196.39 24.3,-196.39 24.3,-160.39 207.7,-160.39 207.7,-196.39"/>
<text text-anchor="middle" x="116" y="-174.19" font-family="Times,serif" font-size="14.00">PermissionDetailsComponent</text>
</g>
<!-- PermissionDetailsModule -->
<g id="node2" class="node">
<title>PermissionDetailsModule</title>
<polygon fill="#8dd3c7" stroke="black" points="710.92,-261.39 707.92,-265.39 686.92,-265.39 683.92,-261.39 549.08,-261.39 549.08,-225.39 710.92,-225.39 710.92,-261.39"/>
<text text-anchor="middle" x="630" y="-239.19" font-family="Times,serif" font-size="14.00">PermissionDetailsModule</text>
</g>
<!-- PermissionDetailsComponent&#45;&gt;PermissionDetailsModule -->
<g id="edge1" class="edge">
<title>PermissionDetailsComponent&#45;&gt;PermissionDetailsModule</title>
<path fill="none" stroke="black" d="M116,-196.68C116,-218.6 116,-252.39 116,-252.39 116,-252.39 539.12,-252.39 539.12,-252.39"/>
<polygon fill="black" stroke="black" points="539.12,-255.89 549.12,-252.39 539.12,-248.89 539.12,-255.89"/>
</g>
<!-- PermissionDetailsComponent  -->
<g id="node11" class="node">
<title>PermissionDetailsComponent </title>
<polygon fill="#fb8072" stroke="black" points="723.2,-326.39 536.8,-326.39 536.8,-290.39 723.2,-290.39 723.2,-326.39"/>
<text text-anchor="middle" x="630" y="-304.19" font-family="Times,serif" font-size="14.00">PermissionDetailsComponent </text>
</g>
<!-- PermissionDetailsModule&#45;&gt;PermissionDetailsComponent  -->
<g id="edge10" class="edge">
<title>PermissionDetailsModule&#45;&gt;PermissionDetailsComponent </title>
<path fill="none" stroke="black" stroke-dasharray="5,2" d="M630,-261.5C630,-261.5 630,-280.38 630,-280.38"/>
<polygon fill="black" stroke="black" points="626.5,-280.38 630,-290.38 633.5,-280.38 626.5,-280.38"/>
</g>
<!-- {
 &#160;&#160;&#160;provide: ItemService, useExisting: PermissionItemService,
} -->
<g id="node3" class="node">
<title>{
 &#160;&#160;&#160;provide: ItemService, useExisting: PermissionItemService,
}</title>
<ellipse fill="#fdb462" stroke="black" cx="279" cy="-90.1" rx="255.34" ry="41.09"/>
<text text-anchor="middle" x="279" y="-102.7" font-family="Times,serif" font-size="14.00">{</text>
<text text-anchor="middle" x="279" y="-85.9" font-family="Times,serif" font-size="14.00"> &#160;&#160;&#160;provide: ItemService, useExisting: PermissionItemService,</text>
<text text-anchor="middle" x="279" y="-69.1" font-family="Times,serif" font-size="14.00">}</text>
</g>
<!-- {
 &#160;&#160;&#160;provide: ItemService, useExisting: PermissionItemService,
}&#45;&gt;PermissionDetailsComponent -->
<g id="edge2" class="edge">
<title>{
 &#160;&#160;&#160;provide: ItemService, useExisting: PermissionItemService,
}&#45;&gt;PermissionDetailsComponent</title>
<path fill="none" stroke="black" d="M116,-121.97C116,-121.97 116,-150.18 116,-150.18"/>
<polygon fill="black" stroke="black" points="112.5,-150.18 116,-160.18 119.5,-150.18 112.5,-150.18"/>
</g>
<!-- CardModule -->
<g id="node4" class="node">
<title>CardModule</title>
<polygon fill="#8dd3c7" stroke="black" points="1116.26,-196.39 1113.26,-200.39 1092.26,-200.39 1089.26,-196.39 1029.74,-196.39 1029.74,-160.39 1116.26,-160.39 1116.26,-196.39"/>
<text text-anchor="middle" x="1073" y="-174.19" font-family="Times,serif" font-size="14.00">CardModule</text>
</g>
<!-- CardModule&#45;&gt;PermissionDetailsModule -->
<g id="edge3" class="edge">
<title>CardModule&#45;&gt;PermissionDetailsModule</title>
<path fill="none" stroke="black" d="M1073,-196.68C1073,-218.6 1073,-252.39 1073,-252.39 1073,-252.39 720.74,-252.39 720.74,-252.39"/>
<polygon fill="black" stroke="black" points="720.74,-248.89 710.74,-252.39 720.74,-255.89 720.74,-248.89"/>
</g>
<!-- DisableInfoModule -->
<g id="node5" class="node">
<title>DisableInfoModule</title>
<polygon fill="#8dd3c7" stroke="black" points="1011.63,-196.39 1008.63,-200.39 987.63,-200.39 984.63,-196.39 886.37,-196.39 886.37,-160.39 1011.63,-160.39 1011.63,-196.39"/>
<text text-anchor="middle" x="949" y="-174.19" font-family="Times,serif" font-size="14.00">DisableInfoModule</text>
</g>
<!-- DisableInfoModule&#45;&gt;PermissionDetailsModule -->
<g id="edge4" class="edge">
<title>DisableInfoModule&#45;&gt;PermissionDetailsModule</title>
<path fill="none" stroke="black" d="M949,-196.5C949,-215.73 949,-243.39 949,-243.39 949,-243.39 720.91,-243.39 720.91,-243.39"/>
<polygon fill="black" stroke="black" points="720.91,-239.89 710.91,-243.39 720.91,-246.89 720.91,-239.89"/>
</g>
<!-- I18nModule -->
<g id="node6" class="node">
<title>I18nModule</title>
<polygon fill="#8dd3c7" stroke="black" points="868.71,-196.39 865.71,-200.39 844.71,-200.39 841.71,-196.39 783.29,-196.39 783.29,-160.39 868.71,-160.39 868.71,-196.39"/>
<text text-anchor="middle" x="826" y="-174.19" font-family="Times,serif" font-size="14.00">I18nModule</text>
</g>
<!-- I18nModule&#45;&gt;PermissionDetailsModule -->
<g id="edge5" class="edge">
<title>I18nModule&#45;&gt;PermissionDetailsModule</title>
<path fill="none" stroke="black" d="M826,-196.42C826,-212.79 826,-234.39 826,-234.39 826,-234.39 720.85,-234.39 720.85,-234.39"/>
<polygon fill="black" stroke="black" points="720.85,-230.89 710.85,-234.39 720.85,-237.89 720.85,-230.89"/>
</g>
<!-- ItemExistsModule -->
<g id="node7" class="node">
<title>ItemExistsModule</title>
<polygon fill="#8dd3c7" stroke="black" points="765.93,-196.39 762.93,-200.39 741.93,-200.39 738.93,-196.39 646.07,-196.39 646.07,-160.39 765.93,-160.39 765.93,-196.39"/>
<text text-anchor="middle" x="706" y="-174.19" font-family="Times,serif" font-size="14.00">ItemExistsModule</text>
</g>
<!-- ItemExistsModule&#45;&gt;PermissionDetailsModule -->
<g id="edge6" class="edge">
<title>ItemExistsModule&#45;&gt;PermissionDetailsModule</title>
<path fill="none" stroke="black" d="M678.5,-196.5C678.5,-196.5 678.5,-215.38 678.5,-215.38"/>
<polygon fill="black" stroke="black" points="675,-215.38 678.5,-225.38 682,-215.38 675,-215.38"/>
</g>
<!-- KeyboardFocusModule -->
<g id="node8" class="node">
<title>KeyboardFocusModule</title>
<polygon fill="#8dd3c7" stroke="black" points="628.19,-196.39 625.19,-200.39 604.19,-200.39 601.19,-196.39 479.81,-196.39 479.81,-160.39 628.19,-160.39 628.19,-196.39"/>
<text text-anchor="middle" x="554" y="-174.19" font-family="Times,serif" font-size="14.00">KeyboardFocusModule</text>
</g>
<!-- KeyboardFocusModule&#45;&gt;PermissionDetailsModule -->
<g id="edge7" class="edge">
<title>KeyboardFocusModule&#45;&gt;PermissionDetailsModule</title>
<path fill="none" stroke="black" d="M588.69,-196.5C588.69,-196.5 588.69,-215.38 588.69,-215.38"/>
<polygon fill="black" stroke="black" points="585.19,-215.38 588.69,-225.38 592.19,-215.38 585.19,-215.38"/>
</g>
<!-- ToggleStatusModule -->
<g id="node9" class="node">
<title>ToggleStatusModule</title>
<polygon fill="#8dd3c7" stroke="black" points="461.93,-196.39 458.93,-200.39 437.93,-200.39 434.93,-196.39 328.07,-196.39 328.07,-160.39 461.93,-160.39 461.93,-196.39"/>
<text text-anchor="middle" x="395" y="-174.19" font-family="Times,serif" font-size="14.00">ToggleStatusModule</text>
</g>
<!-- ToggleStatusModule&#45;&gt;PermissionDetailsModule -->
<g id="edge8" class="edge">
<title>ToggleStatusModule&#45;&gt;PermissionDetailsModule</title>
<path fill="none" stroke="black" d="M395,-196.42C395,-212.79 395,-234.39 395,-234.39 395,-234.39 539.13,-234.39 539.13,-234.39"/>
<polygon fill="black" stroke="black" points="539.13,-237.89 549.13,-234.39 539.13,-230.89 539.13,-237.89"/>
</g>
<!-- UrlModule -->
<g id="node10" class="node">
<title>UrlModule</title>
<polygon fill="#8dd3c7" stroke="black" points="310.21,-196.39 307.21,-200.39 286.21,-200.39 283.21,-196.39 231.79,-196.39 231.79,-160.39 310.21,-160.39 310.21,-196.39"/>
<text text-anchor="middle" x="271" y="-174.19" font-family="Times,serif" font-size="14.00">UrlModule</text>
</g>
<!-- UrlModule&#45;&gt;PermissionDetailsModule -->
<g id="edge9" class="edge">
<title>UrlModule&#45;&gt;PermissionDetailsModule</title>
<path fill="none" stroke="black" d="M271,-196.5C271,-215.73 271,-243.39 271,-243.39 271,-243.39 538.99,-243.39 538.99,-243.39"/>
<polygon fill="black" stroke="black" points="538.99,-246.89 548.99,-243.39 538.99,-239.89 538.99,-246.89"/>
</g>
</g>
</svg>
