<?xml version="1.0" encoding="UTF-8" standalone="no"?>
<!DOCTYPE svg PUBLIC "-//W3C//DTD SVG 1.1//EN"
 "http://www.w3.org/Graphics/SVG/1.1/DTD/svg11.dtd">
<!-- Generated by graphviz version 2.47.0 (20210316.0004)
 -->
<!-- Title: dependencies Pages: 1 -->
<svg width="1474pt" height="396pt"
 viewBox="0.00 0.00 1474.00 395.59" xmlns="http://www.w3.org/2000/svg" xmlns:xlink="http://www.w3.org/1999/xlink">
<g id="graph0" class="graph" transform="scale(1 1) rotate(0) translate(4 391.59)">
<title>dependencies</title>
<polygon fill="white" stroke="transparent" points="-4,4 -4,-391.59 1470,-391.59 1470,4 -4,4"/>
<text text-anchor="start" x="712.01" y="-42.4" font-family="sans-serif" font-weight="bold" font-size="14.00">Legend</text>
<polygon fill="#ffffb3" stroke="transparent" points="499,-10 499,-30 519,-30 519,-10 499,-10"/>
<text text-anchor="start" x="522.63" y="-15.4" font-family="sans-serif" font-size="14.00"> &#160;Declarations</text>
<polygon fill="#8dd3c7" stroke="transparent" points="612,-10 612,-30 632,-30 632,-10 612,-10"/>
<text text-anchor="start" x="635.73" y="-15.4" font-family="sans-serif" font-size="14.00"> &#160;Module</text>
<polygon fill="#80b1d3" stroke="transparent" points="698,-10 698,-30 718,-30 718,-10 698,-10"/>
<text text-anchor="start" x="721.78" y="-15.4" font-family="sans-serif" font-size="14.00"> &#160;Bootstrap</text>
<polygon fill="#fdb462" stroke="transparent" points="795,-10 795,-30 815,-30 815,-10 795,-10"/>
<text text-anchor="start" x="818.67" y="-15.4" font-family="sans-serif" font-size="14.00"> &#160;Providers</text>
<polygon fill="#fb8072" stroke="transparent" points="891,-10 891,-30 911,-30 911,-10 891,-10"/>
<text text-anchor="start" x="914.73" y="-15.4" font-family="sans-serif" font-size="14.00"> &#160;Exports</text>
<g id="clust1" class="cluster">
<title>cluster_PermissionDetailsModule</title>
<polygon fill="none" stroke="black" stroke-dasharray="1,5" points="8,-70 8,-379.59 1458,-379.59 1458,-70 8,-70"/>
</g>
<g id="clust4" class="cluster">
<title>cluster_PermissionDetailsModule_imports</title>
<polygon fill="none" stroke="black" points="550,-189.59 550,-241.59 1450,-241.59 1450,-189.59 550,-189.59"/>
</g>
<g id="clust3" class="cluster">
<title>cluster_PermissionDetailsModule_PermissionDetailsComponent_providers</title>
<polygon fill="none" stroke="black" points="16,-78 16,-241.59 542,-241.59 542,-78 16,-78"/>
</g>
<g id="clust5" class="cluster">
<title>cluster_PermissionDetailsModule_exports</title>
<polygon fill="none" stroke="black" points="855,-319.59 855,-371.59 1057,-371.59 1057,-319.59 855,-319.59"/>
</g>
<!-- PermissionDetailsComponent -->
<g id="node1" class="node">
<title>PermissionDetailsComponent</title>
<polygon fill="#ffffb3" stroke="black" points="451.7,-233.59 268.3,-233.59 268.3,-197.59 451.7,-197.59 451.7,-233.59"/>
<text text-anchor="middle" x="360" y="-211.39" font-family="Times,serif" font-size="14.00">PermissionDetailsComponent</text>
</g>
<!-- PermissionDetailsModule -->
<g id="node2" class="node">
<title>PermissionDetailsModule</title>
<polygon fill="#8dd3c7" stroke="black" points="1036.92,-298.59 1033.92,-302.59 1012.92,-302.59 1009.92,-298.59 875.08,-298.59 875.08,-262.59 1036.92,-262.59 1036.92,-298.59"/>
<text text-anchor="middle" x="956" y="-276.39" font-family="Times,serif" font-size="14.00">PermissionDetailsModule</text>
</g>
<!-- PermissionDetailsComponent&#45;&gt;PermissionDetailsModule -->
<g id="edge1" class="edge">
<title>PermissionDetailsComponent&#45;&gt;PermissionDetailsModule</title>
<path fill="none" stroke="black" d="M360,-233.88C360,-255.8 360,-289.59 360,-289.59 360,-289.59 865,-289.59 865,-289.59"/>
<polygon fill="black" stroke="black" points="865,-293.09 875,-289.59 865,-286.09 865,-293.09"/>
</g>
<!-- PermissionDetailsComponent  -->
<g id="node11" class="node">
<title>PermissionDetailsComponent </title>
<polygon fill="#fb8072" stroke="black" points="1049.2,-363.59 862.8,-363.59 862.8,-327.59 1049.2,-327.59 1049.2,-363.59"/>
<text text-anchor="middle" x="956" y="-341.39" font-family="Times,serif" font-size="14.00">PermissionDetailsComponent </text>
</g>
<!-- PermissionDetailsModule&#45;&gt;PermissionDetailsComponent  -->
<g id="edge10" class="edge">
<title>PermissionDetailsModule&#45;&gt;PermissionDetailsComponent </title>
<path fill="none" stroke="black" stroke-dasharray="5,2" d="M956,-298.7C956,-298.7 956,-317.58 956,-317.58"/>
<polygon fill="black" stroke="black" points="952.5,-317.58 956,-327.58 959.5,-317.58 952.5,-317.58"/>
</g>
<!-- {
 &#160;&#160;&#160;provide: ItemService, useExisting: PermissionItemService,
} -->
<g id="node3" class="node">
<title>{
 &#160;&#160;&#160;provide: ItemService, useExisting: PermissionItemService,
}</title>
<ellipse fill="#fdb462" stroke="black" cx="279" cy="-127.3" rx="255.34" ry="41.09"/>
<text text-anchor="middle" x="279" y="-139.9" font-family="Times,serif" font-size="14.00">{</text>
<text text-anchor="middle" x="279" y="-123.1" font-family="Times,serif" font-size="14.00"> &#160;&#160;&#160;provide: ItemService, useExisting: PermissionItemService,</text>
<text text-anchor="middle" x="279" y="-106.3" font-family="Times,serif" font-size="14.00">}</text>
</g>
<!-- {
 &#160;&#160;&#160;provide: ItemService, useExisting: PermissionItemService,
}&#45;&gt;PermissionDetailsComponent -->
<g id="edge2" class="edge">
<title>{
 &#160;&#160;&#160;provide: ItemService, useExisting: PermissionItemService,
}&#45;&gt;PermissionDetailsComponent</title>
<path fill="none" stroke="black" d="M360,-166.54C360,-166.54 360,-187.21 360,-187.21"/>
<polygon fill="black" stroke="black" points="356.5,-187.21 360,-197.21 363.5,-187.21 356.5,-187.21"/>
</g>
<!-- CardModule -->
<g id="node4" class="node">
<title>CardModule</title>
<polygon fill="#8dd3c7" stroke="black" points="1442.26,-233.59 1439.26,-237.59 1418.26,-237.59 1415.26,-233.59 1355.74,-233.59 1355.74,-197.59 1442.26,-197.59 1442.26,-233.59"/>
<text text-anchor="middle" x="1399" y="-211.39" font-family="Times,serif" font-size="14.00">CardModule</text>
</g>
<!-- CardModule&#45;&gt;PermissionDetailsModule -->
<g id="edge3" class="edge">
<title>CardModule&#45;&gt;PermissionDetailsModule</title>
<path fill="none" stroke="black" d="M1399,-233.88C1399,-255.8 1399,-289.59 1399,-289.59 1399,-289.59 1046.74,-289.59 1046.74,-289.59"/>
<polygon fill="black" stroke="black" points="1046.74,-286.09 1036.74,-289.59 1046.74,-293.09 1046.74,-286.09"/>
</g>
<!-- DisableInfoModule -->
<g id="node5" class="node">
<title>DisableInfoModule</title>
<polygon fill="#8dd3c7" stroke="black" points="1337.63,-233.59 1334.63,-237.59 1313.63,-237.59 1310.63,-233.59 1212.37,-233.59 1212.37,-197.59 1337.63,-197.59 1337.63,-233.59"/>
<text text-anchor="middle" x="1275" y="-211.39" font-family="Times,serif" font-size="14.00">DisableInfoModule</text>
</g>
<!-- DisableInfoModule&#45;&gt;PermissionDetailsModule -->
<g id="edge4" class="edge">
<title>DisableInfoModule&#45;&gt;PermissionDetailsModule</title>
<path fill="none" stroke="black" d="M1275,-233.7C1275,-252.93 1275,-280.59 1275,-280.59 1275,-280.59 1046.91,-280.59 1046.91,-280.59"/>
<polygon fill="black" stroke="black" points="1046.91,-277.09 1036.91,-280.59 1046.91,-284.09 1046.91,-277.09"/>
</g>
<!-- I18nModule -->
<g id="node6" class="node">
<title>I18nModule</title>
<polygon fill="#8dd3c7" stroke="black" points="1194.71,-233.59 1191.71,-237.59 1170.71,-237.59 1167.71,-233.59 1109.29,-233.59 1109.29,-197.59 1194.71,-197.59 1194.71,-233.59"/>
<text text-anchor="middle" x="1152" y="-211.39" font-family="Times,serif" font-size="14.00">I18nModule</text>
</g>
<!-- I18nModule&#45;&gt;PermissionDetailsModule -->
<g id="edge5" class="edge">
<title>I18nModule&#45;&gt;PermissionDetailsModule</title>
<path fill="none" stroke="black" d="M1152,-233.62C1152,-249.99 1152,-271.59 1152,-271.59 1152,-271.59 1046.85,-271.59 1046.85,-271.59"/>
<polygon fill="black" stroke="black" points="1046.85,-268.09 1036.85,-271.59 1046.85,-275.09 1046.85,-268.09"/>
</g>
<!-- ItemExistsModule -->
<g id="node7" class="node">
<title>ItemExistsModule</title>
<polygon fill="#8dd3c7" stroke="black" points="1091.93,-233.59 1088.93,-237.59 1067.93,-237.59 1064.93,-233.59 972.07,-233.59 972.07,-197.59 1091.93,-197.59 1091.93,-233.59"/>
<text text-anchor="middle" x="1032" y="-211.39" font-family="Times,serif" font-size="14.00">ItemExistsModule</text>
</g>
<!-- ItemExistsModule&#45;&gt;PermissionDetailsModule -->
<g id="edge6" class="edge">
<title>ItemExistsModule&#45;&gt;PermissionDetailsModule</title>
<path fill="none" stroke="black" d="M1004.5,-233.7C1004.5,-233.7 1004.5,-252.58 1004.5,-252.58"/>
<polygon fill="black" stroke="black" points="1001,-252.58 1004.5,-262.58 1008,-252.58 1001,-252.58"/>
</g>
<!-- KeyboardFocusModule -->
<g id="node8" class="node">
<title>KeyboardFocusModule</title>
<polygon fill="#8dd3c7" stroke="black" points="954.19,-233.59 951.19,-237.59 930.19,-237.59 927.19,-233.59 805.81,-233.59 805.81,-197.59 954.19,-197.59 954.19,-233.59"/>
<text text-anchor="middle" x="880" y="-211.39" font-family="Times,serif" font-size="14.00">KeyboardFocusModule</text>
</g>
<!-- KeyboardFocusModule&#45;&gt;PermissionDetailsModule -->
<g id="edge7" class="edge">
<title>KeyboardFocusModule&#45;&gt;PermissionDetailsModule</title>
<path fill="none" stroke="black" d="M914.69,-233.7C914.69,-233.7 914.69,-252.58 914.69,-252.58"/>
<polygon fill="black" stroke="black" points="911.19,-252.58 914.69,-262.58 918.19,-252.58 911.19,-252.58"/>
</g>
<!-- ToggleStatusModule -->
<g id="node9" class="node">
<title>ToggleStatusModule</title>
<polygon fill="#8dd3c7" stroke="black" points="787.93,-233.59 784.93,-237.59 763.93,-237.59 760.93,-233.59 654.07,-233.59 654.07,-197.59 787.93,-197.59 787.93,-233.59"/>
<text text-anchor="middle" x="721" y="-211.39" font-family="Times,serif" font-size="14.00">ToggleStatusModule</text>
</g>
<!-- ToggleStatusModule&#45;&gt;PermissionDetailsModule -->
<g id="edge8" class="edge">
<title>ToggleStatusModule&#45;&gt;PermissionDetailsModule</title>
<path fill="none" stroke="black" d="M721,-233.62C721,-249.99 721,-271.59 721,-271.59 721,-271.59 865.13,-271.59 865.13,-271.59"/>
<polygon fill="black" stroke="black" points="865.13,-275.09 875.13,-271.59 865.13,-268.09 865.13,-275.09"/>
</g>
<!-- UrlModule -->
<g id="node10" class="node">
<title>UrlModule</title>
<polygon fill="#8dd3c7" stroke="black" points="636.21,-233.59 633.21,-237.59 612.21,-237.59 609.21,-233.59 557.79,-233.59 557.79,-197.59 636.21,-197.59 636.21,-233.59"/>
<text text-anchor="middle" x="597" y="-211.39" font-family="Times,serif" font-size="14.00">UrlModule</text>
</g>
<!-- UrlModule&#45;&gt;PermissionDetailsModule -->
<g id="edge9" class="edge">
<title>UrlModule&#45;&gt;PermissionDetailsModule</title>
<path fill="none" stroke="black" d="M597,-233.7C597,-252.93 597,-280.59 597,-280.59 597,-280.59 864.99,-280.59 864.99,-280.59"/>
<polygon fill="black" stroke="black" points="864.99,-284.09 874.99,-280.59 864.99,-277.09 864.99,-284.09"/>
</g>
</g>
</svg>
