<?xml version="1.0" encoding="UTF-8" standalone="no"?>
<!DOCTYPE svg PUBLIC "-//W3C//DTD SVG 1.1//EN"
 "http://www.w3.org/Graphics/SVG/1.1/DTD/svg11.dtd">
<!-- Generated by graphviz version 2.40.1 (20161225.0304)
 -->
<!-- Title: dependencies Pages: 1 -->
<svg width="711pt" height="284pt"
 viewBox="0.00 0.00 711.00 284.00" xmlns="http://www.w3.org/2000/svg" xmlns:xlink="http://www.w3.org/1999/xlink">
<g id="graph0" class="graph" transform="scale(1 1) rotate(0) translate(4 280)">
<title>dependencies</title>
<polygon fill="#ffffff" stroke="transparent" points="-4,4 -4,-280 707,-280 707,4 -4,4"/>
<text text-anchor="start" x="330.5091" y="-42.4" font-family="sans-serif" font-weight="bold" font-size="14.00" fill="#000000">Legend</text>
<polygon fill="#ffffb3" stroke="transparent" points="117.5,-10 117.5,-30 137.5,-30 137.5,-10 117.5,-10"/>
<text text-anchor="start" x="141.129" y="-15.4" font-family="sans-serif" font-size="14.00" fill="#000000"> &#160;Declarations</text>
<polygon fill="#8dd3c7" stroke="transparent" points="230.5,-10 230.5,-30 250.5,-30 250.5,-10 230.5,-10"/>
<text text-anchor="start" x="254.2251" y="-15.4" font-family="sans-serif" font-size="14.00" fill="#000000"> &#160;Module</text>
<polygon fill="#80b1d3" stroke="transparent" points="316.5,-10 316.5,-30 336.5,-30 336.5,-10 316.5,-10"/>
<text text-anchor="start" x="340.2812" y="-15.4" font-family="sans-serif" font-size="14.00" fill="#000000"> &#160;Bootstrap</text>
<polygon fill="#fdb462" stroke="transparent" points="413.5,-10 413.5,-30 433.5,-30 433.5,-10 413.5,-10"/>
<text text-anchor="start" x="437.1732" y="-15.4" font-family="sans-serif" font-size="14.00" fill="#000000"> &#160;Providers</text>
<polygon fill="#fb8072" stroke="transparent" points="509.5,-10 509.5,-30 529.5,-30 529.5,-10 509.5,-10"/>
<text text-anchor="start" x="533.2258" y="-15.4" font-family="sans-serif" font-size="14.00" fill="#000000"> &#160;Exports</text>
<g id="clust1" class="cluster">
<title>cluster_CartSharedModule</title>
<polygon fill="none" stroke="#000000" stroke-dasharray="1,5" points="8,-70 8,-268 695,-268 695,-70 8,-70"/>
</g>
<g id="clust2" class="cluster">
<title>cluster_CartSharedModule_declarations</title>
<polygon fill="none" stroke="#000000" points="182,-78 182,-130 687,-130 687,-78 182,-78"/>
</g>
<g id="clust6" class="cluster">
<title>cluster_CartSharedModule_imports</title>
<polygon fill="none" stroke="#000000" points="16,-78 16,-130 174,-130 174,-78 16,-78"/>
</g>
<g id="clust7" class="cluster">
<title>cluster_CartSharedModule_exports</title>
<polygon fill="none" stroke="#000000" points="94,-208 94,-260 608,-260 608,-208 94,-208"/>
</g>
<!-- CartItemComponent -->
<g id="node1" class="node">
<title>CartItemComponent</title>
<polygon fill="#ffffb3" stroke="#000000" points="678.5912,-122 547.4088,-122 547.4088,-86 678.5912,-86 678.5912,-122"/>
<text text-anchor="middle" x="613" y="-99.8" font-family="Times,serif" font-size="14.00" fill="#000000">CartItemComponent</text>
</g>
<!-- CartSharedModule -->
<g id="node4" class="node">
<title>CartSharedModule</title>
<polygon fill="#8dd3c7" stroke="#000000" points="431.0255,-187 428.0255,-191 407.0255,-191 404.0255,-187 308.9745,-187 308.9745,-151 431.0255,-151 431.0255,-187"/>
<text text-anchor="middle" x="370" y="-164.8" font-family="Times,serif" font-size="14.00" fill="#000000">CartSharedModule</text>
</g>
<!-- CartItemComponent&#45;&gt;CartSharedModule -->
<g id="edge1" class="edge">
<title>CartItemComponent&#45;&gt;CartSharedModule</title>
<path fill="none" stroke="#000000" d="M573.875,-122.0225C573.875,-139.3734 573.875,-163 573.875,-163 573.875,-163 441.1692,-163 441.1692,-163"/>
<polygon fill="#000000" stroke="#000000" points="441.1693,-159.5001 431.1692,-163 441.1692,-166.5001 441.1693,-159.5001"/>
</g>
<!-- CartItemListComponent -->
<g id="node2" class="node">
<title>CartItemListComponent</title>
<polygon fill="#ffffb3" stroke="#000000" points="529.3697,-122 376.6303,-122 376.6303,-86 529.3697,-86 529.3697,-122"/>
<text text-anchor="middle" x="453" y="-99.8" font-family="Times,serif" font-size="14.00" fill="#000000">CartItemListComponent</text>
</g>
<!-- CartItemListComponent&#45;&gt;CartSharedModule -->
<g id="edge2" class="edge">
<title>CartItemListComponent&#45;&gt;CartSharedModule</title>
<path fill="none" stroke="#000000" d="M403.9138,-122.1061C403.9138,-122.1061 403.9138,-140.991 403.9138,-140.991"/>
<polygon fill="#000000" stroke="#000000" points="400.4138,-140.9909 403.9138,-150.991 407.4138,-140.991 400.4138,-140.9909"/>
</g>
<!-- OrderSummaryComponent -->
<g id="node3" class="node">
<title>OrderSummaryComponent</title>
<polygon fill="#ffffb3" stroke="#000000" points="358.4143,-122 189.5857,-122 189.5857,-86 358.4143,-86 358.4143,-122"/>
<text text-anchor="middle" x="274" y="-99.8" font-family="Times,serif" font-size="14.00" fill="#000000">OrderSummaryComponent</text>
</g>
<!-- OrderSummaryComponent&#45;&gt;CartSharedModule -->
<g id="edge3" class="edge">
<title>OrderSummaryComponent&#45;&gt;CartSharedModule</title>
<path fill="none" stroke="#000000" d="M333.4723,-122.1061C333.4723,-122.1061 333.4723,-140.991 333.4723,-140.991"/>
<polygon fill="#000000" stroke="#000000" points="329.9724,-140.9909 333.4723,-150.991 336.9724,-140.991 329.9724,-140.9909"/>
</g>
<!-- CartItemComponent  -->
<g id="node6" class="node">
<title>CartItemComponent </title>
<polygon fill="#fb8072" stroke="#000000" points="600.0918,-252 465.9082,-252 465.9082,-216 600.0918,-216 600.0918,-252"/>
<text text-anchor="middle" x="533" y="-229.8" font-family="Times,serif" font-size="14.00" fill="#000000">CartItemComponent </text>
</g>
<!-- CartSharedModule&#45;&gt;CartItemComponent  -->
<g id="edge5" class="edge">
<title>CartSharedModule&#45;&gt;CartItemComponent </title>
<path fill="none" stroke="#000000" stroke-dasharray="5,2" d="M431.1693,-175C463.9092,-175 497.5696,-175 497.5696,-175 497.5696,-175 497.5696,-205.9775 497.5696,-205.9775"/>
<polygon fill="#000000" stroke="#000000" points="494.0697,-205.9774 497.5696,-215.9775 501.0697,-205.9775 494.0697,-205.9774"/>
</g>
<!-- CartItemListComponent  -->
<g id="node7" class="node">
<title>CartItemListComponent </title>
<polygon fill="#fb8072" stroke="#000000" points="448.37,-252 291.63,-252 291.63,-216 448.37,-216 448.37,-252"/>
<text text-anchor="middle" x="370" y="-229.8" font-family="Times,serif" font-size="14.00" fill="#000000">CartItemListComponent </text>
</g>
<!-- CartSharedModule&#45;&gt;CartItemListComponent  -->
<g id="edge6" class="edge">
<title>CartSharedModule&#45;&gt;CartItemListComponent </title>
<path fill="none" stroke="#000000" stroke-dasharray="5,2" d="M370,-187.1061C370,-187.1061 370,-205.991 370,-205.991"/>
<polygon fill="#000000" stroke="#000000" points="366.5001,-205.9909 370,-215.991 373.5001,-205.991 366.5001,-205.9909"/>
</g>
<!-- OrderSummaryComponent  -->
<g id="node8" class="node">
<title>OrderSummaryComponent </title>
<polygon fill="#fb8072" stroke="#000000" points="273.9138,-252 102.0862,-252 102.0862,-216 273.9138,-216 273.9138,-252"/>
<text text-anchor="middle" x="188" y="-229.8" font-family="Times,serif" font-size="14.00" fill="#000000">OrderSummaryComponent </text>
</g>
<!-- CartSharedModule&#45;&gt;OrderSummaryComponent  -->
<g id="edge7" class="edge">
<title>CartSharedModule&#45;&gt;OrderSummaryComponent </title>
<path fill="none" stroke="#000000" stroke-dasharray="5,2" d="M308.612,-175C271.7222,-175 231.875,-175 231.875,-175 231.875,-175 231.875,-205.9775 231.875,-205.9775"/>
<polygon fill="#000000" stroke="#000000" points="228.3751,-205.9774 231.875,-215.9775 235.3751,-205.9775 228.3751,-205.9774"/>
</g>
<!-- UrlTranslationModule -->
<g id="node5" class="node">
<title>UrlTranslationModule</title>
<polygon fill="#8dd3c7" stroke="#000000" points="165.9664,-122 162.9664,-126 141.9664,-126 138.9664,-122 24.0336,-122 24.0336,-86 165.9664,-86 165.9664,-122"/>
<text text-anchor="middle" x="95" y="-99.8" font-family="Times,serif" font-size="14.00" fill="#000000">UrlTranslationModule</text>
</g>
<!-- UrlTranslationModule&#45;&gt;CartSharedModule -->
<g id="edge4" class="edge">
<title>UrlTranslationModule&#45;&gt;CartSharedModule</title>
<path fill="none" stroke="#000000" d="M134.0132,-122.0225C134.0132,-139.3734 134.0132,-163 134.0132,-163 134.0132,-163 298.9206,-163 298.9206,-163"/>
<polygon fill="#000000" stroke="#000000" points="298.9207,-166.5001 308.9206,-163 298.9206,-159.5001 298.9207,-166.5001"/>
</g>
</g>
</svg>
