<?xml version="1.0" encoding="UTF-8" standalone="no"?>
<!DOCTYPE svg PUBLIC "-//W3C//DTD SVG 1.1//EN"
 "http://www.w3.org/Graphics/SVG/1.1/DTD/svg11.dtd">
<!-- Generated by graphviz version 2.47.0 (20210316.0004)
 -->
<!-- Title: dependencies Pages: 1 -->
<svg width="504pt" height="284pt"
 viewBox="0.00 0.00 504.00 284.00" xmlns="http://www.w3.org/2000/svg" xmlns:xlink="http://www.w3.org/1999/xlink">
<g id="graph0" class="graph" transform="scale(1 1) rotate(0) translate(4 280)">
<title>dependencies</title>
<polygon fill="white" stroke="transparent" points="-4,4 -4,-280 500,-280 500,4 -4,4"/>
<text text-anchor="start" x="227.01" y="-42.4" font-family="sans-serif" font-weight="bold" font-size="14.00">Legend</text>
<polygon fill="#ffffb3" stroke="transparent" points="14,-10 14,-30 34,-30 34,-10 14,-10"/>
<text text-anchor="start" x="37.63" y="-15.4" font-family="sans-serif" font-size="14.00"> &#160;Declarations</text>
<polygon fill="#8dd3c7" stroke="transparent" points="127,-10 127,-30 147,-30 147,-10 127,-10"/>
<text text-anchor="start" x="150.73" y="-15.4" font-family="sans-serif" font-size="14.00"> &#160;Module</text>
<polygon fill="#80b1d3" stroke="transparent" points="213,-10 213,-30 233,-30 233,-10 213,-10"/>
<text text-anchor="start" x="236.78" y="-15.4" font-family="sans-serif" font-size="14.00"> &#160;Bootstrap</text>
<polygon fill="#fdb462" stroke="transparent" points="310,-10 310,-30 330,-30 330,-10 310,-10"/>
<text text-anchor="start" x="333.67" y="-15.4" font-family="sans-serif" font-size="14.00"> &#160;Providers</text>
<polygon fill="#fb8072" stroke="transparent" points="406,-10 406,-30 426,-30 426,-10 406,-10"/>
<text text-anchor="start" x="429.73" y="-15.4" font-family="sans-serif" font-size="14.00"> &#160;Exports</text>
<g id="clust1" class="cluster">
<title>cluster_DisableInfoModule</title>
<polygon fill="none" stroke="black" stroke-dasharray="1,5" points="52,-70 52,-268 444,-268 444,-70 52,-70"/>
</g>
<g id="clust5" class="cluster">
<title>cluster_DisableInfoModule_exports</title>
<polygon fill="none" stroke="black" points="130,-208 130,-260 296,-260 296,-208 130,-208"/>
</g>
<g id="clust2" class="cluster">
<title>cluster_DisableInfoModule_declarations</title>
<polygon fill="none" stroke="black" points="272,-78 272,-130 436,-130 436,-78 272,-78"/>
</g>
<g id="clust4" class="cluster">
<title>cluster_DisableInfoModule_imports</title>
<polygon fill="none" stroke="black" points="60,-78 60,-130 264,-130 264,-78 60,-78"/>
</g>
<!-- DisableInfoComponent -->
<g id="node1" class="node">
<title>DisableInfoComponent</title>
<polygon fill="#ffffb3" stroke="black" points="427.92,-122 280.08,-122 280.08,-86 427.92,-86 427.92,-122"/>
<text text-anchor="middle" x="354" y="-99.8" font-family="Times,serif" font-size="14.00">DisableInfoComponent</text>
</g>
<!-- DisableInfoModule -->
<g id="node2" class="node">
<title>DisableInfoModule</title>
<polygon fill="#8dd3c7" stroke="black" points="275.63,-187 272.63,-191 251.63,-191 248.63,-187 150.37,-187 150.37,-151 275.63,-151 275.63,-187"/>
<text text-anchor="middle" x="213" y="-164.8" font-family="Times,serif" font-size="14.00">DisableInfoModule</text>
</g>
<!-- DisableInfoComponent&#45;&gt;DisableInfoModule -->
<g id="edge1" class="edge">
<title>DisableInfoComponent&#45;&gt;DisableInfoModule</title>
<path fill="none" stroke="black" d="M284.38,-122.11C284.38,-141.34 284.38,-169 284.38,-169 284.38,-169 283.53,-169 283.53,-169"/>
<polygon fill="black" stroke="black" points="285.91,-165.5 275.91,-169 285.91,-172.5 285.91,-165.5"/>
</g>
<!-- DisableInfoComponent  -->
<g id="node5" class="node">
<title>DisableInfoComponent </title>
<polygon fill="#fb8072" stroke="black" points="288.42,-252 137.58,-252 137.58,-216 288.42,-216 288.42,-252"/>
<text text-anchor="middle" x="213" y="-229.8" font-family="Times,serif" font-size="14.00">DisableInfoComponent </text>
</g>
<!-- DisableInfoModule&#45;&gt;DisableInfoComponent  -->
<g id="edge4" class="edge">
<title>DisableInfoModule&#45;&gt;DisableInfoComponent </title>
<path fill="none" stroke="black" stroke-dasharray="5,2" d="M213,-187.11C213,-187.11 213,-205.99 213,-205.99"/>
<polygon fill="black" stroke="black" points="209.5,-205.99 213,-215.99 216.5,-205.99 209.5,-205.99"/>
</g>
<!-- I18nModule -->
<g id="node3" class="node">
<title>I18nModule</title>
<polygon fill="#8dd3c7" stroke="black" points="255.71,-122 252.71,-126 231.71,-126 228.71,-122 170.29,-122 170.29,-86 255.71,-86 255.71,-122"/>
<text text-anchor="middle" x="213" y="-99.8" font-family="Times,serif" font-size="14.00">I18nModule</text>
</g>
<!-- I18nModule&#45;&gt;DisableInfoModule -->
<g id="edge2" class="edge">
<title>I18nModule&#45;&gt;DisableInfoModule</title>
<path fill="none" stroke="black" d="M213,-122.11C213,-122.11 213,-140.99 213,-140.99"/>
<polygon fill="black" stroke="black" points="209.5,-140.99 213,-150.99 216.5,-140.99 209.5,-140.99"/>
</g>
<!-- IconModule -->
<g id="node4" class="node">
<title>IconModule</title>
<polygon fill="#8dd3c7" stroke="black" points="152.43,-122 149.43,-126 128.43,-126 125.43,-122 67.57,-122 67.57,-86 152.43,-86 152.43,-122"/>
<text text-anchor="middle" x="110" y="-99.8" font-family="Times,serif" font-size="14.00">IconModule</text>
</g>
<!-- IconModule&#45;&gt;DisableInfoModule -->
<g id="edge3" class="edge">
<title>IconModule&#45;&gt;DisableInfoModule</title>
<path fill="none" stroke="black" d="M143.86,-122.11C143.86,-141.34 143.86,-169 143.86,-169 143.86,-169 144.5,-169 144.5,-169"/>
<polygon fill="black" stroke="black" points="140.24,-172.5 150.24,-169 140.24,-165.5 140.24,-172.5"/>
</g>
</g>
</svg>
