<?xml version="1.0" encoding="UTF-8" standalone="no"?>
<!DOCTYPE svg PUBLIC "-//W3C//DTD SVG 1.1//EN"
 "http://www.w3.org/Graphics/SVG/1.1/DTD/svg11.dtd">
<!-- Generated by graphviz version 2.40.1 (20161225.0304)
 -->
<!-- Title: dependencies Pages: 1 -->
<svg width="504pt" height="211pt"
 viewBox="0.00 0.00 504.00 211.00" xmlns="http://www.w3.org/2000/svg" xmlns:xlink="http://www.w3.org/1999/xlink">
<g id="graph0" class="graph" transform="scale(1 1) rotate(0) translate(4 207)">
<title>dependencies</title>
<polygon fill="#ffffff" stroke="transparent" points="-4,4 -4,-207 500,-207 500,4 -4,4"/>
<text text-anchor="start" x="227.0091" y="-42.4" font-family="sans-serif" font-weight="bold" font-size="14.00" fill="#000000">Legend</text>
<polygon fill="#ffffb3" stroke="transparent" points="14,-10 14,-30 34,-30 34,-10 14,-10"/>
<text text-anchor="start" x="37.629" y="-15.4" font-family="sans-serif" font-size="14.00" fill="#000000"> &#160;Declarations</text>
<polygon fill="#8dd3c7" stroke="transparent" points="127,-10 127,-30 147,-30 147,-10 127,-10"/>
<text text-anchor="start" x="150.7251" y="-15.4" font-family="sans-serif" font-size="14.00" fill="#000000"> &#160;Module</text>
<polygon fill="#80b1d3" stroke="transparent" points="213,-10 213,-30 233,-30 233,-10 213,-10"/>
<text text-anchor="start" x="236.7812" y="-15.4" font-family="sans-serif" font-size="14.00" fill="#000000"> &#160;Bootstrap</text>
<polygon fill="#fdb462" stroke="transparent" points="310,-10 310,-30 330,-30 330,-10 310,-10"/>
<text text-anchor="start" x="333.6732" y="-15.4" font-family="sans-serif" font-size="14.00" fill="#000000"> &#160;Providers</text>
<polygon fill="#fb8072" stroke="transparent" points="406,-10 406,-30 426,-30 426,-10 406,-10"/>
<text text-anchor="start" x="429.7258" y="-15.4" font-family="sans-serif" font-size="14.00" fill="#000000"> &#160;Exports</text>
<g id="clust1" class="cluster">
<title>cluster_AnonymousConsentsModule</title>
<polygon fill="none" stroke="#000000" stroke-dasharray="1,5" points="69.5,-70 69.5,-195 426.5,-195 426.5,-70 69.5,-70"/>
</g>
<g id="clust3" class="cluster">
<title>cluster_AnonymousConsentsModule_imports</title>
<polygon fill="none" stroke="#000000" points="77.5,-78 77.5,-130 418.5,-130 418.5,-78 77.5,-78"/>
</g>
<!-- AnonymousConsentsStoreModule -->
<g id="node1" class="node">
<title>AnonymousConsentsStoreModule</title>
<polygon fill="#8dd3c7" stroke="#000000" points="410.871,-122 407.871,-126 386.871,-126 383.871,-122 202.129,-122 202.129,-86 410.871,-86 410.871,-122"/>
<text text-anchor="middle" x="306.5" y="-99.8" font-family="Times,serif" font-size="14.00" fill="#000000">AnonymousConsentsStoreModule</text>
</g>
<!-- AnonymousConsentsModule -->
<g id="node3" class="node">
<title>AnonymousConsentsModule</title>
<polygon fill="#8dd3c7" stroke="#000000" points="326.3229,-187 323.3229,-191 302.3229,-191 299.3229,-187 146.6771,-187 146.6771,-151 326.3229,-151 326.3229,-187"/>
<text text-anchor="middle" x="236.5" y="-164.8" font-family="Times,serif" font-size="14.00" fill="#000000">AnonymousConsentsModule</text>
</g>
<!-- AnonymousConsentsStoreModule&#45;&gt;AnonymousConsentsModule -->
<g id="edge1" class="edge">
<title>AnonymousConsentsStoreModule&#45;&gt;AnonymousConsentsModule</title>
<path fill="none" stroke="#000000" d="M264.1129,-122.1061C264.1129,-122.1061 264.1129,-140.991 264.1129,-140.991"/>
<polygon fill="#000000" stroke="#000000" points="260.613,-140.9909 264.1129,-150.991 267.613,-140.991 260.613,-140.9909"/>
</g>
<!-- ConfigModule -->
<g id="node2" class="node">
<title>ConfigModule</title>
<polygon fill="#8dd3c7" stroke="#000000" points="183.9386,-122 180.9386,-126 159.9386,-126 156.9386,-122 85.0614,-122 85.0614,-86 183.9386,-86 183.9386,-122"/>
<text text-anchor="middle" x="134.5" y="-99.8" font-family="Times,serif" font-size="14.00" fill="#000000">ConfigModule</text>
</g>
<!-- ConfigModule&#45;&gt;AnonymousConsentsModule -->
<g id="edge2" class="edge">
<title>ConfigModule&#45;&gt;AnonymousConsentsModule</title>
<path fill="none" stroke="#000000" d="M165.2788,-122.1061C165.2788,-122.1061 165.2788,-140.991 165.2788,-140.991"/>
<polygon fill="#000000" stroke="#000000" points="161.7788,-140.9909 165.2788,-150.991 168.7788,-140.991 161.7788,-140.9909"/>
</g>
</g>
</svg>
