<?xml version="1.0" encoding="UTF-8" standalone="no"?>
<!DOCTYPE svg PUBLIC "-//W3C//DTD SVG 1.1//EN"
 "http://www.w3.org/Graphics/SVG/1.1/DTD/svg11.dtd">
<!-- Generated by graphviz version 2.47.3 (20210619.1520)
 -->
<!-- Title: dependencies Pages: 1 -->
<svg width="290pt" height="247pt"
 viewBox="0.00 0.00 290.00 246.80" xmlns="http://www.w3.org/2000/svg" xmlns:xlink="http://www.w3.org/1999/xlink">
<g id="graph0" class="graph" transform="scale(1 1) rotate(0) translate(4 242.8)">
<title>dependencies</title>
<polygon fill="white" stroke="transparent" points="-4,4 -4,-242.8 286,-242.8 286,4 -4,4"/>
<text text-anchor="middle" x="141" y="-8.2" font-family="sans-serif" font-size="14.00">dependencies</text>
<g id="clust1" class="cluster">
<title>cluster_SpinnerModule</title>
<polygon fill="none" stroke="black" stroke-dasharray="1,5" points="8,-32.8 8,-230.8 274,-230.8 274,-32.8 8,-32.8"/>
</g>
<g id="clust2" class="cluster">
<title>cluster_SpinnerModule_declarations</title>
<polygon fill="none" stroke="black" points="126,-40.8 126,-92.8 266,-92.8 266,-40.8 126,-40.8"/>
</g>
<g id="clust5" class="cluster">
<title>cluster_SpinnerModule_exports</title>
<polygon fill="none" stroke="black" points="69,-170.8 69,-222.8 213,-222.8 213,-170.8 69,-170.8"/>
</g>
<g id="clust4" class="cluster">
<title>cluster_SpinnerModule_imports</title>
<polygon fill="none" stroke="black" points="16,-40.8 16,-92.8 118,-92.8 118,-40.8 16,-40.8"/>
</g>
<!-- SpinnerComponent -->
<g id="node1" class="node">
<title>SpinnerComponent</title>
<polygon fill="#ffffb3" stroke="black" points="258.38,-84.8 133.62,-84.8 133.62,-48.8 258.38,-48.8 258.38,-84.8"/>
<text text-anchor="middle" x="196" y="-62.6" font-family="Times,serif" font-size="14.00">SpinnerComponent</text>
</g>
<!-- SpinnerModule -->
<g id="node2" class="node">
<title>SpinnerModule</title>
<polygon fill="#8dd3c7" stroke="black" points="192.6,-149.8 189.6,-153.8 168.6,-153.8 165.6,-149.8 89.4,-149.8 89.4,-113.8 192.6,-113.8 192.6,-149.8"/>
<text text-anchor="middle" x="141" y="-127.6" font-family="Times,serif" font-size="14.00">SpinnerModule</text>
</g>
<!-- SpinnerComponent&#45;&gt;SpinnerModule -->
<g id="edge1" class="edge">
<title>SpinnerComponent&#45;&gt;SpinnerModule</title>
<path fill="none" stroke="black" d="M163.05,-84.91C163.05,-84.91 163.05,-103.79 163.05,-103.79"/>
<polygon fill="black" stroke="black" points="159.55,-103.79 163.05,-113.79 166.55,-103.79 159.55,-103.79"/>
</g>
<!-- SpinnerComponent  -->
<g id="node4" class="node">
<title>SpinnerComponent </title>
<polygon fill="#fb8072" stroke="black" points="205.38,-214.8 76.62,-214.8 76.62,-178.8 205.38,-178.8 205.38,-214.8"/>
<text text-anchor="middle" x="141" y="-192.6" font-family="Times,serif" font-size="14.00">SpinnerComponent </text>
</g>
<!-- SpinnerModule&#45;&gt;SpinnerComponent  -->
<g id="edge3" class="edge">
<title>SpinnerModule&#45;&gt;SpinnerComponent </title>
<path fill="none" stroke="black" stroke-dasharray="5,2" d="M141,-149.91C141,-149.91 141,-168.79 141,-168.79"/>
<polygon fill="black" stroke="black" points="137.5,-168.79 141,-178.79 144.5,-168.79 137.5,-168.79"/>
</g>
<!-- I18nModule -->
<g id="node3" class="node">
<title>I18nModule</title>
<polygon fill="#8dd3c7" stroke="black" points="109.71,-84.8 106.71,-88.8 85.71,-88.8 82.71,-84.8 24.29,-84.8 24.29,-48.8 109.71,-48.8 109.71,-84.8"/>
<text text-anchor="middle" x="67" y="-62.6" font-family="Times,serif" font-size="14.00">I18nModule</text>
</g>
<!-- I18nModule&#45;&gt;SpinnerModule -->
<g id="edge2" class="edge">
<title>I18nModule&#45;&gt;SpinnerModule</title>
<path fill="none" stroke="black" d="M99.53,-84.91C99.53,-84.91 99.53,-103.79 99.53,-103.79"/>
<polygon fill="black" stroke="black" points="96.03,-103.79 99.53,-113.79 103.03,-103.79 96.03,-103.79"/>
</g>
</g>
</svg>
