<?xml version="1.0" encoding="UTF-8" standalone="no"?>
<!DOCTYPE svg PUBLIC "-//W3C//DTD SVG 1.1//EN"
 "http://www.w3.org/Graphics/SVG/1.1/DTD/svg11.dtd">
<!-- Generated by graphviz version 2.40.1 (20161225.0304)
 -->
<!-- Title: dependencies Pages: 1 -->
<svg width="504pt" height="284pt"
 viewBox="0.00 0.00 504.00 284.00" xmlns="http://www.w3.org/2000/svg" xmlns:xlink="http://www.w3.org/1999/xlink">
<g id="graph0" class="graph" transform="scale(1 1) rotate(0) translate(4 280)">
<title>dependencies</title>
<polygon fill="#ffffff" stroke="transparent" points="-4,4 -4,-280 500,-280 500,4 -4,4"/>
<text text-anchor="start" x="227.0091" y="-42.4" font-family="sans-serif" font-weight="bold" font-size="14.00" fill="#000000">Legend</text>
<polygon fill="#ffffb3" stroke="transparent" points="14,-10 14,-30 34,-30 34,-10 14,-10"/>
<text text-anchor="start" x="37.629" y="-15.4" font-family="sans-serif" font-size="14.00" fill="#000000"> &#160;Declarations</text>
<polygon fill="#8dd3c7" stroke="transparent" points="127,-10 127,-30 147,-30 147,-10 127,-10"/>
<text text-anchor="start" x="150.7251" y="-15.4" font-family="sans-serif" font-size="14.00" fill="#000000"> &#160;Module</text>
<polygon fill="#80b1d3" stroke="transparent" points="213,-10 213,-30 233,-30 233,-10 213,-10"/>
<text text-anchor="start" x="236.7812" y="-15.4" font-family="sans-serif" font-size="14.00" fill="#000000"> &#160;Bootstrap</text>
<polygon fill="#fdb462" stroke="transparent" points="310,-10 310,-30 330,-30 330,-10 310,-10"/>
<text text-anchor="start" x="333.6732" y="-15.4" font-family="sans-serif" font-size="14.00" fill="#000000"> &#160;Providers</text>
<polygon fill="#fb8072" stroke="transparent" points="406,-10 406,-30 426,-30 426,-10 406,-10"/>
<text text-anchor="start" x="429.7258" y="-15.4" font-family="sans-serif" font-size="14.00" fill="#000000"> &#160;Exports</text>
<g id="clust1" class="cluster">
<title>cluster_SpinnerModule</title>
<polygon fill="none" stroke="#000000" stroke-dasharray="1,5" points="115,-70 115,-268 381,-268 381,-70 115,-70"/>
</g>
<g id="clust2" class="cluster">
<title>cluster_SpinnerModule_declarations</title>
<polygon fill="none" stroke="#000000" points="233,-78 233,-130 373,-130 373,-78 233,-78"/>
</g>
<g id="clust4" class="cluster">
<title>cluster_SpinnerModule_imports</title>
<polygon fill="none" stroke="#000000" points="123,-78 123,-130 225,-130 225,-78 123,-78"/>
</g>
<g id="clust5" class="cluster">
<title>cluster_SpinnerModule_exports</title>
<polygon fill="none" stroke="#000000" points="176,-208 176,-260 320,-260 320,-208 176,-208"/>
</g>
<!-- SpinnerComponent -->
<g id="node1" class="node">
<title>SpinnerComponent</title>
<polygon fill="#ffffb3" stroke="#000000" points="365.3809,-122 240.6191,-122 240.6191,-86 365.3809,-86 365.3809,-122"/>
<text text-anchor="middle" x="303" y="-99.8" font-family="Times,serif" font-size="14.00" fill="#000000">SpinnerComponent</text>
</g>
<!-- SpinnerModule -->
<g id="node2" class="node">
<title>SpinnerModule</title>
<polygon fill="#8dd3c7" stroke="#000000" points="299.5982,-187 296.5982,-191 275.5982,-191 272.5982,-187 196.4018,-187 196.4018,-151 299.5982,-151 299.5982,-187"/>
<text text-anchor="middle" x="248" y="-164.8" font-family="Times,serif" font-size="14.00" fill="#000000">SpinnerModule</text>
</g>
<!-- SpinnerComponent&#45;&gt;SpinnerModule -->
<g id="edge1" class="edge">
<title>SpinnerComponent&#45;&gt;SpinnerModule</title>
<path fill="none" stroke="#000000" d="M270.0544,-122.1061C270.0544,-122.1061 270.0544,-140.991 270.0544,-140.991"/>
<polygon fill="#000000" stroke="#000000" points="266.5544,-140.9909 270.0544,-150.991 273.5544,-140.991 266.5544,-140.9909"/>
</g>
<!-- SpinnerComponent  -->
<g id="node4" class="node">
<title>SpinnerComponent </title>
<polygon fill="#fb8072" stroke="#000000" points="312.3814,-252 183.6186,-252 183.6186,-216 312.3814,-216 312.3814,-252"/>
<text text-anchor="middle" x="248" y="-229.8" font-family="Times,serif" font-size="14.00" fill="#000000">SpinnerComponent </text>
</g>
<!-- SpinnerModule&#45;&gt;SpinnerComponent  -->
<g id="edge3" class="edge">
<title>SpinnerModule&#45;&gt;SpinnerComponent </title>
<path fill="none" stroke="#000000" stroke-dasharray="5,2" d="M248,-187.1061C248,-187.1061 248,-205.991 248,-205.991"/>
<polygon fill="#000000" stroke="#000000" points="244.5001,-205.9909 248,-215.991 251.5001,-205.991 244.5001,-205.9909"/>
</g>
<!-- I18nModule -->
<g id="node3" class="node">
<title>I18nModule</title>
<polygon fill="#8dd3c7" stroke="#000000" points="216.7107,-122 213.7107,-126 192.7107,-126 189.7107,-122 131.2893,-122 131.2893,-86 216.7107,-86 216.7107,-122"/>
<text text-anchor="middle" x="174" y="-99.8" font-family="Times,serif" font-size="14.00" fill="#000000">I18nModule</text>
</g>
<!-- I18nModule&#45;&gt;SpinnerModule -->
<g id="edge2" class="edge">
<title>I18nModule&#45;&gt;SpinnerModule</title>
<path fill="none" stroke="#000000" d="M206.5281,-122.1061C206.5281,-122.1061 206.5281,-140.991 206.5281,-140.991"/>
<polygon fill="#000000" stroke="#000000" points="203.0281,-140.9909 206.5281,-150.991 210.0281,-140.991 203.0281,-140.9909"/>
</g>
</g>
</svg>
