<?xml version="1.0" encoding="UTF-8" standalone="no"?>
<!DOCTYPE svg PUBLIC "-//W3C//DTD SVG 1.1//EN"
 "http://www.w3.org/Graphics/SVG/1.1/DTD/svg11.dtd">
<!-- Generated by graphviz version 2.47.3 (20210619.1520)
 -->
<!-- Title: dependencies Pages: 1 -->
<svg width="236pt" height="174pt"
 viewBox="0.00 0.00 236.00 173.80" xmlns="http://www.w3.org/2000/svg" xmlns:xlink="http://www.w3.org/1999/xlink">
<g id="graph0" class="graph" transform="scale(1 1) rotate(0) translate(4 169.8)">
<title>dependencies</title>
<polygon fill="white" stroke="transparent" points="-4,4 -4,-169.8 232,-169.8 232,4 -4,4"/>
<text text-anchor="middle" x="114" y="-8.2" font-family="sans-serif" font-size="14.00">dependencies</text>
<g id="clust1" class="cluster">
<title>cluster_VariantConfiguratorOccModule</title>
<polygon fill="none" stroke="black" stroke-dasharray="1,5" points="8,-32.8 8,-157.8 220,-157.8 220,-32.8 8,-32.8"/>
</g>
<g id="clust3" class="cluster">
<title>cluster_VariantConfiguratorOccModule_imports</title>
<polygon fill="none" stroke="black" points="57,-40.8 57,-92.8 171,-92.8 171,-40.8 57,-40.8"/>
</g>
<!-- ConfigModule -->
<g id="node1" class="node">
<title>ConfigModule</title>
<polygon fill="#8dd3c7" stroke="black" points="163.44,-84.8 160.44,-88.8 139.44,-88.8 136.44,-84.8 64.56,-84.8 64.56,-48.8 163.44,-48.8 163.44,-84.8"/>
<text text-anchor="middle" x="114" y="-62.6" font-family="Times,serif" font-size="14.00">ConfigModule</text>
</g>
<!-- VariantConfiguratorOccModule -->
<g id="node2" class="node">
<title>VariantConfiguratorOccModule</title>
<polygon fill="#8dd3c7" stroke="black" points="212.38,-149.8 209.38,-153.8 188.38,-153.8 185.38,-149.8 15.62,-149.8 15.62,-113.8 212.38,-113.8 212.38,-149.8"/>
<text text-anchor="middle" x="114" y="-127.6" font-family="Times,serif" font-size="14.00">VariantConfiguratorOccModule</text>
</g>
<!-- ConfigModule&#45;&gt;VariantConfiguratorOccModule -->
<g id="edge1" class="edge">
<title>ConfigModule&#45;&gt;VariantConfiguratorOccModule</title>
<path fill="none" stroke="black" d="M114,-84.91C114,-84.91 114,-103.79 114,-103.79"/>
<polygon fill="black" stroke="black" points="110.5,-103.79 114,-113.79 117.5,-103.79 110.5,-103.79"/>
</g>
</g>
</svg>
