<?xml version="1.0" encoding="UTF-8" standalone="no"?>
<!DOCTYPE svg PUBLIC "-//W3C//DTD SVG 1.1//EN"
 "http://www.w3.org/Graphics/SVG/1.1/DTD/svg11.dtd">
<!-- Generated by graphviz version 2.40.1 (20161225.0304)
 -->
<!-- Title: dependencies Pages: 1 -->
<svg width="800pt" height="284pt"
 viewBox="0.00 0.00 800.00 284.00" xmlns="http://www.w3.org/2000/svg" xmlns:xlink="http://www.w3.org/1999/xlink">
<g id="graph0" class="graph" transform="scale(1 1) rotate(0) translate(4 280)">
<title>dependencies</title>
<polygon fill="#ffffff" stroke="transparent" points="-4,4 -4,-280 796,-280 796,4 -4,4"/>
<text text-anchor="start" x="375.0091" y="-42.4" font-family="sans-serif" font-weight="bold" font-size="14.00" fill="#000000">Legend</text>
<polygon fill="#ffffb3" stroke="transparent" points="162,-10 162,-30 182,-30 182,-10 162,-10"/>
<text text-anchor="start" x="185.629" y="-15.4" font-family="sans-serif" font-size="14.00" fill="#000000"> &#160;Declarations</text>
<polygon fill="#8dd3c7" stroke="transparent" points="275,-10 275,-30 295,-30 295,-10 275,-10"/>
<text text-anchor="start" x="298.7251" y="-15.4" font-family="sans-serif" font-size="14.00" fill="#000000"> &#160;Module</text>
<polygon fill="#80b1d3" stroke="transparent" points="361,-10 361,-30 381,-30 381,-10 361,-10"/>
<text text-anchor="start" x="384.7812" y="-15.4" font-family="sans-serif" font-size="14.00" fill="#000000"> &#160;Bootstrap</text>
<polygon fill="#fdb462" stroke="transparent" points="458,-10 458,-30 478,-30 478,-10 458,-10"/>
<text text-anchor="start" x="481.6732" y="-15.4" font-family="sans-serif" font-size="14.00" fill="#000000"> &#160;Providers</text>
<polygon fill="#fb8072" stroke="transparent" points="554,-10 554,-30 574,-30 574,-10 554,-10"/>
<text text-anchor="start" x="577.7258" y="-15.4" font-family="sans-serif" font-size="14.00" fill="#000000"> &#160;Exports</text>
<g id="clust1" class="cluster">
<title>cluster_StockNotificationModule</title>
<polygon fill="none" stroke="#000000" stroke-dasharray="1,5" points="8,-70 8,-268 784,-268 784,-70 8,-70"/>
</g>
<g id="clust2" class="cluster">
<title>cluster_StockNotificationModule_declarations</title>
<polygon fill="none" stroke="#000000" points="343,-78 343,-130 776,-130 776,-78 343,-78"/>
</g>
<g id="clust5" class="cluster">
<title>cluster_StockNotificationModule_imports</title>
<polygon fill="none" stroke="#000000" points="16,-78 16,-130 335,-130 335,-78 16,-78"/>
</g>
<g id="clust6" class="cluster">
<title>cluster_StockNotificationModule_exports</title>
<polygon fill="none" stroke="#000000" points="91,-208 91,-260 531,-260 531,-208 91,-208"/>
</g>
<!-- StockNotificationComponent -->
<g id="node1" class="node">
<title>StockNotificationComponent</title>
<polygon fill="#ffffb3" stroke="#000000" points="768.3696,-122 587.6304,-122 587.6304,-86 768.3696,-86 768.3696,-122"/>
<text text-anchor="middle" x="678" y="-99.8" font-family="Times,serif" font-size="14.00" fill="#000000">StockNotificationComponent</text>
</g>
<!-- StockNotificationModule -->
<g id="node3" class="node">
<title>StockNotificationModule</title>
<polygon fill="#8dd3c7" stroke="#000000" points="363.587,-187 360.587,-191 339.587,-191 336.587,-187 204.413,-187 204.413,-151 363.587,-151 363.587,-187"/>
<text text-anchor="middle" x="284" y="-164.8" font-family="Times,serif" font-size="14.00" fill="#000000">StockNotificationModule</text>
</g>
<!-- StockNotificationComponent&#45;&gt;StockNotificationModule -->
<g id="edge1" class="edge">
<title>StockNotificationComponent&#45;&gt;StockNotificationModule</title>
<path fill="none" stroke="#000000" d="M678,-122.1061C678,-141.3391 678,-169 678,-169 678,-169 373.7318,-169 373.7318,-169"/>
<polygon fill="#000000" stroke="#000000" points="373.7318,-165.5001 363.7318,-169 373.7317,-172.5001 373.7318,-165.5001"/>
</g>
<!-- StockNotificationDialogComponent -->
<g id="node2" class="node">
<title>StockNotificationDialogComponent</title>
<polygon fill="#ffffb3" stroke="#000000" points="569.472,-122 350.528,-122 350.528,-86 569.472,-86 569.472,-122"/>
<text text-anchor="middle" x="460" y="-99.8" font-family="Times,serif" font-size="14.00" fill="#000000">StockNotificationDialogComponent</text>
</g>
<!-- StockNotificationDialogComponent&#45;&gt;StockNotificationModule -->
<g id="edge2" class="edge">
<title>StockNotificationDialogComponent&#45;&gt;StockNotificationModule</title>
<path fill="none" stroke="#000000" d="M357.0288,-122.1061C357.0288,-122.1061 357.0288,-140.991 357.0288,-140.991"/>
<polygon fill="#000000" stroke="#000000" points="353.5288,-140.9909 357.0288,-150.991 360.5288,-140.991 353.5288,-140.9909"/>
</g>
<!-- StockNotificationComponent  -->
<g id="node7" class="node">
<title>StockNotificationComponent </title>
<polygon fill="#fb8072" stroke="#000000" points="523.37,-252 338.63,-252 338.63,-216 523.37,-216 523.37,-252"/>
<text text-anchor="middle" x="431" y="-229.8" font-family="Times,serif" font-size="14.00" fill="#000000">StockNotificationComponent </text>
</g>
<!-- StockNotificationModule&#45;&gt;StockNotificationComponent  -->
<g id="edge6" class="edge">
<title>StockNotificationModule&#45;&gt;StockNotificationComponent </title>
<path fill="none" stroke="#000000" stroke-dasharray="5,2" d="M351.1794,-187.1061C351.1794,-187.1061 351.1794,-205.991 351.1794,-205.991"/>
<polygon fill="#000000" stroke="#000000" points="347.6794,-205.9909 351.1794,-215.991 354.6794,-205.991 347.6794,-205.9909"/>
</g>
<!-- StockNotificationDialogComponent  -->
<g id="node8" class="node">
<title>StockNotificationDialogComponent </title>
<polygon fill="#fb8072" stroke="#000000" points="321.4725,-252 98.5275,-252 98.5275,-216 321.4725,-216 321.4725,-252"/>
<text text-anchor="middle" x="210" y="-229.8" font-family="Times,serif" font-size="14.00" fill="#000000">StockNotificationDialogComponent </text>
</g>
<!-- StockNotificationModule&#45;&gt;StockNotificationDialogComponent  -->
<g id="edge7" class="edge">
<title>StockNotificationModule&#45;&gt;StockNotificationDialogComponent </title>
<path fill="none" stroke="#000000" stroke-dasharray="5,2" d="M262.8463,-187.1061C262.8463,-187.1061 262.8463,-205.991 262.8463,-205.991"/>
<polygon fill="#000000" stroke="#000000" points="259.3463,-205.9909 262.8463,-215.991 266.3463,-205.991 259.3463,-205.9909"/>
</g>
<!-- I18nModule -->
<g id="node4" class="node">
<title>I18nModule</title>
<polygon fill="#8dd3c7" stroke="#000000" points="326.7107,-122 323.7107,-126 302.7107,-126 299.7107,-122 241.2893,-122 241.2893,-86 326.7107,-86 326.7107,-122"/>
<text text-anchor="middle" x="284" y="-99.8" font-family="Times,serif" font-size="14.00" fill="#000000">I18nModule</text>
</g>
<!-- I18nModule&#45;&gt;StockNotificationModule -->
<g id="edge3" class="edge">
<title>I18nModule&#45;&gt;StockNotificationModule</title>
<path fill="none" stroke="#000000" d="M284,-122.1061C284,-122.1061 284,-140.991 284,-140.991"/>
<polygon fill="#000000" stroke="#000000" points="280.5001,-140.9909 284,-150.991 287.5001,-140.991 280.5001,-140.9909"/>
</g>
<!-- SpinnerModule -->
<g id="node5" class="node">
<title>SpinnerModule</title>
<polygon fill="#8dd3c7" stroke="#000000" points="223.5982,-122 220.5982,-126 199.5982,-126 196.5982,-122 120.4018,-122 120.4018,-86 223.5982,-86 223.5982,-122"/>
<text text-anchor="middle" x="172" y="-99.8" font-family="Times,serif" font-size="14.00" fill="#000000">SpinnerModule</text>
</g>
<!-- SpinnerModule&#45;&gt;StockNotificationModule -->
<g id="edge4" class="edge">
<title>SpinnerModule&#45;&gt;StockNotificationModule</title>
<path fill="none" stroke="#000000" d="M214.0028,-122.1061C214.0028,-122.1061 214.0028,-140.991 214.0028,-140.991"/>
<polygon fill="#000000" stroke="#000000" points="210.5029,-140.9909 214.0028,-150.991 217.5029,-140.991 210.5029,-140.9909"/>
</g>
<!-- UrlModule -->
<g id="node6" class="node">
<title>UrlModule</title>
<polygon fill="#8dd3c7" stroke="#000000" points="102.2079,-122 99.2079,-126 78.2079,-126 75.2079,-122 23.7921,-122 23.7921,-86 102.2079,-86 102.2079,-122"/>
<text text-anchor="middle" x="63" y="-99.8" font-family="Times,serif" font-size="14.00" fill="#000000">UrlModule</text>
</g>
<!-- UrlModule&#45;&gt;StockNotificationModule -->
<g id="edge5" class="edge">
<title>UrlModule&#45;&gt;StockNotificationModule</title>
<path fill="none" stroke="#000000" d="M61.3301,-122.1061C61.3301,-141.3391 61.3301,-169 61.3301,-169 61.3301,-169 194.24,-169 194.24,-169"/>
<polygon fill="#000000" stroke="#000000" points="194.24,-172.5001 204.24,-169 194.24,-165.5001 194.24,-172.5001"/>
</g>
</g>
</svg>
