<?xml version="1.0" encoding="UTF-8" standalone="no"?>
<!DOCTYPE svg PUBLIC "-//W3C//DTD SVG 1.1//EN"
 "http://www.w3.org/Graphics/SVG/1.1/DTD/svg11.dtd">
<!-- Generated by graphviz version 2.47.3 (20210619.1520)
 -->
<!-- Title: dependencies Pages: 1 -->
<svg width="800pt" height="247pt"
 viewBox="0.00 0.00 800.00 246.80" xmlns="http://www.w3.org/2000/svg" xmlns:xlink="http://www.w3.org/1999/xlink">
<g id="graph0" class="graph" transform="scale(1 1) rotate(0) translate(4 242.8)">
<title>dependencies</title>
<polygon fill="white" stroke="transparent" points="-4,4 -4,-242.8 796,-242.8 796,4 -4,4"/>
<text text-anchor="middle" x="396" y="-8.2" font-family="sans-serif" font-size="14.00">dependencies</text>
<g id="clust1" class="cluster">
<title>cluster_StockNotificationModule</title>
<polygon fill="none" stroke="black" stroke-dasharray="1,5" points="8,-32.8 8,-230.8 784,-230.8 784,-32.8 8,-32.8"/>
</g>
<g id="clust5" class="cluster">
<title>cluster_StockNotificationModule_imports</title>
<polygon fill="none" stroke="black" points="457,-40.8 457,-92.8 776,-92.8 776,-40.8 457,-40.8"/>
</g>
<g id="clust6" class="cluster">
<title>cluster_StockNotificationModule_exports</title>
<polygon fill="none" stroke="black" points="250,-170.8 250,-222.8 690,-222.8 690,-170.8 250,-170.8"/>
</g>
<g id="clust2" class="cluster">
<title>cluster_StockNotificationModule_declarations</title>
<polygon fill="none" stroke="black" points="16,-40.8 16,-92.8 449,-92.8 449,-40.8 16,-40.8"/>
</g>
<!-- StockNotificationComponent -->
<g id="node1" class="node">
<title>StockNotificationComponent</title>
<polygon fill="#ffffb3" stroke="black" points="441.37,-84.8 260.63,-84.8 260.63,-48.8 441.37,-48.8 441.37,-84.8"/>
<text text-anchor="middle" x="351" y="-62.6" font-family="Times,serif" font-size="14.00">StockNotificationComponent</text>
</g>
<!-- StockNotificationModule -->
<g id="node3" class="node">
<title>StockNotificationModule</title>
<polygon fill="#8dd3c7" stroke="black" points="583.59,-149.8 580.59,-153.8 559.59,-153.8 556.59,-149.8 424.41,-149.8 424.41,-113.8 583.59,-113.8 583.59,-149.8"/>
<text text-anchor="middle" x="504" y="-127.6" font-family="Times,serif" font-size="14.00">StockNotificationModule</text>
</g>
<!-- StockNotificationComponent&#45;&gt;StockNotificationModule -->
<g id="edge1" class="edge">
<title>StockNotificationComponent&#45;&gt;StockNotificationModule</title>
<path fill="none" stroke="black" d="M432.95,-84.91C432.95,-84.91 432.95,-103.79 432.95,-103.79"/>
<polygon fill="black" stroke="black" points="429.45,-103.79 432.95,-113.79 436.45,-103.79 429.45,-103.79"/>
</g>
<!-- StockNotificationDialogComponent -->
<g id="node2" class="node">
<title>StockNotificationDialogComponent</title>
<polygon fill="#ffffb3" stroke="black" points="242.47,-84.8 23.53,-84.8 23.53,-48.8 242.47,-48.8 242.47,-84.8"/>
<text text-anchor="middle" x="133" y="-62.6" font-family="Times,serif" font-size="14.00">StockNotificationDialogComponent</text>
</g>
<!-- StockNotificationDialogComponent&#45;&gt;StockNotificationModule -->
<g id="edge2" class="edge">
<title>StockNotificationDialogComponent&#45;&gt;StockNotificationModule</title>
<path fill="none" stroke="black" d="M133,-84.91C133,-104.14 133,-131.8 133,-131.8 133,-131.8 414.41,-131.8 414.41,-131.8"/>
<polygon fill="black" stroke="black" points="414.41,-135.3 424.41,-131.8 414.41,-128.3 414.41,-135.3"/>
</g>
<!-- StockNotificationComponent  -->
<g id="node7" class="node">
<title>StockNotificationComponent </title>
<polygon fill="#fb8072" stroke="black" points="682.37,-214.8 497.63,-214.8 497.63,-178.8 682.37,-178.8 682.37,-214.8"/>
<text text-anchor="middle" x="590" y="-192.6" font-family="Times,serif" font-size="14.00">StockNotificationComponent </text>
</g>
<!-- StockNotificationModule&#45;&gt;StockNotificationComponent  -->
<g id="edge6" class="edge">
<title>StockNotificationModule&#45;&gt;StockNotificationComponent </title>
<path fill="none" stroke="black" stroke-dasharray="5,2" d="M540.68,-149.91C540.68,-149.91 540.68,-168.79 540.68,-168.79"/>
<polygon fill="black" stroke="black" points="537.18,-168.79 540.68,-178.79 544.18,-168.79 537.18,-168.79"/>
</g>
<!-- StockNotificationDialogComponent  -->
<g id="node8" class="node">
<title>StockNotificationDialogComponent </title>
<polygon fill="#fb8072" stroke="black" points="480.47,-214.8 257.53,-214.8 257.53,-178.8 480.47,-178.8 480.47,-214.8"/>
<text text-anchor="middle" x="369" y="-192.6" font-family="Times,serif" font-size="14.00">StockNotificationDialogComponent </text>
</g>
<!-- StockNotificationModule&#45;&gt;StockNotificationDialogComponent  -->
<g id="edge7" class="edge">
<title>StockNotificationModule&#45;&gt;StockNotificationDialogComponent </title>
<path fill="none" stroke="black" stroke-dasharray="5,2" d="M452.35,-149.91C452.35,-149.91 452.35,-168.79 452.35,-168.79"/>
<polygon fill="black" stroke="black" points="448.85,-168.79 452.35,-178.79 455.85,-168.79 448.85,-168.79"/>
</g>
<!-- I18nModule -->
<g id="node4" class="node">
<title>I18nModule</title>
<polygon fill="#8dd3c7" stroke="black" points="767.71,-84.8 764.71,-88.8 743.71,-88.8 740.71,-84.8 682.29,-84.8 682.29,-48.8 767.71,-48.8 767.71,-84.8"/>
<text text-anchor="middle" x="725" y="-62.6" font-family="Times,serif" font-size="14.00">I18nModule</text>
</g>
<!-- I18nModule&#45;&gt;StockNotificationModule -->
<g id="edge3" class="edge">
<title>I18nModule&#45;&gt;StockNotificationModule</title>
<path fill="none" stroke="black" d="M725,-84.91C725,-104.14 725,-131.8 725,-131.8 725,-131.8 593.79,-131.8 593.79,-131.8"/>
<polygon fill="black" stroke="black" points="593.79,-128.3 583.79,-131.8 593.79,-135.3 593.79,-128.3"/>
</g>
<!-- SpinnerModule -->
<g id="node5" class="node">
<title>SpinnerModule</title>
<polygon fill="#8dd3c7" stroke="black" points="664.6,-84.8 661.6,-88.8 640.6,-88.8 637.6,-84.8 561.4,-84.8 561.4,-48.8 664.6,-48.8 664.6,-84.8"/>
<text text-anchor="middle" x="613" y="-62.6" font-family="Times,serif" font-size="14.00">SpinnerModule</text>
</g>
<!-- SpinnerModule&#45;&gt;StockNotificationModule -->
<g id="edge4" class="edge">
<title>SpinnerModule&#45;&gt;StockNotificationModule</title>
<path fill="none" stroke="black" d="M572.5,-84.91C572.5,-84.91 572.5,-103.79 572.5,-103.79"/>
<polygon fill="black" stroke="black" points="569,-103.79 572.5,-113.79 576,-103.79 569,-103.79"/>
</g>
<!-- UrlModule -->
<g id="node6" class="node">
<title>UrlModule</title>
<polygon fill="#8dd3c7" stroke="black" points="543.21,-84.8 540.21,-88.8 519.21,-88.8 516.21,-84.8 464.79,-84.8 464.79,-48.8 543.21,-48.8 543.21,-84.8"/>
<text text-anchor="middle" x="504" y="-62.6" font-family="Times,serif" font-size="14.00">UrlModule</text>
</g>
<!-- UrlModule&#45;&gt;StockNotificationModule -->
<g id="edge5" class="edge">
<title>UrlModule&#45;&gt;StockNotificationModule</title>
<path fill="none" stroke="black" d="M504,-84.91C504,-84.91 504,-103.79 504,-103.79"/>
<polygon fill="black" stroke="black" points="500.5,-103.79 504,-113.79 507.5,-103.79 500.5,-103.79"/>
</g>
</g>
</svg>
