<?xml version="1.0" encoding="UTF-8" standalone="no"?>
<!DOCTYPE svg PUBLIC "-//W3C//DTD SVG 1.1//EN"
 "http://www.w3.org/Graphics/SVG/1.1/DTD/svg11.dtd">
<!-- Generated by graphviz version 2.47.0 (20210316.0004)
 -->
<!-- Title: dependencies Pages: 1 -->
<svg width="800pt" height="284pt"
 viewBox="0.00 0.00 800.00 284.00" xmlns="http://www.w3.org/2000/svg" xmlns:xlink="http://www.w3.org/1999/xlink">
<g id="graph0" class="graph" transform="scale(1 1) rotate(0) translate(4 280)">
<title>dependencies</title>
<polygon fill="white" stroke="transparent" points="-4,4 -4,-280 796,-280 796,4 -4,4"/>
<text text-anchor="start" x="375.01" y="-42.4" font-family="sans-serif" font-weight="bold" font-size="14.00">Legend</text>
<polygon fill="#ffffb3" stroke="transparent" points="162,-10 162,-30 182,-30 182,-10 162,-10"/>
<text text-anchor="start" x="185.63" y="-15.4" font-family="sans-serif" font-size="14.00"> &#160;Declarations</text>
<polygon fill="#8dd3c7" stroke="transparent" points="275,-10 275,-30 295,-30 295,-10 275,-10"/>
<text text-anchor="start" x="298.73" y="-15.4" font-family="sans-serif" font-size="14.00"> &#160;Module</text>
<polygon fill="#80b1d3" stroke="transparent" points="361,-10 361,-30 381,-30 381,-10 361,-10"/>
<text text-anchor="start" x="384.78" y="-15.4" font-family="sans-serif" font-size="14.00"> &#160;Bootstrap</text>
<polygon fill="#fdb462" stroke="transparent" points="458,-10 458,-30 478,-30 478,-10 458,-10"/>
<text text-anchor="start" x="481.67" y="-15.4" font-family="sans-serif" font-size="14.00"> &#160;Providers</text>
<polygon fill="#fb8072" stroke="transparent" points="554,-10 554,-30 574,-30 574,-10 554,-10"/>
<text text-anchor="start" x="577.73" y="-15.4" font-family="sans-serif" font-size="14.00"> &#160;Exports</text>
<g id="clust1" class="cluster">
<title>cluster_StockNotificationModule</title>
<polygon fill="none" stroke="black" stroke-dasharray="1,5" points="8,-70 8,-268 784,-268 784,-70 8,-70"/>
</g>
<g id="clust2" class="cluster">
<title>cluster_StockNotificationModule_declarations</title>
<polygon fill="none" stroke="black" points="343,-78 343,-130 776,-130 776,-78 343,-78"/>
</g>
<g id="clust5" class="cluster">
<title>cluster_StockNotificationModule_imports</title>
<polygon fill="none" stroke="black" points="16,-78 16,-130 335,-130 335,-78 16,-78"/>
</g>
<g id="clust6" class="cluster">
<title>cluster_StockNotificationModule_exports</title>
<polygon fill="none" stroke="black" points="91,-208 91,-260 531,-260 531,-208 91,-208"/>
</g>
<!-- StockNotificationComponent -->
<g id="node1" class="node">
<title>StockNotificationComponent</title>
<polygon fill="#ffffb3" stroke="black" points="768.37,-122 587.63,-122 587.63,-86 768.37,-86 768.37,-122"/>
<text text-anchor="middle" x="678" y="-99.8" font-family="Times,serif" font-size="14.00">StockNotificationComponent</text>
</g>
<!-- StockNotificationModule -->
<g id="node3" class="node">
<title>StockNotificationModule</title>
<polygon fill="#8dd3c7" stroke="black" points="363.59,-187 360.59,-191 339.59,-191 336.59,-187 204.41,-187 204.41,-151 363.59,-151 363.59,-187"/>
<text text-anchor="middle" x="284" y="-164.8" font-family="Times,serif" font-size="14.00">StockNotificationModule</text>
</g>
<!-- StockNotificationComponent&#45;&gt;StockNotificationModule -->
<g id="edge1" class="edge">
<title>StockNotificationComponent&#45;&gt;StockNotificationModule</title>
<path fill="none" stroke="black" d="M678,-122.11C678,-141.34 678,-169 678,-169 678,-169 373.73,-169 373.73,-169"/>
<polygon fill="black" stroke="black" points="373.73,-165.5 363.73,-169 373.73,-172.5 373.73,-165.5"/>
</g>
<!-- StockNotificationDialogComponent -->
<g id="node2" class="node">
<title>StockNotificationDialogComponent</title>
<polygon fill="#ffffb3" stroke="black" points="569.47,-122 350.53,-122 350.53,-86 569.47,-86 569.47,-122"/>
<text text-anchor="middle" x="460" y="-99.8" font-family="Times,serif" font-size="14.00">StockNotificationDialogComponent</text>
</g>
<!-- StockNotificationDialogComponent&#45;&gt;StockNotificationModule -->
<g id="edge2" class="edge">
<title>StockNotificationDialogComponent&#45;&gt;StockNotificationModule</title>
<path fill="none" stroke="black" d="M357.03,-122.11C357.03,-122.11 357.03,-140.99 357.03,-140.99"/>
<polygon fill="black" stroke="black" points="353.53,-140.99 357.03,-150.99 360.53,-140.99 353.53,-140.99"/>
</g>
<!-- StockNotificationComponent  -->
<g id="node7" class="node">
<title>StockNotificationComponent </title>
<polygon fill="#fb8072" stroke="black" points="523.37,-252 338.63,-252 338.63,-216 523.37,-216 523.37,-252"/>
<text text-anchor="middle" x="431" y="-229.8" font-family="Times,serif" font-size="14.00">StockNotificationComponent </text>
</g>
<!-- StockNotificationModule&#45;&gt;StockNotificationComponent  -->
<g id="edge6" class="edge">
<title>StockNotificationModule&#45;&gt;StockNotificationComponent </title>
<path fill="none" stroke="black" stroke-dasharray="5,2" d="M351.18,-187.11C351.18,-187.11 351.18,-205.99 351.18,-205.99"/>
<polygon fill="black" stroke="black" points="347.68,-205.99 351.18,-215.99 354.68,-205.99 347.68,-205.99"/>
</g>
<!-- StockNotificationDialogComponent  -->
<g id="node8" class="node">
<title>StockNotificationDialogComponent </title>
<polygon fill="#fb8072" stroke="black" points="321.47,-252 98.53,-252 98.53,-216 321.47,-216 321.47,-252"/>
<text text-anchor="middle" x="210" y="-229.8" font-family="Times,serif" font-size="14.00">StockNotificationDialogComponent </text>
</g>
<!-- StockNotificationModule&#45;&gt;StockNotificationDialogComponent  -->
<g id="edge7" class="edge">
<title>StockNotificationModule&#45;&gt;StockNotificationDialogComponent </title>
<path fill="none" stroke="black" stroke-dasharray="5,2" d="M262.85,-187.11C262.85,-187.11 262.85,-205.99 262.85,-205.99"/>
<polygon fill="black" stroke="black" points="259.35,-205.99 262.85,-215.99 266.35,-205.99 259.35,-205.99"/>
</g>
<!-- I18nModule -->
<g id="node4" class="node">
<title>I18nModule</title>
<polygon fill="#8dd3c7" stroke="black" points="326.71,-122 323.71,-126 302.71,-126 299.71,-122 241.29,-122 241.29,-86 326.71,-86 326.71,-122"/>
<text text-anchor="middle" x="284" y="-99.8" font-family="Times,serif" font-size="14.00">I18nModule</text>
</g>
<!-- I18nModule&#45;&gt;StockNotificationModule -->
<g id="edge3" class="edge">
<title>I18nModule&#45;&gt;StockNotificationModule</title>
<path fill="none" stroke="black" d="M284,-122.11C284,-122.11 284,-140.99 284,-140.99"/>
<polygon fill="black" stroke="black" points="280.5,-140.99 284,-150.99 287.5,-140.99 280.5,-140.99"/>
</g>
<!-- SpinnerModule -->
<g id="node5" class="node">
<title>SpinnerModule</title>
<polygon fill="#8dd3c7" stroke="black" points="223.6,-122 220.6,-126 199.6,-126 196.6,-122 120.4,-122 120.4,-86 223.6,-86 223.6,-122"/>
<text text-anchor="middle" x="172" y="-99.8" font-family="Times,serif" font-size="14.00">SpinnerModule</text>
</g>
<!-- SpinnerModule&#45;&gt;StockNotificationModule -->
<g id="edge4" class="edge">
<title>SpinnerModule&#45;&gt;StockNotificationModule</title>
<path fill="none" stroke="black" d="M214,-122.11C214,-122.11 214,-140.99 214,-140.99"/>
<polygon fill="black" stroke="black" points="210.5,-140.99 214,-150.99 217.5,-140.99 210.5,-140.99"/>
</g>
<!-- UrlModule -->
<g id="node6" class="node">
<title>UrlModule</title>
<polygon fill="#8dd3c7" stroke="black" points="102.21,-122 99.21,-126 78.21,-126 75.21,-122 23.79,-122 23.79,-86 102.21,-86 102.21,-122"/>
<text text-anchor="middle" x="63" y="-99.8" font-family="Times,serif" font-size="14.00">UrlModule</text>
</g>
<!-- UrlModule&#45;&gt;StockNotificationModule -->
<g id="edge5" class="edge">
<title>UrlModule&#45;&gt;StockNotificationModule</title>
<path fill="none" stroke="black" d="M61.33,-122.11C61.33,-141.34 61.33,-169 61.33,-169 61.33,-169 194.24,-169 194.24,-169"/>
<polygon fill="black" stroke="black" points="194.24,-172.5 204.24,-169 194.24,-165.5 194.24,-172.5"/>
</g>
</g>
</svg>
