<?xml version="1.0" encoding="UTF-8" standalone="no"?>
<!DOCTYPE svg PUBLIC "-//W3C//DTD SVG 1.1//EN"
 "http://www.w3.org/Graphics/SVG/1.1/DTD/svg11.dtd">
<!-- Generated by graphviz version 2.40.1 (20161225.0304)
 -->
<!-- Title: dependencies Pages: 1 -->
<svg width="706pt" height="211pt"
 viewBox="0.00 0.00 706.00 211.00" xmlns="http://www.w3.org/2000/svg" xmlns:xlink="http://www.w3.org/1999/xlink">
<g id="graph0" class="graph" transform="scale(1 1) rotate(0) translate(4 207)">
<title>dependencies</title>
<polygon fill="#ffffff" stroke="transparent" points="-4,4 -4,-207 702,-207 702,4 -4,4"/>
<text text-anchor="start" x="328.0091" y="-42.4" font-family="sans-serif" font-weight="bold" font-size="14.00" fill="#000000">Legend</text>
<polygon fill="#ffffb3" stroke="transparent" points="115,-10 115,-30 135,-30 135,-10 115,-10"/>
<text text-anchor="start" x="138.629" y="-15.4" font-family="sans-serif" font-size="14.00" fill="#000000"> &#160;Declarations</text>
<polygon fill="#8dd3c7" stroke="transparent" points="228,-10 228,-30 248,-30 248,-10 228,-10"/>
<text text-anchor="start" x="251.7251" y="-15.4" font-family="sans-serif" font-size="14.00" fill="#000000"> &#160;Module</text>
<polygon fill="#80b1d3" stroke="transparent" points="314,-10 314,-30 334,-30 334,-10 314,-10"/>
<text text-anchor="start" x="337.7812" y="-15.4" font-family="sans-serif" font-size="14.00" fill="#000000"> &#160;Bootstrap</text>
<polygon fill="#fdb462" stroke="transparent" points="411,-10 411,-30 431,-30 431,-10 411,-10"/>
<text text-anchor="start" x="434.6732" y="-15.4" font-family="sans-serif" font-size="14.00" fill="#000000"> &#160;Providers</text>
<polygon fill="#fb8072" stroke="transparent" points="507,-10 507,-30 527,-30 527,-10 507,-10"/>
<text text-anchor="start" x="530.7258" y="-15.4" font-family="sans-serif" font-size="14.00" fill="#000000"> &#160;Exports</text>
<g id="clust1" class="cluster">
<title>cluster_UnitAddressListModule</title>
<polygon fill="none" stroke="#000000" stroke-dasharray="1,5" points="8,-70 8,-195 690,-195 690,-70 8,-70"/>
</g>
<g id="clust2" class="cluster">
<title>cluster_UnitAddressListModule_declarations</title>
<polygon fill="none" stroke="#000000" points="343,-78 343,-130 682,-130 682,-78 343,-78"/>
</g>
<g id="clust5" class="cluster">
<title>cluster_UnitAddressListModule_imports</title>
<polygon fill="none" stroke="#000000" points="16,-78 16,-130 335,-130 335,-78 16,-78"/>
</g>
<!-- LinkCellComponent -->
<g id="node1" class="node">
<title>LinkCellComponent</title>
<polygon fill="#ffffb3" stroke="#000000" points="673.608,-122 542.392,-122 542.392,-86 673.608,-86 673.608,-122"/>
<text text-anchor="middle" x="608" y="-99.8" font-family="Times,serif" font-size="14.00" fill="#000000">LinkCellComponent</text>
</g>
<!-- UnitAddressListModule -->
<g id="node3" class="node">
<title>UnitAddressListModule</title>
<polygon fill="#8dd3c7" stroke="#000000" points="360.087,-187 357.087,-191 336.087,-191 333.087,-187 207.913,-187 207.913,-151 360.087,-151 360.087,-187"/>
<text text-anchor="middle" x="284" y="-164.8" font-family="Times,serif" font-size="14.00" fill="#000000">UnitAddressListModule</text>
</g>
<!-- LinkCellComponent&#45;&gt;UnitAddressListModule -->
<g id="edge1" class="edge">
<title>LinkCellComponent&#45;&gt;UnitAddressListModule</title>
<path fill="none" stroke="#000000" d="M608,-122.1061C608,-141.3391 608,-169 608,-169 608,-169 370.3732,-169 370.3732,-169"/>
<polygon fill="#000000" stroke="#000000" points="370.3732,-165.5001 360.3732,-169 370.3732,-172.5001 370.3732,-165.5001"/>
</g>
<!-- UnitAddressListComponent -->
<g id="node2" class="node">
<title>UnitAddressListComponent</title>
<polygon fill="#ffffb3" stroke="#000000" points="524.8696,-122 351.1304,-122 351.1304,-86 524.8696,-86 524.8696,-122"/>
<text text-anchor="middle" x="438" y="-99.8" font-family="Times,serif" font-size="14.00" fill="#000000">UnitAddressListComponent</text>
</g>
<!-- UnitAddressListComponent&#45;&gt;UnitAddressListModule -->
<g id="edge2" class="edge">
<title>UnitAddressListComponent&#45;&gt;UnitAddressListModule</title>
<path fill="none" stroke="#000000" d="M355.5544,-122.1061C355.5544,-122.1061 355.5544,-140.991 355.5544,-140.991"/>
<polygon fill="#000000" stroke="#000000" points="352.0544,-140.9909 355.5544,-150.991 359.0544,-140.991 352.0544,-140.9909"/>
</g>
<!-- I18nModule -->
<g id="node4" class="node">
<title>I18nModule</title>
<polygon fill="#8dd3c7" stroke="#000000" points="326.7107,-122 323.7107,-126 302.7107,-126 299.7107,-122 241.2893,-122 241.2893,-86 326.7107,-86 326.7107,-122"/>
<text text-anchor="middle" x="284" y="-99.8" font-family="Times,serif" font-size="14.00" fill="#000000">I18nModule</text>
</g>
<!-- I18nModule&#45;&gt;UnitAddressListModule -->
<g id="edge3" class="edge">
<title>I18nModule&#45;&gt;UnitAddressListModule</title>
<path fill="none" stroke="#000000" d="M284,-122.1061C284,-122.1061 284,-140.991 284,-140.991"/>
<polygon fill="#000000" stroke="#000000" points="280.5001,-140.9909 284,-150.991 287.5001,-140.991 280.5001,-140.9909"/>
</g>
<!-- SubListModule -->
<g id="node5" class="node">
<title>SubListModule</title>
<polygon fill="#8dd3c7" stroke="#000000" points="223.6109,-122 220.6109,-126 199.6109,-126 196.6109,-122 120.3891,-122 120.3891,-86 223.6109,-86 223.6109,-122"/>
<text text-anchor="middle" x="172" y="-99.8" font-family="Times,serif" font-size="14.00" fill="#000000">SubListModule</text>
</g>
<!-- SubListModule&#45;&gt;UnitAddressListModule -->
<g id="edge4" class="edge">
<title>SubListModule&#45;&gt;UnitAddressListModule</title>
<path fill="none" stroke="#000000" d="M215.756,-122.1061C215.756,-122.1061 215.756,-140.991 215.756,-140.991"/>
<polygon fill="#000000" stroke="#000000" points="212.256,-140.9909 215.756,-150.991 219.256,-140.991 212.256,-140.9909"/>
</g>
<!-- UrlModule -->
<g id="node6" class="node">
<title>UrlModule</title>
<polygon fill="#8dd3c7" stroke="#000000" points="102.2079,-122 99.2079,-126 78.2079,-126 75.2079,-122 23.7921,-122 23.7921,-86 102.2079,-86 102.2079,-122"/>
<text text-anchor="middle" x="63" y="-99.8" font-family="Times,serif" font-size="14.00" fill="#000000">UrlModule</text>
</g>
<!-- UrlModule&#45;&gt;UnitAddressListModule -->
<g id="edge5" class="edge">
<title>UrlModule&#45;&gt;UnitAddressListModule</title>
<path fill="none" stroke="#000000" d="M63,-122.1061C63,-141.3391 63,-169 63,-169 63,-169 197.9443,-169 197.9443,-169"/>
<polygon fill="#000000" stroke="#000000" points="197.9444,-172.5001 207.9443,-169 197.9443,-165.5001 197.9444,-172.5001"/>
</g>
</g>
</svg>
