<?xml version="1.0" encoding="UTF-8" standalone="no"?>
<!DOCTYPE svg PUBLIC "-//W3C//DTD SVG 1.1//EN"
 "http://www.w3.org/Graphics/SVG/1.1/DTD/svg11.dtd">
<!-- Generated by graphviz version 2.46.0 (20210119.1425)
 -->
<!-- Title: dependencies Pages: 1 -->
<svg width="706pt" height="276pt"
 viewBox="0.00 0.00 706.00 276.00" xmlns="http://www.w3.org/2000/svg" xmlns:xlink="http://www.w3.org/1999/xlink">
<g id="graph0" class="graph" transform="scale(1 1) rotate(0) translate(4 272)">
<title>dependencies</title>
<polygon fill="white" stroke="transparent" points="-4,4 -4,-272 702,-272 702,4 -4,4"/>
<text text-anchor="start" x="328.01" y="-42.4" font-family="sans-serif" font-weight="bold" font-size="14.00">Legend</text>
<polygon fill="#ffffb3" stroke="transparent" points="115,-10 115,-30 135,-30 135,-10 115,-10"/>
<text text-anchor="start" x="138.63" y="-15.4" font-family="sans-serif" font-size="14.00"> &#160;Declarations</text>
<polygon fill="#8dd3c7" stroke="transparent" points="228,-10 228,-30 248,-30 248,-10 228,-10"/>
<text text-anchor="start" x="251.73" y="-15.4" font-family="sans-serif" font-size="14.00"> &#160;Module</text>
<polygon fill="#80b1d3" stroke="transparent" points="314,-10 314,-30 334,-30 334,-10 314,-10"/>
<text text-anchor="start" x="337.78" y="-15.4" font-family="sans-serif" font-size="14.00"> &#160;Bootstrap</text>
<polygon fill="#fdb462" stroke="transparent" points="411,-10 411,-30 431,-30 431,-10 411,-10"/>
<text text-anchor="start" x="434.67" y="-15.4" font-family="sans-serif" font-size="14.00"> &#160;Providers</text>
<polygon fill="#fb8072" stroke="transparent" points="507,-10 507,-30 527,-30 527,-10 507,-10"/>
<text text-anchor="start" x="530.73" y="-15.4" font-family="sans-serif" font-size="14.00"> &#160;Exports</text>
<g id="clust1" class="cluster">
<title>cluster_UnitAddressListModule</title>
<polygon fill="none" stroke="black" stroke-dasharray="1,5" points="8,-70 8,-260 690,-260 690,-70 8,-70"/>
</g>
<g id="clust5" class="cluster">
<title>cluster_UnitAddressListModule_imports</title>
<polygon fill="none" stroke="black" points="363,-143 363,-195 682,-195 682,-143 363,-143"/>
</g>
<g id="clust2" class="cluster">
<title>cluster_UnitAddressListModule_declarations</title>
<polygon fill="none" stroke="black" points="16,-143 16,-195 355,-195 355,-143 16,-143"/>
</g>
<g id="clust4" class="cluster">
<title>cluster_UnitAddressListModule_UnitAddressListComponent_providers</title>
<polygon fill="none" stroke="black" points="16,-78 16,-130 550,-130 550,-78 16,-78"/>
</g>
<!-- LinkCellComponent -->
<g id="node1" class="node">
<title>LinkCellComponent</title>
<polygon fill="#ffffb3" stroke="black" points="346.61,-187 215.39,-187 215.39,-151 346.61,-151 346.61,-187"/>
<text text-anchor="middle" x="281" y="-164.8" font-family="Times,serif" font-size="14.00">LinkCellComponent</text>
</g>
<!-- UnitAddressListModule -->
<g id="node3" class="node">
<title>UnitAddressListModule</title>
<polygon fill="#8dd3c7" stroke="black" points="486.09,-252 483.09,-256 462.09,-256 459.09,-252 333.91,-252 333.91,-216 486.09,-216 486.09,-252"/>
<text text-anchor="middle" x="410" y="-229.8" font-family="Times,serif" font-size="14.00">UnitAddressListModule</text>
</g>
<!-- LinkCellComponent&#45;&gt;UnitAddressListModule -->
<g id="edge1" class="edge">
<title>LinkCellComponent&#45;&gt;UnitAddressListModule</title>
<path fill="none" stroke="black" d="M340.26,-187.11C340.26,-187.11 340.26,-205.99 340.26,-205.99"/>
<polygon fill="black" stroke="black" points="336.76,-205.99 340.26,-215.99 343.76,-205.99 336.76,-205.99"/>
</g>
<!-- UnitAddressListComponent -->
<g id="node2" class="node">
<title>UnitAddressListComponent</title>
<polygon fill="#ffffb3" stroke="black" points="197.87,-187 24.13,-187 24.13,-151 197.87,-151 197.87,-187"/>
<text text-anchor="middle" x="111" y="-164.8" font-family="Times,serif" font-size="14.00">UnitAddressListComponent</text>
</g>
<!-- UnitAddressListComponent&#45;&gt;UnitAddressListModule -->
<g id="edge2" class="edge">
<title>UnitAddressListComponent&#45;&gt;UnitAddressListModule</title>
<path fill="none" stroke="black" d="M111,-187.11C111,-206.34 111,-234 111,-234 111,-234 323.78,-234 323.78,-234"/>
<polygon fill="black" stroke="black" points="323.78,-237.5 333.78,-234 323.78,-230.5 323.78,-237.5"/>
</g>
<!-- { &#160;&#160;&#160;provide: ListService, useExisting: UnitAddressListService,} -->
<g id="node4" class="node">
<title>{ &#160;&#160;&#160;provide: ListService, useExisting: UnitAddressListService,}</title>
<ellipse fill="#fdb462" stroke="black" cx="283" cy="-104" rx="258.95" ry="18"/>
<text text-anchor="middle" x="283" y="-99.8" font-family="Times,serif" font-size="14.00">{ &#160;&#160;&#160;provide: ListService, useExisting: UnitAddressListService,}</text>
</g>
<!-- { &#160;&#160;&#160;provide: ListService, useExisting: UnitAddressListService,}&#45;&gt;UnitAddressListComponent -->
<g id="edge3" class="edge">
<title>{ &#160;&#160;&#160;provide: ListService, useExisting: UnitAddressListService,}&#45;&gt;UnitAddressListComponent</title>
<path fill="none" stroke="black" d="M111.1,-117.47C111.1,-117.47 111.1,-140.86 111.1,-140.86"/>
<polygon fill="black" stroke="black" points="107.6,-140.86 111.1,-150.86 114.6,-140.86 107.6,-140.86"/>
</g>
<!-- I18nModule -->
<g id="node5" class="node">
<title>I18nModule</title>
<polygon fill="#8dd3c7" stroke="black" points="673.71,-187 670.71,-191 649.71,-191 646.71,-187 588.29,-187 588.29,-151 673.71,-151 673.71,-187"/>
<text text-anchor="middle" x="631" y="-164.8" font-family="Times,serif" font-size="14.00">I18nModule</text>
</g>
<!-- I18nModule&#45;&gt;UnitAddressListModule -->
<g id="edge4" class="edge">
<title>I18nModule&#45;&gt;UnitAddressListModule</title>
<path fill="none" stroke="black" d="M631,-187.11C631,-206.34 631,-234 631,-234 631,-234 496.06,-234 496.06,-234"/>
<polygon fill="black" stroke="black" points="496.06,-230.5 486.06,-234 496.06,-237.5 496.06,-230.5"/>
</g>
<!-- SubListModule -->
<g id="node6" class="node">
<title>SubListModule</title>
<polygon fill="#8dd3c7" stroke="black" points="570.61,-187 567.61,-191 546.61,-191 543.61,-187 467.39,-187 467.39,-151 570.61,-151 570.61,-187"/>
<text text-anchor="middle" x="519" y="-164.8" font-family="Times,serif" font-size="14.00">SubListModule</text>
</g>
<!-- SubListModule&#45;&gt;UnitAddressListModule -->
<g id="edge5" class="edge">
<title>SubListModule&#45;&gt;UnitAddressListModule</title>
<path fill="none" stroke="black" d="M476.74,-187.11C476.74,-187.11 476.74,-205.99 476.74,-205.99"/>
<polygon fill="black" stroke="black" points="473.24,-205.99 476.74,-215.99 480.24,-205.99 473.24,-205.99"/>
</g>
<!-- UrlModule -->
<g id="node7" class="node">
<title>UrlModule</title>
<polygon fill="#8dd3c7" stroke="black" points="449.21,-187 446.21,-191 425.21,-191 422.21,-187 370.79,-187 370.79,-151 449.21,-151 449.21,-187"/>
<text text-anchor="middle" x="410" y="-164.8" font-family="Times,serif" font-size="14.00">UrlModule</text>
</g>
<!-- UrlModule&#45;&gt;UnitAddressListModule -->
<g id="edge6" class="edge">
<title>UrlModule&#45;&gt;UnitAddressListModule</title>
<path fill="none" stroke="black" d="M410,-187.11C410,-187.11 410,-205.99 410,-205.99"/>
<polygon fill="black" stroke="black" points="406.5,-205.99 410,-215.99 413.5,-205.99 406.5,-205.99"/>
</g>
</g>
</svg>
