<?xml version="1.0" encoding="UTF-8" standalone="no"?>
<!DOCTYPE svg PUBLIC "-//W3C//DTD SVG 1.1//EN"
 "http://www.w3.org/Graphics/SVG/1.1/DTD/svg11.dtd">
<!-- Generated by graphviz version 2.47.3 (20210619.1520)
 -->
<!-- Title: dependencies Pages: 1 -->
<svg width="706pt" height="285pt"
 viewBox="0.00 0.00 706.00 285.39" xmlns="http://www.w3.org/2000/svg" xmlns:xlink="http://www.w3.org/1999/xlink">
<g id="graph0" class="graph" transform="scale(1 1) rotate(0) translate(4 281.39)">
<title>dependencies</title>
<polygon fill="white" stroke="transparent" points="-4,4 -4,-281.39 702,-281.39 702,4 -4,4"/>
<text text-anchor="middle" x="349" y="-8.2" font-family="sans-serif" font-size="14.00">dependencies</text>
<g id="clust1" class="cluster">
<title>cluster_UnitAddressListModule</title>
<polygon fill="none" stroke="black" stroke-dasharray="1,5" points="8,-32.8 8,-269.39 690,-269.39 690,-32.8 8,-32.8"/>
</g>
<g id="clust5" class="cluster">
<title>cluster_UnitAddressListModule_imports</title>
<polygon fill="none" stroke="black" points="363,-152.39 363,-204.39 682,-204.39 682,-152.39 363,-152.39"/>
</g>
<g id="clust2" class="cluster">
<title>cluster_UnitAddressListModule_declarations</title>
<polygon fill="none" stroke="black" points="16,-152.39 16,-204.39 355,-204.39 355,-152.39 16,-152.39"/>
</g>
<g id="clust4" class="cluster">
<title>cluster_UnitAddressListModule_UnitAddressListComponent_providers</title>
<polygon fill="none" stroke="black" points="16,-40.8 16,-139.39 544,-139.39 544,-40.8 16,-40.8"/>
</g>
<!-- LinkCellComponent -->
<g id="node1" class="node">
<title>LinkCellComponent</title>
<polygon fill="#ffffb3" stroke="black" points="346.61,-196.39 215.39,-196.39 215.39,-160.39 346.61,-160.39 346.61,-196.39"/>
<text text-anchor="middle" x="281" y="-174.19" font-family="Times,serif" font-size="14.00">LinkCellComponent</text>
</g>
<!-- UnitAddressListModule -->
<g id="node3" class="node">
<title>UnitAddressListModule</title>
<polygon fill="#8dd3c7" stroke="black" points="486.09,-261.39 483.09,-265.39 462.09,-265.39 459.09,-261.39 333.91,-261.39 333.91,-225.39 486.09,-225.39 486.09,-261.39"/>
<text text-anchor="middle" x="410" y="-239.19" font-family="Times,serif" font-size="14.00">UnitAddressListModule</text>
</g>
<!-- LinkCellComponent&#45;&gt;UnitAddressListModule -->
<g id="edge1" class="edge">
<title>LinkCellComponent&#45;&gt;UnitAddressListModule</title>
<path fill="none" stroke="black" d="M340.26,-196.5C340.26,-196.5 340.26,-215.38 340.26,-215.38"/>
<polygon fill="black" stroke="black" points="336.76,-215.38 340.26,-225.38 343.76,-215.38 336.76,-215.38"/>
</g>
<!-- UnitAddressListComponent -->
<g id="node2" class="node">
<title>UnitAddressListComponent</title>
<polygon fill="#ffffb3" stroke="black" points="197.87,-196.39 24.13,-196.39 24.13,-160.39 197.87,-160.39 197.87,-196.39"/>
<text text-anchor="middle" x="111" y="-174.19" font-family="Times,serif" font-size="14.00">UnitAddressListComponent</text>
</g>
<!-- UnitAddressListComponent&#45;&gt;UnitAddressListModule -->
<g id="edge2" class="edge">
<title>UnitAddressListComponent&#45;&gt;UnitAddressListModule</title>
<path fill="none" stroke="black" d="M111,-196.5C111,-215.73 111,-243.39 111,-243.39 111,-243.39 323.78,-243.39 323.78,-243.39"/>
<polygon fill="black" stroke="black" points="323.78,-246.89 333.78,-243.39 323.78,-239.89 323.78,-246.89"/>
</g>
<!-- {
 &#160;&#160;&#160;provide: ListService, useExisting: UnitAddressListService,
} -->
<g id="node4" class="node">
<title>{
 &#160;&#160;&#160;provide: ListService, useExisting: UnitAddressListService,
}</title>
<ellipse fill="#fdb462" stroke="black" cx="280" cy="-90.1" rx="255.94" ry="41.09"/>
<text text-anchor="middle" x="280" y="-102.7" font-family="Times,serif" font-size="14.00">{</text>
<text text-anchor="middle" x="280" y="-85.9" font-family="Times,serif" font-size="14.00"> &#160;&#160;&#160;provide: ListService, useExisting: UnitAddressListService,</text>
<text text-anchor="middle" x="280" y="-69.1" font-family="Times,serif" font-size="14.00">}</text>
</g>
<!-- {
 &#160;&#160;&#160;provide: ListService, useExisting: UnitAddressListService,
}&#45;&gt;UnitAddressListComponent -->
<g id="edge3" class="edge">
<title>{
 &#160;&#160;&#160;provide: ListService, useExisting: UnitAddressListService,
}&#45;&gt;UnitAddressListComponent</title>
<path fill="none" stroke="black" d="M111.11,-121.47C111.11,-121.47 111.11,-150.22 111.11,-150.22"/>
<polygon fill="black" stroke="black" points="107.61,-150.22 111.11,-160.22 114.61,-150.22 107.61,-150.22"/>
</g>
<!-- I18nModule -->
<g id="node5" class="node">
<title>I18nModule</title>
<polygon fill="#8dd3c7" stroke="black" points="673.71,-196.39 670.71,-200.39 649.71,-200.39 646.71,-196.39 588.29,-196.39 588.29,-160.39 673.71,-160.39 673.71,-196.39"/>
<text text-anchor="middle" x="631" y="-174.19" font-family="Times,serif" font-size="14.00">I18nModule</text>
</g>
<!-- I18nModule&#45;&gt;UnitAddressListModule -->
<g id="edge4" class="edge">
<title>I18nModule&#45;&gt;UnitAddressListModule</title>
<path fill="none" stroke="black" d="M631,-196.5C631,-215.73 631,-243.39 631,-243.39 631,-243.39 496.06,-243.39 496.06,-243.39"/>
<polygon fill="black" stroke="black" points="496.06,-239.89 486.06,-243.39 496.06,-246.89 496.06,-239.89"/>
</g>
<!-- SubListModule -->
<g id="node6" class="node">
<title>SubListModule</title>
<polygon fill="#8dd3c7" stroke="black" points="570.61,-196.39 567.61,-200.39 546.61,-200.39 543.61,-196.39 467.39,-196.39 467.39,-160.39 570.61,-160.39 570.61,-196.39"/>
<text text-anchor="middle" x="519" y="-174.19" font-family="Times,serif" font-size="14.00">SubListModule</text>
</g>
<!-- SubListModule&#45;&gt;UnitAddressListModule -->
<g id="edge5" class="edge">
<title>SubListModule&#45;&gt;UnitAddressListModule</title>
<path fill="none" stroke="black" d="M476.74,-196.5C476.74,-196.5 476.74,-215.38 476.74,-215.38"/>
<polygon fill="black" stroke="black" points="473.24,-215.38 476.74,-225.38 480.24,-215.38 473.24,-215.38"/>
</g>
<!-- UrlModule -->
<g id="node7" class="node">
<title>UrlModule</title>
<polygon fill="#8dd3c7" stroke="black" points="449.21,-196.39 446.21,-200.39 425.21,-200.39 422.21,-196.39 370.79,-196.39 370.79,-160.39 449.21,-160.39 449.21,-196.39"/>
<text text-anchor="middle" x="410" y="-174.19" font-family="Times,serif" font-size="14.00">UrlModule</text>
</g>
<!-- UrlModule&#45;&gt;UnitAddressListModule -->
<g id="edge6" class="edge">
<title>UrlModule&#45;&gt;UnitAddressListModule</title>
<path fill="none" stroke="black" d="M410,-196.5C410,-196.5 410,-215.38 410,-215.38"/>
<polygon fill="black" stroke="black" points="406.5,-215.38 410,-225.38 413.5,-215.38 406.5,-215.38"/>
</g>
</g>
</svg>
