<?xml version="1.0" encoding="UTF-8" standalone="no"?>
<!DOCTYPE svg PUBLIC "-//W3C//DTD SVG 1.1//EN"
 "http://www.w3.org/Graphics/SVG/1.1/DTD/svg11.dtd">
<!-- Generated by graphviz version 2.47.3 (20210619.1520)
 -->
<!-- Title: dependencies Pages: 1 -->
<svg width="706pt" height="174pt"
 viewBox="0.00 0.00 706.00 173.80" xmlns="http://www.w3.org/2000/svg" xmlns:xlink="http://www.w3.org/1999/xlink">
<g id="graph0" class="graph" transform="scale(1 1) rotate(0) translate(4 169.8)">
<title>dependencies</title>
<polygon fill="white" stroke="transparent" points="-4,4 -4,-169.8 702,-169.8 702,4 -4,4"/>
<text text-anchor="middle" x="349" y="-8.2" font-family="sans-serif" font-size="14.00">dependencies</text>
<g id="clust1" class="cluster">
<title>cluster_UnitAddressListModule</title>
<polygon fill="none" stroke="black" stroke-dasharray="1,5" points="8,-32.8 8,-157.8 690,-157.8 690,-32.8 8,-32.8"/>
</g>
<g id="clust5" class="cluster">
<title>cluster_UnitAddressListModule_imports</title>
<polygon fill="none" stroke="black" points="363,-40.8 363,-92.8 682,-92.8 682,-40.8 363,-40.8"/>
</g>
<g id="clust2" class="cluster">
<title>cluster_UnitAddressListModule_declarations</title>
<polygon fill="none" stroke="black" points="16,-40.8 16,-92.8 355,-92.8 355,-40.8 16,-40.8"/>
</g>
<!-- LinkCellComponent -->
<g id="node1" class="node">
<title>LinkCellComponent</title>
<polygon fill="#ffffb3" stroke="black" points="346.61,-84.8 215.39,-84.8 215.39,-48.8 346.61,-48.8 346.61,-84.8"/>
<text text-anchor="middle" x="281" y="-62.6" font-family="Times,serif" font-size="14.00">LinkCellComponent</text>
</g>
<!-- UnitAddressListModule -->
<g id="node3" class="node">
<title>UnitAddressListModule</title>
<polygon fill="#8dd3c7" stroke="black" points="486.09,-149.8 483.09,-153.8 462.09,-153.8 459.09,-149.8 333.91,-149.8 333.91,-113.8 486.09,-113.8 486.09,-149.8"/>
<text text-anchor="middle" x="410" y="-127.6" font-family="Times,serif" font-size="14.00">UnitAddressListModule</text>
</g>
<!-- LinkCellComponent&#45;&gt;UnitAddressListModule -->
<g id="edge1" class="edge">
<title>LinkCellComponent&#45;&gt;UnitAddressListModule</title>
<path fill="none" stroke="black" d="M340.26,-84.91C340.26,-84.91 340.26,-103.79 340.26,-103.79"/>
<polygon fill="black" stroke="black" points="336.76,-103.79 340.26,-113.79 343.76,-103.79 336.76,-103.79"/>
</g>
<!-- UnitAddressListComponent -->
<g id="node2" class="node">
<title>UnitAddressListComponent</title>
<polygon fill="#ffffb3" stroke="black" points="197.87,-84.8 24.13,-84.8 24.13,-48.8 197.87,-48.8 197.87,-84.8"/>
<text text-anchor="middle" x="111" y="-62.6" font-family="Times,serif" font-size="14.00">UnitAddressListComponent</text>
</g>
<!-- UnitAddressListComponent&#45;&gt;UnitAddressListModule -->
<g id="edge2" class="edge">
<title>UnitAddressListComponent&#45;&gt;UnitAddressListModule</title>
<path fill="none" stroke="black" d="M111,-84.91C111,-104.14 111,-131.8 111,-131.8 111,-131.8 323.78,-131.8 323.78,-131.8"/>
<polygon fill="black" stroke="black" points="323.78,-135.3 333.78,-131.8 323.78,-128.3 323.78,-135.3"/>
</g>
<!-- I18nModule -->
<g id="node4" class="node">
<title>I18nModule</title>
<polygon fill="#8dd3c7" stroke="black" points="673.71,-84.8 670.71,-88.8 649.71,-88.8 646.71,-84.8 588.29,-84.8 588.29,-48.8 673.71,-48.8 673.71,-84.8"/>
<text text-anchor="middle" x="631" y="-62.6" font-family="Times,serif" font-size="14.00">I18nModule</text>
</g>
<!-- I18nModule&#45;&gt;UnitAddressListModule -->
<g id="edge3" class="edge">
<title>I18nModule&#45;&gt;UnitAddressListModule</title>
<path fill="none" stroke="black" d="M631,-84.91C631,-104.14 631,-131.8 631,-131.8 631,-131.8 496.06,-131.8 496.06,-131.8"/>
<polygon fill="black" stroke="black" points="496.06,-128.3 486.06,-131.8 496.06,-135.3 496.06,-128.3"/>
</g>
<!-- SubListModule -->
<g id="node5" class="node">
<title>SubListModule</title>
<polygon fill="#8dd3c7" stroke="black" points="570.61,-84.8 567.61,-88.8 546.61,-88.8 543.61,-84.8 467.39,-84.8 467.39,-48.8 570.61,-48.8 570.61,-84.8"/>
<text text-anchor="middle" x="519" y="-62.6" font-family="Times,serif" font-size="14.00">SubListModule</text>
</g>
<!-- SubListModule&#45;&gt;UnitAddressListModule -->
<g id="edge4" class="edge">
<title>SubListModule&#45;&gt;UnitAddressListModule</title>
<path fill="none" stroke="black" d="M476.74,-84.91C476.74,-84.91 476.74,-103.79 476.74,-103.79"/>
<polygon fill="black" stroke="black" points="473.24,-103.79 476.74,-113.79 480.24,-103.79 473.24,-103.79"/>
</g>
<!-- UrlModule -->
<g id="node6" class="node">
<title>UrlModule</title>
<polygon fill="#8dd3c7" stroke="black" points="449.21,-84.8 446.21,-88.8 425.21,-88.8 422.21,-84.8 370.79,-84.8 370.79,-48.8 449.21,-48.8 449.21,-84.8"/>
<text text-anchor="middle" x="410" y="-62.6" font-family="Times,serif" font-size="14.00">UrlModule</text>
</g>
<!-- UrlModule&#45;&gt;UnitAddressListModule -->
<g id="edge5" class="edge">
<title>UrlModule&#45;&gt;UnitAddressListModule</title>
<path fill="none" stroke="black" d="M410,-84.91C410,-84.91 410,-103.79 410,-103.79"/>
<polygon fill="black" stroke="black" points="406.5,-103.79 410,-113.79 413.5,-103.79 406.5,-103.79"/>
</g>
</g>
</svg>
