<?xml version="1.0" encoding="UTF-8" standalone="no"?>
<!DOCTYPE svg PUBLIC "-//W3C//DTD SVG 1.1//EN"
 "http://www.w3.org/Graphics/SVG/1.1/DTD/svg11.dtd">
<!-- Generated by graphviz version 2.47.0 (20210316.0004)
 -->
<!-- Title: dependencies Pages: 1 -->
<svg width="706pt" height="323pt"
 viewBox="0.00 0.00 706.00 322.59" xmlns="http://www.w3.org/2000/svg" xmlns:xlink="http://www.w3.org/1999/xlink">
<g id="graph0" class="graph" transform="scale(1 1) rotate(0) translate(4 318.59)">
<title>dependencies</title>
<polygon fill="white" stroke="transparent" points="-4,4 -4,-318.59 702,-318.59 702,4 -4,4"/>
<text text-anchor="start" x="328.01" y="-42.4" font-family="sans-serif" font-weight="bold" font-size="14.00">Legend</text>
<polygon fill="#ffffb3" stroke="transparent" points="115,-10 115,-30 135,-30 135,-10 115,-10"/>
<text text-anchor="start" x="138.63" y="-15.4" font-family="sans-serif" font-size="14.00"> &#160;Declarations</text>
<polygon fill="#8dd3c7" stroke="transparent" points="228,-10 228,-30 248,-30 248,-10 228,-10"/>
<text text-anchor="start" x="251.73" y="-15.4" font-family="sans-serif" font-size="14.00"> &#160;Module</text>
<polygon fill="#80b1d3" stroke="transparent" points="314,-10 314,-30 334,-30 334,-10 314,-10"/>
<text text-anchor="start" x="337.78" y="-15.4" font-family="sans-serif" font-size="14.00"> &#160;Bootstrap</text>
<polygon fill="#fdb462" stroke="transparent" points="411,-10 411,-30 431,-30 431,-10 411,-10"/>
<text text-anchor="start" x="434.67" y="-15.4" font-family="sans-serif" font-size="14.00"> &#160;Providers</text>
<polygon fill="#fb8072" stroke="transparent" points="507,-10 507,-30 527,-30 527,-10 507,-10"/>
<text text-anchor="start" x="530.73" y="-15.4" font-family="sans-serif" font-size="14.00"> &#160;Exports</text>
<g id="clust1" class="cluster">
<title>cluster_UnitAddressListModule</title>
<polygon fill="none" stroke="black" stroke-dasharray="1,5" points="8,-70 8,-306.59 690,-306.59 690,-70 8,-70"/>
</g>
<g id="clust2" class="cluster">
<title>cluster_UnitAddressListModule_declarations</title>
<polygon fill="none" stroke="black" points="343,-189.59 343,-241.59 682,-241.59 682,-189.59 343,-189.59"/>
</g>
<g id="clust4" class="cluster">
<title>cluster_UnitAddressListModule_UnitAddressListComponent_providers</title>
<polygon fill="none" stroke="black" points="154,-78 154,-176.59 682,-176.59 682,-78 154,-78"/>
</g>
<g id="clust5" class="cluster">
<title>cluster_UnitAddressListModule_imports</title>
<polygon fill="none" stroke="black" points="16,-189.59 16,-241.59 335,-241.59 335,-189.59 16,-189.59"/>
</g>
<!-- LinkCellComponent -->
<g id="node1" class="node">
<title>LinkCellComponent</title>
<polygon fill="#ffffb3" stroke="black" points="673.61,-233.59 542.39,-233.59 542.39,-197.59 673.61,-197.59 673.61,-233.59"/>
<text text-anchor="middle" x="608" y="-211.39" font-family="Times,serif" font-size="14.00">LinkCellComponent</text>
</g>
<!-- UnitAddressListModule -->
<g id="node3" class="node">
<title>UnitAddressListModule</title>
<polygon fill="#8dd3c7" stroke="black" points="360.09,-298.59 357.09,-302.59 336.09,-302.59 333.09,-298.59 207.91,-298.59 207.91,-262.59 360.09,-262.59 360.09,-298.59"/>
<text text-anchor="middle" x="284" y="-276.39" font-family="Times,serif" font-size="14.00">UnitAddressListModule</text>
</g>
<!-- LinkCellComponent&#45;&gt;UnitAddressListModule -->
<g id="edge1" class="edge">
<title>LinkCellComponent&#45;&gt;UnitAddressListModule</title>
<path fill="none" stroke="black" d="M608,-233.7C608,-252.93 608,-280.59 608,-280.59 608,-280.59 370.37,-280.59 370.37,-280.59"/>
<polygon fill="black" stroke="black" points="370.37,-277.09 360.37,-280.59 370.37,-284.09 370.37,-277.09"/>
</g>
<!-- UnitAddressListComponent -->
<g id="node2" class="node">
<title>UnitAddressListComponent</title>
<polygon fill="#ffffb3" stroke="black" points="524.87,-233.59 351.13,-233.59 351.13,-197.59 524.87,-197.59 524.87,-233.59"/>
<text text-anchor="middle" x="438" y="-211.39" font-family="Times,serif" font-size="14.00">UnitAddressListComponent</text>
</g>
<!-- UnitAddressListComponent&#45;&gt;UnitAddressListModule -->
<g id="edge2" class="edge">
<title>UnitAddressListComponent&#45;&gt;UnitAddressListModule</title>
<path fill="none" stroke="black" d="M355.55,-233.7C355.55,-233.7 355.55,-252.58 355.55,-252.58"/>
<polygon fill="black" stroke="black" points="352.05,-252.58 355.55,-262.58 359.05,-252.58 352.05,-252.58"/>
</g>
<!-- {
 &#160;&#160;&#160;provide: ListService, useExisting: UnitAddressListService,
} -->
<g id="node4" class="node">
<title>{
 &#160;&#160;&#160;provide: ListService, useExisting: UnitAddressListService,
}</title>
<ellipse fill="#fdb462" stroke="black" cx="418" cy="-127.3" rx="255.94" ry="41.09"/>
<text text-anchor="middle" x="418" y="-139.9" font-family="Times,serif" font-size="14.00">{</text>
<text text-anchor="middle" x="418" y="-123.1" font-family="Times,serif" font-size="14.00"> &#160;&#160;&#160;provide: ListService, useExisting: UnitAddressListService,</text>
<text text-anchor="middle" x="418" y="-106.3" font-family="Times,serif" font-size="14.00">}</text>
</g>
<!-- {
 &#160;&#160;&#160;provide: ListService, useExisting: UnitAddressListService,
}&#45;&gt;UnitAddressListComponent -->
<g id="edge3" class="edge">
<title>{
 &#160;&#160;&#160;provide: ListService, useExisting: UnitAddressListService,
}&#45;&gt;UnitAddressListComponent</title>
<path fill="none" stroke="black" d="M438,-168.6C438,-168.6 438,-187.26 438,-187.26"/>
<polygon fill="black" stroke="black" points="434.5,-187.26 438,-197.26 441.5,-187.26 434.5,-187.26"/>
</g>
<!-- I18nModule -->
<g id="node5" class="node">
<title>I18nModule</title>
<polygon fill="#8dd3c7" stroke="black" points="326.71,-233.59 323.71,-237.59 302.71,-237.59 299.71,-233.59 241.29,-233.59 241.29,-197.59 326.71,-197.59 326.71,-233.59"/>
<text text-anchor="middle" x="284" y="-211.39" font-family="Times,serif" font-size="14.00">I18nModule</text>
</g>
<!-- I18nModule&#45;&gt;UnitAddressListModule -->
<g id="edge4" class="edge">
<title>I18nModule&#45;&gt;UnitAddressListModule</title>
<path fill="none" stroke="black" d="M284,-233.7C284,-233.7 284,-252.58 284,-252.58"/>
<polygon fill="black" stroke="black" points="280.5,-252.58 284,-262.58 287.5,-252.58 280.5,-252.58"/>
</g>
<!-- SubListModule -->
<g id="node6" class="node">
<title>SubListModule</title>
<polygon fill="#8dd3c7" stroke="black" points="223.61,-233.59 220.61,-237.59 199.61,-237.59 196.61,-233.59 120.39,-233.59 120.39,-197.59 223.61,-197.59 223.61,-233.59"/>
<text text-anchor="middle" x="172" y="-211.39" font-family="Times,serif" font-size="14.00">SubListModule</text>
</g>
<!-- SubListModule&#45;&gt;UnitAddressListModule -->
<g id="edge5" class="edge">
<title>SubListModule&#45;&gt;UnitAddressListModule</title>
<path fill="none" stroke="black" d="M215.76,-233.7C215.76,-233.7 215.76,-252.58 215.76,-252.58"/>
<polygon fill="black" stroke="black" points="212.26,-252.58 215.76,-262.58 219.26,-252.58 212.26,-252.58"/>
</g>
<!-- UrlModule -->
<g id="node7" class="node">
<title>UrlModule</title>
<polygon fill="#8dd3c7" stroke="black" points="102.21,-233.59 99.21,-237.59 78.21,-237.59 75.21,-233.59 23.79,-233.59 23.79,-197.59 102.21,-197.59 102.21,-233.59"/>
<text text-anchor="middle" x="63" y="-211.39" font-family="Times,serif" font-size="14.00">UrlModule</text>
</g>
<!-- UrlModule&#45;&gt;UnitAddressListModule -->
<g id="edge6" class="edge">
<title>UrlModule&#45;&gt;UnitAddressListModule</title>
<path fill="none" stroke="black" d="M63,-233.7C63,-252.93 63,-280.59 63,-280.59 63,-280.59 197.94,-280.59 197.94,-280.59"/>
<polygon fill="black" stroke="black" points="197.94,-284.09 207.94,-280.59 197.94,-277.09 197.94,-284.09"/>
</g>
</g>
</svg>
