<?xml version="1.0" encoding="UTF-8" standalone="no"?>
<!DOCTYPE svg PUBLIC "-//W3C//DTD SVG 1.1//EN"
 "http://www.w3.org/Graphics/SVG/1.1/DTD/svg11.dtd">
<!-- Generated by graphviz version 2.40.1 (20161225.0304)
 -->
<!-- Title: dependencies Pages: 1 -->
<svg width="504pt" height="284pt"
 viewBox="0.00 0.00 504.00 284.00" xmlns="http://www.w3.org/2000/svg" xmlns:xlink="http://www.w3.org/1999/xlink">
<g id="graph0" class="graph" transform="scale(1 1) rotate(0) translate(4 280)">
<title>dependencies</title>
<polygon fill="#ffffff" stroke="transparent" points="-4,4 -4,-280 500,-280 500,4 -4,4"/>
<text text-anchor="start" x="227.0091" y="-42.4" font-family="sans-serif" font-weight="bold" font-size="14.00" fill="#000000">Legend</text>
<polygon fill="#ffffb3" stroke="transparent" points="14,-10 14,-30 34,-30 34,-10 14,-10"/>
<text text-anchor="start" x="37.629" y="-15.4" font-family="sans-serif" font-size="14.00" fill="#000000"> &#160;Declarations</text>
<polygon fill="#8dd3c7" stroke="transparent" points="127,-10 127,-30 147,-30 147,-10 127,-10"/>
<text text-anchor="start" x="150.7251" y="-15.4" font-family="sans-serif" font-size="14.00" fill="#000000"> &#160;Module</text>
<polygon fill="#80b1d3" stroke="transparent" points="213,-10 213,-30 233,-30 233,-10 213,-10"/>
<text text-anchor="start" x="236.7812" y="-15.4" font-family="sans-serif" font-size="14.00" fill="#000000"> &#160;Bootstrap</text>
<polygon fill="#fdb462" stroke="transparent" points="310,-10 310,-30 330,-30 330,-10 310,-10"/>
<text text-anchor="start" x="333.6732" y="-15.4" font-family="sans-serif" font-size="14.00" fill="#000000"> &#160;Providers</text>
<polygon fill="#fb8072" stroke="transparent" points="406,-10 406,-30 426,-30 426,-10 406,-10"/>
<text text-anchor="start" x="429.7258" y="-15.4" font-family="sans-serif" font-size="14.00" fill="#000000"> &#160;Exports</text>
<g id="clust1" class="cluster">
<title>cluster_CheckoutLoginModule</title>
<polygon fill="none" stroke="#000000" stroke-dasharray="1,5" points="22,-70 22,-268 474,-268 474,-70 22,-70"/>
</g>
<g id="clust2" class="cluster">
<title>cluster_CheckoutLoginModule_declarations</title>
<polygon fill="none" stroke="#000000" points="282,-78 282,-130 466,-130 466,-78 282,-78"/>
</g>
<g id="clust4" class="cluster">
<title>cluster_CheckoutLoginModule_imports</title>
<polygon fill="none" stroke="#000000" points="30,-78 30,-130 274,-130 274,-78 30,-78"/>
</g>
<g id="clust5" class="cluster">
<title>cluster_CheckoutLoginModule_exports</title>
<polygon fill="none" stroke="#000000" points="110,-208 110,-260 298,-260 298,-208 110,-208"/>
</g>
<!-- CheckoutLoginComponent -->
<g id="node1" class="node">
<title>CheckoutLoginComponent</title>
<polygon fill="#ffffb3" stroke="#000000" points="458.4326,-122 289.5674,-122 289.5674,-86 458.4326,-86 458.4326,-122"/>
<text text-anchor="middle" x="374" y="-99.8" font-family="Times,serif" font-size="14.00" fill="#000000">CheckoutLoginComponent</text>
</g>
<!-- CheckoutLoginModule -->
<g id="node2" class="node">
<title>CheckoutLoginModule</title>
<polygon fill="#8dd3c7" stroke="#000000" points="277.1498,-187 274.1498,-191 253.1498,-191 250.1498,-187 130.8502,-187 130.8502,-151 277.1498,-151 277.1498,-187"/>
<text text-anchor="middle" x="204" y="-164.8" font-family="Times,serif" font-size="14.00" fill="#000000">CheckoutLoginModule</text>
</g>
<!-- CheckoutLoginComponent&#45;&gt;CheckoutLoginModule -->
<g id="edge1" class="edge">
<title>CheckoutLoginComponent&#45;&gt;CheckoutLoginModule</title>
<path fill="none" stroke="#000000" d="M289.6663,-104C279.0834,-104 271.878,-104 271.878,-104 271.878,-104 271.878,-140.8939 271.878,-140.8939"/>
<polygon fill="#000000" stroke="#000000" points="268.3781,-140.8938 271.878,-150.8939 275.3781,-140.8939 268.3781,-140.8938"/>
</g>
<!-- CheckoutLoginComponent  -->
<g id="node5" class="node">
<title>CheckoutLoginComponent </title>
<polygon fill="#fb8072" stroke="#000000" points="289.932,-252 118.068,-252 118.068,-216 289.932,-216 289.932,-252"/>
<text text-anchor="middle" x="204" y="-229.8" font-family="Times,serif" font-size="14.00" fill="#000000">CheckoutLoginComponent </text>
</g>
<!-- CheckoutLoginModule&#45;&gt;CheckoutLoginComponent  -->
<g id="edge4" class="edge">
<title>CheckoutLoginModule&#45;&gt;CheckoutLoginComponent </title>
<path fill="none" stroke="#000000" stroke-dasharray="5,2" d="M204,-187.1061C204,-187.1061 204,-205.991 204,-205.991"/>
<polygon fill="#000000" stroke="#000000" points="200.5001,-205.9909 204,-215.991 207.5001,-205.991 200.5001,-205.9909"/>
</g>
<!-- FormErrorsModule -->
<g id="node3" class="node">
<title>FormErrorsModule</title>
<polygon fill="#8dd3c7" stroke="#000000" points="266.3627,-122 263.3627,-126 242.3627,-126 239.3627,-122 141.6373,-122 141.6373,-86 266.3627,-86 266.3627,-122"/>
<text text-anchor="middle" x="204" y="-99.8" font-family="Times,serif" font-size="14.00" fill="#000000">FormErrorsModule</text>
</g>
<!-- FormErrorsModule&#45;&gt;CheckoutLoginModule -->
<g id="edge2" class="edge">
<title>FormErrorsModule&#45;&gt;CheckoutLoginModule</title>
<path fill="none" stroke="#000000" d="M204,-122.1061C204,-122.1061 204,-140.991 204,-140.991"/>
<polygon fill="#000000" stroke="#000000" points="200.5001,-140.9909 204,-150.991 207.5001,-140.991 200.5001,-140.9909"/>
</g>
<!-- I18nModule -->
<g id="node4" class="node">
<title>I18nModule</title>
<polygon fill="#8dd3c7" stroke="#000000" points="123.7107,-122 120.7107,-126 99.7107,-126 96.7107,-122 38.2893,-122 38.2893,-86 123.7107,-86 123.7107,-122"/>
<text text-anchor="middle" x="81" y="-99.8" font-family="Times,serif" font-size="14.00" fill="#000000">I18nModule</text>
</g>
<!-- I18nModule&#45;&gt;CheckoutLoginModule -->
<g id="edge3" class="edge">
<title>I18nModule&#45;&gt;CheckoutLoginModule</title>
<path fill="none" stroke="#000000" d="M123.614,-104C130.8727,-104 136.122,-104 136.122,-104 136.122,-104 136.122,-140.8939 136.122,-140.8939"/>
<polygon fill="#000000" stroke="#000000" points="132.6221,-140.8938 136.122,-150.8939 139.6221,-140.8939 132.6221,-140.8938"/>
</g>
</g>
</svg>
