<?xml version="1.0" encoding="UTF-8" standalone="no"?>
<!DOCTYPE svg PUBLIC "-//W3C//DTD SVG 1.1//EN"
 "http://www.w3.org/Graphics/SVG/1.1/DTD/svg11.dtd">
<!-- Generated by graphviz version 2.44.1 (20200629.0846)
 -->
<!-- Title: dependencies Pages: 1 -->
<svg width="504pt" height="284pt"
 viewBox="0.00 0.00 504.00 284.00" xmlns="http://www.w3.org/2000/svg" xmlns:xlink="http://www.w3.org/1999/xlink">
<g id="graph0" class="graph" transform="scale(1 1) rotate(0) translate(4 280)">
<title>dependencies</title>
<polygon fill="white" stroke="transparent" points="-4,4 -4,-280 500,-280 500,4 -4,4"/>
<text text-anchor="start" x="227.01" y="-42.4" font-family="sans-serif" font-weight="bold" font-size="14.00">Legend</text>
<polygon fill="#ffffb3" stroke="transparent" points="14,-10 14,-30 34,-30 34,-10 14,-10"/>
<text text-anchor="start" x="37.63" y="-15.4" font-family="sans-serif" font-size="14.00"> &#160;Declarations</text>
<polygon fill="#8dd3c7" stroke="transparent" points="127,-10 127,-30 147,-30 147,-10 127,-10"/>
<text text-anchor="start" x="150.73" y="-15.4" font-family="sans-serif" font-size="14.00"> &#160;Module</text>
<polygon fill="#80b1d3" stroke="transparent" points="213,-10 213,-30 233,-30 233,-10 213,-10"/>
<text text-anchor="start" x="236.78" y="-15.4" font-family="sans-serif" font-size="14.00"> &#160;Bootstrap</text>
<polygon fill="#fdb462" stroke="transparent" points="310,-10 310,-30 330,-30 330,-10 310,-10"/>
<text text-anchor="start" x="333.67" y="-15.4" font-family="sans-serif" font-size="14.00"> &#160;Providers</text>
<polygon fill="#fb8072" stroke="transparent" points="406,-10 406,-30 426,-30 426,-10 406,-10"/>
<text text-anchor="start" x="429.73" y="-15.4" font-family="sans-serif" font-size="14.00"> &#160;Exports</text>
<g id="clust1" class="cluster">
<title>cluster_CheckoutLoginModule</title>
<polygon fill="none" stroke="black" stroke-dasharray="1,5" points="22,-70 22,-268 474,-268 474,-70 22,-70"/>
</g>
<g id="clust2" class="cluster">
<title>cluster_CheckoutLoginModule_declarations</title>
<polygon fill="none" stroke="black" points="282,-78 282,-130 466,-130 466,-78 282,-78"/>
</g>
<g id="clust4" class="cluster">
<title>cluster_CheckoutLoginModule_imports</title>
<polygon fill="none" stroke="black" points="30,-78 30,-130 274,-130 274,-78 30,-78"/>
</g>
<g id="clust5" class="cluster">
<title>cluster_CheckoutLoginModule_exports</title>
<polygon fill="none" stroke="black" points="110,-208 110,-260 298,-260 298,-208 110,-208"/>
</g>
<!-- CheckoutLoginComponent -->
<g id="node1" class="node">
<title>CheckoutLoginComponent</title>
<polygon fill="#ffffb3" stroke="black" points="458.43,-122 289.57,-122 289.57,-86 458.43,-86 458.43,-122"/>
<text text-anchor="middle" x="374" y="-99.8" font-family="Times,serif" font-size="14.00">CheckoutLoginComponent</text>
</g>
<!-- CheckoutLoginModule -->
<g id="node2" class="node">
<title>CheckoutLoginModule</title>
<polygon fill="#8dd3c7" stroke="black" points="277.15,-187 274.15,-191 253.15,-191 250.15,-187 130.85,-187 130.85,-151 277.15,-151 277.15,-187"/>
<text text-anchor="middle" x="204" y="-164.8" font-family="Times,serif" font-size="14.00">CheckoutLoginModule</text>
</g>
<!-- CheckoutLoginComponent&#45;&gt;CheckoutLoginModule -->
<g id="edge1" class="edge">
<title>CheckoutLoginComponent&#45;&gt;CheckoutLoginModule</title>
<path fill="none" stroke="black" d="M289.67,-104C279.08,-104 271.88,-104 271.88,-104 271.88,-104 271.88,-140.89 271.88,-140.89"/>
<polygon fill="black" stroke="black" points="268.38,-140.89 271.88,-150.89 275.38,-140.89 268.38,-140.89"/>
</g>
<!-- CheckoutLoginComponent  -->
<g id="node5" class="node">
<title>CheckoutLoginComponent </title>
<polygon fill="#fb8072" stroke="black" points="289.93,-252 118.07,-252 118.07,-216 289.93,-216 289.93,-252"/>
<text text-anchor="middle" x="204" y="-229.8" font-family="Times,serif" font-size="14.00">CheckoutLoginComponent </text>
</g>
<!-- CheckoutLoginModule&#45;&gt;CheckoutLoginComponent  -->
<g id="edge4" class="edge">
<title>CheckoutLoginModule&#45;&gt;CheckoutLoginComponent </title>
<path fill="none" stroke="black" stroke-dasharray="5,2" d="M204,-187.11C204,-187.11 204,-205.99 204,-205.99"/>
<polygon fill="black" stroke="black" points="200.5,-205.99 204,-215.99 207.5,-205.99 200.5,-205.99"/>
</g>
<!-- FormErrorsModule -->
<g id="node3" class="node">
<title>FormErrorsModule</title>
<polygon fill="#8dd3c7" stroke="black" points="266.36,-122 263.36,-126 242.36,-126 239.36,-122 141.64,-122 141.64,-86 266.36,-86 266.36,-122"/>
<text text-anchor="middle" x="204" y="-99.8" font-family="Times,serif" font-size="14.00">FormErrorsModule</text>
</g>
<!-- FormErrorsModule&#45;&gt;CheckoutLoginModule -->
<g id="edge2" class="edge">
<title>FormErrorsModule&#45;&gt;CheckoutLoginModule</title>
<path fill="none" stroke="black" d="M204,-122.11C204,-122.11 204,-140.99 204,-140.99"/>
<polygon fill="black" stroke="black" points="200.5,-140.99 204,-150.99 207.5,-140.99 200.5,-140.99"/>
</g>
<!-- I18nModule -->
<g id="node4" class="node">
<title>I18nModule</title>
<polygon fill="#8dd3c7" stroke="black" points="123.71,-122 120.71,-126 99.71,-126 96.71,-122 38.29,-122 38.29,-86 123.71,-86 123.71,-122"/>
<text text-anchor="middle" x="81" y="-99.8" font-family="Times,serif" font-size="14.00">I18nModule</text>
</g>
<!-- I18nModule&#45;&gt;CheckoutLoginModule -->
<g id="edge3" class="edge">
<title>I18nModule&#45;&gt;CheckoutLoginModule</title>
<path fill="none" stroke="black" d="M123.61,-104C130.87,-104 136.12,-104 136.12,-104 136.12,-104 136.12,-140.89 136.12,-140.89"/>
<polygon fill="black" stroke="black" points="132.62,-140.89 136.12,-150.89 139.62,-140.89 132.62,-140.89"/>
</g>
</g>
</svg>
