<?xml version="1.0" encoding="UTF-8" standalone="no"?>
<!DOCTYPE svg PUBLIC "-//W3C//DTD SVG 1.1//EN"
 "http://www.w3.org/Graphics/SVG/1.1/DTD/svg11.dtd">
<!-- Generated by graphviz version 2.40.1 (20161225.0304)
 -->
<!-- Title: dependencies Pages: 1 -->
<svg width="504pt" height="284pt"
 viewBox="0.00 0.00 504.00 284.00" xmlns="http://www.w3.org/2000/svg" xmlns:xlink="http://www.w3.org/1999/xlink">
<g id="graph0" class="graph" transform="scale(1 1) rotate(0) translate(4 280)">
<title>dependencies</title>
<polygon fill="#ffffff" stroke="transparent" points="-4,4 -4,-280 500,-280 500,4 -4,4"/>
<text text-anchor="start" x="227.0091" y="-42.4" font-family="sans-serif" font-weight="bold" font-size="14.00" fill="#000000">Legend</text>
<polygon fill="#ffffb3" stroke="transparent" points="14,-10 14,-30 34,-30 34,-10 14,-10"/>
<text text-anchor="start" x="37.629" y="-15.4" font-family="sans-serif" font-size="14.00" fill="#000000"> &#160;Declarations</text>
<polygon fill="#8dd3c7" stroke="transparent" points="127,-10 127,-30 147,-30 147,-10 127,-10"/>
<text text-anchor="start" x="150.7251" y="-15.4" font-family="sans-serif" font-size="14.00" fill="#000000"> &#160;Module</text>
<polygon fill="#80b1d3" stroke="transparent" points="213,-10 213,-30 233,-30 233,-10 213,-10"/>
<text text-anchor="start" x="236.7812" y="-15.4" font-family="sans-serif" font-size="14.00" fill="#000000"> &#160;Bootstrap</text>
<polygon fill="#fdb462" stroke="transparent" points="310,-10 310,-30 330,-30 330,-10 310,-10"/>
<text text-anchor="start" x="333.6732" y="-15.4" font-family="sans-serif" font-size="14.00" fill="#000000"> &#160;Providers</text>
<polygon fill="#fb8072" stroke="transparent" points="406,-10 406,-30 426,-30 426,-10 406,-10"/>
<text text-anchor="start" x="429.7258" y="-15.4" font-family="sans-serif" font-size="14.00" fill="#000000"> &#160;Exports</text>
<g id="clust1" class="cluster">
<title>cluster_CheckoutLoginModule</title>
<polygon fill="none" stroke="#000000" stroke-dasharray="1,5" points="35,-70 35,-268 461,-268 461,-70 35,-70"/>
</g>
<g id="clust2" class="cluster">
<title>cluster_CheckoutLoginModule_declarations</title>
<polygon fill="none" stroke="#000000" points="269,-78 269,-130 453,-130 453,-78 269,-78"/>
</g>
<g id="clust4" class="cluster">
<title>cluster_CheckoutLoginModule_imports</title>
<polygon fill="none" stroke="#000000" points="43,-78 43,-130 261,-130 261,-78 43,-78"/>
</g>
<g id="clust5" class="cluster">
<title>cluster_CheckoutLoginModule_exports</title>
<polygon fill="none" stroke="#000000" points="110,-208 110,-260 298,-260 298,-208 110,-208"/>
</g>
<!-- CheckoutLoginComponent -->
<g id="node1" class="node">
<title>CheckoutLoginComponent</title>
<polygon fill="#ffffb3" stroke="#000000" points="445.4326,-122 276.5674,-122 276.5674,-86 445.4326,-86 445.4326,-122"/>
<text text-anchor="middle" x="361" y="-99.8" font-family="Times,serif" font-size="14.00" fill="#000000">CheckoutLoginComponent</text>
</g>
<!-- CheckoutLoginModule -->
<g id="node2" class="node">
<title>CheckoutLoginModule</title>
<polygon fill="#8dd3c7" stroke="#000000" points="277.1498,-187 274.1498,-191 253.1498,-191 250.1498,-187 130.8502,-187 130.8502,-151 277.1498,-151 277.1498,-187"/>
<text text-anchor="middle" x="204" y="-164.8" font-family="Times,serif" font-size="14.00" fill="#000000">CheckoutLoginModule</text>
</g>
<!-- CheckoutLoginComponent&#45;&gt;CheckoutLoginModule -->
<g id="edge1" class="edge">
<title>CheckoutLoginComponent&#45;&gt;CheckoutLoginModule</title>
<path fill="none" stroke="#000000" d="M283.6454,-122.1061C283.6454,-141.3391 283.6454,-169 283.6454,-169 283.6454,-169 283.0204,-169 283.0204,-169"/>
<polygon fill="#000000" stroke="#000000" points="287.3958,-165.5002 277.3957,-169 287.3957,-172.5002 287.3958,-165.5002"/>
</g>
<!-- CheckoutLoginComponent  -->
<g id="node5" class="node">
<title>CheckoutLoginComponent </title>
<polygon fill="#fb8072" stroke="#000000" points="289.932,-252 118.068,-252 118.068,-216 289.932,-216 289.932,-252"/>
<text text-anchor="middle" x="204" y="-229.8" font-family="Times,serif" font-size="14.00" fill="#000000">CheckoutLoginComponent </text>
</g>
<!-- CheckoutLoginModule&#45;&gt;CheckoutLoginComponent  -->
<g id="edge4" class="edge">
<title>CheckoutLoginModule&#45;&gt;CheckoutLoginComponent </title>
<path fill="none" stroke="#000000" stroke-dasharray="5,2" d="M204,-187.1061C204,-187.1061 204,-205.991 204,-205.991"/>
<polygon fill="#000000" stroke="#000000" points="200.5001,-205.9909 204,-215.991 207.5001,-205.991 200.5001,-205.9909"/>
</g>
<!-- ConfigModule -->
<g id="node3" class="node">
<title>ConfigModule</title>
<polygon fill="#8dd3c7" stroke="#000000" points="253.4386,-122 250.4386,-126 229.4386,-126 226.4386,-122 154.5614,-122 154.5614,-86 253.4386,-86 253.4386,-122"/>
<text text-anchor="middle" x="204" y="-99.8" font-family="Times,serif" font-size="14.00" fill="#000000">ConfigModule</text>
</g>
<!-- ConfigModule&#45;&gt;CheckoutLoginModule -->
<g id="edge2" class="edge">
<title>ConfigModule&#45;&gt;CheckoutLoginModule</title>
<path fill="none" stroke="#000000" d="M204,-122.1061C204,-122.1061 204,-140.991 204,-140.991"/>
<polygon fill="#000000" stroke="#000000" points="200.5001,-140.9909 204,-150.991 207.5001,-140.991 200.5001,-140.9909"/>
</g>
<!-- I18nModule -->
<g id="node4" class="node">
<title>I18nModule</title>
<polygon fill="#8dd3c7" stroke="#000000" points="136.7107,-122 133.7107,-126 112.7107,-126 109.7107,-122 51.2893,-122 51.2893,-86 136.7107,-86 136.7107,-122"/>
<text text-anchor="middle" x="94" y="-99.8" font-family="Times,serif" font-size="14.00" fill="#000000">I18nModule</text>
</g>
<!-- I18nModule&#45;&gt;CheckoutLoginModule -->
<g id="edge3" class="edge">
<title>I18nModule&#45;&gt;CheckoutLoginModule</title>
<path fill="none" stroke="#000000" d="M124.3547,-122.1061C124.3547,-141.3391 124.3547,-169 124.3547,-169 124.3547,-169 124.9796,-169 124.9796,-169"/>
<polygon fill="#000000" stroke="#000000" points="120.6043,-172.5002 130.6043,-169 120.6042,-165.5002 120.6043,-172.5002"/>
</g>
</g>
</svg>
