<?xml version="1.0" encoding="UTF-8" standalone="no"?>
<!DOCTYPE svg PUBLIC "-//W3C//DTD SVG 1.1//EN"
 "http://www.w3.org/Graphics/SVG/1.1/DTD/svg11.dtd">
<!-- Generated by graphviz version 2.47.3 (20210619.1520)
 -->
<!-- Title: dependencies Pages: 1 -->
<svg width="476pt" height="247pt"
 viewBox="0.00 0.00 476.00 246.80" xmlns="http://www.w3.org/2000/svg" xmlns:xlink="http://www.w3.org/1999/xlink">
<g id="graph0" class="graph" transform="scale(1 1) rotate(0) translate(4 242.8)">
<title>dependencies</title>
<polygon fill="white" stroke="transparent" points="-4,4 -4,-242.8 472,-242.8 472,4 -4,4"/>
<text text-anchor="middle" x="234" y="-8.2" font-family="sans-serif" font-size="14.00">dependencies</text>
<g id="clust1" class="cluster">
<title>cluster_CheckoutLoginModule</title>
<polygon fill="none" stroke="black" stroke-dasharray="1,5" points="8,-32.8 8,-230.8 460,-230.8 460,-32.8 8,-32.8"/>
</g>
<g id="clust5" class="cluster">
<title>cluster_CheckoutLoginModule_exports</title>
<polygon fill="none" stroke="black" points="96,-170.8 96,-222.8 284,-222.8 284,-170.8 96,-170.8"/>
</g>
<g id="clust2" class="cluster">
<title>cluster_CheckoutLoginModule_declarations</title>
<polygon fill="none" stroke="black" points="268,-40.8 268,-92.8 452,-92.8 452,-40.8 268,-40.8"/>
</g>
<g id="clust4" class="cluster">
<title>cluster_CheckoutLoginModule_imports</title>
<polygon fill="none" stroke="black" points="16,-40.8 16,-92.8 260,-92.8 260,-40.8 16,-40.8"/>
</g>
<!-- CheckoutLoginComponent -->
<g id="node1" class="node">
<title>CheckoutLoginComponent</title>
<polygon fill="#ffffb3" stroke="black" points="444.43,-84.8 275.57,-84.8 275.57,-48.8 444.43,-48.8 444.43,-84.8"/>
<text text-anchor="middle" x="360" y="-62.6" font-family="Times,serif" font-size="14.00">CheckoutLoginComponent</text>
</g>
<!-- CheckoutLoginModule -->
<g id="node2" class="node">
<title>CheckoutLoginModule</title>
<polygon fill="#8dd3c7" stroke="black" points="263.15,-149.8 260.15,-153.8 239.15,-153.8 236.15,-149.8 116.85,-149.8 116.85,-113.8 263.15,-113.8 263.15,-149.8"/>
<text text-anchor="middle" x="190" y="-127.6" font-family="Times,serif" font-size="14.00">CheckoutLoginModule</text>
</g>
<!-- CheckoutLoginComponent&#45;&gt;CheckoutLoginModule -->
<g id="edge1" class="edge">
<title>CheckoutLoginComponent&#45;&gt;CheckoutLoginModule</title>
<path fill="none" stroke="black" d="M275.67,-66.8C265.08,-66.8 257.88,-66.8 257.88,-66.8 257.88,-66.8 257.88,-103.69 257.88,-103.69"/>
<polygon fill="black" stroke="black" points="254.38,-103.69 257.88,-113.69 261.38,-103.69 254.38,-103.69"/>
</g>
<!-- CheckoutLoginComponent  -->
<g id="node5" class="node">
<title>CheckoutLoginComponent </title>
<polygon fill="#fb8072" stroke="black" points="275.93,-214.8 104.07,-214.8 104.07,-178.8 275.93,-178.8 275.93,-214.8"/>
<text text-anchor="middle" x="190" y="-192.6" font-family="Times,serif" font-size="14.00">CheckoutLoginComponent </text>
</g>
<!-- CheckoutLoginModule&#45;&gt;CheckoutLoginComponent  -->
<g id="edge4" class="edge">
<title>CheckoutLoginModule&#45;&gt;CheckoutLoginComponent </title>
<path fill="none" stroke="black" stroke-dasharray="5,2" d="M190,-149.91C190,-149.91 190,-168.79 190,-168.79"/>
<polygon fill="black" stroke="black" points="186.5,-168.79 190,-178.79 193.5,-168.79 186.5,-168.79"/>
</g>
<!-- FormErrorsModule -->
<g id="node3" class="node">
<title>FormErrorsModule</title>
<polygon fill="#8dd3c7" stroke="black" points="252.36,-84.8 249.36,-88.8 228.36,-88.8 225.36,-84.8 127.64,-84.8 127.64,-48.8 252.36,-48.8 252.36,-84.8"/>
<text text-anchor="middle" x="190" y="-62.6" font-family="Times,serif" font-size="14.00">FormErrorsModule</text>
</g>
<!-- FormErrorsModule&#45;&gt;CheckoutLoginModule -->
<g id="edge2" class="edge">
<title>FormErrorsModule&#45;&gt;CheckoutLoginModule</title>
<path fill="none" stroke="black" d="M190,-84.91C190,-84.91 190,-103.79 190,-103.79"/>
<polygon fill="black" stroke="black" points="186.5,-103.79 190,-113.79 193.5,-103.79 186.5,-103.79"/>
</g>
<!-- I18nModule -->
<g id="node4" class="node">
<title>I18nModule</title>
<polygon fill="#8dd3c7" stroke="black" points="109.71,-84.8 106.71,-88.8 85.71,-88.8 82.71,-84.8 24.29,-84.8 24.29,-48.8 109.71,-48.8 109.71,-84.8"/>
<text text-anchor="middle" x="67" y="-62.6" font-family="Times,serif" font-size="14.00">I18nModule</text>
</g>
<!-- I18nModule&#45;&gt;CheckoutLoginModule -->
<g id="edge3" class="edge">
<title>I18nModule&#45;&gt;CheckoutLoginModule</title>
<path fill="none" stroke="black" d="M109.61,-66.8C116.87,-66.8 122.12,-66.8 122.12,-66.8 122.12,-66.8 122.12,-103.69 122.12,-103.69"/>
<polygon fill="black" stroke="black" points="118.62,-103.69 122.12,-113.69 125.62,-103.69 118.62,-103.69"/>
</g>
</g>
</svg>
