<?xml version="1.0" encoding="UTF-8" standalone="no"?>
<!DOCTYPE svg PUBLIC "-//W3C//DTD SVG 1.1//EN"
 "http://www.w3.org/Graphics/SVG/1.1/DTD/svg11.dtd">
<!-- Generated by graphviz version 2.40.1 (20161225.0304)
 -->
<!-- Title: dependencies Pages: 1 -->
<svg width="1185pt" height="211pt"
 viewBox="0.00 0.00 1185.00 211.00" xmlns="http://www.w3.org/2000/svg" xmlns:xlink="http://www.w3.org/1999/xlink">
<g id="graph0" class="graph" transform="scale(1 1) rotate(0) translate(4 207)">
<title>dependencies</title>
<polygon fill="#ffffff" stroke="transparent" points="-4,4 -4,-207 1181,-207 1181,4 -4,4"/>
<text text-anchor="start" x="567.5091" y="-42.4" font-family="sans-serif" font-weight="bold" font-size="14.00" fill="#000000">Legend</text>
<polygon fill="#ffffb3" stroke="transparent" points="354.5,-10 354.5,-30 374.5,-30 374.5,-10 354.5,-10"/>
<text text-anchor="start" x="378.129" y="-15.4" font-family="sans-serif" font-size="14.00" fill="#000000"> &#160;Declarations</text>
<polygon fill="#8dd3c7" stroke="transparent" points="467.5,-10 467.5,-30 487.5,-30 487.5,-10 467.5,-10"/>
<text text-anchor="start" x="491.2251" y="-15.4" font-family="sans-serif" font-size="14.00" fill="#000000"> &#160;Module</text>
<polygon fill="#80b1d3" stroke="transparent" points="553.5,-10 553.5,-30 573.5,-30 573.5,-10 553.5,-10"/>
<text text-anchor="start" x="577.2812" y="-15.4" font-family="sans-serif" font-size="14.00" fill="#000000"> &#160;Bootstrap</text>
<polygon fill="#fdb462" stroke="transparent" points="650.5,-10 650.5,-30 670.5,-30 670.5,-10 650.5,-10"/>
<text text-anchor="start" x="674.1732" y="-15.4" font-family="sans-serif" font-size="14.00" fill="#000000"> &#160;Providers</text>
<polygon fill="#fb8072" stroke="transparent" points="746.5,-10 746.5,-30 766.5,-30 766.5,-10 746.5,-10"/>
<text text-anchor="start" x="770.2258" y="-15.4" font-family="sans-serif" font-size="14.00" fill="#000000"> &#160;Exports</text>
<g id="clust1" class="cluster">
<title>cluster_UserComponentsModule</title>
<polygon fill="none" stroke="#000000" stroke-dasharray="1,5" points="8,-70 8,-195 1169,-195 1169,-70 8,-70"/>
</g>
<g id="clust3" class="cluster">
<title>cluster_UserComponentsModule_imports</title>
<polygon fill="none" stroke="#000000" points="16,-78 16,-130 1161,-130 1161,-78 16,-78"/>
</g>
<!-- ListModule -->
<g id="node1" class="node">
<title>ListModule</title>
<polygon fill="#8dd3c7" stroke="#000000" points="1152.8289,-122 1149.8289,-126 1128.8289,-126 1125.8289,-122 1071.1711,-122 1071.1711,-86 1152.8289,-86 1152.8289,-122"/>
<text text-anchor="middle" x="1112" y="-99.8" font-family="Times,serif" font-size="14.00" fill="#000000">ListModule</text>
</g>
<!-- UserComponentsModule -->
<g id="node8" class="node">
<title>UserComponentsModule</title>
<polygon fill="#8dd3c7" stroke="#000000" points="659.2534,-187 656.2534,-191 635.2534,-191 632.2534,-187 502.7466,-187 502.7466,-151 659.2534,-151 659.2534,-187"/>
<text text-anchor="middle" x="581" y="-164.8" font-family="Times,serif" font-size="14.00" fill="#000000">UserComponentsModule</text>
</g>
<!-- ListModule&#45;&gt;UserComponentsModule -->
<g id="edge1" class="edge">
<title>ListModule&#45;&gt;UserComponentsModule</title>
<path fill="none" stroke="#000000" d="M1112,-122.2843C1112,-143.3211 1112,-175 1112,-175 1112,-175 669.3509,-175 669.3509,-175"/>
<polygon fill="#000000" stroke="#000000" points="669.3509,-171.5001 659.3509,-175 669.3508,-178.5001 669.3509,-171.5001"/>
</g>
<!-- UserApproverListModule -->
<g id="node2" class="node">
<title>UserApproverListModule</title>
<polygon fill="#8dd3c7" stroke="#000000" points="1053.8975,-122 1050.8975,-126 1029.8975,-126 1026.8975,-122 892.1025,-122 892.1025,-86 1053.8975,-86 1053.8975,-122"/>
<text text-anchor="middle" x="973" y="-99.8" font-family="Times,serif" font-size="14.00" fill="#000000">UserApproverListModule</text>
</g>
<!-- UserApproverListModule&#45;&gt;UserComponentsModule -->
<g id="edge2" class="edge">
<title>UserApproverListModule&#45;&gt;UserComponentsModule</title>
<path fill="none" stroke="#000000" d="M973,-122.0225C973,-139.3734 973,-163 973,-163 973,-163 669.3849,-163 669.3849,-163"/>
<polygon fill="#000000" stroke="#000000" points="669.3849,-159.5001 659.3849,-163 669.3849,-166.5001 669.3849,-159.5001"/>
</g>
<!-- UserChangePasswordFormModule -->
<g id="node3" class="node">
<title>UserChangePasswordFormModule</title>
<polygon fill="#8dd3c7" stroke="#000000" points="874.2296,-122 871.2296,-126 850.2296,-126 847.2296,-122 661.7704,-122 661.7704,-86 874.2296,-86 874.2296,-122"/>
<text text-anchor="middle" x="768" y="-99.8" font-family="Times,serif" font-size="14.00" fill="#000000">UserChangePasswordFormModule</text>
</g>
<!-- UserChangePasswordFormModule&#45;&gt;UserComponentsModule -->
<g id="edge3" class="edge">
<title>UserChangePasswordFormModule&#45;&gt;UserComponentsModule</title>
<path fill="none" stroke="#000000" d="M661.52,-104C655.3538,-104 651.5954,-104 651.5954,-104 651.5954,-104 651.5954,-140.8939 651.5954,-140.8939"/>
<polygon fill="#000000" stroke="#000000" points="648.0955,-140.8938 651.5954,-150.8939 655.0955,-140.8939 648.0955,-140.8938"/>
</g>
<!-- UserDetailsModule -->
<g id="node4" class="node">
<title>UserDetailsModule</title>
<polygon fill="#8dd3c7" stroke="#000000" points="643.6289,-122 640.6289,-126 619.6289,-126 616.6289,-122 518.3711,-122 518.3711,-86 643.6289,-86 643.6289,-122"/>
<text text-anchor="middle" x="581" y="-99.8" font-family="Times,serif" font-size="14.00" fill="#000000">UserDetailsModule</text>
</g>
<!-- UserDetailsModule&#45;&gt;UserComponentsModule -->
<g id="edge4" class="edge">
<title>UserDetailsModule&#45;&gt;UserComponentsModule</title>
<path fill="none" stroke="#000000" d="M581,-122.1061C581,-122.1061 581,-140.991 581,-140.991"/>
<polygon fill="#000000" stroke="#000000" points="577.5001,-140.9909 581,-150.991 584.5001,-140.991 577.5001,-140.9909"/>
</g>
<!-- UserFormModule -->
<g id="node5" class="node">
<title>UserFormModule</title>
<polygon fill="#8dd3c7" stroke="#000000" points="500.3104,-122 497.3104,-126 476.3104,-126 473.3104,-122 383.6896,-122 383.6896,-86 500.3104,-86 500.3104,-122"/>
<text text-anchor="middle" x="442" y="-99.8" font-family="Times,serif" font-size="14.00" fill="#000000">UserFormModule</text>
</g>
<!-- UserFormModule&#45;&gt;UserComponentsModule -->
<g id="edge5" class="edge">
<title>UserFormModule&#45;&gt;UserComponentsModule</title>
<path fill="none" stroke="#000000" d="M500.3113,-104C506.3923,-104 510.4046,-104 510.4046,-104 510.4046,-104 510.4046,-140.8939 510.4046,-140.8939"/>
<polygon fill="#000000" stroke="#000000" points="506.9047,-140.8938 510.4046,-150.8939 513.9047,-140.8939 506.9047,-140.8938"/>
</g>
<!-- UserPermissionListModule -->
<g id="node6" class="node">
<title>UserPermissionListModule</title>
<polygon fill="#8dd3c7" stroke="#000000" points="365.9734,-122 362.9734,-126 341.9734,-126 338.9734,-122 196.0266,-122 196.0266,-86 365.9734,-86 365.9734,-122"/>
<text text-anchor="middle" x="281" y="-99.8" font-family="Times,serif" font-size="14.00" fill="#000000">UserPermissionListModule</text>
</g>
<!-- UserPermissionListModule&#45;&gt;UserComponentsModule -->
<g id="edge6" class="edge">
<title>UserPermissionListModule&#45;&gt;UserComponentsModule</title>
<path fill="none" stroke="#000000" d="M281,-122.0225C281,-139.3734 281,-163 281,-163 281,-163 492.5704,-163 492.5704,-163"/>
<polygon fill="#000000" stroke="#000000" points="492.5704,-166.5001 502.5704,-163 492.5704,-159.5001 492.5704,-166.5001"/>
</g>
<!-- UserUserGroupsModule -->
<g id="node7" class="node">
<title>UserUserGroupsModule</title>
<polygon fill="#8dd3c7" stroke="#000000" points="177.6149,-122 174.6149,-126 153.6149,-126 150.6149,-122 24.3851,-122 24.3851,-86 177.6149,-86 177.6149,-122"/>
<text text-anchor="middle" x="101" y="-99.8" font-family="Times,serif" font-size="14.00" fill="#000000">UserUserGroupsModule</text>
</g>
<!-- UserUserGroupsModule&#45;&gt;UserComponentsModule -->
<g id="edge7" class="edge">
<title>UserUserGroupsModule&#45;&gt;UserComponentsModule</title>
<path fill="none" stroke="#000000" d="M101,-122.2843C101,-143.3211 101,-175 101,-175 101,-175 492.5435,-175 492.5435,-175"/>
<polygon fill="#000000" stroke="#000000" points="492.5435,-178.5001 502.5435,-175 492.5435,-171.5001 492.5435,-178.5001"/>
</g>
</g>
</svg>
