<?xml version="1.0" encoding="UTF-8" standalone="no"?>
<!DOCTYPE svg PUBLIC "-//W3C//DTD SVG 1.1//EN"
 "http://www.w3.org/Graphics/SVG/1.1/DTD/svg11.dtd">
<!-- Generated by graphviz version 2.40.1 (20161225.0304)
 -->
<!-- Title: dependencies Pages: 1 -->
<svg width="849pt" height="284pt"
 viewBox="0.00 0.00 849.00 284.00" xmlns="http://www.w3.org/2000/svg" xmlns:xlink="http://www.w3.org/1999/xlink">
<g id="graph0" class="graph" transform="scale(1 1) rotate(0) translate(4 280)">
<title>dependencies</title>
<polygon fill="#ffffff" stroke="transparent" points="-4,4 -4,-280 845,-280 845,4 -4,4"/>
<text text-anchor="start" x="399.5091" y="-42.4" font-family="sans-serif" font-weight="bold" font-size="14.00" fill="#000000">Legend</text>
<polygon fill="#ffffb3" stroke="transparent" points="186.5,-10 186.5,-30 206.5,-30 206.5,-10 186.5,-10"/>
<text text-anchor="start" x="210.129" y="-15.4" font-family="sans-serif" font-size="14.00" fill="#000000"> &#160;Declarations</text>
<polygon fill="#8dd3c7" stroke="transparent" points="299.5,-10 299.5,-30 319.5,-30 319.5,-10 299.5,-10"/>
<text text-anchor="start" x="323.2251" y="-15.4" font-family="sans-serif" font-size="14.00" fill="#000000"> &#160;Module</text>
<polygon fill="#80b1d3" stroke="transparent" points="385.5,-10 385.5,-30 405.5,-30 405.5,-10 385.5,-10"/>
<text text-anchor="start" x="409.2812" y="-15.4" font-family="sans-serif" font-size="14.00" fill="#000000"> &#160;Bootstrap</text>
<polygon fill="#fdb462" stroke="transparent" points="482.5,-10 482.5,-30 502.5,-30 502.5,-10 482.5,-10"/>
<text text-anchor="start" x="506.1732" y="-15.4" font-family="sans-serif" font-size="14.00" fill="#000000"> &#160;Providers</text>
<polygon fill="#fb8072" stroke="transparent" points="578.5,-10 578.5,-30 598.5,-30 598.5,-10 578.5,-10"/>
<text text-anchor="start" x="602.2258" y="-15.4" font-family="sans-serif" font-size="14.00" fill="#000000"> &#160;Exports</text>
<g id="clust1" class="cluster">
<title>cluster_SearchBoxModule</title>
<polygon fill="none" stroke="#000000" stroke-dasharray="1,5" points="8,-70 8,-268 833,-268 833,-70 8,-70"/>
</g>
<g id="clust2" class="cluster">
<title>cluster_SearchBoxModule_declarations</title>
<polygon fill="none" stroke="#000000" points="554,-78 554,-130 825,-130 825,-78 554,-78"/>
</g>
<g id="clust5" class="cluster">
<title>cluster_SearchBoxModule_imports</title>
<polygon fill="none" stroke="#000000" points="16,-78 16,-130 546,-130 546,-78 16,-78"/>
</g>
<g id="clust6" class="cluster">
<title>cluster_SearchBoxModule_exports</title>
<polygon fill="none" stroke="#000000" points="298,-208 298,-260 460,-260 460,-208 298,-208"/>
</g>
<!-- HighlightPipe -->
<g id="node1" class="node">
<title>HighlightPipe</title>
<polygon fill="#ffffb3" stroke="#000000" points="817.0578,-122 722.9422,-122 722.9422,-86 817.0578,-86 817.0578,-122"/>
<text text-anchor="middle" x="770" y="-99.8" font-family="Times,serif" font-size="14.00" fill="#000000">HighlightPipe</text>
</g>
<!-- SearchBoxModule -->
<g id="node3" class="node">
<title>SearchBoxModule</title>
<polygon fill="#8dd3c7" stroke="#000000" points="439.4734,-187 436.4734,-191 415.4734,-191 412.4734,-187 318.5266,-187 318.5266,-151 439.4734,-151 439.4734,-187"/>
<text text-anchor="middle" x="379" y="-164.8" font-family="Times,serif" font-size="14.00" fill="#000000">SearchBoxModule</text>
</g>
<!-- HighlightPipe&#45;&gt;SearchBoxModule -->
<g id="edge1" class="edge">
<title>HighlightPipe&#45;&gt;SearchBoxModule</title>
<path fill="none" stroke="#000000" d="M770,-122.2921C770,-144.2057 770,-178 770,-178 770,-178 449.6647,-178 449.6647,-178"/>
<polygon fill="#000000" stroke="#000000" points="449.6648,-174.5001 439.6647,-178 449.6647,-181.5001 449.6648,-174.5001"/>
</g>
<!-- SearchBoxComponent -->
<g id="node2" class="node">
<title>SearchBoxComponent</title>
<polygon fill="#ffffb3" stroke="#000000" points="704.2562,-122 561.7438,-122 561.7438,-86 704.2562,-86 704.2562,-122"/>
<text text-anchor="middle" x="633" y="-99.8" font-family="Times,serif" font-size="14.00" fill="#000000">SearchBoxComponent</text>
</g>
<!-- SearchBoxComponent&#45;&gt;SearchBoxModule -->
<g id="edge2" class="edge">
<title>SearchBoxComponent&#45;&gt;SearchBoxModule</title>
<path fill="none" stroke="#000000" d="M633,-122.1061C633,-141.3391 633,-169 633,-169 633,-169 449.5166,-169 449.5166,-169"/>
<polygon fill="#000000" stroke="#000000" points="449.5167,-165.5001 439.5166,-169 449.5166,-172.5001 449.5167,-165.5001"/>
</g>
<!-- SearchBoxComponent  -->
<g id="node9" class="node">
<title>SearchBoxComponent </title>
<polygon fill="#fb8072" stroke="#000000" points="452.2562,-252 305.7438,-252 305.7438,-216 452.2562,-216 452.2562,-252"/>
<text text-anchor="middle" x="379" y="-229.8" font-family="Times,serif" font-size="14.00" fill="#000000">SearchBoxComponent </text>
</g>
<!-- SearchBoxModule&#45;&gt;SearchBoxComponent  -->
<g id="edge8" class="edge">
<title>SearchBoxModule&#45;&gt;SearchBoxComponent </title>
<path fill="none" stroke="#000000" stroke-dasharray="5,2" d="M379,-187.1061C379,-187.1061 379,-205.991 379,-205.991"/>
<polygon fill="#000000" stroke="#000000" points="375.5001,-205.9909 379,-215.991 382.5001,-205.991 375.5001,-205.9909"/>
</g>
<!-- ConfigModule -->
<g id="node4" class="node">
<title>ConfigModule</title>
<polygon fill="#8dd3c7" stroke="#000000" points="538.4386,-122 535.4386,-126 514.4386,-126 511.4386,-122 439.5614,-122 439.5614,-86 538.4386,-86 538.4386,-122"/>
<text text-anchor="middle" x="489" y="-99.8" font-family="Times,serif" font-size="14.00" fill="#000000">ConfigModule</text>
</g>
<!-- ConfigModule&#45;&gt;SearchBoxModule -->
<g id="edge3" class="edge">
<title>ConfigModule&#45;&gt;SearchBoxModule</title>
<path fill="none" stroke="#000000" d="M445.9546,-122.027C445.9546,-138.3976 445.9546,-160 445.9546,-160 445.9546,-160 445.3126,-160 445.3126,-160"/>
<polygon fill="#000000" stroke="#000000" points="449.5348,-156.5002 439.5347,-160 449.5347,-163.5002 449.5348,-156.5002"/>
</g>
<!-- I18nModule -->
<g id="node5" class="node">
<title>I18nModule</title>
<polygon fill="#8dd3c7" stroke="#000000" points="421.7107,-122 418.7107,-126 397.7107,-126 394.7107,-122 336.2893,-122 336.2893,-86 421.7107,-86 421.7107,-122"/>
<text text-anchor="middle" x="379" y="-99.8" font-family="Times,serif" font-size="14.00" fill="#000000">I18nModule</text>
</g>
<!-- I18nModule&#45;&gt;SearchBoxModule -->
<g id="edge4" class="edge">
<title>I18nModule&#45;&gt;SearchBoxModule</title>
<path fill="none" stroke="#000000" d="M379,-122.1061C379,-122.1061 379,-140.991 379,-140.991"/>
<polygon fill="#000000" stroke="#000000" points="375.5001,-140.9909 379,-150.991 382.5001,-140.991 375.5001,-140.9909"/>
</g>
<!-- IconModule -->
<g id="node6" class="node">
<title>IconModule</title>
<polygon fill="#8dd3c7" stroke="#000000" points="318.4261,-122 315.4261,-126 294.4261,-126 291.4261,-122 233.5739,-122 233.5739,-86 318.4261,-86 318.4261,-122"/>
<text text-anchor="middle" x="276" y="-99.8" font-family="Times,serif" font-size="14.00" fill="#000000">IconModule</text>
</g>
<!-- IconModule&#45;&gt;SearchBoxModule -->
<g id="edge5" class="edge">
<title>IconModule&#45;&gt;SearchBoxModule</title>
<path fill="none" stroke="#000000" d="M312.0423,-122.027C312.0423,-138.3976 312.0423,-160 312.0423,-160 312.0423,-160 312.6843,-160 312.6843,-160"/>
<polygon fill="#000000" stroke="#000000" points="308.4625,-163.5002 318.4624,-160 308.4624,-156.5002 308.4625,-163.5002"/>
</g>
<!-- MediaModule -->
<g id="node7" class="node">
<title>MediaModule</title>
<polygon fill="#8dd3c7" stroke="#000000" points="215.8147,-122 212.8147,-126 191.8147,-126 188.8147,-122 120.1853,-122 120.1853,-86 215.8147,-86 215.8147,-122"/>
<text text-anchor="middle" x="168" y="-99.8" font-family="Times,serif" font-size="14.00" fill="#000000">MediaModule</text>
</g>
<!-- MediaModule&#45;&gt;SearchBoxModule -->
<g id="edge6" class="edge">
<title>MediaModule&#45;&gt;SearchBoxModule</title>
<path fill="none" stroke="#000000" d="M168,-122.1061C168,-141.3391 168,-169 168,-169 168,-169 308.2531,-169 308.2531,-169"/>
<polygon fill="#000000" stroke="#000000" points="308.2532,-172.5001 318.2531,-169 308.2531,-165.5001 308.2532,-172.5001"/>
</g>
<!-- UrlModule -->
<g id="node8" class="node">
<title>UrlModule</title>
<polygon fill="#8dd3c7" stroke="#000000" points="102.2079,-122 99.2079,-126 78.2079,-126 75.2079,-122 23.7921,-122 23.7921,-86 102.2079,-86 102.2079,-122"/>
<text text-anchor="middle" x="63" y="-99.8" font-family="Times,serif" font-size="14.00" fill="#000000">UrlModule</text>
</g>
<!-- UrlModule&#45;&gt;SearchBoxModule -->
<g id="edge7" class="edge">
<title>UrlModule&#45;&gt;SearchBoxModule</title>
<path fill="none" stroke="#000000" d="M63,-122.2921C63,-144.2057 63,-178 63,-178 63,-178 308.4459,-178 308.4459,-178"/>
<polygon fill="#000000" stroke="#000000" points="308.446,-181.5001 318.4459,-178 308.4459,-174.5001 308.446,-181.5001"/>
</g>
</g>
</svg>
