<?xml version="1.0" encoding="UTF-8" standalone="no"?>
<!DOCTYPE svg PUBLIC "-//W3C//DTD SVG 1.1//EN"
 "http://www.w3.org/Graphics/SVG/1.1/DTD/svg11.dtd">
<!-- Generated by graphviz version 2.47.0 (20210316.0004)
 -->
<!-- Title: dependencies Pages: 1 -->
<svg width="504pt" height="284pt"
 viewBox="0.00 0.00 504.00 284.00" xmlns="http://www.w3.org/2000/svg" xmlns:xlink="http://www.w3.org/1999/xlink">
<g id="graph0" class="graph" transform="scale(1 1) rotate(0) translate(4 280)">
<title>dependencies</title>
<polygon fill="white" stroke="transparent" points="-4,4 -4,-280 500,-280 500,4 -4,4"/>
<text text-anchor="start" x="227.01" y="-42.4" font-family="sans-serif" font-weight="bold" font-size="14.00">Legend</text>
<polygon fill="#ffffb3" stroke="transparent" points="14,-10 14,-30 34,-30 34,-10 14,-10"/>
<text text-anchor="start" x="37.63" y="-15.4" font-family="sans-serif" font-size="14.00"> &#160;Declarations</text>
<polygon fill="#8dd3c7" stroke="transparent" points="127,-10 127,-30 147,-30 147,-10 127,-10"/>
<text text-anchor="start" x="150.73" y="-15.4" font-family="sans-serif" font-size="14.00"> &#160;Module</text>
<polygon fill="#80b1d3" stroke="transparent" points="213,-10 213,-30 233,-30 233,-10 213,-10"/>
<text text-anchor="start" x="236.78" y="-15.4" font-family="sans-serif" font-size="14.00"> &#160;Bootstrap</text>
<polygon fill="#fdb462" stroke="transparent" points="310,-10 310,-30 330,-30 330,-10 310,-10"/>
<text text-anchor="start" x="333.67" y="-15.4" font-family="sans-serif" font-size="14.00"> &#160;Providers</text>
<polygon fill="#fb8072" stroke="transparent" points="406,-10 406,-30 426,-30 426,-10 406,-10"/>
<text text-anchor="start" x="429.73" y="-15.4" font-family="sans-serif" font-size="14.00"> &#160;Exports</text>
<g id="clust1" class="cluster">
<title>cluster_ProductVariantSizeSelectorModule</title>
<polygon fill="none" stroke="black" stroke-dasharray="1,5" points="11,-70 11,-268 485,-268 485,-70 11,-70"/>
</g>
<g id="clust4" class="cluster">
<title>cluster_ProductVariantSizeSelectorModule_imports</title>
<polygon fill="none" stroke="black" points="279,-78 279,-130 477,-130 477,-78 279,-78"/>
</g>
<g id="clust2" class="cluster">
<title>cluster_ProductVariantSizeSelectorModule_declarations</title>
<polygon fill="none" stroke="black" points="19,-78 19,-130 271,-130 271,-78 19,-78"/>
</g>
<g id="clust5" class="cluster">
<title>cluster_ProductVariantSizeSelectorModule_exports</title>
<polygon fill="none" stroke="black" points="198,-208 198,-260 454,-260 454,-208 198,-208"/>
</g>
<!-- ProductVariantSizeSelectorComponent -->
<g id="node1" class="node">
<title>ProductVariantSizeSelectorComponent</title>
<polygon fill="#ffffb3" stroke="black" points="263.33,-122 26.67,-122 26.67,-86 263.33,-86 263.33,-122"/>
<text text-anchor="middle" x="145" y="-99.8" font-family="Times,serif" font-size="14.00">ProductVariantSizeSelectorComponent</text>
</g>
<!-- ProductVariantSizeSelectorModule -->
<g id="node2" class="node">
<title>ProductVariantSizeSelectorModule</title>
<polygon fill="#8dd3c7" stroke="black" points="433.55,-187 430.55,-191 409.55,-191 406.55,-187 218.45,-187 218.45,-151 433.55,-151 433.55,-187"/>
<text text-anchor="middle" x="326" y="-164.8" font-family="Times,serif" font-size="14.00">ProductVariantSizeSelectorModule</text>
</g>
<!-- ProductVariantSizeSelectorComponent&#45;&gt;ProductVariantSizeSelectorModule -->
<g id="edge1" class="edge">
<title>ProductVariantSizeSelectorComponent&#45;&gt;ProductVariantSizeSelectorModule</title>
<path fill="none" stroke="black" d="M240.95,-122.11C240.95,-122.11 240.95,-140.99 240.95,-140.99"/>
<polygon fill="black" stroke="black" points="237.45,-140.99 240.95,-150.99 244.45,-140.99 237.45,-140.99"/>
</g>
<!-- ProductVariantSizeSelectorComponent  -->
<g id="node5" class="node">
<title>ProductVariantSizeSelectorComponent </title>
<polygon fill="#fb8072" stroke="black" points="446.33,-252 205.67,-252 205.67,-216 446.33,-216 446.33,-252"/>
<text text-anchor="middle" x="326" y="-229.8" font-family="Times,serif" font-size="14.00">ProductVariantSizeSelectorComponent </text>
</g>
<!-- ProductVariantSizeSelectorModule&#45;&gt;ProductVariantSizeSelectorComponent  -->
<g id="edge4" class="edge">
<title>ProductVariantSizeSelectorModule&#45;&gt;ProductVariantSizeSelectorComponent </title>
<path fill="none" stroke="black" stroke-dasharray="5,2" d="M326,-187.11C326,-187.11 326,-205.99 326,-205.99"/>
<polygon fill="black" stroke="black" points="322.5,-205.99 326,-215.99 329.5,-205.99 322.5,-205.99"/>
</g>
<!-- I18nModule -->
<g id="node3" class="node">
<title>I18nModule</title>
<polygon fill="#8dd3c7" stroke="black" points="468.71,-122 465.71,-126 444.71,-126 441.71,-122 383.29,-122 383.29,-86 468.71,-86 468.71,-122"/>
<text text-anchor="middle" x="426" y="-99.8" font-family="Times,serif" font-size="14.00">I18nModule</text>
</g>
<!-- I18nModule&#45;&gt;ProductVariantSizeSelectorModule -->
<g id="edge2" class="edge">
<title>I18nModule&#45;&gt;ProductVariantSizeSelectorModule</title>
<path fill="none" stroke="black" d="M408.46,-122.11C408.46,-122.11 408.46,-140.99 408.46,-140.99"/>
<polygon fill="black" stroke="black" points="404.96,-140.99 408.46,-150.99 411.96,-140.99 404.96,-140.99"/>
</g>
<!-- UrlModule -->
<g id="node4" class="node">
<title>UrlModule</title>
<polygon fill="#8dd3c7" stroke="black" points="365.21,-122 362.21,-126 341.21,-126 338.21,-122 286.79,-122 286.79,-86 365.21,-86 365.21,-122"/>
<text text-anchor="middle" x="326" y="-99.8" font-family="Times,serif" font-size="14.00">UrlModule</text>
</g>
<!-- UrlModule&#45;&gt;ProductVariantSizeSelectorModule -->
<g id="edge3" class="edge">
<title>UrlModule&#45;&gt;ProductVariantSizeSelectorModule</title>
<path fill="none" stroke="black" d="M326,-122.11C326,-122.11 326,-140.99 326,-140.99"/>
<polygon fill="black" stroke="black" points="322.5,-140.99 326,-150.99 329.5,-140.99 322.5,-140.99"/>
</g>
</g>
</svg>
