<?xml version="1.0" encoding="UTF-8" standalone="no"?>
<!DOCTYPE svg PUBLIC "-//W3C//DTD SVG 1.1//EN"
 "http://www.w3.org/Graphics/SVG/1.1/DTD/svg11.dtd">
<!-- Generated by graphviz version 2.40.1 (20161225.0304)
 -->
<!-- Title: dependencies Pages: 1 -->
<svg width="712pt" height="284pt"
 viewBox="0.00 0.00 712.00 284.00" xmlns="http://www.w3.org/2000/svg" xmlns:xlink="http://www.w3.org/1999/xlink">
<g id="graph0" class="graph" transform="scale(1 1) rotate(0) translate(4 280)">
<title>dependencies</title>
<polygon fill="#ffffff" stroke="transparent" points="-4,4 -4,-280 708,-280 708,4 -4,4"/>
<text text-anchor="start" x="331.0091" y="-42.4" font-family="sans-serif" font-weight="bold" font-size="14.00" fill="#000000">Legend</text>
<polygon fill="#ffffb3" stroke="transparent" points="118,-10 118,-30 138,-30 138,-10 118,-10"/>
<text text-anchor="start" x="141.629" y="-15.4" font-family="sans-serif" font-size="14.00" fill="#000000"> &#160;Declarations</text>
<polygon fill="#8dd3c7" stroke="transparent" points="231,-10 231,-30 251,-30 251,-10 231,-10"/>
<text text-anchor="start" x="254.7251" y="-15.4" font-family="sans-serif" font-size="14.00" fill="#000000"> &#160;Module</text>
<polygon fill="#80b1d3" stroke="transparent" points="317,-10 317,-30 337,-30 337,-10 317,-10"/>
<text text-anchor="start" x="340.7812" y="-15.4" font-family="sans-serif" font-size="14.00" fill="#000000"> &#160;Bootstrap</text>
<polygon fill="#fdb462" stroke="transparent" points="414,-10 414,-30 434,-30 434,-10 414,-10"/>
<text text-anchor="start" x="437.6732" y="-15.4" font-family="sans-serif" font-size="14.00" fill="#000000"> &#160;Providers</text>
<polygon fill="#fb8072" stroke="transparent" points="510,-10 510,-30 530,-30 530,-10 510,-10"/>
<text text-anchor="start" x="533.7258" y="-15.4" font-family="sans-serif" font-size="14.00" fill="#000000"> &#160;Exports</text>
<g id="clust1" class="cluster">
<title>cluster_OrderConfirmationModule</title>
<polygon fill="none" stroke="#000000" stroke-dasharray="1,5" points="8,-70 8,-268 696,-268 696,-70 8,-70"/>
</g>
<g id="clust2" class="cluster">
<title>cluster_OrderConfirmationModule_declarations</title>
<polygon fill="none" stroke="#000000" points="482,-78 482,-130 688,-130 688,-78 482,-78"/>
</g>
<g id="clust4" class="cluster">
<title>cluster_OrderConfirmationModule_imports</title>
<polygon fill="none" stroke="#000000" points="16,-78 16,-130 474,-130 474,-78 16,-78"/>
</g>
<g id="clust5" class="cluster">
<title>cluster_OrderConfirmationModule_exports</title>
<polygon fill="none" stroke="#000000" points="196,-208 196,-260 404,-260 404,-208 196,-208"/>
</g>
<!-- OrderConfirmationComponent -->
<g id="node1" class="node">
<title>OrderConfirmationComponent</title>
<polygon fill="#ffffb3" stroke="#000000" points="679.91,-122 490.09,-122 490.09,-86 679.91,-86 679.91,-122"/>
<text text-anchor="middle" x="585" y="-99.8" font-family="Times,serif" font-size="14.00" fill="#000000">OrderConfirmationComponent</text>
</g>
<!-- OrderConfirmationModule -->
<g id="node2" class="node">
<title>OrderConfirmationModule</title>
<polygon fill="#8dd3c7" stroke="#000000" points="383.6274,-187 380.6274,-191 359.6274,-191 356.6274,-187 216.3726,-187 216.3726,-151 383.6274,-151 383.6274,-187"/>
<text text-anchor="middle" x="300" y="-164.8" font-family="Times,serif" font-size="14.00" fill="#000000">OrderConfirmationModule</text>
</g>
<!-- OrderConfirmationComponent&#45;&gt;OrderConfirmationModule -->
<g id="edge1" class="edge">
<title>OrderConfirmationComponent&#45;&gt;OrderConfirmationModule</title>
<path fill="none" stroke="#000000" d="M585,-122.2843C585,-143.3211 585,-175 585,-175 585,-175 393.9679,-175 393.9679,-175"/>
<polygon fill="#000000" stroke="#000000" points="393.968,-171.5001 383.9679,-175 393.9679,-178.5001 393.968,-171.5001"/>
</g>
<!-- OrderConfirmationComponent  -->
<g id="node7" class="node">
<title>OrderConfirmationComponent </title>
<polygon fill="#fb8072" stroke="#000000" points="396.4096,-252 203.5904,-252 203.5904,-216 396.4096,-216 396.4096,-252"/>
<text text-anchor="middle" x="300" y="-229.8" font-family="Times,serif" font-size="14.00" fill="#000000">OrderConfirmationComponent </text>
</g>
<!-- OrderConfirmationModule&#45;&gt;OrderConfirmationComponent  -->
<g id="edge6" class="edge">
<title>OrderConfirmationModule&#45;&gt;OrderConfirmationComponent </title>
<path fill="none" stroke="#000000" stroke-dasharray="5,2" d="M300,-187.1061C300,-187.1061 300,-205.991 300,-205.991"/>
<polygon fill="#000000" stroke="#000000" points="296.5001,-205.9909 300,-215.991 303.5001,-205.991 296.5001,-205.9909"/>
</g>
<!-- CardModule -->
<g id="node3" class="node">
<title>CardModule</title>
<polygon fill="#8dd3c7" stroke="#000000" points="466.2619,-122 463.2619,-126 442.2619,-126 439.2619,-122 379.7381,-122 379.7381,-86 466.2619,-86 466.2619,-122"/>
<text text-anchor="middle" x="423" y="-99.8" font-family="Times,serif" font-size="14.00" fill="#000000">CardModule</text>
</g>
<!-- CardModule&#45;&gt;OrderConfirmationModule -->
<g id="edge2" class="edge">
<title>CardModule&#45;&gt;OrderConfirmationModule</title>
<path fill="none" stroke="#000000" d="M390.1342,-122.0225C390.1342,-139.3734 390.1342,-163 390.1342,-163 390.1342,-163 389.4859,-163 389.4859,-163"/>
<polygon fill="#000000" stroke="#000000" points="393.652,-159.5002 383.6519,-163 393.6519,-166.5002 393.652,-159.5002"/>
</g>
<!-- CartSharedModule -->
<g id="node4" class="node">
<title>CartSharedModule</title>
<polygon fill="#8dd3c7" stroke="#000000" points="361.0255,-122 358.0255,-126 337.0255,-126 334.0255,-122 238.9745,-122 238.9745,-86 361.0255,-86 361.0255,-122"/>
<text text-anchor="middle" x="300" y="-99.8" font-family="Times,serif" font-size="14.00" fill="#000000">CartSharedModule</text>
</g>
<!-- CartSharedModule&#45;&gt;OrderConfirmationModule -->
<g id="edge3" class="edge">
<title>CartSharedModule&#45;&gt;OrderConfirmationModule</title>
<path fill="none" stroke="#000000" d="M300,-122.1061C300,-122.1061 300,-140.991 300,-140.991"/>
<polygon fill="#000000" stroke="#000000" points="296.5001,-140.9909 300,-150.991 303.5001,-140.991 296.5001,-140.9909"/>
</g>
<!-- MediaModule -->
<g id="node5" class="node">
<title>MediaModule</title>
<polygon fill="#8dd3c7" stroke="#000000" points="220.8147,-122 217.8147,-126 196.8147,-126 193.8147,-122 125.1853,-122 125.1853,-86 220.8147,-86 220.8147,-122"/>
<text text-anchor="middle" x="173" y="-99.8" font-family="Times,serif" font-size="14.00" fill="#000000">MediaModule</text>
</g>
<!-- MediaModule&#45;&gt;OrderConfirmationModule -->
<g id="edge4" class="edge">
<title>MediaModule&#45;&gt;OrderConfirmationModule</title>
<path fill="none" stroke="#000000" d="M209.8659,-122.2843C209.8659,-143.3211 209.8659,-175 209.8659,-175 209.8659,-175 210.5141,-175 210.5141,-175"/>
<polygon fill="#000000" stroke="#000000" points="206.3481,-178.5002 216.3481,-175 206.348,-171.5002 206.3481,-178.5002"/>
</g>
<!-- PwaModule -->
<g id="node6" class="node">
<title>PwaModule</title>
<polygon fill="#8dd3c7" stroke="#000000" points="107.6543,-122 104.6543,-126 83.6543,-126 80.6543,-122 24.3457,-122 24.3457,-86 107.6543,-86 107.6543,-122"/>
<text text-anchor="middle" x="66" y="-99.8" font-family="Times,serif" font-size="14.00" fill="#000000">PwaModule</text>
</g>
<!-- PwaModule&#45;&gt;OrderConfirmationModule -->
<g id="edge5" class="edge">
<title>PwaModule&#45;&gt;OrderConfirmationModule</title>
<path fill="none" stroke="#000000" d="M66,-122.0225C66,-139.3734 66,-163 66,-163 66,-163 206.1816,-163 206.1816,-163"/>
<polygon fill="#000000" stroke="#000000" points="206.1816,-166.5001 216.1816,-163 206.1815,-159.5001 206.1816,-166.5001"/>
</g>
</g>
</svg>
