<?xml version="1.0" encoding="UTF-8" standalone="no"?>
<!DOCTYPE svg PUBLIC "-//W3C//DTD SVG 1.1//EN"
 "http://www.w3.org/Graphics/SVG/1.1/DTD/svg11.dtd">
<!-- Generated by graphviz version 2.47.3 (20210619.1520)
 -->
<!-- Title: dependencies Pages: 1 -->
<svg width="1074pt" height="358pt"
 viewBox="0.00 0.00 1074.00 358.39" xmlns="http://www.w3.org/2000/svg" xmlns:xlink="http://www.w3.org/1999/xlink">
<g id="graph0" class="graph" transform="scale(1 1) rotate(0) translate(4 354.39)">
<title>dependencies</title>
<polygon fill="white" stroke="transparent" points="-4,4 -4,-354.39 1070,-354.39 1070,4 -4,4"/>
<text text-anchor="middle" x="533" y="-8.2" font-family="sans-serif" font-size="14.00">dependencies</text>
<g id="clust1" class="cluster">
<title>cluster_UnitFormModule</title>
<polygon fill="none" stroke="black" stroke-dasharray="1,5" points="8,-32.8 8,-342.39 1058,-342.39 1058,-32.8 8,-32.8"/>
</g>
<g id="clust2" class="cluster">
<title>cluster_UnitFormModule_declarations</title>
<polygon fill="none" stroke="black" points="674,-152.39 674,-204.39 826,-204.39 826,-152.39 674,-152.39"/>
</g>
<g id="clust5" class="cluster">
<title>cluster_UnitFormModule_exports</title>
<polygon fill="none" stroke="black" points="340,-282.39 340,-334.39 496,-334.39 496,-282.39 340,-282.39"/>
</g>
<g id="clust3" class="cluster">
<title>cluster_UnitFormModule_UnitFormComponent_providers</title>
<polygon fill="none" stroke="black" points="16,-40.8 16,-139.39 1050,-139.39 1050,-40.8 16,-40.8"/>
</g>
<g id="clust4" class="cluster">
<title>cluster_UnitFormModule_imports</title>
<polygon fill="none" stroke="black" points="78,-152.39 78,-204.39 666,-204.39 666,-152.39 78,-152.39"/>
</g>
<!-- UnitFormComponent -->
<g id="node1" class="node">
<title>UnitFormComponent</title>
<polygon fill="#ffffb3" stroke="black" points="818.05,-196.39 681.95,-196.39 681.95,-160.39 818.05,-160.39 818.05,-196.39"/>
<text text-anchor="middle" x="750" y="-174.19" font-family="Times,serif" font-size="14.00">UnitFormComponent</text>
</g>
<!-- UnitFormModule -->
<g id="node2" class="node">
<title>UnitFormModule</title>
<polygon fill="#8dd3c7" stroke="black" points="475.27,-261.39 472.27,-265.39 451.27,-265.39 448.27,-261.39 360.73,-261.39 360.73,-225.39 475.27,-225.39 475.27,-261.39"/>
<text text-anchor="middle" x="418" y="-239.19" font-family="Times,serif" font-size="14.00">UnitFormModule</text>
</g>
<!-- UnitFormComponent&#45;&gt;UnitFormModule -->
<g id="edge1" class="edge">
<title>UnitFormComponent&#45;&gt;UnitFormModule</title>
<path fill="none" stroke="black" d="M750,-196.67C750,-217.71 750,-249.39 750,-249.39 750,-249.39 485.45,-249.39 485.45,-249.39"/>
<polygon fill="black" stroke="black" points="485.45,-245.89 475.45,-249.39 485.45,-252.89 485.45,-245.89"/>
</g>
<!-- UnitFormComponent  -->
<g id="node10" class="node">
<title>UnitFormComponent </title>
<polygon fill="#fb8072" stroke="black" points="488.05,-326.39 347.95,-326.39 347.95,-290.39 488.05,-290.39 488.05,-326.39"/>
<text text-anchor="middle" x="418" y="-304.19" font-family="Times,serif" font-size="14.00">UnitFormComponent </text>
</g>
<!-- UnitFormModule&#45;&gt;UnitFormComponent  -->
<g id="edge9" class="edge">
<title>UnitFormModule&#45;&gt;UnitFormComponent </title>
<path fill="none" stroke="black" stroke-dasharray="5,2" d="M418,-261.5C418,-261.5 418,-280.38 418,-280.38"/>
<polygon fill="black" stroke="black" points="414.5,-280.38 418,-290.38 421.5,-280.38 414.5,-280.38"/>
</g>
<!-- {
 &#160;&#160;&#160;provide: ItemService, useExisting: UnitItemService,
} -->
<g id="node3" class="node">
<title>{
 &#160;&#160;&#160;provide: ItemService, useExisting: UnitItemService,
}</title>
<ellipse fill="#fdb462" stroke="black" cx="813" cy="-90.1" rx="228.54" ry="41.09"/>
<text text-anchor="middle" x="813" y="-102.7" font-family="Times,serif" font-size="14.00">{</text>
<text text-anchor="middle" x="813" y="-85.9" font-family="Times,serif" font-size="14.00"> &#160;&#160;&#160;provide: ItemService, useExisting: UnitItemService,</text>
<text text-anchor="middle" x="813" y="-69.1" font-family="Times,serif" font-size="14.00">}</text>
</g>
<!-- {
 &#160;&#160;&#160;provide: ItemService, useExisting: UnitItemService,
}&#45;&gt;UnitFormComponent -->
<g id="edge2" class="edge">
<title>{
 &#160;&#160;&#160;provide: ItemService, useExisting: UnitItemService,
}&#45;&gt;UnitFormComponent</title>
<path fill="none" stroke="black" d="M772.76,-130.88C772.76,-130.88 772.76,-150.26 772.76,-150.26"/>
<polygon fill="black" stroke="black" points="769.26,-150.26 772.76,-160.26 776.26,-150.26 769.26,-150.26"/>
</g>
<!-- {
 &#160;&#160;&#160;provide: CurrentItemService, useExisting: CurrentUnitService,
} -->
<g id="node4" class="node">
<title>{
 &#160;&#160;&#160;provide: CurrentItemService, useExisting: CurrentUnitService,
}</title>
<ellipse fill="#fdb462" stroke="black" cx="295" cy="-90.1" rx="271.21" ry="41.09"/>
<text text-anchor="middle" x="295" y="-102.7" font-family="Times,serif" font-size="14.00">{</text>
<text text-anchor="middle" x="295" y="-85.9" font-family="Times,serif" font-size="14.00"> &#160;&#160;&#160;provide: CurrentItemService, useExisting: CurrentUnitService,</text>
<text text-anchor="middle" x="295" y="-69.1" font-family="Times,serif" font-size="14.00">}</text>
</g>
<!-- {
 &#160;&#160;&#160;provide: CurrentItemService, useExisting: CurrentUnitService,
}&#45;&gt;UnitFormComponent -->
<g id="edge3" class="edge">
<title>{
 &#160;&#160;&#160;provide: CurrentItemService, useExisting: CurrentUnitService,
}&#45;&gt;UnitFormComponent</title>
<path fill="none" stroke="black" d="M549.84,-104.3C549.84,-120.98 549.84,-146.39 549.84,-146.39 549.84,-146.39 727.24,-146.39 727.24,-146.39 727.24,-146.39 727.24,-150.15 727.24,-150.15"/>
<polygon fill="black" stroke="black" points="723.74,-150.15 727.24,-160.15 730.74,-150.15 723.74,-150.15"/>
</g>
<!-- FormErrorsModule -->
<g id="node5" class="node">
<title>FormErrorsModule</title>
<polygon fill="#8dd3c7" stroke="black" points="658.36,-196.39 655.36,-200.39 634.36,-200.39 631.36,-196.39 533.64,-196.39 533.64,-160.39 658.36,-160.39 658.36,-196.39"/>
<text text-anchor="middle" x="596" y="-174.19" font-family="Times,serif" font-size="14.00">FormErrorsModule</text>
</g>
<!-- FormErrorsModule&#45;&gt;UnitFormModule -->
<g id="edge4" class="edge">
<title>FormErrorsModule&#45;&gt;UnitFormModule</title>
<path fill="none" stroke="black" d="M596,-196.41C596,-213.76 596,-237.39 596,-237.39 596,-237.39 485.3,-237.39 485.3,-237.39"/>
<polygon fill="black" stroke="black" points="485.3,-233.89 475.3,-237.39 485.3,-240.89 485.3,-233.89"/>
</g>
<!-- FormModule -->
<g id="node6" class="node">
<title>FormModule</title>
<polygon fill="#8dd3c7" stroke="black" points="515.88,-196.39 512.88,-200.39 491.88,-200.39 488.88,-196.39 426.12,-196.39 426.12,-160.39 515.88,-160.39 515.88,-196.39"/>
<text text-anchor="middle" x="471" y="-174.19" font-family="Times,serif" font-size="14.00">FormModule</text>
</g>
<!-- FormModule&#45;&gt;UnitFormModule -->
<g id="edge5" class="edge">
<title>FormModule&#45;&gt;UnitFormModule</title>
<path fill="none" stroke="black" d="M450.72,-196.5C450.72,-196.5 450.72,-215.38 450.72,-215.38"/>
<polygon fill="black" stroke="black" points="447.22,-215.38 450.72,-225.38 454.22,-215.38 447.22,-215.38"/>
</g>
<!-- I18nModule -->
<g id="node7" class="node">
<title>I18nModule</title>
<polygon fill="#8dd3c7" stroke="black" points="407.71,-196.39 404.71,-200.39 383.71,-200.39 380.71,-196.39 322.29,-196.39 322.29,-160.39 407.71,-160.39 407.71,-196.39"/>
<text text-anchor="middle" x="365" y="-174.19" font-family="Times,serif" font-size="14.00">I18nModule</text>
</g>
<!-- I18nModule&#45;&gt;UnitFormModule -->
<g id="edge6" class="edge">
<title>I18nModule&#45;&gt;UnitFormModule</title>
<path fill="none" stroke="black" d="M384.11,-196.5C384.11,-196.5 384.11,-215.38 384.11,-215.38"/>
<polygon fill="black" stroke="black" points="380.61,-215.38 384.11,-225.38 387.61,-215.38 380.61,-215.38"/>
</g>
<!-- ItemActiveModule -->
<g id="node8" class="node">
<title>ItemActiveModule</title>
<polygon fill="#8dd3c7" stroke="black" points="304.02,-196.39 301.02,-200.39 280.02,-200.39 277.02,-196.39 181.98,-196.39 181.98,-160.39 304.02,-160.39 304.02,-196.39"/>
<text text-anchor="middle" x="243" y="-174.19" font-family="Times,serif" font-size="14.00">ItemActiveModule</text>
</g>
<!-- ItemActiveModule&#45;&gt;UnitFormModule -->
<g id="edge7" class="edge">
<title>ItemActiveModule&#45;&gt;UnitFormModule</title>
<path fill="none" stroke="black" d="M243,-196.41C243,-213.76 243,-237.39 243,-237.39 243,-237.39 350.7,-237.39 350.7,-237.39"/>
<polygon fill="black" stroke="black" points="350.7,-240.89 360.7,-237.39 350.7,-233.89 350.7,-240.89"/>
</g>
<!-- UrlModule -->
<g id="node9" class="node">
<title>UrlModule</title>
<polygon fill="#8dd3c7" stroke="black" points="164.21,-196.39 161.21,-200.39 140.21,-200.39 137.21,-196.39 85.79,-196.39 85.79,-160.39 164.21,-160.39 164.21,-196.39"/>
<text text-anchor="middle" x="125" y="-174.19" font-family="Times,serif" font-size="14.00">UrlModule</text>
</g>
<!-- UrlModule&#45;&gt;UnitFormModule -->
<g id="edge8" class="edge">
<title>UrlModule&#45;&gt;UnitFormModule</title>
<path fill="none" stroke="black" d="M125,-196.67C125,-217.71 125,-249.39 125,-249.39 125,-249.39 350.46,-249.39 350.46,-249.39"/>
<polygon fill="black" stroke="black" points="350.46,-252.89 360.46,-249.39 350.46,-245.89 350.46,-252.89"/>
</g>
</g>
</svg>
