<?xml version="1.0" encoding="UTF-8" standalone="no"?>
<!DOCTYPE svg PUBLIC "-//W3C//DTD SVG 1.1//EN"
 "http://www.w3.org/Graphics/SVG/1.1/DTD/svg11.dtd">
<!-- Generated by graphviz version 2.47.3 (20210619.1520)
 -->
<!-- Title: dependencies Pages: 1 -->
<svg width="1074pt" height="358pt"
 viewBox="0.00 0.00 1074.00 358.39" xmlns="http://www.w3.org/2000/svg" xmlns:xlink="http://www.w3.org/1999/xlink">
<g id="graph0" class="graph" transform="scale(1 1) rotate(0) translate(4 354.39)">
<title>dependencies</title>
<polygon fill="white" stroke="transparent" points="-4,4 -4,-354.39 1070,-354.39 1070,4 -4,4"/>
<text text-anchor="middle" x="533" y="-8.2" font-family="sans-serif" font-size="14.00">dependencies</text>
<g id="clust1" class="cluster">
<title>cluster_UnitFormModule</title>
<polygon fill="none" stroke="black" stroke-dasharray="1,5" points="8,-32.8 8,-342.39 1058,-342.39 1058,-32.8 8,-32.8"/>
</g>
<g id="clust2" class="cluster">
<title>cluster_UnitFormModule_declarations</title>
<polygon fill="none" stroke="black" points="260,-152.39 260,-204.39 412,-204.39 412,-152.39 260,-152.39"/>
</g>
<g id="clust4" class="cluster">
<title>cluster_UnitFormModule_imports</title>
<polygon fill="none" stroke="black" points="420,-152.39 420,-204.39 1008,-204.39 1008,-152.39 420,-152.39"/>
</g>
<g id="clust5" class="cluster">
<title>cluster_UnitFormModule_exports</title>
<polygon fill="none" stroke="black" points="568,-282.39 568,-334.39 724,-334.39 724,-282.39 568,-282.39"/>
</g>
<g id="clust3" class="cluster">
<title>cluster_UnitFormModule_UnitFormComponent_providers</title>
<polygon fill="none" stroke="black" points="16,-40.8 16,-139.39 1050,-139.39 1050,-40.8 16,-40.8"/>
</g>
<!-- UnitFormComponent -->
<g id="node1" class="node">
<title>UnitFormComponent</title>
<polygon fill="#ffffb3" stroke="black" points="404.05,-196.39 267.95,-196.39 267.95,-160.39 404.05,-160.39 404.05,-196.39"/>
<text text-anchor="middle" x="336" y="-174.19" font-family="Times,serif" font-size="14.00">UnitFormComponent</text>
</g>
<!-- UnitFormModule -->
<g id="node2" class="node">
<title>UnitFormModule</title>
<polygon fill="#8dd3c7" stroke="black" points="703.27,-261.39 700.27,-265.39 679.27,-265.39 676.27,-261.39 588.73,-261.39 588.73,-225.39 703.27,-225.39 703.27,-261.39"/>
<text text-anchor="middle" x="646" y="-239.19" font-family="Times,serif" font-size="14.00">UnitFormModule</text>
</g>
<!-- UnitFormComponent&#45;&gt;UnitFormModule -->
<g id="edge1" class="edge">
<title>UnitFormComponent&#45;&gt;UnitFormModule</title>
<path fill="none" stroke="black" d="M336,-196.67C336,-217.71 336,-249.39 336,-249.39 336,-249.39 578.42,-249.39 578.42,-249.39"/>
<polygon fill="black" stroke="black" points="578.42,-252.89 588.42,-249.39 578.42,-245.89 578.42,-252.89"/>
</g>
<!-- UnitFormComponent  -->
<g id="node10" class="node">
<title>UnitFormComponent </title>
<polygon fill="#fb8072" stroke="black" points="716.05,-326.39 575.95,-326.39 575.95,-290.39 716.05,-290.39 716.05,-326.39"/>
<text text-anchor="middle" x="646" y="-304.19" font-family="Times,serif" font-size="14.00">UnitFormComponent </text>
</g>
<!-- UnitFormModule&#45;&gt;UnitFormComponent  -->
<g id="edge9" class="edge">
<title>UnitFormModule&#45;&gt;UnitFormComponent </title>
<path fill="none" stroke="black" stroke-dasharray="5,2" d="M646,-261.5C646,-261.5 646,-280.38 646,-280.38"/>
<polygon fill="black" stroke="black" points="642.5,-280.38 646,-290.38 649.5,-280.38 642.5,-280.38"/>
</g>
<!-- {
 &#160;&#160;&#160;provide: ItemService, useExisting: UnitItemService,
} -->
<g id="node3" class="node">
<title>{
 &#160;&#160;&#160;provide: ItemService, useExisting: UnitItemService,
}</title>
<ellipse fill="#fdb462" stroke="black" cx="813" cy="-90.1" rx="228.54" ry="41.09"/>
<text text-anchor="middle" x="813" y="-102.7" font-family="Times,serif" font-size="14.00">{</text>
<text text-anchor="middle" x="813" y="-85.9" font-family="Times,serif" font-size="14.00"> &#160;&#160;&#160;provide: ItemService, useExisting: UnitItemService,</text>
<text text-anchor="middle" x="813" y="-69.1" font-family="Times,serif" font-size="14.00">}</text>
</g>
<!-- {
 &#160;&#160;&#160;provide: ItemService, useExisting: UnitItemService,
}&#45;&gt;UnitFormComponent -->
<g id="edge2" class="edge">
<title>{
 &#160;&#160;&#160;provide: ItemService, useExisting: UnitItemService,
}&#45;&gt;UnitFormComponent</title>
<path fill="none" stroke="black" d="M615.25,-111.06C615.25,-127.06 615.25,-146.39 615.25,-146.39 615.25,-146.39 358.76,-146.39 358.76,-146.39 358.76,-146.39 358.76,-150.15 358.76,-150.15"/>
<polygon fill="black" stroke="black" points="355.26,-150.15 358.76,-160.15 362.26,-150.15 355.26,-150.15"/>
</g>
<!-- {
 &#160;&#160;&#160;provide: CurrentItemService, useExisting: CurrentUnitService,
} -->
<g id="node4" class="node">
<title>{
 &#160;&#160;&#160;provide: CurrentItemService, useExisting: CurrentUnitService,
}</title>
<ellipse fill="#fdb462" stroke="black" cx="295" cy="-90.1" rx="271.21" ry="41.09"/>
<text text-anchor="middle" x="295" y="-102.7" font-family="Times,serif" font-size="14.00">{</text>
<text text-anchor="middle" x="295" y="-85.9" font-family="Times,serif" font-size="14.00"> &#160;&#160;&#160;provide: CurrentItemService, useExisting: CurrentUnitService,</text>
<text text-anchor="middle" x="295" y="-69.1" font-family="Times,serif" font-size="14.00">}</text>
</g>
<!-- {
 &#160;&#160;&#160;provide: CurrentItemService, useExisting: CurrentUnitService,
}&#45;&gt;UnitFormComponent -->
<g id="edge3" class="edge">
<title>{
 &#160;&#160;&#160;provide: CurrentItemService, useExisting: CurrentUnitService,
}&#45;&gt;UnitFormComponent</title>
<path fill="none" stroke="black" d="M313.24,-131.4C313.24,-131.4 313.24,-150.06 313.24,-150.06"/>
<polygon fill="black" stroke="black" points="309.74,-150.06 313.24,-160.06 316.74,-150.06 309.74,-150.06"/>
</g>
<!-- FormErrorsModule -->
<g id="node5" class="node">
<title>FormErrorsModule</title>
<polygon fill="#8dd3c7" stroke="black" points="1000.36,-196.39 997.36,-200.39 976.36,-200.39 973.36,-196.39 875.64,-196.39 875.64,-160.39 1000.36,-160.39 1000.36,-196.39"/>
<text text-anchor="middle" x="938" y="-174.19" font-family="Times,serif" font-size="14.00">FormErrorsModule</text>
</g>
<!-- FormErrorsModule&#45;&gt;UnitFormModule -->
<g id="edge4" class="edge">
<title>FormErrorsModule&#45;&gt;UnitFormModule</title>
<path fill="none" stroke="black" d="M938,-196.67C938,-217.71 938,-249.39 938,-249.39 938,-249.39 713.34,-249.39 713.34,-249.39"/>
<polygon fill="black" stroke="black" points="713.34,-245.89 703.34,-249.39 713.34,-252.89 713.34,-245.89"/>
</g>
<!-- FormModule -->
<g id="node6" class="node">
<title>FormModule</title>
<polygon fill="#8dd3c7" stroke="black" points="857.88,-196.39 854.88,-200.39 833.88,-200.39 830.88,-196.39 768.12,-196.39 768.12,-160.39 857.88,-160.39 857.88,-196.39"/>
<text text-anchor="middle" x="813" y="-174.19" font-family="Times,serif" font-size="14.00">FormModule</text>
</g>
<!-- FormModule&#45;&gt;UnitFormModule -->
<g id="edge5" class="edge">
<title>FormModule&#45;&gt;UnitFormModule</title>
<path fill="none" stroke="black" d="M813,-196.41C813,-213.76 813,-237.39 813,-237.39 813,-237.39 713.47,-237.39 713.47,-237.39"/>
<polygon fill="black" stroke="black" points="713.47,-233.89 703.47,-237.39 713.47,-240.89 713.47,-233.89"/>
</g>
<!-- I18nModule -->
<g id="node7" class="node">
<title>I18nModule</title>
<polygon fill="#8dd3c7" stroke="black" points="749.71,-196.39 746.71,-200.39 725.71,-200.39 722.71,-196.39 664.29,-196.39 664.29,-160.39 749.71,-160.39 749.71,-196.39"/>
<text text-anchor="middle" x="707" y="-174.19" font-family="Times,serif" font-size="14.00">I18nModule</text>
</g>
<!-- I18nModule&#45;&gt;UnitFormModule -->
<g id="edge6" class="edge">
<title>I18nModule&#45;&gt;UnitFormModule</title>
<path fill="none" stroke="black" d="M683.89,-196.5C683.89,-196.5 683.89,-215.38 683.89,-215.38"/>
<polygon fill="black" stroke="black" points="680.39,-215.38 683.89,-225.38 687.39,-215.38 680.39,-215.38"/>
</g>
<!-- ItemActiveModule -->
<g id="node8" class="node">
<title>ItemActiveModule</title>
<polygon fill="#8dd3c7" stroke="black" points="646.02,-196.39 643.02,-200.39 622.02,-200.39 619.02,-196.39 523.98,-196.39 523.98,-160.39 646.02,-160.39 646.02,-196.39"/>
<text text-anchor="middle" x="585" y="-174.19" font-family="Times,serif" font-size="14.00">ItemActiveModule</text>
</g>
<!-- ItemActiveModule&#45;&gt;UnitFormModule -->
<g id="edge7" class="edge">
<title>ItemActiveModule&#45;&gt;UnitFormModule</title>
<path fill="none" stroke="black" d="M617.44,-196.5C617.44,-196.5 617.44,-215.38 617.44,-215.38"/>
<polygon fill="black" stroke="black" points="613.94,-215.38 617.44,-225.38 620.94,-215.38 613.94,-215.38"/>
</g>
<!-- UrlModule -->
<g id="node9" class="node">
<title>UrlModule</title>
<polygon fill="#8dd3c7" stroke="black" points="506.21,-196.39 503.21,-200.39 482.21,-200.39 479.21,-196.39 427.79,-196.39 427.79,-160.39 506.21,-160.39 506.21,-196.39"/>
<text text-anchor="middle" x="467" y="-174.19" font-family="Times,serif" font-size="14.00">UrlModule</text>
</g>
<!-- UrlModule&#45;&gt;UnitFormModule -->
<g id="edge8" class="edge">
<title>UrlModule&#45;&gt;UnitFormModule</title>
<path fill="none" stroke="black" d="M467,-196.41C467,-213.76 467,-237.39 467,-237.39 467,-237.39 578.38,-237.39 578.38,-237.39"/>
<polygon fill="black" stroke="black" points="578.38,-240.89 588.38,-237.39 578.38,-233.89 578.38,-240.89"/>
</g>
</g>
</svg>
