<?xml version="1.0" encoding="UTF-8" standalone="no"?>
<!DOCTYPE svg PUBLIC "-//W3C//DTD SVG 1.1//EN"
 "http://www.w3.org/Graphics/SVG/1.1/DTD/svg11.dtd">
<!-- Generated by graphviz version 2.47.0 (20210316.0004)
 -->
<!-- Title: dependencies Pages: 1 -->
<svg width="1074pt" height="396pt"
 viewBox="0.00 0.00 1074.00 395.59" xmlns="http://www.w3.org/2000/svg" xmlns:xlink="http://www.w3.org/1999/xlink">
<g id="graph0" class="graph" transform="scale(1 1) rotate(0) translate(4 391.59)">
<title>dependencies</title>
<polygon fill="white" stroke="transparent" points="-4,4 -4,-391.59 1070,-391.59 1070,4 -4,4"/>
<text text-anchor="start" x="512.01" y="-42.4" font-family="sans-serif" font-weight="bold" font-size="14.00">Legend</text>
<polygon fill="#ffffb3" stroke="transparent" points="299,-10 299,-30 319,-30 319,-10 299,-10"/>
<text text-anchor="start" x="322.63" y="-15.4" font-family="sans-serif" font-size="14.00"> &#160;Declarations</text>
<polygon fill="#8dd3c7" stroke="transparent" points="412,-10 412,-30 432,-30 432,-10 412,-10"/>
<text text-anchor="start" x="435.73" y="-15.4" font-family="sans-serif" font-size="14.00"> &#160;Module</text>
<polygon fill="#80b1d3" stroke="transparent" points="498,-10 498,-30 518,-30 518,-10 498,-10"/>
<text text-anchor="start" x="521.78" y="-15.4" font-family="sans-serif" font-size="14.00"> &#160;Bootstrap</text>
<polygon fill="#fdb462" stroke="transparent" points="595,-10 595,-30 615,-30 615,-10 595,-10"/>
<text text-anchor="start" x="618.67" y="-15.4" font-family="sans-serif" font-size="14.00"> &#160;Providers</text>
<polygon fill="#fb8072" stroke="transparent" points="691,-10 691,-30 711,-30 711,-10 691,-10"/>
<text text-anchor="start" x="714.73" y="-15.4" font-family="sans-serif" font-size="14.00"> &#160;Exports</text>
<g id="clust1" class="cluster">
<title>cluster_UnitFormModule</title>
<polygon fill="none" stroke="black" stroke-dasharray="1,5" points="8,-70 8,-379.59 1058,-379.59 1058,-70 8,-70"/>
</g>
<g id="clust2" class="cluster">
<title>cluster_UnitFormModule_declarations</title>
<polygon fill="none" stroke="black" points="674,-189.59 674,-241.59 826,-241.59 826,-189.59 674,-189.59"/>
</g>
<g id="clust3" class="cluster">
<title>cluster_UnitFormModule_UnitFormComponent_providers</title>
<polygon fill="none" stroke="black" points="16,-78 16,-176.59 1050,-176.59 1050,-78 16,-78"/>
</g>
<g id="clust5" class="cluster">
<title>cluster_UnitFormModule_exports</title>
<polygon fill="none" stroke="black" points="340,-319.59 340,-371.59 496,-371.59 496,-319.59 340,-319.59"/>
</g>
<g id="clust4" class="cluster">
<title>cluster_UnitFormModule_imports</title>
<polygon fill="none" stroke="black" points="78,-189.59 78,-241.59 666,-241.59 666,-189.59 78,-189.59"/>
</g>
<!-- UnitFormComponent -->
<g id="node1" class="node">
<title>UnitFormComponent</title>
<polygon fill="#ffffb3" stroke="black" points="818.05,-233.59 681.95,-233.59 681.95,-197.59 818.05,-197.59 818.05,-233.59"/>
<text text-anchor="middle" x="750" y="-211.39" font-family="Times,serif" font-size="14.00">UnitFormComponent</text>
</g>
<!-- UnitFormModule -->
<g id="node2" class="node">
<title>UnitFormModule</title>
<polygon fill="#8dd3c7" stroke="black" points="475.27,-298.59 472.27,-302.59 451.27,-302.59 448.27,-298.59 360.73,-298.59 360.73,-262.59 475.27,-262.59 475.27,-298.59"/>
<text text-anchor="middle" x="418" y="-276.39" font-family="Times,serif" font-size="14.00">UnitFormModule</text>
</g>
<!-- UnitFormComponent&#45;&gt;UnitFormModule -->
<g id="edge1" class="edge">
<title>UnitFormComponent&#45;&gt;UnitFormModule</title>
<path fill="none" stroke="black" d="M750,-233.87C750,-254.91 750,-286.59 750,-286.59 750,-286.59 485.45,-286.59 485.45,-286.59"/>
<polygon fill="black" stroke="black" points="485.45,-283.09 475.45,-286.59 485.45,-290.09 485.45,-283.09"/>
</g>
<!-- UnitFormComponent  -->
<g id="node10" class="node">
<title>UnitFormComponent </title>
<polygon fill="#fb8072" stroke="black" points="488.05,-363.59 347.95,-363.59 347.95,-327.59 488.05,-327.59 488.05,-363.59"/>
<text text-anchor="middle" x="418" y="-341.39" font-family="Times,serif" font-size="14.00">UnitFormComponent </text>
</g>
<!-- UnitFormModule&#45;&gt;UnitFormComponent  -->
<g id="edge9" class="edge">
<title>UnitFormModule&#45;&gt;UnitFormComponent </title>
<path fill="none" stroke="black" stroke-dasharray="5,2" d="M418,-298.7C418,-298.7 418,-317.58 418,-317.58"/>
<polygon fill="black" stroke="black" points="414.5,-317.58 418,-327.58 421.5,-317.58 414.5,-317.58"/>
</g>
<!-- {
 &#160;&#160;&#160;provide: ItemService, useExisting: UnitItemService,
} -->
<g id="node3" class="node">
<title>{
 &#160;&#160;&#160;provide: ItemService, useExisting: UnitItemService,
}</title>
<ellipse fill="#fdb462" stroke="black" cx="813" cy="-127.3" rx="228.54" ry="41.09"/>
<text text-anchor="middle" x="813" y="-139.9" font-family="Times,serif" font-size="14.00">{</text>
<text text-anchor="middle" x="813" y="-123.1" font-family="Times,serif" font-size="14.00"> &#160;&#160;&#160;provide: ItemService, useExisting: UnitItemService,</text>
<text text-anchor="middle" x="813" y="-106.3" font-family="Times,serif" font-size="14.00">}</text>
</g>
<!-- {
 &#160;&#160;&#160;provide: ItemService, useExisting: UnitItemService,
}&#45;&gt;UnitFormComponent -->
<g id="edge2" class="edge">
<title>{
 &#160;&#160;&#160;provide: ItemService, useExisting: UnitItemService,
}&#45;&gt;UnitFormComponent</title>
<path fill="none" stroke="black" d="M772.76,-168.08C772.76,-168.08 772.76,-187.46 772.76,-187.46"/>
<polygon fill="black" stroke="black" points="769.26,-187.46 772.76,-197.46 776.26,-187.46 769.26,-187.46"/>
</g>
<!-- {
 &#160;&#160;&#160;provide: CurrentItemService, useExisting: CurrentUnitService,
} -->
<g id="node4" class="node">
<title>{
 &#160;&#160;&#160;provide: CurrentItemService, useExisting: CurrentUnitService,
}</title>
<ellipse fill="#fdb462" stroke="black" cx="295" cy="-127.3" rx="271.21" ry="41.09"/>
<text text-anchor="middle" x="295" y="-139.9" font-family="Times,serif" font-size="14.00">{</text>
<text text-anchor="middle" x="295" y="-123.1" font-family="Times,serif" font-size="14.00"> &#160;&#160;&#160;provide: CurrentItemService, useExisting: CurrentUnitService,</text>
<text text-anchor="middle" x="295" y="-106.3" font-family="Times,serif" font-size="14.00">}</text>
</g>
<!-- {
 &#160;&#160;&#160;provide: CurrentItemService, useExisting: CurrentUnitService,
}&#45;&gt;UnitFormComponent -->
<g id="edge3" class="edge">
<title>{
 &#160;&#160;&#160;provide: CurrentItemService, useExisting: CurrentUnitService,
}&#45;&gt;UnitFormComponent</title>
<path fill="none" stroke="black" d="M549.84,-141.5C549.84,-158.18 549.84,-183.59 549.84,-183.59 549.84,-183.59 727.24,-183.59 727.24,-183.59 727.24,-183.59 727.24,-187.35 727.24,-187.35"/>
<polygon fill="black" stroke="black" points="723.74,-187.35 727.24,-197.35 730.74,-187.35 723.74,-187.35"/>
</g>
<!-- FormErrorsModule -->
<g id="node5" class="node">
<title>FormErrorsModule</title>
<polygon fill="#8dd3c7" stroke="black" points="658.36,-233.59 655.36,-237.59 634.36,-237.59 631.36,-233.59 533.64,-233.59 533.64,-197.59 658.36,-197.59 658.36,-233.59"/>
<text text-anchor="middle" x="596" y="-211.39" font-family="Times,serif" font-size="14.00">FormErrorsModule</text>
</g>
<!-- FormErrorsModule&#45;&gt;UnitFormModule -->
<g id="edge4" class="edge">
<title>FormErrorsModule&#45;&gt;UnitFormModule</title>
<path fill="none" stroke="black" d="M596,-233.61C596,-250.96 596,-274.59 596,-274.59 596,-274.59 485.3,-274.59 485.3,-274.59"/>
<polygon fill="black" stroke="black" points="485.3,-271.09 475.3,-274.59 485.3,-278.09 485.3,-271.09"/>
</g>
<!-- FormModule -->
<g id="node6" class="node">
<title>FormModule</title>
<polygon fill="#8dd3c7" stroke="black" points="515.88,-233.59 512.88,-237.59 491.88,-237.59 488.88,-233.59 426.12,-233.59 426.12,-197.59 515.88,-197.59 515.88,-233.59"/>
<text text-anchor="middle" x="471" y="-211.39" font-family="Times,serif" font-size="14.00">FormModule</text>
</g>
<!-- FormModule&#45;&gt;UnitFormModule -->
<g id="edge5" class="edge">
<title>FormModule&#45;&gt;UnitFormModule</title>
<path fill="none" stroke="black" d="M450.72,-233.7C450.72,-233.7 450.72,-252.58 450.72,-252.58"/>
<polygon fill="black" stroke="black" points="447.22,-252.58 450.72,-262.58 454.22,-252.58 447.22,-252.58"/>
</g>
<!-- I18nModule -->
<g id="node7" class="node">
<title>I18nModule</title>
<polygon fill="#8dd3c7" stroke="black" points="407.71,-233.59 404.71,-237.59 383.71,-237.59 380.71,-233.59 322.29,-233.59 322.29,-197.59 407.71,-197.59 407.71,-233.59"/>
<text text-anchor="middle" x="365" y="-211.39" font-family="Times,serif" font-size="14.00">I18nModule</text>
</g>
<!-- I18nModule&#45;&gt;UnitFormModule -->
<g id="edge6" class="edge">
<title>I18nModule&#45;&gt;UnitFormModule</title>
<path fill="none" stroke="black" d="M384.11,-233.7C384.11,-233.7 384.11,-252.58 384.11,-252.58"/>
<polygon fill="black" stroke="black" points="380.61,-252.58 384.11,-262.58 387.61,-252.58 380.61,-252.58"/>
</g>
<!-- ItemActiveModule -->
<g id="node8" class="node">
<title>ItemActiveModule</title>
<polygon fill="#8dd3c7" stroke="black" points="304.02,-233.59 301.02,-237.59 280.02,-237.59 277.02,-233.59 181.98,-233.59 181.98,-197.59 304.02,-197.59 304.02,-233.59"/>
<text text-anchor="middle" x="243" y="-211.39" font-family="Times,serif" font-size="14.00">ItemActiveModule</text>
</g>
<!-- ItemActiveModule&#45;&gt;UnitFormModule -->
<g id="edge7" class="edge">
<title>ItemActiveModule&#45;&gt;UnitFormModule</title>
<path fill="none" stroke="black" d="M243,-233.61C243,-250.96 243,-274.59 243,-274.59 243,-274.59 350.7,-274.59 350.7,-274.59"/>
<polygon fill="black" stroke="black" points="350.7,-278.09 360.7,-274.59 350.7,-271.09 350.7,-278.09"/>
</g>
<!-- UrlModule -->
<g id="node9" class="node">
<title>UrlModule</title>
<polygon fill="#8dd3c7" stroke="black" points="164.21,-233.59 161.21,-237.59 140.21,-237.59 137.21,-233.59 85.79,-233.59 85.79,-197.59 164.21,-197.59 164.21,-233.59"/>
<text text-anchor="middle" x="125" y="-211.39" font-family="Times,serif" font-size="14.00">UrlModule</text>
</g>
<!-- UrlModule&#45;&gt;UnitFormModule -->
<g id="edge8" class="edge">
<title>UrlModule&#45;&gt;UnitFormModule</title>
<path fill="none" stroke="black" d="M125,-233.87C125,-254.91 125,-286.59 125,-286.59 125,-286.59 350.46,-286.59 350.46,-286.59"/>
<polygon fill="black" stroke="black" points="350.46,-290.09 360.46,-286.59 350.46,-283.09 350.46,-290.09"/>
</g>
</g>
</svg>
