<?xml version="1.0" encoding="UTF-8" standalone="no"?>
<!DOCTYPE svg PUBLIC "-//W3C//DTD SVG 1.1//EN"
 "http://www.w3.org/Graphics/SVG/1.1/DTD/svg11.dtd">
<!-- Generated by graphviz version 2.47.3 (20210619.1520)
 -->
<!-- Title: dependencies Pages: 1 -->
<svg width="788pt" height="247pt"
 viewBox="0.00 0.00 788.00 246.80" xmlns="http://www.w3.org/2000/svg" xmlns:xlink="http://www.w3.org/1999/xlink">
<g id="graph0" class="graph" transform="scale(1 1) rotate(0) translate(4 242.8)">
<title>dependencies</title>
<polygon fill="white" stroke="transparent" points="-4,4 -4,-242.8 784,-242.8 784,4 -4,4"/>
<text text-anchor="middle" x="390" y="-8.2" font-family="sans-serif" font-size="14.00">dependencies</text>
<g id="clust1" class="cluster">
<title>cluster_UnitFormModule</title>
<polygon fill="none" stroke="black" stroke-dasharray="1,5" points="8,-32.8 8,-230.8 772,-230.8 772,-32.8 8,-32.8"/>
</g>
<g id="clust5" class="cluster">
<title>cluster_UnitFormModule_exports</title>
<polygon fill="none" stroke="black" points="278,-170.8 278,-222.8 434,-222.8 434,-170.8 278,-170.8"/>
</g>
<g id="clust2" class="cluster">
<title>cluster_UnitFormModule_declarations</title>
<polygon fill="none" stroke="black" points="612,-40.8 612,-92.8 764,-92.8 764,-40.8 612,-40.8"/>
</g>
<g id="clust4" class="cluster">
<title>cluster_UnitFormModule_imports</title>
<polygon fill="none" stroke="black" points="16,-40.8 16,-92.8 604,-92.8 604,-40.8 16,-40.8"/>
</g>
<!-- UnitFormComponent -->
<g id="node1" class="node">
<title>UnitFormComponent</title>
<polygon fill="#ffffb3" stroke="black" points="756.05,-84.8 619.95,-84.8 619.95,-48.8 756.05,-48.8 756.05,-84.8"/>
<text text-anchor="middle" x="688" y="-62.6" font-family="Times,serif" font-size="14.00">UnitFormComponent</text>
</g>
<!-- UnitFormModule -->
<g id="node2" class="node">
<title>UnitFormModule</title>
<polygon fill="#8dd3c7" stroke="black" points="413.27,-149.8 410.27,-153.8 389.27,-153.8 386.27,-149.8 298.73,-149.8 298.73,-113.8 413.27,-113.8 413.27,-149.8"/>
<text text-anchor="middle" x="356" y="-127.6" font-family="Times,serif" font-size="14.00">UnitFormModule</text>
</g>
<!-- UnitFormComponent&#45;&gt;UnitFormModule -->
<g id="edge1" class="edge">
<title>UnitFormComponent&#45;&gt;UnitFormModule</title>
<path fill="none" stroke="black" d="M688,-85.08C688,-106.12 688,-137.8 688,-137.8 688,-137.8 423.45,-137.8 423.45,-137.8"/>
<polygon fill="black" stroke="black" points="423.45,-134.3 413.45,-137.8 423.45,-141.3 423.45,-134.3"/>
</g>
<!-- UnitFormComponent  -->
<g id="node8" class="node">
<title>UnitFormComponent </title>
<polygon fill="#fb8072" stroke="black" points="426.05,-214.8 285.95,-214.8 285.95,-178.8 426.05,-178.8 426.05,-214.8"/>
<text text-anchor="middle" x="356" y="-192.6" font-family="Times,serif" font-size="14.00">UnitFormComponent </text>
</g>
<!-- UnitFormModule&#45;&gt;UnitFormComponent  -->
<g id="edge7" class="edge">
<title>UnitFormModule&#45;&gt;UnitFormComponent </title>
<path fill="none" stroke="black" stroke-dasharray="5,2" d="M356,-149.91C356,-149.91 356,-168.79 356,-168.79"/>
<polygon fill="black" stroke="black" points="352.5,-168.79 356,-178.79 359.5,-168.79 352.5,-168.79"/>
</g>
<!-- FormErrorsModule -->
<g id="node3" class="node">
<title>FormErrorsModule</title>
<polygon fill="#8dd3c7" stroke="black" points="596.36,-84.8 593.36,-88.8 572.36,-88.8 569.36,-84.8 471.64,-84.8 471.64,-48.8 596.36,-48.8 596.36,-84.8"/>
<text text-anchor="middle" x="534" y="-62.6" font-family="Times,serif" font-size="14.00">FormErrorsModule</text>
</g>
<!-- FormErrorsModule&#45;&gt;UnitFormModule -->
<g id="edge2" class="edge">
<title>FormErrorsModule&#45;&gt;UnitFormModule</title>
<path fill="none" stroke="black" d="M534,-84.82C534,-102.17 534,-125.8 534,-125.8 534,-125.8 423.3,-125.8 423.3,-125.8"/>
<polygon fill="black" stroke="black" points="423.3,-122.3 413.3,-125.8 423.3,-129.3 423.3,-122.3"/>
</g>
<!-- FormModule -->
<g id="node4" class="node">
<title>FormModule</title>
<polygon fill="#8dd3c7" stroke="black" points="453.88,-84.8 450.88,-88.8 429.88,-88.8 426.88,-84.8 364.12,-84.8 364.12,-48.8 453.88,-48.8 453.88,-84.8"/>
<text text-anchor="middle" x="409" y="-62.6" font-family="Times,serif" font-size="14.00">FormModule</text>
</g>
<!-- FormModule&#45;&gt;UnitFormModule -->
<g id="edge3" class="edge">
<title>FormModule&#45;&gt;UnitFormModule</title>
<path fill="none" stroke="black" d="M388.72,-84.91C388.72,-84.91 388.72,-103.79 388.72,-103.79"/>
<polygon fill="black" stroke="black" points="385.22,-103.79 388.72,-113.79 392.22,-103.79 385.22,-103.79"/>
</g>
<!-- I18nModule -->
<g id="node5" class="node">
<title>I18nModule</title>
<polygon fill="#8dd3c7" stroke="black" points="345.71,-84.8 342.71,-88.8 321.71,-88.8 318.71,-84.8 260.29,-84.8 260.29,-48.8 345.71,-48.8 345.71,-84.8"/>
<text text-anchor="middle" x="303" y="-62.6" font-family="Times,serif" font-size="14.00">I18nModule</text>
</g>
<!-- I18nModule&#45;&gt;UnitFormModule -->
<g id="edge4" class="edge">
<title>I18nModule&#45;&gt;UnitFormModule</title>
<path fill="none" stroke="black" d="M322.11,-84.91C322.11,-84.91 322.11,-103.79 322.11,-103.79"/>
<polygon fill="black" stroke="black" points="318.61,-103.79 322.11,-113.79 325.61,-103.79 318.61,-103.79"/>
</g>
<!-- ItemActiveModule -->
<g id="node6" class="node">
<title>ItemActiveModule</title>
<polygon fill="#8dd3c7" stroke="black" points="242.02,-84.8 239.02,-88.8 218.02,-88.8 215.02,-84.8 119.98,-84.8 119.98,-48.8 242.02,-48.8 242.02,-84.8"/>
<text text-anchor="middle" x="181" y="-62.6" font-family="Times,serif" font-size="14.00">ItemActiveModule</text>
</g>
<!-- ItemActiveModule&#45;&gt;UnitFormModule -->
<g id="edge5" class="edge">
<title>ItemActiveModule&#45;&gt;UnitFormModule</title>
<path fill="none" stroke="black" d="M181,-84.82C181,-102.17 181,-125.8 181,-125.8 181,-125.8 288.7,-125.8 288.7,-125.8"/>
<polygon fill="black" stroke="black" points="288.7,-129.3 298.7,-125.8 288.7,-122.3 288.7,-129.3"/>
</g>
<!-- UrlModule -->
<g id="node7" class="node">
<title>UrlModule</title>
<polygon fill="#8dd3c7" stroke="black" points="102.21,-84.8 99.21,-88.8 78.21,-88.8 75.21,-84.8 23.79,-84.8 23.79,-48.8 102.21,-48.8 102.21,-84.8"/>
<text text-anchor="middle" x="63" y="-62.6" font-family="Times,serif" font-size="14.00">UrlModule</text>
</g>
<!-- UrlModule&#45;&gt;UnitFormModule -->
<g id="edge6" class="edge">
<title>UrlModule&#45;&gt;UnitFormModule</title>
<path fill="none" stroke="black" d="M63,-85.08C63,-106.12 63,-137.8 63,-137.8 63,-137.8 288.46,-137.8 288.46,-137.8"/>
<polygon fill="black" stroke="black" points="288.46,-141.3 298.46,-137.8 288.46,-134.3 288.46,-141.3"/>
</g>
</g>
</svg>
