<?xml version="1.0" encoding="UTF-8" standalone="no"?>
<!DOCTYPE svg PUBLIC "-//W3C//DTD SVG 1.1//EN"
 "http://www.w3.org/Graphics/SVG/1.1/DTD/svg11.dtd">
<!-- Generated by graphviz version 2.47.3 (20210619.1520)
 -->
<!-- Title: dependencies Pages: 1 -->
<svg width="1670pt" height="358pt"
 viewBox="0.00 0.00 1670.00 358.39" xmlns="http://www.w3.org/2000/svg" xmlns:xlink="http://www.w3.org/1999/xlink">
<g id="graph0" class="graph" transform="scale(1 1) rotate(0) translate(4 354.39)">
<title>dependencies</title>
<polygon fill="white" stroke="transparent" points="-4,4 -4,-354.39 1666,-354.39 1666,4 -4,4"/>
<text text-anchor="middle" x="831" y="-8.2" font-family="sans-serif" font-size="14.00">dependencies</text>
<g id="clust1" class="cluster">
<title>cluster_UnitFormModule</title>
<polygon fill="none" stroke="black" stroke-dasharray="1,5" points="8,-32.8 8,-342.39 1654,-342.39 1654,-32.8 8,-32.8"/>
</g>
<g id="clust4" class="cluster">
<title>cluster_UnitFormModule_imports</title>
<polygon fill="none" stroke="black" points="1058,-152.39 1058,-204.39 1646,-204.39 1646,-152.39 1058,-152.39"/>
</g>
<g id="clust3" class="cluster">
<title>cluster_UnitFormModule_UnitFormComponent_providers</title>
<polygon fill="none" stroke="black" points="16,-40.8 16,-204.39 1050,-204.39 1050,-40.8 16,-40.8"/>
</g>
<g id="clust5" class="cluster">
<title>cluster_UnitFormModule_exports</title>
<polygon fill="none" stroke="black" points="1206,-282.39 1206,-334.39 1362,-334.39 1362,-282.39 1206,-282.39"/>
</g>
<!-- UnitFormComponent -->
<g id="node1" class="node">
<title>UnitFormComponent</title>
<polygon fill="#ffffb3" stroke="black" points="881.05,-196.39 744.95,-196.39 744.95,-160.39 881.05,-160.39 881.05,-196.39"/>
<text text-anchor="middle" x="813" y="-174.19" font-family="Times,serif" font-size="14.00">UnitFormComponent</text>
</g>
<!-- UnitFormModule -->
<g id="node2" class="node">
<title>UnitFormModule</title>
<polygon fill="#8dd3c7" stroke="black" points="1341.27,-261.39 1338.27,-265.39 1317.27,-265.39 1314.27,-261.39 1226.73,-261.39 1226.73,-225.39 1341.27,-225.39 1341.27,-261.39"/>
<text text-anchor="middle" x="1284" y="-239.19" font-family="Times,serif" font-size="14.00">UnitFormModule</text>
</g>
<!-- UnitFormComponent&#45;&gt;UnitFormModule -->
<g id="edge1" class="edge">
<title>UnitFormComponent&#45;&gt;UnitFormModule</title>
<path fill="none" stroke="black" d="M813,-196.67C813,-217.71 813,-249.39 813,-249.39 813,-249.39 1216.72,-249.39 1216.72,-249.39"/>
<polygon fill="black" stroke="black" points="1216.72,-252.89 1226.72,-249.39 1216.72,-245.89 1216.72,-252.89"/>
</g>
<!-- UnitFormComponent  -->
<g id="node10" class="node">
<title>UnitFormComponent </title>
<polygon fill="#fb8072" stroke="black" points="1354.05,-326.39 1213.95,-326.39 1213.95,-290.39 1354.05,-290.39 1354.05,-326.39"/>
<text text-anchor="middle" x="1284" y="-304.19" font-family="Times,serif" font-size="14.00">UnitFormComponent </text>
</g>
<!-- UnitFormModule&#45;&gt;UnitFormComponent  -->
<g id="edge9" class="edge">
<title>UnitFormModule&#45;&gt;UnitFormComponent </title>
<path fill="none" stroke="black" stroke-dasharray="5,2" d="M1284,-261.5C1284,-261.5 1284,-280.38 1284,-280.38"/>
<polygon fill="black" stroke="black" points="1280.5,-280.38 1284,-290.38 1287.5,-280.38 1280.5,-280.38"/>
</g>
<!-- {
 &#160;&#160;&#160;provide: ItemService, useExisting: UnitItemService,
} -->
<g id="node3" class="node">
<title>{
 &#160;&#160;&#160;provide: ItemService, useExisting: UnitItemService,
}</title>
<ellipse fill="#fdb462" stroke="black" cx="813" cy="-90.1" rx="228.54" ry="41.09"/>
<text text-anchor="middle" x="813" y="-102.7" font-family="Times,serif" font-size="14.00">{</text>
<text text-anchor="middle" x="813" y="-85.9" font-family="Times,serif" font-size="14.00"> &#160;&#160;&#160;provide: ItemService, useExisting: UnitItemService,</text>
<text text-anchor="middle" x="813" y="-69.1" font-family="Times,serif" font-size="14.00">}</text>
</g>
<!-- {
 &#160;&#160;&#160;provide: ItemService, useExisting: UnitItemService,
}&#45;&gt;UnitFormComponent -->
<g id="edge2" class="edge">
<title>{
 &#160;&#160;&#160;provide: ItemService, useExisting: UnitItemService,
}&#45;&gt;UnitFormComponent</title>
<path fill="none" stroke="black" d="M813,-131.4C813,-131.4 813,-150.06 813,-150.06"/>
<polygon fill="black" stroke="black" points="809.5,-150.06 813,-160.06 816.5,-150.06 809.5,-150.06"/>
</g>
<!-- {
 &#160;&#160;&#160;provide: CurrentItemService, useExisting: CurrentUnitService,
} -->
<g id="node4" class="node">
<title>{
 &#160;&#160;&#160;provide: CurrentItemService, useExisting: CurrentUnitService,
}</title>
<ellipse fill="#fdb462" stroke="black" cx="295" cy="-90.1" rx="271.21" ry="41.09"/>
<text text-anchor="middle" x="295" y="-102.7" font-family="Times,serif" font-size="14.00">{</text>
<text text-anchor="middle" x="295" y="-85.9" font-family="Times,serif" font-size="14.00"> &#160;&#160;&#160;provide: CurrentItemService, useExisting: CurrentUnitService,</text>
<text text-anchor="middle" x="295" y="-69.1" font-family="Times,serif" font-size="14.00">}</text>
</g>
<!-- {
 &#160;&#160;&#160;provide: CurrentItemService, useExisting: CurrentUnitService,
}&#45;&gt;UnitFormComponent -->
<g id="edge3" class="edge">
<title>{
 &#160;&#160;&#160;provide: CurrentItemService, useExisting: CurrentUnitService,
}&#45;&gt;UnitFormComponent</title>
<path fill="none" stroke="black" d="M295,-131.4C295,-154.38 295,-178.39 295,-178.39 295,-178.39 734.75,-178.39 734.75,-178.39"/>
<polygon fill="black" stroke="black" points="734.75,-181.89 744.75,-178.39 734.75,-174.89 734.75,-181.89"/>
</g>
<!-- FormErrorsModule -->
<g id="node5" class="node">
<title>FormErrorsModule</title>
<polygon fill="#8dd3c7" stroke="black" points="1638.36,-196.39 1635.36,-200.39 1614.36,-200.39 1611.36,-196.39 1513.64,-196.39 1513.64,-160.39 1638.36,-160.39 1638.36,-196.39"/>
<text text-anchor="middle" x="1576" y="-174.19" font-family="Times,serif" font-size="14.00">FormErrorsModule</text>
</g>
<!-- FormErrorsModule&#45;&gt;UnitFormModule -->
<g id="edge4" class="edge">
<title>FormErrorsModule&#45;&gt;UnitFormModule</title>
<path fill="none" stroke="black" d="M1576,-196.67C1576,-217.71 1576,-249.39 1576,-249.39 1576,-249.39 1351.34,-249.39 1351.34,-249.39"/>
<polygon fill="black" stroke="black" points="1351.34,-245.89 1341.34,-249.39 1351.34,-252.89 1351.34,-245.89"/>
</g>
<!-- FormModule -->
<g id="node6" class="node">
<title>FormModule</title>
<polygon fill="#8dd3c7" stroke="black" points="1495.88,-196.39 1492.88,-200.39 1471.88,-200.39 1468.88,-196.39 1406.12,-196.39 1406.12,-160.39 1495.88,-160.39 1495.88,-196.39"/>
<text text-anchor="middle" x="1451" y="-174.19" font-family="Times,serif" font-size="14.00">FormModule</text>
</g>
<!-- FormModule&#45;&gt;UnitFormModule -->
<g id="edge5" class="edge">
<title>FormModule&#45;&gt;UnitFormModule</title>
<path fill="none" stroke="black" d="M1451,-196.41C1451,-213.76 1451,-237.39 1451,-237.39 1451,-237.39 1351.47,-237.39 1351.47,-237.39"/>
<polygon fill="black" stroke="black" points="1351.47,-233.89 1341.47,-237.39 1351.47,-240.89 1351.47,-233.89"/>
</g>
<!-- I18nModule -->
<g id="node7" class="node">
<title>I18nModule</title>
<polygon fill="#8dd3c7" stroke="black" points="1387.71,-196.39 1384.71,-200.39 1363.71,-200.39 1360.71,-196.39 1302.29,-196.39 1302.29,-160.39 1387.71,-160.39 1387.71,-196.39"/>
<text text-anchor="middle" x="1345" y="-174.19" font-family="Times,serif" font-size="14.00">I18nModule</text>
</g>
<!-- I18nModule&#45;&gt;UnitFormModule -->
<g id="edge6" class="edge">
<title>I18nModule&#45;&gt;UnitFormModule</title>
<path fill="none" stroke="black" d="M1321.89,-196.5C1321.89,-196.5 1321.89,-215.38 1321.89,-215.38"/>
<polygon fill="black" stroke="black" points="1318.39,-215.38 1321.89,-225.38 1325.39,-215.38 1318.39,-215.38"/>
</g>
<!-- ItemActiveModule -->
<g id="node8" class="node">
<title>ItemActiveModule</title>
<polygon fill="#8dd3c7" stroke="black" points="1284.02,-196.39 1281.02,-200.39 1260.02,-200.39 1257.02,-196.39 1161.98,-196.39 1161.98,-160.39 1284.02,-160.39 1284.02,-196.39"/>
<text text-anchor="middle" x="1223" y="-174.19" font-family="Times,serif" font-size="14.00">ItemActiveModule</text>
</g>
<!-- ItemActiveModule&#45;&gt;UnitFormModule -->
<g id="edge7" class="edge">
<title>ItemActiveModule&#45;&gt;UnitFormModule</title>
<path fill="none" stroke="black" d="M1255.44,-196.5C1255.44,-196.5 1255.44,-215.38 1255.44,-215.38"/>
<polygon fill="black" stroke="black" points="1251.94,-215.38 1255.44,-225.38 1258.94,-215.38 1251.94,-215.38"/>
</g>
<!-- UrlModule -->
<g id="node9" class="node">
<title>UrlModule</title>
<polygon fill="#8dd3c7" stroke="black" points="1144.21,-196.39 1141.21,-200.39 1120.21,-200.39 1117.21,-196.39 1065.79,-196.39 1065.79,-160.39 1144.21,-160.39 1144.21,-196.39"/>
<text text-anchor="middle" x="1105" y="-174.19" font-family="Times,serif" font-size="14.00">UrlModule</text>
</g>
<!-- UrlModule&#45;&gt;UnitFormModule -->
<g id="edge8" class="edge">
<title>UrlModule&#45;&gt;UnitFormModule</title>
<path fill="none" stroke="black" d="M1105,-196.41C1105,-213.76 1105,-237.39 1105,-237.39 1105,-237.39 1216.38,-237.39 1216.38,-237.39"/>
<polygon fill="black" stroke="black" points="1216.38,-240.89 1226.38,-237.39 1216.38,-233.89 1216.38,-240.89"/>
</g>
</g>
</svg>
