<?xml version="1.0" encoding="UTF-8" standalone="no"?>
<!DOCTYPE svg PUBLIC "-//W3C//DTD SVG 1.1//EN"
 "http://www.w3.org/Graphics/SVG/1.1/DTD/svg11.dtd">
<!-- Generated by graphviz version 2.47.3 (20210619.1520)
 -->
<!-- Title: dependencies Pages: 1 -->
<svg width="1670pt" height="358pt"
 viewBox="0.00 0.00 1670.00 358.39" xmlns="http://www.w3.org/2000/svg" xmlns:xlink="http://www.w3.org/1999/xlink">
<g id="graph0" class="graph" transform="scale(1 1) rotate(0) translate(4 354.39)">
<title>dependencies</title>
<polygon fill="white" stroke="transparent" points="-4,4 -4,-354.39 1666,-354.39 1666,4 -4,4"/>
<text text-anchor="middle" x="831" y="-8.2" font-family="sans-serif" font-size="14.00">dependencies</text>
<g id="clust1" class="cluster">
<title>cluster_UnitFormModule</title>
<polygon fill="none" stroke="black" stroke-dasharray="1,5" points="8,-32.8 8,-342.39 1654,-342.39 1654,-32.8 8,-32.8"/>
</g>
<g id="clust3" class="cluster">
<title>cluster_UnitFormModule_UnitFormComponent_providers</title>
<polygon fill="none" stroke="black" points="612,-40.8 612,-204.39 1646,-204.39 1646,-40.8 612,-40.8"/>
</g>
<g id="clust5" class="cluster">
<title>cluster_UnitFormModule_exports</title>
<polygon fill="none" stroke="black" points="278,-282.39 278,-334.39 434,-334.39 434,-282.39 278,-282.39"/>
</g>
<g id="clust4" class="cluster">
<title>cluster_UnitFormModule_imports</title>
<polygon fill="none" stroke="black" points="16,-152.39 16,-204.39 604,-204.39 604,-152.39 16,-152.39"/>
</g>
<!-- UnitFormComponent -->
<g id="node1" class="node">
<title>UnitFormComponent</title>
<polygon fill="#ffffb3" stroke="black" points="959.05,-196.39 822.95,-196.39 822.95,-160.39 959.05,-160.39 959.05,-196.39"/>
<text text-anchor="middle" x="891" y="-174.19" font-family="Times,serif" font-size="14.00">UnitFormComponent</text>
</g>
<!-- UnitFormModule -->
<g id="node2" class="node">
<title>UnitFormModule</title>
<polygon fill="#8dd3c7" stroke="black" points="413.27,-261.39 410.27,-265.39 389.27,-265.39 386.27,-261.39 298.73,-261.39 298.73,-225.39 413.27,-225.39 413.27,-261.39"/>
<text text-anchor="middle" x="356" y="-239.19" font-family="Times,serif" font-size="14.00">UnitFormModule</text>
</g>
<!-- UnitFormComponent&#45;&gt;UnitFormModule -->
<g id="edge1" class="edge">
<title>UnitFormComponent&#45;&gt;UnitFormModule</title>
<path fill="none" stroke="black" d="M891,-196.67C891,-217.71 891,-249.39 891,-249.39 891,-249.39 423.51,-249.39 423.51,-249.39"/>
<polygon fill="black" stroke="black" points="423.51,-245.89 413.51,-249.39 423.51,-252.89 423.51,-245.89"/>
</g>
<!-- UnitFormComponent  -->
<g id="node10" class="node">
<title>UnitFormComponent </title>
<polygon fill="#fb8072" stroke="black" points="426.05,-326.39 285.95,-326.39 285.95,-290.39 426.05,-290.39 426.05,-326.39"/>
<text text-anchor="middle" x="356" y="-304.19" font-family="Times,serif" font-size="14.00">UnitFormComponent </text>
</g>
<!-- UnitFormModule&#45;&gt;UnitFormComponent  -->
<g id="edge9" class="edge">
<title>UnitFormModule&#45;&gt;UnitFormComponent </title>
<path fill="none" stroke="black" stroke-dasharray="5,2" d="M356,-261.5C356,-261.5 356,-280.38 356,-280.38"/>
<polygon fill="black" stroke="black" points="352.5,-280.38 356,-290.38 359.5,-280.38 352.5,-280.38"/>
</g>
<!-- {
 &#160;&#160;&#160;provide: ItemService, useExisting: UnitItemService,
} -->
<g id="node3" class="node">
<title>{
 &#160;&#160;&#160;provide: ItemService, useExisting: UnitItemService,
}</title>
<ellipse fill="#fdb462" stroke="black" cx="1409" cy="-90.1" rx="228.54" ry="41.09"/>
<text text-anchor="middle" x="1409" y="-102.7" font-family="Times,serif" font-size="14.00">{</text>
<text text-anchor="middle" x="1409" y="-85.9" font-family="Times,serif" font-size="14.00"> &#160;&#160;&#160;provide: ItemService, useExisting: UnitItemService,</text>
<text text-anchor="middle" x="1409" y="-69.1" font-family="Times,serif" font-size="14.00">}</text>
</g>
<!-- {
 &#160;&#160;&#160;provide: ItemService, useExisting: UnitItemService,
}&#45;&gt;UnitFormComponent -->
<g id="edge2" class="edge">
<title>{
 &#160;&#160;&#160;provide: ItemService, useExisting: UnitItemService,
}&#45;&gt;UnitFormComponent</title>
<path fill="none" stroke="black" d="M1409,-131.4C1409,-154.38 1409,-178.39 1409,-178.39 1409,-178.39 969.25,-178.39 969.25,-178.39"/>
<polygon fill="black" stroke="black" points="969.25,-174.89 959.25,-178.39 969.25,-181.89 969.25,-174.89"/>
</g>
<!-- {
 &#160;&#160;&#160;provide: CurrentItemService, useExisting: CurrentUnitService,
} -->
<g id="node4" class="node">
<title>{
 &#160;&#160;&#160;provide: CurrentItemService, useExisting: CurrentUnitService,
}</title>
<ellipse fill="#fdb462" stroke="black" cx="891" cy="-90.1" rx="271.21" ry="41.09"/>
<text text-anchor="middle" x="891" y="-102.7" font-family="Times,serif" font-size="14.00">{</text>
<text text-anchor="middle" x="891" y="-85.9" font-family="Times,serif" font-size="14.00"> &#160;&#160;&#160;provide: CurrentItemService, useExisting: CurrentUnitService,</text>
<text text-anchor="middle" x="891" y="-69.1" font-family="Times,serif" font-size="14.00">}</text>
</g>
<!-- {
 &#160;&#160;&#160;provide: CurrentItemService, useExisting: CurrentUnitService,
}&#45;&gt;UnitFormComponent -->
<g id="edge3" class="edge">
<title>{
 &#160;&#160;&#160;provide: CurrentItemService, useExisting: CurrentUnitService,
}&#45;&gt;UnitFormComponent</title>
<path fill="none" stroke="black" d="M891,-131.4C891,-131.4 891,-150.06 891,-150.06"/>
<polygon fill="black" stroke="black" points="887.5,-150.06 891,-160.06 894.5,-150.06 887.5,-150.06"/>
</g>
<!-- FormErrorsModule -->
<g id="node5" class="node">
<title>FormErrorsModule</title>
<polygon fill="#8dd3c7" stroke="black" points="596.36,-196.39 593.36,-200.39 572.36,-200.39 569.36,-196.39 471.64,-196.39 471.64,-160.39 596.36,-160.39 596.36,-196.39"/>
<text text-anchor="middle" x="534" y="-174.19" font-family="Times,serif" font-size="14.00">FormErrorsModule</text>
</g>
<!-- FormErrorsModule&#45;&gt;UnitFormModule -->
<g id="edge4" class="edge">
<title>FormErrorsModule&#45;&gt;UnitFormModule</title>
<path fill="none" stroke="black" d="M534,-196.41C534,-213.76 534,-237.39 534,-237.39 534,-237.39 423.3,-237.39 423.3,-237.39"/>
<polygon fill="black" stroke="black" points="423.3,-233.89 413.3,-237.39 423.3,-240.89 423.3,-233.89"/>
</g>
<!-- FormModule -->
<g id="node6" class="node">
<title>FormModule</title>
<polygon fill="#8dd3c7" stroke="black" points="453.88,-196.39 450.88,-200.39 429.88,-200.39 426.88,-196.39 364.12,-196.39 364.12,-160.39 453.88,-160.39 453.88,-196.39"/>
<text text-anchor="middle" x="409" y="-174.19" font-family="Times,serif" font-size="14.00">FormModule</text>
</g>
<!-- FormModule&#45;&gt;UnitFormModule -->
<g id="edge5" class="edge">
<title>FormModule&#45;&gt;UnitFormModule</title>
<path fill="none" stroke="black" d="M388.72,-196.5C388.72,-196.5 388.72,-215.38 388.72,-215.38"/>
<polygon fill="black" stroke="black" points="385.22,-215.38 388.72,-225.38 392.22,-215.38 385.22,-215.38"/>
</g>
<!-- I18nModule -->
<g id="node7" class="node">
<title>I18nModule</title>
<polygon fill="#8dd3c7" stroke="black" points="345.71,-196.39 342.71,-200.39 321.71,-200.39 318.71,-196.39 260.29,-196.39 260.29,-160.39 345.71,-160.39 345.71,-196.39"/>
<text text-anchor="middle" x="303" y="-174.19" font-family="Times,serif" font-size="14.00">I18nModule</text>
</g>
<!-- I18nModule&#45;&gt;UnitFormModule -->
<g id="edge6" class="edge">
<title>I18nModule&#45;&gt;UnitFormModule</title>
<path fill="none" stroke="black" d="M322.11,-196.5C322.11,-196.5 322.11,-215.38 322.11,-215.38"/>
<polygon fill="black" stroke="black" points="318.61,-215.38 322.11,-225.38 325.61,-215.38 318.61,-215.38"/>
</g>
<!-- ItemActiveModule -->
<g id="node8" class="node">
<title>ItemActiveModule</title>
<polygon fill="#8dd3c7" stroke="black" points="242.02,-196.39 239.02,-200.39 218.02,-200.39 215.02,-196.39 119.98,-196.39 119.98,-160.39 242.02,-160.39 242.02,-196.39"/>
<text text-anchor="middle" x="181" y="-174.19" font-family="Times,serif" font-size="14.00">ItemActiveModule</text>
</g>
<!-- ItemActiveModule&#45;&gt;UnitFormModule -->
<g id="edge7" class="edge">
<title>ItemActiveModule&#45;&gt;UnitFormModule</title>
<path fill="none" stroke="black" d="M181,-196.41C181,-213.76 181,-237.39 181,-237.39 181,-237.39 288.7,-237.39 288.7,-237.39"/>
<polygon fill="black" stroke="black" points="288.7,-240.89 298.7,-237.39 288.7,-233.89 288.7,-240.89"/>
</g>
<!-- UrlModule -->
<g id="node9" class="node">
<title>UrlModule</title>
<polygon fill="#8dd3c7" stroke="black" points="102.21,-196.39 99.21,-200.39 78.21,-200.39 75.21,-196.39 23.79,-196.39 23.79,-160.39 102.21,-160.39 102.21,-196.39"/>
<text text-anchor="middle" x="63" y="-174.19" font-family="Times,serif" font-size="14.00">UrlModule</text>
</g>
<!-- UrlModule&#45;&gt;UnitFormModule -->
<g id="edge8" class="edge">
<title>UrlModule&#45;&gt;UnitFormModule</title>
<path fill="none" stroke="black" d="M63,-196.67C63,-217.71 63,-249.39 63,-249.39 63,-249.39 288.46,-249.39 288.46,-249.39"/>
<polygon fill="black" stroke="black" points="288.46,-252.89 298.46,-249.39 288.46,-245.89 288.46,-252.89"/>
</g>
</g>
</svg>
