<?xml version="1.0" encoding="UTF-8" standalone="no"?>
<!DOCTYPE svg PUBLIC "-//W3C//DTD SVG 1.1//EN"
 "http://www.w3.org/Graphics/SVG/1.1/DTD/svg11.dtd">
<!-- Generated by graphviz version 2.44.1 (20200629.0846)
 -->
<!-- Title: dependencies Pages: 1 -->
<svg width="504pt" height="284pt"
 viewBox="0.00 0.00 504.00 284.00" xmlns="http://www.w3.org/2000/svg" xmlns:xlink="http://www.w3.org/1999/xlink">
<g id="graph0" class="graph" transform="scale(1 1) rotate(0) translate(4 280)">
<title>dependencies</title>
<polygon fill="white" stroke="transparent" points="-4,4 -4,-280 500,-280 500,4 -4,4"/>
<text text-anchor="start" x="227.01" y="-42.4" font-family="sans-serif" font-weight="bold" font-size="14.00">Legend</text>
<polygon fill="#ffffb3" stroke="transparent" points="14,-10 14,-30 34,-30 34,-10 14,-10"/>
<text text-anchor="start" x="37.63" y="-15.4" font-family="sans-serif" font-size="14.00"> &#160;Declarations</text>
<polygon fill="#8dd3c7" stroke="transparent" points="127,-10 127,-30 147,-30 147,-10 127,-10"/>
<text text-anchor="start" x="150.73" y="-15.4" font-family="sans-serif" font-size="14.00"> &#160;Module</text>
<polygon fill="#80b1d3" stroke="transparent" points="213,-10 213,-30 233,-30 233,-10 213,-10"/>
<text text-anchor="start" x="236.78" y="-15.4" font-family="sans-serif" font-size="14.00"> &#160;Bootstrap</text>
<polygon fill="#fdb462" stroke="transparent" points="310,-10 310,-30 330,-30 330,-10 310,-10"/>
<text text-anchor="start" x="333.67" y="-15.4" font-family="sans-serif" font-size="14.00"> &#160;Providers</text>
<polygon fill="#fb8072" stroke="transparent" points="406,-10 406,-30 426,-30 426,-10 406,-10"/>
<text text-anchor="start" x="429.73" y="-15.4" font-family="sans-serif" font-size="14.00"> &#160;Exports</text>
<g id="clust1" class="cluster">
<title>cluster_FeaturesConfigModule</title>
<polygon fill="none" stroke="black" stroke-dasharray="1,5" points="93.5,-70 93.5,-268 402.5,-268 402.5,-70 93.5,-70"/>
</g>
<g id="clust2" class="cluster">
<title>cluster_FeaturesConfigModule_declarations</title>
<polygon fill="none" stroke="black" points="105.5,-78 105.5,-130 391.5,-130 391.5,-78 105.5,-78"/>
</g>
<g id="clust6" class="cluster">
<title>cluster_FeaturesConfigModule_exports</title>
<polygon fill="none" stroke="black" points="101.5,-208 101.5,-260 394.5,-260 394.5,-208 101.5,-208"/>
</g>
<!-- FeatureDirective -->
<g id="node1" class="node">
<title>FeatureDirective</title>
<polygon fill="#ffffb3" stroke="black" points="383.56,-122 273.44,-122 273.44,-86 383.56,-86 383.56,-122"/>
<text text-anchor="middle" x="328.5" y="-99.8" font-family="Times,serif" font-size="14.00">FeatureDirective</text>
</g>
<!-- FeaturesConfigModule -->
<g id="node3" class="node">
<title>FeaturesConfigModule</title>
<polygon fill="#8dd3c7" stroke="black" points="258.36,-187 255.36,-191 234.36,-191 231.36,-187 112.64,-187 112.64,-151 258.36,-151 258.36,-187"/>
<text text-anchor="middle" x="185.5" y="-164.8" font-family="Times,serif" font-size="14.00">FeaturesConfigModule</text>
</g>
<!-- FeatureDirective&#45;&gt;FeaturesConfigModule -->
<g id="edge1" class="edge">
<title>FeatureDirective&#45;&gt;FeaturesConfigModule</title>
<path fill="none" stroke="black" d="M346.84,-122.02C346.84,-139.37 346.84,-163 346.84,-163 346.84,-163 268.62,-163 268.62,-163"/>
<polygon fill="black" stroke="black" points="268.62,-159.5 258.62,-163 268.62,-166.5 268.62,-159.5"/>
</g>
<!-- FeatureLevelDirective -->
<g id="node2" class="node">
<title>FeatureLevelDirective</title>
<polygon fill="#ffffb3" stroke="black" points="255.43,-122 113.57,-122 113.57,-86 255.43,-86 255.43,-122"/>
<text text-anchor="middle" x="184.5" y="-99.8" font-family="Times,serif" font-size="14.00">FeatureLevelDirective</text>
</g>
<!-- FeatureLevelDirective&#45;&gt;FeaturesConfigModule -->
<g id="edge2" class="edge">
<title>FeatureLevelDirective&#45;&gt;FeaturesConfigModule</title>
<path fill="none" stroke="black" d="M184.5,-122.11C184.5,-122.11 184.5,-140.99 184.5,-140.99"/>
<polygon fill="black" stroke="black" points="181,-140.99 184.5,-150.99 188,-140.99 181,-140.99"/>
</g>
<!-- FeatureDirective  -->
<g id="node4" class="node">
<title>FeatureDirective </title>
<polygon fill="#fb8072" stroke="black" points="386.06,-252 272.94,-252 272.94,-216 386.06,-216 386.06,-252"/>
<text text-anchor="middle" x="329.5" y="-229.8" font-family="Times,serif" font-size="14.00">FeatureDirective </text>
</g>
<!-- FeaturesConfigModule&#45;&gt;FeatureDirective  -->
<g id="edge3" class="edge">
<title>FeaturesConfigModule&#45;&gt;FeatureDirective </title>
<path fill="none" stroke="black" stroke-dasharray="5,2" d="M258.37,-175C285.65,-175 310.16,-175 310.16,-175 310.16,-175 310.16,-205.98 310.16,-205.98"/>
<polygon fill="black" stroke="black" points="306.66,-205.98 310.16,-215.98 313.66,-205.98 306.66,-205.98"/>
</g>
<!-- FeatureLevelDirective  -->
<g id="node5" class="node">
<title>FeatureLevelDirective </title>
<polygon fill="#fb8072" stroke="black" points="255.43,-252 109.57,-252 109.57,-216 255.43,-216 255.43,-252"/>
<text text-anchor="middle" x="182.5" y="-229.8" font-family="Times,serif" font-size="14.00">FeatureLevelDirective </text>
</g>
<!-- FeaturesConfigModule&#45;&gt;FeatureLevelDirective  -->
<g id="edge4" class="edge">
<title>FeaturesConfigModule&#45;&gt;FeatureLevelDirective </title>
<path fill="none" stroke="black" stroke-dasharray="5,2" d="M183.89,-187.11C183.89,-187.11 183.89,-205.99 183.89,-205.99"/>
<polygon fill="black" stroke="black" points="180.39,-205.99 183.89,-215.99 187.39,-205.99 180.39,-205.99"/>
</g>
</g>
</svg>
