<?xml version="1.0" encoding="UTF-8" standalone="no"?>
<!DOCTYPE svg PUBLIC "-//W3C//DTD SVG 1.1//EN"
 "http://www.w3.org/Graphics/SVG/1.1/DTD/svg11.dtd">
<!-- Generated by graphviz version 2.40.1 (20161225.0304)
 -->
<!-- Title: dependencies Pages: 1 -->
<svg width="504pt" height="284pt"
 viewBox="0.00 0.00 504.00 284.00" xmlns="http://www.w3.org/2000/svg" xmlns:xlink="http://www.w3.org/1999/xlink">
<g id="graph0" class="graph" transform="scale(1 1) rotate(0) translate(4 280)">
<title>dependencies</title>
<polygon fill="#ffffff" stroke="transparent" points="-4,4 -4,-280 500,-280 500,4 -4,4"/>
<text text-anchor="start" x="227.0091" y="-42.4" font-family="sans-serif" font-weight="bold" font-size="14.00" fill="#000000">Legend</text>
<polygon fill="#ffffb3" stroke="transparent" points="14,-10 14,-30 34,-30 34,-10 14,-10"/>
<text text-anchor="start" x="37.629" y="-15.4" font-family="sans-serif" font-size="14.00" fill="#000000"> &#160;Declarations</text>
<polygon fill="#8dd3c7" stroke="transparent" points="127,-10 127,-30 147,-30 147,-10 127,-10"/>
<text text-anchor="start" x="150.7251" y="-15.4" font-family="sans-serif" font-size="14.00" fill="#000000"> &#160;Module</text>
<polygon fill="#80b1d3" stroke="transparent" points="213,-10 213,-30 233,-30 233,-10 213,-10"/>
<text text-anchor="start" x="236.7812" y="-15.4" font-family="sans-serif" font-size="14.00" fill="#000000"> &#160;Bootstrap</text>
<polygon fill="#fdb462" stroke="transparent" points="310,-10 310,-30 330,-30 330,-10 310,-10"/>
<text text-anchor="start" x="333.6732" y="-15.4" font-family="sans-serif" font-size="14.00" fill="#000000"> &#160;Providers</text>
<polygon fill="#fb8072" stroke="transparent" points="406,-10 406,-30 426,-30 426,-10 406,-10"/>
<text text-anchor="start" x="429.7258" y="-15.4" font-family="sans-serif" font-size="14.00" fill="#000000"> &#160;Exports</text>
<g id="clust1" class="cluster">
<title>cluster_FeaturesConfigModule</title>
<polygon fill="none" stroke="#000000" stroke-dasharray="1,5" points="93.5,-70 93.5,-268 402.5,-268 402.5,-70 93.5,-70"/>
</g>
<g id="clust2" class="cluster">
<title>cluster_FeaturesConfigModule_declarations</title>
<polygon fill="none" stroke="#000000" points="105.5,-78 105.5,-130 391.5,-130 391.5,-78 105.5,-78"/>
</g>
<g id="clust6" class="cluster">
<title>cluster_FeaturesConfigModule_exports</title>
<polygon fill="none" stroke="#000000" points="101.5,-208 101.5,-260 394.5,-260 394.5,-208 101.5,-208"/>
</g>
<!-- FeatureDirective -->
<g id="node1" class="node">
<title>FeatureDirective</title>
<polygon fill="#ffffb3" stroke="#000000" points="383.5604,-122 273.4396,-122 273.4396,-86 383.5604,-86 383.5604,-122"/>
<text text-anchor="middle" x="328.5" y="-99.8" font-family="Times,serif" font-size="14.00" fill="#000000">FeatureDirective</text>
</g>
<!-- FeaturesConfigModule -->
<g id="node3" class="node">
<title>FeaturesConfigModule</title>
<polygon fill="#8dd3c7" stroke="#000000" points="258.3599,-187 255.3599,-191 234.3599,-191 231.3599,-187 112.6401,-187 112.6401,-151 258.3599,-151 258.3599,-187"/>
<text text-anchor="middle" x="185.5" y="-164.8" font-family="Times,serif" font-size="14.00" fill="#000000">FeaturesConfigModule</text>
</g>
<!-- FeatureDirective&#45;&gt;FeaturesConfigModule -->
<g id="edge1" class="edge">
<title>FeatureDirective&#45;&gt;FeaturesConfigModule</title>
<path fill="none" stroke="#000000" d="M346.8434,-122.0225C346.8434,-139.3734 346.8434,-163 346.8434,-163 346.8434,-163 268.6186,-163 268.6186,-163"/>
<polygon fill="#000000" stroke="#000000" points="268.6186,-159.5001 258.6186,-163 268.6185,-166.5001 268.6186,-159.5001"/>
</g>
<!-- FeatureLevelDirective -->
<g id="node2" class="node">
<title>FeatureLevelDirective</title>
<polygon fill="#ffffb3" stroke="#000000" points="255.4328,-122 113.5672,-122 113.5672,-86 255.4328,-86 255.4328,-122"/>
<text text-anchor="middle" x="184.5" y="-99.8" font-family="Times,serif" font-size="14.00" fill="#000000">FeatureLevelDirective</text>
</g>
<!-- FeatureLevelDirective&#45;&gt;FeaturesConfigModule -->
<g id="edge2" class="edge">
<title>FeatureLevelDirective&#45;&gt;FeaturesConfigModule</title>
<path fill="none" stroke="#000000" d="M184.5,-122.1061C184.5,-122.1061 184.5,-140.991 184.5,-140.991"/>
<polygon fill="#000000" stroke="#000000" points="181.0001,-140.9909 184.5,-150.991 188.0001,-140.991 181.0001,-140.9909"/>
</g>
<!-- FeatureDirective  -->
<g id="node4" class="node">
<title>FeatureDirective </title>
<polygon fill="#fb8072" stroke="#000000" points="386.0612,-252 272.9388,-252 272.9388,-216 386.0612,-216 386.0612,-252"/>
<text text-anchor="middle" x="329.5" y="-229.8" font-family="Times,serif" font-size="14.00" fill="#000000">FeatureDirective </text>
</g>
<!-- FeaturesConfigModule&#45;&gt;FeatureDirective  -->
<g id="edge3" class="edge">
<title>FeaturesConfigModule&#45;&gt;FeatureDirective </title>
<path fill="none" stroke="#000000" stroke-dasharray="5,2" d="M258.3739,-175C285.6532,-175 310.1566,-175 310.1566,-175 310.1566,-175 310.1566,-205.9775 310.1566,-205.9775"/>
<polygon fill="#000000" stroke="#000000" points="306.6567,-205.9774 310.1566,-215.9775 313.6567,-205.9775 306.6567,-205.9774"/>
</g>
<!-- FeatureLevelDirective  -->
<g id="node5" class="node">
<title>FeatureLevelDirective </title>
<polygon fill="#fb8072" stroke="#000000" points="255.4334,-252 109.5666,-252 109.5666,-216 255.4334,-216 255.4334,-252"/>
<text text-anchor="middle" x="182.5" y="-229.8" font-family="Times,serif" font-size="14.00" fill="#000000">FeatureLevelDirective </text>
</g>
<!-- FeaturesConfigModule&#45;&gt;FeatureLevelDirective  -->
<g id="edge4" class="edge">
<title>FeaturesConfigModule&#45;&gt;FeatureLevelDirective </title>
<path fill="none" stroke="#000000" stroke-dasharray="5,2" d="M183.8933,-187.1061C183.8933,-187.1061 183.8933,-205.991 183.8933,-205.991"/>
<polygon fill="#000000" stroke="#000000" points="180.3933,-205.9909 183.8933,-215.991 187.3933,-205.991 180.3933,-205.9909"/>
</g>
</g>
</svg>
