<?xml version="1.0" encoding="UTF-8" standalone="no"?>
<!DOCTYPE svg PUBLIC "-//W3C//DTD SVG 1.1//EN"
 "http://www.w3.org/Graphics/SVG/1.1/DTD/svg11.dtd">
<!-- Generated by graphviz version 2.40.1 (20161225.0304)
 -->
<!-- Title: dependencies Pages: 1 -->
<svg width="504pt" height="211pt"
 viewBox="0.00 0.00 504.00 211.00" xmlns="http://www.w3.org/2000/svg" xmlns:xlink="http://www.w3.org/1999/xlink">
<g id="graph0" class="graph" transform="scale(1 1) rotate(0) translate(4 207)">
<title>dependencies</title>
<polygon fill="#ffffff" stroke="transparent" points="-4,4 -4,-207 500,-207 500,4 -4,4"/>
<text text-anchor="start" x="227.0091" y="-42.4" font-family="sans-serif" font-weight="bold" font-size="14.00" fill="#000000">Legend</text>
<polygon fill="#ffffb3" stroke="transparent" points="14,-10 14,-30 34,-30 34,-10 14,-10"/>
<text text-anchor="start" x="37.629" y="-15.4" font-family="sans-serif" font-size="14.00" fill="#000000"> &#160;Declarations</text>
<polygon fill="#8dd3c7" stroke="transparent" points="127,-10 127,-30 147,-30 147,-10 127,-10"/>
<text text-anchor="start" x="150.7251" y="-15.4" font-family="sans-serif" font-size="14.00" fill="#000000"> &#160;Module</text>
<polygon fill="#80b1d3" stroke="transparent" points="213,-10 213,-30 233,-30 233,-10 213,-10"/>
<text text-anchor="start" x="236.7812" y="-15.4" font-family="sans-serif" font-size="14.00" fill="#000000"> &#160;Bootstrap</text>
<polygon fill="#fdb462" stroke="transparent" points="310,-10 310,-30 330,-30 330,-10 310,-10"/>
<text text-anchor="start" x="333.6732" y="-15.4" font-family="sans-serif" font-size="14.00" fill="#000000"> &#160;Providers</text>
<polygon fill="#fb8072" stroke="transparent" points="406,-10 406,-30 426,-30 426,-10 406,-10"/>
<text text-anchor="start" x="429.7258" y="-15.4" font-family="sans-serif" font-size="14.00" fill="#000000"> &#160;Exports</text>
<g id="clust1" class="cluster">
<title>cluster_UserProfileCoreModule</title>
<polygon fill="none" stroke="#000000" stroke-dasharray="1,5" points="47,-70 47,-195 449,-195 449,-70 47,-70"/>
</g>
<g id="clust6" class="cluster">
<title>cluster_UserProfileCoreModule_providers</title>
<polygon fill="none" stroke="#000000" points="55,-78 55,-130 441,-130 441,-78 55,-78"/>
</g>
<!-- SavedCartService -->
<g id="node1" class="node">
<title>SavedCartService</title>
<ellipse fill="#fdb462" stroke="#000000" cx="353" cy="-104" rx="80.4325" ry="18"/>
<text text-anchor="middle" x="353" y="-99.8" font-family="Times,serif" font-size="14.00" fill="#000000">SavedCartService</text>
</g>
<!-- UserProfileCoreModule -->
<g id="node3" class="node">
<title>UserProfileCoreModule</title>
<polygon fill="#8dd3c7" stroke="#000000" points="331.7879,-187 328.7879,-191 307.7879,-191 304.7879,-187 180.2121,-187 180.2121,-151 331.7879,-151 331.7879,-187"/>
<text text-anchor="middle" x="256" y="-164.8" font-family="Times,serif" font-size="14.00" fill="#000000">UserProfileCoreModule</text>
</g>
<!-- SavedCartService&#45;&gt;UserProfileCoreModule -->
<g id="edge1" class="edge">
<title>SavedCartService&#45;&gt;UserProfileCoreModule</title>
<path fill="none" stroke="#000000" d="M302.2139,-118.104C302.2139,-118.104 302.2139,-140.7209 302.2139,-140.7209"/>
<polygon fill="#000000" stroke="#000000" points="298.714,-140.7209 302.2139,-150.7209 305.714,-140.7209 298.714,-140.7209"/>
</g>
<!-- UserProfileConnector -->
<g id="node2" class="node">
<title>UserProfileConnector</title>
<ellipse fill="#fdb462" stroke="#000000" cx="159" cy="-104" rx="95.5433" ry="18"/>
<text text-anchor="middle" x="159" y="-99.8" font-family="Times,serif" font-size="14.00" fill="#000000">UserProfileConnector</text>
</g>
<!-- UserProfileConnector&#45;&gt;UserProfileCoreModule -->
<g id="edge2" class="edge">
<title>UserProfileConnector&#45;&gt;UserProfileCoreModule</title>
<path fill="none" stroke="#000000" d="M217.5638,-118.4256C217.5638,-118.4256 217.5638,-140.8939 217.5638,-140.8939"/>
<polygon fill="#000000" stroke="#000000" points="214.0639,-140.8938 217.5638,-150.8939 221.0639,-140.8939 214.0639,-140.8938"/>
</g>
</g>
</svg>
