<?xml version="1.0" encoding="UTF-8" standalone="no"?>
<!DOCTYPE svg PUBLIC "-//W3C//DTD SVG 1.1//EN"
 "http://www.w3.org/Graphics/SVG/1.1/DTD/svg11.dtd">
<!-- Generated by graphviz version 2.47.0 (20210316.0004)
 -->
<!-- Title: dependencies Pages: 1 -->
<svg width="504pt" height="211pt"
 viewBox="0.00 0.00 504.00 211.00" xmlns="http://www.w3.org/2000/svg" xmlns:xlink="http://www.w3.org/1999/xlink">
<g id="graph0" class="graph" transform="scale(1 1) rotate(0) translate(4 207)">
<title>dependencies</title>
<polygon fill="white" stroke="transparent" points="-4,4 -4,-207 500,-207 500,4 -4,4"/>
<text text-anchor="start" x="227.01" y="-42.4" font-family="sans-serif" font-weight="bold" font-size="14.00">Legend</text>
<polygon fill="#ffffb3" stroke="transparent" points="14,-10 14,-30 34,-30 34,-10 14,-10"/>
<text text-anchor="start" x="37.63" y="-15.4" font-family="sans-serif" font-size="14.00"> &#160;Declarations</text>
<polygon fill="#8dd3c7" stroke="transparent" points="127,-10 127,-30 147,-30 147,-10 127,-10"/>
<text text-anchor="start" x="150.73" y="-15.4" font-family="sans-serif" font-size="14.00"> &#160;Module</text>
<polygon fill="#80b1d3" stroke="transparent" points="213,-10 213,-30 233,-30 233,-10 213,-10"/>
<text text-anchor="start" x="236.78" y="-15.4" font-family="sans-serif" font-size="14.00"> &#160;Bootstrap</text>
<polygon fill="#fdb462" stroke="transparent" points="310,-10 310,-30 330,-30 330,-10 310,-10"/>
<text text-anchor="start" x="333.67" y="-15.4" font-family="sans-serif" font-size="14.00"> &#160;Providers</text>
<polygon fill="#fb8072" stroke="transparent" points="406,-10 406,-30 426,-30 426,-10 406,-10"/>
<text text-anchor="start" x="429.73" y="-15.4" font-family="sans-serif" font-size="14.00"> &#160;Exports</text>
<g id="clust1" class="cluster">
<title>cluster_UserProfileCoreModule</title>
<polygon fill="none" stroke="black" stroke-dasharray="1,5" points="52,-70 52,-195 444,-195 444,-70 52,-70"/>
</g>
<g id="clust6" class="cluster">
<title>cluster_UserProfileCoreModule_providers</title>
<polygon fill="none" stroke="black" points="60,-78 60,-130 436,-130 436,-78 60,-78"/>
</g>
<!-- CdcAuthService -->
<g id="node1" class="node">
<title>CdcAuthService</title>
<ellipse fill="#fdb462" stroke="black" cx="353" cy="-104" rx="74.72" ry="18"/>
<text text-anchor="middle" x="353" y="-99.8" font-family="Times,serif" font-size="14.00">CdcAuthService</text>
</g>
<!-- UserProfileCoreModule -->
<g id="node3" class="node">
<title>UserProfileCoreModule</title>
<polygon fill="#8dd3c7" stroke="black" points="333.79,-187 330.79,-191 309.79,-191 306.79,-187 182.21,-187 182.21,-151 333.79,-151 333.79,-187"/>
<text text-anchor="middle" x="258" y="-164.8" font-family="Times,serif" font-size="14.00">UserProfileCoreModule</text>
</g>
<!-- CdcAuthService&#45;&gt;UserProfileCoreModule -->
<g id="edge1" class="edge">
<title>CdcAuthService&#45;&gt;UserProfileCoreModule</title>
<path fill="none" stroke="black" d="M305.89,-118.1C305.89,-118.1 305.89,-140.72 305.89,-140.72"/>
<polygon fill="black" stroke="black" points="302.39,-140.72 305.89,-150.72 309.39,-140.72 302.39,-140.72"/>
</g>
<!-- UserProfileConnector -->
<g id="node2" class="node">
<title>UserProfileConnector</title>
<ellipse fill="#fdb462" stroke="black" cx="164" cy="-104" rx="95.54" ry="18"/>
<text text-anchor="middle" x="164" y="-99.8" font-family="Times,serif" font-size="14.00">UserProfileConnector</text>
</g>
<!-- UserProfileConnector&#45;&gt;UserProfileCoreModule -->
<g id="edge2" class="edge">
<title>UserProfileConnector&#45;&gt;UserProfileCoreModule</title>
<path fill="none" stroke="black" d="M221.06,-118.75C221.06,-118.75 221.06,-140.59 221.06,-140.59"/>
<polygon fill="black" stroke="black" points="217.56,-140.59 221.06,-150.59 224.56,-140.59 217.56,-140.59"/>
</g>
</g>
</svg>
