<?xml version="1.0" encoding="UTF-8" standalone="no"?>
<!DOCTYPE svg PUBLIC "-//W3C//DTD SVG 1.1//EN"
 "http://www.w3.org/Graphics/SVG/1.1/DTD/svg11.dtd">
<!-- Generated by graphviz version 2.47.3 (20210619.1520)
 -->
<!-- Title: dependencies Pages: 1 -->
<svg width="907pt" height="174pt"
 viewBox="0.00 0.00 907.00 173.80" xmlns="http://www.w3.org/2000/svg" xmlns:xlink="http://www.w3.org/1999/xlink">
<g id="graph0" class="graph" transform="scale(1 1) rotate(0) translate(4 169.8)">
<title>dependencies</title>
<polygon fill="white" stroke="transparent" points="-4,4 -4,-169.8 903,-169.8 903,4 -4,4"/>
<text text-anchor="middle" x="449.5" y="-8.2" font-family="sans-serif" font-size="14.00">dependencies</text>
<g id="clust1" class="cluster">
<title>cluster_UserProfileCoreModule</title>
<polygon fill="none" stroke="black" stroke-dasharray="1,5" points="8,-32.8 8,-157.8 891,-157.8 891,-32.8 8,-32.8"/>
</g>
<g id="clust6" class="cluster">
<title>cluster_UserProfileCoreModule_providers</title>
<polygon fill="none" stroke="black" points="16,-40.8 16,-92.8 883,-92.8 883,-40.8 16,-40.8"/>
</g>
<!-- OrderReturnRequestService -->
<g id="node1" class="node">
<title>OrderReturnRequestService</title>
<ellipse fill="#fdb462" stroke="black" cx="755" cy="-66.8" rx="119.8" ry="18"/>
<text text-anchor="middle" x="755" y="-62.6" font-family="Times,serif" font-size="14.00">OrderReturnRequestService</text>
</g>
<!-- UserProfileCoreModule -->
<g id="node5" class="node">
<title>UserProfileCoreModule</title>
<polygon fill="#8dd3c7" stroke="black" points="529.79,-149.8 526.79,-153.8 505.79,-153.8 502.79,-149.8 378.21,-149.8 378.21,-113.8 529.79,-113.8 529.79,-149.8"/>
<text text-anchor="middle" x="454" y="-127.6" font-family="Times,serif" font-size="14.00">UserProfileCoreModule</text>
</g>
<!-- OrderReturnRequestService&#45;&gt;UserProfileCoreModule -->
<g id="edge1" class="edge">
<title>OrderReturnRequestService&#45;&gt;UserProfileCoreModule</title>
<path fill="none" stroke="black" d="M755,-84.91C755,-104.14 755,-131.8 755,-131.8 755,-131.8 539.96,-131.8 539.96,-131.8"/>
<polygon fill="black" stroke="black" points="539.96,-128.3 529.96,-131.8 539.95,-135.3 539.96,-128.3"/>
</g>
<!-- OrderService -->
<g id="node2" class="node">
<title>OrderService</title>
<ellipse fill="#fdb462" stroke="black" cx="555" cy="-66.8" rx="62.52" ry="18"/>
<text text-anchor="middle" x="555" y="-62.6" font-family="Times,serif" font-size="14.00">OrderService</text>
</g>
<!-- OrderService&#45;&gt;UserProfileCoreModule -->
<g id="edge2" class="edge">
<title>OrderService&#45;&gt;UserProfileCoreModule</title>
<path fill="none" stroke="black" d="M511.07,-79.64C511.07,-79.64 511.07,-103.32 511.07,-103.32"/>
<polygon fill="black" stroke="black" points="507.57,-103.32 511.07,-113.32 514.57,-103.32 507.57,-103.32"/>
</g>
<!-- ReplenishmentOrderService -->
<g id="node3" class="node">
<title>ReplenishmentOrderService</title>
<ellipse fill="#fdb462" stroke="black" cx="354" cy="-66.8" rx="120.38" ry="18"/>
<text text-anchor="middle" x="354" y="-62.6" font-family="Times,serif" font-size="14.00">ReplenishmentOrderService</text>
</g>
<!-- ReplenishmentOrderService&#45;&gt;UserProfileCoreModule -->
<g id="edge3" class="edge">
<title>ReplenishmentOrderService&#45;&gt;UserProfileCoreModule</title>
<path fill="none" stroke="black" d="M426.4,-81.23C426.4,-81.23 426.4,-103.69 426.4,-103.69"/>
<polygon fill="black" stroke="black" points="422.9,-103.69 426.4,-113.69 429.9,-103.69 422.9,-103.69"/>
</g>
<!-- UserProfileConnector -->
<g id="node4" class="node">
<title>UserProfileConnector</title>
<ellipse fill="#fdb462" stroke="black" cx="120" cy="-66.8" rx="95.54" ry="18"/>
<text text-anchor="middle" x="120" y="-62.6" font-family="Times,serif" font-size="14.00">UserProfileConnector</text>
</g>
<!-- UserProfileConnector&#45;&gt;UserProfileCoreModule -->
<g id="edge4" class="edge">
<title>UserProfileConnector&#45;&gt;UserProfileCoreModule</title>
<path fill="none" stroke="black" d="M120,-84.91C120,-104.14 120,-131.8 120,-131.8 120,-131.8 368.21,-131.8 368.21,-131.8"/>
<polygon fill="black" stroke="black" points="368.21,-135.3 378.21,-131.8 368.21,-128.3 368.21,-135.3"/>
</g>
</g>
</svg>
