<?xml version="1.0" encoding="UTF-8" standalone="no"?>
<!DOCTYPE svg PUBLIC "-//W3C//DTD SVG 1.1//EN"
 "http://www.w3.org/Graphics/SVG/1.1/DTD/svg11.dtd">
<!-- Generated by graphviz version 2.47.3 (20210619.1520)
 -->
<!-- Title: dependencies Pages: 1 -->
<svg width="426pt" height="174pt"
 viewBox="0.00 0.00 426.00 173.80" xmlns="http://www.w3.org/2000/svg" xmlns:xlink="http://www.w3.org/1999/xlink">
<g id="graph0" class="graph" transform="scale(1 1) rotate(0) translate(4 169.8)">
<title>dependencies</title>
<polygon fill="white" stroke="transparent" points="-4,4 -4,-169.8 422,-169.8 422,4 -4,4"/>
<text text-anchor="middle" x="209" y="-8.2" font-family="sans-serif" font-size="14.00">dependencies</text>
<g id="clust1" class="cluster">
<title>cluster_UserProfileCoreModule</title>
<polygon fill="none" stroke="black" stroke-dasharray="1,5" points="8,-32.8 8,-157.8 410,-157.8 410,-32.8 8,-32.8"/>
</g>
<g id="clust6" class="cluster">
<title>cluster_UserProfileCoreModule_providers</title>
<polygon fill="none" stroke="black" points="16,-40.8 16,-92.8 402,-92.8 402,-40.8 16,-40.8"/>
</g>
<!-- SavedCartService -->
<g id="node1" class="node">
<title>SavedCartService</title>
<ellipse fill="#fdb462" stroke="black" cx="314" cy="-66.8" rx="80.43" ry="18"/>
<text text-anchor="middle" x="314" y="-62.6" font-family="Times,serif" font-size="14.00">SavedCartService</text>
</g>
<!-- UserProfileCoreModule -->
<g id="node3" class="node">
<title>UserProfileCoreModule</title>
<polygon fill="#8dd3c7" stroke="black" points="292.79,-149.8 289.79,-153.8 268.79,-153.8 265.79,-149.8 141.21,-149.8 141.21,-113.8 292.79,-113.8 292.79,-149.8"/>
<text text-anchor="middle" x="217" y="-127.6" font-family="Times,serif" font-size="14.00">UserProfileCoreModule</text>
</g>
<!-- SavedCartService&#45;&gt;UserProfileCoreModule -->
<g id="edge1" class="edge">
<title>SavedCartService&#45;&gt;UserProfileCoreModule</title>
<path fill="none" stroke="black" d="M263.21,-80.9C263.21,-80.9 263.21,-103.52 263.21,-103.52"/>
<polygon fill="black" stroke="black" points="259.71,-103.52 263.21,-113.52 266.71,-103.52 259.71,-103.52"/>
</g>
<!-- UserProfileConnector -->
<g id="node2" class="node">
<title>UserProfileConnector</title>
<ellipse fill="#fdb462" stroke="black" cx="120" cy="-66.8" rx="95.54" ry="18"/>
<text text-anchor="middle" x="120" y="-62.6" font-family="Times,serif" font-size="14.00">UserProfileConnector</text>
</g>
<!-- UserProfileConnector&#45;&gt;UserProfileCoreModule -->
<g id="edge2" class="edge">
<title>UserProfileConnector&#45;&gt;UserProfileCoreModule</title>
<path fill="none" stroke="black" d="M178.56,-81.23C178.56,-81.23 178.56,-103.69 178.56,-103.69"/>
<polygon fill="black" stroke="black" points="175.06,-103.69 178.56,-113.69 182.06,-103.69 175.06,-103.69"/>
</g>
</g>
</svg>
