<?xml version="1.0" encoding="UTF-8" standalone="no"?>
<!DOCTYPE svg PUBLIC "-//W3C//DTD SVG 1.1//EN"
 "http://www.w3.org/Graphics/SVG/1.1/DTD/svg11.dtd">
<!-- Generated by graphviz version 2.47.3 (20210619.1520)
 -->
<!-- Title: dependencies Pages: 1 -->
<svg width="1577pt" height="174pt"
 viewBox="0.00 0.00 1577.00 173.80" xmlns="http://www.w3.org/2000/svg" xmlns:xlink="http://www.w3.org/1999/xlink">
<g id="graph0" class="graph" transform="scale(1 1) rotate(0) translate(4 169.8)">
<title>dependencies</title>
<polygon fill="white" stroke="transparent" points="-4,4 -4,-169.8 1573,-169.8 1573,4 -4,4"/>
<text text-anchor="middle" x="784.5" y="-8.2" font-family="sans-serif" font-size="14.00">dependencies</text>
<g id="clust1" class="cluster">
<title>cluster_UserProfileCoreModule</title>
<polygon fill="none" stroke="black" stroke-dasharray="1,5" points="8,-32.8 8,-157.8 1561,-157.8 1561,-32.8 8,-32.8"/>
</g>
<g id="clust6" class="cluster">
<title>cluster_UserProfileCoreModule_providers</title>
<polygon fill="none" stroke="black" points="16,-40.8 16,-92.8 1553,-92.8 1553,-40.8 16,-40.8"/>
</g>
<!-- CheckoutCostCenterService -->
<g id="node1" class="node">
<title>CheckoutCostCenterService</title>
<ellipse fill="#fdb462" stroke="black" cx="1425" cy="-66.8" rx="120.4" ry="18"/>
<text text-anchor="middle" x="1425" y="-62.6" font-family="Times,serif" font-size="14.00">CheckoutCostCenterService</text>
</g>
<!-- UserProfileCoreModule -->
<g id="node8" class="node">
<title>UserProfileCoreModule</title>
<polygon fill="#8dd3c7" stroke="black" points="805.79,-149.8 802.79,-153.8 781.79,-153.8 778.79,-149.8 654.21,-149.8 654.21,-113.8 805.79,-113.8 805.79,-149.8"/>
<text text-anchor="middle" x="730" y="-127.6" font-family="Times,serif" font-size="14.00">UserProfileCoreModule</text>
</g>
<!-- CheckoutCostCenterService&#45;&gt;UserProfileCoreModule -->
<g id="edge1" class="edge">
<title>CheckoutCostCenterService&#45;&gt;UserProfileCoreModule</title>
<path fill="none" stroke="black" d="M1425,-85.09C1425,-107.01 1425,-140.8 1425,-140.8 1425,-140.8 815.7,-140.8 815.7,-140.8"/>
<polygon fill="black" stroke="black" points="815.7,-137.3 805.7,-140.8 815.7,-144.3 815.7,-137.3"/>
</g>
<!-- CheckoutDeliveryService -->
<g id="node2" class="node">
<title>CheckoutDeliveryService</title>
<ellipse fill="#fdb462" stroke="black" cx="1176" cy="-66.8" rx="110.57" ry="18"/>
<text text-anchor="middle" x="1176" y="-62.6" font-family="Times,serif" font-size="14.00">CheckoutDeliveryService</text>
</g>
<!-- CheckoutDeliveryService&#45;&gt;UserProfileCoreModule -->
<g id="edge2" class="edge">
<title>CheckoutDeliveryService&#45;&gt;UserProfileCoreModule</title>
<path fill="none" stroke="black" d="M1176,-84.91C1176,-104.14 1176,-131.8 1176,-131.8 1176,-131.8 815.66,-131.8 815.66,-131.8"/>
<polygon fill="black" stroke="black" points="815.66,-128.3 805.66,-131.8 815.66,-135.3 815.66,-128.3"/>
</g>
<!-- CheckoutPaymentService -->
<g id="node3" class="node">
<title>CheckoutPaymentService</title>
<ellipse fill="#fdb462" stroke="black" cx="936" cy="-66.8" rx="110.6" ry="18"/>
<text text-anchor="middle" x="936" y="-62.6" font-family="Times,serif" font-size="14.00">CheckoutPaymentService</text>
</g>
<!-- CheckoutPaymentService&#45;&gt;UserProfileCoreModule -->
<g id="edge3" class="edge">
<title>CheckoutPaymentService&#45;&gt;UserProfileCoreModule</title>
<path fill="none" stroke="black" d="M936,-84.83C936,-101.2 936,-122.8 936,-122.8 936,-122.8 815.83,-122.8 815.83,-122.8"/>
<polygon fill="black" stroke="black" points="815.83,-119.3 805.83,-122.8 815.83,-126.3 815.83,-119.3"/>
</g>
<!-- CheckoutService -->
<g id="node4" class="node">
<title>CheckoutService</title>
<ellipse fill="#fdb462" stroke="black" cx="730" cy="-66.8" rx="77.01" ry="18"/>
<text text-anchor="middle" x="730" y="-62.6" font-family="Times,serif" font-size="14.00">CheckoutService</text>
</g>
<!-- CheckoutService&#45;&gt;UserProfileCoreModule -->
<g id="edge4" class="edge">
<title>CheckoutService&#45;&gt;UserProfileCoreModule</title>
<path fill="none" stroke="black" d="M730,-84.91C730,-84.91 730,-103.79 730,-103.79"/>
<polygon fill="black" stroke="black" points="726.5,-103.79 730,-113.79 733.5,-103.79 726.5,-103.79"/>
</g>
<!-- ClearCheckoutService -->
<g id="node5" class="node">
<title>ClearCheckoutService</title>
<ellipse fill="#fdb462" stroke="black" cx="537" cy="-66.8" rx="97.83" ry="18"/>
<text text-anchor="middle" x="537" y="-62.6" font-family="Times,serif" font-size="14.00">ClearCheckoutService</text>
</g>
<!-- ClearCheckoutService&#45;&gt;UserProfileCoreModule -->
<g id="edge5" class="edge">
<title>ClearCheckoutService&#45;&gt;UserProfileCoreModule</title>
<path fill="none" stroke="black" d="M537,-84.83C537,-101.2 537,-122.8 537,-122.8 537,-122.8 644.28,-122.8 644.28,-122.8"/>
<polygon fill="black" stroke="black" points="644.28,-126.3 654.28,-122.8 644.28,-119.3 644.28,-126.3"/>
</g>
<!-- PaymentTypeService -->
<g id="node6" class="node">
<title>PaymentTypeService</title>
<ellipse fill="#fdb462" stroke="black" cx="327" cy="-66.8" rx="93.76" ry="18"/>
<text text-anchor="middle" x="327" y="-62.6" font-family="Times,serif" font-size="14.00">PaymentTypeService</text>
</g>
<!-- PaymentTypeService&#45;&gt;UserProfileCoreModule -->
<g id="edge6" class="edge">
<title>PaymentTypeService&#45;&gt;UserProfileCoreModule</title>
<path fill="none" stroke="black" d="M327,-84.91C327,-104.14 327,-131.8 327,-131.8 327,-131.8 644.2,-131.8 644.2,-131.8"/>
<polygon fill="black" stroke="black" points="644.2,-135.3 654.2,-131.8 644.2,-128.3 644.2,-135.3"/>
</g>
<!-- UserProfileConnector -->
<g id="node7" class="node">
<title>UserProfileConnector</title>
<ellipse fill="#fdb462" stroke="black" cx="120" cy="-66.8" rx="95.54" ry="18"/>
<text text-anchor="middle" x="120" y="-62.6" font-family="Times,serif" font-size="14.00">UserProfileConnector</text>
</g>
<!-- UserProfileConnector&#45;&gt;UserProfileCoreModule -->
<g id="edge7" class="edge">
<title>UserProfileConnector&#45;&gt;UserProfileCoreModule</title>
<path fill="none" stroke="black" d="M120,-85.09C120,-107.01 120,-140.8 120,-140.8 120,-140.8 644.28,-140.8 644.28,-140.8"/>
<polygon fill="black" stroke="black" points="644.28,-144.3 654.28,-140.8 644.28,-137.3 644.28,-144.3"/>
</g>
</g>
</svg>
