<?xml version="1.0" encoding="UTF-8" standalone="no"?>
<!DOCTYPE svg PUBLIC "-//W3C//DTD SVG 1.1//EN"
 "http://www.w3.org/Graphics/SVG/1.1/DTD/svg11.dtd">
<!-- Generated by graphviz version 2.47.3 (20210619.1520)
 -->
<!-- Title: dependencies Pages: 1 -->
<svg width="823pt" height="285pt"
 viewBox="0.00 0.00 823.00 285.39" xmlns="http://www.w3.org/2000/svg" xmlns:xlink="http://www.w3.org/1999/xlink">
<g id="graph0" class="graph" transform="scale(1 1) rotate(0) translate(4 281.39)">
<title>dependencies</title>
<polygon fill="white" stroke="transparent" points="-4,4 -4,-281.39 819,-281.39 819,4 -4,4"/>
<text text-anchor="middle" x="407.5" y="-8.2" font-family="sans-serif" font-size="14.00">dependencies</text>
<g id="clust1" class="cluster">
<title>cluster_UserApproverListModule</title>
<polygon fill="none" stroke="black" stroke-dasharray="1,5" points="8,-32.8 8,-269.39 807,-269.39 807,-32.8 8,-32.8"/>
</g>
<g id="clust5" class="cluster">
<title>cluster_UserApproverListModule_imports</title>
<polygon fill="none" stroke="black" points="477,-152.39 477,-204.39 799,-204.39 799,-152.39 477,-152.39"/>
</g>
<g id="clust2" class="cluster">
<title>cluster_UserApproverListModule_declarations</title>
<polygon fill="none" stroke="black" points="16,-152.39 16,-204.39 469,-204.39 469,-152.39 16,-152.39"/>
</g>
<g id="clust3" class="cluster">
<title>cluster_UserApproverListModule_UserApproverListComponent_providers</title>
<polygon fill="none" stroke="black" points="99,-40.8 99,-139.39 639,-139.39 639,-40.8 99,-40.8"/>
</g>
<!-- UserApproverListComponent -->
<g id="node1" class="node">
<title>UserApproverListComponent</title>
<polygon fill="#ffffb3" stroke="black" points="460.68,-196.39 277.32,-196.39 277.32,-160.39 460.68,-160.39 460.68,-196.39"/>
<text text-anchor="middle" x="369" y="-174.19" font-family="Times,serif" font-size="14.00">UserApproverListComponent</text>
</g>
<!-- UserApproverListModule -->
<g id="node3" class="node">
<title>UserApproverListModule</title>
<polygon fill="#8dd3c7" stroke="black" points="617.9,-261.39 614.9,-265.39 593.9,-265.39 590.9,-261.39 456.1,-261.39 456.1,-225.39 617.9,-225.39 617.9,-261.39"/>
<text text-anchor="middle" x="537" y="-239.19" font-family="Times,serif" font-size="14.00">UserApproverListModule</text>
</g>
<!-- UserApproverListComponent&#45;&gt;UserApproverListModule -->
<g id="edge1" class="edge">
<title>UserApproverListComponent&#45;&gt;UserApproverListModule</title>
<path fill="none" stroke="black" d="M460.68,-178.39C468.22,-178.39 473.02,-178.39 473.02,-178.39 473.02,-178.39 473.02,-215.28 473.02,-215.28"/>
<polygon fill="black" stroke="black" points="469.52,-215.28 473.02,-225.28 476.52,-215.28 469.52,-215.28"/>
</g>
<!-- UserAssignedApproverListComponent -->
<g id="node2" class="node">
<title>UserAssignedApproverListComponent</title>
<polygon fill="#ffffb3" stroke="black" points="259.78,-196.39 24.22,-196.39 24.22,-160.39 259.78,-160.39 259.78,-196.39"/>
<text text-anchor="middle" x="142" y="-174.19" font-family="Times,serif" font-size="14.00">UserAssignedApproverListComponent</text>
</g>
<!-- UserAssignedApproverListComponent&#45;&gt;UserApproverListModule -->
<g id="edge3" class="edge">
<title>UserAssignedApproverListComponent&#45;&gt;UserApproverListModule</title>
<path fill="none" stroke="black" d="M142,-196.5C142,-215.73 142,-243.39 142,-243.39 142,-243.39 446.11,-243.39 446.11,-243.39"/>
<polygon fill="black" stroke="black" points="446.11,-246.89 456.11,-243.39 446.11,-239.89 446.11,-246.89"/>
</g>
<!-- {
 &#160;&#160;&#160;provide: ListService, useExisting: UserApproverListService,
} -->
<g id="node4" class="node">
<title>{
 &#160;&#160;&#160;provide: ListService, useExisting: UserApproverListService,
}</title>
<ellipse fill="#fdb462" stroke="black" cx="369" cy="-90.1" rx="262.11" ry="41.09"/>
<text text-anchor="middle" x="369" y="-102.7" font-family="Times,serif" font-size="14.00">{</text>
<text text-anchor="middle" x="369" y="-85.9" font-family="Times,serif" font-size="14.00"> &#160;&#160;&#160;provide: ListService, useExisting: UserApproverListService,</text>
<text text-anchor="middle" x="369" y="-69.1" font-family="Times,serif" font-size="14.00">}</text>
</g>
<!-- {
 &#160;&#160;&#160;provide: ListService, useExisting: UserApproverListService,
}&#45;&gt;UserApproverListComponent -->
<g id="edge2" class="edge">
<title>{
 &#160;&#160;&#160;provide: ListService, useExisting: UserApproverListService,
}&#45;&gt;UserApproverListComponent</title>
<path fill="none" stroke="black" d="M369,-131.4C369,-131.4 369,-150.06 369,-150.06"/>
<polygon fill="black" stroke="black" points="365.5,-150.06 369,-160.06 372.5,-150.06 365.5,-150.06"/>
</g>
<!-- I18nModule -->
<g id="node5" class="node">
<title>I18nModule</title>
<polygon fill="#8dd3c7" stroke="black" points="790.71,-196.39 787.71,-200.39 766.71,-200.39 763.71,-196.39 705.29,-196.39 705.29,-160.39 790.71,-160.39 790.71,-196.39"/>
<text text-anchor="middle" x="748" y="-174.19" font-family="Times,serif" font-size="14.00">I18nModule</text>
</g>
<!-- I18nModule&#45;&gt;UserApproverListModule -->
<g id="edge4" class="edge">
<title>I18nModule&#45;&gt;UserApproverListModule</title>
<path fill="none" stroke="black" d="M748,-196.5C748,-215.73 748,-243.39 748,-243.39 748,-243.39 627.97,-243.39 627.97,-243.39"/>
<polygon fill="black" stroke="black" points="627.97,-239.89 617.97,-243.39 627.97,-246.89 627.97,-239.89"/>
</g>
<!-- ListModule -->
<g id="node6" class="node">
<title>ListModule</title>
<polygon fill="#8dd3c7" stroke="black" points="687.83,-196.39 684.83,-200.39 663.83,-200.39 660.83,-196.39 606.17,-196.39 606.17,-160.39 687.83,-160.39 687.83,-196.39"/>
<text text-anchor="middle" x="647" y="-174.19" font-family="Times,serif" font-size="14.00">ListModule</text>
</g>
<!-- ListModule&#45;&gt;UserApproverListModule -->
<g id="edge5" class="edge">
<title>ListModule&#45;&gt;UserApproverListModule</title>
<path fill="none" stroke="black" d="M612.02,-196.5C612.02,-196.5 612.02,-215.38 612.02,-215.38"/>
<polygon fill="black" stroke="black" points="608.52,-215.38 612.02,-225.38 615.52,-215.38 608.52,-215.38"/>
</g>
<!-- SubListModule -->
<g id="node7" class="node">
<title>SubListModule</title>
<polygon fill="#8dd3c7" stroke="black" points="588.61,-196.39 585.61,-200.39 564.61,-200.39 561.61,-196.39 485.39,-196.39 485.39,-160.39 588.61,-160.39 588.61,-196.39"/>
<text text-anchor="middle" x="537" y="-174.19" font-family="Times,serif" font-size="14.00">SubListModule</text>
</g>
<!-- SubListModule&#45;&gt;UserApproverListModule -->
<g id="edge6" class="edge">
<title>SubListModule&#45;&gt;UserApproverListModule</title>
<path fill="none" stroke="black" d="M537,-196.5C537,-196.5 537,-215.38 537,-215.38"/>
<polygon fill="black" stroke="black" points="533.5,-215.38 537,-225.38 540.5,-215.38 533.5,-215.38"/>
</g>
</g>
</svg>
