<?xml version="1.0" encoding="UTF-8" standalone="no"?>
<!DOCTYPE svg PUBLIC "-//W3C//DTD SVG 1.1//EN"
 "http://www.w3.org/Graphics/SVG/1.1/DTD/svg11.dtd">
<!-- Generated by graphviz version 2.47.0 (20210316.0004)
 -->
<!-- Title: dependencies Pages: 1 -->
<svg width="823pt" height="323pt"
 viewBox="0.00 0.00 823.00 322.59" xmlns="http://www.w3.org/2000/svg" xmlns:xlink="http://www.w3.org/1999/xlink">
<g id="graph0" class="graph" transform="scale(1 1) rotate(0) translate(4 318.59)">
<title>dependencies</title>
<polygon fill="white" stroke="transparent" points="-4,4 -4,-318.59 819,-318.59 819,4 -4,4"/>
<text text-anchor="start" x="386.51" y="-42.4" font-family="sans-serif" font-weight="bold" font-size="14.00">Legend</text>
<polygon fill="#ffffb3" stroke="transparent" points="173.5,-10 173.5,-30 193.5,-30 193.5,-10 173.5,-10"/>
<text text-anchor="start" x="197.13" y="-15.4" font-family="sans-serif" font-size="14.00"> &#160;Declarations</text>
<polygon fill="#8dd3c7" stroke="transparent" points="286.5,-10 286.5,-30 306.5,-30 306.5,-10 286.5,-10"/>
<text text-anchor="start" x="310.23" y="-15.4" font-family="sans-serif" font-size="14.00"> &#160;Module</text>
<polygon fill="#80b1d3" stroke="transparent" points="372.5,-10 372.5,-30 392.5,-30 392.5,-10 372.5,-10"/>
<text text-anchor="start" x="396.28" y="-15.4" font-family="sans-serif" font-size="14.00"> &#160;Bootstrap</text>
<polygon fill="#fdb462" stroke="transparent" points="469.5,-10 469.5,-30 489.5,-30 489.5,-10 469.5,-10"/>
<text text-anchor="start" x="493.17" y="-15.4" font-family="sans-serif" font-size="14.00"> &#160;Providers</text>
<polygon fill="#fb8072" stroke="transparent" points="565.5,-10 565.5,-30 585.5,-30 585.5,-10 565.5,-10"/>
<text text-anchor="start" x="589.23" y="-15.4" font-family="sans-serif" font-size="14.00"> &#160;Exports</text>
<g id="clust1" class="cluster">
<title>cluster_UserApproverListModule</title>
<polygon fill="none" stroke="black" stroke-dasharray="1,5" points="8,-70 8,-306.59 807,-306.59 807,-70 8,-70"/>
</g>
<g id="clust2" class="cluster">
<title>cluster_UserApproverListModule_declarations</title>
<polygon fill="none" stroke="black" points="16,-189.59 16,-241.59 469,-241.59 469,-189.59 16,-189.59"/>
</g>
<g id="clust5" class="cluster">
<title>cluster_UserApproverListModule_imports</title>
<polygon fill="none" stroke="black" points="477,-189.59 477,-241.59 799,-241.59 799,-189.59 477,-189.59"/>
</g>
<g id="clust3" class="cluster">
<title>cluster_UserApproverListModule_UserApproverListComponent_providers</title>
<polygon fill="none" stroke="black" points="99,-78 99,-176.59 639,-176.59 639,-78 99,-78"/>
</g>
<!-- UserApproverListComponent -->
<g id="node1" class="node">
<title>UserApproverListComponent</title>
<polygon fill="#ffffb3" stroke="black" points="460.68,-233.59 277.32,-233.59 277.32,-197.59 460.68,-197.59 460.68,-233.59"/>
<text text-anchor="middle" x="369" y="-211.39" font-family="Times,serif" font-size="14.00">UserApproverListComponent</text>
</g>
<!-- UserApproverListModule -->
<g id="node3" class="node">
<title>UserApproverListModule</title>
<polygon fill="#8dd3c7" stroke="black" points="617.9,-298.59 614.9,-302.59 593.9,-302.59 590.9,-298.59 456.1,-298.59 456.1,-262.59 617.9,-262.59 617.9,-298.59"/>
<text text-anchor="middle" x="537" y="-276.39" font-family="Times,serif" font-size="14.00">UserApproverListModule</text>
</g>
<!-- UserApproverListComponent&#45;&gt;UserApproverListModule -->
<g id="edge1" class="edge">
<title>UserApproverListComponent&#45;&gt;UserApproverListModule</title>
<path fill="none" stroke="black" d="M460.68,-215.59C468.22,-215.59 473.02,-215.59 473.02,-215.59 473.02,-215.59 473.02,-252.48 473.02,-252.48"/>
<polygon fill="black" stroke="black" points="469.52,-252.48 473.02,-262.48 476.52,-252.48 469.52,-252.48"/>
</g>
<!-- UserAssignedApproverListComponent -->
<g id="node2" class="node">
<title>UserAssignedApproverListComponent</title>
<polygon fill="#ffffb3" stroke="black" points="259.78,-233.59 24.22,-233.59 24.22,-197.59 259.78,-197.59 259.78,-233.59"/>
<text text-anchor="middle" x="142" y="-211.39" font-family="Times,serif" font-size="14.00">UserAssignedApproverListComponent</text>
</g>
<!-- UserAssignedApproverListComponent&#45;&gt;UserApproverListModule -->
<g id="edge3" class="edge">
<title>UserAssignedApproverListComponent&#45;&gt;UserApproverListModule</title>
<path fill="none" stroke="black" d="M142,-233.7C142,-252.93 142,-280.59 142,-280.59 142,-280.59 446.11,-280.59 446.11,-280.59"/>
<polygon fill="black" stroke="black" points="446.11,-284.09 456.11,-280.59 446.11,-277.09 446.11,-284.09"/>
</g>
<!-- {
 &#160;&#160;&#160;provide: ListService, useExisting: UserApproverListService,
} -->
<g id="node4" class="node">
<title>{
 &#160;&#160;&#160;provide: ListService, useExisting: UserApproverListService,
}</title>
<ellipse fill="#fdb462" stroke="black" cx="369" cy="-127.3" rx="262.11" ry="41.09"/>
<text text-anchor="middle" x="369" y="-139.9" font-family="Times,serif" font-size="14.00">{</text>
<text text-anchor="middle" x="369" y="-123.1" font-family="Times,serif" font-size="14.00"> &#160;&#160;&#160;provide: ListService, useExisting: UserApproverListService,</text>
<text text-anchor="middle" x="369" y="-106.3" font-family="Times,serif" font-size="14.00">}</text>
</g>
<!-- {
 &#160;&#160;&#160;provide: ListService, useExisting: UserApproverListService,
}&#45;&gt;UserApproverListComponent -->
<g id="edge2" class="edge">
<title>{
 &#160;&#160;&#160;provide: ListService, useExisting: UserApproverListService,
}&#45;&gt;UserApproverListComponent</title>
<path fill="none" stroke="black" d="M369,-168.6C369,-168.6 369,-187.26 369,-187.26"/>
<polygon fill="black" stroke="black" points="365.5,-187.26 369,-197.26 372.5,-187.26 365.5,-187.26"/>
</g>
<!-- I18nModule -->
<g id="node5" class="node">
<title>I18nModule</title>
<polygon fill="#8dd3c7" stroke="black" points="790.71,-233.59 787.71,-237.59 766.71,-237.59 763.71,-233.59 705.29,-233.59 705.29,-197.59 790.71,-197.59 790.71,-233.59"/>
<text text-anchor="middle" x="748" y="-211.39" font-family="Times,serif" font-size="14.00">I18nModule</text>
</g>
<!-- I18nModule&#45;&gt;UserApproverListModule -->
<g id="edge4" class="edge">
<title>I18nModule&#45;&gt;UserApproverListModule</title>
<path fill="none" stroke="black" d="M748,-233.7C748,-252.93 748,-280.59 748,-280.59 748,-280.59 627.97,-280.59 627.97,-280.59"/>
<polygon fill="black" stroke="black" points="627.97,-277.09 617.97,-280.59 627.97,-284.09 627.97,-277.09"/>
</g>
<!-- ListModule -->
<g id="node6" class="node">
<title>ListModule</title>
<polygon fill="#8dd3c7" stroke="black" points="687.83,-233.59 684.83,-237.59 663.83,-237.59 660.83,-233.59 606.17,-233.59 606.17,-197.59 687.83,-197.59 687.83,-233.59"/>
<text text-anchor="middle" x="647" y="-211.39" font-family="Times,serif" font-size="14.00">ListModule</text>
</g>
<!-- ListModule&#45;&gt;UserApproverListModule -->
<g id="edge5" class="edge">
<title>ListModule&#45;&gt;UserApproverListModule</title>
<path fill="none" stroke="black" d="M612.02,-233.7C612.02,-233.7 612.02,-252.58 612.02,-252.58"/>
<polygon fill="black" stroke="black" points="608.52,-252.58 612.02,-262.58 615.52,-252.58 608.52,-252.58"/>
</g>
<!-- SubListModule -->
<g id="node7" class="node">
<title>SubListModule</title>
<polygon fill="#8dd3c7" stroke="black" points="588.61,-233.59 585.61,-237.59 564.61,-237.59 561.61,-233.59 485.39,-233.59 485.39,-197.59 588.61,-197.59 588.61,-233.59"/>
<text text-anchor="middle" x="537" y="-211.39" font-family="Times,serif" font-size="14.00">SubListModule</text>
</g>
<!-- SubListModule&#45;&gt;UserApproverListModule -->
<g id="edge6" class="edge">
<title>SubListModule&#45;&gt;UserApproverListModule</title>
<path fill="none" stroke="black" d="M537,-233.7C537,-233.7 537,-252.58 537,-252.58"/>
<polygon fill="black" stroke="black" points="533.5,-252.58 537,-262.58 540.5,-252.58 533.5,-252.58"/>
</g>
</g>
</svg>
