<?xml version="1.0" encoding="UTF-8" standalone="no"?>
<!DOCTYPE svg PUBLIC "-//W3C//DTD SVG 1.1//EN"
 "http://www.w3.org/Graphics/SVG/1.1/DTD/svg11.dtd">
<!-- Generated by graphviz version 2.47.0 (20210316.0004)
 -->
<!-- Title: dependencies Pages: 1 -->
<svg width="1170pt" height="323pt"
 viewBox="0.00 0.00 1170.00 322.59" xmlns="http://www.w3.org/2000/svg" xmlns:xlink="http://www.w3.org/1999/xlink">
<g id="graph0" class="graph" transform="scale(1 1) rotate(0) translate(4 318.59)">
<title>dependencies</title>
<polygon fill="white" stroke="transparent" points="-4,4 -4,-318.59 1166,-318.59 1166,4 -4,4"/>
<text text-anchor="start" x="560.01" y="-42.4" font-family="sans-serif" font-weight="bold" font-size="14.00">Legend</text>
<polygon fill="#ffffb3" stroke="transparent" points="347,-10 347,-30 367,-30 367,-10 347,-10"/>
<text text-anchor="start" x="370.63" y="-15.4" font-family="sans-serif" font-size="14.00"> &#160;Declarations</text>
<polygon fill="#8dd3c7" stroke="transparent" points="460,-10 460,-30 480,-30 480,-10 460,-10"/>
<text text-anchor="start" x="483.73" y="-15.4" font-family="sans-serif" font-size="14.00"> &#160;Module</text>
<polygon fill="#80b1d3" stroke="transparent" points="546,-10 546,-30 566,-30 566,-10 546,-10"/>
<text text-anchor="start" x="569.78" y="-15.4" font-family="sans-serif" font-size="14.00"> &#160;Bootstrap</text>
<polygon fill="#fdb462" stroke="transparent" points="643,-10 643,-30 663,-30 663,-10 643,-10"/>
<text text-anchor="start" x="666.67" y="-15.4" font-family="sans-serif" font-size="14.00"> &#160;Providers</text>
<polygon fill="#fb8072" stroke="transparent" points="739,-10 739,-30 759,-30 759,-10 739,-10"/>
<text text-anchor="start" x="762.73" y="-15.4" font-family="sans-serif" font-size="14.00"> &#160;Exports</text>
<g id="clust1" class="cluster">
<title>cluster_UserApproverListModule</title>
<polygon fill="none" stroke="black" stroke-dasharray="1,5" points="8,-70 8,-306.59 1154,-306.59 1154,-70 8,-70"/>
</g>
<g id="clust5" class="cluster">
<title>cluster_UserApproverListModule_imports</title>
<polygon fill="none" stroke="black" points="824,-189.59 824,-241.59 1146,-241.59 1146,-189.59 824,-189.59"/>
</g>
<g id="clust3" class="cluster">
<title>cluster_UserApproverListModule_UserApproverListComponent_providers</title>
<polygon fill="none" stroke="black" points="276,-78 276,-241.59 816,-241.59 816,-78 276,-78"/>
</g>
<g id="clust2" class="cluster">
<title>cluster_UserApproverListModule_declarations</title>
<polygon fill="none" stroke="black" points="16,-189.59 16,-241.59 268,-241.59 268,-189.59 16,-189.59"/>
</g>
<!-- UserApproverListComponent -->
<g id="node1" class="node">
<title>UserApproverListComponent</title>
<polygon fill="#ffffb3" stroke="black" points="722.68,-233.59 539.32,-233.59 539.32,-197.59 722.68,-197.59 722.68,-233.59"/>
<text text-anchor="middle" x="631" y="-211.39" font-family="Times,serif" font-size="14.00">UserApproverListComponent</text>
</g>
<!-- UserApproverListModule -->
<g id="node3" class="node">
<title>UserApproverListModule</title>
<polygon fill="#8dd3c7" stroke="black" points="964.9,-298.59 961.9,-302.59 940.9,-302.59 937.9,-298.59 803.1,-298.59 803.1,-262.59 964.9,-262.59 964.9,-298.59"/>
<text text-anchor="middle" x="884" y="-276.39" font-family="Times,serif" font-size="14.00">UserApproverListModule</text>
</g>
<!-- UserApproverListComponent&#45;&gt;UserApproverListModule -->
<g id="edge1" class="edge">
<title>UserApproverListComponent&#45;&gt;UserApproverListModule</title>
<path fill="none" stroke="black" d="M722.64,-215.59C770.98,-215.59 820.38,-215.59 820.38,-215.59 820.38,-215.59 820.38,-252.48 820.38,-252.48"/>
<polygon fill="black" stroke="black" points="816.88,-252.48 820.38,-262.48 823.88,-252.48 816.88,-252.48"/>
</g>
<!-- UserAssignedApproverListComponent -->
<g id="node2" class="node">
<title>UserAssignedApproverListComponent</title>
<polygon fill="#ffffb3" stroke="black" points="259.78,-233.59 24.22,-233.59 24.22,-197.59 259.78,-197.59 259.78,-233.59"/>
<text text-anchor="middle" x="142" y="-211.39" font-family="Times,serif" font-size="14.00">UserAssignedApproverListComponent</text>
</g>
<!-- UserAssignedApproverListComponent&#45;&gt;UserApproverListModule -->
<g id="edge3" class="edge">
<title>UserAssignedApproverListComponent&#45;&gt;UserApproverListModule</title>
<path fill="none" stroke="black" d="M142,-233.7C142,-252.93 142,-280.59 142,-280.59 142,-280.59 793.18,-280.59 793.18,-280.59"/>
<polygon fill="black" stroke="black" points="793.18,-284.09 803.18,-280.59 793.18,-277.09 793.18,-284.09"/>
</g>
<!-- {
 &#160;&#160;&#160;provide: ListService, useExisting: UserApproverListService,
} -->
<g id="node4" class="node">
<title>{
 &#160;&#160;&#160;provide: ListService, useExisting: UserApproverListService,
}</title>
<ellipse fill="#fdb462" stroke="black" cx="546" cy="-127.3" rx="262.11" ry="41.09"/>
<text text-anchor="middle" x="546" y="-139.9" font-family="Times,serif" font-size="14.00">{</text>
<text text-anchor="middle" x="546" y="-123.1" font-family="Times,serif" font-size="14.00"> &#160;&#160;&#160;provide: ListService, useExisting: UserApproverListService,</text>
<text text-anchor="middle" x="546" y="-106.3" font-family="Times,serif" font-size="14.00">}</text>
</g>
<!-- {
 &#160;&#160;&#160;provide: ListService, useExisting: UserApproverListService,
}&#45;&gt;UserApproverListComponent -->
<g id="edge2" class="edge">
<title>{
 &#160;&#160;&#160;provide: ListService, useExisting: UserApproverListService,
}&#45;&gt;UserApproverListComponent</title>
<path fill="none" stroke="black" d="M631,-166.54C631,-166.54 631,-187.21 631,-187.21"/>
<polygon fill="black" stroke="black" points="627.5,-187.21 631,-197.21 634.5,-187.21 627.5,-187.21"/>
</g>
<!-- I18nModule -->
<g id="node5" class="node">
<title>I18nModule</title>
<polygon fill="#8dd3c7" stroke="black" points="1137.71,-233.59 1134.71,-237.59 1113.71,-237.59 1110.71,-233.59 1052.29,-233.59 1052.29,-197.59 1137.71,-197.59 1137.71,-233.59"/>
<text text-anchor="middle" x="1095" y="-211.39" font-family="Times,serif" font-size="14.00">I18nModule</text>
</g>
<!-- I18nModule&#45;&gt;UserApproverListModule -->
<g id="edge4" class="edge">
<title>I18nModule&#45;&gt;UserApproverListModule</title>
<path fill="none" stroke="black" d="M1095,-233.7C1095,-252.93 1095,-280.59 1095,-280.59 1095,-280.59 974.97,-280.59 974.97,-280.59"/>
<polygon fill="black" stroke="black" points="974.97,-277.09 964.97,-280.59 974.97,-284.09 974.97,-277.09"/>
</g>
<!-- ListModule -->
<g id="node6" class="node">
<title>ListModule</title>
<polygon fill="#8dd3c7" stroke="black" points="1034.83,-233.59 1031.83,-237.59 1010.83,-237.59 1007.83,-233.59 953.17,-233.59 953.17,-197.59 1034.83,-197.59 1034.83,-233.59"/>
<text text-anchor="middle" x="994" y="-211.39" font-family="Times,serif" font-size="14.00">ListModule</text>
</g>
<!-- ListModule&#45;&gt;UserApproverListModule -->
<g id="edge5" class="edge">
<title>ListModule&#45;&gt;UserApproverListModule</title>
<path fill="none" stroke="black" d="M959.02,-233.7C959.02,-233.7 959.02,-252.58 959.02,-252.58"/>
<polygon fill="black" stroke="black" points="955.52,-252.58 959.02,-262.58 962.52,-252.58 955.52,-252.58"/>
</g>
<!-- SubListModule -->
<g id="node7" class="node">
<title>SubListModule</title>
<polygon fill="#8dd3c7" stroke="black" points="935.61,-233.59 932.61,-237.59 911.61,-237.59 908.61,-233.59 832.39,-233.59 832.39,-197.59 935.61,-197.59 935.61,-233.59"/>
<text text-anchor="middle" x="884" y="-211.39" font-family="Times,serif" font-size="14.00">SubListModule</text>
</g>
<!-- SubListModule&#45;&gt;UserApproverListModule -->
<g id="edge6" class="edge">
<title>SubListModule&#45;&gt;UserApproverListModule</title>
<path fill="none" stroke="black" d="M884,-233.7C884,-233.7 884,-252.58 884,-252.58"/>
<polygon fill="black" stroke="black" points="880.5,-252.58 884,-262.58 887.5,-252.58 880.5,-252.58"/>
</g>
</g>
</svg>
