<?xml version="1.0" encoding="UTF-8" standalone="no"?>
<!DOCTYPE svg PUBLIC "-//W3C//DTD SVG 1.1//EN"
 "http://www.w3.org/Graphics/SVG/1.1/DTD/svg11.dtd">
<!-- Generated by graphviz version 2.47.3 (20210619.1520)
 -->
<!-- Title: dependencies Pages: 1 -->
<svg width="1170pt" height="285pt"
 viewBox="0.00 0.00 1170.00 285.39" xmlns="http://www.w3.org/2000/svg" xmlns:xlink="http://www.w3.org/1999/xlink">
<g id="graph0" class="graph" transform="scale(1 1) rotate(0) translate(4 281.39)">
<title>dependencies</title>
<polygon fill="white" stroke="transparent" points="-4,4 -4,-281.39 1166,-281.39 1166,4 -4,4"/>
<text text-anchor="middle" x="581" y="-8.2" font-family="sans-serif" font-size="14.00">dependencies</text>
<g id="clust1" class="cluster">
<title>cluster_UserApproverListModule</title>
<polygon fill="none" stroke="black" stroke-dasharray="1,5" points="8,-32.8 8,-269.39 1154,-269.39 1154,-32.8 8,-32.8"/>
</g>
<g id="clust5" class="cluster">
<title>cluster_UserApproverListModule_imports</title>
<polygon fill="none" stroke="black" points="824,-152.39 824,-204.39 1146,-204.39 1146,-152.39 824,-152.39"/>
</g>
<g id="clust3" class="cluster">
<title>cluster_UserApproverListModule_UserApproverListComponent_providers</title>
<polygon fill="none" stroke="black" points="276,-40.8 276,-204.39 816,-204.39 816,-40.8 276,-40.8"/>
</g>
<g id="clust2" class="cluster">
<title>cluster_UserApproverListModule_declarations</title>
<polygon fill="none" stroke="black" points="16,-152.39 16,-204.39 268,-204.39 268,-152.39 16,-152.39"/>
</g>
<!-- UserApproverListComponent -->
<g id="node1" class="node">
<title>UserApproverListComponent</title>
<polygon fill="#ffffb3" stroke="black" points="722.68,-196.39 539.32,-196.39 539.32,-160.39 722.68,-160.39 722.68,-196.39"/>
<text text-anchor="middle" x="631" y="-174.19" font-family="Times,serif" font-size="14.00">UserApproverListComponent</text>
</g>
<!-- UserApproverListModule -->
<g id="node3" class="node">
<title>UserApproverListModule</title>
<polygon fill="#8dd3c7" stroke="black" points="964.9,-261.39 961.9,-265.39 940.9,-265.39 937.9,-261.39 803.1,-261.39 803.1,-225.39 964.9,-225.39 964.9,-261.39"/>
<text text-anchor="middle" x="884" y="-239.19" font-family="Times,serif" font-size="14.00">UserApproverListModule</text>
</g>
<!-- UserApproverListComponent&#45;&gt;UserApproverListModule -->
<g id="edge1" class="edge">
<title>UserApproverListComponent&#45;&gt;UserApproverListModule</title>
<path fill="none" stroke="black" d="M722.64,-178.39C770.98,-178.39 820.38,-178.39 820.38,-178.39 820.38,-178.39 820.38,-215.28 820.38,-215.28"/>
<polygon fill="black" stroke="black" points="816.88,-215.28 820.38,-225.28 823.88,-215.28 816.88,-215.28"/>
</g>
<!-- UserAssignedApproverListComponent -->
<g id="node2" class="node">
<title>UserAssignedApproverListComponent</title>
<polygon fill="#ffffb3" stroke="black" points="259.78,-196.39 24.22,-196.39 24.22,-160.39 259.78,-160.39 259.78,-196.39"/>
<text text-anchor="middle" x="142" y="-174.19" font-family="Times,serif" font-size="14.00">UserAssignedApproverListComponent</text>
</g>
<!-- UserAssignedApproverListComponent&#45;&gt;UserApproverListModule -->
<g id="edge3" class="edge">
<title>UserAssignedApproverListComponent&#45;&gt;UserApproverListModule</title>
<path fill="none" stroke="black" d="M142,-196.5C142,-215.73 142,-243.39 142,-243.39 142,-243.39 793.18,-243.39 793.18,-243.39"/>
<polygon fill="black" stroke="black" points="793.18,-246.89 803.18,-243.39 793.18,-239.89 793.18,-246.89"/>
</g>
<!-- {
 &#160;&#160;&#160;provide: ListService, useExisting: UserApproverListService,
} -->
<g id="node4" class="node">
<title>{
 &#160;&#160;&#160;provide: ListService, useExisting: UserApproverListService,
}</title>
<ellipse fill="#fdb462" stroke="black" cx="546" cy="-90.1" rx="262.11" ry="41.09"/>
<text text-anchor="middle" x="546" y="-102.7" font-family="Times,serif" font-size="14.00">{</text>
<text text-anchor="middle" x="546" y="-85.9" font-family="Times,serif" font-size="14.00"> &#160;&#160;&#160;provide: ListService, useExisting: UserApproverListService,</text>
<text text-anchor="middle" x="546" y="-69.1" font-family="Times,serif" font-size="14.00">}</text>
</g>
<!-- {
 &#160;&#160;&#160;provide: ListService, useExisting: UserApproverListService,
}&#45;&gt;UserApproverListComponent -->
<g id="edge2" class="edge">
<title>{
 &#160;&#160;&#160;provide: ListService, useExisting: UserApproverListService,
}&#45;&gt;UserApproverListComponent</title>
<path fill="none" stroke="black" d="M631,-129.34C631,-129.34 631,-150.01 631,-150.01"/>
<polygon fill="black" stroke="black" points="627.5,-150.01 631,-160.01 634.5,-150.01 627.5,-150.01"/>
</g>
<!-- I18nModule -->
<g id="node5" class="node">
<title>I18nModule</title>
<polygon fill="#8dd3c7" stroke="black" points="1137.71,-196.39 1134.71,-200.39 1113.71,-200.39 1110.71,-196.39 1052.29,-196.39 1052.29,-160.39 1137.71,-160.39 1137.71,-196.39"/>
<text text-anchor="middle" x="1095" y="-174.19" font-family="Times,serif" font-size="14.00">I18nModule</text>
</g>
<!-- I18nModule&#45;&gt;UserApproverListModule -->
<g id="edge4" class="edge">
<title>I18nModule&#45;&gt;UserApproverListModule</title>
<path fill="none" stroke="black" d="M1095,-196.5C1095,-215.73 1095,-243.39 1095,-243.39 1095,-243.39 974.97,-243.39 974.97,-243.39"/>
<polygon fill="black" stroke="black" points="974.97,-239.89 964.97,-243.39 974.97,-246.89 974.97,-239.89"/>
</g>
<!-- ListModule -->
<g id="node6" class="node">
<title>ListModule</title>
<polygon fill="#8dd3c7" stroke="black" points="1034.83,-196.39 1031.83,-200.39 1010.83,-200.39 1007.83,-196.39 953.17,-196.39 953.17,-160.39 1034.83,-160.39 1034.83,-196.39"/>
<text text-anchor="middle" x="994" y="-174.19" font-family="Times,serif" font-size="14.00">ListModule</text>
</g>
<!-- ListModule&#45;&gt;UserApproverListModule -->
<g id="edge5" class="edge">
<title>ListModule&#45;&gt;UserApproverListModule</title>
<path fill="none" stroke="black" d="M959.02,-196.5C959.02,-196.5 959.02,-215.38 959.02,-215.38"/>
<polygon fill="black" stroke="black" points="955.52,-215.38 959.02,-225.38 962.52,-215.38 955.52,-215.38"/>
</g>
<!-- SubListModule -->
<g id="node7" class="node">
<title>SubListModule</title>
<polygon fill="#8dd3c7" stroke="black" points="935.61,-196.39 932.61,-200.39 911.61,-200.39 908.61,-196.39 832.39,-196.39 832.39,-160.39 935.61,-160.39 935.61,-196.39"/>
<text text-anchor="middle" x="884" y="-174.19" font-family="Times,serif" font-size="14.00">SubListModule</text>
</g>
<!-- SubListModule&#45;&gt;UserApproverListModule -->
<g id="edge6" class="edge">
<title>SubListModule&#45;&gt;UserApproverListModule</title>
<path fill="none" stroke="black" d="M884,-196.5C884,-196.5 884,-215.38 884,-215.38"/>
<polygon fill="black" stroke="black" points="880.5,-215.38 884,-225.38 887.5,-215.38 880.5,-215.38"/>
</g>
</g>
</svg>
