<?xml version="1.0" encoding="UTF-8" standalone="no"?>
<!DOCTYPE svg PUBLIC "-//W3C//DTD SVG 1.1//EN"
 "http://www.w3.org/Graphics/SVG/1.1/DTD/svg11.dtd">
<!-- Generated by graphviz version 2.47.3 (20210619.1520)
 -->
<!-- Title: dependencies Pages: 1 -->
<svg width="823pt" height="174pt"
 viewBox="0.00 0.00 823.00 173.80" xmlns="http://www.w3.org/2000/svg" xmlns:xlink="http://www.w3.org/1999/xlink">
<g id="graph0" class="graph" transform="scale(1 1) rotate(0) translate(4 169.8)">
<title>dependencies</title>
<polygon fill="white" stroke="transparent" points="-4,4 -4,-169.8 819,-169.8 819,4 -4,4"/>
<text text-anchor="middle" x="407.5" y="-8.2" font-family="sans-serif" font-size="14.00">dependencies</text>
<g id="clust1" class="cluster">
<title>cluster_UserApproverListModule</title>
<polygon fill="none" stroke="black" stroke-dasharray="1,5" points="8,-32.8 8,-157.8 807,-157.8 807,-32.8 8,-32.8"/>
</g>
<g id="clust2" class="cluster">
<title>cluster_UserApproverListModule_declarations</title>
<polygon fill="none" stroke="black" points="346,-40.8 346,-92.8 799,-92.8 799,-40.8 346,-40.8"/>
</g>
<g id="clust5" class="cluster">
<title>cluster_UserApproverListModule_imports</title>
<polygon fill="none" stroke="black" points="16,-40.8 16,-92.8 338,-92.8 338,-40.8 16,-40.8"/>
</g>
<!-- UserApproverListComponent -->
<g id="node1" class="node">
<title>UserApproverListComponent</title>
<polygon fill="#ffffb3" stroke="black" points="790.68,-84.8 607.32,-84.8 607.32,-48.8 790.68,-48.8 790.68,-84.8"/>
<text text-anchor="middle" x="699" y="-62.6" font-family="Times,serif" font-size="14.00">UserApproverListComponent</text>
</g>
<!-- UserApproverListModule -->
<g id="node3" class="node">
<title>UserApproverListModule</title>
<polygon fill="#8dd3c7" stroke="black" points="367.9,-149.8 364.9,-153.8 343.9,-153.8 340.9,-149.8 206.1,-149.8 206.1,-113.8 367.9,-113.8 367.9,-149.8"/>
<text text-anchor="middle" x="287" y="-127.6" font-family="Times,serif" font-size="14.00">UserApproverListModule</text>
</g>
<!-- UserApproverListComponent&#45;&gt;UserApproverListModule -->
<g id="edge1" class="edge">
<title>UserApproverListComponent&#45;&gt;UserApproverListModule</title>
<path fill="none" stroke="black" d="M699,-84.91C699,-104.14 699,-131.8 699,-131.8 699,-131.8 377.91,-131.8 377.91,-131.8"/>
<polygon fill="black" stroke="black" points="377.91,-128.3 367.91,-131.8 377.91,-135.3 377.91,-128.3"/>
</g>
<!-- UserAssignedApproverListComponent -->
<g id="node2" class="node">
<title>UserAssignedApproverListComponent</title>
<polygon fill="#ffffb3" stroke="black" points="589.78,-84.8 354.22,-84.8 354.22,-48.8 589.78,-48.8 589.78,-84.8"/>
<text text-anchor="middle" x="472" y="-62.6" font-family="Times,serif" font-size="14.00">UserAssignedApproverListComponent</text>
</g>
<!-- UserAssignedApproverListComponent&#45;&gt;UserApproverListModule -->
<g id="edge2" class="edge">
<title>UserAssignedApproverListComponent&#45;&gt;UserApproverListModule</title>
<path fill="none" stroke="black" d="M361.03,-84.91C361.03,-84.91 361.03,-103.79 361.03,-103.79"/>
<polygon fill="black" stroke="black" points="357.53,-103.79 361.03,-113.79 364.53,-103.79 357.53,-103.79"/>
</g>
<!-- I18nModule -->
<g id="node4" class="node">
<title>I18nModule</title>
<polygon fill="#8dd3c7" stroke="black" points="329.71,-84.8 326.71,-88.8 305.71,-88.8 302.71,-84.8 244.29,-84.8 244.29,-48.8 329.71,-48.8 329.71,-84.8"/>
<text text-anchor="middle" x="287" y="-62.6" font-family="Times,serif" font-size="14.00">I18nModule</text>
</g>
<!-- I18nModule&#45;&gt;UserApproverListModule -->
<g id="edge3" class="edge">
<title>I18nModule&#45;&gt;UserApproverListModule</title>
<path fill="none" stroke="black" d="M287,-84.91C287,-84.91 287,-103.79 287,-103.79"/>
<polygon fill="black" stroke="black" points="283.5,-103.79 287,-113.79 290.5,-103.79 283.5,-103.79"/>
</g>
<!-- ListModule -->
<g id="node5" class="node">
<title>ListModule</title>
<polygon fill="#8dd3c7" stroke="black" points="226.83,-84.8 223.83,-88.8 202.83,-88.8 199.83,-84.8 145.17,-84.8 145.17,-48.8 226.83,-48.8 226.83,-84.8"/>
<text text-anchor="middle" x="186" y="-62.6" font-family="Times,serif" font-size="14.00">ListModule</text>
</g>
<!-- ListModule&#45;&gt;UserApproverListModule -->
<g id="edge4" class="edge">
<title>ListModule&#45;&gt;UserApproverListModule</title>
<path fill="none" stroke="black" d="M216.48,-84.91C216.48,-84.91 216.48,-103.79 216.48,-103.79"/>
<polygon fill="black" stroke="black" points="212.98,-103.79 216.48,-113.79 219.98,-103.79 212.98,-103.79"/>
</g>
<!-- SubListModule -->
<g id="node6" class="node">
<title>SubListModule</title>
<polygon fill="#8dd3c7" stroke="black" points="127.61,-84.8 124.61,-88.8 103.61,-88.8 100.61,-84.8 24.39,-84.8 24.39,-48.8 127.61,-48.8 127.61,-84.8"/>
<text text-anchor="middle" x="76" y="-62.6" font-family="Times,serif" font-size="14.00">SubListModule</text>
</g>
<!-- SubListModule&#45;&gt;UserApproverListModule -->
<g id="edge5" class="edge">
<title>SubListModule&#45;&gt;UserApproverListModule</title>
<path fill="none" stroke="black" d="M76,-84.91C76,-104.14 76,-131.8 76,-131.8 76,-131.8 196.03,-131.8 196.03,-131.8"/>
<polygon fill="black" stroke="black" points="196.03,-135.3 206.03,-131.8 196.03,-128.3 196.03,-135.3"/>
</g>
</g>
</svg>
