<?xml version="1.0" encoding="UTF-8" standalone="no"?>
<!DOCTYPE svg PUBLIC "-//W3C//DTD SVG 1.1//EN"
 "http://www.w3.org/Graphics/SVG/1.1/DTD/svg11.dtd">
<!-- Generated by graphviz version 2.40.1 (20161225.0304)
 -->
<!-- Title: dependencies Pages: 1 -->
<svg width="632pt" height="284pt"
 viewBox="0.00 0.00 632.00 284.00" xmlns="http://www.w3.org/2000/svg" xmlns:xlink="http://www.w3.org/1999/xlink">
<g id="graph0" class="graph" transform="scale(1 1) rotate(0) translate(4 280)">
<title>dependencies</title>
<polygon fill="#ffffff" stroke="transparent" points="-4,4 -4,-280 628,-280 628,4 -4,4"/>
<text text-anchor="start" x="291.0091" y="-42.4" font-family="sans-serif" font-weight="bold" font-size="14.00" fill="#000000">Legend</text>
<polygon fill="#ffffb3" stroke="transparent" points="78,-10 78,-30 98,-30 98,-10 78,-10"/>
<text text-anchor="start" x="101.629" y="-15.4" font-family="sans-serif" font-size="14.00" fill="#000000"> &#160;Declarations</text>
<polygon fill="#8dd3c7" stroke="transparent" points="191,-10 191,-30 211,-30 211,-10 191,-10"/>
<text text-anchor="start" x="214.7251" y="-15.4" font-family="sans-serif" font-size="14.00" fill="#000000"> &#160;Module</text>
<polygon fill="#80b1d3" stroke="transparent" points="277,-10 277,-30 297,-30 297,-10 277,-10"/>
<text text-anchor="start" x="300.7812" y="-15.4" font-family="sans-serif" font-size="14.00" fill="#000000"> &#160;Bootstrap</text>
<polygon fill="#fdb462" stroke="transparent" points="374,-10 374,-30 394,-30 394,-10 374,-10"/>
<text text-anchor="start" x="397.6732" y="-15.4" font-family="sans-serif" font-size="14.00" fill="#000000"> &#160;Providers</text>
<polygon fill="#fb8072" stroke="transparent" points="470,-10 470,-30 490,-30 490,-10 470,-10"/>
<text text-anchor="start" x="493.7258" y="-15.4" font-family="sans-serif" font-size="14.00" fill="#000000"> &#160;Exports</text>
<g id="clust1" class="cluster">
<title>cluster_PwaModule</title>
<polygon fill="none" stroke="#000000" stroke-dasharray="1,5" points="8,-70 8,-268 616,-268 616,-70 8,-70"/>
</g>
<g id="clust2" class="cluster">
<title>cluster_PwaModule_declarations</title>
<polygon fill="none" stroke="#000000" points="126,-78 126,-130 608,-130 608,-78 126,-78"/>
</g>
<g id="clust5" class="cluster">
<title>cluster_PwaModule_imports</title>
<polygon fill="none" stroke="#000000" points="16,-78 16,-130 118,-130 118,-78 16,-78"/>
</g>
<g id="clust6" class="cluster">
<title>cluster_PwaModule_exports</title>
<polygon fill="none" stroke="#000000" points="68,-208 68,-260 557,-260 557,-208 68,-208"/>
</g>
<!-- AddToHomeScreenBannerComponent -->
<g id="node1" class="node">
<title>AddToHomeScreenBannerComponent</title>
<polygon fill="#ffffb3" stroke="#000000" points="599.717,-122 366.283,-122 366.283,-86 599.717,-86 599.717,-122"/>
<text text-anchor="middle" x="483" y="-99.8" font-family="Times,serif" font-size="14.00" fill="#000000">AddToHomeScreenBannerComponent</text>
</g>
<!-- PwaModule -->
<g id="node3" class="node">
<title>PwaModule</title>
<polygon fill="#8dd3c7" stroke="#000000" points="282.6543,-187 279.6543,-191 258.6543,-191 255.6543,-187 199.3457,-187 199.3457,-151 282.6543,-151 282.6543,-187"/>
<text text-anchor="middle" x="241" y="-164.8" font-family="Times,serif" font-size="14.00" fill="#000000">PwaModule</text>
</g>
<!-- AddToHomeScreenBannerComponent&#45;&gt;PwaModule -->
<g id="edge1" class="edge">
<title>AddToHomeScreenBannerComponent&#45;&gt;PwaModule</title>
<path fill="none" stroke="#000000" d="M457.375,-122.0225C457.375,-139.3734 457.375,-163 457.375,-163 457.375,-163 292.7193,-163 292.7193,-163"/>
<polygon fill="#000000" stroke="#000000" points="292.7193,-159.5001 282.7193,-163 292.7192,-166.5001 292.7193,-159.5001"/>
</g>
<!-- AddToHomeScreenBtnComponent -->
<g id="node2" class="node">
<title>AddToHomeScreenBtnComponent</title>
<polygon fill="#ffffb3" stroke="#000000" points="347.5181,-122 134.4819,-122 134.4819,-86 347.5181,-86 347.5181,-122"/>
<text text-anchor="middle" x="241" y="-99.8" font-family="Times,serif" font-size="14.00" fill="#000000">AddToHomeScreenBtnComponent</text>
</g>
<!-- AddToHomeScreenBtnComponent&#45;&gt;PwaModule -->
<g id="edge2" class="edge">
<title>AddToHomeScreenBtnComponent&#45;&gt;PwaModule</title>
<path fill="none" stroke="#000000" d="M241,-122.1061C241,-122.1061 241,-140.991 241,-140.991"/>
<polygon fill="#000000" stroke="#000000" points="237.5001,-140.9909 241,-150.991 244.5001,-140.991 237.5001,-140.9909"/>
</g>
<!-- AddToHomeScreenBannerComponent  -->
<g id="node5" class="node">
<title>AddToHomeScreenBannerComponent </title>
<polygon fill="#fb8072" stroke="#000000" points="548.7169,-252 311.2831,-252 311.2831,-216 548.7169,-216 548.7169,-252"/>
<text text-anchor="middle" x="430" y="-229.8" font-family="Times,serif" font-size="14.00" fill="#000000">AddToHomeScreenBannerComponent </text>
</g>
<!-- PwaModule&#45;&gt;AddToHomeScreenBannerComponent  -->
<g id="edge4" class="edge">
<title>PwaModule&#45;&gt;AddToHomeScreenBannerComponent </title>
<path fill="none" stroke="#000000" stroke-dasharray="5,2" d="M282.6939,-175C305.6676,-175 329.5752,-175 329.5752,-175 329.5752,-175 329.5752,-205.9775 329.5752,-205.9775"/>
<polygon fill="#000000" stroke="#000000" points="326.0753,-205.9774 329.5752,-215.9775 333.0753,-205.9775 326.0753,-205.9774"/>
</g>
<!-- AddToHomeScreenBtnComponent  -->
<g id="node6" class="node">
<title>AddToHomeScreenBtnComponent </title>
<polygon fill="#fb8072" stroke="#000000" points="293.5176,-252 76.4824,-252 76.4824,-216 293.5176,-216 293.5176,-252"/>
<text text-anchor="middle" x="185" y="-229.8" font-family="Times,serif" font-size="14.00" fill="#000000">AddToHomeScreenBtnComponent </text>
</g>
<!-- PwaModule&#45;&gt;AddToHomeScreenBtnComponent  -->
<g id="edge5" class="edge">
<title>PwaModule&#45;&gt;AddToHomeScreenBtnComponent </title>
<path fill="none" stroke="#000000" stroke-dasharray="5,2" d="M241,-187.1061C241,-187.1061 241,-205.991 241,-205.991"/>
<polygon fill="#000000" stroke="#000000" points="237.5001,-205.9909 241,-215.991 244.5001,-205.991 237.5001,-205.9909"/>
</g>
<!-- I18nModule -->
<g id="node4" class="node">
<title>I18nModule</title>
<polygon fill="#8dd3c7" stroke="#000000" points="109.7107,-122 106.7107,-126 85.7107,-126 82.7107,-122 24.2893,-122 24.2893,-86 109.7107,-86 109.7107,-122"/>
<text text-anchor="middle" x="67" y="-99.8" font-family="Times,serif" font-size="14.00" fill="#000000">I18nModule</text>
</g>
<!-- I18nModule&#45;&gt;PwaModule -->
<g id="edge3" class="edge">
<title>I18nModule&#45;&gt;PwaModule</title>
<path fill="none" stroke="#000000" d="M93.0482,-122.1061C93.0482,-141.3391 93.0482,-169 93.0482,-169 93.0482,-169 188.9987,-169 188.9987,-169"/>
<polygon fill="#000000" stroke="#000000" points="188.9987,-172.5001 198.9987,-169 188.9987,-165.5001 188.9987,-172.5001"/>
</g>
</g>
</svg>
