<?xml version="1.0" encoding="UTF-8" standalone="no"?>
<!DOCTYPE svg PUBLIC "-//W3C//DTD SVG 1.1//EN"
 "http://www.w3.org/Graphics/SVG/1.1/DTD/svg11.dtd">
<!-- Generated by graphviz version 2.47.0 (20210316.0004)
 -->
<!-- Title: dependencies Pages: 1 -->
<svg width="632pt" height="284pt"
 viewBox="0.00 0.00 632.00 284.00" xmlns="http://www.w3.org/2000/svg" xmlns:xlink="http://www.w3.org/1999/xlink">
<g id="graph0" class="graph" transform="scale(1 1) rotate(0) translate(4 280)">
<title>dependencies</title>
<polygon fill="white" stroke="transparent" points="-4,4 -4,-280 628,-280 628,4 -4,4"/>
<text text-anchor="start" x="291.01" y="-42.4" font-family="sans-serif" font-weight="bold" font-size="14.00">Legend</text>
<polygon fill="#ffffb3" stroke="transparent" points="78,-10 78,-30 98,-30 98,-10 78,-10"/>
<text text-anchor="start" x="101.63" y="-15.4" font-family="sans-serif" font-size="14.00"> &#160;Declarations</text>
<polygon fill="#8dd3c7" stroke="transparent" points="191,-10 191,-30 211,-30 211,-10 191,-10"/>
<text text-anchor="start" x="214.73" y="-15.4" font-family="sans-serif" font-size="14.00"> &#160;Module</text>
<polygon fill="#80b1d3" stroke="transparent" points="277,-10 277,-30 297,-30 297,-10 277,-10"/>
<text text-anchor="start" x="300.78" y="-15.4" font-family="sans-serif" font-size="14.00"> &#160;Bootstrap</text>
<polygon fill="#fdb462" stroke="transparent" points="374,-10 374,-30 394,-30 394,-10 374,-10"/>
<text text-anchor="start" x="397.67" y="-15.4" font-family="sans-serif" font-size="14.00"> &#160;Providers</text>
<polygon fill="#fb8072" stroke="transparent" points="470,-10 470,-30 490,-30 490,-10 470,-10"/>
<text text-anchor="start" x="493.73" y="-15.4" font-family="sans-serif" font-size="14.00"> &#160;Exports</text>
<g id="clust1" class="cluster">
<title>cluster_PwaModule</title>
<polygon fill="none" stroke="black" stroke-dasharray="1,5" points="8,-70 8,-268 616,-268 616,-70 8,-70"/>
</g>
<g id="clust5" class="cluster">
<title>cluster_PwaModule_imports</title>
<polygon fill="none" stroke="black" points="506,-78 506,-130 608,-130 608,-78 506,-78"/>
</g>
<g id="clust6" class="cluster">
<title>cluster_PwaModule_exports</title>
<polygon fill="none" stroke="black" points="68,-208 68,-260 557,-260 557,-208 68,-208"/>
</g>
<g id="clust2" class="cluster">
<title>cluster_PwaModule_declarations</title>
<polygon fill="none" stroke="black" points="16,-78 16,-130 498,-130 498,-78 16,-78"/>
</g>
<!-- AddToHomeScreenBannerComponent -->
<g id="node1" class="node">
<title>AddToHomeScreenBannerComponent</title>
<polygon fill="#ffffb3" stroke="black" points="489.72,-122 256.28,-122 256.28,-86 489.72,-86 489.72,-122"/>
<text text-anchor="middle" x="373" y="-99.8" font-family="Times,serif" font-size="14.00">AddToHomeScreenBannerComponent</text>
</g>
<!-- PwaModule -->
<g id="node3" class="node">
<title>PwaModule</title>
<polygon fill="#8dd3c7" stroke="black" points="414.65,-187 411.65,-191 390.65,-191 387.65,-187 331.35,-187 331.35,-151 414.65,-151 414.65,-187"/>
<text text-anchor="middle" x="373" y="-164.8" font-family="Times,serif" font-size="14.00">PwaModule</text>
</g>
<!-- AddToHomeScreenBannerComponent&#45;&gt;PwaModule -->
<g id="edge1" class="edge">
<title>AddToHomeScreenBannerComponent&#45;&gt;PwaModule</title>
<path fill="none" stroke="black" d="M373,-122.11C373,-122.11 373,-140.99 373,-140.99"/>
<polygon fill="black" stroke="black" points="369.5,-140.99 373,-150.99 376.5,-140.99 369.5,-140.99"/>
</g>
<!-- AddToHomeScreenBtnComponent -->
<g id="node2" class="node">
<title>AddToHomeScreenBtnComponent</title>
<polygon fill="#ffffb3" stroke="black" points="237.52,-122 24.48,-122 24.48,-86 237.52,-86 237.52,-122"/>
<text text-anchor="middle" x="131" y="-99.8" font-family="Times,serif" font-size="14.00">AddToHomeScreenBtnComponent</text>
</g>
<!-- AddToHomeScreenBtnComponent&#45;&gt;PwaModule -->
<g id="edge2" class="edge">
<title>AddToHomeScreenBtnComponent&#45;&gt;PwaModule</title>
<path fill="none" stroke="black" d="M157.12,-122.02C157.12,-139.37 157.12,-163 157.12,-163 157.12,-163 321.12,-163 321.12,-163"/>
<polygon fill="black" stroke="black" points="321.12,-166.5 331.12,-163 321.12,-159.5 321.12,-166.5"/>
</g>
<!-- AddToHomeScreenBannerComponent  -->
<g id="node5" class="node">
<title>AddToHomeScreenBannerComponent </title>
<polygon fill="#fb8072" stroke="black" points="548.72,-252 311.28,-252 311.28,-216 548.72,-216 548.72,-252"/>
<text text-anchor="middle" x="430" y="-229.8" font-family="Times,serif" font-size="14.00">AddToHomeScreenBannerComponent </text>
</g>
<!-- PwaModule&#45;&gt;AddToHomeScreenBannerComponent  -->
<g id="edge4" class="edge">
<title>PwaModule&#45;&gt;AddToHomeScreenBannerComponent </title>
<path fill="none" stroke="black" stroke-dasharray="5,2" d="M373,-187.11C373,-187.11 373,-205.99 373,-205.99"/>
<polygon fill="black" stroke="black" points="369.5,-205.99 373,-215.99 376.5,-205.99 369.5,-205.99"/>
</g>
<!-- AddToHomeScreenBtnComponent  -->
<g id="node6" class="node">
<title>AddToHomeScreenBtnComponent </title>
<polygon fill="#fb8072" stroke="black" points="293.52,-252 76.48,-252 76.48,-216 293.52,-216 293.52,-252"/>
<text text-anchor="middle" x="185" y="-229.8" font-family="Times,serif" font-size="14.00">AddToHomeScreenBtnComponent </text>
</g>
<!-- PwaModule&#45;&gt;AddToHomeScreenBtnComponent  -->
<g id="edge5" class="edge">
<title>PwaModule&#45;&gt;AddToHomeScreenBtnComponent </title>
<path fill="none" stroke="black" stroke-dasharray="5,2" d="M331.08,-175C304.4,-175 274.83,-175 274.83,-175 274.83,-175 274.83,-205.98 274.83,-205.98"/>
<polygon fill="black" stroke="black" points="271.33,-205.98 274.83,-215.98 278.33,-205.98 271.33,-205.98"/>
</g>
<!-- I18nModule -->
<g id="node4" class="node">
<title>I18nModule</title>
<polygon fill="#8dd3c7" stroke="black" points="599.71,-122 596.71,-126 575.71,-126 572.71,-122 514.29,-122 514.29,-86 599.71,-86 599.71,-122"/>
<text text-anchor="middle" x="557" y="-99.8" font-family="Times,serif" font-size="14.00">I18nModule</text>
</g>
<!-- I18nModule&#45;&gt;PwaModule -->
<g id="edge3" class="edge">
<title>I18nModule&#45;&gt;PwaModule</title>
<path fill="none" stroke="black" d="M531.5,-122.11C531.5,-141.34 531.5,-169 531.5,-169 531.5,-169 425.06,-169 425.06,-169"/>
<polygon fill="black" stroke="black" points="425.06,-165.5 415.06,-169 425.06,-172.5 425.06,-165.5"/>
</g>
</g>
</svg>
