<?xml version="1.0" encoding="UTF-8" standalone="no"?>
<!DOCTYPE svg PUBLIC "-//W3C//DTD SVG 1.1//EN"
 "http://www.w3.org/Graphics/SVG/1.1/DTD/svg11.dtd">
<!-- Generated by graphviz version 2.40.1 (20161225.0304)
 -->
<!-- Title: dependencies Pages: 1 -->
<svg width="504pt" height="211pt"
 viewBox="0.00 0.00 504.00 211.00" xmlns="http://www.w3.org/2000/svg" xmlns:xlink="http://www.w3.org/1999/xlink">
<g id="graph0" class="graph" transform="scale(1 1) rotate(0) translate(4 207)">
<title>dependencies</title>
<polygon fill="#ffffff" stroke="transparent" points="-4,4 -4,-207 500,-207 500,4 -4,4"/>
<text text-anchor="start" x="227.0091" y="-42.4" font-family="sans-serif" font-weight="bold" font-size="14.00" fill="#000000">Legend</text>
<polygon fill="#ffffb3" stroke="transparent" points="14,-10 14,-30 34,-30 34,-10 14,-10"/>
<text text-anchor="start" x="37.629" y="-15.4" font-family="sans-serif" font-size="14.00" fill="#000000"> &#160;Declarations</text>
<polygon fill="#8dd3c7" stroke="transparent" points="127,-10 127,-30 147,-30 147,-10 127,-10"/>
<text text-anchor="start" x="150.7251" y="-15.4" font-family="sans-serif" font-size="14.00" fill="#000000"> &#160;Module</text>
<polygon fill="#80b1d3" stroke="transparent" points="213,-10 213,-30 233,-30 233,-10 213,-10"/>
<text text-anchor="start" x="236.7812" y="-15.4" font-family="sans-serif" font-size="14.00" fill="#000000"> &#160;Bootstrap</text>
<polygon fill="#fdb462" stroke="transparent" points="310,-10 310,-30 330,-30 330,-10 310,-10"/>
<text text-anchor="start" x="333.6732" y="-15.4" font-family="sans-serif" font-size="14.00" fill="#000000"> &#160;Providers</text>
<polygon fill="#fb8072" stroke="transparent" points="406,-10 406,-30 426,-30 426,-10 406,-10"/>
<text text-anchor="start" x="429.7258" y="-15.4" font-family="sans-serif" font-size="14.00" fill="#000000"> &#160;Exports</text>
<g id="clust1" class="cluster">
<title>cluster_UserOccModule</title>
<polygon fill="none" stroke="#000000" stroke-dasharray="1,5" points="18,-70 18,-195 478,-195 478,-70 18,-70"/>
</g>
<g id="clust3" class="cluster">
<title>cluster_UserOccModule_imports</title>
<polygon fill="none" stroke="#000000" points="372,-78 372,-130 470,-130 470,-78 372,-78"/>
</g>
<g id="clust6" class="cluster">
<title>cluster_UserOccModule_providers</title>
<polygon fill="none" stroke="#000000" points="26,-78 26,-130 364,-130 364,-78 26,-78"/>
</g>
<!-- OccModule -->
<g id="node1" class="node">
<title>OccModule</title>
<polygon fill="#8dd3c7" stroke="#000000" points="462.0856,-122 459.0856,-126 438.0856,-126 435.0856,-122 379.9144,-122 379.9144,-86 462.0856,-86 462.0856,-122"/>
<text text-anchor="middle" x="421" y="-99.8" font-family="Times,serif" font-size="14.00" fill="#000000">OccModule</text>
</g>
<!-- UserOccModule -->
<g id="node2" class="node">
<title>UserOccModule</title>
<polygon fill="#8dd3c7" stroke="#000000" points="332.0131,-187 329.0131,-191 308.0131,-191 305.0131,-187 223.9869,-187 223.9869,-151 332.0131,-151 332.0131,-187"/>
<text text-anchor="middle" x="278" y="-164.8" font-family="Times,serif" font-size="14.00" fill="#000000">UserOccModule</text>
</g>
<!-- OccModule&#45;&gt;UserOccModule -->
<g id="edge1" class="edge">
<title>OccModule&#45;&gt;UserOccModule</title>
<path fill="none" stroke="#000000" d="M421,-122.1061C421,-141.3391 421,-169 421,-169 421,-169 342.0622,-169 342.0622,-169"/>
<polygon fill="#000000" stroke="#000000" points="342.0622,-165.5001 332.0622,-169 342.0621,-172.5001 342.0622,-165.5001"/>
</g>
<!-- OccOrderService -->
<g id="node3" class="node">
<title>OccOrderService</title>
<ellipse fill="#fdb462" stroke="#000000" cx="278" cy="-104" rx="78.1056" ry="18"/>
<text text-anchor="middle" x="278" y="-99.8" font-family="Times,serif" font-size="14.00" fill="#000000">OccOrderService</text>
</g>
<!-- OccOrderService&#45;&gt;UserOccModule -->
<g id="edge2" class="edge">
<title>OccOrderService&#45;&gt;UserOccModule</title>
<path fill="none" stroke="#000000" d="M278,-122.1061C278,-122.1061 278,-140.991 278,-140.991"/>
<polygon fill="#000000" stroke="#000000" points="274.5001,-140.9909 278,-150.991 281.5001,-140.991 274.5001,-140.9909"/>
</g>
<!-- OccUserService -->
<g id="node4" class="node">
<title>OccUserService</title>
<ellipse fill="#fdb462" stroke="#000000" cx="108" cy="-104" rx="73.531" ry="18"/>
<text text-anchor="middle" x="108" y="-99.8" font-family="Times,serif" font-size="14.00" fill="#000000">OccUserService</text>
</g>
<!-- OccUserService&#45;&gt;UserOccModule -->
<g id="edge3" class="edge">
<title>OccUserService&#45;&gt;UserOccModule</title>
<path fill="none" stroke="#000000" d="M108,-122.1061C108,-141.3391 108,-169 108,-169 108,-169 213.7435,-169 213.7435,-169"/>
<polygon fill="#000000" stroke="#000000" points="213.7436,-172.5001 223.7435,-169 213.7435,-165.5001 213.7436,-172.5001"/>
</g>
</g>
</svg>
