<?xml version="1.0" encoding="UTF-8" standalone="no"?>
<!DOCTYPE svg PUBLIC "-//W3C//DTD SVG 1.1//EN"
 "http://www.w3.org/Graphics/SVG/1.1/DTD/svg11.dtd">
<!-- Generated by graphviz version 2.47.3 (20210619.1520)
 -->
<!-- Title: dependencies Pages: 1 -->
<svg width="780pt" height="174pt"
 viewBox="0.00 0.00 780.00 173.80" xmlns="http://www.w3.org/2000/svg" xmlns:xlink="http://www.w3.org/1999/xlink">
<g id="graph0" class="graph" transform="scale(1 1) rotate(0) translate(4 169.8)">
<title>dependencies</title>
<polygon fill="white" stroke="transparent" points="-4,4 -4,-169.8 776,-169.8 776,4 -4,4"/>
<text text-anchor="middle" x="386" y="-8.2" font-family="sans-serif" font-size="14.00">dependencies</text>
<g id="clust1" class="cluster">
<title>cluster_UnitListModule</title>
<polygon fill="none" stroke="black" stroke-dasharray="1,5" points="8,-32.8 8,-157.8 764,-157.8 764,-32.8 8,-32.8"/>
</g>
<g id="clust2" class="cluster">
<title>cluster_UnitListModule_declarations</title>
<polygon fill="none" stroke="black" points="424,-40.8 424,-92.8 756,-92.8 756,-40.8 424,-40.8"/>
</g>
<g id="clust5" class="cluster">
<title>cluster_UnitListModule_imports</title>
<polygon fill="none" stroke="black" points="16,-40.8 16,-92.8 416,-92.8 416,-40.8 16,-40.8"/>
</g>
<!-- ToggleLinkCellComponent -->
<g id="node1" class="node">
<title>ToggleLinkCellComponent</title>
<polygon fill="#ffffb3" stroke="black" points="748.27,-84.8 577.73,-84.8 577.73,-48.8 748.27,-48.8 748.27,-84.8"/>
<text text-anchor="middle" x="663" y="-62.6" font-family="Times,serif" font-size="14.00">ToggleLinkCellComponent</text>
</g>
<!-- UnitListModule -->
<g id="node3" class="node">
<title>UnitListModule</title>
<polygon fill="#8dd3c7" stroke="black" points="366.22,-149.8 363.22,-153.8 342.22,-153.8 339.22,-149.8 259.78,-149.8 259.78,-113.8 366.22,-113.8 366.22,-149.8"/>
<text text-anchor="middle" x="313" y="-127.6" font-family="Times,serif" font-size="14.00">UnitListModule</text>
</g>
<!-- ToggleLinkCellComponent&#45;&gt;UnitListModule -->
<g id="edge1" class="edge">
<title>ToggleLinkCellComponent&#45;&gt;UnitListModule</title>
<path fill="none" stroke="black" d="M663,-85.08C663,-106.12 663,-137.8 663,-137.8 663,-137.8 376.16,-137.8 376.16,-137.8"/>
<polygon fill="black" stroke="black" points="376.16,-134.3 366.16,-137.8 376.16,-141.3 376.16,-134.3"/>
</g>
<!-- UnitListComponent -->
<g id="node2" class="node">
<title>UnitListComponent</title>
<polygon fill="#ffffb3" stroke="black" points="560,-84.8 432,-84.8 432,-48.8 560,-48.8 560,-84.8"/>
<text text-anchor="middle" x="496" y="-62.6" font-family="Times,serif" font-size="14.00">UnitListComponent</text>
</g>
<!-- UnitListComponent&#45;&gt;UnitListModule -->
<g id="edge2" class="edge">
<title>UnitListComponent&#45;&gt;UnitListModule</title>
<path fill="none" stroke="black" d="M496,-84.82C496,-102.17 496,-125.8 496,-125.8 496,-125.8 376.42,-125.8 376.42,-125.8"/>
<polygon fill="black" stroke="black" points="376.42,-122.3 366.42,-125.8 376.42,-129.3 376.42,-122.3"/>
</g>
<!-- I18nModule -->
<g id="node4" class="node">
<title>I18nModule</title>
<polygon fill="#8dd3c7" stroke="black" points="407.71,-84.8 404.71,-88.8 383.71,-88.8 380.71,-84.8 322.29,-84.8 322.29,-48.8 407.71,-48.8 407.71,-84.8"/>
<text text-anchor="middle" x="365" y="-62.6" font-family="Times,serif" font-size="14.00">I18nModule</text>
</g>
<!-- I18nModule&#45;&gt;UnitListModule -->
<g id="edge3" class="edge">
<title>I18nModule&#45;&gt;UnitListModule</title>
<path fill="none" stroke="black" d="M344.25,-84.91C344.25,-84.91 344.25,-103.79 344.25,-103.79"/>
<polygon fill="black" stroke="black" points="340.75,-103.79 344.25,-113.79 347.75,-103.79 340.75,-103.79"/>
</g>
<!-- IconModule -->
<g id="node5" class="node">
<title>IconModule</title>
<polygon fill="#8dd3c7" stroke="black" points="304.43,-84.8 301.43,-88.8 280.43,-88.8 277.43,-84.8 219.57,-84.8 219.57,-48.8 304.43,-48.8 304.43,-84.8"/>
<text text-anchor="middle" x="262" y="-62.6" font-family="Times,serif" font-size="14.00">IconModule</text>
</g>
<!-- IconModule&#45;&gt;UnitListModule -->
<g id="edge4" class="edge">
<title>IconModule&#45;&gt;UnitListModule</title>
<path fill="none" stroke="black" d="M282.05,-84.91C282.05,-84.91 282.05,-103.79 282.05,-103.79"/>
<polygon fill="black" stroke="black" points="278.55,-103.79 282.05,-113.79 285.55,-103.79 278.55,-103.79"/>
</g>
<!-- ListModule -->
<g id="node6" class="node">
<title>ListModule</title>
<polygon fill="#8dd3c7" stroke="black" points="201.83,-84.8 198.83,-88.8 177.83,-88.8 174.83,-84.8 120.17,-84.8 120.17,-48.8 201.83,-48.8 201.83,-84.8"/>
<text text-anchor="middle" x="161" y="-62.6" font-family="Times,serif" font-size="14.00">ListModule</text>
</g>
<!-- ListModule&#45;&gt;UnitListModule -->
<g id="edge5" class="edge">
<title>ListModule&#45;&gt;UnitListModule</title>
<path fill="none" stroke="black" d="M161,-84.82C161,-102.17 161,-125.8 161,-125.8 161,-125.8 249.84,-125.8 249.84,-125.8"/>
<polygon fill="black" stroke="black" points="249.84,-129.3 259.84,-125.8 249.84,-122.3 249.84,-129.3"/>
</g>
<!-- UrlModule -->
<g id="node7" class="node">
<title>UrlModule</title>
<polygon fill="#8dd3c7" stroke="black" points="102.21,-84.8 99.21,-88.8 78.21,-88.8 75.21,-84.8 23.79,-84.8 23.79,-48.8 102.21,-48.8 102.21,-84.8"/>
<text text-anchor="middle" x="63" y="-62.6" font-family="Times,serif" font-size="14.00">UrlModule</text>
</g>
<!-- UrlModule&#45;&gt;UnitListModule -->
<g id="edge6" class="edge">
<title>UrlModule&#45;&gt;UnitListModule</title>
<path fill="none" stroke="black" d="M63,-85.08C63,-106.12 63,-137.8 63,-137.8 63,-137.8 249.68,-137.8 249.68,-137.8"/>
<polygon fill="black" stroke="black" points="249.68,-141.3 259.68,-137.8 249.68,-134.3 249.68,-141.3"/>
</g>
</g>
</svg>
