<?xml version="1.0" encoding="UTF-8" standalone="no"?>
<!DOCTYPE svg PUBLIC "-//W3C//DTD SVG 1.1//EN"
 "http://www.w3.org/Graphics/SVG/1.1/DTD/svg11.dtd">
<!-- Generated by graphviz version 2.40.1 (20161225.0304)
 -->
<!-- Title: dependencies Pages: 1 -->
<svg width="780pt" height="211pt"
 viewBox="0.00 0.00 780.00 211.00" xmlns="http://www.w3.org/2000/svg" xmlns:xlink="http://www.w3.org/1999/xlink">
<g id="graph0" class="graph" transform="scale(1 1) rotate(0) translate(4 207)">
<title>dependencies</title>
<polygon fill="#ffffff" stroke="transparent" points="-4,4 -4,-207 776,-207 776,4 -4,4"/>
<text text-anchor="start" x="365.0091" y="-42.4" font-family="sans-serif" font-weight="bold" font-size="14.00" fill="#000000">Legend</text>
<polygon fill="#ffffb3" stroke="transparent" points="152,-10 152,-30 172,-30 172,-10 152,-10"/>
<text text-anchor="start" x="175.629" y="-15.4" font-family="sans-serif" font-size="14.00" fill="#000000"> &#160;Declarations</text>
<polygon fill="#8dd3c7" stroke="transparent" points="265,-10 265,-30 285,-30 285,-10 265,-10"/>
<text text-anchor="start" x="288.7251" y="-15.4" font-family="sans-serif" font-size="14.00" fill="#000000"> &#160;Module</text>
<polygon fill="#80b1d3" stroke="transparent" points="351,-10 351,-30 371,-30 371,-10 351,-10"/>
<text text-anchor="start" x="374.7812" y="-15.4" font-family="sans-serif" font-size="14.00" fill="#000000"> &#160;Bootstrap</text>
<polygon fill="#fdb462" stroke="transparent" points="448,-10 448,-30 468,-30 468,-10 448,-10"/>
<text text-anchor="start" x="471.6732" y="-15.4" font-family="sans-serif" font-size="14.00" fill="#000000"> &#160;Providers</text>
<polygon fill="#fb8072" stroke="transparent" points="544,-10 544,-30 564,-30 564,-10 544,-10"/>
<text text-anchor="start" x="567.7258" y="-15.4" font-family="sans-serif" font-size="14.00" fill="#000000"> &#160;Exports</text>
<g id="clust1" class="cluster">
<title>cluster_UnitListModule</title>
<polygon fill="none" stroke="#000000" stroke-dasharray="1,5" points="8,-70 8,-195 764,-195 764,-70 8,-70"/>
</g>
<g id="clust2" class="cluster">
<title>cluster_UnitListModule_declarations</title>
<polygon fill="none" stroke="#000000" points="424,-78 424,-130 756,-130 756,-78 424,-78"/>
</g>
<g id="clust5" class="cluster">
<title>cluster_UnitListModule_imports</title>
<polygon fill="none" stroke="#000000" points="16,-78 16,-130 416,-130 416,-78 16,-78"/>
</g>
<!-- ToggleLinkCellComponent -->
<g id="node1" class="node">
<title>ToggleLinkCellComponent</title>
<polygon fill="#ffffb3" stroke="#000000" points="748.266,-122 577.734,-122 577.734,-86 748.266,-86 748.266,-122"/>
<text text-anchor="middle" x="663" y="-99.8" font-family="Times,serif" font-size="14.00" fill="#000000">ToggleLinkCellComponent</text>
</g>
<!-- UnitListModule -->
<g id="node3" class="node">
<title>UnitListModule</title>
<polygon fill="#8dd3c7" stroke="#000000" points="366.2162,-187 363.2162,-191 342.2162,-191 339.2162,-187 259.7838,-187 259.7838,-151 366.2162,-151 366.2162,-187"/>
<text text-anchor="middle" x="313" y="-164.8" font-family="Times,serif" font-size="14.00" fill="#000000">UnitListModule</text>
</g>
<!-- ToggleLinkCellComponent&#45;&gt;UnitListModule -->
<g id="edge1" class="edge">
<title>ToggleLinkCellComponent&#45;&gt;UnitListModule</title>
<path fill="none" stroke="#000000" d="M663,-122.2843C663,-143.3211 663,-175 663,-175 663,-175 376.1575,-175 376.1575,-175"/>
<polygon fill="#000000" stroke="#000000" points="376.1575,-171.5001 366.1575,-175 376.1574,-178.5001 376.1575,-171.5001"/>
</g>
<!-- UnitListComponent -->
<g id="node2" class="node">
<title>UnitListComponent</title>
<polygon fill="#ffffb3" stroke="#000000" points="559.9986,-122 432.0014,-122 432.0014,-86 559.9986,-86 559.9986,-122"/>
<text text-anchor="middle" x="496" y="-99.8" font-family="Times,serif" font-size="14.00" fill="#000000">UnitListComponent</text>
</g>
<!-- UnitListComponent&#45;&gt;UnitListModule -->
<g id="edge2" class="edge">
<title>UnitListComponent&#45;&gt;UnitListModule</title>
<path fill="none" stroke="#000000" d="M496,-122.0225C496,-139.3734 496,-163 496,-163 496,-163 376.4231,-163 376.4231,-163"/>
<polygon fill="#000000" stroke="#000000" points="376.4232,-159.5001 366.4231,-163 376.4231,-166.5001 376.4232,-159.5001"/>
</g>
<!-- I18nModule -->
<g id="node4" class="node">
<title>I18nModule</title>
<polygon fill="#8dd3c7" stroke="#000000" points="407.7107,-122 404.7107,-126 383.7107,-126 380.7107,-122 322.2893,-122 322.2893,-86 407.7107,-86 407.7107,-122"/>
<text text-anchor="middle" x="365" y="-99.8" font-family="Times,serif" font-size="14.00" fill="#000000">I18nModule</text>
</g>
<!-- I18nModule&#45;&gt;UnitListModule -->
<g id="edge3" class="edge">
<title>I18nModule&#45;&gt;UnitListModule</title>
<path fill="none" stroke="#000000" d="M344.2514,-122.1061C344.2514,-122.1061 344.2514,-140.991 344.2514,-140.991"/>
<polygon fill="#000000" stroke="#000000" points="340.7515,-140.9909 344.2514,-150.991 347.7515,-140.991 340.7515,-140.9909"/>
</g>
<!-- IconModule -->
<g id="node5" class="node">
<title>IconModule</title>
<polygon fill="#8dd3c7" stroke="#000000" points="304.4261,-122 301.4261,-126 280.4261,-126 277.4261,-122 219.5739,-122 219.5739,-86 304.4261,-86 304.4261,-122"/>
<text text-anchor="middle" x="262" y="-99.8" font-family="Times,serif" font-size="14.00" fill="#000000">IconModule</text>
</g>
<!-- IconModule&#45;&gt;UnitListModule -->
<g id="edge4" class="edge">
<title>IconModule&#45;&gt;UnitListModule</title>
<path fill="none" stroke="#000000" d="M282.0523,-122.1061C282.0523,-122.1061 282.0523,-140.991 282.0523,-140.991"/>
<polygon fill="#000000" stroke="#000000" points="278.5523,-140.9909 282.0523,-150.991 285.5523,-140.991 278.5523,-140.9909"/>
</g>
<!-- ListModule -->
<g id="node6" class="node">
<title>ListModule</title>
<polygon fill="#8dd3c7" stroke="#000000" points="201.8289,-122 198.8289,-126 177.8289,-126 174.8289,-122 120.1711,-122 120.1711,-86 201.8289,-86 201.8289,-122"/>
<text text-anchor="middle" x="161" y="-99.8" font-family="Times,serif" font-size="14.00" fill="#000000">ListModule</text>
</g>
<!-- ListModule&#45;&gt;UnitListModule -->
<g id="edge5" class="edge">
<title>ListModule&#45;&gt;UnitListModule</title>
<path fill="none" stroke="#000000" d="M161,-122.0225C161,-139.3734 161,-163 161,-163 161,-163 249.8378,-163 249.8378,-163"/>
<polygon fill="#000000" stroke="#000000" points="249.8378,-166.5001 259.8378,-163 249.8377,-159.5001 249.8378,-166.5001"/>
</g>
<!-- UrlModule -->
<g id="node7" class="node">
<title>UrlModule</title>
<polygon fill="#8dd3c7" stroke="#000000" points="102.2079,-122 99.2079,-126 78.2079,-126 75.2079,-122 23.7921,-122 23.7921,-86 102.2079,-86 102.2079,-122"/>
<text text-anchor="middle" x="63" y="-99.8" font-family="Times,serif" font-size="14.00" fill="#000000">UrlModule</text>
</g>
<!-- UrlModule&#45;&gt;UnitListModule -->
<g id="edge6" class="edge">
<title>UrlModule&#45;&gt;UnitListModule</title>
<path fill="none" stroke="#000000" d="M63,-122.2843C63,-143.3211 63,-175 63,-175 63,-175 249.6754,-175 249.6754,-175"/>
<polygon fill="#000000" stroke="#000000" points="249.6754,-178.5001 259.6754,-175 249.6753,-171.5001 249.6754,-178.5001"/>
</g>
</g>
</svg>
