<?xml version="1.0" encoding="UTF-8" standalone="no"?>
<!DOCTYPE svg PUBLIC "-//W3C//DTD SVG 1.1//EN"
 "http://www.w3.org/Graphics/SVG/1.1/DTD/svg11.dtd">
<!-- Generated by graphviz version 2.47.0 (20210316.0004)
 -->
<!-- Title: dependencies Pages: 1 -->
<svg width="780pt" height="211pt"
 viewBox="0.00 0.00 780.00 211.00" xmlns="http://www.w3.org/2000/svg" xmlns:xlink="http://www.w3.org/1999/xlink">
<g id="graph0" class="graph" transform="scale(1 1) rotate(0) translate(4 207)">
<title>dependencies</title>
<polygon fill="white" stroke="transparent" points="-4,4 -4,-207 776,-207 776,4 -4,4"/>
<text text-anchor="start" x="365.01" y="-42.4" font-family="sans-serif" font-weight="bold" font-size="14.00">Legend</text>
<polygon fill="#ffffb3" stroke="transparent" points="152,-10 152,-30 172,-30 172,-10 152,-10"/>
<text text-anchor="start" x="175.63" y="-15.4" font-family="sans-serif" font-size="14.00"> &#160;Declarations</text>
<polygon fill="#8dd3c7" stroke="transparent" points="265,-10 265,-30 285,-30 285,-10 265,-10"/>
<text text-anchor="start" x="288.73" y="-15.4" font-family="sans-serif" font-size="14.00"> &#160;Module</text>
<polygon fill="#80b1d3" stroke="transparent" points="351,-10 351,-30 371,-30 371,-10 351,-10"/>
<text text-anchor="start" x="374.78" y="-15.4" font-family="sans-serif" font-size="14.00"> &#160;Bootstrap</text>
<polygon fill="#fdb462" stroke="transparent" points="448,-10 448,-30 468,-30 468,-10 448,-10"/>
<text text-anchor="start" x="471.67" y="-15.4" font-family="sans-serif" font-size="14.00"> &#160;Providers</text>
<polygon fill="#fb8072" stroke="transparent" points="544,-10 544,-30 564,-30 564,-10 544,-10"/>
<text text-anchor="start" x="567.73" y="-15.4" font-family="sans-serif" font-size="14.00"> &#160;Exports</text>
<g id="clust1" class="cluster">
<title>cluster_UnitListModule</title>
<polygon fill="none" stroke="black" stroke-dasharray="1,5" points="8,-70 8,-195 764,-195 764,-70 8,-70"/>
</g>
<g id="clust2" class="cluster">
<title>cluster_UnitListModule_declarations</title>
<polygon fill="none" stroke="black" points="424,-78 424,-130 756,-130 756,-78 424,-78"/>
</g>
<g id="clust5" class="cluster">
<title>cluster_UnitListModule_imports</title>
<polygon fill="none" stroke="black" points="16,-78 16,-130 416,-130 416,-78 16,-78"/>
</g>
<!-- ToggleLinkCellComponent -->
<g id="node1" class="node">
<title>ToggleLinkCellComponent</title>
<polygon fill="#ffffb3" stroke="black" points="748.27,-122 577.73,-122 577.73,-86 748.27,-86 748.27,-122"/>
<text text-anchor="middle" x="663" y="-99.8" font-family="Times,serif" font-size="14.00">ToggleLinkCellComponent</text>
</g>
<!-- UnitListModule -->
<g id="node3" class="node">
<title>UnitListModule</title>
<polygon fill="#8dd3c7" stroke="black" points="366.22,-187 363.22,-191 342.22,-191 339.22,-187 259.78,-187 259.78,-151 366.22,-151 366.22,-187"/>
<text text-anchor="middle" x="313" y="-164.8" font-family="Times,serif" font-size="14.00">UnitListModule</text>
</g>
<!-- ToggleLinkCellComponent&#45;&gt;UnitListModule -->
<g id="edge1" class="edge">
<title>ToggleLinkCellComponent&#45;&gt;UnitListModule</title>
<path fill="none" stroke="black" d="M663,-122.28C663,-143.32 663,-175 663,-175 663,-175 376.16,-175 376.16,-175"/>
<polygon fill="black" stroke="black" points="376.16,-171.5 366.16,-175 376.16,-178.5 376.16,-171.5"/>
</g>
<!-- UnitListComponent -->
<g id="node2" class="node">
<title>UnitListComponent</title>
<polygon fill="#ffffb3" stroke="black" points="560,-122 432,-122 432,-86 560,-86 560,-122"/>
<text text-anchor="middle" x="496" y="-99.8" font-family="Times,serif" font-size="14.00">UnitListComponent</text>
</g>
<!-- UnitListComponent&#45;&gt;UnitListModule -->
<g id="edge2" class="edge">
<title>UnitListComponent&#45;&gt;UnitListModule</title>
<path fill="none" stroke="black" d="M496,-122.02C496,-139.37 496,-163 496,-163 496,-163 376.42,-163 376.42,-163"/>
<polygon fill="black" stroke="black" points="376.42,-159.5 366.42,-163 376.42,-166.5 376.42,-159.5"/>
</g>
<!-- I18nModule -->
<g id="node4" class="node">
<title>I18nModule</title>
<polygon fill="#8dd3c7" stroke="black" points="407.71,-122 404.71,-126 383.71,-126 380.71,-122 322.29,-122 322.29,-86 407.71,-86 407.71,-122"/>
<text text-anchor="middle" x="365" y="-99.8" font-family="Times,serif" font-size="14.00">I18nModule</text>
</g>
<!-- I18nModule&#45;&gt;UnitListModule -->
<g id="edge3" class="edge">
<title>I18nModule&#45;&gt;UnitListModule</title>
<path fill="none" stroke="black" d="M344.25,-122.11C344.25,-122.11 344.25,-140.99 344.25,-140.99"/>
<polygon fill="black" stroke="black" points="340.75,-140.99 344.25,-150.99 347.75,-140.99 340.75,-140.99"/>
</g>
<!-- IconModule -->
<g id="node5" class="node">
<title>IconModule</title>
<polygon fill="#8dd3c7" stroke="black" points="304.43,-122 301.43,-126 280.43,-126 277.43,-122 219.57,-122 219.57,-86 304.43,-86 304.43,-122"/>
<text text-anchor="middle" x="262" y="-99.8" font-family="Times,serif" font-size="14.00">IconModule</text>
</g>
<!-- IconModule&#45;&gt;UnitListModule -->
<g id="edge4" class="edge">
<title>IconModule&#45;&gt;UnitListModule</title>
<path fill="none" stroke="black" d="M282.05,-122.11C282.05,-122.11 282.05,-140.99 282.05,-140.99"/>
<polygon fill="black" stroke="black" points="278.55,-140.99 282.05,-150.99 285.55,-140.99 278.55,-140.99"/>
</g>
<!-- ListModule -->
<g id="node6" class="node">
<title>ListModule</title>
<polygon fill="#8dd3c7" stroke="black" points="201.83,-122 198.83,-126 177.83,-126 174.83,-122 120.17,-122 120.17,-86 201.83,-86 201.83,-122"/>
<text text-anchor="middle" x="161" y="-99.8" font-family="Times,serif" font-size="14.00">ListModule</text>
</g>
<!-- ListModule&#45;&gt;UnitListModule -->
<g id="edge5" class="edge">
<title>ListModule&#45;&gt;UnitListModule</title>
<path fill="none" stroke="black" d="M161,-122.02C161,-139.37 161,-163 161,-163 161,-163 249.84,-163 249.84,-163"/>
<polygon fill="black" stroke="black" points="249.84,-166.5 259.84,-163 249.84,-159.5 249.84,-166.5"/>
</g>
<!-- UrlModule -->
<g id="node7" class="node">
<title>UrlModule</title>
<polygon fill="#8dd3c7" stroke="black" points="102.21,-122 99.21,-126 78.21,-126 75.21,-122 23.79,-122 23.79,-86 102.21,-86 102.21,-122"/>
<text text-anchor="middle" x="63" y="-99.8" font-family="Times,serif" font-size="14.00">UrlModule</text>
</g>
<!-- UrlModule&#45;&gt;UnitListModule -->
<g id="edge6" class="edge">
<title>UrlModule&#45;&gt;UnitListModule</title>
<path fill="none" stroke="black" d="M63,-122.28C63,-143.32 63,-175 63,-175 63,-175 249.68,-175 249.68,-175"/>
<polygon fill="black" stroke="black" points="249.68,-178.5 259.68,-175 249.68,-171.5 249.68,-178.5"/>
</g>
</g>
</svg>
