<?xml version="1.0" encoding="UTF-8" standalone="no"?>
<!DOCTYPE svg PUBLIC "-//W3C//DTD SVG 1.1//EN"
 "http://www.w3.org/Graphics/SVG/1.1/DTD/svg11.dtd">
<!-- Generated by graphviz version 2.47.3 (20210619.1520)
 -->
<!-- Title: dependencies Pages: 1 -->
<svg width="780pt" height="174pt"
 viewBox="0.00 0.00 780.00 173.80" xmlns="http://www.w3.org/2000/svg" xmlns:xlink="http://www.w3.org/1999/xlink">
<g id="graph0" class="graph" transform="scale(1 1) rotate(0) translate(4 169.8)">
<title>dependencies</title>
<polygon fill="white" stroke="transparent" points="-4,4 -4,-169.8 776,-169.8 776,4 -4,4"/>
<text text-anchor="middle" x="386" y="-8.2" font-family="sans-serif" font-size="14.00">dependencies</text>
<g id="clust1" class="cluster">
<title>cluster_UnitListModule</title>
<polygon fill="none" stroke="black" stroke-dasharray="1,5" points="8,-32.8 8,-157.8 764,-157.8 764,-32.8 8,-32.8"/>
</g>
<g id="clust5" class="cluster">
<title>cluster_UnitListModule_imports</title>
<polygon fill="none" stroke="black" points="356,-40.8 356,-92.8 756,-92.8 756,-40.8 356,-40.8"/>
</g>
<g id="clust2" class="cluster">
<title>cluster_UnitListModule_declarations</title>
<polygon fill="none" stroke="black" points="16,-40.8 16,-92.8 348,-92.8 348,-40.8 16,-40.8"/>
</g>
<!-- ToggleLinkCellComponent -->
<g id="node1" class="node">
<title>ToggleLinkCellComponent</title>
<polygon fill="#ffffb3" stroke="black" points="340.27,-84.8 169.73,-84.8 169.73,-48.8 340.27,-48.8 340.27,-84.8"/>
<text text-anchor="middle" x="255" y="-62.6" font-family="Times,serif" font-size="14.00">ToggleLinkCellComponent</text>
</g>
<!-- UnitListModule -->
<g id="node3" class="node">
<title>UnitListModule</title>
<polygon fill="#8dd3c7" stroke="black" points="505.22,-149.8 502.22,-153.8 481.22,-153.8 478.22,-149.8 398.78,-149.8 398.78,-113.8 505.22,-113.8 505.22,-149.8"/>
<text text-anchor="middle" x="452" y="-127.6" font-family="Times,serif" font-size="14.00">UnitListModule</text>
</g>
<!-- ToggleLinkCellComponent&#45;&gt;UnitListModule -->
<g id="edge1" class="edge">
<title>ToggleLinkCellComponent&#45;&gt;UnitListModule</title>
<path fill="none" stroke="black" d="M255,-84.82C255,-102.17 255,-125.8 255,-125.8 255,-125.8 388.69,-125.8 388.69,-125.8"/>
<polygon fill="black" stroke="black" points="388.69,-129.3 398.69,-125.8 388.69,-122.3 388.69,-129.3"/>
</g>
<!-- UnitListComponent -->
<g id="node2" class="node">
<title>UnitListComponent</title>
<polygon fill="#ffffb3" stroke="black" points="152,-84.8 24,-84.8 24,-48.8 152,-48.8 152,-84.8"/>
<text text-anchor="middle" x="88" y="-62.6" font-family="Times,serif" font-size="14.00">UnitListComponent</text>
</g>
<!-- UnitListComponent&#45;&gt;UnitListModule -->
<g id="edge2" class="edge">
<title>UnitListComponent&#45;&gt;UnitListModule</title>
<path fill="none" stroke="black" d="M88,-85.08C88,-106.12 88,-137.8 88,-137.8 88,-137.8 388.68,-137.8 388.68,-137.8"/>
<polygon fill="black" stroke="black" points="388.68,-141.3 398.68,-137.8 388.68,-134.3 388.68,-141.3"/>
</g>
<!-- I18nModule -->
<g id="node4" class="node">
<title>I18nModule</title>
<polygon fill="#8dd3c7" stroke="black" points="747.71,-84.8 744.71,-88.8 723.71,-88.8 720.71,-84.8 662.29,-84.8 662.29,-48.8 747.71,-48.8 747.71,-84.8"/>
<text text-anchor="middle" x="705" y="-62.6" font-family="Times,serif" font-size="14.00">I18nModule</text>
</g>
<!-- I18nModule&#45;&gt;UnitListModule -->
<g id="edge3" class="edge">
<title>I18nModule&#45;&gt;UnitListModule</title>
<path fill="none" stroke="black" d="M705,-85.08C705,-106.12 705,-137.8 705,-137.8 705,-137.8 515.35,-137.8 515.35,-137.8"/>
<polygon fill="black" stroke="black" points="515.35,-134.3 505.35,-137.8 515.35,-141.3 515.35,-134.3"/>
</g>
<!-- IconModule -->
<g id="node5" class="node">
<title>IconModule</title>
<polygon fill="#8dd3c7" stroke="black" points="644.43,-84.8 641.43,-88.8 620.43,-88.8 617.43,-84.8 559.57,-84.8 559.57,-48.8 644.43,-48.8 644.43,-84.8"/>
<text text-anchor="middle" x="602" y="-62.6" font-family="Times,serif" font-size="14.00">IconModule</text>
</g>
<!-- IconModule&#45;&gt;UnitListModule -->
<g id="edge4" class="edge">
<title>IconModule&#45;&gt;UnitListModule</title>
<path fill="none" stroke="black" d="M602,-84.82C602,-102.17 602,-125.8 602,-125.8 602,-125.8 515.31,-125.8 515.31,-125.8"/>
<polygon fill="black" stroke="black" points="515.31,-122.3 505.31,-125.8 515.31,-129.3 515.31,-122.3"/>
</g>
<!-- ListModule -->
<g id="node6" class="node">
<title>ListModule</title>
<polygon fill="#8dd3c7" stroke="black" points="541.83,-84.8 538.83,-88.8 517.83,-88.8 514.83,-84.8 460.17,-84.8 460.17,-48.8 541.83,-48.8 541.83,-84.8"/>
<text text-anchor="middle" x="501" y="-62.6" font-family="Times,serif" font-size="14.00">ListModule</text>
</g>
<!-- ListModule&#45;&gt;UnitListModule -->
<g id="edge5" class="edge">
<title>ListModule&#45;&gt;UnitListModule</title>
<path fill="none" stroke="black" d="M482.72,-84.91C482.72,-84.91 482.72,-103.79 482.72,-103.79"/>
<polygon fill="black" stroke="black" points="479.22,-103.79 482.72,-113.79 486.22,-103.79 479.22,-103.79"/>
</g>
<!-- UrlModule -->
<g id="node7" class="node">
<title>UrlModule</title>
<polygon fill="#8dd3c7" stroke="black" points="442.21,-84.8 439.21,-88.8 418.21,-88.8 415.21,-84.8 363.79,-84.8 363.79,-48.8 442.21,-48.8 442.21,-84.8"/>
<text text-anchor="middle" x="403" y="-62.6" font-family="Times,serif" font-size="14.00">UrlModule</text>
</g>
<!-- UrlModule&#45;&gt;UnitListModule -->
<g id="edge6" class="edge">
<title>UrlModule&#45;&gt;UnitListModule</title>
<path fill="none" stroke="black" d="M420.5,-84.91C420.5,-84.91 420.5,-103.79 420.5,-103.79"/>
<polygon fill="black" stroke="black" points="417,-103.79 420.5,-113.79 424,-103.79 417,-103.79"/>
</g>
</g>
</svg>
