<?xml version="1.0" encoding="UTF-8" standalone="no"?>
<!DOCTYPE svg PUBLIC "-//W3C//DTD SVG 1.1//EN"
 "http://www.w3.org/Graphics/SVG/1.1/DTD/svg11.dtd">
<!-- Generated by graphviz version 2.40.1 (20161225.0304)
 -->
<!-- Title: dependencies Pages: 1 -->
<svg width="1148pt" height="396pt"
 viewBox="0.00 0.00 1148.00 395.59" xmlns="http://www.w3.org/2000/svg" xmlns:xlink="http://www.w3.org/1999/xlink">
<g id="graph0" class="graph" transform="scale(1 1) rotate(0) translate(4 391.5901)">
<title>dependencies</title>
<polygon fill="#ffffff" stroke="transparent" points="-4,4 -4,-391.5901 1144,-391.5901 1144,4 -4,4"/>
<text text-anchor="start" x="549.0091" y="-42.4" font-family="sans-serif" font-weight="bold" font-size="14.00" fill="#000000">Legend</text>
<polygon fill="#ffffb3" stroke="transparent" points="336,-10 336,-30 356,-30 356,-10 336,-10"/>
<text text-anchor="start" x="359.629" y="-15.4" font-family="sans-serif" font-size="14.00" fill="#000000"> &#160;Declarations</text>
<polygon fill="#8dd3c7" stroke="transparent" points="449,-10 449,-30 469,-30 469,-10 449,-10"/>
<text text-anchor="start" x="472.7251" y="-15.4" font-family="sans-serif" font-size="14.00" fill="#000000"> &#160;Module</text>
<polygon fill="#80b1d3" stroke="transparent" points="535,-10 535,-30 555,-30 555,-10 535,-10"/>
<text text-anchor="start" x="558.7812" y="-15.4" font-family="sans-serif" font-size="14.00" fill="#000000"> &#160;Bootstrap</text>
<polygon fill="#fdb462" stroke="transparent" points="632,-10 632,-30 652,-30 652,-10 632,-10"/>
<text text-anchor="start" x="655.6732" y="-15.4" font-family="sans-serif" font-size="14.00" fill="#000000"> &#160;Providers</text>
<polygon fill="#fb8072" stroke="transparent" points="728,-10 728,-30 748,-30 748,-10 728,-10"/>
<text text-anchor="start" x="751.7258" y="-15.4" font-family="sans-serif" font-size="14.00" fill="#000000"> &#160;Exports</text>
<g id="clust1" class="cluster">
<title>cluster_CostCenterDetailsModule</title>
<polygon fill="none" stroke="#000000" stroke-dasharray="1,5" points="8,-70 8,-379.5901 1132,-379.5901 1132,-70 8,-70"/>
</g>
<g id="clust2" class="cluster">
<title>cluster_CostCenterDetailsModule_declarations</title>
<polygon fill="none" stroke="#000000" points="924,-189.5901 924,-241.5901 1124,-241.5901 1124,-189.5901 924,-189.5901"/>
</g>
<g id="clust3" class="cluster">
<title>cluster_CostCenterDetailsModule_CostCenterDetailsComponent_providers</title>
<polygon fill="none" stroke="#000000" points="596,-78 596,-176.5901 1124,-176.5901 1124,-78 596,-78"/>
</g>
<g id="clust4" class="cluster">
<title>cluster_CostCenterDetailsModule_imports</title>
<polygon fill="none" stroke="#000000" points="16,-189.5901 16,-241.5901 916,-241.5901 916,-189.5901 16,-189.5901"/>
</g>
<g id="clust5" class="cluster">
<title>cluster_CostCenterDetailsModule_exports</title>
<polygon fill="none" stroke="#000000" points="456,-319.5901 456,-371.5901 660,-371.5901 660,-319.5901 456,-319.5901"/>
</g>
<!-- CostCenterDetailsComponent -->
<g id="node1" class="node">
<title>CostCenterDetailsComponent</title>
<polygon fill="#ffffb3" stroke="#000000" points="1115.9734,-233.5901 932.0266,-233.5901 932.0266,-197.5901 1115.9734,-197.5901 1115.9734,-233.5901"/>
<text text-anchor="middle" x="1024" y="-211.3901" font-family="Times,serif" font-size="14.00" fill="#000000">CostCenterDetailsComponent</text>
</g>
<!-- CostCenterDetailsModule -->
<g id="node2" class="node">
<title>CostCenterDetailsModule</title>
<polygon fill="#8dd3c7" stroke="#000000" points="639.1909,-298.5901 636.1909,-302.5901 615.1909,-302.5901 612.1909,-298.5901 476.8091,-298.5901 476.8091,-262.5901 639.1909,-262.5901 639.1909,-298.5901"/>
<text text-anchor="middle" x="558" y="-276.3901" font-family="Times,serif" font-size="14.00" fill="#000000">CostCenterDetailsModule</text>
</g>
<!-- CostCenterDetailsComponent&#45;&gt;CostCenterDetailsModule -->
<g id="edge1" class="edge">
<title>CostCenterDetailsComponent&#45;&gt;CostCenterDetailsModule</title>
<path fill="none" stroke="#000000" d="M1024,-233.8822C1024,-255.7957 1024,-289.5901 1024,-289.5901 1024,-289.5901 649.171,-289.5901 649.171,-289.5901"/>
<polygon fill="#000000" stroke="#000000" points="649.171,-286.0902 639.171,-289.5901 649.171,-293.0902 649.171,-286.0902"/>
</g>
<!-- CostCenterDetailsComponent  -->
<g id="node11" class="node">
<title>CostCenterDetailsComponent </title>
<polygon fill="#fb8072" stroke="#000000" points="651.974,-363.5901 464.026,-363.5901 464.026,-327.5901 651.974,-327.5901 651.974,-363.5901"/>
<text text-anchor="middle" x="558" y="-341.3901" font-family="Times,serif" font-size="14.00" fill="#000000">CostCenterDetailsComponent </text>
</g>
<!-- CostCenterDetailsModule&#45;&gt;CostCenterDetailsComponent  -->
<g id="edge10" class="edge">
<title>CostCenterDetailsModule&#45;&gt;CostCenterDetailsComponent </title>
<path fill="none" stroke="#000000" stroke-dasharray="5,2" d="M558,-298.6962C558,-298.6962 558,-317.581 558,-317.581"/>
<polygon fill="#000000" stroke="#000000" points="554.5001,-317.581 558,-327.581 561.5001,-317.5811 554.5001,-317.581"/>
</g>
<!-- {
 &#160;&#160;&#160;provide: ItemService, useExisting: CostCenterItemService,
} -->
<g id="node3" class="node">
<title>{
 &#160;&#160;&#160;provide: ItemService, useExisting: CostCenterItemService,
}</title>
<ellipse fill="#fdb462" stroke="#000000" cx="860" cy="-127.295" rx="255.9251" ry="41.0911"/>
<text text-anchor="middle" x="860" y="-139.895" font-family="Times,serif" font-size="14.00" fill="#000000">{</text>
<text text-anchor="middle" x="860" y="-123.095" font-family="Times,serif" font-size="14.00" fill="#000000"> &#160;&#160;&#160;provide: ItemService, useExisting: CostCenterItemService,</text>
<text text-anchor="middle" x="860" y="-106.295" font-family="Times,serif" font-size="14.00" fill="#000000">}</text>
</g>
<!-- {
 &#160;&#160;&#160;provide: ItemService, useExisting: CostCenterItemService,
}&#45;&gt;CostCenterDetailsComponent -->
<g id="edge2" class="edge">
<title>{
 &#160;&#160;&#160;provide: ItemService, useExisting: CostCenterItemService,
}&#45;&gt;CostCenterDetailsComponent</title>
<path fill="none" stroke="#000000" d="M1023.8629,-159.1716C1023.8629,-159.1716 1023.8629,-187.3756 1023.8629,-187.3756"/>
<polygon fill="#000000" stroke="#000000" points="1020.363,-187.3756 1023.8629,-197.3756 1027.363,-187.3756 1020.363,-187.3756"/>
</g>
<!-- CardModule -->
<g id="node4" class="node">
<title>CardModule</title>
<polygon fill="#8dd3c7" stroke="#000000" points="908.2619,-233.5901 905.2619,-237.5901 884.2619,-237.5901 881.2619,-233.5901 821.7381,-233.5901 821.7381,-197.5901 908.2619,-197.5901 908.2619,-233.5901"/>
<text text-anchor="middle" x="865" y="-211.3901" font-family="Times,serif" font-size="14.00" fill="#000000">CardModule</text>
</g>
<!-- CardModule&#45;&gt;CostCenterDetailsModule -->
<g id="edge3" class="edge">
<title>CardModule&#45;&gt;CostCenterDetailsModule</title>
<path fill="none" stroke="#000000" d="M865,-233.6962C865,-252.9292 865,-280.5901 865,-280.5901 865,-280.5901 649.4644,-280.5901 649.4644,-280.5901"/>
<polygon fill="#000000" stroke="#000000" points="649.4644,-277.0902 639.4644,-280.5901 649.4643,-284.0902 649.4644,-277.0902"/>
</g>
<!-- DisableInfoModule -->
<g id="node5" class="node">
<title>DisableInfoModule</title>
<polygon fill="#8dd3c7" stroke="#000000" points="803.6331,-233.5901 800.6331,-237.5901 779.6331,-237.5901 776.6331,-233.5901 678.3669,-233.5901 678.3669,-197.5901 803.6331,-197.5901 803.6331,-233.5901"/>
<text text-anchor="middle" x="741" y="-211.3901" font-family="Times,serif" font-size="14.00" fill="#000000">DisableInfoModule</text>
</g>
<!-- DisableInfoModule&#45;&gt;CostCenterDetailsModule -->
<g id="edge4" class="edge">
<title>DisableInfoModule&#45;&gt;CostCenterDetailsModule</title>
<path fill="none" stroke="#000000" d="M741,-233.6171C741,-249.9877 741,-271.5901 741,-271.5901 741,-271.5901 649.3322,-271.5901 649.3322,-271.5901"/>
<polygon fill="#000000" stroke="#000000" points="649.3322,-268.0902 639.3322,-271.5901 649.3321,-275.0902 649.3322,-268.0902"/>
</g>
<!-- I18nModule -->
<g id="node6" class="node">
<title>I18nModule</title>
<polygon fill="#8dd3c7" stroke="#000000" points="660.7107,-233.5901 657.7107,-237.5901 636.7107,-237.5901 633.7107,-233.5901 575.2893,-233.5901 575.2893,-197.5901 660.7107,-197.5901 660.7107,-233.5901"/>
<text text-anchor="middle" x="618" y="-211.3901" font-family="Times,serif" font-size="14.00" fill="#000000">I18nModule</text>
</g>
<!-- I18nModule&#45;&gt;CostCenterDetailsModule -->
<g id="edge5" class="edge">
<title>I18nModule&#45;&gt;CostCenterDetailsModule</title>
<path fill="none" stroke="#000000" d="M607.2451,-233.6962C607.2451,-233.6962 607.2451,-252.581 607.2451,-252.581"/>
<polygon fill="#000000" stroke="#000000" points="603.7452,-252.581 607.2451,-262.581 610.7452,-252.5811 603.7452,-252.581"/>
</g>
<!-- ItemExistsModule -->
<g id="node7" class="node">
<title>ItemExistsModule</title>
<polygon fill="#8dd3c7" stroke="#000000" points="557.93,-233.5901 554.93,-237.5901 533.93,-237.5901 530.93,-233.5901 438.07,-233.5901 438.07,-197.5901 557.93,-197.5901 557.93,-233.5901"/>
<text text-anchor="middle" x="498" y="-211.3901" font-family="Times,serif" font-size="14.00" fill="#000000">ItemExistsModule</text>
</g>
<!-- ItemExistsModule&#45;&gt;CostCenterDetailsModule -->
<g id="edge6" class="edge">
<title>ItemExistsModule&#45;&gt;CostCenterDetailsModule</title>
<path fill="none" stroke="#000000" d="M517.3096,-233.6962C517.3096,-233.6962 517.3096,-252.581 517.3096,-252.581"/>
<polygon fill="#000000" stroke="#000000" points="513.8097,-252.581 517.3096,-262.581 520.8097,-252.5811 513.8097,-252.581"/>
</g>
<!-- KeyboardFocusModule -->
<g id="node8" class="node">
<title>KeyboardFocusModule</title>
<polygon fill="#8dd3c7" stroke="#000000" points="420.1881,-233.5901 417.1881,-237.5901 396.1881,-237.5901 393.1881,-233.5901 271.8119,-233.5901 271.8119,-197.5901 420.1881,-197.5901 420.1881,-233.5901"/>
<text text-anchor="middle" x="346" y="-211.3901" font-family="Times,serif" font-size="14.00" fill="#000000">KeyboardFocusModule</text>
</g>
<!-- KeyboardFocusModule&#45;&gt;CostCenterDetailsModule -->
<g id="edge7" class="edge">
<title>KeyboardFocusModule&#45;&gt;CostCenterDetailsModule</title>
<path fill="none" stroke="#000000" d="M346,-233.6171C346,-249.9877 346,-271.5901 346,-271.5901 346,-271.5901 466.6416,-271.5901 466.6416,-271.5901"/>
<polygon fill="#000000" stroke="#000000" points="466.6416,-275.0902 476.6416,-271.5901 466.6415,-268.0902 466.6416,-275.0902"/>
</g>
<!-- ToggleStatusModule -->
<g id="node9" class="node">
<title>ToggleStatusModule</title>
<polygon fill="#8dd3c7" stroke="#000000" points="253.9313,-233.5901 250.9313,-237.5901 229.9313,-237.5901 226.9313,-233.5901 120.0687,-233.5901 120.0687,-197.5901 253.9313,-197.5901 253.9313,-233.5901"/>
<text text-anchor="middle" x="187" y="-211.3901" font-family="Times,serif" font-size="14.00" fill="#000000">ToggleStatusModule</text>
</g>
<!-- ToggleStatusModule&#45;&gt;CostCenterDetailsModule -->
<g id="edge8" class="edge">
<title>ToggleStatusModule&#45;&gt;CostCenterDetailsModule</title>
<path fill="none" stroke="#000000" d="M187,-233.6962C187,-252.9292 187,-280.5901 187,-280.5901 187,-280.5901 466.5825,-280.5901 466.5825,-280.5901"/>
<polygon fill="#000000" stroke="#000000" points="466.5825,-284.0902 476.5825,-280.5901 466.5824,-277.0902 466.5825,-284.0902"/>
</g>
<!-- UrlModule -->
<g id="node10" class="node">
<title>UrlModule</title>
<polygon fill="#8dd3c7" stroke="#000000" points="102.2079,-233.5901 99.2079,-237.5901 78.2079,-237.5901 75.2079,-233.5901 23.7921,-233.5901 23.7921,-197.5901 102.2079,-197.5901 102.2079,-233.5901"/>
<text text-anchor="middle" x="63" y="-211.3901" font-family="Times,serif" font-size="14.00" fill="#000000">UrlModule</text>
</g>
<!-- UrlModule&#45;&gt;CostCenterDetailsModule -->
<g id="edge9" class="edge">
<title>UrlModule&#45;&gt;CostCenterDetailsModule</title>
<path fill="none" stroke="#000000" d="M63,-233.8822C63,-255.7957 63,-289.5901 63,-289.5901 63,-289.5901 466.8151,-289.5901 466.8151,-289.5901"/>
<polygon fill="#000000" stroke="#000000" points="466.8151,-293.0902 476.8151,-289.5901 466.8151,-286.0902 466.8151,-293.0902"/>
</g>
</g>
</svg>
