<?xml version="1.0" encoding="UTF-8" standalone="no"?>
<!DOCTYPE svg PUBLIC "-//W3C//DTD SVG 1.1//EN"
 "http://www.w3.org/Graphics/SVG/1.1/DTD/svg11.dtd">
<!-- Generated by graphviz version 2.47.0 (20210316.0004)
 -->
<!-- Title: dependencies Pages: 1 -->
<svg width="1148pt" height="396pt"
 viewBox="0.00 0.00 1148.00 395.59" xmlns="http://www.w3.org/2000/svg" xmlns:xlink="http://www.w3.org/1999/xlink">
<g id="graph0" class="graph" transform="scale(1 1) rotate(0) translate(4 391.59)">
<title>dependencies</title>
<polygon fill="white" stroke="transparent" points="-4,4 -4,-391.59 1144,-391.59 1144,4 -4,4"/>
<text text-anchor="start" x="549.01" y="-42.4" font-family="sans-serif" font-weight="bold" font-size="14.00">Legend</text>
<polygon fill="#ffffb3" stroke="transparent" points="336,-10 336,-30 356,-30 356,-10 336,-10"/>
<text text-anchor="start" x="359.63" y="-15.4" font-family="sans-serif" font-size="14.00"> &#160;Declarations</text>
<polygon fill="#8dd3c7" stroke="transparent" points="449,-10 449,-30 469,-30 469,-10 449,-10"/>
<text text-anchor="start" x="472.73" y="-15.4" font-family="sans-serif" font-size="14.00"> &#160;Module</text>
<polygon fill="#80b1d3" stroke="transparent" points="535,-10 535,-30 555,-30 555,-10 535,-10"/>
<text text-anchor="start" x="558.78" y="-15.4" font-family="sans-serif" font-size="14.00"> &#160;Bootstrap</text>
<polygon fill="#fdb462" stroke="transparent" points="632,-10 632,-30 652,-30 652,-10 632,-10"/>
<text text-anchor="start" x="655.67" y="-15.4" font-family="sans-serif" font-size="14.00"> &#160;Providers</text>
<polygon fill="#fb8072" stroke="transparent" points="728,-10 728,-30 748,-30 748,-10 728,-10"/>
<text text-anchor="start" x="751.73" y="-15.4" font-family="sans-serif" font-size="14.00"> &#160;Exports</text>
<g id="clust1" class="cluster">
<title>cluster_CostCenterDetailsModule</title>
<polygon fill="none" stroke="black" stroke-dasharray="1,5" points="8,-70 8,-379.59 1132,-379.59 1132,-70 8,-70"/>
</g>
<g id="clust5" class="cluster">
<title>cluster_CostCenterDetailsModule_exports</title>
<polygon fill="none" stroke="black" points="528,-319.59 528,-371.59 732,-371.59 732,-319.59 528,-319.59"/>
</g>
<g id="clust4" class="cluster">
<title>cluster_CostCenterDetailsModule_imports</title>
<polygon fill="none" stroke="black" points="224,-189.59 224,-241.59 1124,-241.59 1124,-189.59 224,-189.59"/>
</g>
<g id="clust2" class="cluster">
<title>cluster_CostCenterDetailsModule_declarations</title>
<polygon fill="none" stroke="black" points="16,-189.59 16,-241.59 216,-241.59 216,-189.59 16,-189.59"/>
</g>
<g id="clust3" class="cluster">
<title>cluster_CostCenterDetailsModule_CostCenterDetailsComponent_providers</title>
<polygon fill="none" stroke="black" points="16,-78 16,-176.59 544,-176.59 544,-78 16,-78"/>
</g>
<!-- CostCenterDetailsComponent -->
<g id="node1" class="node">
<title>CostCenterDetailsComponent</title>
<polygon fill="#ffffb3" stroke="black" points="207.97,-233.59 24.03,-233.59 24.03,-197.59 207.97,-197.59 207.97,-233.59"/>
<text text-anchor="middle" x="116" y="-211.39" font-family="Times,serif" font-size="14.00">CostCenterDetailsComponent</text>
</g>
<!-- CostCenterDetailsModule -->
<g id="node2" class="node">
<title>CostCenterDetailsModule</title>
<polygon fill="#8dd3c7" stroke="black" points="711.19,-298.59 708.19,-302.59 687.19,-302.59 684.19,-298.59 548.81,-298.59 548.81,-262.59 711.19,-262.59 711.19,-298.59"/>
<text text-anchor="middle" x="630" y="-276.39" font-family="Times,serif" font-size="14.00">CostCenterDetailsModule</text>
</g>
<!-- CostCenterDetailsComponent&#45;&gt;CostCenterDetailsModule -->
<g id="edge1" class="edge">
<title>CostCenterDetailsComponent&#45;&gt;CostCenterDetailsModule</title>
<path fill="none" stroke="black" d="M116,-233.88C116,-255.8 116,-289.59 116,-289.59 116,-289.59 538.84,-289.59 538.84,-289.59"/>
<polygon fill="black" stroke="black" points="538.84,-293.09 548.84,-289.59 538.84,-286.09 538.84,-293.09"/>
</g>
<!-- CostCenterDetailsComponent  -->
<g id="node11" class="node">
<title>CostCenterDetailsComponent </title>
<polygon fill="#fb8072" stroke="black" points="723.97,-363.59 536.03,-363.59 536.03,-327.59 723.97,-327.59 723.97,-363.59"/>
<text text-anchor="middle" x="630" y="-341.39" font-family="Times,serif" font-size="14.00">CostCenterDetailsComponent </text>
</g>
<!-- CostCenterDetailsModule&#45;&gt;CostCenterDetailsComponent  -->
<g id="edge10" class="edge">
<title>CostCenterDetailsModule&#45;&gt;CostCenterDetailsComponent </title>
<path fill="none" stroke="black" stroke-dasharray="5,2" d="M630,-298.7C630,-298.7 630,-317.58 630,-317.58"/>
<polygon fill="black" stroke="black" points="626.5,-317.58 630,-327.58 633.5,-317.58 626.5,-317.58"/>
</g>
<!-- {
 &#160;&#160;&#160;provide: ItemService, useExisting: CostCenterItemService,
} -->
<g id="node3" class="node">
<title>{
 &#160;&#160;&#160;provide: ItemService, useExisting: CostCenterItemService,
}</title>
<ellipse fill="#fdb462" stroke="black" cx="280" cy="-127.3" rx="255.93" ry="41.09"/>
<text text-anchor="middle" x="280" y="-139.9" font-family="Times,serif" font-size="14.00">{</text>
<text text-anchor="middle" x="280" y="-123.1" font-family="Times,serif" font-size="14.00"> &#160;&#160;&#160;provide: ItemService, useExisting: CostCenterItemService,</text>
<text text-anchor="middle" x="280" y="-106.3" font-family="Times,serif" font-size="14.00">}</text>
</g>
<!-- {
 &#160;&#160;&#160;provide: ItemService, useExisting: CostCenterItemService,
}&#45;&gt;CostCenterDetailsComponent -->
<g id="edge2" class="edge">
<title>{
 &#160;&#160;&#160;provide: ItemService, useExisting: CostCenterItemService,
}&#45;&gt;CostCenterDetailsComponent</title>
<path fill="none" stroke="black" d="M116.14,-159.17C116.14,-159.17 116.14,-187.38 116.14,-187.38"/>
<polygon fill="black" stroke="black" points="112.64,-187.38 116.14,-197.38 119.64,-187.38 112.64,-187.38"/>
</g>
<!-- CardModule -->
<g id="node4" class="node">
<title>CardModule</title>
<polygon fill="#8dd3c7" stroke="black" points="1116.26,-233.59 1113.26,-237.59 1092.26,-237.59 1089.26,-233.59 1029.74,-233.59 1029.74,-197.59 1116.26,-197.59 1116.26,-233.59"/>
<text text-anchor="middle" x="1073" y="-211.39" font-family="Times,serif" font-size="14.00">CardModule</text>
</g>
<!-- CardModule&#45;&gt;CostCenterDetailsModule -->
<g id="edge3" class="edge">
<title>CardModule&#45;&gt;CostCenterDetailsModule</title>
<path fill="none" stroke="black" d="M1073,-233.88C1073,-255.8 1073,-289.59 1073,-289.59 1073,-289.59 721.25,-289.59 721.25,-289.59"/>
<polygon fill="black" stroke="black" points="721.25,-286.09 711.25,-289.59 721.25,-293.09 721.25,-286.09"/>
</g>
<!-- DisableInfoModule -->
<g id="node5" class="node">
<title>DisableInfoModule</title>
<polygon fill="#8dd3c7" stroke="black" points="1011.63,-233.59 1008.63,-237.59 987.63,-237.59 984.63,-233.59 886.37,-233.59 886.37,-197.59 1011.63,-197.59 1011.63,-233.59"/>
<text text-anchor="middle" x="949" y="-211.39" font-family="Times,serif" font-size="14.00">DisableInfoModule</text>
</g>
<!-- DisableInfoModule&#45;&gt;CostCenterDetailsModule -->
<g id="edge4" class="edge">
<title>DisableInfoModule&#45;&gt;CostCenterDetailsModule</title>
<path fill="none" stroke="black" d="M949,-233.7C949,-252.93 949,-280.59 949,-280.59 949,-280.59 721.32,-280.59 721.32,-280.59"/>
<polygon fill="black" stroke="black" points="721.32,-277.09 711.32,-280.59 721.32,-284.09 721.32,-277.09"/>
</g>
<!-- I18nModule -->
<g id="node6" class="node">
<title>I18nModule</title>
<polygon fill="#8dd3c7" stroke="black" points="868.71,-233.59 865.71,-237.59 844.71,-237.59 841.71,-233.59 783.29,-233.59 783.29,-197.59 868.71,-197.59 868.71,-233.59"/>
<text text-anchor="middle" x="826" y="-211.39" font-family="Times,serif" font-size="14.00">I18nModule</text>
</g>
<!-- I18nModule&#45;&gt;CostCenterDetailsModule -->
<g id="edge5" class="edge">
<title>I18nModule&#45;&gt;CostCenterDetailsModule</title>
<path fill="none" stroke="black" d="M826,-233.62C826,-249.99 826,-271.59 826,-271.59 826,-271.59 721.14,-271.59 721.14,-271.59"/>
<polygon fill="black" stroke="black" points="721.14,-268.09 711.14,-271.59 721.14,-275.09 721.14,-268.09"/>
</g>
<!-- ItemExistsModule -->
<g id="node7" class="node">
<title>ItemExistsModule</title>
<polygon fill="#8dd3c7" stroke="black" points="765.93,-233.59 762.93,-237.59 741.93,-237.59 738.93,-233.59 646.07,-233.59 646.07,-197.59 765.93,-197.59 765.93,-233.59"/>
<text text-anchor="middle" x="706" y="-211.39" font-family="Times,serif" font-size="14.00">ItemExistsModule</text>
</g>
<!-- ItemExistsModule&#45;&gt;CostCenterDetailsModule -->
<g id="edge6" class="edge">
<title>ItemExistsModule&#45;&gt;CostCenterDetailsModule</title>
<path fill="none" stroke="black" d="M678.69,-233.7C678.69,-233.7 678.69,-252.58 678.69,-252.58"/>
<polygon fill="black" stroke="black" points="675.19,-252.58 678.69,-262.58 682.19,-252.58 675.19,-252.58"/>
</g>
<!-- KeyboardFocusModule -->
<g id="node8" class="node">
<title>KeyboardFocusModule</title>
<polygon fill="#8dd3c7" stroke="black" points="628.19,-233.59 625.19,-237.59 604.19,-237.59 601.19,-233.59 479.81,-233.59 479.81,-197.59 628.19,-197.59 628.19,-233.59"/>
<text text-anchor="middle" x="554" y="-211.39" font-family="Times,serif" font-size="14.00">KeyboardFocusModule</text>
</g>
<!-- KeyboardFocusModule&#45;&gt;CostCenterDetailsModule -->
<g id="edge7" class="edge">
<title>KeyboardFocusModule&#45;&gt;CostCenterDetailsModule</title>
<path fill="none" stroke="black" d="M588.5,-233.7C588.5,-233.7 588.5,-252.58 588.5,-252.58"/>
<polygon fill="black" stroke="black" points="585,-252.58 588.5,-262.58 592,-252.58 585,-252.58"/>
</g>
<!-- ToggleStatusModule -->
<g id="node9" class="node">
<title>ToggleStatusModule</title>
<polygon fill="#8dd3c7" stroke="black" points="461.93,-233.59 458.93,-237.59 437.93,-237.59 434.93,-233.59 328.07,-233.59 328.07,-197.59 461.93,-197.59 461.93,-233.59"/>
<text text-anchor="middle" x="395" y="-211.39" font-family="Times,serif" font-size="14.00">ToggleStatusModule</text>
</g>
<!-- ToggleStatusModule&#45;&gt;CostCenterDetailsModule -->
<g id="edge8" class="edge">
<title>ToggleStatusModule&#45;&gt;CostCenterDetailsModule</title>
<path fill="none" stroke="black" d="M395,-233.62C395,-249.99 395,-271.59 395,-271.59 395,-271.59 538.8,-271.59 538.8,-271.59"/>
<polygon fill="black" stroke="black" points="538.8,-275.09 548.8,-271.59 538.8,-268.09 538.8,-275.09"/>
</g>
<!-- UrlModule -->
<g id="node10" class="node">
<title>UrlModule</title>
<polygon fill="#8dd3c7" stroke="black" points="310.21,-233.59 307.21,-237.59 286.21,-237.59 283.21,-233.59 231.79,-233.59 231.79,-197.59 310.21,-197.59 310.21,-233.59"/>
<text text-anchor="middle" x="271" y="-211.39" font-family="Times,serif" font-size="14.00">UrlModule</text>
</g>
<!-- UrlModule&#45;&gt;CostCenterDetailsModule -->
<g id="edge9" class="edge">
<title>UrlModule&#45;&gt;CostCenterDetailsModule</title>
<path fill="none" stroke="black" d="M271,-233.7C271,-252.93 271,-280.59 271,-280.59 271,-280.59 538.54,-280.59 538.54,-280.59"/>
<polygon fill="black" stroke="black" points="538.54,-284.09 548.54,-280.59 538.54,-277.09 538.54,-284.09"/>
</g>
</g>
</svg>
