<?xml version="1.0" encoding="UTF-8" standalone="no"?>
<!DOCTYPE svg PUBLIC "-//W3C//DTD SVG 1.1//EN"
 "http://www.w3.org/Graphics/SVG/1.1/DTD/svg11.dtd">
<!-- Generated by graphviz version 2.47.0 (20210316.0004)
 -->
<!-- Title: dependencies Pages: 1 -->
<svg width="504pt" height="211pt"
 viewBox="0.00 0.00 504.00 211.00" xmlns="http://www.w3.org/2000/svg" xmlns:xlink="http://www.w3.org/1999/xlink">
<g id="graph0" class="graph" transform="scale(1 1) rotate(0) translate(4 207)">
<title>dependencies</title>
<polygon fill="white" stroke="transparent" points="-4,4 -4,-207 500,-207 500,4 -4,4"/>
<text text-anchor="start" x="227.01" y="-42.4" font-family="sans-serif" font-weight="bold" font-size="14.00">Legend</text>
<polygon fill="#ffffb3" stroke="transparent" points="14,-10 14,-30 34,-30 34,-10 14,-10"/>
<text text-anchor="start" x="37.63" y="-15.4" font-family="sans-serif" font-size="14.00"> &#160;Declarations</text>
<polygon fill="#8dd3c7" stroke="transparent" points="127,-10 127,-30 147,-30 147,-10 127,-10"/>
<text text-anchor="start" x="150.73" y="-15.4" font-family="sans-serif" font-size="14.00"> &#160;Module</text>
<polygon fill="#80b1d3" stroke="transparent" points="213,-10 213,-30 233,-30 233,-10 213,-10"/>
<text text-anchor="start" x="236.78" y="-15.4" font-family="sans-serif" font-size="14.00"> &#160;Bootstrap</text>
<polygon fill="#fdb462" stroke="transparent" points="310,-10 310,-30 330,-30 330,-10 310,-10"/>
<text text-anchor="start" x="333.67" y="-15.4" font-family="sans-serif" font-size="14.00"> &#160;Providers</text>
<polygon fill="#fb8072" stroke="transparent" points="406,-10 406,-30 426,-30 426,-10 406,-10"/>
<text text-anchor="start" x="429.73" y="-15.4" font-family="sans-serif" font-size="14.00"> &#160;Exports</text>
<g id="clust1" class="cluster">
<title>cluster_UnitUsersModule</title>
<polygon fill="none" stroke="black" stroke-dasharray="1,5" points="85.5,-70 85.5,-195 410.5,-195 410.5,-70 85.5,-70"/>
</g>
<g id="clust3" class="cluster">
<title>cluster_UnitUsersModule_imports</title>
<polygon fill="none" stroke="black" points="93.5,-78 93.5,-130 402.5,-130 402.5,-78 93.5,-78"/>
</g>
<!-- UnitUserListModule -->
<g id="node1" class="node">
<title>UnitUserListModule</title>
<polygon fill="#8dd3c7" stroke="black" points="394.64,-122 391.64,-126 370.64,-126 367.64,-122 262.36,-122 262.36,-86 394.64,-86 394.64,-122"/>
<text text-anchor="middle" x="328.5" y="-99.8" font-family="Times,serif" font-size="14.00">UnitUserListModule</text>
</g>
<!-- UnitUsersModule -->
<g id="node3" class="node">
<title>UnitUsersModule</title>
<polygon fill="#8dd3c7" stroke="black" points="308.81,-187 305.81,-191 284.81,-191 281.81,-187 192.19,-187 192.19,-151 308.81,-151 308.81,-187"/>
<text text-anchor="middle" x="250.5" y="-164.8" font-family="Times,serif" font-size="14.00">UnitUsersModule</text>
</g>
<!-- UnitUserListModule&#45;&gt;UnitUsersModule -->
<g id="edge1" class="edge">
<title>UnitUserListModule&#45;&gt;UnitUsersModule</title>
<path fill="none" stroke="black" d="M285.42,-122.11C285.42,-122.11 285.42,-140.99 285.42,-140.99"/>
<polygon fill="black" stroke="black" points="281.92,-140.99 285.42,-150.99 288.92,-140.99 281.92,-140.99"/>
</g>
<!-- UnitUserRolesModule -->
<g id="node2" class="node">
<title>UnitUserRolesModule</title>
<polygon fill="#8dd3c7" stroke="black" points="243.75,-122 240.75,-126 219.75,-126 216.75,-122 101.25,-122 101.25,-86 243.75,-86 243.75,-122"/>
<text text-anchor="middle" x="172.5" y="-99.8" font-family="Times,serif" font-size="14.00">UnitUserRolesModule</text>
</g>
<!-- UnitUserRolesModule&#45;&gt;UnitUsersModule -->
<g id="edge2" class="edge">
<title>UnitUserRolesModule&#45;&gt;UnitUsersModule</title>
<path fill="none" stroke="black" d="M218.11,-122.11C218.11,-122.11 218.11,-140.99 218.11,-140.99"/>
<polygon fill="black" stroke="black" points="214.61,-140.99 218.11,-150.99 221.61,-140.99 214.61,-140.99"/>
</g>
</g>
</svg>
