<?xml version="1.0" encoding="UTF-8" standalone="no"?>
<!DOCTYPE svg PUBLIC "-//W3C//DTD SVG 1.1//EN"
 "http://www.w3.org/Graphics/SVG/1.1/DTD/svg11.dtd">
<!-- Generated by graphviz version 2.40.1 (20161225.0304)
 -->
<!-- Title: dependencies Pages: 1 -->
<svg width="504pt" height="211pt"
 viewBox="0.00 0.00 504.00 211.00" xmlns="http://www.w3.org/2000/svg" xmlns:xlink="http://www.w3.org/1999/xlink">
<g id="graph0" class="graph" transform="scale(1 1) rotate(0) translate(4 207)">
<title>dependencies</title>
<polygon fill="#ffffff" stroke="transparent" points="-4,4 -4,-207 500,-207 500,4 -4,4"/>
<text text-anchor="start" x="227.0091" y="-42.4" font-family="sans-serif" font-weight="bold" font-size="14.00" fill="#000000">Legend</text>
<polygon fill="#ffffb3" stroke="transparent" points="14,-10 14,-30 34,-30 34,-10 14,-10"/>
<text text-anchor="start" x="37.629" y="-15.4" font-family="sans-serif" font-size="14.00" fill="#000000"> &#160;Declarations</text>
<polygon fill="#8dd3c7" stroke="transparent" points="127,-10 127,-30 147,-30 147,-10 127,-10"/>
<text text-anchor="start" x="150.7251" y="-15.4" font-family="sans-serif" font-size="14.00" fill="#000000"> &#160;Module</text>
<polygon fill="#80b1d3" stroke="transparent" points="213,-10 213,-30 233,-30 233,-10 213,-10"/>
<text text-anchor="start" x="236.7812" y="-15.4" font-family="sans-serif" font-size="14.00" fill="#000000"> &#160;Bootstrap</text>
<polygon fill="#fdb462" stroke="transparent" points="310,-10 310,-30 330,-30 330,-10 310,-10"/>
<text text-anchor="start" x="333.6732" y="-15.4" font-family="sans-serif" font-size="14.00" fill="#000000"> &#160;Providers</text>
<polygon fill="#fb8072" stroke="transparent" points="406,-10 406,-30 426,-30 426,-10 406,-10"/>
<text text-anchor="start" x="429.7258" y="-15.4" font-family="sans-serif" font-size="14.00" fill="#000000"> &#160;Exports</text>
<g id="clust1" class="cluster">
<title>cluster_UnitUsersModule</title>
<polygon fill="none" stroke="#000000" stroke-dasharray="1,5" points="85.5,-70 85.5,-195 410.5,-195 410.5,-70 85.5,-70"/>
</g>
<g id="clust3" class="cluster">
<title>cluster_UnitUsersModule_imports</title>
<polygon fill="none" stroke="#000000" points="93.5,-78 93.5,-130 402.5,-130 402.5,-78 93.5,-78"/>
</g>
<!-- UnitUserListModule -->
<g id="node1" class="node">
<title>UnitUserListModule</title>
<polygon fill="#8dd3c7" stroke="#000000" points="394.6429,-122 391.6429,-126 370.6429,-126 367.6429,-122 262.3571,-122 262.3571,-86 394.6429,-86 394.6429,-122"/>
<text text-anchor="middle" x="328.5" y="-99.8" font-family="Times,serif" font-size="14.00" fill="#000000">UnitUserListModule</text>
</g>
<!-- UnitUsersModule -->
<g id="node3" class="node">
<title>UnitUsersModule</title>
<polygon fill="#8dd3c7" stroke="#000000" points="308.809,-187 305.809,-191 284.809,-191 281.809,-187 192.191,-187 192.191,-151 308.809,-151 308.809,-187"/>
<text text-anchor="middle" x="250.5" y="-164.8" font-family="Times,serif" font-size="14.00" fill="#000000">UnitUsersModule</text>
</g>
<!-- UnitUserListModule&#45;&gt;UnitUsersModule -->
<g id="edge1" class="edge">
<title>UnitUserListModule&#45;&gt;UnitUsersModule</title>
<path fill="none" stroke="#000000" d="M285.4165,-122.1061C285.4165,-122.1061 285.4165,-140.991 285.4165,-140.991"/>
<polygon fill="#000000" stroke="#000000" points="281.9166,-140.9909 285.4165,-150.991 288.9166,-140.991 281.9166,-140.9909"/>
</g>
<!-- UnitUserRolesModule -->
<g id="node2" class="node">
<title>UnitUserRolesModule</title>
<polygon fill="#8dd3c7" stroke="#000000" points="243.7506,-122 240.7506,-126 219.7506,-126 216.7506,-122 101.2494,-122 101.2494,-86 243.7506,-86 243.7506,-122"/>
<text text-anchor="middle" x="172.5" y="-99.8" font-family="Times,serif" font-size="14.00" fill="#000000">UnitUserRolesModule</text>
</g>
<!-- UnitUserRolesModule&#45;&gt;UnitUsersModule -->
<g id="edge2" class="edge">
<title>UnitUserRolesModule&#45;&gt;UnitUsersModule</title>
<path fill="none" stroke="#000000" d="M218.1105,-122.1061C218.1105,-122.1061 218.1105,-140.991 218.1105,-140.991"/>
<polygon fill="#000000" stroke="#000000" points="214.6105,-140.9909 218.1105,-150.991 221.6105,-140.991 214.6105,-140.9909"/>
</g>
</g>
</svg>
