<?xml version="1.0" encoding="UTF-8" standalone="no"?>
<!DOCTYPE svg PUBLIC "-//W3C//DTD SVG 1.1//EN"
 "http://www.w3.org/Graphics/SVG/1.1/DTD/svg11.dtd">
<!-- Generated by graphviz version 2.47.3 (20210619.1520)
 -->
<!-- Title: dependencies Pages: 1 -->
<svg width="349pt" height="174pt"
 viewBox="0.00 0.00 349.00 173.80" xmlns="http://www.w3.org/2000/svg" xmlns:xlink="http://www.w3.org/1999/xlink">
<g id="graph0" class="graph" transform="scale(1 1) rotate(0) translate(4 169.8)">
<title>dependencies</title>
<polygon fill="white" stroke="transparent" points="-4,4 -4,-169.8 345,-169.8 345,4 -4,4"/>
<text text-anchor="middle" x="170.5" y="-8.2" font-family="sans-serif" font-size="14.00">dependencies</text>
<g id="clust1" class="cluster">
<title>cluster_UnitUsersModule</title>
<polygon fill="none" stroke="black" stroke-dasharray="1,5" points="8,-32.8 8,-157.8 333,-157.8 333,-32.8 8,-32.8"/>
</g>
<g id="clust3" class="cluster">
<title>cluster_UnitUsersModule_imports</title>
<polygon fill="none" stroke="black" points="16,-40.8 16,-92.8 325,-92.8 325,-40.8 16,-40.8"/>
</g>
<!-- UnitUserListModule -->
<g id="node1" class="node">
<title>UnitUserListModule</title>
<polygon fill="#8dd3c7" stroke="black" points="317.14,-84.8 314.14,-88.8 293.14,-88.8 290.14,-84.8 184.86,-84.8 184.86,-48.8 317.14,-48.8 317.14,-84.8"/>
<text text-anchor="middle" x="251" y="-62.6" font-family="Times,serif" font-size="14.00">UnitUserListModule</text>
</g>
<!-- UnitUsersModule -->
<g id="node3" class="node">
<title>UnitUsersModule</title>
<polygon fill="#8dd3c7" stroke="black" points="231.31,-149.8 228.31,-153.8 207.31,-153.8 204.31,-149.8 114.69,-149.8 114.69,-113.8 231.31,-113.8 231.31,-149.8"/>
<text text-anchor="middle" x="173" y="-127.6" font-family="Times,serif" font-size="14.00">UnitUsersModule</text>
</g>
<!-- UnitUserListModule&#45;&gt;UnitUsersModule -->
<g id="edge1" class="edge">
<title>UnitUserListModule&#45;&gt;UnitUsersModule</title>
<path fill="none" stroke="black" d="M207.92,-84.91C207.92,-84.91 207.92,-103.79 207.92,-103.79"/>
<polygon fill="black" stroke="black" points="204.42,-103.79 207.92,-113.79 211.42,-103.79 204.42,-103.79"/>
</g>
<!-- UnitUserRolesModule -->
<g id="node2" class="node">
<title>UnitUserRolesModule</title>
<polygon fill="#8dd3c7" stroke="black" points="166.25,-84.8 163.25,-88.8 142.25,-88.8 139.25,-84.8 23.75,-84.8 23.75,-48.8 166.25,-48.8 166.25,-84.8"/>
<text text-anchor="middle" x="95" y="-62.6" font-family="Times,serif" font-size="14.00">UnitUserRolesModule</text>
</g>
<!-- UnitUserRolesModule&#45;&gt;UnitUsersModule -->
<g id="edge2" class="edge">
<title>UnitUserRolesModule&#45;&gt;UnitUsersModule</title>
<path fill="none" stroke="black" d="M140.61,-84.91C140.61,-84.91 140.61,-103.79 140.61,-103.79"/>
<polygon fill="black" stroke="black" points="137.11,-103.79 140.61,-113.79 144.11,-103.79 137.11,-103.79"/>
</g>
</g>
</svg>
