<?xml version="1.0" encoding="UTF-8" standalone="no"?>
<!DOCTYPE svg PUBLIC "-//W3C//DTD SVG 1.1//EN"
 "http://www.w3.org/Graphics/SVG/1.1/DTD/svg11.dtd">
<!-- Generated by graphviz version 2.46.0 (20210119.1425)
 -->
<!-- Title: dependencies Pages: 1 -->
<svg width="886pt" height="211pt"
 viewBox="0.00 0.00 886.00 211.00" xmlns="http://www.w3.org/2000/svg" xmlns:xlink="http://www.w3.org/1999/xlink">
<g id="graph0" class="graph" transform="scale(1 1) rotate(0) translate(4 207)">
<title>dependencies</title>
<polygon fill="white" stroke="transparent" points="-4,4 -4,-207 882,-207 882,4 -4,4"/>
<text text-anchor="start" x="418.01" y="-42.4" font-family="sans-serif" font-weight="bold" font-size="14.00">Legend</text>
<polygon fill="#ffffb3" stroke="transparent" points="205,-10 205,-30 225,-30 225,-10 205,-10"/>
<text text-anchor="start" x="228.63" y="-15.4" font-family="sans-serif" font-size="14.00"> &#160;Declarations</text>
<polygon fill="#8dd3c7" stroke="transparent" points="318,-10 318,-30 338,-30 338,-10 318,-10"/>
<text text-anchor="start" x="341.73" y="-15.4" font-family="sans-serif" font-size="14.00"> &#160;Module</text>
<polygon fill="#80b1d3" stroke="transparent" points="404,-10 404,-30 424,-30 424,-10 404,-10"/>
<text text-anchor="start" x="427.78" y="-15.4" font-family="sans-serif" font-size="14.00"> &#160;Bootstrap</text>
<polygon fill="#fdb462" stroke="transparent" points="501,-10 501,-30 521,-30 521,-10 501,-10"/>
<text text-anchor="start" x="524.67" y="-15.4" font-family="sans-serif" font-size="14.00"> &#160;Providers</text>
<polygon fill="#fb8072" stroke="transparent" points="597,-10 597,-30 617,-30 617,-10 597,-10"/>
<text text-anchor="start" x="620.73" y="-15.4" font-family="sans-serif" font-size="14.00"> &#160;Exports</text>
<g id="clust1" class="cluster">
<title>cluster_CommonConfiguratorComponentsModule</title>
<polygon fill="none" stroke="black" stroke-dasharray="1,5" points="8,-70 8,-195 870,-195 870,-70 8,-70"/>
</g>
<g id="clust3" class="cluster">
<title>cluster_CommonConfiguratorComponentsModule_imports</title>
<polygon fill="none" stroke="black" points="16,-78 16,-130 862,-130 862,-78 16,-78"/>
</g>
<!-- ConfiguratorCartEntryInfoModule -->
<g id="node1" class="node">
<title>ConfiguratorCartEntryInfoModule</title>
<polygon fill="#8dd3c7" stroke="black" points="854.39,-122 851.39,-126 830.39,-126 827.39,-122 643.61,-122 643.61,-86 854.39,-86 854.39,-122"/>
<text text-anchor="middle" x="749" y="-99.8" font-family="Times,serif" font-size="14.00">ConfiguratorCartEntryInfoModule</text>
</g>
<!-- CommonConfiguratorComponentsModule -->
<g id="node5" class="node">
<title>CommonConfiguratorComponentsModule</title>
<polygon fill="#8dd3c7" stroke="black" points="525.26,-187 522.26,-191 501.26,-191 498.26,-187 270.74,-187 270.74,-151 525.26,-151 525.26,-187"/>
<text text-anchor="middle" x="398" y="-164.8" font-family="Times,serif" font-size="14.00">CommonConfiguratorComponentsModule</text>
</g>
<!-- ConfiguratorCartEntryInfoModule&#45;&gt;CommonConfiguratorComponentsModule -->
<g id="edge1" class="edge">
<title>ConfiguratorCartEntryInfoModule&#45;&gt;CommonConfiguratorComponentsModule</title>
<path fill="none" stroke="black" d="M749,-122.11C749,-141.34 749,-169 749,-169 749,-169 535.71,-169 535.71,-169"/>
<polygon fill="black" stroke="black" points="535.71,-165.5 525.71,-169 535.71,-172.5 535.71,-165.5"/>
</g>
<!-- ConfiguratorIssuesNotificationModule -->
<g id="node2" class="node">
<title>ConfiguratorIssuesNotificationModule</title>
<polygon fill="#8dd3c7" stroke="black" points="625.72,-122 622.72,-126 601.72,-126 598.72,-122 392.28,-122 392.28,-86 625.72,-86 625.72,-122"/>
<text text-anchor="middle" x="509" y="-99.8" font-family="Times,serif" font-size="14.00">ConfiguratorIssuesNotificationModule</text>
</g>
<!-- ConfiguratorIssuesNotificationModule&#45;&gt;CommonConfiguratorComponentsModule -->
<g id="edge2" class="edge">
<title>ConfiguratorIssuesNotificationModule&#45;&gt;CommonConfiguratorComponentsModule</title>
<path fill="none" stroke="black" d="M458.76,-122.11C458.76,-122.11 458.76,-140.99 458.76,-140.99"/>
<polygon fill="black" stroke="black" points="455.26,-140.99 458.76,-150.99 462.26,-140.99 455.26,-140.99"/>
</g>
<!-- ConfigureCartEntryModule -->
<g id="node3" class="node">
<title>ConfigureCartEntryModule</title>
<polygon fill="#8dd3c7" stroke="black" points="373.52,-122 370.52,-126 349.52,-126 346.52,-122 202.48,-122 202.48,-86 373.52,-86 373.52,-122"/>
<text text-anchor="middle" x="288" y="-99.8" font-family="Times,serif" font-size="14.00">ConfigureCartEntryModule</text>
</g>
<!-- ConfigureCartEntryModule&#45;&gt;CommonConfiguratorComponentsModule -->
<g id="edge3" class="edge">
<title>ConfigureCartEntryModule&#45;&gt;CommonConfiguratorComponentsModule</title>
<path fill="none" stroke="black" d="M322.19,-122.11C322.19,-122.11 322.19,-140.99 322.19,-140.99"/>
<polygon fill="black" stroke="black" points="318.69,-140.99 322.19,-150.99 325.69,-140.99 318.69,-140.99"/>
</g>
<!-- ConfigureProductModule -->
<g id="node4" class="node">
<title>ConfigureProductModule</title>
<polygon fill="#8dd3c7" stroke="black" points="183.86,-122 180.86,-126 159.86,-126 156.86,-122 24.14,-122 24.14,-86 183.86,-86 183.86,-122"/>
<text text-anchor="middle" x="104" y="-99.8" font-family="Times,serif" font-size="14.00">ConfigureProductModule</text>
</g>
<!-- ConfigureProductModule&#45;&gt;CommonConfiguratorComponentsModule -->
<g id="edge4" class="edge">
<title>ConfigureProductModule&#45;&gt;CommonConfiguratorComponentsModule</title>
<path fill="none" stroke="black" d="M104,-122.11C104,-141.34 104,-169 104,-169 104,-169 260.33,-169 260.33,-169"/>
<polygon fill="black" stroke="black" points="260.33,-172.5 270.33,-169 260.33,-165.5 260.33,-172.5"/>
</g>
</g>
</svg>
