<?xml version="1.0" encoding="UTF-8" standalone="no"?>
<!DOCTYPE svg PUBLIC "-//W3C//DTD SVG 1.1//EN"
 "http://www.w3.org/Graphics/SVG/1.1/DTD/svg11.dtd">
<!-- Generated by graphviz version 2.47.0 (20210316.0004)
 -->
<!-- Title: dependencies Pages: 1 -->
<svg width="504pt" height="284pt"
 viewBox="0.00 0.00 504.00 284.00" xmlns="http://www.w3.org/2000/svg" xmlns:xlink="http://www.w3.org/1999/xlink">
<g id="graph0" class="graph" transform="scale(1 1) rotate(0) translate(4 280)">
<title>dependencies</title>
<polygon fill="white" stroke="transparent" points="-4,4 -4,-280 500,-280 500,4 -4,4"/>
<text text-anchor="start" x="227.01" y="-42.4" font-family="sans-serif" font-weight="bold" font-size="14.00">Legend</text>
<polygon fill="#ffffb3" stroke="transparent" points="14,-10 14,-30 34,-30 34,-10 14,-10"/>
<text text-anchor="start" x="37.63" y="-15.4" font-family="sans-serif" font-size="14.00"> &#160;Declarations</text>
<polygon fill="#8dd3c7" stroke="transparent" points="127,-10 127,-30 147,-30 147,-10 127,-10"/>
<text text-anchor="start" x="150.73" y="-15.4" font-family="sans-serif" font-size="14.00"> &#160;Module</text>
<polygon fill="#80b1d3" stroke="transparent" points="213,-10 213,-30 233,-30 233,-10 213,-10"/>
<text text-anchor="start" x="236.78" y="-15.4" font-family="sans-serif" font-size="14.00"> &#160;Bootstrap</text>
<polygon fill="#fdb462" stroke="transparent" points="310,-10 310,-30 330,-30 330,-10 310,-10"/>
<text text-anchor="start" x="333.67" y="-15.4" font-family="sans-serif" font-size="14.00"> &#160;Providers</text>
<polygon fill="#fb8072" stroke="transparent" points="406,-10 406,-30 426,-30 426,-10 406,-10"/>
<text text-anchor="start" x="429.73" y="-15.4" font-family="sans-serif" font-size="14.00"> &#160;Exports</text>
<g id="clust1" class="cluster">
<title>cluster_TabParagraphContainerModule</title>
<polygon fill="none" stroke="black" stroke-dasharray="1,5" points="13,-70 13,-268 483,-268 483,-70 13,-70"/>
</g>
<g id="clust2" class="cluster">
<title>cluster_TabParagraphContainerModule_declarations</title>
<polygon fill="none" stroke="black" points="243,-78 243,-130 475,-130 475,-78 243,-78"/>
</g>
<g id="clust4" class="cluster">
<title>cluster_TabParagraphContainerModule_imports</title>
<polygon fill="none" stroke="black" points="21,-78 21,-130 235,-130 235,-78 21,-78"/>
</g>
<g id="clust5" class="cluster">
<title>cluster_TabParagraphContainerModule_exports</title>
<polygon fill="none" stroke="black" points="67,-208 67,-260 301,-260 301,-208 67,-208"/>
</g>
<!-- TabParagraphContainerComponent -->
<g id="node1" class="node">
<title>TabParagraphContainerComponent</title>
<polygon fill="#ffffb3" stroke="black" points="466.55,-122 251.45,-122 251.45,-86 466.55,-86 466.55,-122"/>
<text text-anchor="middle" x="359" y="-99.8" font-family="Times,serif" font-size="14.00">TabParagraphContainerComponent</text>
</g>
<!-- TabParagraphContainerModule -->
<g id="node2" class="node">
<title>TabParagraphContainerModule</title>
<polygon fill="#8dd3c7" stroke="black" points="280.77,-187 277.77,-191 256.77,-191 253.77,-187 87.23,-187 87.23,-151 280.77,-151 280.77,-187"/>
<text text-anchor="middle" x="184" y="-164.8" font-family="Times,serif" font-size="14.00">TabParagraphContainerModule</text>
</g>
<!-- TabParagraphContainerComponent&#45;&gt;TabParagraphContainerModule -->
<g id="edge1" class="edge">
<title>TabParagraphContainerComponent&#45;&gt;TabParagraphContainerModule</title>
<path fill="none" stroke="black" d="M266.05,-122.11C266.05,-122.11 266.05,-140.99 266.05,-140.99"/>
<polygon fill="black" stroke="black" points="262.55,-140.99 266.05,-150.99 269.55,-140.99 262.55,-140.99"/>
</g>
<!-- TabParagraphContainerComponent  -->
<g id="node5" class="node">
<title>TabParagraphContainerComponent </title>
<polygon fill="#fb8072" stroke="black" points="293.06,-252 74.94,-252 74.94,-216 293.06,-216 293.06,-252"/>
<text text-anchor="middle" x="184" y="-229.8" font-family="Times,serif" font-size="14.00">TabParagraphContainerComponent </text>
</g>
<!-- TabParagraphContainerModule&#45;&gt;TabParagraphContainerComponent  -->
<g id="edge4" class="edge">
<title>TabParagraphContainerModule&#45;&gt;TabParagraphContainerComponent </title>
<path fill="none" stroke="black" stroke-dasharray="5,2" d="M184,-187.11C184,-187.11 184,-205.99 184,-205.99"/>
<polygon fill="black" stroke="black" points="180.5,-205.99 184,-215.99 187.5,-205.99 180.5,-205.99"/>
</g>
<!-- I18nModule -->
<g id="node3" class="node">
<title>I18nModule</title>
<polygon fill="#8dd3c7" stroke="black" points="226.71,-122 223.71,-126 202.71,-126 199.71,-122 141.29,-122 141.29,-86 226.71,-86 226.71,-122"/>
<text text-anchor="middle" x="184" y="-99.8" font-family="Times,serif" font-size="14.00">I18nModule</text>
</g>
<!-- I18nModule&#45;&gt;TabParagraphContainerModule -->
<g id="edge2" class="edge">
<title>I18nModule&#45;&gt;TabParagraphContainerModule</title>
<path fill="none" stroke="black" d="M184,-122.11C184,-122.11 184,-140.99 184,-140.99"/>
<polygon fill="black" stroke="black" points="180.5,-140.99 184,-150.99 187.5,-140.99 180.5,-140.99"/>
</g>
<!-- OutletModule -->
<g id="node4" class="node">
<title>OutletModule</title>
<polygon fill="#8dd3c7" stroke="black" points="123.04,-122 120.04,-126 99.04,-126 96.04,-122 28.96,-122 28.96,-86 123.04,-86 123.04,-122"/>
<text text-anchor="middle" x="76" y="-99.8" font-family="Times,serif" font-size="14.00">OutletModule</text>
</g>
<!-- OutletModule&#45;&gt;TabParagraphContainerModule -->
<g id="edge3" class="edge">
<title>OutletModule&#45;&gt;TabParagraphContainerModule</title>
<path fill="none" stroke="black" d="M105.32,-122.11C105.32,-122.11 105.32,-140.99 105.32,-140.99"/>
<polygon fill="black" stroke="black" points="101.82,-140.99 105.32,-150.99 108.82,-140.99 101.82,-140.99"/>
</g>
</g>
</svg>
