<?xml version="1.0" encoding="UTF-8" standalone="no"?>
<!DOCTYPE svg PUBLIC "-//W3C//DTD SVG 1.1//EN"
 "http://www.w3.org/Graphics/SVG/1.1/DTD/svg11.dtd">
<!-- Generated by graphviz version 2.47.3 (20210619.1520)
 -->
<!-- Title: dependencies Pages: 1 -->
<svg width="494pt" height="247pt"
 viewBox="0.00 0.00 494.00 246.80" xmlns="http://www.w3.org/2000/svg" xmlns:xlink="http://www.w3.org/1999/xlink">
<g id="graph0" class="graph" transform="scale(1 1) rotate(0) translate(4 242.8)">
<title>dependencies</title>
<polygon fill="white" stroke="transparent" points="-4,4 -4,-242.8 490,-242.8 490,4 -4,4"/>
<text text-anchor="middle" x="243" y="-8.2" font-family="sans-serif" font-size="14.00">dependencies</text>
<g id="clust1" class="cluster">
<title>cluster_TabParagraphContainerModule</title>
<polygon fill="none" stroke="black" stroke-dasharray="1,5" points="8,-32.8 8,-230.8 478,-230.8 478,-32.8 8,-32.8"/>
</g>
<g id="clust2" class="cluster">
<title>cluster_TabParagraphContainerModule_declarations</title>
<polygon fill="none" stroke="black" points="238,-40.8 238,-92.8 470,-92.8 470,-40.8 238,-40.8"/>
</g>
<g id="clust5" class="cluster">
<title>cluster_TabParagraphContainerModule_exports</title>
<polygon fill="none" stroke="black" points="62,-170.8 62,-222.8 296,-222.8 296,-170.8 62,-170.8"/>
</g>
<g id="clust4" class="cluster">
<title>cluster_TabParagraphContainerModule_imports</title>
<polygon fill="none" stroke="black" points="16,-40.8 16,-92.8 230,-92.8 230,-40.8 16,-40.8"/>
</g>
<!-- TabParagraphContainerComponent -->
<g id="node1" class="node">
<title>TabParagraphContainerComponent</title>
<polygon fill="#ffffb3" stroke="black" points="461.55,-84.8 246.45,-84.8 246.45,-48.8 461.55,-48.8 461.55,-84.8"/>
<text text-anchor="middle" x="354" y="-62.6" font-family="Times,serif" font-size="14.00">TabParagraphContainerComponent</text>
</g>
<!-- TabParagraphContainerModule -->
<g id="node2" class="node">
<title>TabParagraphContainerModule</title>
<polygon fill="#8dd3c7" stroke="black" points="275.77,-149.8 272.77,-153.8 251.77,-153.8 248.77,-149.8 82.23,-149.8 82.23,-113.8 275.77,-113.8 275.77,-149.8"/>
<text text-anchor="middle" x="179" y="-127.6" font-family="Times,serif" font-size="14.00">TabParagraphContainerModule</text>
</g>
<!-- TabParagraphContainerComponent&#45;&gt;TabParagraphContainerModule -->
<g id="edge1" class="edge">
<title>TabParagraphContainerComponent&#45;&gt;TabParagraphContainerModule</title>
<path fill="none" stroke="black" d="M261.05,-84.91C261.05,-84.91 261.05,-103.79 261.05,-103.79"/>
<polygon fill="black" stroke="black" points="257.55,-103.79 261.05,-113.79 264.55,-103.79 257.55,-103.79"/>
</g>
<!-- TabParagraphContainerComponent  -->
<g id="node5" class="node">
<title>TabParagraphContainerComponent </title>
<polygon fill="#fb8072" stroke="black" points="288.06,-214.8 69.94,-214.8 69.94,-178.8 288.06,-178.8 288.06,-214.8"/>
<text text-anchor="middle" x="179" y="-192.6" font-family="Times,serif" font-size="14.00">TabParagraphContainerComponent </text>
</g>
<!-- TabParagraphContainerModule&#45;&gt;TabParagraphContainerComponent  -->
<g id="edge4" class="edge">
<title>TabParagraphContainerModule&#45;&gt;TabParagraphContainerComponent </title>
<path fill="none" stroke="black" stroke-dasharray="5,2" d="M179,-149.91C179,-149.91 179,-168.79 179,-168.79"/>
<polygon fill="black" stroke="black" points="175.5,-168.79 179,-178.79 182.5,-168.79 175.5,-168.79"/>
</g>
<!-- I18nModule -->
<g id="node3" class="node">
<title>I18nModule</title>
<polygon fill="#8dd3c7" stroke="black" points="221.71,-84.8 218.71,-88.8 197.71,-88.8 194.71,-84.8 136.29,-84.8 136.29,-48.8 221.71,-48.8 221.71,-84.8"/>
<text text-anchor="middle" x="179" y="-62.6" font-family="Times,serif" font-size="14.00">I18nModule</text>
</g>
<!-- I18nModule&#45;&gt;TabParagraphContainerModule -->
<g id="edge2" class="edge">
<title>I18nModule&#45;&gt;TabParagraphContainerModule</title>
<path fill="none" stroke="black" d="M179,-84.91C179,-84.91 179,-103.79 179,-103.79"/>
<polygon fill="black" stroke="black" points="175.5,-103.79 179,-113.79 182.5,-103.79 175.5,-103.79"/>
</g>
<!-- OutletModule -->
<g id="node4" class="node">
<title>OutletModule</title>
<polygon fill="#8dd3c7" stroke="black" points="118.04,-84.8 115.04,-88.8 94.04,-88.8 91.04,-84.8 23.96,-84.8 23.96,-48.8 118.04,-48.8 118.04,-84.8"/>
<text text-anchor="middle" x="71" y="-62.6" font-family="Times,serif" font-size="14.00">OutletModule</text>
</g>
<!-- OutletModule&#45;&gt;TabParagraphContainerModule -->
<g id="edge3" class="edge">
<title>OutletModule&#45;&gt;TabParagraphContainerModule</title>
<path fill="none" stroke="black" d="M100.32,-84.91C100.32,-84.91 100.32,-103.79 100.32,-103.79"/>
<polygon fill="black" stroke="black" points="96.82,-103.79 100.32,-113.79 103.82,-103.79 96.82,-103.79"/>
</g>
</g>
</svg>
