<?xml version="1.0" encoding="UTF-8" standalone="no"?>
<!DOCTYPE svg PUBLIC "-//W3C//DTD SVG 1.1//EN"
 "http://www.w3.org/Graphics/SVG/1.1/DTD/svg11.dtd">
<!-- Generated by graphviz version 2.40.1 (20161225.0304)
 -->
<!-- Title: dependencies Pages: 1 -->
<svg width="610pt" height="284pt"
 viewBox="0.00 0.00 610.00 284.00" xmlns="http://www.w3.org/2000/svg" xmlns:xlink="http://www.w3.org/1999/xlink">
<g id="graph0" class="graph" transform="scale(1 1) rotate(0) translate(4 280)">
<title>dependencies</title>
<polygon fill="#ffffff" stroke="transparent" points="-4,4 -4,-280 606,-280 606,4 -4,4"/>
<text text-anchor="start" x="280.0091" y="-42.4" font-family="sans-serif" font-weight="bold" font-size="14.00" fill="#000000">Legend</text>
<polygon fill="#ffffb3" stroke="transparent" points="67,-10 67,-30 87,-30 87,-10 67,-10"/>
<text text-anchor="start" x="90.629" y="-15.4" font-family="sans-serif" font-size="14.00" fill="#000000"> &#160;Declarations</text>
<polygon fill="#8dd3c7" stroke="transparent" points="180,-10 180,-30 200,-30 200,-10 180,-10"/>
<text text-anchor="start" x="203.7251" y="-15.4" font-family="sans-serif" font-size="14.00" fill="#000000"> &#160;Module</text>
<polygon fill="#80b1d3" stroke="transparent" points="266,-10 266,-30 286,-30 286,-10 266,-10"/>
<text text-anchor="start" x="289.7812" y="-15.4" font-family="sans-serif" font-size="14.00" fill="#000000"> &#160;Bootstrap</text>
<polygon fill="#fdb462" stroke="transparent" points="363,-10 363,-30 383,-30 383,-10 363,-10"/>
<text text-anchor="start" x="386.6732" y="-15.4" font-family="sans-serif" font-size="14.00" fill="#000000"> &#160;Providers</text>
<polygon fill="#fb8072" stroke="transparent" points="459,-10 459,-30 479,-30 479,-10 459,-10"/>
<text text-anchor="start" x="482.7258" y="-15.4" font-family="sans-serif" font-size="14.00" fill="#000000"> &#160;Exports</text>
<g id="clust1" class="cluster">
<title>cluster_TabParagraphContainerModule</title>
<polygon fill="none" stroke="#000000" stroke-dasharray="1,5" points="8,-70 8,-268 594,-268 594,-70 8,-70"/>
</g>
<g id="clust2" class="cluster">
<title>cluster_TabParagraphContainerModule_declarations</title>
<polygon fill="none" stroke="#000000" points="354,-78 354,-130 586,-130 586,-78 354,-78"/>
</g>
<g id="clust4" class="cluster">
<title>cluster_TabParagraphContainerModule_imports</title>
<polygon fill="none" stroke="#000000" points="16,-78 16,-130 346,-130 346,-78 16,-78"/>
</g>
<g id="clust5" class="cluster">
<title>cluster_TabParagraphContainerModule_exports</title>
<polygon fill="none" stroke="#000000" points="117,-208 117,-260 351,-260 351,-208 117,-208"/>
</g>
<!-- TabParagraphContainerComponent -->
<g id="node1" class="node">
<title>TabParagraphContainerComponent</title>
<polygon fill="#ffffb3" stroke="#000000" points="577.5548,-122 362.4452,-122 362.4452,-86 577.5548,-86 577.5548,-122"/>
<text text-anchor="middle" x="470" y="-99.8" font-family="Times,serif" font-size="14.00" fill="#000000">TabParagraphContainerComponent</text>
</g>
<!-- TabParagraphContainerModule -->
<g id="node2" class="node">
<title>TabParagraphContainerModule</title>
<polygon fill="#8dd3c7" stroke="#000000" points="330.7724,-187 327.7724,-191 306.7724,-191 303.7724,-187 137.2276,-187 137.2276,-151 330.7724,-151 330.7724,-187"/>
<text text-anchor="middle" x="234" y="-164.8" font-family="Times,serif" font-size="14.00" fill="#000000">TabParagraphContainerModule</text>
</g>
<!-- TabParagraphContainerComponent&#45;&gt;TabParagraphContainerModule -->
<g id="edge1" class="edge">
<title>TabParagraphContainerComponent&#45;&gt;TabParagraphContainerModule</title>
<path fill="none" stroke="#000000" d="M470,-122.1061C470,-141.3391 470,-169 470,-169 470,-169 340.6712,-169 340.6712,-169"/>
<polygon fill="#000000" stroke="#000000" points="340.6712,-165.5001 330.6712,-169 340.6711,-172.5001 340.6712,-165.5001"/>
</g>
<!-- TabParagraphContainerComponent  -->
<g id="node6" class="node">
<title>TabParagraphContainerComponent </title>
<polygon fill="#fb8072" stroke="#000000" points="343.0553,-252 124.9447,-252 124.9447,-216 343.0553,-216 343.0553,-252"/>
<text text-anchor="middle" x="234" y="-229.8" font-family="Times,serif" font-size="14.00" fill="#000000">TabParagraphContainerComponent </text>
</g>
<!-- TabParagraphContainerModule&#45;&gt;TabParagraphContainerComponent  -->
<g id="edge5" class="edge">
<title>TabParagraphContainerModule&#45;&gt;TabParagraphContainerComponent </title>
<path fill="none" stroke="#000000" stroke-dasharray="5,2" d="M234,-187.1061C234,-187.1061 234,-205.991 234,-205.991"/>
<polygon fill="#000000" stroke="#000000" points="230.5001,-205.9909 234,-215.991 237.5001,-205.991 230.5001,-205.9909"/>
</g>
<!-- ConfigModule -->
<g id="node3" class="node">
<title>ConfigModule</title>
<polygon fill="#8dd3c7" stroke="#000000" points="338.4386,-122 335.4386,-126 314.4386,-126 311.4386,-122 239.5614,-122 239.5614,-86 338.4386,-86 338.4386,-122"/>
<text text-anchor="middle" x="289" y="-99.8" font-family="Times,serif" font-size="14.00" fill="#000000">ConfigModule</text>
</g>
<!-- ConfigModule&#45;&gt;TabParagraphContainerModule -->
<g id="edge2" class="edge">
<title>ConfigModule&#45;&gt;TabParagraphContainerModule</title>
<path fill="none" stroke="#000000" d="M285.2087,-122.1061C285.2087,-122.1061 285.2087,-140.991 285.2087,-140.991"/>
<polygon fill="#000000" stroke="#000000" points="281.7087,-140.9909 285.2087,-150.991 288.7087,-140.991 281.7087,-140.9909"/>
</g>
<!-- I18nModule -->
<g id="node4" class="node">
<title>I18nModule</title>
<polygon fill="#8dd3c7" stroke="#000000" points="221.7107,-122 218.7107,-126 197.7107,-126 194.7107,-122 136.2893,-122 136.2893,-86 221.7107,-86 221.7107,-122"/>
<text text-anchor="middle" x="179" y="-99.8" font-family="Times,serif" font-size="14.00" fill="#000000">I18nModule</text>
</g>
<!-- I18nModule&#45;&gt;TabParagraphContainerModule -->
<g id="edge3" class="edge">
<title>I18nModule&#45;&gt;TabParagraphContainerModule</title>
<path fill="none" stroke="#000000" d="M179.4846,-122.1061C179.4846,-122.1061 179.4846,-140.991 179.4846,-140.991"/>
<polygon fill="#000000" stroke="#000000" points="175.9846,-140.9909 179.4846,-150.991 182.9846,-140.991 175.9846,-140.9909"/>
</g>
<!-- OutletModule -->
<g id="node5" class="node">
<title>OutletModule</title>
<polygon fill="#8dd3c7" stroke="#000000" points="118.0439,-122 115.0439,-126 94.0439,-126 91.0439,-122 23.9561,-122 23.9561,-86 118.0439,-86 118.0439,-122"/>
<text text-anchor="middle" x="71" y="-99.8" font-family="Times,serif" font-size="14.00" fill="#000000">OutletModule</text>
</g>
<!-- OutletModule&#45;&gt;TabParagraphContainerModule -->
<g id="edge4" class="edge">
<title>OutletModule&#45;&gt;TabParagraphContainerModule</title>
<path fill="none" stroke="#000000" d="M71,-122.1061C71,-141.3391 71,-169 71,-169 71,-169 127.2983,-169 127.2983,-169"/>
<polygon fill="#000000" stroke="#000000" points="127.2984,-172.5001 137.2983,-169 127.2983,-165.5001 127.2984,-172.5001"/>
</g>
</g>
</svg>
