<?xml version="1.0" encoding="UTF-8" standalone="no"?>
<!DOCTYPE svg PUBLIC "-//W3C//DTD SVG 1.1//EN"
 "http://www.w3.org/Graphics/SVG/1.1/DTD/svg11.dtd">
<!-- Generated by graphviz version 2.40.1 (20161225.0304)
 -->
<!-- Title: dependencies Pages: 1 -->
<svg width="915pt" height="284pt"
 viewBox="0.00 0.00 915.00 284.00" xmlns="http://www.w3.org/2000/svg" xmlns:xlink="http://www.w3.org/1999/xlink">
<g id="graph0" class="graph" transform="scale(1 1) rotate(0) translate(4 280)">
<title>dependencies</title>
<polygon fill="#ffffff" stroke="transparent" points="-4,4 -4,-280 911,-280 911,4 -4,4"/>
<text text-anchor="start" x="432.5091" y="-42.4" font-family="sans-serif" font-weight="bold" font-size="14.00" fill="#000000">Legend</text>
<polygon fill="#ffffb3" stroke="transparent" points="219.5,-10 219.5,-30 239.5,-30 239.5,-10 219.5,-10"/>
<text text-anchor="start" x="243.129" y="-15.4" font-family="sans-serif" font-size="14.00" fill="#000000"> &#160;Declarations</text>
<polygon fill="#8dd3c7" stroke="transparent" points="332.5,-10 332.5,-30 352.5,-30 352.5,-10 332.5,-10"/>
<text text-anchor="start" x="356.2251" y="-15.4" font-family="sans-serif" font-size="14.00" fill="#000000"> &#160;Module</text>
<polygon fill="#80b1d3" stroke="transparent" points="418.5,-10 418.5,-30 438.5,-30 438.5,-10 418.5,-10"/>
<text text-anchor="start" x="442.2812" y="-15.4" font-family="sans-serif" font-size="14.00" fill="#000000"> &#160;Bootstrap</text>
<polygon fill="#fdb462" stroke="transparent" points="515.5,-10 515.5,-30 535.5,-30 535.5,-10 515.5,-10"/>
<text text-anchor="start" x="539.1732" y="-15.4" font-family="sans-serif" font-size="14.00" fill="#000000"> &#160;Providers</text>
<polygon fill="#fb8072" stroke="transparent" points="611.5,-10 611.5,-30 631.5,-30 631.5,-10 611.5,-10"/>
<text text-anchor="start" x="635.2258" y="-15.4" font-family="sans-serif" font-size="14.00" fill="#000000"> &#160;Exports</text>
<g id="clust1" class="cluster">
<title>cluster_ReviewSubmitModule</title>
<polygon fill="none" stroke="#000000" stroke-dasharray="1,5" points="8,-70 8,-268 899,-268 899,-70 8,-70"/>
</g>
<g id="clust2" class="cluster">
<title>cluster_ReviewSubmitModule_declarations</title>
<polygon fill="none" stroke="#000000" points="711,-78 711,-130 891,-130 891,-78 711,-78"/>
</g>
<g id="clust4" class="cluster">
<title>cluster_ReviewSubmitModule_imports</title>
<polygon fill="none" stroke="#000000" points="16,-78 16,-130 703,-130 703,-78 16,-78"/>
</g>
<g id="clust5" class="cluster">
<title>cluster_ReviewSubmitModule_exports</title>
<polygon fill="none" stroke="#000000" points="315,-208 315,-260 499,-260 499,-208 315,-208"/>
</g>
<!-- ReviewSubmitComponent -->
<g id="node1" class="node">
<title>ReviewSubmitComponent</title>
<polygon fill="#ffffb3" stroke="#000000" points="883.0504,-122 718.9496,-122 718.9496,-86 883.0504,-86 883.0504,-122"/>
<text text-anchor="middle" x="801" y="-99.8" font-family="Times,serif" font-size="14.00" fill="#000000">ReviewSubmitComponent</text>
</g>
<!-- ReviewSubmitModule -->
<g id="node2" class="node">
<title>ReviewSubmitModule</title>
<polygon fill="#8dd3c7" stroke="#000000" points="478.2674,-187 475.2674,-191 454.2674,-191 451.2674,-187 335.7326,-187 335.7326,-151 478.2674,-151 478.2674,-187"/>
<text text-anchor="middle" x="407" y="-164.8" font-family="Times,serif" font-size="14.00" fill="#000000">ReviewSubmitModule</text>
</g>
<!-- ReviewSubmitComponent&#45;&gt;ReviewSubmitModule -->
<g id="edge1" class="edge">
<title>ReviewSubmitComponent&#45;&gt;ReviewSubmitModule</title>
<path fill="none" stroke="#000000" d="M801,-122.2843C801,-143.3211 801,-175 801,-175 801,-175 488.3504,-175 488.3504,-175"/>
<polygon fill="#000000" stroke="#000000" points="488.3505,-171.5001 478.3504,-175 488.3504,-178.5001 488.3505,-171.5001"/>
</g>
<!-- ReviewSubmitComponent  -->
<g id="node9" class="node">
<title>ReviewSubmitComponent </title>
<polygon fill="#fb8072" stroke="#000000" points="491.0498,-252 322.9502,-252 322.9502,-216 491.0498,-216 491.0498,-252"/>
<text text-anchor="middle" x="407" y="-229.8" font-family="Times,serif" font-size="14.00" fill="#000000">ReviewSubmitComponent </text>
</g>
<!-- ReviewSubmitModule&#45;&gt;ReviewSubmitComponent  -->
<g id="edge8" class="edge">
<title>ReviewSubmitModule&#45;&gt;ReviewSubmitComponent </title>
<path fill="none" stroke="#000000" stroke-dasharray="5,2" d="M407,-187.1061C407,-187.1061 407,-205.991 407,-205.991"/>
<polygon fill="#000000" stroke="#000000" points="403.5001,-205.9909 407,-215.991 410.5001,-205.991 403.5001,-205.9909"/>
</g>
<!-- CardModule -->
<g id="node3" class="node">
<title>CardModule</title>
<polygon fill="#8dd3c7" stroke="#000000" points="695.2619,-122 692.2619,-126 671.2619,-126 668.2619,-122 608.7381,-122 608.7381,-86 695.2619,-86 695.2619,-122"/>
<text text-anchor="middle" x="652" y="-99.8" font-family="Times,serif" font-size="14.00" fill="#000000">CardModule</text>
</g>
<!-- CardModule&#45;&gt;ReviewSubmitModule -->
<g id="edge2" class="edge">
<title>CardModule&#45;&gt;ReviewSubmitModule</title>
<path fill="none" stroke="#000000" d="M652,-122.0225C652,-139.3734 652,-163 652,-163 652,-163 488.5228,-163 488.5228,-163"/>
<polygon fill="#000000" stroke="#000000" points="488.5228,-159.5001 478.5228,-163 488.5227,-166.5001 488.5228,-159.5001"/>
</g>
<!-- CartSharedModule -->
<g id="node4" class="node">
<title>CartSharedModule</title>
<polygon fill="#8dd3c7" stroke="#000000" points="590.0255,-122 587.0255,-126 566.0255,-126 563.0255,-122 467.9745,-122 467.9745,-86 590.0255,-86 590.0255,-122"/>
<text text-anchor="middle" x="529" y="-99.8" font-family="Times,serif" font-size="14.00" fill="#000000">CartSharedModule</text>
</g>
<!-- CartSharedModule&#45;&gt;ReviewSubmitModule -->
<g id="edge3" class="edge">
<title>CartSharedModule&#45;&gt;ReviewSubmitModule</title>
<path fill="none" stroke="#000000" d="M473.0607,-122.1061C473.0607,-122.1061 473.0607,-140.991 473.0607,-140.991"/>
<polygon fill="#000000" stroke="#000000" points="469.5607,-140.9909 473.0607,-150.991 476.5607,-140.991 469.5607,-140.9909"/>
</g>
<!-- I18nModule -->
<g id="node5" class="node">
<title>I18nModule</title>
<polygon fill="#8dd3c7" stroke="#000000" points="449.7107,-122 446.7107,-126 425.7107,-126 422.7107,-122 364.2893,-122 364.2893,-86 449.7107,-86 449.7107,-122"/>
<text text-anchor="middle" x="407" y="-99.8" font-family="Times,serif" font-size="14.00" fill="#000000">I18nModule</text>
</g>
<!-- I18nModule&#45;&gt;ReviewSubmitModule -->
<g id="edge4" class="edge">
<title>I18nModule&#45;&gt;ReviewSubmitModule</title>
<path fill="none" stroke="#000000" d="M407,-122.1061C407,-122.1061 407,-140.991 407,-140.991"/>
<polygon fill="#000000" stroke="#000000" points="403.5001,-140.9909 407,-150.991 410.5001,-140.991 403.5001,-140.9909"/>
</g>
<!-- IconModule -->
<g id="node6" class="node">
<title>IconModule</title>
<polygon fill="#8dd3c7" stroke="#000000" points="346.4261,-122 343.4261,-126 322.4261,-126 319.4261,-122 261.5739,-122 261.5739,-86 346.4261,-86 346.4261,-122"/>
<text text-anchor="middle" x="304" y="-99.8" font-family="Times,serif" font-size="14.00" fill="#000000">IconModule</text>
</g>
<!-- IconModule&#45;&gt;ReviewSubmitModule -->
<g id="edge5" class="edge">
<title>IconModule&#45;&gt;ReviewSubmitModule</title>
<path fill="none" stroke="#000000" d="M340.9145,-122.1061C340.9145,-122.1061 340.9145,-140.991 340.9145,-140.991"/>
<polygon fill="#000000" stroke="#000000" points="337.4145,-140.9909 340.9145,-150.991 344.4145,-140.991 337.4145,-140.9909"/>
</g>
<!-- PromotionsModule -->
<g id="node7" class="node">
<title>PromotionsModule</title>
<polygon fill="#8dd3c7" stroke="#000000" points="244.1094,-122 241.1094,-126 220.1094,-126 217.1094,-122 119.8906,-122 119.8906,-86 244.1094,-86 244.1094,-122"/>
<text text-anchor="middle" x="182" y="-99.8" font-family="Times,serif" font-size="14.00" fill="#000000">PromotionsModule</text>
</g>
<!-- PromotionsModule&#45;&gt;ReviewSubmitModule -->
<g id="edge6" class="edge">
<title>PromotionsModule&#45;&gt;ReviewSubmitModule</title>
<path fill="none" stroke="#000000" d="M182,-122.0225C182,-139.3734 182,-163 182,-163 182,-163 325.4994,-163 325.4994,-163"/>
<polygon fill="#000000" stroke="#000000" points="325.4995,-166.5001 335.4994,-163 325.4994,-159.5001 325.4995,-166.5001"/>
</g>
<!-- UrlModule -->
<g id="node8" class="node">
<title>UrlModule</title>
<polygon fill="#8dd3c7" stroke="#000000" points="102.2079,-122 99.2079,-126 78.2079,-126 75.2079,-122 23.7921,-122 23.7921,-86 102.2079,-86 102.2079,-122"/>
<text text-anchor="middle" x="63" y="-99.8" font-family="Times,serif" font-size="14.00" fill="#000000">UrlModule</text>
</g>
<!-- UrlModule&#45;&gt;ReviewSubmitModule -->
<g id="edge7" class="edge">
<title>UrlModule&#45;&gt;ReviewSubmitModule</title>
<path fill="none" stroke="#000000" d="M63,-122.2843C63,-143.3211 63,-175 63,-175 63,-175 325.723,-175 325.723,-175"/>
<polygon fill="#000000" stroke="#000000" points="325.723,-178.5001 335.723,-175 325.7229,-171.5001 325.723,-178.5001"/>
</g>
</g>
</svg>
