<?xml version="1.0" encoding="UTF-8" standalone="no"?>
<!DOCTYPE svg PUBLIC "-//W3C//DTD SVG 1.1//EN"
 "http://www.w3.org/Graphics/SVG/1.1/DTD/svg11.dtd">
<!-- Generated by graphviz version 2.46.0 (20210119.1425)
 -->
<!-- Title: dependencies Pages: 1 -->
<svg width="915pt" height="284pt"
 viewBox="0.00 0.00 915.00 284.00" xmlns="http://www.w3.org/2000/svg" xmlns:xlink="http://www.w3.org/1999/xlink">
<g id="graph0" class="graph" transform="scale(1 1) rotate(0) translate(4 280)">
<title>dependencies</title>
<polygon fill="white" stroke="transparent" points="-4,4 -4,-280 911,-280 911,4 -4,4"/>
<text text-anchor="start" x="432.51" y="-42.4" font-family="sans-serif" font-weight="bold" font-size="14.00">Legend</text>
<polygon fill="#ffffb3" stroke="transparent" points="219.5,-10 219.5,-30 239.5,-30 239.5,-10 219.5,-10"/>
<text text-anchor="start" x="243.13" y="-15.4" font-family="sans-serif" font-size="14.00"> &#160;Declarations</text>
<polygon fill="#8dd3c7" stroke="transparent" points="332.5,-10 332.5,-30 352.5,-30 352.5,-10 332.5,-10"/>
<text text-anchor="start" x="356.23" y="-15.4" font-family="sans-serif" font-size="14.00"> &#160;Module</text>
<polygon fill="#80b1d3" stroke="transparent" points="418.5,-10 418.5,-30 438.5,-30 438.5,-10 418.5,-10"/>
<text text-anchor="start" x="442.28" y="-15.4" font-family="sans-serif" font-size="14.00"> &#160;Bootstrap</text>
<polygon fill="#fdb462" stroke="transparent" points="515.5,-10 515.5,-30 535.5,-30 535.5,-10 515.5,-10"/>
<text text-anchor="start" x="539.17" y="-15.4" font-family="sans-serif" font-size="14.00"> &#160;Providers</text>
<polygon fill="#fb8072" stroke="transparent" points="611.5,-10 611.5,-30 631.5,-30 631.5,-10 611.5,-10"/>
<text text-anchor="start" x="635.23" y="-15.4" font-family="sans-serif" font-size="14.00"> &#160;Exports</text>
<g id="clust1" class="cluster">
<title>cluster_ReviewSubmitModule</title>
<polygon fill="none" stroke="black" stroke-dasharray="1,5" points="8,-70 8,-268 899,-268 899,-70 8,-70"/>
</g>
<g id="clust4" class="cluster">
<title>cluster_ReviewSubmitModule_imports</title>
<polygon fill="none" stroke="black" points="204,-78 204,-130 891,-130 891,-78 204,-78"/>
</g>
<g id="clust5" class="cluster">
<title>cluster_ReviewSubmitModule_exports</title>
<polygon fill="none" stroke="black" points="400,-208 400,-260 584,-260 584,-208 400,-208"/>
</g>
<g id="clust2" class="cluster">
<title>cluster_ReviewSubmitModule_declarations</title>
<polygon fill="none" stroke="black" points="16,-78 16,-130 196,-130 196,-78 16,-78"/>
</g>
<!-- ReviewSubmitComponent -->
<g id="node1" class="node">
<title>ReviewSubmitComponent</title>
<polygon fill="#ffffb3" stroke="black" points="188.05,-122 23.95,-122 23.95,-86 188.05,-86 188.05,-122"/>
<text text-anchor="middle" x="106" y="-99.8" font-family="Times,serif" font-size="14.00">ReviewSubmitComponent</text>
</g>
<!-- ReviewSubmitModule -->
<g id="node2" class="node">
<title>ReviewSubmitModule</title>
<polygon fill="#8dd3c7" stroke="black" points="563.27,-187 560.27,-191 539.27,-191 536.27,-187 420.73,-187 420.73,-151 563.27,-151 563.27,-187"/>
<text text-anchor="middle" x="492" y="-164.8" font-family="Times,serif" font-size="14.00">ReviewSubmitModule</text>
</g>
<!-- ReviewSubmitComponent&#45;&gt;ReviewSubmitModule -->
<g id="edge1" class="edge">
<title>ReviewSubmitComponent&#45;&gt;ReviewSubmitModule</title>
<path fill="none" stroke="black" d="M106,-122.28C106,-143.32 106,-175 106,-175 106,-175 410.3,-175 410.3,-175"/>
<polygon fill="black" stroke="black" points="410.3,-178.5 420.3,-175 410.3,-171.5 410.3,-178.5"/>
</g>
<!-- ReviewSubmitComponent  -->
<g id="node9" class="node">
<title>ReviewSubmitComponent </title>
<polygon fill="#fb8072" stroke="black" points="576.05,-252 407.95,-252 407.95,-216 576.05,-216 576.05,-252"/>
<text text-anchor="middle" x="492" y="-229.8" font-family="Times,serif" font-size="14.00">ReviewSubmitComponent </text>
</g>
<!-- ReviewSubmitModule&#45;&gt;ReviewSubmitComponent  -->
<g id="edge8" class="edge">
<title>ReviewSubmitModule&#45;&gt;ReviewSubmitComponent </title>
<path fill="none" stroke="black" stroke-dasharray="5,2" d="M492,-187.11C492,-187.11 492,-205.99 492,-205.99"/>
<polygon fill="black" stroke="black" points="488.5,-205.99 492,-215.99 495.5,-205.99 488.5,-205.99"/>
</g>
<!-- CardModule -->
<g id="node3" class="node">
<title>CardModule</title>
<polygon fill="#8dd3c7" stroke="black" points="883.26,-122 880.26,-126 859.26,-126 856.26,-122 796.74,-122 796.74,-86 883.26,-86 883.26,-122"/>
<text text-anchor="middle" x="840" y="-99.8" font-family="Times,serif" font-size="14.00">CardModule</text>
</g>
<!-- CardModule&#45;&gt;ReviewSubmitModule -->
<g id="edge2" class="edge">
<title>CardModule&#45;&gt;ReviewSubmitModule</title>
<path fill="none" stroke="black" d="M840,-122.28C840,-143.32 840,-175 840,-175 840,-175 573.68,-175 573.68,-175"/>
<polygon fill="black" stroke="black" points="573.68,-171.5 563.68,-175 573.68,-178.5 573.68,-171.5"/>
</g>
<!-- CartSharedModule -->
<g id="node4" class="node">
<title>CartSharedModule</title>
<polygon fill="#8dd3c7" stroke="black" points="778.03,-122 775.03,-126 754.03,-126 751.03,-122 655.97,-122 655.97,-86 778.03,-86 778.03,-122"/>
<text text-anchor="middle" x="717" y="-99.8" font-family="Times,serif" font-size="14.00">CartSharedModule</text>
</g>
<!-- CartSharedModule&#45;&gt;ReviewSubmitModule -->
<g id="edge3" class="edge">
<title>CartSharedModule&#45;&gt;ReviewSubmitModule</title>
<path fill="none" stroke="black" d="M717,-122.02C717,-139.37 717,-163 717,-163 717,-163 573.5,-163 573.5,-163"/>
<polygon fill="black" stroke="black" points="573.5,-159.5 563.5,-163 573.5,-166.5 573.5,-159.5"/>
</g>
<!-- I18nModule -->
<g id="node5" class="node">
<title>I18nModule</title>
<polygon fill="#8dd3c7" stroke="black" points="637.71,-122 634.71,-126 613.71,-126 610.71,-122 552.29,-122 552.29,-86 637.71,-86 637.71,-122"/>
<text text-anchor="middle" x="595" y="-99.8" font-family="Times,serif" font-size="14.00">I18nModule</text>
</g>
<!-- I18nModule&#45;&gt;ReviewSubmitModule -->
<g id="edge4" class="edge">
<title>I18nModule&#45;&gt;ReviewSubmitModule</title>
<path fill="none" stroke="black" d="M557.89,-122.11C557.89,-122.11 557.89,-140.99 557.89,-140.99"/>
<polygon fill="black" stroke="black" points="554.39,-140.99 557.89,-150.99 561.39,-140.99 554.39,-140.99"/>
</g>
<!-- IconModule -->
<g id="node6" class="node">
<title>IconModule</title>
<polygon fill="#8dd3c7" stroke="black" points="534.43,-122 531.43,-126 510.43,-126 507.43,-122 449.57,-122 449.57,-86 534.43,-86 534.43,-122"/>
<text text-anchor="middle" x="492" y="-99.8" font-family="Times,serif" font-size="14.00">IconModule</text>
</g>
<!-- IconModule&#45;&gt;ReviewSubmitModule -->
<g id="edge5" class="edge">
<title>IconModule&#45;&gt;ReviewSubmitModule</title>
<path fill="none" stroke="black" d="M492,-122.11C492,-122.11 492,-140.99 492,-140.99"/>
<polygon fill="black" stroke="black" points="488.5,-140.99 492,-150.99 495.5,-140.99 488.5,-140.99"/>
</g>
<!-- PromotionsModule -->
<g id="node7" class="node">
<title>PromotionsModule</title>
<polygon fill="#8dd3c7" stroke="black" points="432.11,-122 429.11,-126 408.11,-126 405.11,-122 307.89,-122 307.89,-86 432.11,-86 432.11,-122"/>
<text text-anchor="middle" x="370" y="-99.8" font-family="Times,serif" font-size="14.00">PromotionsModule</text>
</g>
<!-- PromotionsModule&#45;&gt;ReviewSubmitModule -->
<g id="edge6" class="edge">
<title>PromotionsModule&#45;&gt;ReviewSubmitModule</title>
<path fill="none" stroke="black" d="M426.34,-122.11C426.34,-122.11 426.34,-140.99 426.34,-140.99"/>
<polygon fill="black" stroke="black" points="422.84,-140.99 426.34,-150.99 429.84,-140.99 422.84,-140.99"/>
</g>
<!-- UrlModule -->
<g id="node8" class="node">
<title>UrlModule</title>
<polygon fill="#8dd3c7" stroke="black" points="290.21,-122 287.21,-126 266.21,-126 263.21,-122 211.79,-122 211.79,-86 290.21,-86 290.21,-122"/>
<text text-anchor="middle" x="251" y="-99.8" font-family="Times,serif" font-size="14.00">UrlModule</text>
</g>
<!-- UrlModule&#45;&gt;ReviewSubmitModule -->
<g id="edge7" class="edge">
<title>UrlModule&#45;&gt;ReviewSubmitModule</title>
<path fill="none" stroke="black" d="M251,-122.02C251,-139.37 251,-163 251,-163 251,-163 410.67,-163 410.67,-163"/>
<polygon fill="black" stroke="black" points="410.67,-166.5 420.67,-163 410.67,-159.5 410.67,-166.5"/>
</g>
</g>
</svg>
