<?xml version="1.0" encoding="UTF-8" standalone="no"?>
<!DOCTYPE svg PUBLIC "-//W3C//DTD SVG 1.1//EN"
 "http://www.w3.org/Graphics/SVG/1.1/DTD/svg11.dtd">
<!-- Generated by graphviz version 2.46.0 (20210119.1425)
 -->
<!-- Title: dependencies Pages: 1 -->
<svg width="1284pt" height="284pt"
 viewBox="0.00 0.00 1284.00 284.00" xmlns="http://www.w3.org/2000/svg" xmlns:xlink="http://www.w3.org/1999/xlink">
<g id="graph0" class="graph" transform="scale(1 1) rotate(0) translate(4 280)">
<title>dependencies</title>
<polygon fill="white" stroke="transparent" points="-4,4 -4,-280 1280,-280 1280,4 -4,4"/>
<text text-anchor="start" x="617.01" y="-42.4" font-family="sans-serif" font-weight="bold" font-size="14.00">Legend</text>
<polygon fill="#ffffb3" stroke="transparent" points="404,-10 404,-30 424,-30 424,-10 404,-10"/>
<text text-anchor="start" x="427.63" y="-15.4" font-family="sans-serif" font-size="14.00"> &#160;Declarations</text>
<polygon fill="#8dd3c7" stroke="transparent" points="517,-10 517,-30 537,-30 537,-10 517,-10"/>
<text text-anchor="start" x="540.73" y="-15.4" font-family="sans-serif" font-size="14.00"> &#160;Module</text>
<polygon fill="#80b1d3" stroke="transparent" points="603,-10 603,-30 623,-30 623,-10 603,-10"/>
<text text-anchor="start" x="626.78" y="-15.4" font-family="sans-serif" font-size="14.00"> &#160;Bootstrap</text>
<polygon fill="#fdb462" stroke="transparent" points="700,-10 700,-30 720,-30 720,-10 700,-10"/>
<text text-anchor="start" x="723.67" y="-15.4" font-family="sans-serif" font-size="14.00"> &#160;Providers</text>
<polygon fill="#fb8072" stroke="transparent" points="796,-10 796,-30 816,-30 816,-10 796,-10"/>
<text text-anchor="start" x="819.73" y="-15.4" font-family="sans-serif" font-size="14.00"> &#160;Exports</text>
<g id="clust1" class="cluster">
<title>cluster_OrderApprovalDetailsModule</title>
<polygon fill="none" stroke="black" stroke-dasharray="1,5" points="8,-70 8,-268 1268,-268 1268,-70 8,-70"/>
</g>
<g id="clust2" class="cluster">
<title>cluster_OrderApprovalDetailsModule_declarations</title>
<polygon fill="none" stroke="black" points="742,-78 742,-130 1260,-130 1260,-78 742,-78"/>
</g>
<g id="clust6" class="cluster">
<title>cluster_OrderApprovalDetailsModule_exports</title>
<polygon fill="none" stroke="black" points="205,-208 205,-260 729,-260 729,-208 205,-208"/>
</g>
<g id="clust5" class="cluster">
<title>cluster_OrderApprovalDetailsModule_imports</title>
<polygon fill="none" stroke="black" points="16,-78 16,-130 734,-130 734,-78 16,-78"/>
</g>
<!-- OrderApprovalDetailFormComponent -->
<g id="node1" class="node">
<title>OrderApprovalDetailFormComponent</title>
<polygon fill="#ffffb3" stroke="black" points="1251.89,-122 1020.11,-122 1020.11,-86 1251.89,-86 1251.89,-122"/>
<text text-anchor="middle" x="1136" y="-99.8" font-family="Times,serif" font-size="14.00">OrderApprovalDetailFormComponent</text>
</g>
<!-- OrderApprovalDetailsModule -->
<g id="node3" class="node">
<title>OrderApprovalDetailsModule</title>
<polygon fill="#8dd3c7" stroke="black" points="564.22,-187 561.22,-191 540.22,-191 537.22,-187 379.78,-187 379.78,-151 564.22,-151 564.22,-187"/>
<text text-anchor="middle" x="472" y="-164.8" font-family="Times,serif" font-size="14.00">OrderApprovalDetailsModule</text>
</g>
<!-- OrderApprovalDetailFormComponent&#45;&gt;OrderApprovalDetailsModule -->
<g id="edge1" class="edge">
<title>OrderApprovalDetailFormComponent&#45;&gt;OrderApprovalDetailsModule</title>
<path fill="none" stroke="black" d="M1136,-122.29C1136,-144.21 1136,-178 1136,-178 1136,-178 574.33,-178 574.33,-178"/>
<polygon fill="black" stroke="black" points="574.33,-174.5 564.33,-178 574.33,-181.5 574.33,-174.5"/>
</g>
<!-- OrderDetailPermissionResultsComponent -->
<g id="node2" class="node">
<title>OrderDetailPermissionResultsComponent</title>
<polygon fill="#ffffb3" stroke="black" points="1001.62,-122 750.38,-122 750.38,-86 1001.62,-86 1001.62,-122"/>
<text text-anchor="middle" x="876" y="-99.8" font-family="Times,serif" font-size="14.00">OrderDetailPermissionResultsComponent</text>
</g>
<!-- OrderDetailPermissionResultsComponent&#45;&gt;OrderApprovalDetailsModule -->
<g id="edge2" class="edge">
<title>OrderDetailPermissionResultsComponent&#45;&gt;OrderApprovalDetailsModule</title>
<path fill="none" stroke="black" d="M876,-122.11C876,-141.34 876,-169 876,-169 876,-169 574.43,-169 574.43,-169"/>
<polygon fill="black" stroke="black" points="574.43,-165.5 564.43,-169 574.43,-172.5 574.43,-165.5"/>
</g>
<!-- OrderApprovalDetailFormComponent  -->
<g id="node10" class="node">
<title>OrderApprovalDetailFormComponent </title>
<polygon fill="#fb8072" stroke="black" points="721.39,-252 486.61,-252 486.61,-216 721.39,-216 721.39,-252"/>
<text text-anchor="middle" x="604" y="-229.8" font-family="Times,serif" font-size="14.00">OrderApprovalDetailFormComponent </text>
</g>
<!-- OrderApprovalDetailsModule&#45;&gt;OrderApprovalDetailFormComponent  -->
<g id="edge9" class="edge">
<title>OrderApprovalDetailsModule&#45;&gt;OrderApprovalDetailFormComponent </title>
<path fill="none" stroke="black" stroke-dasharray="5,2" d="M525.46,-187.11C525.46,-187.11 525.46,-205.99 525.46,-205.99"/>
<polygon fill="black" stroke="black" points="521.96,-205.99 525.46,-215.99 528.96,-205.99 521.96,-205.99"/>
</g>
<!-- OrderDetailPermissionResultsComponent  -->
<g id="node11" class="node">
<title>OrderDetailPermissionResultsComponent </title>
<polygon fill="#fb8072" stroke="black" points="468.62,-252 213.38,-252 213.38,-216 468.62,-216 468.62,-252"/>
<text text-anchor="middle" x="341" y="-229.8" font-family="Times,serif" font-size="14.00">OrderDetailPermissionResultsComponent </text>
</g>
<!-- OrderApprovalDetailsModule&#45;&gt;OrderDetailPermissionResultsComponent  -->
<g id="edge10" class="edge">
<title>OrderApprovalDetailsModule&#45;&gt;OrderDetailPermissionResultsComponent </title>
<path fill="none" stroke="black" stroke-dasharray="5,2" d="M424.1,-187.11C424.1,-187.11 424.1,-205.99 424.1,-205.99"/>
<polygon fill="black" stroke="black" points="420.6,-205.99 424.1,-215.99 427.6,-205.99 420.6,-205.99"/>
</g>
<!-- CartSharedModule -->
<g id="node4" class="node">
<title>CartSharedModule</title>
<polygon fill="#8dd3c7" stroke="black" points="726.03,-122 723.03,-126 702.03,-126 699.03,-122 603.97,-122 603.97,-86 726.03,-86 726.03,-122"/>
<text text-anchor="middle" x="665" y="-99.8" font-family="Times,serif" font-size="14.00">CartSharedModule</text>
</g>
<!-- CartSharedModule&#45;&gt;OrderApprovalDetailsModule -->
<g id="edge3" class="edge">
<title>CartSharedModule&#45;&gt;OrderApprovalDetailsModule</title>
<path fill="none" stroke="black" d="M662.59,-122.03C662.59,-138.4 662.59,-160 662.59,-160 662.59,-160 574.22,-160 574.22,-160"/>
<polygon fill="black" stroke="black" points="574.22,-156.5 564.22,-160 574.22,-163.5 574.22,-156.5"/>
</g>
<!-- ConfigModule -->
<g id="node5" class="node">
<title>ConfigModule</title>
<polygon fill="#8dd3c7" stroke="black" points="586.44,-122 583.44,-126 562.44,-126 559.44,-122 487.56,-122 487.56,-86 586.44,-86 586.44,-122"/>
<text text-anchor="middle" x="537" y="-99.8" font-family="Times,serif" font-size="14.00">ConfigModule</text>
</g>
<!-- ConfigModule&#45;&gt;OrderApprovalDetailsModule -->
<g id="edge4" class="edge">
<title>ConfigModule&#45;&gt;OrderApprovalDetailsModule</title>
<path fill="none" stroke="black" d="M526.07,-122.11C526.07,-122.11 526.07,-140.99 526.07,-140.99"/>
<polygon fill="black" stroke="black" points="522.57,-140.99 526.07,-150.99 529.57,-140.99 522.57,-140.99"/>
</g>
<!-- FormErrorsModule -->
<g id="node6" class="node">
<title>FormErrorsModule</title>
<polygon fill="#8dd3c7" stroke="black" points="469.36,-122 466.36,-126 445.36,-126 442.36,-122 344.64,-122 344.64,-86 469.36,-86 469.36,-122"/>
<text text-anchor="middle" x="407" y="-99.8" font-family="Times,serif" font-size="14.00">FormErrorsModule</text>
</g>
<!-- FormErrorsModule&#45;&gt;OrderApprovalDetailsModule -->
<g id="edge5" class="edge">
<title>FormErrorsModule&#45;&gt;OrderApprovalDetailsModule</title>
<path fill="none" stroke="black" d="M424.54,-122.11C424.54,-122.11 424.54,-140.99 424.54,-140.99"/>
<polygon fill="black" stroke="black" points="421.04,-140.99 424.54,-150.99 428.04,-140.99 421.04,-140.99"/>
</g>
<!-- I18nModule -->
<g id="node7" class="node">
<title>I18nModule</title>
<polygon fill="#8dd3c7" stroke="black" points="326.71,-122 323.71,-126 302.71,-126 299.71,-122 241.29,-122 241.29,-86 326.71,-86 326.71,-122"/>
<text text-anchor="middle" x="284" y="-99.8" font-family="Times,serif" font-size="14.00">I18nModule</text>
</g>
<!-- I18nModule&#45;&gt;OrderApprovalDetailsModule -->
<g id="edge6" class="edge">
<title>I18nModule&#45;&gt;OrderApprovalDetailsModule</title>
<path fill="none" stroke="black" d="M284,-122.03C284,-138.4 284,-160 284,-160 284,-160 369.65,-160 369.65,-160"/>
<polygon fill="black" stroke="black" points="369.65,-163.5 379.65,-160 369.65,-156.5 369.65,-163.5"/>
</g>
<!-- SpinnerModule -->
<g id="node8" class="node">
<title>SpinnerModule</title>
<polygon fill="#8dd3c7" stroke="black" points="223.6,-122 220.6,-126 199.6,-126 196.6,-122 120.4,-122 120.4,-86 223.6,-86 223.6,-122"/>
<text text-anchor="middle" x="172" y="-99.8" font-family="Times,serif" font-size="14.00">SpinnerModule</text>
</g>
<!-- SpinnerModule&#45;&gt;OrderApprovalDetailsModule -->
<g id="edge7" class="edge">
<title>SpinnerModule&#45;&gt;OrderApprovalDetailsModule</title>
<path fill="none" stroke="black" d="M218.49,-122.11C218.49,-141.34 218.49,-169 218.49,-169 218.49,-169 369.76,-169 369.76,-169"/>
<polygon fill="black" stroke="black" points="369.76,-172.5 379.76,-169 369.76,-165.5 369.76,-172.5"/>
</g>
<!-- UrlModule -->
<g id="node9" class="node">
<title>UrlModule</title>
<polygon fill="#8dd3c7" stroke="black" points="102.21,-122 99.21,-126 78.21,-126 75.21,-122 23.79,-122 23.79,-86 102.21,-86 102.21,-122"/>
<text text-anchor="middle" x="63" y="-99.8" font-family="Times,serif" font-size="14.00">UrlModule</text>
</g>
<!-- UrlModule&#45;&gt;OrderApprovalDetailsModule -->
<g id="edge8" class="edge">
<title>UrlModule&#45;&gt;OrderApprovalDetailsModule</title>
<path fill="none" stroke="black" d="M63,-122.29C63,-144.21 63,-178 63,-178 63,-178 369.7,-178 369.7,-178"/>
<polygon fill="black" stroke="black" points="369.7,-181.5 379.7,-178 369.7,-174.5 369.7,-181.5"/>
</g>
</g>
</svg>
