<?xml version="1.0" encoding="UTF-8" standalone="no"?>
<!DOCTYPE svg PUBLIC "-//W3C//DTD SVG 1.1//EN"
 "http://www.w3.org/Graphics/SVG/1.1/DTD/svg11.dtd">
<!-- Generated by graphviz version 2.47.0 (20210316.0004)
 -->
<!-- Title: dependencies Pages: 1 -->
<svg width="1284pt" height="284pt"
 viewBox="0.00 0.00 1284.00 284.00" xmlns="http://www.w3.org/2000/svg" xmlns:xlink="http://www.w3.org/1999/xlink">
<g id="graph0" class="graph" transform="scale(1 1) rotate(0) translate(4 280)">
<title>dependencies</title>
<polygon fill="white" stroke="transparent" points="-4,4 -4,-280 1280,-280 1280,4 -4,4"/>
<text text-anchor="start" x="617.01" y="-42.4" font-family="sans-serif" font-weight="bold" font-size="14.00">Legend</text>
<polygon fill="#ffffb3" stroke="transparent" points="404,-10 404,-30 424,-30 424,-10 404,-10"/>
<text text-anchor="start" x="427.63" y="-15.4" font-family="sans-serif" font-size="14.00"> &#160;Declarations</text>
<polygon fill="#8dd3c7" stroke="transparent" points="517,-10 517,-30 537,-30 537,-10 517,-10"/>
<text text-anchor="start" x="540.73" y="-15.4" font-family="sans-serif" font-size="14.00"> &#160;Module</text>
<polygon fill="#80b1d3" stroke="transparent" points="603,-10 603,-30 623,-30 623,-10 603,-10"/>
<text text-anchor="start" x="626.78" y="-15.4" font-family="sans-serif" font-size="14.00"> &#160;Bootstrap</text>
<polygon fill="#fdb462" stroke="transparent" points="700,-10 700,-30 720,-30 720,-10 700,-10"/>
<text text-anchor="start" x="723.67" y="-15.4" font-family="sans-serif" font-size="14.00"> &#160;Providers</text>
<polygon fill="#fb8072" stroke="transparent" points="796,-10 796,-30 816,-30 816,-10 796,-10"/>
<text text-anchor="start" x="819.73" y="-15.4" font-family="sans-serif" font-size="14.00"> &#160;Exports</text>
<g id="clust1" class="cluster">
<title>cluster_OrderApprovalDetailsModule</title>
<polygon fill="none" stroke="black" stroke-dasharray="1,5" points="8,-70 8,-268 1268,-268 1268,-70 8,-70"/>
</g>
<g id="clust5" class="cluster">
<title>cluster_OrderApprovalDetailsModule_imports</title>
<polygon fill="none" stroke="black" points="542,-78 542,-130 1260,-130 1260,-78 542,-78"/>
</g>
<g id="clust6" class="cluster">
<title>cluster_OrderApprovalDetailsModule_exports</title>
<polygon fill="none" stroke="black" points="487,-208 487,-260 1011,-260 1011,-208 487,-208"/>
</g>
<g id="clust2" class="cluster">
<title>cluster_OrderApprovalDetailsModule_declarations</title>
<polygon fill="none" stroke="black" points="16,-78 16,-130 534,-130 534,-78 16,-78"/>
</g>
<!-- OrderApprovalDetailFormComponent -->
<g id="node1" class="node">
<title>OrderApprovalDetailFormComponent</title>
<polygon fill="#ffffb3" stroke="black" points="525.89,-122 294.11,-122 294.11,-86 525.89,-86 525.89,-122"/>
<text text-anchor="middle" x="410" y="-99.8" font-family="Times,serif" font-size="14.00">OrderApprovalDetailFormComponent</text>
</g>
<!-- OrderApprovalDetailsModule -->
<g id="node3" class="node">
<title>OrderApprovalDetailsModule</title>
<polygon fill="#8dd3c7" stroke="black" points="846.22,-187 843.22,-191 822.22,-191 819.22,-187 661.78,-187 661.78,-151 846.22,-151 846.22,-187"/>
<text text-anchor="middle" x="754" y="-164.8" font-family="Times,serif" font-size="14.00">OrderApprovalDetailsModule</text>
</g>
<!-- OrderApprovalDetailFormComponent&#45;&gt;OrderApprovalDetailsModule -->
<g id="edge1" class="edge">
<title>OrderApprovalDetailFormComponent&#45;&gt;OrderApprovalDetailsModule</title>
<path fill="none" stroke="black" d="M510.57,-122.11C510.57,-141.34 510.57,-169 510.57,-169 510.57,-169 651.62,-169 651.62,-169"/>
<polygon fill="black" stroke="black" points="651.62,-172.5 661.62,-169 651.62,-165.5 651.62,-172.5"/>
</g>
<!-- OrderDetailPermissionResultsComponent -->
<g id="node2" class="node">
<title>OrderDetailPermissionResultsComponent</title>
<polygon fill="#ffffb3" stroke="black" points="275.62,-122 24.38,-122 24.38,-86 275.62,-86 275.62,-122"/>
<text text-anchor="middle" x="150" y="-99.8" font-family="Times,serif" font-size="14.00">OrderDetailPermissionResultsComponent</text>
</g>
<!-- OrderDetailPermissionResultsComponent&#45;&gt;OrderApprovalDetailsModule -->
<g id="edge2" class="edge">
<title>OrderDetailPermissionResultsComponent&#45;&gt;OrderApprovalDetailsModule</title>
<path fill="none" stroke="black" d="M150,-122.29C150,-144.21 150,-178 150,-178 150,-178 651.61,-178 651.61,-178"/>
<polygon fill="black" stroke="black" points="651.61,-181.5 661.61,-178 651.61,-174.5 651.61,-181.5"/>
</g>
<!-- OrderApprovalDetailFormComponent  -->
<g id="node10" class="node">
<title>OrderApprovalDetailFormComponent </title>
<polygon fill="#fb8072" stroke="black" points="1003.39,-252 768.61,-252 768.61,-216 1003.39,-216 1003.39,-252"/>
<text text-anchor="middle" x="886" y="-229.8" font-family="Times,serif" font-size="14.00">OrderApprovalDetailFormComponent </text>
</g>
<!-- OrderApprovalDetailsModule&#45;&gt;OrderApprovalDetailFormComponent  -->
<g id="edge9" class="edge">
<title>OrderApprovalDetailsModule&#45;&gt;OrderApprovalDetailFormComponent </title>
<path fill="none" stroke="black" stroke-dasharray="5,2" d="M807.46,-187.11C807.46,-187.11 807.46,-205.99 807.46,-205.99"/>
<polygon fill="black" stroke="black" points="803.96,-205.99 807.46,-215.99 810.96,-205.99 803.96,-205.99"/>
</g>
<!-- OrderDetailPermissionResultsComponent  -->
<g id="node11" class="node">
<title>OrderDetailPermissionResultsComponent </title>
<polygon fill="#fb8072" stroke="black" points="750.62,-252 495.38,-252 495.38,-216 750.62,-216 750.62,-252"/>
<text text-anchor="middle" x="623" y="-229.8" font-family="Times,serif" font-size="14.00">OrderDetailPermissionResultsComponent </text>
</g>
<!-- OrderApprovalDetailsModule&#45;&gt;OrderDetailPermissionResultsComponent  -->
<g id="edge10" class="edge">
<title>OrderApprovalDetailsModule&#45;&gt;OrderDetailPermissionResultsComponent </title>
<path fill="none" stroke="black" stroke-dasharray="5,2" d="M706.1,-187.11C706.1,-187.11 706.1,-205.99 706.1,-205.99"/>
<polygon fill="black" stroke="black" points="702.6,-205.99 706.1,-215.99 709.6,-205.99 702.6,-205.99"/>
</g>
<!-- CartSharedModule -->
<g id="node4" class="node">
<title>CartSharedModule</title>
<polygon fill="#8dd3c7" stroke="black" points="1252.03,-122 1249.03,-126 1228.03,-126 1225.03,-122 1129.97,-122 1129.97,-86 1252.03,-86 1252.03,-122"/>
<text text-anchor="middle" x="1191" y="-99.8" font-family="Times,serif" font-size="14.00">CartSharedModule</text>
</g>
<!-- CartSharedModule&#45;&gt;OrderApprovalDetailsModule -->
<g id="edge3" class="edge">
<title>CartSharedModule&#45;&gt;OrderApprovalDetailsModule</title>
<path fill="none" stroke="black" d="M1191,-122.29C1191,-144.21 1191,-178 1191,-178 1191,-178 856.41,-178 856.41,-178"/>
<polygon fill="black" stroke="black" points="856.41,-174.5 846.41,-178 856.41,-181.5 856.41,-174.5"/>
</g>
<!-- ConfigModule -->
<g id="node5" class="node">
<title>ConfigModule</title>
<polygon fill="#8dd3c7" stroke="black" points="1112.44,-122 1109.44,-126 1088.44,-126 1085.44,-122 1013.56,-122 1013.56,-86 1112.44,-86 1112.44,-122"/>
<text text-anchor="middle" x="1063" y="-99.8" font-family="Times,serif" font-size="14.00">ConfigModule</text>
</g>
<!-- ConfigModule&#45;&gt;OrderApprovalDetailsModule -->
<g id="edge4" class="edge">
<title>ConfigModule&#45;&gt;OrderApprovalDetailsModule</title>
<path fill="none" stroke="black" d="M1063,-122.11C1063,-141.34 1063,-169 1063,-169 1063,-169 856.29,-169 856.29,-169"/>
<polygon fill="black" stroke="black" points="856.29,-165.5 846.29,-169 856.29,-172.5 856.29,-165.5"/>
</g>
<!-- FormErrorsModule -->
<g id="node6" class="node">
<title>FormErrorsModule</title>
<polygon fill="#8dd3c7" stroke="black" points="995.36,-122 992.36,-126 971.36,-126 968.36,-122 870.64,-122 870.64,-86 995.36,-86 995.36,-122"/>
<text text-anchor="middle" x="933" y="-99.8" font-family="Times,serif" font-size="14.00">FormErrorsModule</text>
</g>
<!-- FormErrorsModule&#45;&gt;OrderApprovalDetailsModule -->
<g id="edge5" class="edge">
<title>FormErrorsModule&#45;&gt;OrderApprovalDetailsModule</title>
<path fill="none" stroke="black" d="M933,-122.03C933,-138.4 933,-160 933,-160 933,-160 856.38,-160 856.38,-160"/>
<polygon fill="black" stroke="black" points="856.38,-156.5 846.38,-160 856.38,-163.5 856.38,-156.5"/>
</g>
<!-- I18nModule -->
<g id="node7" class="node">
<title>I18nModule</title>
<polygon fill="#8dd3c7" stroke="black" points="852.71,-122 849.71,-126 828.71,-126 825.71,-122 767.29,-122 767.29,-86 852.71,-86 852.71,-122"/>
<text text-anchor="middle" x="810" y="-99.8" font-family="Times,serif" font-size="14.00">I18nModule</text>
</g>
<!-- I18nModule&#45;&gt;OrderApprovalDetailsModule -->
<g id="edge6" class="edge">
<title>I18nModule&#45;&gt;OrderApprovalDetailsModule</title>
<path fill="none" stroke="black" d="M806.88,-122.11C806.88,-122.11 806.88,-140.99 806.88,-140.99"/>
<polygon fill="black" stroke="black" points="803.38,-140.99 806.88,-150.99 810.38,-140.99 803.38,-140.99"/>
</g>
<!-- SpinnerModule -->
<g id="node8" class="node">
<title>SpinnerModule</title>
<polygon fill="#8dd3c7" stroke="black" points="749.6,-122 746.6,-126 725.6,-126 722.6,-122 646.4,-122 646.4,-86 749.6,-86 749.6,-122"/>
<text text-anchor="middle" x="698" y="-99.8" font-family="Times,serif" font-size="14.00">SpinnerModule</text>
</g>
<!-- SpinnerModule&#45;&gt;OrderApprovalDetailsModule -->
<g id="edge7" class="edge">
<title>SpinnerModule&#45;&gt;OrderApprovalDetailsModule</title>
<path fill="none" stroke="black" d="M705.6,-122.11C705.6,-122.11 705.6,-140.99 705.6,-140.99"/>
<polygon fill="black" stroke="black" points="702.1,-140.99 705.6,-150.99 709.1,-140.99 702.1,-140.99"/>
</g>
<!-- UrlModule -->
<g id="node9" class="node">
<title>UrlModule</title>
<polygon fill="#8dd3c7" stroke="black" points="628.21,-122 625.21,-126 604.21,-126 601.21,-122 549.79,-122 549.79,-86 628.21,-86 628.21,-122"/>
<text text-anchor="middle" x="589" y="-99.8" font-family="Times,serif" font-size="14.00">UrlModule</text>
</g>
<!-- UrlModule&#45;&gt;OrderApprovalDetailsModule -->
<g id="edge8" class="edge">
<title>UrlModule&#45;&gt;OrderApprovalDetailsModule</title>
<path fill="none" stroke="black" d="M589,-122.03C589,-138.4 589,-160 589,-160 589,-160 651.37,-160 651.37,-160"/>
<polygon fill="black" stroke="black" points="651.37,-163.5 661.37,-160 651.37,-156.5 651.37,-163.5"/>
</g>
</g>
</svg>
