<?xml version="1.0" encoding="UTF-8" standalone="no"?>
<!DOCTYPE svg PUBLIC "-//W3C//DTD SVG 1.1//EN"
 "http://www.w3.org/Graphics/SVG/1.1/DTD/svg11.dtd">
<!-- Generated by graphviz version 2.47.0 (20210316.0004)
 -->
<!-- Title: dependencies Pages: 1 -->
<svg width="886pt" height="323pt"
 viewBox="0.00 0.00 886.00 322.59" xmlns="http://www.w3.org/2000/svg" xmlns:xlink="http://www.w3.org/1999/xlink">
<g id="graph0" class="graph" transform="scale(1 1) rotate(0) translate(4 318.59)">
<title>dependencies</title>
<polygon fill="white" stroke="transparent" points="-4,4 -4,-318.59 882,-318.59 882,4 -4,4"/>
<text text-anchor="start" x="418.01" y="-42.4" font-family="sans-serif" font-weight="bold" font-size="14.00">Legend</text>
<polygon fill="#ffffb3" stroke="transparent" points="205,-10 205,-30 225,-30 225,-10 205,-10"/>
<text text-anchor="start" x="228.63" y="-15.4" font-family="sans-serif" font-size="14.00"> &#160;Declarations</text>
<polygon fill="#8dd3c7" stroke="transparent" points="318,-10 318,-30 338,-30 338,-10 318,-10"/>
<text text-anchor="start" x="341.73" y="-15.4" font-family="sans-serif" font-size="14.00"> &#160;Module</text>
<polygon fill="#80b1d3" stroke="transparent" points="404,-10 404,-30 424,-30 424,-10 404,-10"/>
<text text-anchor="start" x="427.78" y="-15.4" font-family="sans-serif" font-size="14.00"> &#160;Bootstrap</text>
<polygon fill="#fdb462" stroke="transparent" points="501,-10 501,-30 521,-30 521,-10 501,-10"/>
<text text-anchor="start" x="524.67" y="-15.4" font-family="sans-serif" font-size="14.00"> &#160;Providers</text>
<polygon fill="#fb8072" stroke="transparent" points="597,-10 597,-30 617,-30 617,-10 597,-10"/>
<text text-anchor="start" x="620.73" y="-15.4" font-family="sans-serif" font-size="14.00"> &#160;Exports</text>
<g id="clust1" class="cluster">
<title>cluster_UnitUserListModule</title>
<polygon fill="none" stroke="black" stroke-dasharray="1,5" points="8,-70 8,-306.59 870,-306.59 870,-70 8,-70"/>
</g>
<g id="clust2" class="cluster">
<title>cluster_UnitUserListModule_declarations</title>
<polygon fill="none" stroke="black" points="486,-189.59 486,-241.59 862,-241.59 862,-189.59 486,-189.59"/>
</g>
<g id="clust3" class="cluster">
<title>cluster_UnitUserListModule_UnitUserListComponent_providers</title>
<polygon fill="none" stroke="black" points="362,-78 362,-176.59 862,-176.59 862,-78 362,-78"/>
</g>
<g id="clust5" class="cluster">
<title>cluster_UnitUserListModule_imports</title>
<polygon fill="none" stroke="black" points="16,-189.59 16,-241.59 478,-241.59 478,-189.59 16,-189.59"/>
</g>
<!-- UnitUserListComponent -->
<g id="node1" class="node">
<title>UnitUserListComponent</title>
<polygon fill="#ffffb3" stroke="black" points="854.43,-233.59 699.57,-233.59 699.57,-197.59 854.43,-197.59 854.43,-233.59"/>
<text text-anchor="middle" x="777" y="-211.39" font-family="Times,serif" font-size="14.00">UnitUserListComponent</text>
</g>
<!-- UnitUserListModule -->
<g id="node3" class="node">
<title>UnitUserListModule</title>
<polygon fill="#8dd3c7" stroke="black" points="411.14,-298.59 408.14,-302.59 387.14,-302.59 384.14,-298.59 278.86,-298.59 278.86,-262.59 411.14,-262.59 411.14,-298.59"/>
<text text-anchor="middle" x="345" y="-276.39" font-family="Times,serif" font-size="14.00">UnitUserListModule</text>
</g>
<!-- UnitUserListComponent&#45;&gt;UnitUserListModule -->
<g id="edge1" class="edge">
<title>UnitUserListComponent&#45;&gt;UnitUserListModule</title>
<path fill="none" stroke="black" d="M777,-233.87C777,-254.91 777,-286.59 777,-286.59 777,-286.59 421.55,-286.59 421.55,-286.59"/>
<polygon fill="black" stroke="black" points="421.55,-283.09 411.55,-286.59 421.55,-290.09 421.55,-283.09"/>
</g>
<!-- UnitUserRolesCellComponent -->
<g id="node2" class="node">
<title>UnitUserRolesCellComponent</title>
<polygon fill="#ffffb3" stroke="black" points="681.87,-233.59 494.13,-233.59 494.13,-197.59 681.87,-197.59 681.87,-233.59"/>
<text text-anchor="middle" x="588" y="-211.39" font-family="Times,serif" font-size="14.00">UnitUserRolesCellComponent</text>
</g>
<!-- UnitUserRolesCellComponent&#45;&gt;UnitUserListModule -->
<g id="edge3" class="edge">
<title>UnitUserRolesCellComponent&#45;&gt;UnitUserListModule</title>
<path fill="none" stroke="black" d="M588,-233.61C588,-250.96 588,-274.59 588,-274.59 588,-274.59 421.4,-274.59 421.4,-274.59"/>
<polygon fill="black" stroke="black" points="421.4,-271.09 411.4,-274.59 421.4,-278.09 421.4,-271.09"/>
</g>
<!-- {
 &#160;&#160;&#160;provide: ListService, useExisting: UnitUserListService,
} -->
<g id="node4" class="node">
<title>{
 &#160;&#160;&#160;provide: ListService, useExisting: UnitUserListService,
}</title>
<ellipse fill="#fdb462" stroke="black" cx="612" cy="-127.3" rx="241.95" ry="41.09"/>
<text text-anchor="middle" x="612" y="-139.9" font-family="Times,serif" font-size="14.00">{</text>
<text text-anchor="middle" x="612" y="-123.1" font-family="Times,serif" font-size="14.00"> &#160;&#160;&#160;provide: ListService, useExisting: UnitUserListService,</text>
<text text-anchor="middle" x="612" y="-106.3" font-family="Times,serif" font-size="14.00">}</text>
</g>
<!-- {
 &#160;&#160;&#160;provide: ListService, useExisting: UnitUserListService,
}&#45;&gt;UnitUserListComponent -->
<g id="edge2" class="edge">
<title>{
 &#160;&#160;&#160;provide: ListService, useExisting: UnitUserListService,
}&#45;&gt;UnitUserListComponent</title>
<path fill="none" stroke="black" d="M776.88,-157.68C776.88,-157.68 776.88,-187.52 776.88,-187.52"/>
<polygon fill="black" stroke="black" points="773.38,-187.52 776.88,-197.52 780.38,-187.52 773.38,-187.52"/>
</g>
<!-- DisableInfoModule -->
<g id="node5" class="node">
<title>DisableInfoModule</title>
<polygon fill="#8dd3c7" stroke="black" points="469.63,-233.59 466.63,-237.59 445.63,-237.59 442.63,-233.59 344.37,-233.59 344.37,-197.59 469.63,-197.59 469.63,-233.59"/>
<text text-anchor="middle" x="407" y="-211.39" font-family="Times,serif" font-size="14.00">DisableInfoModule</text>
</g>
<!-- DisableInfoModule&#45;&gt;UnitUserListModule -->
<g id="edge4" class="edge">
<title>DisableInfoModule&#45;&gt;UnitUserListModule</title>
<path fill="none" stroke="black" d="M377.75,-233.7C377.75,-233.7 377.75,-252.58 377.75,-252.58"/>
<polygon fill="black" stroke="black" points="374.25,-252.58 377.75,-262.58 381.25,-252.58 374.25,-252.58"/>
</g>
<!-- I18nModule -->
<g id="node6" class="node">
<title>I18nModule</title>
<polygon fill="#8dd3c7" stroke="black" points="326.71,-233.59 323.71,-237.59 302.71,-237.59 299.71,-233.59 241.29,-233.59 241.29,-197.59 326.71,-197.59 326.71,-233.59"/>
<text text-anchor="middle" x="284" y="-211.39" font-family="Times,serif" font-size="14.00">I18nModule</text>
</g>
<!-- I18nModule&#45;&gt;UnitUserListModule -->
<g id="edge5" class="edge">
<title>I18nModule&#45;&gt;UnitUserListModule</title>
<path fill="none" stroke="black" d="M302.64,-233.7C302.64,-233.7 302.64,-252.58 302.64,-252.58"/>
<polygon fill="black" stroke="black" points="299.14,-252.58 302.64,-262.58 306.14,-252.58 299.14,-252.58"/>
</g>
<!-- SubListModule -->
<g id="node7" class="node">
<title>SubListModule</title>
<polygon fill="#8dd3c7" stroke="black" points="223.61,-233.59 220.61,-237.59 199.61,-237.59 196.61,-233.59 120.39,-233.59 120.39,-197.59 223.61,-197.59 223.61,-233.59"/>
<text text-anchor="middle" x="172" y="-211.39" font-family="Times,serif" font-size="14.00">SubListModule</text>
</g>
<!-- SubListModule&#45;&gt;UnitUserListModule -->
<g id="edge6" class="edge">
<title>SubListModule&#45;&gt;UnitUserListModule</title>
<path fill="none" stroke="black" d="M172,-233.61C172,-250.96 172,-274.59 172,-274.59 172,-274.59 268.61,-274.59 268.61,-274.59"/>
<polygon fill="black" stroke="black" points="268.61,-278.09 278.61,-274.59 268.61,-271.09 268.61,-278.09"/>
</g>
<!-- UrlModule -->
<g id="node8" class="node">
<title>UrlModule</title>
<polygon fill="#8dd3c7" stroke="black" points="102.21,-233.59 99.21,-237.59 78.21,-237.59 75.21,-233.59 23.79,-233.59 23.79,-197.59 102.21,-197.59 102.21,-233.59"/>
<text text-anchor="middle" x="63" y="-211.39" font-family="Times,serif" font-size="14.00">UrlModule</text>
</g>
<!-- UrlModule&#45;&gt;UnitUserListModule -->
<g id="edge7" class="edge">
<title>UrlModule&#45;&gt;UnitUserListModule</title>
<path fill="none" stroke="black" d="M63,-233.87C63,-254.91 63,-286.59 63,-286.59 63,-286.59 268.53,-286.59 268.53,-286.59"/>
<polygon fill="black" stroke="black" points="268.53,-290.09 278.53,-286.59 268.53,-283.09 268.53,-290.09"/>
</g>
</g>
</svg>
