<?xml version="1.0" encoding="UTF-8" standalone="no"?>
<!DOCTYPE svg PUBLIC "-//W3C//DTD SVG 1.1//EN"
 "http://www.w3.org/Graphics/SVG/1.1/DTD/svg11.dtd">
<!-- Generated by graphviz version 2.47.3 (20210619.1520)
 -->
<!-- Title: dependencies Pages: 1 -->
<svg width="1222pt" height="285pt"
 viewBox="0.00 0.00 1222.00 285.39" xmlns="http://www.w3.org/2000/svg" xmlns:xlink="http://www.w3.org/1999/xlink">
<g id="graph0" class="graph" transform="scale(1 1) rotate(0) translate(4 281.39)">
<title>dependencies</title>
<polygon fill="white" stroke="transparent" points="-4,4 -4,-281.39 1218,-281.39 1218,4 -4,4"/>
<text text-anchor="middle" x="607" y="-8.2" font-family="sans-serif" font-size="14.00">dependencies</text>
<g id="clust1" class="cluster">
<title>cluster_UnitUserListModule</title>
<polygon fill="none" stroke="black" stroke-dasharray="1,5" points="8,-32.8 8,-269.39 1206,-269.39 1206,-32.8 8,-32.8"/>
</g>
<g id="clust3" class="cluster">
<title>cluster_UnitUserListModule_UnitUserListComponent_providers</title>
<polygon fill="none" stroke="black" points="698,-40.8 698,-204.39 1198,-204.39 1198,-40.8 698,-40.8"/>
</g>
<g id="clust2" class="cluster">
<title>cluster_UnitUserListModule_declarations</title>
<polygon fill="none" stroke="black" points="486,-152.39 486,-204.39 690,-204.39 690,-152.39 486,-152.39"/>
</g>
<g id="clust5" class="cluster">
<title>cluster_UnitUserListModule_imports</title>
<polygon fill="none" stroke="black" points="16,-152.39 16,-204.39 478,-204.39 478,-152.39 16,-152.39"/>
</g>
<!-- UnitUserListComponent -->
<g id="node1" class="node">
<title>UnitUserListComponent</title>
<polygon fill="#ffffb3" stroke="black" points="942.43,-196.39 787.57,-196.39 787.57,-160.39 942.43,-160.39 942.43,-196.39"/>
<text text-anchor="middle" x="865" y="-174.19" font-family="Times,serif" font-size="14.00">UnitUserListComponent</text>
</g>
<!-- UnitUserListModule -->
<g id="node3" class="node">
<title>UnitUserListModule</title>
<polygon fill="#8dd3c7" stroke="black" points="411.14,-261.39 408.14,-265.39 387.14,-265.39 384.14,-261.39 278.86,-261.39 278.86,-225.39 411.14,-225.39 411.14,-261.39"/>
<text text-anchor="middle" x="345" y="-239.19" font-family="Times,serif" font-size="14.00">UnitUserListModule</text>
</g>
<!-- UnitUserListComponent&#45;&gt;UnitUserListModule -->
<g id="edge1" class="edge">
<title>UnitUserListComponent&#45;&gt;UnitUserListModule</title>
<path fill="none" stroke="black" d="M865,-196.67C865,-217.71 865,-249.39 865,-249.39 865,-249.39 421.39,-249.39 421.39,-249.39"/>
<polygon fill="black" stroke="black" points="421.39,-245.89 411.39,-249.39 421.39,-252.89 421.39,-245.89"/>
</g>
<!-- UnitUserRolesCellComponent -->
<g id="node2" class="node">
<title>UnitUserRolesCellComponent</title>
<polygon fill="#ffffb3" stroke="black" points="681.87,-196.39 494.13,-196.39 494.13,-160.39 681.87,-160.39 681.87,-196.39"/>
<text text-anchor="middle" x="588" y="-174.19" font-family="Times,serif" font-size="14.00">UnitUserRolesCellComponent</text>
</g>
<!-- UnitUserRolesCellComponent&#45;&gt;UnitUserListModule -->
<g id="edge3" class="edge">
<title>UnitUserRolesCellComponent&#45;&gt;UnitUserListModule</title>
<path fill="none" stroke="black" d="M588,-196.41C588,-213.76 588,-237.39 588,-237.39 588,-237.39 421.4,-237.39 421.4,-237.39"/>
<polygon fill="black" stroke="black" points="421.4,-233.89 411.4,-237.39 421.4,-240.89 421.4,-233.89"/>
</g>
<!-- {
 &#160;&#160;&#160;provide: ListService, useExisting: UnitUserListService,
} -->
<g id="node4" class="node">
<title>{
 &#160;&#160;&#160;provide: ListService, useExisting: UnitUserListService,
}</title>
<ellipse fill="#fdb462" stroke="black" cx="948" cy="-90.1" rx="241.95" ry="41.09"/>
<text text-anchor="middle" x="948" y="-102.7" font-family="Times,serif" font-size="14.00">{</text>
<text text-anchor="middle" x="948" y="-85.9" font-family="Times,serif" font-size="14.00"> &#160;&#160;&#160;provide: ListService, useExisting: UnitUserListService,</text>
<text text-anchor="middle" x="948" y="-69.1" font-family="Times,serif" font-size="14.00">}</text>
</g>
<!-- {
 &#160;&#160;&#160;provide: ListService, useExisting: UnitUserListService,
}&#45;&gt;UnitUserListComponent -->
<g id="edge2" class="edge">
<title>{
 &#160;&#160;&#160;provide: ListService, useExisting: UnitUserListService,
}&#45;&gt;UnitUserListComponent</title>
<path fill="none" stroke="black" d="M865,-129.08C865,-129.08 865,-150.36 865,-150.36"/>
<polygon fill="black" stroke="black" points="861.5,-150.36 865,-160.36 868.5,-150.36 861.5,-150.36"/>
</g>
<!-- DisableInfoModule -->
<g id="node5" class="node">
<title>DisableInfoModule</title>
<polygon fill="#8dd3c7" stroke="black" points="469.63,-196.39 466.63,-200.39 445.63,-200.39 442.63,-196.39 344.37,-196.39 344.37,-160.39 469.63,-160.39 469.63,-196.39"/>
<text text-anchor="middle" x="407" y="-174.19" font-family="Times,serif" font-size="14.00">DisableInfoModule</text>
</g>
<!-- DisableInfoModule&#45;&gt;UnitUserListModule -->
<g id="edge4" class="edge">
<title>DisableInfoModule&#45;&gt;UnitUserListModule</title>
<path fill="none" stroke="black" d="M377.75,-196.5C377.75,-196.5 377.75,-215.38 377.75,-215.38"/>
<polygon fill="black" stroke="black" points="374.25,-215.38 377.75,-225.38 381.25,-215.38 374.25,-215.38"/>
</g>
<!-- I18nModule -->
<g id="node6" class="node">
<title>I18nModule</title>
<polygon fill="#8dd3c7" stroke="black" points="326.71,-196.39 323.71,-200.39 302.71,-200.39 299.71,-196.39 241.29,-196.39 241.29,-160.39 326.71,-160.39 326.71,-196.39"/>
<text text-anchor="middle" x="284" y="-174.19" font-family="Times,serif" font-size="14.00">I18nModule</text>
</g>
<!-- I18nModule&#45;&gt;UnitUserListModule -->
<g id="edge5" class="edge">
<title>I18nModule&#45;&gt;UnitUserListModule</title>
<path fill="none" stroke="black" d="M302.64,-196.5C302.64,-196.5 302.64,-215.38 302.64,-215.38"/>
<polygon fill="black" stroke="black" points="299.14,-215.38 302.64,-225.38 306.14,-215.38 299.14,-215.38"/>
</g>
<!-- SubListModule -->
<g id="node7" class="node">
<title>SubListModule</title>
<polygon fill="#8dd3c7" stroke="black" points="223.61,-196.39 220.61,-200.39 199.61,-200.39 196.61,-196.39 120.39,-196.39 120.39,-160.39 223.61,-160.39 223.61,-196.39"/>
<text text-anchor="middle" x="172" y="-174.19" font-family="Times,serif" font-size="14.00">SubListModule</text>
</g>
<!-- SubListModule&#45;&gt;UnitUserListModule -->
<g id="edge6" class="edge">
<title>SubListModule&#45;&gt;UnitUserListModule</title>
<path fill="none" stroke="black" d="M172,-196.41C172,-213.76 172,-237.39 172,-237.39 172,-237.39 268.61,-237.39 268.61,-237.39"/>
<polygon fill="black" stroke="black" points="268.61,-240.89 278.61,-237.39 268.61,-233.89 268.61,-240.89"/>
</g>
<!-- UrlModule -->
<g id="node8" class="node">
<title>UrlModule</title>
<polygon fill="#8dd3c7" stroke="black" points="102.21,-196.39 99.21,-200.39 78.21,-200.39 75.21,-196.39 23.79,-196.39 23.79,-160.39 102.21,-160.39 102.21,-196.39"/>
<text text-anchor="middle" x="63" y="-174.19" font-family="Times,serif" font-size="14.00">UrlModule</text>
</g>
<!-- UrlModule&#45;&gt;UnitUserListModule -->
<g id="edge7" class="edge">
<title>UrlModule&#45;&gt;UnitUserListModule</title>
<path fill="none" stroke="black" d="M63,-196.67C63,-217.71 63,-249.39 63,-249.39 63,-249.39 268.53,-249.39 268.53,-249.39"/>
<polygon fill="black" stroke="black" points="268.53,-252.89 278.53,-249.39 268.53,-245.89 268.53,-252.89"/>
</g>
</g>
</svg>
