<?xml version="1.0" encoding="UTF-8" standalone="no"?>
<!DOCTYPE svg PUBLIC "-//W3C//DTD SVG 1.1//EN"
 "http://www.w3.org/Graphics/SVG/1.1/DTD/svg11.dtd">
<!-- Generated by graphviz version 2.46.0 (20210119.1425)
 -->
<!-- Title: dependencies Pages: 1 -->
<svg width="886pt" height="211pt"
 viewBox="0.00 0.00 886.00 211.00" xmlns="http://www.w3.org/2000/svg" xmlns:xlink="http://www.w3.org/1999/xlink">
<g id="graph0" class="graph" transform="scale(1 1) rotate(0) translate(4 207)">
<title>dependencies</title>
<polygon fill="white" stroke="transparent" points="-4,4 -4,-207 882,-207 882,4 -4,4"/>
<text text-anchor="start" x="418.01" y="-42.4" font-family="sans-serif" font-weight="bold" font-size="14.00">Legend</text>
<polygon fill="#ffffb3" stroke="transparent" points="205,-10 205,-30 225,-30 225,-10 205,-10"/>
<text text-anchor="start" x="228.63" y="-15.4" font-family="sans-serif" font-size="14.00"> &#160;Declarations</text>
<polygon fill="#8dd3c7" stroke="transparent" points="318,-10 318,-30 338,-30 338,-10 318,-10"/>
<text text-anchor="start" x="341.73" y="-15.4" font-family="sans-serif" font-size="14.00"> &#160;Module</text>
<polygon fill="#80b1d3" stroke="transparent" points="404,-10 404,-30 424,-30 424,-10 404,-10"/>
<text text-anchor="start" x="427.78" y="-15.4" font-family="sans-serif" font-size="14.00"> &#160;Bootstrap</text>
<polygon fill="#fdb462" stroke="transparent" points="501,-10 501,-30 521,-30 521,-10 501,-10"/>
<text text-anchor="start" x="524.67" y="-15.4" font-family="sans-serif" font-size="14.00"> &#160;Providers</text>
<polygon fill="#fb8072" stroke="transparent" points="597,-10 597,-30 617,-30 617,-10 597,-10"/>
<text text-anchor="start" x="620.73" y="-15.4" font-family="sans-serif" font-size="14.00"> &#160;Exports</text>
<g id="clust1" class="cluster">
<title>cluster_UnitUserListModule</title>
<polygon fill="none" stroke="black" stroke-dasharray="1,5" points="8,-70 8,-195 870,-195 870,-70 8,-70"/>
</g>
<g id="clust2" class="cluster">
<title>cluster_UnitUserListModule_declarations</title>
<polygon fill="none" stroke="black" points="486,-78 486,-130 862,-130 862,-78 486,-78"/>
</g>
<g id="clust5" class="cluster">
<title>cluster_UnitUserListModule_imports</title>
<polygon fill="none" stroke="black" points="16,-78 16,-130 478,-130 478,-78 16,-78"/>
</g>
<!-- UnitUserListComponent -->
<g id="node1" class="node">
<title>UnitUserListComponent</title>
<polygon fill="#ffffb3" stroke="black" points="854.43,-122 699.57,-122 699.57,-86 854.43,-86 854.43,-122"/>
<text text-anchor="middle" x="777" y="-99.8" font-family="Times,serif" font-size="14.00">UnitUserListComponent</text>
</g>
<!-- UnitUserListModule -->
<g id="node3" class="node">
<title>UnitUserListModule</title>
<polygon fill="#8dd3c7" stroke="black" points="411.14,-187 408.14,-191 387.14,-191 384.14,-187 278.86,-187 278.86,-151 411.14,-151 411.14,-187"/>
<text text-anchor="middle" x="345" y="-164.8" font-family="Times,serif" font-size="14.00">UnitUserListModule</text>
</g>
<!-- UnitUserListComponent&#45;&gt;UnitUserListModule -->
<g id="edge1" class="edge">
<title>UnitUserListComponent&#45;&gt;UnitUserListModule</title>
<path fill="none" stroke="black" d="M777,-122.28C777,-143.32 777,-175 777,-175 777,-175 421.55,-175 421.55,-175"/>
<polygon fill="black" stroke="black" points="421.55,-171.5 411.55,-175 421.55,-178.5 421.55,-171.5"/>
</g>
<!-- UnitUserRolesCellComponent -->
<g id="node2" class="node">
<title>UnitUserRolesCellComponent</title>
<polygon fill="#ffffb3" stroke="black" points="681.87,-122 494.13,-122 494.13,-86 681.87,-86 681.87,-122"/>
<text text-anchor="middle" x="588" y="-99.8" font-family="Times,serif" font-size="14.00">UnitUserRolesCellComponent</text>
</g>
<!-- UnitUserRolesCellComponent&#45;&gt;UnitUserListModule -->
<g id="edge2" class="edge">
<title>UnitUserRolesCellComponent&#45;&gt;UnitUserListModule</title>
<path fill="none" stroke="black" d="M588,-122.02C588,-139.37 588,-163 588,-163 588,-163 421.4,-163 421.4,-163"/>
<polygon fill="black" stroke="black" points="421.4,-159.5 411.4,-163 421.4,-166.5 421.4,-159.5"/>
</g>
<!-- DisableInfoModule -->
<g id="node4" class="node">
<title>DisableInfoModule</title>
<polygon fill="#8dd3c7" stroke="black" points="469.63,-122 466.63,-126 445.63,-126 442.63,-122 344.37,-122 344.37,-86 469.63,-86 469.63,-122"/>
<text text-anchor="middle" x="407" y="-99.8" font-family="Times,serif" font-size="14.00">DisableInfoModule</text>
</g>
<!-- DisableInfoModule&#45;&gt;UnitUserListModule -->
<g id="edge3" class="edge">
<title>DisableInfoModule&#45;&gt;UnitUserListModule</title>
<path fill="none" stroke="black" d="M377.75,-122.11C377.75,-122.11 377.75,-140.99 377.75,-140.99"/>
<polygon fill="black" stroke="black" points="374.25,-140.99 377.75,-150.99 381.25,-140.99 374.25,-140.99"/>
</g>
<!-- I18nModule -->
<g id="node5" class="node">
<title>I18nModule</title>
<polygon fill="#8dd3c7" stroke="black" points="326.71,-122 323.71,-126 302.71,-126 299.71,-122 241.29,-122 241.29,-86 326.71,-86 326.71,-122"/>
<text text-anchor="middle" x="284" y="-99.8" font-family="Times,serif" font-size="14.00">I18nModule</text>
</g>
<!-- I18nModule&#45;&gt;UnitUserListModule -->
<g id="edge4" class="edge">
<title>I18nModule&#45;&gt;UnitUserListModule</title>
<path fill="none" stroke="black" d="M302.64,-122.11C302.64,-122.11 302.64,-140.99 302.64,-140.99"/>
<polygon fill="black" stroke="black" points="299.14,-140.99 302.64,-150.99 306.14,-140.99 299.14,-140.99"/>
</g>
<!-- SubListModule -->
<g id="node6" class="node">
<title>SubListModule</title>
<polygon fill="#8dd3c7" stroke="black" points="223.61,-122 220.61,-126 199.61,-126 196.61,-122 120.39,-122 120.39,-86 223.61,-86 223.61,-122"/>
<text text-anchor="middle" x="172" y="-99.8" font-family="Times,serif" font-size="14.00">SubListModule</text>
</g>
<!-- SubListModule&#45;&gt;UnitUserListModule -->
<g id="edge5" class="edge">
<title>SubListModule&#45;&gt;UnitUserListModule</title>
<path fill="none" stroke="black" d="M172,-122.02C172,-139.37 172,-163 172,-163 172,-163 268.61,-163 268.61,-163"/>
<polygon fill="black" stroke="black" points="268.61,-166.5 278.61,-163 268.61,-159.5 268.61,-166.5"/>
</g>
<!-- UrlModule -->
<g id="node7" class="node">
<title>UrlModule</title>
<polygon fill="#8dd3c7" stroke="black" points="102.21,-122 99.21,-126 78.21,-126 75.21,-122 23.79,-122 23.79,-86 102.21,-86 102.21,-122"/>
<text text-anchor="middle" x="63" y="-99.8" font-family="Times,serif" font-size="14.00">UrlModule</text>
</g>
<!-- UrlModule&#45;&gt;UnitUserListModule -->
<g id="edge6" class="edge">
<title>UrlModule&#45;&gt;UnitUserListModule</title>
<path fill="none" stroke="black" d="M63,-122.28C63,-143.32 63,-175 63,-175 63,-175 268.53,-175 268.53,-175"/>
<polygon fill="black" stroke="black" points="268.53,-178.5 278.53,-175 268.53,-171.5 268.53,-178.5"/>
</g>
</g>
</svg>
