<?xml version="1.0" encoding="UTF-8" standalone="no"?>
<!DOCTYPE svg PUBLIC "-//W3C//DTD SVG 1.1//EN"
 "http://www.w3.org/Graphics/SVG/1.1/DTD/svg11.dtd">
<!-- Generated by graphviz version 2.47.3 (20210619.1520)
 -->
<!-- Title: dependencies Pages: 1 -->
<svg width="1947pt" height="247pt"
 viewBox="0.00 0.00 1947.00 246.80" xmlns="http://www.w3.org/2000/svg" xmlns:xlink="http://www.w3.org/1999/xlink">
<g id="graph0" class="graph" transform="scale(1 1) rotate(0) translate(4 242.8)">
<title>dependencies</title>
<polygon fill="white" stroke="transparent" points="-4,4 -4,-242.8 1943,-242.8 1943,4 -4,4"/>
<text text-anchor="middle" x="969.5" y="-8.2" font-family="sans-serif" font-size="14.00">dependencies</text>
<g id="clust1" class="cluster">
<title>cluster_ImportOrderEntriesModule</title>
<polygon fill="none" stroke="black" stroke-dasharray="1,5" points="8,-32.8 8,-230.8 1931,-230.8 1931,-32.8 8,-32.8"/>
</g>
<g id="clust2" class="cluster">
<title>cluster_ImportOrderEntriesModule_declarations</title>
<polygon fill="none" stroke="black" points="793,-40.8 793,-92.8 1923,-92.8 1923,-40.8 793,-40.8"/>
</g>
<g id="clust8" class="cluster">
<title>cluster_ImportOrderEntriesModule_imports</title>
<polygon fill="none" stroke="black" points="16,-40.8 16,-92.8 785,-92.8 785,-40.8 16,-40.8"/>
</g>
<g id="clust9" class="cluster">
<title>cluster_ImportOrderEntriesModule_exports</title>
<polygon fill="none" stroke="black" points="127,-170.8 127,-222.8 1274,-222.8 1274,-170.8 127,-170.8"/>
</g>
<!-- ImportEntriesDialogComponent -->
<g id="node1" class="node">
<title>ImportEntriesDialogComponent</title>
<polygon fill="#ffffb3" stroke="black" points="1914.69,-84.8 1717.31,-84.8 1717.31,-48.8 1914.69,-48.8 1914.69,-84.8"/>
<text text-anchor="middle" x="1816" y="-62.6" font-family="Times,serif" font-size="14.00">ImportEntriesDialogComponent</text>
</g>
<!-- ImportOrderEntriesModule -->
<g id="node6" class="node">
<title>ImportOrderEntriesModule</title>
<polygon fill="#8dd3c7" stroke="black" points="812.95,-149.8 809.95,-153.8 788.95,-153.8 785.95,-149.8 643.05,-149.8 643.05,-113.8 812.95,-113.8 812.95,-149.8"/>
<text text-anchor="middle" x="728" y="-127.6" font-family="Times,serif" font-size="14.00">ImportOrderEntriesModule</text>
</g>
<!-- ImportEntriesDialogComponent&#45;&gt;ImportOrderEntriesModule -->
<g id="edge1" class="edge">
<title>ImportEntriesDialogComponent&#45;&gt;ImportOrderEntriesModule</title>
<path fill="none" stroke="black" d="M1816,-85.02C1816,-105.17 1816,-134.8 1816,-134.8 1816,-134.8 823.37,-134.8 823.37,-134.8"/>
<polygon fill="black" stroke="black" points="823.37,-131.3 813.37,-134.8 823.37,-138.3 823.37,-131.3"/>
</g>
<!-- ImportEntriesFormComponent -->
<g id="node2" class="node">
<title>ImportEntriesFormComponent</title>
<polygon fill="#ffffb3" stroke="black" points="1699.92,-84.8 1510.08,-84.8 1510.08,-48.8 1699.92,-48.8 1699.92,-84.8"/>
<text text-anchor="middle" x="1605" y="-62.6" font-family="Times,serif" font-size="14.00">ImportEntriesFormComponent</text>
</g>
<!-- ImportEntriesFormComponent&#45;&gt;ImportOrderEntriesModule -->
<g id="edge2" class="edge">
<title>ImportEntriesFormComponent&#45;&gt;ImportOrderEntriesModule</title>
<path fill="none" stroke="black" d="M1605,-85.02C1605,-103.63 1605,-129.8 1605,-129.8 1605,-129.8 823.29,-129.8 823.29,-129.8"/>
<polygon fill="black" stroke="black" points="823.29,-126.3 813.29,-129.8 823.29,-133.3 823.29,-126.3"/>
</g>
<!-- ImportEntriesSummaryComponent -->
<g id="node3" class="node">
<title>ImportEntriesSummaryComponent</title>
<polygon fill="#ffffb3" stroke="black" points="1492.53,-84.8 1279.47,-84.8 1279.47,-48.8 1492.53,-48.8 1492.53,-84.8"/>
<text text-anchor="middle" x="1386" y="-62.6" font-family="Times,serif" font-size="14.00">ImportEntriesSummaryComponent</text>
</g>
<!-- ImportEntriesSummaryComponent&#45;&gt;ImportOrderEntriesModule -->
<g id="edge3" class="edge">
<title>ImportEntriesSummaryComponent&#45;&gt;ImportOrderEntriesModule</title>
<path fill="none" stroke="black" d="M1386,-84.83C1386,-101.86 1386,-124.8 1386,-124.8 1386,-124.8 823.01,-124.8 823.01,-124.8"/>
<polygon fill="black" stroke="black" points="823.01,-121.3 813.01,-124.8 823.01,-128.3 823.01,-121.3"/>
</g>
<!-- ImportOrderEntriesComponent -->
<g id="node4" class="node">
<title>ImportOrderEntriesComponent</title>
<polygon fill="#ffffb3" stroke="black" points="1260.73,-84.8 1069.27,-84.8 1069.27,-48.8 1260.73,-48.8 1260.73,-84.8"/>
<text text-anchor="middle" x="1165" y="-62.6" font-family="Times,serif" font-size="14.00">ImportOrderEntriesComponent</text>
</g>
<!-- ImportOrderEntriesComponent&#45;&gt;ImportOrderEntriesModule -->
<g id="edge4" class="edge">
<title>ImportOrderEntriesComponent&#45;&gt;ImportOrderEntriesModule</title>
<path fill="none" stroke="black" d="M1196.96,-85.04C1196.96,-100.37 1196.96,-119.8 1196.96,-119.8 1196.96,-119.8 823.2,-119.8 823.2,-119.8"/>
<polygon fill="black" stroke="black" points="823.2,-116.3 813.2,-119.8 823.2,-123.3 823.2,-116.3"/>
</g>
<!-- ImportToNewSavedCartFormComponent -->
<g id="node5" class="node">
<title>ImportToNewSavedCartFormComponent</title>
<polygon fill="#ffffb3" stroke="black" points="1051.06,-84.8 800.94,-84.8 800.94,-48.8 1051.06,-48.8 1051.06,-84.8"/>
<text text-anchor="middle" x="926" y="-62.6" font-family="Times,serif" font-size="14.00">ImportToNewSavedCartFormComponent</text>
</g>
<!-- ImportToNewSavedCartFormComponent&#45;&gt;ImportOrderEntriesModule -->
<g id="edge5" class="edge">
<title>ImportToNewSavedCartFormComponent&#45;&gt;ImportOrderEntriesModule</title>
<path fill="none" stroke="black" d="M806.97,-84.91C806.97,-84.91 806.97,-103.79 806.97,-103.79"/>
<polygon fill="black" stroke="black" points="803.47,-103.79 806.97,-113.79 810.47,-103.79 803.47,-103.79"/>
</g>
<!-- ImportEntriesDialogComponent  -->
<g id="node13" class="node">
<title>ImportEntriesDialogComponent </title>
<polygon fill="#fb8072" stroke="black" points="1266.19,-214.8 1065.81,-214.8 1065.81,-178.8 1266.19,-178.8 1266.19,-214.8"/>
<text text-anchor="middle" x="1166" y="-192.6" font-family="Times,serif" font-size="14.00">ImportEntriesDialogComponent </text>
</g>
<!-- ImportOrderEntriesModule&#45;&gt;ImportEntriesDialogComponent  -->
<g id="edge12" class="edge">
<title>ImportOrderEntriesModule&#45;&gt;ImportEntriesDialogComponent </title>
<path fill="none" stroke="black" stroke-dasharray="5,2" d="M813.4,-139.8C932.24,-139.8 1133.04,-139.8 1133.04,-139.8 1133.04,-139.8 1133.04,-168.76 1133.04,-168.76"/>
<polygon fill="black" stroke="black" points="1129.54,-168.76 1133.04,-178.76 1136.54,-168.76 1129.54,-168.76"/>
</g>
<!-- ImportEntriesFormComponent  -->
<g id="node14" class="node">
<title>ImportEntriesFormComponent </title>
<polygon fill="#fb8072" stroke="black" points="1047.42,-214.8 854.58,-214.8 854.58,-178.8 1047.42,-178.8 1047.42,-214.8"/>
<text text-anchor="middle" x="951" y="-192.6" font-family="Times,serif" font-size="14.00">ImportEntriesFormComponent </text>
</g>
<!-- ImportOrderEntriesModule&#45;&gt;ImportEntriesFormComponent  -->
<g id="edge13" class="edge">
<title>ImportOrderEntriesModule&#45;&gt;ImportEntriesFormComponent </title>
<path fill="none" stroke="black" stroke-dasharray="5,2" d="M813.26,-144.8C876.22,-144.8 951,-144.8 951,-144.8 951,-144.8 951,-168.61 951,-168.61"/>
<polygon fill="black" stroke="black" points="947.5,-168.61 951,-178.61 954.5,-168.61 947.5,-168.61"/>
</g>
<!-- ImportEntriesSummaryComponent  -->
<g id="node15" class="node">
<title>ImportEntriesSummaryComponent </title>
<polygon fill="#fb8072" stroke="black" points="836.53,-214.8 619.47,-214.8 619.47,-178.8 836.53,-178.8 836.53,-214.8"/>
<text text-anchor="middle" x="728" y="-192.6" font-family="Times,serif" font-size="14.00">ImportEntriesSummaryComponent </text>
</g>
<!-- ImportOrderEntriesModule&#45;&gt;ImportEntriesSummaryComponent  -->
<g id="edge14" class="edge">
<title>ImportOrderEntriesModule&#45;&gt;ImportEntriesSummaryComponent </title>
<path fill="none" stroke="black" stroke-dasharray="5,2" d="M728,-149.91C728,-149.91 728,-168.79 728,-168.79"/>
<polygon fill="black" stroke="black" points="724.5,-168.79 728,-178.79 731.5,-168.79 724.5,-168.79"/>
</g>
<!-- ImportOrderEntriesComponent  -->
<g id="node16" class="node">
<title>ImportOrderEntriesComponent </title>
<polygon fill="#fb8072" stroke="black" points="601.73,-214.8 406.27,-214.8 406.27,-178.8 601.73,-178.8 601.73,-214.8"/>
<text text-anchor="middle" x="504" y="-192.6" font-family="Times,serif" font-size="14.00">ImportOrderEntriesComponent </text>
</g>
<!-- ImportOrderEntriesModule&#45;&gt;ImportOrderEntriesComponent  -->
<g id="edge15" class="edge">
<title>ImportOrderEntriesModule&#45;&gt;ImportOrderEntriesComponent </title>
<path fill="none" stroke="black" stroke-dasharray="5,2" d="M642.62,-144.8C605.43,-144.8 570.17,-144.8 570.17,-144.8 570.17,-144.8 570.17,-168.61 570.17,-168.61"/>
<polygon fill="black" stroke="black" points="566.67,-168.61 570.17,-178.61 573.67,-168.61 566.67,-168.61"/>
</g>
<!-- ImportToNewSavedCartFormComponent  -->
<g id="node17" class="node">
<title>ImportToNewSavedCartFormComponent </title>
<polygon fill="#fb8072" stroke="black" points="388.56,-214.8 135.44,-214.8 135.44,-178.8 388.56,-178.8 388.56,-214.8"/>
<text text-anchor="middle" x="262" y="-192.6" font-family="Times,serif" font-size="14.00">ImportToNewSavedCartFormComponent </text>
</g>
<!-- ImportOrderEntriesModule&#45;&gt;ImportToNewSavedCartFormComponent  -->
<g id="edge16" class="edge">
<title>ImportOrderEntriesModule&#45;&gt;ImportToNewSavedCartFormComponent </title>
<path fill="none" stroke="black" stroke-dasharray="5,2" d="M642.77,-139.8C540.66,-139.8 383.19,-139.8 383.19,-139.8 383.19,-139.8 383.19,-168.76 383.19,-168.76"/>
<polygon fill="black" stroke="black" points="379.69,-168.76 383.19,-178.76 386.69,-168.76 379.69,-168.76"/>
</g>
<!-- ConfigModule -->
<g id="node7" class="node">
<title>ConfigModule</title>
<polygon fill="#8dd3c7" stroke="black" points="777.44,-84.8 774.44,-88.8 753.44,-88.8 750.44,-84.8 678.56,-84.8 678.56,-48.8 777.44,-48.8 777.44,-84.8"/>
<text text-anchor="middle" x="728" y="-62.6" font-family="Times,serif" font-size="14.00">ConfigModule</text>
</g>
<!-- ConfigModule&#45;&gt;ImportOrderEntriesModule -->
<g id="edge6" class="edge">
<title>ConfigModule&#45;&gt;ImportOrderEntriesModule</title>
<path fill="none" stroke="black" d="M728,-84.91C728,-84.91 728,-103.79 728,-103.79"/>
<polygon fill="black" stroke="black" points="724.5,-103.79 728,-113.79 731.5,-103.79 724.5,-103.79"/>
</g>
<!-- FileUploadModule -->
<g id="node8" class="node">
<title>FileUploadModule</title>
<polygon fill="#8dd3c7" stroke="black" points="661.04,-84.8 658.04,-88.8 637.04,-88.8 634.04,-84.8 538.96,-84.8 538.96,-48.8 661.04,-48.8 661.04,-84.8"/>
<text text-anchor="middle" x="600" y="-62.6" font-family="Times,serif" font-size="14.00">FileUploadModule</text>
</g>
<!-- FileUploadModule&#45;&gt;ImportOrderEntriesModule -->
<g id="edge7" class="edge">
<title>FileUploadModule&#45;&gt;ImportOrderEntriesModule</title>
<path fill="none" stroke="black" d="M652.15,-84.91C652.15,-84.91 652.15,-103.79 652.15,-103.79"/>
<polygon fill="black" stroke="black" points="648.65,-103.79 652.15,-113.79 655.65,-103.79 648.65,-103.79"/>
</g>
<!-- FormErrorsModule -->
<g id="node9" class="node">
<title>FormErrorsModule</title>
<polygon fill="#8dd3c7" stroke="black" points="520.36,-84.8 517.36,-88.8 496.36,-88.8 493.36,-84.8 395.64,-84.8 395.64,-48.8 520.36,-48.8 520.36,-84.8"/>
<text text-anchor="middle" x="458" y="-62.6" font-family="Times,serif" font-size="14.00">FormErrorsModule</text>
</g>
<!-- FormErrorsModule&#45;&gt;ImportOrderEntriesModule -->
<g id="edge8" class="edge">
<title>FormErrorsModule&#45;&gt;ImportOrderEntriesModule</title>
<path fill="none" stroke="black" d="M463.41,-85.04C463.41,-100.37 463.41,-119.8 463.41,-119.8 463.41,-119.8 632.82,-119.8 632.82,-119.8"/>
<polygon fill="black" stroke="black" points="632.83,-123.3 642.82,-119.8 632.82,-116.3 632.83,-123.3"/>
</g>
<!-- I18nModule -->
<g id="node10" class="node">
<title>I18nModule</title>
<polygon fill="#8dd3c7" stroke="black" points="377.71,-84.8 374.71,-88.8 353.71,-88.8 350.71,-84.8 292.29,-84.8 292.29,-48.8 377.71,-48.8 377.71,-84.8"/>
<text text-anchor="middle" x="335" y="-62.6" font-family="Times,serif" font-size="14.00">I18nModule</text>
</g>
<!-- I18nModule&#45;&gt;ImportOrderEntriesModule -->
<g id="edge9" class="edge">
<title>I18nModule&#45;&gt;ImportOrderEntriesModule</title>
<path fill="none" stroke="black" d="M335,-84.83C335,-101.86 335,-124.8 335,-124.8 335,-124.8 632.72,-124.8 632.72,-124.8"/>
<polygon fill="black" stroke="black" points="632.72,-128.3 642.72,-124.8 632.72,-121.3 632.72,-128.3"/>
</g>
<!-- IconModule -->
<g id="node11" class="node">
<title>IconModule</title>
<polygon fill="#8dd3c7" stroke="black" points="274.43,-84.8 271.43,-88.8 250.43,-88.8 247.43,-84.8 189.57,-84.8 189.57,-48.8 274.43,-48.8 274.43,-84.8"/>
<text text-anchor="middle" x="232" y="-62.6" font-family="Times,serif" font-size="14.00">IconModule</text>
</g>
<!-- IconModule&#45;&gt;ImportOrderEntriesModule -->
<g id="edge10" class="edge">
<title>IconModule&#45;&gt;ImportOrderEntriesModule</title>
<path fill="none" stroke="black" d="M232,-85.02C232,-103.63 232,-129.8 232,-129.8 232,-129.8 633.02,-129.8 633.02,-129.8"/>
<polygon fill="black" stroke="black" points="633.02,-133.3 643.02,-129.8 633.02,-126.3 633.02,-133.3"/>
</g>
<!-- KeyboardFocusModule -->
<g id="node12" class="node">
<title>KeyboardFocusModule</title>
<polygon fill="#8dd3c7" stroke="black" points="172.19,-84.8 169.19,-88.8 148.19,-88.8 145.19,-84.8 23.81,-84.8 23.81,-48.8 172.19,-48.8 172.19,-84.8"/>
<text text-anchor="middle" x="98" y="-62.6" font-family="Times,serif" font-size="14.00">KeyboardFocusModule</text>
</g>
<!-- KeyboardFocusModule&#45;&gt;ImportOrderEntriesModule -->
<g id="edge11" class="edge">
<title>KeyboardFocusModule&#45;&gt;ImportOrderEntriesModule</title>
<path fill="none" stroke="black" d="M153.66,-85.02C153.66,-105.17 153.66,-134.8 153.66,-134.8 153.66,-134.8 632.94,-134.8 632.94,-134.8"/>
<polygon fill="black" stroke="black" points="632.94,-138.3 642.94,-134.8 632.94,-131.3 632.94,-138.3"/>
</g>
</g>
</svg>
