<?xml version="1.0" encoding="UTF-8" standalone="no"?>
<!DOCTYPE svg PUBLIC "-//W3C//DTD SVG 1.1//EN"
 "http://www.w3.org/Graphics/SVG/1.1/DTD/svg11.dtd">
<!-- Generated by graphviz version 2.47.3 (20210619.1520)
 -->
<!-- Title: dependencies Pages: 1 -->
<svg width="1244pt" height="174pt"
 viewBox="0.00 0.00 1244.00 173.80" xmlns="http://www.w3.org/2000/svg" xmlns:xlink="http://www.w3.org/1999/xlink">
<g id="graph0" class="graph" transform="scale(1 1) rotate(0) translate(4 169.8)">
<title>dependencies</title>
<polygon fill="white" stroke="transparent" points="-4,4 -4,-169.8 1240,-169.8 1240,4 -4,4"/>
<text text-anchor="middle" x="618" y="-8.2" font-family="sans-serif" font-size="14.00">dependencies</text>
<g id="clust1" class="cluster">
<title>cluster_SavedCartCoreModule</title>
<polygon fill="none" stroke="black" stroke-dasharray="1,5" points="8,-32.8 8,-157.8 1228,-157.8 1228,-32.8 8,-32.8"/>
</g>
<g id="clust3" class="cluster">
<title>cluster_SavedCartCoreModule_imports</title>
<polygon fill="none" stroke="black" points="882,-40.8 882,-92.8 1220,-92.8 1220,-40.8 882,-40.8"/>
</g>
<g id="clust6" class="cluster">
<title>cluster_SavedCartCoreModule_providers</title>
<polygon fill="none" stroke="black" points="16,-40.8 16,-92.8 874,-92.8 874,-40.8 16,-40.8"/>
</g>
<!-- SavedCartEventsModule -->
<g id="node1" class="node">
<title>SavedCartEventsModule</title>
<polygon fill="#8dd3c7" stroke="black" points="1211.97,-84.8 1208.97,-88.8 1187.97,-88.8 1184.97,-84.8 1056.03,-84.8 1056.03,-48.8 1211.97,-48.8 1211.97,-84.8"/>
<text text-anchor="middle" x="1134" y="-62.6" font-family="Times,serif" font-size="14.00">SavedCartEventsModule</text>
</g>
<!-- SavedCartCoreModule -->
<g id="node3" class="node">
<title>SavedCartCoreModule</title>
<polygon fill="#8dd3c7" stroke="black" points="718.58,-149.8 715.58,-153.8 694.58,-153.8 691.58,-149.8 573.42,-149.8 573.42,-113.8 718.58,-113.8 718.58,-149.8"/>
<text text-anchor="middle" x="646" y="-127.6" font-family="Times,serif" font-size="14.00">SavedCartCoreModule</text>
</g>
<!-- SavedCartEventsModule&#45;&gt;SavedCartCoreModule -->
<g id="edge1" class="edge">
<title>SavedCartEventsModule&#45;&gt;SavedCartCoreModule</title>
<path fill="none" stroke="black" d="M1134,-85.08C1134,-106.12 1134,-137.8 1134,-137.8 1134,-137.8 728.79,-137.8 728.79,-137.8"/>
<polygon fill="black" stroke="black" points="728.79,-134.3 718.79,-137.8 728.79,-141.3 728.79,-134.3"/>
</g>
<!-- SavedCartStoreModule -->
<g id="node2" class="node">
<title>SavedCartStoreModule</title>
<polygon fill="#8dd3c7" stroke="black" points="1037.91,-84.8 1034.91,-88.8 1013.91,-88.8 1010.91,-84.8 890.09,-84.8 890.09,-48.8 1037.91,-48.8 1037.91,-84.8"/>
<text text-anchor="middle" x="964" y="-62.6" font-family="Times,serif" font-size="14.00">SavedCartStoreModule</text>
</g>
<!-- SavedCartStoreModule&#45;&gt;SavedCartCoreModule -->
<g id="edge2" class="edge">
<title>SavedCartStoreModule&#45;&gt;SavedCartCoreModule</title>
<path fill="none" stroke="black" d="M964,-84.82C964,-102.17 964,-125.8 964,-125.8 964,-125.8 728.56,-125.8 728.56,-125.8"/>
<polygon fill="black" stroke="black" points="728.56,-122.3 718.56,-125.8 728.56,-129.3 728.56,-122.3"/>
</g>
<!-- OrderReturnRequestService -->
<g id="node4" class="node">
<title>OrderReturnRequestService</title>
<ellipse fill="#fdb462" stroke="black" cx="746" cy="-66.8" rx="119.8" ry="18"/>
<text text-anchor="middle" x="746" y="-62.6" font-family="Times,serif" font-size="14.00">OrderReturnRequestService</text>
</g>
<!-- OrderReturnRequestService&#45;&gt;SavedCartCoreModule -->
<g id="edge3" class="edge">
<title>OrderReturnRequestService&#45;&gt;SavedCartCoreModule</title>
<path fill="none" stroke="black" d="M672.32,-81.23C672.32,-81.23 672.32,-103.69 672.32,-103.69"/>
<polygon fill="black" stroke="black" points="668.82,-103.69 672.32,-113.69 675.82,-103.69 668.82,-103.69"/>
</g>
<!-- OrderService -->
<g id="node5" class="node">
<title>OrderService</title>
<ellipse fill="#fdb462" stroke="black" cx="546" cy="-66.8" rx="62.52" ry="18"/>
<text text-anchor="middle" x="546" y="-62.6" font-family="Times,serif" font-size="14.00">OrderService</text>
</g>
<!-- OrderService&#45;&gt;SavedCartCoreModule -->
<g id="edge4" class="edge">
<title>OrderService&#45;&gt;SavedCartCoreModule</title>
<path fill="none" stroke="black" d="M590.99,-79.33C590.99,-79.33 590.99,-103.65 590.99,-103.65"/>
<polygon fill="black" stroke="black" points="587.49,-103.65 590.99,-113.65 594.49,-103.65 587.49,-103.65"/>
</g>
<!-- ReplenishmentOrderService -->
<g id="node6" class="node">
<title>ReplenishmentOrderService</title>
<ellipse fill="#fdb462" stroke="black" cx="345" cy="-66.8" rx="120.38" ry="18"/>
<text text-anchor="middle" x="345" y="-62.6" font-family="Times,serif" font-size="14.00">ReplenishmentOrderService</text>
</g>
<!-- ReplenishmentOrderService&#45;&gt;SavedCartCoreModule -->
<g id="edge5" class="edge">
<title>ReplenishmentOrderService&#45;&gt;SavedCartCoreModule</title>
<path fill="none" stroke="black" d="M345,-84.82C345,-102.17 345,-125.8 345,-125.8 345,-125.8 563.14,-125.8 563.14,-125.8"/>
<polygon fill="black" stroke="black" points="563.14,-129.3 573.14,-125.8 563.14,-122.3 563.14,-129.3"/>
</g>
<!-- SavedCartConnector -->
<g id="node7" class="node">
<title>SavedCartConnector</title>
<ellipse fill="#fdb462" stroke="black" cx="115" cy="-66.8" rx="91.47" ry="18"/>
<text text-anchor="middle" x="115" y="-62.6" font-family="Times,serif" font-size="14.00">SavedCartConnector</text>
</g>
<!-- SavedCartConnector&#45;&gt;SavedCartCoreModule -->
<g id="edge6" class="edge">
<title>SavedCartConnector&#45;&gt;SavedCartCoreModule</title>
<path fill="none" stroke="black" d="M115,-85.08C115,-106.12 115,-137.8 115,-137.8 115,-137.8 563.28,-137.8 563.28,-137.8"/>
<polygon fill="black" stroke="black" points="563.28,-141.3 573.28,-137.8 563.28,-134.3 563.28,-141.3"/>
</g>
</g>
</svg>
