<?xml version="1.0" encoding="UTF-8" standalone="no"?>
<!DOCTYPE svg PUBLIC "-//W3C//DTD SVG 1.1//EN"
 "http://www.w3.org/Graphics/SVG/1.1/DTD/svg11.dtd">
<!-- Generated by graphviz version 2.47.3 (20210619.1520)
 -->
<!-- Title: dependencies Pages: 1 -->
<svg width="763pt" height="174pt"
 viewBox="0.00 0.00 763.00 173.80" xmlns="http://www.w3.org/2000/svg" xmlns:xlink="http://www.w3.org/1999/xlink">
<g id="graph0" class="graph" transform="scale(1 1) rotate(0) translate(4 169.8)">
<title>dependencies</title>
<polygon fill="white" stroke="transparent" points="-4,4 -4,-169.8 759,-169.8 759,4 -4,4"/>
<text text-anchor="middle" x="377.5" y="-8.2" font-family="sans-serif" font-size="14.00">dependencies</text>
<g id="clust1" class="cluster">
<title>cluster_SavedCartCoreModule</title>
<polygon fill="none" stroke="black" stroke-dasharray="1,5" points="8,-32.8 8,-157.8 747,-157.8 747,-32.8 8,-32.8"/>
</g>
<g id="clust3" class="cluster">
<title>cluster_SavedCartCoreModule_imports</title>
<polygon fill="none" stroke="black" points="401,-40.8 401,-92.8 739,-92.8 739,-40.8 401,-40.8"/>
</g>
<g id="clust6" class="cluster">
<title>cluster_SavedCartCoreModule_providers</title>
<polygon fill="none" stroke="black" points="16,-40.8 16,-92.8 393,-92.8 393,-40.8 16,-40.8"/>
</g>
<!-- SavedCartEventsModule -->
<g id="node1" class="node">
<title>SavedCartEventsModule</title>
<polygon fill="#8dd3c7" stroke="black" points="730.97,-84.8 727.97,-88.8 706.97,-88.8 703.97,-84.8 575.03,-84.8 575.03,-48.8 730.97,-48.8 730.97,-84.8"/>
<text text-anchor="middle" x="653" y="-62.6" font-family="Times,serif" font-size="14.00">SavedCartEventsModule</text>
</g>
<!-- SavedCartCoreModule -->
<g id="node3" class="node">
<title>SavedCartCoreModule</title>
<polygon fill="#8dd3c7" stroke="black" points="460.58,-149.8 457.58,-153.8 436.58,-153.8 433.58,-149.8 315.42,-149.8 315.42,-113.8 460.58,-113.8 460.58,-149.8"/>
<text text-anchor="middle" x="388" y="-127.6" font-family="Times,serif" font-size="14.00">SavedCartCoreModule</text>
</g>
<!-- SavedCartEventsModule&#45;&gt;SavedCartCoreModule -->
<g id="edge1" class="edge">
<title>SavedCartEventsModule&#45;&gt;SavedCartCoreModule</title>
<path fill="none" stroke="black" d="M653,-84.91C653,-104.14 653,-131.8 653,-131.8 653,-131.8 470.76,-131.8 470.76,-131.8"/>
<polygon fill="black" stroke="black" points="470.76,-128.3 460.76,-131.8 470.76,-135.3 470.76,-128.3"/>
</g>
<!-- SavedCartStoreModule -->
<g id="node2" class="node">
<title>SavedCartStoreModule</title>
<polygon fill="#8dd3c7" stroke="black" points="556.91,-84.8 553.91,-88.8 532.91,-88.8 529.91,-84.8 409.09,-84.8 409.09,-48.8 556.91,-48.8 556.91,-84.8"/>
<text text-anchor="middle" x="483" y="-62.6" font-family="Times,serif" font-size="14.00">SavedCartStoreModule</text>
</g>
<!-- SavedCartStoreModule&#45;&gt;SavedCartCoreModule -->
<g id="edge2" class="edge">
<title>SavedCartStoreModule&#45;&gt;SavedCartCoreModule</title>
<path fill="none" stroke="black" d="M434.92,-84.91C434.92,-84.91 434.92,-103.79 434.92,-103.79"/>
<polygon fill="black" stroke="black" points="431.42,-103.79 434.92,-113.79 438.42,-103.79 431.42,-103.79"/>
</g>
<!-- SavedCartConnector -->
<g id="node4" class="node">
<title>SavedCartConnector</title>
<ellipse fill="#fdb462" stroke="black" cx="294" cy="-66.8" rx="91.47" ry="18"/>
<text text-anchor="middle" x="294" y="-62.6" font-family="Times,serif" font-size="14.00">SavedCartConnector</text>
</g>
<!-- SavedCartConnector&#45;&gt;SavedCartCoreModule -->
<g id="edge3" class="edge">
<title>SavedCartConnector&#45;&gt;SavedCartCoreModule</title>
<path fill="none" stroke="black" d="M350.47,-81.23C350.47,-81.23 350.47,-103.69 350.47,-103.69"/>
<polygon fill="black" stroke="black" points="346.97,-103.69 350.47,-113.69 353.97,-103.69 346.97,-103.69"/>
</g>
<!-- SavedCartService -->
<g id="node5" class="node">
<title>SavedCartService</title>
<ellipse fill="#fdb462" stroke="black" cx="104" cy="-66.8" rx="80.43" ry="18"/>
<text text-anchor="middle" x="104" y="-62.6" font-family="Times,serif" font-size="14.00">SavedCartService</text>
</g>
<!-- SavedCartService&#45;&gt;SavedCartCoreModule -->
<g id="edge4" class="edge">
<title>SavedCartService&#45;&gt;SavedCartCoreModule</title>
<path fill="none" stroke="black" d="M104,-84.91C104,-104.14 104,-131.8 104,-131.8 104,-131.8 305.23,-131.8 305.23,-131.8"/>
<polygon fill="black" stroke="black" points="305.23,-135.3 315.23,-131.8 305.23,-128.3 305.23,-135.3"/>
</g>
</g>
</svg>
