<?xml version="1.0" encoding="UTF-8" standalone="no"?>
<!DOCTYPE svg PUBLIC "-//W3C//DTD SVG 1.1//EN"
 "http://www.w3.org/Graphics/SVG/1.1/DTD/svg11.dtd">
<!-- Generated by graphviz version 2.47.3 (20210619.1520)
 -->
<!-- Title: dependencies Pages: 1 -->
<svg width="752pt" height="174pt"
 viewBox="0.00 0.00 752.00 173.80" xmlns="http://www.w3.org/2000/svg" xmlns:xlink="http://www.w3.org/1999/xlink">
<g id="graph0" class="graph" transform="scale(1 1) rotate(0) translate(4 169.8)">
<title>dependencies</title>
<polygon fill="white" stroke="transparent" points="-4,4 -4,-169.8 748,-169.8 748,4 -4,4"/>
<text text-anchor="middle" x="372" y="-8.2" font-family="sans-serif" font-size="14.00">dependencies</text>
<g id="clust1" class="cluster">
<title>cluster_SavedCartCoreModule</title>
<polygon fill="none" stroke="black" stroke-dasharray="1,5" points="8,-32.8 8,-157.8 736,-157.8 736,-32.8 8,-32.8"/>
</g>
<g id="clust3" class="cluster">
<title>cluster_SavedCartCoreModule_imports</title>
<polygon fill="none" stroke="black" points="390,-40.8 390,-92.8 728,-92.8 728,-40.8 390,-40.8"/>
</g>
<g id="clust6" class="cluster">
<title>cluster_SavedCartCoreModule_providers</title>
<polygon fill="none" stroke="black" points="16,-40.8 16,-92.8 382,-92.8 382,-40.8 16,-40.8"/>
</g>
<!-- SavedCartEventsModule -->
<g id="node1" class="node">
<title>SavedCartEventsModule</title>
<polygon fill="#8dd3c7" stroke="black" points="719.97,-84.8 716.97,-88.8 695.97,-88.8 692.97,-84.8 564.03,-84.8 564.03,-48.8 719.97,-48.8 719.97,-84.8"/>
<text text-anchor="middle" x="642" y="-62.6" font-family="Times,serif" font-size="14.00">SavedCartEventsModule</text>
</g>
<!-- SavedCartCoreModule -->
<g id="node3" class="node">
<title>SavedCartCoreModule</title>
<polygon fill="#8dd3c7" stroke="black" points="457.58,-149.8 454.58,-153.8 433.58,-153.8 430.58,-149.8 312.42,-149.8 312.42,-113.8 457.58,-113.8 457.58,-149.8"/>
<text text-anchor="middle" x="385" y="-127.6" font-family="Times,serif" font-size="14.00">SavedCartCoreModule</text>
</g>
<!-- SavedCartEventsModule&#45;&gt;SavedCartCoreModule -->
<g id="edge1" class="edge">
<title>SavedCartEventsModule&#45;&gt;SavedCartCoreModule</title>
<path fill="none" stroke="black" d="M642,-84.91C642,-104.14 642,-131.8 642,-131.8 642,-131.8 467.62,-131.8 467.62,-131.8"/>
<polygon fill="black" stroke="black" points="467.62,-128.3 457.62,-131.8 467.62,-135.3 467.62,-128.3"/>
</g>
<!-- SavedCartStoreModule -->
<g id="node2" class="node">
<title>SavedCartStoreModule</title>
<polygon fill="#8dd3c7" stroke="black" points="545.91,-84.8 542.91,-88.8 521.91,-88.8 518.91,-84.8 398.09,-84.8 398.09,-48.8 545.91,-48.8 545.91,-84.8"/>
<text text-anchor="middle" x="472" y="-62.6" font-family="Times,serif" font-size="14.00">SavedCartStoreModule</text>
</g>
<!-- SavedCartStoreModule&#45;&gt;SavedCartCoreModule -->
<g id="edge2" class="edge">
<title>SavedCartStoreModule&#45;&gt;SavedCartCoreModule</title>
<path fill="none" stroke="black" d="M427.92,-84.91C427.92,-84.91 427.92,-103.79 427.92,-103.79"/>
<polygon fill="black" stroke="black" points="424.42,-103.79 427.92,-113.79 431.42,-103.79 424.42,-103.79"/>
</g>
<!-- CdcAuthService -->
<g id="node4" class="node">
<title>CdcAuthService</title>
<ellipse fill="#fdb462" stroke="black" cx="299" cy="-66.8" rx="74.72" ry="18"/>
<text text-anchor="middle" x="299" y="-62.6" font-family="Times,serif" font-size="14.00">CdcAuthService</text>
</g>
<!-- CdcAuthService&#45;&gt;SavedCartCoreModule -->
<g id="edge3" class="edge">
<title>CdcAuthService&#45;&gt;SavedCartCoreModule</title>
<path fill="none" stroke="black" d="M343.16,-81.55C343.16,-81.55 343.16,-103.39 343.16,-103.39"/>
<polygon fill="black" stroke="black" points="339.66,-103.39 343.16,-113.39 346.66,-103.39 339.66,-103.39"/>
</g>
<!-- SavedCartConnector -->
<g id="node5" class="node">
<title>SavedCartConnector</title>
<ellipse fill="#fdb462" stroke="black" cx="115" cy="-66.8" rx="91.47" ry="18"/>
<text text-anchor="middle" x="115" y="-62.6" font-family="Times,serif" font-size="14.00">SavedCartConnector</text>
</g>
<!-- SavedCartConnector&#45;&gt;SavedCartCoreModule -->
<g id="edge4" class="edge">
<title>SavedCartConnector&#45;&gt;SavedCartCoreModule</title>
<path fill="none" stroke="black" d="M115,-84.91C115,-104.14 115,-131.8 115,-131.8 115,-131.8 302.29,-131.8 302.29,-131.8"/>
<polygon fill="black" stroke="black" points="302.29,-135.3 312.29,-131.8 302.29,-128.3 302.29,-135.3"/>
</g>
</g>
</svg>
