<?xml version="1.0" encoding="UTF-8" standalone="no"?>
<!DOCTYPE svg PUBLIC "-//W3C//DTD SVG 1.1//EN"
 "http://www.w3.org/Graphics/SVG/1.1/DTD/svg11.dtd">
<!-- Generated by graphviz version 2.47.3 (20210619.1520)
 -->
<!-- Title: dependencies Pages: 1 -->
<svg width="650pt" height="247pt"
 viewBox="0.00 0.00 650.00 246.80" xmlns="http://www.w3.org/2000/svg" xmlns:xlink="http://www.w3.org/1999/xlink">
<g id="graph0" class="graph" transform="scale(1 1) rotate(0) translate(4 242.8)">
<title>dependencies</title>
<polygon fill="white" stroke="transparent" points="-4,4 -4,-242.8 646,-242.8 646,4 -4,4"/>
<text text-anchor="middle" x="321" y="-8.2" font-family="sans-serif" font-size="14.00">dependencies</text>
<g id="clust1" class="cluster">
<title>cluster_ToggleStatusModule</title>
<polygon fill="none" stroke="black" stroke-dasharray="1,5" points="8,-32.8 8,-230.8 634,-230.8 634,-32.8 8,-32.8"/>
</g>
<g id="clust2" class="cluster">
<title>cluster_ToggleStatusModule_declarations</title>
<polygon fill="none" stroke="black" points="454,-40.8 454,-92.8 626,-92.8 626,-40.8 454,-40.8"/>
</g>
<g id="clust5" class="cluster">
<title>cluster_ToggleStatusModule_exports</title>
<polygon fill="none" stroke="black" points="182,-170.8 182,-222.8 356,-222.8 356,-170.8 182,-170.8"/>
</g>
<g id="clust4" class="cluster">
<title>cluster_ToggleStatusModule_imports</title>
<polygon fill="none" stroke="black" points="16,-40.8 16,-92.8 446,-92.8 446,-40.8 16,-40.8"/>
</g>
<!-- ToggleStatusComponent -->
<g id="node1" class="node">
<title>ToggleStatusComponent</title>
<polygon fill="#ffffb3" stroke="black" points="617.71,-84.8 462.29,-84.8 462.29,-48.8 617.71,-48.8 617.71,-84.8"/>
<text text-anchor="middle" x="540" y="-62.6" font-family="Times,serif" font-size="14.00">ToggleStatusComponent</text>
</g>
<!-- ToggleStatusModule -->
<g id="node2" class="node">
<title>ToggleStatusModule</title>
<polygon fill="#8dd3c7" stroke="black" points="335.93,-149.8 332.93,-153.8 311.93,-153.8 308.93,-149.8 202.07,-149.8 202.07,-113.8 335.93,-113.8 335.93,-149.8"/>
<text text-anchor="middle" x="269" y="-127.6" font-family="Times,serif" font-size="14.00">ToggleStatusModule</text>
</g>
<!-- ToggleStatusComponent&#45;&gt;ToggleStatusModule -->
<g id="edge1" class="edge">
<title>ToggleStatusComponent&#45;&gt;ToggleStatusModule</title>
<path fill="none" stroke="black" d="M540,-84.91C540,-104.14 540,-131.8 540,-131.8 540,-131.8 345.99,-131.8 345.99,-131.8"/>
<polygon fill="black" stroke="black" points="345.99,-128.3 335.99,-131.8 345.99,-135.3 345.99,-128.3"/>
</g>
<!-- ToggleStatusComponent  -->
<g id="node6" class="node">
<title>ToggleStatusComponent </title>
<polygon fill="#fb8072" stroke="black" points="348.21,-214.8 189.79,-214.8 189.79,-178.8 348.21,-178.8 348.21,-214.8"/>
<text text-anchor="middle" x="269" y="-192.6" font-family="Times,serif" font-size="14.00">ToggleStatusComponent </text>
</g>
<!-- ToggleStatusModule&#45;&gt;ToggleStatusComponent  -->
<g id="edge5" class="edge">
<title>ToggleStatusModule&#45;&gt;ToggleStatusComponent </title>
<path fill="none" stroke="black" stroke-dasharray="5,2" d="M269,-149.91C269,-149.91 269,-168.79 269,-168.79"/>
<polygon fill="black" stroke="black" points="265.5,-168.79 269,-178.79 272.5,-168.79 265.5,-168.79"/>
</g>
<!-- ConfirmationMessageModule -->
<g id="node3" class="node">
<title>ConfirmationMessageModule</title>
<polygon fill="#8dd3c7" stroke="black" points="437.96,-84.8 434.96,-88.8 413.96,-88.8 410.96,-84.8 254.04,-84.8 254.04,-48.8 437.96,-48.8 437.96,-84.8"/>
<text text-anchor="middle" x="346" y="-62.6" font-family="Times,serif" font-size="14.00">ConfirmationMessageModule</text>
</g>
<!-- ConfirmationMessageModule&#45;&gt;ToggleStatusModule -->
<g id="edge2" class="edge">
<title>ConfirmationMessageModule&#45;&gt;ToggleStatusModule</title>
<path fill="none" stroke="black" d="M294.87,-84.91C294.87,-84.91 294.87,-103.79 294.87,-103.79"/>
<polygon fill="black" stroke="black" points="291.37,-103.79 294.87,-113.79 298.37,-103.79 291.37,-103.79"/>
</g>
<!-- I18nModule -->
<g id="node4" class="node">
<title>I18nModule</title>
<polygon fill="#8dd3c7" stroke="black" points="235.71,-84.8 232.71,-88.8 211.71,-88.8 208.71,-84.8 150.29,-84.8 150.29,-48.8 235.71,-48.8 235.71,-84.8"/>
<text text-anchor="middle" x="193" y="-62.6" font-family="Times,serif" font-size="14.00">I18nModule</text>
</g>
<!-- I18nModule&#45;&gt;ToggleStatusModule -->
<g id="edge3" class="edge">
<title>I18nModule&#45;&gt;ToggleStatusModule</title>
<path fill="none" stroke="black" d="M218.94,-84.91C218.94,-84.91 218.94,-103.79 218.94,-103.79"/>
<polygon fill="black" stroke="black" points="215.45,-103.79 218.94,-113.79 222.45,-103.79 215.45,-103.79"/>
</g>
<!-- MessageModule -->
<g id="node5" class="node">
<title>MessageModule</title>
<polygon fill="#8dd3c7" stroke="black" points="132.03,-84.8 129.03,-88.8 108.03,-88.8 105.03,-84.8 23.97,-84.8 23.97,-48.8 132.03,-48.8 132.03,-84.8"/>
<text text-anchor="middle" x="78" y="-62.6" font-family="Times,serif" font-size="14.00">MessageModule</text>
</g>
<!-- MessageModule&#45;&gt;ToggleStatusModule -->
<g id="edge4" class="edge">
<title>MessageModule&#45;&gt;ToggleStatusModule</title>
<path fill="none" stroke="black" d="M78,-84.91C78,-104.14 78,-131.8 78,-131.8 78,-131.8 192.2,-131.8 192.2,-131.8"/>
<polygon fill="black" stroke="black" points="192.2,-135.3 202.2,-131.8 192.2,-128.3 192.2,-135.3"/>
</g>
</g>
</svg>
