<?xml version="1.0" encoding="UTF-8" standalone="no"?>
<!DOCTYPE svg PUBLIC "-//W3C//DTD SVG 1.1//EN"
 "http://www.w3.org/Graphics/SVG/1.1/DTD/svg11.dtd">
<!-- Generated by graphviz version 2.47.0 (20210316.0004)
 -->
<!-- Title: dependencies Pages: 1 -->
<svg width="736pt" height="211pt"
 viewBox="0.00 0.00 736.00 211.00" xmlns="http://www.w3.org/2000/svg" xmlns:xlink="http://www.w3.org/1999/xlink">
<g id="graph0" class="graph" transform="scale(1 1) rotate(0) translate(4 207)">
<title>dependencies</title>
<polygon fill="white" stroke="transparent" points="-4,4 -4,-207 732,-207 732,4 -4,4"/>
<text text-anchor="start" x="343.01" y="-42.4" font-family="sans-serif" font-weight="bold" font-size="14.00">Legend</text>
<polygon fill="#ffffb3" stroke="transparent" points="130,-10 130,-30 150,-30 150,-10 130,-10"/>
<text text-anchor="start" x="153.63" y="-15.4" font-family="sans-serif" font-size="14.00"> &#160;Declarations</text>
<polygon fill="#8dd3c7" stroke="transparent" points="243,-10 243,-30 263,-30 263,-10 243,-10"/>
<text text-anchor="start" x="266.73" y="-15.4" font-family="sans-serif" font-size="14.00"> &#160;Module</text>
<polygon fill="#80b1d3" stroke="transparent" points="329,-10 329,-30 349,-30 349,-10 329,-10"/>
<text text-anchor="start" x="352.78" y="-15.4" font-family="sans-serif" font-size="14.00"> &#160;Bootstrap</text>
<polygon fill="#fdb462" stroke="transparent" points="426,-10 426,-30 446,-30 446,-10 426,-10"/>
<text text-anchor="start" x="449.67" y="-15.4" font-family="sans-serif" font-size="14.00"> &#160;Providers</text>
<polygon fill="#fb8072" stroke="transparent" points="522,-10 522,-30 542,-30 542,-10 522,-10"/>
<text text-anchor="start" x="545.73" y="-15.4" font-family="sans-serif" font-size="14.00"> &#160;Exports</text>
<g id="clust1" class="cluster">
<title>cluster_BudgetComponentsModule</title>
<polygon fill="none" stroke="black" stroke-dasharray="1,5" points="8,-70 8,-195 720,-195 720,-70 8,-70"/>
</g>
<g id="clust3" class="cluster">
<title>cluster_BudgetComponentsModule_imports</title>
<polygon fill="none" stroke="black" points="16,-78 16,-130 712,-130 712,-78 16,-78"/>
</g>
<!-- BudgetCostCenterListModule -->
<g id="node1" class="node">
<title>BudgetCostCenterListModule</title>
<polygon fill="#8dd3c7" stroke="black" points="704.26,-122 701.26,-126 680.26,-126 677.26,-122 519.74,-122 519.74,-86 704.26,-86 704.26,-122"/>
<text text-anchor="middle" x="612" y="-99.8" font-family="Times,serif" font-size="14.00">BudgetCostCenterListModule</text>
</g>
<!-- BudgetComponentsModule -->
<g id="node5" class="node">
<title>BudgetComponentsModule</title>
<polygon fill="#8dd3c7" stroke="black" points="440.27,-187 437.27,-191 416.27,-191 413.27,-187 269.73,-187 269.73,-151 440.27,-151 440.27,-187"/>
<text text-anchor="middle" x="355" y="-164.8" font-family="Times,serif" font-size="14.00">BudgetComponentsModule</text>
</g>
<!-- BudgetCostCenterListModule&#45;&gt;BudgetComponentsModule -->
<g id="edge1" class="edge">
<title>BudgetCostCenterListModule&#45;&gt;BudgetComponentsModule</title>
<path fill="none" stroke="black" d="M612,-122.11C612,-141.34 612,-169 612,-169 612,-169 450.58,-169 450.58,-169"/>
<polygon fill="black" stroke="black" points="450.58,-165.5 440.58,-169 450.58,-172.5 450.58,-165.5"/>
</g>
<!-- BudgetDetailsModule -->
<g id="node2" class="node">
<title>BudgetDetailsModule</title>
<polygon fill="#8dd3c7" stroke="black" points="501.64,-122 498.64,-126 477.64,-126 474.64,-122 362.36,-122 362.36,-86 501.64,-86 501.64,-122"/>
<text text-anchor="middle" x="432" y="-99.8" font-family="Times,serif" font-size="14.00">BudgetDetailsModule</text>
</g>
<!-- BudgetDetailsModule&#45;&gt;BudgetComponentsModule -->
<g id="edge2" class="edge">
<title>BudgetDetailsModule&#45;&gt;BudgetComponentsModule</title>
<path fill="none" stroke="black" d="M401.28,-122.11C401.28,-122.11 401.28,-140.99 401.28,-140.99"/>
<polygon fill="black" stroke="black" points="397.78,-140.99 401.28,-150.99 404.78,-140.99 397.78,-140.99"/>
</g>
<!-- BudgetFormModule -->
<g id="node3" class="node">
<title>BudgetFormModule</title>
<polygon fill="#8dd3c7" stroke="black" points="344.33,-122 341.33,-126 320.33,-126 317.33,-122 213.67,-122 213.67,-86 344.33,-86 344.33,-122"/>
<text text-anchor="middle" x="279" y="-99.8" font-family="Times,serif" font-size="14.00">BudgetFormModule</text>
</g>
<!-- BudgetFormModule&#45;&gt;BudgetComponentsModule -->
<g id="edge3" class="edge">
<title>BudgetFormModule&#45;&gt;BudgetComponentsModule</title>
<path fill="none" stroke="black" d="M306.89,-122.11C306.89,-122.11 306.89,-140.99 306.89,-140.99"/>
<polygon fill="black" stroke="black" points="303.39,-140.99 306.89,-150.99 310.39,-140.99 303.39,-140.99"/>
</g>
<!-- SharedOrganizationModule -->
<g id="node4" class="node">
<title>SharedOrganizationModule</title>
<polygon fill="#8dd3c7" stroke="black" points="195.51,-122 192.51,-126 171.51,-126 168.51,-122 24.49,-122 24.49,-86 195.51,-86 195.51,-122"/>
<text text-anchor="middle" x="110" y="-99.8" font-family="Times,serif" font-size="14.00">SharedOrganizationModule</text>
</g>
<!-- SharedOrganizationModule&#45;&gt;BudgetComponentsModule -->
<g id="edge4" class="edge">
<title>SharedOrganizationModule&#45;&gt;BudgetComponentsModule</title>
<path fill="none" stroke="black" d="M110,-122.11C110,-141.34 110,-169 110,-169 110,-169 259.65,-169 259.65,-169"/>
<polygon fill="black" stroke="black" points="259.65,-172.5 269.65,-169 259.65,-165.5 259.65,-172.5"/>
</g>
</g>
</svg>
