<?xml version="1.0" encoding="UTF-8" standalone="no"?>
<!DOCTYPE svg PUBLIC "-//W3C//DTD SVG 1.1//EN"
 "http://www.w3.org/Graphics/SVG/1.1/DTD/svg11.dtd">
<!-- Generated by graphviz version 2.47.3 (20210619.1520)
 -->
<!-- Title: dependencies Pages: 1 -->
<svg width="736pt" height="174pt"
 viewBox="0.00 0.00 736.00 173.80" xmlns="http://www.w3.org/2000/svg" xmlns:xlink="http://www.w3.org/1999/xlink">
<g id="graph0" class="graph" transform="scale(1 1) rotate(0) translate(4 169.8)">
<title>dependencies</title>
<polygon fill="white" stroke="transparent" points="-4,4 -4,-169.8 732,-169.8 732,4 -4,4"/>
<text text-anchor="middle" x="364" y="-8.2" font-family="sans-serif" font-size="14.00">dependencies</text>
<g id="clust1" class="cluster">
<title>cluster_BudgetComponentsModule</title>
<polygon fill="none" stroke="black" stroke-dasharray="1,5" points="8,-32.8 8,-157.8 720,-157.8 720,-32.8 8,-32.8"/>
</g>
<g id="clust3" class="cluster">
<title>cluster_BudgetComponentsModule_imports</title>
<polygon fill="none" stroke="black" points="16,-40.8 16,-92.8 712,-92.8 712,-40.8 16,-40.8"/>
</g>
<!-- BudgetCostCenterListModule -->
<g id="node1" class="node">
<title>BudgetCostCenterListModule</title>
<polygon fill="#8dd3c7" stroke="black" points="704.26,-84.8 701.26,-88.8 680.26,-88.8 677.26,-84.8 519.74,-84.8 519.74,-48.8 704.26,-48.8 704.26,-84.8"/>
<text text-anchor="middle" x="612" y="-62.6" font-family="Times,serif" font-size="14.00">BudgetCostCenterListModule</text>
</g>
<!-- BudgetComponentsModule -->
<g id="node5" class="node">
<title>BudgetComponentsModule</title>
<polygon fill="#8dd3c7" stroke="black" points="440.27,-149.8 437.27,-153.8 416.27,-153.8 413.27,-149.8 269.73,-149.8 269.73,-113.8 440.27,-113.8 440.27,-149.8"/>
<text text-anchor="middle" x="355" y="-127.6" font-family="Times,serif" font-size="14.00">BudgetComponentsModule</text>
</g>
<!-- BudgetCostCenterListModule&#45;&gt;BudgetComponentsModule -->
<g id="edge1" class="edge">
<title>BudgetCostCenterListModule&#45;&gt;BudgetComponentsModule</title>
<path fill="none" stroke="black" d="M612,-84.91C612,-104.14 612,-131.8 612,-131.8 612,-131.8 450.58,-131.8 450.58,-131.8"/>
<polygon fill="black" stroke="black" points="450.58,-128.3 440.58,-131.8 450.58,-135.3 450.58,-128.3"/>
</g>
<!-- BudgetDetailsModule -->
<g id="node2" class="node">
<title>BudgetDetailsModule</title>
<polygon fill="#8dd3c7" stroke="black" points="501.64,-84.8 498.64,-88.8 477.64,-88.8 474.64,-84.8 362.36,-84.8 362.36,-48.8 501.64,-48.8 501.64,-84.8"/>
<text text-anchor="middle" x="432" y="-62.6" font-family="Times,serif" font-size="14.00">BudgetDetailsModule</text>
</g>
<!-- BudgetDetailsModule&#45;&gt;BudgetComponentsModule -->
<g id="edge2" class="edge">
<title>BudgetDetailsModule&#45;&gt;BudgetComponentsModule</title>
<path fill="none" stroke="black" d="M401.28,-84.91C401.28,-84.91 401.28,-103.79 401.28,-103.79"/>
<polygon fill="black" stroke="black" points="397.78,-103.79 401.28,-113.79 404.78,-103.79 397.78,-103.79"/>
</g>
<!-- BudgetFormModule -->
<g id="node3" class="node">
<title>BudgetFormModule</title>
<polygon fill="#8dd3c7" stroke="black" points="344.33,-84.8 341.33,-88.8 320.33,-88.8 317.33,-84.8 213.67,-84.8 213.67,-48.8 344.33,-48.8 344.33,-84.8"/>
<text text-anchor="middle" x="279" y="-62.6" font-family="Times,serif" font-size="14.00">BudgetFormModule</text>
</g>
<!-- BudgetFormModule&#45;&gt;BudgetComponentsModule -->
<g id="edge3" class="edge">
<title>BudgetFormModule&#45;&gt;BudgetComponentsModule</title>
<path fill="none" stroke="black" d="M306.89,-84.91C306.89,-84.91 306.89,-103.79 306.89,-103.79"/>
<polygon fill="black" stroke="black" points="303.39,-103.79 306.89,-113.79 310.39,-103.79 303.39,-103.79"/>
</g>
<!-- SharedOrganizationModule -->
<g id="node4" class="node">
<title>SharedOrganizationModule</title>
<polygon fill="#8dd3c7" stroke="black" points="195.51,-84.8 192.51,-88.8 171.51,-88.8 168.51,-84.8 24.49,-84.8 24.49,-48.8 195.51,-48.8 195.51,-84.8"/>
<text text-anchor="middle" x="110" y="-62.6" font-family="Times,serif" font-size="14.00">SharedOrganizationModule</text>
</g>
<!-- SharedOrganizationModule&#45;&gt;BudgetComponentsModule -->
<g id="edge4" class="edge">
<title>SharedOrganizationModule&#45;&gt;BudgetComponentsModule</title>
<path fill="none" stroke="black" d="M110,-84.91C110,-104.14 110,-131.8 110,-131.8 110,-131.8 259.65,-131.8 259.65,-131.8"/>
<polygon fill="black" stroke="black" points="259.65,-135.3 269.65,-131.8 259.65,-128.3 259.65,-135.3"/>
</g>
</g>
</svg>
