<?xml version="1.0" encoding="UTF-8" standalone="no"?>
<!DOCTYPE svg PUBLIC "-//W3C//DTD SVG 1.1//EN"
 "http://www.w3.org/Graphics/SVG/1.1/DTD/svg11.dtd">
<!-- Generated by graphviz version 2.40.1 (20161225.0304)
 -->
<!-- Title: dependencies Pages: 1 -->
<svg width="644pt" height="284pt"
 viewBox="0.00 0.00 644.00 284.00" xmlns="http://www.w3.org/2000/svg" xmlns:xlink="http://www.w3.org/1999/xlink">
<g id="graph0" class="graph" transform="scale(1 1) rotate(0) translate(4 280)">
<title>dependencies</title>
<polygon fill="#ffffff" stroke="transparent" points="-4,4 -4,-280 640,-280 640,4 -4,4"/>
<text text-anchor="start" x="297.0091" y="-42.4" font-family="sans-serif" font-weight="bold" font-size="14.00" fill="#000000">Legend</text>
<polygon fill="#ffffb3" stroke="transparent" points="84,-10 84,-30 104,-30 104,-10 84,-10"/>
<text text-anchor="start" x="107.629" y="-15.4" font-family="sans-serif" font-size="14.00" fill="#000000"> &#160;Declarations</text>
<polygon fill="#8dd3c7" stroke="transparent" points="197,-10 197,-30 217,-30 217,-10 197,-10"/>
<text text-anchor="start" x="220.7251" y="-15.4" font-family="sans-serif" font-size="14.00" fill="#000000"> &#160;Module</text>
<polygon fill="#80b1d3" stroke="transparent" points="283,-10 283,-30 303,-30 303,-10 283,-10"/>
<text text-anchor="start" x="306.7812" y="-15.4" font-family="sans-serif" font-size="14.00" fill="#000000"> &#160;Bootstrap</text>
<polygon fill="#fdb462" stroke="transparent" points="380,-10 380,-30 400,-30 400,-10 380,-10"/>
<text text-anchor="start" x="403.6732" y="-15.4" font-family="sans-serif" font-size="14.00" fill="#000000"> &#160;Providers</text>
<polygon fill="#fb8072" stroke="transparent" points="476,-10 476,-30 496,-30 496,-10 476,-10"/>
<text text-anchor="start" x="499.7258" y="-15.4" font-family="sans-serif" font-size="14.00" fill="#000000"> &#160;Exports</text>
<g id="clust1" class="cluster">
<title>cluster_StoreFinderPageLayoutModule</title>
<polygon fill="none" stroke="#000000" stroke-dasharray="1,5" points="8,-70 8,-268 628,-268 628,-70 8,-70"/>
</g>
<g id="clust2" class="cluster">
<title>cluster_StoreFinderPageLayoutModule_declarations</title>
<polygon fill="none" stroke="#000000" points="390,-78 390,-130 620,-130 620,-78 390,-78"/>
</g>
<g id="clust4" class="cluster">
<title>cluster_StoreFinderPageLayoutModule_imports</title>
<polygon fill="none" stroke="#000000" points="16,-78 16,-130 382,-130 382,-78 16,-78"/>
</g>
<g id="clust5" class="cluster">
<title>cluster_StoreFinderPageLayoutModule_exports</title>
<polygon fill="none" stroke="#000000" points="158,-208 158,-260 392,-260 392,-208 158,-208"/>
</g>
<!-- StoreFinderPageLayoutComponent -->
<g id="node1" class="node">
<title>StoreFinderPageLayoutComponent</title>
<polygon fill="#ffffb3" stroke="#000000" points="612.299,-122 397.701,-122 397.701,-86 612.299,-86 612.299,-122"/>
<text text-anchor="middle" x="505" y="-99.8" font-family="Times,serif" font-size="14.00" fill="#000000">StoreFinderPageLayoutComponent</text>
</g>
<!-- StoreFinderPageLayoutModule -->
<g id="node2" class="node">
<title>StoreFinderPageLayoutModule</title>
<polygon fill="#8dd3c7" stroke="#000000" points="371.0168,-187 368.0168,-191 347.0168,-191 344.0168,-187 178.9832,-187 178.9832,-151 371.0168,-151 371.0168,-187"/>
<text text-anchor="middle" x="275" y="-164.8" font-family="Times,serif" font-size="14.00" fill="#000000">StoreFinderPageLayoutModule</text>
</g>
<!-- StoreFinderPageLayoutComponent&#45;&gt;StoreFinderPageLayoutModule -->
<g id="edge1" class="edge">
<title>StoreFinderPageLayoutComponent&#45;&gt;StoreFinderPageLayoutModule</title>
<path fill="none" stroke="#000000" d="M505,-122.1061C505,-141.3391 505,-169 505,-169 505,-169 381.208,-169 381.208,-169"/>
<polygon fill="#000000" stroke="#000000" points="381.2081,-165.5001 371.208,-169 381.208,-172.5001 381.2081,-165.5001"/>
</g>
<!-- StoreFinderPageLayoutComponent  -->
<g id="node6" class="node">
<title>StoreFinderPageLayoutComponent </title>
<polygon fill="#fb8072" stroke="#000000" points="383.7989,-252 166.2011,-252 166.2011,-216 383.7989,-216 383.7989,-252"/>
<text text-anchor="middle" x="275" y="-229.8" font-family="Times,serif" font-size="14.00" fill="#000000">StoreFinderPageLayoutComponent </text>
</g>
<!-- StoreFinderPageLayoutModule&#45;&gt;StoreFinderPageLayoutComponent  -->
<g id="edge5" class="edge">
<title>StoreFinderPageLayoutModule&#45;&gt;StoreFinderPageLayoutComponent </title>
<path fill="none" stroke="#000000" stroke-dasharray="5,2" d="M275,-187.1061C275,-187.1061 275,-205.991 275,-205.991"/>
<polygon fill="#000000" stroke="#000000" points="271.5001,-205.9909 275,-215.991 278.5001,-205.991 271.5001,-205.9909"/>
</g>
<!-- CmsModule -->
<g id="node3" class="node">
<title>CmsModule</title>
<polygon fill="#8dd3c7" stroke="#000000" points="373.7219,-122 370.7219,-126 349.7219,-126 346.7219,-122 288.2781,-122 288.2781,-86 373.7219,-86 373.7219,-122"/>
<text text-anchor="middle" x="331" y="-99.8" font-family="Times,serif" font-size="14.00" fill="#000000">CmsModule</text>
</g>
<!-- CmsModule&#45;&gt;StoreFinderPageLayoutModule -->
<g id="edge2" class="edge">
<title>CmsModule&#45;&gt;StoreFinderPageLayoutModule</title>
<path fill="none" stroke="#000000" d="M329.8237,-122.1061C329.8237,-122.1061 329.8237,-140.991 329.8237,-140.991"/>
<polygon fill="#000000" stroke="#000000" points="326.3237,-140.9909 329.8237,-150.991 333.3237,-140.991 326.3237,-140.9909"/>
</g>
<!-- ProductModule -->
<g id="node4" class="node">
<title>ProductModule</title>
<polygon fill="#8dd3c7" stroke="#000000" points="270.5982,-122 267.5982,-126 246.5982,-126 243.5982,-122 167.4018,-122 167.4018,-86 270.5982,-86 270.5982,-122"/>
<text text-anchor="middle" x="219" y="-99.8" font-family="Times,serif" font-size="14.00" fill="#000000">ProductModule</text>
</g>
<!-- ProductModule&#45;&gt;StoreFinderPageLayoutModule -->
<g id="edge3" class="edge">
<title>ProductModule&#45;&gt;StoreFinderPageLayoutModule</title>
<path fill="none" stroke="#000000" d="M224.6455,-122.1061C224.6455,-122.1061 224.6455,-140.991 224.6455,-140.991"/>
<polygon fill="#000000" stroke="#000000" points="221.1456,-140.9909 224.6455,-150.991 228.1456,-140.991 221.1456,-140.9909"/>
</g>
<!-- StoreFinderModule -->
<g id="node5" class="node">
<title>StoreFinderModule</title>
<polygon fill="#8dd3c7" stroke="#000000" points="149.6471,-122 146.6471,-126 125.6471,-126 122.6471,-122 24.3529,-122 24.3529,-86 149.6471,-86 149.6471,-122"/>
<text text-anchor="middle" x="87" y="-99.8" font-family="Times,serif" font-size="14.00" fill="#000000">StoreFinderModule</text>
</g>
<!-- StoreFinderModule&#45;&gt;StoreFinderPageLayoutModule -->
<g id="edge4" class="edge">
<title>StoreFinderModule&#45;&gt;StoreFinderPageLayoutModule</title>
<path fill="none" stroke="#000000" d="M87,-122.1061C87,-141.3391 87,-169 87,-169 87,-169 168.7971,-169 168.7971,-169"/>
<polygon fill="#000000" stroke="#000000" points="168.7971,-172.5001 178.7971,-169 168.797,-165.5001 168.7971,-172.5001"/>
</g>
</g>
</svg>
