<?xml version="1.0" encoding="UTF-8" standalone="no"?>
<!DOCTYPE svg PUBLIC "-//W3C//DTD SVG 1.1//EN"
 "http://www.w3.org/Graphics/SVG/1.1/DTD/svg11.dtd">
<!-- Generated by graphviz version 2.47.3 (20210619.1520)
 -->
<!-- Title: dependencies Pages: 1 -->
<svg width="808pt" height="247pt"
 viewBox="0.00 0.00 808.00 246.80" xmlns="http://www.w3.org/2000/svg" xmlns:xlink="http://www.w3.org/1999/xlink">
<g id="graph0" class="graph" transform="scale(1 1) rotate(0) translate(4 242.8)">
<title>dependencies</title>
<polygon fill="white" stroke="transparent" points="-4,4 -4,-242.8 804,-242.8 804,4 -4,4"/>
<text text-anchor="middle" x="400" y="-8.2" font-family="sans-serif" font-size="14.00">dependencies</text>
<g id="clust1" class="cluster">
<title>cluster_AddressFormModule</title>
<polygon fill="none" stroke="black" stroke-dasharray="1,5" points="8,-32.8 8,-230.8 792,-230.8 792,-32.8 8,-32.8"/>
</g>
<g id="clust6" class="cluster">
<title>cluster_AddressFormModule_exports</title>
<polygon fill="none" stroke="black" points="94,-170.8 94,-222.8 516,-222.8 516,-170.8 94,-170.8"/>
</g>
<g id="clust2" class="cluster">
<title>cluster_AddressFormModule_declarations</title>
<polygon fill="none" stroke="black" points="370,-40.8 370,-92.8 784,-92.8 784,-40.8 370,-40.8"/>
</g>
<g id="clust5" class="cluster">
<title>cluster_AddressFormModule_imports</title>
<polygon fill="none" stroke="black" points="16,-40.8 16,-92.8 362,-92.8 362,-40.8 16,-40.8"/>
</g>
<!-- AddressFormComponent -->
<g id="node1" class="node">
<title>AddressFormComponent</title>
<polygon fill="#ffffb3" stroke="black" points="775.54,-84.8 618.46,-84.8 618.46,-48.8 775.54,-48.8 775.54,-84.8"/>
<text text-anchor="middle" x="697" y="-62.6" font-family="Times,serif" font-size="14.00">AddressFormComponent</text>
</g>
<!-- AddressFormModule -->
<g id="node3" class="node">
<title>AddressFormModule</title>
<polygon fill="#8dd3c7" stroke="black" points="359.75,-149.8 356.75,-153.8 335.75,-153.8 332.75,-149.8 224.25,-149.8 224.25,-113.8 359.75,-113.8 359.75,-149.8"/>
<text text-anchor="middle" x="292" y="-127.6" font-family="Times,serif" font-size="14.00">AddressFormModule</text>
</g>
<!-- AddressFormComponent&#45;&gt;AddressFormModule -->
<g id="edge1" class="edge">
<title>AddressFormComponent&#45;&gt;AddressFormModule</title>
<path fill="none" stroke="black" d="M697,-85.08C697,-106.12 697,-137.8 697,-137.8 697,-137.8 369.79,-137.8 369.79,-137.8"/>
<polygon fill="black" stroke="black" points="369.79,-134.3 359.79,-137.8 369.79,-141.3 369.79,-134.3"/>
</g>
<!-- SuggestedAddressDialogComponent -->
<g id="node2" class="node">
<title>SuggestedAddressDialogComponent</title>
<polygon fill="#ffffb3" stroke="black" points="600.35,-84.8 377.65,-84.8 377.65,-48.8 600.35,-48.8 600.35,-84.8"/>
<text text-anchor="middle" x="489" y="-62.6" font-family="Times,serif" font-size="14.00">SuggestedAddressDialogComponent</text>
</g>
<!-- SuggestedAddressDialogComponent&#45;&gt;AddressFormModule -->
<g id="edge2" class="edge">
<title>SuggestedAddressDialogComponent&#45;&gt;AddressFormModule</title>
<path fill="none" stroke="black" d="M442.55,-84.82C442.55,-102.17 442.55,-125.8 442.55,-125.8 442.55,-125.8 369.79,-125.8 369.79,-125.8"/>
<polygon fill="black" stroke="black" points="369.79,-122.3 359.79,-125.8 369.79,-129.3 369.79,-122.3"/>
</g>
<!-- AddressFormComponent  -->
<g id="node7" class="node">
<title>AddressFormComponent </title>
<polygon fill="#fb8072" stroke="black" points="507.54,-214.8 346.46,-214.8 346.46,-178.8 507.54,-178.8 507.54,-214.8"/>
<text text-anchor="middle" x="427" y="-192.6" font-family="Times,serif" font-size="14.00">AddressFormComponent </text>
</g>
<!-- AddressFormModule&#45;&gt;AddressFormComponent  -->
<g id="edge6" class="edge">
<title>AddressFormModule&#45;&gt;AddressFormComponent </title>
<path fill="none" stroke="black" stroke-dasharray="5,2" d="M353.18,-149.91C353.18,-149.91 353.18,-168.79 353.18,-168.79"/>
<polygon fill="black" stroke="black" points="349.68,-168.79 353.18,-178.79 356.68,-168.79 349.68,-168.79"/>
</g>
<!-- SuggestedAddressDialogComponent  -->
<g id="node8" class="node">
<title>SuggestedAddressDialogComponent </title>
<polygon fill="#fb8072" stroke="black" points="328.35,-214.8 101.65,-214.8 101.65,-178.8 328.35,-178.8 328.35,-214.8"/>
<text text-anchor="middle" x="215" y="-192.6" font-family="Times,serif" font-size="14.00">SuggestedAddressDialogComponent </text>
</g>
<!-- AddressFormModule&#45;&gt;SuggestedAddressDialogComponent  -->
<g id="edge7" class="edge">
<title>AddressFormModule&#45;&gt;SuggestedAddressDialogComponent </title>
<path fill="none" stroke="black" stroke-dasharray="5,2" d="M276.15,-149.91C276.15,-149.91 276.15,-168.79 276.15,-168.79"/>
<polygon fill="black" stroke="black" points="272.65,-168.79 276.15,-178.79 279.65,-168.79 272.65,-168.79"/>
</g>
<!-- FormErrorsModule -->
<g id="node4" class="node">
<title>FormErrorsModule</title>
<polygon fill="#8dd3c7" stroke="black" points="354.36,-84.8 351.36,-88.8 330.36,-88.8 327.36,-84.8 229.64,-84.8 229.64,-48.8 354.36,-48.8 354.36,-84.8"/>
<text text-anchor="middle" x="292" y="-62.6" font-family="Times,serif" font-size="14.00">FormErrorsModule</text>
</g>
<!-- FormErrorsModule&#45;&gt;AddressFormModule -->
<g id="edge3" class="edge">
<title>FormErrorsModule&#45;&gt;AddressFormModule</title>
<path fill="none" stroke="black" d="M292,-84.91C292,-84.91 292,-103.79 292,-103.79"/>
<polygon fill="black" stroke="black" points="288.5,-103.79 292,-113.79 295.5,-103.79 288.5,-103.79"/>
</g>
<!-- I18nModule -->
<g id="node5" class="node">
<title>I18nModule</title>
<polygon fill="#8dd3c7" stroke="black" points="211.71,-84.8 208.71,-88.8 187.71,-88.8 184.71,-84.8 126.29,-84.8 126.29,-48.8 211.71,-48.8 211.71,-84.8"/>
<text text-anchor="middle" x="169" y="-62.6" font-family="Times,serif" font-size="14.00">I18nModule</text>
</g>
<!-- I18nModule&#45;&gt;AddressFormModule -->
<g id="edge4" class="edge">
<title>I18nModule&#45;&gt;AddressFormModule</title>
<path fill="none" stroke="black" d="M169,-84.82C169,-102.17 169,-125.8 169,-125.8 169,-125.8 214.02,-125.8 214.02,-125.8"/>
<polygon fill="black" stroke="black" points="214.02,-129.3 224.02,-125.8 214.02,-122.3 214.02,-129.3"/>
</g>
<!-- IconModule -->
<g id="node6" class="node">
<title>IconModule</title>
<polygon fill="#8dd3c7" stroke="black" points="108.43,-84.8 105.43,-88.8 84.43,-88.8 81.43,-84.8 23.57,-84.8 23.57,-48.8 108.43,-48.8 108.43,-84.8"/>
<text text-anchor="middle" x="66" y="-62.6" font-family="Times,serif" font-size="14.00">IconModule</text>
</g>
<!-- IconModule&#45;&gt;AddressFormModule -->
<g id="edge5" class="edge">
<title>IconModule&#45;&gt;AddressFormModule</title>
<path fill="none" stroke="black" d="M62.81,-85.08C62.81,-106.12 62.81,-137.8 62.81,-137.8 62.81,-137.8 214.16,-137.8 214.16,-137.8"/>
<polygon fill="black" stroke="black" points="214.16,-141.3 224.16,-137.8 214.16,-134.3 214.16,-141.3"/>
</g>
</g>
</svg>
