<?xml version="1.0" encoding="UTF-8" standalone="no"?>
<!DOCTYPE svg PUBLIC "-//W3C//DTD SVG 1.1//EN"
 "http://www.w3.org/Graphics/SVG/1.1/DTD/svg11.dtd">
<!-- Generated by graphviz version 2.40.1 (20161225.0304)
 -->
<!-- Title: dependencies Pages: 1 -->
<svg width="857pt" height="284pt"
 viewBox="0.00 0.00 857.00 284.00" xmlns="http://www.w3.org/2000/svg" xmlns:xlink="http://www.w3.org/1999/xlink">
<g id="graph0" class="graph" transform="scale(1 1) rotate(0) translate(4 280)">
<title>dependencies</title>
<polygon fill="#ffffff" stroke="transparent" points="-4,4 -4,-280 853,-280 853,4 -4,4"/>
<text text-anchor="start" x="403.5091" y="-42.4" font-family="sans-serif" font-weight="bold" font-size="14.00" fill="#000000">Legend</text>
<polygon fill="#ffffb3" stroke="transparent" points="190.5,-10 190.5,-30 210.5,-30 210.5,-10 190.5,-10"/>
<text text-anchor="start" x="214.129" y="-15.4" font-family="sans-serif" font-size="14.00" fill="#000000"> &#160;Declarations</text>
<polygon fill="#8dd3c7" stroke="transparent" points="303.5,-10 303.5,-30 323.5,-30 323.5,-10 303.5,-10"/>
<text text-anchor="start" x="327.2251" y="-15.4" font-family="sans-serif" font-size="14.00" fill="#000000"> &#160;Module</text>
<polygon fill="#80b1d3" stroke="transparent" points="389.5,-10 389.5,-30 409.5,-30 409.5,-10 389.5,-10"/>
<text text-anchor="start" x="413.2812" y="-15.4" font-family="sans-serif" font-size="14.00" fill="#000000"> &#160;Bootstrap</text>
<polygon fill="#fdb462" stroke="transparent" points="486.5,-10 486.5,-30 506.5,-30 506.5,-10 486.5,-10"/>
<text text-anchor="start" x="510.1732" y="-15.4" font-family="sans-serif" font-size="14.00" fill="#000000"> &#160;Providers</text>
<polygon fill="#fb8072" stroke="transparent" points="582.5,-10 582.5,-30 602.5,-30 602.5,-10 582.5,-10"/>
<text text-anchor="start" x="606.2258" y="-15.4" font-family="sans-serif" font-size="14.00" fill="#000000"> &#160;Exports</text>
<g id="clust1" class="cluster">
<title>cluster_AddressFormModule</title>
<polygon fill="none" stroke="#000000" stroke-dasharray="1,5" points="8,-70 8,-268 841,-268 841,-70 8,-70"/>
</g>
<g id="clust2" class="cluster">
<title>cluster_AddressFormModule_declarations</title>
<polygon fill="none" stroke="#000000" points="419,-78 419,-130 833,-130 833,-78 419,-78"/>
</g>
<g id="clust5" class="cluster">
<title>cluster_AddressFormModule_imports</title>
<polygon fill="none" stroke="#000000" points="16,-78 16,-130 411,-130 411,-78 16,-78"/>
</g>
<g id="clust6" class="cluster">
<title>cluster_AddressFormModule_exports</title>
<polygon fill="none" stroke="#000000" points="106,-208 106,-260 528,-260 528,-208 106,-208"/>
</g>
<!-- AddressFormComponent -->
<g id="node1" class="node">
<title>AddressFormComponent</title>
<polygon fill="#ffffb3" stroke="#000000" points="824.5379,-122 667.4621,-122 667.4621,-86 824.5379,-86 824.5379,-122"/>
<text text-anchor="middle" x="746" y="-99.8" font-family="Times,serif" font-size="14.00" fill="#000000">AddressFormComponent</text>
</g>
<!-- AddressFormModule -->
<g id="node3" class="node">
<title>AddressFormModule</title>
<polygon fill="#8dd3c7" stroke="#000000" points="383.7548,-187 380.7548,-191 359.7548,-191 356.7548,-187 248.2452,-187 248.2452,-151 383.7548,-151 383.7548,-187"/>
<text text-anchor="middle" x="316" y="-164.8" font-family="Times,serif" font-size="14.00" fill="#000000">AddressFormModule</text>
</g>
<!-- AddressFormComponent&#45;&gt;AddressFormModule -->
<g id="edge1" class="edge">
<title>AddressFormComponent&#45;&gt;AddressFormModule</title>
<path fill="none" stroke="#000000" d="M746,-122.2843C746,-143.3211 746,-175 746,-175 746,-175 394.1348,-175 394.1348,-175"/>
<polygon fill="#000000" stroke="#000000" points="394.1348,-171.5001 384.1348,-175 394.1347,-178.5001 394.1348,-171.5001"/>
</g>
<!-- SuggestedAddressDialogComponent -->
<g id="node2" class="node">
<title>SuggestedAddressDialogComponent</title>
<polygon fill="#ffffb3" stroke="#000000" points="649.3528,-122 426.6472,-122 426.6472,-86 649.3528,-86 649.3528,-122"/>
<text text-anchor="middle" x="538" y="-99.8" font-family="Times,serif" font-size="14.00" fill="#000000">SuggestedAddressDialogComponent</text>
</g>
<!-- SuggestedAddressDialogComponent&#45;&gt;AddressFormModule -->
<g id="edge2" class="edge">
<title>SuggestedAddressDialogComponent&#45;&gt;AddressFormModule</title>
<path fill="none" stroke="#000000" d="M473.0461,-122.0225C473.0461,-139.3734 473.0461,-163 473.0461,-163 473.0461,-163 393.9693,-163 393.9693,-163"/>
<polygon fill="#000000" stroke="#000000" points="393.9693,-159.5001 383.9693,-163 393.9693,-166.5001 393.9693,-159.5001"/>
</g>
<!-- AddressFormComponent  -->
<g id="node7" class="node">
<title>AddressFormComponent </title>
<polygon fill="#fb8072" stroke="#000000" points="519.5372,-252 358.4628,-252 358.4628,-216 519.5372,-216 519.5372,-252"/>
<text text-anchor="middle" x="439" y="-229.8" font-family="Times,serif" font-size="14.00" fill="#000000">AddressFormComponent </text>
</g>
<!-- AddressFormModule&#45;&gt;AddressFormComponent  -->
<g id="edge6" class="edge">
<title>AddressFormModule&#45;&gt;AddressFormComponent </title>
<path fill="none" stroke="#000000" stroke-dasharray="5,2" d="M371.1794,-187.1061C371.1794,-187.1061 371.1794,-205.991 371.1794,-205.991"/>
<polygon fill="#000000" stroke="#000000" points="367.6794,-205.9909 371.1794,-215.991 374.6794,-205.991 367.6794,-205.9909"/>
</g>
<!-- SuggestedAddressDialogComponent  -->
<g id="node8" class="node">
<title>SuggestedAddressDialogComponent </title>
<polygon fill="#fb8072" stroke="#000000" points="340.3531,-252 113.6469,-252 113.6469,-216 340.3531,-216 340.3531,-252"/>
<text text-anchor="middle" x="227" y="-229.8" font-family="Times,serif" font-size="14.00" fill="#000000">SuggestedAddressDialogComponent </text>
</g>
<!-- AddressFormModule&#45;&gt;SuggestedAddressDialogComponent  -->
<g id="edge7" class="edge">
<title>AddressFormModule&#45;&gt;SuggestedAddressDialogComponent </title>
<path fill="none" stroke="#000000" stroke-dasharray="5,2" d="M294.1495,-187.1061C294.1495,-187.1061 294.1495,-205.991 294.1495,-205.991"/>
<polygon fill="#000000" stroke="#000000" points="290.6496,-205.9909 294.1495,-215.991 297.6496,-205.991 290.6496,-205.9909"/>
</g>
<!-- AutoFocusDirectiveModule -->
<g id="node4" class="node">
<title>AutoFocusDirectiveModule</title>
<polygon fill="#8dd3c7" stroke="#000000" points="402.5716,-122 399.5716,-126 378.5716,-126 375.5716,-122 229.4284,-122 229.4284,-86 402.5716,-86 402.5716,-122"/>
<text text-anchor="middle" x="316" y="-99.8" font-family="Times,serif" font-size="14.00" fill="#000000">AutoFocusDirectiveModule</text>
</g>
<!-- AutoFocusDirectiveModule&#45;&gt;AddressFormModule -->
<g id="edge3" class="edge">
<title>AutoFocusDirectiveModule&#45;&gt;AddressFormModule</title>
<path fill="none" stroke="#000000" d="M316,-122.1061C316,-122.1061 316,-140.991 316,-140.991"/>
<polygon fill="#000000" stroke="#000000" points="312.5001,-140.9909 316,-150.991 319.5001,-140.991 312.5001,-140.9909"/>
</g>
<!-- I18nModule -->
<g id="node5" class="node">
<title>I18nModule</title>
<polygon fill="#8dd3c7" stroke="#000000" points="211.7107,-122 208.7107,-126 187.7107,-126 184.7107,-122 126.2893,-122 126.2893,-86 211.7107,-86 211.7107,-122"/>
<text text-anchor="middle" x="169" y="-99.8" font-family="Times,serif" font-size="14.00" fill="#000000">I18nModule</text>
</g>
<!-- I18nModule&#45;&gt;AddressFormModule -->
<g id="edge4" class="edge">
<title>I18nModule&#45;&gt;AddressFormModule</title>
<path fill="none" stroke="#000000" d="M169,-122.0225C169,-139.3734 169,-163 169,-163 169,-163 238.0938,-163 238.0938,-163"/>
<polygon fill="#000000" stroke="#000000" points="238.0939,-166.5001 248.0938,-163 238.0938,-159.5001 238.0939,-166.5001"/>
</g>
<!-- IconModule -->
<g id="node6" class="node">
<title>IconModule</title>
<polygon fill="#8dd3c7" stroke="#000000" points="108.4261,-122 105.4261,-126 84.4261,-126 81.4261,-122 23.5739,-122 23.5739,-86 108.4261,-86 108.4261,-122"/>
<text text-anchor="middle" x="66" y="-99.8" font-family="Times,serif" font-size="14.00" fill="#000000">IconModule</text>
</g>
<!-- IconModule&#45;&gt;AddressFormModule -->
<g id="edge5" class="edge">
<title>IconModule&#45;&gt;AddressFormModule</title>
<path fill="none" stroke="#000000" d="M66,-122.2843C66,-143.3211 66,-175 66,-175 66,-175 238.0166,-175 238.0166,-175"/>
<polygon fill="#000000" stroke="#000000" points="238.0167,-178.5001 248.0166,-175 238.0166,-171.5001 238.0167,-178.5001"/>
</g>
</g>
</svg>
