<?xml version="1.0" encoding="UTF-8" standalone="no"?>
<!DOCTYPE svg PUBLIC "-//W3C//DTD SVG 1.1//EN"
 "http://www.w3.org/Graphics/SVG/1.1/DTD/svg11.dtd">
<!-- Generated by graphviz version 2.44.1 (20200629.0846)
 -->
<!-- Title: dependencies Pages: 1 -->
<svg width="808pt" height="284pt"
 viewBox="0.00 0.00 808.00 284.00" xmlns="http://www.w3.org/2000/svg" xmlns:xlink="http://www.w3.org/1999/xlink">
<g id="graph0" class="graph" transform="scale(1 1) rotate(0) translate(4 280)">
<title>dependencies</title>
<polygon fill="white" stroke="transparent" points="-4,4 -4,-280 804,-280 804,4 -4,4"/>
<text text-anchor="start" x="379.01" y="-42.4" font-family="sans-serif" font-weight="bold" font-size="14.00">Legend</text>
<polygon fill="#ffffb3" stroke="transparent" points="166,-10 166,-30 186,-30 186,-10 166,-10"/>
<text text-anchor="start" x="189.63" y="-15.4" font-family="sans-serif" font-size="14.00"> &#160;Declarations</text>
<polygon fill="#8dd3c7" stroke="transparent" points="279,-10 279,-30 299,-30 299,-10 279,-10"/>
<text text-anchor="start" x="302.73" y="-15.4" font-family="sans-serif" font-size="14.00"> &#160;Module</text>
<polygon fill="#80b1d3" stroke="transparent" points="365,-10 365,-30 385,-30 385,-10 365,-10"/>
<text text-anchor="start" x="388.78" y="-15.4" font-family="sans-serif" font-size="14.00"> &#160;Bootstrap</text>
<polygon fill="#fdb462" stroke="transparent" points="462,-10 462,-30 482,-30 482,-10 462,-10"/>
<text text-anchor="start" x="485.67" y="-15.4" font-family="sans-serif" font-size="14.00"> &#160;Providers</text>
<polygon fill="#fb8072" stroke="transparent" points="558,-10 558,-30 578,-30 578,-10 558,-10"/>
<text text-anchor="start" x="581.73" y="-15.4" font-family="sans-serif" font-size="14.00"> &#160;Exports</text>
<g id="clust1" class="cluster">
<title>cluster_AddressFormModule</title>
<polygon fill="none" stroke="black" stroke-dasharray="1,5" points="8,-70 8,-268 792,-268 792,-70 8,-70"/>
</g>
<g id="clust5" class="cluster">
<title>cluster_AddressFormModule_imports</title>
<polygon fill="none" stroke="black" points="438,-78 438,-130 784,-130 784,-78 438,-78"/>
</g>
<g id="clust6" class="cluster">
<title>cluster_AddressFormModule_exports</title>
<polygon fill="none" stroke="black" points="259,-208 259,-260 681,-260 681,-208 259,-208"/>
</g>
<g id="clust2" class="cluster">
<title>cluster_AddressFormModule_declarations</title>
<polygon fill="none" stroke="black" points="16,-78 16,-130 430,-130 430,-78 16,-78"/>
</g>
<!-- AddressFormComponent -->
<g id="node1" class="node">
<title>AddressFormComponent</title>
<polygon fill="#ffffb3" stroke="black" points="421.54,-122 264.46,-122 264.46,-86 421.54,-86 421.54,-122"/>
<text text-anchor="middle" x="343" y="-99.8" font-family="Times,serif" font-size="14.00">AddressFormComponent</text>
</g>
<!-- AddressFormModule -->
<g id="node3" class="node">
<title>AddressFormModule</title>
<polygon fill="#8dd3c7" stroke="black" points="555.75,-187 552.75,-191 531.75,-191 528.75,-187 420.25,-187 420.25,-151 555.75,-151 555.75,-187"/>
<text text-anchor="middle" x="488" y="-164.8" font-family="Times,serif" font-size="14.00">AddressFormModule</text>
</g>
<!-- AddressFormComponent&#45;&gt;AddressFormModule -->
<g id="edge1" class="edge">
<title>AddressFormComponent&#45;&gt;AddressFormModule</title>
<path fill="none" stroke="black" d="M421.91,-104C429.12,-104 433.78,-104 433.78,-104 433.78,-104 433.78,-140.89 433.78,-140.89"/>
<polygon fill="black" stroke="black" points="430.28,-140.89 433.78,-150.89 437.28,-140.89 430.28,-140.89"/>
</g>
<!-- SuggestedAddressDialogComponent -->
<g id="node2" class="node">
<title>SuggestedAddressDialogComponent</title>
<polygon fill="#ffffb3" stroke="black" points="246.35,-122 23.65,-122 23.65,-86 246.35,-86 246.35,-122"/>
<text text-anchor="middle" x="135" y="-99.8" font-family="Times,serif" font-size="14.00">SuggestedAddressDialogComponent</text>
</g>
<!-- SuggestedAddressDialogComponent&#45;&gt;AddressFormModule -->
<g id="edge2" class="edge">
<title>SuggestedAddressDialogComponent&#45;&gt;AddressFormModule</title>
<path fill="none" stroke="black" d="M135,-122.11C135,-141.34 135,-169 135,-169 135,-169 409.94,-169 409.94,-169"/>
<polygon fill="black" stroke="black" points="409.94,-172.5 419.94,-169 409.94,-165.5 409.94,-172.5"/>
</g>
<!-- AddressFormComponent  -->
<g id="node7" class="node">
<title>AddressFormComponent </title>
<polygon fill="#fb8072" stroke="black" points="672.54,-252 511.46,-252 511.46,-216 672.54,-216 672.54,-252"/>
<text text-anchor="middle" x="592" y="-229.8" font-family="Times,serif" font-size="14.00">AddressFormComponent </text>
</g>
<!-- AddressFormModule&#45;&gt;AddressFormComponent  -->
<g id="edge6" class="edge">
<title>AddressFormModule&#45;&gt;AddressFormComponent </title>
<path fill="none" stroke="black" stroke-dasharray="5,2" d="M533.68,-187.11C533.68,-187.11 533.68,-205.99 533.68,-205.99"/>
<polygon fill="black" stroke="black" points="530.18,-205.99 533.68,-215.99 537.18,-205.99 530.18,-205.99"/>
</g>
<!-- SuggestedAddressDialogComponent  -->
<g id="node8" class="node">
<title>SuggestedAddressDialogComponent </title>
<polygon fill="#fb8072" stroke="black" points="493.35,-252 266.65,-252 266.65,-216 493.35,-216 493.35,-252"/>
<text text-anchor="middle" x="380" y="-229.8" font-family="Times,serif" font-size="14.00">SuggestedAddressDialogComponent </text>
</g>
<!-- AddressFormModule&#45;&gt;SuggestedAddressDialogComponent  -->
<g id="edge7" class="edge">
<title>AddressFormModule&#45;&gt;SuggestedAddressDialogComponent </title>
<path fill="none" stroke="black" stroke-dasharray="5,2" d="M456.65,-187.11C456.65,-187.11 456.65,-205.99 456.65,-205.99"/>
<polygon fill="black" stroke="black" points="453.15,-205.99 456.65,-215.99 460.15,-205.99 453.15,-205.99"/>
</g>
<!-- FormErrorsModule -->
<g id="node4" class="node">
<title>FormErrorsModule</title>
<polygon fill="#8dd3c7" stroke="black" points="776.36,-122 773.36,-126 752.36,-126 749.36,-122 651.64,-122 651.64,-86 776.36,-86 776.36,-122"/>
<text text-anchor="middle" x="714" y="-99.8" font-family="Times,serif" font-size="14.00">FormErrorsModule</text>
</g>
<!-- FormErrorsModule&#45;&gt;AddressFormModule -->
<g id="edge3" class="edge">
<title>FormErrorsModule&#45;&gt;AddressFormModule</title>
<path fill="none" stroke="black" d="M662.04,-122.11C662.04,-141.34 662.04,-169 662.04,-169 662.04,-169 565.79,-169 565.79,-169"/>
<polygon fill="black" stroke="black" points="565.79,-165.5 555.79,-169 565.79,-172.5 565.79,-165.5"/>
</g>
<!-- I18nModule -->
<g id="node5" class="node">
<title>I18nModule</title>
<polygon fill="#8dd3c7" stroke="black" points="633.71,-122 630.71,-126 609.71,-126 606.71,-122 548.29,-122 548.29,-86 633.71,-86 633.71,-122"/>
<text text-anchor="middle" x="591" y="-99.8" font-family="Times,serif" font-size="14.00">I18nModule</text>
</g>
<!-- I18nModule&#45;&gt;AddressFormModule -->
<g id="edge4" class="edge">
<title>I18nModule&#45;&gt;AddressFormModule</title>
<path fill="none" stroke="black" d="M552.14,-122.11C552.14,-122.11 552.14,-140.99 552.14,-140.99"/>
<polygon fill="black" stroke="black" points="548.64,-140.99 552.14,-150.99 555.64,-140.99 548.64,-140.99"/>
</g>
<!-- IconModule -->
<g id="node6" class="node">
<title>IconModule</title>
<polygon fill="#8dd3c7" stroke="black" points="530.43,-122 527.43,-126 506.43,-126 503.43,-122 445.57,-122 445.57,-86 530.43,-86 530.43,-122"/>
<text text-anchor="middle" x="488" y="-99.8" font-family="Times,serif" font-size="14.00">IconModule</text>
</g>
<!-- IconModule&#45;&gt;AddressFormModule -->
<g id="edge5" class="edge">
<title>IconModule&#45;&gt;AddressFormModule</title>
<path fill="none" stroke="black" d="M488,-122.11C488,-122.11 488,-140.99 488,-140.99"/>
<polygon fill="black" stroke="black" points="484.5,-140.99 488,-150.99 491.5,-140.99 484.5,-140.99"/>
</g>
</g>
</svg>
