<?xml version="1.0" encoding="UTF-8" standalone="no"?>
<!DOCTYPE svg PUBLIC "-//W3C//DTD SVG 1.1//EN"
 "http://www.w3.org/Graphics/SVG/1.1/DTD/svg11.dtd">
<!-- Generated by graphviz version 2.40.1 (20161225.0304)
 -->
<!-- Title: dependencies Pages: 1 -->
<svg width="666pt" height="284pt"
 viewBox="0.00 0.00 666.00 284.00" xmlns="http://www.w3.org/2000/svg" xmlns:xlink="http://www.w3.org/1999/xlink">
<g id="graph0" class="graph" transform="scale(1 1) rotate(0) translate(4 280)">
<title>dependencies</title>
<polygon fill="#ffffff" stroke="transparent" points="-4,4 -4,-280 662,-280 662,4 -4,4"/>
<text text-anchor="start" x="308.0091" y="-42.4" font-family="sans-serif" font-weight="bold" font-size="14.00" fill="#000000">Legend</text>
<polygon fill="#ffffb3" stroke="transparent" points="95,-10 95,-30 115,-30 115,-10 95,-10"/>
<text text-anchor="start" x="118.629" y="-15.4" font-family="sans-serif" font-size="14.00" fill="#000000"> &#160;Declarations</text>
<polygon fill="#8dd3c7" stroke="transparent" points="208,-10 208,-30 228,-30 228,-10 208,-10"/>
<text text-anchor="start" x="231.7251" y="-15.4" font-family="sans-serif" font-size="14.00" fill="#000000"> &#160;Module</text>
<polygon fill="#80b1d3" stroke="transparent" points="294,-10 294,-30 314,-30 314,-10 294,-10"/>
<text text-anchor="start" x="317.7812" y="-15.4" font-family="sans-serif" font-size="14.00" fill="#000000"> &#160;Bootstrap</text>
<polygon fill="#fdb462" stroke="transparent" points="391,-10 391,-30 411,-30 411,-10 391,-10"/>
<text text-anchor="start" x="414.6732" y="-15.4" font-family="sans-serif" font-size="14.00" fill="#000000"> &#160;Providers</text>
<polygon fill="#fb8072" stroke="transparent" points="487,-10 487,-30 507,-30 507,-10 487,-10"/>
<text text-anchor="start" x="510.7258" y="-15.4" font-family="sans-serif" font-size="14.00" fill="#000000"> &#160;Exports</text>
<g id="clust1" class="cluster">
<title>cluster_AddressFormModule</title>
<polygon fill="none" stroke="#000000" stroke-dasharray="1,5" points="8,-70 8,-268 650,-268 650,-70 8,-70"/>
</g>
<g id="clust2" class="cluster">
<title>cluster_AddressFormModule_declarations</title>
<polygon fill="none" stroke="#000000" points="228,-78 228,-130 642,-130 642,-78 228,-78"/>
</g>
<g id="clust5" class="cluster">
<title>cluster_AddressFormModule_imports</title>
<polygon fill="none" stroke="#000000" points="16,-78 16,-130 220,-130 220,-78 16,-78"/>
</g>
<g id="clust6" class="cluster">
<title>cluster_AddressFormModule_exports</title>
<polygon fill="none" stroke="#000000" points="75,-208 75,-260 497,-260 497,-208 75,-208"/>
</g>
<!-- AddressFormComponent -->
<g id="node1" class="node">
<title>AddressFormComponent</title>
<polygon fill="#ffffb3" stroke="#000000" points="633.5379,-122 476.4621,-122 476.4621,-86 633.5379,-86 633.5379,-122"/>
<text text-anchor="middle" x="555" y="-99.8" font-family="Times,serif" font-size="14.00" fill="#000000">AddressFormComponent</text>
</g>
<!-- AddressFormModule -->
<g id="node3" class="node">
<title>AddressFormModule</title>
<polygon fill="#8dd3c7" stroke="#000000" points="322.7548,-187 319.7548,-191 298.7548,-191 295.7548,-187 187.2452,-187 187.2452,-151 322.7548,-151 322.7548,-187"/>
<text text-anchor="middle" x="255" y="-164.8" font-family="Times,serif" font-size="14.00" fill="#000000">AddressFormModule</text>
</g>
<!-- AddressFormComponent&#45;&gt;AddressFormModule -->
<g id="edge1" class="edge">
<title>AddressFormComponent&#45;&gt;AddressFormModule</title>
<path fill="none" stroke="#000000" d="M482.375,-122.1061C482.375,-141.3391 482.375,-169 482.375,-169 482.375,-169 332.912,-169 332.912,-169"/>
<polygon fill="#000000" stroke="#000000" points="332.912,-165.5001 322.912,-169 332.912,-172.5001 332.912,-165.5001"/>
</g>
<!-- SuggestedAddressDialogComponent -->
<g id="node2" class="node">
<title>SuggestedAddressDialogComponent</title>
<polygon fill="#ffffb3" stroke="#000000" points="458.3528,-122 235.6472,-122 235.6472,-86 458.3528,-86 458.3528,-122"/>
<text text-anchor="middle" x="347" y="-99.8" font-family="Times,serif" font-size="14.00" fill="#000000">SuggestedAddressDialogComponent</text>
</g>
<!-- SuggestedAddressDialogComponent&#45;&gt;AddressFormModule -->
<g id="edge2" class="edge">
<title>SuggestedAddressDialogComponent&#45;&gt;AddressFormModule</title>
<path fill="none" stroke="#000000" d="M279.2255,-122.1061C279.2255,-122.1061 279.2255,-140.991 279.2255,-140.991"/>
<polygon fill="#000000" stroke="#000000" points="275.7255,-140.9909 279.2255,-150.991 282.7255,-140.991 275.7255,-140.9909"/>
</g>
<!-- AddressFormComponent  -->
<g id="node6" class="node">
<title>AddressFormComponent </title>
<polygon fill="#fb8072" stroke="#000000" points="488.5372,-252 327.4628,-252 327.4628,-216 488.5372,-216 488.5372,-252"/>
<text text-anchor="middle" x="408" y="-229.8" font-family="Times,serif" font-size="14.00" fill="#000000">AddressFormComponent </text>
</g>
<!-- AddressFormModule&#45;&gt;AddressFormComponent  -->
<g id="edge5" class="edge">
<title>AddressFormModule&#45;&gt;AddressFormComponent </title>
<path fill="none" stroke="#000000" stroke-dasharray="5,2" d="M316.0268,-187.1061C316.0268,-206.3391 316.0268,-234 316.0268,-234 316.0268,-234 317.3046,-234 317.3046,-234"/>
<polygon fill="#000000" stroke="#000000" points="317.3046,-237.5001 327.3046,-234 317.3045,-230.5001 317.3046,-237.5001"/>
</g>
<!-- SuggestedAddressDialogComponent  -->
<g id="node7" class="node">
<title>SuggestedAddressDialogComponent </title>
<polygon fill="#fb8072" stroke="#000000" points="309.3531,-252 82.6469,-252 82.6469,-216 309.3531,-216 309.3531,-252"/>
<text text-anchor="middle" x="196" y="-229.8" font-family="Times,serif" font-size="14.00" fill="#000000">SuggestedAddressDialogComponent </text>
</g>
<!-- AddressFormModule&#45;&gt;SuggestedAddressDialogComponent  -->
<g id="edge6" class="edge">
<title>AddressFormModule&#45;&gt;SuggestedAddressDialogComponent </title>
<path fill="none" stroke="#000000" stroke-dasharray="5,2" d="M248.1496,-187.1061C248.1496,-187.1061 248.1496,-205.991 248.1496,-205.991"/>
<polygon fill="#000000" stroke="#000000" points="244.6496,-205.9909 248.1496,-215.991 251.6496,-205.991 244.6496,-205.9909"/>
</g>
<!-- I18nModule -->
<g id="node4" class="node">
<title>I18nModule</title>
<polygon fill="#8dd3c7" stroke="#000000" points="211.7107,-122 208.7107,-126 187.7107,-126 184.7107,-122 126.2893,-122 126.2893,-86 211.7107,-86 211.7107,-122"/>
<text text-anchor="middle" x="169" y="-99.8" font-family="Times,serif" font-size="14.00" fill="#000000">I18nModule</text>
</g>
<!-- I18nModule&#45;&gt;AddressFormModule -->
<g id="edge3" class="edge">
<title>I18nModule&#45;&gt;AddressFormModule</title>
<path fill="none" stroke="#000000" d="M199.364,-122.1061C199.364,-122.1061 199.364,-140.991 199.364,-140.991"/>
<polygon fill="#000000" stroke="#000000" points="195.864,-140.9909 199.364,-150.991 202.864,-140.991 195.864,-140.9909"/>
</g>
<!-- IconModule -->
<g id="node5" class="node">
<title>IconModule</title>
<polygon fill="#8dd3c7" stroke="#000000" points="108.4261,-122 105.4261,-126 84.4261,-126 81.4261,-122 23.5739,-122 23.5739,-86 108.4261,-86 108.4261,-122"/>
<text text-anchor="middle" x="66" y="-99.8" font-family="Times,serif" font-size="14.00" fill="#000000">IconModule</text>
</g>
<!-- IconModule&#45;&gt;AddressFormModule -->
<g id="edge4" class="edge">
<title>IconModule&#45;&gt;AddressFormModule</title>
<path fill="none" stroke="#000000" d="M95.518,-122.1061C95.518,-141.3391 95.518,-169 95.518,-169 95.518,-169 176.9027,-169 176.9027,-169"/>
<polygon fill="#000000" stroke="#000000" points="176.9027,-172.5001 186.9027,-169 176.9027,-165.5001 176.9027,-172.5001"/>
</g>
</g>
</svg>
