<?xml version="1.0" encoding="UTF-8" standalone="no"?>
<!DOCTYPE svg PUBLIC "-//W3C//DTD SVG 1.1//EN"
 "http://www.w3.org/Graphics/SVG/1.1/DTD/svg11.dtd">
<!-- Generated by graphviz version 2.47.3 (20210619.1520)
 -->
<!-- Title: dependencies Pages: 1 -->
<svg width="1455pt" height="247pt"
 viewBox="0.00 0.00 1455.00 246.80" xmlns="http://www.w3.org/2000/svg" xmlns:xlink="http://www.w3.org/1999/xlink">
<g id="graph0" class="graph" transform="scale(1 1) rotate(0) translate(4 242.8)">
<title>dependencies</title>
<polygon fill="white" stroke="transparent" points="-4,4 -4,-242.8 1451,-242.8 1451,4 -4,4"/>
<text text-anchor="middle" x="723.5" y="-8.2" font-family="sans-serif" font-size="14.00">dependencies</text>
<g id="clust1" class="cluster">
<title>cluster_ConfiguratorAttributeMultiSelectionBundleModule</title>
<polygon fill="none" stroke="black" stroke-dasharray="1,5" points="8,-32.8 8,-230.8 1439,-230.8 1439,-32.8 8,-32.8"/>
</g>
<g id="clust5" class="cluster">
<title>cluster_ConfiguratorAttributeMultiSelectionBundleModule_exports</title>
<polygon fill="none" stroke="black" points="507,-170.8 507,-222.8 855,-222.8 855,-170.8 507,-170.8"/>
</g>
<g id="clust4" class="cluster">
<title>cluster_ConfiguratorAttributeMultiSelectionBundleModule_imports</title>
<polygon fill="none" stroke="black" points="368,-40.8 368,-92.8 1431,-92.8 1431,-40.8 368,-40.8"/>
</g>
<g id="clust2" class="cluster">
<title>cluster_ConfiguratorAttributeMultiSelectionBundleModule_declarations</title>
<polygon fill="none" stroke="black" points="16,-40.8 16,-92.8 360,-92.8 360,-40.8 16,-40.8"/>
</g>
<!-- ConfiguratorAttributeMultiSelectionBundleComponent -->
<g id="node1" class="node">
<title>ConfiguratorAttributeMultiSelectionBundleComponent</title>
<polygon fill="#ffffb3" stroke="black" points="351.85,-84.8 24.15,-84.8 24.15,-48.8 351.85,-48.8 351.85,-84.8"/>
<text text-anchor="middle" x="188" y="-62.6" font-family="Times,serif" font-size="14.00">ConfiguratorAttributeMultiSelectionBundleComponent</text>
</g>
<!-- ConfiguratorAttributeMultiSelectionBundleModule -->
<g id="node2" class="node">
<title>ConfiguratorAttributeMultiSelectionBundleModule</title>
<polygon fill="#8dd3c7" stroke="black" points="834.06,-149.8 831.06,-153.8 810.06,-153.8 807.06,-149.8 527.94,-149.8 527.94,-113.8 834.06,-113.8 834.06,-149.8"/>
<text text-anchor="middle" x="681" y="-127.6" font-family="Times,serif" font-size="14.00">ConfiguratorAttributeMultiSelectionBundleModule</text>
</g>
<!-- ConfiguratorAttributeMultiSelectionBundleComponent&#45;&gt;ConfiguratorAttributeMultiSelectionBundleModule -->
<g id="edge1" class="edge">
<title>ConfiguratorAttributeMultiSelectionBundleComponent&#45;&gt;ConfiguratorAttributeMultiSelectionBundleModule</title>
<path fill="none" stroke="black" d="M188,-85.08C188,-106.12 188,-137.8 188,-137.8 188,-137.8 517.71,-137.8 517.71,-137.8"/>
<polygon fill="black" stroke="black" points="517.71,-141.3 527.71,-137.8 517.71,-134.3 517.71,-141.3"/>
</g>
<!-- ConfiguratorAttributeMultiSelectionBundleComponent  -->
<g id="node9" class="node">
<title>ConfiguratorAttributeMultiSelectionBundleComponent </title>
<polygon fill="#fb8072" stroke="black" points="846.85,-214.8 515.15,-214.8 515.15,-178.8 846.85,-178.8 846.85,-214.8"/>
<text text-anchor="middle" x="681" y="-192.6" font-family="Times,serif" font-size="14.00">ConfiguratorAttributeMultiSelectionBundleComponent </text>
</g>
<!-- ConfiguratorAttributeMultiSelectionBundleModule&#45;&gt;ConfiguratorAttributeMultiSelectionBundleComponent  -->
<g id="edge8" class="edge">
<title>ConfiguratorAttributeMultiSelectionBundleModule&#45;&gt;ConfiguratorAttributeMultiSelectionBundleComponent </title>
<path fill="none" stroke="black" stroke-dasharray="5,2" d="M681,-149.91C681,-149.91 681,-168.79 681,-168.79"/>
<polygon fill="black" stroke="black" points="677.5,-168.79 681,-178.79 684.5,-168.79 677.5,-168.79"/>
</g>
<!-- ConfiguratorAttributeProductCardModule -->
<g id="node3" class="node">
<title>ConfiguratorAttributeProductCardModule</title>
<polygon fill="#8dd3c7" stroke="black" points="1422.67,-84.8 1419.67,-88.8 1398.67,-88.8 1395.67,-84.8 1169.33,-84.8 1169.33,-48.8 1422.67,-48.8 1422.67,-84.8"/>
<text text-anchor="middle" x="1296" y="-62.6" font-family="Times,serif" font-size="14.00">ConfiguratorAttributeProductCardModule</text>
</g>
<!-- ConfiguratorAttributeProductCardModule&#45;&gt;ConfiguratorAttributeMultiSelectionBundleModule -->
<g id="edge2" class="edge">
<title>ConfiguratorAttributeProductCardModule&#45;&gt;ConfiguratorAttributeMultiSelectionBundleModule</title>
<path fill="none" stroke="black" d="M1296,-85.08C1296,-106.12 1296,-137.8 1296,-137.8 1296,-137.8 844.21,-137.8 844.21,-137.8"/>
<polygon fill="black" stroke="black" points="844.21,-134.3 834.21,-137.8 844.21,-141.3 844.21,-134.3"/>
</g>
<!-- ConfiguratorAttributeQuantityModule -->
<g id="node4" class="node">
<title>ConfiguratorAttributeQuantityModule</title>
<polygon fill="#8dd3c7" stroke="black" points="1151.9,-84.8 1148.9,-88.8 1127.9,-88.8 1124.9,-84.8 920.1,-84.8 920.1,-48.8 1151.9,-48.8 1151.9,-84.8"/>
<text text-anchor="middle" x="1036" y="-62.6" font-family="Times,serif" font-size="14.00">ConfiguratorAttributeQuantityModule</text>
</g>
<!-- ConfiguratorAttributeQuantityModule&#45;&gt;ConfiguratorAttributeMultiSelectionBundleModule -->
<g id="edge3" class="edge">
<title>ConfiguratorAttributeQuantityModule&#45;&gt;ConfiguratorAttributeMultiSelectionBundleModule</title>
<path fill="none" stroke="black" d="M1036,-84.82C1036,-102.17 1036,-125.8 1036,-125.8 1036,-125.8 844.13,-125.8 844.13,-125.8"/>
<polygon fill="black" stroke="black" points="844.13,-122.3 834.13,-125.8 844.13,-129.3 844.13,-122.3"/>
</g>
<!-- ConfiguratorPriceModule -->
<g id="node5" class="node">
<title>ConfiguratorPriceModule</title>
<polygon fill="#8dd3c7" stroke="black" points="902.13,-84.8 899.13,-88.8 878.13,-88.8 875.13,-84.8 741.87,-84.8 741.87,-48.8 902.13,-48.8 902.13,-84.8"/>
<text text-anchor="middle" x="822" y="-62.6" font-family="Times,serif" font-size="14.00">ConfiguratorPriceModule</text>
</g>
<!-- ConfiguratorPriceModule&#45;&gt;ConfiguratorAttributeMultiSelectionBundleModule -->
<g id="edge4" class="edge">
<title>ConfiguratorPriceModule&#45;&gt;ConfiguratorAttributeMultiSelectionBundleModule</title>
<path fill="none" stroke="black" d="M787.86,-84.91C787.86,-84.91 787.86,-103.79 787.86,-103.79"/>
<polygon fill="black" stroke="black" points="784.36,-103.79 787.86,-113.79 791.36,-103.79 784.36,-103.79"/>
</g>
<!-- I18nModule -->
<g id="node6" class="node">
<title>I18nModule</title>
<polygon fill="#8dd3c7" stroke="black" points="723.71,-84.8 720.71,-88.8 699.71,-88.8 696.71,-84.8 638.29,-84.8 638.29,-48.8 723.71,-48.8 723.71,-84.8"/>
<text text-anchor="middle" x="681" y="-62.6" font-family="Times,serif" font-size="14.00">I18nModule</text>
</g>
<!-- I18nModule&#45;&gt;ConfiguratorAttributeMultiSelectionBundleModule -->
<g id="edge5" class="edge">
<title>I18nModule&#45;&gt;ConfiguratorAttributeMultiSelectionBundleModule</title>
<path fill="none" stroke="black" d="M681,-84.91C681,-84.91 681,-103.79 681,-103.79"/>
<polygon fill="black" stroke="black" points="677.5,-103.79 681,-113.79 684.5,-103.79 677.5,-103.79"/>
</g>
<!-- KeyboardFocusModule -->
<g id="node7" class="node">
<title>KeyboardFocusModule</title>
<polygon fill="#8dd3c7" stroke="black" points="620.19,-84.8 617.19,-88.8 596.19,-88.8 593.19,-84.8 471.81,-84.8 471.81,-48.8 620.19,-48.8 620.19,-84.8"/>
<text text-anchor="middle" x="546" y="-62.6" font-family="Times,serif" font-size="14.00">KeyboardFocusModule</text>
</g>
<!-- KeyboardFocusModule&#45;&gt;ConfiguratorAttributeMultiSelectionBundleModule -->
<g id="edge6" class="edge">
<title>KeyboardFocusModule&#45;&gt;ConfiguratorAttributeMultiSelectionBundleModule</title>
<path fill="none" stroke="black" d="M574.03,-84.91C574.03,-84.91 574.03,-103.79 574.03,-103.79"/>
<polygon fill="black" stroke="black" points="570.53,-103.79 574.03,-113.79 577.53,-103.79 570.53,-103.79"/>
</g>
<!-- UrlModule -->
<g id="node8" class="node">
<title>UrlModule</title>
<polygon fill="#8dd3c7" stroke="black" points="454.21,-84.8 451.21,-88.8 430.21,-88.8 427.21,-84.8 375.79,-84.8 375.79,-48.8 454.21,-48.8 454.21,-84.8"/>
<text text-anchor="middle" x="415" y="-62.6" font-family="Times,serif" font-size="14.00">UrlModule</text>
</g>
<!-- UrlModule&#45;&gt;ConfiguratorAttributeMultiSelectionBundleModule -->
<g id="edge7" class="edge">
<title>UrlModule&#45;&gt;ConfiguratorAttributeMultiSelectionBundleModule</title>
<path fill="none" stroke="black" d="M415,-84.82C415,-102.17 415,-125.8 415,-125.8 415,-125.8 517.81,-125.8 517.81,-125.8"/>
<polygon fill="black" stroke="black" points="517.81,-129.3 527.81,-125.8 517.81,-122.3 517.81,-129.3"/>
</g>
</g>
</svg>
