<?xml version="1.0" encoding="UTF-8" standalone="no"?>
<!DOCTYPE svg PUBLIC "-//W3C//DTD SVG 1.1//EN"
 "http://www.w3.org/Graphics/SVG/1.1/DTD/svg11.dtd">
<!-- Generated by graphviz version 2.47.3 (20210619.1520)
 -->
<!-- Title: dependencies Pages: 1 -->
<svg width="498pt" height="174pt"
 viewBox="0.00 0.00 498.00 173.80" xmlns="http://www.w3.org/2000/svg" xmlns:xlink="http://www.w3.org/1999/xlink">
<g id="graph0" class="graph" transform="scale(1 1) rotate(0) translate(4 169.8)">
<title>dependencies</title>
<polygon fill="white" stroke="transparent" points="-4,4 -4,-169.8 494,-169.8 494,4 -4,4"/>
<text text-anchor="middle" x="245" y="-8.2" font-family="sans-serif" font-size="14.00">dependencies</text>
<g id="clust1" class="cluster">
<title>cluster_CartModule</title>
<polygon fill="none" stroke="black" stroke-dasharray="1,5" points="8,-32.8 8,-157.8 482,-157.8 482,-32.8 8,-32.8"/>
</g>
<g id="clust3" class="cluster">
<title>cluster_CartModule_imports</title>
<polygon fill="none" stroke="black" points="16,-40.8 16,-92.8 474,-92.8 474,-40.8 16,-40.8"/>
</g>
<!-- CartEventModule -->
<g id="node1" class="node">
<title>CartEventModule</title>
<polygon fill="#8dd3c7" stroke="black" points="466.31,-84.8 463.31,-88.8 442.31,-88.8 439.31,-84.8 349.69,-84.8 349.69,-48.8 466.31,-48.8 466.31,-84.8"/>
<text text-anchor="middle" x="408" y="-62.6" font-family="Times,serif" font-size="14.00">CartEventModule</text>
</g>
<!-- CartModule -->
<g id="node4" class="node">
<title>CartModule</title>
<polygon fill="#8dd3c7" stroke="black" points="300.65,-149.8 297.65,-153.8 276.65,-153.8 273.65,-149.8 217.35,-149.8 217.35,-113.8 300.65,-113.8 300.65,-149.8"/>
<text text-anchor="middle" x="259" y="-127.6" font-family="Times,serif" font-size="14.00">CartModule</text>
</g>
<!-- CartEventModule&#45;&gt;CartModule -->
<g id="edge1" class="edge">
<title>CartEventModule&#45;&gt;CartModule</title>
<path fill="none" stroke="black" d="M408,-84.91C408,-104.14 408,-131.8 408,-131.8 408,-131.8 310.9,-131.8 310.9,-131.8"/>
<polygon fill="black" stroke="black" points="310.9,-128.3 300.9,-131.8 310.9,-135.3 310.9,-128.3"/>
</g>
<!-- CartPersistenceModule -->
<g id="node2" class="node">
<title>CartPersistenceModule</title>
<polygon fill="#8dd3c7" stroke="black" points="332.12,-84.8 329.12,-88.8 308.12,-88.8 305.12,-84.8 185.88,-84.8 185.88,-48.8 332.12,-48.8 332.12,-84.8"/>
<text text-anchor="middle" x="259" y="-62.6" font-family="Times,serif" font-size="14.00">CartPersistenceModule</text>
</g>
<!-- CartPersistenceModule&#45;&gt;CartModule -->
<g id="edge2" class="edge">
<title>CartPersistenceModule&#45;&gt;CartModule</title>
<path fill="none" stroke="black" d="M259,-84.91C259,-84.91 259,-103.79 259,-103.79"/>
<polygon fill="black" stroke="black" points="255.5,-103.79 259,-113.79 262.5,-103.79 255.5,-103.79"/>
</g>
<!-- MultiCartStoreModule -->
<g id="node3" class="node">
<title>MultiCartStoreModule</title>
<polygon fill="#8dd3c7" stroke="black" points="168.32,-84.8 165.32,-88.8 144.32,-88.8 141.32,-84.8 23.68,-84.8 23.68,-48.8 168.32,-48.8 168.32,-84.8"/>
<text text-anchor="middle" x="96" y="-62.6" font-family="Times,serif" font-size="14.00">MultiCartStoreModule</text>
</g>
<!-- MultiCartStoreModule&#45;&gt;CartModule -->
<g id="edge3" class="edge">
<title>MultiCartStoreModule&#45;&gt;CartModule</title>
<path fill="none" stroke="black" d="M96,-84.91C96,-104.14 96,-131.8 96,-131.8 96,-131.8 207.02,-131.8 207.02,-131.8"/>
<polygon fill="black" stroke="black" points="207.02,-135.3 217.02,-131.8 207.02,-128.3 207.02,-135.3"/>
</g>
</g>
</svg>
