<?xml version="1.0" encoding="UTF-8" standalone="no"?>
<!DOCTYPE svg PUBLIC "-//W3C//DTD SVG 1.1//EN"
 "http://www.w3.org/Graphics/SVG/1.1/DTD/svg11.dtd">
<!-- Generated by graphviz version 2.40.1 (20161225.0304)
 -->
<!-- Title: dependencies Pages: 1 -->
<svg width="504pt" height="211pt"
 viewBox="0.00 0.00 504.00 211.00" xmlns="http://www.w3.org/2000/svg" xmlns:xlink="http://www.w3.org/1999/xlink">
<g id="graph0" class="graph" transform="scale(1 1) rotate(0) translate(4 207)">
<title>dependencies</title>
<polygon fill="#ffffff" stroke="transparent" points="-4,4 -4,-207 500,-207 500,4 -4,4"/>
<text text-anchor="start" x="227.0091" y="-42.4" font-family="sans-serif" font-weight="bold" font-size="14.00" fill="#000000">Legend</text>
<polygon fill="#ffffb3" stroke="transparent" points="14,-10 14,-30 34,-30 34,-10 14,-10"/>
<text text-anchor="start" x="37.629" y="-15.4" font-family="sans-serif" font-size="14.00" fill="#000000"> &#160;Declarations</text>
<polygon fill="#8dd3c7" stroke="transparent" points="127,-10 127,-30 147,-30 147,-10 127,-10"/>
<text text-anchor="start" x="150.7251" y="-15.4" font-family="sans-serif" font-size="14.00" fill="#000000"> &#160;Module</text>
<polygon fill="#80b1d3" stroke="transparent" points="213,-10 213,-30 233,-30 233,-10 213,-10"/>
<text text-anchor="start" x="236.7812" y="-15.4" font-family="sans-serif" font-size="14.00" fill="#000000"> &#160;Bootstrap</text>
<polygon fill="#fdb462" stroke="transparent" points="310,-10 310,-30 330,-30 330,-10 310,-10"/>
<text text-anchor="start" x="333.6732" y="-15.4" font-family="sans-serif" font-size="14.00" fill="#000000"> &#160;Providers</text>
<polygon fill="#fb8072" stroke="transparent" points="406,-10 406,-30 426,-30 426,-10 406,-10"/>
<text text-anchor="start" x="429.7258" y="-15.4" font-family="sans-serif" font-size="14.00" fill="#000000"> &#160;Exports</text>
<g id="clust1" class="cluster">
<title>cluster_CartModule</title>
<polygon fill="none" stroke="#000000" stroke-dasharray="1,5" points="11,-70 11,-195 485,-195 485,-70 11,-70"/>
</g>
<g id="clust3" class="cluster">
<title>cluster_CartModule_imports</title>
<polygon fill="none" stroke="#000000" points="19,-78 19,-130 477,-130 477,-78 19,-78"/>
</g>
<!-- CartEventModule -->
<g id="node1" class="node">
<title>CartEventModule</title>
<polygon fill="#8dd3c7" stroke="#000000" points="469.3104,-122 466.3104,-126 445.3104,-126 442.3104,-122 352.6896,-122 352.6896,-86 469.3104,-86 469.3104,-122"/>
<text text-anchor="middle" x="411" y="-99.8" font-family="Times,serif" font-size="14.00" fill="#000000">CartEventModule</text>
</g>
<!-- CartModule -->
<g id="node4" class="node">
<title>CartModule</title>
<polygon fill="#8dd3c7" stroke="#000000" points="303.6529,-187 300.6529,-191 279.6529,-191 276.6529,-187 220.3471,-187 220.3471,-151 303.6529,-151 303.6529,-187"/>
<text text-anchor="middle" x="262" y="-164.8" font-family="Times,serif" font-size="14.00" fill="#000000">CartModule</text>
</g>
<!-- CartEventModule&#45;&gt;CartModule -->
<g id="edge1" class="edge">
<title>CartEventModule&#45;&gt;CartModule</title>
<path fill="none" stroke="#000000" d="M411,-122.1061C411,-141.3391 411,-169 411,-169 411,-169 313.9013,-169 313.9013,-169"/>
<polygon fill="#000000" stroke="#000000" points="313.9014,-165.5001 303.9013,-169 313.9013,-172.5001 313.9014,-165.5001"/>
</g>
<!-- CartPersistenceModule -->
<g id="node2" class="node">
<title>CartPersistenceModule</title>
<polygon fill="#8dd3c7" stroke="#000000" points="335.1247,-122 332.1247,-126 311.1247,-126 308.1247,-122 188.8753,-122 188.8753,-86 335.1247,-86 335.1247,-122"/>
<text text-anchor="middle" x="262" y="-99.8" font-family="Times,serif" font-size="14.00" fill="#000000">CartPersistenceModule</text>
</g>
<!-- CartPersistenceModule&#45;&gt;CartModule -->
<g id="edge2" class="edge">
<title>CartPersistenceModule&#45;&gt;CartModule</title>
<path fill="none" stroke="#000000" d="M262,-122.1061C262,-122.1061 262,-140.991 262,-140.991"/>
<polygon fill="#000000" stroke="#000000" points="258.5001,-140.9909 262,-150.991 265.5001,-140.991 258.5001,-140.9909"/>
</g>
<!-- MultiCartStoreModule -->
<g id="node3" class="node">
<title>MultiCartStoreModule</title>
<polygon fill="#8dd3c7" stroke="#000000" points="171.3173,-122 168.3173,-126 147.3173,-126 144.3173,-122 26.6827,-122 26.6827,-86 171.3173,-86 171.3173,-122"/>
<text text-anchor="middle" x="99" y="-99.8" font-family="Times,serif" font-size="14.00" fill="#000000">MultiCartStoreModule</text>
</g>
<!-- MultiCartStoreModule&#45;&gt;CartModule -->
<g id="edge3" class="edge">
<title>MultiCartStoreModule&#45;&gt;CartModule</title>
<path fill="none" stroke="#000000" d="M99,-122.1061C99,-141.3391 99,-169 99,-169 99,-169 210.0234,-169 210.0234,-169"/>
<polygon fill="#000000" stroke="#000000" points="210.0235,-172.5001 220.0234,-169 210.0234,-165.5001 210.0235,-172.5001"/>
</g>
</g>
</svg>
