<?xml version="1.0" encoding="UTF-8" standalone="no"?>
<!DOCTYPE svg PUBLIC "-//W3C//DTD SVG 1.1//EN"
 "http://www.w3.org/Graphics/SVG/1.1/DTD/svg11.dtd">
<!-- Generated by graphviz version 2.40.1 (20161225.0304)
 -->
<!-- Title: dependencies Pages: 1 -->
<svg width="726pt" height="323pt"
 viewBox="0.00 0.00 726.00 322.59" xmlns="http://www.w3.org/2000/svg" xmlns:xlink="http://www.w3.org/1999/xlink">
<g id="graph0" class="graph" transform="scale(1 1) rotate(0) translate(4 318.5901)">
<title>dependencies</title>
<polygon fill="#ffffff" stroke="transparent" points="-4,4 -4,-318.5901 722,-318.5901 722,4 -4,4"/>
<text text-anchor="start" x="338.0091" y="-42.4" font-family="sans-serif" font-weight="bold" font-size="14.00" fill="#000000">Legend</text>
<polygon fill="#ffffb3" stroke="transparent" points="125,-10 125,-30 145,-30 145,-10 125,-10"/>
<text text-anchor="start" x="148.629" y="-15.4" font-family="sans-serif" font-size="14.00" fill="#000000"> &#160;Declarations</text>
<polygon fill="#8dd3c7" stroke="transparent" points="238,-10 238,-30 258,-30 258,-10 238,-10"/>
<text text-anchor="start" x="261.7251" y="-15.4" font-family="sans-serif" font-size="14.00" fill="#000000"> &#160;Module</text>
<polygon fill="#80b1d3" stroke="transparent" points="324,-10 324,-30 344,-30 344,-10 324,-10"/>
<text text-anchor="start" x="347.7812" y="-15.4" font-family="sans-serif" font-size="14.00" fill="#000000"> &#160;Bootstrap</text>
<polygon fill="#fdb462" stroke="transparent" points="421,-10 421,-30 441,-30 441,-10 421,-10"/>
<text text-anchor="start" x="444.6732" y="-15.4" font-family="sans-serif" font-size="14.00" fill="#000000"> &#160;Providers</text>
<polygon fill="#fb8072" stroke="transparent" points="517,-10 517,-30 537,-30 537,-10 517,-10"/>
<text text-anchor="start" x="540.7258" y="-15.4" font-family="sans-serif" font-size="14.00" fill="#000000"> &#160;Exports</text>
<g id="clust1" class="cluster">
<title>cluster_UnitUserRolesModule</title>
<polygon fill="none" stroke="#000000" stroke-dasharray="1,5" points="8,-70 8,-306.5901 710,-306.5901 710,-70 8,-70"/>
</g>
<g id="clust2" class="cluster">
<title>cluster_UnitUserRolesModule_declarations</title>
<polygon fill="none" stroke="#000000" points="492,-189.5901 492,-241.5901 702,-241.5901 702,-189.5901 492,-189.5901"/>
</g>
<g id="clust3" class="cluster">
<title>cluster_UnitUserRolesModule_UnitUserRolesFormComponent_providers</title>
<polygon fill="none" stroke="#000000" points="146,-78 146,-176.5901 702,-176.5901 702,-78 146,-78"/>
</g>
<g id="clust4" class="cluster">
<title>cluster_UnitUserRolesModule_imports</title>
<polygon fill="none" stroke="#000000" points="16,-189.5901 16,-241.5901 484,-241.5901 484,-189.5901 16,-189.5901"/>
</g>
<!-- UnitUserRolesFormComponent -->
<g id="node1" class="node">
<title>UnitUserRolesFormComponent</title>
<polygon fill="#ffffb3" stroke="#000000" points="694.3668,-233.5901 499.6332,-233.5901 499.6332,-197.5901 694.3668,-197.5901 694.3668,-233.5901"/>
<text text-anchor="middle" x="597" y="-211.3901" font-family="Times,serif" font-size="14.00" fill="#000000">UnitUserRolesFormComponent</text>
</g>
<!-- UnitUserRolesModule -->
<g id="node2" class="node">
<title>UnitUserRolesModule</title>
<polygon fill="#8dd3c7" stroke="#000000" points="400.2506,-298.5901 397.2506,-302.5901 376.2506,-302.5901 373.2506,-298.5901 257.7494,-298.5901 257.7494,-262.5901 400.2506,-262.5901 400.2506,-298.5901"/>
<text text-anchor="middle" x="329" y="-276.3901" font-family="Times,serif" font-size="14.00" fill="#000000">UnitUserRolesModule</text>
</g>
<!-- UnitUserRolesFormComponent&#45;&gt;UnitUserRolesModule -->
<g id="edge1" class="edge">
<title>UnitUserRolesFormComponent&#45;&gt;UnitUserRolesModule</title>
<path fill="none" stroke="#000000" d="M597,-233.6962C597,-252.9292 597,-280.5901 597,-280.5901 597,-280.5901 410.467,-280.5901 410.467,-280.5901"/>
<polygon fill="#000000" stroke="#000000" points="410.4671,-277.0902 400.467,-280.5901 410.467,-284.0902 410.4671,-277.0902"/>
</g>
<!-- {
 &#160;&#160;&#160;provide: ItemService, useExisting: UnitUserRolesItemService,
} -->
<g id="node3" class="node">
<title>{
 &#160;&#160;&#160;provide: ItemService, useExisting: UnitUserRolesItemService,
}</title>
<ellipse fill="#fdb462" stroke="#000000" cx="424" cy="-127.295" rx="270.0087" ry="41.0911"/>
<text text-anchor="middle" x="424" y="-139.895" font-family="Times,serif" font-size="14.00" fill="#000000">{</text>
<text text-anchor="middle" x="424" y="-123.095" font-family="Times,serif" font-size="14.00" fill="#000000"> &#160;&#160;&#160;provide: ItemService, useExisting: UnitUserRolesItemService,</text>
<text text-anchor="middle" x="424" y="-106.295" font-family="Times,serif" font-size="14.00" fill="#000000">}</text>
</g>
<!-- {
 &#160;&#160;&#160;provide: ItemService, useExisting: UnitUserRolesItemService,
}&#45;&gt;UnitUserRolesFormComponent -->
<g id="edge2" class="edge">
<title>{
 &#160;&#160;&#160;provide: ItemService, useExisting: UnitUserRolesItemService,
}&#45;&gt;UnitUserRolesFormComponent</title>
<path fill="none" stroke="#000000" d="M596.7855,-159.1716C596.7855,-159.1716 596.7855,-187.3756 596.7855,-187.3756"/>
<polygon fill="#000000" stroke="#000000" points="593.2856,-187.3756 596.7855,-197.3756 600.2856,-187.3756 593.2856,-187.3756"/>
</g>
<!-- CardModule -->
<g id="node4" class="node">
<title>CardModule</title>
<polygon fill="#8dd3c7" stroke="#000000" points="476.2619,-233.5901 473.2619,-237.5901 452.2619,-237.5901 449.2619,-233.5901 389.7381,-233.5901 389.7381,-197.5901 476.2619,-197.5901 476.2619,-233.5901"/>
<text text-anchor="middle" x="433" y="-211.3901" font-family="Times,serif" font-size="14.00" fill="#000000">CardModule</text>
</g>
<!-- CardModule&#45;&gt;UnitUserRolesModule -->
<g id="edge3" class="edge">
<title>CardModule&#45;&gt;UnitUserRolesModule</title>
<path fill="none" stroke="#000000" d="M394.9972,-233.6962C394.9972,-233.6962 394.9972,-252.581 394.9972,-252.581"/>
<polygon fill="#000000" stroke="#000000" points="391.4973,-252.581 394.9972,-262.581 398.4973,-252.5811 391.4973,-252.581"/>
</g>
<!-- I18nModule -->
<g id="node5" class="node">
<title>I18nModule</title>
<polygon fill="#8dd3c7" stroke="#000000" points="371.7107,-233.5901 368.7107,-237.5901 347.7107,-237.5901 344.7107,-233.5901 286.2893,-233.5901 286.2893,-197.5901 371.7107,-197.5901 371.7107,-233.5901"/>
<text text-anchor="middle" x="329" y="-211.3901" font-family="Times,serif" font-size="14.00" fill="#000000">I18nModule</text>
</g>
<!-- I18nModule&#45;&gt;UnitUserRolesModule -->
<g id="edge4" class="edge">
<title>I18nModule&#45;&gt;UnitUserRolesModule</title>
<path fill="none" stroke="#000000" d="M329,-233.6962C329,-233.6962 329,-252.581 329,-252.581"/>
<polygon fill="#000000" stroke="#000000" points="325.5001,-252.581 329,-262.581 332.5001,-252.5811 325.5001,-252.581"/>
</g>
<!-- KeyboardFocusModule -->
<g id="node6" class="node">
<title>KeyboardFocusModule</title>
<polygon fill="#8dd3c7" stroke="#000000" points="268.1881,-233.5901 265.1881,-237.5901 244.1881,-237.5901 241.1881,-233.5901 119.8119,-233.5901 119.8119,-197.5901 268.1881,-197.5901 268.1881,-233.5901"/>
<text text-anchor="middle" x="194" y="-211.3901" font-family="Times,serif" font-size="14.00" fill="#000000">KeyboardFocusModule</text>
</g>
<!-- KeyboardFocusModule&#45;&gt;UnitUserRolesModule -->
<g id="edge5" class="edge">
<title>KeyboardFocusModule&#45;&gt;UnitUserRolesModule</title>
<path fill="none" stroke="#000000" d="M262.8594,-233.6962C262.8594,-233.6962 262.8594,-252.581 262.8594,-252.581"/>
<polygon fill="#000000" stroke="#000000" points="259.3595,-252.581 262.8594,-262.581 266.3595,-252.5811 259.3595,-252.581"/>
</g>
<!-- UrlModule -->
<g id="node7" class="node">
<title>UrlModule</title>
<polygon fill="#8dd3c7" stroke="#000000" points="102.2079,-233.5901 99.2079,-237.5901 78.2079,-237.5901 75.2079,-233.5901 23.7921,-233.5901 23.7921,-197.5901 102.2079,-197.5901 102.2079,-233.5901"/>
<text text-anchor="middle" x="63" y="-211.3901" font-family="Times,serif" font-size="14.00" fill="#000000">UrlModule</text>
</g>
<!-- UrlModule&#45;&gt;UnitUserRolesModule -->
<g id="edge6" class="edge">
<title>UrlModule&#45;&gt;UnitUserRolesModule</title>
<path fill="none" stroke="#000000" d="M63,-233.6962C63,-252.9292 63,-280.5901 63,-280.5901 63,-280.5901 247.7169,-280.5901 247.7169,-280.5901"/>
<polygon fill="#000000" stroke="#000000" points="247.7169,-284.0902 257.7169,-280.5901 247.7168,-277.0902 247.7169,-284.0902"/>
</g>
</g>
</svg>
