<?xml version="1.0" encoding="UTF-8" standalone="no"?>
<!DOCTYPE svg PUBLIC "-//W3C//DTD SVG 1.1//EN"
 "http://www.w3.org/Graphics/SVG/1.1/DTD/svg11.dtd">
<!-- Generated by graphviz version 2.40.1 (20161225.0304)
 -->
<!-- Title: dependencies Pages: 1 -->
<svg width="596pt" height="323pt"
 viewBox="0.00 0.00 596.00 322.59" xmlns="http://www.w3.org/2000/svg" xmlns:xlink="http://www.w3.org/1999/xlink">
<g id="graph0" class="graph" transform="scale(1 1) rotate(0) translate(4 318.5901)">
<title>dependencies</title>
<polygon fill="#ffffff" stroke="transparent" points="-4,4 -4,-318.5901 592,-318.5901 592,4 -4,4"/>
<text text-anchor="start" x="273.0091" y="-42.4" font-family="sans-serif" font-weight="bold" font-size="14.00" fill="#000000">Legend</text>
<polygon fill="#ffffb3" stroke="transparent" points="60,-10 60,-30 80,-30 80,-10 60,-10"/>
<text text-anchor="start" x="83.629" y="-15.4" font-family="sans-serif" font-size="14.00" fill="#000000"> &#160;Declarations</text>
<polygon fill="#8dd3c7" stroke="transparent" points="173,-10 173,-30 193,-30 193,-10 173,-10"/>
<text text-anchor="start" x="196.7251" y="-15.4" font-family="sans-serif" font-size="14.00" fill="#000000"> &#160;Module</text>
<polygon fill="#80b1d3" stroke="transparent" points="259,-10 259,-30 279,-30 279,-10 259,-10"/>
<text text-anchor="start" x="282.7812" y="-15.4" font-family="sans-serif" font-size="14.00" fill="#000000"> &#160;Bootstrap</text>
<polygon fill="#fdb462" stroke="transparent" points="356,-10 356,-30 376,-30 376,-10 356,-10"/>
<text text-anchor="start" x="379.6732" y="-15.4" font-family="sans-serif" font-size="14.00" fill="#000000"> &#160;Providers</text>
<polygon fill="#fb8072" stroke="transparent" points="452,-10 452,-30 472,-30 472,-10 452,-10"/>
<text text-anchor="start" x="475.7258" y="-15.4" font-family="sans-serif" font-size="14.00" fill="#000000"> &#160;Exports</text>
<g id="clust1" class="cluster">
<title>cluster_UnitUserRolesModule</title>
<polygon fill="none" stroke="#000000" stroke-dasharray="1,5" points="8,-70 8,-306.5901 580,-306.5901 580,-70 8,-70"/>
</g>
<g id="clust2" class="cluster">
<title>cluster_UnitUserRolesModule_declarations</title>
<polygon fill="none" stroke="#000000" points="326,-189.5901 326,-241.5901 536,-241.5901 536,-189.5901 326,-189.5901"/>
</g>
<g id="clust3" class="cluster">
<title>cluster_UnitUserRolesModule_UnitUserRolesFormComponent_providers</title>
<polygon fill="none" stroke="#000000" points="16,-78 16,-176.5901 572,-176.5901 572,-78 16,-78"/>
</g>
<g id="clust4" class="cluster">
<title>cluster_UnitUserRolesModule_imports</title>
<polygon fill="none" stroke="#000000" points="16,-189.5901 16,-241.5901 318,-241.5901 318,-189.5901 16,-189.5901"/>
</g>
<!-- UnitUserRolesFormComponent -->
<g id="node1" class="node">
<title>UnitUserRolesFormComponent</title>
<polygon fill="#ffffb3" stroke="#000000" points="528.3668,-233.5901 333.6332,-233.5901 333.6332,-197.5901 528.3668,-197.5901 528.3668,-233.5901"/>
<text text-anchor="middle" x="431" y="-211.3901" font-family="Times,serif" font-size="14.00" fill="#000000">UnitUserRolesFormComponent</text>
</g>
<!-- UnitUserRolesModule -->
<g id="node2" class="node">
<title>UnitUserRolesModule</title>
<polygon fill="#8dd3c7" stroke="#000000" points="286.2506,-298.5901 283.2506,-302.5901 262.2506,-302.5901 259.2506,-298.5901 143.7494,-298.5901 143.7494,-262.5901 286.2506,-262.5901 286.2506,-298.5901"/>
<text text-anchor="middle" x="215" y="-276.3901" font-family="Times,serif" font-size="14.00" fill="#000000">UnitUserRolesModule</text>
</g>
<!-- UnitUserRolesFormComponent&#45;&gt;UnitUserRolesModule -->
<g id="edge1" class="edge">
<title>UnitUserRolesFormComponent&#45;&gt;UnitUserRolesModule</title>
<path fill="none" stroke="#000000" d="M431,-233.6962C431,-252.9292 431,-280.5901 431,-280.5901 431,-280.5901 296.3251,-280.5901 296.3251,-280.5901"/>
<polygon fill="#000000" stroke="#000000" points="296.3251,-277.0902 286.3251,-280.5901 296.3251,-284.0902 296.3251,-277.0902"/>
</g>
<!-- {
 &#160;&#160;&#160;provide: ItemService, useExisting: UnitUserRolesItemService,
} -->
<g id="node3" class="node">
<title>{
 &#160;&#160;&#160;provide: ItemService, useExisting: UnitUserRolesItemService,
}</title>
<ellipse fill="#fdb462" stroke="#000000" cx="294" cy="-127.295" rx="270.0087" ry="41.0911"/>
<text text-anchor="middle" x="294" y="-139.895" font-family="Times,serif" font-size="14.00" fill="#000000">{</text>
<text text-anchor="middle" x="294" y="-123.095" font-family="Times,serif" font-size="14.00" fill="#000000"> &#160;&#160;&#160;provide: ItemService, useExisting: UnitUserRolesItemService,</text>
<text text-anchor="middle" x="294" y="-106.295" font-family="Times,serif" font-size="14.00" fill="#000000">}</text>
</g>
<!-- {
 &#160;&#160;&#160;provide: ItemService, useExisting: UnitUserRolesItemService,
}&#45;&gt;UnitUserRolesFormComponent -->
<g id="edge2" class="edge">
<title>{
 &#160;&#160;&#160;provide: ItemService, useExisting: UnitUserRolesItemService,
}&#45;&gt;UnitUserRolesFormComponent</title>
<path fill="none" stroke="#000000" d="M431,-162.9535C431,-162.9535 431,-187.5059 431,-187.5059"/>
<polygon fill="#000000" stroke="#000000" points="427.5001,-187.5058 431,-197.5059 434.5001,-187.5059 427.5001,-187.5058"/>
</g>
<!-- CardModule -->
<g id="node4" class="node">
<title>CardModule</title>
<polygon fill="#8dd3c7" stroke="#000000" points="310.2619,-233.5901 307.2619,-237.5901 286.2619,-237.5901 283.2619,-233.5901 223.7381,-233.5901 223.7381,-197.5901 310.2619,-197.5901 310.2619,-233.5901"/>
<text text-anchor="middle" x="267" y="-211.3901" font-family="Times,serif" font-size="14.00" fill="#000000">CardModule</text>
</g>
<!-- CardModule&#45;&gt;UnitUserRolesModule -->
<g id="edge3" class="edge">
<title>CardModule&#45;&gt;UnitUserRolesModule</title>
<path fill="none" stroke="#000000" d="M254.9972,-233.6962C254.9972,-233.6962 254.9972,-252.581 254.9972,-252.581"/>
<polygon fill="#000000" stroke="#000000" points="251.4973,-252.581 254.9972,-262.581 258.4973,-252.5811 251.4973,-252.581"/>
</g>
<!-- I18nModule -->
<g id="node5" class="node">
<title>I18nModule</title>
<polygon fill="#8dd3c7" stroke="#000000" points="205.7107,-233.5901 202.7107,-237.5901 181.7107,-237.5901 178.7107,-233.5901 120.2893,-233.5901 120.2893,-197.5901 205.7107,-197.5901 205.7107,-233.5901"/>
<text text-anchor="middle" x="163" y="-211.3901" font-family="Times,serif" font-size="14.00" fill="#000000">I18nModule</text>
</g>
<!-- I18nModule&#45;&gt;UnitUserRolesModule -->
<g id="edge4" class="edge">
<title>I18nModule&#45;&gt;UnitUserRolesModule</title>
<path fill="none" stroke="#000000" d="M174.615,-233.6962C174.615,-233.6962 174.615,-252.581 174.615,-252.581"/>
<polygon fill="#000000" stroke="#000000" points="171.1151,-252.581 174.615,-262.581 178.1151,-252.5811 171.1151,-252.581"/>
</g>
<!-- UrlModule -->
<g id="node6" class="node">
<title>UrlModule</title>
<polygon fill="#8dd3c7" stroke="#000000" points="102.2079,-233.5901 99.2079,-237.5901 78.2079,-237.5901 75.2079,-233.5901 23.7921,-233.5901 23.7921,-197.5901 102.2079,-197.5901 102.2079,-233.5901"/>
<text text-anchor="middle" x="63" y="-211.3901" font-family="Times,serif" font-size="14.00" fill="#000000">UrlModule</text>
</g>
<!-- UrlModule&#45;&gt;UnitUserRolesModule -->
<g id="edge5" class="edge">
<title>UrlModule&#45;&gt;UnitUserRolesModule</title>
<path fill="none" stroke="#000000" d="M63,-233.6962C63,-252.9292 63,-280.5901 63,-280.5901 63,-280.5901 133.4509,-280.5901 133.4509,-280.5901"/>
<polygon fill="#000000" stroke="#000000" points="133.4509,-284.0902 143.4509,-280.5901 133.4508,-277.0902 133.4509,-284.0902"/>
</g>
</g>
</svg>
