<?xml version="1.0" encoding="UTF-8" standalone="no"?>
<!DOCTYPE svg PUBLIC "-//W3C//DTD SVG 1.1//EN"
 "http://www.w3.org/Graphics/SVG/1.1/DTD/svg11.dtd">
<!-- Generated by graphviz version 2.47.3 (20210619.1520)
 -->
<!-- Title: dependencies Pages: 1 -->
<svg width="726pt" height="285pt"
 viewBox="0.00 0.00 726.00 285.39" xmlns="http://www.w3.org/2000/svg" xmlns:xlink="http://www.w3.org/1999/xlink">
<g id="graph0" class="graph" transform="scale(1 1) rotate(0) translate(4 281.39)">
<title>dependencies</title>
<polygon fill="white" stroke="transparent" points="-4,4 -4,-281.39 722,-281.39 722,4 -4,4"/>
<text text-anchor="middle" x="359" y="-8.2" font-family="sans-serif" font-size="14.00">dependencies</text>
<g id="clust1" class="cluster">
<title>cluster_UnitUserRolesModule</title>
<polygon fill="none" stroke="black" stroke-dasharray="1,5" points="8,-32.8 8,-269.39 710,-269.39 710,-32.8 8,-32.8"/>
</g>
<g id="clust4" class="cluster">
<title>cluster_UnitUserRolesModule_imports</title>
<polygon fill="none" stroke="black" points="234,-152.39 234,-204.39 702,-204.39 702,-152.39 234,-152.39"/>
</g>
<g id="clust2" class="cluster">
<title>cluster_UnitUserRolesModule_declarations</title>
<polygon fill="none" stroke="black" points="16,-152.39 16,-204.39 226,-204.39 226,-152.39 16,-152.39"/>
</g>
<g id="clust3" class="cluster">
<title>cluster_UnitUserRolesModule_UnitUserRolesFormComponent_providers</title>
<polygon fill="none" stroke="black" points="16,-40.8 16,-139.39 572,-139.39 572,-40.8 16,-40.8"/>
</g>
<!-- UnitUserRolesFormComponent -->
<g id="node1" class="node">
<title>UnitUserRolesFormComponent</title>
<polygon fill="#ffffb3" stroke="black" points="218.37,-196.39 23.63,-196.39 23.63,-160.39 218.37,-160.39 218.37,-196.39"/>
<text text-anchor="middle" x="121" y="-174.19" font-family="Times,serif" font-size="14.00">UnitUserRolesFormComponent</text>
</g>
<!-- UnitUserRolesModule -->
<g id="node2" class="node">
<title>UnitUserRolesModule</title>
<polygon fill="#8dd3c7" stroke="black" points="483.25,-261.39 480.25,-265.39 459.25,-265.39 456.25,-261.39 340.75,-261.39 340.75,-225.39 483.25,-225.39 483.25,-261.39"/>
<text text-anchor="middle" x="412" y="-239.19" font-family="Times,serif" font-size="14.00">UnitUserRolesModule</text>
</g>
<!-- UnitUserRolesFormComponent&#45;&gt;UnitUserRolesModule -->
<g id="edge1" class="edge">
<title>UnitUserRolesFormComponent&#45;&gt;UnitUserRolesModule</title>
<path fill="none" stroke="black" d="M121,-196.67C121,-217.71 121,-249.39 121,-249.39 121,-249.39 330.44,-249.39 330.44,-249.39"/>
<polygon fill="black" stroke="black" points="330.44,-252.89 340.44,-249.39 330.44,-245.89 330.44,-252.89"/>
</g>
<!-- {
 &#160;&#160;&#160;provide: ItemService, useExisting: UnitUserRolesItemService,
} -->
<g id="node3" class="node">
<title>{
 &#160;&#160;&#160;provide: ItemService, useExisting: UnitUserRolesItemService,
}</title>
<ellipse fill="#fdb462" stroke="black" cx="294" cy="-90.1" rx="270.01" ry="41.09"/>
<text text-anchor="middle" x="294" y="-102.7" font-family="Times,serif" font-size="14.00">{</text>
<text text-anchor="middle" x="294" y="-85.9" font-family="Times,serif" font-size="14.00"> &#160;&#160;&#160;provide: ItemService, useExisting: UnitUserRolesItemService,</text>
<text text-anchor="middle" x="294" y="-69.1" font-family="Times,serif" font-size="14.00">}</text>
</g>
<!-- {
 &#160;&#160;&#160;provide: ItemService, useExisting: UnitUserRolesItemService,
}&#45;&gt;UnitUserRolesFormComponent -->
<g id="edge2" class="edge">
<title>{
 &#160;&#160;&#160;provide: ItemService, useExisting: UnitUserRolesItemService,
}&#45;&gt;UnitUserRolesFormComponent</title>
<path fill="none" stroke="black" d="M121.21,-121.97C121.21,-121.97 121.21,-150.18 121.21,-150.18"/>
<polygon fill="black" stroke="black" points="117.71,-150.18 121.21,-160.18 124.71,-150.18 117.71,-150.18"/>
</g>
<!-- CardModule -->
<g id="node4" class="node">
<title>CardModule</title>
<polygon fill="#8dd3c7" stroke="black" points="694.26,-196.39 691.26,-200.39 670.26,-200.39 667.26,-196.39 607.74,-196.39 607.74,-160.39 694.26,-160.39 694.26,-196.39"/>
<text text-anchor="middle" x="651" y="-174.19" font-family="Times,serif" font-size="14.00">CardModule</text>
</g>
<!-- CardModule&#45;&gt;UnitUserRolesModule -->
<g id="edge3" class="edge">
<title>CardModule&#45;&gt;UnitUserRolesModule</title>
<path fill="none" stroke="black" d="M651,-196.67C651,-217.71 651,-249.39 651,-249.39 651,-249.39 493.38,-249.39 493.38,-249.39"/>
<polygon fill="black" stroke="black" points="493.38,-245.89 483.38,-249.39 493.38,-252.89 493.38,-245.89"/>
</g>
<!-- I18nModule -->
<g id="node5" class="node">
<title>I18nModule</title>
<polygon fill="#8dd3c7" stroke="black" points="589.71,-196.39 586.71,-200.39 565.71,-200.39 562.71,-196.39 504.29,-196.39 504.29,-160.39 589.71,-160.39 589.71,-196.39"/>
<text text-anchor="middle" x="547" y="-174.19" font-family="Times,serif" font-size="14.00">I18nModule</text>
</g>
<!-- I18nModule&#45;&gt;UnitUserRolesModule -->
<g id="edge4" class="edge">
<title>I18nModule&#45;&gt;UnitUserRolesModule</title>
<path fill="none" stroke="black" d="M547,-196.41C547,-213.76 547,-237.39 547,-237.39 547,-237.39 493.45,-237.39 493.45,-237.39"/>
<polygon fill="black" stroke="black" points="493.45,-233.89 483.45,-237.39 493.45,-240.89 493.45,-233.89"/>
</g>
<!-- KeyboardFocusModule -->
<g id="node6" class="node">
<title>KeyboardFocusModule</title>
<polygon fill="#8dd3c7" stroke="black" points="486.19,-196.39 483.19,-200.39 462.19,-200.39 459.19,-196.39 337.81,-196.39 337.81,-160.39 486.19,-160.39 486.19,-196.39"/>
<text text-anchor="middle" x="412" y="-174.19" font-family="Times,serif" font-size="14.00">KeyboardFocusModule</text>
</g>
<!-- KeyboardFocusModule&#45;&gt;UnitUserRolesModule -->
<g id="edge5" class="edge">
<title>KeyboardFocusModule&#45;&gt;UnitUserRolesModule</title>
<path fill="none" stroke="black" d="M412,-196.5C412,-196.5 412,-215.38 412,-215.38"/>
<polygon fill="black" stroke="black" points="408.5,-215.38 412,-225.38 415.5,-215.38 408.5,-215.38"/>
</g>
<!-- UrlModule -->
<g id="node7" class="node">
<title>UrlModule</title>
<polygon fill="#8dd3c7" stroke="black" points="320.21,-196.39 317.21,-200.39 296.21,-200.39 293.21,-196.39 241.79,-196.39 241.79,-160.39 320.21,-160.39 320.21,-196.39"/>
<text text-anchor="middle" x="281" y="-174.19" font-family="Times,serif" font-size="14.00">UrlModule</text>
</g>
<!-- UrlModule&#45;&gt;UnitUserRolesModule -->
<g id="edge6" class="edge">
<title>UrlModule&#45;&gt;UnitUserRolesModule</title>
<path fill="none" stroke="black" d="M281,-196.41C281,-213.76 281,-237.39 281,-237.39 281,-237.39 330.37,-237.39 330.37,-237.39"/>
<polygon fill="black" stroke="black" points="330.37,-240.89 340.37,-237.39 330.37,-233.89 330.37,-240.89"/>
</g>
</g>
</svg>
