<?xml version="1.0" encoding="UTF-8" standalone="no"?>
<!DOCTYPE svg PUBLIC "-//W3C//DTD SVG 1.1//EN"
 "http://www.w3.org/Graphics/SVG/1.1/DTD/svg11.dtd">
<!-- Generated by graphviz version 2.47.3 (20210619.1520)
 -->
<!-- Title: dependencies Pages: 1 -->
<svg width="1072pt" height="285pt"
 viewBox="0.00 0.00 1072.00 285.39" xmlns="http://www.w3.org/2000/svg" xmlns:xlink="http://www.w3.org/1999/xlink">
<g id="graph0" class="graph" transform="scale(1 1) rotate(0) translate(4 281.39)">
<title>dependencies</title>
<polygon fill="white" stroke="transparent" points="-4,4 -4,-281.39 1068,-281.39 1068,4 -4,4"/>
<text text-anchor="middle" x="532" y="-8.2" font-family="sans-serif" font-size="14.00">dependencies</text>
<g id="clust1" class="cluster">
<title>cluster_UnitUserRolesModule</title>
<polygon fill="none" stroke="black" stroke-dasharray="1,5" points="8,-32.8 8,-269.39 1056,-269.39 1056,-32.8 8,-32.8"/>
</g>
<g id="clust3" class="cluster">
<title>cluster_UnitUserRolesModule_UnitUserRolesFormComponent_providers</title>
<polygon fill="none" stroke="black" points="492,-40.8 492,-204.39 1048,-204.39 1048,-40.8 492,-40.8"/>
</g>
<g id="clust4" class="cluster">
<title>cluster_UnitUserRolesModule_imports</title>
<polygon fill="none" stroke="black" points="16,-152.39 16,-204.39 484,-204.39 484,-152.39 16,-152.39"/>
</g>
<!-- UnitUserRolesFormComponent -->
<g id="node1" class="node">
<title>UnitUserRolesFormComponent</title>
<polygon fill="#ffffb3" stroke="black" points="780.37,-196.39 585.63,-196.39 585.63,-160.39 780.37,-160.39 780.37,-196.39"/>
<text text-anchor="middle" x="683" y="-174.19" font-family="Times,serif" font-size="14.00">UnitUserRolesFormComponent</text>
</g>
<!-- UnitUserRolesModule -->
<g id="node2" class="node">
<title>UnitUserRolesModule</title>
<polygon fill="#8dd3c7" stroke="black" points="400.25,-261.39 397.25,-265.39 376.25,-265.39 373.25,-261.39 257.75,-261.39 257.75,-225.39 400.25,-225.39 400.25,-261.39"/>
<text text-anchor="middle" x="329" y="-239.19" font-family="Times,serif" font-size="14.00">UnitUserRolesModule</text>
</g>
<!-- UnitUserRolesFormComponent&#45;&gt;UnitUserRolesModule -->
<g id="edge1" class="edge">
<title>UnitUserRolesFormComponent&#45;&gt;UnitUserRolesModule</title>
<path fill="none" stroke="black" d="M683,-196.5C683,-215.73 683,-243.39 683,-243.39 683,-243.39 410.64,-243.39 410.64,-243.39"/>
<polygon fill="black" stroke="black" points="410.64,-239.89 400.64,-243.39 410.64,-246.89 410.64,-239.89"/>
</g>
<!-- {
 &#160;&#160;&#160;provide: ItemService, useExisting: UnitUserRolesItemService,
} -->
<g id="node3" class="node">
<title>{
 &#160;&#160;&#160;provide: ItemService, useExisting: UnitUserRolesItemService,
}</title>
<ellipse fill="#fdb462" stroke="black" cx="770" cy="-90.1" rx="270.01" ry="41.09"/>
<text text-anchor="middle" x="770" y="-102.7" font-family="Times,serif" font-size="14.00">{</text>
<text text-anchor="middle" x="770" y="-85.9" font-family="Times,serif" font-size="14.00"> &#160;&#160;&#160;provide: ItemService, useExisting: UnitUserRolesItemService,</text>
<text text-anchor="middle" x="770" y="-69.1" font-family="Times,serif" font-size="14.00">}</text>
</g>
<!-- {
 &#160;&#160;&#160;provide: ItemService, useExisting: UnitUserRolesItemService,
}&#45;&gt;UnitUserRolesFormComponent -->
<g id="edge2" class="edge">
<title>{
 &#160;&#160;&#160;provide: ItemService, useExisting: UnitUserRolesItemService,
}&#45;&gt;UnitUserRolesFormComponent</title>
<path fill="none" stroke="black" d="M683,-129.34C683,-129.34 683,-150.01 683,-150.01"/>
<polygon fill="black" stroke="black" points="679.5,-150.01 683,-160.01 686.5,-150.01 679.5,-150.01"/>
</g>
<!-- CardModule -->
<g id="node4" class="node">
<title>CardModule</title>
<polygon fill="#8dd3c7" stroke="black" points="476.26,-196.39 473.26,-200.39 452.26,-200.39 449.26,-196.39 389.74,-196.39 389.74,-160.39 476.26,-160.39 476.26,-196.39"/>
<text text-anchor="middle" x="433" y="-174.19" font-family="Times,serif" font-size="14.00">CardModule</text>
</g>
<!-- CardModule&#45;&gt;UnitUserRolesModule -->
<g id="edge3" class="edge">
<title>CardModule&#45;&gt;UnitUserRolesModule</title>
<path fill="none" stroke="black" d="M395,-196.5C395,-196.5 395,-215.38 395,-215.38"/>
<polygon fill="black" stroke="black" points="391.5,-215.38 395,-225.38 398.5,-215.38 391.5,-215.38"/>
</g>
<!-- I18nModule -->
<g id="node5" class="node">
<title>I18nModule</title>
<polygon fill="#8dd3c7" stroke="black" points="371.71,-196.39 368.71,-200.39 347.71,-200.39 344.71,-196.39 286.29,-196.39 286.29,-160.39 371.71,-160.39 371.71,-196.39"/>
<text text-anchor="middle" x="329" y="-174.19" font-family="Times,serif" font-size="14.00">I18nModule</text>
</g>
<!-- I18nModule&#45;&gt;UnitUserRolesModule -->
<g id="edge4" class="edge">
<title>I18nModule&#45;&gt;UnitUserRolesModule</title>
<path fill="none" stroke="black" d="M329,-196.5C329,-196.5 329,-215.38 329,-215.38"/>
<polygon fill="black" stroke="black" points="325.5,-215.38 329,-225.38 332.5,-215.38 325.5,-215.38"/>
</g>
<!-- KeyboardFocusModule -->
<g id="node6" class="node">
<title>KeyboardFocusModule</title>
<polygon fill="#8dd3c7" stroke="black" points="268.19,-196.39 265.19,-200.39 244.19,-200.39 241.19,-196.39 119.81,-196.39 119.81,-160.39 268.19,-160.39 268.19,-196.39"/>
<text text-anchor="middle" x="194" y="-174.19" font-family="Times,serif" font-size="14.00">KeyboardFocusModule</text>
</g>
<!-- KeyboardFocusModule&#45;&gt;UnitUserRolesModule -->
<g id="edge5" class="edge">
<title>KeyboardFocusModule&#45;&gt;UnitUserRolesModule</title>
<path fill="none" stroke="black" d="M262.86,-196.5C262.86,-196.5 262.86,-215.38 262.86,-215.38"/>
<polygon fill="black" stroke="black" points="259.36,-215.38 262.86,-225.38 266.36,-215.38 259.36,-215.38"/>
</g>
<!-- UrlModule -->
<g id="node7" class="node">
<title>UrlModule</title>
<polygon fill="#8dd3c7" stroke="black" points="102.21,-196.39 99.21,-200.39 78.21,-200.39 75.21,-196.39 23.79,-196.39 23.79,-160.39 102.21,-160.39 102.21,-196.39"/>
<text text-anchor="middle" x="63" y="-174.19" font-family="Times,serif" font-size="14.00">UrlModule</text>
</g>
<!-- UrlModule&#45;&gt;UnitUserRolesModule -->
<g id="edge6" class="edge">
<title>UrlModule&#45;&gt;UnitUserRolesModule</title>
<path fill="none" stroke="black" d="M63,-196.5C63,-215.73 63,-243.39 63,-243.39 63,-243.39 247.72,-243.39 247.72,-243.39"/>
<polygon fill="black" stroke="black" points="247.72,-246.89 257.72,-243.39 247.72,-239.89 247.72,-246.89"/>
</g>
</g>
</svg>
