<?xml version="1.0" encoding="UTF-8" standalone="no"?>
<!DOCTYPE svg PUBLIC "-//W3C//DTD SVG 1.1//EN"
 "http://www.w3.org/Graphics/SVG/1.1/DTD/svg11.dtd">
<!-- Generated by graphviz version 2.47.0 (20210316.0004)
 -->
<!-- Title: dependencies Pages: 1 -->
<svg width="726pt" height="211pt"
 viewBox="0.00 0.00 726.00 211.00" xmlns="http://www.w3.org/2000/svg" xmlns:xlink="http://www.w3.org/1999/xlink">
<g id="graph0" class="graph" transform="scale(1 1) rotate(0) translate(4 207)">
<title>dependencies</title>
<polygon fill="white" stroke="transparent" points="-4,4 -4,-207 722,-207 722,4 -4,4"/>
<text text-anchor="start" x="338.01" y="-42.4" font-family="sans-serif" font-weight="bold" font-size="14.00">Legend</text>
<polygon fill="#ffffb3" stroke="transparent" points="125,-10 125,-30 145,-30 145,-10 125,-10"/>
<text text-anchor="start" x="148.63" y="-15.4" font-family="sans-serif" font-size="14.00"> &#160;Declarations</text>
<polygon fill="#8dd3c7" stroke="transparent" points="238,-10 238,-30 258,-30 258,-10 238,-10"/>
<text text-anchor="start" x="261.73" y="-15.4" font-family="sans-serif" font-size="14.00"> &#160;Module</text>
<polygon fill="#80b1d3" stroke="transparent" points="324,-10 324,-30 344,-30 344,-10 324,-10"/>
<text text-anchor="start" x="347.78" y="-15.4" font-family="sans-serif" font-size="14.00"> &#160;Bootstrap</text>
<polygon fill="#fdb462" stroke="transparent" points="421,-10 421,-30 441,-30 441,-10 421,-10"/>
<text text-anchor="start" x="444.67" y="-15.4" font-family="sans-serif" font-size="14.00"> &#160;Providers</text>
<polygon fill="#fb8072" stroke="transparent" points="517,-10 517,-30 537,-30 537,-10 517,-10"/>
<text text-anchor="start" x="540.73" y="-15.4" font-family="sans-serif" font-size="14.00"> &#160;Exports</text>
<g id="clust1" class="cluster">
<title>cluster_UnitUserRolesModule</title>
<polygon fill="none" stroke="black" stroke-dasharray="1,5" points="8,-70 8,-195 710,-195 710,-70 8,-70"/>
</g>
<g id="clust2" class="cluster">
<title>cluster_UnitUserRolesModule_declarations</title>
<polygon fill="none" stroke="black" points="492,-78 492,-130 702,-130 702,-78 492,-78"/>
</g>
<g id="clust4" class="cluster">
<title>cluster_UnitUserRolesModule_imports</title>
<polygon fill="none" stroke="black" points="16,-78 16,-130 484,-130 484,-78 16,-78"/>
</g>
<!-- UnitUserRolesFormComponent -->
<g id="node1" class="node">
<title>UnitUserRolesFormComponent</title>
<polygon fill="#ffffb3" stroke="black" points="694.37,-122 499.63,-122 499.63,-86 694.37,-86 694.37,-122"/>
<text text-anchor="middle" x="597" y="-99.8" font-family="Times,serif" font-size="14.00">UnitUserRolesFormComponent</text>
</g>
<!-- UnitUserRolesModule -->
<g id="node2" class="node">
<title>UnitUserRolesModule</title>
<polygon fill="#8dd3c7" stroke="black" points="400.25,-187 397.25,-191 376.25,-191 373.25,-187 257.75,-187 257.75,-151 400.25,-151 400.25,-187"/>
<text text-anchor="middle" x="329" y="-164.8" font-family="Times,serif" font-size="14.00">UnitUserRolesModule</text>
</g>
<!-- UnitUserRolesFormComponent&#45;&gt;UnitUserRolesModule -->
<g id="edge1" class="edge">
<title>UnitUserRolesFormComponent&#45;&gt;UnitUserRolesModule</title>
<path fill="none" stroke="black" d="M597,-122.11C597,-141.34 597,-169 597,-169 597,-169 410.47,-169 410.47,-169"/>
<polygon fill="black" stroke="black" points="410.47,-165.5 400.47,-169 410.47,-172.5 410.47,-165.5"/>
</g>
<!-- CardModule -->
<g id="node3" class="node">
<title>CardModule</title>
<polygon fill="#8dd3c7" stroke="black" points="476.26,-122 473.26,-126 452.26,-126 449.26,-122 389.74,-122 389.74,-86 476.26,-86 476.26,-122"/>
<text text-anchor="middle" x="433" y="-99.8" font-family="Times,serif" font-size="14.00">CardModule</text>
</g>
<!-- CardModule&#45;&gt;UnitUserRolesModule -->
<g id="edge2" class="edge">
<title>CardModule&#45;&gt;UnitUserRolesModule</title>
<path fill="none" stroke="black" d="M395,-122.11C395,-122.11 395,-140.99 395,-140.99"/>
<polygon fill="black" stroke="black" points="391.5,-140.99 395,-150.99 398.5,-140.99 391.5,-140.99"/>
</g>
<!-- I18nModule -->
<g id="node4" class="node">
<title>I18nModule</title>
<polygon fill="#8dd3c7" stroke="black" points="371.71,-122 368.71,-126 347.71,-126 344.71,-122 286.29,-122 286.29,-86 371.71,-86 371.71,-122"/>
<text text-anchor="middle" x="329" y="-99.8" font-family="Times,serif" font-size="14.00">I18nModule</text>
</g>
<!-- I18nModule&#45;&gt;UnitUserRolesModule -->
<g id="edge3" class="edge">
<title>I18nModule&#45;&gt;UnitUserRolesModule</title>
<path fill="none" stroke="black" d="M329,-122.11C329,-122.11 329,-140.99 329,-140.99"/>
<polygon fill="black" stroke="black" points="325.5,-140.99 329,-150.99 332.5,-140.99 325.5,-140.99"/>
</g>
<!-- KeyboardFocusModule -->
<g id="node5" class="node">
<title>KeyboardFocusModule</title>
<polygon fill="#8dd3c7" stroke="black" points="268.19,-122 265.19,-126 244.19,-126 241.19,-122 119.81,-122 119.81,-86 268.19,-86 268.19,-122"/>
<text text-anchor="middle" x="194" y="-99.8" font-family="Times,serif" font-size="14.00">KeyboardFocusModule</text>
</g>
<!-- KeyboardFocusModule&#45;&gt;UnitUserRolesModule -->
<g id="edge4" class="edge">
<title>KeyboardFocusModule&#45;&gt;UnitUserRolesModule</title>
<path fill="none" stroke="black" d="M262.86,-122.11C262.86,-122.11 262.86,-140.99 262.86,-140.99"/>
<polygon fill="black" stroke="black" points="259.36,-140.99 262.86,-150.99 266.36,-140.99 259.36,-140.99"/>
</g>
<!-- UrlModule -->
<g id="node6" class="node">
<title>UrlModule</title>
<polygon fill="#8dd3c7" stroke="black" points="102.21,-122 99.21,-126 78.21,-126 75.21,-122 23.79,-122 23.79,-86 102.21,-86 102.21,-122"/>
<text text-anchor="middle" x="63" y="-99.8" font-family="Times,serif" font-size="14.00">UrlModule</text>
</g>
<!-- UrlModule&#45;&gt;UnitUserRolesModule -->
<g id="edge5" class="edge">
<title>UrlModule&#45;&gt;UnitUserRolesModule</title>
<path fill="none" stroke="black" d="M63,-122.11C63,-141.34 63,-169 63,-169 63,-169 247.72,-169 247.72,-169"/>
<polygon fill="black" stroke="black" points="247.72,-172.5 257.72,-169 247.72,-165.5 247.72,-172.5"/>
</g>
</g>
</svg>
