<?xml version="1.0" encoding="UTF-8" standalone="no"?>
<!DOCTYPE svg PUBLIC "-//W3C//DTD SVG 1.1//EN"
 "http://www.w3.org/Graphics/SVG/1.1/DTD/svg11.dtd">
<!-- Generated by graphviz version 2.47.3 (20210619.1520)
 -->
<!-- Title: dependencies Pages: 1 -->
<svg width="1424pt" height="247pt"
 viewBox="0.00 0.00 1424.00 246.80" xmlns="http://www.w3.org/2000/svg" xmlns:xlink="http://www.w3.org/1999/xlink">
<g id="graph0" class="graph" transform="scale(1 1) rotate(0) translate(4 242.8)">
<title>dependencies</title>
<polygon fill="white" stroke="transparent" points="-4,4 -4,-242.8 1420,-242.8 1420,4 -4,4"/>
<text text-anchor="middle" x="708" y="-8.2" font-family="sans-serif" font-size="14.00">dependencies</text>
<g id="clust1" class="cluster">
<title>cluster_ProductVariantsContainerModule</title>
<polygon fill="none" stroke="black" stroke-dasharray="1,5" points="8,-32.8 8,-230.8 1408,-230.8 1408,-32.8 8,-32.8"/>
</g>
<g id="clust2" class="cluster">
<title>cluster_ProductVariantsContainerModule_declarations</title>
<polygon fill="none" stroke="black" points="1156,-40.8 1156,-92.8 1400,-92.8 1400,-40.8 1156,-40.8"/>
</g>
<g id="clust4" class="cluster">
<title>cluster_ProductVariantsContainerModule_imports</title>
<polygon fill="none" stroke="black" points="16,-40.8 16,-92.8 1148,-92.8 1148,-40.8 16,-40.8"/>
</g>
<g id="clust5" class="cluster">
<title>cluster_ProductVariantsContainerModule_exports</title>
<polygon fill="none" stroke="black" points="565,-170.8 565,-222.8 811,-222.8 811,-170.8 565,-170.8"/>
</g>
<!-- ProductVariantsContainerComponent -->
<g id="node1" class="node">
<title>ProductVariantsContainerComponent</title>
<polygon fill="#ffffb3" stroke="black" points="1391.51,-84.8 1164.49,-84.8 1164.49,-48.8 1391.51,-48.8 1391.51,-84.8"/>
<text text-anchor="middle" x="1278" y="-62.6" font-family="Times,serif" font-size="14.00">ProductVariantsContainerComponent</text>
</g>
<!-- ProductVariantsContainerModule -->
<g id="node2" class="node">
<title>ProductVariantsContainerModule</title>
<polygon fill="#8dd3c7" stroke="black" points="790.73,-149.8 787.73,-153.8 766.73,-153.8 763.73,-149.8 585.27,-149.8 585.27,-113.8 790.73,-113.8 790.73,-149.8"/>
<text text-anchor="middle" x="688" y="-127.6" font-family="Times,serif" font-size="14.00">ProductVariantsContainerModule</text>
</g>
<!-- ProductVariantsContainerComponent&#45;&gt;ProductVariantsContainerModule -->
<g id="edge1" class="edge">
<title>ProductVariantsContainerComponent&#45;&gt;ProductVariantsContainerModule</title>
<path fill="none" stroke="black" d="M1278,-85.09C1278,-107.01 1278,-140.8 1278,-140.8 1278,-140.8 800.77,-140.8 800.77,-140.8"/>
<polygon fill="black" stroke="black" points="800.77,-137.3 790.77,-140.8 800.77,-144.3 800.77,-137.3"/>
</g>
<!-- ProductVariantStyleIconsComponent  -->
<g id="node9" class="node">
<title>ProductVariantStyleIconsComponent </title>
<polygon fill="#fb8072" stroke="black" points="802.96,-214.8 573.04,-214.8 573.04,-178.8 802.96,-178.8 802.96,-214.8"/>
<text text-anchor="middle" x="688" y="-192.6" font-family="Times,serif" font-size="14.00">ProductVariantStyleIconsComponent </text>
</g>
<!-- ProductVariantsContainerModule&#45;&gt;ProductVariantStyleIconsComponent  -->
<g id="edge8" class="edge">
<title>ProductVariantsContainerModule&#45;&gt;ProductVariantStyleIconsComponent </title>
<path fill="none" stroke="black" stroke-dasharray="5,2" d="M688,-149.91C688,-149.91 688,-168.79 688,-168.79"/>
<polygon fill="black" stroke="black" points="684.5,-168.79 688,-178.79 691.5,-168.79 684.5,-168.79"/>
</g>
<!-- I18nModule -->
<g id="node3" class="node">
<title>I18nModule</title>
<polygon fill="#8dd3c7" stroke="black" points="1139.71,-84.8 1136.71,-88.8 1115.71,-88.8 1112.71,-84.8 1054.29,-84.8 1054.29,-48.8 1139.71,-48.8 1139.71,-84.8"/>
<text text-anchor="middle" x="1097" y="-62.6" font-family="Times,serif" font-size="14.00">I18nModule</text>
</g>
<!-- I18nModule&#45;&gt;ProductVariantsContainerModule -->
<g id="edge2" class="edge">
<title>I18nModule&#45;&gt;ProductVariantsContainerModule</title>
<path fill="none" stroke="black" d="M1097,-84.91C1097,-104.14 1097,-131.8 1097,-131.8 1097,-131.8 800.94,-131.8 800.94,-131.8"/>
<polygon fill="black" stroke="black" points="800.94,-128.3 790.94,-131.8 800.94,-135.3 800.94,-128.3"/>
</g>
<!-- ProductVariantColorSelectorModule -->
<g id="node4" class="node">
<title>ProductVariantColorSelectorModule</title>
<polygon fill="#8dd3c7" stroke="black" points="1036.33,-84.8 1033.33,-88.8 1012.33,-88.8 1009.33,-84.8 813.67,-84.8 813.67,-48.8 1036.33,-48.8 1036.33,-84.8"/>
<text text-anchor="middle" x="925" y="-62.6" font-family="Times,serif" font-size="14.00">ProductVariantColorSelectorModule</text>
</g>
<!-- ProductVariantColorSelectorModule&#45;&gt;ProductVariantsContainerModule -->
<g id="edge3" class="edge">
<title>ProductVariantColorSelectorModule&#45;&gt;ProductVariantsContainerModule</title>
<path fill="none" stroke="black" d="M925,-84.83C925,-101.2 925,-122.8 925,-122.8 925,-122.8 800.92,-122.8 800.92,-122.8"/>
<polygon fill="black" stroke="black" points="800.92,-119.3 790.92,-122.8 800.92,-126.3 800.92,-119.3"/>
</g>
<!-- ProductVariantSizeSelectorModule -->
<g id="node5" class="node">
<title>ProductVariantSizeSelectorModule</title>
<polygon fill="#8dd3c7" stroke="black" points="795.55,-84.8 792.55,-88.8 771.55,-88.8 768.55,-84.8 580.45,-84.8 580.45,-48.8 795.55,-48.8 795.55,-84.8"/>
<text text-anchor="middle" x="688" y="-62.6" font-family="Times,serif" font-size="14.00">ProductVariantSizeSelectorModule</text>
</g>
<!-- ProductVariantSizeSelectorModule&#45;&gt;ProductVariantsContainerModule -->
<g id="edge4" class="edge">
<title>ProductVariantSizeSelectorModule&#45;&gt;ProductVariantsContainerModule</title>
<path fill="none" stroke="black" d="M688,-84.91C688,-84.91 688,-103.79 688,-103.79"/>
<polygon fill="black" stroke="black" points="684.5,-103.79 688,-113.79 691.5,-103.79 684.5,-103.79"/>
</g>
<!-- ProductVariantStyleIconsModule -->
<g id="node6" class="node">
<title>ProductVariantStyleIconsModule</title>
<polygon fill="#8dd3c7" stroke="black" points="562.17,-84.8 559.17,-88.8 538.17,-88.8 535.17,-84.8 357.83,-84.8 357.83,-48.8 562.17,-48.8 562.17,-84.8"/>
<text text-anchor="middle" x="460" y="-62.6" font-family="Times,serif" font-size="14.00">ProductVariantStyleIconsModule</text>
</g>
<!-- ProductVariantStyleIconsModule&#45;&gt;ProductVariantsContainerModule -->
<g id="edge5" class="edge">
<title>ProductVariantStyleIconsModule&#45;&gt;ProductVariantsContainerModule</title>
<path fill="none" stroke="black" d="M460,-84.83C460,-101.2 460,-122.8 460,-122.8 460,-122.8 575.01,-122.8 575.01,-122.8"/>
<polygon fill="black" stroke="black" points="575.01,-126.3 585.01,-122.8 575.01,-119.3 575.01,-126.3"/>
</g>
<!-- ProductVariantStyleSelectorModule -->
<g id="node7" class="node">
<title>ProductVariantStyleSelectorModule</title>
<polygon fill="#8dd3c7" stroke="black" points="339.72,-84.8 336.72,-88.8 315.72,-88.8 312.72,-84.8 120.28,-84.8 120.28,-48.8 339.72,-48.8 339.72,-84.8"/>
<text text-anchor="middle" x="230" y="-62.6" font-family="Times,serif" font-size="14.00">ProductVariantStyleSelectorModule</text>
</g>
<!-- ProductVariantStyleSelectorModule&#45;&gt;ProductVariantsContainerModule -->
<g id="edge6" class="edge">
<title>ProductVariantStyleSelectorModule&#45;&gt;ProductVariantsContainerModule</title>
<path fill="none" stroke="black" d="M230,-84.91C230,-104.14 230,-131.8 230,-131.8 230,-131.8 575.22,-131.8 575.22,-131.8"/>
<polygon fill="black" stroke="black" points="575.22,-135.3 585.22,-131.8 575.22,-128.3 575.22,-135.3"/>
</g>
<!-- UrlModule -->
<g id="node8" class="node">
<title>UrlModule</title>
<polygon fill="#8dd3c7" stroke="black" points="102.21,-84.8 99.21,-88.8 78.21,-88.8 75.21,-84.8 23.79,-84.8 23.79,-48.8 102.21,-48.8 102.21,-84.8"/>
<text text-anchor="middle" x="63" y="-62.6" font-family="Times,serif" font-size="14.00">UrlModule</text>
</g>
<!-- UrlModule&#45;&gt;ProductVariantsContainerModule -->
<g id="edge7" class="edge">
<title>UrlModule&#45;&gt;ProductVariantsContainerModule</title>
<path fill="none" stroke="black" d="M63,-85.09C63,-107.01 63,-140.8 63,-140.8 63,-140.8 575.14,-140.8 575.14,-140.8"/>
<polygon fill="black" stroke="black" points="575.14,-144.3 585.14,-140.8 575.14,-137.3 575.14,-144.3"/>
</g>
</g>
</svg>
