<?xml version="1.0" encoding="UTF-8" standalone="no"?>
<!DOCTYPE svg PUBLIC "-//W3C//DTD SVG 1.1//EN"
 "http://www.w3.org/Graphics/SVG/1.1/DTD/svg11.dtd">
<!-- Generated by graphviz version 2.47.0 (20210316.0004)
 -->
<!-- Title: dependencies Pages: 1 -->
<svg width="1424pt" height="284pt"
 viewBox="0.00 0.00 1424.00 284.00" xmlns="http://www.w3.org/2000/svg" xmlns:xlink="http://www.w3.org/1999/xlink">
<g id="graph0" class="graph" transform="scale(1 1) rotate(0) translate(4 280)">
<title>dependencies</title>
<polygon fill="white" stroke="transparent" points="-4,4 -4,-280 1420,-280 1420,4 -4,4"/>
<text text-anchor="start" x="687.01" y="-42.4" font-family="sans-serif" font-weight="bold" font-size="14.00">Legend</text>
<polygon fill="#ffffb3" stroke="transparent" points="474,-10 474,-30 494,-30 494,-10 474,-10"/>
<text text-anchor="start" x="497.63" y="-15.4" font-family="sans-serif" font-size="14.00"> &#160;Declarations</text>
<polygon fill="#8dd3c7" stroke="transparent" points="587,-10 587,-30 607,-30 607,-10 587,-10"/>
<text text-anchor="start" x="610.73" y="-15.4" font-family="sans-serif" font-size="14.00"> &#160;Module</text>
<polygon fill="#80b1d3" stroke="transparent" points="673,-10 673,-30 693,-30 693,-10 673,-10"/>
<text text-anchor="start" x="696.78" y="-15.4" font-family="sans-serif" font-size="14.00"> &#160;Bootstrap</text>
<polygon fill="#fdb462" stroke="transparent" points="770,-10 770,-30 790,-30 790,-10 770,-10"/>
<text text-anchor="start" x="793.67" y="-15.4" font-family="sans-serif" font-size="14.00"> &#160;Providers</text>
<polygon fill="#fb8072" stroke="transparent" points="866,-10 866,-30 886,-30 886,-10 866,-10"/>
<text text-anchor="start" x="889.73" y="-15.4" font-family="sans-serif" font-size="14.00"> &#160;Exports</text>
<g id="clust1" class="cluster">
<title>cluster_ProductVariantsContainerModule</title>
<polygon fill="none" stroke="black" stroke-dasharray="1,5" points="8,-70 8,-268 1408,-268 1408,-70 8,-70"/>
</g>
<g id="clust5" class="cluster">
<title>cluster_ProductVariantsContainerModule_exports</title>
<polygon fill="none" stroke="black" points="565,-208 565,-260 811,-260 811,-208 565,-208"/>
</g>
<g id="clust2" class="cluster">
<title>cluster_ProductVariantsContainerModule_declarations</title>
<polygon fill="none" stroke="black" points="1156,-78 1156,-130 1400,-130 1400,-78 1156,-78"/>
</g>
<g id="clust4" class="cluster">
<title>cluster_ProductVariantsContainerModule_imports</title>
<polygon fill="none" stroke="black" points="16,-78 16,-130 1148,-130 1148,-78 16,-78"/>
</g>
<!-- ProductVariantsContainerComponent -->
<g id="node1" class="node">
<title>ProductVariantsContainerComponent</title>
<polygon fill="#ffffb3" stroke="black" points="1391.51,-122 1164.49,-122 1164.49,-86 1391.51,-86 1391.51,-122"/>
<text text-anchor="middle" x="1278" y="-99.8" font-family="Times,serif" font-size="14.00">ProductVariantsContainerComponent</text>
</g>
<!-- ProductVariantsContainerModule -->
<g id="node2" class="node">
<title>ProductVariantsContainerModule</title>
<polygon fill="#8dd3c7" stroke="black" points="790.73,-187 787.73,-191 766.73,-191 763.73,-187 585.27,-187 585.27,-151 790.73,-151 790.73,-187"/>
<text text-anchor="middle" x="688" y="-164.8" font-family="Times,serif" font-size="14.00">ProductVariantsContainerModule</text>
</g>
<!-- ProductVariantsContainerComponent&#45;&gt;ProductVariantsContainerModule -->
<g id="edge1" class="edge">
<title>ProductVariantsContainerComponent&#45;&gt;ProductVariantsContainerModule</title>
<path fill="none" stroke="black" d="M1278,-122.29C1278,-144.21 1278,-178 1278,-178 1278,-178 800.77,-178 800.77,-178"/>
<polygon fill="black" stroke="black" points="800.77,-174.5 790.77,-178 800.77,-181.5 800.77,-174.5"/>
</g>
<!-- ProductVariantStyleIconsComponent  -->
<g id="node9" class="node">
<title>ProductVariantStyleIconsComponent </title>
<polygon fill="#fb8072" stroke="black" points="802.96,-252 573.04,-252 573.04,-216 802.96,-216 802.96,-252"/>
<text text-anchor="middle" x="688" y="-229.8" font-family="Times,serif" font-size="14.00">ProductVariantStyleIconsComponent </text>
</g>
<!-- ProductVariantsContainerModule&#45;&gt;ProductVariantStyleIconsComponent  -->
<g id="edge8" class="edge">
<title>ProductVariantsContainerModule&#45;&gt;ProductVariantStyleIconsComponent </title>
<path fill="none" stroke="black" stroke-dasharray="5,2" d="M688,-187.11C688,-187.11 688,-205.99 688,-205.99"/>
<polygon fill="black" stroke="black" points="684.5,-205.99 688,-215.99 691.5,-205.99 684.5,-205.99"/>
</g>
<!-- I18nModule -->
<g id="node3" class="node">
<title>I18nModule</title>
<polygon fill="#8dd3c7" stroke="black" points="1139.71,-122 1136.71,-126 1115.71,-126 1112.71,-122 1054.29,-122 1054.29,-86 1139.71,-86 1139.71,-122"/>
<text text-anchor="middle" x="1097" y="-99.8" font-family="Times,serif" font-size="14.00">I18nModule</text>
</g>
<!-- I18nModule&#45;&gt;ProductVariantsContainerModule -->
<g id="edge2" class="edge">
<title>I18nModule&#45;&gt;ProductVariantsContainerModule</title>
<path fill="none" stroke="black" d="M1097,-122.11C1097,-141.34 1097,-169 1097,-169 1097,-169 800.94,-169 800.94,-169"/>
<polygon fill="black" stroke="black" points="800.94,-165.5 790.94,-169 800.94,-172.5 800.94,-165.5"/>
</g>
<!-- ProductVariantColorSelectorModule -->
<g id="node4" class="node">
<title>ProductVariantColorSelectorModule</title>
<polygon fill="#8dd3c7" stroke="black" points="1036.33,-122 1033.33,-126 1012.33,-126 1009.33,-122 813.67,-122 813.67,-86 1036.33,-86 1036.33,-122"/>
<text text-anchor="middle" x="925" y="-99.8" font-family="Times,serif" font-size="14.00">ProductVariantColorSelectorModule</text>
</g>
<!-- ProductVariantColorSelectorModule&#45;&gt;ProductVariantsContainerModule -->
<g id="edge3" class="edge">
<title>ProductVariantColorSelectorModule&#45;&gt;ProductVariantsContainerModule</title>
<path fill="none" stroke="black" d="M925,-122.03C925,-138.4 925,-160 925,-160 925,-160 800.92,-160 800.92,-160"/>
<polygon fill="black" stroke="black" points="800.92,-156.5 790.92,-160 800.92,-163.5 800.92,-156.5"/>
</g>
<!-- ProductVariantSizeSelectorModule -->
<g id="node5" class="node">
<title>ProductVariantSizeSelectorModule</title>
<polygon fill="#8dd3c7" stroke="black" points="795.55,-122 792.55,-126 771.55,-126 768.55,-122 580.45,-122 580.45,-86 795.55,-86 795.55,-122"/>
<text text-anchor="middle" x="688" y="-99.8" font-family="Times,serif" font-size="14.00">ProductVariantSizeSelectorModule</text>
</g>
<!-- ProductVariantSizeSelectorModule&#45;&gt;ProductVariantsContainerModule -->
<g id="edge4" class="edge">
<title>ProductVariantSizeSelectorModule&#45;&gt;ProductVariantsContainerModule</title>
<path fill="none" stroke="black" d="M688,-122.11C688,-122.11 688,-140.99 688,-140.99"/>
<polygon fill="black" stroke="black" points="684.5,-140.99 688,-150.99 691.5,-140.99 684.5,-140.99"/>
</g>
<!-- ProductVariantStyleIconsModule -->
<g id="node6" class="node">
<title>ProductVariantStyleIconsModule</title>
<polygon fill="#8dd3c7" stroke="black" points="562.17,-122 559.17,-126 538.17,-126 535.17,-122 357.83,-122 357.83,-86 562.17,-86 562.17,-122"/>
<text text-anchor="middle" x="460" y="-99.8" font-family="Times,serif" font-size="14.00">ProductVariantStyleIconsModule</text>
</g>
<!-- ProductVariantStyleIconsModule&#45;&gt;ProductVariantsContainerModule -->
<g id="edge5" class="edge">
<title>ProductVariantStyleIconsModule&#45;&gt;ProductVariantsContainerModule</title>
<path fill="none" stroke="black" d="M460,-122.03C460,-138.4 460,-160 460,-160 460,-160 575.01,-160 575.01,-160"/>
<polygon fill="black" stroke="black" points="575.01,-163.5 585.01,-160 575.01,-156.5 575.01,-163.5"/>
</g>
<!-- ProductVariantStyleSelectorModule -->
<g id="node7" class="node">
<title>ProductVariantStyleSelectorModule</title>
<polygon fill="#8dd3c7" stroke="black" points="339.72,-122 336.72,-126 315.72,-126 312.72,-122 120.28,-122 120.28,-86 339.72,-86 339.72,-122"/>
<text text-anchor="middle" x="230" y="-99.8" font-family="Times,serif" font-size="14.00">ProductVariantStyleSelectorModule</text>
</g>
<!-- ProductVariantStyleSelectorModule&#45;&gt;ProductVariantsContainerModule -->
<g id="edge6" class="edge">
<title>ProductVariantStyleSelectorModule&#45;&gt;ProductVariantsContainerModule</title>
<path fill="none" stroke="black" d="M230,-122.11C230,-141.34 230,-169 230,-169 230,-169 575.22,-169 575.22,-169"/>
<polygon fill="black" stroke="black" points="575.22,-172.5 585.22,-169 575.22,-165.5 575.22,-172.5"/>
</g>
<!-- UrlModule -->
<g id="node8" class="node">
<title>UrlModule</title>
<polygon fill="#8dd3c7" stroke="black" points="102.21,-122 99.21,-126 78.21,-126 75.21,-122 23.79,-122 23.79,-86 102.21,-86 102.21,-122"/>
<text text-anchor="middle" x="63" y="-99.8" font-family="Times,serif" font-size="14.00">UrlModule</text>
</g>
<!-- UrlModule&#45;&gt;ProductVariantsContainerModule -->
<g id="edge7" class="edge">
<title>UrlModule&#45;&gt;ProductVariantsContainerModule</title>
<path fill="none" stroke="black" d="M63,-122.29C63,-144.21 63,-178 63,-178 63,-178 575.14,-178 575.14,-178"/>
<polygon fill="black" stroke="black" points="575.14,-181.5 585.14,-178 575.14,-174.5 575.14,-181.5"/>
</g>
</g>
</svg>
