<?xml version="1.0" encoding="UTF-8" standalone="no"?>
<!DOCTYPE svg PUBLIC "-//W3C//DTD SVG 1.1//EN"
 "http://www.w3.org/Graphics/SVG/1.1/DTD/svg11.dtd">
<!-- Generated by graphviz version 2.40.1 (20161225.0304)
 -->
<!-- Title: dependencies Pages: 1 -->
<svg width="666pt" height="284pt"
 viewBox="0.00 0.00 666.00 284.00" xmlns="http://www.w3.org/2000/svg" xmlns:xlink="http://www.w3.org/1999/xlink">
<g id="graph0" class="graph" transform="scale(1 1) rotate(0) translate(4 280)">
<title>dependencies</title>
<polygon fill="#ffffff" stroke="transparent" points="-4,4 -4,-280 662,-280 662,4 -4,4"/>
<text text-anchor="start" x="308.0091" y="-42.4" font-family="sans-serif" font-weight="bold" font-size="14.00" fill="#000000">Legend</text>
<polygon fill="#ffffb3" stroke="transparent" points="95,-10 95,-30 115,-30 115,-10 95,-10"/>
<text text-anchor="start" x="118.629" y="-15.4" font-family="sans-serif" font-size="14.00" fill="#000000"> &#160;Declarations</text>
<polygon fill="#8dd3c7" stroke="transparent" points="208,-10 208,-30 228,-30 228,-10 208,-10"/>
<text text-anchor="start" x="231.7251" y="-15.4" font-family="sans-serif" font-size="14.00" fill="#000000"> &#160;Module</text>
<polygon fill="#80b1d3" stroke="transparent" points="294,-10 294,-30 314,-30 314,-10 294,-10"/>
<text text-anchor="start" x="317.7812" y="-15.4" font-family="sans-serif" font-size="14.00" fill="#000000"> &#160;Bootstrap</text>
<polygon fill="#fdb462" stroke="transparent" points="391,-10 391,-30 411,-30 411,-10 391,-10"/>
<text text-anchor="start" x="414.6732" y="-15.4" font-family="sans-serif" font-size="14.00" fill="#000000"> &#160;Providers</text>
<polygon fill="#fb8072" stroke="transparent" points="487,-10 487,-30 507,-30 507,-10 487,-10"/>
<text text-anchor="start" x="510.7258" y="-15.4" font-family="sans-serif" font-size="14.00" fill="#000000"> &#160;Exports</text>
<g id="clust1" class="cluster">
<title>cluster_FormComponentsModule</title>
<polygon fill="none" stroke="#000000" stroke-dasharray="1,5" points="8,-70 8,-268 650,-268 650,-70 8,-70"/>
</g>
<g id="clust2" class="cluster">
<title>cluster_FormComponentsModule_declarations</title>
<polygon fill="none" stroke="#000000" points="154,-78 154,-130 642,-130 642,-78 154,-78"/>
</g>
<g id="clust6" class="cluster">
<title>cluster_FormComponentsModule_imports</title>
<polygon fill="none" stroke="#000000" points="16,-78 16,-130 146,-130 146,-78 16,-78"/>
</g>
<g id="clust7" class="cluster">
<title>cluster_FormComponentsModule_exports</title>
<polygon fill="none" stroke="#000000" points="146,-208 146,-260 480,-260 480,-208 146,-208"/>
</g>
<!-- ItemCounterComponent -->
<g id="node1" class="node">
<title>ItemCounterComponent</title>
<polygon fill="#ffffb3" stroke="#000000" points="634.0912,-122 481.9088,-122 481.9088,-86 634.0912,-86 634.0912,-122"/>
<text text-anchor="middle" x="558" y="-99.8" font-family="Times,serif" font-size="14.00" fill="#000000">ItemCounterComponent</text>
</g>
<!-- FormComponentsModule -->
<g id="node4" class="node">
<title>FormComponentsModule</title>
<polygon fill="#8dd3c7" stroke="#000000" points="390.161,-187 387.161,-191 366.161,-191 363.161,-187 229.839,-187 229.839,-151 390.161,-151 390.161,-187"/>
<text text-anchor="middle" x="310" y="-164.8" font-family="Times,serif" font-size="14.00" fill="#000000">FormComponentsModule</text>
</g>
<!-- ItemCounterComponent&#45;&gt;FormComponentsModule -->
<g id="edge1" class="edge">
<title>ItemCounterComponent&#45;&gt;FormComponentsModule</title>
<path fill="none" stroke="#000000" d="M558,-122.1061C558,-141.3391 558,-169 558,-169 558,-169 400.176,-169 400.176,-169"/>
<polygon fill="#000000" stroke="#000000" points="400.176,-165.5001 390.176,-169 400.176,-172.5001 400.176,-165.5001"/>
</g>
<!-- OnlyNumberDirective -->
<g id="node2" class="node">
<title>OnlyNumberDirective</title>
<polygon fill="#ffffb3" stroke="#000000" points="463.9524,-122 322.0476,-122 322.0476,-86 463.9524,-86 463.9524,-122"/>
<text text-anchor="middle" x="393" y="-99.8" font-family="Times,serif" font-size="14.00" fill="#000000">OnlyNumberDirective</text>
</g>
<!-- OnlyNumberDirective&#45;&gt;FormComponentsModule -->
<g id="edge2" class="edge">
<title>OnlyNumberDirective&#45;&gt;FormComponentsModule</title>
<path fill="none" stroke="#000000" d="M356.1771,-122.1061C356.1771,-122.1061 356.1771,-140.991 356.1771,-140.991"/>
<polygon fill="#000000" stroke="#000000" points="352.6771,-140.9909 356.1771,-150.991 359.6771,-140.991 352.6771,-140.9909"/>
</g>
<!-- StarRatingComponent -->
<g id="node3" class="node">
<title>StarRatingComponent</title>
<polygon fill="#ffffb3" stroke="#000000" points="303.7134,-122 162.2866,-122 162.2866,-86 303.7134,-86 303.7134,-122"/>
<text text-anchor="middle" x="233" y="-99.8" font-family="Times,serif" font-size="14.00" fill="#000000">StarRatingComponent</text>
</g>
<!-- StarRatingComponent&#45;&gt;FormComponentsModule -->
<g id="edge3" class="edge">
<title>StarRatingComponent&#45;&gt;FormComponentsModule</title>
<path fill="none" stroke="#000000" d="M266.6382,-122.1061C266.6382,-122.1061 266.6382,-140.991 266.6382,-140.991"/>
<polygon fill="#000000" stroke="#000000" points="263.1382,-140.9909 266.6382,-150.991 270.1382,-140.991 263.1382,-140.9909"/>
</g>
<!-- ItemCounterComponent  -->
<g id="node6" class="node">
<title>ItemCounterComponent </title>
<polygon fill="#fb8072" stroke="#000000" points="471.5917,-252 316.4083,-252 316.4083,-216 471.5917,-216 471.5917,-252"/>
<text text-anchor="middle" x="394" y="-229.8" font-family="Times,serif" font-size="14.00" fill="#000000">ItemCounterComponent </text>
</g>
<!-- FormComponentsModule&#45;&gt;ItemCounterComponent  -->
<g id="edge5" class="edge">
<title>FormComponentsModule&#45;&gt;ItemCounterComponent </title>
<path fill="none" stroke="#000000" stroke-dasharray="5,2" d="M353.2673,-187.1061C353.2673,-187.1061 353.2673,-205.991 353.2673,-205.991"/>
<polygon fill="#000000" stroke="#000000" points="349.7674,-205.9909 353.2673,-215.991 356.7674,-205.991 349.7674,-205.9909"/>
</g>
<!-- StarRatingComponent  -->
<g id="node7" class="node">
<title>StarRatingComponent </title>
<polygon fill="#fb8072" stroke="#000000" points="298.2135,-252 153.7865,-252 153.7865,-216 298.2135,-216 298.2135,-252"/>
<text text-anchor="middle" x="226" y="-229.8" font-family="Times,serif" font-size="14.00" fill="#000000">StarRatingComponent </text>
</g>
<!-- FormComponentsModule&#45;&gt;StarRatingComponent  -->
<g id="edge6" class="edge">
<title>FormComponentsModule&#45;&gt;StarRatingComponent </title>
<path fill="none" stroke="#000000" stroke-dasharray="5,2" d="M264.0132,-187.1061C264.0132,-187.1061 264.0132,-205.991 264.0132,-205.991"/>
<polygon fill="#000000" stroke="#000000" points="260.5132,-205.9909 264.0132,-215.991 267.5132,-205.991 260.5132,-205.9909"/>
</g>
<!-- BootstrapModule -->
<g id="node5" class="node">
<title>BootstrapModule</title>
<polygon fill="#8dd3c7" stroke="#000000" points="137.9874,-122 134.9874,-126 113.9874,-126 110.9874,-122 24.0126,-122 24.0126,-86 137.9874,-86 137.9874,-122"/>
<text text-anchor="middle" x="81" y="-99.8" font-family="Times,serif" font-size="14.00" fill="#000000">BootstrapModule</text>
</g>
<!-- BootstrapModule&#45;&gt;FormComponentsModule -->
<g id="edge4" class="edge">
<title>BootstrapModule&#45;&gt;FormComponentsModule</title>
<path fill="none" stroke="#000000" d="M81,-122.1061C81,-141.3391 81,-169 81,-169 81,-169 219.5852,-169 219.5852,-169"/>
<polygon fill="#000000" stroke="#000000" points="219.5852,-172.5001 229.5852,-169 219.5851,-165.5001 219.5852,-172.5001"/>
</g>
</g>
</svg>
