<?xml version="1.0" encoding="UTF-8" standalone="no"?>
<!DOCTYPE svg PUBLIC "-//W3C//DTD SVG 1.1//EN"
 "http://www.w3.org/Graphics/SVG/1.1/DTD/svg11.dtd">
<!-- Generated by graphviz version 2.40.1 (20161225.0304)
 -->
<!-- Title: dependencies Pages: 1 -->
<svg width="504pt" height="284pt"
 viewBox="0.00 0.00 504.00 284.00" xmlns="http://www.w3.org/2000/svg" xmlns:xlink="http://www.w3.org/1999/xlink">
<g id="graph0" class="graph" transform="scale(1 1) rotate(0) translate(4 280)">
<title>dependencies</title>
<polygon fill="#ffffff" stroke="transparent" points="-4,4 -4,-280 500,-280 500,4 -4,4"/>
<text text-anchor="start" x="227.0091" y="-42.4" font-family="sans-serif" font-weight="bold" font-size="14.00" fill="#000000">Legend</text>
<polygon fill="#ffffb3" stroke="transparent" points="14,-10 14,-30 34,-30 34,-10 14,-10"/>
<text text-anchor="start" x="37.629" y="-15.4" font-family="sans-serif" font-size="14.00" fill="#000000"> &#160;Declarations</text>
<polygon fill="#8dd3c7" stroke="transparent" points="127,-10 127,-30 147,-30 147,-10 127,-10"/>
<text text-anchor="start" x="150.7251" y="-15.4" font-family="sans-serif" font-size="14.00" fill="#000000"> &#160;Module</text>
<polygon fill="#80b1d3" stroke="transparent" points="213,-10 213,-30 233,-30 233,-10 213,-10"/>
<text text-anchor="start" x="236.7812" y="-15.4" font-family="sans-serif" font-size="14.00" fill="#000000"> &#160;Bootstrap</text>
<polygon fill="#fdb462" stroke="transparent" points="310,-10 310,-30 330,-30 330,-10 310,-10"/>
<text text-anchor="start" x="333.6732" y="-15.4" font-family="sans-serif" font-size="14.00" fill="#000000"> &#160;Providers</text>
<polygon fill="#fb8072" stroke="transparent" points="406,-10 406,-30 426,-30 426,-10 406,-10"/>
<text text-anchor="start" x="429.7258" y="-15.4" font-family="sans-serif" font-size="14.00" fill="#000000"> &#160;Exports</text>
<g id="clust1" class="cluster">
<title>cluster_B2cStorefrontModule</title>
<polygon fill="none" stroke="#000000" stroke-dasharray="1,5" points="113,-70 113,-268 383,-268 383,-70 113,-70"/>
</g>
<g id="clust3" class="cluster">
<title>cluster_B2cStorefrontModule_imports</title>
<polygon fill="none" stroke="#000000" points="121,-78 121,-130 375,-130 375,-78 121,-78"/>
</g>
<g id="clust4" class="cluster">
<title>cluster_B2cStorefrontModule_exports</title>
<polygon fill="none" stroke="#000000" points="180,-208 180,-260 316,-260 316,-208 180,-208"/>
</g>
<!-- CmsLibModule -->
<g id="node1" class="node">
<title>CmsLibModule</title>
<polygon fill="#8dd3c7" stroke="#000000" points="367.1653,-122 364.1653,-126 343.1653,-126 340.1653,-122 262.8347,-122 262.8347,-86 367.1653,-86 367.1653,-122"/>
<text text-anchor="middle" x="315" y="-99.8" font-family="Times,serif" font-size="14.00" fill="#000000">CmsLibModule</text>
</g>
<!-- B2cStorefrontModule -->
<g id="node3" class="node">
<title>B2cStorefrontModule</title>
<polygon fill="#8dd3c7" stroke="#000000" points="317.3613,-187 314.3613,-191 293.3613,-191 290.3613,-187 178.6387,-187 178.6387,-151 317.3613,-151 317.3613,-187"/>
<text text-anchor="middle" x="248" y="-164.8" font-family="Times,serif" font-size="14.00" fill="#000000">B2cStorefrontModule</text>
</g>
<!-- CmsLibModule&#45;&gt;B2cStorefrontModule -->
<g id="edge1" class="edge">
<title>CmsLibModule&#45;&gt;B2cStorefrontModule</title>
<path fill="none" stroke="#000000" d="M290.0491,-122.1061C290.0491,-122.1061 290.0491,-140.991 290.0491,-140.991"/>
<polygon fill="#000000" stroke="#000000" points="286.5492,-140.9909 290.0491,-150.991 293.5492,-140.991 286.5492,-140.9909"/>
</g>
<!-- StorefrontModule -->
<g id="node2" class="node">
<title>StorefrontModule</title>
<polygon fill="#8dd3c7" stroke="#000000" points="245.3104,-122 242.3104,-126 221.3104,-126 218.3104,-122 128.6896,-122 128.6896,-86 245.3104,-86 245.3104,-122"/>
<text text-anchor="middle" x="187" y="-99.8" font-family="Times,serif" font-size="14.00" fill="#000000">StorefrontModule</text>
</g>
<!-- StorefrontModule&#45;&gt;B2cStorefrontModule -->
<g id="edge2" class="edge">
<title>StorefrontModule&#45;&gt;B2cStorefrontModule</title>
<path fill="none" stroke="#000000" d="M211.8622,-122.1061C211.8622,-122.1061 211.8622,-140.991 211.8622,-140.991"/>
<polygon fill="#000000" stroke="#000000" points="208.3623,-140.9909 211.8622,-150.991 215.3623,-140.991 208.3623,-140.9909"/>
</g>
<!-- StorefrontModule  -->
<g id="node4" class="node">
<title>StorefrontModule </title>
<polygon fill="#fb8072" stroke="#000000" points="307.8102,-252 188.1898,-252 188.1898,-216 307.8102,-216 307.8102,-252"/>
<text text-anchor="middle" x="248" y="-229.8" font-family="Times,serif" font-size="14.00" fill="#000000">StorefrontModule </text>
</g>
<!-- B2cStorefrontModule&#45;&gt;StorefrontModule  -->
<g id="edge3" class="edge">
<title>B2cStorefrontModule&#45;&gt;StorefrontModule </title>
<path fill="none" stroke="#000000" stroke-dasharray="5,2" d="M248,-187.1061C248,-187.1061 248,-205.991 248,-205.991"/>
<polygon fill="#000000" stroke="#000000" points="244.5001,-205.9909 248,-215.991 251.5001,-205.991 244.5001,-205.9909"/>
</g>
</g>
</svg>
