<?xml version="1.0" encoding="UTF-8" standalone="no"?>
<!DOCTYPE svg PUBLIC "-//W3C//DTD SVG 1.1//EN"
 "http://www.w3.org/Graphics/SVG/1.1/DTD/svg11.dtd">
<!-- Generated by graphviz version 2.40.1 (20161225.0304)
 -->
<!-- Title: dependencies Pages: 1 -->
<svg width="504pt" height="284pt"
 viewBox="0.00 0.00 504.00 284.00" xmlns="http://www.w3.org/2000/svg" xmlns:xlink="http://www.w3.org/1999/xlink">
<g id="graph0" class="graph" transform="scale(1 1) rotate(0) translate(4 280)">
<title>dependencies</title>
<polygon fill="#ffffff" stroke="transparent" points="-4,4 -4,-280 500,-280 500,4 -4,4"/>
<text text-anchor="start" x="227.0091" y="-42.4" font-family="sans-serif" font-weight="bold" font-size="14.00" fill="#000000">Legend</text>
<polygon fill="#ffffb3" stroke="transparent" points="14,-10 14,-30 34,-30 34,-10 14,-10"/>
<text text-anchor="start" x="37.629" y="-15.4" font-family="sans-serif" font-size="14.00" fill="#000000"> &#160;Declarations</text>
<polygon fill="#8dd3c7" stroke="transparent" points="127,-10 127,-30 147,-30 147,-10 127,-10"/>
<text text-anchor="start" x="150.7251" y="-15.4" font-family="sans-serif" font-size="14.00" fill="#000000"> &#160;Module</text>
<polygon fill="#80b1d3" stroke="transparent" points="213,-10 213,-30 233,-30 233,-10 213,-10"/>
<text text-anchor="start" x="236.7812" y="-15.4" font-family="sans-serif" font-size="14.00" fill="#000000"> &#160;Bootstrap</text>
<polygon fill="#fdb462" stroke="transparent" points="310,-10 310,-30 330,-30 330,-10 310,-10"/>
<text text-anchor="start" x="333.6732" y="-15.4" font-family="sans-serif" font-size="14.00" fill="#000000"> &#160;Providers</text>
<polygon fill="#fb8072" stroke="transparent" points="406,-10 406,-30 426,-30 426,-10 406,-10"/>
<text text-anchor="start" x="429.7258" y="-15.4" font-family="sans-serif" font-size="14.00" fill="#000000"> &#160;Exports</text>
<g id="clust1" class="cluster">
<title>cluster_ReviewSubmitModule</title>
<polygon fill="none" stroke="#000000" stroke-dasharray="1,5" points="24.5,-70 24.5,-268 471.5,-268 471.5,-70 24.5,-70"/>
</g>
<g id="clust2" class="cluster">
<title>cluster_ReviewSubmitModule_declarations</title>
<polygon fill="none" stroke="#000000" points="283.5,-78 283.5,-130 463.5,-130 463.5,-78 283.5,-78"/>
</g>
<g id="clust4" class="cluster">
<title>cluster_ReviewSubmitModule_imports</title>
<polygon fill="none" stroke="#000000" points="32.5,-78 32.5,-130 275.5,-130 275.5,-78 32.5,-78"/>
</g>
<g id="clust5" class="cluster">
<title>cluster_ReviewSubmitModule_exports</title>
<polygon fill="none" stroke="#000000" points="132.5,-208 132.5,-260 316.5,-260 316.5,-208 132.5,-208"/>
</g>
<!-- ReviewSubmitComponent -->
<g id="node1" class="node">
<title>ReviewSubmitComponent</title>
<polygon fill="#ffffb3" stroke="#000000" points="455.5504,-122 291.4496,-122 291.4496,-86 455.5504,-86 455.5504,-122"/>
<text text-anchor="middle" x="373.5" y="-99.8" font-family="Times,serif" font-size="14.00" fill="#000000">ReviewSubmitComponent</text>
</g>
<!-- ReviewSubmitModule -->
<g id="node2" class="node">
<title>ReviewSubmitModule</title>
<polygon fill="#8dd3c7" stroke="#000000" points="295.7674,-187 292.7674,-191 271.7674,-191 268.7674,-187 153.2326,-187 153.2326,-151 295.7674,-151 295.7674,-187"/>
<text text-anchor="middle" x="224.5" y="-164.8" font-family="Times,serif" font-size="14.00" fill="#000000">ReviewSubmitModule</text>
</g>
<!-- ReviewSubmitComponent&#45;&gt;ReviewSubmitModule -->
<g id="edge1" class="edge">
<title>ReviewSubmitComponent&#45;&gt;ReviewSubmitModule</title>
<path fill="none" stroke="#000000" d="M302.2043,-122.1061C302.2043,-141.3391 302.2043,-169 302.2043,-169 302.2043,-169 301.5684,-169 301.5684,-169"/>
<polygon fill="#000000" stroke="#000000" points="305.8454,-165.5002 295.8454,-169 305.8453,-172.5002 305.8454,-165.5002"/>
</g>
<!-- ReviewSubmitComponent  -->
<g id="node5" class="node">
<title>ReviewSubmitComponent </title>
<polygon fill="#fb8072" stroke="#000000" points="308.5498,-252 140.4502,-252 140.4502,-216 308.5498,-216 308.5498,-252"/>
<text text-anchor="middle" x="224.5" y="-229.8" font-family="Times,serif" font-size="14.00" fill="#000000">ReviewSubmitComponent </text>
</g>
<!-- ReviewSubmitModule&#45;&gt;ReviewSubmitComponent  -->
<g id="edge4" class="edge">
<title>ReviewSubmitModule&#45;&gt;ReviewSubmitComponent </title>
<path fill="none" stroke="#000000" stroke-dasharray="5,2" d="M224.5,-187.1061C224.5,-187.1061 224.5,-205.991 224.5,-205.991"/>
<polygon fill="#000000" stroke="#000000" points="221.0001,-205.9909 224.5,-215.991 228.0001,-205.991 221.0001,-205.9909"/>
</g>
<!-- CardModule -->
<g id="node3" class="node">
<title>CardModule</title>
<polygon fill="#8dd3c7" stroke="#000000" points="267.7619,-122 264.7619,-126 243.7619,-126 240.7619,-122 181.2381,-122 181.2381,-86 267.7619,-86 267.7619,-122"/>
<text text-anchor="middle" x="224.5" y="-99.8" font-family="Times,serif" font-size="14.00" fill="#000000">CardModule</text>
</g>
<!-- CardModule&#45;&gt;ReviewSubmitModule -->
<g id="edge2" class="edge">
<title>CardModule&#45;&gt;ReviewSubmitModule</title>
<path fill="none" stroke="#000000" d="M224.5,-122.1061C224.5,-122.1061 224.5,-140.991 224.5,-140.991"/>
<polygon fill="#000000" stroke="#000000" points="221.0001,-140.9909 224.5,-150.991 228.0001,-140.991 221.0001,-140.9909"/>
</g>
<!-- CartSharedModule -->
<g id="node4" class="node">
<title>CartSharedModule</title>
<polygon fill="#8dd3c7" stroke="#000000" points="162.5255,-122 159.5255,-126 138.5255,-126 135.5255,-122 40.4745,-122 40.4745,-86 162.5255,-86 162.5255,-122"/>
<text text-anchor="middle" x="101.5" y="-99.8" font-family="Times,serif" font-size="14.00" fill="#000000">CartSharedModule</text>
</g>
<!-- CartSharedModule&#45;&gt;ReviewSubmitModule -->
<g id="edge3" class="edge">
<title>CartSharedModule&#45;&gt;ReviewSubmitModule</title>
<path fill="none" stroke="#000000" d="M157.9394,-122.1061C157.9394,-122.1061 157.9394,-140.991 157.9394,-140.991"/>
<polygon fill="#000000" stroke="#000000" points="154.4394,-140.9909 157.9394,-150.991 161.4394,-140.991 154.4394,-140.9909"/>
</g>
</g>
</svg>
