<?xml version="1.0" encoding="UTF-8" standalone="no"?>
<!DOCTYPE svg PUBLIC "-//W3C//DTD SVG 1.1//EN"
 "http://www.w3.org/Graphics/SVG/1.1/DTD/svg11.dtd">
<!-- Generated by graphviz version 2.47.3 (20210619.1520)
 -->
<!-- Title: dependencies Pages: 1 -->
<svg width="398pt" height="247pt"
 viewBox="0.00 0.00 398.00 246.80" xmlns="http://www.w3.org/2000/svg" xmlns:xlink="http://www.w3.org/1999/xlink">
<g id="graph0" class="graph" transform="scale(1 1) rotate(0) translate(4 242.8)">
<title>dependencies</title>
<polygon fill="white" stroke="transparent" points="-4,4 -4,-242.8 394,-242.8 394,4 -4,4"/>
<text text-anchor="middle" x="195" y="-8.2" font-family="sans-serif" font-size="14.00">dependencies</text>
<g id="clust1" class="cluster">
<title>cluster_MessageComponentModule</title>
<polygon fill="none" stroke="black" stroke-dasharray="1,5" points="8,-32.8 8,-230.8 382,-230.8 382,-32.8 8,-32.8"/>
</g>
<g id="clust2" class="cluster">
<title>cluster_MessageComponentModule_declarations</title>
<polygon fill="none" stroke="black" points="228,-40.8 228,-92.8 374,-92.8 374,-40.8 228,-40.8"/>
</g>
<g id="clust5" class="cluster">
<title>cluster_MessageComponentModule_exports</title>
<polygon fill="none" stroke="black" points="94,-170.8 94,-222.8 244,-222.8 244,-170.8 94,-170.8"/>
</g>
<g id="clust4" class="cluster">
<title>cluster_MessageComponentModule_imports</title>
<polygon fill="none" stroke="black" points="16,-40.8 16,-92.8 220,-92.8 220,-40.8 16,-40.8"/>
</g>
<!-- MessageComponent -->
<g id="node1" class="node">
<title>MessageComponent</title>
<polygon fill="#ffffb3" stroke="black" points="366.31,-84.8 235.69,-84.8 235.69,-48.8 366.31,-48.8 366.31,-84.8"/>
<text text-anchor="middle" x="301" y="-62.6" font-family="Times,serif" font-size="14.00">MessageComponent</text>
</g>
<!-- MessageComponentModule -->
<g id="node2" class="node">
<title>MessageComponentModule</title>
<polygon fill="#8dd3c7" stroke="black" points="255.86,-149.8 252.86,-153.8 231.86,-153.8 228.86,-149.8 82.14,-149.8 82.14,-113.8 255.86,-113.8 255.86,-149.8"/>
<text text-anchor="middle" x="169" y="-127.6" font-family="Times,serif" font-size="14.00">MessageComponentModule</text>
</g>
<!-- MessageComponent&#45;&gt;MessageComponentModule -->
<g id="edge1" class="edge">
<title>MessageComponent&#45;&gt;MessageComponentModule</title>
<path fill="none" stroke="black" d="M245.89,-84.91C245.89,-84.91 245.89,-103.79 245.89,-103.79"/>
<polygon fill="black" stroke="black" points="242.39,-103.79 245.89,-113.79 249.39,-103.79 242.39,-103.79"/>
</g>
<!-- MessageComponent  -->
<g id="node5" class="node">
<title>MessageComponent </title>
<polygon fill="#fb8072" stroke="black" points="235.81,-214.8 102.19,-214.8 102.19,-178.8 235.81,-178.8 235.81,-214.8"/>
<text text-anchor="middle" x="169" y="-192.6" font-family="Times,serif" font-size="14.00">MessageComponent </text>
</g>
<!-- MessageComponentModule&#45;&gt;MessageComponent  -->
<g id="edge4" class="edge">
<title>MessageComponentModule&#45;&gt;MessageComponent </title>
<path fill="none" stroke="black" stroke-dasharray="5,2" d="M169,-149.91C169,-149.91 169,-168.79 169,-168.79"/>
<polygon fill="black" stroke="black" points="165.5,-168.79 169,-178.79 172.5,-168.79 165.5,-168.79"/>
</g>
<!-- I18nModule -->
<g id="node3" class="node">
<title>I18nModule</title>
<polygon fill="#8dd3c7" stroke="black" points="211.71,-84.8 208.71,-88.8 187.71,-88.8 184.71,-84.8 126.29,-84.8 126.29,-48.8 211.71,-48.8 211.71,-84.8"/>
<text text-anchor="middle" x="169" y="-62.6" font-family="Times,serif" font-size="14.00">I18nModule</text>
</g>
<!-- I18nModule&#45;&gt;MessageComponentModule -->
<g id="edge2" class="edge">
<title>I18nModule&#45;&gt;MessageComponentModule</title>
<path fill="none" stroke="black" d="M169,-84.91C169,-84.91 169,-103.79 169,-103.79"/>
<polygon fill="black" stroke="black" points="165.5,-103.79 169,-113.79 172.5,-103.79 165.5,-103.79"/>
</g>
<!-- IconModule -->
<g id="node4" class="node">
<title>IconModule</title>
<polygon fill="#8dd3c7" stroke="black" points="108.43,-84.8 105.43,-88.8 84.43,-88.8 81.43,-84.8 23.57,-84.8 23.57,-48.8 108.43,-48.8 108.43,-84.8"/>
<text text-anchor="middle" x="66" y="-62.6" font-family="Times,serif" font-size="14.00">IconModule</text>
</g>
<!-- IconModule&#45;&gt;MessageComponentModule -->
<g id="edge3" class="edge">
<title>IconModule&#45;&gt;MessageComponentModule</title>
<path fill="none" stroke="black" d="M95.14,-84.91C95.14,-84.91 95.14,-103.79 95.14,-103.79"/>
<polygon fill="black" stroke="black" points="91.64,-103.79 95.14,-113.79 98.64,-103.79 91.64,-103.79"/>
</g>
</g>
</svg>
