<?xml version="1.0" encoding="UTF-8" standalone="no"?>
<!DOCTYPE svg PUBLIC "-//W3C//DTD SVG 1.1//EN"
 "http://www.w3.org/Graphics/SVG/1.1/DTD/svg11.dtd">
<!-- Generated by graphviz version 2.40.1 (20161225.0304)
 -->
<!-- Title: dependencies Pages: 1 -->
<svg width="642pt" height="211pt"
 viewBox="0.00 0.00 642.00 211.00" xmlns="http://www.w3.org/2000/svg" xmlns:xlink="http://www.w3.org/1999/xlink">
<g id="graph0" class="graph" transform="scale(1 1) rotate(0) translate(4 207)">
<title>dependencies</title>
<polygon fill="#ffffff" stroke="transparent" points="-4,4 -4,-207 638,-207 638,4 -4,4"/>
<text text-anchor="start" x="296.0091" y="-42.4" font-family="sans-serif" font-weight="bold" font-size="14.00" fill="#000000">Legend</text>
<polygon fill="#ffffb3" stroke="transparent" points="83,-10 83,-30 103,-30 103,-10 83,-10"/>
<text text-anchor="start" x="106.629" y="-15.4" font-family="sans-serif" font-size="14.00" fill="#000000"> &#160;Declarations</text>
<polygon fill="#8dd3c7" stroke="transparent" points="196,-10 196,-30 216,-30 216,-10 196,-10"/>
<text text-anchor="start" x="219.7251" y="-15.4" font-family="sans-serif" font-size="14.00" fill="#000000"> &#160;Module</text>
<polygon fill="#80b1d3" stroke="transparent" points="282,-10 282,-30 302,-30 302,-10 282,-10"/>
<text text-anchor="start" x="305.7812" y="-15.4" font-family="sans-serif" font-size="14.00" fill="#000000"> &#160;Bootstrap</text>
<polygon fill="#fdb462" stroke="transparent" points="379,-10 379,-30 399,-30 399,-10 379,-10"/>
<text text-anchor="start" x="402.6732" y="-15.4" font-family="sans-serif" font-size="14.00" fill="#000000"> &#160;Providers</text>
<polygon fill="#fb8072" stroke="transparent" points="475,-10 475,-30 495,-30 495,-10 475,-10"/>
<text text-anchor="start" x="498.7258" y="-15.4" font-family="sans-serif" font-size="14.00" fill="#000000"> &#160;Exports</text>
<g id="clust1" class="cluster">
<title>cluster_CategoryPageModule</title>
<polygon fill="none" stroke="#000000" stroke-dasharray="1,5" points="8,-70 8,-195 626,-195 626,-70 8,-70"/>
</g>
<g id="clust2" class="cluster">
<title>cluster_CategoryPageModule_declarations</title>
<polygon fill="none" stroke="#000000" points="442,-78 442,-130 618,-130 618,-78 442,-78"/>
</g>
<g id="clust4" class="cluster">
<title>cluster_CategoryPageModule_imports</title>
<polygon fill="none" stroke="#000000" points="16,-78 16,-130 434,-130 434,-78 16,-78"/>
</g>
<!-- CategoryPageComponent -->
<g id="node1" class="node">
<title>CategoryPageComponent</title>
<polygon fill="#ffffb3" stroke="#000000" points="609.8613,-122 450.1387,-122 450.1387,-86 609.8613,-86 609.8613,-122"/>
<text text-anchor="middle" x="530" y="-99.8" font-family="Times,serif" font-size="14.00" fill="#000000">CategoryPageComponent</text>
</g>
<!-- CategoryPageModule -->
<g id="node2" class="node">
<title>CategoryPageModule</title>
<polygon fill="#8dd3c7" stroke="#000000" points="368.0786,-187 365.0786,-191 344.0786,-191 341.0786,-187 229.9214,-187 229.9214,-151 368.0786,-151 368.0786,-187"/>
<text text-anchor="middle" x="299" y="-164.8" font-family="Times,serif" font-size="14.00" fill="#000000">CategoryPageModule</text>
</g>
<!-- CategoryPageComponent&#45;&gt;CategoryPageModule -->
<g id="edge1" class="edge">
<title>CategoryPageComponent&#45;&gt;CategoryPageModule</title>
<path fill="none" stroke="#000000" d="M530,-122.1061C530,-141.3391 530,-169 530,-169 530,-169 378.3076,-169 378.3076,-169"/>
<polygon fill="#000000" stroke="#000000" points="378.3077,-165.5001 368.3076,-169 378.3076,-172.5001 378.3077,-165.5001"/>
</g>
<!-- OutletRefModule -->
<g id="node3" class="node">
<title>OutletRefModule</title>
<polygon fill="#8dd3c7" stroke="#000000" points="426.2549,-122 423.2549,-126 402.2549,-126 399.2549,-122 311.7451,-122 311.7451,-86 426.2549,-86 426.2549,-122"/>
<text text-anchor="middle" x="369" y="-99.8" font-family="Times,serif" font-size="14.00" fill="#000000">OutletRefModule</text>
</g>
<!-- OutletRefModule&#45;&gt;CategoryPageModule -->
<g id="edge2" class="edge">
<title>OutletRefModule&#45;&gt;CategoryPageModule</title>
<path fill="none" stroke="#000000" d="M339.831,-122.1061C339.831,-122.1061 339.831,-140.991 339.831,-140.991"/>
<polygon fill="#000000" stroke="#000000" points="336.3311,-140.9909 339.831,-150.991 343.3311,-140.991 336.3311,-140.9909"/>
</g>
<!-- PageLayoutModule -->
<g id="node4" class="node">
<title>PageLayoutModule</title>
<polygon fill="#8dd3c7" stroke="#000000" points="293.4201,-122 290.4201,-126 269.4201,-126 266.4201,-122 166.5799,-122 166.5799,-86 293.4201,-86 293.4201,-122"/>
<text text-anchor="middle" x="230" y="-99.8" font-family="Times,serif" font-size="14.00" fill="#000000">PageLayoutModule</text>
</g>
<!-- PageLayoutModule&#45;&gt;CategoryPageModule -->
<g id="edge3" class="edge">
<title>PageLayoutModule&#45;&gt;CategoryPageModule</title>
<path fill="none" stroke="#000000" d="M261.5852,-122.1061C261.5852,-122.1061 261.5852,-140.991 261.5852,-140.991"/>
<polygon fill="#000000" stroke="#000000" points="258.0853,-140.9909 261.5852,-150.991 265.0853,-140.991 258.0853,-140.9909"/>
</g>
<!-- ProductListModule -->
<g id="node5" class="node">
<title>ProductListModule</title>
<polygon fill="#8dd3c7" stroke="#000000" points="148.3767,-122 145.3767,-126 124.3767,-126 121.3767,-122 23.6233,-122 23.6233,-86 148.3767,-86 148.3767,-122"/>
<text text-anchor="middle" x="86" y="-99.8" font-family="Times,serif" font-size="14.00" fill="#000000">ProductListModule</text>
</g>
<!-- ProductListModule&#45;&gt;CategoryPageModule -->
<g id="edge4" class="edge">
<title>ProductListModule&#45;&gt;CategoryPageModule</title>
<path fill="none" stroke="#000000" d="M86,-122.1061C86,-141.3391 86,-169 86,-169 86,-169 219.845,-169 219.845,-169"/>
<polygon fill="#000000" stroke="#000000" points="219.845,-172.5001 229.845,-169 219.845,-165.5001 219.845,-172.5001"/>
</g>
</g>
</svg>
