<?xml version="1.0" encoding="UTF-8" standalone="no"?>
<!DOCTYPE svg PUBLIC "-//W3C//DTD SVG 1.1//EN"
 "http://www.w3.org/Graphics/SVG/1.1/DTD/svg11.dtd">
<!-- Generated by graphviz version 2.47.3 (20210619.1520)
 -->
<!-- Title: dependencies Pages: 1 -->
<svg width="248pt" height="174pt"
 viewBox="0.00 0.00 248.00 173.80" xmlns="http://www.w3.org/2000/svg" xmlns:xlink="http://www.w3.org/1999/xlink">
<g id="graph0" class="graph" transform="scale(1 1) rotate(0) translate(4 169.8)">
<title>dependencies</title>
<polygon fill="white" stroke="transparent" points="-4,4 -4,-169.8 244,-169.8 244,4 -4,4"/>
<text text-anchor="middle" x="120" y="-8.2" font-family="sans-serif" font-size="14.00">dependencies</text>
<g id="clust1" class="cluster">
<title>cluster_AnonymousConsentsStoreModule</title>
<polygon fill="none" stroke="black" stroke-dasharray="1,5" points="8,-32.8 8,-157.8 232,-157.8 232,-32.8 8,-32.8"/>
</g>
<g id="clust3" class="cluster">
<title>cluster_AnonymousConsentsStoreModule_imports</title>
<polygon fill="none" stroke="black" points="68,-40.8 68,-92.8 172,-92.8 172,-40.8 68,-40.8"/>
</g>
<!-- StateModule -->
<g id="node1" class="node">
<title>StateModule</title>
<polygon fill="#8dd3c7" stroke="black" points="163.54,-84.8 160.54,-88.8 139.54,-88.8 136.54,-84.8 76.46,-84.8 76.46,-48.8 163.54,-48.8 163.54,-84.8"/>
<text text-anchor="middle" x="120" y="-62.6" font-family="Times,serif" font-size="14.00">StateModule</text>
</g>
<!-- AnonymousConsentsStoreModule -->
<g id="node2" class="node">
<title>AnonymousConsentsStoreModule</title>
<polygon fill="#8dd3c7" stroke="black" points="224.37,-149.8 221.37,-153.8 200.37,-153.8 197.37,-149.8 15.63,-149.8 15.63,-113.8 224.37,-113.8 224.37,-149.8"/>
<text text-anchor="middle" x="120" y="-127.6" font-family="Times,serif" font-size="14.00">AnonymousConsentsStoreModule</text>
</g>
<!-- StateModule&#45;&gt;AnonymousConsentsStoreModule -->
<g id="edge1" class="edge">
<title>StateModule&#45;&gt;AnonymousConsentsStoreModule</title>
<path fill="none" stroke="black" d="M120,-84.91C120,-84.91 120,-103.79 120,-103.79"/>
<polygon fill="black" stroke="black" points="116.5,-103.79 120,-113.79 123.5,-103.79 116.5,-103.79"/>
</g>
</g>
</svg>
