<?xml version="1.0" encoding="UTF-8" standalone="no"?>
<!DOCTYPE svg PUBLIC "-//W3C//DTD SVG 1.1//EN"
 "http://www.w3.org/Graphics/SVG/1.1/DTD/svg11.dtd">
<!-- Generated by graphviz version 2.47.3 (20210619.1520)
 -->
<!-- Title: dependencies Pages: 1 -->
<svg width="3161pt" height="174pt"
 viewBox="0.00 0.00 3161.00 173.80" xmlns="http://www.w3.org/2000/svg" xmlns:xlink="http://www.w3.org/1999/xlink">
<g id="graph0" class="graph" transform="scale(1 1) rotate(0) translate(4 169.8)">
<title>dependencies</title>
<polygon fill="white" stroke="transparent" points="-4,4 -4,-169.8 3157,-169.8 3157,4 -4,4"/>
<text text-anchor="middle" x="1576.5" y="-8.2" font-family="sans-serif" font-size="14.00">dependencies</text>
<g id="clust1" class="cluster">
<title>cluster_RulebasedConfiguratorComponentsModule</title>
<polygon fill="none" stroke="black" stroke-dasharray="1,5" points="8,-32.8 8,-157.8 3145,-157.8 3145,-32.8 8,-32.8"/>
</g>
<g id="clust3" class="cluster">
<title>cluster_RulebasedConfiguratorComponentsModule_imports</title>
<polygon fill="none" stroke="black" points="16,-40.8 16,-92.8 3137,-92.8 3137,-40.8 16,-40.8"/>
</g>
<!-- ConfiguratorAddToCartButtonModule -->
<g id="node1" class="node">
<title>ConfiguratorAddToCartButtonModule</title>
<polygon fill="#8dd3c7" stroke="black" points="3128.74,-84.8 3125.74,-88.8 3104.74,-88.8 3101.74,-84.8 2895.26,-84.8 2895.26,-48.8 3128.74,-48.8 3128.74,-84.8"/>
<text text-anchor="middle" x="3012" y="-62.6" font-family="Times,serif" font-size="14.00">ConfiguratorAddToCartButtonModule</text>
</g>
<!-- RulebasedConfiguratorComponentsModule -->
<g id="node14" class="node">
<title>RulebasedConfiguratorComponentsModule</title>
<polygon fill="#8dd3c7" stroke="black" points="1729.46,-149.8 1726.46,-153.8 1705.46,-153.8 1702.46,-149.8 1468.54,-149.8 1468.54,-113.8 1729.46,-113.8 1729.46,-149.8"/>
<text text-anchor="middle" x="1599" y="-127.6" font-family="Times,serif" font-size="14.00">RulebasedConfiguratorComponentsModule</text>
</g>
<!-- ConfiguratorAddToCartButtonModule&#45;&gt;RulebasedConfiguratorComponentsModule -->
<g id="edge1" class="edge">
<title>ConfiguratorAddToCartButtonModule&#45;&gt;RulebasedConfiguratorComponentsModule</title>
<path fill="none" stroke="black" d="M3012,-84.89C3012,-107.93 3012,-144.8 3012,-144.8 3012,-144.8 1739.71,-144.8 1739.71,-144.8"/>
<polygon fill="black" stroke="black" points="1739.71,-141.3 1729.71,-144.8 1739.71,-148.3 1739.71,-141.3"/>
</g>
<!-- ConfiguratorConflictAndErrorMessagesModule -->
<g id="node2" class="node">
<title>ConfiguratorConflictAndErrorMessagesModule</title>
<polygon fill="#8dd3c7" stroke="black" points="2876.81,-84.8 2873.81,-88.8 2852.81,-88.8 2849.81,-84.8 2591.19,-84.8 2591.19,-48.8 2876.81,-48.8 2876.81,-84.8"/>
<text text-anchor="middle" x="2734" y="-62.6" font-family="Times,serif" font-size="14.00">ConfiguratorConflictAndErrorMessagesModule</text>
</g>
<!-- ConfiguratorConflictAndErrorMessagesModule&#45;&gt;RulebasedConfiguratorComponentsModule -->
<g id="edge2" class="edge">
<title>ConfiguratorConflictAndErrorMessagesModule&#45;&gt;RulebasedConfiguratorComponentsModule</title>
<path fill="none" stroke="black" d="M2734,-85.08C2734,-106.12 2734,-137.8 2734,-137.8 2734,-137.8 1739.48,-137.8 1739.48,-137.8"/>
<polygon fill="black" stroke="black" points="1739.48,-134.3 1729.48,-137.8 1739.48,-141.3 1739.48,-134.3"/>
</g>
<!-- ConfiguratorFormModule -->
<g id="node3" class="node">
<title>ConfiguratorFormModule</title>
<polygon fill="#8dd3c7" stroke="black" points="2573.2,-84.8 2570.2,-88.8 2549.2,-88.8 2546.2,-84.8 2410.8,-84.8 2410.8,-48.8 2573.2,-48.8 2573.2,-84.8"/>
<text text-anchor="middle" x="2492" y="-62.6" font-family="Times,serif" font-size="14.00">ConfiguratorFormModule</text>
</g>
<!-- ConfiguratorFormModule&#45;&gt;RulebasedConfiguratorComponentsModule -->
<g id="edge3" class="edge">
<title>ConfiguratorFormModule&#45;&gt;RulebasedConfiguratorComponentsModule</title>
<path fill="none" stroke="black" d="M2492,-84.91C2492,-104.14 2492,-131.8 2492,-131.8 2492,-131.8 1739.81,-131.8 1739.81,-131.8"/>
<polygon fill="black" stroke="black" points="1739.81,-128.3 1729.81,-131.8 1739.81,-135.3 1739.81,-128.3"/>
</g>
<!-- ConfiguratorGroupMenuModule -->
<g id="node4" class="node">
<title>ConfiguratorGroupMenuModule</title>
<polygon fill="#8dd3c7" stroke="black" points="2393.29,-84.8 2390.29,-88.8 2369.29,-88.8 2366.29,-84.8 2192.71,-84.8 2192.71,-48.8 2393.29,-48.8 2393.29,-84.8"/>
<text text-anchor="middle" x="2293" y="-62.6" font-family="Times,serif" font-size="14.00">ConfiguratorGroupMenuModule</text>
</g>
<!-- ConfiguratorGroupMenuModule&#45;&gt;RulebasedConfiguratorComponentsModule -->
<g id="edge4" class="edge">
<title>ConfiguratorGroupMenuModule&#45;&gt;RulebasedConfiguratorComponentsModule</title>
<path fill="none" stroke="black" d="M2293,-84.82C2293,-102.17 2293,-125.8 2293,-125.8 2293,-125.8 1739.54,-125.8 1739.54,-125.8"/>
<polygon fill="black" stroke="black" points="1739.54,-122.3 1729.54,-125.8 1739.54,-129.3 1739.54,-122.3"/>
</g>
<!-- ConfiguratorGroupTitleModule -->
<g id="node5" class="node">
<title>ConfiguratorGroupTitleModule</title>
<polygon fill="#8dd3c7" stroke="black" points="2175.07,-84.8 2172.07,-88.8 2151.07,-88.8 2148.07,-84.8 1980.93,-84.8 1980.93,-48.8 2175.07,-48.8 2175.07,-84.8"/>
<text text-anchor="middle" x="2078" y="-62.6" font-family="Times,serif" font-size="14.00">ConfiguratorGroupTitleModule</text>
</g>
<!-- ConfiguratorGroupTitleModule&#45;&gt;RulebasedConfiguratorComponentsModule -->
<g id="edge5" class="edge">
<title>ConfiguratorGroupTitleModule&#45;&gt;RulebasedConfiguratorComponentsModule</title>
<path fill="none" stroke="black" d="M2078,-85.04C2078,-100.37 2078,-119.8 2078,-119.8 2078,-119.8 1739.57,-119.8 1739.57,-119.8"/>
<polygon fill="black" stroke="black" points="1739.57,-116.3 1729.57,-119.8 1739.57,-123.3 1739.57,-116.3"/>
</g>
<!-- ConfiguratorOverviewAttributeModule -->
<g id="node6" class="node">
<title>ConfiguratorOverviewAttributeModule</title>
<polygon fill="#8dd3c7" stroke="black" points="1962.6,-84.8 1959.6,-88.8 1938.6,-88.8 1935.6,-84.8 1725.4,-84.8 1725.4,-48.8 1962.6,-48.8 1962.6,-84.8"/>
<text text-anchor="middle" x="1844" y="-62.6" font-family="Times,serif" font-size="14.00">ConfiguratorOverviewAttributeModule</text>
</g>
<!-- ConfiguratorOverviewAttributeModule&#45;&gt;RulebasedConfiguratorComponentsModule -->
<g id="edge6" class="edge">
<title>ConfiguratorOverviewAttributeModule&#45;&gt;RulebasedConfiguratorComponentsModule</title>
<path fill="none" stroke="black" d="M1725.21,-66.8C1719.72,-66.8 1716.45,-66.8 1716.45,-66.8 1716.45,-66.8 1716.45,-103.69 1716.45,-103.69"/>
<polygon fill="black" stroke="black" points="1712.95,-103.69 1716.45,-113.69 1719.95,-103.69 1712.95,-103.69"/>
</g>
<!-- ConfiguratorOverviewFormModule -->
<g id="node7" class="node">
<title>ConfiguratorOverviewFormModule</title>
<polygon fill="#8dd3c7" stroke="black" points="1707.89,-84.8 1704.89,-88.8 1683.89,-88.8 1680.89,-84.8 1490.11,-84.8 1490.11,-48.8 1707.89,-48.8 1707.89,-84.8"/>
<text text-anchor="middle" x="1599" y="-62.6" font-family="Times,serif" font-size="14.00">ConfiguratorOverviewFormModule</text>
</g>
<!-- ConfiguratorOverviewFormModule&#45;&gt;RulebasedConfiguratorComponentsModule -->
<g id="edge7" class="edge">
<title>ConfiguratorOverviewFormModule&#45;&gt;RulebasedConfiguratorComponentsModule</title>
<path fill="none" stroke="black" d="M1599,-84.91C1599,-84.91 1599,-103.79 1599,-103.79"/>
<polygon fill="black" stroke="black" points="1595.5,-103.79 1599,-113.79 1602.5,-103.79 1595.5,-103.79"/>
</g>
<!-- ConfiguratorOverviewNotificationBannerModule -->
<g id="node8" class="node">
<title>ConfiguratorOverviewNotificationBannerModule</title>
<polygon fill="#8dd3c7" stroke="black" points="1472.63,-84.8 1469.63,-88.8 1448.63,-88.8 1445.63,-84.8 1177.37,-84.8 1177.37,-48.8 1472.63,-48.8 1472.63,-84.8"/>
<text text-anchor="middle" x="1325" y="-62.6" font-family="Times,serif" font-size="14.00">ConfiguratorOverviewNotificationBannerModule</text>
</g>
<!-- ConfiguratorOverviewNotificationBannerModule&#45;&gt;RulebasedConfiguratorComponentsModule -->
<g id="edge8" class="edge">
<title>ConfiguratorOverviewNotificationBannerModule&#45;&gt;RulebasedConfiguratorComponentsModule</title>
<path fill="none" stroke="black" d="M1472.58,-66.8C1478.17,-66.8 1481.44,-66.8 1481.44,-66.8 1481.44,-66.8 1481.44,-103.69 1481.44,-103.69"/>
<polygon fill="black" stroke="black" points="1477.94,-103.69 1481.44,-113.69 1484.94,-103.69 1477.94,-103.69"/>
</g>
<!-- ConfiguratorPreviousNextButtonsModule -->
<g id="node9" class="node">
<title>ConfiguratorPreviousNextButtonsModule</title>
<polygon fill="#8dd3c7" stroke="black" points="1159.63,-84.8 1156.63,-88.8 1135.63,-88.8 1132.63,-84.8 908.37,-84.8 908.37,-48.8 1159.63,-48.8 1159.63,-84.8"/>
<text text-anchor="middle" x="1034" y="-62.6" font-family="Times,serif" font-size="14.00">ConfiguratorPreviousNextButtonsModule</text>
</g>
<!-- ConfiguratorPreviousNextButtonsModule&#45;&gt;RulebasedConfiguratorComponentsModule -->
<g id="edge9" class="edge">
<title>ConfiguratorPreviousNextButtonsModule&#45;&gt;RulebasedConfiguratorComponentsModule</title>
<path fill="none" stroke="black" d="M1034,-85.04C1034,-100.37 1034,-119.8 1034,-119.8 1034,-119.8 1458.31,-119.8 1458.31,-119.8"/>
<polygon fill="black" stroke="black" points="1458.31,-123.3 1468.31,-119.8 1458.31,-116.3 1458.31,-123.3"/>
</g>
<!-- ConfiguratorPriceSummaryModule -->
<g id="node10" class="node">
<title>ConfiguratorPriceSummaryModule</title>
<polygon fill="#8dd3c7" stroke="black" points="890.57,-84.8 887.57,-88.8 866.57,-88.8 863.57,-84.8 675.43,-84.8 675.43,-48.8 890.57,-48.8 890.57,-84.8"/>
<text text-anchor="middle" x="783" y="-62.6" font-family="Times,serif" font-size="14.00">ConfiguratorPriceSummaryModule</text>
</g>
<!-- ConfiguratorPriceSummaryModule&#45;&gt;RulebasedConfiguratorComponentsModule -->
<g id="edge10" class="edge">
<title>ConfiguratorPriceSummaryModule&#45;&gt;RulebasedConfiguratorComponentsModule</title>
<path fill="none" stroke="black" d="M783,-84.82C783,-102.17 783,-125.8 783,-125.8 783,-125.8 1458.35,-125.8 1458.35,-125.8"/>
<polygon fill="black" stroke="black" points="1458.35,-129.3 1468.35,-125.8 1458.35,-122.3 1458.35,-129.3"/>
</g>
<!-- ConfiguratorProductTitleModule -->
<g id="node11" class="node">
<title>ConfiguratorProductTitleModule</title>
<polygon fill="#8dd3c7" stroke="black" points="657.85,-84.8 654.85,-88.8 633.85,-88.8 630.85,-84.8 456.15,-84.8 456.15,-48.8 657.85,-48.8 657.85,-84.8"/>
<text text-anchor="middle" x="557" y="-62.6" font-family="Times,serif" font-size="14.00">ConfiguratorProductTitleModule</text>
</g>
<!-- ConfiguratorProductTitleModule&#45;&gt;RulebasedConfiguratorComponentsModule -->
<g id="edge11" class="edge">
<title>ConfiguratorProductTitleModule&#45;&gt;RulebasedConfiguratorComponentsModule</title>
<path fill="none" stroke="black" d="M557,-84.91C557,-104.14 557,-131.8 557,-131.8 557,-131.8 1458.35,-131.8 1458.35,-131.8"/>
<polygon fill="black" stroke="black" points="1458.35,-135.3 1468.35,-131.8 1458.35,-128.3 1458.35,-135.3"/>
</g>
<!-- ConfiguratorTabBarModule -->
<g id="node12" class="node">
<title>ConfiguratorTabBarModule</title>
<polygon fill="#8dd3c7" stroke="black" points="437.84,-84.8 434.84,-88.8 413.84,-88.8 410.84,-84.8 264.16,-84.8 264.16,-48.8 437.84,-48.8 437.84,-84.8"/>
<text text-anchor="middle" x="351" y="-62.6" font-family="Times,serif" font-size="14.00">ConfiguratorTabBarModule</text>
</g>
<!-- ConfiguratorTabBarModule&#45;&gt;RulebasedConfiguratorComponentsModule -->
<g id="edge12" class="edge">
<title>ConfiguratorTabBarModule&#45;&gt;RulebasedConfiguratorComponentsModule</title>
<path fill="none" stroke="black" d="M351,-85.08C351,-106.12 351,-137.8 351,-137.8 351,-137.8 1458.39,-137.8 1458.39,-137.8"/>
<polygon fill="black" stroke="black" points="1458.39,-141.3 1468.39,-137.8 1458.39,-134.3 1458.39,-141.3"/>
</g>
<!-- ConfiguratorUpdateMessageModule -->
<g id="node13" class="node">
<title>ConfiguratorUpdateMessageModule</title>
<polygon fill="#8dd3c7" stroke="black" points="245.77,-84.8 242.77,-88.8 221.77,-88.8 218.77,-84.8 24.23,-84.8 24.23,-48.8 245.77,-48.8 245.77,-84.8"/>
<text text-anchor="middle" x="135" y="-62.6" font-family="Times,serif" font-size="14.00">ConfiguratorUpdateMessageModule</text>
</g>
<!-- ConfiguratorUpdateMessageModule&#45;&gt;RulebasedConfiguratorComponentsModule -->
<g id="edge13" class="edge">
<title>ConfiguratorUpdateMessageModule&#45;&gt;RulebasedConfiguratorComponentsModule</title>
<path fill="none" stroke="black" d="M135,-84.89C135,-107.93 135,-144.8 135,-144.8 135,-144.8 1458.44,-144.8 1458.44,-144.8"/>
<polygon fill="black" stroke="black" points="1458.44,-148.3 1468.44,-144.8 1458.44,-141.3 1458.44,-148.3"/>
</g>
</g>
</svg>
