<?xml version="1.0" encoding="UTF-8" standalone="no"?>
<!DOCTYPE svg PUBLIC "-//W3C//DTD SVG 1.1//EN"
 "http://www.w3.org/Graphics/SVG/1.1/DTD/svg11.dtd">
<!-- Generated by graphviz version 2.40.1 (20161225.0304)
 -->
<!-- Title: dependencies Pages: 1 -->
<svg width="504pt" height="284pt"
 viewBox="0.00 0.00 504.00 284.00" xmlns="http://www.w3.org/2000/svg" xmlns:xlink="http://www.w3.org/1999/xlink">
<g id="graph0" class="graph" transform="scale(1 1) rotate(0) translate(4 280)">
<title>dependencies</title>
<polygon fill="#ffffff" stroke="transparent" points="-4,4 -4,-280 500,-280 500,4 -4,4"/>
<text text-anchor="start" x="227.0091" y="-42.4" font-family="sans-serif" font-weight="bold" font-size="14.00" fill="#000000">Legend</text>
<polygon fill="#ffffb3" stroke="transparent" points="14,-10 14,-30 34,-30 34,-10 14,-10"/>
<text text-anchor="start" x="37.629" y="-15.4" font-family="sans-serif" font-size="14.00" fill="#000000"> &#160;Declarations</text>
<polygon fill="#8dd3c7" stroke="transparent" points="127,-10 127,-30 147,-30 147,-10 127,-10"/>
<text text-anchor="start" x="150.7251" y="-15.4" font-family="sans-serif" font-size="14.00" fill="#000000"> &#160;Module</text>
<polygon fill="#80b1d3" stroke="transparent" points="213,-10 213,-30 233,-30 233,-10 213,-10"/>
<text text-anchor="start" x="236.7812" y="-15.4" font-family="sans-serif" font-size="14.00" fill="#000000"> &#160;Bootstrap</text>
<polygon fill="#fdb462" stroke="transparent" points="310,-10 310,-30 330,-30 330,-10 310,-10"/>
<text text-anchor="start" x="333.6732" y="-15.4" font-family="sans-serif" font-size="14.00" fill="#000000"> &#160;Providers</text>
<polygon fill="#fb8072" stroke="transparent" points="406,-10 406,-30 426,-30 426,-10 406,-10"/>
<text text-anchor="start" x="429.7258" y="-15.4" font-family="sans-serif" font-size="14.00" fill="#000000"> &#160;Exports</text>
<g id="clust1" class="cluster">
<title>cluster_GigyaRaasModule</title>
<polygon fill="none" stroke="#000000" stroke-dasharray="1,5" points="48,-70 48,-268 448,-268 448,-70 48,-70"/>
</g>
<g id="clust2" class="cluster">
<title>cluster_GigyaRaasModule_declarations</title>
<polygon fill="none" stroke="#000000" points="282,-78 282,-130 440,-130 440,-78 282,-78"/>
</g>
<g id="clust4" class="cluster">
<title>cluster_GigyaRaasModule_imports</title>
<polygon fill="none" stroke="#000000" points="56,-78 56,-130 274,-130 274,-78 56,-78"/>
</g>
<g id="clust5" class="cluster">
<title>cluster_GigyaRaasModule_exports</title>
<polygon fill="none" stroke="#000000" points="136,-208 136,-260 298,-260 298,-208 136,-208"/>
</g>
<!-- GigyaRaasComponent -->
<g id="node1" class="node">
<title>GigyaRaasComponent</title>
<polygon fill="#ffffb3" stroke="#000000" points="432.2548,-122 289.7452,-122 289.7452,-86 432.2548,-86 432.2548,-122"/>
<text text-anchor="middle" x="361" y="-99.8" font-family="Times,serif" font-size="14.00" fill="#000000">GigyaRaasComponent</text>
</g>
<!-- GigyaRaasModule -->
<g id="node2" class="node">
<title>GigyaRaasModule</title>
<polygon fill="#8dd3c7" stroke="#000000" points="277.472,-187 274.472,-191 253.472,-191 250.472,-187 156.528,-187 156.528,-151 277.472,-151 277.472,-187"/>
<text text-anchor="middle" x="217" y="-164.8" font-family="Times,serif" font-size="14.00" fill="#000000">GigyaRaasModule</text>
</g>
<!-- GigyaRaasComponent&#45;&gt;GigyaRaasModule -->
<g id="edge1" class="edge">
<title>GigyaRaasComponent&#45;&gt;GigyaRaasModule</title>
<path fill="none" stroke="#000000" d="M289.4651,-104C279.1014,-104 271.8524,-104 271.8524,-104 271.8524,-104 271.8524,-140.8939 271.8524,-140.8939"/>
<polygon fill="#000000" stroke="#000000" points="268.3525,-140.8938 271.8524,-150.8939 275.3525,-140.8939 268.3525,-140.8938"/>
</g>
<!-- GigyaRaasComponent  -->
<g id="node5" class="node">
<title>GigyaRaasComponent </title>
<polygon fill="#fb8072" stroke="#000000" points="290.2548,-252 143.7452,-252 143.7452,-216 290.2548,-216 290.2548,-252"/>
<text text-anchor="middle" x="217" y="-229.8" font-family="Times,serif" font-size="14.00" fill="#000000">GigyaRaasComponent </text>
</g>
<!-- GigyaRaasModule&#45;&gt;GigyaRaasComponent  -->
<g id="edge4" class="edge">
<title>GigyaRaasModule&#45;&gt;GigyaRaasComponent </title>
<path fill="none" stroke="#000000" stroke-dasharray="5,2" d="M217,-187.1061C217,-187.1061 217,-205.991 217,-205.991"/>
<polygon fill="#000000" stroke="#000000" points="213.5001,-205.9909 217,-215.991 220.5001,-205.991 213.5001,-205.9909"/>
</g>
<!-- ConfigModule -->
<g id="node3" class="node">
<title>ConfigModule</title>
<polygon fill="#8dd3c7" stroke="#000000" points="266.4386,-122 263.4386,-126 242.4386,-126 239.4386,-122 167.5614,-122 167.5614,-86 266.4386,-86 266.4386,-122"/>
<text text-anchor="middle" x="217" y="-99.8" font-family="Times,serif" font-size="14.00" fill="#000000">ConfigModule</text>
</g>
<!-- ConfigModule&#45;&gt;GigyaRaasModule -->
<g id="edge2" class="edge">
<title>ConfigModule&#45;&gt;GigyaRaasModule</title>
<path fill="none" stroke="#000000" d="M217,-122.1061C217,-122.1061 217,-140.991 217,-140.991"/>
<polygon fill="#000000" stroke="#000000" points="213.5001,-140.9909 217,-150.991 220.5001,-140.991 213.5001,-140.9909"/>
</g>
<!-- I18nModule -->
<g id="node4" class="node">
<title>I18nModule</title>
<polygon fill="#8dd3c7" stroke="#000000" points="149.7107,-122 146.7107,-126 125.7107,-126 122.7107,-122 64.2893,-122 64.2893,-86 149.7107,-86 149.7107,-122"/>
<text text-anchor="middle" x="107" y="-99.8" font-family="Times,serif" font-size="14.00" fill="#000000">I18nModule</text>
</g>
<!-- I18nModule&#45;&gt;GigyaRaasModule -->
<g id="edge3" class="edge">
<title>I18nModule&#45;&gt;GigyaRaasModule</title>
<path fill="none" stroke="#000000" d="M149.6338,-104C156.8959,-104 162.1476,-104 162.1476,-104 162.1476,-104 162.1476,-140.8939 162.1476,-140.8939"/>
<polygon fill="#000000" stroke="#000000" points="158.6477,-140.8938 162.1476,-150.8939 165.6477,-140.8939 158.6477,-140.8938"/>
</g>
</g>
</svg>
