<?xml version="1.0" encoding="UTF-8" standalone="no"?>
<!DOCTYPE svg PUBLIC "-//W3C//DTD SVG 1.1//EN"
 "http://www.w3.org/Graphics/SVG/1.1/DTD/svg11.dtd">
<!-- Generated by graphviz version 2.47.3 (20210619.1520)
 -->
<!-- Title: dependencies Pages: 1 -->
<svg width="741pt" height="285pt"
 viewBox="0.00 0.00 741.00 285.39" xmlns="http://www.w3.org/2000/svg" xmlns:xlink="http://www.w3.org/1999/xlink">
<g id="graph0" class="graph" transform="scale(1 1) rotate(0) translate(4 281.39)">
<title>dependencies</title>
<polygon fill="white" stroke="transparent" points="-4,4 -4,-281.39 737,-281.39 737,4 -4,4"/>
<text text-anchor="middle" x="366.5" y="-8.2" font-family="sans-serif" font-size="14.00">dependencies</text>
<g id="clust1" class="cluster">
<title>cluster_UserGroupUserModule</title>
<polygon fill="none" stroke="black" stroke-dasharray="1,5" points="8,-32.8 8,-269.39 725,-269.39 725,-32.8 8,-32.8"/>
</g>
<g id="clust2" class="cluster">
<title>cluster_UserGroupUserModule_declarations</title>
<polygon fill="none" stroke="black" points="247,-152.39 247,-204.39 717,-204.39 717,-152.39 247,-152.39"/>
</g>
<g id="clust4" class="cluster">
<title>cluster_UserGroupUserModule_UserGroupUserListComponent_providers</title>
<polygon fill="none" stroke="black" points="75,-40.8 75,-139.39 627,-139.39 627,-40.8 75,-40.8"/>
</g>
<g id="clust5" class="cluster">
<title>cluster_UserGroupUserModule_imports</title>
<polygon fill="none" stroke="black" points="16,-152.39 16,-204.39 239,-204.39 239,-152.39 16,-152.39"/>
</g>
<!-- UserGroupAssignedUserListComponent -->
<g id="node1" class="node">
<title>UserGroupAssignedUserListComponent</title>
<polygon fill="#ffffb3" stroke="black" points="708.83,-196.39 465.17,-196.39 465.17,-160.39 708.83,-160.39 708.83,-196.39"/>
<text text-anchor="middle" x="587" y="-174.19" font-family="Times,serif" font-size="14.00">UserGroupAssignedUserListComponent</text>
</g>
<!-- UserGroupUserModule -->
<g id="node3" class="node">
<title>UserGroupUserModule</title>
<polygon fill="#8dd3c7" stroke="black" points="343.17,-261.39 340.17,-265.39 319.17,-265.39 316.17,-261.39 194.83,-261.39 194.83,-225.39 343.17,-225.39 343.17,-261.39"/>
<text text-anchor="middle" x="269" y="-239.19" font-family="Times,serif" font-size="14.00">UserGroupUserModule</text>
</g>
<!-- UserGroupAssignedUserListComponent&#45;&gt;UserGroupUserModule -->
<g id="edge1" class="edge">
<title>UserGroupAssignedUserListComponent&#45;&gt;UserGroupUserModule</title>
<path fill="none" stroke="black" d="M587,-196.5C587,-215.73 587,-243.39 587,-243.39 587,-243.39 353.16,-243.39 353.16,-243.39"/>
<polygon fill="black" stroke="black" points="353.16,-239.89 343.16,-243.39 353.16,-246.89 353.16,-239.89"/>
</g>
<!-- UserGroupUserListComponent -->
<g id="node2" class="node">
<title>UserGroupUserListComponent</title>
<polygon fill="#ffffb3" stroke="black" points="446.73,-196.39 255.27,-196.39 255.27,-160.39 446.73,-160.39 446.73,-196.39"/>
<text text-anchor="middle" x="351" y="-174.19" font-family="Times,serif" font-size="14.00">UserGroupUserListComponent</text>
</g>
<!-- UserGroupUserListComponent&#45;&gt;UserGroupUserModule -->
<g id="edge2" class="edge">
<title>UserGroupUserListComponent&#45;&gt;UserGroupUserModule</title>
<path fill="none" stroke="black" d="M299.11,-196.5C299.11,-196.5 299.11,-215.38 299.11,-215.38"/>
<polygon fill="black" stroke="black" points="295.61,-215.38 299.11,-225.38 302.61,-215.38 295.61,-215.38"/>
</g>
<!-- {
 &#160;&#160;&#160;provide: ListService, useExisting: UserGroupUserListService,
} -->
<g id="node4" class="node">
<title>{
 &#160;&#160;&#160;provide: ListService, useExisting: UserGroupUserListService,
}</title>
<ellipse fill="#fdb462" stroke="black" cx="351" cy="-90.1" rx="268.2" ry="41.09"/>
<text text-anchor="middle" x="351" y="-102.7" font-family="Times,serif" font-size="14.00">{</text>
<text text-anchor="middle" x="351" y="-85.9" font-family="Times,serif" font-size="14.00"> &#160;&#160;&#160;provide: ListService, useExisting: UserGroupUserListService,</text>
<text text-anchor="middle" x="351" y="-69.1" font-family="Times,serif" font-size="14.00">}</text>
</g>
<!-- {
 &#160;&#160;&#160;provide: ListService, useExisting: UserGroupUserListService,
}&#45;&gt;UserGroupUserListComponent -->
<g id="edge3" class="edge">
<title>{
 &#160;&#160;&#160;provide: ListService, useExisting: UserGroupUserListService,
}&#45;&gt;UserGroupUserListComponent</title>
<path fill="none" stroke="black" d="M351,-131.4C351,-131.4 351,-150.06 351,-150.06"/>
<polygon fill="black" stroke="black" points="347.5,-150.06 351,-160.06 354.5,-150.06 347.5,-150.06"/>
</g>
<!-- I18nModule -->
<g id="node5" class="node">
<title>I18nModule</title>
<polygon fill="#8dd3c7" stroke="black" points="230.71,-196.39 227.71,-200.39 206.71,-200.39 203.71,-196.39 145.29,-196.39 145.29,-160.39 230.71,-160.39 230.71,-196.39"/>
<text text-anchor="middle" x="188" y="-174.19" font-family="Times,serif" font-size="14.00">I18nModule</text>
</g>
<!-- I18nModule&#45;&gt;UserGroupUserModule -->
<g id="edge4" class="edge">
<title>I18nModule&#45;&gt;UserGroupUserModule</title>
<path fill="none" stroke="black" d="M212.76,-196.5C212.76,-196.5 212.76,-215.38 212.76,-215.38"/>
<polygon fill="black" stroke="black" points="209.26,-215.38 212.76,-225.38 216.26,-215.38 209.26,-215.38"/>
</g>
<!-- SubListModule -->
<g id="node6" class="node">
<title>SubListModule</title>
<polygon fill="#8dd3c7" stroke="black" points="127.61,-196.39 124.61,-200.39 103.61,-200.39 100.61,-196.39 24.39,-196.39 24.39,-160.39 127.61,-160.39 127.61,-196.39"/>
<text text-anchor="middle" x="76" y="-174.19" font-family="Times,serif" font-size="14.00">SubListModule</text>
</g>
<!-- SubListModule&#45;&gt;UserGroupUserModule -->
<g id="edge5" class="edge">
<title>SubListModule&#45;&gt;UserGroupUserModule</title>
<path fill="none" stroke="black" d="M76,-196.5C76,-215.73 76,-243.39 76,-243.39 76,-243.39 184.66,-243.39 184.66,-243.39"/>
<polygon fill="black" stroke="black" points="184.66,-246.89 194.66,-243.39 184.66,-239.89 184.66,-246.89"/>
</g>
</g>
</svg>
