<?xml version="1.0" encoding="UTF-8" standalone="no"?>
<!DOCTYPE svg PUBLIC "-//W3C//DTD SVG 1.1//EN"
 "http://www.w3.org/Graphics/SVG/1.1/DTD/svg11.dtd">
<!-- Generated by graphviz version 2.47.3 (20210619.1520)
 -->
<!-- Title: dependencies Pages: 1 -->
<svg width="741pt" height="285pt"
 viewBox="0.00 0.00 741.00 285.39" xmlns="http://www.w3.org/2000/svg" xmlns:xlink="http://www.w3.org/1999/xlink">
<g id="graph0" class="graph" transform="scale(1 1) rotate(0) translate(4 281.39)">
<title>dependencies</title>
<polygon fill="white" stroke="transparent" points="-4,4 -4,-281.39 737,-281.39 737,4 -4,4"/>
<text text-anchor="middle" x="366.5" y="-8.2" font-family="sans-serif" font-size="14.00">dependencies</text>
<g id="clust1" class="cluster">
<title>cluster_UserGroupUserModule</title>
<polygon fill="none" stroke="black" stroke-dasharray="1,5" points="8,-32.8 8,-269.39 725,-269.39 725,-32.8 8,-32.8"/>
</g>
<g id="clust2" class="cluster">
<title>cluster_UserGroupUserModule_declarations</title>
<polygon fill="none" stroke="black" points="16,-152.39 16,-204.39 486,-204.39 486,-152.39 16,-152.39"/>
</g>
<g id="clust5" class="cluster">
<title>cluster_UserGroupUserModule_imports</title>
<polygon fill="none" stroke="black" points="494,-152.39 494,-204.39 717,-204.39 717,-152.39 494,-152.39"/>
</g>
<g id="clust4" class="cluster">
<title>cluster_UserGroupUserModule_UserGroupUserListComponent_providers</title>
<polygon fill="none" stroke="black" points="16,-40.8 16,-139.39 568,-139.39 568,-40.8 16,-40.8"/>
</g>
<!-- UserGroupAssignedUserListComponent -->
<g id="node1" class="node">
<title>UserGroupAssignedUserListComponent</title>
<polygon fill="#ffffb3" stroke="black" points="477.83,-196.39 234.17,-196.39 234.17,-160.39 477.83,-160.39 477.83,-196.39"/>
<text text-anchor="middle" x="356" y="-174.19" font-family="Times,serif" font-size="14.00">UserGroupAssignedUserListComponent</text>
</g>
<!-- UserGroupUserModule -->
<g id="node3" class="node">
<title>UserGroupUserModule</title>
<polygon fill="#8dd3c7" stroke="black" points="529.17,-261.39 526.17,-265.39 505.17,-265.39 502.17,-261.39 380.83,-261.39 380.83,-225.39 529.17,-225.39 529.17,-261.39"/>
<text text-anchor="middle" x="455" y="-239.19" font-family="Times,serif" font-size="14.00">UserGroupUserModule</text>
</g>
<!-- UserGroupAssignedUserListComponent&#45;&gt;UserGroupUserModule -->
<g id="edge1" class="edge">
<title>UserGroupAssignedUserListComponent&#45;&gt;UserGroupUserModule</title>
<path fill="none" stroke="black" d="M429.42,-196.5C429.42,-196.5 429.42,-215.38 429.42,-215.38"/>
<polygon fill="black" stroke="black" points="425.92,-215.38 429.42,-225.38 432.92,-215.38 425.92,-215.38"/>
</g>
<!-- UserGroupUserListComponent -->
<g id="node2" class="node">
<title>UserGroupUserListComponent</title>
<polygon fill="#ffffb3" stroke="black" points="215.73,-196.39 24.27,-196.39 24.27,-160.39 215.73,-160.39 215.73,-196.39"/>
<text text-anchor="middle" x="120" y="-174.19" font-family="Times,serif" font-size="14.00">UserGroupUserListComponent</text>
</g>
<!-- UserGroupUserListComponent&#45;&gt;UserGroupUserModule -->
<g id="edge2" class="edge">
<title>UserGroupUserListComponent&#45;&gt;UserGroupUserModule</title>
<path fill="none" stroke="black" d="M120,-196.5C120,-215.73 120,-243.39 120,-243.39 120,-243.39 370.65,-243.39 370.65,-243.39"/>
<polygon fill="black" stroke="black" points="370.65,-246.89 380.65,-243.39 370.65,-239.89 370.65,-246.89"/>
</g>
<!-- {
 &#160;&#160;&#160;provide: ListService, useExisting: UserGroupUserListService,
} -->
<g id="node4" class="node">
<title>{
 &#160;&#160;&#160;provide: ListService, useExisting: UserGroupUserListService,
}</title>
<ellipse fill="#fdb462" stroke="black" cx="292" cy="-90.1" rx="268.2" ry="41.09"/>
<text text-anchor="middle" x="292" y="-102.7" font-family="Times,serif" font-size="14.00">{</text>
<text text-anchor="middle" x="292" y="-85.9" font-family="Times,serif" font-size="14.00"> &#160;&#160;&#160;provide: ListService, useExisting: UserGroupUserListService,</text>
<text text-anchor="middle" x="292" y="-69.1" font-family="Times,serif" font-size="14.00">}</text>
</g>
<!-- {
 &#160;&#160;&#160;provide: ListService, useExisting: UserGroupUserListService,
}&#45;&gt;UserGroupUserListComponent -->
<g id="edge3" class="edge">
<title>{
 &#160;&#160;&#160;provide: ListService, useExisting: UserGroupUserListService,
}&#45;&gt;UserGroupUserListComponent</title>
<path fill="none" stroke="black" d="M120,-121.97C120,-121.97 120,-150.18 120,-150.18"/>
<polygon fill="black" stroke="black" points="116.5,-150.18 120,-160.18 123.5,-150.18 116.5,-150.18"/>
</g>
<!-- I18nModule -->
<g id="node5" class="node">
<title>I18nModule</title>
<polygon fill="#8dd3c7" stroke="black" points="708.71,-196.39 705.71,-200.39 684.71,-200.39 681.71,-196.39 623.29,-196.39 623.29,-160.39 708.71,-160.39 708.71,-196.39"/>
<text text-anchor="middle" x="666" y="-174.19" font-family="Times,serif" font-size="14.00">I18nModule</text>
</g>
<!-- I18nModule&#45;&gt;UserGroupUserModule -->
<g id="edge4" class="edge">
<title>I18nModule&#45;&gt;UserGroupUserModule</title>
<path fill="none" stroke="black" d="M666,-196.5C666,-215.73 666,-243.39 666,-243.39 666,-243.39 539.09,-243.39 539.09,-243.39"/>
<polygon fill="black" stroke="black" points="539.09,-239.89 529.09,-243.39 539.09,-246.89 539.09,-239.89"/>
</g>
<!-- SubListModule -->
<g id="node6" class="node">
<title>SubListModule</title>
<polygon fill="#8dd3c7" stroke="black" points="605.61,-196.39 602.61,-200.39 581.61,-200.39 578.61,-196.39 502.39,-196.39 502.39,-160.39 605.61,-160.39 605.61,-196.39"/>
<text text-anchor="middle" x="554" y="-174.19" font-family="Times,serif" font-size="14.00">SubListModule</text>
</g>
<!-- SubListModule&#45;&gt;UserGroupUserModule -->
<g id="edge5" class="edge">
<title>SubListModule&#45;&gt;UserGroupUserModule</title>
<path fill="none" stroke="black" d="M515.76,-196.5C515.76,-196.5 515.76,-215.38 515.76,-215.38"/>
<polygon fill="black" stroke="black" points="512.26,-215.38 515.76,-225.38 519.26,-215.38 512.26,-215.38"/>
</g>
</g>
</svg>
