<?xml version="1.0" encoding="UTF-8" standalone="no"?>
<!DOCTYPE svg PUBLIC "-//W3C//DTD SVG 1.1//EN"
 "http://www.w3.org/Graphics/SVG/1.1/DTD/svg11.dtd">
<!-- Generated by graphviz version 2.40.1 (20161225.0304)
 -->
<!-- Title: dependencies Pages: 1 -->
<svg width="741pt" height="323pt"
 viewBox="0.00 0.00 741.00 322.59" xmlns="http://www.w3.org/2000/svg" xmlns:xlink="http://www.w3.org/1999/xlink">
<g id="graph0" class="graph" transform="scale(1 1) rotate(0) translate(4 318.5901)">
<title>dependencies</title>
<polygon fill="#ffffff" stroke="transparent" points="-4,4 -4,-318.5901 737,-318.5901 737,4 -4,4"/>
<text text-anchor="start" x="345.5091" y="-42.4" font-family="sans-serif" font-weight="bold" font-size="14.00" fill="#000000">Legend</text>
<polygon fill="#ffffb3" stroke="transparent" points="132.5,-10 132.5,-30 152.5,-30 152.5,-10 132.5,-10"/>
<text text-anchor="start" x="156.129" y="-15.4" font-family="sans-serif" font-size="14.00" fill="#000000"> &#160;Declarations</text>
<polygon fill="#8dd3c7" stroke="transparent" points="245.5,-10 245.5,-30 265.5,-30 265.5,-10 245.5,-10"/>
<text text-anchor="start" x="269.2251" y="-15.4" font-family="sans-serif" font-size="14.00" fill="#000000"> &#160;Module</text>
<polygon fill="#80b1d3" stroke="transparent" points="331.5,-10 331.5,-30 351.5,-30 351.5,-10 331.5,-10"/>
<text text-anchor="start" x="355.2812" y="-15.4" font-family="sans-serif" font-size="14.00" fill="#000000"> &#160;Bootstrap</text>
<polygon fill="#fdb462" stroke="transparent" points="428.5,-10 428.5,-30 448.5,-30 448.5,-10 428.5,-10"/>
<text text-anchor="start" x="452.1732" y="-15.4" font-family="sans-serif" font-size="14.00" fill="#000000"> &#160;Providers</text>
<polygon fill="#fb8072" stroke="transparent" points="524.5,-10 524.5,-30 544.5,-30 544.5,-10 524.5,-10"/>
<text text-anchor="start" x="548.2258" y="-15.4" font-family="sans-serif" font-size="14.00" fill="#000000"> &#160;Exports</text>
<g id="clust1" class="cluster">
<title>cluster_UserGroupUserModule</title>
<polygon fill="none" stroke="#000000" stroke-dasharray="1,5" points="8,-70 8,-306.5901 725,-306.5901 725,-70 8,-70"/>
</g>
<g id="clust2" class="cluster">
<title>cluster_UserGroupUserModule_declarations</title>
<polygon fill="none" stroke="#000000" points="247,-189.5901 247,-241.5901 717,-241.5901 717,-189.5901 247,-189.5901"/>
</g>
<g id="clust4" class="cluster">
<title>cluster_UserGroupUserModule_UserGroupUserListComponent_providers</title>
<polygon fill="none" stroke="#000000" points="75,-78 75,-176.5901 627,-176.5901 627,-78 75,-78"/>
</g>
<g id="clust5" class="cluster">
<title>cluster_UserGroupUserModule_imports</title>
<polygon fill="none" stroke="#000000" points="16,-189.5901 16,-241.5901 239,-241.5901 239,-189.5901 16,-189.5901"/>
</g>
<!-- UserGroupAssignedUserListComponent -->
<g id="node1" class="node">
<title>UserGroupAssignedUserListComponent</title>
<polygon fill="#ffffb3" stroke="#000000" points="708.8319,-233.5901 465.1681,-233.5901 465.1681,-197.5901 708.8319,-197.5901 708.8319,-233.5901"/>
<text text-anchor="middle" x="587" y="-211.3901" font-family="Times,serif" font-size="14.00" fill="#000000">UserGroupAssignedUserListComponent</text>
</g>
<!-- UserGroupUserModule -->
<g id="node3" class="node">
<title>UserGroupUserModule</title>
<polygon fill="#8dd3c7" stroke="#000000" points="343.1699,-298.5901 340.1699,-302.5901 319.1699,-302.5901 316.1699,-298.5901 194.8301,-298.5901 194.8301,-262.5901 343.1699,-262.5901 343.1699,-298.5901"/>
<text text-anchor="middle" x="269" y="-276.3901" font-family="Times,serif" font-size="14.00" fill="#000000">UserGroupUserModule</text>
</g>
<!-- UserGroupAssignedUserListComponent&#45;&gt;UserGroupUserModule -->
<g id="edge1" class="edge">
<title>UserGroupAssignedUserListComponent&#45;&gt;UserGroupUserModule</title>
<path fill="none" stroke="#000000" d="M587,-233.6962C587,-252.9292 587,-280.5901 587,-280.5901 587,-280.5901 353.1555,-280.5901 353.1555,-280.5901"/>
<polygon fill="#000000" stroke="#000000" points="353.1556,-277.0902 343.1555,-280.5901 353.1555,-284.0902 353.1556,-277.0902"/>
</g>
<!-- UserGroupUserListComponent -->
<g id="node2" class="node">
<title>UserGroupUserListComponent</title>
<polygon fill="#ffffb3" stroke="#000000" points="446.731,-233.5901 255.269,-233.5901 255.269,-197.5901 446.731,-197.5901 446.731,-233.5901"/>
<text text-anchor="middle" x="351" y="-211.3901" font-family="Times,serif" font-size="14.00" fill="#000000">UserGroupUserListComponent</text>
</g>
<!-- UserGroupUserListComponent&#45;&gt;UserGroupUserModule -->
<g id="edge2" class="edge">
<title>UserGroupUserListComponent&#45;&gt;UserGroupUserModule</title>
<path fill="none" stroke="#000000" d="M299.1097,-233.6962C299.1097,-233.6962 299.1097,-252.581 299.1097,-252.581"/>
<polygon fill="#000000" stroke="#000000" points="295.6098,-252.581 299.1097,-262.581 302.6098,-252.5811 295.6098,-252.581"/>
</g>
<!-- {
 &#160;&#160;&#160;provide: ListService, useExisting: UserGroupUserListService,
} -->
<g id="node4" class="node">
<title>{
 &#160;&#160;&#160;provide: ListService, useExisting: UserGroupUserListService,
}</title>
<ellipse fill="#fdb462" stroke="#000000" cx="351" cy="-127.295" rx="268.2043" ry="41.0911"/>
<text text-anchor="middle" x="351" y="-139.895" font-family="Times,serif" font-size="14.00" fill="#000000">{</text>
<text text-anchor="middle" x="351" y="-123.095" font-family="Times,serif" font-size="14.00" fill="#000000"> &#160;&#160;&#160;provide: ListService, useExisting: UserGroupUserListService,</text>
<text text-anchor="middle" x="351" y="-106.295" font-family="Times,serif" font-size="14.00" fill="#000000">}</text>
</g>
<!-- {
 &#160;&#160;&#160;provide: ListService, useExisting: UserGroupUserListService,
}&#45;&gt;UserGroupUserListComponent -->
<g id="edge3" class="edge">
<title>{
 &#160;&#160;&#160;provide: ListService, useExisting: UserGroupUserListService,
}&#45;&gt;UserGroupUserListComponent</title>
<path fill="none" stroke="#000000" d="M351,-168.5989C351,-168.5989 351,-187.2551 351,-187.2551"/>
<polygon fill="#000000" stroke="#000000" points="347.5001,-187.255 351,-197.2551 354.5001,-187.2551 347.5001,-187.255"/>
</g>
<!-- I18nModule -->
<g id="node5" class="node">
<title>I18nModule</title>
<polygon fill="#8dd3c7" stroke="#000000" points="230.7107,-233.5901 227.7107,-237.5901 206.7107,-237.5901 203.7107,-233.5901 145.2893,-233.5901 145.2893,-197.5901 230.7107,-197.5901 230.7107,-233.5901"/>
<text text-anchor="middle" x="188" y="-211.3901" font-family="Times,serif" font-size="14.00" fill="#000000">I18nModule</text>
</g>
<!-- I18nModule&#45;&gt;UserGroupUserModule -->
<g id="edge4" class="edge">
<title>I18nModule&#45;&gt;UserGroupUserModule</title>
<path fill="none" stroke="#000000" d="M212.7602,-233.6962C212.7602,-233.6962 212.7602,-252.581 212.7602,-252.581"/>
<polygon fill="#000000" stroke="#000000" points="209.2602,-252.581 212.7602,-262.581 216.2602,-252.5811 209.2602,-252.581"/>
</g>
<!-- SubListModule -->
<g id="node6" class="node">
<title>SubListModule</title>
<polygon fill="#8dd3c7" stroke="#000000" points="127.6109,-233.5901 124.6109,-237.5901 103.6109,-237.5901 100.6109,-233.5901 24.3891,-233.5901 24.3891,-197.5901 127.6109,-197.5901 127.6109,-233.5901"/>
<text text-anchor="middle" x="76" y="-211.3901" font-family="Times,serif" font-size="14.00" fill="#000000">SubListModule</text>
</g>
<!-- SubListModule&#45;&gt;UserGroupUserModule -->
<g id="edge5" class="edge">
<title>SubListModule&#45;&gt;UserGroupUserModule</title>
<path fill="none" stroke="#000000" d="M76,-233.6962C76,-252.9292 76,-280.5901 76,-280.5901 76,-280.5901 184.6572,-280.5901 184.6572,-280.5901"/>
<polygon fill="#000000" stroke="#000000" points="184.6573,-284.0902 194.6572,-280.5901 184.6572,-277.0902 184.6573,-284.0902"/>
</g>
</g>
</svg>
