<?xml version="1.0" encoding="UTF-8" standalone="no"?>
<!DOCTYPE svg PUBLIC "-//W3C//DTD SVG 1.1//EN"
 "http://www.w3.org/Graphics/SVG/1.1/DTD/svg11.dtd">
<!-- Generated by graphviz version 2.47.3 (20210619.1520)
 -->
<!-- Title: dependencies Pages: 1 -->
<svg width="741pt" height="174pt"
 viewBox="0.00 0.00 741.00 173.80" xmlns="http://www.w3.org/2000/svg" xmlns:xlink="http://www.w3.org/1999/xlink">
<g id="graph0" class="graph" transform="scale(1 1) rotate(0) translate(4 169.8)">
<title>dependencies</title>
<polygon fill="white" stroke="transparent" points="-4,4 -4,-169.8 737,-169.8 737,4 -4,4"/>
<text text-anchor="middle" x="366.5" y="-8.2" font-family="sans-serif" font-size="14.00">dependencies</text>
<g id="clust1" class="cluster">
<title>cluster_UserGroupUserModule</title>
<polygon fill="none" stroke="black" stroke-dasharray="1,5" points="8,-32.8 8,-157.8 725,-157.8 725,-32.8 8,-32.8"/>
</g>
<g id="clust2" class="cluster">
<title>cluster_UserGroupUserModule_declarations</title>
<polygon fill="none" stroke="black" points="247,-40.8 247,-92.8 717,-92.8 717,-40.8 247,-40.8"/>
</g>
<g id="clust5" class="cluster">
<title>cluster_UserGroupUserModule_imports</title>
<polygon fill="none" stroke="black" points="16,-40.8 16,-92.8 239,-92.8 239,-40.8 16,-40.8"/>
</g>
<!-- UserGroupAssignedUserListComponent -->
<g id="node1" class="node">
<title>UserGroupAssignedUserListComponent</title>
<polygon fill="#ffffb3" stroke="black" points="708.83,-84.8 465.17,-84.8 465.17,-48.8 708.83,-48.8 708.83,-84.8"/>
<text text-anchor="middle" x="587" y="-62.6" font-family="Times,serif" font-size="14.00">UserGroupAssignedUserListComponent</text>
</g>
<!-- UserGroupUserModule -->
<g id="node3" class="node">
<title>UserGroupUserModule</title>
<polygon fill="#8dd3c7" stroke="black" points="343.17,-149.8 340.17,-153.8 319.17,-153.8 316.17,-149.8 194.83,-149.8 194.83,-113.8 343.17,-113.8 343.17,-149.8"/>
<text text-anchor="middle" x="269" y="-127.6" font-family="Times,serif" font-size="14.00">UserGroupUserModule</text>
</g>
<!-- UserGroupAssignedUserListComponent&#45;&gt;UserGroupUserModule -->
<g id="edge1" class="edge">
<title>UserGroupAssignedUserListComponent&#45;&gt;UserGroupUserModule</title>
<path fill="none" stroke="black" d="M587,-84.91C587,-104.14 587,-131.8 587,-131.8 587,-131.8 353.16,-131.8 353.16,-131.8"/>
<polygon fill="black" stroke="black" points="353.16,-128.3 343.16,-131.8 353.16,-135.3 353.16,-128.3"/>
</g>
<!-- UserGroupUserListComponent -->
<g id="node2" class="node">
<title>UserGroupUserListComponent</title>
<polygon fill="#ffffb3" stroke="black" points="446.73,-84.8 255.27,-84.8 255.27,-48.8 446.73,-48.8 446.73,-84.8"/>
<text text-anchor="middle" x="351" y="-62.6" font-family="Times,serif" font-size="14.00">UserGroupUserListComponent</text>
</g>
<!-- UserGroupUserListComponent&#45;&gt;UserGroupUserModule -->
<g id="edge2" class="edge">
<title>UserGroupUserListComponent&#45;&gt;UserGroupUserModule</title>
<path fill="none" stroke="black" d="M299.11,-84.91C299.11,-84.91 299.11,-103.79 299.11,-103.79"/>
<polygon fill="black" stroke="black" points="295.61,-103.79 299.11,-113.79 302.61,-103.79 295.61,-103.79"/>
</g>
<!-- I18nModule -->
<g id="node4" class="node">
<title>I18nModule</title>
<polygon fill="#8dd3c7" stroke="black" points="230.71,-84.8 227.71,-88.8 206.71,-88.8 203.71,-84.8 145.29,-84.8 145.29,-48.8 230.71,-48.8 230.71,-84.8"/>
<text text-anchor="middle" x="188" y="-62.6" font-family="Times,serif" font-size="14.00">I18nModule</text>
</g>
<!-- I18nModule&#45;&gt;UserGroupUserModule -->
<g id="edge3" class="edge">
<title>I18nModule&#45;&gt;UserGroupUserModule</title>
<path fill="none" stroke="black" d="M212.76,-84.91C212.76,-84.91 212.76,-103.79 212.76,-103.79"/>
<polygon fill="black" stroke="black" points="209.26,-103.79 212.76,-113.79 216.26,-103.79 209.26,-103.79"/>
</g>
<!-- SubListModule -->
<g id="node5" class="node">
<title>SubListModule</title>
<polygon fill="#8dd3c7" stroke="black" points="127.61,-84.8 124.61,-88.8 103.61,-88.8 100.61,-84.8 24.39,-84.8 24.39,-48.8 127.61,-48.8 127.61,-84.8"/>
<text text-anchor="middle" x="76" y="-62.6" font-family="Times,serif" font-size="14.00">SubListModule</text>
</g>
<!-- SubListModule&#45;&gt;UserGroupUserModule -->
<g id="edge4" class="edge">
<title>SubListModule&#45;&gt;UserGroupUserModule</title>
<path fill="none" stroke="black" d="M76,-84.91C76,-104.14 76,-131.8 76,-131.8 76,-131.8 184.66,-131.8 184.66,-131.8"/>
<polygon fill="black" stroke="black" points="184.66,-135.3 194.66,-131.8 184.66,-128.3 184.66,-135.3"/>
</g>
</g>
</svg>
