<?xml version="1.0" encoding="UTF-8" standalone="no"?>
<!DOCTYPE svg PUBLIC "-//W3C//DTD SVG 1.1//EN"
 "http://www.w3.org/Graphics/SVG/1.1/DTD/svg11.dtd">
<!-- Generated by graphviz version 2.47.0 (20210316.0004)
 -->
<!-- Title: dependencies Pages: 1 -->
<svg width="741pt" height="323pt"
 viewBox="0.00 0.00 741.00 322.59" xmlns="http://www.w3.org/2000/svg" xmlns:xlink="http://www.w3.org/1999/xlink">
<g id="graph0" class="graph" transform="scale(1 1) rotate(0) translate(4 318.59)">
<title>dependencies</title>
<polygon fill="white" stroke="transparent" points="-4,4 -4,-318.59 737,-318.59 737,4 -4,4"/>
<text text-anchor="start" x="345.51" y="-42.4" font-family="sans-serif" font-weight="bold" font-size="14.00">Legend</text>
<polygon fill="#ffffb3" stroke="transparent" points="132.5,-10 132.5,-30 152.5,-30 152.5,-10 132.5,-10"/>
<text text-anchor="start" x="156.13" y="-15.4" font-family="sans-serif" font-size="14.00"> &#160;Declarations</text>
<polygon fill="#8dd3c7" stroke="transparent" points="245.5,-10 245.5,-30 265.5,-30 265.5,-10 245.5,-10"/>
<text text-anchor="start" x="269.23" y="-15.4" font-family="sans-serif" font-size="14.00"> &#160;Module</text>
<polygon fill="#80b1d3" stroke="transparent" points="331.5,-10 331.5,-30 351.5,-30 351.5,-10 331.5,-10"/>
<text text-anchor="start" x="355.28" y="-15.4" font-family="sans-serif" font-size="14.00"> &#160;Bootstrap</text>
<polygon fill="#fdb462" stroke="transparent" points="428.5,-10 428.5,-30 448.5,-30 448.5,-10 428.5,-10"/>
<text text-anchor="start" x="452.17" y="-15.4" font-family="sans-serif" font-size="14.00"> &#160;Providers</text>
<polygon fill="#fb8072" stroke="transparent" points="524.5,-10 524.5,-30 544.5,-30 544.5,-10 524.5,-10"/>
<text text-anchor="start" x="548.23" y="-15.4" font-family="sans-serif" font-size="14.00"> &#160;Exports</text>
<g id="clust1" class="cluster">
<title>cluster_UserGroupUserModule</title>
<polygon fill="none" stroke="black" stroke-dasharray="1,5" points="8,-70 8,-306.59 725,-306.59 725,-70 8,-70"/>
</g>
<g id="clust5" class="cluster">
<title>cluster_UserGroupUserModule_imports</title>
<polygon fill="none" stroke="black" points="494,-189.59 494,-241.59 717,-241.59 717,-189.59 494,-189.59"/>
</g>
<g id="clust2" class="cluster">
<title>cluster_UserGroupUserModule_declarations</title>
<polygon fill="none" stroke="black" points="16,-189.59 16,-241.59 486,-241.59 486,-189.59 16,-189.59"/>
</g>
<g id="clust4" class="cluster">
<title>cluster_UserGroupUserModule_UserGroupUserListComponent_providers</title>
<polygon fill="none" stroke="black" points="16,-78 16,-176.59 568,-176.59 568,-78 16,-78"/>
</g>
<!-- UserGroupAssignedUserListComponent -->
<g id="node1" class="node">
<title>UserGroupAssignedUserListComponent</title>
<polygon fill="#ffffb3" stroke="black" points="477.83,-233.59 234.17,-233.59 234.17,-197.59 477.83,-197.59 477.83,-233.59"/>
<text text-anchor="middle" x="356" y="-211.39" font-family="Times,serif" font-size="14.00">UserGroupAssignedUserListComponent</text>
</g>
<!-- UserGroupUserModule -->
<g id="node3" class="node">
<title>UserGroupUserModule</title>
<polygon fill="#8dd3c7" stroke="black" points="529.17,-298.59 526.17,-302.59 505.17,-302.59 502.17,-298.59 380.83,-298.59 380.83,-262.59 529.17,-262.59 529.17,-298.59"/>
<text text-anchor="middle" x="455" y="-276.39" font-family="Times,serif" font-size="14.00">UserGroupUserModule</text>
</g>
<!-- UserGroupAssignedUserListComponent&#45;&gt;UserGroupUserModule -->
<g id="edge1" class="edge">
<title>UserGroupAssignedUserListComponent&#45;&gt;UserGroupUserModule</title>
<path fill="none" stroke="black" d="M429.42,-233.7C429.42,-233.7 429.42,-252.58 429.42,-252.58"/>
<polygon fill="black" stroke="black" points="425.92,-252.58 429.42,-262.58 432.92,-252.58 425.92,-252.58"/>
</g>
<!-- UserGroupUserListComponent -->
<g id="node2" class="node">
<title>UserGroupUserListComponent</title>
<polygon fill="#ffffb3" stroke="black" points="215.73,-233.59 24.27,-233.59 24.27,-197.59 215.73,-197.59 215.73,-233.59"/>
<text text-anchor="middle" x="120" y="-211.39" font-family="Times,serif" font-size="14.00">UserGroupUserListComponent</text>
</g>
<!-- UserGroupUserListComponent&#45;&gt;UserGroupUserModule -->
<g id="edge2" class="edge">
<title>UserGroupUserListComponent&#45;&gt;UserGroupUserModule</title>
<path fill="none" stroke="black" d="M120,-233.7C120,-252.93 120,-280.59 120,-280.59 120,-280.59 370.65,-280.59 370.65,-280.59"/>
<polygon fill="black" stroke="black" points="370.65,-284.09 380.65,-280.59 370.65,-277.09 370.65,-284.09"/>
</g>
<!-- {
 &#160;&#160;&#160;provide: ListService, useExisting: UserGroupUserListService,
} -->
<g id="node4" class="node">
<title>{
 &#160;&#160;&#160;provide: ListService, useExisting: UserGroupUserListService,
}</title>
<ellipse fill="#fdb462" stroke="black" cx="292" cy="-127.3" rx="268.2" ry="41.09"/>
<text text-anchor="middle" x="292" y="-139.9" font-family="Times,serif" font-size="14.00">{</text>
<text text-anchor="middle" x="292" y="-123.1" font-family="Times,serif" font-size="14.00"> &#160;&#160;&#160;provide: ListService, useExisting: UserGroupUserListService,</text>
<text text-anchor="middle" x="292" y="-106.3" font-family="Times,serif" font-size="14.00">}</text>
</g>
<!-- {
 &#160;&#160;&#160;provide: ListService, useExisting: UserGroupUserListService,
}&#45;&gt;UserGroupUserListComponent -->
<g id="edge3" class="edge">
<title>{
 &#160;&#160;&#160;provide: ListService, useExisting: UserGroupUserListService,
}&#45;&gt;UserGroupUserListComponent</title>
<path fill="none" stroke="black" d="M120,-159.17C120,-159.17 120,-187.38 120,-187.38"/>
<polygon fill="black" stroke="black" points="116.5,-187.38 120,-197.38 123.5,-187.38 116.5,-187.38"/>
</g>
<!-- I18nModule -->
<g id="node5" class="node">
<title>I18nModule</title>
<polygon fill="#8dd3c7" stroke="black" points="708.71,-233.59 705.71,-237.59 684.71,-237.59 681.71,-233.59 623.29,-233.59 623.29,-197.59 708.71,-197.59 708.71,-233.59"/>
<text text-anchor="middle" x="666" y="-211.39" font-family="Times,serif" font-size="14.00">I18nModule</text>
</g>
<!-- I18nModule&#45;&gt;UserGroupUserModule -->
<g id="edge4" class="edge">
<title>I18nModule&#45;&gt;UserGroupUserModule</title>
<path fill="none" stroke="black" d="M666,-233.7C666,-252.93 666,-280.59 666,-280.59 666,-280.59 539.09,-280.59 539.09,-280.59"/>
<polygon fill="black" stroke="black" points="539.09,-277.09 529.09,-280.59 539.09,-284.09 539.09,-277.09"/>
</g>
<!-- SubListModule -->
<g id="node6" class="node">
<title>SubListModule</title>
<polygon fill="#8dd3c7" stroke="black" points="605.61,-233.59 602.61,-237.59 581.61,-237.59 578.61,-233.59 502.39,-233.59 502.39,-197.59 605.61,-197.59 605.61,-233.59"/>
<text text-anchor="middle" x="554" y="-211.39" font-family="Times,serif" font-size="14.00">SubListModule</text>
</g>
<!-- SubListModule&#45;&gt;UserGroupUserModule -->
<g id="edge5" class="edge">
<title>SubListModule&#45;&gt;UserGroupUserModule</title>
<path fill="none" stroke="black" d="M515.76,-233.7C515.76,-233.7 515.76,-252.58 515.76,-252.58"/>
<polygon fill="black" stroke="black" points="512.26,-252.58 515.76,-262.58 519.26,-252.58 512.26,-252.58"/>
</g>
</g>
</svg>
