<?xml version="1.0" encoding="UTF-8" standalone="no"?>
<!DOCTYPE svg PUBLIC "-//W3C//DTD SVG 1.1//EN"
 "http://www.w3.org/Graphics/SVG/1.1/DTD/svg11.dtd">
<!-- Generated by graphviz version 2.46.0 (20210119.1425)
 -->
<!-- Title: dependencies Pages: 1 -->
<svg width="962pt" height="211pt"
 viewBox="0.00 0.00 962.00 211.00" xmlns="http://www.w3.org/2000/svg" xmlns:xlink="http://www.w3.org/1999/xlink">
<g id="graph0" class="graph" transform="scale(1 1) rotate(0) translate(4 207)">
<title>dependencies</title>
<polygon fill="white" stroke="transparent" points="-4,4 -4,-207 958,-207 958,4 -4,4"/>
<text text-anchor="start" x="456.01" y="-42.4" font-family="sans-serif" font-weight="bold" font-size="14.00">Legend</text>
<polygon fill="#ffffb3" stroke="transparent" points="243,-10 243,-30 263,-30 263,-10 243,-10"/>
<text text-anchor="start" x="266.63" y="-15.4" font-family="sans-serif" font-size="14.00"> &#160;Declarations</text>
<polygon fill="#8dd3c7" stroke="transparent" points="356,-10 356,-30 376,-30 376,-10 356,-10"/>
<text text-anchor="start" x="379.73" y="-15.4" font-family="sans-serif" font-size="14.00"> &#160;Module</text>
<polygon fill="#80b1d3" stroke="transparent" points="442,-10 442,-30 462,-30 462,-10 442,-10"/>
<text text-anchor="start" x="465.78" y="-15.4" font-family="sans-serif" font-size="14.00"> &#160;Bootstrap</text>
<polygon fill="#fdb462" stroke="transparent" points="539,-10 539,-30 559,-30 559,-10 539,-10"/>
<text text-anchor="start" x="562.67" y="-15.4" font-family="sans-serif" font-size="14.00"> &#160;Providers</text>
<polygon fill="#fb8072" stroke="transparent" points="635,-10 635,-30 655,-30 655,-10 635,-10"/>
<text text-anchor="start" x="658.73" y="-15.4" font-family="sans-serif" font-size="14.00"> &#160;Exports</text>
<g id="clust1" class="cluster">
<title>cluster_CostCenterComponentsModule</title>
<polygon fill="none" stroke="black" stroke-dasharray="1,5" points="8,-70 8,-195 946,-195 946,-70 8,-70"/>
</g>
<g id="clust3" class="cluster">
<title>cluster_CostCenterComponentsModule_imports</title>
<polygon fill="none" stroke="black" points="16,-78 16,-130 938,-130 938,-78 16,-78"/>
</g>
<!-- BudgetDetailsCellModule -->
<g id="node1" class="node">
<title>BudgetDetailsCellModule</title>
<polygon fill="#8dd3c7" stroke="black" points="930.48,-122 927.48,-126 906.48,-126 903.48,-122 767.52,-122 767.52,-86 930.48,-86 930.48,-122"/>
<text text-anchor="middle" x="849" y="-99.8" font-family="Times,serif" font-size="14.00">BudgetDetailsCellModule</text>
</g>
<!-- CostCenterComponentsModule -->
<g id="node6" class="node">
<title>CostCenterComponentsModule</title>
<polygon fill="#8dd3c7" stroke="black" points="562.82,-187 559.82,-191 538.82,-191 535.82,-187 369.18,-187 369.18,-151 562.82,-151 562.82,-187"/>
<text text-anchor="middle" x="466" y="-164.8" font-family="Times,serif" font-size="14.00">CostCenterComponentsModule</text>
</g>
<!-- BudgetDetailsCellModule&#45;&gt;CostCenterComponentsModule -->
<g id="edge1" class="edge">
<title>BudgetDetailsCellModule&#45;&gt;CostCenterComponentsModule</title>
<path fill="none" stroke="black" d="M849,-122.11C849,-141.34 849,-169 849,-169 849,-169 573.14,-169 573.14,-169"/>
<polygon fill="black" stroke="black" points="573.14,-165.5 563.14,-169 573.14,-172.5 573.14,-165.5"/>
</g>
<!-- CostCenterBudgetListModule -->
<g id="node2" class="node">
<title>CostCenterBudgetListModule</title>
<polygon fill="#8dd3c7" stroke="black" points="749.26,-122 746.26,-126 725.26,-126 722.26,-122 564.74,-122 564.74,-86 749.26,-86 749.26,-122"/>
<text text-anchor="middle" x="657" y="-99.8" font-family="Times,serif" font-size="14.00">CostCenterBudgetListModule</text>
</g>
<!-- CostCenterBudgetListModule&#45;&gt;CostCenterComponentsModule -->
<g id="edge2" class="edge">
<title>CostCenterBudgetListModule&#45;&gt;CostCenterComponentsModule</title>
<path fill="none" stroke="black" d="M564.67,-104C558.62,-104 554.88,-104 554.88,-104 554.88,-104 554.88,-140.89 554.88,-140.89"/>
<polygon fill="black" stroke="black" points="551.38,-140.89 554.88,-150.89 558.38,-140.89 551.38,-140.89"/>
</g>
<!-- CostCenterDetailsModule -->
<g id="node3" class="node">
<title>CostCenterDetailsModule</title>
<polygon fill="#8dd3c7" stroke="black" points="547.19,-122 544.19,-126 523.19,-126 520.19,-122 384.81,-122 384.81,-86 547.19,-86 547.19,-122"/>
<text text-anchor="middle" x="466" y="-99.8" font-family="Times,serif" font-size="14.00">CostCenterDetailsModule</text>
</g>
<!-- CostCenterDetailsModule&#45;&gt;CostCenterComponentsModule -->
<g id="edge3" class="edge">
<title>CostCenterDetailsModule&#45;&gt;CostCenterComponentsModule</title>
<path fill="none" stroke="black" d="M466,-122.11C466,-122.11 466,-140.99 466,-140.99"/>
<polygon fill="black" stroke="black" points="462.5,-140.99 466,-150.99 469.5,-140.99 462.5,-140.99"/>
</g>
<!-- CostCenterFormModule -->
<g id="node4" class="node">
<title>CostCenterFormModule</title>
<polygon fill="#8dd3c7" stroke="black" points="366.37,-122 363.37,-126 342.37,-126 339.37,-122 213.63,-122 213.63,-86 366.37,-86 366.37,-122"/>
<text text-anchor="middle" x="290" y="-99.8" font-family="Times,serif" font-size="14.00">CostCenterFormModule</text>
</g>
<!-- CostCenterFormModule&#45;&gt;CostCenterComponentsModule -->
<g id="edge4" class="edge">
<title>CostCenterFormModule&#45;&gt;CostCenterComponentsModule</title>
<path fill="none" stroke="black" d="M366.44,-104C372.95,-104 377.12,-104 377.12,-104 377.12,-104 377.12,-140.89 377.12,-140.89"/>
<polygon fill="black" stroke="black" points="373.62,-140.89 377.12,-150.89 380.62,-140.89 373.62,-140.89"/>
</g>
<!-- SharedOrganizationModule -->
<g id="node5" class="node">
<title>SharedOrganizationModule</title>
<polygon fill="#8dd3c7" stroke="black" points="195.51,-122 192.51,-126 171.51,-126 168.51,-122 24.49,-122 24.49,-86 195.51,-86 195.51,-122"/>
<text text-anchor="middle" x="110" y="-99.8" font-family="Times,serif" font-size="14.00">SharedOrganizationModule</text>
</g>
<!-- SharedOrganizationModule&#45;&gt;CostCenterComponentsModule -->
<g id="edge5" class="edge">
<title>SharedOrganizationModule&#45;&gt;CostCenterComponentsModule</title>
<path fill="none" stroke="black" d="M110,-122.11C110,-141.34 110,-169 110,-169 110,-169 359.19,-169 359.19,-169"/>
<polygon fill="black" stroke="black" points="359.19,-172.5 369.19,-169 359.19,-165.5 359.19,-172.5"/>
</g>
</g>
</svg>
