<?xml version="1.0" encoding="UTF-8" standalone="no"?>
<!DOCTYPE svg PUBLIC "-//W3C//DTD SVG 1.1//EN"
 "http://www.w3.org/Graphics/SVG/1.1/DTD/svg11.dtd">
<!-- Generated by graphviz version 2.40.1 (20161225.0304)
 -->
<!-- Title: dependencies Pages: 1 -->
<svg width="781pt" height="211pt"
 viewBox="0.00 0.00 781.00 211.00" xmlns="http://www.w3.org/2000/svg" xmlns:xlink="http://www.w3.org/1999/xlink">
<g id="graph0" class="graph" transform="scale(1 1) rotate(0) translate(4 207)">
<title>dependencies</title>
<polygon fill="#ffffff" stroke="transparent" points="-4,4 -4,-207 777,-207 777,4 -4,4"/>
<text text-anchor="start" x="365.5091" y="-42.4" font-family="sans-serif" font-weight="bold" font-size="14.00" fill="#000000">Legend</text>
<polygon fill="#ffffb3" stroke="transparent" points="152.5,-10 152.5,-30 172.5,-30 172.5,-10 152.5,-10"/>
<text text-anchor="start" x="176.129" y="-15.4" font-family="sans-serif" font-size="14.00" fill="#000000"> &#160;Declarations</text>
<polygon fill="#8dd3c7" stroke="transparent" points="265.5,-10 265.5,-30 285.5,-30 285.5,-10 265.5,-10"/>
<text text-anchor="start" x="289.2251" y="-15.4" font-family="sans-serif" font-size="14.00" fill="#000000"> &#160;Module</text>
<polygon fill="#80b1d3" stroke="transparent" points="351.5,-10 351.5,-30 371.5,-30 371.5,-10 351.5,-10"/>
<text text-anchor="start" x="375.2812" y="-15.4" font-family="sans-serif" font-size="14.00" fill="#000000"> &#160;Bootstrap</text>
<polygon fill="#fdb462" stroke="transparent" points="448.5,-10 448.5,-30 468.5,-30 468.5,-10 448.5,-10"/>
<text text-anchor="start" x="472.1732" y="-15.4" font-family="sans-serif" font-size="14.00" fill="#000000"> &#160;Providers</text>
<polygon fill="#fb8072" stroke="transparent" points="544.5,-10 544.5,-30 564.5,-30 564.5,-10 544.5,-10"/>
<text text-anchor="start" x="568.2258" y="-15.4" font-family="sans-serif" font-size="14.00" fill="#000000"> &#160;Exports</text>
<g id="clust1" class="cluster">
<title>cluster_CostCenterComponentsModule</title>
<polygon fill="none" stroke="#000000" stroke-dasharray="1,5" points="8,-70 8,-195 765,-195 765,-70 8,-70"/>
</g>
<g id="clust3" class="cluster">
<title>cluster_CostCenterComponentsModule_imports</title>
<polygon fill="none" stroke="#000000" points="16,-78 16,-130 757,-130 757,-78 16,-78"/>
</g>
<!-- CostCenterBudgetListModule -->
<g id="node1" class="node">
<title>CostCenterBudgetListModule</title>
<polygon fill="#8dd3c7" stroke="#000000" points="749.259,-122 746.259,-126 725.259,-126 722.259,-122 564.741,-122 564.741,-86 749.259,-86 749.259,-122"/>
<text text-anchor="middle" x="657" y="-99.8" font-family="Times,serif" font-size="14.00" fill="#000000">CostCenterBudgetListModule</text>
</g>
<!-- CostCenterComponentsModule -->
<g id="node5" class="node">
<title>CostCenterComponentsModule</title>
<polygon fill="#8dd3c7" stroke="#000000" points="474.8159,-187 471.8159,-191 450.8159,-191 447.8159,-187 281.1841,-187 281.1841,-151 474.8159,-151 474.8159,-187"/>
<text text-anchor="middle" x="378" y="-164.8" font-family="Times,serif" font-size="14.00" fill="#000000">CostCenterComponentsModule</text>
</g>
<!-- CostCenterBudgetListModule&#45;&gt;CostCenterComponentsModule -->
<g id="edge1" class="edge">
<title>CostCenterBudgetListModule&#45;&gt;CostCenterComponentsModule</title>
<path fill="none" stroke="#000000" d="M657,-122.1061C657,-141.3391 657,-169 657,-169 657,-169 484.7977,-169 484.7977,-169"/>
<polygon fill="#000000" stroke="#000000" points="484.7977,-165.5001 474.7977,-169 484.7976,-172.5001 484.7977,-165.5001"/>
</g>
<!-- CostCenterDetailsModule -->
<g id="node2" class="node">
<title>CostCenterDetailsModule</title>
<polygon fill="#8dd3c7" stroke="#000000" points="547.1909,-122 544.1909,-126 523.1909,-126 520.1909,-122 384.8091,-122 384.8091,-86 547.1909,-86 547.1909,-122"/>
<text text-anchor="middle" x="466" y="-99.8" font-family="Times,serif" font-size="14.00" fill="#000000">CostCenterDetailsModule</text>
</g>
<!-- CostCenterDetailsModule&#45;&gt;CostCenterComponentsModule -->
<g id="edge2" class="edge">
<title>CostCenterDetailsModule&#45;&gt;CostCenterComponentsModule</title>
<path fill="none" stroke="#000000" d="M429.7812,-122.1061C429.7812,-122.1061 429.7812,-140.991 429.7812,-140.991"/>
<polygon fill="#000000" stroke="#000000" points="426.2813,-140.9909 429.7812,-150.991 433.2813,-140.991 426.2813,-140.9909"/>
</g>
<!-- CostCenterFormModule -->
<g id="node3" class="node">
<title>CostCenterFormModule</title>
<polygon fill="#8dd3c7" stroke="#000000" points="366.3725,-122 363.3725,-126 342.3725,-126 339.3725,-122 213.6275,-122 213.6275,-86 366.3725,-86 366.3725,-122"/>
<text text-anchor="middle" x="290" y="-99.8" font-family="Times,serif" font-size="14.00" fill="#000000">CostCenterFormModule</text>
</g>
<!-- CostCenterFormModule&#45;&gt;CostCenterComponentsModule -->
<g id="edge3" class="edge">
<title>CostCenterFormModule&#45;&gt;CostCenterComponentsModule</title>
<path fill="none" stroke="#000000" d="M323.8892,-122.1061C323.8892,-122.1061 323.8892,-140.991 323.8892,-140.991"/>
<polygon fill="#000000" stroke="#000000" points="320.3893,-140.9909 323.8892,-150.991 327.3893,-140.991 320.3893,-140.9909"/>
</g>
<!-- SharedOrganizationModule -->
<g id="node4" class="node">
<title>SharedOrganizationModule</title>
<polygon fill="#8dd3c7" stroke="#000000" points="195.5057,-122 192.5057,-126 171.5057,-126 168.5057,-122 24.4943,-122 24.4943,-86 195.5057,-86 195.5057,-122"/>
<text text-anchor="middle" x="110" y="-99.8" font-family="Times,serif" font-size="14.00" fill="#000000">SharedOrganizationModule</text>
</g>
<!-- SharedOrganizationModule&#45;&gt;CostCenterComponentsModule -->
<g id="edge4" class="edge">
<title>SharedOrganizationModule&#45;&gt;CostCenterComponentsModule</title>
<path fill="none" stroke="#000000" d="M110,-122.1061C110,-141.3391 110,-169 110,-169 110,-169 271.2458,-169 271.2458,-169"/>
<polygon fill="#000000" stroke="#000000" points="271.2459,-172.5001 281.2458,-169 271.2458,-165.5001 271.2459,-172.5001"/>
</g>
</g>
</svg>
