<?xml version="1.0" encoding="UTF-8" standalone="no"?>
<!DOCTYPE svg PUBLIC "-//W3C//DTD SVG 1.1//EN"
 "http://www.w3.org/Graphics/SVG/1.1/DTD/svg11.dtd">
<!-- Generated by graphviz version 2.40.1 (20161225.0304)
 -->
<!-- Title: dependencies Pages: 1 -->
<svg width="962pt" height="211pt"
 viewBox="0.00 0.00 962.00 211.00" xmlns="http://www.w3.org/2000/svg" xmlns:xlink="http://www.w3.org/1999/xlink">
<g id="graph0" class="graph" transform="scale(1 1) rotate(0) translate(4 207)">
<title>dependencies</title>
<polygon fill="#ffffff" stroke="transparent" points="-4,4 -4,-207 958,-207 958,4 -4,4"/>
<text text-anchor="start" x="456.0091" y="-42.4" font-family="sans-serif" font-weight="bold" font-size="14.00" fill="#000000">Legend</text>
<polygon fill="#ffffb3" stroke="transparent" points="243,-10 243,-30 263,-30 263,-10 243,-10"/>
<text text-anchor="start" x="266.629" y="-15.4" font-family="sans-serif" font-size="14.00" fill="#000000"> &#160;Declarations</text>
<polygon fill="#8dd3c7" stroke="transparent" points="356,-10 356,-30 376,-30 376,-10 356,-10"/>
<text text-anchor="start" x="379.7251" y="-15.4" font-family="sans-serif" font-size="14.00" fill="#000000"> &#160;Module</text>
<polygon fill="#80b1d3" stroke="transparent" points="442,-10 442,-30 462,-30 462,-10 442,-10"/>
<text text-anchor="start" x="465.7812" y="-15.4" font-family="sans-serif" font-size="14.00" fill="#000000"> &#160;Bootstrap</text>
<polygon fill="#fdb462" stroke="transparent" points="539,-10 539,-30 559,-30 559,-10 539,-10"/>
<text text-anchor="start" x="562.6732" y="-15.4" font-family="sans-serif" font-size="14.00" fill="#000000"> &#160;Providers</text>
<polygon fill="#fb8072" stroke="transparent" points="635,-10 635,-30 655,-30 655,-10 635,-10"/>
<text text-anchor="start" x="658.7258" y="-15.4" font-family="sans-serif" font-size="14.00" fill="#000000"> &#160;Exports</text>
<g id="clust1" class="cluster">
<title>cluster_CostCenterComponentsModule</title>
<polygon fill="none" stroke="#000000" stroke-dasharray="1,5" points="8,-70 8,-195 946,-195 946,-70 8,-70"/>
</g>
<g id="clust3" class="cluster">
<title>cluster_CostCenterComponentsModule_imports</title>
<polygon fill="none" stroke="#000000" points="16,-78 16,-130 938,-130 938,-78 16,-78"/>
</g>
<!-- BudgetDetailsCellModule -->
<g id="node1" class="node">
<title>BudgetDetailsCellModule</title>
<polygon fill="#8dd3c7" stroke="#000000" points="930.4762,-122 927.4762,-126 906.4762,-126 903.4762,-122 767.5238,-122 767.5238,-86 930.4762,-86 930.4762,-122"/>
<text text-anchor="middle" x="849" y="-99.8" font-family="Times,serif" font-size="14.00" fill="#000000">BudgetDetailsCellModule</text>
</g>
<!-- CostCenterComponentsModule -->
<g id="node6" class="node">
<title>CostCenterComponentsModule</title>
<polygon fill="#8dd3c7" stroke="#000000" points="562.8159,-187 559.8159,-191 538.8159,-191 535.8159,-187 369.1841,-187 369.1841,-151 562.8159,-151 562.8159,-187"/>
<text text-anchor="middle" x="466" y="-164.8" font-family="Times,serif" font-size="14.00" fill="#000000">CostCenterComponentsModule</text>
</g>
<!-- BudgetDetailsCellModule&#45;&gt;CostCenterComponentsModule -->
<g id="edge1" class="edge">
<title>BudgetDetailsCellModule&#45;&gt;CostCenterComponentsModule</title>
<path fill="none" stroke="#000000" d="M849,-122.1061C849,-141.3391 849,-169 849,-169 849,-169 573.1422,-169 573.1422,-169"/>
<polygon fill="#000000" stroke="#000000" points="573.1422,-165.5001 563.1422,-169 573.1422,-172.5001 573.1422,-165.5001"/>
</g>
<!-- CostCenterBudgetListModule -->
<g id="node2" class="node">
<title>CostCenterBudgetListModule</title>
<polygon fill="#8dd3c7" stroke="#000000" points="749.259,-122 746.259,-126 725.259,-126 722.259,-122 564.741,-122 564.741,-86 749.259,-86 749.259,-122"/>
<text text-anchor="middle" x="657" y="-99.8" font-family="Times,serif" font-size="14.00" fill="#000000">CostCenterBudgetListModule</text>
</g>
<!-- CostCenterBudgetListModule&#45;&gt;CostCenterComponentsModule -->
<g id="edge2" class="edge">
<title>CostCenterBudgetListModule&#45;&gt;CostCenterComponentsModule</title>
<path fill="none" stroke="#000000" d="M564.6686,-104C558.618,-104 554.8766,-104 554.8766,-104 554.8766,-104 554.8766,-140.8939 554.8766,-140.8939"/>
<polygon fill="#000000" stroke="#000000" points="551.3767,-140.8938 554.8766,-150.8939 558.3767,-140.8939 551.3767,-140.8938"/>
</g>
<!-- CostCenterDetailsModule -->
<g id="node3" class="node">
<title>CostCenterDetailsModule</title>
<polygon fill="#8dd3c7" stroke="#000000" points="547.1909,-122 544.1909,-126 523.1909,-126 520.1909,-122 384.8091,-122 384.8091,-86 547.1909,-86 547.1909,-122"/>
<text text-anchor="middle" x="466" y="-99.8" font-family="Times,serif" font-size="14.00" fill="#000000">CostCenterDetailsModule</text>
</g>
<!-- CostCenterDetailsModule&#45;&gt;CostCenterComponentsModule -->
<g id="edge3" class="edge">
<title>CostCenterDetailsModule&#45;&gt;CostCenterComponentsModule</title>
<path fill="none" stroke="#000000" d="M466,-122.1061C466,-122.1061 466,-140.991 466,-140.991"/>
<polygon fill="#000000" stroke="#000000" points="462.5001,-140.9909 466,-150.991 469.5001,-140.991 462.5001,-140.9909"/>
</g>
<!-- CostCenterFormModule -->
<g id="node4" class="node">
<title>CostCenterFormModule</title>
<polygon fill="#8dd3c7" stroke="#000000" points="366.3725,-122 363.3725,-126 342.3725,-126 339.3725,-122 213.6275,-122 213.6275,-86 366.3725,-86 366.3725,-122"/>
<text text-anchor="middle" x="290" y="-99.8" font-family="Times,serif" font-size="14.00" fill="#000000">CostCenterFormModule</text>
</g>
<!-- CostCenterFormModule&#45;&gt;CostCenterComponentsModule -->
<g id="edge4" class="edge">
<title>CostCenterFormModule&#45;&gt;CostCenterComponentsModule</title>
<path fill="none" stroke="#000000" d="M366.4404,-104C372.9544,-104 377.1234,-104 377.1234,-104 377.1234,-104 377.1234,-140.8939 377.1234,-140.8939"/>
<polygon fill="#000000" stroke="#000000" points="373.6235,-140.8938 377.1234,-150.8939 380.6235,-140.8939 373.6235,-140.8938"/>
</g>
<!-- SharedOrganizationModule -->
<g id="node5" class="node">
<title>SharedOrganizationModule</title>
<polygon fill="#8dd3c7" stroke="#000000" points="195.5057,-122 192.5057,-126 171.5057,-126 168.5057,-122 24.4943,-122 24.4943,-86 195.5057,-86 195.5057,-122"/>
<text text-anchor="middle" x="110" y="-99.8" font-family="Times,serif" font-size="14.00" fill="#000000">SharedOrganizationModule</text>
</g>
<!-- SharedOrganizationModule&#45;&gt;CostCenterComponentsModule -->
<g id="edge5" class="edge">
<title>SharedOrganizationModule&#45;&gt;CostCenterComponentsModule</title>
<path fill="none" stroke="#000000" d="M110,-122.1061C110,-141.3391 110,-169 110,-169 110,-169 359.1917,-169 359.1917,-169"/>
<polygon fill="#000000" stroke="#000000" points="359.1917,-172.5001 369.1917,-169 359.1916,-165.5001 359.1917,-172.5001"/>
</g>
</g>
</svg>
