<?xml version="1.0" encoding="UTF-8" standalone="no"?>
<!DOCTYPE svg PUBLIC "-//W3C//DTD SVG 1.1//EN"
 "http://www.w3.org/Graphics/SVG/1.1/DTD/svg11.dtd">
<!-- Generated by graphviz version 2.47.3 (20210619.1520)
 -->
<!-- Title: dependencies Pages: 1 -->
<svg width="962pt" height="174pt"
 viewBox="0.00 0.00 962.00 173.80" xmlns="http://www.w3.org/2000/svg" xmlns:xlink="http://www.w3.org/1999/xlink">
<g id="graph0" class="graph" transform="scale(1 1) rotate(0) translate(4 169.8)">
<title>dependencies</title>
<polygon fill="white" stroke="transparent" points="-4,4 -4,-169.8 958,-169.8 958,4 -4,4"/>
<text text-anchor="middle" x="477" y="-8.2" font-family="sans-serif" font-size="14.00">dependencies</text>
<g id="clust1" class="cluster">
<title>cluster_CostCenterComponentsModule</title>
<polygon fill="none" stroke="black" stroke-dasharray="1,5" points="8,-32.8 8,-157.8 946,-157.8 946,-32.8 8,-32.8"/>
</g>
<g id="clust3" class="cluster">
<title>cluster_CostCenterComponentsModule_imports</title>
<polygon fill="none" stroke="black" points="16,-40.8 16,-92.8 938,-92.8 938,-40.8 16,-40.8"/>
</g>
<!-- BudgetDetailsCellModule -->
<g id="node1" class="node">
<title>BudgetDetailsCellModule</title>
<polygon fill="#8dd3c7" stroke="black" points="930.48,-84.8 927.48,-88.8 906.48,-88.8 903.48,-84.8 767.52,-84.8 767.52,-48.8 930.48,-48.8 930.48,-84.8"/>
<text text-anchor="middle" x="849" y="-62.6" font-family="Times,serif" font-size="14.00">BudgetDetailsCellModule</text>
</g>
<!-- CostCenterComponentsModule -->
<g id="node6" class="node">
<title>CostCenterComponentsModule</title>
<polygon fill="#8dd3c7" stroke="black" points="562.82,-149.8 559.82,-153.8 538.82,-153.8 535.82,-149.8 369.18,-149.8 369.18,-113.8 562.82,-113.8 562.82,-149.8"/>
<text text-anchor="middle" x="466" y="-127.6" font-family="Times,serif" font-size="14.00">CostCenterComponentsModule</text>
</g>
<!-- BudgetDetailsCellModule&#45;&gt;CostCenterComponentsModule -->
<g id="edge1" class="edge">
<title>BudgetDetailsCellModule&#45;&gt;CostCenterComponentsModule</title>
<path fill="none" stroke="black" d="M849,-84.91C849,-104.14 849,-131.8 849,-131.8 849,-131.8 573.14,-131.8 573.14,-131.8"/>
<polygon fill="black" stroke="black" points="573.14,-128.3 563.14,-131.8 573.14,-135.3 573.14,-128.3"/>
</g>
<!-- CostCenterBudgetListModule -->
<g id="node2" class="node">
<title>CostCenterBudgetListModule</title>
<polygon fill="#8dd3c7" stroke="black" points="749.26,-84.8 746.26,-88.8 725.26,-88.8 722.26,-84.8 564.74,-84.8 564.74,-48.8 749.26,-48.8 749.26,-84.8"/>
<text text-anchor="middle" x="657" y="-62.6" font-family="Times,serif" font-size="14.00">CostCenterBudgetListModule</text>
</g>
<!-- CostCenterBudgetListModule&#45;&gt;CostCenterComponentsModule -->
<g id="edge2" class="edge">
<title>CostCenterBudgetListModule&#45;&gt;CostCenterComponentsModule</title>
<path fill="none" stroke="black" d="M564.67,-66.8C558.62,-66.8 554.88,-66.8 554.88,-66.8 554.88,-66.8 554.88,-103.69 554.88,-103.69"/>
<polygon fill="black" stroke="black" points="551.38,-103.69 554.88,-113.69 558.38,-103.69 551.38,-103.69"/>
</g>
<!-- CostCenterDetailsModule -->
<g id="node3" class="node">
<title>CostCenterDetailsModule</title>
<polygon fill="#8dd3c7" stroke="black" points="547.19,-84.8 544.19,-88.8 523.19,-88.8 520.19,-84.8 384.81,-84.8 384.81,-48.8 547.19,-48.8 547.19,-84.8"/>
<text text-anchor="middle" x="466" y="-62.6" font-family="Times,serif" font-size="14.00">CostCenterDetailsModule</text>
</g>
<!-- CostCenterDetailsModule&#45;&gt;CostCenterComponentsModule -->
<g id="edge3" class="edge">
<title>CostCenterDetailsModule&#45;&gt;CostCenterComponentsModule</title>
<path fill="none" stroke="black" d="M466,-84.91C466,-84.91 466,-103.79 466,-103.79"/>
<polygon fill="black" stroke="black" points="462.5,-103.79 466,-113.79 469.5,-103.79 462.5,-103.79"/>
</g>
<!-- CostCenterFormModule -->
<g id="node4" class="node">
<title>CostCenterFormModule</title>
<polygon fill="#8dd3c7" stroke="black" points="366.37,-84.8 363.37,-88.8 342.37,-88.8 339.37,-84.8 213.63,-84.8 213.63,-48.8 366.37,-48.8 366.37,-84.8"/>
<text text-anchor="middle" x="290" y="-62.6" font-family="Times,serif" font-size="14.00">CostCenterFormModule</text>
</g>
<!-- CostCenterFormModule&#45;&gt;CostCenterComponentsModule -->
<g id="edge4" class="edge">
<title>CostCenterFormModule&#45;&gt;CostCenterComponentsModule</title>
<path fill="none" stroke="black" d="M366.44,-66.8C372.95,-66.8 377.12,-66.8 377.12,-66.8 377.12,-66.8 377.12,-103.69 377.12,-103.69"/>
<polygon fill="black" stroke="black" points="373.62,-103.69 377.12,-113.69 380.62,-103.69 373.62,-103.69"/>
</g>
<!-- SharedOrganizationModule -->
<g id="node5" class="node">
<title>SharedOrganizationModule</title>
<polygon fill="#8dd3c7" stroke="black" points="195.51,-84.8 192.51,-88.8 171.51,-88.8 168.51,-84.8 24.49,-84.8 24.49,-48.8 195.51,-48.8 195.51,-84.8"/>
<text text-anchor="middle" x="110" y="-62.6" font-family="Times,serif" font-size="14.00">SharedOrganizationModule</text>
</g>
<!-- SharedOrganizationModule&#45;&gt;CostCenterComponentsModule -->
<g id="edge5" class="edge">
<title>SharedOrganizationModule&#45;&gt;CostCenterComponentsModule</title>
<path fill="none" stroke="black" d="M110,-84.91C110,-104.14 110,-131.8 110,-131.8 110,-131.8 359.19,-131.8 359.19,-131.8"/>
<polygon fill="black" stroke="black" points="359.19,-135.3 369.19,-131.8 359.19,-128.3 359.19,-135.3"/>
</g>
</g>
</svg>
