<?xml version="1.0" encoding="UTF-8" standalone="no"?>
<!DOCTYPE svg PUBLIC "-//W3C//DTD SVG 1.1//EN"
 "http://www.w3.org/Graphics/SVG/1.1/DTD/svg11.dtd">
<!-- Generated by graphviz version 2.47.3 (20210619.1520)
 -->
<!-- Title: dependencies Pages: 1 -->
<svg width="930pt" height="358pt"
 viewBox="0.00 0.00 930.00 358.39" xmlns="http://www.w3.org/2000/svg" xmlns:xlink="http://www.w3.org/1999/xlink">
<g id="graph0" class="graph" transform="scale(1 1) rotate(0) translate(4 354.39)">
<title>dependencies</title>
<polygon fill="white" stroke="transparent" points="-4,4 -4,-354.39 926,-354.39 926,4 -4,4"/>
<text text-anchor="middle" x="461" y="-8.2" font-family="sans-serif" font-size="14.00">dependencies</text>
<g id="clust1" class="cluster">
<title>cluster_FileUploadModule</title>
<polygon fill="none" stroke="black" stroke-dasharray="1,5" points="8,-32.8 8,-342.39 914,-342.39 914,-32.8 8,-32.8"/>
</g>
<g id="clust2" class="cluster">
<title>cluster_FileUploadModule_declarations</title>
<polygon fill="none" stroke="black" points="381,-152.39 381,-204.39 541,-204.39 541,-152.39 381,-152.39"/>
</g>
<g id="clust3" class="cluster">
<title>cluster_FileUploadModule_FileUploadComponent_providers</title>
<polygon fill="none" stroke="black" points="16,-40.8 16,-139.39 906,-139.39 906,-40.8 16,-40.8"/>
</g>
<g id="clust5" class="cluster">
<title>cluster_FileUploadModule_exports</title>
<polygon fill="none" stroke="black" points="221,-282.39 221,-334.39 385,-334.39 385,-282.39 221,-282.39"/>
</g>
<g id="clust4" class="cluster">
<title>cluster_FileUploadModule_imports</title>
<polygon fill="none" stroke="black" points="129,-152.39 129,-204.39 373,-204.39 373,-152.39 129,-152.39"/>
</g>
<!-- FileUploadComponent -->
<g id="node1" class="node">
<title>FileUploadComponent</title>
<polygon fill="#ffffb3" stroke="black" points="533.32,-196.39 388.68,-196.39 388.68,-160.39 533.32,-160.39 533.32,-196.39"/>
<text text-anchor="middle" x="461" y="-174.19" font-family="Times,serif" font-size="14.00">FileUploadComponent</text>
</g>
<!-- FileUploadModule -->
<g id="node2" class="node">
<title>FileUploadModule</title>
<polygon fill="#8dd3c7" stroke="black" points="364.04,-261.39 361.04,-265.39 340.04,-265.39 337.04,-261.39 241.96,-261.39 241.96,-225.39 364.04,-225.39 364.04,-261.39"/>
<text text-anchor="middle" x="303" y="-239.19" font-family="Times,serif" font-size="14.00">FileUploadModule</text>
</g>
<!-- FileUploadComponent&#45;&gt;FileUploadModule -->
<g id="edge1" class="edge">
<title>FileUploadComponent&#45;&gt;FileUploadModule</title>
<path fill="none" stroke="black" d="M461,-196.5C461,-215.73 461,-243.39 461,-243.39 461,-243.39 374.09,-243.39 374.09,-243.39"/>
<polygon fill="black" stroke="black" points="374.09,-239.89 364.09,-243.39 374.09,-246.89 374.09,-239.89"/>
</g>
<!-- FileUploadComponent  -->
<g id="node6" class="node">
<title>FileUploadComponent </title>
<polygon fill="#fb8072" stroke="black" points="376.82,-326.39 229.18,-326.39 229.18,-290.39 376.82,-290.39 376.82,-326.39"/>
<text text-anchor="middle" x="303" y="-304.19" font-family="Times,serif" font-size="14.00">FileUploadComponent </text>
</g>
<!-- FileUploadModule&#45;&gt;FileUploadComponent  -->
<g id="edge5" class="edge">
<title>FileUploadModule&#45;&gt;FileUploadComponent </title>
<path fill="none" stroke="black" stroke-dasharray="5,2" d="M303,-261.5C303,-261.5 303,-280.38 303,-280.38"/>
<polygon fill="black" stroke="black" points="299.5,-280.38 303,-290.38 306.5,-280.38 299.5,-280.38"/>
</g>
<!-- {
 &#160;&#160;&#160;provide: NG_VALUE_ACCESSOR, useExisting: forwardRef(() =&gt; FileUploadComponent), multi: true,
} -->
<g id="node3" class="node">
<title>{
 &#160;&#160;&#160;provide: NG_VALUE_ACCESSOR, useExisting: forwardRef(() =&gt; FileUploadComponent), multi: true,
}</title>
<ellipse fill="#fdb462" stroke="black" cx="461" cy="-90.1" rx="436.55" ry="41.09"/>
<text text-anchor="middle" x="461" y="-102.7" font-family="Times,serif" font-size="14.00">{</text>
<text text-anchor="middle" x="461" y="-85.9" font-family="Times,serif" font-size="14.00"> &#160;&#160;&#160;provide: NG_VALUE_ACCESSOR, useExisting: forwardRef(() =&gt; FileUploadComponent), multi: true,</text>
<text text-anchor="middle" x="461" y="-69.1" font-family="Times,serif" font-size="14.00">}</text>
</g>
<!-- {
 &#160;&#160;&#160;provide: NG_VALUE_ACCESSOR, useExisting: forwardRef(() =&gt; FileUploadComponent), multi: true,
}&#45;&gt;FileUploadComponent -->
<g id="edge2" class="edge">
<title>{
 &#160;&#160;&#160;provide: NG_VALUE_ACCESSOR, useExisting: forwardRef(() =&gt; FileUploadComponent), multi: true,
}&#45;&gt;FileUploadComponent</title>
<path fill="none" stroke="black" d="M461,-131.4C461,-131.4 461,-150.06 461,-150.06"/>
<polygon fill="black" stroke="black" points="457.5,-150.06 461,-160.06 464.5,-150.06 457.5,-150.06"/>
</g>
<!-- FormErrorsModule -->
<g id="node4" class="node">
<title>FormErrorsModule</title>
<polygon fill="#8dd3c7" stroke="black" points="365.36,-196.39 362.36,-200.39 341.36,-200.39 338.36,-196.39 240.64,-196.39 240.64,-160.39 365.36,-160.39 365.36,-196.39"/>
<text text-anchor="middle" x="303" y="-174.19" font-family="Times,serif" font-size="14.00">FormErrorsModule</text>
</g>
<!-- FormErrorsModule&#45;&gt;FileUploadModule -->
<g id="edge3" class="edge">
<title>FormErrorsModule&#45;&gt;FileUploadModule</title>
<path fill="none" stroke="black" d="M303,-196.5C303,-196.5 303,-215.38 303,-215.38"/>
<polygon fill="black" stroke="black" points="299.5,-215.38 303,-225.38 306.5,-215.38 299.5,-215.38"/>
</g>
<!-- I18nModule -->
<g id="node5" class="node">
<title>I18nModule</title>
<polygon fill="#8dd3c7" stroke="black" points="222.71,-196.39 219.71,-200.39 198.71,-200.39 195.71,-196.39 137.29,-196.39 137.29,-160.39 222.71,-160.39 222.71,-196.39"/>
<text text-anchor="middle" x="180" y="-174.19" font-family="Times,serif" font-size="14.00">I18nModule</text>
</g>
<!-- I18nModule&#45;&gt;FileUploadModule -->
<g id="edge4" class="edge">
<title>I18nModule&#45;&gt;FileUploadModule</title>
<path fill="none" stroke="black" d="M180,-196.5C180,-215.73 180,-243.39 180,-243.39 180,-243.39 231.86,-243.39 231.86,-243.39"/>
<polygon fill="black" stroke="black" points="231.86,-246.89 241.86,-243.39 231.86,-239.89 231.86,-246.89"/>
</g>
</g>
</svg>
