<?xml version="1.0" encoding="UTF-8" standalone="no"?>
<!DOCTYPE svg PUBLIC "-//W3C//DTD SVG 1.1//EN"
 "http://www.w3.org/Graphics/SVG/1.1/DTD/svg11.dtd">
<!-- Generated by graphviz version 2.40.1 (20161225.0304)
 -->
<!-- Title: dependencies Pages: 1 -->
<svg width="2687pt" height="284pt"
 viewBox="0.00 0.00 2687.00 284.00" xmlns="http://www.w3.org/2000/svg" xmlns:xlink="http://www.w3.org/1999/xlink">
<g id="graph0" class="graph" transform="scale(1 1) rotate(0) translate(4 280)">
<title>dependencies</title>
<polygon fill="#ffffff" stroke="transparent" points="-4,4 -4,-280 2683,-280 2683,4 -4,4"/>
<text text-anchor="start" x="1318.5091" y="-42.4" font-family="sans-serif" font-weight="bold" font-size="14.00" fill="#000000">Legend</text>
<polygon fill="#ffffb3" stroke="transparent" points="1105.5,-10 1105.5,-30 1125.5,-30 1125.5,-10 1105.5,-10"/>
<text text-anchor="start" x="1129.129" y="-15.4" font-family="sans-serif" font-size="14.00" fill="#000000"> &#160;Declarations</text>
<polygon fill="#8dd3c7" stroke="transparent" points="1218.5,-10 1218.5,-30 1238.5,-30 1238.5,-10 1218.5,-10"/>
<text text-anchor="start" x="1242.2251" y="-15.4" font-family="sans-serif" font-size="14.00" fill="#000000"> &#160;Module</text>
<polygon fill="#80b1d3" stroke="transparent" points="1304.5,-10 1304.5,-30 1324.5,-30 1324.5,-10 1304.5,-10"/>
<text text-anchor="start" x="1328.2812" y="-15.4" font-family="sans-serif" font-size="14.00" fill="#000000"> &#160;Bootstrap</text>
<polygon fill="#fdb462" stroke="transparent" points="1401.5,-10 1401.5,-30 1421.5,-30 1421.5,-10 1401.5,-10"/>
<text text-anchor="start" x="1425.1732" y="-15.4" font-family="sans-serif" font-size="14.00" fill="#000000"> &#160;Providers</text>
<polygon fill="#fb8072" stroke="transparent" points="1497.5,-10 1497.5,-30 1517.5,-30 1517.5,-10 1497.5,-10"/>
<text text-anchor="start" x="1521.2258" y="-15.4" font-family="sans-serif" font-size="14.00" fill="#000000"> &#160;Exports</text>
<g id="clust1" class="cluster">
<title>cluster_ReplenishmentOrderDetailsModule</title>
<polygon fill="none" stroke="#000000" stroke-dasharray="1,5" points="8,-70 8,-268 2671,-268 2671,-70 8,-70"/>
</g>
<g id="clust2" class="cluster">
<title>cluster_ReplenishmentOrderDetailsModule_declarations</title>
<polygon fill="none" stroke="#000000" points="1195,-78 1195,-130 2663,-130 2663,-78 1195,-78"/>
</g>
<g id="clust10" class="cluster">
<title>cluster_ReplenishmentOrderDetailsModule_imports</title>
<polygon fill="none" stroke="#000000" points="16,-78 16,-130 1187,-130 1187,-78 16,-78"/>
</g>
<g id="clust11" class="cluster">
<title>cluster_ReplenishmentOrderDetailsModule_exports</title>
<polygon fill="none" stroke="#000000" points="420,-208 420,-260 1912,-260 1912,-208 420,-208"/>
</g>
<!-- ConsignmentTrackingComponent -->
<g id="node1" class="node">
<title>ConsignmentTrackingComponent</title>
<polygon fill="#ffffb3" stroke="#000000" points="2655.0335,-122 2448.9665,-122 2448.9665,-86 2655.0335,-86 2655.0335,-122"/>
<text text-anchor="middle" x="2552" y="-99.8" font-family="Times,serif" font-size="14.00" fill="#000000">ConsignmentTrackingComponent</text>
</g>
<!-- ReplenishmentOrderDetailsModule -->
<g id="node8" class="node">
<title>ReplenishmentOrderDetailsModule</title>
<polygon fill="#8dd3c7" stroke="#000000" points="1243.8319,-187 1240.8319,-191 1219.8319,-191 1216.8319,-187 1028.1681,-187 1028.1681,-151 1243.8319,-151 1243.8319,-187"/>
<text text-anchor="middle" x="1136" y="-164.8" font-family="Times,serif" font-size="14.00" fill="#000000">ReplenishmentOrderDetailsModule</text>
</g>
<!-- ConsignmentTrackingComponent&#45;&gt;ReplenishmentOrderDetailsModule -->
<g id="edge1" class="edge">
<title>ConsignmentTrackingComponent&#45;&gt;ReplenishmentOrderDetailsModule</title>
<path fill="none" stroke="#000000" d="M2552,-122.2843C2552,-143.3211 2552,-175 2552,-175 2552,-175 1253.8838,-175 1253.8838,-175"/>
<polygon fill="#000000" stroke="#000000" points="1253.8838,-171.5001 1243.8838,-175 1253.8837,-178.5001 1253.8838,-171.5001"/>
</g>
<!-- OrderConsignedEntriesComponent -->
<g id="node2" class="node">
<title>OrderConsignedEntriesComponent</title>
<polygon fill="#ffffb3" stroke="#000000" points="2430.5154,-122 2217.4846,-122 2217.4846,-86 2430.5154,-86 2430.5154,-122"/>
<text text-anchor="middle" x="2324" y="-99.8" font-family="Times,serif" font-size="14.00" fill="#000000">OrderConsignedEntriesComponent</text>
</g>
<!-- OrderConsignedEntriesComponent&#45;&gt;ReplenishmentOrderDetailsModule -->
<g id="edge2" class="edge">
<title>OrderConsignedEntriesComponent&#45;&gt;ReplenishmentOrderDetailsModule</title>
<path fill="none" stroke="#000000" d="M2324,-122.308C2324,-142.1455 2324,-171 2324,-171 2324,-171 1254.0489,-171 1254.0489,-171"/>
<polygon fill="#000000" stroke="#000000" points="1254.0489,-167.5001 1244.0489,-171 1254.0488,-174.5001 1254.0489,-167.5001"/>
</g>
<!-- OrderDetailActionsComponent -->
<g id="node3" class="node">
<title>OrderDetailActionsComponent</title>
<polygon fill="#ffffb3" stroke="#000000" points="2198.7296,-122 2007.2704,-122 2007.2704,-86 2198.7296,-86 2198.7296,-122"/>
<text text-anchor="middle" x="2103" y="-99.8" font-family="Times,serif" font-size="14.00" fill="#000000">OrderDetailActionsComponent</text>
</g>
<!-- OrderDetailActionsComponent&#45;&gt;ReplenishmentOrderDetailsModule -->
<g id="edge3" class="edge">
<title>OrderDetailActionsComponent&#45;&gt;ReplenishmentOrderDetailsModule</title>
<path fill="none" stroke="#000000" d="M2103,-122.2222C2103,-140.8285 2103,-167 2103,-167 2103,-167 1254.1124,-167 1254.1124,-167"/>
<polygon fill="#000000" stroke="#000000" points="1254.1125,-163.5001 1244.1124,-167 1254.1124,-170.5001 1254.1125,-163.5001"/>
</g>
<!-- OrderDetailItemsComponent -->
<g id="node4" class="node">
<title>OrderDetailItemsComponent</title>
<polygon fill="#ffffb3" stroke="#000000" points="1988.7836,-122 1809.2164,-122 1809.2164,-86 1988.7836,-86 1988.7836,-122"/>
<text text-anchor="middle" x="1899" y="-99.8" font-family="Times,serif" font-size="14.00" fill="#000000">OrderDetailItemsComponent</text>
</g>
<!-- OrderDetailItemsComponent&#45;&gt;ReplenishmentOrderDetailsModule -->
<g id="edge4" class="edge">
<title>OrderDetailItemsComponent&#45;&gt;ReplenishmentOrderDetailsModule</title>
<path fill="none" stroke="#000000" d="M1856.6874,-122.0225C1856.6874,-139.3734 1856.6874,-163 1856.6874,-163 1856.6874,-163 1253.8942,-163 1253.8942,-163"/>
<polygon fill="#000000" stroke="#000000" points="1253.8942,-159.5001 1243.8942,-163 1253.8942,-166.5001 1253.8942,-159.5001"/>
</g>
<!-- OrderDetailShippingComponent -->
<g id="node5" class="node">
<title>OrderDetailShippingComponent</title>
<polygon fill="#ffffb3" stroke="#000000" points="1791.2464,-122 1592.7536,-122 1592.7536,-86 1791.2464,-86 1791.2464,-122"/>
<text text-anchor="middle" x="1692" y="-99.8" font-family="Times,serif" font-size="14.00" fill="#000000">OrderDetailShippingComponent</text>
</g>
<!-- OrderDetailShippingComponent&#45;&gt;ReplenishmentOrderDetailsModule -->
<g id="edge5" class="edge">
<title>OrderDetailShippingComponent&#45;&gt;ReplenishmentOrderDetailsModule</title>
<path fill="none" stroke="#000000" d="M1634.0671,-122.0091C1634.0671,-138.0494 1634.0671,-159 1634.0671,-159 1634.0671,-159 1254.0732,-159 1254.0732,-159"/>
<polygon fill="#000000" stroke="#000000" points="1254.0732,-155.5001 1244.0732,-159 1254.0731,-162.5001 1254.0732,-155.5001"/>
</g>
<!-- OrderDetailTotalsComponent -->
<g id="node6" class="node">
<title>OrderDetailTotalsComponent</title>
<polygon fill="#ffffb3" stroke="#000000" points="1574.6755,-122 1391.3245,-122 1391.3245,-86 1574.6755,-86 1574.6755,-122"/>
<text text-anchor="middle" x="1483" y="-99.8" font-family="Times,serif" font-size="14.00" fill="#000000">OrderDetailTotalsComponent</text>
</g>
<!-- OrderDetailTotalsComponent&#45;&gt;ReplenishmentOrderDetailsModule -->
<g id="edge6" class="edge">
<title>OrderDetailTotalsComponent&#45;&gt;ReplenishmentOrderDetailsModule</title>
<path fill="none" stroke="#000000" d="M1416.0135,-122.1243C1416.0135,-136.7832 1416.0135,-155 1416.0135,-155 1416.0135,-155 1253.86,-155 1253.86,-155"/>
<polygon fill="#000000" stroke="#000000" points="1253.86,-151.5001 1243.86,-155 1253.86,-158.5001 1253.86,-151.5001"/>
</g>
<!-- TrackingEventsComponent -->
<g id="node7" class="node">
<title>TrackingEventsComponent</title>
<polygon fill="#ffffb3" stroke="#000000" points="1372.9678,-122 1203.0322,-122 1203.0322,-86 1372.9678,-86 1372.9678,-122"/>
<text text-anchor="middle" x="1288" y="-99.8" font-family="Times,serif" font-size="14.00" fill="#000000">TrackingEventsComponent</text>
</g>
<!-- TrackingEventsComponent&#45;&gt;ReplenishmentOrderDetailsModule -->
<g id="edge7" class="edge">
<title>TrackingEventsComponent&#45;&gt;ReplenishmentOrderDetailsModule</title>
<path fill="none" stroke="#000000" d="M1223.466,-122.1061C1223.466,-122.1061 1223.466,-140.991 1223.466,-140.991"/>
<polygon fill="#000000" stroke="#000000" points="1219.9661,-140.9909 1223.466,-150.991 1226.9661,-140.991 1219.9661,-140.9909"/>
</g>
<!-- ConsignmentTrackingComponent  -->
<g id="node17" class="node">
<title>ConsignmentTrackingComponent </title>
<polygon fill="#fb8072" stroke="#000000" points="1904.033,-252 1693.967,-252 1693.967,-216 1904.033,-216 1904.033,-252"/>
<text text-anchor="middle" x="1799" y="-229.8" font-family="Times,serif" font-size="14.00" fill="#000000">ConsignmentTrackingComponent </text>
</g>
<!-- ReplenishmentOrderDetailsModule&#45;&gt;ConsignmentTrackingComponent  -->
<g id="edge16" class="edge">
<title>ReplenishmentOrderDetailsModule&#45;&gt;ConsignmentTrackingComponent </title>
<path fill="none" stroke="#000000" stroke-dasharray="5,2" d="M1244.1122,-179C1418.5312,-179 1742.6783,-179 1742.6783,-179 1742.6783,-179 1742.6783,-205.9909 1742.6783,-205.9909"/>
<polygon fill="#000000" stroke="#000000" points="1739.1784,-205.9909 1742.6783,-215.9909 1746.1784,-205.991 1739.1784,-205.9909"/>
</g>
<!-- OrderConsignedEntriesComponent  -->
<g id="node18" class="node">
<title>OrderConsignedEntriesComponent </title>
<polygon fill="#fb8072" stroke="#000000" points="1675.5148,-252 1458.4852,-252 1458.4852,-216 1675.5148,-216 1675.5148,-252"/>
<text text-anchor="middle" x="1567" y="-229.8" font-family="Times,serif" font-size="14.00" fill="#000000">OrderConsignedEntriesComponent </text>
</g>
<!-- ReplenishmentOrderDetailsModule&#45;&gt;OrderConsignedEntriesComponent  -->
<g id="edge17" class="edge">
<title>ReplenishmentOrderDetailsModule&#45;&gt;OrderConsignedEntriesComponent </title>
<path fill="none" stroke="#000000" stroke-dasharray="5,2" d="M1244.0296,-183C1356.534,-183 1516.5402,-183 1516.5402,-183 1516.5402,-183 1516.5402,-205.8757 1516.5402,-205.8757"/>
<polygon fill="#000000" stroke="#000000" points="1513.0402,-205.8757 1516.5402,-215.8757 1520.0402,-205.8757 1513.0402,-205.8757"/>
</g>
<!-- OrderDetailActionsComponent  -->
<g id="node19" class="node">
<title>OrderDetailActionsComponent </title>
<polygon fill="#fb8072" stroke="#000000" points="1440.7295,-252 1245.2705,-252 1245.2705,-216 1440.7295,-216 1440.7295,-252"/>
<text text-anchor="middle" x="1343" y="-229.8" font-family="Times,serif" font-size="14.00" fill="#000000">OrderDetailActionsComponent </text>
</g>
<!-- ReplenishmentOrderDetailsModule&#45;&gt;OrderDetailActionsComponent  -->
<g id="edge18" class="edge">
<title>ReplenishmentOrderDetailsModule&#45;&gt;OrderDetailActionsComponent </title>
<path fill="none" stroke="#000000" stroke-dasharray="5,2" d="M1235.6538,-187.1061C1235.6538,-206.3391 1235.6538,-234 1235.6538,-234 1235.6538,-234 1236.6064,-234 1236.6064,-234"/>
<polygon fill="#000000" stroke="#000000" points="1235.1801,-237.5001 1245.1801,-234 1235.18,-230.5001 1235.1801,-237.5001"/>
</g>
<!-- OrderDetailItemsComponent  -->
<g id="node20" class="node">
<title>OrderDetailItemsComponent </title>
<polygon fill="#fb8072" stroke="#000000" points="1227.2835,-252 1044.7165,-252 1044.7165,-216 1227.2835,-216 1227.2835,-252"/>
<text text-anchor="middle" x="1136" y="-229.8" font-family="Times,serif" font-size="14.00" fill="#000000">OrderDetailItemsComponent </text>
</g>
<!-- ReplenishmentOrderDetailsModule&#45;&gt;OrderDetailItemsComponent  -->
<g id="edge19" class="edge">
<title>ReplenishmentOrderDetailsModule&#45;&gt;OrderDetailItemsComponent </title>
<path fill="none" stroke="#000000" stroke-dasharray="5,2" d="M1136,-187.1061C1136,-187.1061 1136,-205.991 1136,-205.991"/>
<polygon fill="#000000" stroke="#000000" points="1132.5001,-205.9909 1136,-215.991 1139.5001,-205.991 1132.5001,-205.9909"/>
</g>
<!-- OrderDetailShippingComponent  -->
<g id="node21" class="node">
<title>OrderDetailShippingComponent </title>
<polygon fill="#fb8072" stroke="#000000" points="1026.2464,-252 823.7536,-252 823.7536,-216 1026.2464,-216 1026.2464,-252"/>
<text text-anchor="middle" x="925" y="-229.8" font-family="Times,serif" font-size="14.00" fill="#000000">OrderDetailShippingComponent </text>
</g>
<!-- ReplenishmentOrderDetailsModule&#45;&gt;OrderDetailShippingComponent  -->
<g id="edge20" class="edge">
<title>ReplenishmentOrderDetailsModule&#45;&gt;OrderDetailShippingComponent </title>
<path fill="none" stroke="#000000" stroke-dasharray="5,2" d="M1036.3462,-187.1061C1036.3462,-206.3391 1036.3462,-234 1036.3462,-234 1036.3462,-234 1035.3581,-234 1035.3581,-234"/>
<polygon fill="#000000" stroke="#000000" points="1036.465,-230.5001 1026.465,-234 1036.4649,-237.5001 1036.465,-230.5001"/>
</g>
<!-- OrderDetailTotalsComponent  -->
<g id="node22" class="node">
<title>OrderDetailTotalsComponent </title>
<polygon fill="#fb8072" stroke="#000000" points="806.1757,-252 619.8243,-252 619.8243,-216 806.1757,-216 806.1757,-252"/>
<text text-anchor="middle" x="713" y="-229.8" font-family="Times,serif" font-size="14.00" fill="#000000">OrderDetailTotalsComponent </text>
</g>
<!-- ReplenishmentOrderDetailsModule&#45;&gt;OrderDetailTotalsComponent  -->
<g id="edge21" class="edge">
<title>ReplenishmentOrderDetailsModule&#45;&gt;OrderDetailTotalsComponent </title>
<path fill="none" stroke="#000000" stroke-dasharray="5,2" d="M1028.0988,-183C912.9126,-183 746.7849,-183 746.7849,-183 746.7849,-183 746.7849,-205.8757 746.7849,-205.8757"/>
<polygon fill="#000000" stroke="#000000" points="743.285,-205.8757 746.7849,-215.8757 750.285,-205.8757 743.285,-205.8757"/>
</g>
<!-- TrackingEventsComponent  -->
<g id="node23" class="node">
<title>TrackingEventsComponent </title>
<polygon fill="#fb8072" stroke="#000000" points="601.9684,-252 428.0316,-252 428.0316,-216 601.9684,-216 601.9684,-252"/>
<text text-anchor="middle" x="515" y="-229.8" font-family="Times,serif" font-size="14.00" fill="#000000">TrackingEventsComponent </text>
</g>
<!-- ReplenishmentOrderDetailsModule&#45;&gt;TrackingEventsComponent  -->
<g id="edge22" class="edge">
<title>ReplenishmentOrderDetailsModule&#45;&gt;TrackingEventsComponent </title>
<path fill="none" stroke="#000000" stroke-dasharray="5,2" d="M1027.8465,-179C864.4059,-179 573.3396,-179 573.3396,-179 573.3396,-179 573.3396,-205.9909 573.3396,-205.9909"/>
<polygon fill="#000000" stroke="#000000" points="569.8397,-205.9909 573.3396,-215.9909 576.8397,-205.991 569.8397,-205.9909"/>
</g>
<!-- CardModule -->
<g id="node9" class="node">
<title>CardModule</title>
<polygon fill="#8dd3c7" stroke="#000000" points="1179.2619,-122 1176.2619,-126 1155.2619,-126 1152.2619,-122 1092.7381,-122 1092.7381,-86 1179.2619,-86 1179.2619,-122"/>
<text text-anchor="middle" x="1136" y="-99.8" font-family="Times,serif" font-size="14.00" fill="#000000">CardModule</text>
</g>
<!-- CardModule&#45;&gt;ReplenishmentOrderDetailsModule -->
<g id="edge8" class="edge">
<title>CardModule&#45;&gt;ReplenishmentOrderDetailsModule</title>
<path fill="none" stroke="#000000" d="M1136,-122.1061C1136,-122.1061 1136,-140.991 1136,-140.991"/>
<polygon fill="#000000" stroke="#000000" points="1132.5001,-140.9909 1136,-150.991 1139.5001,-140.991 1132.5001,-140.9909"/>
</g>
<!-- CartSharedModule -->
<g id="node10" class="node">
<title>CartSharedModule</title>
<polygon fill="#8dd3c7" stroke="#000000" points="1074.0255,-122 1071.0255,-126 1050.0255,-126 1047.0255,-122 951.9745,-122 951.9745,-86 1074.0255,-86 1074.0255,-122"/>
<text text-anchor="middle" x="1013" y="-99.8" font-family="Times,serif" font-size="14.00" fill="#000000">CartSharedModule</text>
</g>
<!-- CartSharedModule&#45;&gt;ReplenishmentOrderDetailsModule -->
<g id="edge9" class="edge">
<title>CartSharedModule&#45;&gt;ReplenishmentOrderDetailsModule</title>
<path fill="none" stroke="#000000" d="M1051.1732,-122.1061C1051.1732,-122.1061 1051.1732,-140.991 1051.1732,-140.991"/>
<polygon fill="#000000" stroke="#000000" points="1047.6733,-140.9909 1051.1732,-150.991 1054.6733,-140.991 1047.6733,-140.9909"/>
</g>
<!-- I18nModule -->
<g id="node11" class="node">
<title>I18nModule</title>
<polygon fill="#8dd3c7" stroke="#000000" points="933.7107,-122 930.7107,-126 909.7107,-126 906.7107,-122 848.2893,-122 848.2893,-86 933.7107,-86 933.7107,-122"/>
<text text-anchor="middle" x="891" y="-99.8" font-family="Times,serif" font-size="14.00" fill="#000000">I18nModule</text>
</g>
<!-- I18nModule&#45;&gt;ReplenishmentOrderDetailsModule -->
<g id="edge10" class="edge">
<title>I18nModule&#45;&gt;ReplenishmentOrderDetailsModule</title>
<path fill="none" stroke="#000000" d="M891,-122.1243C891,-136.7832 891,-155 891,-155 891,-155 1017.8263,-155 1017.8263,-155"/>
<polygon fill="#000000" stroke="#000000" points="1017.8263,-158.5001 1027.8263,-155 1017.8262,-151.5001 1017.8263,-158.5001"/>
</g>
<!-- ListNavigationModule -->
<g id="node12" class="node">
<title>ListNavigationModule</title>
<polygon fill="#8dd3c7" stroke="#000000" points="830.5365,-122 827.5365,-126 806.5365,-126 803.5365,-122 687.4635,-122 687.4635,-86 830.5365,-86 830.5365,-122"/>
<text text-anchor="middle" x="759" y="-99.8" font-family="Times,serif" font-size="14.00" fill="#000000">ListNavigationModule</text>
</g>
<!-- ListNavigationModule&#45;&gt;ReplenishmentOrderDetailsModule -->
<g id="edge11" class="edge">
<title>ListNavigationModule&#45;&gt;ReplenishmentOrderDetailsModule</title>
<path fill="none" stroke="#000000" d="M815.1073,-122.0091C815.1073,-138.0494 815.1073,-159 815.1073,-159 815.1073,-159 1017.8077,-159 1017.8077,-159"/>
<polygon fill="#000000" stroke="#000000" points="1017.8078,-162.5001 1027.8077,-159 1017.8077,-155.5001 1017.8078,-162.5001"/>
</g>
<!-- PromotionsModule -->
<g id="node13" class="node">
<title>PromotionsModule</title>
<polygon fill="#8dd3c7" stroke="#000000" points="669.1094,-122 666.1094,-126 645.1094,-126 642.1094,-122 544.8906,-122 544.8906,-86 669.1094,-86 669.1094,-122"/>
<text text-anchor="middle" x="607" y="-99.8" font-family="Times,serif" font-size="14.00" fill="#000000">PromotionsModule</text>
</g>
<!-- PromotionsModule&#45;&gt;ReplenishmentOrderDetailsModule -->
<g id="edge12" class="edge">
<title>PromotionsModule&#45;&gt;ReplenishmentOrderDetailsModule</title>
<path fill="none" stroke="#000000" d="M644.3585,-122.0225C644.3585,-139.3734 644.3585,-163 644.3585,-163 644.3585,-163 1018.1072,-163 1018.1072,-163"/>
<polygon fill="#000000" stroke="#000000" points="1018.1072,-166.5001 1028.1072,-163 1018.1072,-159.5001 1018.1072,-166.5001"/>
</g>
<!-- ReplenishmentOrderCancellationDialogModule -->
<g id="node14" class="node">
<title>ReplenishmentOrderCancellationDialogModule</title>
<polygon fill="#8dd3c7" stroke="#000000" points="526.5394,-122 523.5394,-126 502.5394,-126 499.5394,-122 241.4606,-122 241.4606,-86 526.5394,-86 526.5394,-122"/>
<text text-anchor="middle" x="384" y="-99.8" font-family="Times,serif" font-size="14.00" fill="#000000">ReplenishmentOrderCancellationDialogModule</text>
</g>
<!-- ReplenishmentOrderCancellationDialogModule&#45;&gt;ReplenishmentOrderDetailsModule -->
<g id="edge13" class="edge">
<title>ReplenishmentOrderCancellationDialogModule&#45;&gt;ReplenishmentOrderDetailsModule</title>
<path fill="none" stroke="#000000" d="M477.3929,-122.2222C477.3929,-140.8285 477.3929,-167 477.3929,-167 477.3929,-167 1017.9819,-167 1017.9819,-167"/>
<polygon fill="#000000" stroke="#000000" points="1017.982,-170.5001 1027.9819,-167 1017.9819,-163.5001 1017.982,-170.5001"/>
</g>
<!-- SpinnerModule -->
<g id="node15" class="node">
<title>SpinnerModule</title>
<polygon fill="#8dd3c7" stroke="#000000" points="223.5982,-122 220.5982,-126 199.5982,-126 196.5982,-122 120.4018,-122 120.4018,-86 223.5982,-86 223.5982,-122"/>
<text text-anchor="middle" x="172" y="-99.8" font-family="Times,serif" font-size="14.00" fill="#000000">SpinnerModule</text>
</g>
<!-- SpinnerModule&#45;&gt;ReplenishmentOrderDetailsModule -->
<g id="edge14" class="edge">
<title>SpinnerModule&#45;&gt;ReplenishmentOrderDetailsModule</title>
<path fill="none" stroke="#000000" d="M172,-122.308C172,-142.1455 172,-171 172,-171 172,-171 1017.7573,-171 1017.7573,-171"/>
<polygon fill="#000000" stroke="#000000" points="1017.7573,-174.5001 1027.7573,-171 1017.7573,-167.5001 1017.7573,-174.5001"/>
</g>
<!-- UrlModule -->
<g id="node16" class="node">
<title>UrlModule</title>
<polygon fill="#8dd3c7" stroke="#000000" points="102.2079,-122 99.2079,-126 78.2079,-126 75.2079,-122 23.7921,-122 23.7921,-86 102.2079,-86 102.2079,-122"/>
<text text-anchor="middle" x="63" y="-99.8" font-family="Times,serif" font-size="14.00" fill="#000000">UrlModule</text>
</g>
<!-- UrlModule&#45;&gt;ReplenishmentOrderDetailsModule -->
<g id="edge15" class="edge">
<title>UrlModule&#45;&gt;ReplenishmentOrderDetailsModule</title>
<path fill="none" stroke="#000000" d="M63,-122.2843C63,-143.3211 63,-175 63,-175 63,-175 1017.7075,-175 1017.7075,-175"/>
<polygon fill="#000000" stroke="#000000" points="1017.7075,-178.5001 1027.7075,-175 1017.7074,-171.5001 1017.7075,-178.5001"/>
</g>
</g>
</svg>
