<?xml version="1.0" encoding="UTF-8" standalone="no"?>
<!DOCTYPE svg PUBLIC "-//W3C//DTD SVG 1.1//EN"
 "http://www.w3.org/Graphics/SVG/1.1/DTD/svg11.dtd">
<!-- Generated by graphviz version 2.47.0 (20210316.0004)
 -->
<!-- Title: dependencies Pages: 1 -->
<svg width="1503pt" height="284pt"
 viewBox="0.00 0.00 1503.00 284.00" xmlns="http://www.w3.org/2000/svg" xmlns:xlink="http://www.w3.org/1999/xlink">
<g id="graph0" class="graph" transform="scale(1 1) rotate(0) translate(4 280)">
<title>dependencies</title>
<polygon fill="white" stroke="transparent" points="-4,4 -4,-280 1499,-280 1499,4 -4,4"/>
<text text-anchor="start" x="726.51" y="-42.4" font-family="sans-serif" font-weight="bold" font-size="14.00">Legend</text>
<polygon fill="#ffffb3" stroke="transparent" points="513.5,-10 513.5,-30 533.5,-30 533.5,-10 513.5,-10"/>
<text text-anchor="start" x="537.13" y="-15.4" font-family="sans-serif" font-size="14.00"> &#160;Declarations</text>
<polygon fill="#8dd3c7" stroke="transparent" points="626.5,-10 626.5,-30 646.5,-30 646.5,-10 626.5,-10"/>
<text text-anchor="start" x="650.23" y="-15.4" font-family="sans-serif" font-size="14.00"> &#160;Module</text>
<polygon fill="#80b1d3" stroke="transparent" points="712.5,-10 712.5,-30 732.5,-30 732.5,-10 712.5,-10"/>
<text text-anchor="start" x="736.28" y="-15.4" font-family="sans-serif" font-size="14.00"> &#160;Bootstrap</text>
<polygon fill="#fdb462" stroke="transparent" points="809.5,-10 809.5,-30 829.5,-30 829.5,-10 809.5,-10"/>
<text text-anchor="start" x="833.17" y="-15.4" font-family="sans-serif" font-size="14.00"> &#160;Providers</text>
<polygon fill="#fb8072" stroke="transparent" points="905.5,-10 905.5,-30 925.5,-30 925.5,-10 905.5,-10"/>
<text text-anchor="start" x="929.23" y="-15.4" font-family="sans-serif" font-size="14.00"> &#160;Exports</text>
<g id="clust1" class="cluster">
<title>cluster_ReplenishmentOrderDetailsModule</title>
<polygon fill="none" stroke="black" stroke-dasharray="1,5" points="8,-70 8,-268 1487,-268 1487,-70 8,-70"/>
</g>
<g id="clust5" class="cluster">
<title>cluster_ReplenishmentOrderDetailsModule_exports</title>
<polygon fill="none" stroke="black" points="615,-208 615,-260 903,-260 903,-208 615,-208"/>
</g>
<g id="clust2" class="cluster">
<title>cluster_ReplenishmentOrderDetailsModule_declarations</title>
<polygon fill="none" stroke="black" points="1195,-78 1195,-130 1479,-130 1479,-78 1195,-78"/>
</g>
<g id="clust4" class="cluster">
<title>cluster_ReplenishmentOrderDetailsModule_imports</title>
<polygon fill="none" stroke="black" points="16,-78 16,-130 1187,-130 1187,-78 16,-78"/>
</g>
<!-- ReplenishmentOrderCancellationComponent -->
<g id="node1" class="node">
<title>ReplenishmentOrderCancellationComponent</title>
<polygon fill="#ffffb3" stroke="black" points="1471.22,-122 1202.78,-122 1202.78,-86 1471.22,-86 1471.22,-122"/>
<text text-anchor="middle" x="1337" y="-99.8" font-family="Times,serif" font-size="14.00">ReplenishmentOrderCancellationComponent</text>
</g>
<!-- ReplenishmentOrderDetailsModule -->
<g id="node2" class="node">
<title>ReplenishmentOrderDetailsModule</title>
<polygon fill="#8dd3c7" stroke="black" points="866.83,-187 863.83,-191 842.83,-191 839.83,-187 651.17,-187 651.17,-151 866.83,-151 866.83,-187"/>
<text text-anchor="middle" x="759" y="-164.8" font-family="Times,serif" font-size="14.00">ReplenishmentOrderDetailsModule</text>
</g>
<!-- ReplenishmentOrderCancellationComponent&#45;&gt;ReplenishmentOrderDetailsModule -->
<g id="edge1" class="edge">
<title>ReplenishmentOrderCancellationComponent&#45;&gt;ReplenishmentOrderDetailsModule</title>
<path fill="none" stroke="black" d="M1337,-122.29C1337,-144.21 1337,-178 1337,-178 1337,-178 877.04,-178 877.04,-178"/>
<polygon fill="black" stroke="black" points="877.04,-174.5 867.04,-178 877.04,-181.5 877.04,-174.5"/>
</g>
<!-- ReplenishmentOrderCancellationComponent  -->
<g id="node11" class="node">
<title>ReplenishmentOrderCancellationComponent </title>
<polygon fill="#fb8072" stroke="black" points="895.22,-252 622.78,-252 622.78,-216 895.22,-216 895.22,-252"/>
<text text-anchor="middle" x="759" y="-229.8" font-family="Times,serif" font-size="14.00">ReplenishmentOrderCancellationComponent </text>
</g>
<!-- ReplenishmentOrderDetailsModule&#45;&gt;ReplenishmentOrderCancellationComponent  -->
<g id="edge10" class="edge">
<title>ReplenishmentOrderDetailsModule&#45;&gt;ReplenishmentOrderCancellationComponent </title>
<path fill="none" stroke="black" stroke-dasharray="5,2" d="M759,-187.11C759,-187.11 759,-205.99 759,-205.99"/>
<polygon fill="black" stroke="black" points="755.5,-205.99 759,-215.99 762.5,-205.99 755.5,-205.99"/>
</g>
<!-- CardModule -->
<g id="node3" class="node">
<title>CardModule</title>
<polygon fill="#8dd3c7" stroke="black" points="1179.26,-122 1176.26,-126 1155.26,-126 1152.26,-122 1092.74,-122 1092.74,-86 1179.26,-86 1179.26,-122"/>
<text text-anchor="middle" x="1136" y="-99.8" font-family="Times,serif" font-size="14.00">CardModule</text>
</g>
<!-- CardModule&#45;&gt;ReplenishmentOrderDetailsModule -->
<g id="edge2" class="edge">
<title>CardModule&#45;&gt;ReplenishmentOrderDetailsModule</title>
<path fill="none" stroke="black" d="M1136,-122.11C1136,-141.34 1136,-169 1136,-169 1136,-169 877.03,-169 877.03,-169"/>
<polygon fill="black" stroke="black" points="877.03,-165.5 867.03,-169 877.03,-172.5 877.03,-165.5"/>
</g>
<!-- CartSharedModule -->
<g id="node4" class="node">
<title>CartSharedModule</title>
<polygon fill="#8dd3c7" stroke="black" points="1074.03,-122 1071.03,-126 1050.03,-126 1047.03,-122 951.97,-122 951.97,-86 1074.03,-86 1074.03,-122"/>
<text text-anchor="middle" x="1013" y="-99.8" font-family="Times,serif" font-size="14.00">CartSharedModule</text>
</g>
<!-- CartSharedModule&#45;&gt;ReplenishmentOrderDetailsModule -->
<g id="edge3" class="edge">
<title>CartSharedModule&#45;&gt;ReplenishmentOrderDetailsModule</title>
<path fill="none" stroke="black" d="M1013,-122.03C1013,-138.4 1013,-160 1013,-160 1013,-160 877.09,-160 877.09,-160"/>
<polygon fill="black" stroke="black" points="877.09,-156.5 867.09,-160 877.09,-163.5 877.09,-156.5"/>
</g>
<!-- I18nModule -->
<g id="node5" class="node">
<title>I18nModule</title>
<polygon fill="#8dd3c7" stroke="black" points="933.71,-122 930.71,-126 909.71,-126 906.71,-122 848.29,-122 848.29,-86 933.71,-86 933.71,-122"/>
<text text-anchor="middle" x="891" y="-99.8" font-family="Times,serif" font-size="14.00">I18nModule</text>
</g>
<!-- I18nModule&#45;&gt;ReplenishmentOrderDetailsModule -->
<g id="edge4" class="edge">
<title>I18nModule&#45;&gt;ReplenishmentOrderDetailsModule</title>
<path fill="none" stroke="black" d="M857.66,-122.11C857.66,-122.11 857.66,-140.99 857.66,-140.99"/>
<polygon fill="black" stroke="black" points="854.16,-140.99 857.66,-150.99 861.16,-140.99 854.16,-140.99"/>
</g>
<!-- ListNavigationModule -->
<g id="node6" class="node">
<title>ListNavigationModule</title>
<polygon fill="#8dd3c7" stroke="black" points="830.54,-122 827.54,-126 806.54,-126 803.54,-122 687.46,-122 687.46,-86 830.54,-86 830.54,-122"/>
<text text-anchor="middle" x="759" y="-99.8" font-family="Times,serif" font-size="14.00">ListNavigationModule</text>
</g>
<!-- ListNavigationModule&#45;&gt;ReplenishmentOrderDetailsModule -->
<g id="edge5" class="edge">
<title>ListNavigationModule&#45;&gt;ReplenishmentOrderDetailsModule</title>
<path fill="none" stroke="black" d="M759,-122.11C759,-122.11 759,-140.99 759,-140.99"/>
<polygon fill="black" stroke="black" points="755.5,-140.99 759,-150.99 762.5,-140.99 755.5,-140.99"/>
</g>
<!-- PromotionsModule -->
<g id="node7" class="node">
<title>PromotionsModule</title>
<polygon fill="#8dd3c7" stroke="black" points="669.11,-122 666.11,-126 645.11,-126 642.11,-122 544.89,-122 544.89,-86 669.11,-86 669.11,-122"/>
<text text-anchor="middle" x="607" y="-99.8" font-family="Times,serif" font-size="14.00">PromotionsModule</text>
</g>
<!-- PromotionsModule&#45;&gt;ReplenishmentOrderDetailsModule -->
<g id="edge6" class="edge">
<title>PromotionsModule&#45;&gt;ReplenishmentOrderDetailsModule</title>
<path fill="none" stroke="black" d="M660.07,-122.11C660.07,-122.11 660.07,-140.99 660.07,-140.99"/>
<polygon fill="black" stroke="black" points="656.57,-140.99 660.07,-150.99 663.57,-140.99 656.57,-140.99"/>
</g>
<!-- ReplenishmentOrderCancellationDialogModule -->
<g id="node8" class="node">
<title>ReplenishmentOrderCancellationDialogModule</title>
<polygon fill="#8dd3c7" stroke="black" points="526.54,-122 523.54,-126 502.54,-126 499.54,-122 241.46,-122 241.46,-86 526.54,-86 526.54,-122"/>
<text text-anchor="middle" x="384" y="-99.8" font-family="Times,serif" font-size="14.00">ReplenishmentOrderCancellationDialogModule</text>
</g>
<!-- ReplenishmentOrderCancellationDialogModule&#45;&gt;ReplenishmentOrderDetailsModule -->
<g id="edge7" class="edge">
<title>ReplenishmentOrderCancellationDialogModule&#45;&gt;ReplenishmentOrderDetailsModule</title>
<path fill="none" stroke="black" d="M384,-122.03C384,-138.4 384,-160 384,-160 384,-160 641.04,-160 641.04,-160"/>
<polygon fill="black" stroke="black" points="641.04,-163.5 651.04,-160 641.04,-156.5 641.04,-163.5"/>
</g>
<!-- SpinnerModule -->
<g id="node9" class="node">
<title>SpinnerModule</title>
<polygon fill="#8dd3c7" stroke="black" points="223.6,-122 220.6,-126 199.6,-126 196.6,-122 120.4,-122 120.4,-86 223.6,-86 223.6,-122"/>
<text text-anchor="middle" x="172" y="-99.8" font-family="Times,serif" font-size="14.00">SpinnerModule</text>
</g>
<!-- SpinnerModule&#45;&gt;ReplenishmentOrderDetailsModule -->
<g id="edge8" class="edge">
<title>SpinnerModule&#45;&gt;ReplenishmentOrderDetailsModule</title>
<path fill="none" stroke="black" d="M172,-122.11C172,-141.34 172,-169 172,-169 172,-169 640.99,-169 640.99,-169"/>
<polygon fill="black" stroke="black" points="640.99,-172.5 650.99,-169 640.99,-165.5 640.99,-172.5"/>
</g>
<!-- UrlModule -->
<g id="node10" class="node">
<title>UrlModule</title>
<polygon fill="#8dd3c7" stroke="black" points="102.21,-122 99.21,-126 78.21,-126 75.21,-122 23.79,-122 23.79,-86 102.21,-86 102.21,-122"/>
<text text-anchor="middle" x="63" y="-99.8" font-family="Times,serif" font-size="14.00">UrlModule</text>
</g>
<!-- UrlModule&#45;&gt;ReplenishmentOrderDetailsModule -->
<g id="edge9" class="edge">
<title>UrlModule&#45;&gt;ReplenishmentOrderDetailsModule</title>
<path fill="none" stroke="black" d="M63,-122.29C63,-144.21 63,-178 63,-178 63,-178 641.01,-178 641.01,-178"/>
<polygon fill="black" stroke="black" points="641.01,-181.5 651.01,-178 641.01,-174.5 641.01,-181.5"/>
</g>
</g>
</svg>
