<?xml version="1.0" encoding="UTF-8" standalone="no"?>
<!DOCTYPE svg PUBLIC "-//W3C//DTD SVG 1.1//EN"
 "http://www.w3.org/Graphics/SVG/1.1/DTD/svg11.dtd">
<!-- Generated by graphviz version 2.40.1 (20161225.0304)
 -->
<!-- Title: dependencies Pages: 1 -->
<svg width="575pt" height="211pt"
 viewBox="0.00 0.00 575.00 211.00" xmlns="http://www.w3.org/2000/svg" xmlns:xlink="http://www.w3.org/1999/xlink">
<g id="graph0" class="graph" transform="scale(1 1) rotate(0) translate(4 207)">
<title>dependencies</title>
<polygon fill="#ffffff" stroke="transparent" points="-4,4 -4,-207 571,-207 571,4 -4,4"/>
<text text-anchor="start" x="262.5091" y="-42.4" font-family="sans-serif" font-weight="bold" font-size="14.00" fill="#000000">Legend</text>
<polygon fill="#ffffb3" stroke="transparent" points="49.5,-10 49.5,-30 69.5,-30 69.5,-10 49.5,-10"/>
<text text-anchor="start" x="73.129" y="-15.4" font-family="sans-serif" font-size="14.00" fill="#000000"> &#160;Declarations</text>
<polygon fill="#8dd3c7" stroke="transparent" points="162.5,-10 162.5,-30 182.5,-30 182.5,-10 162.5,-10"/>
<text text-anchor="start" x="186.2251" y="-15.4" font-family="sans-serif" font-size="14.00" fill="#000000"> &#160;Module</text>
<polygon fill="#80b1d3" stroke="transparent" points="248.5,-10 248.5,-30 268.5,-30 268.5,-10 248.5,-10"/>
<text text-anchor="start" x="272.2812" y="-15.4" font-family="sans-serif" font-size="14.00" fill="#000000"> &#160;Bootstrap</text>
<polygon fill="#fdb462" stroke="transparent" points="345.5,-10 345.5,-30 365.5,-30 365.5,-10 345.5,-10"/>
<text text-anchor="start" x="369.1732" y="-15.4" font-family="sans-serif" font-size="14.00" fill="#000000"> &#160;Providers</text>
<polygon fill="#fb8072" stroke="transparent" points="441.5,-10 441.5,-30 461.5,-30 461.5,-10 441.5,-10"/>
<text text-anchor="start" x="465.2258" y="-15.4" font-family="sans-serif" font-size="14.00" fill="#000000"> &#160;Exports</text>
<g id="clust1" class="cluster">
<title>cluster_ProductOccModule</title>
<polygon fill="none" stroke="#000000" stroke-dasharray="1,5" points="8,-70 8,-195 559,-195 559,-70 8,-70"/>
</g>
<g id="clust3" class="cluster">
<title>cluster_ProductOccModule_imports</title>
<polygon fill="none" stroke="#000000" points="453,-78 453,-130 551,-130 551,-78 453,-78"/>
</g>
<g id="clust6" class="cluster">
<title>cluster_ProductOccModule_providers</title>
<polygon fill="none" stroke="#000000" points="16,-78 16,-130 445,-130 445,-78 16,-78"/>
</g>
<!-- OccModule -->
<g id="node1" class="node">
<title>OccModule</title>
<polygon fill="#8dd3c7" stroke="#000000" points="543.0856,-122 540.0856,-126 519.0856,-126 516.0856,-122 460.9144,-122 460.9144,-86 543.0856,-86 543.0856,-122"/>
<text text-anchor="middle" x="502" y="-99.8" font-family="Times,serif" font-size="14.00" fill="#000000">OccModule</text>
</g>
<!-- ProductOccModule -->
<g id="node2" class="node">
<title>ProductOccModule</title>
<polygon fill="#8dd3c7" stroke="#000000" points="387.6345,-187 384.6345,-191 363.6345,-191 360.6345,-187 262.3655,-187 262.3655,-151 387.6345,-151 387.6345,-187"/>
<text text-anchor="middle" x="325" y="-164.8" font-family="Times,serif" font-size="14.00" fill="#000000">ProductOccModule</text>
</g>
<!-- OccModule&#45;&gt;ProductOccModule -->
<g id="edge1" class="edge">
<title>OccModule&#45;&gt;ProductOccModule</title>
<path fill="none" stroke="#000000" d="M502,-122.1061C502,-141.3391 502,-169 502,-169 502,-169 397.902,-169 397.902,-169"/>
<polygon fill="#000000" stroke="#000000" points="397.902,-165.5001 387.902,-169 397.9019,-172.5001 397.902,-165.5001"/>
</g>
<!-- OccProductSearchService -->
<g id="node3" class="node">
<title>OccProductSearchService</title>
<ellipse fill="#fdb462" stroke="#000000" cx="325" cy="-104" rx="111.6948" ry="18"/>
<text text-anchor="middle" x="325" y="-99.8" font-family="Times,serif" font-size="14.00" fill="#000000">OccProductSearchService</text>
</g>
<!-- OccProductSearchService&#45;&gt;ProductOccModule -->
<g id="edge2" class="edge">
<title>OccProductSearchService&#45;&gt;ProductOccModule</title>
<path fill="none" stroke="#000000" d="M325,-122.1061C325,-122.1061 325,-140.991 325,-140.991"/>
<polygon fill="#000000" stroke="#000000" points="321.5001,-140.9909 325,-150.991 328.5001,-140.991 321.5001,-140.9909"/>
</g>
<!-- OccProductService -->
<g id="node4" class="node">
<title>OccProductService</title>
<ellipse fill="#fdb462" stroke="#000000" cx="110" cy="-104" rx="85.6512" ry="18"/>
<text text-anchor="middle" x="110" y="-99.8" font-family="Times,serif" font-size="14.00" fill="#000000">OccProductService</text>
</g>
<!-- OccProductService&#45;&gt;ProductOccModule -->
<g id="edge3" class="edge">
<title>OccProductService&#45;&gt;ProductOccModule</title>
<path fill="none" stroke="#000000" d="M110,-122.1061C110,-141.3391 110,-169 110,-169 110,-169 252.2351,-169 252.2351,-169"/>
<polygon fill="#000000" stroke="#000000" points="252.2352,-172.5001 262.2351,-169 252.2351,-165.5001 252.2352,-172.5001"/>
</g>
</g>
</svg>
