<?xml version="1.0" encoding="UTF-8" standalone="no"?>
<!DOCTYPE svg PUBLIC "-//W3C//DTD SVG 1.1//EN"
 "http://www.w3.org/Graphics/SVG/1.1/DTD/svg11.dtd">
<!-- Generated by graphviz version 2.46.0 (20210119.1425)
 -->
<!-- Title: dependencies Pages: 1 -->
<svg width="734pt" height="276pt"
 viewBox="0.00 0.00 734.00 276.00" xmlns="http://www.w3.org/2000/svg" xmlns:xlink="http://www.w3.org/1999/xlink">
<g id="graph0" class="graph" transform="scale(1 1) rotate(0) translate(4 272)">
<title>dependencies</title>
<polygon fill="white" stroke="transparent" points="-4,4 -4,-272 730,-272 730,4 -4,4"/>
<text text-anchor="start" x="342.01" y="-42.4" font-family="sans-serif" font-weight="bold" font-size="14.00">Legend</text>
<polygon fill="#ffffb3" stroke="transparent" points="129,-10 129,-30 149,-30 149,-10 129,-10"/>
<text text-anchor="start" x="152.63" y="-15.4" font-family="sans-serif" font-size="14.00"> &#160;Declarations</text>
<polygon fill="#8dd3c7" stroke="transparent" points="242,-10 242,-30 262,-30 262,-10 242,-10"/>
<text text-anchor="start" x="265.73" y="-15.4" font-family="sans-serif" font-size="14.00"> &#160;Module</text>
<polygon fill="#80b1d3" stroke="transparent" points="328,-10 328,-30 348,-30 348,-10 328,-10"/>
<text text-anchor="start" x="351.78" y="-15.4" font-family="sans-serif" font-size="14.00"> &#160;Bootstrap</text>
<polygon fill="#fdb462" stroke="transparent" points="425,-10 425,-30 445,-30 445,-10 425,-10"/>
<text text-anchor="start" x="448.67" y="-15.4" font-family="sans-serif" font-size="14.00"> &#160;Providers</text>
<polygon fill="#fb8072" stroke="transparent" points="521,-10 521,-30 541,-30 541,-10 521,-10"/>
<text text-anchor="start" x="544.73" y="-15.4" font-family="sans-serif" font-size="14.00"> &#160;Exports</text>
<g id="clust1" class="cluster">
<title>cluster_UnitUserCreateModule</title>
<polygon fill="none" stroke="black" stroke-dasharray="1,5" points="8,-70 8,-260 718,-260 718,-70 8,-70"/>
</g>
<g id="clust3" class="cluster">
<title>cluster_UnitUserCreateModule_UnitUserCreateComponent_providers</title>
<polygon fill="none" stroke="black" points="156,-78 156,-195 710,-195 710,-78 156,-78"/>
</g>
<g id="clust4" class="cluster">
<title>cluster_UnitUserCreateModule_imports</title>
<polygon fill="none" stroke="black" points="16,-143 16,-195 148,-195 148,-143 16,-143"/>
</g>
<!-- UnitUserCreateComponent -->
<g id="node1" class="node">
<title>UnitUserCreateComponent</title>
<polygon fill="#ffffb3" stroke="black" points="425.68,-187 256.32,-187 256.32,-151 425.68,-151 425.68,-187"/>
<text text-anchor="middle" x="341" y="-164.8" font-family="Times,serif" font-size="14.00">UnitUserCreateComponent</text>
</g>
<!-- UnitUserCreateModule -->
<g id="node2" class="node">
<title>UnitUserCreateModule</title>
<polygon fill="#8dd3c7" stroke="black" points="242.9,-252 239.9,-256 218.9,-256 215.9,-252 95.1,-252 95.1,-216 242.9,-216 242.9,-252"/>
<text text-anchor="middle" x="169" y="-229.8" font-family="Times,serif" font-size="14.00">UnitUserCreateModule</text>
</g>
<!-- UnitUserCreateComponent&#45;&gt;UnitUserCreateModule -->
<g id="edge1" class="edge">
<title>UnitUserCreateComponent&#45;&gt;UnitUserCreateModule</title>
<path fill="none" stroke="black" d="M256.21,-169C227.89,-169 203.4,-169 203.4,-169 203.4,-169 203.4,-205.89 203.4,-205.89"/>
<polygon fill="black" stroke="black" points="199.9,-205.89 203.4,-215.89 206.9,-205.89 199.9,-205.89"/>
</g>
<!-- { &#160;&#160;&#160;provide: UserItemService, useExisting: UnitUserItemService,} -->
<g id="node3" class="node">
<title>{ &#160;&#160;&#160;provide: UserItemService, useExisting: UnitUserItemService,}</title>
<ellipse fill="#fdb462" stroke="black" cx="433" cy="-104" rx="268.78" ry="18"/>
<text text-anchor="middle" x="433" y="-99.8" font-family="Times,serif" font-size="14.00">{ &#160;&#160;&#160;provide: UserItemService, useExisting: UnitUserItemService,}</text>
</g>
<!-- { &#160;&#160;&#160;provide: UserItemService, useExisting: UnitUserItemService,}&#45;&gt;UnitUserCreateComponent -->
<g id="edge2" class="edge">
<title>{ &#160;&#160;&#160;provide: UserItemService, useExisting: UnitUserItemService,}&#45;&gt;UnitUserCreateComponent</title>
<path fill="none" stroke="black" d="M341,-121.08C341,-121.08 341,-140.9 341,-140.9"/>
<polygon fill="black" stroke="black" points="337.5,-140.9 341,-150.9 344.5,-140.9 337.5,-140.9"/>
</g>
<!-- UserFormModule -->
<g id="node4" class="node">
<title>UserFormModule</title>
<polygon fill="#8dd3c7" stroke="black" points="140.31,-187 137.31,-191 116.31,-191 113.31,-187 23.69,-187 23.69,-151 140.31,-151 140.31,-187"/>
<text text-anchor="middle" x="82" y="-164.8" font-family="Times,serif" font-size="14.00">UserFormModule</text>
</g>
<!-- UserFormModule&#45;&gt;UnitUserCreateModule -->
<g id="edge3" class="edge">
<title>UserFormModule&#45;&gt;UnitUserCreateModule</title>
<path fill="none" stroke="black" d="M117.73,-187.11C117.73,-187.11 117.73,-205.99 117.73,-205.99"/>
<polygon fill="black" stroke="black" points="114.23,-205.99 117.73,-215.99 121.23,-205.99 114.23,-205.99"/>
</g>
</g>
</svg>
