<?xml version="1.0" encoding="UTF-8" standalone="no"?>
<!DOCTYPE svg PUBLIC "-//W3C//DTD SVG 1.1//EN"
 "http://www.w3.org/Graphics/SVG/1.1/DTD/svg11.dtd">
<!-- Generated by graphviz version 2.40.1 (20161225.0304)
 -->
<!-- Title: dependencies Pages: 1 -->
<svg width="504pt" height="211pt"
 viewBox="0.00 0.00 504.00 211.00" xmlns="http://www.w3.org/2000/svg" xmlns:xlink="http://www.w3.org/1999/xlink">
<g id="graph0" class="graph" transform="scale(1 1) rotate(0) translate(4 207)">
<title>dependencies</title>
<polygon fill="#ffffff" stroke="transparent" points="-4,4 -4,-207 500,-207 500,4 -4,4"/>
<text text-anchor="start" x="227.0091" y="-42.4" font-family="sans-serif" font-weight="bold" font-size="14.00" fill="#000000">Legend</text>
<polygon fill="#ffffb3" stroke="transparent" points="14,-10 14,-30 34,-30 34,-10 14,-10"/>
<text text-anchor="start" x="37.629" y="-15.4" font-family="sans-serif" font-size="14.00" fill="#000000"> &#160;Declarations</text>
<polygon fill="#8dd3c7" stroke="transparent" points="127,-10 127,-30 147,-30 147,-10 127,-10"/>
<text text-anchor="start" x="150.7251" y="-15.4" font-family="sans-serif" font-size="14.00" fill="#000000"> &#160;Module</text>
<polygon fill="#80b1d3" stroke="transparent" points="213,-10 213,-30 233,-30 233,-10 213,-10"/>
<text text-anchor="start" x="236.7812" y="-15.4" font-family="sans-serif" font-size="14.00" fill="#000000"> &#160;Bootstrap</text>
<polygon fill="#fdb462" stroke="transparent" points="310,-10 310,-30 330,-30 330,-10 310,-10"/>
<text text-anchor="start" x="333.6732" y="-15.4" font-family="sans-serif" font-size="14.00" fill="#000000"> &#160;Providers</text>
<polygon fill="#fb8072" stroke="transparent" points="406,-10 406,-30 426,-30 426,-10 406,-10"/>
<text text-anchor="start" x="429.7258" y="-15.4" font-family="sans-serif" font-size="14.00" fill="#000000"> &#160;Exports</text>
<g id="clust1" class="cluster">
<title>cluster_UnitUserCreateModule</title>
<polygon fill="none" stroke="#000000" stroke-dasharray="1,5" points="77,-70 77,-195 419,-195 419,-70 77,-70"/>
</g>
<g id="clust2" class="cluster">
<title>cluster_UnitUserCreateModule_declarations</title>
<polygon fill="none" stroke="#000000" points="225,-78 225,-130 411,-130 411,-78 225,-78"/>
</g>
<g id="clust4" class="cluster">
<title>cluster_UnitUserCreateModule_imports</title>
<polygon fill="none" stroke="#000000" points="85,-78 85,-130 217,-130 217,-78 85,-78"/>
</g>
<!-- UnitUserCreateComponent -->
<g id="node1" class="node">
<title>UnitUserCreateComponent</title>
<polygon fill="#ffffb3" stroke="#000000" points="402.6783,-122 233.3217,-122 233.3217,-86 402.6783,-86 402.6783,-122"/>
<text text-anchor="middle" x="318" y="-99.8" font-family="Times,serif" font-size="14.00" fill="#000000">UnitUserCreateComponent</text>
</g>
<!-- UnitUserCreateModule -->
<g id="node2" class="node">
<title>UnitUserCreateModule</title>
<polygon fill="#8dd3c7" stroke="#000000" points="311.8961,-187 308.8961,-191 287.8961,-191 284.8961,-187 164.1039,-187 164.1039,-151 311.8961,-151 311.8961,-187"/>
<text text-anchor="middle" x="238" y="-164.8" font-family="Times,serif" font-size="14.00" fill="#000000">UnitUserCreateModule</text>
</g>
<!-- UnitUserCreateComponent&#45;&gt;UnitUserCreateModule -->
<g id="edge1" class="edge">
<title>UnitUserCreateComponent&#45;&gt;UnitUserCreateModule</title>
<path fill="none" stroke="#000000" d="M272.5544,-122.1061C272.5544,-122.1061 272.5544,-140.991 272.5544,-140.991"/>
<polygon fill="#000000" stroke="#000000" points="269.0544,-140.9909 272.5544,-150.991 276.0544,-140.991 269.0544,-140.9909"/>
</g>
<!-- UserFormModule -->
<g id="node3" class="node">
<title>UserFormModule</title>
<polygon fill="#8dd3c7" stroke="#000000" points="209.3104,-122 206.3104,-126 185.3104,-126 182.3104,-122 92.6896,-122 92.6896,-86 209.3104,-86 209.3104,-122"/>
<text text-anchor="middle" x="151" y="-99.8" font-family="Times,serif" font-size="14.00" fill="#000000">UserFormModule</text>
</g>
<!-- UserFormModule&#45;&gt;UnitUserCreateModule -->
<g id="edge2" class="edge">
<title>UserFormModule&#45;&gt;UnitUserCreateModule</title>
<path fill="none" stroke="#000000" d="M186.7286,-122.1061C186.7286,-122.1061 186.7286,-140.991 186.7286,-140.991"/>
<polygon fill="#000000" stroke="#000000" points="183.2287,-140.9909 186.7286,-150.991 190.2287,-140.991 183.2287,-140.9909"/>
</g>
</g>
</svg>
