<?xml version="1.0" encoding="UTF-8" standalone="no"?>
<!DOCTYPE svg PUBLIC "-//W3C//DTD SVG 1.1//EN"
 "http://www.w3.org/Graphics/SVG/1.1/DTD/svg11.dtd">
<!-- Generated by graphviz version 2.47.0 (20210316.0004)
 -->
<!-- Title: dependencies Pages: 1 -->
<svg width="728pt" height="323pt"
 viewBox="0.00 0.00 728.00 322.59" xmlns="http://www.w3.org/2000/svg" xmlns:xlink="http://www.w3.org/1999/xlink">
<g id="graph0" class="graph" transform="scale(1 1) rotate(0) translate(4 318.59)">
<title>dependencies</title>
<polygon fill="white" stroke="transparent" points="-4,4 -4,-318.59 724,-318.59 724,4 -4,4"/>
<text text-anchor="start" x="339.01" y="-42.4" font-family="sans-serif" font-weight="bold" font-size="14.00">Legend</text>
<polygon fill="#ffffb3" stroke="transparent" points="126,-10 126,-30 146,-30 146,-10 126,-10"/>
<text text-anchor="start" x="149.63" y="-15.4" font-family="sans-serif" font-size="14.00"> &#160;Declarations</text>
<polygon fill="#8dd3c7" stroke="transparent" points="239,-10 239,-30 259,-30 259,-10 239,-10"/>
<text text-anchor="start" x="262.73" y="-15.4" font-family="sans-serif" font-size="14.00"> &#160;Module</text>
<polygon fill="#80b1d3" stroke="transparent" points="325,-10 325,-30 345,-30 345,-10 325,-10"/>
<text text-anchor="start" x="348.78" y="-15.4" font-family="sans-serif" font-size="14.00"> &#160;Bootstrap</text>
<polygon fill="#fdb462" stroke="transparent" points="422,-10 422,-30 442,-30 442,-10 422,-10"/>
<text text-anchor="start" x="445.67" y="-15.4" font-family="sans-serif" font-size="14.00"> &#160;Providers</text>
<polygon fill="#fb8072" stroke="transparent" points="518,-10 518,-30 538,-30 538,-10 518,-10"/>
<text text-anchor="start" x="541.73" y="-15.4" font-family="sans-serif" font-size="14.00"> &#160;Exports</text>
<g id="clust1" class="cluster">
<title>cluster_UnitUserCreateModule</title>
<polygon fill="none" stroke="black" stroke-dasharray="1,5" points="8,-70 8,-306.59 712,-306.59 712,-70 8,-70"/>
</g>
<g id="clust3" class="cluster">
<title>cluster_UnitUserCreateModule_UnitUserCreateComponent_providers</title>
<polygon fill="none" stroke="black" points="156,-78 156,-241.59 704,-241.59 704,-78 156,-78"/>
</g>
<g id="clust4" class="cluster">
<title>cluster_UnitUserCreateModule_imports</title>
<polygon fill="none" stroke="black" points="16,-189.59 16,-241.59 148,-241.59 148,-189.59 16,-189.59"/>
</g>
<!-- UnitUserCreateComponent -->
<g id="node1" class="node">
<title>UnitUserCreateComponent</title>
<polygon fill="#ffffb3" stroke="black" points="423.68,-233.59 254.32,-233.59 254.32,-197.59 423.68,-197.59 423.68,-233.59"/>
<text text-anchor="middle" x="339" y="-211.39" font-family="Times,serif" font-size="14.00">UnitUserCreateComponent</text>
</g>
<!-- UnitUserCreateModule -->
<g id="node2" class="node">
<title>UnitUserCreateModule</title>
<polygon fill="#8dd3c7" stroke="black" points="242.9,-298.59 239.9,-302.59 218.9,-302.59 215.9,-298.59 95.1,-298.59 95.1,-262.59 242.9,-262.59 242.9,-298.59"/>
<text text-anchor="middle" x="169" y="-276.39" font-family="Times,serif" font-size="14.00">UnitUserCreateModule</text>
</g>
<!-- UnitUserCreateComponent&#45;&gt;UnitUserCreateModule -->
<g id="edge1" class="edge">
<title>UnitUserCreateComponent&#45;&gt;UnitUserCreateModule</title>
<path fill="none" stroke="black" d="M254.2,-215.59C226.77,-215.59 203.28,-215.59 203.28,-215.59 203.28,-215.59 203.28,-252.48 203.28,-252.48"/>
<polygon fill="black" stroke="black" points="199.78,-252.48 203.28,-262.48 206.78,-252.48 199.78,-252.48"/>
</g>
<!-- {
 &#160;&#160;&#160;provide: UserItemService, useExisting: UnitUserItemService,
} -->
<g id="node3" class="node">
<title>{
 &#160;&#160;&#160;provide: UserItemService, useExisting: UnitUserItemService,
}</title>
<ellipse fill="#fdb462" stroke="black" cx="430" cy="-127.3" rx="266.29" ry="41.09"/>
<text text-anchor="middle" x="430" y="-139.9" font-family="Times,serif" font-size="14.00">{</text>
<text text-anchor="middle" x="430" y="-123.1" font-family="Times,serif" font-size="14.00"> &#160;&#160;&#160;provide: UserItemService, useExisting: UnitUserItemService,</text>
<text text-anchor="middle" x="430" y="-106.3" font-family="Times,serif" font-size="14.00">}</text>
</g>
<!-- {
 &#160;&#160;&#160;provide: UserItemService, useExisting: UnitUserItemService,
}&#45;&gt;UnitUserCreateComponent -->
<g id="edge2" class="edge">
<title>{
 &#160;&#160;&#160;provide: UserItemService, useExisting: UnitUserItemService,
}&#45;&gt;UnitUserCreateComponent</title>
<path fill="none" stroke="black" d="M339,-166.28C339,-166.28 339,-187.56 339,-187.56"/>
<polygon fill="black" stroke="black" points="335.5,-187.56 339,-197.56 342.5,-187.56 335.5,-187.56"/>
</g>
<!-- UserFormModule -->
<g id="node4" class="node">
<title>UserFormModule</title>
<polygon fill="#8dd3c7" stroke="black" points="140.31,-233.59 137.31,-237.59 116.31,-237.59 113.31,-233.59 23.69,-233.59 23.69,-197.59 140.31,-197.59 140.31,-233.59"/>
<text text-anchor="middle" x="82" y="-211.39" font-family="Times,serif" font-size="14.00">UserFormModule</text>
</g>
<!-- UserFormModule&#45;&gt;UnitUserCreateModule -->
<g id="edge3" class="edge">
<title>UserFormModule&#45;&gt;UnitUserCreateModule</title>
<path fill="none" stroke="black" d="M117.73,-233.7C117.73,-233.7 117.73,-252.58 117.73,-252.58"/>
<polygon fill="black" stroke="black" points="114.23,-252.58 117.73,-262.58 121.23,-252.58 114.23,-252.58"/>
</g>
</g>
</svg>
