<?xml version="1.0" encoding="UTF-8" standalone="no"?>
<!DOCTYPE svg PUBLIC "-//W3C//DTD SVG 1.1//EN"
 "http://www.w3.org/Graphics/SVG/1.1/DTD/svg11.dtd">
<!-- Generated by graphviz version 2.47.0 (20210316.0004)
 -->
<!-- Title: dependencies Pages: 1 -->
<svg width="588pt" height="323pt"
 viewBox="0.00 0.00 588.00 322.59" xmlns="http://www.w3.org/2000/svg" xmlns:xlink="http://www.w3.org/1999/xlink">
<g id="graph0" class="graph" transform="scale(1 1) rotate(0) translate(4 318.59)">
<title>dependencies</title>
<polygon fill="white" stroke="transparent" points="-4,4 -4,-318.59 584,-318.59 584,4 -4,4"/>
<text text-anchor="start" x="269.01" y="-42.4" font-family="sans-serif" font-weight="bold" font-size="14.00">Legend</text>
<polygon fill="#ffffb3" stroke="transparent" points="56,-10 56,-30 76,-30 76,-10 56,-10"/>
<text text-anchor="start" x="79.63" y="-15.4" font-family="sans-serif" font-size="14.00"> &#160;Declarations</text>
<polygon fill="#8dd3c7" stroke="transparent" points="169,-10 169,-30 189,-30 189,-10 169,-10"/>
<text text-anchor="start" x="192.73" y="-15.4" font-family="sans-serif" font-size="14.00"> &#160;Module</text>
<polygon fill="#80b1d3" stroke="transparent" points="255,-10 255,-30 275,-30 275,-10 255,-10"/>
<text text-anchor="start" x="278.78" y="-15.4" font-family="sans-serif" font-size="14.00"> &#160;Bootstrap</text>
<polygon fill="#fdb462" stroke="transparent" points="352,-10 352,-30 372,-30 372,-10 352,-10"/>
<text text-anchor="start" x="375.67" y="-15.4" font-family="sans-serif" font-size="14.00"> &#160;Providers</text>
<polygon fill="#fb8072" stroke="transparent" points="448,-10 448,-30 468,-30 468,-10 448,-10"/>
<text text-anchor="start" x="471.73" y="-15.4" font-family="sans-serif" font-size="14.00"> &#160;Exports</text>
<g id="clust1" class="cluster">
<title>cluster_UnitUserCreateModule</title>
<polygon fill="none" stroke="black" stroke-dasharray="1,5" points="8,-70 8,-306.59 572,-306.59 572,-70 8,-70"/>
</g>
<g id="clust2" class="cluster">
<title>cluster_UnitUserCreateModule_declarations</title>
<polygon fill="none" stroke="black" points="197,-189.59 197,-241.59 383,-241.59 383,-189.59 197,-189.59"/>
</g>
<g id="clust4" class="cluster">
<title>cluster_UnitUserCreateModule_imports</title>
<polygon fill="none" stroke="black" points="391,-189.59 391,-241.59 523,-241.59 523,-189.59 391,-189.59"/>
</g>
<g id="clust3" class="cluster">
<title>cluster_UnitUserCreateModule_UnitUserCreateComponent_providers</title>
<polygon fill="none" stroke="black" points="16,-78 16,-176.59 564,-176.59 564,-78 16,-78"/>
</g>
<!-- UnitUserCreateComponent -->
<g id="node1" class="node">
<title>UnitUserCreateComponent</title>
<polygon fill="#ffffb3" stroke="black" points="374.68,-233.59 205.32,-233.59 205.32,-197.59 374.68,-197.59 374.68,-233.59"/>
<text text-anchor="middle" x="290" y="-211.39" font-family="Times,serif" font-size="14.00">UnitUserCreateComponent</text>
</g>
<!-- UnitUserCreateModule -->
<g id="node2" class="node">
<title>UnitUserCreateModule</title>
<polygon fill="#8dd3c7" stroke="black" points="446.9,-298.59 443.9,-302.59 422.9,-302.59 419.9,-298.59 299.1,-298.59 299.1,-262.59 446.9,-262.59 446.9,-298.59"/>
<text text-anchor="middle" x="373" y="-276.39" font-family="Times,serif" font-size="14.00">UnitUserCreateModule</text>
</g>
<!-- UnitUserCreateComponent&#45;&gt;UnitUserCreateModule -->
<g id="edge1" class="edge">
<title>UnitUserCreateComponent&#45;&gt;UnitUserCreateModule</title>
<path fill="none" stroke="black" d="M336.95,-233.7C336.95,-233.7 336.95,-252.58 336.95,-252.58"/>
<polygon fill="black" stroke="black" points="333.45,-252.58 336.95,-262.58 340.45,-252.58 333.45,-252.58"/>
</g>
<!-- {
 &#160;&#160;&#160;provide: UserItemService, useExisting: UnitUserItemService,
} -->
<g id="node3" class="node">
<title>{
 &#160;&#160;&#160;provide: UserItemService, useExisting: UnitUserItemService,
}</title>
<ellipse fill="#fdb462" stroke="black" cx="290" cy="-127.3" rx="266.29" ry="41.09"/>
<text text-anchor="middle" x="290" y="-139.9" font-family="Times,serif" font-size="14.00">{</text>
<text text-anchor="middle" x="290" y="-123.1" font-family="Times,serif" font-size="14.00"> &#160;&#160;&#160;provide: UserItemService, useExisting: UnitUserItemService,</text>
<text text-anchor="middle" x="290" y="-106.3" font-family="Times,serif" font-size="14.00">}</text>
</g>
<!-- {
 &#160;&#160;&#160;provide: UserItemService, useExisting: UnitUserItemService,
}&#45;&gt;UnitUserCreateComponent -->
<g id="edge2" class="edge">
<title>{
 &#160;&#160;&#160;provide: UserItemService, useExisting: UnitUserItemService,
}&#45;&gt;UnitUserCreateComponent</title>
<path fill="none" stroke="black" d="M290,-168.6C290,-168.6 290,-187.26 290,-187.26"/>
<polygon fill="black" stroke="black" points="286.5,-187.26 290,-197.26 293.5,-187.26 286.5,-187.26"/>
</g>
<!-- UserFormModule -->
<g id="node4" class="node">
<title>UserFormModule</title>
<polygon fill="#8dd3c7" stroke="black" points="515.31,-233.59 512.31,-237.59 491.31,-237.59 488.31,-233.59 398.69,-233.59 398.69,-197.59 515.31,-197.59 515.31,-233.59"/>
<text text-anchor="middle" x="457" y="-211.39" font-family="Times,serif" font-size="14.00">UserFormModule</text>
</g>
<!-- UserFormModule&#45;&gt;UnitUserCreateModule -->
<g id="edge3" class="edge">
<title>UserFormModule&#45;&gt;UnitUserCreateModule</title>
<path fill="none" stroke="black" d="M422.77,-233.7C422.77,-233.7 422.77,-252.58 422.77,-252.58"/>
<polygon fill="black" stroke="black" points="419.27,-252.58 422.77,-262.58 426.27,-252.58 419.27,-252.58"/>
</g>
</g>
</svg>
