<?xml version="1.0" encoding="UTF-8" standalone="no"?>
<!DOCTYPE svg PUBLIC "-//W3C//DTD SVG 1.1//EN"
 "http://www.w3.org/Graphics/SVG/1.1/DTD/svg11.dtd">
<!-- Generated by graphviz version 2.47.0 (20210316.0004)
 -->
<!-- Title: dependencies Pages: 1 -->
<svg width="1126pt" height="211pt"
 viewBox="0.00 0.00 1126.00 211.00" xmlns="http://www.w3.org/2000/svg" xmlns:xlink="http://www.w3.org/1999/xlink">
<g id="graph0" class="graph" transform="scale(1 1) rotate(0) translate(4 207)">
<title>dependencies</title>
<polygon fill="white" stroke="transparent" points="-4,4 -4,-207 1122,-207 1122,4 -4,4"/>
<text text-anchor="start" x="538.01" y="-42.4" font-family="sans-serif" font-weight="bold" font-size="14.00">Legend</text>
<polygon fill="#ffffb3" stroke="transparent" points="325,-10 325,-30 345,-30 345,-10 325,-10"/>
<text text-anchor="start" x="348.63" y="-15.4" font-family="sans-serif" font-size="14.00"> &#160;Declarations</text>
<polygon fill="#8dd3c7" stroke="transparent" points="438,-10 438,-30 458,-30 458,-10 438,-10"/>
<text text-anchor="start" x="461.73" y="-15.4" font-family="sans-serif" font-size="14.00"> &#160;Module</text>
<polygon fill="#80b1d3" stroke="transparent" points="524,-10 524,-30 544,-30 544,-10 524,-10"/>
<text text-anchor="start" x="547.78" y="-15.4" font-family="sans-serif" font-size="14.00"> &#160;Bootstrap</text>
<polygon fill="#fdb462" stroke="transparent" points="621,-10 621,-30 641,-30 641,-10 621,-10"/>
<text text-anchor="start" x="644.67" y="-15.4" font-family="sans-serif" font-size="14.00"> &#160;Providers</text>
<polygon fill="#fb8072" stroke="transparent" points="717,-10 717,-30 737,-30 737,-10 717,-10"/>
<text text-anchor="start" x="740.73" y="-15.4" font-family="sans-serif" font-size="14.00"> &#160;Exports</text>
<g id="clust1" class="cluster">
<title>cluster_BudgetDetailsModule</title>
<polygon fill="none" stroke="black" stroke-dasharray="1,5" points="8,-70 8,-195 1110,-195 1110,-70 8,-70"/>
</g>
<g id="clust2" class="cluster">
<title>cluster_BudgetDetailsModule_declarations</title>
<polygon fill="none" stroke="black" points="924,-78 924,-130 1102,-130 1102,-78 924,-78"/>
</g>
<g id="clust4" class="cluster">
<title>cluster_BudgetDetailsModule_imports</title>
<polygon fill="none" stroke="black" points="16,-78 16,-130 916,-130 916,-78 16,-78"/>
</g>
<!-- BudgetDetailsComponent -->
<g id="node1" class="node">
<title>BudgetDetailsComponent</title>
<polygon fill="#ffffb3" stroke="black" points="1093.93,-122 932.07,-122 932.07,-86 1093.93,-86 1093.93,-122"/>
<text text-anchor="middle" x="1013" y="-99.8" font-family="Times,serif" font-size="14.00">BudgetDetailsComponent</text>
</g>
<!-- BudgetDetailsModule -->
<g id="node2" class="node">
<title>BudgetDetailsModule</title>
<polygon fill="#8dd3c7" stroke="black" points="627.64,-187 624.64,-191 603.64,-191 600.64,-187 488.36,-187 488.36,-151 627.64,-151 627.64,-187"/>
<text text-anchor="middle" x="558" y="-164.8" font-family="Times,serif" font-size="14.00">BudgetDetailsModule</text>
</g>
<!-- BudgetDetailsComponent&#45;&gt;BudgetDetailsModule -->
<g id="edge1" class="edge">
<title>BudgetDetailsComponent&#45;&gt;BudgetDetailsModule</title>
<path fill="none" stroke="black" d="M1013,-122.29C1013,-144.21 1013,-178 1013,-178 1013,-178 638.1,-178 638.1,-178"/>
<polygon fill="black" stroke="black" points="638.1,-174.5 628.1,-178 638.1,-181.5 638.1,-174.5"/>
</g>
<!-- CardModule -->
<g id="node3" class="node">
<title>CardModule</title>
<polygon fill="#8dd3c7" stroke="black" points="908.26,-122 905.26,-126 884.26,-126 881.26,-122 821.74,-122 821.74,-86 908.26,-86 908.26,-122"/>
<text text-anchor="middle" x="865" y="-99.8" font-family="Times,serif" font-size="14.00">CardModule</text>
</g>
<!-- CardModule&#45;&gt;BudgetDetailsModule -->
<g id="edge2" class="edge">
<title>CardModule&#45;&gt;BudgetDetailsModule</title>
<path fill="none" stroke="black" d="M865,-122.11C865,-141.34 865,-169 865,-169 865,-169 637.66,-169 637.66,-169"/>
<polygon fill="black" stroke="black" points="637.66,-165.5 627.66,-169 637.66,-172.5 637.66,-165.5"/>
</g>
<!-- DisableInfoModule -->
<g id="node4" class="node">
<title>DisableInfoModule</title>
<polygon fill="#8dd3c7" stroke="black" points="803.63,-122 800.63,-126 779.63,-126 776.63,-122 678.37,-122 678.37,-86 803.63,-86 803.63,-122"/>
<text text-anchor="middle" x="741" y="-99.8" font-family="Times,serif" font-size="14.00">DisableInfoModule</text>
</g>
<!-- DisableInfoModule&#45;&gt;BudgetDetailsModule -->
<g id="edge3" class="edge">
<title>DisableInfoModule&#45;&gt;BudgetDetailsModule</title>
<path fill="none" stroke="black" d="M741,-122.03C741,-138.4 741,-160 741,-160 741,-160 637.71,-160 637.71,-160"/>
<polygon fill="black" stroke="black" points="637.71,-156.5 627.71,-160 637.71,-163.5 637.71,-156.5"/>
</g>
<!-- I18nModule -->
<g id="node5" class="node">
<title>I18nModule</title>
<polygon fill="#8dd3c7" stroke="black" points="660.71,-122 657.71,-126 636.71,-126 633.71,-122 575.29,-122 575.29,-86 660.71,-86 660.71,-122"/>
<text text-anchor="middle" x="618" y="-99.8" font-family="Times,serif" font-size="14.00">I18nModule</text>
</g>
<!-- I18nModule&#45;&gt;BudgetDetailsModule -->
<g id="edge4" class="edge">
<title>I18nModule&#45;&gt;BudgetDetailsModule</title>
<path fill="none" stroke="black" d="M601.61,-122.11C601.61,-122.11 601.61,-140.99 601.61,-140.99"/>
<polygon fill="black" stroke="black" points="598.11,-140.99 601.61,-150.99 605.11,-140.99 598.11,-140.99"/>
</g>
<!-- ItemExistsModule -->
<g id="node6" class="node">
<title>ItemExistsModule</title>
<polygon fill="#8dd3c7" stroke="black" points="557.93,-122 554.93,-126 533.93,-126 530.93,-122 438.07,-122 438.07,-86 557.93,-86 557.93,-122"/>
<text text-anchor="middle" x="498" y="-99.8" font-family="Times,serif" font-size="14.00">ItemExistsModule</text>
</g>
<!-- ItemExistsModule&#45;&gt;BudgetDetailsModule -->
<g id="edge5" class="edge">
<title>ItemExistsModule&#45;&gt;BudgetDetailsModule</title>
<path fill="none" stroke="black" d="M522.95,-122.11C522.95,-122.11 522.95,-140.99 522.95,-140.99"/>
<polygon fill="black" stroke="black" points="519.45,-140.99 522.95,-150.99 526.45,-140.99 519.45,-140.99"/>
</g>
<!-- KeyboardFocusModule -->
<g id="node7" class="node">
<title>KeyboardFocusModule</title>
<polygon fill="#8dd3c7" stroke="black" points="420.19,-122 417.19,-126 396.19,-126 393.19,-122 271.81,-122 271.81,-86 420.19,-86 420.19,-122"/>
<text text-anchor="middle" x="346" y="-99.8" font-family="Times,serif" font-size="14.00">KeyboardFocusModule</text>
</g>
<!-- KeyboardFocusModule&#45;&gt;BudgetDetailsModule -->
<g id="edge6" class="edge">
<title>KeyboardFocusModule&#45;&gt;BudgetDetailsModule</title>
<path fill="none" stroke="black" d="M346,-122.03C346,-138.4 346,-160 346,-160 346,-160 478.29,-160 478.29,-160"/>
<polygon fill="black" stroke="black" points="478.29,-163.5 488.29,-160 478.29,-156.5 478.29,-163.5"/>
</g>
<!-- ToggleStatusModule -->
<g id="node8" class="node">
<title>ToggleStatusModule</title>
<polygon fill="#8dd3c7" stroke="black" points="253.93,-122 250.93,-126 229.93,-126 226.93,-122 120.07,-122 120.07,-86 253.93,-86 253.93,-122"/>
<text text-anchor="middle" x="187" y="-99.8" font-family="Times,serif" font-size="14.00">ToggleStatusModule</text>
</g>
<!-- ToggleStatusModule&#45;&gt;BudgetDetailsModule -->
<g id="edge7" class="edge">
<title>ToggleStatusModule&#45;&gt;BudgetDetailsModule</title>
<path fill="none" stroke="black" d="M187,-122.11C187,-141.34 187,-169 187,-169 187,-169 478.22,-169 478.22,-169"/>
<polygon fill="black" stroke="black" points="478.22,-172.5 488.22,-169 478.22,-165.5 478.22,-172.5"/>
</g>
<!-- UrlModule -->
<g id="node9" class="node">
<title>UrlModule</title>
<polygon fill="#8dd3c7" stroke="black" points="102.21,-122 99.21,-126 78.21,-126 75.21,-122 23.79,-122 23.79,-86 102.21,-86 102.21,-122"/>
<text text-anchor="middle" x="63" y="-99.8" font-family="Times,serif" font-size="14.00">UrlModule</text>
</g>
<!-- UrlModule&#45;&gt;BudgetDetailsModule -->
<g id="edge8" class="edge">
<title>UrlModule&#45;&gt;BudgetDetailsModule</title>
<path fill="none" stroke="black" d="M63,-122.29C63,-144.21 63,-178 63,-178 63,-178 478.13,-178 478.13,-178"/>
<polygon fill="black" stroke="black" points="478.13,-181.5 488.13,-178 478.13,-174.5 478.13,-181.5"/>
</g>
</g>
</svg>
