<?xml version="1.0" encoding="UTF-8" standalone="no"?>
<!DOCTYPE svg PUBLIC "-//W3C//DTD SVG 1.1//EN"
 "http://www.w3.org/Graphics/SVG/1.1/DTD/svg11.dtd">
<!-- Generated by graphviz version 2.47.3 (20210619.1520)
 -->
<!-- Title: dependencies Pages: 1 -->
<svg width="1444pt" height="285pt"
 viewBox="0.00 0.00 1444.00 285.39" xmlns="http://www.w3.org/2000/svg" xmlns:xlink="http://www.w3.org/1999/xlink">
<g id="graph0" class="graph" transform="scale(1 1) rotate(0) translate(4 281.39)">
<title>dependencies</title>
<polygon fill="white" stroke="transparent" points="-4,4 -4,-281.39 1440,-281.39 1440,4 -4,4"/>
<text text-anchor="middle" x="718" y="-8.2" font-family="sans-serif" font-size="14.00">dependencies</text>
<g id="clust1" class="cluster">
<title>cluster_BudgetDetailsModule</title>
<polygon fill="none" stroke="black" stroke-dasharray="1,5" points="8,-32.8 8,-269.39 1428,-269.39 1428,-32.8 8,-32.8"/>
</g>
<g id="clust3" class="cluster">
<title>cluster_BudgetDetailsModule_BudgetDetailsComponent_providers</title>
<polygon fill="none" stroke="black" points="924,-40.8 924,-204.39 1420,-204.39 1420,-40.8 924,-40.8"/>
</g>
<g id="clust4" class="cluster">
<title>cluster_BudgetDetailsModule_imports</title>
<polygon fill="none" stroke="black" points="16,-152.39 16,-204.39 916,-204.39 916,-152.39 16,-152.39"/>
</g>
<!-- BudgetDetailsComponent -->
<g id="node1" class="node">
<title>BudgetDetailsComponent</title>
<polygon fill="#ffffb3" stroke="black" points="1172.93,-196.39 1011.07,-196.39 1011.07,-160.39 1172.93,-160.39 1172.93,-196.39"/>
<text text-anchor="middle" x="1092" y="-174.19" font-family="Times,serif" font-size="14.00">BudgetDetailsComponent</text>
</g>
<!-- BudgetDetailsModule -->
<g id="node2" class="node">
<title>BudgetDetailsModule</title>
<polygon fill="#8dd3c7" stroke="black" points="627.64,-261.39 624.64,-265.39 603.64,-265.39 600.64,-261.39 488.36,-261.39 488.36,-225.39 627.64,-225.39 627.64,-261.39"/>
<text text-anchor="middle" x="558" y="-239.19" font-family="Times,serif" font-size="14.00">BudgetDetailsModule</text>
</g>
<!-- BudgetDetailsComponent&#45;&gt;BudgetDetailsModule -->
<g id="edge1" class="edge">
<title>BudgetDetailsComponent&#45;&gt;BudgetDetailsModule</title>
<path fill="none" stroke="black" d="M1092,-196.68C1092,-218.6 1092,-252.39 1092,-252.39 1092,-252.39 637.81,-252.39 637.81,-252.39"/>
<polygon fill="black" stroke="black" points="637.81,-248.89 627.81,-252.39 637.81,-255.89 637.81,-248.89"/>
</g>
<!-- {
 &#160;&#160;&#160;provide: ItemService, useExisting: BudgetItemService,
} -->
<g id="node3" class="node">
<title>{
 &#160;&#160;&#160;provide: ItemService, useExisting: BudgetItemService,
}</title>
<ellipse fill="#fdb462" stroke="black" cx="1172" cy="-90.1" rx="239.54" ry="41.09"/>
<text text-anchor="middle" x="1172" y="-102.7" font-family="Times,serif" font-size="14.00">{</text>
<text text-anchor="middle" x="1172" y="-85.9" font-family="Times,serif" font-size="14.00"> &#160;&#160;&#160;provide: ItemService, useExisting: BudgetItemService,</text>
<text text-anchor="middle" x="1172" y="-69.1" font-family="Times,serif" font-size="14.00">}</text>
</g>
<!-- {
 &#160;&#160;&#160;provide: ItemService, useExisting: BudgetItemService,
}&#45;&gt;BudgetDetailsComponent -->
<g id="edge2" class="edge">
<title>{
 &#160;&#160;&#160;provide: ItemService, useExisting: BudgetItemService,
}&#45;&gt;BudgetDetailsComponent</title>
<path fill="none" stroke="black" d="M1092,-129.08C1092,-129.08 1092,-150.36 1092,-150.36"/>
<polygon fill="black" stroke="black" points="1088.5,-150.36 1092,-160.36 1095.5,-150.36 1088.5,-150.36"/>
</g>
<!-- CardModule -->
<g id="node4" class="node">
<title>CardModule</title>
<polygon fill="#8dd3c7" stroke="black" points="908.26,-196.39 905.26,-200.39 884.26,-200.39 881.26,-196.39 821.74,-196.39 821.74,-160.39 908.26,-160.39 908.26,-196.39"/>
<text text-anchor="middle" x="865" y="-174.19" font-family="Times,serif" font-size="14.00">CardModule</text>
</g>
<!-- CardModule&#45;&gt;BudgetDetailsModule -->
<g id="edge3" class="edge">
<title>CardModule&#45;&gt;BudgetDetailsModule</title>
<path fill="none" stroke="black" d="M865,-196.5C865,-215.73 865,-243.39 865,-243.39 865,-243.39 637.66,-243.39 637.66,-243.39"/>
<polygon fill="black" stroke="black" points="637.66,-239.89 627.66,-243.39 637.66,-246.89 637.66,-239.89"/>
</g>
<!-- DisableInfoModule -->
<g id="node5" class="node">
<title>DisableInfoModule</title>
<polygon fill="#8dd3c7" stroke="black" points="803.63,-196.39 800.63,-200.39 779.63,-200.39 776.63,-196.39 678.37,-196.39 678.37,-160.39 803.63,-160.39 803.63,-196.39"/>
<text text-anchor="middle" x="741" y="-174.19" font-family="Times,serif" font-size="14.00">DisableInfoModule</text>
</g>
<!-- DisableInfoModule&#45;&gt;BudgetDetailsModule -->
<g id="edge4" class="edge">
<title>DisableInfoModule&#45;&gt;BudgetDetailsModule</title>
<path fill="none" stroke="black" d="M741,-196.42C741,-212.79 741,-234.39 741,-234.39 741,-234.39 637.71,-234.39 637.71,-234.39"/>
<polygon fill="black" stroke="black" points="637.71,-230.89 627.71,-234.39 637.71,-237.89 637.71,-230.89"/>
</g>
<!-- I18nModule -->
<g id="node6" class="node">
<title>I18nModule</title>
<polygon fill="#8dd3c7" stroke="black" points="660.71,-196.39 657.71,-200.39 636.71,-200.39 633.71,-196.39 575.29,-196.39 575.29,-160.39 660.71,-160.39 660.71,-196.39"/>
<text text-anchor="middle" x="618" y="-174.19" font-family="Times,serif" font-size="14.00">I18nModule</text>
</g>
<!-- I18nModule&#45;&gt;BudgetDetailsModule -->
<g id="edge5" class="edge">
<title>I18nModule&#45;&gt;BudgetDetailsModule</title>
<path fill="none" stroke="black" d="M601.61,-196.5C601.61,-196.5 601.61,-215.38 601.61,-215.38"/>
<polygon fill="black" stroke="black" points="598.11,-215.38 601.61,-225.38 605.11,-215.38 598.11,-215.38"/>
</g>
<!-- ItemExistsModule -->
<g id="node7" class="node">
<title>ItemExistsModule</title>
<polygon fill="#8dd3c7" stroke="black" points="557.93,-196.39 554.93,-200.39 533.93,-200.39 530.93,-196.39 438.07,-196.39 438.07,-160.39 557.93,-160.39 557.93,-196.39"/>
<text text-anchor="middle" x="498" y="-174.19" font-family="Times,serif" font-size="14.00">ItemExistsModule</text>
</g>
<!-- ItemExistsModule&#45;&gt;BudgetDetailsModule -->
<g id="edge6" class="edge">
<title>ItemExistsModule&#45;&gt;BudgetDetailsModule</title>
<path fill="none" stroke="black" d="M522.95,-196.5C522.95,-196.5 522.95,-215.38 522.95,-215.38"/>
<polygon fill="black" stroke="black" points="519.45,-215.38 522.95,-225.38 526.45,-215.38 519.45,-215.38"/>
</g>
<!-- KeyboardFocusModule -->
<g id="node8" class="node">
<title>KeyboardFocusModule</title>
<polygon fill="#8dd3c7" stroke="black" points="420.19,-196.39 417.19,-200.39 396.19,-200.39 393.19,-196.39 271.81,-196.39 271.81,-160.39 420.19,-160.39 420.19,-196.39"/>
<text text-anchor="middle" x="346" y="-174.19" font-family="Times,serif" font-size="14.00">KeyboardFocusModule</text>
</g>
<!-- KeyboardFocusModule&#45;&gt;BudgetDetailsModule -->
<g id="edge7" class="edge">
<title>KeyboardFocusModule&#45;&gt;BudgetDetailsModule</title>
<path fill="none" stroke="black" d="M346,-196.42C346,-212.79 346,-234.39 346,-234.39 346,-234.39 478.29,-234.39 478.29,-234.39"/>
<polygon fill="black" stroke="black" points="478.29,-237.89 488.29,-234.39 478.29,-230.89 478.29,-237.89"/>
</g>
<!-- ToggleStatusModule -->
<g id="node9" class="node">
<title>ToggleStatusModule</title>
<polygon fill="#8dd3c7" stroke="black" points="253.93,-196.39 250.93,-200.39 229.93,-200.39 226.93,-196.39 120.07,-196.39 120.07,-160.39 253.93,-160.39 253.93,-196.39"/>
<text text-anchor="middle" x="187" y="-174.19" font-family="Times,serif" font-size="14.00">ToggleStatusModule</text>
</g>
<!-- ToggleStatusModule&#45;&gt;BudgetDetailsModule -->
<g id="edge8" class="edge">
<title>ToggleStatusModule&#45;&gt;BudgetDetailsModule</title>
<path fill="none" stroke="black" d="M187,-196.5C187,-215.73 187,-243.39 187,-243.39 187,-243.39 478.22,-243.39 478.22,-243.39"/>
<polygon fill="black" stroke="black" points="478.22,-246.89 488.22,-243.39 478.22,-239.89 478.22,-246.89"/>
</g>
<!-- UrlModule -->
<g id="node10" class="node">
<title>UrlModule</title>
<polygon fill="#8dd3c7" stroke="black" points="102.21,-196.39 99.21,-200.39 78.21,-200.39 75.21,-196.39 23.79,-196.39 23.79,-160.39 102.21,-160.39 102.21,-196.39"/>
<text text-anchor="middle" x="63" y="-174.19" font-family="Times,serif" font-size="14.00">UrlModule</text>
</g>
<!-- UrlModule&#45;&gt;BudgetDetailsModule -->
<g id="edge9" class="edge">
<title>UrlModule&#45;&gt;BudgetDetailsModule</title>
<path fill="none" stroke="black" d="M63,-196.68C63,-218.6 63,-252.39 63,-252.39 63,-252.39 478.13,-252.39 478.13,-252.39"/>
<polygon fill="black" stroke="black" points="478.13,-255.89 488.13,-252.39 478.13,-248.89 478.13,-255.89"/>
</g>
</g>
</svg>
