<?xml version="1.0" encoding="UTF-8" standalone="no"?>
<!DOCTYPE svg PUBLIC "-//W3C//DTD SVG 1.1//EN"
 "http://www.w3.org/Graphics/SVG/1.1/DTD/svg11.dtd">
<!-- Generated by graphviz version 2.47.0 (20210316.0004)
 -->
<!-- Title: dependencies Pages: 1 -->
<svg width="1126pt" height="323pt"
 viewBox="0.00 0.00 1126.00 322.59" xmlns="http://www.w3.org/2000/svg" xmlns:xlink="http://www.w3.org/1999/xlink">
<g id="graph0" class="graph" transform="scale(1 1) rotate(0) translate(4 318.59)">
<title>dependencies</title>
<polygon fill="white" stroke="transparent" points="-4,4 -4,-318.59 1122,-318.59 1122,4 -4,4"/>
<text text-anchor="start" x="538.01" y="-42.4" font-family="sans-serif" font-weight="bold" font-size="14.00">Legend</text>
<polygon fill="#ffffb3" stroke="transparent" points="325,-10 325,-30 345,-30 345,-10 325,-10"/>
<text text-anchor="start" x="348.63" y="-15.4" font-family="sans-serif" font-size="14.00"> &#160;Declarations</text>
<polygon fill="#8dd3c7" stroke="transparent" points="438,-10 438,-30 458,-30 458,-10 438,-10"/>
<text text-anchor="start" x="461.73" y="-15.4" font-family="sans-serif" font-size="14.00"> &#160;Module</text>
<polygon fill="#80b1d3" stroke="transparent" points="524,-10 524,-30 544,-30 544,-10 524,-10"/>
<text text-anchor="start" x="547.78" y="-15.4" font-family="sans-serif" font-size="14.00"> &#160;Bootstrap</text>
<polygon fill="#fdb462" stroke="transparent" points="621,-10 621,-30 641,-30 641,-10 621,-10"/>
<text text-anchor="start" x="644.67" y="-15.4" font-family="sans-serif" font-size="14.00"> &#160;Providers</text>
<polygon fill="#fb8072" stroke="transparent" points="717,-10 717,-30 737,-30 737,-10 717,-10"/>
<text text-anchor="start" x="740.73" y="-15.4" font-family="sans-serif" font-size="14.00"> &#160;Exports</text>
<g id="clust1" class="cluster">
<title>cluster_BudgetDetailsModule</title>
<polygon fill="none" stroke="black" stroke-dasharray="1,5" points="8,-70 8,-306.59 1110,-306.59 1110,-70 8,-70"/>
</g>
<g id="clust2" class="cluster">
<title>cluster_BudgetDetailsModule_declarations</title>
<polygon fill="none" stroke="black" points="16,-189.59 16,-241.59 194,-241.59 194,-189.59 16,-189.59"/>
</g>
<g id="clust4" class="cluster">
<title>cluster_BudgetDetailsModule_imports</title>
<polygon fill="none" stroke="black" points="202,-189.59 202,-241.59 1102,-241.59 1102,-189.59 202,-189.59"/>
</g>
<g id="clust3" class="cluster">
<title>cluster_BudgetDetailsModule_BudgetDetailsComponent_providers</title>
<polygon fill="none" stroke="black" points="16,-78 16,-176.59 512,-176.59 512,-78 16,-78"/>
</g>
<!-- BudgetDetailsComponent -->
<g id="node1" class="node">
<title>BudgetDetailsComponent</title>
<polygon fill="#ffffb3" stroke="black" points="185.93,-233.59 24.07,-233.59 24.07,-197.59 185.93,-197.59 185.93,-233.59"/>
<text text-anchor="middle" x="105" y="-211.39" font-family="Times,serif" font-size="14.00">BudgetDetailsComponent</text>
</g>
<!-- BudgetDetailsModule -->
<g id="node2" class="node">
<title>BudgetDetailsModule</title>
<polygon fill="#8dd3c7" stroke="black" points="677.64,-298.59 674.64,-302.59 653.64,-302.59 650.64,-298.59 538.36,-298.59 538.36,-262.59 677.64,-262.59 677.64,-298.59"/>
<text text-anchor="middle" x="608" y="-276.39" font-family="Times,serif" font-size="14.00">BudgetDetailsModule</text>
</g>
<!-- BudgetDetailsComponent&#45;&gt;BudgetDetailsModule -->
<g id="edge1" class="edge">
<title>BudgetDetailsComponent&#45;&gt;BudgetDetailsModule</title>
<path fill="none" stroke="black" d="M105,-233.88C105,-255.8 105,-289.59 105,-289.59 105,-289.59 528.32,-289.59 528.32,-289.59"/>
<polygon fill="black" stroke="black" points="528.32,-293.09 538.32,-289.59 528.32,-286.09 528.32,-293.09"/>
</g>
<!-- {
 &#160;&#160;&#160;provide: ItemService, useExisting: BudgetItemService,
} -->
<g id="node3" class="node">
<title>{
 &#160;&#160;&#160;provide: ItemService, useExisting: BudgetItemService,
}</title>
<ellipse fill="#fdb462" stroke="black" cx="264" cy="-127.3" rx="239.54" ry="41.09"/>
<text text-anchor="middle" x="264" y="-139.9" font-family="Times,serif" font-size="14.00">{</text>
<text text-anchor="middle" x="264" y="-123.1" font-family="Times,serif" font-size="14.00"> &#160;&#160;&#160;provide: ItemService, useExisting: BudgetItemService,</text>
<text text-anchor="middle" x="264" y="-106.3" font-family="Times,serif" font-size="14.00">}</text>
</g>
<!-- {
 &#160;&#160;&#160;provide: ItemService, useExisting: BudgetItemService,
}&#45;&gt;BudgetDetailsComponent -->
<g id="edge2" class="edge">
<title>{
 &#160;&#160;&#160;provide: ItemService, useExisting: BudgetItemService,
}&#45;&gt;BudgetDetailsComponent</title>
<path fill="none" stroke="black" d="M105,-158.67C105,-158.67 105,-187.42 105,-187.42"/>
<polygon fill="black" stroke="black" points="101.5,-187.42 105,-197.42 108.5,-187.42 101.5,-187.42"/>
</g>
<!-- CardModule -->
<g id="node4" class="node">
<title>CardModule</title>
<polygon fill="#8dd3c7" stroke="black" points="1094.26,-233.59 1091.26,-237.59 1070.26,-237.59 1067.26,-233.59 1007.74,-233.59 1007.74,-197.59 1094.26,-197.59 1094.26,-233.59"/>
<text text-anchor="middle" x="1051" y="-211.39" font-family="Times,serif" font-size="14.00">CardModule</text>
</g>
<!-- CardModule&#45;&gt;BudgetDetailsModule -->
<g id="edge3" class="edge">
<title>CardModule&#45;&gt;BudgetDetailsModule</title>
<path fill="none" stroke="black" d="M1051,-233.88C1051,-255.8 1051,-289.59 1051,-289.59 1051,-289.59 687.71,-289.59 687.71,-289.59"/>
<polygon fill="black" stroke="black" points="687.71,-286.09 677.71,-289.59 687.71,-293.09 687.71,-286.09"/>
</g>
<!-- DisableInfoModule -->
<g id="node5" class="node">
<title>DisableInfoModule</title>
<polygon fill="#8dd3c7" stroke="black" points="989.63,-233.59 986.63,-237.59 965.63,-237.59 962.63,-233.59 864.37,-233.59 864.37,-197.59 989.63,-197.59 989.63,-233.59"/>
<text text-anchor="middle" x="927" y="-211.39" font-family="Times,serif" font-size="14.00">DisableInfoModule</text>
</g>
<!-- DisableInfoModule&#45;&gt;BudgetDetailsModule -->
<g id="edge4" class="edge">
<title>DisableInfoModule&#45;&gt;BudgetDetailsModule</title>
<path fill="none" stroke="black" d="M927,-233.7C927,-252.93 927,-280.59 927,-280.59 927,-280.59 688.01,-280.59 688.01,-280.59"/>
<polygon fill="black" stroke="black" points="688.01,-277.09 678.01,-280.59 688.01,-284.09 688.01,-277.09"/>
</g>
<!-- I18nModule -->
<g id="node6" class="node">
<title>I18nModule</title>
<polygon fill="#8dd3c7" stroke="black" points="846.71,-233.59 843.71,-237.59 822.71,-237.59 819.71,-233.59 761.29,-233.59 761.29,-197.59 846.71,-197.59 846.71,-233.59"/>
<text text-anchor="middle" x="804" y="-211.39" font-family="Times,serif" font-size="14.00">I18nModule</text>
</g>
<!-- I18nModule&#45;&gt;BudgetDetailsModule -->
<g id="edge5" class="edge">
<title>I18nModule&#45;&gt;BudgetDetailsModule</title>
<path fill="none" stroke="black" d="M804,-233.62C804,-249.99 804,-271.59 804,-271.59 804,-271.59 687.65,-271.59 687.65,-271.59"/>
<polygon fill="black" stroke="black" points="687.65,-268.09 677.65,-271.59 687.65,-275.09 687.65,-268.09"/>
</g>
<!-- ItemExistsModule -->
<g id="node7" class="node">
<title>ItemExistsModule</title>
<polygon fill="#8dd3c7" stroke="black" points="743.93,-233.59 740.93,-237.59 719.93,-237.59 716.93,-233.59 624.07,-233.59 624.07,-197.59 743.93,-197.59 743.93,-233.59"/>
<text text-anchor="middle" x="684" y="-211.39" font-family="Times,serif" font-size="14.00">ItemExistsModule</text>
</g>
<!-- ItemExistsModule&#45;&gt;BudgetDetailsModule -->
<g id="edge6" class="edge">
<title>ItemExistsModule&#45;&gt;BudgetDetailsModule</title>
<path fill="none" stroke="black" d="M651.05,-233.7C651.05,-233.7 651.05,-252.58 651.05,-252.58"/>
<polygon fill="black" stroke="black" points="647.55,-252.58 651.05,-262.58 654.55,-252.58 647.55,-252.58"/>
</g>
<!-- KeyboardFocusModule -->
<g id="node8" class="node">
<title>KeyboardFocusModule</title>
<polygon fill="#8dd3c7" stroke="black" points="606.19,-233.59 603.19,-237.59 582.19,-237.59 579.19,-233.59 457.81,-233.59 457.81,-197.59 606.19,-197.59 606.19,-233.59"/>
<text text-anchor="middle" x="532" y="-211.39" font-family="Times,serif" font-size="14.00">KeyboardFocusModule</text>
</g>
<!-- KeyboardFocusModule&#45;&gt;BudgetDetailsModule -->
<g id="edge7" class="edge">
<title>KeyboardFocusModule&#45;&gt;BudgetDetailsModule</title>
<path fill="none" stroke="black" d="M572.14,-233.7C572.14,-233.7 572.14,-252.58 572.14,-252.58"/>
<polygon fill="black" stroke="black" points="568.64,-252.58 572.14,-262.58 575.64,-252.58 568.64,-252.58"/>
</g>
<!-- ToggleStatusModule -->
<g id="node9" class="node">
<title>ToggleStatusModule</title>
<polygon fill="#8dd3c7" stroke="black" points="439.93,-233.59 436.93,-237.59 415.93,-237.59 412.93,-233.59 306.07,-233.59 306.07,-197.59 439.93,-197.59 439.93,-233.59"/>
<text text-anchor="middle" x="373" y="-211.39" font-family="Times,serif" font-size="14.00">ToggleStatusModule</text>
</g>
<!-- ToggleStatusModule&#45;&gt;BudgetDetailsModule -->
<g id="edge8" class="edge">
<title>ToggleStatusModule&#45;&gt;BudgetDetailsModule</title>
<path fill="none" stroke="black" d="M373,-233.62C373,-249.99 373,-271.59 373,-271.59 373,-271.59 528.13,-271.59 528.13,-271.59"/>
<polygon fill="black" stroke="black" points="528.13,-275.09 538.13,-271.59 528.13,-268.09 528.13,-275.09"/>
</g>
<!-- UrlModule -->
<g id="node10" class="node">
<title>UrlModule</title>
<polygon fill="#8dd3c7" stroke="black" points="288.21,-233.59 285.21,-237.59 264.21,-237.59 261.21,-233.59 209.79,-233.59 209.79,-197.59 288.21,-197.59 288.21,-233.59"/>
<text text-anchor="middle" x="249" y="-211.39" font-family="Times,serif" font-size="14.00">UrlModule</text>
</g>
<!-- UrlModule&#45;&gt;BudgetDetailsModule -->
<g id="edge9" class="edge">
<title>UrlModule&#45;&gt;BudgetDetailsModule</title>
<path fill="none" stroke="black" d="M249,-233.7C249,-252.93 249,-280.59 249,-280.59 249,-280.59 528.36,-280.59 528.36,-280.59"/>
<polygon fill="black" stroke="black" points="528.36,-284.09 538.36,-280.59 528.36,-277.09 528.36,-284.09"/>
</g>
</g>
</svg>
