<?xml version="1.0" encoding="UTF-8" standalone="no"?>
<!DOCTYPE svg PUBLIC "-//W3C//DTD SVG 1.1//EN"
 "http://www.w3.org/Graphics/SVG/1.1/DTD/svg11.dtd">
<!-- Generated by graphviz version 2.40.1 (20161225.0304)
 -->
<!-- Title: dependencies Pages: 1 -->
<svg width="816pt" height="323pt"
 viewBox="0.00 0.00 816.00 322.59" xmlns="http://www.w3.org/2000/svg" xmlns:xlink="http://www.w3.org/1999/xlink">
<g id="graph0" class="graph" transform="scale(1 1) rotate(0) translate(4 318.5901)">
<title>dependencies</title>
<polygon fill="#ffffff" stroke="transparent" points="-4,4 -4,-318.5901 812,-318.5901 812,4 -4,4"/>
<text text-anchor="start" x="383.0091" y="-42.4" font-family="sans-serif" font-weight="bold" font-size="14.00" fill="#000000">Legend</text>
<polygon fill="#ffffb3" stroke="transparent" points="170,-10 170,-30 190,-30 190,-10 170,-10"/>
<text text-anchor="start" x="193.629" y="-15.4" font-family="sans-serif" font-size="14.00" fill="#000000"> &#160;Declarations</text>
<polygon fill="#8dd3c7" stroke="transparent" points="283,-10 283,-30 303,-30 303,-10 283,-10"/>
<text text-anchor="start" x="306.7251" y="-15.4" font-family="sans-serif" font-size="14.00" fill="#000000"> &#160;Module</text>
<polygon fill="#80b1d3" stroke="transparent" points="369,-10 369,-30 389,-30 389,-10 369,-10"/>
<text text-anchor="start" x="392.7812" y="-15.4" font-family="sans-serif" font-size="14.00" fill="#000000"> &#160;Bootstrap</text>
<polygon fill="#fdb462" stroke="transparent" points="466,-10 466,-30 486,-30 486,-10 466,-10"/>
<text text-anchor="start" x="489.6732" y="-15.4" font-family="sans-serif" font-size="14.00" fill="#000000"> &#160;Providers</text>
<polygon fill="#fb8072" stroke="transparent" points="562,-10 562,-30 582,-30 582,-10 562,-10"/>
<text text-anchor="start" x="585.7258" y="-15.4" font-family="sans-serif" font-size="14.00" fill="#000000"> &#160;Exports</text>
<g id="clust1" class="cluster">
<title>cluster_BudgetDetailsModule</title>
<polygon fill="none" stroke="#000000" stroke-dasharray="1,5" points="8,-70 8,-306.5901 800,-306.5901 800,-70 8,-70"/>
</g>
<g id="clust2" class="cluster">
<title>cluster_BudgetDetailsModule_declarations</title>
<polygon fill="none" stroke="#000000" points="614,-189.5901 614,-241.5901 792,-241.5901 792,-189.5901 614,-189.5901"/>
</g>
<g id="clust3" class="cluster">
<title>cluster_BudgetDetailsModule_BudgetDetailsComponent_providers</title>
<polygon fill="none" stroke="#000000" points="296,-78 296,-176.5901 792,-176.5901 792,-78 296,-78"/>
</g>
<g id="clust4" class="cluster">
<title>cluster_BudgetDetailsModule_imports</title>
<polygon fill="none" stroke="#000000" points="16,-189.5901 16,-241.5901 606,-241.5901 606,-189.5901 16,-189.5901"/>
</g>
<!-- BudgetDetailsComponent -->
<g id="node1" class="node">
<title>BudgetDetailsComponent</title>
<polygon fill="#ffffb3" stroke="#000000" points="783.927,-233.5901 622.073,-233.5901 622.073,-197.5901 783.927,-197.5901 783.927,-233.5901"/>
<text text-anchor="middle" x="703" y="-211.3901" font-family="Times,serif" font-size="14.00" fill="#000000">BudgetDetailsComponent</text>
</g>
<!-- BudgetDetailsModule -->
<g id="node2" class="node">
<title>BudgetDetailsModule</title>
<polygon fill="#8dd3c7" stroke="#000000" points="460.6443,-298.5901 457.6443,-302.5901 436.6443,-302.5901 433.6443,-298.5901 321.3557,-298.5901 321.3557,-262.5901 460.6443,-262.5901 460.6443,-298.5901"/>
<text text-anchor="middle" x="391" y="-276.3901" font-family="Times,serif" font-size="14.00" fill="#000000">BudgetDetailsModule</text>
</g>
<!-- BudgetDetailsComponent&#45;&gt;BudgetDetailsModule -->
<g id="edge1" class="edge">
<title>BudgetDetailsComponent&#45;&gt;BudgetDetailsModule</title>
<path fill="none" stroke="#000000" d="M703,-233.8743C703,-254.9111 703,-286.5901 703,-286.5901 703,-286.5901 471.0189,-286.5901 471.0189,-286.5901"/>
<polygon fill="#000000" stroke="#000000" points="471.0189,-283.0902 461.0189,-286.5901 471.0189,-290.0902 471.0189,-283.0902"/>
</g>
<!-- {
 &#160;&#160;&#160;provide: ItemService, useExisting: BudgetItemService,
} -->
<g id="node3" class="node">
<title>{
 &#160;&#160;&#160;provide: ItemService, useExisting: BudgetItemService,
}</title>
<ellipse fill="#fdb462" stroke="#000000" cx="544" cy="-127.295" rx="239.5388" ry="41.0911"/>
<text text-anchor="middle" x="544" y="-139.895" font-family="Times,serif" font-size="14.00" fill="#000000">{</text>
<text text-anchor="middle" x="544" y="-123.095" font-family="Times,serif" font-size="14.00" fill="#000000"> &#160;&#160;&#160;provide: ItemService, useExisting: BudgetItemService,</text>
<text text-anchor="middle" x="544" y="-106.295" font-family="Times,serif" font-size="14.00" fill="#000000">}</text>
</g>
<!-- {
 &#160;&#160;&#160;provide: ItemService, useExisting: BudgetItemService,
}&#45;&gt;BudgetDetailsComponent -->
<g id="edge2" class="edge">
<title>{
 &#160;&#160;&#160;provide: ItemService, useExisting: BudgetItemService,
}&#45;&gt;BudgetDetailsComponent</title>
<path fill="none" stroke="#000000" d="M703,-158.6732C703,-158.6732 703,-187.4207 703,-187.4207"/>
<polygon fill="#000000" stroke="#000000" points="699.5001,-187.4207 703,-197.4207 706.5001,-187.4208 699.5001,-187.4207"/>
</g>
<!-- CardModule -->
<g id="node4" class="node">
<title>CardModule</title>
<polygon fill="#8dd3c7" stroke="#000000" points="598.2619,-233.5901 595.2619,-237.5901 574.2619,-237.5901 571.2619,-233.5901 511.7381,-233.5901 511.7381,-197.5901 598.2619,-197.5901 598.2619,-233.5901"/>
<text text-anchor="middle" x="555" y="-211.3901" font-family="Times,serif" font-size="14.00" fill="#000000">CardModule</text>
</g>
<!-- CardModule&#45;&gt;BudgetDetailsModule -->
<g id="edge3" class="edge">
<title>CardModule&#45;&gt;BudgetDetailsModule</title>
<path fill="none" stroke="#000000" d="M555,-233.6126C555,-250.9634 555,-274.5901 555,-274.5901 555,-274.5901 471.0265,-274.5901 471.0265,-274.5901"/>
<polygon fill="#000000" stroke="#000000" points="471.0265,-271.0902 461.0265,-274.5901 471.0264,-278.0902 471.0265,-271.0902"/>
</g>
<!-- I18nModule -->
<g id="node5" class="node">
<title>I18nModule</title>
<polygon fill="#8dd3c7" stroke="#000000" points="493.7107,-233.5901 490.7107,-237.5901 469.7107,-237.5901 466.7107,-233.5901 408.2893,-233.5901 408.2893,-197.5901 493.7107,-197.5901 493.7107,-233.5901"/>
<text text-anchor="middle" x="451" y="-211.3901" font-family="Times,serif" font-size="14.00" fill="#000000">I18nModule</text>
</g>
<!-- I18nModule&#45;&gt;BudgetDetailsModule -->
<g id="edge4" class="edge">
<title>I18nModule&#45;&gt;BudgetDetailsModule</title>
<path fill="none" stroke="#000000" d="M434.6084,-233.6962C434.6084,-233.6962 434.6084,-252.581 434.6084,-252.581"/>
<polygon fill="#000000" stroke="#000000" points="431.1084,-252.581 434.6084,-262.581 438.1084,-252.5811 431.1084,-252.581"/>
</g>
<!-- ItemExistsModule -->
<g id="node6" class="node">
<title>ItemExistsModule</title>
<polygon fill="#8dd3c7" stroke="#000000" points="390.93,-233.5901 387.93,-237.5901 366.93,-237.5901 363.93,-233.5901 271.07,-233.5901 271.07,-197.5901 390.93,-197.5901 390.93,-233.5901"/>
<text text-anchor="middle" x="331" y="-211.3901" font-family="Times,serif" font-size="14.00" fill="#000000">ItemExistsModule</text>
</g>
<!-- ItemExistsModule&#45;&gt;BudgetDetailsModule -->
<g id="edge5" class="edge">
<title>ItemExistsModule&#45;&gt;BudgetDetailsModule</title>
<path fill="none" stroke="#000000" d="M355.9464,-233.6962C355.9464,-233.6962 355.9464,-252.581 355.9464,-252.581"/>
<polygon fill="#000000" stroke="#000000" points="352.4464,-252.581 355.9464,-262.581 359.4464,-252.5811 352.4464,-252.581"/>
</g>
<!-- ToggleStatusModule -->
<g id="node7" class="node">
<title>ToggleStatusModule</title>
<polygon fill="#8dd3c7" stroke="#000000" points="253.9313,-233.5901 250.9313,-237.5901 229.9313,-237.5901 226.9313,-233.5901 120.0687,-233.5901 120.0687,-197.5901 253.9313,-197.5901 253.9313,-233.5901"/>
<text text-anchor="middle" x="187" y="-211.3901" font-family="Times,serif" font-size="14.00" fill="#000000">ToggleStatusModule</text>
</g>
<!-- ToggleStatusModule&#45;&gt;BudgetDetailsModule -->
<g id="edge6" class="edge">
<title>ToggleStatusModule&#45;&gt;BudgetDetailsModule</title>
<path fill="none" stroke="#000000" d="M187,-233.6126C187,-250.9634 187,-274.5901 187,-274.5901 187,-274.5901 311.0802,-274.5901 311.0802,-274.5901"/>
<polygon fill="#000000" stroke="#000000" points="311.0802,-278.0902 321.0802,-274.5901 311.0801,-271.0902 311.0802,-278.0902"/>
</g>
<!-- UrlModule -->
<g id="node8" class="node">
<title>UrlModule</title>
<polygon fill="#8dd3c7" stroke="#000000" points="102.2079,-233.5901 99.2079,-237.5901 78.2079,-237.5901 75.2079,-233.5901 23.7921,-233.5901 23.7921,-197.5901 102.2079,-197.5901 102.2079,-233.5901"/>
<text text-anchor="middle" x="63" y="-211.3901" font-family="Times,serif" font-size="14.00" fill="#000000">UrlModule</text>
</g>
<!-- UrlModule&#45;&gt;BudgetDetailsModule -->
<g id="edge7" class="edge">
<title>UrlModule&#45;&gt;BudgetDetailsModule</title>
<path fill="none" stroke="#000000" d="M63,-233.8743C63,-254.9111 63,-286.5901 63,-286.5901 63,-286.5901 311.0381,-286.5901 311.0381,-286.5901"/>
<polygon fill="#000000" stroke="#000000" points="311.0381,-290.0902 321.0381,-286.5901 311.038,-283.0902 311.0381,-290.0902"/>
</g>
</g>
</svg>
