<?xml version="1.0" encoding="UTF-8" standalone="no"?>
<!DOCTYPE svg PUBLIC "-//W3C//DTD SVG 1.1//EN"
 "http://www.w3.org/Graphics/SVG/1.1/DTD/svg11.dtd">
<!-- Generated by graphviz version 2.47.3 (20210619.1520)
 -->
<!-- Title: dependencies Pages: 1 -->
<svg width="770pt" height="247pt"
 viewBox="0.00 0.00 770.00 246.80" xmlns="http://www.w3.org/2000/svg" xmlns:xlink="http://www.w3.org/1999/xlink">
<g id="graph0" class="graph" transform="scale(1 1) rotate(0) translate(4 242.8)">
<title>dependencies</title>
<polygon fill="white" stroke="transparent" points="-4,4 -4,-242.8 766,-242.8 766,4 -4,4"/>
<text text-anchor="middle" x="381" y="-8.2" font-family="sans-serif" font-size="14.00">dependencies</text>
<g id="clust1" class="cluster">
<title>cluster_ConfiguratorProductTitleModule</title>
<polygon fill="none" stroke="black" stroke-dasharray="1,5" points="8,-32.8 8,-230.8 754,-230.8 754,-32.8 8,-32.8"/>
</g>
<g id="clust4" class="cluster">
<title>cluster_ConfiguratorProductTitleModule_imports</title>
<polygon fill="none" stroke="black" points="264,-40.8 264,-92.8 746,-92.8 746,-40.8 264,-40.8"/>
</g>
<g id="clust2" class="cluster">
<title>cluster_ConfiguratorProductTitleModule_declarations</title>
<polygon fill="none" stroke="black" points="16,-40.8 16,-92.8 256,-92.8 256,-40.8 16,-40.8"/>
</g>
<g id="clust5" class="cluster">
<title>cluster_ConfiguratorProductTitleModule_exports</title>
<polygon fill="none" stroke="black" points="306,-170.8 306,-222.8 550,-222.8 550,-170.8 306,-170.8"/>
</g>
<!-- ConfiguratorProductTitleComponent -->
<g id="node1" class="node">
<title>ConfiguratorProductTitleComponent</title>
<polygon fill="#ffffb3" stroke="black" points="247.63,-84.8 24.37,-84.8 24.37,-48.8 247.63,-48.8 247.63,-84.8"/>
<text text-anchor="middle" x="136" y="-62.6" font-family="Times,serif" font-size="14.00">ConfiguratorProductTitleComponent</text>
</g>
<!-- ConfiguratorProductTitleModule -->
<g id="node2" class="node">
<title>ConfiguratorProductTitleModule</title>
<polygon fill="#8dd3c7" stroke="black" points="528.85,-149.8 525.85,-153.8 504.85,-153.8 501.85,-149.8 327.15,-149.8 327.15,-113.8 528.85,-113.8 528.85,-149.8"/>
<text text-anchor="middle" x="428" y="-127.6" font-family="Times,serif" font-size="14.00">ConfiguratorProductTitleModule</text>
</g>
<!-- ConfiguratorProductTitleComponent&#45;&gt;ConfiguratorProductTitleModule -->
<g id="edge1" class="edge">
<title>ConfiguratorProductTitleComponent&#45;&gt;ConfiguratorProductTitleModule</title>
<path fill="none" stroke="black" d="M136,-84.91C136,-104.14 136,-131.8 136,-131.8 136,-131.8 317.1,-131.8 317.1,-131.8"/>
<polygon fill="black" stroke="black" points="317.1,-135.3 327.1,-131.8 317.1,-128.3 317.1,-135.3"/>
</g>
<!-- ConfiguratorProductTitleComponent  -->
<g id="node7" class="node">
<title>ConfiguratorProductTitleComponent </title>
<polygon fill="#fb8072" stroke="black" points="541.63,-214.8 314.37,-214.8 314.37,-178.8 541.63,-178.8 541.63,-214.8"/>
<text text-anchor="middle" x="428" y="-192.6" font-family="Times,serif" font-size="14.00">ConfiguratorProductTitleComponent </text>
</g>
<!-- ConfiguratorProductTitleModule&#45;&gt;ConfiguratorProductTitleComponent  -->
<g id="edge6" class="edge">
<title>ConfiguratorProductTitleModule&#45;&gt;ConfiguratorProductTitleComponent </title>
<path fill="none" stroke="black" stroke-dasharray="5,2" d="M428,-149.91C428,-149.91 428,-168.79 428,-168.79"/>
<polygon fill="black" stroke="black" points="424.5,-168.79 428,-178.79 431.5,-168.79 424.5,-168.79"/>
</g>
<!-- FeaturesConfigModule -->
<g id="node3" class="node">
<title>FeaturesConfigModule</title>
<polygon fill="#8dd3c7" stroke="black" points="737.86,-84.8 734.86,-88.8 713.86,-88.8 710.86,-84.8 592.14,-84.8 592.14,-48.8 737.86,-48.8 737.86,-84.8"/>
<text text-anchor="middle" x="665" y="-62.6" font-family="Times,serif" font-size="14.00">FeaturesConfigModule</text>
</g>
<!-- FeaturesConfigModule&#45;&gt;ConfiguratorProductTitleModule -->
<g id="edge2" class="edge">
<title>FeaturesConfigModule&#45;&gt;ConfiguratorProductTitleModule</title>
<path fill="none" stroke="black" d="M665,-84.91C665,-104.14 665,-131.8 665,-131.8 665,-131.8 538.85,-131.8 538.85,-131.8"/>
<polygon fill="black" stroke="black" points="538.85,-128.3 528.85,-131.8 538.85,-135.3 538.85,-128.3"/>
</g>
<!-- I18nModule -->
<g id="node4" class="node">
<title>I18nModule</title>
<polygon fill="#8dd3c7" stroke="black" points="573.71,-84.8 570.71,-88.8 549.71,-88.8 546.71,-84.8 488.29,-84.8 488.29,-48.8 573.71,-48.8 573.71,-84.8"/>
<text text-anchor="middle" x="531" y="-62.6" font-family="Times,serif" font-size="14.00">I18nModule</text>
</g>
<!-- I18nModule&#45;&gt;ConfiguratorProductTitleModule -->
<g id="edge3" class="edge">
<title>I18nModule&#45;&gt;ConfiguratorProductTitleModule</title>
<path fill="none" stroke="black" d="M508.66,-84.91C508.66,-84.91 508.66,-103.79 508.66,-103.79"/>
<polygon fill="black" stroke="black" points="505.16,-103.79 508.66,-113.79 512.16,-103.79 505.16,-103.79"/>
</g>
<!-- IconModule -->
<g id="node5" class="node">
<title>IconModule</title>
<polygon fill="#8dd3c7" stroke="black" points="470.43,-84.8 467.43,-88.8 446.43,-88.8 443.43,-84.8 385.57,-84.8 385.57,-48.8 470.43,-48.8 470.43,-84.8"/>
<text text-anchor="middle" x="428" y="-62.6" font-family="Times,serif" font-size="14.00">IconModule</text>
</g>
<!-- IconModule&#45;&gt;ConfiguratorProductTitleModule -->
<g id="edge4" class="edge">
<title>IconModule&#45;&gt;ConfiguratorProductTitleModule</title>
<path fill="none" stroke="black" d="M428,-84.91C428,-84.91 428,-103.79 428,-103.79"/>
<polygon fill="black" stroke="black" points="424.5,-103.79 428,-113.79 431.5,-103.79 424.5,-103.79"/>
</g>
<!-- MediaModule -->
<g id="node6" class="node">
<title>MediaModule</title>
<polygon fill="#8dd3c7" stroke="black" points="367.81,-84.8 364.81,-88.8 343.81,-88.8 340.81,-84.8 272.19,-84.8 272.19,-48.8 367.81,-48.8 367.81,-84.8"/>
<text text-anchor="middle" x="320" y="-62.6" font-family="Times,serif" font-size="14.00">MediaModule</text>
</g>
<!-- MediaModule&#45;&gt;ConfiguratorProductTitleModule -->
<g id="edge5" class="edge">
<title>MediaModule&#45;&gt;ConfiguratorProductTitleModule</title>
<path fill="none" stroke="black" d="M347.37,-84.91C347.37,-84.91 347.37,-103.79 347.37,-103.79"/>
<polygon fill="black" stroke="black" points="343.87,-103.79 347.37,-113.79 350.87,-103.79 343.87,-103.79"/>
</g>
</g>
</svg>
