<?xml version="1.0" encoding="UTF-8" standalone="no"?>
<!DOCTYPE svg PUBLIC "-//W3C//DTD SVG 1.1//EN"
 "http://www.w3.org/Graphics/SVG/1.1/DTD/svg11.dtd">
<!-- Generated by graphviz version 2.47.3 (20210619.1520)
 -->
<!-- Title: dependencies Pages: 1 -->
<svg width="620pt" height="174pt"
 viewBox="0.00 0.00 620.00 173.80" xmlns="http://www.w3.org/2000/svg" xmlns:xlink="http://www.w3.org/1999/xlink">
<g id="graph0" class="graph" transform="scale(1 1) rotate(0) translate(4 169.8)">
<title>dependencies</title>
<polygon fill="white" stroke="transparent" points="-4,4 -4,-169.8 616,-169.8 616,4 -4,4"/>
<text text-anchor="middle" x="306" y="-8.2" font-family="sans-serif" font-size="14.00">dependencies</text>
<g id="clust1" class="cluster">
<title>cluster_UnitCostCenterListModule</title>
<polygon fill="none" stroke="black" stroke-dasharray="1,5" points="8,-32.8 8,-157.8 604,-157.8 604,-32.8 8,-32.8"/>
</g>
<g id="clust2" class="cluster">
<title>cluster_UnitCostCenterListModule_declarations</title>
<polygon fill="none" stroke="black" points="390,-40.8 390,-92.8 596,-92.8 596,-40.8 390,-40.8"/>
</g>
<g id="clust4" class="cluster">
<title>cluster_UnitCostCenterListModule_imports</title>
<polygon fill="none" stroke="black" points="16,-40.8 16,-92.8 382,-92.8 382,-40.8 16,-40.8"/>
</g>
<!-- UnitCostCenterListComponent -->
<g id="node1" class="node">
<title>UnitCostCenterListComponent</title>
<polygon fill="#ffffb3" stroke="black" points="588.49,-84.8 397.51,-84.8 397.51,-48.8 588.49,-48.8 588.49,-84.8"/>
<text text-anchor="middle" x="493" y="-62.6" font-family="Times,serif" font-size="14.00">UnitCostCenterListComponent</text>
</g>
<!-- UnitCostCenterListModule -->
<g id="node2" class="node">
<title>UnitCostCenterListModule</title>
<polygon fill="#8dd3c7" stroke="black" points="333.7,-149.8 330.7,-153.8 309.7,-153.8 306.7,-149.8 164.3,-149.8 164.3,-113.8 333.7,-113.8 333.7,-149.8"/>
<text text-anchor="middle" x="249" y="-127.6" font-family="Times,serif" font-size="14.00">UnitCostCenterListModule</text>
</g>
<!-- UnitCostCenterListComponent&#45;&gt;UnitCostCenterListModule -->
<g id="edge1" class="edge">
<title>UnitCostCenterListComponent&#45;&gt;UnitCostCenterListModule</title>
<path fill="none" stroke="black" d="M493,-84.91C493,-104.14 493,-131.8 493,-131.8 493,-131.8 343.65,-131.8 343.65,-131.8"/>
<polygon fill="black" stroke="black" points="343.65,-128.3 333.65,-131.8 343.65,-135.3 343.65,-128.3"/>
</g>
<!-- DisableInfoModule -->
<g id="node3" class="node">
<title>DisableInfoModule</title>
<polygon fill="#8dd3c7" stroke="black" points="373.63,-84.8 370.63,-88.8 349.63,-88.8 346.63,-84.8 248.37,-84.8 248.37,-48.8 373.63,-48.8 373.63,-84.8"/>
<text text-anchor="middle" x="311" y="-62.6" font-family="Times,serif" font-size="14.00">DisableInfoModule</text>
</g>
<!-- DisableInfoModule&#45;&gt;UnitCostCenterListModule -->
<g id="edge2" class="edge">
<title>DisableInfoModule&#45;&gt;UnitCostCenterListModule</title>
<path fill="none" stroke="black" d="M290.89,-84.91C290.89,-84.91 290.89,-103.79 290.89,-103.79"/>
<polygon fill="black" stroke="black" points="287.39,-103.79 290.89,-113.79 294.39,-103.79 287.39,-103.79"/>
</g>
<!-- I18nModule -->
<g id="node4" class="node">
<title>I18nModule</title>
<polygon fill="#8dd3c7" stroke="black" points="230.71,-84.8 227.71,-88.8 206.71,-88.8 203.71,-84.8 145.29,-84.8 145.29,-48.8 230.71,-48.8 230.71,-84.8"/>
<text text-anchor="middle" x="188" y="-62.6" font-family="Times,serif" font-size="14.00">I18nModule</text>
</g>
<!-- I18nModule&#45;&gt;UnitCostCenterListModule -->
<g id="edge3" class="edge">
<title>I18nModule&#45;&gt;UnitCostCenterListModule</title>
<path fill="none" stroke="black" d="M197.5,-84.91C197.5,-84.91 197.5,-103.79 197.5,-103.79"/>
<polygon fill="black" stroke="black" points="194,-103.79 197.5,-113.79 201,-103.79 194,-103.79"/>
</g>
<!-- SubListModule -->
<g id="node5" class="node">
<title>SubListModule</title>
<polygon fill="#8dd3c7" stroke="black" points="127.61,-84.8 124.61,-88.8 103.61,-88.8 100.61,-84.8 24.39,-84.8 24.39,-48.8 127.61,-48.8 127.61,-84.8"/>
<text text-anchor="middle" x="76" y="-62.6" font-family="Times,serif" font-size="14.00">SubListModule</text>
</g>
<!-- SubListModule&#45;&gt;UnitCostCenterListModule -->
<g id="edge4" class="edge">
<title>SubListModule&#45;&gt;UnitCostCenterListModule</title>
<path fill="none" stroke="black" d="M76,-84.91C76,-104.14 76,-131.8 76,-131.8 76,-131.8 154.27,-131.8 154.27,-131.8"/>
<polygon fill="black" stroke="black" points="154.27,-135.3 164.27,-131.8 154.27,-128.3 154.27,-135.3"/>
</g>
</g>
</svg>
