<?xml version="1.0" encoding="UTF-8" standalone="no"?>
<!DOCTYPE svg PUBLIC "-//W3C//DTD SVG 1.1//EN"
 "http://www.w3.org/Graphics/SVG/1.1/DTD/svg11.dtd">
<!-- Generated by graphviz version 2.40.1 (20161225.0304)
 -->
<!-- Title: dependencies Pages: 1 -->
<svg width="680pt" height="284pt"
 viewBox="0.00 0.00 680.00 284.00" xmlns="http://www.w3.org/2000/svg" xmlns:xlink="http://www.w3.org/1999/xlink">
<g id="graph0" class="graph" transform="scale(1 1) rotate(0) translate(4 280)">
<title>dependencies</title>
<polygon fill="#ffffff" stroke="transparent" points="-4,4 -4,-280 676,-280 676,4 -4,4"/>
<text text-anchor="start" x="315.0091" y="-42.4" font-family="sans-serif" font-weight="bold" font-size="14.00" fill="#000000">Legend</text>
<polygon fill="#ffffb3" stroke="transparent" points="102,-10 102,-30 122,-30 122,-10 102,-10"/>
<text text-anchor="start" x="125.629" y="-15.4" font-family="sans-serif" font-size="14.00" fill="#000000"> &#160;Declarations</text>
<polygon fill="#8dd3c7" stroke="transparent" points="215,-10 215,-30 235,-30 235,-10 215,-10"/>
<text text-anchor="start" x="238.7251" y="-15.4" font-family="sans-serif" font-size="14.00" fill="#000000"> &#160;Module</text>
<polygon fill="#80b1d3" stroke="transparent" points="301,-10 301,-30 321,-30 321,-10 301,-10"/>
<text text-anchor="start" x="324.7812" y="-15.4" font-family="sans-serif" font-size="14.00" fill="#000000"> &#160;Bootstrap</text>
<polygon fill="#fdb462" stroke="transparent" points="398,-10 398,-30 418,-30 418,-10 398,-10"/>
<text text-anchor="start" x="421.6732" y="-15.4" font-family="sans-serif" font-size="14.00" fill="#000000"> &#160;Providers</text>
<polygon fill="#fb8072" stroke="transparent" points="494,-10 494,-30 514,-30 514,-10 494,-10"/>
<text text-anchor="start" x="517.7258" y="-15.4" font-family="sans-serif" font-size="14.00" fill="#000000"> &#160;Exports</text>
<g id="clust1" class="cluster">
<title>cluster_ConfiguratorOverviewNotificationBannerModule</title>
<polygon fill="none" stroke="#000000" stroke-dasharray="1,5" points="8,-70 8,-268 664,-268 664,-70 8,-70"/>
</g>
<g id="clust2" class="cluster">
<title>cluster_ConfiguratorOverviewNotificationBannerModule_declarations</title>
<polygon fill="none" stroke="#000000" points="324,-78 324,-130 656,-130 656,-78 324,-78"/>
</g>
<g id="clust4" class="cluster">
<title>cluster_ConfiguratorOverviewNotificationBannerModule_imports</title>
<polygon fill="none" stroke="#000000" points="16,-78 16,-130 316,-130 316,-78 16,-78"/>
</g>
<g id="clust5" class="cluster">
<title>cluster_ConfiguratorOverviewNotificationBannerModule_exports</title>
<polygon fill="none" stroke="#000000" points="56,-208 56,-260 392,-260 392,-208 56,-208"/>
</g>
<!-- ConfiguratorOverviewNotificationBannerComponent -->
<g id="node1" class="node">
<title>ConfiguratorOverviewNotificationBannerComponent</title>
<polygon fill="#ffffb3" stroke="#000000" points="648.416,-122 331.584,-122 331.584,-86 648.416,-86 648.416,-122"/>
<text text-anchor="middle" x="490" y="-99.8" font-family="Times,serif" font-size="14.00" fill="#000000">ConfiguratorOverviewNotificationBannerComponent</text>
</g>
<!-- ConfiguratorOverviewNotificationBannerModule -->
<g id="node2" class="node">
<title>ConfiguratorOverviewNotificationBannerModule</title>
<polygon fill="#8dd3c7" stroke="#000000" points="371.6334,-187 368.6334,-191 347.6334,-191 344.6334,-187 76.3666,-187 76.3666,-151 371.6334,-151 371.6334,-187"/>
<text text-anchor="middle" x="224" y="-164.8" font-family="Times,serif" font-size="14.00" fill="#000000">ConfiguratorOverviewNotificationBannerModule</text>
</g>
<!-- ConfiguratorOverviewNotificationBannerComponent&#45;&gt;ConfiguratorOverviewNotificationBannerModule -->
<g id="edge1" class="edge">
<title>ConfiguratorOverviewNotificationBannerComponent&#45;&gt;ConfiguratorOverviewNotificationBannerModule</title>
<path fill="none" stroke="#000000" d="M351.5544,-122.1061C351.5544,-122.1061 351.5544,-140.991 351.5544,-140.991"/>
<polygon fill="#000000" stroke="#000000" points="348.0544,-140.9909 351.5544,-150.991 355.0544,-140.991 348.0544,-140.9909"/>
</g>
<!-- ConfiguratorOverviewNotificationBannerComponent  -->
<g id="node6" class="node">
<title>ConfiguratorOverviewNotificationBannerComponent </title>
<polygon fill="#fb8072" stroke="#000000" points="384.4163,-252 63.5837,-252 63.5837,-216 384.4163,-216 384.4163,-252"/>
<text text-anchor="middle" x="224" y="-229.8" font-family="Times,serif" font-size="14.00" fill="#000000">ConfiguratorOverviewNotificationBannerComponent </text>
</g>
<!-- ConfiguratorOverviewNotificationBannerModule&#45;&gt;ConfiguratorOverviewNotificationBannerComponent  -->
<g id="edge5" class="edge">
<title>ConfiguratorOverviewNotificationBannerModule&#45;&gt;ConfiguratorOverviewNotificationBannerComponent </title>
<path fill="none" stroke="#000000" stroke-dasharray="5,2" d="M224,-187.1061C224,-187.1061 224,-205.991 224,-205.991"/>
<polygon fill="#000000" stroke="#000000" points="220.5001,-205.9909 224,-215.991 227.5001,-205.991 220.5001,-205.9909"/>
</g>
<!-- I18nModule -->
<g id="node3" class="node">
<title>I18nModule</title>
<polygon fill="#8dd3c7" stroke="#000000" points="307.7107,-122 304.7107,-126 283.7107,-126 280.7107,-122 222.2893,-122 222.2893,-86 307.7107,-86 307.7107,-122"/>
<text text-anchor="middle" x="265" y="-99.8" font-family="Times,serif" font-size="14.00" fill="#000000">I18nModule</text>
</g>
<!-- I18nModule&#45;&gt;ConfiguratorOverviewNotificationBannerModule -->
<g id="edge2" class="edge">
<title>I18nModule&#45;&gt;ConfiguratorOverviewNotificationBannerModule</title>
<path fill="none" stroke="#000000" d="M265,-122.1061C265,-122.1061 265,-140.991 265,-140.991"/>
<polygon fill="#000000" stroke="#000000" points="261.5001,-140.9909 265,-150.991 268.5001,-140.991 261.5001,-140.9909"/>
</g>
<!-- IconModule -->
<g id="node4" class="node">
<title>IconModule</title>
<polygon fill="#8dd3c7" stroke="#000000" points="204.4261,-122 201.4261,-126 180.4261,-126 177.4261,-122 119.5739,-122 119.5739,-86 204.4261,-86 204.4261,-122"/>
<text text-anchor="middle" x="162" y="-99.8" font-family="Times,serif" font-size="14.00" fill="#000000">IconModule</text>
</g>
<!-- IconModule&#45;&gt;ConfiguratorOverviewNotificationBannerModule -->
<g id="edge3" class="edge">
<title>IconModule&#45;&gt;ConfiguratorOverviewNotificationBannerModule</title>
<path fill="none" stroke="#000000" d="M162,-122.1061C162,-122.1061 162,-140.991 162,-140.991"/>
<polygon fill="#000000" stroke="#000000" points="158.5001,-140.9909 162,-150.991 165.5001,-140.991 158.5001,-140.9909"/>
</g>
<!-- UrlModule -->
<g id="node5" class="node">
<title>UrlModule</title>
<polygon fill="#8dd3c7" stroke="#000000" points="102.2079,-122 99.2079,-126 78.2079,-126 75.2079,-122 23.7921,-122 23.7921,-86 102.2079,-86 102.2079,-122"/>
<text text-anchor="middle" x="63" y="-99.8" font-family="Times,serif" font-size="14.00" fill="#000000">UrlModule</text>
</g>
<!-- UrlModule&#45;&gt;ConfiguratorOverviewNotificationBannerModule -->
<g id="edge4" class="edge">
<title>UrlModule&#45;&gt;ConfiguratorOverviewNotificationBannerModule</title>
<path fill="none" stroke="#000000" d="M89.2686,-122.1061C89.2686,-122.1061 89.2686,-140.991 89.2686,-140.991"/>
<polygon fill="#000000" stroke="#000000" points="85.7686,-140.9909 89.2686,-150.991 92.7686,-140.991 85.7686,-140.9909"/>
</g>
</g>
</svg>
