<?xml version="1.0" encoding="UTF-8" standalone="no"?>
<!DOCTYPE svg PUBLIC "-//W3C//DTD SVG 1.1//EN"
 "http://www.w3.org/Graphics/SVG/1.1/DTD/svg11.dtd">
<!-- Generated by graphviz version 2.44.1 (20200629.0846)
 -->
<!-- Title: dependencies Pages: 1 -->
<svg width="504pt" height="284pt"
 viewBox="0.00 0.00 504.00 284.00" xmlns="http://www.w3.org/2000/svg" xmlns:xlink="http://www.w3.org/1999/xlink">
<g id="graph0" class="graph" transform="scale(1 1) rotate(0) translate(4 280)">
<title>dependencies</title>
<polygon fill="white" stroke="transparent" points="-4,4 -4,-280 500,-280 500,4 -4,4"/>
<text text-anchor="start" x="227.01" y="-42.4" font-family="sans-serif" font-weight="bold" font-size="14.00">Legend</text>
<polygon fill="#ffffb3" stroke="transparent" points="14,-10 14,-30 34,-30 34,-10 14,-10"/>
<text text-anchor="start" x="37.63" y="-15.4" font-family="sans-serif" font-size="14.00"> &#160;Declarations</text>
<polygon fill="#8dd3c7" stroke="transparent" points="127,-10 127,-30 147,-30 147,-10 127,-10"/>
<text text-anchor="start" x="150.73" y="-15.4" font-family="sans-serif" font-size="14.00"> &#160;Module</text>
<polygon fill="#80b1d3" stroke="transparent" points="213,-10 213,-30 233,-30 233,-10 213,-10"/>
<text text-anchor="start" x="236.78" y="-15.4" font-family="sans-serif" font-size="14.00"> &#160;Bootstrap</text>
<polygon fill="#fdb462" stroke="transparent" points="310,-10 310,-30 330,-30 330,-10 310,-10"/>
<text text-anchor="start" x="333.67" y="-15.4" font-family="sans-serif" font-size="14.00"> &#160;Providers</text>
<polygon fill="#fb8072" stroke="transparent" points="406,-10 406,-30 426,-30 426,-10 406,-10"/>
<text text-anchor="start" x="429.73" y="-15.4" font-family="sans-serif" font-size="14.00"> &#160;Exports</text>
<g id="clust1" class="cluster">
<title>cluster_PageSlotModule</title>
<polygon fill="none" stroke="black" stroke-dasharray="1,5" points="107,-70 107,-268 389,-268 389,-70 107,-70"/>
</g>
<g id="clust5" class="cluster">
<title>cluster_PageSlotModule_exports</title>
<polygon fill="none" stroke="black" points="173,-208 173,-260 323,-260 323,-208 173,-208"/>
</g>
<g id="clust2" class="cluster">
<title>cluster_PageSlotModule_declarations</title>
<polygon fill="none" stroke="black" points="233,-78 233,-130 381,-130 381,-78 233,-78"/>
</g>
<g id="clust4" class="cluster">
<title>cluster_PageSlotModule_imports</title>
<polygon fill="none" stroke="black" points="115,-78 115,-130 225,-130 225,-78 115,-78"/>
</g>
<!-- PageSlotComponent -->
<g id="node1" class="node">
<title>PageSlotComponent</title>
<polygon fill="#ffffb3" stroke="black" points="372.61,-122 241.39,-122 241.39,-86 372.61,-86 372.61,-122"/>
<text text-anchor="middle" x="307" y="-99.8" font-family="Times,serif" font-size="14.00">PageSlotComponent</text>
</g>
<!-- PageSlotModule -->
<g id="node2" class="node">
<title>PageSlotModule</title>
<polygon fill="#8dd3c7" stroke="black" points="302.83,-187 299.83,-191 278.83,-191 275.83,-187 193.17,-187 193.17,-151 302.83,-151 302.83,-187"/>
<text text-anchor="middle" x="248" y="-164.8" font-family="Times,serif" font-size="14.00">PageSlotModule</text>
</g>
<!-- PageSlotComponent&#45;&gt;PageSlotModule -->
<g id="edge1" class="edge">
<title>PageSlotComponent&#45;&gt;PageSlotModule</title>
<path fill="none" stroke="black" d="M272.05,-122.11C272.05,-122.11 272.05,-140.99 272.05,-140.99"/>
<polygon fill="black" stroke="black" points="268.55,-140.99 272.05,-150.99 275.55,-140.99 268.55,-140.99"/>
</g>
<!-- PageSlotComponent  -->
<g id="node4" class="node">
<title>PageSlotComponent </title>
<polygon fill="#fb8072" stroke="black" points="315.11,-252 180.89,-252 180.89,-216 315.11,-216 315.11,-252"/>
<text text-anchor="middle" x="248" y="-229.8" font-family="Times,serif" font-size="14.00">PageSlotComponent </text>
</g>
<!-- PageSlotModule&#45;&gt;PageSlotComponent  -->
<g id="edge3" class="edge">
<title>PageSlotModule&#45;&gt;PageSlotComponent </title>
<path fill="none" stroke="black" stroke-dasharray="5,2" d="M248,-187.11C248,-187.11 248,-205.99 248,-205.99"/>
<polygon fill="black" stroke="black" points="244.5,-205.99 248,-215.99 251.5,-205.99 244.5,-205.99"/>
</g>
<!-- OutletModule -->
<g id="node3" class="node">
<title>OutletModule</title>
<polygon fill="#8dd3c7" stroke="black" points="217.04,-122 214.04,-126 193.04,-126 190.04,-122 122.96,-122 122.96,-86 217.04,-86 217.04,-122"/>
<text text-anchor="middle" x="170" y="-99.8" font-family="Times,serif" font-size="14.00">OutletModule</text>
</g>
<!-- OutletModule&#45;&gt;PageSlotModule -->
<g id="edge2" class="edge">
<title>OutletModule&#45;&gt;PageSlotModule</title>
<path fill="none" stroke="black" d="M205.3,-122.11C205.3,-122.11 205.3,-140.99 205.3,-140.99"/>
<polygon fill="black" stroke="black" points="201.8,-140.99 205.3,-150.99 208.8,-140.99 201.8,-140.99"/>
</g>
</g>
</svg>
