<?xml version="1.0" encoding="UTF-8" standalone="no"?>
<!DOCTYPE svg PUBLIC "-//W3C//DTD SVG 1.1//EN"
 "http://www.w3.org/Graphics/SVG/1.1/DTD/svg11.dtd">
<!-- Generated by graphviz version 2.47.0 (20210316.0004)
 -->
<!-- Title: dependencies Pages: 1 -->
<svg width="1179pt" height="323pt"
 viewBox="0.00 0.00 1179.00 322.59" xmlns="http://www.w3.org/2000/svg" xmlns:xlink="http://www.w3.org/1999/xlink">
<g id="graph0" class="graph" transform="scale(1 1) rotate(0) translate(4 318.59)">
<title>dependencies</title>
<polygon fill="white" stroke="transparent" points="-4,4 -4,-318.59 1175,-318.59 1175,4 -4,4"/>
<text text-anchor="start" x="564.51" y="-42.4" font-family="sans-serif" font-weight="bold" font-size="14.00">Legend</text>
<polygon fill="#ffffb3" stroke="transparent" points="351.5,-10 351.5,-30 371.5,-30 371.5,-10 351.5,-10"/>
<text text-anchor="start" x="375.13" y="-15.4" font-family="sans-serif" font-size="14.00"> &#160;Declarations</text>
<polygon fill="#8dd3c7" stroke="transparent" points="464.5,-10 464.5,-30 484.5,-30 484.5,-10 464.5,-10"/>
<text text-anchor="start" x="488.23" y="-15.4" font-family="sans-serif" font-size="14.00"> &#160;Module</text>
<polygon fill="#80b1d3" stroke="transparent" points="550.5,-10 550.5,-30 570.5,-30 570.5,-10 550.5,-10"/>
<text text-anchor="start" x="574.28" y="-15.4" font-family="sans-serif" font-size="14.00"> &#160;Bootstrap</text>
<polygon fill="#fdb462" stroke="transparent" points="647.5,-10 647.5,-30 667.5,-30 667.5,-10 647.5,-10"/>
<text text-anchor="start" x="671.17" y="-15.4" font-family="sans-serif" font-size="14.00"> &#160;Providers</text>
<polygon fill="#fb8072" stroke="transparent" points="743.5,-10 743.5,-30 763.5,-30 763.5,-10 743.5,-10"/>
<text text-anchor="start" x="767.23" y="-15.4" font-family="sans-serif" font-size="14.00"> &#160;Exports</text>
<g id="clust1" class="cluster">
<title>cluster_UserGroupPermissionModule</title>
<polygon fill="none" stroke="black" stroke-dasharray="1,5" points="8,-70 8,-306.59 1163,-306.59 1163,-70 8,-70"/>
</g>
<g id="clust4" class="cluster">
<title>cluster_UserGroupPermissionModule_UserGroupPermissionListComponent_providers</title>
<polygon fill="none" stroke="black" points="551,-78 551,-241.59 1155,-241.59 1155,-78 551,-78"/>
</g>
<g id="clust2" class="cluster">
<title>cluster_UserGroupPermissionModule_declarations</title>
<polygon fill="none" stroke="black" points="247,-189.59 247,-241.59 543,-241.59 543,-189.59 247,-189.59"/>
</g>
<g id="clust5" class="cluster">
<title>cluster_UserGroupPermissionModule_imports</title>
<polygon fill="none" stroke="black" points="16,-189.59 16,-241.59 239,-241.59 239,-189.59 16,-189.59"/>
</g>
<!-- UserGroupAssignedPermissionListComponent -->
<g id="node1" class="node">
<title>UserGroupAssignedPermissionListComponent</title>
<polygon fill="#ffffb3" stroke="black" points="534.62,-233.59 255.38,-233.59 255.38,-197.59 534.62,-197.59 534.62,-233.59"/>
<text text-anchor="middle" x="395" y="-211.39" font-family="Times,serif" font-size="14.00">UserGroupAssignedPermissionListComponent</text>
</g>
<!-- UserGroupPermissionModule -->
<g id="node3" class="node">
<title>UserGroupPermissionModule</title>
<polygon fill="#8dd3c7" stroke="black" points="382.96,-298.59 379.96,-302.59 358.96,-302.59 355.96,-298.59 199.04,-298.59 199.04,-262.59 382.96,-262.59 382.96,-298.59"/>
<text text-anchor="middle" x="291" y="-276.39" font-family="Times,serif" font-size="14.00">UserGroupPermissionModule</text>
</g>
<!-- UserGroupAssignedPermissionListComponent&#45;&gt;UserGroupPermissionModule -->
<g id="edge1" class="edge">
<title>UserGroupAssignedPermissionListComponent&#45;&gt;UserGroupPermissionModule</title>
<path fill="none" stroke="black" d="M319.08,-233.7C319.08,-233.7 319.08,-252.58 319.08,-252.58"/>
<polygon fill="black" stroke="black" points="315.58,-252.58 319.08,-262.58 322.58,-252.58 315.58,-252.58"/>
</g>
<!-- UserGroupPermissionListComponent -->
<g id="node2" class="node">
<title>UserGroupPermissionListComponent</title>
<polygon fill="#ffffb3" stroke="black" points="876.52,-233.59 649.48,-233.59 649.48,-197.59 876.52,-197.59 876.52,-233.59"/>
<text text-anchor="middle" x="763" y="-211.39" font-family="Times,serif" font-size="14.00">UserGroupPermissionListComponent</text>
</g>
<!-- UserGroupPermissionListComponent&#45;&gt;UserGroupPermissionModule -->
<g id="edge2" class="edge">
<title>UserGroupPermissionListComponent&#45;&gt;UserGroupPermissionModule</title>
<path fill="none" stroke="black" d="M763,-233.7C763,-252.93 763,-280.59 763,-280.59 763,-280.59 393.13,-280.59 393.13,-280.59"/>
<polygon fill="black" stroke="black" points="393.13,-277.09 383.13,-280.59 393.13,-284.09 393.13,-277.09"/>
</g>
<!-- {
 &#160;&#160;&#160;provide: ListService, useExisting: UserGroupPermissionListService,
} -->
<g id="node4" class="node">
<title>{
 &#160;&#160;&#160;provide: ListService, useExisting: UserGroupPermissionListService,
}</title>
<ellipse fill="#fdb462" stroke="black" cx="853" cy="-127.3" rx="293.82" ry="41.09"/>
<text text-anchor="middle" x="853" y="-139.9" font-family="Times,serif" font-size="14.00">{</text>
<text text-anchor="middle" x="853" y="-123.1" font-family="Times,serif" font-size="14.00"> &#160;&#160;&#160;provide: ListService, useExisting: UserGroupPermissionListService,</text>
<text text-anchor="middle" x="853" y="-106.3" font-family="Times,serif" font-size="14.00">}</text>
</g>
<!-- {
 &#160;&#160;&#160;provide: ListService, useExisting: UserGroupPermissionListService,
}&#45;&gt;UserGroupPermissionListComponent -->
<g id="edge3" class="edge">
<title>{
 &#160;&#160;&#160;provide: ListService, useExisting: UserGroupPermissionListService,
}&#45;&gt;UserGroupPermissionListComponent</title>
<path fill="none" stroke="black" d="M763,-166.79C763,-166.79 763,-187.33 763,-187.33"/>
<polygon fill="black" stroke="black" points="759.5,-187.33 763,-197.33 766.5,-187.33 759.5,-187.33"/>
</g>
<!-- I18nModule -->
<g id="node5" class="node">
<title>I18nModule</title>
<polygon fill="#8dd3c7" stroke="black" points="230.71,-233.59 227.71,-237.59 206.71,-237.59 203.71,-233.59 145.29,-233.59 145.29,-197.59 230.71,-197.59 230.71,-233.59"/>
<text text-anchor="middle" x="188" y="-211.39" font-family="Times,serif" font-size="14.00">I18nModule</text>
</g>
<!-- I18nModule&#45;&gt;UserGroupPermissionModule -->
<g id="edge4" class="edge">
<title>I18nModule&#45;&gt;UserGroupPermissionModule</title>
<path fill="none" stroke="black" d="M214.81,-233.7C214.81,-233.7 214.81,-252.58 214.81,-252.58"/>
<polygon fill="black" stroke="black" points="211.31,-252.58 214.81,-262.58 218.31,-252.58 211.31,-252.58"/>
</g>
<!-- SubListModule -->
<g id="node6" class="node">
<title>SubListModule</title>
<polygon fill="#8dd3c7" stroke="black" points="127.61,-233.59 124.61,-237.59 103.61,-237.59 100.61,-233.59 24.39,-233.59 24.39,-197.59 127.61,-197.59 127.61,-233.59"/>
<text text-anchor="middle" x="76" y="-211.39" font-family="Times,serif" font-size="14.00">SubListModule</text>
</g>
<!-- SubListModule&#45;&gt;UserGroupPermissionModule -->
<g id="edge5" class="edge">
<title>SubListModule&#45;&gt;UserGroupPermissionModule</title>
<path fill="none" stroke="black" d="M76,-233.7C76,-252.93 76,-280.59 76,-280.59 76,-280.59 188.89,-280.59 188.89,-280.59"/>
<polygon fill="black" stroke="black" points="188.89,-284.09 198.89,-280.59 188.88,-277.09 188.89,-284.09"/>
</g>
</g>
</svg>
