<?xml version="1.0" encoding="UTF-8" standalone="no"?>
<!DOCTYPE svg PUBLIC "-//W3C//DTD SVG 1.1//EN"
 "http://www.w3.org/Graphics/SVG/1.1/DTD/svg11.dtd">
<!-- Generated by graphviz version 2.47.3 (20210619.1520)
 -->
<!-- Title: dependencies Pages: 1 -->
<svg width="813pt" height="285pt"
 viewBox="0.00 0.00 813.00 285.39" xmlns="http://www.w3.org/2000/svg" xmlns:xlink="http://www.w3.org/1999/xlink">
<g id="graph0" class="graph" transform="scale(1 1) rotate(0) translate(4 281.39)">
<title>dependencies</title>
<polygon fill="white" stroke="transparent" points="-4,4 -4,-281.39 809,-281.39 809,4 -4,4"/>
<text text-anchor="middle" x="402.5" y="-8.2" font-family="sans-serif" font-size="14.00">dependencies</text>
<g id="clust1" class="cluster">
<title>cluster_UserGroupPermissionModule</title>
<polygon fill="none" stroke="black" stroke-dasharray="1,5" points="8,-32.8 8,-269.39 797,-269.39 797,-32.8 8,-32.8"/>
</g>
<g id="clust2" class="cluster">
<title>cluster_UserGroupPermissionModule_declarations</title>
<polygon fill="none" stroke="black" points="16,-152.39 16,-204.39 558,-204.39 558,-152.39 16,-152.39"/>
</g>
<g id="clust5" class="cluster">
<title>cluster_UserGroupPermissionModule_imports</title>
<polygon fill="none" stroke="black" points="566,-152.39 566,-204.39 789,-204.39 789,-152.39 566,-152.39"/>
</g>
<g id="clust4" class="cluster">
<title>cluster_UserGroupPermissionModule_UserGroupPermissionListComponent_providers</title>
<polygon fill="none" stroke="black" points="16,-40.8 16,-139.39 620,-139.39 620,-40.8 16,-40.8"/>
</g>
<!-- UserGroupAssignedPermissionListComponent -->
<g id="node1" class="node">
<title>UserGroupAssignedPermissionListComponent</title>
<polygon fill="#ffffb3" stroke="black" points="549.62,-196.39 270.38,-196.39 270.38,-160.39 549.62,-160.39 549.62,-196.39"/>
<text text-anchor="middle" x="410" y="-174.19" font-family="Times,serif" font-size="14.00">UserGroupAssignedPermissionListComponent</text>
</g>
<!-- UserGroupPermissionModule -->
<g id="node3" class="node">
<title>UserGroupPermissionModule</title>
<polygon fill="#8dd3c7" stroke="black" points="609.96,-261.39 606.96,-265.39 585.96,-265.39 582.96,-261.39 426.04,-261.39 426.04,-225.39 609.96,-225.39 609.96,-261.39"/>
<text text-anchor="middle" x="518" y="-239.19" font-family="Times,serif" font-size="14.00">UserGroupPermissionModule</text>
</g>
<!-- UserGroupAssignedPermissionListComponent&#45;&gt;UserGroupPermissionModule -->
<g id="edge1" class="edge">
<title>UserGroupAssignedPermissionListComponent&#45;&gt;UserGroupPermissionModule</title>
<path fill="none" stroke="black" d="M487.92,-196.5C487.92,-196.5 487.92,-215.38 487.92,-215.38"/>
<polygon fill="black" stroke="black" points="484.42,-215.38 487.92,-225.38 491.42,-215.38 484.42,-215.38"/>
</g>
<!-- UserGroupPermissionListComponent -->
<g id="node2" class="node">
<title>UserGroupPermissionListComponent</title>
<polygon fill="#ffffb3" stroke="black" points="251.52,-196.39 24.48,-196.39 24.48,-160.39 251.52,-160.39 251.52,-196.39"/>
<text text-anchor="middle" x="138" y="-174.19" font-family="Times,serif" font-size="14.00">UserGroupPermissionListComponent</text>
</g>
<!-- UserGroupPermissionListComponent&#45;&gt;UserGroupPermissionModule -->
<g id="edge2" class="edge">
<title>UserGroupPermissionListComponent&#45;&gt;UserGroupPermissionModule</title>
<path fill="none" stroke="black" d="M138,-196.5C138,-215.73 138,-243.39 138,-243.39 138,-243.39 416.01,-243.39 416.01,-243.39"/>
<polygon fill="black" stroke="black" points="416.01,-246.89 426.01,-243.39 416.01,-239.89 416.01,-246.89"/>
</g>
<!-- {
 &#160;&#160;&#160;provide: ListService, useExisting: UserGroupPermissionListService,
} -->
<g id="node4" class="node">
<title>{
 &#160;&#160;&#160;provide: ListService, useExisting: UserGroupPermissionListService,
}</title>
<ellipse fill="#fdb462" stroke="black" cx="318" cy="-90.1" rx="293.82" ry="41.09"/>
<text text-anchor="middle" x="318" y="-102.7" font-family="Times,serif" font-size="14.00">{</text>
<text text-anchor="middle" x="318" y="-85.9" font-family="Times,serif" font-size="14.00"> &#160;&#160;&#160;provide: ListService, useExisting: UserGroupPermissionListService,</text>
<text text-anchor="middle" x="318" y="-69.1" font-family="Times,serif" font-size="14.00">}</text>
</g>
<!-- {
 &#160;&#160;&#160;provide: ListService, useExisting: UserGroupPermissionListService,
}&#45;&gt;UserGroupPermissionListComponent -->
<g id="edge3" class="edge">
<title>{
 &#160;&#160;&#160;provide: ListService, useExisting: UserGroupPermissionListService,
}&#45;&gt;UserGroupPermissionListComponent</title>
<path fill="none" stroke="black" d="M138.05,-122.97C138.05,-122.97 138.05,-150.1 138.05,-150.1"/>
<polygon fill="black" stroke="black" points="134.55,-150.1 138.05,-160.1 141.55,-150.1 134.55,-150.1"/>
</g>
<!-- I18nModule -->
<g id="node5" class="node">
<title>I18nModule</title>
<polygon fill="#8dd3c7" stroke="black" points="780.71,-196.39 777.71,-200.39 756.71,-200.39 753.71,-196.39 695.29,-196.39 695.29,-160.39 780.71,-160.39 780.71,-196.39"/>
<text text-anchor="middle" x="738" y="-174.19" font-family="Times,serif" font-size="14.00">I18nModule</text>
</g>
<!-- I18nModule&#45;&gt;UserGroupPermissionModule -->
<g id="edge4" class="edge">
<title>I18nModule&#45;&gt;UserGroupPermissionModule</title>
<path fill="none" stroke="black" d="M738,-196.5C738,-215.73 738,-243.39 738,-243.39 738,-243.39 620.03,-243.39 620.03,-243.39"/>
<polygon fill="black" stroke="black" points="620.03,-239.89 610.03,-243.39 620.03,-246.89 620.03,-239.89"/>
</g>
<!-- SubListModule -->
<g id="node6" class="node">
<title>SubListModule</title>
<polygon fill="#8dd3c7" stroke="black" points="677.61,-196.39 674.61,-200.39 653.61,-200.39 650.61,-196.39 574.39,-196.39 574.39,-160.39 677.61,-160.39 677.61,-196.39"/>
<text text-anchor="middle" x="626" y="-174.19" font-family="Times,serif" font-size="14.00">SubListModule</text>
</g>
<!-- SubListModule&#45;&gt;UserGroupPermissionModule -->
<g id="edge5" class="edge">
<title>SubListModule&#45;&gt;UserGroupPermissionModule</title>
<path fill="none" stroke="black" d="M592.21,-196.5C592.21,-196.5 592.21,-215.38 592.21,-215.38"/>
<polygon fill="black" stroke="black" points="588.71,-215.38 592.21,-225.38 595.71,-215.38 588.71,-215.38"/>
</g>
</g>
</svg>
