<?xml version="1.0" encoding="UTF-8" standalone="no"?>
<!DOCTYPE svg PUBLIC "-//W3C//DTD SVG 1.1//EN"
 "http://www.w3.org/Graphics/SVG/1.1/DTD/svg11.dtd">
<!-- Generated by graphviz version 2.47.0 (20210316.0004)
 -->
<!-- Title: dependencies Pages: 1 -->
<svg width="1179pt" height="323pt"
 viewBox="0.00 0.00 1179.00 322.59" xmlns="http://www.w3.org/2000/svg" xmlns:xlink="http://www.w3.org/1999/xlink">
<g id="graph0" class="graph" transform="scale(1 1) rotate(0) translate(4 318.59)">
<title>dependencies</title>
<polygon fill="white" stroke="transparent" points="-4,4 -4,-318.59 1175,-318.59 1175,4 -4,4"/>
<text text-anchor="start" x="564.51" y="-42.4" font-family="sans-serif" font-weight="bold" font-size="14.00">Legend</text>
<polygon fill="#ffffb3" stroke="transparent" points="351.5,-10 351.5,-30 371.5,-30 371.5,-10 351.5,-10"/>
<text text-anchor="start" x="375.13" y="-15.4" font-family="sans-serif" font-size="14.00"> &#160;Declarations</text>
<polygon fill="#8dd3c7" stroke="transparent" points="464.5,-10 464.5,-30 484.5,-30 484.5,-10 464.5,-10"/>
<text text-anchor="start" x="488.23" y="-15.4" font-family="sans-serif" font-size="14.00"> &#160;Module</text>
<polygon fill="#80b1d3" stroke="transparent" points="550.5,-10 550.5,-30 570.5,-30 570.5,-10 550.5,-10"/>
<text text-anchor="start" x="574.28" y="-15.4" font-family="sans-serif" font-size="14.00"> &#160;Bootstrap</text>
<polygon fill="#fdb462" stroke="transparent" points="647.5,-10 647.5,-30 667.5,-30 667.5,-10 647.5,-10"/>
<text text-anchor="start" x="671.17" y="-15.4" font-family="sans-serif" font-size="14.00"> &#160;Providers</text>
<polygon fill="#fb8072" stroke="transparent" points="743.5,-10 743.5,-30 763.5,-30 763.5,-10 743.5,-10"/>
<text text-anchor="start" x="767.23" y="-15.4" font-family="sans-serif" font-size="14.00"> &#160;Exports</text>
<g id="clust1" class="cluster">
<title>cluster_UserGroupPermissionModule</title>
<polygon fill="none" stroke="black" stroke-dasharray="1,5" points="8,-70 8,-306.59 1163,-306.59 1163,-70 8,-70"/>
</g>
<g id="clust5" class="cluster">
<title>cluster_UserGroupPermissionModule_imports</title>
<polygon fill="none" stroke="black" points="932,-189.59 932,-241.59 1155,-241.59 1155,-189.59 932,-189.59"/>
</g>
<g id="clust4" class="cluster">
<title>cluster_UserGroupPermissionModule_UserGroupPermissionListComponent_providers</title>
<polygon fill="none" stroke="black" points="320,-78 320,-241.59 924,-241.59 924,-78 320,-78"/>
</g>
<g id="clust2" class="cluster">
<title>cluster_UserGroupPermissionModule_declarations</title>
<polygon fill="none" stroke="black" points="16,-189.59 16,-241.59 312,-241.59 312,-189.59 16,-189.59"/>
</g>
<!-- UserGroupAssignedPermissionListComponent -->
<g id="node1" class="node">
<title>UserGroupAssignedPermissionListComponent</title>
<polygon fill="#ffffb3" stroke="black" points="303.62,-233.59 24.38,-233.59 24.38,-197.59 303.62,-197.59 303.62,-233.59"/>
<text text-anchor="middle" x="164" y="-211.39" font-family="Times,serif" font-size="14.00">UserGroupAssignedPermissionListComponent</text>
</g>
<!-- UserGroupPermissionModule -->
<g id="node3" class="node">
<title>UserGroupPermissionModule</title>
<polygon fill="#8dd3c7" stroke="black" points="988.96,-298.59 985.96,-302.59 964.96,-302.59 961.96,-298.59 805.04,-298.59 805.04,-262.59 988.96,-262.59 988.96,-298.59"/>
<text text-anchor="middle" x="897" y="-276.39" font-family="Times,serif" font-size="14.00">UserGroupPermissionModule</text>
</g>
<!-- UserGroupAssignedPermissionListComponent&#45;&gt;UserGroupPermissionModule -->
<g id="edge1" class="edge">
<title>UserGroupAssignedPermissionListComponent&#45;&gt;UserGroupPermissionModule</title>
<path fill="none" stroke="black" d="M164,-233.7C164,-252.93 164,-280.59 164,-280.59 164,-280.59 794.91,-280.59 794.91,-280.59"/>
<polygon fill="black" stroke="black" points="794.91,-284.09 804.91,-280.59 794.91,-277.09 794.91,-284.09"/>
</g>
<!-- UserGroupPermissionListComponent -->
<g id="node2" class="node">
<title>UserGroupPermissionListComponent</title>
<polygon fill="#ffffb3" stroke="black" points="825.52,-233.59 598.48,-233.59 598.48,-197.59 825.52,-197.59 825.52,-233.59"/>
<text text-anchor="middle" x="712" y="-211.39" font-family="Times,serif" font-size="14.00">UserGroupPermissionListComponent</text>
</g>
<!-- UserGroupPermissionListComponent&#45;&gt;UserGroupPermissionModule -->
<g id="edge2" class="edge">
<title>UserGroupPermissionListComponent&#45;&gt;UserGroupPermissionModule</title>
<path fill="none" stroke="black" d="M815.39,-233.7C815.39,-233.7 815.39,-252.58 815.39,-252.58"/>
<polygon fill="black" stroke="black" points="811.89,-252.58 815.39,-262.58 818.89,-252.58 811.89,-252.58"/>
</g>
<!-- {
 &#160;&#160;&#160;provide: ListService, useExisting: UserGroupPermissionListService,
} -->
<g id="node4" class="node">
<title>{
 &#160;&#160;&#160;provide: ListService, useExisting: UserGroupPermissionListService,
}</title>
<ellipse fill="#fdb462" stroke="black" cx="622" cy="-127.3" rx="293.82" ry="41.09"/>
<text text-anchor="middle" x="622" y="-139.9" font-family="Times,serif" font-size="14.00">{</text>
<text text-anchor="middle" x="622" y="-123.1" font-family="Times,serif" font-size="14.00"> &#160;&#160;&#160;provide: ListService, useExisting: UserGroupPermissionListService,</text>
<text text-anchor="middle" x="622" y="-106.3" font-family="Times,serif" font-size="14.00">}</text>
</g>
<!-- {
 &#160;&#160;&#160;provide: ListService, useExisting: UserGroupPermissionListService,
}&#45;&gt;UserGroupPermissionListComponent -->
<g id="edge3" class="edge">
<title>{
 &#160;&#160;&#160;provide: ListService, useExisting: UserGroupPermissionListService,
}&#45;&gt;UserGroupPermissionListComponent</title>
<path fill="none" stroke="black" d="M712,-166.79C712,-166.79 712,-187.33 712,-187.33"/>
<polygon fill="black" stroke="black" points="708.5,-187.33 712,-197.33 715.5,-187.33 708.5,-187.33"/>
</g>
<!-- I18nModule -->
<g id="node5" class="node">
<title>I18nModule</title>
<polygon fill="#8dd3c7" stroke="black" points="1146.71,-233.59 1143.71,-237.59 1122.71,-237.59 1119.71,-233.59 1061.29,-233.59 1061.29,-197.59 1146.71,-197.59 1146.71,-233.59"/>
<text text-anchor="middle" x="1104" y="-211.39" font-family="Times,serif" font-size="14.00">I18nModule</text>
</g>
<!-- I18nModule&#45;&gt;UserGroupPermissionModule -->
<g id="edge4" class="edge">
<title>I18nModule&#45;&gt;UserGroupPermissionModule</title>
<path fill="none" stroke="black" d="M1104,-233.7C1104,-252.93 1104,-280.59 1104,-280.59 1104,-280.59 999,-280.59 999,-280.59"/>
<polygon fill="black" stroke="black" points="999,-277.09 989,-280.59 999,-284.09 999,-277.09"/>
</g>
<!-- SubListModule -->
<g id="node6" class="node">
<title>SubListModule</title>
<polygon fill="#8dd3c7" stroke="black" points="1043.61,-233.59 1040.61,-237.59 1019.61,-237.59 1016.61,-233.59 940.39,-233.59 940.39,-197.59 1043.61,-197.59 1043.61,-233.59"/>
<text text-anchor="middle" x="992" y="-211.39" font-family="Times,serif" font-size="14.00">SubListModule</text>
</g>
<!-- SubListModule&#45;&gt;UserGroupPermissionModule -->
<g id="edge5" class="edge">
<title>SubListModule&#45;&gt;UserGroupPermissionModule</title>
<path fill="none" stroke="black" d="M964.71,-233.7C964.71,-233.7 964.71,-252.58 964.71,-252.58"/>
<polygon fill="black" stroke="black" points="961.21,-252.58 964.71,-262.58 968.21,-252.58 961.21,-252.58"/>
</g>
</g>
</svg>
