<?xml version="1.0" encoding="UTF-8" standalone="no"?>
<!DOCTYPE svg PUBLIC "-//W3C//DTD SVG 1.1//EN"
 "http://www.w3.org/Graphics/SVG/1.1/DTD/svg11.dtd">
<!-- Generated by graphviz version 2.47.3 (20210619.1520)
 -->
<!-- Title: dependencies Pages: 1 -->
<svg width="1179pt" height="285pt"
 viewBox="0.00 0.00 1179.00 285.39" xmlns="http://www.w3.org/2000/svg" xmlns:xlink="http://www.w3.org/1999/xlink">
<g id="graph0" class="graph" transform="scale(1 1) rotate(0) translate(4 281.39)">
<title>dependencies</title>
<polygon fill="white" stroke="transparent" points="-4,4 -4,-281.39 1175,-281.39 1175,4 -4,4"/>
<text text-anchor="middle" x="585.5" y="-8.2" font-family="sans-serif" font-size="14.00">dependencies</text>
<g id="clust1" class="cluster">
<title>cluster_UserGroupPermissionModule</title>
<polygon fill="none" stroke="black" stroke-dasharray="1,5" points="8,-32.8 8,-269.39 1163,-269.39 1163,-32.8 8,-32.8"/>
</g>
<g id="clust5" class="cluster">
<title>cluster_UserGroupPermissionModule_imports</title>
<polygon fill="none" stroke="black" points="932,-152.39 932,-204.39 1155,-204.39 1155,-152.39 932,-152.39"/>
</g>
<g id="clust4" class="cluster">
<title>cluster_UserGroupPermissionModule_UserGroupPermissionListComponent_providers</title>
<polygon fill="none" stroke="black" points="320,-40.8 320,-204.39 924,-204.39 924,-40.8 320,-40.8"/>
</g>
<g id="clust2" class="cluster">
<title>cluster_UserGroupPermissionModule_declarations</title>
<polygon fill="none" stroke="black" points="16,-152.39 16,-204.39 312,-204.39 312,-152.39 16,-152.39"/>
</g>
<!-- UserGroupAssignedPermissionListComponent -->
<g id="node1" class="node">
<title>UserGroupAssignedPermissionListComponent</title>
<polygon fill="#ffffb3" stroke="black" points="303.62,-196.39 24.38,-196.39 24.38,-160.39 303.62,-160.39 303.62,-196.39"/>
<text text-anchor="middle" x="164" y="-174.19" font-family="Times,serif" font-size="14.00">UserGroupAssignedPermissionListComponent</text>
</g>
<!-- UserGroupPermissionModule -->
<g id="node3" class="node">
<title>UserGroupPermissionModule</title>
<polygon fill="#8dd3c7" stroke="black" points="988.96,-261.39 985.96,-265.39 964.96,-265.39 961.96,-261.39 805.04,-261.39 805.04,-225.39 988.96,-225.39 988.96,-261.39"/>
<text text-anchor="middle" x="897" y="-239.19" font-family="Times,serif" font-size="14.00">UserGroupPermissionModule</text>
</g>
<!-- UserGroupAssignedPermissionListComponent&#45;&gt;UserGroupPermissionModule -->
<g id="edge1" class="edge">
<title>UserGroupAssignedPermissionListComponent&#45;&gt;UserGroupPermissionModule</title>
<path fill="none" stroke="black" d="M164,-196.5C164,-215.73 164,-243.39 164,-243.39 164,-243.39 794.91,-243.39 794.91,-243.39"/>
<polygon fill="black" stroke="black" points="794.91,-246.89 804.91,-243.39 794.91,-239.89 794.91,-246.89"/>
</g>
<!-- UserGroupPermissionListComponent -->
<g id="node2" class="node">
<title>UserGroupPermissionListComponent</title>
<polygon fill="#ffffb3" stroke="black" points="825.52,-196.39 598.48,-196.39 598.48,-160.39 825.52,-160.39 825.52,-196.39"/>
<text text-anchor="middle" x="712" y="-174.19" font-family="Times,serif" font-size="14.00">UserGroupPermissionListComponent</text>
</g>
<!-- UserGroupPermissionListComponent&#45;&gt;UserGroupPermissionModule -->
<g id="edge2" class="edge">
<title>UserGroupPermissionListComponent&#45;&gt;UserGroupPermissionModule</title>
<path fill="none" stroke="black" d="M815.39,-196.5C815.39,-196.5 815.39,-215.38 815.39,-215.38"/>
<polygon fill="black" stroke="black" points="811.89,-215.38 815.39,-225.38 818.89,-215.38 811.89,-215.38"/>
</g>
<!-- {
 &#160;&#160;&#160;provide: ListService, useExisting: UserGroupPermissionListService,
} -->
<g id="node4" class="node">
<title>{
 &#160;&#160;&#160;provide: ListService, useExisting: UserGroupPermissionListService,
}</title>
<ellipse fill="#fdb462" stroke="black" cx="622" cy="-90.1" rx="293.82" ry="41.09"/>
<text text-anchor="middle" x="622" y="-102.7" font-family="Times,serif" font-size="14.00">{</text>
<text text-anchor="middle" x="622" y="-85.9" font-family="Times,serif" font-size="14.00"> &#160;&#160;&#160;provide: ListService, useExisting: UserGroupPermissionListService,</text>
<text text-anchor="middle" x="622" y="-69.1" font-family="Times,serif" font-size="14.00">}</text>
</g>
<!-- {
 &#160;&#160;&#160;provide: ListService, useExisting: UserGroupPermissionListService,
}&#45;&gt;UserGroupPermissionListComponent -->
<g id="edge3" class="edge">
<title>{
 &#160;&#160;&#160;provide: ListService, useExisting: UserGroupPermissionListService,
}&#45;&gt;UserGroupPermissionListComponent</title>
<path fill="none" stroke="black" d="M712,-129.59C712,-129.59 712,-150.13 712,-150.13"/>
<polygon fill="black" stroke="black" points="708.5,-150.13 712,-160.13 715.5,-150.13 708.5,-150.13"/>
</g>
<!-- I18nModule -->
<g id="node5" class="node">
<title>I18nModule</title>
<polygon fill="#8dd3c7" stroke="black" points="1146.71,-196.39 1143.71,-200.39 1122.71,-200.39 1119.71,-196.39 1061.29,-196.39 1061.29,-160.39 1146.71,-160.39 1146.71,-196.39"/>
<text text-anchor="middle" x="1104" y="-174.19" font-family="Times,serif" font-size="14.00">I18nModule</text>
</g>
<!-- I18nModule&#45;&gt;UserGroupPermissionModule -->
<g id="edge4" class="edge">
<title>I18nModule&#45;&gt;UserGroupPermissionModule</title>
<path fill="none" stroke="black" d="M1104,-196.5C1104,-215.73 1104,-243.39 1104,-243.39 1104,-243.39 999,-243.39 999,-243.39"/>
<polygon fill="black" stroke="black" points="999,-239.89 989,-243.39 999,-246.89 999,-239.89"/>
</g>
<!-- SubListModule -->
<g id="node6" class="node">
<title>SubListModule</title>
<polygon fill="#8dd3c7" stroke="black" points="1043.61,-196.39 1040.61,-200.39 1019.61,-200.39 1016.61,-196.39 940.39,-196.39 940.39,-160.39 1043.61,-160.39 1043.61,-196.39"/>
<text text-anchor="middle" x="992" y="-174.19" font-family="Times,serif" font-size="14.00">SubListModule</text>
</g>
<!-- SubListModule&#45;&gt;UserGroupPermissionModule -->
<g id="edge5" class="edge">
<title>SubListModule&#45;&gt;UserGroupPermissionModule</title>
<path fill="none" stroke="black" d="M964.71,-196.5C964.71,-196.5 964.71,-215.38 964.71,-215.38"/>
<polygon fill="black" stroke="black" points="961.21,-215.38 964.71,-225.38 968.21,-215.38 961.21,-215.38"/>
</g>
</g>
</svg>
