<?xml version="1.0" encoding="UTF-8" standalone="no"?>
<!DOCTYPE svg PUBLIC "-//W3C//DTD SVG 1.1//EN"
 "http://www.w3.org/Graphics/SVG/1.1/DTD/svg11.dtd">
<!-- Generated by graphviz version 2.47.0 (20210316.0004)
 -->
<!-- Title: dependencies Pages: 1 -->
<svg width="813pt" height="323pt"
 viewBox="0.00 0.00 813.00 322.59" xmlns="http://www.w3.org/2000/svg" xmlns:xlink="http://www.w3.org/1999/xlink">
<g id="graph0" class="graph" transform="scale(1 1) rotate(0) translate(4 318.59)">
<title>dependencies</title>
<polygon fill="white" stroke="transparent" points="-4,4 -4,-318.59 809,-318.59 809,4 -4,4"/>
<text text-anchor="start" x="381.51" y="-42.4" font-family="sans-serif" font-weight="bold" font-size="14.00">Legend</text>
<polygon fill="#ffffb3" stroke="transparent" points="168.5,-10 168.5,-30 188.5,-30 188.5,-10 168.5,-10"/>
<text text-anchor="start" x="192.13" y="-15.4" font-family="sans-serif" font-size="14.00"> &#160;Declarations</text>
<polygon fill="#8dd3c7" stroke="transparent" points="281.5,-10 281.5,-30 301.5,-30 301.5,-10 281.5,-10"/>
<text text-anchor="start" x="305.23" y="-15.4" font-family="sans-serif" font-size="14.00"> &#160;Module</text>
<polygon fill="#80b1d3" stroke="transparent" points="367.5,-10 367.5,-30 387.5,-30 387.5,-10 367.5,-10"/>
<text text-anchor="start" x="391.28" y="-15.4" font-family="sans-serif" font-size="14.00"> &#160;Bootstrap</text>
<polygon fill="#fdb462" stroke="transparent" points="464.5,-10 464.5,-30 484.5,-30 484.5,-10 464.5,-10"/>
<text text-anchor="start" x="488.17" y="-15.4" font-family="sans-serif" font-size="14.00"> &#160;Providers</text>
<polygon fill="#fb8072" stroke="transparent" points="560.5,-10 560.5,-30 580.5,-30 580.5,-10 560.5,-10"/>
<text text-anchor="start" x="584.23" y="-15.4" font-family="sans-serif" font-size="14.00"> &#160;Exports</text>
<g id="clust1" class="cluster">
<title>cluster_UserGroupPermissionModule</title>
<polygon fill="none" stroke="black" stroke-dasharray="1,5" points="8,-70 8,-306.59 797,-306.59 797,-70 8,-70"/>
</g>
<g id="clust2" class="cluster">
<title>cluster_UserGroupPermissionModule_declarations</title>
<polygon fill="none" stroke="black" points="247,-189.59 247,-241.59 789,-241.59 789,-189.59 247,-189.59"/>
</g>
<g id="clust4" class="cluster">
<title>cluster_UserGroupPermissionModule_UserGroupPermissionListComponent_providers</title>
<polygon fill="none" stroke="black" points="67,-78 67,-176.59 671,-176.59 671,-78 67,-78"/>
</g>
<g id="clust5" class="cluster">
<title>cluster_UserGroupPermissionModule_imports</title>
<polygon fill="none" stroke="black" points="16,-189.59 16,-241.59 239,-241.59 239,-189.59 16,-189.59"/>
</g>
<!-- UserGroupAssignedPermissionListComponent -->
<g id="node1" class="node">
<title>UserGroupAssignedPermissionListComponent</title>
<polygon fill="#ffffb3" stroke="black" points="780.62,-233.59 501.38,-233.59 501.38,-197.59 780.62,-197.59 780.62,-233.59"/>
<text text-anchor="middle" x="641" y="-211.39" font-family="Times,serif" font-size="14.00">UserGroupAssignedPermissionListComponent</text>
</g>
<!-- UserGroupPermissionModule -->
<g id="node3" class="node">
<title>UserGroupPermissionModule</title>
<polygon fill="#8dd3c7" stroke="black" points="369.96,-298.59 366.96,-302.59 345.96,-302.59 342.96,-298.59 186.04,-298.59 186.04,-262.59 369.96,-262.59 369.96,-298.59"/>
<text text-anchor="middle" x="278" y="-276.39" font-family="Times,serif" font-size="14.00">UserGroupPermissionModule</text>
</g>
<!-- UserGroupAssignedPermissionListComponent&#45;&gt;UserGroupPermissionModule -->
<g id="edge1" class="edge">
<title>UserGroupAssignedPermissionListComponent&#45;&gt;UserGroupPermissionModule</title>
<path fill="none" stroke="black" d="M641,-233.7C641,-252.93 641,-280.59 641,-280.59 641,-280.59 380.07,-280.59 380.07,-280.59"/>
<polygon fill="black" stroke="black" points="380.07,-277.09 370.07,-280.59 380.07,-284.09 380.07,-277.09"/>
</g>
<!-- UserGroupPermissionListComponent -->
<g id="node2" class="node">
<title>UserGroupPermissionListComponent</title>
<polygon fill="#ffffb3" stroke="black" points="482.52,-233.59 255.48,-233.59 255.48,-197.59 482.52,-197.59 482.52,-233.59"/>
<text text-anchor="middle" x="369" y="-211.39" font-family="Times,serif" font-size="14.00">UserGroupPermissionListComponent</text>
</g>
<!-- UserGroupPermissionListComponent&#45;&gt;UserGroupPermissionModule -->
<g id="edge2" class="edge">
<title>UserGroupPermissionListComponent&#45;&gt;UserGroupPermissionModule</title>
<path fill="none" stroke="black" d="M312.61,-233.7C312.61,-233.7 312.61,-252.58 312.61,-252.58"/>
<polygon fill="black" stroke="black" points="309.11,-252.58 312.61,-262.58 316.11,-252.58 309.11,-252.58"/>
</g>
<!-- {
 &#160;&#160;&#160;provide: ListService, useExisting: UserGroupPermissionListService,
} -->
<g id="node4" class="node">
<title>{
 &#160;&#160;&#160;provide: ListService, useExisting: UserGroupPermissionListService,
}</title>
<ellipse fill="#fdb462" stroke="black" cx="369" cy="-127.3" rx="293.82" ry="41.09"/>
<text text-anchor="middle" x="369" y="-139.9" font-family="Times,serif" font-size="14.00">{</text>
<text text-anchor="middle" x="369" y="-123.1" font-family="Times,serif" font-size="14.00"> &#160;&#160;&#160;provide: ListService, useExisting: UserGroupPermissionListService,</text>
<text text-anchor="middle" x="369" y="-106.3" font-family="Times,serif" font-size="14.00">}</text>
</g>
<!-- {
 &#160;&#160;&#160;provide: ListService, useExisting: UserGroupPermissionListService,
}&#45;&gt;UserGroupPermissionListComponent -->
<g id="edge3" class="edge">
<title>{
 &#160;&#160;&#160;provide: ListService, useExisting: UserGroupPermissionListService,
}&#45;&gt;UserGroupPermissionListComponent</title>
<path fill="none" stroke="black" d="M369,-168.6C369,-168.6 369,-187.26 369,-187.26"/>
<polygon fill="black" stroke="black" points="365.5,-187.26 369,-197.26 372.5,-187.26 365.5,-187.26"/>
</g>
<!-- I18nModule -->
<g id="node5" class="node">
<title>I18nModule</title>
<polygon fill="#8dd3c7" stroke="black" points="230.71,-233.59 227.71,-237.59 206.71,-237.59 203.71,-233.59 145.29,-233.59 145.29,-197.59 230.71,-197.59 230.71,-233.59"/>
<text text-anchor="middle" x="188" y="-211.39" font-family="Times,serif" font-size="14.00">I18nModule</text>
</g>
<!-- I18nModule&#45;&gt;UserGroupPermissionModule -->
<g id="edge4" class="edge">
<title>I18nModule&#45;&gt;UserGroupPermissionModule</title>
<path fill="none" stroke="black" d="M208.31,-233.7C208.31,-233.7 208.31,-252.58 208.31,-252.58"/>
<polygon fill="black" stroke="black" points="204.81,-252.58 208.31,-262.58 211.81,-252.58 204.81,-252.58"/>
</g>
<!-- SubListModule -->
<g id="node6" class="node">
<title>SubListModule</title>
<polygon fill="#8dd3c7" stroke="black" points="127.61,-233.59 124.61,-237.59 103.61,-237.59 100.61,-233.59 24.39,-233.59 24.39,-197.59 127.61,-197.59 127.61,-233.59"/>
<text text-anchor="middle" x="76" y="-211.39" font-family="Times,serif" font-size="14.00">SubListModule</text>
</g>
<!-- SubListModule&#45;&gt;UserGroupPermissionModule -->
<g id="edge5" class="edge">
<title>SubListModule&#45;&gt;UserGroupPermissionModule</title>
<path fill="none" stroke="black" d="M76,-233.7C76,-252.93 76,-280.59 76,-280.59 76,-280.59 175.87,-280.59 175.87,-280.59"/>
<polygon fill="black" stroke="black" points="175.87,-284.09 185.87,-280.59 175.87,-277.09 175.87,-284.09"/>
</g>
</g>
</svg>
