<?xml version="1.0" encoding="UTF-8" standalone="no"?>
<!DOCTYPE svg PUBLIC "-//W3C//DTD SVG 1.1//EN"
 "http://www.w3.org/Graphics/SVG/1.1/DTD/svg11.dtd">
<!-- Generated by graphviz version 2.47.3 (20210619.1520)
 -->
<!-- Title: dependencies Pages: 1 -->
<svg width="813pt" height="174pt"
 viewBox="0.00 0.00 813.00 173.80" xmlns="http://www.w3.org/2000/svg" xmlns:xlink="http://www.w3.org/1999/xlink">
<g id="graph0" class="graph" transform="scale(1 1) rotate(0) translate(4 169.8)">
<title>dependencies</title>
<polygon fill="white" stroke="transparent" points="-4,4 -4,-169.8 809,-169.8 809,4 -4,4"/>
<text text-anchor="middle" x="402.5" y="-8.2" font-family="sans-serif" font-size="14.00">dependencies</text>
<g id="clust1" class="cluster">
<title>cluster_UserGroupPermissionModule</title>
<polygon fill="none" stroke="black" stroke-dasharray="1,5" points="8,-32.8 8,-157.8 797,-157.8 797,-32.8 8,-32.8"/>
</g>
<g id="clust2" class="cluster">
<title>cluster_UserGroupPermissionModule_declarations</title>
<polygon fill="none" stroke="black" points="247,-40.8 247,-92.8 789,-92.8 789,-40.8 247,-40.8"/>
</g>
<g id="clust5" class="cluster">
<title>cluster_UserGroupPermissionModule_imports</title>
<polygon fill="none" stroke="black" points="16,-40.8 16,-92.8 239,-92.8 239,-40.8 16,-40.8"/>
</g>
<!-- UserGroupAssignedPermissionListComponent -->
<g id="node1" class="node">
<title>UserGroupAssignedPermissionListComponent</title>
<polygon fill="#ffffb3" stroke="black" points="780.62,-84.8 501.38,-84.8 501.38,-48.8 780.62,-48.8 780.62,-84.8"/>
<text text-anchor="middle" x="641" y="-62.6" font-family="Times,serif" font-size="14.00">UserGroupAssignedPermissionListComponent</text>
</g>
<!-- UserGroupPermissionModule -->
<g id="node3" class="node">
<title>UserGroupPermissionModule</title>
<polygon fill="#8dd3c7" stroke="black" points="369.96,-149.8 366.96,-153.8 345.96,-153.8 342.96,-149.8 186.04,-149.8 186.04,-113.8 369.96,-113.8 369.96,-149.8"/>
<text text-anchor="middle" x="278" y="-127.6" font-family="Times,serif" font-size="14.00">UserGroupPermissionModule</text>
</g>
<!-- UserGroupAssignedPermissionListComponent&#45;&gt;UserGroupPermissionModule -->
<g id="edge1" class="edge">
<title>UserGroupAssignedPermissionListComponent&#45;&gt;UserGroupPermissionModule</title>
<path fill="none" stroke="black" d="M641,-84.91C641,-104.14 641,-131.8 641,-131.8 641,-131.8 380.07,-131.8 380.07,-131.8"/>
<polygon fill="black" stroke="black" points="380.07,-128.3 370.07,-131.8 380.07,-135.3 380.07,-128.3"/>
</g>
<!-- UserGroupPermissionListComponent -->
<g id="node2" class="node">
<title>UserGroupPermissionListComponent</title>
<polygon fill="#ffffb3" stroke="black" points="482.52,-84.8 255.48,-84.8 255.48,-48.8 482.52,-48.8 482.52,-84.8"/>
<text text-anchor="middle" x="369" y="-62.6" font-family="Times,serif" font-size="14.00">UserGroupPermissionListComponent</text>
</g>
<!-- UserGroupPermissionListComponent&#45;&gt;UserGroupPermissionModule -->
<g id="edge2" class="edge">
<title>UserGroupPermissionListComponent&#45;&gt;UserGroupPermissionModule</title>
<path fill="none" stroke="black" d="M312.61,-84.91C312.61,-84.91 312.61,-103.79 312.61,-103.79"/>
<polygon fill="black" stroke="black" points="309.11,-103.79 312.61,-113.79 316.11,-103.79 309.11,-103.79"/>
</g>
<!-- I18nModule -->
<g id="node4" class="node">
<title>I18nModule</title>
<polygon fill="#8dd3c7" stroke="black" points="230.71,-84.8 227.71,-88.8 206.71,-88.8 203.71,-84.8 145.29,-84.8 145.29,-48.8 230.71,-48.8 230.71,-84.8"/>
<text text-anchor="middle" x="188" y="-62.6" font-family="Times,serif" font-size="14.00">I18nModule</text>
</g>
<!-- I18nModule&#45;&gt;UserGroupPermissionModule -->
<g id="edge3" class="edge">
<title>I18nModule&#45;&gt;UserGroupPermissionModule</title>
<path fill="none" stroke="black" d="M208.31,-84.91C208.31,-84.91 208.31,-103.79 208.31,-103.79"/>
<polygon fill="black" stroke="black" points="204.81,-103.79 208.31,-113.79 211.81,-103.79 204.81,-103.79"/>
</g>
<!-- SubListModule -->
<g id="node5" class="node">
<title>SubListModule</title>
<polygon fill="#8dd3c7" stroke="black" points="127.61,-84.8 124.61,-88.8 103.61,-88.8 100.61,-84.8 24.39,-84.8 24.39,-48.8 127.61,-48.8 127.61,-84.8"/>
<text text-anchor="middle" x="76" y="-62.6" font-family="Times,serif" font-size="14.00">SubListModule</text>
</g>
<!-- SubListModule&#45;&gt;UserGroupPermissionModule -->
<g id="edge4" class="edge">
<title>SubListModule&#45;&gt;UserGroupPermissionModule</title>
<path fill="none" stroke="black" d="M76,-84.91C76,-104.14 76,-131.8 76,-131.8 76,-131.8 175.87,-131.8 175.87,-131.8"/>
<polygon fill="black" stroke="black" points="175.87,-135.3 185.87,-131.8 175.87,-128.3 175.87,-135.3"/>
</g>
</g>
</svg>
