<?xml version="1.0" encoding="UTF-8" standalone="no"?>
<!DOCTYPE svg PUBLIC "-//W3C//DTD SVG 1.1//EN"
 "http://www.w3.org/Graphics/SVG/1.1/DTD/svg11.dtd">
<!-- Generated by graphviz version 2.47.3 (20210619.1520)
 -->
<!-- Title: dependencies Pages: 1 -->
<svg width="821pt" height="174pt"
 viewBox="0.00 0.00 821.00 173.80" xmlns="http://www.w3.org/2000/svg" xmlns:xlink="http://www.w3.org/1999/xlink">
<g id="graph0" class="graph" transform="scale(1 1) rotate(0) translate(4 169.8)">
<title>dependencies</title>
<polygon fill="white" stroke="transparent" points="-4,4 -4,-169.8 817,-169.8 817,4 -4,4"/>
<text text-anchor="middle" x="406.5" y="-8.2" font-family="sans-serif" font-size="14.00">dependencies</text>
<g id="clust1" class="cluster">
<title>cluster_ImportExportModule</title>
<polygon fill="none" stroke="black" stroke-dasharray="1,5" points="8,-32.8 8,-157.8 805,-157.8 805,-32.8 8,-32.8"/>
</g>
<g id="clust3" class="cluster">
<title>cluster_ImportExportModule_imports</title>
<polygon fill="none" stroke="black" points="16,-40.8 16,-92.8 797,-92.8 797,-40.8 16,-40.8"/>
</g>
<!-- ExportOrderEntriesModule -->
<g id="node1" class="node">
<title>ExportOrderEntriesModule</title>
<polygon fill="#8dd3c7" stroke="black" points="788.95,-84.8 785.95,-88.8 764.95,-88.8 761.95,-84.8 619.05,-84.8 619.05,-48.8 788.95,-48.8 788.95,-84.8"/>
<text text-anchor="middle" x="704" y="-62.6" font-family="Times,serif" font-size="14.00">ExportOrderEntriesModule</text>
</g>
<!-- ImportExportModule -->
<g id="node5" class="node">
<title>ImportExportModule</title>
<polygon fill="#8dd3c7" stroke="black" points="485.76,-149.8 482.76,-153.8 461.76,-153.8 458.76,-149.8 350.24,-149.8 350.24,-113.8 485.76,-113.8 485.76,-149.8"/>
<text text-anchor="middle" x="418" y="-127.6" font-family="Times,serif" font-size="14.00">ImportExportModule</text>
</g>
<!-- ExportOrderEntriesModule&#45;&gt;ImportExportModule -->
<g id="edge1" class="edge">
<title>ExportOrderEntriesModule&#45;&gt;ImportExportModule</title>
<path fill="none" stroke="black" d="M704,-84.91C704,-104.14 704,-131.8 704,-131.8 704,-131.8 495.78,-131.8 495.78,-131.8"/>
<polygon fill="black" stroke="black" points="495.78,-128.3 485.78,-131.8 495.78,-135.3 495.78,-128.3"/>
</g>
<!-- ImportExportCoreModule -->
<g id="node2" class="node">
<title>ImportExportCoreModule</title>
<polygon fill="#8dd3c7" stroke="black" points="601.47,-84.8 598.47,-88.8 577.47,-88.8 574.47,-84.8 438.53,-84.8 438.53,-48.8 601.47,-48.8 601.47,-84.8"/>
<text text-anchor="middle" x="520" y="-62.6" font-family="Times,serif" font-size="14.00">ImportExportCoreModule</text>
</g>
<!-- ImportExportCoreModule&#45;&gt;ImportExportModule -->
<g id="edge2" class="edge">
<title>ImportExportCoreModule&#45;&gt;ImportExportModule</title>
<path fill="none" stroke="black" d="M462.2,-84.91C462.2,-84.91 462.2,-103.79 462.2,-103.79"/>
<polygon fill="black" stroke="black" points="458.7,-103.79 462.2,-113.79 465.7,-103.79 458.7,-103.79"/>
</g>
<!-- ImportExportOrderEntriesModule -->
<g id="node3" class="node">
<title>ImportExportOrderEntriesModule</title>
<polygon fill="#8dd3c7" stroke="black" points="420.05,-84.8 417.05,-88.8 396.05,-88.8 393.05,-84.8 211.95,-84.8 211.95,-48.8 420.05,-48.8 420.05,-84.8"/>
<text text-anchor="middle" x="316" y="-62.6" font-family="Times,serif" font-size="14.00">ImportExportOrderEntriesModule</text>
</g>
<!-- ImportExportOrderEntriesModule&#45;&gt;ImportExportModule -->
<g id="edge3" class="edge">
<title>ImportExportOrderEntriesModule&#45;&gt;ImportExportModule</title>
<path fill="none" stroke="black" d="M385.07,-84.91C385.07,-84.91 385.07,-103.79 385.07,-103.79"/>
<polygon fill="black" stroke="black" points="381.57,-103.79 385.07,-113.79 388.57,-103.79 381.57,-103.79"/>
</g>
<!-- ImportOrderEntriesModule -->
<g id="node4" class="node">
<title>ImportOrderEntriesModule</title>
<polygon fill="#8dd3c7" stroke="black" points="193.95,-84.8 190.95,-88.8 169.95,-88.8 166.95,-84.8 24.05,-84.8 24.05,-48.8 193.95,-48.8 193.95,-84.8"/>
<text text-anchor="middle" x="109" y="-62.6" font-family="Times,serif" font-size="14.00">ImportOrderEntriesModule</text>
</g>
<!-- ImportOrderEntriesModule&#45;&gt;ImportExportModule -->
<g id="edge4" class="edge">
<title>ImportOrderEntriesModule&#45;&gt;ImportExportModule</title>
<path fill="none" stroke="black" d="M109,-84.91C109,-104.14 109,-131.8 109,-131.8 109,-131.8 340.19,-131.8 340.19,-131.8"/>
<polygon fill="black" stroke="black" points="340.19,-135.3 350.19,-131.8 340.19,-128.3 340.19,-135.3"/>
</g>
</g>
</svg>
