<?xml version="1.0" encoding="UTF-8" standalone="no"?>
<!DOCTYPE svg PUBLIC "-//W3C//DTD SVG 1.1//EN"
 "http://www.w3.org/Graphics/SVG/1.1/DTD/svg11.dtd">
<!-- Generated by graphviz version 2.47.0 (20210316.0004)
 -->
<!-- Title: dependencies Pages: 1 -->
<svg width="869pt" height="323pt"
 viewBox="0.00 0.00 869.00 322.59" xmlns="http://www.w3.org/2000/svg" xmlns:xlink="http://www.w3.org/1999/xlink">
<g id="graph0" class="graph" transform="scale(1 1) rotate(0) translate(4 318.59)">
<title>dependencies</title>
<polygon fill="white" stroke="transparent" points="-4,4 -4,-318.59 865,-318.59 865,4 -4,4"/>
<text text-anchor="start" x="409.51" y="-42.4" font-family="sans-serif" font-weight="bold" font-size="14.00">Legend</text>
<polygon fill="#ffffb3" stroke="transparent" points="196.5,-10 196.5,-30 216.5,-30 216.5,-10 196.5,-10"/>
<text text-anchor="start" x="220.13" y="-15.4" font-family="sans-serif" font-size="14.00"> &#160;Declarations</text>
<polygon fill="#8dd3c7" stroke="transparent" points="309.5,-10 309.5,-30 329.5,-30 329.5,-10 309.5,-10"/>
<text text-anchor="start" x="333.23" y="-15.4" font-family="sans-serif" font-size="14.00"> &#160;Module</text>
<polygon fill="#80b1d3" stroke="transparent" points="395.5,-10 395.5,-30 415.5,-30 415.5,-10 395.5,-10"/>
<text text-anchor="start" x="419.28" y="-15.4" font-family="sans-serif" font-size="14.00"> &#160;Bootstrap</text>
<polygon fill="#fdb462" stroke="transparent" points="492.5,-10 492.5,-30 512.5,-30 512.5,-10 492.5,-10"/>
<text text-anchor="start" x="516.17" y="-15.4" font-family="sans-serif" font-size="14.00"> &#160;Providers</text>
<polygon fill="#fb8072" stroke="transparent" points="588.5,-10 588.5,-30 608.5,-30 608.5,-10 588.5,-10"/>
<text text-anchor="start" x="612.23" y="-15.4" font-family="sans-serif" font-size="14.00"> &#160;Exports</text>
<g id="clust1" class="cluster">
<title>cluster_CostCenterBudgetListModule</title>
<polygon fill="none" stroke="black" stroke-dasharray="1,5" points="8,-70 8,-306.59 853,-306.59 853,-70 8,-70"/>
</g>
<g id="clust2" class="cluster">
<title>cluster_CostCenterBudgetListModule_declarations</title>
<polygon fill="none" stroke="black" points="16,-189.59 16,-241.59 515,-241.59 515,-189.59 16,-189.59"/>
</g>
<g id="clust5" class="cluster">
<title>cluster_CostCenterBudgetListModule_imports</title>
<polygon fill="none" stroke="black" points="523,-189.59 523,-241.59 845,-241.59 845,-189.59 523,-189.59"/>
</g>
<g id="clust4" class="cluster">
<title>cluster_CostCenterBudgetListModule_CostCenterBudgetListComponent_providers</title>
<polygon fill="none" stroke="black" points="16,-78 16,-176.59 590,-176.59 590,-78 16,-78"/>
</g>
<!-- CostCenterAssignedBudgetListComponent -->
<g id="node1" class="node">
<title>CostCenterAssignedBudgetListComponent</title>
<polygon fill="#ffffb3" stroke="black" points="507.14,-233.59 248.86,-233.59 248.86,-197.59 507.14,-197.59 507.14,-233.59"/>
<text text-anchor="middle" x="378" y="-211.39" font-family="Times,serif" font-size="14.00">CostCenterAssignedBudgetListComponent</text>
</g>
<!-- CostCenterBudgetListModule -->
<g id="node3" class="node">
<title>CostCenterBudgetListModule</title>
<polygon fill="#8dd3c7" stroke="black" points="675.26,-298.59 672.26,-302.59 651.26,-302.59 648.26,-298.59 490.74,-298.59 490.74,-262.59 675.26,-262.59 675.26,-298.59"/>
<text text-anchor="middle" x="583" y="-276.39" font-family="Times,serif" font-size="14.00">CostCenterBudgetListModule</text>
</g>
<!-- CostCenterAssignedBudgetListComponent&#45;&gt;CostCenterBudgetListModule -->
<g id="edge1" class="edge">
<title>CostCenterAssignedBudgetListComponent&#45;&gt;CostCenterBudgetListModule</title>
<path fill="none" stroke="black" d="M498.97,-233.7C498.97,-233.7 498.97,-252.58 498.97,-252.58"/>
<polygon fill="black" stroke="black" points="495.47,-252.58 498.97,-262.58 502.47,-252.58 495.47,-252.58"/>
</g>
<!-- CostCenterBudgetListComponent -->
<g id="node2" class="node">
<title>CostCenterBudgetListComponent</title>
<polygon fill="#ffffb3" stroke="black" points="230.04,-233.59 23.96,-233.59 23.96,-197.59 230.04,-197.59 230.04,-233.59"/>
<text text-anchor="middle" x="127" y="-211.39" font-family="Times,serif" font-size="14.00">CostCenterBudgetListComponent</text>
</g>
<!-- CostCenterBudgetListComponent&#45;&gt;CostCenterBudgetListModule -->
<g id="edge2" class="edge">
<title>CostCenterBudgetListComponent&#45;&gt;CostCenterBudgetListModule</title>
<path fill="none" stroke="black" d="M127,-233.7C127,-252.93 127,-280.59 127,-280.59 127,-280.59 480.72,-280.59 480.72,-280.59"/>
<polygon fill="black" stroke="black" points="480.72,-284.09 490.72,-280.59 480.72,-277.09 480.72,-284.09"/>
</g>
<!-- {
 &#160;&#160;&#160;provide: ListService, useExisting: CostCenterBudgetListService,
} -->
<g id="node4" class="node">
<title>{
 &#160;&#160;&#160;provide: ListService, useExisting: CostCenterBudgetListService,
}</title>
<ellipse fill="#fdb462" stroke="black" cx="303" cy="-127.3" rx="278.65" ry="41.09"/>
<text text-anchor="middle" x="303" y="-139.9" font-family="Times,serif" font-size="14.00">{</text>
<text text-anchor="middle" x="303" y="-123.1" font-family="Times,serif" font-size="14.00"> &#160;&#160;&#160;provide: ListService, useExisting: CostCenterBudgetListService,</text>
<text text-anchor="middle" x="303" y="-106.3" font-family="Times,serif" font-size="14.00">}</text>
</g>
<!-- {
 &#160;&#160;&#160;provide: ListService, useExisting: CostCenterBudgetListService,
}&#45;&gt;CostCenterBudgetListComponent -->
<g id="edge3" class="edge">
<title>{
 &#160;&#160;&#160;provide: ListService, useExisting: CostCenterBudgetListService,
}&#45;&gt;CostCenterBudgetListComponent</title>
<path fill="none" stroke="black" d="M127.22,-159.42C127.22,-159.42 127.22,-187.48 127.22,-187.48"/>
<polygon fill="black" stroke="black" points="123.72,-187.48 127.22,-197.48 130.72,-187.48 123.72,-187.48"/>
</g>
<!-- I18nModule -->
<g id="node5" class="node">
<title>I18nModule</title>
<polygon fill="#8dd3c7" stroke="black" points="836.71,-233.59 833.71,-237.59 812.71,-237.59 809.71,-233.59 751.29,-233.59 751.29,-197.59 836.71,-197.59 836.71,-233.59"/>
<text text-anchor="middle" x="794" y="-211.39" font-family="Times,serif" font-size="14.00">I18nModule</text>
</g>
<!-- I18nModule&#45;&gt;CostCenterBudgetListModule -->
<g id="edge4" class="edge">
<title>I18nModule&#45;&gt;CostCenterBudgetListModule</title>
<path fill="none" stroke="black" d="M794,-233.7C794,-252.93 794,-280.59 794,-280.59 794,-280.59 685.55,-280.59 685.55,-280.59"/>
<polygon fill="black" stroke="black" points="685.55,-277.09 675.55,-280.59 685.55,-284.09 685.55,-277.09"/>
</g>
<!-- ListModule -->
<g id="node6" class="node">
<title>ListModule</title>
<polygon fill="#8dd3c7" stroke="black" points="733.83,-233.59 730.83,-237.59 709.83,-237.59 706.83,-233.59 652.17,-233.59 652.17,-197.59 733.83,-197.59 733.83,-233.59"/>
<text text-anchor="middle" x="693" y="-211.39" font-family="Times,serif" font-size="14.00">ListModule</text>
</g>
<!-- ListModule&#45;&gt;CostCenterBudgetListModule -->
<g id="edge5" class="edge">
<title>ListModule&#45;&gt;CostCenterBudgetListModule</title>
<path fill="none" stroke="black" d="M663.86,-233.7C663.86,-233.7 663.86,-252.58 663.86,-252.58"/>
<polygon fill="black" stroke="black" points="660.36,-252.58 663.86,-262.58 667.36,-252.58 660.36,-252.58"/>
</g>
<!-- SubListModule -->
<g id="node7" class="node">
<title>SubListModule</title>
<polygon fill="#8dd3c7" stroke="black" points="634.61,-233.59 631.61,-237.59 610.61,-237.59 607.61,-233.59 531.39,-233.59 531.39,-197.59 634.61,-197.59 634.61,-233.59"/>
<text text-anchor="middle" x="583" y="-211.39" font-family="Times,serif" font-size="14.00">SubListModule</text>
</g>
<!-- SubListModule&#45;&gt;CostCenterBudgetListModule -->
<g id="edge6" class="edge">
<title>SubListModule&#45;&gt;CostCenterBudgetListModule</title>
<path fill="none" stroke="black" d="M583,-233.7C583,-233.7 583,-252.58 583,-252.58"/>
<polygon fill="black" stroke="black" points="579.5,-252.58 583,-262.58 586.5,-252.58 579.5,-252.58"/>
</g>
</g>
</svg>
