<?xml version="1.0" encoding="UTF-8" standalone="no"?>
<!DOCTYPE svg PUBLIC "-//W3C//DTD SVG 1.1//EN"
 "http://www.w3.org/Graphics/SVG/1.1/DTD/svg11.dtd">
<!-- Generated by graphviz version 2.40.1 (20161225.0304)
 -->
<!-- Title: dependencies Pages: 1 -->
<svg width="869pt" height="323pt"
 viewBox="0.00 0.00 869.00 322.59" xmlns="http://www.w3.org/2000/svg" xmlns:xlink="http://www.w3.org/1999/xlink">
<g id="graph0" class="graph" transform="scale(1 1) rotate(0) translate(4 318.5901)">
<title>dependencies</title>
<polygon fill="#ffffff" stroke="transparent" points="-4,4 -4,-318.5901 865,-318.5901 865,4 -4,4"/>
<text text-anchor="start" x="409.5091" y="-42.4" font-family="sans-serif" font-weight="bold" font-size="14.00" fill="#000000">Legend</text>
<polygon fill="#ffffb3" stroke="transparent" points="196.5,-10 196.5,-30 216.5,-30 216.5,-10 196.5,-10"/>
<text text-anchor="start" x="220.129" y="-15.4" font-family="sans-serif" font-size="14.00" fill="#000000"> &#160;Declarations</text>
<polygon fill="#8dd3c7" stroke="transparent" points="309.5,-10 309.5,-30 329.5,-30 329.5,-10 309.5,-10"/>
<text text-anchor="start" x="333.2251" y="-15.4" font-family="sans-serif" font-size="14.00" fill="#000000"> &#160;Module</text>
<polygon fill="#80b1d3" stroke="transparent" points="395.5,-10 395.5,-30 415.5,-30 415.5,-10 395.5,-10"/>
<text text-anchor="start" x="419.2812" y="-15.4" font-family="sans-serif" font-size="14.00" fill="#000000"> &#160;Bootstrap</text>
<polygon fill="#fdb462" stroke="transparent" points="492.5,-10 492.5,-30 512.5,-30 512.5,-10 492.5,-10"/>
<text text-anchor="start" x="516.1732" y="-15.4" font-family="sans-serif" font-size="14.00" fill="#000000"> &#160;Providers</text>
<polygon fill="#fb8072" stroke="transparent" points="588.5,-10 588.5,-30 608.5,-30 608.5,-10 588.5,-10"/>
<text text-anchor="start" x="612.2258" y="-15.4" font-family="sans-serif" font-size="14.00" fill="#000000"> &#160;Exports</text>
<g id="clust1" class="cluster">
<title>cluster_CostCenterBudgetListModule</title>
<polygon fill="none" stroke="#000000" stroke-dasharray="1,5" points="8,-70 8,-306.5901 853,-306.5901 853,-70 8,-70"/>
</g>
<g id="clust2" class="cluster">
<title>cluster_CostCenterBudgetListModule_declarations</title>
<polygon fill="none" stroke="#000000" points="346,-189.5901 346,-241.5901 845,-241.5901 845,-189.5901 346,-189.5901"/>
</g>
<g id="clust4" class="cluster">
<title>cluster_CostCenterBudgetListModule_CostCenterBudgetListComponent_providers</title>
<polygon fill="none" stroke="#000000" points="170,-78 170,-176.5901 744,-176.5901 744,-78 170,-78"/>
</g>
<g id="clust5" class="cluster">
<title>cluster_CostCenterBudgetListModule_imports</title>
<polygon fill="none" stroke="#000000" points="16,-189.5901 16,-241.5901 338,-241.5901 338,-189.5901 16,-189.5901"/>
</g>
<!-- CostCenterAssignedBudgetListComponent -->
<g id="node1" class="node">
<title>CostCenterAssignedBudgetListComponent</title>
<polygon fill="#ffffb3" stroke="#000000" points="837.1426,-233.5901 578.8574,-233.5901 578.8574,-197.5901 837.1426,-197.5901 837.1426,-233.5901"/>
<text text-anchor="middle" x="708" y="-211.3901" font-family="Times,serif" font-size="14.00" fill="#000000">CostCenterAssignedBudgetListComponent</text>
</g>
<!-- CostCenterBudgetListModule -->
<g id="node3" class="node">
<title>CostCenterBudgetListModule</title>
<polygon fill="#8dd3c7" stroke="#000000" points="379.259,-298.5901 376.259,-302.5901 355.259,-302.5901 352.259,-298.5901 194.741,-298.5901 194.741,-262.5901 379.259,-262.5901 379.259,-298.5901"/>
<text text-anchor="middle" x="287" y="-276.3901" font-family="Times,serif" font-size="14.00" fill="#000000">CostCenterBudgetListModule</text>
</g>
<!-- CostCenterAssignedBudgetListComponent&#45;&gt;CostCenterBudgetListModule -->
<g id="edge1" class="edge">
<title>CostCenterAssignedBudgetListComponent&#45;&gt;CostCenterBudgetListModule</title>
<path fill="none" stroke="#000000" d="M708,-233.6962C708,-252.9292 708,-280.5901 708,-280.5901 708,-280.5901 389.3902,-280.5901 389.3902,-280.5901"/>
<polygon fill="#000000" stroke="#000000" points="389.3903,-277.0902 379.3902,-280.5901 389.3902,-284.0902 389.3903,-277.0902"/>
</g>
<!-- CostCenterBudgetListComponent -->
<g id="node2" class="node">
<title>CostCenterBudgetListComponent</title>
<polygon fill="#ffffb3" stroke="#000000" points="560.0419,-233.5901 353.9581,-233.5901 353.9581,-197.5901 560.0419,-197.5901 560.0419,-233.5901"/>
<text text-anchor="middle" x="457" y="-211.3901" font-family="Times,serif" font-size="14.00" fill="#000000">CostCenterBudgetListComponent</text>
</g>
<!-- CostCenterBudgetListComponent&#45;&gt;CostCenterBudgetListModule -->
<g id="edge2" class="edge">
<title>CostCenterBudgetListComponent&#45;&gt;CostCenterBudgetListModule</title>
<path fill="none" stroke="#000000" d="M366.5544,-233.6962C366.5544,-233.6962 366.5544,-252.581 366.5544,-252.581"/>
<polygon fill="#000000" stroke="#000000" points="363.0544,-252.581 366.5544,-262.581 370.0544,-252.5811 363.0544,-252.581"/>
</g>
<!-- {
 &#160;&#160;&#160;provide: ListService, useExisting: CostCenterBudgetListService,
} -->
<g id="node4" class="node">
<title>{
 &#160;&#160;&#160;provide: ListService, useExisting: CostCenterBudgetListService,
}</title>
<ellipse fill="#fdb462" stroke="#000000" cx="457" cy="-127.295" rx="278.6497" ry="41.0911"/>
<text text-anchor="middle" x="457" y="-139.895" font-family="Times,serif" font-size="14.00" fill="#000000">{</text>
<text text-anchor="middle" x="457" y="-123.095" font-family="Times,serif" font-size="14.00" fill="#000000"> &#160;&#160;&#160;provide: ListService, useExisting: CostCenterBudgetListService,</text>
<text text-anchor="middle" x="457" y="-106.295" font-family="Times,serif" font-size="14.00" fill="#000000">}</text>
</g>
<!-- {
 &#160;&#160;&#160;provide: ListService, useExisting: CostCenterBudgetListService,
}&#45;&gt;CostCenterBudgetListComponent -->
<g id="edge3" class="edge">
<title>{
 &#160;&#160;&#160;provide: ListService, useExisting: CostCenterBudgetListService,
}&#45;&gt;CostCenterBudgetListComponent</title>
<path fill="none" stroke="#000000" d="M457,-168.5989C457,-168.5989 457,-187.2551 457,-187.2551"/>
<polygon fill="#000000" stroke="#000000" points="453.5001,-187.255 457,-197.2551 460.5001,-187.2551 453.5001,-187.255"/>
</g>
<!-- I18nModule -->
<g id="node5" class="node">
<title>I18nModule</title>
<polygon fill="#8dd3c7" stroke="#000000" points="329.7107,-233.5901 326.7107,-237.5901 305.7107,-237.5901 302.7107,-233.5901 244.2893,-233.5901 244.2893,-197.5901 329.7107,-197.5901 329.7107,-233.5901"/>
<text text-anchor="middle" x="287" y="-211.3901" font-family="Times,serif" font-size="14.00" fill="#000000">I18nModule</text>
</g>
<!-- I18nModule&#45;&gt;CostCenterBudgetListModule -->
<g id="edge4" class="edge">
<title>I18nModule&#45;&gt;CostCenterBudgetListModule</title>
<path fill="none" stroke="#000000" d="M287,-233.6962C287,-233.6962 287,-252.581 287,-252.581"/>
<polygon fill="#000000" stroke="#000000" points="283.5001,-252.581 287,-262.581 290.5001,-252.5811 283.5001,-252.581"/>
</g>
<!-- ListModule -->
<g id="node6" class="node">
<title>ListModule</title>
<polygon fill="#8dd3c7" stroke="#000000" points="226.8289,-233.5901 223.8289,-237.5901 202.8289,-237.5901 199.8289,-233.5901 145.1711,-233.5901 145.1711,-197.5901 226.8289,-197.5901 226.8289,-233.5901"/>
<text text-anchor="middle" x="186" y="-211.3901" font-family="Times,serif" font-size="14.00" fill="#000000">ListModule</text>
</g>
<!-- ListModule&#45;&gt;CostCenterBudgetListModule -->
<g id="edge5" class="edge">
<title>ListModule&#45;&gt;CostCenterBudgetListModule</title>
<path fill="none" stroke="#000000" d="M210.6424,-233.6962C210.6424,-233.6962 210.6424,-252.581 210.6424,-252.581"/>
<polygon fill="#000000" stroke="#000000" points="207.1424,-252.581 210.6424,-262.581 214.1424,-252.5811 207.1424,-252.581"/>
</g>
<!-- SubListModule -->
<g id="node7" class="node">
<title>SubListModule</title>
<polygon fill="#8dd3c7" stroke="#000000" points="127.6109,-233.5901 124.6109,-237.5901 103.6109,-237.5901 100.6109,-233.5901 24.3891,-233.5901 24.3891,-197.5901 127.6109,-197.5901 127.6109,-233.5901"/>
<text text-anchor="middle" x="76" y="-211.3901" font-family="Times,serif" font-size="14.00" fill="#000000">SubListModule</text>
</g>
<!-- SubListModule&#45;&gt;CostCenterBudgetListModule -->
<g id="edge6" class="edge">
<title>SubListModule&#45;&gt;CostCenterBudgetListModule</title>
<path fill="none" stroke="#000000" d="M76,-233.6962C76,-252.9292 76,-280.5901 76,-280.5901 76,-280.5901 184.4523,-280.5901 184.4523,-280.5901"/>
<polygon fill="#000000" stroke="#000000" points="184.4524,-284.0902 194.4523,-280.5901 184.4523,-277.0902 184.4524,-284.0902"/>
</g>
</g>
</svg>
