<?xml version="1.0" encoding="UTF-8" standalone="no"?>
<!DOCTYPE svg PUBLIC "-//W3C//DTD SVG 1.1//EN"
 "http://www.w3.org/Graphics/SVG/1.1/DTD/svg11.dtd">
<!-- Generated by graphviz version 2.40.1 (20161225.0304)
 -->
<!-- Title: dependencies Pages: 1 -->
<svg width="869pt" height="211pt"
 viewBox="0.00 0.00 869.00 211.00" xmlns="http://www.w3.org/2000/svg" xmlns:xlink="http://www.w3.org/1999/xlink">
<g id="graph0" class="graph" transform="scale(1 1) rotate(0) translate(4 207)">
<title>dependencies</title>
<polygon fill="#ffffff" stroke="transparent" points="-4,4 -4,-207 865,-207 865,4 -4,4"/>
<text text-anchor="start" x="409.5091" y="-42.4" font-family="sans-serif" font-weight="bold" font-size="14.00" fill="#000000">Legend</text>
<polygon fill="#ffffb3" stroke="transparent" points="196.5,-10 196.5,-30 216.5,-30 216.5,-10 196.5,-10"/>
<text text-anchor="start" x="220.129" y="-15.4" font-family="sans-serif" font-size="14.00" fill="#000000"> &#160;Declarations</text>
<polygon fill="#8dd3c7" stroke="transparent" points="309.5,-10 309.5,-30 329.5,-30 329.5,-10 309.5,-10"/>
<text text-anchor="start" x="333.2251" y="-15.4" font-family="sans-serif" font-size="14.00" fill="#000000"> &#160;Module</text>
<polygon fill="#80b1d3" stroke="transparent" points="395.5,-10 395.5,-30 415.5,-30 415.5,-10 395.5,-10"/>
<text text-anchor="start" x="419.2812" y="-15.4" font-family="sans-serif" font-size="14.00" fill="#000000"> &#160;Bootstrap</text>
<polygon fill="#fdb462" stroke="transparent" points="492.5,-10 492.5,-30 512.5,-30 512.5,-10 492.5,-10"/>
<text text-anchor="start" x="516.1732" y="-15.4" font-family="sans-serif" font-size="14.00" fill="#000000"> &#160;Providers</text>
<polygon fill="#fb8072" stroke="transparent" points="588.5,-10 588.5,-30 608.5,-30 608.5,-10 588.5,-10"/>
<text text-anchor="start" x="612.2258" y="-15.4" font-family="sans-serif" font-size="14.00" fill="#000000"> &#160;Exports</text>
<g id="clust1" class="cluster">
<title>cluster_CostCenterBudgetListModule</title>
<polygon fill="none" stroke="#000000" stroke-dasharray="1,5" points="8,-70 8,-195 853,-195 853,-70 8,-70"/>
</g>
<g id="clust2" class="cluster">
<title>cluster_CostCenterBudgetListModule_declarations</title>
<polygon fill="none" stroke="#000000" points="346,-78 346,-130 845,-130 845,-78 346,-78"/>
</g>
<g id="clust5" class="cluster">
<title>cluster_CostCenterBudgetListModule_imports</title>
<polygon fill="none" stroke="#000000" points="16,-78 16,-130 338,-130 338,-78 16,-78"/>
</g>
<!-- CostCenterAssignedBudgetListComponent -->
<g id="node1" class="node">
<title>CostCenterAssignedBudgetListComponent</title>
<polygon fill="#ffffb3" stroke="#000000" points="837.1426,-122 578.8574,-122 578.8574,-86 837.1426,-86 837.1426,-122"/>
<text text-anchor="middle" x="708" y="-99.8" font-family="Times,serif" font-size="14.00" fill="#000000">CostCenterAssignedBudgetListComponent</text>
</g>
<!-- CostCenterBudgetListModule -->
<g id="node3" class="node">
<title>CostCenterBudgetListModule</title>
<polygon fill="#8dd3c7" stroke="#000000" points="379.259,-187 376.259,-191 355.259,-191 352.259,-187 194.741,-187 194.741,-151 379.259,-151 379.259,-187"/>
<text text-anchor="middle" x="287" y="-164.8" font-family="Times,serif" font-size="14.00" fill="#000000">CostCenterBudgetListModule</text>
</g>
<!-- CostCenterAssignedBudgetListComponent&#45;&gt;CostCenterBudgetListModule -->
<g id="edge1" class="edge">
<title>CostCenterAssignedBudgetListComponent&#45;&gt;CostCenterBudgetListModule</title>
<path fill="none" stroke="#000000" d="M708,-122.1061C708,-141.3391 708,-169 708,-169 708,-169 389.3902,-169 389.3902,-169"/>
<polygon fill="#000000" stroke="#000000" points="389.3903,-165.5001 379.3902,-169 389.3902,-172.5001 389.3903,-165.5001"/>
</g>
<!-- CostCenterBudgetListComponent -->
<g id="node2" class="node">
<title>CostCenterBudgetListComponent</title>
<polygon fill="#ffffb3" stroke="#000000" points="560.0419,-122 353.9581,-122 353.9581,-86 560.0419,-86 560.0419,-122"/>
<text text-anchor="middle" x="457" y="-99.8" font-family="Times,serif" font-size="14.00" fill="#000000">CostCenterBudgetListComponent</text>
</g>
<!-- CostCenterBudgetListComponent&#45;&gt;CostCenterBudgetListModule -->
<g id="edge2" class="edge">
<title>CostCenterBudgetListComponent&#45;&gt;CostCenterBudgetListModule</title>
<path fill="none" stroke="#000000" d="M366.5544,-122.1061C366.5544,-122.1061 366.5544,-140.991 366.5544,-140.991"/>
<polygon fill="#000000" stroke="#000000" points="363.0544,-140.9909 366.5544,-150.991 370.0544,-140.991 363.0544,-140.9909"/>
</g>
<!-- I18nModule -->
<g id="node4" class="node">
<title>I18nModule</title>
<polygon fill="#8dd3c7" stroke="#000000" points="329.7107,-122 326.7107,-126 305.7107,-126 302.7107,-122 244.2893,-122 244.2893,-86 329.7107,-86 329.7107,-122"/>
<text text-anchor="middle" x="287" y="-99.8" font-family="Times,serif" font-size="14.00" fill="#000000">I18nModule</text>
</g>
<!-- I18nModule&#45;&gt;CostCenterBudgetListModule -->
<g id="edge3" class="edge">
<title>I18nModule&#45;&gt;CostCenterBudgetListModule</title>
<path fill="none" stroke="#000000" d="M287,-122.1061C287,-122.1061 287,-140.991 287,-140.991"/>
<polygon fill="#000000" stroke="#000000" points="283.5001,-140.9909 287,-150.991 290.5001,-140.991 283.5001,-140.9909"/>
</g>
<!-- ListModule -->
<g id="node5" class="node">
<title>ListModule</title>
<polygon fill="#8dd3c7" stroke="#000000" points="226.8289,-122 223.8289,-126 202.8289,-126 199.8289,-122 145.1711,-122 145.1711,-86 226.8289,-86 226.8289,-122"/>
<text text-anchor="middle" x="186" y="-99.8" font-family="Times,serif" font-size="14.00" fill="#000000">ListModule</text>
</g>
<!-- ListModule&#45;&gt;CostCenterBudgetListModule -->
<g id="edge4" class="edge">
<title>ListModule&#45;&gt;CostCenterBudgetListModule</title>
<path fill="none" stroke="#000000" d="M210.6424,-122.1061C210.6424,-122.1061 210.6424,-140.991 210.6424,-140.991"/>
<polygon fill="#000000" stroke="#000000" points="207.1424,-140.9909 210.6424,-150.991 214.1424,-140.991 207.1424,-140.9909"/>
</g>
<!-- SubListModule -->
<g id="node6" class="node">
<title>SubListModule</title>
<polygon fill="#8dd3c7" stroke="#000000" points="127.6109,-122 124.6109,-126 103.6109,-126 100.6109,-122 24.3891,-122 24.3891,-86 127.6109,-86 127.6109,-122"/>
<text text-anchor="middle" x="76" y="-99.8" font-family="Times,serif" font-size="14.00" fill="#000000">SubListModule</text>
</g>
<!-- SubListModule&#45;&gt;CostCenterBudgetListModule -->
<g id="edge5" class="edge">
<title>SubListModule&#45;&gt;CostCenterBudgetListModule</title>
<path fill="none" stroke="#000000" d="M76,-122.1061C76,-141.3391 76,-169 76,-169 76,-169 184.4523,-169 184.4523,-169"/>
<polygon fill="#000000" stroke="#000000" points="184.4524,-172.5001 194.4523,-169 184.4523,-165.5001 184.4524,-172.5001"/>
</g>
</g>
</svg>
