<?xml version="1.0" encoding="UTF-8" standalone="no"?>
<!DOCTYPE svg PUBLIC "-//W3C//DTD SVG 1.1//EN"
 "http://www.w3.org/Graphics/SVG/1.1/DTD/svg11.dtd">
<!-- Generated by graphviz version 2.47.0 (20210316.0004)
 -->
<!-- Title: dependencies Pages: 1 -->
<svg width="869pt" height="323pt"
 viewBox="0.00 0.00 869.00 322.59" xmlns="http://www.w3.org/2000/svg" xmlns:xlink="http://www.w3.org/1999/xlink">
<g id="graph0" class="graph" transform="scale(1 1) rotate(0) translate(4 318.59)">
<title>dependencies</title>
<polygon fill="white" stroke="transparent" points="-4,4 -4,-318.59 865,-318.59 865,4 -4,4"/>
<text text-anchor="start" x="409.51" y="-42.4" font-family="sans-serif" font-weight="bold" font-size="14.00">Legend</text>
<polygon fill="#ffffb3" stroke="transparent" points="196.5,-10 196.5,-30 216.5,-30 216.5,-10 196.5,-10"/>
<text text-anchor="start" x="220.13" y="-15.4" font-family="sans-serif" font-size="14.00"> &#160;Declarations</text>
<polygon fill="#8dd3c7" stroke="transparent" points="309.5,-10 309.5,-30 329.5,-30 329.5,-10 309.5,-10"/>
<text text-anchor="start" x="333.23" y="-15.4" font-family="sans-serif" font-size="14.00"> &#160;Module</text>
<polygon fill="#80b1d3" stroke="transparent" points="395.5,-10 395.5,-30 415.5,-30 415.5,-10 395.5,-10"/>
<text text-anchor="start" x="419.28" y="-15.4" font-family="sans-serif" font-size="14.00"> &#160;Bootstrap</text>
<polygon fill="#fdb462" stroke="transparent" points="492.5,-10 492.5,-30 512.5,-30 512.5,-10 492.5,-10"/>
<text text-anchor="start" x="516.17" y="-15.4" font-family="sans-serif" font-size="14.00"> &#160;Providers</text>
<polygon fill="#fb8072" stroke="transparent" points="588.5,-10 588.5,-30 608.5,-30 608.5,-10 588.5,-10"/>
<text text-anchor="start" x="612.23" y="-15.4" font-family="sans-serif" font-size="14.00"> &#160;Exports</text>
<g id="clust1" class="cluster">
<title>cluster_CostCenterBudgetListModule</title>
<polygon fill="none" stroke="black" stroke-dasharray="1,5" points="8,-70 8,-306.59 853,-306.59 853,-70 8,-70"/>
</g>
<g id="clust2" class="cluster">
<title>cluster_CostCenterBudgetListModule_declarations</title>
<polygon fill="none" stroke="black" points="346,-189.59 346,-241.59 845,-241.59 845,-189.59 346,-189.59"/>
</g>
<g id="clust4" class="cluster">
<title>cluster_CostCenterBudgetListModule_CostCenterBudgetListComponent_providers</title>
<polygon fill="none" stroke="black" points="170,-78 170,-176.59 744,-176.59 744,-78 170,-78"/>
</g>
<g id="clust5" class="cluster">
<title>cluster_CostCenterBudgetListModule_imports</title>
<polygon fill="none" stroke="black" points="16,-189.59 16,-241.59 338,-241.59 338,-189.59 16,-189.59"/>
</g>
<!-- CostCenterAssignedBudgetListComponent -->
<g id="node1" class="node">
<title>CostCenterAssignedBudgetListComponent</title>
<polygon fill="#ffffb3" stroke="black" points="837.14,-233.59 578.86,-233.59 578.86,-197.59 837.14,-197.59 837.14,-233.59"/>
<text text-anchor="middle" x="708" y="-211.39" font-family="Times,serif" font-size="14.00">CostCenterAssignedBudgetListComponent</text>
</g>
<!-- CostCenterBudgetListModule -->
<g id="node3" class="node">
<title>CostCenterBudgetListModule</title>
<polygon fill="#8dd3c7" stroke="black" points="379.26,-298.59 376.26,-302.59 355.26,-302.59 352.26,-298.59 194.74,-298.59 194.74,-262.59 379.26,-262.59 379.26,-298.59"/>
<text text-anchor="middle" x="287" y="-276.39" font-family="Times,serif" font-size="14.00">CostCenterBudgetListModule</text>
</g>
<!-- CostCenterAssignedBudgetListComponent&#45;&gt;CostCenterBudgetListModule -->
<g id="edge1" class="edge">
<title>CostCenterAssignedBudgetListComponent&#45;&gt;CostCenterBudgetListModule</title>
<path fill="none" stroke="black" d="M708,-233.7C708,-252.93 708,-280.59 708,-280.59 708,-280.59 389.39,-280.59 389.39,-280.59"/>
<polygon fill="black" stroke="black" points="389.39,-277.09 379.39,-280.59 389.39,-284.09 389.39,-277.09"/>
</g>
<!-- CostCenterBudgetListComponent -->
<g id="node2" class="node">
<title>CostCenterBudgetListComponent</title>
<polygon fill="#ffffb3" stroke="black" points="560.04,-233.59 353.96,-233.59 353.96,-197.59 560.04,-197.59 560.04,-233.59"/>
<text text-anchor="middle" x="457" y="-211.39" font-family="Times,serif" font-size="14.00">CostCenterBudgetListComponent</text>
</g>
<!-- CostCenterBudgetListComponent&#45;&gt;CostCenterBudgetListModule -->
<g id="edge2" class="edge">
<title>CostCenterBudgetListComponent&#45;&gt;CostCenterBudgetListModule</title>
<path fill="none" stroke="black" d="M366.55,-233.7C366.55,-233.7 366.55,-252.58 366.55,-252.58"/>
<polygon fill="black" stroke="black" points="363.05,-252.58 366.55,-262.58 370.05,-252.58 363.05,-252.58"/>
</g>
<!-- {
 &#160;&#160;&#160;provide: ListService, useExisting: CostCenterBudgetListService,
} -->
<g id="node4" class="node">
<title>{
 &#160;&#160;&#160;provide: ListService, useExisting: CostCenterBudgetListService,
}</title>
<ellipse fill="#fdb462" stroke="black" cx="457" cy="-127.3" rx="278.65" ry="41.09"/>
<text text-anchor="middle" x="457" y="-139.9" font-family="Times,serif" font-size="14.00">{</text>
<text text-anchor="middle" x="457" y="-123.1" font-family="Times,serif" font-size="14.00"> &#160;&#160;&#160;provide: ListService, useExisting: CostCenterBudgetListService,</text>
<text text-anchor="middle" x="457" y="-106.3" font-family="Times,serif" font-size="14.00">}</text>
</g>
<!-- {
 &#160;&#160;&#160;provide: ListService, useExisting: CostCenterBudgetListService,
}&#45;&gt;CostCenterBudgetListComponent -->
<g id="edge3" class="edge">
<title>{
 &#160;&#160;&#160;provide: ListService, useExisting: CostCenterBudgetListService,
}&#45;&gt;CostCenterBudgetListComponent</title>
<path fill="none" stroke="black" d="M457,-168.6C457,-168.6 457,-187.26 457,-187.26"/>
<polygon fill="black" stroke="black" points="453.5,-187.26 457,-197.26 460.5,-187.26 453.5,-187.26"/>
</g>
<!-- I18nModule -->
<g id="node5" class="node">
<title>I18nModule</title>
<polygon fill="#8dd3c7" stroke="black" points="329.71,-233.59 326.71,-237.59 305.71,-237.59 302.71,-233.59 244.29,-233.59 244.29,-197.59 329.71,-197.59 329.71,-233.59"/>
<text text-anchor="middle" x="287" y="-211.39" font-family="Times,serif" font-size="14.00">I18nModule</text>
</g>
<!-- I18nModule&#45;&gt;CostCenterBudgetListModule -->
<g id="edge4" class="edge">
<title>I18nModule&#45;&gt;CostCenterBudgetListModule</title>
<path fill="none" stroke="black" d="M287,-233.7C287,-233.7 287,-252.58 287,-252.58"/>
<polygon fill="black" stroke="black" points="283.5,-252.58 287,-262.58 290.5,-252.58 283.5,-252.58"/>
</g>
<!-- ListModule -->
<g id="node6" class="node">
<title>ListModule</title>
<polygon fill="#8dd3c7" stroke="black" points="226.83,-233.59 223.83,-237.59 202.83,-237.59 199.83,-233.59 145.17,-233.59 145.17,-197.59 226.83,-197.59 226.83,-233.59"/>
<text text-anchor="middle" x="186" y="-211.39" font-family="Times,serif" font-size="14.00">ListModule</text>
</g>
<!-- ListModule&#45;&gt;CostCenterBudgetListModule -->
<g id="edge5" class="edge">
<title>ListModule&#45;&gt;CostCenterBudgetListModule</title>
<path fill="none" stroke="black" d="M210.64,-233.7C210.64,-233.7 210.64,-252.58 210.64,-252.58"/>
<polygon fill="black" stroke="black" points="207.14,-252.58 210.64,-262.58 214.14,-252.58 207.14,-252.58"/>
</g>
<!-- SubListModule -->
<g id="node7" class="node">
<title>SubListModule</title>
<polygon fill="#8dd3c7" stroke="black" points="127.61,-233.59 124.61,-237.59 103.61,-237.59 100.61,-233.59 24.39,-233.59 24.39,-197.59 127.61,-197.59 127.61,-233.59"/>
<text text-anchor="middle" x="76" y="-211.39" font-family="Times,serif" font-size="14.00">SubListModule</text>
</g>
<!-- SubListModule&#45;&gt;CostCenterBudgetListModule -->
<g id="edge6" class="edge">
<title>SubListModule&#45;&gt;CostCenterBudgetListModule</title>
<path fill="none" stroke="black" d="M76,-233.7C76,-252.93 76,-280.59 76,-280.59 76,-280.59 184.45,-280.59 184.45,-280.59"/>
<polygon fill="black" stroke="black" points="184.45,-284.09 194.45,-280.59 184.45,-277.09 184.45,-284.09"/>
</g>
</g>
</svg>
