<?xml version="1.0" encoding="UTF-8" standalone="no"?>
<!DOCTYPE svg PUBLIC "-//W3C//DTD SVG 1.1//EN"
 "http://www.w3.org/Graphics/SVG/1.1/DTD/svg11.dtd">
<!-- Generated by graphviz version 2.47.3 (20210619.1520)
 -->
<!-- Title: dependencies Pages: 1 -->
<svg width="735pt" height="174pt"
 viewBox="0.00 0.00 735.00 173.80" xmlns="http://www.w3.org/2000/svg" xmlns:xlink="http://www.w3.org/1999/xlink">
<g id="graph0" class="graph" transform="scale(1 1) rotate(0) translate(4 169.8)">
<title>dependencies</title>
<polygon fill="white" stroke="transparent" points="-4,4 -4,-169.8 731,-169.8 731,4 -4,4"/>
<text text-anchor="middle" x="363.5" y="-8.2" font-family="sans-serif" font-size="14.00">dependencies</text>
<g id="clust1" class="cluster">
<title>cluster_CpqConfiguratorRootModule</title>
<polygon fill="none" stroke="black" stroke-dasharray="1,5" points="8,-32.8 8,-157.8 719,-157.8 719,-32.8 8,-32.8"/>
</g>
<g id="clust3" class="cluster">
<title>cluster_CpqConfiguratorRootModule_imports</title>
<polygon fill="none" stroke="black" points="16,-40.8 16,-92.8 711,-92.8 711,-40.8 16,-40.8"/>
</g>
<!-- CpqConfiguratorInteractiveModule -->
<g id="node1" class="node">
<title>CpqConfiguratorInteractiveModule</title>
<polygon fill="#8dd3c7" stroke="black" points="702.55,-84.8 699.55,-88.8 678.55,-88.8 675.55,-84.8 487.45,-84.8 487.45,-48.8 702.55,-48.8 702.55,-84.8"/>
<text text-anchor="middle" x="595" y="-62.6" font-family="Times,serif" font-size="14.00">CpqConfiguratorInteractiveModule</text>
</g>
<!-- CpqConfiguratorRootModule -->
<g id="node4" class="node">
<title>CpqConfiguratorRootModule</title>
<polygon fill="#8dd3c7" stroke="black" points="452.43,-149.8 449.43,-153.8 428.43,-153.8 425.43,-149.8 269.57,-149.8 269.57,-113.8 452.43,-113.8 452.43,-149.8"/>
<text text-anchor="middle" x="361" y="-127.6" font-family="Times,serif" font-size="14.00">CpqConfiguratorRootModule</text>
</g>
<!-- CpqConfiguratorInteractiveModule&#45;&gt;CpqConfiguratorRootModule -->
<g id="edge1" class="edge">
<title>CpqConfiguratorInteractiveModule&#45;&gt;CpqConfiguratorRootModule</title>
<path fill="none" stroke="black" d="M595,-84.91C595,-104.14 595,-131.8 595,-131.8 595,-131.8 462.48,-131.8 462.48,-131.8"/>
<polygon fill="black" stroke="black" points="462.48,-128.3 452.48,-131.8 462.48,-135.3 462.48,-128.3"/>
</g>
<!-- CpqConfiguratorInterceptorModule -->
<g id="node2" class="node">
<title>CpqConfiguratorInterceptorModule</title>
<polygon fill="#8dd3c7" stroke="black" points="469.11,-84.8 466.11,-88.8 445.11,-88.8 442.11,-84.8 252.89,-84.8 252.89,-48.8 469.11,-48.8 469.11,-84.8"/>
<text text-anchor="middle" x="361" y="-62.6" font-family="Times,serif" font-size="14.00">CpqConfiguratorInterceptorModule</text>
</g>
<!-- CpqConfiguratorInterceptorModule&#45;&gt;CpqConfiguratorRootModule -->
<g id="edge2" class="edge">
<title>CpqConfiguratorInterceptorModule&#45;&gt;CpqConfiguratorRootModule</title>
<path fill="none" stroke="black" d="M361,-84.91C361,-84.91 361,-103.79 361,-103.79"/>
<polygon fill="black" stroke="black" points="357.5,-103.79 361,-113.79 364.5,-103.79 357.5,-103.79"/>
</g>
<!-- CpqConfiguratorOverviewModule -->
<g id="node3" class="node">
<title>CpqConfiguratorOverviewModule</title>
<polygon fill="#8dd3c7" stroke="black" points="234.39,-84.8 231.39,-88.8 210.39,-88.8 207.39,-84.8 23.61,-84.8 23.61,-48.8 234.39,-48.8 234.39,-84.8"/>
<text text-anchor="middle" x="129" y="-62.6" font-family="Times,serif" font-size="14.00">CpqConfiguratorOverviewModule</text>
</g>
<!-- CpqConfiguratorOverviewModule&#45;&gt;CpqConfiguratorRootModule -->
<g id="edge3" class="edge">
<title>CpqConfiguratorOverviewModule&#45;&gt;CpqConfiguratorRootModule</title>
<path fill="none" stroke="black" d="M129,-84.91C129,-104.14 129,-131.8 129,-131.8 129,-131.8 259.64,-131.8 259.64,-131.8"/>
<polygon fill="black" stroke="black" points="259.64,-135.3 269.64,-131.8 259.64,-128.3 259.64,-135.3"/>
</g>
</g>
</svg>
