<?xml version="1.0" encoding="UTF-8" standalone="no"?>
<!DOCTYPE svg PUBLIC "-//W3C//DTD SVG 1.1//EN"
 "http://www.w3.org/Graphics/SVG/1.1/DTD/svg11.dtd">
<!-- Generated by graphviz version 2.47.3 (20210619.1520)
 -->
<!-- Title: dependencies Pages: 1 -->
<svg width="428pt" height="247pt"
 viewBox="0.00 0.00 428.00 246.80" xmlns="http://www.w3.org/2000/svg" xmlns:xlink="http://www.w3.org/1999/xlink">
<g id="graph0" class="graph" transform="scale(1 1) rotate(0) translate(4 242.8)">
<title>dependencies</title>
<polygon fill="white" stroke="transparent" points="-4,4 -4,-242.8 424,-242.8 424,4 -4,4"/>
<text text-anchor="middle" x="210" y="-8.2" font-family="sans-serif" font-size="14.00">dependencies</text>
<g id="clust1" class="cluster">
<title>cluster_ConfiguratorConflictDescriptionModule</title>
<polygon fill="none" stroke="black" stroke-dasharray="1,5" points="8,-32.8 8,-230.8 412,-230.8 412,-32.8 8,-32.8"/>
</g>
<g id="clust2" class="cluster">
<title>cluster_ConfiguratorConflictDescriptionModule_declarations</title>
<polygon fill="none" stroke="black" points="124,-40.8 124,-92.8 404,-92.8 404,-40.8 124,-40.8"/>
</g>
<g id="clust4" class="cluster">
<title>cluster_ConfiguratorConflictDescriptionModule_imports</title>
<polygon fill="none" stroke="black" points="16,-40.8 16,-92.8 116,-92.8 116,-40.8 16,-40.8"/>
</g>
<g id="clust5" class="cluster">
<title>cluster_ConfiguratorConflictDescriptionModule_exports</title>
<polygon fill="none" stroke="black" points="68,-170.8 68,-222.8 352,-222.8 352,-170.8 68,-170.8"/>
</g>
<!-- ConfiguratorConflictDescriptionComponent -->
<g id="node1" class="node">
<title>ConfiguratorConflictDescriptionComponent</title>
<polygon fill="#ffffb3" stroke="black" points="396.34,-84.8 131.66,-84.8 131.66,-48.8 396.34,-48.8 396.34,-84.8"/>
<text text-anchor="middle" x="264" y="-62.6" font-family="Times,serif" font-size="14.00">ConfiguratorConflictDescriptionComponent</text>
</g>
<!-- ConfiguratorConflictDescriptionModule -->
<g id="node2" class="node">
<title>ConfiguratorConflictDescriptionModule</title>
<polygon fill="#8dd3c7" stroke="black" points="331.56,-149.8 328.56,-153.8 307.56,-153.8 304.56,-149.8 88.44,-149.8 88.44,-113.8 331.56,-113.8 331.56,-149.8"/>
<text text-anchor="middle" x="210" y="-127.6" font-family="Times,serif" font-size="14.00">ConfiguratorConflictDescriptionModule</text>
</g>
<!-- ConfiguratorConflictDescriptionComponent&#45;&gt;ConfiguratorConflictDescriptionModule -->
<g id="edge1" class="edge">
<title>ConfiguratorConflictDescriptionComponent&#45;&gt;ConfiguratorConflictDescriptionModule</title>
<path fill="none" stroke="black" d="M231.55,-84.91C231.55,-84.91 231.55,-103.79 231.55,-103.79"/>
<polygon fill="black" stroke="black" points="228.05,-103.79 231.55,-113.79 235.05,-103.79 228.05,-103.79"/>
</g>
<!-- ConfiguratorConflictDescriptionComponent  -->
<g id="node4" class="node">
<title>ConfiguratorConflictDescriptionComponent </title>
<polygon fill="#fb8072" stroke="black" points="344.34,-214.8 75.66,-214.8 75.66,-178.8 344.34,-178.8 344.34,-214.8"/>
<text text-anchor="middle" x="210" y="-192.6" font-family="Times,serif" font-size="14.00">ConfiguratorConflictDescriptionComponent </text>
</g>
<!-- ConfiguratorConflictDescriptionModule&#45;&gt;ConfiguratorConflictDescriptionComponent  -->
<g id="edge3" class="edge">
<title>ConfiguratorConflictDescriptionModule&#45;&gt;ConfiguratorConflictDescriptionComponent </title>
<path fill="none" stroke="black" stroke-dasharray="5,2" d="M210,-149.91C210,-149.91 210,-168.79 210,-168.79"/>
<polygon fill="black" stroke="black" points="206.5,-168.79 210,-178.79 213.5,-168.79 206.5,-168.79"/>
</g>
<!-- IconModule -->
<g id="node3" class="node">
<title>IconModule</title>
<polygon fill="#8dd3c7" stroke="black" points="108.43,-84.8 105.43,-88.8 84.43,-88.8 81.43,-84.8 23.57,-84.8 23.57,-48.8 108.43,-48.8 108.43,-84.8"/>
<text text-anchor="middle" x="66" y="-62.6" font-family="Times,serif" font-size="14.00">IconModule</text>
</g>
<!-- IconModule&#45;&gt;ConfiguratorConflictDescriptionModule -->
<g id="edge2" class="edge">
<title>IconModule&#45;&gt;ConfiguratorConflictDescriptionModule</title>
<path fill="none" stroke="black" d="M98.34,-84.91C98.34,-84.91 98.34,-103.79 98.34,-103.79"/>
<polygon fill="black" stroke="black" points="94.84,-103.79 98.34,-113.79 101.84,-103.79 94.84,-103.79"/>
</g>
</g>
</svg>
