<?xml version="1.0" encoding="UTF-8" standalone="no"?>
<!DOCTYPE svg PUBLIC "-//W3C//DTD SVG 1.1//EN"
 "http://www.w3.org/Graphics/SVG/1.1/DTD/svg11.dtd">
<!-- Generated by graphviz version 2.47.3 (20210619.1520)
 -->
<!-- Title: dependencies Pages: 1 -->
<svg width="641pt" height="247pt"
 viewBox="0.00 0.00 641.00 246.80" xmlns="http://www.w3.org/2000/svg" xmlns:xlink="http://www.w3.org/1999/xlink">
<g id="graph0" class="graph" transform="scale(1 1) rotate(0) translate(4 242.8)">
<title>dependencies</title>
<polygon fill="white" stroke="transparent" points="-4,4 -4,-242.8 637,-242.8 637,4 -4,4"/>
<text text-anchor="middle" x="316.5" y="-8.2" font-family="sans-serif" font-size="14.00">dependencies</text>
<g id="clust1" class="cluster">
<title>cluster_ReturnRequestListModule</title>
<polygon fill="none" stroke="black" stroke-dasharray="1,5" points="8,-32.8 8,-230.8 625,-230.8 625,-32.8 8,-32.8"/>
</g>
<g id="clust5" class="cluster">
<title>cluster_ReturnRequestListModule_exports</title>
<polygon fill="none" stroke="black" points="139,-170.8 139,-222.8 377,-222.8 377,-170.8 139,-170.8"/>
</g>
<g id="clust2" class="cluster">
<title>cluster_ReturnRequestListModule_declarations</title>
<polygon fill="none" stroke="black" points="383,-40.8 383,-92.8 617,-92.8 617,-40.8 383,-40.8"/>
</g>
<g id="clust4" class="cluster">
<title>cluster_ReturnRequestListModule_imports</title>
<polygon fill="none" stroke="black" points="16,-40.8 16,-92.8 375,-92.8 375,-40.8 16,-40.8"/>
</g>
<!-- OrderReturnRequestListComponent -->
<g id="node1" class="node">
<title>OrderReturnRequestListComponent</title>
<polygon fill="#ffffb3" stroke="black" points="609.46,-84.8 390.54,-84.8 390.54,-48.8 609.46,-48.8 609.46,-84.8"/>
<text text-anchor="middle" x="500" y="-62.6" font-family="Times,serif" font-size="14.00">OrderReturnRequestListComponent</text>
</g>
<!-- ReturnRequestListModule -->
<g id="node2" class="node">
<title>ReturnRequestListModule</title>
<polygon fill="#8dd3c7" stroke="black" points="340.03,-149.8 337.03,-153.8 316.03,-153.8 313.03,-149.8 175.97,-149.8 175.97,-113.8 340.03,-113.8 340.03,-149.8"/>
<text text-anchor="middle" x="258" y="-127.6" font-family="Times,serif" font-size="14.00">ReturnRequestListModule</text>
</g>
<!-- OrderReturnRequestListComponent&#45;&gt;ReturnRequestListModule -->
<g id="edge1" class="edge">
<title>OrderReturnRequestListComponent&#45;&gt;ReturnRequestListModule</title>
<path fill="none" stroke="black" d="M500,-84.91C500,-104.14 500,-131.8 500,-131.8 500,-131.8 350.27,-131.8 350.27,-131.8"/>
<polygon fill="black" stroke="black" points="350.27,-128.3 340.27,-131.8 350.27,-135.3 350.27,-128.3"/>
</g>
<!-- OrderReturnRequestListComponent  -->
<g id="node6" class="node">
<title>OrderReturnRequestListComponent </title>
<polygon fill="#fb8072" stroke="black" points="369.46,-214.8 146.54,-214.8 146.54,-178.8 369.46,-178.8 369.46,-214.8"/>
<text text-anchor="middle" x="258" y="-192.6" font-family="Times,serif" font-size="14.00">OrderReturnRequestListComponent </text>
</g>
<!-- ReturnRequestListModule&#45;&gt;OrderReturnRequestListComponent  -->
<g id="edge5" class="edge">
<title>ReturnRequestListModule&#45;&gt;OrderReturnRequestListComponent </title>
<path fill="none" stroke="black" stroke-dasharray="5,2" d="M258,-149.91C258,-149.91 258,-168.79 258,-168.79"/>
<polygon fill="black" stroke="black" points="254.5,-168.79 258,-178.79 261.5,-168.79 254.5,-168.79"/>
</g>
<!-- I18nModule -->
<g id="node3" class="node">
<title>I18nModule</title>
<polygon fill="#8dd3c7" stroke="black" points="366.71,-84.8 363.71,-88.8 342.71,-88.8 339.71,-84.8 281.29,-84.8 281.29,-48.8 366.71,-48.8 366.71,-84.8"/>
<text text-anchor="middle" x="324" y="-62.6" font-family="Times,serif" font-size="14.00">I18nModule</text>
</g>
<!-- I18nModule&#45;&gt;ReturnRequestListModule -->
<g id="edge2" class="edge">
<title>I18nModule&#45;&gt;ReturnRequestListModule</title>
<path fill="none" stroke="black" d="M310.83,-84.91C310.83,-84.91 310.83,-103.79 310.83,-103.79"/>
<polygon fill="black" stroke="black" points="307.33,-103.79 310.83,-113.79 314.33,-103.79 307.33,-103.79"/>
</g>
<!-- ListNavigationModule -->
<g id="node4" class="node">
<title>ListNavigationModule</title>
<polygon fill="#8dd3c7" stroke="black" points="263.54,-84.8 260.54,-88.8 239.54,-88.8 236.54,-84.8 120.46,-84.8 120.46,-48.8 263.54,-48.8 263.54,-84.8"/>
<text text-anchor="middle" x="192" y="-62.6" font-family="Times,serif" font-size="14.00">ListNavigationModule</text>
</g>
<!-- ListNavigationModule&#45;&gt;ReturnRequestListModule -->
<g id="edge3" class="edge">
<title>ListNavigationModule&#45;&gt;ReturnRequestListModule</title>
<path fill="none" stroke="black" d="M219.75,-84.91C219.75,-84.91 219.75,-103.79 219.75,-103.79"/>
<polygon fill="black" stroke="black" points="216.25,-103.79 219.75,-113.79 223.25,-103.79 216.25,-103.79"/>
</g>
<!-- UrlModule -->
<g id="node5" class="node">
<title>UrlModule</title>
<polygon fill="#8dd3c7" stroke="black" points="102.21,-84.8 99.21,-88.8 78.21,-88.8 75.21,-84.8 23.79,-84.8 23.79,-48.8 102.21,-48.8 102.21,-84.8"/>
<text text-anchor="middle" x="63" y="-62.6" font-family="Times,serif" font-size="14.00">UrlModule</text>
</g>
<!-- UrlModule&#45;&gt;ReturnRequestListModule -->
<g id="edge4" class="edge">
<title>UrlModule&#45;&gt;ReturnRequestListModule</title>
<path fill="none" stroke="black" d="M63,-84.91C63,-104.14 63,-131.8 63,-131.8 63,-131.8 165.87,-131.8 165.87,-131.8"/>
<polygon fill="black" stroke="black" points="165.87,-135.3 175.87,-131.8 165.87,-128.3 165.87,-135.3"/>
</g>
</g>
</svg>
