<?xml version="1.0" encoding="UTF-8" standalone="no"?>
<!DOCTYPE svg PUBLIC "-//W3C//DTD SVG 1.1//EN"
 "http://www.w3.org/Graphics/SVG/1.1/DTD/svg11.dtd">
<!-- Generated by graphviz version 2.40.1 (20161225.0304)
 -->
<!-- Title: dependencies Pages: 1 -->
<svg width="636pt" height="211pt"
 viewBox="0.00 0.00 636.00 211.00" xmlns="http://www.w3.org/2000/svg" xmlns:xlink="http://www.w3.org/1999/xlink">
<g id="graph0" class="graph" transform="scale(1 1) rotate(0) translate(4 207)">
<title>dependencies</title>
<polygon fill="#ffffff" stroke="transparent" points="-4,4 -4,-207 632,-207 632,4 -4,4"/>
<text text-anchor="start" x="293.0091" y="-42.4" font-family="sans-serif" font-weight="bold" font-size="14.00" fill="#000000">Legend</text>
<polygon fill="#ffffb3" stroke="transparent" points="80,-10 80,-30 100,-30 100,-10 80,-10"/>
<text text-anchor="start" x="103.629" y="-15.4" font-family="sans-serif" font-size="14.00" fill="#000000"> &#160;Declarations</text>
<polygon fill="#8dd3c7" stroke="transparent" points="193,-10 193,-30 213,-30 213,-10 193,-10"/>
<text text-anchor="start" x="216.7251" y="-15.4" font-family="sans-serif" font-size="14.00" fill="#000000"> &#160;Module</text>
<polygon fill="#80b1d3" stroke="transparent" points="279,-10 279,-30 299,-30 299,-10 279,-10"/>
<text text-anchor="start" x="302.7812" y="-15.4" font-family="sans-serif" font-size="14.00" fill="#000000"> &#160;Bootstrap</text>
<polygon fill="#fdb462" stroke="transparent" points="376,-10 376,-30 396,-30 396,-10 376,-10"/>
<text text-anchor="start" x="399.6732" y="-15.4" font-family="sans-serif" font-size="14.00" fill="#000000"> &#160;Providers</text>
<polygon fill="#fb8072" stroke="transparent" points="472,-10 472,-30 492,-30 492,-10 472,-10"/>
<text text-anchor="start" x="495.7258" y="-15.4" font-family="sans-serif" font-size="14.00" fill="#000000"> &#160;Exports</text>
<g id="clust1" class="cluster">
<title>cluster_ProductConverterModule</title>
<polygon fill="none" stroke="#000000" stroke-dasharray="1,5" points="8,-70 8,-195 620,-195 620,-70 8,-70"/>
</g>
<g id="clust6" class="cluster">
<title>cluster_ProductConverterModule_providers</title>
<polygon fill="none" stroke="#000000" points="16,-78 16,-130 612,-130 612,-78 16,-78"/>
</g>
<!-- ProductImageConverterService -->
<g id="node1" class="node">
<title>ProductImageConverterService</title>
<ellipse fill="#fdb462" stroke="#000000" cx="471" cy="-104" rx="132.5443" ry="18"/>
<text text-anchor="middle" x="471" y="-99.8" font-family="Times,serif" font-size="14.00" fill="#000000">ProductImageConverterService</text>
</g>
<!-- ProductConverterModule -->
<g id="node3" class="node">
<title>ProductConverterModule</title>
<polygon fill="#8dd3c7" stroke="#000000" points="400.5758,-187 397.5758,-191 376.5758,-191 373.5758,-187 241.4242,-187 241.4242,-151 400.5758,-151 400.5758,-187"/>
<text text-anchor="middle" x="321" y="-164.8" font-family="Times,serif" font-size="14.00" fill="#000000">ProductConverterModule</text>
</g>
<!-- ProductImageConverterService&#45;&gt;ProductConverterModule -->
<g id="edge1" class="edge">
<title>ProductImageConverterService&#45;&gt;ProductConverterModule</title>
<path fill="none" stroke="#000000" d="M369.383,-115.6207C369.383,-115.6207 369.383,-140.8534 369.383,-140.8534"/>
<polygon fill="#000000" stroke="#000000" points="365.8831,-140.8533 369.383,-150.8534 372.8831,-140.8534 365.8831,-140.8533"/>
</g>
<!-- ProductReferenceConverterService -->
<g id="node2" class="node">
<title>ProductReferenceConverterService</title>
<ellipse fill="#fdb462" stroke="#000000" cx="172" cy="-104" rx="147.5503" ry="18"/>
<text text-anchor="middle" x="172" y="-99.8" font-family="Times,serif" font-size="14.00" fill="#000000">ProductReferenceConverterService</text>
</g>
<!-- ProductReferenceConverterService&#45;&gt;ProductConverterModule -->
<g id="edge2" class="edge">
<title>ProductReferenceConverterService&#45;&gt;ProductConverterModule</title>
<path fill="none" stroke="#000000" d="M280.6185,-116.226C280.6185,-116.226 280.6185,-140.683 280.6185,-140.683"/>
<polygon fill="#000000" stroke="#000000" points="277.1186,-140.683 280.6185,-150.683 284.1186,-140.683 277.1186,-140.683"/>
</g>
</g>
</svg>
