<?xml version="1.0" encoding="UTF-8" standalone="no"?>
<!DOCTYPE svg PUBLIC "-//W3C//DTD SVG 1.1//EN"
 "http://www.w3.org/Graphics/SVG/1.1/DTD/svg11.dtd">
<!-- Generated by graphviz version 2.47.3 (20210619.1520)
 -->
<!-- Title: dependencies Pages: 1 -->
<svg width="218pt" height="247pt"
 viewBox="0.00 0.00 218.00 246.80" xmlns="http://www.w3.org/2000/svg" xmlns:xlink="http://www.w3.org/1999/xlink">
<g id="graph0" class="graph" transform="scale(1 1) rotate(0) translate(4 242.8)">
<title>dependencies</title>
<polygon fill="white" stroke="transparent" points="-4,4 -4,-242.8 214,-242.8 214,4 -4,4"/>
<text text-anchor="middle" x="105" y="-8.2" font-family="sans-serif" font-size="14.00">dependencies</text>
<g id="clust1" class="cluster">
<title>cluster_SubListTestingModule</title>
<polygon fill="none" stroke="black" stroke-dasharray="1,5" points="8,-32.8 8,-230.8 202,-230.8 202,-32.8 8,-32.8"/>
</g>
<g id="clust2" class="cluster">
<title>cluster_SubListTestingModule_declarations</title>
<polygon fill="none" stroke="black" points="18,-40.8 18,-92.8 192,-92.8 192,-40.8 18,-40.8"/>
</g>
<g id="clust5" class="cluster">
<title>cluster_SubListTestingModule_exports</title>
<polygon fill="none" stroke="black" points="16,-170.8 16,-222.8 194,-222.8 194,-170.8 16,-170.8"/>
</g>
<!-- MockSubListComponent -->
<g id="node1" class="node">
<title>MockSubListComponent</title>
<polygon fill="#ffffb3" stroke="black" points="183.55,-84.8 26.45,-84.8 26.45,-48.8 183.55,-48.8 183.55,-84.8"/>
<text text-anchor="middle" x="105" y="-62.6" font-family="Times,serif" font-size="14.00">MockSubListComponent</text>
</g>
<!-- SubListTestingModule -->
<g id="node2" class="node">
<title>SubListTestingModule</title>
<polygon fill="#8dd3c7" stroke="black" points="177.6,-149.8 174.6,-153.8 153.6,-153.8 150.6,-149.8 32.4,-149.8 32.4,-113.8 177.6,-113.8 177.6,-149.8"/>
<text text-anchor="middle" x="105" y="-127.6" font-family="Times,serif" font-size="14.00">SubListTestingModule</text>
</g>
<!-- MockSubListComponent&#45;&gt;SubListTestingModule -->
<g id="edge1" class="edge">
<title>MockSubListComponent&#45;&gt;SubListTestingModule</title>
<path fill="none" stroke="black" d="M105,-84.91C105,-84.91 105,-103.79 105,-103.79"/>
<polygon fill="black" stroke="black" points="101.5,-103.79 105,-113.79 108.5,-103.79 101.5,-103.79"/>
</g>
<!-- MockSubListComponent  -->
<g id="node3" class="node">
<title>MockSubListComponent </title>
<polygon fill="#fb8072" stroke="black" points="185.55,-214.8 24.45,-214.8 24.45,-178.8 185.55,-178.8 185.55,-214.8"/>
<text text-anchor="middle" x="105" y="-192.6" font-family="Times,serif" font-size="14.00">MockSubListComponent </text>
</g>
<!-- SubListTestingModule&#45;&gt;MockSubListComponent  -->
<g id="edge2" class="edge">
<title>SubListTestingModule&#45;&gt;MockSubListComponent </title>
<path fill="none" stroke="black" stroke-dasharray="5,2" d="M105,-149.91C105,-149.91 105,-168.79 105,-168.79"/>
<polygon fill="black" stroke="black" points="101.5,-168.79 105,-178.79 108.5,-168.79 101.5,-168.79"/>
</g>
</g>
</svg>
