<?xml version="1.0" encoding="UTF-8" standalone="no"?>
<!DOCTYPE svg PUBLIC "-//W3C//DTD SVG 1.1//EN"
 "http://www.w3.org/Graphics/SVG/1.1/DTD/svg11.dtd">
<!-- Generated by graphviz version 2.47.3 (20210619.1520)
 -->
<!-- Title: dependencies Pages: 1 -->
<svg width="1502pt" height="174pt"
 viewBox="0.00 0.00 1502.00 173.80" xmlns="http://www.w3.org/2000/svg" xmlns:xlink="http://www.w3.org/1999/xlink">
<g id="graph0" class="graph" transform="scale(1 1) rotate(0) translate(4 169.8)">
<title>dependencies</title>
<polygon fill="white" stroke="transparent" points="-4,4 -4,-169.8 1498,-169.8 1498,4 -4,4"/>
<text text-anchor="middle" x="747" y="-8.2" font-family="sans-serif" font-size="14.00">dependencies</text>
<g id="clust1" class="cluster">
<title>cluster_CdcCoreModule</title>
<polygon fill="none" stroke="black" stroke-dasharray="1,5" points="8,-32.8 8,-157.8 1486,-157.8 1486,-32.8 8,-32.8"/>
</g>
<g id="clust3" class="cluster">
<title>cluster_CdcCoreModule_imports</title>
<polygon fill="none" stroke="black" points="1352,-40.8 1352,-92.8 1478,-92.8 1478,-40.8 1352,-40.8"/>
</g>
<g id="clust6" class="cluster">
<title>cluster_CdcCoreModule_providers</title>
<polygon fill="none" stroke="black" points="16,-40.8 16,-92.8 1344,-92.8 1344,-40.8 16,-40.8"/>
</g>
<!-- CdcAuthModule -->
<g id="node1" class="node">
<title>CdcAuthModule</title>
<polygon fill="#8dd3c7" stroke="black" points="1470.1,-84.8 1467.1,-88.8 1446.1,-88.8 1443.1,-84.8 1359.9,-84.8 1359.9,-48.8 1470.1,-48.8 1470.1,-84.8"/>
<text text-anchor="middle" x="1415" y="-62.6" font-family="Times,serif" font-size="14.00">CdcAuthModule</text>
</g>
<!-- CdcCoreModule -->
<g id="node2" class="node">
<title>CdcCoreModule</title>
<polygon fill="#8dd3c7" stroke="black" points="781.81,-149.8 778.81,-153.8 757.81,-153.8 754.81,-149.8 672.19,-149.8 672.19,-113.8 781.81,-113.8 781.81,-149.8"/>
<text text-anchor="middle" x="727" y="-127.6" font-family="Times,serif" font-size="14.00">CdcCoreModule</text>
</g>
<!-- CdcAuthModule&#45;&gt;CdcCoreModule -->
<g id="edge1" class="edge">
<title>CdcAuthModule&#45;&gt;CdcCoreModule</title>
<path fill="none" stroke="black" d="M1415,-85.09C1415,-107.01 1415,-140.8 1415,-140.8 1415,-140.8 791.85,-140.8 791.85,-140.8"/>
<polygon fill="black" stroke="black" points="791.85,-137.3 781.85,-140.8 791.85,-144.3 791.85,-137.3"/>
</g>
<!-- CheckoutCostCenterService -->
<g id="node3" class="node">
<title>CheckoutCostCenterService</title>
<ellipse fill="#fdb462" stroke="black" cx="1216" cy="-66.8" rx="120.4" ry="18"/>
<text text-anchor="middle" x="1216" y="-62.6" font-family="Times,serif" font-size="14.00">CheckoutCostCenterService</text>
</g>
<!-- CheckoutCostCenterService&#45;&gt;CdcCoreModule -->
<g id="edge2" class="edge">
<title>CheckoutCostCenterService&#45;&gt;CdcCoreModule</title>
<path fill="none" stroke="black" d="M1216,-84.91C1216,-104.14 1216,-131.8 1216,-131.8 1216,-131.8 791.67,-131.8 791.67,-131.8"/>
<polygon fill="black" stroke="black" points="791.67,-128.3 781.67,-131.8 791.67,-135.3 791.67,-128.3"/>
</g>
<!-- CheckoutDeliveryService -->
<g id="node4" class="node">
<title>CheckoutDeliveryService</title>
<ellipse fill="#fdb462" stroke="black" cx="967" cy="-66.8" rx="110.57" ry="18"/>
<text text-anchor="middle" x="967" y="-62.6" font-family="Times,serif" font-size="14.00">CheckoutDeliveryService</text>
</g>
<!-- CheckoutDeliveryService&#45;&gt;CdcCoreModule -->
<g id="edge3" class="edge">
<title>CheckoutDeliveryService&#45;&gt;CdcCoreModule</title>
<path fill="none" stroke="black" d="M967,-84.83C967,-101.2 967,-122.8 967,-122.8 967,-122.8 791.76,-122.8 791.76,-122.8"/>
<polygon fill="black" stroke="black" points="791.76,-119.3 781.76,-122.8 791.76,-126.3 791.76,-119.3"/>
</g>
<!-- CheckoutPaymentService -->
<g id="node5" class="node">
<title>CheckoutPaymentService</title>
<ellipse fill="#fdb462" stroke="black" cx="727" cy="-66.8" rx="110.6" ry="18"/>
<text text-anchor="middle" x="727" y="-62.6" font-family="Times,serif" font-size="14.00">CheckoutPaymentService</text>
</g>
<!-- CheckoutPaymentService&#45;&gt;CdcCoreModule -->
<g id="edge4" class="edge">
<title>CheckoutPaymentService&#45;&gt;CdcCoreModule</title>
<path fill="none" stroke="black" d="M727,-84.91C727,-84.91 727,-103.79 727,-103.79"/>
<polygon fill="black" stroke="black" points="723.5,-103.79 727,-113.79 730.5,-103.79 723.5,-103.79"/>
</g>
<!-- CheckoutService -->
<g id="node6" class="node">
<title>CheckoutService</title>
<ellipse fill="#fdb462" stroke="black" cx="521" cy="-66.8" rx="77.01" ry="18"/>
<text text-anchor="middle" x="521" y="-62.6" font-family="Times,serif" font-size="14.00">CheckoutService</text>
</g>
<!-- CheckoutService&#45;&gt;CdcCoreModule -->
<g id="edge5" class="edge">
<title>CheckoutService&#45;&gt;CdcCoreModule</title>
<path fill="none" stroke="black" d="M521,-84.83C521,-101.2 521,-122.8 521,-122.8 521,-122.8 662.34,-122.8 662.34,-122.8"/>
<polygon fill="black" stroke="black" points="662.34,-126.3 672.34,-122.8 662.34,-119.3 662.34,-126.3"/>
</g>
<!-- ClearCheckoutService -->
<g id="node7" class="node">
<title>ClearCheckoutService</title>
<ellipse fill="#fdb462" stroke="black" cx="328" cy="-66.8" rx="97.83" ry="18"/>
<text text-anchor="middle" x="328" y="-62.6" font-family="Times,serif" font-size="14.00">ClearCheckoutService</text>
</g>
<!-- ClearCheckoutService&#45;&gt;CdcCoreModule -->
<g id="edge6" class="edge">
<title>ClearCheckoutService&#45;&gt;CdcCoreModule</title>
<path fill="none" stroke="black" d="M328,-84.91C328,-104.14 328,-131.8 328,-131.8 328,-131.8 661.94,-131.8 661.94,-131.8"/>
<polygon fill="black" stroke="black" points="661.94,-135.3 671.94,-131.8 661.94,-128.3 661.94,-135.3"/>
</g>
<!-- PaymentTypeService -->
<g id="node8" class="node">
<title>PaymentTypeService</title>
<ellipse fill="#fdb462" stroke="black" cx="118" cy="-66.8" rx="93.76" ry="18"/>
<text text-anchor="middle" x="118" y="-62.6" font-family="Times,serif" font-size="14.00">PaymentTypeService</text>
</g>
<!-- PaymentTypeService&#45;&gt;CdcCoreModule -->
<g id="edge7" class="edge">
<title>PaymentTypeService&#45;&gt;CdcCoreModule</title>
<path fill="none" stroke="black" d="M118,-85.09C118,-107.01 118,-140.8 118,-140.8 118,-140.8 662.15,-140.8 662.15,-140.8"/>
<polygon fill="black" stroke="black" points="662.15,-144.3 672.15,-140.8 662.15,-137.3 662.15,-144.3"/>
</g>
</g>
</svg>
