<?xml version="1.0" encoding="UTF-8" standalone="no"?>
<!DOCTYPE svg PUBLIC "-//W3C//DTD SVG 1.1//EN"
 "http://www.w3.org/Graphics/SVG/1.1/DTD/svg11.dtd">
<!-- Generated by graphviz version 2.47.0 (20210316.0004)
 -->
<!-- Title: dependencies Pages: 1 -->
<svg width="504pt" height="211pt"
 viewBox="0.00 0.00 504.00 211.00" xmlns="http://www.w3.org/2000/svg" xmlns:xlink="http://www.w3.org/1999/xlink">
<g id="graph0" class="graph" transform="scale(1 1) rotate(0) translate(4 207)">
<title>dependencies</title>
<polygon fill="white" stroke="transparent" points="-4,4 -4,-207 500,-207 500,4 -4,4"/>
<text text-anchor="start" x="227.01" y="-42.4" font-family="sans-serif" font-weight="bold" font-size="14.00">Legend</text>
<polygon fill="#ffffb3" stroke="transparent" points="14,-10 14,-30 34,-30 34,-10 14,-10"/>
<text text-anchor="start" x="37.63" y="-15.4" font-family="sans-serif" font-size="14.00"> &#160;Declarations</text>
<polygon fill="#8dd3c7" stroke="transparent" points="127,-10 127,-30 147,-30 147,-10 127,-10"/>
<text text-anchor="start" x="150.73" y="-15.4" font-family="sans-serif" font-size="14.00"> &#160;Module</text>
<polygon fill="#80b1d3" stroke="transparent" points="213,-10 213,-30 233,-30 233,-10 213,-10"/>
<text text-anchor="start" x="236.78" y="-15.4" font-family="sans-serif" font-size="14.00"> &#160;Bootstrap</text>
<polygon fill="#fdb462" stroke="transparent" points="310,-10 310,-30 330,-30 330,-10 310,-10"/>
<text text-anchor="start" x="333.67" y="-15.4" font-family="sans-serif" font-size="14.00"> &#160;Providers</text>
<polygon fill="#fb8072" stroke="transparent" points="406,-10 406,-30 426,-30 426,-10 406,-10"/>
<text text-anchor="start" x="429.73" y="-15.4" font-family="sans-serif" font-size="14.00"> &#160;Exports</text>
<g id="clust1" class="cluster">
<title>cluster_CdcCoreModule</title>
<polygon fill="none" stroke="black" stroke-dasharray="1,5" points="90,-70 90,-195 406,-195 406,-70 90,-70"/>
</g>
<g id="clust3" class="cluster">
<title>cluster_CdcCoreModule_imports</title>
<polygon fill="none" stroke="black" points="272,-78 272,-130 398,-130 398,-78 272,-78"/>
</g>
<g id="clust6" class="cluster">
<title>cluster_CdcCoreModule_providers</title>
<polygon fill="none" stroke="black" points="98,-78 98,-130 264,-130 264,-78 98,-78"/>
</g>
<!-- CdcAuthModule -->
<g id="node1" class="node">
<title>CdcAuthModule</title>
<polygon fill="#8dd3c7" stroke="black" points="390.1,-122 387.1,-126 366.1,-126 363.1,-122 279.9,-122 279.9,-86 390.1,-86 390.1,-122"/>
<text text-anchor="middle" x="335" y="-99.8" font-family="Times,serif" font-size="14.00">CdcAuthModule</text>
</g>
<!-- CdcCoreModule -->
<g id="node2" class="node">
<title>CdcCoreModule</title>
<polygon fill="#8dd3c7" stroke="black" points="312.81,-187 309.81,-191 288.81,-191 285.81,-187 203.19,-187 203.19,-151 312.81,-151 312.81,-187"/>
<text text-anchor="middle" x="258" y="-164.8" font-family="Times,serif" font-size="14.00">CdcCoreModule</text>
</g>
<!-- CdcAuthModule&#45;&gt;CdcCoreModule -->
<g id="edge1" class="edge">
<title>CdcAuthModule&#45;&gt;CdcCoreModule</title>
<path fill="none" stroke="black" d="M296.3,-122.11C296.3,-122.11 296.3,-140.99 296.3,-140.99"/>
<polygon fill="black" stroke="black" points="292.8,-140.99 296.3,-150.99 299.8,-140.99 292.8,-140.99"/>
</g>
<!-- CdcAuthService -->
<g id="node3" class="node">
<title>CdcAuthService</title>
<ellipse fill="#fdb462" stroke="black" cx="181" cy="-104" rx="74.72" ry="18"/>
<text text-anchor="middle" x="181" y="-99.8" font-family="Times,serif" font-size="14.00">CdcAuthService</text>
</g>
<!-- CdcAuthService&#45;&gt;CdcCoreModule -->
<g id="edge2" class="edge">
<title>CdcAuthService&#45;&gt;CdcCoreModule</title>
<path fill="none" stroke="black" d="M229.6,-117.78C229.6,-117.78 229.6,-140.55 229.6,-140.55"/>
<polygon fill="black" stroke="black" points="226.1,-140.55 229.6,-150.55 233.1,-140.55 226.1,-140.55"/>
</g>
</g>
</svg>
