<?xml version="1.0" encoding="UTF-8" standalone="no"?>
<!DOCTYPE svg PUBLIC "-//W3C//DTD SVG 1.1//EN"
 "http://www.w3.org/Graphics/SVG/1.1/DTD/svg11.dtd">
<!-- Generated by graphviz version 2.40.1 (20161225.0304)
 -->
<!-- Title: dependencies Pages: 1 -->
<svg width="504pt" height="211pt"
 viewBox="0.00 0.00 504.00 211.00" xmlns="http://www.w3.org/2000/svg" xmlns:xlink="http://www.w3.org/1999/xlink">
<g id="graph0" class="graph" transform="scale(1 1) rotate(0) translate(4 207)">
<title>dependencies</title>
<polygon fill="#ffffff" stroke="transparent" points="-4,4 -4,-207 500,-207 500,4 -4,4"/>
<text text-anchor="start" x="227.0091" y="-42.4" font-family="sans-serif" font-weight="bold" font-size="14.00" fill="#000000">Legend</text>
<polygon fill="#ffffb3" stroke="transparent" points="14,-10 14,-30 34,-30 34,-10 14,-10"/>
<text text-anchor="start" x="37.629" y="-15.4" font-family="sans-serif" font-size="14.00" fill="#000000"> &#160;Declarations</text>
<polygon fill="#8dd3c7" stroke="transparent" points="127,-10 127,-30 147,-30 147,-10 127,-10"/>
<text text-anchor="start" x="150.7251" y="-15.4" font-family="sans-serif" font-size="14.00" fill="#000000"> &#160;Module</text>
<polygon fill="#80b1d3" stroke="transparent" points="213,-10 213,-30 233,-30 233,-10 213,-10"/>
<text text-anchor="start" x="236.7812" y="-15.4" font-family="sans-serif" font-size="14.00" fill="#000000"> &#160;Bootstrap</text>
<polygon fill="#fdb462" stroke="transparent" points="310,-10 310,-30 330,-30 330,-10 310,-10"/>
<text text-anchor="start" x="333.6732" y="-15.4" font-family="sans-serif" font-size="14.00" fill="#000000"> &#160;Providers</text>
<polygon fill="#fb8072" stroke="transparent" points="406,-10 406,-30 426,-30 426,-10 406,-10"/>
<text text-anchor="start" x="429.7258" y="-15.4" font-family="sans-serif" font-size="14.00" fill="#000000"> &#160;Exports</text>
<g id="clust1" class="cluster">
<title>cluster_CdcCoreModule</title>
<polygon fill="none" stroke="#000000" stroke-dasharray="1,5" points="85,-70 85,-195 411,-195 411,-70 85,-70"/>
</g>
<g id="clust3" class="cluster">
<title>cluster_CdcCoreModule_imports</title>
<polygon fill="none" stroke="#000000" points="277,-78 277,-130 403,-130 403,-78 277,-78"/>
</g>
<g id="clust6" class="cluster">
<title>cluster_CdcCoreModule_providers</title>
<polygon fill="none" stroke="#000000" points="93,-78 93,-130 269,-130 269,-78 93,-78"/>
</g>
<!-- CdcAuthModule -->
<g id="node1" class="node">
<title>CdcAuthModule</title>
<polygon fill="#8dd3c7" stroke="#000000" points="395.0982,-122 392.0982,-126 371.0982,-126 368.0982,-122 284.9018,-122 284.9018,-86 395.0982,-86 395.0982,-122"/>
<text text-anchor="middle" x="340" y="-99.8" font-family="Times,serif" font-size="14.00" fill="#000000">CdcAuthModule</text>
</g>
<!-- CdcCoreModule -->
<g id="node2" class="node">
<title>CdcCoreModule</title>
<polygon fill="#8dd3c7" stroke="#000000" points="314.8132,-187 311.8132,-191 290.8132,-191 287.8132,-187 205.1868,-187 205.1868,-151 314.8132,-151 314.8132,-187"/>
<text text-anchor="middle" x="260" y="-164.8" font-family="Times,serif" font-size="14.00" fill="#000000">CdcCoreModule</text>
</g>
<!-- CdcAuthModule&#45;&gt;CdcCoreModule -->
<g id="edge1" class="edge">
<title>CdcAuthModule&#45;&gt;CdcCoreModule</title>
<path fill="none" stroke="#000000" d="M299.8037,-122.1061C299.8037,-122.1061 299.8037,-140.991 299.8037,-140.991"/>
<polygon fill="#000000" stroke="#000000" points="296.3037,-140.9909 299.8037,-150.991 303.3037,-140.991 296.3037,-140.9909"/>
</g>
<!-- SavedCartService -->
<g id="node3" class="node">
<title>SavedCartService</title>
<ellipse fill="#fdb462" stroke="#000000" cx="181" cy="-104" rx="80.4325" ry="18"/>
<text text-anchor="middle" x="181" y="-99.8" font-family="Times,serif" font-size="14.00" fill="#000000">SavedCartService</text>
</g>
<!-- SavedCartService&#45;&gt;CdcCoreModule -->
<g id="edge2" class="edge">
<title>SavedCartService&#45;&gt;CdcCoreModule</title>
<path fill="none" stroke="#000000" d="M233.2798,-117.7848C233.2798,-117.7848 233.2798,-140.5475 233.2798,-140.5475"/>
<polygon fill="#000000" stroke="#000000" points="229.7799,-140.5474 233.2798,-150.5475 236.7799,-140.5475 229.7799,-140.5474"/>
</g>
</g>
</svg>
