<?xml version="1.0" encoding="UTF-8" standalone="no"?>
<!DOCTYPE svg PUBLIC "-//W3C//DTD SVG 1.1//EN"
 "http://www.w3.org/Graphics/SVG/1.1/DTD/svg11.dtd">
<!-- Generated by graphviz version 2.47.3 (20210619.1520)
 -->
<!-- Title: dependencies Pages: 1 -->
<svg width="340pt" height="174pt"
 viewBox="0.00 0.00 340.00 173.80" xmlns="http://www.w3.org/2000/svg" xmlns:xlink="http://www.w3.org/1999/xlink">
<g id="graph0" class="graph" transform="scale(1 1) rotate(0) translate(4 169.8)">
<title>dependencies</title>
<polygon fill="white" stroke="transparent" points="-4,4 -4,-169.8 336,-169.8 336,4 -4,4"/>
<text text-anchor="middle" x="166" y="-8.2" font-family="sans-serif" font-size="14.00">dependencies</text>
<g id="clust1" class="cluster">
<title>cluster_CdcCoreModule</title>
<polygon fill="none" stroke="black" stroke-dasharray="1,5" points="8,-32.8 8,-157.8 324,-157.8 324,-32.8 8,-32.8"/>
</g>
<g id="clust3" class="cluster">
<title>cluster_CdcCoreModule_imports</title>
<polygon fill="none" stroke="black" points="190,-40.8 190,-92.8 316,-92.8 316,-40.8 190,-40.8"/>
</g>
<g id="clust6" class="cluster">
<title>cluster_CdcCoreModule_providers</title>
<polygon fill="none" stroke="black" points="16,-40.8 16,-92.8 182,-92.8 182,-40.8 16,-40.8"/>
</g>
<!-- CdcAuthModule -->
<g id="node1" class="node">
<title>CdcAuthModule</title>
<polygon fill="#8dd3c7" stroke="black" points="308.1,-84.8 305.1,-88.8 284.1,-88.8 281.1,-84.8 197.9,-84.8 197.9,-48.8 308.1,-48.8 308.1,-84.8"/>
<text text-anchor="middle" x="253" y="-62.6" font-family="Times,serif" font-size="14.00">CdcAuthModule</text>
</g>
<!-- CdcCoreModule -->
<g id="node2" class="node">
<title>CdcCoreModule</title>
<polygon fill="#8dd3c7" stroke="black" points="230.81,-149.8 227.81,-153.8 206.81,-153.8 203.81,-149.8 121.19,-149.8 121.19,-113.8 230.81,-113.8 230.81,-149.8"/>
<text text-anchor="middle" x="176" y="-127.6" font-family="Times,serif" font-size="14.00">CdcCoreModule</text>
</g>
<!-- CdcAuthModule&#45;&gt;CdcCoreModule -->
<g id="edge1" class="edge">
<title>CdcAuthModule&#45;&gt;CdcCoreModule</title>
<path fill="none" stroke="black" d="M214.3,-84.91C214.3,-84.91 214.3,-103.79 214.3,-103.79"/>
<polygon fill="black" stroke="black" points="210.8,-103.79 214.3,-113.79 217.8,-103.79 210.8,-103.79"/>
</g>
<!-- CdcAuthService -->
<g id="node3" class="node">
<title>CdcAuthService</title>
<ellipse fill="#fdb462" stroke="black" cx="99" cy="-66.8" rx="74.72" ry="18"/>
<text text-anchor="middle" x="99" y="-62.6" font-family="Times,serif" font-size="14.00">CdcAuthService</text>
</g>
<!-- CdcAuthService&#45;&gt;CdcCoreModule -->
<g id="edge2" class="edge">
<title>CdcAuthService&#45;&gt;CdcCoreModule</title>
<path fill="none" stroke="black" d="M147.6,-80.58C147.6,-80.58 147.6,-103.35 147.6,-103.35"/>
<polygon fill="black" stroke="black" points="144.1,-103.35 147.6,-113.35 151.1,-103.35 144.1,-103.35"/>
</g>
</g>
</svg>
