<?xml version="1.0" encoding="UTF-8" standalone="no"?>
<!DOCTYPE svg PUBLIC "-//W3C//DTD SVG 1.1//EN"
 "http://www.w3.org/Graphics/SVG/1.1/DTD/svg11.dtd">
<!-- Generated by graphviz version 2.47.0 (20210316.0004)
 -->
<!-- Title: dependencies Pages: 1 -->
<svg width="804pt" height="211pt"
 viewBox="0.00 0.00 804.00 211.00" xmlns="http://www.w3.org/2000/svg" xmlns:xlink="http://www.w3.org/1999/xlink">
<g id="graph0" class="graph" transform="scale(1 1) rotate(0) translate(4 207)">
<title>dependencies</title>
<polygon fill="white" stroke="transparent" points="-4,4 -4,-207 800,-207 800,4 -4,4"/>
<text text-anchor="start" x="377.01" y="-42.4" font-family="sans-serif" font-weight="bold" font-size="14.00">Legend</text>
<polygon fill="#ffffb3" stroke="transparent" points="164,-10 164,-30 184,-30 184,-10 164,-10"/>
<text text-anchor="start" x="187.63" y="-15.4" font-family="sans-serif" font-size="14.00"> &#160;Declarations</text>
<polygon fill="#8dd3c7" stroke="transparent" points="277,-10 277,-30 297,-30 297,-10 277,-10"/>
<text text-anchor="start" x="300.73" y="-15.4" font-family="sans-serif" font-size="14.00"> &#160;Module</text>
<polygon fill="#80b1d3" stroke="transparent" points="363,-10 363,-30 383,-30 383,-10 363,-10"/>
<text text-anchor="start" x="386.78" y="-15.4" font-family="sans-serif" font-size="14.00"> &#160;Bootstrap</text>
<polygon fill="#fdb462" stroke="transparent" points="460,-10 460,-30 480,-30 480,-10 460,-10"/>
<text text-anchor="start" x="483.67" y="-15.4" font-family="sans-serif" font-size="14.00"> &#160;Providers</text>
<polygon fill="#fb8072" stroke="transparent" points="556,-10 556,-30 576,-30 576,-10 556,-10"/>
<text text-anchor="start" x="579.73" y="-15.4" font-family="sans-serif" font-size="14.00"> &#160;Exports</text>
<g id="clust1" class="cluster">
<title>cluster_ConfirmationMessageModule</title>
<polygon fill="none" stroke="black" stroke-dasharray="1,5" points="8,-70 8,-195 788,-195 788,-70 8,-70"/>
</g>
<g id="clust2" class="cluster">
<title>cluster_ConfirmationMessageModule_declarations</title>
<polygon fill="none" stroke="black" points="558,-78 558,-130 780,-130 780,-78 558,-78"/>
</g>
<g id="clust4" class="cluster">
<title>cluster_ConfirmationMessageModule_imports</title>
<polygon fill="none" stroke="black" points="16,-78 16,-130 550,-130 550,-78 16,-78"/>
</g>
<!-- ConfirmationMessageComponent -->
<g id="node1" class="node">
<title>ConfirmationMessageComponent</title>
<polygon fill="#ffffb3" stroke="black" points="771.74,-122 566.26,-122 566.26,-86 771.74,-86 771.74,-122"/>
<text text-anchor="middle" x="669" y="-99.8" font-family="Times,serif" font-size="14.00">ConfirmationMessageComponent</text>
</g>
<!-- ConfirmationMessageModule -->
<g id="node2" class="node">
<title>ConfirmationMessageModule</title>
<polygon fill="#8dd3c7" stroke="black" points="426.96,-187 423.96,-191 402.96,-191 399.96,-187 243.04,-187 243.04,-151 426.96,-151 426.96,-187"/>
<text text-anchor="middle" x="335" y="-164.8" font-family="Times,serif" font-size="14.00">ConfirmationMessageModule</text>
</g>
<!-- ConfirmationMessageComponent&#45;&gt;ConfirmationMessageModule -->
<g id="edge1" class="edge">
<title>ConfirmationMessageComponent&#45;&gt;ConfirmationMessageModule</title>
<path fill="none" stroke="black" d="M669,-122.11C669,-141.34 669,-169 669,-169 669,-169 437.15,-169 437.15,-169"/>
<polygon fill="black" stroke="black" points="437.15,-165.5 427.15,-169 437.15,-172.5 437.15,-165.5"/>
</g>
<!-- FeaturesConfigModule -->
<g id="node3" class="node">
<title>FeaturesConfigModule</title>
<polygon fill="#8dd3c7" stroke="black" points="541.86,-122 538.86,-126 517.86,-126 514.86,-122 396.14,-122 396.14,-86 541.86,-86 541.86,-122"/>
<text text-anchor="middle" x="469" y="-99.8" font-family="Times,serif" font-size="14.00">FeaturesConfigModule</text>
</g>
<!-- FeaturesConfigModule&#45;&gt;ConfirmationMessageModule -->
<g id="edge2" class="edge">
<title>FeaturesConfigModule&#45;&gt;ConfirmationMessageModule</title>
<path fill="none" stroke="black" d="M411.53,-122.11C411.53,-122.11 411.53,-140.99 411.53,-140.99"/>
<polygon fill="black" stroke="black" points="408.03,-140.99 411.53,-150.99 415.03,-140.99 408.03,-140.99"/>
</g>
<!-- I18nModule -->
<g id="node4" class="node">
<title>I18nModule</title>
<polygon fill="#8dd3c7" stroke="black" points="377.71,-122 374.71,-126 353.71,-126 350.71,-122 292.29,-122 292.29,-86 377.71,-86 377.71,-122"/>
<text text-anchor="middle" x="335" y="-99.8" font-family="Times,serif" font-size="14.00">I18nModule</text>
</g>
<!-- I18nModule&#45;&gt;ConfirmationMessageModule -->
<g id="edge3" class="edge">
<title>I18nModule&#45;&gt;ConfirmationMessageModule</title>
<path fill="none" stroke="black" d="M335,-122.11C335,-122.11 335,-140.99 335,-140.99"/>
<polygon fill="black" stroke="black" points="331.5,-140.99 335,-150.99 338.5,-140.99 331.5,-140.99"/>
</g>
<!-- IconModule -->
<g id="node5" class="node">
<title>IconModule</title>
<polygon fill="#8dd3c7" stroke="black" points="274.43,-122 271.43,-126 250.43,-126 247.43,-122 189.57,-122 189.57,-86 274.43,-86 274.43,-122"/>
<text text-anchor="middle" x="232" y="-99.8" font-family="Times,serif" font-size="14.00">IconModule</text>
</g>
<!-- IconModule&#45;&gt;ConfirmationMessageModule -->
<g id="edge4" class="edge">
<title>IconModule&#45;&gt;ConfirmationMessageModule</title>
<path fill="none" stroke="black" d="M258.62,-122.11C258.62,-122.11 258.62,-140.99 258.62,-140.99"/>
<polygon fill="black" stroke="black" points="255.12,-140.99 258.62,-150.99 262.12,-140.99 255.12,-140.99"/>
</g>
<!-- KeyboardFocusModule -->
<g id="node6" class="node">
<title>KeyboardFocusModule</title>
<polygon fill="#8dd3c7" stroke="black" points="172.19,-122 169.19,-126 148.19,-126 145.19,-122 23.81,-122 23.81,-86 172.19,-86 172.19,-122"/>
<text text-anchor="middle" x="98" y="-99.8" font-family="Times,serif" font-size="14.00">KeyboardFocusModule</text>
</g>
<!-- KeyboardFocusModule&#45;&gt;ConfirmationMessageModule -->
<g id="edge5" class="edge">
<title>KeyboardFocusModule&#45;&gt;ConfirmationMessageModule</title>
<path fill="none" stroke="black" d="M98,-122.11C98,-141.34 98,-169 98,-169 98,-169 233.03,-169 233.03,-169"/>
<polygon fill="black" stroke="black" points="233.03,-172.5 243.03,-169 233.03,-165.5 233.03,-172.5"/>
</g>
</g>
</svg>
