<?xml version="1.0" encoding="UTF-8" standalone="no"?>
<!DOCTYPE svg PUBLIC "-//W3C//DTD SVG 1.1//EN"
 "http://www.w3.org/Graphics/SVG/1.1/DTD/svg11.dtd">
<!-- Generated by graphviz version 2.40.1 (20161225.0304)
 -->
<!-- Title: dependencies Pages: 1 -->
<svg width="640pt" height="211pt"
 viewBox="0.00 0.00 640.00 211.00" xmlns="http://www.w3.org/2000/svg" xmlns:xlink="http://www.w3.org/1999/xlink">
<g id="graph0" class="graph" transform="scale(1 1) rotate(0) translate(4 207)">
<title>dependencies</title>
<polygon fill="#ffffff" stroke="transparent" points="-4,4 -4,-207 636,-207 636,4 -4,4"/>
<text text-anchor="start" x="295.0091" y="-42.4" font-family="sans-serif" font-weight="bold" font-size="14.00" fill="#000000">Legend</text>
<polygon fill="#ffffb3" stroke="transparent" points="82,-10 82,-30 102,-30 102,-10 82,-10"/>
<text text-anchor="start" x="105.629" y="-15.4" font-family="sans-serif" font-size="14.00" fill="#000000"> &#160;Declarations</text>
<polygon fill="#8dd3c7" stroke="transparent" points="195,-10 195,-30 215,-30 215,-10 195,-10"/>
<text text-anchor="start" x="218.7251" y="-15.4" font-family="sans-serif" font-size="14.00" fill="#000000"> &#160;Module</text>
<polygon fill="#80b1d3" stroke="transparent" points="281,-10 281,-30 301,-30 301,-10 281,-10"/>
<text text-anchor="start" x="304.7812" y="-15.4" font-family="sans-serif" font-size="14.00" fill="#000000"> &#160;Bootstrap</text>
<polygon fill="#fdb462" stroke="transparent" points="378,-10 378,-30 398,-30 398,-10 378,-10"/>
<text text-anchor="start" x="401.6732" y="-15.4" font-family="sans-serif" font-size="14.00" fill="#000000"> &#160;Providers</text>
<polygon fill="#fb8072" stroke="transparent" points="474,-10 474,-30 494,-30 494,-10 474,-10"/>
<text text-anchor="start" x="497.7258" y="-15.4" font-family="sans-serif" font-size="14.00" fill="#000000"> &#160;Exports</text>
<g id="clust1" class="cluster">
<title>cluster_ConfirmationMessageModule</title>
<polygon fill="none" stroke="#000000" stroke-dasharray="1,5" points="8,-70 8,-195 624,-195 624,-70 8,-70"/>
</g>
<g id="clust2" class="cluster">
<title>cluster_ConfirmationMessageModule_declarations</title>
<polygon fill="none" stroke="#000000" points="394,-78 394,-130 616,-130 616,-78 394,-78"/>
</g>
<g id="clust4" class="cluster">
<title>cluster_ConfirmationMessageModule_imports</title>
<polygon fill="none" stroke="#000000" points="16,-78 16,-130 386,-130 386,-78 16,-78"/>
</g>
<!-- ConfirmationMessageComponent -->
<g id="node1" class="node">
<title>ConfirmationMessageComponent</title>
<polygon fill="#ffffb3" stroke="#000000" points="607.745,-122 402.255,-122 402.255,-86 607.745,-86 607.745,-122"/>
<text text-anchor="middle" x="505" y="-99.8" font-family="Times,serif" font-size="14.00" fill="#000000">ConfirmationMessageComponent</text>
</g>
<!-- ConfirmationMessageModule -->
<g id="node2" class="node">
<title>ConfirmationMessageModule</title>
<polygon fill="#8dd3c7" stroke="#000000" points="374.9622,-187 371.9622,-191 350.9622,-191 347.9622,-187 191.0378,-187 191.0378,-151 374.9622,-151 374.9622,-187"/>
<text text-anchor="middle" x="283" y="-164.8" font-family="Times,serif" font-size="14.00" fill="#000000">ConfirmationMessageModule</text>
</g>
<!-- ConfirmationMessageComponent&#45;&gt;ConfirmationMessageModule -->
<g id="edge1" class="edge">
<title>ConfirmationMessageComponent&#45;&gt;ConfirmationMessageModule</title>
<path fill="none" stroke="#000000" d="M505,-122.1061C505,-141.3391 505,-169 505,-169 505,-169 385.2194,-169 385.2194,-169"/>
<polygon fill="#000000" stroke="#000000" points="385.2194,-165.5001 375.2194,-169 385.2193,-172.5001 385.2194,-165.5001"/>
</g>
<!-- I18nModule -->
<g id="node3" class="node">
<title>I18nModule</title>
<polygon fill="#8dd3c7" stroke="#000000" points="377.7107,-122 374.7107,-126 353.7107,-126 350.7107,-122 292.2893,-122 292.2893,-86 377.7107,-86 377.7107,-122"/>
<text text-anchor="middle" x="335" y="-99.8" font-family="Times,serif" font-size="14.00" fill="#000000">I18nModule</text>
</g>
<!-- I18nModule&#45;&gt;ConfirmationMessageModule -->
<g id="edge2" class="edge">
<title>I18nModule&#45;&gt;ConfirmationMessageModule</title>
<path fill="none" stroke="#000000" d="M333.688,-122.1061C333.688,-122.1061 333.688,-140.991 333.688,-140.991"/>
<polygon fill="#000000" stroke="#000000" points="330.188,-140.9909 333.688,-150.991 337.188,-140.991 330.188,-140.9909"/>
</g>
<!-- IconModule -->
<g id="node4" class="node">
<title>IconModule</title>
<polygon fill="#8dd3c7" stroke="#000000" points="274.4261,-122 271.4261,-126 250.4261,-126 247.4261,-122 189.5739,-122 189.5739,-86 274.4261,-86 274.4261,-122"/>
<text text-anchor="middle" x="232" y="-99.8" font-family="Times,serif" font-size="14.00" fill="#000000">IconModule</text>
</g>
<!-- IconModule&#45;&gt;ConfirmationMessageModule -->
<g id="edge3" class="edge">
<title>IconModule&#45;&gt;ConfirmationMessageModule</title>
<path fill="none" stroke="#000000" d="M232.6157,-122.1061C232.6157,-122.1061 232.6157,-140.991 232.6157,-140.991"/>
<polygon fill="#000000" stroke="#000000" points="229.1158,-140.9909 232.6157,-150.991 236.1158,-140.991 229.1158,-140.9909"/>
</g>
<!-- KeyboardFocusModule -->
<g id="node5" class="node">
<title>KeyboardFocusModule</title>
<polygon fill="#8dd3c7" stroke="#000000" points="172.1881,-122 169.1881,-126 148.1881,-126 145.1881,-122 23.8119,-122 23.8119,-86 172.1881,-86 172.1881,-122"/>
<text text-anchor="middle" x="98" y="-99.8" font-family="Times,serif" font-size="14.00" fill="#000000">KeyboardFocusModule</text>
</g>
<!-- KeyboardFocusModule&#45;&gt;ConfirmationMessageModule -->
<g id="edge4" class="edge">
<title>KeyboardFocusModule&#45;&gt;ConfirmationMessageModule</title>
<path fill="none" stroke="#000000" d="M98,-122.1061C98,-141.3391 98,-169 98,-169 98,-169 180.771,-169 180.771,-169"/>
<polygon fill="#000000" stroke="#000000" points="180.771,-172.5001 190.771,-169 180.771,-165.5001 180.771,-172.5001"/>
</g>
</g>
</svg>
