<?xml version="1.0" encoding="UTF-8" standalone="no"?>
<!DOCTYPE svg PUBLIC "-//W3C//DTD SVG 1.1//EN"
 "http://www.w3.org/Graphics/SVG/1.1/DTD/svg11.dtd">
<!-- Generated by graphviz version 2.40.1 (20161225.0304)
 -->
<!-- Title: dependencies Pages: 1 -->
<svg width="504pt" height="211pt"
 viewBox="0.00 0.00 504.00 211.00" xmlns="http://www.w3.org/2000/svg" xmlns:xlink="http://www.w3.org/1999/xlink">
<g id="graph0" class="graph" transform="scale(1 1) rotate(0) translate(4 207)">
<title>dependencies</title>
<polygon fill="#ffffff" stroke="transparent" points="-4,4 -4,-207 500,-207 500,4 -4,4"/>
<text text-anchor="start" x="227.0091" y="-42.4" font-family="sans-serif" font-weight="bold" font-size="14.00" fill="#000000">Legend</text>
<polygon fill="#ffffb3" stroke="transparent" points="14,-10 14,-30 34,-30 34,-10 14,-10"/>
<text text-anchor="start" x="37.629" y="-15.4" font-family="sans-serif" font-size="14.00" fill="#000000"> &#160;Declarations</text>
<polygon fill="#8dd3c7" stroke="transparent" points="127,-10 127,-30 147,-30 147,-10 127,-10"/>
<text text-anchor="start" x="150.7251" y="-15.4" font-family="sans-serif" font-size="14.00" fill="#000000"> &#160;Module</text>
<polygon fill="#80b1d3" stroke="transparent" points="213,-10 213,-30 233,-30 233,-10 213,-10"/>
<text text-anchor="start" x="236.7812" y="-15.4" font-family="sans-serif" font-size="14.00" fill="#000000"> &#160;Bootstrap</text>
<polygon fill="#fdb462" stroke="transparent" points="310,-10 310,-30 330,-30 330,-10 310,-10"/>
<text text-anchor="start" x="333.6732" y="-15.4" font-family="sans-serif" font-size="14.00" fill="#000000"> &#160;Providers</text>
<polygon fill="#fb8072" stroke="transparent" points="406,-10 406,-30 426,-30 426,-10 406,-10"/>
<text text-anchor="start" x="429.7258" y="-15.4" font-family="sans-serif" font-size="14.00" fill="#000000"> &#160;Exports</text>
<g id="clust1" class="cluster">
<title>cluster_SiteContextOccModule</title>
<polygon fill="none" stroke="#000000" stroke-dasharray="1,5" points="108,-70 108,-195 388,-195 388,-70 108,-70"/>
</g>
<g id="clust3" class="cluster">
<title>cluster_SiteContextOccModule_imports</title>
<polygon fill="none" stroke="#000000" points="282,-78 282,-130 380,-130 380,-78 282,-78"/>
</g>
<g id="clust6" class="cluster">
<title>cluster_SiteContextOccModule_providers</title>
<polygon fill="none" stroke="#000000" points="116,-78 116,-130 274,-130 274,-78 116,-78"/>
</g>
<!-- OccModule -->
<g id="node1" class="node">
<title>OccModule</title>
<polygon fill="#8dd3c7" stroke="#000000" points="372.0856,-122 369.0856,-126 348.0856,-126 345.0856,-122 289.9144,-122 289.9144,-86 372.0856,-86 372.0856,-122"/>
<text text-anchor="middle" x="331" y="-99.8" font-family="Times,serif" font-size="14.00" fill="#000000">OccModule</text>
</g>
<!-- SiteContextOccModule -->
<g id="node2" class="node">
<title>SiteContextOccModule</title>
<polygon fill="#8dd3c7" stroke="#000000" points="324.1965,-187 321.1965,-191 300.1965,-191 297.1965,-187 175.8035,-187 175.8035,-151 324.1965,-151 324.1965,-187"/>
<text text-anchor="middle" x="250" y="-164.8" font-family="Times,serif" font-size="14.00" fill="#000000">SiteContextOccModule</text>
</g>
<!-- OccModule&#45;&gt;SiteContextOccModule -->
<g id="edge1" class="edge">
<title>OccModule&#45;&gt;SiteContextOccModule</title>
<path fill="none" stroke="#000000" d="M307.0277,-122.1061C307.0277,-122.1061 307.0277,-140.991 307.0277,-140.991"/>
<polygon fill="#000000" stroke="#000000" points="303.5278,-140.9909 307.0277,-150.991 310.5278,-140.991 303.5278,-140.9909"/>
</g>
<!-- OccSiteService -->
<g id="node3" class="node">
<title>OccSiteService</title>
<ellipse fill="#fdb462" stroke="#000000" cx="195" cy="-104" rx="70.6181" ry="18"/>
<text text-anchor="middle" x="195" y="-99.8" font-family="Times,serif" font-size="14.00" fill="#000000">OccSiteService</text>
</g>
<!-- OccSiteService&#45;&gt;SiteContextOccModule -->
<g id="edge2" class="edge">
<title>OccSiteService&#45;&gt;SiteContextOccModule</title>
<path fill="none" stroke="#000000" d="M220.7304,-121.078C220.7304,-121.078 220.7304,-140.8993 220.7304,-140.8993"/>
<polygon fill="#000000" stroke="#000000" points="217.2305,-140.8992 220.7304,-150.8993 224.2305,-140.8993 217.2305,-140.8992"/>
</g>
</g>
</svg>
