<?xml version="1.0" encoding="UTF-8" standalone="no"?>
<!DOCTYPE svg PUBLIC "-//W3C//DTD SVG 1.1//EN"
 "http://www.w3.org/Graphics/SVG/1.1/DTD/svg11.dtd">
<!-- Generated by graphviz version 2.47.0 (20210316.0004)
 -->
<!-- Title: dependencies Pages: 1 -->
<svg width="937pt" height="211pt"
 viewBox="0.00 0.00 937.00 211.00" xmlns="http://www.w3.org/2000/svg" xmlns:xlink="http://www.w3.org/1999/xlink">
<g id="graph0" class="graph" transform="scale(1 1) rotate(0) translate(4 207)">
<title>dependencies</title>
<polygon fill="white" stroke="transparent" points="-4,4 -4,-207 933,-207 933,4 -4,4"/>
<text text-anchor="start" x="443.51" y="-42.4" font-family="sans-serif" font-weight="bold" font-size="14.00">Legend</text>
<polygon fill="#ffffb3" stroke="transparent" points="230.5,-10 230.5,-30 250.5,-30 250.5,-10 230.5,-10"/>
<text text-anchor="start" x="254.13" y="-15.4" font-family="sans-serif" font-size="14.00"> &#160;Declarations</text>
<polygon fill="#8dd3c7" stroke="transparent" points="343.5,-10 343.5,-30 363.5,-30 363.5,-10 343.5,-10"/>
<text text-anchor="start" x="367.23" y="-15.4" font-family="sans-serif" font-size="14.00"> &#160;Module</text>
<polygon fill="#80b1d3" stroke="transparent" points="429.5,-10 429.5,-30 449.5,-30 449.5,-10 429.5,-10"/>
<text text-anchor="start" x="453.28" y="-15.4" font-family="sans-serif" font-size="14.00"> &#160;Bootstrap</text>
<polygon fill="#fdb462" stroke="transparent" points="526.5,-10 526.5,-30 546.5,-30 546.5,-10 526.5,-10"/>
<text text-anchor="start" x="550.17" y="-15.4" font-family="sans-serif" font-size="14.00"> &#160;Providers</text>
<polygon fill="#fb8072" stroke="transparent" points="622.5,-10 622.5,-30 642.5,-30 642.5,-10 622.5,-10"/>
<text text-anchor="start" x="646.23" y="-15.4" font-family="sans-serif" font-size="14.00"> &#160;Exports</text>
<g id="clust1" class="cluster">
<title>cluster_ReplenishmentOrderConfirmationModule</title>
<polygon fill="none" stroke="black" stroke-dasharray="1,5" points="8,-70 8,-195 921,-195 921,-70 8,-70"/>
</g>
<g id="clust3" class="cluster">
<title>cluster_ReplenishmentOrderConfirmationModule_imports</title>
<polygon fill="none" stroke="black" points="16,-78 16,-130 913,-130 913,-78 16,-78"/>
</g>
<!-- CardModule -->
<g id="node1" class="node">
<title>CardModule</title>
<polygon fill="#8dd3c7" stroke="black" points="905.26,-122 902.26,-126 881.26,-126 878.26,-122 818.74,-122 818.74,-86 905.26,-86 905.26,-122"/>
<text text-anchor="middle" x="862" y="-99.8" font-family="Times,serif" font-size="14.00">CardModule</text>
</g>
<!-- ReplenishmentOrderConfirmationModule -->
<g id="node8" class="node">
<title>ReplenishmentOrderConfirmationModule</title>
<polygon fill="#8dd3c7" stroke="black" points="559.61,-187 556.61,-191 535.61,-191 532.61,-187 308.39,-187 308.39,-151 559.61,-151 559.61,-187"/>
<text text-anchor="middle" x="434" y="-164.8" font-family="Times,serif" font-size="14.00">ReplenishmentOrderConfirmationModule</text>
</g>
<!-- CardModule&#45;&gt;ReplenishmentOrderConfirmationModule -->
<g id="edge1" class="edge">
<title>CardModule&#45;&gt;ReplenishmentOrderConfirmationModule</title>
<path fill="none" stroke="black" d="M862,-122.28C862,-143.32 862,-175 862,-175 862,-175 569.81,-175 569.81,-175"/>
<polygon fill="black" stroke="black" points="569.81,-171.5 559.81,-175 569.81,-178.5 569.81,-171.5"/>
</g>
<!-- CartSharedModule -->
<g id="node2" class="node">
<title>CartSharedModule</title>
<polygon fill="#8dd3c7" stroke="black" points="800.03,-122 797.03,-126 776.03,-126 773.03,-122 677.97,-122 677.97,-86 800.03,-86 800.03,-122"/>
<text text-anchor="middle" x="739" y="-99.8" font-family="Times,serif" font-size="14.00">CartSharedModule</text>
</g>
<!-- CartSharedModule&#45;&gt;ReplenishmentOrderConfirmationModule -->
<g id="edge2" class="edge">
<title>CartSharedModule&#45;&gt;ReplenishmentOrderConfirmationModule</title>
<path fill="none" stroke="black" d="M739,-122.02C739,-139.37 739,-163 739,-163 739,-163 569.82,-163 569.82,-163"/>
<polygon fill="black" stroke="black" points="569.82,-159.5 559.82,-163 569.82,-166.5 569.82,-159.5"/>
</g>
<!-- FeaturesConfigModule -->
<g id="node3" class="node">
<title>FeaturesConfigModule</title>
<polygon fill="#8dd3c7" stroke="black" points="659.86,-122 656.86,-126 635.86,-126 632.86,-122 514.14,-122 514.14,-86 659.86,-86 659.86,-122"/>
<text text-anchor="middle" x="587" y="-99.8" font-family="Times,serif" font-size="14.00">FeaturesConfigModule</text>
</g>
<!-- FeaturesConfigModule&#45;&gt;ReplenishmentOrderConfirmationModule -->
<g id="edge3" class="edge">
<title>FeaturesConfigModule&#45;&gt;ReplenishmentOrderConfirmationModule</title>
<path fill="none" stroke="black" d="M536.94,-122.11C536.94,-122.11 536.94,-140.99 536.94,-140.99"/>
<polygon fill="black" stroke="black" points="533.44,-140.99 536.94,-150.99 540.44,-140.99 533.44,-140.99"/>
</g>
<!-- FormErrorsModule -->
<g id="node4" class="node">
<title>FormErrorsModule</title>
<polygon fill="#8dd3c7" stroke="black" points="496.36,-122 493.36,-126 472.36,-126 469.36,-122 371.64,-122 371.64,-86 496.36,-86 496.36,-122"/>
<text text-anchor="middle" x="434" y="-99.8" font-family="Times,serif" font-size="14.00">FormErrorsModule</text>
</g>
<!-- FormErrorsModule&#45;&gt;ReplenishmentOrderConfirmationModule -->
<g id="edge4" class="edge">
<title>FormErrorsModule&#45;&gt;ReplenishmentOrderConfirmationModule</title>
<path fill="none" stroke="black" d="M434,-122.11C434,-122.11 434,-140.99 434,-140.99"/>
<polygon fill="black" stroke="black" points="430.5,-140.99 434,-150.99 437.5,-140.99 430.5,-140.99"/>
</g>
<!-- I18nModule -->
<g id="node5" class="node">
<title>I18nModule</title>
<polygon fill="#8dd3c7" stroke="black" points="353.71,-122 350.71,-126 329.71,-126 326.71,-122 268.29,-122 268.29,-86 353.71,-86 353.71,-122"/>
<text text-anchor="middle" x="311" y="-99.8" font-family="Times,serif" font-size="14.00">I18nModule</text>
</g>
<!-- I18nModule&#45;&gt;ReplenishmentOrderConfirmationModule -->
<g id="edge5" class="edge">
<title>I18nModule&#45;&gt;ReplenishmentOrderConfirmationModule</title>
<path fill="none" stroke="black" d="M330.9,-122.11C330.9,-122.11 330.9,-140.99 330.9,-140.99"/>
<polygon fill="black" stroke="black" points="327.4,-140.99 330.9,-150.99 334.4,-140.99 327.4,-140.99"/>
</g>
<!-- PromotionsModule -->
<g id="node6" class="node">
<title>PromotionsModule</title>
<polygon fill="#8dd3c7" stroke="black" points="250.11,-122 247.11,-126 226.11,-126 223.11,-122 125.89,-122 125.89,-86 250.11,-86 250.11,-122"/>
<text text-anchor="middle" x="188" y="-99.8" font-family="Times,serif" font-size="14.00">PromotionsModule</text>
</g>
<!-- PromotionsModule&#45;&gt;ReplenishmentOrderConfirmationModule -->
<g id="edge6" class="edge">
<title>PromotionsModule&#45;&gt;ReplenishmentOrderConfirmationModule</title>
<path fill="none" stroke="black" d="M188,-122.02C188,-139.37 188,-163 188,-163 188,-163 298.12,-163 298.12,-163"/>
<polygon fill="black" stroke="black" points="298.12,-166.5 308.12,-163 298.12,-159.5 298.12,-166.5"/>
</g>
<!-- PwaModule -->
<g id="node7" class="node">
<title>PwaModule</title>
<polygon fill="#8dd3c7" stroke="black" points="107.65,-122 104.65,-126 83.65,-126 80.65,-122 24.35,-122 24.35,-86 107.65,-86 107.65,-122"/>
<text text-anchor="middle" x="66" y="-99.8" font-family="Times,serif" font-size="14.00">PwaModule</text>
</g>
<!-- PwaModule&#45;&gt;ReplenishmentOrderConfirmationModule -->
<g id="edge7" class="edge">
<title>PwaModule&#45;&gt;ReplenishmentOrderConfirmationModule</title>
<path fill="none" stroke="black" d="M66,-122.28C66,-143.32 66,-175 66,-175 66,-175 298.38,-175 298.38,-175"/>
<polygon fill="black" stroke="black" points="298.38,-178.5 308.38,-175 298.38,-171.5 298.38,-178.5"/>
</g>
</g>
</svg>
