<?xml version="1.0" encoding="UTF-8" standalone="no"?>
<!DOCTYPE svg PUBLIC "-//W3C//DTD SVG 1.1//EN"
 "http://www.w3.org/Graphics/SVG/1.1/DTD/svg11.dtd">
<!-- Generated by graphviz version 2.47.3 (20210619.1520)
 -->
<!-- Title: dependencies Pages: 1 -->
<svg width="391pt" height="174pt"
 viewBox="0.00 0.00 391.00 173.80" xmlns="http://www.w3.org/2000/svg" xmlns:xlink="http://www.w3.org/1999/xlink">
<g id="graph0" class="graph" transform="scale(1 1) rotate(0) translate(4 169.8)">
<title>dependencies</title>
<polygon fill="white" stroke="transparent" points="-4,4 -4,-169.8 387,-169.8 387,4 -4,4"/>
<text text-anchor="middle" x="191.5" y="-8.2" font-family="sans-serif" font-size="14.00">dependencies</text>
<g id="clust1" class="cluster">
<title>cluster_MockFeatureDirectivesModule</title>
<polygon fill="none" stroke="black" stroke-dasharray="1,5" points="8,-32.8 8,-157.8 375,-157.8 375,-32.8 8,-32.8"/>
</g>
<g id="clust2" class="cluster">
<title>cluster_MockFeatureDirectivesModule_declarations</title>
<polygon fill="none" stroke="black" points="16,-40.8 16,-92.8 367,-92.8 367,-40.8 16,-40.8"/>
</g>
<!-- MockFeatureDirective -->
<g id="node1" class="node">
<title>MockFeatureDirective</title>
<polygon fill="#ffffb3" stroke="black" points="359.22,-84.8 216.78,-84.8 216.78,-48.8 359.22,-48.8 359.22,-84.8"/>
<text text-anchor="middle" x="288" y="-62.6" font-family="Times,serif" font-size="14.00">MockFeatureDirective</text>
</g>
<!-- MockFeatureDirectivesModule -->
<g id="node3" class="node">
<title>MockFeatureDirectivesModule</title>
<polygon fill="#8dd3c7" stroke="black" points="286.71,-149.8 283.71,-153.8 262.71,-153.8 259.71,-149.8 95.29,-149.8 95.29,-113.8 286.71,-113.8 286.71,-149.8"/>
<text text-anchor="middle" x="191" y="-127.6" font-family="Times,serif" font-size="14.00">MockFeatureDirectivesModule</text>
</g>
<!-- MockFeatureDirective&#45;&gt;MockFeatureDirectivesModule -->
<g id="edge1" class="edge">
<title>MockFeatureDirective&#45;&gt;MockFeatureDirectivesModule</title>
<path fill="none" stroke="black" d="M251.75,-84.91C251.75,-84.91 251.75,-103.79 251.75,-103.79"/>
<polygon fill="black" stroke="black" points="248.25,-103.79 251.75,-113.79 255.25,-103.79 248.25,-103.79"/>
</g>
<!-- MockFeatureLevelDirective -->
<g id="node2" class="node">
<title>MockFeatureLevelDirective</title>
<polygon fill="#ffffb3" stroke="black" points="198.09,-84.8 23.91,-84.8 23.91,-48.8 198.09,-48.8 198.09,-84.8"/>
<text text-anchor="middle" x="111" y="-62.6" font-family="Times,serif" font-size="14.00">MockFeatureLevelDirective</text>
</g>
<!-- MockFeatureLevelDirective&#45;&gt;MockFeatureDirectivesModule -->
<g id="edge2" class="edge">
<title>MockFeatureLevelDirective&#45;&gt;MockFeatureDirectivesModule</title>
<path fill="none" stroke="black" d="M146.72,-84.91C146.72,-84.91 146.72,-103.79 146.72,-103.79"/>
<polygon fill="black" stroke="black" points="143.22,-103.79 146.72,-113.79 150.22,-103.79 143.22,-103.79"/>
</g>
</g>
</svg>
