<?xml version="1.0" encoding="UTF-8" standalone="no"?>
<!DOCTYPE svg PUBLIC "-//W3C//DTD SVG 1.1//EN"
 "http://www.w3.org/Graphics/SVG/1.1/DTD/svg11.dtd">
<!-- Generated by graphviz version 2.40.1 (20161225.0304)
 -->
<!-- Title: dependencies Pages: 1 -->
<svg width="504pt" height="211pt"
 viewBox="0.00 0.00 504.00 211.00" xmlns="http://www.w3.org/2000/svg" xmlns:xlink="http://www.w3.org/1999/xlink">
<g id="graph0" class="graph" transform="scale(1 1) rotate(0) translate(4 207)">
<title>dependencies</title>
<polygon fill="#ffffff" stroke="transparent" points="-4,4 -4,-207 500,-207 500,4 -4,4"/>
<text text-anchor="start" x="227.0091" y="-42.4" font-family="sans-serif" font-weight="bold" font-size="14.00" fill="#000000">Legend</text>
<polygon fill="#ffffb3" stroke="transparent" points="14,-10 14,-30 34,-30 34,-10 14,-10"/>
<text text-anchor="start" x="37.629" y="-15.4" font-family="sans-serif" font-size="14.00" fill="#000000"> &#160;Declarations</text>
<polygon fill="#8dd3c7" stroke="transparent" points="127,-10 127,-30 147,-30 147,-10 127,-10"/>
<text text-anchor="start" x="150.7251" y="-15.4" font-family="sans-serif" font-size="14.00" fill="#000000"> &#160;Module</text>
<polygon fill="#80b1d3" stroke="transparent" points="213,-10 213,-30 233,-30 233,-10 213,-10"/>
<text text-anchor="start" x="236.7812" y="-15.4" font-family="sans-serif" font-size="14.00" fill="#000000"> &#160;Bootstrap</text>
<polygon fill="#fdb462" stroke="transparent" points="310,-10 310,-30 330,-30 330,-10 310,-10"/>
<text text-anchor="start" x="333.6732" y="-15.4" font-family="sans-serif" font-size="14.00" fill="#000000"> &#160;Providers</text>
<polygon fill="#fb8072" stroke="transparent" points="406,-10 406,-30 426,-30 426,-10 406,-10"/>
<text text-anchor="start" x="429.7258" y="-15.4" font-family="sans-serif" font-size="14.00" fill="#000000"> &#160;Exports</text>
<g id="clust1" class="cluster">
<title>cluster_MockFeatureDirectivesModule</title>
<polygon fill="none" stroke="#000000" stroke-dasharray="1,5" points="64.5,-70 64.5,-195 431.5,-195 431.5,-70 64.5,-70"/>
</g>
<g id="clust2" class="cluster">
<title>cluster_MockFeatureDirectivesModule_declarations</title>
<polygon fill="none" stroke="#000000" points="72.5,-78 72.5,-130 423.5,-130 423.5,-78 72.5,-78"/>
</g>
<!-- MockFeatureDirective -->
<g id="node1" class="node">
<title>MockFeatureDirective</title>
<polygon fill="#ffffb3" stroke="#000000" points="415.7199,-122 273.2801,-122 273.2801,-86 415.7199,-86 415.7199,-122"/>
<text text-anchor="middle" x="344.5" y="-99.8" font-family="Times,serif" font-size="14.00" fill="#000000">MockFeatureDirective</text>
</g>
<!-- MockFeatureDirectivesModule -->
<g id="node3" class="node">
<title>MockFeatureDirectivesModule</title>
<polygon fill="#8dd3c7" stroke="#000000" points="343.2142,-187 340.2142,-191 319.2142,-191 316.2142,-187 151.7858,-187 151.7858,-151 343.2142,-151 343.2142,-187"/>
<text text-anchor="middle" x="247.5" y="-164.8" font-family="Times,serif" font-size="14.00" fill="#000000">MockFeatureDirectivesModule</text>
</g>
<!-- MockFeatureDirective&#45;&gt;MockFeatureDirectivesModule -->
<g id="edge1" class="edge">
<title>MockFeatureDirective&#45;&gt;MockFeatureDirectivesModule</title>
<path fill="none" stroke="#000000" d="M308.2486,-122.1061C308.2486,-122.1061 308.2486,-140.991 308.2486,-140.991"/>
<polygon fill="#000000" stroke="#000000" points="304.7487,-140.9909 308.2486,-150.991 311.7487,-140.991 304.7487,-140.9909"/>
</g>
<!-- MockFeatureLevelDirective -->
<g id="node2" class="node">
<title>MockFeatureLevelDirective</title>
<polygon fill="#ffffb3" stroke="#000000" points="254.5925,-122 80.4075,-122 80.4075,-86 254.5925,-86 254.5925,-122"/>
<text text-anchor="middle" x="167.5" y="-99.8" font-family="Times,serif" font-size="14.00" fill="#000000">MockFeatureLevelDirective</text>
</g>
<!-- MockFeatureLevelDirective&#45;&gt;MockFeatureDirectivesModule -->
<g id="edge2" class="edge">
<title>MockFeatureLevelDirective&#45;&gt;MockFeatureDirectivesModule</title>
<path fill="none" stroke="#000000" d="M203.2195,-122.1061C203.2195,-122.1061 203.2195,-140.991 203.2195,-140.991"/>
<polygon fill="#000000" stroke="#000000" points="199.7196,-140.9909 203.2195,-150.991 206.7196,-140.991 199.7196,-140.9909"/>
</g>
</g>
</svg>
