<?xml version="1.0" encoding="UTF-8" standalone="no"?>
<!DOCTYPE svg PUBLIC "-//W3C//DTD SVG 1.1//EN"
 "http://www.w3.org/Graphics/SVG/1.1/DTD/svg11.dtd">
<!-- Generated by graphviz version 2.47.0 (20210316.0004)
 -->
<!-- Title: dependencies Pages: 1 -->
<svg width="1345pt" height="211pt"
 viewBox="0.00 0.00 1345.00 211.00" xmlns="http://www.w3.org/2000/svg" xmlns:xlink="http://www.w3.org/1999/xlink">
<g id="graph0" class="graph" transform="scale(1 1) rotate(0) translate(4 207)">
<title>dependencies</title>
<polygon fill="white" stroke="transparent" points="-4,4 -4,-207 1341,-207 1341,4 -4,4"/>
<text text-anchor="start" x="647.51" y="-42.4" font-family="sans-serif" font-weight="bold" font-size="14.00">Legend</text>
<polygon fill="#ffffb3" stroke="transparent" points="434.5,-10 434.5,-30 454.5,-30 454.5,-10 434.5,-10"/>
<text text-anchor="start" x="458.13" y="-15.4" font-family="sans-serif" font-size="14.00"> &#160;Declarations</text>
<polygon fill="#8dd3c7" stroke="transparent" points="547.5,-10 547.5,-30 567.5,-30 567.5,-10 547.5,-10"/>
<text text-anchor="start" x="571.23" y="-15.4" font-family="sans-serif" font-size="14.00"> &#160;Module</text>
<polygon fill="#80b1d3" stroke="transparent" points="633.5,-10 633.5,-30 653.5,-30 653.5,-10 633.5,-10"/>
<text text-anchor="start" x="657.28" y="-15.4" font-family="sans-serif" font-size="14.00"> &#160;Bootstrap</text>
<polygon fill="#fdb462" stroke="transparent" points="730.5,-10 730.5,-30 750.5,-30 750.5,-10 730.5,-10"/>
<text text-anchor="start" x="754.17" y="-15.4" font-family="sans-serif" font-size="14.00"> &#160;Providers</text>
<polygon fill="#fb8072" stroke="transparent" points="826.5,-10 826.5,-30 846.5,-30 846.5,-10 826.5,-10"/>
<text text-anchor="start" x="850.23" y="-15.4" font-family="sans-serif" font-size="14.00"> &#160;Exports</text>
<g id="clust1" class="cluster">
<title>cluster_OccModule</title>
<polygon fill="none" stroke="black" stroke-dasharray="1,5" points="8,-70 8,-195 1329,-195 1329,-70 8,-70"/>
</g>
<g id="clust3" class="cluster">
<title>cluster_OccModule_imports</title>
<polygon fill="none" stroke="black" points="16,-78 16,-130 1321,-130 1321,-78 16,-78"/>
</g>
<!-- AsmOccModule -->
<g id="node1" class="node">
<title>AsmOccModule</title>
<polygon fill="#8dd3c7" stroke="black" points="1313.03,-122 1310.03,-126 1289.03,-126 1286.03,-122 1204.97,-122 1204.97,-86 1313.03,-86 1313.03,-122"/>
<text text-anchor="middle" x="1259" y="-99.8" font-family="Times,serif" font-size="14.00">AsmOccModule</text>
</g>
<!-- OccModule -->
<g id="node10" class="node">
<title>OccModule</title>
<polygon fill="#8dd3c7" stroke="black" points="752.09,-187 749.09,-191 728.09,-191 725.09,-187 669.91,-187 669.91,-151 752.09,-151 752.09,-187"/>
<text text-anchor="middle" x="711" y="-164.8" font-family="Times,serif" font-size="14.00">OccModule</text>
</g>
<!-- AsmOccModule&#45;&gt;OccModule -->
<g id="edge1" class="edge">
<title>AsmOccModule&#45;&gt;OccModule</title>
<path fill="none" stroke="black" d="M1259,-122.01C1259,-144.49 1259,-180 1259,-180 1259,-180 762.19,-180 762.19,-180"/>
<polygon fill="black" stroke="black" points="762.19,-176.5 752.19,-180 762.19,-183.5 762.19,-176.5"/>
</g>
<!-- CartOccModule -->
<g id="node2" class="node">
<title>CartOccModule</title>
<polygon fill="#8dd3c7" stroke="black" points="1187.19,-122 1184.19,-126 1163.19,-126 1160.19,-122 1080.81,-122 1080.81,-86 1187.19,-86 1187.19,-122"/>
<text text-anchor="middle" x="1134" y="-99.8" font-family="Times,serif" font-size="14.00">CartOccModule</text>
</g>
<!-- CartOccModule&#45;&gt;OccModule -->
<g id="edge2" class="edge">
<title>CartOccModule&#45;&gt;OccModule</title>
<path fill="none" stroke="black" d="M1134,-122.13C1134,-142.57 1134,-173 1134,-173 1134,-173 762.33,-173 762.33,-173"/>
<polygon fill="black" stroke="black" points="762.33,-169.5 752.33,-173 762.33,-176.5 762.33,-169.5"/>
</g>
<!-- CheckoutOccModule -->
<g id="node3" class="node">
<title>CheckoutOccModule</title>
<polygon fill="#8dd3c7" stroke="black" points="1062.74,-122 1059.74,-126 1038.74,-126 1035.74,-122 927.26,-122 927.26,-86 1062.74,-86 1062.74,-122"/>
<text text-anchor="middle" x="995" y="-99.8" font-family="Times,serif" font-size="14.00">CheckoutOccModule</text>
</g>
<!-- CheckoutOccModule&#45;&gt;OccModule -->
<g id="edge3" class="edge">
<title>CheckoutOccModule&#45;&gt;OccModule</title>
<path fill="none" stroke="black" d="M995,-122.27C995,-140.56 995,-166 995,-166 995,-166 762.3,-166 762.3,-166"/>
<polygon fill="black" stroke="black" points="762.3,-162.5 752.3,-166 762.3,-169.5 762.3,-162.5"/>
</g>
<!-- CmsOccModule -->
<g id="node4" class="node">
<title>CmsOccModule</title>
<polygon fill="#8dd3c7" stroke="black" points="908.76,-122 905.76,-126 884.76,-126 881.76,-122 801.24,-122 801.24,-86 908.76,-86 908.76,-122"/>
<text text-anchor="middle" x="855" y="-99.8" font-family="Times,serif" font-size="14.00">CmsOccModule</text>
</g>
<!-- CmsOccModule&#45;&gt;OccModule -->
<g id="edge4" class="edge">
<title>CmsOccModule&#45;&gt;OccModule</title>
<path fill="none" stroke="black" d="M855,-122.01C855,-138.05 855,-159 855,-159 855,-159 762.26,-159 762.26,-159"/>
<polygon fill="black" stroke="black" points="762.26,-155.5 752.26,-159 762.26,-162.5 762.26,-155.5"/>
</g>
<!-- CostCenterOccModule -->
<g id="node5" class="node">
<title>CostCenterOccModule</title>
<polygon fill="#8dd3c7" stroke="black" points="783.57,-122 780.57,-126 759.57,-126 756.57,-122 638.43,-122 638.43,-86 783.57,-86 783.57,-122"/>
<text text-anchor="middle" x="711" y="-99.8" font-family="Times,serif" font-size="14.00">CostCenterOccModule</text>
</g>
<!-- CostCenterOccModule&#45;&gt;OccModule -->
<g id="edge5" class="edge">
<title>CostCenterOccModule&#45;&gt;OccModule</title>
<path fill="none" stroke="black" d="M711,-122.11C711,-122.11 711,-140.99 711,-140.99"/>
<polygon fill="black" stroke="black" points="707.5,-140.99 711,-150.99 714.5,-140.99 707.5,-140.99"/>
</g>
<!-- OccConfigLoaderModule -->
<g id="node6" class="node">
<title>OccConfigLoaderModule</title>
<polygon fill="#8dd3c7" stroke="black" points="620.12,-122 617.12,-126 596.12,-126 593.12,-122 459.88,-122 459.88,-86 620.12,-86 620.12,-122"/>
<text text-anchor="middle" x="540" y="-99.8" font-family="Times,serif" font-size="14.00">OccConfigLoaderModule</text>
</g>
<!-- OccConfigLoaderModule&#45;&gt;OccModule -->
<g id="edge6" class="edge">
<title>OccConfigLoaderModule&#45;&gt;OccModule</title>
<path fill="none" stroke="black" d="M540,-122.01C540,-138.05 540,-159 540,-159 540,-159 659.61,-159 659.61,-159"/>
<polygon fill="black" stroke="black" points="659.61,-162.5 669.61,-159 659.61,-155.5 659.61,-162.5"/>
</g>
<!-- ProductOccModule -->
<g id="node7" class="node">
<title>ProductOccModule</title>
<polygon fill="#8dd3c7" stroke="black" points="441.63,-122 438.63,-126 417.63,-126 414.63,-122 316.37,-122 316.37,-86 441.63,-86 441.63,-122"/>
<text text-anchor="middle" x="379" y="-99.8" font-family="Times,serif" font-size="14.00">ProductOccModule</text>
</g>
<!-- ProductOccModule&#45;&gt;OccModule -->
<g id="edge7" class="edge">
<title>ProductOccModule&#45;&gt;OccModule</title>
<path fill="none" stroke="black" d="M379,-122.27C379,-140.56 379,-166 379,-166 379,-166 659.62,-166 659.62,-166"/>
<polygon fill="black" stroke="black" points="659.62,-169.5 669.62,-166 659.62,-162.5 659.62,-169.5"/>
</g>
<!-- SiteContextOccModule -->
<g id="node8" class="node">
<title>SiteContextOccModule</title>
<polygon fill="#8dd3c7" stroke="black" points="298.2,-122 295.2,-126 274.2,-126 271.2,-122 149.8,-122 149.8,-86 298.2,-86 298.2,-122"/>
<text text-anchor="middle" x="224" y="-99.8" font-family="Times,serif" font-size="14.00">SiteContextOccModule</text>
</g>
<!-- SiteContextOccModule&#45;&gt;OccModule -->
<g id="edge8" class="edge">
<title>SiteContextOccModule&#45;&gt;OccModule</title>
<path fill="none" stroke="black" d="M224,-122.13C224,-142.57 224,-173 224,-173 224,-173 659.9,-173 659.9,-173"/>
<polygon fill="black" stroke="black" points="659.9,-176.5 669.9,-173 659.9,-169.5 659.9,-176.5"/>
</g>
<!-- UserOccModule -->
<g id="node9" class="node">
<title>UserOccModule</title>
<polygon fill="#8dd3c7" stroke="black" points="132.01,-122 129.01,-126 108.01,-126 105.01,-122 23.99,-122 23.99,-86 132.01,-86 132.01,-122"/>
<text text-anchor="middle" x="78" y="-99.8" font-family="Times,serif" font-size="14.00">UserOccModule</text>
</g>
<!-- UserOccModule&#45;&gt;OccModule -->
<g id="edge9" class="edge">
<title>UserOccModule&#45;&gt;OccModule</title>
<path fill="none" stroke="black" d="M78,-122.01C78,-144.49 78,-180 78,-180 78,-180 659.95,-180 659.95,-180"/>
<polygon fill="black" stroke="black" points="659.95,-183.5 669.95,-180 659.95,-176.5 659.95,-183.5"/>
</g>
</g>
</svg>
