<?xml version="1.0" encoding="UTF-8" standalone="no"?>
<!DOCTYPE svg PUBLIC "-//W3C//DTD SVG 1.1//EN"
 "http://www.w3.org/Graphics/SVG/1.1/DTD/svg11.dtd">
<!-- Generated by graphviz version 2.40.1 (20161225.0304)
 -->
<!-- Title: dependencies Pages: 1 -->
<svg width="1345pt" height="211pt"
 viewBox="0.00 0.00 1345.00 211.00" xmlns="http://www.w3.org/2000/svg" xmlns:xlink="http://www.w3.org/1999/xlink">
<g id="graph0" class="graph" transform="scale(1 1) rotate(0) translate(4 207)">
<title>dependencies</title>
<polygon fill="#ffffff" stroke="transparent" points="-4,4 -4,-207 1341,-207 1341,4 -4,4"/>
<text text-anchor="start" x="647.5091" y="-42.4" font-family="sans-serif" font-weight="bold" font-size="14.00" fill="#000000">Legend</text>
<polygon fill="#ffffb3" stroke="transparent" points="434.5,-10 434.5,-30 454.5,-30 454.5,-10 434.5,-10"/>
<text text-anchor="start" x="458.129" y="-15.4" font-family="sans-serif" font-size="14.00" fill="#000000"> &#160;Declarations</text>
<polygon fill="#8dd3c7" stroke="transparent" points="547.5,-10 547.5,-30 567.5,-30 567.5,-10 547.5,-10"/>
<text text-anchor="start" x="571.2251" y="-15.4" font-family="sans-serif" font-size="14.00" fill="#000000"> &#160;Module</text>
<polygon fill="#80b1d3" stroke="transparent" points="633.5,-10 633.5,-30 653.5,-30 653.5,-10 633.5,-10"/>
<text text-anchor="start" x="657.2812" y="-15.4" font-family="sans-serif" font-size="14.00" fill="#000000"> &#160;Bootstrap</text>
<polygon fill="#fdb462" stroke="transparent" points="730.5,-10 730.5,-30 750.5,-30 750.5,-10 730.5,-10"/>
<text text-anchor="start" x="754.1732" y="-15.4" font-family="sans-serif" font-size="14.00" fill="#000000"> &#160;Providers</text>
<polygon fill="#fb8072" stroke="transparent" points="826.5,-10 826.5,-30 846.5,-30 846.5,-10 826.5,-10"/>
<text text-anchor="start" x="850.2258" y="-15.4" font-family="sans-serif" font-size="14.00" fill="#000000"> &#160;Exports</text>
<g id="clust1" class="cluster">
<title>cluster_OccModule</title>
<polygon fill="none" stroke="#000000" stroke-dasharray="1,5" points="8,-70 8,-195 1329,-195 1329,-70 8,-70"/>
</g>
<g id="clust3" class="cluster">
<title>cluster_OccModule_imports</title>
<polygon fill="none" stroke="#000000" points="16,-78 16,-130 1321,-130 1321,-78 16,-78"/>
</g>
<!-- AsmOccModule -->
<g id="node1" class="node">
<title>AsmOccModule</title>
<polygon fill="#8dd3c7" stroke="#000000" points="1313.0284,-122 1310.0284,-126 1289.0284,-126 1286.0284,-122 1204.9716,-122 1204.9716,-86 1313.0284,-86 1313.0284,-122"/>
<text text-anchor="middle" x="1259" y="-99.8" font-family="Times,serif" font-size="14.00" fill="#000000">AsmOccModule</text>
</g>
<!-- OccModule -->
<g id="node10" class="node">
<title>OccModule</title>
<polygon fill="#8dd3c7" stroke="#000000" points="752.0856,-187 749.0856,-191 728.0856,-191 725.0856,-187 669.9144,-187 669.9144,-151 752.0856,-151 752.0856,-187"/>
<text text-anchor="middle" x="711" y="-164.8" font-family="Times,serif" font-size="14.00" fill="#000000">OccModule</text>
</g>
<!-- AsmOccModule&#45;&gt;OccModule -->
<g id="edge1" class="edge">
<title>AsmOccModule&#45;&gt;OccModule</title>
<path fill="none" stroke="#000000" d="M1259,-122.0109C1259,-144.4852 1259,-180 1259,-180 1259,-180 762.1891,-180 762.1891,-180"/>
<polygon fill="#000000" stroke="#000000" points="762.1891,-176.5001 752.1891,-180 762.189,-183.5001 762.1891,-176.5001"/>
</g>
<!-- CartOccModule -->
<g id="node2" class="node">
<title>CartOccModule</title>
<polygon fill="#8dd3c7" stroke="#000000" points="1187.1882,-122 1184.1882,-126 1163.1882,-126 1160.1882,-122 1080.8118,-122 1080.8118,-86 1187.1882,-86 1187.1882,-122"/>
<text text-anchor="middle" x="1134" y="-99.8" font-family="Times,serif" font-size="14.00" fill="#000000">CartOccModule</text>
</g>
<!-- CartOccModule&#45;&gt;OccModule -->
<g id="edge2" class="edge">
<title>CartOccModule&#45;&gt;OccModule</title>
<path fill="none" stroke="#000000" d="M1134,-122.1289C1134,-142.5724 1134,-173 1134,-173 1134,-173 762.3292,-173 762.3292,-173"/>
<polygon fill="#000000" stroke="#000000" points="762.3292,-169.5001 752.3292,-173 762.3292,-176.5001 762.3292,-169.5001"/>
</g>
<!-- CheckoutOccModule -->
<g id="node3" class="node">
<title>CheckoutOccModule</title>
<polygon fill="#8dd3c7" stroke="#000000" points="1062.7422,-122 1059.7422,-126 1038.7422,-126 1035.7422,-122 927.2578,-122 927.2578,-86 1062.7422,-86 1062.7422,-122"/>
<text text-anchor="middle" x="995" y="-99.8" font-family="Times,serif" font-size="14.00" fill="#000000">CheckoutOccModule</text>
</g>
<!-- CheckoutOccModule&#45;&gt;OccModule -->
<g id="edge3" class="edge">
<title>CheckoutOccModule&#45;&gt;OccModule</title>
<path fill="none" stroke="#000000" d="M995,-122.2667C995,-140.5552 995,-166 995,-166 995,-166 762.296,-166 762.296,-166"/>
<polygon fill="#000000" stroke="#000000" points="762.2961,-162.5001 752.296,-166 762.296,-169.5001 762.2961,-162.5001"/>
</g>
<!-- CmsOccModule -->
<g id="node4" class="node">
<title>CmsOccModule</title>
<polygon fill="#8dd3c7" stroke="#000000" points="908.7577,-122 905.7577,-126 884.7577,-126 881.7577,-122 801.2423,-122 801.2423,-86 908.7577,-86 908.7577,-122"/>
<text text-anchor="middle" x="855" y="-99.8" font-family="Times,serif" font-size="14.00" fill="#000000">CmsOccModule</text>
</g>
<!-- CmsOccModule&#45;&gt;OccModule -->
<g id="edge4" class="edge">
<title>CmsOccModule&#45;&gt;OccModule</title>
<path fill="none" stroke="#000000" d="M855,-122.0091C855,-138.0494 855,-159 855,-159 855,-159 762.2646,-159 762.2646,-159"/>
<polygon fill="#000000" stroke="#000000" points="762.2647,-155.5001 752.2646,-159 762.2646,-162.5001 762.2647,-155.5001"/>
</g>
<!-- CostCenterOccModule -->
<g id="node5" class="node">
<title>CostCenterOccModule</title>
<polygon fill="#8dd3c7" stroke="#000000" points="783.5744,-122 780.5744,-126 759.5744,-126 756.5744,-122 638.4256,-122 638.4256,-86 783.5744,-86 783.5744,-122"/>
<text text-anchor="middle" x="711" y="-99.8" font-family="Times,serif" font-size="14.00" fill="#000000">CostCenterOccModule</text>
</g>
<!-- CostCenterOccModule&#45;&gt;OccModule -->
<g id="edge5" class="edge">
<title>CostCenterOccModule&#45;&gt;OccModule</title>
<path fill="none" stroke="#000000" d="M711,-122.1061C711,-122.1061 711,-140.991 711,-140.991"/>
<polygon fill="#000000" stroke="#000000" points="707.5001,-140.9909 711,-150.991 714.5001,-140.991 707.5001,-140.9909"/>
</g>
<!-- OccConfigLoaderModule -->
<g id="node6" class="node">
<title>OccConfigLoaderModule</title>
<polygon fill="#8dd3c7" stroke="#000000" points="620.1163,-122 617.1163,-126 596.1163,-126 593.1163,-122 459.8837,-122 459.8837,-86 620.1163,-86 620.1163,-122"/>
<text text-anchor="middle" x="540" y="-99.8" font-family="Times,serif" font-size="14.00" fill="#000000">OccConfigLoaderModule</text>
</g>
<!-- OccConfigLoaderModule&#45;&gt;OccModule -->
<g id="edge6" class="edge">
<title>OccConfigLoaderModule&#45;&gt;OccModule</title>
<path fill="none" stroke="#000000" d="M540,-122.0091C540,-138.0494 540,-159 540,-159 540,-159 659.6057,-159 659.6057,-159"/>
<polygon fill="#000000" stroke="#000000" points="659.6057,-162.5001 669.6057,-159 659.6056,-155.5001 659.6057,-162.5001"/>
</g>
<!-- ProductOccModule -->
<g id="node7" class="node">
<title>ProductOccModule</title>
<polygon fill="#8dd3c7" stroke="#000000" points="441.6345,-122 438.6345,-126 417.6345,-126 414.6345,-122 316.3655,-122 316.3655,-86 441.6345,-86 441.6345,-122"/>
<text text-anchor="middle" x="379" y="-99.8" font-family="Times,serif" font-size="14.00" fill="#000000">ProductOccModule</text>
</g>
<!-- ProductOccModule&#45;&gt;OccModule -->
<g id="edge7" class="edge">
<title>ProductOccModule&#45;&gt;OccModule</title>
<path fill="none" stroke="#000000" d="M379,-122.2667C379,-140.5552 379,-166 379,-166 379,-166 659.6232,-166 659.6232,-166"/>
<polygon fill="#000000" stroke="#000000" points="659.6233,-169.5001 669.6232,-166 659.6232,-162.5001 659.6233,-169.5001"/>
</g>
<!-- SiteContextOccModule -->
<g id="node8" class="node">
<title>SiteContextOccModule</title>
<polygon fill="#8dd3c7" stroke="#000000" points="298.1965,-122 295.1965,-126 274.1965,-126 271.1965,-122 149.8035,-122 149.8035,-86 298.1965,-86 298.1965,-122"/>
<text text-anchor="middle" x="224" y="-99.8" font-family="Times,serif" font-size="14.00" fill="#000000">SiteContextOccModule</text>
</g>
<!-- SiteContextOccModule&#45;&gt;OccModule -->
<g id="edge8" class="edge">
<title>SiteContextOccModule&#45;&gt;OccModule</title>
<path fill="none" stroke="#000000" d="M224,-122.1289C224,-142.5724 224,-173 224,-173 224,-173 659.8984,-173 659.8984,-173"/>
<polygon fill="#000000" stroke="#000000" points="659.8984,-176.5001 669.8984,-173 659.8983,-169.5001 659.8984,-176.5001"/>
</g>
<!-- UserOccModule -->
<g id="node9" class="node">
<title>UserOccModule</title>
<polygon fill="#8dd3c7" stroke="#000000" points="132.0131,-122 129.0131,-126 108.0131,-126 105.0131,-122 23.9869,-122 23.9869,-86 132.0131,-86 132.0131,-122"/>
<text text-anchor="middle" x="78" y="-99.8" font-family="Times,serif" font-size="14.00" fill="#000000">UserOccModule</text>
</g>
<!-- UserOccModule&#45;&gt;OccModule -->
<g id="edge9" class="edge">
<title>UserOccModule&#45;&gt;OccModule</title>
<path fill="none" stroke="#000000" d="M78,-122.0109C78,-144.4852 78,-180 78,-180 78,-180 659.9548,-180 659.9548,-180"/>
<polygon fill="#000000" stroke="#000000" points="659.9549,-183.5001 669.9548,-180 659.9548,-176.5001 659.9549,-183.5001"/>
</g>
</g>
</svg>
