<?xml version="1.0" encoding="UTF-8" standalone="no"?>
<!DOCTYPE svg PUBLIC "-//W3C//DTD SVG 1.1//EN"
 "http://www.w3.org/Graphics/SVG/1.1/DTD/svg11.dtd">
<!-- Generated by graphviz version 2.47.3 (20210619.1520)
 -->
<!-- Title: dependencies Pages: 1 -->
<svg width="1345pt" height="174pt"
 viewBox="0.00 0.00 1345.00 173.80" xmlns="http://www.w3.org/2000/svg" xmlns:xlink="http://www.w3.org/1999/xlink">
<g id="graph0" class="graph" transform="scale(1 1) rotate(0) translate(4 169.8)">
<title>dependencies</title>
<polygon fill="white" stroke="transparent" points="-4,4 -4,-169.8 1341,-169.8 1341,4 -4,4"/>
<text text-anchor="middle" x="668.5" y="-8.2" font-family="sans-serif" font-size="14.00">dependencies</text>
<g id="clust1" class="cluster">
<title>cluster_OccModule</title>
<polygon fill="none" stroke="black" stroke-dasharray="1,5" points="8,-32.8 8,-157.8 1329,-157.8 1329,-32.8 8,-32.8"/>
</g>
<g id="clust3" class="cluster">
<title>cluster_OccModule_imports</title>
<polygon fill="none" stroke="black" points="16,-40.8 16,-92.8 1321,-92.8 1321,-40.8 16,-40.8"/>
</g>
<!-- AsmOccModule -->
<g id="node1" class="node">
<title>AsmOccModule</title>
<polygon fill="#8dd3c7" stroke="black" points="1313.03,-84.8 1310.03,-88.8 1289.03,-88.8 1286.03,-84.8 1204.97,-84.8 1204.97,-48.8 1313.03,-48.8 1313.03,-84.8"/>
<text text-anchor="middle" x="1259" y="-62.6" font-family="Times,serif" font-size="14.00">AsmOccModule</text>
</g>
<!-- OccModule -->
<g id="node10" class="node">
<title>OccModule</title>
<polygon fill="#8dd3c7" stroke="black" points="752.09,-149.8 749.09,-153.8 728.09,-153.8 725.09,-149.8 669.91,-149.8 669.91,-113.8 752.09,-113.8 752.09,-149.8"/>
<text text-anchor="middle" x="711" y="-127.6" font-family="Times,serif" font-size="14.00">OccModule</text>
</g>
<!-- AsmOccModule&#45;&gt;OccModule -->
<g id="edge1" class="edge">
<title>AsmOccModule&#45;&gt;OccModule</title>
<path fill="none" stroke="black" d="M1259,-84.81C1259,-107.29 1259,-142.8 1259,-142.8 1259,-142.8 762.19,-142.8 762.19,-142.8"/>
<polygon fill="black" stroke="black" points="762.19,-139.3 752.19,-142.8 762.19,-146.3 762.19,-139.3"/>
</g>
<!-- CartOccModule -->
<g id="node2" class="node">
<title>CartOccModule</title>
<polygon fill="#8dd3c7" stroke="black" points="1187.19,-84.8 1184.19,-88.8 1163.19,-88.8 1160.19,-84.8 1080.81,-84.8 1080.81,-48.8 1187.19,-48.8 1187.19,-84.8"/>
<text text-anchor="middle" x="1134" y="-62.6" font-family="Times,serif" font-size="14.00">CartOccModule</text>
</g>
<!-- CartOccModule&#45;&gt;OccModule -->
<g id="edge2" class="edge">
<title>CartOccModule&#45;&gt;OccModule</title>
<path fill="none" stroke="black" d="M1134,-84.93C1134,-105.37 1134,-135.8 1134,-135.8 1134,-135.8 762.33,-135.8 762.33,-135.8"/>
<polygon fill="black" stroke="black" points="762.33,-132.3 752.33,-135.8 762.33,-139.3 762.33,-132.3"/>
</g>
<!-- CheckoutOccModule -->
<g id="node3" class="node">
<title>CheckoutOccModule</title>
<polygon fill="#8dd3c7" stroke="black" points="1062.74,-84.8 1059.74,-88.8 1038.74,-88.8 1035.74,-84.8 927.26,-84.8 927.26,-48.8 1062.74,-48.8 1062.74,-84.8"/>
<text text-anchor="middle" x="995" y="-62.6" font-family="Times,serif" font-size="14.00">CheckoutOccModule</text>
</g>
<!-- CheckoutOccModule&#45;&gt;OccModule -->
<g id="edge3" class="edge">
<title>CheckoutOccModule&#45;&gt;OccModule</title>
<path fill="none" stroke="black" d="M995,-85.07C995,-103.36 995,-128.8 995,-128.8 995,-128.8 762.3,-128.8 762.3,-128.8"/>
<polygon fill="black" stroke="black" points="762.3,-125.3 752.3,-128.8 762.3,-132.3 762.3,-125.3"/>
</g>
<!-- CmsOccModule -->
<g id="node4" class="node">
<title>CmsOccModule</title>
<polygon fill="#8dd3c7" stroke="black" points="908.76,-84.8 905.76,-88.8 884.76,-88.8 881.76,-84.8 801.24,-84.8 801.24,-48.8 908.76,-48.8 908.76,-84.8"/>
<text text-anchor="middle" x="855" y="-62.6" font-family="Times,serif" font-size="14.00">CmsOccModule</text>
</g>
<!-- CmsOccModule&#45;&gt;OccModule -->
<g id="edge4" class="edge">
<title>CmsOccModule&#45;&gt;OccModule</title>
<path fill="none" stroke="black" d="M855,-84.81C855,-100.85 855,-121.8 855,-121.8 855,-121.8 762.26,-121.8 762.26,-121.8"/>
<polygon fill="black" stroke="black" points="762.26,-118.3 752.26,-121.8 762.26,-125.3 762.26,-118.3"/>
</g>
<!-- CostCenterOccModule -->
<g id="node5" class="node">
<title>CostCenterOccModule</title>
<polygon fill="#8dd3c7" stroke="black" points="783.57,-84.8 780.57,-88.8 759.57,-88.8 756.57,-84.8 638.43,-84.8 638.43,-48.8 783.57,-48.8 783.57,-84.8"/>
<text text-anchor="middle" x="711" y="-62.6" font-family="Times,serif" font-size="14.00">CostCenterOccModule</text>
</g>
<!-- CostCenterOccModule&#45;&gt;OccModule -->
<g id="edge5" class="edge">
<title>CostCenterOccModule&#45;&gt;OccModule</title>
<path fill="none" stroke="black" d="M711,-84.91C711,-84.91 711,-103.79 711,-103.79"/>
<polygon fill="black" stroke="black" points="707.5,-103.79 711,-113.79 714.5,-103.79 707.5,-103.79"/>
</g>
<!-- OccConfigLoaderModule -->
<g id="node6" class="node">
<title>OccConfigLoaderModule</title>
<polygon fill="#8dd3c7" stroke="black" points="620.12,-84.8 617.12,-88.8 596.12,-88.8 593.12,-84.8 459.88,-84.8 459.88,-48.8 620.12,-48.8 620.12,-84.8"/>
<text text-anchor="middle" x="540" y="-62.6" font-family="Times,serif" font-size="14.00">OccConfigLoaderModule</text>
</g>
<!-- OccConfigLoaderModule&#45;&gt;OccModule -->
<g id="edge6" class="edge">
<title>OccConfigLoaderModule&#45;&gt;OccModule</title>
<path fill="none" stroke="black" d="M540,-84.81C540,-100.85 540,-121.8 540,-121.8 540,-121.8 659.61,-121.8 659.61,-121.8"/>
<polygon fill="black" stroke="black" points="659.61,-125.3 669.61,-121.8 659.61,-118.3 659.61,-125.3"/>
</g>
<!-- ProductOccModule -->
<g id="node7" class="node">
<title>ProductOccModule</title>
<polygon fill="#8dd3c7" stroke="black" points="441.63,-84.8 438.63,-88.8 417.63,-88.8 414.63,-84.8 316.37,-84.8 316.37,-48.8 441.63,-48.8 441.63,-84.8"/>
<text text-anchor="middle" x="379" y="-62.6" font-family="Times,serif" font-size="14.00">ProductOccModule</text>
</g>
<!-- ProductOccModule&#45;&gt;OccModule -->
<g id="edge7" class="edge">
<title>ProductOccModule&#45;&gt;OccModule</title>
<path fill="none" stroke="black" d="M379,-85.07C379,-103.36 379,-128.8 379,-128.8 379,-128.8 659.62,-128.8 659.62,-128.8"/>
<polygon fill="black" stroke="black" points="659.62,-132.3 669.62,-128.8 659.62,-125.3 659.62,-132.3"/>
</g>
<!-- SiteContextOccModule -->
<g id="node8" class="node">
<title>SiteContextOccModule</title>
<polygon fill="#8dd3c7" stroke="black" points="298.2,-84.8 295.2,-88.8 274.2,-88.8 271.2,-84.8 149.8,-84.8 149.8,-48.8 298.2,-48.8 298.2,-84.8"/>
<text text-anchor="middle" x="224" y="-62.6" font-family="Times,serif" font-size="14.00">SiteContextOccModule</text>
</g>
<!-- SiteContextOccModule&#45;&gt;OccModule -->
<g id="edge8" class="edge">
<title>SiteContextOccModule&#45;&gt;OccModule</title>
<path fill="none" stroke="black" d="M224,-84.93C224,-105.37 224,-135.8 224,-135.8 224,-135.8 659.9,-135.8 659.9,-135.8"/>
<polygon fill="black" stroke="black" points="659.9,-139.3 669.9,-135.8 659.9,-132.3 659.9,-139.3"/>
</g>
<!-- UserOccModule -->
<g id="node9" class="node">
<title>UserOccModule</title>
<polygon fill="#8dd3c7" stroke="black" points="132.01,-84.8 129.01,-88.8 108.01,-88.8 105.01,-84.8 23.99,-84.8 23.99,-48.8 132.01,-48.8 132.01,-84.8"/>
<text text-anchor="middle" x="78" y="-62.6" font-family="Times,serif" font-size="14.00">UserOccModule</text>
</g>
<!-- UserOccModule&#45;&gt;OccModule -->
<g id="edge9" class="edge">
<title>UserOccModule&#45;&gt;OccModule</title>
<path fill="none" stroke="black" d="M78,-84.81C78,-107.29 78,-142.8 78,-142.8 78,-142.8 659.95,-142.8 659.95,-142.8"/>
<polygon fill="black" stroke="black" points="659.95,-146.3 669.95,-142.8 659.95,-139.3 659.95,-146.3"/>
</g>
</g>
</svg>
