<?xml version="1.0" encoding="UTF-8" standalone="no"?>
<!DOCTYPE svg PUBLIC "-//W3C//DTD SVG 1.1//EN"
 "http://www.w3.org/Graphics/SVG/1.1/DTD/svg11.dtd">
<!-- Generated by graphviz version 2.40.1 (20161225.0304)
 -->
<!-- Title: dependencies Pages: 1 -->
<svg width="1511pt" height="211pt"
 viewBox="0.00 0.00 1511.00 211.00" xmlns="http://www.w3.org/2000/svg" xmlns:xlink="http://www.w3.org/1999/xlink">
<g id="graph0" class="graph" transform="scale(1 1) rotate(0) translate(4 207)">
<title>dependencies</title>
<polygon fill="#ffffff" stroke="transparent" points="-4,4 -4,-207 1507,-207 1507,4 -4,4"/>
<text text-anchor="start" x="730.5091" y="-42.4" font-family="sans-serif" font-weight="bold" font-size="14.00" fill="#000000">Legend</text>
<polygon fill="#ffffb3" stroke="transparent" points="517.5,-10 517.5,-30 537.5,-30 537.5,-10 517.5,-10"/>
<text text-anchor="start" x="541.129" y="-15.4" font-family="sans-serif" font-size="14.00" fill="#000000"> &#160;Declarations</text>
<polygon fill="#8dd3c7" stroke="transparent" points="630.5,-10 630.5,-30 650.5,-30 650.5,-10 630.5,-10"/>
<text text-anchor="start" x="654.2251" y="-15.4" font-family="sans-serif" font-size="14.00" fill="#000000"> &#160;Module</text>
<polygon fill="#80b1d3" stroke="transparent" points="716.5,-10 716.5,-30 736.5,-30 736.5,-10 716.5,-10"/>
<text text-anchor="start" x="740.2812" y="-15.4" font-family="sans-serif" font-size="14.00" fill="#000000"> &#160;Bootstrap</text>
<polygon fill="#fdb462" stroke="transparent" points="813.5,-10 813.5,-30 833.5,-30 833.5,-10 813.5,-10"/>
<text text-anchor="start" x="837.1732" y="-15.4" font-family="sans-serif" font-size="14.00" fill="#000000"> &#160;Providers</text>
<polygon fill="#fb8072" stroke="transparent" points="909.5,-10 909.5,-30 929.5,-30 929.5,-10 909.5,-10"/>
<text text-anchor="start" x="933.2258" y="-15.4" font-family="sans-serif" font-size="14.00" fill="#000000"> &#160;Exports</text>
<g id="clust1" class="cluster">
<title>cluster_OccModule</title>
<polygon fill="none" stroke="#000000" stroke-dasharray="1,5" points="8,-70 8,-195 1495,-195 1495,-70 8,-70"/>
</g>
<g id="clust3" class="cluster">
<title>cluster_OccModule_imports</title>
<polygon fill="none" stroke="#000000" points="16,-78 16,-130 1487,-130 1487,-78 16,-78"/>
</g>
<!-- AsmOccModule -->
<g id="node1" class="node">
<title>AsmOccModule</title>
<polygon fill="#8dd3c7" stroke="#000000" points="1479.0284,-122 1476.0284,-126 1455.0284,-126 1452.0284,-122 1370.9716,-122 1370.9716,-86 1479.0284,-86 1479.0284,-122"/>
<text text-anchor="middle" x="1425" y="-99.8" font-family="Times,serif" font-size="14.00" fill="#000000">AsmOccModule</text>
</g>
<!-- OccModule -->
<g id="node11" class="node">
<title>OccModule</title>
<polygon fill="#8dd3c7" stroke="#000000" points="832.0856,-187 829.0856,-191 808.0856,-191 805.0856,-187 749.9144,-187 749.9144,-151 832.0856,-151 832.0856,-187"/>
<text text-anchor="middle" x="791" y="-164.8" font-family="Times,serif" font-size="14.00" fill="#000000">OccModule</text>
</g>
<!-- AsmOccModule&#45;&gt;OccModule -->
<g id="edge1" class="edge">
<title>AsmOccModule&#45;&gt;OccModule</title>
<path fill="none" stroke="#000000" d="M1425,-122.0109C1425,-144.4852 1425,-180 1425,-180 1425,-180 842.11,-180 842.11,-180"/>
<polygon fill="#000000" stroke="#000000" points="842.11,-176.5001 832.11,-180 842.11,-183.5001 842.11,-176.5001"/>
</g>
<!-- CartOccModule -->
<g id="node2" class="node">
<title>CartOccModule</title>
<polygon fill="#8dd3c7" stroke="#000000" points="1353.1882,-122 1350.1882,-126 1329.1882,-126 1326.1882,-122 1246.8118,-122 1246.8118,-86 1353.1882,-86 1353.1882,-122"/>
<text text-anchor="middle" x="1300" y="-99.8" font-family="Times,serif" font-size="14.00" fill="#000000">CartOccModule</text>
</g>
<!-- CartOccModule&#45;&gt;OccModule -->
<g id="edge2" class="edge">
<title>CartOccModule&#45;&gt;OccModule</title>
<path fill="none" stroke="#000000" d="M1300,-122.1289C1300,-142.5724 1300,-173 1300,-173 1300,-173 842.2225,-173 842.2225,-173"/>
<polygon fill="#000000" stroke="#000000" points="842.2225,-169.5001 832.2225,-173 842.2224,-176.5001 842.2225,-169.5001"/>
</g>
<!-- CheckoutOccModule -->
<g id="node3" class="node">
<title>CheckoutOccModule</title>
<polygon fill="#8dd3c7" stroke="#000000" points="1228.7422,-122 1225.7422,-126 1204.7422,-126 1201.7422,-122 1093.2578,-122 1093.2578,-86 1228.7422,-86 1228.7422,-122"/>
<text text-anchor="middle" x="1161" y="-99.8" font-family="Times,serif" font-size="14.00" fill="#000000">CheckoutOccModule</text>
</g>
<!-- CheckoutOccModule&#45;&gt;OccModule -->
<g id="edge3" class="edge">
<title>CheckoutOccModule&#45;&gt;OccModule</title>
<path fill="none" stroke="#000000" d="M1161,-122.2667C1161,-140.5552 1161,-166 1161,-166 1161,-166 842.3667,-166 842.3667,-166"/>
<polygon fill="#000000" stroke="#000000" points="842.3667,-162.5001 832.3667,-166 842.3667,-169.5001 842.3667,-162.5001"/>
</g>
<!-- CmsOccModule -->
<g id="node4" class="node">
<title>CmsOccModule</title>
<polygon fill="#8dd3c7" stroke="#000000" points="1074.7577,-122 1071.7577,-126 1050.7577,-126 1047.7577,-122 967.2423,-122 967.2423,-86 1074.7577,-86 1074.7577,-122"/>
<text text-anchor="middle" x="1021" y="-99.8" font-family="Times,serif" font-size="14.00" fill="#000000">CmsOccModule</text>
</g>
<!-- CmsOccModule&#45;&gt;OccModule -->
<g id="edge4" class="edge">
<title>CmsOccModule&#45;&gt;OccModule</title>
<path fill="none" stroke="#000000" d="M1021,-122.0091C1021,-138.0494 1021,-159 1021,-159 1021,-159 842.1194,-159 842.1194,-159"/>
<polygon fill="#000000" stroke="#000000" points="842.1194,-155.5001 832.1194,-159 842.1194,-162.5001 842.1194,-155.5001"/>
</g>
<!-- CostCenterOccModule -->
<g id="node5" class="node">
<title>CostCenterOccModule</title>
<polygon fill="#8dd3c7" stroke="#000000" points="949.5744,-122 946.5744,-126 925.5744,-126 922.5744,-122 804.4256,-122 804.4256,-86 949.5744,-86 949.5744,-122"/>
<text text-anchor="middle" x="877" y="-99.8" font-family="Times,serif" font-size="14.00" fill="#000000">CostCenterOccModule</text>
</g>
<!-- CostCenterOccModule&#45;&gt;OccModule -->
<g id="edge5" class="edge">
<title>CostCenterOccModule&#45;&gt;OccModule</title>
<path fill="none" stroke="#000000" d="M818.2528,-122.1061C818.2528,-122.1061 818.2528,-140.991 818.2528,-140.991"/>
<polygon fill="#000000" stroke="#000000" points="814.7529,-140.9909 818.2528,-150.991 821.7529,-140.991 814.7529,-140.9909"/>
</g>
<!-- OccConfigLoaderModule -->
<g id="node6" class="node">
<title>OccConfigLoaderModule</title>
<polygon fill="#8dd3c7" stroke="#000000" points="786.1163,-122 783.1163,-126 762.1163,-126 759.1163,-122 625.8837,-122 625.8837,-86 786.1163,-86 786.1163,-122"/>
<text text-anchor="middle" x="706" y="-99.8" font-family="Times,serif" font-size="14.00" fill="#000000">OccConfigLoaderModule</text>
</g>
<!-- OccConfigLoaderModule&#45;&gt;OccModule -->
<g id="edge6" class="edge">
<title>OccConfigLoaderModule&#45;&gt;OccModule</title>
<path fill="none" stroke="#000000" d="M768.1326,-122.1061C768.1326,-122.1061 768.1326,-140.991 768.1326,-140.991"/>
<polygon fill="#000000" stroke="#000000" points="764.6326,-140.9909 768.1326,-150.991 771.6326,-140.991 764.6326,-140.9909"/>
</g>
<!-- ProductOccModule -->
<g id="node7" class="node">
<title>ProductOccModule</title>
<polygon fill="#8dd3c7" stroke="#000000" points="607.6345,-122 604.6345,-126 583.6345,-126 580.6345,-122 482.3655,-122 482.3655,-86 607.6345,-86 607.6345,-122"/>
<text text-anchor="middle" x="545" y="-99.8" font-family="Times,serif" font-size="14.00" fill="#000000">ProductOccModule</text>
</g>
<!-- ProductOccModule&#45;&gt;OccModule -->
<g id="edge7" class="edge">
<title>ProductOccModule&#45;&gt;OccModule</title>
<path fill="none" stroke="#000000" d="M545,-122.0091C545,-138.0494 545,-159 545,-159 545,-159 739.8251,-159 739.8251,-159"/>
<polygon fill="#000000" stroke="#000000" points="739.8252,-162.5001 749.8251,-159 739.8251,-155.5001 739.8252,-162.5001"/>
</g>
<!-- SiteContextOccModule -->
<g id="node8" class="node">
<title>SiteContextOccModule</title>
<polygon fill="#8dd3c7" stroke="#000000" points="464.1965,-122 461.1965,-126 440.1965,-126 437.1965,-122 315.8035,-122 315.8035,-86 464.1965,-86 464.1965,-122"/>
<text text-anchor="middle" x="390" y="-99.8" font-family="Times,serif" font-size="14.00" fill="#000000">SiteContextOccModule</text>
</g>
<!-- SiteContextOccModule&#45;&gt;OccModule -->
<g id="edge8" class="edge">
<title>SiteContextOccModule&#45;&gt;OccModule</title>
<path fill="none" stroke="#000000" d="M390,-122.2667C390,-140.5552 390,-166 390,-166 390,-166 739.5963,-166 739.5963,-166"/>
<polygon fill="#000000" stroke="#000000" points="739.5963,-169.5001 749.5963,-166 739.5963,-162.5001 739.5963,-169.5001"/>
</g>
<!-- StoreFinderOccModule -->
<g id="node9" class="node">
<title>StoreFinderOccModule</title>
<polygon fill="#8dd3c7" stroke="#000000" points="298.1825,-122 295.1825,-126 274.1825,-126 271.1825,-122 149.8175,-122 149.8175,-86 298.1825,-86 298.1825,-122"/>
<text text-anchor="middle" x="224" y="-99.8" font-family="Times,serif" font-size="14.00" fill="#000000">StoreFinderOccModule</text>
</g>
<!-- StoreFinderOccModule&#45;&gt;OccModule -->
<g id="edge9" class="edge">
<title>StoreFinderOccModule&#45;&gt;OccModule</title>
<path fill="none" stroke="#000000" d="M224,-122.1289C224,-142.5724 224,-173 224,-173 224,-173 739.766,-173 739.766,-173"/>
<polygon fill="#000000" stroke="#000000" points="739.7661,-176.5001 749.766,-173 739.766,-169.5001 739.7661,-176.5001"/>
</g>
<!-- UserOccModule -->
<g id="node10" class="node">
<title>UserOccModule</title>
<polygon fill="#8dd3c7" stroke="#000000" points="132.0131,-122 129.0131,-126 108.0131,-126 105.0131,-122 23.9869,-122 23.9869,-86 132.0131,-86 132.0131,-122"/>
<text text-anchor="middle" x="78" y="-99.8" font-family="Times,serif" font-size="14.00" fill="#000000">UserOccModule</text>
</g>
<!-- UserOccModule&#45;&gt;OccModule -->
<g id="edge10" class="edge">
<title>UserOccModule&#45;&gt;OccModule</title>
<path fill="none" stroke="#000000" d="M78,-122.0109C78,-144.4852 78,-180 78,-180 78,-180 739.8451,-180 739.8451,-180"/>
<polygon fill="#000000" stroke="#000000" points="739.8451,-183.5001 749.8451,-180 739.845,-176.5001 739.8451,-183.5001"/>
</g>
</g>
</svg>
