<?xml version="1.0" encoding="UTF-8" standalone="no"?>
<!DOCTYPE svg PUBLIC "-//W3C//DTD SVG 1.1//EN"
 "http://www.w3.org/Graphics/SVG/1.1/DTD/svg11.dtd">
<!-- Generated by graphviz version 2.47.3 (20210619.1520)
 -->
<!-- Title: dependencies Pages: 1 -->
<svg width="914pt" height="247pt"
 viewBox="0.00 0.00 914.00 246.80" xmlns="http://www.w3.org/2000/svg" xmlns:xlink="http://www.w3.org/1999/xlink">
<g id="graph0" class="graph" transform="scale(1 1) rotate(0) translate(4 242.8)">
<title>dependencies</title>
<polygon fill="white" stroke="transparent" points="-4,4 -4,-242.8 910,-242.8 910,4 -4,4"/>
<text text-anchor="middle" x="453" y="-8.2" font-family="sans-serif" font-size="14.00">dependencies</text>
<g id="clust1" class="cluster">
<title>cluster_VisualPickingProductFilterModule</title>
<polygon fill="none" stroke="black" stroke-dasharray="1,5" points="8,-32.8 8,-230.8 898,-230.8 898,-32.8 8,-32.8"/>
</g>
<g id="clust5" class="cluster">
<title>cluster_VisualPickingProductFilterModule_exports</title>
<polygon fill="none" stroke="black" points="138,-170.8 138,-222.8 392,-222.8 392,-170.8 138,-170.8"/>
</g>
<g id="clust7" class="cluster">
<title>cluster_VisualPickingProductFilterModule_providers</title>
<polygon fill="none" stroke="black" points="582,-40.8 582,-92.8 890,-92.8 890,-40.8 582,-40.8"/>
</g>
<g id="clust2" class="cluster">
<title>cluster_VisualPickingProductFilterModule_declarations</title>
<polygon fill="none" stroke="black" points="324,-40.8 324,-92.8 574,-92.8 574,-40.8 324,-40.8"/>
</g>
<g id="clust4" class="cluster">
<title>cluster_VisualPickingProductFilterModule_imports</title>
<polygon fill="none" stroke="black" points="16,-40.8 16,-92.8 316,-92.8 316,-40.8 16,-40.8"/>
</g>
<!-- VisualPickingProductFilterComponent -->
<g id="node1" class="node">
<title>VisualPickingProductFilterComponent</title>
<polygon fill="#ffffb3" stroke="black" points="566.04,-84.8 331.96,-84.8 331.96,-48.8 566.04,-48.8 566.04,-84.8"/>
<text text-anchor="middle" x="449" y="-62.6" font-family="Times,serif" font-size="14.00">VisualPickingProductFilterComponent</text>
</g>
<!-- VisualPickingProductFilterModule -->
<g id="node2" class="node">
<title>VisualPickingProductFilterModule</title>
<polygon fill="#8dd3c7" stroke="black" points="371.25,-149.8 368.25,-153.8 347.25,-153.8 344.25,-149.8 158.75,-149.8 158.75,-113.8 371.25,-113.8 371.25,-149.8"/>
<text text-anchor="middle" x="265" y="-127.6" font-family="Times,serif" font-size="14.00">VisualPickingProductFilterModule</text>
</g>
<!-- VisualPickingProductFilterComponent&#45;&gt;VisualPickingProductFilterModule -->
<g id="edge1" class="edge">
<title>VisualPickingProductFilterComponent&#45;&gt;VisualPickingProductFilterModule</title>
<path fill="none" stroke="black" d="M351.55,-84.91C351.55,-84.91 351.55,-103.79 351.55,-103.79"/>
<polygon fill="black" stroke="black" points="348.05,-103.79 351.55,-113.79 355.05,-103.79 348.05,-103.79"/>
</g>
<!-- VisualPickingProductFilterComponent  -->
<g id="node6" class="node">
<title>VisualPickingProductFilterComponent </title>
<polygon fill="#fb8072" stroke="black" points="384.04,-214.8 145.96,-214.8 145.96,-178.8 384.04,-178.8 384.04,-214.8"/>
<text text-anchor="middle" x="265" y="-192.6" font-family="Times,serif" font-size="14.00">VisualPickingProductFilterComponent </text>
</g>
<!-- VisualPickingProductFilterModule&#45;&gt;VisualPickingProductFilterComponent  -->
<g id="edge5" class="edge">
<title>VisualPickingProductFilterModule&#45;&gt;VisualPickingProductFilterComponent </title>
<path fill="none" stroke="black" stroke-dasharray="5,2" d="M265,-149.91C265,-149.91 265,-168.79 265,-168.79"/>
<polygon fill="black" stroke="black" points="261.5,-168.79 265,-178.79 268.5,-168.79 261.5,-168.79"/>
</g>
<!-- I18nModule -->
<g id="node3" class="node">
<title>I18nModule</title>
<polygon fill="#8dd3c7" stroke="black" points="307.71,-84.8 304.71,-88.8 283.71,-88.8 280.71,-84.8 222.29,-84.8 222.29,-48.8 307.71,-48.8 307.71,-84.8"/>
<text text-anchor="middle" x="265" y="-62.6" font-family="Times,serif" font-size="14.00">I18nModule</text>
</g>
<!-- I18nModule&#45;&gt;VisualPickingProductFilterModule -->
<g id="edge2" class="edge">
<title>I18nModule&#45;&gt;VisualPickingProductFilterModule</title>
<path fill="none" stroke="black" d="M265,-84.91C265,-84.91 265,-103.79 265,-103.79"/>
<polygon fill="black" stroke="black" points="261.5,-103.79 265,-113.79 268.5,-103.79 261.5,-103.79"/>
</g>
<!-- IconModule -->
<g id="node4" class="node">
<title>IconModule</title>
<polygon fill="#8dd3c7" stroke="black" points="204.43,-84.8 201.43,-88.8 180.43,-88.8 177.43,-84.8 119.57,-84.8 119.57,-48.8 204.43,-48.8 204.43,-84.8"/>
<text text-anchor="middle" x="162" y="-62.6" font-family="Times,serif" font-size="14.00">IconModule</text>
</g>
<!-- IconModule&#45;&gt;VisualPickingProductFilterModule -->
<g id="edge3" class="edge">
<title>IconModule&#45;&gt;VisualPickingProductFilterModule</title>
<path fill="none" stroke="black" d="M181.42,-84.91C181.42,-84.91 181.42,-103.79 181.42,-103.79"/>
<polygon fill="black" stroke="black" points="177.92,-103.79 181.42,-113.79 184.92,-103.79 177.92,-103.79"/>
</g>
<!-- UrlModule -->
<g id="node5" class="node">
<title>UrlModule</title>
<polygon fill="#8dd3c7" stroke="black" points="102.21,-84.8 99.21,-88.8 78.21,-88.8 75.21,-84.8 23.79,-84.8 23.79,-48.8 102.21,-48.8 102.21,-84.8"/>
<text text-anchor="middle" x="63" y="-62.6" font-family="Times,serif" font-size="14.00">UrlModule</text>
</g>
<!-- UrlModule&#45;&gt;VisualPickingProductFilterModule -->
<g id="edge4" class="edge">
<title>UrlModule&#45;&gt;VisualPickingProductFilterModule</title>
<path fill="none" stroke="black" d="M63,-84.91C63,-104.14 63,-131.8 63,-131.8 63,-131.8 148.68,-131.8 148.68,-131.8"/>
<polygon fill="black" stroke="black" points="148.68,-135.3 158.68,-131.8 148.68,-128.3 148.68,-135.3"/>
</g>
<!-- VisualPickingProductFilterService -->
<g id="node7" class="node">
<title>VisualPickingProductFilterService</title>
<ellipse fill="#fdb462" stroke="black" cx="736" cy="-66.8" rx="145.84" ry="18"/>
<text text-anchor="middle" x="736" y="-62.6" font-family="Times,serif" font-size="14.00">VisualPickingProductFilterService</text>
</g>
<!-- VisualPickingProductFilterService&#45;&gt;VisualPickingProductFilterModule -->
<g id="edge6" class="edge">
<title>VisualPickingProductFilterService&#45;&gt;VisualPickingProductFilterModule</title>
<path fill="none" stroke="black" d="M736,-84.91C736,-104.14 736,-131.8 736,-131.8 736,-131.8 381.29,-131.8 381.29,-131.8"/>
<polygon fill="black" stroke="black" points="381.29,-128.3 371.29,-131.8 381.29,-135.3 381.29,-128.3"/>
</g>
</g>
</svg>
