<?xml version="1.0" encoding="UTF-8" standalone="no"?>
<!DOCTYPE svg PUBLIC "-//W3C//DTD SVG 1.1//EN"
 "http://www.w3.org/Graphics/SVG/1.1/DTD/svg11.dtd">
<!-- Generated by graphviz version 2.47.3 (20210619.1520)
 -->
<!-- Title: dependencies Pages: 1 -->
<svg width="914pt" height="247pt"
 viewBox="0.00 0.00 914.00 246.80" xmlns="http://www.w3.org/2000/svg" xmlns:xlink="http://www.w3.org/1999/xlink">
<g id="graph0" class="graph" transform="scale(1 1) rotate(0) translate(4 242.8)">
<title>dependencies</title>
<polygon fill="white" stroke="transparent" points="-4,4 -4,-242.8 910,-242.8 910,4 -4,4"/>
<text text-anchor="middle" x="453" y="-8.2" font-family="sans-serif" font-size="14.00">dependencies</text>
<g id="clust1" class="cluster">
<title>cluster_VisualPickingProductFilterModule</title>
<polygon fill="none" stroke="black" stroke-dasharray="1,5" points="8,-32.8 8,-230.8 898,-230.8 898,-32.8 8,-32.8"/>
</g>
<g id="clust4" class="cluster">
<title>cluster_VisualPickingProductFilterModule_imports</title>
<polygon fill="none" stroke="black" points="590,-40.8 590,-92.8 890,-92.8 890,-40.8 590,-40.8"/>
</g>
<g id="clust7" class="cluster">
<title>cluster_VisualPickingProductFilterModule_providers</title>
<polygon fill="none" stroke="black" points="274,-40.8 274,-92.8 582,-92.8 582,-40.8 274,-40.8"/>
</g>
<g id="clust5" class="cluster">
<title>cluster_VisualPickingProductFilterModule_exports</title>
<polygon fill="none" stroke="black" points="510,-170.8 510,-222.8 764,-222.8 764,-170.8 510,-170.8"/>
</g>
<g id="clust2" class="cluster">
<title>cluster_VisualPickingProductFilterModule_declarations</title>
<polygon fill="none" stroke="black" points="16,-40.8 16,-92.8 266,-92.8 266,-40.8 16,-40.8"/>
</g>
<!-- VisualPickingProductFilterComponent -->
<g id="node1" class="node">
<title>VisualPickingProductFilterComponent</title>
<polygon fill="#ffffb3" stroke="black" points="258.04,-84.8 23.96,-84.8 23.96,-48.8 258.04,-48.8 258.04,-84.8"/>
<text text-anchor="middle" x="141" y="-62.6" font-family="Times,serif" font-size="14.00">VisualPickingProductFilterComponent</text>
</g>
<!-- VisualPickingProductFilterModule -->
<g id="node2" class="node">
<title>VisualPickingProductFilterModule</title>
<polygon fill="#8dd3c7" stroke="black" points="743.25,-149.8 740.25,-153.8 719.25,-153.8 716.25,-149.8 530.75,-149.8 530.75,-113.8 743.25,-113.8 743.25,-149.8"/>
<text text-anchor="middle" x="637" y="-127.6" font-family="Times,serif" font-size="14.00">VisualPickingProductFilterModule</text>
</g>
<!-- VisualPickingProductFilterComponent&#45;&gt;VisualPickingProductFilterModule -->
<g id="edge1" class="edge">
<title>VisualPickingProductFilterComponent&#45;&gt;VisualPickingProductFilterModule</title>
<path fill="none" stroke="black" d="M141,-84.91C141,-104.14 141,-131.8 141,-131.8 141,-131.8 520.6,-131.8 520.6,-131.8"/>
<polygon fill="black" stroke="black" points="520.6,-135.3 530.6,-131.8 520.6,-128.3 520.6,-135.3"/>
</g>
<!-- VisualPickingProductFilterComponent  -->
<g id="node6" class="node">
<title>VisualPickingProductFilterComponent </title>
<polygon fill="#fb8072" stroke="black" points="756.04,-214.8 517.96,-214.8 517.96,-178.8 756.04,-178.8 756.04,-214.8"/>
<text text-anchor="middle" x="637" y="-192.6" font-family="Times,serif" font-size="14.00">VisualPickingProductFilterComponent </text>
</g>
<!-- VisualPickingProductFilterModule&#45;&gt;VisualPickingProductFilterComponent  -->
<g id="edge5" class="edge">
<title>VisualPickingProductFilterModule&#45;&gt;VisualPickingProductFilterComponent </title>
<path fill="none" stroke="black" stroke-dasharray="5,2" d="M637,-149.91C637,-149.91 637,-168.79 637,-168.79"/>
<polygon fill="black" stroke="black" points="633.5,-168.79 637,-178.79 640.5,-168.79 633.5,-168.79"/>
</g>
<!-- I18nModule -->
<g id="node3" class="node">
<title>I18nModule</title>
<polygon fill="#8dd3c7" stroke="black" points="881.71,-84.8 878.71,-88.8 857.71,-88.8 854.71,-84.8 796.29,-84.8 796.29,-48.8 881.71,-48.8 881.71,-84.8"/>
<text text-anchor="middle" x="839" y="-62.6" font-family="Times,serif" font-size="14.00">I18nModule</text>
</g>
<!-- I18nModule&#45;&gt;VisualPickingProductFilterModule -->
<g id="edge2" class="edge">
<title>I18nModule&#45;&gt;VisualPickingProductFilterModule</title>
<path fill="none" stroke="black" d="M839,-84.91C839,-104.14 839,-131.8 839,-131.8 839,-131.8 753.32,-131.8 753.32,-131.8"/>
<polygon fill="black" stroke="black" points="753.32,-128.3 743.32,-131.8 753.32,-135.3 753.32,-128.3"/>
</g>
<!-- IconModule -->
<g id="node4" class="node">
<title>IconModule</title>
<polygon fill="#8dd3c7" stroke="black" points="778.43,-84.8 775.43,-88.8 754.43,-88.8 751.43,-84.8 693.57,-84.8 693.57,-48.8 778.43,-48.8 778.43,-84.8"/>
<text text-anchor="middle" x="736" y="-62.6" font-family="Times,serif" font-size="14.00">IconModule</text>
</g>
<!-- IconModule&#45;&gt;VisualPickingProductFilterModule -->
<g id="edge3" class="edge">
<title>IconModule&#45;&gt;VisualPickingProductFilterModule</title>
<path fill="none" stroke="black" d="M718.58,-84.91C718.58,-84.91 718.58,-103.79 718.58,-103.79"/>
<polygon fill="black" stroke="black" points="715.08,-103.79 718.58,-113.79 722.08,-103.79 715.08,-103.79"/>
</g>
<!-- UrlModule -->
<g id="node5" class="node">
<title>UrlModule</title>
<polygon fill="#8dd3c7" stroke="black" points="676.21,-84.8 673.21,-88.8 652.21,-88.8 649.21,-84.8 597.79,-84.8 597.79,-48.8 676.21,-48.8 676.21,-84.8"/>
<text text-anchor="middle" x="637" y="-62.6" font-family="Times,serif" font-size="14.00">UrlModule</text>
</g>
<!-- UrlModule&#45;&gt;VisualPickingProductFilterModule -->
<g id="edge4" class="edge">
<title>UrlModule&#45;&gt;VisualPickingProductFilterModule</title>
<path fill="none" stroke="black" d="M637,-84.91C637,-84.91 637,-103.79 637,-103.79"/>
<polygon fill="black" stroke="black" points="633.5,-103.79 637,-113.79 640.5,-103.79 633.5,-103.79"/>
</g>
<!-- VisualPickingProductFilterService -->
<g id="node7" class="node">
<title>VisualPickingProductFilterService</title>
<ellipse fill="#fdb462" stroke="black" cx="428" cy="-66.8" rx="145.84" ry="18"/>
<text text-anchor="middle" x="428" y="-62.6" font-family="Times,serif" font-size="14.00">VisualPickingProductFilterService</text>
</g>
<!-- VisualPickingProductFilterService&#45;&gt;VisualPickingProductFilterModule -->
<g id="edge6" class="edge">
<title>VisualPickingProductFilterService&#45;&gt;VisualPickingProductFilterModule</title>
<path fill="none" stroke="black" d="M552.15,-76.39C552.15,-76.39 552.15,-103.55 552.15,-103.55"/>
<polygon fill="black" stroke="black" points="548.65,-103.55 552.15,-113.55 555.65,-103.55 548.65,-103.55"/>
</g>
</g>
</svg>
