<?xml version="1.0" encoding="UTF-8" standalone="no"?>
<!DOCTYPE svg PUBLIC "-//W3C//DTD SVG 1.1//EN"
 "http://www.w3.org/Graphics/SVG/1.1/DTD/svg11.dtd">
<!-- Generated by graphviz version 2.40.1 (20161225.0304)
 -->
<!-- Title: dependencies Pages: 1 -->
<svg width="638pt" height="211pt"
 viewBox="0.00 0.00 638.00 211.00" xmlns="http://www.w3.org/2000/svg" xmlns:xlink="http://www.w3.org/1999/xlink">
<g id="graph0" class="graph" transform="scale(1 1) rotate(0) translate(4 207)">
<title>dependencies</title>
<polygon fill="#ffffff" stroke="transparent" points="-4,4 -4,-207 634,-207 634,4 -4,4"/>
<text text-anchor="start" x="294.0091" y="-42.4" font-family="sans-serif" font-weight="bold" font-size="14.00" fill="#000000">Legend</text>
<polygon fill="#ffffb3" stroke="transparent" points="81,-10 81,-30 101,-30 101,-10 81,-10"/>
<text text-anchor="start" x="104.629" y="-15.4" font-family="sans-serif" font-size="14.00" fill="#000000"> &#160;Declarations</text>
<polygon fill="#8dd3c7" stroke="transparent" points="194,-10 194,-30 214,-30 214,-10 194,-10"/>
<text text-anchor="start" x="217.7251" y="-15.4" font-family="sans-serif" font-size="14.00" fill="#000000"> &#160;Module</text>
<polygon fill="#80b1d3" stroke="transparent" points="280,-10 280,-30 300,-30 300,-10 280,-10"/>
<text text-anchor="start" x="303.7812" y="-15.4" font-family="sans-serif" font-size="14.00" fill="#000000"> &#160;Bootstrap</text>
<polygon fill="#fdb462" stroke="transparent" points="377,-10 377,-30 397,-30 397,-10 377,-10"/>
<text text-anchor="start" x="400.6732" y="-15.4" font-family="sans-serif" font-size="14.00" fill="#000000"> &#160;Providers</text>
<polygon fill="#fb8072" stroke="transparent" points="473,-10 473,-30 493,-30 493,-10 473,-10"/>
<text text-anchor="start" x="496.7258" y="-15.4" font-family="sans-serif" font-size="14.00" fill="#000000"> &#160;Exports</text>
<g id="clust1" class="cluster">
<title>cluster_CdcAuthModule</title>
<polygon fill="none" stroke="#000000" stroke-dasharray="1,5" points="8,-70 8,-195 622,-195 622,-70 8,-70"/>
</g>
<g id="clust3" class="cluster">
<title>cluster_CdcAuthModule_imports</title>
<polygon fill="none" stroke="#000000" points="352,-78 352,-130 614,-130 614,-78 352,-78"/>
</g>
<g id="clust6" class="cluster">
<title>cluster_CdcAuthModule_providers</title>
<polygon fill="none" stroke="#000000" points="16,-78 16,-130 344,-130 344,-78 16,-78"/>
</g>
<!-- AuthModule -->
<g id="node1" class="node">
<title>AuthModule</title>
<polygon fill="#8dd3c7" stroke="#000000" points="605.5482,-122 602.5482,-126 581.5482,-126 578.5482,-122 518.4518,-122 518.4518,-86 605.5482,-86 605.5482,-122"/>
<text text-anchor="middle" x="562" y="-99.8" font-family="Times,serif" font-size="14.00" fill="#000000">AuthModule</text>
</g>
<!-- CdcAuthModule -->
<g id="node3" class="node">
<title>CdcAuthModule</title>
<polygon fill="#8dd3c7" stroke="#000000" points="485.0982,-187 482.0982,-191 461.0982,-191 458.0982,-187 374.9018,-187 374.9018,-151 485.0982,-151 485.0982,-187"/>
<text text-anchor="middle" x="430" y="-164.8" font-family="Times,serif" font-size="14.00" fill="#000000">CdcAuthModule</text>
</g>
<!-- AuthModule&#45;&gt;CdcAuthModule -->
<g id="edge1" class="edge">
<title>AuthModule&#45;&gt;CdcAuthModule</title>
<path fill="none" stroke="#000000" d="M562,-122.1061C562,-141.3391 562,-169 562,-169 562,-169 495.2151,-169 495.2151,-169"/>
<polygon fill="#000000" stroke="#000000" points="495.2151,-165.5001 485.2151,-169 495.215,-172.5001 495.2151,-165.5001"/>
</g>
<!-- CdcAuthStoreModule -->
<g id="node2" class="node">
<title>CdcAuthStoreModule</title>
<polygon fill="#8dd3c7" stroke="#000000" points="499.647,-122 496.647,-126 475.647,-126 472.647,-122 360.353,-122 360.353,-86 499.647,-86 499.647,-122"/>
<text text-anchor="middle" x="430" y="-99.8" font-family="Times,serif" font-size="14.00" fill="#000000">CdcAuthStoreModule</text>
</g>
<!-- CdcAuthStoreModule&#45;&gt;CdcAuthModule -->
<g id="edge2" class="edge">
<title>CdcAuthStoreModule&#45;&gt;CdcAuthModule</title>
<path fill="none" stroke="#000000" d="M430,-122.1061C430,-122.1061 430,-140.991 430,-140.991"/>
<polygon fill="#000000" stroke="#000000" points="426.5001,-140.9909 430,-150.991 433.5001,-140.991 426.5001,-140.9909"/>
</g>
<!-- CdcUserAuthenticationTokenService -->
<g id="node4" class="node">
<title>CdcUserAuthenticationTokenService</title>
<ellipse fill="#fdb462" stroke="#000000" cx="180" cy="-104" rx="155.6792" ry="18"/>
<text text-anchor="middle" x="180" y="-99.8" font-family="Times,serif" font-size="14.00" fill="#000000">CdcUserAuthenticationTokenService</text>
</g>
<!-- CdcUserAuthenticationTokenService&#45;&gt;CdcAuthModule -->
<g id="edge3" class="edge">
<title>CdcUserAuthenticationTokenService&#45;&gt;CdcAuthModule</title>
<path fill="none" stroke="#000000" d="M180,-122.1061C180,-141.3391 180,-169 180,-169 180,-169 364.8269,-169 364.8269,-169"/>
<polygon fill="#000000" stroke="#000000" points="364.827,-172.5001 374.8269,-169 364.8269,-165.5001 364.827,-172.5001"/>
</g>
</g>
</svg>
