<?xml version="1.0" encoding="UTF-8" standalone="no"?>
<!DOCTYPE svg PUBLIC "-//W3C//DTD SVG 1.1//EN"
 "http://www.w3.org/Graphics/SVG/1.1/DTD/svg11.dtd">
<!-- Generated by graphviz version 2.47.3 (20210619.1520)
 -->
<!-- Title: dependencies Pages: 1 -->
<svg width="638pt" height="174pt"
 viewBox="0.00 0.00 638.00 173.80" xmlns="http://www.w3.org/2000/svg" xmlns:xlink="http://www.w3.org/1999/xlink">
<g id="graph0" class="graph" transform="scale(1 1) rotate(0) translate(4 169.8)">
<title>dependencies</title>
<polygon fill="white" stroke="transparent" points="-4,4 -4,-169.8 634,-169.8 634,4 -4,4"/>
<text text-anchor="middle" x="315" y="-8.2" font-family="sans-serif" font-size="14.00">dependencies</text>
<g id="clust1" class="cluster">
<title>cluster_CdcAuthModule</title>
<polygon fill="none" stroke="black" stroke-dasharray="1,5" points="8,-32.8 8,-157.8 622,-157.8 622,-32.8 8,-32.8"/>
</g>
<g id="clust3" class="cluster">
<title>cluster_CdcAuthModule_imports</title>
<polygon fill="none" stroke="black" points="352,-40.8 352,-92.8 614,-92.8 614,-40.8 352,-40.8"/>
</g>
<g id="clust6" class="cluster">
<title>cluster_CdcAuthModule_providers</title>
<polygon fill="none" stroke="black" points="16,-40.8 16,-92.8 344,-92.8 344,-40.8 16,-40.8"/>
</g>
<!-- AuthModule -->
<g id="node1" class="node">
<title>AuthModule</title>
<polygon fill="#8dd3c7" stroke="black" points="605.55,-84.8 602.55,-88.8 581.55,-88.8 578.55,-84.8 518.45,-84.8 518.45,-48.8 605.55,-48.8 605.55,-84.8"/>
<text text-anchor="middle" x="562" y="-62.6" font-family="Times,serif" font-size="14.00">AuthModule</text>
</g>
<!-- CdcAuthModule -->
<g id="node3" class="node">
<title>CdcAuthModule</title>
<polygon fill="#8dd3c7" stroke="black" points="485.1,-149.8 482.1,-153.8 461.1,-153.8 458.1,-149.8 374.9,-149.8 374.9,-113.8 485.1,-113.8 485.1,-149.8"/>
<text text-anchor="middle" x="430" y="-127.6" font-family="Times,serif" font-size="14.00">CdcAuthModule</text>
</g>
<!-- AuthModule&#45;&gt;CdcAuthModule -->
<g id="edge1" class="edge">
<title>AuthModule&#45;&gt;CdcAuthModule</title>
<path fill="none" stroke="black" d="M562,-84.91C562,-104.14 562,-131.8 562,-131.8 562,-131.8 495.22,-131.8 495.22,-131.8"/>
<polygon fill="black" stroke="black" points="495.22,-128.3 485.22,-131.8 495.22,-135.3 495.22,-128.3"/>
</g>
<!-- CdcAuthStoreModule -->
<g id="node2" class="node">
<title>CdcAuthStoreModule</title>
<polygon fill="#8dd3c7" stroke="black" points="499.65,-84.8 496.65,-88.8 475.65,-88.8 472.65,-84.8 360.35,-84.8 360.35,-48.8 499.65,-48.8 499.65,-84.8"/>
<text text-anchor="middle" x="430" y="-62.6" font-family="Times,serif" font-size="14.00">CdcAuthStoreModule</text>
</g>
<!-- CdcAuthStoreModule&#45;&gt;CdcAuthModule -->
<g id="edge2" class="edge">
<title>CdcAuthStoreModule&#45;&gt;CdcAuthModule</title>
<path fill="none" stroke="black" d="M430,-84.91C430,-84.91 430,-103.79 430,-103.79"/>
<polygon fill="black" stroke="black" points="426.5,-103.79 430,-113.79 433.5,-103.79 426.5,-103.79"/>
</g>
<!-- CdcUserAuthenticationTokenService -->
<g id="node4" class="node">
<title>CdcUserAuthenticationTokenService</title>
<ellipse fill="#fdb462" stroke="black" cx="180" cy="-66.8" rx="155.68" ry="18"/>
<text text-anchor="middle" x="180" y="-62.6" font-family="Times,serif" font-size="14.00">CdcUserAuthenticationTokenService</text>
</g>
<!-- CdcUserAuthenticationTokenService&#45;&gt;CdcAuthModule -->
<g id="edge3" class="edge">
<title>CdcUserAuthenticationTokenService&#45;&gt;CdcAuthModule</title>
<path fill="none" stroke="black" d="M180,-84.91C180,-104.14 180,-131.8 180,-131.8 180,-131.8 364.83,-131.8 364.83,-131.8"/>
<polygon fill="black" stroke="black" points="364.83,-135.3 374.83,-131.8 364.83,-128.3 364.83,-135.3"/>
</g>
</g>
</svg>
