<?xml version="1.0" encoding="UTF-8" standalone="no"?>
<!DOCTYPE svg PUBLIC "-//W3C//DTD SVG 1.1//EN"
 "http://www.w3.org/Graphics/SVG/1.1/DTD/svg11.dtd">
<!-- Generated by graphviz version 2.47.0 (20210316.0004)
 -->
<!-- Title: dependencies Pages: 1 -->
<svg width="638pt" height="211pt"
 viewBox="0.00 0.00 638.00 211.00" xmlns="http://www.w3.org/2000/svg" xmlns:xlink="http://www.w3.org/1999/xlink">
<g id="graph0" class="graph" transform="scale(1 1) rotate(0) translate(4 207)">
<title>dependencies</title>
<polygon fill="white" stroke="transparent" points="-4,4 -4,-207 634,-207 634,4 -4,4"/>
<text text-anchor="start" x="294.01" y="-42.4" font-family="sans-serif" font-weight="bold" font-size="14.00">Legend</text>
<polygon fill="#ffffb3" stroke="transparent" points="81,-10 81,-30 101,-30 101,-10 81,-10"/>
<text text-anchor="start" x="104.63" y="-15.4" font-family="sans-serif" font-size="14.00"> &#160;Declarations</text>
<polygon fill="#8dd3c7" stroke="transparent" points="194,-10 194,-30 214,-30 214,-10 194,-10"/>
<text text-anchor="start" x="217.73" y="-15.4" font-family="sans-serif" font-size="14.00"> &#160;Module</text>
<polygon fill="#80b1d3" stroke="transparent" points="280,-10 280,-30 300,-30 300,-10 280,-10"/>
<text text-anchor="start" x="303.78" y="-15.4" font-family="sans-serif" font-size="14.00"> &#160;Bootstrap</text>
<polygon fill="#fdb462" stroke="transparent" points="377,-10 377,-30 397,-30 397,-10 377,-10"/>
<text text-anchor="start" x="400.67" y="-15.4" font-family="sans-serif" font-size="14.00"> &#160;Providers</text>
<polygon fill="#fb8072" stroke="transparent" points="473,-10 473,-30 493,-30 493,-10 473,-10"/>
<text text-anchor="start" x="496.73" y="-15.4" font-family="sans-serif" font-size="14.00"> &#160;Exports</text>
<g id="clust1" class="cluster">
<title>cluster_CdcAuthModule</title>
<polygon fill="none" stroke="black" stroke-dasharray="1,5" points="8,-70 8,-195 622,-195 622,-70 8,-70"/>
</g>
<g id="clust3" class="cluster">
<title>cluster_CdcAuthModule_imports</title>
<polygon fill="none" stroke="black" points="352,-78 352,-130 614,-130 614,-78 352,-78"/>
</g>
<g id="clust6" class="cluster">
<title>cluster_CdcAuthModule_providers</title>
<polygon fill="none" stroke="black" points="16,-78 16,-130 344,-130 344,-78 16,-78"/>
</g>
<!-- AuthModule -->
<g id="node1" class="node">
<title>AuthModule</title>
<polygon fill="#8dd3c7" stroke="black" points="605.55,-122 602.55,-126 581.55,-126 578.55,-122 518.45,-122 518.45,-86 605.55,-86 605.55,-122"/>
<text text-anchor="middle" x="562" y="-99.8" font-family="Times,serif" font-size="14.00">AuthModule</text>
</g>
<!-- CdcAuthModule -->
<g id="node3" class="node">
<title>CdcAuthModule</title>
<polygon fill="#8dd3c7" stroke="black" points="485.1,-187 482.1,-191 461.1,-191 458.1,-187 374.9,-187 374.9,-151 485.1,-151 485.1,-187"/>
<text text-anchor="middle" x="430" y="-164.8" font-family="Times,serif" font-size="14.00">CdcAuthModule</text>
</g>
<!-- AuthModule&#45;&gt;CdcAuthModule -->
<g id="edge1" class="edge">
<title>AuthModule&#45;&gt;CdcAuthModule</title>
<path fill="none" stroke="black" d="M562,-122.11C562,-141.34 562,-169 562,-169 562,-169 495.22,-169 495.22,-169"/>
<polygon fill="black" stroke="black" points="495.22,-165.5 485.22,-169 495.22,-172.5 495.22,-165.5"/>
</g>
<!-- CdcAuthStoreModule -->
<g id="node2" class="node">
<title>CdcAuthStoreModule</title>
<polygon fill="#8dd3c7" stroke="black" points="499.65,-122 496.65,-126 475.65,-126 472.65,-122 360.35,-122 360.35,-86 499.65,-86 499.65,-122"/>
<text text-anchor="middle" x="430" y="-99.8" font-family="Times,serif" font-size="14.00">CdcAuthStoreModule</text>
</g>
<!-- CdcAuthStoreModule&#45;&gt;CdcAuthModule -->
<g id="edge2" class="edge">
<title>CdcAuthStoreModule&#45;&gt;CdcAuthModule</title>
<path fill="none" stroke="black" d="M430,-122.11C430,-122.11 430,-140.99 430,-140.99"/>
<polygon fill="black" stroke="black" points="426.5,-140.99 430,-150.99 433.5,-140.99 426.5,-140.99"/>
</g>
<!-- CdcUserAuthenticationTokenService -->
<g id="node4" class="node">
<title>CdcUserAuthenticationTokenService</title>
<ellipse fill="#fdb462" stroke="black" cx="180" cy="-104" rx="155.68" ry="18"/>
<text text-anchor="middle" x="180" y="-99.8" font-family="Times,serif" font-size="14.00">CdcUserAuthenticationTokenService</text>
</g>
<!-- CdcUserAuthenticationTokenService&#45;&gt;CdcAuthModule -->
<g id="edge3" class="edge">
<title>CdcUserAuthenticationTokenService&#45;&gt;CdcAuthModule</title>
<path fill="none" stroke="black" d="M180,-122.11C180,-141.34 180,-169 180,-169 180,-169 364.83,-169 364.83,-169"/>
<polygon fill="black" stroke="black" points="364.83,-172.5 374.83,-169 364.83,-165.5 364.83,-172.5"/>
</g>
</g>
</svg>
