<?xml version="1.0" encoding="UTF-8" standalone="no"?>
<!DOCTYPE svg PUBLIC "-//W3C//DTD SVG 1.1//EN"
 "http://www.w3.org/Graphics/SVG/1.1/DTD/svg11.dtd">
<!-- Generated by graphviz version 2.40.1 (20161225.0304)
 -->
<!-- Title: dependencies Pages: 1 -->
<svg width="504pt" height="284pt"
 viewBox="0.00 0.00 504.00 284.00" xmlns="http://www.w3.org/2000/svg" xmlns:xlink="http://www.w3.org/1999/xlink">
<g id="graph0" class="graph" transform="scale(1 1) rotate(0) translate(4 280)">
<title>dependencies</title>
<polygon fill="#ffffff" stroke="transparent" points="-4,4 -4,-280 500,-280 500,4 -4,4"/>
<text text-anchor="start" x="227.0091" y="-42.4" font-family="sans-serif" font-weight="bold" font-size="14.00" fill="#000000">Legend</text>
<polygon fill="#ffffb3" stroke="transparent" points="14,-10 14,-30 34,-30 34,-10 14,-10"/>
<text text-anchor="start" x="37.629" y="-15.4" font-family="sans-serif" font-size="14.00" fill="#000000"> &#160;Declarations</text>
<polygon fill="#8dd3c7" stroke="transparent" points="127,-10 127,-30 147,-30 147,-10 127,-10"/>
<text text-anchor="start" x="150.7251" y="-15.4" font-family="sans-serif" font-size="14.00" fill="#000000"> &#160;Module</text>
<polygon fill="#80b1d3" stroke="transparent" points="213,-10 213,-30 233,-30 233,-10 213,-10"/>
<text text-anchor="start" x="236.7812" y="-15.4" font-family="sans-serif" font-size="14.00" fill="#000000"> &#160;Bootstrap</text>
<polygon fill="#fdb462" stroke="transparent" points="310,-10 310,-30 330,-30 330,-10 310,-10"/>
<text text-anchor="start" x="333.6732" y="-15.4" font-family="sans-serif" font-size="14.00" fill="#000000"> &#160;Providers</text>
<polygon fill="#fb8072" stroke="transparent" points="406,-10 406,-30 426,-30 426,-10 406,-10"/>
<text text-anchor="start" x="429.7258" y="-15.4" font-family="sans-serif" font-size="14.00" fill="#000000"> &#160;Exports</text>
<g id="clust1" class="cluster">
<title>cluster_ProductSummaryModule</title>
<polygon fill="none" stroke="#000000" stroke-dasharray="1,5" points="31,-70 31,-268 465,-268 465,-70 31,-70"/>
</g>
<g id="clust2" class="cluster">
<title>cluster_ProductSummaryModule_declarations</title>
<polygon fill="none" stroke="#000000" points="261,-78 261,-130 457,-130 457,-78 261,-78"/>
</g>
<g id="clust4" class="cluster">
<title>cluster_ProductSummaryModule_imports</title>
<polygon fill="none" stroke="#000000" points="39,-78 39,-130 253,-130 253,-78 39,-78"/>
</g>
<g id="clust5" class="cluster">
<title>cluster_ProductSummaryModule_exports</title>
<polygon fill="none" stroke="#000000" points="103,-208 103,-260 301,-260 301,-208 103,-208"/>
</g>
<!-- ProductSummaryComponent -->
<g id="node1" class="node">
<title>ProductSummaryComponent</title>
<polygon fill="#ffffb3" stroke="#000000" points="448.8201,-122 269.1799,-122 269.1799,-86 448.8201,-86 448.8201,-122"/>
<text text-anchor="middle" x="359" y="-99.8" font-family="Times,serif" font-size="14.00" fill="#000000">ProductSummaryComponent</text>
</g>
<!-- ProductSummaryModule -->
<g id="node2" class="node">
<title>ProductSummaryModule</title>
<polygon fill="#8dd3c7" stroke="#000000" points="280.5379,-187 277.5379,-191 256.5379,-191 253.5379,-187 123.4621,-187 123.4621,-151 280.5379,-151 280.5379,-187"/>
<text text-anchor="middle" x="202" y="-164.8" font-family="Times,serif" font-size="14.00" fill="#000000">ProductSummaryModule</text>
</g>
<!-- ProductSummaryComponent&#45;&gt;ProductSummaryModule -->
<g id="edge1" class="edge">
<title>ProductSummaryComponent&#45;&gt;ProductSummaryModule</title>
<path fill="none" stroke="#000000" d="M275.0544,-122.1061C275.0544,-122.1061 275.0544,-140.991 275.0544,-140.991"/>
<polygon fill="#000000" stroke="#000000" points="271.5544,-140.9909 275.0544,-150.991 278.5544,-140.991 271.5544,-140.9909"/>
</g>
<!-- ProductSummaryComponent  -->
<g id="node5" class="node">
<title>ProductSummaryComponent </title>
<polygon fill="#fb8072" stroke="#000000" points="293.3199,-252 110.6801,-252 110.6801,-216 293.3199,-216 293.3199,-252"/>
<text text-anchor="middle" x="202" y="-229.8" font-family="Times,serif" font-size="14.00" fill="#000000">ProductSummaryComponent </text>
</g>
<!-- ProductSummaryModule&#45;&gt;ProductSummaryComponent  -->
<g id="edge4" class="edge">
<title>ProductSummaryModule&#45;&gt;ProductSummaryComponent </title>
<path fill="none" stroke="#000000" stroke-dasharray="5,2" d="M202,-187.1061C202,-187.1061 202,-205.991 202,-205.991"/>
<polygon fill="#000000" stroke="#000000" points="198.5001,-205.9909 202,-215.991 205.5001,-205.991 198.5001,-205.9909"/>
</g>
<!-- I18nModule -->
<g id="node3" class="node">
<title>I18nModule</title>
<polygon fill="#8dd3c7" stroke="#000000" points="244.7107,-122 241.7107,-126 220.7107,-126 217.7107,-122 159.2893,-122 159.2893,-86 244.7107,-86 244.7107,-122"/>
<text text-anchor="middle" x="202" y="-99.8" font-family="Times,serif" font-size="14.00" fill="#000000">I18nModule</text>
</g>
<!-- I18nModule&#45;&gt;ProductSummaryModule -->
<g id="edge2" class="edge">
<title>I18nModule&#45;&gt;ProductSummaryModule</title>
<path fill="none" stroke="#000000" d="M202,-122.1061C202,-122.1061 202,-140.991 202,-140.991"/>
<polygon fill="#000000" stroke="#000000" points="198.5001,-140.9909 202,-150.991 205.5001,-140.991 198.5001,-140.9909"/>
</g>
<!-- OutletModule -->
<g id="node4" class="node">
<title>OutletModule</title>
<polygon fill="#8dd3c7" stroke="#000000" points="141.0439,-122 138.0439,-126 117.0439,-126 114.0439,-122 46.9561,-122 46.9561,-86 141.0439,-86 141.0439,-122"/>
<text text-anchor="middle" x="94" y="-99.8" font-family="Times,serif" font-size="14.00" fill="#000000">OutletModule</text>
</g>
<!-- OutletModule&#45;&gt;ProductSummaryModule -->
<g id="edge3" class="edge">
<title>OutletModule&#45;&gt;ProductSummaryModule</title>
<path fill="none" stroke="#000000" d="M132.2514,-122.1061C132.2514,-122.1061 132.2514,-140.991 132.2514,-140.991"/>
<polygon fill="#000000" stroke="#000000" points="128.7515,-140.9909 132.2514,-150.991 135.7515,-140.991 128.7515,-140.9909"/>
</g>
</g>
</svg>
