<?xml version="1.0" encoding="UTF-8" standalone="no"?>
<!DOCTYPE svg PUBLIC "-//W3C//DTD SVG 1.1//EN"
 "http://www.w3.org/Graphics/SVG/1.1/DTD/svg11.dtd">
<!-- Generated by graphviz version 2.46.0 (20210119.1425)
 -->
<!-- Title: dependencies Pages: 1 -->
<svg width="504pt" height="284pt"
 viewBox="0.00 0.00 504.00 284.00" xmlns="http://www.w3.org/2000/svg" xmlns:xlink="http://www.w3.org/1999/xlink">
<g id="graph0" class="graph" transform="scale(1 1) rotate(0) translate(4 280)">
<title>dependencies</title>
<polygon fill="white" stroke="transparent" points="-4,4 -4,-280 500,-280 500,4 -4,4"/>
<text text-anchor="start" x="227.01" y="-42.4" font-family="sans-serif" font-weight="bold" font-size="14.00">Legend</text>
<polygon fill="#ffffb3" stroke="transparent" points="14,-10 14,-30 34,-30 34,-10 14,-10"/>
<text text-anchor="start" x="37.63" y="-15.4" font-family="sans-serif" font-size="14.00"> &#160;Declarations</text>
<polygon fill="#8dd3c7" stroke="transparent" points="127,-10 127,-30 147,-30 147,-10 127,-10"/>
<text text-anchor="start" x="150.73" y="-15.4" font-family="sans-serif" font-size="14.00"> &#160;Module</text>
<polygon fill="#80b1d3" stroke="transparent" points="213,-10 213,-30 233,-30 233,-10 213,-10"/>
<text text-anchor="start" x="236.78" y="-15.4" font-family="sans-serif" font-size="14.00"> &#160;Bootstrap</text>
<polygon fill="#fdb462" stroke="transparent" points="310,-10 310,-30 330,-30 330,-10 310,-10"/>
<text text-anchor="start" x="333.67" y="-15.4" font-family="sans-serif" font-size="14.00"> &#160;Providers</text>
<polygon fill="#fb8072" stroke="transparent" points="406,-10 406,-30 426,-30 426,-10 406,-10"/>
<text text-anchor="start" x="429.73" y="-15.4" font-family="sans-serif" font-size="14.00"> &#160;Exports</text>
<g id="clust1" class="cluster">
<title>cluster_ProductSummaryModule</title>
<polygon fill="none" stroke="black" stroke-dasharray="1,5" points="31,-70 31,-268 465,-268 465,-70 31,-70"/>
</g>
<g id="clust5" class="cluster">
<title>cluster_ProductSummaryModule_exports</title>
<polygon fill="none" stroke="black" points="199,-208 199,-260 397,-260 397,-208 199,-208"/>
</g>
<g id="clust4" class="cluster">
<title>cluster_ProductSummaryModule_imports</title>
<polygon fill="none" stroke="black" points="243,-78 243,-130 457,-130 457,-78 243,-78"/>
</g>
<g id="clust2" class="cluster">
<title>cluster_ProductSummaryModule_declarations</title>
<polygon fill="none" stroke="black" points="39,-78 39,-130 235,-130 235,-78 39,-78"/>
</g>
<!-- ProductSummaryComponent -->
<g id="node1" class="node">
<title>ProductSummaryComponent</title>
<polygon fill="#ffffb3" stroke="black" points="226.82,-122 47.18,-122 47.18,-86 226.82,-86 226.82,-122"/>
<text text-anchor="middle" x="137" y="-99.8" font-family="Times,serif" font-size="14.00">ProductSummaryComponent</text>
</g>
<!-- ProductSummaryModule -->
<g id="node2" class="node">
<title>ProductSummaryModule</title>
<polygon fill="#8dd3c7" stroke="black" points="376.54,-187 373.54,-191 352.54,-191 349.54,-187 219.46,-187 219.46,-151 376.54,-151 376.54,-187"/>
<text text-anchor="middle" x="298" y="-164.8" font-family="Times,serif" font-size="14.00">ProductSummaryModule</text>
</g>
<!-- ProductSummaryComponent&#45;&gt;ProductSummaryModule -->
<g id="edge1" class="edge">
<title>ProductSummaryComponent&#45;&gt;ProductSummaryModule</title>
<path fill="none" stroke="black" d="M222.95,-122.11C222.95,-122.11 222.95,-140.99 222.95,-140.99"/>
<polygon fill="black" stroke="black" points="219.45,-140.99 222.95,-150.99 226.45,-140.99 219.45,-140.99"/>
</g>
<!-- ProductSummaryComponent  -->
<g id="node5" class="node">
<title>ProductSummaryComponent </title>
<polygon fill="#fb8072" stroke="black" points="389.32,-252 206.68,-252 206.68,-216 389.32,-216 389.32,-252"/>
<text text-anchor="middle" x="298" y="-229.8" font-family="Times,serif" font-size="14.00">ProductSummaryComponent </text>
</g>
<!-- ProductSummaryModule&#45;&gt;ProductSummaryComponent  -->
<g id="edge4" class="edge">
<title>ProductSummaryModule&#45;&gt;ProductSummaryComponent </title>
<path fill="none" stroke="black" stroke-dasharray="5,2" d="M298,-187.11C298,-187.11 298,-205.99 298,-205.99"/>
<polygon fill="black" stroke="black" points="294.5,-205.99 298,-215.99 301.5,-205.99 294.5,-205.99"/>
</g>
<!-- I18nModule -->
<g id="node3" class="node">
<title>I18nModule</title>
<polygon fill="#8dd3c7" stroke="black" points="448.71,-122 445.71,-126 424.71,-126 421.71,-122 363.29,-122 363.29,-86 448.71,-86 448.71,-122"/>
<text text-anchor="middle" x="406" y="-99.8" font-family="Times,serif" font-size="14.00">I18nModule</text>
</g>
<!-- I18nModule&#45;&gt;ProductSummaryModule -->
<g id="edge2" class="edge">
<title>I18nModule&#45;&gt;ProductSummaryModule</title>
<path fill="none" stroke="black" d="M370.08,-122.11C370.08,-122.11 370.08,-140.99 370.08,-140.99"/>
<polygon fill="black" stroke="black" points="366.58,-140.99 370.08,-150.99 373.58,-140.99 366.58,-140.99"/>
</g>
<!-- OutletModule -->
<g id="node4" class="node">
<title>OutletModule</title>
<polygon fill="#8dd3c7" stroke="black" points="345.04,-122 342.04,-126 321.04,-126 318.04,-122 250.96,-122 250.96,-86 345.04,-86 345.04,-122"/>
<text text-anchor="middle" x="298" y="-99.8" font-family="Times,serif" font-size="14.00">OutletModule</text>
</g>
<!-- OutletModule&#45;&gt;ProductSummaryModule -->
<g id="edge3" class="edge">
<title>OutletModule&#45;&gt;ProductSummaryModule</title>
<path fill="none" stroke="black" d="M298,-122.11C298,-122.11 298,-140.99 298,-140.99"/>
<polygon fill="black" stroke="black" points="294.5,-140.99 298,-150.99 301.5,-140.99 294.5,-140.99"/>
</g>
</g>
</svg>
