<?xml version="1.0" encoding="UTF-8" standalone="no"?>
<!DOCTYPE svg PUBLIC "-//W3C//DTD SVG 1.1//EN"
 "http://www.w3.org/Graphics/SVG/1.1/DTD/svg11.dtd">
<!-- Generated by graphviz version 2.44.1 (20200629.0846)
 -->
<!-- Title: dependencies Pages: 1 -->
<svg width="504pt" height="284pt"
 viewBox="0.00 0.00 504.00 284.00" xmlns="http://www.w3.org/2000/svg" xmlns:xlink="http://www.w3.org/1999/xlink">
<g id="graph0" class="graph" transform="scale(1 1) rotate(0) translate(4 280)">
<title>dependencies</title>
<polygon fill="white" stroke="transparent" points="-4,4 -4,-280 500,-280 500,4 -4,4"/>
<text text-anchor="start" x="227.01" y="-42.4" font-family="sans-serif" font-weight="bold" font-size="14.00">Legend</text>
<polygon fill="#ffffb3" stroke="transparent" points="14,-10 14,-30 34,-30 34,-10 14,-10"/>
<text text-anchor="start" x="37.63" y="-15.4" font-family="sans-serif" font-size="14.00"> &#160;Declarations</text>
<polygon fill="#8dd3c7" stroke="transparent" points="127,-10 127,-30 147,-30 147,-10 127,-10"/>
<text text-anchor="start" x="150.73" y="-15.4" font-family="sans-serif" font-size="14.00"> &#160;Module</text>
<polygon fill="#80b1d3" stroke="transparent" points="213,-10 213,-30 233,-30 233,-10 213,-10"/>
<text text-anchor="start" x="236.78" y="-15.4" font-family="sans-serif" font-size="14.00"> &#160;Bootstrap</text>
<polygon fill="#fdb462" stroke="transparent" points="310,-10 310,-30 330,-30 330,-10 310,-10"/>
<text text-anchor="start" x="333.67" y="-15.4" font-family="sans-serif" font-size="14.00"> &#160;Providers</text>
<polygon fill="#fb8072" stroke="transparent" points="406,-10 406,-30 426,-30 426,-10 406,-10"/>
<text text-anchor="start" x="429.73" y="-15.4" font-family="sans-serif" font-size="14.00"> &#160;Exports</text>
<g id="clust1" class="cluster">
<title>cluster_ProductSummaryModule</title>
<polygon fill="none" stroke="black" stroke-dasharray="1,5" points="31,-70 31,-268 465,-268 465,-70 31,-70"/>
</g>
<g id="clust2" class="cluster">
<title>cluster_ProductSummaryModule_declarations</title>
<polygon fill="none" stroke="black" points="261,-78 261,-130 457,-130 457,-78 261,-78"/>
</g>
<g id="clust5" class="cluster">
<title>cluster_ProductSummaryModule_exports</title>
<polygon fill="none" stroke="black" points="103,-208 103,-260 301,-260 301,-208 103,-208"/>
</g>
<g id="clust4" class="cluster">
<title>cluster_ProductSummaryModule_imports</title>
<polygon fill="none" stroke="black" points="39,-78 39,-130 253,-130 253,-78 39,-78"/>
</g>
<!-- ProductSummaryComponent -->
<g id="node1" class="node">
<title>ProductSummaryComponent</title>
<polygon fill="#ffffb3" stroke="black" points="448.82,-122 269.18,-122 269.18,-86 448.82,-86 448.82,-122"/>
<text text-anchor="middle" x="359" y="-99.8" font-family="Times,serif" font-size="14.00">ProductSummaryComponent</text>
</g>
<!-- ProductSummaryModule -->
<g id="node2" class="node">
<title>ProductSummaryModule</title>
<polygon fill="#8dd3c7" stroke="black" points="280.54,-187 277.54,-191 256.54,-191 253.54,-187 123.46,-187 123.46,-151 280.54,-151 280.54,-187"/>
<text text-anchor="middle" x="202" y="-164.8" font-family="Times,serif" font-size="14.00">ProductSummaryModule</text>
</g>
<!-- ProductSummaryComponent&#45;&gt;ProductSummaryModule -->
<g id="edge1" class="edge">
<title>ProductSummaryComponent&#45;&gt;ProductSummaryModule</title>
<path fill="none" stroke="black" d="M275.05,-122.11C275.05,-122.11 275.05,-140.99 275.05,-140.99"/>
<polygon fill="black" stroke="black" points="271.55,-140.99 275.05,-150.99 278.55,-140.99 271.55,-140.99"/>
</g>
<!-- ProductSummaryComponent  -->
<g id="node5" class="node">
<title>ProductSummaryComponent </title>
<polygon fill="#fb8072" stroke="black" points="293.32,-252 110.68,-252 110.68,-216 293.32,-216 293.32,-252"/>
<text text-anchor="middle" x="202" y="-229.8" font-family="Times,serif" font-size="14.00">ProductSummaryComponent </text>
</g>
<!-- ProductSummaryModule&#45;&gt;ProductSummaryComponent  -->
<g id="edge4" class="edge">
<title>ProductSummaryModule&#45;&gt;ProductSummaryComponent </title>
<path fill="none" stroke="black" stroke-dasharray="5,2" d="M202,-187.11C202,-187.11 202,-205.99 202,-205.99"/>
<polygon fill="black" stroke="black" points="198.5,-205.99 202,-215.99 205.5,-205.99 198.5,-205.99"/>
</g>
<!-- I18nModule -->
<g id="node3" class="node">
<title>I18nModule</title>
<polygon fill="#8dd3c7" stroke="black" points="244.71,-122 241.71,-126 220.71,-126 217.71,-122 159.29,-122 159.29,-86 244.71,-86 244.71,-122"/>
<text text-anchor="middle" x="202" y="-99.8" font-family="Times,serif" font-size="14.00">I18nModule</text>
</g>
<!-- I18nModule&#45;&gt;ProductSummaryModule -->
<g id="edge2" class="edge">
<title>I18nModule&#45;&gt;ProductSummaryModule</title>
<path fill="none" stroke="black" d="M202,-122.11C202,-122.11 202,-140.99 202,-140.99"/>
<polygon fill="black" stroke="black" points="198.5,-140.99 202,-150.99 205.5,-140.99 198.5,-140.99"/>
</g>
<!-- OutletModule -->
<g id="node4" class="node">
<title>OutletModule</title>
<polygon fill="#8dd3c7" stroke="black" points="141.04,-122 138.04,-126 117.04,-126 114.04,-122 46.96,-122 46.96,-86 141.04,-86 141.04,-122"/>
<text text-anchor="middle" x="94" y="-99.8" font-family="Times,serif" font-size="14.00">OutletModule</text>
</g>
<!-- OutletModule&#45;&gt;ProductSummaryModule -->
<g id="edge3" class="edge">
<title>OutletModule&#45;&gt;ProductSummaryModule</title>
<path fill="none" stroke="black" d="M132.25,-122.11C132.25,-122.11 132.25,-140.99 132.25,-140.99"/>
<polygon fill="black" stroke="black" points="128.75,-140.99 132.25,-150.99 135.75,-140.99 128.75,-140.99"/>
</g>
</g>
</svg>
