<?xml version="1.0" encoding="UTF-8" standalone="no"?>
<!DOCTYPE svg PUBLIC "-//W3C//DTD SVG 1.1//EN"
 "http://www.w3.org/Graphics/SVG/1.1/DTD/svg11.dtd">
<!-- Generated by graphviz version 2.40.1 (20161225.0304)
 -->
<!-- Title: dependencies Pages: 1 -->
<svg width="574pt" height="284pt"
 viewBox="0.00 0.00 574.00 284.00" xmlns="http://www.w3.org/2000/svg" xmlns:xlink="http://www.w3.org/1999/xlink">
<g id="graph0" class="graph" transform="scale(1 1) rotate(0) translate(4 280)">
<title>dependencies</title>
<polygon fill="#ffffff" stroke="transparent" points="-4,4 -4,-280 570,-280 570,4 -4,4"/>
<text text-anchor="start" x="262.0091" y="-42.4" font-family="sans-serif" font-weight="bold" font-size="14.00" fill="#000000">Legend</text>
<polygon fill="#ffffb3" stroke="transparent" points="49,-10 49,-30 69,-30 69,-10 49,-10"/>
<text text-anchor="start" x="72.629" y="-15.4" font-family="sans-serif" font-size="14.00" fill="#000000"> &#160;Declarations</text>
<polygon fill="#8dd3c7" stroke="transparent" points="162,-10 162,-30 182,-30 182,-10 162,-10"/>
<text text-anchor="start" x="185.7251" y="-15.4" font-family="sans-serif" font-size="14.00" fill="#000000"> &#160;Module</text>
<polygon fill="#80b1d3" stroke="transparent" points="248,-10 248,-30 268,-30 268,-10 248,-10"/>
<text text-anchor="start" x="271.7812" y="-15.4" font-family="sans-serif" font-size="14.00" fill="#000000"> &#160;Bootstrap</text>
<polygon fill="#fdb462" stroke="transparent" points="345,-10 345,-30 365,-30 365,-10 345,-10"/>
<text text-anchor="start" x="368.6732" y="-15.4" font-family="sans-serif" font-size="14.00" fill="#000000"> &#160;Providers</text>
<polygon fill="#fb8072" stroke="transparent" points="441,-10 441,-30 461,-30 461,-10 441,-10"/>
<text text-anchor="start" x="464.7258" y="-15.4" font-family="sans-serif" font-size="14.00" fill="#000000"> &#160;Exports</text>
<g id="clust1" class="cluster">
<title>cluster_ProductSummaryModule</title>
<polygon fill="none" stroke="#000000" stroke-dasharray="1,5" points="8,-70 8,-268 558,-268 558,-70 8,-70"/>
</g>
<g id="clust2" class="cluster">
<title>cluster_ProductSummaryModule_declarations</title>
<polygon fill="none" stroke="#000000" points="354,-78 354,-130 550,-130 550,-78 354,-78"/>
</g>
<g id="clust4" class="cluster">
<title>cluster_ProductSummaryModule_imports</title>
<polygon fill="none" stroke="#000000" points="16,-78 16,-130 346,-130 346,-78 16,-78"/>
</g>
<g id="clust5" class="cluster">
<title>cluster_ProductSummaryModule_exports</title>
<polygon fill="none" stroke="#000000" points="135,-208 135,-260 333,-260 333,-208 135,-208"/>
</g>
<!-- ProductSummaryComponent -->
<g id="node1" class="node">
<title>ProductSummaryComponent</title>
<polygon fill="#ffffb3" stroke="#000000" points="541.8201,-122 362.1799,-122 362.1799,-86 541.8201,-86 541.8201,-122"/>
<text text-anchor="middle" x="452" y="-99.8" font-family="Times,serif" font-size="14.00" fill="#000000">ProductSummaryComponent</text>
</g>
<!-- ProductSummaryModule -->
<g id="node2" class="node">
<title>ProductSummaryModule</title>
<polygon fill="#8dd3c7" stroke="#000000" points="312.5379,-187 309.5379,-191 288.5379,-191 285.5379,-187 155.4621,-187 155.4621,-151 312.5379,-151 312.5379,-187"/>
<text text-anchor="middle" x="234" y="-164.8" font-family="Times,serif" font-size="14.00" fill="#000000">ProductSummaryModule</text>
</g>
<!-- ProductSummaryComponent&#45;&gt;ProductSummaryModule -->
<g id="edge1" class="edge">
<title>ProductSummaryComponent&#45;&gt;ProductSummaryModule</title>
<path fill="none" stroke="#000000" d="M452,-122.1061C452,-141.3391 452,-169 452,-169 452,-169 322.703,-169 322.703,-169"/>
<polygon fill="#000000" stroke="#000000" points="322.703,-165.5001 312.703,-169 322.703,-172.5001 322.703,-165.5001"/>
</g>
<!-- ProductSummaryComponent  -->
<g id="node6" class="node">
<title>ProductSummaryComponent </title>
<polygon fill="#fb8072" stroke="#000000" points="325.3199,-252 142.6801,-252 142.6801,-216 325.3199,-216 325.3199,-252"/>
<text text-anchor="middle" x="234" y="-229.8" font-family="Times,serif" font-size="14.00" fill="#000000">ProductSummaryComponent </text>
</g>
<!-- ProductSummaryModule&#45;&gt;ProductSummaryComponent  -->
<g id="edge5" class="edge">
<title>ProductSummaryModule&#45;&gt;ProductSummaryComponent </title>
<path fill="none" stroke="#000000" stroke-dasharray="5,2" d="M234,-187.1061C234,-187.1061 234,-205.991 234,-205.991"/>
<polygon fill="#000000" stroke="#000000" points="230.5001,-205.9909 234,-215.991 237.5001,-205.991 230.5001,-205.9909"/>
</g>
<!-- ConfigModule -->
<g id="node3" class="node">
<title>ConfigModule</title>
<polygon fill="#8dd3c7" stroke="#000000" points="338.4386,-122 335.4386,-126 314.4386,-126 311.4386,-122 239.5614,-122 239.5614,-86 338.4386,-86 338.4386,-122"/>
<text text-anchor="middle" x="289" y="-99.8" font-family="Times,serif" font-size="14.00" fill="#000000">ConfigModule</text>
</g>
<!-- ConfigModule&#45;&gt;ProductSummaryModule -->
<g id="edge2" class="edge">
<title>ConfigModule&#45;&gt;ProductSummaryModule</title>
<path fill="none" stroke="#000000" d="M276.2749,-122.1061C276.2749,-122.1061 276.2749,-140.991 276.2749,-140.991"/>
<polygon fill="#000000" stroke="#000000" points="272.775,-140.9909 276.2749,-150.991 279.775,-140.991 272.775,-140.9909"/>
</g>
<!-- I18nModule -->
<g id="node4" class="node">
<title>I18nModule</title>
<polygon fill="#8dd3c7" stroke="#000000" points="221.7107,-122 218.7107,-126 197.7107,-126 194.7107,-122 136.2893,-122 136.2893,-86 221.7107,-86 221.7107,-122"/>
<text text-anchor="middle" x="179" y="-99.8" font-family="Times,serif" font-size="14.00" fill="#000000">I18nModule</text>
</g>
<!-- I18nModule&#45;&gt;ProductSummaryModule -->
<g id="edge3" class="edge">
<title>I18nModule&#45;&gt;ProductSummaryModule</title>
<path fill="none" stroke="#000000" d="M188.4183,-122.1061C188.4183,-122.1061 188.4183,-140.991 188.4183,-140.991"/>
<polygon fill="#000000" stroke="#000000" points="184.9184,-140.9909 188.4183,-150.991 191.9184,-140.991 184.9184,-140.9909"/>
</g>
<!-- OutletModule -->
<g id="node5" class="node">
<title>OutletModule</title>
<polygon fill="#8dd3c7" stroke="#000000" points="118.0439,-122 115.0439,-126 94.0439,-126 91.0439,-122 23.9561,-122 23.9561,-86 118.0439,-86 118.0439,-122"/>
<text text-anchor="middle" x="71" y="-99.8" font-family="Times,serif" font-size="14.00" fill="#000000">OutletModule</text>
</g>
<!-- OutletModule&#45;&gt;ProductSummaryModule -->
<g id="edge4" class="edge">
<title>OutletModule&#45;&gt;ProductSummaryModule</title>
<path fill="none" stroke="#000000" d="M71,-122.1061C71,-141.3391 71,-169 71,-169 71,-169 145.3647,-169 145.3647,-169"/>
<polygon fill="#000000" stroke="#000000" points="145.3647,-172.5001 155.3647,-169 145.3647,-165.5001 145.3647,-172.5001"/>
</g>
</g>
</svg>
