<?xml version="1.0" encoding="UTF-8" standalone="no"?>
<!DOCTYPE svg PUBLIC "-//W3C//DTD SVG 1.1//EN"
 "http://www.w3.org/Graphics/SVG/1.1/DTD/svg11.dtd">
<!-- Generated by graphviz version 2.40.1 (20161225.0304)
 -->
<!-- Title: dependencies Pages: 1 -->
<svg width="852pt" height="284pt"
 viewBox="0.00 0.00 852.00 284.00" xmlns="http://www.w3.org/2000/svg" xmlns:xlink="http://www.w3.org/1999/xlink">
<g id="graph0" class="graph" transform="scale(1 1) rotate(0) translate(4 280)">
<title>dependencies</title>
<polygon fill="#ffffff" stroke="transparent" points="-4,4 -4,-280 848,-280 848,4 -4,4"/>
<text text-anchor="start" x="401.0091" y="-42.4" font-family="sans-serif" font-weight="bold" font-size="14.00" fill="#000000">Legend</text>
<polygon fill="#ffffb3" stroke="transparent" points="188,-10 188,-30 208,-30 208,-10 188,-10"/>
<text text-anchor="start" x="211.629" y="-15.4" font-family="sans-serif" font-size="14.00" fill="#000000"> &#160;Declarations</text>
<polygon fill="#8dd3c7" stroke="transparent" points="301,-10 301,-30 321,-30 321,-10 301,-10"/>
<text text-anchor="start" x="324.7251" y="-15.4" font-family="sans-serif" font-size="14.00" fill="#000000"> &#160;Module</text>
<polygon fill="#80b1d3" stroke="transparent" points="387,-10 387,-30 407,-30 407,-10 387,-10"/>
<text text-anchor="start" x="410.7812" y="-15.4" font-family="sans-serif" font-size="14.00" fill="#000000"> &#160;Bootstrap</text>
<polygon fill="#fdb462" stroke="transparent" points="484,-10 484,-30 504,-30 504,-10 484,-10"/>
<text text-anchor="start" x="507.6732" y="-15.4" font-family="sans-serif" font-size="14.00" fill="#000000"> &#160;Providers</text>
<polygon fill="#fb8072" stroke="transparent" points="580,-10 580,-30 600,-30 600,-10 580,-10"/>
<text text-anchor="start" x="603.7258" y="-15.4" font-family="sans-serif" font-size="14.00" fill="#000000"> &#160;Exports</text>
<g id="clust1" class="cluster">
<title>cluster_NavigationModule</title>
<polygon fill="none" stroke="#000000" stroke-dasharray="1,5" points="8,-70 8,-268 836,-268 836,-70 8,-70"/>
</g>
<g id="clust2" class="cluster">
<title>cluster_NavigationModule_declarations</title>
<polygon fill="none" stroke="#000000" points="492,-78 492,-130 828,-130 828,-78 492,-78"/>
</g>
<g id="clust5" class="cluster">
<title>cluster_NavigationModule_imports</title>
<polygon fill="none" stroke="#000000" points="16,-78 16,-130 484,-130 484,-78 16,-78"/>
</g>
<g id="clust6" class="cluster">
<title>cluster_NavigationModule_exports</title>
<polygon fill="none" stroke="#000000" points="186,-208 186,-260 529,-260 529,-208 186,-208"/>
</g>
<!-- NavigationComponent -->
<g id="node1" class="node">
<title>NavigationComponent</title>
<polygon fill="#ffffb3" stroke="#000000" points="819.5407,-122 676.4593,-122 676.4593,-86 819.5407,-86 819.5407,-122"/>
<text text-anchor="middle" x="748" y="-99.8" font-family="Times,serif" font-size="14.00" fill="#000000">NavigationComponent</text>
</g>
<!-- NavigationModule -->
<g id="node3" class="node">
<title>NavigationModule</title>
<polygon fill="#8dd3c7" stroke="#000000" points="421.7576,-187 418.7576,-191 397.7576,-191 394.7576,-187 300.2424,-187 300.2424,-151 421.7576,-151 421.7576,-187"/>
<text text-anchor="middle" x="361" y="-164.8" font-family="Times,serif" font-size="14.00" fill="#000000">NavigationModule</text>
</g>
<!-- NavigationComponent&#45;&gt;NavigationModule -->
<g id="edge1" class="edge">
<title>NavigationComponent&#45;&gt;NavigationModule</title>
<path fill="none" stroke="#000000" d="M748,-122.2843C748,-143.3211 748,-175 748,-175 748,-175 431.8945,-175 431.8945,-175"/>
<polygon fill="#000000" stroke="#000000" points="431.8945,-171.5001 421.8945,-175 431.8944,-178.5001 431.8945,-171.5001"/>
</g>
<!-- NavigationUIComponent -->
<g id="node2" class="node">
<title>NavigationUIComponent</title>
<polygon fill="#ffffb3" stroke="#000000" points="658.3075,-122 499.6925,-122 499.6925,-86 658.3075,-86 658.3075,-122"/>
<text text-anchor="middle" x="579" y="-99.8" font-family="Times,serif" font-size="14.00" fill="#000000">NavigationUIComponent</text>
</g>
<!-- NavigationUIComponent&#45;&gt;NavigationModule -->
<g id="edge2" class="edge">
<title>NavigationUIComponent&#45;&gt;NavigationModule</title>
<path fill="none" stroke="#000000" d="M510.1832,-122.0225C510.1832,-139.3734 510.1832,-163 510.1832,-163 510.1832,-163 432.109,-163 432.109,-163"/>
<polygon fill="#000000" stroke="#000000" points="432.109,-159.5001 422.109,-163 432.1089,-166.5001 432.109,-159.5001"/>
</g>
<!-- NavigationComponent  -->
<g id="node8" class="node">
<title>NavigationComponent </title>
<polygon fill="#fb8072" stroke="#000000" points="520.54,-252 373.46,-252 373.46,-216 520.54,-216 520.54,-252"/>
<text text-anchor="middle" x="447" y="-229.8" font-family="Times,serif" font-size="14.00" fill="#000000">NavigationComponent </text>
</g>
<!-- NavigationModule&#45;&gt;NavigationComponent  -->
<g id="edge7" class="edge">
<title>NavigationModule&#45;&gt;NavigationComponent </title>
<path fill="none" stroke="#000000" stroke-dasharray="5,2" d="M397.6794,-187.1061C397.6794,-187.1061 397.6794,-205.991 397.6794,-205.991"/>
<polygon fill="#000000" stroke="#000000" points="394.1794,-205.9909 397.6794,-215.991 401.1794,-205.991 394.1794,-205.9909"/>
</g>
<!-- NavigationUIComponent  -->
<g id="node9" class="node">
<title>NavigationUIComponent </title>
<polygon fill="#fb8072" stroke="#000000" points="355.8073,-252 194.1927,-252 194.1927,-216 355.8073,-216 355.8073,-252"/>
<text text-anchor="middle" x="275" y="-229.8" font-family="Times,serif" font-size="14.00" fill="#000000">NavigationUIComponent </text>
</g>
<!-- NavigationModule&#45;&gt;NavigationUIComponent  -->
<g id="edge8" class="edge">
<title>NavigationModule&#45;&gt;NavigationUIComponent </title>
<path fill="none" stroke="#000000" stroke-dasharray="5,2" d="M328.0125,-187.1061C328.0125,-187.1061 328.0125,-205.991 328.0125,-205.991"/>
<polygon fill="#000000" stroke="#000000" points="324.5125,-205.9909 328.0125,-215.991 331.5125,-205.991 324.5125,-205.9909"/>
</g>
<!-- ConfigModule -->
<g id="node4" class="node">
<title>ConfigModule</title>
<polygon fill="#8dd3c7" stroke="#000000" points="476.4386,-122 473.4386,-126 452.4386,-126 449.4386,-122 377.5614,-122 377.5614,-86 476.4386,-86 476.4386,-122"/>
<text text-anchor="middle" x="427" y="-99.8" font-family="Times,serif" font-size="14.00" fill="#000000">ConfigModule</text>
</g>
<!-- ConfigModule&#45;&gt;NavigationModule -->
<g id="edge3" class="edge">
<title>ConfigModule&#45;&gt;NavigationModule</title>
<path fill="none" stroke="#000000" d="M399.83,-122.1061C399.83,-122.1061 399.83,-140.991 399.83,-140.991"/>
<polygon fill="#000000" stroke="#000000" points="396.33,-140.9909 399.83,-150.991 403.33,-140.991 396.33,-140.9909"/>
</g>
<!-- GenericLinkModule -->
<g id="node5" class="node">
<title>GenericLinkModule</title>
<polygon fill="#8dd3c7" stroke="#000000" points="360.2949,-122 357.2949,-126 336.2949,-126 333.2949,-122 229.7051,-122 229.7051,-86 360.2949,-86 360.2949,-122"/>
<text text-anchor="middle" x="295" y="-99.8" font-family="Times,serif" font-size="14.00" fill="#000000">GenericLinkModule</text>
</g>
<!-- GenericLinkModule&#45;&gt;NavigationModule -->
<g id="edge4" class="edge">
<title>GenericLinkModule&#45;&gt;NavigationModule</title>
<path fill="none" stroke="#000000" d="M330.1343,-122.1061C330.1343,-122.1061 330.1343,-140.991 330.1343,-140.991"/>
<polygon fill="#000000" stroke="#000000" points="326.6344,-140.9909 330.1343,-150.991 333.6344,-140.991 326.6344,-140.9909"/>
</g>
<!-- I18nModule -->
<g id="node6" class="node">
<title>I18nModule</title>
<polygon fill="#8dd3c7" stroke="#000000" points="211.7107,-122 208.7107,-126 187.7107,-126 184.7107,-122 126.2893,-122 126.2893,-86 211.7107,-86 211.7107,-122"/>
<text text-anchor="middle" x="169" y="-99.8" font-family="Times,serif" font-size="14.00" fill="#000000">I18nModule</text>
</g>
<!-- I18nModule&#45;&gt;NavigationModule -->
<g id="edge5" class="edge">
<title>I18nModule&#45;&gt;NavigationModule</title>
<path fill="none" stroke="#000000" d="M202.8508,-122.0225C202.8508,-139.3734 202.8508,-163 202.8508,-163 202.8508,-163 289.8554,-163 289.8554,-163"/>
<polygon fill="#000000" stroke="#000000" points="289.8554,-166.5001 299.8554,-163 289.8554,-159.5001 289.8554,-166.5001"/>
</g>
<!-- IconModule -->
<g id="node7" class="node">
<title>IconModule</title>
<polygon fill="#8dd3c7" stroke="#000000" points="108.4261,-122 105.4261,-126 84.4261,-126 81.4261,-122 23.5739,-122 23.5739,-86 108.4261,-86 108.4261,-122"/>
<text text-anchor="middle" x="66" y="-99.8" font-family="Times,serif" font-size="14.00" fill="#000000">IconModule</text>
</g>
<!-- IconModule&#45;&gt;NavigationModule -->
<g id="edge6" class="edge">
<title>IconModule&#45;&gt;NavigationModule</title>
<path fill="none" stroke="#000000" d="M66,-122.2843C66,-143.3211 66,-175 66,-175 66,-175 290.2335,-175 290.2335,-175"/>
<polygon fill="#000000" stroke="#000000" points="290.2335,-178.5001 300.2335,-175 290.2335,-171.5001 290.2335,-178.5001"/>
</g>
</g>
</svg>
