<?xml version="1.0" encoding="UTF-8" standalone="no"?>
<!DOCTYPE svg PUBLIC "-//W3C//DTD SVG 1.1//EN"
 "http://www.w3.org/Graphics/SVG/1.1/DTD/svg11.dtd">
<!-- Generated by graphviz version 2.40.1 (20161225.0304)
 -->
<!-- Title: dependencies Pages: 1 -->
<svg width="809pt" height="284pt"
 viewBox="0.00 0.00 809.00 284.00" xmlns="http://www.w3.org/2000/svg" xmlns:xlink="http://www.w3.org/1999/xlink">
<g id="graph0" class="graph" transform="scale(1 1) rotate(0) translate(4 280)">
<title>dependencies</title>
<polygon fill="#ffffff" stroke="transparent" points="-4,4 -4,-280 805,-280 805,4 -4,4"/>
<text text-anchor="start" x="379.5091" y="-42.4" font-family="sans-serif" font-weight="bold" font-size="14.00" fill="#000000">Legend</text>
<polygon fill="#ffffb3" stroke="transparent" points="166.5,-10 166.5,-30 186.5,-30 186.5,-10 166.5,-10"/>
<text text-anchor="start" x="190.129" y="-15.4" font-family="sans-serif" font-size="14.00" fill="#000000"> &#160;Declarations</text>
<polygon fill="#8dd3c7" stroke="transparent" points="279.5,-10 279.5,-30 299.5,-30 299.5,-10 279.5,-10"/>
<text text-anchor="start" x="303.2251" y="-15.4" font-family="sans-serif" font-size="14.00" fill="#000000"> &#160;Module</text>
<polygon fill="#80b1d3" stroke="transparent" points="365.5,-10 365.5,-30 385.5,-30 385.5,-10 365.5,-10"/>
<text text-anchor="start" x="389.2812" y="-15.4" font-family="sans-serif" font-size="14.00" fill="#000000"> &#160;Bootstrap</text>
<polygon fill="#fdb462" stroke="transparent" points="462.5,-10 462.5,-30 482.5,-30 482.5,-10 462.5,-10"/>
<text text-anchor="start" x="486.1732" y="-15.4" font-family="sans-serif" font-size="14.00" fill="#000000"> &#160;Providers</text>
<polygon fill="#fb8072" stroke="transparent" points="558.5,-10 558.5,-30 578.5,-30 578.5,-10 558.5,-10"/>
<text text-anchor="start" x="582.2258" y="-15.4" font-family="sans-serif" font-size="14.00" fill="#000000"> &#160;Exports</text>
<g id="clust1" class="cluster">
<title>cluster_ConfiguratorIssuesNotificationModule</title>
<polygon fill="none" stroke="#000000" stroke-dasharray="1,5" points="8,-70 8,-268 793,-268 793,-70 8,-70"/>
</g>
<g id="clust2" class="cluster">
<title>cluster_ConfiguratorIssuesNotificationModule_declarations</title>
<polygon fill="none" stroke="#000000" points="513,-78 513,-130 785,-130 785,-78 513,-78"/>
</g>
<g id="clust4" class="cluster">
<title>cluster_ConfiguratorIssuesNotificationModule_imports</title>
<polygon fill="none" stroke="#000000" points="16,-78 16,-130 505,-130 505,-78 16,-78"/>
</g>
<g id="clust5" class="cluster">
<title>cluster_ConfiguratorIssuesNotificationModule_exports</title>
<polygon fill="none" stroke="#000000" points="127,-208 127,-260 403,-260 403,-208 127,-208"/>
</g>
<!-- ConfiguratorIssuesNotificationComponent -->
<g id="node1" class="node">
<title>ConfiguratorIssuesNotificationComponent</title>
<polygon fill="#ffffb3" stroke="#000000" points="776.5055,-122 521.4945,-122 521.4945,-86 776.5055,-86 776.5055,-122"/>
<text text-anchor="middle" x="649" y="-99.8" font-family="Times,serif" font-size="14.00" fill="#000000">ConfiguratorIssuesNotificationComponent</text>
</g>
<!-- ConfiguratorIssuesNotificationModule -->
<g id="node2" class="node">
<title>ConfiguratorIssuesNotificationModule</title>
<polygon fill="#8dd3c7" stroke="#000000" points="381.7226,-187 378.7226,-191 357.7226,-191 354.7226,-187 148.2774,-187 148.2774,-151 381.7226,-151 381.7226,-187"/>
<text text-anchor="middle" x="265" y="-164.8" font-family="Times,serif" font-size="14.00" fill="#000000">ConfiguratorIssuesNotificationModule</text>
</g>
<!-- ConfiguratorIssuesNotificationComponent&#45;&gt;ConfiguratorIssuesNotificationModule -->
<g id="edge1" class="edge">
<title>ConfiguratorIssuesNotificationComponent&#45;&gt;ConfiguratorIssuesNotificationModule</title>
<path fill="none" stroke="#000000" d="M649,-122.1061C649,-141.3391 649,-169 649,-169 649,-169 391.7767,-169 391.7767,-169"/>
<polygon fill="#000000" stroke="#000000" points="391.7767,-165.5001 381.7767,-169 391.7766,-172.5001 391.7767,-165.5001"/>
</g>
<!-- ConfiguratorIssuesNotificationComponent  -->
<g id="node7" class="node">
<title>ConfiguratorIssuesNotificationComponent </title>
<polygon fill="#fb8072" stroke="#000000" points="394.505,-252 135.495,-252 135.495,-216 394.505,-216 394.505,-252"/>
<text text-anchor="middle" x="265" y="-229.8" font-family="Times,serif" font-size="14.00" fill="#000000">ConfiguratorIssuesNotificationComponent </text>
</g>
<!-- ConfiguratorIssuesNotificationModule&#45;&gt;ConfiguratorIssuesNotificationComponent  -->
<g id="edge6" class="edge">
<title>ConfiguratorIssuesNotificationModule&#45;&gt;ConfiguratorIssuesNotificationComponent </title>
<path fill="none" stroke="#000000" stroke-dasharray="5,2" d="M265,-187.1061C265,-187.1061 265,-205.991 265,-205.991"/>
<polygon fill="#000000" stroke="#000000" points="261.5001,-205.9909 265,-215.991 268.5001,-205.991 261.5001,-205.9909"/>
</g>
<!-- ConfigureCartEntryModule -->
<g id="node3" class="node">
<title>ConfigureCartEntryModule</title>
<polygon fill="#8dd3c7" stroke="#000000" points="496.5197,-122 493.5197,-126 472.5197,-126 469.5197,-122 325.4803,-122 325.4803,-86 496.5197,-86 496.5197,-122"/>
<text text-anchor="middle" x="411" y="-99.8" font-family="Times,serif" font-size="14.00" fill="#000000">ConfigureCartEntryModule</text>
</g>
<!-- ConfigureCartEntryModule&#45;&gt;ConfiguratorIssuesNotificationModule -->
<g id="edge2" class="edge">
<title>ConfigureCartEntryModule&#45;&gt;ConfiguratorIssuesNotificationModule</title>
<path fill="none" stroke="#000000" d="M353.5508,-122.1061C353.5508,-122.1061 353.5508,-140.991 353.5508,-140.991"/>
<polygon fill="#000000" stroke="#000000" points="350.0509,-140.9909 353.5508,-150.991 357.0509,-140.991 350.0509,-140.9909"/>
</g>
<!-- I18nModule -->
<g id="node4" class="node">
<title>I18nModule</title>
<polygon fill="#8dd3c7" stroke="#000000" points="307.7107,-122 304.7107,-126 283.7107,-126 280.7107,-122 222.2893,-122 222.2893,-86 307.7107,-86 307.7107,-122"/>
<text text-anchor="middle" x="265" y="-99.8" font-family="Times,serif" font-size="14.00" fill="#000000">I18nModule</text>
</g>
<!-- I18nModule&#45;&gt;ConfiguratorIssuesNotificationModule -->
<g id="edge3" class="edge">
<title>I18nModule&#45;&gt;ConfiguratorIssuesNotificationModule</title>
<path fill="none" stroke="#000000" d="M265,-122.1061C265,-122.1061 265,-140.991 265,-140.991"/>
<polygon fill="#000000" stroke="#000000" points="261.5001,-140.9909 265,-150.991 268.5001,-140.991 261.5001,-140.9909"/>
</g>
<!-- IconModule -->
<g id="node5" class="node">
<title>IconModule</title>
<polygon fill="#8dd3c7" stroke="#000000" points="204.4261,-122 201.4261,-126 180.4261,-126 177.4261,-122 119.5739,-122 119.5739,-86 204.4261,-86 204.4261,-122"/>
<text text-anchor="middle" x="162" y="-99.8" font-family="Times,serif" font-size="14.00" fill="#000000">IconModule</text>
</g>
<!-- IconModule&#45;&gt;ConfiguratorIssuesNotificationModule -->
<g id="edge4" class="edge">
<title>IconModule&#45;&gt;ConfiguratorIssuesNotificationModule</title>
<path fill="none" stroke="#000000" d="M176.1757,-122.1061C176.1757,-122.1061 176.1757,-140.991 176.1757,-140.991"/>
<polygon fill="#000000" stroke="#000000" points="172.6757,-140.9909 176.1757,-150.991 179.6757,-140.991 172.6757,-140.9909"/>
</g>
<!-- UrlModule -->
<g id="node6" class="node">
<title>UrlModule</title>
<polygon fill="#8dd3c7" stroke="#000000" points="102.2079,-122 99.2079,-126 78.2079,-126 75.2079,-122 23.7921,-122 23.7921,-86 102.2079,-86 102.2079,-122"/>
<text text-anchor="middle" x="63" y="-99.8" font-family="Times,serif" font-size="14.00" fill="#000000">UrlModule</text>
</g>
<!-- UrlModule&#45;&gt;ConfiguratorIssuesNotificationModule -->
<g id="edge5" class="edge">
<title>UrlModule&#45;&gt;ConfiguratorIssuesNotificationModule</title>
<path fill="none" stroke="#000000" d="M63,-122.1061C63,-141.3391 63,-169 63,-169 63,-169 138.0807,-169 138.0807,-169"/>
<polygon fill="#000000" stroke="#000000" points="138.0808,-172.5001 148.0807,-169 138.0807,-165.5001 138.0808,-172.5001"/>
</g>
</g>
</svg>
