<?xml version="1.0" encoding="UTF-8" standalone="no"?>
<!DOCTYPE svg PUBLIC "-//W3C//DTD SVG 1.1//EN"
 "http://www.w3.org/Graphics/SVG/1.1/DTD/svg11.dtd">
<!-- Generated by graphviz version 2.47.3 (20210619.1520)
 -->
<!-- Title: dependencies Pages: 1 -->
<svg width="1776pt" height="358pt"
 viewBox="0.00 0.00 1776.00 358.39" xmlns="http://www.w3.org/2000/svg" xmlns:xlink="http://www.w3.org/1999/xlink">
<g id="graph0" class="graph" transform="scale(1 1) rotate(0) translate(4 354.39)">
<title>dependencies</title>
<polygon fill="white" stroke="transparent" points="-4,4 -4,-354.39 1772,-354.39 1772,4 -4,4"/>
<text text-anchor="middle" x="884" y="-8.2" font-family="sans-serif" font-size="14.00">dependencies</text>
<g id="clust1" class="cluster">
<title>cluster_PermissionFormModule</title>
<polygon fill="none" stroke="black" stroke-dasharray="1,5" points="8,-32.8 8,-342.39 1760,-342.39 1760,-32.8 8,-32.8"/>
</g>
<g id="clust5" class="cluster">
<title>cluster_PermissionFormModule_exports</title>
<polygon fill="none" stroke="black" points="259,-282.39 259,-334.39 453,-334.39 453,-282.39 259,-282.39"/>
</g>
<g id="clust3" class="cluster">
<title>cluster_PermissionFormModule_PermissionFormComponent_providers</title>
<polygon fill="none" stroke="black" points="612,-40.8 612,-204.39 1752,-204.39 1752,-40.8 612,-40.8"/>
</g>
<g id="clust4" class="cluster">
<title>cluster_PermissionFormModule_imports</title>
<polygon fill="none" stroke="black" points="16,-152.39 16,-204.39 604,-204.39 604,-152.39 16,-152.39"/>
</g>
<!-- PermissionFormComponent -->
<g id="node1" class="node">
<title>PermissionFormComponent</title>
<polygon fill="#ffffb3" stroke="black" points="1004.89,-196.39 831.11,-196.39 831.11,-160.39 1004.89,-160.39 1004.89,-196.39"/>
<text text-anchor="middle" x="918" y="-174.19" font-family="Times,serif" font-size="14.00">PermissionFormComponent</text>
</g>
<!-- PermissionFormModule -->
<g id="node2" class="node">
<title>PermissionFormModule</title>
<polygon fill="#8dd3c7" stroke="black" points="432.1,-261.39 429.1,-265.39 408.1,-265.39 405.1,-261.39 279.9,-261.39 279.9,-225.39 432.1,-225.39 432.1,-261.39"/>
<text text-anchor="middle" x="356" y="-239.19" font-family="Times,serif" font-size="14.00">PermissionFormModule</text>
</g>
<!-- PermissionFormComponent&#45;&gt;PermissionFormModule -->
<g id="edge1" class="edge">
<title>PermissionFormComponent&#45;&gt;PermissionFormModule</title>
<path fill="none" stroke="black" d="M918,-196.67C918,-217.71 918,-249.39 918,-249.39 918,-249.39 442.09,-249.39 442.09,-249.39"/>
<polygon fill="black" stroke="black" points="442.09,-245.89 432.09,-249.39 442.09,-252.89 442.09,-245.89"/>
</g>
<!-- PermissionFormComponent  -->
<g id="node10" class="node">
<title>PermissionFormComponent </title>
<polygon fill="#fb8072" stroke="black" points="444.89,-326.39 267.11,-326.39 267.11,-290.39 444.89,-290.39 444.89,-326.39"/>
<text text-anchor="middle" x="356" y="-304.19" font-family="Times,serif" font-size="14.00">PermissionFormComponent </text>
</g>
<!-- PermissionFormModule&#45;&gt;PermissionFormComponent  -->
<g id="edge9" class="edge">
<title>PermissionFormModule&#45;&gt;PermissionFormComponent </title>
<path fill="none" stroke="black" stroke-dasharray="5,2" d="M356,-261.5C356,-261.5 356,-280.38 356,-280.38"/>
<polygon fill="black" stroke="black" points="352.5,-280.38 356,-290.38 359.5,-280.38 352.5,-280.38"/>
</g>
<!-- {
 &#160;&#160;&#160;provide: ItemService, useExisting: PermissionItemService,
} -->
<g id="node3" class="node">
<title>{
 &#160;&#160;&#160;provide: ItemService, useExisting: PermissionItemService,
}</title>
<ellipse fill="#fdb462" stroke="black" cx="1489" cy="-90.1" rx="255.34" ry="41.09"/>
<text text-anchor="middle" x="1489" y="-102.7" font-family="Times,serif" font-size="14.00">{</text>
<text text-anchor="middle" x="1489" y="-85.9" font-family="Times,serif" font-size="14.00"> &#160;&#160;&#160;provide: ItemService, useExisting: PermissionItemService,</text>
<text text-anchor="middle" x="1489" y="-69.1" font-family="Times,serif" font-size="14.00">}</text>
</g>
<!-- {
 &#160;&#160;&#160;provide: ItemService, useExisting: PermissionItemService,
}&#45;&gt;PermissionFormComponent -->
<g id="edge2" class="edge">
<title>{
 &#160;&#160;&#160;provide: ItemService, useExisting: PermissionItemService,
}&#45;&gt;PermissionFormComponent</title>
<path fill="none" stroke="black" d="M1489,-131.4C1489,-154.38 1489,-178.39 1489,-178.39 1489,-178.39 1015.03,-178.39 1015.03,-178.39"/>
<polygon fill="black" stroke="black" points="1015.03,-174.89 1005.03,-178.39 1015.03,-181.89 1015.03,-174.89"/>
</g>
<!-- {
 &#160;&#160;&#160;provide: CurrentItemService, useExisting: CurrentPermissionService,
} -->
<g id="node4" class="node">
<title>{
 &#160;&#160;&#160;provide: CurrentItemService, useExisting: CurrentPermissionService,
}</title>
<ellipse fill="#fdb462" stroke="black" cx="918" cy="-90.1" rx="297.5" ry="41.09"/>
<text text-anchor="middle" x="918" y="-102.7" font-family="Times,serif" font-size="14.00">{</text>
<text text-anchor="middle" x="918" y="-85.9" font-family="Times,serif" font-size="14.00"> &#160;&#160;&#160;provide: CurrentItemService, useExisting: CurrentPermissionService,</text>
<text text-anchor="middle" x="918" y="-69.1" font-family="Times,serif" font-size="14.00">}</text>
</g>
<!-- {
 &#160;&#160;&#160;provide: CurrentItemService, useExisting: CurrentPermissionService,
}&#45;&gt;PermissionFormComponent -->
<g id="edge3" class="edge">
<title>{
 &#160;&#160;&#160;provide: CurrentItemService, useExisting: CurrentPermissionService,
}&#45;&gt;PermissionFormComponent</title>
<path fill="none" stroke="black" d="M918,-131.4C918,-131.4 918,-150.06 918,-150.06"/>
<polygon fill="black" stroke="black" points="914.5,-150.06 918,-160.06 921.5,-150.06 914.5,-150.06"/>
</g>
<!-- FormErrorsModule -->
<g id="node5" class="node">
<title>FormErrorsModule</title>
<polygon fill="#8dd3c7" stroke="black" points="596.36,-196.39 593.36,-200.39 572.36,-200.39 569.36,-196.39 471.64,-196.39 471.64,-160.39 596.36,-160.39 596.36,-196.39"/>
<text text-anchor="middle" x="534" y="-174.19" font-family="Times,serif" font-size="14.00">FormErrorsModule</text>
</g>
<!-- FormErrorsModule&#45;&gt;PermissionFormModule -->
<g id="edge4" class="edge">
<title>FormErrorsModule&#45;&gt;PermissionFormModule</title>
<path fill="none" stroke="black" d="M534,-196.41C534,-213.76 534,-237.39 534,-237.39 534,-237.39 442.26,-237.39 442.26,-237.39"/>
<polygon fill="black" stroke="black" points="442.26,-233.89 432.26,-237.39 442.26,-240.89 442.26,-233.89"/>
</g>
<!-- FormModule -->
<g id="node6" class="node">
<title>FormModule</title>
<polygon fill="#8dd3c7" stroke="black" points="453.88,-196.39 450.88,-200.39 429.88,-200.39 426.88,-196.39 364.12,-196.39 364.12,-160.39 453.88,-160.39 453.88,-196.39"/>
<text text-anchor="middle" x="409" y="-174.19" font-family="Times,serif" font-size="14.00">FormModule</text>
</g>
<!-- FormModule&#45;&gt;PermissionFormModule -->
<g id="edge5" class="edge">
<title>FormModule&#45;&gt;PermissionFormModule</title>
<path fill="none" stroke="black" d="M398.05,-196.5C398.05,-196.5 398.05,-215.38 398.05,-215.38"/>
<polygon fill="black" stroke="black" points="394.55,-215.38 398.05,-225.38 401.55,-215.38 394.55,-215.38"/>
</g>
<!-- I18nModule -->
<g id="node7" class="node">
<title>I18nModule</title>
<polygon fill="#8dd3c7" stroke="black" points="345.71,-196.39 342.71,-200.39 321.71,-200.39 318.71,-196.39 260.29,-196.39 260.29,-160.39 345.71,-160.39 345.71,-196.39"/>
<text text-anchor="middle" x="303" y="-174.19" font-family="Times,serif" font-size="14.00">I18nModule</text>
</g>
<!-- I18nModule&#45;&gt;PermissionFormModule -->
<g id="edge6" class="edge">
<title>I18nModule&#45;&gt;PermissionFormModule</title>
<path fill="none" stroke="black" d="M312.78,-196.5C312.78,-196.5 312.78,-215.38 312.78,-215.38"/>
<polygon fill="black" stroke="black" points="309.28,-215.38 312.78,-225.38 316.28,-215.38 309.28,-215.38"/>
</g>
<!-- ItemActiveModule -->
<g id="node8" class="node">
<title>ItemActiveModule</title>
<polygon fill="#8dd3c7" stroke="black" points="242.02,-196.39 239.02,-200.39 218.02,-200.39 215.02,-196.39 119.98,-196.39 119.98,-160.39 242.02,-160.39 242.02,-196.39"/>
<text text-anchor="middle" x="181" y="-174.19" font-family="Times,serif" font-size="14.00">ItemActiveModule</text>
</g>
<!-- ItemActiveModule&#45;&gt;PermissionFormModule -->
<g id="edge7" class="edge">
<title>ItemActiveModule&#45;&gt;PermissionFormModule</title>
<path fill="none" stroke="black" d="M181,-196.41C181,-213.76 181,-237.39 181,-237.39 181,-237.39 269.75,-237.39 269.75,-237.39"/>
<polygon fill="black" stroke="black" points="269.75,-240.89 279.75,-237.39 269.75,-233.89 269.75,-240.89"/>
</g>
<!-- UrlModule -->
<g id="node9" class="node">
<title>UrlModule</title>
<polygon fill="#8dd3c7" stroke="black" points="102.21,-196.39 99.21,-200.39 78.21,-200.39 75.21,-196.39 23.79,-196.39 23.79,-160.39 102.21,-160.39 102.21,-196.39"/>
<text text-anchor="middle" x="63" y="-174.19" font-family="Times,serif" font-size="14.00">UrlModule</text>
</g>
<!-- UrlModule&#45;&gt;PermissionFormModule -->
<g id="edge8" class="edge">
<title>UrlModule&#45;&gt;PermissionFormModule</title>
<path fill="none" stroke="black" d="M63,-196.67C63,-217.71 63,-249.39 63,-249.39 63,-249.39 269.78,-249.39 269.78,-249.39"/>
<polygon fill="black" stroke="black" points="269.78,-252.89 279.78,-249.39 269.78,-245.89 269.78,-252.89"/>
</g>
</g>
</svg>
