<?xml version="1.0" encoding="UTF-8" standalone="no"?>
<!DOCTYPE svg PUBLIC "-//W3C//DTD SVG 1.1//EN"
 "http://www.w3.org/Graphics/SVG/1.1/DTD/svg11.dtd">
<!-- Generated by graphviz version 2.47.0 (20210316.0004)
 -->
<!-- Title: dependencies Pages: 1 -->
<svg width="1180pt" height="396pt"
 viewBox="0.00 0.00 1180.00 395.59" xmlns="http://www.w3.org/2000/svg" xmlns:xlink="http://www.w3.org/1999/xlink">
<g id="graph0" class="graph" transform="scale(1 1) rotate(0) translate(4 391.59)">
<title>dependencies</title>
<polygon fill="white" stroke="transparent" points="-4,4 -4,-391.59 1176,-391.59 1176,4 -4,4"/>
<text text-anchor="start" x="565.01" y="-42.4" font-family="sans-serif" font-weight="bold" font-size="14.00">Legend</text>
<polygon fill="#ffffb3" stroke="transparent" points="352,-10 352,-30 372,-30 372,-10 352,-10"/>
<text text-anchor="start" x="375.63" y="-15.4" font-family="sans-serif" font-size="14.00"> &#160;Declarations</text>
<polygon fill="#8dd3c7" stroke="transparent" points="465,-10 465,-30 485,-30 485,-10 465,-10"/>
<text text-anchor="start" x="488.73" y="-15.4" font-family="sans-serif" font-size="14.00"> &#160;Module</text>
<polygon fill="#80b1d3" stroke="transparent" points="551,-10 551,-30 571,-30 571,-10 551,-10"/>
<text text-anchor="start" x="574.78" y="-15.4" font-family="sans-serif" font-size="14.00"> &#160;Bootstrap</text>
<polygon fill="#fdb462" stroke="transparent" points="648,-10 648,-30 668,-30 668,-10 648,-10"/>
<text text-anchor="start" x="671.67" y="-15.4" font-family="sans-serif" font-size="14.00"> &#160;Providers</text>
<polygon fill="#fb8072" stroke="transparent" points="744,-10 744,-30 764,-30 764,-10 744,-10"/>
<text text-anchor="start" x="767.73" y="-15.4" font-family="sans-serif" font-size="14.00"> &#160;Exports</text>
<g id="clust1" class="cluster">
<title>cluster_PermissionFormModule</title>
<polygon fill="none" stroke="black" stroke-dasharray="1,5" points="8,-70 8,-379.59 1164,-379.59 1164,-70 8,-70"/>
</g>
<g id="clust4" class="cluster">
<title>cluster_PermissionFormModule_imports</title>
<polygon fill="none" stroke="black" points="496,-189.59 496,-241.59 1084,-241.59 1084,-189.59 496,-189.59"/>
</g>
<g id="clust2" class="cluster">
<title>cluster_PermissionFormModule_declarations</title>
<polygon fill="none" stroke="black" points="298,-189.59 298,-241.59 488,-241.59 488,-189.59 298,-189.59"/>
</g>
<g id="clust5" class="cluster">
<title>cluster_PermissionFormModule_exports</title>
<polygon fill="none" stroke="black" points="625,-319.59 625,-371.59 819,-371.59 819,-319.59 625,-319.59"/>
</g>
<g id="clust3" class="cluster">
<title>cluster_PermissionFormModule_PermissionFormComponent_providers</title>
<polygon fill="none" stroke="black" points="16,-78 16,-176.59 1156,-176.59 1156,-78 16,-78"/>
</g>
<!-- PermissionFormComponent -->
<g id="node1" class="node">
<title>PermissionFormComponent</title>
<polygon fill="#ffffb3" stroke="black" points="479.89,-233.59 306.11,-233.59 306.11,-197.59 479.89,-197.59 479.89,-233.59"/>
<text text-anchor="middle" x="393" y="-211.39" font-family="Times,serif" font-size="14.00">PermissionFormComponent</text>
</g>
<!-- PermissionFormModule -->
<g id="node2" class="node">
<title>PermissionFormModule</title>
<polygon fill="#8dd3c7" stroke="black" points="798.1,-298.59 795.1,-302.59 774.1,-302.59 771.1,-298.59 645.9,-298.59 645.9,-262.59 798.1,-262.59 798.1,-298.59"/>
<text text-anchor="middle" x="722" y="-276.39" font-family="Times,serif" font-size="14.00">PermissionFormModule</text>
</g>
<!-- PermissionFormComponent&#45;&gt;PermissionFormModule -->
<g id="edge1" class="edge">
<title>PermissionFormComponent&#45;&gt;PermissionFormModule</title>
<path fill="none" stroke="black" d="M393,-233.87C393,-254.91 393,-286.59 393,-286.59 393,-286.59 635.69,-286.59 635.69,-286.59"/>
<polygon fill="black" stroke="black" points="635.69,-290.09 645.69,-286.59 635.69,-283.09 635.69,-290.09"/>
</g>
<!-- PermissionFormComponent  -->
<g id="node10" class="node">
<title>PermissionFormComponent </title>
<polygon fill="#fb8072" stroke="black" points="810.89,-363.59 633.11,-363.59 633.11,-327.59 810.89,-327.59 810.89,-363.59"/>
<text text-anchor="middle" x="722" y="-341.39" font-family="Times,serif" font-size="14.00">PermissionFormComponent </text>
</g>
<!-- PermissionFormModule&#45;&gt;PermissionFormComponent  -->
<g id="edge9" class="edge">
<title>PermissionFormModule&#45;&gt;PermissionFormComponent </title>
<path fill="none" stroke="black" stroke-dasharray="5,2" d="M722,-298.7C722,-298.7 722,-317.58 722,-317.58"/>
<polygon fill="black" stroke="black" points="718.5,-317.58 722,-327.58 725.5,-317.58 718.5,-317.58"/>
</g>
<!-- {
 &#160;&#160;&#160;provide: ItemService, useExisting: PermissionItemService,
} -->
<g id="node3" class="node">
<title>{
 &#160;&#160;&#160;provide: ItemService, useExisting: PermissionItemService,
}</title>
<ellipse fill="#fdb462" stroke="black" cx="893" cy="-127.3" rx="255.34" ry="41.09"/>
<text text-anchor="middle" x="893" y="-139.9" font-family="Times,serif" font-size="14.00">{</text>
<text text-anchor="middle" x="893" y="-123.1" font-family="Times,serif" font-size="14.00"> &#160;&#160;&#160;provide: ItemService, useExisting: PermissionItemService,</text>
<text text-anchor="middle" x="893" y="-106.3" font-family="Times,serif" font-size="14.00">}</text>
</g>
<!-- {
 &#160;&#160;&#160;provide: ItemService, useExisting: PermissionItemService,
}&#45;&gt;PermissionFormComponent -->
<g id="edge2" class="edge">
<title>{
 &#160;&#160;&#160;provide: ItemService, useExisting: PermissionItemService,
}&#45;&gt;PermissionFormComponent</title>
<path fill="none" stroke="black" d="M680.05,-150.19C680.05,-165.78 680.05,-183.59 680.05,-183.59 680.05,-183.59 421.98,-183.59 421.98,-183.59 421.98,-183.59 421.98,-187.35 421.98,-187.35"/>
<polygon fill="black" stroke="black" points="418.48,-187.35 421.98,-197.35 425.48,-187.35 418.48,-187.35"/>
</g>
<!-- {
 &#160;&#160;&#160;provide: CurrentItemService, useExisting: CurrentPermissionService,
} -->
<g id="node4" class="node">
<title>{
 &#160;&#160;&#160;provide: CurrentItemService, useExisting: CurrentPermissionService,
}</title>
<ellipse fill="#fdb462" stroke="black" cx="322" cy="-127.3" rx="297.5" ry="41.09"/>
<text text-anchor="middle" x="322" y="-139.9" font-family="Times,serif" font-size="14.00">{</text>
<text text-anchor="middle" x="322" y="-123.1" font-family="Times,serif" font-size="14.00"> &#160;&#160;&#160;provide: CurrentItemService, useExisting: CurrentPermissionService,</text>
<text text-anchor="middle" x="322" y="-106.3" font-family="Times,serif" font-size="14.00">}</text>
</g>
<!-- {
 &#160;&#160;&#160;provide: CurrentItemService, useExisting: CurrentPermissionService,
}&#45;&gt;PermissionFormComponent -->
<g id="edge3" class="edge">
<title>{
 &#160;&#160;&#160;provide: CurrentItemService, useExisting: CurrentPermissionService,
}&#45;&gt;PermissionFormComponent</title>
<path fill="none" stroke="black" d="M364.02,-168.34C364.02,-168.34 364.02,-187.58 364.02,-187.58"/>
<polygon fill="black" stroke="black" points="360.52,-187.58 364.02,-197.58 367.52,-187.58 360.52,-187.58"/>
</g>
<!-- FormErrorsModule -->
<g id="node5" class="node">
<title>FormErrorsModule</title>
<polygon fill="#8dd3c7" stroke="black" points="1076.36,-233.59 1073.36,-237.59 1052.36,-237.59 1049.36,-233.59 951.64,-233.59 951.64,-197.59 1076.36,-197.59 1076.36,-233.59"/>
<text text-anchor="middle" x="1014" y="-211.39" font-family="Times,serif" font-size="14.00">FormErrorsModule</text>
</g>
<!-- FormErrorsModule&#45;&gt;PermissionFormModule -->
<g id="edge4" class="edge">
<title>FormErrorsModule&#45;&gt;PermissionFormModule</title>
<path fill="none" stroke="black" d="M1014,-233.87C1014,-254.91 1014,-286.59 1014,-286.59 1014,-286.59 808.34,-286.59 808.34,-286.59"/>
<polygon fill="black" stroke="black" points="808.34,-283.09 798.34,-286.59 808.34,-290.09 808.34,-283.09"/>
</g>
<!-- FormModule -->
<g id="node6" class="node">
<title>FormModule</title>
<polygon fill="#8dd3c7" stroke="black" points="933.88,-233.59 930.88,-237.59 909.88,-237.59 906.88,-233.59 844.12,-233.59 844.12,-197.59 933.88,-197.59 933.88,-233.59"/>
<text text-anchor="middle" x="889" y="-211.39" font-family="Times,serif" font-size="14.00">FormModule</text>
</g>
<!-- FormModule&#45;&gt;PermissionFormModule -->
<g id="edge5" class="edge">
<title>FormModule&#45;&gt;PermissionFormModule</title>
<path fill="none" stroke="black" d="M889,-233.61C889,-250.96 889,-274.59 889,-274.59 889,-274.59 808.17,-274.59 808.17,-274.59"/>
<polygon fill="black" stroke="black" points="808.17,-271.09 798.17,-274.59 808.17,-278.09 808.17,-271.09"/>
</g>
<!-- I18nModule -->
<g id="node7" class="node">
<title>I18nModule</title>
<polygon fill="#8dd3c7" stroke="black" points="825.71,-233.59 822.71,-237.59 801.71,-237.59 798.71,-233.59 740.29,-233.59 740.29,-197.59 825.71,-197.59 825.71,-233.59"/>
<text text-anchor="middle" x="783" y="-211.39" font-family="Times,serif" font-size="14.00">I18nModule</text>
</g>
<!-- I18nModule&#45;&gt;PermissionFormModule -->
<g id="edge6" class="edge">
<title>I18nModule&#45;&gt;PermissionFormModule</title>
<path fill="none" stroke="black" d="M769.22,-233.7C769.22,-233.7 769.22,-252.58 769.22,-252.58"/>
<polygon fill="black" stroke="black" points="765.72,-252.58 769.22,-262.58 772.72,-252.58 765.72,-252.58"/>
</g>
<!-- ItemActiveModule -->
<g id="node8" class="node">
<title>ItemActiveModule</title>
<polygon fill="#8dd3c7" stroke="black" points="722.02,-233.59 719.02,-237.59 698.02,-237.59 695.02,-233.59 599.98,-233.59 599.98,-197.59 722.02,-197.59 722.02,-233.59"/>
<text text-anchor="middle" x="661" y="-211.39" font-family="Times,serif" font-size="14.00">ItemActiveModule</text>
</g>
<!-- ItemActiveModule&#45;&gt;PermissionFormModule -->
<g id="edge7" class="edge">
<title>ItemActiveModule&#45;&gt;PermissionFormModule</title>
<path fill="none" stroke="black" d="M684.11,-233.7C684.11,-233.7 684.11,-252.58 684.11,-252.58"/>
<polygon fill="black" stroke="black" points="680.61,-252.58 684.11,-262.58 687.61,-252.58 680.61,-252.58"/>
</g>
<!-- UrlModule -->
<g id="node9" class="node">
<title>UrlModule</title>
<polygon fill="#8dd3c7" stroke="black" points="582.21,-233.59 579.21,-237.59 558.21,-237.59 555.21,-233.59 503.79,-233.59 503.79,-197.59 582.21,-197.59 582.21,-233.59"/>
<text text-anchor="middle" x="543" y="-211.39" font-family="Times,serif" font-size="14.00">UrlModule</text>
</g>
<!-- UrlModule&#45;&gt;PermissionFormModule -->
<g id="edge8" class="edge">
<title>UrlModule&#45;&gt;PermissionFormModule</title>
<path fill="none" stroke="black" d="M543,-233.61C543,-250.96 543,-274.59 543,-274.59 543,-274.59 635.83,-274.59 635.83,-274.59"/>
<polygon fill="black" stroke="black" points="635.83,-278.09 645.83,-274.59 635.83,-271.09 635.83,-278.09"/>
</g>
</g>
</svg>
