<?xml version="1.0" encoding="UTF-8" standalone="no"?>
<!DOCTYPE svg PUBLIC "-//W3C//DTD SVG 1.1//EN"
 "http://www.w3.org/Graphics/SVG/1.1/DTD/svg11.dtd">
<!-- Generated by graphviz version 2.46.0 (20210119.1425)
 -->
<!-- Title: dependencies Pages: 1 -->
<svg width="1785pt" height="349pt"
 viewBox="0.00 0.00 1785.00 349.00" xmlns="http://www.w3.org/2000/svg" xmlns:xlink="http://www.w3.org/1999/xlink">
<g id="graph0" class="graph" transform="scale(1 1) rotate(0) translate(4 345)">
<title>dependencies</title>
<polygon fill="white" stroke="transparent" points="-4,4 -4,-345 1781,-345 1781,4 -4,4"/>
<text text-anchor="start" x="867.51" y="-42.4" font-family="sans-serif" font-weight="bold" font-size="14.00">Legend</text>
<polygon fill="#ffffb3" stroke="transparent" points="654.5,-10 654.5,-30 674.5,-30 674.5,-10 654.5,-10"/>
<text text-anchor="start" x="678.13" y="-15.4" font-family="sans-serif" font-size="14.00"> &#160;Declarations</text>
<polygon fill="#8dd3c7" stroke="transparent" points="767.5,-10 767.5,-30 787.5,-30 787.5,-10 767.5,-10"/>
<text text-anchor="start" x="791.23" y="-15.4" font-family="sans-serif" font-size="14.00"> &#160;Module</text>
<polygon fill="#80b1d3" stroke="transparent" points="853.5,-10 853.5,-30 873.5,-30 873.5,-10 853.5,-10"/>
<text text-anchor="start" x="877.28" y="-15.4" font-family="sans-serif" font-size="14.00"> &#160;Bootstrap</text>
<polygon fill="#fdb462" stroke="transparent" points="950.5,-10 950.5,-30 970.5,-30 970.5,-10 950.5,-10"/>
<text text-anchor="start" x="974.17" y="-15.4" font-family="sans-serif" font-size="14.00"> &#160;Providers</text>
<polygon fill="#fb8072" stroke="transparent" points="1046.5,-10 1046.5,-30 1066.5,-30 1066.5,-10 1046.5,-10"/>
<text text-anchor="start" x="1070.23" y="-15.4" font-family="sans-serif" font-size="14.00"> &#160;Exports</text>
<g id="clust1" class="cluster">
<title>cluster_PermissionFormModule</title>
<polygon fill="none" stroke="black" stroke-dasharray="1,5" points="8,-70 8,-333 1769,-333 1769,-70 8,-70"/>
</g>
<g id="clust3" class="cluster">
<title>cluster_PermissionFormModule_PermissionFormComponent_providers</title>
<polygon fill="none" stroke="black" points="612,-78 612,-195 1761,-195 1761,-78 612,-78"/>
</g>
<g id="clust5" class="cluster">
<title>cluster_PermissionFormModule_exports</title>
<polygon fill="none" stroke="black" points="259,-273 259,-325 453,-325 453,-273 259,-273"/>
</g>
<g id="clust4" class="cluster">
<title>cluster_PermissionFormModule_imports</title>
<polygon fill="none" stroke="black" points="16,-143 16,-195 604,-195 604,-143 16,-143"/>
</g>
<!-- PermissionFormComponent -->
<g id="node1" class="node">
<title>PermissionFormComponent</title>
<polygon fill="#ffffb3" stroke="black" points="1005.89,-187 832.11,-187 832.11,-151 1005.89,-151 1005.89,-187"/>
<text text-anchor="middle" x="919" y="-164.8" font-family="Times,serif" font-size="14.00">PermissionFormComponent</text>
</g>
<!-- PermissionFormModule -->
<g id="node2" class="node">
<title>PermissionFormModule</title>
<polygon fill="#8dd3c7" stroke="black" points="432.1,-252 429.1,-256 408.1,-256 405.1,-252 279.9,-252 279.9,-216 432.1,-216 432.1,-252"/>
<text text-anchor="middle" x="356" y="-229.8" font-family="Times,serif" font-size="14.00">PermissionFormModule</text>
</g>
<!-- PermissionFormComponent&#45;&gt;PermissionFormModule -->
<g id="edge1" class="edge">
<title>PermissionFormComponent&#45;&gt;PermissionFormModule</title>
<path fill="none" stroke="black" d="M919,-187.28C919,-208.32 919,-240 919,-240 919,-240 442.22,-240 442.22,-240"/>
<polygon fill="black" stroke="black" points="442.22,-236.5 432.22,-240 442.22,-243.5 442.22,-236.5"/>
</g>
<!-- PermissionFormComponent  -->
<g id="node10" class="node">
<title>PermissionFormComponent </title>
<polygon fill="#fb8072" stroke="black" points="444.89,-317 267.11,-317 267.11,-281 444.89,-281 444.89,-317"/>
<text text-anchor="middle" x="356" y="-294.8" font-family="Times,serif" font-size="14.00">PermissionFormComponent </text>
</g>
<!-- PermissionFormModule&#45;&gt;PermissionFormComponent  -->
<g id="edge9" class="edge">
<title>PermissionFormModule&#45;&gt;PermissionFormComponent </title>
<path fill="none" stroke="black" stroke-dasharray="5,2" d="M356,-252.11C356,-252.11 356,-270.99 356,-270.99"/>
<polygon fill="black" stroke="black" points="352.5,-270.99 356,-280.99 359.5,-270.99 352.5,-270.99"/>
</g>
<!-- { &#160;&#160;&#160;provide: ItemService, useExisting: PermissionItemService,} -->
<g id="node3" class="node">
<title>{ &#160;&#160;&#160;provide: ItemService, useExisting: PermissionItemService,}</title>
<ellipse fill="#fdb462" stroke="black" cx="1495" cy="-104" rx="258.37" ry="18"/>
<text text-anchor="middle" x="1495" y="-99.8" font-family="Times,serif" font-size="14.00">{ &#160;&#160;&#160;provide: ItemService, useExisting: PermissionItemService,}</text>
</g>
<!-- { &#160;&#160;&#160;provide: ItemService, useExisting: PermissionItemService,}&#45;&gt;PermissionFormComponent -->
<g id="edge2" class="edge">
<title>{ &#160;&#160;&#160;provide: ItemService, useExisting: PermissionItemService,}&#45;&gt;PermissionFormComponent</title>
<path fill="none" stroke="black" d="M1495,-122.11C1495,-141.34 1495,-169 1495,-169 1495,-169 1016.17,-169 1016.17,-169"/>
<polygon fill="black" stroke="black" points="1016.17,-165.5 1006.17,-169 1016.17,-172.5 1016.17,-165.5"/>
</g>
<!-- { &#160;&#160;&#160;provide: CurrentItemService, useExisting: CurrentPermissionService,} -->
<g id="node4" class="node">
<title>{ &#160;&#160;&#160;provide: CurrentItemService, useExisting: CurrentPermissionService,}</title>
<ellipse fill="#fdb462" stroke="black" cx="919" cy="-104" rx="299.46" ry="18"/>
<text text-anchor="middle" x="919" y="-99.8" font-family="Times,serif" font-size="14.00">{ &#160;&#160;&#160;provide: CurrentItemService, useExisting: CurrentPermissionService,}</text>
</g>
<!-- { &#160;&#160;&#160;provide: CurrentItemService, useExisting: CurrentPermissionService,}&#45;&gt;PermissionFormComponent -->
<g id="edge3" class="edge">
<title>{ &#160;&#160;&#160;provide: CurrentItemService, useExisting: CurrentPermissionService,}&#45;&gt;PermissionFormComponent</title>
<path fill="none" stroke="black" d="M919,-122.11C919,-122.11 919,-140.99 919,-140.99"/>
<polygon fill="black" stroke="black" points="915.5,-140.99 919,-150.99 922.5,-140.99 915.5,-140.99"/>
</g>
<!-- FormErrorsModule -->
<g id="node5" class="node">
<title>FormErrorsModule</title>
<polygon fill="#8dd3c7" stroke="black" points="596.36,-187 593.36,-191 572.36,-191 569.36,-187 471.64,-187 471.64,-151 596.36,-151 596.36,-187"/>
<text text-anchor="middle" x="534" y="-164.8" font-family="Times,serif" font-size="14.00">FormErrorsModule</text>
</g>
<!-- FormErrorsModule&#45;&gt;PermissionFormModule -->
<g id="edge4" class="edge">
<title>FormErrorsModule&#45;&gt;PermissionFormModule</title>
<path fill="none" stroke="black" d="M534,-187.02C534,-204.37 534,-228 534,-228 534,-228 442.26,-228 442.26,-228"/>
<polygon fill="black" stroke="black" points="442.26,-224.5 432.26,-228 442.26,-231.5 442.26,-224.5"/>
</g>
<!-- FormModule -->
<g id="node6" class="node">
<title>FormModule</title>
<polygon fill="#8dd3c7" stroke="black" points="453.88,-187 450.88,-191 429.88,-191 426.88,-187 364.12,-187 364.12,-151 453.88,-151 453.88,-187"/>
<text text-anchor="middle" x="409" y="-164.8" font-family="Times,serif" font-size="14.00">FormModule</text>
</g>
<!-- FormModule&#45;&gt;PermissionFormModule -->
<g id="edge5" class="edge">
<title>FormModule&#45;&gt;PermissionFormModule</title>
<path fill="none" stroke="black" d="M398.05,-187.11C398.05,-187.11 398.05,-205.99 398.05,-205.99"/>
<polygon fill="black" stroke="black" points="394.55,-205.99 398.05,-215.99 401.55,-205.99 394.55,-205.99"/>
</g>
<!-- I18nModule -->
<g id="node7" class="node">
<title>I18nModule</title>
<polygon fill="#8dd3c7" stroke="black" points="345.71,-187 342.71,-191 321.71,-191 318.71,-187 260.29,-187 260.29,-151 345.71,-151 345.71,-187"/>
<text text-anchor="middle" x="303" y="-164.8" font-family="Times,serif" font-size="14.00">I18nModule</text>
</g>
<!-- I18nModule&#45;&gt;PermissionFormModule -->
<g id="edge6" class="edge">
<title>I18nModule&#45;&gt;PermissionFormModule</title>
<path fill="none" stroke="black" d="M312.78,-187.11C312.78,-187.11 312.78,-205.99 312.78,-205.99"/>
<polygon fill="black" stroke="black" points="309.28,-205.99 312.78,-215.99 316.28,-205.99 309.28,-205.99"/>
</g>
<!-- ItemActiveModule -->
<g id="node8" class="node">
<title>ItemActiveModule</title>
<polygon fill="#8dd3c7" stroke="black" points="242.02,-187 239.02,-191 218.02,-191 215.02,-187 119.98,-187 119.98,-151 242.02,-151 242.02,-187"/>
<text text-anchor="middle" x="181" y="-164.8" font-family="Times,serif" font-size="14.00">ItemActiveModule</text>
</g>
<!-- ItemActiveModule&#45;&gt;PermissionFormModule -->
<g id="edge7" class="edge">
<title>ItemActiveModule&#45;&gt;PermissionFormModule</title>
<path fill="none" stroke="black" d="M181,-187.02C181,-204.37 181,-228 181,-228 181,-228 269.75,-228 269.75,-228"/>
<polygon fill="black" stroke="black" points="269.75,-231.5 279.75,-228 269.75,-224.5 269.75,-231.5"/>
</g>
<!-- UrlModule -->
<g id="node9" class="node">
<title>UrlModule</title>
<polygon fill="#8dd3c7" stroke="black" points="102.21,-187 99.21,-191 78.21,-191 75.21,-187 23.79,-187 23.79,-151 102.21,-151 102.21,-187"/>
<text text-anchor="middle" x="63" y="-164.8" font-family="Times,serif" font-size="14.00">UrlModule</text>
</g>
<!-- UrlModule&#45;&gt;PermissionFormModule -->
<g id="edge8" class="edge">
<title>UrlModule&#45;&gt;PermissionFormModule</title>
<path fill="none" stroke="black" d="M63,-187.28C63,-208.32 63,-240 63,-240 63,-240 269.78,-240 269.78,-240"/>
<polygon fill="black" stroke="black" points="269.78,-243.5 279.78,-240 269.78,-236.5 269.78,-243.5"/>
</g>
</g>
</svg>
