<?xml version="1.0" encoding="UTF-8" standalone="no"?>
<!DOCTYPE svg PUBLIC "-//W3C//DTD SVG 1.1//EN"
 "http://www.w3.org/Graphics/SVG/1.1/DTD/svg11.dtd">
<!-- Generated by graphviz version 2.46.0 (20210119.1425)
 -->
<!-- Title: dependencies Pages: 1 -->
<svg width="504pt" height="211pt"
 viewBox="0.00 0.00 504.00 211.00" xmlns="http://www.w3.org/2000/svg" xmlns:xlink="http://www.w3.org/1999/xlink">
<g id="graph0" class="graph" transform="scale(1 1) rotate(0) translate(4 207)">
<title>dependencies</title>
<polygon fill="white" stroke="transparent" points="-4,4 -4,-207 500,-207 500,4 -4,4"/>
<text text-anchor="start" x="227.01" y="-42.4" font-family="sans-serif" font-weight="bold" font-size="14.00">Legend</text>
<polygon fill="#ffffb3" stroke="transparent" points="14,-10 14,-30 34,-30 34,-10 14,-10"/>
<text text-anchor="start" x="37.63" y="-15.4" font-family="sans-serif" font-size="14.00"> &#160;Declarations</text>
<polygon fill="#8dd3c7" stroke="transparent" points="127,-10 127,-30 147,-30 147,-10 127,-10"/>
<text text-anchor="start" x="150.73" y="-15.4" font-family="sans-serif" font-size="14.00"> &#160;Module</text>
<polygon fill="#80b1d3" stroke="transparent" points="213,-10 213,-30 233,-30 233,-10 213,-10"/>
<text text-anchor="start" x="236.78" y="-15.4" font-family="sans-serif" font-size="14.00"> &#160;Bootstrap</text>
<polygon fill="#fdb462" stroke="transparent" points="310,-10 310,-30 330,-30 330,-10 310,-10"/>
<text text-anchor="start" x="333.67" y="-15.4" font-family="sans-serif" font-size="14.00"> &#160;Providers</text>
<polygon fill="#fb8072" stroke="transparent" points="406,-10 406,-30 426,-30 426,-10 406,-10"/>
<text text-anchor="start" x="429.73" y="-15.4" font-family="sans-serif" font-size="14.00"> &#160;Exports</text>
<g id="clust1" class="cluster">
<title>cluster_ProductModule</title>
<polygon fill="none" stroke="black" stroke-dasharray="1,5" points="89,-70 89,-195 407,-195 407,-70 89,-70"/>
</g>
<g id="clust3" class="cluster">
<title>cluster_ProductModule_imports</title>
<polygon fill="none" stroke="black" points="97,-78 97,-130 399,-130 399,-78 97,-78"/>
</g>
<!-- ProductEventModule -->
<g id="node1" class="node">
<title>ProductEventModule</title>
<polygon fill="#8dd3c7" stroke="black" points="390.76,-122 387.76,-126 366.76,-126 363.76,-122 255.24,-122 255.24,-86 390.76,-86 390.76,-122"/>
<text text-anchor="middle" x="323" y="-99.8" font-family="Times,serif" font-size="14.00">ProductEventModule</text>
</g>
<!-- ProductModule -->
<g id="node3" class="node">
<title>ProductModule</title>
<polygon fill="#8dd3c7" stroke="black" points="298.6,-187 295.6,-191 274.6,-191 271.6,-187 195.4,-187 195.4,-151 298.6,-151 298.6,-187"/>
<text text-anchor="middle" x="247" y="-164.8" font-family="Times,serif" font-size="14.00">ProductModule</text>
</g>
<!-- ProductEventModule&#45;&gt;ProductModule -->
<g id="edge1" class="edge">
<title>ProductEventModule&#45;&gt;ProductModule</title>
<path fill="none" stroke="black" d="M276.84,-122.11C276.84,-122.11 276.84,-140.99 276.84,-140.99"/>
<polygon fill="black" stroke="black" points="273.34,-140.99 276.84,-150.99 280.34,-140.99 273.34,-140.99"/>
</g>
<!-- ProductStoreModule -->
<g id="node2" class="node">
<title>ProductStoreModule</title>
<polygon fill="#8dd3c7" stroke="black" points="237.15,-122 234.15,-126 213.15,-126 210.15,-122 104.85,-122 104.85,-86 237.15,-86 237.15,-122"/>
<text text-anchor="middle" x="171" y="-99.8" font-family="Times,serif" font-size="14.00">ProductStoreModule</text>
</g>
<!-- ProductStoreModule&#45;&gt;ProductModule -->
<g id="edge2" class="edge">
<title>ProductStoreModule&#45;&gt;ProductModule</title>
<path fill="none" stroke="black" d="M216.39,-122.11C216.39,-122.11 216.39,-140.99 216.39,-140.99"/>
<polygon fill="black" stroke="black" points="212.89,-140.99 216.39,-150.99 219.89,-140.99 212.89,-140.99"/>
</g>
</g>
</svg>
