<?xml version="1.0" encoding="UTF-8" standalone="no"?>
<!DOCTYPE svg PUBLIC "-//W3C//DTD SVG 1.1//EN"
 "http://www.w3.org/Graphics/SVG/1.1/DTD/svg11.dtd">
<!-- Generated by graphviz version 2.40.1 (20161225.0304)
 -->
<!-- Title: dependencies Pages: 1 -->
<svg width="504pt" height="211pt"
 viewBox="0.00 0.00 504.00 211.00" xmlns="http://www.w3.org/2000/svg" xmlns:xlink="http://www.w3.org/1999/xlink">
<g id="graph0" class="graph" transform="scale(1 1) rotate(0) translate(4 207)">
<title>dependencies</title>
<polygon fill="#ffffff" stroke="transparent" points="-4,4 -4,-207 500,-207 500,4 -4,4"/>
<text text-anchor="start" x="227.0091" y="-42.4" font-family="sans-serif" font-weight="bold" font-size="14.00" fill="#000000">Legend</text>
<polygon fill="#ffffb3" stroke="transparent" points="14,-10 14,-30 34,-30 34,-10 14,-10"/>
<text text-anchor="start" x="37.629" y="-15.4" font-family="sans-serif" font-size="14.00" fill="#000000"> &#160;Declarations</text>
<polygon fill="#8dd3c7" stroke="transparent" points="127,-10 127,-30 147,-30 147,-10 127,-10"/>
<text text-anchor="start" x="150.7251" y="-15.4" font-family="sans-serif" font-size="14.00" fill="#000000"> &#160;Module</text>
<polygon fill="#80b1d3" stroke="transparent" points="213,-10 213,-30 233,-30 233,-10 213,-10"/>
<text text-anchor="start" x="236.7812" y="-15.4" font-family="sans-serif" font-size="14.00" fill="#000000"> &#160;Bootstrap</text>
<polygon fill="#fdb462" stroke="transparent" points="310,-10 310,-30 330,-30 330,-10 310,-10"/>
<text text-anchor="start" x="333.6732" y="-15.4" font-family="sans-serif" font-size="14.00" fill="#000000"> &#160;Providers</text>
<polygon fill="#fb8072" stroke="transparent" points="406,-10 406,-30 426,-30 426,-10 406,-10"/>
<text text-anchor="start" x="429.7258" y="-15.4" font-family="sans-serif" font-size="14.00" fill="#000000"> &#160;Exports</text>
<g id="clust1" class="cluster">
<title>cluster_ProductModule</title>
<polygon fill="none" stroke="#000000" stroke-dasharray="1,5" points="89,-70 89,-195 407,-195 407,-70 89,-70"/>
</g>
<g id="clust3" class="cluster">
<title>cluster_ProductModule_imports</title>
<polygon fill="none" stroke="#000000" points="97,-78 97,-130 399,-130 399,-78 97,-78"/>
</g>
<!-- ProductEventModule -->
<g id="node1" class="node">
<title>ProductEventModule</title>
<polygon fill="#8dd3c7" stroke="#000000" points="390.7562,-122 387.7562,-126 366.7562,-126 363.7562,-122 255.2438,-122 255.2438,-86 390.7562,-86 390.7562,-122"/>
<text text-anchor="middle" x="323" y="-99.8" font-family="Times,serif" font-size="14.00" fill="#000000">ProductEventModule</text>
</g>
<!-- ProductModule -->
<g id="node3" class="node">
<title>ProductModule</title>
<polygon fill="#8dd3c7" stroke="#000000" points="298.5982,-187 295.5982,-191 274.5982,-191 271.5982,-187 195.4018,-187 195.4018,-151 298.5982,-151 298.5982,-187"/>
<text text-anchor="middle" x="247" y="-164.8" font-family="Times,serif" font-size="14.00" fill="#000000">ProductModule</text>
</g>
<!-- ProductEventModule&#45;&gt;ProductModule -->
<g id="edge1" class="edge">
<title>ProductEventModule&#45;&gt;ProductModule</title>
<path fill="none" stroke="#000000" d="M276.8356,-122.1061C276.8356,-122.1061 276.8356,-140.991 276.8356,-140.991"/>
<polygon fill="#000000" stroke="#000000" points="273.3356,-140.9909 276.8356,-150.991 280.3356,-140.991 273.3356,-140.9909"/>
</g>
<!-- ProductStoreModule -->
<g id="node2" class="node">
<title>ProductStoreModule</title>
<polygon fill="#8dd3c7" stroke="#000000" points="237.1471,-122 234.1471,-126 213.1471,-126 210.1471,-122 104.8529,-122 104.8529,-86 237.1471,-86 237.1471,-122"/>
<text text-anchor="middle" x="171" y="-99.8" font-family="Times,serif" font-size="14.00" fill="#000000">ProductStoreModule</text>
</g>
<!-- ProductStoreModule&#45;&gt;ProductModule -->
<g id="edge2" class="edge">
<title>ProductStoreModule&#45;&gt;ProductModule</title>
<path fill="none" stroke="#000000" d="M216.3871,-122.1061C216.3871,-122.1061 216.3871,-140.991 216.3871,-140.991"/>
<polygon fill="#000000" stroke="#000000" points="212.8872,-140.9909 216.3871,-150.991 219.8872,-140.991 212.8872,-140.9909"/>
</g>
</g>
</svg>
