<?xml version="1.0" encoding="UTF-8" standalone="no"?>
<!DOCTYPE svg PUBLIC "-//W3C//DTD SVG 1.1//EN"
 "http://www.w3.org/Graphics/SVG/1.1/DTD/svg11.dtd">
<!-- Generated by graphviz version 2.47.3 (20210619.1520)
 -->
<!-- Title: dependencies Pages: 1 -->
<svg width="342pt" height="174pt"
 viewBox="0.00 0.00 342.00 173.80" xmlns="http://www.w3.org/2000/svg" xmlns:xlink="http://www.w3.org/1999/xlink">
<g id="graph0" class="graph" transform="scale(1 1) rotate(0) translate(4 169.8)">
<title>dependencies</title>
<polygon fill="white" stroke="transparent" points="-4,4 -4,-169.8 338,-169.8 338,4 -4,4"/>
<text text-anchor="middle" x="167" y="-8.2" font-family="sans-serif" font-size="14.00">dependencies</text>
<g id="clust1" class="cluster">
<title>cluster_ProductModule</title>
<polygon fill="none" stroke="black" stroke-dasharray="1,5" points="8,-32.8 8,-157.8 326,-157.8 326,-32.8 8,-32.8"/>
</g>
<g id="clust3" class="cluster">
<title>cluster_ProductModule_imports</title>
<polygon fill="none" stroke="black" points="16,-40.8 16,-92.8 318,-92.8 318,-40.8 16,-40.8"/>
</g>
<!-- ProductEventModule -->
<g id="node1" class="node">
<title>ProductEventModule</title>
<polygon fill="#8dd3c7" stroke="black" points="309.76,-84.8 306.76,-88.8 285.76,-88.8 282.76,-84.8 174.24,-84.8 174.24,-48.8 309.76,-48.8 309.76,-84.8"/>
<text text-anchor="middle" x="242" y="-62.6" font-family="Times,serif" font-size="14.00">ProductEventModule</text>
</g>
<!-- ProductModule -->
<g id="node3" class="node">
<title>ProductModule</title>
<polygon fill="#8dd3c7" stroke="black" points="217.6,-149.8 214.6,-153.8 193.6,-153.8 190.6,-149.8 114.4,-149.8 114.4,-113.8 217.6,-113.8 217.6,-149.8"/>
<text text-anchor="middle" x="166" y="-127.6" font-family="Times,serif" font-size="14.00">ProductModule</text>
</g>
<!-- ProductEventModule&#45;&gt;ProductModule -->
<g id="edge1" class="edge">
<title>ProductEventModule&#45;&gt;ProductModule</title>
<path fill="none" stroke="black" d="M195.84,-84.91C195.84,-84.91 195.84,-103.79 195.84,-103.79"/>
<polygon fill="black" stroke="black" points="192.34,-103.79 195.84,-113.79 199.34,-103.79 192.34,-103.79"/>
</g>
<!-- ProductStoreModule -->
<g id="node2" class="node">
<title>ProductStoreModule</title>
<polygon fill="#8dd3c7" stroke="black" points="156.15,-84.8 153.15,-88.8 132.15,-88.8 129.15,-84.8 23.85,-84.8 23.85,-48.8 156.15,-48.8 156.15,-84.8"/>
<text text-anchor="middle" x="90" y="-62.6" font-family="Times,serif" font-size="14.00">ProductStoreModule</text>
</g>
<!-- ProductStoreModule&#45;&gt;ProductModule -->
<g id="edge2" class="edge">
<title>ProductStoreModule&#45;&gt;ProductModule</title>
<path fill="none" stroke="black" d="M135.39,-84.91C135.39,-84.91 135.39,-103.79 135.39,-103.79"/>
<polygon fill="black" stroke="black" points="131.89,-103.79 135.39,-113.79 138.89,-103.79 131.89,-103.79"/>
</g>
</g>
</svg>
