<?xml version="1.0" encoding="UTF-8" standalone="no"?>
<!DOCTYPE svg PUBLIC "-//W3C//DTD SVG 1.1//EN"
 "http://www.w3.org/Graphics/SVG/1.1/DTD/svg11.dtd">
<!-- Generated by graphviz version 2.47.0 (20210316.0004)
 -->
<!-- Title: dependencies Pages: 1 -->
<svg width="504pt" height="284pt"
 viewBox="0.00 0.00 504.00 284.00" xmlns="http://www.w3.org/2000/svg" xmlns:xlink="http://www.w3.org/1999/xlink">
<g id="graph0" class="graph" transform="scale(1 1) rotate(0) translate(4 280)">
<title>dependencies</title>
<polygon fill="white" stroke="transparent" points="-4,4 -4,-280 500,-280 500,4 -4,4"/>
<text text-anchor="start" x="227.01" y="-42.4" font-family="sans-serif" font-weight="bold" font-size="14.00">Legend</text>
<polygon fill="#ffffb3" stroke="transparent" points="14,-10 14,-30 34,-30 34,-10 14,-10"/>
<text text-anchor="start" x="37.63" y="-15.4" font-family="sans-serif" font-size="14.00"> &#160;Declarations</text>
<polygon fill="#8dd3c7" stroke="transparent" points="127,-10 127,-30 147,-30 147,-10 127,-10"/>
<text text-anchor="start" x="150.73" y="-15.4" font-family="sans-serif" font-size="14.00"> &#160;Module</text>
<polygon fill="#80b1d3" stroke="transparent" points="213,-10 213,-30 233,-30 233,-10 213,-10"/>
<text text-anchor="start" x="236.78" y="-15.4" font-family="sans-serif" font-size="14.00"> &#160;Bootstrap</text>
<polygon fill="#fdb462" stroke="transparent" points="310,-10 310,-30 330,-30 330,-10 310,-10"/>
<text text-anchor="start" x="333.67" y="-15.4" font-family="sans-serif" font-size="14.00"> &#160;Providers</text>
<polygon fill="#fb8072" stroke="transparent" points="406,-10 406,-30 426,-30 426,-10 406,-10"/>
<text text-anchor="start" x="429.73" y="-15.4" font-family="sans-serif" font-size="14.00"> &#160;Exports</text>
<g id="clust1" class="cluster">
<title>cluster_ConfiguratorGroupTitleModule</title>
<polygon fill="none" stroke="black" stroke-dasharray="1,5" points="122,-70 122,-268 374,-268 374,-70 122,-70"/>
</g>
<g id="clust2" class="cluster">
<title>cluster_ConfiguratorGroupTitleModule_declarations</title>
<polygon fill="none" stroke="black" points="132,-78 132,-130 364,-130 364,-78 132,-78"/>
</g>
<g id="clust5" class="cluster">
<title>cluster_ConfiguratorGroupTitleModule_exports</title>
<polygon fill="none" stroke="black" points="130,-208 130,-260 366,-260 366,-208 130,-208"/>
</g>
<!-- ConfiguratorGroupTitleComponent -->
<g id="node1" class="node">
<title>ConfiguratorGroupTitleComponent</title>
<polygon fill="#ffffb3" stroke="black" points="355.85,-122 140.15,-122 140.15,-86 355.85,-86 355.85,-122"/>
<text text-anchor="middle" x="248" y="-99.8" font-family="Times,serif" font-size="14.00">ConfiguratorGroupTitleComponent</text>
</g>
<!-- ConfiguratorGroupTitleModule -->
<g id="node2" class="node">
<title>ConfiguratorGroupTitleModule</title>
<polygon fill="#8dd3c7" stroke="black" points="345.07,-187 342.07,-191 321.07,-191 318.07,-187 150.93,-187 150.93,-151 345.07,-151 345.07,-187"/>
<text text-anchor="middle" x="248" y="-164.8" font-family="Times,serif" font-size="14.00">ConfiguratorGroupTitleModule</text>
</g>
<!-- ConfiguratorGroupTitleComponent&#45;&gt;ConfiguratorGroupTitleModule -->
<g id="edge1" class="edge">
<title>ConfiguratorGroupTitleComponent&#45;&gt;ConfiguratorGroupTitleModule</title>
<path fill="none" stroke="black" d="M248,-122.11C248,-122.11 248,-140.99 248,-140.99"/>
<polygon fill="black" stroke="black" points="244.5,-140.99 248,-150.99 251.5,-140.99 244.5,-140.99"/>
</g>
<!-- ConfiguratorGroupTitleComponent  -->
<g id="node3" class="node">
<title>ConfiguratorGroupTitleComponent </title>
<polygon fill="#fb8072" stroke="black" points="357.85,-252 138.15,-252 138.15,-216 357.85,-216 357.85,-252"/>
<text text-anchor="middle" x="248" y="-229.8" font-family="Times,serif" font-size="14.00">ConfiguratorGroupTitleComponent </text>
</g>
<!-- ConfiguratorGroupTitleModule&#45;&gt;ConfiguratorGroupTitleComponent  -->
<g id="edge2" class="edge">
<title>ConfiguratorGroupTitleModule&#45;&gt;ConfiguratorGroupTitleComponent </title>
<path fill="none" stroke="black" stroke-dasharray="5,2" d="M248,-187.11C248,-187.11 248,-205.99 248,-205.99"/>
<polygon fill="black" stroke="black" points="244.5,-205.99 248,-215.99 251.5,-205.99 244.5,-205.99"/>
</g>
</g>
</svg>
