<?xml version="1.0" encoding="UTF-8" standalone="no"?>
<!DOCTYPE svg PUBLIC "-//W3C//DTD SVG 1.1//EN"
 "http://www.w3.org/Graphics/SVG/1.1/DTD/svg11.dtd">
<!-- Generated by graphviz version 2.40.1 (20161225.0304)
 -->
<!-- Title: dependencies Pages: 1 -->
<svg width="504pt" height="211pt"
 viewBox="0.00 0.00 504.00 211.00" xmlns="http://www.w3.org/2000/svg" xmlns:xlink="http://www.w3.org/1999/xlink">
<g id="graph0" class="graph" transform="scale(1 1) rotate(0) translate(4 207)">
<title>dependencies</title>
<polygon fill="#ffffff" stroke="transparent" points="-4,4 -4,-207 500,-207 500,4 -4,4"/>
<text text-anchor="start" x="227.0091" y="-42.4" font-family="sans-serif" font-weight="bold" font-size="14.00" fill="#000000">Legend</text>
<polygon fill="#ffffb3" stroke="transparent" points="14,-10 14,-30 34,-30 34,-10 14,-10"/>
<text text-anchor="start" x="37.629" y="-15.4" font-family="sans-serif" font-size="14.00" fill="#000000"> &#160;Declarations</text>
<polygon fill="#8dd3c7" stroke="transparent" points="127,-10 127,-30 147,-30 147,-10 127,-10"/>
<text text-anchor="start" x="150.7251" y="-15.4" font-family="sans-serif" font-size="14.00" fill="#000000"> &#160;Module</text>
<polygon fill="#80b1d3" stroke="transparent" points="213,-10 213,-30 233,-30 233,-10 213,-10"/>
<text text-anchor="start" x="236.7812" y="-15.4" font-family="sans-serif" font-size="14.00" fill="#000000"> &#160;Bootstrap</text>
<polygon fill="#fdb462" stroke="transparent" points="310,-10 310,-30 330,-30 330,-10 310,-10"/>
<text text-anchor="start" x="333.6732" y="-15.4" font-family="sans-serif" font-size="14.00" fill="#000000"> &#160;Providers</text>
<polygon fill="#fb8072" stroke="transparent" points="406,-10 406,-30 426,-30 426,-10 406,-10"/>
<text text-anchor="start" x="429.7258" y="-15.4" font-family="sans-serif" font-size="14.00" fill="#000000"> &#160;Exports</text>
<g id="clust1" class="cluster">
<title>cluster_CheckoutComponentModule</title>
<polygon fill="none" stroke="#000000" stroke-dasharray="1,5" points="81.5,-70 81.5,-195 414.5,-195 414.5,-70 81.5,-70"/>
</g>
<g id="clust3" class="cluster">
<title>cluster_CheckoutComponentModule_imports</title>
<polygon fill="none" stroke="#000000" points="89.5,-78 89.5,-130 406.5,-130 406.5,-78 89.5,-78"/>
</g>
<!-- CheckoutModule -->
<g id="node1" class="node">
<title>CheckoutModule</title>
<polygon fill="#8dd3c7" stroke="#000000" points="398.2064,-122 395.2064,-126 374.2064,-126 371.2064,-122 284.7936,-122 284.7936,-86 398.2064,-86 398.2064,-122"/>
<text text-anchor="middle" x="341.5" y="-99.8" font-family="Times,serif" font-size="14.00" fill="#000000">CheckoutModule</text>
</g>
<!-- CheckoutComponentModule -->
<g id="node3" class="node">
<title>CheckoutComponentModule</title>
<polygon fill="#8dd3c7" stroke="#000000" points="338.5392,-187 335.5392,-191 314.5392,-191 311.5392,-187 160.4608,-187 160.4608,-151 338.5392,-151 338.5392,-187"/>
<text text-anchor="middle" x="249.5" y="-164.8" font-family="Times,serif" font-size="14.00" fill="#000000">CheckoutComponentModule</text>
</g>
<!-- CheckoutModule&#45;&gt;CheckoutComponentModule -->
<g id="edge1" class="edge">
<title>CheckoutModule&#45;&gt;CheckoutComponentModule</title>
<path fill="none" stroke="#000000" d="M311.8331,-122.1061C311.8331,-122.1061 311.8331,-140.991 311.8331,-140.991"/>
<polygon fill="#000000" stroke="#000000" points="308.3332,-140.9909 311.8331,-150.991 315.3332,-140.991 308.3332,-140.9909"/>
</g>
<!-- MultiStepCheckoutModule -->
<g id="node2" class="node">
<title>MultiStepCheckoutModule</title>
<polygon fill="#8dd3c7" stroke="#000000" points="267.2105,-122 264.2105,-126 243.2105,-126 240.2105,-122 97.7895,-122 97.7895,-86 267.2105,-86 267.2105,-122"/>
<text text-anchor="middle" x="182.5" y="-99.8" font-family="Times,serif" font-size="14.00" fill="#000000">MultiStepCheckoutModule</text>
</g>
<!-- MultiStepCheckoutModule&#45;&gt;CheckoutComponentModule -->
<g id="edge2" class="edge">
<title>MultiStepCheckoutModule&#45;&gt;CheckoutComponentModule</title>
<path fill="none" stroke="#000000" d="M213.668,-122.1061C213.668,-122.1061 213.668,-140.991 213.668,-140.991"/>
<polygon fill="#000000" stroke="#000000" points="210.168,-140.9909 213.668,-150.991 217.168,-140.991 210.168,-140.9909"/>
</g>
</g>
</svg>
