<?xml version="1.0" encoding="UTF-8" standalone="no"?>
<!DOCTYPE svg PUBLIC "-//W3C//DTD SVG 1.1//EN"
 "http://www.w3.org/Graphics/SVG/1.1/DTD/svg11.dtd">
<!-- Generated by graphviz version 2.40.1 (20161225.0304)
 -->
<!-- Title: dependencies Pages: 1 -->
<svg width="504pt" height="211pt"
 viewBox="0.00 0.00 504.00 211.00" xmlns="http://www.w3.org/2000/svg" xmlns:xlink="http://www.w3.org/1999/xlink">
<g id="graph0" class="graph" transform="scale(1 1) rotate(0) translate(4 207)">
<title>dependencies</title>
<polygon fill="#ffffff" stroke="transparent" points="-4,4 -4,-207 500,-207 500,4 -4,4"/>
<text text-anchor="start" x="227.0091" y="-42.4" font-family="sans-serif" font-weight="bold" font-size="14.00" fill="#000000">Legend</text>
<polygon fill="#ffffb3" stroke="transparent" points="14,-10 14,-30 34,-30 34,-10 14,-10"/>
<text text-anchor="start" x="37.629" y="-15.4" font-family="sans-serif" font-size="14.00" fill="#000000"> &#160;Declarations</text>
<polygon fill="#8dd3c7" stroke="transparent" points="127,-10 127,-30 147,-30 147,-10 127,-10"/>
<text text-anchor="start" x="150.7251" y="-15.4" font-family="sans-serif" font-size="14.00" fill="#000000"> &#160;Module</text>
<polygon fill="#80b1d3" stroke="transparent" points="213,-10 213,-30 233,-30 233,-10 213,-10"/>
<text text-anchor="start" x="236.7812" y="-15.4" font-family="sans-serif" font-size="14.00" fill="#000000"> &#160;Bootstrap</text>
<polygon fill="#fdb462" stroke="transparent" points="310,-10 310,-30 330,-30 330,-10 310,-10"/>
<text text-anchor="start" x="333.6732" y="-15.4" font-family="sans-serif" font-size="14.00" fill="#000000"> &#160;Providers</text>
<polygon fill="#fb8072" stroke="transparent" points="406,-10 406,-30 426,-30 426,-10 406,-10"/>
<text text-anchor="start" x="429.7258" y="-15.4" font-family="sans-serif" font-size="14.00" fill="#000000"> &#160;Exports</text>
<g id="clust1" class="cluster">
<title>cluster_OrderApprovalComponentsModule</title>
<polygon fill="none" stroke="#000000" stroke-dasharray="1,5" points="47.5,-70 47.5,-195 448.5,-195 448.5,-70 47.5,-70"/>
</g>
<g id="clust3" class="cluster">
<title>cluster_OrderApprovalComponentsModule_imports</title>
<polygon fill="none" stroke="#000000" points="55.5,-78 55.5,-130 440.5,-130 440.5,-78 55.5,-78"/>
</g>
<!-- OrderApprovalDetailsModule -->
<g id="node1" class="node">
<title>OrderApprovalDetailsModule</title>
<polygon fill="#8dd3c7" stroke="#000000" points="432.717,-122 429.717,-126 408.717,-126 405.717,-122 248.283,-122 248.283,-86 432.717,-86 432.717,-122"/>
<text text-anchor="middle" x="340.5" y="-99.8" font-family="Times,serif" font-size="14.00" fill="#000000">OrderApprovalDetailsModule</text>
</g>
<!-- OrderApprovalComponentsModule -->
<g id="node3" class="node">
<title>OrderApprovalComponentsModule</title>
<polygon fill="#8dd3c7" stroke="#000000" points="355.3417,-187 352.3417,-191 331.3417,-191 328.3417,-187 139.6583,-187 139.6583,-151 355.3417,-151 355.3417,-187"/>
<text text-anchor="middle" x="247.5" y="-164.8" font-family="Times,serif" font-size="14.00" fill="#000000">OrderApprovalComponentsModule</text>
</g>
<!-- OrderApprovalDetailsModule&#45;&gt;OrderApprovalComponentsModule -->
<g id="edge1" class="edge">
<title>OrderApprovalDetailsModule&#45;&gt;OrderApprovalComponentsModule</title>
<path fill="none" stroke="#000000" d="M301.7812,-122.1061C301.7812,-122.1061 301.7812,-140.991 301.7812,-140.991"/>
<polygon fill="#000000" stroke="#000000" points="298.2813,-140.9909 301.7812,-150.991 305.2813,-140.991 298.2813,-140.9909"/>
</g>
<!-- OrderApprovalListModule -->
<g id="node2" class="node">
<title>OrderApprovalListModule</title>
<polygon fill="#8dd3c7" stroke="#000000" points="229.8431,-122 226.8431,-126 205.8431,-126 202.8431,-122 63.1569,-122 63.1569,-86 229.8431,-86 229.8431,-122"/>
<text text-anchor="middle" x="146.5" y="-99.8" font-family="Times,serif" font-size="14.00" fill="#000000">OrderApprovalListModule</text>
</g>
<!-- OrderApprovalListModule&#45;&gt;OrderApprovalComponentsModule -->
<g id="edge2" class="edge">
<title>OrderApprovalListModule&#45;&gt;OrderApprovalComponentsModule</title>
<path fill="none" stroke="#000000" d="M184.7504,-122.1061C184.7504,-122.1061 184.7504,-140.991 184.7504,-140.991"/>
<polygon fill="#000000" stroke="#000000" points="181.2504,-140.9909 184.7504,-150.991 188.2504,-140.991 181.2504,-140.9909"/>
</g>
</g>
</svg>
