<?xml version="1.0" encoding="UTF-8" standalone="no"?>
<!DOCTYPE svg PUBLIC "-//W3C//DTD SVG 1.1//EN"
 "http://www.w3.org/Graphics/SVG/1.1/DTD/svg11.dtd">
<!-- Generated by graphviz version 2.47.3 (20210619.1520)
 -->
<!-- Title: dependencies Pages: 1 -->
<svg width="425pt" height="174pt"
 viewBox="0.00 0.00 425.00 173.80" xmlns="http://www.w3.org/2000/svg" xmlns:xlink="http://www.w3.org/1999/xlink">
<g id="graph0" class="graph" transform="scale(1 1) rotate(0) translate(4 169.8)">
<title>dependencies</title>
<polygon fill="white" stroke="transparent" points="-4,4 -4,-169.8 421,-169.8 421,4 -4,4"/>
<text text-anchor="middle" x="208.5" y="-8.2" font-family="sans-serif" font-size="14.00">dependencies</text>
<g id="clust1" class="cluster">
<title>cluster_OrderApprovalComponentsModule</title>
<polygon fill="none" stroke="black" stroke-dasharray="1,5" points="8,-32.8 8,-157.8 409,-157.8 409,-32.8 8,-32.8"/>
</g>
<g id="clust3" class="cluster">
<title>cluster_OrderApprovalComponentsModule_imports</title>
<polygon fill="none" stroke="black" points="16,-40.8 16,-92.8 401,-92.8 401,-40.8 16,-40.8"/>
</g>
<!-- OrderApprovalDetailsModule -->
<g id="node1" class="node">
<title>OrderApprovalDetailsModule</title>
<polygon fill="#8dd3c7" stroke="black" points="393.22,-84.8 390.22,-88.8 369.22,-88.8 366.22,-84.8 208.78,-84.8 208.78,-48.8 393.22,-48.8 393.22,-84.8"/>
<text text-anchor="middle" x="301" y="-62.6" font-family="Times,serif" font-size="14.00">OrderApprovalDetailsModule</text>
</g>
<!-- OrderApprovalComponentsModule -->
<g id="node3" class="node">
<title>OrderApprovalComponentsModule</title>
<polygon fill="#8dd3c7" stroke="black" points="315.84,-149.8 312.84,-153.8 291.84,-153.8 288.84,-149.8 100.16,-149.8 100.16,-113.8 315.84,-113.8 315.84,-149.8"/>
<text text-anchor="middle" x="208" y="-127.6" font-family="Times,serif" font-size="14.00">OrderApprovalComponentsModule</text>
</g>
<!-- OrderApprovalDetailsModule&#45;&gt;OrderApprovalComponentsModule -->
<g id="edge1" class="edge">
<title>OrderApprovalDetailsModule&#45;&gt;OrderApprovalComponentsModule</title>
<path fill="none" stroke="black" d="M262.28,-84.91C262.28,-84.91 262.28,-103.79 262.28,-103.79"/>
<polygon fill="black" stroke="black" points="258.78,-103.79 262.28,-113.79 265.78,-103.79 258.78,-103.79"/>
</g>
<!-- OrderApprovalListModule -->
<g id="node2" class="node">
<title>OrderApprovalListModule</title>
<polygon fill="#8dd3c7" stroke="black" points="190.34,-84.8 187.34,-88.8 166.34,-88.8 163.34,-84.8 23.66,-84.8 23.66,-48.8 190.34,-48.8 190.34,-84.8"/>
<text text-anchor="middle" x="107" y="-62.6" font-family="Times,serif" font-size="14.00">OrderApprovalListModule</text>
</g>
<!-- OrderApprovalListModule&#45;&gt;OrderApprovalComponentsModule -->
<g id="edge2" class="edge">
<title>OrderApprovalListModule&#45;&gt;OrderApprovalComponentsModule</title>
<path fill="none" stroke="black" d="M145.25,-84.91C145.25,-84.91 145.25,-103.79 145.25,-103.79"/>
<polygon fill="black" stroke="black" points="141.75,-103.79 145.25,-113.79 148.75,-103.79 141.75,-103.79"/>
</g>
</g>
</svg>
