<?xml version="1.0" encoding="UTF-8" standalone="no"?>
<!DOCTYPE svg PUBLIC "-//W3C//DTD SVG 1.1//EN"
 "http://www.w3.org/Graphics/SVG/1.1/DTD/svg11.dtd">
<!-- Generated by graphviz version 2.44.1 (20200629.0846)
 -->
<!-- Title: dependencies Pages: 1 -->
<svg width="2087pt" height="211pt"
 viewBox="0.00 0.00 2087.00 211.00" xmlns="http://www.w3.org/2000/svg" xmlns:xlink="http://www.w3.org/1999/xlink">
<g id="graph0" class="graph" transform="scale(1 1) rotate(0) translate(4 207)">
<title>dependencies</title>
<polygon fill="white" stroke="transparent" points="-4,4 -4,-207 2083,-207 2083,4 -4,4"/>
<text text-anchor="start" x="1018.51" y="-42.4" font-family="sans-serif" font-weight="bold" font-size="14.00">Legend</text>
<polygon fill="#ffffb3" stroke="transparent" points="805.5,-10 805.5,-30 825.5,-30 825.5,-10 805.5,-10"/>
<text text-anchor="start" x="829.13" y="-15.4" font-family="sans-serif" font-size="14.00"> &#160;Declarations</text>
<polygon fill="#8dd3c7" stroke="transparent" points="918.5,-10 918.5,-30 938.5,-30 938.5,-10 918.5,-10"/>
<text text-anchor="start" x="942.23" y="-15.4" font-family="sans-serif" font-size="14.00"> &#160;Module</text>
<polygon fill="#80b1d3" stroke="transparent" points="1004.5,-10 1004.5,-30 1024.5,-30 1024.5,-10 1004.5,-10"/>
<text text-anchor="start" x="1028.28" y="-15.4" font-family="sans-serif" font-size="14.00"> &#160;Bootstrap</text>
<polygon fill="#fdb462" stroke="transparent" points="1101.5,-10 1101.5,-30 1121.5,-30 1121.5,-10 1101.5,-10"/>
<text text-anchor="start" x="1125.17" y="-15.4" font-family="sans-serif" font-size="14.00"> &#160;Providers</text>
<polygon fill="#fb8072" stroke="transparent" points="1197.5,-10 1197.5,-30 1217.5,-30 1217.5,-10 1197.5,-10"/>
<text text-anchor="start" x="1221.23" y="-15.4" font-family="sans-serif" font-size="14.00"> &#160;Exports</text>
<g id="clust1" class="cluster">
<title>cluster_CheckoutComponentModule</title>
<polygon fill="none" stroke="black" stroke-dasharray="1,5" points="8,-70 8,-195 2071,-195 2071,-70 8,-70"/>
</g>
<g id="clust3" class="cluster">
<title>cluster_CheckoutComponentModule_imports</title>
<polygon fill="none" stroke="black" points="16,-78 16,-130 2063,-130 2063,-78 16,-78"/>
</g>
<!-- CheckoutOrchestratorModule -->
<g id="node1" class="node">
<title>CheckoutOrchestratorModule</title>
<polygon fill="#8dd3c7" stroke="black" points="2054.66,-122 2051.66,-126 2030.66,-126 2027.66,-122 1871.34,-122 1871.34,-86 2054.66,-86 2054.66,-122"/>
<text text-anchor="middle" x="1963" y="-99.8" font-family="Times,serif" font-size="14.00">CheckoutOrchestratorModule</text>
</g>
<!-- CheckoutComponentModule -->
<g id="node12" class="node">
<title>CheckoutComponentModule</title>
<polygon fill="#8dd3c7" stroke="black" points="970.04,-187 967.04,-191 946.04,-191 943.04,-187 791.96,-187 791.96,-151 970.04,-151 970.04,-187"/>
<text text-anchor="middle" x="881" y="-164.8" font-family="Times,serif" font-size="14.00">CheckoutComponentModule</text>
</g>
<!-- CheckoutOrchestratorModule&#45;&gt;CheckoutComponentModule -->
<g id="edge1" class="edge">
<title>CheckoutOrchestratorModule&#45;&gt;CheckoutComponentModule</title>
<path fill="none" stroke="black" d="M1963,-122.01C1963,-144.49 1963,-180 1963,-180 1963,-180 980.47,-180 980.47,-180"/>
<polygon fill="black" stroke="black" points="980.47,-176.5 970.47,-180 980.47,-183.5 980.47,-176.5"/>
</g>
<!-- CheckoutOrderSummaryModule -->
<g id="node2" class="node">
<title>CheckoutOrderSummaryModule</title>
<polygon fill="#8dd3c7" stroke="black" points="1853.29,-122 1850.29,-126 1829.29,-126 1826.29,-122 1652.71,-122 1652.71,-86 1853.29,-86 1853.29,-122"/>
<text text-anchor="middle" x="1753" y="-99.8" font-family="Times,serif" font-size="14.00">CheckoutOrderSummaryModule</text>
</g>
<!-- CheckoutOrderSummaryModule&#45;&gt;CheckoutComponentModule -->
<g id="edge2" class="edge">
<title>CheckoutOrderSummaryModule&#45;&gt;CheckoutComponentModule</title>
<path fill="none" stroke="black" d="M1753,-122.13C1753,-142.57 1753,-173 1753,-173 1753,-173 980.22,-173 980.22,-173"/>
<polygon fill="black" stroke="black" points="980.22,-169.5 970.22,-173 980.22,-176.5 980.22,-169.5"/>
</g>
<!-- CheckoutProgressMobileBottomModule -->
<g id="node3" class="node">
<title>CheckoutProgressMobileBottomModule</title>
<polygon fill="#8dd3c7" stroke="black" points="1634.86,-122 1631.86,-126 1610.86,-126 1607.86,-122 1391.14,-122 1391.14,-86 1634.86,-86 1634.86,-122"/>
<text text-anchor="middle" x="1513" y="-99.8" font-family="Times,serif" font-size="14.00">CheckoutProgressMobileBottomModule</text>
</g>
<!-- CheckoutProgressMobileBottomModule&#45;&gt;CheckoutComponentModule -->
<g id="edge3" class="edge">
<title>CheckoutProgressMobileBottomModule&#45;&gt;CheckoutComponentModule</title>
<path fill="none" stroke="black" d="M1513,-122.27C1513,-140.56 1513,-166 1513,-166 1513,-166 980.21,-166 980.21,-166"/>
<polygon fill="black" stroke="black" points="980.21,-162.5 970.21,-166 980.21,-169.5 980.21,-162.5"/>
</g>
<!-- CheckoutProgressMobileTopModule -->
<g id="node4" class="node">
<title>CheckoutProgressMobileTopModule</title>
<polygon fill="#8dd3c7" stroke="black" points="1373.41,-122 1370.41,-126 1349.41,-126 1346.41,-122 1148.59,-122 1148.59,-86 1373.41,-86 1373.41,-122"/>
<text text-anchor="middle" x="1261" y="-99.8" font-family="Times,serif" font-size="14.00">CheckoutProgressMobileTopModule</text>
</g>
<!-- CheckoutProgressMobileTopModule&#45;&gt;CheckoutComponentModule -->
<g id="edge4" class="edge">
<title>CheckoutProgressMobileTopModule&#45;&gt;CheckoutComponentModule</title>
<path fill="none" stroke="black" d="M1261,-122.01C1261,-138.05 1261,-159 1261,-159 1261,-159 980.09,-159 980.09,-159"/>
<polygon fill="black" stroke="black" points="980.09,-155.5 970.09,-159 980.09,-162.5 980.09,-155.5"/>
</g>
<!-- CheckoutProgressModule -->
<g id="node5" class="node">
<title>CheckoutProgressModule</title>
<polygon fill="#8dd3c7" stroke="black" points="1130.91,-122 1127.91,-126 1106.91,-126 1103.91,-122 969.09,-122 969.09,-86 1130.91,-86 1130.91,-122"/>
<text text-anchor="middle" x="1050" y="-99.8" font-family="Times,serif" font-size="14.00">CheckoutProgressModule</text>
</g>
<!-- CheckoutProgressModule&#45;&gt;CheckoutComponentModule -->
<g id="edge5" class="edge">
<title>CheckoutProgressModule&#45;&gt;CheckoutComponentModule</title>
<path fill="none" stroke="black" d="M969.03,-104C963.72,-104 960.44,-104 960.44,-104 960.44,-104 960.44,-140.89 960.44,-140.89"/>
<polygon fill="black" stroke="black" points="956.94,-140.89 960.44,-150.89 963.94,-140.89 956.94,-140.89"/>
</g>
<!-- DeliveryModeModule -->
<g id="node6" class="node">
<title>DeliveryModeModule</title>
<polygon fill="#8dd3c7" stroke="black" points="951.69,-122 948.69,-126 927.69,-126 924.69,-122 810.31,-122 810.31,-86 951.69,-86 951.69,-122"/>
<text text-anchor="middle" x="881" y="-99.8" font-family="Times,serif" font-size="14.00">DeliveryModeModule</text>
</g>
<!-- DeliveryModeModule&#45;&gt;CheckoutComponentModule -->
<g id="edge6" class="edge">
<title>DeliveryModeModule&#45;&gt;CheckoutComponentModule</title>
<path fill="none" stroke="black" d="M881,-122.11C881,-122.11 881,-140.99 881,-140.99"/>
<polygon fill="black" stroke="black" points="877.5,-140.99 881,-150.99 884.5,-140.99 877.5,-140.99"/>
</g>
<!-- PaymentMethodModule -->
<g id="node7" class="node">
<title>PaymentMethodModule</title>
<polygon fill="#8dd3c7" stroke="black" points="792.09,-122 789.09,-126 768.09,-126 765.09,-122 639.91,-122 639.91,-86 792.09,-86 792.09,-122"/>
<text text-anchor="middle" x="716" y="-99.8" font-family="Times,serif" font-size="14.00">PaymentMethodModule</text>
</g>
<!-- PaymentMethodModule&#45;&gt;CheckoutComponentModule -->
<g id="edge7" class="edge">
<title>PaymentMethodModule&#45;&gt;CheckoutComponentModule</title>
<path fill="none" stroke="black" d="M792.11,-104C797.71,-104 801.23,-104 801.23,-104 801.23,-104 801.23,-140.89 801.23,-140.89"/>
<polygon fill="black" stroke="black" points="797.73,-140.89 801.23,-150.89 804.73,-140.89 797.73,-140.89"/>
</g>
<!-- PlaceOrderModule -->
<g id="node8" class="node">
<title>PlaceOrderModule</title>
<polygon fill="#8dd3c7" stroke="black" points="622.01,-122 619.01,-126 598.01,-126 595.01,-122 499.99,-122 499.99,-86 622.01,-86 622.01,-122"/>
<text text-anchor="middle" x="561" y="-99.8" font-family="Times,serif" font-size="14.00">PlaceOrderModule</text>
</g>
<!-- PlaceOrderModule&#45;&gt;CheckoutComponentModule -->
<g id="edge8" class="edge">
<title>PlaceOrderModule&#45;&gt;CheckoutComponentModule</title>
<path fill="none" stroke="black" d="M561,-122.01C561,-138.05 561,-159 561,-159 561,-159 781.86,-159 781.86,-159"/>
<polygon fill="black" stroke="black" points="781.86,-162.5 791.86,-159 781.86,-155.5 781.86,-162.5"/>
</g>
<!-- PromotionsModule -->
<g id="node9" class="node">
<title>PromotionsModule</title>
<polygon fill="#8dd3c7" stroke="black" points="482.11,-122 479.11,-126 458.11,-126 455.11,-122 357.89,-122 357.89,-86 482.11,-86 482.11,-122"/>
<text text-anchor="middle" x="420" y="-99.8" font-family="Times,serif" font-size="14.00">PromotionsModule</text>
</g>
<!-- PromotionsModule&#45;&gt;CheckoutComponentModule -->
<g id="edge9" class="edge">
<title>PromotionsModule&#45;&gt;CheckoutComponentModule</title>
<path fill="none" stroke="black" d="M420,-122.27C420,-140.56 420,-166 420,-166 420,-166 781.84,-166 781.84,-166"/>
<polygon fill="black" stroke="black" points="781.84,-169.5 791.84,-166 781.84,-162.5 781.84,-169.5"/>
</g>
<!-- ReviewSubmitModule -->
<g id="node10" class="node">
<title>ReviewSubmitModule</title>
<polygon fill="#8dd3c7" stroke="black" points="340.27,-122 337.27,-126 316.27,-126 313.27,-122 197.73,-122 197.73,-86 340.27,-86 340.27,-122"/>
<text text-anchor="middle" x="269" y="-99.8" font-family="Times,serif" font-size="14.00">ReviewSubmitModule</text>
</g>
<!-- ReviewSubmitModule&#45;&gt;CheckoutComponentModule -->
<g id="edge10" class="edge">
<title>ReviewSubmitModule&#45;&gt;CheckoutComponentModule</title>
<path fill="none" stroke="black" d="M269,-122.13C269,-142.57 269,-173 269,-173 269,-173 781.68,-173 781.68,-173"/>
<polygon fill="black" stroke="black" points="781.68,-176.5 791.68,-173 781.68,-169.5 781.68,-176.5"/>
</g>
<!-- ShippingAddressModule -->
<g id="node11" class="node">
<title>ShippingAddressModule</title>
<polygon fill="#8dd3c7" stroke="black" points="179.98,-122 176.98,-126 155.98,-126 152.98,-122 24.02,-122 24.02,-86 179.98,-86 179.98,-122"/>
<text text-anchor="middle" x="102" y="-99.8" font-family="Times,serif" font-size="14.00">ShippingAddressModule</text>
</g>
<!-- ShippingAddressModule&#45;&gt;CheckoutComponentModule -->
<g id="edge11" class="edge">
<title>ShippingAddressModule&#45;&gt;CheckoutComponentModule</title>
<path fill="none" stroke="black" d="M102,-122.01C102,-144.49 102,-180 102,-180 102,-180 781.64,-180 781.64,-180"/>
<polygon fill="black" stroke="black" points="781.64,-183.5 791.64,-180 781.64,-176.5 781.64,-183.5"/>
</g>
</g>
</svg>
