<?xml version="1.0" encoding="UTF-8" standalone="no"?>
<!DOCTYPE svg PUBLIC "-//W3C//DTD SVG 1.1//EN"
 "http://www.w3.org/Graphics/SVG/1.1/DTD/svg11.dtd">
<!-- Generated by graphviz version 2.46.0 (20210119.1425)
 -->
<!-- Title: dependencies Pages: 1 -->
<svg width="2630pt" height="211pt"
 viewBox="0.00 0.00 2630.00 211.00" xmlns="http://www.w3.org/2000/svg" xmlns:xlink="http://www.w3.org/1999/xlink">
<g id="graph0" class="graph" transform="scale(1 1) rotate(0) translate(4 207)">
<title>dependencies</title>
<polygon fill="white" stroke="transparent" points="-4,4 -4,-207 2626,-207 2626,4 -4,4"/>
<text text-anchor="start" x="1290.01" y="-42.4" font-family="sans-serif" font-weight="bold" font-size="14.00">Legend</text>
<polygon fill="#ffffb3" stroke="transparent" points="1077,-10 1077,-30 1097,-30 1097,-10 1077,-10"/>
<text text-anchor="start" x="1100.63" y="-15.4" font-family="sans-serif" font-size="14.00"> &#160;Declarations</text>
<polygon fill="#8dd3c7" stroke="transparent" points="1190,-10 1190,-30 1210,-30 1210,-10 1190,-10"/>
<text text-anchor="start" x="1213.73" y="-15.4" font-family="sans-serif" font-size="14.00"> &#160;Module</text>
<polygon fill="#80b1d3" stroke="transparent" points="1276,-10 1276,-30 1296,-30 1296,-10 1276,-10"/>
<text text-anchor="start" x="1299.78" y="-15.4" font-family="sans-serif" font-size="14.00"> &#160;Bootstrap</text>
<polygon fill="#fdb462" stroke="transparent" points="1373,-10 1373,-30 1393,-30 1393,-10 1373,-10"/>
<text text-anchor="start" x="1396.67" y="-15.4" font-family="sans-serif" font-size="14.00"> &#160;Providers</text>
<polygon fill="#fb8072" stroke="transparent" points="1469,-10 1469,-30 1489,-30 1489,-10 1469,-10"/>
<text text-anchor="start" x="1492.73" y="-15.4" font-family="sans-serif" font-size="14.00"> &#160;Exports</text>
<g id="clust1" class="cluster">
<title>cluster_CheckoutComponentModule</title>
<polygon fill="none" stroke="black" stroke-dasharray="1,5" points="8,-70 8,-195 2614,-195 2614,-70 8,-70"/>
</g>
<g id="clust3" class="cluster">
<title>cluster_CheckoutComponentModule_imports</title>
<polygon fill="none" stroke="black" points="16,-78 16,-130 2606,-130 2606,-78 16,-78"/>
</g>
<!-- CheckoutOrchestratorModule -->
<g id="node1" class="node">
<title>CheckoutOrchestratorModule</title>
<polygon fill="#8dd3c7" stroke="black" points="2597.66,-122 2594.66,-126 2573.66,-126 2570.66,-122 2414.34,-122 2414.34,-86 2597.66,-86 2597.66,-122"/>
<text text-anchor="middle" x="2506" y="-99.8" font-family="Times,serif" font-size="14.00">CheckoutOrchestratorModule</text>
</g>
<!-- CheckoutComponentModule -->
<g id="node15" class="node">
<title>CheckoutComponentModule</title>
<polygon fill="#8dd3c7" stroke="black" points="1289.04,-187 1286.04,-191 1265.04,-191 1262.04,-187 1110.96,-187 1110.96,-151 1289.04,-151 1289.04,-187"/>
<text text-anchor="middle" x="1200" y="-164.8" font-family="Times,serif" font-size="14.00">CheckoutComponentModule</text>
</g>
<!-- CheckoutOrchestratorModule&#45;&gt;CheckoutComponentModule -->
<g id="edge1" class="edge">
<title>CheckoutOrchestratorModule&#45;&gt;CheckoutComponentModule</title>
<path fill="none" stroke="black" d="M2506,-122.09C2506,-145.13 2506,-182 2506,-182 2506,-182 1299.25,-182 1299.25,-182"/>
<polygon fill="black" stroke="black" points="1299.25,-178.5 1289.25,-182 1299.25,-185.5 1299.25,-178.5"/>
</g>
<!-- CheckoutOrderSummaryModule -->
<g id="node2" class="node">
<title>CheckoutOrderSummaryModule</title>
<polygon fill="#8dd3c7" stroke="black" points="2396.29,-122 2393.29,-126 2372.29,-126 2369.29,-122 2195.71,-122 2195.71,-86 2396.29,-86 2396.29,-122"/>
<text text-anchor="middle" x="2296" y="-99.8" font-family="Times,serif" font-size="14.00">CheckoutOrderSummaryModule</text>
</g>
<!-- CheckoutOrderSummaryModule&#45;&gt;CheckoutComponentModule -->
<g id="edge2" class="edge">
<title>CheckoutOrderSummaryModule&#45;&gt;CheckoutComponentModule</title>
<path fill="none" stroke="black" d="M2296,-122.04C2296,-143.66 2296,-177 2296,-177 2296,-177 1299.23,-177 1299.23,-177"/>
<polygon fill="black" stroke="black" points="1299.23,-173.5 1289.23,-177 1299.23,-180.5 1299.23,-173.5"/>
</g>
<!-- CheckoutProgressMobileBottomModule -->
<g id="node3" class="node">
<title>CheckoutProgressMobileBottomModule</title>
<polygon fill="#8dd3c7" stroke="black" points="2177.86,-122 2174.86,-126 2153.86,-126 2150.86,-122 1934.14,-122 1934.14,-86 2177.86,-86 2177.86,-122"/>
<text text-anchor="middle" x="2056" y="-99.8" font-family="Times,serif" font-size="14.00">CheckoutProgressMobileBottomModule</text>
</g>
<!-- CheckoutProgressMobileBottomModule&#45;&gt;CheckoutComponentModule -->
<g id="edge3" class="edge">
<title>CheckoutProgressMobileBottomModule&#45;&gt;CheckoutComponentModule</title>
<path fill="none" stroke="black" d="M2056,-122.22C2056,-142.37 2056,-172 2056,-172 2056,-172 1299.18,-172 1299.18,-172"/>
<polygon fill="black" stroke="black" points="1299.18,-168.5 1289.18,-172 1299.18,-175.5 1299.18,-168.5"/>
</g>
<!-- CheckoutProgressMobileTopModule -->
<g id="node4" class="node">
<title>CheckoutProgressMobileTopModule</title>
<polygon fill="#8dd3c7" stroke="black" points="1916.41,-122 1913.41,-126 1892.41,-126 1889.41,-122 1691.59,-122 1691.59,-86 1916.41,-86 1916.41,-122"/>
<text text-anchor="middle" x="1804" y="-99.8" font-family="Times,serif" font-size="14.00">CheckoutProgressMobileTopModule</text>
</g>
<!-- CheckoutProgressMobileTopModule&#45;&gt;CheckoutComponentModule -->
<g id="edge4" class="edge">
<title>CheckoutProgressMobileTopModule&#45;&gt;CheckoutComponentModule</title>
<path fill="none" stroke="black" d="M1804,-122.22C1804,-140.83 1804,-167 1804,-167 1804,-167 1299.12,-167 1299.12,-167"/>
<polygon fill="black" stroke="black" points="1299.12,-163.5 1289.12,-167 1299.12,-170.5 1299.12,-163.5"/>
</g>
<!-- CheckoutProgressModule -->
<g id="node5" class="node">
<title>CheckoutProgressModule</title>
<polygon fill="#8dd3c7" stroke="black" points="1673.91,-122 1670.91,-126 1649.91,-126 1646.91,-122 1512.09,-122 1512.09,-86 1673.91,-86 1673.91,-122"/>
<text text-anchor="middle" x="1593" y="-99.8" font-family="Times,serif" font-size="14.00">CheckoutProgressModule</text>
</g>
<!-- CheckoutProgressModule&#45;&gt;CheckoutComponentModule -->
<g id="edge5" class="edge">
<title>CheckoutProgressModule&#45;&gt;CheckoutComponentModule</title>
<path fill="none" stroke="black" d="M1593,-122.03C1593,-139.06 1593,-162 1593,-162 1593,-162 1299.18,-162 1299.18,-162"/>
<polygon fill="black" stroke="black" points="1299.18,-158.5 1289.18,-162 1299.18,-165.5 1299.18,-158.5"/>
</g>
<!-- CostCenterModule -->
<g id="node6" class="node">
<title>CostCenterModule</title>
<polygon fill="#8dd3c7" stroke="black" points="1494.04,-122 1491.04,-126 1470.04,-126 1467.04,-122 1371.96,-122 1371.96,-86 1494.04,-86 1494.04,-122"/>
<text text-anchor="middle" x="1433" y="-99.8" font-family="Times,serif" font-size="14.00">CostCenterModule</text>
</g>
<!-- CostCenterModule&#45;&gt;CheckoutComponentModule -->
<g id="edge6" class="edge">
<title>CostCenterModule&#45;&gt;CheckoutComponentModule</title>
<path fill="none" stroke="black" d="M1433,-122.24C1433,-137.57 1433,-157 1433,-157 1433,-157 1299.08,-157 1299.08,-157"/>
<polygon fill="black" stroke="black" points="1299.08,-153.5 1289.08,-157 1299.08,-160.5 1299.08,-153.5"/>
</g>
<!-- DeliveryModeModule -->
<g id="node7" class="node">
<title>DeliveryModeModule</title>
<polygon fill="#8dd3c7" stroke="black" points="1353.69,-122 1350.69,-126 1329.69,-126 1326.69,-122 1212.31,-122 1212.31,-86 1353.69,-86 1353.69,-122"/>
<text text-anchor="middle" x="1283" y="-99.8" font-family="Times,serif" font-size="14.00">DeliveryModeModule</text>
</g>
<!-- DeliveryModeModule&#45;&gt;CheckoutComponentModule -->
<g id="edge7" class="edge">
<title>DeliveryModeModule&#45;&gt;CheckoutComponentModule</title>
<path fill="none" stroke="black" d="M1250.84,-122.11C1250.84,-122.11 1250.84,-140.99 1250.84,-140.99"/>
<polygon fill="black" stroke="black" points="1247.34,-140.99 1250.84,-150.99 1254.34,-140.99 1247.34,-140.99"/>
</g>
<!-- PaymentMethodModule -->
<g id="node8" class="node">
<title>PaymentMethodModule</title>
<polygon fill="#8dd3c7" stroke="black" points="1194.09,-122 1191.09,-126 1170.09,-126 1167.09,-122 1041.91,-122 1041.91,-86 1194.09,-86 1194.09,-122"/>
<text text-anchor="middle" x="1118" y="-99.8" font-family="Times,serif" font-size="14.00">PaymentMethodModule</text>
</g>
<!-- PaymentMethodModule&#45;&gt;CheckoutComponentModule -->
<g id="edge8" class="edge">
<title>PaymentMethodModule&#45;&gt;CheckoutComponentModule</title>
<path fill="none" stroke="black" d="M1152.39,-122.11C1152.39,-122.11 1152.39,-140.99 1152.39,-140.99"/>
<polygon fill="black" stroke="black" points="1148.89,-140.99 1152.39,-150.99 1155.89,-140.99 1148.89,-140.99"/>
</g>
<!-- PaymentTypeModule -->
<g id="node9" class="node">
<title>PaymentTypeModule</title>
<polygon fill="#8dd3c7" stroke="black" points="1023.81,-122 1020.81,-126 999.81,-126 996.81,-122 886.19,-122 886.19,-86 1023.81,-86 1023.81,-122"/>
<text text-anchor="middle" x="955" y="-99.8" font-family="Times,serif" font-size="14.00">PaymentTypeModule</text>
</g>
<!-- PaymentTypeModule&#45;&gt;CheckoutComponentModule -->
<g id="edge9" class="edge">
<title>PaymentTypeModule&#45;&gt;CheckoutComponentModule</title>
<path fill="none" stroke="black" d="M955,-122.24C955,-137.57 955,-157 955,-157 955,-157 1100.86,-157 1100.86,-157"/>
<polygon fill="black" stroke="black" points="1100.86,-160.5 1110.86,-157 1100.86,-153.5 1100.86,-160.5"/>
</g>
<!-- PlaceOrderModule -->
<g id="node10" class="node">
<title>PlaceOrderModule</title>
<polygon fill="#8dd3c7" stroke="black" points="868.01,-122 865.01,-126 844.01,-126 841.01,-122 745.99,-122 745.99,-86 868.01,-86 868.01,-122"/>
<text text-anchor="middle" x="807" y="-99.8" font-family="Times,serif" font-size="14.00">PlaceOrderModule</text>
</g>
<!-- PlaceOrderModule&#45;&gt;CheckoutComponentModule -->
<g id="edge10" class="edge">
<title>PlaceOrderModule&#45;&gt;CheckoutComponentModule</title>
<path fill="none" stroke="black" d="M807,-122.03C807,-139.06 807,-162 807,-162 807,-162 1100.82,-162 1100.82,-162"/>
<polygon fill="black" stroke="black" points="1100.82,-165.5 1110.82,-162 1100.82,-158.5 1100.82,-165.5"/>
</g>
<!-- PromotionsModule -->
<g id="node11" class="node">
<title>PromotionsModule</title>
<polygon fill="#8dd3c7" stroke="black" points="728.11,-122 725.11,-126 704.11,-126 701.11,-122 603.89,-122 603.89,-86 728.11,-86 728.11,-122"/>
<text text-anchor="middle" x="666" y="-99.8" font-family="Times,serif" font-size="14.00">PromotionsModule</text>
</g>
<!-- PromotionsModule&#45;&gt;CheckoutComponentModule -->
<g id="edge11" class="edge">
<title>PromotionsModule&#45;&gt;CheckoutComponentModule</title>
<path fill="none" stroke="black" d="M666,-122.22C666,-140.83 666,-167 666,-167 666,-167 1100.92,-167 1100.92,-167"/>
<polygon fill="black" stroke="black" points="1100.92,-170.5 1110.92,-167 1100.92,-163.5 1100.92,-170.5"/>
</g>
<!-- ReviewSubmitModule -->
<g id="node12" class="node">
<title>ReviewSubmitModule</title>
<polygon fill="#8dd3c7" stroke="black" points="586.27,-122 583.27,-126 562.27,-126 559.27,-122 443.73,-122 443.73,-86 586.27,-86 586.27,-122"/>
<text text-anchor="middle" x="515" y="-99.8" font-family="Times,serif" font-size="14.00">ReviewSubmitModule</text>
</g>
<!-- ReviewSubmitModule&#45;&gt;CheckoutComponentModule -->
<g id="edge12" class="edge">
<title>ReviewSubmitModule&#45;&gt;CheckoutComponentModule</title>
<path fill="none" stroke="black" d="M515,-122.22C515,-142.37 515,-172 515,-172 515,-172 1100.8,-172 1100.8,-172"/>
<polygon fill="black" stroke="black" points="1100.8,-175.5 1110.8,-172 1100.8,-168.5 1100.8,-175.5"/>
</g>
<!-- ScheduleReplenishmentOrderModule -->
<g id="node13" class="node">
<title>ScheduleReplenishmentOrderModule</title>
<polygon fill="#8dd3c7" stroke="black" points="426,-122 423,-126 402,-126 399,-122 198,-122 198,-86 426,-86 426,-122"/>
<text text-anchor="middle" x="312" y="-99.8" font-family="Times,serif" font-size="14.00">ScheduleReplenishmentOrderModule</text>
</g>
<!-- ScheduleReplenishmentOrderModule&#45;&gt;CheckoutComponentModule -->
<g id="edge13" class="edge">
<title>ScheduleReplenishmentOrderModule&#45;&gt;CheckoutComponentModule</title>
<path fill="none" stroke="black" d="M312,-122.04C312,-143.66 312,-177 312,-177 312,-177 1100.79,-177 1100.79,-177"/>
<polygon fill="black" stroke="black" points="1100.79,-180.5 1110.79,-177 1100.79,-173.5 1100.79,-180.5"/>
</g>
<!-- ShippingAddressModule -->
<g id="node14" class="node">
<title>ShippingAddressModule</title>
<polygon fill="#8dd3c7" stroke="black" points="179.98,-122 176.98,-126 155.98,-126 152.98,-122 24.02,-122 24.02,-86 179.98,-86 179.98,-122"/>
<text text-anchor="middle" x="102" y="-99.8" font-family="Times,serif" font-size="14.00">ShippingAddressModule</text>
</g>
<!-- ShippingAddressModule&#45;&gt;CheckoutComponentModule -->
<g id="edge14" class="edge">
<title>ShippingAddressModule&#45;&gt;CheckoutComponentModule</title>
<path fill="none" stroke="black" d="M102,-122.09C102,-145.13 102,-182 102,-182 102,-182 1100.61,-182 1100.61,-182"/>
<polygon fill="black" stroke="black" points="1100.61,-185.5 1110.61,-182 1100.61,-178.5 1100.61,-185.5"/>
</g>
</g>
</svg>
