<?xml version="1.0" encoding="UTF-8" standalone="no"?>
<!DOCTYPE svg PUBLIC "-//W3C//DTD SVG 1.1//EN"
 "http://www.w3.org/Graphics/SVG/1.1/DTD/svg11.dtd">
<!-- Generated by graphviz version 2.47.3 (20210619.1520)
 -->
<!-- Title: dependencies Pages: 1 -->
<svg width="2630pt" height="174pt"
 viewBox="0.00 0.00 2630.00 173.80" xmlns="http://www.w3.org/2000/svg" xmlns:xlink="http://www.w3.org/1999/xlink">
<g id="graph0" class="graph" transform="scale(1 1) rotate(0) translate(4 169.8)">
<title>dependencies</title>
<polygon fill="white" stroke="transparent" points="-4,4 -4,-169.8 2626,-169.8 2626,4 -4,4"/>
<text text-anchor="middle" x="1311" y="-8.2" font-family="sans-serif" font-size="14.00">dependencies</text>
<g id="clust1" class="cluster">
<title>cluster_CheckoutComponentModule</title>
<polygon fill="none" stroke="black" stroke-dasharray="1,5" points="8,-32.8 8,-157.8 2614,-157.8 2614,-32.8 8,-32.8"/>
</g>
<g id="clust3" class="cluster">
<title>cluster_CheckoutComponentModule_imports</title>
<polygon fill="none" stroke="black" points="16,-40.8 16,-92.8 2606,-92.8 2606,-40.8 16,-40.8"/>
</g>
<!-- CheckoutOrchestratorModule -->
<g id="node1" class="node">
<title>CheckoutOrchestratorModule</title>
<polygon fill="#8dd3c7" stroke="black" points="2597.66,-84.8 2594.66,-88.8 2573.66,-88.8 2570.66,-84.8 2414.34,-84.8 2414.34,-48.8 2597.66,-48.8 2597.66,-84.8"/>
<text text-anchor="middle" x="2506" y="-62.6" font-family="Times,serif" font-size="14.00">CheckoutOrchestratorModule</text>
</g>
<!-- CheckoutComponentModule -->
<g id="node15" class="node">
<title>CheckoutComponentModule</title>
<polygon fill="#8dd3c7" stroke="black" points="1289.04,-149.8 1286.04,-153.8 1265.04,-153.8 1262.04,-149.8 1110.96,-149.8 1110.96,-113.8 1289.04,-113.8 1289.04,-149.8"/>
<text text-anchor="middle" x="1200" y="-127.6" font-family="Times,serif" font-size="14.00">CheckoutComponentModule</text>
</g>
<!-- CheckoutOrchestratorModule&#45;&gt;CheckoutComponentModule -->
<g id="edge1" class="edge">
<title>CheckoutOrchestratorModule&#45;&gt;CheckoutComponentModule</title>
<path fill="none" stroke="black" d="M2506,-84.89C2506,-107.93 2506,-144.8 2506,-144.8 2506,-144.8 1299.25,-144.8 1299.25,-144.8"/>
<polygon fill="black" stroke="black" points="1299.25,-141.3 1289.25,-144.8 1299.25,-148.3 1299.25,-141.3"/>
</g>
<!-- CheckoutOrderSummaryModule -->
<g id="node2" class="node">
<title>CheckoutOrderSummaryModule</title>
<polygon fill="#8dd3c7" stroke="black" points="2396.29,-84.8 2393.29,-88.8 2372.29,-88.8 2369.29,-84.8 2195.71,-84.8 2195.71,-48.8 2396.29,-48.8 2396.29,-84.8"/>
<text text-anchor="middle" x="2296" y="-62.6" font-family="Times,serif" font-size="14.00">CheckoutOrderSummaryModule</text>
</g>
<!-- CheckoutOrderSummaryModule&#45;&gt;CheckoutComponentModule -->
<g id="edge2" class="edge">
<title>CheckoutOrderSummaryModule&#45;&gt;CheckoutComponentModule</title>
<path fill="none" stroke="black" d="M2296,-84.84C2296,-106.46 2296,-139.8 2296,-139.8 2296,-139.8 1299.23,-139.8 1299.23,-139.8"/>
<polygon fill="black" stroke="black" points="1299.23,-136.3 1289.23,-139.8 1299.23,-143.3 1299.23,-136.3"/>
</g>
<!-- CheckoutProgressMobileBottomModule -->
<g id="node3" class="node">
<title>CheckoutProgressMobileBottomModule</title>
<polygon fill="#8dd3c7" stroke="black" points="2177.86,-84.8 2174.86,-88.8 2153.86,-88.8 2150.86,-84.8 1934.14,-84.8 1934.14,-48.8 2177.86,-48.8 2177.86,-84.8"/>
<text text-anchor="middle" x="2056" y="-62.6" font-family="Times,serif" font-size="14.00">CheckoutProgressMobileBottomModule</text>
</g>
<!-- CheckoutProgressMobileBottomModule&#45;&gt;CheckoutComponentModule -->
<g id="edge3" class="edge">
<title>CheckoutProgressMobileBottomModule&#45;&gt;CheckoutComponentModule</title>
<path fill="none" stroke="black" d="M2056,-85.02C2056,-105.17 2056,-134.8 2056,-134.8 2056,-134.8 1299.18,-134.8 1299.18,-134.8"/>
<polygon fill="black" stroke="black" points="1299.18,-131.3 1289.18,-134.8 1299.18,-138.3 1299.18,-131.3"/>
</g>
<!-- CheckoutProgressMobileTopModule -->
<g id="node4" class="node">
<title>CheckoutProgressMobileTopModule</title>
<polygon fill="#8dd3c7" stroke="black" points="1916.41,-84.8 1913.41,-88.8 1892.41,-88.8 1889.41,-84.8 1691.59,-84.8 1691.59,-48.8 1916.41,-48.8 1916.41,-84.8"/>
<text text-anchor="middle" x="1804" y="-62.6" font-family="Times,serif" font-size="14.00">CheckoutProgressMobileTopModule</text>
</g>
<!-- CheckoutProgressMobileTopModule&#45;&gt;CheckoutComponentModule -->
<g id="edge4" class="edge">
<title>CheckoutProgressMobileTopModule&#45;&gt;CheckoutComponentModule</title>
<path fill="none" stroke="black" d="M1804,-85.02C1804,-103.63 1804,-129.8 1804,-129.8 1804,-129.8 1299.12,-129.8 1299.12,-129.8"/>
<polygon fill="black" stroke="black" points="1299.12,-126.3 1289.12,-129.8 1299.12,-133.3 1299.12,-126.3"/>
</g>
<!-- CheckoutProgressModule -->
<g id="node5" class="node">
<title>CheckoutProgressModule</title>
<polygon fill="#8dd3c7" stroke="black" points="1673.91,-84.8 1670.91,-88.8 1649.91,-88.8 1646.91,-84.8 1512.09,-84.8 1512.09,-48.8 1673.91,-48.8 1673.91,-84.8"/>
<text text-anchor="middle" x="1593" y="-62.6" font-family="Times,serif" font-size="14.00">CheckoutProgressModule</text>
</g>
<!-- CheckoutProgressModule&#45;&gt;CheckoutComponentModule -->
<g id="edge5" class="edge">
<title>CheckoutProgressModule&#45;&gt;CheckoutComponentModule</title>
<path fill="none" stroke="black" d="M1593,-84.83C1593,-101.86 1593,-124.8 1593,-124.8 1593,-124.8 1299.18,-124.8 1299.18,-124.8"/>
<polygon fill="black" stroke="black" points="1299.18,-121.3 1289.18,-124.8 1299.18,-128.3 1299.18,-121.3"/>
</g>
<!-- CostCenterModule -->
<g id="node6" class="node">
<title>CostCenterModule</title>
<polygon fill="#8dd3c7" stroke="black" points="1494.04,-84.8 1491.04,-88.8 1470.04,-88.8 1467.04,-84.8 1371.96,-84.8 1371.96,-48.8 1494.04,-48.8 1494.04,-84.8"/>
<text text-anchor="middle" x="1433" y="-62.6" font-family="Times,serif" font-size="14.00">CostCenterModule</text>
</g>
<!-- CostCenterModule&#45;&gt;CheckoutComponentModule -->
<g id="edge6" class="edge">
<title>CostCenterModule&#45;&gt;CheckoutComponentModule</title>
<path fill="none" stroke="black" d="M1433,-85.04C1433,-100.37 1433,-119.8 1433,-119.8 1433,-119.8 1299.08,-119.8 1299.08,-119.8"/>
<polygon fill="black" stroke="black" points="1299.08,-116.3 1289.08,-119.8 1299.08,-123.3 1299.08,-116.3"/>
</g>
<!-- DeliveryModeModule -->
<g id="node7" class="node">
<title>DeliveryModeModule</title>
<polygon fill="#8dd3c7" stroke="black" points="1353.69,-84.8 1350.69,-88.8 1329.69,-88.8 1326.69,-84.8 1212.31,-84.8 1212.31,-48.8 1353.69,-48.8 1353.69,-84.8"/>
<text text-anchor="middle" x="1283" y="-62.6" font-family="Times,serif" font-size="14.00">DeliveryModeModule</text>
</g>
<!-- DeliveryModeModule&#45;&gt;CheckoutComponentModule -->
<g id="edge7" class="edge">
<title>DeliveryModeModule&#45;&gt;CheckoutComponentModule</title>
<path fill="none" stroke="black" d="M1250.84,-84.91C1250.84,-84.91 1250.84,-103.79 1250.84,-103.79"/>
<polygon fill="black" stroke="black" points="1247.34,-103.79 1250.84,-113.79 1254.34,-103.79 1247.34,-103.79"/>
</g>
<!-- PaymentMethodModule -->
<g id="node8" class="node">
<title>PaymentMethodModule</title>
<polygon fill="#8dd3c7" stroke="black" points="1194.09,-84.8 1191.09,-88.8 1170.09,-88.8 1167.09,-84.8 1041.91,-84.8 1041.91,-48.8 1194.09,-48.8 1194.09,-84.8"/>
<text text-anchor="middle" x="1118" y="-62.6" font-family="Times,serif" font-size="14.00">PaymentMethodModule</text>
</g>
<!-- PaymentMethodModule&#45;&gt;CheckoutComponentModule -->
<g id="edge8" class="edge">
<title>PaymentMethodModule&#45;&gt;CheckoutComponentModule</title>
<path fill="none" stroke="black" d="M1152.39,-84.91C1152.39,-84.91 1152.39,-103.79 1152.39,-103.79"/>
<polygon fill="black" stroke="black" points="1148.89,-103.79 1152.39,-113.79 1155.89,-103.79 1148.89,-103.79"/>
</g>
<!-- PaymentTypeModule -->
<g id="node9" class="node">
<title>PaymentTypeModule</title>
<polygon fill="#8dd3c7" stroke="black" points="1023.81,-84.8 1020.81,-88.8 999.81,-88.8 996.81,-84.8 886.19,-84.8 886.19,-48.8 1023.81,-48.8 1023.81,-84.8"/>
<text text-anchor="middle" x="955" y="-62.6" font-family="Times,serif" font-size="14.00">PaymentTypeModule</text>
</g>
<!-- PaymentTypeModule&#45;&gt;CheckoutComponentModule -->
<g id="edge9" class="edge">
<title>PaymentTypeModule&#45;&gt;CheckoutComponentModule</title>
<path fill="none" stroke="black" d="M955,-85.04C955,-100.37 955,-119.8 955,-119.8 955,-119.8 1100.86,-119.8 1100.86,-119.8"/>
<polygon fill="black" stroke="black" points="1100.86,-123.3 1110.86,-119.8 1100.86,-116.3 1100.86,-123.3"/>
</g>
<!-- PlaceOrderModule -->
<g id="node10" class="node">
<title>PlaceOrderModule</title>
<polygon fill="#8dd3c7" stroke="black" points="868.01,-84.8 865.01,-88.8 844.01,-88.8 841.01,-84.8 745.99,-84.8 745.99,-48.8 868.01,-48.8 868.01,-84.8"/>
<text text-anchor="middle" x="807" y="-62.6" font-family="Times,serif" font-size="14.00">PlaceOrderModule</text>
</g>
<!-- PlaceOrderModule&#45;&gt;CheckoutComponentModule -->
<g id="edge10" class="edge">
<title>PlaceOrderModule&#45;&gt;CheckoutComponentModule</title>
<path fill="none" stroke="black" d="M807,-84.83C807,-101.86 807,-124.8 807,-124.8 807,-124.8 1100.82,-124.8 1100.82,-124.8"/>
<polygon fill="black" stroke="black" points="1100.82,-128.3 1110.82,-124.8 1100.82,-121.3 1100.82,-128.3"/>
</g>
<!-- PromotionsModule -->
<g id="node11" class="node">
<title>PromotionsModule</title>
<polygon fill="#8dd3c7" stroke="black" points="728.11,-84.8 725.11,-88.8 704.11,-88.8 701.11,-84.8 603.89,-84.8 603.89,-48.8 728.11,-48.8 728.11,-84.8"/>
<text text-anchor="middle" x="666" y="-62.6" font-family="Times,serif" font-size="14.00">PromotionsModule</text>
</g>
<!-- PromotionsModule&#45;&gt;CheckoutComponentModule -->
<g id="edge11" class="edge">
<title>PromotionsModule&#45;&gt;CheckoutComponentModule</title>
<path fill="none" stroke="black" d="M666,-85.02C666,-103.63 666,-129.8 666,-129.8 666,-129.8 1100.92,-129.8 1100.92,-129.8"/>
<polygon fill="black" stroke="black" points="1100.92,-133.3 1110.92,-129.8 1100.92,-126.3 1100.92,-133.3"/>
</g>
<!-- ReviewSubmitModule -->
<g id="node12" class="node">
<title>ReviewSubmitModule</title>
<polygon fill="#8dd3c7" stroke="black" points="586.27,-84.8 583.27,-88.8 562.27,-88.8 559.27,-84.8 443.73,-84.8 443.73,-48.8 586.27,-48.8 586.27,-84.8"/>
<text text-anchor="middle" x="515" y="-62.6" font-family="Times,serif" font-size="14.00">ReviewSubmitModule</text>
</g>
<!-- ReviewSubmitModule&#45;&gt;CheckoutComponentModule -->
<g id="edge12" class="edge">
<title>ReviewSubmitModule&#45;&gt;CheckoutComponentModule</title>
<path fill="none" stroke="black" d="M515,-85.02C515,-105.17 515,-134.8 515,-134.8 515,-134.8 1100.8,-134.8 1100.8,-134.8"/>
<polygon fill="black" stroke="black" points="1100.8,-138.3 1110.8,-134.8 1100.8,-131.3 1100.8,-138.3"/>
</g>
<!-- ScheduleReplenishmentOrderModule -->
<g id="node13" class="node">
<title>ScheduleReplenishmentOrderModule</title>
<polygon fill="#8dd3c7" stroke="black" points="426,-84.8 423,-88.8 402,-88.8 399,-84.8 198,-84.8 198,-48.8 426,-48.8 426,-84.8"/>
<text text-anchor="middle" x="312" y="-62.6" font-family="Times,serif" font-size="14.00">ScheduleReplenishmentOrderModule</text>
</g>
<!-- ScheduleReplenishmentOrderModule&#45;&gt;CheckoutComponentModule -->
<g id="edge13" class="edge">
<title>ScheduleReplenishmentOrderModule&#45;&gt;CheckoutComponentModule</title>
<path fill="none" stroke="black" d="M312,-84.84C312,-106.46 312,-139.8 312,-139.8 312,-139.8 1100.79,-139.8 1100.79,-139.8"/>
<polygon fill="black" stroke="black" points="1100.79,-143.3 1110.79,-139.8 1100.79,-136.3 1100.79,-143.3"/>
</g>
<!-- ShippingAddressModule -->
<g id="node14" class="node">
<title>ShippingAddressModule</title>
<polygon fill="#8dd3c7" stroke="black" points="179.98,-84.8 176.98,-88.8 155.98,-88.8 152.98,-84.8 24.02,-84.8 24.02,-48.8 179.98,-48.8 179.98,-84.8"/>
<text text-anchor="middle" x="102" y="-62.6" font-family="Times,serif" font-size="14.00">ShippingAddressModule</text>
</g>
<!-- ShippingAddressModule&#45;&gt;CheckoutComponentModule -->
<g id="edge14" class="edge">
<title>ShippingAddressModule&#45;&gt;CheckoutComponentModule</title>
<path fill="none" stroke="black" d="M102,-84.89C102,-107.93 102,-144.8 102,-144.8 102,-144.8 1100.61,-144.8 1100.61,-144.8"/>
<polygon fill="black" stroke="black" points="1100.61,-148.3 1110.61,-144.8 1100.61,-141.3 1100.61,-148.3"/>
</g>
</g>
</svg>
