<?xml version="1.0" encoding="UTF-8" standalone="no"?>
<!DOCTYPE svg PUBLIC "-//W3C//DTD SVG 1.1//EN"
 "http://www.w3.org/Graphics/SVG/1.1/DTD/svg11.dtd">
<!-- Generated by graphviz version 2.40.1 (20161225.0304)
 -->
<!-- Title: dependencies Pages: 1 -->
<svg width="504pt" height="211pt"
 viewBox="0.00 0.00 504.00 211.00" xmlns="http://www.w3.org/2000/svg" xmlns:xlink="http://www.w3.org/1999/xlink">
<g id="graph0" class="graph" transform="scale(1 1) rotate(0) translate(4 207)">
<title>dependencies</title>
<polygon fill="#ffffff" stroke="transparent" points="-4,4 -4,-207 500,-207 500,4 -4,4"/>
<text text-anchor="start" x="227.0091" y="-42.4" font-family="sans-serif" font-weight="bold" font-size="14.00" fill="#000000">Legend</text>
<polygon fill="#ffffb3" stroke="transparent" points="14,-10 14,-30 34,-30 34,-10 14,-10"/>
<text text-anchor="start" x="37.629" y="-15.4" font-family="sans-serif" font-size="14.00" fill="#000000"> &#160;Declarations</text>
<polygon fill="#8dd3c7" stroke="transparent" points="127,-10 127,-30 147,-30 147,-10 127,-10"/>
<text text-anchor="start" x="150.7251" y="-15.4" font-family="sans-serif" font-size="14.00" fill="#000000"> &#160;Module</text>
<polygon fill="#80b1d3" stroke="transparent" points="213,-10 213,-30 233,-30 233,-10 213,-10"/>
<text text-anchor="start" x="236.7812" y="-15.4" font-family="sans-serif" font-size="14.00" fill="#000000"> &#160;Bootstrap</text>
<polygon fill="#fdb462" stroke="transparent" points="310,-10 310,-30 330,-30 330,-10 310,-10"/>
<text text-anchor="start" x="333.6732" y="-15.4" font-family="sans-serif" font-size="14.00" fill="#000000"> &#160;Providers</text>
<polygon fill="#fb8072" stroke="transparent" points="406,-10 406,-30 426,-30 426,-10 406,-10"/>
<text text-anchor="start" x="429.7258" y="-15.4" font-family="sans-serif" font-size="14.00" fill="#000000"> &#160;Exports</text>
<g id="clust1" class="cluster">
<title>cluster_StoreFinderModule</title>
<polygon fill="none" stroke="#000000" stroke-dasharray="1,5" points="72.5,-70 72.5,-195 423.5,-195 423.5,-70 72.5,-70"/>
</g>
<g id="clust3" class="cluster">
<title>cluster_StoreFinderModule_imports</title>
<polygon fill="none" stroke="#000000" points="80.5,-78 80.5,-130 415.5,-130 415.5,-78 80.5,-78"/>
</g>
<!-- StoreFinderCoreModule -->
<g id="node1" class="node">
<title>StoreFinderCoreModule</title>
<polygon fill="#8dd3c7" stroke="#000000" points="407.8585,-122 404.8585,-126 383.8585,-126 380.8585,-122 255.1415,-122 255.1415,-86 407.8585,-86 407.8585,-122"/>
<text text-anchor="middle" x="331.5" y="-99.8" font-family="Times,serif" font-size="14.00" fill="#000000">StoreFinderCoreModule</text>
</g>
<!-- StoreFinderModule -->
<g id="node3" class="node">
<title>StoreFinderModule</title>
<polygon fill="#8dd3c7" stroke="#000000" points="309.1471,-187 306.1471,-191 285.1471,-191 282.1471,-187 183.8529,-187 183.8529,-151 309.1471,-151 309.1471,-187"/>
<text text-anchor="middle" x="246.5" y="-164.8" font-family="Times,serif" font-size="14.00" fill="#000000">StoreFinderModule</text>
</g>
<!-- StoreFinderCoreModule&#45;&gt;StoreFinderModule -->
<g id="edge1" class="edge">
<title>StoreFinderCoreModule&#45;&gt;StoreFinderModule</title>
<path fill="none" stroke="#000000" d="M282.1971,-122.1061C282.1971,-122.1061 282.1971,-140.991 282.1971,-140.991"/>
<polygon fill="#000000" stroke="#000000" points="278.6971,-140.9909 282.1971,-150.991 285.6971,-140.991 278.6971,-140.9909"/>
</g>
<!-- StoreFinderOccModule -->
<g id="node2" class="node">
<title>StoreFinderOccModule</title>
<polygon fill="#8dd3c7" stroke="#000000" points="236.6825,-122 233.6825,-126 212.6825,-126 209.6825,-122 88.3175,-122 88.3175,-86 236.6825,-86 236.6825,-122"/>
<text text-anchor="middle" x="162.5" y="-99.8" font-family="Times,serif" font-size="14.00" fill="#000000">StoreFinderOccModule</text>
</g>
<!-- StoreFinderOccModule&#45;&gt;StoreFinderModule -->
<g id="edge2" class="edge">
<title>StoreFinderOccModule&#45;&gt;StoreFinderModule</title>
<path fill="none" stroke="#000000" d="M210.134,-122.1061C210.134,-122.1061 210.134,-140.991 210.134,-140.991"/>
<polygon fill="#000000" stroke="#000000" points="206.634,-140.9909 210.134,-150.991 213.634,-140.991 206.634,-140.9909"/>
</g>
</g>
</svg>
