<?xml version="1.0" encoding="UTF-8" standalone="no"?>
<!DOCTYPE svg PUBLIC "-//W3C//DTD SVG 1.1//EN"
 "http://www.w3.org/Graphics/SVG/1.1/DTD/svg11.dtd">
<!-- Generated by graphviz version 2.47.3 (20210619.1520)
 -->
<!-- Title: dependencies Pages: 1 -->
<svg width="375pt" height="174pt"
 viewBox="0.00 0.00 375.00 173.80" xmlns="http://www.w3.org/2000/svg" xmlns:xlink="http://www.w3.org/1999/xlink">
<g id="graph0" class="graph" transform="scale(1 1) rotate(0) translate(4 169.8)">
<title>dependencies</title>
<polygon fill="white" stroke="transparent" points="-4,4 -4,-169.8 371,-169.8 371,4 -4,4"/>
<text text-anchor="middle" x="183.5" y="-8.2" font-family="sans-serif" font-size="14.00">dependencies</text>
<g id="clust1" class="cluster">
<title>cluster_StoreFinderModule</title>
<polygon fill="none" stroke="black" stroke-dasharray="1,5" points="8,-32.8 8,-157.8 359,-157.8 359,-32.8 8,-32.8"/>
</g>
<g id="clust3" class="cluster">
<title>cluster_StoreFinderModule_imports</title>
<polygon fill="none" stroke="black" points="16,-40.8 16,-92.8 351,-92.8 351,-40.8 16,-40.8"/>
</g>
<!-- StoreFinderCoreModule -->
<g id="node1" class="node">
<title>StoreFinderCoreModule</title>
<polygon fill="#8dd3c7" stroke="black" points="343.36,-84.8 340.36,-88.8 319.36,-88.8 316.36,-84.8 190.64,-84.8 190.64,-48.8 343.36,-48.8 343.36,-84.8"/>
<text text-anchor="middle" x="267" y="-62.6" font-family="Times,serif" font-size="14.00">StoreFinderCoreModule</text>
</g>
<!-- StoreFinderModule -->
<g id="node3" class="node">
<title>StoreFinderModule</title>
<polygon fill="#8dd3c7" stroke="black" points="244.65,-149.8 241.65,-153.8 220.65,-153.8 217.65,-149.8 119.35,-149.8 119.35,-113.8 244.65,-113.8 244.65,-149.8"/>
<text text-anchor="middle" x="182" y="-127.6" font-family="Times,serif" font-size="14.00">StoreFinderModule</text>
</g>
<!-- StoreFinderCoreModule&#45;&gt;StoreFinderModule -->
<g id="edge1" class="edge">
<title>StoreFinderCoreModule&#45;&gt;StoreFinderModule</title>
<path fill="none" stroke="black" d="M217.7,-84.91C217.7,-84.91 217.7,-103.79 217.7,-103.79"/>
<polygon fill="black" stroke="black" points="214.2,-103.79 217.7,-113.79 221.2,-103.79 214.2,-103.79"/>
</g>
<!-- StoreFinderOccModule -->
<g id="node2" class="node">
<title>StoreFinderOccModule</title>
<polygon fill="#8dd3c7" stroke="black" points="172.18,-84.8 169.18,-88.8 148.18,-88.8 145.18,-84.8 23.82,-84.8 23.82,-48.8 172.18,-48.8 172.18,-84.8"/>
<text text-anchor="middle" x="98" y="-62.6" font-family="Times,serif" font-size="14.00">StoreFinderOccModule</text>
</g>
<!-- StoreFinderOccModule&#45;&gt;StoreFinderModule -->
<g id="edge2" class="edge">
<title>StoreFinderOccModule&#45;&gt;StoreFinderModule</title>
<path fill="none" stroke="black" d="M145.63,-84.91C145.63,-84.91 145.63,-103.79 145.63,-103.79"/>
<polygon fill="black" stroke="black" points="142.13,-103.79 145.63,-113.79 149.13,-103.79 142.13,-103.79"/>
</g>
</g>
</svg>
