<?xml version="1.0" encoding="UTF-8" standalone="no"?>
<!DOCTYPE svg PUBLIC "-//W3C//DTD SVG 1.1//EN"
 "http://www.w3.org/Graphics/SVG/1.1/DTD/svg11.dtd">
<!-- Generated by graphviz version 2.40.1 (20161225.0304)
 -->
<!-- Title: dependencies Pages: 1 -->
<svg width="686pt" height="323pt"
 viewBox="0.00 0.00 686.00 322.59" xmlns="http://www.w3.org/2000/svg" xmlns:xlink="http://www.w3.org/1999/xlink">
<g id="graph0" class="graph" transform="scale(1 1) rotate(0) translate(4 318.5901)">
<title>dependencies</title>
<polygon fill="#ffffff" stroke="transparent" points="-4,4 -4,-318.5901 682,-318.5901 682,4 -4,4"/>
<text text-anchor="start" x="318.0091" y="-42.4" font-family="sans-serif" font-weight="bold" font-size="14.00" fill="#000000">Legend</text>
<polygon fill="#ffffb3" stroke="transparent" points="105,-10 105,-30 125,-30 125,-10 105,-10"/>
<text text-anchor="start" x="128.629" y="-15.4" font-family="sans-serif" font-size="14.00" fill="#000000"> &#160;Declarations</text>
<polygon fill="#8dd3c7" stroke="transparent" points="218,-10 218,-30 238,-30 238,-10 218,-10"/>
<text text-anchor="start" x="241.7251" y="-15.4" font-family="sans-serif" font-size="14.00" fill="#000000"> &#160;Module</text>
<polygon fill="#80b1d3" stroke="transparent" points="304,-10 304,-30 324,-30 324,-10 304,-10"/>
<text text-anchor="start" x="327.7812" y="-15.4" font-family="sans-serif" font-size="14.00" fill="#000000"> &#160;Bootstrap</text>
<polygon fill="#fdb462" stroke="transparent" points="401,-10 401,-30 421,-30 421,-10 401,-10"/>
<text text-anchor="start" x="424.6732" y="-15.4" font-family="sans-serif" font-size="14.00" fill="#000000"> &#160;Providers</text>
<polygon fill="#fb8072" stroke="transparent" points="497,-10 497,-30 517,-30 517,-10 497,-10"/>
<text text-anchor="start" x="520.7258" y="-15.4" font-family="sans-serif" font-size="14.00" fill="#000000"> &#160;Exports</text>
<g id="clust1" class="cluster">
<title>cluster_UserGroupFormModule</title>
<polygon fill="none" stroke="#000000" stroke-dasharray="1,5" points="8,-70 8,-306.5901 670,-306.5901 670,-70 8,-70"/>
</g>
<g id="clust2" class="cluster">
<title>cluster_UserGroupFormModule_declarations</title>
<polygon fill="none" stroke="#000000" points="472,-189.5901 472,-241.5901 662,-241.5901 662,-189.5901 472,-189.5901"/>
</g>
<g id="clust3" class="cluster">
<title>cluster_UserGroupFormModule_UserGroupFormComponent_providers</title>
<polygon fill="none" stroke="#000000" points="136,-78 136,-176.5901 662,-176.5901 662,-78 136,-78"/>
</g>
<g id="clust4" class="cluster">
<title>cluster_UserGroupFormModule_imports</title>
<polygon fill="none" stroke="#000000" points="16,-189.5901 16,-241.5901 464,-241.5901 464,-189.5901 16,-189.5901"/>
</g>
<!-- UserGroupFormComponent -->
<g id="node1" class="node">
<title>UserGroupFormComponent</title>
<polygon fill="#ffffb3" stroke="#000000" points="653.8599,-233.5901 480.1401,-233.5901 480.1401,-197.5901 653.8599,-197.5901 653.8599,-233.5901"/>
<text text-anchor="middle" x="567" y="-211.3901" font-family="Times,serif" font-size="14.00" fill="#000000">UserGroupFormComponent</text>
</g>
<!-- UserGroupFormModule -->
<g id="node2" class="node">
<title>UserGroupFormModule</title>
<polygon fill="#8dd3c7" stroke="#000000" points="345.0772,-298.5901 342.0772,-302.5901 321.0772,-302.5901 318.0772,-298.5901 192.9228,-298.5901 192.9228,-262.5901 345.0772,-262.5901 345.0772,-298.5901"/>
<text text-anchor="middle" x="269" y="-276.3901" font-family="Times,serif" font-size="14.00" fill="#000000">UserGroupFormModule</text>
</g>
<!-- UserGroupFormComponent&#45;&gt;UserGroupFormModule -->
<g id="edge1" class="edge">
<title>UserGroupFormComponent&#45;&gt;UserGroupFormModule</title>
<path fill="none" stroke="#000000" d="M567,-233.6962C567,-252.9292 567,-280.5901 567,-280.5901 567,-280.5901 355.3554,-280.5901 355.3554,-280.5901"/>
<polygon fill="#000000" stroke="#000000" points="355.3555,-277.0902 345.3554,-280.5901 355.3554,-284.0902 355.3555,-277.0902"/>
</g>
<!-- {
 &#160;&#160;&#160;provide: ItemService, useExisting: UserGroupItemService,
} -->
<g id="node3" class="node">
<title>{
 &#160;&#160;&#160;provide: ItemService, useExisting: UserGroupItemService,
}</title>
<ellipse fill="#fdb462" stroke="#000000" cx="399" cy="-127.295" rx="255.3004" ry="41.0911"/>
<text text-anchor="middle" x="399" y="-139.895" font-family="Times,serif" font-size="14.00" fill="#000000">{</text>
<text text-anchor="middle" x="399" y="-123.095" font-family="Times,serif" font-size="14.00" fill="#000000"> &#160;&#160;&#160;provide: ItemService, useExisting: UserGroupItemService,</text>
<text text-anchor="middle" x="399" y="-106.295" font-family="Times,serif" font-size="14.00" fill="#000000">}</text>
</g>
<!-- {
 &#160;&#160;&#160;provide: ItemService, useExisting: UserGroupItemService,
}&#45;&gt;UserGroupFormComponent -->
<g id="edge2" class="edge">
<title>{
 &#160;&#160;&#160;provide: ItemService, useExisting: UserGroupItemService,
}&#45;&gt;UserGroupFormComponent</title>
<path fill="none" stroke="#000000" d="M567,-158.6732C567,-158.6732 567,-187.4207 567,-187.4207"/>
<polygon fill="#000000" stroke="#000000" points="563.5001,-187.4207 567,-197.4207 570.5001,-187.4208 563.5001,-187.4207"/>
</g>
<!-- FormErrorsModule -->
<g id="node4" class="node">
<title>FormErrorsModule</title>
<polygon fill="#8dd3c7" stroke="#000000" points="456.3627,-233.5901 453.3627,-237.5901 432.3627,-237.5901 429.3627,-233.5901 331.6373,-233.5901 331.6373,-197.5901 456.3627,-197.5901 456.3627,-233.5901"/>
<text text-anchor="middle" x="394" y="-211.3901" font-family="Times,serif" font-size="14.00" fill="#000000">FormErrorsModule</text>
</g>
<!-- FormErrorsModule&#45;&gt;UserGroupFormModule -->
<g id="edge3" class="edge">
<title>FormErrorsModule&#45;&gt;UserGroupFormModule</title>
<path fill="none" stroke="#000000" d="M338.3037,-233.6962C338.3037,-233.6962 338.3037,-252.581 338.3037,-252.581"/>
<polygon fill="#000000" stroke="#000000" points="334.8037,-252.581 338.3037,-262.581 341.8037,-252.5811 334.8037,-252.581"/>
</g>
<!-- FormModule -->
<g id="node5" class="node">
<title>FormModule</title>
<polygon fill="#8dd3c7" stroke="#000000" points="313.8837,-233.5901 310.8837,-237.5901 289.8837,-237.5901 286.8837,-233.5901 224.1163,-233.5901 224.1163,-197.5901 313.8837,-197.5901 313.8837,-233.5901"/>
<text text-anchor="middle" x="269" y="-211.3901" font-family="Times,serif" font-size="14.00" fill="#000000">FormModule</text>
</g>
<!-- FormModule&#45;&gt;UserGroupFormModule -->
<g id="edge4" class="edge">
<title>FormModule&#45;&gt;UserGroupFormModule</title>
<path fill="none" stroke="#000000" d="M269,-233.6962C269,-233.6962 269,-252.581 269,-252.581"/>
<polygon fill="#000000" stroke="#000000" points="265.5001,-252.581 269,-262.581 272.5001,-252.5811 265.5001,-252.581"/>
</g>
<!-- I18nModule -->
<g id="node6" class="node">
<title>I18nModule</title>
<polygon fill="#8dd3c7" stroke="#000000" points="205.7107,-233.5901 202.7107,-237.5901 181.7107,-237.5901 178.7107,-233.5901 120.2893,-233.5901 120.2893,-197.5901 205.7107,-197.5901 205.7107,-233.5901"/>
<text text-anchor="middle" x="163" y="-211.3901" font-family="Times,serif" font-size="14.00" fill="#000000">I18nModule</text>
</g>
<!-- I18nModule&#45;&gt;UserGroupFormModule -->
<g id="edge5" class="edge">
<title>I18nModule&#45;&gt;UserGroupFormModule</title>
<path fill="none" stroke="#000000" d="M199.2833,-233.6962C199.2833,-233.6962 199.2833,-252.581 199.2833,-252.581"/>
<polygon fill="#000000" stroke="#000000" points="195.7834,-252.581 199.2833,-262.581 202.7834,-252.5811 195.7834,-252.581"/>
</g>
<!-- UrlModule -->
<g id="node7" class="node">
<title>UrlModule</title>
<polygon fill="#8dd3c7" stroke="#000000" points="102.2079,-233.5901 99.2079,-237.5901 78.2079,-237.5901 75.2079,-233.5901 23.7921,-233.5901 23.7921,-197.5901 102.2079,-197.5901 102.2079,-233.5901"/>
<text text-anchor="middle" x="63" y="-211.3901" font-family="Times,serif" font-size="14.00" fill="#000000">UrlModule</text>
</g>
<!-- UrlModule&#45;&gt;UserGroupFormModule -->
<g id="edge6" class="edge">
<title>UrlModule&#45;&gt;UserGroupFormModule</title>
<path fill="none" stroke="#000000" d="M63,-233.6962C63,-252.9292 63,-280.5901 63,-280.5901 63,-280.5901 182.8785,-280.5901 182.8785,-280.5901"/>
<polygon fill="#000000" stroke="#000000" points="182.8785,-284.0902 192.8785,-280.5901 182.8784,-277.0902 182.8785,-284.0902"/>
</g>
</g>
</svg>
