<?xml version="1.0" encoding="UTF-8" standalone="no"?>
<!DOCTYPE svg PUBLIC "-//W3C//DTD SVG 1.1//EN"
 "http://www.w3.org/Graphics/SVG/1.1/DTD/svg11.dtd">
<!-- Generated by graphviz version 2.47.0 (20210316.0004)
 -->
<!-- Title: dependencies Pages: 1 -->
<svg width="686pt" height="211pt"
 viewBox="0.00 0.00 686.00 211.00" xmlns="http://www.w3.org/2000/svg" xmlns:xlink="http://www.w3.org/1999/xlink">
<g id="graph0" class="graph" transform="scale(1 1) rotate(0) translate(4 207)">
<title>dependencies</title>
<polygon fill="white" stroke="transparent" points="-4,4 -4,-207 682,-207 682,4 -4,4"/>
<text text-anchor="start" x="318.01" y="-42.4" font-family="sans-serif" font-weight="bold" font-size="14.00">Legend</text>
<polygon fill="#ffffb3" stroke="transparent" points="105,-10 105,-30 125,-30 125,-10 105,-10"/>
<text text-anchor="start" x="128.63" y="-15.4" font-family="sans-serif" font-size="14.00"> &#160;Declarations</text>
<polygon fill="#8dd3c7" stroke="transparent" points="218,-10 218,-30 238,-30 238,-10 218,-10"/>
<text text-anchor="start" x="241.73" y="-15.4" font-family="sans-serif" font-size="14.00"> &#160;Module</text>
<polygon fill="#80b1d3" stroke="transparent" points="304,-10 304,-30 324,-30 324,-10 304,-10"/>
<text text-anchor="start" x="327.78" y="-15.4" font-family="sans-serif" font-size="14.00"> &#160;Bootstrap</text>
<polygon fill="#fdb462" stroke="transparent" points="401,-10 401,-30 421,-30 421,-10 401,-10"/>
<text text-anchor="start" x="424.67" y="-15.4" font-family="sans-serif" font-size="14.00"> &#160;Providers</text>
<polygon fill="#fb8072" stroke="transparent" points="497,-10 497,-30 517,-30 517,-10 497,-10"/>
<text text-anchor="start" x="520.73" y="-15.4" font-family="sans-serif" font-size="14.00"> &#160;Exports</text>
<g id="clust1" class="cluster">
<title>cluster_UserGroupFormModule</title>
<polygon fill="none" stroke="black" stroke-dasharray="1,5" points="8,-70 8,-195 670,-195 670,-70 8,-70"/>
</g>
<g id="clust4" class="cluster">
<title>cluster_UserGroupFormModule_imports</title>
<polygon fill="none" stroke="black" points="214,-78 214,-130 662,-130 662,-78 214,-78"/>
</g>
<g id="clust2" class="cluster">
<title>cluster_UserGroupFormModule_declarations</title>
<polygon fill="none" stroke="black" points="16,-78 16,-130 206,-130 206,-78 16,-78"/>
</g>
<!-- UserGroupFormComponent -->
<g id="node1" class="node">
<title>UserGroupFormComponent</title>
<polygon fill="#ffffb3" stroke="black" points="197.86,-122 24.14,-122 24.14,-86 197.86,-86 197.86,-122"/>
<text text-anchor="middle" x="111" y="-99.8" font-family="Times,serif" font-size="14.00">UserGroupFormComponent</text>
</g>
<!-- UserGroupFormModule -->
<g id="node2" class="node">
<title>UserGroupFormModule</title>
<polygon fill="#8dd3c7" stroke="black" points="437.08,-187 434.08,-191 413.08,-191 410.08,-187 284.92,-187 284.92,-151 437.08,-151 437.08,-187"/>
<text text-anchor="middle" x="361" y="-164.8" font-family="Times,serif" font-size="14.00">UserGroupFormModule</text>
</g>
<!-- UserGroupFormComponent&#45;&gt;UserGroupFormModule -->
<g id="edge1" class="edge">
<title>UserGroupFormComponent&#45;&gt;UserGroupFormModule</title>
<path fill="none" stroke="black" d="M111,-122.11C111,-141.34 111,-169 111,-169 111,-169 274.63,-169 274.63,-169"/>
<polygon fill="black" stroke="black" points="274.63,-172.5 284.63,-169 274.63,-165.5 274.63,-172.5"/>
</g>
<!-- FormErrorsModule -->
<g id="node3" class="node">
<title>FormErrorsModule</title>
<polygon fill="#8dd3c7" stroke="black" points="654.36,-122 651.36,-126 630.36,-126 627.36,-122 529.64,-122 529.64,-86 654.36,-86 654.36,-122"/>
<text text-anchor="middle" x="592" y="-99.8" font-family="Times,serif" font-size="14.00">FormErrorsModule</text>
</g>
<!-- FormErrorsModule&#45;&gt;UserGroupFormModule -->
<g id="edge2" class="edge">
<title>FormErrorsModule&#45;&gt;UserGroupFormModule</title>
<path fill="none" stroke="black" d="M592,-122.11C592,-141.34 592,-169 592,-169 592,-169 447.28,-169 447.28,-169"/>
<polygon fill="black" stroke="black" points="447.28,-165.5 437.28,-169 447.28,-172.5 447.28,-165.5"/>
</g>
<!-- FormModule -->
<g id="node4" class="node">
<title>FormModule</title>
<polygon fill="#8dd3c7" stroke="black" points="511.88,-122 508.88,-126 487.88,-126 484.88,-122 422.12,-122 422.12,-86 511.88,-86 511.88,-122"/>
<text text-anchor="middle" x="467" y="-99.8" font-family="Times,serif" font-size="14.00">FormModule</text>
</g>
<!-- FormModule&#45;&gt;UserGroupFormModule -->
<g id="edge3" class="edge">
<title>FormModule&#45;&gt;UserGroupFormModule</title>
<path fill="none" stroke="black" d="M429.55,-122.11C429.55,-122.11 429.55,-140.99 429.55,-140.99"/>
<polygon fill="black" stroke="black" points="426.05,-140.99 429.55,-150.99 433.05,-140.99 426.05,-140.99"/>
</g>
<!-- I18nModule -->
<g id="node5" class="node">
<title>I18nModule</title>
<polygon fill="#8dd3c7" stroke="black" points="403.71,-122 400.71,-126 379.71,-126 376.71,-122 318.29,-122 318.29,-86 403.71,-86 403.71,-122"/>
<text text-anchor="middle" x="361" y="-99.8" font-family="Times,serif" font-size="14.00">I18nModule</text>
</g>
<!-- I18nModule&#45;&gt;UserGroupFormModule -->
<g id="edge4" class="edge">
<title>I18nModule&#45;&gt;UserGroupFormModule</title>
<path fill="none" stroke="black" d="M361,-122.11C361,-122.11 361,-140.99 361,-140.99"/>
<polygon fill="black" stroke="black" points="357.5,-140.99 361,-150.99 364.5,-140.99 357.5,-140.99"/>
</g>
<!-- UrlModule -->
<g id="node6" class="node">
<title>UrlModule</title>
<polygon fill="#8dd3c7" stroke="black" points="300.21,-122 297.21,-126 276.21,-126 273.21,-122 221.79,-122 221.79,-86 300.21,-86 300.21,-122"/>
<text text-anchor="middle" x="261" y="-99.8" font-family="Times,serif" font-size="14.00">UrlModule</text>
</g>
<!-- UrlModule&#45;&gt;UserGroupFormModule -->
<g id="edge5" class="edge">
<title>UrlModule&#45;&gt;UserGroupFormModule</title>
<path fill="none" stroke="black" d="M292.53,-122.11C292.53,-122.11 292.53,-140.99 292.53,-140.99"/>
<polygon fill="black" stroke="black" points="289.03,-140.99 292.53,-150.99 296.03,-140.99 289.03,-140.99"/>
</g>
</g>
</svg>
