<?xml version="1.0" encoding="UTF-8" standalone="no"?>
<!DOCTYPE svg PUBLIC "-//W3C//DTD SVG 1.1//EN"
 "http://www.w3.org/Graphics/SVG/1.1/DTD/svg11.dtd">
<!-- Generated by graphviz version 2.47.3 (20210619.1520)
 -->
<!-- Title: dependencies Pages: 1 -->
<svg width="1022pt" height="285pt"
 viewBox="0.00 0.00 1022.00 285.39" xmlns="http://www.w3.org/2000/svg" xmlns:xlink="http://www.w3.org/1999/xlink">
<g id="graph0" class="graph" transform="scale(1 1) rotate(0) translate(4 281.39)">
<title>dependencies</title>
<polygon fill="white" stroke="transparent" points="-4,4 -4,-281.39 1018,-281.39 1018,4 -4,4"/>
<text text-anchor="middle" x="507" y="-8.2" font-family="sans-serif" font-size="14.00">dependencies</text>
<g id="clust1" class="cluster">
<title>cluster_UserGroupFormModule</title>
<polygon fill="none" stroke="black" stroke-dasharray="1,5" points="8,-32.8 8,-269.39 1006,-269.39 1006,-32.8 8,-32.8"/>
</g>
<g id="clust3" class="cluster">
<title>cluster_UserGroupFormModule_UserGroupFormComponent_providers</title>
<polygon fill="none" stroke="black" points="472,-40.8 472,-204.39 998,-204.39 998,-40.8 472,-40.8"/>
</g>
<g id="clust4" class="cluster">
<title>cluster_UserGroupFormModule_imports</title>
<polygon fill="none" stroke="black" points="16,-152.39 16,-204.39 464,-204.39 464,-152.39 16,-152.39"/>
</g>
<!-- UserGroupFormComponent -->
<g id="node1" class="node">
<title>UserGroupFormComponent</title>
<polygon fill="#ffffb3" stroke="black" points="737.86,-196.39 564.14,-196.39 564.14,-160.39 737.86,-160.39 737.86,-196.39"/>
<text text-anchor="middle" x="651" y="-174.19" font-family="Times,serif" font-size="14.00">UserGroupFormComponent</text>
</g>
<!-- UserGroupFormModule -->
<g id="node2" class="node">
<title>UserGroupFormModule</title>
<polygon fill="#8dd3c7" stroke="black" points="345.08,-261.39 342.08,-265.39 321.08,-265.39 318.08,-261.39 192.92,-261.39 192.92,-225.39 345.08,-225.39 345.08,-261.39"/>
<text text-anchor="middle" x="269" y="-239.19" font-family="Times,serif" font-size="14.00">UserGroupFormModule</text>
</g>
<!-- UserGroupFormComponent&#45;&gt;UserGroupFormModule -->
<g id="edge1" class="edge">
<title>UserGroupFormComponent&#45;&gt;UserGroupFormModule</title>
<path fill="none" stroke="black" d="M651,-196.5C651,-215.73 651,-243.39 651,-243.39 651,-243.39 355.39,-243.39 355.39,-243.39"/>
<polygon fill="black" stroke="black" points="355.39,-239.89 345.39,-243.39 355.39,-246.89 355.39,-239.89"/>
</g>
<!-- {
 &#160;&#160;&#160;provide: ItemService, useExisting: UserGroupItemService,
} -->
<g id="node3" class="node">
<title>{
 &#160;&#160;&#160;provide: ItemService, useExisting: UserGroupItemService,
}</title>
<ellipse fill="#fdb462" stroke="black" cx="735" cy="-90.1" rx="255.3" ry="41.09"/>
<text text-anchor="middle" x="735" y="-102.7" font-family="Times,serif" font-size="14.00">{</text>
<text text-anchor="middle" x="735" y="-85.9" font-family="Times,serif" font-size="14.00"> &#160;&#160;&#160;provide: ItemService, useExisting: UserGroupItemService,</text>
<text text-anchor="middle" x="735" y="-69.1" font-family="Times,serif" font-size="14.00">}</text>
</g>
<!-- {
 &#160;&#160;&#160;provide: ItemService, useExisting: UserGroupItemService,
}&#45;&gt;UserGroupFormComponent -->
<g id="edge2" class="edge">
<title>{
 &#160;&#160;&#160;provide: ItemService, useExisting: UserGroupItemService,
}&#45;&gt;UserGroupFormComponent</title>
<path fill="none" stroke="black" d="M651,-129.34C651,-129.34 651,-150.01 651,-150.01"/>
<polygon fill="black" stroke="black" points="647.5,-150.01 651,-160.01 654.5,-150.01 647.5,-150.01"/>
</g>
<!-- FormErrorsModule -->
<g id="node4" class="node">
<title>FormErrorsModule</title>
<polygon fill="#8dd3c7" stroke="black" points="456.36,-196.39 453.36,-200.39 432.36,-200.39 429.36,-196.39 331.64,-196.39 331.64,-160.39 456.36,-160.39 456.36,-196.39"/>
<text text-anchor="middle" x="394" y="-174.19" font-family="Times,serif" font-size="14.00">FormErrorsModule</text>
</g>
<!-- FormErrorsModule&#45;&gt;UserGroupFormModule -->
<g id="edge3" class="edge">
<title>FormErrorsModule&#45;&gt;UserGroupFormModule</title>
<path fill="none" stroke="black" d="M338.3,-196.5C338.3,-196.5 338.3,-215.38 338.3,-215.38"/>
<polygon fill="black" stroke="black" points="334.8,-215.38 338.3,-225.38 341.8,-215.38 334.8,-215.38"/>
</g>
<!-- FormModule -->
<g id="node5" class="node">
<title>FormModule</title>
<polygon fill="#8dd3c7" stroke="black" points="313.88,-196.39 310.88,-200.39 289.88,-200.39 286.88,-196.39 224.12,-196.39 224.12,-160.39 313.88,-160.39 313.88,-196.39"/>
<text text-anchor="middle" x="269" y="-174.19" font-family="Times,serif" font-size="14.00">FormModule</text>
</g>
<!-- FormModule&#45;&gt;UserGroupFormModule -->
<g id="edge4" class="edge">
<title>FormModule&#45;&gt;UserGroupFormModule</title>
<path fill="none" stroke="black" d="M269,-196.5C269,-196.5 269,-215.38 269,-215.38"/>
<polygon fill="black" stroke="black" points="265.5,-215.38 269,-225.38 272.5,-215.38 265.5,-215.38"/>
</g>
<!-- I18nModule -->
<g id="node6" class="node">
<title>I18nModule</title>
<polygon fill="#8dd3c7" stroke="black" points="205.71,-196.39 202.71,-200.39 181.71,-200.39 178.71,-196.39 120.29,-196.39 120.29,-160.39 205.71,-160.39 205.71,-196.39"/>
<text text-anchor="middle" x="163" y="-174.19" font-family="Times,serif" font-size="14.00">I18nModule</text>
</g>
<!-- I18nModule&#45;&gt;UserGroupFormModule -->
<g id="edge5" class="edge">
<title>I18nModule&#45;&gt;UserGroupFormModule</title>
<path fill="none" stroke="black" d="M199.28,-196.5C199.28,-196.5 199.28,-215.38 199.28,-215.38"/>
<polygon fill="black" stroke="black" points="195.78,-215.38 199.28,-225.38 202.78,-215.38 195.78,-215.38"/>
</g>
<!-- UrlModule -->
<g id="node7" class="node">
<title>UrlModule</title>
<polygon fill="#8dd3c7" stroke="black" points="102.21,-196.39 99.21,-200.39 78.21,-200.39 75.21,-196.39 23.79,-196.39 23.79,-160.39 102.21,-160.39 102.21,-196.39"/>
<text text-anchor="middle" x="63" y="-174.19" font-family="Times,serif" font-size="14.00">UrlModule</text>
</g>
<!-- UrlModule&#45;&gt;UserGroupFormModule -->
<g id="edge6" class="edge">
<title>UrlModule&#45;&gt;UserGroupFormModule</title>
<path fill="none" stroke="black" d="M63,-196.5C63,-215.73 63,-243.39 63,-243.39 63,-243.39 182.88,-243.39 182.88,-243.39"/>
<polygon fill="black" stroke="black" points="182.88,-246.89 192.88,-243.39 182.88,-239.89 182.88,-246.89"/>
</g>
</g>
</svg>
