<?xml version="1.0" encoding="UTF-8" standalone="no"?>
<!DOCTYPE svg PUBLIC "-//W3C//DTD SVG 1.1//EN"
 "http://www.w3.org/Graphics/SVG/1.1/DTD/svg11.dtd">
<!-- Generated by graphviz version 2.47.0 (20210316.0004)
 -->
<!-- Title: dependencies Pages: 1 -->
<svg width="1022pt" height="323pt"
 viewBox="0.00 0.00 1022.00 322.59" xmlns="http://www.w3.org/2000/svg" xmlns:xlink="http://www.w3.org/1999/xlink">
<g id="graph0" class="graph" transform="scale(1 1) rotate(0) translate(4 318.59)">
<title>dependencies</title>
<polygon fill="white" stroke="transparent" points="-4,4 -4,-318.59 1018,-318.59 1018,4 -4,4"/>
<text text-anchor="start" x="486.01" y="-42.4" font-family="sans-serif" font-weight="bold" font-size="14.00">Legend</text>
<polygon fill="#ffffb3" stroke="transparent" points="273,-10 273,-30 293,-30 293,-10 273,-10"/>
<text text-anchor="start" x="296.63" y="-15.4" font-family="sans-serif" font-size="14.00"> &#160;Declarations</text>
<polygon fill="#8dd3c7" stroke="transparent" points="386,-10 386,-30 406,-30 406,-10 386,-10"/>
<text text-anchor="start" x="409.73" y="-15.4" font-family="sans-serif" font-size="14.00"> &#160;Module</text>
<polygon fill="#80b1d3" stroke="transparent" points="472,-10 472,-30 492,-30 492,-10 472,-10"/>
<text text-anchor="start" x="495.78" y="-15.4" font-family="sans-serif" font-size="14.00"> &#160;Bootstrap</text>
<polygon fill="#fdb462" stroke="transparent" points="569,-10 569,-30 589,-30 589,-10 569,-10"/>
<text text-anchor="start" x="592.67" y="-15.4" font-family="sans-serif" font-size="14.00"> &#160;Providers</text>
<polygon fill="#fb8072" stroke="transparent" points="665,-10 665,-30 685,-30 685,-10 665,-10"/>
<text text-anchor="start" x="688.73" y="-15.4" font-family="sans-serif" font-size="14.00"> &#160;Exports</text>
<g id="clust1" class="cluster">
<title>cluster_UserGroupFormModule</title>
<polygon fill="none" stroke="black" stroke-dasharray="1,5" points="8,-70 8,-306.59 1006,-306.59 1006,-70 8,-70"/>
</g>
<g id="clust3" class="cluster">
<title>cluster_UserGroupFormModule_UserGroupFormComponent_providers</title>
<polygon fill="none" stroke="black" points="472,-78 472,-241.59 998,-241.59 998,-78 472,-78"/>
</g>
<g id="clust4" class="cluster">
<title>cluster_UserGroupFormModule_imports</title>
<polygon fill="none" stroke="black" points="16,-189.59 16,-241.59 464,-241.59 464,-189.59 16,-189.59"/>
</g>
<!-- UserGroupFormComponent -->
<g id="node1" class="node">
<title>UserGroupFormComponent</title>
<polygon fill="#ffffb3" stroke="black" points="737.86,-233.59 564.14,-233.59 564.14,-197.59 737.86,-197.59 737.86,-233.59"/>
<text text-anchor="middle" x="651" y="-211.39" font-family="Times,serif" font-size="14.00">UserGroupFormComponent</text>
</g>
<!-- UserGroupFormModule -->
<g id="node2" class="node">
<title>UserGroupFormModule</title>
<polygon fill="#8dd3c7" stroke="black" points="345.08,-298.59 342.08,-302.59 321.08,-302.59 318.08,-298.59 192.92,-298.59 192.92,-262.59 345.08,-262.59 345.08,-298.59"/>
<text text-anchor="middle" x="269" y="-276.39" font-family="Times,serif" font-size="14.00">UserGroupFormModule</text>
</g>
<!-- UserGroupFormComponent&#45;&gt;UserGroupFormModule -->
<g id="edge1" class="edge">
<title>UserGroupFormComponent&#45;&gt;UserGroupFormModule</title>
<path fill="none" stroke="black" d="M651,-233.7C651,-252.93 651,-280.59 651,-280.59 651,-280.59 355.39,-280.59 355.39,-280.59"/>
<polygon fill="black" stroke="black" points="355.39,-277.09 345.39,-280.59 355.39,-284.09 355.39,-277.09"/>
</g>
<!-- {
 &#160;&#160;&#160;provide: ItemService, useExisting: UserGroupItemService,
} -->
<g id="node3" class="node">
<title>{
 &#160;&#160;&#160;provide: ItemService, useExisting: UserGroupItemService,
}</title>
<ellipse fill="#fdb462" stroke="black" cx="735" cy="-127.3" rx="255.3" ry="41.09"/>
<text text-anchor="middle" x="735" y="-139.9" font-family="Times,serif" font-size="14.00">{</text>
<text text-anchor="middle" x="735" y="-123.1" font-family="Times,serif" font-size="14.00"> &#160;&#160;&#160;provide: ItemService, useExisting: UserGroupItemService,</text>
<text text-anchor="middle" x="735" y="-106.3" font-family="Times,serif" font-size="14.00">}</text>
</g>
<!-- {
 &#160;&#160;&#160;provide: ItemService, useExisting: UserGroupItemService,
}&#45;&gt;UserGroupFormComponent -->
<g id="edge2" class="edge">
<title>{
 &#160;&#160;&#160;provide: ItemService, useExisting: UserGroupItemService,
}&#45;&gt;UserGroupFormComponent</title>
<path fill="none" stroke="black" d="M651,-166.54C651,-166.54 651,-187.21 651,-187.21"/>
<polygon fill="black" stroke="black" points="647.5,-187.21 651,-197.21 654.5,-187.21 647.5,-187.21"/>
</g>
<!-- FormErrorsModule -->
<g id="node4" class="node">
<title>FormErrorsModule</title>
<polygon fill="#8dd3c7" stroke="black" points="456.36,-233.59 453.36,-237.59 432.36,-237.59 429.36,-233.59 331.64,-233.59 331.64,-197.59 456.36,-197.59 456.36,-233.59"/>
<text text-anchor="middle" x="394" y="-211.39" font-family="Times,serif" font-size="14.00">FormErrorsModule</text>
</g>
<!-- FormErrorsModule&#45;&gt;UserGroupFormModule -->
<g id="edge3" class="edge">
<title>FormErrorsModule&#45;&gt;UserGroupFormModule</title>
<path fill="none" stroke="black" d="M338.3,-233.7C338.3,-233.7 338.3,-252.58 338.3,-252.58"/>
<polygon fill="black" stroke="black" points="334.8,-252.58 338.3,-262.58 341.8,-252.58 334.8,-252.58"/>
</g>
<!-- FormModule -->
<g id="node5" class="node">
<title>FormModule</title>
<polygon fill="#8dd3c7" stroke="black" points="313.88,-233.59 310.88,-237.59 289.88,-237.59 286.88,-233.59 224.12,-233.59 224.12,-197.59 313.88,-197.59 313.88,-233.59"/>
<text text-anchor="middle" x="269" y="-211.39" font-family="Times,serif" font-size="14.00">FormModule</text>
</g>
<!-- FormModule&#45;&gt;UserGroupFormModule -->
<g id="edge4" class="edge">
<title>FormModule&#45;&gt;UserGroupFormModule</title>
<path fill="none" stroke="black" d="M269,-233.7C269,-233.7 269,-252.58 269,-252.58"/>
<polygon fill="black" stroke="black" points="265.5,-252.58 269,-262.58 272.5,-252.58 265.5,-252.58"/>
</g>
<!-- I18nModule -->
<g id="node6" class="node">
<title>I18nModule</title>
<polygon fill="#8dd3c7" stroke="black" points="205.71,-233.59 202.71,-237.59 181.71,-237.59 178.71,-233.59 120.29,-233.59 120.29,-197.59 205.71,-197.59 205.71,-233.59"/>
<text text-anchor="middle" x="163" y="-211.39" font-family="Times,serif" font-size="14.00">I18nModule</text>
</g>
<!-- I18nModule&#45;&gt;UserGroupFormModule -->
<g id="edge5" class="edge">
<title>I18nModule&#45;&gt;UserGroupFormModule</title>
<path fill="none" stroke="black" d="M199.28,-233.7C199.28,-233.7 199.28,-252.58 199.28,-252.58"/>
<polygon fill="black" stroke="black" points="195.78,-252.58 199.28,-262.58 202.78,-252.58 195.78,-252.58"/>
</g>
<!-- UrlModule -->
<g id="node7" class="node">
<title>UrlModule</title>
<polygon fill="#8dd3c7" stroke="black" points="102.21,-233.59 99.21,-237.59 78.21,-237.59 75.21,-233.59 23.79,-233.59 23.79,-197.59 102.21,-197.59 102.21,-233.59"/>
<text text-anchor="middle" x="63" y="-211.39" font-family="Times,serif" font-size="14.00">UrlModule</text>
</g>
<!-- UrlModule&#45;&gt;UserGroupFormModule -->
<g id="edge6" class="edge">
<title>UrlModule&#45;&gt;UserGroupFormModule</title>
<path fill="none" stroke="black" d="M63,-233.7C63,-252.93 63,-280.59 63,-280.59 63,-280.59 182.88,-280.59 182.88,-280.59"/>
<polygon fill="black" stroke="black" points="182.88,-284.09 192.88,-280.59 182.88,-277.09 182.88,-284.09"/>
</g>
</g>
</svg>
