<?xml version="1.0" encoding="UTF-8" standalone="no"?>
<!DOCTYPE svg PUBLIC "-//W3C//DTD SVG 1.1//EN"
 "http://www.w3.org/Graphics/SVG/1.1/DTD/svg11.dtd">
<!-- Generated by graphviz version 2.47.3 (20210619.1520)
 -->
<!-- Title: dependencies Pages: 1 -->
<svg width="721pt" height="285pt"
 viewBox="0.00 0.00 721.00 285.39" xmlns="http://www.w3.org/2000/svg" xmlns:xlink="http://www.w3.org/1999/xlink">
<g id="graph0" class="graph" transform="scale(1 1) rotate(0) translate(4 281.39)">
<title>dependencies</title>
<polygon fill="white" stroke="transparent" points="-4,4 -4,-281.39 717,-281.39 717,4 -4,4"/>
<text text-anchor="middle" x="356.5" y="-8.2" font-family="sans-serif" font-size="14.00">dependencies</text>
<g id="clust1" class="cluster">
<title>cluster_UnitApproverListModule</title>
<polygon fill="none" stroke="black" stroke-dasharray="1,5" points="8,-32.8 8,-269.39 705,-269.39 705,-32.8 8,-32.8"/>
</g>
<g id="clust2" class="cluster">
<title>cluster_UnitApproverListModule_declarations</title>
<polygon fill="none" stroke="black" points="247,-152.39 247,-204.39 697,-204.39 697,-152.39 247,-152.39"/>
</g>
<g id="clust3" class="cluster">
<title>cluster_UnitApproverListModule_UnitApproverListComponent_providers</title>
<polygon fill="none" stroke="black" points="159,-40.8 159,-139.39 697,-139.39 697,-40.8 159,-40.8"/>
</g>
<g id="clust5" class="cluster">
<title>cluster_UnitApproverListModule_imports</title>
<polygon fill="none" stroke="black" points="16,-152.39 16,-204.39 239,-204.39 239,-152.39 16,-152.39"/>
</g>
<!-- UnitApproverListComponent -->
<g id="node1" class="node">
<title>UnitApproverListComponent</title>
<polygon fill="#ffffb3" stroke="black" points="688.64,-196.39 507.36,-196.39 507.36,-160.39 688.64,-160.39 688.64,-196.39"/>
<text text-anchor="middle" x="598" y="-174.19" font-family="Times,serif" font-size="14.00">UnitApproverListComponent</text>
</g>
<!-- UnitApproverListModule -->
<g id="node3" class="node">
<title>UnitApproverListModule</title>
<polygon fill="#8dd3c7" stroke="black" points="359.86,-261.39 356.86,-265.39 335.86,-265.39 332.86,-261.39 200.14,-261.39 200.14,-225.39 359.86,-225.39 359.86,-261.39"/>
<text text-anchor="middle" x="280" y="-239.19" font-family="Times,serif" font-size="14.00">UnitApproverListModule</text>
</g>
<!-- UnitApproverListComponent&#45;&gt;UnitApproverListModule -->
<g id="edge1" class="edge">
<title>UnitApproverListComponent&#45;&gt;UnitApproverListModule</title>
<path fill="none" stroke="black" d="M598,-196.5C598,-215.73 598,-243.39 598,-243.39 598,-243.39 370.24,-243.39 370.24,-243.39"/>
<polygon fill="black" stroke="black" points="370.24,-239.89 360.24,-243.39 370.24,-246.89 370.24,-239.89"/>
</g>
<!-- UnitAssignedApproverListComponent -->
<g id="node2" class="node">
<title>UnitAssignedApproverListComponent</title>
<polygon fill="#ffffb3" stroke="black" points="488.74,-196.39 255.26,-196.39 255.26,-160.39 488.74,-160.39 488.74,-196.39"/>
<text text-anchor="middle" x="372" y="-174.19" font-family="Times,serif" font-size="14.00">UnitAssignedApproverListComponent</text>
</g>
<!-- UnitAssignedApproverListComponent&#45;&gt;UnitApproverListModule -->
<g id="edge3" class="edge">
<title>UnitAssignedApproverListComponent&#45;&gt;UnitApproverListModule</title>
<path fill="none" stroke="black" d="M307.53,-196.5C307.53,-196.5 307.53,-215.38 307.53,-215.38"/>
<polygon fill="black" stroke="black" points="304.03,-215.38 307.53,-225.38 311.03,-215.38 304.03,-215.38"/>
</g>
<!-- {
 &#160;&#160;&#160;provide: ListService, useExisting: UnitApproverListService,
} -->
<g id="node4" class="node">
<title>{
 &#160;&#160;&#160;provide: ListService, useExisting: UnitApproverListService,
}</title>
<ellipse fill="#fdb462" stroke="black" cx="428" cy="-90.1" rx="261.44" ry="41.09"/>
<text text-anchor="middle" x="428" y="-102.7" font-family="Times,serif" font-size="14.00">{</text>
<text text-anchor="middle" x="428" y="-85.9" font-family="Times,serif" font-size="14.00"> &#160;&#160;&#160;provide: ListService, useExisting: UnitApproverListService,</text>
<text text-anchor="middle" x="428" y="-69.1" font-family="Times,serif" font-size="14.00">}</text>
</g>
<!-- {
 &#160;&#160;&#160;provide: ListService, useExisting: UnitApproverListService,
}&#45;&gt;UnitApproverListComponent -->
<g id="edge2" class="edge">
<title>{
 &#160;&#160;&#160;provide: ListService, useExisting: UnitApproverListService,
}&#45;&gt;UnitApproverListComponent</title>
<path fill="none" stroke="black" d="M598,-121.47C598,-121.47 598,-150.22 598,-150.22"/>
<polygon fill="black" stroke="black" points="594.5,-150.22 598,-160.22 601.5,-150.22 594.5,-150.22"/>
</g>
<!-- I18nModule -->
<g id="node5" class="node">
<title>I18nModule</title>
<polygon fill="#8dd3c7" stroke="black" points="230.71,-196.39 227.71,-200.39 206.71,-200.39 203.71,-196.39 145.29,-196.39 145.29,-160.39 230.71,-160.39 230.71,-196.39"/>
<text text-anchor="middle" x="188" y="-174.19" font-family="Times,serif" font-size="14.00">I18nModule</text>
</g>
<!-- I18nModule&#45;&gt;UnitApproverListModule -->
<g id="edge4" class="edge">
<title>I18nModule&#45;&gt;UnitApproverListModule</title>
<path fill="none" stroke="black" d="M215.34,-196.5C215.34,-196.5 215.34,-215.38 215.34,-215.38"/>
<polygon fill="black" stroke="black" points="211.84,-215.38 215.34,-225.38 218.84,-215.38 211.84,-215.38"/>
</g>
<!-- SubListModule -->
<g id="node6" class="node">
<title>SubListModule</title>
<polygon fill="#8dd3c7" stroke="black" points="127.61,-196.39 124.61,-200.39 103.61,-200.39 100.61,-196.39 24.39,-196.39 24.39,-160.39 127.61,-160.39 127.61,-196.39"/>
<text text-anchor="middle" x="76" y="-174.19" font-family="Times,serif" font-size="14.00">SubListModule</text>
</g>
<!-- SubListModule&#45;&gt;UnitApproverListModule -->
<g id="edge5" class="edge">
<title>SubListModule&#45;&gt;UnitApproverListModule</title>
<path fill="none" stroke="black" d="M76,-196.5C76,-215.73 76,-243.39 76,-243.39 76,-243.39 189.96,-243.39 189.96,-243.39"/>
<polygon fill="black" stroke="black" points="189.96,-246.89 199.96,-243.39 189.96,-239.89 189.96,-246.89"/>
</g>
</g>
</svg>
