<?xml version="1.0" encoding="UTF-8" standalone="no"?>
<!DOCTYPE svg PUBLIC "-//W3C//DTD SVG 1.1//EN"
 "http://www.w3.org/Graphics/SVG/1.1/DTD/svg11.dtd">
<!-- Generated by graphviz version 2.47.3 (20210619.1520)
 -->
<!-- Title: dependencies Pages: 1 -->
<svg width="721pt" height="174pt"
 viewBox="0.00 0.00 721.00 173.80" xmlns="http://www.w3.org/2000/svg" xmlns:xlink="http://www.w3.org/1999/xlink">
<g id="graph0" class="graph" transform="scale(1 1) rotate(0) translate(4 169.8)">
<title>dependencies</title>
<polygon fill="white" stroke="transparent" points="-4,4 -4,-169.8 717,-169.8 717,4 -4,4"/>
<text text-anchor="middle" x="356.5" y="-8.2" font-family="sans-serif" font-size="14.00">dependencies</text>
<g id="clust1" class="cluster">
<title>cluster_UnitApproverListModule</title>
<polygon fill="none" stroke="black" stroke-dasharray="1,5" points="8,-32.8 8,-157.8 705,-157.8 705,-32.8 8,-32.8"/>
</g>
<g id="clust2" class="cluster">
<title>cluster_UnitApproverListModule_declarations</title>
<polygon fill="none" stroke="black" points="247,-40.8 247,-92.8 697,-92.8 697,-40.8 247,-40.8"/>
</g>
<g id="clust5" class="cluster">
<title>cluster_UnitApproverListModule_imports</title>
<polygon fill="none" stroke="black" points="16,-40.8 16,-92.8 239,-92.8 239,-40.8 16,-40.8"/>
</g>
<!-- UnitApproverListComponent -->
<g id="node1" class="node">
<title>UnitApproverListComponent</title>
<polygon fill="#ffffb3" stroke="black" points="688.64,-84.8 507.36,-84.8 507.36,-48.8 688.64,-48.8 688.64,-84.8"/>
<text text-anchor="middle" x="598" y="-62.6" font-family="Times,serif" font-size="14.00">UnitApproverListComponent</text>
</g>
<!-- UnitApproverListModule -->
<g id="node3" class="node">
<title>UnitApproverListModule</title>
<polygon fill="#8dd3c7" stroke="black" points="359.86,-149.8 356.86,-153.8 335.86,-153.8 332.86,-149.8 200.14,-149.8 200.14,-113.8 359.86,-113.8 359.86,-149.8"/>
<text text-anchor="middle" x="280" y="-127.6" font-family="Times,serif" font-size="14.00">UnitApproverListModule</text>
</g>
<!-- UnitApproverListComponent&#45;&gt;UnitApproverListModule -->
<g id="edge1" class="edge">
<title>UnitApproverListComponent&#45;&gt;UnitApproverListModule</title>
<path fill="none" stroke="black" d="M598,-84.91C598,-104.14 598,-131.8 598,-131.8 598,-131.8 370.24,-131.8 370.24,-131.8"/>
<polygon fill="black" stroke="black" points="370.24,-128.3 360.24,-131.8 370.24,-135.3 370.24,-128.3"/>
</g>
<!-- UnitAssignedApproverListComponent -->
<g id="node2" class="node">
<title>UnitAssignedApproverListComponent</title>
<polygon fill="#ffffb3" stroke="black" points="488.74,-84.8 255.26,-84.8 255.26,-48.8 488.74,-48.8 488.74,-84.8"/>
<text text-anchor="middle" x="372" y="-62.6" font-family="Times,serif" font-size="14.00">UnitAssignedApproverListComponent</text>
</g>
<!-- UnitAssignedApproverListComponent&#45;&gt;UnitApproverListModule -->
<g id="edge2" class="edge">
<title>UnitAssignedApproverListComponent&#45;&gt;UnitApproverListModule</title>
<path fill="none" stroke="black" d="M307.53,-84.91C307.53,-84.91 307.53,-103.79 307.53,-103.79"/>
<polygon fill="black" stroke="black" points="304.03,-103.79 307.53,-113.79 311.03,-103.79 304.03,-103.79"/>
</g>
<!-- I18nModule -->
<g id="node4" class="node">
<title>I18nModule</title>
<polygon fill="#8dd3c7" stroke="black" points="230.71,-84.8 227.71,-88.8 206.71,-88.8 203.71,-84.8 145.29,-84.8 145.29,-48.8 230.71,-48.8 230.71,-84.8"/>
<text text-anchor="middle" x="188" y="-62.6" font-family="Times,serif" font-size="14.00">I18nModule</text>
</g>
<!-- I18nModule&#45;&gt;UnitApproverListModule -->
<g id="edge3" class="edge">
<title>I18nModule&#45;&gt;UnitApproverListModule</title>
<path fill="none" stroke="black" d="M215.34,-84.91C215.34,-84.91 215.34,-103.79 215.34,-103.79"/>
<polygon fill="black" stroke="black" points="211.84,-103.79 215.34,-113.79 218.84,-103.79 211.84,-103.79"/>
</g>
<!-- SubListModule -->
<g id="node5" class="node">
<title>SubListModule</title>
<polygon fill="#8dd3c7" stroke="black" points="127.61,-84.8 124.61,-88.8 103.61,-88.8 100.61,-84.8 24.39,-84.8 24.39,-48.8 127.61,-48.8 127.61,-84.8"/>
<text text-anchor="middle" x="76" y="-62.6" font-family="Times,serif" font-size="14.00">SubListModule</text>
</g>
<!-- SubListModule&#45;&gt;UnitApproverListModule -->
<g id="edge4" class="edge">
<title>SubListModule&#45;&gt;UnitApproverListModule</title>
<path fill="none" stroke="black" d="M76,-84.91C76,-104.14 76,-131.8 76,-131.8 76,-131.8 189.96,-131.8 189.96,-131.8"/>
<polygon fill="black" stroke="black" points="189.96,-135.3 199.96,-131.8 189.96,-128.3 189.96,-135.3"/>
</g>
</g>
</svg>
