<?xml version="1.0" encoding="UTF-8" standalone="no"?>
<!DOCTYPE svg PUBLIC "-//W3C//DTD SVG 1.1//EN"
 "http://www.w3.org/Graphics/SVG/1.1/DTD/svg11.dtd">
<!-- Generated by graphviz version 2.47.0 (20210316.0004)
 -->
<!-- Title: dependencies Pages: 1 -->
<svg width="721pt" height="323pt"
 viewBox="0.00 0.00 721.00 322.59" xmlns="http://www.w3.org/2000/svg" xmlns:xlink="http://www.w3.org/1999/xlink">
<g id="graph0" class="graph" transform="scale(1 1) rotate(0) translate(4 318.59)">
<title>dependencies</title>
<polygon fill="white" stroke="transparent" points="-4,4 -4,-318.59 717,-318.59 717,4 -4,4"/>
<text text-anchor="start" x="335.51" y="-42.4" font-family="sans-serif" font-weight="bold" font-size="14.00">Legend</text>
<polygon fill="#ffffb3" stroke="transparent" points="122.5,-10 122.5,-30 142.5,-30 142.5,-10 122.5,-10"/>
<text text-anchor="start" x="146.13" y="-15.4" font-family="sans-serif" font-size="14.00"> &#160;Declarations</text>
<polygon fill="#8dd3c7" stroke="transparent" points="235.5,-10 235.5,-30 255.5,-30 255.5,-10 235.5,-10"/>
<text text-anchor="start" x="259.23" y="-15.4" font-family="sans-serif" font-size="14.00"> &#160;Module</text>
<polygon fill="#80b1d3" stroke="transparent" points="321.5,-10 321.5,-30 341.5,-30 341.5,-10 321.5,-10"/>
<text text-anchor="start" x="345.28" y="-15.4" font-family="sans-serif" font-size="14.00"> &#160;Bootstrap</text>
<polygon fill="#fdb462" stroke="transparent" points="418.5,-10 418.5,-30 438.5,-30 438.5,-10 418.5,-10"/>
<text text-anchor="start" x="442.17" y="-15.4" font-family="sans-serif" font-size="14.00"> &#160;Providers</text>
<polygon fill="#fb8072" stroke="transparent" points="514.5,-10 514.5,-30 534.5,-30 534.5,-10 514.5,-10"/>
<text text-anchor="start" x="538.23" y="-15.4" font-family="sans-serif" font-size="14.00"> &#160;Exports</text>
<g id="clust1" class="cluster">
<title>cluster_UnitApproverListModule</title>
<polygon fill="none" stroke="black" stroke-dasharray="1,5" points="8,-70 8,-306.59 705,-306.59 705,-70 8,-70"/>
</g>
<g id="clust2" class="cluster">
<title>cluster_UnitApproverListModule_declarations</title>
<polygon fill="none" stroke="black" points="16,-189.59 16,-241.59 466,-241.59 466,-189.59 16,-189.59"/>
</g>
<g id="clust5" class="cluster">
<title>cluster_UnitApproverListModule_imports</title>
<polygon fill="none" stroke="black" points="474,-189.59 474,-241.59 697,-241.59 697,-189.59 474,-189.59"/>
</g>
<g id="clust3" class="cluster">
<title>cluster_UnitApproverListModule_UnitApproverListComponent_providers</title>
<polygon fill="none" stroke="black" points="98,-78 98,-176.59 636,-176.59 636,-78 98,-78"/>
</g>
<!-- UnitApproverListComponent -->
<g id="node1" class="node">
<title>UnitApproverListComponent</title>
<polygon fill="#ffffb3" stroke="black" points="457.64,-233.59 276.36,-233.59 276.36,-197.59 457.64,-197.59 457.64,-233.59"/>
<text text-anchor="middle" x="367" y="-211.39" font-family="Times,serif" font-size="14.00">UnitApproverListComponent</text>
</g>
<!-- UnitApproverListModule -->
<g id="node3" class="node">
<title>UnitApproverListModule</title>
<polygon fill="#8dd3c7" stroke="black" points="529.86,-298.59 526.86,-302.59 505.86,-302.59 502.86,-298.59 370.14,-298.59 370.14,-262.59 529.86,-262.59 529.86,-298.59"/>
<text text-anchor="middle" x="450" y="-276.39" font-family="Times,serif" font-size="14.00">UnitApproverListModule</text>
</g>
<!-- UnitApproverListComponent&#45;&gt;UnitApproverListModule -->
<g id="edge1" class="edge">
<title>UnitApproverListComponent&#45;&gt;UnitApproverListModule</title>
<path fill="none" stroke="black" d="M413.95,-233.7C413.95,-233.7 413.95,-252.58 413.95,-252.58"/>
<polygon fill="black" stroke="black" points="410.45,-252.58 413.95,-262.58 417.45,-252.58 410.45,-252.58"/>
</g>
<!-- UnitAssignedApproverListComponent -->
<g id="node2" class="node">
<title>UnitAssignedApproverListComponent</title>
<polygon fill="#ffffb3" stroke="black" points="257.74,-233.59 24.26,-233.59 24.26,-197.59 257.74,-197.59 257.74,-233.59"/>
<text text-anchor="middle" x="141" y="-211.39" font-family="Times,serif" font-size="14.00">UnitAssignedApproverListComponent</text>
</g>
<!-- UnitAssignedApproverListComponent&#45;&gt;UnitApproverListModule -->
<g id="edge3" class="edge">
<title>UnitAssignedApproverListComponent&#45;&gt;UnitApproverListModule</title>
<path fill="none" stroke="black" d="M141,-233.7C141,-252.93 141,-280.59 141,-280.59 141,-280.59 360.02,-280.59 360.02,-280.59"/>
<polygon fill="black" stroke="black" points="360.02,-284.09 370.02,-280.59 360.02,-277.09 360.02,-284.09"/>
</g>
<!-- {
 &#160;&#160;&#160;provide: ListService, useExisting: UnitApproverListService,
} -->
<g id="node4" class="node">
<title>{
 &#160;&#160;&#160;provide: ListService, useExisting: UnitApproverListService,
}</title>
<ellipse fill="#fdb462" stroke="black" cx="367" cy="-127.3" rx="261.44" ry="41.09"/>
<text text-anchor="middle" x="367" y="-139.9" font-family="Times,serif" font-size="14.00">{</text>
<text text-anchor="middle" x="367" y="-123.1" font-family="Times,serif" font-size="14.00"> &#160;&#160;&#160;provide: ListService, useExisting: UnitApproverListService,</text>
<text text-anchor="middle" x="367" y="-106.3" font-family="Times,serif" font-size="14.00">}</text>
</g>
<!-- {
 &#160;&#160;&#160;provide: ListService, useExisting: UnitApproverListService,
}&#45;&gt;UnitApproverListComponent -->
<g id="edge2" class="edge">
<title>{
 &#160;&#160;&#160;provide: ListService, useExisting: UnitApproverListService,
}&#45;&gt;UnitApproverListComponent</title>
<path fill="none" stroke="black" d="M367,-168.6C367,-168.6 367,-187.26 367,-187.26"/>
<polygon fill="black" stroke="black" points="363.5,-187.26 367,-197.26 370.5,-187.26 363.5,-187.26"/>
</g>
<!-- I18nModule -->
<g id="node5" class="node">
<title>I18nModule</title>
<polygon fill="#8dd3c7" stroke="black" points="688.71,-233.59 685.71,-237.59 664.71,-237.59 661.71,-233.59 603.29,-233.59 603.29,-197.59 688.71,-197.59 688.71,-233.59"/>
<text text-anchor="middle" x="646" y="-211.39" font-family="Times,serif" font-size="14.00">I18nModule</text>
</g>
<!-- I18nModule&#45;&gt;UnitApproverListModule -->
<g id="edge4" class="edge">
<title>I18nModule&#45;&gt;UnitApproverListModule</title>
<path fill="none" stroke="black" d="M646,-233.7C646,-252.93 646,-280.59 646,-280.59 646,-280.59 540,-280.59 540,-280.59"/>
<polygon fill="black" stroke="black" points="540,-277.09 530,-280.59 540,-284.09 540,-277.09"/>
</g>
<!-- SubListModule -->
<g id="node6" class="node">
<title>SubListModule</title>
<polygon fill="#8dd3c7" stroke="black" points="585.61,-233.59 582.61,-237.59 561.61,-237.59 558.61,-233.59 482.39,-233.59 482.39,-197.59 585.61,-197.59 585.61,-233.59"/>
<text text-anchor="middle" x="534" y="-211.39" font-family="Times,serif" font-size="14.00">SubListModule</text>
</g>
<!-- SubListModule&#45;&gt;UnitApproverListModule -->
<g id="edge5" class="edge">
<title>SubListModule&#45;&gt;UnitApproverListModule</title>
<path fill="none" stroke="black" d="M506.19,-233.7C506.19,-233.7 506.19,-252.58 506.19,-252.58"/>
<polygon fill="black" stroke="black" points="502.69,-252.58 506.19,-262.58 509.69,-252.58 502.69,-252.58"/>
</g>
</g>
</svg>
