<?xml version="1.0" encoding="UTF-8" standalone="no"?>
<!DOCTYPE svg PUBLIC "-//W3C//DTD SVG 1.1//EN"
 "http://www.w3.org/Graphics/SVG/1.1/DTD/svg11.dtd">
<!-- Generated by graphviz version 2.47.3 (20210619.1520)
 -->
<!-- Title: dependencies Pages: 1 -->
<svg width="1067pt" height="285pt"
 viewBox="0.00 0.00 1067.00 285.39" xmlns="http://www.w3.org/2000/svg" xmlns:xlink="http://www.w3.org/1999/xlink">
<g id="graph0" class="graph" transform="scale(1 1) rotate(0) translate(4 281.39)">
<title>dependencies</title>
<polygon fill="white" stroke="transparent" points="-4,4 -4,-281.39 1063,-281.39 1063,4 -4,4"/>
<text text-anchor="middle" x="529.5" y="-8.2" font-family="sans-serif" font-size="14.00">dependencies</text>
<g id="clust1" class="cluster">
<title>cluster_UnitApproverListModule</title>
<polygon fill="none" stroke="black" stroke-dasharray="1,5" points="8,-32.8 8,-269.39 1051,-269.39 1051,-32.8 8,-32.8"/>
</g>
<g id="clust3" class="cluster">
<title>cluster_UnitApproverListModule_UnitApproverListComponent_providers</title>
<polygon fill="none" stroke="black" points="505,-40.8 505,-204.39 1043,-204.39 1043,-40.8 505,-40.8"/>
</g>
<g id="clust5" class="cluster">
<title>cluster_UnitApproverListModule_imports</title>
<polygon fill="none" stroke="black" points="274,-152.39 274,-204.39 497,-204.39 497,-152.39 274,-152.39"/>
</g>
<g id="clust2" class="cluster">
<title>cluster_UnitApproverListModule_declarations</title>
<polygon fill="none" stroke="black" points="16,-152.39 16,-204.39 266,-204.39 266,-152.39 16,-152.39"/>
</g>
<!-- UnitApproverListComponent -->
<g id="node1" class="node">
<title>UnitApproverListComponent</title>
<polygon fill="#ffffb3" stroke="black" points="779.64,-196.39 598.36,-196.39 598.36,-160.39 779.64,-160.39 779.64,-196.39"/>
<text text-anchor="middle" x="689" y="-174.19" font-family="Times,serif" font-size="14.00">UnitApproverListComponent</text>
</g>
<!-- UnitApproverListModule -->
<g id="node3" class="node">
<title>UnitApproverListModule</title>
<polygon fill="#8dd3c7" stroke="black" points="469.86,-261.39 466.86,-265.39 445.86,-265.39 442.86,-261.39 310.14,-261.39 310.14,-225.39 469.86,-225.39 469.86,-261.39"/>
<text text-anchor="middle" x="390" y="-239.19" font-family="Times,serif" font-size="14.00">UnitApproverListModule</text>
</g>
<!-- UnitApproverListComponent&#45;&gt;UnitApproverListModule -->
<g id="edge1" class="edge">
<title>UnitApproverListComponent&#45;&gt;UnitApproverListModule</title>
<path fill="none" stroke="black" d="M689,-196.5C689,-215.73 689,-243.39 689,-243.39 689,-243.39 480.13,-243.39 480.13,-243.39"/>
<polygon fill="black" stroke="black" points="480.13,-239.89 470.13,-243.39 480.13,-246.89 480.13,-239.89"/>
</g>
<!-- UnitAssignedApproverListComponent -->
<g id="node2" class="node">
<title>UnitAssignedApproverListComponent</title>
<polygon fill="#ffffb3" stroke="black" points="257.74,-196.39 24.26,-196.39 24.26,-160.39 257.74,-160.39 257.74,-196.39"/>
<text text-anchor="middle" x="141" y="-174.19" font-family="Times,serif" font-size="14.00">UnitAssignedApproverListComponent</text>
</g>
<!-- UnitAssignedApproverListComponent&#45;&gt;UnitApproverListModule -->
<g id="edge3" class="edge">
<title>UnitAssignedApproverListComponent&#45;&gt;UnitApproverListModule</title>
<path fill="none" stroke="black" d="M141,-196.5C141,-215.73 141,-243.39 141,-243.39 141,-243.39 299.84,-243.39 299.84,-243.39"/>
<polygon fill="black" stroke="black" points="299.84,-246.89 309.84,-243.39 299.84,-239.89 299.84,-246.89"/>
</g>
<!-- {
 &#160;&#160;&#160;provide: ListService, useExisting: UnitApproverListService,
} -->
<g id="node4" class="node">
<title>{
 &#160;&#160;&#160;provide: ListService, useExisting: UnitApproverListService,
}</title>
<ellipse fill="#fdb462" stroke="black" cx="774" cy="-90.1" rx="261.44" ry="41.09"/>
<text text-anchor="middle" x="774" y="-102.7" font-family="Times,serif" font-size="14.00">{</text>
<text text-anchor="middle" x="774" y="-85.9" font-family="Times,serif" font-size="14.00"> &#160;&#160;&#160;provide: ListService, useExisting: UnitApproverListService,</text>
<text text-anchor="middle" x="774" y="-69.1" font-family="Times,serif" font-size="14.00">}</text>
</g>
<!-- {
 &#160;&#160;&#160;provide: ListService, useExisting: UnitApproverListService,
}&#45;&gt;UnitApproverListComponent -->
<g id="edge2" class="edge">
<title>{
 &#160;&#160;&#160;provide: ListService, useExisting: UnitApproverListService,
}&#45;&gt;UnitApproverListComponent</title>
<path fill="none" stroke="black" d="M689,-129.34C689,-129.34 689,-150.01 689,-150.01"/>
<polygon fill="black" stroke="black" points="685.5,-150.01 689,-160.01 692.5,-150.01 685.5,-150.01"/>
</g>
<!-- I18nModule -->
<g id="node5" class="node">
<title>I18nModule</title>
<polygon fill="#8dd3c7" stroke="black" points="488.71,-196.39 485.71,-200.39 464.71,-200.39 461.71,-196.39 403.29,-196.39 403.29,-160.39 488.71,-160.39 488.71,-196.39"/>
<text text-anchor="middle" x="446" y="-174.19" font-family="Times,serif" font-size="14.00">I18nModule</text>
</g>
<!-- I18nModule&#45;&gt;UnitApproverListModule -->
<g id="edge4" class="edge">
<title>I18nModule&#45;&gt;UnitApproverListModule</title>
<path fill="none" stroke="black" d="M436.66,-196.5C436.66,-196.5 436.66,-215.38 436.66,-215.38"/>
<polygon fill="black" stroke="black" points="433.16,-215.38 436.66,-225.38 440.16,-215.38 433.16,-215.38"/>
</g>
<!-- SubListModule -->
<g id="node6" class="node">
<title>SubListModule</title>
<polygon fill="#8dd3c7" stroke="black" points="385.61,-196.39 382.61,-200.39 361.61,-200.39 358.61,-196.39 282.39,-196.39 282.39,-160.39 385.61,-160.39 385.61,-196.39"/>
<text text-anchor="middle" x="334" y="-174.19" font-family="Times,serif" font-size="14.00">SubListModule</text>
</g>
<!-- SubListModule&#45;&gt;UnitApproverListModule -->
<g id="edge5" class="edge">
<title>SubListModule&#45;&gt;UnitApproverListModule</title>
<path fill="none" stroke="black" d="M347.81,-196.5C347.81,-196.5 347.81,-215.38 347.81,-215.38"/>
<polygon fill="black" stroke="black" points="344.31,-215.38 347.81,-225.38 351.31,-215.38 344.31,-215.38"/>
</g>
</g>
</svg>
