<?xml version="1.0" encoding="UTF-8" standalone="no"?>
<!DOCTYPE svg PUBLIC "-//W3C//DTD SVG 1.1//EN"
 "http://www.w3.org/Graphics/SVG/1.1/DTD/svg11.dtd">
<!-- Generated by graphviz version 2.46.0 (20210119.1425)
 -->
<!-- Title: dependencies Pages: 1 -->
<svg width="882pt" height="284pt"
 viewBox="0.00 0.00 882.00 284.00" xmlns="http://www.w3.org/2000/svg" xmlns:xlink="http://www.w3.org/1999/xlink">
<g id="graph0" class="graph" transform="scale(1 1) rotate(0) translate(4 280)">
<title>dependencies</title>
<polygon fill="white" stroke="transparent" points="-4,4 -4,-280 878,-280 878,4 -4,4"/>
<text text-anchor="start" x="416.01" y="-42.4" font-family="sans-serif" font-weight="bold" font-size="14.00">Legend</text>
<polygon fill="#ffffb3" stroke="transparent" points="203,-10 203,-30 223,-30 223,-10 203,-10"/>
<text text-anchor="start" x="226.63" y="-15.4" font-family="sans-serif" font-size="14.00"> &#160;Declarations</text>
<polygon fill="#8dd3c7" stroke="transparent" points="316,-10 316,-30 336,-30 336,-10 316,-10"/>
<text text-anchor="start" x="339.73" y="-15.4" font-family="sans-serif" font-size="14.00"> &#160;Module</text>
<polygon fill="#80b1d3" stroke="transparent" points="402,-10 402,-30 422,-30 422,-10 402,-10"/>
<text text-anchor="start" x="425.78" y="-15.4" font-family="sans-serif" font-size="14.00"> &#160;Bootstrap</text>
<polygon fill="#fdb462" stroke="transparent" points="499,-10 499,-30 519,-30 519,-10 499,-10"/>
<text text-anchor="start" x="522.67" y="-15.4" font-family="sans-serif" font-size="14.00"> &#160;Providers</text>
<polygon fill="#fb8072" stroke="transparent" points="595,-10 595,-30 615,-30 615,-10 595,-10"/>
<text text-anchor="start" x="618.73" y="-15.4" font-family="sans-serif" font-size="14.00"> &#160;Exports</text>
<g id="clust1" class="cluster">
<title>cluster_ProductFacetNavigationModule</title>
<polygon fill="none" stroke="black" stroke-dasharray="1,5" points="8,-70 8,-268 866,-268 866,-70 8,-70"/>
</g>
<g id="clust5" class="cluster">
<title>cluster_ProductFacetNavigationModule_exports</title>
<polygon fill="none" stroke="black" points="351,-208 351,-260 587,-260 587,-208 351,-208"/>
</g>
<g id="clust4" class="cluster">
<title>cluster_ProductFacetNavigationModule_imports</title>
<polygon fill="none" stroke="black" points="258,-78 258,-130 858,-130 858,-78 258,-78"/>
</g>
<g id="clust2" class="cluster">
<title>cluster_ProductFacetNavigationModule_declarations</title>
<polygon fill="none" stroke="black" points="16,-78 16,-130 250,-130 250,-78 16,-78"/>
</g>
<!-- ProductFacetNavigationComponent -->
<g id="node1" class="node">
<title>ProductFacetNavigationComponent</title>
<polygon fill="#ffffb3" stroke="black" points="241.91,-122 24.09,-122 24.09,-86 241.91,-86 241.91,-122"/>
<text text-anchor="middle" x="133" y="-99.8" font-family="Times,serif" font-size="14.00">ProductFacetNavigationComponent</text>
</g>
<!-- ProductFacetNavigationModule -->
<g id="node2" class="node">
<title>ProductFacetNavigationModule</title>
<polygon fill="#8dd3c7" stroke="black" points="566.62,-187 563.62,-191 542.62,-191 539.62,-187 371.38,-187 371.38,-151 566.62,-151 566.62,-187"/>
<text text-anchor="middle" x="469" y="-164.8" font-family="Times,serif" font-size="14.00">ProductFacetNavigationModule</text>
</g>
<!-- ProductFacetNavigationComponent&#45;&gt;ProductFacetNavigationModule -->
<g id="edge1" class="edge">
<title>ProductFacetNavigationComponent&#45;&gt;ProductFacetNavigationModule</title>
<path fill="none" stroke="black" d="M133,-122.28C133,-143.32 133,-175 133,-175 133,-175 361.36,-175 361.36,-175"/>
<polygon fill="black" stroke="black" points="361.36,-178.5 371.36,-175 361.36,-171.5 361.36,-178.5"/>
</g>
<!-- ProductFacetNavigationComponent  -->
<g id="node8" class="node">
<title>ProductFacetNavigationComponent </title>
<polygon fill="#fb8072" stroke="black" points="579.41,-252 358.59,-252 358.59,-216 579.41,-216 579.41,-252"/>
<text text-anchor="middle" x="469" y="-229.8" font-family="Times,serif" font-size="14.00">ProductFacetNavigationComponent </text>
</g>
<!-- ProductFacetNavigationModule&#45;&gt;ProductFacetNavigationComponent  -->
<g id="edge7" class="edge">
<title>ProductFacetNavigationModule&#45;&gt;ProductFacetNavigationComponent </title>
<path fill="none" stroke="black" stroke-dasharray="5,2" d="M469,-187.11C469,-187.11 469,-205.99 469,-205.99"/>
<polygon fill="black" stroke="black" points="465.5,-205.99 469,-215.99 472.5,-205.99 465.5,-205.99"/>
</g>
<!-- ActiveFacetsModule -->
<g id="node3" class="node">
<title>ActiveFacetsModule</title>
<polygon fill="#8dd3c7" stroke="black" points="850.13,-122 847.13,-126 826.13,-126 823.13,-122 717.87,-122 717.87,-86 850.13,-86 850.13,-122"/>
<text text-anchor="middle" x="784" y="-99.8" font-family="Times,serif" font-size="14.00">ActiveFacetsModule</text>
</g>
<!-- ActiveFacetsModule&#45;&gt;ProductFacetNavigationModule -->
<g id="edge2" class="edge">
<title>ActiveFacetsModule&#45;&gt;ProductFacetNavigationModule</title>
<path fill="none" stroke="black" d="M784,-122.28C784,-143.32 784,-175 784,-175 784,-175 576.94,-175 576.94,-175"/>
<polygon fill="black" stroke="black" points="576.94,-171.5 566.94,-175 576.94,-178.5 576.94,-171.5"/>
</g>
<!-- ConfigModule -->
<g id="node4" class="node">
<title>ConfigModule</title>
<polygon fill="#8dd3c7" stroke="black" points="699.44,-122 696.44,-126 675.44,-126 672.44,-122 600.56,-122 600.56,-86 699.44,-86 699.44,-122"/>
<text text-anchor="middle" x="650" y="-99.8" font-family="Times,serif" font-size="14.00">ConfigModule</text>
</g>
<!-- ConfigModule&#45;&gt;ProductFacetNavigationModule -->
<g id="edge3" class="edge">
<title>ConfigModule&#45;&gt;ProductFacetNavigationModule</title>
<path fill="none" stroke="black" d="M650,-122.02C650,-139.37 650,-163 650,-163 650,-163 576.65,-163 576.65,-163"/>
<polygon fill="black" stroke="black" points="576.65,-159.5 566.65,-163 576.65,-166.5 576.65,-159.5"/>
</g>
<!-- FacetListModule -->
<g id="node5" class="node">
<title>FacetListModule</title>
<polygon fill="#8dd3c7" stroke="black" points="582.65,-122 579.65,-126 558.65,-126 555.65,-122 471.35,-122 471.35,-86 582.65,-86 582.65,-122"/>
<text text-anchor="middle" x="527" y="-99.8" font-family="Times,serif" font-size="14.00">FacetListModule</text>
</g>
<!-- FacetListModule&#45;&gt;ProductFacetNavigationModule -->
<g id="edge4" class="edge">
<title>FacetListModule&#45;&gt;ProductFacetNavigationModule</title>
<path fill="none" stroke="black" d="M518.99,-122.11C518.99,-122.11 518.99,-140.99 518.99,-140.99"/>
<polygon fill="black" stroke="black" points="515.49,-140.99 518.99,-150.99 522.49,-140.99 515.49,-140.99"/>
</g>
<!-- I18nModule -->
<g id="node6" class="node">
<title>I18nModule</title>
<polygon fill="#8dd3c7" stroke="black" points="453.71,-122 450.71,-126 429.71,-126 426.71,-122 368.29,-122 368.29,-86 453.71,-86 453.71,-122"/>
<text text-anchor="middle" x="411" y="-99.8" font-family="Times,serif" font-size="14.00">I18nModule</text>
</g>
<!-- I18nModule&#45;&gt;ProductFacetNavigationModule -->
<g id="edge5" class="edge">
<title>I18nModule&#45;&gt;ProductFacetNavigationModule</title>
<path fill="none" stroke="black" d="M412.4,-122.11C412.4,-122.11 412.4,-140.99 412.4,-140.99"/>
<polygon fill="black" stroke="black" points="408.9,-140.99 412.4,-150.99 415.9,-140.99 408.9,-140.99"/>
</g>
<!-- IconModule -->
<g id="node7" class="node">
<title>IconModule</title>
<polygon fill="#8dd3c7" stroke="black" points="350.43,-122 347.43,-126 326.43,-126 323.43,-122 265.57,-122 265.57,-86 350.43,-86 350.43,-122"/>
<text text-anchor="middle" x="308" y="-99.8" font-family="Times,serif" font-size="14.00">IconModule</text>
</g>
<!-- IconModule&#45;&gt;ProductFacetNavigationModule -->
<g id="edge6" class="edge">
<title>IconModule&#45;&gt;ProductFacetNavigationModule</title>
<path fill="none" stroke="black" d="M308,-122.02C308,-139.37 308,-163 308,-163 308,-163 361.17,-163 361.17,-163"/>
<polygon fill="black" stroke="black" points="361.17,-166.5 371.17,-163 361.17,-159.5 361.17,-166.5"/>
</g>
</g>
</svg>
