<?xml version="1.0" encoding="UTF-8" standalone="no"?>
<!DOCTYPE svg PUBLIC "-//W3C//DTD SVG 1.1//EN"
 "http://www.w3.org/Graphics/SVG/1.1/DTD/svg11.dtd">
<!-- Generated by graphviz version 2.47.3 (20210619.1520)
 -->
<!-- Title: dependencies Pages: 1 -->
<svg width="882pt" height="247pt"
 viewBox="0.00 0.00 882.00 246.80" xmlns="http://www.w3.org/2000/svg" xmlns:xlink="http://www.w3.org/1999/xlink">
<g id="graph0" class="graph" transform="scale(1 1) rotate(0) translate(4 242.8)">
<title>dependencies</title>
<polygon fill="white" stroke="transparent" points="-4,4 -4,-242.8 878,-242.8 878,4 -4,4"/>
<text text-anchor="middle" x="437" y="-8.2" font-family="sans-serif" font-size="14.00">dependencies</text>
<g id="clust1" class="cluster">
<title>cluster_ProductFacetNavigationModule</title>
<polygon fill="none" stroke="black" stroke-dasharray="1,5" points="8,-32.8 8,-230.8 866,-230.8 866,-32.8 8,-32.8"/>
</g>
<g id="clust2" class="cluster">
<title>cluster_ProductFacetNavigationModule_declarations</title>
<polygon fill="none" stroke="black" points="624,-40.8 624,-92.8 858,-92.8 858,-40.8 624,-40.8"/>
</g>
<g id="clust4" class="cluster">
<title>cluster_ProductFacetNavigationModule_imports</title>
<polygon fill="none" stroke="black" points="16,-40.8 16,-92.8 616,-92.8 616,-40.8 16,-40.8"/>
</g>
<g id="clust5" class="cluster">
<title>cluster_ProductFacetNavigationModule_exports</title>
<polygon fill="none" stroke="black" points="228,-170.8 228,-222.8 464,-222.8 464,-170.8 228,-170.8"/>
</g>
<!-- ProductFacetNavigationComponent -->
<g id="node1" class="node">
<title>ProductFacetNavigationComponent</title>
<polygon fill="#ffffb3" stroke="black" points="849.91,-84.8 632.09,-84.8 632.09,-48.8 849.91,-48.8 849.91,-84.8"/>
<text text-anchor="middle" x="741" y="-62.6" font-family="Times,serif" font-size="14.00">ProductFacetNavigationComponent</text>
</g>
<!-- ProductFacetNavigationModule -->
<g id="node2" class="node">
<title>ProductFacetNavigationModule</title>
<polygon fill="#8dd3c7" stroke="black" points="443.62,-149.8 440.62,-153.8 419.62,-153.8 416.62,-149.8 248.38,-149.8 248.38,-113.8 443.62,-113.8 443.62,-149.8"/>
<text text-anchor="middle" x="346" y="-127.6" font-family="Times,serif" font-size="14.00">ProductFacetNavigationModule</text>
</g>
<!-- ProductFacetNavigationComponent&#45;&gt;ProductFacetNavigationModule -->
<g id="edge1" class="edge">
<title>ProductFacetNavigationComponent&#45;&gt;ProductFacetNavigationModule</title>
<path fill="none" stroke="black" d="M741,-85.08C741,-106.12 741,-137.8 741,-137.8 741,-137.8 453.64,-137.8 453.64,-137.8"/>
<polygon fill="black" stroke="black" points="453.64,-134.3 443.64,-137.8 453.64,-141.3 453.64,-134.3"/>
</g>
<!-- ProductFacetNavigationComponent  -->
<g id="node8" class="node">
<title>ProductFacetNavigationComponent </title>
<polygon fill="#fb8072" stroke="black" points="456.41,-214.8 235.59,-214.8 235.59,-178.8 456.41,-178.8 456.41,-214.8"/>
<text text-anchor="middle" x="346" y="-192.6" font-family="Times,serif" font-size="14.00">ProductFacetNavigationComponent </text>
</g>
<!-- ProductFacetNavigationModule&#45;&gt;ProductFacetNavigationComponent  -->
<g id="edge7" class="edge">
<title>ProductFacetNavigationModule&#45;&gt;ProductFacetNavigationComponent </title>
<path fill="none" stroke="black" stroke-dasharray="5,2" d="M346,-149.91C346,-149.91 346,-168.79 346,-168.79"/>
<polygon fill="black" stroke="black" points="342.5,-168.79 346,-178.79 349.5,-168.79 342.5,-168.79"/>
</g>
<!-- ActiveFacetsModule -->
<g id="node3" class="node">
<title>ActiveFacetsModule</title>
<polygon fill="#8dd3c7" stroke="black" points="608.13,-84.8 605.13,-88.8 584.13,-88.8 581.13,-84.8 475.87,-84.8 475.87,-48.8 608.13,-48.8 608.13,-84.8"/>
<text text-anchor="middle" x="542" y="-62.6" font-family="Times,serif" font-size="14.00">ActiveFacetsModule</text>
</g>
<!-- ActiveFacetsModule&#45;&gt;ProductFacetNavigationModule -->
<g id="edge2" class="edge">
<title>ActiveFacetsModule&#45;&gt;ProductFacetNavigationModule</title>
<path fill="none" stroke="black" d="M542,-84.82C542,-102.17 542,-125.8 542,-125.8 542,-125.8 453.71,-125.8 453.71,-125.8"/>
<polygon fill="black" stroke="black" points="453.71,-122.3 443.71,-125.8 453.71,-129.3 453.71,-122.3"/>
</g>
<!-- ConfigModule -->
<g id="node4" class="node">
<title>ConfigModule</title>
<polygon fill="#8dd3c7" stroke="black" points="457.44,-84.8 454.44,-88.8 433.44,-88.8 430.44,-84.8 358.56,-84.8 358.56,-48.8 457.44,-48.8 457.44,-84.8"/>
<text text-anchor="middle" x="408" y="-62.6" font-family="Times,serif" font-size="14.00">ConfigModule</text>
</g>
<!-- ConfigModule&#45;&gt;ProductFacetNavigationModule -->
<g id="edge3" class="edge">
<title>ConfigModule&#45;&gt;ProductFacetNavigationModule</title>
<path fill="none" stroke="black" d="M401.3,-84.91C401.3,-84.91 401.3,-103.79 401.3,-103.79"/>
<polygon fill="black" stroke="black" points="397.8,-103.79 401.3,-113.79 404.8,-103.79 397.8,-103.79"/>
</g>
<!-- FacetListModule -->
<g id="node5" class="node">
<title>FacetListModule</title>
<polygon fill="#8dd3c7" stroke="black" points="340.65,-84.8 337.65,-88.8 316.65,-88.8 313.65,-84.8 229.35,-84.8 229.35,-48.8 340.65,-48.8 340.65,-84.8"/>
<text text-anchor="middle" x="285" y="-62.6" font-family="Times,serif" font-size="14.00">FacetListModule</text>
</g>
<!-- FacetListModule&#45;&gt;ProductFacetNavigationModule -->
<g id="edge4" class="edge">
<title>FacetListModule&#45;&gt;ProductFacetNavigationModule</title>
<path fill="none" stroke="black" d="M294.51,-84.91C294.51,-84.91 294.51,-103.79 294.51,-103.79"/>
<polygon fill="black" stroke="black" points="291.01,-103.79 294.51,-113.79 298.01,-103.79 291.01,-103.79"/>
</g>
<!-- I18nModule -->
<g id="node6" class="node">
<title>I18nModule</title>
<polygon fill="#8dd3c7" stroke="black" points="211.71,-84.8 208.71,-88.8 187.71,-88.8 184.71,-84.8 126.29,-84.8 126.29,-48.8 211.71,-48.8 211.71,-84.8"/>
<text text-anchor="middle" x="169" y="-62.6" font-family="Times,serif" font-size="14.00">I18nModule</text>
</g>
<!-- I18nModule&#45;&gt;ProductFacetNavigationModule -->
<g id="edge5" class="edge">
<title>I18nModule&#45;&gt;ProductFacetNavigationModule</title>
<path fill="none" stroke="black" d="M169,-84.82C169,-102.17 169,-125.8 169,-125.8 169,-125.8 238.18,-125.8 238.18,-125.8"/>
<polygon fill="black" stroke="black" points="238.18,-129.3 248.18,-125.8 238.18,-122.3 238.18,-129.3"/>
</g>
<!-- IconModule -->
<g id="node7" class="node">
<title>IconModule</title>
<polygon fill="#8dd3c7" stroke="black" points="108.43,-84.8 105.43,-88.8 84.43,-88.8 81.43,-84.8 23.57,-84.8 23.57,-48.8 108.43,-48.8 108.43,-84.8"/>
<text text-anchor="middle" x="66" y="-62.6" font-family="Times,serif" font-size="14.00">IconModule</text>
</g>
<!-- IconModule&#45;&gt;ProductFacetNavigationModule -->
<g id="edge6" class="edge">
<title>IconModule&#45;&gt;ProductFacetNavigationModule</title>
<path fill="none" stroke="black" d="M66,-85.08C66,-106.12 66,-137.8 66,-137.8 66,-137.8 238.07,-137.8 238.07,-137.8"/>
<polygon fill="black" stroke="black" points="238.07,-141.3 248.07,-137.8 238.07,-134.3 238.07,-141.3"/>
</g>
</g>
</svg>
