<?xml version="1.0" encoding="UTF-8" standalone="no"?>
<!DOCTYPE svg PUBLIC "-//W3C//DTD SVG 1.1//EN"
 "http://www.w3.org/Graphics/SVG/1.1/DTD/svg11.dtd">
<!-- Generated by graphviz version 2.44.1 (20200629.0846)
 -->
<!-- Title: dependencies Pages: 1 -->
<svg width="882pt" height="284pt"
 viewBox="0.00 0.00 882.00 284.00" xmlns="http://www.w3.org/2000/svg" xmlns:xlink="http://www.w3.org/1999/xlink">
<g id="graph0" class="graph" transform="scale(1 1) rotate(0) translate(4 280)">
<title>dependencies</title>
<polygon fill="white" stroke="transparent" points="-4,4 -4,-280 878,-280 878,4 -4,4"/>
<text text-anchor="start" x="416.01" y="-42.4" font-family="sans-serif" font-weight="bold" font-size="14.00">Legend</text>
<polygon fill="#ffffb3" stroke="transparent" points="203,-10 203,-30 223,-30 223,-10 203,-10"/>
<text text-anchor="start" x="226.63" y="-15.4" font-family="sans-serif" font-size="14.00"> &#160;Declarations</text>
<polygon fill="#8dd3c7" stroke="transparent" points="316,-10 316,-30 336,-30 336,-10 316,-10"/>
<text text-anchor="start" x="339.73" y="-15.4" font-family="sans-serif" font-size="14.00"> &#160;Module</text>
<polygon fill="#80b1d3" stroke="transparent" points="402,-10 402,-30 422,-30 422,-10 402,-10"/>
<text text-anchor="start" x="425.78" y="-15.4" font-family="sans-serif" font-size="14.00"> &#160;Bootstrap</text>
<polygon fill="#fdb462" stroke="transparent" points="499,-10 499,-30 519,-30 519,-10 499,-10"/>
<text text-anchor="start" x="522.67" y="-15.4" font-family="sans-serif" font-size="14.00"> &#160;Providers</text>
<polygon fill="#fb8072" stroke="transparent" points="595,-10 595,-30 615,-30 615,-10 595,-10"/>
<text text-anchor="start" x="618.73" y="-15.4" font-family="sans-serif" font-size="14.00"> &#160;Exports</text>
<g id="clust1" class="cluster">
<title>cluster_ProductFacetNavigationModule</title>
<polygon fill="none" stroke="black" stroke-dasharray="1,5" points="8,-70 8,-268 866,-268 866,-70 8,-70"/>
</g>
<g id="clust2" class="cluster">
<title>cluster_ProductFacetNavigationModule_declarations</title>
<polygon fill="none" stroke="black" points="624,-78 624,-130 858,-130 858,-78 624,-78"/>
</g>
<g id="clust5" class="cluster">
<title>cluster_ProductFacetNavigationModule_exports</title>
<polygon fill="none" stroke="black" points="228,-208 228,-260 464,-260 464,-208 228,-208"/>
</g>
<g id="clust4" class="cluster">
<title>cluster_ProductFacetNavigationModule_imports</title>
<polygon fill="none" stroke="black" points="16,-78 16,-130 616,-130 616,-78 16,-78"/>
</g>
<!-- ProductFacetNavigationComponent -->
<g id="node1" class="node">
<title>ProductFacetNavigationComponent</title>
<polygon fill="#ffffb3" stroke="black" points="849.91,-122 632.09,-122 632.09,-86 849.91,-86 849.91,-122"/>
<text text-anchor="middle" x="741" y="-99.8" font-family="Times,serif" font-size="14.00">ProductFacetNavigationComponent</text>
</g>
<!-- ProductFacetNavigationModule -->
<g id="node2" class="node">
<title>ProductFacetNavigationModule</title>
<polygon fill="#8dd3c7" stroke="black" points="443.62,-187 440.62,-191 419.62,-191 416.62,-187 248.38,-187 248.38,-151 443.62,-151 443.62,-187"/>
<text text-anchor="middle" x="346" y="-164.8" font-family="Times,serif" font-size="14.00">ProductFacetNavigationModule</text>
</g>
<!-- ProductFacetNavigationComponent&#45;&gt;ProductFacetNavigationModule -->
<g id="edge1" class="edge">
<title>ProductFacetNavigationComponent&#45;&gt;ProductFacetNavigationModule</title>
<path fill="none" stroke="black" d="M741,-122.28C741,-143.32 741,-175 741,-175 741,-175 453.64,-175 453.64,-175"/>
<polygon fill="black" stroke="black" points="453.64,-171.5 443.64,-175 453.64,-178.5 453.64,-171.5"/>
</g>
<!-- ProductFacetNavigationComponent  -->
<g id="node8" class="node">
<title>ProductFacetNavigationComponent </title>
<polygon fill="#fb8072" stroke="black" points="456.41,-252 235.59,-252 235.59,-216 456.41,-216 456.41,-252"/>
<text text-anchor="middle" x="346" y="-229.8" font-family="Times,serif" font-size="14.00">ProductFacetNavigationComponent </text>
</g>
<!-- ProductFacetNavigationModule&#45;&gt;ProductFacetNavigationComponent  -->
<g id="edge7" class="edge">
<title>ProductFacetNavigationModule&#45;&gt;ProductFacetNavigationComponent </title>
<path fill="none" stroke="black" stroke-dasharray="5,2" d="M346,-187.11C346,-187.11 346,-205.99 346,-205.99"/>
<polygon fill="black" stroke="black" points="342.5,-205.99 346,-215.99 349.5,-205.99 342.5,-205.99"/>
</g>
<!-- ActiveFacetsModule -->
<g id="node3" class="node">
<title>ActiveFacetsModule</title>
<polygon fill="#8dd3c7" stroke="black" points="608.13,-122 605.13,-126 584.13,-126 581.13,-122 475.87,-122 475.87,-86 608.13,-86 608.13,-122"/>
<text text-anchor="middle" x="542" y="-99.8" font-family="Times,serif" font-size="14.00">ActiveFacetsModule</text>
</g>
<!-- ActiveFacetsModule&#45;&gt;ProductFacetNavigationModule -->
<g id="edge2" class="edge">
<title>ActiveFacetsModule&#45;&gt;ProductFacetNavigationModule</title>
<path fill="none" stroke="black" d="M542,-122.02C542,-139.37 542,-163 542,-163 542,-163 453.71,-163 453.71,-163"/>
<polygon fill="black" stroke="black" points="453.71,-159.5 443.71,-163 453.71,-166.5 453.71,-159.5"/>
</g>
<!-- ConfigModule -->
<g id="node4" class="node">
<title>ConfigModule</title>
<polygon fill="#8dd3c7" stroke="black" points="457.44,-122 454.44,-126 433.44,-126 430.44,-122 358.56,-122 358.56,-86 457.44,-86 457.44,-122"/>
<text text-anchor="middle" x="408" y="-99.8" font-family="Times,serif" font-size="14.00">ConfigModule</text>
</g>
<!-- ConfigModule&#45;&gt;ProductFacetNavigationModule -->
<g id="edge3" class="edge">
<title>ConfigModule&#45;&gt;ProductFacetNavigationModule</title>
<path fill="none" stroke="black" d="M401.3,-122.11C401.3,-122.11 401.3,-140.99 401.3,-140.99"/>
<polygon fill="black" stroke="black" points="397.8,-140.99 401.3,-150.99 404.8,-140.99 397.8,-140.99"/>
</g>
<!-- FacetListModule -->
<g id="node5" class="node">
<title>FacetListModule</title>
<polygon fill="#8dd3c7" stroke="black" points="340.65,-122 337.65,-126 316.65,-126 313.65,-122 229.35,-122 229.35,-86 340.65,-86 340.65,-122"/>
<text text-anchor="middle" x="285" y="-99.8" font-family="Times,serif" font-size="14.00">FacetListModule</text>
</g>
<!-- FacetListModule&#45;&gt;ProductFacetNavigationModule -->
<g id="edge4" class="edge">
<title>FacetListModule&#45;&gt;ProductFacetNavigationModule</title>
<path fill="none" stroke="black" d="M294.51,-122.11C294.51,-122.11 294.51,-140.99 294.51,-140.99"/>
<polygon fill="black" stroke="black" points="291.01,-140.99 294.51,-150.99 298.01,-140.99 291.01,-140.99"/>
</g>
<!-- I18nModule -->
<g id="node6" class="node">
<title>I18nModule</title>
<polygon fill="#8dd3c7" stroke="black" points="211.71,-122 208.71,-126 187.71,-126 184.71,-122 126.29,-122 126.29,-86 211.71,-86 211.71,-122"/>
<text text-anchor="middle" x="169" y="-99.8" font-family="Times,serif" font-size="14.00">I18nModule</text>
</g>
<!-- I18nModule&#45;&gt;ProductFacetNavigationModule -->
<g id="edge5" class="edge">
<title>I18nModule&#45;&gt;ProductFacetNavigationModule</title>
<path fill="none" stroke="black" d="M169,-122.02C169,-139.37 169,-163 169,-163 169,-163 238.18,-163 238.18,-163"/>
<polygon fill="black" stroke="black" points="238.18,-166.5 248.18,-163 238.18,-159.5 238.18,-166.5"/>
</g>
<!-- IconModule -->
<g id="node7" class="node">
<title>IconModule</title>
<polygon fill="#8dd3c7" stroke="black" points="108.43,-122 105.43,-126 84.43,-126 81.43,-122 23.57,-122 23.57,-86 108.43,-86 108.43,-122"/>
<text text-anchor="middle" x="66" y="-99.8" font-family="Times,serif" font-size="14.00">IconModule</text>
</g>
<!-- IconModule&#45;&gt;ProductFacetNavigationModule -->
<g id="edge6" class="edge">
<title>IconModule&#45;&gt;ProductFacetNavigationModule</title>
<path fill="none" stroke="black" d="M66,-122.28C66,-143.32 66,-175 66,-175 66,-175 238.07,-175 238.07,-175"/>
<polygon fill="black" stroke="black" points="238.07,-178.5 248.07,-175 238.07,-171.5 238.07,-178.5"/>
</g>
</g>
</svg>
