<?xml version="1.0" encoding="UTF-8" standalone="no"?>
<!DOCTYPE svg PUBLIC "-//W3C//DTD SVG 1.1//EN"
 "http://www.w3.org/Graphics/SVG/1.1/DTD/svg11.dtd">
<!-- Generated by graphviz version 2.40.1 (20161225.0304)
 -->
<!-- Title: dependencies Pages: 1 -->
<svg width="882pt" height="284pt"
 viewBox="0.00 0.00 882.00 284.00" xmlns="http://www.w3.org/2000/svg" xmlns:xlink="http://www.w3.org/1999/xlink">
<g id="graph0" class="graph" transform="scale(1 1) rotate(0) translate(4 280)">
<title>dependencies</title>
<polygon fill="#ffffff" stroke="transparent" points="-4,4 -4,-280 878,-280 878,4 -4,4"/>
<text text-anchor="start" x="416.0091" y="-42.4" font-family="sans-serif" font-weight="bold" font-size="14.00" fill="#000000">Legend</text>
<polygon fill="#ffffb3" stroke="transparent" points="203,-10 203,-30 223,-30 223,-10 203,-10"/>
<text text-anchor="start" x="226.629" y="-15.4" font-family="sans-serif" font-size="14.00" fill="#000000"> &#160;Declarations</text>
<polygon fill="#8dd3c7" stroke="transparent" points="316,-10 316,-30 336,-30 336,-10 316,-10"/>
<text text-anchor="start" x="339.7251" y="-15.4" font-family="sans-serif" font-size="14.00" fill="#000000"> &#160;Module</text>
<polygon fill="#80b1d3" stroke="transparent" points="402,-10 402,-30 422,-30 422,-10 402,-10"/>
<text text-anchor="start" x="425.7812" y="-15.4" font-family="sans-serif" font-size="14.00" fill="#000000"> &#160;Bootstrap</text>
<polygon fill="#fdb462" stroke="transparent" points="499,-10 499,-30 519,-30 519,-10 499,-10"/>
<text text-anchor="start" x="522.6732" y="-15.4" font-family="sans-serif" font-size="14.00" fill="#000000"> &#160;Providers</text>
<polygon fill="#fb8072" stroke="transparent" points="595,-10 595,-30 615,-30 615,-10 595,-10"/>
<text text-anchor="start" x="618.7258" y="-15.4" font-family="sans-serif" font-size="14.00" fill="#000000"> &#160;Exports</text>
<g id="clust1" class="cluster">
<title>cluster_ProductFacetNavigationModule</title>
<polygon fill="none" stroke="#000000" stroke-dasharray="1,5" points="8,-70 8,-268 866,-268 866,-70 8,-70"/>
</g>
<g id="clust2" class="cluster">
<title>cluster_ProductFacetNavigationModule_declarations</title>
<polygon fill="none" stroke="#000000" points="624,-78 624,-130 858,-130 858,-78 624,-78"/>
</g>
<g id="clust4" class="cluster">
<title>cluster_ProductFacetNavigationModule_imports</title>
<polygon fill="none" stroke="#000000" points="16,-78 16,-130 616,-130 616,-78 16,-78"/>
</g>
<g id="clust5" class="cluster">
<title>cluster_ProductFacetNavigationModule_exports</title>
<polygon fill="none" stroke="#000000" points="228,-208 228,-260 464,-260 464,-208 228,-208"/>
</g>
<!-- ProductFacetNavigationComponent -->
<g id="node1" class="node">
<title>ProductFacetNavigationComponent</title>
<polygon fill="#ffffb3" stroke="#000000" points="849.9058,-122 632.0942,-122 632.0942,-86 849.9058,-86 849.9058,-122"/>
<text text-anchor="middle" x="741" y="-99.8" font-family="Times,serif" font-size="14.00" fill="#000000">ProductFacetNavigationComponent</text>
</g>
<!-- ProductFacetNavigationModule -->
<g id="node2" class="node">
<title>ProductFacetNavigationModule</title>
<polygon fill="#8dd3c7" stroke="#000000" points="443.6232,-187 440.6232,-191 419.6232,-191 416.6232,-187 248.3768,-187 248.3768,-151 443.6232,-151 443.6232,-187"/>
<text text-anchor="middle" x="346" y="-164.8" font-family="Times,serif" font-size="14.00" fill="#000000">ProductFacetNavigationModule</text>
</g>
<!-- ProductFacetNavigationComponent&#45;&gt;ProductFacetNavigationModule -->
<g id="edge1" class="edge">
<title>ProductFacetNavigationComponent&#45;&gt;ProductFacetNavigationModule</title>
<path fill="none" stroke="#000000" d="M741,-122.2843C741,-143.3211 741,-175 741,-175 741,-175 453.6405,-175 453.6405,-175"/>
<polygon fill="#000000" stroke="#000000" points="453.6405,-171.5001 443.6405,-175 453.6404,-178.5001 453.6405,-171.5001"/>
</g>
<!-- ProductFacetNavigationComponent  -->
<g id="node8" class="node">
<title>ProductFacetNavigationComponent </title>
<polygon fill="#fb8072" stroke="#000000" points="456.4054,-252 235.5946,-252 235.5946,-216 456.4054,-216 456.4054,-252"/>
<text text-anchor="middle" x="346" y="-229.8" font-family="Times,serif" font-size="14.00" fill="#000000">ProductFacetNavigationComponent </text>
</g>
<!-- ProductFacetNavigationModule&#45;&gt;ProductFacetNavigationComponent  -->
<g id="edge7" class="edge">
<title>ProductFacetNavigationModule&#45;&gt;ProductFacetNavigationComponent </title>
<path fill="none" stroke="#000000" stroke-dasharray="5,2" d="M346,-187.1061C346,-187.1061 346,-205.991 346,-205.991"/>
<polygon fill="#000000" stroke="#000000" points="342.5001,-205.9909 346,-215.991 349.5001,-205.991 342.5001,-205.9909"/>
</g>
<!-- ActiveFacetsModule -->
<g id="node3" class="node">
<title>ActiveFacetsModule</title>
<polygon fill="#8dd3c7" stroke="#000000" points="608.1289,-122 605.1289,-126 584.1289,-126 581.1289,-122 475.8711,-122 475.8711,-86 608.1289,-86 608.1289,-122"/>
<text text-anchor="middle" x="542" y="-99.8" font-family="Times,serif" font-size="14.00" fill="#000000">ActiveFacetsModule</text>
</g>
<!-- ActiveFacetsModule&#45;&gt;ProductFacetNavigationModule -->
<g id="edge2" class="edge">
<title>ActiveFacetsModule&#45;&gt;ProductFacetNavigationModule</title>
<path fill="none" stroke="#000000" d="M542,-122.0225C542,-139.3734 542,-163 542,-163 542,-163 453.7129,-163 453.7129,-163"/>
<polygon fill="#000000" stroke="#000000" points="453.7129,-159.5001 443.7129,-163 453.7129,-166.5001 453.7129,-159.5001"/>
</g>
<!-- ConfigModule -->
<g id="node4" class="node">
<title>ConfigModule</title>
<polygon fill="#8dd3c7" stroke="#000000" points="457.4386,-122 454.4386,-126 433.4386,-126 430.4386,-122 358.5614,-122 358.5614,-86 457.4386,-86 457.4386,-122"/>
<text text-anchor="middle" x="408" y="-99.8" font-family="Times,serif" font-size="14.00" fill="#000000">ConfigModule</text>
</g>
<!-- ConfigModule&#45;&gt;ProductFacetNavigationModule -->
<g id="edge3" class="edge">
<title>ConfigModule&#45;&gt;ProductFacetNavigationModule</title>
<path fill="none" stroke="#000000" d="M401.2963,-122.1061C401.2963,-122.1061 401.2963,-140.991 401.2963,-140.991"/>
<polygon fill="#000000" stroke="#000000" points="397.7964,-140.9909 401.2963,-150.991 404.7964,-140.991 397.7964,-140.9909"/>
</g>
<!-- FacetListModule -->
<g id="node5" class="node">
<title>FacetListModule</title>
<polygon fill="#8dd3c7" stroke="#000000" points="340.6458,-122 337.6458,-126 316.6458,-126 313.6458,-122 229.3542,-122 229.3542,-86 340.6458,-86 340.6458,-122"/>
<text text-anchor="middle" x="285" y="-99.8" font-family="Times,serif" font-size="14.00" fill="#000000">FacetListModule</text>
</g>
<!-- FacetListModule&#45;&gt;ProductFacetNavigationModule -->
<g id="edge4" class="edge">
<title>FacetListModule&#45;&gt;ProductFacetNavigationModule</title>
<path fill="none" stroke="#000000" d="M294.5056,-122.1061C294.5056,-122.1061 294.5056,-140.991 294.5056,-140.991"/>
<polygon fill="#000000" stroke="#000000" points="291.0057,-140.9909 294.5056,-150.991 298.0057,-140.991 291.0057,-140.9909"/>
</g>
<!-- I18nModule -->
<g id="node6" class="node">
<title>I18nModule</title>
<polygon fill="#8dd3c7" stroke="#000000" points="211.7107,-122 208.7107,-126 187.7107,-126 184.7107,-122 126.2893,-122 126.2893,-86 211.7107,-86 211.7107,-122"/>
<text text-anchor="middle" x="169" y="-99.8" font-family="Times,serif" font-size="14.00" fill="#000000">I18nModule</text>
</g>
<!-- I18nModule&#45;&gt;ProductFacetNavigationModule -->
<g id="edge5" class="edge">
<title>I18nModule&#45;&gt;ProductFacetNavigationModule</title>
<path fill="none" stroke="#000000" d="M169,-122.0225C169,-139.3734 169,-163 169,-163 169,-163 238.1814,-163 238.1814,-163"/>
<polygon fill="#000000" stroke="#000000" points="238.1814,-166.5001 248.1814,-163 238.1814,-159.5001 238.1814,-166.5001"/>
</g>
<!-- IconModule -->
<g id="node7" class="node">
<title>IconModule</title>
<polygon fill="#8dd3c7" stroke="#000000" points="108.4261,-122 105.4261,-126 84.4261,-126 81.4261,-122 23.5739,-122 23.5739,-86 108.4261,-86 108.4261,-122"/>
<text text-anchor="middle" x="66" y="-99.8" font-family="Times,serif" font-size="14.00" fill="#000000">IconModule</text>
</g>
<!-- IconModule&#45;&gt;ProductFacetNavigationModule -->
<g id="edge6" class="edge">
<title>IconModule&#45;&gt;ProductFacetNavigationModule</title>
<path fill="none" stroke="#000000" d="M66,-122.2843C66,-143.3211 66,-175 66,-175 66,-175 238.0696,-175 238.0696,-175"/>
<polygon fill="#000000" stroke="#000000" points="238.0696,-178.5001 248.0696,-175 238.0696,-171.5001 238.0696,-178.5001"/>
</g>
</g>
</svg>
