<?xml version="1.0" encoding="UTF-8" standalone="no"?>
<!DOCTYPE svg PUBLIC "-//W3C//DTD SVG 1.1//EN"
 "http://www.w3.org/Graphics/SVG/1.1/DTD/svg11.dtd">
<!-- Generated by graphviz version 2.40.1 (20161225.0304)
 -->
<!-- Title: dependencies Pages: 1 -->
<svg width="826pt" height="211pt"
 viewBox="0.00 0.00 826.00 211.00" xmlns="http://www.w3.org/2000/svg" xmlns:xlink="http://www.w3.org/1999/xlink">
<g id="graph0" class="graph" transform="scale(1 1) rotate(0) translate(4 207)">
<title>dependencies</title>
<polygon fill="#ffffff" stroke="transparent" points="-4,4 -4,-207 822,-207 822,4 -4,4"/>
<text text-anchor="start" x="388.0091" y="-42.4" font-family="sans-serif" font-weight="bold" font-size="14.00" fill="#000000">Legend</text>
<polygon fill="#ffffb3" stroke="transparent" points="175,-10 175,-30 195,-30 195,-10 175,-10"/>
<text text-anchor="start" x="198.629" y="-15.4" font-family="sans-serif" font-size="14.00" fill="#000000"> &#160;Declarations</text>
<polygon fill="#8dd3c7" stroke="transparent" points="288,-10 288,-30 308,-30 308,-10 288,-10"/>
<text text-anchor="start" x="311.7251" y="-15.4" font-family="sans-serif" font-size="14.00" fill="#000000"> &#160;Module</text>
<polygon fill="#80b1d3" stroke="transparent" points="374,-10 374,-30 394,-30 394,-10 374,-10"/>
<text text-anchor="start" x="397.7812" y="-15.4" font-family="sans-serif" font-size="14.00" fill="#000000"> &#160;Bootstrap</text>
<polygon fill="#fdb462" stroke="transparent" points="471,-10 471,-30 491,-30 491,-10 471,-10"/>
<text text-anchor="start" x="494.6732" y="-15.4" font-family="sans-serif" font-size="14.00" fill="#000000"> &#160;Providers</text>
<polygon fill="#fb8072" stroke="transparent" points="567,-10 567,-30 587,-30 587,-10 567,-10"/>
<text text-anchor="start" x="590.7258" y="-15.4" font-family="sans-serif" font-size="14.00" fill="#000000"> &#160;Exports</text>
<g id="clust1" class="cluster">
<title>cluster_UserComponentModule</title>
<polygon fill="none" stroke="#000000" stroke-dasharray="1,5" points="8,-70 8,-195 810,-195 810,-70 8,-70"/>
</g>
<g id="clust3" class="cluster">
<title>cluster_UserComponentModule_imports</title>
<polygon fill="none" stroke="#000000" points="16,-78 16,-130 802,-130 802,-78 16,-78"/>
</g>
<!-- CheckoutLoginModule -->
<g id="node1" class="node">
<title>CheckoutLoginModule</title>
<polygon fill="#8dd3c7" stroke="#000000" points="794.1498,-122 791.1498,-126 770.1498,-126 767.1498,-122 647.8502,-122 647.8502,-86 794.1498,-86 794.1498,-122"/>
<text text-anchor="middle" x="721" y="-99.8" font-family="Times,serif" font-size="14.00" fill="#000000">CheckoutLoginModule</text>
</g>
<!-- UserComponentModule -->
<g id="node7" class="node">
<title>UserComponentModule</title>
<polygon fill="#8dd3c7" stroke="#000000" points="450.8089,-187 447.8089,-191 426.8089,-191 423.8089,-187 299.1911,-187 299.1911,-151 450.8089,-151 450.8089,-187"/>
<text text-anchor="middle" x="375" y="-164.8" font-family="Times,serif" font-size="14.00" fill="#000000">UserComponentModule</text>
</g>
<!-- CheckoutLoginModule&#45;&gt;UserComponentModule -->
<g id="edge1" class="edge">
<title>CheckoutLoginModule&#45;&gt;UserComponentModule</title>
<path fill="none" stroke="#000000" d="M721,-122.2843C721,-143.3211 721,-175 721,-175 721,-175 460.9312,-175 460.9312,-175"/>
<polygon fill="#000000" stroke="#000000" points="460.9312,-171.5001 450.9312,-175 460.9311,-178.5001 460.9312,-171.5001"/>
</g>
<!-- LoginFormModule -->
<g id="node2" class="node">
<title>LoginFormModule</title>
<polygon fill="#8dd3c7" stroke="#000000" points="629.8272,-122 626.8272,-126 605.8272,-126 602.8272,-122 506.1728,-122 506.1728,-86 629.8272,-86 629.8272,-122"/>
<text text-anchor="middle" x="568" y="-99.8" font-family="Times,serif" font-size="14.00" fill="#000000">LoginFormModule</text>
</g>
<!-- LoginFormModule&#45;&gt;UserComponentModule -->
<g id="edge2" class="edge">
<title>LoginFormModule&#45;&gt;UserComponentModule</title>
<path fill="none" stroke="#000000" d="M568,-122.0225C568,-139.3734 568,-163 568,-163 568,-163 460.7248,-163 460.7248,-163"/>
<polygon fill="#000000" stroke="#000000" points="460.7248,-159.5001 450.7248,-163 460.7247,-166.5001 460.7248,-159.5001"/>
</g>
<!-- LoginModule -->
<g id="node3" class="node">
<title>LoginModule</title>
<polygon fill="#8dd3c7" stroke="#000000" points="488.493,-122 485.493,-126 464.493,-126 461.493,-122 395.507,-122 395.507,-86 488.493,-86 488.493,-122"/>
<text text-anchor="middle" x="442" y="-99.8" font-family="Times,serif" font-size="14.00" fill="#000000">LoginModule</text>
</g>
<!-- LoginModule&#45;&gt;UserComponentModule -->
<g id="edge3" class="edge">
<title>LoginModule&#45;&gt;UserComponentModule</title>
<path fill="none" stroke="#000000" d="M423.0789,-122.1061C423.0789,-122.1061 423.0789,-140.991 423.0789,-140.991"/>
<polygon fill="#000000" stroke="#000000" points="419.579,-140.9909 423.0789,-150.991 426.579,-140.991 419.579,-140.9909"/>
</g>
<!-- LoginRegisterModule -->
<g id="node4" class="node">
<title>LoginRegisterModule</title>
<polygon fill="#8dd3c7" stroke="#000000" points="377.6456,-122 374.6456,-126 353.6456,-126 350.6456,-122 238.3544,-122 238.3544,-86 377.6456,-86 377.6456,-122"/>
<text text-anchor="middle" x="308" y="-99.8" font-family="Times,serif" font-size="14.00" fill="#000000">LoginRegisterModule</text>
</g>
<!-- LoginRegisterModule&#45;&gt;UserComponentModule -->
<g id="edge4" class="edge">
<title>LoginRegisterModule&#45;&gt;UserComponentModule</title>
<path fill="none" stroke="#000000" d="M338.5842,-122.1061C338.5842,-122.1061 338.5842,-140.991 338.5842,-140.991"/>
<polygon fill="#000000" stroke="#000000" points="335.0842,-140.9909 338.5842,-150.991 342.0842,-140.991 335.0842,-140.9909"/>
</g>
<!-- LogoutModule -->
<g id="node5" class="node">
<title>LogoutModule</title>
<polygon fill="#8dd3c7" stroke="#000000" points="219.993,-122 216.993,-126 195.993,-126 192.993,-122 120.007,-122 120.007,-86 219.993,-86 219.993,-122"/>
<text text-anchor="middle" x="170" y="-99.8" font-family="Times,serif" font-size="14.00" fill="#000000">LogoutModule</text>
</g>
<!-- LogoutModule&#45;&gt;UserComponentModule -->
<g id="edge5" class="edge">
<title>LogoutModule&#45;&gt;UserComponentModule</title>
<path fill="none" stroke="#000000" d="M170,-122.0225C170,-139.3734 170,-163 170,-163 170,-163 289.248,-163 289.248,-163"/>
<polygon fill="#000000" stroke="#000000" points="289.248,-166.5001 299.248,-163 289.248,-159.5001 289.248,-166.5001"/>
</g>
<!-- UrlModule -->
<g id="node6" class="node">
<title>UrlModule</title>
<polygon fill="#8dd3c7" stroke="#000000" points="102.2079,-122 99.2079,-126 78.2079,-126 75.2079,-122 23.7921,-122 23.7921,-86 102.2079,-86 102.2079,-122"/>
<text text-anchor="middle" x="63" y="-99.8" font-family="Times,serif" font-size="14.00" fill="#000000">UrlModule</text>
</g>
<!-- UrlModule&#45;&gt;UserComponentModule -->
<g id="edge6" class="edge">
<title>UrlModule&#45;&gt;UserComponentModule</title>
<path fill="none" stroke="#000000" d="M63,-122.2843C63,-143.3211 63,-175 63,-175 63,-175 289.0752,-175 289.0752,-175"/>
<polygon fill="#000000" stroke="#000000" points="289.0752,-178.5001 299.0752,-175 289.0751,-171.5001 289.0752,-178.5001"/>
</g>
</g>
</svg>
