<?xml version="1.0" encoding="UTF-8" standalone="no"?>
<!DOCTYPE svg PUBLIC "-//W3C//DTD SVG 1.1//EN"
 "http://www.w3.org/Graphics/SVG/1.1/DTD/svg11.dtd">
<!-- Generated by graphviz version 2.46.0 (20210119.1425)
 -->
<!-- Title: dependencies Pages: 1 -->
<svg width="970pt" height="211pt"
 viewBox="0.00 0.00 970.00 211.00" xmlns="http://www.w3.org/2000/svg" xmlns:xlink="http://www.w3.org/1999/xlink">
<g id="graph0" class="graph" transform="scale(1 1) rotate(0) translate(4 207)">
<title>dependencies</title>
<polygon fill="white" stroke="transparent" points="-4,4 -4,-207 966,-207 966,4 -4,4"/>
<text text-anchor="start" x="460.01" y="-42.4" font-family="sans-serif" font-weight="bold" font-size="14.00">Legend</text>
<polygon fill="#ffffb3" stroke="transparent" points="247,-10 247,-30 267,-30 267,-10 247,-10"/>
<text text-anchor="start" x="270.63" y="-15.4" font-family="sans-serif" font-size="14.00"> &#160;Declarations</text>
<polygon fill="#8dd3c7" stroke="transparent" points="360,-10 360,-30 380,-30 380,-10 360,-10"/>
<text text-anchor="start" x="383.73" y="-15.4" font-family="sans-serif" font-size="14.00"> &#160;Module</text>
<polygon fill="#80b1d3" stroke="transparent" points="446,-10 446,-30 466,-30 466,-10 446,-10"/>
<text text-anchor="start" x="469.78" y="-15.4" font-family="sans-serif" font-size="14.00"> &#160;Bootstrap</text>
<polygon fill="#fdb462" stroke="transparent" points="543,-10 543,-30 563,-30 563,-10 543,-10"/>
<text text-anchor="start" x="566.67" y="-15.4" font-family="sans-serif" font-size="14.00"> &#160;Providers</text>
<polygon fill="#fb8072" stroke="transparent" points="639,-10 639,-30 659,-30 659,-10 639,-10"/>
<text text-anchor="start" x="662.73" y="-15.4" font-family="sans-serif" font-size="14.00"> &#160;Exports</text>
<g id="clust1" class="cluster">
<title>cluster_UserComponentModule</title>
<polygon fill="none" stroke="black" stroke-dasharray="1,5" points="8,-70 8,-195 954,-195 954,-70 8,-70"/>
</g>
<g id="clust3" class="cluster">
<title>cluster_UserComponentModule_imports</title>
<polygon fill="none" stroke="black" points="16,-78 16,-130 946,-130 946,-78 16,-78"/>
</g>
<!-- CheckoutLoginModule -->
<g id="node1" class="node">
<title>CheckoutLoginModule</title>
<polygon fill="#8dd3c7" stroke="black" points="938.15,-122 935.15,-126 914.15,-126 911.15,-122 791.85,-122 791.85,-86 938.15,-86 938.15,-122"/>
<text text-anchor="middle" x="865" y="-99.8" font-family="Times,serif" font-size="14.00">CheckoutLoginModule</text>
</g>
<!-- UserComponentModule -->
<g id="node8" class="node">
<title>UserComponentModule</title>
<polygon fill="#8dd3c7" stroke="black" points="527.81,-187 524.81,-191 503.81,-191 500.81,-187 376.19,-187 376.19,-151 527.81,-151 527.81,-187"/>
<text text-anchor="middle" x="452" y="-164.8" font-family="Times,serif" font-size="14.00">UserComponentModule</text>
</g>
<!-- CheckoutLoginModule&#45;&gt;UserComponentModule -->
<g id="edge1" class="edge">
<title>CheckoutLoginModule&#45;&gt;UserComponentModule</title>
<path fill="none" stroke="black" d="M865,-122.29C865,-144.21 865,-178 865,-178 865,-178 537.75,-178 537.75,-178"/>
<polygon fill="black" stroke="black" points="537.75,-174.5 527.75,-178 537.75,-181.5 537.75,-174.5"/>
</g>
<!-- LoginFormModule -->
<g id="node2" class="node">
<title>LoginFormModule</title>
<polygon fill="#8dd3c7" stroke="black" points="773.83,-122 770.83,-126 749.83,-126 746.83,-122 650.17,-122 650.17,-86 773.83,-86 773.83,-122"/>
<text text-anchor="middle" x="712" y="-99.8" font-family="Times,serif" font-size="14.00">LoginFormModule</text>
</g>
<!-- LoginFormModule&#45;&gt;UserComponentModule -->
<g id="edge2" class="edge">
<title>LoginFormModule&#45;&gt;UserComponentModule</title>
<path fill="none" stroke="black" d="M712,-122.11C712,-141.34 712,-169 712,-169 712,-169 537.9,-169 537.9,-169"/>
<polygon fill="black" stroke="black" points="537.9,-165.5 527.9,-169 537.9,-172.5 537.9,-165.5"/>
</g>
<!-- LoginModule -->
<g id="node3" class="node">
<title>LoginModule</title>
<polygon fill="#8dd3c7" stroke="black" points="632.49,-122 629.49,-126 608.49,-126 605.49,-122 539.51,-122 539.51,-86 632.49,-86 632.49,-122"/>
<text text-anchor="middle" x="586" y="-99.8" font-family="Times,serif" font-size="14.00">LoginModule</text>
</g>
<!-- LoginModule&#45;&gt;UserComponentModule -->
<g id="edge3" class="edge">
<title>LoginModule&#45;&gt;UserComponentModule</title>
<path fill="none" stroke="black" d="M586,-122.03C586,-138.4 586,-160 586,-160 586,-160 538.01,-160 538.01,-160"/>
<polygon fill="black" stroke="black" points="538.01,-156.5 528.01,-160 538,-163.5 538.01,-156.5"/>
</g>
<!-- LoginRegisterModule -->
<g id="node4" class="node">
<title>LoginRegisterModule</title>
<polygon fill="#8dd3c7" stroke="black" points="521.65,-122 518.65,-126 497.65,-126 494.65,-122 382.35,-122 382.35,-86 521.65,-86 521.65,-122"/>
<text text-anchor="middle" x="452" y="-99.8" font-family="Times,serif" font-size="14.00">LoginRegisterModule</text>
</g>
<!-- LoginRegisterModule&#45;&gt;UserComponentModule -->
<g id="edge4" class="edge">
<title>LoginRegisterModule&#45;&gt;UserComponentModule</title>
<path fill="none" stroke="black" d="M452,-122.11C452,-122.11 452,-140.99 452,-140.99"/>
<polygon fill="black" stroke="black" points="448.5,-140.99 452,-150.99 455.5,-140.99 448.5,-140.99"/>
</g>
<!-- LoginRouteModule -->
<g id="node5" class="node">
<title>LoginRouteModule</title>
<polygon fill="#8dd3c7" stroke="black" points="364.44,-122 361.44,-126 340.44,-126 337.44,-122 237.56,-122 237.56,-86 364.44,-86 364.44,-122"/>
<text text-anchor="middle" x="301" y="-99.8" font-family="Times,serif" font-size="14.00">LoginRouteModule</text>
</g>
<!-- LoginRouteModule&#45;&gt;UserComponentModule -->
<g id="edge5" class="edge">
<title>LoginRouteModule&#45;&gt;UserComponentModule</title>
<path fill="none" stroke="black" d="M301,-122.03C301,-138.4 301,-160 301,-160 301,-160 366.06,-160 366.06,-160"/>
<polygon fill="black" stroke="black" points="366.06,-163.5 376.06,-160 366.06,-156.5 366.06,-163.5"/>
</g>
<!-- LogoutModule -->
<g id="node6" class="node">
<title>LogoutModule</title>
<polygon fill="#8dd3c7" stroke="black" points="219.99,-122 216.99,-126 195.99,-126 192.99,-122 120.01,-122 120.01,-86 219.99,-86 219.99,-122"/>
<text text-anchor="middle" x="170" y="-99.8" font-family="Times,serif" font-size="14.00">LogoutModule</text>
</g>
<!-- LogoutModule&#45;&gt;UserComponentModule -->
<g id="edge6" class="edge">
<title>LogoutModule&#45;&gt;UserComponentModule</title>
<path fill="none" stroke="black" d="M170,-122.11C170,-141.34 170,-169 170,-169 170,-169 366.06,-169 366.06,-169"/>
<polygon fill="black" stroke="black" points="366.06,-172.5 376.06,-169 366.06,-165.5 366.06,-172.5"/>
</g>
<!-- UrlModule -->
<g id="node7" class="node">
<title>UrlModule</title>
<polygon fill="#8dd3c7" stroke="black" points="102.21,-122 99.21,-126 78.21,-126 75.21,-122 23.79,-122 23.79,-86 102.21,-86 102.21,-122"/>
<text text-anchor="middle" x="63" y="-99.8" font-family="Times,serif" font-size="14.00">UrlModule</text>
</g>
<!-- UrlModule&#45;&gt;UserComponentModule -->
<g id="edge7" class="edge">
<title>UrlModule&#45;&gt;UserComponentModule</title>
<path fill="none" stroke="black" d="M63,-122.29C63,-144.21 63,-178 63,-178 63,-178 366.07,-178 366.07,-178"/>
<polygon fill="black" stroke="black" points="366.07,-181.5 376.07,-178 366.07,-174.5 366.07,-181.5"/>
</g>
</g>
</svg>
