<?xml version="1.0" encoding="UTF-8" standalone="no"?>
<!DOCTYPE svg PUBLIC "-//W3C//DTD SVG 1.1//EN"
 "http://www.w3.org/Graphics/SVG/1.1/DTD/svg11.dtd">
<!-- Generated by graphviz version 2.47.0 (20210316.0004)
 -->
<!-- Title: dependencies Pages: 1 -->
<svg width="581pt" height="284pt"
 viewBox="0.00 0.00 581.00 284.00" xmlns="http://www.w3.org/2000/svg" xmlns:xlink="http://www.w3.org/1999/xlink">
<g id="graph0" class="graph" transform="scale(1 1) rotate(0) translate(4 280)">
<title>dependencies</title>
<polygon fill="white" stroke="transparent" points="-4,4 -4,-280 577,-280 577,4 -4,4"/>
<text text-anchor="start" x="265.51" y="-42.4" font-family="sans-serif" font-weight="bold" font-size="14.00">Legend</text>
<polygon fill="#ffffb3" stroke="transparent" points="52.5,-10 52.5,-30 72.5,-30 72.5,-10 52.5,-10"/>
<text text-anchor="start" x="76.13" y="-15.4" font-family="sans-serif" font-size="14.00"> &#160;Declarations</text>
<polygon fill="#8dd3c7" stroke="transparent" points="165.5,-10 165.5,-30 185.5,-30 185.5,-10 165.5,-10"/>
<text text-anchor="start" x="189.23" y="-15.4" font-family="sans-serif" font-size="14.00"> &#160;Module</text>
<polygon fill="#80b1d3" stroke="transparent" points="251.5,-10 251.5,-30 271.5,-30 271.5,-10 251.5,-10"/>
<text text-anchor="start" x="275.28" y="-15.4" font-family="sans-serif" font-size="14.00"> &#160;Bootstrap</text>
<polygon fill="#fdb462" stroke="transparent" points="348.5,-10 348.5,-30 368.5,-30 368.5,-10 348.5,-10"/>
<text text-anchor="start" x="372.17" y="-15.4" font-family="sans-serif" font-size="14.00"> &#160;Providers</text>
<polygon fill="#fb8072" stroke="transparent" points="444.5,-10 444.5,-30 464.5,-30 464.5,-10 444.5,-10"/>
<text text-anchor="start" x="468.23" y="-15.4" font-family="sans-serif" font-size="14.00"> &#160;Exports</text>
<g id="clust1" class="cluster">
<title>cluster_ProductImagesModule</title>
<polygon fill="none" stroke="black" stroke-dasharray="1,5" points="8,-70 8,-268 565,-268 565,-70 8,-70"/>
</g>
<g id="clust5" class="cluster">
<title>cluster_ProductImagesModule_exports</title>
<polygon fill="none" stroke="black" points="152,-208 152,-260 336,-260 336,-208 152,-208"/>
</g>
<g id="clust2" class="cluster">
<title>cluster_ProductImagesModule_declarations</title>
<polygon fill="none" stroke="black" points="375,-78 375,-130 557,-130 557,-78 375,-78"/>
</g>
<g id="clust4" class="cluster">
<title>cluster_ProductImagesModule_imports</title>
<polygon fill="none" stroke="black" points="16,-78 16,-130 367,-130 367,-78 16,-78"/>
</g>
<!-- ProductImagesComponent -->
<g id="node1" class="node">
<title>ProductImagesComponent</title>
<polygon fill="#ffffb3" stroke="black" points="548.81,-122 383.19,-122 383.19,-86 548.81,-86 548.81,-122"/>
<text text-anchor="middle" x="466" y="-99.8" font-family="Times,serif" font-size="14.00">ProductImagesComponent</text>
</g>
<!-- ProductImagesModule -->
<g id="node2" class="node">
<title>ProductImagesModule</title>
<polygon fill="#8dd3c7" stroke="black" points="315.52,-187 312.52,-191 291.52,-191 288.52,-187 172.48,-187 172.48,-151 315.52,-151 315.52,-187"/>
<text text-anchor="middle" x="244" y="-164.8" font-family="Times,serif" font-size="14.00">ProductImagesModule</text>
</g>
<!-- ProductImagesComponent&#45;&gt;ProductImagesModule -->
<g id="edge1" class="edge">
<title>ProductImagesComponent&#45;&gt;ProductImagesModule</title>
<path fill="none" stroke="black" d="M466,-122.11C466,-141.34 466,-169 466,-169 466,-169 325.77,-169 325.77,-169"/>
<polygon fill="black" stroke="black" points="325.77,-165.5 315.77,-169 325.77,-172.5 325.77,-165.5"/>
</g>
<!-- ProductImagesComponent  -->
<g id="node6" class="node">
<title>ProductImagesComponent </title>
<polygon fill="#fb8072" stroke="black" points="328.31,-252 159.69,-252 159.69,-216 328.31,-216 328.31,-252"/>
<text text-anchor="middle" x="244" y="-229.8" font-family="Times,serif" font-size="14.00">ProductImagesComponent </text>
</g>
<!-- ProductImagesModule&#45;&gt;ProductImagesComponent  -->
<g id="edge5" class="edge">
<title>ProductImagesModule&#45;&gt;ProductImagesComponent </title>
<path fill="none" stroke="black" stroke-dasharray="5,2" d="M244,-187.11C244,-187.11 244,-205.99 244,-205.99"/>
<polygon fill="black" stroke="black" points="240.5,-205.99 244,-215.99 247.5,-205.99 240.5,-205.99"/>
</g>
<!-- CarouselModule -->
<g id="node3" class="node">
<title>CarouselModule</title>
<polygon fill="#8dd3c7" stroke="black" points="358.81,-122 355.81,-126 334.81,-126 331.81,-122 249.19,-122 249.19,-86 358.81,-86 358.81,-122"/>
<text text-anchor="middle" x="304" y="-99.8" font-family="Times,serif" font-size="14.00">CarouselModule</text>
</g>
<!-- CarouselModule&#45;&gt;ProductImagesModule -->
<g id="edge2" class="edge">
<title>CarouselModule&#45;&gt;ProductImagesModule</title>
<path fill="none" stroke="black" d="M282.55,-122.11C282.55,-122.11 282.55,-140.99 282.55,-140.99"/>
<polygon fill="black" stroke="black" points="279.05,-140.99 282.55,-150.99 286.05,-140.99 279.05,-140.99"/>
</g>
<!-- MediaModule -->
<g id="node4" class="node">
<title>MediaModule</title>
<polygon fill="#8dd3c7" stroke="black" points="231.81,-122 228.81,-126 207.81,-126 204.81,-122 136.19,-122 136.19,-86 231.81,-86 231.81,-122"/>
<text text-anchor="middle" x="184" y="-99.8" font-family="Times,serif" font-size="14.00">MediaModule</text>
</g>
<!-- MediaModule&#45;&gt;ProductImagesModule -->
<g id="edge3" class="edge">
<title>MediaModule&#45;&gt;ProductImagesModule</title>
<path fill="none" stroke="black" d="M201.95,-122.11C201.95,-122.11 201.95,-140.99 201.95,-140.99"/>
<polygon fill="black" stroke="black" points="198.45,-140.99 201.95,-150.99 205.45,-140.99 198.45,-140.99"/>
</g>
<!-- OutletModule -->
<g id="node5" class="node">
<title>OutletModule</title>
<polygon fill="#8dd3c7" stroke="black" points="118.04,-122 115.04,-126 94.04,-126 91.04,-122 23.96,-122 23.96,-86 118.04,-86 118.04,-122"/>
<text text-anchor="middle" x="71" y="-99.8" font-family="Times,serif" font-size="14.00">OutletModule</text>
</g>
<!-- OutletModule&#45;&gt;ProductImagesModule -->
<g id="edge4" class="edge">
<title>OutletModule&#45;&gt;ProductImagesModule</title>
<path fill="none" stroke="black" d="M71,-122.11C71,-141.34 71,-169 71,-169 71,-169 162.39,-169 162.39,-169"/>
<polygon fill="black" stroke="black" points="162.39,-172.5 172.39,-169 162.39,-165.5 162.39,-172.5"/>
</g>
</g>
</svg>
