<?xml version="1.0" encoding="UTF-8" standalone="no"?>
<!DOCTYPE svg PUBLIC "-//W3C//DTD SVG 1.1//EN"
 "http://www.w3.org/Graphics/SVG/1.1/DTD/svg11.dtd">
<!-- Generated by graphviz version 2.40.1 (20161225.0304)
 -->
<!-- Title: dependencies Pages: 1 -->
<svg width="2743pt" height="284pt"
 viewBox="0.00 0.00 2743.00 284.00" xmlns="http://www.w3.org/2000/svg" xmlns:xlink="http://www.w3.org/1999/xlink">
<g id="graph0" class="graph" transform="scale(1 1) rotate(0) translate(4 280)">
<title>dependencies</title>
<polygon fill="#ffffff" stroke="transparent" points="-4,4 -4,-280 2739,-280 2739,4 -4,4"/>
<text text-anchor="start" x="1346.5091" y="-42.4" font-family="sans-serif" font-weight="bold" font-size="14.00" fill="#000000">Legend</text>
<polygon fill="#ffffb3" stroke="transparent" points="1133.5,-10 1133.5,-30 1153.5,-30 1153.5,-10 1133.5,-10"/>
<text text-anchor="start" x="1157.129" y="-15.4" font-family="sans-serif" font-size="14.00" fill="#000000"> &#160;Declarations</text>
<polygon fill="#8dd3c7" stroke="transparent" points="1246.5,-10 1246.5,-30 1266.5,-30 1266.5,-10 1246.5,-10"/>
<text text-anchor="start" x="1270.2251" y="-15.4" font-family="sans-serif" font-size="14.00" fill="#000000"> &#160;Module</text>
<polygon fill="#80b1d3" stroke="transparent" points="1332.5,-10 1332.5,-30 1352.5,-30 1352.5,-10 1332.5,-10"/>
<text text-anchor="start" x="1356.2812" y="-15.4" font-family="sans-serif" font-size="14.00" fill="#000000"> &#160;Bootstrap</text>
<polygon fill="#fdb462" stroke="transparent" points="1429.5,-10 1429.5,-30 1449.5,-30 1449.5,-10 1429.5,-10"/>
<text text-anchor="start" x="1453.1732" y="-15.4" font-family="sans-serif" font-size="14.00" fill="#000000"> &#160;Providers</text>
<polygon fill="#fb8072" stroke="transparent" points="1525.5,-10 1525.5,-30 1545.5,-30 1545.5,-10 1525.5,-10"/>
<text text-anchor="start" x="1549.2258" y="-15.4" font-family="sans-serif" font-size="14.00" fill="#000000"> &#160;Exports</text>
<g id="clust1" class="cluster">
<title>cluster_StorefrontFoundationModule</title>
<polygon fill="none" stroke="#000000" stroke-dasharray="1,5" points="8,-70 8,-268 2727,-268 2727,-70 8,-70"/>
</g>
<g id="clust3" class="cluster">
<title>cluster_StorefrontFoundationModule_imports</title>
<polygon fill="none" stroke="#000000" points="16,-78 16,-130 2719,-130 2719,-78 16,-78"/>
</g>
<g id="clust4" class="cluster">
<title>cluster_StorefrontFoundationModule_exports</title>
<polygon fill="none" stroke="#000000" points="1204,-208 1204,-260 1322,-260 1322,-208 1204,-208"/>
</g>
<!-- AnonymousConsentsModule -->
<g id="node1" class="node">
<title>AnonymousConsentsModule</title>
<polygon fill="#8dd3c7" stroke="#000000" points="2710.8229,-122 2707.8229,-126 2686.8229,-126 2683.8229,-122 2531.1771,-122 2531.1771,-86 2710.8229,-86 2710.8229,-122"/>
<text text-anchor="middle" x="2621" y="-99.8" font-family="Times,serif" font-size="14.00" fill="#000000">AnonymousConsentsModule</text>
</g>
<!-- StorefrontFoundationModule -->
<g id="node22" class="node">
<title>StorefrontFoundationModule</title>
<polygon fill="#8dd3c7" stroke="#000000" points="1353.0884,-187 1350.0884,-191 1329.0884,-191 1326.0884,-187 1172.9116,-187 1172.9116,-151 1353.0884,-151 1353.0884,-187"/>
<text text-anchor="middle" x="1263" y="-164.8" font-family="Times,serif" font-size="14.00" fill="#000000">StorefrontFoundationModule</text>
</g>
<!-- AnonymousConsentsModule&#45;&gt;StorefrontFoundationModule -->
<g id="edge1" class="edge">
<title>AnonymousConsentsModule&#45;&gt;StorefrontFoundationModule</title>
<path fill="none" stroke="#000000" d="M2621,-122.1532C2621,-145.7566 2621,-184 2621,-184 2621,-184 1363.1539,-184 1363.1539,-184"/>
<polygon fill="#000000" stroke="#000000" points="1363.1539,-180.5001 1353.1539,-184 1363.1538,-187.5001 1363.1539,-180.5001"/>
</g>
<!-- AuthModule -->
<g id="node2" class="node">
<title>AuthModule</title>
<polygon fill="#8dd3c7" stroke="#000000" points="2513.5482,-122 2510.5482,-126 2489.5482,-126 2486.5482,-122 2426.4518,-122 2426.4518,-86 2513.5482,-86 2513.5482,-122"/>
<text text-anchor="middle" x="2470" y="-99.8" font-family="Times,serif" font-size="14.00" fill="#000000">AuthModule</text>
</g>
<!-- AuthModule&#45;&gt;StorefrontFoundationModule -->
<g id="edge2" class="edge">
<title>AuthModule&#45;&gt;StorefrontFoundationModule</title>
<path fill="none" stroke="#000000" d="M2470,-122.0109C2470,-144.4852 2470,-180 2470,-180 2470,-180 1363.2276,-180 1363.2276,-180"/>
<polygon fill="#000000" stroke="#000000" points="1363.2276,-176.5001 1353.2276,-180 1363.2275,-183.5001 1363.2276,-176.5001"/>
</g>
<!-- CartModule -->
<g id="node3" class="node">
<title>CartModule</title>
<polygon fill="#8dd3c7" stroke="#000000" points="2407.6529,-122 2404.6529,-126 2383.6529,-126 2380.6529,-122 2324.3471,-122 2324.3471,-86 2407.6529,-86 2407.6529,-122"/>
<text text-anchor="middle" x="2366" y="-99.8" font-family="Times,serif" font-size="14.00" fill="#000000">CartModule</text>
</g>
<!-- CartModule&#45;&gt;StorefrontFoundationModule -->
<g id="edge3" class="edge">
<title>CartModule&#45;&gt;StorefrontFoundationModule</title>
<path fill="none" stroke="#000000" d="M2366,-122.0449C2366,-143.6623 2366,-177 2366,-177 2366,-177 1363.2631,-177 1363.2631,-177"/>
<polygon fill="#000000" stroke="#000000" points="1363.2632,-173.5001 1353.2631,-177 1363.2631,-180.5001 1363.2632,-173.5001"/>
</g>
<!-- CheckoutModule -->
<g id="node4" class="node">
<title>CheckoutModule</title>
<polygon fill="#8dd3c7" stroke="#000000" points="2306.7064,-122 2303.7064,-126 2282.7064,-126 2279.7064,-122 2193.2936,-122 2193.2936,-86 2306.7064,-86 2306.7064,-122"/>
<text text-anchor="middle" x="2250" y="-99.8" font-family="Times,serif" font-size="14.00" fill="#000000">CheckoutModule</text>
</g>
<!-- CheckoutModule&#45;&gt;StorefrontFoundationModule -->
<g id="edge4" class="edge">
<title>CheckoutModule&#45;&gt;StorefrontFoundationModule</title>
<path fill="none" stroke="#000000" d="M2250,-122.1289C2250,-142.5724 2250,-173 2250,-173 2250,-173 1363.2062,-173 1363.2062,-173"/>
<polygon fill="#000000" stroke="#000000" points="1363.2062,-169.5001 1353.2062,-173 1363.2061,-176.5001 1363.2062,-169.5001"/>
</g>
<!-- CmsModule -->
<g id="node5" class="node">
<title>CmsModule</title>
<polygon fill="#8dd3c7" stroke="#000000" points="2175.7219,-122 2172.7219,-126 2151.7219,-126 2148.7219,-122 2090.2781,-122 2090.2781,-86 2175.7219,-86 2175.7219,-122"/>
<text text-anchor="middle" x="2133" y="-99.8" font-family="Times,serif" font-size="14.00" fill="#000000">CmsModule</text>
</g>
<!-- CmsModule&#45;&gt;StorefrontFoundationModule -->
<g id="edge5" class="edge">
<title>CmsModule&#45;&gt;StorefrontFoundationModule</title>
<path fill="none" stroke="#000000" d="M2133,-122.1061C2133,-141.3391 2133,-169 2133,-169 2133,-169 1363.2354,-169 1363.2354,-169"/>
<polygon fill="#000000" stroke="#000000" points="1363.2355,-165.5001 1353.2354,-169 1363.2354,-172.5001 1363.2355,-165.5001"/>
</g>
<!-- ConfigInitializerModule -->
<g id="node6" class="node">
<title>ConfigInitializerModule</title>
<polygon fill="#8dd3c7" stroke="#000000" points="2072.3557,-122 2069.3557,-126 2048.3557,-126 2045.3557,-122 1919.6443,-122 1919.6443,-86 2072.3557,-86 2072.3557,-122"/>
<text text-anchor="middle" x="1996" y="-99.8" font-family="Times,serif" font-size="14.00" fill="#000000">ConfigInitializerModule</text>
</g>
<!-- ConfigInitializerModule&#45;&gt;StorefrontFoundationModule -->
<g id="edge6" class="edge">
<title>ConfigInitializerModule&#45;&gt;StorefrontFoundationModule</title>
<path fill="none" stroke="#000000" d="M1996,-122.2667C1996,-140.5552 1996,-166 1996,-166 1996,-166 1363.2475,-166 1363.2475,-166"/>
<polygon fill="#000000" stroke="#000000" points="1363.2475,-162.5001 1353.2475,-166 1363.2474,-169.5001 1363.2475,-162.5001"/>
</g>
<!-- ConfigModule -->
<g id="node7" class="node">
<title>ConfigModule</title>
<polygon fill="#8dd3c7" stroke="#000000" points="1901.4386,-122 1898.4386,-126 1877.4386,-126 1874.4386,-122 1802.5614,-122 1802.5614,-86 1901.4386,-86 1901.4386,-122"/>
<text text-anchor="middle" x="1852" y="-99.8" font-family="Times,serif" font-size="14.00" fill="#000000">ConfigModule</text>
</g>
<!-- ConfigModule&#45;&gt;StorefrontFoundationModule -->
<g id="edge7" class="edge">
<title>ConfigModule&#45;&gt;StorefrontFoundationModule</title>
<path fill="none" stroke="#000000" d="M1852,-122.0336C1852,-139.0597 1852,-162 1852,-162 1852,-162 1363.0976,-162 1363.0976,-162"/>
<polygon fill="#000000" stroke="#000000" points="1363.0976,-158.5001 1353.0976,-162 1363.0975,-165.5001 1363.0976,-158.5001"/>
</g>
<!-- ConfigValidatorModule -->
<g id="node8" class="node">
<title>ConfigValidatorModule</title>
<polygon fill="#8dd3c7" stroke="#000000" points="1784.8061,-122 1781.8061,-126 1760.8061,-126 1757.8061,-122 1633.1939,-122 1633.1939,-86 1784.8061,-86 1784.8061,-122"/>
<text text-anchor="middle" x="1709" y="-99.8" font-family="Times,serif" font-size="14.00" fill="#000000">ConfigValidatorModule</text>
</g>
<!-- ConfigValidatorModule&#45;&gt;StorefrontFoundationModule -->
<g id="edge8" class="edge">
<title>ConfigValidatorModule&#45;&gt;StorefrontFoundationModule</title>
<path fill="none" stroke="#000000" d="M1709,-122.0091C1709,-138.0494 1709,-159 1709,-159 1709,-159 1363.2548,-159 1363.2548,-159"/>
<polygon fill="#000000" stroke="#000000" points="1363.2548,-155.5001 1353.2548,-159 1363.2547,-162.5001 1363.2548,-155.5001"/>
</g>
<!-- EventsModule -->
<g id="node9" class="node">
<title>EventsModule</title>
<polygon fill="#8dd3c7" stroke="#000000" points="1615.6528,-122 1612.6528,-126 1591.6528,-126 1588.6528,-122 1518.3472,-122 1518.3472,-86 1615.6528,-86 1615.6528,-122"/>
<text text-anchor="middle" x="1567" y="-99.8" font-family="Times,serif" font-size="14.00" fill="#000000">EventsModule</text>
</g>
<!-- EventsModule&#45;&gt;StorefrontFoundationModule -->
<g id="edge9" class="edge">
<title>EventsModule&#45;&gt;StorefrontFoundationModule</title>
<path fill="none" stroke="#000000" d="M1567,-122.1243C1567,-136.7832 1567,-155 1567,-155 1567,-155 1363.3869,-155 1363.3869,-155"/>
<polygon fill="#000000" stroke="#000000" points="1363.387,-151.5001 1353.3869,-155 1363.3869,-158.5001 1363.387,-151.5001"/>
</g>
<!-- FeaturesConfigModule -->
<g id="node10" class="node">
<title>FeaturesConfigModule</title>
<polygon fill="#8dd3c7" stroke="#000000" points="1499.8599,-122 1496.8599,-126 1475.8599,-126 1472.8599,-122 1354.1401,-122 1354.1401,-86 1499.8599,-86 1499.8599,-122"/>
<text text-anchor="middle" x="1427" y="-99.8" font-family="Times,serif" font-size="14.00" fill="#000000">FeaturesConfigModule</text>
</g>
<!-- FeaturesConfigModule&#45;&gt;StorefrontFoundationModule -->
<g id="edge10" class="edge">
<title>FeaturesConfigModule&#45;&gt;StorefrontFoundationModule</title>
<path fill="none" stroke="#000000" d="M1354.1228,-104C1348.3424,-104 1344.6796,-104 1344.6796,-104 1344.6796,-104 1344.6796,-140.8939 1344.6796,-140.8939"/>
<polygon fill="#000000" stroke="#000000" points="1341.1796,-140.8938 1344.6796,-150.8939 1348.1796,-140.8939 1341.1796,-140.8938"/>
</g>
<!-- GlobalMessageModule -->
<g id="node11" class="node">
<title>GlobalMessageModule</title>
<polygon fill="#8dd3c7" stroke="#000000" points="1336.1303,-122 1333.1303,-126 1312.1303,-126 1309.1303,-122 1189.8697,-122 1189.8697,-86 1336.1303,-86 1336.1303,-122"/>
<text text-anchor="middle" x="1263" y="-99.8" font-family="Times,serif" font-size="14.00" fill="#000000">GlobalMessageModule</text>
</g>
<!-- GlobalMessageModule&#45;&gt;StorefrontFoundationModule -->
<g id="edge11" class="edge">
<title>GlobalMessageModule&#45;&gt;StorefrontFoundationModule</title>
<path fill="none" stroke="#000000" d="M1263,-122.1061C1263,-122.1061 1263,-140.991 1263,-140.991"/>
<polygon fill="#000000" stroke="#000000" points="1259.5001,-140.9909 1263,-150.991 1266.5001,-140.991 1259.5001,-140.9909"/>
</g>
<!-- I18nModule -->
<g id="node12" class="node">
<title>I18nModule</title>
<polygon fill="#8dd3c7" stroke="#000000" points="1171.7107,-122 1168.7107,-126 1147.7107,-126 1144.7107,-122 1086.2893,-122 1086.2893,-86 1171.7107,-86 1171.7107,-122"/>
<text text-anchor="middle" x="1129" y="-99.8" font-family="Times,serif" font-size="14.00" fill="#000000">I18nModule</text>
</g>
<!-- I18nModule&#45;&gt;StorefrontFoundationModule -->
<g id="edge12" class="edge">
<title>I18nModule&#45;&gt;StorefrontFoundationModule</title>
<path fill="none" stroke="#000000" d="M1171.7241,-104C1177.4086,-104 1181.3205,-104 1181.3205,-104 1181.3205,-104 1181.3205,-140.8939 1181.3205,-140.8939"/>
<polygon fill="#000000" stroke="#000000" points="1177.8205,-140.8938 1181.3205,-150.8939 1184.8205,-140.8939 1177.8205,-140.8938"/>
</g>
<!-- LayoutModule -->
<g id="node13" class="node">
<title>LayoutModule</title>
<polygon fill="#8dd3c7" stroke="#000000" points="1068.7078,-122 1065.7078,-126 1044.7078,-126 1041.7078,-122 969.2922,-122 969.2922,-86 1068.7078,-86 1068.7078,-122"/>
<text text-anchor="middle" x="1019" y="-99.8" font-family="Times,serif" font-size="14.00" fill="#000000">LayoutModule</text>
</g>
<!-- LayoutModule&#45;&gt;StorefrontFoundationModule -->
<g id="edge13" class="edge">
<title>LayoutModule&#45;&gt;StorefrontFoundationModule</title>
<path fill="none" stroke="#000000" d="M1019,-122.1243C1019,-136.7832 1019,-155 1019,-155 1019,-155 1162.8366,-155 1162.8366,-155"/>
<polygon fill="#000000" stroke="#000000" points="1162.8367,-158.5001 1172.8366,-155 1162.8366,-151.5001 1162.8367,-158.5001"/>
</g>
<!-- MediaModule -->
<g id="node14" class="node">
<title>MediaModule</title>
<polygon fill="#8dd3c7" stroke="#000000" points="951.8147,-122 948.8147,-126 927.8147,-126 924.8147,-122 856.1853,-122 856.1853,-86 951.8147,-86 951.8147,-122"/>
<text text-anchor="middle" x="904" y="-99.8" font-family="Times,serif" font-size="14.00" fill="#000000">MediaModule</text>
</g>
<!-- MediaModule&#45;&gt;StorefrontFoundationModule -->
<g id="edge14" class="edge">
<title>MediaModule&#45;&gt;StorefrontFoundationModule</title>
<path fill="none" stroke="#000000" d="M904,-122.0091C904,-138.0494 904,-159 904,-159 904,-159 1162.8725,-159 1162.8725,-159"/>
<polygon fill="#000000" stroke="#000000" points="1162.8726,-162.5001 1172.8725,-159 1162.8725,-155.5001 1162.8726,-162.5001"/>
</g>
<!-- OutletModule -->
<g id="node15" class="node">
<title>OutletModule</title>
<polygon fill="#8dd3c7" stroke="#000000" points="838.0439,-122 835.0439,-126 814.0439,-126 811.0439,-122 743.9561,-122 743.9561,-86 838.0439,-86 838.0439,-122"/>
<text text-anchor="middle" x="791" y="-99.8" font-family="Times,serif" font-size="14.00" fill="#000000">OutletModule</text>
</g>
<!-- OutletModule&#45;&gt;StorefrontFoundationModule -->
<g id="edge15" class="edge">
<title>OutletModule&#45;&gt;StorefrontFoundationModule</title>
<path fill="none" stroke="#000000" d="M791,-122.0336C791,-139.0597 791,-162 791,-162 791,-162 1162.8309,-162 1162.8309,-162"/>
<polygon fill="#000000" stroke="#000000" points="1162.831,-165.5001 1172.8309,-162 1162.8309,-158.5001 1162.831,-165.5001"/>
</g>
<!-- ProcessModule -->
<g id="node16" class="node">
<title>ProcessModule</title>
<polygon fill="#8dd3c7" stroke="#000000" points="726.3119,-122 723.3119,-126 702.3119,-126 699.3119,-122 623.6881,-122 623.6881,-86 726.3119,-86 726.3119,-122"/>
<text text-anchor="middle" x="675" y="-99.8" font-family="Times,serif" font-size="14.00" fill="#000000">ProcessModule</text>
</g>
<!-- ProcessModule&#45;&gt;StorefrontFoundationModule -->
<g id="edge16" class="edge">
<title>ProcessModule&#45;&gt;StorefrontFoundationModule</title>
<path fill="none" stroke="#000000" d="M675,-122.2667C675,-140.5552 675,-166 675,-166 675,-166 1162.7347,-166 1162.7347,-166"/>
<polygon fill="#000000" stroke="#000000" points="1162.7348,-169.5001 1172.7347,-166 1162.7347,-162.5001 1162.7348,-169.5001"/>
</g>
<!-- ProductModule -->
<g id="node17" class="node">
<title>ProductModule</title>
<polygon fill="#8dd3c7" stroke="#000000" points="605.5982,-122 602.5982,-126 581.5982,-126 578.5982,-122 502.4018,-122 502.4018,-86 605.5982,-86 605.5982,-122"/>
<text text-anchor="middle" x="554" y="-99.8" font-family="Times,serif" font-size="14.00" fill="#000000">ProductModule</text>
</g>
<!-- ProductModule&#45;&gt;StorefrontFoundationModule -->
<g id="edge17" class="edge">
<title>ProductModule&#45;&gt;StorefrontFoundationModule</title>
<path fill="none" stroke="#000000" d="M554,-122.1061C554,-141.3391 554,-169 554,-169 554,-169 1162.8449,-169 1162.8449,-169"/>
<polygon fill="#000000" stroke="#000000" points="1162.8449,-172.5001 1172.8449,-169 1162.8448,-165.5001 1162.8449,-172.5001"/>
</g>
<!-- RoutingModule -->
<g id="node18" class="node">
<title>RoutingModule</title>
<polygon fill="#8dd3c7" stroke="#000000" points="484.1681,-122 481.1681,-126 460.1681,-126 457.1681,-122 379.8319,-122 379.8319,-86 484.1681,-86 484.1681,-122"/>
<text text-anchor="middle" x="432" y="-99.8" font-family="Times,serif" font-size="14.00" fill="#000000">RoutingModule</text>
</g>
<!-- RoutingModule&#45;&gt;StorefrontFoundationModule -->
<g id="edge18" class="edge">
<title>RoutingModule&#45;&gt;StorefrontFoundationModule</title>
<path fill="none" stroke="#000000" d="M432,-122.1289C432,-142.5724 432,-173 432,-173 432,-173 1162.8831,-173 1162.8831,-173"/>
<polygon fill="#000000" stroke="#000000" points="1162.8831,-176.5001 1172.8831,-173 1162.883,-169.5001 1162.8831,-176.5001"/>
</g>
<!-- StateModule -->
<g id="node19" class="node">
<title>StateModule</title>
<polygon fill="#8dd3c7" stroke="#000000" points="361.544,-122 358.544,-126 337.544,-126 334.544,-122 274.456,-122 274.456,-86 361.544,-86 361.544,-122"/>
<text text-anchor="middle" x="318" y="-99.8" font-family="Times,serif" font-size="14.00" fill="#000000">StateModule</text>
</g>
<!-- StateModule&#45;&gt;StorefrontFoundationModule -->
<g id="edge19" class="edge">
<title>StateModule&#45;&gt;StorefrontFoundationModule</title>
<path fill="none" stroke="#000000" d="M318,-122.0449C318,-143.6623 318,-177 318,-177 318,-177 1162.8175,-177 1162.8175,-177"/>
<polygon fill="#000000" stroke="#000000" points="1162.8175,-180.5001 1172.8175,-177 1162.8175,-173.5001 1162.8175,-180.5001"/>
</g>
<!-- UserModule -->
<g id="node20" class="node">
<title>UserModule</title>
<polygon fill="#8dd3c7" stroke="#000000" points="255.9762,-122 252.9762,-126 231.9762,-126 228.9762,-122 170.0238,-122 170.0238,-86 255.9762,-86 255.9762,-122"/>
<text text-anchor="middle" x="213" y="-99.8" font-family="Times,serif" font-size="14.00" fill="#000000">UserModule</text>
</g>
<!-- UserModule&#45;&gt;StorefrontFoundationModule -->
<g id="edge20" class="edge">
<title>UserModule&#45;&gt;StorefrontFoundationModule</title>
<path fill="none" stroke="#000000" d="M213,-122.0109C213,-144.4852 213,-180 213,-180 213,-180 1162.5688,-180 1162.5688,-180"/>
<polygon fill="#000000" stroke="#000000" points="1162.5688,-183.5001 1172.5688,-180 1162.5688,-176.5001 1162.5688,-183.5001"/>
</g>
<!-- ViewConfigModule -->
<g id="node21" class="node">
<title>ViewConfigModule</title>
<polygon fill="#8dd3c7" stroke="#000000" points="152.2562,-122 149.2562,-126 128.2562,-126 125.2562,-122 23.7438,-122 23.7438,-86 152.2562,-86 152.2562,-122"/>
<text text-anchor="middle" x="88" y="-99.8" font-family="Times,serif" font-size="14.00" fill="#000000">ViewConfigModule</text>
</g>
<!-- ViewConfigModule&#45;&gt;StorefrontFoundationModule -->
<g id="edge21" class="edge">
<title>ViewConfigModule&#45;&gt;StorefrontFoundationModule</title>
<path fill="none" stroke="#000000" d="M88,-122.1532C88,-145.7566 88,-184 88,-184 88,-184 1162.7508,-184 1162.7508,-184"/>
<polygon fill="#000000" stroke="#000000" points="1162.7508,-187.5001 1172.7508,-184 1162.7507,-180.5001 1162.7508,-187.5001"/>
</g>
<!-- LayoutModule  -->
<g id="node23" class="node">
<title>LayoutModule </title>
<polygon fill="#fb8072" stroke="#000000" points="1314.208,-252 1211.792,-252 1211.792,-216 1314.208,-216 1314.208,-252"/>
<text text-anchor="middle" x="1263" y="-229.8" font-family="Times,serif" font-size="14.00" fill="#000000">LayoutModule </text>
</g>
<!-- StorefrontFoundationModule&#45;&gt;LayoutModule  -->
<g id="edge22" class="edge">
<title>StorefrontFoundationModule&#45;&gt;LayoutModule </title>
<path fill="none" stroke="#000000" stroke-dasharray="5,2" d="M1263,-187.1061C1263,-187.1061 1263,-205.991 1263,-205.991"/>
<polygon fill="#000000" stroke="#000000" points="1259.5001,-205.9909 1263,-215.991 1266.5001,-205.991 1259.5001,-205.9909"/>
</g>
</g>
</svg>
