<?xml version="1.0" encoding="UTF-8" standalone="no"?>
<!DOCTYPE svg PUBLIC "-//W3C//DTD SVG 1.1//EN"
 "http://www.w3.org/Graphics/SVG/1.1/DTD/svg11.dtd">
<!-- Generated by graphviz version 2.40.1 (20161225.0304)
 -->
<!-- Title: dependencies Pages: 1 -->
<svg width="2403pt" height="284pt"
 viewBox="0.00 0.00 2403.00 284.00" xmlns="http://www.w3.org/2000/svg" xmlns:xlink="http://www.w3.org/1999/xlink">
<g id="graph0" class="graph" transform="scale(1 1) rotate(0) translate(4 280)">
<title>dependencies</title>
<polygon fill="#ffffff" stroke="transparent" points="-4,4 -4,-280 2399,-280 2399,4 -4,4"/>
<text text-anchor="start" x="1176.5091" y="-42.4" font-family="sans-serif" font-weight="bold" font-size="14.00" fill="#000000">Legend</text>
<polygon fill="#ffffb3" stroke="transparent" points="963.5,-10 963.5,-30 983.5,-30 983.5,-10 963.5,-10"/>
<text text-anchor="start" x="987.129" y="-15.4" font-family="sans-serif" font-size="14.00" fill="#000000"> &#160;Declarations</text>
<polygon fill="#8dd3c7" stroke="transparent" points="1076.5,-10 1076.5,-30 1096.5,-30 1096.5,-10 1076.5,-10"/>
<text text-anchor="start" x="1100.2251" y="-15.4" font-family="sans-serif" font-size="14.00" fill="#000000"> &#160;Module</text>
<polygon fill="#80b1d3" stroke="transparent" points="1162.5,-10 1162.5,-30 1182.5,-30 1182.5,-10 1162.5,-10"/>
<text text-anchor="start" x="1186.2812" y="-15.4" font-family="sans-serif" font-size="14.00" fill="#000000"> &#160;Bootstrap</text>
<polygon fill="#fdb462" stroke="transparent" points="1259.5,-10 1259.5,-30 1279.5,-30 1279.5,-10 1259.5,-10"/>
<text text-anchor="start" x="1283.1732" y="-15.4" font-family="sans-serif" font-size="14.00" fill="#000000"> &#160;Providers</text>
<polygon fill="#fb8072" stroke="transparent" points="1355.5,-10 1355.5,-30 1375.5,-30 1375.5,-10 1355.5,-10"/>
<text text-anchor="start" x="1379.2258" y="-15.4" font-family="sans-serif" font-size="14.00" fill="#000000"> &#160;Exports</text>
<g id="clust1" class="cluster">
<title>cluster_StorefrontFoundationModule</title>
<polygon fill="none" stroke="#000000" stroke-dasharray="1,5" points="8,-70 8,-268 2387,-268 2387,-70 8,-70"/>
</g>
<g id="clust3" class="cluster">
<title>cluster_StorefrontFoundationModule_imports</title>
<polygon fill="none" stroke="#000000" points="16,-78 16,-130 2379,-130 2379,-78 16,-78"/>
</g>
<g id="clust4" class="cluster">
<title>cluster_StorefrontFoundationModule_exports</title>
<polygon fill="none" stroke="#000000" points="1061,-208 1061,-260 1179,-260 1179,-208 1061,-208"/>
</g>
<!-- AnonymousConsentsModule -->
<g id="node1" class="node">
<title>AnonymousConsentsModule</title>
<polygon fill="#8dd3c7" stroke="#000000" points="2370.8229,-122 2367.8229,-126 2346.8229,-126 2343.8229,-122 2191.1771,-122 2191.1771,-86 2370.8229,-86 2370.8229,-122"/>
<text text-anchor="middle" x="2281" y="-99.8" font-family="Times,serif" font-size="14.00" fill="#000000">AnonymousConsentsModule</text>
</g>
<!-- StorefrontFoundationModule -->
<g id="node19" class="node">
<title>StorefrontFoundationModule</title>
<polygon fill="#8dd3c7" stroke="#000000" points="1210.0884,-187 1207.0884,-191 1186.0884,-191 1183.0884,-187 1029.9116,-187 1029.9116,-151 1210.0884,-151 1210.0884,-187"/>
<text text-anchor="middle" x="1120" y="-164.8" font-family="Times,serif" font-size="14.00" fill="#000000">StorefrontFoundationModule</text>
</g>
<!-- AnonymousConsentsModule&#45;&gt;StorefrontFoundationModule -->
<g id="edge1" class="edge">
<title>AnonymousConsentsModule&#45;&gt;StorefrontFoundationModule</title>
<path fill="none" stroke="#000000" d="M2281,-122.3228C2281,-145.6602 2281,-183 2281,-183 2281,-183 1220.1356,-183 1220.1356,-183"/>
<polygon fill="#000000" stroke="#000000" points="1220.1357,-179.5001 1210.1356,-183 1220.1356,-186.5001 1220.1357,-179.5001"/>
</g>
<!-- AuthModule -->
<g id="node2" class="node">
<title>AuthModule</title>
<polygon fill="#8dd3c7" stroke="#000000" points="2173.5482,-122 2170.5482,-126 2149.5482,-126 2146.5482,-122 2086.4518,-122 2086.4518,-86 2173.5482,-86 2173.5482,-122"/>
<text text-anchor="middle" x="2130" y="-99.8" font-family="Times,serif" font-size="14.00" fill="#000000">AuthModule</text>
</g>
<!-- AuthModule&#45;&gt;StorefrontFoundationModule -->
<g id="edge2" class="edge">
<title>AuthModule&#45;&gt;StorefrontFoundationModule</title>
<path fill="none" stroke="#000000" d="M2130,-122.1554C2130,-144.3519 2130,-179 2130,-179 2130,-179 1220.0747,-179 1220.0747,-179"/>
<polygon fill="#000000" stroke="#000000" points="1220.0748,-175.5001 1210.0747,-179 1220.0747,-182.5001 1220.0748,-175.5001"/>
</g>
<!-- CartModule -->
<g id="node3" class="node">
<title>CartModule</title>
<polygon fill="#8dd3c7" stroke="#000000" points="2067.6529,-122 2064.6529,-126 2043.6529,-126 2040.6529,-122 1984.3471,-122 1984.3471,-86 2067.6529,-86 2067.6529,-122"/>
<text text-anchor="middle" x="2026" y="-99.8" font-family="Times,serif" font-size="14.00" fill="#000000">CartModule</text>
</g>
<!-- CartModule&#45;&gt;StorefrontFoundationModule -->
<g id="edge3" class="edge">
<title>CartModule&#45;&gt;StorefrontFoundationModule</title>
<path fill="none" stroke="#000000" d="M2026,-122.2843C2026,-143.3211 2026,-175 2026,-175 2026,-175 1220.183,-175 1220.183,-175"/>
<polygon fill="#000000" stroke="#000000" points="1220.1831,-171.5001 1210.183,-175 1220.183,-178.5001 1220.1831,-171.5001"/>
</g>
<!-- CheckoutModule -->
<g id="node4" class="node">
<title>CheckoutModule</title>
<polygon fill="#8dd3c7" stroke="#000000" points="1966.7064,-122 1963.7064,-126 1942.7064,-126 1939.7064,-122 1853.2936,-122 1853.2936,-86 1966.7064,-86 1966.7064,-122"/>
<text text-anchor="middle" x="1910" y="-99.8" font-family="Times,serif" font-size="14.00" fill="#000000">CheckoutModule</text>
</g>
<!-- CheckoutModule&#45;&gt;StorefrontFoundationModule -->
<g id="edge4" class="edge">
<title>CheckoutModule&#45;&gt;StorefrontFoundationModule</title>
<path fill="none" stroke="#000000" d="M1910,-122.308C1910,-142.1455 1910,-171 1910,-171 1910,-171 1220.2381,-171 1220.2381,-171"/>
<polygon fill="#000000" stroke="#000000" points="1220.2382,-167.5001 1210.2381,-171 1220.2381,-174.5001 1220.2382,-167.5001"/>
</g>
<!-- CmsModule -->
<g id="node5" class="node">
<title>CmsModule</title>
<polygon fill="#8dd3c7" stroke="#000000" points="1835.7219,-122 1832.7219,-126 1811.7219,-126 1808.7219,-122 1750.2781,-122 1750.2781,-86 1835.7219,-86 1835.7219,-122"/>
<text text-anchor="middle" x="1793" y="-99.8" font-family="Times,serif" font-size="14.00" fill="#000000">CmsModule</text>
</g>
<!-- CmsModule&#45;&gt;StorefrontFoundationModule -->
<g id="edge5" class="edge">
<title>CmsModule&#45;&gt;StorefrontFoundationModule</title>
<path fill="none" stroke="#000000" d="M1793,-122.2222C1793,-140.8285 1793,-167 1793,-167 1793,-167 1220.0654,-167 1220.0654,-167"/>
<polygon fill="#000000" stroke="#000000" points="1220.0655,-163.5001 1210.0654,-167 1220.0654,-170.5001 1220.0655,-163.5001"/>
</g>
<!-- ConfigInitializerModule -->
<g id="node6" class="node">
<title>ConfigInitializerModule</title>
<polygon fill="#8dd3c7" stroke="#000000" points="1732.3557,-122 1729.3557,-126 1708.3557,-126 1705.3557,-122 1579.6443,-122 1579.6443,-86 1732.3557,-86 1732.3557,-122"/>
<text text-anchor="middle" x="1656" y="-99.8" font-family="Times,serif" font-size="14.00" fill="#000000">ConfigInitializerModule</text>
</g>
<!-- ConfigInitializerModule&#45;&gt;StorefrontFoundationModule -->
<g id="edge6" class="edge">
<title>ConfigInitializerModule&#45;&gt;StorefrontFoundationModule</title>
<path fill="none" stroke="#000000" d="M1656,-122.0225C1656,-139.3734 1656,-163 1656,-163 1656,-163 1220.319,-163 1220.319,-163"/>
<polygon fill="#000000" stroke="#000000" points="1220.319,-159.5001 1210.319,-163 1220.319,-166.5001 1220.319,-159.5001"/>
</g>
<!-- ConfigModule -->
<g id="node7" class="node">
<title>ConfigModule</title>
<polygon fill="#8dd3c7" stroke="#000000" points="1561.4386,-122 1558.4386,-126 1537.4386,-126 1534.4386,-122 1462.5614,-122 1462.5614,-86 1561.4386,-86 1561.4386,-122"/>
<text text-anchor="middle" x="1512" y="-99.8" font-family="Times,serif" font-size="14.00" fill="#000000">ConfigModule</text>
</g>
<!-- ConfigModule&#45;&gt;StorefrontFoundationModule -->
<g id="edge7" class="edge">
<title>ConfigModule&#45;&gt;StorefrontFoundationModule</title>
<path fill="none" stroke="#000000" d="M1512,-122.0091C1512,-138.0494 1512,-159 1512,-159 1512,-159 1220.4249,-159 1220.4249,-159"/>
<polygon fill="#000000" stroke="#000000" points="1220.425,-155.5001 1210.4249,-159 1220.4249,-162.5001 1220.425,-155.5001"/>
</g>
<!-- ConfigValidatorModule -->
<g id="node8" class="node">
<title>ConfigValidatorModule</title>
<polygon fill="#8dd3c7" stroke="#000000" points="1444.8061,-122 1441.8061,-126 1420.8061,-126 1417.8061,-122 1293.1939,-122 1293.1939,-86 1444.8061,-86 1444.8061,-122"/>
<text text-anchor="middle" x="1369" y="-99.8" font-family="Times,serif" font-size="14.00" fill="#000000">ConfigValidatorModule</text>
</g>
<!-- ConfigValidatorModule&#45;&gt;StorefrontFoundationModule -->
<g id="edge8" class="edge">
<title>ConfigValidatorModule&#45;&gt;StorefrontFoundationModule</title>
<path fill="none" stroke="#000000" d="M1369,-122.1243C1369,-136.7832 1369,-155 1369,-155 1369,-155 1220.2468,-155 1220.2468,-155"/>
<polygon fill="#000000" stroke="#000000" points="1220.2468,-151.5001 1210.2468,-155 1220.2467,-158.5001 1220.2468,-151.5001"/>
</g>
<!-- FeaturesConfigModule -->
<g id="node9" class="node">
<title>FeaturesConfigModule</title>
<polygon fill="#8dd3c7" stroke="#000000" points="1274.8599,-122 1271.8599,-126 1250.8599,-126 1247.8599,-122 1129.1401,-122 1129.1401,-86 1274.8599,-86 1274.8599,-122"/>
<text text-anchor="middle" x="1202" y="-99.8" font-family="Times,serif" font-size="14.00" fill="#000000">FeaturesConfigModule</text>
</g>
<!-- FeaturesConfigModule&#45;&gt;StorefrontFoundationModule -->
<g id="edge9" class="edge">
<title>FeaturesConfigModule&#45;&gt;StorefrontFoundationModule</title>
<path fill="none" stroke="#000000" d="M1169.5572,-122.1061C1169.5572,-122.1061 1169.5572,-140.991 1169.5572,-140.991"/>
<polygon fill="#000000" stroke="#000000" points="1166.0572,-140.9909 1169.5572,-150.991 1173.0572,-140.991 1166.0572,-140.9909"/>
</g>
<!-- GlobalMessageModule -->
<g id="node10" class="node">
<title>GlobalMessageModule</title>
<polygon fill="#8dd3c7" stroke="#000000" points="1111.1303,-122 1108.1303,-126 1087.1303,-126 1084.1303,-122 964.8697,-122 964.8697,-86 1111.1303,-86 1111.1303,-122"/>
<text text-anchor="middle" x="1038" y="-99.8" font-family="Times,serif" font-size="14.00" fill="#000000">GlobalMessageModule</text>
</g>
<!-- GlobalMessageModule&#45;&gt;StorefrontFoundationModule -->
<g id="edge10" class="edge">
<title>GlobalMessageModule&#45;&gt;StorefrontFoundationModule</title>
<path fill="none" stroke="#000000" d="M1070.6354,-122.1061C1070.6354,-122.1061 1070.6354,-140.991 1070.6354,-140.991"/>
<polygon fill="#000000" stroke="#000000" points="1067.1354,-140.9909 1070.6354,-150.991 1074.1354,-140.991 1067.1354,-140.9909"/>
</g>
<!-- I18nModule -->
<g id="node11" class="node">
<title>I18nModule</title>
<polygon fill="#8dd3c7" stroke="#000000" points="946.7107,-122 943.7107,-126 922.7107,-126 919.7107,-122 861.2893,-122 861.2893,-86 946.7107,-86 946.7107,-122"/>
<text text-anchor="middle" x="904" y="-99.8" font-family="Times,serif" font-size="14.00" fill="#000000">I18nModule</text>
</g>
<!-- I18nModule&#45;&gt;StorefrontFoundationModule -->
<g id="edge11" class="edge">
<title>I18nModule&#45;&gt;StorefrontFoundationModule</title>
<path fill="none" stroke="#000000" d="M904,-122.1243C904,-136.7832 904,-155 904,-155 904,-155 1019.6481,-155 1019.6481,-155"/>
<polygon fill="#000000" stroke="#000000" points="1019.6481,-158.5001 1029.6481,-155 1019.6481,-151.5001 1019.6481,-158.5001"/>
</g>
<!-- LayoutModule -->
<g id="node12" class="node">
<title>LayoutModule</title>
<polygon fill="#8dd3c7" stroke="#000000" points="843.7078,-122 840.7078,-126 819.7078,-126 816.7078,-122 744.2922,-122 744.2922,-86 843.7078,-86 843.7078,-122"/>
<text text-anchor="middle" x="794" y="-99.8" font-family="Times,serif" font-size="14.00" fill="#000000">LayoutModule</text>
</g>
<!-- LayoutModule&#45;&gt;StorefrontFoundationModule -->
<g id="edge12" class="edge">
<title>LayoutModule&#45;&gt;StorefrontFoundationModule</title>
<path fill="none" stroke="#000000" d="M794,-122.0091C794,-138.0494 794,-159 794,-159 794,-159 1019.6237,-159 1019.6237,-159"/>
<polygon fill="#000000" stroke="#000000" points="1019.6238,-162.5001 1029.6237,-159 1019.6237,-155.5001 1019.6238,-162.5001"/>
</g>
<!-- ProcessModule -->
<g id="node13" class="node">
<title>ProcessModule</title>
<polygon fill="#8dd3c7" stroke="#000000" points="726.3119,-122 723.3119,-126 702.3119,-126 699.3119,-122 623.6881,-122 623.6881,-86 726.3119,-86 726.3119,-122"/>
<text text-anchor="middle" x="675" y="-99.8" font-family="Times,serif" font-size="14.00" fill="#000000">ProcessModule</text>
</g>
<!-- ProcessModule&#45;&gt;StorefrontFoundationModule -->
<g id="edge13" class="edge">
<title>ProcessModule&#45;&gt;StorefrontFoundationModule</title>
<path fill="none" stroke="#000000" d="M675,-122.0225C675,-139.3734 675,-163 675,-163 675,-163 1019.9476,-163 1019.9476,-163"/>
<polygon fill="#000000" stroke="#000000" points="1019.9476,-166.5001 1029.9476,-163 1019.9476,-159.5001 1019.9476,-166.5001"/>
</g>
<!-- ProductModule -->
<g id="node14" class="node">
<title>ProductModule</title>
<polygon fill="#8dd3c7" stroke="#000000" points="605.5982,-122 602.5982,-126 581.5982,-126 578.5982,-122 502.4018,-122 502.4018,-86 605.5982,-86 605.5982,-122"/>
<text text-anchor="middle" x="554" y="-99.8" font-family="Times,serif" font-size="14.00" fill="#000000">ProductModule</text>
</g>
<!-- ProductModule&#45;&gt;StorefrontFoundationModule -->
<g id="edge14" class="edge">
<title>ProductModule&#45;&gt;StorefrontFoundationModule</title>
<path fill="none" stroke="#000000" d="M554,-122.2222C554,-140.8285 554,-167 554,-167 554,-167 1019.6898,-167 1019.6898,-167"/>
<polygon fill="#000000" stroke="#000000" points="1019.6898,-170.5001 1029.6898,-167 1019.6897,-163.5001 1019.6898,-170.5001"/>
</g>
<!-- RoutingModule -->
<g id="node15" class="node">
<title>RoutingModule</title>
<polygon fill="#8dd3c7" stroke="#000000" points="484.1681,-122 481.1681,-126 460.1681,-126 457.1681,-122 379.8319,-122 379.8319,-86 484.1681,-86 484.1681,-122"/>
<text text-anchor="middle" x="432" y="-99.8" font-family="Times,serif" font-size="14.00" fill="#000000">RoutingModule</text>
</g>
<!-- RoutingModule&#45;&gt;StorefrontFoundationModule -->
<g id="edge15" class="edge">
<title>RoutingModule&#45;&gt;StorefrontFoundationModule</title>
<path fill="none" stroke="#000000" d="M432,-122.308C432,-142.1455 432,-171 432,-171 432,-171 1019.7025,-171 1019.7025,-171"/>
<polygon fill="#000000" stroke="#000000" points="1019.7026,-174.5001 1029.7025,-171 1019.7025,-167.5001 1019.7026,-174.5001"/>
</g>
<!-- StateModule -->
<g id="node16" class="node">
<title>StateModule</title>
<polygon fill="#8dd3c7" stroke="#000000" points="361.544,-122 358.544,-126 337.544,-126 334.544,-122 274.456,-122 274.456,-86 361.544,-86 361.544,-122"/>
<text text-anchor="middle" x="318" y="-99.8" font-family="Times,serif" font-size="14.00" fill="#000000">StateModule</text>
</g>
<!-- StateModule&#45;&gt;StorefrontFoundationModule -->
<g id="edge16" class="edge">
<title>StateModule&#45;&gt;StorefrontFoundationModule</title>
<path fill="none" stroke="#000000" d="M318,-122.2843C318,-143.3211 318,-175 318,-175 318,-175 1019.9475,-175 1019.9475,-175"/>
<polygon fill="#000000" stroke="#000000" points="1019.9475,-178.5001 1029.9475,-175 1019.9474,-171.5001 1019.9475,-178.5001"/>
</g>
<!-- UserModule -->
<g id="node17" class="node">
<title>UserModule</title>
<polygon fill="#8dd3c7" stroke="#000000" points="255.9762,-122 252.9762,-126 231.9762,-126 228.9762,-122 170.0238,-122 170.0238,-86 255.9762,-86 255.9762,-122"/>
<text text-anchor="middle" x="213" y="-99.8" font-family="Times,serif" font-size="14.00" fill="#000000">UserModule</text>
</g>
<!-- UserModule&#45;&gt;StorefrontFoundationModule -->
<g id="edge17" class="edge">
<title>UserModule&#45;&gt;StorefrontFoundationModule</title>
<path fill="none" stroke="#000000" d="M213,-122.1554C213,-144.3519 213,-179 213,-179 213,-179 1019.7174,-179 1019.7174,-179"/>
<polygon fill="#000000" stroke="#000000" points="1019.7175,-182.5001 1029.7174,-179 1019.7174,-175.5001 1019.7175,-182.5001"/>
</g>
<!-- ViewConfigModule -->
<g id="node18" class="node">
<title>ViewConfigModule</title>
<polygon fill="#8dd3c7" stroke="#000000" points="152.2562,-122 149.2562,-126 128.2562,-126 125.2562,-122 23.7438,-122 23.7438,-86 152.2562,-86 152.2562,-122"/>
<text text-anchor="middle" x="88" y="-99.8" font-family="Times,serif" font-size="14.00" fill="#000000">ViewConfigModule</text>
</g>
<!-- ViewConfigModule&#45;&gt;StorefrontFoundationModule -->
<g id="edge18" class="edge">
<title>ViewConfigModule&#45;&gt;StorefrontFoundationModule</title>
<path fill="none" stroke="#000000" d="M88,-122.3228C88,-145.6602 88,-183 88,-183 88,-183 1019.7722,-183 1019.7722,-183"/>
<polygon fill="#000000" stroke="#000000" points="1019.7722,-186.5001 1029.7722,-183 1019.7722,-179.5001 1019.7722,-186.5001"/>
</g>
<!-- LayoutModule  -->
<g id="node20" class="node">
<title>LayoutModule </title>
<polygon fill="#fb8072" stroke="#000000" points="1171.208,-252 1068.792,-252 1068.792,-216 1171.208,-216 1171.208,-252"/>
<text text-anchor="middle" x="1120" y="-229.8" font-family="Times,serif" font-size="14.00" fill="#000000">LayoutModule </text>
</g>
<!-- StorefrontFoundationModule&#45;&gt;LayoutModule  -->
<g id="edge19" class="edge">
<title>StorefrontFoundationModule&#45;&gt;LayoutModule </title>
<path fill="none" stroke="#000000" stroke-dasharray="5,2" d="M1120,-187.1061C1120,-187.1061 1120,-205.991 1120,-205.991"/>
<polygon fill="#000000" stroke="#000000" points="1116.5001,-205.9909 1120,-215.991 1123.5001,-205.991 1116.5001,-205.9909"/>
</g>
</g>
</svg>
