<?xml version="1.0" encoding="UTF-8" standalone="no"?>
<!DOCTYPE svg PUBLIC "-//W3C//DTD SVG 1.1//EN"
 "http://www.w3.org/Graphics/SVG/1.1/DTD/svg11.dtd">
<!-- Generated by graphviz version 2.44.1 (20200629.0846)
 -->
<!-- Title: dependencies Pages: 1 -->
<svg width="2631pt" height="284pt"
 viewBox="0.00 0.00 2631.00 284.00" xmlns="http://www.w3.org/2000/svg" xmlns:xlink="http://www.w3.org/1999/xlink">
<g id="graph0" class="graph" transform="scale(1 1) rotate(0) translate(4 280)">
<title>dependencies</title>
<polygon fill="white" stroke="transparent" points="-4,4 -4,-280 2627,-280 2627,4 -4,4"/>
<text text-anchor="start" x="1290.51" y="-42.4" font-family="sans-serif" font-weight="bold" font-size="14.00">Legend</text>
<polygon fill="#ffffb3" stroke="transparent" points="1077.5,-10 1077.5,-30 1097.5,-30 1097.5,-10 1077.5,-10"/>
<text text-anchor="start" x="1101.13" y="-15.4" font-family="sans-serif" font-size="14.00"> &#160;Declarations</text>
<polygon fill="#8dd3c7" stroke="transparent" points="1190.5,-10 1190.5,-30 1210.5,-30 1210.5,-10 1190.5,-10"/>
<text text-anchor="start" x="1214.23" y="-15.4" font-family="sans-serif" font-size="14.00"> &#160;Module</text>
<polygon fill="#80b1d3" stroke="transparent" points="1276.5,-10 1276.5,-30 1296.5,-30 1296.5,-10 1276.5,-10"/>
<text text-anchor="start" x="1300.28" y="-15.4" font-family="sans-serif" font-size="14.00"> &#160;Bootstrap</text>
<polygon fill="#fdb462" stroke="transparent" points="1373.5,-10 1373.5,-30 1393.5,-30 1393.5,-10 1373.5,-10"/>
<text text-anchor="start" x="1397.17" y="-15.4" font-family="sans-serif" font-size="14.00"> &#160;Providers</text>
<polygon fill="#fb8072" stroke="transparent" points="1469.5,-10 1469.5,-30 1489.5,-30 1489.5,-10 1469.5,-10"/>
<text text-anchor="start" x="1493.23" y="-15.4" font-family="sans-serif" font-size="14.00"> &#160;Exports</text>
<g id="clust1" class="cluster">
<title>cluster_StorefrontFoundationModule</title>
<polygon fill="none" stroke="black" stroke-dasharray="1,5" points="8,-70 8,-268 2615,-268 2615,-70 8,-70"/>
</g>
<g id="clust3" class="cluster">
<title>cluster_StorefrontFoundationModule_imports</title>
<polygon fill="none" stroke="black" points="16,-78 16,-130 2607,-130 2607,-78 16,-78"/>
</g>
<g id="clust4" class="cluster">
<title>cluster_StorefrontFoundationModule_exports</title>
<polygon fill="none" stroke="black" points="1174,-208 1174,-260 1292,-260 1292,-208 1174,-208"/>
</g>
<!-- AnonymousConsentsModule -->
<g id="node1" class="node">
<title>AnonymousConsentsModule</title>
<polygon fill="#8dd3c7" stroke="black" points="2598.82,-122 2595.82,-126 2574.82,-126 2571.82,-122 2419.18,-122 2419.18,-86 2598.82,-86 2598.82,-122"/>
<text text-anchor="middle" x="2509" y="-99.8" font-family="Times,serif" font-size="14.00">AnonymousConsentsModule</text>
</g>
<!-- StorefrontFoundationModule -->
<g id="node21" class="node">
<title>StorefrontFoundationModule</title>
<polygon fill="#8dd3c7" stroke="black" points="1323.09,-187 1320.09,-191 1299.09,-191 1296.09,-187 1142.91,-187 1142.91,-151 1323.09,-151 1323.09,-187"/>
<text text-anchor="middle" x="1233" y="-164.8" font-family="Times,serif" font-size="14.00">StorefrontFoundationModule</text>
</g>
<!-- AnonymousConsentsModule&#45;&gt;StorefrontFoundationModule -->
<g id="edge1" class="edge">
<title>AnonymousConsentsModule&#45;&gt;StorefrontFoundationModule</title>
<path fill="none" stroke="black" d="M2509,-122.15C2509,-145.76 2509,-184 2509,-184 2509,-184 1333.23,-184 1333.23,-184"/>
<polygon fill="black" stroke="black" points="1333.23,-180.5 1323.23,-184 1333.23,-187.5 1333.23,-180.5"/>
</g>
<!-- AuthModule -->
<g id="node2" class="node">
<title>AuthModule</title>
<polygon fill="#8dd3c7" stroke="black" points="2401.55,-122 2398.55,-126 2377.55,-126 2374.55,-122 2314.45,-122 2314.45,-86 2401.55,-86 2401.55,-122"/>
<text text-anchor="middle" x="2358" y="-99.8" font-family="Times,serif" font-size="14.00">AuthModule</text>
</g>
<!-- AuthModule&#45;&gt;StorefrontFoundationModule -->
<g id="edge2" class="edge">
<title>AuthModule&#45;&gt;StorefrontFoundationModule</title>
<path fill="none" stroke="black" d="M2358,-122.01C2358,-144.49 2358,-180 2358,-180 2358,-180 1333.16,-180 1333.16,-180"/>
<polygon fill="black" stroke="black" points="1333.16,-176.5 1323.16,-180 1333.16,-183.5 1333.16,-176.5"/>
</g>
<!-- CartModule -->
<g id="node3" class="node">
<title>CartModule</title>
<polygon fill="#8dd3c7" stroke="black" points="2295.65,-122 2292.65,-126 2271.65,-126 2268.65,-122 2212.35,-122 2212.35,-86 2295.65,-86 2295.65,-122"/>
<text text-anchor="middle" x="2254" y="-99.8" font-family="Times,serif" font-size="14.00">CartModule</text>
</g>
<!-- CartModule&#45;&gt;StorefrontFoundationModule -->
<g id="edge3" class="edge">
<title>CartModule&#45;&gt;StorefrontFoundationModule</title>
<path fill="none" stroke="black" d="M2254,-122.04C2254,-143.66 2254,-177 2254,-177 2254,-177 1333.16,-177 1333.16,-177"/>
<polygon fill="black" stroke="black" points="1333.16,-173.5 1323.16,-177 1333.16,-180.5 1333.16,-173.5"/>
</g>
<!-- CheckoutModule -->
<g id="node4" class="node">
<title>CheckoutModule</title>
<polygon fill="#8dd3c7" stroke="black" points="2194.71,-122 2191.71,-126 2170.71,-126 2167.71,-122 2081.29,-122 2081.29,-86 2194.71,-86 2194.71,-122"/>
<text text-anchor="middle" x="2138" y="-99.8" font-family="Times,serif" font-size="14.00">CheckoutModule</text>
</g>
<!-- CheckoutModule&#45;&gt;StorefrontFoundationModule -->
<g id="edge4" class="edge">
<title>CheckoutModule&#45;&gt;StorefrontFoundationModule</title>
<path fill="none" stroke="black" d="M2138,-122.13C2138,-142.57 2138,-173 2138,-173 2138,-173 1333.08,-173 1333.08,-173"/>
<polygon fill="black" stroke="black" points="1333.08,-169.5 1323.08,-173 1333.08,-176.5 1333.08,-169.5"/>
</g>
<!-- CmsModule -->
<g id="node5" class="node">
<title>CmsModule</title>
<polygon fill="#8dd3c7" stroke="black" points="2063.72,-122 2060.72,-126 2039.72,-126 2036.72,-122 1978.28,-122 1978.28,-86 2063.72,-86 2063.72,-122"/>
<text text-anchor="middle" x="2021" y="-99.8" font-family="Times,serif" font-size="14.00">CmsModule</text>
</g>
<!-- CmsModule&#45;&gt;StorefrontFoundationModule -->
<g id="edge5" class="edge">
<title>CmsModule&#45;&gt;StorefrontFoundationModule</title>
<path fill="none" stroke="black" d="M2021,-122.11C2021,-141.34 2021,-169 2021,-169 2021,-169 1333.39,-169 1333.39,-169"/>
<polygon fill="black" stroke="black" points="1333.39,-165.5 1323.39,-169 1333.39,-172.5 1333.39,-165.5"/>
</g>
<!-- ConfigInitializerModule -->
<g id="node6" class="node">
<title>ConfigInitializerModule</title>
<polygon fill="#8dd3c7" stroke="black" points="1960.36,-122 1957.36,-126 1936.36,-126 1933.36,-122 1807.64,-122 1807.64,-86 1960.36,-86 1960.36,-122"/>
<text text-anchor="middle" x="1884" y="-99.8" font-family="Times,serif" font-size="14.00">ConfigInitializerModule</text>
</g>
<!-- ConfigInitializerModule&#45;&gt;StorefrontFoundationModule -->
<g id="edge6" class="edge">
<title>ConfigInitializerModule&#45;&gt;StorefrontFoundationModule</title>
<path fill="none" stroke="black" d="M1884,-122.27C1884,-140.56 1884,-166 1884,-166 1884,-166 1333.18,-166 1333.18,-166"/>
<polygon fill="black" stroke="black" points="1333.18,-162.5 1323.18,-166 1333.18,-169.5 1333.18,-162.5"/>
</g>
<!-- ConfigModule -->
<g id="node7" class="node">
<title>ConfigModule</title>
<polygon fill="#8dd3c7" stroke="black" points="1789.44,-122 1786.44,-126 1765.44,-126 1762.44,-122 1690.56,-122 1690.56,-86 1789.44,-86 1789.44,-122"/>
<text text-anchor="middle" x="1740" y="-99.8" font-family="Times,serif" font-size="14.00">ConfigModule</text>
</g>
<!-- ConfigModule&#45;&gt;StorefrontFoundationModule -->
<g id="edge7" class="edge">
<title>ConfigModule&#45;&gt;StorefrontFoundationModule</title>
<path fill="none" stroke="black" d="M1740,-122.03C1740,-139.06 1740,-162 1740,-162 1740,-162 1333.06,-162 1333.06,-162"/>
<polygon fill="black" stroke="black" points="1333.06,-158.5 1323.06,-162 1333.06,-165.5 1333.06,-158.5"/>
</g>
<!-- ConfigValidatorModule -->
<g id="node8" class="node">
<title>ConfigValidatorModule</title>
<polygon fill="#8dd3c7" stroke="black" points="1672.81,-122 1669.81,-126 1648.81,-126 1645.81,-122 1521.19,-122 1521.19,-86 1672.81,-86 1672.81,-122"/>
<text text-anchor="middle" x="1597" y="-99.8" font-family="Times,serif" font-size="14.00">ConfigValidatorModule</text>
</g>
<!-- ConfigValidatorModule&#45;&gt;StorefrontFoundationModule -->
<g id="edge8" class="edge">
<title>ConfigValidatorModule&#45;&gt;StorefrontFoundationModule</title>
<path fill="none" stroke="black" d="M1597,-122.01C1597,-138.05 1597,-159 1597,-159 1597,-159 1333.45,-159 1333.45,-159"/>
<polygon fill="black" stroke="black" points="1333.45,-155.5 1323.45,-159 1333.45,-162.5 1333.45,-155.5"/>
</g>
<!-- EventsModule -->
<g id="node9" class="node">
<title>EventsModule</title>
<polygon fill="#8dd3c7" stroke="black" points="1503.65,-122 1500.65,-126 1479.65,-126 1476.65,-122 1406.35,-122 1406.35,-86 1503.65,-86 1503.65,-122"/>
<text text-anchor="middle" x="1455" y="-99.8" font-family="Times,serif" font-size="14.00">EventsModule</text>
</g>
<!-- EventsModule&#45;&gt;StorefrontFoundationModule -->
<g id="edge9" class="edge">
<title>EventsModule&#45;&gt;StorefrontFoundationModule</title>
<path fill="none" stroke="black" d="M1455,-122.12C1455,-136.78 1455,-155 1455,-155 1455,-155 1333.3,-155 1333.3,-155"/>
<polygon fill="black" stroke="black" points="1333.3,-151.5 1323.3,-155 1333.3,-158.5 1333.3,-151.5"/>
</g>
<!-- FeaturesConfigModule -->
<g id="node10" class="node">
<title>FeaturesConfigModule</title>
<polygon fill="#8dd3c7" stroke="black" points="1387.86,-122 1384.86,-126 1363.86,-126 1360.86,-122 1242.14,-122 1242.14,-86 1387.86,-86 1387.86,-122"/>
<text text-anchor="middle" x="1315" y="-99.8" font-family="Times,serif" font-size="14.00">FeaturesConfigModule</text>
</g>
<!-- FeaturesConfigModule&#45;&gt;StorefrontFoundationModule -->
<g id="edge10" class="edge">
<title>FeaturesConfigModule&#45;&gt;StorefrontFoundationModule</title>
<path fill="none" stroke="black" d="M1282.56,-122.11C1282.56,-122.11 1282.56,-140.99 1282.56,-140.99"/>
<polygon fill="black" stroke="black" points="1279.06,-140.99 1282.56,-150.99 1286.06,-140.99 1279.06,-140.99"/>
</g>
<!-- GlobalMessageModule -->
<g id="node11" class="node">
<title>GlobalMessageModule</title>
<polygon fill="#8dd3c7" stroke="black" points="1224.13,-122 1221.13,-126 1200.13,-126 1197.13,-122 1077.87,-122 1077.87,-86 1224.13,-86 1224.13,-122"/>
<text text-anchor="middle" x="1151" y="-99.8" font-family="Times,serif" font-size="14.00">GlobalMessageModule</text>
</g>
<!-- GlobalMessageModule&#45;&gt;StorefrontFoundationModule -->
<g id="edge11" class="edge">
<title>GlobalMessageModule&#45;&gt;StorefrontFoundationModule</title>
<path fill="none" stroke="black" d="M1183.64,-122.11C1183.64,-122.11 1183.64,-140.99 1183.64,-140.99"/>
<polygon fill="black" stroke="black" points="1180.14,-140.99 1183.64,-150.99 1187.14,-140.99 1180.14,-140.99"/>
</g>
<!-- I18nModule -->
<g id="node12" class="node">
<title>I18nModule</title>
<polygon fill="#8dd3c7" stroke="black" points="1059.71,-122 1056.71,-126 1035.71,-126 1032.71,-122 974.29,-122 974.29,-86 1059.71,-86 1059.71,-122"/>
<text text-anchor="middle" x="1017" y="-99.8" font-family="Times,serif" font-size="14.00">I18nModule</text>
</g>
<!-- I18nModule&#45;&gt;StorefrontFoundationModule -->
<g id="edge12" class="edge">
<title>I18nModule&#45;&gt;StorefrontFoundationModule</title>
<path fill="none" stroke="black" d="M1017,-122.12C1017,-136.78 1017,-155 1017,-155 1017,-155 1132.65,-155 1132.65,-155"/>
<polygon fill="black" stroke="black" points="1132.65,-158.5 1142.65,-155 1132.65,-151.5 1132.65,-158.5"/>
</g>
<!-- LayoutModule -->
<g id="node13" class="node">
<title>LayoutModule</title>
<polygon fill="#8dd3c7" stroke="black" points="956.71,-122 953.71,-126 932.71,-126 929.71,-122 857.29,-122 857.29,-86 956.71,-86 956.71,-122"/>
<text text-anchor="middle" x="907" y="-99.8" font-family="Times,serif" font-size="14.00">LayoutModule</text>
</g>
<!-- LayoutModule&#45;&gt;StorefrontFoundationModule -->
<g id="edge13" class="edge">
<title>LayoutModule&#45;&gt;StorefrontFoundationModule</title>
<path fill="none" stroke="black" d="M907,-122.01C907,-138.05 907,-159 907,-159 907,-159 1132.62,-159 1132.62,-159"/>
<polygon fill="black" stroke="black" points="1132.62,-162.5 1142.62,-159 1132.62,-155.5 1132.62,-162.5"/>
</g>
<!-- MediaModule -->
<g id="node14" class="node">
<title>MediaModule</title>
<polygon fill="#8dd3c7" stroke="black" points="839.81,-122 836.81,-126 815.81,-126 812.81,-122 744.19,-122 744.19,-86 839.81,-86 839.81,-122"/>
<text text-anchor="middle" x="792" y="-99.8" font-family="Times,serif" font-size="14.00">MediaModule</text>
</g>
<!-- MediaModule&#45;&gt;StorefrontFoundationModule -->
<g id="edge14" class="edge">
<title>MediaModule&#45;&gt;StorefrontFoundationModule</title>
<path fill="none" stroke="black" d="M792,-122.03C792,-139.06 792,-162 792,-162 792,-162 1132.69,-162 1132.69,-162"/>
<polygon fill="black" stroke="black" points="1132.69,-165.5 1142.69,-162 1132.69,-158.5 1132.69,-165.5"/>
</g>
<!-- ProcessModule -->
<g id="node15" class="node">
<title>ProcessModule</title>
<polygon fill="#8dd3c7" stroke="black" points="726.31,-122 723.31,-126 702.31,-126 699.31,-122 623.69,-122 623.69,-86 726.31,-86 726.31,-122"/>
<text text-anchor="middle" x="675" y="-99.8" font-family="Times,serif" font-size="14.00">ProcessModule</text>
</g>
<!-- ProcessModule&#45;&gt;StorefrontFoundationModule -->
<g id="edge15" class="edge">
<title>ProcessModule&#45;&gt;StorefrontFoundationModule</title>
<path fill="none" stroke="black" d="M675,-122.27C675,-140.56 675,-166 675,-166 675,-166 1132.73,-166 1132.73,-166"/>
<polygon fill="black" stroke="black" points="1132.73,-169.5 1142.73,-166 1132.73,-162.5 1132.73,-169.5"/>
</g>
<!-- ProductModule -->
<g id="node16" class="node">
<title>ProductModule</title>
<polygon fill="#8dd3c7" stroke="black" points="605.6,-122 602.6,-126 581.6,-126 578.6,-122 502.4,-122 502.4,-86 605.6,-86 605.6,-122"/>
<text text-anchor="middle" x="554" y="-99.8" font-family="Times,serif" font-size="14.00">ProductModule</text>
</g>
<!-- ProductModule&#45;&gt;StorefrontFoundationModule -->
<g id="edge16" class="edge">
<title>ProductModule&#45;&gt;StorefrontFoundationModule</title>
<path fill="none" stroke="black" d="M554,-122.11C554,-141.34 554,-169 554,-169 554,-169 1132.83,-169 1132.83,-169"/>
<polygon fill="black" stroke="black" points="1132.83,-172.5 1142.83,-169 1132.83,-165.5 1132.83,-172.5"/>
</g>
<!-- RoutingModule -->
<g id="node17" class="node">
<title>RoutingModule</title>
<polygon fill="#8dd3c7" stroke="black" points="484.17,-122 481.17,-126 460.17,-126 457.17,-122 379.83,-122 379.83,-86 484.17,-86 484.17,-122"/>
<text text-anchor="middle" x="432" y="-99.8" font-family="Times,serif" font-size="14.00">RoutingModule</text>
</g>
<!-- RoutingModule&#45;&gt;StorefrontFoundationModule -->
<g id="edge17" class="edge">
<title>RoutingModule&#45;&gt;StorefrontFoundationModule</title>
<path fill="none" stroke="black" d="M432,-122.13C432,-142.57 432,-173 432,-173 432,-173 1132.67,-173 1132.67,-173"/>
<polygon fill="black" stroke="black" points="1132.67,-176.5 1142.67,-173 1132.67,-169.5 1132.67,-176.5"/>
</g>
<!-- StateModule -->
<g id="node18" class="node">
<title>StateModule</title>
<polygon fill="#8dd3c7" stroke="black" points="361.54,-122 358.54,-126 337.54,-126 334.54,-122 274.46,-122 274.46,-86 361.54,-86 361.54,-122"/>
<text text-anchor="middle" x="318" y="-99.8" font-family="Times,serif" font-size="14.00">StateModule</text>
</g>
<!-- StateModule&#45;&gt;StorefrontFoundationModule -->
<g id="edge18" class="edge">
<title>StateModule&#45;&gt;StorefrontFoundationModule</title>
<path fill="none" stroke="black" d="M318,-122.04C318,-143.66 318,-177 318,-177 318,-177 1132.76,-177 1132.76,-177"/>
<polygon fill="black" stroke="black" points="1132.76,-180.5 1142.76,-177 1132.76,-173.5 1132.76,-180.5"/>
</g>
<!-- UserModule -->
<g id="node19" class="node">
<title>UserModule</title>
<polygon fill="#8dd3c7" stroke="black" points="255.98,-122 252.98,-126 231.98,-126 228.98,-122 170.02,-122 170.02,-86 255.98,-86 255.98,-122"/>
<text text-anchor="middle" x="213" y="-99.8" font-family="Times,serif" font-size="14.00">UserModule</text>
</g>
<!-- UserModule&#45;&gt;StorefrontFoundationModule -->
<g id="edge19" class="edge">
<title>UserModule&#45;&gt;StorefrontFoundationModule</title>
<path fill="none" stroke="black" d="M213,-122.01C213,-144.49 213,-180 213,-180 213,-180 1132.93,-180 1132.93,-180"/>
<polygon fill="black" stroke="black" points="1132.93,-183.5 1142.93,-180 1132.93,-176.5 1132.93,-183.5"/>
</g>
<!-- ViewConfigModule -->
<g id="node20" class="node">
<title>ViewConfigModule</title>
<polygon fill="#8dd3c7" stroke="black" points="152.26,-122 149.26,-126 128.26,-126 125.26,-122 23.74,-122 23.74,-86 152.26,-86 152.26,-122"/>
<text text-anchor="middle" x="88" y="-99.8" font-family="Times,serif" font-size="14.00">ViewConfigModule</text>
</g>
<!-- ViewConfigModule&#45;&gt;StorefrontFoundationModule -->
<g id="edge20" class="edge">
<title>ViewConfigModule&#45;&gt;StorefrontFoundationModule</title>
<path fill="none" stroke="black" d="M88,-122.15C88,-145.76 88,-184 88,-184 88,-184 1132.68,-184 1132.68,-184"/>
<polygon fill="black" stroke="black" points="1132.68,-187.5 1142.68,-184 1132.68,-180.5 1132.68,-187.5"/>
</g>
<!-- LayoutModule  -->
<g id="node22" class="node">
<title>LayoutModule </title>
<polygon fill="#fb8072" stroke="black" points="1284.21,-252 1181.79,-252 1181.79,-216 1284.21,-216 1284.21,-252"/>
<text text-anchor="middle" x="1233" y="-229.8" font-family="Times,serif" font-size="14.00">LayoutModule </text>
</g>
<!-- StorefrontFoundationModule&#45;&gt;LayoutModule  -->
<g id="edge21" class="edge">
<title>StorefrontFoundationModule&#45;&gt;LayoutModule </title>
<path fill="none" stroke="black" stroke-dasharray="5,2" d="M1233,-187.11C1233,-187.11 1233,-205.99 1233,-205.99"/>
<polygon fill="black" stroke="black" points="1229.5,-205.99 1233,-215.99 1236.5,-205.99 1229.5,-205.99"/>
</g>
</g>
</svg>
