<?xml version="1.0" encoding="UTF-8" standalone="no"?>
<!DOCTYPE svg PUBLIC "-//W3C//DTD SVG 1.1//EN"
 "http://www.w3.org/Graphics/SVG/1.1/DTD/svg11.dtd">
<!-- Generated by graphviz version 2.47.3 (20210619.1520)
 -->
<!-- Title: dependencies Pages: 1 -->
<svg width="578pt" height="174pt"
 viewBox="0.00 0.00 578.00 173.80" xmlns="http://www.w3.org/2000/svg" xmlns:xlink="http://www.w3.org/1999/xlink">
<g id="graph0" class="graph" transform="scale(1 1) rotate(0) translate(4 169.8)">
<title>dependencies</title>
<polygon fill="white" stroke="transparent" points="-4,4 -4,-169.8 574,-169.8 574,4 -4,4"/>
<text text-anchor="middle" x="285" y="-8.2" font-family="sans-serif" font-size="14.00">dependencies</text>
<g id="clust1" class="cluster">
<title>cluster_PermissionComponentsModule</title>
<polygon fill="none" stroke="black" stroke-dasharray="1,5" points="8,-32.8 8,-157.8 562,-157.8 562,-32.8 8,-32.8"/>
</g>
<g id="clust3" class="cluster">
<title>cluster_PermissionComponentsModule_imports</title>
<polygon fill="none" stroke="black" points="16,-40.8 16,-92.8 554,-92.8 554,-40.8 16,-40.8"/>
</g>
<!-- PermissionDetailsModule -->
<g id="node1" class="node">
<title>PermissionDetailsModule</title>
<polygon fill="#8dd3c7" stroke="black" points="545.92,-84.8 542.92,-88.8 521.92,-88.8 518.92,-84.8 384.08,-84.8 384.08,-48.8 545.92,-48.8 545.92,-84.8"/>
<text text-anchor="middle" x="465" y="-62.6" font-family="Times,serif" font-size="14.00">PermissionDetailsModule</text>
</g>
<!-- PermissionComponentsModule -->
<g id="node4" class="node">
<title>PermissionComponentsModule</title>
<polygon fill="#8dd3c7" stroke="black" points="386.05,-149.8 383.05,-153.8 362.05,-153.8 359.05,-149.8 193.95,-149.8 193.95,-113.8 386.05,-113.8 386.05,-149.8"/>
<text text-anchor="middle" x="290" y="-127.6" font-family="Times,serif" font-size="14.00">PermissionComponentsModule</text>
</g>
<!-- PermissionDetailsModule&#45;&gt;PermissionComponentsModule -->
<g id="edge1" class="edge">
<title>PermissionDetailsModule&#45;&gt;PermissionComponentsModule</title>
<path fill="none" stroke="black" d="M384.11,-66.8C378.6,-66.8 375.17,-66.8 375.17,-66.8 375.17,-66.8 375.17,-103.69 375.17,-103.69"/>
<polygon fill="black" stroke="black" points="371.67,-103.69 375.17,-113.69 378.67,-103.69 371.67,-103.69"/>
</g>
<!-- PermissionFormModule -->
<g id="node2" class="node">
<title>PermissionFormModule</title>
<polygon fill="#8dd3c7" stroke="black" points="366.1,-84.8 363.1,-88.8 342.1,-88.8 339.1,-84.8 213.9,-84.8 213.9,-48.8 366.1,-48.8 366.1,-84.8"/>
<text text-anchor="middle" x="290" y="-62.6" font-family="Times,serif" font-size="14.00">PermissionFormModule</text>
</g>
<!-- PermissionFormModule&#45;&gt;PermissionComponentsModule -->
<g id="edge2" class="edge">
<title>PermissionFormModule&#45;&gt;PermissionComponentsModule</title>
<path fill="none" stroke="black" d="M290,-84.91C290,-84.91 290,-103.79 290,-103.79"/>
<polygon fill="black" stroke="black" points="286.5,-103.79 290,-113.79 293.5,-103.79 286.5,-103.79"/>
</g>
<!-- SharedOrganizationModule -->
<g id="node3" class="node">
<title>SharedOrganizationModule</title>
<polygon fill="#8dd3c7" stroke="black" points="195.51,-84.8 192.51,-88.8 171.51,-88.8 168.51,-84.8 24.49,-84.8 24.49,-48.8 195.51,-48.8 195.51,-84.8"/>
<text text-anchor="middle" x="110" y="-62.6" font-family="Times,serif" font-size="14.00">SharedOrganizationModule</text>
</g>
<!-- SharedOrganizationModule&#45;&gt;PermissionComponentsModule -->
<g id="edge3" class="edge">
<title>SharedOrganizationModule&#45;&gt;PermissionComponentsModule</title>
<path fill="none" stroke="black" d="M195.76,-66.8C201.38,-66.8 204.85,-66.8 204.85,-66.8 204.85,-66.8 204.85,-103.69 204.85,-103.69"/>
<polygon fill="black" stroke="black" points="201.35,-103.69 204.85,-113.69 208.35,-103.69 201.35,-103.69"/>
</g>
</g>
</svg>
