<?xml version="1.0" encoding="UTF-8" standalone="no"?>
<!DOCTYPE svg PUBLIC "-//W3C//DTD SVG 1.1//EN"
 "http://www.w3.org/Graphics/SVG/1.1/DTD/svg11.dtd">
<!-- Generated by graphviz version 2.47.0 (20210316.0004)
 -->
<!-- Title: dependencies Pages: 1 -->
<svg width="578pt" height="211pt"
 viewBox="0.00 0.00 578.00 211.00" xmlns="http://www.w3.org/2000/svg" xmlns:xlink="http://www.w3.org/1999/xlink">
<g id="graph0" class="graph" transform="scale(1 1) rotate(0) translate(4 207)">
<title>dependencies</title>
<polygon fill="white" stroke="transparent" points="-4,4 -4,-207 574,-207 574,4 -4,4"/>
<text text-anchor="start" x="264.01" y="-42.4" font-family="sans-serif" font-weight="bold" font-size="14.00">Legend</text>
<polygon fill="#ffffb3" stroke="transparent" points="51,-10 51,-30 71,-30 71,-10 51,-10"/>
<text text-anchor="start" x="74.63" y="-15.4" font-family="sans-serif" font-size="14.00"> &#160;Declarations</text>
<polygon fill="#8dd3c7" stroke="transparent" points="164,-10 164,-30 184,-30 184,-10 164,-10"/>
<text text-anchor="start" x="187.73" y="-15.4" font-family="sans-serif" font-size="14.00"> &#160;Module</text>
<polygon fill="#80b1d3" stroke="transparent" points="250,-10 250,-30 270,-30 270,-10 250,-10"/>
<text text-anchor="start" x="273.78" y="-15.4" font-family="sans-serif" font-size="14.00"> &#160;Bootstrap</text>
<polygon fill="#fdb462" stroke="transparent" points="347,-10 347,-30 367,-30 367,-10 347,-10"/>
<text text-anchor="start" x="370.67" y="-15.4" font-family="sans-serif" font-size="14.00"> &#160;Providers</text>
<polygon fill="#fb8072" stroke="transparent" points="443,-10 443,-30 463,-30 463,-10 443,-10"/>
<text text-anchor="start" x="466.73" y="-15.4" font-family="sans-serif" font-size="14.00"> &#160;Exports</text>
<g id="clust1" class="cluster">
<title>cluster_PermissionComponentsModule</title>
<polygon fill="none" stroke="black" stroke-dasharray="1,5" points="8,-70 8,-195 562,-195 562,-70 8,-70"/>
</g>
<g id="clust3" class="cluster">
<title>cluster_PermissionComponentsModule_imports</title>
<polygon fill="none" stroke="black" points="16,-78 16,-130 554,-130 554,-78 16,-78"/>
</g>
<!-- PermissionDetailsModule -->
<g id="node1" class="node">
<title>PermissionDetailsModule</title>
<polygon fill="#8dd3c7" stroke="black" points="545.92,-122 542.92,-126 521.92,-126 518.92,-122 384.08,-122 384.08,-86 545.92,-86 545.92,-122"/>
<text text-anchor="middle" x="465" y="-99.8" font-family="Times,serif" font-size="14.00">PermissionDetailsModule</text>
</g>
<!-- PermissionComponentsModule -->
<g id="node4" class="node">
<title>PermissionComponentsModule</title>
<polygon fill="#8dd3c7" stroke="black" points="386.05,-187 383.05,-191 362.05,-191 359.05,-187 193.95,-187 193.95,-151 386.05,-151 386.05,-187"/>
<text text-anchor="middle" x="290" y="-164.8" font-family="Times,serif" font-size="14.00">PermissionComponentsModule</text>
</g>
<!-- PermissionDetailsModule&#45;&gt;PermissionComponentsModule -->
<g id="edge1" class="edge">
<title>PermissionDetailsModule&#45;&gt;PermissionComponentsModule</title>
<path fill="none" stroke="black" d="M384.11,-104C378.6,-104 375.17,-104 375.17,-104 375.17,-104 375.17,-140.89 375.17,-140.89"/>
<polygon fill="black" stroke="black" points="371.67,-140.89 375.17,-150.89 378.67,-140.89 371.67,-140.89"/>
</g>
<!-- PermissionFormModule -->
<g id="node2" class="node">
<title>PermissionFormModule</title>
<polygon fill="#8dd3c7" stroke="black" points="366.1,-122 363.1,-126 342.1,-126 339.1,-122 213.9,-122 213.9,-86 366.1,-86 366.1,-122"/>
<text text-anchor="middle" x="290" y="-99.8" font-family="Times,serif" font-size="14.00">PermissionFormModule</text>
</g>
<!-- PermissionFormModule&#45;&gt;PermissionComponentsModule -->
<g id="edge2" class="edge">
<title>PermissionFormModule&#45;&gt;PermissionComponentsModule</title>
<path fill="none" stroke="black" d="M290,-122.11C290,-122.11 290,-140.99 290,-140.99"/>
<polygon fill="black" stroke="black" points="286.5,-140.99 290,-150.99 293.5,-140.99 286.5,-140.99"/>
</g>
<!-- SharedOrganizationModule -->
<g id="node3" class="node">
<title>SharedOrganizationModule</title>
<polygon fill="#8dd3c7" stroke="black" points="195.51,-122 192.51,-126 171.51,-126 168.51,-122 24.49,-122 24.49,-86 195.51,-86 195.51,-122"/>
<text text-anchor="middle" x="110" y="-99.8" font-family="Times,serif" font-size="14.00">SharedOrganizationModule</text>
</g>
<!-- SharedOrganizationModule&#45;&gt;PermissionComponentsModule -->
<g id="edge3" class="edge">
<title>SharedOrganizationModule&#45;&gt;PermissionComponentsModule</title>
<path fill="none" stroke="black" d="M195.76,-104C201.38,-104 204.85,-104 204.85,-104 204.85,-104 204.85,-140.89 204.85,-140.89"/>
<polygon fill="black" stroke="black" points="201.35,-140.89 204.85,-150.89 208.35,-140.89 201.35,-140.89"/>
</g>
</g>
</svg>
