<?xml version="1.0" encoding="UTF-8" standalone="no"?>
<!DOCTYPE svg PUBLIC "-//W3C//DTD SVG 1.1//EN"
 "http://www.w3.org/Graphics/SVG/1.1/DTD/svg11.dtd">
<!-- Generated by graphviz version 2.40.1 (20161225.0304)
 -->
<!-- Title: dependencies Pages: 1 -->
<svg width="578pt" height="211pt"
 viewBox="0.00 0.00 578.00 211.00" xmlns="http://www.w3.org/2000/svg" xmlns:xlink="http://www.w3.org/1999/xlink">
<g id="graph0" class="graph" transform="scale(1 1) rotate(0) translate(4 207)">
<title>dependencies</title>
<polygon fill="#ffffff" stroke="transparent" points="-4,4 -4,-207 574,-207 574,4 -4,4"/>
<text text-anchor="start" x="264.0091" y="-42.4" font-family="sans-serif" font-weight="bold" font-size="14.00" fill="#000000">Legend</text>
<polygon fill="#ffffb3" stroke="transparent" points="51,-10 51,-30 71,-30 71,-10 51,-10"/>
<text text-anchor="start" x="74.629" y="-15.4" font-family="sans-serif" font-size="14.00" fill="#000000"> &#160;Declarations</text>
<polygon fill="#8dd3c7" stroke="transparent" points="164,-10 164,-30 184,-30 184,-10 164,-10"/>
<text text-anchor="start" x="187.7251" y="-15.4" font-family="sans-serif" font-size="14.00" fill="#000000"> &#160;Module</text>
<polygon fill="#80b1d3" stroke="transparent" points="250,-10 250,-30 270,-30 270,-10 250,-10"/>
<text text-anchor="start" x="273.7812" y="-15.4" font-family="sans-serif" font-size="14.00" fill="#000000"> &#160;Bootstrap</text>
<polygon fill="#fdb462" stroke="transparent" points="347,-10 347,-30 367,-30 367,-10 347,-10"/>
<text text-anchor="start" x="370.6732" y="-15.4" font-family="sans-serif" font-size="14.00" fill="#000000"> &#160;Providers</text>
<polygon fill="#fb8072" stroke="transparent" points="443,-10 443,-30 463,-30 463,-10 443,-10"/>
<text text-anchor="start" x="466.7258" y="-15.4" font-family="sans-serif" font-size="14.00" fill="#000000"> &#160;Exports</text>
<g id="clust1" class="cluster">
<title>cluster_PermissionComponentsModule</title>
<polygon fill="none" stroke="#000000" stroke-dasharray="1,5" points="8,-70 8,-195 562,-195 562,-70 8,-70"/>
</g>
<g id="clust3" class="cluster">
<title>cluster_PermissionComponentsModule_imports</title>
<polygon fill="none" stroke="#000000" points="16,-78 16,-130 554,-130 554,-78 16,-78"/>
</g>
<!-- PermissionDetailsModule -->
<g id="node1" class="node">
<title>PermissionDetailsModule</title>
<polygon fill="#8dd3c7" stroke="#000000" points="545.9213,-122 542.9213,-126 521.9213,-126 518.9213,-122 384.0787,-122 384.0787,-86 545.9213,-86 545.9213,-122"/>
<text text-anchor="middle" x="465" y="-99.8" font-family="Times,serif" font-size="14.00" fill="#000000">PermissionDetailsModule</text>
</g>
<!-- PermissionComponentsModule -->
<g id="node4" class="node">
<title>PermissionComponentsModule</title>
<polygon fill="#8dd3c7" stroke="#000000" points="386.0461,-187 383.0461,-191 362.0461,-191 359.0461,-187 193.9539,-187 193.9539,-151 386.0461,-151 386.0461,-187"/>
<text text-anchor="middle" x="290" y="-164.8" font-family="Times,serif" font-size="14.00" fill="#000000">PermissionComponentsModule</text>
</g>
<!-- PermissionDetailsModule&#45;&gt;PermissionComponentsModule -->
<g id="edge1" class="edge">
<title>PermissionDetailsModule&#45;&gt;PermissionComponentsModule</title>
<path fill="none" stroke="#000000" d="M384.112,-104C378.5971,-104 375.1704,-104 375.1704,-104 375.1704,-104 375.1704,-140.8939 375.1704,-140.8939"/>
<polygon fill="#000000" stroke="#000000" points="371.6705,-140.8938 375.1704,-150.8939 378.6705,-140.8939 371.6705,-140.8938"/>
</g>
<!-- PermissionFormModule -->
<g id="node2" class="node">
<title>PermissionFormModule</title>
<polygon fill="#8dd3c7" stroke="#000000" points="366.1024,-122 363.1024,-126 342.1024,-126 339.1024,-122 213.8976,-122 213.8976,-86 366.1024,-86 366.1024,-122"/>
<text text-anchor="middle" x="290" y="-99.8" font-family="Times,serif" font-size="14.00" fill="#000000">PermissionFormModule</text>
</g>
<!-- PermissionFormModule&#45;&gt;PermissionComponentsModule -->
<g id="edge2" class="edge">
<title>PermissionFormModule&#45;&gt;PermissionComponentsModule</title>
<path fill="none" stroke="#000000" d="M290,-122.1061C290,-122.1061 290,-140.991 290,-140.991"/>
<polygon fill="#000000" stroke="#000000" points="286.5001,-140.9909 290,-150.991 293.5001,-140.991 286.5001,-140.9909"/>
</g>
<!-- SharedOrganizationModule -->
<g id="node3" class="node">
<title>SharedOrganizationModule</title>
<polygon fill="#8dd3c7" stroke="#000000" points="195.5057,-122 192.5057,-126 171.5057,-126 168.5057,-122 24.4943,-122 24.4943,-86 195.5057,-86 195.5057,-122"/>
<text text-anchor="middle" x="110" y="-99.8" font-family="Times,serif" font-size="14.00" fill="#000000">SharedOrganizationModule</text>
</g>
<!-- SharedOrganizationModule&#45;&gt;PermissionComponentsModule -->
<g id="edge3" class="edge">
<title>SharedOrganizationModule&#45;&gt;PermissionComponentsModule</title>
<path fill="none" stroke="#000000" d="M195.756,-104C201.3757,-104 204.8507,-104 204.8507,-104 204.8507,-104 204.8507,-140.8939 204.8507,-140.8939"/>
<polygon fill="#000000" stroke="#000000" points="201.3507,-140.8938 204.8507,-150.8939 208.3507,-140.8939 201.3507,-140.8938"/>
</g>
</g>
</svg>
