<?xml version="1.0" encoding="UTF-8" standalone="no"?>
<!DOCTYPE svg PUBLIC "-//W3C//DTD SVG 1.1//EN"
 "http://www.w3.org/Graphics/SVG/1.1/DTD/svg11.dtd">
<!-- Generated by graphviz version 2.40.1 (20161225.0304)
 -->
<!-- Title: dependencies Pages: 1 -->
<svg width="1575pt" height="284pt"
 viewBox="0.00 0.00 1575.00 284.00" xmlns="http://www.w3.org/2000/svg" xmlns:xlink="http://www.w3.org/1999/xlink">
<g id="graph0" class="graph" transform="scale(1 1) rotate(0) translate(4 280)">
<title>dependencies</title>
<polygon fill="#ffffff" stroke="transparent" points="-4,4 -4,-280 1571,-280 1571,4 -4,4"/>
<text text-anchor="start" x="762.5091" y="-42.4" font-family="sans-serif" font-weight="bold" font-size="14.00" fill="#000000">Legend</text>
<polygon fill="#ffffb3" stroke="transparent" points="549.5,-10 549.5,-30 569.5,-30 569.5,-10 549.5,-10"/>
<text text-anchor="start" x="573.129" y="-15.4" font-family="sans-serif" font-size="14.00" fill="#000000"> &#160;Declarations</text>
<polygon fill="#8dd3c7" stroke="transparent" points="662.5,-10 662.5,-30 682.5,-30 682.5,-10 662.5,-10"/>
<text text-anchor="start" x="686.2251" y="-15.4" font-family="sans-serif" font-size="14.00" fill="#000000"> &#160;Module</text>
<polygon fill="#80b1d3" stroke="transparent" points="748.5,-10 748.5,-30 768.5,-30 768.5,-10 748.5,-10"/>
<text text-anchor="start" x="772.2812" y="-15.4" font-family="sans-serif" font-size="14.00" fill="#000000"> &#160;Bootstrap</text>
<polygon fill="#fdb462" stroke="transparent" points="845.5,-10 845.5,-30 865.5,-30 865.5,-10 845.5,-10"/>
<text text-anchor="start" x="869.1732" y="-15.4" font-family="sans-serif" font-size="14.00" fill="#000000"> &#160;Providers</text>
<polygon fill="#fb8072" stroke="transparent" points="941.5,-10 941.5,-30 961.5,-30 961.5,-10 941.5,-10"/>
<text text-anchor="start" x="965.2258" y="-15.4" font-family="sans-serif" font-size="14.00" fill="#000000"> &#160;Exports</text>
<g id="clust1" class="cluster">
<title>cluster_MainModule</title>
<polygon fill="none" stroke="#000000" stroke-dasharray="1,5" points="8,-70 8,-268 1559,-268 1559,-70 8,-70"/>
</g>
<g id="clust2" class="cluster">
<title>cluster_MainModule_declarations</title>
<polygon fill="none" stroke="#000000" points="1397,-78 1397,-130 1551,-130 1551,-78 1397,-78"/>
</g>
<g id="clust4" class="cluster">
<title>cluster_MainModule_imports</title>
<polygon fill="none" stroke="#000000" points="16,-78 16,-130 1389,-130 1389,-78 16,-78"/>
</g>
<g id="clust5" class="cluster">
<title>cluster_MainModule_exports</title>
<polygon fill="none" stroke="#000000" points="604,-208 604,-260 762,-260 762,-208 604,-208"/>
</g>
<!-- StorefrontComponent -->
<g id="node1" class="node">
<title>StorefrontComponent</title>
<polygon fill="#ffffb3" stroke="#000000" points="1543.0926,-122 1404.9074,-122 1404.9074,-86 1543.0926,-86 1543.0926,-122"/>
<text text-anchor="middle" x="1474" y="-99.8" font-family="Times,serif" font-size="14.00" fill="#000000">StorefrontComponent</text>
</g>
<!-- MainModule -->
<g id="node2" class="node">
<title>MainModule</title>
<polygon fill="#8dd3c7" stroke="#000000" points="727.5997,-187 724.5997,-191 703.5997,-191 700.5997,-187 638.4003,-187 638.4003,-151 727.5997,-151 727.5997,-187"/>
<text text-anchor="middle" x="683" y="-164.8" font-family="Times,serif" font-size="14.00" fill="#000000">MainModule</text>
</g>
<!-- StorefrontComponent&#45;&gt;MainModule -->
<g id="edge1" class="edge">
<title>StorefrontComponent&#45;&gt;MainModule</title>
<path fill="none" stroke="#000000" d="M1474,-122.2479C1474,-145.0179 1474,-181 1474,-181 1474,-181 737.794,-181 737.794,-181"/>
<polygon fill="#000000" stroke="#000000" points="737.794,-177.5001 727.794,-181 737.7939,-184.5001 737.794,-177.5001"/>
</g>
<!-- StorefrontComponent  -->
<g id="node13" class="node">
<title>StorefrontComponent </title>
<polygon fill="#fb8072" stroke="#000000" points="753.5932,-252 612.4068,-252 612.4068,-216 753.5932,-216 753.5932,-252"/>
<text text-anchor="middle" x="683" y="-229.8" font-family="Times,serif" font-size="14.00" fill="#000000">StorefrontComponent </text>
</g>
<!-- MainModule&#45;&gt;StorefrontComponent  -->
<g id="edge12" class="edge">
<title>MainModule&#45;&gt;StorefrontComponent </title>
<path fill="none" stroke="#000000" stroke-dasharray="5,2" d="M683,-187.1061C683,-187.1061 683,-205.991 683,-205.991"/>
<polygon fill="#000000" stroke="#000000" points="679.5001,-205.9909 683,-215.991 686.5001,-205.991 679.5001,-205.9909"/>
</g>
<!-- AnonymousConsentsModule -->
<g id="node3" class="node">
<title>AnonymousConsentsModule</title>
<polygon fill="#8dd3c7" stroke="#000000" points="1380.8229,-122 1377.8229,-126 1356.8229,-126 1353.8229,-122 1201.1771,-122 1201.1771,-86 1380.8229,-86 1380.8229,-122"/>
<text text-anchor="middle" x="1291" y="-99.8" font-family="Times,serif" font-size="14.00" fill="#000000">AnonymousConsentsModule</text>
</g>
<!-- AnonymousConsentsModule&#45;&gt;MainModule -->
<g id="edge2" class="edge">
<title>AnonymousConsentsModule&#45;&gt;MainModule</title>
<path fill="none" stroke="#000000" d="M1291,-122.2843C1291,-143.3211 1291,-175 1291,-175 1291,-175 737.7077,-175 737.7077,-175"/>
<polygon fill="#000000" stroke="#000000" points="737.7077,-171.5001 727.7077,-175 737.7077,-178.5001 737.7077,-171.5001"/>
</g>
<!-- FeaturesConfigModule -->
<g id="node4" class="node">
<title>FeaturesConfigModule</title>
<polygon fill="#8dd3c7" stroke="#000000" points="1182.8599,-122 1179.8599,-126 1158.8599,-126 1155.8599,-122 1037.1401,-122 1037.1401,-86 1182.8599,-86 1182.8599,-122"/>
<text text-anchor="middle" x="1110" y="-99.8" font-family="Times,serif" font-size="14.00" fill="#000000">FeaturesConfigModule</text>
</g>
<!-- FeaturesConfigModule&#45;&gt;MainModule -->
<g id="edge3" class="edge">
<title>FeaturesConfigModule&#45;&gt;MainModule</title>
<path fill="none" stroke="#000000" d="M1110,-122.1061C1110,-141.3391 1110,-169 1110,-169 1110,-169 737.8894,-169 737.8894,-169"/>
<polygon fill="#000000" stroke="#000000" points="737.8895,-165.5001 727.8894,-169 737.8894,-172.5001 737.8895,-165.5001"/>
</g>
<!-- KeyboardFocusModule -->
<g id="node5" class="node">
<title>KeyboardFocusModule</title>
<polygon fill="#8dd3c7" stroke="#000000" points="1019.1881,-122 1016.1881,-126 995.1881,-126 992.1881,-122 870.8119,-122 870.8119,-86 1019.1881,-86 1019.1881,-122"/>
<text text-anchor="middle" x="945" y="-99.8" font-family="Times,serif" font-size="14.00" fill="#000000">KeyboardFocusModule</text>
</g>
<!-- KeyboardFocusModule&#45;&gt;MainModule -->
<g id="edge4" class="edge">
<title>KeyboardFocusModule&#45;&gt;MainModule</title>
<path fill="none" stroke="#000000" d="M945,-122.0225C945,-139.3734 945,-163 945,-163 945,-163 737.7417,-163 737.7417,-163"/>
<polygon fill="#000000" stroke="#000000" points="737.7417,-159.5001 727.7417,-163 737.7417,-166.5001 737.7417,-159.5001"/>
</g>
<!-- OutletModule -->
<g id="node6" class="node">
<title>OutletModule</title>
<polygon fill="#8dd3c7" stroke="#000000" points="853.0439,-122 850.0439,-126 829.0439,-126 826.0439,-122 758.9561,-122 758.9561,-86 853.0439,-86 853.0439,-122"/>
<text text-anchor="middle" x="806" y="-99.8" font-family="Times,serif" font-size="14.00" fill="#000000">OutletModule</text>
</g>
<!-- OutletModule&#45;&gt;MainModule -->
<g id="edge5" class="edge">
<title>OutletModule&#45;&gt;MainModule</title>
<path fill="none" stroke="#000000" d="M806,-122.2396C806,-137.5706 806,-157 806,-157 806,-157 737.7538,-157 737.7538,-157"/>
<polygon fill="#000000" stroke="#000000" points="737.7538,-153.5001 727.7538,-157 737.7537,-160.5001 737.7538,-153.5001"/>
</g>
<!-- OutletRefModule -->
<g id="node7" class="node">
<title>OutletRefModule</title>
<polygon fill="#8dd3c7" stroke="#000000" points="740.2549,-122 737.2549,-126 716.2549,-126 713.2549,-122 625.7451,-122 625.7451,-86 740.2549,-86 740.2549,-122"/>
<text text-anchor="middle" x="683" y="-99.8" font-family="Times,serif" font-size="14.00" fill="#000000">OutletRefModule</text>
</g>
<!-- OutletRefModule&#45;&gt;MainModule -->
<g id="edge6" class="edge">
<title>OutletRefModule&#45;&gt;MainModule</title>
<path fill="none" stroke="#000000" d="M683,-122.1061C683,-122.1061 683,-140.991 683,-140.991"/>
<polygon fill="#000000" stroke="#000000" points="679.5001,-140.9909 683,-150.991 686.5001,-140.991 679.5001,-140.9909"/>
</g>
<!-- PageLayoutModule -->
<g id="node8" class="node">
<title>PageLayoutModule</title>
<polygon fill="#8dd3c7" stroke="#000000" points="607.4201,-122 604.4201,-126 583.4201,-126 580.4201,-122 480.5799,-122 480.5799,-86 607.4201,-86 607.4201,-122"/>
<text text-anchor="middle" x="544" y="-99.8" font-family="Times,serif" font-size="14.00" fill="#000000">PageLayoutModule</text>
</g>
<!-- PageLayoutModule&#45;&gt;MainModule -->
<g id="edge7" class="edge">
<title>PageLayoutModule&#45;&gt;MainModule</title>
<path fill="none" stroke="#000000" d="M544,-122.2396C544,-137.5706 544,-157 544,-157 544,-157 628.2544,-157 628.2544,-157"/>
<polygon fill="#000000" stroke="#000000" points="628.2544,-160.5001 638.2544,-157 628.2544,-153.5001 628.2544,-160.5001"/>
</g>
<!-- PageSlotModule -->
<g id="node9" class="node">
<title>PageSlotModule</title>
<polygon fill="#8dd3c7" stroke="#000000" points="462.8259,-122 459.8259,-126 438.8259,-126 435.8259,-122 353.1741,-122 353.1741,-86 462.8259,-86 462.8259,-122"/>
<text text-anchor="middle" x="408" y="-99.8" font-family="Times,serif" font-size="14.00" fill="#000000">PageSlotModule</text>
</g>
<!-- PageSlotModule&#45;&gt;MainModule -->
<g id="edge8" class="edge">
<title>PageSlotModule&#45;&gt;MainModule</title>
<path fill="none" stroke="#000000" d="M408,-122.0225C408,-139.3734 408,-163 408,-163 408,-163 628.2045,-163 628.2045,-163"/>
<polygon fill="#000000" stroke="#000000" points="628.2045,-166.5001 638.2045,-163 628.2044,-159.5001 628.2045,-166.5001"/>
</g>
<!-- PwaModule -->
<g id="node10" class="node">
<title>PwaModule</title>
<polygon fill="#8dd3c7" stroke="#000000" points="335.6543,-122 332.6543,-126 311.6543,-126 308.6543,-122 252.3457,-122 252.3457,-86 335.6543,-86 335.6543,-122"/>
<text text-anchor="middle" x="294" y="-99.8" font-family="Times,serif" font-size="14.00" fill="#000000">PwaModule</text>
</g>
<!-- PwaModule&#45;&gt;MainModule -->
<g id="edge9" class="edge">
<title>PwaModule&#45;&gt;MainModule</title>
<path fill="none" stroke="#000000" d="M294,-122.1061C294,-141.3391 294,-169 294,-169 294,-169 628.3768,-169 628.3768,-169"/>
<polygon fill="#000000" stroke="#000000" points="628.3768,-172.5001 638.3768,-169 628.3767,-165.5001 628.3768,-172.5001"/>
</g>
<!-- SeoModule -->
<g id="node11" class="node">
<title>SeoModule</title>
<polygon fill="#8dd3c7" stroke="#000000" points="234.0483,-122 231.0483,-126 210.0483,-126 207.0483,-122 153.9517,-122 153.9517,-86 234.0483,-86 234.0483,-122"/>
<text text-anchor="middle" x="194" y="-99.8" font-family="Times,serif" font-size="14.00" fill="#000000">SeoModule</text>
</g>
<!-- SeoModule&#45;&gt;MainModule -->
<g id="edge10" class="edge">
<title>SeoModule&#45;&gt;MainModule</title>
<path fill="none" stroke="#000000" d="M194,-122.2843C194,-143.3211 194,-175 194,-175 194,-175 628.3082,-175 628.3082,-175"/>
<polygon fill="#000000" stroke="#000000" points="628.3082,-178.5001 638.3082,-175 628.3081,-171.5001 628.3082,-178.5001"/>
</g>
<!-- SkipLinkModule -->
<g id="node12" class="node">
<title>SkipLinkModule</title>
<polygon fill="#8dd3c7" stroke="#000000" points="135.6667,-122 132.6667,-126 111.6667,-126 108.6667,-122 24.3333,-122 24.3333,-86 135.6667,-86 135.6667,-122"/>
<text text-anchor="middle" x="80" y="-99.8" font-family="Times,serif" font-size="14.00" fill="#000000">SkipLinkModule</text>
</g>
<!-- SkipLinkModule&#45;&gt;MainModule -->
<g id="edge11" class="edge">
<title>SkipLinkModule&#45;&gt;MainModule</title>
<path fill="none" stroke="#000000" d="M80,-122.2479C80,-145.0179 80,-181 80,-181 80,-181 628.1696,-181 628.1696,-181"/>
<polygon fill="#000000" stroke="#000000" points="628.1697,-184.5001 638.1696,-181 628.1696,-177.5001 628.1697,-184.5001"/>
</g>
</g>
</svg>
