<?xml version="1.0" encoding="UTF-8" standalone="no"?>
<!DOCTYPE svg PUBLIC "-//W3C//DTD SVG 1.1//EN"
 "http://www.w3.org/Graphics/SVG/1.1/DTD/svg11.dtd">
<!-- Generated by graphviz version 2.47.3 (20210619.1520)
 -->
<!-- Title: dependencies Pages: 1 -->
<svg width="638pt" height="174pt"
 viewBox="0.00 0.00 638.00 173.80" xmlns="http://www.w3.org/2000/svg" xmlns:xlink="http://www.w3.org/1999/xlink">
<g id="graph0" class="graph" transform="scale(1 1) rotate(0) translate(4 169.8)">
<title>dependencies</title>
<polygon fill="white" stroke="transparent" points="-4,4 -4,-169.8 634,-169.8 634,4 -4,4"/>
<text text-anchor="middle" x="315" y="-8.2" font-family="sans-serif" font-size="14.00">dependencies</text>
<g id="clust1" class="cluster">
<title>cluster_MainModule</title>
<polygon fill="none" stroke="black" stroke-dasharray="1,5" points="8,-32.8 8,-157.8 622,-157.8 622,-32.8 8,-32.8"/>
</g>
<g id="clust3" class="cluster">
<title>cluster_MainModule_imports</title>
<polygon fill="none" stroke="black" points="16,-40.8 16,-92.8 614,-92.8 614,-40.8 16,-40.8"/>
</g>
<!-- AnonymousConsentsDialogModule -->
<g id="node1" class="node">
<title>AnonymousConsentsDialogModule</title>
<polygon fill="#8dd3c7" stroke="black" points="605.93,-84.8 602.93,-88.8 581.93,-88.8 578.93,-84.8 388.07,-84.8 388.07,-48.8 605.93,-48.8 605.93,-84.8"/>
<text text-anchor="middle" x="497" y="-62.6" font-family="Times,serif" font-size="14.00">AnonymousConsentsDialogModule</text>
</g>
<!-- MainModule -->
<g id="node5" class="node">
<title>MainModule</title>
<polygon fill="#8dd3c7" stroke="black" points="274.6,-149.8 271.6,-153.8 250.6,-153.8 247.6,-149.8 185.4,-149.8 185.4,-113.8 274.6,-113.8 274.6,-149.8"/>
<text text-anchor="middle" x="230" y="-127.6" font-family="Times,serif" font-size="14.00">MainModule</text>
</g>
<!-- AnonymousConsentsDialogModule&#45;&gt;MainModule -->
<g id="edge1" class="edge">
<title>AnonymousConsentsDialogModule&#45;&gt;MainModule</title>
<path fill="none" stroke="black" d="M497,-84.91C497,-104.14 497,-131.8 497,-131.8 497,-131.8 284.69,-131.8 284.69,-131.8"/>
<polygon fill="black" stroke="black" points="284.69,-128.3 274.69,-131.8 284.69,-135.3 284.69,-128.3"/>
</g>
<!-- FeaturesConfigModule -->
<g id="node2" class="node">
<title>FeaturesConfigModule</title>
<polygon fill="#8dd3c7" stroke="black" points="369.86,-84.8 366.86,-88.8 345.86,-88.8 342.86,-84.8 224.14,-84.8 224.14,-48.8 369.86,-48.8 369.86,-84.8"/>
<text text-anchor="middle" x="297" y="-62.6" font-family="Times,serif" font-size="14.00">FeaturesConfigModule</text>
</g>
<!-- FeaturesConfigModule&#45;&gt;MainModule -->
<g id="edge2" class="edge">
<title>FeaturesConfigModule&#45;&gt;MainModule</title>
<path fill="none" stroke="black" d="M249.31,-84.91C249.31,-84.91 249.31,-103.79 249.31,-103.79"/>
<polygon fill="black" stroke="black" points="245.81,-103.79 249.31,-113.79 252.81,-103.79 245.81,-103.79"/>
</g>
<!-- PwaModule -->
<g id="node3" class="node">
<title>PwaModule</title>
<polygon fill="#8dd3c7" stroke="black" points="205.65,-84.8 202.65,-88.8 181.65,-88.8 178.65,-84.8 122.35,-84.8 122.35,-48.8 205.65,-48.8 205.65,-84.8"/>
<text text-anchor="middle" x="164" y="-62.6" font-family="Times,serif" font-size="14.00">PwaModule</text>
</g>
<!-- PwaModule&#45;&gt;MainModule -->
<g id="edge3" class="edge">
<title>PwaModule&#45;&gt;MainModule</title>
<path fill="none" stroke="black" d="M195.64,-84.91C195.64,-84.91 195.64,-103.79 195.64,-103.79"/>
<polygon fill="black" stroke="black" points="192.14,-103.79 195.64,-113.79 199.14,-103.79 192.14,-103.79"/>
</g>
<!-- SeoModule -->
<g id="node4" class="node">
<title>SeoModule</title>
<polygon fill="#8dd3c7" stroke="black" points="104.05,-84.8 101.05,-88.8 80.05,-88.8 77.05,-84.8 23.95,-84.8 23.95,-48.8 104.05,-48.8 104.05,-84.8"/>
<text text-anchor="middle" x="64" y="-62.6" font-family="Times,serif" font-size="14.00">SeoModule</text>
</g>
<!-- SeoModule&#45;&gt;MainModule -->
<g id="edge4" class="edge">
<title>SeoModule&#45;&gt;MainModule</title>
<path fill="none" stroke="black" d="M64,-84.91C64,-104.14 64,-131.8 64,-131.8 64,-131.8 175.08,-131.8 175.08,-131.8"/>
<polygon fill="black" stroke="black" points="175.08,-135.3 185.08,-131.8 175.08,-128.3 175.08,-135.3"/>
</g>
</g>
</svg>
