<?xml version="1.0" encoding="UTF-8" standalone="no"?>
<!DOCTYPE svg PUBLIC "-//W3C//DTD SVG 1.1//EN"
 "http://www.w3.org/Graphics/SVG/1.1/DTD/svg11.dtd">
<!-- Generated by graphviz version 2.40.1 (20161225.0304)
 -->
<!-- Title: dependencies Pages: 1 -->
<svg width="1279pt" height="284pt"
 viewBox="0.00 0.00 1279.00 284.00" xmlns="http://www.w3.org/2000/svg" xmlns:xlink="http://www.w3.org/1999/xlink">
<g id="graph0" class="graph" transform="scale(1 1) rotate(0) translate(4 280)">
<title>dependencies</title>
<polygon fill="#ffffff" stroke="transparent" points="-4,4 -4,-280 1275,-280 1275,4 -4,4"/>
<text text-anchor="start" x="614.5091" y="-42.4" font-family="sans-serif" font-weight="bold" font-size="14.00" fill="#000000">Legend</text>
<polygon fill="#ffffb3" stroke="transparent" points="401.5,-10 401.5,-30 421.5,-30 421.5,-10 401.5,-10"/>
<text text-anchor="start" x="425.129" y="-15.4" font-family="sans-serif" font-size="14.00" fill="#000000"> &#160;Declarations</text>
<polygon fill="#8dd3c7" stroke="transparent" points="514.5,-10 514.5,-30 534.5,-30 534.5,-10 514.5,-10"/>
<text text-anchor="start" x="538.2251" y="-15.4" font-family="sans-serif" font-size="14.00" fill="#000000"> &#160;Module</text>
<polygon fill="#80b1d3" stroke="transparent" points="600.5,-10 600.5,-30 620.5,-30 620.5,-10 600.5,-10"/>
<text text-anchor="start" x="624.2812" y="-15.4" font-family="sans-serif" font-size="14.00" fill="#000000"> &#160;Bootstrap</text>
<polygon fill="#fdb462" stroke="transparent" points="697.5,-10 697.5,-30 717.5,-30 717.5,-10 697.5,-10"/>
<text text-anchor="start" x="721.1732" y="-15.4" font-family="sans-serif" font-size="14.00" fill="#000000"> &#160;Providers</text>
<polygon fill="#fb8072" stroke="transparent" points="793.5,-10 793.5,-30 813.5,-30 813.5,-10 793.5,-10"/>
<text text-anchor="start" x="817.2258" y="-15.4" font-family="sans-serif" font-size="14.00" fill="#000000"> &#160;Exports</text>
<g id="clust1" class="cluster">
<title>cluster_MainModule</title>
<polygon fill="none" stroke="#000000" stroke-dasharray="1,5" points="8,-70 8,-268 1263,-268 1263,-70 8,-70"/>
</g>
<g id="clust2" class="cluster">
<title>cluster_MainModule_declarations</title>
<polygon fill="none" stroke="#000000" points="1101,-78 1101,-130 1255,-130 1255,-78 1101,-78"/>
</g>
<g id="clust4" class="cluster">
<title>cluster_MainModule_imports</title>
<polygon fill="none" stroke="#000000" points="16,-78 16,-130 1093,-130 1093,-78 16,-78"/>
</g>
<g id="clust5" class="cluster">
<title>cluster_MainModule_exports</title>
<polygon fill="none" stroke="#000000" points="474,-208 474,-260 632,-260 632,-208 474,-208"/>
</g>
<!-- StorefrontComponent -->
<g id="node1" class="node">
<title>StorefrontComponent</title>
<polygon fill="#ffffb3" stroke="#000000" points="1247.0926,-122 1108.9074,-122 1108.9074,-86 1247.0926,-86 1247.0926,-122"/>
<text text-anchor="middle" x="1178" y="-99.8" font-family="Times,serif" font-size="14.00" fill="#000000">StorefrontComponent</text>
</g>
<!-- MainModule -->
<g id="node2" class="node">
<title>MainModule</title>
<polygon fill="#8dd3c7" stroke="#000000" points="597.5997,-187 594.5997,-191 573.5997,-191 570.5997,-187 508.4003,-187 508.4003,-151 597.5997,-151 597.5997,-187"/>
<text text-anchor="middle" x="553" y="-164.8" font-family="Times,serif" font-size="14.00" fill="#000000">MainModule</text>
</g>
<!-- StorefrontComponent&#45;&gt;MainModule -->
<g id="edge1" class="edge">
<title>StorefrontComponent&#45;&gt;MainModule</title>
<path fill="none" stroke="#000000" d="M1178,-122.0109C1178,-144.4852 1178,-180 1178,-180 1178,-180 607.9485,-180 607.9485,-180"/>
<polygon fill="#000000" stroke="#000000" points="607.9485,-176.5001 597.9485,-180 607.9484,-183.5001 607.9485,-176.5001"/>
</g>
<!-- StorefrontComponent  -->
<g id="node11" class="node">
<title>StorefrontComponent </title>
<polygon fill="#fb8072" stroke="#000000" points="623.5932,-252 482.4068,-252 482.4068,-216 623.5932,-216 623.5932,-252"/>
<text text-anchor="middle" x="553" y="-229.8" font-family="Times,serif" font-size="14.00" fill="#000000">StorefrontComponent </text>
</g>
<!-- MainModule&#45;&gt;StorefrontComponent  -->
<g id="edge10" class="edge">
<title>MainModule&#45;&gt;StorefrontComponent </title>
<path fill="none" stroke="#000000" stroke-dasharray="5,2" d="M553,-187.1061C553,-187.1061 553,-205.991 553,-205.991"/>
<polygon fill="#000000" stroke="#000000" points="549.5001,-205.9909 553,-215.991 556.5001,-205.991 549.5001,-205.9909"/>
</g>
<!-- AnonymousConsentsModule -->
<g id="node3" class="node">
<title>AnonymousConsentsModule</title>
<polygon fill="#8dd3c7" stroke="#000000" points="1084.8229,-122 1081.8229,-126 1060.8229,-126 1057.8229,-122 905.1771,-122 905.1771,-86 1084.8229,-86 1084.8229,-122"/>
<text text-anchor="middle" x="995" y="-99.8" font-family="Times,serif" font-size="14.00" fill="#000000">AnonymousConsentsModule</text>
</g>
<!-- AnonymousConsentsModule&#45;&gt;MainModule -->
<g id="edge2" class="edge">
<title>AnonymousConsentsModule&#45;&gt;MainModule</title>
<path fill="none" stroke="#000000" d="M995,-122.1289C995,-142.5724 995,-173 995,-173 995,-173 607.8137,-173 607.8137,-173"/>
<polygon fill="#000000" stroke="#000000" points="607.8138,-169.5001 597.8137,-173 607.8137,-176.5001 607.8138,-169.5001"/>
</g>
<!-- FeaturesConfigModule -->
<g id="node4" class="node">
<title>FeaturesConfigModule</title>
<polygon fill="#8dd3c7" stroke="#000000" points="886.8599,-122 883.8599,-126 862.8599,-126 859.8599,-122 741.1401,-122 741.1401,-86 886.8599,-86 886.8599,-122"/>
<text text-anchor="middle" x="814" y="-99.8" font-family="Times,serif" font-size="14.00" fill="#000000">FeaturesConfigModule</text>
</g>
<!-- FeaturesConfigModule&#45;&gt;MainModule -->
<g id="edge3" class="edge">
<title>FeaturesConfigModule&#45;&gt;MainModule</title>
<path fill="none" stroke="#000000" d="M814,-122.2667C814,-140.5552 814,-166 814,-166 814,-166 607.5709,-166 607.5709,-166"/>
<polygon fill="#000000" stroke="#000000" points="607.571,-162.5001 597.5709,-166 607.5709,-169.5001 607.571,-162.5001"/>
</g>
<!-- OutletModule -->
<g id="node5" class="node">
<title>OutletModule</title>
<polygon fill="#8dd3c7" stroke="#000000" points="723.0439,-122 720.0439,-126 699.0439,-126 696.0439,-122 628.9561,-122 628.9561,-86 723.0439,-86 723.0439,-122"/>
<text text-anchor="middle" x="676" y="-99.8" font-family="Times,serif" font-size="14.00" fill="#000000">OutletModule</text>
</g>
<!-- OutletModule&#45;&gt;MainModule -->
<g id="edge4" class="edge">
<title>OutletModule&#45;&gt;MainModule</title>
<path fill="none" stroke="#000000" d="M676,-122.0091C676,-138.0494 676,-159 676,-159 676,-159 607.7538,-159 607.7538,-159"/>
<polygon fill="#000000" stroke="#000000" points="607.7538,-155.5001 597.7538,-159 607.7537,-162.5001 607.7538,-155.5001"/>
</g>
<!-- OutletRefModule -->
<g id="node6" class="node">
<title>OutletRefModule</title>
<polygon fill="#8dd3c7" stroke="#000000" points="610.2549,-122 607.2549,-126 586.2549,-126 583.2549,-122 495.7451,-122 495.7451,-86 610.2549,-86 610.2549,-122"/>
<text text-anchor="middle" x="553" y="-99.8" font-family="Times,serif" font-size="14.00" fill="#000000">OutletRefModule</text>
</g>
<!-- OutletRefModule&#45;&gt;MainModule -->
<g id="edge5" class="edge">
<title>OutletRefModule&#45;&gt;MainModule</title>
<path fill="none" stroke="#000000" d="M553,-122.1061C553,-122.1061 553,-140.991 553,-140.991"/>
<polygon fill="#000000" stroke="#000000" points="549.5001,-140.9909 553,-150.991 556.5001,-140.991 549.5001,-140.9909"/>
</g>
<!-- PageLayoutModule -->
<g id="node7" class="node">
<title>PageLayoutModule</title>
<polygon fill="#8dd3c7" stroke="#000000" points="477.4201,-122 474.4201,-126 453.4201,-126 450.4201,-122 350.5799,-122 350.5799,-86 477.4201,-86 477.4201,-122"/>
<text text-anchor="middle" x="414" y="-99.8" font-family="Times,serif" font-size="14.00" fill="#000000">PageLayoutModule</text>
</g>
<!-- PageLayoutModule&#45;&gt;MainModule -->
<g id="edge6" class="edge">
<title>PageLayoutModule&#45;&gt;MainModule</title>
<path fill="none" stroke="#000000" d="M414,-122.0091C414,-138.0494 414,-159 414,-159 414,-159 498.2544,-159 498.2544,-159"/>
<polygon fill="#000000" stroke="#000000" points="498.2544,-162.5001 508.2544,-159 498.2544,-155.5001 498.2544,-162.5001"/>
</g>
<!-- PageSlotModule -->
<g id="node8" class="node">
<title>PageSlotModule</title>
<polygon fill="#8dd3c7" stroke="#000000" points="332.8259,-122 329.8259,-126 308.8259,-126 305.8259,-122 223.1741,-122 223.1741,-86 332.8259,-86 332.8259,-122"/>
<text text-anchor="middle" x="278" y="-99.8" font-family="Times,serif" font-size="14.00" fill="#000000">PageSlotModule</text>
</g>
<!-- PageSlotModule&#45;&gt;MainModule -->
<g id="edge7" class="edge">
<title>PageSlotModule&#45;&gt;MainModule</title>
<path fill="none" stroke="#000000" d="M278,-122.2667C278,-140.5552 278,-166 278,-166 278,-166 498.2045,-166 498.2045,-166"/>
<polygon fill="#000000" stroke="#000000" points="498.2045,-169.5001 508.2045,-166 498.2044,-162.5001 498.2045,-169.5001"/>
</g>
<!-- PwaModule -->
<g id="node9" class="node">
<title>PwaModule</title>
<polygon fill="#8dd3c7" stroke="#000000" points="205.6543,-122 202.6543,-126 181.6543,-126 178.6543,-122 122.3457,-122 122.3457,-86 205.6543,-86 205.6543,-122"/>
<text text-anchor="middle" x="164" y="-99.8" font-family="Times,serif" font-size="14.00" fill="#000000">PwaModule</text>
</g>
<!-- PwaModule&#45;&gt;MainModule -->
<g id="edge8" class="edge">
<title>PwaModule&#45;&gt;MainModule</title>
<path fill="none" stroke="#000000" d="M164,-122.1289C164,-142.5724 164,-173 164,-173 164,-173 498.3768,-173 498.3768,-173"/>
<polygon fill="#000000" stroke="#000000" points="498.3768,-176.5001 508.3768,-173 498.3767,-169.5001 498.3768,-176.5001"/>
</g>
<!-- SeoModule -->
<g id="node10" class="node">
<title>SeoModule</title>
<polygon fill="#8dd3c7" stroke="#000000" points="104.0483,-122 101.0483,-126 80.0483,-126 77.0483,-122 23.9517,-122 23.9517,-86 104.0483,-86 104.0483,-122"/>
<text text-anchor="middle" x="64" y="-99.8" font-family="Times,serif" font-size="14.00" fill="#000000">SeoModule</text>
</g>
<!-- SeoModule&#45;&gt;MainModule -->
<g id="edge9" class="edge">
<title>SeoModule&#45;&gt;MainModule</title>
<path fill="none" stroke="#000000" d="M64,-122.0109C64,-144.4852 64,-180 64,-180 64,-180 498.3082,-180 498.3082,-180"/>
<polygon fill="#000000" stroke="#000000" points="498.3082,-183.5001 508.3082,-180 498.3081,-176.5001 498.3082,-183.5001"/>
</g>
</g>
</svg>
