<?xml version="1.0" encoding="UTF-8" standalone="no"?>
<!DOCTYPE svg PUBLIC "-//W3C//DTD SVG 1.1//EN"
 "http://www.w3.org/Graphics/SVG/1.1/DTD/svg11.dtd">
<!-- Generated by graphviz version 2.40.1 (20161225.0304)
 -->
<!-- Title: dependencies Pages: 1 -->
<svg width="561pt" height="284pt"
 viewBox="0.00 0.00 561.00 284.00" xmlns="http://www.w3.org/2000/svg" xmlns:xlink="http://www.w3.org/1999/xlink">
<g id="graph0" class="graph" transform="scale(1 1) rotate(0) translate(4 280)">
<title>dependencies</title>
<polygon fill="#ffffff" stroke="transparent" points="-4,4 -4,-280 557,-280 557,4 -4,4"/>
<text text-anchor="start" x="255.5091" y="-42.4" font-family="sans-serif" font-weight="bold" font-size="14.00" fill="#000000">Legend</text>
<polygon fill="#ffffb3" stroke="transparent" points="42.5,-10 42.5,-30 62.5,-30 62.5,-10 42.5,-10"/>
<text text-anchor="start" x="66.129" y="-15.4" font-family="sans-serif" font-size="14.00" fill="#000000"> &#160;Declarations</text>
<polygon fill="#8dd3c7" stroke="transparent" points="155.5,-10 155.5,-30 175.5,-30 175.5,-10 155.5,-10"/>
<text text-anchor="start" x="179.2251" y="-15.4" font-family="sans-serif" font-size="14.00" fill="#000000"> &#160;Module</text>
<polygon fill="#80b1d3" stroke="transparent" points="241.5,-10 241.5,-30 261.5,-30 261.5,-10 241.5,-10"/>
<text text-anchor="start" x="265.2812" y="-15.4" font-family="sans-serif" font-size="14.00" fill="#000000"> &#160;Bootstrap</text>
<polygon fill="#fdb462" stroke="transparent" points="338.5,-10 338.5,-30 358.5,-30 358.5,-10 338.5,-10"/>
<text text-anchor="start" x="362.1732" y="-15.4" font-family="sans-serif" font-size="14.00" fill="#000000"> &#160;Providers</text>
<polygon fill="#fb8072" stroke="transparent" points="434.5,-10 434.5,-30 454.5,-30 454.5,-10 434.5,-10"/>
<text text-anchor="start" x="458.2258" y="-15.4" font-family="sans-serif" font-size="14.00" fill="#000000"> &#160;Exports</text>
<g id="clust1" class="cluster">
<title>cluster_CheckoutProgressModule</title>
<polygon fill="none" stroke="#000000" stroke-dasharray="1,5" points="8,-70 8,-268 545,-268 545,-70 8,-70"/>
</g>
<g id="clust2" class="cluster">
<title>cluster_CheckoutProgressModule_declarations</title>
<polygon fill="none" stroke="#000000" points="222,-78 222,-130 537,-130 537,-78 222,-78"/>
</g>
<g id="clust5" class="cluster">
<title>cluster_CheckoutProgressModule_imports</title>
<polygon fill="none" stroke="#000000" points="16,-78 16,-130 214,-130 214,-78 16,-78"/>
</g>
<g id="clust6" class="cluster">
<title>cluster_CheckoutProgressModule_exports</title>
<polygon fill="none" stroke="#000000" points="120,-208 120,-260 322,-260 322,-208 120,-208"/>
</g>
<!-- CheckoutProgressComponent -->
<g id="node1" class="node">
<title>CheckoutProgressComponent</title>
<polygon fill="#ffffb3" stroke="#000000" points="528.6965,-122 345.3035,-122 345.3035,-86 528.6965,-86 528.6965,-122"/>
<text text-anchor="middle" x="437" y="-99.8" font-family="Times,serif" font-size="14.00" fill="#000000">CheckoutProgressComponent</text>
</g>
<!-- CheckoutProgressModule -->
<g id="node3" class="node">
<title>CheckoutProgressModule</title>
<polygon fill="#8dd3c7" stroke="#000000" points="301.9143,-187 298.9143,-191 277.9143,-191 274.9143,-187 140.0857,-187 140.0857,-151 301.9143,-151 301.9143,-187"/>
<text text-anchor="middle" x="221" y="-164.8" font-family="Times,serif" font-size="14.00" fill="#000000">CheckoutProgressModule</text>
</g>
<!-- CheckoutProgressComponent&#45;&gt;CheckoutProgressModule -->
<g id="edge1" class="edge">
<title>CheckoutProgressComponent&#45;&gt;CheckoutProgressModule</title>
<path fill="none" stroke="#000000" d="M437,-122.1061C437,-141.3391 437,-169 437,-169 437,-169 311.7376,-169 311.7376,-169"/>
<polygon fill="#000000" stroke="#000000" points="311.7376,-165.5001 301.7376,-169 311.7376,-172.5001 311.7376,-165.5001"/>
</g>
<!-- MultiLinePipe -->
<g id="node2" class="node">
<title>MultiLinePipe</title>
<polygon fill="#ffffb3" stroke="#000000" points="327.6626,-122 230.3374,-122 230.3374,-86 327.6626,-86 327.6626,-122"/>
<text text-anchor="middle" x="279" y="-99.8" font-family="Times,serif" font-size="14.00" fill="#000000">MultiLinePipe</text>
</g>
<!-- MultiLinePipe&#45;&gt;CheckoutProgressModule -->
<g id="edge2" class="edge">
<title>MultiLinePipe&#45;&gt;CheckoutProgressModule</title>
<path fill="none" stroke="#000000" d="M265.938,-122.1061C265.938,-122.1061 265.938,-140.991 265.938,-140.991"/>
<polygon fill="#000000" stroke="#000000" points="262.438,-140.9909 265.938,-150.991 269.438,-140.991 262.438,-140.9909"/>
</g>
<!-- CheckoutProgressComponent  -->
<g id="node6" class="node">
<title>CheckoutProgressComponent </title>
<polygon fill="#fb8072" stroke="#000000" points="314.1966,-252 127.8034,-252 127.8034,-216 314.1966,-216 314.1966,-252"/>
<text text-anchor="middle" x="221" y="-229.8" font-family="Times,serif" font-size="14.00" fill="#000000">CheckoutProgressComponent </text>
</g>
<!-- CheckoutProgressModule&#45;&gt;CheckoutProgressComponent  -->
<g id="edge5" class="edge">
<title>CheckoutProgressModule&#45;&gt;CheckoutProgressComponent </title>
<path fill="none" stroke="#000000" stroke-dasharray="5,2" d="M221,-187.1061C221,-187.1061 221,-205.991 221,-205.991"/>
<polygon fill="#000000" stroke="#000000" points="217.5001,-205.9909 221,-215.991 224.5001,-205.991 217.5001,-205.9909"/>
</g>
<!-- I18nModule -->
<g id="node4" class="node">
<title>I18nModule</title>
<polygon fill="#8dd3c7" stroke="#000000" points="205.7107,-122 202.7107,-126 181.7107,-126 178.7107,-122 120.2893,-122 120.2893,-86 205.7107,-86 205.7107,-122"/>
<text text-anchor="middle" x="163" y="-99.8" font-family="Times,serif" font-size="14.00" fill="#000000">I18nModule</text>
</g>
<!-- I18nModule&#45;&gt;CheckoutProgressModule -->
<g id="edge3" class="edge">
<title>I18nModule&#45;&gt;CheckoutProgressModule</title>
<path fill="none" stroke="#000000" d="M172.9492,-122.1061C172.9492,-122.1061 172.9492,-140.991 172.9492,-140.991"/>
<polygon fill="#000000" stroke="#000000" points="169.4492,-140.9909 172.9492,-150.991 176.4492,-140.991 169.4492,-140.9909"/>
</g>
<!-- UrlModule -->
<g id="node5" class="node">
<title>UrlModule</title>
<polygon fill="#8dd3c7" stroke="#000000" points="102.2079,-122 99.2079,-126 78.2079,-126 75.2079,-122 23.7921,-122 23.7921,-86 102.2079,-86 102.2079,-122"/>
<text text-anchor="middle" x="63" y="-99.8" font-family="Times,serif" font-size="14.00" fill="#000000">UrlModule</text>
</g>
<!-- UrlModule&#45;&gt;CheckoutProgressModule -->
<g id="edge4" class="edge">
<title>UrlModule&#45;&gt;CheckoutProgressModule</title>
<path fill="none" stroke="#000000" d="M63,-122.1061C63,-141.3391 63,-169 63,-169 63,-169 130.1486,-169 130.1486,-169"/>
<polygon fill="#000000" stroke="#000000" points="130.1486,-172.5001 140.1486,-169 130.1486,-165.5001 130.1486,-172.5001"/>
</g>
</g>
</svg>
