<?xml version="1.0" encoding="UTF-8" standalone="no"?>
<!DOCTYPE svg PUBLIC "-//W3C//DTD SVG 1.1//EN"
 "http://www.w3.org/Graphics/SVG/1.1/DTD/svg11.dtd">
<!-- Generated by graphviz version 2.40.1 (20161225.0304)
 -->
<!-- Title: dependencies Pages: 1 -->
<svg width="562pt" height="284pt"
 viewBox="0.00 0.00 562.00 284.00" xmlns="http://www.w3.org/2000/svg" xmlns:xlink="http://www.w3.org/1999/xlink">
<g id="graph0" class="graph" transform="scale(1 1) rotate(0) translate(4 280)">
<title>dependencies</title>
<polygon fill="#ffffff" stroke="transparent" points="-4,4 -4,-280 558,-280 558,4 -4,4"/>
<text text-anchor="start" x="256.0091" y="-42.4" font-family="sans-serif" font-weight="bold" font-size="14.00" fill="#000000">Legend</text>
<polygon fill="#ffffb3" stroke="transparent" points="43,-10 43,-30 63,-30 63,-10 43,-10"/>
<text text-anchor="start" x="66.629" y="-15.4" font-family="sans-serif" font-size="14.00" fill="#000000"> &#160;Declarations</text>
<polygon fill="#8dd3c7" stroke="transparent" points="156,-10 156,-30 176,-30 176,-10 156,-10"/>
<text text-anchor="start" x="179.7251" y="-15.4" font-family="sans-serif" font-size="14.00" fill="#000000"> &#160;Module</text>
<polygon fill="#80b1d3" stroke="transparent" points="242,-10 242,-30 262,-30 262,-10 242,-10"/>
<text text-anchor="start" x="265.7812" y="-15.4" font-family="sans-serif" font-size="14.00" fill="#000000"> &#160;Bootstrap</text>
<polygon fill="#fdb462" stroke="transparent" points="339,-10 339,-30 359,-30 359,-10 339,-10"/>
<text text-anchor="start" x="362.6732" y="-15.4" font-family="sans-serif" font-size="14.00" fill="#000000"> &#160;Providers</text>
<polygon fill="#fb8072" stroke="transparent" points="435,-10 435,-30 455,-30 455,-10 435,-10"/>
<text text-anchor="start" x="458.7258" y="-15.4" font-family="sans-serif" font-size="14.00" fill="#000000"> &#160;Exports</text>
<g id="clust1" class="cluster">
<title>cluster_CheckoutProgressModule</title>
<polygon fill="none" stroke="#000000" stroke-dasharray="1,5" points="8,-70 8,-268 546,-268 546,-70 8,-70"/>
</g>
<g id="clust2" class="cluster">
<title>cluster_CheckoutProgressModule_declarations</title>
<polygon fill="none" stroke="#000000" points="338,-78 338,-130 538,-130 538,-78 338,-78"/>
</g>
<g id="clust4" class="cluster">
<title>cluster_CheckoutProgressModule_imports</title>
<polygon fill="none" stroke="#000000" points="16,-78 16,-130 330,-130 330,-78 16,-78"/>
</g>
<g id="clust5" class="cluster">
<title>cluster_CheckoutProgressModule_exports</title>
<polygon fill="none" stroke="#000000" points="172,-208 172,-260 374,-260 374,-208 172,-208"/>
</g>
<!-- CheckoutProgressComponent -->
<g id="node1" class="node">
<title>CheckoutProgressComponent</title>
<polygon fill="#ffffb3" stroke="#000000" points="529.6965,-122 346.3035,-122 346.3035,-86 529.6965,-86 529.6965,-122"/>
<text text-anchor="middle" x="438" y="-99.8" font-family="Times,serif" font-size="14.00" fill="#000000">CheckoutProgressComponent</text>
</g>
<!-- CheckoutProgressModule -->
<g id="node2" class="node">
<title>CheckoutProgressModule</title>
<polygon fill="#8dd3c7" stroke="#000000" points="353.9143,-187 350.9143,-191 329.9143,-191 326.9143,-187 192.0857,-187 192.0857,-151 353.9143,-151 353.9143,-187"/>
<text text-anchor="middle" x="273" y="-164.8" font-family="Times,serif" font-size="14.00" fill="#000000">CheckoutProgressModule</text>
</g>
<!-- CheckoutProgressComponent&#45;&gt;CheckoutProgressModule -->
<g id="edge1" class="edge">
<title>CheckoutProgressComponent&#45;&gt;CheckoutProgressModule</title>
<path fill="none" stroke="#000000" d="M350.0544,-122.1061C350.0544,-122.1061 350.0544,-140.991 350.0544,-140.991"/>
<polygon fill="#000000" stroke="#000000" points="346.5544,-140.9909 350.0544,-150.991 353.5544,-140.991 346.5544,-140.9909"/>
</g>
<!-- CheckoutProgressComponent  -->
<g id="node6" class="node">
<title>CheckoutProgressComponent </title>
<polygon fill="#fb8072" stroke="#000000" points="366.1966,-252 179.8034,-252 179.8034,-216 366.1966,-216 366.1966,-252"/>
<text text-anchor="middle" x="273" y="-229.8" font-family="Times,serif" font-size="14.00" fill="#000000">CheckoutProgressComponent </text>
</g>
<!-- CheckoutProgressModule&#45;&gt;CheckoutProgressComponent  -->
<g id="edge6" class="edge">
<title>CheckoutProgressModule&#45;&gt;CheckoutProgressComponent </title>
<path fill="none" stroke="#000000" stroke-dasharray="5,2" d="M273,-187.1061C273,-187.1061 273,-205.991 273,-205.991"/>
<polygon fill="#000000" stroke="#000000" points="269.5001,-205.9909 273,-215.991 276.5001,-205.991 269.5001,-205.9909"/>
</g>
<!-- ConfigModule -->
<g id="node3" class="node">
<title>ConfigModule</title>
<polygon fill="#8dd3c7" stroke="#000000" points="322.4386,-122 319.4386,-126 298.4386,-126 295.4386,-122 223.5614,-122 223.5614,-86 322.4386,-86 322.4386,-122"/>
<text text-anchor="middle" x="273" y="-99.8" font-family="Times,serif" font-size="14.00" fill="#000000">ConfigModule</text>
</g>
<!-- ConfigModule&#45;&gt;CheckoutProgressModule -->
<g id="edge2" class="edge">
<title>ConfigModule&#45;&gt;CheckoutProgressModule</title>
<path fill="none" stroke="#000000" d="M256.5937,-122.1061C256.5937,-122.1061 256.5937,-140.991 256.5937,-140.991"/>
<polygon fill="#000000" stroke="#000000" points="253.0938,-140.9909 256.5937,-150.991 260.0938,-140.991 253.0938,-140.9909"/>
</g>
<!-- ConfigModule&#45;&gt;CheckoutProgressModule -->
<g id="edge3" class="edge">
<title>ConfigModule&#45;&gt;CheckoutProgressModule</title>
<path fill="none" stroke="#000000" d="M289.4063,-122.1061C289.4063,-122.1061 289.4063,-140.991 289.4063,-140.991"/>
<polygon fill="#000000" stroke="#000000" points="285.9064,-140.9909 289.4063,-150.991 292.9064,-140.991 285.9064,-140.9909"/>
</g>
<!-- I18nModule -->
<g id="node4" class="node">
<title>I18nModule</title>
<polygon fill="#8dd3c7" stroke="#000000" points="205.7107,-122 202.7107,-126 181.7107,-126 178.7107,-122 120.2893,-122 120.2893,-86 205.7107,-86 205.7107,-122"/>
<text text-anchor="middle" x="163" y="-99.8" font-family="Times,serif" font-size="14.00" fill="#000000">I18nModule</text>
</g>
<!-- I18nModule&#45;&gt;CheckoutProgressModule -->
<g id="edge4" class="edge">
<title>I18nModule&#45;&gt;CheckoutProgressModule</title>
<path fill="none" stroke="#000000" d="M198.9492,-122.1061C198.9492,-122.1061 198.9492,-140.991 198.9492,-140.991"/>
<polygon fill="#000000" stroke="#000000" points="195.4492,-140.9909 198.9492,-150.991 202.4492,-140.991 195.4492,-140.9909"/>
</g>
<!-- UrlModule -->
<g id="node5" class="node">
<title>UrlModule</title>
<polygon fill="#8dd3c7" stroke="#000000" points="102.2079,-122 99.2079,-126 78.2079,-126 75.2079,-122 23.7921,-122 23.7921,-86 102.2079,-86 102.2079,-122"/>
<text text-anchor="middle" x="63" y="-99.8" font-family="Times,serif" font-size="14.00" fill="#000000">UrlModule</text>
</g>
<!-- UrlModule&#45;&gt;CheckoutProgressModule -->
<g id="edge5" class="edge">
<title>UrlModule&#45;&gt;CheckoutProgressModule</title>
<path fill="none" stroke="#000000" d="M63,-122.1061C63,-141.3391 63,-169 63,-169 63,-169 182.1089,-169 182.1089,-169"/>
<polygon fill="#000000" stroke="#000000" points="182.1089,-172.5001 192.1089,-169 182.1089,-165.5001 182.1089,-172.5001"/>
</g>
</g>
</svg>
