<?xml version="1.0" encoding="UTF-8" standalone="no"?>
<!DOCTYPE svg PUBLIC "-//W3C//DTD SVG 1.1//EN"
 "http://www.w3.org/Graphics/SVG/1.1/DTD/svg11.dtd">
<!-- Generated by graphviz version 2.47.3 (20210619.1520)
 -->
<!-- Title: dependencies Pages: 1 -->
<svg width="561pt" height="247pt"
 viewBox="0.00 0.00 561.00 246.80" xmlns="http://www.w3.org/2000/svg" xmlns:xlink="http://www.w3.org/1999/xlink">
<g id="graph0" class="graph" transform="scale(1 1) rotate(0) translate(4 242.8)">
<title>dependencies</title>
<polygon fill="white" stroke="transparent" points="-4,4 -4,-242.8 557,-242.8 557,4 -4,4"/>
<text text-anchor="middle" x="276.5" y="-8.2" font-family="sans-serif" font-size="14.00">dependencies</text>
<g id="clust1" class="cluster">
<title>cluster_CheckoutProgressModule</title>
<polygon fill="none" stroke="black" stroke-dasharray="1,5" points="8,-32.8 8,-230.8 545,-230.8 545,-32.8 8,-32.8"/>
</g>
<g id="clust6" class="cluster">
<title>cluster_CheckoutProgressModule_exports</title>
<polygon fill="none" stroke="black" points="120,-170.8 120,-222.8 322,-222.8 322,-170.8 120,-170.8"/>
</g>
<g id="clust2" class="cluster">
<title>cluster_CheckoutProgressModule_declarations</title>
<polygon fill="none" stroke="black" points="222,-40.8 222,-92.8 537,-92.8 537,-40.8 222,-40.8"/>
</g>
<g id="clust5" class="cluster">
<title>cluster_CheckoutProgressModule_imports</title>
<polygon fill="none" stroke="black" points="16,-40.8 16,-92.8 214,-92.8 214,-40.8 16,-40.8"/>
</g>
<!-- CheckoutProgressComponent -->
<g id="node1" class="node">
<title>CheckoutProgressComponent</title>
<polygon fill="#ffffb3" stroke="black" points="528.7,-84.8 345.3,-84.8 345.3,-48.8 528.7,-48.8 528.7,-84.8"/>
<text text-anchor="middle" x="437" y="-62.6" font-family="Times,serif" font-size="14.00">CheckoutProgressComponent</text>
</g>
<!-- CheckoutProgressModule -->
<g id="node3" class="node">
<title>CheckoutProgressModule</title>
<polygon fill="#8dd3c7" stroke="black" points="301.91,-149.8 298.91,-153.8 277.91,-153.8 274.91,-149.8 140.09,-149.8 140.09,-113.8 301.91,-113.8 301.91,-149.8"/>
<text text-anchor="middle" x="221" y="-127.6" font-family="Times,serif" font-size="14.00">CheckoutProgressModule</text>
</g>
<!-- CheckoutProgressComponent&#45;&gt;CheckoutProgressModule -->
<g id="edge1" class="edge">
<title>CheckoutProgressComponent&#45;&gt;CheckoutProgressModule</title>
<path fill="none" stroke="black" d="M437,-84.91C437,-104.14 437,-131.8 437,-131.8 437,-131.8 311.74,-131.8 311.74,-131.8"/>
<polygon fill="black" stroke="black" points="311.74,-128.3 301.74,-131.8 311.74,-135.3 311.74,-128.3"/>
</g>
<!-- MultiLinePipe -->
<g id="node2" class="node">
<title>MultiLinePipe</title>
<polygon fill="#ffffb3" stroke="black" points="327.66,-84.8 230.34,-84.8 230.34,-48.8 327.66,-48.8 327.66,-84.8"/>
<text text-anchor="middle" x="279" y="-62.6" font-family="Times,serif" font-size="14.00">MultiLinePipe</text>
</g>
<!-- MultiLinePipe&#45;&gt;CheckoutProgressModule -->
<g id="edge2" class="edge">
<title>MultiLinePipe&#45;&gt;CheckoutProgressModule</title>
<path fill="none" stroke="black" d="M265.94,-84.91C265.94,-84.91 265.94,-103.79 265.94,-103.79"/>
<polygon fill="black" stroke="black" points="262.44,-103.79 265.94,-113.79 269.44,-103.79 262.44,-103.79"/>
</g>
<!-- CheckoutProgressComponent  -->
<g id="node6" class="node">
<title>CheckoutProgressComponent </title>
<polygon fill="#fb8072" stroke="black" points="314.2,-214.8 127.8,-214.8 127.8,-178.8 314.2,-178.8 314.2,-214.8"/>
<text text-anchor="middle" x="221" y="-192.6" font-family="Times,serif" font-size="14.00">CheckoutProgressComponent </text>
</g>
<!-- CheckoutProgressModule&#45;&gt;CheckoutProgressComponent  -->
<g id="edge5" class="edge">
<title>CheckoutProgressModule&#45;&gt;CheckoutProgressComponent </title>
<path fill="none" stroke="black" stroke-dasharray="5,2" d="M221,-149.91C221,-149.91 221,-168.79 221,-168.79"/>
<polygon fill="black" stroke="black" points="217.5,-168.79 221,-178.79 224.5,-168.79 217.5,-168.79"/>
</g>
<!-- I18nModule -->
<g id="node4" class="node">
<title>I18nModule</title>
<polygon fill="#8dd3c7" stroke="black" points="205.71,-84.8 202.71,-88.8 181.71,-88.8 178.71,-84.8 120.29,-84.8 120.29,-48.8 205.71,-48.8 205.71,-84.8"/>
<text text-anchor="middle" x="163" y="-62.6" font-family="Times,serif" font-size="14.00">I18nModule</text>
</g>
<!-- I18nModule&#45;&gt;CheckoutProgressModule -->
<g id="edge3" class="edge">
<title>I18nModule&#45;&gt;CheckoutProgressModule</title>
<path fill="none" stroke="black" d="M172.95,-84.91C172.95,-84.91 172.95,-103.79 172.95,-103.79"/>
<polygon fill="black" stroke="black" points="169.45,-103.79 172.95,-113.79 176.45,-103.79 169.45,-103.79"/>
</g>
<!-- UrlModule -->
<g id="node5" class="node">
<title>UrlModule</title>
<polygon fill="#8dd3c7" stroke="black" points="102.21,-84.8 99.21,-88.8 78.21,-88.8 75.21,-84.8 23.79,-84.8 23.79,-48.8 102.21,-48.8 102.21,-84.8"/>
<text text-anchor="middle" x="63" y="-62.6" font-family="Times,serif" font-size="14.00">UrlModule</text>
</g>
<!-- UrlModule&#45;&gt;CheckoutProgressModule -->
<g id="edge4" class="edge">
<title>UrlModule&#45;&gt;CheckoutProgressModule</title>
<path fill="none" stroke="black" d="M63,-84.91C63,-104.14 63,-131.8 63,-131.8 63,-131.8 130.15,-131.8 130.15,-131.8"/>
<polygon fill="black" stroke="black" points="130.15,-135.3 140.15,-131.8 130.15,-128.3 130.15,-135.3"/>
</g>
</g>
</svg>
