<?xml version="1.0" encoding="UTF-8" standalone="no"?>
<!DOCTYPE svg PUBLIC "-//W3C//DTD SVG 1.1//EN"
 "http://www.w3.org/Graphics/SVG/1.1/DTD/svg11.dtd">
<!-- Generated by graphviz version 2.40.1 (20161225.0304)
 -->
<!-- Title: dependencies Pages: 1 -->
<svg width="504pt" height="284pt"
 viewBox="0.00 0.00 504.00 284.00" xmlns="http://www.w3.org/2000/svg" xmlns:xlink="http://www.w3.org/1999/xlink">
<g id="graph0" class="graph" transform="scale(1 1) rotate(0) translate(4 280)">
<title>dependencies</title>
<polygon fill="#ffffff" stroke="transparent" points="-4,4 -4,-280 500,-280 500,4 -4,4"/>
<text text-anchor="start" x="227.0091" y="-42.4" font-family="sans-serif" font-weight="bold" font-size="14.00" fill="#000000">Legend</text>
<polygon fill="#ffffb3" stroke="transparent" points="14,-10 14,-30 34,-30 34,-10 14,-10"/>
<text text-anchor="start" x="37.629" y="-15.4" font-family="sans-serif" font-size="14.00" fill="#000000"> &#160;Declarations</text>
<polygon fill="#8dd3c7" stroke="transparent" points="127,-10 127,-30 147,-30 147,-10 127,-10"/>
<text text-anchor="start" x="150.7251" y="-15.4" font-family="sans-serif" font-size="14.00" fill="#000000"> &#160;Module</text>
<polygon fill="#80b1d3" stroke="transparent" points="213,-10 213,-30 233,-30 233,-10 213,-10"/>
<text text-anchor="start" x="236.7812" y="-15.4" font-family="sans-serif" font-size="14.00" fill="#000000"> &#160;Bootstrap</text>
<polygon fill="#fdb462" stroke="transparent" points="310,-10 310,-30 330,-30 330,-10 310,-10"/>
<text text-anchor="start" x="333.6732" y="-15.4" font-family="sans-serif" font-size="14.00" fill="#000000"> &#160;Providers</text>
<polygon fill="#fb8072" stroke="transparent" points="406,-10 406,-30 426,-30 426,-10 406,-10"/>
<text text-anchor="start" x="429.7258" y="-15.4" font-family="sans-serif" font-size="14.00" fill="#000000"> &#160;Exports</text>
<g id="clust1" class="cluster">
<title>cluster_CheckoutProgressModule</title>
<polygon fill="none" stroke="#000000" stroke-dasharray="1,5" points="37,-70 37,-268 459,-268 459,-70 37,-70"/>
</g>
<g id="clust2" class="cluster">
<title>cluster_CheckoutProgressModule_declarations</title>
<polygon fill="none" stroke="#000000" points="251,-78 251,-130 451,-130 451,-78 251,-78"/>
</g>
<g id="clust4" class="cluster">
<title>cluster_CheckoutProgressModule_imports</title>
<polygon fill="none" stroke="#000000" points="45,-78 45,-130 243,-130 243,-78 45,-78"/>
</g>
<g id="clust5" class="cluster">
<title>cluster_CheckoutProgressModule_exports</title>
<polygon fill="none" stroke="#000000" points="91,-208 91,-260 293,-260 293,-208 91,-208"/>
</g>
<!-- CheckoutProgressComponent -->
<g id="node1" class="node">
<title>CheckoutProgressComponent</title>
<polygon fill="#ffffb3" stroke="#000000" points="442.6965,-122 259.3035,-122 259.3035,-86 442.6965,-86 442.6965,-122"/>
<text text-anchor="middle" x="351" y="-99.8" font-family="Times,serif" font-size="14.00" fill="#000000">CheckoutProgressComponent</text>
</g>
<!-- CheckoutProgressModule -->
<g id="node2" class="node">
<title>CheckoutProgressModule</title>
<polygon fill="#8dd3c7" stroke="#000000" points="272.9143,-187 269.9143,-191 248.9143,-191 245.9143,-187 111.0857,-187 111.0857,-151 272.9143,-151 272.9143,-187"/>
<text text-anchor="middle" x="192" y="-164.8" font-family="Times,serif" font-size="14.00" fill="#000000">CheckoutProgressModule</text>
</g>
<!-- CheckoutProgressComponent&#45;&gt;CheckoutProgressModule -->
<g id="edge1" class="edge">
<title>CheckoutProgressComponent&#45;&gt;CheckoutProgressModule</title>
<path fill="none" stroke="#000000" d="M266.0544,-122.1061C266.0544,-122.1061 266.0544,-140.991 266.0544,-140.991"/>
<polygon fill="#000000" stroke="#000000" points="262.5544,-140.9909 266.0544,-150.991 269.5544,-140.991 262.5544,-140.9909"/>
</g>
<!-- CheckoutProgressComponent  -->
<g id="node5" class="node">
<title>CheckoutProgressComponent </title>
<polygon fill="#fb8072" stroke="#000000" points="285.1966,-252 98.8034,-252 98.8034,-216 285.1966,-216 285.1966,-252"/>
<text text-anchor="middle" x="192" y="-229.8" font-family="Times,serif" font-size="14.00" fill="#000000">CheckoutProgressComponent </text>
</g>
<!-- CheckoutProgressModule&#45;&gt;CheckoutProgressComponent  -->
<g id="edge4" class="edge">
<title>CheckoutProgressModule&#45;&gt;CheckoutProgressComponent </title>
<path fill="none" stroke="#000000" stroke-dasharray="5,2" d="M192,-187.1061C192,-187.1061 192,-205.991 192,-205.991"/>
<polygon fill="#000000" stroke="#000000" points="188.5001,-205.9909 192,-215.991 195.5001,-205.991 188.5001,-205.9909"/>
</g>
<!-- I18nModule -->
<g id="node3" class="node">
<title>I18nModule</title>
<polygon fill="#8dd3c7" stroke="#000000" points="234.7107,-122 231.7107,-126 210.7107,-126 207.7107,-122 149.2893,-122 149.2893,-86 234.7107,-86 234.7107,-122"/>
<text text-anchor="middle" x="192" y="-99.8" font-family="Times,serif" font-size="14.00" fill="#000000">I18nModule</text>
</g>
<!-- I18nModule&#45;&gt;CheckoutProgressModule -->
<g id="edge2" class="edge">
<title>I18nModule&#45;&gt;CheckoutProgressModule</title>
<path fill="none" stroke="#000000" d="M192,-122.1061C192,-122.1061 192,-140.991 192,-140.991"/>
<polygon fill="#000000" stroke="#000000" points="188.5001,-140.9909 192,-150.991 195.5001,-140.991 188.5001,-140.9909"/>
</g>
<!-- UrlModule -->
<g id="node4" class="node">
<title>UrlModule</title>
<polygon fill="#8dd3c7" stroke="#000000" points="131.2079,-122 128.2079,-126 107.2079,-126 104.2079,-122 52.7921,-122 52.7921,-86 131.2079,-86 131.2079,-122"/>
<text text-anchor="middle" x="92" y="-99.8" font-family="Times,serif" font-size="14.00" fill="#000000">UrlModule</text>
</g>
<!-- UrlModule&#45;&gt;CheckoutProgressModule -->
<g id="edge3" class="edge">
<title>UrlModule&#45;&gt;CheckoutProgressModule</title>
<path fill="none" stroke="#000000" d="M121.1985,-122.1061C121.1985,-122.1061 121.1985,-140.991 121.1985,-140.991"/>
<polygon fill="#000000" stroke="#000000" points="117.6985,-140.9909 121.1985,-150.991 124.6985,-140.991 117.6985,-140.9909"/>
</g>
</g>
</svg>
