<?xml version="1.0" encoding="UTF-8" standalone="no"?>
<!DOCTYPE svg PUBLIC "-//W3C//DTD SVG 1.1//EN"
 "http://www.w3.org/Graphics/SVG/1.1/DTD/svg11.dtd">
<!-- Generated by graphviz version 2.47.3 (20210619.1520)
 -->
<!-- Title: dependencies Pages: 1 -->
<svg width="938pt" height="247pt"
 viewBox="0.00 0.00 938.00 246.80" xmlns="http://www.w3.org/2000/svg" xmlns:xlink="http://www.w3.org/1999/xlink">
<g id="graph0" class="graph" transform="scale(1 1) rotate(0) translate(4 242.8)">
<title>dependencies</title>
<polygon fill="white" stroke="transparent" points="-4,4 -4,-242.8 934,-242.8 934,4 -4,4"/>
<text text-anchor="middle" x="465" y="-8.2" font-family="sans-serif" font-size="14.00">dependencies</text>
<g id="clust1" class="cluster">
<title>cluster_AmendOrderItemsModule</title>
<polygon fill="none" stroke="black" stroke-dasharray="1,5" points="8,-32.8 8,-230.8 922,-230.8 922,-32.8 8,-32.8"/>
</g>
<g id="clust5" class="cluster">
<title>cluster_AmendOrderItemsModule_exports</title>
<polygon fill="none" stroke="black" points="278,-170.8 278,-222.8 502,-222.8 502,-170.8 278,-170.8"/>
</g>
<g id="clust2" class="cluster">
<title>cluster_AmendOrderItemsModule_declarations</title>
<polygon fill="none" stroke="black" points="694,-40.8 694,-92.8 914,-92.8 914,-40.8 694,-40.8"/>
</g>
<g id="clust4" class="cluster">
<title>cluster_AmendOrderItemsModule_imports</title>
<polygon fill="none" stroke="black" points="16,-40.8 16,-92.8 686,-92.8 686,-40.8 16,-40.8"/>
</g>
<!-- CancelOrReturnItemsComponent -->
<g id="node1" class="node">
<title>CancelOrReturnItemsComponent</title>
<polygon fill="#ffffb3" stroke="black" points="906.17,-84.8 701.83,-84.8 701.83,-48.8 906.17,-48.8 906.17,-84.8"/>
<text text-anchor="middle" x="804" y="-62.6" font-family="Times,serif" font-size="14.00">CancelOrReturnItemsComponent</text>
</g>
<!-- AmendOrderItemsModule -->
<g id="node2" class="node">
<title>AmendOrderItemsModule</title>
<polygon fill="#8dd3c7" stroke="black" points="472.01,-149.8 469.01,-153.8 448.01,-153.8 445.01,-149.8 307.99,-149.8 307.99,-113.8 472.01,-113.8 472.01,-149.8"/>
<text text-anchor="middle" x="390" y="-127.6" font-family="Times,serif" font-size="14.00">AmendOrderItemsModule</text>
</g>
<!-- CancelOrReturnItemsComponent&#45;&gt;AmendOrderItemsModule -->
<g id="edge1" class="edge">
<title>CancelOrReturnItemsComponent&#45;&gt;AmendOrderItemsModule</title>
<path fill="none" stroke="black" d="M804,-85.08C804,-106.12 804,-137.8 804,-137.8 804,-137.8 482.29,-137.8 482.29,-137.8"/>
<polygon fill="black" stroke="black" points="482.29,-134.3 472.29,-137.8 482.29,-141.3 482.29,-134.3"/>
</g>
<!-- CancelOrReturnItemsComponent  -->
<g id="node8" class="node">
<title>CancelOrReturnItemsComponent </title>
<polygon fill="#fb8072" stroke="black" points="493.67,-214.8 286.33,-214.8 286.33,-178.8 493.67,-178.8 493.67,-214.8"/>
<text text-anchor="middle" x="390" y="-192.6" font-family="Times,serif" font-size="14.00">CancelOrReturnItemsComponent </text>
</g>
<!-- AmendOrderItemsModule&#45;&gt;CancelOrReturnItemsComponent  -->
<g id="edge7" class="edge">
<title>AmendOrderItemsModule&#45;&gt;CancelOrReturnItemsComponent </title>
<path fill="none" stroke="black" stroke-dasharray="5,2" d="M390,-149.91C390,-149.91 390,-168.79 390,-168.79"/>
<polygon fill="black" stroke="black" points="386.5,-168.79 390,-178.79 393.5,-168.79 386.5,-168.79"/>
</g>
<!-- FeaturesConfigModule -->
<g id="node3" class="node">
<title>FeaturesConfigModule</title>
<polygon fill="#8dd3c7" stroke="black" points="677.86,-84.8 674.86,-88.8 653.86,-88.8 650.86,-84.8 532.14,-84.8 532.14,-48.8 677.86,-48.8 677.86,-84.8"/>
<text text-anchor="middle" x="605" y="-62.6" font-family="Times,serif" font-size="14.00">FeaturesConfigModule</text>
</g>
<!-- FeaturesConfigModule&#45;&gt;AmendOrderItemsModule -->
<g id="edge2" class="edge">
<title>FeaturesConfigModule&#45;&gt;AmendOrderItemsModule</title>
<path fill="none" stroke="black" d="M605,-84.82C605,-102.17 605,-125.8 605,-125.8 605,-125.8 482.2,-125.8 482.2,-125.8"/>
<polygon fill="black" stroke="black" points="482.2,-122.3 472.2,-125.8 482.2,-129.3 482.2,-122.3"/>
</g>
<!-- FormErrorsModule -->
<g id="node4" class="node">
<title>FormErrorsModule</title>
<polygon fill="#8dd3c7" stroke="black" points="514.36,-84.8 511.36,-88.8 490.36,-88.8 487.36,-84.8 389.64,-84.8 389.64,-48.8 514.36,-48.8 514.36,-84.8"/>
<text text-anchor="middle" x="452" y="-62.6" font-family="Times,serif" font-size="14.00">FormErrorsModule</text>
</g>
<!-- FormErrorsModule&#45;&gt;AmendOrderItemsModule -->
<g id="edge3" class="edge">
<title>FormErrorsModule&#45;&gt;AmendOrderItemsModule</title>
<path fill="none" stroke="black" d="M430.91,-84.91C430.91,-84.91 430.91,-103.79 430.91,-103.79"/>
<polygon fill="black" stroke="black" points="427.41,-103.79 430.91,-113.79 434.41,-103.79 427.41,-103.79"/>
</g>
<!-- I18nModule -->
<g id="node5" class="node">
<title>I18nModule</title>
<polygon fill="#8dd3c7" stroke="black" points="371.71,-84.8 368.71,-88.8 347.71,-88.8 344.71,-84.8 286.29,-84.8 286.29,-48.8 371.71,-48.8 371.71,-84.8"/>
<text text-anchor="middle" x="329" y="-62.6" font-family="Times,serif" font-size="14.00">I18nModule</text>
</g>
<!-- I18nModule&#45;&gt;AmendOrderItemsModule -->
<g id="edge4" class="edge">
<title>I18nModule&#45;&gt;AmendOrderItemsModule</title>
<path fill="none" stroke="black" d="M339.68,-84.91C339.68,-84.91 339.68,-103.79 339.68,-103.79"/>
<polygon fill="black" stroke="black" points="336.18,-103.79 339.68,-113.79 343.18,-103.79 336.18,-103.79"/>
</g>
<!-- ItemCounterModule -->
<g id="node6" class="node">
<title>ItemCounterModule</title>
<polygon fill="#8dd3c7" stroke="black" points="268.31,-84.8 265.31,-88.8 244.31,-88.8 241.31,-84.8 137.69,-84.8 137.69,-48.8 268.31,-48.8 268.31,-84.8"/>
<text text-anchor="middle" x="203" y="-62.6" font-family="Times,serif" font-size="14.00">ItemCounterModule</text>
</g>
<!-- ItemCounterModule&#45;&gt;AmendOrderItemsModule -->
<g id="edge5" class="edge">
<title>ItemCounterModule&#45;&gt;AmendOrderItemsModule</title>
<path fill="none" stroke="black" d="M203,-84.82C203,-102.17 203,-125.8 203,-125.8 203,-125.8 297.98,-125.8 297.98,-125.8"/>
<polygon fill="black" stroke="black" points="297.98,-129.3 307.98,-125.8 297.98,-122.3 297.98,-129.3"/>
</g>
<!-- MediaModule -->
<g id="node7" class="node">
<title>MediaModule</title>
<polygon fill="#8dd3c7" stroke="black" points="119.81,-84.8 116.81,-88.8 95.81,-88.8 92.81,-84.8 24.19,-84.8 24.19,-48.8 119.81,-48.8 119.81,-84.8"/>
<text text-anchor="middle" x="72" y="-62.6" font-family="Times,serif" font-size="14.00">MediaModule</text>
</g>
<!-- MediaModule&#45;&gt;AmendOrderItemsModule -->
<g id="edge6" class="edge">
<title>MediaModule&#45;&gt;AmendOrderItemsModule</title>
<path fill="none" stroke="black" d="M72,-85.08C72,-106.12 72,-137.8 72,-137.8 72,-137.8 297.69,-137.8 297.69,-137.8"/>
<polygon fill="black" stroke="black" points="297.69,-141.3 307.69,-137.8 297.69,-134.3 297.69,-141.3"/>
</g>
</g>
</svg>
