<?xml version="1.0" encoding="UTF-8" standalone="no"?>
<!DOCTYPE svg PUBLIC "-//W3C//DTD SVG 1.1//EN"
 "http://www.w3.org/Graphics/SVG/1.1/DTD/svg11.dtd">
<!-- Generated by graphviz version 2.40.1 (20161225.0304)
 -->
<!-- Title: dependencies Pages: 1 -->
<svg width="796pt" height="284pt"
 viewBox="0.00 0.00 796.00 284.00" xmlns="http://www.w3.org/2000/svg" xmlns:xlink="http://www.w3.org/1999/xlink">
<g id="graph0" class="graph" transform="scale(1 1) rotate(0) translate(4 280)">
<title>dependencies</title>
<polygon fill="#ffffff" stroke="transparent" points="-4,4 -4,-280 792,-280 792,4 -4,4"/>
<text text-anchor="start" x="373.0091" y="-42.4" font-family="sans-serif" font-weight="bold" font-size="14.00" fill="#000000">Legend</text>
<polygon fill="#ffffb3" stroke="transparent" points="160,-10 160,-30 180,-30 180,-10 160,-10"/>
<text text-anchor="start" x="183.629" y="-15.4" font-family="sans-serif" font-size="14.00" fill="#000000"> &#160;Declarations</text>
<polygon fill="#8dd3c7" stroke="transparent" points="273,-10 273,-30 293,-30 293,-10 273,-10"/>
<text text-anchor="start" x="296.7251" y="-15.4" font-family="sans-serif" font-size="14.00" fill="#000000"> &#160;Module</text>
<polygon fill="#80b1d3" stroke="transparent" points="359,-10 359,-30 379,-30 379,-10 359,-10"/>
<text text-anchor="start" x="382.7812" y="-15.4" font-family="sans-serif" font-size="14.00" fill="#000000"> &#160;Bootstrap</text>
<polygon fill="#fdb462" stroke="transparent" points="456,-10 456,-30 476,-30 476,-10 456,-10"/>
<text text-anchor="start" x="479.6732" y="-15.4" font-family="sans-serif" font-size="14.00" fill="#000000"> &#160;Providers</text>
<polygon fill="#fb8072" stroke="transparent" points="552,-10 552,-30 572,-30 572,-10 552,-10"/>
<text text-anchor="start" x="575.7258" y="-15.4" font-family="sans-serif" font-size="14.00" fill="#000000"> &#160;Exports</text>
<g id="clust1" class="cluster">
<title>cluster_AmendOrderItemsModule</title>
<polygon fill="none" stroke="#000000" stroke-dasharray="1,5" points="8,-70 8,-268 780,-268 780,-70 8,-70"/>
</g>
<g id="clust2" class="cluster">
<title>cluster_AmendOrderItemsModule_declarations</title>
<polygon fill="none" stroke="#000000" points="552,-78 552,-130 772,-130 772,-78 552,-78"/>
</g>
<g id="clust4" class="cluster">
<title>cluster_AmendOrderItemsModule_imports</title>
<polygon fill="none" stroke="#000000" points="16,-78 16,-130 544,-130 544,-78 16,-78"/>
</g>
<g id="clust5" class="cluster">
<title>cluster_AmendOrderItemsModule_exports</title>
<polygon fill="none" stroke="#000000" points="217,-208 217,-260 441,-260 441,-208 217,-208"/>
</g>
<!-- CancelOrReturnItemsComponent -->
<g id="node1" class="node">
<title>CancelOrReturnItemsComponent</title>
<polygon fill="#ffffb3" stroke="#000000" points="764.1741,-122 559.8259,-122 559.8259,-86 764.1741,-86 764.1741,-122"/>
<text text-anchor="middle" x="662" y="-99.8" font-family="Times,serif" font-size="14.00" fill="#000000">CancelOrReturnItemsComponent</text>
</g>
<!-- AmendOrderItemsModule -->
<g id="node2" class="node">
<title>AmendOrderItemsModule</title>
<polygon fill="#8dd3c7" stroke="#000000" points="411.0057,-187 408.0057,-191 387.0057,-191 384.0057,-187 246.9943,-187 246.9943,-151 411.0057,-151 411.0057,-187"/>
<text text-anchor="middle" x="329" y="-164.8" font-family="Times,serif" font-size="14.00" fill="#000000">AmendOrderItemsModule</text>
</g>
<!-- CancelOrReturnItemsComponent&#45;&gt;AmendOrderItemsModule -->
<g id="edge1" class="edge">
<title>CancelOrReturnItemsComponent&#45;&gt;AmendOrderItemsModule</title>
<path fill="none" stroke="#000000" d="M662,-122.1061C662,-141.3391 662,-169 662,-169 662,-169 421.3146,-169 421.3146,-169"/>
<polygon fill="#000000" stroke="#000000" points="421.3147,-165.5001 411.3146,-169 421.3146,-172.5001 421.3147,-165.5001"/>
</g>
<!-- CancelOrReturnItemsComponent  -->
<g id="node7" class="node">
<title>CancelOrReturnItemsComponent </title>
<polygon fill="#fb8072" stroke="#000000" points="432.6743,-252 225.3257,-252 225.3257,-216 432.6743,-216 432.6743,-252"/>
<text text-anchor="middle" x="329" y="-229.8" font-family="Times,serif" font-size="14.00" fill="#000000">CancelOrReturnItemsComponent </text>
</g>
<!-- AmendOrderItemsModule&#45;&gt;CancelOrReturnItemsComponent  -->
<g id="edge6" class="edge">
<title>AmendOrderItemsModule&#45;&gt;CancelOrReturnItemsComponent </title>
<path fill="none" stroke="#000000" stroke-dasharray="5,2" d="M329,-187.1061C329,-187.1061 329,-205.991 329,-205.991"/>
<polygon fill="#000000" stroke="#000000" points="325.5001,-205.9909 329,-215.991 332.5001,-205.991 325.5001,-205.9909"/>
</g>
<!-- FeaturesConfigModule -->
<g id="node3" class="node">
<title>FeaturesConfigModule</title>
<polygon fill="#8dd3c7" stroke="#000000" points="535.8599,-122 532.8599,-126 511.8599,-126 508.8599,-122 390.1401,-122 390.1401,-86 535.8599,-86 535.8599,-122"/>
<text text-anchor="middle" x="463" y="-99.8" font-family="Times,serif" font-size="14.00" fill="#000000">FeaturesConfigModule</text>
</g>
<!-- FeaturesConfigModule&#45;&gt;AmendOrderItemsModule -->
<g id="edge2" class="edge">
<title>FeaturesConfigModule&#45;&gt;AmendOrderItemsModule</title>
<path fill="none" stroke="#000000" d="M400.6613,-122.1061C400.6613,-122.1061 400.6613,-140.991 400.6613,-140.991"/>
<polygon fill="#000000" stroke="#000000" points="397.1614,-140.9909 400.6613,-150.991 404.1614,-140.991 397.1614,-140.9909"/>
</g>
<!-- I18nModule -->
<g id="node4" class="node">
<title>I18nModule</title>
<polygon fill="#8dd3c7" stroke="#000000" points="371.7107,-122 368.7107,-126 347.7107,-126 344.7107,-122 286.2893,-122 286.2893,-86 371.7107,-86 371.7107,-122"/>
<text text-anchor="middle" x="329" y="-99.8" font-family="Times,serif" font-size="14.00" fill="#000000">I18nModule</text>
</g>
<!-- I18nModule&#45;&gt;AmendOrderItemsModule -->
<g id="edge3" class="edge">
<title>I18nModule&#45;&gt;AmendOrderItemsModule</title>
<path fill="none" stroke="#000000" d="M329,-122.1061C329,-122.1061 329,-140.991 329,-140.991"/>
<polygon fill="#000000" stroke="#000000" points="325.5001,-140.9909 329,-150.991 332.5001,-140.991 325.5001,-140.9909"/>
</g>
<!-- ItemCounterModule -->
<g id="node5" class="node">
<title>ItemCounterModule</title>
<polygon fill="#8dd3c7" stroke="#000000" points="268.309,-122 265.309,-126 244.309,-126 241.309,-122 137.691,-122 137.691,-86 268.309,-86 268.309,-122"/>
<text text-anchor="middle" x="203" y="-99.8" font-family="Times,serif" font-size="14.00" fill="#000000">ItemCounterModule</text>
</g>
<!-- ItemCounterModule&#45;&gt;AmendOrderItemsModule -->
<g id="edge4" class="edge">
<title>ItemCounterModule&#45;&gt;AmendOrderItemsModule</title>
<path fill="none" stroke="#000000" d="M257.4509,-122.1061C257.4509,-122.1061 257.4509,-140.991 257.4509,-140.991"/>
<polygon fill="#000000" stroke="#000000" points="253.951,-140.9909 257.4509,-150.991 260.951,-140.991 253.951,-140.9909"/>
</g>
<!-- MediaModule -->
<g id="node6" class="node">
<title>MediaModule</title>
<polygon fill="#8dd3c7" stroke="#000000" points="119.8147,-122 116.8147,-126 95.8147,-126 92.8147,-122 24.1853,-122 24.1853,-86 119.8147,-86 119.8147,-122"/>
<text text-anchor="middle" x="72" y="-99.8" font-family="Times,serif" font-size="14.00" fill="#000000">MediaModule</text>
</g>
<!-- MediaModule&#45;&gt;AmendOrderItemsModule -->
<g id="edge5" class="edge">
<title>MediaModule&#45;&gt;AmendOrderItemsModule</title>
<path fill="none" stroke="#000000" d="M72,-122.1061C72,-141.3391 72,-169 72,-169 72,-169 236.977,-169 236.977,-169"/>
<polygon fill="#000000" stroke="#000000" points="236.977,-172.5001 246.977,-169 236.977,-165.5001 236.977,-172.5001"/>
</g>
</g>
</svg>
