<?xml version="1.0" encoding="UTF-8" standalone="no"?>
<!DOCTYPE svg PUBLIC "-//W3C//DTD SVG 1.1//EN"
 "http://www.w3.org/Graphics/SVG/1.1/DTD/svg11.dtd">
<!-- Generated by graphviz version 2.47.3 (20210619.1520)
 -->
<!-- Title: dependencies Pages: 1 -->
<svg width="849pt" height="247pt"
 viewBox="0.00 0.00 849.00 246.80" xmlns="http://www.w3.org/2000/svg" xmlns:xlink="http://www.w3.org/1999/xlink">
<g id="graph0" class="graph" transform="scale(1 1) rotate(0) translate(4 242.8)">
<title>dependencies</title>
<polygon fill="white" stroke="transparent" points="-4,4 -4,-242.8 845,-242.8 845,4 -4,4"/>
<text text-anchor="middle" x="420.5" y="-8.2" font-family="sans-serif" font-size="14.00">dependencies</text>
<g id="clust1" class="cluster">
<title>cluster_ConfiguratorAttributeDropDownModule</title>
<polygon fill="none" stroke="black" stroke-dasharray="1,5" points="8,-32.8 8,-230.8 833,-230.8 833,-32.8 8,-32.8"/>
</g>
<g id="clust4" class="cluster">
<title>cluster_ConfiguratorAttributeDropDownModule_imports</title>
<polygon fill="none" stroke="black" points="308,-40.8 308,-92.8 825,-92.8 825,-40.8 308,-40.8"/>
</g>
<g id="clust5" class="cluster">
<title>cluster_ConfiguratorAttributeDropDownModule_exports</title>
<polygon fill="none" stroke="black" points="314,-170.8 314,-222.8 600,-222.8 600,-170.8 314,-170.8"/>
</g>
<g id="clust2" class="cluster">
<title>cluster_ConfiguratorAttributeDropDownModule_declarations</title>
<polygon fill="none" stroke="black" points="16,-40.8 16,-92.8 300,-92.8 300,-40.8 16,-40.8"/>
</g>
<!-- ConfiguratorAttributeDropDownComponent -->
<g id="node1" class="node">
<title>ConfiguratorAttributeDropDownComponent</title>
<polygon fill="#ffffb3" stroke="black" points="291.67,-84.8 24.33,-84.8 24.33,-48.8 291.67,-48.8 291.67,-84.8"/>
<text text-anchor="middle" x="158" y="-62.6" font-family="Times,serif" font-size="14.00">ConfiguratorAttributeDropDownComponent</text>
</g>
<!-- ConfiguratorAttributeDropDownModule -->
<g id="node2" class="node">
<title>ConfiguratorAttributeDropDownModule</title>
<polygon fill="#8dd3c7" stroke="black" points="579.89,-149.8 576.89,-153.8 555.89,-153.8 552.89,-149.8 334.11,-149.8 334.11,-113.8 579.89,-113.8 579.89,-149.8"/>
<text text-anchor="middle" x="457" y="-127.6" font-family="Times,serif" font-size="14.00">ConfiguratorAttributeDropDownModule</text>
</g>
<!-- ConfiguratorAttributeDropDownComponent&#45;&gt;ConfiguratorAttributeDropDownModule -->
<g id="edge1" class="edge">
<title>ConfiguratorAttributeDropDownComponent&#45;&gt;ConfiguratorAttributeDropDownModule</title>
<path fill="none" stroke="black" d="M158,-84.91C158,-104.14 158,-131.8 158,-131.8 158,-131.8 324.09,-131.8 324.09,-131.8"/>
<polygon fill="black" stroke="black" points="324.09,-135.3 334.09,-131.8 324.09,-128.3 324.09,-135.3"/>
</g>
<!-- ConfiguratorAttributeDropDownComponent  -->
<g id="node6" class="node">
<title>ConfiguratorAttributeDropDownComponent </title>
<polygon fill="#fb8072" stroke="black" points="592.17,-214.8 321.83,-214.8 321.83,-178.8 592.17,-178.8 592.17,-214.8"/>
<text text-anchor="middle" x="457" y="-192.6" font-family="Times,serif" font-size="14.00">ConfiguratorAttributeDropDownComponent </text>
</g>
<!-- ConfiguratorAttributeDropDownModule&#45;&gt;ConfiguratorAttributeDropDownComponent  -->
<g id="edge5" class="edge">
<title>ConfiguratorAttributeDropDownModule&#45;&gt;ConfiguratorAttributeDropDownComponent </title>
<path fill="none" stroke="black" stroke-dasharray="5,2" d="M457,-149.91C457,-149.91 457,-168.79 457,-168.79"/>
<polygon fill="black" stroke="black" points="453.5,-168.79 457,-178.79 460.5,-168.79 453.5,-168.79"/>
</g>
<!-- ConfiguratorAttributeQuantityModule -->
<g id="node3" class="node">
<title>ConfiguratorAttributeQuantityModule</title>
<polygon fill="#8dd3c7" stroke="black" points="816.9,-84.8 813.9,-88.8 792.9,-88.8 789.9,-84.8 585.1,-84.8 585.1,-48.8 816.9,-48.8 816.9,-84.8"/>
<text text-anchor="middle" x="701" y="-62.6" font-family="Times,serif" font-size="14.00">ConfiguratorAttributeQuantityModule</text>
</g>
<!-- ConfiguratorAttributeQuantityModule&#45;&gt;ConfiguratorAttributeDropDownModule -->
<g id="edge2" class="edge">
<title>ConfiguratorAttributeQuantityModule&#45;&gt;ConfiguratorAttributeDropDownModule</title>
<path fill="none" stroke="black" d="M588.82,-84.91C588.82,-104.14 588.82,-131.8 588.82,-131.8 588.82,-131.8 587.91,-131.8 587.91,-131.8"/>
<polygon fill="black" stroke="black" points="589.76,-128.3 579.76,-131.8 589.76,-135.3 589.76,-128.3"/>
</g>
<!-- I18nModule -->
<g id="node4" class="node">
<title>I18nModule</title>
<polygon fill="#8dd3c7" stroke="black" points="567.71,-84.8 564.71,-88.8 543.71,-88.8 540.71,-84.8 482.29,-84.8 482.29,-48.8 567.71,-48.8 567.71,-84.8"/>
<text text-anchor="middle" x="525" y="-62.6" font-family="Times,serif" font-size="14.00">I18nModule</text>
</g>
<!-- I18nModule&#45;&gt;ConfiguratorAttributeDropDownModule -->
<g id="edge3" class="edge">
<title>I18nModule&#45;&gt;ConfiguratorAttributeDropDownModule</title>
<path fill="none" stroke="black" d="M525,-84.91C525,-84.91 525,-103.79 525,-103.79"/>
<polygon fill="black" stroke="black" points="521.5,-103.79 525,-113.79 528.5,-103.79 521.5,-103.79"/>
</g>
<!-- KeyboardFocusModule -->
<g id="node5" class="node">
<title>KeyboardFocusModule</title>
<polygon fill="#8dd3c7" stroke="black" points="464.19,-84.8 461.19,-88.8 440.19,-88.8 437.19,-84.8 315.81,-84.8 315.81,-48.8 464.19,-48.8 464.19,-84.8"/>
<text text-anchor="middle" x="390" y="-62.6" font-family="Times,serif" font-size="14.00">KeyboardFocusModule</text>
</g>
<!-- KeyboardFocusModule&#45;&gt;ConfiguratorAttributeDropDownModule -->
<g id="edge4" class="edge">
<title>KeyboardFocusModule&#45;&gt;ConfiguratorAttributeDropDownModule</title>
<path fill="none" stroke="black" d="M399.2,-84.91C399.2,-84.91 399.2,-103.79 399.2,-103.79"/>
<polygon fill="black" stroke="black" points="395.7,-103.79 399.2,-113.79 402.7,-103.79 395.7,-103.79"/>
</g>
</g>
</svg>
