<?xml version="1.0" encoding="UTF-8" standalone="no"?>
<!DOCTYPE svg PUBLIC "-//W3C//DTD SVG 1.1//EN"
 "http://www.w3.org/Graphics/SVG/1.1/DTD/svg11.dtd">
<!-- Generated by graphviz version 2.47.0 (20210316.0004)
 -->
<!-- Title: dependencies Pages: 1 -->
<svg width="849pt" height="284pt"
 viewBox="0.00 0.00 849.00 284.00" xmlns="http://www.w3.org/2000/svg" xmlns:xlink="http://www.w3.org/1999/xlink">
<g id="graph0" class="graph" transform="scale(1 1) rotate(0) translate(4 280)">
<title>dependencies</title>
<polygon fill="white" stroke="transparent" points="-4,4 -4,-280 845,-280 845,4 -4,4"/>
<text text-anchor="start" x="399.51" y="-42.4" font-family="sans-serif" font-weight="bold" font-size="14.00">Legend</text>
<polygon fill="#ffffb3" stroke="transparent" points="186.5,-10 186.5,-30 206.5,-30 206.5,-10 186.5,-10"/>
<text text-anchor="start" x="210.13" y="-15.4" font-family="sans-serif" font-size="14.00"> &#160;Declarations</text>
<polygon fill="#8dd3c7" stroke="transparent" points="299.5,-10 299.5,-30 319.5,-30 319.5,-10 299.5,-10"/>
<text text-anchor="start" x="323.23" y="-15.4" font-family="sans-serif" font-size="14.00"> &#160;Module</text>
<polygon fill="#80b1d3" stroke="transparent" points="385.5,-10 385.5,-30 405.5,-30 405.5,-10 385.5,-10"/>
<text text-anchor="start" x="409.28" y="-15.4" font-family="sans-serif" font-size="14.00"> &#160;Bootstrap</text>
<polygon fill="#fdb462" stroke="transparent" points="482.5,-10 482.5,-30 502.5,-30 502.5,-10 482.5,-10"/>
<text text-anchor="start" x="506.17" y="-15.4" font-family="sans-serif" font-size="14.00"> &#160;Providers</text>
<polygon fill="#fb8072" stroke="transparent" points="578.5,-10 578.5,-30 598.5,-30 598.5,-10 578.5,-10"/>
<text text-anchor="start" x="602.23" y="-15.4" font-family="sans-serif" font-size="14.00"> &#160;Exports</text>
<g id="clust1" class="cluster">
<title>cluster_ConfiguratorAttributeDropDownModule</title>
<polygon fill="none" stroke="black" stroke-dasharray="1,5" points="8,-70 8,-268 833,-268 833,-70 8,-70"/>
</g>
<g id="clust2" class="cluster">
<title>cluster_ConfiguratorAttributeDropDownModule_declarations</title>
<polygon fill="none" stroke="black" points="541,-78 541,-130 825,-130 825,-78 541,-78"/>
</g>
<g id="clust4" class="cluster">
<title>cluster_ConfiguratorAttributeDropDownModule_imports</title>
<polygon fill="none" stroke="black" points="16,-78 16,-130 533,-130 533,-78 16,-78"/>
</g>
<g id="clust5" class="cluster">
<title>cluster_ConfiguratorAttributeDropDownModule_exports</title>
<polygon fill="none" stroke="black" points="178,-208 178,-260 464,-260 464,-208 178,-208"/>
</g>
<!-- ConfiguratorAttributeDropDownComponent -->
<g id="node1" class="node">
<title>ConfiguratorAttributeDropDownComponent</title>
<polygon fill="#ffffb3" stroke="black" points="816.67,-122 549.33,-122 549.33,-86 816.67,-86 816.67,-122"/>
<text text-anchor="middle" x="683" y="-99.8" font-family="Times,serif" font-size="14.00">ConfiguratorAttributeDropDownComponent</text>
</g>
<!-- ConfiguratorAttributeDropDownModule -->
<g id="node2" class="node">
<title>ConfiguratorAttributeDropDownModule</title>
<polygon fill="#8dd3c7" stroke="black" points="443.89,-187 440.89,-191 419.89,-191 416.89,-187 198.11,-187 198.11,-151 443.89,-151 443.89,-187"/>
<text text-anchor="middle" x="321" y="-164.8" font-family="Times,serif" font-size="14.00">ConfiguratorAttributeDropDownModule</text>
</g>
<!-- ConfiguratorAttributeDropDownComponent&#45;&gt;ConfiguratorAttributeDropDownModule -->
<g id="edge1" class="edge">
<title>ConfiguratorAttributeDropDownComponent&#45;&gt;ConfiguratorAttributeDropDownModule</title>
<path fill="none" stroke="black" d="M683,-122.11C683,-141.34 683,-169 683,-169 683,-169 453.81,-169 453.81,-169"/>
<polygon fill="black" stroke="black" points="453.81,-165.5 443.81,-169 453.81,-172.5 453.81,-165.5"/>
</g>
<!-- ConfiguratorAttributeDropDownComponent  -->
<g id="node6" class="node">
<title>ConfiguratorAttributeDropDownComponent </title>
<polygon fill="#fb8072" stroke="black" points="456.17,-252 185.83,-252 185.83,-216 456.17,-216 456.17,-252"/>
<text text-anchor="middle" x="321" y="-229.8" font-family="Times,serif" font-size="14.00">ConfiguratorAttributeDropDownComponent </text>
</g>
<!-- ConfiguratorAttributeDropDownModule&#45;&gt;ConfiguratorAttributeDropDownComponent  -->
<g id="edge5" class="edge">
<title>ConfiguratorAttributeDropDownModule&#45;&gt;ConfiguratorAttributeDropDownComponent </title>
<path fill="none" stroke="black" stroke-dasharray="5,2" d="M321,-187.11C321,-187.11 321,-205.99 321,-205.99"/>
<polygon fill="black" stroke="black" points="317.5,-205.99 321,-215.99 324.5,-205.99 317.5,-205.99"/>
</g>
<!-- ConfiguratorAttributeQuantityModule -->
<g id="node3" class="node">
<title>ConfiguratorAttributeQuantityModule</title>
<polygon fill="#8dd3c7" stroke="black" points="524.9,-122 521.9,-126 500.9,-126 497.9,-122 293.1,-122 293.1,-86 524.9,-86 524.9,-122"/>
<text text-anchor="middle" x="409" y="-99.8" font-family="Times,serif" font-size="14.00">ConfiguratorAttributeQuantityModule</text>
</g>
<!-- ConfiguratorAttributeQuantityModule&#45;&gt;ConfiguratorAttributeDropDownModule -->
<g id="edge2" class="edge">
<title>ConfiguratorAttributeQuantityModule&#45;&gt;ConfiguratorAttributeDropDownModule</title>
<path fill="none" stroke="black" d="M368.5,-122.11C368.5,-122.11 368.5,-140.99 368.5,-140.99"/>
<polygon fill="black" stroke="black" points="365,-140.99 368.5,-150.99 372,-140.99 365,-140.99"/>
</g>
<!-- I18nModule -->
<g id="node4" class="node">
<title>I18nModule</title>
<polygon fill="#8dd3c7" stroke="black" points="275.71,-122 272.71,-126 251.71,-126 248.71,-122 190.29,-122 190.29,-86 275.71,-86 275.71,-122"/>
<text text-anchor="middle" x="233" y="-99.8" font-family="Times,serif" font-size="14.00">I18nModule</text>
</g>
<!-- I18nModule&#45;&gt;ConfiguratorAttributeDropDownModule -->
<g id="edge3" class="edge">
<title>I18nModule&#45;&gt;ConfiguratorAttributeDropDownModule</title>
<path fill="none" stroke="black" d="M236.96,-122.11C236.96,-122.11 236.96,-140.99 236.96,-140.99"/>
<polygon fill="black" stroke="black" points="233.46,-140.99 236.96,-150.99 240.46,-140.99 233.46,-140.99"/>
</g>
<!-- KeyboardFocusModule -->
<g id="node5" class="node">
<title>KeyboardFocusModule</title>
<polygon fill="#8dd3c7" stroke="black" points="172.19,-122 169.19,-126 148.19,-126 145.19,-122 23.81,-122 23.81,-86 172.19,-86 172.19,-122"/>
<text text-anchor="middle" x="98" y="-99.8" font-family="Times,serif" font-size="14.00">KeyboardFocusModule</text>
</g>
<!-- KeyboardFocusModule&#45;&gt;ConfiguratorAttributeDropDownModule -->
<g id="edge4" class="edge">
<title>KeyboardFocusModule&#45;&gt;ConfiguratorAttributeDropDownModule</title>
<path fill="none" stroke="black" d="M98,-122.11C98,-141.34 98,-169 98,-169 98,-169 188.08,-169 188.08,-169"/>
<polygon fill="black" stroke="black" points="188.08,-172.5 198.08,-169 188.08,-165.5 188.08,-172.5"/>
</g>
</g>
</svg>
