<?xml version="1.0" encoding="UTF-8" standalone="no"?>
<!DOCTYPE svg PUBLIC "-//W3C//DTD SVG 1.1//EN"
 "http://www.w3.org/Graphics/SVG/1.1/DTD/svg11.dtd">
<!-- Generated by graphviz version 2.40.1 (20161225.0304)
 -->
<!-- Title: dependencies Pages: 1 -->
<svg width="600pt" height="284pt"
 viewBox="0.00 0.00 600.00 284.00" xmlns="http://www.w3.org/2000/svg" xmlns:xlink="http://www.w3.org/1999/xlink">
<g id="graph0" class="graph" transform="scale(1 1) rotate(0) translate(4 280)">
<title>dependencies</title>
<polygon fill="#ffffff" stroke="transparent" points="-4,4 -4,-280 596,-280 596,4 -4,4"/>
<text text-anchor="start" x="275.0091" y="-42.4" font-family="sans-serif" font-weight="bold" font-size="14.00" fill="#000000">Legend</text>
<polygon fill="#ffffb3" stroke="transparent" points="62,-10 62,-30 82,-30 82,-10 62,-10"/>
<text text-anchor="start" x="85.629" y="-15.4" font-family="sans-serif" font-size="14.00" fill="#000000"> &#160;Declarations</text>
<polygon fill="#8dd3c7" stroke="transparent" points="175,-10 175,-30 195,-30 195,-10 175,-10"/>
<text text-anchor="start" x="198.7251" y="-15.4" font-family="sans-serif" font-size="14.00" fill="#000000"> &#160;Module</text>
<polygon fill="#80b1d3" stroke="transparent" points="261,-10 261,-30 281,-30 281,-10 261,-10"/>
<text text-anchor="start" x="284.7812" y="-15.4" font-family="sans-serif" font-size="14.00" fill="#000000"> &#160;Bootstrap</text>
<polygon fill="#fdb462" stroke="transparent" points="358,-10 358,-30 378,-30 378,-10 358,-10"/>
<text text-anchor="start" x="381.6732" y="-15.4" font-family="sans-serif" font-size="14.00" fill="#000000"> &#160;Providers</text>
<polygon fill="#fb8072" stroke="transparent" points="454,-10 454,-30 474,-30 474,-10 454,-10"/>
<text text-anchor="start" x="477.7258" y="-15.4" font-family="sans-serif" font-size="14.00" fill="#000000"> &#160;Exports</text>
<g id="clust1" class="cluster">
<title>cluster_ConfiguratorAttributeDropDownModule</title>
<polygon fill="none" stroke="#000000" stroke-dasharray="1,5" points="8,-70 8,-268 584,-268 584,-70 8,-70"/>
</g>
<g id="clust2" class="cluster">
<title>cluster_ConfiguratorAttributeDropDownModule_declarations</title>
<polygon fill="none" stroke="#000000" points="292,-78 292,-130 576,-130 576,-78 292,-78"/>
</g>
<g id="clust4" class="cluster">
<title>cluster_ConfiguratorAttributeDropDownModule_imports</title>
<polygon fill="none" stroke="#000000" points="16,-78 16,-130 284,-130 284,-78 16,-78"/>
</g>
<g id="clust5" class="cluster">
<title>cluster_ConfiguratorAttributeDropDownModule_exports</title>
<polygon fill="none" stroke="#000000" points="90,-208 90,-260 376,-260 376,-208 90,-208"/>
</g>
<!-- ConfiguratorAttributeDropDownComponent -->
<g id="node1" class="node">
<title>ConfiguratorAttributeDropDownComponent</title>
<polygon fill="#ffffb3" stroke="#000000" points="567.6713,-122 300.3287,-122 300.3287,-86 567.6713,-86 567.6713,-122"/>
<text text-anchor="middle" x="434" y="-99.8" font-family="Times,serif" font-size="14.00" fill="#000000">ConfiguratorAttributeDropDownComponent</text>
</g>
<!-- ConfiguratorAttributeDropDownModule -->
<g id="node2" class="node">
<title>ConfiguratorAttributeDropDownModule</title>
<polygon fill="#8dd3c7" stroke="#000000" points="355.8889,-187 352.8889,-191 331.8889,-191 328.8889,-187 110.1111,-187 110.1111,-151 355.8889,-151 355.8889,-187"/>
<text text-anchor="middle" x="233" y="-164.8" font-family="Times,serif" font-size="14.00" fill="#000000">ConfiguratorAttributeDropDownModule</text>
</g>
<!-- ConfiguratorAttributeDropDownComponent&#45;&gt;ConfiguratorAttributeDropDownModule -->
<g id="edge1" class="edge">
<title>ConfiguratorAttributeDropDownComponent&#45;&gt;ConfiguratorAttributeDropDownModule</title>
<path fill="none" stroke="#000000" d="M328.0544,-122.1061C328.0544,-122.1061 328.0544,-140.991 328.0544,-140.991"/>
<polygon fill="#000000" stroke="#000000" points="324.5544,-140.9909 328.0544,-150.991 331.5544,-140.991 324.5544,-140.9909"/>
</g>
<!-- ConfiguratorAttributeDropDownComponent  -->
<g id="node5" class="node">
<title>ConfiguratorAttributeDropDownComponent </title>
<polygon fill="#fb8072" stroke="#000000" points="368.1714,-252 97.8286,-252 97.8286,-216 368.1714,-216 368.1714,-252"/>
<text text-anchor="middle" x="233" y="-229.8" font-family="Times,serif" font-size="14.00" fill="#000000">ConfiguratorAttributeDropDownComponent </text>
</g>
<!-- ConfiguratorAttributeDropDownModule&#45;&gt;ConfiguratorAttributeDropDownComponent  -->
<g id="edge4" class="edge">
<title>ConfiguratorAttributeDropDownModule&#45;&gt;ConfiguratorAttributeDropDownComponent </title>
<path fill="none" stroke="#000000" stroke-dasharray="5,2" d="M233,-187.1061C233,-187.1061 233,-205.991 233,-205.991"/>
<polygon fill="#000000" stroke="#000000" points="229.5001,-205.9909 233,-215.991 236.5001,-205.991 229.5001,-205.9909"/>
</g>
<!-- I18nModule -->
<g id="node3" class="node">
<title>I18nModule</title>
<polygon fill="#8dd3c7" stroke="#000000" points="275.7107,-122 272.7107,-126 251.7107,-126 248.7107,-122 190.2893,-122 190.2893,-86 275.7107,-86 275.7107,-122"/>
<text text-anchor="middle" x="233" y="-99.8" font-family="Times,serif" font-size="14.00" fill="#000000">I18nModule</text>
</g>
<!-- I18nModule&#45;&gt;ConfiguratorAttributeDropDownModule -->
<g id="edge2" class="edge">
<title>I18nModule&#45;&gt;ConfiguratorAttributeDropDownModule</title>
<path fill="none" stroke="#000000" d="M233,-122.1061C233,-122.1061 233,-140.991 233,-140.991"/>
<polygon fill="#000000" stroke="#000000" points="229.5001,-140.9909 233,-150.991 236.5001,-140.991 229.5001,-140.9909"/>
</g>
<!-- KeyboardFocusModule -->
<g id="node4" class="node">
<title>KeyboardFocusModule</title>
<polygon fill="#8dd3c7" stroke="#000000" points="172.1881,-122 169.1881,-126 148.1881,-126 145.1881,-122 23.8119,-122 23.8119,-86 172.1881,-86 172.1881,-122"/>
<text text-anchor="middle" x="98" y="-99.8" font-family="Times,serif" font-size="14.00" fill="#000000">KeyboardFocusModule</text>
</g>
<!-- KeyboardFocusModule&#45;&gt;ConfiguratorAttributeDropDownModule -->
<g id="edge3" class="edge">
<title>KeyboardFocusModule&#45;&gt;ConfiguratorAttributeDropDownModule</title>
<path fill="none" stroke="#000000" d="M141.1999,-122.1061C141.1999,-122.1061 141.1999,-140.991 141.1999,-140.991"/>
<polygon fill="#000000" stroke="#000000" points="137.6999,-140.9909 141.1999,-150.991 144.6999,-140.991 137.6999,-140.9909"/>
</g>
</g>
</svg>
