<?xml version="1.0" encoding="UTF-8" standalone="no"?>
<!DOCTYPE svg PUBLIC "-//W3C//DTD SVG 1.1//EN"
 "http://www.w3.org/Graphics/SVG/1.1/DTD/svg11.dtd">
<!-- Generated by graphviz version 2.40.1 (20161225.0304)
 -->
<!-- Title: dependencies Pages: 1 -->
<svg width="960pt" height="284pt"
 viewBox="0.00 0.00 960.00 284.00" xmlns="http://www.w3.org/2000/svg" xmlns:xlink="http://www.w3.org/1999/xlink">
<g id="graph0" class="graph" transform="scale(1 1) rotate(0) translate(4 280)">
<title>dependencies</title>
<polygon fill="#ffffff" stroke="transparent" points="-4,4 -4,-280 956,-280 956,4 -4,4"/>
<text text-anchor="start" x="455.0091" y="-42.4" font-family="sans-serif" font-weight="bold" font-size="14.00" fill="#000000">Legend</text>
<polygon fill="#ffffb3" stroke="transparent" points="242,-10 242,-30 262,-30 262,-10 242,-10"/>
<text text-anchor="start" x="265.629" y="-15.4" font-family="sans-serif" font-size="14.00" fill="#000000"> &#160;Declarations</text>
<polygon fill="#8dd3c7" stroke="transparent" points="355,-10 355,-30 375,-30 375,-10 355,-10"/>
<text text-anchor="start" x="378.7251" y="-15.4" font-family="sans-serif" font-size="14.00" fill="#000000"> &#160;Module</text>
<polygon fill="#80b1d3" stroke="transparent" points="441,-10 441,-30 461,-30 461,-10 441,-10"/>
<text text-anchor="start" x="464.7812" y="-15.4" font-family="sans-serif" font-size="14.00" fill="#000000"> &#160;Bootstrap</text>
<polygon fill="#fdb462" stroke="transparent" points="538,-10 538,-30 558,-30 558,-10 538,-10"/>
<text text-anchor="start" x="561.6732" y="-15.4" font-family="sans-serif" font-size="14.00" fill="#000000"> &#160;Providers</text>
<polygon fill="#fb8072" stroke="transparent" points="634,-10 634,-30 654,-30 654,-10 634,-10"/>
<text text-anchor="start" x="657.7258" y="-15.4" font-family="sans-serif" font-size="14.00" fill="#000000"> &#160;Exports</text>
<g id="clust1" class="cluster">
<title>cluster_AddToCartModule</title>
<polygon fill="none" stroke="#000000" stroke-dasharray="1,5" points="8,-70 8,-268 944,-268 944,-70 8,-70"/>
</g>
<g id="clust2" class="cluster">
<title>cluster_AddToCartModule_declarations</title>
<polygon fill="none" stroke="#000000" points="560,-78 560,-130 936,-130 936,-78 560,-78"/>
</g>
<g id="clust5" class="cluster">
<title>cluster_AddToCartModule_imports</title>
<polygon fill="none" stroke="#000000" points="16,-78 16,-130 552,-130 552,-78 16,-78"/>
</g>
<g id="clust6" class="cluster">
<title>cluster_AddToCartModule_exports</title>
<polygon fill="none" stroke="#000000" points="337,-208 337,-260 501,-260 501,-208 337,-208"/>
</g>
<!-- AddToCartComponent -->
<g id="node1" class="node">
<title>AddToCartComponent</title>
<polygon fill="#ffffb3" stroke="#000000" points="927.594,-122 782.406,-122 782.406,-86 927.594,-86 927.594,-122"/>
<text text-anchor="middle" x="855" y="-99.8" font-family="Times,serif" font-size="14.00" fill="#000000">AddToCartComponent</text>
</g>
<!-- AddToCartModule -->
<g id="node3" class="node">
<title>AddToCartModule</title>
<polygon fill="#8dd3c7" stroke="#000000" points="480.8118,-187 477.8118,-191 456.8118,-191 453.8118,-187 357.1882,-187 357.1882,-151 480.8118,-151 480.8118,-187"/>
<text text-anchor="middle" x="419" y="-164.8" font-family="Times,serif" font-size="14.00" fill="#000000">AddToCartModule</text>
</g>
<!-- AddToCartComponent&#45;&gt;AddToCartModule -->
<g id="edge1" class="edge">
<title>AddToCartComponent&#45;&gt;AddToCartModule</title>
<path fill="none" stroke="#000000" d="M855,-122.2843C855,-143.3211 855,-175 855,-175 855,-175 491.0051,-175 491.0051,-175"/>
<polygon fill="#000000" stroke="#000000" points="491.0052,-171.5001 481.0051,-175 491.0051,-178.5001 491.0052,-171.5001"/>
</g>
<!-- AddedToCartDialogComponent -->
<g id="node2" class="node">
<title>AddedToCartDialogComponent</title>
<polygon fill="#ffffb3" stroke="#000000" points="764.4114,-122 567.5886,-122 567.5886,-86 764.4114,-86 764.4114,-122"/>
<text text-anchor="middle" x="666" y="-99.8" font-family="Times,serif" font-size="14.00" fill="#000000">AddedToCartDialogComponent</text>
</g>
<!-- AddedToCartDialogComponent&#45;&gt;AddToCartModule -->
<g id="edge2" class="edge">
<title>AddedToCartDialogComponent&#45;&gt;AddToCartModule</title>
<path fill="none" stroke="#000000" d="M666,-122.0225C666,-139.3734 666,-163 666,-163 666,-163 490.6914,-163 490.6914,-163"/>
<polygon fill="#000000" stroke="#000000" points="490.6914,-159.5001 480.6914,-163 490.6913,-166.5001 490.6914,-159.5001"/>
</g>
<!-- AddToCartComponent  -->
<g id="node8" class="node">
<title>AddToCartComponent </title>
<polygon fill="#fb8072" stroke="#000000" points="493.0946,-252 344.9054,-252 344.9054,-216 493.0946,-216 493.0946,-252"/>
<text text-anchor="middle" x="419" y="-229.8" font-family="Times,serif" font-size="14.00" fill="#000000">AddToCartComponent </text>
</g>
<!-- AddToCartModule&#45;&gt;AddToCartComponent  -->
<g id="edge7" class="edge">
<title>AddToCartModule&#45;&gt;AddToCartComponent </title>
<path fill="none" stroke="#000000" stroke-dasharray="5,2" d="M419,-187.1061C419,-187.1061 419,-205.991 419,-205.991"/>
<polygon fill="#000000" stroke="#000000" points="415.5001,-205.9909 419,-215.991 422.5001,-205.991 415.5001,-205.9909"/>
</g>
<!-- CartSharedModule -->
<g id="node4" class="node">
<title>CartSharedModule</title>
<polygon fill="#8dd3c7" stroke="#000000" points="544.0255,-122 541.0255,-126 520.0255,-126 517.0255,-122 421.9745,-122 421.9745,-86 544.0255,-86 544.0255,-122"/>
<text text-anchor="middle" x="483" y="-99.8" font-family="Times,serif" font-size="14.00" fill="#000000">CartSharedModule</text>
</g>
<!-- CartSharedModule&#45;&gt;AddToCartModule -->
<g id="edge3" class="edge">
<title>CartSharedModule&#45;&gt;AddToCartModule</title>
<path fill="none" stroke="#000000" d="M451.1967,-122.1061C451.1967,-122.1061 451.1967,-140.991 451.1967,-140.991"/>
<polygon fill="#000000" stroke="#000000" points="447.6968,-140.9909 451.1967,-150.991 454.6968,-140.991 447.6968,-140.9909"/>
</g>
<!-- ConfigModule -->
<g id="node5" class="node">
<title>ConfigModule</title>
<polygon fill="#8dd3c7" stroke="#000000" points="404.4386,-122 401.4386,-126 380.4386,-126 377.4386,-122 305.5614,-122 305.5614,-86 404.4386,-86 404.4386,-122"/>
<text text-anchor="middle" x="355" y="-99.8" font-family="Times,serif" font-size="14.00" fill="#000000">ConfigModule</text>
</g>
<!-- ConfigModule&#45;&gt;AddToCartModule -->
<g id="edge4" class="edge">
<title>ConfigModule&#45;&gt;AddToCartModule</title>
<path fill="none" stroke="#000000" d="M380.7816,-122.1061C380.7816,-122.1061 380.7816,-140.991 380.7816,-140.991"/>
<polygon fill="#000000" stroke="#000000" points="377.2816,-140.9909 380.7816,-150.991 384.2816,-140.991 377.2816,-140.9909"/>
</g>
<!-- SpinnerModule -->
<g id="node6" class="node">
<title>SpinnerModule</title>
<polygon fill="#8dd3c7" stroke="#000000" points="287.5982,-122 284.5982,-126 263.5982,-126 260.5982,-122 184.4018,-122 184.4018,-86 287.5982,-86 287.5982,-122"/>
<text text-anchor="middle" x="236" y="-99.8" font-family="Times,serif" font-size="14.00" fill="#000000">SpinnerModule</text>
</g>
<!-- SpinnerModule&#45;&gt;AddToCartModule -->
<g id="edge5" class="edge">
<title>SpinnerModule&#45;&gt;AddToCartModule</title>
<path fill="none" stroke="#000000" d="M236,-122.0225C236,-139.3734 236,-163 236,-163 236,-163 347.2997,-163 347.2997,-163"/>
<polygon fill="#000000" stroke="#000000" points="347.2997,-166.5001 357.2997,-163 347.2996,-159.5001 347.2997,-166.5001"/>
</g>
<!-- UrlTranslationModule -->
<g id="node7" class="node">
<title>UrlTranslationModule</title>
<polygon fill="#8dd3c7" stroke="#000000" points="165.9664,-122 162.9664,-126 141.9664,-126 138.9664,-122 24.0336,-122 24.0336,-86 165.9664,-86 165.9664,-122"/>
<text text-anchor="middle" x="95" y="-99.8" font-family="Times,serif" font-size="14.00" fill="#000000">UrlTranslationModule</text>
</g>
<!-- UrlTranslationModule&#45;&gt;AddToCartModule -->
<g id="edge6" class="edge">
<title>UrlTranslationModule&#45;&gt;AddToCartModule</title>
<path fill="none" stroke="#000000" d="M95,-122.2843C95,-143.3211 95,-175 95,-175 95,-175 347.2954,-175 347.2954,-175"/>
<polygon fill="#000000" stroke="#000000" points="347.2955,-178.5001 357.2954,-175 347.2954,-171.5001 347.2955,-178.5001"/>
</g>
</g>
</svg>
