<?xml version="1.0" encoding="UTF-8" standalone="no"?>
<!DOCTYPE svg PUBLIC "-//W3C//DTD SVG 1.1//EN"
 "http://www.w3.org/Graphics/SVG/1.1/DTD/svg11.dtd">
<!-- Generated by graphviz version 2.44.1 (20200629.0846)
 -->
<!-- Title: dependencies Pages: 1 -->
<svg width="504pt" height="284pt"
 viewBox="0.00 0.00 504.00 284.00" xmlns="http://www.w3.org/2000/svg" xmlns:xlink="http://www.w3.org/1999/xlink">
<g id="graph0" class="graph" transform="scale(1 1) rotate(0) translate(4 280)">
<title>dependencies</title>
<polygon fill="white" stroke="transparent" points="-4,4 -4,-280 500,-280 500,4 -4,4"/>
<text text-anchor="start" x="227.01" y="-42.4" font-family="sans-serif" font-weight="bold" font-size="14.00">Legend</text>
<polygon fill="#ffffb3" stroke="transparent" points="14,-10 14,-30 34,-30 34,-10 14,-10"/>
<text text-anchor="start" x="37.63" y="-15.4" font-family="sans-serif" font-size="14.00"> &#160;Declarations</text>
<polygon fill="#8dd3c7" stroke="transparent" points="127,-10 127,-30 147,-30 147,-10 127,-10"/>
<text text-anchor="start" x="150.73" y="-15.4" font-family="sans-serif" font-size="14.00"> &#160;Module</text>
<polygon fill="#80b1d3" stroke="transparent" points="213,-10 213,-30 233,-30 233,-10 213,-10"/>
<text text-anchor="start" x="236.78" y="-15.4" font-family="sans-serif" font-size="14.00"> &#160;Bootstrap</text>
<polygon fill="#fdb462" stroke="transparent" points="310,-10 310,-30 330,-30 330,-10 310,-10"/>
<text text-anchor="start" x="333.67" y="-15.4" font-family="sans-serif" font-size="14.00"> &#160;Providers</text>
<polygon fill="#fb8072" stroke="transparent" points="406,-10 406,-30 426,-30 426,-10 406,-10"/>
<text text-anchor="start" x="429.73" y="-15.4" font-family="sans-serif" font-size="14.00"> &#160;Exports</text>
<g id="clust1" class="cluster">
<title>cluster_ListNavigationModule</title>
<polygon fill="none" stroke="black" stroke-dasharray="1,5" points="88,-70 88,-268 408,-268 408,-70 88,-70"/>
</g>
<g id="clust5" class="cluster">
<title>cluster_ListNavigationModule_exports</title>
<polygon fill="none" stroke="black" points="96,-208 96,-260 400,-260 400,-208 96,-208"/>
</g>
<g id="clust2" class="cluster">
<title>cluster_ListNavigationModule_declarations</title>
<polygon fill="none" stroke="black" points="251,-78 251,-130 389,-130 389,-78 251,-78"/>
</g>
<g id="clust4" class="cluster">
<title>cluster_ListNavigationModule_imports</title>
<polygon fill="none" stroke="black" points="107,-78 107,-130 243,-130 243,-78 107,-78"/>
</g>
<!-- SortingComponent -->
<g id="node1" class="node">
<title>SortingComponent</title>
<polygon fill="#ffffb3" stroke="black" points="381.06,-122 258.94,-122 258.94,-86 381.06,-86 381.06,-122"/>
<text text-anchor="middle" x="320" y="-99.8" font-family="Times,serif" font-size="14.00">SortingComponent</text>
</g>
<!-- ListNavigationModule -->
<g id="node2" class="node">
<title>ListNavigationModule</title>
<polygon fill="#8dd3c7" stroke="black" points="309.54,-187 306.54,-191 285.54,-191 282.54,-187 166.46,-187 166.46,-151 309.54,-151 309.54,-187"/>
<text text-anchor="middle" x="238" y="-164.8" font-family="Times,serif" font-size="14.00">ListNavigationModule</text>
</g>
<!-- SortingComponent&#45;&gt;ListNavigationModule -->
<g id="edge1" class="edge">
<title>SortingComponent&#45;&gt;ListNavigationModule</title>
<path fill="none" stroke="black" d="M284.24,-122.11C284.24,-122.11 284.24,-140.99 284.24,-140.99"/>
<polygon fill="black" stroke="black" points="280.74,-140.99 284.24,-150.99 287.74,-140.99 280.74,-140.99"/>
</g>
<!-- PaginationComponent  -->
<g id="node4" class="node">
<title>PaginationComponent </title>
<polygon fill="#fb8072" stroke="black" points="392.22,-252 247.78,-252 247.78,-216 392.22,-216 392.22,-252"/>
<text text-anchor="middle" x="320" y="-229.8" font-family="Times,serif" font-size="14.00">PaginationComponent </text>
</g>
<!-- ListNavigationModule&#45;&gt;PaginationComponent  -->
<g id="edge3" class="edge">
<title>ListNavigationModule&#45;&gt;PaginationComponent </title>
<path fill="none" stroke="black" stroke-dasharray="5,2" d="M278.7,-187.11C278.7,-187.11 278.7,-205.99 278.7,-205.99"/>
<polygon fill="black" stroke="black" points="275.21,-205.99 278.7,-215.99 282.21,-205.99 275.21,-205.99"/>
</g>
<!-- SortingComponent  -->
<g id="node5" class="node">
<title>SortingComponent </title>
<polygon fill="#fb8072" stroke="black" points="230.06,-252 103.94,-252 103.94,-216 230.06,-216 230.06,-252"/>
<text text-anchor="middle" x="167" y="-229.8" font-family="Times,serif" font-size="14.00">SortingComponent </text>
</g>
<!-- ListNavigationModule&#45;&gt;SortingComponent  -->
<g id="edge4" class="edge">
<title>ListNavigationModule&#45;&gt;SortingComponent </title>
<path fill="none" stroke="black" stroke-dasharray="5,2" d="M198.13,-187.11C198.13,-187.11 198.13,-205.99 198.13,-205.99"/>
<polygon fill="black" stroke="black" points="194.63,-205.99 198.13,-215.99 201.63,-205.99 194.63,-205.99"/>
</g>
<!-- PaginationModule -->
<g id="node3" class="node">
<title>PaginationModule</title>
<polygon fill="#8dd3c7" stroke="black" points="234.93,-122 231.93,-126 210.93,-126 207.93,-122 115.07,-122 115.07,-86 234.93,-86 234.93,-122"/>
<text text-anchor="middle" x="175" y="-99.8" font-family="Times,serif" font-size="14.00">PaginationModule</text>
</g>
<!-- PaginationModule&#45;&gt;ListNavigationModule -->
<g id="edge2" class="edge">
<title>PaginationModule&#45;&gt;ListNavigationModule</title>
<path fill="none" stroke="black" d="M200.47,-122.11C200.47,-122.11 200.47,-140.99 200.47,-140.99"/>
<polygon fill="black" stroke="black" points="196.97,-140.99 200.47,-150.99 203.97,-140.99 196.97,-140.99"/>
</g>
</g>
</svg>
