<?xml version="1.0" encoding="UTF-8" standalone="no"?>
<!DOCTYPE svg PUBLIC "-//W3C//DTD SVG 1.1//EN"
 "http://www.w3.org/Graphics/SVG/1.1/DTD/svg11.dtd">
<!-- Generated by graphviz version 2.40.1 (20161225.0304)
 -->
<!-- Title: dependencies Pages: 1 -->
<svg width="504pt" height="211pt"
 viewBox="0.00 0.00 504.00 211.00" xmlns="http://www.w3.org/2000/svg" xmlns:xlink="http://www.w3.org/1999/xlink">
<g id="graph0" class="graph" transform="scale(1 1) rotate(0) translate(4 207)">
<title>dependencies</title>
<polygon fill="#ffffff" stroke="transparent" points="-4,4 -4,-207 500,-207 500,4 -4,4"/>
<text text-anchor="start" x="227.0091" y="-42.4" font-family="sans-serif" font-weight="bold" font-size="14.00" fill="#000000">Legend</text>
<polygon fill="#ffffb3" stroke="transparent" points="14,-10 14,-30 34,-30 34,-10 14,-10"/>
<text text-anchor="start" x="37.629" y="-15.4" font-family="sans-serif" font-size="14.00" fill="#000000"> &#160;Declarations</text>
<polygon fill="#8dd3c7" stroke="transparent" points="127,-10 127,-30 147,-30 147,-10 127,-10"/>
<text text-anchor="start" x="150.7251" y="-15.4" font-family="sans-serif" font-size="14.00" fill="#000000"> &#160;Module</text>
<polygon fill="#80b1d3" stroke="transparent" points="213,-10 213,-30 233,-30 233,-10 213,-10"/>
<text text-anchor="start" x="236.7812" y="-15.4" font-family="sans-serif" font-size="14.00" fill="#000000"> &#160;Bootstrap</text>
<polygon fill="#fdb462" stroke="transparent" points="310,-10 310,-30 330,-30 330,-10 310,-10"/>
<text text-anchor="start" x="333.6732" y="-15.4" font-family="sans-serif" font-size="14.00" fill="#000000"> &#160;Providers</text>
<polygon fill="#fb8072" stroke="transparent" points="406,-10 406,-30 426,-30 426,-10 406,-10"/>
<text text-anchor="start" x="429.7258" y="-15.4" font-family="sans-serif" font-size="14.00" fill="#000000"> &#160;Exports</text>
<g id="clust1" class="cluster">
<title>cluster_CheckoutModule</title>
<polygon fill="none" stroke="#000000" stroke-dasharray="1,5" points="72,-70 72,-195 424,-195 424,-70 72,-70"/>
</g>
<g id="clust3" class="cluster">
<title>cluster_CheckoutModule_imports</title>
<polygon fill="none" stroke="#000000" points="258,-78 258,-130 416,-130 416,-78 258,-78"/>
</g>
<g id="clust6" class="cluster">
<title>cluster_CheckoutModule_providers</title>
<polygon fill="none" stroke="#000000" points="80,-78 80,-130 250,-130 250,-78 80,-78"/>
</g>
<!-- CheckoutStoreModule -->
<g id="node1" class="node">
<title>CheckoutStoreModule</title>
<polygon fill="#8dd3c7" stroke="#000000" points="408.2548,-122 405.2548,-126 384.2548,-126 381.2548,-122 265.7452,-122 265.7452,-86 408.2548,-86 408.2548,-122"/>
<text text-anchor="middle" x="337" y="-99.8" font-family="Times,serif" font-size="14.00" fill="#000000">CheckoutStoreModule</text>
</g>
<!-- CheckoutModule -->
<g id="node2" class="node">
<title>CheckoutModule</title>
<polygon fill="#8dd3c7" stroke="#000000" points="307.7064,-187 304.7064,-191 283.7064,-191 280.7064,-187 194.2936,-187 194.2936,-151 307.7064,-151 307.7064,-187"/>
<text text-anchor="middle" x="251" y="-164.8" font-family="Times,serif" font-size="14.00" fill="#000000">CheckoutModule</text>
</g>
<!-- CheckoutStoreModule&#45;&gt;CheckoutModule -->
<g id="edge1" class="edge">
<title>CheckoutStoreModule&#45;&gt;CheckoutModule</title>
<path fill="none" stroke="#000000" d="M286.6129,-122.1061C286.6129,-122.1061 286.6129,-140.991 286.6129,-140.991"/>
<polygon fill="#000000" stroke="#000000" points="283.113,-140.9909 286.6129,-150.991 290.113,-140.991 283.113,-140.9909"/>
</g>
<!-- CheckoutService -->
<g id="node3" class="node">
<title>CheckoutService</title>
<ellipse fill="#fdb462" stroke="#000000" cx="165" cy="-104" rx="77.0062" ry="18"/>
<text text-anchor="middle" x="165" y="-99.8" font-family="Times,serif" font-size="14.00" fill="#000000">CheckoutService</text>
</g>
<!-- CheckoutService&#45;&gt;CheckoutModule -->
<g id="edge2" class="edge">
<title>CheckoutService&#45;&gt;CheckoutModule</title>
<path fill="none" stroke="#000000" d="M218.2,-117.1537C218.2,-117.1537 218.2,-140.6938 218.2,-140.6938"/>
<polygon fill="#000000" stroke="#000000" points="214.7001,-140.6938 218.2,-150.6938 221.7001,-140.6939 214.7001,-140.6938"/>
</g>
</g>
</svg>
