<?xml version="1.0" encoding="UTF-8" standalone="no"?>
<!DOCTYPE svg PUBLIC "-//W3C//DTD SVG 1.1//EN"
 "http://www.w3.org/Graphics/SVG/1.1/DTD/svg11.dtd">
<!-- Generated by graphviz version 2.40.1 (20161225.0304)
 -->
<!-- Title: dependencies Pages: 1 -->
<svg width="1644pt" height="211pt"
 viewBox="0.00 0.00 1644.00 211.00" xmlns="http://www.w3.org/2000/svg" xmlns:xlink="http://www.w3.org/1999/xlink">
<g id="graph0" class="graph" transform="scale(1 1) rotate(0) translate(4 207)">
<title>dependencies</title>
<polygon fill="#ffffff" stroke="transparent" points="-4,4 -4,-207 1640,-207 1640,4 -4,4"/>
<text text-anchor="start" x="797.0091" y="-42.4" font-family="sans-serif" font-weight="bold" font-size="14.00" fill="#000000">Legend</text>
<polygon fill="#ffffb3" stroke="transparent" points="584,-10 584,-30 604,-30 604,-10 584,-10"/>
<text text-anchor="start" x="607.629" y="-15.4" font-family="sans-serif" font-size="14.00" fill="#000000"> &#160;Declarations</text>
<polygon fill="#8dd3c7" stroke="transparent" points="697,-10 697,-30 717,-30 717,-10 697,-10"/>
<text text-anchor="start" x="720.7251" y="-15.4" font-family="sans-serif" font-size="14.00" fill="#000000"> &#160;Module</text>
<polygon fill="#80b1d3" stroke="transparent" points="783,-10 783,-30 803,-30 803,-10 783,-10"/>
<text text-anchor="start" x="806.7812" y="-15.4" font-family="sans-serif" font-size="14.00" fill="#000000"> &#160;Bootstrap</text>
<polygon fill="#fdb462" stroke="transparent" points="880,-10 880,-30 900,-30 900,-10 880,-10"/>
<text text-anchor="start" x="903.6732" y="-15.4" font-family="sans-serif" font-size="14.00" fill="#000000"> &#160;Providers</text>
<polygon fill="#fb8072" stroke="transparent" points="976,-10 976,-30 996,-30 996,-10 976,-10"/>
<text text-anchor="start" x="999.7258" y="-15.4" font-family="sans-serif" font-size="14.00" fill="#000000"> &#160;Exports</text>
<g id="clust1" class="cluster">
<title>cluster_MultiStepCheckoutModule</title>
<polygon fill="none" stroke="#000000" stroke-dasharray="1,5" points="8,-70 8,-195 1628,-195 1628,-70 8,-70"/>
</g>
<g id="clust2" class="cluster">
<title>cluster_MultiStepCheckoutModule_declarations</title>
<polygon fill="none" stroke="#000000" points="1414,-78 1414,-130 1620,-130 1620,-78 1414,-78"/>
</g>
<g id="clust4" class="cluster">
<title>cluster_MultiStepCheckoutModule_imports</title>
<polygon fill="none" stroke="#000000" points="16,-78 16,-130 1406,-130 1406,-78 16,-78"/>
</g>
<!-- MultiStepCheckoutComponent -->
<g id="node1" class="node">
<title>MultiStepCheckoutComponent</title>
<polygon fill="#ffffb3" stroke="#000000" points="1612.493,-122 1421.507,-122 1421.507,-86 1612.493,-86 1612.493,-122"/>
<text text-anchor="middle" x="1517" y="-99.8" font-family="Times,serif" font-size="14.00" fill="#000000">MultiStepCheckoutComponent</text>
</g>
<!-- MultiStepCheckoutModule -->
<g id="node2" class="node">
<title>MultiStepCheckoutModule</title>
<polygon fill="#8dd3c7" stroke="#000000" points="892.7105,-187 889.7105,-191 868.7105,-191 865.7105,-187 723.2895,-187 723.2895,-151 892.7105,-151 892.7105,-187"/>
<text text-anchor="middle" x="808" y="-164.8" font-family="Times,serif" font-size="14.00" fill="#000000">MultiStepCheckoutModule</text>
</g>
<!-- MultiStepCheckoutComponent&#45;&gt;MultiStepCheckoutModule -->
<g id="edge1" class="edge">
<title>MultiStepCheckoutComponent&#45;&gt;MultiStepCheckoutModule</title>
<path fill="none" stroke="#000000" d="M1517,-122.0109C1517,-144.4852 1517,-180 1517,-180 1517,-180 902.8177,-180 902.8177,-180"/>
<polygon fill="#000000" stroke="#000000" points="902.8178,-176.5001 892.8177,-180 902.8177,-183.5001 902.8178,-176.5001"/>
</g>
<!-- CartSharedModule -->
<g id="node3" class="node">
<title>CartSharedModule</title>
<polygon fill="#8dd3c7" stroke="#000000" points="1398.0255,-122 1395.0255,-126 1374.0255,-126 1371.0255,-122 1275.9745,-122 1275.9745,-86 1398.0255,-86 1398.0255,-122"/>
<text text-anchor="middle" x="1337" y="-99.8" font-family="Times,serif" font-size="14.00" fill="#000000">CartSharedModule</text>
</g>
<!-- CartSharedModule&#45;&gt;MultiStepCheckoutModule -->
<g id="edge2" class="edge">
<title>CartSharedModule&#45;&gt;MultiStepCheckoutModule</title>
<path fill="none" stroke="#000000" d="M1337,-122.1289C1337,-142.5724 1337,-173 1337,-173 1337,-173 902.6996,-173 902.6996,-173"/>
<polygon fill="#000000" stroke="#000000" points="902.6996,-169.5001 892.6996,-173 902.6996,-176.5001 902.6996,-169.5001"/>
</g>
<!-- CheckoutModule -->
<g id="node4" class="node">
<title>CheckoutModule</title>
<polygon fill="#8dd3c7" stroke="#000000" points="1257.7064,-122 1254.7064,-126 1233.7064,-126 1230.7064,-122 1144.2936,-122 1144.2936,-86 1257.7064,-86 1257.7064,-122"/>
<text text-anchor="middle" x="1201" y="-99.8" font-family="Times,serif" font-size="14.00" fill="#000000">CheckoutModule</text>
</g>
<!-- CheckoutModule&#45;&gt;MultiStepCheckoutModule -->
<g id="edge3" class="edge">
<title>CheckoutModule&#45;&gt;MultiStepCheckoutModule</title>
<path fill="none" stroke="#000000" d="M1201,-122.2667C1201,-140.5552 1201,-166 1201,-166 1201,-166 902.7913,-166 902.7913,-166"/>
<polygon fill="#000000" stroke="#000000" points="902.7913,-162.5001 892.7913,-166 902.7913,-169.5001 902.7913,-162.5001"/>
</g>
<!-- ConfigModule -->
<g id="node5" class="node">
<title>ConfigModule</title>
<polygon fill="#8dd3c7" stroke="#000000" points="1126.4386,-122 1123.4386,-126 1102.4386,-126 1099.4386,-122 1027.5614,-122 1027.5614,-86 1126.4386,-86 1126.4386,-122"/>
<text text-anchor="middle" x="1077" y="-99.8" font-family="Times,serif" font-size="14.00" fill="#000000">ConfigModule</text>
</g>
<!-- ConfigModule&#45;&gt;MultiStepCheckoutModule -->
<g id="edge4" class="edge">
<title>ConfigModule&#45;&gt;MultiStepCheckoutModule</title>
<path fill="none" stroke="#000000" d="M1077,-122.0091C1077,-138.0494 1077,-159 1077,-159 1077,-159 902.7441,-159 902.7441,-159"/>
<polygon fill="#000000" stroke="#000000" points="902.7441,-155.5001 892.7441,-159 902.744,-162.5001 902.7441,-155.5001"/>
</g>
<!-- DeliveryModeModule -->
<g id="node6" class="node">
<title>DeliveryModeModule</title>
<polygon fill="#8dd3c7" stroke="#000000" points="1009.6867,-122 1006.6867,-126 985.6867,-126 982.6867,-122 868.3133,-122 868.3133,-86 1009.6867,-86 1009.6867,-122"/>
<text text-anchor="middle" x="939" y="-99.8" font-family="Times,serif" font-size="14.00" fill="#000000">DeliveryModeModule</text>
</g>
<!-- DeliveryModeModule&#45;&gt;MultiStepCheckoutModule -->
<g id="edge5" class="edge">
<title>DeliveryModeModule&#45;&gt;MultiStepCheckoutModule</title>
<path fill="none" stroke="#000000" d="M880.506,-122.1061C880.506,-122.1061 880.506,-140.991 880.506,-140.991"/>
<polygon fill="#000000" stroke="#000000" points="877.006,-140.9909 880.506,-150.991 884.006,-140.991 877.006,-140.9909"/>
</g>
<!-- I18nModule -->
<g id="node7" class="node">
<title>I18nModule</title>
<polygon fill="#8dd3c7" stroke="#000000" points="850.7107,-122 847.7107,-126 826.7107,-126 823.7107,-122 765.2893,-122 765.2893,-86 850.7107,-86 850.7107,-122"/>
<text text-anchor="middle" x="808" y="-99.8" font-family="Times,serif" font-size="14.00" fill="#000000">I18nModule</text>
</g>
<!-- I18nModule&#45;&gt;MultiStepCheckoutModule -->
<g id="edge6" class="edge">
<title>I18nModule&#45;&gt;MultiStepCheckoutModule</title>
<path fill="none" stroke="#000000" d="M808,-122.1061C808,-122.1061 808,-140.991 808,-140.991"/>
<polygon fill="#000000" stroke="#000000" points="804.5001,-140.9909 808,-150.991 811.5001,-140.991 804.5001,-140.9909"/>
</g>
<!-- PaymentMethodModule -->
<g id="node8" class="node">
<title>PaymentMethodModule</title>
<polygon fill="#8dd3c7" stroke="#000000" points="747.0926,-122 744.0926,-126 723.0926,-126 720.0926,-122 594.9074,-122 594.9074,-86 747.0926,-86 747.0926,-122"/>
<text text-anchor="middle" x="671" y="-99.8" font-family="Times,serif" font-size="14.00" fill="#000000">PaymentMethodModule</text>
</g>
<!-- PaymentMethodModule&#45;&gt;MultiStepCheckoutModule -->
<g id="edge7" class="edge">
<title>PaymentMethodModule&#45;&gt;MultiStepCheckoutModule</title>
<path fill="none" stroke="#000000" d="M735.2206,-122.1061C735.2206,-122.1061 735.2206,-140.991 735.2206,-140.991"/>
<polygon fill="#000000" stroke="#000000" points="731.7206,-140.9909 735.2206,-150.991 738.7206,-140.991 731.7206,-140.9909"/>
</g>
<!-- PlaceOrderModule -->
<g id="node9" class="node">
<title>PlaceOrderModule</title>
<polygon fill="#8dd3c7" stroke="#000000" points="577.0102,-122 574.0102,-126 553.0102,-126 550.0102,-122 454.9898,-122 454.9898,-86 577.0102,-86 577.0102,-122"/>
<text text-anchor="middle" x="516" y="-99.8" font-family="Times,serif" font-size="14.00" fill="#000000">PlaceOrderModule</text>
</g>
<!-- PlaceOrderModule&#45;&gt;MultiStepCheckoutModule -->
<g id="edge8" class="edge">
<title>PlaceOrderModule&#45;&gt;MultiStepCheckoutModule</title>
<path fill="none" stroke="#000000" d="M516,-122.0091C516,-138.0494 516,-159 516,-159 516,-159 713.1493,-159 713.1493,-159"/>
<polygon fill="#000000" stroke="#000000" points="713.1493,-162.5001 723.1493,-159 713.1492,-155.5001 713.1493,-162.5001"/>
</g>
<!-- ReviewSubmitModule -->
<g id="node10" class="node">
<title>ReviewSubmitModule</title>
<polygon fill="#8dd3c7" stroke="#000000" points="436.2674,-122 433.2674,-126 412.2674,-126 409.2674,-122 293.7326,-122 293.7326,-86 436.2674,-86 436.2674,-122"/>
<text text-anchor="middle" x="365" y="-99.8" font-family="Times,serif" font-size="14.00" fill="#000000">ReviewSubmitModule</text>
</g>
<!-- ReviewSubmitModule&#45;&gt;MultiStepCheckoutModule -->
<g id="edge9" class="edge">
<title>ReviewSubmitModule&#45;&gt;MultiStepCheckoutModule</title>
<path fill="none" stroke="#000000" d="M365,-122.2667C365,-140.5552 365,-166 365,-166 365,-166 713.371,-166 713.371,-166"/>
<polygon fill="#000000" stroke="#000000" points="713.371,-169.5001 723.371,-166 713.3709,-162.5001 713.371,-169.5001"/>
</g>
<!-- ShippingAddressModule -->
<g id="node11" class="node">
<title>ShippingAddressModule</title>
<polygon fill="#8dd3c7" stroke="#000000" points="275.9846,-122 272.9846,-126 251.9846,-126 248.9846,-122 120.0154,-122 120.0154,-86 275.9846,-86 275.9846,-122"/>
<text text-anchor="middle" x="198" y="-99.8" font-family="Times,serif" font-size="14.00" fill="#000000">ShippingAddressModule</text>
</g>
<!-- ShippingAddressModule&#45;&gt;MultiStepCheckoutModule -->
<g id="edge10" class="edge">
<title>ShippingAddressModule&#45;&gt;MultiStepCheckoutModule</title>
<path fill="none" stroke="#000000" d="M198,-122.1289C198,-142.5724 198,-173 198,-173 198,-173 713.1821,-173 713.1821,-173"/>
<polygon fill="#000000" stroke="#000000" points="713.1821,-176.5001 723.1821,-173 713.1821,-169.5001 713.1821,-176.5001"/>
</g>
<!-- UrlModule -->
<g id="node12" class="node">
<title>UrlModule</title>
<polygon fill="#8dd3c7" stroke="#000000" points="102.2079,-122 99.2079,-126 78.2079,-126 75.2079,-122 23.7921,-122 23.7921,-86 102.2079,-86 102.2079,-122"/>
<text text-anchor="middle" x="63" y="-99.8" font-family="Times,serif" font-size="14.00" fill="#000000">UrlModule</text>
</g>
<!-- UrlModule&#45;&gt;MultiStepCheckoutModule -->
<g id="edge11" class="edge">
<title>UrlModule&#45;&gt;MultiStepCheckoutModule</title>
<path fill="none" stroke="#000000" d="M63,-122.0109C63,-144.4852 63,-180 63,-180 63,-180 713.2644,-180 713.2644,-180"/>
<polygon fill="#000000" stroke="#000000" points="713.2644,-183.5001 723.2644,-180 713.2643,-176.5001 713.2644,-183.5001"/>
</g>
</g>
</svg>
