<?xml version="1.0" encoding="UTF-8" standalone="no"?>
<!DOCTYPE svg PUBLIC "-//W3C//DTD SVG 1.1//EN"
 "http://www.w3.org/Graphics/SVG/1.1/DTD/svg11.dtd">
<!-- Generated by graphviz version 2.47.3 (20210619.1520)
 -->
<!-- Title: dependencies Pages: 1 -->
<svg width="1607pt" height="247pt"
 viewBox="0.00 0.00 1607.00 246.80" xmlns="http://www.w3.org/2000/svg" xmlns:xlink="http://www.w3.org/1999/xlink">
<g id="graph0" class="graph" transform="scale(1 1) rotate(0) translate(4 242.8)">
<title>dependencies</title>
<polygon fill="white" stroke="transparent" points="-4,4 -4,-242.8 1603,-242.8 1603,4 -4,4"/>
<text text-anchor="middle" x="799.5" y="-8.2" font-family="sans-serif" font-size="14.00">dependencies</text>
<g id="clust1" class="cluster">
<title>cluster_ConfiguratorAttributeSingleSelectionBundleModule</title>
<polygon fill="none" stroke="black" stroke-dasharray="1,5" points="8,-32.8 8,-230.8 1591,-230.8 1591,-32.8 8,-32.8"/>
</g>
<g id="clust2" class="cluster">
<title>cluster_ConfiguratorAttributeSingleSelectionBundleModule_declarations</title>
<polygon fill="none" stroke="black" points="1235,-40.8 1235,-92.8 1583,-92.8 1583,-40.8 1235,-40.8"/>
</g>
<g id="clust5" class="cluster">
<title>cluster_ConfiguratorAttributeSingleSelectionBundleModule_exports</title>
<polygon fill="none" stroke="black" points="371,-170.8 371,-222.8 723,-222.8 723,-170.8 371,-170.8"/>
</g>
<g id="clust4" class="cluster">
<title>cluster_ConfiguratorAttributeSingleSelectionBundleModule_imports</title>
<polygon fill="none" stroke="black" points="16,-40.8 16,-92.8 1227,-92.8 1227,-40.8 16,-40.8"/>
</g>
<!-- ConfiguratorAttributeSingleSelectionBundleComponent -->
<g id="node1" class="node">
<title>ConfiguratorAttributeSingleSelectionBundleComponent</title>
<polygon fill="#ffffb3" stroke="black" points="1575.01,-84.8 1242.99,-84.8 1242.99,-48.8 1575.01,-48.8 1575.01,-84.8"/>
<text text-anchor="middle" x="1409" y="-62.6" font-family="Times,serif" font-size="14.00">ConfiguratorAttributeSingleSelectionBundleComponent</text>
</g>
<!-- ConfiguratorAttributeSingleSelectionBundleModule -->
<g id="node2" class="node">
<title>ConfiguratorAttributeSingleSelectionBundleModule</title>
<polygon fill="#8dd3c7" stroke="black" points="702.23,-149.8 699.23,-153.8 678.23,-153.8 675.23,-149.8 391.77,-149.8 391.77,-113.8 702.23,-113.8 702.23,-149.8"/>
<text text-anchor="middle" x="547" y="-127.6" font-family="Times,serif" font-size="14.00">ConfiguratorAttributeSingleSelectionBundleModule</text>
</g>
<!-- ConfiguratorAttributeSingleSelectionBundleComponent&#45;&gt;ConfiguratorAttributeSingleSelectionBundleModule -->
<g id="edge1" class="edge">
<title>ConfiguratorAttributeSingleSelectionBundleComponent&#45;&gt;ConfiguratorAttributeSingleSelectionBundleModule</title>
<path fill="none" stroke="black" d="M1409,-85.09C1409,-107.01 1409,-140.8 1409,-140.8 1409,-140.8 712.6,-140.8 712.6,-140.8"/>
<polygon fill="black" stroke="black" points="712.6,-137.3 702.6,-140.8 712.6,-144.3 712.6,-137.3"/>
</g>
<!-- ConfiguratorAttributeSingleSelectionBundleComponent  -->
<g id="node10" class="node">
<title>ConfiguratorAttributeSingleSelectionBundleComponent </title>
<polygon fill="#fb8072" stroke="black" points="715.01,-214.8 378.99,-214.8 378.99,-178.8 715.01,-178.8 715.01,-214.8"/>
<text text-anchor="middle" x="547" y="-192.6" font-family="Times,serif" font-size="14.00">ConfiguratorAttributeSingleSelectionBundleComponent </text>
</g>
<!-- ConfiguratorAttributeSingleSelectionBundleModule&#45;&gt;ConfiguratorAttributeSingleSelectionBundleComponent  -->
<g id="edge9" class="edge">
<title>ConfiguratorAttributeSingleSelectionBundleModule&#45;&gt;ConfiguratorAttributeSingleSelectionBundleComponent </title>
<path fill="none" stroke="black" stroke-dasharray="5,2" d="M547,-149.91C547,-149.91 547,-168.79 547,-168.79"/>
<polygon fill="black" stroke="black" points="543.5,-168.79 547,-178.79 550.5,-168.79 543.5,-168.79"/>
</g>
<!-- ConfiguratorAttributeProductCardModule -->
<g id="node3" class="node">
<title>ConfiguratorAttributeProductCardModule</title>
<polygon fill="#8dd3c7" stroke="black" points="1218.67,-84.8 1215.67,-88.8 1194.67,-88.8 1191.67,-84.8 965.33,-84.8 965.33,-48.8 1218.67,-48.8 1218.67,-84.8"/>
<text text-anchor="middle" x="1092" y="-62.6" font-family="Times,serif" font-size="14.00">ConfiguratorAttributeProductCardModule</text>
</g>
<!-- ConfiguratorAttributeProductCardModule&#45;&gt;ConfiguratorAttributeSingleSelectionBundleModule -->
<g id="edge2" class="edge">
<title>ConfiguratorAttributeProductCardModule&#45;&gt;ConfiguratorAttributeSingleSelectionBundleModule</title>
<path fill="none" stroke="black" d="M1092,-84.91C1092,-104.14 1092,-131.8 1092,-131.8 1092,-131.8 712.45,-131.8 712.45,-131.8"/>
<polygon fill="black" stroke="black" points="712.45,-128.3 702.45,-131.8 712.45,-135.3 712.45,-128.3"/>
</g>
<!-- ConfiguratorAttributeQuantityModule -->
<g id="node4" class="node">
<title>ConfiguratorAttributeQuantityModule</title>
<polygon fill="#8dd3c7" stroke="black" points="947.9,-84.8 944.9,-88.8 923.9,-88.8 920.9,-84.8 716.1,-84.8 716.1,-48.8 947.9,-48.8 947.9,-84.8"/>
<text text-anchor="middle" x="832" y="-62.6" font-family="Times,serif" font-size="14.00">ConfiguratorAttributeQuantityModule</text>
</g>
<!-- ConfiguratorAttributeQuantityModule&#45;&gt;ConfiguratorAttributeSingleSelectionBundleModule -->
<g id="edge3" class="edge">
<title>ConfiguratorAttributeQuantityModule&#45;&gt;ConfiguratorAttributeSingleSelectionBundleModule</title>
<path fill="none" stroke="black" d="M832,-84.83C832,-101.2 832,-122.8 832,-122.8 832,-122.8 712.43,-122.8 712.43,-122.8"/>
<polygon fill="black" stroke="black" points="712.43,-119.3 702.43,-122.8 712.43,-126.3 712.43,-119.3"/>
</g>
<!-- ConfiguratorPriceModule -->
<g id="node5" class="node">
<title>ConfiguratorPriceModule</title>
<polygon fill="#8dd3c7" stroke="black" points="698.13,-84.8 695.13,-88.8 674.13,-88.8 671.13,-84.8 537.87,-84.8 537.87,-48.8 698.13,-48.8 698.13,-84.8"/>
<text text-anchor="middle" x="618" y="-62.6" font-family="Times,serif" font-size="14.00">ConfiguratorPriceModule</text>
</g>
<!-- ConfiguratorPriceModule&#45;&gt;ConfiguratorAttributeSingleSelectionBundleModule -->
<g id="edge4" class="edge">
<title>ConfiguratorPriceModule&#45;&gt;ConfiguratorAttributeSingleSelectionBundleModule</title>
<path fill="none" stroke="black" d="M618,-84.91C618,-84.91 618,-103.79 618,-103.79"/>
<polygon fill="black" stroke="black" points="614.5,-103.79 618,-113.79 621.5,-103.79 614.5,-103.79"/>
</g>
<!-- I18nModule -->
<g id="node6" class="node">
<title>I18nModule</title>
<polygon fill="#8dd3c7" stroke="black" points="519.71,-84.8 516.71,-88.8 495.71,-88.8 492.71,-84.8 434.29,-84.8 434.29,-48.8 519.71,-48.8 519.71,-84.8"/>
<text text-anchor="middle" x="477" y="-62.6" font-family="Times,serif" font-size="14.00">I18nModule</text>
</g>
<!-- I18nModule&#45;&gt;ConfiguratorAttributeSingleSelectionBundleModule -->
<g id="edge5" class="edge">
<title>I18nModule&#45;&gt;ConfiguratorAttributeSingleSelectionBundleModule</title>
<path fill="none" stroke="black" d="M477,-84.91C477,-84.91 477,-103.79 477,-103.79"/>
<polygon fill="black" stroke="black" points="473.5,-103.79 477,-113.79 480.5,-103.79 473.5,-103.79"/>
</g>
<!-- ItemCounterModule -->
<g id="node7" class="node">
<title>ItemCounterModule</title>
<polygon fill="#8dd3c7" stroke="black" points="416.31,-84.8 413.31,-88.8 392.31,-88.8 389.31,-84.8 285.69,-84.8 285.69,-48.8 416.31,-48.8 416.31,-84.8"/>
<text text-anchor="middle" x="351" y="-62.6" font-family="Times,serif" font-size="14.00">ItemCounterModule</text>
</g>
<!-- ItemCounterModule&#45;&gt;ConfiguratorAttributeSingleSelectionBundleModule -->
<g id="edge6" class="edge">
<title>ItemCounterModule&#45;&gt;ConfiguratorAttributeSingleSelectionBundleModule</title>
<path fill="none" stroke="black" d="M403.9,-84.91C403.9,-84.91 403.9,-103.79 403.9,-103.79"/>
<polygon fill="black" stroke="black" points="400.4,-103.79 403.9,-113.79 407.4,-103.79 400.4,-103.79"/>
</g>
<!-- KeyboardFocusModule -->
<g id="node8" class="node">
<title>KeyboardFocusModule</title>
<polygon fill="#8dd3c7" stroke="black" points="268.19,-84.8 265.19,-88.8 244.19,-88.8 241.19,-84.8 119.81,-84.8 119.81,-48.8 268.19,-48.8 268.19,-84.8"/>
<text text-anchor="middle" x="194" y="-62.6" font-family="Times,serif" font-size="14.00">KeyboardFocusModule</text>
</g>
<!-- KeyboardFocusModule&#45;&gt;ConfiguratorAttributeSingleSelectionBundleModule -->
<g id="edge7" class="edge">
<title>KeyboardFocusModule&#45;&gt;ConfiguratorAttributeSingleSelectionBundleModule</title>
<path fill="none" stroke="black" d="M194,-84.82C194,-102.17 194,-125.8 194,-125.8 194,-125.8 381.66,-125.8 381.66,-125.8"/>
<polygon fill="black" stroke="black" points="381.66,-129.3 391.66,-125.8 381.66,-122.3 381.66,-129.3"/>
</g>
<!-- UrlModule -->
<g id="node9" class="node">
<title>UrlModule</title>
<polygon fill="#8dd3c7" stroke="black" points="102.21,-84.8 99.21,-88.8 78.21,-88.8 75.21,-84.8 23.79,-84.8 23.79,-48.8 102.21,-48.8 102.21,-84.8"/>
<text text-anchor="middle" x="63" y="-62.6" font-family="Times,serif" font-size="14.00">UrlModule</text>
</g>
<!-- UrlModule&#45;&gt;ConfiguratorAttributeSingleSelectionBundleModule -->
<g id="edge8" class="edge">
<title>UrlModule&#45;&gt;ConfiguratorAttributeSingleSelectionBundleModule</title>
<path fill="none" stroke="black" d="M63,-85.08C63,-106.12 63,-137.8 63,-137.8 63,-137.8 381.53,-137.8 381.53,-137.8"/>
<polygon fill="black" stroke="black" points="381.53,-141.3 391.53,-137.8 381.53,-134.3 381.53,-141.3"/>
</g>
</g>
</svg>
