<?xml version="1.0" encoding="UTF-8" standalone="no"?>
<!DOCTYPE svg PUBLIC "-//W3C//DTD SVG 1.1//EN"
 "http://www.w3.org/Graphics/SVG/1.1/DTD/svg11.dtd">
<!-- Generated by graphviz version 2.47.0 (20210316.0004)
 -->
<!-- Title: dependencies Pages: 1 -->
<svg width="1607pt" height="284pt"
 viewBox="0.00 0.00 1607.00 284.00" xmlns="http://www.w3.org/2000/svg" xmlns:xlink="http://www.w3.org/1999/xlink">
<g id="graph0" class="graph" transform="scale(1 1) rotate(0) translate(4 280)">
<title>dependencies</title>
<polygon fill="white" stroke="transparent" points="-4,4 -4,-280 1603,-280 1603,4 -4,4"/>
<text text-anchor="start" x="778.51" y="-42.4" font-family="sans-serif" font-weight="bold" font-size="14.00">Legend</text>
<polygon fill="#ffffb3" stroke="transparent" points="565.5,-10 565.5,-30 585.5,-30 585.5,-10 565.5,-10"/>
<text text-anchor="start" x="589.13" y="-15.4" font-family="sans-serif" font-size="14.00"> &#160;Declarations</text>
<polygon fill="#8dd3c7" stroke="transparent" points="678.5,-10 678.5,-30 698.5,-30 698.5,-10 678.5,-10"/>
<text text-anchor="start" x="702.23" y="-15.4" font-family="sans-serif" font-size="14.00"> &#160;Module</text>
<polygon fill="#80b1d3" stroke="transparent" points="764.5,-10 764.5,-30 784.5,-30 784.5,-10 764.5,-10"/>
<text text-anchor="start" x="788.28" y="-15.4" font-family="sans-serif" font-size="14.00"> &#160;Bootstrap</text>
<polygon fill="#fdb462" stroke="transparent" points="861.5,-10 861.5,-30 881.5,-30 881.5,-10 861.5,-10"/>
<text text-anchor="start" x="885.17" y="-15.4" font-family="sans-serif" font-size="14.00"> &#160;Providers</text>
<polygon fill="#fb8072" stroke="transparent" points="957.5,-10 957.5,-30 977.5,-30 977.5,-10 957.5,-10"/>
<text text-anchor="start" x="981.23" y="-15.4" font-family="sans-serif" font-size="14.00"> &#160;Exports</text>
<g id="clust1" class="cluster">
<title>cluster_ConfiguratorAttributeSingleSelectionBundleModule</title>
<polygon fill="none" stroke="black" stroke-dasharray="1,5" points="8,-70 8,-268 1591,-268 1591,-70 8,-70"/>
</g>
<g id="clust2" class="cluster">
<title>cluster_ConfiguratorAttributeSingleSelectionBundleModule_declarations</title>
<polygon fill="none" stroke="black" points="1235,-78 1235,-130 1583,-130 1583,-78 1235,-78"/>
</g>
<g id="clust4" class="cluster">
<title>cluster_ConfiguratorAttributeSingleSelectionBundleModule_imports</title>
<polygon fill="none" stroke="black" points="16,-78 16,-130 1227,-130 1227,-78 16,-78"/>
</g>
<g id="clust5" class="cluster">
<title>cluster_ConfiguratorAttributeSingleSelectionBundleModule_exports</title>
<polygon fill="none" stroke="black" points="371,-208 371,-260 723,-260 723,-208 371,-208"/>
</g>
<!-- ConfiguratorAttributeSingleSelectionBundleComponent -->
<g id="node1" class="node">
<title>ConfiguratorAttributeSingleSelectionBundleComponent</title>
<polygon fill="#ffffb3" stroke="black" points="1575.01,-122 1242.99,-122 1242.99,-86 1575.01,-86 1575.01,-122"/>
<text text-anchor="middle" x="1409" y="-99.8" font-family="Times,serif" font-size="14.00">ConfiguratorAttributeSingleSelectionBundleComponent</text>
</g>
<!-- ConfiguratorAttributeSingleSelectionBundleModule -->
<g id="node2" class="node">
<title>ConfiguratorAttributeSingleSelectionBundleModule</title>
<polygon fill="#8dd3c7" stroke="black" points="702.23,-187 699.23,-191 678.23,-191 675.23,-187 391.77,-187 391.77,-151 702.23,-151 702.23,-187"/>
<text text-anchor="middle" x="547" y="-164.8" font-family="Times,serif" font-size="14.00">ConfiguratorAttributeSingleSelectionBundleModule</text>
</g>
<!-- ConfiguratorAttributeSingleSelectionBundleComponent&#45;&gt;ConfiguratorAttributeSingleSelectionBundleModule -->
<g id="edge1" class="edge">
<title>ConfiguratorAttributeSingleSelectionBundleComponent&#45;&gt;ConfiguratorAttributeSingleSelectionBundleModule</title>
<path fill="none" stroke="black" d="M1409,-122.29C1409,-144.21 1409,-178 1409,-178 1409,-178 712.6,-178 712.6,-178"/>
<polygon fill="black" stroke="black" points="712.6,-174.5 702.6,-178 712.6,-181.5 712.6,-174.5"/>
</g>
<!-- ConfiguratorAttributeSingleSelectionBundleComponent  -->
<g id="node10" class="node">
<title>ConfiguratorAttributeSingleSelectionBundleComponent </title>
<polygon fill="#fb8072" stroke="black" points="715.01,-252 378.99,-252 378.99,-216 715.01,-216 715.01,-252"/>
<text text-anchor="middle" x="547" y="-229.8" font-family="Times,serif" font-size="14.00">ConfiguratorAttributeSingleSelectionBundleComponent </text>
</g>
<!-- ConfiguratorAttributeSingleSelectionBundleModule&#45;&gt;ConfiguratorAttributeSingleSelectionBundleComponent  -->
<g id="edge9" class="edge">
<title>ConfiguratorAttributeSingleSelectionBundleModule&#45;&gt;ConfiguratorAttributeSingleSelectionBundleComponent </title>
<path fill="none" stroke="black" stroke-dasharray="5,2" d="M547,-187.11C547,-187.11 547,-205.99 547,-205.99"/>
<polygon fill="black" stroke="black" points="543.5,-205.99 547,-215.99 550.5,-205.99 543.5,-205.99"/>
</g>
<!-- ConfiguratorAttributeProductCardModule -->
<g id="node3" class="node">
<title>ConfiguratorAttributeProductCardModule</title>
<polygon fill="#8dd3c7" stroke="black" points="1218.67,-122 1215.67,-126 1194.67,-126 1191.67,-122 965.33,-122 965.33,-86 1218.67,-86 1218.67,-122"/>
<text text-anchor="middle" x="1092" y="-99.8" font-family="Times,serif" font-size="14.00">ConfiguratorAttributeProductCardModule</text>
</g>
<!-- ConfiguratorAttributeProductCardModule&#45;&gt;ConfiguratorAttributeSingleSelectionBundleModule -->
<g id="edge2" class="edge">
<title>ConfiguratorAttributeProductCardModule&#45;&gt;ConfiguratorAttributeSingleSelectionBundleModule</title>
<path fill="none" stroke="black" d="M1092,-122.11C1092,-141.34 1092,-169 1092,-169 1092,-169 712.45,-169 712.45,-169"/>
<polygon fill="black" stroke="black" points="712.45,-165.5 702.45,-169 712.45,-172.5 712.45,-165.5"/>
</g>
<!-- ConfiguratorAttributeQuantityModule -->
<g id="node4" class="node">
<title>ConfiguratorAttributeQuantityModule</title>
<polygon fill="#8dd3c7" stroke="black" points="947.9,-122 944.9,-126 923.9,-126 920.9,-122 716.1,-122 716.1,-86 947.9,-86 947.9,-122"/>
<text text-anchor="middle" x="832" y="-99.8" font-family="Times,serif" font-size="14.00">ConfiguratorAttributeQuantityModule</text>
</g>
<!-- ConfiguratorAttributeQuantityModule&#45;&gt;ConfiguratorAttributeSingleSelectionBundleModule -->
<g id="edge3" class="edge">
<title>ConfiguratorAttributeQuantityModule&#45;&gt;ConfiguratorAttributeSingleSelectionBundleModule</title>
<path fill="none" stroke="black" d="M832,-122.03C832,-138.4 832,-160 832,-160 832,-160 712.43,-160 712.43,-160"/>
<polygon fill="black" stroke="black" points="712.43,-156.5 702.43,-160 712.43,-163.5 712.43,-156.5"/>
</g>
<!-- ConfiguratorPriceModule -->
<g id="node5" class="node">
<title>ConfiguratorPriceModule</title>
<polygon fill="#8dd3c7" stroke="black" points="698.13,-122 695.13,-126 674.13,-126 671.13,-122 537.87,-122 537.87,-86 698.13,-86 698.13,-122"/>
<text text-anchor="middle" x="618" y="-99.8" font-family="Times,serif" font-size="14.00">ConfiguratorPriceModule</text>
</g>
<!-- ConfiguratorPriceModule&#45;&gt;ConfiguratorAttributeSingleSelectionBundleModule -->
<g id="edge4" class="edge">
<title>ConfiguratorPriceModule&#45;&gt;ConfiguratorAttributeSingleSelectionBundleModule</title>
<path fill="none" stroke="black" d="M618,-122.11C618,-122.11 618,-140.99 618,-140.99"/>
<polygon fill="black" stroke="black" points="614.5,-140.99 618,-150.99 621.5,-140.99 614.5,-140.99"/>
</g>
<!-- I18nModule -->
<g id="node6" class="node">
<title>I18nModule</title>
<polygon fill="#8dd3c7" stroke="black" points="519.71,-122 516.71,-126 495.71,-126 492.71,-122 434.29,-122 434.29,-86 519.71,-86 519.71,-122"/>
<text text-anchor="middle" x="477" y="-99.8" font-family="Times,serif" font-size="14.00">I18nModule</text>
</g>
<!-- I18nModule&#45;&gt;ConfiguratorAttributeSingleSelectionBundleModule -->
<g id="edge5" class="edge">
<title>I18nModule&#45;&gt;ConfiguratorAttributeSingleSelectionBundleModule</title>
<path fill="none" stroke="black" d="M477,-122.11C477,-122.11 477,-140.99 477,-140.99"/>
<polygon fill="black" stroke="black" points="473.5,-140.99 477,-150.99 480.5,-140.99 473.5,-140.99"/>
</g>
<!-- ItemCounterModule -->
<g id="node7" class="node">
<title>ItemCounterModule</title>
<polygon fill="#8dd3c7" stroke="black" points="416.31,-122 413.31,-126 392.31,-126 389.31,-122 285.69,-122 285.69,-86 416.31,-86 416.31,-122"/>
<text text-anchor="middle" x="351" y="-99.8" font-family="Times,serif" font-size="14.00">ItemCounterModule</text>
</g>
<!-- ItemCounterModule&#45;&gt;ConfiguratorAttributeSingleSelectionBundleModule -->
<g id="edge6" class="edge">
<title>ItemCounterModule&#45;&gt;ConfiguratorAttributeSingleSelectionBundleModule</title>
<path fill="none" stroke="black" d="M403.9,-122.11C403.9,-122.11 403.9,-140.99 403.9,-140.99"/>
<polygon fill="black" stroke="black" points="400.4,-140.99 403.9,-150.99 407.4,-140.99 400.4,-140.99"/>
</g>
<!-- KeyboardFocusModule -->
<g id="node8" class="node">
<title>KeyboardFocusModule</title>
<polygon fill="#8dd3c7" stroke="black" points="268.19,-122 265.19,-126 244.19,-126 241.19,-122 119.81,-122 119.81,-86 268.19,-86 268.19,-122"/>
<text text-anchor="middle" x="194" y="-99.8" font-family="Times,serif" font-size="14.00">KeyboardFocusModule</text>
</g>
<!-- KeyboardFocusModule&#45;&gt;ConfiguratorAttributeSingleSelectionBundleModule -->
<g id="edge7" class="edge">
<title>KeyboardFocusModule&#45;&gt;ConfiguratorAttributeSingleSelectionBundleModule</title>
<path fill="none" stroke="black" d="M194,-122.02C194,-139.37 194,-163 194,-163 194,-163 381.66,-163 381.66,-163"/>
<polygon fill="black" stroke="black" points="381.66,-166.5 391.66,-163 381.66,-159.5 381.66,-166.5"/>
</g>
<!-- UrlModule -->
<g id="node9" class="node">
<title>UrlModule</title>
<polygon fill="#8dd3c7" stroke="black" points="102.21,-122 99.21,-126 78.21,-126 75.21,-122 23.79,-122 23.79,-86 102.21,-86 102.21,-122"/>
<text text-anchor="middle" x="63" y="-99.8" font-family="Times,serif" font-size="14.00">UrlModule</text>
</g>
<!-- UrlModule&#45;&gt;ConfiguratorAttributeSingleSelectionBundleModule -->
<g id="edge8" class="edge">
<title>UrlModule&#45;&gt;ConfiguratorAttributeSingleSelectionBundleModule</title>
<path fill="none" stroke="black" d="M63,-122.28C63,-143.32 63,-175 63,-175 63,-175 381.53,-175 381.53,-175"/>
<polygon fill="black" stroke="black" points="381.53,-178.5 391.53,-175 381.53,-171.5 381.53,-178.5"/>
</g>
</g>
</svg>
