<?xml version="1.0" encoding="UTF-8" standalone="no"?>
<!DOCTYPE svg PUBLIC "-//W3C//DTD SVG 1.1//EN"
 "http://www.w3.org/Graphics/SVG/1.1/DTD/svg11.dtd">
<!-- Generated by graphviz version 2.47.3 (20210619.1520)
 -->
<!-- Title: dependencies Pages: 1 -->
<svg width="1607pt" height="247pt"
 viewBox="0.00 0.00 1607.00 246.80" xmlns="http://www.w3.org/2000/svg" xmlns:xlink="http://www.w3.org/1999/xlink">
<g id="graph0" class="graph" transform="scale(1 1) rotate(0) translate(4 242.8)">
<title>dependencies</title>
<polygon fill="white" stroke="transparent" points="-4,4 -4,-242.8 1603,-242.8 1603,4 -4,4"/>
<text text-anchor="middle" x="799.5" y="-8.2" font-family="sans-serif" font-size="14.00">dependencies</text>
<g id="clust1" class="cluster">
<title>cluster_ConfiguratorAttributeSingleSelectionBundleModule</title>
<polygon fill="none" stroke="black" stroke-dasharray="1,5" points="8,-32.8 8,-230.8 1591,-230.8 1591,-32.8 8,-32.8"/>
</g>
<g id="clust4" class="cluster">
<title>cluster_ConfiguratorAttributeSingleSelectionBundleModule_imports</title>
<polygon fill="none" stroke="black" points="372,-40.8 372,-92.8 1583,-92.8 1583,-40.8 372,-40.8"/>
</g>
<g id="clust2" class="cluster">
<title>cluster_ConfiguratorAttributeSingleSelectionBundleModule_declarations</title>
<polygon fill="none" stroke="black" points="16,-40.8 16,-92.8 364,-92.8 364,-40.8 16,-40.8"/>
</g>
<g id="clust5" class="cluster">
<title>cluster_ConfiguratorAttributeSingleSelectionBundleModule_exports</title>
<polygon fill="none" stroke="black" points="594,-170.8 594,-222.8 946,-222.8 946,-170.8 594,-170.8"/>
</g>
<!-- ConfiguratorAttributeSingleSelectionBundleComponent -->
<g id="node1" class="node">
<title>ConfiguratorAttributeSingleSelectionBundleComponent</title>
<polygon fill="#ffffb3" stroke="black" points="356.01,-84.8 23.99,-84.8 23.99,-48.8 356.01,-48.8 356.01,-84.8"/>
<text text-anchor="middle" x="190" y="-62.6" font-family="Times,serif" font-size="14.00">ConfiguratorAttributeSingleSelectionBundleComponent</text>
</g>
<!-- ConfiguratorAttributeSingleSelectionBundleModule -->
<g id="node2" class="node">
<title>ConfiguratorAttributeSingleSelectionBundleModule</title>
<polygon fill="#8dd3c7" stroke="black" points="925.23,-149.8 922.23,-153.8 901.23,-153.8 898.23,-149.8 614.77,-149.8 614.77,-113.8 925.23,-113.8 925.23,-149.8"/>
<text text-anchor="middle" x="770" y="-127.6" font-family="Times,serif" font-size="14.00">ConfiguratorAttributeSingleSelectionBundleModule</text>
</g>
<!-- ConfiguratorAttributeSingleSelectionBundleComponent&#45;&gt;ConfiguratorAttributeSingleSelectionBundleModule -->
<g id="edge1" class="edge">
<title>ConfiguratorAttributeSingleSelectionBundleComponent&#45;&gt;ConfiguratorAttributeSingleSelectionBundleModule</title>
<path fill="none" stroke="black" d="M190,-85.08C190,-106.12 190,-137.8 190,-137.8 190,-137.8 604.57,-137.8 604.57,-137.8"/>
<polygon fill="black" stroke="black" points="604.57,-141.3 614.57,-137.8 604.57,-134.3 604.57,-141.3"/>
</g>
<!-- ConfiguratorAttributeSingleSelectionBundleComponent  -->
<g id="node10" class="node">
<title>ConfiguratorAttributeSingleSelectionBundleComponent </title>
<polygon fill="#fb8072" stroke="black" points="938.01,-214.8 601.99,-214.8 601.99,-178.8 938.01,-178.8 938.01,-214.8"/>
<text text-anchor="middle" x="770" y="-192.6" font-family="Times,serif" font-size="14.00">ConfiguratorAttributeSingleSelectionBundleComponent </text>
</g>
<!-- ConfiguratorAttributeSingleSelectionBundleModule&#45;&gt;ConfiguratorAttributeSingleSelectionBundleComponent  -->
<g id="edge9" class="edge">
<title>ConfiguratorAttributeSingleSelectionBundleModule&#45;&gt;ConfiguratorAttributeSingleSelectionBundleComponent </title>
<path fill="none" stroke="black" stroke-dasharray="5,2" d="M770,-149.91C770,-149.91 770,-168.79 770,-168.79"/>
<polygon fill="black" stroke="black" points="766.5,-168.79 770,-178.79 773.5,-168.79 766.5,-168.79"/>
</g>
<!-- ConfiguratorAttributeProductCardModule -->
<g id="node3" class="node">
<title>ConfiguratorAttributeProductCardModule</title>
<polygon fill="#8dd3c7" stroke="black" points="1574.67,-84.8 1571.67,-88.8 1550.67,-88.8 1547.67,-84.8 1321.33,-84.8 1321.33,-48.8 1574.67,-48.8 1574.67,-84.8"/>
<text text-anchor="middle" x="1448" y="-62.6" font-family="Times,serif" font-size="14.00">ConfiguratorAttributeProductCardModule</text>
</g>
<!-- ConfiguratorAttributeProductCardModule&#45;&gt;ConfiguratorAttributeSingleSelectionBundleModule -->
<g id="edge2" class="edge">
<title>ConfiguratorAttributeProductCardModule&#45;&gt;ConfiguratorAttributeSingleSelectionBundleModule</title>
<path fill="none" stroke="black" d="M1448,-85.08C1448,-106.12 1448,-137.8 1448,-137.8 1448,-137.8 935.55,-137.8 935.55,-137.8"/>
<polygon fill="black" stroke="black" points="935.55,-134.3 925.55,-137.8 935.55,-141.3 935.55,-134.3"/>
</g>
<!-- ConfiguratorAttributeQuantityModule -->
<g id="node4" class="node">
<title>ConfiguratorAttributeQuantityModule</title>
<polygon fill="#8dd3c7" stroke="black" points="1303.9,-84.8 1300.9,-88.8 1279.9,-88.8 1276.9,-84.8 1072.1,-84.8 1072.1,-48.8 1303.9,-48.8 1303.9,-84.8"/>
<text text-anchor="middle" x="1188" y="-62.6" font-family="Times,serif" font-size="14.00">ConfiguratorAttributeQuantityModule</text>
</g>
<!-- ConfiguratorAttributeQuantityModule&#45;&gt;ConfiguratorAttributeSingleSelectionBundleModule -->
<g id="edge3" class="edge">
<title>ConfiguratorAttributeQuantityModule&#45;&gt;ConfiguratorAttributeSingleSelectionBundleModule</title>
<path fill="none" stroke="black" d="M1188,-84.82C1188,-102.17 1188,-125.8 1188,-125.8 1188,-125.8 935.35,-125.8 935.35,-125.8"/>
<polygon fill="black" stroke="black" points="935.35,-122.3 925.35,-125.8 935.35,-129.3 935.35,-122.3"/>
</g>
<!-- ConfiguratorPriceModule -->
<g id="node5" class="node">
<title>ConfiguratorPriceModule</title>
<polygon fill="#8dd3c7" stroke="black" points="1054.13,-84.8 1051.13,-88.8 1030.13,-88.8 1027.13,-84.8 893.87,-84.8 893.87,-48.8 1054.13,-48.8 1054.13,-84.8"/>
<text text-anchor="middle" x="974" y="-62.6" font-family="Times,serif" font-size="14.00">ConfiguratorPriceModule</text>
</g>
<!-- ConfiguratorPriceModule&#45;&gt;ConfiguratorAttributeSingleSelectionBundleModule -->
<g id="edge4" class="edge">
<title>ConfiguratorPriceModule&#45;&gt;ConfiguratorAttributeSingleSelectionBundleModule</title>
<path fill="none" stroke="black" d="M909.52,-84.91C909.52,-84.91 909.52,-103.79 909.52,-103.79"/>
<polygon fill="black" stroke="black" points="906.02,-103.79 909.52,-113.79 913.02,-103.79 906.02,-103.79"/>
</g>
<!-- I18nModule -->
<g id="node6" class="node">
<title>I18nModule</title>
<polygon fill="#8dd3c7" stroke="black" points="875.71,-84.8 872.71,-88.8 851.71,-88.8 848.71,-84.8 790.29,-84.8 790.29,-48.8 875.71,-48.8 875.71,-84.8"/>
<text text-anchor="middle" x="833" y="-62.6" font-family="Times,serif" font-size="14.00">I18nModule</text>
</g>
<!-- I18nModule&#45;&gt;ConfiguratorAttributeSingleSelectionBundleModule -->
<g id="edge5" class="edge">
<title>I18nModule&#45;&gt;ConfiguratorAttributeSingleSelectionBundleModule</title>
<path fill="none" stroke="black" d="M833,-84.91C833,-84.91 833,-103.79 833,-103.79"/>
<polygon fill="black" stroke="black" points="829.5,-103.79 833,-113.79 836.5,-103.79 829.5,-103.79"/>
</g>
<!-- ItemCounterModule -->
<g id="node7" class="node">
<title>ItemCounterModule</title>
<polygon fill="#8dd3c7" stroke="black" points="772.31,-84.8 769.31,-88.8 748.31,-88.8 745.31,-84.8 641.69,-84.8 641.69,-48.8 772.31,-48.8 772.31,-84.8"/>
<text text-anchor="middle" x="707" y="-62.6" font-family="Times,serif" font-size="14.00">ItemCounterModule</text>
</g>
<!-- ItemCounterModule&#45;&gt;ConfiguratorAttributeSingleSelectionBundleModule -->
<g id="edge6" class="edge">
<title>ItemCounterModule&#45;&gt;ConfiguratorAttributeSingleSelectionBundleModule</title>
<path fill="none" stroke="black" d="M707,-84.91C707,-84.91 707,-103.79 707,-103.79"/>
<polygon fill="black" stroke="black" points="703.5,-103.79 707,-113.79 710.5,-103.79 703.5,-103.79"/>
</g>
<!-- KeyboardFocusModule -->
<g id="node8" class="node">
<title>KeyboardFocusModule</title>
<polygon fill="#8dd3c7" stroke="black" points="624.19,-84.8 621.19,-88.8 600.19,-88.8 597.19,-84.8 475.81,-84.8 475.81,-48.8 624.19,-48.8 624.19,-84.8"/>
<text text-anchor="middle" x="550" y="-62.6" font-family="Times,serif" font-size="14.00">KeyboardFocusModule</text>
</g>
<!-- KeyboardFocusModule&#45;&gt;ConfiguratorAttributeSingleSelectionBundleModule -->
<g id="edge7" class="edge">
<title>KeyboardFocusModule&#45;&gt;ConfiguratorAttributeSingleSelectionBundleModule</title>
<path fill="none" stroke="black" d="M619.37,-84.91C619.37,-84.91 619.37,-103.79 619.37,-103.79"/>
<polygon fill="black" stroke="black" points="615.87,-103.79 619.37,-113.79 622.87,-103.79 615.87,-103.79"/>
</g>
<!-- UrlModule -->
<g id="node9" class="node">
<title>UrlModule</title>
<polygon fill="#8dd3c7" stroke="black" points="458.21,-84.8 455.21,-88.8 434.21,-88.8 431.21,-84.8 379.79,-84.8 379.79,-48.8 458.21,-48.8 458.21,-84.8"/>
<text text-anchor="middle" x="419" y="-62.6" font-family="Times,serif" font-size="14.00">UrlModule</text>
</g>
<!-- UrlModule&#45;&gt;ConfiguratorAttributeSingleSelectionBundleModule -->
<g id="edge8" class="edge">
<title>UrlModule&#45;&gt;ConfiguratorAttributeSingleSelectionBundleModule</title>
<path fill="none" stroke="black" d="M419,-84.82C419,-102.17 419,-125.8 419,-125.8 419,-125.8 604.77,-125.8 604.77,-125.8"/>
<polygon fill="black" stroke="black" points="604.77,-129.3 614.77,-125.8 604.77,-122.3 604.77,-129.3"/>
</g>
</g>
</svg>
