<?xml version="1.0" encoding="UTF-8" standalone="no"?>
<!DOCTYPE svg PUBLIC "-//W3C//DTD SVG 1.1//EN"
 "http://www.w3.org/Graphics/SVG/1.1/DTD/svg11.dtd">
<!-- Generated by graphviz version 2.40.1 (20161225.0304)
 -->
<!-- Title: dependencies Pages: 1 -->
<svg width="748pt" height="284pt"
 viewBox="0.00 0.00 748.00 284.00" xmlns="http://www.w3.org/2000/svg" xmlns:xlink="http://www.w3.org/1999/xlink">
<g id="graph0" class="graph" transform="scale(1 1) rotate(0) translate(4 280)">
<title>dependencies</title>
<polygon fill="#ffffff" stroke="transparent" points="-4,4 -4,-280 744,-280 744,4 -4,4"/>
<text text-anchor="start" x="349.0091" y="-42.4" font-family="sans-serif" font-weight="bold" font-size="14.00" fill="#000000">Legend</text>
<polygon fill="#ffffb3" stroke="transparent" points="136,-10 136,-30 156,-30 156,-10 136,-10"/>
<text text-anchor="start" x="159.629" y="-15.4" font-family="sans-serif" font-size="14.00" fill="#000000"> &#160;Declarations</text>
<polygon fill="#8dd3c7" stroke="transparent" points="249,-10 249,-30 269,-30 269,-10 249,-10"/>
<text text-anchor="start" x="272.7251" y="-15.4" font-family="sans-serif" font-size="14.00" fill="#000000"> &#160;Module</text>
<polygon fill="#80b1d3" stroke="transparent" points="335,-10 335,-30 355,-30 355,-10 335,-10"/>
<text text-anchor="start" x="358.7812" y="-15.4" font-family="sans-serif" font-size="14.00" fill="#000000"> &#160;Bootstrap</text>
<polygon fill="#fdb462" stroke="transparent" points="432,-10 432,-30 452,-30 452,-10 432,-10"/>
<text text-anchor="start" x="455.6732" y="-15.4" font-family="sans-serif" font-size="14.00" fill="#000000"> &#160;Providers</text>
<polygon fill="#fb8072" stroke="transparent" points="528,-10 528,-30 548,-30 548,-10 528,-10"/>
<text text-anchor="start" x="551.7258" y="-15.4" font-family="sans-serif" font-size="14.00" fill="#000000"> &#160;Exports</text>
<g id="clust1" class="cluster">
<title>cluster_UserComponentModule</title>
<polygon fill="none" stroke="#000000" stroke-dasharray="1,5" points="8,-70 8,-268 732,-268 732,-70 8,-70"/>
</g>
<g id="clust2" class="cluster">
<title>cluster_UserComponentModule_declarations</title>
<polygon fill="none" stroke="#000000" points="396,-78 396,-130 724,-130 724,-78 396,-78"/>
</g>
<g id="clust5" class="cluster">
<title>cluster_UserComponentModule_imports</title>
<polygon fill="none" stroke="#000000" points="16,-78 16,-130 388,-130 388,-78 16,-78"/>
</g>
<g id="clust6" class="cluster">
<title>cluster_UserComponentModule_exports</title>
<polygon fill="none" stroke="#000000" points="157,-208 157,-260 493,-260 493,-208 157,-208"/>
</g>
<!-- RegisterComponent -->
<g id="node1" class="node">
<title>RegisterComponent</title>
<polygon fill="#ffffb3" stroke="#000000" points="715.9846,-122 588.0154,-122 588.0154,-86 715.9846,-86 715.9846,-122"/>
<text text-anchor="middle" x="652" y="-99.8" font-family="Times,serif" font-size="14.00" fill="#000000">RegisterComponent</text>
</g>
<!-- UserComponentModule -->
<g id="node3" class="node">
<title>UserComponentModule</title>
<polygon fill="#8dd3c7" stroke="#000000" points="409.8089,-187 406.8089,-191 385.8089,-191 382.8089,-187 258.1911,-187 258.1911,-151 409.8089,-151 409.8089,-187"/>
<text text-anchor="middle" x="334" y="-164.8" font-family="Times,serif" font-size="14.00" fill="#000000">UserComponentModule</text>
</g>
<!-- RegisterComponent&#45;&gt;UserComponentModule -->
<g id="edge1" class="edge">
<title>RegisterComponent&#45;&gt;UserComponentModule</title>
<path fill="none" stroke="#000000" d="M652,-122.1061C652,-141.3391 652,-169 652,-169 652,-169 419.7649,-169 419.7649,-169"/>
<polygon fill="#000000" stroke="#000000" points="419.7649,-165.5001 409.7649,-169 419.7649,-172.5001 419.7649,-165.5001"/>
</g>
<!-- ResetPasswordComponent -->
<g id="node2" class="node">
<title>ResetPasswordComponent</title>
<polygon fill="#ffffb3" stroke="#000000" points="570.087,-122 403.913,-122 403.913,-86 570.087,-86 570.087,-122"/>
<text text-anchor="middle" x="487" y="-99.8" font-family="Times,serif" font-size="14.00" fill="#000000">ResetPasswordComponent</text>
</g>
<!-- ResetPasswordComponent&#45;&gt;UserComponentModule -->
<g id="edge2" class="edge">
<title>ResetPasswordComponent&#45;&gt;UserComponentModule</title>
<path fill="none" stroke="#000000" d="M403.8476,-104C396.7616,-104 392.2265,-104 392.2265,-104 392.2265,-104 392.2265,-140.8939 392.2265,-140.8939"/>
<polygon fill="#000000" stroke="#000000" points="388.7266,-140.8938 392.2265,-150.8939 395.7266,-140.8939 388.7266,-140.8938"/>
</g>
<!-- RegisterComponent  -->
<g id="node7" class="node">
<title>RegisterComponent </title>
<polygon fill="#fb8072" stroke="#000000" points="484.9855,-252 353.0145,-252 353.0145,-216 484.9855,-216 484.9855,-252"/>
<text text-anchor="middle" x="419" y="-229.8" font-family="Times,serif" font-size="14.00" fill="#000000">RegisterComponent </text>
</g>
<!-- UserComponentModule&#45;&gt;RegisterComponent  -->
<g id="edge6" class="edge">
<title>UserComponentModule&#45;&gt;RegisterComponent </title>
<path fill="none" stroke="#000000" stroke-dasharray="5,2" d="M381.456,-187.1061C381.456,-187.1061 381.456,-205.991 381.456,-205.991"/>
<polygon fill="#000000" stroke="#000000" points="377.9561,-205.9909 381.456,-215.991 384.9561,-205.991 377.9561,-205.9909"/>
</g>
<!-- ResetPasswordComponent  -->
<g id="node8" class="node">
<title>ResetPasswordComponent </title>
<polygon fill="#fb8072" stroke="#000000" points="334.5875,-252 165.4125,-252 165.4125,-216 334.5875,-216 334.5875,-252"/>
<text text-anchor="middle" x="250" y="-229.8" font-family="Times,serif" font-size="14.00" fill="#000000">ResetPasswordComponent </text>
</g>
<!-- UserComponentModule&#45;&gt;ResetPasswordComponent  -->
<g id="edge7" class="edge">
<title>UserComponentModule&#45;&gt;ResetPasswordComponent </title>
<path fill="none" stroke="#000000" stroke-dasharray="5,2" d="M296.5696,-187.1061C296.5696,-187.1061 296.5696,-205.991 296.5696,-205.991"/>
<polygon fill="#000000" stroke="#000000" points="293.0697,-205.9909 296.5696,-215.991 300.0697,-205.991 293.0697,-205.9909"/>
</g>
<!-- LoginModule -->
<g id="node4" class="node">
<title>LoginModule</title>
<polygon fill="#8dd3c7" stroke="#000000" points="380.493,-122 377.493,-126 356.493,-126 353.493,-122 287.507,-122 287.507,-86 380.493,-86 380.493,-122"/>
<text text-anchor="middle" x="334" y="-99.8" font-family="Times,serif" font-size="14.00" fill="#000000">LoginModule</text>
</g>
<!-- LoginModule&#45;&gt;UserComponentModule -->
<g id="edge3" class="edge">
<title>LoginModule&#45;&gt;UserComponentModule</title>
<path fill="none" stroke="#000000" d="M334,-122.1061C334,-122.1061 334,-140.991 334,-140.991"/>
<polygon fill="#000000" stroke="#000000" points="330.5001,-140.9909 334,-150.991 337.5001,-140.991 330.5001,-140.9909"/>
</g>
<!-- UrlTranslationModule -->
<g id="node5" class="node">
<title>UrlTranslationModule</title>
<polygon fill="#8dd3c7" stroke="#000000" points="269.9664,-122 266.9664,-126 245.9664,-126 242.9664,-122 128.0336,-122 128.0336,-86 269.9664,-86 269.9664,-122"/>
<text text-anchor="middle" x="199" y="-99.8" font-family="Times,serif" font-size="14.00" fill="#000000">UrlTranslationModule</text>
</g>
<!-- UrlTranslationModule&#45;&gt;UserComponentModule -->
<g id="edge4" class="edge">
<title>UrlTranslationModule&#45;&gt;UserComponentModule</title>
<path fill="none" stroke="#000000" d="M264.1645,-122.1061C264.1645,-122.1061 264.1645,-140.991 264.1645,-140.991"/>
<polygon fill="#000000" stroke="#000000" points="260.6645,-140.9909 264.1645,-150.991 267.6645,-140.991 260.6645,-140.9909"/>
</g>
<!-- UserModule -->
<g id="node6" class="node">
<title>UserModule</title>
<polygon fill="#8dd3c7" stroke="#000000" points="109.9762,-122 106.9762,-126 85.9762,-126 82.9762,-122 24.0238,-122 24.0238,-86 109.9762,-86 109.9762,-122"/>
<text text-anchor="middle" x="67" y="-99.8" font-family="Times,serif" font-size="14.00" fill="#000000">UserModule</text>
</g>
<!-- UserModule&#45;&gt;UserComponentModule -->
<g id="edge5" class="edge">
<title>UserModule&#45;&gt;UserComponentModule</title>
<path fill="none" stroke="#000000" d="M67,-122.1061C67,-141.3391 67,-169 67,-169 67,-169 248.2027,-169 248.2027,-169"/>
<polygon fill="#000000" stroke="#000000" points="248.2027,-172.5001 258.2027,-169 248.2027,-165.5001 248.2027,-172.5001"/>
</g>
</g>
</svg>
