<?xml version="1.0" encoding="UTF-8" standalone="no"?>
<!DOCTYPE svg PUBLIC "-//W3C//DTD SVG 1.1//EN"
 "http://www.w3.org/Graphics/SVG/1.1/DTD/svg11.dtd">
<!-- Generated by graphviz version 2.47.0 (20210316.0004)
 -->
<!-- Title: dependencies Pages: 1 -->
<svg width="1015pt" height="323pt"
 viewBox="0.00 0.00 1015.00 322.59" xmlns="http://www.w3.org/2000/svg" xmlns:xlink="http://www.w3.org/1999/xlink">
<g id="graph0" class="graph" transform="scale(1 1) rotate(0) translate(4 318.59)">
<title>dependencies</title>
<polygon fill="white" stroke="transparent" points="-4,4 -4,-318.59 1011,-318.59 1011,4 -4,4"/>
<text text-anchor="start" x="482.51" y="-42.4" font-family="sans-serif" font-weight="bold" font-size="14.00">Legend</text>
<polygon fill="#ffffb3" stroke="transparent" points="269.5,-10 269.5,-30 289.5,-30 289.5,-10 269.5,-10"/>
<text text-anchor="start" x="293.13" y="-15.4" font-family="sans-serif" font-size="14.00"> &#160;Declarations</text>
<polygon fill="#8dd3c7" stroke="transparent" points="382.5,-10 382.5,-30 402.5,-30 402.5,-10 382.5,-10"/>
<text text-anchor="start" x="406.23" y="-15.4" font-family="sans-serif" font-size="14.00"> &#160;Module</text>
<polygon fill="#80b1d3" stroke="transparent" points="468.5,-10 468.5,-30 488.5,-30 488.5,-10 468.5,-10"/>
<text text-anchor="start" x="492.28" y="-15.4" font-family="sans-serif" font-size="14.00"> &#160;Bootstrap</text>
<polygon fill="#fdb462" stroke="transparent" points="565.5,-10 565.5,-30 585.5,-30 585.5,-10 565.5,-10"/>
<text text-anchor="start" x="589.17" y="-15.4" font-family="sans-serif" font-size="14.00"> &#160;Providers</text>
<polygon fill="#fb8072" stroke="transparent" points="661.5,-10 661.5,-30 681.5,-30 681.5,-10 661.5,-10"/>
<text text-anchor="start" x="685.23" y="-15.4" font-family="sans-serif" font-size="14.00"> &#160;Exports</text>
<g id="clust1" class="cluster">
<title>cluster_UnitChildrenModule</title>
<polygon fill="none" stroke="black" stroke-dasharray="1,5" points="8,-70 8,-306.59 999,-306.59 999,-70 8,-70"/>
</g>
<g id="clust3" class="cluster">
<title>cluster_UnitChildrenModule_UnitChildrenComponent_providers</title>
<polygon fill="none" stroke="black" points="489,-78 489,-241.59 991,-241.59 991,-78 489,-78"/>
</g>
<g id="clust4" class="cluster">
<title>cluster_UnitChildrenModule_imports</title>
<polygon fill="none" stroke="black" points="16,-189.59 16,-241.59 481,-241.59 481,-189.59 16,-189.59"/>
</g>
<!-- UnitChildrenComponent -->
<g id="node1" class="node">
<title>UnitChildrenComponent</title>
<polygon fill="#ffffb3" stroke="black" points="734.71,-233.59 579.29,-233.59 579.29,-197.59 734.71,-197.59 734.71,-233.59"/>
<text text-anchor="middle" x="657" y="-211.39" font-family="Times,serif" font-size="14.00">UnitChildrenComponent</text>
</g>
<!-- UnitChildrenModule -->
<g id="node2" class="node">
<title>UnitChildrenModule</title>
<polygon fill="#8dd3c7" stroke="black" points="353.93,-298.59 350.93,-302.59 329.93,-302.59 326.93,-298.59 220.07,-298.59 220.07,-262.59 353.93,-262.59 353.93,-298.59"/>
<text text-anchor="middle" x="287" y="-276.39" font-family="Times,serif" font-size="14.00">UnitChildrenModule</text>
</g>
<!-- UnitChildrenComponent&#45;&gt;UnitChildrenModule -->
<g id="edge1" class="edge">
<title>UnitChildrenComponent&#45;&gt;UnitChildrenModule</title>
<path fill="none" stroke="black" d="M657,-233.7C657,-252.93 657,-280.59 657,-280.59 657,-280.59 364,-280.59 364,-280.59"/>
<polygon fill="black" stroke="black" points="364,-277.09 354,-280.59 364,-284.09 364,-277.09"/>
</g>
<!-- {
 &#160;&#160;&#160;provide: ListService, useExisting: UnitChildrenService,
} -->
<g id="node3" class="node">
<title>{
 &#160;&#160;&#160;provide: ListService, useExisting: UnitChildrenService,
}</title>
<ellipse fill="#fdb462" stroke="black" cx="740" cy="-127.3" rx="242.56" ry="41.09"/>
<text text-anchor="middle" x="740" y="-139.9" font-family="Times,serif" font-size="14.00">{</text>
<text text-anchor="middle" x="740" y="-123.1" font-family="Times,serif" font-size="14.00"> &#160;&#160;&#160;provide: ListService, useExisting: UnitChildrenService,</text>
<text text-anchor="middle" x="740" y="-106.3" font-family="Times,serif" font-size="14.00">}</text>
</g>
<!-- {
 &#160;&#160;&#160;provide: ListService, useExisting: UnitChildrenService,
}&#45;&gt;UnitChildrenComponent -->
<g id="edge2" class="edge">
<title>{
 &#160;&#160;&#160;provide: ListService, useExisting: UnitChildrenService,
}&#45;&gt;UnitChildrenComponent</title>
<path fill="none" stroke="black" d="M657,-166.28C657,-166.28 657,-187.56 657,-187.56"/>
<polygon fill="black" stroke="black" points="653.5,-187.56 657,-197.56 660.5,-187.56 653.5,-187.56"/>
</g>
<!-- DisableInfoModule -->
<g id="node4" class="node">
<title>DisableInfoModule</title>
<polygon fill="#8dd3c7" stroke="black" points="472.63,-233.59 469.63,-237.59 448.63,-237.59 445.63,-233.59 347.37,-233.59 347.37,-197.59 472.63,-197.59 472.63,-233.59"/>
<text text-anchor="middle" x="410" y="-211.39" font-family="Times,serif" font-size="14.00">DisableInfoModule</text>
</g>
<!-- DisableInfoModule&#45;&gt;UnitChildrenModule -->
<g id="edge3" class="edge">
<title>DisableInfoModule&#45;&gt;UnitChildrenModule</title>
<path fill="none" stroke="black" d="M347.17,-215.59C341.82,-215.59 338.39,-215.59 338.39,-215.59 338.39,-215.59 338.39,-252.48 338.39,-252.48"/>
<polygon fill="black" stroke="black" points="334.89,-252.48 338.39,-262.48 341.89,-252.48 334.89,-252.48"/>
</g>
<!-- I18nModule -->
<g id="node5" class="node">
<title>I18nModule</title>
<polygon fill="#8dd3c7" stroke="black" points="329.71,-233.59 326.71,-237.59 305.71,-237.59 302.71,-233.59 244.29,-233.59 244.29,-197.59 329.71,-197.59 329.71,-233.59"/>
<text text-anchor="middle" x="287" y="-211.39" font-family="Times,serif" font-size="14.00">I18nModule</text>
</g>
<!-- I18nModule&#45;&gt;UnitChildrenModule -->
<g id="edge4" class="edge">
<title>I18nModule&#45;&gt;UnitChildrenModule</title>
<path fill="none" stroke="black" d="M287,-233.7C287,-233.7 287,-252.58 287,-252.58"/>
<polygon fill="black" stroke="black" points="283.5,-252.58 287,-262.58 290.5,-252.58 283.5,-252.58"/>
</g>
<!-- ListModule -->
<g id="node6" class="node">
<title>ListModule</title>
<polygon fill="#8dd3c7" stroke="black" points="226.83,-233.59 223.83,-237.59 202.83,-237.59 199.83,-233.59 145.17,-233.59 145.17,-197.59 226.83,-197.59 226.83,-233.59"/>
<text text-anchor="middle" x="186" y="-211.39" font-family="Times,serif" font-size="14.00">ListModule</text>
</g>
<!-- ListModule&#45;&gt;UnitChildrenModule -->
<g id="edge5" class="edge">
<title>ListModule&#45;&gt;UnitChildrenModule</title>
<path fill="none" stroke="black" d="M226.9,-215.59C232.03,-215.59 235.53,-215.59 235.53,-215.59 235.53,-215.59 235.53,-252.48 235.53,-252.48"/>
<polygon fill="black" stroke="black" points="232.03,-252.48 235.53,-262.48 239.03,-252.48 232.03,-252.48"/>
</g>
<!-- SubListModule -->
<g id="node7" class="node">
<title>SubListModule</title>
<polygon fill="#8dd3c7" stroke="black" points="127.61,-233.59 124.61,-237.59 103.61,-237.59 100.61,-233.59 24.39,-233.59 24.39,-197.59 127.61,-197.59 127.61,-233.59"/>
<text text-anchor="middle" x="76" y="-211.39" font-family="Times,serif" font-size="14.00">SubListModule</text>
</g>
<!-- SubListModule&#45;&gt;UnitChildrenModule -->
<g id="edge6" class="edge">
<title>SubListModule&#45;&gt;UnitChildrenModule</title>
<path fill="none" stroke="black" d="M76,-233.7C76,-252.93 76,-280.59 76,-280.59 76,-280.59 210.24,-280.59 210.24,-280.59"/>
<polygon fill="black" stroke="black" points="210.24,-284.09 220.24,-280.59 210.24,-277.09 210.24,-284.09"/>
</g>
</g>
</svg>
