<?xml version="1.0" encoding="UTF-8" standalone="no"?>
<!DOCTYPE svg PUBLIC "-//W3C//DTD SVG 1.1//EN"
 "http://www.w3.org/Graphics/SVG/1.1/DTD/svg11.dtd">
<!-- Generated by graphviz version 2.40.1 (20161225.0304)
 -->
<!-- Title: dependencies Pages: 1 -->
<svg width="685pt" height="211pt"
 viewBox="0.00 0.00 685.00 211.00" xmlns="http://www.w3.org/2000/svg" xmlns:xlink="http://www.w3.org/1999/xlink">
<g id="graph0" class="graph" transform="scale(1 1) rotate(0) translate(4 207)">
<title>dependencies</title>
<polygon fill="#ffffff" stroke="transparent" points="-4,4 -4,-207 681,-207 681,4 -4,4"/>
<text text-anchor="start" x="317.5091" y="-42.4" font-family="sans-serif" font-weight="bold" font-size="14.00" fill="#000000">Legend</text>
<polygon fill="#ffffb3" stroke="transparent" points="104.5,-10 104.5,-30 124.5,-30 124.5,-10 104.5,-10"/>
<text text-anchor="start" x="128.129" y="-15.4" font-family="sans-serif" font-size="14.00" fill="#000000"> &#160;Declarations</text>
<polygon fill="#8dd3c7" stroke="transparent" points="217.5,-10 217.5,-30 237.5,-30 237.5,-10 217.5,-10"/>
<text text-anchor="start" x="241.2251" y="-15.4" font-family="sans-serif" font-size="14.00" fill="#000000"> &#160;Module</text>
<polygon fill="#80b1d3" stroke="transparent" points="303.5,-10 303.5,-30 323.5,-30 323.5,-10 303.5,-10"/>
<text text-anchor="start" x="327.2812" y="-15.4" font-family="sans-serif" font-size="14.00" fill="#000000"> &#160;Bootstrap</text>
<polygon fill="#fdb462" stroke="transparent" points="400.5,-10 400.5,-30 420.5,-30 420.5,-10 400.5,-10"/>
<text text-anchor="start" x="424.1732" y="-15.4" font-family="sans-serif" font-size="14.00" fill="#000000"> &#160;Providers</text>
<polygon fill="#fb8072" stroke="transparent" points="496.5,-10 496.5,-30 516.5,-30 516.5,-10 496.5,-10"/>
<text text-anchor="start" x="520.2258" y="-15.4" font-family="sans-serif" font-size="14.00" fill="#000000"> &#160;Exports</text>
<g id="clust1" class="cluster">
<title>cluster_UnitChildrenModule</title>
<polygon fill="none" stroke="#000000" stroke-dasharray="1,5" points="8,-70 8,-195 669,-195 669,-70 8,-70"/>
</g>
<g id="clust2" class="cluster">
<title>cluster_UnitChildrenModule_declarations</title>
<polygon fill="none" stroke="#000000" points="489,-78 489,-130 661,-130 661,-78 489,-78"/>
</g>
<g id="clust4" class="cluster">
<title>cluster_UnitChildrenModule_imports</title>
<polygon fill="none" stroke="#000000" points="16,-78 16,-130 481,-130 481,-78 16,-78"/>
</g>
<!-- UnitChildrenComponent -->
<g id="node1" class="node">
<title>UnitChildrenComponent</title>
<polygon fill="#ffffb3" stroke="#000000" points="652.7133,-122 497.2867,-122 497.2867,-86 652.7133,-86 652.7133,-122"/>
<text text-anchor="middle" x="575" y="-99.8" font-family="Times,serif" font-size="14.00" fill="#000000">UnitChildrenComponent</text>
</g>
<!-- UnitChildrenModule -->
<g id="node2" class="node">
<title>UnitChildrenModule</title>
<polygon fill="#8dd3c7" stroke="#000000" points="353.9313,-187 350.9313,-191 329.9313,-191 326.9313,-187 220.0687,-187 220.0687,-151 353.9313,-151 353.9313,-187"/>
<text text-anchor="middle" x="287" y="-164.8" font-family="Times,serif" font-size="14.00" fill="#000000">UnitChildrenModule</text>
</g>
<!-- UnitChildrenComponent&#45;&gt;UnitChildrenModule -->
<g id="edge1" class="edge">
<title>UnitChildrenComponent&#45;&gt;UnitChildrenModule</title>
<path fill="none" stroke="#000000" d="M575,-122.1061C575,-141.3391 575,-169 575,-169 575,-169 363.7969,-169 363.7969,-169"/>
<polygon fill="#000000" stroke="#000000" points="363.7969,-165.5001 353.7969,-169 363.7968,-172.5001 363.7969,-165.5001"/>
</g>
<!-- DisableInfoModule -->
<g id="node3" class="node">
<title>DisableInfoModule</title>
<polygon fill="#8dd3c7" stroke="#000000" points="472.6331,-122 469.6331,-126 448.6331,-126 445.6331,-122 347.3669,-122 347.3669,-86 472.6331,-86 472.6331,-122"/>
<text text-anchor="middle" x="410" y="-99.8" font-family="Times,serif" font-size="14.00" fill="#000000">DisableInfoModule</text>
</g>
<!-- DisableInfoModule&#45;&gt;UnitChildrenModule -->
<g id="edge2" class="edge">
<title>DisableInfoModule&#45;&gt;UnitChildrenModule</title>
<path fill="none" stroke="#000000" d="M347.1747,-104C341.8209,-104 338.3945,-104 338.3945,-104 338.3945,-104 338.3945,-140.8939 338.3945,-140.8939"/>
<polygon fill="#000000" stroke="#000000" points="334.8945,-140.8938 338.3945,-150.8939 341.8945,-140.8939 334.8945,-140.8938"/>
</g>
<!-- I18nModule -->
<g id="node4" class="node">
<title>I18nModule</title>
<polygon fill="#8dd3c7" stroke="#000000" points="329.7107,-122 326.7107,-126 305.7107,-126 302.7107,-122 244.2893,-122 244.2893,-86 329.7107,-86 329.7107,-122"/>
<text text-anchor="middle" x="287" y="-99.8" font-family="Times,serif" font-size="14.00" fill="#000000">I18nModule</text>
</g>
<!-- I18nModule&#45;&gt;UnitChildrenModule -->
<g id="edge3" class="edge">
<title>I18nModule&#45;&gt;UnitChildrenModule</title>
<path fill="none" stroke="#000000" d="M287,-122.1061C287,-122.1061 287,-140.991 287,-140.991"/>
<polygon fill="#000000" stroke="#000000" points="283.5001,-140.9909 287,-150.991 290.5001,-140.991 283.5001,-140.9909"/>
</g>
<!-- ListModule -->
<g id="node5" class="node">
<title>ListModule</title>
<polygon fill="#8dd3c7" stroke="#000000" points="226.8289,-122 223.8289,-126 202.8289,-126 199.8289,-122 145.1711,-122 145.1711,-86 226.8289,-86 226.8289,-122"/>
<text text-anchor="middle" x="186" y="-99.8" font-family="Times,serif" font-size="14.00" fill="#000000">ListModule</text>
</g>
<!-- ListModule&#45;&gt;UnitChildrenModule -->
<g id="edge4" class="edge">
<title>ListModule&#45;&gt;UnitChildrenModule</title>
<path fill="none" stroke="#000000" d="M226.9021,-104C232.0348,-104 235.5295,-104 235.5295,-104 235.5295,-104 235.5295,-140.8939 235.5295,-140.8939"/>
<polygon fill="#000000" stroke="#000000" points="232.0295,-140.8938 235.5295,-150.8939 239.0295,-140.8939 232.0295,-140.8938"/>
</g>
<!-- SubListModule -->
<g id="node6" class="node">
<title>SubListModule</title>
<polygon fill="#8dd3c7" stroke="#000000" points="127.6109,-122 124.6109,-126 103.6109,-126 100.6109,-122 24.3891,-122 24.3891,-86 127.6109,-86 127.6109,-122"/>
<text text-anchor="middle" x="76" y="-99.8" font-family="Times,serif" font-size="14.00" fill="#000000">SubListModule</text>
</g>
<!-- SubListModule&#45;&gt;UnitChildrenModule -->
<g id="edge5" class="edge">
<title>SubListModule&#45;&gt;UnitChildrenModule</title>
<path fill="none" stroke="#000000" d="M76,-122.1061C76,-141.3391 76,-169 76,-169 76,-169 210.2383,-169 210.2383,-169"/>
<polygon fill="#000000" stroke="#000000" points="210.2383,-172.5001 220.2383,-169 210.2382,-165.5001 210.2383,-172.5001"/>
</g>
</g>
</svg>
