<?xml version="1.0" encoding="UTF-8" standalone="no"?>
<!DOCTYPE svg PUBLIC "-//W3C//DTD SVG 1.1//EN"
 "http://www.w3.org/Graphics/SVG/1.1/DTD/svg11.dtd">
<!-- Generated by graphviz version 2.47.3 (20210619.1520)
 -->
<!-- Title: dependencies Pages: 1 -->
<svg width="685pt" height="174pt"
 viewBox="0.00 0.00 685.00 173.80" xmlns="http://www.w3.org/2000/svg" xmlns:xlink="http://www.w3.org/1999/xlink">
<g id="graph0" class="graph" transform="scale(1 1) rotate(0) translate(4 169.8)">
<title>dependencies</title>
<polygon fill="white" stroke="transparent" points="-4,4 -4,-169.8 681,-169.8 681,4 -4,4"/>
<text text-anchor="middle" x="338.5" y="-8.2" font-family="sans-serif" font-size="14.00">dependencies</text>
<g id="clust1" class="cluster">
<title>cluster_UnitChildrenModule</title>
<polygon fill="none" stroke="black" stroke-dasharray="1,5" points="8,-32.8 8,-157.8 669,-157.8 669,-32.8 8,-32.8"/>
</g>
<g id="clust2" class="cluster">
<title>cluster_UnitChildrenModule_declarations</title>
<polygon fill="none" stroke="black" points="489,-40.8 489,-92.8 661,-92.8 661,-40.8 489,-40.8"/>
</g>
<g id="clust4" class="cluster">
<title>cluster_UnitChildrenModule_imports</title>
<polygon fill="none" stroke="black" points="16,-40.8 16,-92.8 481,-92.8 481,-40.8 16,-40.8"/>
</g>
<!-- UnitChildrenComponent -->
<g id="node1" class="node">
<title>UnitChildrenComponent</title>
<polygon fill="#ffffb3" stroke="black" points="652.71,-84.8 497.29,-84.8 497.29,-48.8 652.71,-48.8 652.71,-84.8"/>
<text text-anchor="middle" x="575" y="-62.6" font-family="Times,serif" font-size="14.00">UnitChildrenComponent</text>
</g>
<!-- UnitChildrenModule -->
<g id="node2" class="node">
<title>UnitChildrenModule</title>
<polygon fill="#8dd3c7" stroke="black" points="353.93,-149.8 350.93,-153.8 329.93,-153.8 326.93,-149.8 220.07,-149.8 220.07,-113.8 353.93,-113.8 353.93,-149.8"/>
<text text-anchor="middle" x="287" y="-127.6" font-family="Times,serif" font-size="14.00">UnitChildrenModule</text>
</g>
<!-- UnitChildrenComponent&#45;&gt;UnitChildrenModule -->
<g id="edge1" class="edge">
<title>UnitChildrenComponent&#45;&gt;UnitChildrenModule</title>
<path fill="none" stroke="black" d="M575,-84.91C575,-104.14 575,-131.8 575,-131.8 575,-131.8 363.8,-131.8 363.8,-131.8"/>
<polygon fill="black" stroke="black" points="363.8,-128.3 353.8,-131.8 363.8,-135.3 363.8,-128.3"/>
</g>
<!-- DisableInfoModule -->
<g id="node3" class="node">
<title>DisableInfoModule</title>
<polygon fill="#8dd3c7" stroke="black" points="472.63,-84.8 469.63,-88.8 448.63,-88.8 445.63,-84.8 347.37,-84.8 347.37,-48.8 472.63,-48.8 472.63,-84.8"/>
<text text-anchor="middle" x="410" y="-62.6" font-family="Times,serif" font-size="14.00">DisableInfoModule</text>
</g>
<!-- DisableInfoModule&#45;&gt;UnitChildrenModule -->
<g id="edge2" class="edge">
<title>DisableInfoModule&#45;&gt;UnitChildrenModule</title>
<path fill="none" stroke="black" d="M347.17,-66.8C341.82,-66.8 338.39,-66.8 338.39,-66.8 338.39,-66.8 338.39,-103.69 338.39,-103.69"/>
<polygon fill="black" stroke="black" points="334.89,-103.69 338.39,-113.69 341.89,-103.69 334.89,-103.69"/>
</g>
<!-- I18nModule -->
<g id="node4" class="node">
<title>I18nModule</title>
<polygon fill="#8dd3c7" stroke="black" points="329.71,-84.8 326.71,-88.8 305.71,-88.8 302.71,-84.8 244.29,-84.8 244.29,-48.8 329.71,-48.8 329.71,-84.8"/>
<text text-anchor="middle" x="287" y="-62.6" font-family="Times,serif" font-size="14.00">I18nModule</text>
</g>
<!-- I18nModule&#45;&gt;UnitChildrenModule -->
<g id="edge3" class="edge">
<title>I18nModule&#45;&gt;UnitChildrenModule</title>
<path fill="none" stroke="black" d="M287,-84.91C287,-84.91 287,-103.79 287,-103.79"/>
<polygon fill="black" stroke="black" points="283.5,-103.79 287,-113.79 290.5,-103.79 283.5,-103.79"/>
</g>
<!-- ListModule -->
<g id="node5" class="node">
<title>ListModule</title>
<polygon fill="#8dd3c7" stroke="black" points="226.83,-84.8 223.83,-88.8 202.83,-88.8 199.83,-84.8 145.17,-84.8 145.17,-48.8 226.83,-48.8 226.83,-84.8"/>
<text text-anchor="middle" x="186" y="-62.6" font-family="Times,serif" font-size="14.00">ListModule</text>
</g>
<!-- ListModule&#45;&gt;UnitChildrenModule -->
<g id="edge4" class="edge">
<title>ListModule&#45;&gt;UnitChildrenModule</title>
<path fill="none" stroke="black" d="M226.9,-66.8C232.03,-66.8 235.53,-66.8 235.53,-66.8 235.53,-66.8 235.53,-103.69 235.53,-103.69"/>
<polygon fill="black" stroke="black" points="232.03,-103.69 235.53,-113.69 239.03,-103.69 232.03,-103.69"/>
</g>
<!-- SubListModule -->
<g id="node6" class="node">
<title>SubListModule</title>
<polygon fill="#8dd3c7" stroke="black" points="127.61,-84.8 124.61,-88.8 103.61,-88.8 100.61,-84.8 24.39,-84.8 24.39,-48.8 127.61,-48.8 127.61,-84.8"/>
<text text-anchor="middle" x="76" y="-62.6" font-family="Times,serif" font-size="14.00">SubListModule</text>
</g>
<!-- SubListModule&#45;&gt;UnitChildrenModule -->
<g id="edge5" class="edge">
<title>SubListModule&#45;&gt;UnitChildrenModule</title>
<path fill="none" stroke="black" d="M76,-84.91C76,-104.14 76,-131.8 76,-131.8 76,-131.8 210.24,-131.8 210.24,-131.8"/>
<polygon fill="black" stroke="black" points="210.24,-135.3 220.24,-131.8 210.24,-128.3 210.24,-135.3"/>
</g>
</g>
</svg>
