<?xml version="1.0" encoding="UTF-8" standalone="no"?>
<!DOCTYPE svg PUBLIC "-//W3C//DTD SVG 1.1//EN"
 "http://www.w3.org/Graphics/SVG/1.1/DTD/svg11.dtd">
<!-- Generated by graphviz version 2.47.0 (20210316.0004)
 -->
<!-- Title: dependencies Pages: 1 -->
<svg width="685pt" height="211pt"
 viewBox="0.00 0.00 685.00 211.00" xmlns="http://www.w3.org/2000/svg" xmlns:xlink="http://www.w3.org/1999/xlink">
<g id="graph0" class="graph" transform="scale(1 1) rotate(0) translate(4 207)">
<title>dependencies</title>
<polygon fill="white" stroke="transparent" points="-4,4 -4,-207 681,-207 681,4 -4,4"/>
<text text-anchor="start" x="317.51" y="-42.4" font-family="sans-serif" font-weight="bold" font-size="14.00">Legend</text>
<polygon fill="#ffffb3" stroke="transparent" points="104.5,-10 104.5,-30 124.5,-30 124.5,-10 104.5,-10"/>
<text text-anchor="start" x="128.13" y="-15.4" font-family="sans-serif" font-size="14.00"> &#160;Declarations</text>
<polygon fill="#8dd3c7" stroke="transparent" points="217.5,-10 217.5,-30 237.5,-30 237.5,-10 217.5,-10"/>
<text text-anchor="start" x="241.23" y="-15.4" font-family="sans-serif" font-size="14.00"> &#160;Module</text>
<polygon fill="#80b1d3" stroke="transparent" points="303.5,-10 303.5,-30 323.5,-30 323.5,-10 303.5,-10"/>
<text text-anchor="start" x="327.28" y="-15.4" font-family="sans-serif" font-size="14.00"> &#160;Bootstrap</text>
<polygon fill="#fdb462" stroke="transparent" points="400.5,-10 400.5,-30 420.5,-30 420.5,-10 400.5,-10"/>
<text text-anchor="start" x="424.17" y="-15.4" font-family="sans-serif" font-size="14.00"> &#160;Providers</text>
<polygon fill="#fb8072" stroke="transparent" points="496.5,-10 496.5,-30 516.5,-30 516.5,-10 496.5,-10"/>
<text text-anchor="start" x="520.23" y="-15.4" font-family="sans-serif" font-size="14.00"> &#160;Exports</text>
<g id="clust1" class="cluster">
<title>cluster_UnitChildrenModule</title>
<polygon fill="none" stroke="black" stroke-dasharray="1,5" points="8,-70 8,-195 669,-195 669,-70 8,-70"/>
</g>
<g id="clust2" class="cluster">
<title>cluster_UnitChildrenModule_declarations</title>
<polygon fill="none" stroke="black" points="489,-78 489,-130 661,-130 661,-78 489,-78"/>
</g>
<g id="clust4" class="cluster">
<title>cluster_UnitChildrenModule_imports</title>
<polygon fill="none" stroke="black" points="16,-78 16,-130 481,-130 481,-78 16,-78"/>
</g>
<!-- UnitChildrenComponent -->
<g id="node1" class="node">
<title>UnitChildrenComponent</title>
<polygon fill="#ffffb3" stroke="black" points="652.71,-122 497.29,-122 497.29,-86 652.71,-86 652.71,-122"/>
<text text-anchor="middle" x="575" y="-99.8" font-family="Times,serif" font-size="14.00">UnitChildrenComponent</text>
</g>
<!-- UnitChildrenModule -->
<g id="node2" class="node">
<title>UnitChildrenModule</title>
<polygon fill="#8dd3c7" stroke="black" points="353.93,-187 350.93,-191 329.93,-191 326.93,-187 220.07,-187 220.07,-151 353.93,-151 353.93,-187"/>
<text text-anchor="middle" x="287" y="-164.8" font-family="Times,serif" font-size="14.00">UnitChildrenModule</text>
</g>
<!-- UnitChildrenComponent&#45;&gt;UnitChildrenModule -->
<g id="edge1" class="edge">
<title>UnitChildrenComponent&#45;&gt;UnitChildrenModule</title>
<path fill="none" stroke="black" d="M575,-122.11C575,-141.34 575,-169 575,-169 575,-169 363.8,-169 363.8,-169"/>
<polygon fill="black" stroke="black" points="363.8,-165.5 353.8,-169 363.8,-172.5 363.8,-165.5"/>
</g>
<!-- DisableInfoModule -->
<g id="node3" class="node">
<title>DisableInfoModule</title>
<polygon fill="#8dd3c7" stroke="black" points="472.63,-122 469.63,-126 448.63,-126 445.63,-122 347.37,-122 347.37,-86 472.63,-86 472.63,-122"/>
<text text-anchor="middle" x="410" y="-99.8" font-family="Times,serif" font-size="14.00">DisableInfoModule</text>
</g>
<!-- DisableInfoModule&#45;&gt;UnitChildrenModule -->
<g id="edge2" class="edge">
<title>DisableInfoModule&#45;&gt;UnitChildrenModule</title>
<path fill="none" stroke="black" d="M347.17,-104C341.82,-104 338.39,-104 338.39,-104 338.39,-104 338.39,-140.89 338.39,-140.89"/>
<polygon fill="black" stroke="black" points="334.89,-140.89 338.39,-150.89 341.89,-140.89 334.89,-140.89"/>
</g>
<!-- I18nModule -->
<g id="node4" class="node">
<title>I18nModule</title>
<polygon fill="#8dd3c7" stroke="black" points="329.71,-122 326.71,-126 305.71,-126 302.71,-122 244.29,-122 244.29,-86 329.71,-86 329.71,-122"/>
<text text-anchor="middle" x="287" y="-99.8" font-family="Times,serif" font-size="14.00">I18nModule</text>
</g>
<!-- I18nModule&#45;&gt;UnitChildrenModule -->
<g id="edge3" class="edge">
<title>I18nModule&#45;&gt;UnitChildrenModule</title>
<path fill="none" stroke="black" d="M287,-122.11C287,-122.11 287,-140.99 287,-140.99"/>
<polygon fill="black" stroke="black" points="283.5,-140.99 287,-150.99 290.5,-140.99 283.5,-140.99"/>
</g>
<!-- ListModule -->
<g id="node5" class="node">
<title>ListModule</title>
<polygon fill="#8dd3c7" stroke="black" points="226.83,-122 223.83,-126 202.83,-126 199.83,-122 145.17,-122 145.17,-86 226.83,-86 226.83,-122"/>
<text text-anchor="middle" x="186" y="-99.8" font-family="Times,serif" font-size="14.00">ListModule</text>
</g>
<!-- ListModule&#45;&gt;UnitChildrenModule -->
<g id="edge4" class="edge">
<title>ListModule&#45;&gt;UnitChildrenModule</title>
<path fill="none" stroke="black" d="M226.9,-104C232.03,-104 235.53,-104 235.53,-104 235.53,-104 235.53,-140.89 235.53,-140.89"/>
<polygon fill="black" stroke="black" points="232.03,-140.89 235.53,-150.89 239.03,-140.89 232.03,-140.89"/>
</g>
<!-- SubListModule -->
<g id="node6" class="node">
<title>SubListModule</title>
<polygon fill="#8dd3c7" stroke="black" points="127.61,-122 124.61,-126 103.61,-126 100.61,-122 24.39,-122 24.39,-86 127.61,-86 127.61,-122"/>
<text text-anchor="middle" x="76" y="-99.8" font-family="Times,serif" font-size="14.00">SubListModule</text>
</g>
<!-- SubListModule&#45;&gt;UnitChildrenModule -->
<g id="edge5" class="edge">
<title>SubListModule&#45;&gt;UnitChildrenModule</title>
<path fill="none" stroke="black" d="M76,-122.11C76,-141.34 76,-169 76,-169 76,-169 210.24,-169 210.24,-169"/>
<polygon fill="black" stroke="black" points="210.24,-172.5 220.24,-169 210.24,-165.5 210.24,-172.5"/>
</g>
</g>
</svg>
