<?xml version="1.0" encoding="UTF-8" standalone="no"?>
<!DOCTYPE svg PUBLIC "-//W3C//DTD SVG 1.1//EN"
 "http://www.w3.org/Graphics/SVG/1.1/DTD/svg11.dtd">
<!-- Generated by graphviz version 2.46.0 (20210119.1425)
 -->
<!-- Title: dependencies Pages: 1 -->
<svg width="685pt" height="276pt"
 viewBox="0.00 0.00 685.00 276.00" xmlns="http://www.w3.org/2000/svg" xmlns:xlink="http://www.w3.org/1999/xlink">
<g id="graph0" class="graph" transform="scale(1 1) rotate(0) translate(4 272)">
<title>dependencies</title>
<polygon fill="white" stroke="transparent" points="-4,4 -4,-272 681,-272 681,4 -4,4"/>
<text text-anchor="start" x="317.51" y="-42.4" font-family="sans-serif" font-weight="bold" font-size="14.00">Legend</text>
<polygon fill="#ffffb3" stroke="transparent" points="104.5,-10 104.5,-30 124.5,-30 124.5,-10 104.5,-10"/>
<text text-anchor="start" x="128.13" y="-15.4" font-family="sans-serif" font-size="14.00"> &#160;Declarations</text>
<polygon fill="#8dd3c7" stroke="transparent" points="217.5,-10 217.5,-30 237.5,-30 237.5,-10 217.5,-10"/>
<text text-anchor="start" x="241.23" y="-15.4" font-family="sans-serif" font-size="14.00"> &#160;Module</text>
<polygon fill="#80b1d3" stroke="transparent" points="303.5,-10 303.5,-30 323.5,-30 323.5,-10 303.5,-10"/>
<text text-anchor="start" x="327.28" y="-15.4" font-family="sans-serif" font-size="14.00"> &#160;Bootstrap</text>
<polygon fill="#fdb462" stroke="transparent" points="400.5,-10 400.5,-30 420.5,-30 420.5,-10 400.5,-10"/>
<text text-anchor="start" x="424.17" y="-15.4" font-family="sans-serif" font-size="14.00"> &#160;Providers</text>
<polygon fill="#fb8072" stroke="transparent" points="496.5,-10 496.5,-30 516.5,-30 516.5,-10 496.5,-10"/>
<text text-anchor="start" x="520.23" y="-15.4" font-family="sans-serif" font-size="14.00"> &#160;Exports</text>
<g id="clust1" class="cluster">
<title>cluster_UnitChildrenModule</title>
<polygon fill="none" stroke="black" stroke-dasharray="1,5" points="8,-70 8,-260 669,-260 669,-70 8,-70"/>
</g>
<g id="clust2" class="cluster">
<title>cluster_UnitChildrenModule_declarations</title>
<polygon fill="none" stroke="black" points="489,-143 489,-195 661,-195 661,-143 489,-143"/>
</g>
<g id="clust3" class="cluster">
<title>cluster_UnitChildrenModule_UnitChildrenComponent_providers</title>
<polygon fill="none" stroke="black" points="153,-78 153,-130 661,-130 661,-78 153,-78"/>
</g>
<g id="clust4" class="cluster">
<title>cluster_UnitChildrenModule_imports</title>
<polygon fill="none" stroke="black" points="16,-143 16,-195 481,-195 481,-143 16,-143"/>
</g>
<!-- UnitChildrenComponent -->
<g id="node1" class="node">
<title>UnitChildrenComponent</title>
<polygon fill="#ffffb3" stroke="black" points="652.71,-187 497.29,-187 497.29,-151 652.71,-151 652.71,-187"/>
<text text-anchor="middle" x="575" y="-164.8" font-family="Times,serif" font-size="14.00">UnitChildrenComponent</text>
</g>
<!-- UnitChildrenModule -->
<g id="node2" class="node">
<title>UnitChildrenModule</title>
<polygon fill="#8dd3c7" stroke="black" points="353.93,-252 350.93,-256 329.93,-256 326.93,-252 220.07,-252 220.07,-216 353.93,-216 353.93,-252"/>
<text text-anchor="middle" x="287" y="-229.8" font-family="Times,serif" font-size="14.00">UnitChildrenModule</text>
</g>
<!-- UnitChildrenComponent&#45;&gt;UnitChildrenModule -->
<g id="edge1" class="edge">
<title>UnitChildrenComponent&#45;&gt;UnitChildrenModule</title>
<path fill="none" stroke="black" d="M575,-187.11C575,-206.34 575,-234 575,-234 575,-234 363.8,-234 363.8,-234"/>
<polygon fill="black" stroke="black" points="363.8,-230.5 353.8,-234 363.8,-237.5 363.8,-230.5"/>
</g>
<!-- { &#160;&#160;&#160;provide: ListService, useExisting: UnitChildrenService,} -->
<g id="node3" class="node">
<title>{ &#160;&#160;&#160;provide: ListService, useExisting: UnitChildrenService,}</title>
<ellipse fill="#fdb462" stroke="black" cx="407" cy="-104" rx="245.71" ry="18"/>
<text text-anchor="middle" x="407" y="-99.8" font-family="Times,serif" font-size="14.00">{ &#160;&#160;&#160;provide: ListService, useExisting: UnitChildrenService,}</text>
</g>
<!-- { &#160;&#160;&#160;provide: ListService, useExisting: UnitChildrenService,}&#45;&gt;UnitChildrenComponent -->
<g id="edge2" class="edge">
<title>{ &#160;&#160;&#160;provide: ListService, useExisting: UnitChildrenService,}&#45;&gt;UnitChildrenComponent</title>
<path fill="none" stroke="black" d="M575,-117.15C575,-117.15 575,-140.69 575,-140.69"/>
<polygon fill="black" stroke="black" points="571.5,-140.69 575,-150.69 578.5,-140.69 571.5,-140.69"/>
</g>
<!-- DisableInfoModule -->
<g id="node4" class="node">
<title>DisableInfoModule</title>
<polygon fill="#8dd3c7" stroke="black" points="472.63,-187 469.63,-191 448.63,-191 445.63,-187 347.37,-187 347.37,-151 472.63,-151 472.63,-187"/>
<text text-anchor="middle" x="410" y="-164.8" font-family="Times,serif" font-size="14.00">DisableInfoModule</text>
</g>
<!-- DisableInfoModule&#45;&gt;UnitChildrenModule -->
<g id="edge3" class="edge">
<title>DisableInfoModule&#45;&gt;UnitChildrenModule</title>
<path fill="none" stroke="black" d="M347.17,-169C341.82,-169 338.39,-169 338.39,-169 338.39,-169 338.39,-205.89 338.39,-205.89"/>
<polygon fill="black" stroke="black" points="334.89,-205.89 338.39,-215.89 341.89,-205.89 334.89,-205.89"/>
</g>
<!-- I18nModule -->
<g id="node5" class="node">
<title>I18nModule</title>
<polygon fill="#8dd3c7" stroke="black" points="329.71,-187 326.71,-191 305.71,-191 302.71,-187 244.29,-187 244.29,-151 329.71,-151 329.71,-187"/>
<text text-anchor="middle" x="287" y="-164.8" font-family="Times,serif" font-size="14.00">I18nModule</text>
</g>
<!-- I18nModule&#45;&gt;UnitChildrenModule -->
<g id="edge4" class="edge">
<title>I18nModule&#45;&gt;UnitChildrenModule</title>
<path fill="none" stroke="black" d="M287,-187.11C287,-187.11 287,-205.99 287,-205.99"/>
<polygon fill="black" stroke="black" points="283.5,-205.99 287,-215.99 290.5,-205.99 283.5,-205.99"/>
</g>
<!-- ListModule -->
<g id="node6" class="node">
<title>ListModule</title>
<polygon fill="#8dd3c7" stroke="black" points="226.83,-187 223.83,-191 202.83,-191 199.83,-187 145.17,-187 145.17,-151 226.83,-151 226.83,-187"/>
<text text-anchor="middle" x="186" y="-164.8" font-family="Times,serif" font-size="14.00">ListModule</text>
</g>
<!-- ListModule&#45;&gt;UnitChildrenModule -->
<g id="edge5" class="edge">
<title>ListModule&#45;&gt;UnitChildrenModule</title>
<path fill="none" stroke="black" d="M226.9,-169C232.03,-169 235.53,-169 235.53,-169 235.53,-169 235.53,-205.89 235.53,-205.89"/>
<polygon fill="black" stroke="black" points="232.03,-205.89 235.53,-215.89 239.03,-205.89 232.03,-205.89"/>
</g>
<!-- SubListModule -->
<g id="node7" class="node">
<title>SubListModule</title>
<polygon fill="#8dd3c7" stroke="black" points="127.61,-187 124.61,-191 103.61,-191 100.61,-187 24.39,-187 24.39,-151 127.61,-151 127.61,-187"/>
<text text-anchor="middle" x="76" y="-164.8" font-family="Times,serif" font-size="14.00">SubListModule</text>
</g>
<!-- SubListModule&#45;&gt;UnitChildrenModule -->
<g id="edge6" class="edge">
<title>SubListModule&#45;&gt;UnitChildrenModule</title>
<path fill="none" stroke="black" d="M76,-187.11C76,-206.34 76,-234 76,-234 76,-234 210.24,-234 210.24,-234"/>
<polygon fill="black" stroke="black" points="210.24,-237.5 220.24,-234 210.24,-230.5 210.24,-237.5"/>
</g>
</g>
</svg>
