<?xml version="1.0" encoding="UTF-8" standalone="no"?>
<!DOCTYPE svg PUBLIC "-//W3C//DTD SVG 1.1//EN"
 "http://www.w3.org/Graphics/SVG/1.1/DTD/svg11.dtd">
<!-- Generated by graphviz version 2.47.3 (20210619.1520)
 -->
<!-- Title: dependencies Pages: 1 -->
<svg width="1015pt" height="285pt"
 viewBox="0.00 0.00 1015.00 285.39" xmlns="http://www.w3.org/2000/svg" xmlns:xlink="http://www.w3.org/1999/xlink">
<g id="graph0" class="graph" transform="scale(1 1) rotate(0) translate(4 281.39)">
<title>dependencies</title>
<polygon fill="white" stroke="transparent" points="-4,4 -4,-281.39 1011,-281.39 1011,4 -4,4"/>
<text text-anchor="middle" x="503.5" y="-8.2" font-family="sans-serif" font-size="14.00">dependencies</text>
<g id="clust1" class="cluster">
<title>cluster_UnitChildrenModule</title>
<polygon fill="none" stroke="black" stroke-dasharray="1,5" points="8,-32.8 8,-269.39 999,-269.39 999,-32.8 8,-32.8"/>
</g>
<g id="clust4" class="cluster">
<title>cluster_UnitChildrenModule_imports</title>
<polygon fill="none" stroke="black" points="526,-152.39 526,-204.39 991,-204.39 991,-152.39 526,-152.39"/>
</g>
<g id="clust3" class="cluster">
<title>cluster_UnitChildrenModule_UnitChildrenComponent_providers</title>
<polygon fill="none" stroke="black" points="16,-40.8 16,-204.39 518,-204.39 518,-40.8 16,-40.8"/>
</g>
<!-- UnitChildrenComponent -->
<g id="node1" class="node">
<title>UnitChildrenComponent</title>
<polygon fill="#ffffb3" stroke="black" points="426.71,-196.39 271.29,-196.39 271.29,-160.39 426.71,-160.39 426.71,-196.39"/>
<text text-anchor="middle" x="349" y="-174.19" font-family="Times,serif" font-size="14.00">UnitChildrenComponent</text>
</g>
<!-- UnitChildrenModule -->
<g id="node2" class="node">
<title>UnitChildrenModule</title>
<polygon fill="#8dd3c7" stroke="black" points="762.93,-261.39 759.93,-265.39 738.93,-265.39 735.93,-261.39 629.07,-261.39 629.07,-225.39 762.93,-225.39 762.93,-261.39"/>
<text text-anchor="middle" x="696" y="-239.19" font-family="Times,serif" font-size="14.00">UnitChildrenModule</text>
</g>
<!-- UnitChildrenComponent&#45;&gt;UnitChildrenModule -->
<g id="edge1" class="edge">
<title>UnitChildrenComponent&#45;&gt;UnitChildrenModule</title>
<path fill="none" stroke="black" d="M349,-196.5C349,-215.73 349,-243.39 349,-243.39 349,-243.39 619.09,-243.39 619.09,-243.39"/>
<polygon fill="black" stroke="black" points="619.09,-246.89 629.09,-243.39 619.09,-239.89 619.09,-246.89"/>
</g>
<!-- {
 &#160;&#160;&#160;provide: ListService, useExisting: UnitChildrenService,
} -->
<g id="node3" class="node">
<title>{
 &#160;&#160;&#160;provide: ListService, useExisting: UnitChildrenService,
}</title>
<ellipse fill="#fdb462" stroke="black" cx="267" cy="-90.1" rx="242.56" ry="41.09"/>
<text text-anchor="middle" x="267" y="-102.7" font-family="Times,serif" font-size="14.00">{</text>
<text text-anchor="middle" x="267" y="-85.9" font-family="Times,serif" font-size="14.00"> &#160;&#160;&#160;provide: ListService, useExisting: UnitChildrenService,</text>
<text text-anchor="middle" x="267" y="-69.1" font-family="Times,serif" font-size="14.00">}</text>
</g>
<!-- {
 &#160;&#160;&#160;provide: ListService, useExisting: UnitChildrenService,
}&#45;&gt;UnitChildrenComponent -->
<g id="edge2" class="edge">
<title>{
 &#160;&#160;&#160;provide: ListService, useExisting: UnitChildrenService,
}&#45;&gt;UnitChildrenComponent</title>
<path fill="none" stroke="black" d="M349,-129.08C349,-129.08 349,-150.36 349,-150.36"/>
<polygon fill="black" stroke="black" points="345.5,-150.36 349,-160.36 352.5,-150.36 345.5,-150.36"/>
</g>
<!-- DisableInfoModule -->
<g id="node4" class="node">
<title>DisableInfoModule</title>
<polygon fill="#8dd3c7" stroke="black" points="982.63,-196.39 979.63,-200.39 958.63,-200.39 955.63,-196.39 857.37,-196.39 857.37,-160.39 982.63,-160.39 982.63,-196.39"/>
<text text-anchor="middle" x="920" y="-174.19" font-family="Times,serif" font-size="14.00">DisableInfoModule</text>
</g>
<!-- DisableInfoModule&#45;&gt;UnitChildrenModule -->
<g id="edge3" class="edge">
<title>DisableInfoModule&#45;&gt;UnitChildrenModule</title>
<path fill="none" stroke="black" d="M920,-196.5C920,-215.73 920,-243.39 920,-243.39 920,-243.39 772.9,-243.39 772.9,-243.39"/>
<polygon fill="black" stroke="black" points="772.9,-239.89 762.9,-243.39 772.9,-246.89 772.9,-239.89"/>
</g>
<!-- I18nModule -->
<g id="node5" class="node">
<title>I18nModule</title>
<polygon fill="#8dd3c7" stroke="black" points="839.71,-196.39 836.71,-200.39 815.71,-200.39 812.71,-196.39 754.29,-196.39 754.29,-160.39 839.71,-160.39 839.71,-196.39"/>
<text text-anchor="middle" x="797" y="-174.19" font-family="Times,serif" font-size="14.00">I18nModule</text>
</g>
<!-- I18nModule&#45;&gt;UnitChildrenModule -->
<g id="edge4" class="edge">
<title>I18nModule&#45;&gt;UnitChildrenModule</title>
<path fill="none" stroke="black" d="M758.56,-196.5C758.56,-196.5 758.56,-215.38 758.56,-215.38"/>
<polygon fill="black" stroke="black" points="755.06,-215.38 758.56,-225.38 762.06,-215.38 755.06,-215.38"/>
</g>
<!-- ListModule -->
<g id="node6" class="node">
<title>ListModule</title>
<polygon fill="#8dd3c7" stroke="black" points="736.83,-196.39 733.83,-200.39 712.83,-200.39 709.83,-196.39 655.17,-196.39 655.17,-160.39 736.83,-160.39 736.83,-196.39"/>
<text text-anchor="middle" x="696" y="-174.19" font-family="Times,serif" font-size="14.00">ListModule</text>
</g>
<!-- ListModule&#45;&gt;UnitChildrenModule -->
<g id="edge5" class="edge">
<title>ListModule&#45;&gt;UnitChildrenModule</title>
<path fill="none" stroke="black" d="M696,-196.5C696,-196.5 696,-215.38 696,-215.38"/>
<polygon fill="black" stroke="black" points="692.5,-215.38 696,-225.38 699.5,-215.38 692.5,-215.38"/>
</g>
<!-- SubListModule -->
<g id="node7" class="node">
<title>SubListModule</title>
<polygon fill="#8dd3c7" stroke="black" points="637.61,-196.39 634.61,-200.39 613.61,-200.39 610.61,-196.39 534.39,-196.39 534.39,-160.39 637.61,-160.39 637.61,-196.39"/>
<text text-anchor="middle" x="586" y="-174.19" font-family="Times,serif" font-size="14.00">SubListModule</text>
</g>
<!-- SubListModule&#45;&gt;UnitChildrenModule -->
<g id="edge6" class="edge">
<title>SubListModule&#45;&gt;UnitChildrenModule</title>
<path fill="none" stroke="black" d="M633.42,-196.5C633.42,-196.5 633.42,-215.38 633.42,-215.38"/>
<polygon fill="black" stroke="black" points="629.92,-215.38 633.42,-225.38 636.92,-215.38 629.92,-215.38"/>
</g>
</g>
</svg>
