<?xml version="1.0" encoding="UTF-8" standalone="no"?>
<!DOCTYPE svg PUBLIC "-//W3C//DTD SVG 1.1//EN"
 "http://www.w3.org/Graphics/SVG/1.1/DTD/svg11.dtd">
<!-- Generated by graphviz version 2.47.3 (20210619.1520)
 -->
<!-- Title: dependencies Pages: 1 -->
<svg width="685pt" height="285pt"
 viewBox="0.00 0.00 685.00 285.39" xmlns="http://www.w3.org/2000/svg" xmlns:xlink="http://www.w3.org/1999/xlink">
<g id="graph0" class="graph" transform="scale(1 1) rotate(0) translate(4 281.39)">
<title>dependencies</title>
<polygon fill="white" stroke="transparent" points="-4,4 -4,-281.39 681,-281.39 681,4 -4,4"/>
<text text-anchor="middle" x="338.5" y="-8.2" font-family="sans-serif" font-size="14.00">dependencies</text>
<g id="clust1" class="cluster">
<title>cluster_UnitChildrenModule</title>
<polygon fill="none" stroke="black" stroke-dasharray="1,5" points="8,-32.8 8,-269.39 669,-269.39 669,-32.8 8,-32.8"/>
</g>
<g id="clust2" class="cluster">
<title>cluster_UnitChildrenModule_declarations</title>
<polygon fill="none" stroke="black" points="16,-152.39 16,-204.39 188,-204.39 188,-152.39 16,-152.39"/>
</g>
<g id="clust4" class="cluster">
<title>cluster_UnitChildrenModule_imports</title>
<polygon fill="none" stroke="black" points="196,-152.39 196,-204.39 661,-204.39 661,-152.39 196,-152.39"/>
</g>
<g id="clust3" class="cluster">
<title>cluster_UnitChildrenModule_UnitChildrenComponent_providers</title>
<polygon fill="none" stroke="black" points="16,-40.8 16,-139.39 518,-139.39 518,-40.8 16,-40.8"/>
</g>
<!-- UnitChildrenComponent -->
<g id="node1" class="node">
<title>UnitChildrenComponent</title>
<polygon fill="#ffffb3" stroke="black" points="179.71,-196.39 24.29,-196.39 24.29,-160.39 179.71,-160.39 179.71,-196.39"/>
<text text-anchor="middle" x="102" y="-174.19" font-family="Times,serif" font-size="14.00">UnitChildrenComponent</text>
</g>
<!-- UnitChildrenModule -->
<g id="node2" class="node">
<title>UnitChildrenModule</title>
<polygon fill="#8dd3c7" stroke="black" points="432.93,-261.39 429.93,-265.39 408.93,-265.39 405.93,-261.39 299.07,-261.39 299.07,-225.39 432.93,-225.39 432.93,-261.39"/>
<text text-anchor="middle" x="366" y="-239.19" font-family="Times,serif" font-size="14.00">UnitChildrenModule</text>
</g>
<!-- UnitChildrenComponent&#45;&gt;UnitChildrenModule -->
<g id="edge1" class="edge">
<title>UnitChildrenComponent&#45;&gt;UnitChildrenModule</title>
<path fill="none" stroke="black" d="M102,-196.5C102,-215.73 102,-243.39 102,-243.39 102,-243.39 289.04,-243.39 289.04,-243.39"/>
<polygon fill="black" stroke="black" points="289.04,-246.89 299.04,-243.39 289.04,-239.89 289.04,-246.89"/>
</g>
<!-- {
 &#160;&#160;&#160;provide: ListService, useExisting: UnitChildrenService,
} -->
<g id="node3" class="node">
<title>{
 &#160;&#160;&#160;provide: ListService, useExisting: UnitChildrenService,
}</title>
<ellipse fill="#fdb462" stroke="black" cx="267" cy="-90.1" rx="242.56" ry="41.09"/>
<text text-anchor="middle" x="267" y="-102.7" font-family="Times,serif" font-size="14.00">{</text>
<text text-anchor="middle" x="267" y="-85.9" font-family="Times,serif" font-size="14.00"> &#160;&#160;&#160;provide: ListService, useExisting: UnitChildrenService,</text>
<text text-anchor="middle" x="267" y="-69.1" font-family="Times,serif" font-size="14.00">}</text>
</g>
<!-- {
 &#160;&#160;&#160;provide: ListService, useExisting: UnitChildrenService,
}&#45;&gt;UnitChildrenComponent -->
<g id="edge2" class="edge">
<title>{
 &#160;&#160;&#160;provide: ListService, useExisting: UnitChildrenService,
}&#45;&gt;UnitChildrenComponent</title>
<path fill="none" stroke="black" d="M102.04,-120.48C102.04,-120.48 102.04,-150.32 102.04,-150.32"/>
<polygon fill="black" stroke="black" points="98.54,-150.32 102.04,-160.32 105.54,-150.32 98.54,-150.32"/>
</g>
<!-- DisableInfoModule -->
<g id="node4" class="node">
<title>DisableInfoModule</title>
<polygon fill="#8dd3c7" stroke="black" points="652.63,-196.39 649.63,-200.39 628.63,-200.39 625.63,-196.39 527.37,-196.39 527.37,-160.39 652.63,-160.39 652.63,-196.39"/>
<text text-anchor="middle" x="590" y="-174.19" font-family="Times,serif" font-size="14.00">DisableInfoModule</text>
</g>
<!-- DisableInfoModule&#45;&gt;UnitChildrenModule -->
<g id="edge3" class="edge">
<title>DisableInfoModule&#45;&gt;UnitChildrenModule</title>
<path fill="none" stroke="black" d="M590,-196.5C590,-215.73 590,-243.39 590,-243.39 590,-243.39 442.9,-243.39 442.9,-243.39"/>
<polygon fill="black" stroke="black" points="442.9,-239.89 432.9,-243.39 442.9,-246.89 442.9,-239.89"/>
</g>
<!-- I18nModule -->
<g id="node5" class="node">
<title>I18nModule</title>
<polygon fill="#8dd3c7" stroke="black" points="509.71,-196.39 506.71,-200.39 485.71,-200.39 482.71,-196.39 424.29,-196.39 424.29,-160.39 509.71,-160.39 509.71,-196.39"/>
<text text-anchor="middle" x="467" y="-174.19" font-family="Times,serif" font-size="14.00">I18nModule</text>
</g>
<!-- I18nModule&#45;&gt;UnitChildrenModule -->
<g id="edge4" class="edge">
<title>I18nModule&#45;&gt;UnitChildrenModule</title>
<path fill="none" stroke="black" d="M428.56,-196.5C428.56,-196.5 428.56,-215.38 428.56,-215.38"/>
<polygon fill="black" stroke="black" points="425.06,-215.38 428.56,-225.38 432.06,-215.38 425.06,-215.38"/>
</g>
<!-- ListModule -->
<g id="node6" class="node">
<title>ListModule</title>
<polygon fill="#8dd3c7" stroke="black" points="406.83,-196.39 403.83,-200.39 382.83,-200.39 379.83,-196.39 325.17,-196.39 325.17,-160.39 406.83,-160.39 406.83,-196.39"/>
<text text-anchor="middle" x="366" y="-174.19" font-family="Times,serif" font-size="14.00">ListModule</text>
</g>
<!-- ListModule&#45;&gt;UnitChildrenModule -->
<g id="edge5" class="edge">
<title>ListModule&#45;&gt;UnitChildrenModule</title>
<path fill="none" stroke="black" d="M366,-196.5C366,-196.5 366,-215.38 366,-215.38"/>
<polygon fill="black" stroke="black" points="362.5,-215.38 366,-225.38 369.5,-215.38 362.5,-215.38"/>
</g>
<!-- SubListModule -->
<g id="node7" class="node">
<title>SubListModule</title>
<polygon fill="#8dd3c7" stroke="black" points="307.61,-196.39 304.61,-200.39 283.61,-200.39 280.61,-196.39 204.39,-196.39 204.39,-160.39 307.61,-160.39 307.61,-196.39"/>
<text text-anchor="middle" x="256" y="-174.19" font-family="Times,serif" font-size="14.00">SubListModule</text>
</g>
<!-- SubListModule&#45;&gt;UnitChildrenModule -->
<g id="edge6" class="edge">
<title>SubListModule&#45;&gt;UnitChildrenModule</title>
<path fill="none" stroke="black" d="M303.42,-196.5C303.42,-196.5 303.42,-215.38 303.42,-215.38"/>
<polygon fill="black" stroke="black" points="299.92,-215.38 303.42,-225.38 306.92,-215.38 299.92,-215.38"/>
</g>
</g>
</svg>
