<?xml version="1.0" encoding="UTF-8" standalone="no"?>
<!DOCTYPE svg PUBLIC "-//W3C//DTD SVG 1.1//EN"
 "http://www.w3.org/Graphics/SVG/1.1/DTD/svg11.dtd">
<!-- Generated by graphviz version 2.40.1 (20161225.0304)
 -->
<!-- Title: dependencies Pages: 1 -->
<svg width="685pt" height="323pt"
 viewBox="0.00 0.00 685.00 322.59" xmlns="http://www.w3.org/2000/svg" xmlns:xlink="http://www.w3.org/1999/xlink">
<g id="graph0" class="graph" transform="scale(1 1) rotate(0) translate(4 318.5901)">
<title>dependencies</title>
<polygon fill="#ffffff" stroke="transparent" points="-4,4 -4,-318.5901 681,-318.5901 681,4 -4,4"/>
<text text-anchor="start" x="317.5091" y="-42.4" font-family="sans-serif" font-weight="bold" font-size="14.00" fill="#000000">Legend</text>
<polygon fill="#ffffb3" stroke="transparent" points="104.5,-10 104.5,-30 124.5,-30 124.5,-10 104.5,-10"/>
<text text-anchor="start" x="128.129" y="-15.4" font-family="sans-serif" font-size="14.00" fill="#000000"> &#160;Declarations</text>
<polygon fill="#8dd3c7" stroke="transparent" points="217.5,-10 217.5,-30 237.5,-30 237.5,-10 217.5,-10"/>
<text text-anchor="start" x="241.2251" y="-15.4" font-family="sans-serif" font-size="14.00" fill="#000000"> &#160;Module</text>
<polygon fill="#80b1d3" stroke="transparent" points="303.5,-10 303.5,-30 323.5,-30 323.5,-10 303.5,-10"/>
<text text-anchor="start" x="327.2812" y="-15.4" font-family="sans-serif" font-size="14.00" fill="#000000"> &#160;Bootstrap</text>
<polygon fill="#fdb462" stroke="transparent" points="400.5,-10 400.5,-30 420.5,-30 420.5,-10 400.5,-10"/>
<text text-anchor="start" x="424.1732" y="-15.4" font-family="sans-serif" font-size="14.00" fill="#000000"> &#160;Providers</text>
<polygon fill="#fb8072" stroke="transparent" points="496.5,-10 496.5,-30 516.5,-30 516.5,-10 496.5,-10"/>
<text text-anchor="start" x="520.2258" y="-15.4" font-family="sans-serif" font-size="14.00" fill="#000000"> &#160;Exports</text>
<g id="clust1" class="cluster">
<title>cluster_UnitChildrenModule</title>
<polygon fill="none" stroke="#000000" stroke-dasharray="1,5" points="8,-70 8,-306.5901 669,-306.5901 669,-70 8,-70"/>
</g>
<g id="clust2" class="cluster">
<title>cluster_UnitChildrenModule_declarations</title>
<polygon fill="none" stroke="#000000" points="489,-189.5901 489,-241.5901 661,-241.5901 661,-189.5901 489,-189.5901"/>
</g>
<g id="clust3" class="cluster">
<title>cluster_UnitChildrenModule_UnitChildrenComponent_providers</title>
<polygon fill="none" stroke="#000000" points="159,-78 159,-176.5901 661,-176.5901 661,-78 159,-78"/>
</g>
<g id="clust4" class="cluster">
<title>cluster_UnitChildrenModule_imports</title>
<polygon fill="none" stroke="#000000" points="16,-189.5901 16,-241.5901 481,-241.5901 481,-189.5901 16,-189.5901"/>
</g>
<!-- UnitChildrenComponent -->
<g id="node1" class="node">
<title>UnitChildrenComponent</title>
<polygon fill="#ffffb3" stroke="#000000" points="652.7133,-233.5901 497.2867,-233.5901 497.2867,-197.5901 652.7133,-197.5901 652.7133,-233.5901"/>
<text text-anchor="middle" x="575" y="-211.3901" font-family="Times,serif" font-size="14.00" fill="#000000">UnitChildrenComponent</text>
</g>
<!-- UnitChildrenModule -->
<g id="node2" class="node">
<title>UnitChildrenModule</title>
<polygon fill="#8dd3c7" stroke="#000000" points="353.9313,-298.5901 350.9313,-302.5901 329.9313,-302.5901 326.9313,-298.5901 220.0687,-298.5901 220.0687,-262.5901 353.9313,-262.5901 353.9313,-298.5901"/>
<text text-anchor="middle" x="287" y="-276.3901" font-family="Times,serif" font-size="14.00" fill="#000000">UnitChildrenModule</text>
</g>
<!-- UnitChildrenComponent&#45;&gt;UnitChildrenModule -->
<g id="edge1" class="edge">
<title>UnitChildrenComponent&#45;&gt;UnitChildrenModule</title>
<path fill="none" stroke="#000000" d="M575,-233.6962C575,-252.9292 575,-280.5901 575,-280.5901 575,-280.5901 363.7969,-280.5901 363.7969,-280.5901"/>
<polygon fill="#000000" stroke="#000000" points="363.7969,-277.0902 353.7969,-280.5901 363.7968,-284.0902 363.7969,-277.0902"/>
</g>
<!-- {
 &#160;&#160;&#160;provide: ListService, useExisting: UnitChildrenService,
} -->
<g id="node3" class="node">
<title>{
 &#160;&#160;&#160;provide: ListService, useExisting: UnitChildrenService,
}</title>
<ellipse fill="#fdb462" stroke="#000000" cx="410" cy="-127.295" rx="242.5605" ry="41.0911"/>
<text text-anchor="middle" x="410" y="-139.895" font-family="Times,serif" font-size="14.00" fill="#000000">{</text>
<text text-anchor="middle" x="410" y="-123.095" font-family="Times,serif" font-size="14.00" fill="#000000"> &#160;&#160;&#160;provide: ListService, useExisting: UnitChildrenService,</text>
<text text-anchor="middle" x="410" y="-106.295" font-family="Times,serif" font-size="14.00" fill="#000000">}</text>
</g>
<!-- {
 &#160;&#160;&#160;provide: ListService, useExisting: UnitChildrenService,
}&#45;&gt;UnitChildrenComponent -->
<g id="edge2" class="edge">
<title>{
 &#160;&#160;&#160;provide: ListService, useExisting: UnitChildrenService,
}&#45;&gt;UnitChildrenComponent</title>
<path fill="none" stroke="#000000" d="M574.9618,-157.6812C574.9618,-157.6812 574.9618,-187.5209 574.9618,-187.5209"/>
<polygon fill="#000000" stroke="#000000" points="571.4619,-187.5208 574.9618,-197.5209 578.4619,-187.5209 571.4619,-187.5208"/>
</g>
<!-- DisableInfoModule -->
<g id="node4" class="node">
<title>DisableInfoModule</title>
<polygon fill="#8dd3c7" stroke="#000000" points="472.6331,-233.5901 469.6331,-237.5901 448.6331,-237.5901 445.6331,-233.5901 347.3669,-233.5901 347.3669,-197.5901 472.6331,-197.5901 472.6331,-233.5901"/>
<text text-anchor="middle" x="410" y="-211.3901" font-family="Times,serif" font-size="14.00" fill="#000000">DisableInfoModule</text>
</g>
<!-- DisableInfoModule&#45;&gt;UnitChildrenModule -->
<g id="edge3" class="edge">
<title>DisableInfoModule&#45;&gt;UnitChildrenModule</title>
<path fill="none" stroke="#000000" d="M347.1747,-215.5901C341.8209,-215.5901 338.3945,-215.5901 338.3945,-215.5901 338.3945,-215.5901 338.3945,-252.4839 338.3945,-252.4839"/>
<polygon fill="#000000" stroke="#000000" points="334.8945,-252.4839 338.3945,-262.4839 341.8945,-252.484 334.8945,-252.4839"/>
</g>
<!-- I18nModule -->
<g id="node5" class="node">
<title>I18nModule</title>
<polygon fill="#8dd3c7" stroke="#000000" points="329.7107,-233.5901 326.7107,-237.5901 305.7107,-237.5901 302.7107,-233.5901 244.2893,-233.5901 244.2893,-197.5901 329.7107,-197.5901 329.7107,-233.5901"/>
<text text-anchor="middle" x="287" y="-211.3901" font-family="Times,serif" font-size="14.00" fill="#000000">I18nModule</text>
</g>
<!-- I18nModule&#45;&gt;UnitChildrenModule -->
<g id="edge4" class="edge">
<title>I18nModule&#45;&gt;UnitChildrenModule</title>
<path fill="none" stroke="#000000" d="M287,-233.6962C287,-233.6962 287,-252.581 287,-252.581"/>
<polygon fill="#000000" stroke="#000000" points="283.5001,-252.581 287,-262.581 290.5001,-252.5811 283.5001,-252.581"/>
</g>
<!-- ListModule -->
<g id="node6" class="node">
<title>ListModule</title>
<polygon fill="#8dd3c7" stroke="#000000" points="226.8289,-233.5901 223.8289,-237.5901 202.8289,-237.5901 199.8289,-233.5901 145.1711,-233.5901 145.1711,-197.5901 226.8289,-197.5901 226.8289,-233.5901"/>
<text text-anchor="middle" x="186" y="-211.3901" font-family="Times,serif" font-size="14.00" fill="#000000">ListModule</text>
</g>
<!-- ListModule&#45;&gt;UnitChildrenModule -->
<g id="edge5" class="edge">
<title>ListModule&#45;&gt;UnitChildrenModule</title>
<path fill="none" stroke="#000000" d="M226.9021,-215.5901C232.0348,-215.5901 235.5295,-215.5901 235.5295,-215.5901 235.5295,-215.5901 235.5295,-252.4839 235.5295,-252.4839"/>
<polygon fill="#000000" stroke="#000000" points="232.0295,-252.4839 235.5295,-262.4839 239.0295,-252.484 232.0295,-252.4839"/>
</g>
<!-- SubListModule -->
<g id="node7" class="node">
<title>SubListModule</title>
<polygon fill="#8dd3c7" stroke="#000000" points="127.6109,-233.5901 124.6109,-237.5901 103.6109,-237.5901 100.6109,-233.5901 24.3891,-233.5901 24.3891,-197.5901 127.6109,-197.5901 127.6109,-233.5901"/>
<text text-anchor="middle" x="76" y="-211.3901" font-family="Times,serif" font-size="14.00" fill="#000000">SubListModule</text>
</g>
<!-- SubListModule&#45;&gt;UnitChildrenModule -->
<g id="edge6" class="edge">
<title>SubListModule&#45;&gt;UnitChildrenModule</title>
<path fill="none" stroke="#000000" d="M76,-233.6962C76,-252.9292 76,-280.5901 76,-280.5901 76,-280.5901 210.2383,-280.5901 210.2383,-280.5901"/>
<polygon fill="#000000" stroke="#000000" points="210.2383,-284.0902 220.2383,-280.5901 210.2382,-277.0902 210.2383,-284.0902"/>
</g>
</g>
</svg>
