<?xml version="1.0" encoding="UTF-8" standalone="no"?>
<!DOCTYPE svg PUBLIC "-//W3C//DTD SVG 1.1//EN"
 "http://www.w3.org/Graphics/SVG/1.1/DTD/svg11.dtd">
<!-- Generated by graphviz version 2.40.1 (20161225.0304)
 -->
<!-- Title: dependencies Pages: 1 -->
<svg width="920pt" height="211pt"
 viewBox="0.00 0.00 920.00 211.00" xmlns="http://www.w3.org/2000/svg" xmlns:xlink="http://www.w3.org/1999/xlink">
<g id="graph0" class="graph" transform="scale(1 1) rotate(0) translate(4 207)">
<title>dependencies</title>
<polygon fill="#ffffff" stroke="transparent" points="-4,4 -4,-207 916,-207 916,4 -4,4"/>
<text text-anchor="start" x="435.0091" y="-42.4" font-family="sans-serif" font-weight="bold" font-size="14.00" fill="#000000">Legend</text>
<polygon fill="#ffffb3" stroke="transparent" points="222,-10 222,-30 242,-30 242,-10 222,-10"/>
<text text-anchor="start" x="245.629" y="-15.4" font-family="sans-serif" font-size="14.00" fill="#000000"> &#160;Declarations</text>
<polygon fill="#8dd3c7" stroke="transparent" points="335,-10 335,-30 355,-30 355,-10 335,-10"/>
<text text-anchor="start" x="358.7251" y="-15.4" font-family="sans-serif" font-size="14.00" fill="#000000"> &#160;Module</text>
<polygon fill="#80b1d3" stroke="transparent" points="421,-10 421,-30 441,-30 441,-10 421,-10"/>
<text text-anchor="start" x="444.7812" y="-15.4" font-family="sans-serif" font-size="14.00" fill="#000000"> &#160;Bootstrap</text>
<polygon fill="#fdb462" stroke="transparent" points="518,-10 518,-30 538,-30 538,-10 518,-10"/>
<text text-anchor="start" x="541.6732" y="-15.4" font-family="sans-serif" font-size="14.00" fill="#000000"> &#160;Providers</text>
<polygon fill="#fb8072" stroke="transparent" points="614,-10 614,-30 634,-30 634,-10 614,-10"/>
<text text-anchor="start" x="637.7258" y="-15.4" font-family="sans-serif" font-size="14.00" fill="#000000"> &#160;Exports</text>
<g id="clust1" class="cluster">
<title>cluster_OrderModule</title>
<polygon fill="none" stroke="#000000" stroke-dasharray="1,5" points="8,-70 8,-195 904,-195 904,-70 8,-70"/>
</g>
<g id="clust3" class="cluster">
<title>cluster_OrderModule_imports</title>
<polygon fill="none" stroke="#000000" points="16,-78 16,-130 896,-130 896,-78 16,-78"/>
</g>
<!-- OrderCancelOrReturnModule -->
<g id="node1" class="node">
<title>OrderCancelOrReturnModule</title>
<polygon fill="#8dd3c7" stroke="#000000" points="887.9328,-122 884.9328,-126 863.9328,-126 860.9328,-122 704.0672,-122 704.0672,-86 887.9328,-86 887.9328,-122"/>
<text text-anchor="middle" x="796" y="-99.8" font-family="Times,serif" font-size="14.00" fill="#000000">OrderCancelOrReturnModule</text>
</g>
<!-- OrderModule -->
<g id="node6" class="node">
<title>OrderModule</title>
<polygon fill="#8dd3c7" stroke="#000000" points="515.1924,-187 512.1924,-191 491.1924,-191 488.1924,-187 422.8076,-187 422.8076,-151 515.1924,-151 515.1924,-187"/>
<text text-anchor="middle" x="469" y="-164.8" font-family="Times,serif" font-size="14.00" fill="#000000">OrderModule</text>
</g>
<!-- OrderCancelOrReturnModule&#45;&gt;OrderModule -->
<g id="edge1" class="edge">
<title>OrderCancelOrReturnModule&#45;&gt;OrderModule</title>
<path fill="none" stroke="#000000" d="M796,-122.2843C796,-143.3211 796,-175 796,-175 796,-175 525.1576,-175 525.1576,-175"/>
<polygon fill="#000000" stroke="#000000" points="525.1576,-171.5001 515.1576,-175 525.1575,-178.5001 525.1576,-171.5001"/>
</g>
<!-- OrderDetailsModule -->
<g id="node2" class="node">
<title>OrderDetailsModule</title>
<polygon fill="#8dd3c7" stroke="#000000" points="685.8445,-122 682.8445,-126 661.8445,-126 658.8445,-122 554.1555,-122 554.1555,-86 685.8445,-86 685.8445,-122"/>
<text text-anchor="middle" x="620" y="-99.8" font-family="Times,serif" font-size="14.00" fill="#000000">OrderDetailsModule</text>
</g>
<!-- OrderDetailsModule&#45;&gt;OrderModule -->
<g id="edge2" class="edge">
<title>OrderDetailsModule&#45;&gt;OrderModule</title>
<path fill="none" stroke="#000000" d="M620,-122.0225C620,-139.3734 620,-163 620,-163 620,-163 525.1255,-163 525.1255,-163"/>
<polygon fill="#000000" stroke="#000000" points="525.1255,-159.5001 515.1255,-163 525.1254,-166.5001 525.1255,-159.5001"/>
</g>
<!-- OrderHistoryModule -->
<g id="node3" class="node">
<title>OrderHistoryModule</title>
<polygon fill="#8dd3c7" stroke="#000000" points="536.1853,-122 533.1853,-126 512.1853,-126 509.1853,-122 401.8147,-122 401.8147,-86 536.1853,-86 536.1853,-122"/>
<text text-anchor="middle" x="469" y="-99.8" font-family="Times,serif" font-size="14.00" fill="#000000">OrderHistoryModule</text>
</g>
<!-- OrderHistoryModule&#45;&gt;OrderModule -->
<g id="edge3" class="edge">
<title>OrderHistoryModule&#45;&gt;OrderModule</title>
<path fill="none" stroke="#000000" d="M469,-122.1061C469,-122.1061 469,-140.991 469,-140.991"/>
<polygon fill="#000000" stroke="#000000" points="465.5001,-140.9909 469,-150.991 472.5001,-140.991 465.5001,-140.9909"/>
</g>
<!-- ReturnRequestDetailModule -->
<g id="node4" class="node">
<title>ReturnRequestDetailModule</title>
<polygon fill="#8dd3c7" stroke="#000000" points="383.4608,-122 380.4608,-126 359.4608,-126 356.4608,-122 206.5392,-122 206.5392,-86 383.4608,-86 383.4608,-122"/>
<text text-anchor="middle" x="295" y="-99.8" font-family="Times,serif" font-size="14.00" fill="#000000">ReturnRequestDetailModule</text>
</g>
<!-- ReturnRequestDetailModule&#45;&gt;OrderModule -->
<g id="edge4" class="edge">
<title>ReturnRequestDetailModule&#45;&gt;OrderModule</title>
<path fill="none" stroke="#000000" d="M295,-122.0225C295,-139.3734 295,-163 295,-163 295,-163 412.828,-163 412.828,-163"/>
<polygon fill="#000000" stroke="#000000" points="412.8281,-166.5001 422.828,-163 412.828,-159.5001 412.8281,-166.5001"/>
</g>
<!-- ReturnRequestListModule -->
<g id="node5" class="node">
<title>ReturnRequestListModule</title>
<polygon fill="#8dd3c7" stroke="#000000" points="188.0323,-122 185.0323,-126 164.0323,-126 161.0323,-122 23.9677,-122 23.9677,-86 188.0323,-86 188.0323,-122"/>
<text text-anchor="middle" x="106" y="-99.8" font-family="Times,serif" font-size="14.00" fill="#000000">ReturnRequestListModule</text>
</g>
<!-- ReturnRequestListModule&#45;&gt;OrderModule -->
<g id="edge5" class="edge">
<title>ReturnRequestListModule&#45;&gt;OrderModule</title>
<path fill="none" stroke="#000000" d="M106,-122.2843C106,-143.3211 106,-175 106,-175 106,-175 412.6571,-175 412.6571,-175"/>
<polygon fill="#000000" stroke="#000000" points="412.6571,-178.5001 422.6571,-175 412.6571,-171.5001 412.6571,-178.5001"/>
</g>
</g>
</svg>
