<?xml version="1.0" encoding="UTF-8" standalone="no"?>
<!DOCTYPE svg PUBLIC "-//W3C//DTD SVG 1.1//EN"
 "http://www.w3.org/Graphics/SVG/1.1/DTD/svg11.dtd">
<!-- Generated by graphviz version 2.47.0 (20210316.0004)
 -->
<!-- Title: dependencies Pages: 1 -->
<svg width="1516pt" height="211pt"
 viewBox="0.00 0.00 1516.00 211.00" xmlns="http://www.w3.org/2000/svg" xmlns:xlink="http://www.w3.org/1999/xlink">
<g id="graph0" class="graph" transform="scale(1 1) rotate(0) translate(4 207)">
<title>dependencies</title>
<polygon fill="white" stroke="transparent" points="-4,4 -4,-207 1512,-207 1512,4 -4,4"/>
<text text-anchor="start" x="733.01" y="-42.4" font-family="sans-serif" font-weight="bold" font-size="14.00">Legend</text>
<polygon fill="#ffffb3" stroke="transparent" points="520,-10 520,-30 540,-30 540,-10 520,-10"/>
<text text-anchor="start" x="543.63" y="-15.4" font-family="sans-serif" font-size="14.00"> &#160;Declarations</text>
<polygon fill="#8dd3c7" stroke="transparent" points="633,-10 633,-30 653,-30 653,-10 633,-10"/>
<text text-anchor="start" x="656.73" y="-15.4" font-family="sans-serif" font-size="14.00"> &#160;Module</text>
<polygon fill="#80b1d3" stroke="transparent" points="719,-10 719,-30 739,-30 739,-10 719,-10"/>
<text text-anchor="start" x="742.78" y="-15.4" font-family="sans-serif" font-size="14.00"> &#160;Bootstrap</text>
<polygon fill="#fdb462" stroke="transparent" points="816,-10 816,-30 836,-30 836,-10 816,-10"/>
<text text-anchor="start" x="839.67" y="-15.4" font-family="sans-serif" font-size="14.00"> &#160;Providers</text>
<polygon fill="#fb8072" stroke="transparent" points="912,-10 912,-30 932,-30 932,-10 912,-10"/>
<text text-anchor="start" x="935.73" y="-15.4" font-family="sans-serif" font-size="14.00"> &#160;Exports</text>
<g id="clust1" class="cluster">
<title>cluster_OrderModule</title>
<polygon fill="none" stroke="black" stroke-dasharray="1,5" points="8,-70 8,-195 1500,-195 1500,-70 8,-70"/>
</g>
<g id="clust3" class="cluster">
<title>cluster_OrderModule_imports</title>
<polygon fill="none" stroke="black" points="16,-78 16,-130 1492,-130 1492,-78 16,-78"/>
</g>
<!-- OrderCancellationModule -->
<g id="node1" class="node">
<title>OrderCancellationModule</title>
<polygon fill="#8dd3c7" stroke="black" points="1484.45,-122 1481.45,-126 1460.45,-126 1457.45,-122 1321.55,-122 1321.55,-86 1484.45,-86 1484.45,-122"/>
<text text-anchor="middle" x="1403" y="-99.8" font-family="Times,serif" font-size="14.00">OrderCancellationModule</text>
</g>
<!-- OrderModule -->
<g id="node9" class="node">
<title>OrderModule</title>
<polygon fill="#8dd3c7" stroke="black" points="887.19,-187 884.19,-191 863.19,-191 860.19,-187 794.81,-187 794.81,-151 887.19,-151 887.19,-187"/>
<text text-anchor="middle" x="841" y="-164.8" font-family="Times,serif" font-size="14.00">OrderModule</text>
</g>
<!-- OrderCancellationModule&#45;&gt;OrderModule -->
<g id="edge1" class="edge">
<title>OrderCancellationModule&#45;&gt;OrderModule</title>
<path fill="none" stroke="black" d="M1403,-122.29C1403,-144.21 1403,-178 1403,-178 1403,-178 897.47,-178 897.47,-178"/>
<polygon fill="black" stroke="black" points="897.47,-174.5 887.47,-178 897.47,-181.5 897.47,-174.5"/>
</g>
<!-- OrderDetailsModule -->
<g id="node2" class="node">
<title>OrderDetailsModule</title>
<polygon fill="#8dd3c7" stroke="black" points="1303.84,-122 1300.84,-126 1279.84,-126 1276.84,-122 1172.16,-122 1172.16,-86 1303.84,-86 1303.84,-122"/>
<text text-anchor="middle" x="1238" y="-99.8" font-family="Times,serif" font-size="14.00">OrderDetailsModule</text>
</g>
<!-- OrderDetailsModule&#45;&gt;OrderModule -->
<g id="edge2" class="edge">
<title>OrderDetailsModule&#45;&gt;OrderModule</title>
<path fill="none" stroke="black" d="M1238,-122.11C1238,-141.34 1238,-169 1238,-169 1238,-169 897.32,-169 897.32,-169"/>
<polygon fill="black" stroke="black" points="897.32,-165.5 887.32,-169 897.32,-172.5 897.32,-165.5"/>
</g>
<!-- OrderHistoryModule -->
<g id="node3" class="node">
<title>OrderHistoryModule</title>
<polygon fill="#8dd3c7" stroke="black" points="1154.19,-122 1151.19,-126 1130.19,-126 1127.19,-122 1019.81,-122 1019.81,-86 1154.19,-86 1154.19,-122"/>
<text text-anchor="middle" x="1087" y="-99.8" font-family="Times,serif" font-size="14.00">OrderHistoryModule</text>
</g>
<!-- OrderHistoryModule&#45;&gt;OrderModule -->
<g id="edge3" class="edge">
<title>OrderHistoryModule&#45;&gt;OrderModule</title>
<path fill="none" stroke="black" d="M1087,-122.03C1087,-138.4 1087,-160 1087,-160 1087,-160 897.27,-160 897.27,-160"/>
<polygon fill="black" stroke="black" points="897.27,-156.5 887.27,-160 897.27,-163.5 897.27,-156.5"/>
</g>
<!-- OrderReturnModule -->
<g id="node4" class="node">
<title>OrderReturnModule</title>
<polygon fill="#8dd3c7" stroke="black" points="1002.29,-122 999.29,-126 978.29,-126 975.29,-122 871.71,-122 871.71,-86 1002.29,-86 1002.29,-122"/>
<text text-anchor="middle" x="937" y="-99.8" font-family="Times,serif" font-size="14.00">OrderReturnModule</text>
</g>
<!-- OrderReturnModule&#45;&gt;OrderModule -->
<g id="edge4" class="edge">
<title>OrderReturnModule&#45;&gt;OrderModule</title>
<path fill="none" stroke="black" d="M879.47,-122.11C879.47,-122.11 879.47,-140.99 879.47,-140.99"/>
<polygon fill="black" stroke="black" points="875.97,-140.99 879.47,-150.99 882.97,-140.99 875.97,-140.99"/>
</g>
<!-- ReplenishmentOrderDetailsModule -->
<g id="node5" class="node">
<title>ReplenishmentOrderDetailsModule</title>
<polygon fill="#8dd3c7" stroke="black" points="853.83,-122 850.83,-126 829.83,-126 826.83,-122 638.17,-122 638.17,-86 853.83,-86 853.83,-122"/>
<text text-anchor="middle" x="746" y="-99.8" font-family="Times,serif" font-size="14.00">ReplenishmentOrderDetailsModule</text>
</g>
<!-- ReplenishmentOrderDetailsModule&#45;&gt;OrderModule -->
<g id="edge5" class="edge">
<title>ReplenishmentOrderDetailsModule&#45;&gt;OrderModule</title>
<path fill="none" stroke="black" d="M824.41,-122.11C824.41,-122.11 824.41,-140.99 824.41,-140.99"/>
<polygon fill="black" stroke="black" points="820.91,-140.99 824.41,-150.99 827.91,-140.99 820.91,-140.99"/>
</g>
<!-- ReplenishmentOrderHistoryModule -->
<g id="node6" class="node">
<title>ReplenishmentOrderHistoryModule</title>
<polygon fill="#8dd3c7" stroke="black" points="620.17,-122 617.17,-126 596.17,-126 593.17,-122 401.83,-122 401.83,-86 620.17,-86 620.17,-122"/>
<text text-anchor="middle" x="511" y="-99.8" font-family="Times,serif" font-size="14.00">ReplenishmentOrderHistoryModule</text>
</g>
<!-- ReplenishmentOrderHistoryModule&#45;&gt;OrderModule -->
<g id="edge6" class="edge">
<title>ReplenishmentOrderHistoryModule&#45;&gt;OrderModule</title>
<path fill="none" stroke="black" d="M511,-122.03C511,-138.4 511,-160 511,-160 511,-160 784.77,-160 784.77,-160"/>
<polygon fill="black" stroke="black" points="784.77,-163.5 794.77,-160 784.77,-156.5 784.77,-163.5"/>
</g>
<!-- ReturnRequestDetailModule -->
<g id="node7" class="node">
<title>ReturnRequestDetailModule</title>
<polygon fill="#8dd3c7" stroke="black" points="383.46,-122 380.46,-126 359.46,-126 356.46,-122 206.54,-122 206.54,-86 383.46,-86 383.46,-122"/>
<text text-anchor="middle" x="295" y="-99.8" font-family="Times,serif" font-size="14.00">ReturnRequestDetailModule</text>
</g>
<!-- ReturnRequestDetailModule&#45;&gt;OrderModule -->
<g id="edge7" class="edge">
<title>ReturnRequestDetailModule&#45;&gt;OrderModule</title>
<path fill="none" stroke="black" d="M295,-122.11C295,-141.34 295,-169 295,-169 295,-169 784.45,-169 784.45,-169"/>
<polygon fill="black" stroke="black" points="784.45,-172.5 794.45,-169 784.45,-165.5 784.45,-172.5"/>
</g>
<!-- ReturnRequestListModule -->
<g id="node8" class="node">
<title>ReturnRequestListModule</title>
<polygon fill="#8dd3c7" stroke="black" points="188.03,-122 185.03,-126 164.03,-126 161.03,-122 23.97,-122 23.97,-86 188.03,-86 188.03,-122"/>
<text text-anchor="middle" x="106" y="-99.8" font-family="Times,serif" font-size="14.00">ReturnRequestListModule</text>
</g>
<!-- ReturnRequestListModule&#45;&gt;OrderModule -->
<g id="edge8" class="edge">
<title>ReturnRequestListModule&#45;&gt;OrderModule</title>
<path fill="none" stroke="black" d="M106,-122.29C106,-144.21 106,-178 106,-178 106,-178 784.74,-178 784.74,-178"/>
<polygon fill="black" stroke="black" points="784.74,-181.5 794.74,-178 784.74,-174.5 784.74,-181.5"/>
</g>
</g>
</svg>
