<?xml version="1.0" encoding="UTF-8" standalone="no"?>
<!DOCTYPE svg PUBLIC "-//W3C//DTD SVG 1.1//EN"
 "http://www.w3.org/Graphics/SVG/1.1/DTD/svg11.dtd">
<!-- Generated by graphviz version 2.47.3 (20210619.1520)
 -->
<!-- Title: dependencies Pages: 1 -->
<svg width="1516pt" height="174pt"
 viewBox="0.00 0.00 1516.00 173.80" xmlns="http://www.w3.org/2000/svg" xmlns:xlink="http://www.w3.org/1999/xlink">
<g id="graph0" class="graph" transform="scale(1 1) rotate(0) translate(4 169.8)">
<title>dependencies</title>
<polygon fill="white" stroke="transparent" points="-4,4 -4,-169.8 1512,-169.8 1512,4 -4,4"/>
<text text-anchor="middle" x="754" y="-8.2" font-family="sans-serif" font-size="14.00">dependencies</text>
<g id="clust1" class="cluster">
<title>cluster_OrderModule</title>
<polygon fill="none" stroke="black" stroke-dasharray="1,5" points="8,-32.8 8,-157.8 1500,-157.8 1500,-32.8 8,-32.8"/>
</g>
<g id="clust3" class="cluster">
<title>cluster_OrderModule_imports</title>
<polygon fill="none" stroke="black" points="16,-40.8 16,-92.8 1492,-92.8 1492,-40.8 16,-40.8"/>
</g>
<!-- OrderCancellationModule -->
<g id="node1" class="node">
<title>OrderCancellationModule</title>
<polygon fill="#8dd3c7" stroke="black" points="1484.45,-84.8 1481.45,-88.8 1460.45,-88.8 1457.45,-84.8 1321.55,-84.8 1321.55,-48.8 1484.45,-48.8 1484.45,-84.8"/>
<text text-anchor="middle" x="1403" y="-62.6" font-family="Times,serif" font-size="14.00">OrderCancellationModule</text>
</g>
<!-- OrderModule -->
<g id="node9" class="node">
<title>OrderModule</title>
<polygon fill="#8dd3c7" stroke="black" points="887.19,-149.8 884.19,-153.8 863.19,-153.8 860.19,-149.8 794.81,-149.8 794.81,-113.8 887.19,-113.8 887.19,-149.8"/>
<text text-anchor="middle" x="841" y="-127.6" font-family="Times,serif" font-size="14.00">OrderModule</text>
</g>
<!-- OrderCancellationModule&#45;&gt;OrderModule -->
<g id="edge1" class="edge">
<title>OrderCancellationModule&#45;&gt;OrderModule</title>
<path fill="none" stroke="black" d="M1403,-85.09C1403,-107.01 1403,-140.8 1403,-140.8 1403,-140.8 897.47,-140.8 897.47,-140.8"/>
<polygon fill="black" stroke="black" points="897.47,-137.3 887.47,-140.8 897.47,-144.3 897.47,-137.3"/>
</g>
<!-- OrderDetailsModule -->
<g id="node2" class="node">
<title>OrderDetailsModule</title>
<polygon fill="#8dd3c7" stroke="black" points="1303.84,-84.8 1300.84,-88.8 1279.84,-88.8 1276.84,-84.8 1172.16,-84.8 1172.16,-48.8 1303.84,-48.8 1303.84,-84.8"/>
<text text-anchor="middle" x="1238" y="-62.6" font-family="Times,serif" font-size="14.00">OrderDetailsModule</text>
</g>
<!-- OrderDetailsModule&#45;&gt;OrderModule -->
<g id="edge2" class="edge">
<title>OrderDetailsModule&#45;&gt;OrderModule</title>
<path fill="none" stroke="black" d="M1238,-84.91C1238,-104.14 1238,-131.8 1238,-131.8 1238,-131.8 897.32,-131.8 897.32,-131.8"/>
<polygon fill="black" stroke="black" points="897.32,-128.3 887.32,-131.8 897.32,-135.3 897.32,-128.3"/>
</g>
<!-- OrderHistoryModule -->
<g id="node3" class="node">
<title>OrderHistoryModule</title>
<polygon fill="#8dd3c7" stroke="black" points="1154.19,-84.8 1151.19,-88.8 1130.19,-88.8 1127.19,-84.8 1019.81,-84.8 1019.81,-48.8 1154.19,-48.8 1154.19,-84.8"/>
<text text-anchor="middle" x="1087" y="-62.6" font-family="Times,serif" font-size="14.00">OrderHistoryModule</text>
</g>
<!-- OrderHistoryModule&#45;&gt;OrderModule -->
<g id="edge3" class="edge">
<title>OrderHistoryModule&#45;&gt;OrderModule</title>
<path fill="none" stroke="black" d="M1087,-84.83C1087,-101.2 1087,-122.8 1087,-122.8 1087,-122.8 897.27,-122.8 897.27,-122.8"/>
<polygon fill="black" stroke="black" points="897.27,-119.3 887.27,-122.8 897.27,-126.3 897.27,-119.3"/>
</g>
<!-- OrderReturnModule -->
<g id="node4" class="node">
<title>OrderReturnModule</title>
<polygon fill="#8dd3c7" stroke="black" points="1002.29,-84.8 999.29,-88.8 978.29,-88.8 975.29,-84.8 871.71,-84.8 871.71,-48.8 1002.29,-48.8 1002.29,-84.8"/>
<text text-anchor="middle" x="937" y="-62.6" font-family="Times,serif" font-size="14.00">OrderReturnModule</text>
</g>
<!-- OrderReturnModule&#45;&gt;OrderModule -->
<g id="edge4" class="edge">
<title>OrderReturnModule&#45;&gt;OrderModule</title>
<path fill="none" stroke="black" d="M879.47,-84.91C879.47,-84.91 879.47,-103.79 879.47,-103.79"/>
<polygon fill="black" stroke="black" points="875.97,-103.79 879.47,-113.79 882.97,-103.79 875.97,-103.79"/>
</g>
<!-- ReplenishmentOrderDetailsModule -->
<g id="node5" class="node">
<title>ReplenishmentOrderDetailsModule</title>
<polygon fill="#8dd3c7" stroke="black" points="853.83,-84.8 850.83,-88.8 829.83,-88.8 826.83,-84.8 638.17,-84.8 638.17,-48.8 853.83,-48.8 853.83,-84.8"/>
<text text-anchor="middle" x="746" y="-62.6" font-family="Times,serif" font-size="14.00">ReplenishmentOrderDetailsModule</text>
</g>
<!-- ReplenishmentOrderDetailsModule&#45;&gt;OrderModule -->
<g id="edge5" class="edge">
<title>ReplenishmentOrderDetailsModule&#45;&gt;OrderModule</title>
<path fill="none" stroke="black" d="M824.41,-84.91C824.41,-84.91 824.41,-103.79 824.41,-103.79"/>
<polygon fill="black" stroke="black" points="820.91,-103.79 824.41,-113.79 827.91,-103.79 820.91,-103.79"/>
</g>
<!-- ReplenishmentOrderHistoryModule -->
<g id="node6" class="node">
<title>ReplenishmentOrderHistoryModule</title>
<polygon fill="#8dd3c7" stroke="black" points="620.17,-84.8 617.17,-88.8 596.17,-88.8 593.17,-84.8 401.83,-84.8 401.83,-48.8 620.17,-48.8 620.17,-84.8"/>
<text text-anchor="middle" x="511" y="-62.6" font-family="Times,serif" font-size="14.00">ReplenishmentOrderHistoryModule</text>
</g>
<!-- ReplenishmentOrderHistoryModule&#45;&gt;OrderModule -->
<g id="edge6" class="edge">
<title>ReplenishmentOrderHistoryModule&#45;&gt;OrderModule</title>
<path fill="none" stroke="black" d="M511,-84.83C511,-101.2 511,-122.8 511,-122.8 511,-122.8 784.77,-122.8 784.77,-122.8"/>
<polygon fill="black" stroke="black" points="784.77,-126.3 794.77,-122.8 784.77,-119.3 784.77,-126.3"/>
</g>
<!-- ReturnRequestDetailModule -->
<g id="node7" class="node">
<title>ReturnRequestDetailModule</title>
<polygon fill="#8dd3c7" stroke="black" points="383.46,-84.8 380.46,-88.8 359.46,-88.8 356.46,-84.8 206.54,-84.8 206.54,-48.8 383.46,-48.8 383.46,-84.8"/>
<text text-anchor="middle" x="295" y="-62.6" font-family="Times,serif" font-size="14.00">ReturnRequestDetailModule</text>
</g>
<!-- ReturnRequestDetailModule&#45;&gt;OrderModule -->
<g id="edge7" class="edge">
<title>ReturnRequestDetailModule&#45;&gt;OrderModule</title>
<path fill="none" stroke="black" d="M295,-84.91C295,-104.14 295,-131.8 295,-131.8 295,-131.8 784.45,-131.8 784.45,-131.8"/>
<polygon fill="black" stroke="black" points="784.45,-135.3 794.45,-131.8 784.45,-128.3 784.45,-135.3"/>
</g>
<!-- ReturnRequestListModule -->
<g id="node8" class="node">
<title>ReturnRequestListModule</title>
<polygon fill="#8dd3c7" stroke="black" points="188.03,-84.8 185.03,-88.8 164.03,-88.8 161.03,-84.8 23.97,-84.8 23.97,-48.8 188.03,-48.8 188.03,-84.8"/>
<text text-anchor="middle" x="106" y="-62.6" font-family="Times,serif" font-size="14.00">ReturnRequestListModule</text>
</g>
<!-- ReturnRequestListModule&#45;&gt;OrderModule -->
<g id="edge8" class="edge">
<title>ReturnRequestListModule&#45;&gt;OrderModule</title>
<path fill="none" stroke="black" d="M106,-85.09C106,-107.01 106,-140.8 106,-140.8 106,-140.8 784.74,-140.8 784.74,-140.8"/>
<polygon fill="black" stroke="black" points="784.74,-144.3 794.74,-140.8 784.74,-137.3 784.74,-144.3"/>
</g>
</g>
</svg>
