<?xml version="1.0" encoding="UTF-8" standalone="no"?>
<!DOCTYPE svg PUBLIC "-//W3C//DTD SVG 1.1//EN"
 "http://www.w3.org/Graphics/SVG/1.1/DTD/svg11.dtd">
<!-- Generated by graphviz version 2.40.1 (20161225.0304)
 -->
<!-- Title: dependencies Pages: 1 -->
<svg width="980pt" height="284pt"
 viewBox="0.00 0.00 980.00 284.00" xmlns="http://www.w3.org/2000/svg" xmlns:xlink="http://www.w3.org/1999/xlink">
<g id="graph0" class="graph" transform="scale(1 1) rotate(0) translate(4 280)">
<title>dependencies</title>
<polygon fill="#ffffff" stroke="transparent" points="-4,4 -4,-280 976,-280 976,4 -4,4"/>
<text text-anchor="start" x="465.0091" y="-42.4" font-family="sans-serif" font-weight="bold" font-size="14.00" fill="#000000">Legend</text>
<polygon fill="#ffffb3" stroke="transparent" points="252,-10 252,-30 272,-30 272,-10 252,-10"/>
<text text-anchor="start" x="275.629" y="-15.4" font-family="sans-serif" font-size="14.00" fill="#000000"> &#160;Declarations</text>
<polygon fill="#8dd3c7" stroke="transparent" points="365,-10 365,-30 385,-30 385,-10 365,-10"/>
<text text-anchor="start" x="388.7251" y="-15.4" font-family="sans-serif" font-size="14.00" fill="#000000"> &#160;Module</text>
<polygon fill="#80b1d3" stroke="transparent" points="451,-10 451,-30 471,-30 471,-10 451,-10"/>
<text text-anchor="start" x="474.7812" y="-15.4" font-family="sans-serif" font-size="14.00" fill="#000000"> &#160;Bootstrap</text>
<polygon fill="#fdb462" stroke="transparent" points="548,-10 548,-30 568,-30 568,-10 548,-10"/>
<text text-anchor="start" x="571.6732" y="-15.4" font-family="sans-serif" font-size="14.00" fill="#000000"> &#160;Providers</text>
<polygon fill="#fb8072" stroke="transparent" points="644,-10 644,-30 664,-30 664,-10 644,-10"/>
<text text-anchor="start" x="667.7258" y="-15.4" font-family="sans-serif" font-size="14.00" fill="#000000"> &#160;Exports</text>
<g id="clust1" class="cluster">
<title>cluster_SearchBoxModule</title>
<polygon fill="none" stroke="#000000" stroke-dasharray="1,5" points="8,-70 8,-268 964,-268 964,-70 8,-70"/>
</g>
<g id="clust2" class="cluster">
<title>cluster_SearchBoxModule_declarations</title>
<polygon fill="none" stroke="#000000" points="798,-78 798,-130 956,-130 956,-78 798,-78"/>
</g>
<g id="clust4" class="cluster">
<title>cluster_SearchBoxModule_imports</title>
<polygon fill="none" stroke="#000000" points="16,-78 16,-130 790,-130 790,-78 16,-78"/>
</g>
<g id="clust5" class="cluster">
<title>cluster_SearchBoxModule_exports</title>
<polygon fill="none" stroke="#000000" points="405,-208 405,-260 567,-260 567,-208 405,-208"/>
</g>
<!-- SearchBoxComponent -->
<g id="node1" class="node">
<title>SearchBoxComponent</title>
<polygon fill="#ffffb3" stroke="#000000" points="948.2562,-122 805.7438,-122 805.7438,-86 948.2562,-86 948.2562,-122"/>
<text text-anchor="middle" x="877" y="-99.8" font-family="Times,serif" font-size="14.00" fill="#000000">SearchBoxComponent</text>
</g>
<!-- SearchBoxModule -->
<g id="node2" class="node">
<title>SearchBoxModule</title>
<polygon fill="#8dd3c7" stroke="#000000" points="546.4734,-187 543.4734,-191 522.4734,-191 519.4734,-187 425.5266,-187 425.5266,-151 546.4734,-151 546.4734,-187"/>
<text text-anchor="middle" x="486" y="-164.8" font-family="Times,serif" font-size="14.00" fill="#000000">SearchBoxModule</text>
</g>
<!-- SearchBoxComponent&#45;&gt;SearchBoxModule -->
<g id="edge1" class="edge">
<title>SearchBoxComponent&#45;&gt;SearchBoxModule</title>
<path fill="none" stroke="#000000" d="M877,-122.2921C877,-144.2057 877,-178 877,-178 877,-178 556.6647,-178 556.6647,-178"/>
<polygon fill="#000000" stroke="#000000" points="556.6648,-174.5001 546.6647,-178 556.6647,-181.5001 556.6648,-174.5001"/>
</g>
<!-- SearchBoxComponent  -->
<g id="node9" class="node">
<title>SearchBoxComponent </title>
<polygon fill="#fb8072" stroke="#000000" points="559.2562,-252 412.7438,-252 412.7438,-216 559.2562,-216 559.2562,-252"/>
<text text-anchor="middle" x="486" y="-229.8" font-family="Times,serif" font-size="14.00" fill="#000000">SearchBoxComponent </text>
</g>
<!-- SearchBoxModule&#45;&gt;SearchBoxComponent  -->
<g id="edge8" class="edge">
<title>SearchBoxModule&#45;&gt;SearchBoxComponent </title>
<path fill="none" stroke="#000000" stroke-dasharray="5,2" d="M486,-187.1061C486,-187.1061 486,-205.991 486,-205.991"/>
<polygon fill="#000000" stroke="#000000" points="482.5001,-205.9909 486,-215.991 489.5001,-205.991 482.5001,-205.9909"/>
</g>
<!-- BootstrapModule -->
<g id="node3" class="node">
<title>BootstrapModule</title>
<polygon fill="#8dd3c7" stroke="#000000" points="781.9874,-122 778.9874,-126 757.9874,-126 754.9874,-122 668.0126,-122 668.0126,-86 781.9874,-86 781.9874,-122"/>
<text text-anchor="middle" x="725" y="-99.8" font-family="Times,serif" font-size="14.00" fill="#000000">BootstrapModule</text>
</g>
<!-- BootstrapModule&#45;&gt;SearchBoxModule -->
<g id="edge2" class="edge">
<title>BootstrapModule&#45;&gt;SearchBoxModule</title>
<path fill="none" stroke="#000000" d="M725,-122.1061C725,-141.3391 725,-169 725,-169 725,-169 556.6188,-169 556.6188,-169"/>
<polygon fill="#000000" stroke="#000000" points="556.6188,-165.5001 546.6188,-169 556.6187,-172.5001 556.6188,-165.5001"/>
</g>
<!-- ConfigModule -->
<g id="node4" class="node">
<title>ConfigModule</title>
<polygon fill="#8dd3c7" stroke="#000000" points="650.4386,-122 647.4386,-126 626.4386,-126 623.4386,-122 551.5614,-122 551.5614,-86 650.4386,-86 650.4386,-122"/>
<text text-anchor="middle" x="601" y="-99.8" font-family="Times,serif" font-size="14.00" fill="#000000">ConfigModule</text>
</g>
<!-- ConfigModule&#45;&gt;SearchBoxModule -->
<g id="edge3" class="edge">
<title>ConfigModule&#45;&gt;SearchBoxModule</title>
<path fill="none" stroke="#000000" d="M555.4546,-122.027C555.4546,-138.3976 555.4546,-160 555.4546,-160 555.4546,-160 554.575,-160 554.575,-160"/>
<polygon fill="#000000" stroke="#000000" points="556.6582,-156.5001 546.6581,-160 556.6581,-163.5001 556.6582,-156.5001"/>
</g>
<!-- MediaModule -->
<g id="node5" class="node">
<title>MediaModule</title>
<polygon fill="#8dd3c7" stroke="#000000" points="533.8147,-122 530.8147,-126 509.8147,-126 506.8147,-122 438.1853,-122 438.1853,-86 533.8147,-86 533.8147,-122"/>
<text text-anchor="middle" x="486" y="-99.8" font-family="Times,serif" font-size="14.00" fill="#000000">MediaModule</text>
</g>
<!-- MediaModule&#45;&gt;SearchBoxModule -->
<g id="edge4" class="edge">
<title>MediaModule&#45;&gt;SearchBoxModule</title>
<path fill="none" stroke="#000000" d="M486,-122.1061C486,-122.1061 486,-140.991 486,-140.991"/>
<polygon fill="#000000" stroke="#000000" points="482.5001,-140.9909 486,-150.991 489.5001,-140.991 482.5001,-140.9909"/>
</g>
<!-- ProductModule -->
<g id="node6" class="node">
<title>ProductModule</title>
<polygon fill="#8dd3c7" stroke="#000000" points="420.5982,-122 417.5982,-126 396.5982,-126 393.5982,-122 317.4018,-122 317.4018,-86 420.5982,-86 420.5982,-122"/>
<text text-anchor="middle" x="369" y="-99.8" font-family="Times,serif" font-size="14.00" fill="#000000">ProductModule</text>
</g>
<!-- ProductModule&#45;&gt;SearchBoxModule -->
<g id="edge5" class="edge">
<title>ProductModule&#45;&gt;SearchBoxModule</title>
<path fill="none" stroke="#000000" d="M416.7106,-122.027C416.7106,-138.3976 416.7106,-160 416.7106,-160 416.7106,-160 417.5881,-160 417.5881,-160"/>
<polygon fill="#000000" stroke="#000000" points="415.4862,-163.5001 425.4861,-160 415.4861,-156.5001 415.4862,-163.5001"/>
</g>
<!-- StripHtmlModule -->
<g id="node7" class="node">
<title>StripHtmlModule</title>
<polygon fill="#8dd3c7" stroke="#000000" points="299.5535,-122 296.5535,-126 275.5535,-126 272.5535,-122 184.4465,-122 184.4465,-86 299.5535,-86 299.5535,-122"/>
<text text-anchor="middle" x="242" y="-99.8" font-family="Times,serif" font-size="14.00" fill="#000000">StripHtmlModule</text>
</g>
<!-- StripHtmlModule&#45;&gt;SearchBoxModule -->
<g id="edge6" class="edge">
<title>StripHtmlModule&#45;&gt;SearchBoxModule</title>
<path fill="none" stroke="#000000" d="M242,-122.1061C242,-141.3391 242,-169 242,-169 242,-169 415.3719,-169 415.3719,-169"/>
<polygon fill="#000000" stroke="#000000" points="415.3719,-172.5001 425.3719,-169 415.3719,-165.5001 415.3719,-172.5001"/>
</g>
<!-- UrlTranslationModule -->
<g id="node8" class="node">
<title>UrlTranslationModule</title>
<polygon fill="#8dd3c7" stroke="#000000" points="165.9664,-122 162.9664,-126 141.9664,-126 138.9664,-122 24.0336,-122 24.0336,-86 165.9664,-86 165.9664,-122"/>
<text text-anchor="middle" x="95" y="-99.8" font-family="Times,serif" font-size="14.00" fill="#000000">UrlTranslationModule</text>
</g>
<!-- UrlTranslationModule&#45;&gt;SearchBoxModule -->
<g id="edge7" class="edge">
<title>UrlTranslationModule&#45;&gt;SearchBoxModule</title>
<path fill="none" stroke="#000000" d="M95,-122.2921C95,-144.2057 95,-178 95,-178 95,-178 415.3353,-178 415.3353,-178"/>
<polygon fill="#000000" stroke="#000000" points="415.3353,-181.5001 425.3353,-178 415.3352,-174.5001 415.3353,-181.5001"/>
</g>
</g>
</svg>
