<?xml version="1.0" encoding="UTF-8" standalone="no"?>
<!DOCTYPE svg PUBLIC "-//W3C//DTD SVG 1.1//EN"
 "http://www.w3.org/Graphics/SVG/1.1/DTD/svg11.dtd">
<!-- Generated by graphviz version 2.47.0 (20210316.0004)
 -->
<!-- Title: dependencies Pages: 1 -->
<svg width="1266pt" height="284pt"
 viewBox="0.00 0.00 1266.00 284.00" xmlns="http://www.w3.org/2000/svg" xmlns:xlink="http://www.w3.org/1999/xlink">
<g id="graph0" class="graph" transform="scale(1 1) rotate(0) translate(4 280)">
<title>dependencies</title>
<polygon fill="white" stroke="transparent" points="-4,4 -4,-280 1262,-280 1262,4 -4,4"/>
<text text-anchor="start" x="608.01" y="-42.4" font-family="sans-serif" font-weight="bold" font-size="14.00">Legend</text>
<polygon fill="#ffffb3" stroke="transparent" points="395,-10 395,-30 415,-30 415,-10 395,-10"/>
<text text-anchor="start" x="418.63" y="-15.4" font-family="sans-serif" font-size="14.00"> &#160;Declarations</text>
<polygon fill="#8dd3c7" stroke="transparent" points="508,-10 508,-30 528,-30 528,-10 508,-10"/>
<text text-anchor="start" x="531.73" y="-15.4" font-family="sans-serif" font-size="14.00"> &#160;Module</text>
<polygon fill="#80b1d3" stroke="transparent" points="594,-10 594,-30 614,-30 614,-10 594,-10"/>
<text text-anchor="start" x="617.78" y="-15.4" font-family="sans-serif" font-size="14.00"> &#160;Bootstrap</text>
<polygon fill="#fdb462" stroke="transparent" points="691,-10 691,-30 711,-30 711,-10 691,-10"/>
<text text-anchor="start" x="714.67" y="-15.4" font-family="sans-serif" font-size="14.00"> &#160;Providers</text>
<polygon fill="#fb8072" stroke="transparent" points="787,-10 787,-30 807,-30 807,-10 787,-10"/>
<text text-anchor="start" x="810.73" y="-15.4" font-family="sans-serif" font-size="14.00"> &#160;Exports</text>
<g id="clust1" class="cluster">
<title>cluster_ListModule</title>
<polygon fill="none" stroke="black" stroke-dasharray="1,5" points="8,-70 8,-268 1250,-268 1250,-70 8,-70"/>
</g>
<g id="clust4" class="cluster">
<title>cluster_ListModule_imports</title>
<polygon fill="none" stroke="black" points="144,-78 144,-130 1242,-130 1242,-78 144,-78"/>
</g>
<g id="clust5" class="cluster">
<title>cluster_ListModule_exports</title>
<polygon fill="none" stroke="black" points="549,-208 549,-260 671,-260 671,-208 549,-208"/>
</g>
<g id="clust2" class="cluster">
<title>cluster_ListModule_declarations</title>
<polygon fill="none" stroke="black" points="16,-78 16,-130 136,-130 136,-78 16,-78"/>
</g>
<!-- ListComponent -->
<g id="node1" class="node">
<title>ListComponent</title>
<polygon fill="#ffffb3" stroke="black" points="127.61,-122 24.39,-122 24.39,-86 127.61,-86 127.61,-122"/>
<text text-anchor="middle" x="76" y="-99.8" font-family="Times,serif" font-size="14.00">ListComponent</text>
</g>
<!-- ListModule -->
<g id="node2" class="node">
<title>ListModule</title>
<polygon fill="#8dd3c7" stroke="black" points="650.83,-187 647.83,-191 626.83,-191 623.83,-187 569.17,-187 569.17,-151 650.83,-151 650.83,-187"/>
<text text-anchor="middle" x="610" y="-164.8" font-family="Times,serif" font-size="14.00">ListModule</text>
</g>
<!-- ListComponent&#45;&gt;ListModule -->
<g id="edge1" class="edge">
<title>ListComponent&#45;&gt;ListModule</title>
<path fill="none" stroke="black" d="M76,-122.01C76,-144.49 76,-180 76,-180 76,-180 558.98,-180 558.98,-180"/>
<polygon fill="black" stroke="black" points="558.98,-183.5 568.98,-180 558.98,-176.5 558.98,-183.5"/>
</g>
<!-- ListComponent  -->
<g id="node12" class="node">
<title>ListComponent </title>
<polygon fill="#fb8072" stroke="black" points="663.11,-252 556.89,-252 556.89,-216 663.11,-216 663.11,-252"/>
<text text-anchor="middle" x="610" y="-229.8" font-family="Times,serif" font-size="14.00">ListComponent </text>
</g>
<!-- ListModule&#45;&gt;ListComponent  -->
<g id="edge11" class="edge">
<title>ListModule&#45;&gt;ListComponent </title>
<path fill="none" stroke="black" stroke-dasharray="5,2" d="M610,-187.11C610,-187.11 610,-205.99 610,-205.99"/>
<polygon fill="black" stroke="black" points="606.5,-205.99 610,-215.99 613.5,-205.99 606.5,-205.99"/>
</g>
<!-- I18nModule -->
<g id="node3" class="node">
<title>I18nModule</title>
<polygon fill="#8dd3c7" stroke="black" points="1233.71,-122 1230.71,-126 1209.71,-126 1206.71,-122 1148.29,-122 1148.29,-86 1233.71,-86 1233.71,-122"/>
<text text-anchor="middle" x="1191" y="-99.8" font-family="Times,serif" font-size="14.00">I18nModule</text>
</g>
<!-- I18nModule&#45;&gt;ListModule -->
<g id="edge2" class="edge">
<title>I18nModule&#45;&gt;ListModule</title>
<path fill="none" stroke="black" d="M1191,-122.01C1191,-144.49 1191,-180 1191,-180 1191,-180 660.85,-180 660.85,-180"/>
<polygon fill="black" stroke="black" points="660.85,-176.5 650.85,-180 660.85,-183.5 660.85,-176.5"/>
</g>
<!-- IconModule -->
<g id="node4" class="node">
<title>IconModule</title>
<polygon fill="#8dd3c7" stroke="black" points="1130.43,-122 1127.43,-126 1106.43,-126 1103.43,-122 1045.57,-122 1045.57,-86 1130.43,-86 1130.43,-122"/>
<text text-anchor="middle" x="1088" y="-99.8" font-family="Times,serif" font-size="14.00">IconModule</text>
</g>
<!-- IconModule&#45;&gt;ListModule -->
<g id="edge3" class="edge">
<title>IconModule&#45;&gt;ListModule</title>
<path fill="none" stroke="black" d="M1088,-122.13C1088,-142.57 1088,-173 1088,-173 1088,-173 660.75,-173 660.75,-173"/>
<polygon fill="black" stroke="black" points="660.75,-169.5 650.75,-173 660.75,-176.5 660.75,-169.5"/>
</g>
<!-- KeyboardFocusModule -->
<g id="node5" class="node">
<title>KeyboardFocusModule</title>
<polygon fill="#8dd3c7" stroke="black" points="1028.19,-122 1025.19,-126 1004.19,-126 1001.19,-122 879.81,-122 879.81,-86 1028.19,-86 1028.19,-122"/>
<text text-anchor="middle" x="954" y="-99.8" font-family="Times,serif" font-size="14.00">KeyboardFocusModule</text>
</g>
<!-- KeyboardFocusModule&#45;&gt;ListModule -->
<g id="edge4" class="edge">
<title>KeyboardFocusModule&#45;&gt;ListModule</title>
<path fill="none" stroke="black" d="M954,-122.27C954,-140.56 954,-166 954,-166 954,-166 660.81,-166 660.81,-166"/>
<polygon fill="black" stroke="black" points="660.81,-162.5 650.81,-166 660.81,-169.5 660.81,-162.5"/>
</g>
<!-- MessageModule -->
<g id="node6" class="node">
<title>MessageModule</title>
<polygon fill="#8dd3c7" stroke="black" points="862.03,-122 859.03,-126 838.03,-126 835.03,-122 753.97,-122 753.97,-86 862.03,-86 862.03,-122"/>
<text text-anchor="middle" x="808" y="-99.8" font-family="Times,serif" font-size="14.00">MessageModule</text>
</g>
<!-- MessageModule&#45;&gt;ListModule -->
<g id="edge5" class="edge">
<title>MessageModule&#45;&gt;ListModule</title>
<path fill="none" stroke="black" d="M808,-122.01C808,-138.05 808,-159 808,-159 808,-159 661.03,-159 661.03,-159"/>
<polygon fill="black" stroke="black" points="661.03,-155.5 651.03,-159 661.03,-162.5 661.03,-155.5"/>
</g>
<!-- PaginationModule -->
<g id="node7" class="node">
<title>PaginationModule</title>
<polygon fill="#8dd3c7" stroke="black" points="735.93,-122 732.93,-126 711.93,-126 708.93,-122 616.07,-122 616.07,-86 735.93,-86 735.93,-122"/>
<text text-anchor="middle" x="676" y="-99.8" font-family="Times,serif" font-size="14.00">PaginationModule</text>
</g>
<!-- PaginationModule&#45;&gt;ListModule -->
<g id="edge6" class="edge">
<title>PaginationModule&#45;&gt;ListModule</title>
<path fill="none" stroke="black" d="M633.47,-122.11C633.47,-122.11 633.47,-140.99 633.47,-140.99"/>
<polygon fill="black" stroke="black" points="629.97,-140.99 633.47,-150.99 636.97,-140.99 629.97,-140.99"/>
</g>
<!-- PopoverModule -->
<g id="node8" class="node">
<title>PopoverModule</title>
<polygon fill="#8dd3c7" stroke="black" points="598.21,-122 595.21,-126 574.21,-126 571.21,-122 491.79,-122 491.79,-86 598.21,-86 598.21,-122"/>
<text text-anchor="middle" x="545" y="-99.8" font-family="Times,serif" font-size="14.00">PopoverModule</text>
</g>
<!-- PopoverModule&#45;&gt;ListModule -->
<g id="edge7" class="edge">
<title>PopoverModule&#45;&gt;ListModule</title>
<path fill="none" stroke="black" d="M583.72,-122.11C583.72,-122.11 583.72,-140.99 583.72,-140.99"/>
<polygon fill="black" stroke="black" points="580.22,-140.99 583.72,-150.99 587.22,-140.99 580.22,-140.99"/>
</g>
<!-- SplitViewModule -->
<g id="node9" class="node">
<title>SplitViewModule</title>
<polygon fill="#8dd3c7" stroke="black" points="474.32,-122 471.32,-126 450.32,-126 447.32,-122 357.68,-122 357.68,-86 474.32,-86 474.32,-122"/>
<text text-anchor="middle" x="416" y="-99.8" font-family="Times,serif" font-size="14.00">SplitViewModule</text>
</g>
<!-- SplitViewModule&#45;&gt;ListModule -->
<g id="edge8" class="edge">
<title>SplitViewModule&#45;&gt;ListModule</title>
<path fill="none" stroke="black" d="M416,-122.01C416,-138.05 416,-159 416,-159 416,-159 559.33,-159 559.33,-159"/>
<polygon fill="black" stroke="black" points="559.33,-162.5 569.33,-159 559.33,-155.5 559.33,-162.5"/>
</g>
<!-- TableModule -->
<g id="node10" class="node">
<title>TableModule</title>
<polygon fill="#8dd3c7" stroke="black" points="339.92,-122 336.92,-126 315.92,-126 312.92,-122 248.08,-122 248.08,-86 339.92,-86 339.92,-122"/>
<text text-anchor="middle" x="294" y="-99.8" font-family="Times,serif" font-size="14.00">TableModule</text>
</g>
<!-- TableModule&#45;&gt;ListModule -->
<g id="edge9" class="edge">
<title>TableModule&#45;&gt;ListModule</title>
<path fill="none" stroke="black" d="M294,-122.27C294,-140.56 294,-166 294,-166 294,-166 559.34,-166 559.34,-166"/>
<polygon fill="black" stroke="black" points="559.34,-169.5 569.34,-166 559.34,-162.5 559.34,-169.5"/>
</g>
<!-- UrlModule -->
<g id="node11" class="node">
<title>UrlModule</title>
<polygon fill="#8dd3c7" stroke="black" points="230.21,-122 227.21,-126 206.21,-126 203.21,-122 151.79,-122 151.79,-86 230.21,-86 230.21,-122"/>
<text text-anchor="middle" x="191" y="-99.8" font-family="Times,serif" font-size="14.00">UrlModule</text>
</g>
<!-- UrlModule&#45;&gt;ListModule -->
<g id="edge10" class="edge">
<title>UrlModule&#45;&gt;ListModule</title>
<path fill="none" stroke="black" d="M191,-122.13C191,-142.57 191,-173 191,-173 191,-173 559.06,-173 559.06,-173"/>
<polygon fill="black" stroke="black" points="559.06,-176.5 569.06,-173 559.06,-169.5 559.06,-176.5"/>
</g>
</g>
</svg>
