<?xml version="1.0" encoding="UTF-8" standalone="no"?>
<!DOCTYPE svg PUBLIC "-//W3C//DTD SVG 1.1//EN"
 "http://www.w3.org/Graphics/SVG/1.1/DTD/svg11.dtd">
<!-- Generated by graphviz version 2.47.3 (20210619.1520)
 -->
<!-- Title: dependencies Pages: 1 -->
<svg width="1266pt" height="247pt"
 viewBox="0.00 0.00 1266.00 246.80" xmlns="http://www.w3.org/2000/svg" xmlns:xlink="http://www.w3.org/1999/xlink">
<g id="graph0" class="graph" transform="scale(1 1) rotate(0) translate(4 242.8)">
<title>dependencies</title>
<polygon fill="white" stroke="transparent" points="-4,4 -4,-242.8 1262,-242.8 1262,4 -4,4"/>
<text text-anchor="middle" x="629" y="-8.2" font-family="sans-serif" font-size="14.00">dependencies</text>
<g id="clust1" class="cluster">
<title>cluster_ListModule</title>
<polygon fill="none" stroke="black" stroke-dasharray="1,5" points="8,-32.8 8,-230.8 1250,-230.8 1250,-32.8 8,-32.8"/>
</g>
<g id="clust5" class="cluster">
<title>cluster_ListModule_exports</title>
<polygon fill="none" stroke="black" points="553,-170.8 553,-222.8 675,-222.8 675,-170.8 553,-170.8"/>
</g>
<g id="clust2" class="cluster">
<title>cluster_ListModule_declarations</title>
<polygon fill="none" stroke="black" points="1122,-40.8 1122,-92.8 1242,-92.8 1242,-40.8 1122,-40.8"/>
</g>
<g id="clust4" class="cluster">
<title>cluster_ListModule_imports</title>
<polygon fill="none" stroke="black" points="16,-40.8 16,-92.8 1114,-92.8 1114,-40.8 16,-40.8"/>
</g>
<!-- ListComponent -->
<g id="node1" class="node">
<title>ListComponent</title>
<polygon fill="#ffffb3" stroke="black" points="1233.61,-84.8 1130.39,-84.8 1130.39,-48.8 1233.61,-48.8 1233.61,-84.8"/>
<text text-anchor="middle" x="1182" y="-62.6" font-family="Times,serif" font-size="14.00">ListComponent</text>
</g>
<!-- ListModule -->
<g id="node2" class="node">
<title>ListModule</title>
<polygon fill="#8dd3c7" stroke="black" points="654.83,-149.8 651.83,-153.8 630.83,-153.8 627.83,-149.8 573.17,-149.8 573.17,-113.8 654.83,-113.8 654.83,-149.8"/>
<text text-anchor="middle" x="614" y="-127.6" font-family="Times,serif" font-size="14.00">ListModule</text>
</g>
<!-- ListComponent&#45;&gt;ListModule -->
<g id="edge1" class="edge">
<title>ListComponent&#45;&gt;ListModule</title>
<path fill="none" stroke="black" d="M1182,-84.81C1182,-107.29 1182,-142.8 1182,-142.8 1182,-142.8 664.85,-142.8 664.85,-142.8"/>
<polygon fill="black" stroke="black" points="664.85,-139.3 654.85,-142.8 664.85,-146.3 664.85,-139.3"/>
</g>
<!-- ListComponent  -->
<g id="node12" class="node">
<title>ListComponent </title>
<polygon fill="#fb8072" stroke="black" points="667.11,-214.8 560.89,-214.8 560.89,-178.8 667.11,-178.8 667.11,-214.8"/>
<text text-anchor="middle" x="614" y="-192.6" font-family="Times,serif" font-size="14.00">ListComponent </text>
</g>
<!-- ListModule&#45;&gt;ListComponent  -->
<g id="edge11" class="edge">
<title>ListModule&#45;&gt;ListComponent </title>
<path fill="none" stroke="black" stroke-dasharray="5,2" d="M614,-149.91C614,-149.91 614,-168.79 614,-168.79"/>
<polygon fill="black" stroke="black" points="610.5,-168.79 614,-178.79 617.5,-168.79 610.5,-168.79"/>
</g>
<!-- I18nModule -->
<g id="node3" class="node">
<title>I18nModule</title>
<polygon fill="#8dd3c7" stroke="black" points="1105.71,-84.8 1102.71,-88.8 1081.71,-88.8 1078.71,-84.8 1020.29,-84.8 1020.29,-48.8 1105.71,-48.8 1105.71,-84.8"/>
<text text-anchor="middle" x="1063" y="-62.6" font-family="Times,serif" font-size="14.00">I18nModule</text>
</g>
<!-- I18nModule&#45;&gt;ListModule -->
<g id="edge2" class="edge">
<title>I18nModule&#45;&gt;ListModule</title>
<path fill="none" stroke="black" d="M1063,-84.93C1063,-105.37 1063,-135.8 1063,-135.8 1063,-135.8 665.04,-135.8 665.04,-135.8"/>
<polygon fill="black" stroke="black" points="665.04,-132.3 655.04,-135.8 665.04,-139.3 665.04,-132.3"/>
</g>
<!-- IconModule -->
<g id="node4" class="node">
<title>IconModule</title>
<polygon fill="#8dd3c7" stroke="black" points="1002.43,-84.8 999.43,-88.8 978.43,-88.8 975.43,-84.8 917.57,-84.8 917.57,-48.8 1002.43,-48.8 1002.43,-84.8"/>
<text text-anchor="middle" x="960" y="-62.6" font-family="Times,serif" font-size="14.00">IconModule</text>
</g>
<!-- IconModule&#45;&gt;ListModule -->
<g id="edge3" class="edge">
<title>IconModule&#45;&gt;ListModule</title>
<path fill="none" stroke="black" d="M960,-85.07C960,-103.36 960,-128.8 960,-128.8 960,-128.8 664.71,-128.8 664.71,-128.8"/>
<polygon fill="black" stroke="black" points="664.71,-125.3 654.71,-128.8 664.71,-132.3 664.71,-125.3"/>
</g>
<!-- KeyboardFocusModule -->
<g id="node5" class="node">
<title>KeyboardFocusModule</title>
<polygon fill="#8dd3c7" stroke="black" points="900.19,-84.8 897.19,-88.8 876.19,-88.8 873.19,-84.8 751.81,-84.8 751.81,-48.8 900.19,-48.8 900.19,-84.8"/>
<text text-anchor="middle" x="826" y="-62.6" font-family="Times,serif" font-size="14.00">KeyboardFocusModule</text>
</g>
<!-- KeyboardFocusModule&#45;&gt;ListModule -->
<g id="edge4" class="edge">
<title>KeyboardFocusModule&#45;&gt;ListModule</title>
<path fill="none" stroke="black" d="M826,-84.81C826,-100.85 826,-121.8 826,-121.8 826,-121.8 664.88,-121.8 664.88,-121.8"/>
<polygon fill="black" stroke="black" points="664.88,-118.3 654.88,-121.8 664.88,-125.3 664.88,-118.3"/>
</g>
<!-- MessageModule -->
<g id="node6" class="node">
<title>MessageModule</title>
<polygon fill="#8dd3c7" stroke="black" points="734.03,-84.8 731.03,-88.8 710.03,-88.8 707.03,-84.8 625.97,-84.8 625.97,-48.8 734.03,-48.8 734.03,-84.8"/>
<text text-anchor="middle" x="680" y="-62.6" font-family="Times,serif" font-size="14.00">MessageModule</text>
</g>
<!-- MessageModule&#45;&gt;ListModule -->
<g id="edge5" class="edge">
<title>MessageModule&#45;&gt;ListModule</title>
<path fill="none" stroke="black" d="M640.2,-84.91C640.2,-84.91 640.2,-103.79 640.2,-103.79"/>
<polygon fill="black" stroke="black" points="636.7,-103.79 640.2,-113.79 643.7,-103.79 636.7,-103.79"/>
</g>
<!-- PaginationModule -->
<g id="node7" class="node">
<title>PaginationModule</title>
<polygon fill="#8dd3c7" stroke="black" points="607.93,-84.8 604.93,-88.8 583.93,-88.8 580.93,-84.8 488.07,-84.8 488.07,-48.8 607.93,-48.8 607.93,-84.8"/>
<text text-anchor="middle" x="548" y="-62.6" font-family="Times,serif" font-size="14.00">PaginationModule</text>
</g>
<!-- PaginationModule&#45;&gt;ListModule -->
<g id="edge6" class="edge">
<title>PaginationModule&#45;&gt;ListModule</title>
<path fill="none" stroke="black" d="M590.53,-84.91C590.53,-84.91 590.53,-103.79 590.53,-103.79"/>
<polygon fill="black" stroke="black" points="587.03,-103.79 590.53,-113.79 594.03,-103.79 587.03,-103.79"/>
</g>
<!-- PopoverModule -->
<g id="node8" class="node">
<title>PopoverModule</title>
<polygon fill="#8dd3c7" stroke="black" points="470.21,-84.8 467.21,-88.8 446.21,-88.8 443.21,-84.8 363.79,-84.8 363.79,-48.8 470.21,-48.8 470.21,-84.8"/>
<text text-anchor="middle" x="417" y="-62.6" font-family="Times,serif" font-size="14.00">PopoverModule</text>
</g>
<!-- PopoverModule&#45;&gt;ListModule -->
<g id="edge7" class="edge">
<title>PopoverModule&#45;&gt;ListModule</title>
<path fill="none" stroke="black" d="M417,-84.81C417,-100.85 417,-121.8 417,-121.8 417,-121.8 563.18,-121.8 563.18,-121.8"/>
<polygon fill="black" stroke="black" points="563.18,-125.3 573.18,-121.8 563.18,-118.3 563.18,-125.3"/>
</g>
<!-- SplitViewModule -->
<g id="node9" class="node">
<title>SplitViewModule</title>
<polygon fill="#8dd3c7" stroke="black" points="346.32,-84.8 343.32,-88.8 322.32,-88.8 319.32,-84.8 229.68,-84.8 229.68,-48.8 346.32,-48.8 346.32,-84.8"/>
<text text-anchor="middle" x="288" y="-62.6" font-family="Times,serif" font-size="14.00">SplitViewModule</text>
</g>
<!-- SplitViewModule&#45;&gt;ListModule -->
<g id="edge8" class="edge">
<title>SplitViewModule&#45;&gt;ListModule</title>
<path fill="none" stroke="black" d="M288,-85.07C288,-103.36 288,-128.8 288,-128.8 288,-128.8 563.04,-128.8 563.04,-128.8"/>
<polygon fill="black" stroke="black" points="563.04,-132.3 573.04,-128.8 563.04,-125.3 563.04,-132.3"/>
</g>
<!-- TableModule -->
<g id="node10" class="node">
<title>TableModule</title>
<polygon fill="#8dd3c7" stroke="black" points="211.92,-84.8 208.92,-88.8 187.92,-88.8 184.92,-84.8 120.08,-84.8 120.08,-48.8 211.92,-48.8 211.92,-84.8"/>
<text text-anchor="middle" x="166" y="-62.6" font-family="Times,serif" font-size="14.00">TableModule</text>
</g>
<!-- TableModule&#45;&gt;ListModule -->
<g id="edge9" class="edge">
<title>TableModule&#45;&gt;ListModule</title>
<path fill="none" stroke="black" d="M166,-84.93C166,-105.37 166,-135.8 166,-135.8 166,-135.8 563.06,-135.8 563.06,-135.8"/>
<polygon fill="black" stroke="black" points="563.06,-139.3 573.06,-135.8 563.06,-132.3 563.06,-139.3"/>
</g>
<!-- UrlModule -->
<g id="node11" class="node">
<title>UrlModule</title>
<polygon fill="#8dd3c7" stroke="black" points="102.21,-84.8 99.21,-88.8 78.21,-88.8 75.21,-84.8 23.79,-84.8 23.79,-48.8 102.21,-48.8 102.21,-84.8"/>
<text text-anchor="middle" x="63" y="-62.6" font-family="Times,serif" font-size="14.00">UrlModule</text>
</g>
<!-- UrlModule&#45;&gt;ListModule -->
<g id="edge10" class="edge">
<title>UrlModule&#45;&gt;ListModule</title>
<path fill="none" stroke="black" d="M63,-84.81C63,-107.29 63,-142.8 63,-142.8 63,-142.8 563.04,-142.8 563.04,-142.8"/>
<polygon fill="black" stroke="black" points="563.04,-146.3 573.04,-142.8 563.04,-139.3 563.04,-146.3"/>
</g>
</g>
</svg>
