<?xml version="1.0" encoding="UTF-8" standalone="no"?>
<!DOCTYPE svg PUBLIC "-//W3C//DTD SVG 1.1//EN"
 "http://www.w3.org/Graphics/SVG/1.1/DTD/svg11.dtd">
<!-- Generated by graphviz version 2.40.1 (20161225.0304)
 -->
<!-- Title: dependencies Pages: 1 -->
<svg width="907pt" height="284pt"
 viewBox="0.00 0.00 907.00 284.00" xmlns="http://www.w3.org/2000/svg" xmlns:xlink="http://www.w3.org/1999/xlink">
<g id="graph0" class="graph" transform="scale(1 1) rotate(0) translate(4 280)">
<title>dependencies</title>
<polygon fill="#ffffff" stroke="transparent" points="-4,4 -4,-280 903,-280 903,4 -4,4"/>
<text text-anchor="start" x="428.5091" y="-42.4" font-family="sans-serif" font-weight="bold" font-size="14.00" fill="#000000">Legend</text>
<polygon fill="#ffffb3" stroke="transparent" points="215.5,-10 215.5,-30 235.5,-30 235.5,-10 215.5,-10"/>
<text text-anchor="start" x="239.129" y="-15.4" font-family="sans-serif" font-size="14.00" fill="#000000"> &#160;Declarations</text>
<polygon fill="#8dd3c7" stroke="transparent" points="328.5,-10 328.5,-30 348.5,-30 348.5,-10 328.5,-10"/>
<text text-anchor="start" x="352.2251" y="-15.4" font-family="sans-serif" font-size="14.00" fill="#000000"> &#160;Module</text>
<polygon fill="#80b1d3" stroke="transparent" points="414.5,-10 414.5,-30 434.5,-30 434.5,-10 414.5,-10"/>
<text text-anchor="start" x="438.2812" y="-15.4" font-family="sans-serif" font-size="14.00" fill="#000000"> &#160;Bootstrap</text>
<polygon fill="#fdb462" stroke="transparent" points="511.5,-10 511.5,-30 531.5,-30 531.5,-10 511.5,-10"/>
<text text-anchor="start" x="535.1732" y="-15.4" font-family="sans-serif" font-size="14.00" fill="#000000"> &#160;Providers</text>
<polygon fill="#fb8072" stroke="transparent" points="607.5,-10 607.5,-30 627.5,-30 627.5,-10 607.5,-10"/>
<text text-anchor="start" x="631.2258" y="-15.4" font-family="sans-serif" font-size="14.00" fill="#000000"> &#160;Exports</text>
<g id="clust1" class="cluster">
<title>cluster_AddressBookModule</title>
<polygon fill="none" stroke="#000000" stroke-dasharray="1,5" points="8,-70 8,-268 891,-268 891,-70 8,-70"/>
</g>
<g id="clust2" class="cluster">
<title>cluster_AddressBookModule_declarations</title>
<polygon fill="none" stroke="#000000" points="709,-78 709,-130 883,-130 883,-78 709,-78"/>
</g>
<g id="clust4" class="cluster">
<title>cluster_AddressBookModule_imports</title>
<polygon fill="none" stroke="#000000" points="220,-78 220,-130 701,-130 701,-78 220,-78"/>
</g>
<g id="clust5" class="cluster">
<title>cluster_AddressBookModule_exports</title>
<polygon fill="none" stroke="#000000" points="355,-208 355,-260 533,-260 533,-208 355,-208"/>
</g>
<g id="clust7" class="cluster">
<title>cluster_AddressBookModule_providers</title>
<polygon fill="none" stroke="#000000" points="16,-78 16,-130 212,-130 212,-78 16,-78"/>
</g>
<!-- AddressBookComponent -->
<g id="node1" class="node">
<title>AddressBookComponent</title>
<polygon fill="#ffffb3" stroke="#000000" points="874.5407,-122 717.4593,-122 717.4593,-86 874.5407,-86 874.5407,-122"/>
<text text-anchor="middle" x="796" y="-99.8" font-family="Times,serif" font-size="14.00" fill="#000000">AddressBookComponent</text>
</g>
<!-- AddressBookModule -->
<g id="node2" class="node">
<title>AddressBookModule</title>
<polygon fill="#8dd3c7" stroke="#000000" points="511.7576,-187 508.7576,-191 487.7576,-191 484.7576,-187 376.2424,-187 376.2424,-151 511.7576,-151 511.7576,-187"/>
<text text-anchor="middle" x="444" y="-164.8" font-family="Times,serif" font-size="14.00" fill="#000000">AddressBookModule</text>
</g>
<!-- AddressBookComponent&#45;&gt;AddressBookModule -->
<g id="edge1" class="edge">
<title>AddressBookComponent&#45;&gt;AddressBookModule</title>
<path fill="none" stroke="#000000" d="M796,-122.2843C796,-143.3211 796,-175 796,-175 796,-175 521.8691,-175 521.8691,-175"/>
<polygon fill="#000000" stroke="#000000" points="521.8692,-171.5001 511.8691,-175 521.8691,-178.5001 521.8692,-171.5001"/>
</g>
<!-- AddressBookComponent  -->
<g id="node7" class="node">
<title>AddressBookComponent </title>
<polygon fill="#fb8072" stroke="#000000" points="524.54,-252 363.46,-252 363.46,-216 524.54,-216 524.54,-252"/>
<text text-anchor="middle" x="444" y="-229.8" font-family="Times,serif" font-size="14.00" fill="#000000">AddressBookComponent </text>
</g>
<!-- AddressBookModule&#45;&gt;AddressBookComponent  -->
<g id="edge6" class="edge">
<title>AddressBookModule&#45;&gt;AddressBookComponent </title>
<path fill="none" stroke="#000000" stroke-dasharray="5,2" d="M444,-187.1061C444,-187.1061 444,-205.991 444,-205.991"/>
<polygon fill="#000000" stroke="#000000" points="440.5001,-205.9909 444,-215.991 447.5001,-205.991 440.5001,-205.9909"/>
</g>
<!-- AddressFormModule -->
<g id="node3" class="node">
<title>AddressFormModule</title>
<polygon fill="#8dd3c7" stroke="#000000" points="692.7548,-122 689.7548,-126 668.7548,-126 665.7548,-122 557.2452,-122 557.2452,-86 692.7548,-86 692.7548,-122"/>
<text text-anchor="middle" x="625" y="-99.8" font-family="Times,serif" font-size="14.00" fill="#000000">AddressFormModule</text>
</g>
<!-- AddressFormModule&#45;&gt;AddressBookModule -->
<g id="edge2" class="edge">
<title>AddressFormModule&#45;&gt;AddressBookModule</title>
<path fill="none" stroke="#000000" d="M625,-122.0225C625,-139.3734 625,-163 625,-163 625,-163 521.9127,-163 521.9127,-163"/>
<polygon fill="#000000" stroke="#000000" points="521.9127,-159.5001 511.9127,-163 521.9126,-166.5001 521.9127,-159.5001"/>
</g>
<!-- CardModule -->
<g id="node4" class="node">
<title>CardModule</title>
<polygon fill="#8dd3c7" stroke="#000000" points="539.2619,-122 536.2619,-126 515.2619,-126 512.2619,-122 452.7381,-122 452.7381,-86 539.2619,-86 539.2619,-122"/>
<text text-anchor="middle" x="496" y="-99.8" font-family="Times,serif" font-size="14.00" fill="#000000">CardModule</text>
</g>
<!-- CardModule&#45;&gt;AddressBookModule -->
<g id="edge3" class="edge">
<title>CardModule&#45;&gt;AddressBookModule</title>
<path fill="none" stroke="#000000" d="M482.249,-122.1061C482.249,-122.1061 482.249,-140.991 482.249,-140.991"/>
<polygon fill="#000000" stroke="#000000" points="478.749,-140.9909 482.249,-150.991 485.749,-140.991 478.749,-140.9909"/>
</g>
<!-- I18nModule -->
<g id="node5" class="node">
<title>I18nModule</title>
<polygon fill="#8dd3c7" stroke="#000000" points="434.7107,-122 431.7107,-126 410.7107,-126 407.7107,-122 349.2893,-122 349.2893,-86 434.7107,-86 434.7107,-122"/>
<text text-anchor="middle" x="392" y="-99.8" font-family="Times,serif" font-size="14.00" fill="#000000">I18nModule</text>
</g>
<!-- I18nModule&#45;&gt;AddressBookModule -->
<g id="edge4" class="edge">
<title>I18nModule&#45;&gt;AddressBookModule</title>
<path fill="none" stroke="#000000" d="M405.3633,-122.1061C405.3633,-122.1061 405.3633,-140.991 405.3633,-140.991"/>
<polygon fill="#000000" stroke="#000000" points="401.8633,-140.9909 405.3633,-150.991 408.8633,-140.991 401.8633,-140.9909"/>
</g>
<!-- SpinnerModule -->
<g id="node6" class="node">
<title>SpinnerModule</title>
<polygon fill="#8dd3c7" stroke="#000000" points="331.5982,-122 328.5982,-126 307.5982,-126 304.5982,-122 228.4018,-122 228.4018,-86 331.5982,-86 331.5982,-122"/>
<text text-anchor="middle" x="280" y="-99.8" font-family="Times,serif" font-size="14.00" fill="#000000">SpinnerModule</text>
</g>
<!-- SpinnerModule&#45;&gt;AddressBookModule -->
<g id="edge5" class="edge">
<title>SpinnerModule&#45;&gt;AddressBookModule</title>
<path fill="none" stroke="#000000" d="M280,-122.0225C280,-139.3734 280,-163 280,-163 280,-163 365.874,-163 365.874,-163"/>
<polygon fill="#000000" stroke="#000000" points="365.874,-166.5001 375.874,-163 365.874,-159.5001 365.874,-166.5001"/>
</g>
<!-- UserAddressService -->
<g id="node8" class="node">
<title>UserAddressService</title>
<ellipse fill="#fdb462" stroke="#000000" cx="114" cy="-104" rx="89.7229" ry="18"/>
<text text-anchor="middle" x="114" y="-99.8" font-family="Times,serif" font-size="14.00" fill="#000000">UserAddressService</text>
</g>
<!-- UserAddressService&#45;&gt;AddressBookModule -->
<g id="edge7" class="edge">
<title>UserAddressService&#45;&gt;AddressBookModule</title>
<path fill="none" stroke="#000000" d="M114,-122.2843C114,-143.3211 114,-175 114,-175 114,-175 366.0239,-175 366.0239,-175"/>
<polygon fill="#000000" stroke="#000000" points="366.024,-178.5001 376.0239,-175 366.0239,-171.5001 366.024,-178.5001"/>
</g>
</g>
</svg>
