<?xml version="1.0" encoding="UTF-8" standalone="no"?>
<!DOCTYPE svg PUBLIC "-//W3C//DTD SVG 1.1//EN"
 "http://www.w3.org/Graphics/SVG/1.1/DTD/svg11.dtd">
<!-- Generated by graphviz version 2.47.0 (20210316.0004)
 -->
<!-- Title: dependencies Pages: 1 -->
<svg width="907pt" height="284pt"
 viewBox="0.00 0.00 907.00 284.00" xmlns="http://www.w3.org/2000/svg" xmlns:xlink="http://www.w3.org/1999/xlink">
<g id="graph0" class="graph" transform="scale(1 1) rotate(0) translate(4 280)">
<title>dependencies</title>
<polygon fill="white" stroke="transparent" points="-4,4 -4,-280 903,-280 903,4 -4,4"/>
<text text-anchor="start" x="428.51" y="-42.4" font-family="sans-serif" font-weight="bold" font-size="14.00">Legend</text>
<polygon fill="#ffffb3" stroke="transparent" points="215.5,-10 215.5,-30 235.5,-30 235.5,-10 215.5,-10"/>
<text text-anchor="start" x="239.13" y="-15.4" font-family="sans-serif" font-size="14.00"> &#160;Declarations</text>
<polygon fill="#8dd3c7" stroke="transparent" points="328.5,-10 328.5,-30 348.5,-30 348.5,-10 328.5,-10"/>
<text text-anchor="start" x="352.23" y="-15.4" font-family="sans-serif" font-size="14.00"> &#160;Module</text>
<polygon fill="#80b1d3" stroke="transparent" points="414.5,-10 414.5,-30 434.5,-30 434.5,-10 414.5,-10"/>
<text text-anchor="start" x="438.28" y="-15.4" font-family="sans-serif" font-size="14.00"> &#160;Bootstrap</text>
<polygon fill="#fdb462" stroke="transparent" points="511.5,-10 511.5,-30 531.5,-30 531.5,-10 511.5,-10"/>
<text text-anchor="start" x="535.17" y="-15.4" font-family="sans-serif" font-size="14.00"> &#160;Providers</text>
<polygon fill="#fb8072" stroke="transparent" points="607.5,-10 607.5,-30 627.5,-30 627.5,-10 607.5,-10"/>
<text text-anchor="start" x="631.23" y="-15.4" font-family="sans-serif" font-size="14.00"> &#160;Exports</text>
<g id="clust1" class="cluster">
<title>cluster_AddressBookModule</title>
<polygon fill="none" stroke="black" stroke-dasharray="1,5" points="8,-70 8,-268 891,-268 891,-70 8,-70"/>
</g>
<g id="clust2" class="cluster">
<title>cluster_AddressBookModule_declarations</title>
<polygon fill="none" stroke="black" points="709,-78 709,-130 883,-130 883,-78 709,-78"/>
</g>
<g id="clust4" class="cluster">
<title>cluster_AddressBookModule_imports</title>
<polygon fill="none" stroke="black" points="220,-78 220,-130 701,-130 701,-78 220,-78"/>
</g>
<g id="clust5" class="cluster">
<title>cluster_AddressBookModule_exports</title>
<polygon fill="none" stroke="black" points="355,-208 355,-260 533,-260 533,-208 355,-208"/>
</g>
<g id="clust7" class="cluster">
<title>cluster_AddressBookModule_providers</title>
<polygon fill="none" stroke="black" points="16,-78 16,-130 212,-130 212,-78 16,-78"/>
</g>
<!-- AddressBookComponent -->
<g id="node1" class="node">
<title>AddressBookComponent</title>
<polygon fill="#ffffb3" stroke="black" points="874.54,-122 717.46,-122 717.46,-86 874.54,-86 874.54,-122"/>
<text text-anchor="middle" x="796" y="-99.8" font-family="Times,serif" font-size="14.00">AddressBookComponent</text>
</g>
<!-- AddressBookModule -->
<g id="node2" class="node">
<title>AddressBookModule</title>
<polygon fill="#8dd3c7" stroke="black" points="511.76,-187 508.76,-191 487.76,-191 484.76,-187 376.24,-187 376.24,-151 511.76,-151 511.76,-187"/>
<text text-anchor="middle" x="444" y="-164.8" font-family="Times,serif" font-size="14.00">AddressBookModule</text>
</g>
<!-- AddressBookComponent&#45;&gt;AddressBookModule -->
<g id="edge1" class="edge">
<title>AddressBookComponent&#45;&gt;AddressBookModule</title>
<path fill="none" stroke="black" d="M796,-122.28C796,-143.32 796,-175 796,-175 796,-175 521.87,-175 521.87,-175"/>
<polygon fill="black" stroke="black" points="521.87,-171.5 511.87,-175 521.87,-178.5 521.87,-171.5"/>
</g>
<!-- AddressBookComponent  -->
<g id="node7" class="node">
<title>AddressBookComponent </title>
<polygon fill="#fb8072" stroke="black" points="524.54,-252 363.46,-252 363.46,-216 524.54,-216 524.54,-252"/>
<text text-anchor="middle" x="444" y="-229.8" font-family="Times,serif" font-size="14.00">AddressBookComponent </text>
</g>
<!-- AddressBookModule&#45;&gt;AddressBookComponent  -->
<g id="edge6" class="edge">
<title>AddressBookModule&#45;&gt;AddressBookComponent </title>
<path fill="none" stroke="black" stroke-dasharray="5,2" d="M444,-187.11C444,-187.11 444,-205.99 444,-205.99"/>
<polygon fill="black" stroke="black" points="440.5,-205.99 444,-215.99 447.5,-205.99 440.5,-205.99"/>
</g>
<!-- AddressFormModule -->
<g id="node3" class="node">
<title>AddressFormModule</title>
<polygon fill="#8dd3c7" stroke="black" points="692.75,-122 689.75,-126 668.75,-126 665.75,-122 557.25,-122 557.25,-86 692.75,-86 692.75,-122"/>
<text text-anchor="middle" x="625" y="-99.8" font-family="Times,serif" font-size="14.00">AddressFormModule</text>
</g>
<!-- AddressFormModule&#45;&gt;AddressBookModule -->
<g id="edge2" class="edge">
<title>AddressFormModule&#45;&gt;AddressBookModule</title>
<path fill="none" stroke="black" d="M625,-122.02C625,-139.37 625,-163 625,-163 625,-163 521.91,-163 521.91,-163"/>
<polygon fill="black" stroke="black" points="521.91,-159.5 511.91,-163 521.91,-166.5 521.91,-159.5"/>
</g>
<!-- CardModule -->
<g id="node4" class="node">
<title>CardModule</title>
<polygon fill="#8dd3c7" stroke="black" points="539.26,-122 536.26,-126 515.26,-126 512.26,-122 452.74,-122 452.74,-86 539.26,-86 539.26,-122"/>
<text text-anchor="middle" x="496" y="-99.8" font-family="Times,serif" font-size="14.00">CardModule</text>
</g>
<!-- CardModule&#45;&gt;AddressBookModule -->
<g id="edge3" class="edge">
<title>CardModule&#45;&gt;AddressBookModule</title>
<path fill="none" stroke="black" d="M482.25,-122.11C482.25,-122.11 482.25,-140.99 482.25,-140.99"/>
<polygon fill="black" stroke="black" points="478.75,-140.99 482.25,-150.99 485.75,-140.99 478.75,-140.99"/>
</g>
<!-- I18nModule -->
<g id="node5" class="node">
<title>I18nModule</title>
<polygon fill="#8dd3c7" stroke="black" points="434.71,-122 431.71,-126 410.71,-126 407.71,-122 349.29,-122 349.29,-86 434.71,-86 434.71,-122"/>
<text text-anchor="middle" x="392" y="-99.8" font-family="Times,serif" font-size="14.00">I18nModule</text>
</g>
<!-- I18nModule&#45;&gt;AddressBookModule -->
<g id="edge4" class="edge">
<title>I18nModule&#45;&gt;AddressBookModule</title>
<path fill="none" stroke="black" d="M405.36,-122.11C405.36,-122.11 405.36,-140.99 405.36,-140.99"/>
<polygon fill="black" stroke="black" points="401.86,-140.99 405.36,-150.99 408.86,-140.99 401.86,-140.99"/>
</g>
<!-- SpinnerModule -->
<g id="node6" class="node">
<title>SpinnerModule</title>
<polygon fill="#8dd3c7" stroke="black" points="331.6,-122 328.6,-126 307.6,-126 304.6,-122 228.4,-122 228.4,-86 331.6,-86 331.6,-122"/>
<text text-anchor="middle" x="280" y="-99.8" font-family="Times,serif" font-size="14.00">SpinnerModule</text>
</g>
<!-- SpinnerModule&#45;&gt;AddressBookModule -->
<g id="edge5" class="edge">
<title>SpinnerModule&#45;&gt;AddressBookModule</title>
<path fill="none" stroke="black" d="M280,-122.02C280,-139.37 280,-163 280,-163 280,-163 365.87,-163 365.87,-163"/>
<polygon fill="black" stroke="black" points="365.87,-166.5 375.87,-163 365.87,-159.5 365.87,-166.5"/>
</g>
<!-- UserAddressService -->
<g id="node8" class="node">
<title>UserAddressService</title>
<ellipse fill="#fdb462" stroke="black" cx="114" cy="-104" rx="89.72" ry="18"/>
<text text-anchor="middle" x="114" y="-99.8" font-family="Times,serif" font-size="14.00">UserAddressService</text>
</g>
<!-- UserAddressService&#45;&gt;AddressBookModule -->
<g id="edge7" class="edge">
<title>UserAddressService&#45;&gt;AddressBookModule</title>
<path fill="none" stroke="black" d="M114,-122.28C114,-143.32 114,-175 114,-175 114,-175 366.02,-175 366.02,-175"/>
<polygon fill="black" stroke="black" points="366.02,-178.5 376.02,-175 366.02,-171.5 366.02,-178.5"/>
</g>
</g>
</svg>
