<?xml version="1.0" encoding="UTF-8" standalone="no"?>
<!DOCTYPE svg PUBLIC "-//W3C//DTD SVG 1.1//EN"
 "http://www.w3.org/Graphics/SVG/1.1/DTD/svg11.dtd">
<!-- Generated by graphviz version 2.47.3 (20210619.1520)
 -->
<!-- Title: dependencies Pages: 1 -->
<svg width="907pt" height="247pt"
 viewBox="0.00 0.00 907.00 246.80" xmlns="http://www.w3.org/2000/svg" xmlns:xlink="http://www.w3.org/1999/xlink">
<g id="graph0" class="graph" transform="scale(1 1) rotate(0) translate(4 242.8)">
<title>dependencies</title>
<polygon fill="white" stroke="transparent" points="-4,4 -4,-242.8 903,-242.8 903,4 -4,4"/>
<text text-anchor="middle" x="449.5" y="-8.2" font-family="sans-serif" font-size="14.00">dependencies</text>
<g id="clust1" class="cluster">
<title>cluster_AddressBookModule</title>
<polygon fill="none" stroke="black" stroke-dasharray="1,5" points="8,-32.8 8,-230.8 891,-230.8 891,-32.8 8,-32.8"/>
</g>
<g id="clust2" class="cluster">
<title>cluster_AddressBookModule_declarations</title>
<polygon fill="none" stroke="black" points="709,-40.8 709,-92.8 883,-92.8 883,-40.8 709,-40.8"/>
</g>
<g id="clust4" class="cluster">
<title>cluster_AddressBookModule_imports</title>
<polygon fill="none" stroke="black" points="220,-40.8 220,-92.8 701,-92.8 701,-40.8 220,-40.8"/>
</g>
<g id="clust5" class="cluster">
<title>cluster_AddressBookModule_exports</title>
<polygon fill="none" stroke="black" points="355,-170.8 355,-222.8 533,-222.8 533,-170.8 355,-170.8"/>
</g>
<g id="clust7" class="cluster">
<title>cluster_AddressBookModule_providers</title>
<polygon fill="none" stroke="black" points="16,-40.8 16,-92.8 212,-92.8 212,-40.8 16,-40.8"/>
</g>
<!-- AddressBookComponent -->
<g id="node1" class="node">
<title>AddressBookComponent</title>
<polygon fill="#ffffb3" stroke="black" points="874.54,-84.8 717.46,-84.8 717.46,-48.8 874.54,-48.8 874.54,-84.8"/>
<text text-anchor="middle" x="796" y="-62.6" font-family="Times,serif" font-size="14.00">AddressBookComponent</text>
</g>
<!-- AddressBookModule -->
<g id="node2" class="node">
<title>AddressBookModule</title>
<polygon fill="#8dd3c7" stroke="black" points="511.76,-149.8 508.76,-153.8 487.76,-153.8 484.76,-149.8 376.24,-149.8 376.24,-113.8 511.76,-113.8 511.76,-149.8"/>
<text text-anchor="middle" x="444" y="-127.6" font-family="Times,serif" font-size="14.00">AddressBookModule</text>
</g>
<!-- AddressBookComponent&#45;&gt;AddressBookModule -->
<g id="edge1" class="edge">
<title>AddressBookComponent&#45;&gt;AddressBookModule</title>
<path fill="none" stroke="black" d="M796,-85.08C796,-106.12 796,-137.8 796,-137.8 796,-137.8 521.87,-137.8 521.87,-137.8"/>
<polygon fill="black" stroke="black" points="521.87,-134.3 511.87,-137.8 521.87,-141.3 521.87,-134.3"/>
</g>
<!-- AddressBookComponent  -->
<g id="node7" class="node">
<title>AddressBookComponent </title>
<polygon fill="#fb8072" stroke="black" points="524.54,-214.8 363.46,-214.8 363.46,-178.8 524.54,-178.8 524.54,-214.8"/>
<text text-anchor="middle" x="444" y="-192.6" font-family="Times,serif" font-size="14.00">AddressBookComponent </text>
</g>
<!-- AddressBookModule&#45;&gt;AddressBookComponent  -->
<g id="edge6" class="edge">
<title>AddressBookModule&#45;&gt;AddressBookComponent </title>
<path fill="none" stroke="black" stroke-dasharray="5,2" d="M444,-149.91C444,-149.91 444,-168.79 444,-168.79"/>
<polygon fill="black" stroke="black" points="440.5,-168.79 444,-178.79 447.5,-168.79 440.5,-168.79"/>
</g>
<!-- AddressFormModule -->
<g id="node3" class="node">
<title>AddressFormModule</title>
<polygon fill="#8dd3c7" stroke="black" points="692.75,-84.8 689.75,-88.8 668.75,-88.8 665.75,-84.8 557.25,-84.8 557.25,-48.8 692.75,-48.8 692.75,-84.8"/>
<text text-anchor="middle" x="625" y="-62.6" font-family="Times,serif" font-size="14.00">AddressFormModule</text>
</g>
<!-- AddressFormModule&#45;&gt;AddressBookModule -->
<g id="edge2" class="edge">
<title>AddressFormModule&#45;&gt;AddressBookModule</title>
<path fill="none" stroke="black" d="M625,-84.82C625,-102.17 625,-125.8 625,-125.8 625,-125.8 521.91,-125.8 521.91,-125.8"/>
<polygon fill="black" stroke="black" points="521.91,-122.3 511.91,-125.8 521.91,-129.3 521.91,-122.3"/>
</g>
<!-- CardModule -->
<g id="node4" class="node">
<title>CardModule</title>
<polygon fill="#8dd3c7" stroke="black" points="539.26,-84.8 536.26,-88.8 515.26,-88.8 512.26,-84.8 452.74,-84.8 452.74,-48.8 539.26,-48.8 539.26,-84.8"/>
<text text-anchor="middle" x="496" y="-62.6" font-family="Times,serif" font-size="14.00">CardModule</text>
</g>
<!-- CardModule&#45;&gt;AddressBookModule -->
<g id="edge3" class="edge">
<title>CardModule&#45;&gt;AddressBookModule</title>
<path fill="none" stroke="black" d="M482.25,-84.91C482.25,-84.91 482.25,-103.79 482.25,-103.79"/>
<polygon fill="black" stroke="black" points="478.75,-103.79 482.25,-113.79 485.75,-103.79 478.75,-103.79"/>
</g>
<!-- I18nModule -->
<g id="node5" class="node">
<title>I18nModule</title>
<polygon fill="#8dd3c7" stroke="black" points="434.71,-84.8 431.71,-88.8 410.71,-88.8 407.71,-84.8 349.29,-84.8 349.29,-48.8 434.71,-48.8 434.71,-84.8"/>
<text text-anchor="middle" x="392" y="-62.6" font-family="Times,serif" font-size="14.00">I18nModule</text>
</g>
<!-- I18nModule&#45;&gt;AddressBookModule -->
<g id="edge4" class="edge">
<title>I18nModule&#45;&gt;AddressBookModule</title>
<path fill="none" stroke="black" d="M405.36,-84.91C405.36,-84.91 405.36,-103.79 405.36,-103.79"/>
<polygon fill="black" stroke="black" points="401.86,-103.79 405.36,-113.79 408.86,-103.79 401.86,-103.79"/>
</g>
<!-- SpinnerModule -->
<g id="node6" class="node">
<title>SpinnerModule</title>
<polygon fill="#8dd3c7" stroke="black" points="331.6,-84.8 328.6,-88.8 307.6,-88.8 304.6,-84.8 228.4,-84.8 228.4,-48.8 331.6,-48.8 331.6,-84.8"/>
<text text-anchor="middle" x="280" y="-62.6" font-family="Times,serif" font-size="14.00">SpinnerModule</text>
</g>
<!-- SpinnerModule&#45;&gt;AddressBookModule -->
<g id="edge5" class="edge">
<title>SpinnerModule&#45;&gt;AddressBookModule</title>
<path fill="none" stroke="black" d="M280,-84.82C280,-102.17 280,-125.8 280,-125.8 280,-125.8 365.87,-125.8 365.87,-125.8"/>
<polygon fill="black" stroke="black" points="365.87,-129.3 375.87,-125.8 365.87,-122.3 365.87,-129.3"/>
</g>
<!-- UserAddressService -->
<g id="node8" class="node">
<title>UserAddressService</title>
<ellipse fill="#fdb462" stroke="black" cx="114" cy="-66.8" rx="89.72" ry="18"/>
<text text-anchor="middle" x="114" y="-62.6" font-family="Times,serif" font-size="14.00">UserAddressService</text>
</g>
<!-- UserAddressService&#45;&gt;AddressBookModule -->
<g id="edge7" class="edge">
<title>UserAddressService&#45;&gt;AddressBookModule</title>
<path fill="none" stroke="black" d="M114,-85.08C114,-106.12 114,-137.8 114,-137.8 114,-137.8 366.02,-137.8 366.02,-137.8"/>
<polygon fill="black" stroke="black" points="366.02,-141.3 376.02,-137.8 366.02,-134.3 366.02,-141.3"/>
</g>
</g>
</svg>
