<?xml version="1.0" encoding="UTF-8" standalone="no"?>
<!DOCTYPE svg PUBLIC "-//W3C//DTD SVG 1.1//EN"
 "http://www.w3.org/Graphics/SVG/1.1/DTD/svg11.dtd">
<!-- Generated by graphviz version 2.40.1 (20161225.0304)
 -->
<!-- Title: dependencies Pages: 1 -->
<svg width="1489pt" height="284pt"
 viewBox="0.00 0.00 1489.00 284.00" xmlns="http://www.w3.org/2000/svg" xmlns:xlink="http://www.w3.org/1999/xlink">
<g id="graph0" class="graph" transform="scale(1 1) rotate(0) translate(4 280)">
<title>dependencies</title>
<polygon fill="#ffffff" stroke="transparent" points="-4,4 -4,-280 1485,-280 1485,4 -4,4"/>
<text text-anchor="start" x="719.5091" y="-42.4" font-family="sans-serif" font-weight="bold" font-size="14.00" fill="#000000">Legend</text>
<polygon fill="#ffffb3" stroke="transparent" points="506.5,-10 506.5,-30 526.5,-30 526.5,-10 506.5,-10"/>
<text text-anchor="start" x="530.129" y="-15.4" font-family="sans-serif" font-size="14.00" fill="#000000"> &#160;Declarations</text>
<polygon fill="#8dd3c7" stroke="transparent" points="619.5,-10 619.5,-30 639.5,-30 639.5,-10 619.5,-10"/>
<text text-anchor="start" x="643.2251" y="-15.4" font-family="sans-serif" font-size="14.00" fill="#000000"> &#160;Module</text>
<polygon fill="#80b1d3" stroke="transparent" points="705.5,-10 705.5,-30 725.5,-30 725.5,-10 705.5,-10"/>
<text text-anchor="start" x="729.2812" y="-15.4" font-family="sans-serif" font-size="14.00" fill="#000000"> &#160;Bootstrap</text>
<polygon fill="#fdb462" stroke="transparent" points="802.5,-10 802.5,-30 822.5,-30 822.5,-10 802.5,-10"/>
<text text-anchor="start" x="826.1732" y="-15.4" font-family="sans-serif" font-size="14.00" fill="#000000"> &#160;Providers</text>
<polygon fill="#fb8072" stroke="transparent" points="898.5,-10 898.5,-30 918.5,-30 918.5,-10 898.5,-10"/>
<text text-anchor="start" x="922.2258" y="-15.4" font-family="sans-serif" font-size="14.00" fill="#000000"> &#160;Exports</text>
<g id="clust1" class="cluster">
<title>cluster_AddressBookModule</title>
<polygon fill="none" stroke="#000000" stroke-dasharray="1,5" points="8,-70 8,-268 1473,-268 1473,-70 8,-70"/>
</g>
<g id="clust2" class="cluster">
<title>cluster_AddressBookModule_declarations</title>
<polygon fill="none" stroke="#000000" points="1119,-78 1119,-130 1465,-130 1465,-78 1119,-78"/>
</g>
<g id="clust5" class="cluster">
<title>cluster_AddressBookModule_imports</title>
<polygon fill="none" stroke="#000000" points="513,-78 513,-130 1111,-130 1111,-78 513,-78"/>
</g>
<g id="clust6" class="cluster">
<title>cluster_AddressBookModule_exports</title>
<polygon fill="none" stroke="#000000" points="620,-208 620,-260 973,-260 973,-208 620,-208"/>
</g>
<g id="clust8" class="cluster">
<title>cluster_AddressBookModule_providers</title>
<polygon fill="none" stroke="#000000" points="16,-78 16,-130 505,-130 505,-78 16,-78"/>
</g>
<!-- AddressBookComponent -->
<g id="node1" class="node">
<title>AddressBookComponent</title>
<polygon fill="#ffffb3" stroke="#000000" points="1456.5407,-122 1299.4593,-122 1299.4593,-86 1456.5407,-86 1456.5407,-122"/>
<text text-anchor="middle" x="1378" y="-99.8" font-family="Times,serif" font-size="14.00" fill="#000000">AddressBookComponent</text>
</g>
<!-- AddressBookModule -->
<g id="node3" class="node">
<title>AddressBookModule</title>
<polygon fill="#8dd3c7" stroke="#000000" points="862.7576,-187 859.7576,-191 838.7576,-191 835.7576,-187 727.2424,-187 727.2424,-151 862.7576,-151 862.7576,-187"/>
<text text-anchor="middle" x="795" y="-164.8" font-family="Times,serif" font-size="14.00" fill="#000000">AddressBookModule</text>
</g>
<!-- AddressBookComponent&#45;&gt;AddressBookModule -->
<g id="edge1" class="edge">
<title>AddressBookComponent&#45;&gt;AddressBookModule</title>
<path fill="none" stroke="#000000" d="M1378,-122.2921C1378,-144.2057 1378,-178 1378,-178 1378,-178 873.0185,-178 873.0185,-178"/>
<polygon fill="#000000" stroke="#000000" points="873.0185,-174.5001 863.0185,-178 873.0185,-181.5001 873.0185,-174.5001"/>
</g>
<!-- AddressCardComponent -->
<g id="node2" class="node">
<title>AddressCardComponent</title>
<polygon fill="#ffffb3" stroke="#000000" points="1281.4158,-122 1126.5842,-122 1126.5842,-86 1281.4158,-86 1281.4158,-122"/>
<text text-anchor="middle" x="1204" y="-99.8" font-family="Times,serif" font-size="14.00" fill="#000000">AddressCardComponent</text>
</g>
<!-- AddressCardComponent&#45;&gt;AddressBookModule -->
<g id="edge2" class="edge">
<title>AddressCardComponent&#45;&gt;AddressBookModule</title>
<path fill="none" stroke="#000000" d="M1204,-122.1061C1204,-141.3391 1204,-169 1204,-169 1204,-169 872.9972,-169 872.9972,-169"/>
<polygon fill="#000000" stroke="#000000" points="872.9972,-165.5001 862.9972,-169 872.9971,-172.5001 872.9972,-165.5001"/>
</g>
<!-- AddressBookComponent  -->
<g id="node9" class="node">
<title>AddressBookComponent </title>
<polygon fill="#fb8072" stroke="#000000" points="964.54,-252 803.46,-252 803.46,-216 964.54,-216 964.54,-252"/>
<text text-anchor="middle" x="884" y="-229.8" font-family="Times,serif" font-size="14.00" fill="#000000">AddressBookComponent </text>
</g>
<!-- AddressBookModule&#45;&gt;AddressBookComponent  -->
<g id="edge8" class="edge">
<title>AddressBookModule&#45;&gt;AddressBookComponent </title>
<path fill="none" stroke="#000000" stroke-dasharray="5,2" d="M833.1794,-187.1061C833.1794,-187.1061 833.1794,-205.991 833.1794,-205.991"/>
<polygon fill="#000000" stroke="#000000" points="829.6794,-205.9909 833.1794,-215.991 836.6794,-205.991 829.6794,-205.9909"/>
</g>
<!-- AddressCardComponent  -->
<g id="node10" class="node">
<title>AddressCardComponent </title>
<polygon fill="#fb8072" stroke="#000000" points="785.9152,-252 628.0848,-252 628.0848,-216 785.9152,-216 785.9152,-252"/>
<text text-anchor="middle" x="707" y="-229.8" font-family="Times,serif" font-size="14.00" fill="#000000">AddressCardComponent </text>
</g>
<!-- AddressBookModule&#45;&gt;AddressCardComponent  -->
<g id="edge9" class="edge">
<title>AddressBookModule&#45;&gt;AddressCardComponent </title>
<path fill="none" stroke="#000000" stroke-dasharray="5,2" d="M756.5395,-187.1061C756.5395,-187.1061 756.5395,-205.991 756.5395,-205.991"/>
<polygon fill="#000000" stroke="#000000" points="753.0395,-205.9909 756.5395,-215.991 760.0395,-205.991 753.0395,-205.9909"/>
</g>
<!-- AddressFormModule -->
<g id="node4" class="node">
<title>AddressFormModule</title>
<polygon fill="#8dd3c7" stroke="#000000" points="1102.7548,-122 1099.7548,-126 1078.7548,-126 1075.7548,-122 967.2452,-122 967.2452,-86 1102.7548,-86 1102.7548,-122"/>
<text text-anchor="middle" x="1035" y="-99.8" font-family="Times,serif" font-size="14.00" fill="#000000">AddressFormModule</text>
</g>
<!-- AddressFormModule&#45;&gt;AddressBookModule -->
<g id="edge3" class="edge">
<title>AddressFormModule&#45;&gt;AddressBookModule</title>
<path fill="none" stroke="#000000" d="M1035,-122.027C1035,-138.3976 1035,-160 1035,-160 1035,-160 872.812,-160 872.812,-160"/>
<polygon fill="#000000" stroke="#000000" points="872.8121,-156.5001 862.812,-160 872.812,-163.5001 872.8121,-156.5001"/>
</g>
<!-- CardModule -->
<g id="node5" class="node">
<title>CardModule</title>
<polygon fill="#8dd3c7" stroke="#000000" points="949.2619,-122 946.2619,-126 925.2619,-126 922.2619,-122 862.7381,-122 862.7381,-86 949.2619,-86 949.2619,-122"/>
<text text-anchor="middle" x="906" y="-99.8" font-family="Times,serif" font-size="14.00" fill="#000000">CardModule</text>
</g>
<!-- CardModule&#45;&gt;AddressBookModule -->
<g id="edge4" class="edge">
<title>CardModule&#45;&gt;AddressBookModule</title>
<path fill="none" stroke="#000000" d="M862.5779,-104C857.1289,-104 853.419,-104 853.419,-104 853.419,-104 853.419,-140.8939 853.419,-140.8939"/>
<polygon fill="#000000" stroke="#000000" points="849.9191,-140.8938 853.419,-150.8939 856.9191,-140.8939 849.9191,-140.8938"/>
</g>
<!-- ConfigModule -->
<g id="node6" class="node">
<title>ConfigModule</title>
<polygon fill="#8dd3c7" stroke="#000000" points="844.4386,-122 841.4386,-126 820.4386,-126 817.4386,-122 745.5614,-122 745.5614,-86 844.4386,-86 844.4386,-122"/>
<text text-anchor="middle" x="795" y="-99.8" font-family="Times,serif" font-size="14.00" fill="#000000">ConfigModule</text>
</g>
<!-- ConfigModule&#45;&gt;AddressBookModule -->
<g id="edge5" class="edge">
<title>ConfigModule&#45;&gt;AddressBookModule</title>
<path fill="none" stroke="#000000" d="M795,-122.1061C795,-122.1061 795,-140.991 795,-140.991"/>
<polygon fill="#000000" stroke="#000000" points="791.5001,-140.9909 795,-150.991 798.5001,-140.991 791.5001,-140.9909"/>
</g>
<!-- I18nModule -->
<g id="node7" class="node">
<title>I18nModule</title>
<polygon fill="#8dd3c7" stroke="#000000" points="727.7107,-122 724.7107,-126 703.7107,-126 700.7107,-122 642.2893,-122 642.2893,-86 727.7107,-86 727.7107,-122"/>
<text text-anchor="middle" x="685" y="-99.8" font-family="Times,serif" font-size="14.00" fill="#000000">I18nModule</text>
</g>
<!-- I18nModule&#45;&gt;AddressBookModule -->
<g id="edge6" class="edge">
<title>I18nModule&#45;&gt;AddressBookModule</title>
<path fill="none" stroke="#000000" d="M727.6889,-104C733.0459,-104 736.6932,-104 736.6932,-104 736.6932,-104 736.6932,-140.8939 736.6932,-140.8939"/>
<polygon fill="#000000" stroke="#000000" points="733.1933,-140.8938 736.6932,-150.8939 740.1933,-140.8939 733.1933,-140.8938"/>
</g>
<!-- SpinnerModule -->
<g id="node8" class="node">
<title>SpinnerModule</title>
<polygon fill="#8dd3c7" stroke="#000000" points="624.5982,-122 621.5982,-126 600.5982,-126 597.5982,-122 521.4018,-122 521.4018,-86 624.5982,-86 624.5982,-122"/>
<text text-anchor="middle" x="573" y="-99.8" font-family="Times,serif" font-size="14.00" fill="#000000">SpinnerModule</text>
</g>
<!-- SpinnerModule&#45;&gt;AddressBookModule -->
<g id="edge7" class="edge">
<title>SpinnerModule&#45;&gt;AddressBookModule</title>
<path fill="none" stroke="#000000" d="M573,-122.027C573,-138.3976 573,-160 573,-160 573,-160 717.1864,-160 717.1864,-160"/>
<polygon fill="#000000" stroke="#000000" points="717.1864,-163.5001 727.1864,-160 717.1864,-156.5001 717.1864,-163.5001"/>
</g>
<!-- AddressBookComponentService -->
<g id="node11" class="node">
<title>AddressBookComponentService</title>
<ellipse fill="#fdb462" stroke="#000000" cx="359" cy="-104" rx="137.7473" ry="18"/>
<text text-anchor="middle" x="359" y="-99.8" font-family="Times,serif" font-size="14.00" fill="#000000">AddressBookComponentService</text>
</g>
<!-- AddressBookComponentService&#45;&gt;AddressBookModule -->
<g id="edge10" class="edge">
<title>AddressBookComponentService&#45;&gt;AddressBookModule</title>
<path fill="none" stroke="#000000" d="M359,-122.1061C359,-141.3391 359,-169 359,-169 359,-169 716.875,-169 716.875,-169"/>
<polygon fill="#000000" stroke="#000000" points="716.875,-172.5001 726.875,-169 716.875,-165.5001 716.875,-172.5001"/>
</g>
<!-- UserAddressService -->
<g id="node12" class="node">
<title>UserAddressService</title>
<ellipse fill="#fdb462" stroke="#000000" cx="114" cy="-104" rx="89.7229" ry="18"/>
<text text-anchor="middle" x="114" y="-99.8" font-family="Times,serif" font-size="14.00" fill="#000000">UserAddressService</text>
</g>
<!-- UserAddressService&#45;&gt;AddressBookModule -->
<g id="edge11" class="edge">
<title>UserAddressService&#45;&gt;AddressBookModule</title>
<path fill="none" stroke="#000000" d="M114,-122.2921C114,-144.2057 114,-178 114,-178 114,-178 717.2134,-178 717.2134,-178"/>
<polygon fill="#000000" stroke="#000000" points="717.2135,-181.5001 727.2134,-178 717.2134,-174.5001 717.2135,-181.5001"/>
</g>
</g>
</svg>
