<?xml version="1.0" encoding="UTF-8" standalone="no"?>
<!DOCTYPE svg PUBLIC "-//W3C//DTD SVG 1.1//EN"
 "http://www.w3.org/Graphics/SVG/1.1/DTD/svg11.dtd">
<!-- Generated by graphviz version 2.40.1 (20161225.0304)
 -->
<!-- Title: dependencies Pages: 1 -->
<svg width="504pt" height="284pt"
 viewBox="0.00 0.00 504.00 284.00" xmlns="http://www.w3.org/2000/svg" xmlns:xlink="http://www.w3.org/1999/xlink">
<g id="graph0" class="graph" transform="scale(1 1) rotate(0) translate(4 280)">
<title>dependencies</title>
<polygon fill="#ffffff" stroke="transparent" points="-4,4 -4,-280 500,-280 500,4 -4,4"/>
<text text-anchor="start" x="227.0091" y="-42.4" font-family="sans-serif" font-weight="bold" font-size="14.00" fill="#000000">Legend</text>
<polygon fill="#ffffb3" stroke="transparent" points="14,-10 14,-30 34,-30 34,-10 14,-10"/>
<text text-anchor="start" x="37.629" y="-15.4" font-family="sans-serif" font-size="14.00" fill="#000000"> &#160;Declarations</text>
<polygon fill="#8dd3c7" stroke="transparent" points="127,-10 127,-30 147,-30 147,-10 127,-10"/>
<text text-anchor="start" x="150.7251" y="-15.4" font-family="sans-serif" font-size="14.00" fill="#000000"> &#160;Module</text>
<polygon fill="#80b1d3" stroke="transparent" points="213,-10 213,-30 233,-30 233,-10 213,-10"/>
<text text-anchor="start" x="236.7812" y="-15.4" font-family="sans-serif" font-size="14.00" fill="#000000"> &#160;Bootstrap</text>
<polygon fill="#fdb462" stroke="transparent" points="310,-10 310,-30 330,-30 330,-10 310,-10"/>
<text text-anchor="start" x="333.6732" y="-15.4" font-family="sans-serif" font-size="14.00" fill="#000000"> &#160;Providers</text>
<polygon fill="#fb8072" stroke="transparent" points="406,-10 406,-30 426,-30 426,-10 406,-10"/>
<text text-anchor="start" x="429.7258" y="-15.4" font-family="sans-serif" font-size="14.00" fill="#000000"> &#160;Exports</text>
<g id="clust1" class="cluster">
<title>cluster_StoreFinderPageModule</title>
<polygon fill="none" stroke="#000000" stroke-dasharray="1,5" points="37,-70 37,-268 459,-268 459,-70 37,-70"/>
</g>
<g id="clust2" class="cluster">
<title>cluster_StoreFinderPageModule_declarations</title>
<polygon fill="none" stroke="#000000" points="261,-78 261,-130 451,-130 451,-78 261,-78"/>
</g>
<g id="clust4" class="cluster">
<title>cluster_StoreFinderPageModule_imports</title>
<polygon fill="none" stroke="#000000" points="45,-78 45,-130 253,-130 253,-78 45,-78"/>
</g>
<g id="clust5" class="cluster">
<title>cluster_StoreFinderPageModule_exports</title>
<polygon fill="none" stroke="#000000" points="154,-208 154,-260 348,-260 348,-208 154,-208"/>
</g>
<!-- StoreFinderPageComponent -->
<g id="node1" class="node">
<title>StoreFinderPageComponent</title>
<polygon fill="#ffffb3" stroke="#000000" points="443.1414,-122 268.8586,-122 268.8586,-86 443.1414,-86 443.1414,-122"/>
<text text-anchor="middle" x="356" y="-99.8" font-family="Times,serif" font-size="14.00" fill="#000000">StoreFinderPageComponent</text>
</g>
<!-- StoreFinderPageModule -->
<g id="node2" class="node">
<title>StoreFinderPageModule</title>
<polygon fill="#8dd3c7" stroke="#000000" points="327.3585,-187 324.3585,-191 303.3585,-191 300.3585,-187 174.6415,-187 174.6415,-151 327.3585,-151 327.3585,-187"/>
<text text-anchor="middle" x="251" y="-164.8" font-family="Times,serif" font-size="14.00" fill="#000000">StoreFinderPageModule</text>
</g>
<!-- StoreFinderPageComponent&#45;&gt;StoreFinderPageModule -->
<g id="edge1" class="edge">
<title>StoreFinderPageComponent&#45;&gt;StoreFinderPageModule</title>
<path fill="none" stroke="#000000" d="M298.0544,-122.1061C298.0544,-122.1061 298.0544,-140.991 298.0544,-140.991"/>
<polygon fill="#000000" stroke="#000000" points="294.5544,-140.9909 298.0544,-150.991 301.5544,-140.991 294.5544,-140.9909"/>
</g>
<!-- StoreFinderPageComponent  -->
<g id="node4" class="node">
<title>StoreFinderPageComponent </title>
<polygon fill="#fb8072" stroke="#000000" points="340.1411,-252 161.8589,-252 161.8589,-216 340.1411,-216 340.1411,-252"/>
<text text-anchor="middle" x="251" y="-229.8" font-family="Times,serif" font-size="14.00" fill="#000000">StoreFinderPageComponent </text>
</g>
<!-- StoreFinderPageModule&#45;&gt;StoreFinderPageComponent  -->
<g id="edge3" class="edge">
<title>StoreFinderPageModule&#45;&gt;StoreFinderPageComponent </title>
<path fill="none" stroke="#000000" stroke-dasharray="5,2" d="M251,-187.1061C251,-187.1061 251,-205.991 251,-205.991"/>
<polygon fill="#000000" stroke="#000000" points="247.5001,-205.9909 251,-215.991 254.5001,-205.991 247.5001,-205.9909"/>
</g>
<!-- StoreFinderPageLayoutModule -->
<g id="node3" class="node">
<title>StoreFinderPageLayoutModule</title>
<polygon fill="#8dd3c7" stroke="#000000" points="245.0168,-122 242.0168,-126 221.0168,-126 218.0168,-122 52.9832,-122 52.9832,-86 245.0168,-86 245.0168,-122"/>
<text text-anchor="middle" x="149" y="-99.8" font-family="Times,serif" font-size="14.00" fill="#000000">StoreFinderPageLayoutModule</text>
</g>
<!-- StoreFinderPageLayoutModule&#45;&gt;StoreFinderPageModule -->
<g id="edge2" class="edge">
<title>StoreFinderPageLayoutModule&#45;&gt;StoreFinderPageModule</title>
<path fill="none" stroke="#000000" d="M209.9145,-122.1061C209.9145,-122.1061 209.9145,-140.991 209.9145,-140.991"/>
<polygon fill="#000000" stroke="#000000" points="206.4145,-140.9909 209.9145,-150.991 213.4145,-140.991 206.4145,-140.9909"/>
</g>
</g>
</svg>
