<?xml version="1.0" encoding="UTF-8" standalone="no"?>
<!DOCTYPE svg PUBLIC "-//W3C//DTD SVG 1.1//EN"
 "http://www.w3.org/Graphics/SVG/1.1/DTD/svg11.dtd">
<!-- Generated by graphviz version 2.40.1 (20161225.0304)
 -->
<!-- Title: dependencies Pages: 1 -->
<svg width="504pt" height="211pt"
 viewBox="0.00 0.00 504.00 211.00" xmlns="http://www.w3.org/2000/svg" xmlns:xlink="http://www.w3.org/1999/xlink">
<g id="graph0" class="graph" transform="scale(1 1) rotate(0) translate(4 207)">
<title>dependencies</title>
<polygon fill="#ffffff" stroke="transparent" points="-4,4 -4,-207 500,-207 500,4 -4,4"/>
<text text-anchor="start" x="227.0091" y="-42.4" font-family="sans-serif" font-weight="bold" font-size="14.00" fill="#000000">Legend</text>
<polygon fill="#ffffb3" stroke="transparent" points="14,-10 14,-30 34,-30 34,-10 14,-10"/>
<text text-anchor="start" x="37.629" y="-15.4" font-family="sans-serif" font-size="14.00" fill="#000000"> &#160;Declarations</text>
<polygon fill="#8dd3c7" stroke="transparent" points="127,-10 127,-30 147,-30 147,-10 127,-10"/>
<text text-anchor="start" x="150.7251" y="-15.4" font-family="sans-serif" font-size="14.00" fill="#000000"> &#160;Module</text>
<polygon fill="#80b1d3" stroke="transparent" points="213,-10 213,-30 233,-30 233,-10 213,-10"/>
<text text-anchor="start" x="236.7812" y="-15.4" font-family="sans-serif" font-size="14.00" fill="#000000"> &#160;Bootstrap</text>
<polygon fill="#fdb462" stroke="transparent" points="310,-10 310,-30 330,-30 330,-10 310,-10"/>
<text text-anchor="start" x="333.6732" y="-15.4" font-family="sans-serif" font-size="14.00" fill="#000000"> &#160;Providers</text>
<polygon fill="#fb8072" stroke="transparent" points="406,-10 406,-30 426,-30 426,-10 406,-10"/>
<text text-anchor="start" x="429.7258" y="-15.4" font-family="sans-serif" font-size="14.00" fill="#000000"> &#160;Exports</text>
<g id="clust1" class="cluster">
<title>cluster_GuardsModule</title>
<polygon fill="none" stroke="#000000" stroke-dasharray="1,5" points="129,-70 129,-195 367,-195 367,-70 129,-70"/>
</g>
<g id="clust3" class="cluster">
<title>cluster_GuardsModule_imports</title>
<polygon fill="none" stroke="#000000" points="137,-78 137,-130 359,-130 359,-78 137,-78"/>
</g>
<!-- CartModule -->
<g id="node1" class="node">
<title>CartModule</title>
<polygon fill="#8dd3c7" stroke="#000000" points="350.6529,-122 347.6529,-126 326.6529,-126 323.6529,-122 267.3471,-122 267.3471,-86 350.6529,-86 350.6529,-122"/>
<text text-anchor="middle" x="309" y="-99.8" font-family="Times,serif" font-size="14.00" fill="#000000">CartModule</text>
</g>
<!-- GuardsModule -->
<g id="node3" class="node">
<title>GuardsModule</title>
<polygon fill="#8dd3c7" stroke="#000000" points="302.9762,-187 299.9762,-191 278.9762,-191 275.9762,-187 203.0238,-187 203.0238,-151 302.9762,-151 302.9762,-187"/>
<text text-anchor="middle" x="253" y="-164.8" font-family="Times,serif" font-size="14.00" fill="#000000">GuardsModule</text>
</g>
<!-- CartModule&#45;&gt;GuardsModule -->
<g id="edge1" class="edge">
<title>CartModule&#45;&gt;GuardsModule</title>
<path fill="none" stroke="#000000" d="M285.081,-122.1061C285.081,-122.1061 285.081,-140.991 285.081,-140.991"/>
<polygon fill="#000000" stroke="#000000" points="281.5811,-140.9909 285.081,-150.991 288.5811,-140.991 281.5811,-140.9909"/>
</g>
<!-- RoutingModule -->
<g id="node2" class="node">
<title>RoutingModule</title>
<polygon fill="#8dd3c7" stroke="#000000" points="249.1681,-122 246.1681,-126 225.1681,-126 222.1681,-122 144.8319,-122 144.8319,-86 249.1681,-86 249.1681,-122"/>
<text text-anchor="middle" x="197" y="-99.8" font-family="Times,serif" font-size="14.00" fill="#000000">RoutingModule</text>
</g>
<!-- RoutingModule&#45;&gt;GuardsModule -->
<g id="edge2" class="edge">
<title>RoutingModule&#45;&gt;GuardsModule</title>
<path fill="none" stroke="#000000" d="M226.1729,-122.1061C226.1729,-122.1061 226.1729,-140.991 226.1729,-140.991"/>
<polygon fill="#000000" stroke="#000000" points="222.6729,-140.9909 226.1729,-150.991 229.6729,-140.991 222.6729,-140.9909"/>
</g>
</g>
</svg>
