<?xml version="1.0" encoding="UTF-8" standalone="no"?>
<!DOCTYPE svg PUBLIC "-//W3C//DTD SVG 1.1//EN"
 "http://www.w3.org/Graphics/SVG/1.1/DTD/svg11.dtd">
<!-- Generated by graphviz version 2.47.3 (20210619.1520)
 -->
<!-- Title: dependencies Pages: 1 -->
<svg width="418pt" height="247pt"
 viewBox="0.00 0.00 418.00 246.80" xmlns="http://www.w3.org/2000/svg" xmlns:xlink="http://www.w3.org/1999/xlink">
<g id="graph0" class="graph" transform="scale(1 1) rotate(0) translate(4 242.8)">
<title>dependencies</title>
<polygon fill="white" stroke="transparent" points="-4,4 -4,-242.8 414,-242.8 414,4 -4,4"/>
<text text-anchor="middle" x="205" y="-8.2" font-family="sans-serif" font-size="14.00">dependencies</text>
<g id="clust1" class="cluster">
<title>cluster_VisualViewerAnimationSliderModule</title>
<polygon fill="none" stroke="black" stroke-dasharray="1,5" points="8,-32.8 8,-230.8 402,-230.8 402,-32.8 8,-32.8"/>
</g>
<g id="clust4" class="cluster">
<title>cluster_VisualViewerAnimationSliderModule_imports</title>
<polygon fill="none" stroke="black" points="292,-40.8 292,-92.8 394,-92.8 394,-40.8 292,-40.8"/>
</g>
<g id="clust5" class="cluster">
<title>cluster_VisualViewerAnimationSliderModule_exports</title>
<polygon fill="none" stroke="black" points="69,-170.8 69,-222.8 341,-222.8 341,-170.8 69,-170.8"/>
</g>
<g id="clust2" class="cluster">
<title>cluster_VisualViewerAnimationSliderModule_declarations</title>
<polygon fill="none" stroke="black" points="16,-40.8 16,-92.8 284,-92.8 284,-40.8 16,-40.8"/>
</g>
<!-- VisualViewerAnimationSliderComponent -->
<g id="node1" class="node">
<title>VisualViewerAnimationSliderComponent</title>
<polygon fill="#ffffb3" stroke="black" points="276.4,-84.8 23.6,-84.8 23.6,-48.8 276.4,-48.8 276.4,-84.8"/>
<text text-anchor="middle" x="150" y="-62.6" font-family="Times,serif" font-size="14.00">VisualViewerAnimationSliderComponent</text>
</g>
<!-- VisualViewerAnimationSliderModule -->
<g id="node2" class="node">
<title>VisualViewerAnimationSliderModule</title>
<polygon fill="#8dd3c7" stroke="black" points="320.11,-149.8 317.11,-153.8 296.11,-153.8 293.11,-149.8 89.89,-149.8 89.89,-113.8 320.11,-113.8 320.11,-149.8"/>
<text text-anchor="middle" x="205" y="-127.6" font-family="Times,serif" font-size="14.00">VisualViewerAnimationSliderModule</text>
</g>
<!-- VisualViewerAnimationSliderComponent&#45;&gt;VisualViewerAnimationSliderModule -->
<g id="edge1" class="edge">
<title>VisualViewerAnimationSliderComponent&#45;&gt;VisualViewerAnimationSliderModule</title>
<path fill="none" stroke="black" d="M182.95,-84.91C182.95,-84.91 182.95,-103.79 182.95,-103.79"/>
<polygon fill="black" stroke="black" points="179.45,-103.79 182.95,-113.79 186.45,-103.79 179.45,-103.79"/>
</g>
<!-- VisualViewerAnimationSliderComponent  -->
<g id="node4" class="node">
<title>VisualViewerAnimationSliderComponent </title>
<polygon fill="#fb8072" stroke="black" points="332.9,-214.8 77.1,-214.8 77.1,-178.8 332.9,-178.8 332.9,-214.8"/>
<text text-anchor="middle" x="205" y="-192.6" font-family="Times,serif" font-size="14.00">VisualViewerAnimationSliderComponent </text>
</g>
<!-- VisualViewerAnimationSliderModule&#45;&gt;VisualViewerAnimationSliderComponent  -->
<g id="edge3" class="edge">
<title>VisualViewerAnimationSliderModule&#45;&gt;VisualViewerAnimationSliderComponent </title>
<path fill="none" stroke="black" stroke-dasharray="5,2" d="M205,-149.91C205,-149.91 205,-168.79 205,-168.79"/>
<polygon fill="black" stroke="black" points="201.5,-168.79 205,-178.79 208.5,-168.79 201.5,-168.79"/>
</g>
<!-- I18nModule -->
<g id="node3" class="node">
<title>I18nModule</title>
<polygon fill="#8dd3c7" stroke="black" points="385.71,-84.8 382.71,-88.8 361.71,-88.8 358.71,-84.8 300.29,-84.8 300.29,-48.8 385.71,-48.8 385.71,-84.8"/>
<text text-anchor="middle" x="343" y="-62.6" font-family="Times,serif" font-size="14.00">I18nModule</text>
</g>
<!-- I18nModule&#45;&gt;VisualViewerAnimationSliderModule -->
<g id="edge2" class="edge">
<title>I18nModule&#45;&gt;VisualViewerAnimationSliderModule</title>
<path fill="none" stroke="black" d="M310.35,-84.91C310.35,-84.91 310.35,-103.79 310.35,-103.79"/>
<polygon fill="black" stroke="black" points="306.85,-103.79 310.35,-113.79 313.85,-103.79 306.85,-103.79"/>
</g>
</g>
</svg>
