<?xml version="1.0" encoding="UTF-8" standalone="no"?>
<!DOCTYPE svg PUBLIC "-//W3C//DTD SVG 1.1//EN"
 "http://www.w3.org/Graphics/SVG/1.1/DTD/svg11.dtd">
<!-- Generated by graphviz version 2.47.3 (20210619.1520)
 -->
<!-- Title: dependencies Pages: 1 -->
<svg width="482pt" height="312pt"
 viewBox="0.00 0.00 482.00 311.80" xmlns="http://www.w3.org/2000/svg" xmlns:xlink="http://www.w3.org/1999/xlink">
<g id="graph0" class="graph" transform="scale(1 1) rotate(0) translate(4 307.8)">
<title>dependencies</title>
<polygon fill="white" stroke="transparent" points="-4,4 -4,-307.8 478,-307.8 478,4 -4,4"/>
<text text-anchor="middle" x="237" y="-8.2" font-family="sans-serif" font-size="14.00">dependencies</text>
<g id="clust1" class="cluster">
<title>cluster_VisualViewerAnimationSliderModule</title>
<polygon fill="none" stroke="black" stroke-dasharray="1,5" points="8,-32.8 8,-295.8 466,-295.8 466,-32.8 8,-32.8"/>
</g>
<g id="clust3" class="cluster">
<title>cluster_VisualViewerAnimationSliderModule_VisualViewerAnimationSliderComponent_providers</title>
<polygon fill="none" stroke="black" points="126,-40.8 126,-157.8 458,-157.8 458,-40.8 126,-40.8"/>
</g>
<g id="clust5" class="cluster">
<title>cluster_VisualViewerAnimationSliderModule_exports</title>
<polygon fill="none" stroke="black" points="70,-235.8 70,-287.8 342,-287.8 342,-235.8 70,-235.8"/>
</g>
<g id="clust4" class="cluster">
<title>cluster_VisualViewerAnimationSliderModule_imports</title>
<polygon fill="none" stroke="black" points="16,-105.8 16,-157.8 118,-157.8 118,-105.8 16,-105.8"/>
</g>
<!-- VisualViewerAnimationSliderComponent -->
<g id="node1" class="node">
<title>VisualViewerAnimationSliderComponent</title>
<polygon fill="#ffffb3" stroke="black" points="402.4,-149.8 149.6,-149.8 149.6,-113.8 402.4,-113.8 402.4,-149.8"/>
<text text-anchor="middle" x="276" y="-127.6" font-family="Times,serif" font-size="14.00">VisualViewerAnimationSliderComponent</text>
</g>
<!-- VisualViewerAnimationSliderModule -->
<g id="node2" class="node">
<title>VisualViewerAnimationSliderModule</title>
<polygon fill="#8dd3c7" stroke="black" points="321.11,-214.8 318.11,-218.8 297.11,-218.8 294.11,-214.8 90.89,-214.8 90.89,-178.8 321.11,-178.8 321.11,-214.8"/>
<text text-anchor="middle" x="206" y="-192.6" font-family="Times,serif" font-size="14.00">VisualViewerAnimationSliderModule</text>
</g>
<!-- VisualViewerAnimationSliderComponent&#45;&gt;VisualViewerAnimationSliderModule -->
<g id="edge1" class="edge">
<title>VisualViewerAnimationSliderComponent&#45;&gt;VisualViewerAnimationSliderModule</title>
<path fill="none" stroke="black" d="M235.55,-149.91C235.55,-149.91 235.55,-168.79 235.55,-168.79"/>
<polygon fill="black" stroke="black" points="232.05,-168.79 235.55,-178.79 239.05,-168.79 232.05,-168.79"/>
</g>
<!-- VisualViewerAnimationSliderComponent  -->
<g id="node5" class="node">
<title>VisualViewerAnimationSliderComponent </title>
<polygon fill="#fb8072" stroke="black" points="333.9,-279.8 78.1,-279.8 78.1,-243.8 333.9,-243.8 333.9,-279.8"/>
<text text-anchor="middle" x="206" y="-257.6" font-family="Times,serif" font-size="14.00">VisualViewerAnimationSliderComponent </text>
</g>
<!-- VisualViewerAnimationSliderModule&#45;&gt;VisualViewerAnimationSliderComponent  -->
<g id="edge4" class="edge">
<title>VisualViewerAnimationSliderModule&#45;&gt;VisualViewerAnimationSliderComponent </title>
<path fill="none" stroke="black" stroke-dasharray="5,2" d="M206,-214.91C206,-214.91 206,-233.79 206,-233.79"/>
<polygon fill="black" stroke="black" points="202.5,-233.79 206,-243.79 209.5,-233.79 202.5,-233.79"/>
</g>
<!-- VisualViewerAnimationSliderService -->
<g id="node3" class="node">
<title>VisualViewerAnimationSliderService</title>
<ellipse fill="#fdb462" stroke="black" cx="292" cy="-66.8" rx="157.98" ry="18"/>
<text text-anchor="middle" x="292" y="-62.6" font-family="Times,serif" font-size="14.00">VisualViewerAnimationSliderService</text>
</g>
<!-- VisualViewerAnimationSliderService&#45;&gt;VisualViewerAnimationSliderComponent -->
<g id="edge2" class="edge">
<title>VisualViewerAnimationSliderService&#45;&gt;VisualViewerAnimationSliderComponent</title>
<path fill="none" stroke="black" d="M276,-84.91C276,-84.91 276,-103.79 276,-103.79"/>
<polygon fill="black" stroke="black" points="272.5,-103.79 276,-113.79 279.5,-103.79 272.5,-103.79"/>
</g>
<!-- I18nModule -->
<g id="node4" class="node">
<title>I18nModule</title>
<polygon fill="#8dd3c7" stroke="black" points="109.71,-149.8 106.71,-153.8 85.71,-153.8 82.71,-149.8 24.29,-149.8 24.29,-113.8 109.71,-113.8 109.71,-149.8"/>
<text text-anchor="middle" x="67" y="-127.6" font-family="Times,serif" font-size="14.00">I18nModule</text>
</g>
<!-- I18nModule&#45;&gt;VisualViewerAnimationSliderModule -->
<g id="edge3" class="edge">
<title>I18nModule&#45;&gt;VisualViewerAnimationSliderModule</title>
<path fill="none" stroke="black" d="M100.15,-149.91C100.15,-149.91 100.15,-168.79 100.15,-168.79"/>
<polygon fill="black" stroke="black" points="96.65,-168.79 100.15,-178.79 103.65,-168.79 96.65,-168.79"/>
</g>
</g>
</svg>
