<?xml version="1.0" encoding="UTF-8" standalone="no"?>
<!DOCTYPE svg PUBLIC "-//W3C//DTD SVG 1.1//EN"
 "http://www.w3.org/Graphics/SVG/1.1/DTD/svg11.dtd">
<!-- Generated by graphviz version 2.47.3 (20210619.1520)
 -->
<!-- Title: dependencies Pages: 1 -->
<svg width="246pt" height="247pt"
 viewBox="0.00 0.00 246.00 246.80" xmlns="http://www.w3.org/2000/svg" xmlns:xlink="http://www.w3.org/1999/xlink">
<g id="graph0" class="graph" transform="scale(1 1) rotate(0) translate(4 242.8)">
<title>dependencies</title>
<polygon fill="white" stroke="transparent" points="-4,4 -4,-242.8 242,-242.8 242,4 -4,4"/>
<text text-anchor="middle" x="119" y="-8.2" font-family="sans-serif" font-size="14.00">dependencies</text>
<g id="clust1" class="cluster">
<title>cluster_ProductDetailsTabModule</title>
<polygon fill="none" stroke="black" stroke-dasharray="1,5" points="8,-32.8 8,-230.8 230,-230.8 230,-32.8 8,-32.8"/>
</g>
<g id="clust5" class="cluster">
<title>cluster_ProductDetailsTabModule_exports</title>
<polygon fill="none" stroke="black" points="16,-170.8 16,-222.8 222,-222.8 222,-170.8 16,-170.8"/>
</g>
<g id="clust2" class="cluster">
<title>cluster_ProductDetailsTabModule_declarations</title>
<polygon fill="none" stroke="black" points="18,-40.8 18,-92.8 220,-92.8 220,-40.8 18,-40.8"/>
</g>
<!-- ProductDetailsTabComponent -->
<g id="node1" class="node">
<title>ProductDetailsTabComponent</title>
<polygon fill="#ffffb3" stroke="black" points="212.3,-84.8 25.7,-84.8 25.7,-48.8 212.3,-48.8 212.3,-84.8"/>
<text text-anchor="middle" x="119" y="-62.6" font-family="Times,serif" font-size="14.00">ProductDetailsTabComponent</text>
</g>
<!-- ProductDetailsTabModule -->
<g id="node2" class="node">
<title>ProductDetailsTabModule</title>
<polygon fill="#8dd3c7" stroke="black" points="201.02,-149.8 198.02,-153.8 177.02,-153.8 174.02,-149.8 36.98,-149.8 36.98,-113.8 201.02,-113.8 201.02,-149.8"/>
<text text-anchor="middle" x="119" y="-127.6" font-family="Times,serif" font-size="14.00">ProductDetailsTabModule</text>
</g>
<!-- ProductDetailsTabComponent&#45;&gt;ProductDetailsTabModule -->
<g id="edge1" class="edge">
<title>ProductDetailsTabComponent&#45;&gt;ProductDetailsTabModule</title>
<path fill="none" stroke="black" d="M119,-84.91C119,-84.91 119,-103.79 119,-103.79"/>
<polygon fill="black" stroke="black" points="115.5,-103.79 119,-113.79 122.5,-103.79 115.5,-103.79"/>
</g>
<!-- ProductDetailsTabComponent  -->
<g id="node3" class="node">
<title>ProductDetailsTabComponent </title>
<polygon fill="#fb8072" stroke="black" points="213.8,-214.8 24.2,-214.8 24.2,-178.8 213.8,-178.8 213.8,-214.8"/>
<text text-anchor="middle" x="119" y="-192.6" font-family="Times,serif" font-size="14.00">ProductDetailsTabComponent </text>
</g>
<!-- ProductDetailsTabModule&#45;&gt;ProductDetailsTabComponent  -->
<g id="edge2" class="edge">
<title>ProductDetailsTabModule&#45;&gt;ProductDetailsTabComponent </title>
<path fill="none" stroke="black" stroke-dasharray="5,2" d="M119,-149.91C119,-149.91 119,-168.79 119,-168.79"/>
<polygon fill="black" stroke="black" points="115.5,-168.79 119,-178.79 122.5,-168.79 115.5,-168.79"/>
</g>
</g>
</svg>
