<?xml version="1.0" encoding="UTF-8" standalone="no"?>
<!DOCTYPE svg PUBLIC "-//W3C//DTD SVG 1.1//EN"
 "http://www.w3.org/Graphics/SVG/1.1/DTD/svg11.dtd">
<!-- Generated by graphviz version 2.47.3 (20210619.1520)
 -->
<!-- Title: dependencies Pages: 1 -->
<svg width="200pt" height="247pt"
 viewBox="0.00 0.00 200.00 246.80" xmlns="http://www.w3.org/2000/svg" xmlns:xlink="http://www.w3.org/1999/xlink">
<g id="graph0" class="graph" transform="scale(1 1) rotate(0) translate(4 242.8)">
<title>dependencies</title>
<polygon fill="white" stroke="transparent" points="-4,4 -4,-242.8 196,-242.8 196,4 -4,4"/>
<text text-anchor="middle" x="96" y="-8.2" font-family="sans-serif" font-size="14.00">dependencies</text>
<g id="clust1" class="cluster">
<title>cluster_CardTestingModule</title>
<polygon fill="none" stroke="black" stroke-dasharray="1,5" points="8,-32.8 8,-230.8 184,-230.8 184,-32.8 8,-32.8"/>
</g>
<g id="clust2" class="cluster">
<title>cluster_CardTestingModule_declarations</title>
<polygon fill="none" stroke="black" points="17,-40.8 17,-92.8 175,-92.8 175,-40.8 17,-40.8"/>
</g>
<g id="clust5" class="cluster">
<title>cluster_CardTestingModule_exports</title>
<polygon fill="none" stroke="black" points="16,-170.8 16,-222.8 176,-222.8 176,-170.8 16,-170.8"/>
</g>
<!-- MockCardComponent -->
<g id="node1" class="node">
<title>MockCardComponent</title>
<polygon fill="#ffffb3" stroke="black" points="166.7,-84.8 25.3,-84.8 25.3,-48.8 166.7,-48.8 166.7,-84.8"/>
<text text-anchor="middle" x="96" y="-62.6" font-family="Times,serif" font-size="14.00">MockCardComponent</text>
</g>
<!-- CardTestingModule -->
<g id="node2" class="node">
<title>CardTestingModule</title>
<polygon fill="#8dd3c7" stroke="black" points="160.25,-149.8 157.25,-153.8 136.25,-153.8 133.25,-149.8 31.75,-149.8 31.75,-113.8 160.25,-113.8 160.25,-149.8"/>
<text text-anchor="middle" x="96" y="-127.6" font-family="Times,serif" font-size="14.00">CardTestingModule</text>
</g>
<!-- MockCardComponent&#45;&gt;CardTestingModule -->
<g id="edge1" class="edge">
<title>MockCardComponent&#45;&gt;CardTestingModule</title>
<path fill="none" stroke="black" d="M96,-84.91C96,-84.91 96,-103.79 96,-103.79"/>
<polygon fill="black" stroke="black" points="92.5,-103.79 96,-113.79 99.5,-103.79 92.5,-103.79"/>
</g>
<!-- MockCardComponent  -->
<g id="node3" class="node">
<title>MockCardComponent </title>
<polygon fill="#fb8072" stroke="black" points="168.2,-214.8 23.8,-214.8 23.8,-178.8 168.2,-178.8 168.2,-214.8"/>
<text text-anchor="middle" x="96" y="-192.6" font-family="Times,serif" font-size="14.00">MockCardComponent </text>
</g>
<!-- CardTestingModule&#45;&gt;MockCardComponent  -->
<g id="edge2" class="edge">
<title>CardTestingModule&#45;&gt;MockCardComponent </title>
<path fill="none" stroke="black" stroke-dasharray="5,2" d="M96,-149.91C96,-149.91 96,-168.79 96,-168.79"/>
<polygon fill="black" stroke="black" points="92.5,-168.79 96,-178.79 99.5,-168.79 92.5,-168.79"/>
</g>
</g>
</svg>
