<?xml version="1.0" encoding="UTF-8" standalone="no"?>
<!DOCTYPE svg PUBLIC "-//W3C//DTD SVG 1.1//EN"
 "http://www.w3.org/Graphics/SVG/1.1/DTD/svg11.dtd">
<!-- Generated by graphviz version 2.40.1 (20161225.0304)
 -->
<!-- Title: dependencies Pages: 1 -->
<svg width="619pt" height="284pt"
 viewBox="0.00 0.00 619.00 284.00" xmlns="http://www.w3.org/2000/svg" xmlns:xlink="http://www.w3.org/1999/xlink">
<g id="graph0" class="graph" transform="scale(1 1) rotate(0) translate(4 280)">
<title>dependencies</title>
<polygon fill="#ffffff" stroke="transparent" points="-4,4 -4,-280 615,-280 615,4 -4,4"/>
<text text-anchor="start" x="284.5091" y="-42.4" font-family="sans-serif" font-weight="bold" font-size="14.00" fill="#000000">Legend</text>
<polygon fill="#ffffb3" stroke="transparent" points="71.5,-10 71.5,-30 91.5,-30 91.5,-10 71.5,-10"/>
<text text-anchor="start" x="95.129" y="-15.4" font-family="sans-serif" font-size="14.00" fill="#000000"> &#160;Declarations</text>
<polygon fill="#8dd3c7" stroke="transparent" points="184.5,-10 184.5,-30 204.5,-30 204.5,-10 184.5,-10"/>
<text text-anchor="start" x="208.2251" y="-15.4" font-family="sans-serif" font-size="14.00" fill="#000000"> &#160;Module</text>
<polygon fill="#80b1d3" stroke="transparent" points="270.5,-10 270.5,-30 290.5,-30 290.5,-10 270.5,-10"/>
<text text-anchor="start" x="294.2812" y="-15.4" font-family="sans-serif" font-size="14.00" fill="#000000"> &#160;Bootstrap</text>
<polygon fill="#fdb462" stroke="transparent" points="367.5,-10 367.5,-30 387.5,-30 387.5,-10 367.5,-10"/>
<text text-anchor="start" x="391.1732" y="-15.4" font-family="sans-serif" font-size="14.00" fill="#000000"> &#160;Providers</text>
<polygon fill="#fb8072" stroke="transparent" points="463.5,-10 463.5,-30 483.5,-30 483.5,-10 463.5,-10"/>
<text text-anchor="start" x="487.2258" y="-15.4" font-family="sans-serif" font-size="14.00" fill="#000000"> &#160;Exports</text>
<g id="clust1" class="cluster">
<title>cluster_ProductReviewsModule</title>
<polygon fill="none" stroke="#000000" stroke-dasharray="1,5" points="8,-70 8,-268 603,-268 603,-70 8,-70"/>
</g>
<g id="clust2" class="cluster">
<title>cluster_ProductReviewsModule_declarations</title>
<polygon fill="none" stroke="#000000" points="405,-78 405,-130 595,-130 595,-78 405,-78"/>
</g>
<g id="clust4" class="cluster">
<title>cluster_ProductReviewsModule_imports</title>
<polygon fill="none" stroke="#000000" points="16,-78 16,-130 397,-130 397,-78 16,-78"/>
</g>
<g id="clust5" class="cluster">
<title>cluster_ProductReviewsModule_exports</title>
<polygon fill="none" stroke="#000000" points="169,-208 169,-260 361,-260 361,-208 169,-208"/>
</g>
<!-- ProductReviewsComponent -->
<g id="node1" class="node">
<title>ProductReviewsComponent</title>
<polygon fill="#ffffb3" stroke="#000000" points="586.5884,-122 413.4116,-122 413.4116,-86 586.5884,-86 586.5884,-122"/>
<text text-anchor="middle" x="500" y="-99.8" font-family="Times,serif" font-size="14.00" fill="#000000">ProductReviewsComponent</text>
</g>
<!-- ProductReviewsModule -->
<g id="node2" class="node">
<title>ProductReviewsModule</title>
<polygon fill="#8dd3c7" stroke="#000000" points="340.8061,-187 337.8061,-191 316.8061,-191 313.8061,-187 189.1939,-187 189.1939,-151 340.8061,-151 340.8061,-187"/>
<text text-anchor="middle" x="265" y="-164.8" font-family="Times,serif" font-size="14.00" fill="#000000">ProductReviewsModule</text>
</g>
<!-- ProductReviewsComponent&#45;&gt;ProductReviewsModule -->
<g id="edge1" class="edge">
<title>ProductReviewsComponent&#45;&gt;ProductReviewsModule</title>
<path fill="none" stroke="#000000" d="M500,-122.1061C500,-141.3391 500,-169 500,-169 500,-169 350.9732,-169 350.9732,-169"/>
<polygon fill="#000000" stroke="#000000" points="350.9733,-165.5001 340.9732,-169 350.9732,-172.5001 350.9733,-165.5001"/>
</g>
<!-- ProductReviewsComponent  -->
<g id="node6" class="node">
<title>ProductReviewsComponent </title>
<polygon fill="#fb8072" stroke="#000000" points="353.0889,-252 176.9111,-252 176.9111,-216 353.0889,-216 353.0889,-252"/>
<text text-anchor="middle" x="265" y="-229.8" font-family="Times,serif" font-size="14.00" fill="#000000">ProductReviewsComponent </text>
</g>
<!-- ProductReviewsModule&#45;&gt;ProductReviewsComponent  -->
<g id="edge5" class="edge">
<title>ProductReviewsModule&#45;&gt;ProductReviewsComponent </title>
<path fill="none" stroke="#000000" stroke-dasharray="5,2" d="M265,-187.1061C265,-187.1061 265,-205.991 265,-205.991"/>
<polygon fill="#000000" stroke="#000000" points="261.5001,-205.9909 265,-215.991 268.5001,-205.991 261.5001,-205.9909"/>
</g>
<!-- FormErrorsModule -->
<g id="node3" class="node">
<title>FormErrorsModule</title>
<polygon fill="#8dd3c7" stroke="#000000" points="389.3627,-122 386.3627,-126 365.3627,-126 362.3627,-122 264.6373,-122 264.6373,-86 389.3627,-86 389.3627,-122"/>
<text text-anchor="middle" x="327" y="-99.8" font-family="Times,serif" font-size="14.00" fill="#000000">FormErrorsModule</text>
</g>
<!-- FormErrorsModule&#45;&gt;ProductReviewsModule -->
<g id="edge2" class="edge">
<title>FormErrorsModule&#45;&gt;ProductReviewsModule</title>
<path fill="none" stroke="#000000" d="M302.6108,-122.1061C302.6108,-122.1061 302.6108,-140.991 302.6108,-140.991"/>
<polygon fill="#000000" stroke="#000000" points="299.1109,-140.9909 302.6108,-150.991 306.1109,-140.991 299.1109,-140.9909"/>
</g>
<!-- I18nModule -->
<g id="node4" class="node">
<title>I18nModule</title>
<polygon fill="#8dd3c7" stroke="#000000" points="246.7107,-122 243.7107,-126 222.7107,-126 219.7107,-122 161.2893,-122 161.2893,-86 246.7107,-86 246.7107,-122"/>
<text text-anchor="middle" x="204" y="-99.8" font-family="Times,serif" font-size="14.00" fill="#000000">I18nModule</text>
</g>
<!-- I18nModule&#45;&gt;ProductReviewsModule -->
<g id="edge3" class="edge">
<title>I18nModule&#45;&gt;ProductReviewsModule</title>
<path fill="none" stroke="#000000" d="M217.9762,-122.1061C217.9762,-122.1061 217.9762,-140.991 217.9762,-140.991"/>
<polygon fill="#000000" stroke="#000000" points="214.4762,-140.9909 217.9762,-150.991 221.4762,-140.991 214.4762,-140.9909"/>
</g>
<!-- StarRatingModule -->
<g id="node5" class="node">
<title>StarRatingModule</title>
<polygon fill="#8dd3c7" stroke="#000000" points="143.9314,-122 140.9314,-126 119.9314,-126 116.9314,-122 24.0686,-122 24.0686,-86 143.9314,-86 143.9314,-122"/>
<text text-anchor="middle" x="84" y="-99.8" font-family="Times,serif" font-size="14.00" fill="#000000">StarRatingModule</text>
</g>
<!-- StarRatingModule&#45;&gt;ProductReviewsModule -->
<g id="edge4" class="edge">
<title>StarRatingModule&#45;&gt;ProductReviewsModule</title>
<path fill="none" stroke="#000000" d="M84,-122.1061C84,-141.3391 84,-169 84,-169 84,-169 179.2884,-169 179.2884,-169"/>
<polygon fill="#000000" stroke="#000000" points="179.2885,-172.5001 189.2884,-169 179.2884,-165.5001 179.2885,-172.5001"/>
</g>
</g>
</svg>
