<?xml version="1.0" encoding="UTF-8" standalone="no"?>
<!DOCTYPE svg PUBLIC "-//W3C//DTD SVG 1.1//EN"
 "http://www.w3.org/Graphics/SVG/1.1/DTD/svg11.dtd">
<!-- Generated by graphviz version 2.44.1 (20200629.0846)
 -->
<!-- Title: dependencies Pages: 1 -->
<svg width="619pt" height="284pt"
 viewBox="0.00 0.00 619.00 284.00" xmlns="http://www.w3.org/2000/svg" xmlns:xlink="http://www.w3.org/1999/xlink">
<g id="graph0" class="graph" transform="scale(1 1) rotate(0) translate(4 280)">
<title>dependencies</title>
<polygon fill="white" stroke="transparent" points="-4,4 -4,-280 615,-280 615,4 -4,4"/>
<text text-anchor="start" x="284.51" y="-42.4" font-family="sans-serif" font-weight="bold" font-size="14.00">Legend</text>
<polygon fill="#ffffb3" stroke="transparent" points="71.5,-10 71.5,-30 91.5,-30 91.5,-10 71.5,-10"/>
<text text-anchor="start" x="95.13" y="-15.4" font-family="sans-serif" font-size="14.00"> &#160;Declarations</text>
<polygon fill="#8dd3c7" stroke="transparent" points="184.5,-10 184.5,-30 204.5,-30 204.5,-10 184.5,-10"/>
<text text-anchor="start" x="208.23" y="-15.4" font-family="sans-serif" font-size="14.00"> &#160;Module</text>
<polygon fill="#80b1d3" stroke="transparent" points="270.5,-10 270.5,-30 290.5,-30 290.5,-10 270.5,-10"/>
<text text-anchor="start" x="294.28" y="-15.4" font-family="sans-serif" font-size="14.00"> &#160;Bootstrap</text>
<polygon fill="#fdb462" stroke="transparent" points="367.5,-10 367.5,-30 387.5,-30 387.5,-10 367.5,-10"/>
<text text-anchor="start" x="391.17" y="-15.4" font-family="sans-serif" font-size="14.00"> &#160;Providers</text>
<polygon fill="#fb8072" stroke="transparent" points="463.5,-10 463.5,-30 483.5,-30 483.5,-10 463.5,-10"/>
<text text-anchor="start" x="487.23" y="-15.4" font-family="sans-serif" font-size="14.00"> &#160;Exports</text>
<g id="clust1" class="cluster">
<title>cluster_ProductReviewsModule</title>
<polygon fill="none" stroke="black" stroke-dasharray="1,5" points="8,-70 8,-268 603,-268 603,-70 8,-70"/>
</g>
<g id="clust4" class="cluster">
<title>cluster_ProductReviewsModule_imports</title>
<polygon fill="none" stroke="black" points="214,-78 214,-130 595,-130 595,-78 214,-78"/>
</g>
<g id="clust5" class="cluster">
<title>cluster_ProductReviewsModule_exports</title>
<polygon fill="none" stroke="black" points="246,-208 246,-260 438,-260 438,-208 246,-208"/>
</g>
<g id="clust2" class="cluster">
<title>cluster_ProductReviewsModule_declarations</title>
<polygon fill="none" stroke="black" points="16,-78 16,-130 206,-130 206,-78 16,-78"/>
</g>
<!-- ProductReviewsComponent -->
<g id="node1" class="node">
<title>ProductReviewsComponent</title>
<polygon fill="#ffffb3" stroke="black" points="197.59,-122 24.41,-122 24.41,-86 197.59,-86 197.59,-122"/>
<text text-anchor="middle" x="111" y="-99.8" font-family="Times,serif" font-size="14.00">ProductReviewsComponent</text>
</g>
<!-- ProductReviewsModule -->
<g id="node2" class="node">
<title>ProductReviewsModule</title>
<polygon fill="#8dd3c7" stroke="black" points="417.81,-187 414.81,-191 393.81,-191 390.81,-187 266.19,-187 266.19,-151 417.81,-151 417.81,-187"/>
<text text-anchor="middle" x="342" y="-164.8" font-family="Times,serif" font-size="14.00">ProductReviewsModule</text>
</g>
<!-- ProductReviewsComponent&#45;&gt;ProductReviewsModule -->
<g id="edge1" class="edge">
<title>ProductReviewsComponent&#45;&gt;ProductReviewsModule</title>
<path fill="none" stroke="black" d="M111,-122.11C111,-141.34 111,-169 111,-169 111,-169 256.04,-169 256.04,-169"/>
<polygon fill="black" stroke="black" points="256.04,-172.5 266.04,-169 256.04,-165.5 256.04,-172.5"/>
</g>
<!-- ProductReviewsComponent  -->
<g id="node6" class="node">
<title>ProductReviewsComponent </title>
<polygon fill="#fb8072" stroke="black" points="430.09,-252 253.91,-252 253.91,-216 430.09,-216 430.09,-252"/>
<text text-anchor="middle" x="342" y="-229.8" font-family="Times,serif" font-size="14.00">ProductReviewsComponent </text>
</g>
<!-- ProductReviewsModule&#45;&gt;ProductReviewsComponent  -->
<g id="edge5" class="edge">
<title>ProductReviewsModule&#45;&gt;ProductReviewsComponent </title>
<path fill="none" stroke="black" stroke-dasharray="5,2" d="M342,-187.11C342,-187.11 342,-205.99 342,-205.99"/>
<polygon fill="black" stroke="black" points="338.5,-205.99 342,-215.99 345.5,-205.99 338.5,-205.99"/>
</g>
<!-- FormErrorsModule -->
<g id="node3" class="node">
<title>FormErrorsModule</title>
<polygon fill="#8dd3c7" stroke="black" points="587.36,-122 584.36,-126 563.36,-126 560.36,-122 462.64,-122 462.64,-86 587.36,-86 587.36,-122"/>
<text text-anchor="middle" x="525" y="-99.8" font-family="Times,serif" font-size="14.00">FormErrorsModule</text>
</g>
<!-- FormErrorsModule&#45;&gt;ProductReviewsModule -->
<g id="edge2" class="edge">
<title>FormErrorsModule&#45;&gt;ProductReviewsModule</title>
<path fill="none" stroke="black" d="M525,-122.11C525,-141.34 525,-169 525,-169 525,-169 427.75,-169 427.75,-169"/>
<polygon fill="black" stroke="black" points="427.75,-165.5 417.75,-169 427.75,-172.5 427.75,-165.5"/>
</g>
<!-- I18nModule -->
<g id="node4" class="node">
<title>I18nModule</title>
<polygon fill="#8dd3c7" stroke="black" points="444.71,-122 441.71,-126 420.71,-126 417.71,-122 359.29,-122 359.29,-86 444.71,-86 444.71,-122"/>
<text text-anchor="middle" x="402" y="-99.8" font-family="Times,serif" font-size="14.00">I18nModule</text>
</g>
<!-- I18nModule&#45;&gt;ProductReviewsModule -->
<g id="edge3" class="edge">
<title>I18nModule&#45;&gt;ProductReviewsModule</title>
<path fill="none" stroke="black" d="M388.52,-122.11C388.52,-122.11 388.52,-140.99 388.52,-140.99"/>
<polygon fill="black" stroke="black" points="385.02,-140.99 388.52,-150.99 392.02,-140.99 385.02,-140.99"/>
</g>
<!-- StarRatingModule -->
<g id="node5" class="node">
<title>StarRatingModule</title>
<polygon fill="#8dd3c7" stroke="black" points="341.93,-122 338.93,-126 317.93,-126 314.93,-122 222.07,-122 222.07,-86 341.93,-86 341.93,-122"/>
<text text-anchor="middle" x="282" y="-99.8" font-family="Times,serif" font-size="14.00">StarRatingModule</text>
</g>
<!-- StarRatingModule&#45;&gt;ProductReviewsModule -->
<g id="edge4" class="edge">
<title>StarRatingModule&#45;&gt;ProductReviewsModule</title>
<path fill="none" stroke="black" d="M304.03,-122.11C304.03,-122.11 304.03,-140.99 304.03,-140.99"/>
<polygon fill="black" stroke="black" points="300.53,-140.99 304.03,-150.99 307.53,-140.99 300.53,-140.99"/>
</g>
</g>
</svg>
