<?xml version="1.0" encoding="UTF-8" standalone="no"?>
<!DOCTYPE svg PUBLIC "-//W3C//DTD SVG 1.1//EN"
 "http://www.w3.org/Graphics/SVG/1.1/DTD/svg11.dtd">
<!-- Generated by graphviz version 2.40.1 (20161225.0304)
 -->
<!-- Title: dependencies Pages: 1 -->
<svg width="504pt" height="284pt"
 viewBox="0.00 0.00 504.00 284.00" xmlns="http://www.w3.org/2000/svg" xmlns:xlink="http://www.w3.org/1999/xlink">
<g id="graph0" class="graph" transform="scale(1 1) rotate(0) translate(4 280)">
<title>dependencies</title>
<polygon fill="#ffffff" stroke="transparent" points="-4,4 -4,-280 500,-280 500,4 -4,4"/>
<text text-anchor="start" x="227.0091" y="-42.4" font-family="sans-serif" font-weight="bold" font-size="14.00" fill="#000000">Legend</text>
<polygon fill="#ffffb3" stroke="transparent" points="14,-10 14,-30 34,-30 34,-10 14,-10"/>
<text text-anchor="start" x="37.629" y="-15.4" font-family="sans-serif" font-size="14.00" fill="#000000"> &#160;Declarations</text>
<polygon fill="#8dd3c7" stroke="transparent" points="127,-10 127,-30 147,-30 147,-10 127,-10"/>
<text text-anchor="start" x="150.7251" y="-15.4" font-family="sans-serif" font-size="14.00" fill="#000000"> &#160;Module</text>
<polygon fill="#80b1d3" stroke="transparent" points="213,-10 213,-30 233,-30 233,-10 213,-10"/>
<text text-anchor="start" x="236.7812" y="-15.4" font-family="sans-serif" font-size="14.00" fill="#000000"> &#160;Bootstrap</text>
<polygon fill="#fdb462" stroke="transparent" points="310,-10 310,-30 330,-30 330,-10 310,-10"/>
<text text-anchor="start" x="333.6732" y="-15.4" font-family="sans-serif" font-size="14.00" fill="#000000"> &#160;Providers</text>
<polygon fill="#fb8072" stroke="transparent" points="406,-10 406,-30 426,-30 426,-10 406,-10"/>
<text text-anchor="start" x="429.7258" y="-15.4" font-family="sans-serif" font-size="14.00" fill="#000000"> &#160;Exports</text>
<g id="clust1" class="cluster">
<title>cluster_ProductReviewsModule</title>
<polygon fill="none" stroke="#000000" stroke-dasharray="1,5" points="21.5,-70 21.5,-268 474.5,-268 474.5,-70 21.5,-70"/>
</g>
<g id="clust2" class="cluster">
<title>cluster_ProductReviewsModule_declarations</title>
<polygon fill="none" stroke="#000000" points="276.5,-78 276.5,-130 466.5,-130 466.5,-78 276.5,-78"/>
</g>
<g id="clust4" class="cluster">
<title>cluster_ProductReviewsModule_imports</title>
<polygon fill="none" stroke="#000000" points="29.5,-78 29.5,-130 268.5,-130 268.5,-78 29.5,-78"/>
</g>
<g id="clust5" class="cluster">
<title>cluster_ProductReviewsModule_exports</title>
<polygon fill="none" stroke="#000000" points="121.5,-208 121.5,-260 313.5,-260 313.5,-208 121.5,-208"/>
</g>
<!-- ProductReviewsComponent -->
<g id="node1" class="node">
<title>ProductReviewsComponent</title>
<polygon fill="#ffffb3" stroke="#000000" points="458.0884,-122 284.9116,-122 284.9116,-86 458.0884,-86 458.0884,-122"/>
<text text-anchor="middle" x="371.5" y="-99.8" font-family="Times,serif" font-size="14.00" fill="#000000">ProductReviewsComponent</text>
</g>
<!-- ProductReviewsModule -->
<g id="node2" class="node">
<title>ProductReviewsModule</title>
<polygon fill="#8dd3c7" stroke="#000000" points="293.3061,-187 290.3061,-191 269.3061,-191 266.3061,-187 141.6939,-187 141.6939,-151 293.3061,-151 293.3061,-187"/>
<text text-anchor="middle" x="217.5" y="-164.8" font-family="Times,serif" font-size="14.00" fill="#000000">ProductReviewsModule</text>
</g>
<!-- ProductReviewsComponent&#45;&gt;ProductReviewsModule -->
<g id="edge1" class="edge">
<title>ProductReviewsComponent&#45;&gt;ProductReviewsModule</title>
<path fill="none" stroke="#000000" d="M289.0544,-122.1061C289.0544,-122.1061 289.0544,-140.991 289.0544,-140.991"/>
<polygon fill="#000000" stroke="#000000" points="285.5544,-140.9909 289.0544,-150.991 292.5544,-140.991 285.5544,-140.9909"/>
</g>
<!-- ProductReviewsComponent  -->
<g id="node5" class="node">
<title>ProductReviewsComponent </title>
<polygon fill="#fb8072" stroke="#000000" points="305.5889,-252 129.4111,-252 129.4111,-216 305.5889,-216 305.5889,-252"/>
<text text-anchor="middle" x="217.5" y="-229.8" font-family="Times,serif" font-size="14.00" fill="#000000">ProductReviewsComponent </text>
</g>
<!-- ProductReviewsModule&#45;&gt;ProductReviewsComponent  -->
<g id="edge4" class="edge">
<title>ProductReviewsModule&#45;&gt;ProductReviewsComponent </title>
<path fill="none" stroke="#000000" stroke-dasharray="5,2" d="M217.5,-187.1061C217.5,-187.1061 217.5,-205.991 217.5,-205.991"/>
<polygon fill="#000000" stroke="#000000" points="214.0001,-205.9909 217.5,-215.991 221.0001,-205.991 214.0001,-205.9909"/>
</g>
<!-- I18nModule -->
<g id="node3" class="node">
<title>I18nModule</title>
<polygon fill="#8dd3c7" stroke="#000000" points="260.2107,-122 257.2107,-126 236.2107,-126 233.2107,-122 174.7893,-122 174.7893,-86 260.2107,-86 260.2107,-122"/>
<text text-anchor="middle" x="217.5" y="-99.8" font-family="Times,serif" font-size="14.00" fill="#000000">I18nModule</text>
</g>
<!-- I18nModule&#45;&gt;ProductReviewsModule -->
<g id="edge2" class="edge">
<title>I18nModule&#45;&gt;ProductReviewsModule</title>
<path fill="none" stroke="#000000" d="M217.5,-122.1061C217.5,-122.1061 217.5,-140.991 217.5,-140.991"/>
<polygon fill="#000000" stroke="#000000" points="214.0001,-140.9909 217.5,-150.991 221.0001,-140.991 214.0001,-140.9909"/>
</g>
<!-- StarRatingModule -->
<g id="node4" class="node">
<title>StarRatingModule</title>
<polygon fill="#8dd3c7" stroke="#000000" points="157.4314,-122 154.4314,-126 133.4314,-126 130.4314,-122 37.5686,-122 37.5686,-86 157.4314,-86 157.4314,-122"/>
<text text-anchor="middle" x="97.5" y="-99.8" font-family="Times,serif" font-size="14.00" fill="#000000">StarRatingModule</text>
</g>
<!-- StarRatingModule&#45;&gt;ProductReviewsModule -->
<g id="edge3" class="edge">
<title>StarRatingModule&#45;&gt;ProductReviewsModule</title>
<path fill="none" stroke="#000000" d="M149.5312,-122.1061C149.5312,-122.1061 149.5312,-140.991 149.5312,-140.991"/>
<polygon fill="#000000" stroke="#000000" points="146.0313,-140.9909 149.5312,-150.991 153.0313,-140.991 146.0313,-140.9909"/>
</g>
</g>
</svg>
