<?xml version="1.0" encoding="UTF-8" standalone="no"?>
<!DOCTYPE svg PUBLIC "-//W3C//DTD SVG 1.1//EN"
 "http://www.w3.org/Graphics/SVG/1.1/DTD/svg11.dtd">
<!-- Generated by graphviz version 2.40.1 (20161225.0304)
 -->
<!-- Title: dependencies Pages: 1 -->
<svg width="504pt" height="211pt"
 viewBox="0.00 0.00 504.00 211.00" xmlns="http://www.w3.org/2000/svg" xmlns:xlink="http://www.w3.org/1999/xlink">
<g id="graph0" class="graph" transform="scale(1 1) rotate(0) translate(4 207)">
<title>dependencies</title>
<polygon fill="#ffffff" stroke="transparent" points="-4,4 -4,-207 500,-207 500,4 -4,4"/>
<text text-anchor="start" x="227.0091" y="-42.4" font-family="sans-serif" font-weight="bold" font-size="14.00" fill="#000000">Legend</text>
<polygon fill="#ffffb3" stroke="transparent" points="14,-10 14,-30 34,-30 34,-10 14,-10"/>
<text text-anchor="start" x="37.629" y="-15.4" font-family="sans-serif" font-size="14.00" fill="#000000"> &#160;Declarations</text>
<polygon fill="#8dd3c7" stroke="transparent" points="127,-10 127,-30 147,-30 147,-10 127,-10"/>
<text text-anchor="start" x="150.7251" y="-15.4" font-family="sans-serif" font-size="14.00" fill="#000000"> &#160;Module</text>
<polygon fill="#80b1d3" stroke="transparent" points="213,-10 213,-30 233,-30 233,-10 213,-10"/>
<text text-anchor="start" x="236.7812" y="-15.4" font-family="sans-serif" font-size="14.00" fill="#000000"> &#160;Bootstrap</text>
<polygon fill="#fdb462" stroke="transparent" points="310,-10 310,-30 330,-30 330,-10 310,-10"/>
<text text-anchor="start" x="333.6732" y="-15.4" font-family="sans-serif" font-size="14.00" fill="#000000"> &#160;Providers</text>
<polygon fill="#fb8072" stroke="transparent" points="406,-10 406,-30 426,-30 426,-10 406,-10"/>
<text text-anchor="start" x="429.7258" y="-15.4" font-family="sans-serif" font-size="14.00" fill="#000000"> &#160;Exports</text>
<g id="clust1" class="cluster">
<title>cluster_UserAccountModule</title>
<polygon fill="none" stroke="#000000" stroke-dasharray="1,5" points="65,-70 65,-195 431,-195 431,-70 65,-70"/>
</g>
<g id="clust3" class="cluster">
<title>cluster_UserAccountModule_imports</title>
<polygon fill="none" stroke="#000000" points="73,-78 73,-130 423,-130 423,-78 73,-78"/>
</g>
<!-- UserAccountCoreModule -->
<g id="node1" class="node">
<title>UserAccountCoreModule</title>
<polygon fill="#8dd3c7" stroke="#000000" points="415.1149,-122 412.1149,-126 391.1149,-126 388.1149,-122 254.8851,-122 254.8851,-86 415.1149,-86 415.1149,-122"/>
<text text-anchor="middle" x="335" y="-99.8" font-family="Times,serif" font-size="14.00" fill="#000000">UserAccountCoreModule</text>
</g>
<!-- UserAccountModule -->
<g id="node3" class="node">
<title>UserAccountModule</title>
<polygon fill="#8dd3c7" stroke="#000000" points="313.9032,-187 310.9032,-191 289.9032,-191 286.9032,-187 180.0968,-187 180.0968,-151 313.9032,-151 313.9032,-187"/>
<text text-anchor="middle" x="247" y="-164.8" font-family="Times,serif" font-size="14.00" fill="#000000">UserAccountModule</text>
</g>
<!-- UserAccountCoreModule&#45;&gt;UserAccountModule -->
<g id="edge1" class="edge">
<title>UserAccountCoreModule&#45;&gt;UserAccountModule</title>
<path fill="none" stroke="#000000" d="M284.1971,-122.1061C284.1971,-122.1061 284.1971,-140.991 284.1971,-140.991"/>
<polygon fill="#000000" stroke="#000000" points="280.6971,-140.9909 284.1971,-150.991 287.6971,-140.991 280.6971,-140.9909"/>
</g>
<!-- UserAccountOccModule -->
<g id="node2" class="node">
<title>UserAccountOccModule</title>
<polygon fill="#8dd3c7" stroke="#000000" points="236.9384,-122 233.9384,-126 212.9384,-126 209.9384,-122 81.0616,-122 81.0616,-86 236.9384,-86 236.9384,-122"/>
<text text-anchor="middle" x="159" y="-99.8" font-family="Times,serif" font-size="14.00" fill="#000000">UserAccountOccModule</text>
</g>
<!-- UserAccountOccModule&#45;&gt;UserAccountModule -->
<g id="edge2" class="edge">
<title>UserAccountOccModule&#45;&gt;UserAccountModule</title>
<path fill="none" stroke="#000000" d="M208.634,-122.1061C208.634,-122.1061 208.634,-140.991 208.634,-140.991"/>
<polygon fill="#000000" stroke="#000000" points="205.134,-140.9909 208.634,-150.991 212.134,-140.991 205.134,-140.9909"/>
</g>
</g>
</svg>
