<?xml version="1.0" encoding="UTF-8" standalone="no"?>
<!DOCTYPE svg PUBLIC "-//W3C//DTD SVG 1.1//EN"
 "http://www.w3.org/Graphics/SVG/1.1/DTD/svg11.dtd">
<!-- Generated by graphviz version 2.47.3 (20210619.1520)
 -->
<!-- Title: dependencies Pages: 1 -->
<svg width="390pt" height="174pt"
 viewBox="0.00 0.00 390.00 173.80" xmlns="http://www.w3.org/2000/svg" xmlns:xlink="http://www.w3.org/1999/xlink">
<g id="graph0" class="graph" transform="scale(1 1) rotate(0) translate(4 169.8)">
<title>dependencies</title>
<polygon fill="white" stroke="transparent" points="-4,4 -4,-169.8 386,-169.8 386,4 -4,4"/>
<text text-anchor="middle" x="191" y="-8.2" font-family="sans-serif" font-size="14.00">dependencies</text>
<g id="clust1" class="cluster">
<title>cluster_UserAccountModule</title>
<polygon fill="none" stroke="black" stroke-dasharray="1,5" points="8,-32.8 8,-157.8 374,-157.8 374,-32.8 8,-32.8"/>
</g>
<g id="clust3" class="cluster">
<title>cluster_UserAccountModule_imports</title>
<polygon fill="none" stroke="black" points="16,-40.8 16,-92.8 366,-92.8 366,-40.8 16,-40.8"/>
</g>
<!-- UserAccountCoreModule -->
<g id="node1" class="node">
<title>UserAccountCoreModule</title>
<polygon fill="#8dd3c7" stroke="black" points="358.11,-84.8 355.11,-88.8 334.11,-88.8 331.11,-84.8 197.89,-84.8 197.89,-48.8 358.11,-48.8 358.11,-84.8"/>
<text text-anchor="middle" x="278" y="-62.6" font-family="Times,serif" font-size="14.00">UserAccountCoreModule</text>
</g>
<!-- UserAccountModule -->
<g id="node3" class="node">
<title>UserAccountModule</title>
<polygon fill="#8dd3c7" stroke="black" points="256.9,-149.8 253.9,-153.8 232.9,-153.8 229.9,-149.8 123.1,-149.8 123.1,-113.8 256.9,-113.8 256.9,-149.8"/>
<text text-anchor="middle" x="190" y="-127.6" font-family="Times,serif" font-size="14.00">UserAccountModule</text>
</g>
<!-- UserAccountCoreModule&#45;&gt;UserAccountModule -->
<g id="edge1" class="edge">
<title>UserAccountCoreModule&#45;&gt;UserAccountModule</title>
<path fill="none" stroke="black" d="M227.2,-84.91C227.2,-84.91 227.2,-103.79 227.2,-103.79"/>
<polygon fill="black" stroke="black" points="223.7,-103.79 227.2,-113.79 230.7,-103.79 223.7,-103.79"/>
</g>
<!-- UserAccountOccModule -->
<g id="node2" class="node">
<title>UserAccountOccModule</title>
<polygon fill="#8dd3c7" stroke="black" points="179.94,-84.8 176.94,-88.8 155.94,-88.8 152.94,-84.8 24.06,-84.8 24.06,-48.8 179.94,-48.8 179.94,-84.8"/>
<text text-anchor="middle" x="102" y="-62.6" font-family="Times,serif" font-size="14.00">UserAccountOccModule</text>
</g>
<!-- UserAccountOccModule&#45;&gt;UserAccountModule -->
<g id="edge2" class="edge">
<title>UserAccountOccModule&#45;&gt;UserAccountModule</title>
<path fill="none" stroke="black" d="M151.63,-84.91C151.63,-84.91 151.63,-103.79 151.63,-103.79"/>
<polygon fill="black" stroke="black" points="148.13,-103.79 151.63,-113.79 155.13,-103.79 148.13,-103.79"/>
</g>
</g>
</svg>
