<?xml version="1.0" encoding="UTF-8" standalone="no"?>
<!DOCTYPE svg PUBLIC "-//W3C//DTD SVG 1.1//EN"
 "http://www.w3.org/Graphics/SVG/1.1/DTD/svg11.dtd">
<!-- Generated by graphviz version 2.47.0 (20210316.0004)
 -->
<!-- Title: dependencies Pages: 1 -->
<svg width="566pt" height="211pt"
 viewBox="0.00 0.00 566.00 211.00" xmlns="http://www.w3.org/2000/svg" xmlns:xlink="http://www.w3.org/1999/xlink">
<g id="graph0" class="graph" transform="scale(1 1) rotate(0) translate(4 207)">
<title>dependencies</title>
<polygon fill="white" stroke="transparent" points="-4,4 -4,-207 562,-207 562,4 -4,4"/>
<text text-anchor="start" x="258.01" y="-42.4" font-family="sans-serif" font-weight="bold" font-size="14.00">Legend</text>
<polygon fill="#ffffb3" stroke="transparent" points="45,-10 45,-30 65,-30 65,-10 45,-10"/>
<text text-anchor="start" x="68.63" y="-15.4" font-family="sans-serif" font-size="14.00"> &#160;Declarations</text>
<polygon fill="#8dd3c7" stroke="transparent" points="158,-10 158,-30 178,-30 178,-10 158,-10"/>
<text text-anchor="start" x="181.73" y="-15.4" font-family="sans-serif" font-size="14.00"> &#160;Module</text>
<polygon fill="#80b1d3" stroke="transparent" points="244,-10 244,-30 264,-30 264,-10 244,-10"/>
<text text-anchor="start" x="267.78" y="-15.4" font-family="sans-serif" font-size="14.00"> &#160;Bootstrap</text>
<polygon fill="#fdb462" stroke="transparent" points="341,-10 341,-30 361,-30 361,-10 341,-10"/>
<text text-anchor="start" x="364.67" y="-15.4" font-family="sans-serif" font-size="14.00"> &#160;Providers</text>
<polygon fill="#fb8072" stroke="transparent" points="437,-10 437,-30 457,-30 457,-10 437,-10"/>
<text text-anchor="start" x="460.73" y="-15.4" font-family="sans-serif" font-size="14.00"> &#160;Exports</text>
<g id="clust1" class="cluster">
<title>cluster_TextfieldConfiguratorCoreModule</title>
<polygon fill="none" stroke="black" stroke-dasharray="1,5" points="8,-70 8,-195 550,-195 550,-70 8,-70"/>
</g>
<g id="clust3" class="cluster">
<title>cluster_TextfieldConfiguratorCoreModule_imports</title>
<polygon fill="none" stroke="black" points="314,-78 314,-130 542,-130 542,-78 314,-78"/>
</g>
<g id="clust6" class="cluster">
<title>cluster_TextfieldConfiguratorCoreModule_providers</title>
<polygon fill="none" stroke="black" points="16,-78 16,-130 306,-130 306,-78 16,-78"/>
</g>
<!-- ConfiguratorTextfieldStoreModule -->
<g id="node1" class="node">
<title>ConfiguratorTextfieldStoreModule</title>
<polygon fill="#8dd3c7" stroke="black" points="534.23,-122 531.23,-126 510.23,-126 507.23,-122 321.77,-122 321.77,-86 534.23,-86 534.23,-122"/>
<text text-anchor="middle" x="428" y="-99.8" font-family="Times,serif" font-size="14.00">ConfiguratorTextfieldStoreModule</text>
</g>
<!-- TextfieldConfiguratorCoreModule -->
<g id="node2" class="node">
<title>TextfieldConfiguratorCoreModule</title>
<polygon fill="#8dd3c7" stroke="black" points="399.39,-187 396.39,-191 375.39,-191 372.39,-187 188.61,-187 188.61,-151 399.39,-151 399.39,-187"/>
<text text-anchor="middle" x="294" y="-164.8" font-family="Times,serif" font-size="14.00">TextfieldConfiguratorCoreModule</text>
</g>
<!-- ConfiguratorTextfieldStoreModule&#45;&gt;TextfieldConfiguratorCoreModule -->
<g id="edge1" class="edge">
<title>ConfiguratorTextfieldStoreModule&#45;&gt;TextfieldConfiguratorCoreModule</title>
<path fill="none" stroke="black" d="M360.42,-122.11C360.42,-122.11 360.42,-140.99 360.42,-140.99"/>
<polygon fill="black" stroke="black" points="356.92,-140.99 360.42,-150.99 363.92,-140.99 356.92,-140.99"/>
</g>
<!-- ConfiguratorTextfieldConnector -->
<g id="node3" class="node">
<title>ConfiguratorTextfieldConnector</title>
<ellipse fill="#fdb462" stroke="black" cx="161" cy="-104" rx="136.58" ry="18"/>
<text text-anchor="middle" x="161" y="-99.8" font-family="Times,serif" font-size="14.00">ConfiguratorTextfieldConnector</text>
</g>
<!-- ConfiguratorTextfieldConnector&#45;&gt;TextfieldConfiguratorCoreModule -->
<g id="edge2" class="edge">
<title>ConfiguratorTextfieldConnector&#45;&gt;TextfieldConfiguratorCoreModule</title>
<path fill="none" stroke="black" d="M243.17,-118.43C243.17,-118.43 243.17,-140.89 243.17,-140.89"/>
<polygon fill="black" stroke="black" points="239.67,-140.89 243.17,-150.89 246.67,-140.89 239.67,-140.89"/>
</g>
</g>
</svg>
