<?xml version="1.0" encoding="UTF-8" standalone="no"?>
<!DOCTYPE svg PUBLIC "-//W3C//DTD SVG 1.1//EN"
 "http://www.w3.org/Graphics/SVG/1.1/DTD/svg11.dtd">
<!-- Generated by graphviz version 2.47.3 (20210619.1520)
 -->
<!-- Title: dependencies Pages: 1 -->
<svg width="566pt" height="174pt"
 viewBox="0.00 0.00 566.00 173.80" xmlns="http://www.w3.org/2000/svg" xmlns:xlink="http://www.w3.org/1999/xlink">
<g id="graph0" class="graph" transform="scale(1 1) rotate(0) translate(4 169.8)">
<title>dependencies</title>
<polygon fill="white" stroke="transparent" points="-4,4 -4,-169.8 562,-169.8 562,4 -4,4"/>
<text text-anchor="middle" x="279" y="-8.2" font-family="sans-serif" font-size="14.00">dependencies</text>
<g id="clust1" class="cluster">
<title>cluster_TextfieldConfiguratorCoreModule</title>
<polygon fill="none" stroke="black" stroke-dasharray="1,5" points="8,-32.8 8,-157.8 550,-157.8 550,-32.8 8,-32.8"/>
</g>
<g id="clust3" class="cluster">
<title>cluster_TextfieldConfiguratorCoreModule_imports</title>
<polygon fill="none" stroke="black" points="314,-40.8 314,-92.8 542,-92.8 542,-40.8 314,-40.8"/>
</g>
<g id="clust6" class="cluster">
<title>cluster_TextfieldConfiguratorCoreModule_providers</title>
<polygon fill="none" stroke="black" points="16,-40.8 16,-92.8 306,-92.8 306,-40.8 16,-40.8"/>
</g>
<!-- ConfiguratorTextfieldStoreModule -->
<g id="node1" class="node">
<title>ConfiguratorTextfieldStoreModule</title>
<polygon fill="#8dd3c7" stroke="black" points="534.23,-84.8 531.23,-88.8 510.23,-88.8 507.23,-84.8 321.77,-84.8 321.77,-48.8 534.23,-48.8 534.23,-84.8"/>
<text text-anchor="middle" x="428" y="-62.6" font-family="Times,serif" font-size="14.00">ConfiguratorTextfieldStoreModule</text>
</g>
<!-- TextfieldConfiguratorCoreModule -->
<g id="node2" class="node">
<title>TextfieldConfiguratorCoreModule</title>
<polygon fill="#8dd3c7" stroke="black" points="399.39,-149.8 396.39,-153.8 375.39,-153.8 372.39,-149.8 188.61,-149.8 188.61,-113.8 399.39,-113.8 399.39,-149.8"/>
<text text-anchor="middle" x="294" y="-127.6" font-family="Times,serif" font-size="14.00">TextfieldConfiguratorCoreModule</text>
</g>
<!-- ConfiguratorTextfieldStoreModule&#45;&gt;TextfieldConfiguratorCoreModule -->
<g id="edge1" class="edge">
<title>ConfiguratorTextfieldStoreModule&#45;&gt;TextfieldConfiguratorCoreModule</title>
<path fill="none" stroke="black" d="M360.42,-84.91C360.42,-84.91 360.42,-103.79 360.42,-103.79"/>
<polygon fill="black" stroke="black" points="356.92,-103.79 360.42,-113.79 363.92,-103.79 356.92,-103.79"/>
</g>
<!-- ConfiguratorTextfieldConnector -->
<g id="node3" class="node">
<title>ConfiguratorTextfieldConnector</title>
<ellipse fill="#fdb462" stroke="black" cx="161" cy="-66.8" rx="136.58" ry="18"/>
<text text-anchor="middle" x="161" y="-62.6" font-family="Times,serif" font-size="14.00">ConfiguratorTextfieldConnector</text>
</g>
<!-- ConfiguratorTextfieldConnector&#45;&gt;TextfieldConfiguratorCoreModule -->
<g id="edge2" class="edge">
<title>ConfiguratorTextfieldConnector&#45;&gt;TextfieldConfiguratorCoreModule</title>
<path fill="none" stroke="black" d="M243.17,-81.23C243.17,-81.23 243.17,-103.69 243.17,-103.69"/>
<polygon fill="black" stroke="black" points="239.67,-103.69 243.17,-113.69 246.67,-103.69 239.67,-103.69"/>
</g>
</g>
</svg>
