<?xml version="1.0" encoding="UTF-8" standalone="no"?>
<!DOCTYPE svg PUBLIC "-//W3C//DTD SVG 1.1//EN"
 "http://www.w3.org/Graphics/SVG/1.1/DTD/svg11.dtd">
<!-- Generated by graphviz version 2.47.3 (20210619.1520)
 -->
<!-- Title: dependencies Pages: 1 -->
<svg width="566pt" height="174pt"
 viewBox="0.00 0.00 566.00 173.80" xmlns="http://www.w3.org/2000/svg" xmlns:xlink="http://www.w3.org/1999/xlink">
<g id="graph0" class="graph" transform="scale(1 1) rotate(0) translate(4 169.8)">
<title>dependencies</title>
<polygon fill="white" stroke="transparent" points="-4,4 -4,-169.8 562,-169.8 562,4 -4,4"/>
<text text-anchor="middle" x="279" y="-8.2" font-family="sans-serif" font-size="14.00">dependencies</text>
<g id="clust1" class="cluster">
<title>cluster_TextfieldConfiguratorCoreModule</title>
<polygon fill="none" stroke="black" stroke-dasharray="1,5" points="8,-32.8 8,-157.8 550,-157.8 550,-32.8 8,-32.8"/>
</g>
<g id="clust6" class="cluster">
<title>cluster_TextfieldConfiguratorCoreModule_providers</title>
<polygon fill="none" stroke="black" points="252,-40.8 252,-92.8 542,-92.8 542,-40.8 252,-40.8"/>
</g>
<g id="clust3" class="cluster">
<title>cluster_TextfieldConfiguratorCoreModule_imports</title>
<polygon fill="none" stroke="black" points="16,-40.8 16,-92.8 244,-92.8 244,-40.8 16,-40.8"/>
</g>
<!-- ConfiguratorTextfieldStoreModule -->
<g id="node1" class="node">
<title>ConfiguratorTextfieldStoreModule</title>
<polygon fill="#8dd3c7" stroke="black" points="236.23,-84.8 233.23,-88.8 212.23,-88.8 209.23,-84.8 23.77,-84.8 23.77,-48.8 236.23,-48.8 236.23,-84.8"/>
<text text-anchor="middle" x="130" y="-62.6" font-family="Times,serif" font-size="14.00">ConfiguratorTextfieldStoreModule</text>
</g>
<!-- TextfieldConfiguratorCoreModule -->
<g id="node2" class="node">
<title>TextfieldConfiguratorCoreModule</title>
<polygon fill="#8dd3c7" stroke="black" points="368.39,-149.8 365.39,-153.8 344.39,-153.8 341.39,-149.8 157.61,-149.8 157.61,-113.8 368.39,-113.8 368.39,-149.8"/>
<text text-anchor="middle" x="263" y="-127.6" font-family="Times,serif" font-size="14.00">TextfieldConfiguratorCoreModule</text>
</g>
<!-- ConfiguratorTextfieldStoreModule&#45;&gt;TextfieldConfiguratorCoreModule -->
<g id="edge1" class="edge">
<title>ConfiguratorTextfieldStoreModule&#45;&gt;TextfieldConfiguratorCoreModule</title>
<path fill="none" stroke="black" d="M197.08,-84.91C197.08,-84.91 197.08,-103.79 197.08,-103.79"/>
<polygon fill="black" stroke="black" points="193.58,-103.79 197.08,-113.79 200.58,-103.79 193.58,-103.79"/>
</g>
<!-- ConfiguratorTextfieldConnector -->
<g id="node3" class="node">
<title>ConfiguratorTextfieldConnector</title>
<ellipse fill="#fdb462" stroke="black" cx="397" cy="-66.8" rx="136.58" ry="18"/>
<text text-anchor="middle" x="397" y="-62.6" font-family="Times,serif" font-size="14.00">ConfiguratorTextfieldConnector</text>
</g>
<!-- ConfiguratorTextfieldConnector&#45;&gt;TextfieldConfiguratorCoreModule -->
<g id="edge2" class="edge">
<title>ConfiguratorTextfieldConnector&#45;&gt;TextfieldConfiguratorCoreModule</title>
<path fill="none" stroke="black" d="M314.33,-81.23C314.33,-81.23 314.33,-103.69 314.33,-103.69"/>
<polygon fill="black" stroke="black" points="310.83,-103.69 314.33,-113.69 317.83,-103.69 310.83,-103.69"/>
</g>
</g>
</svg>
