<?xml version="1.0" encoding="UTF-8" standalone="no"?>
<!DOCTYPE svg PUBLIC "-//W3C//DTD SVG 1.1//EN"
 "http://www.w3.org/Graphics/SVG/1.1/DTD/svg11.dtd">
<!-- Generated by graphviz version 2.40.1 (20161225.0304)
 -->
<!-- Title: dependencies Pages: 1 -->
<svg width="566pt" height="211pt"
 viewBox="0.00 0.00 566.00 211.00" xmlns="http://www.w3.org/2000/svg" xmlns:xlink="http://www.w3.org/1999/xlink">
<g id="graph0" class="graph" transform="scale(1 1) rotate(0) translate(4 207)">
<title>dependencies</title>
<polygon fill="#ffffff" stroke="transparent" points="-4,4 -4,-207 562,-207 562,4 -4,4"/>
<text text-anchor="start" x="258.0091" y="-42.4" font-family="sans-serif" font-weight="bold" font-size="14.00" fill="#000000">Legend</text>
<polygon fill="#ffffb3" stroke="transparent" points="45,-10 45,-30 65,-30 65,-10 45,-10"/>
<text text-anchor="start" x="68.629" y="-15.4" font-family="sans-serif" font-size="14.00" fill="#000000"> &#160;Declarations</text>
<polygon fill="#8dd3c7" stroke="transparent" points="158,-10 158,-30 178,-30 178,-10 158,-10"/>
<text text-anchor="start" x="181.7251" y="-15.4" font-family="sans-serif" font-size="14.00" fill="#000000"> &#160;Module</text>
<polygon fill="#80b1d3" stroke="transparent" points="244,-10 244,-30 264,-30 264,-10 244,-10"/>
<text text-anchor="start" x="267.7812" y="-15.4" font-family="sans-serif" font-size="14.00" fill="#000000"> &#160;Bootstrap</text>
<polygon fill="#fdb462" stroke="transparent" points="341,-10 341,-30 361,-30 361,-10 341,-10"/>
<text text-anchor="start" x="364.6732" y="-15.4" font-family="sans-serif" font-size="14.00" fill="#000000"> &#160;Providers</text>
<polygon fill="#fb8072" stroke="transparent" points="437,-10 437,-30 457,-30 457,-10 437,-10"/>
<text text-anchor="start" x="460.7258" y="-15.4" font-family="sans-serif" font-size="14.00" fill="#000000"> &#160;Exports</text>
<g id="clust1" class="cluster">
<title>cluster_TextfieldConfiguratorCoreModule</title>
<polygon fill="none" stroke="#000000" stroke-dasharray="1,5" points="8,-70 8,-195 550,-195 550,-70 8,-70"/>
</g>
<g id="clust3" class="cluster">
<title>cluster_TextfieldConfiguratorCoreModule_imports</title>
<polygon fill="none" stroke="#000000" points="314,-78 314,-130 542,-130 542,-78 314,-78"/>
</g>
<g id="clust6" class="cluster">
<title>cluster_TextfieldConfiguratorCoreModule_providers</title>
<polygon fill="none" stroke="#000000" points="16,-78 16,-130 306,-130 306,-78 16,-78"/>
</g>
<!-- ConfiguratorTextfieldStoreModule -->
<g id="node1" class="node">
<title>ConfiguratorTextfieldStoreModule</title>
<polygon fill="#8dd3c7" stroke="#000000" points="534.2268,-122 531.2268,-126 510.2268,-126 507.2268,-122 321.7732,-122 321.7732,-86 534.2268,-86 534.2268,-122"/>
<text text-anchor="middle" x="428" y="-99.8" font-family="Times,serif" font-size="14.00" fill="#000000">ConfiguratorTextfieldStoreModule</text>
</g>
<!-- TextfieldConfiguratorCoreModule -->
<g id="node2" class="node">
<title>TextfieldConfiguratorCoreModule</title>
<polygon fill="#8dd3c7" stroke="#000000" points="399.3904,-187 396.3904,-191 375.3904,-191 372.3904,-187 188.6096,-187 188.6096,-151 399.3904,-151 399.3904,-187"/>
<text text-anchor="middle" x="294" y="-164.8" font-family="Times,serif" font-size="14.00" fill="#000000">TextfieldConfiguratorCoreModule</text>
</g>
<!-- ConfiguratorTextfieldStoreModule&#45;&gt;TextfieldConfiguratorCoreModule -->
<g id="edge1" class="edge">
<title>ConfiguratorTextfieldStoreModule&#45;&gt;TextfieldConfiguratorCoreModule</title>
<path fill="none" stroke="#000000" d="M360.4159,-122.1061C360.4159,-122.1061 360.4159,-140.991 360.4159,-140.991"/>
<polygon fill="#000000" stroke="#000000" points="356.9159,-140.9909 360.4159,-150.991 363.9159,-140.991 356.9159,-140.9909"/>
</g>
<!-- ConfiguratorTextfieldConnector -->
<g id="node3" class="node">
<title>ConfiguratorTextfieldConnector</title>
<ellipse fill="#fdb462" stroke="#000000" cx="161" cy="-104" rx="136.5783" ry="18"/>
<text text-anchor="middle" x="161" y="-99.8" font-family="Times,serif" font-size="14.00" fill="#000000">ConfiguratorTextfieldConnector</text>
</g>
<!-- ConfiguratorTextfieldConnector&#45;&gt;TextfieldConfiguratorCoreModule -->
<g id="edge2" class="edge">
<title>ConfiguratorTextfieldConnector&#45;&gt;TextfieldConfiguratorCoreModule</title>
<path fill="none" stroke="#000000" d="M243.1721,-118.4256C243.1721,-118.4256 243.1721,-140.8939 243.1721,-140.8939"/>
<polygon fill="#000000" stroke="#000000" points="239.6722,-140.8938 243.1721,-150.8939 246.6722,-140.8939 239.6722,-140.8938"/>
</g>
</g>
</svg>
