<?xml version="1.0" encoding="UTF-8" standalone="no"?>
<!DOCTYPE svg PUBLIC "-//W3C//DTD SVG 1.1//EN"
 "http://www.w3.org/Graphics/SVG/1.1/DTD/svg11.dtd">
<!-- Generated by graphviz version 2.40.1 (20161225.0304)
 -->
<!-- Title: dependencies Pages: 1 -->
<svg width="688pt" height="284pt"
 viewBox="0.00 0.00 688.00 284.00" xmlns="http://www.w3.org/2000/svg" xmlns:xlink="http://www.w3.org/1999/xlink">
<g id="graph0" class="graph" transform="scale(1 1) rotate(0) translate(4 280)">
<title>dependencies</title>
<polygon fill="#ffffff" stroke="transparent" points="-4,4 -4,-280 684,-280 684,4 -4,4"/>
<text text-anchor="start" x="319.0091" y="-42.4" font-family="sans-serif" font-weight="bold" font-size="14.00" fill="#000000">Legend</text>
<polygon fill="#ffffb3" stroke="transparent" points="106,-10 106,-30 126,-30 126,-10 106,-10"/>
<text text-anchor="start" x="129.629" y="-15.4" font-family="sans-serif" font-size="14.00" fill="#000000"> &#160;Declarations</text>
<polygon fill="#8dd3c7" stroke="transparent" points="219,-10 219,-30 239,-30 239,-10 219,-10"/>
<text text-anchor="start" x="242.7251" y="-15.4" font-family="sans-serif" font-size="14.00" fill="#000000"> &#160;Module</text>
<polygon fill="#80b1d3" stroke="transparent" points="305,-10 305,-30 325,-30 325,-10 305,-10"/>
<text text-anchor="start" x="328.7812" y="-15.4" font-family="sans-serif" font-size="14.00" fill="#000000"> &#160;Bootstrap</text>
<polygon fill="#fdb462" stroke="transparent" points="402,-10 402,-30 422,-30 422,-10 402,-10"/>
<text text-anchor="start" x="425.6732" y="-15.4" font-family="sans-serif" font-size="14.00" fill="#000000"> &#160;Providers</text>
<polygon fill="#fb8072" stroke="transparent" points="498,-10 498,-30 518,-30 518,-10 498,-10"/>
<text text-anchor="start" x="521.7258" y="-15.4" font-family="sans-serif" font-size="14.00" fill="#000000"> &#160;Exports</text>
<g id="clust1" class="cluster">
<title>cluster_CartTotalsModule</title>
<polygon fill="none" stroke="#000000" stroke-dasharray="1,5" points="8,-70 8,-268 672,-268 672,-70 8,-70"/>
</g>
<g id="clust2" class="cluster">
<title>cluster_CartTotalsModule_declarations</title>
<polygon fill="none" stroke="#000000" points="508,-78 508,-130 664,-130 664,-78 508,-78"/>
</g>
<g id="clust4" class="cluster">
<title>cluster_CartTotalsModule_imports</title>
<polygon fill="none" stroke="#000000" points="16,-78 16,-130 500,-130 500,-78 16,-78"/>
</g>
<g id="clust5" class="cluster">
<title>cluster_CartTotalsModule_exports</title>
<polygon fill="none" stroke="#000000" points="205,-208 205,-260 365,-260 365,-208 205,-208"/>
</g>
<!-- CartTotalsComponent -->
<g id="node1" class="node">
<title>CartTotalsComponent</title>
<polygon fill="#ffffb3" stroke="#000000" points="656.4285,-122 515.5715,-122 515.5715,-86 656.4285,-86 656.4285,-122"/>
<text text-anchor="middle" x="586" y="-99.8" font-family="Times,serif" font-size="14.00" fill="#000000">CartTotalsComponent</text>
</g>
<!-- CartTotalsModule -->
<g id="node2" class="node">
<title>CartTotalsModule</title>
<polygon fill="#8dd3c7" stroke="#000000" points="344.1457,-187 341.1457,-191 320.1457,-191 317.1457,-187 225.8543,-187 225.8543,-151 344.1457,-151 344.1457,-187"/>
<text text-anchor="middle" x="285" y="-164.8" font-family="Times,serif" font-size="14.00" fill="#000000">CartTotalsModule</text>
</g>
<!-- CartTotalsComponent&#45;&gt;CartTotalsModule -->
<g id="edge1" class="edge">
<title>CartTotalsComponent&#45;&gt;CartTotalsModule</title>
<path fill="none" stroke="#000000" d="M586,-122.2843C586,-143.3211 586,-175 586,-175 586,-175 354.4679,-175 354.4679,-175"/>
<polygon fill="#000000" stroke="#000000" points="354.4679,-171.5001 344.4679,-175 354.4679,-178.5001 354.4679,-171.5001"/>
</g>
<!-- CartTotalsComponent  -->
<g id="node7" class="node">
<title>CartTotalsComponent </title>
<polygon fill="#fb8072" stroke="#000000" points="356.9278,-252 213.0722,-252 213.0722,-216 356.9278,-216 356.9278,-252"/>
<text text-anchor="middle" x="285" y="-229.8" font-family="Times,serif" font-size="14.00" fill="#000000">CartTotalsComponent </text>
</g>
<!-- CartTotalsModule&#45;&gt;CartTotalsComponent  -->
<g id="edge6" class="edge">
<title>CartTotalsModule&#45;&gt;CartTotalsComponent </title>
<path fill="none" stroke="#000000" stroke-dasharray="5,2" d="M285,-187.1061C285,-187.1061 285,-205.991 285,-205.991"/>
<polygon fill="#000000" stroke="#000000" points="281.5001,-205.9909 285,-215.991 288.5001,-205.991 281.5001,-205.9909"/>
</g>
<!-- CartCouponModule -->
<g id="node3" class="node">
<title>CartCouponModule</title>
<polygon fill="#8dd3c7" stroke="#000000" points="491.9888,-122 488.9888,-126 467.9888,-126 464.9888,-122 364.0112,-122 364.0112,-86 491.9888,-86 491.9888,-122"/>
<text text-anchor="middle" x="428" y="-99.8" font-family="Times,serif" font-size="14.00" fill="#000000">CartCouponModule</text>
</g>
<!-- CartCouponModule&#45;&gt;CartTotalsModule -->
<g id="edge2" class="edge">
<title>CartCouponModule&#45;&gt;CartTotalsModule</title>
<path fill="none" stroke="#000000" d="M428,-122.0225C428,-139.3734 428,-163 428,-163 428,-163 354.4026,-163 354.4026,-163"/>
<polygon fill="#000000" stroke="#000000" points="354.4026,-159.5001 344.4026,-163 354.4025,-166.5001 354.4026,-159.5001"/>
</g>
<!-- CartSharedModule -->
<g id="node4" class="node">
<title>CartSharedModule</title>
<polygon fill="#8dd3c7" stroke="#000000" points="346.0255,-122 343.0255,-126 322.0255,-126 319.0255,-122 223.9745,-122 223.9745,-86 346.0255,-86 346.0255,-122"/>
<text text-anchor="middle" x="285" y="-99.8" font-family="Times,serif" font-size="14.00" fill="#000000">CartSharedModule</text>
</g>
<!-- CartSharedModule&#45;&gt;CartTotalsModule -->
<g id="edge3" class="edge">
<title>CartSharedModule&#45;&gt;CartTotalsModule</title>
<path fill="none" stroke="#000000" d="M285,-122.1061C285,-122.1061 285,-140.991 285,-140.991"/>
<polygon fill="#000000" stroke="#000000" points="281.5001,-140.9909 285,-150.991 288.5001,-140.991 281.5001,-140.9909"/>
</g>
<!-- I18nModule -->
<g id="node5" class="node">
<title>I18nModule</title>
<polygon fill="#8dd3c7" stroke="#000000" points="205.7107,-122 202.7107,-126 181.7107,-126 178.7107,-122 120.2893,-122 120.2893,-86 205.7107,-86 205.7107,-122"/>
<text text-anchor="middle" x="163" y="-99.8" font-family="Times,serif" font-size="14.00" fill="#000000">I18nModule</text>
</g>
<!-- I18nModule&#45;&gt;CartTotalsModule -->
<g id="edge4" class="edge">
<title>I18nModule&#45;&gt;CartTotalsModule</title>
<path fill="none" stroke="#000000" d="M163,-122.0225C163,-139.3734 163,-163 163,-163 163,-163 215.7869,-163 215.7869,-163"/>
<polygon fill="#000000" stroke="#000000" points="215.7869,-166.5001 225.7869,-163 215.7868,-159.5001 215.7869,-166.5001"/>
</g>
<!-- UrlModule -->
<g id="node6" class="node">
<title>UrlModule</title>
<polygon fill="#8dd3c7" stroke="#000000" points="102.2079,-122 99.2079,-126 78.2079,-126 75.2079,-122 23.7921,-122 23.7921,-86 102.2079,-86 102.2079,-122"/>
<text text-anchor="middle" x="63" y="-99.8" font-family="Times,serif" font-size="14.00" fill="#000000">UrlModule</text>
</g>
<!-- UrlModule&#45;&gt;CartTotalsModule -->
<g id="edge5" class="edge">
<title>UrlModule&#45;&gt;CartTotalsModule</title>
<path fill="none" stroke="#000000" d="M63,-122.2843C63,-143.3211 63,-175 63,-175 63,-175 215.7997,-175 215.7997,-175"/>
<polygon fill="#000000" stroke="#000000" points="215.7997,-178.5001 225.7997,-175 215.7997,-171.5001 215.7997,-178.5001"/>
</g>
</g>
</svg>
