<?xml version="1.0" encoding="UTF-8" standalone="no"?>
<!DOCTYPE svg PUBLIC "-//W3C//DTD SVG 1.1//EN"
 "http://www.w3.org/Graphics/SVG/1.1/DTD/svg11.dtd">
<!-- Generated by graphviz version 2.47.3 (20210619.1520)
 -->
<!-- Title: dependencies Pages: 1 -->
<svg width="688pt" height="247pt"
 viewBox="0.00 0.00 688.00 246.80" xmlns="http://www.w3.org/2000/svg" xmlns:xlink="http://www.w3.org/1999/xlink">
<g id="graph0" class="graph" transform="scale(1 1) rotate(0) translate(4 242.8)">
<title>dependencies</title>
<polygon fill="white" stroke="transparent" points="-4,4 -4,-242.8 684,-242.8 684,4 -4,4"/>
<text text-anchor="middle" x="340" y="-8.2" font-family="sans-serif" font-size="14.00">dependencies</text>
<g id="clust1" class="cluster">
<title>cluster_CartTotalsModule</title>
<polygon fill="none" stroke="black" stroke-dasharray="1,5" points="8,-32.8 8,-230.8 672,-230.8 672,-32.8 8,-32.8"/>
</g>
<g id="clust2" class="cluster">
<title>cluster_CartTotalsModule_declarations</title>
<polygon fill="none" stroke="black" points="508,-40.8 508,-92.8 664,-92.8 664,-40.8 508,-40.8"/>
</g>
<g id="clust5" class="cluster">
<title>cluster_CartTotalsModule_exports</title>
<polygon fill="none" stroke="black" points="205,-170.8 205,-222.8 365,-222.8 365,-170.8 205,-170.8"/>
</g>
<g id="clust4" class="cluster">
<title>cluster_CartTotalsModule_imports</title>
<polygon fill="none" stroke="black" points="16,-40.8 16,-92.8 500,-92.8 500,-40.8 16,-40.8"/>
</g>
<!-- CartTotalsComponent -->
<g id="node1" class="node">
<title>CartTotalsComponent</title>
<polygon fill="#ffffb3" stroke="black" points="656.43,-84.8 515.57,-84.8 515.57,-48.8 656.43,-48.8 656.43,-84.8"/>
<text text-anchor="middle" x="586" y="-62.6" font-family="Times,serif" font-size="14.00">CartTotalsComponent</text>
</g>
<!-- CartTotalsModule -->
<g id="node2" class="node">
<title>CartTotalsModule</title>
<polygon fill="#8dd3c7" stroke="black" points="344.15,-149.8 341.15,-153.8 320.15,-153.8 317.15,-149.8 225.85,-149.8 225.85,-113.8 344.15,-113.8 344.15,-149.8"/>
<text text-anchor="middle" x="285" y="-127.6" font-family="Times,serif" font-size="14.00">CartTotalsModule</text>
</g>
<!-- CartTotalsComponent&#45;&gt;CartTotalsModule -->
<g id="edge1" class="edge">
<title>CartTotalsComponent&#45;&gt;CartTotalsModule</title>
<path fill="none" stroke="black" d="M586,-85.08C586,-106.12 586,-137.8 586,-137.8 586,-137.8 354.47,-137.8 354.47,-137.8"/>
<polygon fill="black" stroke="black" points="354.47,-134.3 344.47,-137.8 354.47,-141.3 354.47,-134.3"/>
</g>
<!-- CartTotalsComponent  -->
<g id="node7" class="node">
<title>CartTotalsComponent </title>
<polygon fill="#fb8072" stroke="black" points="356.93,-214.8 213.07,-214.8 213.07,-178.8 356.93,-178.8 356.93,-214.8"/>
<text text-anchor="middle" x="285" y="-192.6" font-family="Times,serif" font-size="14.00">CartTotalsComponent </text>
</g>
<!-- CartTotalsModule&#45;&gt;CartTotalsComponent  -->
<g id="edge6" class="edge">
<title>CartTotalsModule&#45;&gt;CartTotalsComponent </title>
<path fill="none" stroke="black" stroke-dasharray="5,2" d="M285,-149.91C285,-149.91 285,-168.79 285,-168.79"/>
<polygon fill="black" stroke="black" points="281.5,-168.79 285,-178.79 288.5,-168.79 281.5,-168.79"/>
</g>
<!-- CartCouponModule -->
<g id="node3" class="node">
<title>CartCouponModule</title>
<polygon fill="#8dd3c7" stroke="black" points="491.99,-84.8 488.99,-88.8 467.99,-88.8 464.99,-84.8 364.01,-84.8 364.01,-48.8 491.99,-48.8 491.99,-84.8"/>
<text text-anchor="middle" x="428" y="-62.6" font-family="Times,serif" font-size="14.00">CartCouponModule</text>
</g>
<!-- CartCouponModule&#45;&gt;CartTotalsModule -->
<g id="edge2" class="edge">
<title>CartCouponModule&#45;&gt;CartTotalsModule</title>
<path fill="none" stroke="black" d="M428,-84.82C428,-102.17 428,-125.8 428,-125.8 428,-125.8 354.4,-125.8 354.4,-125.8"/>
<polygon fill="black" stroke="black" points="354.4,-122.3 344.4,-125.8 354.4,-129.3 354.4,-122.3"/>
</g>
<!-- CartSharedModule -->
<g id="node4" class="node">
<title>CartSharedModule</title>
<polygon fill="#8dd3c7" stroke="black" points="346.03,-84.8 343.03,-88.8 322.03,-88.8 319.03,-84.8 223.97,-84.8 223.97,-48.8 346.03,-48.8 346.03,-84.8"/>
<text text-anchor="middle" x="285" y="-62.6" font-family="Times,serif" font-size="14.00">CartSharedModule</text>
</g>
<!-- CartSharedModule&#45;&gt;CartTotalsModule -->
<g id="edge3" class="edge">
<title>CartSharedModule&#45;&gt;CartTotalsModule</title>
<path fill="none" stroke="black" d="M285,-84.91C285,-84.91 285,-103.79 285,-103.79"/>
<polygon fill="black" stroke="black" points="281.5,-103.79 285,-113.79 288.5,-103.79 281.5,-103.79"/>
</g>
<!-- I18nModule -->
<g id="node5" class="node">
<title>I18nModule</title>
<polygon fill="#8dd3c7" stroke="black" points="205.71,-84.8 202.71,-88.8 181.71,-88.8 178.71,-84.8 120.29,-84.8 120.29,-48.8 205.71,-48.8 205.71,-84.8"/>
<text text-anchor="middle" x="163" y="-62.6" font-family="Times,serif" font-size="14.00">I18nModule</text>
</g>
<!-- I18nModule&#45;&gt;CartTotalsModule -->
<g id="edge4" class="edge">
<title>I18nModule&#45;&gt;CartTotalsModule</title>
<path fill="none" stroke="black" d="M163,-84.82C163,-102.17 163,-125.8 163,-125.8 163,-125.8 215.79,-125.8 215.79,-125.8"/>
<polygon fill="black" stroke="black" points="215.79,-129.3 225.79,-125.8 215.79,-122.3 215.79,-129.3"/>
</g>
<!-- UrlModule -->
<g id="node6" class="node">
<title>UrlModule</title>
<polygon fill="#8dd3c7" stroke="black" points="102.21,-84.8 99.21,-88.8 78.21,-88.8 75.21,-84.8 23.79,-84.8 23.79,-48.8 102.21,-48.8 102.21,-84.8"/>
<text text-anchor="middle" x="63" y="-62.6" font-family="Times,serif" font-size="14.00">UrlModule</text>
</g>
<!-- UrlModule&#45;&gt;CartTotalsModule -->
<g id="edge5" class="edge">
<title>UrlModule&#45;&gt;CartTotalsModule</title>
<path fill="none" stroke="black" d="M63,-85.08C63,-106.12 63,-137.8 63,-137.8 63,-137.8 215.8,-137.8 215.8,-137.8"/>
<polygon fill="black" stroke="black" points="215.8,-141.3 225.8,-137.8 215.8,-134.3 215.8,-141.3"/>
</g>
</g>
</svg>
