<?xml version="1.0" encoding="UTF-8" standalone="no"?>
<!DOCTYPE svg PUBLIC "-//W3C//DTD SVG 1.1//EN"
 "http://www.w3.org/Graphics/SVG/1.1/DTD/svg11.dtd">
<!-- Generated by graphviz version 2.40.1 (20161225.0304)
 -->
<!-- Title: dependencies Pages: 1 -->
<svg width="804pt" height="284pt"
 viewBox="0.00 0.00 804.00 284.00" xmlns="http://www.w3.org/2000/svg" xmlns:xlink="http://www.w3.org/1999/xlink">
<g id="graph0" class="graph" transform="scale(1 1) rotate(0) translate(4 280)">
<title>dependencies</title>
<polygon fill="#ffffff" stroke="transparent" points="-4,4 -4,-280 800,-280 800,4 -4,4"/>
<text text-anchor="start" x="377.0091" y="-42.4" font-family="sans-serif" font-weight="bold" font-size="14.00" fill="#000000">Legend</text>
<polygon fill="#ffffb3" stroke="transparent" points="164,-10 164,-30 184,-30 184,-10 164,-10"/>
<text text-anchor="start" x="187.629" y="-15.4" font-family="sans-serif" font-size="14.00" fill="#000000"> &#160;Declarations</text>
<polygon fill="#8dd3c7" stroke="transparent" points="277,-10 277,-30 297,-30 297,-10 277,-10"/>
<text text-anchor="start" x="300.7251" y="-15.4" font-family="sans-serif" font-size="14.00" fill="#000000"> &#160;Module</text>
<polygon fill="#80b1d3" stroke="transparent" points="363,-10 363,-30 383,-30 383,-10 363,-10"/>
<text text-anchor="start" x="386.7812" y="-15.4" font-family="sans-serif" font-size="14.00" fill="#000000"> &#160;Bootstrap</text>
<polygon fill="#fdb462" stroke="transparent" points="460,-10 460,-30 480,-30 480,-10 460,-10"/>
<text text-anchor="start" x="483.6732" y="-15.4" font-family="sans-serif" font-size="14.00" fill="#000000"> &#160;Providers</text>
<polygon fill="#fb8072" stroke="transparent" points="556,-10 556,-30 576,-30 576,-10 556,-10"/>
<text text-anchor="start" x="579.7258" y="-15.4" font-family="sans-serif" font-size="14.00" fill="#000000"> &#160;Exports</text>
<g id="clust1" class="cluster">
<title>cluster_CartTotalsModule</title>
<polygon fill="none" stroke="#000000" stroke-dasharray="1,5" points="8,-70 8,-268 788,-268 788,-70 8,-70"/>
</g>
<g id="clust2" class="cluster">
<title>cluster_CartTotalsModule_declarations</title>
<polygon fill="none" stroke="#000000" points="624,-78 624,-130 780,-130 780,-78 624,-78"/>
</g>
<g id="clust4" class="cluster">
<title>cluster_CartTotalsModule_imports</title>
<polygon fill="none" stroke="#000000" points="16,-78 16,-130 616,-130 616,-78 16,-78"/>
</g>
<g id="clust5" class="cluster">
<title>cluster_CartTotalsModule_exports</title>
<polygon fill="none" stroke="#000000" points="257,-208 257,-260 417,-260 417,-208 257,-208"/>
</g>
<!-- CartTotalsComponent -->
<g id="node1" class="node">
<title>CartTotalsComponent</title>
<polygon fill="#ffffb3" stroke="#000000" points="772.4285,-122 631.5715,-122 631.5715,-86 772.4285,-86 772.4285,-122"/>
<text text-anchor="middle" x="702" y="-99.8" font-family="Times,serif" font-size="14.00" fill="#000000">CartTotalsComponent</text>
</g>
<!-- CartTotalsModule -->
<g id="node2" class="node">
<title>CartTotalsModule</title>
<polygon fill="#8dd3c7" stroke="#000000" points="396.1457,-187 393.1457,-191 372.1457,-191 369.1457,-187 277.8543,-187 277.8543,-151 396.1457,-151 396.1457,-187"/>
<text text-anchor="middle" x="337" y="-164.8" font-family="Times,serif" font-size="14.00" fill="#000000">CartTotalsModule</text>
</g>
<!-- CartTotalsComponent&#45;&gt;CartTotalsModule -->
<g id="edge1" class="edge">
<title>CartTotalsComponent&#45;&gt;CartTotalsModule</title>
<path fill="none" stroke="#000000" d="M702,-122.2843C702,-143.3211 702,-175 702,-175 702,-175 406.4559,-175 406.4559,-175"/>
<polygon fill="#000000" stroke="#000000" points="406.4559,-171.5001 396.4559,-175 406.4559,-178.5001 406.4559,-171.5001"/>
</g>
<!-- CartTotalsComponent  -->
<g id="node8" class="node">
<title>CartTotalsComponent </title>
<polygon fill="#fb8072" stroke="#000000" points="408.9278,-252 265.0722,-252 265.0722,-216 408.9278,-216 408.9278,-252"/>
<text text-anchor="middle" x="337" y="-229.8" font-family="Times,serif" font-size="14.00" fill="#000000">CartTotalsComponent </text>
</g>
<!-- CartTotalsModule&#45;&gt;CartTotalsComponent  -->
<g id="edge7" class="edge">
<title>CartTotalsModule&#45;&gt;CartTotalsComponent </title>
<path fill="none" stroke="#000000" stroke-dasharray="5,2" d="M337,-187.1061C337,-187.1061 337,-205.991 337,-205.991"/>
<polygon fill="#000000" stroke="#000000" points="333.5001,-205.9909 337,-215.991 340.5001,-205.991 333.5001,-205.9909"/>
</g>
<!-- CartCouponModule -->
<g id="node3" class="node">
<title>CartCouponModule</title>
<polygon fill="#8dd3c7" stroke="#000000" points="607.9888,-122 604.9888,-126 583.9888,-126 580.9888,-122 480.0112,-122 480.0112,-86 607.9888,-86 607.9888,-122"/>
<text text-anchor="middle" x="544" y="-99.8" font-family="Times,serif" font-size="14.00" fill="#000000">CartCouponModule</text>
</g>
<!-- CartCouponModule&#45;&gt;CartTotalsModule -->
<g id="edge2" class="edge">
<title>CartCouponModule&#45;&gt;CartTotalsModule</title>
<path fill="none" stroke="#000000" d="M544,-122.0225C544,-139.3734 544,-163 544,-163 544,-163 406.3179,-163 406.3179,-163"/>
<polygon fill="#000000" stroke="#000000" points="406.3179,-159.5001 396.3179,-163 406.3179,-166.5001 406.3179,-159.5001"/>
</g>
<!-- CartSharedModule -->
<g id="node4" class="node">
<title>CartSharedModule</title>
<polygon fill="#8dd3c7" stroke="#000000" points="462.0255,-122 459.0255,-126 438.0255,-126 435.0255,-122 339.9745,-122 339.9745,-86 462.0255,-86 462.0255,-122"/>
<text text-anchor="middle" x="401" y="-99.8" font-family="Times,serif" font-size="14.00" fill="#000000">CartSharedModule</text>
</g>
<!-- CartSharedModule&#45;&gt;CartTotalsModule -->
<g id="edge3" class="edge">
<title>CartSharedModule&#45;&gt;CartTotalsModule</title>
<path fill="none" stroke="#000000" d="M368.0302,-122.1061C368.0302,-122.1061 368.0302,-140.991 368.0302,-140.991"/>
<polygon fill="#000000" stroke="#000000" points="364.5302,-140.9909 368.0302,-150.991 371.5302,-140.991 364.5302,-140.9909"/>
</g>
<!-- ConfigModule -->
<g id="node5" class="node">
<title>ConfigModule</title>
<polygon fill="#8dd3c7" stroke="#000000" points="322.4386,-122 319.4386,-126 298.4386,-126 295.4386,-122 223.5614,-122 223.5614,-86 322.4386,-86 322.4386,-122"/>
<text text-anchor="middle" x="273" y="-99.8" font-family="Times,serif" font-size="14.00" fill="#000000">ConfigModule</text>
</g>
<!-- ConfigModule&#45;&gt;CartTotalsModule -->
<g id="edge4" class="edge">
<title>ConfigModule&#45;&gt;CartTotalsModule</title>
<path fill="none" stroke="#000000" d="M299.9481,-122.1061C299.9481,-122.1061 299.9481,-140.991 299.9481,-140.991"/>
<polygon fill="#000000" stroke="#000000" points="296.4482,-140.9909 299.9481,-150.991 303.4482,-140.991 296.4482,-140.9909"/>
</g>
<!-- I18nModule -->
<g id="node6" class="node">
<title>I18nModule</title>
<polygon fill="#8dd3c7" stroke="#000000" points="205.7107,-122 202.7107,-126 181.7107,-126 178.7107,-122 120.2893,-122 120.2893,-86 205.7107,-86 205.7107,-122"/>
<text text-anchor="middle" x="163" y="-99.8" font-family="Times,serif" font-size="14.00" fill="#000000">I18nModule</text>
</g>
<!-- I18nModule&#45;&gt;CartTotalsModule -->
<g id="edge5" class="edge">
<title>I18nModule&#45;&gt;CartTotalsModule</title>
<path fill="none" stroke="#000000" d="M163,-122.0225C163,-139.3734 163,-163 163,-163 163,-163 267.6057,-163 267.6057,-163"/>
<polygon fill="#000000" stroke="#000000" points="267.6058,-166.5001 277.6057,-163 267.6057,-159.5001 267.6058,-166.5001"/>
</g>
<!-- UrlModule -->
<g id="node7" class="node">
<title>UrlModule</title>
<polygon fill="#8dd3c7" stroke="#000000" points="102.2079,-122 99.2079,-126 78.2079,-126 75.2079,-122 23.7921,-122 23.7921,-86 102.2079,-86 102.2079,-122"/>
<text text-anchor="middle" x="63" y="-99.8" font-family="Times,serif" font-size="14.00" fill="#000000">UrlModule</text>
</g>
<!-- UrlModule&#45;&gt;CartTotalsModule -->
<g id="edge6" class="edge">
<title>UrlModule&#45;&gt;CartTotalsModule</title>
<path fill="none" stroke="#000000" d="M63,-122.2843C63,-143.3211 63,-175 63,-175 63,-175 267.5461,-175 267.5461,-175"/>
<polygon fill="#000000" stroke="#000000" points="267.5461,-178.5001 277.5461,-175 267.546,-171.5001 267.5461,-178.5001"/>
</g>
</g>
</svg>
