<?xml version="1.0" encoding="UTF-8" standalone="no"?>
<!DOCTYPE svg PUBLIC "-//W3C//DTD SVG 1.1//EN"
 "http://www.w3.org/Graphics/SVG/1.1/DTD/svg11.dtd">
<!-- Generated by graphviz version 2.47.3 (20210619.1520)
 -->
<!-- Title: dependencies Pages: 1 -->
<svg width="331pt" height="247pt"
 viewBox="0.00 0.00 331.00 246.80" xmlns="http://www.w3.org/2000/svg" xmlns:xlink="http://www.w3.org/1999/xlink">
<g id="graph0" class="graph" transform="scale(1 1) rotate(0) translate(4 242.8)">
<title>dependencies</title>
<polygon fill="white" stroke="transparent" points="-4,4 -4,-242.8 327,-242.8 327,4 -4,4"/>
<text text-anchor="middle" x="161.5" y="-8.2" font-family="sans-serif" font-size="14.00">dependencies</text>
<g id="clust1" class="cluster">
<title>cluster_SplitViewModule</title>
<polygon fill="none" stroke="black" stroke-dasharray="1,5" points="8,-32.8 8,-230.8 315,-230.8 315,-32.8 8,-32.8"/>
</g>
<g id="clust2" class="cluster">
<title>cluster_SplitViewModule_declarations</title>
<polygon fill="none" stroke="black" points="20,-40.8 20,-92.8 304,-92.8 304,-40.8 20,-40.8"/>
</g>
<g id="clust6" class="cluster">
<title>cluster_SplitViewModule_exports</title>
<polygon fill="none" stroke="black" points="16,-170.8 16,-222.8 307,-222.8 307,-170.8 16,-170.8"/>
</g>
<!-- SplitViewComponent -->
<g id="node1" class="node">
<title>SplitViewComponent</title>
<polygon fill="#ffffb3" stroke="black" points="296.11,-84.8 157.89,-84.8 157.89,-48.8 296.11,-48.8 296.11,-84.8"/>
<text text-anchor="middle" x="227" y="-62.6" font-family="Times,serif" font-size="14.00">SplitViewComponent</text>
</g>
<!-- SplitViewModule -->
<g id="node3" class="node">
<title>SplitViewModule</title>
<polygon fill="#8dd3c7" stroke="black" points="143.32,-149.8 140.32,-153.8 119.32,-153.8 116.32,-149.8 26.68,-149.8 26.68,-113.8 143.32,-113.8 143.32,-149.8"/>
<text text-anchor="middle" x="85" y="-127.6" font-family="Times,serif" font-size="14.00">SplitViewModule</text>
</g>
<!-- SplitViewComponent&#45;&gt;SplitViewModule -->
<g id="edge1" class="edge">
<title>SplitViewComponent&#45;&gt;SplitViewModule</title>
<path fill="none" stroke="black" d="M250.02,-84.82C250.02,-102.17 250.02,-125.8 250.02,-125.8 250.02,-125.8 153.18,-125.8 153.18,-125.8"/>
<polygon fill="black" stroke="black" points="153.18,-122.3 143.18,-125.8 153.18,-129.3 153.18,-122.3"/>
</g>
<!-- ViewComponent -->
<g id="node2" class="node">
<title>ViewComponent</title>
<polygon fill="#ffffb3" stroke="black" points="139.65,-84.8 28.35,-84.8 28.35,-48.8 139.65,-48.8 139.65,-84.8"/>
<text text-anchor="middle" x="84" y="-62.6" font-family="Times,serif" font-size="14.00">ViewComponent</text>
</g>
<!-- ViewComponent&#45;&gt;SplitViewModule -->
<g id="edge2" class="edge">
<title>ViewComponent&#45;&gt;SplitViewModule</title>
<path fill="none" stroke="black" d="M84,-84.91C84,-84.91 84,-103.79 84,-103.79"/>
<polygon fill="black" stroke="black" points="80.5,-103.79 84,-113.79 87.5,-103.79 80.5,-103.79"/>
</g>
<!-- SplitViewComponent  -->
<g id="node4" class="node">
<title>SplitViewComponent </title>
<polygon fill="#fb8072" stroke="black" points="298.61,-214.8 157.39,-214.8 157.39,-178.8 298.61,-178.8 298.61,-214.8"/>
<text text-anchor="middle" x="228" y="-192.6" font-family="Times,serif" font-size="14.00">SplitViewComponent </text>
</g>
<!-- SplitViewModule&#45;&gt;SplitViewComponent  -->
<g id="edge3" class="edge">
<title>SplitViewModule&#45;&gt;SplitViewComponent </title>
<path fill="none" stroke="black" stroke-dasharray="5,2" d="M143.45,-137.8C173.54,-137.8 203.98,-137.8 203.98,-137.8 203.98,-137.8 203.98,-168.78 203.98,-168.78"/>
<polygon fill="black" stroke="black" points="200.48,-168.78 203.98,-178.78 207.48,-168.78 200.48,-168.78"/>
</g>
<!-- ViewComponent  -->
<g id="node5" class="node">
<title>ViewComponent </title>
<polygon fill="#fb8072" stroke="black" points="139.65,-214.8 24.35,-214.8 24.35,-178.8 139.65,-178.8 139.65,-214.8"/>
<text text-anchor="middle" x="82" y="-192.6" font-family="Times,serif" font-size="14.00">ViewComponent </text>
</g>
<!-- SplitViewModule&#45;&gt;ViewComponent  -->
<g id="edge4" class="edge">
<title>SplitViewModule&#45;&gt;ViewComponent </title>
<path fill="none" stroke="black" stroke-dasharray="5,2" d="M83.21,-149.91C83.21,-149.91 83.21,-168.79 83.21,-168.79"/>
<polygon fill="black" stroke="black" points="79.71,-168.79 83.21,-178.79 86.71,-168.79 79.71,-168.79"/>
</g>
</g>
</svg>
