<?xml version="1.0" encoding="UTF-8" standalone="no"?>
<!DOCTYPE svg PUBLIC "-//W3C//DTD SVG 1.1//EN"
 "http://www.w3.org/Graphics/SVG/1.1/DTD/svg11.dtd">
<!-- Generated by graphviz version 2.47.0 (20210316.0004)
 -->
<!-- Title: dependencies Pages: 1 -->
<svg width="504pt" height="211pt"
 viewBox="0.00 0.00 504.00 211.00" xmlns="http://www.w3.org/2000/svg" xmlns:xlink="http://www.w3.org/1999/xlink">
<g id="graph0" class="graph" transform="scale(1 1) rotate(0) translate(4 207)">
<title>dependencies</title>
<polygon fill="white" stroke="transparent" points="-4,4 -4,-207 500,-207 500,4 -4,4"/>
<text text-anchor="start" x="227.01" y="-42.4" font-family="sans-serif" font-weight="bold" font-size="14.00">Legend</text>
<polygon fill="#ffffb3" stroke="transparent" points="14,-10 14,-30 34,-30 34,-10 14,-10"/>
<text text-anchor="start" x="37.63" y="-15.4" font-family="sans-serif" font-size="14.00"> &#160;Declarations</text>
<polygon fill="#8dd3c7" stroke="transparent" points="127,-10 127,-30 147,-30 147,-10 127,-10"/>
<text text-anchor="start" x="150.73" y="-15.4" font-family="sans-serif" font-size="14.00"> &#160;Module</text>
<polygon fill="#80b1d3" stroke="transparent" points="213,-10 213,-30 233,-30 233,-10 213,-10"/>
<text text-anchor="start" x="236.78" y="-15.4" font-family="sans-serif" font-size="14.00"> &#160;Bootstrap</text>
<polygon fill="#fdb462" stroke="transparent" points="310,-10 310,-30 330,-30 330,-10 310,-10"/>
<text text-anchor="start" x="333.67" y="-15.4" font-family="sans-serif" font-size="14.00"> &#160;Providers</text>
<polygon fill="#fb8072" stroke="transparent" points="406,-10 406,-30 426,-30 426,-10 406,-10"/>
<text text-anchor="start" x="429.73" y="-15.4" font-family="sans-serif" font-size="14.00"> &#160;Exports</text>
<g id="clust1" class="cluster">
<title>cluster_SavedCartModule</title>
<polygon fill="none" stroke="black" stroke-dasharray="1,5" points="80,-70 80,-195 416,-195 416,-70 80,-70"/>
</g>
<g id="clust3" class="cluster">
<title>cluster_SavedCartModule_imports</title>
<polygon fill="none" stroke="black" points="88,-78 88,-130 408,-130 408,-78 88,-78"/>
</g>
<!-- SavedCartCoreModule -->
<g id="node1" class="node">
<title>SavedCartCoreModule</title>
<polygon fill="#8dd3c7" stroke="black" points="399.58,-122 396.58,-126 375.58,-126 372.58,-122 254.42,-122 254.42,-86 399.58,-86 399.58,-122"/>
<text text-anchor="middle" x="327" y="-99.8" font-family="Times,serif" font-size="14.00">SavedCartCoreModule</text>
</g>
<!-- SavedCartModule -->
<g id="node3" class="node">
<title>SavedCartModule</title>
<polygon fill="#8dd3c7" stroke="black" points="304.86,-187 301.86,-191 280.86,-191 277.86,-187 187.14,-187 187.14,-151 304.86,-151 304.86,-187"/>
<text text-anchor="middle" x="246" y="-164.8" font-family="Times,serif" font-size="14.00">SavedCartModule</text>
</g>
<!-- SavedCartCoreModule&#45;&gt;SavedCartModule -->
<g id="edge1" class="edge">
<title>SavedCartCoreModule&#45;&gt;SavedCartModule</title>
<path fill="none" stroke="black" d="M279.7,-122.11C279.7,-122.11 279.7,-140.99 279.7,-140.99"/>
<polygon fill="black" stroke="black" points="276.2,-140.99 279.7,-150.99 283.2,-140.99 276.2,-140.99"/>
</g>
<!-- SavedCartOccModule -->
<g id="node2" class="node">
<title>SavedCartOccModule</title>
<polygon fill="#8dd3c7" stroke="black" points="236.4,-122 233.4,-126 212.4,-126 209.4,-122 95.6,-122 95.6,-86 236.4,-86 236.4,-122"/>
<text text-anchor="middle" x="166" y="-99.8" font-family="Times,serif" font-size="14.00">SavedCartOccModule</text>
</g>
<!-- SavedCartOccModule&#45;&gt;SavedCartModule -->
<g id="edge2" class="edge">
<title>SavedCartOccModule&#45;&gt;SavedCartModule</title>
<path fill="none" stroke="black" d="M211.63,-122.11C211.63,-122.11 211.63,-140.99 211.63,-140.99"/>
<polygon fill="black" stroke="black" points="208.13,-140.99 211.63,-150.99 215.13,-140.99 208.13,-140.99"/>
</g>
</g>
</svg>
