<?xml version="1.0" encoding="UTF-8" standalone="no"?>
<!DOCTYPE svg PUBLIC "-//W3C//DTD SVG 1.1//EN"
 "http://www.w3.org/Graphics/SVG/1.1/DTD/svg11.dtd">
<!-- Generated by graphviz version 2.47.3 (20210619.1520)
 -->
<!-- Title: dependencies Pages: 1 -->
<svg width="360pt" height="174pt"
 viewBox="0.00 0.00 360.00 173.80" xmlns="http://www.w3.org/2000/svg" xmlns:xlink="http://www.w3.org/1999/xlink">
<g id="graph0" class="graph" transform="scale(1 1) rotate(0) translate(4 169.8)">
<title>dependencies</title>
<polygon fill="white" stroke="transparent" points="-4,4 -4,-169.8 356,-169.8 356,4 -4,4"/>
<text text-anchor="middle" x="176" y="-8.2" font-family="sans-serif" font-size="14.00">dependencies</text>
<g id="clust1" class="cluster">
<title>cluster_SavedCartModule</title>
<polygon fill="none" stroke="black" stroke-dasharray="1,5" points="8,-32.8 8,-157.8 344,-157.8 344,-32.8 8,-32.8"/>
</g>
<g id="clust3" class="cluster">
<title>cluster_SavedCartModule_imports</title>
<polygon fill="none" stroke="black" points="16,-40.8 16,-92.8 336,-92.8 336,-40.8 16,-40.8"/>
</g>
<!-- SavedCartCoreModule -->
<g id="node1" class="node">
<title>SavedCartCoreModule</title>
<polygon fill="#8dd3c7" stroke="black" points="327.58,-84.8 324.58,-88.8 303.58,-88.8 300.58,-84.8 182.42,-84.8 182.42,-48.8 327.58,-48.8 327.58,-84.8"/>
<text text-anchor="middle" x="255" y="-62.6" font-family="Times,serif" font-size="14.00">SavedCartCoreModule</text>
</g>
<!-- SavedCartModule -->
<g id="node3" class="node">
<title>SavedCartModule</title>
<polygon fill="#8dd3c7" stroke="black" points="232.86,-149.8 229.86,-153.8 208.86,-153.8 205.86,-149.8 115.14,-149.8 115.14,-113.8 232.86,-113.8 232.86,-149.8"/>
<text text-anchor="middle" x="174" y="-127.6" font-family="Times,serif" font-size="14.00">SavedCartModule</text>
</g>
<!-- SavedCartCoreModule&#45;&gt;SavedCartModule -->
<g id="edge1" class="edge">
<title>SavedCartCoreModule&#45;&gt;SavedCartModule</title>
<path fill="none" stroke="black" d="M207.7,-84.91C207.7,-84.91 207.7,-103.79 207.7,-103.79"/>
<polygon fill="black" stroke="black" points="204.2,-103.79 207.7,-113.79 211.2,-103.79 204.2,-103.79"/>
</g>
<!-- SavedCartOccModule -->
<g id="node2" class="node">
<title>SavedCartOccModule</title>
<polygon fill="#8dd3c7" stroke="black" points="164.4,-84.8 161.4,-88.8 140.4,-88.8 137.4,-84.8 23.6,-84.8 23.6,-48.8 164.4,-48.8 164.4,-84.8"/>
<text text-anchor="middle" x="94" y="-62.6" font-family="Times,serif" font-size="14.00">SavedCartOccModule</text>
</g>
<!-- SavedCartOccModule&#45;&gt;SavedCartModule -->
<g id="edge2" class="edge">
<title>SavedCartOccModule&#45;&gt;SavedCartModule</title>
<path fill="none" stroke="black" d="M139.63,-84.91C139.63,-84.91 139.63,-103.79 139.63,-103.79"/>
<polygon fill="black" stroke="black" points="136.13,-103.79 139.63,-113.79 143.13,-103.79 136.13,-103.79"/>
</g>
</g>
</svg>
