<?xml version="1.0" encoding="UTF-8" standalone="no"?>
<!DOCTYPE svg PUBLIC "-//W3C//DTD SVG 1.1//EN"
 "http://www.w3.org/Graphics/SVG/1.1/DTD/svg11.dtd">
<!-- Generated by graphviz version 2.40.1 (20161225.0304)
 -->
<!-- Title: dependencies Pages: 1 -->
<svg width="504pt" height="211pt"
 viewBox="0.00 0.00 504.00 211.00" xmlns="http://www.w3.org/2000/svg" xmlns:xlink="http://www.w3.org/1999/xlink">
<g id="graph0" class="graph" transform="scale(1 1) rotate(0) translate(4 207)">
<title>dependencies</title>
<polygon fill="#ffffff" stroke="transparent" points="-4,4 -4,-207 500,-207 500,4 -4,4"/>
<text text-anchor="start" x="227.0091" y="-42.4" font-family="sans-serif" font-weight="bold" font-size="14.00" fill="#000000">Legend</text>
<polygon fill="#ffffb3" stroke="transparent" points="14,-10 14,-30 34,-30 34,-10 14,-10"/>
<text text-anchor="start" x="37.629" y="-15.4" font-family="sans-serif" font-size="14.00" fill="#000000"> &#160;Declarations</text>
<polygon fill="#8dd3c7" stroke="transparent" points="127,-10 127,-30 147,-30 147,-10 127,-10"/>
<text text-anchor="start" x="150.7251" y="-15.4" font-family="sans-serif" font-size="14.00" fill="#000000"> &#160;Module</text>
<polygon fill="#80b1d3" stroke="transparent" points="213,-10 213,-30 233,-30 233,-10 213,-10"/>
<text text-anchor="start" x="236.7812" y="-15.4" font-family="sans-serif" font-size="14.00" fill="#000000"> &#160;Bootstrap</text>
<polygon fill="#fdb462" stroke="transparent" points="310,-10 310,-30 330,-30 330,-10 310,-10"/>
<text text-anchor="start" x="333.6732" y="-15.4" font-family="sans-serif" font-size="14.00" fill="#000000"> &#160;Providers</text>
<polygon fill="#fb8072" stroke="transparent" points="406,-10 406,-30 426,-30 426,-10 406,-10"/>
<text text-anchor="start" x="429.7258" y="-15.4" font-family="sans-serif" font-size="14.00" fill="#000000"> &#160;Exports</text>
<g id="clust1" class="cluster">
<title>cluster_SavedCartModule</title>
<polygon fill="none" stroke="#000000" stroke-dasharray="1,5" points="80,-70 80,-195 416,-195 416,-70 80,-70"/>
</g>
<g id="clust3" class="cluster">
<title>cluster_SavedCartModule_imports</title>
<polygon fill="none" stroke="#000000" points="88,-78 88,-130 408,-130 408,-78 88,-78"/>
</g>
<!-- SavedCartCoreModule -->
<g id="node1" class="node">
<title>SavedCartCoreModule</title>
<polygon fill="#8dd3c7" stroke="#000000" points="399.5758,-122 396.5758,-126 375.5758,-126 372.5758,-122 254.4242,-122 254.4242,-86 399.5758,-86 399.5758,-122"/>
<text text-anchor="middle" x="327" y="-99.8" font-family="Times,serif" font-size="14.00" fill="#000000">SavedCartCoreModule</text>
</g>
<!-- SavedCartModule -->
<g id="node3" class="node">
<title>SavedCartModule</title>
<polygon fill="#8dd3c7" stroke="#000000" points="304.8641,-187 301.8641,-191 280.8641,-191 277.8641,-187 187.1359,-187 187.1359,-151 304.8641,-151 304.8641,-187"/>
<text text-anchor="middle" x="246" y="-164.8" font-family="Times,serif" font-size="14.00" fill="#000000">SavedCartModule</text>
</g>
<!-- SavedCartCoreModule&#45;&gt;SavedCartModule -->
<g id="edge1" class="edge">
<title>SavedCartCoreModule&#45;&gt;SavedCartModule</title>
<path fill="none" stroke="#000000" d="M279.6971,-122.1061C279.6971,-122.1061 279.6971,-140.991 279.6971,-140.991"/>
<polygon fill="#000000" stroke="#000000" points="276.1971,-140.9909 279.6971,-150.991 283.1971,-140.991 276.1971,-140.9909"/>
</g>
<!-- SavedCartOccModule -->
<g id="node2" class="node">
<title>SavedCartOccModule</title>
<polygon fill="#8dd3c7" stroke="#000000" points="236.4004,-122 233.4004,-126 212.4004,-126 209.4004,-122 95.5996,-122 95.5996,-86 236.4004,-86 236.4004,-122"/>
<text text-anchor="middle" x="166" y="-99.8" font-family="Times,serif" font-size="14.00" fill="#000000">SavedCartOccModule</text>
</g>
<!-- SavedCartOccModule&#45;&gt;SavedCartModule -->
<g id="edge2" class="edge">
<title>SavedCartOccModule&#45;&gt;SavedCartModule</title>
<path fill="none" stroke="#000000" d="M211.634,-122.1061C211.634,-122.1061 211.634,-140.991 211.634,-140.991"/>
<polygon fill="#000000" stroke="#000000" points="208.134,-140.9909 211.634,-150.991 215.134,-140.991 208.134,-140.9909"/>
</g>
</g>
</svg>
