<?xml version="1.0" encoding="UTF-8" standalone="no"?>
<!DOCTYPE svg PUBLIC "-//W3C//DTD SVG 1.1//EN"
 "http://www.w3.org/Graphics/SVG/1.1/DTD/svg11.dtd">
<!-- Generated by graphviz version 2.47.0 (20210316.0004)
 -->
<!-- Title: dependencies Pages: 1 -->
<svg width="580pt" height="211pt"
 viewBox="0.00 0.00 580.00 211.00" xmlns="http://www.w3.org/2000/svg" xmlns:xlink="http://www.w3.org/1999/xlink">
<g id="graph0" class="graph" transform="scale(1 1) rotate(0) translate(4 207)">
<title>dependencies</title>
<polygon fill="white" stroke="transparent" points="-4,4 -4,-207 576,-207 576,4 -4,4"/>
<text text-anchor="start" x="265.01" y="-42.4" font-family="sans-serif" font-weight="bold" font-size="14.00">Legend</text>
<polygon fill="#ffffb3" stroke="transparent" points="52,-10 52,-30 72,-30 72,-10 52,-10"/>
<text text-anchor="start" x="75.63" y="-15.4" font-family="sans-serif" font-size="14.00"> &#160;Declarations</text>
<polygon fill="#8dd3c7" stroke="transparent" points="165,-10 165,-30 185,-30 185,-10 165,-10"/>
<text text-anchor="start" x="188.73" y="-15.4" font-family="sans-serif" font-size="14.00"> &#160;Module</text>
<polygon fill="#80b1d3" stroke="transparent" points="251,-10 251,-30 271,-30 271,-10 251,-10"/>
<text text-anchor="start" x="274.78" y="-15.4" font-family="sans-serif" font-size="14.00"> &#160;Bootstrap</text>
<polygon fill="#fdb462" stroke="transparent" points="348,-10 348,-30 368,-30 368,-10 348,-10"/>
<text text-anchor="start" x="371.67" y="-15.4" font-family="sans-serif" font-size="14.00"> &#160;Providers</text>
<polygon fill="#fb8072" stroke="transparent" points="444,-10 444,-30 464,-30 464,-10 444,-10"/>
<text text-anchor="start" x="467.73" y="-15.4" font-family="sans-serif" font-size="14.00"> &#160;Exports</text>
<g id="clust1" class="cluster">
<title>cluster_RulebasedConfiguratorCoreModule</title>
<polygon fill="none" stroke="black" stroke-dasharray="1,5" points="8,-70 8,-195 564,-195 564,-70 8,-70"/>
</g>
<g id="clust6" class="cluster">
<title>cluster_RulebasedConfiguratorCoreModule_providers</title>
<polygon fill="none" stroke="black" points="258,-78 258,-130 556,-130 556,-78 258,-78"/>
</g>
<g id="clust3" class="cluster">
<title>cluster_RulebasedConfiguratorCoreModule_imports</title>
<polygon fill="none" stroke="black" points="16,-78 16,-130 250,-130 250,-78 16,-78"/>
</g>
<!-- RulebasedConfiguratorStateModule -->
<g id="node1" class="node">
<title>RulebasedConfiguratorStateModule</title>
<polygon fill="#8dd3c7" stroke="black" points="242.17,-122 239.17,-126 218.17,-126 215.17,-122 23.83,-122 23.83,-86 242.17,-86 242.17,-122"/>
<text text-anchor="middle" x="133" y="-99.8" font-family="Times,serif" font-size="14.00">RulebasedConfiguratorStateModule</text>
</g>
<!-- RulebasedConfiguratorCoreModule -->
<g id="node2" class="node">
<title>RulebasedConfiguratorCoreModule</title>
<polygon fill="#8dd3c7" stroke="black" points="378.89,-187 375.89,-191 354.89,-191 351.89,-187 161.11,-187 161.11,-151 378.89,-151 378.89,-187"/>
<text text-anchor="middle" x="270" y="-164.8" font-family="Times,serif" font-size="14.00">RulebasedConfiguratorCoreModule</text>
</g>
<!-- RulebasedConfiguratorStateModule&#45;&gt;RulebasedConfiguratorCoreModule -->
<g id="edge1" class="edge">
<title>RulebasedConfiguratorStateModule&#45;&gt;RulebasedConfiguratorCoreModule</title>
<path fill="none" stroke="black" d="M201.7,-122.11C201.7,-122.11 201.7,-140.99 201.7,-140.99"/>
<polygon fill="black" stroke="black" points="198.2,-140.99 201.7,-150.99 205.2,-140.99 198.2,-140.99"/>
</g>
<!-- RulebasedConfiguratorConnector -->
<g id="node3" class="node">
<title>RulebasedConfiguratorConnector</title>
<ellipse fill="#fdb462" stroke="black" cx="407" cy="-104" rx="141.24" ry="18"/>
<text text-anchor="middle" x="407" y="-99.8" font-family="Times,serif" font-size="14.00">RulebasedConfiguratorConnector</text>
</g>
<!-- RulebasedConfiguratorConnector&#45;&gt;RulebasedConfiguratorCoreModule -->
<g id="edge2" class="edge">
<title>RulebasedConfiguratorConnector&#45;&gt;RulebasedConfiguratorCoreModule</title>
<path fill="none" stroke="black" d="M322.16,-118.43C322.16,-118.43 322.16,-140.89 322.16,-140.89"/>
<polygon fill="black" stroke="black" points="318.66,-140.89 322.16,-150.89 325.66,-140.89 318.66,-140.89"/>
</g>
</g>
</svg>
