<?xml version="1.0" encoding="UTF-8" standalone="no"?>
<!DOCTYPE svg PUBLIC "-//W3C//DTD SVG 1.1//EN"
 "http://www.w3.org/Graphics/SVG/1.1/DTD/svg11.dtd">
<!-- Generated by graphviz version 2.47.3 (20210619.1520)
 -->
<!-- Title: dependencies Pages: 1 -->
<svg width="580pt" height="174pt"
 viewBox="0.00 0.00 580.00 173.80" xmlns="http://www.w3.org/2000/svg" xmlns:xlink="http://www.w3.org/1999/xlink">
<g id="graph0" class="graph" transform="scale(1 1) rotate(0) translate(4 169.8)">
<title>dependencies</title>
<polygon fill="white" stroke="transparent" points="-4,4 -4,-169.8 576,-169.8 576,4 -4,4"/>
<text text-anchor="middle" x="286" y="-8.2" font-family="sans-serif" font-size="14.00">dependencies</text>
<g id="clust1" class="cluster">
<title>cluster_RulebasedConfiguratorCoreModule</title>
<polygon fill="none" stroke="black" stroke-dasharray="1,5" points="8,-32.8 8,-157.8 564,-157.8 564,-32.8 8,-32.8"/>
</g>
<g id="clust3" class="cluster">
<title>cluster_RulebasedConfiguratorCoreModule_imports</title>
<polygon fill="none" stroke="black" points="322,-40.8 322,-92.8 556,-92.8 556,-40.8 322,-40.8"/>
</g>
<g id="clust6" class="cluster">
<title>cluster_RulebasedConfiguratorCoreModule_providers</title>
<polygon fill="none" stroke="black" points="16,-40.8 16,-92.8 314,-92.8 314,-40.8 16,-40.8"/>
</g>
<!-- RulebasedConfiguratorStateModule -->
<g id="node1" class="node">
<title>RulebasedConfiguratorStateModule</title>
<polygon fill="#8dd3c7" stroke="black" points="548.17,-84.8 545.17,-88.8 524.17,-88.8 521.17,-84.8 329.83,-84.8 329.83,-48.8 548.17,-48.8 548.17,-84.8"/>
<text text-anchor="middle" x="439" y="-62.6" font-family="Times,serif" font-size="14.00">RulebasedConfiguratorStateModule</text>
</g>
<!-- RulebasedConfiguratorCoreModule -->
<g id="node2" class="node">
<title>RulebasedConfiguratorCoreModule</title>
<polygon fill="#8dd3c7" stroke="black" points="410.89,-149.8 407.89,-153.8 386.89,-153.8 383.89,-149.8 193.11,-149.8 193.11,-113.8 410.89,-113.8 410.89,-149.8"/>
<text text-anchor="middle" x="302" y="-127.6" font-family="Times,serif" font-size="14.00">RulebasedConfiguratorCoreModule</text>
</g>
<!-- RulebasedConfiguratorStateModule&#45;&gt;RulebasedConfiguratorCoreModule -->
<g id="edge1" class="edge">
<title>RulebasedConfiguratorStateModule&#45;&gt;RulebasedConfiguratorCoreModule</title>
<path fill="none" stroke="black" d="M370.3,-84.91C370.3,-84.91 370.3,-103.79 370.3,-103.79"/>
<polygon fill="black" stroke="black" points="366.8,-103.79 370.3,-113.79 373.8,-103.79 366.8,-103.79"/>
</g>
<!-- RulebasedConfiguratorConnector -->
<g id="node3" class="node">
<title>RulebasedConfiguratorConnector</title>
<ellipse fill="#fdb462" stroke="black" cx="165" cy="-66.8" rx="141.24" ry="18"/>
<text text-anchor="middle" x="165" y="-62.6" font-family="Times,serif" font-size="14.00">RulebasedConfiguratorConnector</text>
</g>
<!-- RulebasedConfiguratorConnector&#45;&gt;RulebasedConfiguratorCoreModule -->
<g id="edge2" class="edge">
<title>RulebasedConfiguratorConnector&#45;&gt;RulebasedConfiguratorCoreModule</title>
<path fill="none" stroke="black" d="M249.84,-81.23C249.84,-81.23 249.84,-103.69 249.84,-103.69"/>
<polygon fill="black" stroke="black" points="246.34,-103.69 249.84,-113.69 253.34,-103.69 246.34,-103.69"/>
</g>
</g>
</svg>
