<?xml version="1.0" encoding="UTF-8" standalone="no"?>
<!DOCTYPE svg PUBLIC "-//W3C//DTD SVG 1.1//EN"
 "http://www.w3.org/Graphics/SVG/1.1/DTD/svg11.dtd">
<!-- Generated by graphviz version 2.47.3 (20210619.1520)
 -->
<!-- Title: dependencies Pages: 1 -->
<svg width="656pt" height="247pt"
 viewBox="0.00 0.00 656.00 246.80" xmlns="http://www.w3.org/2000/svg" xmlns:xlink="http://www.w3.org/1999/xlink">
<g id="graph0" class="graph" transform="scale(1 1) rotate(0) translate(4 242.8)">
<title>dependencies</title>
<polygon fill="white" stroke="transparent" points="-4,4 -4,-242.8 652,-242.8 652,4 -4,4"/>
<text text-anchor="middle" x="324" y="-8.2" font-family="sans-serif" font-size="14.00">dependencies</text>
<g id="clust1" class="cluster">
<title>cluster_ConfiguratorGroupMenuModule</title>
<polygon fill="none" stroke="black" stroke-dasharray="1,5" points="8,-32.8 8,-230.8 640,-230.8 640,-32.8 8,-32.8"/>
</g>
<g id="clust5" class="cluster">
<title>cluster_ConfiguratorGroupMenuModule_exports</title>
<polygon fill="none" stroke="black" points="162,-170.8 162,-222.8 404,-222.8 404,-170.8 162,-170.8"/>
</g>
<g id="clust2" class="cluster">
<title>cluster_ConfiguratorGroupMenuModule_declarations</title>
<polygon fill="none" stroke="black" points="394,-40.8 394,-92.8 632,-92.8 632,-40.8 394,-40.8"/>
</g>
<g id="clust4" class="cluster">
<title>cluster_ConfiguratorGroupMenuModule_imports</title>
<polygon fill="none" stroke="black" points="16,-40.8 16,-92.8 386,-92.8 386,-40.8 16,-40.8"/>
</g>
<!-- ConfiguratorGroupMenuComponent -->
<g id="node1" class="node">
<title>ConfiguratorGroupMenuComponent</title>
<polygon fill="#ffffb3" stroke="black" points="624.07,-84.8 401.93,-84.8 401.93,-48.8 624.07,-48.8 624.07,-84.8"/>
<text text-anchor="middle" x="513" y="-62.6" font-family="Times,serif" font-size="14.00">ConfiguratorGroupMenuComponent</text>
</g>
<!-- ConfiguratorGroupMenuModule -->
<g id="node2" class="node">
<title>ConfiguratorGroupMenuModule</title>
<polygon fill="#8dd3c7" stroke="black" points="383.29,-149.8 380.29,-153.8 359.29,-153.8 356.29,-149.8 182.71,-149.8 182.71,-113.8 383.29,-113.8 383.29,-149.8"/>
<text text-anchor="middle" x="283" y="-127.6" font-family="Times,serif" font-size="14.00">ConfiguratorGroupMenuModule</text>
</g>
<!-- ConfiguratorGroupMenuComponent&#45;&gt;ConfiguratorGroupMenuModule -->
<g id="edge1" class="edge">
<title>ConfiguratorGroupMenuComponent&#45;&gt;ConfiguratorGroupMenuModule</title>
<path fill="none" stroke="black" d="M513,-84.91C513,-104.14 513,-131.8 513,-131.8 513,-131.8 393.21,-131.8 393.21,-131.8"/>
<polygon fill="black" stroke="black" points="393.21,-128.3 383.21,-131.8 393.21,-135.3 393.21,-128.3"/>
</g>
<!-- ConfiguratorGroupMenuComponent  -->
<g id="node6" class="node">
<title>ConfiguratorGroupMenuComponent </title>
<polygon fill="#fb8072" stroke="black" points="395.57,-214.8 170.43,-214.8 170.43,-178.8 395.57,-178.8 395.57,-214.8"/>
<text text-anchor="middle" x="283" y="-192.6" font-family="Times,serif" font-size="14.00">ConfiguratorGroupMenuComponent </text>
</g>
<!-- ConfiguratorGroupMenuModule&#45;&gt;ConfiguratorGroupMenuComponent  -->
<g id="edge5" class="edge">
<title>ConfiguratorGroupMenuModule&#45;&gt;ConfiguratorGroupMenuComponent </title>
<path fill="none" stroke="black" stroke-dasharray="5,2" d="M283,-149.91C283,-149.91 283,-168.79 283,-168.79"/>
<polygon fill="black" stroke="black" points="279.5,-168.79 283,-178.79 286.5,-168.79 279.5,-168.79"/>
</g>
<!-- I18nModule -->
<g id="node3" class="node">
<title>I18nModule</title>
<polygon fill="#8dd3c7" stroke="black" points="377.71,-84.8 374.71,-88.8 353.71,-88.8 350.71,-84.8 292.29,-84.8 292.29,-48.8 377.71,-48.8 377.71,-84.8"/>
<text text-anchor="middle" x="335" y="-62.6" font-family="Times,serif" font-size="14.00">I18nModule</text>
</g>
<!-- I18nModule&#45;&gt;ConfiguratorGroupMenuModule -->
<g id="edge2" class="edge">
<title>I18nModule&#45;&gt;ConfiguratorGroupMenuModule</title>
<path fill="none" stroke="black" d="M335,-84.91C335,-84.91 335,-103.79 335,-103.79"/>
<polygon fill="black" stroke="black" points="331.5,-103.79 335,-113.79 338.5,-103.79 331.5,-103.79"/>
</g>
<!-- IconModule -->
<g id="node4" class="node">
<title>IconModule</title>
<polygon fill="#8dd3c7" stroke="black" points="274.43,-84.8 271.43,-88.8 250.43,-88.8 247.43,-84.8 189.57,-84.8 189.57,-48.8 274.43,-48.8 274.43,-84.8"/>
<text text-anchor="middle" x="232" y="-62.6" font-family="Times,serif" font-size="14.00">IconModule</text>
</g>
<!-- IconModule&#45;&gt;ConfiguratorGroupMenuModule -->
<g id="edge3" class="edge">
<title>IconModule&#45;&gt;ConfiguratorGroupMenuModule</title>
<path fill="none" stroke="black" d="M232,-84.91C232,-84.91 232,-103.79 232,-103.79"/>
<polygon fill="black" stroke="black" points="228.5,-103.79 232,-113.79 235.5,-103.79 228.5,-103.79"/>
</g>
<!-- KeyboardFocusModule -->
<g id="node5" class="node">
<title>KeyboardFocusModule</title>
<polygon fill="#8dd3c7" stroke="black" points="172.19,-84.8 169.19,-88.8 148.19,-88.8 145.19,-84.8 23.81,-84.8 23.81,-48.8 172.19,-48.8 172.19,-84.8"/>
<text text-anchor="middle" x="98" y="-62.6" font-family="Times,serif" font-size="14.00">KeyboardFocusModule</text>
</g>
<!-- KeyboardFocusModule&#45;&gt;ConfiguratorGroupMenuModule -->
<g id="edge4" class="edge">
<title>KeyboardFocusModule&#45;&gt;ConfiguratorGroupMenuModule</title>
<path fill="none" stroke="black" d="M97.06,-84.91C97.06,-104.14 97.06,-131.8 97.06,-131.8 97.06,-131.8 172.68,-131.8 172.68,-131.8"/>
<polygon fill="black" stroke="black" points="172.68,-135.3 182.68,-131.8 172.68,-128.3 172.68,-135.3"/>
</g>
</g>
</svg>
