<?xml version="1.0" encoding="UTF-8" standalone="no"?>
<!DOCTYPE svg PUBLIC "-//W3C//DTD SVG 1.1//EN"
 "http://www.w3.org/Graphics/SVG/1.1/DTD/svg11.dtd">
<!-- Generated by graphviz version 2.47.3 (20210619.1520)
 -->
<!-- Title: dependencies Pages: 1 -->
<svg width="182pt" height="174pt"
 viewBox="0.00 0.00 182.00 173.80" xmlns="http://www.w3.org/2000/svg" xmlns:xlink="http://www.w3.org/1999/xlink">
<g id="graph0" class="graph" transform="scale(1 1) rotate(0) translate(4 169.8)">
<title>dependencies</title>
<polygon fill="white" stroke="transparent" points="-4,4 -4,-169.8 178,-169.8 178,4 -4,4"/>
<text text-anchor="middle" x="87" y="-8.2" font-family="sans-serif" font-size="14.00">dependencies</text>
<g id="clust1" class="cluster">
<title>cluster_AsmRootModule</title>
<polygon fill="none" stroke="black" stroke-dasharray="1,5" points="8,-32.8 8,-157.8 166,-157.8 166,-32.8 8,-32.8"/>
</g>
<g id="clust3" class="cluster">
<title>cluster_AsmRootModule_imports</title>
<polygon fill="none" stroke="black" points="16,-40.8 16,-92.8 158,-92.8 158,-40.8 16,-40.8"/>
</g>
<!-- AsmLoaderModule -->
<g id="node1" class="node">
<title>AsmLoaderModule</title>
<polygon fill="#8dd3c7" stroke="black" points="149.63,-84.8 146.63,-88.8 125.63,-88.8 122.63,-84.8 24.37,-84.8 24.37,-48.8 149.63,-48.8 149.63,-84.8"/>
<text text-anchor="middle" x="87" y="-62.6" font-family="Times,serif" font-size="14.00">AsmLoaderModule</text>
</g>
<!-- AsmRootModule -->
<g id="node2" class="node">
<title>AsmRootModule</title>
<polygon fill="#8dd3c7" stroke="black" points="143.72,-149.8 140.72,-153.8 119.72,-153.8 116.72,-149.8 30.28,-149.8 30.28,-113.8 143.72,-113.8 143.72,-149.8"/>
<text text-anchor="middle" x="87" y="-127.6" font-family="Times,serif" font-size="14.00">AsmRootModule</text>
</g>
<!-- AsmLoaderModule&#45;&gt;AsmRootModule -->
<g id="edge1" class="edge">
<title>AsmLoaderModule&#45;&gt;AsmRootModule</title>
<path fill="none" stroke="black" d="M87,-84.91C87,-84.91 87,-103.79 87,-103.79"/>
<polygon fill="black" stroke="black" points="83.5,-103.79 87,-113.79 90.5,-103.79 83.5,-103.79"/>
</g>
</g>
</svg>
