<?xml version="1.0" encoding="UTF-8" standalone="no"?>
<!DOCTYPE svg PUBLIC "-//W3C//DTD SVG 1.1//EN"
 "http://www.w3.org/Graphics/SVG/1.1/DTD/svg11.dtd">
<!-- Generated by graphviz version 2.44.1 (20200629.0846)
 -->
<!-- Title: dependencies Pages: 1 -->
<svg width="504pt" height="284pt"
 viewBox="0.00 0.00 504.00 284.00" xmlns="http://www.w3.org/2000/svg" xmlns:xlink="http://www.w3.org/1999/xlink">
<g id="graph0" class="graph" transform="scale(1 1) rotate(0) translate(4 280)">
<title>dependencies</title>
<polygon fill="white" stroke="transparent" points="-4,4 -4,-280 500,-280 500,4 -4,4"/>
<text text-anchor="start" x="227.01" y="-42.4" font-family="sans-serif" font-weight="bold" font-size="14.00">Legend</text>
<polygon fill="#ffffb3" stroke="transparent" points="14,-10 14,-30 34,-30 34,-10 14,-10"/>
<text text-anchor="start" x="37.63" y="-15.4" font-family="sans-serif" font-size="14.00"> &#160;Declarations</text>
<polygon fill="#8dd3c7" stroke="transparent" points="127,-10 127,-30 147,-30 147,-10 127,-10"/>
<text text-anchor="start" x="150.73" y="-15.4" font-family="sans-serif" font-size="14.00"> &#160;Module</text>
<polygon fill="#80b1d3" stroke="transparent" points="213,-10 213,-30 233,-30 233,-10 213,-10"/>
<text text-anchor="start" x="236.78" y="-15.4" font-family="sans-serif" font-size="14.00"> &#160;Bootstrap</text>
<polygon fill="#fdb462" stroke="transparent" points="310,-10 310,-30 330,-30 330,-10 310,-10"/>
<text text-anchor="start" x="333.67" y="-15.4" font-family="sans-serif" font-size="14.00"> &#160;Providers</text>
<polygon fill="#fb8072" stroke="transparent" points="406,-10 406,-30 426,-30 426,-10 406,-10"/>
<text text-anchor="start" x="429.73" y="-15.4" font-family="sans-serif" font-size="14.00"> &#160;Exports</text>
<g id="clust1" class="cluster">
<title>cluster_I18nTestingModule</title>
<polygon fill="none" stroke="black" stroke-dasharray="1,5" points="106.5,-70 106.5,-268 389.5,-268 389.5,-70 106.5,-70"/>
</g>
<g id="clust6" class="cluster">
<title>cluster_I18nTestingModule_exports</title>
<polygon fill="none" stroke="black" points="114.5,-208 114.5,-260 381.5,-260 381.5,-208 114.5,-208"/>
</g>
<g id="clust2" class="cluster">
<title>cluster_I18nTestingModule_declarations</title>
<polygon fill="none" stroke="black" points="118.5,-78 118.5,-130 378.5,-130 378.5,-78 118.5,-78"/>
</g>
<!-- MockDatePipe -->
<g id="node1" class="node">
<title>MockDatePipe</title>
<polygon fill="#ffffb3" stroke="black" points="370.47,-122 270.53,-122 270.53,-86 370.47,-86 370.47,-122"/>
<text text-anchor="middle" x="320.5" y="-99.8" font-family="Times,serif" font-size="14.00">MockDatePipe</text>
</g>
<!-- I18nTestingModule -->
<g id="node3" class="node">
<title>I18nTestingModule</title>
<polygon fill="#8dd3c7" stroke="black" points="254.2,-187 251.2,-191 230.2,-191 227.2,-187 126.8,-187 126.8,-151 254.2,-151 254.2,-187"/>
<text text-anchor="middle" x="190.5" y="-164.8" font-family="Times,serif" font-size="14.00">I18nTestingModule</text>
</g>
<!-- MockDatePipe&#45;&gt;I18nTestingModule -->
<g id="edge1" class="edge">
<title>MockDatePipe&#45;&gt;I18nTestingModule</title>
<path fill="none" stroke="black" d="M337.16,-122.02C337.16,-139.37 337.16,-163 337.16,-163 337.16,-163 264.4,-163 264.4,-163"/>
<polygon fill="black" stroke="black" points="264.4,-159.5 254.4,-163 264.4,-166.5 264.4,-159.5"/>
</g>
<!-- MockTranslatePipe -->
<g id="node2" class="node">
<title>MockTranslatePipe</title>
<polygon fill="#ffffb3" stroke="black" points="252.13,-122 126.87,-122 126.87,-86 252.13,-86 252.13,-122"/>
<text text-anchor="middle" x="189.5" y="-99.8" font-family="Times,serif" font-size="14.00">MockTranslatePipe</text>
</g>
<!-- MockTranslatePipe&#45;&gt;I18nTestingModule -->
<g id="edge2" class="edge">
<title>MockTranslatePipe&#45;&gt;I18nTestingModule</title>
<path fill="none" stroke="black" d="M189.61,-122.11C189.61,-122.11 189.61,-140.99 189.61,-140.99"/>
<polygon fill="black" stroke="black" points="186.11,-140.99 189.61,-150.99 193.11,-140.99 186.11,-140.99"/>
</g>
<!-- MockDatePipe  -->
<g id="node4" class="node">
<title>MockDatePipe </title>
<polygon fill="#fb8072" stroke="black" points="373.47,-252 269.53,-252 269.53,-216 373.47,-216 373.47,-252"/>
<text text-anchor="middle" x="321.5" y="-229.8" font-family="Times,serif" font-size="14.00">MockDatePipe </text>
</g>
<!-- I18nTestingModule&#45;&gt;MockDatePipe  -->
<g id="edge3" class="edge">
<title>I18nTestingModule&#45;&gt;MockDatePipe </title>
<path fill="none" stroke="black" stroke-dasharray="5,2" d="M254.13,-175C279.96,-175 303.84,-175 303.84,-175 303.84,-175 303.84,-205.98 303.84,-205.98"/>
<polygon fill="black" stroke="black" points="300.34,-205.98 303.84,-215.98 307.34,-205.98 300.34,-205.98"/>
</g>
<!-- MockTranslatePipe  -->
<g id="node5" class="node">
<title>MockTranslatePipe </title>
<polygon fill="#fb8072" stroke="black" points="252.13,-252 122.87,-252 122.87,-216 252.13,-216 252.13,-252"/>
<text text-anchor="middle" x="187.5" y="-229.8" font-family="Times,serif" font-size="14.00">MockTranslatePipe </text>
</g>
<!-- I18nTestingModule&#45;&gt;MockTranslatePipe  -->
<g id="edge4" class="edge">
<title>I18nTestingModule&#45;&gt;MockTranslatePipe </title>
<path fill="none" stroke="black" stroke-dasharray="5,2" d="M189.48,-187.11C189.48,-187.11 189.48,-205.99 189.48,-205.99"/>
<polygon fill="black" stroke="black" points="185.98,-205.99 189.48,-215.99 192.98,-205.99 185.98,-205.99"/>
</g>
</g>
</svg>
