<?xml version="1.0" encoding="UTF-8" standalone="no"?>
<!DOCTYPE svg PUBLIC "-//W3C//DTD SVG 1.1//EN"
 "http://www.w3.org/Graphics/SVG/1.1/DTD/svg11.dtd">
<!-- Generated by graphviz version 2.47.3 (20210619.1520)
 -->
<!-- Title: dependencies Pages: 1 -->
<svg width="307pt" height="247pt"
 viewBox="0.00 0.00 307.00 246.80" xmlns="http://www.w3.org/2000/svg" xmlns:xlink="http://www.w3.org/1999/xlink">
<g id="graph0" class="graph" transform="scale(1 1) rotate(0) translate(4 242.8)">
<title>dependencies</title>
<polygon fill="white" stroke="transparent" points="-4,4 -4,-242.8 303,-242.8 303,4 -4,4"/>
<text text-anchor="middle" x="149.5" y="-8.2" font-family="sans-serif" font-size="14.00">dependencies</text>
<g id="clust1" class="cluster">
<title>cluster_I18nTestingModule</title>
<polygon fill="none" stroke="black" stroke-dasharray="1,5" points="8,-32.8 8,-230.8 291,-230.8 291,-32.8 8,-32.8"/>
</g>
<g id="clust2" class="cluster">
<title>cluster_I18nTestingModule_declarations</title>
<polygon fill="none" stroke="black" points="20,-40.8 20,-92.8 280,-92.8 280,-40.8 20,-40.8"/>
</g>
<g id="clust6" class="cluster">
<title>cluster_I18nTestingModule_exports</title>
<polygon fill="none" stroke="black" points="16,-170.8 16,-222.8 283,-222.8 283,-170.8 16,-170.8"/>
</g>
<!-- MockDatePipe -->
<g id="node1" class="node">
<title>MockDatePipe</title>
<polygon fill="#ffffb3" stroke="black" points="271.97,-84.8 172.03,-84.8 172.03,-48.8 271.97,-48.8 271.97,-84.8"/>
<text text-anchor="middle" x="222" y="-62.6" font-family="Times,serif" font-size="14.00">MockDatePipe</text>
</g>
<!-- I18nTestingModule -->
<g id="node3" class="node">
<title>I18nTestingModule</title>
<polygon fill="#8dd3c7" stroke="black" points="155.7,-149.8 152.7,-153.8 131.7,-153.8 128.7,-149.8 28.3,-149.8 28.3,-113.8 155.7,-113.8 155.7,-149.8"/>
<text text-anchor="middle" x="92" y="-127.6" font-family="Times,serif" font-size="14.00">I18nTestingModule</text>
</g>
<!-- MockDatePipe&#45;&gt;I18nTestingModule -->
<g id="edge1" class="edge">
<title>MockDatePipe&#45;&gt;I18nTestingModule</title>
<path fill="none" stroke="black" d="M238.66,-84.82C238.66,-102.17 238.66,-125.8 238.66,-125.8 238.66,-125.8 165.9,-125.8 165.9,-125.8"/>
<polygon fill="black" stroke="black" points="165.9,-122.3 155.9,-125.8 165.9,-129.3 165.9,-122.3"/>
</g>
<!-- MockTranslatePipe -->
<g id="node2" class="node">
<title>MockTranslatePipe</title>
<polygon fill="#ffffb3" stroke="black" points="153.63,-84.8 28.37,-84.8 28.37,-48.8 153.63,-48.8 153.63,-84.8"/>
<text text-anchor="middle" x="91" y="-62.6" font-family="Times,serif" font-size="14.00">MockTranslatePipe</text>
</g>
<!-- MockTranslatePipe&#45;&gt;I18nTestingModule -->
<g id="edge2" class="edge">
<title>MockTranslatePipe&#45;&gt;I18nTestingModule</title>
<path fill="none" stroke="black" d="M91.11,-84.91C91.11,-84.91 91.11,-103.79 91.11,-103.79"/>
<polygon fill="black" stroke="black" points="87.61,-103.79 91.11,-113.79 94.61,-103.79 87.61,-103.79"/>
</g>
<!-- MockDatePipe  -->
<g id="node4" class="node">
<title>MockDatePipe </title>
<polygon fill="#fb8072" stroke="black" points="274.97,-214.8 171.03,-214.8 171.03,-178.8 274.97,-178.8 274.97,-214.8"/>
<text text-anchor="middle" x="223" y="-192.6" font-family="Times,serif" font-size="14.00">MockDatePipe </text>
</g>
<!-- I18nTestingModule&#45;&gt;MockDatePipe  -->
<g id="edge3" class="edge">
<title>I18nTestingModule&#45;&gt;MockDatePipe </title>
<path fill="none" stroke="black" stroke-dasharray="5,2" d="M155.63,-137.8C181.46,-137.8 205.34,-137.8 205.34,-137.8 205.34,-137.8 205.34,-168.78 205.34,-168.78"/>
<polygon fill="black" stroke="black" points="201.84,-168.78 205.34,-178.78 208.84,-168.78 201.84,-168.78"/>
</g>
<!-- MockTranslatePipe  -->
<g id="node5" class="node">
<title>MockTranslatePipe </title>
<polygon fill="#fb8072" stroke="black" points="153.63,-214.8 24.37,-214.8 24.37,-178.8 153.63,-178.8 153.63,-214.8"/>
<text text-anchor="middle" x="89" y="-192.6" font-family="Times,serif" font-size="14.00">MockTranslatePipe </text>
</g>
<!-- I18nTestingModule&#45;&gt;MockTranslatePipe  -->
<g id="edge4" class="edge">
<title>I18nTestingModule&#45;&gt;MockTranslatePipe </title>
<path fill="none" stroke="black" stroke-dasharray="5,2" d="M90.98,-149.91C90.98,-149.91 90.98,-168.79 90.98,-168.79"/>
<polygon fill="black" stroke="black" points="87.48,-168.79 90.98,-178.79 94.48,-168.79 87.48,-168.79"/>
</g>
</g>
</svg>
