<?xml version="1.0" encoding="UTF-8" standalone="no"?>
<!DOCTYPE svg PUBLIC "-//W3C//DTD SVG 1.1//EN"
 "http://www.w3.org/Graphics/SVG/1.1/DTD/svg11.dtd">
<!-- Generated by graphviz version 2.47.3 (20210619.1520)
 -->
<!-- Title: dependencies Pages: 1 -->
<svg width="672pt" height="247pt"
 viewBox="0.00 0.00 672.00 246.80" xmlns="http://www.w3.org/2000/svg" xmlns:xlink="http://www.w3.org/1999/xlink">
<g id="graph0" class="graph" transform="scale(1 1) rotate(0) translate(4 242.8)">
<title>dependencies</title>
<polygon fill="white" stroke="transparent" points="-4,4 -4,-242.8 668,-242.8 668,4 -4,4"/>
<text text-anchor="middle" x="332" y="-8.2" font-family="sans-serif" font-size="14.00">dependencies</text>
<g id="clust1" class="cluster">
<title>cluster_ConfigureCartEntryModule</title>
<polygon fill="none" stroke="black" stroke-dasharray="1,5" points="8,-32.8 8,-230.8 656,-230.8 656,-32.8 8,-32.8"/>
</g>
<g id="clust2" class="cluster">
<title>cluster_ConfigureCartEntryModule_declarations</title>
<polygon fill="none" stroke="black" points="438,-40.8 438,-92.8 648,-92.8 648,-40.8 438,-40.8"/>
</g>
<g id="clust5" class="cluster">
<title>cluster_ConfigureCartEntryModule_exports</title>
<polygon fill="none" stroke="black" points="170,-170.8 170,-222.8 382,-222.8 382,-170.8 170,-170.8"/>
</g>
<g id="clust4" class="cluster">
<title>cluster_ConfigureCartEntryModule_imports</title>
<polygon fill="none" stroke="black" points="16,-40.8 16,-92.8 430,-92.8 430,-40.8 16,-40.8"/>
</g>
<!-- ConfigureCartEntryComponent -->
<g id="node1" class="node">
<title>ConfigureCartEntryComponent</title>
<polygon fill="#ffffb3" stroke="black" points="639.8,-84.8 446.2,-84.8 446.2,-48.8 639.8,-48.8 639.8,-84.8"/>
<text text-anchor="middle" x="543" y="-62.6" font-family="Times,serif" font-size="14.00">ConfigureCartEntryComponent</text>
</g>
<!-- ConfigureCartEntryModule -->
<g id="node2" class="node">
<title>ConfigureCartEntryModule</title>
<polygon fill="#8dd3c7" stroke="black" points="361.52,-149.8 358.52,-153.8 337.52,-153.8 334.52,-149.8 190.48,-149.8 190.48,-113.8 361.52,-113.8 361.52,-149.8"/>
<text text-anchor="middle" x="276" y="-127.6" font-family="Times,serif" font-size="14.00">ConfigureCartEntryModule</text>
</g>
<!-- ConfigureCartEntryComponent&#45;&gt;ConfigureCartEntryModule -->
<g id="edge1" class="edge">
<title>ConfigureCartEntryComponent&#45;&gt;ConfigureCartEntryModule</title>
<path fill="none" stroke="black" d="M543,-84.91C543,-104.14 543,-131.8 543,-131.8 543,-131.8 371.58,-131.8 371.58,-131.8"/>
<polygon fill="black" stroke="black" points="371.58,-128.3 361.58,-131.8 371.58,-135.3 371.58,-128.3"/>
</g>
<!-- ConfigureCartEntryComponent  -->
<g id="node7" class="node">
<title>ConfigureCartEntryComponent </title>
<polygon fill="#fb8072" stroke="black" points="374.3,-214.8 177.7,-214.8 177.7,-178.8 374.3,-178.8 374.3,-214.8"/>
<text text-anchor="middle" x="276" y="-192.6" font-family="Times,serif" font-size="14.00">ConfigureCartEntryComponent </text>
</g>
<!-- ConfigureCartEntryModule&#45;&gt;ConfigureCartEntryComponent  -->
<g id="edge6" class="edge">
<title>ConfigureCartEntryModule&#45;&gt;ConfigureCartEntryComponent </title>
<path fill="none" stroke="black" stroke-dasharray="5,2" d="M276,-149.91C276,-149.91 276,-168.79 276,-168.79"/>
<polygon fill="black" stroke="black" points="272.5,-168.79 276,-178.79 279.5,-168.79 272.5,-168.79"/>
</g>
<!-- I18nModule -->
<g id="node3" class="node">
<title>I18nModule</title>
<polygon fill="#8dd3c7" stroke="black" points="421.71,-84.8 418.71,-88.8 397.71,-88.8 394.71,-84.8 336.29,-84.8 336.29,-48.8 421.71,-48.8 421.71,-84.8"/>
<text text-anchor="middle" x="379" y="-62.6" font-family="Times,serif" font-size="14.00">I18nModule</text>
</g>
<!-- I18nModule&#45;&gt;ConfigureCartEntryModule -->
<g id="edge2" class="edge">
<title>I18nModule&#45;&gt;ConfigureCartEntryModule</title>
<path fill="none" stroke="black" d="M349.08,-84.91C349.08,-84.91 349.08,-103.79 349.08,-103.79"/>
<polygon fill="black" stroke="black" points="345.58,-103.79 349.08,-113.79 352.58,-103.79 345.58,-103.79"/>
</g>
<!-- IconModule -->
<g id="node4" class="node">
<title>IconModule</title>
<polygon fill="#8dd3c7" stroke="black" points="318.43,-84.8 315.43,-88.8 294.43,-88.8 291.43,-84.8 233.57,-84.8 233.57,-48.8 318.43,-48.8 318.43,-84.8"/>
<text text-anchor="middle" x="276" y="-62.6" font-family="Times,serif" font-size="14.00">IconModule</text>
</g>
<!-- IconModule&#45;&gt;ConfigureCartEntryModule -->
<g id="edge3" class="edge">
<title>IconModule&#45;&gt;ConfigureCartEntryModule</title>
<path fill="none" stroke="black" d="M276,-84.91C276,-84.91 276,-103.79 276,-103.79"/>
<polygon fill="black" stroke="black" points="272.5,-103.79 276,-113.79 279.5,-103.79 272.5,-103.79"/>
</g>
<!-- ModalModule -->
<g id="node5" class="node">
<title>ModalModule</title>
<polygon fill="#8dd3c7" stroke="black" points="216.1,-84.8 213.1,-88.8 192.1,-88.8 189.1,-84.8 119.9,-84.8 119.9,-48.8 216.1,-48.8 216.1,-84.8"/>
<text text-anchor="middle" x="168" y="-62.6" font-family="Times,serif" font-size="14.00">ModalModule</text>
</g>
<!-- ModalModule&#45;&gt;ConfigureCartEntryModule -->
<g id="edge4" class="edge">
<title>ModalModule&#45;&gt;ConfigureCartEntryModule</title>
<path fill="none" stroke="black" d="M203.15,-84.91C203.15,-84.91 203.15,-103.79 203.15,-103.79"/>
<polygon fill="black" stroke="black" points="199.65,-103.79 203.15,-113.79 206.65,-103.79 199.65,-103.79"/>
</g>
<!-- UrlModule -->
<g id="node6" class="node">
<title>UrlModule</title>
<polygon fill="#8dd3c7" stroke="black" points="102.21,-84.8 99.21,-88.8 78.21,-88.8 75.21,-84.8 23.79,-84.8 23.79,-48.8 102.21,-48.8 102.21,-84.8"/>
<text text-anchor="middle" x="63" y="-62.6" font-family="Times,serif" font-size="14.00">UrlModule</text>
</g>
<!-- UrlModule&#45;&gt;ConfigureCartEntryModule -->
<g id="edge5" class="edge">
<title>UrlModule&#45;&gt;ConfigureCartEntryModule</title>
<path fill="none" stroke="black" d="M63,-84.91C63,-104.14 63,-131.8 63,-131.8 63,-131.8 180.29,-131.8 180.29,-131.8"/>
<polygon fill="black" stroke="black" points="180.29,-135.3 190.29,-131.8 180.29,-128.3 180.29,-135.3"/>
</g>
</g>
</svg>
