<?xml version="1.0" encoding="UTF-8" standalone="no"?>
<!DOCTYPE svg PUBLIC "-//W3C//DTD SVG 1.1//EN"
 "http://www.w3.org/Graphics/SVG/1.1/DTD/svg11.dtd">
<!-- Generated by graphviz version 2.47.3 (20210619.1520)
 -->
<!-- Title: dependencies Pages: 1 -->
<svg width="268pt" height="174pt"
 viewBox="0.00 0.00 268.00 173.80" xmlns="http://www.w3.org/2000/svg" xmlns:xlink="http://www.w3.org/1999/xlink">
<g id="graph0" class="graph" transform="scale(1 1) rotate(0) translate(4 169.8)">
<title>dependencies</title>
<polygon fill="white" stroke="transparent" points="-4,4 -4,-169.8 264,-169.8 264,4 -4,4"/>
<text text-anchor="middle" x="130" y="-8.2" font-family="sans-serif" font-size="14.00">dependencies</text>
<g id="clust1" class="cluster">
<title>cluster_TextfieldConfiguratorRoutingModule</title>
<polygon fill="none" stroke="black" stroke-dasharray="1,5" points="8,-32.8 8,-157.8 252,-157.8 252,-32.8 8,-32.8"/>
</g>
<g id="clust3" class="cluster">
<title>cluster_TextfieldConfiguratorRoutingModule_imports</title>
<polygon fill="none" stroke="black" points="63,-40.8 63,-92.8 197,-92.8 197,-40.8 63,-40.8"/>
</g>
<!-- CmsRouteModule -->
<g id="node1" class="node">
<title>CmsRouteModule</title>
<polygon fill="#8dd3c7" stroke="black" points="189.16,-84.8 186.16,-88.8 165.16,-88.8 162.16,-84.8 70.84,-84.8 70.84,-48.8 189.16,-48.8 189.16,-84.8"/>
<text text-anchor="middle" x="130" y="-62.6" font-family="Times,serif" font-size="14.00">CmsRouteModule</text>
</g>
<!-- TextfieldConfiguratorRoutingModule -->
<g id="node2" class="node">
<title>TextfieldConfiguratorRoutingModule</title>
<polygon fill="#8dd3c7" stroke="black" points="244.3,-149.8 241.3,-153.8 220.3,-153.8 217.3,-149.8 15.7,-149.8 15.7,-113.8 244.3,-113.8 244.3,-149.8"/>
<text text-anchor="middle" x="130" y="-127.6" font-family="Times,serif" font-size="14.00">TextfieldConfiguratorRoutingModule</text>
</g>
<!-- CmsRouteModule&#45;&gt;TextfieldConfiguratorRoutingModule -->
<g id="edge1" class="edge">
<title>CmsRouteModule&#45;&gt;TextfieldConfiguratorRoutingModule</title>
<path fill="none" stroke="black" d="M130,-84.91C130,-84.91 130,-103.79 130,-103.79"/>
<polygon fill="black" stroke="black" points="126.5,-103.79 130,-113.79 133.5,-103.79 126.5,-103.79"/>
</g>
</g>
</svg>
