<?xml version="1.0" encoding="UTF-8" standalone="no"?>
<!DOCTYPE svg PUBLIC "-//W3C//DTD SVG 1.1//EN"
 "http://www.w3.org/Graphics/SVG/1.1/DTD/svg11.dtd">
<!-- Generated by graphviz version 2.47.0 (20210316.0004)
 -->
<!-- Title: dependencies Pages: 1 -->
<svg width="1235pt" height="211pt"
 viewBox="0.00 0.00 1235.00 211.00" xmlns="http://www.w3.org/2000/svg" xmlns:xlink="http://www.w3.org/1999/xlink">
<g id="graph0" class="graph" transform="scale(1 1) rotate(0) translate(4 207)">
<title>dependencies</title>
<polygon fill="white" stroke="transparent" points="-4,4 -4,-207 1231,-207 1231,4 -4,4"/>
<text text-anchor="start" x="592.51" y="-42.4" font-family="sans-serif" font-weight="bold" font-size="14.00">Legend</text>
<polygon fill="#ffffb3" stroke="transparent" points="379.5,-10 379.5,-30 399.5,-30 399.5,-10 379.5,-10"/>
<text text-anchor="start" x="403.13" y="-15.4" font-family="sans-serif" font-size="14.00"> &#160;Declarations</text>
<polygon fill="#8dd3c7" stroke="transparent" points="492.5,-10 492.5,-30 512.5,-30 512.5,-10 492.5,-10"/>
<text text-anchor="start" x="516.23" y="-15.4" font-family="sans-serif" font-size="14.00"> &#160;Module</text>
<polygon fill="#80b1d3" stroke="transparent" points="578.5,-10 578.5,-30 598.5,-30 598.5,-10 578.5,-10"/>
<text text-anchor="start" x="602.28" y="-15.4" font-family="sans-serif" font-size="14.00"> &#160;Bootstrap</text>
<polygon fill="#fdb462" stroke="transparent" points="675.5,-10 675.5,-30 695.5,-30 695.5,-10 675.5,-10"/>
<text text-anchor="start" x="699.17" y="-15.4" font-family="sans-serif" font-size="14.00"> &#160;Providers</text>
<polygon fill="#fb8072" stroke="transparent" points="771.5,-10 771.5,-30 791.5,-30 791.5,-10 771.5,-10"/>
<text text-anchor="start" x="795.23" y="-15.4" font-family="sans-serif" font-size="14.00"> &#160;Exports</text>
<g id="clust1" class="cluster">
<title>cluster_UnitsComponentsModule</title>
<polygon fill="none" stroke="black" stroke-dasharray="1,5" points="8,-70 8,-195 1219,-195 1219,-70 8,-70"/>
</g>
<g id="clust3" class="cluster">
<title>cluster_UnitsComponentsModule_imports</title>
<polygon fill="none" stroke="black" points="16,-78 16,-130 1211,-130 1211,-78 16,-78"/>
</g>
<!-- UnitAddressModule -->
<g id="node1" class="node">
<title>UnitAddressModule</title>
<polygon fill="#8dd3c7" stroke="black" points="1203.31,-122 1200.31,-126 1179.31,-126 1176.31,-122 1072.69,-122 1072.69,-86 1203.31,-86 1203.31,-122"/>
<text text-anchor="middle" x="1138" y="-99.8" font-family="Times,serif" font-size="14.00">UnitAddressModule</text>
</g>
<!-- UnitsComponentsModule -->
<g id="node9" class="node">
<title>UnitsComponentsModule</title>
<polygon fill="#8dd3c7" stroke="black" points="638.16,-187 635.16,-191 614.16,-191 611.16,-187 477.84,-187 477.84,-151 638.16,-151 638.16,-187"/>
<text text-anchor="middle" x="558" y="-164.8" font-family="Times,serif" font-size="14.00">UnitsComponentsModule</text>
</g>
<!-- UnitAddressModule&#45;&gt;UnitsComponentsModule -->
<g id="edge1" class="edge">
<title>UnitAddressModule&#45;&gt;UnitsComponentsModule</title>
<path fill="none" stroke="black" d="M1138,-122.29C1138,-144.21 1138,-178 1138,-178 1138,-178 648.34,-178 648.34,-178"/>
<polygon fill="black" stroke="black" points="648.34,-174.5 638.34,-178 648.34,-181.5 648.34,-174.5"/>
</g>
<!-- UnitApproverListModule -->
<g id="node2" class="node">
<title>UnitApproverListModule</title>
<polygon fill="#8dd3c7" stroke="black" points="1054.86,-122 1051.86,-126 1030.86,-126 1027.86,-122 895.14,-122 895.14,-86 1054.86,-86 1054.86,-122"/>
<text text-anchor="middle" x="975" y="-99.8" font-family="Times,serif" font-size="14.00">UnitApproverListModule</text>
</g>
<!-- UnitApproverListModule&#45;&gt;UnitsComponentsModule -->
<g id="edge2" class="edge">
<title>UnitApproverListModule&#45;&gt;UnitsComponentsModule</title>
<path fill="none" stroke="black" d="M975,-122.11C975,-141.34 975,-169 975,-169 975,-169 648.4,-169 648.4,-169"/>
<polygon fill="black" stroke="black" points="648.4,-165.5 638.4,-169 648.4,-172.5 648.4,-165.5"/>
</g>
<!-- UnitChildrenModule -->
<g id="node3" class="node">
<title>UnitChildrenModule</title>
<polygon fill="#8dd3c7" stroke="black" points="876.93,-122 873.93,-126 852.93,-126 849.93,-122 743.07,-122 743.07,-86 876.93,-86 876.93,-122"/>
<text text-anchor="middle" x="810" y="-99.8" font-family="Times,serif" font-size="14.00">UnitChildrenModule</text>
</g>
<!-- UnitChildrenModule&#45;&gt;UnitsComponentsModule -->
<g id="edge3" class="edge">
<title>UnitChildrenModule&#45;&gt;UnitsComponentsModule</title>
<path fill="none" stroke="black" d="M810,-122.03C810,-138.4 810,-160 810,-160 810,-160 648.43,-160 648.43,-160"/>
<polygon fill="black" stroke="black" points="648.43,-156.5 638.43,-160 648.43,-163.5 648.43,-156.5"/>
</g>
<!-- UnitCostCenterListModule -->
<g id="node4" class="node">
<title>UnitCostCenterListModule</title>
<polygon fill="#8dd3c7" stroke="black" points="725.7,-122 722.7,-126 701.7,-126 698.7,-122 556.3,-122 556.3,-86 725.7,-86 725.7,-122"/>
<text text-anchor="middle" x="641" y="-99.8" font-family="Times,serif" font-size="14.00">UnitCostCenterListModule</text>
</g>
<!-- UnitCostCenterListModule&#45;&gt;UnitsComponentsModule -->
<g id="edge4" class="edge">
<title>UnitCostCenterListModule&#45;&gt;UnitsComponentsModule</title>
<path fill="none" stroke="black" d="M597.36,-122.11C597.36,-122.11 597.36,-140.99 597.36,-140.99"/>
<polygon fill="black" stroke="black" points="593.86,-140.99 597.36,-150.99 600.86,-140.99 593.86,-140.99"/>
</g>
<!-- UnitDetailsModule -->
<g id="node5" class="node">
<title>UnitDetailsModule</title>
<polygon fill="#8dd3c7" stroke="black" points="538.09,-122 535.09,-126 514.09,-126 511.09,-122 413.91,-122 413.91,-86 538.09,-86 538.09,-122"/>
<text text-anchor="middle" x="476" y="-99.8" font-family="Times,serif" font-size="14.00">UnitDetailsModule</text>
</g>
<!-- UnitDetailsModule&#45;&gt;UnitsComponentsModule -->
<g id="edge5" class="edge">
<title>UnitDetailsModule&#45;&gt;UnitsComponentsModule</title>
<path fill="none" stroke="black" d="M507.86,-122.11C507.86,-122.11 507.86,-140.99 507.86,-140.99"/>
<polygon fill="black" stroke="black" points="504.36,-140.99 507.86,-150.99 511.36,-140.99 504.36,-140.99"/>
</g>
<!-- UnitFormModule -->
<g id="node6" class="node">
<title>UnitFormModule</title>
<polygon fill="#8dd3c7" stroke="black" points="396.27,-122 393.27,-126 372.27,-126 369.27,-122 281.73,-122 281.73,-86 396.27,-86 396.27,-122"/>
<text text-anchor="middle" x="339" y="-99.8" font-family="Times,serif" font-size="14.00">UnitFormModule</text>
</g>
<!-- UnitFormModule&#45;&gt;UnitsComponentsModule -->
<g id="edge6" class="edge">
<title>UnitFormModule&#45;&gt;UnitsComponentsModule</title>
<path fill="none" stroke="black" d="M339,-122.03C339,-138.4 339,-160 339,-160 339,-160 467.7,-160 467.7,-160"/>
<polygon fill="black" stroke="black" points="467.7,-163.5 477.7,-160 467.7,-156.5 467.7,-163.5"/>
</g>
<!-- UnitListModule -->
<g id="node7" class="node">
<title>UnitListModule</title>
<polygon fill="#8dd3c7" stroke="black" points="264.22,-122 261.22,-126 240.22,-126 237.22,-122 157.78,-122 157.78,-86 264.22,-86 264.22,-122"/>
<text text-anchor="middle" x="211" y="-99.8" font-family="Times,serif" font-size="14.00">UnitListModule</text>
</g>
<!-- UnitListModule&#45;&gt;UnitsComponentsModule -->
<g id="edge7" class="edge">
<title>UnitListModule&#45;&gt;UnitsComponentsModule</title>
<path fill="none" stroke="black" d="M211,-122.11C211,-141.34 211,-169 211,-169 211,-169 467.52,-169 467.52,-169"/>
<polygon fill="black" stroke="black" points="467.52,-172.5 477.52,-169 467.52,-165.5 467.52,-172.5"/>
</g>
<!-- UnitUsersModule -->
<g id="node8" class="node">
<title>UnitUsersModule</title>
<polygon fill="#8dd3c7" stroke="black" points="140.31,-122 137.31,-126 116.31,-126 113.31,-122 23.69,-122 23.69,-86 140.31,-86 140.31,-122"/>
<text text-anchor="middle" x="82" y="-99.8" font-family="Times,serif" font-size="14.00">UnitUsersModule</text>
</g>
<!-- UnitUsersModule&#45;&gt;UnitsComponentsModule -->
<g id="edge8" class="edge">
<title>UnitUsersModule&#45;&gt;UnitsComponentsModule</title>
<path fill="none" stroke="black" d="M82,-122.29C82,-144.21 82,-178 82,-178 82,-178 467.79,-178 467.79,-178"/>
<polygon fill="black" stroke="black" points="467.79,-181.5 477.79,-178 467.79,-174.5 467.79,-181.5"/>
</g>
</g>
</svg>
