<?xml version="1.0" encoding="UTF-8" standalone="no"?>
<!DOCTYPE svg PUBLIC "-//W3C//DTD SVG 1.1//EN"
 "http://www.w3.org/Graphics/SVG/1.1/DTD/svg11.dtd">
<!-- Generated by graphviz version 2.47.3 (20210619.1520)
 -->
<!-- Title: dependencies Pages: 1 -->
<svg width="252pt" height="174pt"
 viewBox="0.00 0.00 252.00 173.80" xmlns="http://www.w3.org/2000/svg" xmlns:xlink="http://www.w3.org/1999/xlink">
<g id="graph0" class="graph" transform="scale(1 1) rotate(0) translate(4 169.8)">
<title>dependencies</title>
<polygon fill="white" stroke="transparent" points="-4,4 -4,-169.8 248,-169.8 248,4 -4,4"/>
<text text-anchor="middle" x="122" y="-8.2" font-family="sans-serif" font-size="14.00">dependencies</text>
<g id="clust1" class="cluster">
<title>cluster_ConfiguratorTextfieldStoreModule</title>
<polygon fill="none" stroke="black" stroke-dasharray="1,5" points="8,-32.8 8,-157.8 236,-157.8 236,-32.8 8,-32.8"/>
</g>
<g id="clust3" class="cluster">
<title>cluster_ConfiguratorTextfieldStoreModule_imports</title>
<polygon fill="none" stroke="black" points="70,-40.8 70,-92.8 174,-92.8 174,-40.8 70,-40.8"/>
</g>
<!-- StateModule -->
<g id="node1" class="node">
<title>StateModule</title>
<polygon fill="#8dd3c7" stroke="black" points="165.54,-84.8 162.54,-88.8 141.54,-88.8 138.54,-84.8 78.46,-84.8 78.46,-48.8 165.54,-48.8 165.54,-84.8"/>
<text text-anchor="middle" x="122" y="-62.6" font-family="Times,serif" font-size="14.00">StateModule</text>
</g>
<!-- ConfiguratorTextfieldStoreModule -->
<g id="node2" class="node">
<title>ConfiguratorTextfieldStoreModule</title>
<polygon fill="#8dd3c7" stroke="black" points="228.23,-149.8 225.23,-153.8 204.23,-153.8 201.23,-149.8 15.77,-149.8 15.77,-113.8 228.23,-113.8 228.23,-149.8"/>
<text text-anchor="middle" x="122" y="-127.6" font-family="Times,serif" font-size="14.00">ConfiguratorTextfieldStoreModule</text>
</g>
<!-- StateModule&#45;&gt;ConfiguratorTextfieldStoreModule -->
<g id="edge1" class="edge">
<title>StateModule&#45;&gt;ConfiguratorTextfieldStoreModule</title>
<path fill="none" stroke="black" d="M122,-84.91C122,-84.91 122,-103.79 122,-103.79"/>
<polygon fill="black" stroke="black" points="118.5,-103.79 122,-113.79 125.5,-103.79 118.5,-103.79"/>
</g>
</g>
</svg>
