<?xml version="1.0" encoding="UTF-8" standalone="no"?>
<!DOCTYPE svg PUBLIC "-//W3C//DTD SVG 1.1//EN"
 "http://www.w3.org/Graphics/SVG/1.1/DTD/svg11.dtd">
<!-- Generated by graphviz version 2.47.3 (20210619.1520)
 -->
<!-- Title: dependencies Pages: 1 -->
<svg width="2029pt" height="247pt"
 viewBox="0.00 0.00 2029.00 246.80" xmlns="http://www.w3.org/2000/svg" xmlns:xlink="http://www.w3.org/1999/xlink">
<g id="graph0" class="graph" transform="scale(1 1) rotate(0) translate(4 242.8)">
<title>dependencies</title>
<polygon fill="white" stroke="transparent" points="-4,4 -4,-242.8 2025,-242.8 2025,4 -4,4"/>
<text text-anchor="middle" x="1010.5" y="-8.2" font-family="sans-serif" font-size="14.00">dependencies</text>
<g id="clust1" class="cluster">
<title>cluster_CartSharedModule</title>
<polygon fill="none" stroke="black" stroke-dasharray="1,5" points="8,-32.8 8,-230.8 2013,-230.8 2013,-32.8 8,-32.8"/>
</g>
<g id="clust2" class="cluster">
<title>cluster_CartSharedModule_declarations</title>
<polygon fill="none" stroke="black" points="1500,-40.8 1500,-92.8 2005,-92.8 2005,-40.8 1500,-40.8"/>
</g>
<g id="clust7" class="cluster">
<title>cluster_CartSharedModule_exports</title>
<polygon fill="none" stroke="black" points="567,-170.8 567,-222.8 1081,-222.8 1081,-170.8 567,-170.8"/>
</g>
<g id="clust6" class="cluster">
<title>cluster_CartSharedModule_imports</title>
<polygon fill="none" stroke="black" points="16,-40.8 16,-92.8 1492,-92.8 1492,-40.8 16,-40.8"/>
</g>
<!-- CartItemComponent -->
<g id="node1" class="node">
<title>CartItemComponent</title>
<polygon fill="#ffffb3" stroke="black" points="1996.59,-84.8 1865.41,-84.8 1865.41,-48.8 1996.59,-48.8 1996.59,-84.8"/>
<text text-anchor="middle" x="1931" y="-62.6" font-family="Times,serif" font-size="14.00">CartItemComponent</text>
</g>
<!-- CartSharedModule -->
<g id="node4" class="node">
<title>CartSharedModule</title>
<polygon fill="#8dd3c7" stroke="black" points="904.03,-149.8 901.03,-153.8 880.03,-153.8 877.03,-149.8 781.97,-149.8 781.97,-113.8 904.03,-113.8 904.03,-149.8"/>
<text text-anchor="middle" x="843" y="-127.6" font-family="Times,serif" font-size="14.00">CartSharedModule</text>
</g>
<!-- CartItemComponent&#45;&gt;CartSharedModule -->
<g id="edge1" class="edge">
<title>CartItemComponent&#45;&gt;CartSharedModule</title>
<path fill="none" stroke="black" d="M1931,-85.09C1931,-107.01 1931,-140.8 1931,-140.8 1931,-140.8 914.22,-140.8 914.22,-140.8"/>
<polygon fill="black" stroke="black" points="914.22,-137.3 904.22,-140.8 914.22,-144.3 914.22,-137.3"/>
</g>
<!-- CartItemListComponent -->
<g id="node2" class="node">
<title>CartItemListComponent</title>
<polygon fill="#ffffb3" stroke="black" points="1847.37,-84.8 1694.63,-84.8 1694.63,-48.8 1847.37,-48.8 1847.37,-84.8"/>
<text text-anchor="middle" x="1771" y="-62.6" font-family="Times,serif" font-size="14.00">CartItemListComponent</text>
</g>
<!-- CartItemListComponent&#45;&gt;CartSharedModule -->
<g id="edge2" class="edge">
<title>CartItemListComponent&#45;&gt;CartSharedModule</title>
<path fill="none" stroke="black" d="M1771,-84.83C1771,-105.57 1771,-136.8 1771,-136.8 1771,-136.8 914.25,-136.8 914.25,-136.8"/>
<polygon fill="black" stroke="black" points="914.25,-133.3 904.25,-136.8 914.25,-140.3 914.25,-133.3"/>
</g>
<!-- OrderSummaryComponent -->
<g id="node3" class="node">
<title>OrderSummaryComponent</title>
<polygon fill="#ffffb3" stroke="black" points="1676.41,-84.8 1507.59,-84.8 1507.59,-48.8 1676.41,-48.8 1676.41,-84.8"/>
<text text-anchor="middle" x="1592" y="-62.6" font-family="Times,serif" font-size="14.00">OrderSummaryComponent</text>
</g>
<!-- OrderSummaryComponent&#45;&gt;CartSharedModule -->
<g id="edge3" class="edge">
<title>OrderSummaryComponent&#45;&gt;CartSharedModule</title>
<path fill="none" stroke="black" d="M1592,-84.91C1592,-104.14 1592,-131.8 1592,-131.8 1592,-131.8 914.29,-131.8 914.29,-131.8"/>
<polygon fill="black" stroke="black" points="914.29,-128.3 904.29,-131.8 914.29,-135.3 914.29,-128.3"/>
</g>
<!-- CartItemComponent  -->
<g id="node16" class="node">
<title>CartItemComponent </title>
<polygon fill="#fb8072" stroke="black" points="1073.09,-214.8 938.91,-214.8 938.91,-178.8 1073.09,-178.8 1073.09,-214.8"/>
<text text-anchor="middle" x="1006" y="-192.6" font-family="Times,serif" font-size="14.00">CartItemComponent </text>
</g>
<!-- CartSharedModule&#45;&gt;CartItemComponent  -->
<g id="edge15" class="edge">
<title>CartSharedModule&#45;&gt;CartItemComponent </title>
<path fill="none" stroke="black" stroke-dasharray="5,2" d="M904.33,-145.8C927.05,-145.8 947.39,-145.8 947.39,-145.8 947.39,-145.8 947.39,-168.68 947.39,-168.68"/>
<polygon fill="black" stroke="black" points="943.89,-168.68 947.39,-178.68 950.89,-168.68 943.89,-168.68"/>
</g>
<!-- CartItemListComponent  -->
<g id="node17" class="node">
<title>CartItemListComponent </title>
<polygon fill="#fb8072" stroke="black" points="921.37,-214.8 764.63,-214.8 764.63,-178.8 921.37,-178.8 921.37,-214.8"/>
<text text-anchor="middle" x="843" y="-192.6" font-family="Times,serif" font-size="14.00">CartItemListComponent </text>
</g>
<!-- CartSharedModule&#45;&gt;CartItemListComponent  -->
<g id="edge16" class="edge">
<title>CartSharedModule&#45;&gt;CartItemListComponent </title>
<path fill="none" stroke="black" stroke-dasharray="5,2" d="M843,-149.91C843,-149.91 843,-168.79 843,-168.79"/>
<polygon fill="black" stroke="black" points="839.5,-168.79 843,-178.79 846.5,-168.79 839.5,-168.79"/>
</g>
<!-- OrderSummaryComponent  -->
<g id="node18" class="node">
<title>OrderSummaryComponent </title>
<polygon fill="#fb8072" stroke="black" points="746.91,-214.8 575.09,-214.8 575.09,-178.8 746.91,-178.8 746.91,-214.8"/>
<text text-anchor="middle" x="661" y="-192.6" font-family="Times,serif" font-size="14.00">OrderSummaryComponent </text>
</g>
<!-- CartSharedModule&#45;&gt;OrderSummaryComponent  -->
<g id="edge17" class="edge">
<title>CartSharedModule&#45;&gt;OrderSummaryComponent </title>
<path fill="none" stroke="black" stroke-dasharray="5,2" d="M781.93,-145.8C759.53,-145.8 739.56,-145.8 739.56,-145.8 739.56,-145.8 739.56,-168.68 739.56,-168.68"/>
<polygon fill="black" stroke="black" points="736.06,-168.68 739.56,-178.68 743.06,-168.68 736.06,-168.68"/>
</g>
<!-- CartCouponModule -->
<g id="node5" class="node">
<title>CartCouponModule</title>
<polygon fill="#8dd3c7" stroke="black" points="1483.99,-84.8 1480.99,-88.8 1459.99,-88.8 1456.99,-84.8 1356.01,-84.8 1356.01,-48.8 1483.99,-48.8 1483.99,-84.8"/>
<text text-anchor="middle" x="1420" y="-62.6" font-family="Times,serif" font-size="14.00">CartCouponModule</text>
</g>
<!-- CartCouponModule&#45;&gt;CartSharedModule -->
<g id="edge4" class="edge">
<title>CartCouponModule&#45;&gt;CartSharedModule</title>
<path fill="none" stroke="black" d="M1420,-85.1C1420,-103.07 1420,-127.8 1420,-127.8 1420,-127.8 914.2,-127.8 914.2,-127.8"/>
<polygon fill="black" stroke="black" points="914.2,-124.3 904.2,-127.8 914.2,-131.3 914.2,-124.3"/>
</g>
<!-- CartItemValidationWarningModule -->
<g id="node6" class="node">
<title>CartItemValidationWarningModule</title>
<polygon fill="#8dd3c7" stroke="black" points="1337.89,-84.8 1334.89,-88.8 1313.89,-88.8 1310.89,-84.8 1120.11,-84.8 1120.11,-48.8 1337.89,-48.8 1337.89,-84.8"/>
<text text-anchor="middle" x="1229" y="-62.6" font-family="Times,serif" font-size="14.00">CartItemValidationWarningModule</text>
</g>
<!-- CartItemValidationWarningModule&#45;&gt;CartSharedModule -->
<g id="edge5" class="edge">
<title>CartItemValidationWarningModule&#45;&gt;CartSharedModule</title>
<path fill="none" stroke="black" d="M1229,-84.83C1229,-101.2 1229,-122.8 1229,-122.8 1229,-122.8 914.16,-122.8 914.16,-122.8"/>
<polygon fill="black" stroke="black" points="914.16,-119.3 904.16,-122.8 914.16,-126.3 914.16,-119.3"/>
</g>
<!-- FeaturesConfigModule -->
<g id="node7" class="node">
<title>FeaturesConfigModule</title>
<polygon fill="#8dd3c7" stroke="black" points="1101.86,-84.8 1098.86,-88.8 1077.86,-88.8 1074.86,-84.8 956.14,-84.8 956.14,-48.8 1101.86,-48.8 1101.86,-84.8"/>
<text text-anchor="middle" x="1029" y="-62.6" font-family="Times,serif" font-size="14.00">FeaturesConfigModule</text>
</g>
<!-- FeaturesConfigModule&#45;&gt;CartSharedModule -->
<g id="edge6" class="edge">
<title>FeaturesConfigModule&#45;&gt;CartSharedModule</title>
<path fill="none" stroke="black" d="M1014.68,-84.99C1014.68,-99.98 1014.68,-118.8 1014.68,-118.8 1014.68,-118.8 914.5,-118.8 914.5,-118.8"/>
<polygon fill="black" stroke="black" points="914.5,-115.3 904.5,-118.8 914.5,-122.3 914.5,-115.3"/>
</g>
<!-- I18nModule -->
<g id="node8" class="node">
<title>I18nModule</title>
<polygon fill="#8dd3c7" stroke="black" points="937.71,-84.8 934.71,-88.8 913.71,-88.8 910.71,-84.8 852.29,-84.8 852.29,-48.8 937.71,-48.8 937.71,-84.8"/>
<text text-anchor="middle" x="895" y="-62.6" font-family="Times,serif" font-size="14.00">I18nModule</text>
</g>
<!-- I18nModule&#45;&gt;CartSharedModule -->
<g id="edge7" class="edge">
<title>I18nModule&#45;&gt;CartSharedModule</title>
<path fill="none" stroke="black" d="M878.33,-84.91C878.33,-84.91 878.33,-103.79 878.33,-103.79"/>
<polygon fill="black" stroke="black" points="874.83,-103.79 878.33,-113.79 881.83,-103.79 874.83,-103.79"/>
</g>
<!-- IconModule -->
<g id="node9" class="node">
<title>IconModule</title>
<polygon fill="#8dd3c7" stroke="black" points="834.43,-84.8 831.43,-88.8 810.43,-88.8 807.43,-84.8 749.57,-84.8 749.57,-48.8 834.43,-48.8 834.43,-84.8"/>
<text text-anchor="middle" x="792" y="-62.6" font-family="Times,serif" font-size="14.00">IconModule</text>
</g>
<!-- IconModule&#45;&gt;CartSharedModule -->
<g id="edge8" class="edge">
<title>IconModule&#45;&gt;CartSharedModule</title>
<path fill="none" stroke="black" d="M807.98,-84.91C807.98,-84.91 807.98,-103.79 807.98,-103.79"/>
<polygon fill="black" stroke="black" points="804.48,-103.79 807.98,-113.79 811.48,-103.79 804.48,-103.79"/>
</g>
<!-- ItemCounterModule -->
<g id="node10" class="node">
<title>ItemCounterModule</title>
<polygon fill="#8dd3c7" stroke="black" points="732.31,-84.8 729.31,-88.8 708.31,-88.8 705.31,-84.8 601.69,-84.8 601.69,-48.8 732.31,-48.8 732.31,-84.8"/>
<text text-anchor="middle" x="667" y="-62.6" font-family="Times,serif" font-size="14.00">ItemCounterModule</text>
</g>
<!-- ItemCounterModule&#45;&gt;CartSharedModule -->
<g id="edge9" class="edge">
<title>ItemCounterModule&#45;&gt;CartSharedModule</title>
<path fill="none" stroke="black" d="M667,-84.99C667,-99.98 667,-118.8 667,-118.8 667,-118.8 771.94,-118.8 771.94,-118.8"/>
<polygon fill="black" stroke="black" points="771.94,-122.3 781.94,-118.8 771.94,-115.3 771.94,-122.3"/>
</g>
<!-- MediaModule -->
<g id="node11" class="node">
<title>MediaModule</title>
<polygon fill="#8dd3c7" stroke="black" points="583.81,-84.8 580.81,-88.8 559.81,-88.8 556.81,-84.8 488.19,-84.8 488.19,-48.8 583.81,-48.8 583.81,-84.8"/>
<text text-anchor="middle" x="536" y="-62.6" font-family="Times,serif" font-size="14.00">MediaModule</text>
</g>
<!-- MediaModule&#45;&gt;CartSharedModule -->
<g id="edge10" class="edge">
<title>MediaModule&#45;&gt;CartSharedModule</title>
<path fill="none" stroke="black" d="M579.35,-84.83C579.35,-101.2 579.35,-122.8 579.35,-122.8 579.35,-122.8 771.85,-122.8 771.85,-122.8"/>
<polygon fill="black" stroke="black" points="771.85,-126.3 781.85,-122.8 771.85,-119.3 771.85,-126.3"/>
</g>
<!-- ModalModule -->
<g id="node12" class="node">
<title>ModalModule</title>
<polygon fill="#8dd3c7" stroke="black" points="470.1,-84.8 467.1,-88.8 446.1,-88.8 443.1,-84.8 373.9,-84.8 373.9,-48.8 470.1,-48.8 470.1,-84.8"/>
<text text-anchor="middle" x="422" y="-62.6" font-family="Times,serif" font-size="14.00">ModalModule</text>
</g>
<!-- ModalModule&#45;&gt;CartSharedModule -->
<g id="edge11" class="edge">
<title>ModalModule&#45;&gt;CartSharedModule</title>
<path fill="none" stroke="black" d="M422,-85.1C422,-103.07 422,-127.8 422,-127.8 422,-127.8 771.78,-127.8 771.78,-127.8"/>
<polygon fill="black" stroke="black" points="771.78,-131.3 781.78,-127.8 771.78,-124.3 771.78,-131.3"/>
</g>
<!-- OutletModule -->
<g id="node13" class="node">
<title>OutletModule</title>
<polygon fill="#8dd3c7" stroke="black" points="356.04,-84.8 353.04,-88.8 332.04,-88.8 329.04,-84.8 261.96,-84.8 261.96,-48.8 356.04,-48.8 356.04,-84.8"/>
<text text-anchor="middle" x="309" y="-62.6" font-family="Times,serif" font-size="14.00">OutletModule</text>
</g>
<!-- OutletModule&#45;&gt;CartSharedModule -->
<g id="edge12" class="edge">
<title>OutletModule&#45;&gt;CartSharedModule</title>
<path fill="none" stroke="black" d="M309,-84.91C309,-104.14 309,-131.8 309,-131.8 309,-131.8 771.74,-131.8 771.74,-131.8"/>
<polygon fill="black" stroke="black" points="771.74,-135.3 781.74,-131.8 771.74,-128.3 771.74,-135.3"/>
</g>
<!-- PromotionsModule -->
<g id="node14" class="node">
<title>PromotionsModule</title>
<polygon fill="#8dd3c7" stroke="black" points="244.11,-84.8 241.11,-88.8 220.11,-88.8 217.11,-84.8 119.89,-84.8 119.89,-48.8 244.11,-48.8 244.11,-84.8"/>
<text text-anchor="middle" x="182" y="-62.6" font-family="Times,serif" font-size="14.00">PromotionsModule</text>
</g>
<!-- PromotionsModule&#45;&gt;CartSharedModule -->
<g id="edge13" class="edge">
<title>PromotionsModule&#45;&gt;CartSharedModule</title>
<path fill="none" stroke="black" d="M182,-84.83C182,-105.57 182,-136.8 182,-136.8 182,-136.8 771.7,-136.8 771.7,-136.8"/>
<polygon fill="black" stroke="black" points="771.7,-140.3 781.7,-136.8 771.7,-133.3 771.7,-140.3"/>
</g>
<!-- UrlModule -->
<g id="node15" class="node">
<title>UrlModule</title>
<polygon fill="#8dd3c7" stroke="black" points="102.21,-84.8 99.21,-88.8 78.21,-88.8 75.21,-84.8 23.79,-84.8 23.79,-48.8 102.21,-48.8 102.21,-84.8"/>
<text text-anchor="middle" x="63" y="-62.6" font-family="Times,serif" font-size="14.00">UrlModule</text>
</g>
<!-- UrlModule&#45;&gt;CartSharedModule -->
<g id="edge14" class="edge">
<title>UrlModule&#45;&gt;CartSharedModule</title>
<path fill="none" stroke="black" d="M63,-85.09C63,-107.01 63,-140.8 63,-140.8 63,-140.8 771.79,-140.8 771.79,-140.8"/>
<polygon fill="black" stroke="black" points="771.79,-144.3 781.79,-140.8 771.79,-137.3 771.79,-144.3"/>
</g>
</g>
</svg>
