<?xml version="1.0" encoding="UTF-8" standalone="no"?>
<!DOCTYPE svg PUBLIC "-//W3C//DTD SVG 1.1//EN"
 "http://www.w3.org/Graphics/SVG/1.1/DTD/svg11.dtd">
<!-- Generated by graphviz version 2.40.1 (20161225.0304)
 -->
<!-- Title: dependencies Pages: 1 -->
<svg width="1579pt" height="284pt"
 viewBox="0.00 0.00 1579.00 284.00" xmlns="http://www.w3.org/2000/svg" xmlns:xlink="http://www.w3.org/1999/xlink">
<g id="graph0" class="graph" transform="scale(1 1) rotate(0) translate(4 280)">
<title>dependencies</title>
<polygon fill="#ffffff" stroke="transparent" points="-4,4 -4,-280 1575,-280 1575,4 -4,4"/>
<text text-anchor="start" x="764.5091" y="-42.4" font-family="sans-serif" font-weight="bold" font-size="14.00" fill="#000000">Legend</text>
<polygon fill="#ffffb3" stroke="transparent" points="551.5,-10 551.5,-30 571.5,-30 571.5,-10 551.5,-10"/>
<text text-anchor="start" x="575.129" y="-15.4" font-family="sans-serif" font-size="14.00" fill="#000000"> &#160;Declarations</text>
<polygon fill="#8dd3c7" stroke="transparent" points="664.5,-10 664.5,-30 684.5,-30 684.5,-10 664.5,-10"/>
<text text-anchor="start" x="688.2251" y="-15.4" font-family="sans-serif" font-size="14.00" fill="#000000"> &#160;Module</text>
<polygon fill="#80b1d3" stroke="transparent" points="750.5,-10 750.5,-30 770.5,-30 770.5,-10 750.5,-10"/>
<text text-anchor="start" x="774.2812" y="-15.4" font-family="sans-serif" font-size="14.00" fill="#000000"> &#160;Bootstrap</text>
<polygon fill="#fdb462" stroke="transparent" points="847.5,-10 847.5,-30 867.5,-30 867.5,-10 847.5,-10"/>
<text text-anchor="start" x="871.1732" y="-15.4" font-family="sans-serif" font-size="14.00" fill="#000000"> &#160;Providers</text>
<polygon fill="#fb8072" stroke="transparent" points="943.5,-10 943.5,-30 963.5,-30 963.5,-10 943.5,-10"/>
<text text-anchor="start" x="967.2258" y="-15.4" font-family="sans-serif" font-size="14.00" fill="#000000"> &#160;Exports</text>
<g id="clust1" class="cluster">
<title>cluster_CartSharedModule</title>
<polygon fill="none" stroke="#000000" stroke-dasharray="1,5" points="8,-70 8,-268 1563,-268 1563,-70 8,-70"/>
</g>
<g id="clust2" class="cluster">
<title>cluster_CartSharedModule_declarations</title>
<polygon fill="none" stroke="#000000" points="1050,-78 1050,-130 1555,-130 1555,-78 1050,-78"/>
</g>
<g id="clust6" class="cluster">
<title>cluster_CartSharedModule_imports</title>
<polygon fill="none" stroke="#000000" points="16,-78 16,-130 1042,-130 1042,-78 16,-78"/>
</g>
<g id="clust7" class="cluster">
<title>cluster_CartSharedModule_exports</title>
<polygon fill="none" stroke="#000000" points="405,-208 405,-260 919,-260 919,-208 405,-208"/>
</g>
<!-- CartItemComponent -->
<g id="node1" class="node">
<title>CartItemComponent</title>
<polygon fill="#ffffb3" stroke="#000000" points="1546.5912,-122 1415.4088,-122 1415.4088,-86 1546.5912,-86 1546.5912,-122"/>
<text text-anchor="middle" x="1481" y="-99.8" font-family="Times,serif" font-size="14.00" fill="#000000">CartItemComponent</text>
</g>
<!-- CartSharedModule -->
<g id="node4" class="node">
<title>CartSharedModule</title>
<polygon fill="#8dd3c7" stroke="#000000" points="742.0255,-187 739.0255,-191 718.0255,-191 715.0255,-187 619.9745,-187 619.9745,-151 742.0255,-151 742.0255,-187"/>
<text text-anchor="middle" x="681" y="-164.8" font-family="Times,serif" font-size="14.00" fill="#000000">CartSharedModule</text>
</g>
<!-- CartItemComponent&#45;&gt;CartSharedModule -->
<g id="edge1" class="edge">
<title>CartItemComponent&#45;&gt;CartSharedModule</title>
<path fill="none" stroke="#000000" d="M1481,-122.0449C1481,-143.6623 1481,-177 1481,-177 1481,-177 752.1161,-177 752.1161,-177"/>
<polygon fill="#000000" stroke="#000000" points="752.1161,-173.5001 742.1161,-177 752.1161,-180.5001 752.1161,-173.5001"/>
</g>
<!-- CartItemListComponent -->
<g id="node2" class="node">
<title>CartItemListComponent</title>
<polygon fill="#ffffb3" stroke="#000000" points="1397.3697,-122 1244.6303,-122 1244.6303,-86 1397.3697,-86 1397.3697,-122"/>
<text text-anchor="middle" x="1321" y="-99.8" font-family="Times,serif" font-size="14.00" fill="#000000">CartItemListComponent</text>
</g>
<!-- CartItemListComponent&#45;&gt;CartSharedModule -->
<g id="edge2" class="edge">
<title>CartItemListComponent&#45;&gt;CartSharedModule</title>
<path fill="none" stroke="#000000" d="M1321,-122.2228C1321,-142.3652 1321,-172 1321,-172 1321,-172 752.076,-172 752.076,-172"/>
<polygon fill="#000000" stroke="#000000" points="752.076,-168.5001 742.076,-172 752.0759,-175.5001 752.076,-168.5001"/>
</g>
<!-- OrderSummaryComponent -->
<g id="node3" class="node">
<title>OrderSummaryComponent</title>
<polygon fill="#ffffb3" stroke="#000000" points="1226.4143,-122 1057.5857,-122 1057.5857,-86 1226.4143,-86 1226.4143,-122"/>
<text text-anchor="middle" x="1142" y="-99.8" font-family="Times,serif" font-size="14.00" fill="#000000">OrderSummaryComponent</text>
</g>
<!-- OrderSummaryComponent&#45;&gt;CartSharedModule -->
<g id="edge3" class="edge">
<title>OrderSummaryComponent&#45;&gt;CartSharedModule</title>
<path fill="none" stroke="#000000" d="M1142,-122.2222C1142,-140.8285 1142,-167 1142,-167 1142,-167 752.2172,-167 752.2172,-167"/>
<polygon fill="#000000" stroke="#000000" points="752.2173,-163.5001 742.2172,-167 752.2172,-170.5001 752.2173,-163.5001"/>
</g>
<!-- CartItemComponent  -->
<g id="node13" class="node">
<title>CartItemComponent </title>
<polygon fill="#fb8072" stroke="#000000" points="911.0918,-252 776.9082,-252 776.9082,-216 911.0918,-216 911.0918,-252"/>
<text text-anchor="middle" x="844" y="-229.8" font-family="Times,serif" font-size="14.00" fill="#000000">CartItemComponent </text>
</g>
<!-- CartSharedModule&#45;&gt;CartItemComponent  -->
<g id="edge12" class="edge">
<title>CartSharedModule&#45;&gt;CartItemComponent </title>
<path fill="none" stroke="#000000" stroke-dasharray="5,2" d="M742.1103,-182C784.1064,-182 832.3172,-182 832.3172,-182 832.3172,-182 832.3172,-205.8129 832.3172,-205.8129"/>
<polygon fill="#000000" stroke="#000000" points="828.8172,-205.8129 832.3172,-215.8129 835.8172,-205.813 828.8172,-205.8129"/>
</g>
<!-- CartItemListComponent  -->
<g id="node14" class="node">
<title>CartItemListComponent </title>
<polygon fill="#fb8072" stroke="#000000" points="759.37,-252 602.63,-252 602.63,-216 759.37,-216 759.37,-252"/>
<text text-anchor="middle" x="681" y="-229.8" font-family="Times,serif" font-size="14.00" fill="#000000">CartItemListComponent </text>
</g>
<!-- CartSharedModule&#45;&gt;CartItemListComponent  -->
<g id="edge13" class="edge">
<title>CartSharedModule&#45;&gt;CartItemListComponent </title>
<path fill="none" stroke="#000000" stroke-dasharray="5,2" d="M681,-187.1061C681,-187.1061 681,-205.991 681,-205.991"/>
<polygon fill="#000000" stroke="#000000" points="677.5001,-205.9909 681,-215.991 684.5001,-205.991 677.5001,-205.9909"/>
</g>
<!-- OrderSummaryComponent  -->
<g id="node15" class="node">
<title>OrderSummaryComponent </title>
<polygon fill="#fb8072" stroke="#000000" points="584.9138,-252 413.0862,-252 413.0862,-216 584.9138,-216 584.9138,-252"/>
<text text-anchor="middle" x="499" y="-229.8" font-family="Times,serif" font-size="14.00" fill="#000000">OrderSummaryComponent </text>
</g>
<!-- CartSharedModule&#45;&gt;OrderSummaryComponent  -->
<g id="edge14" class="edge">
<title>CartSharedModule&#45;&gt;OrderSummaryComponent </title>
<path fill="none" stroke="#000000" stroke-dasharray="5,2" d="M619.6847,-177C580.655,-177 537.4013,-177 537.4013,-177 537.4013,-177 537.4013,-205.9648 537.4013,-205.9648"/>
<polygon fill="#000000" stroke="#000000" points="533.9014,-205.9648 537.4013,-215.9648 540.9014,-205.9649 533.9014,-205.9648"/>
</g>
<!-- CartCouponModule -->
<g id="node5" class="node">
<title>CartCouponModule</title>
<polygon fill="#8dd3c7" stroke="#000000" points="1033.9888,-122 1030.9888,-126 1009.9888,-126 1006.9888,-122 906.0112,-122 906.0112,-86 1033.9888,-86 1033.9888,-122"/>
<text text-anchor="middle" x="970" y="-99.8" font-family="Times,serif" font-size="14.00" fill="#000000">CartCouponModule</text>
</g>
<!-- CartCouponModule&#45;&gt;CartSharedModule -->
<g id="edge4" class="edge">
<title>CartCouponModule&#45;&gt;CartSharedModule</title>
<path fill="none" stroke="#000000" d="M972.645,-122.0336C972.645,-139.0597 972.645,-162 972.645,-162 972.645,-162 752.1383,-162 752.1383,-162"/>
<polygon fill="#000000" stroke="#000000" points="752.1384,-158.5001 742.1383,-162 752.1383,-165.5001 752.1384,-158.5001"/>
</g>
<!-- FeaturesConfigModule -->
<g id="node6" class="node">
<title>FeaturesConfigModule</title>
<polygon fill="#8dd3c7" stroke="#000000" points="887.8599,-122 884.8599,-126 863.8599,-126 860.8599,-122 742.1401,-122 742.1401,-86 887.8599,-86 887.8599,-122"/>
<text text-anchor="middle" x="815" y="-99.8" font-family="Times,serif" font-size="14.00" fill="#000000">FeaturesConfigModule</text>
</g>
<!-- FeaturesConfigModule&#45;&gt;CartSharedModule -->
<g id="edge5" class="edge">
<title>FeaturesConfigModule&#45;&gt;CartSharedModule</title>
<path fill="none" stroke="#000000" d="M750.7235,-122.2396C750.7235,-137.5706 750.7235,-157 750.7235,-157 750.7235,-157 749.8686,-157 749.8686,-157"/>
<polygon fill="#000000" stroke="#000000" points="752.1741,-153.5001 742.1741,-157 752.174,-160.5001 752.1741,-153.5001"/>
</g>
<!-- I18nModule -->
<g id="node7" class="node">
<title>I18nModule</title>
<polygon fill="#8dd3c7" stroke="#000000" points="723.7107,-122 720.7107,-126 699.7107,-126 696.7107,-122 638.2893,-122 638.2893,-86 723.7107,-86 723.7107,-122"/>
<text text-anchor="middle" x="681" y="-99.8" font-family="Times,serif" font-size="14.00" fill="#000000">I18nModule</text>
</g>
<!-- I18nModule&#45;&gt;CartSharedModule -->
<g id="edge6" class="edge">
<title>I18nModule&#45;&gt;CartSharedModule</title>
<path fill="none" stroke="#000000" d="M681,-122.1061C681,-122.1061 681,-140.991 681,-140.991"/>
<polygon fill="#000000" stroke="#000000" points="677.5001,-140.9909 681,-150.991 684.5001,-140.991 677.5001,-140.9909"/>
</g>
<!-- ItemCounterModule -->
<g id="node8" class="node">
<title>ItemCounterModule</title>
<polygon fill="#8dd3c7" stroke="#000000" points="620.309,-122 617.309,-126 596.309,-126 593.309,-122 489.691,-122 489.691,-86 620.309,-86 620.309,-122"/>
<text text-anchor="middle" x="555" y="-99.8" font-family="Times,serif" font-size="14.00" fill="#000000">ItemCounterModule</text>
</g>
<!-- ItemCounterModule&#45;&gt;CartSharedModule -->
<g id="edge7" class="edge">
<title>ItemCounterModule&#45;&gt;CartSharedModule</title>
<path fill="none" stroke="#000000" d="M611.2765,-122.0908C611.2765,-145.1328 611.2765,-182 611.2765,-182 611.2765,-182 612.1314,-182 612.1314,-182"/>
<polygon fill="#000000" stroke="#000000" points="609.826,-185.5001 619.8259,-182 609.8259,-178.5001 609.826,-185.5001"/>
</g>
<!-- MediaModule -->
<g id="node9" class="node">
<title>MediaModule</title>
<polygon fill="#8dd3c7" stroke="#000000" points="471.8147,-122 468.8147,-126 447.8147,-126 444.8147,-122 376.1853,-122 376.1853,-86 471.8147,-86 471.8147,-122"/>
<text text-anchor="middle" x="424" y="-99.8" font-family="Times,serif" font-size="14.00" fill="#000000">MediaModule</text>
</g>
<!-- MediaModule&#45;&gt;CartSharedModule -->
<g id="edge8" class="edge">
<title>MediaModule&#45;&gt;CartSharedModule</title>
<path fill="none" stroke="#000000" d="M442.3501,-122.2396C442.3501,-137.5706 442.3501,-157 442.3501,-157 442.3501,-157 609.8516,-157 609.8516,-157"/>
<polygon fill="#000000" stroke="#000000" points="609.8517,-160.5001 619.8516,-157 609.8516,-153.5001 609.8517,-160.5001"/>
</g>
<!-- ModalModule -->
<g id="node10" class="node">
<title>ModalModule</title>
<polygon fill="#8dd3c7" stroke="#000000" points="358.0997,-122 355.0997,-126 334.0997,-126 331.0997,-122 261.9003,-122 261.9003,-86 358.0997,-86 358.0997,-122"/>
<text text-anchor="middle" x="310" y="-99.8" font-family="Times,serif" font-size="14.00" fill="#000000">ModalModule</text>
</g>
<!-- ModalModule&#45;&gt;CartSharedModule -->
<g id="edge9" class="edge">
<title>ModalModule&#45;&gt;CartSharedModule</title>
<path fill="none" stroke="#000000" d="M310,-122.0336C310,-139.0597 310,-162 310,-162 310,-162 609.7369,-162 609.7369,-162"/>
<polygon fill="#000000" stroke="#000000" points="609.7369,-165.5001 619.7369,-162 609.7369,-158.5001 609.7369,-165.5001"/>
</g>
<!-- PromotionsModule -->
<g id="node11" class="node">
<title>PromotionsModule</title>
<polygon fill="#8dd3c7" stroke="#000000" points="244.1094,-122 241.1094,-126 220.1094,-126 217.1094,-122 119.8906,-122 119.8906,-86 244.1094,-86 244.1094,-122"/>
<text text-anchor="middle" x="182" y="-99.8" font-family="Times,serif" font-size="14.00" fill="#000000">PromotionsModule</text>
</g>
<!-- PromotionsModule&#45;&gt;CartSharedModule -->
<g id="edge10" class="edge">
<title>PromotionsModule&#45;&gt;CartSharedModule</title>
<path fill="none" stroke="#000000" d="M182,-122.2222C182,-140.8285 182,-167 182,-167 182,-167 609.8128,-167 609.8128,-167"/>
<polygon fill="#000000" stroke="#000000" points="609.8128,-170.5001 619.8128,-167 609.8128,-163.5001 609.8128,-170.5001"/>
</g>
<!-- UrlModule -->
<g id="node12" class="node">
<title>UrlModule</title>
<polygon fill="#8dd3c7" stroke="#000000" points="102.2079,-122 99.2079,-126 78.2079,-126 75.2079,-122 23.7921,-122 23.7921,-86 102.2079,-86 102.2079,-122"/>
<text text-anchor="middle" x="63" y="-99.8" font-family="Times,serif" font-size="14.00" fill="#000000">UrlModule</text>
</g>
<!-- UrlModule&#45;&gt;CartSharedModule -->
<g id="edge11" class="edge">
<title>UrlModule&#45;&gt;CartSharedModule</title>
<path fill="none" stroke="#000000" d="M63,-122.2228C63,-142.3652 63,-172 63,-172 63,-172 609.7687,-172 609.7687,-172"/>
<polygon fill="#000000" stroke="#000000" points="609.7688,-175.5001 619.7687,-172 609.7687,-168.5001 609.7688,-175.5001"/>
</g>
</g>
</svg>
