<?xml version="1.0" encoding="UTF-8" standalone="no"?>
<!DOCTYPE svg PUBLIC "-//W3C//DTD SVG 1.1//EN"
 "http://www.w3.org/Graphics/SVG/1.1/DTD/svg11.dtd">
<!-- Generated by graphviz version 2.47.3 (20210619.1520)
 -->
<!-- Title: dependencies Pages: 1 -->
<svg width="1793pt" height="247pt"
 viewBox="0.00 0.00 1793.00 246.80" xmlns="http://www.w3.org/2000/svg" xmlns:xlink="http://www.w3.org/1999/xlink">
<g id="graph0" class="graph" transform="scale(1 1) rotate(0) translate(4 242.8)">
<title>dependencies</title>
<polygon fill="white" stroke="transparent" points="-4,4 -4,-242.8 1789,-242.8 1789,4 -4,4"/>
<text text-anchor="middle" x="892.5" y="-8.2" font-family="sans-serif" font-size="14.00">dependencies</text>
<g id="clust1" class="cluster">
<title>cluster_CartSharedModule</title>
<polygon fill="none" stroke="black" stroke-dasharray="1,5" points="8,-32.8 8,-230.8 1777,-230.8 1777,-32.8 8,-32.8"/>
</g>
<g id="clust2" class="cluster">
<title>cluster_CartSharedModule_declarations</title>
<polygon fill="none" stroke="black" points="1264,-40.8 1264,-92.8 1769,-92.8 1769,-40.8 1264,-40.8"/>
</g>
<g id="clust7" class="cluster">
<title>cluster_CartSharedModule_exports</title>
<polygon fill="none" stroke="black" points="516,-170.8 516,-222.8 1030,-222.8 1030,-170.8 516,-170.8"/>
</g>
<g id="clust6" class="cluster">
<title>cluster_CartSharedModule_imports</title>
<polygon fill="none" stroke="black" points="16,-40.8 16,-92.8 1256,-92.8 1256,-40.8 16,-40.8"/>
</g>
<!-- CartItemComponent -->
<g id="node1" class="node">
<title>CartItemComponent</title>
<polygon fill="#ffffb3" stroke="black" points="1760.59,-84.8 1629.41,-84.8 1629.41,-48.8 1760.59,-48.8 1760.59,-84.8"/>
<text text-anchor="middle" x="1695" y="-62.6" font-family="Times,serif" font-size="14.00">CartItemComponent</text>
</g>
<!-- CartSharedModule -->
<g id="node4" class="node">
<title>CartSharedModule</title>
<polygon fill="#8dd3c7" stroke="black" points="853.03,-149.8 850.03,-153.8 829.03,-153.8 826.03,-149.8 730.97,-149.8 730.97,-113.8 853.03,-113.8 853.03,-149.8"/>
<text text-anchor="middle" x="792" y="-127.6" font-family="Times,serif" font-size="14.00">CartSharedModule</text>
</g>
<!-- CartItemComponent&#45;&gt;CartSharedModule -->
<g id="edge1" class="edge">
<title>CartItemComponent&#45;&gt;CartSharedModule</title>
<path fill="none" stroke="black" d="M1695,-85.09C1695,-107.01 1695,-140.8 1695,-140.8 1695,-140.8 863.36,-140.8 863.36,-140.8"/>
<polygon fill="black" stroke="black" points="863.36,-137.3 853.36,-140.8 863.36,-144.3 863.36,-137.3"/>
</g>
<!-- CartItemListComponent -->
<g id="node2" class="node">
<title>CartItemListComponent</title>
<polygon fill="#ffffb3" stroke="black" points="1611.37,-84.8 1458.63,-84.8 1458.63,-48.8 1611.37,-48.8 1611.37,-84.8"/>
<text text-anchor="middle" x="1535" y="-62.6" font-family="Times,serif" font-size="14.00">CartItemListComponent</text>
</g>
<!-- CartItemListComponent&#45;&gt;CartSharedModule -->
<g id="edge2" class="edge">
<title>CartItemListComponent&#45;&gt;CartSharedModule</title>
<path fill="none" stroke="black" d="M1535,-84.83C1535,-105.57 1535,-136.8 1535,-136.8 1535,-136.8 863.12,-136.8 863.12,-136.8"/>
<polygon fill="black" stroke="black" points="863.12,-133.3 853.12,-136.8 863.12,-140.3 863.12,-133.3"/>
</g>
<!-- OrderSummaryComponent -->
<g id="node3" class="node">
<title>OrderSummaryComponent</title>
<polygon fill="#ffffb3" stroke="black" points="1440.41,-84.8 1271.59,-84.8 1271.59,-48.8 1440.41,-48.8 1440.41,-84.8"/>
<text text-anchor="middle" x="1356" y="-62.6" font-family="Times,serif" font-size="14.00">OrderSummaryComponent</text>
</g>
<!-- OrderSummaryComponent&#45;&gt;CartSharedModule -->
<g id="edge3" class="edge">
<title>OrderSummaryComponent&#45;&gt;CartSharedModule</title>
<path fill="none" stroke="black" d="M1356,-84.91C1356,-104.14 1356,-131.8 1356,-131.8 1356,-131.8 863.16,-131.8 863.16,-131.8"/>
<polygon fill="black" stroke="black" points="863.16,-128.3 853.16,-131.8 863.16,-135.3 863.16,-128.3"/>
</g>
<!-- CartItemComponent  -->
<g id="node15" class="node">
<title>CartItemComponent </title>
<polygon fill="#fb8072" stroke="black" points="1022.09,-214.8 887.91,-214.8 887.91,-178.8 1022.09,-178.8 1022.09,-214.8"/>
<text text-anchor="middle" x="955" y="-192.6" font-family="Times,serif" font-size="14.00">CartItemComponent </text>
</g>
<!-- CartSharedModule&#45;&gt;CartItemComponent  -->
<g id="edge14" class="edge">
<title>CartSharedModule&#45;&gt;CartItemComponent </title>
<path fill="none" stroke="black" stroke-dasharray="5,2" d="M853.03,-145.8C882.96,-145.8 912.65,-145.8 912.65,-145.8 912.65,-145.8 912.65,-168.68 912.65,-168.68"/>
<polygon fill="black" stroke="black" points="909.15,-168.68 912.65,-178.68 916.15,-168.68 909.15,-168.68"/>
</g>
<!-- CartItemListComponent  -->
<g id="node16" class="node">
<title>CartItemListComponent </title>
<polygon fill="#fb8072" stroke="black" points="870.37,-214.8 713.63,-214.8 713.63,-178.8 870.37,-178.8 870.37,-214.8"/>
<text text-anchor="middle" x="792" y="-192.6" font-family="Times,serif" font-size="14.00">CartItemListComponent </text>
</g>
<!-- CartSharedModule&#45;&gt;CartItemListComponent  -->
<g id="edge15" class="edge">
<title>CartSharedModule&#45;&gt;CartItemListComponent </title>
<path fill="none" stroke="black" stroke-dasharray="5,2" d="M792,-149.91C792,-149.91 792,-168.79 792,-168.79"/>
<polygon fill="black" stroke="black" points="788.5,-168.79 792,-178.79 795.5,-168.79 788.5,-168.79"/>
</g>
<!-- OrderSummaryComponent  -->
<g id="node17" class="node">
<title>OrderSummaryComponent </title>
<polygon fill="#fb8072" stroke="black" points="695.91,-214.8 524.09,-214.8 524.09,-178.8 695.91,-178.8 695.91,-214.8"/>
<text text-anchor="middle" x="610" y="-192.6" font-family="Times,serif" font-size="14.00">OrderSummaryComponent </text>
</g>
<!-- CartSharedModule&#45;&gt;OrderSummaryComponent  -->
<g id="edge16" class="edge">
<title>CartSharedModule&#45;&gt;OrderSummaryComponent </title>
<path fill="none" stroke="black" stroke-dasharray="5,2" d="M730.9,-144.8C692,-144.8 648.9,-144.8 648.9,-144.8 648.9,-144.8 648.9,-168.61 648.9,-168.61"/>
<polygon fill="black" stroke="black" points="645.4,-168.61 648.9,-178.61 652.4,-168.61 645.4,-168.61"/>
</g>
<!-- CartCouponModule -->
<g id="node5" class="node">
<title>CartCouponModule</title>
<polygon fill="#8dd3c7" stroke="black" points="1247.99,-84.8 1244.99,-88.8 1223.99,-88.8 1220.99,-84.8 1120.01,-84.8 1120.01,-48.8 1247.99,-48.8 1247.99,-84.8"/>
<text text-anchor="middle" x="1184" y="-62.6" font-family="Times,serif" font-size="14.00">CartCouponModule</text>
</g>
<!-- CartCouponModule&#45;&gt;CartSharedModule -->
<g id="edge4" class="edge">
<title>CartCouponModule&#45;&gt;CartSharedModule</title>
<path fill="none" stroke="black" d="M1184,-85.1C1184,-103.07 1184,-127.8 1184,-127.8 1184,-127.8 863.25,-127.8 863.25,-127.8"/>
<polygon fill="black" stroke="black" points="863.25,-124.3 853.25,-127.8 863.25,-131.3 863.25,-124.3"/>
</g>
<!-- FeaturesConfigModule -->
<g id="node6" class="node">
<title>FeaturesConfigModule</title>
<polygon fill="#8dd3c7" stroke="black" points="1101.86,-84.8 1098.86,-88.8 1077.86,-88.8 1074.86,-84.8 956.14,-84.8 956.14,-48.8 1101.86,-48.8 1101.86,-84.8"/>
<text text-anchor="middle" x="1029" y="-62.6" font-family="Times,serif" font-size="14.00">FeaturesConfigModule</text>
</g>
<!-- FeaturesConfigModule&#45;&gt;CartSharedModule -->
<g id="edge5" class="edge">
<title>FeaturesConfigModule&#45;&gt;CartSharedModule</title>
<path fill="none" stroke="black" d="M989.18,-84.83C989.18,-101.2 989.18,-122.8 989.18,-122.8 989.18,-122.8 863.04,-122.8 863.04,-122.8"/>
<polygon fill="black" stroke="black" points="863.04,-119.3 853.04,-122.8 863.04,-126.3 863.04,-119.3"/>
</g>
<!-- I18nModule -->
<g id="node7" class="node">
<title>I18nModule</title>
<polygon fill="#8dd3c7" stroke="black" points="937.71,-84.8 934.71,-88.8 913.71,-88.8 910.71,-84.8 852.29,-84.8 852.29,-48.8 937.71,-48.8 937.71,-84.8"/>
<text text-anchor="middle" x="895" y="-62.6" font-family="Times,serif" font-size="14.00">I18nModule</text>
</g>
<!-- I18nModule&#45;&gt;CartSharedModule -->
<g id="edge6" class="edge">
<title>I18nModule&#45;&gt;CartSharedModule</title>
<path fill="none" stroke="black" d="M861.72,-84.99C861.72,-99.98 861.72,-118.8 861.72,-118.8 861.72,-118.8 860.87,-118.8 860.87,-118.8"/>
<polygon fill="black" stroke="black" points="863.17,-115.3 853.17,-118.8 863.17,-122.3 863.17,-115.3"/>
</g>
<!-- IconModule -->
<g id="node8" class="node">
<title>IconModule</title>
<polygon fill="#8dd3c7" stroke="black" points="834.43,-84.8 831.43,-88.8 810.43,-88.8 807.43,-84.8 749.57,-84.8 749.57,-48.8 834.43,-48.8 834.43,-84.8"/>
<text text-anchor="middle" x="792" y="-62.6" font-family="Times,serif" font-size="14.00">IconModule</text>
</g>
<!-- IconModule&#45;&gt;CartSharedModule -->
<g id="edge7" class="edge">
<title>IconModule&#45;&gt;CartSharedModule</title>
<path fill="none" stroke="black" d="M792,-84.91C792,-84.91 792,-103.79 792,-103.79"/>
<polygon fill="black" stroke="black" points="788.5,-103.79 792,-113.79 795.5,-103.79 788.5,-103.79"/>
</g>
<!-- ItemCounterModule -->
<g id="node9" class="node">
<title>ItemCounterModule</title>
<polygon fill="#8dd3c7" stroke="black" points="732.31,-84.8 729.31,-88.8 708.31,-88.8 705.31,-84.8 601.69,-84.8 601.69,-48.8 732.31,-48.8 732.31,-84.8"/>
<text text-anchor="middle" x="667" y="-62.6" font-family="Times,serif" font-size="14.00">ItemCounterModule</text>
</g>
<!-- ItemCounterModule&#45;&gt;CartSharedModule -->
<g id="edge8" class="edge">
<title>ItemCounterModule&#45;&gt;CartSharedModule</title>
<path fill="none" stroke="black" d="M732.19,-66.8C737.56,-66.8 740.97,-66.8 740.97,-66.8 740.97,-66.8 740.97,-103.69 740.97,-103.69"/>
<polygon fill="black" stroke="black" points="737.47,-103.69 740.97,-113.69 744.47,-103.69 737.47,-103.69"/>
</g>
<!-- MediaModule -->
<g id="node10" class="node">
<title>MediaModule</title>
<polygon fill="#8dd3c7" stroke="black" points="583.81,-84.8 580.81,-88.8 559.81,-88.8 556.81,-84.8 488.19,-84.8 488.19,-48.8 583.81,-48.8 583.81,-84.8"/>
<text text-anchor="middle" x="536" y="-62.6" font-family="Times,serif" font-size="14.00">MediaModule</text>
</g>
<!-- MediaModule&#45;&gt;CartSharedModule -->
<g id="edge9" class="edge">
<title>MediaModule&#45;&gt;CartSharedModule</title>
<path fill="none" stroke="black" d="M553.85,-85.04C553.85,-100.37 553.85,-119.8 553.85,-119.8 553.85,-119.8 720.67,-119.8 720.67,-119.8"/>
<polygon fill="black" stroke="black" points="720.67,-123.3 730.67,-119.8 720.67,-116.3 720.67,-123.3"/>
</g>
<!-- ModalModule -->
<g id="node11" class="node">
<title>ModalModule</title>
<polygon fill="#8dd3c7" stroke="black" points="470.1,-84.8 467.1,-88.8 446.1,-88.8 443.1,-84.8 373.9,-84.8 373.9,-48.8 470.1,-48.8 470.1,-84.8"/>
<text text-anchor="middle" x="422" y="-62.6" font-family="Times,serif" font-size="14.00">ModalModule</text>
</g>
<!-- ModalModule&#45;&gt;CartSharedModule -->
<g id="edge10" class="edge">
<title>ModalModule&#45;&gt;CartSharedModule</title>
<path fill="none" stroke="black" d="M422,-84.83C422,-101.86 422,-124.8 422,-124.8 422,-124.8 720.9,-124.8 720.9,-124.8"/>
<polygon fill="black" stroke="black" points="720.9,-128.3 730.9,-124.8 720.9,-121.3 720.9,-128.3"/>
</g>
<!-- OutletModule -->
<g id="node12" class="node">
<title>OutletModule</title>
<polygon fill="#8dd3c7" stroke="black" points="356.04,-84.8 353.04,-88.8 332.04,-88.8 329.04,-84.8 261.96,-84.8 261.96,-48.8 356.04,-48.8 356.04,-84.8"/>
<text text-anchor="middle" x="309" y="-62.6" font-family="Times,serif" font-size="14.00">OutletModule</text>
</g>
<!-- OutletModule&#45;&gt;CartSharedModule -->
<g id="edge11" class="edge">
<title>OutletModule&#45;&gt;CartSharedModule</title>
<path fill="none" stroke="black" d="M309,-85.02C309,-103.63 309,-129.8 309,-129.8 309,-129.8 720.83,-129.8 720.83,-129.8"/>
<polygon fill="black" stroke="black" points="720.83,-133.3 730.83,-129.8 720.83,-126.3 720.83,-133.3"/>
</g>
<!-- PromotionsModule -->
<g id="node13" class="node">
<title>PromotionsModule</title>
<polygon fill="#8dd3c7" stroke="black" points="244.11,-84.8 241.11,-88.8 220.11,-88.8 217.11,-84.8 119.89,-84.8 119.89,-48.8 244.11,-48.8 244.11,-84.8"/>
<text text-anchor="middle" x="182" y="-62.6" font-family="Times,serif" font-size="14.00">PromotionsModule</text>
</g>
<!-- PromotionsModule&#45;&gt;CartSharedModule -->
<g id="edge12" class="edge">
<title>PromotionsModule&#45;&gt;CartSharedModule</title>
<path fill="none" stroke="black" d="M182,-85.02C182,-105.17 182,-134.8 182,-134.8 182,-134.8 720.72,-134.8 720.72,-134.8"/>
<polygon fill="black" stroke="black" points="720.72,-138.3 730.72,-134.8 720.72,-131.3 720.72,-138.3"/>
</g>
<!-- UrlModule -->
<g id="node14" class="node">
<title>UrlModule</title>
<polygon fill="#8dd3c7" stroke="black" points="102.21,-84.8 99.21,-88.8 78.21,-88.8 75.21,-84.8 23.79,-84.8 23.79,-48.8 102.21,-48.8 102.21,-84.8"/>
<text text-anchor="middle" x="63" y="-62.6" font-family="Times,serif" font-size="14.00">UrlModule</text>
</g>
<!-- UrlModule&#45;&gt;CartSharedModule -->
<g id="edge13" class="edge">
<title>UrlModule&#45;&gt;CartSharedModule</title>
<path fill="none" stroke="black" d="M63,-84.84C63,-106.46 63,-139.8 63,-139.8 63,-139.8 720.79,-139.8 720.79,-139.8"/>
<polygon fill="black" stroke="black" points="720.79,-143.3 730.79,-139.8 720.79,-136.3 720.79,-143.3"/>
</g>
</g>
</svg>
