<?xml version="1.0" encoding="UTF-8" standalone="no"?>
<!DOCTYPE svg PUBLIC "-//W3C//DTD SVG 1.1//EN"
 "http://www.w3.org/Graphics/SVG/1.1/DTD/svg11.dtd">
<!-- Generated by graphviz version 2.40.1 (20161225.0304)
 -->
<!-- Title: dependencies Pages: 1 -->
<svg width="806pt" height="284pt"
 viewBox="0.00 0.00 806.00 284.00" xmlns="http://www.w3.org/2000/svg" xmlns:xlink="http://www.w3.org/1999/xlink">
<g id="graph0" class="graph" transform="scale(1 1) rotate(0) translate(4 280)">
<title>dependencies</title>
<polygon fill="#ffffff" stroke="transparent" points="-4,4 -4,-280 802,-280 802,4 -4,4"/>
<text text-anchor="start" x="378.0091" y="-42.4" font-family="sans-serif" font-weight="bold" font-size="14.00" fill="#000000">Legend</text>
<polygon fill="#ffffb3" stroke="transparent" points="165,-10 165,-30 185,-30 185,-10 165,-10"/>
<text text-anchor="start" x="188.629" y="-15.4" font-family="sans-serif" font-size="14.00" fill="#000000"> &#160;Declarations</text>
<polygon fill="#8dd3c7" stroke="transparent" points="278,-10 278,-30 298,-30 298,-10 278,-10"/>
<text text-anchor="start" x="301.7251" y="-15.4" font-family="sans-serif" font-size="14.00" fill="#000000"> &#160;Module</text>
<polygon fill="#80b1d3" stroke="transparent" points="364,-10 364,-30 384,-30 384,-10 364,-10"/>
<text text-anchor="start" x="387.7812" y="-15.4" font-family="sans-serif" font-size="14.00" fill="#000000"> &#160;Bootstrap</text>
<polygon fill="#fdb462" stroke="transparent" points="461,-10 461,-30 481,-30 481,-10 461,-10"/>
<text text-anchor="start" x="484.6732" y="-15.4" font-family="sans-serif" font-size="14.00" fill="#000000"> &#160;Providers</text>
<polygon fill="#fb8072" stroke="transparent" points="557,-10 557,-30 577,-30 577,-10 557,-10"/>
<text text-anchor="start" x="580.7258" y="-15.4" font-family="sans-serif" font-size="14.00" fill="#000000"> &#160;Exports</text>
<g id="clust1" class="cluster">
<title>cluster_CartDetailsModule</title>
<polygon fill="none" stroke="#000000" stroke-dasharray="1,5" points="8,-70 8,-268 790,-268 790,-70 8,-70"/>
</g>
<g id="clust2" class="cluster">
<title>cluster_CartDetailsModule_declarations</title>
<polygon fill="none" stroke="#000000" points="620,-78 620,-130 782,-130 782,-78 620,-78"/>
</g>
<g id="clust4" class="cluster">
<title>cluster_CartDetailsModule_imports</title>
<polygon fill="none" stroke="#000000" points="16,-78 16,-130 612,-130 612,-78 16,-78"/>
</g>
<g id="clust5" class="cluster">
<title>cluster_CartDetailsModule_exports</title>
<polygon fill="none" stroke="#000000" points="278,-208 278,-260 442,-260 442,-208 278,-208"/>
</g>
<!-- CartDetailsComponent -->
<g id="node1" class="node">
<title>CartDetailsComponent</title>
<polygon fill="#ffffb3" stroke="#000000" points="773.587,-122 628.413,-122 628.413,-86 773.587,-86 773.587,-122"/>
<text text-anchor="middle" x="701" y="-99.8" font-family="Times,serif" font-size="14.00" fill="#000000">CartDetailsComponent</text>
</g>
<!-- CartDetailsModule -->
<g id="node2" class="node">
<title>CartDetailsModule</title>
<polygon fill="#8dd3c7" stroke="#000000" points="421.8048,-187 418.8048,-191 397.8048,-191 394.8048,-187 298.1952,-187 298.1952,-151 421.8048,-151 421.8048,-187"/>
<text text-anchor="middle" x="360" y="-164.8" font-family="Times,serif" font-size="14.00" fill="#000000">CartDetailsModule</text>
</g>
<!-- CartDetailsComponent&#45;&gt;CartDetailsModule -->
<g id="edge1" class="edge">
<title>CartDetailsComponent&#45;&gt;CartDetailsModule</title>
<path fill="none" stroke="#000000" d="M701,-122.2843C701,-143.3211 701,-175 701,-175 701,-175 431.7525,-175 431.7525,-175"/>
<polygon fill="#000000" stroke="#000000" points="431.7526,-171.5001 421.7525,-175 431.7525,-178.5001 431.7526,-171.5001"/>
</g>
<!-- CartDetailsComponent  -->
<g id="node8" class="node">
<title>CartDetailsComponent </title>
<polygon fill="#fb8072" stroke="#000000" points="434.0876,-252 285.9124,-252 285.9124,-216 434.0876,-216 434.0876,-252"/>
<text text-anchor="middle" x="360" y="-229.8" font-family="Times,serif" font-size="14.00" fill="#000000">CartDetailsComponent </text>
</g>
<!-- CartDetailsModule&#45;&gt;CartDetailsComponent  -->
<g id="edge7" class="edge">
<title>CartDetailsModule&#45;&gt;CartDetailsComponent </title>
<path fill="none" stroke="#000000" stroke-dasharray="5,2" d="M360,-187.1061C360,-187.1061 360,-205.991 360,-205.991"/>
<polygon fill="#000000" stroke="#000000" points="356.5001,-205.9909 360,-215.991 363.5001,-205.991 356.5001,-205.9909"/>
</g>
<!-- CartSharedModule -->
<g id="node3" class="node">
<title>CartSharedModule</title>
<polygon fill="#8dd3c7" stroke="#000000" points="604.0255,-122 601.0255,-126 580.0255,-126 577.0255,-122 481.9745,-122 481.9745,-86 604.0255,-86 604.0255,-122"/>
<text text-anchor="middle" x="543" y="-99.8" font-family="Times,serif" font-size="14.00" fill="#000000">CartSharedModule</text>
</g>
<!-- CartSharedModule&#45;&gt;CartDetailsModule -->
<g id="edge2" class="edge">
<title>CartSharedModule&#45;&gt;CartDetailsModule</title>
<path fill="none" stroke="#000000" d="M543,-122.0225C543,-139.3734 543,-163 543,-163 543,-163 431.7003,-163 431.7003,-163"/>
<polygon fill="#000000" stroke="#000000" points="431.7004,-159.5001 421.7003,-163 431.7003,-166.5001 431.7004,-159.5001"/>
</g>
<!-- ConfigModule -->
<g id="node4" class="node">
<title>ConfigModule</title>
<polygon fill="#8dd3c7" stroke="#000000" points="464.4386,-122 461.4386,-126 440.4386,-126 437.4386,-122 365.5614,-122 365.5614,-86 464.4386,-86 464.4386,-122"/>
<text text-anchor="middle" x="415" y="-99.8" font-family="Times,serif" font-size="14.00" fill="#000000">ConfigModule</text>
</g>
<!-- ConfigModule&#45;&gt;CartDetailsModule -->
<g id="edge3" class="edge">
<title>ConfigModule&#45;&gt;CartDetailsModule</title>
<path fill="none" stroke="#000000" d="M393.7167,-122.1061C393.7167,-122.1061 393.7167,-140.991 393.7167,-140.991"/>
<polygon fill="#000000" stroke="#000000" points="390.2168,-140.9909 393.7167,-150.991 397.2168,-140.991 390.2168,-140.9909"/>
</g>
<!-- I18nModule -->
<g id="node5" class="node">
<title>I18nModule</title>
<polygon fill="#8dd3c7" stroke="#000000" points="347.7107,-122 344.7107,-126 323.7107,-126 320.7107,-122 262.2893,-122 262.2893,-86 347.7107,-86 347.7107,-122"/>
<text text-anchor="middle" x="305" y="-99.8" font-family="Times,serif" font-size="14.00" fill="#000000">I18nModule</text>
</g>
<!-- I18nModule&#45;&gt;CartDetailsModule -->
<g id="edge4" class="edge">
<title>I18nModule&#45;&gt;CartDetailsModule</title>
<path fill="none" stroke="#000000" d="M322.9765,-122.1061C322.9765,-122.1061 322.9765,-140.991 322.9765,-140.991"/>
<polygon fill="#000000" stroke="#000000" points="319.4766,-140.9909 322.9765,-150.991 326.4766,-140.991 319.4766,-140.9909"/>
</g>
<!-- PromotionsModule -->
<g id="node6" class="node">
<title>PromotionsModule</title>
<polygon fill="#8dd3c7" stroke="#000000" points="244.1094,-122 241.1094,-126 220.1094,-126 217.1094,-122 119.8906,-122 119.8906,-86 244.1094,-86 244.1094,-122"/>
<text text-anchor="middle" x="182" y="-99.8" font-family="Times,serif" font-size="14.00" fill="#000000">PromotionsModule</text>
</g>
<!-- PromotionsModule&#45;&gt;CartDetailsModule -->
<g id="edge5" class="edge">
<title>PromotionsModule&#45;&gt;CartDetailsModule</title>
<path fill="none" stroke="#000000" d="M182,-122.0225C182,-139.3734 182,-163 182,-163 182,-163 288.2438,-163 288.2438,-163"/>
<polygon fill="#000000" stroke="#000000" points="288.2438,-166.5001 298.2438,-163 288.2438,-159.5001 288.2438,-166.5001"/>
</g>
<!-- UrlModule -->
<g id="node7" class="node">
<title>UrlModule</title>
<polygon fill="#8dd3c7" stroke="#000000" points="102.2079,-122 99.2079,-126 78.2079,-126 75.2079,-122 23.7921,-122 23.7921,-86 102.2079,-86 102.2079,-122"/>
<text text-anchor="middle" x="63" y="-99.8" font-family="Times,serif" font-size="14.00" fill="#000000">UrlModule</text>
</g>
<!-- UrlModule&#45;&gt;CartDetailsModule -->
<g id="edge6" class="edge">
<title>UrlModule&#45;&gt;CartDetailsModule</title>
<path fill="none" stroke="#000000" d="M63,-122.2843C63,-143.3211 63,-175 63,-175 63,-175 288.1006,-175 288.1006,-175"/>
<polygon fill="#000000" stroke="#000000" points="288.1006,-178.5001 298.1006,-175 288.1006,-171.5001 288.1006,-178.5001"/>
</g>
</g>
</svg>
