<?xml version="1.0" encoding="UTF-8" standalone="no"?>
<!DOCTYPE svg PUBLIC "-//W3C//DTD SVG 1.1//EN"
 "http://www.w3.org/Graphics/SVG/1.1/DTD/svg11.dtd">
<!-- Generated by graphviz version 2.40.1 (20161225.0304)
 -->
<!-- Title: dependencies Pages: 1 -->
<svg width="1116pt" height="284pt"
 viewBox="0.00 0.00 1116.00 284.00" xmlns="http://www.w3.org/2000/svg" xmlns:xlink="http://www.w3.org/1999/xlink">
<g id="graph0" class="graph" transform="scale(1 1) rotate(0) translate(4 280)">
<title>dependencies</title>
<polygon fill="#ffffff" stroke="transparent" points="-4,4 -4,-280 1112,-280 1112,4 -4,4"/>
<text text-anchor="start" x="533.0091" y="-42.4" font-family="sans-serif" font-weight="bold" font-size="14.00" fill="#000000">Legend</text>
<polygon fill="#ffffb3" stroke="transparent" points="320,-10 320,-30 340,-30 340,-10 320,-10"/>
<text text-anchor="start" x="343.629" y="-15.4" font-family="sans-serif" font-size="14.00" fill="#000000"> &#160;Declarations</text>
<polygon fill="#8dd3c7" stroke="transparent" points="433,-10 433,-30 453,-30 453,-10 433,-10"/>
<text text-anchor="start" x="456.7251" y="-15.4" font-family="sans-serif" font-size="14.00" fill="#000000"> &#160;Module</text>
<polygon fill="#80b1d3" stroke="transparent" points="519,-10 519,-30 539,-30 539,-10 519,-10"/>
<text text-anchor="start" x="542.7812" y="-15.4" font-family="sans-serif" font-size="14.00" fill="#000000"> &#160;Bootstrap</text>
<polygon fill="#fdb462" stroke="transparent" points="616,-10 616,-30 636,-30 636,-10 616,-10"/>
<text text-anchor="start" x="639.6732" y="-15.4" font-family="sans-serif" font-size="14.00" fill="#000000"> &#160;Providers</text>
<polygon fill="#fb8072" stroke="transparent" points="712,-10 712,-30 732,-30 732,-10 712,-10"/>
<text text-anchor="start" x="735.7258" y="-15.4" font-family="sans-serif" font-size="14.00" fill="#000000"> &#160;Exports</text>
<g id="clust1" class="cluster">
<title>cluster_CartDetailsModule</title>
<polygon fill="none" stroke="#000000" stroke-dasharray="1,5" points="8,-70 8,-268 1100,-268 1100,-70 8,-70"/>
</g>
<g id="clust2" class="cluster">
<title>cluster_CartDetailsModule_declarations</title>
<polygon fill="none" stroke="#000000" points="930,-78 930,-130 1092,-130 1092,-78 930,-78"/>
</g>
<g id="clust4" class="cluster">
<title>cluster_CartDetailsModule_imports</title>
<polygon fill="none" stroke="#000000" points="16,-78 16,-130 922,-130 922,-78 16,-78"/>
</g>
<g id="clust5" class="cluster">
<title>cluster_CartDetailsModule_exports</title>
<polygon fill="none" stroke="#000000" points="427,-208 427,-260 591,-260 591,-208 427,-208"/>
</g>
<!-- CartDetailsComponent -->
<g id="node1" class="node">
<title>CartDetailsComponent</title>
<polygon fill="#ffffb3" stroke="#000000" points="1083.587,-122 938.413,-122 938.413,-86 1083.587,-86 1083.587,-122"/>
<text text-anchor="middle" x="1011" y="-99.8" font-family="Times,serif" font-size="14.00" fill="#000000">CartDetailsComponent</text>
</g>
<!-- CartDetailsModule -->
<g id="node2" class="node">
<title>CartDetailsModule</title>
<polygon fill="#8dd3c7" stroke="#000000" points="570.8048,-187 567.8048,-191 546.8048,-191 543.8048,-187 447.1952,-187 447.1952,-151 570.8048,-151 570.8048,-187"/>
<text text-anchor="middle" x="509" y="-164.8" font-family="Times,serif" font-size="14.00" fill="#000000">CartDetailsModule</text>
</g>
<!-- CartDetailsComponent&#45;&gt;CartDetailsModule -->
<g id="edge1" class="edge">
<title>CartDetailsComponent&#45;&gt;CartDetailsModule</title>
<path fill="none" stroke="#000000" d="M1011,-122.2921C1011,-144.2057 1011,-178 1011,-178 1011,-178 580.8066,-178 580.8066,-178"/>
<polygon fill="#000000" stroke="#000000" points="580.8066,-174.5001 570.8066,-178 580.8066,-181.5001 580.8066,-174.5001"/>
</g>
<!-- CartDetailsComponent  -->
<g id="node10" class="node">
<title>CartDetailsComponent </title>
<polygon fill="#fb8072" stroke="#000000" points="583.0876,-252 434.9124,-252 434.9124,-216 583.0876,-216 583.0876,-252"/>
<text text-anchor="middle" x="509" y="-229.8" font-family="Times,serif" font-size="14.00" fill="#000000">CartDetailsComponent </text>
</g>
<!-- CartDetailsModule&#45;&gt;CartDetailsComponent  -->
<g id="edge9" class="edge">
<title>CartDetailsModule&#45;&gt;CartDetailsComponent </title>
<path fill="none" stroke="#000000" stroke-dasharray="5,2" d="M509,-187.1061C509,-187.1061 509,-205.991 509,-205.991"/>
<polygon fill="#000000" stroke="#000000" points="505.5001,-205.9909 509,-215.991 512.5001,-205.991 505.5001,-205.9909"/>
</g>
<!-- CartCouponModule -->
<g id="node3" class="node">
<title>CartCouponModule</title>
<polygon fill="#8dd3c7" stroke="#000000" points="913.9888,-122 910.9888,-126 889.9888,-126 886.9888,-122 786.0112,-122 786.0112,-86 913.9888,-86 913.9888,-122"/>
<text text-anchor="middle" x="850" y="-99.8" font-family="Times,serif" font-size="14.00" fill="#000000">CartCouponModule</text>
</g>
<!-- CartCouponModule&#45;&gt;CartDetailsModule -->
<g id="edge2" class="edge">
<title>CartCouponModule&#45;&gt;CartDetailsModule</title>
<path fill="none" stroke="#000000" d="M850,-122.1061C850,-141.3391 850,-169 850,-169 850,-169 580.7525,-169 580.7525,-169"/>
<polygon fill="#000000" stroke="#000000" points="580.7526,-165.5001 570.7525,-169 580.7525,-172.5001 580.7526,-165.5001"/>
</g>
<!-- CartSharedModule -->
<g id="node4" class="node">
<title>CartSharedModule</title>
<polygon fill="#8dd3c7" stroke="#000000" points="768.0255,-122 765.0255,-126 744.0255,-126 741.0255,-122 645.9745,-122 645.9745,-86 768.0255,-86 768.0255,-122"/>
<text text-anchor="middle" x="707" y="-99.8" font-family="Times,serif" font-size="14.00" fill="#000000">CartSharedModule</text>
</g>
<!-- CartSharedModule&#45;&gt;CartDetailsModule -->
<g id="edge3" class="edge">
<title>CartSharedModule&#45;&gt;CartDetailsModule</title>
<path fill="none" stroke="#000000" d="M707,-122.027C707,-138.3976 707,-160 707,-160 707,-160 580.834,-160 580.834,-160"/>
<polygon fill="#000000" stroke="#000000" points="580.834,-156.5001 570.834,-160 580.834,-163.5001 580.834,-156.5001"/>
</g>
<!-- ConfigModule -->
<g id="node5" class="node">
<title>ConfigModule</title>
<polygon fill="#8dd3c7" stroke="#000000" points="628.4386,-122 625.4386,-126 604.4386,-126 601.4386,-122 529.5614,-122 529.5614,-86 628.4386,-86 628.4386,-122"/>
<text text-anchor="middle" x="579" y="-99.8" font-family="Times,serif" font-size="14.00" fill="#000000">ConfigModule</text>
</g>
<!-- ConfigModule&#45;&gt;CartDetailsModule -->
<g id="edge4" class="edge">
<title>ConfigModule&#45;&gt;CartDetailsModule</title>
<path fill="none" stroke="#000000" d="M550.2167,-122.1061C550.2167,-122.1061 550.2167,-140.991 550.2167,-140.991"/>
<polygon fill="#000000" stroke="#000000" points="546.7168,-140.9909 550.2167,-150.991 553.7168,-140.991 546.7168,-140.9909"/>
</g>
<!-- FeaturesConfigModule -->
<g id="node6" class="node">
<title>FeaturesConfigModule</title>
<polygon fill="#8dd3c7" stroke="#000000" points="511.8599,-122 508.8599,-126 487.8599,-126 484.8599,-122 366.1401,-122 366.1401,-86 511.8599,-86 511.8599,-122"/>
<text text-anchor="middle" x="439" y="-99.8" font-family="Times,serif" font-size="14.00" fill="#000000">FeaturesConfigModule</text>
</g>
<!-- FeaturesConfigModule&#45;&gt;CartDetailsModule -->
<g id="edge5" class="edge">
<title>FeaturesConfigModule&#45;&gt;CartDetailsModule</title>
<path fill="none" stroke="#000000" d="M479.6389,-122.1061C479.6389,-122.1061 479.6389,-140.991 479.6389,-140.991"/>
<polygon fill="#000000" stroke="#000000" points="476.1389,-140.9909 479.6389,-150.991 483.1389,-140.991 476.1389,-140.9909"/>
</g>
<!-- I18nModule -->
<g id="node7" class="node">
<title>I18nModule</title>
<polygon fill="#8dd3c7" stroke="#000000" points="347.7107,-122 344.7107,-126 323.7107,-126 320.7107,-122 262.2893,-122 262.2893,-86 347.7107,-86 347.7107,-122"/>
<text text-anchor="middle" x="305" y="-99.8" font-family="Times,serif" font-size="14.00" fill="#000000">I18nModule</text>
</g>
<!-- I18nModule&#45;&gt;CartDetailsModule -->
<g id="edge6" class="edge">
<title>I18nModule&#45;&gt;CartDetailsModule</title>
<path fill="none" stroke="#000000" d="M305,-122.027C305,-138.3976 305,-160 305,-160 305,-160 437.2397,-160 437.2397,-160"/>
<polygon fill="#000000" stroke="#000000" points="437.2397,-163.5001 447.2397,-160 437.2396,-156.5001 437.2397,-163.5001"/>
</g>
<!-- PromotionsModule -->
<g id="node8" class="node">
<title>PromotionsModule</title>
<polygon fill="#8dd3c7" stroke="#000000" points="244.1094,-122 241.1094,-126 220.1094,-126 217.1094,-122 119.8906,-122 119.8906,-86 244.1094,-86 244.1094,-122"/>
<text text-anchor="middle" x="182" y="-99.8" font-family="Times,serif" font-size="14.00" fill="#000000">PromotionsModule</text>
</g>
<!-- PromotionsModule&#45;&gt;CartDetailsModule -->
<g id="edge7" class="edge">
<title>PromotionsModule&#45;&gt;CartDetailsModule</title>
<path fill="none" stroke="#000000" d="M182,-122.1061C182,-141.3391 182,-169 182,-169 182,-169 437.1094,-169 437.1094,-169"/>
<polygon fill="#000000" stroke="#000000" points="437.1094,-172.5001 447.1094,-169 437.1093,-165.5001 437.1094,-172.5001"/>
</g>
<!-- UrlModule -->
<g id="node9" class="node">
<title>UrlModule</title>
<polygon fill="#8dd3c7" stroke="#000000" points="102.2079,-122 99.2079,-126 78.2079,-126 75.2079,-122 23.7921,-122 23.7921,-86 102.2079,-86 102.2079,-122"/>
<text text-anchor="middle" x="63" y="-99.8" font-family="Times,serif" font-size="14.00" fill="#000000">UrlModule</text>
</g>
<!-- UrlModule&#45;&gt;CartDetailsModule -->
<g id="edge8" class="edge">
<title>UrlModule&#45;&gt;CartDetailsModule</title>
<path fill="none" stroke="#000000" d="M63,-122.2921C63,-144.2057 63,-178 63,-178 63,-178 436.9856,-178 436.9856,-178"/>
<polygon fill="#000000" stroke="#000000" points="436.9856,-181.5001 446.9856,-178 436.9856,-174.5001 436.9856,-181.5001"/>
</g>
</g>
</svg>
