<?xml version="1.0" encoding="UTF-8" standalone="no"?>
<!DOCTYPE svg PUBLIC "-//W3C//DTD SVG 1.1//EN"
 "http://www.w3.org/Graphics/SVG/1.1/DTD/svg11.dtd">
<!-- Generated by graphviz version 2.47.3 (20210619.1520)
 -->
<!-- Title: dependencies Pages: 1 -->
<svg width="1000pt" height="247pt"
 viewBox="0.00 0.00 1000.00 246.80" xmlns="http://www.w3.org/2000/svg" xmlns:xlink="http://www.w3.org/1999/xlink">
<g id="graph0" class="graph" transform="scale(1 1) rotate(0) translate(4 242.8)">
<title>dependencies</title>
<polygon fill="white" stroke="transparent" points="-4,4 -4,-242.8 996,-242.8 996,4 -4,4"/>
<text text-anchor="middle" x="496" y="-8.2" font-family="sans-serif" font-size="14.00">dependencies</text>
<g id="clust1" class="cluster">
<title>cluster_CartDetailsModule</title>
<polygon fill="none" stroke="black" stroke-dasharray="1,5" points="8,-32.8 8,-230.8 984,-230.8 984,-32.8 8,-32.8"/>
</g>
<g id="clust2" class="cluster">
<title>cluster_CartDetailsModule_declarations</title>
<polygon fill="none" stroke="black" points="814,-40.8 814,-92.8 976,-92.8 976,-40.8 814,-40.8"/>
</g>
<g id="clust5" class="cluster">
<title>cluster_CartDetailsModule_exports</title>
<polygon fill="none" stroke="black" points="357,-170.8 357,-222.8 521,-222.8 521,-170.8 357,-170.8"/>
</g>
<g id="clust4" class="cluster">
<title>cluster_CartDetailsModule_imports</title>
<polygon fill="none" stroke="black" points="16,-40.8 16,-92.8 806,-92.8 806,-40.8 16,-40.8"/>
</g>
<!-- CartDetailsComponent -->
<g id="node1" class="node">
<title>CartDetailsComponent</title>
<polygon fill="#ffffb3" stroke="black" points="967.59,-84.8 822.41,-84.8 822.41,-48.8 967.59,-48.8 967.59,-84.8"/>
<text text-anchor="middle" x="895" y="-62.6" font-family="Times,serif" font-size="14.00">CartDetailsComponent</text>
</g>
<!-- CartDetailsModule -->
<g id="node2" class="node">
<title>CartDetailsModule</title>
<polygon fill="#8dd3c7" stroke="black" points="500.8,-149.8 497.8,-153.8 476.8,-153.8 473.8,-149.8 377.2,-149.8 377.2,-113.8 500.8,-113.8 500.8,-149.8"/>
<text text-anchor="middle" x="439" y="-127.6" font-family="Times,serif" font-size="14.00">CartDetailsModule</text>
</g>
<!-- CartDetailsComponent&#45;&gt;CartDetailsModule -->
<g id="edge1" class="edge">
<title>CartDetailsComponent&#45;&gt;CartDetailsModule</title>
<path fill="none" stroke="black" d="M895,-85.09C895,-107.01 895,-140.8 895,-140.8 895,-140.8 510.97,-140.8 510.97,-140.8"/>
<polygon fill="black" stroke="black" points="510.97,-137.3 500.97,-140.8 510.97,-144.3 510.97,-137.3"/>
</g>
<!-- CartDetailsComponent  -->
<g id="node9" class="node">
<title>CartDetailsComponent </title>
<polygon fill="#fb8072" stroke="black" points="513.09,-214.8 364.91,-214.8 364.91,-178.8 513.09,-178.8 513.09,-214.8"/>
<text text-anchor="middle" x="439" y="-192.6" font-family="Times,serif" font-size="14.00">CartDetailsComponent </text>
</g>
<!-- CartDetailsModule&#45;&gt;CartDetailsComponent  -->
<g id="edge8" class="edge">
<title>CartDetailsModule&#45;&gt;CartDetailsComponent </title>
<path fill="none" stroke="black" stroke-dasharray="5,2" d="M439,-149.91C439,-149.91 439,-168.79 439,-168.79"/>
<polygon fill="black" stroke="black" points="435.5,-168.79 439,-178.79 442.5,-168.79 435.5,-168.79"/>
</g>
<!-- CartCouponModule -->
<g id="node3" class="node">
<title>CartCouponModule</title>
<polygon fill="#8dd3c7" stroke="black" points="797.99,-84.8 794.99,-88.8 773.99,-88.8 770.99,-84.8 670.01,-84.8 670.01,-48.8 797.99,-48.8 797.99,-84.8"/>
<text text-anchor="middle" x="734" y="-62.6" font-family="Times,serif" font-size="14.00">CartCouponModule</text>
</g>
<!-- CartCouponModule&#45;&gt;CartDetailsModule -->
<g id="edge2" class="edge">
<title>CartCouponModule&#45;&gt;CartDetailsModule</title>
<path fill="none" stroke="black" d="M734,-84.91C734,-104.14 734,-131.8 734,-131.8 734,-131.8 510.84,-131.8 510.84,-131.8"/>
<polygon fill="black" stroke="black" points="510.84,-128.3 500.84,-131.8 510.84,-135.3 510.84,-128.3"/>
</g>
<!-- CartSharedModule -->
<g id="node4" class="node">
<title>CartSharedModule</title>
<polygon fill="#8dd3c7" stroke="black" points="652.03,-84.8 649.03,-88.8 628.03,-88.8 625.03,-84.8 529.97,-84.8 529.97,-48.8 652.03,-48.8 652.03,-84.8"/>
<text text-anchor="middle" x="591" y="-62.6" font-family="Times,serif" font-size="14.00">CartSharedModule</text>
</g>
<!-- CartSharedModule&#45;&gt;CartDetailsModule -->
<g id="edge3" class="edge">
<title>CartSharedModule&#45;&gt;CartDetailsModule</title>
<path fill="none" stroke="black" d="M591,-84.83C591,-101.2 591,-122.8 591,-122.8 591,-122.8 510.82,-122.8 510.82,-122.8"/>
<polygon fill="black" stroke="black" points="510.82,-119.3 500.82,-122.8 510.82,-126.3 510.82,-119.3"/>
</g>
<!-- FeaturesConfigModule -->
<g id="node5" class="node">
<title>FeaturesConfigModule</title>
<polygon fill="#8dd3c7" stroke="black" points="511.86,-84.8 508.86,-88.8 487.86,-88.8 484.86,-84.8 366.14,-84.8 366.14,-48.8 511.86,-48.8 511.86,-84.8"/>
<text text-anchor="middle" x="439" y="-62.6" font-family="Times,serif" font-size="14.00">FeaturesConfigModule</text>
</g>
<!-- FeaturesConfigModule&#45;&gt;CartDetailsModule -->
<g id="edge4" class="edge">
<title>FeaturesConfigModule&#45;&gt;CartDetailsModule</title>
<path fill="none" stroke="black" d="M439,-84.91C439,-84.91 439,-103.79 439,-103.79"/>
<polygon fill="black" stroke="black" points="435.5,-103.79 439,-113.79 442.5,-103.79 435.5,-103.79"/>
</g>
<!-- I18nModule -->
<g id="node6" class="node">
<title>I18nModule</title>
<polygon fill="#8dd3c7" stroke="black" points="347.71,-84.8 344.71,-88.8 323.71,-88.8 320.71,-84.8 262.29,-84.8 262.29,-48.8 347.71,-48.8 347.71,-84.8"/>
<text text-anchor="middle" x="305" y="-62.6" font-family="Times,serif" font-size="14.00">I18nModule</text>
</g>
<!-- I18nModule&#45;&gt;CartDetailsModule -->
<g id="edge5" class="edge">
<title>I18nModule&#45;&gt;CartDetailsModule</title>
<path fill="none" stroke="black" d="M305,-84.83C305,-101.2 305,-122.8 305,-122.8 305,-122.8 367.1,-122.8 367.1,-122.8"/>
<polygon fill="black" stroke="black" points="367.1,-126.3 377.1,-122.8 367.1,-119.3 367.1,-126.3"/>
</g>
<!-- PromotionsModule -->
<g id="node7" class="node">
<title>PromotionsModule</title>
<polygon fill="#8dd3c7" stroke="black" points="244.11,-84.8 241.11,-88.8 220.11,-88.8 217.11,-84.8 119.89,-84.8 119.89,-48.8 244.11,-48.8 244.11,-84.8"/>
<text text-anchor="middle" x="182" y="-62.6" font-family="Times,serif" font-size="14.00">PromotionsModule</text>
</g>
<!-- PromotionsModule&#45;&gt;CartDetailsModule -->
<g id="edge6" class="edge">
<title>PromotionsModule&#45;&gt;CartDetailsModule</title>
<path fill="none" stroke="black" d="M182,-84.91C182,-104.14 182,-131.8 182,-131.8 182,-131.8 367.12,-131.8 367.12,-131.8"/>
<polygon fill="black" stroke="black" points="367.12,-135.3 377.12,-131.8 367.12,-128.3 367.12,-135.3"/>
</g>
<!-- UrlModule -->
<g id="node8" class="node">
<title>UrlModule</title>
<polygon fill="#8dd3c7" stroke="black" points="102.21,-84.8 99.21,-88.8 78.21,-88.8 75.21,-84.8 23.79,-84.8 23.79,-48.8 102.21,-48.8 102.21,-84.8"/>
<text text-anchor="middle" x="63" y="-62.6" font-family="Times,serif" font-size="14.00">UrlModule</text>
</g>
<!-- UrlModule&#45;&gt;CartDetailsModule -->
<g id="edge7" class="edge">
<title>UrlModule&#45;&gt;CartDetailsModule</title>
<path fill="none" stroke="black" d="M63,-85.09C63,-107.01 63,-140.8 63,-140.8 63,-140.8 367.33,-140.8 367.33,-140.8"/>
<polygon fill="black" stroke="black" points="367.33,-144.3 377.33,-140.8 367.33,-137.3 367.33,-144.3"/>
</g>
</g>
</svg>
