<?xml version="1.0" encoding="UTF-8" standalone="no"?>
<!DOCTYPE svg PUBLIC "-//W3C//DTD SVG 1.1//EN"
 "http://www.w3.org/Graphics/SVG/1.1/DTD/svg11.dtd">
<!-- Generated by graphviz version 2.40.1 (20161225.0304)
 -->
<!-- Title: dependencies Pages: 1 -->
<svg width="1037pt" height="211pt"
 viewBox="0.00 0.00 1037.00 211.00" xmlns="http://www.w3.org/2000/svg" xmlns:xlink="http://www.w3.org/1999/xlink">
<g id="graph0" class="graph" transform="scale(1 1) rotate(0) translate(4 207)">
<title>dependencies</title>
<polygon fill="#ffffff" stroke="transparent" points="-4,4 -4,-207 1033,-207 1033,4 -4,4"/>
<text text-anchor="start" x="493.5091" y="-42.4" font-family="sans-serif" font-weight="bold" font-size="14.00" fill="#000000">Legend</text>
<polygon fill="#ffffb3" stroke="transparent" points="280.5,-10 280.5,-30 300.5,-30 300.5,-10 280.5,-10"/>
<text text-anchor="start" x="304.129" y="-15.4" font-family="sans-serif" font-size="14.00" fill="#000000"> &#160;Declarations</text>
<polygon fill="#8dd3c7" stroke="transparent" points="393.5,-10 393.5,-30 413.5,-30 413.5,-10 393.5,-10"/>
<text text-anchor="start" x="417.2251" y="-15.4" font-family="sans-serif" font-size="14.00" fill="#000000"> &#160;Module</text>
<polygon fill="#80b1d3" stroke="transparent" points="479.5,-10 479.5,-30 499.5,-30 499.5,-10 479.5,-10"/>
<text text-anchor="start" x="503.2812" y="-15.4" font-family="sans-serif" font-size="14.00" fill="#000000"> &#160;Bootstrap</text>
<polygon fill="#fdb462" stroke="transparent" points="576.5,-10 576.5,-30 596.5,-30 596.5,-10 576.5,-10"/>
<text text-anchor="start" x="600.1732" y="-15.4" font-family="sans-serif" font-size="14.00" fill="#000000"> &#160;Providers</text>
<polygon fill="#fb8072" stroke="transparent" points="672.5,-10 672.5,-30 692.5,-30 692.5,-10 672.5,-10"/>
<text text-anchor="start" x="696.2258" y="-15.4" font-family="sans-serif" font-size="14.00" fill="#000000"> &#160;Exports</text>
<g id="clust1" class="cluster">
<title>cluster_ConfiguratorCartEntryInfoModule</title>
<polygon fill="none" stroke="#000000" stroke-dasharray="1,5" points="8,-70 8,-195 1021,-195 1021,-70 8,-70"/>
</g>
<g id="clust2" class="cluster">
<title>cluster_ConfiguratorCartEntryInfoModule_declarations</title>
<polygon fill="none" stroke="#000000" points="765,-78 765,-130 1013,-130 1013,-78 765,-78"/>
</g>
<g id="clust4" class="cluster">
<title>cluster_ConfiguratorCartEntryInfoModule_imports</title>
<polygon fill="none" stroke="#000000" points="16,-78 16,-130 757,-130 757,-78 16,-78"/>
</g>
<!-- ConfiguratorCartEntryInfoComponent -->
<g id="node1" class="node">
<title>ConfiguratorCartEntryInfoComponent</title>
<polygon fill="#ffffb3" stroke="#000000" points="1005.1741,-122 772.8259,-122 772.8259,-86 1005.1741,-86 1005.1741,-122"/>
<text text-anchor="middle" x="889" y="-99.8" font-family="Times,serif" font-size="14.00" fill="#000000">ConfiguratorCartEntryInfoComponent</text>
</g>
<!-- ConfiguratorCartEntryInfoModule -->
<g id="node2" class="node">
<title>ConfiguratorCartEntryInfoModule</title>
<polygon fill="#8dd3c7" stroke="#000000" points="443.3918,-187 440.3918,-191 419.3918,-191 416.3918,-187 232.6082,-187 232.6082,-151 443.3918,-151 443.3918,-187"/>
<text text-anchor="middle" x="338" y="-164.8" font-family="Times,serif" font-size="14.00" fill="#000000">ConfiguratorCartEntryInfoModule</text>
</g>
<!-- ConfiguratorCartEntryInfoComponent&#45;&gt;ConfiguratorCartEntryInfoModule -->
<g id="edge1" class="edge">
<title>ConfiguratorCartEntryInfoComponent&#45;&gt;ConfiguratorCartEntryInfoModule</title>
<path fill="none" stroke="#000000" d="M889,-122.2843C889,-143.3211 889,-175 889,-175 889,-175 453.2609,-175 453.2609,-175"/>
<polygon fill="#000000" stroke="#000000" points="453.261,-171.5001 443.2609,-175 453.2609,-178.5001 453.261,-171.5001"/>
</g>
<!-- ConfiguratorIssuesNotificationModule -->
<g id="node3" class="node">
<title>ConfiguratorIssuesNotificationModule</title>
<polygon fill="#8dd3c7" stroke="#000000" points="748.7226,-122 745.7226,-126 724.7226,-126 721.7226,-122 515.2774,-122 515.2774,-86 748.7226,-86 748.7226,-122"/>
<text text-anchor="middle" x="632" y="-99.8" font-family="Times,serif" font-size="14.00" fill="#000000">ConfiguratorIssuesNotificationModule</text>
</g>
<!-- ConfiguratorIssuesNotificationModule&#45;&gt;ConfiguratorCartEntryInfoModule -->
<g id="edge2" class="edge">
<title>ConfiguratorIssuesNotificationModule&#45;&gt;ConfiguratorCartEntryInfoModule</title>
<path fill="none" stroke="#000000" d="M632,-122.0225C632,-139.3734 632,-163 632,-163 632,-163 453.3103,-163 453.3103,-163"/>
<polygon fill="#000000" stroke="#000000" points="453.3104,-159.5001 443.3103,-163 453.3103,-166.5001 453.3104,-159.5001"/>
</g>
<!-- ConfigureCartEntryModule -->
<g id="node4" class="node">
<title>ConfigureCartEntryModule</title>
<polygon fill="#8dd3c7" stroke="#000000" points="496.5197,-122 493.5197,-126 472.5197,-126 469.5197,-122 325.4803,-122 325.4803,-86 496.5197,-86 496.5197,-122"/>
<text text-anchor="middle" x="411" y="-99.8" font-family="Times,serif" font-size="14.00" fill="#000000">ConfigureCartEntryModule</text>
</g>
<!-- ConfigureCartEntryModule&#45;&gt;ConfiguratorCartEntryInfoModule -->
<g id="edge3" class="edge">
<title>ConfigureCartEntryModule&#45;&gt;ConfiguratorCartEntryInfoModule</title>
<path fill="none" stroke="#000000" d="M384.2181,-122.1061C384.2181,-122.1061 384.2181,-140.991 384.2181,-140.991"/>
<polygon fill="#000000" stroke="#000000" points="380.7182,-140.9909 384.2181,-150.991 387.7182,-140.991 380.7182,-140.9909"/>
</g>
<!-- I18nModule -->
<g id="node5" class="node">
<title>I18nModule</title>
<polygon fill="#8dd3c7" stroke="#000000" points="307.7107,-122 304.7107,-126 283.7107,-126 280.7107,-122 222.2893,-122 222.2893,-86 307.7107,-86 307.7107,-122"/>
<text text-anchor="middle" x="265" y="-99.8" font-family="Times,serif" font-size="14.00" fill="#000000">I18nModule</text>
</g>
<!-- I18nModule&#45;&gt;ConfiguratorCartEntryInfoModule -->
<g id="edge4" class="edge">
<title>I18nModule&#45;&gt;ConfiguratorCartEntryInfoModule</title>
<path fill="none" stroke="#000000" d="M270.2048,-122.1061C270.2048,-122.1061 270.2048,-140.991 270.2048,-140.991"/>
<polygon fill="#000000" stroke="#000000" points="266.7048,-140.9909 270.2048,-150.991 273.7048,-140.991 266.7048,-140.9909"/>
</g>
<!-- IconModule -->
<g id="node6" class="node">
<title>IconModule</title>
<polygon fill="#8dd3c7" stroke="#000000" points="204.4261,-122 201.4261,-126 180.4261,-126 177.4261,-122 119.5739,-122 119.5739,-86 204.4261,-86 204.4261,-122"/>
<text text-anchor="middle" x="162" y="-99.8" font-family="Times,serif" font-size="14.00" fill="#000000">IconModule</text>
</g>
<!-- IconModule&#45;&gt;ConfiguratorCartEntryInfoModule -->
<g id="edge5" class="edge">
<title>IconModule&#45;&gt;ConfiguratorCartEntryInfoModule</title>
<path fill="none" stroke="#000000" d="M162,-122.0225C162,-139.3734 162,-163 162,-163 162,-163 222.5718,-163 222.5718,-163"/>
<polygon fill="#000000" stroke="#000000" points="222.5719,-166.5001 232.5718,-163 222.5718,-159.5001 222.5719,-166.5001"/>
</g>
<!-- UrlModule -->
<g id="node7" class="node">
<title>UrlModule</title>
<polygon fill="#8dd3c7" stroke="#000000" points="102.2079,-122 99.2079,-126 78.2079,-126 75.2079,-122 23.7921,-122 23.7921,-86 102.2079,-86 102.2079,-122"/>
<text text-anchor="middle" x="63" y="-99.8" font-family="Times,serif" font-size="14.00" fill="#000000">UrlModule</text>
</g>
<!-- UrlModule&#45;&gt;ConfiguratorCartEntryInfoModule -->
<g id="edge6" class="edge">
<title>UrlModule&#45;&gt;ConfiguratorCartEntryInfoModule</title>
<path fill="none" stroke="#000000" d="M63,-122.2843C63,-143.3211 63,-175 63,-175 63,-175 222.4643,-175 222.4643,-175"/>
<polygon fill="#000000" stroke="#000000" points="222.4643,-178.5001 232.4643,-175 222.4643,-171.5001 222.4643,-178.5001"/>
</g>
</g>
</svg>
