<?xml version="1.0" encoding="UTF-8" standalone="no"?>
<!DOCTYPE svg PUBLIC "-//W3C//DTD SVG 1.1//EN"
 "http://www.w3.org/Graphics/SVG/1.1/DTD/svg11.dtd">
<!-- Generated by graphviz version 2.46.0 (20210119.1425)
 -->
<!-- Title: dependencies Pages: 1 -->
<svg width="1037pt" height="211pt"
 viewBox="0.00 0.00 1037.00 211.00" xmlns="http://www.w3.org/2000/svg" xmlns:xlink="http://www.w3.org/1999/xlink">
<g id="graph0" class="graph" transform="scale(1 1) rotate(0) translate(4 207)">
<title>dependencies</title>
<polygon fill="white" stroke="transparent" points="-4,4 -4,-207 1033,-207 1033,4 -4,4"/>
<text text-anchor="start" x="493.51" y="-42.4" font-family="sans-serif" font-weight="bold" font-size="14.00">Legend</text>
<polygon fill="#ffffb3" stroke="transparent" points="280.5,-10 280.5,-30 300.5,-30 300.5,-10 280.5,-10"/>
<text text-anchor="start" x="304.13" y="-15.4" font-family="sans-serif" font-size="14.00"> &#160;Declarations</text>
<polygon fill="#8dd3c7" stroke="transparent" points="393.5,-10 393.5,-30 413.5,-30 413.5,-10 393.5,-10"/>
<text text-anchor="start" x="417.23" y="-15.4" font-family="sans-serif" font-size="14.00"> &#160;Module</text>
<polygon fill="#80b1d3" stroke="transparent" points="479.5,-10 479.5,-30 499.5,-30 499.5,-10 479.5,-10"/>
<text text-anchor="start" x="503.28" y="-15.4" font-family="sans-serif" font-size="14.00"> &#160;Bootstrap</text>
<polygon fill="#fdb462" stroke="transparent" points="576.5,-10 576.5,-30 596.5,-30 596.5,-10 576.5,-10"/>
<text text-anchor="start" x="600.17" y="-15.4" font-family="sans-serif" font-size="14.00"> &#160;Providers</text>
<polygon fill="#fb8072" stroke="transparent" points="672.5,-10 672.5,-30 692.5,-30 692.5,-10 672.5,-10"/>
<text text-anchor="start" x="696.23" y="-15.4" font-family="sans-serif" font-size="14.00"> &#160;Exports</text>
<g id="clust1" class="cluster">
<title>cluster_ConfiguratorCartEntryInfoModule</title>
<polygon fill="none" stroke="black" stroke-dasharray="1,5" points="8,-70 8,-195 1021,-195 1021,-70 8,-70"/>
</g>
<g id="clust4" class="cluster">
<title>cluster_ConfiguratorCartEntryInfoModule_imports</title>
<polygon fill="none" stroke="black" points="272,-78 272,-130 1013,-130 1013,-78 272,-78"/>
</g>
<g id="clust2" class="cluster">
<title>cluster_ConfiguratorCartEntryInfoModule_declarations</title>
<polygon fill="none" stroke="black" points="16,-78 16,-130 264,-130 264,-78 16,-78"/>
</g>
<!-- ConfiguratorCartEntryInfoComponent -->
<g id="node1" class="node">
<title>ConfiguratorCartEntryInfoComponent</title>
<polygon fill="#ffffb3" stroke="black" points="256.17,-122 23.83,-122 23.83,-86 256.17,-86 256.17,-122"/>
<text text-anchor="middle" x="140" y="-99.8" font-family="Times,serif" font-size="14.00">ConfiguratorCartEntryInfoComponent</text>
</g>
<!-- ConfiguratorCartEntryInfoModule -->
<g id="node2" class="node">
<title>ConfiguratorCartEntryInfoModule</title>
<polygon fill="#8dd3c7" stroke="black" points="574.39,-187 571.39,-191 550.39,-191 547.39,-187 363.61,-187 363.61,-151 574.39,-151 574.39,-187"/>
<text text-anchor="middle" x="469" y="-164.8" font-family="Times,serif" font-size="14.00">ConfiguratorCartEntryInfoModule</text>
</g>
<!-- ConfiguratorCartEntryInfoComponent&#45;&gt;ConfiguratorCartEntryInfoModule -->
<g id="edge1" class="edge">
<title>ConfiguratorCartEntryInfoComponent&#45;&gt;ConfiguratorCartEntryInfoModule</title>
<path fill="none" stroke="black" d="M140,-122.11C140,-141.34 140,-169 140,-169 140,-169 353.54,-169 353.54,-169"/>
<polygon fill="black" stroke="black" points="353.54,-172.5 363.54,-169 353.54,-165.5 353.54,-172.5"/>
</g>
<!-- ConfiguratorIssuesNotificationModule -->
<g id="node3" class="node">
<title>ConfiguratorIssuesNotificationModule</title>
<polygon fill="#8dd3c7" stroke="black" points="1004.72,-122 1001.72,-126 980.72,-126 977.72,-122 771.28,-122 771.28,-86 1004.72,-86 1004.72,-122"/>
<text text-anchor="middle" x="888" y="-99.8" font-family="Times,serif" font-size="14.00">ConfiguratorIssuesNotificationModule</text>
</g>
<!-- ConfiguratorIssuesNotificationModule&#45;&gt;ConfiguratorCartEntryInfoModule -->
<g id="edge2" class="edge">
<title>ConfiguratorIssuesNotificationModule&#45;&gt;ConfiguratorCartEntryInfoModule</title>
<path fill="none" stroke="black" d="M888,-122.11C888,-141.34 888,-169 888,-169 888,-169 584.46,-169 584.46,-169"/>
<polygon fill="black" stroke="black" points="584.46,-165.5 574.46,-169 584.46,-172.5 584.46,-165.5"/>
</g>
<!-- ConfigureCartEntryModule -->
<g id="node4" class="node">
<title>ConfigureCartEntryModule</title>
<polygon fill="#8dd3c7" stroke="black" points="752.52,-122 749.52,-126 728.52,-126 725.52,-122 581.48,-122 581.48,-86 752.52,-86 752.52,-122"/>
<text text-anchor="middle" x="667" y="-99.8" font-family="Times,serif" font-size="14.00">ConfigureCartEntryModule</text>
</g>
<!-- ConfigureCartEntryModule&#45;&gt;ConfiguratorCartEntryInfoModule -->
<g id="edge3" class="edge">
<title>ConfigureCartEntryModule&#45;&gt;ConfiguratorCartEntryInfoModule</title>
<path fill="none" stroke="black" d="M581.32,-104C573.76,-104 568.9,-104 568.9,-104 568.9,-104 568.9,-140.89 568.9,-140.89"/>
<polygon fill="black" stroke="black" points="565.4,-140.89 568.9,-150.89 572.4,-140.89 565.4,-140.89"/>
</g>
<!-- I18nModule -->
<g id="node5" class="node">
<title>I18nModule</title>
<polygon fill="#8dd3c7" stroke="black" points="563.71,-122 560.71,-126 539.71,-126 536.71,-122 478.29,-122 478.29,-86 563.71,-86 563.71,-122"/>
<text text-anchor="middle" x="521" y="-99.8" font-family="Times,serif" font-size="14.00">I18nModule</text>
</g>
<!-- I18nModule&#45;&gt;ConfiguratorCartEntryInfoModule -->
<g id="edge4" class="edge">
<title>I18nModule&#45;&gt;ConfiguratorCartEntryInfoModule</title>
<path fill="none" stroke="black" d="M521,-122.11C521,-122.11 521,-140.99 521,-140.99"/>
<polygon fill="black" stroke="black" points="517.5,-140.99 521,-150.99 524.5,-140.99 517.5,-140.99"/>
</g>
<!-- IconModule -->
<g id="node6" class="node">
<title>IconModule</title>
<polygon fill="#8dd3c7" stroke="black" points="460.43,-122 457.43,-126 436.43,-126 433.43,-122 375.57,-122 375.57,-86 460.43,-86 460.43,-122"/>
<text text-anchor="middle" x="418" y="-99.8" font-family="Times,serif" font-size="14.00">IconModule</text>
</g>
<!-- IconModule&#45;&gt;ConfiguratorCartEntryInfoModule -->
<g id="edge5" class="edge">
<title>IconModule&#45;&gt;ConfiguratorCartEntryInfoModule</title>
<path fill="none" stroke="black" d="M418,-122.11C418,-122.11 418,-140.99 418,-140.99"/>
<polygon fill="black" stroke="black" points="414.5,-140.99 418,-150.99 421.5,-140.99 414.5,-140.99"/>
</g>
<!-- UrlModule -->
<g id="node7" class="node">
<title>UrlModule</title>
<polygon fill="#8dd3c7" stroke="black" points="358.21,-122 355.21,-126 334.21,-126 331.21,-122 279.79,-122 279.79,-86 358.21,-86 358.21,-122"/>
<text text-anchor="middle" x="319" y="-99.8" font-family="Times,serif" font-size="14.00">UrlModule</text>
</g>
<!-- UrlModule&#45;&gt;ConfiguratorCartEntryInfoModule -->
<g id="edge6" class="edge">
<title>UrlModule&#45;&gt;ConfiguratorCartEntryInfoModule</title>
<path fill="none" stroke="black" d="M358.27,-104C364.96,-104 369.8,-104 369.8,-104 369.8,-104 369.8,-140.89 369.8,-140.89"/>
<polygon fill="black" stroke="black" points="366.3,-140.89 369.8,-150.89 373.3,-140.89 366.3,-140.89"/>
</g>
</g>
</svg>
