<?xml version="1.0" encoding="UTF-8" standalone="no"?>
<!DOCTYPE svg PUBLIC "-//W3C//DTD SVG 1.1//EN"
 "http://www.w3.org/Graphics/SVG/1.1/DTD/svg11.dtd">
<!-- Generated by graphviz version 2.47.0 (20210316.0004)
 -->
<!-- Title: dependencies Pages: 1 -->
<svg width="1037pt" height="211pt"
 viewBox="0.00 0.00 1037.00 211.00" xmlns="http://www.w3.org/2000/svg" xmlns:xlink="http://www.w3.org/1999/xlink">
<g id="graph0" class="graph" transform="scale(1 1) rotate(0) translate(4 207)">
<title>dependencies</title>
<polygon fill="white" stroke="transparent" points="-4,4 -4,-207 1033,-207 1033,4 -4,4"/>
<text text-anchor="start" x="493.51" y="-42.4" font-family="sans-serif" font-weight="bold" font-size="14.00">Legend</text>
<polygon fill="#ffffb3" stroke="transparent" points="280.5,-10 280.5,-30 300.5,-30 300.5,-10 280.5,-10"/>
<text text-anchor="start" x="304.13" y="-15.4" font-family="sans-serif" font-size="14.00"> &#160;Declarations</text>
<polygon fill="#8dd3c7" stroke="transparent" points="393.5,-10 393.5,-30 413.5,-30 413.5,-10 393.5,-10"/>
<text text-anchor="start" x="417.23" y="-15.4" font-family="sans-serif" font-size="14.00"> &#160;Module</text>
<polygon fill="#80b1d3" stroke="transparent" points="479.5,-10 479.5,-30 499.5,-30 499.5,-10 479.5,-10"/>
<text text-anchor="start" x="503.28" y="-15.4" font-family="sans-serif" font-size="14.00"> &#160;Bootstrap</text>
<polygon fill="#fdb462" stroke="transparent" points="576.5,-10 576.5,-30 596.5,-30 596.5,-10 576.5,-10"/>
<text text-anchor="start" x="600.17" y="-15.4" font-family="sans-serif" font-size="14.00"> &#160;Providers</text>
<polygon fill="#fb8072" stroke="transparent" points="672.5,-10 672.5,-30 692.5,-30 692.5,-10 672.5,-10"/>
<text text-anchor="start" x="696.23" y="-15.4" font-family="sans-serif" font-size="14.00"> &#160;Exports</text>
<g id="clust1" class="cluster">
<title>cluster_ConfiguratorCartEntryInfoModule</title>
<polygon fill="none" stroke="black" stroke-dasharray="1,5" points="8,-70 8,-195 1021,-195 1021,-70 8,-70"/>
</g>
<g id="clust2" class="cluster">
<title>cluster_ConfiguratorCartEntryInfoModule_declarations</title>
<polygon fill="none" stroke="black" points="765,-78 765,-130 1013,-130 1013,-78 765,-78"/>
</g>
<g id="clust4" class="cluster">
<title>cluster_ConfiguratorCartEntryInfoModule_imports</title>
<polygon fill="none" stroke="black" points="16,-78 16,-130 757,-130 757,-78 16,-78"/>
</g>
<!-- ConfiguratorCartEntryInfoComponent -->
<g id="node1" class="node">
<title>ConfiguratorCartEntryInfoComponent</title>
<polygon fill="#ffffb3" stroke="black" points="1005.17,-122 772.83,-122 772.83,-86 1005.17,-86 1005.17,-122"/>
<text text-anchor="middle" x="889" y="-99.8" font-family="Times,serif" font-size="14.00">ConfiguratorCartEntryInfoComponent</text>
</g>
<!-- ConfiguratorCartEntryInfoModule -->
<g id="node2" class="node">
<title>ConfiguratorCartEntryInfoModule</title>
<polygon fill="#8dd3c7" stroke="black" points="443.39,-187 440.39,-191 419.39,-191 416.39,-187 232.61,-187 232.61,-151 443.39,-151 443.39,-187"/>
<text text-anchor="middle" x="338" y="-164.8" font-family="Times,serif" font-size="14.00">ConfiguratorCartEntryInfoModule</text>
</g>
<!-- ConfiguratorCartEntryInfoComponent&#45;&gt;ConfiguratorCartEntryInfoModule -->
<g id="edge1" class="edge">
<title>ConfiguratorCartEntryInfoComponent&#45;&gt;ConfiguratorCartEntryInfoModule</title>
<path fill="none" stroke="black" d="M889,-122.28C889,-143.32 889,-175 889,-175 889,-175 453.26,-175 453.26,-175"/>
<polygon fill="black" stroke="black" points="453.26,-171.5 443.26,-175 453.26,-178.5 453.26,-171.5"/>
</g>
<!-- ConfiguratorIssuesNotificationModule -->
<g id="node3" class="node">
<title>ConfiguratorIssuesNotificationModule</title>
<polygon fill="#8dd3c7" stroke="black" points="748.72,-122 745.72,-126 724.72,-126 721.72,-122 515.28,-122 515.28,-86 748.72,-86 748.72,-122"/>
<text text-anchor="middle" x="632" y="-99.8" font-family="Times,serif" font-size="14.00">ConfiguratorIssuesNotificationModule</text>
</g>
<!-- ConfiguratorIssuesNotificationModule&#45;&gt;ConfiguratorCartEntryInfoModule -->
<g id="edge2" class="edge">
<title>ConfiguratorIssuesNotificationModule&#45;&gt;ConfiguratorCartEntryInfoModule</title>
<path fill="none" stroke="black" d="M632,-122.02C632,-139.37 632,-163 632,-163 632,-163 453.31,-163 453.31,-163"/>
<polygon fill="black" stroke="black" points="453.31,-159.5 443.31,-163 453.31,-166.5 453.31,-159.5"/>
</g>
<!-- ConfigureCartEntryModule -->
<g id="node4" class="node">
<title>ConfigureCartEntryModule</title>
<polygon fill="#8dd3c7" stroke="black" points="496.52,-122 493.52,-126 472.52,-126 469.52,-122 325.48,-122 325.48,-86 496.52,-86 496.52,-122"/>
<text text-anchor="middle" x="411" y="-99.8" font-family="Times,serif" font-size="14.00">ConfigureCartEntryModule</text>
</g>
<!-- ConfigureCartEntryModule&#45;&gt;ConfiguratorCartEntryInfoModule -->
<g id="edge3" class="edge">
<title>ConfigureCartEntryModule&#45;&gt;ConfiguratorCartEntryInfoModule</title>
<path fill="none" stroke="black" d="M384.22,-122.11C384.22,-122.11 384.22,-140.99 384.22,-140.99"/>
<polygon fill="black" stroke="black" points="380.72,-140.99 384.22,-150.99 387.72,-140.99 380.72,-140.99"/>
</g>
<!-- I18nModule -->
<g id="node5" class="node">
<title>I18nModule</title>
<polygon fill="#8dd3c7" stroke="black" points="307.71,-122 304.71,-126 283.71,-126 280.71,-122 222.29,-122 222.29,-86 307.71,-86 307.71,-122"/>
<text text-anchor="middle" x="265" y="-99.8" font-family="Times,serif" font-size="14.00">I18nModule</text>
</g>
<!-- I18nModule&#45;&gt;ConfiguratorCartEntryInfoModule -->
<g id="edge4" class="edge">
<title>I18nModule&#45;&gt;ConfiguratorCartEntryInfoModule</title>
<path fill="none" stroke="black" d="M270.2,-122.11C270.2,-122.11 270.2,-140.99 270.2,-140.99"/>
<polygon fill="black" stroke="black" points="266.7,-140.99 270.2,-150.99 273.7,-140.99 266.7,-140.99"/>
</g>
<!-- IconModule -->
<g id="node6" class="node">
<title>IconModule</title>
<polygon fill="#8dd3c7" stroke="black" points="204.43,-122 201.43,-126 180.43,-126 177.43,-122 119.57,-122 119.57,-86 204.43,-86 204.43,-122"/>
<text text-anchor="middle" x="162" y="-99.8" font-family="Times,serif" font-size="14.00">IconModule</text>
</g>
<!-- IconModule&#45;&gt;ConfiguratorCartEntryInfoModule -->
<g id="edge5" class="edge">
<title>IconModule&#45;&gt;ConfiguratorCartEntryInfoModule</title>
<path fill="none" stroke="black" d="M162,-122.02C162,-139.37 162,-163 162,-163 162,-163 222.57,-163 222.57,-163"/>
<polygon fill="black" stroke="black" points="222.57,-166.5 232.57,-163 222.57,-159.5 222.57,-166.5"/>
</g>
<!-- UrlModule -->
<g id="node7" class="node">
<title>UrlModule</title>
<polygon fill="#8dd3c7" stroke="black" points="102.21,-122 99.21,-126 78.21,-126 75.21,-122 23.79,-122 23.79,-86 102.21,-86 102.21,-122"/>
<text text-anchor="middle" x="63" y="-99.8" font-family="Times,serif" font-size="14.00">UrlModule</text>
</g>
<!-- UrlModule&#45;&gt;ConfiguratorCartEntryInfoModule -->
<g id="edge6" class="edge">
<title>UrlModule&#45;&gt;ConfiguratorCartEntryInfoModule</title>
<path fill="none" stroke="black" d="M63,-122.28C63,-143.32 63,-175 63,-175 63,-175 222.46,-175 222.46,-175"/>
<polygon fill="black" stroke="black" points="222.46,-178.5 232.46,-175 222.46,-171.5 222.46,-178.5"/>
</g>
</g>
</svg>
