<?xml version="1.0" encoding="UTF-8" standalone="no"?>
<!DOCTYPE svg PUBLIC "-//W3C//DTD SVG 1.1//EN"
 "http://www.w3.org/Graphics/SVG/1.1/DTD/svg11.dtd">
<!-- Generated by graphviz version 2.40.1 (20161225.0304)
 -->
<!-- Title: dependencies Pages: 1 -->
<svg width="986pt" height="284pt"
 viewBox="0.00 0.00 986.00 284.00" xmlns="http://www.w3.org/2000/svg" xmlns:xlink="http://www.w3.org/1999/xlink">
<g id="graph0" class="graph" transform="scale(1 1) rotate(0) translate(4 280)">
<title>dependencies</title>
<polygon fill="#ffffff" stroke="transparent" points="-4,4 -4,-280 982,-280 982,4 -4,4"/>
<text text-anchor="start" x="468.0091" y="-42.4" font-family="sans-serif" font-weight="bold" font-size="14.00" fill="#000000">Legend</text>
<polygon fill="#ffffb3" stroke="transparent" points="255,-10 255,-30 275,-30 275,-10 255,-10"/>
<text text-anchor="start" x="278.629" y="-15.4" font-family="sans-serif" font-size="14.00" fill="#000000"> &#160;Declarations</text>
<polygon fill="#8dd3c7" stroke="transparent" points="368,-10 368,-30 388,-30 388,-10 368,-10"/>
<text text-anchor="start" x="391.7251" y="-15.4" font-family="sans-serif" font-size="14.00" fill="#000000"> &#160;Module</text>
<polygon fill="#80b1d3" stroke="transparent" points="454,-10 454,-30 474,-30 474,-10 454,-10"/>
<text text-anchor="start" x="477.7812" y="-15.4" font-family="sans-serif" font-size="14.00" fill="#000000"> &#160;Bootstrap</text>
<polygon fill="#fdb462" stroke="transparent" points="551,-10 551,-30 571,-30 571,-10 551,-10"/>
<text text-anchor="start" x="574.6732" y="-15.4" font-family="sans-serif" font-size="14.00" fill="#000000"> &#160;Providers</text>
<polygon fill="#fb8072" stroke="transparent" points="647,-10 647,-30 667,-30 667,-10 647,-10"/>
<text text-anchor="start" x="670.7258" y="-15.4" font-family="sans-serif" font-size="14.00" fill="#000000"> &#160;Exports</text>
<g id="clust1" class="cluster">
<title>cluster_AnonymousConsentsDialogModule</title>
<polygon fill="none" stroke="#000000" stroke-dasharray="1,5" points="8,-70 8,-268 970,-268 970,-70 8,-70"/>
</g>
<g id="clust2" class="cluster">
<title>cluster_AnonymousConsentsDialogModule_declarations</title>
<polygon fill="none" stroke="#000000" points="712,-78 712,-130 962,-130 962,-78 712,-78"/>
</g>
<g id="clust4" class="cluster">
<title>cluster_AnonymousConsentsDialogModule_imports</title>
<polygon fill="none" stroke="#000000" points="16,-78 16,-130 704,-130 704,-78 16,-78"/>
</g>
<g id="clust5" class="cluster">
<title>cluster_AnonymousConsentsDialogModule_exports</title>
<polygon fill="none" stroke="#000000" points="278,-208 278,-260 532,-260 532,-208 278,-208"/>
</g>
<!-- AnonymousConsentDialogComponent -->
<g id="node1" class="node">
<title>AnonymousConsentDialogComponent</title>
<polygon fill="#ffffb3" stroke="#000000" points="953.7631,-122 720.2369,-122 720.2369,-86 953.7631,-86 953.7631,-122"/>
<text text-anchor="middle" x="837" y="-99.8" font-family="Times,serif" font-size="14.00" fill="#000000">AnonymousConsentDialogComponent</text>
</g>
<!-- AnonymousConsentsDialogModule -->
<g id="node2" class="node">
<title>AnonymousConsentsDialogModule</title>
<polygon fill="#8dd3c7" stroke="#000000" points="513.9254,-187 510.9254,-191 489.9254,-191 486.9254,-187 296.0746,-187 296.0746,-151 513.9254,-151 513.9254,-187"/>
<text text-anchor="middle" x="405" y="-164.8" font-family="Times,serif" font-size="14.00" fill="#000000">AnonymousConsentsDialogModule</text>
</g>
<!-- AnonymousConsentDialogComponent&#45;&gt;AnonymousConsentsDialogModule -->
<g id="edge1" class="edge">
<title>AnonymousConsentDialogComponent&#45;&gt;AnonymousConsentsDialogModule</title>
<path fill="none" stroke="#000000" d="M837,-122.1061C837,-141.3391 837,-169 837,-169 837,-169 523.7329,-169 523.7329,-169"/>
<polygon fill="#000000" stroke="#000000" points="523.733,-165.5001 513.7329,-169 523.7329,-172.5001 523.733,-165.5001"/>
</g>
<!-- AnonymousConsentDialogComponent  -->
<g id="node8" class="node">
<title>AnonymousConsentDialogComponent </title>
<polygon fill="#fb8072" stroke="#000000" points="523.7631,-252 286.2369,-252 286.2369,-216 523.7631,-216 523.7631,-252"/>
<text text-anchor="middle" x="405" y="-229.8" font-family="Times,serif" font-size="14.00" fill="#000000">AnonymousConsentDialogComponent </text>
</g>
<!-- AnonymousConsentsDialogModule&#45;&gt;AnonymousConsentDialogComponent  -->
<g id="edge7" class="edge">
<title>AnonymousConsentsDialogModule&#45;&gt;AnonymousConsentDialogComponent </title>
<path fill="none" stroke="#000000" stroke-dasharray="5,2" d="M405,-187.1061C405,-187.1061 405,-205.991 405,-205.991"/>
<polygon fill="#000000" stroke="#000000" points="401.5001,-205.9909 405,-215.991 408.5001,-205.991 401.5001,-205.9909"/>
</g>
<!-- ConsentManagementModule -->
<g id="node3" class="node">
<title>ConsentManagementModule</title>
<polygon fill="#8dd3c7" stroke="#000000" points="696.021,-122 693.021,-126 672.021,-126 669.021,-122 517.979,-122 517.979,-86 696.021,-86 696.021,-122"/>
<text text-anchor="middle" x="607" y="-99.8" font-family="Times,serif" font-size="14.00" fill="#000000">ConsentManagementModule</text>
</g>
<!-- ConsentManagementModule&#45;&gt;AnonymousConsentsDialogModule -->
<g id="edge2" class="edge">
<title>ConsentManagementModule&#45;&gt;AnonymousConsentsDialogModule</title>
<path fill="none" stroke="#000000" d="M517.7805,-104C510.9597,-104 506.6589,-104 506.6589,-104 506.6589,-104 506.6589,-140.8939 506.6589,-140.8939"/>
<polygon fill="#000000" stroke="#000000" points="503.1589,-140.8938 506.6589,-150.8939 510.1589,-140.8939 503.1589,-140.8938"/>
</g>
<!-- I18nModule -->
<g id="node4" class="node">
<title>I18nModule</title>
<polygon fill="#8dd3c7" stroke="#000000" points="499.7107,-122 496.7107,-126 475.7107,-126 472.7107,-122 414.2893,-122 414.2893,-86 499.7107,-86 499.7107,-122"/>
<text text-anchor="middle" x="457" y="-99.8" font-family="Times,serif" font-size="14.00" fill="#000000">I18nModule</text>
</g>
<!-- I18nModule&#45;&gt;AnonymousConsentsDialogModule -->
<g id="edge3" class="edge">
<title>I18nModule&#45;&gt;AnonymousConsentsDialogModule</title>
<path fill="none" stroke="#000000" d="M457,-122.1061C457,-122.1061 457,-140.991 457,-140.991"/>
<polygon fill="#000000" stroke="#000000" points="453.5001,-140.9909 457,-150.991 460.5001,-140.991 453.5001,-140.9909"/>
</g>
<!-- IconModule -->
<g id="node5" class="node">
<title>IconModule</title>
<polygon fill="#8dd3c7" stroke="#000000" points="396.4261,-122 393.4261,-126 372.4261,-126 369.4261,-122 311.5739,-122 311.5739,-86 396.4261,-86 396.4261,-122"/>
<text text-anchor="middle" x="354" y="-99.8" font-family="Times,serif" font-size="14.00" fill="#000000">IconModule</text>
</g>
<!-- IconModule&#45;&gt;AnonymousConsentsDialogModule -->
<g id="edge4" class="edge">
<title>IconModule&#45;&gt;AnonymousConsentsDialogModule</title>
<path fill="none" stroke="#000000" d="M354,-122.1061C354,-122.1061 354,-140.991 354,-140.991"/>
<polygon fill="#000000" stroke="#000000" points="350.5001,-140.9909 354,-150.991 357.5001,-140.991 350.5001,-140.9909"/>
</g>
<!-- KeyboardFocusModule -->
<g id="node6" class="node">
<title>KeyboardFocusModule</title>
<polygon fill="#8dd3c7" stroke="#000000" points="294.1881,-122 291.1881,-126 270.1881,-126 267.1881,-122 145.8119,-122 145.8119,-86 294.1881,-86 294.1881,-122"/>
<text text-anchor="middle" x="220" y="-99.8" font-family="Times,serif" font-size="14.00" fill="#000000">KeyboardFocusModule</text>
</g>
<!-- KeyboardFocusModule&#45;&gt;AnonymousConsentsDialogModule -->
<g id="edge5" class="edge">
<title>KeyboardFocusModule&#45;&gt;AnonymousConsentsDialogModule</title>
<path fill="none" stroke="#000000" d="M290.2313,-122.0225C290.2313,-139.3734 290.2313,-163 290.2313,-163 290.2313,-163 290.8162,-163 290.8162,-163"/>
<polygon fill="#000000" stroke="#000000" points="286.0805,-166.5002 296.0804,-163 286.0804,-159.5002 286.0805,-166.5002"/>
</g>
<!-- SpinnerModule -->
<g id="node7" class="node">
<title>SpinnerModule</title>
<polygon fill="#8dd3c7" stroke="#000000" points="127.5982,-122 124.5982,-126 103.5982,-126 100.5982,-122 24.4018,-122 24.4018,-86 127.5982,-86 127.5982,-122"/>
<text text-anchor="middle" x="76" y="-99.8" font-family="Times,serif" font-size="14.00" fill="#000000">SpinnerModule</text>
</g>
<!-- SpinnerModule&#45;&gt;AnonymousConsentsDialogModule -->
<g id="edge6" class="edge">
<title>SpinnerModule&#45;&gt;AnonymousConsentsDialogModule</title>
<path fill="none" stroke="#000000" d="M76,-122.2843C76,-143.3211 76,-175 76,-175 76,-175 285.9047,-175 285.9047,-175"/>
<polygon fill="#000000" stroke="#000000" points="285.9048,-178.5001 295.9047,-175 285.9047,-171.5001 285.9048,-178.5001"/>
</g>
</g>
</svg>
