<?xml version="1.0" encoding="UTF-8" standalone="no"?>
<!DOCTYPE svg PUBLIC "-//W3C//DTD SVG 1.1//EN"
 "http://www.w3.org/Graphics/SVG/1.1/DTD/svg11.dtd">
<!-- Generated by graphviz version 2.47.3 (20210619.1520)
 -->
<!-- Title: dependencies Pages: 1 -->
<svg width="280pt" height="247pt"
 viewBox="0.00 0.00 280.00 246.80" xmlns="http://www.w3.org/2000/svg" xmlns:xlink="http://www.w3.org/1999/xlink">
<g id="graph0" class="graph" transform="scale(1 1) rotate(0) translate(4 242.8)">
<title>dependencies</title>
<polygon fill="white" stroke="transparent" points="-4,4 -4,-242.8 276,-242.8 276,4 -4,4"/>
<text text-anchor="middle" x="136" y="-8.2" font-family="sans-serif" font-size="14.00">dependencies</text>
<g id="clust1" class="cluster">
<title>cluster_KeyboardFocusModule</title>
<polygon fill="none" stroke="black" stroke-dasharray="1,5" points="8,-32.8 8,-230.8 264,-230.8 264,-32.8 8,-32.8"/>
</g>
<g id="clust2" class="cluster">
<title>cluster_KeyboardFocusModule_declarations</title>
<polygon fill="none" stroke="black" points="138,-40.8 138,-92.8 256,-92.8 256,-40.8 138,-40.8"/>
</g>
<g id="clust5" class="cluster">
<title>cluster_KeyboardFocusModule_exports</title>
<polygon fill="none" stroke="black" points="75,-170.8 75,-222.8 197,-222.8 197,-170.8 75,-170.8"/>
</g>
<g id="clust4" class="cluster">
<title>cluster_KeyboardFocusModule_imports</title>
<polygon fill="none" stroke="black" points="16,-40.8 16,-92.8 130,-92.8 130,-40.8 16,-40.8"/>
</g>
<!-- FocusDirective -->
<g id="node1" class="node">
<title>FocusDirective</title>
<polygon fill="#ffffb3" stroke="black" points="247.53,-84.8 146.47,-84.8 146.47,-48.8 247.53,-48.8 247.53,-84.8"/>
<text text-anchor="middle" x="197" y="-62.6" font-family="Times,serif" font-size="14.00">FocusDirective</text>
</g>
<!-- KeyboardFocusModule -->
<g id="node2" class="node">
<title>KeyboardFocusModule</title>
<polygon fill="#8dd3c7" stroke="black" points="210.19,-149.8 207.19,-153.8 186.19,-153.8 183.19,-149.8 61.81,-149.8 61.81,-113.8 210.19,-113.8 210.19,-149.8"/>
<text text-anchor="middle" x="136" y="-127.6" font-family="Times,serif" font-size="14.00">KeyboardFocusModule</text>
</g>
<!-- FocusDirective&#45;&gt;KeyboardFocusModule -->
<g id="edge1" class="edge">
<title>FocusDirective&#45;&gt;KeyboardFocusModule</title>
<path fill="none" stroke="black" d="M178.17,-84.91C178.17,-84.91 178.17,-103.79 178.17,-103.79"/>
<polygon fill="black" stroke="black" points="174.67,-103.79 178.17,-113.79 181.67,-103.79 174.67,-103.79"/>
</g>
<!-- FocusDirective  -->
<g id="node4" class="node">
<title>FocusDirective </title>
<polygon fill="#fb8072" stroke="black" points="188.52,-214.8 83.48,-214.8 83.48,-178.8 188.52,-178.8 188.52,-214.8"/>
<text text-anchor="middle" x="136" y="-192.6" font-family="Times,serif" font-size="14.00">FocusDirective </text>
</g>
<!-- KeyboardFocusModule&#45;&gt;FocusDirective  -->
<g id="edge3" class="edge">
<title>KeyboardFocusModule&#45;&gt;FocusDirective </title>
<path fill="none" stroke="black" stroke-dasharray="5,2" d="M136,-149.91C136,-149.91 136,-168.79 136,-168.79"/>
<polygon fill="black" stroke="black" points="132.5,-168.79 136,-178.79 139.5,-168.79 132.5,-168.79"/>
</g>
<!-- ConfigModule -->
<g id="node3" class="node">
<title>ConfigModule</title>
<polygon fill="#8dd3c7" stroke="black" points="122.44,-84.8 119.44,-88.8 98.44,-88.8 95.44,-84.8 23.56,-84.8 23.56,-48.8 122.44,-48.8 122.44,-84.8"/>
<text text-anchor="middle" x="73" y="-62.6" font-family="Times,serif" font-size="14.00">ConfigModule</text>
</g>
<!-- ConfigModule&#45;&gt;KeyboardFocusModule -->
<g id="edge2" class="edge">
<title>ConfigModule&#45;&gt;KeyboardFocusModule</title>
<path fill="none" stroke="black" d="M92.06,-84.91C92.06,-84.91 92.06,-103.79 92.06,-103.79"/>
<polygon fill="black" stroke="black" points="88.56,-103.79 92.06,-113.79 95.56,-103.79 88.56,-103.79"/>
</g>
</g>
</svg>
