<?xml version="1.0" encoding="UTF-8" standalone="no"?>
<!DOCTYPE svg PUBLIC "-//W3C//DTD SVG 1.1//EN"
 "http://www.w3.org/Graphics/SVG/1.1/DTD/svg11.dtd">
<!-- Generated by graphviz version 2.47.3 (20210619.1520)
 -->
<!-- Title: dependencies Pages: 1 -->
<svg width="310pt" height="174pt"
 viewBox="0.00 0.00 310.00 173.80" xmlns="http://www.w3.org/2000/svg" xmlns:xlink="http://www.w3.org/1999/xlink">
<g id="graph0" class="graph" transform="scale(1 1) rotate(0) translate(4 169.8)">
<title>dependencies</title>
<polygon fill="white" stroke="transparent" points="-4,4 -4,-169.8 306,-169.8 306,4 -4,4"/>
<text text-anchor="middle" x="151" y="-8.2" font-family="sans-serif" font-size="14.00">dependencies</text>
<g id="clust1" class="cluster">
<title>cluster_AuthModule</title>
<polygon fill="none" stroke="black" stroke-dasharray="1,5" points="8,-32.8 8,-157.8 294,-157.8 294,-32.8 8,-32.8"/>
</g>
<g id="clust3" class="cluster">
<title>cluster_AuthModule_imports</title>
<polygon fill="none" stroke="black" points="16,-40.8 16,-92.8 286,-92.8 286,-40.8 16,-40.8"/>
</g>
<!-- ClientAuthModule -->
<g id="node1" class="node">
<title>ClientAuthModule</title>
<polygon fill="#8dd3c7" stroke="black" points="277.77,-84.8 274.77,-88.8 253.77,-88.8 250.77,-84.8 156.23,-84.8 156.23,-48.8 277.77,-48.8 277.77,-84.8"/>
<text text-anchor="middle" x="217" y="-62.6" font-family="Times,serif" font-size="14.00">ClientAuthModule</text>
</g>
<!-- AuthModule -->
<g id="node3" class="node">
<title>AuthModule</title>
<polygon fill="#8dd3c7" stroke="black" points="192.55,-149.8 189.55,-153.8 168.55,-153.8 165.55,-149.8 105.45,-149.8 105.45,-113.8 192.55,-113.8 192.55,-149.8"/>
<text text-anchor="middle" x="149" y="-127.6" font-family="Times,serif" font-size="14.00">AuthModule</text>
</g>
<!-- ClientAuthModule&#45;&gt;AuthModule -->
<g id="edge1" class="edge">
<title>ClientAuthModule&#45;&gt;AuthModule</title>
<path fill="none" stroke="black" d="M174.44,-84.91C174.44,-84.91 174.44,-103.79 174.44,-103.79"/>
<polygon fill="black" stroke="black" points="170.94,-103.79 174.44,-113.79 177.94,-103.79 170.94,-103.79"/>
</g>
<!-- UserAuthModule -->
<g id="node2" class="node">
<title>UserAuthModule</title>
<polygon fill="#8dd3c7" stroke="black" points="137.97,-84.8 134.97,-88.8 113.97,-88.8 110.97,-84.8 24.03,-84.8 24.03,-48.8 137.97,-48.8 137.97,-84.8"/>
<text text-anchor="middle" x="81" y="-62.6" font-family="Times,serif" font-size="14.00">UserAuthModule</text>
</g>
<!-- UserAuthModule&#45;&gt;AuthModule -->
<g id="edge2" class="edge">
<title>UserAuthModule&#45;&gt;AuthModule</title>
<path fill="none" stroke="black" d="M121.61,-84.91C121.61,-84.91 121.61,-103.79 121.61,-103.79"/>
<polygon fill="black" stroke="black" points="118.11,-103.79 121.61,-113.79 125.11,-103.79 118.11,-103.79"/>
</g>
</g>
</svg>
