<?xml version="1.0" encoding="UTF-8" standalone="no"?>
<!DOCTYPE svg PUBLIC "-//W3C//DTD SVG 1.1//EN"
 "http://www.w3.org/Graphics/SVG/1.1/DTD/svg11.dtd">
<!-- Generated by graphviz version 2.47.0 (20210316.0004)
 -->
<!-- Title: dependencies Pages: 1 -->
<svg width="784pt" height="284pt"
 viewBox="0.00 0.00 784.00 284.00" xmlns="http://www.w3.org/2000/svg" xmlns:xlink="http://www.w3.org/1999/xlink">
<g id="graph0" class="graph" transform="scale(1 1) rotate(0) translate(4 280)">
<title>dependencies</title>
<polygon fill="white" stroke="transparent" points="-4,4 -4,-280 780,-280 780,4 -4,4"/>
<text text-anchor="start" x="367.01" y="-42.4" font-family="sans-serif" font-weight="bold" font-size="14.00">Legend</text>
<polygon fill="#ffffb3" stroke="transparent" points="154,-10 154,-30 174,-30 174,-10 154,-10"/>
<text text-anchor="start" x="177.63" y="-15.4" font-family="sans-serif" font-size="14.00"> &#160;Declarations</text>
<polygon fill="#8dd3c7" stroke="transparent" points="267,-10 267,-30 287,-30 287,-10 267,-10"/>
<text text-anchor="start" x="290.73" y="-15.4" font-family="sans-serif" font-size="14.00"> &#160;Module</text>
<polygon fill="#80b1d3" stroke="transparent" points="353,-10 353,-30 373,-30 373,-10 353,-10"/>
<text text-anchor="start" x="376.78" y="-15.4" font-family="sans-serif" font-size="14.00"> &#160;Bootstrap</text>
<polygon fill="#fdb462" stroke="transparent" points="450,-10 450,-30 470,-30 470,-10 450,-10"/>
<text text-anchor="start" x="473.67" y="-15.4" font-family="sans-serif" font-size="14.00"> &#160;Providers</text>
<polygon fill="#fb8072" stroke="transparent" points="546,-10 546,-30 566,-30 566,-10 546,-10"/>
<text text-anchor="start" x="569.73" y="-15.4" font-family="sans-serif" font-size="14.00"> &#160;Exports</text>
<g id="clust1" class="cluster">
<title>cluster_SavedCartFormDialogModule</title>
<polygon fill="none" stroke="black" stroke-dasharray="1,5" points="8,-70 8,-268 768,-268 768,-70 8,-70"/>
</g>
<g id="clust2" class="cluster">
<title>cluster_SavedCartFormDialogModule_declarations</title>
<polygon fill="none" stroke="black" points="536,-78 536,-130 760,-130 760,-78 536,-78"/>
</g>
<g id="clust5" class="cluster">
<title>cluster_SavedCartFormDialogModule_exports</title>
<polygon fill="none" stroke="black" points="221,-208 221,-260 449,-260 449,-208 221,-208"/>
</g>
<g id="clust4" class="cluster">
<title>cluster_SavedCartFormDialogModule_imports</title>
<polygon fill="none" stroke="black" points="16,-78 16,-130 528,-130 528,-78 16,-78"/>
</g>
<!-- SavedCartFormDialogComponent -->
<g id="node1" class="node">
<title>SavedCartFormDialogComponent</title>
<polygon fill="#ffffb3" stroke="black" points="752.08,-122 543.92,-122 543.92,-86 752.08,-86 752.08,-122"/>
<text text-anchor="middle" x="648" y="-99.8" font-family="Times,serif" font-size="14.00">SavedCartFormDialogComponent</text>
</g>
<!-- SavedCartFormDialogModule -->
<g id="node2" class="node">
<title>SavedCartFormDialogModule</title>
<polygon fill="#8dd3c7" stroke="black" points="428.3,-187 425.3,-191 404.3,-191 401.3,-187 241.7,-187 241.7,-151 428.3,-151 428.3,-187"/>
<text text-anchor="middle" x="335" y="-164.8" font-family="Times,serif" font-size="14.00">SavedCartFormDialogModule</text>
</g>
<!-- SavedCartFormDialogComponent&#45;&gt;SavedCartFormDialogModule -->
<g id="edge1" class="edge">
<title>SavedCartFormDialogComponent&#45;&gt;SavedCartFormDialogModule</title>
<path fill="none" stroke="black" d="M648,-122.11C648,-141.34 648,-169 648,-169 648,-169 438.49,-169 438.49,-169"/>
<polygon fill="black" stroke="black" points="438.49,-165.5 428.49,-169 438.49,-172.5 438.49,-165.5"/>
</g>
<!-- SavedCartFormDialogComponent  -->
<g id="node7" class="node">
<title>SavedCartFormDialogComponent </title>
<polygon fill="#fb8072" stroke="black" points="440.58,-252 229.42,-252 229.42,-216 440.58,-216 440.58,-252"/>
<text text-anchor="middle" x="335" y="-229.8" font-family="Times,serif" font-size="14.00">SavedCartFormDialogComponent </text>
</g>
<!-- SavedCartFormDialogModule&#45;&gt;SavedCartFormDialogComponent  -->
<g id="edge6" class="edge">
<title>SavedCartFormDialogModule&#45;&gt;SavedCartFormDialogComponent </title>
<path fill="none" stroke="black" stroke-dasharray="5,2" d="M335,-187.11C335,-187.11 335,-205.99 335,-205.99"/>
<polygon fill="black" stroke="black" points="331.5,-205.99 335,-215.99 338.5,-205.99 331.5,-205.99"/>
</g>
<!-- FormErrorsModule -->
<g id="node3" class="node">
<title>FormErrorsModule</title>
<polygon fill="#8dd3c7" stroke="black" points="520.36,-122 517.36,-126 496.36,-126 493.36,-122 395.64,-122 395.64,-86 520.36,-86 520.36,-122"/>
<text text-anchor="middle" x="458" y="-99.8" font-family="Times,serif" font-size="14.00">FormErrorsModule</text>
</g>
<!-- FormErrorsModule&#45;&gt;SavedCartFormDialogModule -->
<g id="edge2" class="edge">
<title>FormErrorsModule&#45;&gt;SavedCartFormDialogModule</title>
<path fill="none" stroke="black" d="M411.86,-122.11C411.86,-122.11 411.86,-140.99 411.86,-140.99"/>
<polygon fill="black" stroke="black" points="408.36,-140.99 411.86,-150.99 415.36,-140.99 408.36,-140.99"/>
</g>
<!-- I18nModule -->
<g id="node4" class="node">
<title>I18nModule</title>
<polygon fill="#8dd3c7" stroke="black" points="377.71,-122 374.71,-126 353.71,-126 350.71,-122 292.29,-122 292.29,-86 377.71,-86 377.71,-122"/>
<text text-anchor="middle" x="335" y="-99.8" font-family="Times,serif" font-size="14.00">I18nModule</text>
</g>
<!-- I18nModule&#45;&gt;SavedCartFormDialogModule -->
<g id="edge3" class="edge">
<title>I18nModule&#45;&gt;SavedCartFormDialogModule</title>
<path fill="none" stroke="black" d="M335,-122.11C335,-122.11 335,-140.99 335,-140.99"/>
<polygon fill="black" stroke="black" points="331.5,-140.99 335,-150.99 338.5,-140.99 331.5,-140.99"/>
</g>
<!-- IconModule -->
<g id="node5" class="node">
<title>IconModule</title>
<polygon fill="#8dd3c7" stroke="black" points="274.43,-122 271.43,-126 250.43,-126 247.43,-122 189.57,-122 189.57,-86 274.43,-86 274.43,-122"/>
<text text-anchor="middle" x="232" y="-99.8" font-family="Times,serif" font-size="14.00">IconModule</text>
</g>
<!-- IconModule&#45;&gt;SavedCartFormDialogModule -->
<g id="edge4" class="edge">
<title>IconModule&#45;&gt;SavedCartFormDialogModule</title>
<path fill="none" stroke="black" d="M258.03,-122.11C258.03,-122.11 258.03,-140.99 258.03,-140.99"/>
<polygon fill="black" stroke="black" points="254.53,-140.99 258.03,-150.99 261.53,-140.99 254.53,-140.99"/>
</g>
<!-- KeyboardFocusModule -->
<g id="node6" class="node">
<title>KeyboardFocusModule</title>
<polygon fill="#8dd3c7" stroke="black" points="172.19,-122 169.19,-126 148.19,-126 145.19,-122 23.81,-122 23.81,-86 172.19,-86 172.19,-122"/>
<text text-anchor="middle" x="98" y="-99.8" font-family="Times,serif" font-size="14.00">KeyboardFocusModule</text>
</g>
<!-- KeyboardFocusModule&#45;&gt;SavedCartFormDialogModule -->
<g id="edge5" class="edge">
<title>KeyboardFocusModule&#45;&gt;SavedCartFormDialogModule</title>
<path fill="none" stroke="black" d="M98,-122.11C98,-141.34 98,-169 98,-169 98,-169 231.67,-169 231.67,-169"/>
<polygon fill="black" stroke="black" points="231.67,-172.5 241.67,-169 231.67,-165.5 231.67,-172.5"/>
</g>
</g>
</svg>
