<?xml version="1.0" encoding="UTF-8" standalone="no"?>
<!DOCTYPE svg PUBLIC "-//W3C//DTD SVG 1.1//EN"
 "http://www.w3.org/Graphics/SVG/1.1/DTD/svg11.dtd">
<!-- Generated by graphviz version 2.47.3 (20210619.1520)
 -->
<!-- Title: dependencies Pages: 1 -->
<svg width="784pt" height="247pt"
 viewBox="0.00 0.00 784.00 246.80" xmlns="http://www.w3.org/2000/svg" xmlns:xlink="http://www.w3.org/1999/xlink">
<g id="graph0" class="graph" transform="scale(1 1) rotate(0) translate(4 242.8)">
<title>dependencies</title>
<polygon fill="white" stroke="transparent" points="-4,4 -4,-242.8 780,-242.8 780,4 -4,4"/>
<text text-anchor="middle" x="388" y="-8.2" font-family="sans-serif" font-size="14.00">dependencies</text>
<g id="clust1" class="cluster">
<title>cluster_SavedCartFormDialogModule</title>
<polygon fill="none" stroke="black" stroke-dasharray="1,5" points="8,-32.8 8,-230.8 768,-230.8 768,-32.8 8,-32.8"/>
</g>
<g id="clust4" class="cluster">
<title>cluster_SavedCartFormDialogModule_imports</title>
<polygon fill="none" stroke="black" points="248,-40.8 248,-92.8 760,-92.8 760,-40.8 248,-40.8"/>
</g>
<g id="clust5" class="cluster">
<title>cluster_SavedCartFormDialogModule_exports</title>
<polygon fill="none" stroke="black" points="350,-170.8 350,-222.8 578,-222.8 578,-170.8 350,-170.8"/>
</g>
<g id="clust2" class="cluster">
<title>cluster_SavedCartFormDialogModule_declarations</title>
<polygon fill="none" stroke="black" points="16,-40.8 16,-92.8 240,-92.8 240,-40.8 16,-40.8"/>
</g>
<!-- SavedCartFormDialogComponent -->
<g id="node1" class="node">
<title>SavedCartFormDialogComponent</title>
<polygon fill="#ffffb3" stroke="black" points="232.08,-84.8 23.92,-84.8 23.92,-48.8 232.08,-48.8 232.08,-84.8"/>
<text text-anchor="middle" x="128" y="-62.6" font-family="Times,serif" font-size="14.00">SavedCartFormDialogComponent</text>
</g>
<!-- SavedCartFormDialogModule -->
<g id="node2" class="node">
<title>SavedCartFormDialogModule</title>
<polygon fill="#8dd3c7" stroke="black" points="557.3,-149.8 554.3,-153.8 533.3,-153.8 530.3,-149.8 370.7,-149.8 370.7,-113.8 557.3,-113.8 557.3,-149.8"/>
<text text-anchor="middle" x="464" y="-127.6" font-family="Times,serif" font-size="14.00">SavedCartFormDialogModule</text>
</g>
<!-- SavedCartFormDialogComponent&#45;&gt;SavedCartFormDialogModule -->
<g id="edge1" class="edge">
<title>SavedCartFormDialogComponent&#45;&gt;SavedCartFormDialogModule</title>
<path fill="none" stroke="black" d="M128,-84.91C128,-104.14 128,-131.8 128,-131.8 128,-131.8 360.41,-131.8 360.41,-131.8"/>
<polygon fill="black" stroke="black" points="360.41,-135.3 370.41,-131.8 360.41,-128.3 360.41,-135.3"/>
</g>
<!-- SavedCartFormDialogComponent  -->
<g id="node7" class="node">
<title>SavedCartFormDialogComponent </title>
<polygon fill="#fb8072" stroke="black" points="569.58,-214.8 358.42,-214.8 358.42,-178.8 569.58,-178.8 569.58,-214.8"/>
<text text-anchor="middle" x="464" y="-192.6" font-family="Times,serif" font-size="14.00">SavedCartFormDialogComponent </text>
</g>
<!-- SavedCartFormDialogModule&#45;&gt;SavedCartFormDialogComponent  -->
<g id="edge6" class="edge">
<title>SavedCartFormDialogModule&#45;&gt;SavedCartFormDialogComponent </title>
<path fill="none" stroke="black" stroke-dasharray="5,2" d="M464,-149.91C464,-149.91 464,-168.79 464,-168.79"/>
<polygon fill="black" stroke="black" points="460.5,-168.79 464,-178.79 467.5,-168.79 460.5,-168.79"/>
</g>
<!-- FormErrorsModule -->
<g id="node3" class="node">
<title>FormErrorsModule</title>
<polygon fill="#8dd3c7" stroke="black" points="752.36,-84.8 749.36,-88.8 728.36,-88.8 725.36,-84.8 627.64,-84.8 627.64,-48.8 752.36,-48.8 752.36,-84.8"/>
<text text-anchor="middle" x="690" y="-62.6" font-family="Times,serif" font-size="14.00">FormErrorsModule</text>
</g>
<!-- FormErrorsModule&#45;&gt;SavedCartFormDialogModule -->
<g id="edge2" class="edge">
<title>FormErrorsModule&#45;&gt;SavedCartFormDialogModule</title>
<path fill="none" stroke="black" d="M690,-84.91C690,-104.14 690,-131.8 690,-131.8 690,-131.8 567.23,-131.8 567.23,-131.8"/>
<polygon fill="black" stroke="black" points="567.23,-128.3 557.23,-131.8 567.23,-135.3 567.23,-128.3"/>
</g>
<!-- I18nModule -->
<g id="node4" class="node">
<title>I18nModule</title>
<polygon fill="#8dd3c7" stroke="black" points="609.71,-84.8 606.71,-88.8 585.71,-88.8 582.71,-84.8 524.29,-84.8 524.29,-48.8 609.71,-48.8 609.71,-84.8"/>
<text text-anchor="middle" x="567" y="-62.6" font-family="Times,serif" font-size="14.00">I18nModule</text>
</g>
<!-- I18nModule&#45;&gt;SavedCartFormDialogModule -->
<g id="edge3" class="edge">
<title>I18nModule&#45;&gt;SavedCartFormDialogModule</title>
<path fill="none" stroke="black" d="M540.77,-84.91C540.77,-84.91 540.77,-103.79 540.77,-103.79"/>
<polygon fill="black" stroke="black" points="537.27,-103.79 540.77,-113.79 544.27,-103.79 537.27,-103.79"/>
</g>
<!-- IconModule -->
<g id="node5" class="node">
<title>IconModule</title>
<polygon fill="#8dd3c7" stroke="black" points="506.43,-84.8 503.43,-88.8 482.43,-88.8 479.43,-84.8 421.57,-84.8 421.57,-48.8 506.43,-48.8 506.43,-84.8"/>
<text text-anchor="middle" x="464" y="-62.6" font-family="Times,serif" font-size="14.00">IconModule</text>
</g>
<!-- IconModule&#45;&gt;SavedCartFormDialogModule -->
<g id="edge4" class="edge">
<title>IconModule&#45;&gt;SavedCartFormDialogModule</title>
<path fill="none" stroke="black" d="M464,-84.91C464,-84.91 464,-103.79 464,-103.79"/>
<polygon fill="black" stroke="black" points="460.5,-103.79 464,-113.79 467.5,-103.79 460.5,-103.79"/>
</g>
<!-- KeyboardFocusModule -->
<g id="node6" class="node">
<title>KeyboardFocusModule</title>
<polygon fill="#8dd3c7" stroke="black" points="404.19,-84.8 401.19,-88.8 380.19,-88.8 377.19,-84.8 255.81,-84.8 255.81,-48.8 404.19,-48.8 404.19,-84.8"/>
<text text-anchor="middle" x="330" y="-62.6" font-family="Times,serif" font-size="14.00">KeyboardFocusModule</text>
</g>
<!-- KeyboardFocusModule&#45;&gt;SavedCartFormDialogModule -->
<g id="edge5" class="edge">
<title>KeyboardFocusModule&#45;&gt;SavedCartFormDialogModule</title>
<path fill="none" stroke="black" d="M387.47,-84.91C387.47,-84.91 387.47,-103.79 387.47,-103.79"/>
<polygon fill="black" stroke="black" points="383.97,-103.79 387.47,-113.79 390.97,-103.79 383.97,-103.79"/>
</g>
</g>
</svg>
