<?xml version="1.0" encoding="UTF-8" standalone="no"?>
<!DOCTYPE svg PUBLIC "-//W3C//DTD SVG 1.1//EN"
 "http://www.w3.org/Graphics/SVG/1.1/DTD/svg11.dtd">
<!-- Generated by graphviz version 2.47.0 (20210316.0004)
 -->
<!-- Title: dependencies Pages: 1 -->
<svg width="1423pt" height="284pt"
 viewBox="0.00 0.00 1423.00 284.00" xmlns="http://www.w3.org/2000/svg" xmlns:xlink="http://www.w3.org/1999/xlink">
<g id="graph0" class="graph" transform="scale(1 1) rotate(0) translate(4 280)">
<title>dependencies</title>
<polygon fill="white" stroke="transparent" points="-4,4 -4,-280 1419,-280 1419,4 -4,4"/>
<text text-anchor="start" x="686.51" y="-42.4" font-family="sans-serif" font-weight="bold" font-size="14.00">Legend</text>
<polygon fill="#ffffb3" stroke="transparent" points="473.5,-10 473.5,-30 493.5,-30 493.5,-10 473.5,-10"/>
<text text-anchor="start" x="497.13" y="-15.4" font-family="sans-serif" font-size="14.00"> &#160;Declarations</text>
<polygon fill="#8dd3c7" stroke="transparent" points="586.5,-10 586.5,-30 606.5,-30 606.5,-10 586.5,-10"/>
<text text-anchor="start" x="610.23" y="-15.4" font-family="sans-serif" font-size="14.00"> &#160;Module</text>
<polygon fill="#80b1d3" stroke="transparent" points="672.5,-10 672.5,-30 692.5,-30 692.5,-10 672.5,-10"/>
<text text-anchor="start" x="696.28" y="-15.4" font-family="sans-serif" font-size="14.00"> &#160;Bootstrap</text>
<polygon fill="#fdb462" stroke="transparent" points="769.5,-10 769.5,-30 789.5,-30 789.5,-10 769.5,-10"/>
<text text-anchor="start" x="793.17" y="-15.4" font-family="sans-serif" font-size="14.00"> &#160;Providers</text>
<polygon fill="#fb8072" stroke="transparent" points="865.5,-10 865.5,-30 885.5,-30 885.5,-10 865.5,-10"/>
<text text-anchor="start" x="889.23" y="-15.4" font-family="sans-serif" font-size="14.00"> &#160;Exports</text>
<g id="clust1" class="cluster">
<title>cluster_ConfiguratorAttributeSingleSelectionBundleDropdownModule</title>
<polygon fill="none" stroke="black" stroke-dasharray="1,5" points="8,-70 8,-268 1407,-268 1407,-70 8,-70"/>
</g>
<g id="clust2" class="cluster">
<title>cluster_ConfiguratorAttributeSingleSelectionBundleDropdownModule_declarations</title>
<polygon fill="none" stroke="black" points="991,-78 991,-130 1399,-130 1399,-78 991,-78"/>
</g>
<g id="clust4" class="cluster">
<title>cluster_ConfiguratorAttributeSingleSelectionBundleDropdownModule_imports</title>
<polygon fill="none" stroke="black" points="16,-78 16,-130 983,-130 983,-78 16,-78"/>
</g>
<g id="clust5" class="cluster">
<title>cluster_ConfiguratorAttributeSingleSelectionBundleDropdownModule_exports</title>
<polygon fill="none" stroke="black" points="275,-208 275,-260 687,-260 687,-208 275,-208"/>
</g>
<!-- ConfiguratorAttributeSingleSelectionBundleDropdownComponent -->
<g id="node1" class="node">
<title>ConfiguratorAttributeSingleSelectionBundleDropdownComponent</title>
<polygon fill="#ffffb3" stroke="black" points="1391.38,-122 998.62,-122 998.62,-86 1391.38,-86 1391.38,-122"/>
<text text-anchor="middle" x="1195" y="-99.8" font-family="Times,serif" font-size="14.00">ConfiguratorAttributeSingleSelectionBundleDropdownComponent</text>
</g>
<!-- ConfiguratorAttributeSingleSelectionBundleDropdownModule -->
<g id="node2" class="node">
<title>ConfiguratorAttributeSingleSelectionBundleDropdownModule</title>
<polygon fill="#8dd3c7" stroke="black" points="666.1,-187 663.1,-191 642.1,-191 639.1,-187 295.9,-187 295.9,-151 666.1,-151 666.1,-187"/>
<text text-anchor="middle" x="481" y="-164.8" font-family="Times,serif" font-size="14.00">ConfiguratorAttributeSingleSelectionBundleDropdownModule</text>
</g>
<!-- ConfiguratorAttributeSingleSelectionBundleDropdownComponent&#45;&gt;ConfiguratorAttributeSingleSelectionBundleDropdownModule -->
<g id="edge1" class="edge">
<title>ConfiguratorAttributeSingleSelectionBundleDropdownComponent&#45;&gt;ConfiguratorAttributeSingleSelectionBundleDropdownModule</title>
<path fill="none" stroke="black" d="M1195,-122.28C1195,-143.32 1195,-175 1195,-175 1195,-175 676.27,-175 676.27,-175"/>
<polygon fill="black" stroke="black" points="676.27,-171.5 666.27,-175 676.27,-178.5 676.27,-171.5"/>
</g>
<!-- ConfiguratorAttributeSingleSelectionBundleDropdownComponent  -->
<g id="node8" class="node">
<title>ConfiguratorAttributeSingleSelectionBundleDropdownComponent </title>
<polygon fill="#fb8072" stroke="black" points="678.88,-252 283.12,-252 283.12,-216 678.88,-216 678.88,-252"/>
<text text-anchor="middle" x="481" y="-229.8" font-family="Times,serif" font-size="14.00">ConfiguratorAttributeSingleSelectionBundleDropdownComponent </text>
</g>
<!-- ConfiguratorAttributeSingleSelectionBundleDropdownModule&#45;&gt;ConfiguratorAttributeSingleSelectionBundleDropdownComponent  -->
<g id="edge7" class="edge">
<title>ConfiguratorAttributeSingleSelectionBundleDropdownModule&#45;&gt;ConfiguratorAttributeSingleSelectionBundleDropdownComponent </title>
<path fill="none" stroke="black" stroke-dasharray="5,2" d="M481,-187.11C481,-187.11 481,-205.99 481,-205.99"/>
<polygon fill="black" stroke="black" points="477.5,-205.99 481,-215.99 484.5,-205.99 477.5,-205.99"/>
</g>
<!-- ConfiguratorAttributeProductCardModule -->
<g id="node3" class="node">
<title>ConfiguratorAttributeProductCardModule</title>
<polygon fill="#8dd3c7" stroke="black" points="974.67,-122 971.67,-126 950.67,-126 947.67,-122 721.33,-122 721.33,-86 974.67,-86 974.67,-122"/>
<text text-anchor="middle" x="848" y="-99.8" font-family="Times,serif" font-size="14.00">ConfiguratorAttributeProductCardModule</text>
</g>
<!-- ConfiguratorAttributeProductCardModule&#45;&gt;ConfiguratorAttributeSingleSelectionBundleDropdownModule -->
<g id="edge2" class="edge">
<title>ConfiguratorAttributeProductCardModule&#45;&gt;ConfiguratorAttributeSingleSelectionBundleDropdownModule</title>
<path fill="none" stroke="black" d="M848,-122.02C848,-139.37 848,-163 848,-163 848,-163 676.11,-163 676.11,-163"/>
<polygon fill="black" stroke="black" points="676.11,-159.5 666.11,-163 676.11,-166.5 676.11,-159.5"/>
</g>
<!-- ConfiguratorAttributeQuantityModule -->
<g id="node4" class="node">
<title>ConfiguratorAttributeQuantityModule</title>
<polygon fill="#8dd3c7" stroke="black" points="703.9,-122 700.9,-126 679.9,-126 676.9,-122 472.1,-122 472.1,-86 703.9,-86 703.9,-122"/>
<text text-anchor="middle" x="588" y="-99.8" font-family="Times,serif" font-size="14.00">ConfiguratorAttributeQuantityModule</text>
</g>
<!-- ConfiguratorAttributeQuantityModule&#45;&gt;ConfiguratorAttributeSingleSelectionBundleDropdownModule -->
<g id="edge3" class="edge">
<title>ConfiguratorAttributeQuantityModule&#45;&gt;ConfiguratorAttributeSingleSelectionBundleDropdownModule</title>
<path fill="none" stroke="black" d="M569.3,-122.11C569.3,-122.11 569.3,-140.99 569.3,-140.99"/>
<polygon fill="black" stroke="black" points="565.8,-140.99 569.3,-150.99 572.8,-140.99 565.8,-140.99"/>
</g>
<!-- ConfiguratorPriceModule -->
<g id="node5" class="node">
<title>ConfiguratorPriceModule</title>
<polygon fill="#8dd3c7" stroke="black" points="454.13,-122 451.13,-126 430.13,-126 427.13,-122 293.87,-122 293.87,-86 454.13,-86 454.13,-122"/>
<text text-anchor="middle" x="374" y="-99.8" font-family="Times,serif" font-size="14.00">ConfiguratorPriceModule</text>
</g>
<!-- ConfiguratorPriceModule&#45;&gt;ConfiguratorAttributeSingleSelectionBundleDropdownModule -->
<g id="edge4" class="edge">
<title>ConfiguratorPriceModule&#45;&gt;ConfiguratorAttributeSingleSelectionBundleDropdownModule</title>
<path fill="none" stroke="black" d="M375.01,-122.11C375.01,-122.11 375.01,-140.99 375.01,-140.99"/>
<polygon fill="black" stroke="black" points="371.51,-140.99 375.01,-150.99 378.51,-140.99 371.51,-140.99"/>
</g>
<!-- I18nModule -->
<g id="node6" class="node">
<title>I18nModule</title>
<polygon fill="#8dd3c7" stroke="black" points="275.71,-122 272.71,-126 251.71,-126 248.71,-122 190.29,-122 190.29,-86 275.71,-86 275.71,-122"/>
<text text-anchor="middle" x="233" y="-99.8" font-family="Times,serif" font-size="14.00">I18nModule</text>
</g>
<!-- I18nModule&#45;&gt;ConfiguratorAttributeSingleSelectionBundleDropdownModule -->
<g id="edge5" class="edge">
<title>I18nModule&#45;&gt;ConfiguratorAttributeSingleSelectionBundleDropdownModule</title>
<path fill="none" stroke="black" d="M233,-122.02C233,-139.37 233,-163 233,-163 233,-163 285.58,-163 285.58,-163"/>
<polygon fill="black" stroke="black" points="285.58,-166.5 295.58,-163 285.58,-159.5 285.58,-166.5"/>
</g>
<!-- KeyboardFocusModule -->
<g id="node7" class="node">
<title>KeyboardFocusModule</title>
<polygon fill="#8dd3c7" stroke="black" points="172.19,-122 169.19,-126 148.19,-126 145.19,-122 23.81,-122 23.81,-86 172.19,-86 172.19,-122"/>
<text text-anchor="middle" x="98" y="-99.8" font-family="Times,serif" font-size="14.00">KeyboardFocusModule</text>
</g>
<!-- KeyboardFocusModule&#45;&gt;ConfiguratorAttributeSingleSelectionBundleDropdownModule -->
<g id="edge6" class="edge">
<title>KeyboardFocusModule&#45;&gt;ConfiguratorAttributeSingleSelectionBundleDropdownModule</title>
<path fill="none" stroke="black" d="M98,-122.28C98,-143.32 98,-175 98,-175 98,-175 285.67,-175 285.67,-175"/>
<polygon fill="black" stroke="black" points="285.67,-178.5 295.67,-175 285.67,-171.5 285.67,-178.5"/>
</g>
</g>
</svg>
