<?xml version="1.0" encoding="UTF-8" standalone="no"?>
<!DOCTYPE svg PUBLIC "-//W3C//DTD SVG 1.1//EN"
 "http://www.w3.org/Graphics/SVG/1.1/DTD/svg11.dtd">
<!-- Generated by graphviz version 2.47.0 (20210316.0004)
 -->
<!-- Title: dependencies Pages: 1 -->
<svg width="508pt" height="284pt"
 viewBox="0.00 0.00 508.00 284.00" xmlns="http://www.w3.org/2000/svg" xmlns:xlink="http://www.w3.org/1999/xlink">
<g id="graph0" class="graph" transform="scale(1 1) rotate(0) translate(4 280)">
<title>dependencies</title>
<polygon fill="white" stroke="transparent" points="-4,4 -4,-280 504,-280 504,4 -4,4"/>
<text text-anchor="start" x="229.01" y="-42.4" font-family="sans-serif" font-weight="bold" font-size="14.00">Legend</text>
<polygon fill="#ffffb3" stroke="transparent" points="16,-10 16,-30 36,-30 36,-10 16,-10"/>
<text text-anchor="start" x="39.63" y="-15.4" font-family="sans-serif" font-size="14.00"> &#160;Declarations</text>
<polygon fill="#8dd3c7" stroke="transparent" points="129,-10 129,-30 149,-30 149,-10 129,-10"/>
<text text-anchor="start" x="152.73" y="-15.4" font-family="sans-serif" font-size="14.00"> &#160;Module</text>
<polygon fill="#80b1d3" stroke="transparent" points="215,-10 215,-30 235,-30 235,-10 215,-10"/>
<text text-anchor="start" x="238.78" y="-15.4" font-family="sans-serif" font-size="14.00"> &#160;Bootstrap</text>
<polygon fill="#fdb462" stroke="transparent" points="312,-10 312,-30 332,-30 332,-10 312,-10"/>
<text text-anchor="start" x="335.67" y="-15.4" font-family="sans-serif" font-size="14.00"> &#160;Providers</text>
<polygon fill="#fb8072" stroke="transparent" points="408,-10 408,-30 428,-30 428,-10 408,-10"/>
<text text-anchor="start" x="431.73" y="-15.4" font-family="sans-serif" font-size="14.00"> &#160;Exports</text>
<g id="clust1" class="cluster">
<title>cluster_ConfiguratorAttributeFooterModule</title>
<polygon fill="none" stroke="black" stroke-dasharray="1,5" points="8,-70 8,-268 492,-268 492,-70 8,-70"/>
</g>
<g id="clust4" class="cluster">
<title>cluster_ConfiguratorAttributeFooterModule_imports</title>
<polygon fill="none" stroke="black" points="280,-78 280,-130 484,-130 484,-78 280,-78"/>
</g>
<g id="clust5" class="cluster">
<title>cluster_ConfiguratorAttributeFooterModule_exports</title>
<polygon fill="none" stroke="black" points="200,-208 200,-260 460,-260 460,-208 200,-208"/>
</g>
<g id="clust2" class="cluster">
<title>cluster_ConfiguratorAttributeFooterModule_declarations</title>
<polygon fill="none" stroke="black" points="16,-78 16,-130 272,-130 272,-78 16,-78"/>
</g>
<!-- ConfiguratorAttributeFooterComponent -->
<g id="node1" class="node">
<title>ConfiguratorAttributeFooterComponent</title>
<polygon fill="#ffffb3" stroke="black" points="264.24,-122 23.76,-122 23.76,-86 264.24,-86 264.24,-122"/>
<text text-anchor="middle" x="144" y="-99.8" font-family="Times,serif" font-size="14.00">ConfiguratorAttributeFooterComponent</text>
</g>
<!-- ConfiguratorAttributeFooterModule -->
<g id="node2" class="node">
<title>ConfiguratorAttributeFooterModule</title>
<polygon fill="#8dd3c7" stroke="black" points="439.46,-187 436.46,-191 415.46,-191 412.46,-187 220.54,-187 220.54,-151 439.46,-151 439.46,-187"/>
<text text-anchor="middle" x="330" y="-164.8" font-family="Times,serif" font-size="14.00">ConfiguratorAttributeFooterModule</text>
</g>
<!-- ConfiguratorAttributeFooterComponent&#45;&gt;ConfiguratorAttributeFooterModule -->
<g id="edge1" class="edge">
<title>ConfiguratorAttributeFooterComponent&#45;&gt;ConfiguratorAttributeFooterModule</title>
<path fill="none" stroke="black" d="M242.45,-122.11C242.45,-122.11 242.45,-140.99 242.45,-140.99"/>
<polygon fill="black" stroke="black" points="238.95,-140.99 242.45,-150.99 245.95,-140.99 238.95,-140.99"/>
</g>
<!-- ConfiguratorAttributeFooterComponent  -->
<g id="node5" class="node">
<title>ConfiguratorAttributeFooterComponent </title>
<polygon fill="#fb8072" stroke="black" points="452.24,-252 207.76,-252 207.76,-216 452.24,-216 452.24,-252"/>
<text text-anchor="middle" x="330" y="-229.8" font-family="Times,serif" font-size="14.00">ConfiguratorAttributeFooterComponent </text>
</g>
<!-- ConfiguratorAttributeFooterModule&#45;&gt;ConfiguratorAttributeFooterComponent  -->
<g id="edge4" class="edge">
<title>ConfiguratorAttributeFooterModule&#45;&gt;ConfiguratorAttributeFooterComponent </title>
<path fill="none" stroke="black" stroke-dasharray="5,2" d="M330,-187.11C330,-187.11 330,-205.99 330,-205.99"/>
<polygon fill="black" stroke="black" points="326.5,-205.99 330,-215.99 333.5,-205.99 326.5,-205.99"/>
</g>
<!-- I18nModule -->
<g id="node3" class="node">
<title>I18nModule</title>
<polygon fill="#8dd3c7" stroke="black" points="475.71,-122 472.71,-126 451.71,-126 448.71,-122 390.29,-122 390.29,-86 475.71,-86 475.71,-122"/>
<text text-anchor="middle" x="433" y="-99.8" font-family="Times,serif" font-size="14.00">I18nModule</text>
</g>
<!-- I18nModule&#45;&gt;ConfiguratorAttributeFooterModule -->
<g id="edge2" class="edge">
<title>I18nModule&#45;&gt;ConfiguratorAttributeFooterModule</title>
<path fill="none" stroke="black" d="M414.94,-122.11C414.94,-122.11 414.94,-140.99 414.94,-140.99"/>
<polygon fill="black" stroke="black" points="411.44,-140.99 414.94,-150.99 418.44,-140.99 411.44,-140.99"/>
</g>
<!-- IconModule -->
<g id="node4" class="node">
<title>IconModule</title>
<polygon fill="#8dd3c7" stroke="black" points="372.43,-122 369.43,-126 348.43,-126 345.43,-122 287.57,-122 287.57,-86 372.43,-86 372.43,-122"/>
<text text-anchor="middle" x="330" y="-99.8" font-family="Times,serif" font-size="14.00">IconModule</text>
</g>
<!-- IconModule&#45;&gt;ConfiguratorAttributeFooterModule -->
<g id="edge3" class="edge">
<title>IconModule&#45;&gt;ConfiguratorAttributeFooterModule</title>
<path fill="none" stroke="black" d="M330,-122.11C330,-122.11 330,-140.99 330,-140.99"/>
<polygon fill="black" stroke="black" points="326.5,-140.99 330,-150.99 333.5,-140.99 326.5,-140.99"/>
</g>
</g>
</svg>
