<?xml version="1.0" encoding="UTF-8" standalone="no"?>
<!DOCTYPE svg PUBLIC "-//W3C//DTD SVG 1.1//EN"
 "http://www.w3.org/Graphics/SVG/1.1/DTD/svg11.dtd">
<!-- Generated by graphviz version 2.47.3 (20210619.1520)
 -->
<!-- Title: dependencies Pages: 1 -->
<svg width="508pt" height="247pt"
 viewBox="0.00 0.00 508.00 246.80" xmlns="http://www.w3.org/2000/svg" xmlns:xlink="http://www.w3.org/1999/xlink">
<g id="graph0" class="graph" transform="scale(1 1) rotate(0) translate(4 242.8)">
<title>dependencies</title>
<polygon fill="white" stroke="transparent" points="-4,4 -4,-242.8 504,-242.8 504,4 -4,4"/>
<text text-anchor="middle" x="250" y="-8.2" font-family="sans-serif" font-size="14.00">dependencies</text>
<g id="clust1" class="cluster">
<title>cluster_ConfiguratorAttributeFooterModule</title>
<polygon fill="none" stroke="black" stroke-dasharray="1,5" points="8,-32.8 8,-230.8 492,-230.8 492,-32.8 8,-32.8"/>
</g>
<g id="clust2" class="cluster">
<title>cluster_ConfiguratorAttributeFooterModule_declarations</title>
<polygon fill="none" stroke="black" points="228,-40.8 228,-92.8 484,-92.8 484,-40.8 228,-40.8"/>
</g>
<g id="clust4" class="cluster">
<title>cluster_ConfiguratorAttributeFooterModule_imports</title>
<polygon fill="none" stroke="black" points="16,-40.8 16,-92.8 220,-92.8 220,-40.8 16,-40.8"/>
</g>
<g id="clust5" class="cluster">
<title>cluster_ConfiguratorAttributeFooterModule_exports</title>
<polygon fill="none" stroke="black" points="39,-170.8 39,-222.8 299,-222.8 299,-170.8 39,-170.8"/>
</g>
<!-- ConfiguratorAttributeFooterComponent -->
<g id="node1" class="node">
<title>ConfiguratorAttributeFooterComponent</title>
<polygon fill="#ffffb3" stroke="black" points="476.24,-84.8 235.76,-84.8 235.76,-48.8 476.24,-48.8 476.24,-84.8"/>
<text text-anchor="middle" x="356" y="-62.6" font-family="Times,serif" font-size="14.00">ConfiguratorAttributeFooterComponent</text>
</g>
<!-- ConfiguratorAttributeFooterModule -->
<g id="node2" class="node">
<title>ConfiguratorAttributeFooterModule</title>
<polygon fill="#8dd3c7" stroke="black" points="278.46,-149.8 275.46,-153.8 254.46,-153.8 251.46,-149.8 59.54,-149.8 59.54,-113.8 278.46,-113.8 278.46,-149.8"/>
<text text-anchor="middle" x="169" y="-127.6" font-family="Times,serif" font-size="14.00">ConfiguratorAttributeFooterModule</text>
</g>
<!-- ConfiguratorAttributeFooterComponent&#45;&gt;ConfiguratorAttributeFooterModule -->
<g id="edge1" class="edge">
<title>ConfiguratorAttributeFooterComponent&#45;&gt;ConfiguratorAttributeFooterModule</title>
<path fill="none" stroke="black" d="M257.05,-84.91C257.05,-84.91 257.05,-103.79 257.05,-103.79"/>
<polygon fill="black" stroke="black" points="253.55,-103.79 257.05,-113.79 260.55,-103.79 253.55,-103.79"/>
</g>
<!-- ConfiguratorAttributeFooterComponent  -->
<g id="node5" class="node">
<title>ConfiguratorAttributeFooterComponent </title>
<polygon fill="#fb8072" stroke="black" points="291.24,-214.8 46.76,-214.8 46.76,-178.8 291.24,-178.8 291.24,-214.8"/>
<text text-anchor="middle" x="169" y="-192.6" font-family="Times,serif" font-size="14.00">ConfiguratorAttributeFooterComponent </text>
</g>
<!-- ConfiguratorAttributeFooterModule&#45;&gt;ConfiguratorAttributeFooterComponent  -->
<g id="edge4" class="edge">
<title>ConfiguratorAttributeFooterModule&#45;&gt;ConfiguratorAttributeFooterComponent </title>
<path fill="none" stroke="black" stroke-dasharray="5,2" d="M169,-149.91C169,-149.91 169,-168.79 169,-168.79"/>
<polygon fill="black" stroke="black" points="165.5,-168.79 169,-178.79 172.5,-168.79 165.5,-168.79"/>
</g>
<!-- I18nModule -->
<g id="node3" class="node">
<title>I18nModule</title>
<polygon fill="#8dd3c7" stroke="black" points="211.71,-84.8 208.71,-88.8 187.71,-88.8 184.71,-84.8 126.29,-84.8 126.29,-48.8 211.71,-48.8 211.71,-84.8"/>
<text text-anchor="middle" x="169" y="-62.6" font-family="Times,serif" font-size="14.00">I18nModule</text>
</g>
<!-- I18nModule&#45;&gt;ConfiguratorAttributeFooterModule -->
<g id="edge2" class="edge">
<title>I18nModule&#45;&gt;ConfiguratorAttributeFooterModule</title>
<path fill="none" stroke="black" d="M169,-84.91C169,-84.91 169,-103.79 169,-103.79"/>
<polygon fill="black" stroke="black" points="165.5,-103.79 169,-113.79 172.5,-103.79 165.5,-103.79"/>
</g>
<!-- IconModule -->
<g id="node4" class="node">
<title>IconModule</title>
<polygon fill="#8dd3c7" stroke="black" points="108.43,-84.8 105.43,-88.8 84.43,-88.8 81.43,-84.8 23.57,-84.8 23.57,-48.8 108.43,-48.8 108.43,-84.8"/>
<text text-anchor="middle" x="66" y="-62.6" font-family="Times,serif" font-size="14.00">IconModule</text>
</g>
<!-- IconModule&#45;&gt;ConfiguratorAttributeFooterModule -->
<g id="edge3" class="edge">
<title>IconModule&#45;&gt;ConfiguratorAttributeFooterModule</title>
<path fill="none" stroke="black" d="M83.87,-84.91C83.87,-84.91 83.87,-103.79 83.87,-103.79"/>
<polygon fill="black" stroke="black" points="80.37,-103.79 83.87,-113.79 87.37,-103.79 80.37,-103.79"/>
</g>
</g>
</svg>
