<?xml version="1.0" encoding="UTF-8" standalone="no"?>
<!DOCTYPE svg PUBLIC "-//W3C//DTD SVG 1.1//EN"
 "http://www.w3.org/Graphics/SVG/1.1/DTD/svg11.dtd">
<!-- Generated by graphviz version 2.47.0 (20210316.0004)
 -->
<!-- Title: dependencies Pages: 1 -->
<svg width="508pt" height="284pt"
 viewBox="0.00 0.00 508.00 284.00" xmlns="http://www.w3.org/2000/svg" xmlns:xlink="http://www.w3.org/1999/xlink">
<g id="graph0" class="graph" transform="scale(1 1) rotate(0) translate(4 280)">
<title>dependencies</title>
<polygon fill="white" stroke="transparent" points="-4,4 -4,-280 504,-280 504,4 -4,4"/>
<text text-anchor="start" x="229.01" y="-42.4" font-family="sans-serif" font-weight="bold" font-size="14.00">Legend</text>
<polygon fill="#ffffb3" stroke="transparent" points="16,-10 16,-30 36,-30 36,-10 16,-10"/>
<text text-anchor="start" x="39.63" y="-15.4" font-family="sans-serif" font-size="14.00"> &#160;Declarations</text>
<polygon fill="#8dd3c7" stroke="transparent" points="129,-10 129,-30 149,-30 149,-10 129,-10"/>
<text text-anchor="start" x="152.73" y="-15.4" font-family="sans-serif" font-size="14.00"> &#160;Module</text>
<polygon fill="#80b1d3" stroke="transparent" points="215,-10 215,-30 235,-30 235,-10 215,-10"/>
<text text-anchor="start" x="238.78" y="-15.4" font-family="sans-serif" font-size="14.00"> &#160;Bootstrap</text>
<polygon fill="#fdb462" stroke="transparent" points="312,-10 312,-30 332,-30 332,-10 312,-10"/>
<text text-anchor="start" x="335.67" y="-15.4" font-family="sans-serif" font-size="14.00"> &#160;Providers</text>
<polygon fill="#fb8072" stroke="transparent" points="408,-10 408,-30 428,-30 428,-10 408,-10"/>
<text text-anchor="start" x="431.73" y="-15.4" font-family="sans-serif" font-size="14.00"> &#160;Exports</text>
<g id="clust1" class="cluster">
<title>cluster_ConfiguratorAttributeFooterModule</title>
<polygon fill="none" stroke="black" stroke-dasharray="1,5" points="8,-70 8,-268 492,-268 492,-70 8,-70"/>
</g>
<g id="clust2" class="cluster">
<title>cluster_ConfiguratorAttributeFooterModule_declarations</title>
<polygon fill="none" stroke="black" points="228,-78 228,-130 484,-130 484,-78 228,-78"/>
</g>
<g id="clust4" class="cluster">
<title>cluster_ConfiguratorAttributeFooterModule_imports</title>
<polygon fill="none" stroke="black" points="16,-78 16,-130 220,-130 220,-78 16,-78"/>
</g>
<g id="clust5" class="cluster">
<title>cluster_ConfiguratorAttributeFooterModule_exports</title>
<polygon fill="none" stroke="black" points="39,-208 39,-260 299,-260 299,-208 39,-208"/>
</g>
<!-- ConfiguratorAttributeFooterComponent -->
<g id="node1" class="node">
<title>ConfiguratorAttributeFooterComponent</title>
<polygon fill="#ffffb3" stroke="black" points="476.24,-122 235.76,-122 235.76,-86 476.24,-86 476.24,-122"/>
<text text-anchor="middle" x="356" y="-99.8" font-family="Times,serif" font-size="14.00">ConfiguratorAttributeFooterComponent</text>
</g>
<!-- ConfiguratorAttributeFooterModule -->
<g id="node2" class="node">
<title>ConfiguratorAttributeFooterModule</title>
<polygon fill="#8dd3c7" stroke="black" points="278.46,-187 275.46,-191 254.46,-191 251.46,-187 59.54,-187 59.54,-151 278.46,-151 278.46,-187"/>
<text text-anchor="middle" x="169" y="-164.8" font-family="Times,serif" font-size="14.00">ConfiguratorAttributeFooterModule</text>
</g>
<!-- ConfiguratorAttributeFooterComponent&#45;&gt;ConfiguratorAttributeFooterModule -->
<g id="edge1" class="edge">
<title>ConfiguratorAttributeFooterComponent&#45;&gt;ConfiguratorAttributeFooterModule</title>
<path fill="none" stroke="black" d="M257.05,-122.11C257.05,-122.11 257.05,-140.99 257.05,-140.99"/>
<polygon fill="black" stroke="black" points="253.55,-140.99 257.05,-150.99 260.55,-140.99 253.55,-140.99"/>
</g>
<!-- ConfiguratorAttributeFooterComponent  -->
<g id="node5" class="node">
<title>ConfiguratorAttributeFooterComponent </title>
<polygon fill="#fb8072" stroke="black" points="291.24,-252 46.76,-252 46.76,-216 291.24,-216 291.24,-252"/>
<text text-anchor="middle" x="169" y="-229.8" font-family="Times,serif" font-size="14.00">ConfiguratorAttributeFooterComponent </text>
</g>
<!-- ConfiguratorAttributeFooterModule&#45;&gt;ConfiguratorAttributeFooterComponent  -->
<g id="edge4" class="edge">
<title>ConfiguratorAttributeFooterModule&#45;&gt;ConfiguratorAttributeFooterComponent </title>
<path fill="none" stroke="black" stroke-dasharray="5,2" d="M169,-187.11C169,-187.11 169,-205.99 169,-205.99"/>
<polygon fill="black" stroke="black" points="165.5,-205.99 169,-215.99 172.5,-205.99 165.5,-205.99"/>
</g>
<!-- I18nModule -->
<g id="node3" class="node">
<title>I18nModule</title>
<polygon fill="#8dd3c7" stroke="black" points="211.71,-122 208.71,-126 187.71,-126 184.71,-122 126.29,-122 126.29,-86 211.71,-86 211.71,-122"/>
<text text-anchor="middle" x="169" y="-99.8" font-family="Times,serif" font-size="14.00">I18nModule</text>
</g>
<!-- I18nModule&#45;&gt;ConfiguratorAttributeFooterModule -->
<g id="edge2" class="edge">
<title>I18nModule&#45;&gt;ConfiguratorAttributeFooterModule</title>
<path fill="none" stroke="black" d="M169,-122.11C169,-122.11 169,-140.99 169,-140.99"/>
<polygon fill="black" stroke="black" points="165.5,-140.99 169,-150.99 172.5,-140.99 165.5,-140.99"/>
</g>
<!-- IconModule -->
<g id="node4" class="node">
<title>IconModule</title>
<polygon fill="#8dd3c7" stroke="black" points="108.43,-122 105.43,-126 84.43,-126 81.43,-122 23.57,-122 23.57,-86 108.43,-86 108.43,-122"/>
<text text-anchor="middle" x="66" y="-99.8" font-family="Times,serif" font-size="14.00">IconModule</text>
</g>
<!-- IconModule&#45;&gt;ConfiguratorAttributeFooterModule -->
<g id="edge3" class="edge">
<title>IconModule&#45;&gt;ConfiguratorAttributeFooterModule</title>
<path fill="none" stroke="black" d="M83.87,-122.11C83.87,-122.11 83.87,-140.99 83.87,-140.99"/>
<polygon fill="black" stroke="black" points="80.37,-140.99 83.87,-150.99 87.37,-140.99 80.37,-140.99"/>
</g>
</g>
</svg>
