<?xml version="1.0" encoding="UTF-8" standalone="no"?>
<!DOCTYPE svg PUBLIC "-//W3C//DTD SVG 1.1//EN"
 "http://www.w3.org/Graphics/SVG/1.1/DTD/svg11.dtd">
<!-- Generated by graphviz version 2.40.1 (20161225.0304)
 -->
<!-- Title: dependencies Pages: 1 -->
<svg width="690pt" height="284pt"
 viewBox="0.00 0.00 690.00 284.00" xmlns="http://www.w3.org/2000/svg" xmlns:xlink="http://www.w3.org/1999/xlink">
<g id="graph0" class="graph" transform="scale(1 1) rotate(0) translate(4 280)">
<title>dependencies</title>
<polygon fill="#ffffff" stroke="transparent" points="-4,4 -4,-280 686,-280 686,4 -4,4"/>
<text text-anchor="start" x="320.0091" y="-42.4" font-family="sans-serif" font-weight="bold" font-size="14.00" fill="#000000">Legend</text>
<polygon fill="#ffffb3" stroke="transparent" points="107,-10 107,-30 127,-30 127,-10 107,-10"/>
<text text-anchor="start" x="130.629" y="-15.4" font-family="sans-serif" font-size="14.00" fill="#000000"> &#160;Declarations</text>
<polygon fill="#8dd3c7" stroke="transparent" points="220,-10 220,-30 240,-30 240,-10 220,-10"/>
<text text-anchor="start" x="243.7251" y="-15.4" font-family="sans-serif" font-size="14.00" fill="#000000"> &#160;Module</text>
<polygon fill="#80b1d3" stroke="transparent" points="306,-10 306,-30 326,-30 326,-10 306,-10"/>
<text text-anchor="start" x="329.7812" y="-15.4" font-family="sans-serif" font-size="14.00" fill="#000000"> &#160;Bootstrap</text>
<polygon fill="#fdb462" stroke="transparent" points="403,-10 403,-30 423,-30 423,-10 403,-10"/>
<text text-anchor="start" x="426.6732" y="-15.4" font-family="sans-serif" font-size="14.00" fill="#000000"> &#160;Providers</text>
<polygon fill="#fb8072" stroke="transparent" points="499,-10 499,-30 519,-30 519,-10 499,-10"/>
<text text-anchor="start" x="522.7258" y="-15.4" font-family="sans-serif" font-size="14.00" fill="#000000"> &#160;Exports</text>
<g id="clust1" class="cluster">
<title>cluster_ProductCarouselModule</title>
<polygon fill="none" stroke="#000000" stroke-dasharray="1,5" points="8,-70 8,-268 674,-268 674,-70 8,-70"/>
</g>
<g id="clust2" class="cluster">
<title>cluster_ProductCarouselModule_declarations</title>
<polygon fill="none" stroke="#000000" points="476,-78 476,-130 666,-130 666,-78 476,-78"/>
</g>
<g id="clust4" class="cluster">
<title>cluster_ProductCarouselModule_imports</title>
<polygon fill="none" stroke="#000000" points="16,-78 16,-130 468,-130 468,-78 16,-78"/>
</g>
<g id="clust5" class="cluster">
<title>cluster_ProductCarouselModule_exports</title>
<polygon fill="none" stroke="#000000" points="186,-208 186,-260 380,-260 380,-208 186,-208"/>
</g>
<!-- ProductCarouselComponent -->
<g id="node1" class="node">
<title>ProductCarouselComponent</title>
<polygon fill="#ffffb3" stroke="#000000" points="658.1428,-122 483.8572,-122 483.8572,-86 658.1428,-86 658.1428,-122"/>
<text text-anchor="middle" x="571" y="-99.8" font-family="Times,serif" font-size="14.00" fill="#000000">ProductCarouselComponent</text>
</g>
<!-- ProductCarouselModule -->
<g id="node2" class="node">
<title>ProductCarouselModule</title>
<polygon fill="#8dd3c7" stroke="#000000" points="359.3599,-187 356.3599,-191 335.3599,-191 332.3599,-187 206.6401,-187 206.6401,-151 359.3599,-151 359.3599,-187"/>
<text text-anchor="middle" x="283" y="-164.8" font-family="Times,serif" font-size="14.00" fill="#000000">ProductCarouselModule</text>
</g>
<!-- ProductCarouselComponent&#45;&gt;ProductCarouselModule -->
<g id="edge1" class="edge">
<title>ProductCarouselComponent&#45;&gt;ProductCarouselModule</title>
<path fill="none" stroke="#000000" d="M571,-122.1061C571,-141.3391 571,-169 571,-169 571,-169 369.4226,-169 369.4226,-169"/>
<polygon fill="#000000" stroke="#000000" points="369.4226,-165.5001 359.4226,-169 369.4226,-172.5001 369.4226,-165.5001"/>
</g>
<!-- ProductCarouselComponent  -->
<g id="node7" class="node">
<title>ProductCarouselComponent </title>
<polygon fill="#fb8072" stroke="#000000" points="372.1425,-252 193.8575,-252 193.8575,-216 372.1425,-216 372.1425,-252"/>
<text text-anchor="middle" x="283" y="-229.8" font-family="Times,serif" font-size="14.00" fill="#000000">ProductCarouselComponent </text>
</g>
<!-- ProductCarouselModule&#45;&gt;ProductCarouselComponent  -->
<g id="edge6" class="edge">
<title>ProductCarouselModule&#45;&gt;ProductCarouselComponent </title>
<path fill="none" stroke="#000000" stroke-dasharray="5,2" d="M283,-187.1061C283,-187.1061 283,-205.991 283,-205.991"/>
<polygon fill="#000000" stroke="#000000" points="279.5001,-205.9909 283,-215.991 286.5001,-205.991 279.5001,-205.9909"/>
</g>
<!-- CarouselModule -->
<g id="node3" class="node">
<title>CarouselModule</title>
<polygon fill="#8dd3c7" stroke="#000000" points="459.8118,-122 456.8118,-126 435.8118,-126 432.8118,-122 350.1882,-122 350.1882,-86 459.8118,-86 459.8118,-122"/>
<text text-anchor="middle" x="405" y="-99.8" font-family="Times,serif" font-size="14.00" fill="#000000">CarouselModule</text>
</g>
<!-- CarouselModule&#45;&gt;ProductCarouselModule -->
<g id="edge2" class="edge">
<title>CarouselModule&#45;&gt;ProductCarouselModule</title>
<path fill="none" stroke="#000000" d="M354.8871,-122.1061C354.8871,-122.1061 354.8871,-140.991 354.8871,-140.991"/>
<polygon fill="#000000" stroke="#000000" points="351.3872,-140.9909 354.8871,-150.991 358.3872,-140.991 351.3872,-140.9909"/>
</g>
<!-- ConfigModule -->
<g id="node4" class="node">
<title>ConfigModule</title>
<polygon fill="#8dd3c7" stroke="#000000" points="332.4386,-122 329.4386,-126 308.4386,-126 305.4386,-122 233.5614,-122 233.5614,-86 332.4386,-86 332.4386,-122"/>
<text text-anchor="middle" x="283" y="-99.8" font-family="Times,serif" font-size="14.00" fill="#000000">ConfigModule</text>
</g>
<!-- ConfigModule&#45;&gt;ProductCarouselModule -->
<g id="edge3" class="edge">
<title>ConfigModule&#45;&gt;ProductCarouselModule</title>
<path fill="none" stroke="#000000" d="M283,-122.1061C283,-122.1061 283,-140.991 283,-140.991"/>
<polygon fill="#000000" stroke="#000000" points="279.5001,-140.9909 283,-150.991 286.5001,-140.991 279.5001,-140.9909"/>
</g>
<!-- MediaModule -->
<g id="node5" class="node">
<title>MediaModule</title>
<polygon fill="#8dd3c7" stroke="#000000" points="215.8147,-122 212.8147,-126 191.8147,-126 188.8147,-122 120.1853,-122 120.1853,-86 215.8147,-86 215.8147,-122"/>
<text text-anchor="middle" x="168" y="-99.8" font-family="Times,serif" font-size="14.00" fill="#000000">MediaModule</text>
</g>
<!-- MediaModule&#45;&gt;ProductCarouselModule -->
<g id="edge4" class="edge">
<title>MediaModule&#45;&gt;ProductCarouselModule</title>
<path fill="none" stroke="#000000" d="M211.1136,-122.1061C211.1136,-122.1061 211.1136,-140.991 211.1136,-140.991"/>
<polygon fill="#000000" stroke="#000000" points="207.6137,-140.9909 211.1136,-150.991 214.6137,-140.991 207.6137,-140.9909"/>
</g>
<!-- UrlModule -->
<g id="node6" class="node">
<title>UrlModule</title>
<polygon fill="#8dd3c7" stroke="#000000" points="102.2079,-122 99.2079,-126 78.2079,-126 75.2079,-122 23.7921,-122 23.7921,-86 102.2079,-86 102.2079,-122"/>
<text text-anchor="middle" x="63" y="-99.8" font-family="Times,serif" font-size="14.00" fill="#000000">UrlModule</text>
</g>
<!-- UrlModule&#45;&gt;ProductCarouselModule -->
<g id="edge5" class="edge">
<title>UrlModule&#45;&gt;ProductCarouselModule</title>
<path fill="none" stroke="#000000" d="M63,-122.1061C63,-141.3391 63,-169 63,-169 63,-169 196.3635,-169 196.3635,-169"/>
<polygon fill="#000000" stroke="#000000" points="196.3636,-172.5001 206.3635,-169 196.3635,-165.5001 196.3636,-172.5001"/>
</g>
</g>
</svg>
