<?xml version="1.0" encoding="UTF-8" standalone="no"?>
<!DOCTYPE svg PUBLIC "-//W3C//DTD SVG 1.1//EN"
 "http://www.w3.org/Graphics/SVG/1.1/DTD/svg11.dtd">
<!-- Generated by graphviz version 2.47.3 (20210619.1520)
 -->
<!-- Title: dependencies Pages: 1 -->
<svg width="573pt" height="247pt"
 viewBox="0.00 0.00 573.00 246.80" xmlns="http://www.w3.org/2000/svg" xmlns:xlink="http://www.w3.org/1999/xlink">
<g id="graph0" class="graph" transform="scale(1 1) rotate(0) translate(4 242.8)">
<title>dependencies</title>
<polygon fill="white" stroke="transparent" points="-4,4 -4,-242.8 569,-242.8 569,4 -4,4"/>
<text text-anchor="middle" x="282.5" y="-8.2" font-family="sans-serif" font-size="14.00">dependencies</text>
<g id="clust1" class="cluster">
<title>cluster_ProductCarouselModule</title>
<polygon fill="none" stroke="black" stroke-dasharray="1,5" points="8,-32.8 8,-230.8 557,-230.8 557,-32.8 8,-32.8"/>
</g>
<g id="clust5" class="cluster">
<title>cluster_ProductCarouselModule_exports</title>
<polygon fill="none" stroke="black" points="131,-170.8 131,-222.8 325,-222.8 325,-170.8 131,-170.8"/>
</g>
<g id="clust2" class="cluster">
<title>cluster_ProductCarouselModule_declarations</title>
<polygon fill="none" stroke="black" points="359,-40.8 359,-92.8 549,-92.8 549,-40.8 359,-40.8"/>
</g>
<g id="clust4" class="cluster">
<title>cluster_ProductCarouselModule_imports</title>
<polygon fill="none" stroke="black" points="16,-40.8 16,-92.8 351,-92.8 351,-40.8 16,-40.8"/>
</g>
<!-- ProductCarouselComponent -->
<g id="node1" class="node">
<title>ProductCarouselComponent</title>
<polygon fill="#ffffb3" stroke="black" points="541.14,-84.8 366.86,-84.8 366.86,-48.8 541.14,-48.8 541.14,-84.8"/>
<text text-anchor="middle" x="454" y="-62.6" font-family="Times,serif" font-size="14.00">ProductCarouselComponent</text>
</g>
<!-- ProductCarouselModule -->
<g id="node2" class="node">
<title>ProductCarouselModule</title>
<polygon fill="#8dd3c7" stroke="black" points="304.36,-149.8 301.36,-153.8 280.36,-153.8 277.36,-149.8 151.64,-149.8 151.64,-113.8 304.36,-113.8 304.36,-149.8"/>
<text text-anchor="middle" x="228" y="-127.6" font-family="Times,serif" font-size="14.00">ProductCarouselModule</text>
</g>
<!-- ProductCarouselComponent&#45;&gt;ProductCarouselModule -->
<g id="edge1" class="edge">
<title>ProductCarouselComponent&#45;&gt;ProductCarouselModule</title>
<path fill="none" stroke="black" d="M454,-84.91C454,-104.14 454,-131.8 454,-131.8 454,-131.8 314.51,-131.8 314.51,-131.8"/>
<polygon fill="black" stroke="black" points="314.51,-128.3 304.51,-131.8 314.51,-135.3 314.51,-128.3"/>
</g>
<!-- ProductCarouselComponent  -->
<g id="node6" class="node">
<title>ProductCarouselComponent </title>
<polygon fill="#fb8072" stroke="black" points="317.14,-214.8 138.86,-214.8 138.86,-178.8 317.14,-178.8 317.14,-214.8"/>
<text text-anchor="middle" x="228" y="-192.6" font-family="Times,serif" font-size="14.00">ProductCarouselComponent </text>
</g>
<!-- ProductCarouselModule&#45;&gt;ProductCarouselComponent  -->
<g id="edge5" class="edge">
<title>ProductCarouselModule&#45;&gt;ProductCarouselComponent </title>
<path fill="none" stroke="black" stroke-dasharray="5,2" d="M228,-149.91C228,-149.91 228,-168.79 228,-168.79"/>
<polygon fill="black" stroke="black" points="224.5,-168.79 228,-178.79 231.5,-168.79 224.5,-168.79"/>
</g>
<!-- CarouselModule -->
<g id="node3" class="node">
<title>CarouselModule</title>
<polygon fill="#8dd3c7" stroke="black" points="342.81,-84.8 339.81,-88.8 318.81,-88.8 315.81,-84.8 233.19,-84.8 233.19,-48.8 342.81,-48.8 342.81,-84.8"/>
<text text-anchor="middle" x="288" y="-62.6" font-family="Times,serif" font-size="14.00">CarouselModule</text>
</g>
<!-- CarouselModule&#45;&gt;ProductCarouselModule -->
<g id="edge2" class="edge">
<title>CarouselModule&#45;&gt;ProductCarouselModule</title>
<path fill="none" stroke="black" d="M268.89,-84.91C268.89,-84.91 268.89,-103.79 268.89,-103.79"/>
<polygon fill="black" stroke="black" points="265.39,-103.79 268.89,-113.79 272.39,-103.79 265.39,-103.79"/>
</g>
<!-- MediaModule -->
<g id="node4" class="node">
<title>MediaModule</title>
<polygon fill="#8dd3c7" stroke="black" points="215.81,-84.8 212.81,-88.8 191.81,-88.8 188.81,-84.8 120.19,-84.8 120.19,-48.8 215.81,-48.8 215.81,-84.8"/>
<text text-anchor="middle" x="168" y="-62.6" font-family="Times,serif" font-size="14.00">MediaModule</text>
</g>
<!-- MediaModule&#45;&gt;ProductCarouselModule -->
<g id="edge3" class="edge">
<title>MediaModule&#45;&gt;ProductCarouselModule</title>
<path fill="none" stroke="black" d="M183.61,-84.91C183.61,-84.91 183.61,-103.79 183.61,-103.79"/>
<polygon fill="black" stroke="black" points="180.11,-103.79 183.61,-113.79 187.11,-103.79 180.11,-103.79"/>
</g>
<!-- UrlModule -->
<g id="node5" class="node">
<title>UrlModule</title>
<polygon fill="#8dd3c7" stroke="black" points="102.21,-84.8 99.21,-88.8 78.21,-88.8 75.21,-84.8 23.79,-84.8 23.79,-48.8 102.21,-48.8 102.21,-84.8"/>
<text text-anchor="middle" x="63" y="-62.6" font-family="Times,serif" font-size="14.00">UrlModule</text>
</g>
<!-- UrlModule&#45;&gt;ProductCarouselModule -->
<g id="edge4" class="edge">
<title>UrlModule&#45;&gt;ProductCarouselModule</title>
<path fill="none" stroke="black" d="M63,-84.91C63,-104.14 63,-131.8 63,-131.8 63,-131.8 141.3,-131.8 141.3,-131.8"/>
<polygon fill="black" stroke="black" points="141.3,-135.3 151.3,-131.8 141.3,-128.3 141.3,-135.3"/>
</g>
</g>
</svg>
