<?xml version="1.0" encoding="UTF-8" standalone="no"?>
<!DOCTYPE svg PUBLIC "-//W3C//DTD SVG 1.1//EN"
 "http://www.w3.org/Graphics/SVG/1.1/DTD/svg11.dtd">
<!-- Generated by graphviz version 2.47.0 (20210316.0004)
 -->
<!-- Title: dependencies Pages: 1 -->
<svg width="504pt" height="284pt"
 viewBox="0.00 0.00 504.00 284.00" xmlns="http://www.w3.org/2000/svg" xmlns:xlink="http://www.w3.org/1999/xlink">
<g id="graph0" class="graph" transform="scale(1 1) rotate(0) translate(4 280)">
<title>dependencies</title>
<polygon fill="white" stroke="transparent" points="-4,4 -4,-280 500,-280 500,4 -4,4"/>
<text text-anchor="start" x="227.01" y="-42.4" font-family="sans-serif" font-weight="bold" font-size="14.00">Legend</text>
<polygon fill="#ffffb3" stroke="transparent" points="14,-10 14,-30 34,-30 34,-10 14,-10"/>
<text text-anchor="start" x="37.63" y="-15.4" font-family="sans-serif" font-size="14.00"> &#160;Declarations</text>
<polygon fill="#8dd3c7" stroke="transparent" points="127,-10 127,-30 147,-30 147,-10 127,-10"/>
<text text-anchor="start" x="150.73" y="-15.4" font-family="sans-serif" font-size="14.00"> &#160;Module</text>
<polygon fill="#80b1d3" stroke="transparent" points="213,-10 213,-30 233,-30 233,-10 213,-10"/>
<text text-anchor="start" x="236.78" y="-15.4" font-family="sans-serif" font-size="14.00"> &#160;Bootstrap</text>
<polygon fill="#fdb462" stroke="transparent" points="310,-10 310,-30 330,-30 330,-10 310,-10"/>
<text text-anchor="start" x="333.67" y="-15.4" font-family="sans-serif" font-size="14.00"> &#160;Providers</text>
<polygon fill="#fb8072" stroke="transparent" points="406,-10 406,-30 426,-30 426,-10 406,-10"/>
<text text-anchor="start" x="429.73" y="-15.4" font-family="sans-serif" font-size="14.00"> &#160;Exports</text>
<g id="clust1" class="cluster">
<title>cluster_B2bStorefrontModule</title>
<polygon fill="none" stroke="black" stroke-dasharray="1,5" points="42.5,-70 42.5,-268 453.5,-268 453.5,-70 42.5,-70"/>
</g>
<g id="clust3" class="cluster">
<title>cluster_B2bStorefrontModule_imports</title>
<polygon fill="none" stroke="black" points="50.5,-78 50.5,-130 445.5,-130 445.5,-78 50.5,-78"/>
</g>
<g id="clust4" class="cluster">
<title>cluster_B2bStorefrontModule_exports</title>
<polygon fill="none" stroke="black" points="185.5,-208 185.5,-260 321.5,-260 321.5,-208 185.5,-208"/>
</g>
<!-- CmsLibModule -->
<g id="node1" class="node">
<title>CmsLibModule</title>
<polygon fill="#8dd3c7" stroke="black" points="437.67,-122 434.67,-126 413.67,-126 410.67,-122 333.33,-122 333.33,-86 437.67,-86 437.67,-122"/>
<text text-anchor="middle" x="385.5" y="-99.8" font-family="Times,serif" font-size="14.00">CmsLibModule</text>
</g>
<!-- B2bStorefrontModule -->
<g id="node4" class="node">
<title>B2bStorefrontModule</title>
<polygon fill="#8dd3c7" stroke="black" points="323.15,-187 320.15,-191 299.15,-191 296.15,-187 183.85,-187 183.85,-151 323.15,-151 323.15,-187"/>
<text text-anchor="middle" x="253.5" y="-164.8" font-family="Times,serif" font-size="14.00">B2bStorefrontModule</text>
</g>
<!-- CmsLibModule&#45;&gt;B2bStorefrontModule -->
<g id="edge1" class="edge">
<title>CmsLibModule&#45;&gt;B2bStorefrontModule</title>
<path fill="none" stroke="black" d="M333.14,-104C324.9,-104 319.05,-104 319.05,-104 319.05,-104 319.05,-140.89 319.05,-140.89"/>
<polygon fill="black" stroke="black" points="315.55,-140.89 319.05,-150.89 322.55,-140.89 315.55,-140.89"/>
</g>
<!-- CostCenterModule -->
<g id="node2" class="node">
<title>CostCenterModule</title>
<polygon fill="#8dd3c7" stroke="black" points="314.54,-122 311.54,-126 290.54,-126 287.54,-122 192.46,-122 192.46,-86 314.54,-86 314.54,-122"/>
<text text-anchor="middle" x="253.5" y="-99.8" font-family="Times,serif" font-size="14.00">CostCenterModule</text>
</g>
<!-- CostCenterModule&#45;&gt;B2bStorefrontModule -->
<g id="edge2" class="edge">
<title>CostCenterModule&#45;&gt;B2bStorefrontModule</title>
<path fill="none" stroke="black" d="M253.5,-122.11C253.5,-122.11 253.5,-140.99 253.5,-140.99"/>
<polygon fill="black" stroke="black" points="250,-140.99 253.5,-150.99 257,-140.99 250,-140.99"/>
</g>
<!-- StorefrontModule -->
<g id="node3" class="node">
<title>StorefrontModule</title>
<polygon fill="#8dd3c7" stroke="black" points="174.81,-122 171.81,-126 150.81,-126 147.81,-122 58.19,-122 58.19,-86 174.81,-86 174.81,-122"/>
<text text-anchor="middle" x="116.5" y="-99.8" font-family="Times,serif" font-size="14.00">StorefrontModule</text>
</g>
<!-- StorefrontModule&#45;&gt;B2bStorefrontModule -->
<g id="edge3" class="edge">
<title>StorefrontModule&#45;&gt;B2bStorefrontModule</title>
<path fill="none" stroke="black" d="M174.85,-104C182.61,-104 187.95,-104 187.95,-104 187.95,-104 187.95,-140.89 187.95,-140.89"/>
<polygon fill="black" stroke="black" points="184.45,-140.89 187.95,-150.89 191.45,-140.89 184.45,-140.89"/>
</g>
<!-- StorefrontModule  -->
<g id="node5" class="node">
<title>StorefrontModule </title>
<polygon fill="#fb8072" stroke="black" points="313.31,-252 193.69,-252 193.69,-216 313.31,-216 313.31,-252"/>
<text text-anchor="middle" x="253.5" y="-229.8" font-family="Times,serif" font-size="14.00">StorefrontModule </text>
</g>
<!-- B2bStorefrontModule&#45;&gt;StorefrontModule  -->
<g id="edge4" class="edge">
<title>B2bStorefrontModule&#45;&gt;StorefrontModule </title>
<path fill="none" stroke="black" stroke-dasharray="5,2" d="M253.5,-187.11C253.5,-187.11 253.5,-205.99 253.5,-205.99"/>
<polygon fill="black" stroke="black" points="250,-205.99 253.5,-215.99 257,-205.99 250,-205.99"/>
</g>
</g>
</svg>
