<?xml version="1.0" encoding="UTF-8" standalone="no"?>
<!DOCTYPE svg PUBLIC "-//W3C//DTD SVG 1.1//EN"
 "http://www.w3.org/Graphics/SVG/1.1/DTD/svg11.dtd">
<!-- Generated by graphviz version 2.40.1 (20161225.0304)
 -->
<!-- Title: dependencies Pages: 1 -->
<svg width="849pt" height="284pt"
 viewBox="0.00 0.00 849.00 284.00" xmlns="http://www.w3.org/2000/svg" xmlns:xlink="http://www.w3.org/1999/xlink">
<g id="graph0" class="graph" transform="scale(1 1) rotate(0) translate(4 280)">
<title>dependencies</title>
<polygon fill="#ffffff" stroke="transparent" points="-4,4 -4,-280 845,-280 845,4 -4,4"/>
<text text-anchor="start" x="399.5091" y="-42.4" font-family="sans-serif" font-weight="bold" font-size="14.00" fill="#000000">Legend</text>
<polygon fill="#ffffb3" stroke="transparent" points="186.5,-10 186.5,-30 206.5,-30 206.5,-10 186.5,-10"/>
<text text-anchor="start" x="210.129" y="-15.4" font-family="sans-serif" font-size="14.00" fill="#000000"> &#160;Declarations</text>
<polygon fill="#8dd3c7" stroke="transparent" points="299.5,-10 299.5,-30 319.5,-30 319.5,-10 299.5,-10"/>
<text text-anchor="start" x="323.2251" y="-15.4" font-family="sans-serif" font-size="14.00" fill="#000000"> &#160;Module</text>
<polygon fill="#80b1d3" stroke="transparent" points="385.5,-10 385.5,-30 405.5,-30 405.5,-10 385.5,-10"/>
<text text-anchor="start" x="409.2812" y="-15.4" font-family="sans-serif" font-size="14.00" fill="#000000"> &#160;Bootstrap</text>
<polygon fill="#fdb462" stroke="transparent" points="482.5,-10 482.5,-30 502.5,-30 502.5,-10 482.5,-10"/>
<text text-anchor="start" x="506.1732" y="-15.4" font-family="sans-serif" font-size="14.00" fill="#000000"> &#160;Providers</text>
<polygon fill="#fb8072" stroke="transparent" points="578.5,-10 578.5,-30 598.5,-30 598.5,-10 578.5,-10"/>
<text text-anchor="start" x="602.2258" y="-15.4" font-family="sans-serif" font-size="14.00" fill="#000000"> &#160;Exports</text>
<g id="clust1" class="cluster">
<title>cluster_CartComponentModule</title>
<polygon fill="none" stroke="#000000" stroke-dasharray="1,5" points="8,-70 8,-268 833,-268 833,-70 8,-70"/>
</g>
<g id="clust3" class="cluster">
<title>cluster_CartComponentModule_imports</title>
<polygon fill="none" stroke="#000000" points="215,-78 215,-130 632,-130 632,-78 215,-78"/>
</g>
<g id="clust4" class="cluster">
<title>cluster_CartComponentModule_exports</title>
<polygon fill="none" stroke="#000000" points="16,-208 16,-260 825,-260 825,-208 16,-208"/>
</g>
<!-- CartDetailsModule -->
<g id="node1" class="node">
<title>CartDetailsModule</title>
<polygon fill="#8dd3c7" stroke="#000000" points="623.8048,-122 620.8048,-126 599.8048,-126 596.8048,-122 500.1952,-122 500.1952,-86 623.8048,-86 623.8048,-122"/>
<text text-anchor="middle" x="562" y="-99.8" font-family="Times,serif" font-size="14.00" fill="#000000">CartDetailsModule</text>
</g>
<!-- CartComponentModule -->
<g id="node4" class="node">
<title>CartComponentModule</title>
<polygon fill="#8dd3c7" stroke="#000000" points="495.4846,-187 492.4846,-191 471.4846,-191 468.4846,-187 346.5154,-187 346.5154,-151 495.4846,-151 495.4846,-187"/>
<text text-anchor="middle" x="421" y="-164.8" font-family="Times,serif" font-size="14.00" fill="#000000">CartComponentModule</text>
</g>
<!-- CartDetailsModule&#45;&gt;CartComponentModule -->
<g id="edge1" class="edge">
<title>CartDetailsModule&#45;&gt;CartComponentModule</title>
<path fill="none" stroke="#000000" d="M500.3027,-104C493.4475,-104 488.8773,-104 488.8773,-104 488.8773,-104 488.8773,-140.8939 488.8773,-140.8939"/>
<polygon fill="#000000" stroke="#000000" points="485.3774,-140.8938 488.8773,-150.8939 492.3774,-140.8939 485.3774,-140.8938"/>
</g>
<!-- CartSharedModule -->
<g id="node2" class="node">
<title>CartSharedModule</title>
<polygon fill="#8dd3c7" stroke="#000000" points="482.0255,-122 479.0255,-126 458.0255,-126 455.0255,-122 359.9745,-122 359.9745,-86 482.0255,-86 482.0255,-122"/>
<text text-anchor="middle" x="421" y="-99.8" font-family="Times,serif" font-size="14.00" fill="#000000">CartSharedModule</text>
</g>
<!-- CartSharedModule&#45;&gt;CartComponentModule -->
<g id="edge2" class="edge">
<title>CartSharedModule&#45;&gt;CartComponentModule</title>
<path fill="none" stroke="#000000" d="M421,-122.1061C421,-122.1061 421,-140.991 421,-140.991"/>
<polygon fill="#000000" stroke="#000000" points="417.5001,-140.9909 421,-150.991 424.5001,-140.991 417.5001,-140.9909"/>
</g>
<!-- CartTotalsModule -->
<g id="node3" class="node">
<title>CartTotalsModule</title>
<polygon fill="#8dd3c7" stroke="#000000" points="341.1457,-122 338.1457,-126 317.1457,-126 314.1457,-122 222.8543,-122 222.8543,-86 341.1457,-86 341.1457,-122"/>
<text text-anchor="middle" x="282" y="-99.8" font-family="Times,serif" font-size="14.00" fill="#000000">CartTotalsModule</text>
</g>
<!-- CartTotalsModule&#45;&gt;CartComponentModule -->
<g id="edge3" class="edge">
<title>CartTotalsModule&#45;&gt;CartComponentModule</title>
<path fill="none" stroke="#000000" d="M341.3782,-104C348.3954,-104 353.1227,-104 353.1227,-104 353.1227,-104 353.1227,-140.8939 353.1227,-140.8939"/>
<polygon fill="#000000" stroke="#000000" points="349.6228,-140.8938 353.1227,-150.8939 356.6228,-140.8939 349.6228,-140.8938"/>
</g>
<!-- AddToCartModule  -->
<g id="node5" class="node">
<title>AddToCartModule </title>
<polygon fill="#fb8072" stroke="#000000" points="817.3115,-252 690.6885,-252 690.6885,-216 817.3115,-216 817.3115,-252"/>
<text text-anchor="middle" x="754" y="-229.8" font-family="Times,serif" font-size="14.00" fill="#000000">AddToCartModule </text>
</g>
<!-- CartComponentModule&#45;&gt;AddToCartModule  -->
<g id="edge4" class="edge">
<title>CartComponentModule&#45;&gt;AddToCartModule </title>
<path fill="none" stroke="#000000" stroke-dasharray="5,2" d="M495.7317,-163C593.9112,-163 754,-163 754,-163 754,-163 754,-205.7157 754,-205.7157"/>
<polygon fill="#000000" stroke="#000000" points="750.5001,-205.7157 754,-215.7157 757.5001,-205.7158 750.5001,-205.7157"/>
</g>
<!-- CartDetailsModule  -->
<g id="node6" class="node">
<title>CartDetailsModule </title>
<polygon fill="#fb8072" stroke="#000000" points="672.3046,-252 545.6954,-252 545.6954,-216 672.3046,-216 672.3046,-252"/>
<text text-anchor="middle" x="609" y="-229.8" font-family="Times,serif" font-size="14.00" fill="#000000">CartDetailsModule </text>
</g>
<!-- CartComponentModule&#45;&gt;CartDetailsModule  -->
<g id="edge5" class="edge">
<title>CartComponentModule&#45;&gt;CartDetailsModule </title>
<path fill="none" stroke="#000000" stroke-dasharray="5,2" d="M495.6302,-175C538.7846,-175 584.625,-175 584.625,-175 584.625,-175 584.625,-205.9775 584.625,-205.9775"/>
<polygon fill="#000000" stroke="#000000" points="581.1251,-205.9774 584.625,-215.9775 588.1251,-205.9775 581.1251,-205.9774"/>
</g>
<!-- CartModule  -->
<g id="node7" class="node">
<title>CartModule </title>
<polygon fill="#fb8072" stroke="#000000" points="527.6523,-252 440.3477,-252 440.3477,-216 527.6523,-216 527.6523,-252"/>
<text text-anchor="middle" x="484" y="-229.8" font-family="Times,serif" font-size="14.00" fill="#000000">CartModule </text>
</g>
<!-- CartComponentModule&#45;&gt;CartModule  -->
<g id="edge6" class="edge">
<title>CartComponentModule&#45;&gt;CartModule </title>
<path fill="none" stroke="#000000" stroke-dasharray="5,2" d="M467.9581,-187.1061C467.9581,-187.1061 467.9581,-205.991 467.9581,-205.991"/>
<polygon fill="#000000" stroke="#000000" points="464.4582,-205.9909 467.9581,-215.991 471.4582,-205.991 464.4582,-205.9909"/>
</g>
<!-- CartSharedModule  -->
<g id="node8" class="node">
<title>CartSharedModule </title>
<polygon fill="#fb8072" stroke="#000000" points="422.0246,-252 295.9754,-252 295.9754,-216 422.0246,-216 422.0246,-252"/>
<text text-anchor="middle" x="359" y="-229.8" font-family="Times,serif" font-size="14.00" fill="#000000">CartSharedModule </text>
</g>
<!-- CartComponentModule&#45;&gt;CartSharedModule  -->
<g id="edge7" class="edge">
<title>CartComponentModule&#45;&gt;CartSharedModule </title>
<path fill="none" stroke="#000000" stroke-dasharray="5,2" d="M384.26,-187.1061C384.26,-187.1061 384.26,-205.991 384.26,-205.991"/>
<polygon fill="#000000" stroke="#000000" points="380.7601,-205.9909 384.26,-215.991 387.7601,-205.991 380.7601,-205.9909"/>
</g>
<!-- CartTotalsModule  -->
<g id="node9" class="node">
<title>CartTotalsModule </title>
<polygon fill="#fb8072" stroke="#000000" points="278.1453,-252 155.8547,-252 155.8547,-216 278.1453,-216 278.1453,-252"/>
<text text-anchor="middle" x="217" y="-229.8" font-family="Times,serif" font-size="14.00" fill="#000000">CartTotalsModule </text>
</g>
<!-- CartComponentModule&#45;&gt;CartTotalsModule  -->
<g id="edge8" class="edge">
<title>CartComponentModule&#45;&gt;CartTotalsModule </title>
<path fill="none" stroke="#000000" stroke-dasharray="5,2" d="M346.1614,-175C300.3166,-175 250.375,-175 250.375,-175 250.375,-175 250.375,-205.9775 250.375,-205.9775"/>
<polygon fill="#000000" stroke="#000000" points="246.8751,-205.9774 250.375,-215.9775 253.8751,-205.9775 246.8751,-205.9774"/>
</g>
<!-- MiniCartModule  -->
<g id="node10" class="node">
<title>MiniCartModule </title>
<polygon fill="#fb8072" stroke="#000000" points="138.3786,-252 23.6214,-252 23.6214,-216 138.3786,-216 138.3786,-252"/>
<text text-anchor="middle" x="81" y="-229.8" font-family="Times,serif" font-size="14.00" fill="#000000">MiniCartModule </text>
</g>
<!-- CartComponentModule&#45;&gt;MiniCartModule  -->
<g id="edge9" class="edge">
<title>CartComponentModule&#45;&gt;MiniCartModule </title>
<path fill="none" stroke="#000000" stroke-dasharray="5,2" d="M346.3856,-163C246.301,-163 81,-163 81,-163 81,-163 81,-205.7157 81,-205.7157"/>
<polygon fill="#000000" stroke="#000000" points="77.5001,-205.7157 81,-215.7157 84.5001,-205.7158 77.5001,-205.7157"/>
</g>
</g>
</svg>
