<?xml version="1.0" encoding="UTF-8" standalone="no"?>
<!DOCTYPE svg PUBLIC "-//W3C//DTD SVG 1.1//EN"
 "http://www.w3.org/Graphics/SVG/1.1/DTD/svg11.dtd">
<!-- Generated by graphviz version 2.40.1 (20161225.0304)
 -->
<!-- Title: dependencies Pages: 1 -->
<svg width="704pt" height="284pt"
 viewBox="0.00 0.00 704.00 284.00" xmlns="http://www.w3.org/2000/svg" xmlns:xlink="http://www.w3.org/1999/xlink">
<g id="graph0" class="graph" transform="scale(1 1) rotate(0) translate(4 280)">
<title>dependencies</title>
<polygon fill="#ffffff" stroke="transparent" points="-4,4 -4,-280 700,-280 700,4 -4,4"/>
<text text-anchor="start" x="327.0091" y="-42.4" font-family="sans-serif" font-weight="bold" font-size="14.00" fill="#000000">Legend</text>
<polygon fill="#ffffb3" stroke="transparent" points="114,-10 114,-30 134,-30 134,-10 114,-10"/>
<text text-anchor="start" x="137.629" y="-15.4" font-family="sans-serif" font-size="14.00" fill="#000000"> &#160;Declarations</text>
<polygon fill="#8dd3c7" stroke="transparent" points="227,-10 227,-30 247,-30 247,-10 227,-10"/>
<text text-anchor="start" x="250.7251" y="-15.4" font-family="sans-serif" font-size="14.00" fill="#000000"> &#160;Module</text>
<polygon fill="#80b1d3" stroke="transparent" points="313,-10 313,-30 333,-30 333,-10 313,-10"/>
<text text-anchor="start" x="336.7812" y="-15.4" font-family="sans-serif" font-size="14.00" fill="#000000"> &#160;Bootstrap</text>
<polygon fill="#fdb462" stroke="transparent" points="410,-10 410,-30 430,-30 430,-10 410,-10"/>
<text text-anchor="start" x="433.6732" y="-15.4" font-family="sans-serif" font-size="14.00" fill="#000000"> &#160;Providers</text>
<polygon fill="#fb8072" stroke="transparent" points="506,-10 506,-30 526,-30 526,-10 506,-10"/>
<text text-anchor="start" x="529.7258" y="-15.4" font-family="sans-serif" font-size="14.00" fill="#000000"> &#160;Exports</text>
<g id="clust1" class="cluster">
<title>cluster_ProductReferencesModule</title>
<polygon fill="none" stroke="#000000" stroke-dasharray="1,5" points="8,-70 8,-268 688,-268 688,-70 8,-70"/>
</g>
<g id="clust2" class="cluster">
<title>cluster_ProductReferencesModule_declarations</title>
<polygon fill="none" stroke="#000000" points="476,-78 476,-130 680,-130 680,-78 476,-78"/>
</g>
<g id="clust4" class="cluster">
<title>cluster_ProductReferencesModule_imports</title>
<polygon fill="none" stroke="#000000" points="16,-78 16,-130 468,-130 468,-78 16,-78"/>
</g>
<g id="clust5" class="cluster">
<title>cluster_ProductReferencesModule_exports</title>
<polygon fill="none" stroke="#000000" points="180,-208 180,-260 386,-260 386,-208 180,-208"/>
</g>
<!-- ProductReferencesComponent -->
<g id="node1" class="node">
<title>ProductReferencesComponent</title>
<polygon fill="#ffffb3" stroke="#000000" points="671.5562,-122 484.4438,-122 484.4438,-86 671.5562,-86 671.5562,-122"/>
<text text-anchor="middle" x="578" y="-99.8" font-family="Times,serif" font-size="14.00" fill="#000000">ProductReferencesComponent</text>
</g>
<!-- ProductReferencesModule -->
<g id="node2" class="node">
<title>ProductReferencesModule</title>
<polygon fill="#8dd3c7" stroke="#000000" points="365.7738,-187 362.7738,-191 341.7738,-191 338.7738,-187 200.2262,-187 200.2262,-151 365.7738,-151 365.7738,-187"/>
<text text-anchor="middle" x="283" y="-164.8" font-family="Times,serif" font-size="14.00" fill="#000000">ProductReferencesModule</text>
</g>
<!-- ProductReferencesComponent&#45;&gt;ProductReferencesModule -->
<g id="edge1" class="edge">
<title>ProductReferencesComponent&#45;&gt;ProductReferencesModule</title>
<path fill="none" stroke="#000000" d="M578,-122.1061C578,-141.3391 578,-169 578,-169 578,-169 375.959,-169 375.959,-169"/>
<polygon fill="#000000" stroke="#000000" points="375.959,-165.5001 365.959,-169 375.959,-172.5001 375.959,-165.5001"/>
</g>
<!-- ProductReferencesComponent  -->
<g id="node7" class="node">
<title>ProductReferencesComponent </title>
<polygon fill="#fb8072" stroke="#000000" points="378.0567,-252 187.9433,-252 187.9433,-216 378.0567,-216 378.0567,-252"/>
<text text-anchor="middle" x="283" y="-229.8" font-family="Times,serif" font-size="14.00" fill="#000000">ProductReferencesComponent </text>
</g>
<!-- ProductReferencesModule&#45;&gt;ProductReferencesComponent  -->
<g id="edge6" class="edge">
<title>ProductReferencesModule&#45;&gt;ProductReferencesComponent </title>
<path fill="none" stroke="#000000" stroke-dasharray="5,2" d="M283,-187.1061C283,-187.1061 283,-205.991 283,-205.991"/>
<polygon fill="#000000" stroke="#000000" points="279.5001,-205.9909 283,-215.991 286.5001,-205.991 279.5001,-205.9909"/>
</g>
<!-- CarouselModule -->
<g id="node3" class="node">
<title>CarouselModule</title>
<polygon fill="#8dd3c7" stroke="#000000" points="459.8118,-122 456.8118,-126 435.8118,-126 432.8118,-122 350.1882,-122 350.1882,-86 459.8118,-86 459.8118,-122"/>
<text text-anchor="middle" x="405" y="-99.8" font-family="Times,serif" font-size="14.00" fill="#000000">CarouselModule</text>
</g>
<!-- CarouselModule&#45;&gt;ProductReferencesModule -->
<g id="edge2" class="edge">
<title>CarouselModule&#45;&gt;ProductReferencesModule</title>
<path fill="none" stroke="#000000" d="M357.9906,-122.1061C357.9906,-122.1061 357.9906,-140.991 357.9906,-140.991"/>
<polygon fill="#000000" stroke="#000000" points="354.4906,-140.9909 357.9906,-150.991 361.4906,-140.991 354.4906,-140.9909"/>
</g>
<!-- ConfigModule -->
<g id="node4" class="node">
<title>ConfigModule</title>
<polygon fill="#8dd3c7" stroke="#000000" points="332.4386,-122 329.4386,-126 308.4386,-126 305.4386,-122 233.5614,-122 233.5614,-86 332.4386,-86 332.4386,-122"/>
<text text-anchor="middle" x="283" y="-99.8" font-family="Times,serif" font-size="14.00" fill="#000000">ConfigModule</text>
</g>
<!-- ConfigModule&#45;&gt;ProductReferencesModule -->
<g id="edge3" class="edge">
<title>ConfigModule&#45;&gt;ProductReferencesModule</title>
<path fill="none" stroke="#000000" d="M283,-122.1061C283,-122.1061 283,-140.991 283,-140.991"/>
<polygon fill="#000000" stroke="#000000" points="279.5001,-140.9909 283,-150.991 286.5001,-140.991 279.5001,-140.9909"/>
</g>
<!-- MediaModule -->
<g id="node5" class="node">
<title>MediaModule</title>
<polygon fill="#8dd3c7" stroke="#000000" points="215.8147,-122 212.8147,-126 191.8147,-126 188.8147,-122 120.1853,-122 120.1853,-86 215.8147,-86 215.8147,-122"/>
<text text-anchor="middle" x="168" y="-99.8" font-family="Times,serif" font-size="14.00" fill="#000000">MediaModule</text>
</g>
<!-- MediaModule&#45;&gt;ProductReferencesModule -->
<g id="edge4" class="edge">
<title>MediaModule&#45;&gt;ProductReferencesModule</title>
<path fill="none" stroke="#000000" d="M208.0102,-122.1061C208.0102,-122.1061 208.0102,-140.991 208.0102,-140.991"/>
<polygon fill="#000000" stroke="#000000" points="204.5102,-140.9909 208.0102,-150.991 211.5102,-140.991 204.5102,-140.9909"/>
</g>
<!-- UrlModule -->
<g id="node6" class="node">
<title>UrlModule</title>
<polygon fill="#8dd3c7" stroke="#000000" points="102.2079,-122 99.2079,-126 78.2079,-126 75.2079,-122 23.7921,-122 23.7921,-86 102.2079,-86 102.2079,-122"/>
<text text-anchor="middle" x="63" y="-99.8" font-family="Times,serif" font-size="14.00" fill="#000000">UrlModule</text>
</g>
<!-- UrlModule&#45;&gt;ProductReferencesModule -->
<g id="edge5" class="edge">
<title>UrlModule&#45;&gt;ProductReferencesModule</title>
<path fill="none" stroke="#000000" d="M63,-122.1061C63,-141.3391 63,-169 63,-169 63,-169 190.1409,-169 190.1409,-169"/>
<polygon fill="#000000" stroke="#000000" points="190.141,-172.5001 200.1409,-169 190.1409,-165.5001 190.141,-172.5001"/>
</g>
</g>
</svg>
