<?xml version="1.0" encoding="UTF-8" standalone="no"?>
<!DOCTYPE svg PUBLIC "-//W3C//DTD SVG 1.1//EN"
 "http://www.w3.org/Graphics/SVG/1.1/DTD/svg11.dtd">
<!-- Generated by graphviz version 2.44.1 (20200629.0846)
 -->
<!-- Title: dependencies Pages: 1 -->
<svg width="587pt" height="284pt"
 viewBox="0.00 0.00 587.00 284.00" xmlns="http://www.w3.org/2000/svg" xmlns:xlink="http://www.w3.org/1999/xlink">
<g id="graph0" class="graph" transform="scale(1 1) rotate(0) translate(4 280)">
<title>dependencies</title>
<polygon fill="white" stroke="transparent" points="-4,4 -4,-280 583,-280 583,4 -4,4"/>
<text text-anchor="start" x="268.51" y="-42.4" font-family="sans-serif" font-weight="bold" font-size="14.00">Legend</text>
<polygon fill="#ffffb3" stroke="transparent" points="55.5,-10 55.5,-30 75.5,-30 75.5,-10 55.5,-10"/>
<text text-anchor="start" x="79.13" y="-15.4" font-family="sans-serif" font-size="14.00"> &#160;Declarations</text>
<polygon fill="#8dd3c7" stroke="transparent" points="168.5,-10 168.5,-30 188.5,-30 188.5,-10 168.5,-10"/>
<text text-anchor="start" x="192.23" y="-15.4" font-family="sans-serif" font-size="14.00"> &#160;Module</text>
<polygon fill="#80b1d3" stroke="transparent" points="254.5,-10 254.5,-30 274.5,-30 274.5,-10 254.5,-10"/>
<text text-anchor="start" x="278.28" y="-15.4" font-family="sans-serif" font-size="14.00"> &#160;Bootstrap</text>
<polygon fill="#fdb462" stroke="transparent" points="351.5,-10 351.5,-30 371.5,-30 371.5,-10 351.5,-10"/>
<text text-anchor="start" x="375.17" y="-15.4" font-family="sans-serif" font-size="14.00"> &#160;Providers</text>
<polygon fill="#fb8072" stroke="transparent" points="447.5,-10 447.5,-30 467.5,-30 467.5,-10 447.5,-10"/>
<text text-anchor="start" x="471.23" y="-15.4" font-family="sans-serif" font-size="14.00"> &#160;Exports</text>
<g id="clust1" class="cluster">
<title>cluster_ProductReferencesModule</title>
<polygon fill="none" stroke="black" stroke-dasharray="1,5" points="8,-70 8,-268 571,-268 571,-70 8,-70"/>
</g>
<g id="clust4" class="cluster">
<title>cluster_ProductReferencesModule_imports</title>
<polygon fill="none" stroke="black" points="228,-78 228,-130 563,-130 563,-78 228,-78"/>
</g>
<g id="clust5" class="cluster">
<title>cluster_ProductReferencesModule_exports</title>
<polygon fill="none" stroke="black" points="224,-208 224,-260 430,-260 430,-208 224,-208"/>
</g>
<g id="clust2" class="cluster">
<title>cluster_ProductReferencesModule_declarations</title>
<polygon fill="none" stroke="black" points="16,-78 16,-130 220,-130 220,-78 16,-78"/>
</g>
<!-- ProductReferencesComponent -->
<g id="node1" class="node">
<title>ProductReferencesComponent</title>
<polygon fill="#ffffb3" stroke="black" points="211.56,-122 24.44,-122 24.44,-86 211.56,-86 211.56,-122"/>
<text text-anchor="middle" x="118" y="-99.8" font-family="Times,serif" font-size="14.00">ProductReferencesComponent</text>
</g>
<!-- ProductReferencesModule -->
<g id="node2" class="node">
<title>ProductReferencesModule</title>
<polygon fill="#8dd3c7" stroke="black" points="409.77,-187 406.77,-191 385.77,-191 382.77,-187 244.23,-187 244.23,-151 409.77,-151 409.77,-187"/>
<text text-anchor="middle" x="327" y="-164.8" font-family="Times,serif" font-size="14.00">ProductReferencesModule</text>
</g>
<!-- ProductReferencesComponent&#45;&gt;ProductReferencesModule -->
<g id="edge1" class="edge">
<title>ProductReferencesComponent&#45;&gt;ProductReferencesModule</title>
<path fill="none" stroke="black" d="M118,-122.11C118,-141.34 118,-169 118,-169 118,-169 234.1,-169 234.1,-169"/>
<polygon fill="black" stroke="black" points="234.1,-172.5 244.1,-169 234.1,-165.5 234.1,-172.5"/>
</g>
<!-- ProductReferencesComponent  -->
<g id="node6" class="node">
<title>ProductReferencesComponent </title>
<polygon fill="#fb8072" stroke="black" points="422.06,-252 231.94,-252 231.94,-216 422.06,-216 422.06,-252"/>
<text text-anchor="middle" x="327" y="-229.8" font-family="Times,serif" font-size="14.00">ProductReferencesComponent </text>
</g>
<!-- ProductReferencesModule&#45;&gt;ProductReferencesComponent  -->
<g id="edge5" class="edge">
<title>ProductReferencesModule&#45;&gt;ProductReferencesComponent </title>
<path fill="none" stroke="black" stroke-dasharray="5,2" d="M327,-187.11C327,-187.11 327,-205.99 327,-205.99"/>
<polygon fill="black" stroke="black" points="323.5,-205.99 327,-215.99 330.5,-205.99 323.5,-205.99"/>
</g>
<!-- CarouselModule -->
<g id="node3" class="node">
<title>CarouselModule</title>
<polygon fill="#8dd3c7" stroke="black" points="554.81,-122 551.81,-126 530.81,-126 527.81,-122 445.19,-122 445.19,-86 554.81,-86 554.81,-122"/>
<text text-anchor="middle" x="500" y="-99.8" font-family="Times,serif" font-size="14.00">CarouselModule</text>
</g>
<!-- CarouselModule&#45;&gt;ProductReferencesModule -->
<g id="edge2" class="edge">
<title>CarouselModule&#45;&gt;ProductReferencesModule</title>
<path fill="none" stroke="black" d="M500,-122.11C500,-141.34 500,-169 500,-169 500,-169 419.7,-169 419.7,-169"/>
<polygon fill="black" stroke="black" points="419.7,-165.5 409.7,-169 419.7,-172.5 419.7,-165.5"/>
</g>
<!-- MediaModule -->
<g id="node4" class="node">
<title>MediaModule</title>
<polygon fill="#8dd3c7" stroke="black" points="427.81,-122 424.81,-126 403.81,-126 400.81,-122 332.19,-122 332.19,-86 427.81,-86 427.81,-122"/>
<text text-anchor="middle" x="380" y="-99.8" font-family="Times,serif" font-size="14.00">MediaModule</text>
</g>
<!-- MediaModule&#45;&gt;ProductReferencesModule -->
<g id="edge3" class="edge">
<title>MediaModule&#45;&gt;ProductReferencesModule</title>
<path fill="none" stroke="black" d="M370.99,-122.11C370.99,-122.11 370.99,-140.99 370.99,-140.99"/>
<polygon fill="black" stroke="black" points="367.49,-140.99 370.99,-150.99 374.49,-140.99 367.49,-140.99"/>
</g>
<!-- UrlModule -->
<g id="node5" class="node">
<title>UrlModule</title>
<polygon fill="#8dd3c7" stroke="black" points="314.21,-122 311.21,-126 290.21,-126 287.21,-122 235.79,-122 235.79,-86 314.21,-86 314.21,-122"/>
<text text-anchor="middle" x="275" y="-99.8" font-family="Times,serif" font-size="14.00">UrlModule</text>
</g>
<!-- UrlModule&#45;&gt;ProductReferencesModule -->
<g id="edge4" class="edge">
<title>UrlModule&#45;&gt;ProductReferencesModule</title>
<path fill="none" stroke="black" d="M279.23,-122.11C279.23,-122.11 279.23,-140.99 279.23,-140.99"/>
<polygon fill="black" stroke="black" points="275.73,-140.99 279.23,-150.99 282.73,-140.99 275.73,-140.99"/>
</g>
</g>
</svg>
