<?xml version="1.0" encoding="UTF-8" standalone="no"?>
<!DOCTYPE svg PUBLIC "-//W3C//DTD SVG 1.1//EN"
 "http://www.w3.org/Graphics/SVG/1.1/DTD/svg11.dtd">
<!-- Generated by graphviz version 2.40.1 (20161225.0304)
 -->
<!-- Title: dependencies Pages: 1 -->
<svg width="1459pt" height="284pt"
 viewBox="0.00 0.00 1459.00 284.00" xmlns="http://www.w3.org/2000/svg" xmlns:xlink="http://www.w3.org/1999/xlink">
<g id="graph0" class="graph" transform="scale(1 1) rotate(0) translate(4 280)">
<title>dependencies</title>
<polygon fill="#ffffff" stroke="transparent" points="-4,4 -4,-280 1455,-280 1455,4 -4,4"/>
<text text-anchor="start" x="704.5091" y="-42.4" font-family="sans-serif" font-weight="bold" font-size="14.00" fill="#000000">Legend</text>
<polygon fill="#ffffb3" stroke="transparent" points="491.5,-10 491.5,-30 511.5,-30 511.5,-10 491.5,-10"/>
<text text-anchor="start" x="515.129" y="-15.4" font-family="sans-serif" font-size="14.00" fill="#000000"> &#160;Declarations</text>
<polygon fill="#8dd3c7" stroke="transparent" points="604.5,-10 604.5,-30 624.5,-30 624.5,-10 604.5,-10"/>
<text text-anchor="start" x="628.2251" y="-15.4" font-family="sans-serif" font-size="14.00" fill="#000000"> &#160;Module</text>
<polygon fill="#80b1d3" stroke="transparent" points="690.5,-10 690.5,-30 710.5,-30 710.5,-10 690.5,-10"/>
<text text-anchor="start" x="714.2812" y="-15.4" font-family="sans-serif" font-size="14.00" fill="#000000"> &#160;Bootstrap</text>
<polygon fill="#fdb462" stroke="transparent" points="787.5,-10 787.5,-30 807.5,-30 807.5,-10 787.5,-10"/>
<text text-anchor="start" x="811.1732" y="-15.4" font-family="sans-serif" font-size="14.00" fill="#000000"> &#160;Providers</text>
<polygon fill="#fb8072" stroke="transparent" points="883.5,-10 883.5,-30 903.5,-30 903.5,-10 883.5,-10"/>
<text text-anchor="start" x="907.2258" y="-15.4" font-family="sans-serif" font-size="14.00" fill="#000000"> &#160;Exports</text>
<g id="clust1" class="cluster">
<title>cluster_ProductDetailsModule</title>
<polygon fill="none" stroke="#000000" stroke-dasharray="1,5" points="8,-70 8,-268 1443,-268 1443,-70 8,-70"/>
</g>
<g id="clust2" class="cluster">
<title>cluster_ProductDetailsModule_declarations</title>
<polygon fill="none" stroke="#000000" points="874,-78 874,-130 1435,-130 1435,-78 874,-78"/>
</g>
<g id="clust6" class="cluster">
<title>cluster_ProductDetailsModule_imports</title>
<polygon fill="none" stroke="#000000" points="16,-78 16,-130 866,-130 866,-78 16,-78"/>
</g>
<g id="clust7" class="cluster">
<title>cluster_ProductDetailsModule_exports</title>
<polygon fill="none" stroke="#000000" points="301,-208 301,-260 872,-260 872,-208 301,-208"/>
</g>
<!-- ProductDetailsComponent -->
<g id="node1" class="node">
<title>ProductDetailsComponent</title>
<polygon fill="#ffffb3" stroke="#000000" points="1427.0337,-122 1262.9663,-122 1262.9663,-86 1427.0337,-86 1427.0337,-122"/>
<text text-anchor="middle" x="1345" y="-99.8" font-family="Times,serif" font-size="14.00" fill="#000000">ProductDetailsComponent</text>
</g>
<!-- ProductDetailsModule -->
<g id="node4" class="node">
<title>ProductDetailsModule</title>
<polygon fill="#8dd3c7" stroke="#000000" points="665.2506,-187 662.2506,-191 641.2506,-191 638.2506,-187 522.7494,-187 522.7494,-151 665.2506,-151 665.2506,-187"/>
<text text-anchor="middle" x="594" y="-164.8" font-family="Times,serif" font-size="14.00" fill="#000000">ProductDetailsModule</text>
</g>
<!-- ProductDetailsComponent&#45;&gt;ProductDetailsModule -->
<g id="edge1" class="edge">
<title>ProductDetailsComponent&#45;&gt;ProductDetailsModule</title>
<path fill="none" stroke="#000000" d="M1345,-122.2843C1345,-143.3211 1345,-175 1345,-175 1345,-175 675.3293,-175 675.3293,-175"/>
<polygon fill="#000000" stroke="#000000" points="675.3294,-171.5001 665.3293,-175 675.3293,-178.5001 675.3294,-171.5001"/>
</g>
<!-- ProductImagesComponent -->
<g id="node2" class="node">
<title>ProductImagesComponent</title>
<polygon fill="#ffffb3" stroke="#000000" points="1244.8061,-122 1079.1939,-122 1079.1939,-86 1244.8061,-86 1244.8061,-122"/>
<text text-anchor="middle" x="1162" y="-99.8" font-family="Times,serif" font-size="14.00" fill="#000000">ProductImagesComponent</text>
</g>
<!-- ProductImagesComponent&#45;&gt;ProductDetailsModule -->
<g id="edge2" class="edge">
<title>ProductImagesComponent&#45;&gt;ProductDetailsModule</title>
<path fill="none" stroke="#000000" d="M1162,-122.1061C1162,-141.3391 1162,-169 1162,-169 1162,-169 675.3625,-169 675.3625,-169"/>
<polygon fill="#000000" stroke="#000000" points="675.3625,-165.5001 665.3625,-169 675.3624,-172.5001 675.3625,-165.5001"/>
</g>
<!-- ProductSummaryComponent -->
<g id="node3" class="node">
<title>ProductSummaryComponent</title>
<polygon fill="#ffffb3" stroke="#000000" points="1061.8201,-122 882.1799,-122 882.1799,-86 1061.8201,-86 1061.8201,-122"/>
<text text-anchor="middle" x="972" y="-99.8" font-family="Times,serif" font-size="14.00" fill="#000000">ProductSummaryComponent</text>
</g>
<!-- ProductSummaryComponent&#45;&gt;ProductDetailsModule -->
<g id="edge3" class="edge">
<title>ProductSummaryComponent&#45;&gt;ProductDetailsModule</title>
<path fill="none" stroke="#000000" d="M972,-122.0225C972,-139.3734 972,-163 972,-163 972,-163 675.5433,-163 675.5433,-163"/>
<polygon fill="#000000" stroke="#000000" points="675.5433,-159.5001 665.5433,-163 675.5433,-166.5001 675.5433,-159.5001"/>
</g>
<!-- ProductDetailsComponent  -->
<g id="node12" class="node">
<title>ProductDetailsComponent </title>
<polygon fill="#fb8072" stroke="#000000" points="864.033,-252 695.967,-252 695.967,-216 864.033,-216 864.033,-252"/>
<text text-anchor="middle" x="780" y="-229.8" font-family="Times,serif" font-size="14.00" fill="#000000">ProductDetailsComponent </text>
</g>
<!-- ProductDetailsModule&#45;&gt;ProductDetailsComponent  -->
<g id="edge11" class="edge">
<title>ProductDetailsModule&#45;&gt;ProductDetailsComponent </title>
<path fill="none" stroke="#000000" stroke-dasharray="5,2" d="M665.3268,-181C687.4399,-181 706.1229,-181 706.1229,-181 706.1229,-181 706.1229,-205.7604 706.1229,-205.7604"/>
<polygon fill="#000000" stroke="#000000" points="702.623,-205.7604 706.1229,-215.7604 709.623,-205.7604 702.623,-205.7604"/>
</g>
<!-- ProductImagesComponent  -->
<g id="node13" class="node">
<title>ProductImagesComponent </title>
<polygon fill="#fb8072" stroke="#000000" points="678.3059,-252 509.6941,-252 509.6941,-216 678.3059,-216 678.3059,-252"/>
<text text-anchor="middle" x="594" y="-229.8" font-family="Times,serif" font-size="14.00" fill="#000000">ProductImagesComponent </text>
</g>
<!-- ProductDetailsModule&#45;&gt;ProductImagesComponent  -->
<g id="edge12" class="edge">
<title>ProductDetailsModule&#45;&gt;ProductImagesComponent </title>
<path fill="none" stroke="#000000" stroke-dasharray="5,2" d="M594,-187.1061C594,-187.1061 594,-205.991 594,-205.991"/>
<polygon fill="#000000" stroke="#000000" points="590.5001,-205.9909 594,-215.991 597.5001,-205.991 590.5001,-205.9909"/>
</g>
<!-- ProductSummaryComponent  -->
<g id="node14" class="node">
<title>ProductSummaryComponent </title>
<polygon fill="#fb8072" stroke="#000000" points="491.3199,-252 308.6801,-252 308.6801,-216 491.3199,-216 491.3199,-252"/>
<text text-anchor="middle" x="400" y="-229.8" font-family="Times,serif" font-size="14.00" fill="#000000">ProductSummaryComponent </text>
</g>
<!-- ProductDetailsModule&#45;&gt;ProductSummaryComponent  -->
<g id="edge13" class="edge">
<title>ProductDetailsModule&#45;&gt;ProductSummaryComponent </title>
<path fill="none" stroke="#000000" stroke-dasharray="5,2" d="M522.4315,-181C500.2435,-181 481.4972,-181 481.4972,-181 481.4972,-181 481.4972,-205.7604 481.4972,-205.7604"/>
<polygon fill="#000000" stroke="#000000" points="477.9973,-205.7604 481.4972,-215.7604 484.9973,-205.7604 477.9973,-205.7604"/>
</g>
<!-- AddToCartModule -->
<g id="node5" class="node">
<title>AddToCartModule</title>
<polygon fill="#8dd3c7" stroke="#000000" points="857.8118,-122 854.8118,-126 833.8118,-126 830.8118,-122 734.1882,-122 734.1882,-86 857.8118,-86 857.8118,-122"/>
<text text-anchor="middle" x="796" y="-99.8" font-family="Times,serif" font-size="14.00" fill="#000000">AddToCartModule</text>
</g>
<!-- AddToCartModule&#45;&gt;ProductDetailsModule -->
<g id="edge4" class="edge">
<title>AddToCartModule&#45;&gt;ProductDetailsModule</title>
<path fill="none" stroke="#000000" d="M796,-122.2396C796,-137.5706 796,-157 796,-157 796,-157 675.5019,-157 675.5019,-157"/>
<polygon fill="#000000" stroke="#000000" points="675.5019,-153.5001 665.5019,-157 675.5019,-160.5001 675.5019,-153.5001"/>
</g>
<!-- CartSharedModule -->
<g id="node6" class="node">
<title>CartSharedModule</title>
<polygon fill="#8dd3c7" stroke="#000000" points="716.0255,-122 713.0255,-126 692.0255,-126 689.0255,-122 593.9745,-122 593.9745,-86 716.0255,-86 716.0255,-122"/>
<text text-anchor="middle" x="655" y="-99.8" font-family="Times,serif" font-size="14.00" fill="#000000">CartSharedModule</text>
</g>
<!-- CartSharedModule&#45;&gt;ProductDetailsModule -->
<g id="edge5" class="edge">
<title>CartSharedModule&#45;&gt;ProductDetailsModule</title>
<path fill="none" stroke="#000000" d="M629.5565,-122.1061C629.5565,-122.1061 629.5565,-140.991 629.5565,-140.991"/>
<polygon fill="#000000" stroke="#000000" points="626.0565,-140.9909 629.5565,-150.991 633.0565,-140.991 626.0565,-140.9909"/>
</g>
<!-- CmsModule -->
<g id="node7" class="node">
<title>CmsModule</title>
<polygon fill="#8dd3c7" stroke="#000000" points="575.7219,-122 572.7219,-126 551.7219,-126 548.7219,-122 490.2781,-122 490.2781,-86 575.7219,-86 575.7219,-122"/>
<text text-anchor="middle" x="533" y="-99.8" font-family="Times,serif" font-size="14.00" fill="#000000">CmsModule</text>
</g>
<!-- CmsModule&#45;&gt;ProductDetailsModule -->
<g id="edge6" class="edge">
<title>CmsModule&#45;&gt;ProductDetailsModule</title>
<path fill="none" stroke="#000000" d="M549.1178,-122.1061C549.1178,-122.1061 549.1178,-140.991 549.1178,-140.991"/>
<polygon fill="#000000" stroke="#000000" points="545.6179,-140.9909 549.1178,-150.991 552.6179,-140.991 545.6179,-140.9909"/>
</g>
<!-- I18nModule -->
<g id="node8" class="node">
<title>I18nModule</title>
<polygon fill="#8dd3c7" stroke="#000000" points="472.7107,-122 469.7107,-126 448.7107,-126 445.7107,-122 387.2893,-122 387.2893,-86 472.7107,-86 472.7107,-122"/>
<text text-anchor="middle" x="430" y="-99.8" font-family="Times,serif" font-size="14.00" fill="#000000">I18nModule</text>
</g>
<!-- I18nModule&#45;&gt;ProductDetailsModule -->
<g id="edge7" class="edge">
<title>I18nModule&#45;&gt;ProductDetailsModule</title>
<path fill="none" stroke="#000000" d="M430,-122.2396C430,-137.5706 430,-157 430,-157 430,-157 512.5443,-157 512.5443,-157"/>
<polygon fill="#000000" stroke="#000000" points="512.5443,-160.5001 522.5443,-157 512.5443,-153.5001 512.5443,-160.5001"/>
</g>
<!-- MediaModule -->
<g id="node9" class="node">
<title>MediaModule</title>
<polygon fill="#8dd3c7" stroke="#000000" points="369.8147,-122 366.8147,-126 345.8147,-126 342.8147,-122 274.1853,-122 274.1853,-86 369.8147,-86 369.8147,-122"/>
<text text-anchor="middle" x="322" y="-99.8" font-family="Times,serif" font-size="14.00" fill="#000000">MediaModule</text>
</g>
<!-- MediaModule&#45;&gt;ProductDetailsModule -->
<g id="edge8" class="edge">
<title>MediaModule&#45;&gt;ProductDetailsModule</title>
<path fill="none" stroke="#000000" d="M339.1236,-122.0225C339.1236,-139.3734 339.1236,-163 339.1236,-163 339.1236,-163 512.6638,-163 512.6638,-163"/>
<polygon fill="#000000" stroke="#000000" points="512.6638,-166.5001 522.6638,-163 512.6638,-159.5001 512.6638,-166.5001"/>
</g>
<!-- OutletModule -->
<g id="node10" class="node">
<title>OutletModule</title>
<polygon fill="#8dd3c7" stroke="#000000" points="256.0439,-122 253.0439,-126 232.0439,-126 229.0439,-122 161.9561,-122 161.9561,-86 256.0439,-86 256.0439,-122"/>
<text text-anchor="middle" x="209" y="-99.8" font-family="Times,serif" font-size="14.00" fill="#000000">OutletModule</text>
</g>
<!-- OutletModule&#45;&gt;ProductDetailsModule -->
<g id="edge9" class="edge">
<title>OutletModule&#45;&gt;ProductDetailsModule</title>
<path fill="none" stroke="#000000" d="M209,-122.1061C209,-141.3391 209,-169 209,-169 209,-169 512.4867,-169 512.4867,-169"/>
<polygon fill="#000000" stroke="#000000" points="512.4868,-172.5001 522.4867,-169 512.4867,-165.5001 512.4868,-172.5001"/>
</g>
<!-- StarRatingModule -->
<g id="node11" class="node">
<title>StarRatingModule</title>
<polygon fill="#8dd3c7" stroke="#000000" points="143.9314,-122 140.9314,-126 119.9314,-126 116.9314,-122 24.0686,-122 24.0686,-86 143.9314,-86 143.9314,-122"/>
<text text-anchor="middle" x="84" y="-99.8" font-family="Times,serif" font-size="14.00" fill="#000000">StarRatingModule</text>
</g>
<!-- StarRatingModule&#45;&gt;ProductDetailsModule -->
<g id="edge10" class="edge">
<title>StarRatingModule&#45;&gt;ProductDetailsModule</title>
<path fill="none" stroke="#000000" d="M84,-122.2843C84,-143.3211 84,-175 84,-175 84,-175 512.5497,-175 512.5497,-175"/>
<polygon fill="#000000" stroke="#000000" points="512.5497,-178.5001 522.5497,-175 512.5496,-171.5001 512.5497,-178.5001"/>
</g>
</g>
</svg>
