<?xml version="1.0" encoding="UTF-8" standalone="no"?>
<!DOCTYPE svg PUBLIC "-//W3C//DTD SVG 1.1//EN"
 "http://www.w3.org/Graphics/SVG/1.1/DTD/svg11.dtd">
<!-- Generated by graphviz version 2.46.0 (20210119.1425)
 -->
<!-- Title: dependencies Pages: 1 -->
<svg width="1090pt" height="349pt"
 viewBox="0.00 0.00 1090.00 349.00" xmlns="http://www.w3.org/2000/svg" xmlns:xlink="http://www.w3.org/1999/xlink">
<g id="graph0" class="graph" transform="scale(1 1) rotate(0) translate(4 345)">
<title>dependencies</title>
<polygon fill="white" stroke="transparent" points="-4,4 -4,-345 1086,-345 1086,4 -4,4"/>
<text text-anchor="start" x="520.01" y="-42.4" font-family="sans-serif" font-weight="bold" font-size="14.00">Legend</text>
<polygon fill="#ffffb3" stroke="transparent" points="307,-10 307,-30 327,-30 327,-10 307,-10"/>
<text text-anchor="start" x="330.63" y="-15.4" font-family="sans-serif" font-size="14.00"> &#160;Declarations</text>
<polygon fill="#8dd3c7" stroke="transparent" points="420,-10 420,-30 440,-30 440,-10 420,-10"/>
<text text-anchor="start" x="443.73" y="-15.4" font-family="sans-serif" font-size="14.00"> &#160;Module</text>
<polygon fill="#80b1d3" stroke="transparent" points="506,-10 506,-30 526,-30 526,-10 506,-10"/>
<text text-anchor="start" x="529.78" y="-15.4" font-family="sans-serif" font-size="14.00"> &#160;Bootstrap</text>
<polygon fill="#fdb462" stroke="transparent" points="603,-10 603,-30 623,-30 623,-10 603,-10"/>
<text text-anchor="start" x="626.67" y="-15.4" font-family="sans-serif" font-size="14.00"> &#160;Providers</text>
<polygon fill="#fb8072" stroke="transparent" points="699,-10 699,-30 719,-30 719,-10 699,-10"/>
<text text-anchor="start" x="722.73" y="-15.4" font-family="sans-serif" font-size="14.00"> &#160;Exports</text>
<g id="clust1" class="cluster">
<title>cluster_UserFormModule</title>
<polygon fill="none" stroke="black" stroke-dasharray="1,5" points="8,-70 8,-333 1074,-333 1074,-70 8,-70"/>
</g>
<g id="clust2" class="cluster">
<title>cluster_UserFormModule_declarations</title>
<polygon fill="none" stroke="black" points="610,-143 610,-195 764,-195 764,-143 610,-143"/>
</g>
<g id="clust5" class="cluster">
<title>cluster_UserFormModule_exports</title>
<polygon fill="none" stroke="black" points="328,-273 328,-325 486,-325 486,-273 328,-273"/>
</g>
<g id="clust3" class="cluster">
<title>cluster_UserFormModule_UserFormComponent_providers</title>
<polygon fill="none" stroke="black" points="16,-78 16,-130 1066,-130 1066,-78 16,-78"/>
</g>
<g id="clust4" class="cluster">
<title>cluster_UserFormModule_imports</title>
<polygon fill="none" stroke="black" points="154,-143 154,-195 602,-195 602,-143 154,-143"/>
</g>
<!-- UserFormComponent -->
<g id="node1" class="node">
<title>UserFormComponent</title>
<polygon fill="#ffffb3" stroke="black" points="756.09,-187 617.91,-187 617.91,-151 756.09,-151 756.09,-187"/>
<text text-anchor="middle" x="687" y="-164.8" font-family="Times,serif" font-size="14.00">UserFormComponent</text>
</g>
<!-- UserFormModule -->
<g id="node2" class="node">
<title>UserFormModule</title>
<polygon fill="#8dd3c7" stroke="black" points="465.31,-252 462.31,-256 441.31,-256 438.31,-252 348.69,-252 348.69,-216 465.31,-216 465.31,-252"/>
<text text-anchor="middle" x="407" y="-229.8" font-family="Times,serif" font-size="14.00">UserFormModule</text>
</g>
<!-- UserFormComponent&#45;&gt;UserFormModule -->
<g id="edge1" class="edge">
<title>UserFormComponent&#45;&gt;UserFormModule</title>
<path fill="none" stroke="black" d="M687,-187.28C687,-208.32 687,-240 687,-240 687,-240 475.36,-240 475.36,-240"/>
<polygon fill="black" stroke="black" points="475.36,-236.5 465.36,-240 475.36,-243.5 475.36,-236.5"/>
</g>
<!-- UserFormComponent  -->
<g id="node9" class="node">
<title>UserFormComponent </title>
<polygon fill="#fb8072" stroke="black" points="477.59,-317 336.41,-317 336.41,-281 477.59,-281 477.59,-317"/>
<text text-anchor="middle" x="407" y="-294.8" font-family="Times,serif" font-size="14.00">UserFormComponent </text>
</g>
<!-- UserFormModule&#45;&gt;UserFormComponent  -->
<g id="edge8" class="edge">
<title>UserFormModule&#45;&gt;UserFormComponent </title>
<path fill="none" stroke="black" stroke-dasharray="5,2" d="M407,-252.11C407,-252.11 407,-270.99 407,-270.99"/>
<polygon fill="black" stroke="black" points="403.5,-270.99 407,-280.99 410.5,-270.99 403.5,-270.99"/>
</g>
<!-- { &#160;&#160;&#160;provide: ItemService, useExisting: UserItemService,} -->
<g id="node3" class="node">
<title>{ &#160;&#160;&#160;provide: ItemService, useExisting: UserItemService,}</title>
<ellipse fill="#fdb462" stroke="black" cx="825" cy="-104" rx="233.49" ry="18"/>
<text text-anchor="middle" x="825" y="-99.8" font-family="Times,serif" font-size="14.00">{ &#160;&#160;&#160;provide: ItemService, useExisting: UserItemService,}</text>
</g>
<!-- { &#160;&#160;&#160;provide: ItemService, useExisting: UserItemService,}&#45;&gt;UserFormComponent -->
<g id="edge2" class="edge">
<title>{ &#160;&#160;&#160;provide: ItemService, useExisting: UserItemService,}&#45;&gt;UserFormComponent</title>
<path fill="none" stroke="black" d="M710.02,-119.73C710.02,-119.73 710.02,-140.65 710.02,-140.65"/>
<polygon fill="black" stroke="black" points="706.52,-140.65 710.02,-150.65 713.52,-140.65 706.52,-140.65"/>
</g>
<!-- { &#160;&#160;&#160;provide: CurrentItemService, useExisting: CurrentUserService,} -->
<g id="node4" class="node">
<title>{ &#160;&#160;&#160;provide: CurrentItemService, useExisting: CurrentUserService,}</title>
<ellipse fill="#fdb462" stroke="black" cx="299" cy="-104" rx="274.59" ry="18"/>
<text text-anchor="middle" x="299" y="-99.8" font-family="Times,serif" font-size="14.00">{ &#160;&#160;&#160;provide: CurrentItemService, useExisting: CurrentUserService,}</text>
</g>
<!-- { &#160;&#160;&#160;provide: CurrentItemService, useExisting: CurrentUserService,}&#45;&gt;UserFormComponent -->
<g id="edge3" class="edge">
<title>{ &#160;&#160;&#160;provide: CurrentItemService, useExisting: CurrentUserService,}&#45;&gt;UserFormComponent</title>
<path fill="none" stroke="black" d="M521.68,-114.81C521.68,-124.43 521.68,-137 521.68,-137 521.68,-137 663.98,-137 663.98,-137 663.98,-137 663.98,-140.76 663.98,-140.76"/>
<polygon fill="black" stroke="black" points="660.48,-140.76 663.98,-150.76 667.48,-140.76 660.48,-140.76"/>
</g>
<!-- FormErrorsModule -->
<g id="node5" class="node">
<title>FormErrorsModule</title>
<polygon fill="#8dd3c7" stroke="black" points="594.36,-187 591.36,-191 570.36,-191 567.36,-187 469.64,-187 469.64,-151 594.36,-151 594.36,-187"/>
<text text-anchor="middle" x="532" y="-164.8" font-family="Times,serif" font-size="14.00">FormErrorsModule</text>
</g>
<!-- FormErrorsModule&#45;&gt;UserFormModule -->
<g id="edge4" class="edge">
<title>FormErrorsModule&#45;&gt;UserFormModule</title>
<path fill="none" stroke="black" d="M473.68,-187.02C473.68,-204.37 473.68,-228 473.68,-228 473.68,-228 472.84,-228 472.84,-228"/>
<polygon fill="black" stroke="black" points="475.24,-224.5 465.24,-228 475.24,-231.5 475.24,-224.5"/>
</g>
<!-- FormModule -->
<g id="node6" class="node">
<title>FormModule</title>
<polygon fill="#8dd3c7" stroke="black" points="451.88,-187 448.88,-191 427.88,-191 424.88,-187 362.12,-187 362.12,-151 451.88,-151 451.88,-187"/>
<text text-anchor="middle" x="407" y="-164.8" font-family="Times,serif" font-size="14.00">FormModule</text>
</g>
<!-- FormModule&#45;&gt;UserFormModule -->
<g id="edge5" class="edge">
<title>FormModule&#45;&gt;UserFormModule</title>
<path fill="none" stroke="black" d="M407,-187.11C407,-187.11 407,-205.99 407,-205.99"/>
<polygon fill="black" stroke="black" points="403.5,-205.99 407,-215.99 410.5,-205.99 403.5,-205.99"/>
</g>
<!-- I18nModule -->
<g id="node7" class="node">
<title>I18nModule</title>
<polygon fill="#8dd3c7" stroke="black" points="343.71,-187 340.71,-191 319.71,-191 316.71,-187 258.29,-187 258.29,-151 343.71,-151 343.71,-187"/>
<text text-anchor="middle" x="301" y="-164.8" font-family="Times,serif" font-size="14.00">I18nModule</text>
</g>
<!-- I18nModule&#45;&gt;UserFormModule -->
<g id="edge6" class="edge">
<title>I18nModule&#45;&gt;UserFormModule</title>
<path fill="none" stroke="black" d="M339.9,-187.02C339.9,-204.37 339.9,-228 339.9,-228 339.9,-228 340.78,-228 340.78,-228"/>
<polygon fill="black" stroke="black" points="338.68,-231.5 348.68,-228 338.68,-224.5 338.68,-231.5"/>
</g>
<!-- UrlModule -->
<g id="node8" class="node">
<title>UrlModule</title>
<polygon fill="#8dd3c7" stroke="black" points="240.21,-187 237.21,-191 216.21,-191 213.21,-187 161.79,-187 161.79,-151 240.21,-151 240.21,-187"/>
<text text-anchor="middle" x="201" y="-164.8" font-family="Times,serif" font-size="14.00">UrlModule</text>
</g>
<!-- UrlModule&#45;&gt;UserFormModule -->
<g id="edge7" class="edge">
<title>UrlModule&#45;&gt;UserFormModule</title>
<path fill="none" stroke="black" d="M201,-187.28C201,-208.32 201,-240 201,-240 201,-240 338.79,-240 338.79,-240"/>
<polygon fill="black" stroke="black" points="338.79,-243.5 348.79,-240 338.79,-236.5 338.79,-243.5"/>
</g>
</g>
</svg>
