<?xml version="1.0" encoding="UTF-8" standalone="no"?>
<!DOCTYPE svg PUBLIC "-//W3C//DTD SVG 1.1//EN"
 "http://www.w3.org/Graphics/SVG/1.1/DTD/svg11.dtd">
<!-- Generated by graphviz version 2.47.3 (20210619.1520)
 -->
<!-- Title: dependencies Pages: 1 -->
<svg width="1078pt" height="358pt"
 viewBox="0.00 0.00 1078.00 358.39" xmlns="http://www.w3.org/2000/svg" xmlns:xlink="http://www.w3.org/1999/xlink">
<g id="graph0" class="graph" transform="scale(1 1) rotate(0) translate(4 354.39)">
<title>dependencies</title>
<polygon fill="white" stroke="transparent" points="-4,4 -4,-354.39 1074,-354.39 1074,4 -4,4"/>
<text text-anchor="middle" x="535" y="-8.2" font-family="sans-serif" font-size="14.00">dependencies</text>
<g id="clust1" class="cluster">
<title>cluster_UserFormModule</title>
<polygon fill="none" stroke="black" stroke-dasharray="1,5" points="8,-32.8 8,-342.39 1062,-342.39 1062,-32.8 8,-32.8"/>
</g>
<g id="clust2" class="cluster">
<title>cluster_UserFormModule_declarations</title>
<polygon fill="none" stroke="black" points="605,-152.39 605,-204.39 759,-204.39 759,-152.39 605,-152.39"/>
</g>
<g id="clust3" class="cluster">
<title>cluster_UserFormModule_UserFormComponent_providers</title>
<polygon fill="none" stroke="black" points="16,-40.8 16,-139.39 1054,-139.39 1054,-40.8 16,-40.8"/>
</g>
<g id="clust4" class="cluster">
<title>cluster_UserFormModule_imports</title>
<polygon fill="none" stroke="black" points="149,-152.39 149,-204.39 597,-204.39 597,-152.39 149,-152.39"/>
</g>
<g id="clust5" class="cluster">
<title>cluster_UserFormModule_exports</title>
<polygon fill="none" stroke="black" points="323,-282.39 323,-334.39 481,-334.39 481,-282.39 323,-282.39"/>
</g>
<!-- UserFormComponent -->
<g id="node1" class="node">
<title>UserFormComponent</title>
<polygon fill="#ffffb3" stroke="black" points="751.09,-196.39 612.91,-196.39 612.91,-160.39 751.09,-160.39 751.09,-196.39"/>
<text text-anchor="middle" x="682" y="-174.19" font-family="Times,serif" font-size="14.00">UserFormComponent</text>
</g>
<!-- UserFormModule -->
<g id="node2" class="node">
<title>UserFormModule</title>
<polygon fill="#8dd3c7" stroke="black" points="460.31,-261.39 457.31,-265.39 436.31,-265.39 433.31,-261.39 343.69,-261.39 343.69,-225.39 460.31,-225.39 460.31,-261.39"/>
<text text-anchor="middle" x="402" y="-239.19" font-family="Times,serif" font-size="14.00">UserFormModule</text>
</g>
<!-- UserFormComponent&#45;&gt;UserFormModule -->
<g id="edge1" class="edge">
<title>UserFormComponent&#45;&gt;UserFormModule</title>
<path fill="none" stroke="black" d="M682,-196.67C682,-217.71 682,-249.39 682,-249.39 682,-249.39 470.36,-249.39 470.36,-249.39"/>
<polygon fill="black" stroke="black" points="470.36,-245.89 460.36,-249.39 470.36,-252.89 470.36,-245.89"/>
</g>
<!-- UserFormComponent  -->
<g id="node9" class="node">
<title>UserFormComponent </title>
<polygon fill="#fb8072" stroke="black" points="472.59,-326.39 331.41,-326.39 331.41,-290.39 472.59,-290.39 472.59,-326.39"/>
<text text-anchor="middle" x="402" y="-304.19" font-family="Times,serif" font-size="14.00">UserFormComponent </text>
</g>
<!-- UserFormModule&#45;&gt;UserFormComponent  -->
<g id="edge8" class="edge">
<title>UserFormModule&#45;&gt;UserFormComponent </title>
<path fill="none" stroke="black" stroke-dasharray="5,2" d="M402,-261.5C402,-261.5 402,-280.38 402,-280.38"/>
<polygon fill="black" stroke="black" points="398.5,-280.38 402,-290.38 405.5,-280.38 398.5,-280.38"/>
</g>
<!-- {
 &#160;&#160;&#160;provide: ItemService, useExisting: UserItemService,
} -->
<g id="node3" class="node">
<title>{
 &#160;&#160;&#160;provide: ItemService, useExisting: UserItemService,
}</title>
<ellipse fill="#fdb462" stroke="black" cx="816" cy="-90.1" rx="229.72" ry="41.09"/>
<text text-anchor="middle" x="816" y="-102.7" font-family="Times,serif" font-size="14.00">{</text>
<text text-anchor="middle" x="816" y="-85.9" font-family="Times,serif" font-size="14.00"> &#160;&#160;&#160;provide: ItemService, useExisting: UserItemService,</text>
<text text-anchor="middle" x="816" y="-69.1" font-family="Times,serif" font-size="14.00">}</text>
</g>
<!-- {
 &#160;&#160;&#160;provide: ItemService, useExisting: UserItemService,
}&#45;&gt;UserFormComponent -->
<g id="edge2" class="edge">
<title>{
 &#160;&#160;&#160;provide: ItemService, useExisting: UserItemService,
}&#45;&gt;UserFormComponent</title>
<path fill="none" stroke="black" d="M705.02,-126.26C705.02,-126.26 705.02,-150.05 705.02,-150.05"/>
<polygon fill="black" stroke="black" points="701.52,-150.05 705.02,-160.05 708.52,-150.05 701.52,-150.05"/>
</g>
<!-- {
 &#160;&#160;&#160;provide: CurrentItemService, useExisting: CurrentUserService,
} -->
<g id="node4" class="node">
<title>{
 &#160;&#160;&#160;provide: CurrentItemService, useExisting: CurrentUserService,
}</title>
<ellipse fill="#fdb462" stroke="black" cx="296" cy="-90.1" rx="272.39" ry="41.09"/>
<text text-anchor="middle" x="296" y="-102.7" font-family="Times,serif" font-size="14.00">{</text>
<text text-anchor="middle" x="296" y="-85.9" font-family="Times,serif" font-size="14.00"> &#160;&#160;&#160;provide: CurrentItemService, useExisting: CurrentUserService,</text>
<text text-anchor="middle" x="296" y="-69.1" font-family="Times,serif" font-size="14.00">}</text>
</g>
<!-- {
 &#160;&#160;&#160;provide: CurrentItemService, useExisting: CurrentUserService,
}&#45;&gt;UserFormComponent -->
<g id="edge3" class="edge">
<title>{
 &#160;&#160;&#160;provide: CurrentItemService, useExisting: CurrentUserService,
}&#45;&gt;UserFormComponent</title>
<path fill="none" stroke="black" d="M516.38,-114.62C516.38,-129.79 516.38,-146.39 516.38,-146.39 516.38,-146.39 658.98,-146.39 658.98,-146.39 658.98,-146.39 658.98,-150.15 658.98,-150.15"/>
<polygon fill="black" stroke="black" points="655.48,-150.15 658.98,-160.15 662.48,-150.15 655.48,-150.15"/>
</g>
<!-- FormErrorsModule -->
<g id="node5" class="node">
<title>FormErrorsModule</title>
<polygon fill="#8dd3c7" stroke="black" points="589.36,-196.39 586.36,-200.39 565.36,-200.39 562.36,-196.39 464.64,-196.39 464.64,-160.39 589.36,-160.39 589.36,-196.39"/>
<text text-anchor="middle" x="527" y="-174.19" font-family="Times,serif" font-size="14.00">FormErrorsModule</text>
</g>
<!-- FormErrorsModule&#45;&gt;UserFormModule -->
<g id="edge4" class="edge">
<title>FormErrorsModule&#45;&gt;UserFormModule</title>
<path fill="none" stroke="black" d="M468.68,-196.41C468.68,-213.76 468.68,-237.39 468.68,-237.39 468.68,-237.39 467.84,-237.39 467.84,-237.39"/>
<polygon fill="black" stroke="black" points="470.24,-233.89 460.24,-237.39 470.24,-240.89 470.24,-233.89"/>
</g>
<!-- FormModule -->
<g id="node6" class="node">
<title>FormModule</title>
<polygon fill="#8dd3c7" stroke="black" points="446.88,-196.39 443.88,-200.39 422.88,-200.39 419.88,-196.39 357.12,-196.39 357.12,-160.39 446.88,-160.39 446.88,-196.39"/>
<text text-anchor="middle" x="402" y="-174.19" font-family="Times,serif" font-size="14.00">FormModule</text>
</g>
<!-- FormModule&#45;&gt;UserFormModule -->
<g id="edge5" class="edge">
<title>FormModule&#45;&gt;UserFormModule</title>
<path fill="none" stroke="black" d="M402,-196.5C402,-196.5 402,-215.38 402,-215.38"/>
<polygon fill="black" stroke="black" points="398.5,-215.38 402,-225.38 405.5,-215.38 398.5,-215.38"/>
</g>
<!-- I18nModule -->
<g id="node7" class="node">
<title>I18nModule</title>
<polygon fill="#8dd3c7" stroke="black" points="338.71,-196.39 335.71,-200.39 314.71,-200.39 311.71,-196.39 253.29,-196.39 253.29,-160.39 338.71,-160.39 338.71,-196.39"/>
<text text-anchor="middle" x="296" y="-174.19" font-family="Times,serif" font-size="14.00">I18nModule</text>
</g>
<!-- I18nModule&#45;&gt;UserFormModule -->
<g id="edge6" class="edge">
<title>I18nModule&#45;&gt;UserFormModule</title>
<path fill="none" stroke="black" d="M334.9,-196.41C334.9,-213.76 334.9,-237.39 334.9,-237.39 334.9,-237.39 335.78,-237.39 335.78,-237.39"/>
<polygon fill="black" stroke="black" points="333.68,-240.89 343.68,-237.39 333.68,-233.89 333.68,-240.89"/>
</g>
<!-- UrlModule -->
<g id="node8" class="node">
<title>UrlModule</title>
<polygon fill="#8dd3c7" stroke="black" points="235.21,-196.39 232.21,-200.39 211.21,-200.39 208.21,-196.39 156.79,-196.39 156.79,-160.39 235.21,-160.39 235.21,-196.39"/>
<text text-anchor="middle" x="196" y="-174.19" font-family="Times,serif" font-size="14.00">UrlModule</text>
</g>
<!-- UrlModule&#45;&gt;UserFormModule -->
<g id="edge7" class="edge">
<title>UrlModule&#45;&gt;UserFormModule</title>
<path fill="none" stroke="black" d="M196,-196.67C196,-217.71 196,-249.39 196,-249.39 196,-249.39 333.79,-249.39 333.79,-249.39"/>
<polygon fill="black" stroke="black" points="333.79,-252.89 343.79,-249.39 333.79,-245.89 333.79,-252.89"/>
</g>
</g>
</svg>
