<?xml version="1.0" encoding="UTF-8" standalone="no"?>
<!DOCTYPE svg PUBLIC "-//W3C//DTD SVG 1.1//EN"
 "http://www.w3.org/Graphics/SVG/1.1/DTD/svg11.dtd">
<!-- Generated by graphviz version 2.47.3 (20210619.1520)
 -->
<!-- Title: dependencies Pages: 1 -->
<svg width="1078pt" height="358pt"
 viewBox="0.00 0.00 1078.00 358.39" xmlns="http://www.w3.org/2000/svg" xmlns:xlink="http://www.w3.org/1999/xlink">
<g id="graph0" class="graph" transform="scale(1 1) rotate(0) translate(4 354.39)">
<title>dependencies</title>
<polygon fill="white" stroke="transparent" points="-4,4 -4,-354.39 1074,-354.39 1074,4 -4,4"/>
<text text-anchor="middle" x="535" y="-8.2" font-family="sans-serif" font-size="14.00">dependencies</text>
<g id="clust1" class="cluster">
<title>cluster_UserFormModule</title>
<polygon fill="none" stroke="black" stroke-dasharray="1,5" points="8,-32.8 8,-342.39 1062,-342.39 1062,-32.8 8,-32.8"/>
</g>
<g id="clust2" class="cluster">
<title>cluster_UserFormModule_declarations</title>
<polygon fill="none" stroke="black" points="331,-152.39 331,-204.39 485,-204.39 485,-152.39 331,-152.39"/>
</g>
<g id="clust4" class="cluster">
<title>cluster_UserFormModule_imports</title>
<polygon fill="none" stroke="black" points="493,-152.39 493,-204.39 941,-204.39 941,-152.39 493,-152.39"/>
</g>
<g id="clust3" class="cluster">
<title>cluster_UserFormModule_UserFormComponent_providers</title>
<polygon fill="none" stroke="black" points="16,-40.8 16,-139.39 1054,-139.39 1054,-40.8 16,-40.8"/>
</g>
<g id="clust5" class="cluster">
<title>cluster_UserFormModule_exports</title>
<polygon fill="none" stroke="black" points="561,-282.39 561,-334.39 719,-334.39 719,-282.39 561,-282.39"/>
</g>
<!-- UserFormComponent -->
<g id="node1" class="node">
<title>UserFormComponent</title>
<polygon fill="#ffffb3" stroke="black" points="477.09,-196.39 338.91,-196.39 338.91,-160.39 477.09,-160.39 477.09,-196.39"/>
<text text-anchor="middle" x="408" y="-174.19" font-family="Times,serif" font-size="14.00">UserFormComponent</text>
</g>
<!-- UserFormModule -->
<g id="node2" class="node">
<title>UserFormModule</title>
<polygon fill="#8dd3c7" stroke="black" points="698.31,-261.39 695.31,-265.39 674.31,-265.39 671.31,-261.39 581.69,-261.39 581.69,-225.39 698.31,-225.39 698.31,-261.39"/>
<text text-anchor="middle" x="640" y="-239.19" font-family="Times,serif" font-size="14.00">UserFormModule</text>
</g>
<!-- UserFormComponent&#45;&gt;UserFormModule -->
<g id="edge1" class="edge">
<title>UserFormComponent&#45;&gt;UserFormModule</title>
<path fill="none" stroke="black" d="M408,-196.67C408,-217.71 408,-249.39 408,-249.39 408,-249.39 571.76,-249.39 571.76,-249.39"/>
<polygon fill="black" stroke="black" points="571.76,-252.89 581.76,-249.39 571.76,-245.89 571.76,-252.89"/>
</g>
<!-- UserFormComponent  -->
<g id="node9" class="node">
<title>UserFormComponent </title>
<polygon fill="#fb8072" stroke="black" points="710.59,-326.39 569.41,-326.39 569.41,-290.39 710.59,-290.39 710.59,-326.39"/>
<text text-anchor="middle" x="640" y="-304.19" font-family="Times,serif" font-size="14.00">UserFormComponent </text>
</g>
<!-- UserFormModule&#45;&gt;UserFormComponent  -->
<g id="edge8" class="edge">
<title>UserFormModule&#45;&gt;UserFormComponent </title>
<path fill="none" stroke="black" stroke-dasharray="5,2" d="M640,-261.5C640,-261.5 640,-280.38 640,-280.38"/>
<polygon fill="black" stroke="black" points="636.5,-280.38 640,-290.38 643.5,-280.38 636.5,-280.38"/>
</g>
<!-- {
 &#160;&#160;&#160;provide: ItemService, useExisting: UserItemService,
} -->
<g id="node3" class="node">
<title>{
 &#160;&#160;&#160;provide: ItemService, useExisting: UserItemService,
}</title>
<ellipse fill="#fdb462" stroke="black" cx="816" cy="-90.1" rx="229.72" ry="41.09"/>
<text text-anchor="middle" x="816" y="-102.7" font-family="Times,serif" font-size="14.00">{</text>
<text text-anchor="middle" x="816" y="-85.9" font-family="Times,serif" font-size="14.00"> &#160;&#160;&#160;provide: ItemService, useExisting: UserItemService,</text>
<text text-anchor="middle" x="816" y="-69.1" font-family="Times,serif" font-size="14.00">}</text>
</g>
<!-- {
 &#160;&#160;&#160;provide: ItemService, useExisting: UserItemService,
}&#45;&gt;UserFormComponent -->
<g id="edge2" class="edge">
<title>{
 &#160;&#160;&#160;provide: ItemService, useExisting: UserItemService,
}&#45;&gt;UserFormComponent</title>
<path fill="none" stroke="black" d="M591.77,-99.39C591.77,-115.38 591.77,-146.39 591.77,-146.39 591.77,-146.39 431.02,-146.39 431.02,-146.39 431.02,-146.39 431.02,-150.15 431.02,-150.15"/>
<polygon fill="black" stroke="black" points="427.52,-150.15 431.02,-160.15 434.52,-150.15 427.52,-150.15"/>
</g>
<!-- {
 &#160;&#160;&#160;provide: CurrentItemService, useExisting: CurrentUserService,
} -->
<g id="node4" class="node">
<title>{
 &#160;&#160;&#160;provide: CurrentItemService, useExisting: CurrentUserService,
}</title>
<ellipse fill="#fdb462" stroke="black" cx="296" cy="-90.1" rx="272.39" ry="41.09"/>
<text text-anchor="middle" x="296" y="-102.7" font-family="Times,serif" font-size="14.00">{</text>
<text text-anchor="middle" x="296" y="-85.9" font-family="Times,serif" font-size="14.00"> &#160;&#160;&#160;provide: CurrentItemService, useExisting: CurrentUserService,</text>
<text text-anchor="middle" x="296" y="-69.1" font-family="Times,serif" font-size="14.00">}</text>
</g>
<!-- {
 &#160;&#160;&#160;provide: CurrentItemService, useExisting: CurrentUserService,
}&#45;&gt;UserFormComponent -->
<g id="edge3" class="edge">
<title>{
 &#160;&#160;&#160;provide: CurrentItemService, useExisting: CurrentUserService,
}&#45;&gt;UserFormComponent</title>
<path fill="none" stroke="black" d="M384.98,-129.34C384.98,-129.34 384.98,-150.01 384.98,-150.01"/>
<polygon fill="black" stroke="black" points="381.48,-150.01 384.98,-160.01 388.48,-150.01 381.48,-150.01"/>
</g>
<!-- FormErrorsModule -->
<g id="node5" class="node">
<title>FormErrorsModule</title>
<polygon fill="#8dd3c7" stroke="black" points="933.36,-196.39 930.36,-200.39 909.36,-200.39 906.36,-196.39 808.64,-196.39 808.64,-160.39 933.36,-160.39 933.36,-196.39"/>
<text text-anchor="middle" x="871" y="-174.19" font-family="Times,serif" font-size="14.00">FormErrorsModule</text>
</g>
<!-- FormErrorsModule&#45;&gt;UserFormModule -->
<g id="edge4" class="edge">
<title>FormErrorsModule&#45;&gt;UserFormModule</title>
<path fill="none" stroke="black" d="M871,-196.67C871,-217.71 871,-249.39 871,-249.39 871,-249.39 708.29,-249.39 708.29,-249.39"/>
<polygon fill="black" stroke="black" points="708.29,-245.89 698.29,-249.39 708.29,-252.89 708.29,-245.89"/>
</g>
<!-- FormModule -->
<g id="node6" class="node">
<title>FormModule</title>
<polygon fill="#8dd3c7" stroke="black" points="790.88,-196.39 787.88,-200.39 766.88,-200.39 763.88,-196.39 701.12,-196.39 701.12,-160.39 790.88,-160.39 790.88,-196.39"/>
<text text-anchor="middle" x="746" y="-174.19" font-family="Times,serif" font-size="14.00">FormModule</text>
</g>
<!-- FormModule&#45;&gt;UserFormModule -->
<g id="edge5" class="edge">
<title>FormModule&#45;&gt;UserFormModule</title>
<path fill="none" stroke="black" d="M705.93,-196.41C705.93,-213.76 705.93,-237.39 705.93,-237.39 705.93,-237.39 705.17,-237.39 705.17,-237.39"/>
<polygon fill="black" stroke="black" points="708.36,-233.89 698.36,-237.39 708.36,-240.89 708.36,-233.89"/>
</g>
<!-- I18nModule -->
<g id="node7" class="node">
<title>I18nModule</title>
<polygon fill="#8dd3c7" stroke="black" points="682.71,-196.39 679.71,-200.39 658.71,-200.39 655.71,-196.39 597.29,-196.39 597.29,-160.39 682.71,-160.39 682.71,-196.39"/>
<text text-anchor="middle" x="640" y="-174.19" font-family="Times,serif" font-size="14.00">I18nModule</text>
</g>
<!-- I18nModule&#45;&gt;UserFormModule -->
<g id="edge6" class="edge">
<title>I18nModule&#45;&gt;UserFormModule</title>
<path fill="none" stroke="black" d="M640,-196.5C640,-196.5 640,-215.38 640,-215.38"/>
<polygon fill="black" stroke="black" points="636.5,-215.38 640,-225.38 643.5,-215.38 636.5,-215.38"/>
</g>
<!-- UrlModule -->
<g id="node8" class="node">
<title>UrlModule</title>
<polygon fill="#8dd3c7" stroke="black" points="579.21,-196.39 576.21,-200.39 555.21,-200.39 552.21,-196.39 500.79,-196.39 500.79,-160.39 579.21,-160.39 579.21,-196.39"/>
<text text-anchor="middle" x="540" y="-174.19" font-family="Times,serif" font-size="14.00">UrlModule</text>
</g>
<!-- UrlModule&#45;&gt;UserFormModule -->
<g id="edge7" class="edge">
<title>UrlModule&#45;&gt;UserFormModule</title>
<path fill="none" stroke="black" d="M574.15,-196.41C574.15,-213.76 574.15,-237.39 574.15,-237.39 574.15,-237.39 574.91,-237.39 574.91,-237.39"/>
<polygon fill="black" stroke="black" points="571.71,-240.89 581.71,-237.39 571.71,-233.89 571.71,-240.89"/>
</g>
</g>
</svg>
