<?xml version="1.0" encoding="UTF-8" standalone="no"?>
<!DOCTYPE svg PUBLIC "-//W3C//DTD SVG 1.1//EN"
 "http://www.w3.org/Graphics/SVG/1.1/DTD/svg11.dtd">
<!-- Generated by graphviz version 2.47.3 (20210619.1520)
 -->
<!-- Title: dependencies Pages: 1 -->
<svg width="446pt" height="247pt"
 viewBox="0.00 0.00 446.00 246.80" xmlns="http://www.w3.org/2000/svg" xmlns:xlink="http://www.w3.org/1999/xlink">
<g id="graph0" class="graph" transform="scale(1 1) rotate(0) translate(4 242.8)">
<title>dependencies</title>
<polygon fill="white" stroke="transparent" points="-4,4 -4,-242.8 442,-242.8 442,4 -4,4"/>
<text text-anchor="middle" x="219" y="-8.2" font-family="sans-serif" font-size="14.00">dependencies</text>
<g id="clust1" class="cluster">
<title>cluster_BannerModule</title>
<polygon fill="none" stroke="black" stroke-dasharray="1,5" points="8,-32.8 8,-230.8 430,-230.8 430,-32.8 8,-32.8"/>
</g>
<g id="clust5" class="cluster">
<title>cluster_BannerModule_exports</title>
<polygon fill="none" stroke="black" points="132,-170.8 132,-222.8 274,-222.8 274,-170.8 132,-170.8"/>
</g>
<g id="clust2" class="cluster">
<title>cluster_BannerModule_declarations</title>
<polygon fill="none" stroke="black" points="284,-40.8 284,-92.8 422,-92.8 422,-40.8 284,-40.8"/>
</g>
<g id="clust4" class="cluster">
<title>cluster_BannerModule_imports</title>
<polygon fill="none" stroke="black" points="16,-40.8 16,-92.8 276,-92.8 276,-40.8 16,-40.8"/>
</g>
<!-- BannerComponent -->
<g id="node1" class="node">
<title>BannerComponent</title>
<polygon fill="#ffffb3" stroke="black" points="413.76,-84.8 292.24,-84.8 292.24,-48.8 413.76,-48.8 413.76,-84.8"/>
<text text-anchor="middle" x="353" y="-62.6" font-family="Times,serif" font-size="14.00">BannerComponent</text>
</g>
<!-- BannerModule -->
<g id="node2" class="node">
<title>BannerModule</title>
<polygon fill="#8dd3c7" stroke="black" points="252.98,-149.8 249.98,-153.8 228.98,-153.8 225.98,-149.8 153.02,-149.8 153.02,-113.8 252.98,-113.8 252.98,-149.8"/>
<text text-anchor="middle" x="203" y="-127.6" font-family="Times,serif" font-size="14.00">BannerModule</text>
</g>
<!-- BannerComponent&#45;&gt;BannerModule -->
<g id="edge1" class="edge">
<title>BannerComponent&#45;&gt;BannerModule</title>
<path fill="none" stroke="black" d="M353,-84.91C353,-104.14 353,-131.8 353,-131.8 353,-131.8 263.37,-131.8 263.37,-131.8"/>
<polygon fill="black" stroke="black" points="263.37,-128.3 253.37,-131.8 263.37,-135.3 263.37,-128.3"/>
</g>
<!-- BannerComponent  -->
<g id="node5" class="node">
<title>BannerComponent </title>
<polygon fill="#fb8072" stroke="black" points="265.76,-214.8 140.24,-214.8 140.24,-178.8 265.76,-178.8 265.76,-214.8"/>
<text text-anchor="middle" x="203" y="-192.6" font-family="Times,serif" font-size="14.00">BannerComponent </text>
</g>
<!-- BannerModule&#45;&gt;BannerComponent  -->
<g id="edge4" class="edge">
<title>BannerModule&#45;&gt;BannerComponent </title>
<path fill="none" stroke="black" stroke-dasharray="5,2" d="M203,-149.91C203,-149.91 203,-168.79 203,-168.79"/>
<polygon fill="black" stroke="black" points="199.5,-168.79 203,-178.79 206.5,-168.79 199.5,-168.79"/>
</g>
<!-- GenericLinkModule -->
<g id="node3" class="node">
<title>GenericLinkModule</title>
<polygon fill="#8dd3c7" stroke="black" points="268.29,-84.8 265.29,-88.8 244.29,-88.8 241.29,-84.8 137.71,-84.8 137.71,-48.8 268.29,-48.8 268.29,-84.8"/>
<text text-anchor="middle" x="203" y="-62.6" font-family="Times,serif" font-size="14.00">GenericLinkModule</text>
</g>
<!-- GenericLinkModule&#45;&gt;BannerModule -->
<g id="edge2" class="edge">
<title>GenericLinkModule&#45;&gt;BannerModule</title>
<path fill="none" stroke="black" d="M203,-84.91C203,-84.91 203,-103.79 203,-103.79"/>
<polygon fill="black" stroke="black" points="199.5,-103.79 203,-113.79 206.5,-103.79 199.5,-103.79"/>
</g>
<!-- MediaModule -->
<g id="node4" class="node">
<title>MediaModule</title>
<polygon fill="#8dd3c7" stroke="black" points="119.81,-84.8 116.81,-88.8 95.81,-88.8 92.81,-84.8 24.19,-84.8 24.19,-48.8 119.81,-48.8 119.81,-84.8"/>
<text text-anchor="middle" x="72" y="-62.6" font-family="Times,serif" font-size="14.00">MediaModule</text>
</g>
<!-- MediaModule&#45;&gt;BannerModule -->
<g id="edge3" class="edge">
<title>MediaModule&#45;&gt;BannerModule</title>
<path fill="none" stroke="black" d="M72,-84.91C72,-104.14 72,-131.8 72,-131.8 72,-131.8 142.73,-131.8 142.73,-131.8"/>
<polygon fill="black" stroke="black" points="142.73,-135.3 152.73,-131.8 142.73,-128.3 142.73,-135.3"/>
</g>
</g>
</svg>
