<?xml version="1.0" encoding="UTF-8" standalone="no"?>
<!DOCTYPE svg PUBLIC "-//W3C//DTD SVG 1.1//EN"
 "http://www.w3.org/Graphics/SVG/1.1/DTD/svg11.dtd">
<!-- Generated by graphviz version 2.44.1 (20200629.0846)
 -->
<!-- Title: dependencies Pages: 1 -->
<svg width="504pt" height="284pt"
 viewBox="0.00 0.00 504.00 284.00" xmlns="http://www.w3.org/2000/svg" xmlns:xlink="http://www.w3.org/1999/xlink">
<g id="graph0" class="graph" transform="scale(1 1) rotate(0) translate(4 280)">
<title>dependencies</title>
<polygon fill="white" stroke="transparent" points="-4,4 -4,-280 500,-280 500,4 -4,4"/>
<text text-anchor="start" x="227.01" y="-42.4" font-family="sans-serif" font-weight="bold" font-size="14.00">Legend</text>
<polygon fill="#ffffb3" stroke="transparent" points="14,-10 14,-30 34,-30 34,-10 14,-10"/>
<text text-anchor="start" x="37.63" y="-15.4" font-family="sans-serif" font-size="14.00"> &#160;Declarations</text>
<polygon fill="#8dd3c7" stroke="transparent" points="127,-10 127,-30 147,-30 147,-10 127,-10"/>
<text text-anchor="start" x="150.73" y="-15.4" font-family="sans-serif" font-size="14.00"> &#160;Module</text>
<polygon fill="#80b1d3" stroke="transparent" points="213,-10 213,-30 233,-30 233,-10 213,-10"/>
<text text-anchor="start" x="236.78" y="-15.4" font-family="sans-serif" font-size="14.00"> &#160;Bootstrap</text>
<polygon fill="#fdb462" stroke="transparent" points="310,-10 310,-30 330,-30 330,-10 310,-10"/>
<text text-anchor="start" x="333.67" y="-15.4" font-family="sans-serif" font-size="14.00"> &#160;Providers</text>
<polygon fill="#fb8072" stroke="transparent" points="406,-10 406,-30 426,-30 426,-10 406,-10"/>
<text text-anchor="start" x="429.73" y="-15.4" font-family="sans-serif" font-size="14.00"> &#160;Exports</text>
<g id="clust1" class="cluster">
<title>cluster_BannerModule</title>
<polygon fill="none" stroke="black" stroke-dasharray="1,5" points="37,-70 37,-268 459,-268 459,-70 37,-70"/>
</g>
<g id="clust4" class="cluster">
<title>cluster_BannerModule_imports</title>
<polygon fill="none" stroke="black" points="191,-78 191,-130 451,-130 451,-78 191,-78"/>
</g>
<g id="clust5" class="cluster">
<title>cluster_BannerModule_exports</title>
<polygon fill="none" stroke="black" points="176,-208 176,-260 318,-260 318,-208 176,-208"/>
</g>
<g id="clust2" class="cluster">
<title>cluster_BannerModule_declarations</title>
<polygon fill="none" stroke="black" points="45,-78 45,-130 183,-130 183,-78 45,-78"/>
</g>
<!-- BannerComponent -->
<g id="node1" class="node">
<title>BannerComponent</title>
<polygon fill="#ffffb3" stroke="black" points="174.76,-122 53.24,-122 53.24,-86 174.76,-86 174.76,-122"/>
<text text-anchor="middle" x="114" y="-99.8" font-family="Times,serif" font-size="14.00">BannerComponent</text>
</g>
<!-- BannerModule -->
<g id="node2" class="node">
<title>BannerModule</title>
<polygon fill="#8dd3c7" stroke="black" points="296.98,-187 293.98,-191 272.98,-191 269.98,-187 197.02,-187 197.02,-151 296.98,-151 296.98,-187"/>
<text text-anchor="middle" x="247" y="-164.8" font-family="Times,serif" font-size="14.00">BannerModule</text>
</g>
<!-- BannerComponent&#45;&gt;BannerModule -->
<g id="edge1" class="edge">
<title>BannerComponent&#45;&gt;BannerModule</title>
<path fill="none" stroke="black" d="M114,-122.11C114,-141.34 114,-169 114,-169 114,-169 186.72,-169 186.72,-169"/>
<polygon fill="black" stroke="black" points="186.72,-172.5 196.72,-169 186.72,-165.5 186.72,-172.5"/>
</g>
<!-- BannerComponent  -->
<g id="node5" class="node">
<title>BannerComponent </title>
<polygon fill="#fb8072" stroke="black" points="309.76,-252 184.24,-252 184.24,-216 309.76,-216 309.76,-252"/>
<text text-anchor="middle" x="247" y="-229.8" font-family="Times,serif" font-size="14.00">BannerComponent </text>
</g>
<!-- BannerModule&#45;&gt;BannerComponent  -->
<g id="edge4" class="edge">
<title>BannerModule&#45;&gt;BannerComponent </title>
<path fill="none" stroke="black" stroke-dasharray="5,2" d="M247,-187.11C247,-187.11 247,-205.99 247,-205.99"/>
<polygon fill="black" stroke="black" points="243.5,-205.99 247,-215.99 250.5,-205.99 243.5,-205.99"/>
</g>
<!-- GenericLinkModule -->
<g id="node3" class="node">
<title>GenericLinkModule</title>
<polygon fill="#8dd3c7" stroke="black" points="443.29,-122 440.29,-126 419.29,-126 416.29,-122 312.71,-122 312.71,-86 443.29,-86 443.29,-122"/>
<text text-anchor="middle" x="378" y="-99.8" font-family="Times,serif" font-size="14.00">GenericLinkModule</text>
</g>
<!-- GenericLinkModule&#45;&gt;BannerModule -->
<g id="edge2" class="edge">
<title>GenericLinkModule&#45;&gt;BannerModule</title>
<path fill="none" stroke="black" d="M378,-122.11C378,-141.34 378,-169 378,-169 378,-169 307.27,-169 307.27,-169"/>
<polygon fill="black" stroke="black" points="307.27,-165.5 297.27,-169 307.27,-172.5 307.27,-165.5"/>
</g>
<!-- MediaModule -->
<g id="node4" class="node">
<title>MediaModule</title>
<polygon fill="#8dd3c7" stroke="black" points="294.81,-122 291.81,-126 270.81,-126 267.81,-122 199.19,-122 199.19,-86 294.81,-86 294.81,-122"/>
<text text-anchor="middle" x="247" y="-99.8" font-family="Times,serif" font-size="14.00">MediaModule</text>
</g>
<!-- MediaModule&#45;&gt;BannerModule -->
<g id="edge3" class="edge">
<title>MediaModule&#45;&gt;BannerModule</title>
<path fill="none" stroke="black" d="M247,-122.11C247,-122.11 247,-140.99 247,-140.99"/>
<polygon fill="black" stroke="black" points="243.5,-140.99 247,-150.99 250.5,-140.99 243.5,-140.99"/>
</g>
</g>
</svg>
