<?xml version="1.0" encoding="UTF-8" standalone="no"?>
<!DOCTYPE svg PUBLIC "-//W3C//DTD SVG 1.1//EN"
 "http://www.w3.org/Graphics/SVG/1.1/DTD/svg11.dtd">
<!-- Generated by graphviz version 2.40.1 (20161225.0304)
 -->
<!-- Title: dependencies Pages: 1 -->
<svg width="562pt" height="284pt"
 viewBox="0.00 0.00 562.00 284.00" xmlns="http://www.w3.org/2000/svg" xmlns:xlink="http://www.w3.org/1999/xlink">
<g id="graph0" class="graph" transform="scale(1 1) rotate(0) translate(4 280)">
<title>dependencies</title>
<polygon fill="#ffffff" stroke="transparent" points="-4,4 -4,-280 558,-280 558,4 -4,4"/>
<text text-anchor="start" x="256.0091" y="-42.4" font-family="sans-serif" font-weight="bold" font-size="14.00" fill="#000000">Legend</text>
<polygon fill="#ffffb3" stroke="transparent" points="43,-10 43,-30 63,-30 63,-10 43,-10"/>
<text text-anchor="start" x="66.629" y="-15.4" font-family="sans-serif" font-size="14.00" fill="#000000"> &#160;Declarations</text>
<polygon fill="#8dd3c7" stroke="transparent" points="156,-10 156,-30 176,-30 176,-10 156,-10"/>
<text text-anchor="start" x="179.7251" y="-15.4" font-family="sans-serif" font-size="14.00" fill="#000000"> &#160;Module</text>
<polygon fill="#80b1d3" stroke="transparent" points="242,-10 242,-30 262,-30 262,-10 242,-10"/>
<text text-anchor="start" x="265.7812" y="-15.4" font-family="sans-serif" font-size="14.00" fill="#000000"> &#160;Bootstrap</text>
<polygon fill="#fdb462" stroke="transparent" points="339,-10 339,-30 359,-30 359,-10 339,-10"/>
<text text-anchor="start" x="362.6732" y="-15.4" font-family="sans-serif" font-size="14.00" fill="#000000"> &#160;Providers</text>
<polygon fill="#fb8072" stroke="transparent" points="435,-10 435,-30 455,-30 455,-10 435,-10"/>
<text text-anchor="start" x="458.7258" y="-15.4" font-family="sans-serif" font-size="14.00" fill="#000000"> &#160;Exports</text>
<g id="clust1" class="cluster">
<title>cluster_BannerModule</title>
<polygon fill="none" stroke="#000000" stroke-dasharray="1,5" points="8,-70 8,-268 546,-268 546,-70 8,-70"/>
</g>
<g id="clust2" class="cluster">
<title>cluster_BannerModule_declarations</title>
<polygon fill="none" stroke="#000000" points="400,-78 400,-130 538,-130 538,-78 400,-78"/>
</g>
<g id="clust4" class="cluster">
<title>cluster_BannerModule_imports</title>
<polygon fill="none" stroke="#000000" points="16,-78 16,-130 392,-130 392,-78 16,-78"/>
</g>
<g id="clust5" class="cluster">
<title>cluster_BannerModule_exports</title>
<polygon fill="none" stroke="#000000" points="198,-208 198,-260 340,-260 340,-208 198,-208"/>
</g>
<!-- BannerComponent -->
<g id="node1" class="node">
<title>BannerComponent</title>
<polygon fill="#ffffb3" stroke="#000000" points="529.759,-122 408.241,-122 408.241,-86 529.759,-86 529.759,-122"/>
<text text-anchor="middle" x="469" y="-99.8" font-family="Times,serif" font-size="14.00" fill="#000000">BannerComponent</text>
</g>
<!-- BannerModule -->
<g id="node2" class="node">
<title>BannerModule</title>
<polygon fill="#8dd3c7" stroke="#000000" points="318.9762,-187 315.9762,-191 294.9762,-191 291.9762,-187 219.0238,-187 219.0238,-151 318.9762,-151 318.9762,-187"/>
<text text-anchor="middle" x="269" y="-164.8" font-family="Times,serif" font-size="14.00" fill="#000000">BannerModule</text>
</g>
<!-- BannerComponent&#45;&gt;BannerModule -->
<g id="edge1" class="edge">
<title>BannerComponent&#45;&gt;BannerModule</title>
<path fill="none" stroke="#000000" d="M469,-122.1061C469,-141.3391 469,-169 469,-169 469,-169 329.2103,-169 329.2103,-169"/>
<polygon fill="#000000" stroke="#000000" points="329.2103,-165.5001 319.2103,-169 329.2103,-172.5001 329.2103,-165.5001"/>
</g>
<!-- BannerComponent  -->
<g id="node6" class="node">
<title>BannerComponent </title>
<polygon fill="#fb8072" stroke="#000000" points="331.7591,-252 206.2409,-252 206.2409,-216 331.7591,-216 331.7591,-252"/>
<text text-anchor="middle" x="269" y="-229.8" font-family="Times,serif" font-size="14.00" fill="#000000">BannerComponent </text>
</g>
<!-- BannerModule&#45;&gt;BannerComponent  -->
<g id="edge5" class="edge">
<title>BannerModule&#45;&gt;BannerComponent </title>
<path fill="none" stroke="#000000" stroke-dasharray="5,2" d="M269,-187.1061C269,-187.1061 269,-205.991 269,-205.991"/>
<polygon fill="#000000" stroke="#000000" points="265.5001,-205.9909 269,-215.991 272.5001,-205.991 265.5001,-205.9909"/>
</g>
<!-- ConfigModule -->
<g id="node3" class="node">
<title>ConfigModule</title>
<polygon fill="#8dd3c7" stroke="#000000" points="384.4386,-122 381.4386,-126 360.4386,-126 357.4386,-122 285.5614,-122 285.5614,-86 384.4386,-86 384.4386,-122"/>
<text text-anchor="middle" x="335" y="-99.8" font-family="Times,serif" font-size="14.00" fill="#000000">ConfigModule</text>
</g>
<!-- ConfigModule&#45;&gt;BannerModule -->
<g id="edge2" class="edge">
<title>ConfigModule&#45;&gt;BannerModule</title>
<path fill="none" stroke="#000000" d="M302.3847,-122.1061C302.3847,-122.1061 302.3847,-140.991 302.3847,-140.991"/>
<polygon fill="#000000" stroke="#000000" points="298.8847,-140.9909 302.3847,-150.991 305.8847,-140.991 298.8847,-140.9909"/>
</g>
<!-- GenericLinkModule -->
<g id="node4" class="node">
<title>GenericLinkModule</title>
<polygon fill="#8dd3c7" stroke="#000000" points="268.2949,-122 265.2949,-126 244.2949,-126 241.2949,-122 137.7051,-122 137.7051,-86 268.2949,-86 268.2949,-122"/>
<text text-anchor="middle" x="203" y="-99.8" font-family="Times,serif" font-size="14.00" fill="#000000">GenericLinkModule</text>
</g>
<!-- GenericLinkModule&#45;&gt;BannerModule -->
<g id="edge3" class="edge">
<title>GenericLinkModule&#45;&gt;BannerModule</title>
<path fill="none" stroke="#000000" d="M243.5796,-122.1061C243.5796,-122.1061 243.5796,-140.991 243.5796,-140.991"/>
<polygon fill="#000000" stroke="#000000" points="240.0797,-140.9909 243.5796,-150.991 247.0797,-140.991 240.0797,-140.9909"/>
</g>
<!-- MediaModule -->
<g id="node5" class="node">
<title>MediaModule</title>
<polygon fill="#8dd3c7" stroke="#000000" points="119.8147,-122 116.8147,-126 95.8147,-126 92.8147,-122 24.1853,-122 24.1853,-86 119.8147,-86 119.8147,-122"/>
<text text-anchor="middle" x="72" y="-99.8" font-family="Times,serif" font-size="14.00" fill="#000000">MediaModule</text>
</g>
<!-- MediaModule&#45;&gt;BannerModule -->
<g id="edge4" class="edge">
<title>MediaModule&#45;&gt;BannerModule</title>
<path fill="none" stroke="#000000" d="M72,-122.1061C72,-141.3391 72,-169 72,-169 72,-169 208.7789,-169 208.7789,-169"/>
<polygon fill="#000000" stroke="#000000" points="208.7789,-172.5001 218.7789,-169 208.7788,-165.5001 208.7789,-172.5001"/>
</g>
</g>
</svg>
