<?xml version="1.0" encoding="UTF-8" standalone="no"?>
<!DOCTYPE svg PUBLIC "-//W3C//DTD SVG 1.1//EN"
 "http://www.w3.org/Graphics/SVG/1.1/DTD/svg11.dtd">
<!-- Generated by graphviz version 2.47.0 (20210316.0004)
 -->
<!-- Title: dependencies Pages: 1 -->
<svg width="857pt" height="284pt"
 viewBox="0.00 0.00 857.00 284.00" xmlns="http://www.w3.org/2000/svg" xmlns:xlink="http://www.w3.org/1999/xlink">
<g id="graph0" class="graph" transform="scale(1 1) rotate(0) translate(4 280)">
<title>dependencies</title>
<polygon fill="white" stroke="transparent" points="-4,4 -4,-280 853,-280 853,4 -4,4"/>
<text text-anchor="start" x="403.51" y="-42.4" font-family="sans-serif" font-weight="bold" font-size="14.00">Legend</text>
<polygon fill="#ffffb3" stroke="transparent" points="190.5,-10 190.5,-30 210.5,-30 210.5,-10 190.5,-10"/>
<text text-anchor="start" x="214.13" y="-15.4" font-family="sans-serif" font-size="14.00"> &#160;Declarations</text>
<polygon fill="#8dd3c7" stroke="transparent" points="303.5,-10 303.5,-30 323.5,-30 323.5,-10 303.5,-10"/>
<text text-anchor="start" x="327.23" y="-15.4" font-family="sans-serif" font-size="14.00"> &#160;Module</text>
<polygon fill="#80b1d3" stroke="transparent" points="389.5,-10 389.5,-30 409.5,-30 409.5,-10 389.5,-10"/>
<text text-anchor="start" x="413.28" y="-15.4" font-family="sans-serif" font-size="14.00"> &#160;Bootstrap</text>
<polygon fill="#fdb462" stroke="transparent" points="486.5,-10 486.5,-30 506.5,-30 506.5,-10 486.5,-10"/>
<text text-anchor="start" x="510.17" y="-15.4" font-family="sans-serif" font-size="14.00"> &#160;Providers</text>
<polygon fill="#fb8072" stroke="transparent" points="582.5,-10 582.5,-30 602.5,-30 602.5,-10 582.5,-10"/>
<text text-anchor="start" x="606.23" y="-15.4" font-family="sans-serif" font-size="14.00"> &#160;Exports</text>
<g id="clust1" class="cluster">
<title>cluster_ConfiguratorAttributeRadioButtonModule</title>
<polygon fill="none" stroke="black" stroke-dasharray="1,5" points="8,-70 8,-268 841,-268 841,-70 8,-70"/>
</g>
<g id="clust5" class="cluster">
<title>cluster_ConfiguratorAttributeRadioButtonModule_exports</title>
<polygon fill="none" stroke="black" points="173,-208 173,-260 469,-260 469,-208 173,-208"/>
</g>
<g id="clust2" class="cluster">
<title>cluster_ConfiguratorAttributeRadioButtonModule_declarations</title>
<polygon fill="none" stroke="black" points="541,-78 541,-130 833,-130 833,-78 541,-78"/>
</g>
<g id="clust4" class="cluster">
<title>cluster_ConfiguratorAttributeRadioButtonModule_imports</title>
<polygon fill="none" stroke="black" points="16,-78 16,-130 533,-130 533,-78 16,-78"/>
</g>
<!-- ConfiguratorAttributeRadioButtonComponent -->
<g id="node1" class="node">
<title>ConfiguratorAttributeRadioButtonComponent</title>
<polygon fill="#ffffb3" stroke="black" points="824.75,-122 549.25,-122 549.25,-86 824.75,-86 824.75,-122"/>
<text text-anchor="middle" x="687" y="-99.8" font-family="Times,serif" font-size="14.00">ConfiguratorAttributeRadioButtonComponent</text>
</g>
<!-- ConfiguratorAttributeRadioButtonModule -->
<g id="node2" class="node">
<title>ConfiguratorAttributeRadioButtonModule</title>
<polygon fill="#8dd3c7" stroke="black" points="447.97,-187 444.97,-191 423.97,-191 420.97,-187 194.03,-187 194.03,-151 447.97,-151 447.97,-187"/>
<text text-anchor="middle" x="321" y="-164.8" font-family="Times,serif" font-size="14.00">ConfiguratorAttributeRadioButtonModule</text>
</g>
<!-- ConfiguratorAttributeRadioButtonComponent&#45;&gt;ConfiguratorAttributeRadioButtonModule -->
<g id="edge1" class="edge">
<title>ConfiguratorAttributeRadioButtonComponent&#45;&gt;ConfiguratorAttributeRadioButtonModule</title>
<path fill="none" stroke="black" d="M687,-122.11C687,-141.34 687,-169 687,-169 687,-169 457.98,-169 457.98,-169"/>
<polygon fill="black" stroke="black" points="457.98,-165.5 447.98,-169 457.98,-172.5 457.98,-165.5"/>
</g>
<!-- ConfiguratorAttributeRadioButtonComponent  -->
<g id="node6" class="node">
<title>ConfiguratorAttributeRadioButtonComponent </title>
<polygon fill="#fb8072" stroke="black" points="460.75,-252 181.25,-252 181.25,-216 460.75,-216 460.75,-252"/>
<text text-anchor="middle" x="321" y="-229.8" font-family="Times,serif" font-size="14.00">ConfiguratorAttributeRadioButtonComponent </text>
</g>
<!-- ConfiguratorAttributeRadioButtonModule&#45;&gt;ConfiguratorAttributeRadioButtonComponent  -->
<g id="edge5" class="edge">
<title>ConfiguratorAttributeRadioButtonModule&#45;&gt;ConfiguratorAttributeRadioButtonComponent </title>
<path fill="none" stroke="black" stroke-dasharray="5,2" d="M321,-187.11C321,-187.11 321,-205.99 321,-205.99"/>
<polygon fill="black" stroke="black" points="317.5,-205.99 321,-215.99 324.5,-205.99 317.5,-205.99"/>
</g>
<!-- ConfiguratorAttributeQuantityModule -->
<g id="node3" class="node">
<title>ConfiguratorAttributeQuantityModule</title>
<polygon fill="#8dd3c7" stroke="black" points="524.9,-122 521.9,-126 500.9,-126 497.9,-122 293.1,-122 293.1,-86 524.9,-86 524.9,-122"/>
<text text-anchor="middle" x="409" y="-99.8" font-family="Times,serif" font-size="14.00">ConfiguratorAttributeQuantityModule</text>
</g>
<!-- ConfiguratorAttributeQuantityModule&#45;&gt;ConfiguratorAttributeRadioButtonModule -->
<g id="edge2" class="edge">
<title>ConfiguratorAttributeQuantityModule&#45;&gt;ConfiguratorAttributeRadioButtonModule</title>
<path fill="none" stroke="black" d="M370.64,-122.11C370.64,-122.11 370.64,-140.99 370.64,-140.99"/>
<polygon fill="black" stroke="black" points="367.14,-140.99 370.64,-150.99 374.14,-140.99 367.14,-140.99"/>
</g>
<!-- I18nModule -->
<g id="node4" class="node">
<title>I18nModule</title>
<polygon fill="#8dd3c7" stroke="black" points="275.71,-122 272.71,-126 251.71,-126 248.71,-122 190.29,-122 190.29,-86 275.71,-86 275.71,-122"/>
<text text-anchor="middle" x="233" y="-99.8" font-family="Times,serif" font-size="14.00">I18nModule</text>
</g>
<!-- I18nModule&#45;&gt;ConfiguratorAttributeRadioButtonModule -->
<g id="edge3" class="edge">
<title>I18nModule&#45;&gt;ConfiguratorAttributeRadioButtonModule</title>
<path fill="none" stroke="black" d="M234.81,-122.11C234.81,-122.11 234.81,-140.99 234.81,-140.99"/>
<polygon fill="black" stroke="black" points="231.31,-140.99 234.81,-150.99 238.31,-140.99 231.31,-140.99"/>
</g>
<!-- KeyboardFocusModule -->
<g id="node5" class="node">
<title>KeyboardFocusModule</title>
<polygon fill="#8dd3c7" stroke="black" points="172.19,-122 169.19,-126 148.19,-126 145.19,-122 23.81,-122 23.81,-86 172.19,-86 172.19,-122"/>
<text text-anchor="middle" x="98" y="-99.8" font-family="Times,serif" font-size="14.00">KeyboardFocusModule</text>
</g>
<!-- KeyboardFocusModule&#45;&gt;ConfiguratorAttributeRadioButtonModule -->
<g id="edge4" class="edge">
<title>KeyboardFocusModule&#45;&gt;ConfiguratorAttributeRadioButtonModule</title>
<path fill="none" stroke="black" d="M98,-122.11C98,-141.34 98,-169 98,-169 98,-169 183.87,-169 183.87,-169"/>
<polygon fill="black" stroke="black" points="183.87,-172.5 193.87,-169 183.87,-165.5 183.87,-172.5"/>
</g>
</g>
</svg>
