<?xml version="1.0" encoding="UTF-8" standalone="no"?>
<!DOCTYPE svg PUBLIC "-//W3C//DTD SVG 1.1//EN"
 "http://www.w3.org/Graphics/SVG/1.1/DTD/svg11.dtd">
<!-- Generated by graphviz version 2.47.0 (20210316.0004)
 -->
<!-- Title: dependencies Pages: 1 -->
<svg width="504pt" height="211pt"
 viewBox="0.00 0.00 504.00 211.00" xmlns="http://www.w3.org/2000/svg" xmlns:xlink="http://www.w3.org/1999/xlink">
<g id="graph0" class="graph" transform="scale(1 1) rotate(0) translate(4 207)">
<title>dependencies</title>
<polygon fill="white" stroke="transparent" points="-4,4 -4,-207 500,-207 500,4 -4,4"/>
<text text-anchor="start" x="227.01" y="-42.4" font-family="sans-serif" font-weight="bold" font-size="14.00">Legend</text>
<polygon fill="#ffffb3" stroke="transparent" points="14,-10 14,-30 34,-30 34,-10 14,-10"/>
<text text-anchor="start" x="37.63" y="-15.4" font-family="sans-serif" font-size="14.00"> &#160;Declarations</text>
<polygon fill="#8dd3c7" stroke="transparent" points="127,-10 127,-30 147,-30 147,-10 127,-10"/>
<text text-anchor="start" x="150.73" y="-15.4" font-family="sans-serif" font-size="14.00"> &#160;Module</text>
<polygon fill="#80b1d3" stroke="transparent" points="213,-10 213,-30 233,-30 233,-10 213,-10"/>
<text text-anchor="start" x="236.78" y="-15.4" font-family="sans-serif" font-size="14.00"> &#160;Bootstrap</text>
<polygon fill="#fdb462" stroke="transparent" points="310,-10 310,-30 330,-30 330,-10 310,-10"/>
<text text-anchor="start" x="333.67" y="-15.4" font-family="sans-serif" font-size="14.00"> &#160;Providers</text>
<polygon fill="#fb8072" stroke="transparent" points="406,-10 406,-30 426,-30 426,-10 406,-10"/>
<text text-anchor="start" x="429.73" y="-15.4" font-family="sans-serif" font-size="14.00"> &#160;Exports</text>
<g id="clust1" class="cluster">
<title>cluster_AdministrationModule</title>
<polygon fill="none" stroke="black" stroke-dasharray="1,5" points="54,-70 54,-195 442,-195 442,-70 54,-70"/>
</g>
<g id="clust3" class="cluster">
<title>cluster_AdministrationModule_imports</title>
<polygon fill="none" stroke="black" points="62,-78 62,-130 434,-130 434,-78 62,-78"/>
</g>
<!-- AdministrationCoreModule -->
<g id="node1" class="node">
<title>AdministrationCoreModule</title>
<polygon fill="#8dd3c7" stroke="black" points="425.53,-122 422.53,-126 401.53,-126 398.53,-122 254.47,-122 254.47,-86 425.53,-86 425.53,-122"/>
<text text-anchor="middle" x="340" y="-99.8" font-family="Times,serif" font-size="14.00">AdministrationCoreModule</text>
</g>
<!-- AdministrationModule -->
<g id="node3" class="node">
<title>AdministrationModule</title>
<polygon fill="#8dd3c7" stroke="black" points="318.32,-187 315.32,-191 294.32,-191 291.32,-187 173.68,-187 173.68,-151 318.32,-151 318.32,-187"/>
<text text-anchor="middle" x="246" y="-164.8" font-family="Times,serif" font-size="14.00">AdministrationModule</text>
</g>
<!-- AdministrationCoreModule&#45;&gt;AdministrationModule -->
<g id="edge1" class="edge">
<title>AdministrationCoreModule&#45;&gt;AdministrationModule</title>
<path fill="none" stroke="black" d="M286.2,-122.11C286.2,-122.11 286.2,-140.99 286.2,-140.99"/>
<polygon fill="black" stroke="black" points="282.7,-140.99 286.2,-150.99 289.7,-140.99 282.7,-140.99"/>
</g>
<!-- AdministrationOccModule -->
<g id="node2" class="node">
<title>AdministrationOccModule</title>
<polygon fill="#8dd3c7" stroke="black" points="236.36,-122 233.36,-126 212.36,-126 209.36,-122 69.64,-122 69.64,-86 236.36,-86 236.36,-122"/>
<text text-anchor="middle" x="153" y="-99.8" font-family="Times,serif" font-size="14.00">AdministrationOccModule</text>
</g>
<!-- AdministrationOccModule&#45;&gt;AdministrationModule -->
<g id="edge2" class="edge">
<title>AdministrationOccModule&#45;&gt;AdministrationModule</title>
<path fill="none" stroke="black" d="M205.13,-122.11C205.13,-122.11 205.13,-140.99 205.13,-140.99"/>
<polygon fill="black" stroke="black" points="201.63,-140.99 205.13,-150.99 208.63,-140.99 201.63,-140.99"/>
</g>
</g>
</svg>
