<?xml version="1.0" encoding="UTF-8" standalone="no"?>
<!DOCTYPE svg PUBLIC "-//W3C//DTD SVG 1.1//EN"
 "http://www.w3.org/Graphics/SVG/1.1/DTD/svg11.dtd">
<!-- Generated by graphviz version 2.47.3 (20210619.1520)
 -->
<!-- Title: dependencies Pages: 1 -->
<svg width="412pt" height="174pt"
 viewBox="0.00 0.00 412.00 173.80" xmlns="http://www.w3.org/2000/svg" xmlns:xlink="http://www.w3.org/1999/xlink">
<g id="graph0" class="graph" transform="scale(1 1) rotate(0) translate(4 169.8)">
<title>dependencies</title>
<polygon fill="white" stroke="transparent" points="-4,4 -4,-169.8 408,-169.8 408,4 -4,4"/>
<text text-anchor="middle" x="202" y="-8.2" font-family="sans-serif" font-size="14.00">dependencies</text>
<g id="clust1" class="cluster">
<title>cluster_AdministrationModule</title>
<polygon fill="none" stroke="black" stroke-dasharray="1,5" points="8,-32.8 8,-157.8 396,-157.8 396,-32.8 8,-32.8"/>
</g>
<g id="clust3" class="cluster">
<title>cluster_AdministrationModule_imports</title>
<polygon fill="none" stroke="black" points="16,-40.8 16,-92.8 388,-92.8 388,-40.8 16,-40.8"/>
</g>
<!-- AdministrationCoreModule -->
<g id="node1" class="node">
<title>AdministrationCoreModule</title>
<polygon fill="#8dd3c7" stroke="black" points="379.53,-84.8 376.53,-88.8 355.53,-88.8 352.53,-84.8 208.47,-84.8 208.47,-48.8 379.53,-48.8 379.53,-84.8"/>
<text text-anchor="middle" x="294" y="-62.6" font-family="Times,serif" font-size="14.00">AdministrationCoreModule</text>
</g>
<!-- AdministrationModule -->
<g id="node3" class="node">
<title>AdministrationModule</title>
<polygon fill="#8dd3c7" stroke="black" points="272.32,-149.8 269.32,-153.8 248.32,-153.8 245.32,-149.8 127.68,-149.8 127.68,-113.8 272.32,-113.8 272.32,-149.8"/>
<text text-anchor="middle" x="200" y="-127.6" font-family="Times,serif" font-size="14.00">AdministrationModule</text>
</g>
<!-- AdministrationCoreModule&#45;&gt;AdministrationModule -->
<g id="edge1" class="edge">
<title>AdministrationCoreModule&#45;&gt;AdministrationModule</title>
<path fill="none" stroke="black" d="M240.2,-84.91C240.2,-84.91 240.2,-103.79 240.2,-103.79"/>
<polygon fill="black" stroke="black" points="236.7,-103.79 240.2,-113.79 243.7,-103.79 236.7,-103.79"/>
</g>
<!-- AdministrationOccModule -->
<g id="node2" class="node">
<title>AdministrationOccModule</title>
<polygon fill="#8dd3c7" stroke="black" points="190.36,-84.8 187.36,-88.8 166.36,-88.8 163.36,-84.8 23.64,-84.8 23.64,-48.8 190.36,-48.8 190.36,-84.8"/>
<text text-anchor="middle" x="107" y="-62.6" font-family="Times,serif" font-size="14.00">AdministrationOccModule</text>
</g>
<!-- AdministrationOccModule&#45;&gt;AdministrationModule -->
<g id="edge2" class="edge">
<title>AdministrationOccModule&#45;&gt;AdministrationModule</title>
<path fill="none" stroke="black" d="M159.13,-84.91C159.13,-84.91 159.13,-103.79 159.13,-103.79"/>
<polygon fill="black" stroke="black" points="155.63,-103.79 159.13,-113.79 162.63,-103.79 155.63,-103.79"/>
</g>
</g>
</svg>
