<?xml version="1.0" encoding="UTF-8" standalone="no"?>
<!DOCTYPE svg PUBLIC "-//W3C//DTD SVG 1.1//EN"
 "http://www.w3.org/Graphics/SVG/1.1/DTD/svg11.dtd">
<!-- Generated by graphviz version 2.40.1 (20161225.0304)
 -->
<!-- Title: dependencies Pages: 1 -->
<svg width="504pt" height="211pt"
 viewBox="0.00 0.00 504.00 211.00" xmlns="http://www.w3.org/2000/svg" xmlns:xlink="http://www.w3.org/1999/xlink">
<g id="graph0" class="graph" transform="scale(1 1) rotate(0) translate(4 207)">
<title>dependencies</title>
<polygon fill="#ffffff" stroke="transparent" points="-4,4 -4,-207 500,-207 500,4 -4,4"/>
<text text-anchor="start" x="227.0091" y="-42.4" font-family="sans-serif" font-weight="bold" font-size="14.00" fill="#000000">Legend</text>
<polygon fill="#ffffb3" stroke="transparent" points="14,-10 14,-30 34,-30 34,-10 14,-10"/>
<text text-anchor="start" x="37.629" y="-15.4" font-family="sans-serif" font-size="14.00" fill="#000000"> &#160;Declarations</text>
<polygon fill="#8dd3c7" stroke="transparent" points="127,-10 127,-30 147,-30 147,-10 127,-10"/>
<text text-anchor="start" x="150.7251" y="-15.4" font-family="sans-serif" font-size="14.00" fill="#000000"> &#160;Module</text>
<polygon fill="#80b1d3" stroke="transparent" points="213,-10 213,-30 233,-30 233,-10 213,-10"/>
<text text-anchor="start" x="236.7812" y="-15.4" font-family="sans-serif" font-size="14.00" fill="#000000"> &#160;Bootstrap</text>
<polygon fill="#fdb462" stroke="transparent" points="310,-10 310,-30 330,-30 330,-10 310,-10"/>
<text text-anchor="start" x="333.6732" y="-15.4" font-family="sans-serif" font-size="14.00" fill="#000000"> &#160;Providers</text>
<polygon fill="#fb8072" stroke="transparent" points="406,-10 406,-30 426,-30 426,-10 406,-10"/>
<text text-anchor="start" x="429.7258" y="-15.4" font-family="sans-serif" font-size="14.00" fill="#000000"> &#160;Exports</text>
<g id="clust1" class="cluster">
<title>cluster_AdministrationModule</title>
<polygon fill="none" stroke="#000000" stroke-dasharray="1,5" points="54,-70 54,-195 442,-195 442,-70 54,-70"/>
</g>
<g id="clust3" class="cluster">
<title>cluster_AdministrationModule_imports</title>
<polygon fill="none" stroke="#000000" points="62,-78 62,-130 434,-130 434,-78 62,-78"/>
</g>
<!-- AdministrationCoreModule -->
<g id="node1" class="node">
<title>AdministrationCoreModule</title>
<polygon fill="#8dd3c7" stroke="#000000" points="425.5322,-122 422.5322,-126 401.5322,-126 398.5322,-122 254.4678,-122 254.4678,-86 425.5322,-86 425.5322,-122"/>
<text text-anchor="middle" x="340" y="-99.8" font-family="Times,serif" font-size="14.00" fill="#000000">AdministrationCoreModule</text>
</g>
<!-- AdministrationModule -->
<g id="node3" class="node">
<title>AdministrationModule</title>
<polygon fill="#8dd3c7" stroke="#000000" points="318.3202,-187 315.3202,-191 294.3202,-191 291.3202,-187 173.6798,-187 173.6798,-151 318.3202,-151 318.3202,-187"/>
<text text-anchor="middle" x="246" y="-164.8" font-family="Times,serif" font-size="14.00" fill="#000000">AdministrationModule</text>
</g>
<!-- AdministrationCoreModule&#45;&gt;AdministrationModule -->
<g id="edge1" class="edge">
<title>AdministrationCoreModule&#45;&gt;AdministrationModule</title>
<path fill="none" stroke="#000000" d="M286.1971,-122.1061C286.1971,-122.1061 286.1971,-140.991 286.1971,-140.991"/>
<polygon fill="#000000" stroke="#000000" points="282.6971,-140.9909 286.1971,-150.991 289.6971,-140.991 282.6971,-140.9909"/>
</g>
<!-- AdministrationOccModule -->
<g id="node2" class="node">
<title>AdministrationOccModule</title>
<polygon fill="#8dd3c7" stroke="#000000" points="236.3557,-122 233.3557,-126 212.3557,-126 209.3557,-122 69.6443,-122 69.6443,-86 236.3557,-86 236.3557,-122"/>
<text text-anchor="middle" x="153" y="-99.8" font-family="Times,serif" font-size="14.00" fill="#000000">AdministrationOccModule</text>
</g>
<!-- AdministrationOccModule&#45;&gt;AdministrationModule -->
<g id="edge2" class="edge">
<title>AdministrationOccModule&#45;&gt;AdministrationModule</title>
<path fill="none" stroke="#000000" d="M205.134,-122.1061C205.134,-122.1061 205.134,-140.991 205.134,-140.991"/>
<polygon fill="#000000" stroke="#000000" points="201.634,-140.9909 205.134,-150.991 208.634,-140.991 201.634,-140.9909"/>
</g>
</g>
</svg>
