<?xml version="1.0" encoding="UTF-8" standalone="no"?>
<!DOCTYPE svg PUBLIC "-//W3C//DTD SVG 1.1//EN"
 "http://www.w3.org/Graphics/SVG/1.1/DTD/svg11.dtd">
<!-- Generated by graphviz version 2.46.0 (20210119.1425)
 -->
<!-- Title: dependencies Pages: 1 -->
<svg width="563pt" height="284pt"
 viewBox="0.00 0.00 563.00 284.00" xmlns="http://www.w3.org/2000/svg" xmlns:xlink="http://www.w3.org/1999/xlink">
<g id="graph0" class="graph" transform="scale(1 1) rotate(0) translate(4 280)">
<title>dependencies</title>
<polygon fill="white" stroke="transparent" points="-4,4 -4,-280 559,-280 559,4 -4,4"/>
<text text-anchor="start" x="256.51" y="-42.4" font-family="sans-serif" font-weight="bold" font-size="14.00">Legend</text>
<polygon fill="#ffffb3" stroke="transparent" points="43.5,-10 43.5,-30 63.5,-30 63.5,-10 43.5,-10"/>
<text text-anchor="start" x="67.13" y="-15.4" font-family="sans-serif" font-size="14.00"> &#160;Declarations</text>
<polygon fill="#8dd3c7" stroke="transparent" points="156.5,-10 156.5,-30 176.5,-30 176.5,-10 156.5,-10"/>
<text text-anchor="start" x="180.23" y="-15.4" font-family="sans-serif" font-size="14.00"> &#160;Module</text>
<polygon fill="#80b1d3" stroke="transparent" points="242.5,-10 242.5,-30 262.5,-30 262.5,-10 242.5,-10"/>
<text text-anchor="start" x="266.28" y="-15.4" font-family="sans-serif" font-size="14.00"> &#160;Bootstrap</text>
<polygon fill="#fdb462" stroke="transparent" points="339.5,-10 339.5,-30 359.5,-30 359.5,-10 339.5,-10"/>
<text text-anchor="start" x="363.17" y="-15.4" font-family="sans-serif" font-size="14.00"> &#160;Providers</text>
<polygon fill="#fb8072" stroke="transparent" points="435.5,-10 435.5,-30 455.5,-30 455.5,-10 435.5,-10"/>
<text text-anchor="start" x="459.23" y="-15.4" font-family="sans-serif" font-size="14.00"> &#160;Exports</text>
<g id="clust1" class="cluster">
<title>cluster_PaymentTypeModule</title>
<polygon fill="none" stroke="black" stroke-dasharray="1,5" points="8,-70 8,-268 547,-268 547,-70 8,-70"/>
</g>
<g id="clust2" class="cluster">
<title>cluster_PaymentTypeModule_declarations</title>
<polygon fill="none" stroke="black" points="363,-78 363,-130 539,-130 539,-78 363,-78"/>
</g>
<g id="clust5" class="cluster">
<title>cluster_PaymentTypeModule_exports</title>
<polygon fill="none" stroke="black" points="154,-208 154,-260 332,-260 332,-208 154,-208"/>
</g>
<g id="clust4" class="cluster">
<title>cluster_PaymentTypeModule_imports</title>
<polygon fill="none" stroke="black" points="16,-78 16,-130 355,-130 355,-78 16,-78"/>
</g>
<!-- PaymentTypeComponent -->
<g id="node1" class="node">
<title>PaymentTypeComponent</title>
<polygon fill="#ffffb3" stroke="black" points="530.59,-122 371.41,-122 371.41,-86 530.59,-86 530.59,-122"/>
<text text-anchor="middle" x="451" y="-99.8" font-family="Times,serif" font-size="14.00">PaymentTypeComponent</text>
</g>
<!-- PaymentTypeModule -->
<g id="node2" class="node">
<title>PaymentTypeModule</title>
<polygon fill="#8dd3c7" stroke="black" points="311.81,-187 308.81,-191 287.81,-191 284.81,-187 174.19,-187 174.19,-151 311.81,-151 311.81,-187"/>
<text text-anchor="middle" x="243" y="-164.8" font-family="Times,serif" font-size="14.00">PaymentTypeModule</text>
</g>
<!-- PaymentTypeComponent&#45;&gt;PaymentTypeModule -->
<g id="edge1" class="edge">
<title>PaymentTypeComponent&#45;&gt;PaymentTypeModule</title>
<path fill="none" stroke="black" d="M451,-122.11C451,-141.34 451,-169 451,-169 451,-169 321.68,-169 321.68,-169"/>
<polygon fill="black" stroke="black" points="321.68,-165.5 311.68,-169 321.68,-172.5 321.68,-165.5"/>
</g>
<!-- PaymentTypeComponent  -->
<g id="node6" class="node">
<title>PaymentTypeComponent </title>
<polygon fill="#fb8072" stroke="black" points="324.09,-252 161.91,-252 161.91,-216 324.09,-216 324.09,-252"/>
<text text-anchor="middle" x="243" y="-229.8" font-family="Times,serif" font-size="14.00">PaymentTypeComponent </text>
</g>
<!-- PaymentTypeModule&#45;&gt;PaymentTypeComponent  -->
<g id="edge5" class="edge">
<title>PaymentTypeModule&#45;&gt;PaymentTypeComponent </title>
<path fill="none" stroke="black" stroke-dasharray="5,2" d="M243,-187.11C243,-187.11 243,-205.99 243,-205.99"/>
<polygon fill="black" stroke="black" points="239.5,-205.99 243,-215.99 246.5,-205.99 239.5,-205.99"/>
</g>
<!-- ConfigModule -->
<g id="node3" class="node">
<title>ConfigModule</title>
<polygon fill="#8dd3c7" stroke="black" points="347.44,-122 344.44,-126 323.44,-126 320.44,-122 248.56,-122 248.56,-86 347.44,-86 347.44,-122"/>
<text text-anchor="middle" x="298" y="-99.8" font-family="Times,serif" font-size="14.00">ConfigModule</text>
</g>
<!-- ConfigModule&#45;&gt;PaymentTypeModule -->
<g id="edge2" class="edge">
<title>ConfigModule&#45;&gt;PaymentTypeModule</title>
<path fill="none" stroke="black" d="M280.22,-122.11C280.22,-122.11 280.22,-140.99 280.22,-140.99"/>
<polygon fill="black" stroke="black" points="276.72,-140.99 280.22,-150.99 283.72,-140.99 276.72,-140.99"/>
</g>
<!-- I18nModule -->
<g id="node4" class="node">
<title>I18nModule</title>
<polygon fill="#8dd3c7" stroke="black" points="230.71,-122 227.71,-126 206.71,-126 203.71,-122 145.29,-122 145.29,-86 230.71,-86 230.71,-122"/>
<text text-anchor="middle" x="188" y="-99.8" font-family="Times,serif" font-size="14.00">I18nModule</text>
</g>
<!-- I18nModule&#45;&gt;PaymentTypeModule -->
<g id="edge3" class="edge">
<title>I18nModule&#45;&gt;PaymentTypeModule</title>
<path fill="none" stroke="black" d="M202.48,-122.11C202.48,-122.11 202.48,-140.99 202.48,-140.99"/>
<polygon fill="black" stroke="black" points="198.98,-140.99 202.48,-150.99 205.98,-140.99 198.98,-140.99"/>
</g>
<!-- SpinnerModule -->
<g id="node5" class="node">
<title>SpinnerModule</title>
<polygon fill="#8dd3c7" stroke="black" points="127.6,-122 124.6,-126 103.6,-126 100.6,-122 24.4,-122 24.4,-86 127.6,-86 127.6,-122"/>
<text text-anchor="middle" x="76" y="-99.8" font-family="Times,serif" font-size="14.00">SpinnerModule</text>
</g>
<!-- SpinnerModule&#45;&gt;PaymentTypeModule -->
<g id="edge4" class="edge">
<title>SpinnerModule&#45;&gt;PaymentTypeModule</title>
<path fill="none" stroke="black" d="M76,-122.11C76,-141.34 76,-169 76,-169 76,-169 164.11,-169 164.11,-169"/>
<polygon fill="black" stroke="black" points="164.11,-172.5 174.11,-169 164.11,-165.5 164.11,-172.5"/>
</g>
</g>
</svg>
