<?xml version="1.0" encoding="UTF-8" standalone="no"?>
<!DOCTYPE svg PUBLIC "-//W3C//DTD SVG 1.1//EN"
 "http://www.w3.org/Graphics/SVG/1.1/DTD/svg11.dtd">
<!-- Generated by graphviz version 2.47.3 (20210619.1520)
 -->
<!-- Title: dependencies Pages: 1 -->
<svg width="563pt" height="247pt"
 viewBox="0.00 0.00 563.00 246.80" xmlns="http://www.w3.org/2000/svg" xmlns:xlink="http://www.w3.org/1999/xlink">
<g id="graph0" class="graph" transform="scale(1 1) rotate(0) translate(4 242.8)">
<title>dependencies</title>
<polygon fill="white" stroke="transparent" points="-4,4 -4,-242.8 559,-242.8 559,4 -4,4"/>
<text text-anchor="middle" x="277.5" y="-8.2" font-family="sans-serif" font-size="14.00">dependencies</text>
<g id="clust1" class="cluster">
<title>cluster_PaymentTypeModule</title>
<polygon fill="none" stroke="black" stroke-dasharray="1,5" points="8,-32.8 8,-230.8 547,-230.8 547,-32.8 8,-32.8"/>
</g>
<g id="clust2" class="cluster">
<title>cluster_PaymentTypeModule_declarations</title>
<polygon fill="none" stroke="black" points="363,-40.8 363,-92.8 539,-92.8 539,-40.8 363,-40.8"/>
</g>
<g id="clust5" class="cluster">
<title>cluster_PaymentTypeModule_exports</title>
<polygon fill="none" stroke="black" points="154,-170.8 154,-222.8 332,-222.8 332,-170.8 154,-170.8"/>
</g>
<g id="clust4" class="cluster">
<title>cluster_PaymentTypeModule_imports</title>
<polygon fill="none" stroke="black" points="16,-40.8 16,-92.8 355,-92.8 355,-40.8 16,-40.8"/>
</g>
<!-- PaymentTypeComponent -->
<g id="node1" class="node">
<title>PaymentTypeComponent</title>
<polygon fill="#ffffb3" stroke="black" points="530.59,-84.8 371.41,-84.8 371.41,-48.8 530.59,-48.8 530.59,-84.8"/>
<text text-anchor="middle" x="451" y="-62.6" font-family="Times,serif" font-size="14.00">PaymentTypeComponent</text>
</g>
<!-- PaymentTypeModule -->
<g id="node2" class="node">
<title>PaymentTypeModule</title>
<polygon fill="#8dd3c7" stroke="black" points="311.81,-149.8 308.81,-153.8 287.81,-153.8 284.81,-149.8 174.19,-149.8 174.19,-113.8 311.81,-113.8 311.81,-149.8"/>
<text text-anchor="middle" x="243" y="-127.6" font-family="Times,serif" font-size="14.00">PaymentTypeModule</text>
</g>
<!-- PaymentTypeComponent&#45;&gt;PaymentTypeModule -->
<g id="edge1" class="edge">
<title>PaymentTypeComponent&#45;&gt;PaymentTypeModule</title>
<path fill="none" stroke="black" d="M451,-84.91C451,-104.14 451,-131.8 451,-131.8 451,-131.8 321.68,-131.8 321.68,-131.8"/>
<polygon fill="black" stroke="black" points="321.68,-128.3 311.68,-131.8 321.68,-135.3 321.68,-128.3"/>
</g>
<!-- PaymentTypeComponent  -->
<g id="node6" class="node">
<title>PaymentTypeComponent </title>
<polygon fill="#fb8072" stroke="black" points="324.09,-214.8 161.91,-214.8 161.91,-178.8 324.09,-178.8 324.09,-214.8"/>
<text text-anchor="middle" x="243" y="-192.6" font-family="Times,serif" font-size="14.00">PaymentTypeComponent </text>
</g>
<!-- PaymentTypeModule&#45;&gt;PaymentTypeComponent  -->
<g id="edge5" class="edge">
<title>PaymentTypeModule&#45;&gt;PaymentTypeComponent </title>
<path fill="none" stroke="black" stroke-dasharray="5,2" d="M243,-149.91C243,-149.91 243,-168.79 243,-168.79"/>
<polygon fill="black" stroke="black" points="239.5,-168.79 243,-178.79 246.5,-168.79 239.5,-168.79"/>
</g>
<!-- ConfigModule -->
<g id="node3" class="node">
<title>ConfigModule</title>
<polygon fill="#8dd3c7" stroke="black" points="347.44,-84.8 344.44,-88.8 323.44,-88.8 320.44,-84.8 248.56,-84.8 248.56,-48.8 347.44,-48.8 347.44,-84.8"/>
<text text-anchor="middle" x="298" y="-62.6" font-family="Times,serif" font-size="14.00">ConfigModule</text>
</g>
<!-- ConfigModule&#45;&gt;PaymentTypeModule -->
<g id="edge2" class="edge">
<title>ConfigModule&#45;&gt;PaymentTypeModule</title>
<path fill="none" stroke="black" d="M280.22,-84.91C280.22,-84.91 280.22,-103.79 280.22,-103.79"/>
<polygon fill="black" stroke="black" points="276.72,-103.79 280.22,-113.79 283.72,-103.79 276.72,-103.79"/>
</g>
<!-- I18nModule -->
<g id="node4" class="node">
<title>I18nModule</title>
<polygon fill="#8dd3c7" stroke="black" points="230.71,-84.8 227.71,-88.8 206.71,-88.8 203.71,-84.8 145.29,-84.8 145.29,-48.8 230.71,-48.8 230.71,-84.8"/>
<text text-anchor="middle" x="188" y="-62.6" font-family="Times,serif" font-size="14.00">I18nModule</text>
</g>
<!-- I18nModule&#45;&gt;PaymentTypeModule -->
<g id="edge3" class="edge">
<title>I18nModule&#45;&gt;PaymentTypeModule</title>
<path fill="none" stroke="black" d="M202.48,-84.91C202.48,-84.91 202.48,-103.79 202.48,-103.79"/>
<polygon fill="black" stroke="black" points="198.98,-103.79 202.48,-113.79 205.98,-103.79 198.98,-103.79"/>
</g>
<!-- SpinnerModule -->
<g id="node5" class="node">
<title>SpinnerModule</title>
<polygon fill="#8dd3c7" stroke="black" points="127.6,-84.8 124.6,-88.8 103.6,-88.8 100.6,-84.8 24.4,-84.8 24.4,-48.8 127.6,-48.8 127.6,-84.8"/>
<text text-anchor="middle" x="76" y="-62.6" font-family="Times,serif" font-size="14.00">SpinnerModule</text>
</g>
<!-- SpinnerModule&#45;&gt;PaymentTypeModule -->
<g id="edge4" class="edge">
<title>SpinnerModule&#45;&gt;PaymentTypeModule</title>
<path fill="none" stroke="black" d="M76,-84.91C76,-104.14 76,-131.8 76,-131.8 76,-131.8 164.11,-131.8 164.11,-131.8"/>
<polygon fill="black" stroke="black" points="164.11,-135.3 174.11,-131.8 164.11,-128.3 164.11,-135.3"/>
</g>
</g>
</svg>
