<?xml version="1.0" encoding="UTF-8" standalone="no"?>
<!DOCTYPE svg PUBLIC "-//W3C//DTD SVG 1.1//EN"
 "http://www.w3.org/Graphics/SVG/1.1/DTD/svg11.dtd">
<!-- Generated by graphviz version 2.40.1 (20161225.0304)
 -->
<!-- Title: dependencies Pages: 1 -->
<svg width="644pt" height="284pt"
 viewBox="0.00 0.00 644.00 284.00" xmlns="http://www.w3.org/2000/svg" xmlns:xlink="http://www.w3.org/1999/xlink">
<g id="graph0" class="graph" transform="scale(1 1) rotate(0) translate(4 280)">
<title>dependencies</title>
<polygon fill="#ffffff" stroke="transparent" points="-4,4 -4,-280 640,-280 640,4 -4,4"/>
<text text-anchor="start" x="297.0091" y="-42.4" font-family="sans-serif" font-weight="bold" font-size="14.00" fill="#000000">Legend</text>
<polygon fill="#ffffb3" stroke="transparent" points="84,-10 84,-30 104,-30 104,-10 84,-10"/>
<text text-anchor="start" x="107.629" y="-15.4" font-family="sans-serif" font-size="14.00" fill="#000000"> &#160;Declarations</text>
<polygon fill="#8dd3c7" stroke="transparent" points="197,-10 197,-30 217,-30 217,-10 197,-10"/>
<text text-anchor="start" x="220.7251" y="-15.4" font-family="sans-serif" font-size="14.00" fill="#000000"> &#160;Module</text>
<polygon fill="#80b1d3" stroke="transparent" points="283,-10 283,-30 303,-30 303,-10 283,-10"/>
<text text-anchor="start" x="306.7812" y="-15.4" font-family="sans-serif" font-size="14.00" fill="#000000"> &#160;Bootstrap</text>
<polygon fill="#fdb462" stroke="transparent" points="380,-10 380,-30 400,-30 400,-10 380,-10"/>
<text text-anchor="start" x="403.6732" y="-15.4" font-family="sans-serif" font-size="14.00" fill="#000000"> &#160;Providers</text>
<polygon fill="#fb8072" stroke="transparent" points="476,-10 476,-30 496,-30 496,-10 476,-10"/>
<text text-anchor="start" x="499.7258" y="-15.4" font-family="sans-serif" font-size="14.00" fill="#000000"> &#160;Exports</text>
<g id="clust1" class="cluster">
<title>cluster_CategoryNavigationModule</title>
<polygon fill="none" stroke="#000000" stroke-dasharray="1,5" points="8,-70 8,-268 628,-268 628,-70 8,-70"/>
</g>
<g id="clust2" class="cluster">
<title>cluster_CategoryNavigationModule_declarations</title>
<polygon fill="none" stroke="#000000" points="410,-78 410,-130 620,-130 620,-78 410,-78"/>
</g>
<g id="clust4" class="cluster">
<title>cluster_CategoryNavigationModule_imports</title>
<polygon fill="none" stroke="#000000" points="16,-78 16,-130 402,-130 402,-78 16,-78"/>
</g>
<g id="clust5" class="cluster">
<title>cluster_CategoryNavigationModule_exports</title>
<polygon fill="none" stroke="#000000" points="168,-208 168,-260 382,-260 382,-208 168,-208"/>
</g>
<!-- CategoryNavigationComponent -->
<g id="node1" class="node">
<title>CategoryNavigationComponent</title>
<polygon fill="#ffffb3" stroke="#000000" points="612.3571,-122 417.6429,-122 417.6429,-86 612.3571,-86 612.3571,-122"/>
<text text-anchor="middle" x="515" y="-99.8" font-family="Times,serif" font-size="14.00" fill="#000000">CategoryNavigationComponent</text>
</g>
<!-- CategoryNavigationModule -->
<g id="node2" class="node">
<title>CategoryNavigationModule</title>
<polygon fill="#8dd3c7" stroke="#000000" points="361.5744,-187 358.5744,-191 337.5744,-191 334.5744,-187 188.4256,-187 188.4256,-151 361.5744,-151 361.5744,-187"/>
<text text-anchor="middle" x="275" y="-164.8" font-family="Times,serif" font-size="14.00" fill="#000000">CategoryNavigationModule</text>
</g>
<!-- CategoryNavigationComponent&#45;&gt;CategoryNavigationModule -->
<g id="edge1" class="edge">
<title>CategoryNavigationComponent&#45;&gt;CategoryNavigationModule</title>
<path fill="none" stroke="#000000" d="M515,-122.1061C515,-141.3391 515,-169 515,-169 515,-169 371.6455,-169 371.6455,-169"/>
<polygon fill="#000000" stroke="#000000" points="371.6455,-165.5001 361.6455,-169 371.6455,-172.5001 371.6455,-165.5001"/>
</g>
<!-- CategoryNavigationComponent  -->
<g id="node6" class="node">
<title>CategoryNavigationComponent </title>
<polygon fill="#fb8072" stroke="#000000" points="374.3573,-252 175.6427,-252 175.6427,-216 374.3573,-216 374.3573,-252"/>
<text text-anchor="middle" x="275" y="-229.8" font-family="Times,serif" font-size="14.00" fill="#000000">CategoryNavigationComponent </text>
</g>
<!-- CategoryNavigationModule&#45;&gt;CategoryNavigationComponent  -->
<g id="edge5" class="edge">
<title>CategoryNavigationModule&#45;&gt;CategoryNavigationComponent </title>
<path fill="none" stroke="#000000" stroke-dasharray="5,2" d="M275,-187.1061C275,-187.1061 275,-205.991 275,-205.991"/>
<polygon fill="#000000" stroke="#000000" points="271.5001,-205.9909 275,-215.991 278.5001,-205.991 271.5001,-205.9909"/>
</g>
<!-- BootstrapModule -->
<g id="node3" class="node">
<title>BootstrapModule</title>
<polygon fill="#8dd3c7" stroke="#000000" points="393.9874,-122 390.9874,-126 369.9874,-126 366.9874,-122 280.0126,-122 280.0126,-86 393.9874,-86 393.9874,-122"/>
<text text-anchor="middle" x="337" y="-99.8" font-family="Times,serif" font-size="14.00" fill="#000000">BootstrapModule</text>
</g>
<!-- BootstrapModule&#45;&gt;CategoryNavigationModule -->
<g id="edge2" class="edge">
<title>BootstrapModule&#45;&gt;CategoryNavigationModule</title>
<path fill="none" stroke="#000000" d="M320.7718,-122.1061C320.7718,-122.1061 320.7718,-140.991 320.7718,-140.991"/>
<polygon fill="#000000" stroke="#000000" points="317.2718,-140.9909 320.7718,-150.991 324.2718,-140.991 317.2718,-140.9909"/>
</g>
<!-- ConfigModule -->
<g id="node4" class="node">
<title>ConfigModule</title>
<polygon fill="#8dd3c7" stroke="#000000" points="262.4386,-122 259.4386,-126 238.4386,-126 235.4386,-122 163.5614,-122 163.5614,-86 262.4386,-86 262.4386,-122"/>
<text text-anchor="middle" x="213" y="-99.8" font-family="Times,serif" font-size="14.00" fill="#000000">ConfigModule</text>
</g>
<!-- ConfigModule&#45;&gt;CategoryNavigationModule -->
<g id="edge3" class="edge">
<title>ConfigModule&#45;&gt;CategoryNavigationModule</title>
<path fill="none" stroke="#000000" d="M225.3408,-122.1061C225.3408,-122.1061 225.3408,-140.991 225.3408,-140.991"/>
<polygon fill="#000000" stroke="#000000" points="221.8409,-140.9909 225.3408,-150.991 228.8409,-140.991 221.8409,-140.9909"/>
</g>
<!-- NavigationModule -->
<g id="node5" class="node">
<title>NavigationModule</title>
<polygon fill="#8dd3c7" stroke="#000000" points="145.7576,-122 142.7576,-126 121.7576,-126 118.7576,-122 24.2424,-122 24.2424,-86 145.7576,-86 145.7576,-122"/>
<text text-anchor="middle" x="85" y="-99.8" font-family="Times,serif" font-size="14.00" fill="#000000">NavigationModule</text>
</g>
<!-- NavigationModule&#45;&gt;CategoryNavigationModule -->
<g id="edge4" class="edge">
<title>NavigationModule&#45;&gt;CategoryNavigationModule</title>
<path fill="none" stroke="#000000" d="M85,-122.1061C85,-141.3391 85,-169 85,-169 85,-169 178.3401,-169 178.3401,-169"/>
<polygon fill="#000000" stroke="#000000" points="178.3401,-172.5001 188.3401,-169 178.34,-165.5001 178.3401,-172.5001"/>
</g>
</g>
</svg>
