<?xml version="1.0" encoding="UTF-8" standalone="no"?>
<!DOCTYPE svg PUBLIC "-//W3C//DTD SVG 1.1//EN"
 "http://www.w3.org/Graphics/SVG/1.1/DTD/svg11.dtd">
<!-- Generated by graphviz version 2.40.1 (20161225.0304)
 -->
<!-- Title: dependencies Pages: 1 -->
<svg width="1143pt" height="284pt"
 viewBox="0.00 0.00 1143.00 284.00" xmlns="http://www.w3.org/2000/svg" xmlns:xlink="http://www.w3.org/1999/xlink">
<g id="graph0" class="graph" transform="scale(1 1) rotate(0) translate(4 280)">
<title>dependencies</title>
<polygon fill="#ffffff" stroke="transparent" points="-4,4 -4,-280 1139,-280 1139,4 -4,4"/>
<text text-anchor="start" x="546.5091" y="-42.4" font-family="sans-serif" font-weight="bold" font-size="14.00" fill="#000000">Legend</text>
<polygon fill="#ffffb3" stroke="transparent" points="333.5,-10 333.5,-30 353.5,-30 353.5,-10 333.5,-10"/>
<text text-anchor="start" x="357.129" y="-15.4" font-family="sans-serif" font-size="14.00" fill="#000000"> &#160;Declarations</text>
<polygon fill="#8dd3c7" stroke="transparent" points="446.5,-10 446.5,-30 466.5,-30 466.5,-10 446.5,-10"/>
<text text-anchor="start" x="470.2251" y="-15.4" font-family="sans-serif" font-size="14.00" fill="#000000"> &#160;Module</text>
<polygon fill="#80b1d3" stroke="transparent" points="532.5,-10 532.5,-30 552.5,-30 552.5,-10 532.5,-10"/>
<text text-anchor="start" x="556.2812" y="-15.4" font-family="sans-serif" font-size="14.00" fill="#000000"> &#160;Bootstrap</text>
<polygon fill="#fdb462" stroke="transparent" points="629.5,-10 629.5,-30 649.5,-30 649.5,-10 629.5,-10"/>
<text text-anchor="start" x="653.1732" y="-15.4" font-family="sans-serif" font-size="14.00" fill="#000000"> &#160;Providers</text>
<polygon fill="#fb8072" stroke="transparent" points="725.5,-10 725.5,-30 745.5,-30 745.5,-10 725.5,-10"/>
<text text-anchor="start" x="749.2258" y="-15.4" font-family="sans-serif" font-size="14.00" fill="#000000"> &#160;Exports</text>
<g id="clust1" class="cluster">
<title>cluster_ReturnRequestDetailModule</title>
<polygon fill="none" stroke="#000000" stroke-dasharray="1,5" points="8,-70 8,-268 1127,-268 1127,-70 8,-70"/>
</g>
<g id="clust2" class="cluster">
<title>cluster_ReturnRequestDetailModule_declarations</title>
<polygon fill="none" stroke="#000000" points="451,-78 451,-130 1119,-130 1119,-78 451,-78"/>
</g>
<g id="clust6" class="cluster">
<title>cluster_ReturnRequestDetailModule_imports</title>
<polygon fill="none" stroke="#000000" points="16,-78 16,-130 443,-130 443,-78 16,-78"/>
</g>
<g id="clust7" class="cluster">
<title>cluster_ReturnRequestDetailModule_exports</title>
<polygon fill="none" stroke="#000000" points="45,-208 45,-260 723,-260 723,-208 45,-208"/>
</g>
<!-- ReturnRequestItemsComponent -->
<g id="node1" class="node">
<title>ReturnRequestItemsComponent</title>
<polygon fill="#ffffb3" stroke="#000000" points="1110.6371,-122 915.3629,-122 915.3629,-86 1110.6371,-86 1110.6371,-122"/>
<text text-anchor="middle" x="1013" y="-99.8" font-family="Times,serif" font-size="14.00" fill="#000000">ReturnRequestItemsComponent</text>
</g>
<!-- ReturnRequestDetailModule -->
<g id="node4" class="node">
<title>ReturnRequestDetailModule</title>
<polygon fill="#8dd3c7" stroke="#000000" points="474.4608,-187 471.4608,-191 450.4608,-191 447.4608,-187 297.5392,-187 297.5392,-151 474.4608,-151 474.4608,-187"/>
<text text-anchor="middle" x="386" y="-164.8" font-family="Times,serif" font-size="14.00" fill="#000000">ReturnRequestDetailModule</text>
</g>
<!-- ReturnRequestItemsComponent&#45;&gt;ReturnRequestDetailModule -->
<g id="edge1" class="edge">
<title>ReturnRequestItemsComponent&#45;&gt;ReturnRequestDetailModule</title>
<path fill="none" stroke="#000000" d="M1013,-122.1061C1013,-141.3391 1013,-169 1013,-169 1013,-169 484.504,-169 484.504,-169"/>
<polygon fill="#000000" stroke="#000000" points="484.504,-165.5001 474.504,-169 484.5039,-172.5001 484.504,-165.5001"/>
</g>
<!-- ReturnRequestOverviewComponent -->
<g id="node2" class="node">
<title>ReturnRequestOverviewComponent</title>
<polygon fill="#ffffb3" stroke="#000000" points="896.7296,-122 677.2704,-122 677.2704,-86 896.7296,-86 896.7296,-122"/>
<text text-anchor="middle" x="787" y="-99.8" font-family="Times,serif" font-size="14.00" fill="#000000">ReturnRequestOverviewComponent</text>
</g>
<!-- ReturnRequestOverviewComponent&#45;&gt;ReturnRequestDetailModule -->
<g id="edge2" class="edge">
<title>ReturnRequestOverviewComponent&#45;&gt;ReturnRequestDetailModule</title>
<path fill="none" stroke="#000000" d="M695.8519,-122.027C695.8519,-138.3976 695.8519,-160 695.8519,-160 695.8519,-160 484.7911,-160 484.7911,-160"/>
<polygon fill="#000000" stroke="#000000" points="484.7911,-156.5001 474.7911,-160 484.7911,-163.5001 484.7911,-156.5001"/>
</g>
<!-- ReturnRequestTotalsComponent -->
<g id="node3" class="node">
<title>ReturnRequestTotalsComponent</title>
<polygon fill="#ffffb3" stroke="#000000" points="658.5294,-122 459.4706,-122 459.4706,-86 658.5294,-86 658.5294,-122"/>
<text text-anchor="middle" x="559" y="-99.8" font-family="Times,serif" font-size="14.00" fill="#000000">ReturnRequestTotalsComponent</text>
</g>
<!-- ReturnRequestTotalsComponent&#45;&gt;ReturnRequestDetailModule -->
<g id="edge3" class="edge">
<title>ReturnRequestTotalsComponent&#45;&gt;ReturnRequestDetailModule</title>
<path fill="none" stroke="#000000" d="M466.858,-122.1061C466.858,-122.1061 466.858,-140.991 466.858,-140.991"/>
<polygon fill="#000000" stroke="#000000" points="463.3581,-140.9909 466.858,-150.991 470.3581,-140.991 463.3581,-140.9909"/>
</g>
<!-- ReturnRequestItemsComponent  -->
<g id="node9" class="node">
<title>ReturnRequestItemsComponent </title>
<polygon fill="#fb8072" stroke="#000000" points="714.6368,-252 515.3632,-252 515.3632,-216 714.6368,-216 714.6368,-252"/>
<text text-anchor="middle" x="615" y="-229.8" font-family="Times,serif" font-size="14.00" fill="#000000">ReturnRequestItemsComponent </text>
</g>
<!-- ReturnRequestDetailModule&#45;&gt;ReturnRequestItemsComponent  -->
<g id="edge8" class="edge">
<title>ReturnRequestDetailModule&#45;&gt;ReturnRequestItemsComponent </title>
<path fill="none" stroke="#000000" stroke-dasharray="5,2" d="M474.4972,-178C528.4493,-178 587.098,-178 587.098,-178 587.098,-178 587.098,-205.973 587.098,-205.973"/>
<polygon fill="#000000" stroke="#000000" points="583.5981,-205.973 587.098,-215.973 590.5981,-205.973 583.5981,-205.973"/>
</g>
<!-- ReturnRequestOverviewComponent  -->
<g id="node10" class="node">
<title>ReturnRequestOverviewComponent </title>
<polygon fill="#fb8072" stroke="#000000" points="497.7295,-252 274.2705,-252 274.2705,-216 497.7295,-216 497.7295,-252"/>
<text text-anchor="middle" x="386" y="-229.8" font-family="Times,serif" font-size="14.00" fill="#000000">ReturnRequestOverviewComponent </text>
</g>
<!-- ReturnRequestDetailModule&#45;&gt;ReturnRequestOverviewComponent  -->
<g id="edge9" class="edge">
<title>ReturnRequestDetailModule&#45;&gt;ReturnRequestOverviewComponent </title>
<path fill="none" stroke="#000000" stroke-dasharray="5,2" d="M386,-187.1061C386,-187.1061 386,-205.991 386,-205.991"/>
<polygon fill="#000000" stroke="#000000" points="382.5001,-205.9909 386,-215.991 389.5001,-205.991 382.5001,-205.9909"/>
</g>
<!-- ReturnRequestTotalsComponent  -->
<g id="node11" class="node">
<title>ReturnRequestTotalsComponent </title>
<polygon fill="#fb8072" stroke="#000000" points="256.5288,-252 53.4712,-252 53.4712,-216 256.5288,-216 256.5288,-252"/>
<text text-anchor="middle" x="155" y="-229.8" font-family="Times,serif" font-size="14.00" fill="#000000">ReturnRequestTotalsComponent </text>
</g>
<!-- ReturnRequestDetailModule&#45;&gt;ReturnRequestTotalsComponent  -->
<g id="edge10" class="edge">
<title>ReturnRequestDetailModule&#45;&gt;ReturnRequestTotalsComponent </title>
<path fill="none" stroke="#000000" stroke-dasharray="5,2" d="M297.4747,-178C269.1365,-178 244.9546,-178 244.9546,-178 244.9546,-178 244.9546,-205.973 244.9546,-205.973"/>
<polygon fill="#000000" stroke="#000000" points="241.4547,-205.973 244.9546,-215.973 248.4547,-205.973 241.4547,-205.973"/>
</g>
<!-- ConfigModule -->
<g id="node5" class="node">
<title>ConfigModule</title>
<polygon fill="#8dd3c7" stroke="#000000" points="435.4386,-122 432.4386,-126 411.4386,-126 408.4386,-122 336.5614,-122 336.5614,-86 435.4386,-86 435.4386,-122"/>
<text text-anchor="middle" x="386" y="-99.8" font-family="Times,serif" font-size="14.00" fill="#000000">ConfigModule</text>
</g>
<!-- ConfigModule&#45;&gt;ReturnRequestDetailModule -->
<g id="edge4" class="edge">
<title>ConfigModule&#45;&gt;ReturnRequestDetailModule</title>
<path fill="none" stroke="#000000" d="M386,-122.1061C386,-122.1061 386,-140.991 386,-140.991"/>
<polygon fill="#000000" stroke="#000000" points="382.5001,-140.9909 386,-150.991 389.5001,-140.991 382.5001,-140.9909"/>
</g>
<!-- I18nModule -->
<g id="node6" class="node">
<title>I18nModule</title>
<polygon fill="#8dd3c7" stroke="#000000" points="318.7107,-122 315.7107,-126 294.7107,-126 291.7107,-122 233.2893,-122 233.2893,-86 318.7107,-86 318.7107,-122"/>
<text text-anchor="middle" x="276" y="-99.8" font-family="Times,serif" font-size="14.00" fill="#000000">I18nModule</text>
</g>
<!-- I18nModule&#45;&gt;ReturnRequestDetailModule -->
<g id="edge5" class="edge">
<title>I18nModule&#45;&gt;ReturnRequestDetailModule</title>
<path fill="none" stroke="#000000" d="M308.0624,-122.1061C308.0624,-122.1061 308.0624,-140.991 308.0624,-140.991"/>
<polygon fill="#000000" stroke="#000000" points="304.5625,-140.9909 308.0624,-150.991 311.5625,-140.991 304.5625,-140.9909"/>
</g>
<!-- MediaModule -->
<g id="node7" class="node">
<title>MediaModule</title>
<polygon fill="#8dd3c7" stroke="#000000" points="215.8147,-122 212.8147,-126 191.8147,-126 188.8147,-122 120.1853,-122 120.1853,-86 215.8147,-86 215.8147,-122"/>
<text text-anchor="middle" x="168" y="-99.8" font-family="Times,serif" font-size="14.00" fill="#000000">MediaModule</text>
</g>
<!-- MediaModule&#45;&gt;ReturnRequestDetailModule -->
<g id="edge6" class="edge">
<title>MediaModule&#45;&gt;ReturnRequestDetailModule</title>
<path fill="none" stroke="#000000" d="M168,-122.027C168,-138.3976 168,-160 168,-160 168,-160 287.3311,-160 287.3311,-160"/>
<polygon fill="#000000" stroke="#000000" points="287.3311,-163.5001 297.3311,-160 287.331,-156.5001 287.3311,-163.5001"/>
</g>
<!-- UrlModule -->
<g id="node8" class="node">
<title>UrlModule</title>
<polygon fill="#8dd3c7" stroke="#000000" points="102.2079,-122 99.2079,-126 78.2079,-126 75.2079,-122 23.7921,-122 23.7921,-86 102.2079,-86 102.2079,-122"/>
<text text-anchor="middle" x="63" y="-99.8" font-family="Times,serif" font-size="14.00" fill="#000000">UrlModule</text>
</g>
<!-- UrlModule&#45;&gt;ReturnRequestDetailModule -->
<g id="edge7" class="edge">
<title>UrlModule&#45;&gt;ReturnRequestDetailModule</title>
<path fill="none" stroke="#000000" d="M77.7947,-122.1061C77.7947,-141.3391 77.7947,-169 77.7947,-169 77.7947,-169 287.2678,-169 287.2678,-169"/>
<polygon fill="#000000" stroke="#000000" points="287.2678,-172.5001 297.2678,-169 287.2677,-165.5001 287.2678,-172.5001"/>
</g>
</g>
</svg>
