<?xml version="1.0" encoding="UTF-8" standalone="no"?>
<!DOCTYPE svg PUBLIC "-//W3C//DTD SVG 1.1//EN"
 "http://www.w3.org/Graphics/SVG/1.1/DTD/svg11.dtd">
<!-- Generated by graphviz version 2.44.1 (20200629.0846)
 -->
<!-- Title: dependencies Pages: 1 -->
<svg width="1191pt" height="284pt"
 viewBox="0.00 0.00 1191.00 284.00" xmlns="http://www.w3.org/2000/svg" xmlns:xlink="http://www.w3.org/1999/xlink">
<g id="graph0" class="graph" transform="scale(1 1) rotate(0) translate(4 280)">
<title>dependencies</title>
<polygon fill="white" stroke="transparent" points="-4,4 -4,-280 1187,-280 1187,4 -4,4"/>
<text text-anchor="start" x="570.51" y="-42.4" font-family="sans-serif" font-weight="bold" font-size="14.00">Legend</text>
<polygon fill="#ffffb3" stroke="transparent" points="357.5,-10 357.5,-30 377.5,-30 377.5,-10 357.5,-10"/>
<text text-anchor="start" x="381.13" y="-15.4" font-family="sans-serif" font-size="14.00"> &#160;Declarations</text>
<polygon fill="#8dd3c7" stroke="transparent" points="470.5,-10 470.5,-30 490.5,-30 490.5,-10 470.5,-10"/>
<text text-anchor="start" x="494.23" y="-15.4" font-family="sans-serif" font-size="14.00"> &#160;Module</text>
<polygon fill="#80b1d3" stroke="transparent" points="556.5,-10 556.5,-30 576.5,-30 576.5,-10 556.5,-10"/>
<text text-anchor="start" x="580.28" y="-15.4" font-family="sans-serif" font-size="14.00"> &#160;Bootstrap</text>
<polygon fill="#fdb462" stroke="transparent" points="653.5,-10 653.5,-30 673.5,-30 673.5,-10 653.5,-10"/>
<text text-anchor="start" x="677.17" y="-15.4" font-family="sans-serif" font-size="14.00"> &#160;Providers</text>
<polygon fill="#fb8072" stroke="transparent" points="749.5,-10 749.5,-30 769.5,-30 769.5,-10 749.5,-10"/>
<text text-anchor="start" x="773.23" y="-15.4" font-family="sans-serif" font-size="14.00"> &#160;Exports</text>
<g id="clust1" class="cluster">
<title>cluster_ReturnRequestDetailModule</title>
<polygon fill="none" stroke="black" stroke-dasharray="1,5" points="8,-70 8,-268 1175,-268 1175,-70 8,-70"/>
</g>
<g id="clust6" class="cluster">
<title>cluster_ReturnRequestDetailModule_imports</title>
<polygon fill="none" stroke="black" points="692,-78 692,-130 1167,-130 1167,-78 692,-78"/>
</g>
<g id="clust2" class="cluster">
<title>cluster_ReturnRequestDetailModule_declarations</title>
<polygon fill="none" stroke="black" points="16,-78 16,-130 684,-130 684,-78 16,-78"/>
</g>
<g id="clust7" class="cluster">
<title>cluster_ReturnRequestDetailModule_exports</title>
<polygon fill="none" stroke="black" points="398,-208 398,-260 1076,-260 1076,-208 398,-208"/>
</g>
<!-- ReturnRequestItemsComponent -->
<g id="node1" class="node">
<title>ReturnRequestItemsComponent</title>
<polygon fill="#ffffb3" stroke="black" points="675.64,-122 480.36,-122 480.36,-86 675.64,-86 675.64,-122"/>
<text text-anchor="middle" x="578" y="-99.8" font-family="Times,serif" font-size="14.00">ReturnRequestItemsComponent</text>
</g>
<!-- ReturnRequestDetailModule -->
<g id="node4" class="node">
<title>ReturnRequestDetailModule</title>
<polygon fill="#8dd3c7" stroke="black" points="827.46,-187 824.46,-191 803.46,-191 800.46,-187 650.54,-187 650.54,-151 827.46,-151 827.46,-187"/>
<text text-anchor="middle" x="739" y="-164.8" font-family="Times,serif" font-size="14.00">ReturnRequestDetailModule</text>
</g>
<!-- ReturnRequestItemsComponent&#45;&gt;ReturnRequestDetailModule -->
<g id="edge1" class="edge">
<title>ReturnRequestItemsComponent&#45;&gt;ReturnRequestDetailModule</title>
<path fill="none" stroke="black" d="M663.17,-122.11C663.17,-122.11 663.17,-140.99 663.17,-140.99"/>
<polygon fill="black" stroke="black" points="659.67,-140.99 663.17,-150.99 666.67,-140.99 659.67,-140.99"/>
</g>
<!-- ReturnRequestOverviewComponent -->
<g id="node2" class="node">
<title>ReturnRequestOverviewComponent</title>
<polygon fill="#ffffb3" stroke="black" points="461.73,-122 242.27,-122 242.27,-86 461.73,-86 461.73,-122"/>
<text text-anchor="middle" x="352" y="-99.8" font-family="Times,serif" font-size="14.00">ReturnRequestOverviewComponent</text>
</g>
<!-- ReturnRequestOverviewComponent&#45;&gt;ReturnRequestDetailModule -->
<g id="edge2" class="edge">
<title>ReturnRequestOverviewComponent&#45;&gt;ReturnRequestDetailModule</title>
<path fill="none" stroke="black" d="M434.18,-122.03C434.18,-138.4 434.18,-160 434.18,-160 434.18,-160 640.42,-160 640.42,-160"/>
<polygon fill="black" stroke="black" points="640.42,-163.5 650.42,-160 640.42,-156.5 640.42,-163.5"/>
</g>
<!-- ReturnRequestTotalsComponent -->
<g id="node3" class="node">
<title>ReturnRequestTotalsComponent</title>
<polygon fill="#ffffb3" stroke="black" points="223.53,-122 24.47,-122 24.47,-86 223.53,-86 223.53,-122"/>
<text text-anchor="middle" x="124" y="-99.8" font-family="Times,serif" font-size="14.00">ReturnRequestTotalsComponent</text>
</g>
<!-- ReturnRequestTotalsComponent&#45;&gt;ReturnRequestDetailModule -->
<g id="edge3" class="edge">
<title>ReturnRequestTotalsComponent&#45;&gt;ReturnRequestDetailModule</title>
<path fill="none" stroke="black" d="M124,-122.11C124,-141.34 124,-169 124,-169 124,-169 640.23,-169 640.23,-169"/>
<polygon fill="black" stroke="black" points="640.23,-172.5 650.23,-169 640.23,-165.5 640.23,-172.5"/>
</g>
<!-- ReturnRequestItemsComponent  -->
<g id="node9" class="node">
<title>ReturnRequestItemsComponent </title>
<polygon fill="#fb8072" stroke="black" points="1067.64,-252 868.36,-252 868.36,-216 1067.64,-216 1067.64,-252"/>
<text text-anchor="middle" x="968" y="-229.8" font-family="Times,serif" font-size="14.00">ReturnRequestItemsComponent </text>
</g>
<!-- ReturnRequestDetailModule&#45;&gt;ReturnRequestItemsComponent  -->
<g id="edge8" class="edge">
<title>ReturnRequestDetailModule&#45;&gt;ReturnRequestItemsComponent </title>
<path fill="none" stroke="black" stroke-dasharray="5,2" d="M827.52,-178C855.86,-178 880.04,-178 880.04,-178 880.04,-178 880.04,-205.97 880.04,-205.97"/>
<polygon fill="black" stroke="black" points="876.54,-205.97 880.04,-215.97 883.54,-205.97 876.54,-205.97"/>
</g>
<!-- ReturnRequestOverviewComponent  -->
<g id="node10" class="node">
<title>ReturnRequestOverviewComponent </title>
<polygon fill="#fb8072" stroke="black" points="850.73,-252 627.27,-252 627.27,-216 850.73,-216 850.73,-252"/>
<text text-anchor="middle" x="739" y="-229.8" font-family="Times,serif" font-size="14.00">ReturnRequestOverviewComponent </text>
</g>
<!-- ReturnRequestDetailModule&#45;&gt;ReturnRequestOverviewComponent  -->
<g id="edge9" class="edge">
<title>ReturnRequestDetailModule&#45;&gt;ReturnRequestOverviewComponent </title>
<path fill="none" stroke="black" stroke-dasharray="5,2" d="M739,-187.11C739,-187.11 739,-205.99 739,-205.99"/>
<polygon fill="black" stroke="black" points="735.5,-205.99 739,-215.99 742.5,-205.99 735.5,-205.99"/>
</g>
<!-- ReturnRequestTotalsComponent  -->
<g id="node11" class="node">
<title>ReturnRequestTotalsComponent </title>
<polygon fill="#fb8072" stroke="black" points="609.53,-252 406.47,-252 406.47,-216 609.53,-216 609.53,-252"/>
<text text-anchor="middle" x="508" y="-229.8" font-family="Times,serif" font-size="14.00">ReturnRequestTotalsComponent </text>
</g>
<!-- ReturnRequestDetailModule&#45;&gt;ReturnRequestTotalsComponent  -->
<g id="edge10" class="edge">
<title>ReturnRequestDetailModule&#45;&gt;ReturnRequestTotalsComponent </title>
<path fill="none" stroke="black" stroke-dasharray="5,2" d="M650.45,-178C599.24,-178 544.85,-178 544.85,-178 544.85,-178 544.85,-205.97 544.85,-205.97"/>
<polygon fill="black" stroke="black" points="541.35,-205.97 544.85,-215.97 548.35,-205.97 541.35,-205.97"/>
</g>
<!-- FeaturesConfigModule -->
<g id="node5" class="node">
<title>FeaturesConfigModule</title>
<polygon fill="#8dd3c7" stroke="black" points="1158.86,-122 1155.86,-126 1134.86,-126 1131.86,-122 1013.14,-122 1013.14,-86 1158.86,-86 1158.86,-122"/>
<text text-anchor="middle" x="1086" y="-99.8" font-family="Times,serif" font-size="14.00">FeaturesConfigModule</text>
</g>
<!-- FeaturesConfigModule&#45;&gt;ReturnRequestDetailModule -->
<g id="edge4" class="edge">
<title>FeaturesConfigModule&#45;&gt;ReturnRequestDetailModule</title>
<path fill="none" stroke="black" d="M1040.32,-122.11C1040.32,-141.34 1040.32,-169 1040.32,-169 1040.32,-169 837.78,-169 837.78,-169"/>
<polygon fill="black" stroke="black" points="837.78,-165.5 827.78,-169 837.78,-172.5 837.78,-165.5"/>
</g>
<!-- I18nModule -->
<g id="node6" class="node">
<title>I18nModule</title>
<polygon fill="#8dd3c7" stroke="black" points="994.71,-122 991.71,-126 970.71,-126 967.71,-122 909.29,-122 909.29,-86 994.71,-86 994.71,-122"/>
<text text-anchor="middle" x="952" y="-99.8" font-family="Times,serif" font-size="14.00">I18nModule</text>
</g>
<!-- I18nModule&#45;&gt;ReturnRequestDetailModule -->
<g id="edge5" class="edge">
<title>I18nModule&#45;&gt;ReturnRequestDetailModule</title>
<path fill="none" stroke="black" d="M952,-122.03C952,-138.4 952,-160 952,-160 952,-160 837.48,-160 837.48,-160"/>
<polygon fill="black" stroke="black" points="837.48,-156.5 827.48,-160 837.48,-163.5 837.48,-156.5"/>
</g>
<!-- MediaModule -->
<g id="node7" class="node">
<title>MediaModule</title>
<polygon fill="#8dd3c7" stroke="black" points="891.81,-122 888.81,-126 867.81,-126 864.81,-122 796.19,-122 796.19,-86 891.81,-86 891.81,-122"/>
<text text-anchor="middle" x="844" y="-99.8" font-family="Times,serif" font-size="14.00">MediaModule</text>
</g>
<!-- MediaModule&#45;&gt;ReturnRequestDetailModule -->
<g id="edge6" class="edge">
<title>MediaModule&#45;&gt;ReturnRequestDetailModule</title>
<path fill="none" stroke="black" d="M811.91,-122.11C811.91,-122.11 811.91,-140.99 811.91,-140.99"/>
<polygon fill="black" stroke="black" points="808.41,-140.99 811.91,-150.99 815.41,-140.99 808.41,-140.99"/>
</g>
<!-- UrlModule -->
<g id="node8" class="node">
<title>UrlModule</title>
<polygon fill="#8dd3c7" stroke="black" points="778.21,-122 775.21,-126 754.21,-126 751.21,-122 699.79,-122 699.79,-86 778.21,-86 778.21,-122"/>
<text text-anchor="middle" x="739" y="-99.8" font-family="Times,serif" font-size="14.00">UrlModule</text>
</g>
<!-- UrlModule&#45;&gt;ReturnRequestDetailModule -->
<g id="edge7" class="edge">
<title>UrlModule&#45;&gt;ReturnRequestDetailModule</title>
<path fill="none" stroke="black" d="M739,-122.11C739,-122.11 739,-140.99 739,-140.99"/>
<polygon fill="black" stroke="black" points="735.5,-140.99 739,-150.99 742.5,-140.99 735.5,-140.99"/>
</g>
</g>
</svg>
