<?xml version="1.0" encoding="UTF-8" standalone="no"?>
<!DOCTYPE svg PUBLIC "-//W3C//DTD SVG 1.1//EN"
 "http://www.w3.org/Graphics/SVG/1.1/DTD/svg11.dtd">
<!-- Generated by graphviz version 2.47.3 (20210619.1520)
 -->
<!-- Title: dependencies Pages: 1 -->
<svg width="579pt" height="247pt"
 viewBox="0.00 0.00 579.00 246.80" xmlns="http://www.w3.org/2000/svg" xmlns:xlink="http://www.w3.org/1999/xlink">
<g id="graph0" class="graph" transform="scale(1 1) rotate(0) translate(4 242.8)">
<title>dependencies</title>
<polygon fill="white" stroke="transparent" points="-4,4 -4,-242.8 575,-242.8 575,4 -4,4"/>
<text text-anchor="middle" x="285.5" y="-8.2" font-family="sans-serif" font-size="14.00">dependencies</text>
<g id="clust1" class="cluster">
<title>cluster_OrderHistoryModule</title>
<polygon fill="none" stroke="black" stroke-dasharray="1,5" points="8,-32.8 8,-230.8 563,-230.8 563,-32.8 8,-32.8"/>
</g>
<g id="clust5" class="cluster">
<title>cluster_OrderHistoryModule_exports</title>
<polygon fill="none" stroke="black" points="170,-170.8 170,-222.8 346,-222.8 346,-170.8 170,-170.8"/>
</g>
<g id="clust2" class="cluster">
<title>cluster_OrderHistoryModule_declarations</title>
<polygon fill="none" stroke="black" points="383,-40.8 383,-92.8 555,-92.8 555,-40.8 383,-40.8"/>
</g>
<g id="clust4" class="cluster">
<title>cluster_OrderHistoryModule_imports</title>
<polygon fill="none" stroke="black" points="16,-40.8 16,-92.8 375,-92.8 375,-40.8 16,-40.8"/>
</g>
<!-- OrderHistoryComponent -->
<g id="node1" class="node">
<title>OrderHistoryComponent</title>
<polygon fill="#ffffb3" stroke="black" points="546.97,-84.8 391.03,-84.8 391.03,-48.8 546.97,-48.8 546.97,-84.8"/>
<text text-anchor="middle" x="469" y="-62.6" font-family="Times,serif" font-size="14.00">OrderHistoryComponent</text>
</g>
<!-- OrderHistoryModule -->
<g id="node2" class="node">
<title>OrderHistoryModule</title>
<polygon fill="#8dd3c7" stroke="black" points="325.19,-149.8 322.19,-153.8 301.19,-153.8 298.19,-149.8 190.81,-149.8 190.81,-113.8 325.19,-113.8 325.19,-149.8"/>
<text text-anchor="middle" x="258" y="-127.6" font-family="Times,serif" font-size="14.00">OrderHistoryModule</text>
</g>
<!-- OrderHistoryComponent&#45;&gt;OrderHistoryModule -->
<g id="edge1" class="edge">
<title>OrderHistoryComponent&#45;&gt;OrderHistoryModule</title>
<path fill="none" stroke="black" d="M469,-84.91C469,-104.14 469,-131.8 469,-131.8 469,-131.8 335.34,-131.8 335.34,-131.8"/>
<polygon fill="black" stroke="black" points="335.34,-128.3 325.34,-131.8 335.34,-135.3 335.34,-128.3"/>
</g>
<!-- OrderHistoryComponent  -->
<g id="node6" class="node">
<title>OrderHistoryComponent </title>
<polygon fill="#fb8072" stroke="black" points="337.97,-214.8 178.03,-214.8 178.03,-178.8 337.97,-178.8 337.97,-214.8"/>
<text text-anchor="middle" x="258" y="-192.6" font-family="Times,serif" font-size="14.00">OrderHistoryComponent </text>
</g>
<!-- OrderHistoryModule&#45;&gt;OrderHistoryComponent  -->
<g id="edge5" class="edge">
<title>OrderHistoryModule&#45;&gt;OrderHistoryComponent </title>
<path fill="none" stroke="black" stroke-dasharray="5,2" d="M258,-149.91C258,-149.91 258,-168.79 258,-168.79"/>
<polygon fill="black" stroke="black" points="254.5,-168.79 258,-178.79 261.5,-168.79 254.5,-168.79"/>
</g>
<!-- I18nModule -->
<g id="node3" class="node">
<title>I18nModule</title>
<polygon fill="#8dd3c7" stroke="black" points="366.71,-84.8 363.71,-88.8 342.71,-88.8 339.71,-84.8 281.29,-84.8 281.29,-48.8 366.71,-48.8 366.71,-84.8"/>
<text text-anchor="middle" x="324" y="-62.6" font-family="Times,serif" font-size="14.00">I18nModule</text>
</g>
<!-- I18nModule&#45;&gt;OrderHistoryModule -->
<g id="edge2" class="edge">
<title>I18nModule&#45;&gt;OrderHistoryModule</title>
<path fill="none" stroke="black" d="M303.24,-84.91C303.24,-84.91 303.24,-103.79 303.24,-103.79"/>
<polygon fill="black" stroke="black" points="299.74,-103.79 303.24,-113.79 306.74,-103.79 299.74,-103.79"/>
</g>
<!-- ListNavigationModule -->
<g id="node4" class="node">
<title>ListNavigationModule</title>
<polygon fill="#8dd3c7" stroke="black" points="263.54,-84.8 260.54,-88.8 239.54,-88.8 236.54,-84.8 120.46,-84.8 120.46,-48.8 263.54,-48.8 263.54,-84.8"/>
<text text-anchor="middle" x="192" y="-62.6" font-family="Times,serif" font-size="14.00">ListNavigationModule</text>
</g>
<!-- ListNavigationModule&#45;&gt;OrderHistoryModule -->
<g id="edge3" class="edge">
<title>ListNavigationModule&#45;&gt;OrderHistoryModule</title>
<path fill="none" stroke="black" d="M227.34,-84.91C227.34,-84.91 227.34,-103.79 227.34,-103.79"/>
<polygon fill="black" stroke="black" points="223.84,-103.79 227.34,-113.79 230.84,-103.79 223.84,-103.79"/>
</g>
<!-- UrlModule -->
<g id="node5" class="node">
<title>UrlModule</title>
<polygon fill="#8dd3c7" stroke="black" points="102.21,-84.8 99.21,-88.8 78.21,-88.8 75.21,-84.8 23.79,-84.8 23.79,-48.8 102.21,-48.8 102.21,-84.8"/>
<text text-anchor="middle" x="63" y="-62.6" font-family="Times,serif" font-size="14.00">UrlModule</text>
</g>
<!-- UrlModule&#45;&gt;OrderHistoryModule -->
<g id="edge4" class="edge">
<title>UrlModule&#45;&gt;OrderHistoryModule</title>
<path fill="none" stroke="black" d="M63,-84.91C63,-104.14 63,-131.8 63,-131.8 63,-131.8 180.89,-131.8 180.89,-131.8"/>
<polygon fill="black" stroke="black" points="180.89,-135.3 190.89,-131.8 180.89,-128.3 180.89,-135.3"/>
</g>
</g>
</svg>
