<?xml version="1.0" encoding="UTF-8" standalone="no"?>
<!DOCTYPE svg PUBLIC "-//W3C//DTD SVG 1.1//EN"
 "http://www.w3.org/Graphics/SVG/1.1/DTD/svg11.dtd">
<!-- Generated by graphviz version 2.40.1 (20161225.0304)
 -->
<!-- Title: dependencies Pages: 1 -->
<svg width="835pt" height="284pt"
 viewBox="0.00 0.00 835.00 284.00" xmlns="http://www.w3.org/2000/svg" xmlns:xlink="http://www.w3.org/1999/xlink">
<g id="graph0" class="graph" transform="scale(1 1) rotate(0) translate(4 280)">
<title>dependencies</title>
<polygon fill="#ffffff" stroke="transparent" points="-4,4 -4,-280 831,-280 831,4 -4,4"/>
<text text-anchor="start" x="392.5091" y="-42.4" font-family="sans-serif" font-weight="bold" font-size="14.00" fill="#000000">Legend</text>
<polygon fill="#ffffb3" stroke="transparent" points="179.5,-10 179.5,-30 199.5,-30 199.5,-10 179.5,-10"/>
<text text-anchor="start" x="203.129" y="-15.4" font-family="sans-serif" font-size="14.00" fill="#000000"> &#160;Declarations</text>
<polygon fill="#8dd3c7" stroke="transparent" points="292.5,-10 292.5,-30 312.5,-30 312.5,-10 292.5,-10"/>
<text text-anchor="start" x="316.2251" y="-15.4" font-family="sans-serif" font-size="14.00" fill="#000000"> &#160;Module</text>
<polygon fill="#80b1d3" stroke="transparent" points="378.5,-10 378.5,-30 398.5,-30 398.5,-10 378.5,-10"/>
<text text-anchor="start" x="402.2812" y="-15.4" font-family="sans-serif" font-size="14.00" fill="#000000"> &#160;Bootstrap</text>
<polygon fill="#fdb462" stroke="transparent" points="475.5,-10 475.5,-30 495.5,-30 495.5,-10 475.5,-10"/>
<text text-anchor="start" x="499.1732" y="-15.4" font-family="sans-serif" font-size="14.00" fill="#000000"> &#160;Providers</text>
<polygon fill="#fb8072" stroke="transparent" points="571.5,-10 571.5,-30 591.5,-30 591.5,-10 571.5,-10"/>
<text text-anchor="start" x="595.2258" y="-15.4" font-family="sans-serif" font-size="14.00" fill="#000000"> &#160;Exports</text>
<g id="clust1" class="cluster">
<title>cluster_OrderHistoryModule</title>
<polygon fill="none" stroke="#000000" stroke-dasharray="1,5" points="8,-70 8,-268 819,-268 819,-70 8,-70"/>
</g>
<g id="clust2" class="cluster">
<title>cluster_OrderHistoryModule_declarations</title>
<polygon fill="none" stroke="#000000" points="639,-78 639,-130 811,-130 811,-78 639,-78"/>
</g>
<g id="clust4" class="cluster">
<title>cluster_OrderHistoryModule_imports</title>
<polygon fill="none" stroke="#000000" points="156,-78 156,-130 631,-130 631,-78 156,-78"/>
</g>
<g id="clust5" class="cluster">
<title>cluster_OrderHistoryModule_exports</title>
<polygon fill="none" stroke="#000000" points="310,-208 310,-260 486,-260 486,-208 310,-208"/>
</g>
<g id="clust7" class="cluster">
<title>cluster_OrderHistoryModule_providers</title>
<polygon fill="none" stroke="#000000" points="16,-78 16,-130 148,-130 148,-78 16,-78"/>
</g>
<!-- OrderHistoryComponent -->
<g id="node1" class="node">
<title>OrderHistoryComponent</title>
<polygon fill="#ffffb3" stroke="#000000" points="802.9678,-122 647.0322,-122 647.0322,-86 802.9678,-86 802.9678,-122"/>
<text text-anchor="middle" x="725" y="-99.8" font-family="Times,serif" font-size="14.00" fill="#000000">OrderHistoryComponent</text>
</g>
<!-- OrderHistoryModule -->
<g id="node2" class="node">
<title>OrderHistoryModule</title>
<polygon fill="#8dd3c7" stroke="#000000" points="465.1853,-187 462.1853,-191 441.1853,-191 438.1853,-187 330.8147,-187 330.8147,-151 465.1853,-151 465.1853,-187"/>
<text text-anchor="middle" x="398" y="-164.8" font-family="Times,serif" font-size="14.00" fill="#000000">OrderHistoryModule</text>
</g>
<!-- OrderHistoryComponent&#45;&gt;OrderHistoryModule -->
<g id="edge1" class="edge">
<title>OrderHistoryComponent&#45;&gt;OrderHistoryModule</title>
<path fill="none" stroke="#000000" d="M725,-122.2843C725,-143.3211 725,-175 725,-175 725,-175 475.3581,-175 475.3581,-175"/>
<polygon fill="#000000" stroke="#000000" points="475.3582,-171.5001 465.3581,-175 475.3581,-178.5001 475.3582,-171.5001"/>
</g>
<!-- OrderHistoryComponent  -->
<g id="node7" class="node">
<title>OrderHistoryComponent </title>
<polygon fill="#fb8072" stroke="#000000" points="477.9685,-252 318.0315,-252 318.0315,-216 477.9685,-216 477.9685,-252"/>
<text text-anchor="middle" x="398" y="-229.8" font-family="Times,serif" font-size="14.00" fill="#000000">OrderHistoryComponent </text>
</g>
<!-- OrderHistoryModule&#45;&gt;OrderHistoryComponent  -->
<g id="edge6" class="edge">
<title>OrderHistoryModule&#45;&gt;OrderHistoryComponent </title>
<path fill="none" stroke="#000000" stroke-dasharray="5,2" d="M398,-187.1061C398,-187.1061 398,-205.991 398,-205.991"/>
<polygon fill="#000000" stroke="#000000" points="394.5001,-205.9909 398,-215.991 401.5001,-205.991 394.5001,-205.9909"/>
</g>
<!-- ConfigModule -->
<g id="node3" class="node">
<title>ConfigModule</title>
<polygon fill="#8dd3c7" stroke="#000000" points="623.4386,-122 620.4386,-126 599.4386,-126 596.4386,-122 524.5614,-122 524.5614,-86 623.4386,-86 623.4386,-122"/>
<text text-anchor="middle" x="574" y="-99.8" font-family="Times,serif" font-size="14.00" fill="#000000">ConfigModule</text>
</g>
<!-- ConfigModule&#45;&gt;OrderHistoryModule -->
<g id="edge2" class="edge">
<title>ConfigModule&#45;&gt;OrderHistoryModule</title>
<path fill="none" stroke="#000000" d="M574,-122.0225C574,-139.3734 574,-163 574,-163 574,-163 475.2914,-163 475.2914,-163"/>
<polygon fill="#000000" stroke="#000000" points="475.2914,-159.5001 465.2914,-163 475.2914,-166.5001 475.2914,-159.5001"/>
</g>
<!-- I18nModule -->
<g id="node4" class="node">
<title>I18nModule</title>
<polygon fill="#8dd3c7" stroke="#000000" points="506.7107,-122 503.7107,-126 482.7107,-126 479.7107,-122 421.2893,-122 421.2893,-86 506.7107,-86 506.7107,-122"/>
<text text-anchor="middle" x="464" y="-99.8" font-family="Times,serif" font-size="14.00" fill="#000000">I18nModule</text>
</g>
<!-- I18nModule&#45;&gt;OrderHistoryModule -->
<g id="edge3" class="edge">
<title>I18nModule&#45;&gt;OrderHistoryModule</title>
<path fill="none" stroke="#000000" d="M443.2437,-122.1061C443.2437,-122.1061 443.2437,-140.991 443.2437,-140.991"/>
<polygon fill="#000000" stroke="#000000" points="439.7438,-140.9909 443.2437,-150.991 446.7438,-140.991 439.7438,-140.9909"/>
</g>
<!-- ListNavigationModule -->
<g id="node5" class="node">
<title>ListNavigationModule</title>
<polygon fill="#8dd3c7" stroke="#000000" points="403.5365,-122 400.5365,-126 379.5365,-126 376.5365,-122 260.4635,-122 260.4635,-86 403.5365,-86 403.5365,-122"/>
<text text-anchor="middle" x="332" y="-99.8" font-family="Times,serif" font-size="14.00" fill="#000000">ListNavigationModule</text>
</g>
<!-- ListNavigationModule&#45;&gt;OrderHistoryModule -->
<g id="edge4" class="edge">
<title>ListNavigationModule&#45;&gt;OrderHistoryModule</title>
<path fill="none" stroke="#000000" d="M367.3377,-122.1061C367.3377,-122.1061 367.3377,-140.991 367.3377,-140.991"/>
<polygon fill="#000000" stroke="#000000" points="363.8377,-140.9909 367.3377,-150.991 370.8377,-140.991 363.8377,-140.9909"/>
</g>
<!-- UrlModule -->
<g id="node6" class="node">
<title>UrlModule</title>
<polygon fill="#8dd3c7" stroke="#000000" points="242.2079,-122 239.2079,-126 218.2079,-126 215.2079,-122 163.7921,-122 163.7921,-86 242.2079,-86 242.2079,-122"/>
<text text-anchor="middle" x="203" y="-99.8" font-family="Times,serif" font-size="14.00" fill="#000000">UrlModule</text>
</g>
<!-- UrlModule&#45;&gt;OrderHistoryModule -->
<g id="edge5" class="edge">
<title>UrlModule&#45;&gt;OrderHistoryModule</title>
<path fill="none" stroke="#000000" d="M203,-122.0225C203,-139.3734 203,-163 203,-163 203,-163 320.8921,-163 320.8921,-163"/>
<polygon fill="#000000" stroke="#000000" points="320.8921,-166.5001 330.8921,-163 320.892,-159.5001 320.8921,-166.5001"/>
</g>
<!-- UserService -->
<g id="node8" class="node">
<title>UserService</title>
<ellipse fill="#fdb462" stroke="#000000" cx="82" cy="-104" rx="58.4415" ry="18"/>
<text text-anchor="middle" x="82" y="-99.8" font-family="Times,serif" font-size="14.00" fill="#000000">UserService</text>
</g>
<!-- UserService&#45;&gt;OrderHistoryModule -->
<g id="edge7" class="edge">
<title>UserService&#45;&gt;OrderHistoryModule</title>
<path fill="none" stroke="#000000" d="M82,-122.2843C82,-143.3211 82,-175 82,-175 82,-175 320.5977,-175 320.5977,-175"/>
<polygon fill="#000000" stroke="#000000" points="320.5977,-178.5001 330.5977,-175 320.5976,-171.5001 320.5977,-178.5001"/>
</g>
</g>
</svg>
