<?xml version="1.0" encoding="UTF-8" standalone="no"?>
<!DOCTYPE svg PUBLIC "-//W3C//DTD SVG 1.1//EN"
 "http://www.w3.org/Graphics/SVG/1.1/DTD/svg11.dtd">
<!-- Generated by graphviz version 2.40.1 (20161225.0304)
 -->
<!-- Title: dependencies Pages: 1 -->
<svg width="504pt" height="284pt"
 viewBox="0.00 0.00 504.00 284.00" xmlns="http://www.w3.org/2000/svg" xmlns:xlink="http://www.w3.org/1999/xlink">
<g id="graph0" class="graph" transform="scale(1 1) rotate(0) translate(4 280)">
<title>dependencies</title>
<polygon fill="#ffffff" stroke="transparent" points="-4,4 -4,-280 500,-280 500,4 -4,4"/>
<text text-anchor="start" x="227.0091" y="-42.4" font-family="sans-serif" font-weight="bold" font-size="14.00" fill="#000000">Legend</text>
<polygon fill="#ffffb3" stroke="transparent" points="14,-10 14,-30 34,-30 34,-10 14,-10"/>
<text text-anchor="start" x="37.629" y="-15.4" font-family="sans-serif" font-size="14.00" fill="#000000"> &#160;Declarations</text>
<polygon fill="#8dd3c7" stroke="transparent" points="127,-10 127,-30 147,-30 147,-10 127,-10"/>
<text text-anchor="start" x="150.7251" y="-15.4" font-family="sans-serif" font-size="14.00" fill="#000000"> &#160;Module</text>
<polygon fill="#80b1d3" stroke="transparent" points="213,-10 213,-30 233,-30 233,-10 213,-10"/>
<text text-anchor="start" x="236.7812" y="-15.4" font-family="sans-serif" font-size="14.00" fill="#000000"> &#160;Bootstrap</text>
<polygon fill="#fdb462" stroke="transparent" points="310,-10 310,-30 330,-30 330,-10 310,-10"/>
<text text-anchor="start" x="333.6732" y="-15.4" font-family="sans-serif" font-size="14.00" fill="#000000"> &#160;Providers</text>
<polygon fill="#fb8072" stroke="transparent" points="406,-10 406,-30 426,-30 426,-10 406,-10"/>
<text text-anchor="start" x="429.7258" y="-15.4" font-family="sans-serif" font-size="14.00" fill="#000000"> &#160;Exports</text>
<g id="clust1" class="cluster">
<title>cluster_RegisterPageModule</title>
<polygon fill="none" stroke="#000000" stroke-dasharray="1,5" points="69,-70 69,-268 427,-268 427,-70 69,-70"/>
</g>
<g id="clust2" class="cluster">
<title>cluster_RegisterPageModule_declarations</title>
<polygon fill="none" stroke="#000000" points="247,-78 247,-130 419,-130 419,-78 247,-78"/>
</g>
<g id="clust4" class="cluster">
<title>cluster_RegisterPageModule_imports</title>
<polygon fill="none" stroke="#000000" points="77,-78 77,-130 239,-130 239,-78 77,-78"/>
</g>
<g id="clust5" class="cluster">
<title>cluster_RegisterPageModule_exports</title>
<polygon fill="none" stroke="#000000" points="161,-208 161,-260 335,-260 335,-208 161,-208"/>
</g>
<!-- RegisterPageComponent -->
<g id="node1" class="node">
<title>RegisterPageComponent</title>
<polygon fill="#ffffb3" stroke="#000000" points="410.6965,-122 255.3035,-122 255.3035,-86 410.6965,-86 410.6965,-122"/>
<text text-anchor="middle" x="333" y="-99.8" font-family="Times,serif" font-size="14.00" fill="#000000">RegisterPageComponent</text>
</g>
<!-- RegisterPageModule -->
<g id="node2" class="node">
<title>RegisterPageModule</title>
<polygon fill="#8dd3c7" stroke="#000000" points="314.9144,-187 311.9144,-191 290.9144,-191 287.9144,-187 181.0856,-187 181.0856,-151 314.9144,-151 314.9144,-187"/>
<text text-anchor="middle" x="248" y="-164.8" font-family="Times,serif" font-size="14.00" fill="#000000">RegisterPageModule</text>
</g>
<!-- RegisterPageComponent&#45;&gt;RegisterPageModule -->
<g id="edge1" class="edge">
<title>RegisterPageComponent&#45;&gt;RegisterPageModule</title>
<path fill="none" stroke="#000000" d="M285.0544,-122.1061C285.0544,-122.1061 285.0544,-140.991 285.0544,-140.991"/>
<polygon fill="#000000" stroke="#000000" points="281.5544,-140.9909 285.0544,-150.991 288.5544,-140.991 281.5544,-140.9909"/>
</g>
<!-- RegisterPageComponent  -->
<g id="node4" class="node">
<title>RegisterPageComponent </title>
<polygon fill="#fb8072" stroke="#000000" points="327.1967,-252 168.8033,-252 168.8033,-216 327.1967,-216 327.1967,-252"/>
<text text-anchor="middle" x="248" y="-229.8" font-family="Times,serif" font-size="14.00" fill="#000000">RegisterPageComponent </text>
</g>
<!-- RegisterPageModule&#45;&gt;RegisterPageComponent  -->
<g id="edge3" class="edge">
<title>RegisterPageModule&#45;&gt;RegisterPageComponent </title>
<path fill="none" stroke="#000000" stroke-dasharray="5,2" d="M248,-187.1061C248,-187.1061 248,-205.991 248,-205.991"/>
<polygon fill="#000000" stroke="#000000" points="244.5001,-205.9909 248,-215.991 251.5001,-205.991 244.5001,-205.9909"/>
</g>
<!-- RegisterLayoutModule -->
<g id="node3" class="node">
<title>RegisterLayoutModule</title>
<polygon fill="#8dd3c7" stroke="#000000" points="230.8599,-122 227.8599,-126 206.8599,-126 203.8599,-122 85.1401,-122 85.1401,-86 230.8599,-86 230.8599,-122"/>
<text text-anchor="middle" x="158" y="-99.8" font-family="Times,serif" font-size="14.00" fill="#000000">RegisterLayoutModule</text>
</g>
<!-- RegisterLayoutModule&#45;&gt;RegisterPageModule -->
<g id="edge2" class="edge">
<title>RegisterLayoutModule&#45;&gt;RegisterPageModule</title>
<path fill="none" stroke="#000000" d="M206.1115,-122.1061C206.1115,-122.1061 206.1115,-140.991 206.1115,-140.991"/>
<polygon fill="#000000" stroke="#000000" points="202.6116,-140.9909 206.1115,-150.991 209.6116,-140.991 202.6116,-140.9909"/>
</g>
</g>
</svg>
