<?xml version="1.0" encoding="UTF-8" standalone="no"?>
<!DOCTYPE svg PUBLIC "-//W3C//DTD SVG 1.1//EN"
 "http://www.w3.org/Graphics/SVG/1.1/DTD/svg11.dtd">
<!-- Generated by graphviz version 2.47.0 (20210316.0004)
 -->
<!-- Title: dependencies Pages: 1 -->
<svg width="685pt" height="211pt"
 viewBox="0.00 0.00 685.00 211.00" xmlns="http://www.w3.org/2000/svg" xmlns:xlink="http://www.w3.org/1999/xlink">
<g id="graph0" class="graph" transform="scale(1 1) rotate(0) translate(4 207)">
<title>dependencies</title>
<polygon fill="white" stroke="transparent" points="-4,4 -4,-207 681,-207 681,4 -4,4"/>
<text text-anchor="start" x="317.51" y="-42.4" font-family="sans-serif" font-weight="bold" font-size="14.00">Legend</text>
<polygon fill="#ffffb3" stroke="transparent" points="104.5,-10 104.5,-30 124.5,-30 124.5,-10 104.5,-10"/>
<text text-anchor="start" x="128.13" y="-15.4" font-family="sans-serif" font-size="14.00"> &#160;Declarations</text>
<polygon fill="#8dd3c7" stroke="transparent" points="217.5,-10 217.5,-30 237.5,-30 237.5,-10 217.5,-10"/>
<text text-anchor="start" x="241.23" y="-15.4" font-family="sans-serif" font-size="14.00"> &#160;Module</text>
<polygon fill="#80b1d3" stroke="transparent" points="303.5,-10 303.5,-30 323.5,-30 323.5,-10 303.5,-10"/>
<text text-anchor="start" x="327.28" y="-15.4" font-family="sans-serif" font-size="14.00"> &#160;Bootstrap</text>
<polygon fill="#fdb462" stroke="transparent" points="400.5,-10 400.5,-30 420.5,-30 420.5,-10 400.5,-10"/>
<text text-anchor="start" x="424.17" y="-15.4" font-family="sans-serif" font-size="14.00"> &#160;Providers</text>
<polygon fill="#fb8072" stroke="transparent" points="496.5,-10 496.5,-30 516.5,-30 516.5,-10 496.5,-10"/>
<text text-anchor="start" x="520.23" y="-15.4" font-family="sans-serif" font-size="14.00"> &#160;Exports</text>
<g id="clust1" class="cluster">
<title>cluster_UpdateProfileModule</title>
<polygon fill="none" stroke="black" stroke-dasharray="1,5" points="8,-70 8,-195 669,-195 669,-70 8,-70"/>
</g>
<g id="clust4" class="cluster">
<title>cluster_UpdateProfileModule_imports</title>
<polygon fill="none" stroke="black" points="200,-78 200,-130 661,-130 661,-78 200,-78"/>
</g>
<g id="clust2" class="cluster">
<title>cluster_UpdateProfileModule_declarations</title>
<polygon fill="none" stroke="black" points="16,-78 16,-130 192,-130 192,-78 16,-78"/>
</g>
<!-- UpdateProfileComponent -->
<g id="node1" class="node">
<title>UpdateProfileComponent</title>
<polygon fill="#ffffb3" stroke="black" points="183.86,-122 24.14,-122 24.14,-86 183.86,-86 183.86,-122"/>
<text text-anchor="middle" x="104" y="-99.8" font-family="Times,serif" font-size="14.00">UpdateProfileComponent</text>
</g>
<!-- UpdateProfileModule -->
<g id="node2" class="node">
<title>UpdateProfileModule</title>
<polygon fill="#8dd3c7" stroke="black" points="425.08,-187 422.08,-191 401.08,-191 398.08,-187 286.92,-187 286.92,-151 425.08,-151 425.08,-187"/>
<text text-anchor="middle" x="356" y="-164.8" font-family="Times,serif" font-size="14.00">UpdateProfileModule</text>
</g>
<!-- UpdateProfileComponent&#45;&gt;UpdateProfileModule -->
<g id="edge1" class="edge">
<title>UpdateProfileComponent&#45;&gt;UpdateProfileModule</title>
<path fill="none" stroke="black" d="M104,-122.11C104,-141.34 104,-169 104,-169 104,-169 276.81,-169 276.81,-169"/>
<polygon fill="black" stroke="black" points="276.81,-172.5 286.81,-169 276.81,-165.5 276.81,-172.5"/>
</g>
<!-- FormErrorsModule -->
<g id="node3" class="node">
<title>FormErrorsModule</title>
<polygon fill="#8dd3c7" stroke="black" points="653.36,-122 650.36,-126 629.36,-126 626.36,-122 528.64,-122 528.64,-86 653.36,-86 653.36,-122"/>
<text text-anchor="middle" x="591" y="-99.8" font-family="Times,serif" font-size="14.00">FormErrorsModule</text>
</g>
<!-- FormErrorsModule&#45;&gt;UpdateProfileModule -->
<g id="edge2" class="edge">
<title>FormErrorsModule&#45;&gt;UpdateProfileModule</title>
<path fill="none" stroke="black" d="M591,-122.11C591,-141.34 591,-169 591,-169 591,-169 435.24,-169 435.24,-169"/>
<polygon fill="black" stroke="black" points="435.24,-165.5 425.24,-169 435.24,-172.5 435.24,-165.5"/>
</g>
<!-- I18nModule -->
<g id="node4" class="node">
<title>I18nModule</title>
<polygon fill="#8dd3c7" stroke="black" points="510.71,-122 507.71,-126 486.71,-126 483.71,-122 425.29,-122 425.29,-86 510.71,-86 510.71,-122"/>
<text text-anchor="middle" x="468" y="-99.8" font-family="Times,serif" font-size="14.00">I18nModule</text>
</g>
<!-- I18nModule&#45;&gt;UpdateProfileModule -->
<g id="edge3" class="edge">
<title>I18nModule&#45;&gt;UpdateProfileModule</title>
<path fill="none" stroke="black" d="M425.3,-104C419.94,-104 416.29,-104 416.29,-104 416.29,-104 416.29,-140.89 416.29,-140.89"/>
<polygon fill="black" stroke="black" points="412.79,-140.89 416.29,-150.89 419.79,-140.89 412.79,-140.89"/>
</g>
<!-- SpinnerModule -->
<g id="node5" class="node">
<title>SpinnerModule</title>
<polygon fill="#8dd3c7" stroke="black" points="407.6,-122 404.6,-126 383.6,-126 380.6,-122 304.4,-122 304.4,-86 407.6,-86 407.6,-122"/>
<text text-anchor="middle" x="356" y="-99.8" font-family="Times,serif" font-size="14.00">SpinnerModule</text>
</g>
<!-- SpinnerModule&#45;&gt;UpdateProfileModule -->
<g id="edge4" class="edge">
<title>SpinnerModule&#45;&gt;UpdateProfileModule</title>
<path fill="none" stroke="black" d="M356,-122.11C356,-122.11 356,-140.99 356,-140.99"/>
<polygon fill="black" stroke="black" points="352.5,-140.99 356,-150.99 359.5,-140.99 352.5,-140.99"/>
</g>
<!-- UrlModule -->
<g id="node6" class="node">
<title>UrlModule</title>
<polygon fill="#8dd3c7" stroke="black" points="286.21,-122 283.21,-126 262.21,-126 259.21,-122 207.79,-122 207.79,-86 286.21,-86 286.21,-122"/>
<text text-anchor="middle" x="247" y="-99.8" font-family="Times,serif" font-size="14.00">UrlModule</text>
</g>
<!-- UrlModule&#45;&gt;UpdateProfileModule -->
<g id="edge5" class="edge">
<title>UrlModule&#45;&gt;UpdateProfileModule</title>
<path fill="none" stroke="black" d="M286.32,-104C291.85,-104 295.71,-104 295.71,-104 295.71,-104 295.71,-140.89 295.71,-140.89"/>
<polygon fill="black" stroke="black" points="292.21,-140.89 295.71,-150.89 299.21,-140.89 292.21,-140.89"/>
</g>
</g>
</svg>
