<?xml version="1.0" encoding="UTF-8" standalone="no"?>
<!DOCTYPE svg PUBLIC "-//W3C//DTD SVG 1.1//EN"
 "http://www.w3.org/Graphics/SVG/1.1/DTD/svg11.dtd">
<!-- Generated by graphviz version 2.47.3 (20210619.1520)
 -->
<!-- Title: dependencies Pages: 1 -->
<svg width="685pt" height="174pt"
 viewBox="0.00 0.00 685.00 173.80" xmlns="http://www.w3.org/2000/svg" xmlns:xlink="http://www.w3.org/1999/xlink">
<g id="graph0" class="graph" transform="scale(1 1) rotate(0) translate(4 169.8)">
<title>dependencies</title>
<polygon fill="white" stroke="transparent" points="-4,4 -4,-169.8 681,-169.8 681,4 -4,4"/>
<text text-anchor="middle" x="338.5" y="-8.2" font-family="sans-serif" font-size="14.00">dependencies</text>
<g id="clust1" class="cluster">
<title>cluster_UpdateProfileModule</title>
<polygon fill="none" stroke="black" stroke-dasharray="1,5" points="8,-32.8 8,-157.8 669,-157.8 669,-32.8 8,-32.8"/>
</g>
<g id="clust4" class="cluster">
<title>cluster_UpdateProfileModule_imports</title>
<polygon fill="none" stroke="black" points="200,-40.8 200,-92.8 661,-92.8 661,-40.8 200,-40.8"/>
</g>
<g id="clust2" class="cluster">
<title>cluster_UpdateProfileModule_declarations</title>
<polygon fill="none" stroke="black" points="16,-40.8 16,-92.8 192,-92.8 192,-40.8 16,-40.8"/>
</g>
<!-- UpdateProfileComponent -->
<g id="node1" class="node">
<title>UpdateProfileComponent</title>
<polygon fill="#ffffb3" stroke="black" points="183.86,-84.8 24.14,-84.8 24.14,-48.8 183.86,-48.8 183.86,-84.8"/>
<text text-anchor="middle" x="104" y="-62.6" font-family="Times,serif" font-size="14.00">UpdateProfileComponent</text>
</g>
<!-- UpdateProfileModule -->
<g id="node2" class="node">
<title>UpdateProfileModule</title>
<polygon fill="#8dd3c7" stroke="black" points="425.08,-149.8 422.08,-153.8 401.08,-153.8 398.08,-149.8 286.92,-149.8 286.92,-113.8 425.08,-113.8 425.08,-149.8"/>
<text text-anchor="middle" x="356" y="-127.6" font-family="Times,serif" font-size="14.00">UpdateProfileModule</text>
</g>
<!-- UpdateProfileComponent&#45;&gt;UpdateProfileModule -->
<g id="edge1" class="edge">
<title>UpdateProfileComponent&#45;&gt;UpdateProfileModule</title>
<path fill="none" stroke="black" d="M104,-84.91C104,-104.14 104,-131.8 104,-131.8 104,-131.8 276.81,-131.8 276.81,-131.8"/>
<polygon fill="black" stroke="black" points="276.81,-135.3 286.81,-131.8 276.81,-128.3 276.81,-135.3"/>
</g>
<!-- FormErrorsModule -->
<g id="node3" class="node">
<title>FormErrorsModule</title>
<polygon fill="#8dd3c7" stroke="black" points="653.36,-84.8 650.36,-88.8 629.36,-88.8 626.36,-84.8 528.64,-84.8 528.64,-48.8 653.36,-48.8 653.36,-84.8"/>
<text text-anchor="middle" x="591" y="-62.6" font-family="Times,serif" font-size="14.00">FormErrorsModule</text>
</g>
<!-- FormErrorsModule&#45;&gt;UpdateProfileModule -->
<g id="edge2" class="edge">
<title>FormErrorsModule&#45;&gt;UpdateProfileModule</title>
<path fill="none" stroke="black" d="M591,-84.91C591,-104.14 591,-131.8 591,-131.8 591,-131.8 435.24,-131.8 435.24,-131.8"/>
<polygon fill="black" stroke="black" points="435.24,-128.3 425.24,-131.8 435.24,-135.3 435.24,-128.3"/>
</g>
<!-- I18nModule -->
<g id="node4" class="node">
<title>I18nModule</title>
<polygon fill="#8dd3c7" stroke="black" points="510.71,-84.8 507.71,-88.8 486.71,-88.8 483.71,-84.8 425.29,-84.8 425.29,-48.8 510.71,-48.8 510.71,-84.8"/>
<text text-anchor="middle" x="468" y="-62.6" font-family="Times,serif" font-size="14.00">I18nModule</text>
</g>
<!-- I18nModule&#45;&gt;UpdateProfileModule -->
<g id="edge3" class="edge">
<title>I18nModule&#45;&gt;UpdateProfileModule</title>
<path fill="none" stroke="black" d="M425.3,-66.8C419.94,-66.8 416.29,-66.8 416.29,-66.8 416.29,-66.8 416.29,-103.69 416.29,-103.69"/>
<polygon fill="black" stroke="black" points="412.79,-103.69 416.29,-113.69 419.79,-103.69 412.79,-103.69"/>
</g>
<!-- SpinnerModule -->
<g id="node5" class="node">
<title>SpinnerModule</title>
<polygon fill="#8dd3c7" stroke="black" points="407.6,-84.8 404.6,-88.8 383.6,-88.8 380.6,-84.8 304.4,-84.8 304.4,-48.8 407.6,-48.8 407.6,-84.8"/>
<text text-anchor="middle" x="356" y="-62.6" font-family="Times,serif" font-size="14.00">SpinnerModule</text>
</g>
<!-- SpinnerModule&#45;&gt;UpdateProfileModule -->
<g id="edge4" class="edge">
<title>SpinnerModule&#45;&gt;UpdateProfileModule</title>
<path fill="none" stroke="black" d="M356,-84.91C356,-84.91 356,-103.79 356,-103.79"/>
<polygon fill="black" stroke="black" points="352.5,-103.79 356,-113.79 359.5,-103.79 352.5,-103.79"/>
</g>
<!-- UrlModule -->
<g id="node6" class="node">
<title>UrlModule</title>
<polygon fill="#8dd3c7" stroke="black" points="286.21,-84.8 283.21,-88.8 262.21,-88.8 259.21,-84.8 207.79,-84.8 207.79,-48.8 286.21,-48.8 286.21,-84.8"/>
<text text-anchor="middle" x="247" y="-62.6" font-family="Times,serif" font-size="14.00">UrlModule</text>
</g>
<!-- UrlModule&#45;&gt;UpdateProfileModule -->
<g id="edge5" class="edge">
<title>UrlModule&#45;&gt;UpdateProfileModule</title>
<path fill="none" stroke="black" d="M286.32,-66.8C291.85,-66.8 295.71,-66.8 295.71,-66.8 295.71,-66.8 295.71,-103.69 295.71,-103.69"/>
<polygon fill="black" stroke="black" points="292.21,-103.69 295.71,-113.69 299.21,-103.69 292.21,-103.69"/>
</g>
</g>
</svg>
