<?xml version="1.0" encoding="UTF-8" standalone="no"?>
<!DOCTYPE svg PUBLIC "-//W3C//DTD SVG 1.1//EN"
 "http://www.w3.org/Graphics/SVG/1.1/DTD/svg11.dtd">
<!-- Generated by graphviz version 2.47.3 (20210619.1520)
 -->
<!-- Title: dependencies Pages: 1 -->
<svg width="522pt" height="247pt"
 viewBox="0.00 0.00 522.00 246.80" xmlns="http://www.w3.org/2000/svg" xmlns:xlink="http://www.w3.org/1999/xlink">
<g id="graph0" class="graph" transform="scale(1 1) rotate(0) translate(4 242.8)">
<title>dependencies</title>
<polygon fill="white" stroke="transparent" points="-4,4 -4,-242.8 518,-242.8 518,4 -4,4"/>
<text text-anchor="middle" x="257" y="-8.2" font-family="sans-serif" font-size="14.00">dependencies</text>
<g id="clust1" class="cluster">
<title>cluster_ConfiguratorExitButtonModule</title>
<polygon fill="none" stroke="black" stroke-dasharray="1,5" points="8,-32.8 8,-230.8 506,-230.8 506,-32.8 8,-32.8"/>
</g>
<g id="clust7" class="cluster">
<title>cluster_ConfiguratorExitButtonModule_providers</title>
<polygon fill="none" stroke="black" points="366,-40.8 366,-92.8 498,-92.8 498,-40.8 366,-40.8"/>
</g>
<g id="clust2" class="cluster">
<title>cluster_ConfiguratorExitButtonModule_declarations</title>
<polygon fill="none" stroke="black" points="126,-40.8 126,-92.8 358,-92.8 358,-40.8 126,-40.8"/>
</g>
<g id="clust5" class="cluster">
<title>cluster_ConfiguratorExitButtonModule_exports</title>
<polygon fill="none" stroke="black" points="125,-170.8 125,-222.8 359,-222.8 359,-170.8 125,-170.8"/>
</g>
<g id="clust4" class="cluster">
<title>cluster_ConfiguratorExitButtonModule_imports</title>
<polygon fill="none" stroke="black" points="16,-40.8 16,-92.8 118,-92.8 118,-40.8 16,-40.8"/>
</g>
<!-- ConfiguratorExitButtonComponent -->
<g id="node1" class="node">
<title>ConfiguratorExitButtonComponent</title>
<polygon fill="#ffffb3" stroke="black" points="349.6,-84.8 134.4,-84.8 134.4,-48.8 349.6,-48.8 349.6,-84.8"/>
<text text-anchor="middle" x="242" y="-62.6" font-family="Times,serif" font-size="14.00">ConfiguratorExitButtonComponent</text>
</g>
<!-- ConfiguratorExitButtonModule -->
<g id="node2" class="node">
<title>ConfiguratorExitButtonModule</title>
<polygon fill="#8dd3c7" stroke="black" points="338.82,-149.8 335.82,-153.8 314.82,-153.8 311.82,-149.8 145.18,-149.8 145.18,-113.8 338.82,-113.8 338.82,-149.8"/>
<text text-anchor="middle" x="242" y="-127.6" font-family="Times,serif" font-size="14.00">ConfiguratorExitButtonModule</text>
</g>
<!-- ConfiguratorExitButtonComponent&#45;&gt;ConfiguratorExitButtonModule -->
<g id="edge1" class="edge">
<title>ConfiguratorExitButtonComponent&#45;&gt;ConfiguratorExitButtonModule</title>
<path fill="none" stroke="black" d="M242,-84.91C242,-84.91 242,-103.79 242,-103.79"/>
<polygon fill="black" stroke="black" points="238.5,-103.79 242,-113.79 245.5,-103.79 238.5,-103.79"/>
</g>
<!-- ConfiguratorExitButtonComponent  -->
<g id="node4" class="node">
<title>ConfiguratorExitButtonComponent </title>
<polygon fill="#fb8072" stroke="black" points="351.1,-214.8 132.9,-214.8 132.9,-178.8 351.1,-178.8 351.1,-214.8"/>
<text text-anchor="middle" x="242" y="-192.6" font-family="Times,serif" font-size="14.00">ConfiguratorExitButtonComponent </text>
</g>
<!-- ConfiguratorExitButtonModule&#45;&gt;ConfiguratorExitButtonComponent  -->
<g id="edge3" class="edge">
<title>ConfiguratorExitButtonModule&#45;&gt;ConfiguratorExitButtonComponent </title>
<path fill="none" stroke="black" stroke-dasharray="5,2" d="M242,-149.91C242,-149.91 242,-168.79 242,-168.79"/>
<polygon fill="black" stroke="black" points="238.5,-168.79 242,-178.79 245.5,-168.79 238.5,-168.79"/>
</g>
<!-- I18nModule -->
<g id="node3" class="node">
<title>I18nModule</title>
<polygon fill="#8dd3c7" stroke="black" points="109.71,-84.8 106.71,-88.8 85.71,-88.8 82.71,-84.8 24.29,-84.8 24.29,-48.8 109.71,-48.8 109.71,-84.8"/>
<text text-anchor="middle" x="67" y="-62.6" font-family="Times,serif" font-size="14.00">I18nModule</text>
</g>
<!-- I18nModule&#45;&gt;ConfiguratorExitButtonModule -->
<g id="edge2" class="edge">
<title>I18nModule&#45;&gt;ConfiguratorExitButtonModule</title>
<path fill="none" stroke="black" d="M67,-84.91C67,-104.14 67,-131.8 67,-131.8 67,-131.8 135.29,-131.8 135.29,-131.8"/>
<polygon fill="black" stroke="black" points="135.29,-135.3 145.29,-131.8 135.29,-128.3 135.29,-135.3"/>
</g>
<!-- WindowRef -->
<g id="node5" class="node">
<title>WindowRef</title>
<ellipse fill="#fdb462" stroke="black" cx="432" cy="-66.8" rx="58.47" ry="18"/>
<text text-anchor="middle" x="432" y="-62.6" font-family="Times,serif" font-size="14.00">WindowRef</text>
</g>
<!-- WindowRef&#45;&gt;ConfiguratorExitButtonModule -->
<g id="edge4" class="edge">
<title>WindowRef&#45;&gt;ConfiguratorExitButtonModule</title>
<path fill="none" stroke="black" d="M432,-84.91C432,-104.14 432,-131.8 432,-131.8 432,-131.8 348.67,-131.8 348.67,-131.8"/>
<polygon fill="black" stroke="black" points="348.67,-128.3 338.67,-131.8 348.67,-135.3 348.67,-128.3"/>
</g>
</g>
</svg>
