<?xml version="1.0" encoding="UTF-8" standalone="no"?>
<!DOCTYPE svg PUBLIC "-//W3C//DTD SVG 1.1//EN"
 "http://www.w3.org/Graphics/SVG/1.1/DTD/svg11.dtd">
<!-- Generated by graphviz version 2.47.0 (20210316.0004)
 -->
<!-- Title: dependencies Pages: 1 -->
<svg width="723pt" height="284pt"
 viewBox="0.00 0.00 723.00 284.00" xmlns="http://www.w3.org/2000/svg" xmlns:xlink="http://www.w3.org/1999/xlink">
<g id="graph0" class="graph" transform="scale(1 1) rotate(0) translate(4 280)">
<title>dependencies</title>
<polygon fill="white" stroke="transparent" points="-4,4 -4,-280 719,-280 719,4 -4,4"/>
<text text-anchor="start" x="336.51" y="-42.4" font-family="sans-serif" font-weight="bold" font-size="14.00">Legend</text>
<polygon fill="#ffffb3" stroke="transparent" points="123.5,-10 123.5,-30 143.5,-30 143.5,-10 123.5,-10"/>
<text text-anchor="start" x="147.13" y="-15.4" font-family="sans-serif" font-size="14.00"> &#160;Declarations</text>
<polygon fill="#8dd3c7" stroke="transparent" points="236.5,-10 236.5,-30 256.5,-30 256.5,-10 236.5,-10"/>
<text text-anchor="start" x="260.23" y="-15.4" font-family="sans-serif" font-size="14.00"> &#160;Module</text>
<polygon fill="#80b1d3" stroke="transparent" points="322.5,-10 322.5,-30 342.5,-30 342.5,-10 322.5,-10"/>
<text text-anchor="start" x="346.28" y="-15.4" font-family="sans-serif" font-size="14.00"> &#160;Bootstrap</text>
<polygon fill="#fdb462" stroke="transparent" points="419.5,-10 419.5,-30 439.5,-30 439.5,-10 419.5,-10"/>
<text text-anchor="start" x="443.17" y="-15.4" font-family="sans-serif" font-size="14.00"> &#160;Providers</text>
<polygon fill="#fb8072" stroke="transparent" points="515.5,-10 515.5,-30 535.5,-30 535.5,-10 515.5,-10"/>
<text text-anchor="start" x="539.23" y="-15.4" font-family="sans-serif" font-size="14.00"> &#160;Exports</text>
<g id="clust1" class="cluster">
<title>cluster_ShippingAddressModule</title>
<polygon fill="none" stroke="black" stroke-dasharray="1,5" points="8,-70 8,-268 707,-268 707,-70 8,-70"/>
</g>
<g id="clust4" class="cluster">
<title>cluster_ShippingAddressModule_imports</title>
<polygon fill="none" stroke="black" points="218,-78 218,-130 699,-130 699,-78 218,-78"/>
</g>
<g id="clust2" class="cluster">
<title>cluster_ShippingAddressModule_declarations</title>
<polygon fill="none" stroke="black" points="16,-78 16,-130 210,-130 210,-78 16,-78"/>
</g>
<g id="clust5" class="cluster">
<title>cluster_ShippingAddressModule_exports</title>
<polygon fill="none" stroke="black" points="291,-208 291,-260 489,-260 489,-208 291,-208"/>
</g>
<!-- ShippingAddressComponent -->
<g id="node1" class="node">
<title>ShippingAddressComponent</title>
<polygon fill="#ffffb3" stroke="black" points="201.77,-122 24.23,-122 24.23,-86 201.77,-86 201.77,-122"/>
<text text-anchor="middle" x="113" y="-99.8" font-family="Times,serif" font-size="14.00">ShippingAddressComponent</text>
</g>
<!-- ShippingAddressModule -->
<g id="node2" class="node">
<title>ShippingAddressModule</title>
<polygon fill="#8dd3c7" stroke="black" points="467.98,-187 464.98,-191 443.98,-191 440.98,-187 312.02,-187 312.02,-151 467.98,-151 467.98,-187"/>
<text text-anchor="middle" x="390" y="-164.8" font-family="Times,serif" font-size="14.00">ShippingAddressModule</text>
</g>
<!-- ShippingAddressComponent&#45;&gt;ShippingAddressModule -->
<g id="edge1" class="edge">
<title>ShippingAddressComponent&#45;&gt;ShippingAddressModule</title>
<path fill="none" stroke="black" d="M113,-122.11C113,-141.34 113,-169 113,-169 113,-169 301.73,-169 301.73,-169"/>
<polygon fill="black" stroke="black" points="301.73,-172.5 311.73,-169 301.73,-165.5 301.73,-172.5"/>
</g>
<!-- ShippingAddressComponent  -->
<g id="node7" class="node">
<title>ShippingAddressComponent </title>
<polygon fill="#fb8072" stroke="black" points="480.77,-252 299.23,-252 299.23,-216 480.77,-216 480.77,-252"/>
<text text-anchor="middle" x="390" y="-229.8" font-family="Times,serif" font-size="14.00">ShippingAddressComponent </text>
</g>
<!-- ShippingAddressModule&#45;&gt;ShippingAddressComponent  -->
<g id="edge6" class="edge">
<title>ShippingAddressModule&#45;&gt;ShippingAddressComponent </title>
<path fill="none" stroke="black" stroke-dasharray="5,2" d="M390,-187.11C390,-187.11 390,-205.99 390,-205.99"/>
<polygon fill="black" stroke="black" points="386.5,-205.99 390,-215.99 393.5,-205.99 386.5,-205.99"/>
</g>
<!-- AddressFormModule -->
<g id="node3" class="node">
<title>AddressFormModule</title>
<polygon fill="#8dd3c7" stroke="black" points="690.75,-122 687.75,-126 666.75,-126 663.75,-122 555.25,-122 555.25,-86 690.75,-86 690.75,-122"/>
<text text-anchor="middle" x="623" y="-99.8" font-family="Times,serif" font-size="14.00">AddressFormModule</text>
</g>
<!-- AddressFormModule&#45;&gt;ShippingAddressModule -->
<g id="edge2" class="edge">
<title>AddressFormModule&#45;&gt;ShippingAddressModule</title>
<path fill="none" stroke="black" d="M623,-122.11C623,-141.34 623,-169 623,-169 623,-169 478.23,-169 478.23,-169"/>
<polygon fill="black" stroke="black" points="478.23,-165.5 468.23,-169 478.23,-172.5 478.23,-165.5"/>
</g>
<!-- CardModule -->
<g id="node4" class="node">
<title>CardModule</title>
<polygon fill="#8dd3c7" stroke="black" points="537.26,-122 534.26,-126 513.26,-126 510.26,-122 450.74,-122 450.74,-86 537.26,-86 537.26,-122"/>
<text text-anchor="middle" x="494" y="-99.8" font-family="Times,serif" font-size="14.00">CardModule</text>
</g>
<!-- CardModule&#45;&gt;ShippingAddressModule -->
<g id="edge3" class="edge">
<title>CardModule&#45;&gt;ShippingAddressModule</title>
<path fill="none" stroke="black" d="M459.31,-122.11C459.31,-122.11 459.31,-140.99 459.31,-140.99"/>
<polygon fill="black" stroke="black" points="455.81,-140.99 459.31,-150.99 462.81,-140.99 455.81,-140.99"/>
</g>
<!-- I18nModule -->
<g id="node5" class="node">
<title>I18nModule</title>
<polygon fill="#8dd3c7" stroke="black" points="432.71,-122 429.71,-126 408.71,-126 405.71,-122 347.29,-122 347.29,-86 432.71,-86 432.71,-122"/>
<text text-anchor="middle" x="390" y="-99.8" font-family="Times,serif" font-size="14.00">I18nModule</text>
</g>
<!-- I18nModule&#45;&gt;ShippingAddressModule -->
<g id="edge4" class="edge">
<title>I18nModule&#45;&gt;ShippingAddressModule</title>
<path fill="none" stroke="black" d="M390,-122.11C390,-122.11 390,-140.99 390,-140.99"/>
<polygon fill="black" stroke="black" points="386.5,-140.99 390,-150.99 393.5,-140.99 386.5,-140.99"/>
</g>
<!-- SpinnerModule -->
<g id="node6" class="node">
<title>SpinnerModule</title>
<polygon fill="#8dd3c7" stroke="black" points="329.6,-122 326.6,-126 305.6,-126 302.6,-122 226.4,-122 226.4,-86 329.6,-86 329.6,-122"/>
<text text-anchor="middle" x="278" y="-99.8" font-family="Times,serif" font-size="14.00">SpinnerModule</text>
</g>
<!-- SpinnerModule&#45;&gt;ShippingAddressModule -->
<g id="edge5" class="edge">
<title>SpinnerModule&#45;&gt;ShippingAddressModule</title>
<path fill="none" stroke="black" d="M320.78,-122.11C320.78,-122.11 320.78,-140.99 320.78,-140.99"/>
<polygon fill="black" stroke="black" points="317.28,-140.99 320.78,-150.99 324.28,-140.99 317.28,-140.99"/>
</g>
</g>
</svg>
