<?xml version="1.0" encoding="UTF-8" standalone="no"?>
<!DOCTYPE svg PUBLIC "-//W3C//DTD SVG 1.1//EN"
 "http://www.w3.org/Graphics/SVG/1.1/DTD/svg11.dtd">
<!-- Generated by graphviz version 2.47.3 (20210619.1520)
 -->
<!-- Title: dependencies Pages: 1 -->
<svg width="723pt" height="247pt"
 viewBox="0.00 0.00 723.00 246.80" xmlns="http://www.w3.org/2000/svg" xmlns:xlink="http://www.w3.org/1999/xlink">
<g id="graph0" class="graph" transform="scale(1 1) rotate(0) translate(4 242.8)">
<title>dependencies</title>
<polygon fill="white" stroke="transparent" points="-4,4 -4,-242.8 719,-242.8 719,4 -4,4"/>
<text text-anchor="middle" x="357.5" y="-8.2" font-family="sans-serif" font-size="14.00">dependencies</text>
<g id="clust1" class="cluster">
<title>cluster_ShippingAddressModule</title>
<polygon fill="none" stroke="black" stroke-dasharray="1,5" points="8,-32.8 8,-230.8 707,-230.8 707,-32.8 8,-32.8"/>
</g>
<g id="clust2" class="cluster">
<title>cluster_ShippingAddressModule_declarations</title>
<polygon fill="none" stroke="black" points="505,-40.8 505,-92.8 699,-92.8 699,-40.8 505,-40.8"/>
</g>
<g id="clust4" class="cluster">
<title>cluster_ShippingAddressModule_imports</title>
<polygon fill="none" stroke="black" points="16,-40.8 16,-92.8 497,-92.8 497,-40.8 16,-40.8"/>
</g>
<g id="clust5" class="cluster">
<title>cluster_ShippingAddressModule_exports</title>
<polygon fill="none" stroke="black" points="193,-170.8 193,-222.8 391,-222.8 391,-170.8 193,-170.8"/>
</g>
<!-- ShippingAddressComponent -->
<g id="node1" class="node">
<title>ShippingAddressComponent</title>
<polygon fill="#ffffb3" stroke="black" points="690.77,-84.8 513.23,-84.8 513.23,-48.8 690.77,-48.8 690.77,-84.8"/>
<text text-anchor="middle" x="602" y="-62.6" font-family="Times,serif" font-size="14.00">ShippingAddressComponent</text>
</g>
<!-- ShippingAddressModule -->
<g id="node2" class="node">
<title>ShippingAddressModule</title>
<polygon fill="#8dd3c7" stroke="black" points="369.98,-149.8 366.98,-153.8 345.98,-153.8 342.98,-149.8 214.02,-149.8 214.02,-113.8 369.98,-113.8 369.98,-149.8"/>
<text text-anchor="middle" x="292" y="-127.6" font-family="Times,serif" font-size="14.00">ShippingAddressModule</text>
</g>
<!-- ShippingAddressComponent&#45;&gt;ShippingAddressModule -->
<g id="edge1" class="edge">
<title>ShippingAddressComponent&#45;&gt;ShippingAddressModule</title>
<path fill="none" stroke="black" d="M602,-84.91C602,-104.14 602,-131.8 602,-131.8 602,-131.8 380.23,-131.8 380.23,-131.8"/>
<polygon fill="black" stroke="black" points="380.23,-128.3 370.23,-131.8 380.23,-135.3 380.23,-128.3"/>
</g>
<!-- ShippingAddressComponent  -->
<g id="node7" class="node">
<title>ShippingAddressComponent </title>
<polygon fill="#fb8072" stroke="black" points="382.77,-214.8 201.23,-214.8 201.23,-178.8 382.77,-178.8 382.77,-214.8"/>
<text text-anchor="middle" x="292" y="-192.6" font-family="Times,serif" font-size="14.00">ShippingAddressComponent </text>
</g>
<!-- ShippingAddressModule&#45;&gt;ShippingAddressComponent  -->
<g id="edge6" class="edge">
<title>ShippingAddressModule&#45;&gt;ShippingAddressComponent </title>
<path fill="none" stroke="black" stroke-dasharray="5,2" d="M292,-149.91C292,-149.91 292,-168.79 292,-168.79"/>
<polygon fill="black" stroke="black" points="288.5,-168.79 292,-178.79 295.5,-168.79 288.5,-168.79"/>
</g>
<!-- AddressFormModule -->
<g id="node3" class="node">
<title>AddressFormModule</title>
<polygon fill="#8dd3c7" stroke="black" points="488.75,-84.8 485.75,-88.8 464.75,-88.8 461.75,-84.8 353.25,-84.8 353.25,-48.8 488.75,-48.8 488.75,-84.8"/>
<text text-anchor="middle" x="421" y="-62.6" font-family="Times,serif" font-size="14.00">AddressFormModule</text>
</g>
<!-- AddressFormModule&#45;&gt;ShippingAddressModule -->
<g id="edge2" class="edge">
<title>AddressFormModule&#45;&gt;ShippingAddressModule</title>
<path fill="none" stroke="black" d="M361.56,-84.91C361.56,-84.91 361.56,-103.79 361.56,-103.79"/>
<polygon fill="black" stroke="black" points="358.06,-103.79 361.56,-113.79 365.06,-103.79 358.06,-103.79"/>
</g>
<!-- CardModule -->
<g id="node4" class="node">
<title>CardModule</title>
<polygon fill="#8dd3c7" stroke="black" points="335.26,-84.8 332.26,-88.8 311.26,-88.8 308.26,-84.8 248.74,-84.8 248.74,-48.8 335.26,-48.8 335.26,-84.8"/>
<text text-anchor="middle" x="292" y="-62.6" font-family="Times,serif" font-size="14.00">CardModule</text>
</g>
<!-- CardModule&#45;&gt;ShippingAddressModule -->
<g id="edge3" class="edge">
<title>CardModule&#45;&gt;ShippingAddressModule</title>
<path fill="none" stroke="black" d="M292,-84.91C292,-84.91 292,-103.79 292,-103.79"/>
<polygon fill="black" stroke="black" points="288.5,-103.79 292,-113.79 295.5,-103.79 288.5,-103.79"/>
</g>
<!-- I18nModule -->
<g id="node5" class="node">
<title>I18nModule</title>
<polygon fill="#8dd3c7" stroke="black" points="230.71,-84.8 227.71,-88.8 206.71,-88.8 203.71,-84.8 145.29,-84.8 145.29,-48.8 230.71,-48.8 230.71,-84.8"/>
<text text-anchor="middle" x="188" y="-62.6" font-family="Times,serif" font-size="14.00">I18nModule</text>
</g>
<!-- I18nModule&#45;&gt;ShippingAddressModule -->
<g id="edge4" class="edge">
<title>I18nModule&#45;&gt;ShippingAddressModule</title>
<path fill="none" stroke="black" d="M222.31,-84.91C222.31,-84.91 222.31,-103.79 222.31,-103.79"/>
<polygon fill="black" stroke="black" points="218.81,-103.79 222.31,-113.79 225.81,-103.79 218.81,-103.79"/>
</g>
<!-- SpinnerModule -->
<g id="node6" class="node">
<title>SpinnerModule</title>
<polygon fill="#8dd3c7" stroke="black" points="127.6,-84.8 124.6,-88.8 103.6,-88.8 100.6,-84.8 24.4,-84.8 24.4,-48.8 127.6,-48.8 127.6,-84.8"/>
<text text-anchor="middle" x="76" y="-62.6" font-family="Times,serif" font-size="14.00">SpinnerModule</text>
</g>
<!-- SpinnerModule&#45;&gt;ShippingAddressModule -->
<g id="edge5" class="edge">
<title>SpinnerModule&#45;&gt;ShippingAddressModule</title>
<path fill="none" stroke="black" d="M76,-84.91C76,-104.14 76,-131.8 76,-131.8 76,-131.8 203.71,-131.8 203.71,-131.8"/>
<polygon fill="black" stroke="black" points="203.71,-135.3 213.71,-131.8 203.71,-128.3 203.71,-135.3"/>
</g>
</g>
</svg>
