<?xml version="1.0" encoding="UTF-8" standalone="no"?>
<!DOCTYPE svg PUBLIC "-//W3C//DTD SVG 1.1//EN"
 "http://www.w3.org/Graphics/SVG/1.1/DTD/svg11.dtd">
<!-- Generated by graphviz version 2.44.1 (20200629.0846)
 -->
<!-- Title: dependencies Pages: 1 -->
<svg width="1227pt" height="284pt"
 viewBox="0.00 0.00 1227.00 284.00" xmlns="http://www.w3.org/2000/svg" xmlns:xlink="http://www.w3.org/1999/xlink">
<g id="graph0" class="graph" transform="scale(1 1) rotate(0) translate(4 280)">
<title>dependencies</title>
<polygon fill="white" stroke="transparent" points="-4,4 -4,-280 1223,-280 1223,4 -4,4"/>
<text text-anchor="start" x="588.51" y="-42.4" font-family="sans-serif" font-weight="bold" font-size="14.00">Legend</text>
<polygon fill="#ffffb3" stroke="transparent" points="375.5,-10 375.5,-30 395.5,-30 395.5,-10 375.5,-10"/>
<text text-anchor="start" x="399.13" y="-15.4" font-family="sans-serif" font-size="14.00"> &#160;Declarations</text>
<polygon fill="#8dd3c7" stroke="transparent" points="488.5,-10 488.5,-30 508.5,-30 508.5,-10 488.5,-10"/>
<text text-anchor="start" x="512.23" y="-15.4" font-family="sans-serif" font-size="14.00"> &#160;Module</text>
<polygon fill="#80b1d3" stroke="transparent" points="574.5,-10 574.5,-30 594.5,-30 594.5,-10 574.5,-10"/>
<text text-anchor="start" x="598.28" y="-15.4" font-family="sans-serif" font-size="14.00"> &#160;Bootstrap</text>
<polygon fill="#fdb462" stroke="transparent" points="671.5,-10 671.5,-30 691.5,-30 691.5,-10 671.5,-10"/>
<text text-anchor="start" x="695.17" y="-15.4" font-family="sans-serif" font-size="14.00"> &#160;Providers</text>
<polygon fill="#fb8072" stroke="transparent" points="767.5,-10 767.5,-30 787.5,-30 787.5,-10 767.5,-10"/>
<text text-anchor="start" x="791.23" y="-15.4" font-family="sans-serif" font-size="14.00"> &#160;Exports</text>
<g id="clust1" class="cluster">
<title>cluster_ShippingAddressModule</title>
<polygon fill="none" stroke="black" stroke-dasharray="1,5" points="8,-70 8,-268 1211,-268 1211,-70 8,-70"/>
</g>
<g id="clust4" class="cluster">
<title>cluster_ShippingAddressModule_imports</title>
<polygon fill="none" stroke="black" points="218,-78 218,-130 1203,-130 1203,-78 218,-78"/>
</g>
<g id="clust5" class="cluster">
<title>cluster_ShippingAddressModule_exports</title>
<polygon fill="none" stroke="black" points="464,-208 464,-260 662,-260 662,-208 464,-208"/>
</g>
<g id="clust2" class="cluster">
<title>cluster_ShippingAddressModule_declarations</title>
<polygon fill="none" stroke="black" points="16,-78 16,-130 210,-130 210,-78 16,-78"/>
</g>
<!-- ShippingAddressComponent -->
<g id="node1" class="node">
<title>ShippingAddressComponent</title>
<polygon fill="#ffffb3" stroke="black" points="201.77,-122 24.23,-122 24.23,-86 201.77,-86 201.77,-122"/>
<text text-anchor="middle" x="113" y="-99.8" font-family="Times,serif" font-size="14.00">ShippingAddressComponent</text>
</g>
<!-- ShippingAddressModule -->
<g id="node2" class="node">
<title>ShippingAddressModule</title>
<polygon fill="#8dd3c7" stroke="black" points="640.98,-187 637.98,-191 616.98,-191 613.98,-187 485.02,-187 485.02,-151 640.98,-151 640.98,-187"/>
<text text-anchor="middle" x="563" y="-164.8" font-family="Times,serif" font-size="14.00">ShippingAddressModule</text>
</g>
<!-- ShippingAddressComponent&#45;&gt;ShippingAddressModule -->
<g id="edge1" class="edge">
<title>ShippingAddressComponent&#45;&gt;ShippingAddressModule</title>
<path fill="none" stroke="black" d="M113,-122.29C113,-144.21 113,-178 113,-178 113,-178 474.87,-178 474.87,-178"/>
<polygon fill="black" stroke="black" points="474.87,-181.5 484.87,-178 474.87,-174.5 474.87,-181.5"/>
</g>
<!-- ShippingAddressComponent  -->
<g id="node9" class="node">
<title>ShippingAddressComponent </title>
<polygon fill="#fb8072" stroke="black" points="653.77,-252 472.23,-252 472.23,-216 653.77,-216 653.77,-252"/>
<text text-anchor="middle" x="563" y="-229.8" font-family="Times,serif" font-size="14.00">ShippingAddressComponent </text>
</g>
<!-- ShippingAddressModule&#45;&gt;ShippingAddressComponent  -->
<g id="edge8" class="edge">
<title>ShippingAddressModule&#45;&gt;ShippingAddressComponent </title>
<path fill="none" stroke="black" stroke-dasharray="5,2" d="M563,-187.11C563,-187.11 563,-205.99 563,-205.99"/>
<polygon fill="black" stroke="black" points="559.5,-205.99 563,-215.99 566.5,-205.99 559.5,-205.99"/>
</g>
<!-- AddressFormModule -->
<g id="node3" class="node">
<title>AddressFormModule</title>
<polygon fill="#8dd3c7" stroke="black" points="1194.75,-122 1191.75,-126 1170.75,-126 1167.75,-122 1059.25,-122 1059.25,-86 1194.75,-86 1194.75,-122"/>
<text text-anchor="middle" x="1127" y="-99.8" font-family="Times,serif" font-size="14.00">AddressFormModule</text>
</g>
<!-- AddressFormModule&#45;&gt;ShippingAddressModule -->
<g id="edge2" class="edge">
<title>AddressFormModule&#45;&gt;ShippingAddressModule</title>
<path fill="none" stroke="black" d="M1127,-122.29C1127,-144.21 1127,-178 1127,-178 1127,-178 651.13,-178 651.13,-178"/>
<polygon fill="black" stroke="black" points="651.13,-174.5 641.13,-178 651.13,-181.5 651.13,-174.5"/>
</g>
<!-- CardModule -->
<g id="node4" class="node">
<title>CardModule</title>
<polygon fill="#8dd3c7" stroke="black" points="1041.26,-122 1038.26,-126 1017.26,-126 1014.26,-122 954.74,-122 954.74,-86 1041.26,-86 1041.26,-122"/>
<text text-anchor="middle" x="998" y="-99.8" font-family="Times,serif" font-size="14.00">CardModule</text>
</g>
<!-- CardModule&#45;&gt;ShippingAddressModule -->
<g id="edge3" class="edge">
<title>CardModule&#45;&gt;ShippingAddressModule</title>
<path fill="none" stroke="black" d="M998,-122.11C998,-141.34 998,-169 998,-169 998,-169 651.02,-169 651.02,-169"/>
<polygon fill="black" stroke="black" points="651.02,-165.5 641.02,-169 651.02,-172.5 651.02,-165.5"/>
</g>
<!-- CheckoutProgressMobileBottomModule -->
<g id="node5" class="node">
<title>CheckoutProgressMobileBottomModule</title>
<polygon fill="#8dd3c7" stroke="black" points="936.86,-122 933.86,-126 912.86,-126 909.86,-122 693.14,-122 693.14,-86 936.86,-86 936.86,-122"/>
<text text-anchor="middle" x="815" y="-99.8" font-family="Times,serif" font-size="14.00">CheckoutProgressMobileBottomModule</text>
</g>
<!-- CheckoutProgressMobileBottomModule&#45;&gt;ShippingAddressModule -->
<g id="edge4" class="edge">
<title>CheckoutProgressMobileBottomModule&#45;&gt;ShippingAddressModule</title>
<path fill="none" stroke="black" d="M815,-122.03C815,-138.4 815,-160 815,-160 815,-160 651.01,-160 651.01,-160"/>
<polygon fill="black" stroke="black" points="651.01,-156.5 641.01,-160 651.01,-163.5 651.01,-156.5"/>
</g>
<!-- CheckoutProgressMobileTopModule -->
<g id="node6" class="node">
<title>CheckoutProgressMobileTopModule</title>
<polygon fill="#8dd3c7" stroke="black" points="675.41,-122 672.41,-126 651.41,-126 648.41,-122 450.59,-122 450.59,-86 675.41,-86 675.41,-122"/>
<text text-anchor="middle" x="563" y="-99.8" font-family="Times,serif" font-size="14.00">CheckoutProgressMobileTopModule</text>
</g>
<!-- CheckoutProgressMobileTopModule&#45;&gt;ShippingAddressModule -->
<g id="edge5" class="edge">
<title>CheckoutProgressMobileTopModule&#45;&gt;ShippingAddressModule</title>
<path fill="none" stroke="black" d="M563,-122.11C563,-122.11 563,-140.99 563,-140.99"/>
<polygon fill="black" stroke="black" points="559.5,-140.99 563,-150.99 566.5,-140.99 559.5,-140.99"/>
</g>
<!-- I18nModule -->
<g id="node7" class="node">
<title>I18nModule</title>
<polygon fill="#8dd3c7" stroke="black" points="432.71,-122 429.71,-126 408.71,-126 405.71,-122 347.29,-122 347.29,-86 432.71,-86 432.71,-122"/>
<text text-anchor="middle" x="390" y="-99.8" font-family="Times,serif" font-size="14.00">I18nModule</text>
</g>
<!-- I18nModule&#45;&gt;ShippingAddressModule -->
<g id="edge6" class="edge">
<title>I18nModule&#45;&gt;ShippingAddressModule</title>
<path fill="none" stroke="black" d="M390,-122.03C390,-138.4 390,-160 390,-160 390,-160 474.85,-160 474.85,-160"/>
<polygon fill="black" stroke="black" points="474.85,-163.5 484.85,-160 474.85,-156.5 474.85,-163.5"/>
</g>
<!-- SpinnerModule -->
<g id="node8" class="node">
<title>SpinnerModule</title>
<polygon fill="#8dd3c7" stroke="black" points="329.6,-122 326.6,-126 305.6,-126 302.6,-122 226.4,-122 226.4,-86 329.6,-86 329.6,-122"/>
<text text-anchor="middle" x="278" y="-99.8" font-family="Times,serif" font-size="14.00">SpinnerModule</text>
</g>
<!-- SpinnerModule&#45;&gt;ShippingAddressModule -->
<g id="edge7" class="edge">
<title>SpinnerModule&#45;&gt;ShippingAddressModule</title>
<path fill="none" stroke="black" d="M278,-122.11C278,-141.34 278,-169 278,-169 278,-169 474.75,-169 474.75,-169"/>
<polygon fill="black" stroke="black" points="474.75,-172.5 484.75,-169 474.75,-165.5 474.75,-172.5"/>
</g>
</g>
</svg>
