<?xml version="1.0" encoding="UTF-8" standalone="no"?>
<!DOCTYPE svg PUBLIC "-//W3C//DTD SVG 1.1//EN"
 "http://www.w3.org/Graphics/SVG/1.1/DTD/svg11.dtd">
<!-- Generated by graphviz version 2.40.1 (20161225.0304)
 -->
<!-- Title: dependencies Pages: 1 -->
<svg width="1343pt" height="284pt"
 viewBox="0.00 0.00 1343.00 284.00" xmlns="http://www.w3.org/2000/svg" xmlns:xlink="http://www.w3.org/1999/xlink">
<g id="graph0" class="graph" transform="scale(1 1) rotate(0) translate(4 280)">
<title>dependencies</title>
<polygon fill="#ffffff" stroke="transparent" points="-4,4 -4,-280 1339,-280 1339,4 -4,4"/>
<text text-anchor="start" x="646.5091" y="-42.4" font-family="sans-serif" font-weight="bold" font-size="14.00" fill="#000000">Legend</text>
<polygon fill="#ffffb3" stroke="transparent" points="433.5,-10 433.5,-30 453.5,-30 453.5,-10 433.5,-10"/>
<text text-anchor="start" x="457.129" y="-15.4" font-family="sans-serif" font-size="14.00" fill="#000000"> &#160;Declarations</text>
<polygon fill="#8dd3c7" stroke="transparent" points="546.5,-10 546.5,-30 566.5,-30 566.5,-10 546.5,-10"/>
<text text-anchor="start" x="570.2251" y="-15.4" font-family="sans-serif" font-size="14.00" fill="#000000"> &#160;Module</text>
<polygon fill="#80b1d3" stroke="transparent" points="632.5,-10 632.5,-30 652.5,-30 652.5,-10 632.5,-10"/>
<text text-anchor="start" x="656.2812" y="-15.4" font-family="sans-serif" font-size="14.00" fill="#000000"> &#160;Bootstrap</text>
<polygon fill="#fdb462" stroke="transparent" points="729.5,-10 729.5,-30 749.5,-30 749.5,-10 729.5,-10"/>
<text text-anchor="start" x="753.1732" y="-15.4" font-family="sans-serif" font-size="14.00" fill="#000000"> &#160;Providers</text>
<polygon fill="#fb8072" stroke="transparent" points="825.5,-10 825.5,-30 845.5,-30 845.5,-10 825.5,-10"/>
<text text-anchor="start" x="849.2258" y="-15.4" font-family="sans-serif" font-size="14.00" fill="#000000"> &#160;Exports</text>
<g id="clust1" class="cluster">
<title>cluster_ShippingAddressModule</title>
<polygon fill="none" stroke="#000000" stroke-dasharray="1,5" points="8,-70 8,-268 1327,-268 1327,-70 8,-70"/>
</g>
<g id="clust2" class="cluster">
<title>cluster_ShippingAddressModule_declarations</title>
<polygon fill="none" stroke="#000000" points="1125,-78 1125,-130 1319,-130 1319,-78 1125,-78"/>
</g>
<g id="clust4" class="cluster">
<title>cluster_ShippingAddressModule_imports</title>
<polygon fill="none" stroke="#000000" points="16,-78 16,-130 1117,-130 1117,-78 16,-78"/>
</g>
<g id="clust5" class="cluster">
<title>cluster_ShippingAddressModule_exports</title>
<polygon fill="none" stroke="#000000" points="504,-208 504,-260 702,-260 702,-208 504,-208"/>
</g>
<!-- ShippingAddressComponent -->
<g id="node1" class="node">
<title>ShippingAddressComponent</title>
<polygon fill="#ffffb3" stroke="#000000" points="1310.7674,-122 1133.2326,-122 1133.2326,-86 1310.7674,-86 1310.7674,-122"/>
<text text-anchor="middle" x="1222" y="-99.8" font-family="Times,serif" font-size="14.00" fill="#000000">ShippingAddressComponent</text>
</g>
<!-- ShippingAddressModule -->
<g id="node2" class="node">
<title>ShippingAddressModule</title>
<polygon fill="#8dd3c7" stroke="#000000" points="680.9846,-187 677.9846,-191 656.9846,-191 653.9846,-187 525.0154,-187 525.0154,-151 680.9846,-151 680.9846,-187"/>
<text text-anchor="middle" x="603" y="-164.8" font-family="Times,serif" font-size="14.00" fill="#000000">ShippingAddressModule</text>
</g>
<!-- ShippingAddressComponent&#45;&gt;ShippingAddressModule -->
<g id="edge1" class="edge">
<title>ShippingAddressComponent&#45;&gt;ShippingAddressModule</title>
<path fill="none" stroke="#000000" d="M1222,-122.2921C1222,-144.2057 1222,-178 1222,-178 1222,-178 691.0831,-178 691.0831,-178"/>
<polygon fill="#000000" stroke="#000000" points="691.0832,-174.5001 681.0831,-178 691.0831,-181.5001 691.0832,-174.5001"/>
</g>
<!-- ShippingAddressComponent  -->
<g id="node10" class="node">
<title>ShippingAddressComponent </title>
<polygon fill="#fb8072" stroke="#000000" points="693.7674,-252 512.2326,-252 512.2326,-216 693.7674,-216 693.7674,-252"/>
<text text-anchor="middle" x="603" y="-229.8" font-family="Times,serif" font-size="14.00" fill="#000000">ShippingAddressComponent </text>
</g>
<!-- ShippingAddressModule&#45;&gt;ShippingAddressComponent  -->
<g id="edge9" class="edge">
<title>ShippingAddressModule&#45;&gt;ShippingAddressComponent </title>
<path fill="none" stroke="#000000" stroke-dasharray="5,2" d="M603,-187.1061C603,-187.1061 603,-205.991 603,-205.991"/>
<polygon fill="#000000" stroke="#000000" points="599.5001,-205.9909 603,-215.991 606.5001,-205.991 599.5001,-205.9909"/>
</g>
<!-- AddressFormModule -->
<g id="node3" class="node">
<title>AddressFormModule</title>
<polygon fill="#8dd3c7" stroke="#000000" points="1108.7548,-122 1105.7548,-126 1084.7548,-126 1081.7548,-122 973.2452,-122 973.2452,-86 1108.7548,-86 1108.7548,-122"/>
<text text-anchor="middle" x="1041" y="-99.8" font-family="Times,serif" font-size="14.00" fill="#000000">AddressFormModule</text>
</g>
<!-- AddressFormModule&#45;&gt;ShippingAddressModule -->
<g id="edge2" class="edge">
<title>AddressFormModule&#45;&gt;ShippingAddressModule</title>
<path fill="none" stroke="#000000" d="M1041,-122.1061C1041,-141.3391 1041,-169 1041,-169 1041,-169 691.0531,-169 691.0531,-169"/>
<polygon fill="#000000" stroke="#000000" points="691.0532,-165.5001 681.0531,-169 691.0531,-172.5001 691.0532,-165.5001"/>
</g>
<!-- CardModule -->
<g id="node4" class="node">
<title>CardModule</title>
<polygon fill="#8dd3c7" stroke="#000000" points="955.2619,-122 952.2619,-126 931.2619,-126 928.2619,-122 868.7381,-122 868.7381,-86 955.2619,-86 955.2619,-122"/>
<text text-anchor="middle" x="912" y="-99.8" font-family="Times,serif" font-size="14.00" fill="#000000">CardModule</text>
</g>
<!-- CardModule&#45;&gt;ShippingAddressModule -->
<g id="edge3" class="edge">
<title>CardModule&#45;&gt;ShippingAddressModule</title>
<path fill="none" stroke="#000000" d="M912,-122.027C912,-138.3976 912,-160 912,-160 912,-160 691.3732,-160 691.3732,-160"/>
<polygon fill="#000000" stroke="#000000" points="691.3732,-156.5001 681.3732,-160 691.3732,-163.5001 691.3732,-156.5001"/>
</g>
<!-- CheckoutProgressMobileBottomModule -->
<g id="node5" class="node">
<title>CheckoutProgressMobileBottomModule</title>
<polygon fill="#8dd3c7" stroke="#000000" points="850.8626,-122 847.8626,-126 826.8626,-126 823.8626,-122 607.1374,-122 607.1374,-86 850.8626,-86 850.8626,-122"/>
<text text-anchor="middle" x="729" y="-99.8" font-family="Times,serif" font-size="14.00" fill="#000000">CheckoutProgressMobileBottomModule</text>
</g>
<!-- CheckoutProgressMobileBottomModule&#45;&gt;ShippingAddressModule -->
<g id="edge4" class="edge">
<title>CheckoutProgressMobileBottomModule&#45;&gt;ShippingAddressModule</title>
<path fill="none" stroke="#000000" d="M644.0305,-122.1061C644.0305,-122.1061 644.0305,-140.991 644.0305,-140.991"/>
<polygon fill="#000000" stroke="#000000" points="640.5306,-140.9909 644.0305,-150.991 647.5306,-140.991 640.5306,-140.9909"/>
</g>
<!-- CheckoutProgressMobileTopModule -->
<g id="node6" class="node">
<title>CheckoutProgressMobileTopModule</title>
<polygon fill="#8dd3c7" stroke="#000000" points="589.4072,-122 586.4072,-126 565.4072,-126 562.4072,-122 364.5928,-122 364.5928,-86 589.4072,-86 589.4072,-122"/>
<text text-anchor="middle" x="477" y="-99.8" font-family="Times,serif" font-size="14.00" fill="#000000">CheckoutProgressMobileTopModule</text>
</g>
<!-- CheckoutProgressMobileTopModule&#45;&gt;ShippingAddressModule -->
<g id="edge5" class="edge">
<title>CheckoutProgressMobileTopModule&#45;&gt;ShippingAddressModule</title>
<path fill="none" stroke="#000000" d="M557.1056,-122.1061C557.1056,-122.1061 557.1056,-140.991 557.1056,-140.991"/>
<polygon fill="#000000" stroke="#000000" points="553.6056,-140.9909 557.1056,-150.991 560.6056,-140.991 553.6056,-140.9909"/>
</g>
<!-- ConfigModule -->
<g id="node7" class="node">
<title>ConfigModule</title>
<polygon fill="#8dd3c7" stroke="#000000" points="347.4386,-122 344.4386,-126 323.4386,-126 320.4386,-122 248.5614,-122 248.5614,-86 347.4386,-86 347.4386,-122"/>
<text text-anchor="middle" x="298" y="-99.8" font-family="Times,serif" font-size="14.00" fill="#000000">ConfigModule</text>
</g>
<!-- ConfigModule&#45;&gt;ShippingAddressModule -->
<g id="edge6" class="edge">
<title>ConfigModule&#45;&gt;ShippingAddressModule</title>
<path fill="none" stroke="#000000" d="M298,-122.027C298,-138.3976 298,-160 298,-160 298,-160 514.851,-160 514.851,-160"/>
<polygon fill="#000000" stroke="#000000" points="514.851,-163.5001 524.851,-160 514.8509,-156.5001 514.851,-163.5001"/>
</g>
<!-- I18nModule -->
<g id="node8" class="node">
<title>I18nModule</title>
<polygon fill="#8dd3c7" stroke="#000000" points="230.7107,-122 227.7107,-126 206.7107,-126 203.7107,-122 145.2893,-122 145.2893,-86 230.7107,-86 230.7107,-122"/>
<text text-anchor="middle" x="188" y="-99.8" font-family="Times,serif" font-size="14.00" fill="#000000">I18nModule</text>
</g>
<!-- I18nModule&#45;&gt;ShippingAddressModule -->
<g id="edge7" class="edge">
<title>I18nModule&#45;&gt;ShippingAddressModule</title>
<path fill="none" stroke="#000000" d="M188,-122.1061C188,-141.3391 188,-169 188,-169 188,-169 514.9417,-169 514.9417,-169"/>
<polygon fill="#000000" stroke="#000000" points="514.9417,-172.5001 524.9417,-169 514.9416,-165.5001 514.9417,-172.5001"/>
</g>
<!-- SpinnerModule -->
<g id="node9" class="node">
<title>SpinnerModule</title>
<polygon fill="#8dd3c7" stroke="#000000" points="127.5982,-122 124.5982,-126 103.5982,-126 100.5982,-122 24.4018,-122 24.4018,-86 127.5982,-86 127.5982,-122"/>
<text text-anchor="middle" x="76" y="-99.8" font-family="Times,serif" font-size="14.00" fill="#000000">SpinnerModule</text>
</g>
<!-- SpinnerModule&#45;&gt;ShippingAddressModule -->
<g id="edge8" class="edge">
<title>SpinnerModule&#45;&gt;ShippingAddressModule</title>
<path fill="none" stroke="#000000" d="M76,-122.2921C76,-144.2057 76,-178 76,-178 76,-178 514.9558,-178 514.9558,-178"/>
<polygon fill="#000000" stroke="#000000" points="514.9558,-181.5001 524.9558,-178 514.9557,-174.5001 514.9558,-181.5001"/>
</g>
</g>
</svg>
