<?xml version="1.0" encoding="UTF-8" standalone="no"?>
<!DOCTYPE svg PUBLIC "-//W3C//DTD SVG 1.1//EN"
 "http://www.w3.org/Graphics/SVG/1.1/DTD/svg11.dtd">
<!-- Generated by graphviz version 2.40.1 (20161225.0304)
 -->
<!-- Title: dependencies Pages: 1 -->
<svg width="1227pt" height="284pt"
 viewBox="0.00 0.00 1227.00 284.00" xmlns="http://www.w3.org/2000/svg" xmlns:xlink="http://www.w3.org/1999/xlink">
<g id="graph0" class="graph" transform="scale(1 1) rotate(0) translate(4 280)">
<title>dependencies</title>
<polygon fill="#ffffff" stroke="transparent" points="-4,4 -4,-280 1223,-280 1223,4 -4,4"/>
<text text-anchor="start" x="588.5091" y="-42.4" font-family="sans-serif" font-weight="bold" font-size="14.00" fill="#000000">Legend</text>
<polygon fill="#ffffb3" stroke="transparent" points="375.5,-10 375.5,-30 395.5,-30 395.5,-10 375.5,-10"/>
<text text-anchor="start" x="399.129" y="-15.4" font-family="sans-serif" font-size="14.00" fill="#000000"> &#160;Declarations</text>
<polygon fill="#8dd3c7" stroke="transparent" points="488.5,-10 488.5,-30 508.5,-30 508.5,-10 488.5,-10"/>
<text text-anchor="start" x="512.2251" y="-15.4" font-family="sans-serif" font-size="14.00" fill="#000000"> &#160;Module</text>
<polygon fill="#80b1d3" stroke="transparent" points="574.5,-10 574.5,-30 594.5,-30 594.5,-10 574.5,-10"/>
<text text-anchor="start" x="598.2812" y="-15.4" font-family="sans-serif" font-size="14.00" fill="#000000"> &#160;Bootstrap</text>
<polygon fill="#fdb462" stroke="transparent" points="671.5,-10 671.5,-30 691.5,-30 691.5,-10 671.5,-10"/>
<text text-anchor="start" x="695.1732" y="-15.4" font-family="sans-serif" font-size="14.00" fill="#000000"> &#160;Providers</text>
<polygon fill="#fb8072" stroke="transparent" points="767.5,-10 767.5,-30 787.5,-30 787.5,-10 767.5,-10"/>
<text text-anchor="start" x="791.2258" y="-15.4" font-family="sans-serif" font-size="14.00" fill="#000000"> &#160;Exports</text>
<g id="clust1" class="cluster">
<title>cluster_ShippingAddressModule</title>
<polygon fill="none" stroke="#000000" stroke-dasharray="1,5" points="8,-70 8,-268 1211,-268 1211,-70 8,-70"/>
</g>
<g id="clust2" class="cluster">
<title>cluster_ShippingAddressModule_declarations</title>
<polygon fill="none" stroke="#000000" points="1009,-78 1009,-130 1203,-130 1203,-78 1009,-78"/>
</g>
<g id="clust4" class="cluster">
<title>cluster_ShippingAddressModule_imports</title>
<polygon fill="none" stroke="#000000" points="16,-78 16,-130 1001,-130 1001,-78 16,-78"/>
</g>
<g id="clust5" class="cluster">
<title>cluster_ShippingAddressModule_exports</title>
<polygon fill="none" stroke="#000000" points="514,-208 514,-260 712,-260 712,-208 514,-208"/>
</g>
<!-- ShippingAddressComponent -->
<g id="node1" class="node">
<title>ShippingAddressComponent</title>
<polygon fill="#ffffb3" stroke="#000000" points="1194.7674,-122 1017.2326,-122 1017.2326,-86 1194.7674,-86 1194.7674,-122"/>
<text text-anchor="middle" x="1106" y="-99.8" font-family="Times,serif" font-size="14.00" fill="#000000">ShippingAddressComponent</text>
</g>
<!-- ShippingAddressModule -->
<g id="node2" class="node">
<title>ShippingAddressModule</title>
<polygon fill="#8dd3c7" stroke="#000000" points="690.9846,-187 687.9846,-191 666.9846,-191 663.9846,-187 535.0154,-187 535.0154,-151 690.9846,-151 690.9846,-187"/>
<text text-anchor="middle" x="613" y="-164.8" font-family="Times,serif" font-size="14.00" fill="#000000">ShippingAddressModule</text>
</g>
<!-- ShippingAddressComponent&#45;&gt;ShippingAddressModule -->
<g id="edge1" class="edge">
<title>ShippingAddressComponent&#45;&gt;ShippingAddressModule</title>
<path fill="none" stroke="#000000" d="M1106,-122.2921C1106,-144.2057 1106,-178 1106,-178 1106,-178 701.1173,-178 701.1173,-178"/>
<polygon fill="#000000" stroke="#000000" points="701.1174,-174.5001 691.1173,-178 701.1173,-181.5001 701.1174,-174.5001"/>
</g>
<!-- ShippingAddressComponent  -->
<g id="node9" class="node">
<title>ShippingAddressComponent </title>
<polygon fill="#fb8072" stroke="#000000" points="703.7674,-252 522.2326,-252 522.2326,-216 703.7674,-216 703.7674,-252"/>
<text text-anchor="middle" x="613" y="-229.8" font-family="Times,serif" font-size="14.00" fill="#000000">ShippingAddressComponent </text>
</g>
<!-- ShippingAddressModule&#45;&gt;ShippingAddressComponent  -->
<g id="edge8" class="edge">
<title>ShippingAddressModule&#45;&gt;ShippingAddressComponent </title>
<path fill="none" stroke="#000000" stroke-dasharray="5,2" d="M613,-187.1061C613,-187.1061 613,-205.991 613,-205.991"/>
<polygon fill="#000000" stroke="#000000" points="609.5001,-205.9909 613,-215.991 616.5001,-205.991 609.5001,-205.9909"/>
</g>
<!-- AddressFormModule -->
<g id="node3" class="node">
<title>AddressFormModule</title>
<polygon fill="#8dd3c7" stroke="#000000" points="992.7548,-122 989.7548,-126 968.7548,-126 965.7548,-122 857.2452,-122 857.2452,-86 992.7548,-86 992.7548,-122"/>
<text text-anchor="middle" x="925" y="-99.8" font-family="Times,serif" font-size="14.00" fill="#000000">AddressFormModule</text>
</g>
<!-- AddressFormModule&#45;&gt;ShippingAddressModule -->
<g id="edge2" class="edge">
<title>AddressFormModule&#45;&gt;ShippingAddressModule</title>
<path fill="none" stroke="#000000" d="M925,-122.1061C925,-141.3391 925,-169 925,-169 925,-169 701.3281,-169 701.3281,-169"/>
<polygon fill="#000000" stroke="#000000" points="701.3281,-165.5001 691.3281,-169 701.328,-172.5001 701.3281,-165.5001"/>
</g>
<!-- CardModule -->
<g id="node4" class="node">
<title>CardModule</title>
<polygon fill="#8dd3c7" stroke="#000000" points="839.2619,-122 836.2619,-126 815.2619,-126 812.2619,-122 752.7381,-122 752.7381,-86 839.2619,-86 839.2619,-122"/>
<text text-anchor="middle" x="796" y="-99.8" font-family="Times,serif" font-size="14.00" fill="#000000">CardModule</text>
</g>
<!-- CardModule&#45;&gt;ShippingAddressModule -->
<g id="edge3" class="edge">
<title>CardModule&#45;&gt;ShippingAddressModule</title>
<path fill="none" stroke="#000000" d="M796,-122.027C796,-138.3976 796,-160 796,-160 796,-160 701.1393,-160 701.1393,-160"/>
<polygon fill="#000000" stroke="#000000" points="701.1393,-156.5001 691.1393,-160 701.1393,-163.5001 701.1393,-156.5001"/>
</g>
<!-- CheckoutProgressMobileBottomModule -->
<g id="node5" class="node">
<title>CheckoutProgressMobileBottomModule</title>
<polygon fill="#8dd3c7" stroke="#000000" points="734.8626,-122 731.8626,-126 710.8626,-126 707.8626,-122 491.1374,-122 491.1374,-86 734.8626,-86 734.8626,-122"/>
<text text-anchor="middle" x="613" y="-99.8" font-family="Times,serif" font-size="14.00" fill="#000000">CheckoutProgressMobileBottomModule</text>
</g>
<!-- CheckoutProgressMobileBottomModule&#45;&gt;ShippingAddressModule -->
<g id="edge4" class="edge">
<title>CheckoutProgressMobileBottomModule&#45;&gt;ShippingAddressModule</title>
<path fill="none" stroke="#000000" d="M613,-122.1061C613,-122.1061 613,-140.991 613,-140.991"/>
<polygon fill="#000000" stroke="#000000" points="609.5001,-140.9909 613,-150.991 616.5001,-140.991 609.5001,-140.9909"/>
</g>
<!-- CheckoutProgressMobileTopModule -->
<g id="node6" class="node">
<title>CheckoutProgressMobileTopModule</title>
<polygon fill="#8dd3c7" stroke="#000000" points="473.4072,-122 470.4072,-126 449.4072,-126 446.4072,-122 248.5928,-122 248.5928,-86 473.4072,-86 473.4072,-122"/>
<text text-anchor="middle" x="361" y="-99.8" font-family="Times,serif" font-size="14.00" fill="#000000">CheckoutProgressMobileTopModule</text>
</g>
<!-- CheckoutProgressMobileTopModule&#45;&gt;ShippingAddressModule -->
<g id="edge5" class="edge">
<title>CheckoutProgressMobileTopModule&#45;&gt;ShippingAddressModule</title>
<path fill="none" stroke="#000000" d="M361,-122.027C361,-138.3976 361,-160 361,-160 361,-160 524.9914,-160 524.9914,-160"/>
<polygon fill="#000000" stroke="#000000" points="524.9914,-163.5001 534.9914,-160 524.9914,-156.5001 524.9914,-163.5001"/>
</g>
<!-- I18nModule -->
<g id="node7" class="node">
<title>I18nModule</title>
<polygon fill="#8dd3c7" stroke="#000000" points="230.7107,-122 227.7107,-126 206.7107,-126 203.7107,-122 145.2893,-122 145.2893,-86 230.7107,-86 230.7107,-122"/>
<text text-anchor="middle" x="188" y="-99.8" font-family="Times,serif" font-size="14.00" fill="#000000">I18nModule</text>
</g>
<!-- I18nModule&#45;&gt;ShippingAddressModule -->
<g id="edge6" class="edge">
<title>I18nModule&#45;&gt;ShippingAddressModule</title>
<path fill="none" stroke="#000000" d="M188,-122.1061C188,-141.3391 188,-169 188,-169 188,-169 524.5532,-169 524.5532,-169"/>
<polygon fill="#000000" stroke="#000000" points="524.5532,-172.5001 534.5532,-169 524.5531,-165.5001 524.5532,-172.5001"/>
</g>
<!-- SpinnerModule -->
<g id="node8" class="node">
<title>SpinnerModule</title>
<polygon fill="#8dd3c7" stroke="#000000" points="127.5982,-122 124.5982,-126 103.5982,-126 100.5982,-122 24.4018,-122 24.4018,-86 127.5982,-86 127.5982,-122"/>
<text text-anchor="middle" x="76" y="-99.8" font-family="Times,serif" font-size="14.00" fill="#000000">SpinnerModule</text>
</g>
<!-- SpinnerModule&#45;&gt;ShippingAddressModule -->
<g id="edge7" class="edge">
<title>SpinnerModule&#45;&gt;ShippingAddressModule</title>
<path fill="none" stroke="#000000" d="M76,-122.2921C76,-144.2057 76,-178 76,-178 76,-178 524.9156,-178 524.9156,-178"/>
<polygon fill="#000000" stroke="#000000" points="524.9156,-181.5001 534.9156,-178 524.9156,-174.5001 524.9156,-181.5001"/>
</g>
</g>
</svg>
