<?xml version="1.0" encoding="UTF-8" standalone="no"?>
<!DOCTYPE svg PUBLIC "-//W3C//DTD SVG 1.1//EN"
 "http://www.w3.org/Graphics/SVG/1.1/DTD/svg11.dtd">
<!-- Generated by graphviz version 2.47.3 (20210619.1520)
 -->
<!-- Title: dependencies Pages: 1 -->
<svg width="986pt" height="247pt"
 viewBox="0.00 0.00 986.00 246.80" xmlns="http://www.w3.org/2000/svg" xmlns:xlink="http://www.w3.org/1999/xlink">
<g id="graph0" class="graph" transform="scale(1 1) rotate(0) translate(4 242.8)">
<title>dependencies</title>
<polygon fill="white" stroke="transparent" points="-4,4 -4,-242.8 982,-242.8 982,4 -4,4"/>
<text text-anchor="middle" x="489" y="-8.2" font-family="sans-serif" font-size="14.00">dependencies</text>
<g id="clust1" class="cluster">
<title>cluster_FormModule</title>
<polygon fill="none" stroke="black" stroke-dasharray="1,5" points="8,-32.8 8,-230.8 970,-230.8 970,-32.8 8,-32.8"/>
</g>
<g id="clust4" class="cluster">
<title>cluster_FormModule_imports</title>
<polygon fill="none" stroke="black" points="324,-40.8 324,-92.8 962,-92.8 962,-40.8 324,-40.8"/>
</g>
<g id="clust2" class="cluster">
<title>cluster_FormModule_declarations</title>
<polygon fill="none" stroke="black" points="188,-40.8 188,-92.8 316,-92.8 316,-40.8 188,-40.8"/>
</g>
<g id="clust5" class="cluster">
<title>cluster_FormModule_exports</title>
<polygon fill="none" stroke="black" points="466,-170.8 466,-222.8 598,-222.8 598,-170.8 466,-170.8"/>
</g>
<g id="clust7" class="cluster">
<title>cluster_FormModule_providers</title>
<polygon fill="none" stroke="black" points="16,-40.8 16,-92.8 180,-92.8 180,-40.8 16,-40.8"/>
</g>
<!-- FormComponent -->
<g id="node1" class="node">
<title>FormComponent</title>
<polygon fill="#ffffb3" stroke="black" points="307.67,-84.8 196.33,-84.8 196.33,-48.8 307.67,-48.8 307.67,-84.8"/>
<text text-anchor="middle" x="252" y="-62.6" font-family="Times,serif" font-size="14.00">FormComponent</text>
</g>
<!-- FormModule -->
<g id="node2" class="node">
<title>FormModule</title>
<polygon fill="#8dd3c7" stroke="black" points="576.88,-149.8 573.88,-153.8 552.88,-153.8 549.88,-149.8 487.12,-149.8 487.12,-113.8 576.88,-113.8 576.88,-149.8"/>
<text text-anchor="middle" x="532" y="-127.6" font-family="Times,serif" font-size="14.00">FormModule</text>
</g>
<!-- FormComponent&#45;&gt;FormModule -->
<g id="edge1" class="edge">
<title>FormComponent&#45;&gt;FormModule</title>
<path fill="none" stroke="black" d="M252,-84.91C252,-104.14 252,-131.8 252,-131.8 252,-131.8 477.01,-131.8 477.01,-131.8"/>
<polygon fill="black" stroke="black" points="477.01,-135.3 487.01,-131.8 477.01,-128.3 477.01,-135.3"/>
</g>
<!-- FormComponent  -->
<g id="node8" class="node">
<title>FormComponent </title>
<polygon fill="#fb8072" stroke="black" points="589.67,-214.8 474.33,-214.8 474.33,-178.8 589.67,-178.8 589.67,-214.8"/>
<text text-anchor="middle" x="532" y="-192.6" font-family="Times,serif" font-size="14.00">FormComponent </text>
</g>
<!-- FormModule&#45;&gt;FormComponent  -->
<g id="edge7" class="edge">
<title>FormModule&#45;&gt;FormComponent </title>
<path fill="none" stroke="black" stroke-dasharray="5,2" d="M532,-149.91C532,-149.91 532,-168.79 532,-168.79"/>
<polygon fill="black" stroke="black" points="528.5,-168.79 532,-178.79 535.5,-168.79 528.5,-168.79"/>
</g>
<!-- CardModule -->
<g id="node3" class="node">
<title>CardModule</title>
<polygon fill="#8dd3c7" stroke="black" points="954.26,-84.8 951.26,-88.8 930.26,-88.8 927.26,-84.8 867.74,-84.8 867.74,-48.8 954.26,-48.8 954.26,-84.8"/>
<text text-anchor="middle" x="911" y="-62.6" font-family="Times,serif" font-size="14.00">CardModule</text>
</g>
<!-- CardModule&#45;&gt;FormModule -->
<g id="edge2" class="edge">
<title>CardModule&#45;&gt;FormModule</title>
<path fill="none" stroke="black" d="M911,-85.09C911,-107.01 911,-140.8 911,-140.8 911,-140.8 586.96,-140.8 586.96,-140.8"/>
<polygon fill="black" stroke="black" points="586.96,-137.3 576.96,-140.8 586.96,-144.3 586.96,-137.3"/>
</g>
<!-- I18nModule -->
<g id="node4" class="node">
<title>I18nModule</title>
<polygon fill="#8dd3c7" stroke="black" points="849.71,-84.8 846.71,-88.8 825.71,-88.8 822.71,-84.8 764.29,-84.8 764.29,-48.8 849.71,-48.8 849.71,-84.8"/>
<text text-anchor="middle" x="807" y="-62.6" font-family="Times,serif" font-size="14.00">I18nModule</text>
</g>
<!-- I18nModule&#45;&gt;FormModule -->
<g id="edge3" class="edge">
<title>I18nModule&#45;&gt;FormModule</title>
<path fill="none" stroke="black" d="M807,-84.91C807,-104.14 807,-131.8 807,-131.8 807,-131.8 587.1,-131.8 587.1,-131.8"/>
<polygon fill="black" stroke="black" points="587.1,-128.3 577.1,-131.8 587.1,-135.3 587.1,-128.3"/>
</g>
<!-- ItemActiveModule -->
<g id="node5" class="node">
<title>ItemActiveModule</title>
<polygon fill="#8dd3c7" stroke="black" points="746.02,-84.8 743.02,-88.8 722.02,-88.8 719.02,-84.8 623.98,-84.8 623.98,-48.8 746.02,-48.8 746.02,-84.8"/>
<text text-anchor="middle" x="685" y="-62.6" font-family="Times,serif" font-size="14.00">ItemActiveModule</text>
</g>
<!-- ItemActiveModule&#45;&gt;FormModule -->
<g id="edge4" class="edge">
<title>ItemActiveModule&#45;&gt;FormModule</title>
<path fill="none" stroke="black" d="M685,-84.83C685,-101.2 685,-122.8 685,-122.8 685,-122.8 587.08,-122.8 587.08,-122.8"/>
<polygon fill="black" stroke="black" points="587.08,-119.3 577.08,-122.8 587.08,-126.3 587.08,-119.3"/>
</g>
<!-- KeyboardFocusModule -->
<g id="node6" class="node">
<title>KeyboardFocusModule</title>
<polygon fill="#8dd3c7" stroke="black" points="606.19,-84.8 603.19,-88.8 582.19,-88.8 579.19,-84.8 457.81,-84.8 457.81,-48.8 606.19,-48.8 606.19,-84.8"/>
<text text-anchor="middle" x="532" y="-62.6" font-family="Times,serif" font-size="14.00">KeyboardFocusModule</text>
</g>
<!-- KeyboardFocusModule&#45;&gt;FormModule -->
<g id="edge5" class="edge">
<title>KeyboardFocusModule&#45;&gt;FormModule</title>
<path fill="none" stroke="black" d="M532,-84.91C532,-84.91 532,-103.79 532,-103.79"/>
<polygon fill="black" stroke="black" points="528.5,-103.79 532,-113.79 535.5,-103.79 528.5,-103.79"/>
</g>
<!-- MessageModule -->
<g id="node7" class="node">
<title>MessageModule</title>
<polygon fill="#8dd3c7" stroke="black" points="440.03,-84.8 437.03,-88.8 416.03,-88.8 413.03,-84.8 331.97,-84.8 331.97,-48.8 440.03,-48.8 440.03,-84.8"/>
<text text-anchor="middle" x="386" y="-62.6" font-family="Times,serif" font-size="14.00">MessageModule</text>
</g>
<!-- MessageModule&#45;&gt;FormModule -->
<g id="edge6" class="edge">
<title>MessageModule&#45;&gt;FormModule</title>
<path fill="none" stroke="black" d="M386,-84.83C386,-101.2 386,-122.8 386,-122.8 386,-122.8 477,-122.8 477,-122.8"/>
<polygon fill="black" stroke="black" points="477,-126.3 487,-122.8 477,-119.3 477,-126.3"/>
</g>
<!-- MessageService -->
<g id="node9" class="node">
<title>MessageService</title>
<ellipse fill="#fdb462" stroke="black" cx="98" cy="-66.8" rx="73.55" ry="18"/>
<text text-anchor="middle" x="98" y="-62.6" font-family="Times,serif" font-size="14.00">MessageService</text>
</g>
<!-- MessageService&#45;&gt;FormModule -->
<g id="edge8" class="edge">
<title>MessageService&#45;&gt;FormModule</title>
<path fill="none" stroke="black" d="M98,-85.09C98,-107.01 98,-140.8 98,-140.8 98,-140.8 476.78,-140.8 476.78,-140.8"/>
<polygon fill="black" stroke="black" points="476.78,-144.3 486.78,-140.8 476.78,-137.3 476.78,-144.3"/>
</g>
</g>
</svg>
