<?xml version="1.0" encoding="UTF-8" standalone="no"?>
<!DOCTYPE svg PUBLIC "-//W3C//DTD SVG 1.1//EN"
 "http://www.w3.org/Graphics/SVG/1.1/DTD/svg11.dtd">
<!-- Generated by graphviz version 2.40.1 (20161225.0304)
 -->
<!-- Title: dependencies Pages: 1 -->
<svg width="821pt" height="284pt"
 viewBox="0.00 0.00 821.00 284.00" xmlns="http://www.w3.org/2000/svg" xmlns:xlink="http://www.w3.org/1999/xlink">
<g id="graph0" class="graph" transform="scale(1 1) rotate(0) translate(4 280)">
<title>dependencies</title>
<polygon fill="#ffffff" stroke="transparent" points="-4,4 -4,-280 817,-280 817,4 -4,4"/>
<text text-anchor="start" x="385.5091" y="-42.4" font-family="sans-serif" font-weight="bold" font-size="14.00" fill="#000000">Legend</text>
<polygon fill="#ffffb3" stroke="transparent" points="172.5,-10 172.5,-30 192.5,-30 192.5,-10 172.5,-10"/>
<text text-anchor="start" x="196.129" y="-15.4" font-family="sans-serif" font-size="14.00" fill="#000000"> &#160;Declarations</text>
<polygon fill="#8dd3c7" stroke="transparent" points="285.5,-10 285.5,-30 305.5,-30 305.5,-10 285.5,-10"/>
<text text-anchor="start" x="309.2251" y="-15.4" font-family="sans-serif" font-size="14.00" fill="#000000"> &#160;Module</text>
<polygon fill="#80b1d3" stroke="transparent" points="371.5,-10 371.5,-30 391.5,-30 391.5,-10 371.5,-10"/>
<text text-anchor="start" x="395.2812" y="-15.4" font-family="sans-serif" font-size="14.00" fill="#000000"> &#160;Bootstrap</text>
<polygon fill="#fdb462" stroke="transparent" points="468.5,-10 468.5,-30 488.5,-30 488.5,-10 468.5,-10"/>
<text text-anchor="start" x="492.1732" y="-15.4" font-family="sans-serif" font-size="14.00" fill="#000000"> &#160;Providers</text>
<polygon fill="#fb8072" stroke="transparent" points="564.5,-10 564.5,-30 584.5,-30 584.5,-10 564.5,-10"/>
<text text-anchor="start" x="588.2258" y="-15.4" font-family="sans-serif" font-size="14.00" fill="#000000"> &#160;Exports</text>
<g id="clust1" class="cluster">
<title>cluster_FormModule</title>
<polygon fill="none" stroke="#000000" stroke-dasharray="1,5" points="8,-70 8,-268 805,-268 805,-70 8,-70"/>
</g>
<g id="clust2" class="cluster">
<title>cluster_FormModule_declarations</title>
<polygon fill="none" stroke="#000000" points="669,-78 669,-130 797,-130 797,-78 669,-78"/>
</g>
<g id="clust4" class="cluster">
<title>cluster_FormModule_imports</title>
<polygon fill="none" stroke="#000000" points="188,-78 188,-130 661,-130 661,-78 188,-78"/>
</g>
<g id="clust5" class="cluster">
<title>cluster_FormModule_exports</title>
<polygon fill="none" stroke="#000000" points="379,-208 379,-260 511,-260 511,-208 379,-208"/>
</g>
<g id="clust7" class="cluster">
<title>cluster_FormModule_providers</title>
<polygon fill="none" stroke="#000000" points="16,-78 16,-130 180,-130 180,-78 16,-78"/>
</g>
<!-- FormComponent -->
<g id="node1" class="node">
<title>FormComponent</title>
<polygon fill="#ffffb3" stroke="#000000" points="788.6667,-122 677.3333,-122 677.3333,-86 788.6667,-86 788.6667,-122"/>
<text text-anchor="middle" x="733" y="-99.8" font-family="Times,serif" font-size="14.00" fill="#000000">FormComponent</text>
</g>
<!-- FormModule -->
<g id="node2" class="node">
<title>FormModule</title>
<polygon fill="#8dd3c7" stroke="#000000" points="489.8837,-187 486.8837,-191 465.8837,-191 462.8837,-187 400.1163,-187 400.1163,-151 489.8837,-151 489.8837,-187"/>
<text text-anchor="middle" x="445" y="-164.8" font-family="Times,serif" font-size="14.00" fill="#000000">FormModule</text>
</g>
<!-- FormComponent&#45;&gt;FormModule -->
<g id="edge1" class="edge">
<title>FormComponent&#45;&gt;FormModule</title>
<path fill="none" stroke="#000000" d="M733,-122.2843C733,-143.3211 733,-175 733,-175 733,-175 500,-175 500,-175"/>
<polygon fill="#000000" stroke="#000000" points="500,-171.5001 490,-175 500,-178.5001 500,-171.5001"/>
</g>
<!-- FormComponent  -->
<g id="node7" class="node">
<title>FormComponent </title>
<polygon fill="#fb8072" stroke="#000000" points="502.6663,-252 387.3337,-252 387.3337,-216 502.6663,-216 502.6663,-252"/>
<text text-anchor="middle" x="445" y="-229.8" font-family="Times,serif" font-size="14.00" fill="#000000">FormComponent </text>
</g>
<!-- FormModule&#45;&gt;FormComponent  -->
<g id="edge6" class="edge">
<title>FormModule&#45;&gt;FormComponent </title>
<path fill="none" stroke="#000000" stroke-dasharray="5,2" d="M445,-187.1061C445,-187.1061 445,-205.991 445,-205.991"/>
<polygon fill="#000000" stroke="#000000" points="441.5001,-205.9909 445,-215.991 448.5001,-205.991 441.5001,-205.9909"/>
</g>
<!-- CardModule -->
<g id="node3" class="node">
<title>CardModule</title>
<polygon fill="#8dd3c7" stroke="#000000" points="653.2619,-122 650.2619,-126 629.2619,-126 626.2619,-122 566.7381,-122 566.7381,-86 653.2619,-86 653.2619,-122"/>
<text text-anchor="middle" x="610" y="-99.8" font-family="Times,serif" font-size="14.00" fill="#000000">CardModule</text>
</g>
<!-- CardModule&#45;&gt;FormModule -->
<g id="edge2" class="edge">
<title>CardModule&#45;&gt;FormModule</title>
<path fill="none" stroke="#000000" d="M610,-122.0225C610,-139.3734 610,-163 610,-163 610,-163 500.087,-163 500.087,-163"/>
<polygon fill="#000000" stroke="#000000" points="500.087,-159.5001 490.087,-163 500.0869,-166.5001 500.087,-159.5001"/>
</g>
<!-- I18nModule -->
<g id="node4" class="node">
<title>I18nModule</title>
<polygon fill="#8dd3c7" stroke="#000000" points="548.7107,-122 545.7107,-126 524.7107,-126 521.7107,-122 463.2893,-122 463.2893,-86 548.7107,-86 548.7107,-122"/>
<text text-anchor="middle" x="506" y="-99.8" font-family="Times,serif" font-size="14.00" fill="#000000">I18nModule</text>
</g>
<!-- I18nModule&#45;&gt;FormModule -->
<g id="edge3" class="edge">
<title>I18nModule&#45;&gt;FormModule</title>
<path fill="none" stroke="#000000" d="M476.6683,-122.1061C476.6683,-122.1061 476.6683,-140.991 476.6683,-140.991"/>
<polygon fill="#000000" stroke="#000000" points="473.1684,-140.9909 476.6683,-150.991 480.1684,-140.991 473.1684,-140.9909"/>
</g>
<!-- ItemActiveModule -->
<g id="node5" class="node">
<title>ItemActiveModule</title>
<polygon fill="#8dd3c7" stroke="#000000" points="445.0241,-122 442.0241,-126 421.0241,-126 418.0241,-122 322.9759,-122 322.9759,-86 445.0241,-86 445.0241,-122"/>
<text text-anchor="middle" x="384" y="-99.8" font-family="Times,serif" font-size="14.00" fill="#000000">ItemActiveModule</text>
</g>
<!-- ItemActiveModule&#45;&gt;FormModule -->
<g id="edge4" class="edge">
<title>ItemActiveModule&#45;&gt;FormModule</title>
<path fill="none" stroke="#000000" d="M422.6599,-122.1061C422.6599,-122.1061 422.6599,-140.991 422.6599,-140.991"/>
<polygon fill="#000000" stroke="#000000" points="419.16,-140.9909 422.6599,-150.991 426.16,-140.991 419.16,-140.9909"/>
</g>
<!-- MessageModule -->
<g id="node6" class="node">
<title>MessageModule</title>
<polygon fill="#8dd3c7" stroke="#000000" points="304.0284,-122 301.0284,-126 280.0284,-126 277.0284,-122 195.9716,-122 195.9716,-86 304.0284,-86 304.0284,-122"/>
<text text-anchor="middle" x="250" y="-99.8" font-family="Times,serif" font-size="14.00" fill="#000000">MessageModule</text>
</g>
<!-- MessageModule&#45;&gt;FormModule -->
<g id="edge5" class="edge">
<title>MessageModule&#45;&gt;FormModule</title>
<path fill="none" stroke="#000000" d="M250,-122.0225C250,-139.3734 250,-163 250,-163 250,-163 389.7729,-163 389.7729,-163"/>
<polygon fill="#000000" stroke="#000000" points="389.773,-166.5001 399.7729,-163 389.7729,-159.5001 389.773,-166.5001"/>
</g>
<!-- MessageService -->
<g id="node8" class="node">
<title>MessageService</title>
<ellipse fill="#fdb462" stroke="#000000" cx="98" cy="-104" rx="73.5522" ry="18"/>
<text text-anchor="middle" x="98" y="-99.8" font-family="Times,serif" font-size="14.00" fill="#000000">MessageService</text>
</g>
<!-- MessageService&#45;&gt;FormModule -->
<g id="edge7" class="edge">
<title>MessageService&#45;&gt;FormModule</title>
<path fill="none" stroke="#000000" d="M98,-122.2843C98,-143.3211 98,-175 98,-175 98,-175 389.9915,-175 389.9915,-175"/>
<polygon fill="#000000" stroke="#000000" points="389.9916,-178.5001 399.9915,-175 389.9915,-171.5001 389.9916,-178.5001"/>
</g>
</g>
</svg>
