<?xml version="1.0" encoding="UTF-8" standalone="no"?>
<!DOCTYPE svg PUBLIC "-//W3C//DTD SVG 1.1//EN"
 "http://www.w3.org/Graphics/SVG/1.1/DTD/svg11.dtd">
<!-- Generated by graphviz version 2.47.0 (20210316.0004)
 -->
<!-- Title: dependencies Pages: 1 -->
<svg width="596pt" height="284pt"
 viewBox="0.00 0.00 596.00 284.00" xmlns="http://www.w3.org/2000/svg" xmlns:xlink="http://www.w3.org/1999/xlink">
<g id="graph0" class="graph" transform="scale(1 1) rotate(0) translate(4 280)">
<title>dependencies</title>
<polygon fill="white" stroke="transparent" points="-4,4 -4,-280 592,-280 592,4 -4,4"/>
<text text-anchor="start" x="273.01" y="-42.4" font-family="sans-serif" font-weight="bold" font-size="14.00">Legend</text>
<polygon fill="#ffffb3" stroke="transparent" points="60,-10 60,-30 80,-30 80,-10 60,-10"/>
<text text-anchor="start" x="83.63" y="-15.4" font-family="sans-serif" font-size="14.00"> &#160;Declarations</text>
<polygon fill="#8dd3c7" stroke="transparent" points="173,-10 173,-30 193,-30 193,-10 173,-10"/>
<text text-anchor="start" x="196.73" y="-15.4" font-family="sans-serif" font-size="14.00"> &#160;Module</text>
<polygon fill="#80b1d3" stroke="transparent" points="259,-10 259,-30 279,-30 279,-10 259,-10"/>
<text text-anchor="start" x="282.78" y="-15.4" font-family="sans-serif" font-size="14.00"> &#160;Bootstrap</text>
<polygon fill="#fdb462" stroke="transparent" points="356,-10 356,-30 376,-30 376,-10 356,-10"/>
<text text-anchor="start" x="379.67" y="-15.4" font-family="sans-serif" font-size="14.00"> &#160;Providers</text>
<polygon fill="#fb8072" stroke="transparent" points="452,-10 452,-30 472,-30 472,-10 452,-10"/>
<text text-anchor="start" x="475.73" y="-15.4" font-family="sans-serif" font-size="14.00"> &#160;Exports</text>
<g id="clust1" class="cluster">
<title>cluster_ConfiguratorAttributeCheckboxModule</title>
<polygon fill="none" stroke="black" stroke-dasharray="1,5" points="8,-70 8,-268 580,-268 580,-70 8,-70"/>
</g>
<g id="clust5" class="cluster">
<title>cluster_ConfiguratorAttributeCheckboxModule_exports</title>
<polygon fill="none" stroke="black" points="245,-208 245,-260 527,-260 527,-208 245,-208"/>
</g>
<g id="clust4" class="cluster">
<title>cluster_ConfiguratorAttributeCheckboxModule_imports</title>
<polygon fill="none" stroke="black" points="304,-78 304,-130 572,-130 572,-78 304,-78"/>
</g>
<g id="clust2" class="cluster">
<title>cluster_ConfiguratorAttributeCheckboxModule_declarations</title>
<polygon fill="none" stroke="black" points="16,-78 16,-130 296,-130 296,-78 16,-78"/>
</g>
<!-- ConfiguratorAttributeCheckBoxComponent -->
<g id="node1" class="node">
<title>ConfiguratorAttributeCheckBoxComponent</title>
<polygon fill="#ffffb3" stroke="black" points="287.79,-122 24.21,-122 24.21,-86 287.79,-86 287.79,-122"/>
<text text-anchor="middle" x="156" y="-99.8" font-family="Times,serif" font-size="14.00">ConfiguratorAttributeCheckBoxComponent</text>
</g>
<!-- ConfiguratorAttributeCheckboxModule -->
<g id="node2" class="node">
<title>ConfiguratorAttributeCheckboxModule</title>
<polygon fill="#8dd3c7" stroke="black" points="505.67,-187 502.67,-191 481.67,-191 478.67,-187 266.33,-187 266.33,-151 505.67,-151 505.67,-187"/>
<text text-anchor="middle" x="386" y="-164.8" font-family="Times,serif" font-size="14.00">ConfiguratorAttributeCheckboxModule</text>
</g>
<!-- ConfiguratorAttributeCheckBoxComponent&#45;&gt;ConfiguratorAttributeCheckboxModule -->
<g id="edge1" class="edge">
<title>ConfiguratorAttributeCheckBoxComponent&#45;&gt;ConfiguratorAttributeCheckboxModule</title>
<path fill="none" stroke="black" d="M277.03,-122.11C277.03,-122.11 277.03,-140.99 277.03,-140.99"/>
<polygon fill="black" stroke="black" points="273.53,-140.99 277.03,-150.99 280.53,-140.99 273.53,-140.99"/>
</g>
<!-- ConfiguratorAttributeCheckBoxComponent  -->
<g id="node5" class="node">
<title>ConfiguratorAttributeCheckBoxComponent </title>
<polygon fill="#fb8072" stroke="black" points="519.29,-252 252.71,-252 252.71,-216 519.29,-216 519.29,-252"/>
<text text-anchor="middle" x="386" y="-229.8" font-family="Times,serif" font-size="14.00">ConfiguratorAttributeCheckBoxComponent </text>
</g>
<!-- ConfiguratorAttributeCheckboxModule&#45;&gt;ConfiguratorAttributeCheckBoxComponent  -->
<g id="edge4" class="edge">
<title>ConfiguratorAttributeCheckboxModule&#45;&gt;ConfiguratorAttributeCheckBoxComponent </title>
<path fill="none" stroke="black" stroke-dasharray="5,2" d="M386,-187.11C386,-187.11 386,-205.99 386,-205.99"/>
<polygon fill="black" stroke="black" points="382.5,-205.99 386,-215.99 389.5,-205.99 382.5,-205.99"/>
</g>
<!-- I18nModule -->
<g id="node3" class="node">
<title>I18nModule</title>
<polygon fill="#8dd3c7" stroke="black" points="563.71,-122 560.71,-126 539.71,-126 536.71,-122 478.29,-122 478.29,-86 563.71,-86 563.71,-122"/>
<text text-anchor="middle" x="521" y="-99.8" font-family="Times,serif" font-size="14.00">I18nModule</text>
</g>
<!-- I18nModule&#45;&gt;ConfiguratorAttributeCheckboxModule -->
<g id="edge2" class="edge">
<title>I18nModule&#45;&gt;ConfiguratorAttributeCheckboxModule</title>
<path fill="none" stroke="black" d="M491.99,-122.11C491.99,-122.11 491.99,-140.99 491.99,-140.99"/>
<polygon fill="black" stroke="black" points="488.49,-140.99 491.99,-150.99 495.49,-140.99 488.49,-140.99"/>
</g>
<!-- KeyboardFocusModule -->
<g id="node4" class="node">
<title>KeyboardFocusModule</title>
<polygon fill="#8dd3c7" stroke="black" points="460.19,-122 457.19,-126 436.19,-126 433.19,-122 311.81,-122 311.81,-86 460.19,-86 460.19,-122"/>
<text text-anchor="middle" x="386" y="-99.8" font-family="Times,serif" font-size="14.00">KeyboardFocusModule</text>
</g>
<!-- KeyboardFocusModule&#45;&gt;ConfiguratorAttributeCheckboxModule -->
<g id="edge3" class="edge">
<title>KeyboardFocusModule&#45;&gt;ConfiguratorAttributeCheckboxModule</title>
<path fill="none" stroke="black" d="M386,-122.11C386,-122.11 386,-140.99 386,-140.99"/>
<polygon fill="black" stroke="black" points="382.5,-140.99 386,-150.99 389.5,-140.99 382.5,-140.99"/>
</g>
</g>
</svg>
