<?xml version="1.0" encoding="UTF-8" standalone="no"?>
<!DOCTYPE svg PUBLIC "-//W3C//DTD SVG 1.1//EN"
 "http://www.w3.org/Graphics/SVG/1.1/DTD/svg11.dtd">
<!-- Generated by graphviz version 2.47.3 (20210619.1520)
 -->
<!-- Title: dependencies Pages: 1 -->
<svg width="938pt" height="247pt"
 viewBox="0.00 0.00 938.00 246.80" xmlns="http://www.w3.org/2000/svg" xmlns:xlink="http://www.w3.org/1999/xlink">
<g id="graph0" class="graph" transform="scale(1 1) rotate(0) translate(4 242.8)">
<title>dependencies</title>
<polygon fill="white" stroke="transparent" points="-4,4 -4,-242.8 934,-242.8 934,4 -4,4"/>
<text text-anchor="middle" x="465" y="-8.2" font-family="sans-serif" font-size="14.00">dependencies</text>
<g id="clust1" class="cluster">
<title>cluster_ConfiguratorAttributeCheckboxModule</title>
<polygon fill="none" stroke="black" stroke-dasharray="1,5" points="8,-32.8 8,-230.8 922,-230.8 922,-32.8 8,-32.8"/>
</g>
<g id="clust4" class="cluster">
<title>cluster_ConfiguratorAttributeCheckboxModule_imports</title>
<polygon fill="none" stroke="black" points="304,-40.8 304,-92.8 914,-92.8 914,-40.8 304,-40.8"/>
</g>
<g id="clust5" class="cluster">
<title>cluster_ConfiguratorAttributeCheckboxModule_exports</title>
<polygon fill="none" stroke="black" points="380,-170.8 380,-222.8 662,-222.8 662,-170.8 380,-170.8"/>
</g>
<g id="clust2" class="cluster">
<title>cluster_ConfiguratorAttributeCheckboxModule_declarations</title>
<polygon fill="none" stroke="black" points="16,-40.8 16,-92.8 296,-92.8 296,-40.8 16,-40.8"/>
</g>
<!-- ConfiguratorAttributeCheckBoxComponent -->
<g id="node1" class="node">
<title>ConfiguratorAttributeCheckBoxComponent</title>
<polygon fill="#ffffb3" stroke="black" points="287.79,-84.8 24.21,-84.8 24.21,-48.8 287.79,-48.8 287.79,-84.8"/>
<text text-anchor="middle" x="156" y="-62.6" font-family="Times,serif" font-size="14.00">ConfiguratorAttributeCheckBoxComponent</text>
</g>
<!-- ConfiguratorAttributeCheckboxModule -->
<g id="node2" class="node">
<title>ConfiguratorAttributeCheckboxModule</title>
<polygon fill="#8dd3c7" stroke="black" points="640.67,-149.8 637.67,-153.8 616.67,-153.8 613.67,-149.8 401.33,-149.8 401.33,-113.8 640.67,-113.8 640.67,-149.8"/>
<text text-anchor="middle" x="521" y="-127.6" font-family="Times,serif" font-size="14.00">ConfiguratorAttributeCheckboxModule</text>
</g>
<!-- ConfiguratorAttributeCheckBoxComponent&#45;&gt;ConfiguratorAttributeCheckboxModule -->
<g id="edge1" class="edge">
<title>ConfiguratorAttributeCheckBoxComponent&#45;&gt;ConfiguratorAttributeCheckboxModule</title>
<path fill="none" stroke="black" d="M156,-84.91C156,-104.14 156,-131.8 156,-131.8 156,-131.8 391.23,-131.8 391.23,-131.8"/>
<polygon fill="black" stroke="black" points="391.23,-135.3 401.23,-131.8 391.23,-128.3 391.23,-135.3"/>
</g>
<!-- ConfiguratorAttributeCheckBoxComponent  -->
<g id="node7" class="node">
<title>ConfiguratorAttributeCheckBoxComponent </title>
<polygon fill="#fb8072" stroke="black" points="654.29,-214.8 387.71,-214.8 387.71,-178.8 654.29,-178.8 654.29,-214.8"/>
<text text-anchor="middle" x="521" y="-192.6" font-family="Times,serif" font-size="14.00">ConfiguratorAttributeCheckBoxComponent </text>
</g>
<!-- ConfiguratorAttributeCheckboxModule&#45;&gt;ConfiguratorAttributeCheckBoxComponent  -->
<g id="edge6" class="edge">
<title>ConfiguratorAttributeCheckboxModule&#45;&gt;ConfiguratorAttributeCheckBoxComponent </title>
<path fill="none" stroke="black" stroke-dasharray="5,2" d="M521,-149.91C521,-149.91 521,-168.79 521,-168.79"/>
<polygon fill="black" stroke="black" points="517.5,-168.79 521,-178.79 524.5,-168.79 517.5,-168.79"/>
</g>
<!-- ConfiguratorPriceModule -->
<g id="node3" class="node">
<title>ConfiguratorPriceModule</title>
<polygon fill="#8dd3c7" stroke="black" points="906.13,-84.8 903.13,-88.8 882.13,-88.8 879.13,-84.8 745.87,-84.8 745.87,-48.8 906.13,-48.8 906.13,-84.8"/>
<text text-anchor="middle" x="826" y="-62.6" font-family="Times,serif" font-size="14.00">ConfiguratorPriceModule</text>
</g>
<!-- ConfiguratorPriceModule&#45;&gt;ConfiguratorAttributeCheckboxModule -->
<g id="edge2" class="edge">
<title>ConfiguratorPriceModule&#45;&gt;ConfiguratorAttributeCheckboxModule</title>
<path fill="none" stroke="black" d="M826,-84.91C826,-104.14 826,-131.8 826,-131.8 826,-131.8 650.67,-131.8 650.67,-131.8"/>
<polygon fill="black" stroke="black" points="650.67,-128.3 640.67,-131.8 650.67,-135.3 650.67,-128.3"/>
</g>
<!-- FeaturesConfigModule -->
<g id="node4" class="node">
<title>FeaturesConfigModule</title>
<polygon fill="#8dd3c7" stroke="black" points="727.86,-84.8 724.86,-88.8 703.86,-88.8 700.86,-84.8 582.14,-84.8 582.14,-48.8 727.86,-48.8 727.86,-84.8"/>
<text text-anchor="middle" x="655" y="-62.6" font-family="Times,serif" font-size="14.00">FeaturesConfigModule</text>
</g>
<!-- FeaturesConfigModule&#45;&gt;ConfiguratorAttributeCheckboxModule -->
<g id="edge3" class="edge">
<title>FeaturesConfigModule&#45;&gt;ConfiguratorAttributeCheckboxModule</title>
<path fill="none" stroke="black" d="M611.33,-84.91C611.33,-84.91 611.33,-103.79 611.33,-103.79"/>
<polygon fill="black" stroke="black" points="607.83,-103.79 611.33,-113.79 614.83,-103.79 607.83,-103.79"/>
</g>
<!-- I18nModule -->
<g id="node5" class="node">
<title>I18nModule</title>
<polygon fill="#8dd3c7" stroke="black" points="563.71,-84.8 560.71,-88.8 539.71,-88.8 536.71,-84.8 478.29,-84.8 478.29,-48.8 563.71,-48.8 563.71,-84.8"/>
<text text-anchor="middle" x="521" y="-62.6" font-family="Times,serif" font-size="14.00">I18nModule</text>
</g>
<!-- I18nModule&#45;&gt;ConfiguratorAttributeCheckboxModule -->
<g id="edge4" class="edge">
<title>I18nModule&#45;&gt;ConfiguratorAttributeCheckboxModule</title>
<path fill="none" stroke="black" d="M521,-84.91C521,-84.91 521,-103.79 521,-103.79"/>
<polygon fill="black" stroke="black" points="517.5,-103.79 521,-113.79 524.5,-103.79 517.5,-103.79"/>
</g>
<!-- KeyboardFocusModule -->
<g id="node6" class="node">
<title>KeyboardFocusModule</title>
<polygon fill="#8dd3c7" stroke="black" points="460.19,-84.8 457.19,-88.8 436.19,-88.8 433.19,-84.8 311.81,-84.8 311.81,-48.8 460.19,-48.8 460.19,-84.8"/>
<text text-anchor="middle" x="386" y="-62.6" font-family="Times,serif" font-size="14.00">KeyboardFocusModule</text>
</g>
<!-- KeyboardFocusModule&#45;&gt;ConfiguratorAttributeCheckboxModule -->
<g id="edge5" class="edge">
<title>KeyboardFocusModule&#45;&gt;ConfiguratorAttributeCheckboxModule</title>
<path fill="none" stroke="black" d="M430.75,-84.91C430.75,-84.91 430.75,-103.79 430.75,-103.79"/>
<polygon fill="black" stroke="black" points="427.25,-103.79 430.75,-113.79 434.25,-103.79 427.25,-103.79"/>
</g>
</g>
</svg>
