<?xml version="1.0" encoding="UTF-8" standalone="no"?>
<!DOCTYPE svg PUBLIC "-//W3C//DTD SVG 1.1//EN"
 "http://www.w3.org/Graphics/SVG/1.1/DTD/svg11.dtd">
<!-- Generated by graphviz version 2.40.1 (20161225.0304)
 -->
<!-- Title: dependencies Pages: 1 -->
<svg width="596pt" height="284pt"
 viewBox="0.00 0.00 596.00 284.00" xmlns="http://www.w3.org/2000/svg" xmlns:xlink="http://www.w3.org/1999/xlink">
<g id="graph0" class="graph" transform="scale(1 1) rotate(0) translate(4 280)">
<title>dependencies</title>
<polygon fill="#ffffff" stroke="transparent" points="-4,4 -4,-280 592,-280 592,4 -4,4"/>
<text text-anchor="start" x="273.0091" y="-42.4" font-family="sans-serif" font-weight="bold" font-size="14.00" fill="#000000">Legend</text>
<polygon fill="#ffffb3" stroke="transparent" points="60,-10 60,-30 80,-30 80,-10 60,-10"/>
<text text-anchor="start" x="83.629" y="-15.4" font-family="sans-serif" font-size="14.00" fill="#000000"> &#160;Declarations</text>
<polygon fill="#8dd3c7" stroke="transparent" points="173,-10 173,-30 193,-30 193,-10 173,-10"/>
<text text-anchor="start" x="196.7251" y="-15.4" font-family="sans-serif" font-size="14.00" fill="#000000"> &#160;Module</text>
<polygon fill="#80b1d3" stroke="transparent" points="259,-10 259,-30 279,-30 279,-10 259,-10"/>
<text text-anchor="start" x="282.7812" y="-15.4" font-family="sans-serif" font-size="14.00" fill="#000000"> &#160;Bootstrap</text>
<polygon fill="#fdb462" stroke="transparent" points="356,-10 356,-30 376,-30 376,-10 356,-10"/>
<text text-anchor="start" x="379.6732" y="-15.4" font-family="sans-serif" font-size="14.00" fill="#000000"> &#160;Providers</text>
<polygon fill="#fb8072" stroke="transparent" points="452,-10 452,-30 472,-30 472,-10 452,-10"/>
<text text-anchor="start" x="475.7258" y="-15.4" font-family="sans-serif" font-size="14.00" fill="#000000"> &#160;Exports</text>
<g id="clust1" class="cluster">
<title>cluster_ConfiguratorAttributeCheckboxModule</title>
<polygon fill="none" stroke="#000000" stroke-dasharray="1,5" points="8,-70 8,-268 580,-268 580,-70 8,-70"/>
</g>
<g id="clust2" class="cluster">
<title>cluster_ConfiguratorAttributeCheckboxModule_declarations</title>
<polygon fill="none" stroke="#000000" points="292,-78 292,-130 572,-130 572,-78 292,-78"/>
</g>
<g id="clust4" class="cluster">
<title>cluster_ConfiguratorAttributeCheckboxModule_imports</title>
<polygon fill="none" stroke="#000000" points="16,-78 16,-130 284,-130 284,-78 16,-78"/>
</g>
<g id="clust5" class="cluster">
<title>cluster_ConfiguratorAttributeCheckboxModule_exports</title>
<polygon fill="none" stroke="#000000" points="92,-208 92,-260 374,-260 374,-208 92,-208"/>
</g>
<!-- ConfiguratorAttributeCheckBoxComponent -->
<g id="node1" class="node">
<title>ConfiguratorAttributeCheckBoxComponent</title>
<polygon fill="#ffffb3" stroke="#000000" points="563.7934,-122 300.2066,-122 300.2066,-86 563.7934,-86 563.7934,-122"/>
<text text-anchor="middle" x="432" y="-99.8" font-family="Times,serif" font-size="14.00" fill="#000000">ConfiguratorAttributeCheckBoxComponent</text>
</g>
<!-- ConfiguratorAttributeCheckboxModule -->
<g id="node2" class="node">
<title>ConfiguratorAttributeCheckboxModule</title>
<polygon fill="#8dd3c7" stroke="#000000" points="352.6741,-187 349.6741,-191 328.6741,-191 325.6741,-187 113.3259,-187 113.3259,-151 352.6741,-151 352.6741,-187"/>
<text text-anchor="middle" x="233" y="-164.8" font-family="Times,serif" font-size="14.00" fill="#000000">ConfiguratorAttributeCheckboxModule</text>
</g>
<!-- ConfiguratorAttributeCheckBoxComponent&#45;&gt;ConfiguratorAttributeCheckboxModule -->
<g id="edge1" class="edge">
<title>ConfiguratorAttributeCheckBoxComponent&#45;&gt;ConfiguratorAttributeCheckboxModule</title>
<path fill="none" stroke="#000000" d="M326.4702,-122.1061C326.4702,-122.1061 326.4702,-140.991 326.4702,-140.991"/>
<polygon fill="#000000" stroke="#000000" points="322.9703,-140.9909 326.4702,-150.991 329.9703,-140.991 322.9703,-140.9909"/>
</g>
<!-- ConfiguratorAttributeCheckBoxComponent  -->
<g id="node5" class="node">
<title>ConfiguratorAttributeCheckBoxComponent </title>
<polygon fill="#fb8072" stroke="#000000" points="366.2933,-252 99.7067,-252 99.7067,-216 366.2933,-216 366.2933,-252"/>
<text text-anchor="middle" x="233" y="-229.8" font-family="Times,serif" font-size="14.00" fill="#000000">ConfiguratorAttributeCheckBoxComponent </text>
</g>
<!-- ConfiguratorAttributeCheckboxModule&#45;&gt;ConfiguratorAttributeCheckBoxComponent  -->
<g id="edge4" class="edge">
<title>ConfiguratorAttributeCheckboxModule&#45;&gt;ConfiguratorAttributeCheckBoxComponent </title>
<path fill="none" stroke="#000000" stroke-dasharray="5,2" d="M233,-187.1061C233,-187.1061 233,-205.991 233,-205.991"/>
<polygon fill="#000000" stroke="#000000" points="229.5001,-205.9909 233,-215.991 236.5001,-205.991 229.5001,-205.9909"/>
</g>
<!-- I18nModule -->
<g id="node3" class="node">
<title>I18nModule</title>
<polygon fill="#8dd3c7" stroke="#000000" points="275.7107,-122 272.7107,-126 251.7107,-126 248.7107,-122 190.2893,-122 190.2893,-86 275.7107,-86 275.7107,-122"/>
<text text-anchor="middle" x="233" y="-99.8" font-family="Times,serif" font-size="14.00" fill="#000000">I18nModule</text>
</g>
<!-- I18nModule&#45;&gt;ConfiguratorAttributeCheckboxModule -->
<g id="edge2" class="edge">
<title>I18nModule&#45;&gt;ConfiguratorAttributeCheckboxModule</title>
<path fill="none" stroke="#000000" d="M233,-122.1061C233,-122.1061 233,-140.991 233,-140.991"/>
<polygon fill="#000000" stroke="#000000" points="229.5001,-140.9909 233,-150.991 236.5001,-140.991 229.5001,-140.9909"/>
</g>
<!-- KeyboardFocusModule -->
<g id="node4" class="node">
<title>KeyboardFocusModule</title>
<polygon fill="#8dd3c7" stroke="#000000" points="172.1881,-122 169.1881,-126 148.1881,-126 145.1881,-122 23.8119,-122 23.8119,-86 172.1881,-86 172.1881,-122"/>
<text text-anchor="middle" x="98" y="-99.8" font-family="Times,serif" font-size="14.00" fill="#000000">KeyboardFocusModule</text>
</g>
<!-- KeyboardFocusModule&#45;&gt;ConfiguratorAttributeCheckboxModule -->
<g id="edge3" class="edge">
<title>KeyboardFocusModule&#45;&gt;ConfiguratorAttributeCheckboxModule</title>
<path fill="none" stroke="#000000" d="M142.7535,-122.1061C142.7535,-122.1061 142.7535,-140.991 142.7535,-140.991"/>
<polygon fill="#000000" stroke="#000000" points="139.2536,-140.9909 142.7535,-150.991 146.2536,-140.991 139.2536,-140.9909"/>
</g>
</g>
</svg>
