<?xml version="1.0" encoding="UTF-8" standalone="no"?>
<!DOCTYPE svg PUBLIC "-//W3C//DTD SVG 1.1//EN"
 "http://www.w3.org/Graphics/SVG/1.1/DTD/svg11.dtd">
<!-- Generated by graphviz version 2.47.3 (20210619.1520)
 -->
<!-- Title: dependencies Pages: 1 -->
<svg width="938pt" height="247pt"
 viewBox="0.00 0.00 938.00 246.80" xmlns="http://www.w3.org/2000/svg" xmlns:xlink="http://www.w3.org/1999/xlink">
<g id="graph0" class="graph" transform="scale(1 1) rotate(0) translate(4 242.8)">
<title>dependencies</title>
<polygon fill="white" stroke="transparent" points="-4,4 -4,-242.8 934,-242.8 934,4 -4,4"/>
<text text-anchor="middle" x="465" y="-8.2" font-family="sans-serif" font-size="14.00">dependencies</text>
<g id="clust1" class="cluster">
<title>cluster_ConfiguratorAttributeCheckboxModule</title>
<polygon fill="none" stroke="black" stroke-dasharray="1,5" points="8,-32.8 8,-230.8 922,-230.8 922,-32.8 8,-32.8"/>
</g>
<g id="clust2" class="cluster">
<title>cluster_ConfiguratorAttributeCheckboxModule_declarations</title>
<polygon fill="none" stroke="black" points="634,-40.8 634,-92.8 914,-92.8 914,-40.8 634,-40.8"/>
</g>
<g id="clust4" class="cluster">
<title>cluster_ConfiguratorAttributeCheckboxModule_imports</title>
<polygon fill="none" stroke="black" points="16,-40.8 16,-92.8 626,-92.8 626,-40.8 16,-40.8"/>
</g>
<g id="clust5" class="cluster">
<title>cluster_ConfiguratorAttributeCheckboxModule_exports</title>
<polygon fill="none" stroke="black" points="226,-170.8 226,-222.8 508,-222.8 508,-170.8 226,-170.8"/>
</g>
<!-- ConfiguratorAttributeCheckBoxComponent -->
<g id="node1" class="node">
<title>ConfiguratorAttributeCheckBoxComponent</title>
<polygon fill="#ffffb3" stroke="black" points="905.79,-84.8 642.21,-84.8 642.21,-48.8 905.79,-48.8 905.79,-84.8"/>
<text text-anchor="middle" x="774" y="-62.6" font-family="Times,serif" font-size="14.00">ConfiguratorAttributeCheckBoxComponent</text>
</g>
<!-- ConfiguratorAttributeCheckboxModule -->
<g id="node2" class="node">
<title>ConfiguratorAttributeCheckboxModule</title>
<polygon fill="#8dd3c7" stroke="black" points="486.67,-149.8 483.67,-153.8 462.67,-153.8 459.67,-149.8 247.33,-149.8 247.33,-113.8 486.67,-113.8 486.67,-149.8"/>
<text text-anchor="middle" x="367" y="-127.6" font-family="Times,serif" font-size="14.00">ConfiguratorAttributeCheckboxModule</text>
</g>
<!-- ConfiguratorAttributeCheckBoxComponent&#45;&gt;ConfiguratorAttributeCheckboxModule -->
<g id="edge1" class="edge">
<title>ConfiguratorAttributeCheckBoxComponent&#45;&gt;ConfiguratorAttributeCheckboxModule</title>
<path fill="none" stroke="black" d="M774,-84.91C774,-104.14 774,-131.8 774,-131.8 774,-131.8 496.64,-131.8 496.64,-131.8"/>
<polygon fill="black" stroke="black" points="496.64,-128.3 486.64,-131.8 496.64,-135.3 496.64,-128.3"/>
</g>
<!-- ConfiguratorAttributeCheckBoxComponent  -->
<g id="node7" class="node">
<title>ConfiguratorAttributeCheckBoxComponent </title>
<polygon fill="#fb8072" stroke="black" points="500.29,-214.8 233.71,-214.8 233.71,-178.8 500.29,-178.8 500.29,-214.8"/>
<text text-anchor="middle" x="367" y="-192.6" font-family="Times,serif" font-size="14.00">ConfiguratorAttributeCheckBoxComponent </text>
</g>
<!-- ConfiguratorAttributeCheckboxModule&#45;&gt;ConfiguratorAttributeCheckBoxComponent  -->
<g id="edge6" class="edge">
<title>ConfiguratorAttributeCheckboxModule&#45;&gt;ConfiguratorAttributeCheckBoxComponent </title>
<path fill="none" stroke="black" stroke-dasharray="5,2" d="M367,-149.91C367,-149.91 367,-168.79 367,-168.79"/>
<polygon fill="black" stroke="black" points="363.5,-168.79 367,-178.79 370.5,-168.79 363.5,-168.79"/>
</g>
<!-- ConfiguratorPriceModule -->
<g id="node3" class="node">
<title>ConfiguratorPriceModule</title>
<polygon fill="#8dd3c7" stroke="black" points="618.13,-84.8 615.13,-88.8 594.13,-88.8 591.13,-84.8 457.87,-84.8 457.87,-48.8 618.13,-48.8 618.13,-84.8"/>
<text text-anchor="middle" x="538" y="-62.6" font-family="Times,serif" font-size="14.00">ConfiguratorPriceModule</text>
</g>
<!-- ConfiguratorPriceModule&#45;&gt;ConfiguratorAttributeCheckboxModule -->
<g id="edge2" class="edge">
<title>ConfiguratorPriceModule&#45;&gt;ConfiguratorAttributeCheckboxModule</title>
<path fill="none" stroke="black" d="M472.14,-84.91C472.14,-84.91 472.14,-103.79 472.14,-103.79"/>
<polygon fill="black" stroke="black" points="468.64,-103.79 472.14,-113.79 475.64,-103.79 468.64,-103.79"/>
</g>
<!-- FeaturesConfigModule -->
<g id="node4" class="node">
<title>FeaturesConfigModule</title>
<polygon fill="#8dd3c7" stroke="black" points="439.86,-84.8 436.86,-88.8 415.86,-88.8 412.86,-84.8 294.14,-84.8 294.14,-48.8 439.86,-48.8 439.86,-84.8"/>
<text text-anchor="middle" x="367" y="-62.6" font-family="Times,serif" font-size="14.00">FeaturesConfigModule</text>
</g>
<!-- FeaturesConfigModule&#45;&gt;ConfiguratorAttributeCheckboxModule -->
<g id="edge3" class="edge">
<title>FeaturesConfigModule&#45;&gt;ConfiguratorAttributeCheckboxModule</title>
<path fill="none" stroke="black" d="M367,-84.91C367,-84.91 367,-103.79 367,-103.79"/>
<polygon fill="black" stroke="black" points="363.5,-103.79 367,-113.79 370.5,-103.79 363.5,-103.79"/>
</g>
<!-- I18nModule -->
<g id="node5" class="node">
<title>I18nModule</title>
<polygon fill="#8dd3c7" stroke="black" points="275.71,-84.8 272.71,-88.8 251.71,-88.8 248.71,-84.8 190.29,-84.8 190.29,-48.8 275.71,-48.8 275.71,-84.8"/>
<text text-anchor="middle" x="233" y="-62.6" font-family="Times,serif" font-size="14.00">I18nModule</text>
</g>
<!-- I18nModule&#45;&gt;ConfiguratorAttributeCheckboxModule -->
<g id="edge4" class="edge">
<title>I18nModule&#45;&gt;ConfiguratorAttributeCheckboxModule</title>
<path fill="none" stroke="black" d="M261.51,-84.91C261.51,-84.91 261.51,-103.79 261.51,-103.79"/>
<polygon fill="black" stroke="black" points="258.01,-103.79 261.51,-113.79 265.01,-103.79 258.01,-103.79"/>
</g>
<!-- KeyboardFocusModule -->
<g id="node6" class="node">
<title>KeyboardFocusModule</title>
<polygon fill="#8dd3c7" stroke="black" points="172.19,-84.8 169.19,-88.8 148.19,-88.8 145.19,-84.8 23.81,-84.8 23.81,-48.8 172.19,-48.8 172.19,-84.8"/>
<text text-anchor="middle" x="98" y="-62.6" font-family="Times,serif" font-size="14.00">KeyboardFocusModule</text>
</g>
<!-- KeyboardFocusModule&#45;&gt;ConfiguratorAttributeCheckboxModule -->
<g id="edge5" class="edge">
<title>KeyboardFocusModule&#45;&gt;ConfiguratorAttributeCheckboxModule</title>
<path fill="none" stroke="black" d="M98,-84.91C98,-104.14 98,-131.8 98,-131.8 98,-131.8 237.05,-131.8 237.05,-131.8"/>
<polygon fill="black" stroke="black" points="237.05,-135.3 247.05,-131.8 237.05,-128.3 237.05,-135.3"/>
</g>
</g>
</svg>
