<?xml version="1.0" encoding="UTF-8" standalone="no"?>
<!DOCTYPE svg PUBLIC "-//W3C//DTD SVG 1.1//EN"
 "http://www.w3.org/Graphics/SVG/1.1/DTD/svg11.dtd">
<!-- Generated by graphviz version 2.47.3 (20210619.1520)
 -->
<!-- Title: dependencies Pages: 1 -->
<svg width="1046pt" height="247pt"
 viewBox="0.00 0.00 1046.00 246.80" xmlns="http://www.w3.org/2000/svg" xmlns:xlink="http://www.w3.org/1999/xlink">
<g id="graph0" class="graph" transform="scale(1 1) rotate(0) translate(4 242.8)">
<title>dependencies</title>
<polygon fill="white" stroke="transparent" points="-4,4 -4,-242.8 1042,-242.8 1042,4 -4,4"/>
<text text-anchor="middle" x="519" y="-8.2" font-family="sans-serif" font-size="14.00">dependencies</text>
<g id="clust1" class="cluster">
<title>cluster_ConfiguratorAttributeCheckboxListModule</title>
<polygon fill="none" stroke="black" stroke-dasharray="1,5" points="8,-32.8 8,-230.8 1030,-230.8 1030,-32.8 8,-32.8"/>
</g>
<g id="clust2" class="cluster">
<title>cluster_ConfiguratorAttributeCheckboxListModule_declarations</title>
<polygon fill="none" stroke="black" points="720,-40.8 720,-92.8 1022,-92.8 1022,-40.8 720,-40.8"/>
</g>
<g id="clust4" class="cluster">
<title>cluster_ConfiguratorAttributeCheckboxListModule_imports</title>
<polygon fill="none" stroke="black" points="16,-40.8 16,-92.8 712,-92.8 712,-40.8 16,-40.8"/>
</g>
<g id="clust5" class="cluster">
<title>cluster_ConfiguratorAttributeCheckboxListModule_exports</title>
<polygon fill="none" stroke="black" points="222,-170.8 222,-222.8 526,-222.8 526,-170.8 222,-170.8"/>
</g>
<!-- ConfiguratorAttributeCheckBoxListComponent -->
<g id="node1" class="node">
<title>ConfiguratorAttributeCheckBoxListComponent</title>
<polygon fill="#ffffb3" stroke="black" points="1013.57,-84.8 728.43,-84.8 728.43,-48.8 1013.57,-48.8 1013.57,-84.8"/>
<text text-anchor="middle" x="871" y="-62.6" font-family="Times,serif" font-size="14.00">ConfiguratorAttributeCheckBoxListComponent</text>
</g>
<!-- ConfiguratorAttributeCheckboxListModule -->
<g id="node2" class="node">
<title>ConfiguratorAttributeCheckboxListModule</title>
<polygon fill="#8dd3c7" stroke="black" points="504.45,-149.8 501.45,-153.8 480.45,-153.8 477.45,-149.8 243.55,-149.8 243.55,-113.8 504.45,-113.8 504.45,-149.8"/>
<text text-anchor="middle" x="374" y="-127.6" font-family="Times,serif" font-size="14.00">ConfiguratorAttributeCheckboxListModule</text>
</g>
<!-- ConfiguratorAttributeCheckBoxListComponent&#45;&gt;ConfiguratorAttributeCheckboxListModule -->
<g id="edge1" class="edge">
<title>ConfiguratorAttributeCheckBoxListComponent&#45;&gt;ConfiguratorAttributeCheckboxListModule</title>
<path fill="none" stroke="black" d="M871,-84.91C871,-104.14 871,-131.8 871,-131.8 871,-131.8 514.58,-131.8 514.58,-131.8"/>
<polygon fill="black" stroke="black" points="514.58,-128.3 504.58,-131.8 514.58,-135.3 514.58,-128.3"/>
</g>
<!-- ConfiguratorAttributeCheckBoxListComponent  -->
<g id="node7" class="node">
<title>ConfiguratorAttributeCheckBoxListComponent </title>
<polygon fill="#fb8072" stroke="black" points="518.07,-214.8 229.93,-214.8 229.93,-178.8 518.07,-178.8 518.07,-214.8"/>
<text text-anchor="middle" x="374" y="-192.6" font-family="Times,serif" font-size="14.00">ConfiguratorAttributeCheckBoxListComponent </text>
</g>
<!-- ConfiguratorAttributeCheckboxListModule&#45;&gt;ConfiguratorAttributeCheckBoxListComponent  -->
<g id="edge6" class="edge">
<title>ConfiguratorAttributeCheckboxListModule&#45;&gt;ConfiguratorAttributeCheckBoxListComponent </title>
<path fill="none" stroke="black" stroke-dasharray="5,2" d="M374,-149.91C374,-149.91 374,-168.79 374,-168.79"/>
<polygon fill="black" stroke="black" points="370.5,-168.79 374,-178.79 377.5,-168.79 370.5,-168.79"/>
</g>
<!-- ConfiguratorAttributeQuantityModule -->
<g id="node3" class="node">
<title>ConfiguratorAttributeQuantityModule</title>
<polygon fill="#8dd3c7" stroke="black" points="703.9,-84.8 700.9,-88.8 679.9,-88.8 676.9,-84.8 472.1,-84.8 472.1,-48.8 703.9,-48.8 703.9,-84.8"/>
<text text-anchor="middle" x="588" y="-62.6" font-family="Times,serif" font-size="14.00">ConfiguratorAttributeQuantityModule</text>
</g>
<!-- ConfiguratorAttributeQuantityModule&#45;&gt;ConfiguratorAttributeCheckboxListModule -->
<g id="edge2" class="edge">
<title>ConfiguratorAttributeQuantityModule&#45;&gt;ConfiguratorAttributeCheckboxListModule</title>
<path fill="none" stroke="black" d="M488.39,-84.91C488.39,-84.91 488.39,-103.79 488.39,-103.79"/>
<polygon fill="black" stroke="black" points="484.89,-103.79 488.39,-113.79 491.89,-103.79 484.89,-103.79"/>
</g>
<!-- ConfiguratorPriceModule -->
<g id="node4" class="node">
<title>ConfiguratorPriceModule</title>
<polygon fill="#8dd3c7" stroke="black" points="454.13,-84.8 451.13,-88.8 430.13,-88.8 427.13,-84.8 293.87,-84.8 293.87,-48.8 454.13,-48.8 454.13,-84.8"/>
<text text-anchor="middle" x="374" y="-62.6" font-family="Times,serif" font-size="14.00">ConfiguratorPriceModule</text>
</g>
<!-- ConfiguratorPriceModule&#45;&gt;ConfiguratorAttributeCheckboxListModule -->
<g id="edge3" class="edge">
<title>ConfiguratorPriceModule&#45;&gt;ConfiguratorAttributeCheckboxListModule</title>
<path fill="none" stroke="black" d="M374,-84.91C374,-84.91 374,-103.79 374,-103.79"/>
<polygon fill="black" stroke="black" points="370.5,-103.79 374,-113.79 377.5,-103.79 370.5,-103.79"/>
</g>
<!-- I18nModule -->
<g id="node5" class="node">
<title>I18nModule</title>
<polygon fill="#8dd3c7" stroke="black" points="275.71,-84.8 272.71,-88.8 251.71,-88.8 248.71,-84.8 190.29,-84.8 190.29,-48.8 275.71,-48.8 275.71,-84.8"/>
<text text-anchor="middle" x="233" y="-62.6" font-family="Times,serif" font-size="14.00">I18nModule</text>
</g>
<!-- I18nModule&#45;&gt;ConfiguratorAttributeCheckboxListModule -->
<g id="edge4" class="edge">
<title>I18nModule&#45;&gt;ConfiguratorAttributeCheckboxListModule</title>
<path fill="none" stroke="black" d="M259.56,-84.91C259.56,-84.91 259.56,-103.79 259.56,-103.79"/>
<polygon fill="black" stroke="black" points="256.06,-103.79 259.56,-113.79 263.06,-103.79 256.06,-103.79"/>
</g>
<!-- KeyboardFocusModule -->
<g id="node6" class="node">
<title>KeyboardFocusModule</title>
<polygon fill="#8dd3c7" stroke="black" points="172.19,-84.8 169.19,-88.8 148.19,-88.8 145.19,-84.8 23.81,-84.8 23.81,-48.8 172.19,-48.8 172.19,-84.8"/>
<text text-anchor="middle" x="98" y="-62.6" font-family="Times,serif" font-size="14.00">KeyboardFocusModule</text>
</g>
<!-- KeyboardFocusModule&#45;&gt;ConfiguratorAttributeCheckboxListModule -->
<g id="edge5" class="edge">
<title>KeyboardFocusModule&#45;&gt;ConfiguratorAttributeCheckboxListModule</title>
<path fill="none" stroke="black" d="M98,-84.91C98,-104.14 98,-131.8 98,-131.8 98,-131.8 233.27,-131.8 233.27,-131.8"/>
<polygon fill="black" stroke="black" points="233.27,-135.3 243.27,-131.8 233.27,-128.3 233.27,-135.3"/>
</g>
</g>
</svg>
