<?xml version="1.0" encoding="UTF-8" standalone="no"?>
<!DOCTYPE svg PUBLIC "-//W3C//DTD SVG 1.1//EN"
 "http://www.w3.org/Graphics/SVG/1.1/DTD/svg11.dtd">
<!-- Generated by graphviz version 2.40.1 (20161225.0304)
 -->
<!-- Title: dependencies Pages: 1 -->
<svg width="618pt" height="284pt"
 viewBox="0.00 0.00 618.00 284.00" xmlns="http://www.w3.org/2000/svg" xmlns:xlink="http://www.w3.org/1999/xlink">
<g id="graph0" class="graph" transform="scale(1 1) rotate(0) translate(4 280)">
<title>dependencies</title>
<polygon fill="#ffffff" stroke="transparent" points="-4,4 -4,-280 614,-280 614,4 -4,4"/>
<text text-anchor="start" x="284.0091" y="-42.4" font-family="sans-serif" font-weight="bold" font-size="14.00" fill="#000000">Legend</text>
<polygon fill="#ffffb3" stroke="transparent" points="71,-10 71,-30 91,-30 91,-10 71,-10"/>
<text text-anchor="start" x="94.629" y="-15.4" font-family="sans-serif" font-size="14.00" fill="#000000"> &#160;Declarations</text>
<polygon fill="#8dd3c7" stroke="transparent" points="184,-10 184,-30 204,-30 204,-10 184,-10"/>
<text text-anchor="start" x="207.7251" y="-15.4" font-family="sans-serif" font-size="14.00" fill="#000000"> &#160;Module</text>
<polygon fill="#80b1d3" stroke="transparent" points="270,-10 270,-30 290,-30 290,-10 270,-10"/>
<text text-anchor="start" x="293.7812" y="-15.4" font-family="sans-serif" font-size="14.00" fill="#000000"> &#160;Bootstrap</text>
<polygon fill="#fdb462" stroke="transparent" points="367,-10 367,-30 387,-30 387,-10 367,-10"/>
<text text-anchor="start" x="390.6732" y="-15.4" font-family="sans-serif" font-size="14.00" fill="#000000"> &#160;Providers</text>
<polygon fill="#fb8072" stroke="transparent" points="463,-10 463,-30 483,-30 483,-10 463,-10"/>
<text text-anchor="start" x="486.7258" y="-15.4" font-family="sans-serif" font-size="14.00" fill="#000000"> &#160;Exports</text>
<g id="clust1" class="cluster">
<title>cluster_ConfiguratorAttributeCheckboxListModule</title>
<polygon fill="none" stroke="#000000" stroke-dasharray="1,5" points="8,-70 8,-268 602,-268 602,-70 8,-70"/>
</g>
<g id="clust2" class="cluster">
<title>cluster_ConfiguratorAttributeCheckboxListModule_declarations</title>
<polygon fill="none" stroke="#000000" points="292,-78 292,-130 594,-130 594,-78 292,-78"/>
</g>
<g id="clust4" class="cluster">
<title>cluster_ConfiguratorAttributeCheckboxListModule_imports</title>
<polygon fill="none" stroke="#000000" points="16,-78 16,-130 284,-130 284,-78 16,-78"/>
</g>
<g id="clust5" class="cluster">
<title>cluster_ConfiguratorAttributeCheckboxListModule_exports</title>
<polygon fill="none" stroke="#000000" points="81,-208 81,-260 385,-260 385,-208 81,-208"/>
</g>
<!-- ConfiguratorAttributeCheckBoxListComponent -->
<g id="node1" class="node">
<title>ConfiguratorAttributeCheckBoxListComponent</title>
<polygon fill="#ffffb3" stroke="#000000" points="585.5716,-122 300.4284,-122 300.4284,-86 585.5716,-86 585.5716,-122"/>
<text text-anchor="middle" x="443" y="-99.8" font-family="Times,serif" font-size="14.00" fill="#000000">ConfiguratorAttributeCheckBoxListComponent</text>
</g>
<!-- ConfiguratorAttributeCheckboxListModule -->
<g id="node2" class="node">
<title>ConfiguratorAttributeCheckboxListModule</title>
<polygon fill="#8dd3c7" stroke="#000000" points="363.4524,-187 360.4524,-191 339.4524,-191 336.4524,-187 102.5476,-187 102.5476,-151 363.4524,-151 363.4524,-187"/>
<text text-anchor="middle" x="233" y="-164.8" font-family="Times,serif" font-size="14.00" fill="#000000">ConfiguratorAttributeCheckboxListModule</text>
</g>
<!-- ConfiguratorAttributeCheckBoxListComponent&#45;&gt;ConfiguratorAttributeCheckboxListModule -->
<g id="edge1" class="edge">
<title>ConfiguratorAttributeCheckBoxListComponent&#45;&gt;ConfiguratorAttributeCheckboxListModule</title>
<path fill="none" stroke="#000000" d="M331.9702,-122.1061C331.9702,-122.1061 331.9702,-140.991 331.9702,-140.991"/>
<polygon fill="#000000" stroke="#000000" points="328.4703,-140.9909 331.9702,-150.991 335.4703,-140.991 328.4703,-140.9909"/>
</g>
<!-- ConfiguratorAttributeCheckBoxListComponent  -->
<g id="node5" class="node">
<title>ConfiguratorAttributeCheckBoxListComponent </title>
<polygon fill="#fb8072" stroke="#000000" points="377.0719,-252 88.9281,-252 88.9281,-216 377.0719,-216 377.0719,-252"/>
<text text-anchor="middle" x="233" y="-229.8" font-family="Times,serif" font-size="14.00" fill="#000000">ConfiguratorAttributeCheckBoxListComponent </text>
</g>
<!-- ConfiguratorAttributeCheckboxListModule&#45;&gt;ConfiguratorAttributeCheckBoxListComponent  -->
<g id="edge4" class="edge">
<title>ConfiguratorAttributeCheckboxListModule&#45;&gt;ConfiguratorAttributeCheckBoxListComponent </title>
<path fill="none" stroke="#000000" stroke-dasharray="5,2" d="M233,-187.1061C233,-187.1061 233,-205.991 233,-205.991"/>
<polygon fill="#000000" stroke="#000000" points="229.5001,-205.9909 233,-215.991 236.5001,-205.991 229.5001,-205.9909"/>
</g>
<!-- I18nModule -->
<g id="node3" class="node">
<title>I18nModule</title>
<polygon fill="#8dd3c7" stroke="#000000" points="275.7107,-122 272.7107,-126 251.7107,-126 248.7107,-122 190.2893,-122 190.2893,-86 275.7107,-86 275.7107,-122"/>
<text text-anchor="middle" x="233" y="-99.8" font-family="Times,serif" font-size="14.00" fill="#000000">I18nModule</text>
</g>
<!-- I18nModule&#45;&gt;ConfiguratorAttributeCheckboxListModule -->
<g id="edge2" class="edge">
<title>I18nModule&#45;&gt;ConfiguratorAttributeCheckboxListModule</title>
<path fill="none" stroke="#000000" d="M233,-122.1061C233,-122.1061 233,-140.991 233,-140.991"/>
<polygon fill="#000000" stroke="#000000" points="229.5001,-140.9909 233,-150.991 236.5001,-140.991 229.5001,-140.9909"/>
</g>
<!-- KeyboardFocusModule -->
<g id="node4" class="node">
<title>KeyboardFocusModule</title>
<polygon fill="#8dd3c7" stroke="#000000" points="172.1881,-122 169.1881,-126 148.1881,-126 145.1881,-122 23.8119,-122 23.8119,-86 172.1881,-86 172.1881,-122"/>
<text text-anchor="middle" x="98" y="-99.8" font-family="Times,serif" font-size="14.00" fill="#000000">KeyboardFocusModule</text>
</g>
<!-- KeyboardFocusModule&#45;&gt;ConfiguratorAttributeCheckboxListModule -->
<g id="edge3" class="edge">
<title>KeyboardFocusModule&#45;&gt;ConfiguratorAttributeCheckboxListModule</title>
<path fill="none" stroke="#000000" d="M137.3089,-122.1061C137.3089,-122.1061 137.3089,-140.991 137.3089,-140.991"/>
<polygon fill="#000000" stroke="#000000" points="133.809,-140.9909 137.3089,-150.991 140.809,-140.991 133.809,-140.9909"/>
</g>
</g>
</svg>
