<?xml version="1.0" encoding="UTF-8" standalone="no"?>
<!DOCTYPE svg PUBLIC "-//W3C//DTD SVG 1.1//EN"
 "http://www.w3.org/Graphics/SVG/1.1/DTD/svg11.dtd">
<!-- Generated by graphviz version 2.47.3 (20210619.1520)
 -->
<!-- Title: dependencies Pages: 1 -->
<svg width="867pt" height="247pt"
 viewBox="0.00 0.00 867.00 246.80" xmlns="http://www.w3.org/2000/svg" xmlns:xlink="http://www.w3.org/1999/xlink">
<g id="graph0" class="graph" transform="scale(1 1) rotate(0) translate(4 242.8)">
<title>dependencies</title>
<polygon fill="white" stroke="transparent" points="-4,4 -4,-242.8 863,-242.8 863,4 -4,4"/>
<text text-anchor="middle" x="429.5" y="-8.2" font-family="sans-serif" font-size="14.00">dependencies</text>
<g id="clust1" class="cluster">
<title>cluster_ConfiguratorAttributeCheckboxListModule</title>
<polygon fill="none" stroke="black" stroke-dasharray="1,5" points="8,-32.8 8,-230.8 851,-230.8 851,-32.8 8,-32.8"/>
</g>
<g id="clust4" class="cluster">
<title>cluster_ConfiguratorAttributeCheckboxListModule_imports</title>
<polygon fill="none" stroke="black" points="326,-40.8 326,-92.8 843,-92.8 843,-40.8 326,-40.8"/>
</g>
<g id="clust5" class="cluster">
<title>cluster_ConfiguratorAttributeCheckboxListModule_exports</title>
<polygon fill="none" stroke="black" points="323,-170.8 323,-222.8 627,-222.8 627,-170.8 323,-170.8"/>
</g>
<g id="clust2" class="cluster">
<title>cluster_ConfiguratorAttributeCheckboxListModule_declarations</title>
<polygon fill="none" stroke="black" points="16,-40.8 16,-92.8 318,-92.8 318,-40.8 16,-40.8"/>
</g>
<!-- ConfiguratorAttributeCheckBoxListComponent -->
<g id="node1" class="node">
<title>ConfiguratorAttributeCheckBoxListComponent</title>
<polygon fill="#ffffb3" stroke="black" points="309.57,-84.8 24.43,-84.8 24.43,-48.8 309.57,-48.8 309.57,-84.8"/>
<text text-anchor="middle" x="167" y="-62.6" font-family="Times,serif" font-size="14.00">ConfiguratorAttributeCheckBoxListComponent</text>
</g>
<!-- ConfiguratorAttributeCheckboxListModule -->
<g id="node2" class="node">
<title>ConfiguratorAttributeCheckboxListModule</title>
<polygon fill="#8dd3c7" stroke="black" points="605.45,-149.8 602.45,-153.8 581.45,-153.8 578.45,-149.8 344.55,-149.8 344.55,-113.8 605.45,-113.8 605.45,-149.8"/>
<text text-anchor="middle" x="475" y="-127.6" font-family="Times,serif" font-size="14.00">ConfiguratorAttributeCheckboxListModule</text>
</g>
<!-- ConfiguratorAttributeCheckBoxListComponent&#45;&gt;ConfiguratorAttributeCheckboxListModule -->
<g id="edge1" class="edge">
<title>ConfiguratorAttributeCheckBoxListComponent&#45;&gt;ConfiguratorAttributeCheckboxListModule</title>
<path fill="none" stroke="black" d="M167,-84.91C167,-104.14 167,-131.8 167,-131.8 167,-131.8 334.38,-131.8 334.38,-131.8"/>
<polygon fill="black" stroke="black" points="334.38,-135.3 344.38,-131.8 334.38,-128.3 334.38,-135.3"/>
</g>
<!-- ConfiguratorAttributeCheckBoxListComponent  -->
<g id="node6" class="node">
<title>ConfiguratorAttributeCheckBoxListComponent </title>
<polygon fill="#fb8072" stroke="black" points="619.07,-214.8 330.93,-214.8 330.93,-178.8 619.07,-178.8 619.07,-214.8"/>
<text text-anchor="middle" x="475" y="-192.6" font-family="Times,serif" font-size="14.00">ConfiguratorAttributeCheckBoxListComponent </text>
</g>
<!-- ConfiguratorAttributeCheckboxListModule&#45;&gt;ConfiguratorAttributeCheckBoxListComponent  -->
<g id="edge5" class="edge">
<title>ConfiguratorAttributeCheckboxListModule&#45;&gt;ConfiguratorAttributeCheckBoxListComponent </title>
<path fill="none" stroke="black" stroke-dasharray="5,2" d="M475,-149.91C475,-149.91 475,-168.79 475,-168.79"/>
<polygon fill="black" stroke="black" points="471.5,-168.79 475,-178.79 478.5,-168.79 471.5,-168.79"/>
</g>
<!-- ConfiguratorAttributeQuantityModule -->
<g id="node3" class="node">
<title>ConfiguratorAttributeQuantityModule</title>
<polygon fill="#8dd3c7" stroke="black" points="834.9,-84.8 831.9,-88.8 810.9,-88.8 807.9,-84.8 603.1,-84.8 603.1,-48.8 834.9,-48.8 834.9,-84.8"/>
<text text-anchor="middle" x="719" y="-62.6" font-family="Times,serif" font-size="14.00">ConfiguratorAttributeQuantityModule</text>
</g>
<!-- ConfiguratorAttributeQuantityModule&#45;&gt;ConfiguratorAttributeCheckboxListModule -->
<g id="edge2" class="edge">
<title>ConfiguratorAttributeQuantityModule&#45;&gt;ConfiguratorAttributeCheckboxListModule</title>
<path fill="none" stroke="black" d="M612.38,-84.91C612.38,-104.14 612.38,-131.8 612.38,-131.8 612.38,-131.8 611.72,-131.8 611.72,-131.8"/>
<polygon fill="black" stroke="black" points="615.75,-128.3 605.75,-131.8 615.75,-135.3 615.75,-128.3"/>
</g>
<!-- I18nModule -->
<g id="node4" class="node">
<title>I18nModule</title>
<polygon fill="#8dd3c7" stroke="black" points="585.71,-84.8 582.71,-88.8 561.71,-88.8 558.71,-84.8 500.29,-84.8 500.29,-48.8 585.71,-48.8 585.71,-84.8"/>
<text text-anchor="middle" x="543" y="-62.6" font-family="Times,serif" font-size="14.00">I18nModule</text>
</g>
<!-- I18nModule&#45;&gt;ConfiguratorAttributeCheckboxListModule -->
<g id="edge3" class="edge">
<title>I18nModule&#45;&gt;ConfiguratorAttributeCheckboxListModule</title>
<path fill="none" stroke="black" d="M543,-84.91C543,-84.91 543,-103.79 543,-103.79"/>
<polygon fill="black" stroke="black" points="539.5,-103.79 543,-113.79 546.5,-103.79 539.5,-103.79"/>
</g>
<!-- KeyboardFocusModule -->
<g id="node5" class="node">
<title>KeyboardFocusModule</title>
<polygon fill="#8dd3c7" stroke="black" points="482.19,-84.8 479.19,-88.8 458.19,-88.8 455.19,-84.8 333.81,-84.8 333.81,-48.8 482.19,-48.8 482.19,-84.8"/>
<text text-anchor="middle" x="408" y="-62.6" font-family="Times,serif" font-size="14.00">KeyboardFocusModule</text>
</g>
<!-- KeyboardFocusModule&#45;&gt;ConfiguratorAttributeCheckboxListModule -->
<g id="edge4" class="edge">
<title>KeyboardFocusModule&#45;&gt;ConfiguratorAttributeCheckboxListModule</title>
<path fill="none" stroke="black" d="M413.31,-84.91C413.31,-84.91 413.31,-103.79 413.31,-103.79"/>
<polygon fill="black" stroke="black" points="409.81,-103.79 413.31,-113.79 416.81,-103.79 409.81,-103.79"/>
</g>
</g>
</svg>
