<?xml version="1.0" encoding="UTF-8" standalone="no"?>
<!DOCTYPE svg PUBLIC "-//W3C//DTD SVG 1.1//EN"
 "http://www.w3.org/Graphics/SVG/1.1/DTD/svg11.dtd">
<!-- Generated by graphviz version 2.40.1 (20161225.0304)
 -->
<!-- Title: dependencies Pages: 1 -->
<svg width="504pt" height="284pt"
 viewBox="0.00 0.00 504.00 284.00" xmlns="http://www.w3.org/2000/svg" xmlns:xlink="http://www.w3.org/1999/xlink">
<g id="graph0" class="graph" transform="scale(1 1) rotate(0) translate(4 280)">
<title>dependencies</title>
<polygon fill="#ffffff" stroke="transparent" points="-4,4 -4,-280 500,-280 500,4 -4,4"/>
<text text-anchor="start" x="227.0091" y="-42.4" font-family="sans-serif" font-weight="bold" font-size="14.00" fill="#000000">Legend</text>
<polygon fill="#ffffb3" stroke="transparent" points="14,-10 14,-30 34,-30 34,-10 14,-10"/>
<text text-anchor="start" x="37.629" y="-15.4" font-family="sans-serif" font-size="14.00" fill="#000000"> &#160;Declarations</text>
<polygon fill="#8dd3c7" stroke="transparent" points="127,-10 127,-30 147,-30 147,-10 127,-10"/>
<text text-anchor="start" x="150.7251" y="-15.4" font-family="sans-serif" font-size="14.00" fill="#000000"> &#160;Module</text>
<polygon fill="#80b1d3" stroke="transparent" points="213,-10 213,-30 233,-30 233,-10 213,-10"/>
<text text-anchor="start" x="236.7812" y="-15.4" font-family="sans-serif" font-size="14.00" fill="#000000"> &#160;Bootstrap</text>
<polygon fill="#fdb462" stroke="transparent" points="310,-10 310,-30 330,-30 330,-10 310,-10"/>
<text text-anchor="start" x="333.6732" y="-15.4" font-family="sans-serif" font-size="14.00" fill="#000000"> &#160;Providers</text>
<polygon fill="#fb8072" stroke="transparent" points="406,-10 406,-30 426,-30 426,-10 406,-10"/>
<text text-anchor="start" x="429.7258" y="-15.4" font-family="sans-serif" font-size="14.00" fill="#000000"> &#160;Exports</text>
<g id="clust1" class="cluster">
<title>cluster_TableModule</title>
<polygon fill="none" stroke="#000000" stroke-dasharray="1,5" points="64,-70 64,-268 432,-268 432,-70 64,-70"/>
</g>
<g id="clust2" class="cluster">
<title>cluster_TableModule_declarations</title>
<polygon fill="none" stroke="#000000" points="294,-78 294,-130 424,-130 424,-78 294,-78"/>
</g>
<g id="clust4" class="cluster">
<title>cluster_TableModule_imports</title>
<polygon fill="none" stroke="#000000" points="72,-78 72,-130 286,-130 286,-78 72,-78"/>
</g>
<g id="clust5" class="cluster">
<title>cluster_TableModule_exports</title>
<polygon fill="none" stroke="#000000" points="169,-208 169,-260 301,-260 301,-208 169,-208"/>
</g>
<!-- TableComponent -->
<g id="node1" class="node">
<title>TableComponent</title>
<polygon fill="#ffffb3" stroke="#000000" points="415.705,-122 302.295,-122 302.295,-86 415.705,-86 415.705,-122"/>
<text text-anchor="middle" x="359" y="-99.8" font-family="Times,serif" font-size="14.00" fill="#000000">TableComponent</text>
</g>
<!-- TableModule -->
<g id="node2" class="node">
<title>TableModule</title>
<polygon fill="#8dd3c7" stroke="#000000" points="280.9232,-187 277.9232,-191 256.9232,-191 253.9232,-187 189.0768,-187 189.0768,-151 280.9232,-151 280.9232,-187"/>
<text text-anchor="middle" x="235" y="-164.8" font-family="Times,serif" font-size="14.00" fill="#000000">TableModule</text>
</g>
<!-- TableComponent&#45;&gt;TableModule -->
<g id="edge1" class="edge">
<title>TableComponent&#45;&gt;TableModule</title>
<path fill="none" stroke="#000000" d="M359,-122.1061C359,-141.3391 359,-169 359,-169 359,-169 290.8207,-169 290.8207,-169"/>
<polygon fill="#000000" stroke="#000000" points="290.8208,-165.5001 280.8207,-169 290.8207,-172.5001 290.8208,-165.5001"/>
</g>
<!-- TableComponent  -->
<g id="node5" class="node">
<title>TableComponent </title>
<polygon fill="#fb8072" stroke="#000000" points="293.2052,-252 176.7948,-252 176.7948,-216 293.2052,-216 293.2052,-252"/>
<text text-anchor="middle" x="235" y="-229.8" font-family="Times,serif" font-size="14.00" fill="#000000">TableComponent </text>
</g>
<!-- TableModule&#45;&gt;TableComponent  -->
<g id="edge4" class="edge">
<title>TableModule&#45;&gt;TableComponent </title>
<path fill="none" stroke="#000000" stroke-dasharray="5,2" d="M235,-187.1061C235,-187.1061 235,-205.991 235,-205.991"/>
<polygon fill="#000000" stroke="#000000" points="231.5001,-205.9909 235,-215.991 238.5001,-205.991 231.5001,-205.9909"/>
</g>
<!-- I18nModule -->
<g id="node3" class="node">
<title>I18nModule</title>
<polygon fill="#8dd3c7" stroke="#000000" points="277.7107,-122 274.7107,-126 253.7107,-126 250.7107,-122 192.2893,-122 192.2893,-86 277.7107,-86 277.7107,-122"/>
<text text-anchor="middle" x="235" y="-99.8" font-family="Times,serif" font-size="14.00" fill="#000000">I18nModule</text>
</g>
<!-- I18nModule&#45;&gt;TableModule -->
<g id="edge2" class="edge">
<title>I18nModule&#45;&gt;TableModule</title>
<path fill="none" stroke="#000000" d="M235,-122.1061C235,-122.1061 235,-140.991 235,-140.991"/>
<polygon fill="#000000" stroke="#000000" points="231.5001,-140.9909 235,-150.991 238.5001,-140.991 231.5001,-140.9909"/>
</g>
<!-- OutletModule -->
<g id="node4" class="node">
<title>OutletModule</title>
<polygon fill="#8dd3c7" stroke="#000000" points="174.0439,-122 171.0439,-126 150.0439,-126 147.0439,-122 79.9561,-122 79.9561,-86 174.0439,-86 174.0439,-122"/>
<text text-anchor="middle" x="127" y="-99.8" font-family="Times,serif" font-size="14.00" fill="#000000">OutletModule</text>
</g>
<!-- OutletModule&#45;&gt;TableModule -->
<g id="edge3" class="edge">
<title>OutletModule&#45;&gt;TableModule</title>
<path fill="none" stroke="#000000" d="M127,-122.1061C127,-141.3391 127,-169 127,-169 127,-169 179.1983,-169 179.1983,-169"/>
<polygon fill="#000000" stroke="#000000" points="179.1983,-172.5001 189.1983,-169 179.1982,-165.5001 179.1983,-172.5001"/>
</g>
</g>
</svg>
