<?xml version="1.0" encoding="UTF-8" standalone="no"?>
<!DOCTYPE svg PUBLIC "-//W3C//DTD SVG 1.1//EN"
 "http://www.w3.org/Graphics/SVG/1.1/DTD/svg11.dtd">
<!-- Generated by graphviz version 2.44.1 (20200629.0846)
 -->
<!-- Title: dependencies Pages: 1 -->
<svg width="504pt" height="284pt"
 viewBox="0.00 0.00 504.00 284.00" xmlns="http://www.w3.org/2000/svg" xmlns:xlink="http://www.w3.org/1999/xlink">
<g id="graph0" class="graph" transform="scale(1 1) rotate(0) translate(4 280)">
<title>dependencies</title>
<polygon fill="white" stroke="transparent" points="-4,4 -4,-280 500,-280 500,4 -4,4"/>
<text text-anchor="start" x="227.01" y="-42.4" font-family="sans-serif" font-weight="bold" font-size="14.00">Legend</text>
<polygon fill="#ffffb3" stroke="transparent" points="14,-10 14,-30 34,-30 34,-10 14,-10"/>
<text text-anchor="start" x="37.63" y="-15.4" font-family="sans-serif" font-size="14.00"> &#160;Declarations</text>
<polygon fill="#8dd3c7" stroke="transparent" points="127,-10 127,-30 147,-30 147,-10 127,-10"/>
<text text-anchor="start" x="150.73" y="-15.4" font-family="sans-serif" font-size="14.00"> &#160;Module</text>
<polygon fill="#80b1d3" stroke="transparent" points="213,-10 213,-30 233,-30 233,-10 213,-10"/>
<text text-anchor="start" x="236.78" y="-15.4" font-family="sans-serif" font-size="14.00"> &#160;Bootstrap</text>
<polygon fill="#fdb462" stroke="transparent" points="310,-10 310,-30 330,-30 330,-10 310,-10"/>
<text text-anchor="start" x="333.67" y="-15.4" font-family="sans-serif" font-size="14.00"> &#160;Providers</text>
<polygon fill="#fb8072" stroke="transparent" points="406,-10 406,-30 426,-30 426,-10 406,-10"/>
<text text-anchor="start" x="429.73" y="-15.4" font-family="sans-serif" font-size="14.00"> &#160;Exports</text>
<g id="clust1" class="cluster">
<title>cluster_LinkModule</title>
<polygon fill="none" stroke="black" stroke-dasharray="1,5" points="101,-70 101,-268 395,-268 395,-70 101,-70"/>
</g>
<g id="clust5" class="cluster">
<title>cluster_LinkModule_exports</title>
<polygon fill="none" stroke="black" points="179,-208 179,-260 307,-260 307,-208 179,-208"/>
</g>
<g id="clust4" class="cluster">
<title>cluster_LinkModule_imports</title>
<polygon fill="none" stroke="black" points="241,-78 241,-130 387,-130 387,-78 241,-78"/>
</g>
<g id="clust2" class="cluster">
<title>cluster_LinkModule_declarations</title>
<polygon fill="none" stroke="black" points="109,-78 109,-130 233,-130 233,-78 109,-78"/>
</g>
<!-- LinkComponent -->
<g id="node1" class="node">
<title>LinkComponent</title>
<polygon fill="#ffffb3" stroke="black" points="224.78,-122 117.22,-122 117.22,-86 224.78,-86 224.78,-122"/>
<text text-anchor="middle" x="171" y="-99.8" font-family="Times,serif" font-size="14.00">LinkComponent</text>
</g>
<!-- LinkModule -->
<g id="node2" class="node">
<title>LinkModule</title>
<polygon fill="#8dd3c7" stroke="black" points="285.99,-187 282.99,-191 261.99,-191 258.99,-187 200.01,-187 200.01,-151 285.99,-151 285.99,-187"/>
<text text-anchor="middle" x="243" y="-164.8" font-family="Times,serif" font-size="14.00">LinkModule</text>
</g>
<!-- LinkComponent&#45;&gt;LinkModule -->
<g id="edge1" class="edge">
<title>LinkComponent&#45;&gt;LinkModule</title>
<path fill="none" stroke="black" d="M212.45,-122.11C212.45,-122.11 212.45,-140.99 212.45,-140.99"/>
<polygon fill="black" stroke="black" points="208.95,-140.99 212.45,-150.99 215.95,-140.99 208.95,-140.99"/>
</g>
<!-- LinkComponent  -->
<g id="node4" class="node">
<title>LinkComponent </title>
<polygon fill="#fb8072" stroke="black" points="298.78,-252 187.22,-252 187.22,-216 298.78,-216 298.78,-252"/>
<text text-anchor="middle" x="243" y="-229.8" font-family="Times,serif" font-size="14.00">LinkComponent </text>
</g>
<!-- LinkModule&#45;&gt;LinkComponent  -->
<g id="edge3" class="edge">
<title>LinkModule&#45;&gt;LinkComponent </title>
<path fill="none" stroke="black" stroke-dasharray="5,2" d="M243,-187.11C243,-187.11 243,-205.99 243,-205.99"/>
<polygon fill="black" stroke="black" points="239.5,-205.99 243,-215.99 246.5,-205.99 239.5,-205.99"/>
</g>
<!-- GenericLinkModule -->
<g id="node3" class="node">
<title>GenericLinkModule</title>
<polygon fill="#8dd3c7" stroke="black" points="379.29,-122 376.29,-126 355.29,-126 352.29,-122 248.71,-122 248.71,-86 379.29,-86 379.29,-122"/>
<text text-anchor="middle" x="314" y="-99.8" font-family="Times,serif" font-size="14.00">GenericLinkModule</text>
</g>
<!-- GenericLinkModule&#45;&gt;LinkModule -->
<g id="edge2" class="edge">
<title>GenericLinkModule&#45;&gt;LinkModule</title>
<path fill="none" stroke="black" d="M267.42,-122.11C267.42,-122.11 267.42,-140.99 267.42,-140.99"/>
<polygon fill="black" stroke="black" points="263.92,-140.99 267.42,-150.99 270.92,-140.99 263.92,-140.99"/>
</g>
</g>
</svg>
