<?xml version="1.0" encoding="UTF-8" standalone="no"?>
<!DOCTYPE svg PUBLIC "-//W3C//DTD SVG 1.1//EN"
 "http://www.w3.org/Graphics/SVG/1.1/DTD/svg11.dtd">
<!-- Generated by graphviz version 2.40.1 (20161225.0304)
 -->
<!-- Title: dependencies Pages: 1 -->
<svg width="504pt" height="284pt"
 viewBox="0.00 0.00 504.00 284.00" xmlns="http://www.w3.org/2000/svg" xmlns:xlink="http://www.w3.org/1999/xlink">
<g id="graph0" class="graph" transform="scale(1 1) rotate(0) translate(4 280)">
<title>dependencies</title>
<polygon fill="#ffffff" stroke="transparent" points="-4,4 -4,-280 500,-280 500,4 -4,4"/>
<text text-anchor="start" x="227.0091" y="-42.4" font-family="sans-serif" font-weight="bold" font-size="14.00" fill="#000000">Legend</text>
<polygon fill="#ffffb3" stroke="transparent" points="14,-10 14,-30 34,-30 34,-10 14,-10"/>
<text text-anchor="start" x="37.629" y="-15.4" font-family="sans-serif" font-size="14.00" fill="#000000"> &#160;Declarations</text>
<polygon fill="#8dd3c7" stroke="transparent" points="127,-10 127,-30 147,-30 147,-10 127,-10"/>
<text text-anchor="start" x="150.7251" y="-15.4" font-family="sans-serif" font-size="14.00" fill="#000000"> &#160;Module</text>
<polygon fill="#80b1d3" stroke="transparent" points="213,-10 213,-30 233,-30 233,-10 213,-10"/>
<text text-anchor="start" x="236.7812" y="-15.4" font-family="sans-serif" font-size="14.00" fill="#000000"> &#160;Bootstrap</text>
<polygon fill="#fdb462" stroke="transparent" points="310,-10 310,-30 330,-30 330,-10 310,-10"/>
<text text-anchor="start" x="333.6732" y="-15.4" font-family="sans-serif" font-size="14.00" fill="#000000"> &#160;Providers</text>
<polygon fill="#fb8072" stroke="transparent" points="406,-10 406,-30 426,-30 426,-10 406,-10"/>
<text text-anchor="start" x="429.7258" y="-15.4" font-family="sans-serif" font-size="14.00" fill="#000000"> &#160;Exports</text>
<g id="clust1" class="cluster">
<title>cluster_LinkModule</title>
<polygon fill="none" stroke="#000000" stroke-dasharray="1,5" points="43,-70 43,-268 453,-268 453,-70 43,-70"/>
</g>
<g id="clust2" class="cluster">
<title>cluster_LinkModule_declarations</title>
<polygon fill="none" stroke="#000000" points="321,-78 321,-130 445,-130 445,-78 321,-78"/>
</g>
<g id="clust4" class="cluster">
<title>cluster_LinkModule_imports</title>
<polygon fill="none" stroke="#000000" points="51,-78 51,-130 313,-130 313,-78 51,-78"/>
</g>
<g id="clust5" class="cluster">
<title>cluster_LinkModule_exports</title>
<polygon fill="none" stroke="#000000" points="192,-208 192,-260 320,-260 320,-208 192,-208"/>
</g>
<!-- LinkComponent -->
<g id="node1" class="node">
<title>LinkComponent</title>
<polygon fill="#ffffb3" stroke="#000000" points="436.7758,-122 329.2242,-122 329.2242,-86 436.7758,-86 436.7758,-122"/>
<text text-anchor="middle" x="383" y="-99.8" font-family="Times,serif" font-size="14.00" fill="#000000">LinkComponent</text>
</g>
<!-- LinkModule -->
<g id="node2" class="node">
<title>LinkModule</title>
<polygon fill="#8dd3c7" stroke="#000000" points="298.993,-187 295.993,-191 274.993,-191 271.993,-187 213.007,-187 213.007,-151 298.993,-151 298.993,-187"/>
<text text-anchor="middle" x="256" y="-164.8" font-family="Times,serif" font-size="14.00" fill="#000000">LinkModule</text>
</g>
<!-- LinkComponent&#45;&gt;LinkModule -->
<g id="edge1" class="edge">
<title>LinkComponent&#45;&gt;LinkModule</title>
<path fill="none" stroke="#000000" d="M383,-122.1061C383,-141.3391 383,-169 383,-169 383,-169 308.9964,-169 308.9964,-169"/>
<polygon fill="#000000" stroke="#000000" points="308.9964,-165.5001 298.9964,-169 308.9964,-172.5001 308.9964,-165.5001"/>
</g>
<!-- LinkComponent  -->
<g id="node5" class="node">
<title>LinkComponent </title>
<polygon fill="#fb8072" stroke="#000000" points="311.7759,-252 200.2241,-252 200.2241,-216 311.7759,-216 311.7759,-252"/>
<text text-anchor="middle" x="256" y="-229.8" font-family="Times,serif" font-size="14.00" fill="#000000">LinkComponent </text>
</g>
<!-- LinkModule&#45;&gt;LinkComponent  -->
<g id="edge4" class="edge">
<title>LinkModule&#45;&gt;LinkComponent </title>
<path fill="none" stroke="#000000" stroke-dasharray="5,2" d="M256,-187.1061C256,-187.1061 256,-205.991 256,-205.991"/>
<polygon fill="#000000" stroke="#000000" points="252.5001,-205.9909 256,-215.991 259.5001,-205.991 252.5001,-205.9909"/>
</g>
<!-- ConfigModule -->
<g id="node3" class="node">
<title>ConfigModule</title>
<polygon fill="#8dd3c7" stroke="#000000" points="305.4386,-122 302.4386,-126 281.4386,-126 278.4386,-122 206.5614,-122 206.5614,-86 305.4386,-86 305.4386,-122"/>
<text text-anchor="middle" x="256" y="-99.8" font-family="Times,serif" font-size="14.00" fill="#000000">ConfigModule</text>
</g>
<!-- ConfigModule&#45;&gt;LinkModule -->
<g id="edge2" class="edge">
<title>ConfigModule&#45;&gt;LinkModule</title>
<path fill="none" stroke="#000000" d="M256,-122.1061C256,-122.1061 256,-140.991 256,-140.991"/>
<polygon fill="#000000" stroke="#000000" points="252.5001,-140.9909 256,-150.991 259.5001,-140.991 252.5001,-140.9909"/>
</g>
<!-- GenericLinkModule -->
<g id="node4" class="node">
<title>GenericLinkModule</title>
<polygon fill="#8dd3c7" stroke="#000000" points="189.2949,-122 186.2949,-126 165.2949,-126 162.2949,-122 58.7051,-122 58.7051,-86 189.2949,-86 189.2949,-122"/>
<text text-anchor="middle" x="124" y="-99.8" font-family="Times,serif" font-size="14.00" fill="#000000">GenericLinkModule</text>
</g>
<!-- GenericLinkModule&#45;&gt;LinkModule -->
<g id="edge3" class="edge">
<title>GenericLinkModule&#45;&gt;LinkModule</title>
<path fill="none" stroke="#000000" d="M124,-122.1061C124,-141.3391 124,-169 124,-169 124,-169 202.7783,-169 202.7783,-169"/>
<polygon fill="#000000" stroke="#000000" points="202.7783,-172.5001 212.7783,-169 202.7782,-165.5001 202.7783,-172.5001"/>
</g>
</g>
</svg>
