<?xml version="1.0" encoding="UTF-8" standalone="no"?>
<!DOCTYPE svg PUBLIC "-//W3C//DTD SVG 1.1//EN"
 "http://www.w3.org/Graphics/SVG/1.1/DTD/svg11.dtd">
<!-- Generated by graphviz version 2.47.3 (20210619.1520)
 -->
<!-- Title: dependencies Pages: 1 -->
<svg width="692pt" height="285pt"
 viewBox="0.00 0.00 692.00 285.39" xmlns="http://www.w3.org/2000/svg" xmlns:xlink="http://www.w3.org/1999/xlink">
<g id="graph0" class="graph" transform="scale(1 1) rotate(0) translate(4 281.39)">
<title>dependencies</title>
<polygon fill="white" stroke="transparent" points="-4,4 -4,-281.39 688,-281.39 688,4 -4,4"/>
<text text-anchor="middle" x="342" y="-8.2" font-family="sans-serif" font-size="14.00">dependencies</text>
<g id="clust1" class="cluster">
<title>cluster_UnitCostCenterCreateModule</title>
<polygon fill="none" stroke="black" stroke-dasharray="1,5" points="8,-32.8 8,-269.39 676,-269.39 676,-32.8 8,-32.8"/>
</g>
<g id="clust2" class="cluster">
<title>cluster_UnitCostCenterCreateModule_declarations</title>
<polygon fill="none" stroke="black" points="231,-152.39 231,-204.39 453,-204.39 453,-152.39 231,-152.39"/>
</g>
<g id="clust3" class="cluster">
<title>cluster_UnitCostCenterCreateModule_UnitCostCenterCreateComponent_providers</title>
<polygon fill="none" stroke="black" points="16,-40.8 16,-139.39 668,-139.39 668,-40.8 16,-40.8"/>
</g>
<g id="clust4" class="cluster">
<title>cluster_UnitCostCenterCreateModule_imports</title>
<polygon fill="none" stroke="black" points="55,-152.39 55,-204.39 223,-204.39 223,-152.39 55,-152.39"/>
</g>
<!-- UnitCostCenterCreateComponent -->
<g id="node1" class="node">
<title>UnitCostCenterCreateComponent</title>
<polygon fill="#ffffb3" stroke="black" points="444.74,-196.39 239.26,-196.39 239.26,-160.39 444.74,-160.39 444.74,-196.39"/>
<text text-anchor="middle" x="342" y="-174.19" font-family="Times,serif" font-size="14.00">UnitCostCenterCreateComponent</text>
</g>
<!-- UnitCostCenterCreateModule -->
<g id="node2" class="node">
<title>UnitCostCenterCreateModule</title>
<polygon fill="#8dd3c7" stroke="black" points="331.96,-261.39 328.96,-265.39 307.96,-265.39 304.96,-261.39 148.04,-261.39 148.04,-225.39 331.96,-225.39 331.96,-261.39"/>
<text text-anchor="middle" x="240" y="-239.19" font-family="Times,serif" font-size="14.00">UnitCostCenterCreateModule</text>
</g>
<!-- UnitCostCenterCreateComponent&#45;&gt;UnitCostCenterCreateModule -->
<g id="edge1" class="edge">
<title>UnitCostCenterCreateComponent&#45;&gt;UnitCostCenterCreateModule</title>
<path fill="none" stroke="black" d="M285.55,-196.5C285.55,-196.5 285.55,-215.38 285.55,-215.38"/>
<polygon fill="black" stroke="black" points="282.05,-215.38 285.55,-225.38 289.05,-215.38 282.05,-215.38"/>
</g>
<!-- {
 &#160;&#160;&#160;provide: CostCenterItemService, useExisting: UnitCostCenterItemService,
} -->
<g id="node3" class="node">
<title>{
 &#160;&#160;&#160;provide: CostCenterItemService, useExisting: UnitCostCenterItemService,
}</title>
<ellipse fill="#fdb462" stroke="black" cx="342" cy="-90.1" rx="317.7" ry="41.09"/>
<text text-anchor="middle" x="342" y="-102.7" font-family="Times,serif" font-size="14.00">{</text>
<text text-anchor="middle" x="342" y="-85.9" font-family="Times,serif" font-size="14.00"> &#160;&#160;&#160;provide: CostCenterItemService, useExisting: UnitCostCenterItemService,</text>
<text text-anchor="middle" x="342" y="-69.1" font-family="Times,serif" font-size="14.00">}</text>
</g>
<!-- {
 &#160;&#160;&#160;provide: CostCenterItemService, useExisting: UnitCostCenterItemService,
}&#45;&gt;UnitCostCenterCreateComponent -->
<g id="edge2" class="edge">
<title>{
 &#160;&#160;&#160;provide: CostCenterItemService, useExisting: UnitCostCenterItemService,
}&#45;&gt;UnitCostCenterCreateComponent</title>
<path fill="none" stroke="black" d="M342,-131.4C342,-131.4 342,-150.06 342,-150.06"/>
<polygon fill="black" stroke="black" points="338.5,-150.06 342,-160.06 345.5,-150.06 338.5,-150.06"/>
</g>
<!-- CostCenterFormModule -->
<g id="node4" class="node">
<title>CostCenterFormModule</title>
<polygon fill="#8dd3c7" stroke="black" points="215.37,-196.39 212.37,-200.39 191.37,-200.39 188.37,-196.39 62.63,-196.39 62.63,-160.39 215.37,-160.39 215.37,-196.39"/>
<text text-anchor="middle" x="139" y="-174.19" font-family="Times,serif" font-size="14.00">CostCenterFormModule</text>
</g>
<!-- CostCenterFormModule&#45;&gt;UnitCostCenterCreateModule -->
<g id="edge3" class="edge">
<title>CostCenterFormModule&#45;&gt;UnitCostCenterCreateModule</title>
<path fill="none" stroke="black" d="M181.73,-196.5C181.73,-196.5 181.73,-215.38 181.73,-215.38"/>
<polygon fill="black" stroke="black" points="178.23,-215.38 181.73,-225.38 185.23,-215.38 178.23,-215.38"/>
</g>
</g>
</svg>
