<?xml version="1.0" encoding="UTF-8" standalone="no"?>
<!DOCTYPE svg PUBLIC "-//W3C//DTD SVG 1.1//EN"
 "http://www.w3.org/Graphics/SVG/1.1/DTD/svg11.dtd">
<!-- Generated by graphviz version 2.47.3 (20210619.1520)
 -->
<!-- Title: dependencies Pages: 1 -->
<svg width="868pt" height="285pt"
 viewBox="0.00 0.00 868.00 285.39" xmlns="http://www.w3.org/2000/svg" xmlns:xlink="http://www.w3.org/1999/xlink">
<g id="graph0" class="graph" transform="scale(1 1) rotate(0) translate(4 281.39)">
<title>dependencies</title>
<polygon fill="white" stroke="transparent" points="-4,4 -4,-281.39 864,-281.39 864,4 -4,4"/>
<text text-anchor="middle" x="430" y="-8.2" font-family="sans-serif" font-size="14.00">dependencies</text>
<g id="clust1" class="cluster">
<title>cluster_UnitCostCenterCreateModule</title>
<polygon fill="none" stroke="black" stroke-dasharray="1,5" points="8,-32.8 8,-269.39 852,-269.39 852,-32.8 8,-32.8"/>
</g>
<g id="clust3" class="cluster">
<title>cluster_UnitCostCenterCreateModule_UnitCostCenterCreateComponent_providers</title>
<polygon fill="none" stroke="black" points="192,-40.8 192,-204.39 844,-204.39 844,-40.8 192,-40.8"/>
</g>
<g id="clust4" class="cluster">
<title>cluster_UnitCostCenterCreateModule_imports</title>
<polygon fill="none" stroke="black" points="16,-152.39 16,-204.39 184,-204.39 184,-152.39 16,-152.39"/>
</g>
<!-- UnitCostCenterCreateComponent -->
<g id="node1" class="node">
<title>UnitCostCenterCreateComponent</title>
<polygon fill="#ffffb3" stroke="black" points="512.74,-196.39 307.26,-196.39 307.26,-160.39 512.74,-160.39 512.74,-196.39"/>
<text text-anchor="middle" x="410" y="-174.19" font-family="Times,serif" font-size="14.00">UnitCostCenterCreateComponent</text>
</g>
<!-- UnitCostCenterCreateModule -->
<g id="node2" class="node">
<title>UnitCostCenterCreateModule</title>
<polygon fill="#8dd3c7" stroke="black" points="296.96,-261.39 293.96,-265.39 272.96,-265.39 269.96,-261.39 113.04,-261.39 113.04,-225.39 296.96,-225.39 296.96,-261.39"/>
<text text-anchor="middle" x="205" y="-239.19" font-family="Times,serif" font-size="14.00">UnitCostCenterCreateModule</text>
</g>
<!-- UnitCostCenterCreateComponent&#45;&gt;UnitCostCenterCreateModule -->
<g id="edge1" class="edge">
<title>UnitCostCenterCreateComponent&#45;&gt;UnitCostCenterCreateModule</title>
<path fill="none" stroke="black" d="M306.85,-178.39C275.21,-178.39 248.56,-178.39 248.56,-178.39 248.56,-178.39 248.56,-215.28 248.56,-215.28"/>
<polygon fill="black" stroke="black" points="245.06,-215.28 248.56,-225.28 252.06,-215.28 245.06,-215.28"/>
</g>
<!-- {
 &#160;&#160;&#160;provide: CostCenterItemService, useExisting: UnitCostCenterItemService,
} -->
<g id="node3" class="node">
<title>{
 &#160;&#160;&#160;provide: CostCenterItemService, useExisting: UnitCostCenterItemService,
}</title>
<ellipse fill="#fdb462" stroke="black" cx="518" cy="-90.1" rx="317.7" ry="41.09"/>
<text text-anchor="middle" x="518" y="-102.7" font-family="Times,serif" font-size="14.00">{</text>
<text text-anchor="middle" x="518" y="-85.9" font-family="Times,serif" font-size="14.00"> &#160;&#160;&#160;provide: CostCenterItemService, useExisting: UnitCostCenterItemService,</text>
<text text-anchor="middle" x="518" y="-69.1" font-family="Times,serif" font-size="14.00">}</text>
</g>
<!-- {
 &#160;&#160;&#160;provide: CostCenterItemService, useExisting: UnitCostCenterItemService,
}&#45;&gt;UnitCostCenterCreateComponent -->
<g id="edge2" class="edge">
<title>{
 &#160;&#160;&#160;provide: CostCenterItemService, useExisting: UnitCostCenterItemService,
}&#45;&gt;UnitCostCenterCreateComponent</title>
<path fill="none" stroke="black" d="M410,-129.08C410,-129.08 410,-150.36 410,-150.36"/>
<polygon fill="black" stroke="black" points="406.5,-150.36 410,-160.36 413.5,-150.36 406.5,-150.36"/>
</g>
<!-- CostCenterFormModule -->
<g id="node4" class="node">
<title>CostCenterFormModule</title>
<polygon fill="#8dd3c7" stroke="black" points="176.37,-196.39 173.37,-200.39 152.37,-200.39 149.37,-196.39 23.63,-196.39 23.63,-160.39 176.37,-160.39 176.37,-196.39"/>
<text text-anchor="middle" x="100" y="-174.19" font-family="Times,serif" font-size="14.00">CostCenterFormModule</text>
</g>
<!-- CostCenterFormModule&#45;&gt;UnitCostCenterCreateModule -->
<g id="edge3" class="edge">
<title>CostCenterFormModule&#45;&gt;UnitCostCenterCreateModule</title>
<path fill="none" stroke="black" d="M144.73,-196.5C144.73,-196.5 144.73,-215.38 144.73,-215.38"/>
<polygon fill="black" stroke="black" points="141.23,-215.38 144.73,-225.38 148.23,-215.38 141.23,-215.38"/>
</g>
</g>
</svg>
