<?xml version="1.0" encoding="UTF-8" standalone="no"?>
<!DOCTYPE svg PUBLIC "-//W3C//DTD SVG 1.1//EN"
 "http://www.w3.org/Graphics/SVG/1.1/DTD/svg11.dtd">
<!-- Generated by graphviz version 2.46.0 (20210119.1425)
 -->
<!-- Title: dependencies Pages: 1 -->
<svg width="870pt" height="276pt"
 viewBox="0.00 0.00 870.00 276.00" xmlns="http://www.w3.org/2000/svg" xmlns:xlink="http://www.w3.org/1999/xlink">
<g id="graph0" class="graph" transform="scale(1 1) rotate(0) translate(4 272)">
<title>dependencies</title>
<polygon fill="white" stroke="transparent" points="-4,4 -4,-272 866,-272 866,4 -4,4"/>
<text text-anchor="start" x="410.01" y="-42.4" font-family="sans-serif" font-weight="bold" font-size="14.00">Legend</text>
<polygon fill="#ffffb3" stroke="transparent" points="197,-10 197,-30 217,-30 217,-10 197,-10"/>
<text text-anchor="start" x="220.63" y="-15.4" font-family="sans-serif" font-size="14.00"> &#160;Declarations</text>
<polygon fill="#8dd3c7" stroke="transparent" points="310,-10 310,-30 330,-30 330,-10 310,-10"/>
<text text-anchor="start" x="333.73" y="-15.4" font-family="sans-serif" font-size="14.00"> &#160;Module</text>
<polygon fill="#80b1d3" stroke="transparent" points="396,-10 396,-30 416,-30 416,-10 396,-10"/>
<text text-anchor="start" x="419.78" y="-15.4" font-family="sans-serif" font-size="14.00"> &#160;Bootstrap</text>
<polygon fill="#fdb462" stroke="transparent" points="493,-10 493,-30 513,-30 513,-10 493,-10"/>
<text text-anchor="start" x="516.67" y="-15.4" font-family="sans-serif" font-size="14.00"> &#160;Providers</text>
<polygon fill="#fb8072" stroke="transparent" points="589,-10 589,-30 609,-30 609,-10 589,-10"/>
<text text-anchor="start" x="612.73" y="-15.4" font-family="sans-serif" font-size="14.00"> &#160;Exports</text>
<g id="clust1" class="cluster">
<title>cluster_UnitCostCenterCreateModule</title>
<polygon fill="none" stroke="black" stroke-dasharray="1,5" points="8,-70 8,-260 854,-260 854,-70 8,-70"/>
</g>
<g id="clust3" class="cluster">
<title>cluster_UnitCostCenterCreateModule_UnitCostCenterCreateComponent_providers</title>
<polygon fill="none" stroke="black" points="192,-78 192,-195 846,-195 846,-78 192,-78"/>
</g>
<g id="clust4" class="cluster">
<title>cluster_UnitCostCenterCreateModule_imports</title>
<polygon fill="none" stroke="black" points="16,-143 16,-195 184,-195 184,-143 16,-143"/>
</g>
<!-- UnitCostCenterCreateComponent -->
<g id="node1" class="node">
<title>UnitCostCenterCreateComponent</title>
<polygon fill="#ffffb3" stroke="black" points="513.74,-187 308.26,-187 308.26,-151 513.74,-151 513.74,-187"/>
<text text-anchor="middle" x="411" y="-164.8" font-family="Times,serif" font-size="14.00">UnitCostCenterCreateComponent</text>
</g>
<!-- UnitCostCenterCreateModule -->
<g id="node2" class="node">
<title>UnitCostCenterCreateModule</title>
<polygon fill="#8dd3c7" stroke="black" points="296.96,-252 293.96,-256 272.96,-256 269.96,-252 113.04,-252 113.04,-216 296.96,-216 296.96,-252"/>
<text text-anchor="middle" x="205" y="-229.8" font-family="Times,serif" font-size="14.00">UnitCostCenterCreateModule</text>
</g>
<!-- UnitCostCenterCreateComponent&#45;&gt;UnitCostCenterCreateModule -->
<g id="edge1" class="edge">
<title>UnitCostCenterCreateComponent&#45;&gt;UnitCostCenterCreateModule</title>
<path fill="none" stroke="black" d="M307.97,-169C275.69,-169 248.32,-169 248.32,-169 248.32,-169 248.32,-205.89 248.32,-205.89"/>
<polygon fill="black" stroke="black" points="244.82,-205.89 248.32,-215.89 251.82,-205.89 244.82,-205.89"/>
</g>
<!-- { &#160;&#160;&#160;provide: CostCenterItemService, useExisting: UnitCostCenterItemService,} -->
<g id="node3" class="node">
<title>{ &#160;&#160;&#160;provide: CostCenterItemService, useExisting: UnitCostCenterItemService,}</title>
<ellipse fill="#fdb462" stroke="black" cx="519" cy="-104" rx="319.16" ry="18"/>
<text text-anchor="middle" x="519" y="-99.8" font-family="Times,serif" font-size="14.00">{ &#160;&#160;&#160;provide: CostCenterItemService, useExisting: UnitCostCenterItemService,}</text>
</g>
<!-- { &#160;&#160;&#160;provide: CostCenterItemService, useExisting: UnitCostCenterItemService,}&#45;&gt;UnitCostCenterCreateComponent -->
<g id="edge2" class="edge">
<title>{ &#160;&#160;&#160;provide: CostCenterItemService, useExisting: UnitCostCenterItemService,}&#45;&gt;UnitCostCenterCreateComponent</title>
<path fill="none" stroke="black" d="M411,-121.08C411,-121.08 411,-140.9 411,-140.9"/>
<polygon fill="black" stroke="black" points="407.5,-140.9 411,-150.9 414.5,-140.9 407.5,-140.9"/>
</g>
<!-- CostCenterFormModule -->
<g id="node4" class="node">
<title>CostCenterFormModule</title>
<polygon fill="#8dd3c7" stroke="black" points="176.37,-187 173.37,-191 152.37,-191 149.37,-187 23.63,-187 23.63,-151 176.37,-151 176.37,-187"/>
<text text-anchor="middle" x="100" y="-164.8" font-family="Times,serif" font-size="14.00">CostCenterFormModule</text>
</g>
<!-- CostCenterFormModule&#45;&gt;UnitCostCenterCreateModule -->
<g id="edge3" class="edge">
<title>CostCenterFormModule&#45;&gt;UnitCostCenterCreateModule</title>
<path fill="none" stroke="black" d="M144.73,-187.11C144.73,-187.11 144.73,-205.99 144.73,-205.99"/>
<polygon fill="black" stroke="black" points="141.23,-205.99 144.73,-215.99 148.23,-205.99 141.23,-205.99"/>
</g>
</g>
</svg>
