<?xml version="1.0" encoding="UTF-8" standalone="no"?>
<!DOCTYPE svg PUBLIC "-//W3C//DTD SVG 1.1//EN"
 "http://www.w3.org/Graphics/SVG/1.1/DTD/svg11.dtd">
<!-- Generated by graphviz version 2.40.1 (20161225.0304)
 -->
<!-- Title: dependencies Pages: 1 -->
<svg width="534pt" height="284pt"
 viewBox="0.00 0.00 534.00 284.00" xmlns="http://www.w3.org/2000/svg" xmlns:xlink="http://www.w3.org/1999/xlink">
<g id="graph0" class="graph" transform="scale(1 1) rotate(0) translate(4 280)">
<title>dependencies</title>
<polygon fill="#ffffff" stroke="transparent" points="-4,4 -4,-280 530,-280 530,4 -4,4"/>
<text text-anchor="start" x="242.0091" y="-42.4" font-family="sans-serif" font-weight="bold" font-size="14.00" fill="#000000">Legend</text>
<polygon fill="#ffffb3" stroke="transparent" points="29,-10 29,-30 49,-30 49,-10 29,-10"/>
<text text-anchor="start" x="52.629" y="-15.4" font-family="sans-serif" font-size="14.00" fill="#000000"> &#160;Declarations</text>
<polygon fill="#8dd3c7" stroke="transparent" points="142,-10 142,-30 162,-30 162,-10 142,-10"/>
<text text-anchor="start" x="165.7251" y="-15.4" font-family="sans-serif" font-size="14.00" fill="#000000"> &#160;Module</text>
<polygon fill="#80b1d3" stroke="transparent" points="228,-10 228,-30 248,-30 248,-10 228,-10"/>
<text text-anchor="start" x="251.7812" y="-15.4" font-family="sans-serif" font-size="14.00" fill="#000000"> &#160;Bootstrap</text>
<polygon fill="#fdb462" stroke="transparent" points="325,-10 325,-30 345,-30 345,-10 325,-10"/>
<text text-anchor="start" x="348.6732" y="-15.4" font-family="sans-serif" font-size="14.00" fill="#000000"> &#160;Providers</text>
<polygon fill="#fb8072" stroke="transparent" points="421,-10 421,-30 441,-30 441,-10 421,-10"/>
<text text-anchor="start" x="444.7258" y="-15.4" font-family="sans-serif" font-size="14.00" fill="#000000"> &#160;Exports</text>
<g id="clust1" class="cluster">
<title>cluster_MultiStepCheckoutPageModule</title>
<polygon fill="none" stroke="#000000" stroke-dasharray="1,5" points="8,-70 8,-268 518,-268 518,-70 8,-70"/>
</g>
<g id="clust2" class="cluster">
<title>cluster_MultiStepCheckoutPageModule_declarations</title>
<polygon fill="none" stroke="#000000" points="276,-78 276,-130 510,-130 510,-78 276,-78"/>
</g>
<g id="clust4" class="cluster">
<title>cluster_MultiStepCheckoutPageModule_imports</title>
<polygon fill="none" stroke="#000000" points="16,-78 16,-130 268,-130 268,-78 16,-78"/>
</g>
<g id="clust5" class="cluster">
<title>cluster_MultiStepCheckoutPageModule_exports</title>
<polygon fill="none" stroke="#000000" points="147,-208 147,-260 385,-260 385,-208 147,-208"/>
</g>
<!-- MultiStepCheckoutPageComponent -->
<g id="node1" class="node">
<title>MultiStepCheckoutPageComponent</title>
<polygon fill="#ffffb3" stroke="#000000" points="502.2049,-122 283.7951,-122 283.7951,-86 502.2049,-86 502.2049,-122"/>
<text text-anchor="middle" x="393" y="-99.8" font-family="Times,serif" font-size="14.00" fill="#000000">MultiStepCheckoutPageComponent</text>
</g>
<!-- MultiStepCheckoutPageModule -->
<g id="node2" class="node">
<title>MultiStepCheckoutPageModule</title>
<polygon fill="#8dd3c7" stroke="#000000" points="364.4227,-187 361.4227,-191 340.4227,-191 337.4227,-187 167.5773,-187 167.5773,-151 364.4227,-151 364.4227,-187"/>
<text text-anchor="middle" x="266" y="-164.8" font-family="Times,serif" font-size="14.00" fill="#000000">MultiStepCheckoutPageModule</text>
</g>
<!-- MultiStepCheckoutPageComponent&#45;&gt;MultiStepCheckoutPageModule -->
<g id="edge1" class="edge">
<title>MultiStepCheckoutPageComponent&#45;&gt;MultiStepCheckoutPageModule</title>
<path fill="none" stroke="#000000" d="M324.0544,-122.1061C324.0544,-122.1061 324.0544,-140.991 324.0544,-140.991"/>
<polygon fill="#000000" stroke="#000000" points="320.5544,-140.9909 324.0544,-150.991 327.5544,-140.991 320.5544,-140.9909"/>
</g>
<!-- MultiStepCheckoutPageComponent  -->
<g id="node4" class="node">
<title>MultiStepCheckoutPageComponent </title>
<polygon fill="#fb8072" stroke="#000000" points="376.705,-252 155.295,-252 155.295,-216 376.705,-216 376.705,-252"/>
<text text-anchor="middle" x="266" y="-229.8" font-family="Times,serif" font-size="14.00" fill="#000000">MultiStepCheckoutPageComponent </text>
</g>
<!-- MultiStepCheckoutPageModule&#45;&gt;MultiStepCheckoutPageComponent  -->
<g id="edge3" class="edge">
<title>MultiStepCheckoutPageModule&#45;&gt;MultiStepCheckoutPageComponent </title>
<path fill="none" stroke="#000000" stroke-dasharray="5,2" d="M266,-187.1061C266,-187.1061 266,-205.991 266,-205.991"/>
<polygon fill="#000000" stroke="#000000" points="262.5001,-205.9909 266,-215.991 269.5001,-205.991 262.5001,-205.9909"/>
</g>
<!-- MultiStepCheckoutPageLayoutModule -->
<g id="node3" class="node">
<title>MultiStepCheckoutPageLayoutModule</title>
<polygon fill="#8dd3c7" stroke="#000000" points="260.08,-122 257.08,-126 236.08,-126 233.08,-122 23.92,-122 23.92,-86 260.08,-86 260.08,-122"/>
<text text-anchor="middle" x="142" y="-99.8" font-family="Times,serif" font-size="14.00" fill="#000000">MultiStepCheckoutPageLayoutModule</text>
</g>
<!-- MultiStepCheckoutPageLayoutModule&#45;&gt;MultiStepCheckoutPageModule -->
<g id="edge2" class="edge">
<title>MultiStepCheckoutPageLayoutModule&#45;&gt;MultiStepCheckoutPageModule</title>
<path fill="none" stroke="#000000" d="M213.9145,-122.1061C213.9145,-122.1061 213.9145,-140.991 213.9145,-140.991"/>
<polygon fill="#000000" stroke="#000000" points="210.4145,-140.9909 213.9145,-150.991 217.4145,-140.991 210.4145,-140.9909"/>
</g>
</g>
</svg>
