<?xml version="1.0" encoding="UTF-8" standalone="no"?>
<!DOCTYPE svg PUBLIC "-//W3C//DTD SVG 1.1//EN"
 "http://www.w3.org/Graphics/SVG/1.1/DTD/svg11.dtd">
<!-- Generated by graphviz version 2.40.1 (20161225.0304)
 -->
<!-- Title: dependencies Pages: 1 -->
<svg width="1274pt" height="284pt"
 viewBox="0.00 0.00 1274.00 284.00" xmlns="http://www.w3.org/2000/svg" xmlns:xlink="http://www.w3.org/1999/xlink">
<g id="graph0" class="graph" transform="scale(1 1) rotate(0) translate(4 280)">
<title>dependencies</title>
<polygon fill="#ffffff" stroke="transparent" points="-4,4 -4,-280 1270,-280 1270,4 -4,4"/>
<text text-anchor="start" x="612.0091" y="-42.4" font-family="sans-serif" font-weight="bold" font-size="14.00" fill="#000000">Legend</text>
<polygon fill="#ffffb3" stroke="transparent" points="399,-10 399,-30 419,-30 419,-10 399,-10"/>
<text text-anchor="start" x="422.629" y="-15.4" font-family="sans-serif" font-size="14.00" fill="#000000"> &#160;Declarations</text>
<polygon fill="#8dd3c7" stroke="transparent" points="512,-10 512,-30 532,-30 532,-10 512,-10"/>
<text text-anchor="start" x="535.7251" y="-15.4" font-family="sans-serif" font-size="14.00" fill="#000000"> &#160;Module</text>
<polygon fill="#80b1d3" stroke="transparent" points="598,-10 598,-30 618,-30 618,-10 598,-10"/>
<text text-anchor="start" x="621.7812" y="-15.4" font-family="sans-serif" font-size="14.00" fill="#000000"> &#160;Bootstrap</text>
<polygon fill="#fdb462" stroke="transparent" points="695,-10 695,-30 715,-30 715,-10 695,-10"/>
<text text-anchor="start" x="718.6732" y="-15.4" font-family="sans-serif" font-size="14.00" fill="#000000"> &#160;Providers</text>
<polygon fill="#fb8072" stroke="transparent" points="791,-10 791,-30 811,-30 811,-10 791,-10"/>
<text text-anchor="start" x="814.7258" y="-15.4" font-family="sans-serif" font-size="14.00" fill="#000000"> &#160;Exports</text>
<g id="clust1" class="cluster">
<title>cluster_ComponentsModule</title>
<polygon fill="none" stroke="#000000" stroke-dasharray="1,5" points="8,-70 8,-268 1258,-268 1258,-70 8,-70"/>
</g>
<g id="clust3" class="cluster">
<title>cluster_ComponentsModule_imports</title>
<polygon fill="none" stroke="#000000" points="235,-78 235,-130 924,-130 924,-78 235,-78"/>
</g>
<g id="clust4" class="cluster">
<title>cluster_ComponentsModule_exports</title>
<polygon fill="none" stroke="#000000" points="16,-208 16,-260 1250,-260 1250,-208 16,-208"/>
</g>
<!-- CardModule -->
<g id="node1" class="node">
<title>CardModule</title>
<polygon fill="#8dd3c7" stroke="#000000" points="916.2619,-122 913.2619,-126 892.2619,-126 889.2619,-122 829.7381,-122 829.7381,-86 916.2619,-86 916.2619,-122"/>
<text text-anchor="middle" x="873" y="-99.8" font-family="Times,serif" font-size="14.00" fill="#000000">CardModule</text>
</g>
<!-- ComponentsModule -->
<g id="node6" class="node">
<title>ComponentsModule</title>
<polygon fill="#8dd3c7" stroke="#000000" points="680.3272,-187 677.3272,-191 656.3272,-191 653.3272,-187 549.6728,-187 549.6728,-151 680.3272,-151 680.3272,-187"/>
<text text-anchor="middle" x="615" y="-164.8" font-family="Times,serif" font-size="14.00" fill="#000000">ComponentsModule</text>
</g>
<!-- CardModule&#45;&gt;ComponentsModule -->
<g id="edge1" class="edge">
<title>CardModule&#45;&gt;ComponentsModule</title>
<path fill="none" stroke="#000000" d="M873,-122.0091C873,-138.0494 873,-159 873,-159 873,-159 690.4378,-159 690.4378,-159"/>
<polygon fill="#000000" stroke="#000000" points="690.4379,-155.5001 680.4378,-159 690.4378,-162.5001 690.4379,-155.5001"/>
</g>
<!-- GenericLinkModule -->
<g id="node2" class="node">
<title>GenericLinkModule</title>
<polygon fill="#8dd3c7" stroke="#000000" points="811.2949,-122 808.2949,-126 787.2949,-126 784.2949,-122 680.7051,-122 680.7051,-86 811.2949,-86 811.2949,-122"/>
<text text-anchor="middle" x="746" y="-99.8" font-family="Times,serif" font-size="14.00" fill="#000000">GenericLinkModule</text>
</g>
<!-- GenericLinkModule&#45;&gt;ComponentsModule -->
<g id="edge2" class="edge">
<title>GenericLinkModule&#45;&gt;ComponentsModule</title>
<path fill="none" stroke="#000000" d="M680.5564,-104C674.9795,-104 671.4103,-104 671.4103,-104 671.4103,-104 671.4103,-140.8939 671.4103,-140.8939"/>
<polygon fill="#000000" stroke="#000000" points="667.9103,-140.8938 671.4103,-150.8939 674.9103,-140.8939 667.9103,-140.8938"/>
</g>
<!-- MediaModule -->
<g id="node3" class="node">
<title>MediaModule</title>
<polygon fill="#8dd3c7" stroke="#000000" points="662.8147,-122 659.8147,-126 638.8147,-126 635.8147,-122 567.1853,-122 567.1853,-86 662.8147,-86 662.8147,-122"/>
<text text-anchor="middle" x="615" y="-99.8" font-family="Times,serif" font-size="14.00" fill="#000000">MediaModule</text>
</g>
<!-- MediaModule&#45;&gt;ComponentsModule -->
<g id="edge3" class="edge">
<title>MediaModule&#45;&gt;ComponentsModule</title>
<path fill="none" stroke="#000000" d="M615,-122.1061C615,-122.1061 615,-140.991 615,-140.991"/>
<polygon fill="#000000" stroke="#000000" points="611.5001,-140.9909 615,-150.991 618.5001,-140.991 611.5001,-140.9909"/>
</g>
<!-- PaginationAndSortingModule -->
<g id="node4" class="node">
<title>PaginationAndSortingModule</title>
<polygon fill="#8dd3c7" stroke="#000000" points="549.2646,-122 546.2646,-126 525.2646,-126 522.2646,-122 364.7354,-122 364.7354,-86 549.2646,-86 549.2646,-122"/>
<text text-anchor="middle" x="457" y="-99.8" font-family="Times,serif" font-size="14.00" fill="#000000">PaginationAndSortingModule</text>
</g>
<!-- PaginationAndSortingModule&#45;&gt;ComponentsModule -->
<g id="edge4" class="edge">
<title>PaginationAndSortingModule&#45;&gt;ComponentsModule</title>
<path fill="none" stroke="#000000" d="M549.5743,-104C555.1655,-104 558.5898,-104 558.5898,-104 558.5898,-104 558.5898,-140.8939 558.5898,-140.8939"/>
<polygon fill="#000000" stroke="#000000" points="555.0898,-140.8938 558.5898,-150.8939 562.0898,-140.8939 555.0898,-140.8938"/>
</g>
<!-- SpinnerModule -->
<g id="node5" class="node">
<title>SpinnerModule</title>
<polygon fill="#8dd3c7" stroke="#000000" points="346.5982,-122 343.5982,-126 322.5982,-126 319.5982,-122 243.4018,-122 243.4018,-86 346.5982,-86 346.5982,-122"/>
<text text-anchor="middle" x="295" y="-99.8" font-family="Times,serif" font-size="14.00" fill="#000000">SpinnerModule</text>
</g>
<!-- SpinnerModule&#45;&gt;ComponentsModule -->
<g id="edge5" class="edge">
<title>SpinnerModule&#45;&gt;ComponentsModule</title>
<path fill="none" stroke="#000000" d="M339.7604,-122.0091C339.7604,-138.0494 339.7604,-159 339.7604,-159 339.7604,-159 539.772,-159 539.772,-159"/>
<polygon fill="#000000" stroke="#000000" points="539.7721,-162.5001 549.772,-159 539.772,-155.5001 539.7721,-162.5001"/>
</g>
<!-- CardComponent  -->
<g id="node7" class="node">
<title>CardComponent </title>
<polygon fill="#fb8072" stroke="#000000" points="1242.0442,-252 1129.9558,-252 1129.9558,-216 1242.0442,-216 1242.0442,-252"/>
<text text-anchor="middle" x="1186" y="-229.8" font-family="Times,serif" font-size="14.00" fill="#000000">CardComponent </text>
</g>
<!-- ComponentsModule&#45;&gt;CardComponent  -->
<g id="edge6" class="edge">
<title>ComponentsModule&#45;&gt;CardComponent </title>
<path fill="none" stroke="#000000" stroke-dasharray="5,2" d="M680.2228,-166C830.0441,-166 1186,-166 1186,-166 1186,-166 1186,-205.7772 1186,-205.7772"/>
<polygon fill="#000000" stroke="#000000" points="1182.5001,-205.7772 1186,-215.7772 1189.5001,-205.7773 1182.5001,-205.7772"/>
</g>
<!-- GenericLinkComponent  -->
<g id="node8" class="node">
<title>GenericLinkComponent </title>
<polygon fill="#fb8072" stroke="#000000" points="1111.5778,-252 956.4222,-252 956.4222,-216 1111.5778,-216 1111.5778,-252"/>
<text text-anchor="middle" x="1034" y="-229.8" font-family="Times,serif" font-size="14.00" fill="#000000">GenericLinkComponent </text>
</g>
<!-- ComponentsModule&#45;&gt;GenericLinkComponent  -->
<g id="edge7" class="edge">
<title>ComponentsModule&#45;&gt;GenericLinkComponent </title>
<path fill="none" stroke="#000000" stroke-dasharray="5,2" d="M680.4688,-173C798.3125,-173 1034,-173 1034,-173 1034,-173 1034,-205.698 1034,-205.698"/>
<polygon fill="#000000" stroke="#000000" points="1030.5001,-205.698 1034,-215.698 1037.5001,-205.698 1030.5001,-205.698"/>
</g>
<!-- ItemCounterComponent  -->
<g id="node9" class="node">
<title>ItemCounterComponent </title>
<polygon fill="#fb8072" stroke="#000000" points="937.5917,-252 782.4083,-252 782.4083,-216 937.5917,-216 937.5917,-252"/>
<text text-anchor="middle" x="860" y="-229.8" font-family="Times,serif" font-size="14.00" fill="#000000">ItemCounterComponent </text>
</g>
<!-- ComponentsModule&#45;&gt;ItemCounterComponent  -->
<g id="edge8" class="edge">
<title>ComponentsModule&#45;&gt;ItemCounterComponent </title>
<path fill="none" stroke="#000000" stroke-dasharray="5,2" d="M680.3325,-180C732.4172,-180 796.6759,-180 796.6759,-180 796.6759,-180 796.6759,-205.7181 796.6759,-205.7181"/>
<polygon fill="#000000" stroke="#000000" points="793.1759,-205.718 796.6759,-215.7181 800.1759,-205.7181 793.1759,-205.718"/>
</g>
<!-- PaginationComponent  -->
<g id="node10" class="node">
<title>PaginationComponent </title>
<polygon fill="#fb8072" stroke="#000000" points="764.2163,-252 619.7837,-252 619.7837,-216 764.2163,-216 764.2163,-252"/>
<text text-anchor="middle" x="692" y="-229.8" font-family="Times,serif" font-size="14.00" fill="#000000">PaginationComponent </text>
</g>
<!-- ComponentsModule&#45;&gt;PaginationComponent  -->
<g id="edge9" class="edge">
<title>ComponentsModule&#45;&gt;PaginationComponent </title>
<path fill="none" stroke="#000000" stroke-dasharray="5,2" d="M649.9027,-187.1061C649.9027,-187.1061 649.9027,-205.991 649.9027,-205.991"/>
<polygon fill="#000000" stroke="#000000" points="646.4028,-205.9909 649.9027,-215.991 653.4028,-205.991 646.4028,-205.9909"/>
</g>
<!-- PictureComponent  -->
<g id="node11" class="node">
<title>PictureComponent </title>
<polygon fill="#fb8072" stroke="#000000" points="601.487,-252 476.513,-252 476.513,-216 601.487,-216 601.487,-252"/>
<text text-anchor="middle" x="539" y="-229.8" font-family="Times,serif" font-size="14.00" fill="#000000">PictureComponent </text>
</g>
<!-- ComponentsModule&#45;&gt;PictureComponent  -->
<g id="edge10" class="edge">
<title>ComponentsModule&#45;&gt;PictureComponent </title>
<path fill="none" stroke="#000000" stroke-dasharray="5,2" d="M575.5398,-187.1061C575.5398,-187.1061 575.5398,-205.991 575.5398,-205.991"/>
<polygon fill="#000000" stroke="#000000" points="572.0399,-205.9909 575.5398,-215.991 579.0399,-205.991 572.0399,-205.9909"/>
</g>
<!-- SortingComponent  -->
<g id="node12" class="node">
<title>SortingComponent </title>
<polygon fill="#fb8072" stroke="#000000" points="459.0568,-252 332.9432,-252 332.9432,-216 459.0568,-216 459.0568,-252"/>
<text text-anchor="middle" x="396" y="-229.8" font-family="Times,serif" font-size="14.00" fill="#000000">SortingComponent </text>
</g>
<!-- ComponentsModule&#45;&gt;SortingComponent  -->
<g id="edge11" class="edge">
<title>ComponentsModule&#45;&gt;SortingComponent </title>
<path fill="none" stroke="#000000" stroke-dasharray="5,2" d="M549.5952,-180C490.2001,-180 411.8231,-180 411.8231,-180 411.8231,-180 411.8231,-205.7181 411.8231,-205.7181"/>
<polygon fill="#000000" stroke="#000000" points="408.3232,-205.718 411.8231,-215.7181 415.3232,-205.7181 408.3232,-205.718"/>
</g>
<!-- SpinnerComponent  -->
<g id="node13" class="node">
<title>SpinnerComponent </title>
<polygon fill="#fb8072" stroke="#000000" points="315.3814,-252 186.6186,-252 186.6186,-216 315.3814,-216 315.3814,-252"/>
<text text-anchor="middle" x="251" y="-229.8" font-family="Times,serif" font-size="14.00" fill="#000000">SpinnerComponent </text>
</g>
<!-- ComponentsModule&#45;&gt;SpinnerComponent  -->
<g id="edge12" class="edge">
<title>ComponentsModule&#45;&gt;SpinnerComponent </title>
<path fill="none" stroke="#000000" stroke-dasharray="5,2" d="M549.4808,-173C451.7919,-173 279.3207,-173 279.3207,-173 279.3207,-173 279.3207,-205.698 279.3207,-205.698"/>
<polygon fill="#000000" stroke="#000000" points="275.8207,-205.698 279.3207,-215.698 282.8207,-205.698 275.8207,-205.698"/>
</g>
<!-- StarRatingComponent  -->
<g id="node14" class="node">
<title>StarRatingComponent </title>
<polygon fill="#fb8072" stroke="#000000" points="168.2135,-252 23.7865,-252 23.7865,-216 168.2135,-216 168.2135,-252"/>
<text text-anchor="middle" x="96" y="-229.8" font-family="Times,serif" font-size="14.00" fill="#000000">StarRatingComponent </text>
</g>
<!-- ComponentsModule&#45;&gt;StarRatingComponent  -->
<g id="edge13" class="edge">
<title>ComponentsModule&#45;&gt;StarRatingComponent </title>
<path fill="none" stroke="#000000" stroke-dasharray="5,2" d="M549.7938,-166C410.4011,-166 96,-166 96,-166 96,-166 96,-205.7772 96,-205.7772"/>
<polygon fill="#000000" stroke="#000000" points="92.5001,-205.7772 96,-215.7772 99.5001,-205.7773 92.5001,-205.7772"/>
</g>
</g>
</svg>
