<?xml version="1.0" encoding="UTF-8" standalone="no"?>
<!DOCTYPE svg PUBLIC "-//W3C//DTD SVG 1.1//EN"
 "http://www.w3.org/Graphics/SVG/1.1/DTD/svg11.dtd">
<!-- Generated by graphviz version 2.44.1 (20200629.0846)
 -->
<!-- Title: dependencies Pages: 1 -->
<svg width="504pt" height="284pt"
 viewBox="0.00 0.00 504.00 284.00" xmlns="http://www.w3.org/2000/svg" xmlns:xlink="http://www.w3.org/1999/xlink">
<g id="graph0" class="graph" transform="scale(1 1) rotate(0) translate(4 280)">
<title>dependencies</title>
<polygon fill="white" stroke="transparent" points="-4,4 -4,-280 500,-280 500,4 -4,4"/>
<text text-anchor="start" x="227.01" y="-42.4" font-family="sans-serif" font-weight="bold" font-size="14.00">Legend</text>
<polygon fill="#ffffb3" stroke="transparent" points="14,-10 14,-30 34,-30 34,-10 14,-10"/>
<text text-anchor="start" x="37.63" y="-15.4" font-family="sans-serif" font-size="14.00"> &#160;Declarations</text>
<polygon fill="#8dd3c7" stroke="transparent" points="127,-10 127,-30 147,-30 147,-10 127,-10"/>
<text text-anchor="start" x="150.73" y="-15.4" font-family="sans-serif" font-size="14.00"> &#160;Module</text>
<polygon fill="#80b1d3" stroke="transparent" points="213,-10 213,-30 233,-30 233,-10 213,-10"/>
<text text-anchor="start" x="236.78" y="-15.4" font-family="sans-serif" font-size="14.00"> &#160;Bootstrap</text>
<polygon fill="#fdb462" stroke="transparent" points="310,-10 310,-30 330,-30 330,-10 310,-10"/>
<text text-anchor="start" x="333.67" y="-15.4" font-family="sans-serif" font-size="14.00"> &#160;Providers</text>
<polygon fill="#fb8072" stroke="transparent" points="406,-10 406,-30 426,-30 426,-10 406,-10"/>
<text text-anchor="start" x="429.73" y="-15.4" font-family="sans-serif" font-size="14.00"> &#160;Exports</text>
<g id="clust1" class="cluster">
<title>cluster_ProductAttributesModule</title>
<polygon fill="none" stroke="black" stroke-dasharray="1,5" points="87,-70 87,-268 409,-268 409,-70 87,-70"/>
</g>
<g id="clust2" class="cluster">
<title>cluster_ProductAttributesModule_declarations</title>
<polygon fill="none" stroke="black" points="205,-78 205,-130 401,-130 401,-78 205,-78"/>
</g>
<g id="clust4" class="cluster">
<title>cluster_ProductAttributesModule_imports</title>
<polygon fill="none" stroke="black" points="95,-78 95,-130 197,-130 197,-78 95,-78"/>
</g>
<g id="clust5" class="cluster">
<title>cluster_ProductAttributesModule_exports</title>
<polygon fill="none" stroke="black" points="148,-208 148,-260 348,-260 348,-208 148,-208"/>
</g>
<!-- ProductAttributesComponent -->
<g id="node1" class="node">
<title>ProductAttributesComponent</title>
<polygon fill="#ffffb3" stroke="black" points="393.37,-122 212.63,-122 212.63,-86 393.37,-86 393.37,-122"/>
<text text-anchor="middle" x="303" y="-99.8" font-family="Times,serif" font-size="14.00">ProductAttributesComponent</text>
</g>
<!-- ProductAttributesModule -->
<g id="node2" class="node">
<title>ProductAttributesModule</title>
<polygon fill="#8dd3c7" stroke="black" points="327.59,-187 324.59,-191 303.59,-191 300.59,-187 168.41,-187 168.41,-151 327.59,-151 327.59,-187"/>
<text text-anchor="middle" x="248" y="-164.8" font-family="Times,serif" font-size="14.00">ProductAttributesModule</text>
</g>
<!-- ProductAttributesComponent&#45;&gt;ProductAttributesModule -->
<g id="edge1" class="edge">
<title>ProductAttributesComponent&#45;&gt;ProductAttributesModule</title>
<path fill="none" stroke="black" d="M270.05,-122.11C270.05,-122.11 270.05,-140.99 270.05,-140.99"/>
<polygon fill="black" stroke="black" points="266.55,-140.99 270.05,-150.99 273.55,-140.99 266.55,-140.99"/>
</g>
<!-- ProductAttributesComponent  -->
<g id="node4" class="node">
<title>ProductAttributesComponent </title>
<polygon fill="#fb8072" stroke="black" points="340.37,-252 155.63,-252 155.63,-216 340.37,-216 340.37,-252"/>
<text text-anchor="middle" x="248" y="-229.8" font-family="Times,serif" font-size="14.00">ProductAttributesComponent </text>
</g>
<!-- ProductAttributesModule&#45;&gt;ProductAttributesComponent  -->
<g id="edge3" class="edge">
<title>ProductAttributesModule&#45;&gt;ProductAttributesComponent </title>
<path fill="none" stroke="black" stroke-dasharray="5,2" d="M248,-187.11C248,-187.11 248,-205.99 248,-205.99"/>
<polygon fill="black" stroke="black" points="244.5,-205.99 248,-215.99 251.5,-205.99 244.5,-205.99"/>
</g>
<!-- I18nModule -->
<g id="node3" class="node">
<title>I18nModule</title>
<polygon fill="#8dd3c7" stroke="black" points="188.71,-122 185.71,-126 164.71,-126 161.71,-122 103.29,-122 103.29,-86 188.71,-86 188.71,-122"/>
<text text-anchor="middle" x="146" y="-99.8" font-family="Times,serif" font-size="14.00">I18nModule</text>
</g>
<!-- I18nModule&#45;&gt;ProductAttributesModule -->
<g id="edge2" class="edge">
<title>I18nModule&#45;&gt;ProductAttributesModule</title>
<path fill="none" stroke="black" d="M178.53,-122.11C178.53,-122.11 178.53,-140.99 178.53,-140.99"/>
<polygon fill="black" stroke="black" points="175.03,-140.99 178.53,-150.99 182.03,-140.99 175.03,-140.99"/>
</g>
</g>
</svg>
