<?xml version="1.0" encoding="UTF-8" standalone="no"?>
<!DOCTYPE svg PUBLIC "-//W3C//DTD SVG 1.1//EN"
 "http://www.w3.org/Graphics/SVG/1.1/DTD/svg11.dtd">
<!-- Generated by graphviz version 2.47.0 (20210316.0004)
 -->
<!-- Title: dependencies Pages: 1 -->
<svg width="504pt" height="211pt"
 viewBox="0.00 0.00 504.00 211.00" xmlns="http://www.w3.org/2000/svg" xmlns:xlink="http://www.w3.org/1999/xlink">
<g id="graph0" class="graph" transform="scale(1 1) rotate(0) translate(4 207)">
<title>dependencies</title>
<polygon fill="white" stroke="transparent" points="-4,4 -4,-207 500,-207 500,4 -4,4"/>
<text text-anchor="start" x="227.01" y="-42.4" font-family="sans-serif" font-weight="bold" font-size="14.00">Legend</text>
<polygon fill="#ffffb3" stroke="transparent" points="14,-10 14,-30 34,-30 34,-10 14,-10"/>
<text text-anchor="start" x="37.63" y="-15.4" font-family="sans-serif" font-size="14.00"> &#160;Declarations</text>
<polygon fill="#8dd3c7" stroke="transparent" points="127,-10 127,-30 147,-30 147,-10 127,-10"/>
<text text-anchor="start" x="150.73" y="-15.4" font-family="sans-serif" font-size="14.00"> &#160;Module</text>
<polygon fill="#80b1d3" stroke="transparent" points="213,-10 213,-30 233,-30 233,-10 213,-10"/>
<text text-anchor="start" x="236.78" y="-15.4" font-family="sans-serif" font-size="14.00"> &#160;Bootstrap</text>
<polygon fill="#fdb462" stroke="transparent" points="310,-10 310,-30 330,-30 330,-10 310,-10"/>
<text text-anchor="start" x="333.67" y="-15.4" font-family="sans-serif" font-size="14.00"> &#160;Providers</text>
<polygon fill="#fb8072" stroke="transparent" points="406,-10 406,-30 426,-30 426,-10 406,-10"/>
<text text-anchor="start" x="429.73" y="-15.4" font-family="sans-serif" font-size="14.00"> &#160;Exports</text>
<g id="clust1" class="cluster">
<title>cluster_SiteContextModule</title>
<polygon fill="none" stroke="black" stroke-dasharray="1,5" points="13.5,-70 13.5,-195 482.5,-195 482.5,-70 13.5,-70"/>
</g>
<g id="clust3" class="cluster">
<title>cluster_SiteContextModule_imports</title>
<polygon fill="none" stroke="black" points="21.5,-78 21.5,-130 474.5,-130 474.5,-78 21.5,-78"/>
</g>
<!-- SiteContextEventModule -->
<g id="node1" class="node">
<title>SiteContextEventModule</title>
<polygon fill="#8dd3c7" stroke="black" points="466.82,-122 463.82,-126 442.82,-126 439.82,-122 308.18,-122 308.18,-86 466.82,-86 466.82,-122"/>
<text text-anchor="middle" x="387.5" y="-99.8" font-family="Times,serif" font-size="14.00">SiteContextEventModule</text>
</g>
<!-- SiteContextModule -->
<g id="node4" class="node">
<title>SiteContextModule</title>
<polygon fill="#8dd3c7" stroke="black" points="275.16,-187 272.16,-191 251.16,-191 248.16,-187 149.84,-187 149.84,-151 275.16,-151 275.16,-187"/>
<text text-anchor="middle" x="212.5" y="-164.8" font-family="Times,serif" font-size="14.00">SiteContextModule</text>
</g>
<!-- SiteContextEventModule&#45;&gt;SiteContextModule -->
<g id="edge1" class="edge">
<title>SiteContextEventModule&#45;&gt;SiteContextModule</title>
<path fill="none" stroke="black" d="M387.5,-122.11C387.5,-141.34 387.5,-169 387.5,-169 387.5,-169 285.18,-169 285.18,-169"/>
<polygon fill="black" stroke="black" points="285.18,-165.5 275.18,-169 285.18,-172.5 285.18,-165.5"/>
</g>
<!-- SiteContextStoreModule -->
<g id="node2" class="node">
<title>SiteContextStoreModule</title>
<polygon fill="#8dd3c7" stroke="black" points="290.21,-122 287.21,-126 266.21,-126 263.21,-122 134.79,-122 134.79,-86 290.21,-86 290.21,-122"/>
<text text-anchor="middle" x="212.5" y="-99.8" font-family="Times,serif" font-size="14.00">SiteContextStoreModule</text>
</g>
<!-- SiteContextStoreModule&#45;&gt;SiteContextModule -->
<g id="edge2" class="edge">
<title>SiteContextStoreModule&#45;&gt;SiteContextModule</title>
<path fill="none" stroke="black" d="M212.5,-122.11C212.5,-122.11 212.5,-140.99 212.5,-140.99"/>
<polygon fill="black" stroke="black" points="209,-140.99 212.5,-150.99 216,-140.99 209,-140.99"/>
</g>
<!-- StateModule -->
<g id="node3" class="node">
<title>StateModule</title>
<polygon fill="#8dd3c7" stroke="black" points="117.04,-122 114.04,-126 93.04,-126 90.04,-122 29.96,-122 29.96,-86 117.04,-86 117.04,-122"/>
<text text-anchor="middle" x="73.5" y="-99.8" font-family="Times,serif" font-size="14.00">StateModule</text>
</g>
<!-- StateModule&#45;&gt;SiteContextModule -->
<g id="edge3" class="edge">
<title>StateModule&#45;&gt;SiteContextModule</title>
<path fill="none" stroke="black" d="M73.5,-122.11C73.5,-141.34 73.5,-169 73.5,-169 73.5,-169 139.51,-169 139.51,-169"/>
<polygon fill="black" stroke="black" points="139.51,-172.5 149.51,-169 139.51,-165.5 139.51,-172.5"/>
</g>
</g>
</svg>
