<?xml version="1.0" encoding="UTF-8" standalone="no"?>
<!DOCTYPE svg PUBLIC "-//W3C//DTD SVG 1.1//EN"
 "http://www.w3.org/Graphics/SVG/1.1/DTD/svg11.dtd">
<!-- Generated by graphviz version 2.40.1 (20161225.0304)
 -->
<!-- Title: dependencies Pages: 1 -->
<svg width="504pt" height="211pt"
 viewBox="0.00 0.00 504.00 211.00" xmlns="http://www.w3.org/2000/svg" xmlns:xlink="http://www.w3.org/1999/xlink">
<g id="graph0" class="graph" transform="scale(1 1) rotate(0) translate(4 207)">
<title>dependencies</title>
<polygon fill="#ffffff" stroke="transparent" points="-4,4 -4,-207 500,-207 500,4 -4,4"/>
<text text-anchor="start" x="227.0091" y="-42.4" font-family="sans-serif" font-weight="bold" font-size="14.00" fill="#000000">Legend</text>
<polygon fill="#ffffb3" stroke="transparent" points="14,-10 14,-30 34,-30 34,-10 14,-10"/>
<text text-anchor="start" x="37.629" y="-15.4" font-family="sans-serif" font-size="14.00" fill="#000000"> &#160;Declarations</text>
<polygon fill="#8dd3c7" stroke="transparent" points="127,-10 127,-30 147,-30 147,-10 127,-10"/>
<text text-anchor="start" x="150.7251" y="-15.4" font-family="sans-serif" font-size="14.00" fill="#000000"> &#160;Module</text>
<polygon fill="#80b1d3" stroke="transparent" points="213,-10 213,-30 233,-30 233,-10 213,-10"/>
<text text-anchor="start" x="236.7812" y="-15.4" font-family="sans-serif" font-size="14.00" fill="#000000"> &#160;Bootstrap</text>
<polygon fill="#fdb462" stroke="transparent" points="310,-10 310,-30 330,-30 330,-10 310,-10"/>
<text text-anchor="start" x="333.6732" y="-15.4" font-family="sans-serif" font-size="14.00" fill="#000000"> &#160;Providers</text>
<polygon fill="#fb8072" stroke="transparent" points="406,-10 406,-30 426,-30 426,-10 406,-10"/>
<text text-anchor="start" x="429.7258" y="-15.4" font-family="sans-serif" font-size="14.00" fill="#000000"> &#160;Exports</text>
<g id="clust1" class="cluster">
<title>cluster_SiteContextModule</title>
<polygon fill="none" stroke="#000000" stroke-dasharray="1,5" points="101.5,-70 101.5,-195 394.5,-195 394.5,-70 101.5,-70"/>
</g>
<g id="clust3" class="cluster">
<title>cluster_SiteContextModule_imports</title>
<polygon fill="none" stroke="#000000" points="109.5,-78 109.5,-130 386.5,-130 386.5,-78 109.5,-78"/>
</g>
<!-- SiteContextStoreModule -->
<g id="node1" class="node">
<title>SiteContextStoreModule</title>
<polygon fill="#8dd3c7" stroke="#000000" points="378.2091,-122 375.2091,-126 354.2091,-126 351.2091,-122 222.7909,-122 222.7909,-86 378.2091,-86 378.2091,-122"/>
<text text-anchor="middle" x="300.5" y="-99.8" font-family="Times,serif" font-size="14.00" fill="#000000">SiteContextStoreModule</text>
</g>
<!-- SiteContextModule -->
<g id="node3" class="node">
<title>SiteContextModule</title>
<polygon fill="#8dd3c7" stroke="#000000" points="299.1611,-187 296.1611,-191 275.1611,-191 272.1611,-187 173.8389,-187 173.8389,-151 299.1611,-151 299.1611,-187"/>
<text text-anchor="middle" x="236.5" y="-164.8" font-family="Times,serif" font-size="14.00" fill="#000000">SiteContextModule</text>
</g>
<!-- SiteContextStoreModule&#45;&gt;SiteContextModule -->
<g id="edge1" class="edge">
<title>SiteContextStoreModule&#45;&gt;SiteContextModule</title>
<path fill="none" stroke="#000000" d="M261.1129,-122.1061C261.1129,-122.1061 261.1129,-140.991 261.1129,-140.991"/>
<polygon fill="#000000" stroke="#000000" points="257.613,-140.9909 261.1129,-150.991 264.613,-140.991 257.613,-140.9909"/>
</g>
<!-- StateModule -->
<g id="node2" class="node">
<title>StateModule</title>
<polygon fill="#8dd3c7" stroke="#000000" points="205.044,-122 202.044,-126 181.044,-126 178.044,-122 117.956,-122 117.956,-86 205.044,-86 205.044,-122"/>
<text text-anchor="middle" x="161.5" y="-99.8" font-family="Times,serif" font-size="14.00" fill="#000000">StateModule</text>
</g>
<!-- StateModule&#45;&gt;SiteContextModule -->
<g id="edge2" class="edge">
<title>StateModule&#45;&gt;SiteContextModule</title>
<path fill="none" stroke="#000000" d="M189.4706,-122.1061C189.4706,-122.1061 189.4706,-140.991 189.4706,-140.991"/>
<polygon fill="#000000" stroke="#000000" points="185.9706,-140.9909 189.4706,-150.991 192.9706,-140.991 185.9706,-140.9909"/>
</g>
</g>
</svg>
