<?xml version="1.0" encoding="UTF-8" standalone="no"?>
<!DOCTYPE svg PUBLIC "-//W3C//DTD SVG 1.1//EN"
 "http://www.w3.org/Graphics/SVG/1.1/DTD/svg11.dtd">
<!-- Generated by graphviz version 2.47.3 (20210619.1520)
 -->
<!-- Title: dependencies Pages: 1 -->
<svg width="344pt" height="247pt"
 viewBox="0.00 0.00 344.00 246.80" xmlns="http://www.w3.org/2000/svg" xmlns:xlink="http://www.w3.org/1999/xlink">
<g id="graph0" class="graph" transform="scale(1 1) rotate(0) translate(4 242.8)">
<title>dependencies</title>
<polygon fill="white" stroke="transparent" points="-4,4 -4,-242.8 340,-242.8 340,4 -4,4"/>
<text text-anchor="middle" x="168" y="-8.2" font-family="sans-serif" font-size="14.00">dependencies</text>
<g id="clust1" class="cluster">
<title>cluster_HamburgerMenuModule</title>
<polygon fill="none" stroke="black" stroke-dasharray="1,5" points="8,-32.8 8,-230.8 328,-230.8 328,-32.8 8,-32.8"/>
</g>
<g id="clust5" class="cluster">
<title>cluster_HamburgerMenuModule_exports</title>
<polygon fill="none" stroke="black" points="69,-170.8 69,-222.8 267,-222.8 267,-170.8 69,-170.8"/>
</g>
<g id="clust2" class="cluster">
<title>cluster_HamburgerMenuModule_declarations</title>
<polygon fill="none" stroke="black" points="126,-40.8 126,-92.8 320,-92.8 320,-40.8 126,-40.8"/>
</g>
<g id="clust4" class="cluster">
<title>cluster_HamburgerMenuModule_imports</title>
<polygon fill="none" stroke="black" points="16,-40.8 16,-92.8 118,-92.8 118,-40.8 16,-40.8"/>
</g>
<!-- HamburgerMenuComponent -->
<g id="node1" class="node">
<title>HamburgerMenuComponent</title>
<polygon fill="#ffffb3" stroke="black" points="311.74,-84.8 134.26,-84.8 134.26,-48.8 311.74,-48.8 311.74,-84.8"/>
<text text-anchor="middle" x="223" y="-62.6" font-family="Times,serif" font-size="14.00">HamburgerMenuComponent</text>
</g>
<!-- HamburgerMenuModule -->
<g id="node2" class="node">
<title>HamburgerMenuModule</title>
<polygon fill="#8dd3c7" stroke="black" points="245.96,-149.8 242.96,-153.8 221.96,-153.8 218.96,-149.8 90.04,-149.8 90.04,-113.8 245.96,-113.8 245.96,-149.8"/>
<text text-anchor="middle" x="168" y="-127.6" font-family="Times,serif" font-size="14.00">HamburgerMenuModule</text>
</g>
<!-- HamburgerMenuComponent&#45;&gt;HamburgerMenuModule -->
<g id="edge1" class="edge">
<title>HamburgerMenuComponent&#45;&gt;HamburgerMenuModule</title>
<path fill="none" stroke="black" d="M190.05,-84.91C190.05,-84.91 190.05,-103.79 190.05,-103.79"/>
<polygon fill="black" stroke="black" points="186.55,-103.79 190.05,-113.79 193.55,-103.79 186.55,-103.79"/>
</g>
<!-- HamburgerMenuComponent  -->
<g id="node4" class="node">
<title>HamburgerMenuComponent </title>
<polygon fill="#fb8072" stroke="black" points="258.74,-214.8 77.26,-214.8 77.26,-178.8 258.74,-178.8 258.74,-214.8"/>
<text text-anchor="middle" x="168" y="-192.6" font-family="Times,serif" font-size="14.00">HamburgerMenuComponent </text>
</g>
<!-- HamburgerMenuModule&#45;&gt;HamburgerMenuComponent  -->
<g id="edge3" class="edge">
<title>HamburgerMenuModule&#45;&gt;HamburgerMenuComponent </title>
<path fill="none" stroke="black" stroke-dasharray="5,2" d="M168,-149.91C168,-149.91 168,-168.79 168,-168.79"/>
<polygon fill="black" stroke="black" points="164.5,-168.79 168,-178.79 171.5,-168.79 164.5,-168.79"/>
</g>
<!-- I18nModule -->
<g id="node3" class="node">
<title>I18nModule</title>
<polygon fill="#8dd3c7" stroke="black" points="109.71,-84.8 106.71,-88.8 85.71,-88.8 82.71,-84.8 24.29,-84.8 24.29,-48.8 109.71,-48.8 109.71,-84.8"/>
<text text-anchor="middle" x="67" y="-62.6" font-family="Times,serif" font-size="14.00">I18nModule</text>
</g>
<!-- I18nModule&#45;&gt;HamburgerMenuModule -->
<g id="edge2" class="edge">
<title>I18nModule&#45;&gt;HamburgerMenuModule</title>
<path fill="none" stroke="black" d="M99.81,-84.91C99.81,-84.91 99.81,-103.79 99.81,-103.79"/>
<polygon fill="black" stroke="black" points="96.31,-103.79 99.81,-113.79 103.31,-103.79 96.31,-103.79"/>
</g>
</g>
</svg>
