<?xml version="1.0" encoding="UTF-8" standalone="no"?>
<!DOCTYPE svg PUBLIC "-//W3C//DTD SVG 1.1//EN"
 "http://www.w3.org/Graphics/SVG/1.1/DTD/svg11.dtd">
<!-- Generated by graphviz version 2.47.3 (20210619.1520)
 -->
<!-- Title: dependencies Pages: 1 -->
<svg width="238pt" height="247pt"
 viewBox="0.00 0.00 238.00 246.80" xmlns="http://www.w3.org/2000/svg" xmlns:xlink="http://www.w3.org/1999/xlink">
<g id="graph0" class="graph" transform="scale(1 1) rotate(0) translate(4 242.8)">
<title>dependencies</title>
<polygon fill="white" stroke="transparent" points="-4,4 -4,-242.8 234,-242.8 234,4 -4,4"/>
<text text-anchor="middle" x="115" y="-8.2" font-family="sans-serif" font-size="14.00">dependencies</text>
<g id="clust1" class="cluster">
<title>cluster_HamburgerMenuModule</title>
<polygon fill="none" stroke="black" stroke-dasharray="1,5" points="8,-32.8 8,-230.8 222,-230.8 222,-32.8 8,-32.8"/>
</g>
<g id="clust2" class="cluster">
<title>cluster_HamburgerMenuModule_declarations</title>
<polygon fill="none" stroke="black" points="18,-40.8 18,-92.8 212,-92.8 212,-40.8 18,-40.8"/>
</g>
<g id="clust5" class="cluster">
<title>cluster_HamburgerMenuModule_exports</title>
<polygon fill="none" stroke="black" points="16,-170.8 16,-222.8 214,-222.8 214,-170.8 16,-170.8"/>
</g>
<!-- HamburgerMenuComponent -->
<g id="node1" class="node">
<title>HamburgerMenuComponent</title>
<polygon fill="#ffffb3" stroke="black" points="203.74,-84.8 26.26,-84.8 26.26,-48.8 203.74,-48.8 203.74,-84.8"/>
<text text-anchor="middle" x="115" y="-62.6" font-family="Times,serif" font-size="14.00">HamburgerMenuComponent</text>
</g>
<!-- HamburgerMenuModule -->
<g id="node2" class="node">
<title>HamburgerMenuModule</title>
<polygon fill="#8dd3c7" stroke="black" points="192.96,-149.8 189.96,-153.8 168.96,-153.8 165.96,-149.8 37.04,-149.8 37.04,-113.8 192.96,-113.8 192.96,-149.8"/>
<text text-anchor="middle" x="115" y="-127.6" font-family="Times,serif" font-size="14.00">HamburgerMenuModule</text>
</g>
<!-- HamburgerMenuComponent&#45;&gt;HamburgerMenuModule -->
<g id="edge1" class="edge">
<title>HamburgerMenuComponent&#45;&gt;HamburgerMenuModule</title>
<path fill="none" stroke="black" d="M115,-84.91C115,-84.91 115,-103.79 115,-103.79"/>
<polygon fill="black" stroke="black" points="111.5,-103.79 115,-113.79 118.5,-103.79 111.5,-103.79"/>
</g>
<!-- HamburgerMenuComponent  -->
<g id="node3" class="node">
<title>HamburgerMenuComponent </title>
<polygon fill="#fb8072" stroke="black" points="205.74,-214.8 24.26,-214.8 24.26,-178.8 205.74,-178.8 205.74,-214.8"/>
<text text-anchor="middle" x="115" y="-192.6" font-family="Times,serif" font-size="14.00">HamburgerMenuComponent </text>
</g>
<!-- HamburgerMenuModule&#45;&gt;HamburgerMenuComponent  -->
<g id="edge2" class="edge">
<title>HamburgerMenuModule&#45;&gt;HamburgerMenuComponent </title>
<path fill="none" stroke="black" stroke-dasharray="5,2" d="M115,-149.91C115,-149.91 115,-168.79 115,-168.79"/>
<polygon fill="black" stroke="black" points="111.5,-168.79 115,-178.79 118.5,-168.79 111.5,-168.79"/>
</g>
</g>
</svg>
