<?xml version="1.0" encoding="UTF-8" standalone="no"?>
<!DOCTYPE svg PUBLIC "-//W3C//DTD SVG 1.1//EN"
 "http://www.w3.org/Graphics/SVG/1.1/DTD/svg11.dtd">
<!-- Generated by graphviz version 2.40.1 (20161225.0304)
 -->
<!-- Title: dependencies Pages: 1 -->
<svg width="575pt" height="284pt"
 viewBox="0.00 0.00 575.00 284.00" xmlns="http://www.w3.org/2000/svg" xmlns:xlink="http://www.w3.org/1999/xlink">
<g id="graph0" class="graph" transform="scale(1 1) rotate(0) translate(4 280)">
<title>dependencies</title>
<polygon fill="#ffffff" stroke="transparent" points="-4,4 -4,-280 571,-280 571,4 -4,4"/>
<text text-anchor="start" x="262.5091" y="-42.4" font-family="sans-serif" font-weight="bold" font-size="14.00" fill="#000000">Legend</text>
<polygon fill="#ffffb3" stroke="transparent" points="49.5,-10 49.5,-30 69.5,-30 69.5,-10 49.5,-10"/>
<text text-anchor="start" x="73.129" y="-15.4" font-family="sans-serif" font-size="14.00" fill="#000000"> &#160;Declarations</text>
<polygon fill="#8dd3c7" stroke="transparent" points="162.5,-10 162.5,-30 182.5,-30 182.5,-10 162.5,-10"/>
<text text-anchor="start" x="186.2251" y="-15.4" font-family="sans-serif" font-size="14.00" fill="#000000"> &#160;Module</text>
<polygon fill="#80b1d3" stroke="transparent" points="248.5,-10 248.5,-30 268.5,-30 268.5,-10 248.5,-10"/>
<text text-anchor="start" x="272.2812" y="-15.4" font-family="sans-serif" font-size="14.00" fill="#000000"> &#160;Bootstrap</text>
<polygon fill="#fdb462" stroke="transparent" points="345.5,-10 345.5,-30 365.5,-30 365.5,-10 345.5,-10"/>
<text text-anchor="start" x="369.1732" y="-15.4" font-family="sans-serif" font-size="14.00" fill="#000000"> &#160;Providers</text>
<polygon fill="#fb8072" stroke="transparent" points="441.5,-10 441.5,-30 461.5,-30 461.5,-10 441.5,-10"/>
<text text-anchor="start" x="465.2258" y="-15.4" font-family="sans-serif" font-size="14.00" fill="#000000"> &#160;Exports</text>
<g id="clust1" class="cluster">
<title>cluster_LayoutModule</title>
<polygon fill="none" stroke="#000000" stroke-dasharray="1,5" points="8,-70 8,-268 559,-268 559,-70 8,-70"/>
</g>
<g id="clust3" class="cluster">
<title>cluster_LayoutModule_imports</title>
<polygon fill="none" stroke="#000000" points="16,-78 16,-130 551,-130 551,-78 16,-78"/>
</g>
<g id="clust4" class="cluster">
<title>cluster_LayoutModule_exports</title>
<polygon fill="none" stroke="#000000" points="203,-208 203,-260 337,-260 337,-208 203,-208"/>
</g>
<!-- DirectionModule -->
<g id="node1" class="node">
<title>DirectionModule</title>
<polygon fill="#8dd3c7" stroke="#000000" points="543.4188,-122 540.4188,-126 519.4188,-126 516.4188,-122 430.5812,-122 430.5812,-86 543.4188,-86 543.4188,-122"/>
<text text-anchor="middle" x="487" y="-99.8" font-family="Times,serif" font-size="14.00" fill="#000000">DirectionModule</text>
</g>
<!-- LayoutModule -->
<g id="node5" class="node">
<title>LayoutModule</title>
<polygon fill="#8dd3c7" stroke="#000000" points="319.7078,-187 316.7078,-191 295.7078,-191 292.7078,-187 220.2922,-187 220.2922,-151 319.7078,-151 319.7078,-187"/>
<text text-anchor="middle" x="270" y="-164.8" font-family="Times,serif" font-size="14.00" fill="#000000">LayoutModule</text>
</g>
<!-- DirectionModule&#45;&gt;LayoutModule -->
<g id="edge1" class="edge">
<title>DirectionModule&#45;&gt;LayoutModule</title>
<path fill="none" stroke="#000000" d="M487,-122.1061C487,-141.3391 487,-169 487,-169 487,-169 329.7842,-169 329.7842,-169"/>
<polygon fill="#000000" stroke="#000000" points="329.7842,-165.5001 319.7842,-169 329.7841,-172.5001 329.7842,-165.5001"/>
</g>
<!-- LaunchDialogModule -->
<g id="node2" class="node">
<title>LaunchDialogModule</title>
<polygon fill="#8dd3c7" stroke="#000000" points="412.6345,-122 409.6345,-126 388.6345,-126 385.6345,-122 273.3655,-122 273.3655,-86 412.6345,-86 412.6345,-122"/>
<text text-anchor="middle" x="343" y="-99.8" font-family="Times,serif" font-size="14.00" fill="#000000">LaunchDialogModule</text>
</g>
<!-- LaunchDialogModule&#45;&gt;LayoutModule -->
<g id="edge2" class="edge">
<title>LaunchDialogModule&#45;&gt;LayoutModule</title>
<path fill="none" stroke="#000000" d="M296.3934,-122.1061C296.3934,-122.1061 296.3934,-140.991 296.3934,-140.991"/>
<polygon fill="#000000" stroke="#000000" points="292.8935,-140.9909 296.3934,-150.991 299.8935,-140.991 292.8935,-140.9909"/>
</g>
<!-- OutletRefModule -->
<g id="node3" class="node">
<title>OutletRefModule</title>
<polygon fill="#8dd3c7" stroke="#000000" points="255.2549,-122 252.2549,-126 231.2549,-126 228.2549,-122 140.7451,-122 140.7451,-86 255.2549,-86 255.2549,-122"/>
<text text-anchor="middle" x="198" y="-99.8" font-family="Times,serif" font-size="14.00" fill="#000000">OutletRefModule</text>
</g>
<!-- OutletRefModule&#45;&gt;LayoutModule -->
<g id="edge3" class="edge">
<title>OutletRefModule&#45;&gt;LayoutModule</title>
<path fill="none" stroke="#000000" d="M237.8868,-122.1061C237.8868,-122.1061 237.8868,-140.991 237.8868,-140.991"/>
<polygon fill="#000000" stroke="#000000" points="234.3868,-140.9909 237.8868,-150.991 241.3868,-140.991 234.3868,-140.9909"/>
</g>
<!-- ThemeModule -->
<g id="node4" class="node">
<title>ThemeModule</title>
<polygon fill="#8dd3c7" stroke="#000000" points="122.4231,-122 119.4231,-126 98.4231,-126 95.4231,-122 23.5769,-122 23.5769,-86 122.4231,-86 122.4231,-122"/>
<text text-anchor="middle" x="73" y="-99.8" font-family="Times,serif" font-size="14.00" fill="#000000">ThemeModule</text>
</g>
<!-- ThemeModule&#45;&gt;LayoutModule -->
<g id="edge4" class="edge">
<title>ThemeModule&#45;&gt;LayoutModule</title>
<path fill="none" stroke="#000000" d="M73,-122.1061C73,-141.3391 73,-169 73,-169 73,-169 210.2886,-169 210.2886,-169"/>
<polygon fill="#000000" stroke="#000000" points="210.2886,-172.5001 220.2886,-169 210.2885,-165.5001 210.2886,-172.5001"/>
</g>
<!-- OutletRefModule  -->
<g id="node6" class="node">
<title>OutletRefModule </title>
<polygon fill="#fb8072" stroke="#000000" points="329.2549,-252 210.7451,-252 210.7451,-216 329.2549,-216 329.2549,-252"/>
<text text-anchor="middle" x="270" y="-229.8" font-family="Times,serif" font-size="14.00" fill="#000000">OutletRefModule </text>
</g>
<!-- LayoutModule&#45;&gt;OutletRefModule  -->
<g id="edge5" class="edge">
<title>LayoutModule&#45;&gt;OutletRefModule </title>
<path fill="none" stroke="#000000" stroke-dasharray="5,2" d="M270,-187.1061C270,-187.1061 270,-205.991 270,-205.991"/>
<polygon fill="#000000" stroke="#000000" points="266.5001,-205.9909 270,-215.991 273.5001,-205.991 266.5001,-205.9909"/>
</g>
</g>
</svg>
