<?xml version="1.0" encoding="UTF-8" standalone="no"?>
<!DOCTYPE svg PUBLIC "-//W3C//DTD SVG 1.1//EN"
 "http://www.w3.org/Graphics/SVG/1.1/DTD/svg11.dtd">
<!-- Generated by graphviz version 2.44.1 (20200629.0846)
 -->
<!-- Title: dependencies Pages: 1 -->
<svg width="504pt" height="284pt"
 viewBox="0.00 0.00 504.00 284.00" xmlns="http://www.w3.org/2000/svg" xmlns:xlink="http://www.w3.org/1999/xlink">
<g id="graph0" class="graph" transform="scale(1 1) rotate(0) translate(4 280)">
<title>dependencies</title>
<polygon fill="white" stroke="transparent" points="-4,4 -4,-280 500,-280 500,4 -4,4"/>
<text text-anchor="start" x="227.01" y="-42.4" font-family="sans-serif" font-weight="bold" font-size="14.00">Legend</text>
<polygon fill="#ffffb3" stroke="transparent" points="14,-10 14,-30 34,-30 34,-10 14,-10"/>
<text text-anchor="start" x="37.63" y="-15.4" font-family="sans-serif" font-size="14.00"> &#160;Declarations</text>
<polygon fill="#8dd3c7" stroke="transparent" points="127,-10 127,-30 147,-30 147,-10 127,-10"/>
<text text-anchor="start" x="150.73" y="-15.4" font-family="sans-serif" font-size="14.00"> &#160;Module</text>
<polygon fill="#80b1d3" stroke="transparent" points="213,-10 213,-30 233,-30 233,-10 213,-10"/>
<text text-anchor="start" x="236.78" y="-15.4" font-family="sans-serif" font-size="14.00"> &#160;Bootstrap</text>
<polygon fill="#fdb462" stroke="transparent" points="310,-10 310,-30 330,-30 330,-10 310,-10"/>
<text text-anchor="start" x="333.67" y="-15.4" font-family="sans-serif" font-size="14.00"> &#160;Providers</text>
<polygon fill="#fb8072" stroke="transparent" points="406,-10 406,-30 426,-30 426,-10 406,-10"/>
<text text-anchor="start" x="429.73" y="-15.4" font-family="sans-serif" font-size="14.00"> &#160;Exports</text>
<g id="clust1" class="cluster">
<title>cluster_LayoutModule</title>
<polygon fill="none" stroke="black" stroke-dasharray="1,5" points="31,-70 31,-268 465,-268 465,-70 31,-70"/>
</g>
<g id="clust3" class="cluster">
<title>cluster_LayoutModule_imports</title>
<polygon fill="none" stroke="black" points="39,-78 39,-130 457,-130 457,-78 39,-78"/>
</g>
<g id="clust4" class="cluster">
<title>cluster_LayoutModule_exports</title>
<polygon fill="none" stroke="black" points="182,-208 182,-260 316,-260 316,-208 182,-208"/>
</g>
<!-- DirectionModule -->
<g id="node1" class="node">
<title>DirectionModule</title>
<polygon fill="#8dd3c7" stroke="black" points="449.42,-122 446.42,-126 425.42,-126 422.42,-122 336.58,-122 336.58,-86 449.42,-86 449.42,-122"/>
<text text-anchor="middle" x="393" y="-99.8" font-family="Times,serif" font-size="14.00">DirectionModule</text>
</g>
<!-- LayoutModule -->
<g id="node4" class="node">
<title>LayoutModule</title>
<polygon fill="#8dd3c7" stroke="black" points="298.71,-187 295.71,-191 274.71,-191 271.71,-187 199.29,-187 199.29,-151 298.71,-151 298.71,-187"/>
<text text-anchor="middle" x="249" y="-164.8" font-family="Times,serif" font-size="14.00">LayoutModule</text>
</g>
<!-- DirectionModule&#45;&gt;LayoutModule -->
<g id="edge1" class="edge">
<title>DirectionModule&#45;&gt;LayoutModule</title>
<path fill="none" stroke="black" d="M393,-122.11C393,-141.34 393,-169 393,-169 393,-169 308.96,-169 308.96,-169"/>
<polygon fill="black" stroke="black" points="308.96,-165.5 298.96,-169 308.96,-172.5 308.96,-165.5"/>
</g>
<!-- LaunchDialogModule -->
<g id="node2" class="node">
<title>LaunchDialogModule</title>
<polygon fill="#8dd3c7" stroke="black" points="318.63,-122 315.63,-126 294.63,-126 291.63,-122 179.37,-122 179.37,-86 318.63,-86 318.63,-122"/>
<text text-anchor="middle" x="249" y="-99.8" font-family="Times,serif" font-size="14.00">LaunchDialogModule</text>
</g>
<!-- LaunchDialogModule&#45;&gt;LayoutModule -->
<g id="edge2" class="edge">
<title>LaunchDialogModule&#45;&gt;LayoutModule</title>
<path fill="none" stroke="black" d="M249,-122.11C249,-122.11 249,-140.99 249,-140.99"/>
<polygon fill="black" stroke="black" points="245.5,-140.99 249,-150.99 252.5,-140.99 245.5,-140.99"/>
</g>
<!-- OutletRefModule -->
<g id="node3" class="node">
<title>OutletRefModule</title>
<polygon fill="#8dd3c7" stroke="black" points="161.25,-122 158.25,-126 137.25,-126 134.25,-122 46.75,-122 46.75,-86 161.25,-86 161.25,-122"/>
<text text-anchor="middle" x="104" y="-99.8" font-family="Times,serif" font-size="14.00">OutletRefModule</text>
</g>
<!-- OutletRefModule&#45;&gt;LayoutModule -->
<g id="edge3" class="edge">
<title>OutletRefModule&#45;&gt;LayoutModule</title>
<path fill="none" stroke="black" d="M104,-122.11C104,-141.34 104,-169 104,-169 104,-169 189.1,-169 189.1,-169"/>
<polygon fill="black" stroke="black" points="189.1,-172.5 199.1,-169 189.1,-165.5 189.1,-172.5"/>
</g>
<!-- OutletRefModule  -->
<g id="node5" class="node">
<title>OutletRefModule </title>
<polygon fill="#fb8072" stroke="black" points="308.25,-252 189.75,-252 189.75,-216 308.25,-216 308.25,-252"/>
<text text-anchor="middle" x="249" y="-229.8" font-family="Times,serif" font-size="14.00">OutletRefModule </text>
</g>
<!-- LayoutModule&#45;&gt;OutletRefModule  -->
<g id="edge4" class="edge">
<title>LayoutModule&#45;&gt;OutletRefModule </title>
<path fill="none" stroke="black" stroke-dasharray="5,2" d="M249,-187.11C249,-187.11 249,-205.99 249,-205.99"/>
<polygon fill="black" stroke="black" points="245.5,-205.99 249,-215.99 252.5,-205.99 245.5,-205.99"/>
</g>
</g>
</svg>
