<?xml version="1.0" encoding="UTF-8" standalone="no"?>
<!DOCTYPE svg PUBLIC "-//W3C//DTD SVG 1.1//EN"
 "http://www.w3.org/Graphics/SVG/1.1/DTD/svg11.dtd">
<!-- Generated by graphviz version 2.40.1 (20161225.0304)
 -->
<!-- Title: dependencies Pages: 1 -->
<svg width="504pt" height="284pt"
 viewBox="0.00 0.00 504.00 284.00" xmlns="http://www.w3.org/2000/svg" xmlns:xlink="http://www.w3.org/1999/xlink">
<g id="graph0" class="graph" transform="scale(1 1) rotate(0) translate(4 280)">
<title>dependencies</title>
<polygon fill="#ffffff" stroke="transparent" points="-4,4 -4,-280 500,-280 500,4 -4,4"/>
<text text-anchor="start" x="227.0091" y="-42.4" font-family="sans-serif" font-weight="bold" font-size="14.00" fill="#000000">Legend</text>
<polygon fill="#ffffb3" stroke="transparent" points="14,-10 14,-30 34,-30 34,-10 14,-10"/>
<text text-anchor="start" x="37.629" y="-15.4" font-family="sans-serif" font-size="14.00" fill="#000000"> &#160;Declarations</text>
<polygon fill="#8dd3c7" stroke="transparent" points="127,-10 127,-30 147,-30 147,-10 127,-10"/>
<text text-anchor="start" x="150.7251" y="-15.4" font-family="sans-serif" font-size="14.00" fill="#000000"> &#160;Module</text>
<polygon fill="#80b1d3" stroke="transparent" points="213,-10 213,-30 233,-30 233,-10 213,-10"/>
<text text-anchor="start" x="236.7812" y="-15.4" font-family="sans-serif" font-size="14.00" fill="#000000"> &#160;Bootstrap</text>
<polygon fill="#fdb462" stroke="transparent" points="310,-10 310,-30 330,-30 330,-10 310,-10"/>
<text text-anchor="start" x="333.6732" y="-15.4" font-family="sans-serif" font-size="14.00" fill="#000000"> &#160;Providers</text>
<polygon fill="#fb8072" stroke="transparent" points="406,-10 406,-30 426,-30 426,-10 406,-10"/>
<text text-anchor="start" x="429.7258" y="-15.4" font-family="sans-serif" font-size="14.00" fill="#000000"> &#160;Exports</text>
<g id="clust1" class="cluster">
<title>cluster_LayoutModule</title>
<polygon fill="none" stroke="#000000" stroke-dasharray="1,5" points="96,-70 96,-268 400,-268 400,-70 96,-70"/>
</g>
<g id="clust3" class="cluster">
<title>cluster_LayoutModule_imports</title>
<polygon fill="none" stroke="#000000" points="104,-78 104,-130 392,-130 392,-78 104,-78"/>
</g>
<g id="clust4" class="cluster">
<title>cluster_LayoutModule_exports</title>
<polygon fill="none" stroke="#000000" points="175,-208 175,-260 309,-260 309,-208 175,-208"/>
</g>
<!-- LaunchDialogModule -->
<g id="node1" class="node">
<title>LaunchDialogModule</title>
<polygon fill="#8dd3c7" stroke="#000000" points="383.6345,-122 380.6345,-126 359.6345,-126 356.6345,-122 244.3655,-122 244.3655,-86 383.6345,-86 383.6345,-122"/>
<text text-anchor="middle" x="314" y="-99.8" font-family="Times,serif" font-size="14.00" fill="#000000">LaunchDialogModule</text>
</g>
<!-- LayoutModule -->
<g id="node3" class="node">
<title>LayoutModule</title>
<polygon fill="#8dd3c7" stroke="#000000" points="291.7078,-187 288.7078,-191 267.7078,-191 264.7078,-187 192.2922,-187 192.2922,-151 291.7078,-151 291.7078,-187"/>
<text text-anchor="middle" x="242" y="-164.8" font-family="Times,serif" font-size="14.00" fill="#000000">LayoutModule</text>
</g>
<!-- LaunchDialogModule&#45;&gt;LayoutModule -->
<g id="edge1" class="edge">
<title>LaunchDialogModule&#45;&gt;LayoutModule</title>
<path fill="none" stroke="#000000" d="M267.8934,-122.1061C267.8934,-122.1061 267.8934,-140.991 267.8934,-140.991"/>
<polygon fill="#000000" stroke="#000000" points="264.3935,-140.9909 267.8934,-150.991 271.3935,-140.991 264.3935,-140.9909"/>
</g>
<!-- OutletRefModule -->
<g id="node2" class="node">
<title>OutletRefModule</title>
<polygon fill="#8dd3c7" stroke="#000000" points="226.2549,-122 223.2549,-126 202.2549,-126 199.2549,-122 111.7451,-122 111.7451,-86 226.2549,-86 226.2549,-122"/>
<text text-anchor="middle" x="169" y="-99.8" font-family="Times,serif" font-size="14.00" fill="#000000">OutletRefModule</text>
</g>
<!-- OutletRefModule&#45;&gt;LayoutModule -->
<g id="edge2" class="edge">
<title>OutletRefModule&#45;&gt;LayoutModule</title>
<path fill="none" stroke="#000000" d="M209.3868,-122.1061C209.3868,-122.1061 209.3868,-140.991 209.3868,-140.991"/>
<polygon fill="#000000" stroke="#000000" points="205.8868,-140.9909 209.3868,-150.991 212.8868,-140.991 205.8868,-140.9909"/>
</g>
<!-- OutletRefModule  -->
<g id="node4" class="node">
<title>OutletRefModule </title>
<polygon fill="#fb8072" stroke="#000000" points="301.2549,-252 182.7451,-252 182.7451,-216 301.2549,-216 301.2549,-252"/>
<text text-anchor="middle" x="242" y="-229.8" font-family="Times,serif" font-size="14.00" fill="#000000">OutletRefModule </text>
</g>
<!-- LayoutModule&#45;&gt;OutletRefModule  -->
<g id="edge3" class="edge">
<title>LayoutModule&#45;&gt;OutletRefModule </title>
<path fill="none" stroke="#000000" stroke-dasharray="5,2" d="M242,-187.1061C242,-187.1061 242,-205.991 242,-205.991"/>
<polygon fill="#000000" stroke="#000000" points="238.5001,-205.9909 242,-215.991 245.5001,-205.991 238.5001,-205.9909"/>
</g>
</g>
</svg>
