<?xml version="1.0" encoding="UTF-8" standalone="no"?>
<!DOCTYPE svg PUBLIC "-//W3C//DTD SVG 1.1//EN"
 "http://www.w3.org/Graphics/SVG/1.1/DTD/svg11.dtd">
<!-- Generated by graphviz version 2.47.3 (20210619.1520)
 -->
<!-- Title: dependencies Pages: 1 -->
<svg width="1532pt" height="247pt"
 viewBox="0.00 0.00 1532.00 246.80" xmlns="http://www.w3.org/2000/svg" xmlns:xlink="http://www.w3.org/1999/xlink">
<g id="graph0" class="graph" transform="scale(1 1) rotate(0) translate(4 242.8)">
<title>dependencies</title>
<polygon fill="white" stroke="transparent" points="-4,4 -4,-242.8 1528,-242.8 1528,4 -4,4"/>
<text text-anchor="middle" x="762" y="-8.2" font-family="sans-serif" font-size="14.00">dependencies</text>
<g id="clust1" class="cluster">
<title>cluster_CompactAddToCartModule</title>
<polygon fill="none" stroke="black" stroke-dasharray="1,5" points="8,-32.8 8,-230.8 1516,-230.8 1516,-32.8 8,-32.8"/>
</g>
<g id="clust2" class="cluster">
<title>cluster_CompactAddToCartModule_declarations</title>
<polygon fill="none" stroke="black" points="1296,-40.8 1296,-92.8 1508,-92.8 1508,-40.8 1296,-40.8"/>
</g>
<g id="clust4" class="cluster">
<title>cluster_CompactAddToCartModule_imports</title>
<polygon fill="none" stroke="black" points="16,-40.8 16,-92.8 1288,-92.8 1288,-40.8 16,-40.8"/>
</g>
<g id="clust5" class="cluster">
<title>cluster_CompactAddToCartModule_exports</title>
<polygon fill="none" stroke="black" points="580,-170.8 580,-222.8 796,-222.8 796,-170.8 580,-170.8"/>
</g>
<!-- CompactAddToCartComponent -->
<g id="node1" class="node">
<title>CompactAddToCartComponent</title>
<polygon fill="#ffffb3" stroke="black" points="1499.64,-84.8 1304.36,-84.8 1304.36,-48.8 1499.64,-48.8 1499.64,-84.8"/>
<text text-anchor="middle" x="1402" y="-62.6" font-family="Times,serif" font-size="14.00">CompactAddToCartComponent</text>
</g>
<!-- CompactAddToCartModule -->
<g id="node2" class="node">
<title>CompactAddToCartModule</title>
<polygon fill="#8dd3c7" stroke="black" points="774.86,-149.8 771.86,-153.8 750.86,-153.8 747.86,-149.8 601.14,-149.8 601.14,-113.8 774.86,-113.8 774.86,-149.8"/>
<text text-anchor="middle" x="688" y="-127.6" font-family="Times,serif" font-size="14.00">CompactAddToCartModule</text>
</g>
<!-- CompactAddToCartComponent&#45;&gt;CompactAddToCartModule -->
<g id="edge1" class="edge">
<title>CompactAddToCartComponent&#45;&gt;CompactAddToCartModule</title>
<path fill="none" stroke="black" d="M1402,-84.81C1402,-107.29 1402,-142.8 1402,-142.8 1402,-142.8 785.19,-142.8 785.19,-142.8"/>
<polygon fill="black" stroke="black" points="785.19,-139.3 775.19,-142.8 785.19,-146.3 785.19,-139.3"/>
</g>
<!-- CompactAddToCartComponent  -->
<g id="node13" class="node">
<title>CompactAddToCartComponent </title>
<polygon fill="#fb8072" stroke="black" points="787.64,-214.8 588.36,-214.8 588.36,-178.8 787.64,-178.8 787.64,-214.8"/>
<text text-anchor="middle" x="688" y="-192.6" font-family="Times,serif" font-size="14.00">CompactAddToCartComponent </text>
</g>
<!-- CompactAddToCartModule&#45;&gt;CompactAddToCartComponent  -->
<g id="edge12" class="edge">
<title>CompactAddToCartModule&#45;&gt;CompactAddToCartComponent </title>
<path fill="none" stroke="black" stroke-dasharray="5,2" d="M688,-149.91C688,-149.91 688,-168.79 688,-168.79"/>
<polygon fill="black" stroke="black" points="684.5,-168.79 688,-178.79 691.5,-168.79 684.5,-168.79"/>
</g>
<!-- AddToCartModule -->
<g id="node3" class="node">
<title>AddToCartModule</title>
<polygon fill="#8dd3c7" stroke="black" points="1279.81,-84.8 1276.81,-88.8 1255.81,-88.8 1252.81,-84.8 1156.19,-84.8 1156.19,-48.8 1279.81,-48.8 1279.81,-84.8"/>
<text text-anchor="middle" x="1218" y="-62.6" font-family="Times,serif" font-size="14.00">AddToCartModule</text>
</g>
<!-- AddToCartModule&#45;&gt;CompactAddToCartModule -->
<g id="edge2" class="edge">
<title>AddToCartModule&#45;&gt;CompactAddToCartModule</title>
<path fill="none" stroke="black" d="M1218,-84.93C1218,-105.37 1218,-135.8 1218,-135.8 1218,-135.8 784.93,-135.8 784.93,-135.8"/>
<polygon fill="black" stroke="black" points="784.93,-132.3 774.93,-135.8 784.93,-139.3 784.93,-132.3"/>
</g>
<!-- CartSharedModule -->
<g id="node4" class="node">
<title>CartSharedModule</title>
<polygon fill="#8dd3c7" stroke="black" points="1138.03,-84.8 1135.03,-88.8 1114.03,-88.8 1111.03,-84.8 1015.97,-84.8 1015.97,-48.8 1138.03,-48.8 1138.03,-84.8"/>
<text text-anchor="middle" x="1077" y="-62.6" font-family="Times,serif" font-size="14.00">CartSharedModule</text>
</g>
<!-- CartSharedModule&#45;&gt;CompactAddToCartModule -->
<g id="edge3" class="edge">
<title>CartSharedModule&#45;&gt;CompactAddToCartModule</title>
<path fill="none" stroke="black" d="M1077,-85.07C1077,-103.36 1077,-128.8 1077,-128.8 1077,-128.8 785.3,-128.8 785.3,-128.8"/>
<polygon fill="black" stroke="black" points="785.3,-125.3 775.3,-128.8 785.3,-132.3 785.3,-125.3"/>
</g>
<!-- FeaturesConfigModule -->
<g id="node5" class="node">
<title>FeaturesConfigModule</title>
<polygon fill="#8dd3c7" stroke="black" points="997.86,-84.8 994.86,-88.8 973.86,-88.8 970.86,-84.8 852.14,-84.8 852.14,-48.8 997.86,-48.8 997.86,-84.8"/>
<text text-anchor="middle" x="925" y="-62.6" font-family="Times,serif" font-size="14.00">FeaturesConfigModule</text>
</g>
<!-- FeaturesConfigModule&#45;&gt;CompactAddToCartModule -->
<g id="edge4" class="edge">
<title>FeaturesConfigModule&#45;&gt;CompactAddToCartModule</title>
<path fill="none" stroke="black" d="M925,-84.81C925,-100.85 925,-121.8 925,-121.8 925,-121.8 784.9,-121.8 784.9,-121.8"/>
<polygon fill="black" stroke="black" points="784.9,-118.3 774.9,-121.8 784.9,-125.3 784.9,-118.3"/>
</g>
<!-- I18nModule -->
<g id="node6" class="node">
<title>I18nModule</title>
<polygon fill="#8dd3c7" stroke="black" points="833.71,-84.8 830.71,-88.8 809.71,-88.8 806.71,-84.8 748.29,-84.8 748.29,-48.8 833.71,-48.8 833.71,-84.8"/>
<text text-anchor="middle" x="791" y="-62.6" font-family="Times,serif" font-size="14.00">I18nModule</text>
</g>
<!-- I18nModule&#45;&gt;CompactAddToCartModule -->
<g id="edge5" class="edge">
<title>I18nModule&#45;&gt;CompactAddToCartModule</title>
<path fill="none" stroke="black" d="M761.66,-84.91C761.66,-84.91 761.66,-103.79 761.66,-103.79"/>
<polygon fill="black" stroke="black" points="758.16,-103.79 761.66,-113.79 765.16,-103.79 758.16,-103.79"/>
</g>
<!-- IconModule -->
<g id="node7" class="node">
<title>IconModule</title>
<polygon fill="#8dd3c7" stroke="black" points="730.43,-84.8 727.43,-88.8 706.43,-88.8 703.43,-84.8 645.57,-84.8 645.57,-48.8 730.43,-48.8 730.43,-84.8"/>
<text text-anchor="middle" x="688" y="-62.6" font-family="Times,serif" font-size="14.00">IconModule</text>
</g>
<!-- IconModule&#45;&gt;CompactAddToCartModule -->
<g id="edge6" class="edge">
<title>IconModule&#45;&gt;CompactAddToCartModule</title>
<path fill="none" stroke="black" d="M688,-84.91C688,-84.91 688,-103.79 688,-103.79"/>
<polygon fill="black" stroke="black" points="684.5,-103.79 688,-113.79 691.5,-103.79 684.5,-103.79"/>
</g>
<!-- ItemCounterModule -->
<g id="node8" class="node">
<title>ItemCounterModule</title>
<polygon fill="#8dd3c7" stroke="black" points="628.31,-84.8 625.31,-88.8 604.31,-88.8 601.31,-84.8 497.69,-84.8 497.69,-48.8 628.31,-48.8 628.31,-84.8"/>
<text text-anchor="middle" x="563" y="-62.6" font-family="Times,serif" font-size="14.00">ItemCounterModule</text>
</g>
<!-- ItemCounterModule&#45;&gt;CompactAddToCartModule -->
<g id="edge7" class="edge">
<title>ItemCounterModule&#45;&gt;CompactAddToCartModule</title>
<path fill="none" stroke="black" d="M614.61,-84.91C614.61,-84.91 614.61,-103.79 614.61,-103.79"/>
<polygon fill="black" stroke="black" points="611.11,-103.79 614.61,-113.79 618.11,-103.79 611.11,-103.79"/>
</g>
<!-- ModalModule -->
<g id="node9" class="node">
<title>ModalModule</title>
<polygon fill="#8dd3c7" stroke="black" points="480.1,-84.8 477.1,-88.8 456.1,-88.8 453.1,-84.8 383.9,-84.8 383.9,-48.8 480.1,-48.8 480.1,-84.8"/>
<text text-anchor="middle" x="432" y="-62.6" font-family="Times,serif" font-size="14.00">ModalModule</text>
</g>
<!-- ModalModule&#45;&gt;CompactAddToCartModule -->
<g id="edge8" class="edge">
<title>ModalModule&#45;&gt;CompactAddToCartModule</title>
<path fill="none" stroke="black" d="M432,-84.81C432,-100.85 432,-121.8 432,-121.8 432,-121.8 590.97,-121.8 590.97,-121.8"/>
<polygon fill="black" stroke="black" points="590.97,-125.3 600.97,-121.8 590.97,-118.3 590.97,-125.3"/>
</g>
<!-- PromotionsModule -->
<g id="node10" class="node">
<title>PromotionsModule</title>
<polygon fill="#8dd3c7" stroke="black" points="366.11,-84.8 363.11,-88.8 342.11,-88.8 339.11,-84.8 241.89,-84.8 241.89,-48.8 366.11,-48.8 366.11,-84.8"/>
<text text-anchor="middle" x="304" y="-62.6" font-family="Times,serif" font-size="14.00">PromotionsModule</text>
</g>
<!-- PromotionsModule&#45;&gt;CompactAddToCartModule -->
<g id="edge9" class="edge">
<title>PromotionsModule&#45;&gt;CompactAddToCartModule</title>
<path fill="none" stroke="black" d="M304,-85.07C304,-103.36 304,-128.8 304,-128.8 304,-128.8 590.86,-128.8 590.86,-128.8"/>
<polygon fill="black" stroke="black" points="590.86,-132.3 600.86,-128.8 590.86,-125.3 590.86,-132.3"/>
</g>
<!-- SpinnerModule -->
<g id="node11" class="node">
<title>SpinnerModule</title>
<polygon fill="#8dd3c7" stroke="black" points="223.6,-84.8 220.6,-88.8 199.6,-88.8 196.6,-84.8 120.4,-84.8 120.4,-48.8 223.6,-48.8 223.6,-84.8"/>
<text text-anchor="middle" x="172" y="-62.6" font-family="Times,serif" font-size="14.00">SpinnerModule</text>
</g>
<!-- SpinnerModule&#45;&gt;CompactAddToCartModule -->
<g id="edge10" class="edge">
<title>SpinnerModule&#45;&gt;CompactAddToCartModule</title>
<path fill="none" stroke="black" d="M172,-84.93C172,-105.37 172,-135.8 172,-135.8 172,-135.8 591.05,-135.8 591.05,-135.8"/>
<polygon fill="black" stroke="black" points="591.05,-139.3 601.05,-135.8 591.05,-132.3 591.05,-139.3"/>
</g>
<!-- UrlModule -->
<g id="node12" class="node">
<title>UrlModule</title>
<polygon fill="#8dd3c7" stroke="black" points="102.21,-84.8 99.21,-88.8 78.21,-88.8 75.21,-84.8 23.79,-84.8 23.79,-48.8 102.21,-48.8 102.21,-84.8"/>
<text text-anchor="middle" x="63" y="-62.6" font-family="Times,serif" font-size="14.00">UrlModule</text>
</g>
<!-- UrlModule&#45;&gt;CompactAddToCartModule -->
<g id="edge11" class="edge">
<title>UrlModule&#45;&gt;CompactAddToCartModule</title>
<path fill="none" stroke="black" d="M63,-84.81C63,-107.29 63,-142.8 63,-142.8 63,-142.8 591.1,-142.8 591.1,-142.8"/>
<polygon fill="black" stroke="black" points="591.1,-146.3 601.1,-142.8 591.1,-139.3 591.1,-146.3"/>
</g>
</g>
</svg>
