<?xml version="1.0" encoding="UTF-8" standalone="no"?>
<!DOCTYPE svg PUBLIC "-//W3C//DTD SVG 1.1//EN"
 "http://www.w3.org/Graphics/SVG/1.1/DTD/svg11.dtd">
<!-- Generated by graphviz version 2.40.1 (20161225.0304)
 -->
<!-- Title: dependencies Pages: 1 -->
<svg width="687pt" height="284pt"
 viewBox="0.00 0.00 687.00 284.00" xmlns="http://www.w3.org/2000/svg" xmlns:xlink="http://www.w3.org/1999/xlink">
<g id="graph0" class="graph" transform="scale(1 1) rotate(0) translate(4 280)">
<title>dependencies</title>
<polygon fill="#ffffff" stroke="transparent" points="-4,4 -4,-280 683,-280 683,4 -4,4"/>
<text text-anchor="start" x="318.5091" y="-42.4" font-family="sans-serif" font-weight="bold" font-size="14.00" fill="#000000">Legend</text>
<polygon fill="#ffffb3" stroke="transparent" points="105.5,-10 105.5,-30 125.5,-30 125.5,-10 105.5,-10"/>
<text text-anchor="start" x="129.129" y="-15.4" font-family="sans-serif" font-size="14.00" fill="#000000"> &#160;Declarations</text>
<polygon fill="#8dd3c7" stroke="transparent" points="218.5,-10 218.5,-30 238.5,-30 238.5,-10 218.5,-10"/>
<text text-anchor="start" x="242.2251" y="-15.4" font-family="sans-serif" font-size="14.00" fill="#000000"> &#160;Module</text>
<polygon fill="#80b1d3" stroke="transparent" points="304.5,-10 304.5,-30 324.5,-30 324.5,-10 304.5,-10"/>
<text text-anchor="start" x="328.2812" y="-15.4" font-family="sans-serif" font-size="14.00" fill="#000000"> &#160;Bootstrap</text>
<polygon fill="#fdb462" stroke="transparent" points="401.5,-10 401.5,-30 421.5,-30 421.5,-10 401.5,-10"/>
<text text-anchor="start" x="425.1732" y="-15.4" font-family="sans-serif" font-size="14.00" fill="#000000"> &#160;Providers</text>
<polygon fill="#fb8072" stroke="transparent" points="497.5,-10 497.5,-30 517.5,-30 517.5,-10 497.5,-10"/>
<text text-anchor="start" x="521.2258" y="-15.4" font-family="sans-serif" font-size="14.00" fill="#000000"> &#160;Exports</text>
<g id="clust1" class="cluster">
<title>cluster_UpdatePasswordModule</title>
<polygon fill="none" stroke="#000000" stroke-dasharray="1,5" points="8,-70 8,-268 671,-268 671,-70 8,-70"/>
</g>
<g id="clust2" class="cluster">
<title>cluster_UpdatePasswordModule_declarations</title>
<polygon fill="none" stroke="#000000" points="247,-78 247,-130 663,-130 663,-78 247,-78"/>
</g>
<g id="clust5" class="cluster">
<title>cluster_UpdatePasswordModule_imports</title>
<polygon fill="none" stroke="#000000" points="16,-78 16,-130 239,-130 239,-78 16,-78"/>
</g>
<g id="clust6" class="cluster">
<title>cluster_UpdatePasswordModule_exports</title>
<polygon fill="none" stroke="#000000" points="87,-208 87,-260 509,-260 509,-208 87,-208"/>
</g>
<!-- UpdatePasswordComponent -->
<g id="node1" class="node">
<title>UpdatePasswordComponent</title>
<polygon fill="#ffffb3" stroke="#000000" points="654.9129,-122 479.0871,-122 479.0871,-86 654.9129,-86 654.9129,-122"/>
<text text-anchor="middle" x="567" y="-99.8" font-family="Times,serif" font-size="14.00" fill="#000000">UpdatePasswordComponent</text>
</g>
<!-- UpdatePasswordModule -->
<g id="node3" class="node">
<title>UpdatePasswordModule</title>
<polygon fill="#8dd3c7" stroke="#000000" points="347.6302,-187 344.6302,-191 323.6302,-191 320.6302,-187 194.3698,-187 194.3698,-151 347.6302,-151 347.6302,-187"/>
<text text-anchor="middle" x="271" y="-164.8" font-family="Times,serif" font-size="14.00" fill="#000000">UpdatePasswordModule</text>
</g>
<!-- UpdatePasswordComponent&#45;&gt;UpdatePasswordModule -->
<g id="edge1" class="edge">
<title>UpdatePasswordComponent&#45;&gt;UpdatePasswordModule</title>
<path fill="none" stroke="#000000" d="M490.375,-122.1061C490.375,-141.3391 490.375,-169 490.375,-169 490.375,-169 357.7267,-169 357.7267,-169"/>
<polygon fill="#000000" stroke="#000000" points="357.7268,-165.5001 347.7267,-169 357.7267,-172.5001 357.7268,-165.5001"/>
</g>
<!-- UpdatePasswordFormComponent -->
<g id="node2" class="node">
<title>UpdatePasswordFormComponent</title>
<polygon fill="#ffffb3" stroke="#000000" points="460.7464,-122 255.2536,-122 255.2536,-86 460.7464,-86 460.7464,-122"/>
<text text-anchor="middle" x="358" y="-99.8" font-family="Times,serif" font-size="14.00" fill="#000000">UpdatePasswordFormComponent</text>
</g>
<!-- UpdatePasswordFormComponent&#45;&gt;UpdatePasswordModule -->
<g id="edge2" class="edge">
<title>UpdatePasswordFormComponent&#45;&gt;UpdatePasswordModule</title>
<path fill="none" stroke="#000000" d="M301.4709,-122.1061C301.4709,-122.1061 301.4709,-140.991 301.4709,-140.991"/>
<polygon fill="#000000" stroke="#000000" points="297.971,-140.9909 301.4709,-150.991 304.971,-140.991 297.971,-140.9909"/>
</g>
<!-- UpdatePasswordComponent  -->
<g id="node6" class="node">
<title>UpdatePasswordComponent </title>
<polygon fill="#fb8072" stroke="#000000" points="501.4124,-252 322.5876,-252 322.5876,-216 501.4124,-216 501.4124,-252"/>
<text text-anchor="middle" x="412" y="-229.8" font-family="Times,serif" font-size="14.00" fill="#000000">UpdatePasswordComponent </text>
</g>
<!-- UpdatePasswordModule&#45;&gt;UpdatePasswordComponent  -->
<g id="edge5" class="edge">
<title>UpdatePasswordModule&#45;&gt;UpdatePasswordComponent </title>
<path fill="none" stroke="#000000" stroke-dasharray="5,2" d="M335.1794,-187.1061C335.1794,-187.1061 335.1794,-205.991 335.1794,-205.991"/>
<polygon fill="#000000" stroke="#000000" points="331.6794,-205.9909 335.1794,-215.991 338.6794,-205.991 331.6794,-205.9909"/>
</g>
<!-- UpdatePasswordFormComponent  -->
<g id="node7" class="node">
<title>UpdatePasswordFormComponent </title>
<polygon fill="#fb8072" stroke="#000000" points="304.7463,-252 95.2537,-252 95.2537,-216 304.7463,-216 304.7463,-252"/>
<text text-anchor="middle" x="200" y="-229.8" font-family="Times,serif" font-size="14.00" fill="#000000">UpdatePasswordFormComponent </text>
</g>
<!-- UpdatePasswordModule&#45;&gt;UpdatePasswordFormComponent  -->
<g id="edge6" class="edge">
<title>UpdatePasswordModule&#45;&gt;UpdatePasswordFormComponent </title>
<path fill="none" stroke="#000000" stroke-dasharray="5,2" d="M249.4041,-187.1061C249.4041,-187.1061 249.4041,-205.991 249.4041,-205.991"/>
<polygon fill="#000000" stroke="#000000" points="245.9042,-205.9909 249.4041,-215.991 252.9042,-205.991 245.9042,-205.9909"/>
</g>
<!-- I18nModule -->
<g id="node4" class="node">
<title>I18nModule</title>
<polygon fill="#8dd3c7" stroke="#000000" points="230.7107,-122 227.7107,-126 206.7107,-126 203.7107,-122 145.2893,-122 145.2893,-86 230.7107,-86 230.7107,-122"/>
<text text-anchor="middle" x="188" y="-99.8" font-family="Times,serif" font-size="14.00" fill="#000000">I18nModule</text>
</g>
<!-- I18nModule&#45;&gt;UpdatePasswordModule -->
<g id="edge3" class="edge">
<title>I18nModule&#45;&gt;UpdatePasswordModule</title>
<path fill="none" stroke="#000000" d="M212.3952,-122.1061C212.3952,-122.1061 212.3952,-140.991 212.3952,-140.991"/>
<polygon fill="#000000" stroke="#000000" points="208.8952,-140.9909 212.3952,-150.991 215.8952,-140.991 208.8952,-140.9909"/>
</g>
<!-- SpinnerModule -->
<g id="node5" class="node">
<title>SpinnerModule</title>
<polygon fill="#8dd3c7" stroke="#000000" points="127.5982,-122 124.5982,-126 103.5982,-126 100.5982,-122 24.4018,-122 24.4018,-86 127.5982,-86 127.5982,-122"/>
<text text-anchor="middle" x="76" y="-99.8" font-family="Times,serif" font-size="14.00" fill="#000000">SpinnerModule</text>
</g>
<!-- SpinnerModule&#45;&gt;UpdatePasswordModule -->
<g id="edge4" class="edge">
<title>SpinnerModule&#45;&gt;UpdatePasswordModule</title>
<path fill="none" stroke="#000000" d="M111.463,-122.1061C111.463,-141.3391 111.463,-169 111.463,-169 111.463,-169 184.0353,-169 184.0353,-169"/>
<polygon fill="#000000" stroke="#000000" points="184.0354,-172.5001 194.0353,-169 184.0353,-165.5001 184.0354,-172.5001"/>
</g>
</g>
</svg>
