<?xml version="1.0" encoding="UTF-8" standalone="no"?>
<!DOCTYPE svg PUBLIC "-//W3C//DTD SVG 1.1//EN"
 "http://www.w3.org/Graphics/SVG/1.1/DTD/svg11.dtd">
<!-- Generated by graphviz version 2.44.1 (20200629.0846)
 -->
<!-- Title: dependencies Pages: 1 -->
<svg width="829pt" height="284pt"
 viewBox="0.00 0.00 829.00 284.00" xmlns="http://www.w3.org/2000/svg" xmlns:xlink="http://www.w3.org/1999/xlink">
<g id="graph0" class="graph" transform="scale(1 1) rotate(0) translate(4 280)">
<title>dependencies</title>
<polygon fill="white" stroke="transparent" points="-4,4 -4,-280 825,-280 825,4 -4,4"/>
<text text-anchor="start" x="389.51" y="-42.4" font-family="sans-serif" font-weight="bold" font-size="14.00">Legend</text>
<polygon fill="#ffffb3" stroke="transparent" points="176.5,-10 176.5,-30 196.5,-30 196.5,-10 176.5,-10"/>
<text text-anchor="start" x="200.13" y="-15.4" font-family="sans-serif" font-size="14.00"> &#160;Declarations</text>
<polygon fill="#8dd3c7" stroke="transparent" points="289.5,-10 289.5,-30 309.5,-30 309.5,-10 289.5,-10"/>
<text text-anchor="start" x="313.23" y="-15.4" font-family="sans-serif" font-size="14.00"> &#160;Module</text>
<polygon fill="#80b1d3" stroke="transparent" points="375.5,-10 375.5,-30 395.5,-30 395.5,-10 375.5,-10"/>
<text text-anchor="start" x="399.28" y="-15.4" font-family="sans-serif" font-size="14.00"> &#160;Bootstrap</text>
<polygon fill="#fdb462" stroke="transparent" points="472.5,-10 472.5,-30 492.5,-30 492.5,-10 472.5,-10"/>
<text text-anchor="start" x="496.17" y="-15.4" font-family="sans-serif" font-size="14.00"> &#160;Providers</text>
<polygon fill="#fb8072" stroke="transparent" points="568.5,-10 568.5,-30 588.5,-30 588.5,-10 568.5,-10"/>
<text text-anchor="start" x="592.23" y="-15.4" font-family="sans-serif" font-size="14.00"> &#160;Exports</text>
<g id="clust1" class="cluster">
<title>cluster_UpdatePasswordModule</title>
<polygon fill="none" stroke="black" stroke-dasharray="1,5" points="8,-70 8,-268 813,-268 813,-70 8,-70"/>
</g>
<g id="clust2" class="cluster">
<title>cluster_UpdatePasswordModule_declarations</title>
<polygon fill="none" stroke="black" points="389,-78 389,-130 805,-130 805,-78 389,-78"/>
</g>
<g id="clust6" class="cluster">
<title>cluster_UpdatePasswordModule_exports</title>
<polygon fill="none" stroke="black" points="107,-208 107,-260 529,-260 529,-208 107,-208"/>
</g>
<g id="clust5" class="cluster">
<title>cluster_UpdatePasswordModule_imports</title>
<polygon fill="none" stroke="black" points="16,-78 16,-130 381,-130 381,-78 16,-78"/>
</g>
<!-- UpdatePasswordComponent -->
<g id="node1" class="node">
<title>UpdatePasswordComponent</title>
<polygon fill="#ffffb3" stroke="black" points="796.91,-122 621.09,-122 621.09,-86 796.91,-86 796.91,-122"/>
<text text-anchor="middle" x="709" y="-99.8" font-family="Times,serif" font-size="14.00">UpdatePasswordComponent</text>
</g>
<!-- UpdatePasswordModule -->
<g id="node3" class="node">
<title>UpdatePasswordModule</title>
<polygon fill="#8dd3c7" stroke="black" points="387.63,-187 384.63,-191 363.63,-191 360.63,-187 234.37,-187 234.37,-151 387.63,-151 387.63,-187"/>
<text text-anchor="middle" x="311" y="-164.8" font-family="Times,serif" font-size="14.00">UpdatePasswordModule</text>
</g>
<!-- UpdatePasswordComponent&#45;&gt;UpdatePasswordModule -->
<g id="edge1" class="edge">
<title>UpdatePasswordComponent&#45;&gt;UpdatePasswordModule</title>
<path fill="none" stroke="black" d="M709,-122.11C709,-141.34 709,-169 709,-169 709,-169 397.74,-169 397.74,-169"/>
<polygon fill="black" stroke="black" points="397.74,-165.5 387.74,-169 397.74,-172.5 397.74,-165.5"/>
</g>
<!-- UpdatePasswordFormComponent -->
<g id="node2" class="node">
<title>UpdatePasswordFormComponent</title>
<polygon fill="#ffffb3" stroke="black" points="602.75,-122 397.25,-122 397.25,-86 602.75,-86 602.75,-122"/>
<text text-anchor="middle" x="500" y="-99.8" font-family="Times,serif" font-size="14.00">UpdatePasswordFormComponent</text>
</g>
<!-- UpdatePasswordFormComponent&#45;&gt;UpdatePasswordModule -->
<g id="edge2" class="edge">
<title>UpdatePasswordFormComponent&#45;&gt;UpdatePasswordModule</title>
<path fill="none" stroke="black" d="M397.22,-104C387.18,-104 380.62,-104 380.62,-104 380.62,-104 380.62,-140.89 380.62,-140.89"/>
<polygon fill="black" stroke="black" points="377.12,-140.89 380.62,-150.89 384.12,-140.89 377.12,-140.89"/>
</g>
<!-- UpdatePasswordComponent  -->
<g id="node7" class="node">
<title>UpdatePasswordComponent </title>
<polygon fill="#fb8072" stroke="black" points="521.41,-252 342.59,-252 342.59,-216 521.41,-216 521.41,-252"/>
<text text-anchor="middle" x="432" y="-229.8" font-family="Times,serif" font-size="14.00">UpdatePasswordComponent </text>
</g>
<!-- UpdatePasswordModule&#45;&gt;UpdatePasswordComponent  -->
<g id="edge6" class="edge">
<title>UpdatePasswordModule&#45;&gt;UpdatePasswordComponent </title>
<path fill="none" stroke="black" stroke-dasharray="5,2" d="M365.18,-187.11C365.18,-187.11 365.18,-205.99 365.18,-205.99"/>
<polygon fill="black" stroke="black" points="361.68,-205.99 365.18,-215.99 368.68,-205.99 361.68,-205.99"/>
</g>
<!-- UpdatePasswordFormComponent  -->
<g id="node8" class="node">
<title>UpdatePasswordFormComponent </title>
<polygon fill="#fb8072" stroke="black" points="324.75,-252 115.25,-252 115.25,-216 324.75,-216 324.75,-252"/>
<text text-anchor="middle" x="220" y="-229.8" font-family="Times,serif" font-size="14.00">UpdatePasswordFormComponent </text>
</g>
<!-- UpdatePasswordModule&#45;&gt;UpdatePasswordFormComponent  -->
<g id="edge7" class="edge">
<title>UpdatePasswordModule&#45;&gt;UpdatePasswordFormComponent </title>
<path fill="none" stroke="black" stroke-dasharray="5,2" d="M279.4,-187.11C279.4,-187.11 279.4,-205.99 279.4,-205.99"/>
<polygon fill="black" stroke="black" points="275.9,-205.99 279.4,-215.99 282.9,-205.99 275.9,-205.99"/>
</g>
<!-- FormErrorsModule -->
<g id="node4" class="node">
<title>FormErrorsModule</title>
<polygon fill="#8dd3c7" stroke="black" points="373.36,-122 370.36,-126 349.36,-126 346.36,-122 248.64,-122 248.64,-86 373.36,-86 373.36,-122"/>
<text text-anchor="middle" x="311" y="-99.8" font-family="Times,serif" font-size="14.00">FormErrorsModule</text>
</g>
<!-- FormErrorsModule&#45;&gt;UpdatePasswordModule -->
<g id="edge3" class="edge">
<title>FormErrorsModule&#45;&gt;UpdatePasswordModule</title>
<path fill="none" stroke="black" d="M311,-122.11C311,-122.11 311,-140.99 311,-140.99"/>
<polygon fill="black" stroke="black" points="307.5,-140.99 311,-150.99 314.5,-140.99 307.5,-140.99"/>
</g>
<!-- I18nModule -->
<g id="node5" class="node">
<title>I18nModule</title>
<polygon fill="#8dd3c7" stroke="black" points="230.71,-122 227.71,-126 206.71,-126 203.71,-122 145.29,-122 145.29,-86 230.71,-86 230.71,-122"/>
<text text-anchor="middle" x="188" y="-99.8" font-family="Times,serif" font-size="14.00">I18nModule</text>
</g>
<!-- I18nModule&#45;&gt;UpdatePasswordModule -->
<g id="edge4" class="edge">
<title>I18nModule&#45;&gt;UpdatePasswordModule</title>
<path fill="none" stroke="black" d="M230.83,-104C237.04,-104 241.38,-104 241.38,-104 241.38,-104 241.38,-140.89 241.38,-140.89"/>
<polygon fill="black" stroke="black" points="237.88,-140.89 241.38,-150.89 244.88,-140.89 237.88,-140.89"/>
</g>
<!-- SpinnerModule -->
<g id="node6" class="node">
<title>SpinnerModule</title>
<polygon fill="#8dd3c7" stroke="black" points="127.6,-122 124.6,-126 103.6,-126 100.6,-122 24.4,-122 24.4,-86 127.6,-86 127.6,-122"/>
<text text-anchor="middle" x="76" y="-99.8" font-family="Times,serif" font-size="14.00">SpinnerModule</text>
</g>
<!-- SpinnerModule&#45;&gt;UpdatePasswordModule -->
<g id="edge5" class="edge">
<title>SpinnerModule&#45;&gt;UpdatePasswordModule</title>
<path fill="none" stroke="black" d="M121.46,-122.11C121.46,-141.34 121.46,-169 121.46,-169 121.46,-169 224.18,-169 224.18,-169"/>
<polygon fill="black" stroke="black" points="224.18,-172.5 234.18,-169 224.18,-165.5 224.18,-172.5"/>
</g>
</g>
</svg>
