<?xml version="1.0" encoding="UTF-8" standalone="no"?>
<!DOCTYPE svg PUBLIC "-//W3C//DTD SVG 1.1//EN"
 "http://www.w3.org/Graphics/SVG/1.1/DTD/svg11.dtd">
<!-- Generated by graphviz version 2.47.0 (20210316.0004)
 -->
<!-- Title: dependencies Pages: 1 -->
<svg width="701pt" height="211pt"
 viewBox="0.00 0.00 701.00 211.00" xmlns="http://www.w3.org/2000/svg" xmlns:xlink="http://www.w3.org/1999/xlink">
<g id="graph0" class="graph" transform="scale(1 1) rotate(0) translate(4 207)">
<title>dependencies</title>
<polygon fill="white" stroke="transparent" points="-4,4 -4,-207 697,-207 697,4 -4,4"/>
<text text-anchor="start" x="325.51" y="-42.4" font-family="sans-serif" font-weight="bold" font-size="14.00">Legend</text>
<polygon fill="#ffffb3" stroke="transparent" points="112.5,-10 112.5,-30 132.5,-30 132.5,-10 112.5,-10"/>
<text text-anchor="start" x="136.13" y="-15.4" font-family="sans-serif" font-size="14.00"> &#160;Declarations</text>
<polygon fill="#8dd3c7" stroke="transparent" points="225.5,-10 225.5,-30 245.5,-30 245.5,-10 225.5,-10"/>
<text text-anchor="start" x="249.23" y="-15.4" font-family="sans-serif" font-size="14.00"> &#160;Module</text>
<polygon fill="#80b1d3" stroke="transparent" points="311.5,-10 311.5,-30 331.5,-30 331.5,-10 311.5,-10"/>
<text text-anchor="start" x="335.28" y="-15.4" font-family="sans-serif" font-size="14.00"> &#160;Bootstrap</text>
<polygon fill="#fdb462" stroke="transparent" points="408.5,-10 408.5,-30 428.5,-30 428.5,-10 408.5,-10"/>
<text text-anchor="start" x="432.17" y="-15.4" font-family="sans-serif" font-size="14.00"> &#160;Providers</text>
<polygon fill="#fb8072" stroke="transparent" points="504.5,-10 504.5,-30 524.5,-30 524.5,-10 504.5,-10"/>
<text text-anchor="start" x="528.23" y="-15.4" font-family="sans-serif" font-size="14.00"> &#160;Exports</text>
<g id="clust1" class="cluster">
<title>cluster_UpdatePasswordModule</title>
<polygon fill="none" stroke="black" stroke-dasharray="1,5" points="8,-70 8,-195 685,-195 685,-70 8,-70"/>
</g>
<g id="clust4" class="cluster">
<title>cluster_UpdatePasswordModule_imports</title>
<polygon fill="none" stroke="black" points="216,-78 216,-130 677,-130 677,-78 216,-78"/>
</g>
<g id="clust2" class="cluster">
<title>cluster_UpdatePasswordModule_declarations</title>
<polygon fill="none" stroke="black" points="16,-78 16,-130 208,-130 208,-78 16,-78"/>
</g>
<!-- UpdatePasswordComponent -->
<g id="node1" class="node">
<title>UpdatePasswordComponent</title>
<polygon fill="#ffffb3" stroke="black" points="199.91,-122 24.09,-122 24.09,-86 199.91,-86 199.91,-122"/>
<text text-anchor="middle" x="112" y="-99.8" font-family="Times,serif" font-size="14.00">UpdatePasswordComponent</text>
</g>
<!-- UpdatePasswordModule -->
<g id="node2" class="node">
<title>UpdatePasswordModule</title>
<polygon fill="#8dd3c7" stroke="black" points="448.63,-187 445.63,-191 424.63,-191 421.63,-187 295.37,-187 295.37,-151 448.63,-151 448.63,-187"/>
<text text-anchor="middle" x="372" y="-164.8" font-family="Times,serif" font-size="14.00">UpdatePasswordModule</text>
</g>
<!-- UpdatePasswordComponent&#45;&gt;UpdatePasswordModule -->
<g id="edge1" class="edge">
<title>UpdatePasswordComponent&#45;&gt;UpdatePasswordModule</title>
<path fill="none" stroke="black" d="M112,-122.11C112,-141.34 112,-169 112,-169 112,-169 285.05,-169 285.05,-169"/>
<polygon fill="black" stroke="black" points="285.05,-172.5 295.05,-169 285.05,-165.5 285.05,-172.5"/>
</g>
<!-- FormErrorsModule -->
<g id="node3" class="node">
<title>FormErrorsModule</title>
<polygon fill="#8dd3c7" stroke="black" points="669.36,-122 666.36,-126 645.36,-126 642.36,-122 544.64,-122 544.64,-86 669.36,-86 669.36,-122"/>
<text text-anchor="middle" x="607" y="-99.8" font-family="Times,serif" font-size="14.00">FormErrorsModule</text>
</g>
<!-- FormErrorsModule&#45;&gt;UpdatePasswordModule -->
<g id="edge2" class="edge">
<title>FormErrorsModule&#45;&gt;UpdatePasswordModule</title>
<path fill="none" stroke="black" d="M607,-122.11C607,-141.34 607,-169 607,-169 607,-169 458.95,-169 458.95,-169"/>
<polygon fill="black" stroke="black" points="458.95,-165.5 448.95,-169 458.95,-172.5 458.95,-165.5"/>
</g>
<!-- I18nModule -->
<g id="node4" class="node">
<title>I18nModule</title>
<polygon fill="#8dd3c7" stroke="black" points="526.71,-122 523.71,-126 502.71,-126 499.71,-122 441.29,-122 441.29,-86 526.71,-86 526.71,-122"/>
<text text-anchor="middle" x="484" y="-99.8" font-family="Times,serif" font-size="14.00">I18nModule</text>
</g>
<!-- I18nModule&#45;&gt;UpdatePasswordModule -->
<g id="edge3" class="edge">
<title>I18nModule&#45;&gt;UpdatePasswordModule</title>
<path fill="none" stroke="black" d="M445.1,-122.11C445.1,-122.11 445.1,-140.99 445.1,-140.99"/>
<polygon fill="black" stroke="black" points="441.6,-140.99 445.1,-150.99 448.6,-140.99 441.6,-140.99"/>
</g>
<!-- SpinnerModule -->
<g id="node5" class="node">
<title>SpinnerModule</title>
<polygon fill="#8dd3c7" stroke="black" points="423.6,-122 420.6,-126 399.6,-126 396.6,-122 320.4,-122 320.4,-86 423.6,-86 423.6,-122"/>
<text text-anchor="middle" x="372" y="-99.8" font-family="Times,serif" font-size="14.00">SpinnerModule</text>
</g>
<!-- SpinnerModule&#45;&gt;UpdatePasswordModule -->
<g id="edge4" class="edge">
<title>SpinnerModule&#45;&gt;UpdatePasswordModule</title>
<path fill="none" stroke="black" d="M372,-122.11C372,-122.11 372,-140.99 372,-140.99"/>
<polygon fill="black" stroke="black" points="368.5,-140.99 372,-150.99 375.5,-140.99 368.5,-140.99"/>
</g>
<!-- UrlModule -->
<g id="node6" class="node">
<title>UrlModule</title>
<polygon fill="#8dd3c7" stroke="black" points="302.21,-122 299.21,-126 278.21,-126 275.21,-122 223.79,-122 223.79,-86 302.21,-86 302.21,-122"/>
<text text-anchor="middle" x="263" y="-99.8" font-family="Times,serif" font-size="14.00">UrlModule</text>
</g>
<!-- UrlModule&#45;&gt;UpdatePasswordModule -->
<g id="edge5" class="edge">
<title>UrlModule&#45;&gt;UpdatePasswordModule</title>
<path fill="none" stroke="black" d="M302.42,-104C307.67,-104 311.28,-104 311.28,-104 311.28,-104 311.28,-140.89 311.28,-140.89"/>
<polygon fill="black" stroke="black" points="307.78,-140.89 311.28,-150.89 314.78,-140.89 307.78,-140.89"/>
</g>
</g>
</svg>
