<?xml version="1.0" encoding="UTF-8" standalone="no"?>
<!DOCTYPE svg PUBLIC "-//W3C//DTD SVG 1.1//EN"
 "http://www.w3.org/Graphics/SVG/1.1/DTD/svg11.dtd">
<!-- Generated by graphviz version 2.47.3 (20210619.1520)
 -->
<!-- Title: dependencies Pages: 1 -->
<svg width="994pt" height="247pt"
 viewBox="0.00 0.00 994.00 246.80" xmlns="http://www.w3.org/2000/svg" xmlns:xlink="http://www.w3.org/1999/xlink">
<g id="graph0" class="graph" transform="scale(1 1) rotate(0) translate(4 242.8)">
<title>dependencies</title>
<polygon fill="white" stroke="transparent" points="-4,4 -4,-242.8 990,-242.8 990,4 -4,4"/>
<text text-anchor="middle" x="493" y="-8.2" font-family="sans-serif" font-size="14.00">dependencies</text>
<g id="clust1" class="cluster">
<title>cluster_SiteContextSelectorModule</title>
<polygon fill="none" stroke="black" stroke-dasharray="1,5" points="8,-32.8 8,-230.8 978,-230.8 978,-32.8 8,-32.8"/>
</g>
<g id="clust8" class="cluster">
<title>cluster_SiteContextSelectorModule_providers</title>
<polygon fill="none" stroke="black" points="692,-40.8 692,-92.8 970,-92.8 970,-40.8 692,-40.8"/>
</g>
<g id="clust5" class="cluster">
<title>cluster_SiteContextSelectorModule_imports</title>
<polygon fill="none" stroke="black" points="440,-40.8 440,-92.8 684,-92.8 684,-40.8 440,-40.8"/>
</g>
<g id="clust6" class="cluster">
<title>cluster_SiteContextSelectorModule_exports</title>
<polygon fill="none" stroke="black" points="299,-170.8 299,-222.8 721,-222.8 721,-170.8 299,-170.8"/>
</g>
<g id="clust2" class="cluster">
<title>cluster_SiteContextSelectorModule_declarations</title>
<polygon fill="none" stroke="black" points="16,-40.8 16,-92.8 432,-92.8 432,-40.8 16,-40.8"/>
</g>
<!-- LanguageCurrencyComponent -->
<g id="node1" class="node">
<title>LanguageCurrencyComponent</title>
<polygon fill="#ffffb3" stroke="black" points="424.12,-84.8 235.88,-84.8 235.88,-48.8 424.12,-48.8 424.12,-84.8"/>
<text text-anchor="middle" x="330" y="-62.6" font-family="Times,serif" font-size="14.00">LanguageCurrencyComponent</text>
</g>
<!-- SiteContextSelectorModule -->
<g id="node3" class="node">
<title>SiteContextSelectorModule</title>
<polygon fill="#8dd3c7" stroke="black" points="596.53,-149.8 593.53,-153.8 572.53,-153.8 569.53,-149.8 425.47,-149.8 425.47,-113.8 596.53,-113.8 596.53,-149.8"/>
<text text-anchor="middle" x="511" y="-127.6" font-family="Times,serif" font-size="14.00">SiteContextSelectorModule</text>
</g>
<!-- LanguageCurrencyComponent&#45;&gt;SiteContextSelectorModule -->
<g id="edge1" class="edge">
<title>LanguageCurrencyComponent&#45;&gt;SiteContextSelectorModule</title>
<path fill="none" stroke="black" d="M424.46,-66.8C431.95,-66.8 436.7,-66.8 436.7,-66.8 436.7,-66.8 436.7,-103.69 436.7,-103.69"/>
<polygon fill="black" stroke="black" points="433.2,-103.69 436.7,-113.69 440.2,-103.69 433.2,-103.69"/>
</g>
<!-- SiteContextSelectorComponent -->
<g id="node2" class="node">
<title>SiteContextSelectorComponent</title>
<polygon fill="#ffffb3" stroke="black" points="217.81,-84.8 24.19,-84.8 24.19,-48.8 217.81,-48.8 217.81,-84.8"/>
<text text-anchor="middle" x="121" y="-62.6" font-family="Times,serif" font-size="14.00">SiteContextSelectorComponent</text>
</g>
<!-- SiteContextSelectorComponent&#45;&gt;SiteContextSelectorModule -->
<g id="edge2" class="edge">
<title>SiteContextSelectorComponent&#45;&gt;SiteContextSelectorModule</title>
<path fill="none" stroke="black" d="M121,-84.91C121,-104.14 121,-131.8 121,-131.8 121,-131.8 415.41,-131.8 415.41,-131.8"/>
<polygon fill="black" stroke="black" points="415.41,-135.3 425.41,-131.8 415.41,-128.3 415.41,-135.3"/>
</g>
<!-- LanguageCurrencyComponent  -->
<g id="node6" class="node">
<title>LanguageCurrencyComponent </title>
<polygon fill="#fb8072" stroke="black" points="713.12,-214.8 520.88,-214.8 520.88,-178.8 713.12,-178.8 713.12,-214.8"/>
<text text-anchor="middle" x="617" y="-192.6" font-family="Times,serif" font-size="14.00">LanguageCurrencyComponent </text>
</g>
<!-- SiteContextSelectorModule&#45;&gt;LanguageCurrencyComponent  -->
<g id="edge5" class="edge">
<title>SiteContextSelectorModule&#45;&gt;LanguageCurrencyComponent </title>
<path fill="none" stroke="black" stroke-dasharray="5,2" d="M558.85,-149.91C558.85,-149.91 558.85,-168.79 558.85,-168.79"/>
<polygon fill="black" stroke="black" points="555.35,-168.79 558.85,-178.79 562.35,-168.79 555.35,-168.79"/>
</g>
<!-- SiteContextSelectorComponent  -->
<g id="node7" class="node">
<title>SiteContextSelectorComponent </title>
<polygon fill="#fb8072" stroke="black" points="503.31,-214.8 306.69,-214.8 306.69,-178.8 503.31,-178.8 503.31,-214.8"/>
<text text-anchor="middle" x="405" y="-192.6" font-family="Times,serif" font-size="14.00">SiteContextSelectorComponent </text>
</g>
<!-- SiteContextSelectorModule&#45;&gt;SiteContextSelectorComponent  -->
<g id="edge6" class="edge">
<title>SiteContextSelectorModule&#45;&gt;SiteContextSelectorComponent </title>
<path fill="none" stroke="black" stroke-dasharray="5,2" d="M464.32,-149.91C464.32,-149.91 464.32,-168.79 464.32,-168.79"/>
<polygon fill="black" stroke="black" points="460.82,-168.79 464.32,-178.79 467.82,-168.79 460.82,-168.79"/>
</g>
<!-- IconModule -->
<g id="node4" class="node">
<title>IconModule</title>
<polygon fill="#8dd3c7" stroke="black" points="676.43,-84.8 673.43,-88.8 652.43,-88.8 649.43,-84.8 591.57,-84.8 591.57,-48.8 676.43,-48.8 676.43,-84.8"/>
<text text-anchor="middle" x="634" y="-62.6" font-family="Times,serif" font-size="14.00">IconModule</text>
</g>
<!-- IconModule&#45;&gt;SiteContextSelectorModule -->
<g id="edge3" class="edge">
<title>IconModule&#45;&gt;SiteContextSelectorModule</title>
<path fill="none" stroke="black" d="M591.73,-66.8C586.42,-66.8 582.81,-66.8 582.81,-66.8 582.81,-66.8 582.81,-103.69 582.81,-103.69"/>
<polygon fill="black" stroke="black" points="579.31,-103.69 582.81,-113.69 586.31,-103.69 579.31,-103.69"/>
</g>
<!-- SiteContextModule -->
<g id="node5" class="node">
<title>SiteContextModule</title>
<polygon fill="#8dd3c7" stroke="black" points="573.66,-84.8 570.66,-88.8 549.66,-88.8 546.66,-84.8 448.34,-84.8 448.34,-48.8 573.66,-48.8 573.66,-84.8"/>
<text text-anchor="middle" x="511" y="-62.6" font-family="Times,serif" font-size="14.00">SiteContextModule</text>
</g>
<!-- SiteContextModule&#45;&gt;SiteContextSelectorModule -->
<g id="edge4" class="edge">
<title>SiteContextModule&#45;&gt;SiteContextSelectorModule</title>
<path fill="none" stroke="black" d="M511,-84.91C511,-84.91 511,-103.79 511,-103.79"/>
<polygon fill="black" stroke="black" points="507.5,-103.79 511,-113.79 514.5,-103.79 507.5,-103.79"/>
</g>
<!-- SiteContextComponentService -->
<g id="node8" class="node">
<title>SiteContextComponentService</title>
<ellipse fill="#fdb462" stroke="black" cx="831" cy="-66.8" rx="130.82" ry="18"/>
<text text-anchor="middle" x="831" y="-62.6" font-family="Times,serif" font-size="14.00">SiteContextComponentService</text>
</g>
<!-- SiteContextComponentService&#45;&gt;SiteContextSelectorModule -->
<g id="edge7" class="edge">
<title>SiteContextComponentService&#45;&gt;SiteContextSelectorModule</title>
<path fill="none" stroke="black" d="M706.7,-72.8C706.7,-88.89 706.7,-131.8 706.7,-131.8 706.7,-131.8 606.55,-131.8 606.55,-131.8"/>
<polygon fill="black" stroke="black" points="606.55,-128.3 596.55,-131.8 606.55,-135.3 606.55,-128.3"/>
</g>
</g>
</svg>
