<?xml version="1.0" encoding="UTF-8" standalone="no"?>
<!DOCTYPE svg PUBLIC "-//W3C//DTD SVG 1.1//EN"
 "http://www.w3.org/Graphics/SVG/1.1/DTD/svg11.dtd">
<!-- Generated by graphviz version 2.47.0 (20210316.0004)
 -->
<!-- Title: dependencies Pages: 1 -->
<svg width="994pt" height="284pt"
 viewBox="0.00 0.00 994.00 284.00" xmlns="http://www.w3.org/2000/svg" xmlns:xlink="http://www.w3.org/1999/xlink">
<g id="graph0" class="graph" transform="scale(1 1) rotate(0) translate(4 280)">
<title>dependencies</title>
<polygon fill="white" stroke="transparent" points="-4,4 -4,-280 990,-280 990,4 -4,4"/>
<text text-anchor="start" x="472.01" y="-42.4" font-family="sans-serif" font-weight="bold" font-size="14.00">Legend</text>
<polygon fill="#ffffb3" stroke="transparent" points="259,-10 259,-30 279,-30 279,-10 259,-10"/>
<text text-anchor="start" x="282.63" y="-15.4" font-family="sans-serif" font-size="14.00"> &#160;Declarations</text>
<polygon fill="#8dd3c7" stroke="transparent" points="372,-10 372,-30 392,-30 392,-10 372,-10"/>
<text text-anchor="start" x="395.73" y="-15.4" font-family="sans-serif" font-size="14.00"> &#160;Module</text>
<polygon fill="#80b1d3" stroke="transparent" points="458,-10 458,-30 478,-30 478,-10 458,-10"/>
<text text-anchor="start" x="481.78" y="-15.4" font-family="sans-serif" font-size="14.00"> &#160;Bootstrap</text>
<polygon fill="#fdb462" stroke="transparent" points="555,-10 555,-30 575,-30 575,-10 555,-10"/>
<text text-anchor="start" x="578.67" y="-15.4" font-family="sans-serif" font-size="14.00"> &#160;Providers</text>
<polygon fill="#fb8072" stroke="transparent" points="651,-10 651,-30 671,-30 671,-10 651,-10"/>
<text text-anchor="start" x="674.73" y="-15.4" font-family="sans-serif" font-size="14.00"> &#160;Exports</text>
<g id="clust1" class="cluster">
<title>cluster_SiteContextSelectorModule</title>
<polygon fill="none" stroke="black" stroke-dasharray="1,5" points="8,-70 8,-268 978,-268 978,-70 8,-70"/>
</g>
<g id="clust5" class="cluster">
<title>cluster_SiteContextSelectorModule_imports</title>
<polygon fill="none" stroke="black" points="726,-78 726,-130 970,-130 970,-78 726,-78"/>
</g>
<g id="clust8" class="cluster">
<title>cluster_SiteContextSelectorModule_providers</title>
<polygon fill="none" stroke="black" points="440,-78 440,-130 718,-130 718,-78 440,-78"/>
</g>
<g id="clust6" class="cluster">
<title>cluster_SiteContextSelectorModule_exports</title>
<polygon fill="none" stroke="black" points="367,-208 367,-260 789,-260 789,-208 367,-208"/>
</g>
<g id="clust2" class="cluster">
<title>cluster_SiteContextSelectorModule_declarations</title>
<polygon fill="none" stroke="black" points="16,-78 16,-130 432,-130 432,-78 16,-78"/>
</g>
<!-- LanguageCurrencyComponent -->
<g id="node1" class="node">
<title>LanguageCurrencyComponent</title>
<polygon fill="#ffffb3" stroke="black" points="424.12,-122 235.88,-122 235.88,-86 424.12,-86 424.12,-122"/>
<text text-anchor="middle" x="330" y="-99.8" font-family="Times,serif" font-size="14.00">LanguageCurrencyComponent</text>
</g>
<!-- SiteContextSelectorModule -->
<g id="node3" class="node">
<title>SiteContextSelectorModule</title>
<polygon fill="#8dd3c7" stroke="black" points="664.53,-187 661.53,-191 640.53,-191 637.53,-187 493.47,-187 493.47,-151 664.53,-151 664.53,-187"/>
<text text-anchor="middle" x="579" y="-164.8" font-family="Times,serif" font-size="14.00">SiteContextSelectorModule</text>
</g>
<!-- LanguageCurrencyComponent&#45;&gt;SiteContextSelectorModule -->
<g id="edge1" class="edge">
<title>LanguageCurrencyComponent&#45;&gt;SiteContextSelectorModule</title>
<path fill="none" stroke="black" d="M399.45,-122.02C399.45,-139.37 399.45,-163 399.45,-163 399.45,-163 483.43,-163 483.43,-163"/>
<polygon fill="black" stroke="black" points="483.43,-166.5 493.43,-163 483.43,-159.5 483.43,-166.5"/>
</g>
<!-- SiteContextSelectorComponent -->
<g id="node2" class="node">
<title>SiteContextSelectorComponent</title>
<polygon fill="#ffffb3" stroke="black" points="217.81,-122 24.19,-122 24.19,-86 217.81,-86 217.81,-122"/>
<text text-anchor="middle" x="121" y="-99.8" font-family="Times,serif" font-size="14.00">SiteContextSelectorComponent</text>
</g>
<!-- SiteContextSelectorComponent&#45;&gt;SiteContextSelectorModule -->
<g id="edge2" class="edge">
<title>SiteContextSelectorComponent&#45;&gt;SiteContextSelectorModule</title>
<path fill="none" stroke="black" d="M121,-122.28C121,-143.32 121,-175 121,-175 121,-175 483.39,-175 483.39,-175"/>
<polygon fill="black" stroke="black" points="483.39,-178.5 493.39,-175 483.39,-171.5 483.39,-178.5"/>
</g>
<!-- LanguageCurrencyComponent  -->
<g id="node6" class="node">
<title>LanguageCurrencyComponent </title>
<polygon fill="#fb8072" stroke="black" points="781.12,-252 588.88,-252 588.88,-216 781.12,-216 781.12,-252"/>
<text text-anchor="middle" x="685" y="-229.8" font-family="Times,serif" font-size="14.00">LanguageCurrencyComponent </text>
</g>
<!-- SiteContextSelectorModule&#45;&gt;LanguageCurrencyComponent  -->
<g id="edge5" class="edge">
<title>SiteContextSelectorModule&#45;&gt;LanguageCurrencyComponent </title>
<path fill="none" stroke="black" stroke-dasharray="5,2" d="M626.85,-187.11C626.85,-187.11 626.85,-205.99 626.85,-205.99"/>
<polygon fill="black" stroke="black" points="623.35,-205.99 626.85,-215.99 630.35,-205.99 623.35,-205.99"/>
</g>
<!-- SiteContextSelectorComponent  -->
<g id="node7" class="node">
<title>SiteContextSelectorComponent </title>
<polygon fill="#fb8072" stroke="black" points="571.31,-252 374.69,-252 374.69,-216 571.31,-216 571.31,-252"/>
<text text-anchor="middle" x="473" y="-229.8" font-family="Times,serif" font-size="14.00">SiteContextSelectorComponent </text>
</g>
<!-- SiteContextSelectorModule&#45;&gt;SiteContextSelectorComponent  -->
<g id="edge6" class="edge">
<title>SiteContextSelectorModule&#45;&gt;SiteContextSelectorComponent </title>
<path fill="none" stroke="black" stroke-dasharray="5,2" d="M532.32,-187.11C532.32,-187.11 532.32,-205.99 532.32,-205.99"/>
<polygon fill="black" stroke="black" points="528.82,-205.99 532.32,-215.99 535.82,-205.99 528.82,-205.99"/>
</g>
<!-- IconModule -->
<g id="node4" class="node">
<title>IconModule</title>
<polygon fill="#8dd3c7" stroke="black" points="962.43,-122 959.43,-126 938.43,-126 935.43,-122 877.57,-122 877.57,-86 962.43,-86 962.43,-122"/>
<text text-anchor="middle" x="920" y="-99.8" font-family="Times,serif" font-size="14.00">IconModule</text>
</g>
<!-- IconModule&#45;&gt;SiteContextSelectorModule -->
<g id="edge3" class="edge">
<title>IconModule&#45;&gt;SiteContextSelectorModule</title>
<path fill="none" stroke="black" d="M920,-122.28C920,-143.32 920,-175 920,-175 920,-175 674.61,-175 674.61,-175"/>
<polygon fill="black" stroke="black" points="674.61,-171.5 664.61,-175 674.61,-178.5 674.61,-171.5"/>
</g>
<!-- SiteContextModule -->
<g id="node5" class="node">
<title>SiteContextModule</title>
<polygon fill="#8dd3c7" stroke="black" points="859.66,-122 856.66,-126 835.66,-126 832.66,-122 734.34,-122 734.34,-86 859.66,-86 859.66,-122"/>
<text text-anchor="middle" x="797" y="-99.8" font-family="Times,serif" font-size="14.00">SiteContextModule</text>
</g>
<!-- SiteContextModule&#45;&gt;SiteContextSelectorModule -->
<g id="edge4" class="edge">
<title>SiteContextModule&#45;&gt;SiteContextSelectorModule</title>
<path fill="none" stroke="black" d="M757.61,-122.02C757.61,-139.37 757.61,-163 757.61,-163 757.61,-163 674.64,-163 674.64,-163"/>
<polygon fill="black" stroke="black" points="674.64,-159.5 664.64,-163 674.64,-166.5 674.64,-159.5"/>
</g>
<!-- SiteContextComponentService -->
<g id="node8" class="node">
<title>SiteContextComponentService</title>
<ellipse fill="#fdb462" stroke="black" cx="579" cy="-104" rx="130.82" ry="18"/>
<text text-anchor="middle" x="579" y="-99.8" font-family="Times,serif" font-size="14.00">SiteContextComponentService</text>
</g>
<!-- SiteContextComponentService&#45;&gt;SiteContextSelectorModule -->
<g id="edge7" class="edge">
<title>SiteContextComponentService&#45;&gt;SiteContextSelectorModule</title>
<path fill="none" stroke="black" d="M579,-122.11C579,-122.11 579,-140.99 579,-140.99"/>
<polygon fill="black" stroke="black" points="575.5,-140.99 579,-150.99 582.5,-140.99 575.5,-140.99"/>
</g>
</g>
</svg>
