<?xml version="1.0" encoding="UTF-8" standalone="no"?>
<!DOCTYPE svg PUBLIC "-//W3C//DTD SVG 1.1//EN"
 "http://www.w3.org/Graphics/SVG/1.1/DTD/svg11.dtd">
<!-- Generated by graphviz version 2.40.1 (20161225.0304)
 -->
<!-- Title: dependencies Pages: 1 -->
<svg width="1110pt" height="284pt"
 viewBox="0.00 0.00 1110.00 284.00" xmlns="http://www.w3.org/2000/svg" xmlns:xlink="http://www.w3.org/1999/xlink">
<g id="graph0" class="graph" transform="scale(1 1) rotate(0) translate(4 280)">
<title>dependencies</title>
<polygon fill="#ffffff" stroke="transparent" points="-4,4 -4,-280 1106,-280 1106,4 -4,4"/>
<text text-anchor="start" x="530.0091" y="-42.4" font-family="sans-serif" font-weight="bold" font-size="14.00" fill="#000000">Legend</text>
<polygon fill="#ffffb3" stroke="transparent" points="317,-10 317,-30 337,-30 337,-10 317,-10"/>
<text text-anchor="start" x="340.629" y="-15.4" font-family="sans-serif" font-size="14.00" fill="#000000"> &#160;Declarations</text>
<polygon fill="#8dd3c7" stroke="transparent" points="430,-10 430,-30 450,-30 450,-10 430,-10"/>
<text text-anchor="start" x="453.7251" y="-15.4" font-family="sans-serif" font-size="14.00" fill="#000000"> &#160;Module</text>
<polygon fill="#80b1d3" stroke="transparent" points="516,-10 516,-30 536,-30 536,-10 516,-10"/>
<text text-anchor="start" x="539.7812" y="-15.4" font-family="sans-serif" font-size="14.00" fill="#000000"> &#160;Bootstrap</text>
<polygon fill="#fdb462" stroke="transparent" points="613,-10 613,-30 633,-30 633,-10 613,-10"/>
<text text-anchor="start" x="636.6732" y="-15.4" font-family="sans-serif" font-size="14.00" fill="#000000"> &#160;Providers</text>
<polygon fill="#fb8072" stroke="transparent" points="709,-10 709,-30 729,-30 729,-10 709,-10"/>
<text text-anchor="start" x="732.7258" y="-15.4" font-family="sans-serif" font-size="14.00" fill="#000000"> &#160;Exports</text>
<g id="clust1" class="cluster">
<title>cluster_SiteContextSelectorModule</title>
<polygon fill="none" stroke="#000000" stroke-dasharray="1,5" points="8,-70 8,-268 1094,-268 1094,-70 8,-70"/>
</g>
<g id="clust2" class="cluster">
<title>cluster_SiteContextSelectorModule_declarations</title>
<polygon fill="none" stroke="#000000" points="670,-78 670,-130 1086,-130 1086,-78 670,-78"/>
</g>
<g id="clust5" class="cluster">
<title>cluster_SiteContextSelectorModule_imports</title>
<polygon fill="none" stroke="#000000" points="302,-78 302,-130 662,-130 662,-78 302,-78"/>
</g>
<g id="clust6" class="cluster">
<title>cluster_SiteContextSelectorModule_exports</title>
<polygon fill="none" stroke="#000000" points="338,-208 338,-260 760,-260 760,-208 338,-208"/>
</g>
<g id="clust8" class="cluster">
<title>cluster_SiteContextSelectorModule_providers</title>
<polygon fill="none" stroke="#000000" points="16,-78 16,-130 294,-130 294,-78 16,-78"/>
</g>
<!-- LanguageCurrencyComponent -->
<g id="node1" class="node">
<title>LanguageCurrencyComponent</title>
<polygon fill="#ffffb3" stroke="#000000" points="1078.1162,-122 889.8838,-122 889.8838,-86 1078.1162,-86 1078.1162,-122"/>
<text text-anchor="middle" x="984" y="-99.8" font-family="Times,serif" font-size="14.00" fill="#000000">LanguageCurrencyComponent</text>
</g>
<!-- SiteContextSelectorModule -->
<g id="node3" class="node">
<title>SiteContextSelectorModule</title>
<polygon fill="#8dd3c7" stroke="#000000" points="635.5294,-187 632.5294,-191 611.5294,-191 608.5294,-187 464.4706,-187 464.4706,-151 635.5294,-151 635.5294,-187"/>
<text text-anchor="middle" x="550" y="-164.8" font-family="Times,serif" font-size="14.00" fill="#000000">SiteContextSelectorModule</text>
</g>
<!-- LanguageCurrencyComponent&#45;&gt;SiteContextSelectorModule -->
<g id="edge1" class="edge">
<title>LanguageCurrencyComponent&#45;&gt;SiteContextSelectorModule</title>
<path fill="none" stroke="#000000" d="M984,-122.2843C984,-143.3211 984,-175 984,-175 984,-175 645.7444,-175 645.7444,-175"/>
<polygon fill="#000000" stroke="#000000" points="645.7445,-171.5001 635.7444,-175 645.7444,-178.5001 645.7445,-171.5001"/>
</g>
<!-- SiteContextSelectorComponent -->
<g id="node2" class="node">
<title>SiteContextSelectorComponent</title>
<polygon fill="#ffffb3" stroke="#000000" points="871.8117,-122 678.1883,-122 678.1883,-86 871.8117,-86 871.8117,-122"/>
<text text-anchor="middle" x="775" y="-99.8" font-family="Times,serif" font-size="14.00" fill="#000000">SiteContextSelectorComponent</text>
</g>
<!-- SiteContextSelectorComponent&#45;&gt;SiteContextSelectorModule -->
<g id="edge2" class="edge">
<title>SiteContextSelectorComponent&#45;&gt;SiteContextSelectorModule</title>
<path fill="none" stroke="#000000" d="M715.2011,-122.0225C715.2011,-139.3734 715.2011,-163 715.2011,-163 715.2011,-163 645.9876,-163 645.9876,-163"/>
<polygon fill="#000000" stroke="#000000" points="645.9877,-159.5001 635.9876,-163 645.9876,-166.5001 645.9877,-159.5001"/>
</g>
<!-- LanguageCurrencyComponent  -->
<g id="node7" class="node">
<title>LanguageCurrencyComponent </title>
<polygon fill="#fb8072" stroke="#000000" points="752.1158,-252 559.8842,-252 559.8842,-216 752.1158,-216 752.1158,-252"/>
<text text-anchor="middle" x="656" y="-229.8" font-family="Times,serif" font-size="14.00" fill="#000000">LanguageCurrencyComponent </text>
</g>
<!-- SiteContextSelectorModule&#45;&gt;LanguageCurrencyComponent  -->
<g id="edge6" class="edge">
<title>SiteContextSelectorModule&#45;&gt;LanguageCurrencyComponent </title>
<path fill="none" stroke="#000000" stroke-dasharray="5,2" d="M597.8533,-187.1061C597.8533,-187.1061 597.8533,-205.991 597.8533,-205.991"/>
<polygon fill="#000000" stroke="#000000" points="594.3533,-205.9909 597.8533,-215.991 601.3533,-205.991 594.3533,-205.9909"/>
</g>
<!-- SiteContextSelectorComponent  -->
<g id="node8" class="node">
<title>SiteContextSelectorComponent </title>
<polygon fill="#fb8072" stroke="#000000" points="542.3115,-252 345.6885,-252 345.6885,-216 542.3115,-216 542.3115,-252"/>
<text text-anchor="middle" x="444" y="-229.8" font-family="Times,serif" font-size="14.00" fill="#000000">SiteContextSelectorComponent </text>
</g>
<!-- SiteContextSelectorModule&#45;&gt;SiteContextSelectorComponent  -->
<g id="edge7" class="edge">
<title>SiteContextSelectorModule&#45;&gt;SiteContextSelectorComponent </title>
<path fill="none" stroke="#000000" stroke-dasharray="5,2" d="M503.3207,-187.1061C503.3207,-187.1061 503.3207,-205.991 503.3207,-205.991"/>
<polygon fill="#000000" stroke="#000000" points="499.8207,-205.9909 503.3207,-215.991 506.8207,-205.991 499.8207,-205.9909"/>
</g>
<!-- ConfigModule -->
<g id="node4" class="node">
<title>ConfigModule</title>
<polygon fill="#8dd3c7" stroke="#000000" points="654.4386,-122 651.4386,-126 630.4386,-126 627.4386,-122 555.5614,-122 555.5614,-86 654.4386,-86 654.4386,-122"/>
<text text-anchor="middle" x="605" y="-99.8" font-family="Times,serif" font-size="14.00" fill="#000000">ConfigModule</text>
</g>
<!-- ConfigModule&#45;&gt;SiteContextSelectorModule -->
<g id="edge3" class="edge">
<title>ConfigModule&#45;&gt;SiteContextSelectorModule</title>
<path fill="none" stroke="#000000" d="M595.7728,-122.1061C595.7728,-122.1061 595.7728,-140.991 595.7728,-140.991"/>
<polygon fill="#000000" stroke="#000000" points="592.2729,-140.9909 595.7728,-150.991 599.2729,-140.991 592.2729,-140.9909"/>
</g>
<!-- IconModule -->
<g id="node5" class="node">
<title>IconModule</title>
<polygon fill="#8dd3c7" stroke="#000000" points="538.4261,-122 535.4261,-126 514.4261,-126 511.4261,-122 453.5739,-122 453.5739,-86 538.4261,-86 538.4261,-122"/>
<text text-anchor="middle" x="496" y="-99.8" font-family="Times,serif" font-size="14.00" fill="#000000">IconModule</text>
</g>
<!-- IconModule&#45;&gt;SiteContextSelectorModule -->
<g id="edge4" class="edge">
<title>IconModule&#45;&gt;SiteContextSelectorModule</title>
<path fill="none" stroke="#000000" d="M501.2241,-122.1061C501.2241,-122.1061 501.2241,-140.991 501.2241,-140.991"/>
<polygon fill="#000000" stroke="#000000" points="497.7241,-140.9909 501.2241,-150.991 504.7241,-140.991 497.7241,-140.9909"/>
</g>
<!-- SiteContextModule -->
<g id="node6" class="node">
<title>SiteContextModule</title>
<polygon fill="#8dd3c7" stroke="#000000" points="435.6611,-122 432.6611,-126 411.6611,-126 408.6611,-122 310.3389,-122 310.3389,-86 435.6611,-86 435.6611,-122"/>
<text text-anchor="middle" x="373" y="-99.8" font-family="Times,serif" font-size="14.00" fill="#000000">SiteContextModule</text>
</g>
<!-- SiteContextModule&#45;&gt;SiteContextSelectorModule -->
<g id="edge5" class="edge">
<title>SiteContextModule&#45;&gt;SiteContextSelectorModule</title>
<path fill="none" stroke="#000000" d="M390.7123,-122.0225C390.7123,-139.3734 390.7123,-163 390.7123,-163 390.7123,-163 454.2947,-163 454.2947,-163"/>
<polygon fill="#000000" stroke="#000000" points="454.2948,-166.5001 464.2947,-163 454.2947,-159.5001 454.2948,-166.5001"/>
</g>
<!-- SiteContextComponentService -->
<g id="node9" class="node">
<title>SiteContextComponentService</title>
<ellipse fill="#fdb462" stroke="#000000" cx="155" cy="-104" rx="130.8182" ry="18"/>
<text text-anchor="middle" x="155" y="-99.8" font-family="Times,serif" font-size="14.00" fill="#000000">SiteContextComponentService</text>
</g>
<!-- SiteContextComponentService&#45;&gt;SiteContextSelectorModule -->
<g id="edge8" class="edge">
<title>SiteContextComponentService&#45;&gt;SiteContextSelectorModule</title>
<path fill="none" stroke="#000000" d="M155,-122.2843C155,-143.3211 155,-175 155,-175 155,-175 454.2909,-175 454.2909,-175"/>
<polygon fill="#000000" stroke="#000000" points="454.2909,-178.5001 464.2909,-175 454.2908,-171.5001 454.2909,-178.5001"/>
</g>
</g>
</svg>
