<?xml version="1.0" encoding="UTF-8" standalone="no"?>
<!DOCTYPE svg PUBLIC "-//W3C//DTD SVG 1.1//EN"
 "http://www.w3.org/Graphics/SVG/1.1/DTD/svg11.dtd">
<!-- Generated by graphviz version 2.47.3 (20210619.1520)
 -->
<!-- Title: dependencies Pages: 1 -->
<svg width="604pt" height="247pt"
 viewBox="0.00 0.00 604.00 246.80" xmlns="http://www.w3.org/2000/svg" xmlns:xlink="http://www.w3.org/1999/xlink">
<g id="graph0" class="graph" transform="scale(1 1) rotate(0) translate(4 242.8)">
<title>dependencies</title>
<polygon fill="white" stroke="transparent" points="-4,4 -4,-242.8 600,-242.8 600,4 -4,4"/>
<text text-anchor="middle" x="298" y="-8.2" font-family="sans-serif" font-size="14.00">dependencies</text>
<g id="clust1" class="cluster">
<title>cluster_CartItemValidationWarningModule</title>
<polygon fill="none" stroke="black" stroke-dasharray="1,5" points="8,-32.8 8,-230.8 588,-230.8 588,-32.8 8,-32.8"/>
</g>
<g id="clust5" class="cluster">
<title>cluster_CartItemValidationWarningModule_exports</title>
<polygon fill="none" stroke="black" points="247,-170.8 247,-222.8 505,-222.8 505,-170.8 247,-170.8"/>
</g>
<g id="clust4" class="cluster">
<title>cluster_CartItemValidationWarningModule_imports</title>
<polygon fill="none" stroke="black" points="280,-40.8 280,-92.8 580,-92.8 580,-40.8 280,-40.8"/>
</g>
<g id="clust2" class="cluster">
<title>cluster_CartItemValidationWarningModule_declarations</title>
<polygon fill="none" stroke="black" points="16,-40.8 16,-92.8 272,-92.8 272,-40.8 16,-40.8"/>
</g>
<!-- CartItemValidationWarningComponent -->
<g id="node1" class="node">
<title>CartItemValidationWarningComponent</title>
<polygon fill="#ffffb3" stroke="black" points="263.67,-84.8 24.33,-84.8 24.33,-48.8 263.67,-48.8 263.67,-84.8"/>
<text text-anchor="middle" x="144" y="-62.6" font-family="Times,serif" font-size="14.00">CartItemValidationWarningComponent</text>
</g>
<!-- CartItemValidationWarningModule -->
<g id="node2" class="node">
<title>CartItemValidationWarningModule</title>
<polygon fill="#8dd3c7" stroke="black" points="484.89,-149.8 481.89,-153.8 460.89,-153.8 457.89,-149.8 267.11,-149.8 267.11,-113.8 484.89,-113.8 484.89,-149.8"/>
<text text-anchor="middle" x="376" y="-127.6" font-family="Times,serif" font-size="14.00">CartItemValidationWarningModule</text>
</g>
<!-- CartItemValidationWarningComponent&#45;&gt;CartItemValidationWarningModule -->
<g id="edge1" class="edge">
<title>CartItemValidationWarningComponent&#45;&gt;CartItemValidationWarningModule</title>
<path fill="none" stroke="black" d="M259.12,-84.91C259.12,-104.14 259.12,-131.8 259.12,-131.8 259.12,-131.8 259.93,-131.8 259.93,-131.8"/>
<polygon fill="black" stroke="black" points="257.16,-135.3 267.16,-131.8 257.16,-128.3 257.16,-135.3"/>
</g>
<!-- CartItemValidationWarningComponent  -->
<g id="node6" class="node">
<title>CartItemValidationWarningComponent </title>
<polygon fill="#fb8072" stroke="black" points="497.17,-214.8 254.83,-214.8 254.83,-178.8 497.17,-178.8 497.17,-214.8"/>
<text text-anchor="middle" x="376" y="-192.6" font-family="Times,serif" font-size="14.00">CartItemValidationWarningComponent </text>
</g>
<!-- CartItemValidationWarningModule&#45;&gt;CartItemValidationWarningComponent  -->
<g id="edge5" class="edge">
<title>CartItemValidationWarningModule&#45;&gt;CartItemValidationWarningComponent </title>
<path fill="none" stroke="black" stroke-dasharray="5,2" d="M376,-149.91C376,-149.91 376,-168.79 376,-168.79"/>
<polygon fill="black" stroke="black" points="372.5,-168.79 376,-178.79 379.5,-168.79 372.5,-168.79"/>
</g>
<!-- I18nModule -->
<g id="node3" class="node">
<title>I18nModule</title>
<polygon fill="#8dd3c7" stroke="black" points="571.71,-84.8 568.71,-88.8 547.71,-88.8 544.71,-84.8 486.29,-84.8 486.29,-48.8 571.71,-48.8 571.71,-84.8"/>
<text text-anchor="middle" x="529" y="-62.6" font-family="Times,serif" font-size="14.00">I18nModule</text>
</g>
<!-- I18nModule&#45;&gt;CartItemValidationWarningModule -->
<g id="edge2" class="edge">
<title>I18nModule&#45;&gt;CartItemValidationWarningModule</title>
<path fill="none" stroke="black" d="M491.86,-84.91C491.86,-104.14 491.86,-131.8 491.86,-131.8 491.86,-131.8 491.17,-131.8 491.17,-131.8"/>
<polygon fill="black" stroke="black" points="494.96,-128.3 484.96,-131.8 494.96,-135.3 494.96,-128.3"/>
</g>
<!-- IconModule -->
<g id="node4" class="node">
<title>IconModule</title>
<polygon fill="#8dd3c7" stroke="black" points="468.43,-84.8 465.43,-88.8 444.43,-88.8 441.43,-84.8 383.57,-84.8 383.57,-48.8 468.43,-48.8 468.43,-84.8"/>
<text text-anchor="middle" x="426" y="-62.6" font-family="Times,serif" font-size="14.00">IconModule</text>
</g>
<!-- IconModule&#45;&gt;CartItemValidationWarningModule -->
<g id="edge3" class="edge">
<title>IconModule&#45;&gt;CartItemValidationWarningModule</title>
<path fill="none" stroke="black" d="M426,-84.91C426,-84.91 426,-103.79 426,-103.79"/>
<polygon fill="black" stroke="black" points="422.5,-103.79 426,-113.79 429.5,-103.79 422.5,-103.79"/>
</g>
<!-- UrlModule -->
<g id="node5" class="node">
<title>UrlModule</title>
<polygon fill="#8dd3c7" stroke="black" points="366.21,-84.8 363.21,-88.8 342.21,-88.8 339.21,-84.8 287.79,-84.8 287.79,-48.8 366.21,-48.8 366.21,-84.8"/>
<text text-anchor="middle" x="327" y="-62.6" font-family="Times,serif" font-size="14.00">UrlModule</text>
</g>
<!-- UrlModule&#45;&gt;CartItemValidationWarningModule -->
<g id="edge4" class="edge">
<title>UrlModule&#45;&gt;CartItemValidationWarningModule</title>
<path fill="none" stroke="black" d="M327,-84.91C327,-84.91 327,-103.79 327,-103.79"/>
<polygon fill="black" stroke="black" points="323.5,-103.79 327,-113.79 330.5,-103.79 323.5,-103.79"/>
</g>
</g>
</svg>
