<?xml version="1.0" encoding="UTF-8" standalone="no"?>
<!DOCTYPE svg PUBLIC "-//W3C//DTD SVG 1.1//EN"
 "http://www.w3.org/Graphics/SVG/1.1/DTD/svg11.dtd">
<!-- Generated by graphviz version 2.44.1 (20200629.0846)
 -->
<!-- Title: dependencies Pages: 1 -->
<svg width="1606pt" height="284pt"
 viewBox="0.00 0.00 1606.00 284.00" xmlns="http://www.w3.org/2000/svg" xmlns:xlink="http://www.w3.org/1999/xlink">
<g id="graph0" class="graph" transform="scale(1 1) rotate(0) translate(4 280)">
<title>dependencies</title>
<polygon fill="white" stroke="transparent" points="-4,4 -4,-280 1602,-280 1602,4 -4,4"/>
<text text-anchor="start" x="778.01" y="-42.4" font-family="sans-serif" font-weight="bold" font-size="14.00">Legend</text>
<polygon fill="#ffffb3" stroke="transparent" points="565,-10 565,-30 585,-30 585,-10 565,-10"/>
<text text-anchor="start" x="588.63" y="-15.4" font-family="sans-serif" font-size="14.00"> &#160;Declarations</text>
<polygon fill="#8dd3c7" stroke="transparent" points="678,-10 678,-30 698,-30 698,-10 678,-10"/>
<text text-anchor="start" x="701.73" y="-15.4" font-family="sans-serif" font-size="14.00"> &#160;Module</text>
<polygon fill="#80b1d3" stroke="transparent" points="764,-10 764,-30 784,-30 784,-10 764,-10"/>
<text text-anchor="start" x="787.78" y="-15.4" font-family="sans-serif" font-size="14.00"> &#160;Bootstrap</text>
<polygon fill="#fdb462" stroke="transparent" points="861,-10 861,-30 881,-30 881,-10 861,-10"/>
<text text-anchor="start" x="884.67" y="-15.4" font-family="sans-serif" font-size="14.00"> &#160;Providers</text>
<polygon fill="#fb8072" stroke="transparent" points="957,-10 957,-30 977,-30 977,-10 957,-10"/>
<text text-anchor="start" x="980.73" y="-15.4" font-family="sans-serif" font-size="14.00"> &#160;Exports</text>
<g id="clust1" class="cluster">
<title>cluster_AddToCartModule</title>
<polygon fill="none" stroke="black" stroke-dasharray="1,5" points="8,-70 8,-268 1590,-268 1590,-70 8,-70"/>
</g>
<g id="clust2" class="cluster">
<title>cluster_AddToCartModule_declarations</title>
<polygon fill="none" stroke="black" points="1206,-78 1206,-130 1582,-130 1582,-78 1206,-78"/>
</g>
<g id="clust6" class="cluster">
<title>cluster_AddToCartModule_exports</title>
<polygon fill="none" stroke="black" points="536,-208 536,-260 918,-260 918,-208 536,-208"/>
</g>
<g id="clust5" class="cluster">
<title>cluster_AddToCartModule_imports</title>
<polygon fill="none" stroke="black" points="16,-78 16,-130 1198,-130 1198,-78 16,-78"/>
</g>
<!-- AddToCartComponent -->
<g id="node1" class="node">
<title>AddToCartComponent</title>
<polygon fill="#ffffb3" stroke="black" points="1573.59,-122 1428.41,-122 1428.41,-86 1573.59,-86 1573.59,-122"/>
<text text-anchor="middle" x="1501" y="-99.8" font-family="Times,serif" font-size="14.00">AddToCartComponent</text>
</g>
<!-- AddToCartModule -->
<g id="node3" class="node">
<title>AddToCartModule</title>
<polygon fill="#8dd3c7" stroke="black" points="801.81,-187 798.81,-191 777.81,-191 774.81,-187 678.19,-187 678.19,-151 801.81,-151 801.81,-187"/>
<text text-anchor="middle" x="740" y="-164.8" font-family="Times,serif" font-size="14.00">AddToCartModule</text>
</g>
<!-- AddToCartComponent&#45;&gt;AddToCartModule -->
<g id="edge1" class="edge">
<title>AddToCartComponent&#45;&gt;AddToCartModule</title>
<path fill="none" stroke="black" d="M1501,-122.01C1501,-144.49 1501,-180 1501,-180 1501,-180 811.95,-180 811.95,-180"/>
<polygon fill="black" stroke="black" points="811.95,-176.5 801.95,-180 811.95,-183.5 811.95,-176.5"/>
</g>
<!-- AddedToCartDialogComponent -->
<g id="node2" class="node">
<title>AddedToCartDialogComponent</title>
<polygon fill="#ffffb3" stroke="black" points="1410.41,-122 1213.59,-122 1213.59,-86 1410.41,-86 1410.41,-122"/>
<text text-anchor="middle" x="1312" y="-99.8" font-family="Times,serif" font-size="14.00">AddedToCartDialogComponent</text>
</g>
<!-- AddedToCartDialogComponent&#45;&gt;AddToCartModule -->
<g id="edge2" class="edge">
<title>AddedToCartDialogComponent&#45;&gt;AddToCartModule</title>
<path fill="none" stroke="black" d="M1312,-122.13C1312,-142.57 1312,-173 1312,-173 1312,-173 811.76,-173 811.76,-173"/>
<polygon fill="black" stroke="black" points="811.76,-169.5 801.76,-173 811.76,-176.5 811.76,-169.5"/>
</g>
<!-- AddToCartComponent  -->
<g id="node13" class="node">
<title>AddToCartComponent </title>
<polygon fill="#fb8072" stroke="black" points="910.09,-252 761.91,-252 761.91,-216 910.09,-216 910.09,-252"/>
<text text-anchor="middle" x="836" y="-229.8" font-family="Times,serif" font-size="14.00">AddToCartComponent </text>
</g>
<!-- AddToCartModule&#45;&gt;AddToCartComponent  -->
<g id="edge12" class="edge">
<title>AddToCartModule&#45;&gt;AddToCartComponent </title>
<path fill="none" stroke="black" stroke-dasharray="5,2" d="M781.68,-187.11C781.68,-187.11 781.68,-205.99 781.68,-205.99"/>
<polygon fill="black" stroke="black" points="778.18,-205.99 781.68,-215.99 785.18,-205.99 778.18,-205.99"/>
</g>
<!-- AddedToCartDialogComponent  -->
<g id="node14" class="node">
<title>AddedToCartDialogComponent </title>
<polygon fill="#fb8072" stroke="black" points="743.91,-252 544.09,-252 544.09,-216 743.91,-216 743.91,-252"/>
<text text-anchor="middle" x="644" y="-229.8" font-family="Times,serif" font-size="14.00">AddedToCartDialogComponent </text>
</g>
<!-- AddToCartModule&#45;&gt;AddedToCartDialogComponent  -->
<g id="edge13" class="edge">
<title>AddToCartModule&#45;&gt;AddedToCartDialogComponent </title>
<path fill="none" stroke="black" stroke-dasharray="5,2" d="M711.15,-187.11C711.15,-187.11 711.15,-205.99 711.15,-205.99"/>
<polygon fill="black" stroke="black" points="707.65,-205.99 711.15,-215.99 714.65,-205.99 707.65,-205.99"/>
</g>
<!-- CartSharedModule -->
<g id="node4" class="node">
<title>CartSharedModule</title>
<polygon fill="#8dd3c7" stroke="black" points="1190.03,-122 1187.03,-126 1166.03,-126 1163.03,-122 1067.97,-122 1067.97,-86 1190.03,-86 1190.03,-122"/>
<text text-anchor="middle" x="1129" y="-99.8" font-family="Times,serif" font-size="14.00">CartSharedModule</text>
</g>
<!-- CartSharedModule&#45;&gt;AddToCartModule -->
<g id="edge3" class="edge">
<title>CartSharedModule&#45;&gt;AddToCartModule</title>
<path fill="none" stroke="black" d="M1129,-122.27C1129,-140.56 1129,-166 1129,-166 1129,-166 812.07,-166 812.07,-166"/>
<polygon fill="black" stroke="black" points="812.07,-162.5 802.07,-166 812.07,-169.5 812.07,-162.5"/>
</g>
<!-- FeaturesConfigModule -->
<g id="node5" class="node">
<title>FeaturesConfigModule</title>
<polygon fill="#8dd3c7" stroke="black" points="1049.86,-122 1046.86,-126 1025.86,-126 1022.86,-122 904.14,-122 904.14,-86 1049.86,-86 1049.86,-122"/>
<text text-anchor="middle" x="977" y="-99.8" font-family="Times,serif" font-size="14.00">FeaturesConfigModule</text>
</g>
<!-- FeaturesConfigModule&#45;&gt;AddToCartModule -->
<g id="edge4" class="edge">
<title>FeaturesConfigModule&#45;&gt;AddToCartModule</title>
<path fill="none" stroke="black" d="M980.11,-122.01C980.11,-138.05 980.11,-159 980.11,-159 980.11,-159 811.84,-159 811.84,-159"/>
<polygon fill="black" stroke="black" points="811.84,-155.5 801.84,-159 811.84,-162.5 811.84,-155.5"/>
</g>
<!-- I18nModule -->
<g id="node6" class="node">
<title>I18nModule</title>
<polygon fill="#8dd3c7" stroke="black" points="885.71,-122 882.71,-126 861.71,-126 858.71,-122 800.29,-122 800.29,-86 885.71,-86 885.71,-122"/>
<text text-anchor="middle" x="843" y="-99.8" font-family="Times,serif" font-size="14.00">I18nModule</text>
</g>
<!-- I18nModule&#45;&gt;AddToCartModule -->
<g id="edge5" class="edge">
<title>I18nModule&#45;&gt;AddToCartModule</title>
<path fill="none" stroke="black" d="M800.31,-104C794.95,-104 791.3,-104 791.3,-104 791.3,-104 791.3,-140.89 791.3,-140.89"/>
<polygon fill="black" stroke="black" points="787.8,-140.89 791.3,-150.89 794.8,-140.89 787.8,-140.89"/>
</g>
<!-- IconModule -->
<g id="node7" class="node">
<title>IconModule</title>
<polygon fill="#8dd3c7" stroke="black" points="782.43,-122 779.43,-126 758.43,-126 755.43,-122 697.57,-122 697.57,-86 782.43,-86 782.43,-122"/>
<text text-anchor="middle" x="740" y="-99.8" font-family="Times,serif" font-size="14.00">IconModule</text>
</g>
<!-- IconModule&#45;&gt;AddToCartModule -->
<g id="edge6" class="edge">
<title>IconModule&#45;&gt;AddToCartModule</title>
<path fill="none" stroke="black" d="M740,-122.11C740,-122.11 740,-140.99 740,-140.99"/>
<polygon fill="black" stroke="black" points="736.5,-140.99 740,-150.99 743.5,-140.99 736.5,-140.99"/>
</g>
<!-- ItemCounterModule -->
<g id="node8" class="node">
<title>ItemCounterModule</title>
<polygon fill="#8dd3c7" stroke="black" points="680.31,-122 677.31,-126 656.31,-126 653.31,-122 549.69,-122 549.69,-86 680.31,-86 680.31,-122"/>
<text text-anchor="middle" x="615" y="-99.8" font-family="Times,serif" font-size="14.00">ItemCounterModule</text>
</g>
<!-- ItemCounterModule&#45;&gt;AddToCartModule -->
<g id="edge7" class="edge">
<title>ItemCounterModule&#45;&gt;AddToCartModule</title>
<path fill="none" stroke="black" d="M680.19,-104C685.56,-104 688.97,-104 688.97,-104 688.97,-104 688.97,-140.89 688.97,-140.89"/>
<polygon fill="black" stroke="black" points="685.47,-140.89 688.97,-150.89 692.47,-140.89 685.47,-140.89"/>
</g>
<!-- KeyboardFocusModule -->
<g id="node9" class="node">
<title>KeyboardFocusModule</title>
<polygon fill="#8dd3c7" stroke="black" points="532.19,-122 529.19,-126 508.19,-126 505.19,-122 383.81,-122 383.81,-86 532.19,-86 532.19,-122"/>
<text text-anchor="middle" x="458" y="-99.8" font-family="Times,serif" font-size="14.00">KeyboardFocusModule</text>
</g>
<!-- KeyboardFocusModule&#45;&gt;AddToCartModule -->
<g id="edge8" class="edge">
<title>KeyboardFocusModule&#45;&gt;AddToCartModule</title>
<path fill="none" stroke="black" d="M458,-122.01C458,-138.05 458,-159 458,-159 458,-159 668.11,-159 668.11,-159"/>
<polygon fill="black" stroke="black" points="668.11,-162.5 678.11,-159 668.11,-155.5 668.11,-162.5"/>
</g>
<!-- PromotionsModule -->
<g id="node10" class="node">
<title>PromotionsModule</title>
<polygon fill="#8dd3c7" stroke="black" points="366.11,-122 363.11,-126 342.11,-126 339.11,-122 241.89,-122 241.89,-86 366.11,-86 366.11,-122"/>
<text text-anchor="middle" x="304" y="-99.8" font-family="Times,serif" font-size="14.00">PromotionsModule</text>
</g>
<!-- PromotionsModule&#45;&gt;AddToCartModule -->
<g id="edge9" class="edge">
<title>PromotionsModule&#45;&gt;AddToCartModule</title>
<path fill="none" stroke="black" d="M304,-122.27C304,-140.56 304,-166 304,-166 304,-166 667.99,-166 667.99,-166"/>
<polygon fill="black" stroke="black" points="667.99,-169.5 677.99,-166 667.99,-162.5 667.99,-169.5"/>
</g>
<!-- SpinnerModule -->
<g id="node11" class="node">
<title>SpinnerModule</title>
<polygon fill="#8dd3c7" stroke="black" points="223.6,-122 220.6,-126 199.6,-126 196.6,-122 120.4,-122 120.4,-86 223.6,-86 223.6,-122"/>
<text text-anchor="middle" x="172" y="-99.8" font-family="Times,serif" font-size="14.00">SpinnerModule</text>
</g>
<!-- SpinnerModule&#45;&gt;AddToCartModule -->
<g id="edge10" class="edge">
<title>SpinnerModule&#45;&gt;AddToCartModule</title>
<path fill="none" stroke="black" d="M172,-122.13C172,-142.57 172,-173 172,-173 172,-173 668.13,-173 668.13,-173"/>
<polygon fill="black" stroke="black" points="668.13,-176.5 678.13,-173 668.13,-169.5 668.13,-176.5"/>
</g>
<!-- UrlModule -->
<g id="node12" class="node">
<title>UrlModule</title>
<polygon fill="#8dd3c7" stroke="black" points="102.21,-122 99.21,-126 78.21,-126 75.21,-122 23.79,-122 23.79,-86 102.21,-86 102.21,-122"/>
<text text-anchor="middle" x="63" y="-99.8" font-family="Times,serif" font-size="14.00">UrlModule</text>
</g>
<!-- UrlModule&#45;&gt;AddToCartModule -->
<g id="edge11" class="edge">
<title>UrlModule&#45;&gt;AddToCartModule</title>
<path fill="none" stroke="black" d="M63,-122.01C63,-144.49 63,-180 63,-180 63,-180 668.13,-180 668.13,-180"/>
<polygon fill="black" stroke="black" points="668.13,-183.5 678.13,-180 668.13,-176.5 668.13,-183.5"/>
</g>
</g>
</svg>
