<?xml version="1.0" encoding="UTF-8" standalone="no"?>
<!DOCTYPE svg PUBLIC "-//W3C//DTD SVG 1.1//EN"
 "http://www.w3.org/Graphics/SVG/1.1/DTD/svg11.dtd">
<!-- Generated by graphviz version 2.47.3 (20210619.1520)
 -->
<!-- Title: dependencies Pages: 1 -->
<svg width="1720pt" height="247pt"
 viewBox="0.00 0.00 1720.00 246.80" xmlns="http://www.w3.org/2000/svg" xmlns:xlink="http://www.w3.org/1999/xlink">
<g id="graph0" class="graph" transform="scale(1 1) rotate(0) translate(4 242.8)">
<title>dependencies</title>
<polygon fill="white" stroke="transparent" points="-4,4 -4,-242.8 1716,-242.8 1716,4 -4,4"/>
<text text-anchor="middle" x="856" y="-8.2" font-family="sans-serif" font-size="14.00">dependencies</text>
<g id="clust1" class="cluster">
<title>cluster_AddToCartModule</title>
<polygon fill="none" stroke="black" stroke-dasharray="1,5" points="8,-32.8 8,-230.8 1704,-230.8 1704,-32.8 8,-32.8"/>
</g>
<g id="clust5" class="cluster">
<title>cluster_AddToCartModule_imports</title>
<polygon fill="none" stroke="black" points="400,-40.8 400,-92.8 1696,-92.8 1696,-40.8 400,-40.8"/>
</g>
<g id="clust2" class="cluster">
<title>cluster_AddToCartModule_declarations</title>
<polygon fill="none" stroke="black" points="16,-40.8 16,-92.8 392,-92.8 392,-40.8 16,-40.8"/>
</g>
<g id="clust6" class="cluster">
<title>cluster_AddToCartModule_exports</title>
<polygon fill="none" stroke="black" points="682,-170.8 682,-222.8 1064,-222.8 1064,-170.8 682,-170.8"/>
</g>
<!-- AddToCartComponent -->
<g id="node1" class="node">
<title>AddToCartComponent</title>
<polygon fill="#ffffb3" stroke="black" points="383.59,-84.8 238.41,-84.8 238.41,-48.8 383.59,-48.8 383.59,-84.8"/>
<text text-anchor="middle" x="311" y="-62.6" font-family="Times,serif" font-size="14.00">AddToCartComponent</text>
</g>
<!-- AddToCartModule -->
<g id="node3" class="node">
<title>AddToCartModule</title>
<polygon fill="#8dd3c7" stroke="black" points="947.81,-149.8 944.81,-153.8 923.81,-153.8 920.81,-149.8 824.19,-149.8 824.19,-113.8 947.81,-113.8 947.81,-149.8"/>
<text text-anchor="middle" x="886" y="-127.6" font-family="Times,serif" font-size="14.00">AddToCartModule</text>
</g>
<!-- AddToCartComponent&#45;&gt;AddToCartModule -->
<g id="edge1" class="edge">
<title>AddToCartComponent&#45;&gt;AddToCartModule</title>
<path fill="none" stroke="black" d="M311,-85.08C311,-106.12 311,-137.8 311,-137.8 311,-137.8 814.19,-137.8 814.19,-137.8"/>
<polygon fill="black" stroke="black" points="814.19,-141.3 824.19,-137.8 814.19,-134.3 814.19,-141.3"/>
</g>
<!-- AddedToCartDialogComponent -->
<g id="node2" class="node">
<title>AddedToCartDialogComponent</title>
<polygon fill="#ffffb3" stroke="black" points="220.41,-84.8 23.59,-84.8 23.59,-48.8 220.41,-48.8 220.41,-84.8"/>
<text text-anchor="middle" x="122" y="-62.6" font-family="Times,serif" font-size="14.00">AddedToCartDialogComponent</text>
</g>
<!-- AddedToCartDialogComponent&#45;&gt;AddToCartModule -->
<g id="edge2" class="edge">
<title>AddedToCartDialogComponent&#45;&gt;AddToCartModule</title>
<path fill="none" stroke="black" d="M122,-85.05C122,-107.82 122,-143.8 122,-143.8 122,-143.8 814.13,-143.8 814.13,-143.8"/>
<polygon fill="black" stroke="black" points="814.13,-147.3 824.13,-143.8 814.13,-140.3 814.13,-147.3"/>
</g>
<!-- AddToCartComponent  -->
<g id="node14" class="node">
<title>AddToCartComponent </title>
<polygon fill="#fb8072" stroke="black" points="1056.09,-214.8 907.91,-214.8 907.91,-178.8 1056.09,-178.8 1056.09,-214.8"/>
<text text-anchor="middle" x="982" y="-192.6" font-family="Times,serif" font-size="14.00">AddToCartComponent </text>
</g>
<!-- AddToCartModule&#45;&gt;AddToCartComponent  -->
<g id="edge13" class="edge">
<title>AddToCartModule&#45;&gt;AddToCartComponent </title>
<path fill="none" stroke="black" stroke-dasharray="5,2" d="M927.68,-149.91C927.68,-149.91 927.68,-168.79 927.68,-168.79"/>
<polygon fill="black" stroke="black" points="924.18,-168.79 927.68,-178.79 931.18,-168.79 924.18,-168.79"/>
</g>
<!-- AddedToCartDialogComponent  -->
<g id="node15" class="node">
<title>AddedToCartDialogComponent </title>
<polygon fill="#fb8072" stroke="black" points="889.91,-214.8 690.09,-214.8 690.09,-178.8 889.91,-178.8 889.91,-214.8"/>
<text text-anchor="middle" x="790" y="-192.6" font-family="Times,serif" font-size="14.00">AddedToCartDialogComponent </text>
</g>
<!-- AddToCartModule&#45;&gt;AddedToCartDialogComponent  -->
<g id="edge14" class="edge">
<title>AddToCartModule&#45;&gt;AddedToCartDialogComponent </title>
<path fill="none" stroke="black" stroke-dasharray="5,2" d="M857.15,-149.91C857.15,-149.91 857.15,-168.79 857.15,-168.79"/>
<polygon fill="black" stroke="black" points="853.65,-168.79 857.15,-178.79 860.65,-168.79 853.65,-168.79"/>
</g>
<!-- CartSharedModule -->
<g id="node4" class="node">
<title>CartSharedModule</title>
<polygon fill="#8dd3c7" stroke="black" points="1688.03,-84.8 1685.03,-88.8 1664.03,-88.8 1661.03,-84.8 1565.97,-84.8 1565.97,-48.8 1688.03,-48.8 1688.03,-84.8"/>
<text text-anchor="middle" x="1627" y="-62.6" font-family="Times,serif" font-size="14.00">CartSharedModule</text>
</g>
<!-- CartSharedModule&#45;&gt;AddToCartModule -->
<g id="edge3" class="edge">
<title>CartSharedModule&#45;&gt;AddToCartModule</title>
<path fill="none" stroke="black" d="M1627,-85.05C1627,-107.82 1627,-143.8 1627,-143.8 1627,-143.8 957.9,-143.8 957.9,-143.8"/>
<polygon fill="black" stroke="black" points="957.9,-140.3 947.9,-143.8 957.9,-147.3 957.9,-140.3"/>
</g>
<!-- FeaturesConfigModule -->
<g id="node5" class="node">
<title>FeaturesConfigModule</title>
<polygon fill="#8dd3c7" stroke="black" points="1547.86,-84.8 1544.86,-88.8 1523.86,-88.8 1520.86,-84.8 1402.14,-84.8 1402.14,-48.8 1547.86,-48.8 1547.86,-84.8"/>
<text text-anchor="middle" x="1475" y="-62.6" font-family="Times,serif" font-size="14.00">FeaturesConfigModule</text>
</g>
<!-- FeaturesConfigModule&#45;&gt;AddToCartModule -->
<g id="edge4" class="edge">
<title>FeaturesConfigModule&#45;&gt;AddToCartModule</title>
<path fill="none" stroke="black" d="M1475,-85.08C1475,-106.12 1475,-137.8 1475,-137.8 1475,-137.8 957.92,-137.8 957.92,-137.8"/>
<polygon fill="black" stroke="black" points="957.92,-134.3 947.92,-137.8 957.92,-141.3 957.92,-134.3"/>
</g>
<!-- I18nModule -->
<g id="node6" class="node">
<title>I18nModule</title>
<polygon fill="#8dd3c7" stroke="black" points="1383.71,-84.8 1380.71,-88.8 1359.71,-88.8 1356.71,-84.8 1298.29,-84.8 1298.29,-48.8 1383.71,-48.8 1383.71,-84.8"/>
<text text-anchor="middle" x="1341" y="-62.6" font-family="Times,serif" font-size="14.00">I18nModule</text>
</g>
<!-- I18nModule&#45;&gt;AddToCartModule -->
<g id="edge5" class="edge">
<title>I18nModule&#45;&gt;AddToCartModule</title>
<path fill="none" stroke="black" d="M1341,-84.91C1341,-104.14 1341,-131.8 1341,-131.8 1341,-131.8 957.84,-131.8 957.84,-131.8"/>
<polygon fill="black" stroke="black" points="957.84,-128.3 947.84,-131.8 957.84,-135.3 957.84,-128.3"/>
</g>
<!-- IconModule -->
<g id="node7" class="node">
<title>IconModule</title>
<polygon fill="#8dd3c7" stroke="black" points="1280.43,-84.8 1277.43,-88.8 1256.43,-88.8 1253.43,-84.8 1195.57,-84.8 1195.57,-48.8 1280.43,-48.8 1280.43,-84.8"/>
<text text-anchor="middle" x="1238" y="-62.6" font-family="Times,serif" font-size="14.00">IconModule</text>
</g>
<!-- IconModule&#45;&gt;AddToCartModule -->
<g id="edge6" class="edge">
<title>IconModule&#45;&gt;AddToCartModule</title>
<path fill="none" stroke="black" d="M1238,-84.82C1238,-102.17 1238,-125.8 1238,-125.8 1238,-125.8 957.72,-125.8 957.72,-125.8"/>
<polygon fill="black" stroke="black" points="957.72,-122.3 947.72,-125.8 957.72,-129.3 957.72,-122.3"/>
</g>
<!-- ItemCounterModule -->
<g id="node8" class="node">
<title>ItemCounterModule</title>
<polygon fill="#8dd3c7" stroke="black" points="1178.31,-84.8 1175.31,-88.8 1154.31,-88.8 1151.31,-84.8 1047.69,-84.8 1047.69,-48.8 1178.31,-48.8 1178.31,-84.8"/>
<text text-anchor="middle" x="1113" y="-62.6" font-family="Times,serif" font-size="14.00">ItemCounterModule</text>
</g>
<!-- ItemCounterModule&#45;&gt;AddToCartModule -->
<g id="edge7" class="edge">
<title>ItemCounterModule&#45;&gt;AddToCartModule</title>
<path fill="none" stroke="black" d="M1052.07,-85.04C1052.07,-100.37 1052.07,-119.8 1052.07,-119.8 1052.07,-119.8 957.84,-119.8 957.84,-119.8"/>
<polygon fill="black" stroke="black" points="957.84,-116.3 947.84,-119.8 957.84,-123.3 957.84,-116.3"/>
</g>
<!-- KeyboardFocusModule -->
<g id="node9" class="node">
<title>KeyboardFocusModule</title>
<polygon fill="#8dd3c7" stroke="black" points="1030.19,-84.8 1027.19,-88.8 1006.19,-88.8 1003.19,-84.8 881.81,-84.8 881.81,-48.8 1030.19,-48.8 1030.19,-84.8"/>
<text text-anchor="middle" x="956" y="-62.6" font-family="Times,serif" font-size="14.00">KeyboardFocusModule</text>
</g>
<!-- KeyboardFocusModule&#45;&gt;AddToCartModule -->
<g id="edge8" class="edge">
<title>KeyboardFocusModule&#45;&gt;AddToCartModule</title>
<path fill="none" stroke="black" d="M914.78,-84.91C914.78,-84.91 914.78,-103.79 914.78,-103.79"/>
<polygon fill="black" stroke="black" points="911.28,-103.79 914.78,-113.79 918.28,-103.79 911.28,-103.79"/>
</g>
<!-- ModalModule -->
<g id="node10" class="node">
<title>ModalModule</title>
<polygon fill="#8dd3c7" stroke="black" points="864.1,-84.8 861.1,-88.8 840.1,-88.8 837.1,-84.8 767.9,-84.8 767.9,-48.8 864.1,-48.8 864.1,-84.8"/>
<text text-anchor="middle" x="816" y="-62.6" font-family="Times,serif" font-size="14.00">ModalModule</text>
</g>
<!-- ModalModule&#45;&gt;AddToCartModule -->
<g id="edge9" class="edge">
<title>ModalModule&#45;&gt;AddToCartModule</title>
<path fill="none" stroke="black" d="M844.2,-84.91C844.2,-84.91 844.2,-103.79 844.2,-103.79"/>
<polygon fill="black" stroke="black" points="840.7,-103.79 844.2,-113.79 847.7,-103.79 840.7,-103.79"/>
</g>
<!-- PromotionsModule -->
<g id="node11" class="node">
<title>PromotionsModule</title>
<polygon fill="#8dd3c7" stroke="black" points="750.11,-84.8 747.11,-88.8 726.11,-88.8 723.11,-84.8 625.89,-84.8 625.89,-48.8 750.11,-48.8 750.11,-84.8"/>
<text text-anchor="middle" x="688" y="-62.6" font-family="Times,serif" font-size="14.00">PromotionsModule</text>
</g>
<!-- PromotionsModule&#45;&gt;AddToCartModule -->
<g id="edge10" class="edge">
<title>PromotionsModule&#45;&gt;AddToCartModule</title>
<path fill="none" stroke="black" d="M720.05,-85.04C720.05,-100.37 720.05,-119.8 720.05,-119.8 720.05,-119.8 814.21,-119.8 814.21,-119.8"/>
<polygon fill="black" stroke="black" points="814.21,-123.3 824.21,-119.8 814.21,-116.3 814.21,-123.3"/>
</g>
<!-- SpinnerModule -->
<g id="node12" class="node">
<title>SpinnerModule</title>
<polygon fill="#8dd3c7" stroke="black" points="607.6,-84.8 604.6,-88.8 583.6,-88.8 580.6,-84.8 504.4,-84.8 504.4,-48.8 607.6,-48.8 607.6,-84.8"/>
<text text-anchor="middle" x="556" y="-62.6" font-family="Times,serif" font-size="14.00">SpinnerModule</text>
</g>
<!-- SpinnerModule&#45;&gt;AddToCartModule -->
<g id="edge11" class="edge">
<title>SpinnerModule&#45;&gt;AddToCartModule</title>
<path fill="none" stroke="black" d="M556,-84.82C556,-102.17 556,-125.8 556,-125.8 556,-125.8 814.32,-125.8 814.32,-125.8"/>
<polygon fill="black" stroke="black" points="814.32,-129.3 824.32,-125.8 814.32,-122.3 814.32,-129.3"/>
</g>
<!-- UrlModule -->
<g id="node13" class="node">
<title>UrlModule</title>
<polygon fill="#8dd3c7" stroke="black" points="486.21,-84.8 483.21,-88.8 462.21,-88.8 459.21,-84.8 407.79,-84.8 407.79,-48.8 486.21,-48.8 486.21,-84.8"/>
<text text-anchor="middle" x="447" y="-62.6" font-family="Times,serif" font-size="14.00">UrlModule</text>
</g>
<!-- UrlModule&#45;&gt;AddToCartModule -->
<g id="edge12" class="edge">
<title>UrlModule&#45;&gt;AddToCartModule</title>
<path fill="none" stroke="black" d="M447,-84.91C447,-104.14 447,-131.8 447,-131.8 447,-131.8 814.03,-131.8 814.03,-131.8"/>
<polygon fill="black" stroke="black" points="814.03,-135.3 824.03,-131.8 814.03,-128.3 814.03,-135.3"/>
</g>
</g>
</svg>
