<?xml version="1.0" encoding="UTF-8" standalone="no"?>
<!DOCTYPE svg PUBLIC "-//W3C//DTD SVG 1.1//EN"
 "http://www.w3.org/Graphics/SVG/1.1/DTD/svg11.dtd">
<!-- Generated by graphviz version 2.40.1 (20161225.0304)
 -->
<!-- Title: dependencies Pages: 1 -->
<svg width="1442pt" height="284pt"
 viewBox="0.00 0.00 1442.00 284.00" xmlns="http://www.w3.org/2000/svg" xmlns:xlink="http://www.w3.org/1999/xlink">
<g id="graph0" class="graph" transform="scale(1 1) rotate(0) translate(4 280)">
<title>dependencies</title>
<polygon fill="#ffffff" stroke="transparent" points="-4,4 -4,-280 1438,-280 1438,4 -4,4"/>
<text text-anchor="start" x="696.0091" y="-42.4" font-family="sans-serif" font-weight="bold" font-size="14.00" fill="#000000">Legend</text>
<polygon fill="#ffffb3" stroke="transparent" points="483,-10 483,-30 503,-30 503,-10 483,-10"/>
<text text-anchor="start" x="506.629" y="-15.4" font-family="sans-serif" font-size="14.00" fill="#000000"> &#160;Declarations</text>
<polygon fill="#8dd3c7" stroke="transparent" points="596,-10 596,-30 616,-30 616,-10 596,-10"/>
<text text-anchor="start" x="619.7251" y="-15.4" font-family="sans-serif" font-size="14.00" fill="#000000"> &#160;Module</text>
<polygon fill="#80b1d3" stroke="transparent" points="682,-10 682,-30 702,-30 702,-10 682,-10"/>
<text text-anchor="start" x="705.7812" y="-15.4" font-family="sans-serif" font-size="14.00" fill="#000000"> &#160;Bootstrap</text>
<polygon fill="#fdb462" stroke="transparent" points="779,-10 779,-30 799,-30 799,-10 779,-10"/>
<text text-anchor="start" x="802.6732" y="-15.4" font-family="sans-serif" font-size="14.00" fill="#000000"> &#160;Providers</text>
<polygon fill="#fb8072" stroke="transparent" points="875,-10 875,-30 895,-30 895,-10 875,-10"/>
<text text-anchor="start" x="898.7258" y="-15.4" font-family="sans-serif" font-size="14.00" fill="#000000"> &#160;Exports</text>
<g id="clust1" class="cluster">
<title>cluster_AddToCartModule</title>
<polygon fill="none" stroke="#000000" stroke-dasharray="1,5" points="8,-70 8,-268 1426,-268 1426,-70 8,-70"/>
</g>
<g id="clust2" class="cluster">
<title>cluster_AddToCartModule_declarations</title>
<polygon fill="none" stroke="#000000" points="1042,-78 1042,-130 1418,-130 1418,-78 1042,-78"/>
</g>
<g id="clust5" class="cluster">
<title>cluster_AddToCartModule_imports</title>
<polygon fill="none" stroke="#000000" points="16,-78 16,-130 1034,-130 1034,-78 16,-78"/>
</g>
<g id="clust6" class="cluster">
<title>cluster_AddToCartModule_exports</title>
<polygon fill="none" stroke="#000000" points="386,-208 386,-260 768,-260 768,-208 386,-208"/>
</g>
<!-- AddToCartComponent -->
<g id="node1" class="node">
<title>AddToCartComponent</title>
<polygon fill="#ffffb3" stroke="#000000" points="1409.594,-122 1264.406,-122 1264.406,-86 1409.594,-86 1409.594,-122"/>
<text text-anchor="middle" x="1337" y="-99.8" font-family="Times,serif" font-size="14.00" fill="#000000">AddToCartComponent</text>
</g>
<!-- AddToCartModule -->
<g id="node3" class="node">
<title>AddToCartModule</title>
<polygon fill="#8dd3c7" stroke="#000000" points="651.8118,-187 648.8118,-191 627.8118,-191 624.8118,-187 528.1882,-187 528.1882,-151 651.8118,-151 651.8118,-187"/>
<text text-anchor="middle" x="590" y="-164.8" font-family="Times,serif" font-size="14.00" fill="#000000">AddToCartModule</text>
</g>
<!-- AddToCartComponent&#45;&gt;AddToCartModule -->
<g id="edge1" class="edge">
<title>AddToCartComponent&#45;&gt;AddToCartModule</title>
<path fill="none" stroke="#000000" d="M1337,-122.0109C1337,-144.4852 1337,-180 1337,-180 1337,-180 661.7657,-180 661.7657,-180"/>
<polygon fill="#000000" stroke="#000000" points="661.7657,-176.5001 651.7657,-180 661.7656,-183.5001 661.7657,-176.5001"/>
</g>
<!-- AddedToCartDialogComponent -->
<g id="node2" class="node">
<title>AddedToCartDialogComponent</title>
<polygon fill="#ffffb3" stroke="#000000" points="1246.4114,-122 1049.5886,-122 1049.5886,-86 1246.4114,-86 1246.4114,-122"/>
<text text-anchor="middle" x="1148" y="-99.8" font-family="Times,serif" font-size="14.00" fill="#000000">AddedToCartDialogComponent</text>
</g>
<!-- AddedToCartDialogComponent&#45;&gt;AddToCartModule -->
<g id="edge2" class="edge">
<title>AddedToCartDialogComponent&#45;&gt;AddToCartModule</title>
<path fill="none" stroke="#000000" d="M1148,-122.1289C1148,-142.5724 1148,-173 1148,-173 1148,-173 661.8478,-173 661.8478,-173"/>
<polygon fill="#000000" stroke="#000000" points="661.8478,-169.5001 651.8478,-173 661.8477,-176.5001 661.8478,-169.5001"/>
</g>
<!-- AddToCartComponent  -->
<g id="node12" class="node">
<title>AddToCartComponent </title>
<polygon fill="#fb8072" stroke="#000000" points="760.0946,-252 611.9054,-252 611.9054,-216 760.0946,-216 760.0946,-252"/>
<text text-anchor="middle" x="686" y="-229.8" font-family="Times,serif" font-size="14.00" fill="#000000">AddToCartComponent </text>
</g>
<!-- AddToCartModule&#45;&gt;AddToCartComponent  -->
<g id="edge11" class="edge">
<title>AddToCartModule&#45;&gt;AddToCartComponent </title>
<path fill="none" stroke="#000000" stroke-dasharray="5,2" d="M631.6794,-187.1061C631.6794,-187.1061 631.6794,-205.991 631.6794,-205.991"/>
<polygon fill="#000000" stroke="#000000" points="628.1794,-205.9909 631.6794,-215.991 635.1794,-205.991 628.1794,-205.9909"/>
</g>
<!-- AddedToCartDialogComponent  -->
<g id="node13" class="node">
<title>AddedToCartDialogComponent </title>
<polygon fill="#fb8072" stroke="#000000" points="593.911,-252 394.089,-252 394.089,-216 593.911,-216 593.911,-252"/>
<text text-anchor="middle" x="494" y="-229.8" font-family="Times,serif" font-size="14.00" fill="#000000">AddedToCartDialogComponent </text>
</g>
<!-- AddToCartModule&#45;&gt;AddedToCartDialogComponent  -->
<g id="edge12" class="edge">
<title>AddToCartModule&#45;&gt;AddedToCartDialogComponent </title>
<path fill="none" stroke="#000000" stroke-dasharray="5,2" d="M561.1499,-187.1061C561.1499,-187.1061 561.1499,-205.991 561.1499,-205.991"/>
<polygon fill="#000000" stroke="#000000" points="557.65,-205.9909 561.1499,-215.991 564.65,-205.991 557.65,-205.9909"/>
</g>
<!-- AutoFocusDirectiveModule -->
<g id="node4" class="node">
<title>AutoFocusDirectiveModule</title>
<polygon fill="#8dd3c7" stroke="#000000" points="1025.5716,-122 1022.5716,-126 1001.5716,-126 998.5716,-122 852.4284,-122 852.4284,-86 1025.5716,-86 1025.5716,-122"/>
<text text-anchor="middle" x="939" y="-99.8" font-family="Times,serif" font-size="14.00" fill="#000000">AutoFocusDirectiveModule</text>
</g>
<!-- AutoFocusDirectiveModule&#45;&gt;AddToCartModule -->
<g id="edge3" class="edge">
<title>AutoFocusDirectiveModule&#45;&gt;AddToCartModule</title>
<path fill="none" stroke="#000000" d="M939,-122.2667C939,-140.5552 939,-166 939,-166 939,-166 661.9921,-166 661.9921,-166"/>
<polygon fill="#000000" stroke="#000000" points="661.9921,-162.5001 651.9921,-166 661.992,-169.5001 661.9921,-162.5001"/>
</g>
<!-- CartSharedModule -->
<g id="node5" class="node">
<title>CartSharedModule</title>
<polygon fill="#8dd3c7" stroke="#000000" points="834.0255,-122 831.0255,-126 810.0255,-126 807.0255,-122 711.9745,-122 711.9745,-86 834.0255,-86 834.0255,-122"/>
<text text-anchor="middle" x="773" y="-99.8" font-family="Times,serif" font-size="14.00" fill="#000000">CartSharedModule</text>
</g>
<!-- CartSharedModule&#45;&gt;AddToCartModule -->
<g id="edge4" class="edge">
<title>CartSharedModule&#45;&gt;AddToCartModule</title>
<path fill="none" stroke="#000000" d="M736.0174,-122.0091C736.0174,-138.0494 736.0174,-159 736.0174,-159 736.0174,-159 661.9245,-159 661.9245,-159"/>
<polygon fill="#000000" stroke="#000000" points="661.9245,-155.5001 651.9245,-159 661.9245,-162.5001 661.9245,-155.5001"/>
</g>
<!-- ConfigModule -->
<g id="node6" class="node">
<title>ConfigModule</title>
<polygon fill="#8dd3c7" stroke="#000000" points="694.4386,-122 691.4386,-126 670.4386,-126 667.4386,-122 595.5614,-122 595.5614,-86 694.4386,-86 694.4386,-122"/>
<text text-anchor="middle" x="645" y="-99.8" font-family="Times,serif" font-size="14.00" fill="#000000">ConfigModule</text>
</g>
<!-- ConfigModule&#45;&gt;AddToCartModule -->
<g id="edge5" class="edge">
<title>ConfigModule&#45;&gt;AddToCartModule</title>
<path fill="none" stroke="#000000" d="M623.7185,-122.1061C623.7185,-122.1061 623.7185,-140.991 623.7185,-140.991"/>
<polygon fill="#000000" stroke="#000000" points="620.2185,-140.9909 623.7185,-150.991 627.2185,-140.991 620.2185,-140.9909"/>
</g>
<!-- I18nModule -->
<g id="node7" class="node">
<title>I18nModule</title>
<polygon fill="#8dd3c7" stroke="#000000" points="577.7107,-122 574.7107,-126 553.7107,-126 550.7107,-122 492.2893,-122 492.2893,-86 577.7107,-86 577.7107,-122"/>
<text text-anchor="middle" x="535" y="-99.8" font-family="Times,serif" font-size="14.00" fill="#000000">I18nModule</text>
</g>
<!-- I18nModule&#45;&gt;AddToCartModule -->
<g id="edge6" class="edge">
<title>I18nModule&#45;&gt;AddToCartModule</title>
<path fill="none" stroke="#000000" d="M552.9748,-122.1061C552.9748,-122.1061 552.9748,-140.991 552.9748,-140.991"/>
<polygon fill="#000000" stroke="#000000" points="549.4748,-140.9909 552.9748,-150.991 556.4748,-140.991 549.4748,-140.9909"/>
</g>
<!-- IconModule -->
<g id="node8" class="node">
<title>IconModule</title>
<polygon fill="#8dd3c7" stroke="#000000" points="474.4261,-122 471.4261,-126 450.4261,-126 447.4261,-122 389.5739,-122 389.5739,-86 474.4261,-86 474.4261,-122"/>
<text text-anchor="middle" x="432" y="-99.8" font-family="Times,serif" font-size="14.00" fill="#000000">IconModule</text>
</g>
<!-- IconModule&#45;&gt;AddToCartModule -->
<g id="edge7" class="edge">
<title>IconModule&#45;&gt;AddToCartModule</title>
<path fill="none" stroke="#000000" d="M434.1285,-122.0091C434.1285,-138.0494 434.1285,-159 434.1285,-159 434.1285,-159 517.9476,-159 517.9476,-159"/>
<polygon fill="#000000" stroke="#000000" points="517.9476,-162.5001 527.9476,-159 517.9475,-155.5001 517.9476,-162.5001"/>
</g>
<!-- ItemCounterModule -->
<g id="node9" class="node">
<title>ItemCounterModule</title>
<polygon fill="#8dd3c7" stroke="#000000" points="372.309,-122 369.309,-126 348.309,-126 345.309,-122 241.691,-122 241.691,-86 372.309,-86 372.309,-122"/>
<text text-anchor="middle" x="307" y="-99.8" font-family="Times,serif" font-size="14.00" fill="#000000">ItemCounterModule</text>
</g>
<!-- ItemCounterModule&#45;&gt;AddToCartModule -->
<g id="edge8" class="edge">
<title>ItemCounterModule&#45;&gt;AddToCartModule</title>
<path fill="none" stroke="#000000" d="M307,-122.2667C307,-140.5552 307,-166 307,-166 307,-166 518.2442,-166 518.2442,-166"/>
<polygon fill="#000000" stroke="#000000" points="518.2442,-169.5001 528.2442,-166 518.2441,-162.5001 518.2442,-169.5001"/>
</g>
<!-- SpinnerModule -->
<g id="node10" class="node">
<title>SpinnerModule</title>
<polygon fill="#8dd3c7" stroke="#000000" points="223.5982,-122 220.5982,-126 199.5982,-126 196.5982,-122 120.4018,-122 120.4018,-86 223.5982,-86 223.5982,-122"/>
<text text-anchor="middle" x="172" y="-99.8" font-family="Times,serif" font-size="14.00" fill="#000000">SpinnerModule</text>
</g>
<!-- SpinnerModule&#45;&gt;AddToCartModule -->
<g id="edge9" class="edge">
<title>SpinnerModule&#45;&gt;AddToCartModule</title>
<path fill="none" stroke="#000000" d="M172,-122.1289C172,-142.5724 172,-173 172,-173 172,-173 518.3227,-173 518.3227,-173"/>
<polygon fill="#000000" stroke="#000000" points="518.3227,-176.5001 528.3227,-173 518.3226,-169.5001 518.3227,-176.5001"/>
</g>
<!-- UrlModule -->
<g id="node11" class="node">
<title>UrlModule</title>
<polygon fill="#8dd3c7" stroke="#000000" points="102.2079,-122 99.2079,-126 78.2079,-126 75.2079,-122 23.7921,-122 23.7921,-86 102.2079,-86 102.2079,-122"/>
<text text-anchor="middle" x="63" y="-99.8" font-family="Times,serif" font-size="14.00" fill="#000000">UrlModule</text>
</g>
<!-- UrlModule&#45;&gt;AddToCartModule -->
<g id="edge10" class="edge">
<title>UrlModule&#45;&gt;AddToCartModule</title>
<path fill="none" stroke="#000000" d="M63,-122.0109C63,-144.4852 63,-180 63,-180 63,-180 518.2561,-180 518.2561,-180"/>
<polygon fill="#000000" stroke="#000000" points="518.2561,-183.5001 528.2561,-180 518.256,-176.5001 518.2561,-183.5001"/>
</g>
</g>
</svg>
