<?xml version="1.0" encoding="UTF-8" standalone="no"?>
<!DOCTYPE svg PUBLIC "-//W3C//DTD SVG 1.1//EN"
 "http://www.w3.org/Graphics/SVG/1.1/DTD/svg11.dtd">
<!-- Generated by graphviz version 2.40.1 (20161225.0304)
 -->
<!-- Title: dependencies Pages: 1 -->
<svg width="1311pt" height="284pt"
 viewBox="0.00 0.00 1311.00 284.00" xmlns="http://www.w3.org/2000/svg" xmlns:xlink="http://www.w3.org/1999/xlink">
<g id="graph0" class="graph" transform="scale(1 1) rotate(0) translate(4 280)">
<title>dependencies</title>
<polygon fill="#ffffff" stroke="transparent" points="-4,4 -4,-280 1307,-280 1307,4 -4,4"/>
<text text-anchor="start" x="630.5091" y="-42.4" font-family="sans-serif" font-weight="bold" font-size="14.00" fill="#000000">Legend</text>
<polygon fill="#ffffb3" stroke="transparent" points="417.5,-10 417.5,-30 437.5,-30 437.5,-10 417.5,-10"/>
<text text-anchor="start" x="441.129" y="-15.4" font-family="sans-serif" font-size="14.00" fill="#000000"> &#160;Declarations</text>
<polygon fill="#8dd3c7" stroke="transparent" points="530.5,-10 530.5,-30 550.5,-30 550.5,-10 530.5,-10"/>
<text text-anchor="start" x="554.2251" y="-15.4" font-family="sans-serif" font-size="14.00" fill="#000000"> &#160;Module</text>
<polygon fill="#80b1d3" stroke="transparent" points="616.5,-10 616.5,-30 636.5,-30 636.5,-10 616.5,-10"/>
<text text-anchor="start" x="640.2812" y="-15.4" font-family="sans-serif" font-size="14.00" fill="#000000"> &#160;Bootstrap</text>
<polygon fill="#fdb462" stroke="transparent" points="713.5,-10 713.5,-30 733.5,-30 733.5,-10 713.5,-10"/>
<text text-anchor="start" x="737.1732" y="-15.4" font-family="sans-serif" font-size="14.00" fill="#000000"> &#160;Providers</text>
<polygon fill="#fb8072" stroke="transparent" points="809.5,-10 809.5,-30 829.5,-30 829.5,-10 809.5,-10"/>
<text text-anchor="start" x="833.2258" y="-15.4" font-family="sans-serif" font-size="14.00" fill="#000000"> &#160;Exports</text>
<g id="clust1" class="cluster">
<title>cluster_StorefrontModule</title>
<polygon fill="none" stroke="#000000" stroke-dasharray="1,5" points="8,-70 8,-268 1295,-268 1295,-70 8,-70"/>
</g>
<g id="clust3" class="cluster">
<title>cluster_StorefrontModule_imports</title>
<polygon fill="none" stroke="#000000" points="16,-78 16,-130 1287,-130 1287,-78 16,-78"/>
</g>
<g id="clust4" class="cluster">
<title>cluster_StorefrontModule_exports</title>
<polygon fill="none" stroke="#000000" points="628,-208 628,-260 722,-260 722,-208 628,-208"/>
</g>
<!-- AuthModule -->
<g id="node1" class="node">
<title>AuthModule</title>
<polygon fill="#8dd3c7" stroke="#000000" points="1278.5482,-122 1275.5482,-126 1254.5482,-126 1251.5482,-122 1191.4518,-122 1191.4518,-86 1278.5482,-86 1278.5482,-122"/>
<text text-anchor="middle" x="1235" y="-99.8" font-family="Times,serif" font-size="14.00" fill="#000000">AuthModule</text>
</g>
<!-- StorefrontModule -->
<g id="node12" class="node">
<title>StorefrontModule</title>
<polygon fill="#8dd3c7" stroke="#000000" points="733.3104,-187 730.3104,-191 709.3104,-191 706.3104,-187 616.6896,-187 616.6896,-151 733.3104,-151 733.3104,-187"/>
<text text-anchor="middle" x="675" y="-164.8" font-family="Times,serif" font-size="14.00" fill="#000000">StorefrontModule</text>
</g>
<!-- AuthModule&#45;&gt;StorefrontModule -->
<g id="edge1" class="edge">
<title>AuthModule&#45;&gt;StorefrontModule</title>
<path fill="none" stroke="#000000" d="M1235,-122.0109C1235,-144.4852 1235,-180 1235,-180 1235,-180 743.345,-180 743.345,-180"/>
<polygon fill="#000000" stroke="#000000" points="743.3451,-176.5001 733.345,-180 743.345,-183.5001 743.3451,-176.5001"/>
</g>
<!-- CmsLibModule -->
<g id="node2" class="node">
<title>CmsLibModule</title>
<polygon fill="#8dd3c7" stroke="#000000" points="1173.1653,-122 1170.1653,-126 1149.1653,-126 1146.1653,-122 1068.8347,-122 1068.8347,-86 1173.1653,-86 1173.1653,-122"/>
<text text-anchor="middle" x="1121" y="-99.8" font-family="Times,serif" font-size="14.00" fill="#000000">CmsLibModule</text>
</g>
<!-- CmsLibModule&#45;&gt;StorefrontModule -->
<g id="edge2" class="edge">
<title>CmsLibModule&#45;&gt;StorefrontModule</title>
<path fill="none" stroke="#000000" d="M1121,-122.1289C1121,-142.5724 1121,-173 1121,-173 1121,-173 743.3067,-173 743.3067,-173"/>
<polygon fill="#000000" stroke="#000000" points="743.3067,-169.5001 733.3067,-173 743.3067,-176.5001 743.3067,-169.5001"/>
</g>
<!-- CmsModule -->
<g id="node3" class="node">
<title>CmsModule</title>
<polygon fill="#8dd3c7" stroke="#000000" points="1050.7219,-122 1047.7219,-126 1026.7219,-126 1023.7219,-122 965.2781,-122 965.2781,-86 1050.7219,-86 1050.7219,-122"/>
<text text-anchor="middle" x="1008" y="-99.8" font-family="Times,serif" font-size="14.00" fill="#000000">CmsModule</text>
</g>
<!-- CmsModule&#45;&gt;StorefrontModule -->
<g id="edge3" class="edge">
<title>CmsModule&#45;&gt;StorefrontModule</title>
<path fill="none" stroke="#000000" d="M1008,-122.2667C1008,-140.5552 1008,-166 1008,-166 1008,-166 743.3852,-166 743.3852,-166"/>
<polygon fill="#000000" stroke="#000000" points="743.3853,-162.5001 733.3852,-166 743.3852,-169.5001 743.3853,-162.5001"/>
</g>
<!-- ConfigModule -->
<g id="node4" class="node">
<title>ConfigModule</title>
<polygon fill="#8dd3c7" stroke="#000000" points="947.4386,-122 944.4386,-126 923.4386,-126 920.4386,-122 848.5614,-122 848.5614,-86 947.4386,-86 947.4386,-122"/>
<text text-anchor="middle" x="898" y="-99.8" font-family="Times,serif" font-size="14.00" fill="#000000">ConfigModule</text>
</g>
<!-- ConfigModule&#45;&gt;StorefrontModule -->
<g id="edge4" class="edge">
<title>ConfigModule&#45;&gt;StorefrontModule</title>
<path fill="none" stroke="#000000" d="M898,-122.0091C898,-138.0494 898,-159 898,-159 898,-159 743.2993,-159 743.2993,-159"/>
<polygon fill="#000000" stroke="#000000" points="743.2994,-155.5001 733.2993,-159 743.2993,-162.5001 743.2994,-155.5001"/>
</g>
<!-- CxApiModule -->
<g id="node5" class="node">
<title>CxApiModule</title>
<polygon fill="#8dd3c7" stroke="#000000" points="830.3837,-122 827.3837,-126 806.3837,-126 803.3837,-122 733.6163,-122 733.6163,-86 830.3837,-86 830.3837,-122"/>
<text text-anchor="middle" x="782" y="-99.8" font-family="Times,serif" font-size="14.00" fill="#000000">CxApiModule</text>
</g>
<!-- CxApiModule&#45;&gt;StorefrontModule -->
<g id="edge5" class="edge">
<title>CxApiModule&#45;&gt;StorefrontModule</title>
<path fill="none" stroke="#000000" d="M733.5678,-104C728.1865,-104 724.5989,-104 724.5989,-104 724.5989,-104 724.5989,-140.8939 724.5989,-140.8939"/>
<polygon fill="#000000" stroke="#000000" points="721.099,-140.8938 724.5989,-150.8939 728.099,-140.8939 721.099,-140.8938"/>
</g>
<!-- OccModule -->
<g id="node6" class="node">
<title>OccModule</title>
<polygon fill="#8dd3c7" stroke="#000000" points="716.0856,-122 713.0856,-126 692.0856,-126 689.0856,-122 633.9144,-122 633.9144,-86 716.0856,-86 716.0856,-122"/>
<text text-anchor="middle" x="675" y="-99.8" font-family="Times,serif" font-size="14.00" fill="#000000">OccModule</text>
</g>
<!-- OccModule&#45;&gt;StorefrontModule -->
<g id="edge6" class="edge">
<title>OccModule&#45;&gt;StorefrontModule</title>
<path fill="none" stroke="#000000" d="M675,-122.1061C675,-122.1061 675,-140.991 675,-140.991"/>
<polygon fill="#000000" stroke="#000000" points="671.5001,-140.9909 675,-150.991 678.5001,-140.991 671.5001,-140.9909"/>
</g>
<!-- RoutingModule -->
<g id="node7" class="node">
<title>RoutingModule</title>
<polygon fill="#8dd3c7" stroke="#000000" points="616.1681,-122 613.1681,-126 592.1681,-126 589.1681,-122 511.8319,-122 511.8319,-86 616.1681,-86 616.1681,-122"/>
<text text-anchor="middle" x="564" y="-99.8" font-family="Times,serif" font-size="14.00" fill="#000000">RoutingModule</text>
</g>
<!-- RoutingModule&#45;&gt;StorefrontModule -->
<g id="edge7" class="edge">
<title>RoutingModule&#45;&gt;StorefrontModule</title>
<path fill="none" stroke="#000000" d="M616.3412,-104C621.7996,-104 625.4011,-104 625.4011,-104 625.4011,-104 625.4011,-140.8939 625.4011,-140.8939"/>
<polygon fill="#000000" stroke="#000000" points="621.9012,-140.8938 625.4011,-150.8939 628.9012,-140.8939 621.9012,-140.8938"/>
</g>
<!-- SmartEditModule -->
<g id="node8" class="node">
<title>SmartEditModule</title>
<polygon fill="#8dd3c7" stroke="#000000" points="494.323,-122 491.323,-126 470.323,-126 467.323,-122 377.677,-122 377.677,-86 494.323,-86 494.323,-122"/>
<text text-anchor="middle" x="436" y="-99.8" font-family="Times,serif" font-size="14.00" fill="#000000">SmartEditModule</text>
</g>
<!-- SmartEditModule&#45;&gt;StorefrontModule -->
<g id="edge8" class="edge">
<title>SmartEditModule&#45;&gt;StorefrontModule</title>
<path fill="none" stroke="#000000" d="M436,-122.0091C436,-138.0494 436,-159 436,-159 436,-159 606.8396,-159 606.8396,-159"/>
<polygon fill="#000000" stroke="#000000" points="606.8397,-162.5001 616.8396,-159 606.8396,-155.5001 606.8397,-162.5001"/>
</g>
<!-- StateModule -->
<g id="node9" class="node">
<title>StateModule</title>
<polygon fill="#8dd3c7" stroke="#000000" points="359.544,-122 356.544,-126 335.544,-126 332.544,-122 272.456,-122 272.456,-86 359.544,-86 359.544,-122"/>
<text text-anchor="middle" x="316" y="-99.8" font-family="Times,serif" font-size="14.00" fill="#000000">StateModule</text>
</g>
<!-- StateModule&#45;&gt;StorefrontModule -->
<g id="edge9" class="edge">
<title>StateModule&#45;&gt;StorefrontModule</title>
<path fill="none" stroke="#000000" d="M316,-122.2667C316,-140.5552 316,-166 316,-166 316,-166 606.5215,-166 606.5215,-166"/>
<polygon fill="#000000" stroke="#000000" points="606.5215,-169.5001 616.5215,-166 606.5214,-162.5001 606.5215,-169.5001"/>
</g>
<!-- UiFrameworkModule -->
<g id="node10" class="node">
<title>UiFrameworkModule</title>
<polygon fill="#8dd3c7" stroke="#000000" points="254.0772,-122 251.0772,-126 230.0772,-126 227.0772,-122 115.9228,-122 115.9228,-86 254.0772,-86 254.0772,-122"/>
<text text-anchor="middle" x="185" y="-99.8" font-family="Times,serif" font-size="14.00" fill="#000000">UiFrameworkModule</text>
</g>
<!-- UiFrameworkModule&#45;&gt;StorefrontModule -->
<g id="edge10" class="edge">
<title>UiFrameworkModule&#45;&gt;StorefrontModule</title>
<path fill="none" stroke="#000000" d="M185,-122.1289C185,-142.5724 185,-173 185,-173 185,-173 606.3813,-173 606.3813,-173"/>
<polygon fill="#000000" stroke="#000000" points="606.3813,-176.5001 616.3813,-173 606.3812,-169.5001 606.3813,-176.5001"/>
</g>
<!-- UiModule -->
<g id="node11" class="node">
<title>UiModule</title>
<polygon fill="#8dd3c7" stroke="#000000" points="97.5484,-122 94.5484,-126 73.5484,-126 70.5484,-122 24.4516,-122 24.4516,-86 97.5484,-86 97.5484,-122"/>
<text text-anchor="middle" x="61" y="-99.8" font-family="Times,serif" font-size="14.00" fill="#000000">UiModule</text>
</g>
<!-- UiModule&#45;&gt;StorefrontModule -->
<g id="edge11" class="edge">
<title>UiModule&#45;&gt;StorefrontModule</title>
<path fill="none" stroke="#000000" d="M61,-122.0109C61,-144.4852 61,-180 61,-180 61,-180 606.6828,-180 606.6828,-180"/>
<polygon fill="#000000" stroke="#000000" points="606.6829,-183.5001 616.6828,-180 606.6828,-176.5001 606.6829,-183.5001"/>
</g>
<!-- UiModule  -->
<g id="node13" class="node">
<title>UiModule </title>
<polygon fill="#fb8072" stroke="#000000" points="713.547,-252 636.453,-252 636.453,-216 713.547,-216 713.547,-252"/>
<text text-anchor="middle" x="675" y="-229.8" font-family="Times,serif" font-size="14.00" fill="#000000">UiModule </text>
</g>
<!-- StorefrontModule&#45;&gt;UiModule  -->
<g id="edge12" class="edge">
<title>StorefrontModule&#45;&gt;UiModule </title>
<path fill="none" stroke="#000000" stroke-dasharray="5,2" d="M675,-187.1061C675,-187.1061 675,-205.991 675,-205.991"/>
<polygon fill="#000000" stroke="#000000" points="671.5001,-205.9909 675,-215.991 678.5001,-205.991 671.5001,-205.9909"/>
</g>
</g>
</svg>
