<?xml version="1.0" encoding="UTF-8" standalone="no"?>
<!DOCTYPE svg PUBLIC "-//W3C//DTD SVG 1.1//EN"
 "http://www.w3.org/Graphics/SVG/1.1/DTD/svg11.dtd">
<!-- Generated by graphviz version 2.47.3 (20210619.1520)
 -->
<!-- Title: dependencies Pages: 1 -->
<svg width="562pt" height="174pt"
 viewBox="0.00 0.00 562.00 173.80" xmlns="http://www.w3.org/2000/svg" xmlns:xlink="http://www.w3.org/1999/xlink">
<g id="graph0" class="graph" transform="scale(1 1) rotate(0) translate(4 169.8)">
<title>dependencies</title>
<polygon fill="white" stroke="transparent" points="-4,4 -4,-169.8 558,-169.8 558,4 -4,4"/>
<text text-anchor="middle" x="277" y="-8.2" font-family="sans-serif" font-size="14.00">dependencies</text>
<g id="clust1" class="cluster">
<title>cluster_UserTransitionalModule</title>
<polygon fill="none" stroke="black" stroke-dasharray="1,5" points="8,-32.8 8,-157.8 546,-157.8 546,-32.8 8,-32.8"/>
</g>
<g id="clust3" class="cluster">
<title>cluster_UserTransitionalModule_imports</title>
<polygon fill="none" stroke="black" points="202,-40.8 202,-92.8 538,-92.8 538,-40.8 202,-40.8"/>
</g>
<g id="clust6" class="cluster">
<title>cluster_UserTransitionalModule_providers</title>
<polygon fill="none" stroke="black" points="16,-40.8 16,-92.8 194,-92.8 194,-40.8 16,-40.8"/>
</g>
<!-- UserEventModule -->
<g id="node1" class="node">
<title>UserEventModule</title>
<polygon fill="#8dd3c7" stroke="black" points="530.13,-84.8 527.13,-88.8 506.13,-88.8 503.13,-84.8 411.87,-84.8 411.87,-48.8 530.13,-48.8 530.13,-84.8"/>
<text text-anchor="middle" x="471" y="-62.6" font-family="Times,serif" font-size="14.00">UserEventModule</text>
</g>
<!-- UserTransitionalModule -->
<g id="node3" class="node">
<title>UserTransitionalModule</title>
<polygon fill="#8dd3c7" stroke="black" points="378.63,-149.8 375.63,-153.8 354.63,-153.8 351.63,-149.8 225.37,-149.8 225.37,-113.8 378.63,-113.8 378.63,-149.8"/>
<text text-anchor="middle" x="302" y="-127.6" font-family="Times,serif" font-size="14.00">UserTransitionalModule</text>
</g>
<!-- UserEventModule&#45;&gt;UserTransitionalModule -->
<g id="edge1" class="edge">
<title>UserEventModule&#45;&gt;UserTransitionalModule</title>
<path fill="none" stroke="black" d="M471,-84.91C471,-104.14 471,-131.8 471,-131.8 471,-131.8 389.08,-131.8 389.08,-131.8"/>
<polygon fill="black" stroke="black" points="389.08,-128.3 379.08,-131.8 389.08,-135.3 389.08,-128.3"/>
</g>
<!-- UserStoreTransitionalModule -->
<g id="node2" class="node">
<title>UserStoreTransitionalModule</title>
<polygon fill="#8dd3c7" stroke="black" points="393.67,-84.8 390.67,-88.8 369.67,-88.8 366.67,-84.8 210.33,-84.8 210.33,-48.8 393.67,-48.8 393.67,-84.8"/>
<text text-anchor="middle" x="302" y="-62.6" font-family="Times,serif" font-size="14.00">UserStoreTransitionalModule</text>
</g>
<!-- UserStoreTransitionalModule&#45;&gt;UserTransitionalModule -->
<g id="edge2" class="edge">
<title>UserStoreTransitionalModule&#45;&gt;UserTransitionalModule</title>
<path fill="none" stroke="black" d="M302,-84.91C302,-84.91 302,-103.79 302,-103.79"/>
<polygon fill="black" stroke="black" points="298.5,-103.79 302,-113.79 305.5,-103.79 298.5,-103.79"/>
</g>
<!-- UserEventBuilder -->
<g id="node4" class="node">
<title>UserEventBuilder</title>
<ellipse fill="#fdb462" stroke="black" cx="105" cy="-66.8" rx="80.52" ry="18"/>
<text text-anchor="middle" x="105" y="-62.6" font-family="Times,serif" font-size="14.00">UserEventBuilder</text>
</g>
<!-- UserEventBuilder&#45;&gt;UserTransitionalModule -->
<g id="edge3" class="edge">
<title>UserEventBuilder&#45;&gt;UserTransitionalModule</title>
<path fill="none" stroke="black" d="M105,-84.91C105,-104.14 105,-131.8 105,-131.8 105,-131.8 215.27,-131.8 215.27,-131.8"/>
<polygon fill="black" stroke="black" points="215.27,-135.3 225.27,-131.8 215.27,-128.3 215.27,-135.3"/>
</g>
</g>
</svg>
