<?xml version="1.0" encoding="UTF-8" standalone="no"?>
<!DOCTYPE svg PUBLIC "-//W3C//DTD SVG 1.1//EN"
 "http://www.w3.org/Graphics/SVG/1.1/DTD/svg11.dtd">
<!-- Generated by graphviz version 2.47.3 (20210619.1520)
 -->
<!-- Title: dependencies Pages: 1 -->
<svg width="562pt" height="174pt"
 viewBox="0.00 0.00 562.00 173.80" xmlns="http://www.w3.org/2000/svg" xmlns:xlink="http://www.w3.org/1999/xlink">
<g id="graph0" class="graph" transform="scale(1 1) rotate(0) translate(4 169.8)">
<title>dependencies</title>
<polygon fill="white" stroke="transparent" points="-4,4 -4,-169.8 558,-169.8 558,4 -4,4"/>
<text text-anchor="middle" x="277" y="-8.2" font-family="sans-serif" font-size="14.00">dependencies</text>
<g id="clust1" class="cluster">
<title>cluster_UserTransitionalModule</title>
<polygon fill="none" stroke="black" stroke-dasharray="1,5" points="8,-32.8 8,-157.8 546,-157.8 546,-32.8 8,-32.8"/>
</g>
<g id="clust6" class="cluster">
<title>cluster_UserTransitionalModule_providers</title>
<polygon fill="none" stroke="black" points="360,-40.8 360,-92.8 538,-92.8 538,-40.8 360,-40.8"/>
</g>
<g id="clust3" class="cluster">
<title>cluster_UserTransitionalModule_imports</title>
<polygon fill="none" stroke="black" points="16,-40.8 16,-92.8 352,-92.8 352,-40.8 16,-40.8"/>
</g>
<!-- UserEventModule -->
<g id="node1" class="node">
<title>UserEventModule</title>
<polygon fill="#8dd3c7" stroke="black" points="344.13,-84.8 341.13,-88.8 320.13,-88.8 317.13,-84.8 225.87,-84.8 225.87,-48.8 344.13,-48.8 344.13,-84.8"/>
<text text-anchor="middle" x="285" y="-62.6" font-family="Times,serif" font-size="14.00">UserEventModule</text>
</g>
<!-- UserTransitionalModule -->
<g id="node3" class="node">
<title>UserTransitionalModule</title>
<polygon fill="#8dd3c7" stroke="black" points="361.63,-149.8 358.63,-153.8 337.63,-153.8 334.63,-149.8 208.37,-149.8 208.37,-113.8 361.63,-113.8 361.63,-149.8"/>
<text text-anchor="middle" x="285" y="-127.6" font-family="Times,serif" font-size="14.00">UserTransitionalModule</text>
</g>
<!-- UserEventModule&#45;&gt;UserTransitionalModule -->
<g id="edge1" class="edge">
<title>UserEventModule&#45;&gt;UserTransitionalModule</title>
<path fill="none" stroke="black" d="M285,-84.91C285,-84.91 285,-103.79 285,-103.79"/>
<polygon fill="black" stroke="black" points="281.5,-103.79 285,-113.79 288.5,-103.79 281.5,-103.79"/>
</g>
<!-- UserStoreTransitionalModule -->
<g id="node2" class="node">
<title>UserStoreTransitionalModule</title>
<polygon fill="#8dd3c7" stroke="black" points="207.67,-84.8 204.67,-88.8 183.67,-88.8 180.67,-84.8 24.33,-84.8 24.33,-48.8 207.67,-48.8 207.67,-84.8"/>
<text text-anchor="middle" x="116" y="-62.6" font-family="Times,serif" font-size="14.00">UserStoreTransitionalModule</text>
</g>
<!-- UserStoreTransitionalModule&#45;&gt;UserTransitionalModule -->
<g id="edge2" class="edge">
<title>UserStoreTransitionalModule&#45;&gt;UserTransitionalModule</title>
<path fill="none" stroke="black" d="M207.62,-66.8C213.39,-66.8 216.94,-66.8 216.94,-66.8 216.94,-66.8 216.94,-103.69 216.94,-103.69"/>
<polygon fill="black" stroke="black" points="213.44,-103.69 216.94,-113.69 220.44,-103.69 213.44,-103.69"/>
</g>
<!-- UserEventBuilder -->
<g id="node4" class="node">
<title>UserEventBuilder</title>
<ellipse fill="#fdb462" stroke="black" cx="449" cy="-66.8" rx="80.52" ry="18"/>
<text text-anchor="middle" x="449" y="-62.6" font-family="Times,serif" font-size="14.00">UserEventBuilder</text>
</g>
<!-- UserEventBuilder&#45;&gt;UserTransitionalModule -->
<g id="edge3" class="edge">
<title>UserEventBuilder&#45;&gt;UserTransitionalModule</title>
<path fill="none" stroke="black" d="M368.05,-66.8C359.06,-66.8 353.06,-66.8 353.06,-66.8 353.06,-66.8 353.06,-103.69 353.06,-103.69"/>
<polygon fill="black" stroke="black" points="349.56,-103.69 353.06,-113.69 356.56,-103.69 349.56,-103.69"/>
</g>
</g>
</svg>
