<?xml version="1.0" encoding="UTF-8" standalone="no"?>
<!DOCTYPE svg PUBLIC "-//W3C//DTD SVG 1.1//EN"
 "http://www.w3.org/Graphics/SVG/1.1/DTD/svg11.dtd">
<!-- Generated by graphviz version 2.47.3 (20210619.1520)
 -->
<!-- Title: dependencies Pages: 1 -->
<svg width="428pt" height="174pt"
 viewBox="0.00 0.00 428.00 173.80" xmlns="http://www.w3.org/2000/svg" xmlns:xlink="http://www.w3.org/1999/xlink">
<g id="graph0" class="graph" transform="scale(1 1) rotate(0) translate(4 169.8)">
<title>dependencies</title>
<polygon fill="white" stroke="transparent" points="-4,4 -4,-169.8 424,-169.8 424,4 -4,4"/>
<text text-anchor="middle" x="210" y="-8.2" font-family="sans-serif" font-size="14.00">dependencies</text>
<g id="clust1" class="cluster">
<title>cluster_UserAccountCoreModule</title>
<polygon fill="none" stroke="black" stroke-dasharray="1,5" points="8,-32.8 8,-157.8 412,-157.8 412,-32.8 8,-32.8"/>
</g>
<g id="clust6" class="cluster">
<title>cluster_UserAccountCoreModule_providers</title>
<polygon fill="none" stroke="black" points="16,-40.8 16,-92.8 404,-92.8 404,-40.8 16,-40.8"/>
</g>
<!-- CdcAuthService -->
<g id="node1" class="node">
<title>CdcAuthService</title>
<ellipse fill="#fdb462" stroke="black" cx="321" cy="-66.8" rx="74.72" ry="18"/>
<text text-anchor="middle" x="321" y="-62.6" font-family="Times,serif" font-size="14.00">CdcAuthService</text>
</g>
<!-- UserAccountCoreModule -->
<g id="node3" class="node">
<title>UserAccountCoreModule</title>
<polygon fill="#8dd3c7" stroke="black" points="303.11,-149.8 300.11,-153.8 279.11,-153.8 276.11,-149.8 142.89,-149.8 142.89,-113.8 303.11,-113.8 303.11,-149.8"/>
<text text-anchor="middle" x="223" y="-127.6" font-family="Times,serif" font-size="14.00">UserAccountCoreModule</text>
</g>
<!-- CdcAuthService&#45;&gt;UserAccountCoreModule -->
<g id="edge1" class="edge">
<title>CdcAuthService&#45;&gt;UserAccountCoreModule</title>
<path fill="none" stroke="black" d="M274.72,-81.23C274.72,-81.23 274.72,-103.69 274.72,-103.69"/>
<polygon fill="black" stroke="black" points="271.22,-103.69 274.72,-113.69 278.22,-103.69 271.22,-103.69"/>
</g>
<!-- UserAccountConnector -->
<g id="node2" class="node">
<title>UserAccountConnector</title>
<ellipse fill="#fdb462" stroke="black" cx="126" cy="-66.8" rx="102.41" ry="18"/>
<text text-anchor="middle" x="126" y="-62.6" font-family="Times,serif" font-size="14.00">UserAccountConnector</text>
</g>
<!-- UserAccountConnector&#45;&gt;UserAccountCoreModule -->
<g id="edge2" class="edge">
<title>UserAccountConnector&#45;&gt;UserAccountCoreModule</title>
<path fill="none" stroke="black" d="M185.45,-81.55C185.45,-81.55 185.45,-103.39 185.45,-103.39"/>
<polygon fill="black" stroke="black" points="181.95,-103.39 185.45,-113.39 188.95,-103.39 181.95,-103.39"/>
</g>
</g>
</svg>
