<?xml version="1.0" encoding="UTF-8" standalone="no"?>
<!DOCTYPE svg PUBLIC "-//W3C//DTD SVG 1.1//EN"
 "http://www.w3.org/Graphics/SVG/1.1/DTD/svg11.dtd">
<!-- Generated by graphviz version 2.47.3 (20210619.1520)
 -->
<!-- Title: dependencies Pages: 1 -->
<svg width="1590pt" height="174pt"
 viewBox="0.00 0.00 1590.00 173.80" xmlns="http://www.w3.org/2000/svg" xmlns:xlink="http://www.w3.org/1999/xlink">
<g id="graph0" class="graph" transform="scale(1 1) rotate(0) translate(4 169.8)">
<title>dependencies</title>
<polygon fill="white" stroke="transparent" points="-4,4 -4,-169.8 1586,-169.8 1586,4 -4,4"/>
<text text-anchor="middle" x="791" y="-8.2" font-family="sans-serif" font-size="14.00">dependencies</text>
<g id="clust1" class="cluster">
<title>cluster_UserAccountCoreModule</title>
<polygon fill="none" stroke="black" stroke-dasharray="1,5" points="8,-32.8 8,-157.8 1574,-157.8 1574,-32.8 8,-32.8"/>
</g>
<g id="clust6" class="cluster">
<title>cluster_UserAccountCoreModule_providers</title>
<polygon fill="none" stroke="black" points="16,-40.8 16,-92.8 1566,-92.8 1566,-40.8 16,-40.8"/>
</g>
<!-- CheckoutCostCenterService -->
<g id="node1" class="node">
<title>CheckoutCostCenterService</title>
<ellipse fill="#fdb462" stroke="black" cx="1438" cy="-66.8" rx="120.4" ry="18"/>
<text text-anchor="middle" x="1438" y="-62.6" font-family="Times,serif" font-size="14.00">CheckoutCostCenterService</text>
</g>
<!-- UserAccountCoreModule -->
<g id="node8" class="node">
<title>UserAccountCoreModule</title>
<polygon fill="#8dd3c7" stroke="black" points="823.11,-149.8 820.11,-153.8 799.11,-153.8 796.11,-149.8 662.89,-149.8 662.89,-113.8 823.11,-113.8 823.11,-149.8"/>
<text text-anchor="middle" x="743" y="-127.6" font-family="Times,serif" font-size="14.00">UserAccountCoreModule</text>
</g>
<!-- CheckoutCostCenterService&#45;&gt;UserAccountCoreModule -->
<g id="edge1" class="edge">
<title>CheckoutCostCenterService&#45;&gt;UserAccountCoreModule</title>
<path fill="none" stroke="black" d="M1438,-85.09C1438,-107.01 1438,-140.8 1438,-140.8 1438,-140.8 833.4,-140.8 833.4,-140.8"/>
<polygon fill="black" stroke="black" points="833.4,-137.3 823.4,-140.8 833.4,-144.3 833.4,-137.3"/>
</g>
<!-- CheckoutDeliveryService -->
<g id="node2" class="node">
<title>CheckoutDeliveryService</title>
<ellipse fill="#fdb462" stroke="black" cx="1189" cy="-66.8" rx="110.57" ry="18"/>
<text text-anchor="middle" x="1189" y="-62.6" font-family="Times,serif" font-size="14.00">CheckoutDeliveryService</text>
</g>
<!-- CheckoutDeliveryService&#45;&gt;UserAccountCoreModule -->
<g id="edge2" class="edge">
<title>CheckoutDeliveryService&#45;&gt;UserAccountCoreModule</title>
<path fill="none" stroke="black" d="M1189,-84.91C1189,-104.14 1189,-131.8 1189,-131.8 1189,-131.8 833.25,-131.8 833.25,-131.8"/>
<polygon fill="black" stroke="black" points="833.25,-128.3 823.25,-131.8 833.25,-135.3 833.25,-128.3"/>
</g>
<!-- CheckoutPaymentService -->
<g id="node3" class="node">
<title>CheckoutPaymentService</title>
<ellipse fill="#fdb462" stroke="black" cx="949" cy="-66.8" rx="110.6" ry="18"/>
<text text-anchor="middle" x="949" y="-62.6" font-family="Times,serif" font-size="14.00">CheckoutPaymentService</text>
</g>
<!-- CheckoutPaymentService&#45;&gt;UserAccountCoreModule -->
<g id="edge3" class="edge">
<title>CheckoutPaymentService&#45;&gt;UserAccountCoreModule</title>
<path fill="none" stroke="black" d="M949,-84.83C949,-101.2 949,-122.8 949,-122.8 949,-122.8 833.23,-122.8 833.23,-122.8"/>
<polygon fill="black" stroke="black" points="833.23,-119.3 823.23,-122.8 833.23,-126.3 833.23,-119.3"/>
</g>
<!-- CheckoutService -->
<g id="node4" class="node">
<title>CheckoutService</title>
<ellipse fill="#fdb462" stroke="black" cx="743" cy="-66.8" rx="77.01" ry="18"/>
<text text-anchor="middle" x="743" y="-62.6" font-family="Times,serif" font-size="14.00">CheckoutService</text>
</g>
<!-- CheckoutService&#45;&gt;UserAccountCoreModule -->
<g id="edge4" class="edge">
<title>CheckoutService&#45;&gt;UserAccountCoreModule</title>
<path fill="none" stroke="black" d="M743,-84.91C743,-84.91 743,-103.79 743,-103.79"/>
<polygon fill="black" stroke="black" points="739.5,-103.79 743,-113.79 746.5,-103.79 739.5,-103.79"/>
</g>
<!-- ClearCheckoutService -->
<g id="node5" class="node">
<title>ClearCheckoutService</title>
<ellipse fill="#fdb462" stroke="black" cx="550" cy="-66.8" rx="97.83" ry="18"/>
<text text-anchor="middle" x="550" y="-62.6" font-family="Times,serif" font-size="14.00">ClearCheckoutService</text>
</g>
<!-- ClearCheckoutService&#45;&gt;UserAccountCoreModule -->
<g id="edge5" class="edge">
<title>ClearCheckoutService&#45;&gt;UserAccountCoreModule</title>
<path fill="none" stroke="black" d="M550,-84.83C550,-101.2 550,-122.8 550,-122.8 550,-122.8 652.83,-122.8 652.83,-122.8"/>
<polygon fill="black" stroke="black" points="652.83,-126.3 662.83,-122.8 652.83,-119.3 652.83,-126.3"/>
</g>
<!-- PaymentTypeService -->
<g id="node6" class="node">
<title>PaymentTypeService</title>
<ellipse fill="#fdb462" stroke="black" cx="340" cy="-66.8" rx="93.76" ry="18"/>
<text text-anchor="middle" x="340" y="-62.6" font-family="Times,serif" font-size="14.00">PaymentTypeService</text>
</g>
<!-- PaymentTypeService&#45;&gt;UserAccountCoreModule -->
<g id="edge6" class="edge">
<title>PaymentTypeService&#45;&gt;UserAccountCoreModule</title>
<path fill="none" stroke="black" d="M340,-84.91C340,-104.14 340,-131.8 340,-131.8 340,-131.8 652.42,-131.8 652.42,-131.8"/>
<polygon fill="black" stroke="black" points="652.42,-135.3 662.42,-131.8 652.42,-128.3 652.42,-135.3"/>
</g>
<!-- UserAccountConnector -->
<g id="node7" class="node">
<title>UserAccountConnector</title>
<ellipse fill="#fdb462" stroke="black" cx="126" cy="-66.8" rx="102.41" ry="18"/>
<text text-anchor="middle" x="126" y="-62.6" font-family="Times,serif" font-size="14.00">UserAccountConnector</text>
</g>
<!-- UserAccountConnector&#45;&gt;UserAccountCoreModule -->
<g id="edge7" class="edge">
<title>UserAccountConnector&#45;&gt;UserAccountCoreModule</title>
<path fill="none" stroke="black" d="M126,-85.09C126,-107.01 126,-140.8 126,-140.8 126,-140.8 652.65,-140.8 652.65,-140.8"/>
<polygon fill="black" stroke="black" points="652.65,-144.3 662.65,-140.8 652.65,-137.3 652.65,-144.3"/>
</g>
</g>
</svg>
