<?xml version="1.0" encoding="UTF-8" standalone="no"?>
<!DOCTYPE svg PUBLIC "-//W3C//DTD SVG 1.1//EN"
 "http://www.w3.org/Graphics/SVG/1.1/DTD/svg11.dtd">
<!-- Generated by graphviz version 2.47.3 (20210619.1520)
 -->
<!-- Title: dependencies Pages: 1 -->
<svg width="318pt" height="247pt"
 viewBox="0.00 0.00 318.00 246.80" xmlns="http://www.w3.org/2000/svg" xmlns:xlink="http://www.w3.org/1999/xlink">
<g id="graph0" class="graph" transform="scale(1 1) rotate(0) translate(4 242.8)">
<title>dependencies</title>
<polygon fill="white" stroke="transparent" points="-4,4 -4,-242.8 314,-242.8 314,4 -4,4"/>
<text text-anchor="middle" x="155" y="-8.2" font-family="sans-serif" font-size="14.00">dependencies</text>
<g id="clust1" class="cluster">
<title>cluster_ConfiguratorOverviewAttributeModule</title>
<polygon fill="none" stroke="black" stroke-dasharray="1,5" points="8,-32.8 8,-230.8 302,-230.8 302,-32.8 8,-32.8"/>
</g>
<g id="clust5" class="cluster">
<title>cluster_ConfiguratorOverviewAttributeModule_exports</title>
<polygon fill="none" stroke="black" points="16,-170.8 16,-222.8 294,-222.8 294,-170.8 16,-170.8"/>
</g>
<g id="clust2" class="cluster">
<title>cluster_ConfiguratorOverviewAttributeModule_declarations</title>
<polygon fill="none" stroke="black" points="17,-40.8 17,-92.8 293,-92.8 293,-40.8 17,-40.8"/>
</g>
<!-- ConfiguratorOverviewAttributeComponent -->
<g id="node1" class="node">
<title>ConfiguratorOverviewAttributeComponent</title>
<polygon fill="#ffffb3" stroke="black" points="284.88,-84.8 25.12,-84.8 25.12,-48.8 284.88,-48.8 284.88,-84.8"/>
<text text-anchor="middle" x="155" y="-62.6" font-family="Times,serif" font-size="14.00">ConfiguratorOverviewAttributeComponent</text>
</g>
<!-- ConfiguratorOverviewAttributeModule -->
<g id="node2" class="node">
<title>ConfiguratorOverviewAttributeModule</title>
<polygon fill="#8dd3c7" stroke="black" points="273.6,-149.8 270.6,-153.8 249.6,-153.8 246.6,-149.8 36.4,-149.8 36.4,-113.8 273.6,-113.8 273.6,-149.8"/>
<text text-anchor="middle" x="155" y="-127.6" font-family="Times,serif" font-size="14.00">ConfiguratorOverviewAttributeModule</text>
</g>
<!-- ConfiguratorOverviewAttributeComponent&#45;&gt;ConfiguratorOverviewAttributeModule -->
<g id="edge1" class="edge">
<title>ConfiguratorOverviewAttributeComponent&#45;&gt;ConfiguratorOverviewAttributeModule</title>
<path fill="none" stroke="black" d="M155,-84.91C155,-84.91 155,-103.79 155,-103.79"/>
<polygon fill="black" stroke="black" points="151.5,-103.79 155,-113.79 158.5,-103.79 151.5,-103.79"/>
</g>
<!-- ConfiguratorOverviewAttributeComponent  -->
<g id="node3" class="node">
<title>ConfiguratorOverviewAttributeComponent </title>
<polygon fill="#fb8072" stroke="black" points="286.38,-214.8 23.62,-214.8 23.62,-178.8 286.38,-178.8 286.38,-214.8"/>
<text text-anchor="middle" x="155" y="-192.6" font-family="Times,serif" font-size="14.00">ConfiguratorOverviewAttributeComponent </text>
</g>
<!-- ConfiguratorOverviewAttributeModule&#45;&gt;ConfiguratorOverviewAttributeComponent  -->
<g id="edge2" class="edge">
<title>ConfiguratorOverviewAttributeModule&#45;&gt;ConfiguratorOverviewAttributeComponent </title>
<path fill="none" stroke="black" stroke-dasharray="5,2" d="M155,-149.91C155,-149.91 155,-168.79 155,-168.79"/>
<polygon fill="black" stroke="black" points="151.5,-168.79 155,-178.79 158.5,-168.79 151.5,-168.79"/>
</g>
</g>
</svg>
