<?xml version="1.0" encoding="UTF-8" standalone="no"?>
<!DOCTYPE svg PUBLIC "-//W3C//DTD SVG 1.1//EN"
 "http://www.w3.org/Graphics/SVG/1.1/DTD/svg11.dtd">
<!-- Generated by graphviz version 2.47.3 (20210619.1520)
 -->
<!-- Title: dependencies Pages: 1 -->
<svg width="771pt" height="247pt"
 viewBox="0.00 0.00 771.00 246.80" xmlns="http://www.w3.org/2000/svg" xmlns:xlink="http://www.w3.org/1999/xlink">
<g id="graph0" class="graph" transform="scale(1 1) rotate(0) translate(4 242.8)">
<title>dependencies</title>
<polygon fill="white" stroke="transparent" points="-4,4 -4,-242.8 767,-242.8 767,4 -4,4"/>
<text text-anchor="middle" x="381.5" y="-8.2" font-family="sans-serif" font-size="14.00">dependencies</text>
<g id="clust1" class="cluster">
<title>cluster_ReturnOrderConfirmationModule</title>
<polygon fill="none" stroke="black" stroke-dasharray="1,5" points="8,-32.8 8,-230.8 755,-230.8 755,-32.8 8,-32.8"/>
</g>
<g id="clust2" class="cluster">
<title>cluster_ReturnOrderConfirmationModule_declarations</title>
<polygon fill="none" stroke="black" points="503,-40.8 503,-92.8 747,-92.8 747,-40.8 503,-40.8"/>
</g>
<g id="clust4" class="cluster">
<title>cluster_ReturnOrderConfirmationModule_imports</title>
<polygon fill="none" stroke="black" points="16,-40.8 16,-92.8 495,-92.8 495,-40.8 16,-40.8"/>
</g>
<g id="clust5" class="cluster">
<title>cluster_ReturnOrderConfirmationModule_exports</title>
<polygon fill="none" stroke="black" points="180,-170.8 180,-222.8 428,-222.8 428,-170.8 180,-170.8"/>
</g>
<!-- ReturnOrderConfirmationComponent -->
<g id="node1" class="node">
<title>ReturnOrderConfirmationComponent</title>
<polygon fill="#ffffb3" stroke="black" points="738.51,-84.8 511.49,-84.8 511.49,-48.8 738.51,-48.8 738.51,-84.8"/>
<text text-anchor="middle" x="625" y="-62.6" font-family="Times,serif" font-size="14.00">ReturnOrderConfirmationComponent</text>
</g>
<!-- ReturnOrderConfirmationModule -->
<g id="node2" class="node">
<title>ReturnOrderConfirmationModule</title>
<polygon fill="#8dd3c7" stroke="black" points="406.73,-149.8 403.73,-153.8 382.73,-153.8 379.73,-149.8 201.27,-149.8 201.27,-113.8 406.73,-113.8 406.73,-149.8"/>
<text text-anchor="middle" x="304" y="-127.6" font-family="Times,serif" font-size="14.00">ReturnOrderConfirmationModule</text>
</g>
<!-- ReturnOrderConfirmationComponent&#45;&gt;ReturnOrderConfirmationModule -->
<g id="edge1" class="edge">
<title>ReturnOrderConfirmationComponent&#45;&gt;ReturnOrderConfirmationModule</title>
<path fill="none" stroke="black" d="M625,-84.91C625,-104.14 625,-131.8 625,-131.8 625,-131.8 416.89,-131.8 416.89,-131.8"/>
<polygon fill="black" stroke="black" points="416.89,-128.3 406.89,-131.8 416.89,-135.3 416.89,-128.3"/>
</g>
<!-- ReturnOrderConfirmationComponent  -->
<g id="node6" class="node">
<title>ReturnOrderConfirmationComponent </title>
<polygon fill="#fb8072" stroke="black" points="419.51,-214.8 188.49,-214.8 188.49,-178.8 419.51,-178.8 419.51,-214.8"/>
<text text-anchor="middle" x="304" y="-192.6" font-family="Times,serif" font-size="14.00">ReturnOrderConfirmationComponent </text>
</g>
<!-- ReturnOrderConfirmationModule&#45;&gt;ReturnOrderConfirmationComponent  -->
<g id="edge5" class="edge">
<title>ReturnOrderConfirmationModule&#45;&gt;ReturnOrderConfirmationComponent </title>
<path fill="none" stroke="black" stroke-dasharray="5,2" d="M304,-149.91C304,-149.91 304,-168.79 304,-168.79"/>
<polygon fill="black" stroke="black" points="300.5,-168.79 304,-178.79 307.5,-168.79 300.5,-168.79"/>
</g>
<!-- AmendOrderActionsModule -->
<g id="node3" class="node">
<title>AmendOrderActionsModule</title>
<polygon fill="#8dd3c7" stroke="black" points="487.45,-84.8 484.45,-88.8 463.45,-88.8 460.45,-84.8 310.55,-84.8 310.55,-48.8 487.45,-48.8 487.45,-84.8"/>
<text text-anchor="middle" x="399" y="-62.6" font-family="Times,serif" font-size="14.00">AmendOrderActionsModule</text>
</g>
<!-- AmendOrderActionsModule&#45;&gt;ReturnOrderConfirmationModule -->
<g id="edge2" class="edge">
<title>AmendOrderActionsModule&#45;&gt;ReturnOrderConfirmationModule</title>
<path fill="none" stroke="black" d="M358.69,-84.91C358.69,-84.91 358.69,-103.79 358.69,-103.79"/>
<polygon fill="black" stroke="black" points="355.19,-103.79 358.69,-113.79 362.19,-103.79 355.19,-103.79"/>
</g>
<!-- AmendOrderItemsModule -->
<g id="node4" class="node">
<title>AmendOrderItemsModule</title>
<polygon fill="#8dd3c7" stroke="black" points="292.01,-84.8 289.01,-88.8 268.01,-88.8 265.01,-84.8 127.99,-84.8 127.99,-48.8 292.01,-48.8 292.01,-84.8"/>
<text text-anchor="middle" x="210" y="-62.6" font-family="Times,serif" font-size="14.00">AmendOrderItemsModule</text>
</g>
<!-- AmendOrderItemsModule&#45;&gt;ReturnOrderConfirmationModule -->
<g id="edge3" class="edge">
<title>AmendOrderItemsModule&#45;&gt;ReturnOrderConfirmationModule</title>
<path fill="none" stroke="black" d="M246.69,-84.91C246.69,-84.91 246.69,-103.79 246.69,-103.79"/>
<polygon fill="black" stroke="black" points="243.19,-103.79 246.69,-113.79 250.19,-103.79 243.19,-103.79"/>
</g>
<!-- I18nModule -->
<g id="node5" class="node">
<title>I18nModule</title>
<polygon fill="#8dd3c7" stroke="black" points="109.71,-84.8 106.71,-88.8 85.71,-88.8 82.71,-84.8 24.29,-84.8 24.29,-48.8 109.71,-48.8 109.71,-84.8"/>
<text text-anchor="middle" x="67" y="-62.6" font-family="Times,serif" font-size="14.00">I18nModule</text>
</g>
<!-- I18nModule&#45;&gt;ReturnOrderConfirmationModule -->
<g id="edge4" class="edge">
<title>I18nModule&#45;&gt;ReturnOrderConfirmationModule</title>
<path fill="none" stroke="black" d="M67,-84.91C67,-104.14 67,-131.8 67,-131.8 67,-131.8 191.08,-131.8 191.08,-131.8"/>
<polygon fill="black" stroke="black" points="191.08,-135.3 201.08,-131.8 191.08,-128.3 191.08,-135.3"/>
</g>
</g>
</svg>
