<?xml version="1.0" encoding="UTF-8" standalone="no"?>
<!DOCTYPE svg PUBLIC "-//W3C//DTD SVG 1.1//EN"
 "http://www.w3.org/Graphics/SVG/1.1/DTD/svg11.dtd">
<!-- Generated by graphviz version 2.40.1 (20161225.0304)
 -->
<!-- Title: dependencies Pages: 1 -->
<svg width="710pt" height="284pt"
 viewBox="0.00 0.00 710.00 284.00" xmlns="http://www.w3.org/2000/svg" xmlns:xlink="http://www.w3.org/1999/xlink">
<g id="graph0" class="graph" transform="scale(1 1) rotate(0) translate(4 280)">
<title>dependencies</title>
<polygon fill="#ffffff" stroke="transparent" points="-4,4 -4,-280 706,-280 706,4 -4,4"/>
<text text-anchor="start" x="330.0091" y="-42.4" font-family="sans-serif" font-weight="bold" font-size="14.00" fill="#000000">Legend</text>
<polygon fill="#ffffb3" stroke="transparent" points="117,-10 117,-30 137,-30 137,-10 117,-10"/>
<text text-anchor="start" x="140.629" y="-15.4" font-family="sans-serif" font-size="14.00" fill="#000000"> &#160;Declarations</text>
<polygon fill="#8dd3c7" stroke="transparent" points="230,-10 230,-30 250,-30 250,-10 230,-10"/>
<text text-anchor="start" x="253.7251" y="-15.4" font-family="sans-serif" font-size="14.00" fill="#000000"> &#160;Module</text>
<polygon fill="#80b1d3" stroke="transparent" points="316,-10 316,-30 336,-30 336,-10 316,-10"/>
<text text-anchor="start" x="339.7812" y="-15.4" font-family="sans-serif" font-size="14.00" fill="#000000"> &#160;Bootstrap</text>
<polygon fill="#fdb462" stroke="transparent" points="413,-10 413,-30 433,-30 433,-10 413,-10"/>
<text text-anchor="start" x="436.6732" y="-15.4" font-family="sans-serif" font-size="14.00" fill="#000000"> &#160;Providers</text>
<polygon fill="#fb8072" stroke="transparent" points="509,-10 509,-30 529,-30 529,-10 509,-10"/>
<text text-anchor="start" x="532.7258" y="-15.4" font-family="sans-serif" font-size="14.00" fill="#000000"> &#160;Exports</text>
<g id="clust1" class="cluster">
<title>cluster_ReturnOrderConfirmationModule</title>
<polygon fill="none" stroke="#000000" stroke-dasharray="1,5" points="8,-70 8,-268 694,-268 694,-70 8,-70"/>
</g>
<g id="clust2" class="cluster">
<title>cluster_ReturnOrderConfirmationModule_declarations</title>
<polygon fill="none" stroke="#000000" points="442,-78 442,-130 686,-130 686,-78 442,-78"/>
</g>
<g id="clust4" class="cluster">
<title>cluster_ReturnOrderConfirmationModule_imports</title>
<polygon fill="none" stroke="#000000" points="16,-78 16,-130 434,-130 434,-78 16,-78"/>
</g>
<g id="clust5" class="cluster">
<title>cluster_ReturnOrderConfirmationModule_exports</title>
<polygon fill="none" stroke="#000000" points="132,-208 132,-260 380,-260 380,-208 132,-208"/>
</g>
<!-- ReturnOrderConfirmationComponent -->
<g id="node1" class="node">
<title>ReturnOrderConfirmationComponent</title>
<polygon fill="#ffffb3" stroke="#000000" points="677.5125,-122 450.4875,-122 450.4875,-86 677.5125,-86 677.5125,-122"/>
<text text-anchor="middle" x="564" y="-99.8" font-family="Times,serif" font-size="14.00" fill="#000000">ReturnOrderConfirmationComponent</text>
</g>
<!-- ReturnOrderConfirmationModule -->
<g id="node2" class="node">
<title>ReturnOrderConfirmationModule</title>
<polygon fill="#8dd3c7" stroke="#000000" points="358.7296,-187 355.7296,-191 334.7296,-191 331.7296,-187 153.2704,-187 153.2704,-151 358.7296,-151 358.7296,-187"/>
<text text-anchor="middle" x="256" y="-164.8" font-family="Times,serif" font-size="14.00" fill="#000000">ReturnOrderConfirmationModule</text>
</g>
<!-- ReturnOrderConfirmationComponent&#45;&gt;ReturnOrderConfirmationModule -->
<g id="edge1" class="edge">
<title>ReturnOrderConfirmationComponent&#45;&gt;ReturnOrderConfirmationModule</title>
<path fill="none" stroke="#000000" d="M564,-122.1061C564,-141.3391 564,-169 564,-169 564,-169 368.9878,-169 368.9878,-169"/>
<polygon fill="#000000" stroke="#000000" points="368.9878,-165.5001 358.9878,-169 368.9877,-172.5001 368.9878,-165.5001"/>
</g>
<!-- ReturnOrderConfirmationComponent  -->
<g id="node6" class="node">
<title>ReturnOrderConfirmationComponent </title>
<polygon fill="#fb8072" stroke="#000000" points="371.512,-252 140.488,-252 140.488,-216 371.512,-216 371.512,-252"/>
<text text-anchor="middle" x="256" y="-229.8" font-family="Times,serif" font-size="14.00" fill="#000000">ReturnOrderConfirmationComponent </text>
</g>
<!-- ReturnOrderConfirmationModule&#45;&gt;ReturnOrderConfirmationComponent  -->
<g id="edge5" class="edge">
<title>ReturnOrderConfirmationModule&#45;&gt;ReturnOrderConfirmationComponent </title>
<path fill="none" stroke="#000000" stroke-dasharray="5,2" d="M256,-187.1061C256,-187.1061 256,-205.991 256,-205.991"/>
<polygon fill="#000000" stroke="#000000" points="252.5001,-205.9909 256,-215.991 259.5001,-205.991 252.5001,-205.9909"/>
</g>
<!-- CancelOrReturnItemsModule -->
<g id="node3" class="node">
<title>CancelOrReturnItemsModule</title>
<polygon fill="#8dd3c7" stroke="#000000" points="426.3918,-122 423.3918,-126 402.3918,-126 399.3918,-122 243.6082,-122 243.6082,-86 426.3918,-86 426.3918,-122"/>
<text text-anchor="middle" x="335" y="-99.8" font-family="Times,serif" font-size="14.00" fill="#000000">CancelOrReturnItemsModule</text>
</g>
<!-- CancelOrReturnItemsModule&#45;&gt;ReturnOrderConfirmationModule -->
<g id="edge2" class="edge">
<title>CancelOrReturnItemsModule&#45;&gt;ReturnOrderConfirmationModule</title>
<path fill="none" stroke="#000000" d="M301.3345,-122.1061C301.3345,-122.1061 301.3345,-140.991 301.3345,-140.991"/>
<polygon fill="#000000" stroke="#000000" points="297.8346,-140.9909 301.3345,-150.991 304.8346,-140.991 297.8346,-140.9909"/>
</g>
<!-- ConfigModule -->
<g id="node4" class="node">
<title>ConfigModule</title>
<polygon fill="#8dd3c7" stroke="#000000" points="226.4386,-122 223.4386,-126 202.4386,-126 199.4386,-122 127.5614,-122 127.5614,-86 226.4386,-86 226.4386,-122"/>
<text text-anchor="middle" x="177" y="-99.8" font-family="Times,serif" font-size="14.00" fill="#000000">ConfigModule</text>
</g>
<!-- ConfigModule&#45;&gt;ReturnOrderConfirmationModule -->
<g id="edge3" class="edge">
<title>ConfigModule&#45;&gt;ReturnOrderConfirmationModule</title>
<path fill="none" stroke="#000000" d="M189.6771,-122.1061C189.6771,-122.1061 189.6771,-140.991 189.6771,-140.991"/>
<polygon fill="#000000" stroke="#000000" points="186.1771,-140.9909 189.6771,-150.991 193.1771,-140.991 186.1771,-140.9909"/>
</g>
<!-- I18nModule -->
<g id="node5" class="node">
<title>I18nModule</title>
<polygon fill="#8dd3c7" stroke="#000000" points="109.7107,-122 106.7107,-126 85.7107,-126 82.7107,-122 24.2893,-122 24.2893,-86 109.7107,-86 109.7107,-122"/>
<text text-anchor="middle" x="67" y="-99.8" font-family="Times,serif" font-size="14.00" fill="#000000">I18nModule</text>
</g>
<!-- I18nModule&#45;&gt;ReturnOrderConfirmationModule -->
<g id="edge4" class="edge">
<title>I18nModule&#45;&gt;ReturnOrderConfirmationModule</title>
<path fill="none" stroke="#000000" d="M67,-122.1061C67,-141.3391 67,-169 67,-169 67,-169 143.2038,-169 143.2038,-169"/>
<polygon fill="#000000" stroke="#000000" points="143.2039,-172.5001 153.2038,-169 143.2038,-165.5001 143.2039,-172.5001"/>
</g>
</g>
</svg>
