<?xml version="1.0" encoding="UTF-8" standalone="no"?>
<!DOCTYPE svg PUBLIC "-//W3C//DTD SVG 1.1//EN"
 "http://www.w3.org/Graphics/SVG/1.1/DTD/svg11.dtd">
<!-- Generated by graphviz version 2.47.3 (20210619.1520)
 -->
<!-- Title: dependencies Pages: 1 -->
<svg width="771pt" height="247pt"
 viewBox="0.00 0.00 771.00 246.80" xmlns="http://www.w3.org/2000/svg" xmlns:xlink="http://www.w3.org/1999/xlink">
<g id="graph0" class="graph" transform="scale(1 1) rotate(0) translate(4 242.8)">
<title>dependencies</title>
<polygon fill="white" stroke="transparent" points="-4,4 -4,-242.8 767,-242.8 767,4 -4,4"/>
<text text-anchor="middle" x="381.5" y="-8.2" font-family="sans-serif" font-size="14.00">dependencies</text>
<g id="clust1" class="cluster">
<title>cluster_ReturnOrderConfirmationModule</title>
<polygon fill="none" stroke="black" stroke-dasharray="1,5" points="8,-32.8 8,-230.8 755,-230.8 755,-32.8 8,-32.8"/>
</g>
<g id="clust4" class="cluster">
<title>cluster_ReturnOrderConfirmationModule_imports</title>
<polygon fill="none" stroke="black" points="268,-40.8 268,-92.8 747,-92.8 747,-40.8 268,-40.8"/>
</g>
<g id="clust2" class="cluster">
<title>cluster_ReturnOrderConfirmationModule_declarations</title>
<polygon fill="none" stroke="black" points="16,-40.8 16,-92.8 260,-92.8 260,-40.8 16,-40.8"/>
</g>
<g id="clust5" class="cluster">
<title>cluster_ReturnOrderConfirmationModule_exports</title>
<polygon fill="none" stroke="black" points="266,-170.8 266,-222.8 514,-222.8 514,-170.8 266,-170.8"/>
</g>
<!-- ReturnOrderConfirmationComponent -->
<g id="node1" class="node">
<title>ReturnOrderConfirmationComponent</title>
<polygon fill="#ffffb3" stroke="black" points="251.51,-84.8 24.49,-84.8 24.49,-48.8 251.51,-48.8 251.51,-84.8"/>
<text text-anchor="middle" x="138" y="-62.6" font-family="Times,serif" font-size="14.00">ReturnOrderConfirmationComponent</text>
</g>
<!-- ReturnOrderConfirmationModule -->
<g id="node2" class="node">
<title>ReturnOrderConfirmationModule</title>
<polygon fill="#8dd3c7" stroke="black" points="492.73,-149.8 489.73,-153.8 468.73,-153.8 465.73,-149.8 287.27,-149.8 287.27,-113.8 492.73,-113.8 492.73,-149.8"/>
<text text-anchor="middle" x="390" y="-127.6" font-family="Times,serif" font-size="14.00">ReturnOrderConfirmationModule</text>
</g>
<!-- ReturnOrderConfirmationComponent&#45;&gt;ReturnOrderConfirmationModule -->
<g id="edge1" class="edge">
<title>ReturnOrderConfirmationComponent&#45;&gt;ReturnOrderConfirmationModule</title>
<path fill="none" stroke="black" d="M138,-84.91C138,-104.14 138,-131.8 138,-131.8 138,-131.8 277.14,-131.8 277.14,-131.8"/>
<polygon fill="black" stroke="black" points="277.14,-135.3 287.14,-131.8 277.14,-128.3 277.14,-135.3"/>
</g>
<!-- ReturnOrderConfirmationComponent  -->
<g id="node6" class="node">
<title>ReturnOrderConfirmationComponent </title>
<polygon fill="#fb8072" stroke="black" points="505.51,-214.8 274.49,-214.8 274.49,-178.8 505.51,-178.8 505.51,-214.8"/>
<text text-anchor="middle" x="390" y="-192.6" font-family="Times,serif" font-size="14.00">ReturnOrderConfirmationComponent </text>
</g>
<!-- ReturnOrderConfirmationModule&#45;&gt;ReturnOrderConfirmationComponent  -->
<g id="edge5" class="edge">
<title>ReturnOrderConfirmationModule&#45;&gt;ReturnOrderConfirmationComponent </title>
<path fill="none" stroke="black" stroke-dasharray="5,2" d="M390,-149.91C390,-149.91 390,-168.79 390,-168.79"/>
<polygon fill="black" stroke="black" points="386.5,-168.79 390,-178.79 393.5,-168.79 386.5,-168.79"/>
</g>
<!-- AmendOrderActionsModule -->
<g id="node3" class="node">
<title>AmendOrderActionsModule</title>
<polygon fill="#8dd3c7" stroke="black" points="739.45,-84.8 736.45,-88.8 715.45,-88.8 712.45,-84.8 562.55,-84.8 562.55,-48.8 739.45,-48.8 739.45,-84.8"/>
<text text-anchor="middle" x="651" y="-62.6" font-family="Times,serif" font-size="14.00">AmendOrderActionsModule</text>
</g>
<!-- AmendOrderActionsModule&#45;&gt;ReturnOrderConfirmationModule -->
<g id="edge2" class="edge">
<title>AmendOrderActionsModule&#45;&gt;ReturnOrderConfirmationModule</title>
<path fill="none" stroke="black" d="M651,-84.91C651,-104.14 651,-131.8 651,-131.8 651,-131.8 502.78,-131.8 502.78,-131.8"/>
<polygon fill="black" stroke="black" points="502.78,-128.3 492.78,-131.8 502.78,-135.3 502.78,-128.3"/>
</g>
<!-- AmendOrderItemsModule -->
<g id="node4" class="node">
<title>AmendOrderItemsModule</title>
<polygon fill="#8dd3c7" stroke="black" points="544.01,-84.8 541.01,-88.8 520.01,-88.8 517.01,-84.8 379.99,-84.8 379.99,-48.8 544.01,-48.8 544.01,-84.8"/>
<text text-anchor="middle" x="462" y="-62.6" font-family="Times,serif" font-size="14.00">AmendOrderItemsModule</text>
</g>
<!-- AmendOrderItemsModule&#45;&gt;ReturnOrderConfirmationModule -->
<g id="edge3" class="edge">
<title>AmendOrderItemsModule&#45;&gt;ReturnOrderConfirmationModule</title>
<path fill="none" stroke="black" d="M436.31,-84.91C436.31,-84.91 436.31,-103.79 436.31,-103.79"/>
<polygon fill="black" stroke="black" points="432.81,-103.79 436.31,-113.79 439.81,-103.79 432.81,-103.79"/>
</g>
<!-- I18nModule -->
<g id="node5" class="node">
<title>I18nModule</title>
<polygon fill="#8dd3c7" stroke="black" points="361.71,-84.8 358.71,-88.8 337.71,-88.8 334.71,-84.8 276.29,-84.8 276.29,-48.8 361.71,-48.8 361.71,-84.8"/>
<text text-anchor="middle" x="319" y="-62.6" font-family="Times,serif" font-size="14.00">I18nModule</text>
</g>
<!-- I18nModule&#45;&gt;ReturnOrderConfirmationModule -->
<g id="edge4" class="edge">
<title>I18nModule&#45;&gt;ReturnOrderConfirmationModule</title>
<path fill="none" stroke="black" d="M324.37,-84.91C324.37,-84.91 324.37,-103.79 324.37,-103.79"/>
<polygon fill="black" stroke="black" points="320.87,-103.79 324.37,-113.79 327.87,-103.79 320.87,-103.79"/>
</g>
</g>
</svg>
