<?xml version="1.0" encoding="UTF-8" standalone="no"?>
<!DOCTYPE svg PUBLIC "-//W3C//DTD SVG 1.1//EN"
 "http://www.w3.org/Graphics/SVG/1.1/DTD/svg11.dtd">
<!-- Generated by graphviz version 2.47.3 (20210619.1520)
 -->
<!-- Title: dependencies Pages: 1 -->
<svg width="422pt" height="247pt"
 viewBox="0.00 0.00 422.00 246.80" xmlns="http://www.w3.org/2000/svg" xmlns:xlink="http://www.w3.org/1999/xlink">
<g id="graph0" class="graph" transform="scale(1 1) rotate(0) translate(4 242.8)">
<title>dependencies</title>
<polygon fill="white" stroke="transparent" points="-4,4 -4,-242.8 418,-242.8 418,4 -4,4"/>
<text text-anchor="middle" x="207" y="-8.2" font-family="sans-serif" font-size="14.00">dependencies</text>
<g id="clust1" class="cluster">
<title>cluster_ConfiguratorAddToCartButtonModule</title>
<polygon fill="none" stroke="black" stroke-dasharray="1,5" points="8,-32.8 8,-230.8 406,-230.8 406,-32.8 8,-32.8"/>
</g>
<g id="clust5" class="cluster">
<title>cluster_ConfiguratorAddToCartButtonModule_exports</title>
<polygon fill="none" stroke="black" points="69,-170.8 69,-222.8 345,-222.8 345,-170.8 69,-170.8"/>
</g>
<g id="clust4" class="cluster">
<title>cluster_ConfiguratorAddToCartButtonModule_imports</title>
<polygon fill="none" stroke="black" points="296,-40.8 296,-92.8 398,-92.8 398,-40.8 296,-40.8"/>
</g>
<g id="clust2" class="cluster">
<title>cluster_ConfiguratorAddToCartButtonModule_declarations</title>
<polygon fill="none" stroke="black" points="16,-40.8 16,-92.8 288,-92.8 288,-40.8 16,-40.8"/>
</g>
<!-- ConfiguratorAddToCartButtonComponent -->
<g id="node1" class="node">
<title>ConfiguratorAddToCartButtonComponent</title>
<polygon fill="#ffffb3" stroke="black" points="279.53,-84.8 24.47,-84.8 24.47,-48.8 279.53,-48.8 279.53,-84.8"/>
<text text-anchor="middle" x="152" y="-62.6" font-family="Times,serif" font-size="14.00">ConfiguratorAddToCartButtonComponent</text>
</g>
<!-- ConfiguratorAddToCartButtonModule -->
<g id="node2" class="node">
<title>ConfiguratorAddToCartButtonModule</title>
<polygon fill="#8dd3c7" stroke="black" points="323.74,-149.8 320.74,-153.8 299.74,-153.8 296.74,-149.8 90.26,-149.8 90.26,-113.8 323.74,-113.8 323.74,-149.8"/>
<text text-anchor="middle" x="207" y="-127.6" font-family="Times,serif" font-size="14.00">ConfiguratorAddToCartButtonModule</text>
</g>
<!-- ConfiguratorAddToCartButtonComponent&#45;&gt;ConfiguratorAddToCartButtonModule -->
<g id="edge1" class="edge">
<title>ConfiguratorAddToCartButtonComponent&#45;&gt;ConfiguratorAddToCartButtonModule</title>
<path fill="none" stroke="black" d="M184.95,-84.91C184.95,-84.91 184.95,-103.79 184.95,-103.79"/>
<polygon fill="black" stroke="black" points="181.45,-103.79 184.95,-113.79 188.45,-103.79 181.45,-103.79"/>
</g>
<!-- ConfiguratorAddToCartButtonComponent  -->
<g id="node4" class="node">
<title>ConfiguratorAddToCartButtonComponent </title>
<polygon fill="#fb8072" stroke="black" points="336.53,-214.8 77.47,-214.8 77.47,-178.8 336.53,-178.8 336.53,-214.8"/>
<text text-anchor="middle" x="207" y="-192.6" font-family="Times,serif" font-size="14.00">ConfiguratorAddToCartButtonComponent </text>
</g>
<!-- ConfiguratorAddToCartButtonModule&#45;&gt;ConfiguratorAddToCartButtonComponent  -->
<g id="edge3" class="edge">
<title>ConfiguratorAddToCartButtonModule&#45;&gt;ConfiguratorAddToCartButtonComponent </title>
<path fill="none" stroke="black" stroke-dasharray="5,2" d="M207,-149.91C207,-149.91 207,-168.79 207,-168.79"/>
<polygon fill="black" stroke="black" points="203.5,-168.79 207,-178.79 210.5,-168.79 203.5,-168.79"/>
</g>
<!-- I18nModule -->
<g id="node3" class="node">
<title>I18nModule</title>
<polygon fill="#8dd3c7" stroke="black" points="389.71,-84.8 386.71,-88.8 365.71,-88.8 362.71,-84.8 304.29,-84.8 304.29,-48.8 389.71,-48.8 389.71,-84.8"/>
<text text-anchor="middle" x="347" y="-62.6" font-family="Times,serif" font-size="14.00">I18nModule</text>
</g>
<!-- I18nModule&#45;&gt;ConfiguratorAddToCartButtonModule -->
<g id="edge2" class="edge">
<title>I18nModule&#45;&gt;ConfiguratorAddToCartButtonModule</title>
<path fill="none" stroke="black" d="M314.13,-84.91C314.13,-84.91 314.13,-103.79 314.13,-103.79"/>
<polygon fill="black" stroke="black" points="310.63,-103.79 314.13,-113.79 317.63,-103.79 310.63,-103.79"/>
</g>
</g>
</svg>
