<?xml version="1.0" encoding="UTF-8" standalone="no"?>
<!DOCTYPE svg PUBLIC "-//W3C//DTD SVG 1.1//EN"
 "http://www.w3.org/Graphics/SVG/1.1/DTD/svg11.dtd">
<!-- Generated by graphviz version 2.40.1 (20161225.0304)
 -->
<!-- Title: dependencies Pages: 1 -->
<svg width="504pt" height="284pt"
 viewBox="0.00 0.00 504.00 284.00" xmlns="http://www.w3.org/2000/svg" xmlns:xlink="http://www.w3.org/1999/xlink">
<g id="graph0" class="graph" transform="scale(1 1) rotate(0) translate(4 280)">
<title>dependencies</title>
<polygon fill="#ffffff" stroke="transparent" points="-4,4 -4,-280 500,-280 500,4 -4,4"/>
<text text-anchor="start" x="227.0091" y="-42.4" font-family="sans-serif" font-weight="bold" font-size="14.00" fill="#000000">Legend</text>
<polygon fill="#ffffb3" stroke="transparent" points="14,-10 14,-30 34,-30 34,-10 14,-10"/>
<text text-anchor="start" x="37.629" y="-15.4" font-family="sans-serif" font-size="14.00" fill="#000000"> &#160;Declarations</text>
<polygon fill="#8dd3c7" stroke="transparent" points="127,-10 127,-30 147,-30 147,-10 127,-10"/>
<text text-anchor="start" x="150.7251" y="-15.4" font-family="sans-serif" font-size="14.00" fill="#000000"> &#160;Module</text>
<polygon fill="#80b1d3" stroke="transparent" points="213,-10 213,-30 233,-30 233,-10 213,-10"/>
<text text-anchor="start" x="236.7812" y="-15.4" font-family="sans-serif" font-size="14.00" fill="#000000"> &#160;Bootstrap</text>
<polygon fill="#fdb462" stroke="transparent" points="310,-10 310,-30 330,-30 330,-10 310,-10"/>
<text text-anchor="start" x="333.6732" y="-15.4" font-family="sans-serif" font-size="14.00" fill="#000000"> &#160;Providers</text>
<polygon fill="#fb8072" stroke="transparent" points="406,-10 406,-30 426,-30 426,-10 406,-10"/>
<text text-anchor="start" x="429.7258" y="-15.4" font-family="sans-serif" font-size="14.00" fill="#000000"> &#160;Exports</text>
<g id="clust1" class="cluster">
<title>cluster_ConfiguratorAddToCartButtonModule</title>
<polygon fill="none" stroke="#000000" stroke-dasharray="1,5" points="49,-70 49,-268 447,-268 447,-70 49,-70"/>
</g>
<g id="clust2" class="cluster">
<title>cluster_ConfiguratorAddToCartButtonModule_declarations</title>
<polygon fill="none" stroke="#000000" points="167,-78 167,-130 439,-130 439,-78 167,-78"/>
</g>
<g id="clust4" class="cluster">
<title>cluster_ConfiguratorAddToCartButtonModule_imports</title>
<polygon fill="none" stroke="#000000" points="57,-78 57,-130 159,-130 159,-78 57,-78"/>
</g>
<g id="clust5" class="cluster">
<title>cluster_ConfiguratorAddToCartButtonModule_exports</title>
<polygon fill="none" stroke="#000000" points="110,-208 110,-260 386,-260 386,-208 110,-208"/>
</g>
<!-- ConfiguratorAddToCartButtonComponent -->
<g id="node1" class="node">
<title>ConfiguratorAddToCartButtonComponent</title>
<polygon fill="#ffffb3" stroke="#000000" points="430.5264,-122 175.4736,-122 175.4736,-86 430.5264,-86 430.5264,-122"/>
<text text-anchor="middle" x="303" y="-99.8" font-family="Times,serif" font-size="14.00" fill="#000000">ConfiguratorAddToCartButtonComponent</text>
</g>
<!-- ConfiguratorAddToCartButtonModule -->
<g id="node2" class="node">
<title>ConfiguratorAddToCartButtonModule</title>
<polygon fill="#8dd3c7" stroke="#000000" points="364.7435,-187 361.7435,-191 340.7435,-191 337.7435,-187 131.2565,-187 131.2565,-151 364.7435,-151 364.7435,-187"/>
<text text-anchor="middle" x="248" y="-164.8" font-family="Times,serif" font-size="14.00" fill="#000000">ConfiguratorAddToCartButtonModule</text>
</g>
<!-- ConfiguratorAddToCartButtonComponent&#45;&gt;ConfiguratorAddToCartButtonModule -->
<g id="edge1" class="edge">
<title>ConfiguratorAddToCartButtonComponent&#45;&gt;ConfiguratorAddToCartButtonModule</title>
<path fill="none" stroke="#000000" d="M270.0544,-122.1061C270.0544,-122.1061 270.0544,-140.991 270.0544,-140.991"/>
<polygon fill="#000000" stroke="#000000" points="266.5544,-140.9909 270.0544,-150.991 273.5544,-140.991 266.5544,-140.9909"/>
</g>
<!-- ConfiguratorAddToCartButtonComponent  -->
<g id="node4" class="node">
<title>ConfiguratorAddToCartButtonComponent </title>
<polygon fill="#fb8072" stroke="#000000" points="377.526,-252 118.474,-252 118.474,-216 377.526,-216 377.526,-252"/>
<text text-anchor="middle" x="248" y="-229.8" font-family="Times,serif" font-size="14.00" fill="#000000">ConfiguratorAddToCartButtonComponent </text>
</g>
<!-- ConfiguratorAddToCartButtonModule&#45;&gt;ConfiguratorAddToCartButtonComponent  -->
<g id="edge3" class="edge">
<title>ConfiguratorAddToCartButtonModule&#45;&gt;ConfiguratorAddToCartButtonComponent </title>
<path fill="none" stroke="#000000" stroke-dasharray="5,2" d="M248,-187.1061C248,-187.1061 248,-205.991 248,-205.991"/>
<polygon fill="#000000" stroke="#000000" points="244.5001,-205.9909 248,-215.991 251.5001,-205.991 244.5001,-205.9909"/>
</g>
<!-- I18nModule -->
<g id="node3" class="node">
<title>I18nModule</title>
<polygon fill="#8dd3c7" stroke="#000000" points="150.7107,-122 147.7107,-126 126.7107,-126 123.7107,-122 65.2893,-122 65.2893,-86 150.7107,-86 150.7107,-122"/>
<text text-anchor="middle" x="108" y="-99.8" font-family="Times,serif" font-size="14.00" fill="#000000">I18nModule</text>
</g>
<!-- I18nModule&#45;&gt;ConfiguratorAddToCartButtonModule -->
<g id="edge2" class="edge">
<title>I18nModule&#45;&gt;ConfiguratorAddToCartButtonModule</title>
<path fill="none" stroke="#000000" d="M140.8668,-122.1061C140.8668,-122.1061 140.8668,-140.991 140.8668,-140.991"/>
<polygon fill="#000000" stroke="#000000" points="137.3668,-140.9909 140.8668,-150.991 144.3668,-140.991 137.3668,-140.9909"/>
</g>
</g>
</svg>
