<?xml version="1.0" encoding="UTF-8" standalone="no"?>
<!DOCTYPE svg PUBLIC "-//W3C//DTD SVG 1.1//EN"
 "http://www.w3.org/Graphics/SVG/1.1/DTD/svg11.dtd">
<!-- Generated by graphviz version 2.47.3 (20210619.1520)
 -->
<!-- Title: dependencies Pages: 1 -->
<svg width="650pt" height="174pt"
 viewBox="0.00 0.00 650.00 173.80" xmlns="http://www.w3.org/2000/svg" xmlns:xlink="http://www.w3.org/1999/xlink">
<g id="graph0" class="graph" transform="scale(1 1) rotate(0) translate(4 169.8)">
<title>dependencies</title>
<polygon fill="white" stroke="transparent" points="-4,4 -4,-169.8 646,-169.8 646,4 -4,4"/>
<text text-anchor="middle" x="321" y="-8.2" font-family="sans-serif" font-size="14.00">dependencies</text>
<g id="clust1" class="cluster">
<title>cluster_ProfileTagModule</title>
<polygon fill="none" stroke="black" stroke-dasharray="1,5" points="8,-32.8 8,-157.8 634,-157.8 634,-32.8 8,-32.8"/>
</g>
<g id="clust3" class="cluster">
<title>cluster_ProfileTagModule_imports</title>
<polygon fill="none" stroke="black" points="464,-40.8 464,-92.8 626,-92.8 626,-40.8 464,-40.8"/>
</g>
<g id="clust6" class="cluster">
<title>cluster_ProfileTagModule_providers</title>
<polygon fill="none" stroke="black" points="16,-40.8 16,-92.8 456,-92.8 456,-40.8 16,-40.8"/>
</g>
<!-- ProfileTagCmsModule -->
<g id="node1" class="node">
<title>ProfileTagCmsModule</title>
<polygon fill="#8dd3c7" stroke="black" points="617.59,-84.8 614.59,-88.8 593.59,-88.8 590.59,-84.8 472.41,-84.8 472.41,-48.8 617.59,-48.8 617.59,-84.8"/>
<text text-anchor="middle" x="545" y="-62.6" font-family="Times,serif" font-size="14.00">ProfileTagCmsModule</text>
</g>
<!-- ProfileTagModule -->
<g id="node2" class="node">
<title>ProfileTagModule</title>
<polygon fill="#8dd3c7" stroke="black" points="383.92,-149.8 380.92,-153.8 359.92,-153.8 356.92,-149.8 264.08,-149.8 264.08,-113.8 383.92,-113.8 383.92,-149.8"/>
<text text-anchor="middle" x="324" y="-127.6" font-family="Times,serif" font-size="14.00">ProfileTagModule</text>
</g>
<!-- ProfileTagCmsModule&#45;&gt;ProfileTagModule -->
<g id="edge1" class="edge">
<title>ProfileTagCmsModule&#45;&gt;ProfileTagModule</title>
<path fill="none" stroke="black" d="M545,-84.91C545,-104.14 545,-131.8 545,-131.8 545,-131.8 393.81,-131.8 393.81,-131.8"/>
<polygon fill="black" stroke="black" points="393.81,-128.3 383.81,-131.8 393.81,-135.3 393.81,-128.3"/>
</g>
<!-- ConsentReferenceInterceptor -->
<g id="node3" class="node">
<title>ConsentReferenceInterceptor</title>
<ellipse fill="#fdb462" stroke="black" cx="324" cy="-66.8" rx="124.35" ry="18"/>
<text text-anchor="middle" x="324" y="-62.6" font-family="Times,serif" font-size="14.00">ConsentReferenceInterceptor</text>
</g>
<!-- ConsentReferenceInterceptor&#45;&gt;ProfileTagModule -->
<g id="edge2" class="edge">
<title>ConsentReferenceInterceptor&#45;&gt;ProfileTagModule</title>
<path fill="none" stroke="black" d="M324,-84.91C324,-84.91 324,-103.79 324,-103.79"/>
<polygon fill="black" stroke="black" points="320.5,-103.79 324,-113.79 327.5,-103.79 320.5,-103.79"/>
</g>
<!-- DebugInterceptor -->
<g id="node4" class="node">
<title>DebugInterceptor</title>
<ellipse fill="#fdb462" stroke="black" cx="103" cy="-66.8" rx="79.27" ry="18"/>
<text text-anchor="middle" x="103" y="-62.6" font-family="Times,serif" font-size="14.00">DebugInterceptor</text>
</g>
<!-- DebugInterceptor&#45;&gt;ProfileTagModule -->
<g id="edge3" class="edge">
<title>DebugInterceptor&#45;&gt;ProfileTagModule</title>
<path fill="none" stroke="black" d="M103,-84.91C103,-104.14 103,-131.8 103,-131.8 103,-131.8 254.19,-131.8 254.19,-131.8"/>
<polygon fill="black" stroke="black" points="254.19,-135.3 264.19,-131.8 254.19,-128.3 254.19,-135.3"/>
</g>
</g>
</svg>
