<?xml version="1.0" encoding="UTF-8" standalone="no"?>
<!DOCTYPE svg PUBLIC "-//W3C//DTD SVG 1.1//EN"
 "http://www.w3.org/Graphics/SVG/1.1/DTD/svg11.dtd">
<!-- Generated by graphviz version 2.44.1 (20200629.0846)
 -->
<!-- Title: dependencies Pages: 1 -->
<svg width="650pt" height="211pt"
 viewBox="0.00 0.00 650.00 211.00" xmlns="http://www.w3.org/2000/svg" xmlns:xlink="http://www.w3.org/1999/xlink">
<g id="graph0" class="graph" transform="scale(1 1) rotate(0) translate(4 207)">
<title>dependencies</title>
<polygon fill="white" stroke="transparent" points="-4,4 -4,-207 646,-207 646,4 -4,4"/>
<text text-anchor="start" x="300.01" y="-42.4" font-family="sans-serif" font-weight="bold" font-size="14.00">Legend</text>
<polygon fill="#ffffb3" stroke="transparent" points="87,-10 87,-30 107,-30 107,-10 87,-10"/>
<text text-anchor="start" x="110.63" y="-15.4" font-family="sans-serif" font-size="14.00"> &#160;Declarations</text>
<polygon fill="#8dd3c7" stroke="transparent" points="200,-10 200,-30 220,-30 220,-10 200,-10"/>
<text text-anchor="start" x="223.73" y="-15.4" font-family="sans-serif" font-size="14.00"> &#160;Module</text>
<polygon fill="#80b1d3" stroke="transparent" points="286,-10 286,-30 306,-30 306,-10 286,-10"/>
<text text-anchor="start" x="309.78" y="-15.4" font-family="sans-serif" font-size="14.00"> &#160;Bootstrap</text>
<polygon fill="#fdb462" stroke="transparent" points="383,-10 383,-30 403,-30 403,-10 383,-10"/>
<text text-anchor="start" x="406.67" y="-15.4" font-family="sans-serif" font-size="14.00"> &#160;Providers</text>
<polygon fill="#fb8072" stroke="transparent" points="479,-10 479,-30 499,-30 499,-10 479,-10"/>
<text text-anchor="start" x="502.73" y="-15.4" font-family="sans-serif" font-size="14.00"> &#160;Exports</text>
<g id="clust1" class="cluster">
<title>cluster_ProfileTagModule</title>
<polygon fill="none" stroke="black" stroke-dasharray="1,5" points="8,-70 8,-195 634,-195 634,-70 8,-70"/>
</g>
<g id="clust3" class="cluster">
<title>cluster_ProfileTagModule_imports</title>
<polygon fill="none" stroke="black" points="464,-78 464,-130 626,-130 626,-78 464,-78"/>
</g>
<g id="clust6" class="cluster">
<title>cluster_ProfileTagModule_providers</title>
<polygon fill="none" stroke="black" points="16,-78 16,-130 456,-130 456,-78 16,-78"/>
</g>
<!-- ProfileTagCmsModule -->
<g id="node1" class="node">
<title>ProfileTagCmsModule</title>
<polygon fill="#8dd3c7" stroke="black" points="617.59,-122 614.59,-126 593.59,-126 590.59,-122 472.41,-122 472.41,-86 617.59,-86 617.59,-122"/>
<text text-anchor="middle" x="545" y="-99.8" font-family="Times,serif" font-size="14.00">ProfileTagCmsModule</text>
</g>
<!-- ProfileTagModule -->
<g id="node2" class="node">
<title>ProfileTagModule</title>
<polygon fill="#8dd3c7" stroke="black" points="383.92,-187 380.92,-191 359.92,-191 356.92,-187 264.08,-187 264.08,-151 383.92,-151 383.92,-187"/>
<text text-anchor="middle" x="324" y="-164.8" font-family="Times,serif" font-size="14.00">ProfileTagModule</text>
</g>
<!-- ProfileTagCmsModule&#45;&gt;ProfileTagModule -->
<g id="edge1" class="edge">
<title>ProfileTagCmsModule&#45;&gt;ProfileTagModule</title>
<path fill="none" stroke="black" d="M545,-122.11C545,-141.34 545,-169 545,-169 545,-169 393.81,-169 393.81,-169"/>
<polygon fill="black" stroke="black" points="393.81,-165.5 383.81,-169 393.81,-172.5 393.81,-165.5"/>
</g>
<!-- ConsentReferenceInterceptor -->
<g id="node3" class="node">
<title>ConsentReferenceInterceptor</title>
<ellipse fill="#fdb462" stroke="black" cx="324" cy="-104" rx="124.35" ry="18"/>
<text text-anchor="middle" x="324" y="-99.8" font-family="Times,serif" font-size="14.00">ConsentReferenceInterceptor</text>
</g>
<!-- ConsentReferenceInterceptor&#45;&gt;ProfileTagModule -->
<g id="edge2" class="edge">
<title>ConsentReferenceInterceptor&#45;&gt;ProfileTagModule</title>
<path fill="none" stroke="black" d="M324,-122.11C324,-122.11 324,-140.99 324,-140.99"/>
<polygon fill="black" stroke="black" points="320.5,-140.99 324,-150.99 327.5,-140.99 320.5,-140.99"/>
</g>
<!-- DebugInterceptor -->
<g id="node4" class="node">
<title>DebugInterceptor</title>
<ellipse fill="#fdb462" stroke="black" cx="103" cy="-104" rx="79.27" ry="18"/>
<text text-anchor="middle" x="103" y="-99.8" font-family="Times,serif" font-size="14.00">DebugInterceptor</text>
</g>
<!-- DebugInterceptor&#45;&gt;ProfileTagModule -->
<g id="edge3" class="edge">
<title>DebugInterceptor&#45;&gt;ProfileTagModule</title>
<path fill="none" stroke="black" d="M103,-122.11C103,-141.34 103,-169 103,-169 103,-169 254.19,-169 254.19,-169"/>
<polygon fill="black" stroke="black" points="254.19,-172.5 264.19,-169 254.19,-165.5 254.19,-172.5"/>
</g>
</g>
</svg>
