<?xml version="1.0" encoding="UTF-8" standalone="no"?>
<!DOCTYPE svg PUBLIC "-//W3C//DTD SVG 1.1//EN"
 "http://www.w3.org/Graphics/SVG/1.1/DTD/svg11.dtd">
<!-- Generated by graphviz version 2.44.1 (20200629.0846)
 -->
<!-- Title: dependencies Pages: 1 -->
<svg width="504pt" height="284pt"
 viewBox="0.00 0.00 504.00 284.00" xmlns="http://www.w3.org/2000/svg" xmlns:xlink="http://www.w3.org/1999/xlink">
<g id="graph0" class="graph" transform="scale(1 1) rotate(0) translate(4 280)">
<title>dependencies</title>
<polygon fill="white" stroke="transparent" points="-4,4 -4,-280 500,-280 500,4 -4,4"/>
<text text-anchor="start" x="227.01" y="-42.4" font-family="sans-serif" font-weight="bold" font-size="14.00">Legend</text>
<polygon fill="#ffffb3" stroke="transparent" points="14,-10 14,-30 34,-30 34,-10 14,-10"/>
<text text-anchor="start" x="37.63" y="-15.4" font-family="sans-serif" font-size="14.00"> &#160;Declarations</text>
<polygon fill="#8dd3c7" stroke="transparent" points="127,-10 127,-30 147,-30 147,-10 127,-10"/>
<text text-anchor="start" x="150.73" y="-15.4" font-family="sans-serif" font-size="14.00"> &#160;Module</text>
<polygon fill="#80b1d3" stroke="transparent" points="213,-10 213,-30 233,-30 233,-10 213,-10"/>
<text text-anchor="start" x="236.78" y="-15.4" font-family="sans-serif" font-size="14.00"> &#160;Bootstrap</text>
<polygon fill="#fdb462" stroke="transparent" points="310,-10 310,-30 330,-30 330,-10 310,-10"/>
<text text-anchor="start" x="333.67" y="-15.4" font-family="sans-serif" font-size="14.00"> &#160;Providers</text>
<polygon fill="#fb8072" stroke="transparent" points="406,-10 406,-30 426,-30 426,-10 406,-10"/>
<text text-anchor="start" x="429.73" y="-15.4" font-family="sans-serif" font-size="14.00"> &#160;Exports</text>
<g id="clust1" class="cluster">
<title>cluster_VariantColorSelectorModule</title>
<polygon fill="none" stroke="black" stroke-dasharray="1,5" points="28,-70 28,-268 468,-268 468,-70 28,-70"/>
</g>
<g id="clust5" class="cluster">
<title>cluster_VariantColorSelectorModule_exports</title>
<polygon fill="none" stroke="black" points="73,-208 73,-260 293,-260 293,-208 73,-208"/>
</g>
<g id="clust2" class="cluster">
<title>cluster_VariantColorSelectorModule_declarations</title>
<polygon fill="none" stroke="black" points="242,-78 242,-130 460,-130 460,-78 242,-78"/>
</g>
<g id="clust4" class="cluster">
<title>cluster_VariantColorSelectorModule_imports</title>
<polygon fill="none" stroke="black" points="36,-78 36,-130 234,-130 234,-78 36,-78"/>
</g>
<!-- VariantColorSelectorComponent -->
<g id="node1" class="node">
<title>VariantColorSelectorComponent</title>
<polygon fill="#ffffb3" stroke="black" points="451.57,-122 250.43,-122 250.43,-86 451.57,-86 451.57,-122"/>
<text text-anchor="middle" x="351" y="-99.8" font-family="Times,serif" font-size="14.00">VariantColorSelectorComponent</text>
</g>
<!-- VariantColorSelectorModule -->
<g id="node2" class="node">
<title>VariantColorSelectorModule</title>
<polygon fill="#8dd3c7" stroke="black" points="272.78,-187 269.78,-191 248.78,-191 245.78,-187 93.22,-187 93.22,-151 272.78,-151 272.78,-187"/>
<text text-anchor="middle" x="183" y="-164.8" font-family="Times,serif" font-size="14.00">VariantColorSelectorModule</text>
</g>
<!-- VariantColorSelectorComponent&#45;&gt;VariantColorSelectorModule -->
<g id="edge1" class="edge">
<title>VariantColorSelectorComponent&#45;&gt;VariantColorSelectorModule</title>
<path fill="none" stroke="black" d="M261.55,-122.11C261.55,-122.11 261.55,-140.99 261.55,-140.99"/>
<polygon fill="black" stroke="black" points="258.05,-140.99 261.55,-150.99 265.05,-140.99 258.05,-140.99"/>
</g>
<!-- VariantColorSelectorComponent  -->
<g id="node5" class="node">
<title>VariantColorSelectorComponent </title>
<polygon fill="#fb8072" stroke="black" points="285.07,-252 80.93,-252 80.93,-216 285.07,-216 285.07,-252"/>
<text text-anchor="middle" x="183" y="-229.8" font-family="Times,serif" font-size="14.00">VariantColorSelectorComponent </text>
</g>
<!-- VariantColorSelectorModule&#45;&gt;VariantColorSelectorComponent  -->
<g id="edge4" class="edge">
<title>VariantColorSelectorModule&#45;&gt;VariantColorSelectorComponent </title>
<path fill="none" stroke="black" stroke-dasharray="5,2" d="M183,-187.11C183,-187.11 183,-205.99 183,-205.99"/>
<polygon fill="black" stroke="black" points="179.5,-205.99 183,-215.99 186.5,-205.99 179.5,-205.99"/>
</g>
<!-- I18nModule -->
<g id="node3" class="node">
<title>I18nModule</title>
<polygon fill="#8dd3c7" stroke="black" points="225.71,-122 222.71,-126 201.71,-126 198.71,-122 140.29,-122 140.29,-86 225.71,-86 225.71,-122"/>
<text text-anchor="middle" x="183" y="-99.8" font-family="Times,serif" font-size="14.00">I18nModule</text>
</g>
<!-- I18nModule&#45;&gt;VariantColorSelectorModule -->
<g id="edge2" class="edge">
<title>I18nModule&#45;&gt;VariantColorSelectorModule</title>
<path fill="none" stroke="black" d="M183,-122.11C183,-122.11 183,-140.99 183,-140.99"/>
<polygon fill="black" stroke="black" points="179.5,-140.99 183,-150.99 186.5,-140.99 179.5,-140.99"/>
</g>
<!-- UrlModule -->
<g id="node4" class="node">
<title>UrlModule</title>
<polygon fill="#8dd3c7" stroke="black" points="122.21,-122 119.21,-126 98.21,-126 95.21,-122 43.79,-122 43.79,-86 122.21,-86 122.21,-122"/>
<text text-anchor="middle" x="83" y="-99.8" font-family="Times,serif" font-size="14.00">UrlModule</text>
</g>
<!-- UrlModule&#45;&gt;VariantColorSelectorModule -->
<g id="edge3" class="edge">
<title>UrlModule&#45;&gt;VariantColorSelectorModule</title>
<path fill="none" stroke="black" d="M107.73,-122.11C107.73,-122.11 107.73,-140.99 107.73,-140.99"/>
<polygon fill="black" stroke="black" points="104.23,-140.99 107.73,-150.99 111.23,-140.99 104.23,-140.99"/>
</g>
</g>
</svg>
