<?xml version="1.0" encoding="UTF-8" standalone="no"?>
<!DOCTYPE svg PUBLIC "-//W3C//DTD SVG 1.1//EN"
 "http://www.w3.org/Graphics/SVG/1.1/DTD/svg11.dtd">
<!-- Generated by graphviz version 2.47.3 (20210619.1520)
 -->
<!-- Title: dependencies Pages: 1 -->
<svg width="452pt" height="247pt"
 viewBox="0.00 0.00 452.00 246.80" xmlns="http://www.w3.org/2000/svg" xmlns:xlink="http://www.w3.org/1999/xlink">
<g id="graph0" class="graph" transform="scale(1 1) rotate(0) translate(4 242.8)">
<title>dependencies</title>
<polygon fill="white" stroke="transparent" points="-4,4 -4,-242.8 448,-242.8 448,4 -4,4"/>
<text text-anchor="middle" x="222" y="-8.2" font-family="sans-serif" font-size="14.00">dependencies</text>
<g id="clust1" class="cluster">
<title>cluster_DatePickerModule</title>
<polygon fill="none" stroke="black" stroke-dasharray="1,5" points="8,-32.8 8,-230.8 436,-230.8 436,-32.8 8,-32.8"/>
</g>
<g id="clust2" class="cluster">
<title>cluster_DatePickerModule_declarations</title>
<polygon fill="none" stroke="black" points="268,-40.8 268,-92.8 428,-92.8 428,-40.8 268,-40.8"/>
</g>
<g id="clust5" class="cluster">
<title>cluster_DatePickerModule_exports</title>
<polygon fill="none" stroke="black" points="108,-170.8 108,-222.8 272,-222.8 272,-170.8 108,-170.8"/>
</g>
<g id="clust4" class="cluster">
<title>cluster_DatePickerModule_imports</title>
<polygon fill="none" stroke="black" points="16,-40.8 16,-92.8 260,-92.8 260,-40.8 16,-40.8"/>
</g>
<!-- DatePickerComponent -->
<g id="node1" class="node">
<title>DatePickerComponent</title>
<polygon fill="#ffffb3" stroke="black" points="419.52,-84.8 276.48,-84.8 276.48,-48.8 419.52,-48.8 419.52,-84.8"/>
<text text-anchor="middle" x="348" y="-62.6" font-family="Times,serif" font-size="14.00">DatePickerComponent</text>
</g>
<!-- DatePickerModule -->
<g id="node2" class="node">
<title>DatePickerModule</title>
<polygon fill="#8dd3c7" stroke="black" points="250.74,-149.8 247.74,-153.8 226.74,-153.8 223.74,-149.8 129.26,-149.8 129.26,-113.8 250.74,-113.8 250.74,-149.8"/>
<text text-anchor="middle" x="190" y="-127.6" font-family="Times,serif" font-size="14.00">DatePickerModule</text>
</g>
<!-- DatePickerComponent&#45;&gt;DatePickerModule -->
<g id="edge1" class="edge">
<title>DatePickerComponent&#45;&gt;DatePickerModule</title>
<path fill="none" stroke="black" d="M348,-84.91C348,-104.14 348,-131.8 348,-131.8 348,-131.8 261.09,-131.8 261.09,-131.8"/>
<polygon fill="black" stroke="black" points="261.09,-128.3 251.09,-131.8 261.09,-135.3 261.09,-128.3"/>
</g>
<!-- DatePickerComponent  -->
<g id="node5" class="node">
<title>DatePickerComponent </title>
<polygon fill="#fb8072" stroke="black" points="263.52,-214.8 116.48,-214.8 116.48,-178.8 263.52,-178.8 263.52,-214.8"/>
<text text-anchor="middle" x="190" y="-192.6" font-family="Times,serif" font-size="14.00">DatePickerComponent </text>
</g>
<!-- DatePickerModule&#45;&gt;DatePickerComponent  -->
<g id="edge4" class="edge">
<title>DatePickerModule&#45;&gt;DatePickerComponent </title>
<path fill="none" stroke="black" stroke-dasharray="5,2" d="M190,-149.91C190,-149.91 190,-168.79 190,-168.79"/>
<polygon fill="black" stroke="black" points="186.5,-168.79 190,-178.79 193.5,-168.79 186.5,-168.79"/>
</g>
<!-- FormErrorsModule -->
<g id="node3" class="node">
<title>FormErrorsModule</title>
<polygon fill="#8dd3c7" stroke="black" points="252.36,-84.8 249.36,-88.8 228.36,-88.8 225.36,-84.8 127.64,-84.8 127.64,-48.8 252.36,-48.8 252.36,-84.8"/>
<text text-anchor="middle" x="190" y="-62.6" font-family="Times,serif" font-size="14.00">FormErrorsModule</text>
</g>
<!-- FormErrorsModule&#45;&gt;DatePickerModule -->
<g id="edge2" class="edge">
<title>FormErrorsModule&#45;&gt;DatePickerModule</title>
<path fill="none" stroke="black" d="M190,-84.91C190,-84.91 190,-103.79 190,-103.79"/>
<polygon fill="black" stroke="black" points="186.5,-103.79 190,-113.79 193.5,-103.79 186.5,-103.79"/>
</g>
<!-- I18nModule -->
<g id="node4" class="node">
<title>I18nModule</title>
<polygon fill="#8dd3c7" stroke="black" points="109.71,-84.8 106.71,-88.8 85.71,-88.8 82.71,-84.8 24.29,-84.8 24.29,-48.8 109.71,-48.8 109.71,-84.8"/>
<text text-anchor="middle" x="67" y="-62.6" font-family="Times,serif" font-size="14.00">I18nModule</text>
</g>
<!-- I18nModule&#45;&gt;DatePickerModule -->
<g id="edge3" class="edge">
<title>I18nModule&#45;&gt;DatePickerModule</title>
<path fill="none" stroke="black" d="M67,-84.91C67,-104.14 67,-131.8 67,-131.8 67,-131.8 119.22,-131.8 119.22,-131.8"/>
<polygon fill="black" stroke="black" points="119.22,-135.3 129.22,-131.8 119.22,-128.3 119.22,-135.3"/>
</g>
</g>
</svg>
