<?xml version="1.0" encoding="UTF-8" standalone="no"?>
<!DOCTYPE svg PUBLIC "-//W3C//DTD SVG 1.1//EN"
 "http://www.w3.org/Graphics/SVG/1.1/DTD/svg11.dtd">
<!-- Generated by graphviz version 2.40.1 (20161225.0304)
 -->
<!-- Title: dependencies Pages: 1 -->
<svg width="738pt" height="284pt"
 viewBox="0.00 0.00 738.00 284.00" xmlns="http://www.w3.org/2000/svg" xmlns:xlink="http://www.w3.org/1999/xlink">
<g id="graph0" class="graph" transform="scale(1 1) rotate(0) translate(4 280)">
<title>dependencies</title>
<polygon fill="#ffffff" stroke="transparent" points="-4,4 -4,-280 734,-280 734,4 -4,4"/>
<text text-anchor="start" x="344.0091" y="-42.4" font-family="sans-serif" font-weight="bold" font-size="14.00" fill="#000000">Legend</text>
<polygon fill="#ffffb3" stroke="transparent" points="131,-10 131,-30 151,-30 151,-10 131,-10"/>
<text text-anchor="start" x="154.629" y="-15.4" font-family="sans-serif" font-size="14.00" fill="#000000"> &#160;Declarations</text>
<polygon fill="#8dd3c7" stroke="transparent" points="244,-10 244,-30 264,-30 264,-10 244,-10"/>
<text text-anchor="start" x="267.7251" y="-15.4" font-family="sans-serif" font-size="14.00" fill="#000000"> &#160;Module</text>
<polygon fill="#80b1d3" stroke="transparent" points="330,-10 330,-30 350,-30 350,-10 330,-10"/>
<text text-anchor="start" x="353.7812" y="-15.4" font-family="sans-serif" font-size="14.00" fill="#000000"> &#160;Bootstrap</text>
<polygon fill="#fdb462" stroke="transparent" points="427,-10 427,-30 447,-30 447,-10 427,-10"/>
<text text-anchor="start" x="450.6732" y="-15.4" font-family="sans-serif" font-size="14.00" fill="#000000"> &#160;Providers</text>
<polygon fill="#fb8072" stroke="transparent" points="523,-10 523,-30 543,-30 543,-10 523,-10"/>
<text text-anchor="start" x="546.7258" y="-15.4" font-family="sans-serif" font-size="14.00" fill="#000000"> &#160;Exports</text>
<g id="clust1" class="cluster">
<title>cluster_RegisterComponentModule</title>
<polygon fill="none" stroke="#000000" stroke-dasharray="1,5" points="8,-70 8,-268 722,-268 722,-70 8,-70"/>
</g>
<g id="clust2" class="cluster">
<title>cluster_RegisterComponentModule_declarations</title>
<polygon fill="none" stroke="#000000" points="570,-78 570,-130 714,-130 714,-78 570,-78"/>
</g>
<g id="clust4" class="cluster">
<title>cluster_RegisterComponentModule_imports</title>
<polygon fill="none" stroke="#000000" points="16,-78 16,-130 562,-130 562,-78 16,-78"/>
</g>
<g id="clust5" class="cluster">
<title>cluster_RegisterComponentModule_exports</title>
<polygon fill="none" stroke="#000000" points="267,-208 267,-260 415,-260 415,-208 267,-208"/>
</g>
<!-- RegisterComponent -->
<g id="node1" class="node">
<title>RegisterComponent</title>
<polygon fill="#ffffb3" stroke="#000000" points="705.9846,-122 578.0154,-122 578.0154,-86 705.9846,-86 705.9846,-122"/>
<text text-anchor="middle" x="642" y="-99.8" font-family="Times,serif" font-size="14.00" fill="#000000">RegisterComponent</text>
</g>
<!-- RegisterComponentModule -->
<g id="node2" class="node">
<title>RegisterComponentModule</title>
<polygon fill="#8dd3c7" stroke="#000000" points="426.535,-187 423.535,-191 402.535,-191 399.535,-187 255.465,-187 255.465,-151 426.535,-151 426.535,-187"/>
<text text-anchor="middle" x="341" y="-164.8" font-family="Times,serif" font-size="14.00" fill="#000000">RegisterComponentModule</text>
</g>
<!-- RegisterComponent&#45;&gt;RegisterComponentModule -->
<g id="edge1" class="edge">
<title>RegisterComponent&#45;&gt;RegisterComponentModule</title>
<path fill="none" stroke="#000000" d="M642,-122.2843C642,-143.3211 642,-175 642,-175 642,-175 436.8517,-175 436.8517,-175"/>
<polygon fill="#000000" stroke="#000000" points="436.8517,-171.5001 426.8517,-175 436.8517,-178.5001 436.8517,-171.5001"/>
</g>
<!-- RegisterComponent  -->
<g id="node8" class="node">
<title>RegisterComponent </title>
<polygon fill="#fb8072" stroke="#000000" points="406.9855,-252 275.0145,-252 275.0145,-216 406.9855,-216 406.9855,-252"/>
<text text-anchor="middle" x="341" y="-229.8" font-family="Times,serif" font-size="14.00" fill="#000000">RegisterComponent </text>
</g>
<!-- RegisterComponentModule&#45;&gt;RegisterComponent  -->
<g id="edge7" class="edge">
<title>RegisterComponentModule&#45;&gt;RegisterComponent </title>
<path fill="none" stroke="#000000" stroke-dasharray="5,2" d="M341,-187.1061C341,-187.1061 341,-205.991 341,-205.991"/>
<polygon fill="#000000" stroke="#000000" points="337.5001,-205.9909 341,-215.991 344.5001,-205.991 337.5001,-205.9909"/>
</g>
<!-- ConfigModule -->
<g id="node3" class="node">
<title>ConfigModule</title>
<polygon fill="#8dd3c7" stroke="#000000" points="554.4386,-122 551.4386,-126 530.4386,-126 527.4386,-122 455.5614,-122 455.5614,-86 554.4386,-86 554.4386,-122"/>
<text text-anchor="middle" x="505" y="-99.8" font-family="Times,serif" font-size="14.00" fill="#000000">ConfigModule</text>
</g>
<!-- ConfigModule&#45;&gt;RegisterComponentModule -->
<g id="edge2" class="edge">
<title>ConfigModule&#45;&gt;RegisterComponentModule</title>
<path fill="none" stroke="#000000" d="M505,-122.0225C505,-139.3734 505,-163 505,-163 505,-163 436.8425,-163 436.8425,-163"/>
<polygon fill="#000000" stroke="#000000" points="436.8425,-159.5001 426.8425,-163 436.8425,-166.5001 436.8425,-159.5001"/>
</g>
<!-- I18nModule -->
<g id="node4" class="node">
<title>I18nModule</title>
<polygon fill="#8dd3c7" stroke="#000000" points="437.7107,-122 434.7107,-126 413.7107,-126 410.7107,-122 352.2893,-122 352.2893,-86 437.7107,-86 437.7107,-122"/>
<text text-anchor="middle" x="395" y="-99.8" font-family="Times,serif" font-size="14.00" fill="#000000">I18nModule</text>
</g>
<!-- I18nModule&#45;&gt;RegisterComponentModule -->
<g id="edge3" class="edge">
<title>I18nModule&#45;&gt;RegisterComponentModule</title>
<path fill="none" stroke="#000000" d="M389.581,-122.1061C389.581,-122.1061 389.581,-140.991 389.581,-140.991"/>
<polygon fill="#000000" stroke="#000000" points="386.0811,-140.9909 389.581,-150.991 393.0811,-140.991 386.0811,-140.9909"/>
</g>
<!-- LoginModule -->
<g id="node5" class="node">
<title>LoginModule</title>
<polygon fill="#8dd3c7" stroke="#000000" points="334.493,-122 331.493,-126 310.493,-126 307.493,-122 241.507,-122 241.507,-86 334.493,-86 334.493,-122"/>
<text text-anchor="middle" x="288" y="-99.8" font-family="Times,serif" font-size="14.00" fill="#000000">LoginModule</text>
</g>
<!-- LoginModule&#45;&gt;RegisterComponentModule -->
<g id="edge4" class="edge">
<title>LoginModule&#45;&gt;RegisterComponentModule</title>
<path fill="none" stroke="#000000" d="M294.8647,-122.1061C294.8647,-122.1061 294.8647,-140.991 294.8647,-140.991"/>
<polygon fill="#000000" stroke="#000000" points="291.3647,-140.9909 294.8647,-150.991 298.3647,-140.991 291.3647,-140.9909"/>
</g>
<!-- SpinnerModule -->
<g id="node6" class="node">
<title>SpinnerModule</title>
<polygon fill="#8dd3c7" stroke="#000000" points="223.5982,-122 220.5982,-126 199.5982,-126 196.5982,-122 120.4018,-122 120.4018,-86 223.5982,-86 223.5982,-122"/>
<text text-anchor="middle" x="172" y="-99.8" font-family="Times,serif" font-size="14.00" fill="#000000">SpinnerModule</text>
</g>
<!-- SpinnerModule&#45;&gt;RegisterComponentModule -->
<g id="edge5" class="edge">
<title>SpinnerModule&#45;&gt;RegisterComponentModule</title>
<path fill="none" stroke="#000000" d="M172,-122.0225C172,-139.3734 172,-163 172,-163 172,-163 245.0147,-163 245.0147,-163"/>
<polygon fill="#000000" stroke="#000000" points="245.0148,-166.5001 255.0147,-163 245.0147,-159.5001 245.0148,-166.5001"/>
</g>
<!-- UrlModule -->
<g id="node7" class="node">
<title>UrlModule</title>
<polygon fill="#8dd3c7" stroke="#000000" points="102.2079,-122 99.2079,-126 78.2079,-126 75.2079,-122 23.7921,-122 23.7921,-86 102.2079,-86 102.2079,-122"/>
<text text-anchor="middle" x="63" y="-99.8" font-family="Times,serif" font-size="14.00" fill="#000000">UrlModule</text>
</g>
<!-- UrlModule&#45;&gt;RegisterComponentModule -->
<g id="edge6" class="edge">
<title>UrlModule&#45;&gt;RegisterComponentModule</title>
<path fill="none" stroke="#000000" d="M63,-122.2843C63,-143.3211 63,-175 63,-175 63,-175 245.3224,-175 245.3224,-175"/>
<polygon fill="#000000" stroke="#000000" points="245.3225,-178.5001 255.3224,-175 245.3224,-171.5001 245.3225,-178.5001"/>
</g>
</g>
</svg>
