<?xml version="1.0" encoding="UTF-8" standalone="no"?>
<!DOCTYPE svg PUBLIC "-//W3C//DTD SVG 1.1//EN"
 "http://www.w3.org/Graphics/SVG/1.1/DTD/svg11.dtd">
<!-- Generated by graphviz version 2.40.1 (20161225.0304)
 -->
<!-- Title: dependencies Pages: 1 -->
<svg width="622pt" height="284pt"
 viewBox="0.00 0.00 622.00 284.00" xmlns="http://www.w3.org/2000/svg" xmlns:xlink="http://www.w3.org/1999/xlink">
<g id="graph0" class="graph" transform="scale(1 1) rotate(0) translate(4 280)">
<title>dependencies</title>
<polygon fill="#ffffff" stroke="transparent" points="-4,4 -4,-280 618,-280 618,4 -4,4"/>
<text text-anchor="start" x="286.0091" y="-42.4" font-family="sans-serif" font-weight="bold" font-size="14.00" fill="#000000">Legend</text>
<polygon fill="#ffffb3" stroke="transparent" points="73,-10 73,-30 93,-30 93,-10 73,-10"/>
<text text-anchor="start" x="96.629" y="-15.4" font-family="sans-serif" font-size="14.00" fill="#000000"> &#160;Declarations</text>
<polygon fill="#8dd3c7" stroke="transparent" points="186,-10 186,-30 206,-30 206,-10 186,-10"/>
<text text-anchor="start" x="209.7251" y="-15.4" font-family="sans-serif" font-size="14.00" fill="#000000"> &#160;Module</text>
<polygon fill="#80b1d3" stroke="transparent" points="272,-10 272,-30 292,-30 292,-10 272,-10"/>
<text text-anchor="start" x="295.7812" y="-15.4" font-family="sans-serif" font-size="14.00" fill="#000000"> &#160;Bootstrap</text>
<polygon fill="#fdb462" stroke="transparent" points="369,-10 369,-30 389,-30 389,-10 369,-10"/>
<text text-anchor="start" x="392.6732" y="-15.4" font-family="sans-serif" font-size="14.00" fill="#000000"> &#160;Providers</text>
<polygon fill="#fb8072" stroke="transparent" points="465,-10 465,-30 485,-30 485,-10 465,-10"/>
<text text-anchor="start" x="488.7258" y="-15.4" font-family="sans-serif" font-size="14.00" fill="#000000"> &#160;Exports</text>
<g id="clust1" class="cluster">
<title>cluster_RegisterComponentModule</title>
<polygon fill="none" stroke="#000000" stroke-dasharray="1,5" points="8,-70 8,-268 606,-268 606,-70 8,-70"/>
</g>
<g id="clust2" class="cluster">
<title>cluster_RegisterComponentModule_declarations</title>
<polygon fill="none" stroke="#000000" points="454,-78 454,-130 598,-130 598,-78 454,-78"/>
</g>
<g id="clust4" class="cluster">
<title>cluster_RegisterComponentModule_imports</title>
<polygon fill="none" stroke="#000000" points="16,-78 16,-130 446,-130 446,-78 16,-78"/>
</g>
<g id="clust5" class="cluster">
<title>cluster_RegisterComponentModule_exports</title>
<polygon fill="none" stroke="#000000" points="214,-208 214,-260 362,-260 362,-208 214,-208"/>
</g>
<!-- RegisterComponent -->
<g id="node1" class="node">
<title>RegisterComponent</title>
<polygon fill="#ffffb3" stroke="#000000" points="589.9846,-122 462.0154,-122 462.0154,-86 589.9846,-86 589.9846,-122"/>
<text text-anchor="middle" x="526" y="-99.8" font-family="Times,serif" font-size="14.00" fill="#000000">RegisterComponent</text>
</g>
<!-- RegisterComponentModule -->
<g id="node2" class="node">
<title>RegisterComponentModule</title>
<polygon fill="#8dd3c7" stroke="#000000" points="373.535,-187 370.535,-191 349.535,-191 346.535,-187 202.465,-187 202.465,-151 373.535,-151 373.535,-187"/>
<text text-anchor="middle" x="288" y="-164.8" font-family="Times,serif" font-size="14.00" fill="#000000">RegisterComponentModule</text>
</g>
<!-- RegisterComponent&#45;&gt;RegisterComponentModule -->
<g id="edge1" class="edge">
<title>RegisterComponent&#45;&gt;RegisterComponentModule</title>
<path fill="none" stroke="#000000" d="M526,-122.1061C526,-141.3391 526,-169 526,-169 526,-169 383.5872,-169 383.5872,-169"/>
<polygon fill="#000000" stroke="#000000" points="383.5872,-165.5001 373.5872,-169 383.5872,-172.5001 383.5872,-165.5001"/>
</g>
<!-- RegisterComponent  -->
<g id="node7" class="node">
<title>RegisterComponent </title>
<polygon fill="#fb8072" stroke="#000000" points="353.9855,-252 222.0145,-252 222.0145,-216 353.9855,-216 353.9855,-252"/>
<text text-anchor="middle" x="288" y="-229.8" font-family="Times,serif" font-size="14.00" fill="#000000">RegisterComponent </text>
</g>
<!-- RegisterComponentModule&#45;&gt;RegisterComponent  -->
<g id="edge6" class="edge">
<title>RegisterComponentModule&#45;&gt;RegisterComponent </title>
<path fill="none" stroke="#000000" stroke-dasharray="5,2" d="M288,-187.1061C288,-187.1061 288,-205.991 288,-205.991"/>
<polygon fill="#000000" stroke="#000000" points="284.5001,-205.9909 288,-215.991 291.5001,-205.991 284.5001,-205.9909"/>
</g>
<!-- I18nModule -->
<g id="node3" class="node">
<title>I18nModule</title>
<polygon fill="#8dd3c7" stroke="#000000" points="437.7107,-122 434.7107,-126 413.7107,-126 410.7107,-122 352.2893,-122 352.2893,-86 437.7107,-86 437.7107,-122"/>
<text text-anchor="middle" x="395" y="-99.8" font-family="Times,serif" font-size="14.00" fill="#000000">I18nModule</text>
</g>
<!-- I18nModule&#45;&gt;RegisterComponentModule -->
<g id="edge2" class="edge">
<title>I18nModule&#45;&gt;RegisterComponentModule</title>
<path fill="none" stroke="#000000" d="M363.081,-122.1061C363.081,-122.1061 363.081,-140.991 363.081,-140.991"/>
<polygon fill="#000000" stroke="#000000" points="359.5811,-140.9909 363.081,-150.991 366.5811,-140.991 359.5811,-140.9909"/>
</g>
<!-- LoginModule -->
<g id="node4" class="node">
<title>LoginModule</title>
<polygon fill="#8dd3c7" stroke="#000000" points="334.493,-122 331.493,-126 310.493,-126 307.493,-122 241.507,-122 241.507,-86 334.493,-86 334.493,-122"/>
<text text-anchor="middle" x="288" y="-99.8" font-family="Times,serif" font-size="14.00" fill="#000000">LoginModule</text>
</g>
<!-- LoginModule&#45;&gt;RegisterComponentModule -->
<g id="edge3" class="edge">
<title>LoginModule&#45;&gt;RegisterComponentModule</title>
<path fill="none" stroke="#000000" d="M288,-122.1061C288,-122.1061 288,-140.991 288,-140.991"/>
<polygon fill="#000000" stroke="#000000" points="284.5001,-140.9909 288,-150.991 291.5001,-140.991 284.5001,-140.9909"/>
</g>
<!-- SpinnerModule -->
<g id="node5" class="node">
<title>SpinnerModule</title>
<polygon fill="#8dd3c7" stroke="#000000" points="223.5982,-122 220.5982,-126 199.5982,-126 196.5982,-122 120.4018,-122 120.4018,-86 223.5982,-86 223.5982,-122"/>
<text text-anchor="middle" x="172" y="-99.8" font-family="Times,serif" font-size="14.00" fill="#000000">SpinnerModule</text>
</g>
<!-- SpinnerModule&#45;&gt;RegisterComponentModule -->
<g id="edge4" class="edge">
<title>SpinnerModule&#45;&gt;RegisterComponentModule</title>
<path fill="none" stroke="#000000" d="M212.891,-122.1061C212.891,-122.1061 212.891,-140.991 212.891,-140.991"/>
<polygon fill="#000000" stroke="#000000" points="209.391,-140.9909 212.891,-150.991 216.391,-140.991 209.391,-140.9909"/>
</g>
<!-- UrlModule -->
<g id="node6" class="node">
<title>UrlModule</title>
<polygon fill="#8dd3c7" stroke="#000000" points="102.2079,-122 99.2079,-126 78.2079,-126 75.2079,-122 23.7921,-122 23.7921,-86 102.2079,-86 102.2079,-122"/>
<text text-anchor="middle" x="63" y="-99.8" font-family="Times,serif" font-size="14.00" fill="#000000">UrlModule</text>
</g>
<!-- UrlModule&#45;&gt;RegisterComponentModule -->
<g id="edge5" class="edge">
<title>UrlModule&#45;&gt;RegisterComponentModule</title>
<path fill="none" stroke="#000000" d="M63,-122.1061C63,-141.3391 63,-169 63,-169 63,-169 192.2953,-169 192.2953,-169"/>
<polygon fill="#000000" stroke="#000000" points="192.2953,-172.5001 202.2953,-169 192.2953,-165.5001 192.2953,-172.5001"/>
</g>
</g>
</svg>
