<?xml version="1.0" encoding="UTF-8" standalone="no"?>
<!DOCTYPE svg PUBLIC "-//W3C//DTD SVG 1.1//EN"
 "http://www.w3.org/Graphics/SVG/1.1/DTD/svg11.dtd">
<!-- Generated by graphviz version 2.40.1 (20161225.0304)
 -->
<!-- Title: dependencies Pages: 1 -->
<svg width="764pt" height="284pt"
 viewBox="0.00 0.00 764.00 284.00" xmlns="http://www.w3.org/2000/svg" xmlns:xlink="http://www.w3.org/1999/xlink">
<g id="graph0" class="graph" transform="scale(1 1) rotate(0) translate(4 280)">
<title>dependencies</title>
<polygon fill="#ffffff" stroke="transparent" points="-4,4 -4,-280 760,-280 760,4 -4,4"/>
<text text-anchor="start" x="357.0091" y="-42.4" font-family="sans-serif" font-weight="bold" font-size="14.00" fill="#000000">Legend</text>
<polygon fill="#ffffb3" stroke="transparent" points="144,-10 144,-30 164,-30 164,-10 144,-10"/>
<text text-anchor="start" x="167.629" y="-15.4" font-family="sans-serif" font-size="14.00" fill="#000000"> &#160;Declarations</text>
<polygon fill="#8dd3c7" stroke="transparent" points="257,-10 257,-30 277,-30 277,-10 257,-10"/>
<text text-anchor="start" x="280.7251" y="-15.4" font-family="sans-serif" font-size="14.00" fill="#000000"> &#160;Module</text>
<polygon fill="#80b1d3" stroke="transparent" points="343,-10 343,-30 363,-30 363,-10 343,-10"/>
<text text-anchor="start" x="366.7812" y="-15.4" font-family="sans-serif" font-size="14.00" fill="#000000"> &#160;Bootstrap</text>
<polygon fill="#fdb462" stroke="transparent" points="440,-10 440,-30 460,-30 460,-10 440,-10"/>
<text text-anchor="start" x="463.6732" y="-15.4" font-family="sans-serif" font-size="14.00" fill="#000000"> &#160;Providers</text>
<polygon fill="#fb8072" stroke="transparent" points="536,-10 536,-30 556,-30 556,-10 536,-10"/>
<text text-anchor="start" x="559.7258" y="-15.4" font-family="sans-serif" font-size="14.00" fill="#000000"> &#160;Exports</text>
<g id="clust1" class="cluster">
<title>cluster_RegisterComponentModule</title>
<polygon fill="none" stroke="#000000" stroke-dasharray="1,5" points="8,-70 8,-268 748,-268 748,-70 8,-70"/>
</g>
<g id="clust2" class="cluster">
<title>cluster_RegisterComponentModule_declarations</title>
<polygon fill="none" stroke="#000000" points="596,-78 596,-130 740,-130 740,-78 596,-78"/>
</g>
<g id="clust4" class="cluster">
<title>cluster_RegisterComponentModule_imports</title>
<polygon fill="none" stroke="#000000" points="16,-78 16,-130 588,-130 588,-78 16,-78"/>
</g>
<g id="clust5" class="cluster">
<title>cluster_RegisterComponentModule_exports</title>
<polygon fill="none" stroke="#000000" points="267,-208 267,-260 415,-260 415,-208 267,-208"/>
</g>
<!-- RegisterComponent -->
<g id="node1" class="node">
<title>RegisterComponent</title>
<polygon fill="#ffffb3" stroke="#000000" points="731.9846,-122 604.0154,-122 604.0154,-86 731.9846,-86 731.9846,-122"/>
<text text-anchor="middle" x="668" y="-99.8" font-family="Times,serif" font-size="14.00" fill="#000000">RegisterComponent</text>
</g>
<!-- RegisterComponentModule -->
<g id="node2" class="node">
<title>RegisterComponentModule</title>
<polygon fill="#8dd3c7" stroke="#000000" points="426.535,-187 423.535,-191 402.535,-191 399.535,-187 255.465,-187 255.465,-151 426.535,-151 426.535,-187"/>
<text text-anchor="middle" x="341" y="-164.8" font-family="Times,serif" font-size="14.00" fill="#000000">RegisterComponentModule</text>
</g>
<!-- RegisterComponent&#45;&gt;RegisterComponentModule -->
<g id="edge1" class="edge">
<title>RegisterComponent&#45;&gt;RegisterComponentModule</title>
<path fill="none" stroke="#000000" d="M668,-122.2843C668,-143.3211 668,-175 668,-175 668,-175 436.9154,-175 436.9154,-175"/>
<polygon fill="#000000" stroke="#000000" points="436.9154,-171.5001 426.9154,-175 436.9154,-178.5001 436.9154,-171.5001"/>
</g>
<!-- RegisterComponent  -->
<g id="node8" class="node">
<title>RegisterComponent </title>
<polygon fill="#fb8072" stroke="#000000" points="406.9855,-252 275.0145,-252 275.0145,-216 406.9855,-216 406.9855,-252"/>
<text text-anchor="middle" x="341" y="-229.8" font-family="Times,serif" font-size="14.00" fill="#000000">RegisterComponent </text>
</g>
<!-- RegisterComponentModule&#45;&gt;RegisterComponent  -->
<g id="edge7" class="edge">
<title>RegisterComponentModule&#45;&gt;RegisterComponent </title>
<path fill="none" stroke="#000000" stroke-dasharray="5,2" d="M341,-187.1061C341,-187.1061 341,-205.991 341,-205.991"/>
<polygon fill="#000000" stroke="#000000" points="337.5001,-205.9909 341,-215.991 344.5001,-205.991 337.5001,-205.9909"/>
</g>
<!-- FormErrorsModule -->
<g id="node3" class="node">
<title>FormErrorsModule</title>
<polygon fill="#8dd3c7" stroke="#000000" points="580.3627,-122 577.3627,-126 556.3627,-126 553.3627,-122 455.6373,-122 455.6373,-86 580.3627,-86 580.3627,-122"/>
<text text-anchor="middle" x="518" y="-99.8" font-family="Times,serif" font-size="14.00" fill="#000000">FormErrorsModule</text>
</g>
<!-- FormErrorsModule&#45;&gt;RegisterComponentModule -->
<g id="edge2" class="edge">
<title>FormErrorsModule&#45;&gt;RegisterComponentModule</title>
<path fill="none" stroke="#000000" d="M518,-122.0225C518,-139.3734 518,-163 518,-163 518,-163 436.6484,-163 436.6484,-163"/>
<polygon fill="#000000" stroke="#000000" points="436.6484,-159.5001 426.6484,-163 436.6484,-166.5001 436.6484,-159.5001"/>
</g>
<!-- I18nModule -->
<g id="node4" class="node">
<title>I18nModule</title>
<polygon fill="#8dd3c7" stroke="#000000" points="437.7107,-122 434.7107,-126 413.7107,-126 410.7107,-122 352.2893,-122 352.2893,-86 437.7107,-86 437.7107,-122"/>
<text text-anchor="middle" x="395" y="-99.8" font-family="Times,serif" font-size="14.00" fill="#000000">I18nModule</text>
</g>
<!-- I18nModule&#45;&gt;RegisterComponentModule -->
<g id="edge3" class="edge">
<title>I18nModule&#45;&gt;RegisterComponentModule</title>
<path fill="none" stroke="#000000" d="M389.581,-122.1061C389.581,-122.1061 389.581,-140.991 389.581,-140.991"/>
<polygon fill="#000000" stroke="#000000" points="386.0811,-140.9909 389.581,-150.991 393.0811,-140.991 386.0811,-140.9909"/>
</g>
<!-- LoginModule -->
<g id="node5" class="node">
<title>LoginModule</title>
<polygon fill="#8dd3c7" stroke="#000000" points="334.493,-122 331.493,-126 310.493,-126 307.493,-122 241.507,-122 241.507,-86 334.493,-86 334.493,-122"/>
<text text-anchor="middle" x="288" y="-99.8" font-family="Times,serif" font-size="14.00" fill="#000000">LoginModule</text>
</g>
<!-- LoginModule&#45;&gt;RegisterComponentModule -->
<g id="edge4" class="edge">
<title>LoginModule&#45;&gt;RegisterComponentModule</title>
<path fill="none" stroke="#000000" d="M294.8647,-122.1061C294.8647,-122.1061 294.8647,-140.991 294.8647,-140.991"/>
<polygon fill="#000000" stroke="#000000" points="291.3647,-140.9909 294.8647,-150.991 298.3647,-140.991 291.3647,-140.9909"/>
</g>
<!-- SpinnerModule -->
<g id="node6" class="node">
<title>SpinnerModule</title>
<polygon fill="#8dd3c7" stroke="#000000" points="223.5982,-122 220.5982,-126 199.5982,-126 196.5982,-122 120.4018,-122 120.4018,-86 223.5982,-86 223.5982,-122"/>
<text text-anchor="middle" x="172" y="-99.8" font-family="Times,serif" font-size="14.00" fill="#000000">SpinnerModule</text>
</g>
<!-- SpinnerModule&#45;&gt;RegisterComponentModule -->
<g id="edge5" class="edge">
<title>SpinnerModule&#45;&gt;RegisterComponentModule</title>
<path fill="none" stroke="#000000" d="M172,-122.0225C172,-139.3734 172,-163 172,-163 172,-163 245.0147,-163 245.0147,-163"/>
<polygon fill="#000000" stroke="#000000" points="245.0148,-166.5001 255.0147,-163 245.0147,-159.5001 245.0148,-166.5001"/>
</g>
<!-- UrlModule -->
<g id="node7" class="node">
<title>UrlModule</title>
<polygon fill="#8dd3c7" stroke="#000000" points="102.2079,-122 99.2079,-126 78.2079,-126 75.2079,-122 23.7921,-122 23.7921,-86 102.2079,-86 102.2079,-122"/>
<text text-anchor="middle" x="63" y="-99.8" font-family="Times,serif" font-size="14.00" fill="#000000">UrlModule</text>
</g>
<!-- UrlModule&#45;&gt;RegisterComponentModule -->
<g id="edge6" class="edge">
<title>UrlModule&#45;&gt;RegisterComponentModule</title>
<path fill="none" stroke="#000000" d="M63,-122.2843C63,-143.3211 63,-175 63,-175 63,-175 245.3224,-175 245.3224,-175"/>
<polygon fill="#000000" stroke="#000000" points="245.3225,-178.5001 255.3224,-175 245.3224,-171.5001 245.3225,-178.5001"/>
</g>
</g>
</svg>
