<?xml version="1.0" encoding="UTF-8" standalone="no"?>
<!DOCTYPE svg PUBLIC "-//W3C//DTD SVG 1.1//EN"
 "http://www.w3.org/Graphics/SVG/1.1/DTD/svg11.dtd">
<!-- Generated by graphviz version 2.40.1 (20161225.0304)
 -->
<!-- Title: dependencies Pages: 1 -->
<svg width="653pt" height="211pt"
 viewBox="0.00 0.00 653.00 211.00" xmlns="http://www.w3.org/2000/svg" xmlns:xlink="http://www.w3.org/1999/xlink">
<g id="graph0" class="graph" transform="scale(1 1) rotate(0) translate(4 207)">
<title>dependencies</title>
<polygon fill="#ffffff" stroke="transparent" points="-4,4 -4,-207 649,-207 649,4 -4,4"/>
<text text-anchor="start" x="301.5091" y="-42.4" font-family="sans-serif" font-weight="bold" font-size="14.00" fill="#000000">Legend</text>
<polygon fill="#ffffb3" stroke="transparent" points="88.5,-10 88.5,-30 108.5,-30 108.5,-10 88.5,-10"/>
<text text-anchor="start" x="112.129" y="-15.4" font-family="sans-serif" font-size="14.00" fill="#000000"> &#160;Declarations</text>
<polygon fill="#8dd3c7" stroke="transparent" points="201.5,-10 201.5,-30 221.5,-30 221.5,-10 201.5,-10"/>
<text text-anchor="start" x="225.2251" y="-15.4" font-family="sans-serif" font-size="14.00" fill="#000000"> &#160;Module</text>
<polygon fill="#80b1d3" stroke="transparent" points="287.5,-10 287.5,-30 307.5,-30 307.5,-10 287.5,-10"/>
<text text-anchor="start" x="311.2812" y="-15.4" font-family="sans-serif" font-size="14.00" fill="#000000"> &#160;Bootstrap</text>
<polygon fill="#fdb462" stroke="transparent" points="384.5,-10 384.5,-30 404.5,-30 404.5,-10 384.5,-10"/>
<text text-anchor="start" x="408.1732" y="-15.4" font-family="sans-serif" font-size="14.00" fill="#000000"> &#160;Providers</text>
<polygon fill="#fb8072" stroke="transparent" points="480.5,-10 480.5,-30 500.5,-30 500.5,-10 480.5,-10"/>
<text text-anchor="start" x="504.2258" y="-15.4" font-family="sans-serif" font-size="14.00" fill="#000000"> &#160;Exports</text>
<g id="clust1" class="cluster">
<title>cluster_RegisterComponentModule</title>
<polygon fill="none" stroke="#000000" stroke-dasharray="1,5" points="8,-70 8,-195 637,-195 637,-70 8,-70"/>
</g>
<g id="clust2" class="cluster">
<title>cluster_RegisterComponentModule_declarations</title>
<polygon fill="none" stroke="#000000" points="485,-78 485,-130 629,-130 629,-78 485,-78"/>
</g>
<g id="clust4" class="cluster">
<title>cluster_RegisterComponentModule_imports</title>
<polygon fill="none" stroke="#000000" points="16,-78 16,-130 477,-130 477,-78 16,-78"/>
</g>
<!-- RegisterComponent -->
<g id="node1" class="node">
<title>RegisterComponent</title>
<polygon fill="#ffffb3" stroke="#000000" points="620.9846,-122 493.0154,-122 493.0154,-86 620.9846,-86 620.9846,-122"/>
<text text-anchor="middle" x="557" y="-99.8" font-family="Times,serif" font-size="14.00" fill="#000000">RegisterComponent</text>
</g>
<!-- RegisterComponentModule -->
<g id="node2" class="node">
<title>RegisterComponentModule</title>
<polygon fill="#8dd3c7" stroke="#000000" points="369.535,-187 366.535,-191 345.535,-191 342.535,-187 198.465,-187 198.465,-151 369.535,-151 369.535,-187"/>
<text text-anchor="middle" x="284" y="-164.8" font-family="Times,serif" font-size="14.00" fill="#000000">RegisterComponentModule</text>
</g>
<!-- RegisterComponent&#45;&gt;RegisterComponentModule -->
<g id="edge1" class="edge">
<title>RegisterComponent&#45;&gt;RegisterComponentModule</title>
<path fill="none" stroke="#000000" d="M557,-122.1061C557,-141.3391 557,-169 557,-169 557,-169 379.6299,-169 379.6299,-169"/>
<polygon fill="#000000" stroke="#000000" points="379.6299,-165.5001 369.6299,-169 379.6298,-172.5001 379.6299,-165.5001"/>
</g>
<!-- FormErrorsModule -->
<g id="node3" class="node">
<title>FormErrorsModule</title>
<polygon fill="#8dd3c7" stroke="#000000" points="469.3627,-122 466.3627,-126 445.3627,-126 442.3627,-122 344.6373,-122 344.6373,-86 469.3627,-86 469.3627,-122"/>
<text text-anchor="middle" x="407" y="-99.8" font-family="Times,serif" font-size="14.00" fill="#000000">FormErrorsModule</text>
</g>
<!-- FormErrorsModule&#45;&gt;RegisterComponentModule -->
<g id="edge2" class="edge">
<title>FormErrorsModule&#45;&gt;RegisterComponentModule</title>
<path fill="none" stroke="#000000" d="M357.168,-122.1061C357.168,-122.1061 357.168,-140.991 357.168,-140.991"/>
<polygon fill="#000000" stroke="#000000" points="353.668,-140.9909 357.168,-150.991 360.668,-140.991 353.668,-140.9909"/>
</g>
<!-- I18nModule -->
<g id="node4" class="node">
<title>I18nModule</title>
<polygon fill="#8dd3c7" stroke="#000000" points="326.7107,-122 323.7107,-126 302.7107,-126 299.7107,-122 241.2893,-122 241.2893,-86 326.7107,-86 326.7107,-122"/>
<text text-anchor="middle" x="284" y="-99.8" font-family="Times,serif" font-size="14.00" fill="#000000">I18nModule</text>
</g>
<!-- I18nModule&#45;&gt;RegisterComponentModule -->
<g id="edge3" class="edge">
<title>I18nModule&#45;&gt;RegisterComponentModule</title>
<path fill="none" stroke="#000000" d="M284,-122.1061C284,-122.1061 284,-140.991 284,-140.991"/>
<polygon fill="#000000" stroke="#000000" points="280.5001,-140.9909 284,-150.991 287.5001,-140.991 280.5001,-140.9909"/>
</g>
<!-- SpinnerModule -->
<g id="node5" class="node">
<title>SpinnerModule</title>
<polygon fill="#8dd3c7" stroke="#000000" points="223.5982,-122 220.5982,-126 199.5982,-126 196.5982,-122 120.4018,-122 120.4018,-86 223.5982,-86 223.5982,-122"/>
<text text-anchor="middle" x="172" y="-99.8" font-family="Times,serif" font-size="14.00" fill="#000000">SpinnerModule</text>
</g>
<!-- SpinnerModule&#45;&gt;RegisterComponentModule -->
<g id="edge4" class="edge">
<title>SpinnerModule&#45;&gt;RegisterComponentModule</title>
<path fill="none" stroke="#000000" d="M210.891,-122.1061C210.891,-122.1061 210.891,-140.991 210.891,-140.991"/>
<polygon fill="#000000" stroke="#000000" points="207.391,-140.9909 210.891,-150.991 214.391,-140.991 207.391,-140.9909"/>
</g>
<!-- UrlModule -->
<g id="node6" class="node">
<title>UrlModule</title>
<polygon fill="#8dd3c7" stroke="#000000" points="102.2079,-122 99.2079,-126 78.2079,-126 75.2079,-122 23.7921,-122 23.7921,-86 102.2079,-86 102.2079,-122"/>
<text text-anchor="middle" x="63" y="-99.8" font-family="Times,serif" font-size="14.00" fill="#000000">UrlModule</text>
</g>
<!-- UrlModule&#45;&gt;RegisterComponentModule -->
<g id="edge5" class="edge">
<title>UrlModule&#45;&gt;RegisterComponentModule</title>
<path fill="none" stroke="#000000" d="M63,-122.1061C63,-141.3391 63,-169 63,-169 63,-169 188.2393,-169 188.2393,-169"/>
<polygon fill="#000000" stroke="#000000" points="188.2394,-172.5001 198.2393,-169 188.2393,-165.5001 188.2394,-172.5001"/>
</g>
</g>
</svg>
