<?xml version="1.0" encoding="UTF-8" standalone="no"?>
<!DOCTYPE svg PUBLIC "-//W3C//DTD SVG 1.1//EN"
 "http://www.w3.org/Graphics/SVG/1.1/DTD/svg11.dtd">
<!-- Generated by graphviz version 2.47.0 (20210316.0004)
 -->
<!-- Title: dependencies Pages: 1 -->
<svg width="653pt" height="211pt"
 viewBox="0.00 0.00 653.00 211.00" xmlns="http://www.w3.org/2000/svg" xmlns:xlink="http://www.w3.org/1999/xlink">
<g id="graph0" class="graph" transform="scale(1 1) rotate(0) translate(4 207)">
<title>dependencies</title>
<polygon fill="white" stroke="transparent" points="-4,4 -4,-207 649,-207 649,4 -4,4"/>
<text text-anchor="start" x="301.51" y="-42.4" font-family="sans-serif" font-weight="bold" font-size="14.00">Legend</text>
<polygon fill="#ffffb3" stroke="transparent" points="88.5,-10 88.5,-30 108.5,-30 108.5,-10 88.5,-10"/>
<text text-anchor="start" x="112.13" y="-15.4" font-family="sans-serif" font-size="14.00"> &#160;Declarations</text>
<polygon fill="#8dd3c7" stroke="transparent" points="201.5,-10 201.5,-30 221.5,-30 221.5,-10 201.5,-10"/>
<text text-anchor="start" x="225.23" y="-15.4" font-family="sans-serif" font-size="14.00"> &#160;Module</text>
<polygon fill="#80b1d3" stroke="transparent" points="287.5,-10 287.5,-30 307.5,-30 307.5,-10 287.5,-10"/>
<text text-anchor="start" x="311.28" y="-15.4" font-family="sans-serif" font-size="14.00"> &#160;Bootstrap</text>
<polygon fill="#fdb462" stroke="transparent" points="384.5,-10 384.5,-30 404.5,-30 404.5,-10 384.5,-10"/>
<text text-anchor="start" x="408.17" y="-15.4" font-family="sans-serif" font-size="14.00"> &#160;Providers</text>
<polygon fill="#fb8072" stroke="transparent" points="480.5,-10 480.5,-30 500.5,-30 500.5,-10 480.5,-10"/>
<text text-anchor="start" x="504.23" y="-15.4" font-family="sans-serif" font-size="14.00"> &#160;Exports</text>
<g id="clust1" class="cluster">
<title>cluster_RegisterComponentModule</title>
<polygon fill="none" stroke="black" stroke-dasharray="1,5" points="8,-70 8,-195 637,-195 637,-70 8,-70"/>
</g>
<g id="clust4" class="cluster">
<title>cluster_RegisterComponentModule_imports</title>
<polygon fill="none" stroke="black" points="168,-78 168,-130 629,-130 629,-78 168,-78"/>
</g>
<g id="clust2" class="cluster">
<title>cluster_RegisterComponentModule_declarations</title>
<polygon fill="none" stroke="black" points="16,-78 16,-130 160,-130 160,-78 16,-78"/>
</g>
<!-- RegisterComponent -->
<g id="node1" class="node">
<title>RegisterComponent</title>
<polygon fill="#ffffb3" stroke="black" points="151.98,-122 24.02,-122 24.02,-86 151.98,-86 151.98,-122"/>
<text text-anchor="middle" x="88" y="-99.8" font-family="Times,serif" font-size="14.00">RegisterComponent</text>
</g>
<!-- RegisterComponentModule -->
<g id="node2" class="node">
<title>RegisterComponentModule</title>
<polygon fill="#8dd3c7" stroke="black" points="409.54,-187 406.54,-191 385.54,-191 382.54,-187 238.46,-187 238.46,-151 409.54,-151 409.54,-187"/>
<text text-anchor="middle" x="324" y="-164.8" font-family="Times,serif" font-size="14.00">RegisterComponentModule</text>
</g>
<!-- RegisterComponent&#45;&gt;RegisterComponentModule -->
<g id="edge1" class="edge">
<title>RegisterComponent&#45;&gt;RegisterComponentModule</title>
<path fill="none" stroke="black" d="M88,-122.11C88,-141.34 88,-169 88,-169 88,-169 228.46,-169 228.46,-169"/>
<polygon fill="black" stroke="black" points="228.46,-172.5 238.46,-169 228.46,-165.5 228.46,-172.5"/>
</g>
<!-- FormErrorsModule -->
<g id="node3" class="node">
<title>FormErrorsModule</title>
<polygon fill="#8dd3c7" stroke="black" points="621.36,-122 618.36,-126 597.36,-126 594.36,-122 496.64,-122 496.64,-86 621.36,-86 621.36,-122"/>
<text text-anchor="middle" x="559" y="-99.8" font-family="Times,serif" font-size="14.00">FormErrorsModule</text>
</g>
<!-- FormErrorsModule&#45;&gt;RegisterComponentModule -->
<g id="edge2" class="edge">
<title>FormErrorsModule&#45;&gt;RegisterComponentModule</title>
<path fill="none" stroke="black" d="M559,-122.11C559,-141.34 559,-169 559,-169 559,-169 419.84,-169 419.84,-169"/>
<polygon fill="black" stroke="black" points="419.84,-165.5 409.84,-169 419.84,-172.5 419.84,-165.5"/>
</g>
<!-- I18nModule -->
<g id="node4" class="node">
<title>I18nModule</title>
<polygon fill="#8dd3c7" stroke="black" points="478.71,-122 475.71,-126 454.71,-126 451.71,-122 393.29,-122 393.29,-86 478.71,-86 478.71,-122"/>
<text text-anchor="middle" x="436" y="-99.8" font-family="Times,serif" font-size="14.00">I18nModule</text>
</g>
<!-- I18nModule&#45;&gt;RegisterComponentModule -->
<g id="edge3" class="edge">
<title>I18nModule&#45;&gt;RegisterComponentModule</title>
<path fill="none" stroke="black" d="M401.58,-122.11C401.58,-122.11 401.58,-140.99 401.58,-140.99"/>
<polygon fill="black" stroke="black" points="398.08,-140.99 401.58,-150.99 405.08,-140.99 398.08,-140.99"/>
</g>
<!-- SpinnerModule -->
<g id="node5" class="node">
<title>SpinnerModule</title>
<polygon fill="#8dd3c7" stroke="black" points="375.6,-122 372.6,-126 351.6,-126 348.6,-122 272.4,-122 272.4,-86 375.6,-86 375.6,-122"/>
<text text-anchor="middle" x="324" y="-99.8" font-family="Times,serif" font-size="14.00">SpinnerModule</text>
</g>
<!-- SpinnerModule&#45;&gt;RegisterComponentModule -->
<g id="edge4" class="edge">
<title>SpinnerModule&#45;&gt;RegisterComponentModule</title>
<path fill="none" stroke="black" d="M324,-122.11C324,-122.11 324,-140.99 324,-140.99"/>
<polygon fill="black" stroke="black" points="320.5,-140.99 324,-150.99 327.5,-140.99 320.5,-140.99"/>
</g>
<!-- UrlModule -->
<g id="node6" class="node">
<title>UrlModule</title>
<polygon fill="#8dd3c7" stroke="black" points="254.21,-122 251.21,-126 230.21,-126 227.21,-122 175.79,-122 175.79,-86 254.21,-86 254.21,-122"/>
<text text-anchor="middle" x="215" y="-99.8" font-family="Times,serif" font-size="14.00">UrlModule</text>
</g>
<!-- UrlModule&#45;&gt;RegisterComponentModule -->
<g id="edge5" class="edge">
<title>UrlModule&#45;&gt;RegisterComponentModule</title>
<path fill="none" stroke="black" d="M246.17,-122.11C246.17,-122.11 246.17,-140.99 246.17,-140.99"/>
<polygon fill="black" stroke="black" points="242.67,-140.99 246.17,-150.99 249.67,-140.99 242.67,-140.99"/>
</g>
</g>
</svg>
