<?xml version="1.0" encoding="UTF-8" standalone="no"?>
<!DOCTYPE svg PUBLIC "-//W3C//DTD SVG 1.1//EN"
 "http://www.w3.org/Graphics/SVG/1.1/DTD/svg11.dtd">
<!-- Generated by graphviz version 2.44.1 (20200629.0846)
 -->
<!-- Title: dependencies Pages: 1 -->
<svg width="571pt" height="284pt"
 viewBox="0.00 0.00 571.00 284.00" xmlns="http://www.w3.org/2000/svg" xmlns:xlink="http://www.w3.org/1999/xlink">
<g id="graph0" class="graph" transform="scale(1 1) rotate(0) translate(4 280)">
<title>dependencies</title>
<polygon fill="white" stroke="transparent" points="-4,4 -4,-280 567,-280 567,4 -4,4"/>
<text text-anchor="start" x="260.51" y="-42.4" font-family="sans-serif" font-weight="bold" font-size="14.00">Legend</text>
<polygon fill="#ffffb3" stroke="transparent" points="47.5,-10 47.5,-30 67.5,-30 67.5,-10 47.5,-10"/>
<text text-anchor="start" x="71.13" y="-15.4" font-family="sans-serif" font-size="14.00"> &#160;Declarations</text>
<polygon fill="#8dd3c7" stroke="transparent" points="160.5,-10 160.5,-30 180.5,-30 180.5,-10 160.5,-10"/>
<text text-anchor="start" x="184.23" y="-15.4" font-family="sans-serif" font-size="14.00"> &#160;Module</text>
<polygon fill="#80b1d3" stroke="transparent" points="246.5,-10 246.5,-30 266.5,-30 266.5,-10 246.5,-10"/>
<text text-anchor="start" x="270.28" y="-15.4" font-family="sans-serif" font-size="14.00"> &#160;Bootstrap</text>
<polygon fill="#fdb462" stroke="transparent" points="343.5,-10 343.5,-30 363.5,-30 363.5,-10 343.5,-10"/>
<text text-anchor="start" x="367.17" y="-15.4" font-family="sans-serif" font-size="14.00"> &#160;Providers</text>
<polygon fill="#fb8072" stroke="transparent" points="439.5,-10 439.5,-30 459.5,-30 459.5,-10 439.5,-10"/>
<text text-anchor="start" x="463.23" y="-15.4" font-family="sans-serif" font-size="14.00"> &#160;Exports</text>
<g id="clust1" class="cluster">
<title>cluster_PaymentMethodsModule</title>
<polygon fill="none" stroke="black" stroke-dasharray="1,5" points="8,-70 8,-268 555,-268 555,-70 8,-70"/>
</g>
<g id="clust4" class="cluster">
<title>cluster_PaymentMethodsModule_imports</title>
<polygon fill="none" stroke="black" points="220,-78 220,-130 547,-130 547,-78 220,-78"/>
</g>
<g id="clust2" class="cluster">
<title>cluster_PaymentMethodsModule_declarations</title>
<polygon fill="none" stroke="black" points="16,-78 16,-130 212,-130 212,-78 16,-78"/>
</g>
<g id="clust5" class="cluster">
<title>cluster_PaymentMethodsModule_exports</title>
<polygon fill="none" stroke="black" points="237,-208 237,-260 435,-260 435,-208 237,-208"/>
</g>
<!-- PaymentMethodsComponent -->
<g id="node1" class="node">
<title>PaymentMethodsComponent</title>
<polygon fill="#ffffb3" stroke="black" points="203.82,-122 24.18,-122 24.18,-86 203.82,-86 203.82,-122"/>
<text text-anchor="middle" x="114" y="-99.8" font-family="Times,serif" font-size="14.00">PaymentMethodsComponent</text>
</g>
<!-- PaymentMethodsModule -->
<g id="node2" class="node">
<title>PaymentMethodsModule</title>
<polygon fill="#8dd3c7" stroke="black" points="414.54,-187 411.54,-191 390.54,-191 387.54,-187 257.46,-187 257.46,-151 414.54,-151 414.54,-187"/>
<text text-anchor="middle" x="336" y="-164.8" font-family="Times,serif" font-size="14.00">PaymentMethodsModule</text>
</g>
<!-- PaymentMethodsComponent&#45;&gt;PaymentMethodsModule -->
<g id="edge1" class="edge">
<title>PaymentMethodsComponent&#45;&gt;PaymentMethodsModule</title>
<path fill="none" stroke="black" d="M114,-122.11C114,-141.34 114,-169 114,-169 114,-169 247.42,-169 247.42,-169"/>
<polygon fill="black" stroke="black" points="247.42,-172.5 257.42,-169 247.42,-165.5 247.42,-172.5"/>
</g>
<!-- PaymentMethodsComponent  -->
<g id="node6" class="node">
<title>PaymentMethodsComponent </title>
<polygon fill="#fb8072" stroke="black" points="427.32,-252 244.68,-252 244.68,-216 427.32,-216 427.32,-252"/>
<text text-anchor="middle" x="336" y="-229.8" font-family="Times,serif" font-size="14.00">PaymentMethodsComponent </text>
</g>
<!-- PaymentMethodsModule&#45;&gt;PaymentMethodsComponent  -->
<g id="edge5" class="edge">
<title>PaymentMethodsModule&#45;&gt;PaymentMethodsComponent </title>
<path fill="none" stroke="black" stroke-dasharray="5,2" d="M336,-187.11C336,-187.11 336,-205.99 336,-205.99"/>
<polygon fill="black" stroke="black" points="332.5,-205.99 336,-215.99 339.5,-205.99 332.5,-205.99"/>
</g>
<!-- CardModule -->
<g id="node3" class="node">
<title>CardModule</title>
<polygon fill="#8dd3c7" stroke="black" points="539.26,-122 536.26,-126 515.26,-126 512.26,-122 452.74,-122 452.74,-86 539.26,-86 539.26,-122"/>
<text text-anchor="middle" x="496" y="-99.8" font-family="Times,serif" font-size="14.00">CardModule</text>
</g>
<!-- CardModule&#45;&gt;PaymentMethodsModule -->
<g id="edge2" class="edge">
<title>CardModule&#45;&gt;PaymentMethodsModule</title>
<path fill="none" stroke="black" d="M496,-122.11C496,-141.34 496,-169 496,-169 496,-169 424.59,-169 424.59,-169"/>
<polygon fill="black" stroke="black" points="424.59,-165.5 414.59,-169 424.59,-172.5 424.59,-165.5"/>
</g>
<!-- I18nModule -->
<g id="node4" class="node">
<title>I18nModule</title>
<polygon fill="#8dd3c7" stroke="black" points="434.71,-122 431.71,-126 410.71,-126 407.71,-122 349.29,-122 349.29,-86 434.71,-86 434.71,-122"/>
<text text-anchor="middle" x="392" y="-99.8" font-family="Times,serif" font-size="14.00">I18nModule</text>
</g>
<!-- I18nModule&#45;&gt;PaymentMethodsModule -->
<g id="edge3" class="edge">
<title>I18nModule&#45;&gt;PaymentMethodsModule</title>
<path fill="none" stroke="black" d="M382.08,-122.11C382.08,-122.11 382.08,-140.99 382.08,-140.99"/>
<polygon fill="black" stroke="black" points="378.58,-140.99 382.08,-150.99 385.58,-140.99 378.58,-140.99"/>
</g>
<!-- SpinnerModule -->
<g id="node5" class="node">
<title>SpinnerModule</title>
<polygon fill="#8dd3c7" stroke="black" points="331.6,-122 328.6,-126 307.6,-126 304.6,-122 228.4,-122 228.4,-86 331.6,-86 331.6,-122"/>
<text text-anchor="middle" x="280" y="-99.8" font-family="Times,serif" font-size="14.00">SpinnerModule</text>
</g>
<!-- SpinnerModule&#45;&gt;PaymentMethodsModule -->
<g id="edge4" class="edge">
<title>SpinnerModule&#45;&gt;PaymentMethodsModule</title>
<path fill="none" stroke="black" d="M294.39,-122.11C294.39,-122.11 294.39,-140.99 294.39,-140.99"/>
<polygon fill="black" stroke="black" points="290.89,-140.99 294.39,-150.99 297.89,-140.99 290.89,-140.99"/>
</g>
</g>
</svg>
