<?xml version="1.0" encoding="UTF-8" standalone="no"?>
<!DOCTYPE svg PUBLIC "-//W3C//DTD SVG 1.1//EN"
 "http://www.w3.org/Graphics/SVG/1.1/DTD/svg11.dtd">
<!-- Generated by graphviz version 2.40.1 (20161225.0304)
 -->
<!-- Title: dependencies Pages: 1 -->
<svg width="504pt" height="211pt"
 viewBox="0.00 0.00 504.00 211.00" xmlns="http://www.w3.org/2000/svg" xmlns:xlink="http://www.w3.org/1999/xlink">
<g id="graph0" class="graph" transform="scale(1 1) rotate(0) translate(4 207)">
<title>dependencies</title>
<polygon fill="#ffffff" stroke="transparent" points="-4,4 -4,-207 500,-207 500,4 -4,4"/>
<text text-anchor="start" x="227.0091" y="-42.4" font-family="sans-serif" font-weight="bold" font-size="14.00" fill="#000000">Legend</text>
<polygon fill="#ffffb3" stroke="transparent" points="14,-10 14,-30 34,-30 34,-10 14,-10"/>
<text text-anchor="start" x="37.629" y="-15.4" font-family="sans-serif" font-size="14.00" fill="#000000"> &#160;Declarations</text>
<polygon fill="#8dd3c7" stroke="transparent" points="127,-10 127,-30 147,-30 147,-10 127,-10"/>
<text text-anchor="start" x="150.7251" y="-15.4" font-family="sans-serif" font-size="14.00" fill="#000000"> &#160;Module</text>
<polygon fill="#80b1d3" stroke="transparent" points="213,-10 213,-30 233,-30 233,-10 213,-10"/>
<text text-anchor="start" x="236.7812" y="-15.4" font-family="sans-serif" font-size="14.00" fill="#000000"> &#160;Bootstrap</text>
<polygon fill="#fdb462" stroke="transparent" points="310,-10 310,-30 330,-30 330,-10 310,-10"/>
<text text-anchor="start" x="333.6732" y="-15.4" font-family="sans-serif" font-size="14.00" fill="#000000"> &#160;Providers</text>
<polygon fill="#fb8072" stroke="transparent" points="406,-10 406,-30 426,-30 426,-10 406,-10"/>
<text text-anchor="start" x="429.7258" y="-15.4" font-family="sans-serif" font-size="14.00" fill="#000000"> &#160;Exports</text>
<g id="clust1" class="cluster">
<title>cluster_UserAccountComponentsModule</title>
<polygon fill="none" stroke="#000000" stroke-dasharray="1,5" points="36,-70 36,-195 460,-195 460,-70 36,-70"/>
</g>
<g id="clust3" class="cluster">
<title>cluster_UserAccountComponentsModule_imports</title>
<polygon fill="none" stroke="#000000" points="44,-78 44,-130 452,-130 452,-78 44,-78"/>
</g>
<!-- LoginFormModule -->
<g id="node1" class="node">
<title>LoginFormModule</title>
<polygon fill="#8dd3c7" stroke="#000000" points="443.8272,-122 440.8272,-126 419.8272,-126 416.8272,-122 320.1728,-122 320.1728,-86 443.8272,-86 443.8272,-122"/>
<text text-anchor="middle" x="382" y="-99.8" font-family="Times,serif" font-size="14.00" fill="#000000">LoginFormModule</text>
</g>
<!-- UserAccountComponentsModule -->
<g id="node4" class="node">
<title>UserAccountComponentsModule</title>
<polygon fill="#8dd3c7" stroke="#000000" points="358.1797,-187 355.1797,-191 334.1797,-191 331.1797,-187 153.8203,-187 153.8203,-151 358.1797,-151 358.1797,-187"/>
<text text-anchor="middle" x="256" y="-164.8" font-family="Times,serif" font-size="14.00" fill="#000000">UserAccountComponentsModule</text>
</g>
<!-- LoginFormModule&#45;&gt;UserAccountComponentsModule -->
<g id="edge1" class="edge">
<title>LoginFormModule&#45;&gt;UserAccountComponentsModule</title>
<path fill="none" stroke="#000000" d="M339.2132,-122.1061C339.2132,-122.1061 339.2132,-140.991 339.2132,-140.991"/>
<polygon fill="#000000" stroke="#000000" points="335.7133,-140.9909 339.2132,-150.991 342.7133,-140.991 335.7133,-140.9909"/>
</g>
<!-- LoginModule -->
<g id="node2" class="node">
<title>LoginModule</title>
<polygon fill="#8dd3c7" stroke="#000000" points="302.493,-122 299.493,-126 278.493,-126 275.493,-122 209.507,-122 209.507,-86 302.493,-86 302.493,-122"/>
<text text-anchor="middle" x="256" y="-99.8" font-family="Times,serif" font-size="14.00" fill="#000000">LoginModule</text>
</g>
<!-- LoginModule&#45;&gt;UserAccountComponentsModule -->
<g id="edge2" class="edge">
<title>LoginModule&#45;&gt;UserAccountComponentsModule</title>
<path fill="none" stroke="#000000" d="M256,-122.1061C256,-122.1061 256,-140.991 256,-140.991"/>
<polygon fill="#000000" stroke="#000000" points="252.5001,-140.9909 256,-150.991 259.5001,-140.991 252.5001,-140.9909"/>
</g>
<!-- LoginRegisterModule -->
<g id="node3" class="node">
<title>LoginRegisterModule</title>
<polygon fill="#8dd3c7" stroke="#000000" points="191.6456,-122 188.6456,-126 167.6456,-126 164.6456,-122 52.3544,-122 52.3544,-86 191.6456,-86 191.6456,-122"/>
<text text-anchor="middle" x="122" y="-99.8" font-family="Times,serif" font-size="14.00" fill="#000000">LoginRegisterModule</text>
</g>
<!-- LoginRegisterModule&#45;&gt;UserAccountComponentsModule -->
<g id="edge3" class="edge">
<title>LoginRegisterModule&#45;&gt;UserAccountComponentsModule</title>
<path fill="none" stroke="#000000" d="M172.8664,-122.1061C172.8664,-122.1061 172.8664,-140.991 172.8664,-140.991"/>
<polygon fill="#000000" stroke="#000000" points="169.3665,-140.9909 172.8664,-150.991 176.3665,-140.991 169.3665,-140.9909"/>
</g>
</g>
</svg>
