<?xml version="1.0" encoding="UTF-8" standalone="no"?>
<!DOCTYPE svg PUBLIC "-//W3C//DTD SVG 1.1//EN"
 "http://www.w3.org/Graphics/SVG/1.1/DTD/svg11.dtd">
<!-- Generated by graphviz version 2.47.0 (20210316.0004)
 -->
<!-- Title: dependencies Pages: 1 -->
<svg width="504pt" height="211pt"
 viewBox="0.00 0.00 504.00 211.00" xmlns="http://www.w3.org/2000/svg" xmlns:xlink="http://www.w3.org/1999/xlink">
<g id="graph0" class="graph" transform="scale(1 1) rotate(0) translate(4 207)">
<title>dependencies</title>
<polygon fill="white" stroke="transparent" points="-4,4 -4,-207 500,-207 500,4 -4,4"/>
<text text-anchor="start" x="227.01" y="-42.4" font-family="sans-serif" font-weight="bold" font-size="14.00">Legend</text>
<polygon fill="#ffffb3" stroke="transparent" points="14,-10 14,-30 34,-30 34,-10 14,-10"/>
<text text-anchor="start" x="37.63" y="-15.4" font-family="sans-serif" font-size="14.00"> &#160;Declarations</text>
<polygon fill="#8dd3c7" stroke="transparent" points="127,-10 127,-30 147,-30 147,-10 127,-10"/>
<text text-anchor="start" x="150.73" y="-15.4" font-family="sans-serif" font-size="14.00"> &#160;Module</text>
<polygon fill="#80b1d3" stroke="transparent" points="213,-10 213,-30 233,-30 233,-10 213,-10"/>
<text text-anchor="start" x="236.78" y="-15.4" font-family="sans-serif" font-size="14.00"> &#160;Bootstrap</text>
<polygon fill="#fdb462" stroke="transparent" points="310,-10 310,-30 330,-30 330,-10 310,-10"/>
<text text-anchor="start" x="333.67" y="-15.4" font-family="sans-serif" font-size="14.00"> &#160;Providers</text>
<polygon fill="#fb8072" stroke="transparent" points="406,-10 406,-30 426,-30 426,-10 406,-10"/>
<text text-anchor="start" x="429.73" y="-15.4" font-family="sans-serif" font-size="14.00"> &#160;Exports</text>
<g id="clust1" class="cluster">
<title>cluster_UserAccountComponentsModule</title>
<polygon fill="none" stroke="black" stroke-dasharray="1,5" points="36,-70 36,-195 460,-195 460,-70 36,-70"/>
</g>
<g id="clust3" class="cluster">
<title>cluster_UserAccountComponentsModule_imports</title>
<polygon fill="none" stroke="black" points="44,-78 44,-130 452,-130 452,-78 44,-78"/>
</g>
<!-- LoginFormModule -->
<g id="node1" class="node">
<title>LoginFormModule</title>
<polygon fill="#8dd3c7" stroke="black" points="443.83,-122 440.83,-126 419.83,-126 416.83,-122 320.17,-122 320.17,-86 443.83,-86 443.83,-122"/>
<text text-anchor="middle" x="382" y="-99.8" font-family="Times,serif" font-size="14.00">LoginFormModule</text>
</g>
<!-- UserAccountComponentsModule -->
<g id="node4" class="node">
<title>UserAccountComponentsModule</title>
<polygon fill="#8dd3c7" stroke="black" points="358.18,-187 355.18,-191 334.18,-191 331.18,-187 153.82,-187 153.82,-151 358.18,-151 358.18,-187"/>
<text text-anchor="middle" x="256" y="-164.8" font-family="Times,serif" font-size="14.00">UserAccountComponentsModule</text>
</g>
<!-- LoginFormModule&#45;&gt;UserAccountComponentsModule -->
<g id="edge1" class="edge">
<title>LoginFormModule&#45;&gt;UserAccountComponentsModule</title>
<path fill="none" stroke="black" d="M339.21,-122.11C339.21,-122.11 339.21,-140.99 339.21,-140.99"/>
<polygon fill="black" stroke="black" points="335.71,-140.99 339.21,-150.99 342.71,-140.99 335.71,-140.99"/>
</g>
<!-- LoginModule -->
<g id="node2" class="node">
<title>LoginModule</title>
<polygon fill="#8dd3c7" stroke="black" points="302.49,-122 299.49,-126 278.49,-126 275.49,-122 209.51,-122 209.51,-86 302.49,-86 302.49,-122"/>
<text text-anchor="middle" x="256" y="-99.8" font-family="Times,serif" font-size="14.00">LoginModule</text>
</g>
<!-- LoginModule&#45;&gt;UserAccountComponentsModule -->
<g id="edge2" class="edge">
<title>LoginModule&#45;&gt;UserAccountComponentsModule</title>
<path fill="none" stroke="black" d="M256,-122.11C256,-122.11 256,-140.99 256,-140.99"/>
<polygon fill="black" stroke="black" points="252.5,-140.99 256,-150.99 259.5,-140.99 252.5,-140.99"/>
</g>
<!-- LoginRegisterModule -->
<g id="node3" class="node">
<title>LoginRegisterModule</title>
<polygon fill="#8dd3c7" stroke="black" points="191.65,-122 188.65,-126 167.65,-126 164.65,-122 52.35,-122 52.35,-86 191.65,-86 191.65,-122"/>
<text text-anchor="middle" x="122" y="-99.8" font-family="Times,serif" font-size="14.00">LoginRegisterModule</text>
</g>
<!-- LoginRegisterModule&#45;&gt;UserAccountComponentsModule -->
<g id="edge3" class="edge">
<title>LoginRegisterModule&#45;&gt;UserAccountComponentsModule</title>
<path fill="none" stroke="black" d="M172.87,-122.11C172.87,-122.11 172.87,-140.99 172.87,-140.99"/>
<polygon fill="black" stroke="black" points="169.37,-140.99 172.87,-150.99 176.37,-140.99 169.37,-140.99"/>
</g>
</g>
</svg>
