<?xml version="1.0" encoding="UTF-8" standalone="no"?>
<!DOCTYPE svg PUBLIC "-//W3C//DTD SVG 1.1//EN"
 "http://www.w3.org/Graphics/SVG/1.1/DTD/svg11.dtd">
<!-- Generated by graphviz version 2.40.1 (20161225.0304)
 -->
<!-- Title: dependencies Pages: 1 -->
<svg width="1709pt" height="211pt"
 viewBox="0.00 0.00 1709.00 211.00" xmlns="http://www.w3.org/2000/svg" xmlns:xlink="http://www.w3.org/1999/xlink">
<g id="graph0" class="graph" transform="scale(1 1) rotate(0) translate(4 207)">
<title>dependencies</title>
<polygon fill="#ffffff" stroke="transparent" points="-4,4 -4,-207 1705,-207 1705,4 -4,4"/>
<text text-anchor="start" x="829.5091" y="-42.4" font-family="sans-serif" font-weight="bold" font-size="14.00" fill="#000000">Legend</text>
<polygon fill="#ffffb3" stroke="transparent" points="616.5,-10 616.5,-30 636.5,-30 636.5,-10 616.5,-10"/>
<text text-anchor="start" x="640.129" y="-15.4" font-family="sans-serif" font-size="14.00" fill="#000000"> &#160;Declarations</text>
<polygon fill="#8dd3c7" stroke="transparent" points="729.5,-10 729.5,-30 749.5,-30 749.5,-10 729.5,-10"/>
<text text-anchor="start" x="753.2251" y="-15.4" font-family="sans-serif" font-size="14.00" fill="#000000"> &#160;Module</text>
<polygon fill="#80b1d3" stroke="transparent" points="815.5,-10 815.5,-30 835.5,-30 835.5,-10 815.5,-10"/>
<text text-anchor="start" x="839.2812" y="-15.4" font-family="sans-serif" font-size="14.00" fill="#000000"> &#160;Bootstrap</text>
<polygon fill="#fdb462" stroke="transparent" points="912.5,-10 912.5,-30 932.5,-30 932.5,-10 912.5,-10"/>
<text text-anchor="start" x="936.1732" y="-15.4" font-family="sans-serif" font-size="14.00" fill="#000000"> &#160;Providers</text>
<polygon fill="#fb8072" stroke="transparent" points="1008.5,-10 1008.5,-30 1028.5,-30 1028.5,-10 1008.5,-10"/>
<text text-anchor="start" x="1032.2258" y="-15.4" font-family="sans-serif" font-size="14.00" fill="#000000"> &#160;Exports</text>
<g id="clust1" class="cluster">
<title>cluster_CmsLibModule</title>
<polygon fill="none" stroke="#000000" stroke-dasharray="1,5" points="8,-70 8,-195 1693,-195 1693,-70 8,-70"/>
</g>
<g id="clust3" class="cluster">
<title>cluster_CmsLibModule_imports</title>
<polygon fill="none" stroke="#000000" points="16,-78 16,-130 1685,-130 1685,-78 16,-78"/>
</g>
<!-- AddressBookModule -->
<g id="node1" class="node">
<title>AddressBookModule</title>
<polygon fill="#8dd3c7" stroke="#000000" points="1676.7576,-122 1673.7576,-126 1652.7576,-126 1649.7576,-122 1541.2424,-122 1541.2424,-86 1676.7576,-86 1676.7576,-122"/>
<text text-anchor="middle" x="1609" y="-99.8" font-family="Times,serif" font-size="14.00" fill="#000000">AddressBookModule</text>
</g>
<!-- CmsLibModule -->
<g id="node12" class="node">
<title>CmsLibModule</title>
<polygon fill="#8dd3c7" stroke="#000000" points="886.1653,-187 883.1653,-191 862.1653,-191 859.1653,-187 781.8347,-187 781.8347,-151 886.1653,-151 886.1653,-187"/>
<text text-anchor="middle" x="834" y="-164.8" font-family="Times,serif" font-size="14.00" fill="#000000">CmsLibModule</text>
</g>
<!-- AddressBookModule&#45;&gt;CmsLibModule -->
<g id="edge1" class="edge">
<title>AddressBookModule&#45;&gt;CmsLibModule</title>
<path fill="none" stroke="#000000" d="M1609,-122.0109C1609,-144.4852 1609,-180 1609,-180 1609,-180 896.3561,-180 896.3561,-180"/>
<polygon fill="#000000" stroke="#000000" points="896.3561,-176.5001 886.3561,-180 896.3561,-183.5001 896.3561,-176.5001"/>
</g>
<!-- BannerModule -->
<g id="node2" class="node">
<title>BannerModule</title>
<polygon fill="#8dd3c7" stroke="#000000" points="1522.9762,-122 1519.9762,-126 1498.9762,-126 1495.9762,-122 1423.0238,-122 1423.0238,-86 1522.9762,-86 1522.9762,-122"/>
<text text-anchor="middle" x="1473" y="-99.8" font-family="Times,serif" font-size="14.00" fill="#000000">BannerModule</text>
</g>
<!-- BannerModule&#45;&gt;CmsLibModule -->
<g id="edge2" class="edge">
<title>BannerModule&#45;&gt;CmsLibModule</title>
<path fill="none" stroke="#000000" d="M1473,-122.1289C1473,-142.5724 1473,-173 1473,-173 1473,-173 896.2921,-173 896.2921,-173"/>
<polygon fill="#000000" stroke="#000000" points="896.2921,-169.5001 886.2921,-173 896.292,-176.5001 896.2921,-169.5001"/>
</g>
<!-- CategoryNavigationModule -->
<g id="node3" class="node">
<title>CategoryNavigationModule</title>
<polygon fill="#8dd3c7" stroke="#000000" points="1404.5744,-122 1401.5744,-126 1380.5744,-126 1377.5744,-122 1231.4256,-122 1231.4256,-86 1404.5744,-86 1404.5744,-122"/>
<text text-anchor="middle" x="1318" y="-99.8" font-family="Times,serif" font-size="14.00" fill="#000000">CategoryNavigationModule</text>
</g>
<!-- CategoryNavigationModule&#45;&gt;CmsLibModule -->
<g id="edge3" class="edge">
<title>CategoryNavigationModule&#45;&gt;CmsLibModule</title>
<path fill="none" stroke="#000000" d="M1318,-122.2667C1318,-140.5552 1318,-166 1318,-166 1318,-166 896.2563,-166 896.2563,-166"/>
<polygon fill="#000000" stroke="#000000" points="896.2564,-162.5001 886.2563,-166 896.2563,-169.5001 896.2564,-162.5001"/>
</g>
<!-- CmsParagraphModule -->
<g id="node4" class="node">
<title>CmsParagraphModule</title>
<polygon fill="#8dd3c7" stroke="#000000" points="1212.9692,-122 1209.9692,-126 1188.9692,-126 1185.9692,-122 1071.0308,-122 1071.0308,-86 1212.9692,-86 1212.9692,-122"/>
<text text-anchor="middle" x="1142" y="-99.8" font-family="Times,serif" font-size="14.00" fill="#000000">CmsParagraphModule</text>
</g>
<!-- CmsParagraphModule&#45;&gt;CmsLibModule -->
<g id="edge4" class="edge">
<title>CmsParagraphModule&#45;&gt;CmsLibModule</title>
<path fill="none" stroke="#000000" d="M1142,-122.0091C1142,-138.0494 1142,-159 1142,-159 1142,-159 896.248,-159 896.248,-159"/>
<polygon fill="#000000" stroke="#000000" points="896.248,-155.5001 886.248,-159 896.248,-162.5001 896.248,-155.5001"/>
</g>
<!-- FooterNavigationModule -->
<g id="node5" class="node">
<title>FooterNavigationModule</title>
<polygon fill="#8dd3c7" stroke="#000000" points="1053.3061,-122 1050.3061,-126 1029.3061,-126 1026.3061,-122 894.6939,-122 894.6939,-86 1053.3061,-86 1053.3061,-122"/>
<text text-anchor="middle" x="974" y="-99.8" font-family="Times,serif" font-size="14.00" fill="#000000">FooterNavigationModule</text>
</g>
<!-- FooterNavigationModule&#45;&gt;CmsLibModule -->
<g id="edge5" class="edge">
<title>FooterNavigationModule&#45;&gt;CmsLibModule</title>
<path fill="none" stroke="#000000" d="M894.5033,-104C886.7366,-104 881.6645,-104 881.6645,-104 881.6645,-104 881.6645,-140.8939 881.6645,-140.8939"/>
<polygon fill="#000000" stroke="#000000" points="878.1645,-140.8938 881.6645,-150.8939 885.1645,-140.8939 878.1645,-140.8938"/>
</g>
<!-- LinkModule -->
<g id="node6" class="node">
<title>LinkModule</title>
<polygon fill="#8dd3c7" stroke="#000000" points="876.993,-122 873.993,-126 852.993,-126 849.993,-122 791.007,-122 791.007,-86 876.993,-86 876.993,-122"/>
<text text-anchor="middle" x="834" y="-99.8" font-family="Times,serif" font-size="14.00" fill="#000000">LinkModule</text>
</g>
<!-- LinkModule&#45;&gt;CmsLibModule -->
<g id="edge6" class="edge">
<title>LinkModule&#45;&gt;CmsLibModule</title>
<path fill="none" stroke="#000000" d="M834,-122.1061C834,-122.1061 834,-140.991 834,-140.991"/>
<polygon fill="#000000" stroke="#000000" points="830.5001,-140.9909 834,-150.991 837.5001,-140.991 830.5001,-140.9909"/>
</g>
<!-- MiniCartModule -->
<g id="node7" class="node">
<title>MiniCartModule</title>
<polygon fill="#8dd3c7" stroke="#000000" points="773.3781,-122 770.3781,-126 749.3781,-126 746.3781,-122 662.6219,-122 662.6219,-86 773.3781,-86 773.3781,-122"/>
<text text-anchor="middle" x="718" y="-99.8" font-family="Times,serif" font-size="14.00" fill="#000000">MiniCartModule</text>
</g>
<!-- MiniCartModule&#45;&gt;CmsLibModule -->
<g id="edge7" class="edge">
<title>MiniCartModule&#45;&gt;CmsLibModule</title>
<path fill="none" stroke="#000000" d="M773.4822,-104C781.0792,-104 786.3356,-104 786.3356,-104 786.3356,-104 786.3356,-140.8939 786.3356,-140.8939"/>
<polygon fill="#000000" stroke="#000000" points="782.8356,-140.8938 786.3356,-150.8939 789.8356,-140.8939 782.8356,-140.8938"/>
</g>
<!-- NavigationModule -->
<g id="node8" class="node">
<title>NavigationModule</title>
<polygon fill="#8dd3c7" stroke="#000000" points="644.7576,-122 641.7576,-126 620.7576,-126 617.7576,-122 523.2424,-122 523.2424,-86 644.7576,-86 644.7576,-122"/>
<text text-anchor="middle" x="584" y="-99.8" font-family="Times,serif" font-size="14.00" fill="#000000">NavigationModule</text>
</g>
<!-- NavigationModule&#45;&gt;CmsLibModule -->
<g id="edge8" class="edge">
<title>NavigationModule&#45;&gt;CmsLibModule</title>
<path fill="none" stroke="#000000" d="M584,-122.0091C584,-138.0494 584,-159 584,-159 584,-159 771.5918,-159 771.5918,-159"/>
<polygon fill="#000000" stroke="#000000" points="771.5918,-162.5001 781.5918,-159 771.5918,-155.5001 771.5918,-162.5001"/>
</g>
<!-- ProductCarouselModule -->
<g id="node9" class="node">
<title>ProductCarouselModule</title>
<polygon fill="#8dd3c7" stroke="#000000" points="505.3599,-122 502.3599,-126 481.3599,-126 478.3599,-122 352.6401,-122 352.6401,-86 505.3599,-86 505.3599,-122"/>
<text text-anchor="middle" x="429" y="-99.8" font-family="Times,serif" font-size="14.00" fill="#000000">ProductCarouselModule</text>
</g>
<!-- ProductCarouselModule&#45;&gt;CmsLibModule -->
<g id="edge9" class="edge">
<title>ProductCarouselModule&#45;&gt;CmsLibModule</title>
<path fill="none" stroke="#000000" d="M429,-122.2667C429,-140.5552 429,-166 429,-166 429,-166 771.4685,-166 771.4685,-166"/>
<polygon fill="#000000" stroke="#000000" points="771.4686,-169.5001 781.4685,-166 771.4685,-162.5001 771.4686,-169.5001"/>
</g>
<!-- SearchBoxModule -->
<g id="node10" class="node">
<title>SearchBoxModule</title>
<polygon fill="#8dd3c7" stroke="#000000" points="334.4734,-122 331.4734,-126 310.4734,-126 307.4734,-122 213.5266,-122 213.5266,-86 334.4734,-86 334.4734,-122"/>
<text text-anchor="middle" x="274" y="-99.8" font-family="Times,serif" font-size="14.00" fill="#000000">SearchBoxModule</text>
</g>
<!-- SearchBoxModule&#45;&gt;CmsLibModule -->
<g id="edge10" class="edge">
<title>SearchBoxModule&#45;&gt;CmsLibModule</title>
<path fill="none" stroke="#000000" d="M274,-122.1289C274,-142.5724 274,-173 274,-173 274,-173 771.8194,-173 771.8194,-173"/>
<polygon fill="#000000" stroke="#000000" points="771.8195,-176.5001 781.8194,-173 771.8194,-169.5001 771.8195,-176.5001"/>
</g>
<!-- SiteContextSelectorModule -->
<g id="node11" class="node">
<title>SiteContextSelectorModule</title>
<polygon fill="#8dd3c7" stroke="#000000" points="195.5294,-122 192.5294,-126 171.5294,-126 168.5294,-122 24.4706,-122 24.4706,-86 195.5294,-86 195.5294,-122"/>
<text text-anchor="middle" x="110" y="-99.8" font-family="Times,serif" font-size="14.00" fill="#000000">SiteContextSelectorModule</text>
</g>
<!-- SiteContextSelectorModule&#45;&gt;CmsLibModule -->
<g id="edge11" class="edge">
<title>SiteContextSelectorModule&#45;&gt;CmsLibModule</title>
<path fill="none" stroke="#000000" d="M110,-122.0109C110,-144.4852 110,-180 110,-180 110,-180 771.6405,-180 771.6405,-180"/>
<polygon fill="#000000" stroke="#000000" points="771.6405,-183.5001 781.6405,-180 771.6404,-176.5001 771.6405,-183.5001"/>
</g>
</g>
</svg>
