<?xml version="1.0" encoding="UTF-8" standalone="no"?>
<!DOCTYPE svg PUBLIC "-//W3C//DTD SVG 1.1//EN"
 "http://www.w3.org/Graphics/SVG/1.1/DTD/svg11.dtd">
<!-- Generated by graphviz version 2.47.3 (20210619.1520)
 -->
<!-- Title: dependencies Pages: 1 -->
<svg width="756pt" height="174pt"
 viewBox="0.00 0.00 756.00 173.80" xmlns="http://www.w3.org/2000/svg" xmlns:xlink="http://www.w3.org/1999/xlink">
<g id="graph0" class="graph" transform="scale(1 1) rotate(0) translate(4 169.8)">
<title>dependencies</title>
<polygon fill="white" stroke="transparent" points="-4,4 -4,-169.8 752,-169.8 752,4 -4,4"/>
<text text-anchor="middle" x="374" y="-8.2" font-family="sans-serif" font-size="14.00">dependencies</text>
<g id="clust1" class="cluster">
<title>cluster_TextfieldConfiguratorRootModule</title>
<polygon fill="none" stroke="black" stroke-dasharray="1,5" points="8,-32.8 8,-157.8 740,-157.8 740,-32.8 8,-32.8"/>
</g>
<g id="clust3" class="cluster">
<title>cluster_TextfieldConfiguratorRootModule_imports</title>
<polygon fill="none" stroke="black" points="16,-40.8 16,-92.8 732,-92.8 732,-40.8 16,-40.8"/>
</g>
<!-- CommonConfiguratorModule -->
<g id="node1" class="node">
<title>CommonConfiguratorModule</title>
<polygon fill="#8dd3c7" stroke="black" points="723.98,-84.8 720.98,-88.8 699.98,-88.8 696.98,-84.8 540.02,-84.8 540.02,-48.8 723.98,-48.8 723.98,-84.8"/>
<text text-anchor="middle" x="632" y="-62.6" font-family="Times,serif" font-size="14.00">CommonConfiguratorModule</text>
</g>
<!-- TextfieldConfiguratorRootModule -->
<g id="node4" class="node">
<title>TextfieldConfiguratorRootModule</title>
<polygon fill="#8dd3c7" stroke="black" points="501.41,-149.8 498.41,-153.8 477.41,-153.8 474.41,-149.8 290.59,-149.8 290.59,-113.8 501.41,-113.8 501.41,-149.8"/>
<text text-anchor="middle" x="396" y="-127.6" font-family="Times,serif" font-size="14.00">TextfieldConfiguratorRootModule</text>
</g>
<!-- CommonConfiguratorModule&#45;&gt;TextfieldConfiguratorRootModule -->
<g id="edge1" class="edge">
<title>CommonConfiguratorModule&#45;&gt;TextfieldConfiguratorRootModule</title>
<path fill="none" stroke="black" d="M632,-84.91C632,-104.14 632,-131.8 632,-131.8 632,-131.8 511.23,-131.8 511.23,-131.8"/>
<polygon fill="black" stroke="black" points="511.23,-128.3 501.23,-131.8 511.23,-135.3 511.23,-128.3"/>
</g>
<!-- TextfieldConfiguratorRootFeatureModule -->
<g id="node2" class="node">
<title>TextfieldConfiguratorRootFeatureModule</title>
<polygon fill="#8dd3c7" stroke="black" points="522.38,-84.8 519.38,-88.8 498.38,-88.8 495.38,-84.8 269.62,-84.8 269.62,-48.8 522.38,-48.8 522.38,-84.8"/>
<text text-anchor="middle" x="396" y="-62.6" font-family="Times,serif" font-size="14.00">TextfieldConfiguratorRootFeatureModule</text>
</g>
<!-- TextfieldConfiguratorRootFeatureModule&#45;&gt;TextfieldConfiguratorRootModule -->
<g id="edge2" class="edge">
<title>TextfieldConfiguratorRootFeatureModule&#45;&gt;TextfieldConfiguratorRootModule</title>
<path fill="none" stroke="black" d="M396,-84.91C396,-84.91 396,-103.79 396,-103.79"/>
<polygon fill="black" stroke="black" points="392.5,-103.79 396,-113.79 399.5,-103.79 392.5,-103.79"/>
</g>
<!-- TextfieldConfiguratorRoutingModule -->
<g id="node3" class="node">
<title>TextfieldConfiguratorRoutingModule</title>
<polygon fill="#8dd3c7" stroke="black" points="252.3,-84.8 249.3,-88.8 228.3,-88.8 225.3,-84.8 23.7,-84.8 23.7,-48.8 252.3,-48.8 252.3,-84.8"/>
<text text-anchor="middle" x="138" y="-62.6" font-family="Times,serif" font-size="14.00">TextfieldConfiguratorRoutingModule</text>
</g>
<!-- TextfieldConfiguratorRoutingModule&#45;&gt;TextfieldConfiguratorRootModule -->
<g id="edge3" class="edge">
<title>TextfieldConfiguratorRoutingModule&#45;&gt;TextfieldConfiguratorRootModule</title>
<path fill="none" stroke="black" d="M138,-84.91C138,-104.14 138,-131.8 138,-131.8 138,-131.8 280.69,-131.8 280.69,-131.8"/>
<polygon fill="black" stroke="black" points="280.69,-135.3 290.69,-131.8 280.69,-128.3 280.69,-135.3"/>
</g>
</g>
</svg>
