<?xml version="1.0" encoding="UTF-8" standalone="no"?>
<!DOCTYPE svg PUBLIC "-//W3C//DTD SVG 1.1//EN"
 "http://www.w3.org/Graphics/SVG/1.1/DTD/svg11.dtd">
<!-- Generated by graphviz version 2.47.3 (20210619.1520)
 -->
<!-- Title: dependencies Pages: 1 -->
<svg width="202pt" height="247pt"
 viewBox="0.00 0.00 202.00 246.80" xmlns="http://www.w3.org/2000/svg" xmlns:xlink="http://www.w3.org/1999/xlink">
<g id="graph0" class="graph" transform="scale(1 1) rotate(0) translate(4 242.8)">
<title>dependencies</title>
<polygon fill="white" stroke="transparent" points="-4,4 -4,-242.8 198,-242.8 198,4 -4,4"/>
<text text-anchor="middle" x="97" y="-8.2" font-family="sans-serif" font-size="14.00">dependencies</text>
<g id="clust1" class="cluster">
<title>cluster_PaginationTestingModule</title>
<polygon fill="none" stroke="black" stroke-dasharray="1,5" points="8,-32.8 8,-230.8 186,-230.8 186,-32.8 8,-32.8"/>
</g>
<g id="clust4" class="cluster">
<title>cluster_PaginationTestingModule_exports</title>
<polygon fill="none" stroke="black" points="28,-170.8 28,-222.8 166,-222.8 166,-170.8 28,-170.8"/>
</g>
<g id="clust3" class="cluster">
<title>cluster_PaginationTestingModule_imports</title>
<polygon fill="none" stroke="black" points="29,-40.8 29,-92.8 165,-92.8 165,-40.8 29,-40.8"/>
</g>
<!-- PaginationModule -->
<g id="node1" class="node">
<title>PaginationModule</title>
<polygon fill="#8dd3c7" stroke="black" points="156.93,-84.8 153.93,-88.8 132.93,-88.8 129.93,-84.8 37.07,-84.8 37.07,-48.8 156.93,-48.8 156.93,-84.8"/>
<text text-anchor="middle" x="97" y="-62.6" font-family="Times,serif" font-size="14.00">PaginationModule</text>
</g>
<!-- PaginationTestingModule -->
<g id="node2" class="node">
<title>PaginationTestingModule</title>
<polygon fill="#8dd3c7" stroke="black" points="177.93,-149.8 174.93,-153.8 153.93,-153.8 150.93,-149.8 16.07,-149.8 16.07,-113.8 177.93,-113.8 177.93,-149.8"/>
<text text-anchor="middle" x="97" y="-127.6" font-family="Times,serif" font-size="14.00">PaginationTestingModule</text>
</g>
<!-- PaginationModule&#45;&gt;PaginationTestingModule -->
<g id="edge1" class="edge">
<title>PaginationModule&#45;&gt;PaginationTestingModule</title>
<path fill="none" stroke="black" d="M97,-84.91C97,-84.91 97,-103.79 97,-103.79"/>
<polygon fill="black" stroke="black" points="93.5,-103.79 97,-113.79 100.5,-103.79 93.5,-103.79"/>
</g>
<!-- PaginationModule  -->
<g id="node3" class="node">
<title>PaginationModule </title>
<polygon fill="#fb8072" stroke="black" points="158.43,-214.8 35.57,-214.8 35.57,-178.8 158.43,-178.8 158.43,-214.8"/>
<text text-anchor="middle" x="97" y="-192.6" font-family="Times,serif" font-size="14.00">PaginationModule </text>
</g>
<!-- PaginationTestingModule&#45;&gt;PaginationModule  -->
<g id="edge2" class="edge">
<title>PaginationTestingModule&#45;&gt;PaginationModule </title>
<path fill="none" stroke="black" stroke-dasharray="5,2" d="M97,-149.91C97,-149.91 97,-168.79 97,-168.79"/>
<polygon fill="black" stroke="black" points="93.5,-168.79 97,-178.79 100.5,-168.79 93.5,-168.79"/>
</g>
</g>
</svg>
