<?xml version="1.0" encoding="UTF-8" standalone="no"?>
<!DOCTYPE svg PUBLIC "-//W3C//DTD SVG 1.1//EN"
 "http://www.w3.org/Graphics/SVG/1.1/DTD/svg11.dtd">
<!-- Generated by graphviz version 2.40.1 (20161225.0304)
 -->
<!-- Title: dependencies Pages: 1 -->
<svg width="606pt" height="284pt"
 viewBox="0.00 0.00 606.00 284.00" xmlns="http://www.w3.org/2000/svg" xmlns:xlink="http://www.w3.org/1999/xlink">
<g id="graph0" class="graph" transform="scale(1 1) rotate(0) translate(4 280)">
<title>dependencies</title>
<polygon fill="#ffffff" stroke="transparent" points="-4,4 -4,-280 602,-280 602,4 -4,4"/>
<text text-anchor="start" x="278.0091" y="-42.4" font-family="sans-serif" font-weight="bold" font-size="14.00" fill="#000000">Legend</text>
<polygon fill="#ffffb3" stroke="transparent" points="65,-10 65,-30 85,-30 85,-10 65,-10"/>
<text text-anchor="start" x="88.629" y="-15.4" font-family="sans-serif" font-size="14.00" fill="#000000"> &#160;Declarations</text>
<polygon fill="#8dd3c7" stroke="transparent" points="178,-10 178,-30 198,-30 198,-10 178,-10"/>
<text text-anchor="start" x="201.7251" y="-15.4" font-family="sans-serif" font-size="14.00" fill="#000000"> &#160;Module</text>
<polygon fill="#80b1d3" stroke="transparent" points="264,-10 264,-30 284,-30 284,-10 264,-10"/>
<text text-anchor="start" x="287.7812" y="-15.4" font-family="sans-serif" font-size="14.00" fill="#000000"> &#160;Bootstrap</text>
<polygon fill="#fdb462" stroke="transparent" points="361,-10 361,-30 381,-30 381,-10 361,-10"/>
<text text-anchor="start" x="384.6732" y="-15.4" font-family="sans-serif" font-size="14.00" fill="#000000"> &#160;Providers</text>
<polygon fill="#fb8072" stroke="transparent" points="457,-10 457,-30 477,-30 477,-10 457,-10"/>
<text text-anchor="start" x="480.7258" y="-15.4" font-family="sans-serif" font-size="14.00" fill="#000000"> &#160;Exports</text>
<g id="clust1" class="cluster">
<title>cluster_ConfiguratorPreviousNextButtonsModule</title>
<polygon fill="none" stroke="#000000" stroke-dasharray="1,5" points="8,-70 8,-268 590,-268 590,-70 8,-70"/>
</g>
<g id="clust2" class="cluster">
<title>cluster_ConfiguratorPreviousNextButtonsModule_declarations</title>
<polygon fill="none" stroke="#000000" points="292,-78 292,-130 582,-130 582,-78 292,-78"/>
</g>
<g id="clust4" class="cluster">
<title>cluster_ConfiguratorPreviousNextButtonsModule_imports</title>
<polygon fill="none" stroke="#000000" points="16,-78 16,-130 284,-130 284,-78 16,-78"/>
</g>
<g id="clust5" class="cluster">
<title>cluster_ConfiguratorPreviousNextButtonsModule_exports</title>
<polygon fill="none" stroke="#000000" points="87,-208 87,-260 379,-260 379,-208 87,-208"/>
</g>
<!-- ConfiguratorPreviousNextButtonsComponent -->
<g id="node1" class="node">
<title>ConfiguratorPreviousNextButtonsComponent</title>
<polygon fill="#ffffb3" stroke="#000000" points="573.9141,-122 300.0859,-122 300.0859,-86 573.9141,-86 573.9141,-122"/>
<text text-anchor="middle" x="437" y="-99.8" font-family="Times,serif" font-size="14.00" fill="#000000">ConfiguratorPreviousNextButtonsComponent</text>
</g>
<!-- ConfiguratorPreviousNextButtonsModule -->
<g id="node2" class="node">
<title>ConfiguratorPreviousNextButtonsModule</title>
<polygon fill="#8dd3c7" stroke="#000000" points="358.6315,-187 355.6315,-191 334.6315,-191 331.6315,-187 107.3685,-187 107.3685,-151 358.6315,-151 358.6315,-187"/>
<text text-anchor="middle" x="233" y="-164.8" font-family="Times,serif" font-size="14.00" fill="#000000">ConfiguratorPreviousNextButtonsModule</text>
</g>
<!-- ConfiguratorPreviousNextButtonsComponent&#45;&gt;ConfiguratorPreviousNextButtonsModule -->
<g id="edge1" class="edge">
<title>ConfiguratorPreviousNextButtonsComponent&#45;&gt;ConfiguratorPreviousNextButtonsModule</title>
<path fill="none" stroke="#000000" d="M329.5544,-122.1061C329.5544,-122.1061 329.5544,-140.991 329.5544,-140.991"/>
<polygon fill="#000000" stroke="#000000" points="326.0544,-140.9909 329.5544,-150.991 333.0544,-140.991 326.0544,-140.9909"/>
</g>
<!-- ConfiguratorPreviousNextButtonsComponent  -->
<g id="node5" class="node">
<title>ConfiguratorPreviousNextButtonsComponent </title>
<polygon fill="#fb8072" stroke="#000000" points="371.4138,-252 94.5862,-252 94.5862,-216 371.4138,-216 371.4138,-252"/>
<text text-anchor="middle" x="233" y="-229.8" font-family="Times,serif" font-size="14.00" fill="#000000">ConfiguratorPreviousNextButtonsComponent </text>
</g>
<!-- ConfiguratorPreviousNextButtonsModule&#45;&gt;ConfiguratorPreviousNextButtonsComponent  -->
<g id="edge4" class="edge">
<title>ConfiguratorPreviousNextButtonsModule&#45;&gt;ConfiguratorPreviousNextButtonsComponent </title>
<path fill="none" stroke="#000000" stroke-dasharray="5,2" d="M233,-187.1061C233,-187.1061 233,-205.991 233,-205.991"/>
<polygon fill="#000000" stroke="#000000" points="229.5001,-205.9909 233,-215.991 236.5001,-205.991 229.5001,-205.9909"/>
</g>
<!-- I18nModule -->
<g id="node3" class="node">
<title>I18nModule</title>
<polygon fill="#8dd3c7" stroke="#000000" points="275.7107,-122 272.7107,-126 251.7107,-126 248.7107,-122 190.2893,-122 190.2893,-86 275.7107,-86 275.7107,-122"/>
<text text-anchor="middle" x="233" y="-99.8" font-family="Times,serif" font-size="14.00" fill="#000000">I18nModule</text>
</g>
<!-- I18nModule&#45;&gt;ConfiguratorPreviousNextButtonsModule -->
<g id="edge2" class="edge">
<title>I18nModule&#45;&gt;ConfiguratorPreviousNextButtonsModule</title>
<path fill="none" stroke="#000000" d="M233,-122.1061C233,-122.1061 233,-140.991 233,-140.991"/>
<polygon fill="#000000" stroke="#000000" points="229.5001,-140.9909 233,-150.991 236.5001,-140.991 229.5001,-140.9909"/>
</g>
<!-- KeyboardFocusModule -->
<g id="node4" class="node">
<title>KeyboardFocusModule</title>
<polygon fill="#8dd3c7" stroke="#000000" points="172.1881,-122 169.1881,-126 148.1881,-126 145.1881,-122 23.8119,-122 23.8119,-86 172.1881,-86 172.1881,-122"/>
<text text-anchor="middle" x="98" y="-99.8" font-family="Times,serif" font-size="14.00" fill="#000000">KeyboardFocusModule</text>
</g>
<!-- KeyboardFocusModule&#45;&gt;ConfiguratorPreviousNextButtonsModule -->
<g id="edge3" class="edge">
<title>KeyboardFocusModule&#45;&gt;ConfiguratorPreviousNextButtonsModule</title>
<path fill="none" stroke="#000000" d="M139.6392,-122.1061C139.6392,-122.1061 139.6392,-140.991 139.6392,-140.991"/>
<polygon fill="#000000" stroke="#000000" points="136.1393,-140.9909 139.6392,-150.991 143.1393,-140.991 136.1393,-140.9909"/>
</g>
</g>
</svg>
