<?xml version="1.0" encoding="UTF-8" standalone="no"?>
<!DOCTYPE svg PUBLIC "-//W3C//DTD SVG 1.1//EN"
 "http://www.w3.org/Graphics/SVG/1.1/DTD/svg11.dtd">
<!-- Generated by graphviz version 2.40.1 (20161225.0304)
 -->
<!-- Title: dependencies Pages: 1 -->
<svg width="3884pt" height="284pt"
 viewBox="0.00 0.00 3884.00 284.00" xmlns="http://www.w3.org/2000/svg" xmlns:xlink="http://www.w3.org/1999/xlink">
<g id="graph0" class="graph" transform="scale(1 1) rotate(0) translate(4 280)">
<title>dependencies</title>
<polygon fill="#ffffff" stroke="transparent" points="-4,4 -4,-280 3880,-280 3880,4 -4,4"/>
<text text-anchor="start" x="1917.0091" y="-42.4" font-family="sans-serif" font-weight="bold" font-size="14.00" fill="#000000">Legend</text>
<polygon fill="#ffffb3" stroke="transparent" points="1704,-10 1704,-30 1724,-30 1724,-10 1704,-10"/>
<text text-anchor="start" x="1727.629" y="-15.4" font-family="sans-serif" font-size="14.00" fill="#000000"> &#160;Declarations</text>
<polygon fill="#8dd3c7" stroke="transparent" points="1817,-10 1817,-30 1837,-30 1837,-10 1817,-10"/>
<text text-anchor="start" x="1840.7251" y="-15.4" font-family="sans-serif" font-size="14.00" fill="#000000"> &#160;Module</text>
<polygon fill="#80b1d3" stroke="transparent" points="1903,-10 1903,-30 1923,-30 1923,-10 1903,-10"/>
<text text-anchor="start" x="1926.7812" y="-15.4" font-family="sans-serif" font-size="14.00" fill="#000000"> &#160;Bootstrap</text>
<polygon fill="#fdb462" stroke="transparent" points="2000,-10 2000,-30 2020,-30 2020,-10 2000,-10"/>
<text text-anchor="start" x="2023.6732" y="-15.4" font-family="sans-serif" font-size="14.00" fill="#000000"> &#160;Providers</text>
<polygon fill="#fb8072" stroke="transparent" points="2096,-10 2096,-30 2116,-30 2116,-10 2096,-10"/>
<text text-anchor="start" x="2119.7258" y="-15.4" font-family="sans-serif" font-size="14.00" fill="#000000"> &#160;Exports</text>
<g id="clust1" class="cluster">
<title>cluster_ConfiguratorFormModule</title>
<polygon fill="none" stroke="#000000" stroke-dasharray="1,5" points="8,-70 8,-268 3868,-268 3868,-70 8,-70"/>
</g>
<g id="clust2" class="cluster">
<title>cluster_ConfiguratorFormModule_declarations</title>
<polygon fill="none" stroke="#000000" points="3660,-78 3660,-130 3860,-130 3860,-78 3660,-78"/>
</g>
<g id="clust4" class="cluster">
<title>cluster_ConfiguratorFormModule_imports</title>
<polygon fill="none" stroke="#000000" points="16,-78 16,-130 3652,-130 3652,-78 16,-78"/>
</g>
<g id="clust5" class="cluster">
<title>cluster_ConfiguratorFormModule_exports</title>
<polygon fill="none" stroke="#000000" points="2000,-208 2000,-260 2204,-260 2204,-208 2000,-208"/>
</g>
<!-- ConfiguratorFormComponent -->
<g id="node1" class="node">
<title>ConfiguratorFormComponent</title>
<polygon fill="#ffffb3" stroke="#000000" points="3851.9804,-122 3668.0196,-122 3668.0196,-86 3851.9804,-86 3851.9804,-122"/>
<text text-anchor="middle" x="3760" y="-99.8" font-family="Times,serif" font-size="14.00" fill="#000000">ConfiguratorFormComponent</text>
</g>
<!-- ConfiguratorFormModule -->
<g id="node2" class="node">
<title>ConfiguratorFormModule</title>
<polygon fill="#8dd3c7" stroke="#000000" points="2183.1979,-187 2180.1979,-191 2159.1979,-191 2156.1979,-187 2020.8021,-187 2020.8021,-151 2183.1979,-151 2183.1979,-187"/>
<text text-anchor="middle" x="2102" y="-164.8" font-family="Times,serif" font-size="14.00" fill="#000000">ConfiguratorFormModule</text>
</g>
<!-- ConfiguratorFormComponent&#45;&gt;ConfiguratorFormModule -->
<g id="edge1" class="edge">
<title>ConfiguratorFormComponent&#45;&gt;ConfiguratorFormModule</title>
<path fill="none" stroke="#000000" d="M3760,-122.3228C3760,-145.6602 3760,-183 3760,-183 3760,-183 2193.3728,-183 2193.3728,-183"/>
<polygon fill="#000000" stroke="#000000" points="2193.3729,-179.5001 2183.3728,-183 2193.3728,-186.5001 2193.3729,-179.5001"/>
</g>
<!-- ConfiguratorFormComponent  -->
<g id="node17" class="node">
<title>ConfiguratorFormComponent </title>
<polygon fill="#fb8072" stroke="#000000" points="2195.981,-252 2008.019,-252 2008.019,-216 2195.981,-216 2195.981,-252"/>
<text text-anchor="middle" x="2102" y="-229.8" font-family="Times,serif" font-size="14.00" fill="#000000">ConfiguratorFormComponent </text>
</g>
<!-- ConfiguratorFormModule&#45;&gt;ConfiguratorFormComponent  -->
<g id="edge17" class="edge">
<title>ConfiguratorFormModule&#45;&gt;ConfiguratorFormComponent </title>
<path fill="none" stroke="#000000" stroke-dasharray="5,2" d="M2102,-187.1061C2102,-187.1061 2102,-205.991 2102,-205.991"/>
<polygon fill="#000000" stroke="#000000" points="2098.5001,-205.9909 2102,-215.991 2105.5001,-205.991 2098.5001,-205.9909"/>
</g>
<!-- ConfiguratorAttributeCheckboxListModule -->
<g id="node3" class="node">
<title>ConfiguratorAttributeCheckboxListModule</title>
<polygon fill="#8dd3c7" stroke="#000000" points="3644.4524,-122 3641.4524,-126 3620.4524,-126 3617.4524,-122 3383.5476,-122 3383.5476,-86 3644.4524,-86 3644.4524,-122"/>
<text text-anchor="middle" x="3514" y="-99.8" font-family="Times,serif" font-size="14.00" fill="#000000">ConfiguratorAttributeCheckboxListModule</text>
</g>
<!-- ConfiguratorAttributeCheckboxListModule&#45;&gt;ConfiguratorFormModule -->
<g id="edge2" class="edge">
<title>ConfiguratorAttributeCheckboxListModule&#45;&gt;ConfiguratorFormModule</title>
<path fill="none" stroke="#000000" d="M3514,-122.2921C3514,-144.2057 3514,-178 3514,-178 3514,-178 2193.2441,-178 2193.2441,-178"/>
<polygon fill="#000000" stroke="#000000" points="2193.2441,-174.5001 2183.2441,-178 2193.244,-181.5001 2193.2441,-174.5001"/>
</g>
<!-- ConfiguratorAttributeCheckboxModule -->
<g id="node4" class="node">
<title>ConfiguratorAttributeCheckboxModule</title>
<polygon fill="#8dd3c7" stroke="#000000" points="3365.6741,-122 3362.6741,-126 3341.6741,-126 3338.6741,-122 3126.3259,-122 3126.3259,-86 3365.6741,-86 3365.6741,-122"/>
<text text-anchor="middle" x="3246" y="-99.8" font-family="Times,serif" font-size="14.00" fill="#000000">ConfiguratorAttributeCheckboxModule</text>
</g>
<!-- ConfiguratorAttributeCheckboxModule&#45;&gt;ConfiguratorFormModule -->
<g id="edge3" class="edge">
<title>ConfiguratorAttributeCheckboxModule&#45;&gt;ConfiguratorFormModule</title>
<path fill="none" stroke="#000000" d="M3246,-122.0267C3246,-142.7672 3246,-174 3246,-174 3246,-174 2193.3566,-174 2193.3566,-174"/>
<polygon fill="#000000" stroke="#000000" points="2193.3566,-170.5001 2183.3566,-174 2193.3565,-177.5001 2193.3566,-170.5001"/>
</g>
<!-- ConfiguratorAttributeDropDownModule -->
<g id="node5" class="node">
<title>ConfiguratorAttributeDropDownModule</title>
<polygon fill="#8dd3c7" stroke="#000000" points="3108.8889,-122 3105.8889,-126 3084.8889,-126 3081.8889,-122 2863.1111,-122 2863.1111,-86 3108.8889,-86 3108.8889,-122"/>
<text text-anchor="middle" x="2986" y="-99.8" font-family="Times,serif" font-size="14.00" fill="#000000">ConfiguratorAttributeDropDownModule</text>
</g>
<!-- ConfiguratorAttributeDropDownModule&#45;&gt;ConfiguratorFormModule -->
<g id="edge4" class="edge">
<title>ConfiguratorAttributeDropDownModule&#45;&gt;ConfiguratorFormModule</title>
<path fill="none" stroke="#000000" d="M2986,-122.1061C2986,-141.3391 2986,-169 2986,-169 2986,-169 2193.1859,-169 2193.1859,-169"/>
<polygon fill="#000000" stroke="#000000" points="2193.186,-165.5001 2183.1859,-169 2193.1859,-172.5001 2193.186,-165.5001"/>
</g>
<!-- ConfiguratorAttributeFooterModule -->
<g id="node6" class="node">
<title>ConfiguratorAttributeFooterModule</title>
<polygon fill="#8dd3c7" stroke="#000000" points="2845.4566,-122 2842.4566,-126 2821.4566,-126 2818.4566,-122 2626.5434,-122 2626.5434,-86 2845.4566,-86 2845.4566,-122"/>
<text text-anchor="middle" x="2736" y="-99.8" font-family="Times,serif" font-size="14.00" fill="#000000">ConfiguratorAttributeFooterModule</text>
</g>
<!-- ConfiguratorAttributeFooterModule&#45;&gt;ConfiguratorFormModule -->
<g id="edge5" class="edge">
<title>ConfiguratorAttributeFooterModule&#45;&gt;ConfiguratorFormModule</title>
<path fill="none" stroke="#000000" d="M2736,-122.302C2736,-140.2699 2736,-165 2736,-165 2736,-165 2193.2632,-165 2193.2632,-165"/>
<polygon fill="#000000" stroke="#000000" points="2193.2633,-161.5001 2183.2632,-165 2193.2632,-168.5001 2193.2633,-161.5001"/>
</g>
<!-- ConfiguratorAttributeHeaderModule -->
<g id="node7" class="node">
<title>ConfiguratorAttributeHeaderModule</title>
<polygon fill="#8dd3c7" stroke="#000000" points="2608.3193,-122 2605.3193,-126 2584.3193,-126 2581.3193,-122 2385.6807,-122 2385.6807,-86 2608.3193,-86 2608.3193,-122"/>
<text text-anchor="middle" x="2497" y="-99.8" font-family="Times,serif" font-size="14.00" fill="#000000">ConfiguratorAttributeHeaderModule</text>
</g>
<!-- ConfiguratorAttributeHeaderModule&#45;&gt;ConfiguratorFormModule -->
<g id="edge6" class="edge">
<title>ConfiguratorAttributeHeaderModule&#45;&gt;ConfiguratorFormModule</title>
<path fill="none" stroke="#000000" d="M2534.1365,-122.027C2534.1365,-138.3976 2534.1365,-160 2534.1365,-160 2534.1365,-160 2193.2816,-160 2193.2816,-160"/>
<polygon fill="#000000" stroke="#000000" points="2193.2816,-156.5001 2183.2816,-160 2193.2815,-163.5001 2193.2816,-156.5001"/>
</g>
<!-- ConfiguratorAttributeHeaderModule&#45;&gt;ConfiguratorFormModule -->
<g id="edge7" class="edge">
<title>ConfiguratorAttributeHeaderModule&#45;&gt;ConfiguratorFormModule</title>
<path fill="none" stroke="#000000" d="M2459.8635,-122.1871C2459.8635,-137.1824 2459.8635,-156 2459.8635,-156 2459.8635,-156 2193.2048,-156 2193.2048,-156"/>
<polygon fill="#000000" stroke="#000000" points="2193.2048,-152.5001 2183.2048,-156 2193.2047,-159.5001 2193.2048,-152.5001"/>
</g>
<!-- ConfiguratorAttributeInputFieldModule -->
<g id="node8" class="node">
<title>ConfiguratorAttributeInputFieldModule</title>
<polygon fill="#8dd3c7" stroke="#000000" points="2367.2379,-122 2364.2379,-126 2343.2379,-126 2340.2379,-122 2126.7621,-122 2126.7621,-86 2367.2379,-86 2367.2379,-122"/>
<text text-anchor="middle" x="2247" y="-99.8" font-family="Times,serif" font-size="14.00" fill="#000000">ConfiguratorAttributeInputFieldModule</text>
</g>
<!-- ConfiguratorAttributeInputFieldModule&#45;&gt;ConfiguratorFormModule -->
<g id="edge8" class="edge">
<title>ConfiguratorAttributeInputFieldModule&#45;&gt;ConfiguratorFormModule</title>
<path fill="none" stroke="#000000" d="M2154.865,-122.1061C2154.865,-122.1061 2154.865,-140.991 2154.865,-140.991"/>
<polygon fill="#000000" stroke="#000000" points="2151.3651,-140.9909 2154.865,-150.991 2158.3651,-140.991 2151.3651,-140.9909"/>
</g>
<!-- ConfiguratorAttributeMultiSelectionImageModule -->
<g id="node9" class="node">
<title>ConfiguratorAttributeMultiSelectionImageModule</title>
<polygon fill="#8dd3c7" stroke="#000000" points="2108.1035,-122 2105.1035,-126 2084.1035,-126 2081.1035,-122 1807.8965,-122 1807.8965,-86 2108.1035,-86 2108.1035,-122"/>
<text text-anchor="middle" x="1958" y="-99.8" font-family="Times,serif" font-size="14.00" fill="#000000">ConfiguratorAttributeMultiSelectionImageModule</text>
</g>
<!-- ConfiguratorAttributeMultiSelectionImageModule&#45;&gt;ConfiguratorFormModule -->
<g id="edge9" class="edge">
<title>ConfiguratorAttributeMultiSelectionImageModule&#45;&gt;ConfiguratorFormModule</title>
<path fill="none" stroke="#000000" d="M2064.6014,-122.1061C2064.6014,-122.1061 2064.6014,-140.991 2064.6014,-140.991"/>
<polygon fill="#000000" stroke="#000000" points="2061.1014,-140.9909 2064.6014,-150.991 2068.1014,-140.991 2061.1014,-140.9909"/>
</g>
<!-- ConfiguratorAttributeNumericInputFieldModule -->
<g id="node10" class="node">
<title>ConfiguratorAttributeNumericInputFieldModule</title>
<polygon fill="#8dd3c7" stroke="#000000" points="1789.7155,-122 1786.7155,-126 1765.7155,-126 1762.7155,-122 1500.2845,-122 1500.2845,-86 1789.7155,-86 1789.7155,-122"/>
<text text-anchor="middle" x="1645" y="-99.8" font-family="Times,serif" font-size="14.00" fill="#000000">ConfiguratorAttributeNumericInputFieldModule</text>
</g>
<!-- ConfiguratorAttributeNumericInputFieldModule&#45;&gt;ConfiguratorFormModule -->
<g id="edge10" class="edge">
<title>ConfiguratorAttributeNumericInputFieldModule&#45;&gt;ConfiguratorFormModule</title>
<path fill="none" stroke="#000000" d="M1645,-122.1871C1645,-137.1824 1645,-156 1645,-156 1645,-156 2010.8242,-156 2010.8242,-156"/>
<polygon fill="#000000" stroke="#000000" points="2010.8242,-159.5001 2020.8242,-156 2010.8241,-152.5001 2010.8242,-159.5001"/>
</g>
<!-- ConfiguratorAttributeRadioButtonModule -->
<g id="node11" class="node">
<title>ConfiguratorAttributeRadioButtonModule</title>
<polygon fill="#8dd3c7" stroke="#000000" points="1481.9678,-122 1478.9678,-126 1457.9678,-126 1454.9678,-122 1228.0322,-122 1228.0322,-86 1481.9678,-86 1481.9678,-122"/>
<text text-anchor="middle" x="1355" y="-99.8" font-family="Times,serif" font-size="14.00" fill="#000000">ConfiguratorAttributeRadioButtonModule</text>
</g>
<!-- ConfiguratorAttributeRadioButtonModule&#45;&gt;ConfiguratorFormModule -->
<g id="edge11" class="edge">
<title>ConfiguratorAttributeRadioButtonModule&#45;&gt;ConfiguratorFormModule</title>
<path fill="none" stroke="#000000" d="M1355,-122.027C1355,-138.3976 1355,-160 1355,-160 1355,-160 2010.6359,-160 2010.6359,-160"/>
<polygon fill="#000000" stroke="#000000" points="2010.6359,-163.5001 2020.6359,-160 2010.6359,-156.5001 2010.6359,-163.5001"/>
</g>
<!-- ConfiguratorAttributeReadOnlyModule -->
<g id="node12" class="node">
<title>ConfiguratorAttributeReadOnlyModule</title>
<polygon fill="#8dd3c7" stroke="#000000" points="1209.6713,-122 1206.6713,-126 1185.6713,-126 1182.6713,-122 970.3287,-122 970.3287,-86 1209.6713,-86 1209.6713,-122"/>
<text text-anchor="middle" x="1090" y="-99.8" font-family="Times,serif" font-size="14.00" fill="#000000">ConfiguratorAttributeReadOnlyModule</text>
</g>
<!-- ConfiguratorAttributeReadOnlyModule&#45;&gt;ConfiguratorFormModule -->
<g id="edge12" class="edge">
<title>ConfiguratorAttributeReadOnlyModule&#45;&gt;ConfiguratorFormModule</title>
<path fill="none" stroke="#000000" d="M1090,-122.302C1090,-140.2699 1090,-165 1090,-165 1090,-165 2010.8945,-165 2010.8945,-165"/>
<polygon fill="#000000" stroke="#000000" points="2010.8945,-168.5001 2020.8945,-165 2010.8944,-161.5001 2010.8945,-168.5001"/>
</g>
<!-- ConfiguratorAttributeSingleSelectionImageModule -->
<g id="node13" class="node">
<title>ConfiguratorAttributeSingleSelectionImageModule</title>
<polygon fill="#8dd3c7" stroke="#000000" points="952.7653,-122 949.7653,-126 928.7653,-126 925.7653,-122 647.2347,-122 647.2347,-86 952.7653,-86 952.7653,-122"/>
<text text-anchor="middle" x="800" y="-99.8" font-family="Times,serif" font-size="14.00" fill="#000000">ConfiguratorAttributeSingleSelectionImageModule</text>
</g>
<!-- ConfiguratorAttributeSingleSelectionImageModule&#45;&gt;ConfiguratorFormModule -->
<g id="edge13" class="edge">
<title>ConfiguratorAttributeSingleSelectionImageModule&#45;&gt;ConfiguratorFormModule</title>
<path fill="none" stroke="#000000" d="M800,-122.1061C800,-141.3391 800,-169 800,-169 800,-169 2010.5541,-169 2010.5541,-169"/>
<polygon fill="#000000" stroke="#000000" points="2010.5541,-172.5001 2020.5541,-169 2010.554,-165.5001 2010.5541,-172.5001"/>
</g>
<!-- ConfiguratorConflictDescriptionModule -->
<g id="node14" class="node">
<title>ConfiguratorConflictDescriptionModule</title>
<polygon fill="#8dd3c7" stroke="#000000" points="629.5604,-122 626.5604,-126 605.5604,-126 602.5604,-122 386.4396,-122 386.4396,-86 629.5604,-86 629.5604,-122"/>
<text text-anchor="middle" x="508" y="-99.8" font-family="Times,serif" font-size="14.00" fill="#000000">ConfiguratorConflictDescriptionModule</text>
</g>
<!-- ConfiguratorConflictDescriptionModule&#45;&gt;ConfiguratorFormModule -->
<g id="edge14" class="edge">
<title>ConfiguratorConflictDescriptionModule&#45;&gt;ConfiguratorFormModule</title>
<path fill="none" stroke="#000000" d="M508,-122.0267C508,-142.7672 508,-174 508,-174 508,-174 2010.7619,-174 2010.7619,-174"/>
<polygon fill="#000000" stroke="#000000" points="2010.7619,-177.5001 2020.7619,-174 2010.7618,-170.5001 2010.7619,-177.5001"/>
</g>
<!-- ConfiguratorConflictSuggestionModule -->
<g id="node15" class="node">
<title>ConfiguratorConflictSuggestionModule</title>
<polygon fill="#8dd3c7" stroke="#000000" points="367.9706,-122 364.9706,-126 343.9706,-126 340.9706,-122 128.0294,-122 128.0294,-86 367.9706,-86 367.9706,-122"/>
<text text-anchor="middle" x="248" y="-99.8" font-family="Times,serif" font-size="14.00" fill="#000000">ConfiguratorConflictSuggestionModule</text>
</g>
<!-- ConfiguratorConflictSuggestionModule&#45;&gt;ConfiguratorFormModule -->
<g id="edge15" class="edge">
<title>ConfiguratorConflictSuggestionModule&#45;&gt;ConfiguratorFormModule</title>
<path fill="none" stroke="#000000" d="M248,-122.2921C248,-144.2057 248,-178 248,-178 248,-178 2010.8445,-178 2010.8445,-178"/>
<polygon fill="#000000" stroke="#000000" points="2010.8445,-181.5001 2020.8445,-178 2010.8445,-174.5001 2010.8445,-181.5001"/>
</g>
<!-- I18nModule -->
<g id="node16" class="node">
<title>I18nModule</title>
<polygon fill="#8dd3c7" stroke="#000000" points="109.7107,-122 106.7107,-126 85.7107,-126 82.7107,-122 24.2893,-122 24.2893,-86 109.7107,-86 109.7107,-122"/>
<text text-anchor="middle" x="67" y="-99.8" font-family="Times,serif" font-size="14.00" fill="#000000">I18nModule</text>
</g>
<!-- I18nModule&#45;&gt;ConfiguratorFormModule -->
<g id="edge16" class="edge">
<title>I18nModule&#45;&gt;ConfiguratorFormModule</title>
<path fill="none" stroke="#000000" d="M67,-122.3228C67,-145.6602 67,-183 67,-183 67,-183 2010.6545,-183 2010.6545,-183"/>
<polygon fill="#000000" stroke="#000000" points="2010.6545,-186.5001 2020.6545,-183 2010.6544,-179.5001 2010.6545,-186.5001"/>
</g>
</g>
</svg>
