<?xml version="1.0" encoding="UTF-8" standalone="no"?>
<!DOCTYPE svg PUBLIC "-//W3C//DTD SVG 1.1//EN"
 "http://www.w3.org/Graphics/SVG/1.1/DTD/svg11.dtd">
<!-- Generated by graphviz version 2.47.3 (20210619.1520)
 -->
<!-- Title: dependencies Pages: 1 -->
<svg width="528pt" height="247pt"
 viewBox="0.00 0.00 528.00 246.80" xmlns="http://www.w3.org/2000/svg" xmlns:xlink="http://www.w3.org/1999/xlink">
<g id="graph0" class="graph" transform="scale(1 1) rotate(0) translate(4 242.8)">
<title>dependencies</title>
<polygon fill="white" stroke="transparent" points="-4,4 -4,-242.8 524,-242.8 524,4 -4,4"/>
<text text-anchor="middle" x="260" y="-8.2" font-family="sans-serif" font-size="14.00">dependencies</text>
<g id="clust1" class="cluster">
<title>cluster_CheckoutProgressMobileBottomModule</title>
<polygon fill="none" stroke="black" stroke-dasharray="1,5" points="8,-32.8 8,-230.8 512,-230.8 512,-32.8 8,-32.8"/>
</g>
<g id="clust5" class="cluster">
<title>cluster_CheckoutProgressMobileBottomModule_exports</title>
<polygon fill="none" stroke="black" points="20,-170.8 20,-222.8 306,-222.8 306,-170.8 20,-170.8"/>
</g>
<g id="clust2" class="cluster">
<title>cluster_CheckoutProgressMobileBottomModule_declarations</title>
<polygon fill="none" stroke="black" points="222,-40.8 222,-92.8 504,-92.8 504,-40.8 222,-40.8"/>
</g>
<g id="clust4" class="cluster">
<title>cluster_CheckoutProgressMobileBottomModule_imports</title>
<polygon fill="none" stroke="black" points="16,-40.8 16,-92.8 214,-92.8 214,-40.8 16,-40.8"/>
</g>
<!-- CheckoutProgressMobileBottomComponent -->
<g id="node1" class="node">
<title>CheckoutProgressMobileBottomComponent</title>
<polygon fill="#ffffb3" stroke="black" points="495.65,-84.8 230.35,-84.8 230.35,-48.8 495.65,-48.8 495.65,-84.8"/>
<text text-anchor="middle" x="363" y="-62.6" font-family="Times,serif" font-size="14.00">CheckoutProgressMobileBottomComponent</text>
</g>
<!-- CheckoutProgressMobileBottomModule -->
<g id="node2" class="node">
<title>CheckoutProgressMobileBottomModule</title>
<polygon fill="#8dd3c7" stroke="black" points="284.86,-149.8 281.86,-153.8 260.86,-153.8 257.86,-149.8 41.14,-149.8 41.14,-113.8 284.86,-113.8 284.86,-149.8"/>
<text text-anchor="middle" x="163" y="-127.6" font-family="Times,serif" font-size="14.00">CheckoutProgressMobileBottomModule</text>
</g>
<!-- CheckoutProgressMobileBottomComponent&#45;&gt;CheckoutProgressMobileBottomModule -->
<g id="edge1" class="edge">
<title>CheckoutProgressMobileBottomComponent&#45;&gt;CheckoutProgressMobileBottomModule</title>
<path fill="none" stroke="black" d="M257.55,-84.91C257.55,-84.91 257.55,-103.79 257.55,-103.79"/>
<polygon fill="black" stroke="black" points="254.05,-103.79 257.55,-113.79 261.05,-103.79 254.05,-103.79"/>
</g>
<!-- CheckoutProgressMobileBottomComponent  -->
<g id="node5" class="node">
<title>CheckoutProgressMobileBottomComponent </title>
<polygon fill="#fb8072" stroke="black" points="297.65,-214.8 28.35,-214.8 28.35,-178.8 297.65,-178.8 297.65,-214.8"/>
<text text-anchor="middle" x="163" y="-192.6" font-family="Times,serif" font-size="14.00">CheckoutProgressMobileBottomComponent </text>
</g>
<!-- CheckoutProgressMobileBottomModule&#45;&gt;CheckoutProgressMobileBottomComponent  -->
<g id="edge4" class="edge">
<title>CheckoutProgressMobileBottomModule&#45;&gt;CheckoutProgressMobileBottomComponent </title>
<path fill="none" stroke="black" stroke-dasharray="5,2" d="M163,-149.91C163,-149.91 163,-168.79 163,-168.79"/>
<polygon fill="black" stroke="black" points="159.5,-168.79 163,-178.79 166.5,-168.79 159.5,-168.79"/>
</g>
<!-- I18nModule -->
<g id="node3" class="node">
<title>I18nModule</title>
<polygon fill="#8dd3c7" stroke="black" points="205.71,-84.8 202.71,-88.8 181.71,-88.8 178.71,-84.8 120.29,-84.8 120.29,-48.8 205.71,-48.8 205.71,-84.8"/>
<text text-anchor="middle" x="163" y="-62.6" font-family="Times,serif" font-size="14.00">I18nModule</text>
</g>
<!-- I18nModule&#45;&gt;CheckoutProgressMobileBottomModule -->
<g id="edge2" class="edge">
<title>I18nModule&#45;&gt;CheckoutProgressMobileBottomModule</title>
<path fill="none" stroke="black" d="M163,-84.91C163,-84.91 163,-103.79 163,-103.79"/>
<polygon fill="black" stroke="black" points="159.5,-103.79 163,-113.79 166.5,-103.79 159.5,-103.79"/>
</g>
<!-- UrlModule -->
<g id="node4" class="node">
<title>UrlModule</title>
<polygon fill="#8dd3c7" stroke="black" points="102.21,-84.8 99.21,-88.8 78.21,-88.8 75.21,-84.8 23.79,-84.8 23.79,-48.8 102.21,-48.8 102.21,-84.8"/>
<text text-anchor="middle" x="63" y="-62.6" font-family="Times,serif" font-size="14.00">UrlModule</text>
</g>
<!-- UrlModule&#45;&gt;CheckoutProgressMobileBottomModule -->
<g id="edge3" class="edge">
<title>UrlModule&#45;&gt;CheckoutProgressMobileBottomModule</title>
<path fill="none" stroke="black" d="M71.59,-84.91C71.59,-84.91 71.59,-103.79 71.59,-103.79"/>
<polygon fill="black" stroke="black" points="68.09,-103.79 71.59,-113.79 75.09,-103.79 68.09,-103.79"/>
</g>
</g>
</svg>
