<?xml version="1.0" encoding="UTF-8" standalone="no"?>
<!DOCTYPE svg PUBLIC "-//W3C//DTD SVG 1.1//EN"
 "http://www.w3.org/Graphics/SVG/1.1/DTD/svg11.dtd">
<!-- Generated by graphviz version 2.47.3 (20210619.1520)
 -->
<!-- Title: dependencies Pages: 1 -->
<svg width="1066pt" height="247pt"
 viewBox="0.00 0.00 1066.00 246.80" xmlns="http://www.w3.org/2000/svg" xmlns:xlink="http://www.w3.org/1999/xlink">
<g id="graph0" class="graph" transform="scale(1 1) rotate(0) translate(4 242.8)">
<title>dependencies</title>
<polygon fill="white" stroke="transparent" points="-4,4 -4,-242.8 1062,-242.8 1062,4 -4,4"/>
<text text-anchor="middle" x="529" y="-8.2" font-family="sans-serif" font-size="14.00">dependencies</text>
<g id="clust1" class="cluster">
<title>cluster_DpPaymentMethodModule</title>
<polygon fill="none" stroke="black" stroke-dasharray="1,5" points="8,-32.8 8,-230.8 1050,-230.8 1050,-32.8 8,-32.8"/>
</g>
<g id="clust5" class="cluster">
<title>cluster_DpPaymentMethodModule_exports</title>
<polygon fill="none" stroke="black" points="406,-170.8 406,-222.8 616,-222.8 616,-170.8 406,-170.8"/>
</g>
<g id="clust2" class="cluster">
<title>cluster_DpPaymentMethodModule_declarations</title>
<polygon fill="none" stroke="black" points="836,-40.8 836,-92.8 1042,-92.8 1042,-40.8 836,-40.8"/>
</g>
<g id="clust4" class="cluster">
<title>cluster_DpPaymentMethodModule_imports</title>
<polygon fill="none" stroke="black" points="16,-40.8 16,-92.8 828,-92.8 828,-40.8 16,-40.8"/>
</g>
<!-- DpPaymentMethodComponent -->
<g id="node1" class="node">
<title>DpPaymentMethodComponent</title>
<polygon fill="#ffffb3" stroke="black" points="1034.48,-84.8 843.52,-84.8 843.52,-48.8 1034.48,-48.8 1034.48,-84.8"/>
<text text-anchor="middle" x="939" y="-62.6" font-family="Times,serif" font-size="14.00">DpPaymentMethodComponent</text>
</g>
<!-- DpPaymentMethodModule -->
<g id="node2" class="node">
<title>DpPaymentMethodModule</title>
<polygon fill="#8dd3c7" stroke="black" points="595.7,-149.8 592.7,-153.8 571.7,-153.8 568.7,-149.8 426.3,-149.8 426.3,-113.8 595.7,-113.8 595.7,-149.8"/>
<text text-anchor="middle" x="511" y="-127.6" font-family="Times,serif" font-size="14.00">DpPaymentMethodModule</text>
</g>
<!-- DpPaymentMethodComponent&#45;&gt;DpPaymentMethodModule -->
<g id="edge1" class="edge">
<title>DpPaymentMethodComponent&#45;&gt;DpPaymentMethodModule</title>
<path fill="none" stroke="black" d="M939,-85.09C939,-107.01 939,-140.8 939,-140.8 939,-140.8 605.81,-140.8 605.81,-140.8"/>
<polygon fill="black" stroke="black" points="605.81,-137.3 595.81,-140.8 605.81,-144.3 605.81,-137.3"/>
</g>
<!-- DpPaymentMethodComponent  -->
<g id="node9" class="node">
<title>DpPaymentMethodComponent </title>
<polygon fill="#fb8072" stroke="black" points="608.48,-214.8 413.52,-214.8 413.52,-178.8 608.48,-178.8 608.48,-214.8"/>
<text text-anchor="middle" x="511" y="-192.6" font-family="Times,serif" font-size="14.00">DpPaymentMethodComponent </text>
</g>
<!-- DpPaymentMethodModule&#45;&gt;DpPaymentMethodComponent  -->
<g id="edge8" class="edge">
<title>DpPaymentMethodModule&#45;&gt;DpPaymentMethodComponent </title>
<path fill="none" stroke="black" stroke-dasharray="5,2" d="M511,-149.91C511,-149.91 511,-168.79 511,-168.79"/>
<polygon fill="black" stroke="black" points="507.5,-168.79 511,-178.79 514.5,-168.79 507.5,-168.79"/>
</g>
<!-- CardModule -->
<g id="node3" class="node">
<title>CardModule</title>
<polygon fill="#8dd3c7" stroke="black" points="820.26,-84.8 817.26,-88.8 796.26,-88.8 793.26,-84.8 733.74,-84.8 733.74,-48.8 820.26,-48.8 820.26,-84.8"/>
<text text-anchor="middle" x="777" y="-62.6" font-family="Times,serif" font-size="14.00">CardModule</text>
</g>
<!-- CardModule&#45;&gt;DpPaymentMethodModule -->
<g id="edge2" class="edge">
<title>CardModule&#45;&gt;DpPaymentMethodModule</title>
<path fill="none" stroke="black" d="M777,-84.91C777,-104.14 777,-131.8 777,-131.8 777,-131.8 605.9,-131.8 605.9,-131.8"/>
<polygon fill="black" stroke="black" points="605.9,-128.3 595.9,-131.8 605.9,-135.3 605.9,-128.3"/>
</g>
<!-- ConfigModule -->
<g id="node4" class="node">
<title>ConfigModule</title>
<polygon fill="#8dd3c7" stroke="black" points="715.44,-84.8 712.44,-88.8 691.44,-88.8 688.44,-84.8 616.56,-84.8 616.56,-48.8 715.44,-48.8 715.44,-84.8"/>
<text text-anchor="middle" x="666" y="-62.6" font-family="Times,serif" font-size="14.00">ConfigModule</text>
</g>
<!-- ConfigModule&#45;&gt;DpPaymentMethodModule -->
<g id="edge3" class="edge">
<title>ConfigModule&#45;&gt;DpPaymentMethodModule</title>
<path fill="none" stroke="black" d="M666,-84.83C666,-101.2 666,-122.8 666,-122.8 666,-122.8 605.76,-122.8 605.76,-122.8"/>
<polygon fill="black" stroke="black" points="605.76,-119.3 595.76,-122.8 605.76,-126.3 605.76,-119.3"/>
</g>
<!-- DpPaymentCallbackModule -->
<g id="node5" class="node">
<title>DpPaymentCallbackModule</title>
<polygon fill="#8dd3c7" stroke="black" points="598.91,-84.8 595.91,-88.8 574.91,-88.8 571.91,-84.8 423.09,-84.8 423.09,-48.8 598.91,-48.8 598.91,-84.8"/>
<text text-anchor="middle" x="511" y="-62.6" font-family="Times,serif" font-size="14.00">DpPaymentCallbackModule</text>
</g>
<!-- DpPaymentCallbackModule&#45;&gt;DpPaymentMethodModule -->
<g id="edge4" class="edge">
<title>DpPaymentCallbackModule&#45;&gt;DpPaymentMethodModule</title>
<path fill="none" stroke="black" d="M511,-84.91C511,-84.91 511,-103.79 511,-103.79"/>
<polygon fill="black" stroke="black" points="507.5,-103.79 511,-113.79 514.5,-103.79 507.5,-103.79"/>
</g>
<!-- DpPaymentFormModule -->
<g id="node6" class="node">
<title>DpPaymentFormModule</title>
<polygon fill="#8dd3c7" stroke="black" points="404.98,-84.8 401.98,-88.8 380.98,-88.8 377.98,-84.8 249.02,-84.8 249.02,-48.8 404.98,-48.8 404.98,-84.8"/>
<text text-anchor="middle" x="327" y="-62.6" font-family="Times,serif" font-size="14.00">DpPaymentFormModule</text>
</g>
<!-- DpPaymentFormModule&#45;&gt;DpPaymentMethodModule -->
<g id="edge5" class="edge">
<title>DpPaymentFormModule&#45;&gt;DpPaymentMethodModule</title>
<path fill="none" stroke="black" d="M327,-84.83C327,-101.2 327,-122.8 327,-122.8 327,-122.8 416.27,-122.8 416.27,-122.8"/>
<polygon fill="black" stroke="black" points="416.27,-126.3 426.27,-122.8 416.27,-119.3 416.27,-126.3"/>
</g>
<!-- I18nModule -->
<g id="node7" class="node">
<title>I18nModule</title>
<polygon fill="#8dd3c7" stroke="black" points="230.71,-84.8 227.71,-88.8 206.71,-88.8 203.71,-84.8 145.29,-84.8 145.29,-48.8 230.71,-48.8 230.71,-84.8"/>
<text text-anchor="middle" x="188" y="-62.6" font-family="Times,serif" font-size="14.00">I18nModule</text>
</g>
<!-- I18nModule&#45;&gt;DpPaymentMethodModule -->
<g id="edge6" class="edge">
<title>I18nModule&#45;&gt;DpPaymentMethodModule</title>
<path fill="none" stroke="black" d="M188,-84.91C188,-104.14 188,-131.8 188,-131.8 188,-131.8 416.14,-131.8 416.14,-131.8"/>
<polygon fill="black" stroke="black" points="416.14,-135.3 426.14,-131.8 416.14,-128.3 416.14,-135.3"/>
</g>
<!-- SpinnerModule -->
<g id="node8" class="node">
<title>SpinnerModule</title>
<polygon fill="#8dd3c7" stroke="black" points="127.6,-84.8 124.6,-88.8 103.6,-88.8 100.6,-84.8 24.4,-84.8 24.4,-48.8 127.6,-48.8 127.6,-84.8"/>
<text text-anchor="middle" x="76" y="-62.6" font-family="Times,serif" font-size="14.00">SpinnerModule</text>
</g>
<!-- SpinnerModule&#45;&gt;DpPaymentMethodModule -->
<g id="edge7" class="edge">
<title>SpinnerModule&#45;&gt;DpPaymentMethodModule</title>
<path fill="none" stroke="black" d="M76,-85.09C76,-107.01 76,-140.8 76,-140.8 76,-140.8 416.35,-140.8 416.35,-140.8"/>
<polygon fill="black" stroke="black" points="416.35,-144.3 426.35,-140.8 416.35,-137.3 416.35,-144.3"/>
</g>
</g>
</svg>
