<?xml version="1.0" encoding="UTF-8" standalone="no"?>
<!DOCTYPE svg PUBLIC "-//W3C//DTD SVG 1.1//EN"
 "http://www.w3.org/Graphics/SVG/1.1/DTD/svg11.dtd">
<!-- Generated by graphviz version 2.47.3 (20210619.1520)
 -->
<!-- Title: dependencies Pages: 1 -->
<svg width="306pt" height="247pt"
 viewBox="0.00 0.00 306.00 246.80" xmlns="http://www.w3.org/2000/svg" xmlns:xlink="http://www.w3.org/1999/xlink">
<g id="graph0" class="graph" transform="scale(1 1) rotate(0) translate(4 242.8)">
<title>dependencies</title>
<polygon fill="white" stroke="transparent" points="-4,4 -4,-242.8 302,-242.8 302,4 -4,4"/>
<text text-anchor="middle" x="149" y="-8.2" font-family="sans-serif" font-size="14.00">dependencies</text>
<g id="clust1" class="cluster">
<title>cluster_StarRatingModule</title>
<polygon fill="none" stroke="black" stroke-dasharray="1,5" points="8,-32.8 8,-230.8 290,-230.8 290,-32.8 8,-32.8"/>
</g>
<g id="clust5" class="cluster">
<title>cluster_StarRatingModule_exports</title>
<polygon fill="none" stroke="black" points="69,-170.8 69,-222.8 229,-222.8 229,-170.8 69,-170.8"/>
</g>
<g id="clust2" class="cluster">
<title>cluster_StarRatingModule_declarations</title>
<polygon fill="none" stroke="black" points="124,-40.8 124,-92.8 282,-92.8 282,-40.8 124,-40.8"/>
</g>
<g id="clust4" class="cluster">
<title>cluster_StarRatingModule_imports</title>
<polygon fill="none" stroke="black" points="16,-40.8 16,-92.8 116,-92.8 116,-40.8 16,-40.8"/>
</g>
<!-- StarRatingComponent -->
<g id="node1" class="node">
<title>StarRatingComponent</title>
<polygon fill="#ffffb3" stroke="black" points="273.71,-84.8 132.29,-84.8 132.29,-48.8 273.71,-48.8 273.71,-84.8"/>
<text text-anchor="middle" x="203" y="-62.6" font-family="Times,serif" font-size="14.00">StarRatingComponent</text>
</g>
<!-- StarRatingModule -->
<g id="node2" class="node">
<title>StarRatingModule</title>
<polygon fill="#8dd3c7" stroke="black" points="208.93,-149.8 205.93,-153.8 184.93,-153.8 181.93,-149.8 89.07,-149.8 89.07,-113.8 208.93,-113.8 208.93,-149.8"/>
<text text-anchor="middle" x="149" y="-127.6" font-family="Times,serif" font-size="14.00">StarRatingModule</text>
</g>
<!-- StarRatingComponent&#45;&gt;StarRatingModule -->
<g id="edge1" class="edge">
<title>StarRatingComponent&#45;&gt;StarRatingModule</title>
<path fill="none" stroke="black" d="M170.55,-84.91C170.55,-84.91 170.55,-103.79 170.55,-103.79"/>
<polygon fill="black" stroke="black" points="167.05,-103.79 170.55,-113.79 174.05,-103.79 167.05,-103.79"/>
</g>
<!-- StarRatingComponent  -->
<g id="node4" class="node">
<title>StarRatingComponent </title>
<polygon fill="#fb8072" stroke="black" points="221.21,-214.8 76.79,-214.8 76.79,-178.8 221.21,-178.8 221.21,-214.8"/>
<text text-anchor="middle" x="149" y="-192.6" font-family="Times,serif" font-size="14.00">StarRatingComponent </text>
</g>
<!-- StarRatingModule&#45;&gt;StarRatingComponent  -->
<g id="edge3" class="edge">
<title>StarRatingModule&#45;&gt;StarRatingComponent </title>
<path fill="none" stroke="black" stroke-dasharray="5,2" d="M149,-149.91C149,-149.91 149,-168.79 149,-168.79"/>
<polygon fill="black" stroke="black" points="145.5,-168.79 149,-178.79 152.5,-168.79 145.5,-168.79"/>
</g>
<!-- IconModule -->
<g id="node3" class="node">
<title>IconModule</title>
<polygon fill="#8dd3c7" stroke="black" points="108.43,-84.8 105.43,-88.8 84.43,-88.8 81.43,-84.8 23.57,-84.8 23.57,-48.8 108.43,-48.8 108.43,-84.8"/>
<text text-anchor="middle" x="66" y="-62.6" font-family="Times,serif" font-size="14.00">IconModule</text>
</g>
<!-- IconModule&#45;&gt;StarRatingModule -->
<g id="edge2" class="edge">
<title>IconModule&#45;&gt;StarRatingModule</title>
<path fill="none" stroke="black" d="M98.75,-84.91C98.75,-84.91 98.75,-103.79 98.75,-103.79"/>
<polygon fill="black" stroke="black" points="95.25,-103.79 98.75,-113.79 102.25,-103.79 95.25,-103.79"/>
</g>
</g>
</svg>
