<?xml version="1.0" encoding="UTF-8" standalone="no"?>
<!DOCTYPE svg PUBLIC "-//W3C//DTD SVG 1.1//EN"
 "http://www.w3.org/Graphics/SVG/1.1/DTD/svg11.dtd">
<!-- Generated by graphviz version 2.40.1 (20161225.0304)
 -->
<!-- Title: dependencies Pages: 1 -->
<svg width="504pt" height="284pt"
 viewBox="0.00 0.00 504.00 284.00" xmlns="http://www.w3.org/2000/svg" xmlns:xlink="http://www.w3.org/1999/xlink">
<g id="graph0" class="graph" transform="scale(1 1) rotate(0) translate(4 280)">
<title>dependencies</title>
<polygon fill="#ffffff" stroke="transparent" points="-4,4 -4,-280 500,-280 500,4 -4,4"/>
<text text-anchor="start" x="227.0091" y="-42.4" font-family="sans-serif" font-weight="bold" font-size="14.00" fill="#000000">Legend</text>
<polygon fill="#ffffb3" stroke="transparent" points="14,-10 14,-30 34,-30 34,-10 14,-10"/>
<text text-anchor="start" x="37.629" y="-15.4" font-family="sans-serif" font-size="14.00" fill="#000000"> &#160;Declarations</text>
<polygon fill="#8dd3c7" stroke="transparent" points="127,-10 127,-30 147,-30 147,-10 127,-10"/>
<text text-anchor="start" x="150.7251" y="-15.4" font-family="sans-serif" font-size="14.00" fill="#000000"> &#160;Module</text>
<polygon fill="#80b1d3" stroke="transparent" points="213,-10 213,-30 233,-30 233,-10 213,-10"/>
<text text-anchor="start" x="236.7812" y="-15.4" font-family="sans-serif" font-size="14.00" fill="#000000"> &#160;Bootstrap</text>
<polygon fill="#fdb462" stroke="transparent" points="310,-10 310,-30 330,-30 330,-10 310,-10"/>
<text text-anchor="start" x="333.6732" y="-15.4" font-family="sans-serif" font-size="14.00" fill="#000000"> &#160;Providers</text>
<polygon fill="#fb8072" stroke="transparent" points="406,-10 406,-30 426,-30 426,-10 406,-10"/>
<text text-anchor="start" x="429.7258" y="-15.4" font-family="sans-serif" font-size="14.00" fill="#000000"> &#160;Exports</text>
<g id="clust1" class="cluster">
<title>cluster_StarRatingModule</title>
<polygon fill="none" stroke="#000000" stroke-dasharray="1,5" points="107,-70 107,-268 389,-268 389,-70 107,-70"/>
</g>
<g id="clust2" class="cluster">
<title>cluster_StarRatingModule_declarations</title>
<polygon fill="none" stroke="#000000" points="223,-78 223,-130 381,-130 381,-78 223,-78"/>
</g>
<g id="clust4" class="cluster">
<title>cluster_StarRatingModule_imports</title>
<polygon fill="none" stroke="#000000" points="115,-78 115,-130 215,-130 215,-78 115,-78"/>
</g>
<g id="clust5" class="cluster">
<title>cluster_StarRatingModule_exports</title>
<polygon fill="none" stroke="#000000" points="168,-208 168,-260 328,-260 328,-208 168,-208"/>
</g>
<!-- StarRatingComponent -->
<g id="node1" class="node">
<title>StarRatingComponent</title>
<polygon fill="#ffffb3" stroke="#000000" points="372.7134,-122 231.2866,-122 231.2866,-86 372.7134,-86 372.7134,-122"/>
<text text-anchor="middle" x="302" y="-99.8" font-family="Times,serif" font-size="14.00" fill="#000000">StarRatingComponent</text>
</g>
<!-- StarRatingModule -->
<g id="node2" class="node">
<title>StarRatingModule</title>
<polygon fill="#8dd3c7" stroke="#000000" points="307.9314,-187 304.9314,-191 283.9314,-191 280.9314,-187 188.0686,-187 188.0686,-151 307.9314,-151 307.9314,-187"/>
<text text-anchor="middle" x="248" y="-164.8" font-family="Times,serif" font-size="14.00" fill="#000000">StarRatingModule</text>
</g>
<!-- StarRatingComponent&#45;&gt;StarRatingModule -->
<g id="edge1" class="edge">
<title>StarRatingComponent&#45;&gt;StarRatingModule</title>
<path fill="none" stroke="#000000" d="M269.5544,-122.1061C269.5544,-122.1061 269.5544,-140.991 269.5544,-140.991"/>
<polygon fill="#000000" stroke="#000000" points="266.0544,-140.9909 269.5544,-150.991 273.0544,-140.991 266.0544,-140.9909"/>
</g>
<!-- StarRatingComponent  -->
<g id="node4" class="node">
<title>StarRatingComponent </title>
<polygon fill="#fb8072" stroke="#000000" points="320.2135,-252 175.7865,-252 175.7865,-216 320.2135,-216 320.2135,-252"/>
<text text-anchor="middle" x="248" y="-229.8" font-family="Times,serif" font-size="14.00" fill="#000000">StarRatingComponent </text>
</g>
<!-- StarRatingModule&#45;&gt;StarRatingComponent  -->
<g id="edge3" class="edge">
<title>StarRatingModule&#45;&gt;StarRatingComponent </title>
<path fill="none" stroke="#000000" stroke-dasharray="5,2" d="M248,-187.1061C248,-187.1061 248,-205.991 248,-205.991"/>
<polygon fill="#000000" stroke="#000000" points="244.5001,-205.9909 248,-215.991 251.5001,-205.991 244.5001,-205.9909"/>
</g>
<!-- IconModule -->
<g id="node3" class="node">
<title>IconModule</title>
<polygon fill="#8dd3c7" stroke="#000000" points="207.4261,-122 204.4261,-126 183.4261,-126 180.4261,-122 122.5739,-122 122.5739,-86 207.4261,-86 207.4261,-122"/>
<text text-anchor="middle" x="165" y="-99.8" font-family="Times,serif" font-size="14.00" fill="#000000">IconModule</text>
</g>
<!-- IconModule&#45;&gt;StarRatingModule -->
<g id="edge2" class="edge">
<title>IconModule&#45;&gt;StarRatingModule</title>
<path fill="none" stroke="#000000" d="M197.7486,-122.1061C197.7486,-122.1061 197.7486,-140.991 197.7486,-140.991"/>
<polygon fill="#000000" stroke="#000000" points="194.2487,-140.9909 197.7486,-150.991 201.2487,-140.991 194.2487,-140.9909"/>
</g>
</g>
</svg>
