<?xml version="1.0" encoding="UTF-8" standalone="no"?>
<!DOCTYPE svg PUBLIC "-//W3C//DTD SVG 1.1//EN"
 "http://www.w3.org/Graphics/SVG/1.1/DTD/svg11.dtd">
<!-- Generated by graphviz version 2.44.1 (20200629.0846)
 -->
<!-- Title: dependencies Pages: 1 -->
<svg width="504pt" height="284pt"
 viewBox="0.00 0.00 504.00 284.00" xmlns="http://www.w3.org/2000/svg" xmlns:xlink="http://www.w3.org/1999/xlink">
<g id="graph0" class="graph" transform="scale(1 1) rotate(0) translate(4 280)">
<title>dependencies</title>
<polygon fill="white" stroke="transparent" points="-4,4 -4,-280 500,-280 500,4 -4,4"/>
<text text-anchor="start" x="227.01" y="-42.4" font-family="sans-serif" font-weight="bold" font-size="14.00">Legend</text>
<polygon fill="#ffffb3" stroke="transparent" points="14,-10 14,-30 34,-30 34,-10 14,-10"/>
<text text-anchor="start" x="37.63" y="-15.4" font-family="sans-serif" font-size="14.00"> &#160;Declarations</text>
<polygon fill="#8dd3c7" stroke="transparent" points="127,-10 127,-30 147,-30 147,-10 127,-10"/>
<text text-anchor="start" x="150.73" y="-15.4" font-family="sans-serif" font-size="14.00"> &#160;Module</text>
<polygon fill="#80b1d3" stroke="transparent" points="213,-10 213,-30 233,-30 233,-10 213,-10"/>
<text text-anchor="start" x="236.78" y="-15.4" font-family="sans-serif" font-size="14.00"> &#160;Bootstrap</text>
<polygon fill="#fdb462" stroke="transparent" points="310,-10 310,-30 330,-30 330,-10 310,-10"/>
<text text-anchor="start" x="333.67" y="-15.4" font-family="sans-serif" font-size="14.00"> &#160;Providers</text>
<polygon fill="#fb8072" stroke="transparent" points="406,-10 406,-30 426,-30 426,-10 406,-10"/>
<text text-anchor="start" x="429.73" y="-15.4" font-family="sans-serif" font-size="14.00"> &#160;Exports</text>
<g id="clust1" class="cluster">
<title>cluster_VariantStyleSelectorModule</title>
<polygon fill="none" stroke="black" stroke-dasharray="1,5" points="30,-70 30,-268 466,-268 466,-70 30,-70"/>
</g>
<g id="clust4" class="cluster">
<title>cluster_VariantStyleSelectorModule_imports</title>
<polygon fill="none" stroke="black" points="260,-78 260,-130 458,-130 458,-78 260,-78"/>
</g>
<g id="clust2" class="cluster">
<title>cluster_VariantStyleSelectorModule_declarations</title>
<polygon fill="none" stroke="black" points="38,-78 38,-130 252,-130 252,-78 38,-78"/>
</g>
<g id="clust5" class="cluster">
<title>cluster_VariantStyleSelectorModule_exports</title>
<polygon fill="none" stroke="black" points="198,-208 198,-260 416,-260 416,-208 198,-208"/>
</g>
<!-- VariantStyleSelectorComponent -->
<g id="node1" class="node">
<title>VariantStyleSelectorComponent</title>
<polygon fill="#ffffb3" stroke="black" points="243.96,-122 46.04,-122 46.04,-86 243.96,-86 243.96,-122"/>
<text text-anchor="middle" x="145" y="-99.8" font-family="Times,serif" font-size="14.00">VariantStyleSelectorComponent</text>
</g>
<!-- VariantStyleSelectorModule -->
<g id="node2" class="node">
<title>VariantStyleSelectorModule</title>
<polygon fill="#8dd3c7" stroke="black" points="395.17,-187 392.17,-191 371.17,-191 368.17,-187 218.83,-187 218.83,-151 395.17,-151 395.17,-187"/>
<text text-anchor="middle" x="307" y="-164.8" font-family="Times,serif" font-size="14.00">VariantStyleSelectorModule</text>
</g>
<!-- VariantStyleSelectorComponent&#45;&gt;VariantStyleSelectorModule -->
<g id="edge1" class="edge">
<title>VariantStyleSelectorComponent&#45;&gt;VariantStyleSelectorModule</title>
<path fill="none" stroke="black" d="M231.45,-122.11C231.45,-122.11 231.45,-140.99 231.45,-140.99"/>
<polygon fill="black" stroke="black" points="227.95,-140.99 231.45,-150.99 234.95,-140.99 227.95,-140.99"/>
</g>
<!-- VariantStyleSelectorComponent  -->
<g id="node5" class="node">
<title>VariantStyleSelectorComponent </title>
<polygon fill="#fb8072" stroke="black" points="407.96,-252 206.04,-252 206.04,-216 407.96,-216 407.96,-252"/>
<text text-anchor="middle" x="307" y="-229.8" font-family="Times,serif" font-size="14.00">VariantStyleSelectorComponent </text>
</g>
<!-- VariantStyleSelectorModule&#45;&gt;VariantStyleSelectorComponent  -->
<g id="edge4" class="edge">
<title>VariantStyleSelectorModule&#45;&gt;VariantStyleSelectorComponent </title>
<path fill="none" stroke="black" stroke-dasharray="5,2" d="M307,-187.11C307,-187.11 307,-205.99 307,-205.99"/>
<polygon fill="black" stroke="black" points="303.5,-205.99 307,-215.99 310.5,-205.99 303.5,-205.99"/>
</g>
<!-- I18nModule -->
<g id="node3" class="node">
<title>I18nModule</title>
<polygon fill="#8dd3c7" stroke="black" points="449.71,-122 446.71,-126 425.71,-126 422.71,-122 364.29,-122 364.29,-86 449.71,-86 449.71,-122"/>
<text text-anchor="middle" x="407" y="-99.8" font-family="Times,serif" font-size="14.00">I18nModule</text>
</g>
<!-- I18nModule&#45;&gt;VariantStyleSelectorModule -->
<g id="edge2" class="edge">
<title>I18nModule&#45;&gt;VariantStyleSelectorModule</title>
<path fill="none" stroke="black" d="M379.74,-122.11C379.74,-122.11 379.74,-140.99 379.74,-140.99"/>
<polygon fill="black" stroke="black" points="376.24,-140.99 379.74,-150.99 383.24,-140.99 376.24,-140.99"/>
</g>
<!-- UrlModule -->
<g id="node4" class="node">
<title>UrlModule</title>
<polygon fill="#8dd3c7" stroke="black" points="346.21,-122 343.21,-126 322.21,-126 319.21,-122 267.79,-122 267.79,-86 346.21,-86 346.21,-122"/>
<text text-anchor="middle" x="307" y="-99.8" font-family="Times,serif" font-size="14.00">UrlModule</text>
</g>
<!-- UrlModule&#45;&gt;VariantStyleSelectorModule -->
<g id="edge3" class="edge">
<title>UrlModule&#45;&gt;VariantStyleSelectorModule</title>
<path fill="none" stroke="black" d="M307,-122.11C307,-122.11 307,-140.99 307,-140.99"/>
<polygon fill="black" stroke="black" points="303.5,-140.99 307,-150.99 310.5,-140.99 303.5,-140.99"/>
</g>
</g>
</svg>
