<?xml version="1.0" encoding="UTF-8" standalone="no"?>
<!DOCTYPE svg PUBLIC "-//W3C//DTD SVG 1.1//EN"
 "http://www.w3.org/Graphics/SVG/1.1/DTD/svg11.dtd">
<!-- Generated by graphviz version 2.40.1 (20161225.0304)
 -->
<!-- Title: dependencies Pages: 1 -->
<svg width="504pt" height="284pt"
 viewBox="0.00 0.00 504.00 284.00" xmlns="http://www.w3.org/2000/svg" xmlns:xlink="http://www.w3.org/1999/xlink">
<g id="graph0" class="graph" transform="scale(1 1) rotate(0) translate(4 280)">
<title>dependencies</title>
<polygon fill="#ffffff" stroke="transparent" points="-4,4 -4,-280 500,-280 500,4 -4,4"/>
<text text-anchor="start" x="227.0091" y="-42.4" font-family="sans-serif" font-weight="bold" font-size="14.00" fill="#000000">Legend</text>
<polygon fill="#ffffb3" stroke="transparent" points="14,-10 14,-30 34,-30 34,-10 14,-10"/>
<text text-anchor="start" x="37.629" y="-15.4" font-family="sans-serif" font-size="14.00" fill="#000000"> &#160;Declarations</text>
<polygon fill="#8dd3c7" stroke="transparent" points="127,-10 127,-30 147,-30 147,-10 127,-10"/>
<text text-anchor="start" x="150.7251" y="-15.4" font-family="sans-serif" font-size="14.00" fill="#000000"> &#160;Module</text>
<polygon fill="#80b1d3" stroke="transparent" points="213,-10 213,-30 233,-30 233,-10 213,-10"/>
<text text-anchor="start" x="236.7812" y="-15.4" font-family="sans-serif" font-size="14.00" fill="#000000"> &#160;Bootstrap</text>
<polygon fill="#fdb462" stroke="transparent" points="310,-10 310,-30 330,-30 330,-10 310,-10"/>
<text text-anchor="start" x="333.6732" y="-15.4" font-family="sans-serif" font-size="14.00" fill="#000000"> &#160;Providers</text>
<polygon fill="#fb8072" stroke="transparent" points="406,-10 406,-30 426,-30 426,-10 406,-10"/>
<text text-anchor="start" x="429.7258" y="-15.4" font-family="sans-serif" font-size="14.00" fill="#000000"> &#160;Exports</text>
<g id="clust1" class="cluster">
<title>cluster_VariantStyleSelectorModule</title>
<polygon fill="none" stroke="#000000" stroke-dasharray="1,5" points="30,-70 30,-268 466,-268 466,-70 30,-70"/>
</g>
<g id="clust2" class="cluster">
<title>cluster_VariantStyleSelectorModule_declarations</title>
<polygon fill="none" stroke="#000000" points="244,-78 244,-130 458,-130 458,-78 244,-78"/>
</g>
<g id="clust4" class="cluster">
<title>cluster_VariantStyleSelectorModule_imports</title>
<polygon fill="none" stroke="#000000" points="38,-78 38,-130 236,-130 236,-78 38,-78"/>
</g>
<g id="clust5" class="cluster">
<title>cluster_VariantStyleSelectorModule_exports</title>
<polygon fill="none" stroke="#000000" points="76,-208 76,-260 294,-260 294,-208 76,-208"/>
</g>
<!-- VariantStyleSelectorComponent -->
<g id="node1" class="node">
<title>VariantStyleSelectorComponent</title>
<polygon fill="#ffffb3" stroke="#000000" points="449.9566,-122 252.0434,-122 252.0434,-86 449.9566,-86 449.9566,-122"/>
<text text-anchor="middle" x="351" y="-99.8" font-family="Times,serif" font-size="14.00" fill="#000000">VariantStyleSelectorComponent</text>
</g>
<!-- VariantStyleSelectorModule -->
<g id="node2" class="node">
<title>VariantStyleSelectorModule</title>
<polygon fill="#8dd3c7" stroke="#000000" points="273.1741,-187 270.1741,-191 249.1741,-191 246.1741,-187 96.8259,-187 96.8259,-151 273.1741,-151 273.1741,-187"/>
<text text-anchor="middle" x="185" y="-164.8" font-family="Times,serif" font-size="14.00" fill="#000000">VariantStyleSelectorModule</text>
</g>
<!-- VariantStyleSelectorComponent&#45;&gt;VariantStyleSelectorModule -->
<g id="edge1" class="edge">
<title>VariantStyleSelectorComponent&#45;&gt;VariantStyleSelectorModule</title>
<path fill="none" stroke="#000000" d="M262.5544,-122.1061C262.5544,-122.1061 262.5544,-140.991 262.5544,-140.991"/>
<polygon fill="#000000" stroke="#000000" points="259.0544,-140.9909 262.5544,-150.991 266.0544,-140.991 259.0544,-140.9909"/>
</g>
<!-- VariantStyleSelectorComponent  -->
<g id="node5" class="node">
<title>VariantStyleSelectorComponent </title>
<polygon fill="#fb8072" stroke="#000000" points="285.9571,-252 84.0429,-252 84.0429,-216 285.9571,-216 285.9571,-252"/>
<text text-anchor="middle" x="185" y="-229.8" font-family="Times,serif" font-size="14.00" fill="#000000">VariantStyleSelectorComponent </text>
</g>
<!-- VariantStyleSelectorModule&#45;&gt;VariantStyleSelectorComponent  -->
<g id="edge4" class="edge">
<title>VariantStyleSelectorModule&#45;&gt;VariantStyleSelectorComponent </title>
<path fill="none" stroke="#000000" stroke-dasharray="5,2" d="M185,-187.1061C185,-187.1061 185,-205.991 185,-205.991"/>
<polygon fill="#000000" stroke="#000000" points="181.5001,-205.9909 185,-215.991 188.5001,-205.991 181.5001,-205.9909"/>
</g>
<!-- I18nModule -->
<g id="node3" class="node">
<title>I18nModule</title>
<polygon fill="#8dd3c7" stroke="#000000" points="227.7107,-122 224.7107,-126 203.7107,-126 200.7107,-122 142.2893,-122 142.2893,-86 227.7107,-86 227.7107,-122"/>
<text text-anchor="middle" x="185" y="-99.8" font-family="Times,serif" font-size="14.00" fill="#000000">I18nModule</text>
</g>
<!-- I18nModule&#45;&gt;VariantStyleSelectorModule -->
<g id="edge2" class="edge">
<title>I18nModule&#45;&gt;VariantStyleSelectorModule</title>
<path fill="none" stroke="#000000" d="M185,-122.1061C185,-122.1061 185,-140.991 185,-140.991"/>
<polygon fill="#000000" stroke="#000000" points="181.5001,-140.9909 185,-150.991 188.5001,-140.991 181.5001,-140.9909"/>
</g>
<!-- UrlModule -->
<g id="node4" class="node">
<title>UrlModule</title>
<polygon fill="#8dd3c7" stroke="#000000" points="124.2079,-122 121.2079,-126 100.2079,-126 97.2079,-122 45.7921,-122 45.7921,-86 124.2079,-86 124.2079,-122"/>
<text text-anchor="middle" x="85" y="-99.8" font-family="Times,serif" font-size="14.00" fill="#000000">UrlModule</text>
</g>
<!-- UrlModule&#45;&gt;VariantStyleSelectorModule -->
<g id="edge3" class="edge">
<title>UrlModule&#45;&gt;VariantStyleSelectorModule</title>
<path fill="none" stroke="#000000" d="M110.5084,-122.1061C110.5084,-122.1061 110.5084,-140.991 110.5084,-140.991"/>
<polygon fill="#000000" stroke="#000000" points="107.0085,-140.9909 110.5084,-150.991 114.0085,-140.991 107.0085,-140.9909"/>
</g>
</g>
</svg>
