<?xml version="1.0" encoding="UTF-8" standalone="no"?>
<!DOCTYPE svg PUBLIC "-//W3C//DTD SVG 1.1//EN"
 "http://www.w3.org/Graphics/SVG/1.1/DTD/svg11.dtd">
<!-- Generated by graphviz version 2.47.3 (20210619.1520)
 -->
<!-- Title: dependencies Pages: 1 -->
<svg width="460pt" height="247pt"
 viewBox="0.00 0.00 460.00 246.80" xmlns="http://www.w3.org/2000/svg" xmlns:xlink="http://www.w3.org/1999/xlink">
<g id="graph0" class="graph" transform="scale(1 1) rotate(0) translate(4 242.8)">
<title>dependencies</title>
<polygon fill="white" stroke="transparent" points="-4,4 -4,-242.8 456,-242.8 456,4 -4,4"/>
<text text-anchor="middle" x="226" y="-8.2" font-family="sans-serif" font-size="14.00">dependencies</text>
<g id="clust1" class="cluster">
<title>cluster_VariantStyleSelectorModule</title>
<polygon fill="none" stroke="black" stroke-dasharray="1,5" points="8,-32.8 8,-230.8 444,-230.8 444,-32.8 8,-32.8"/>
</g>
<g id="clust2" class="cluster">
<title>cluster_VariantStyleSelectorModule_declarations</title>
<polygon fill="none" stroke="black" points="222,-40.8 222,-92.8 436,-92.8 436,-40.8 222,-40.8"/>
</g>
<g id="clust5" class="cluster">
<title>cluster_VariantStyleSelectorModule_exports</title>
<polygon fill="none" stroke="black" points="54,-170.8 54,-222.8 272,-222.8 272,-170.8 54,-170.8"/>
</g>
<g id="clust4" class="cluster">
<title>cluster_VariantStyleSelectorModule_imports</title>
<polygon fill="none" stroke="black" points="16,-40.8 16,-92.8 214,-92.8 214,-40.8 16,-40.8"/>
</g>
<!-- VariantStyleSelectorComponent -->
<g id="node1" class="node">
<title>VariantStyleSelectorComponent</title>
<polygon fill="#ffffb3" stroke="black" points="427.96,-84.8 230.04,-84.8 230.04,-48.8 427.96,-48.8 427.96,-84.8"/>
<text text-anchor="middle" x="329" y="-62.6" font-family="Times,serif" font-size="14.00">VariantStyleSelectorComponent</text>
</g>
<!-- VariantStyleSelectorModule -->
<g id="node2" class="node">
<title>VariantStyleSelectorModule</title>
<polygon fill="#8dd3c7" stroke="black" points="251.17,-149.8 248.17,-153.8 227.17,-153.8 224.17,-149.8 74.83,-149.8 74.83,-113.8 251.17,-113.8 251.17,-149.8"/>
<text text-anchor="middle" x="163" y="-127.6" font-family="Times,serif" font-size="14.00">VariantStyleSelectorModule</text>
</g>
<!-- VariantStyleSelectorComponent&#45;&gt;VariantStyleSelectorModule -->
<g id="edge1" class="edge">
<title>VariantStyleSelectorComponent&#45;&gt;VariantStyleSelectorModule</title>
<path fill="none" stroke="black" d="M240.55,-84.91C240.55,-84.91 240.55,-103.79 240.55,-103.79"/>
<polygon fill="black" stroke="black" points="237.05,-103.79 240.55,-113.79 244.05,-103.79 237.05,-103.79"/>
</g>
<!-- VariantStyleSelectorComponent  -->
<g id="node5" class="node">
<title>VariantStyleSelectorComponent </title>
<polygon fill="#fb8072" stroke="black" points="263.96,-214.8 62.04,-214.8 62.04,-178.8 263.96,-178.8 263.96,-214.8"/>
<text text-anchor="middle" x="163" y="-192.6" font-family="Times,serif" font-size="14.00">VariantStyleSelectorComponent </text>
</g>
<!-- VariantStyleSelectorModule&#45;&gt;VariantStyleSelectorComponent  -->
<g id="edge4" class="edge">
<title>VariantStyleSelectorModule&#45;&gt;VariantStyleSelectorComponent </title>
<path fill="none" stroke="black" stroke-dasharray="5,2" d="M163,-149.91C163,-149.91 163,-168.79 163,-168.79"/>
<polygon fill="black" stroke="black" points="159.5,-168.79 163,-178.79 166.5,-168.79 159.5,-168.79"/>
</g>
<!-- I18nModule -->
<g id="node3" class="node">
<title>I18nModule</title>
<polygon fill="#8dd3c7" stroke="black" points="205.71,-84.8 202.71,-88.8 181.71,-88.8 178.71,-84.8 120.29,-84.8 120.29,-48.8 205.71,-48.8 205.71,-84.8"/>
<text text-anchor="middle" x="163" y="-62.6" font-family="Times,serif" font-size="14.00">I18nModule</text>
</g>
<!-- I18nModule&#45;&gt;VariantStyleSelectorModule -->
<g id="edge2" class="edge">
<title>I18nModule&#45;&gt;VariantStyleSelectorModule</title>
<path fill="none" stroke="black" d="M163,-84.91C163,-84.91 163,-103.79 163,-103.79"/>
<polygon fill="black" stroke="black" points="159.5,-103.79 163,-113.79 166.5,-103.79 159.5,-103.79"/>
</g>
<!-- UrlModule -->
<g id="node4" class="node">
<title>UrlModule</title>
<polygon fill="#8dd3c7" stroke="black" points="102.21,-84.8 99.21,-88.8 78.21,-88.8 75.21,-84.8 23.79,-84.8 23.79,-48.8 102.21,-48.8 102.21,-84.8"/>
<text text-anchor="middle" x="63" y="-62.6" font-family="Times,serif" font-size="14.00">UrlModule</text>
</g>
<!-- UrlModule&#45;&gt;VariantStyleSelectorModule -->
<g id="edge3" class="edge">
<title>UrlModule&#45;&gt;VariantStyleSelectorModule</title>
<path fill="none" stroke="black" d="M88.51,-84.91C88.51,-84.91 88.51,-103.79 88.51,-103.79"/>
<polygon fill="black" stroke="black" points="85.01,-103.79 88.51,-113.79 92.01,-103.79 85.01,-103.79"/>
</g>
</g>
</svg>
