<?xml version="1.0" encoding="UTF-8" standalone="no"?>
<!DOCTYPE svg PUBLIC "-//W3C//DTD SVG 1.1//EN"
 "http://www.w3.org/Graphics/SVG/1.1/DTD/svg11.dtd">
<!-- Generated by graphviz version 2.47.3 (20210619.1520)
 -->
<!-- Title: dependencies Pages: 1 -->
<svg width="506pt" height="247pt"
 viewBox="0.00 0.00 506.00 246.80" xmlns="http://www.w3.org/2000/svg" xmlns:xlink="http://www.w3.org/1999/xlink">
<g id="graph0" class="graph" transform="scale(1 1) rotate(0) translate(4 242.8)">
<title>dependencies</title>
<polygon fill="white" stroke="transparent" points="-4,4 -4,-242.8 502,-242.8 502,4 -4,4"/>
<text text-anchor="middle" x="249" y="-8.2" font-family="sans-serif" font-size="14.00">dependencies</text>
<g id="clust1" class="cluster">
<title>cluster_ProductVariantColorSelectorModule</title>
<polygon fill="none" stroke="black" stroke-dasharray="1,5" points="8,-32.8 8,-230.8 490,-230.8 490,-32.8 8,-32.8"/>
</g>
<g id="clust4" class="cluster">
<title>cluster_ProductVariantColorSelectorModule_imports</title>
<polygon fill="none" stroke="black" points="284,-40.8 284,-92.8 482,-92.8 482,-40.8 284,-40.8"/>
</g>
<g id="clust5" class="cluster">
<title>cluster_ProductVariantColorSelectorModule_exports</title>
<polygon fill="none" stroke="black" points="199,-170.8 199,-222.8 463,-222.8 463,-170.8 199,-170.8"/>
</g>
<g id="clust2" class="cluster">
<title>cluster_ProductVariantColorSelectorModule_declarations</title>
<polygon fill="none" stroke="black" points="16,-40.8 16,-92.8 276,-92.8 276,-40.8 16,-40.8"/>
</g>
<!-- ProductVariantColorSelectorComponent -->
<g id="node1" class="node">
<title>ProductVariantColorSelectorComponent</title>
<polygon fill="#ffffb3" stroke="black" points="268.11,-84.8 23.89,-84.8 23.89,-48.8 268.11,-48.8 268.11,-84.8"/>
<text text-anchor="middle" x="146" y="-62.6" font-family="Times,serif" font-size="14.00">ProductVariantColorSelectorComponent</text>
</g>
<!-- ProductVariantColorSelectorModule -->
<g id="node2" class="node">
<title>ProductVariantColorSelectorModule</title>
<polygon fill="#8dd3c7" stroke="black" points="442.33,-149.8 439.33,-153.8 418.33,-153.8 415.33,-149.8 219.67,-149.8 219.67,-113.8 442.33,-113.8 442.33,-149.8"/>
<text text-anchor="middle" x="331" y="-127.6" font-family="Times,serif" font-size="14.00">ProductVariantColorSelectorModule</text>
</g>
<!-- ProductVariantColorSelectorComponent&#45;&gt;ProductVariantColorSelectorModule -->
<g id="edge1" class="edge">
<title>ProductVariantColorSelectorComponent&#45;&gt;ProductVariantColorSelectorModule</title>
<path fill="none" stroke="black" d="M243.95,-84.91C243.95,-84.91 243.95,-103.79 243.95,-103.79"/>
<polygon fill="black" stroke="black" points="240.45,-103.79 243.95,-113.79 247.45,-103.79 240.45,-103.79"/>
</g>
<!-- ProductVariantColorSelectorComponent  -->
<g id="node5" class="node">
<title>ProductVariantColorSelectorComponent </title>
<polygon fill="#fb8072" stroke="black" points="455.11,-214.8 206.89,-214.8 206.89,-178.8 455.11,-178.8 455.11,-214.8"/>
<text text-anchor="middle" x="331" y="-192.6" font-family="Times,serif" font-size="14.00">ProductVariantColorSelectorComponent </text>
</g>
<!-- ProductVariantColorSelectorModule&#45;&gt;ProductVariantColorSelectorComponent  -->
<g id="edge4" class="edge">
<title>ProductVariantColorSelectorModule&#45;&gt;ProductVariantColorSelectorComponent </title>
<path fill="none" stroke="black" stroke-dasharray="5,2" d="M331,-149.91C331,-149.91 331,-168.79 331,-168.79"/>
<polygon fill="black" stroke="black" points="327.5,-168.79 331,-178.79 334.5,-168.79 327.5,-168.79"/>
</g>
<!-- I18nModule -->
<g id="node3" class="node">
<title>I18nModule</title>
<polygon fill="#8dd3c7" stroke="black" points="473.71,-84.8 470.71,-88.8 449.71,-88.8 446.71,-84.8 388.29,-84.8 388.29,-48.8 473.71,-48.8 473.71,-84.8"/>
<text text-anchor="middle" x="431" y="-62.6" font-family="Times,serif" font-size="14.00">I18nModule</text>
</g>
<!-- I18nModule&#45;&gt;ProductVariantColorSelectorModule -->
<g id="edge2" class="edge">
<title>I18nModule&#45;&gt;ProductVariantColorSelectorModule</title>
<path fill="none" stroke="black" d="M415.41,-84.91C415.41,-84.91 415.41,-103.79 415.41,-103.79"/>
<polygon fill="black" stroke="black" points="411.91,-103.79 415.41,-113.79 418.91,-103.79 411.91,-103.79"/>
</g>
<!-- UrlModule -->
<g id="node4" class="node">
<title>UrlModule</title>
<polygon fill="#8dd3c7" stroke="black" points="370.21,-84.8 367.21,-88.8 346.21,-88.8 343.21,-84.8 291.79,-84.8 291.79,-48.8 370.21,-48.8 370.21,-84.8"/>
<text text-anchor="middle" x="331" y="-62.6" font-family="Times,serif" font-size="14.00">UrlModule</text>
</g>
<!-- UrlModule&#45;&gt;ProductVariantColorSelectorModule -->
<g id="edge3" class="edge">
<title>UrlModule&#45;&gt;ProductVariantColorSelectorModule</title>
<path fill="none" stroke="black" d="M331,-84.91C331,-84.91 331,-103.79 331,-103.79"/>
<polygon fill="black" stroke="black" points="327.5,-103.79 331,-113.79 334.5,-103.79 327.5,-103.79"/>
</g>
</g>
</svg>
