<?xml version="1.0" encoding="UTF-8" standalone="no"?>
<!DOCTYPE svg PUBLIC "-//W3C//DTD SVG 1.1//EN"
 "http://www.w3.org/Graphics/SVG/1.1/DTD/svg11.dtd">
<!-- Generated by graphviz version 2.40.1 (20161225.0304)
 -->
<!-- Title: dependencies Pages: 1 -->
<svg width="506pt" height="284pt"
 viewBox="0.00 0.00 506.00 284.00" xmlns="http://www.w3.org/2000/svg" xmlns:xlink="http://www.w3.org/1999/xlink">
<g id="graph0" class="graph" transform="scale(1 1) rotate(0) translate(4 280)">
<title>dependencies</title>
<polygon fill="#ffffff" stroke="transparent" points="-4,4 -4,-280 502,-280 502,4 -4,4"/>
<text text-anchor="start" x="228.0091" y="-42.4" font-family="sans-serif" font-weight="bold" font-size="14.00" fill="#000000">Legend</text>
<polygon fill="#ffffb3" stroke="transparent" points="15,-10 15,-30 35,-30 35,-10 15,-10"/>
<text text-anchor="start" x="38.629" y="-15.4" font-family="sans-serif" font-size="14.00" fill="#000000"> &#160;Declarations</text>
<polygon fill="#8dd3c7" stroke="transparent" points="128,-10 128,-30 148,-30 148,-10 128,-10"/>
<text text-anchor="start" x="151.7251" y="-15.4" font-family="sans-serif" font-size="14.00" fill="#000000"> &#160;Module</text>
<polygon fill="#80b1d3" stroke="transparent" points="214,-10 214,-30 234,-30 234,-10 214,-10"/>
<text text-anchor="start" x="237.7812" y="-15.4" font-family="sans-serif" font-size="14.00" fill="#000000"> &#160;Bootstrap</text>
<polygon fill="#fdb462" stroke="transparent" points="311,-10 311,-30 331,-30 331,-10 311,-10"/>
<text text-anchor="start" x="334.6732" y="-15.4" font-family="sans-serif" font-size="14.00" fill="#000000"> &#160;Providers</text>
<polygon fill="#fb8072" stroke="transparent" points="407,-10 407,-30 427,-30 427,-10 407,-10"/>
<text text-anchor="start" x="430.7258" y="-15.4" font-family="sans-serif" font-size="14.00" fill="#000000"> &#160;Exports</text>
<g id="clust1" class="cluster">
<title>cluster_ProductVariantColorSelectorModule</title>
<polygon fill="none" stroke="#000000" stroke-dasharray="1,5" points="8,-70 8,-268 490,-268 490,-70 8,-70"/>
</g>
<g id="clust2" class="cluster">
<title>cluster_ProductVariantColorSelectorModule_declarations</title>
<polygon fill="none" stroke="#000000" points="222,-78 222,-130 482,-130 482,-78 222,-78"/>
</g>
<g id="clust4" class="cluster">
<title>cluster_ProductVariantColorSelectorModule_imports</title>
<polygon fill="none" stroke="#000000" points="16,-78 16,-130 214,-130 214,-78 16,-78"/>
</g>
<g id="clust5" class="cluster">
<title>cluster_ProductVariantColorSelectorModule_exports</title>
<polygon fill="none" stroke="#000000" points="31,-208 31,-260 295,-260 295,-208 31,-208"/>
</g>
<!-- ProductVariantColorSelectorComponent -->
<g id="node1" class="node">
<title>ProductVariantColorSelectorComponent</title>
<polygon fill="#ffffb3" stroke="#000000" points="474.1147,-122 229.8853,-122 229.8853,-86 474.1147,-86 474.1147,-122"/>
<text text-anchor="middle" x="352" y="-99.8" font-family="Times,serif" font-size="14.00" fill="#000000">ProductVariantColorSelectorComponent</text>
</g>
<!-- ProductVariantColorSelectorModule -->
<g id="node2" class="node">
<title>ProductVariantColorSelectorModule</title>
<polygon fill="#8dd3c7" stroke="#000000" points="274.3319,-187 271.3319,-191 250.3319,-191 247.3319,-187 51.6681,-187 51.6681,-151 274.3319,-151 274.3319,-187"/>
<text text-anchor="middle" x="163" y="-164.8" font-family="Times,serif" font-size="14.00" fill="#000000">ProductVariantColorSelectorModule</text>
</g>
<!-- ProductVariantColorSelectorComponent&#45;&gt;ProductVariantColorSelectorModule -->
<g id="edge1" class="edge">
<title>ProductVariantColorSelectorComponent&#45;&gt;ProductVariantColorSelectorModule</title>
<path fill="none" stroke="#000000" d="M252.0544,-122.1061C252.0544,-122.1061 252.0544,-140.991 252.0544,-140.991"/>
<polygon fill="#000000" stroke="#000000" points="248.5544,-140.9909 252.0544,-150.991 255.5544,-140.991 248.5544,-140.9909"/>
</g>
<!-- ProductVariantColorSelectorComponent  -->
<g id="node5" class="node">
<title>ProductVariantColorSelectorComponent </title>
<polygon fill="#fb8072" stroke="#000000" points="287.1144,-252 38.8856,-252 38.8856,-216 287.1144,-216 287.1144,-252"/>
<text text-anchor="middle" x="163" y="-229.8" font-family="Times,serif" font-size="14.00" fill="#000000">ProductVariantColorSelectorComponent </text>
</g>
<!-- ProductVariantColorSelectorModule&#45;&gt;ProductVariantColorSelectorComponent  -->
<g id="edge4" class="edge">
<title>ProductVariantColorSelectorModule&#45;&gt;ProductVariantColorSelectorComponent </title>
<path fill="none" stroke="#000000" stroke-dasharray="5,2" d="M163,-187.1061C163,-187.1061 163,-205.991 163,-205.991"/>
<polygon fill="#000000" stroke="#000000" points="159.5001,-205.9909 163,-215.991 166.5001,-205.991 159.5001,-205.9909"/>
</g>
<!-- I18nModule -->
<g id="node3" class="node">
<title>I18nModule</title>
<polygon fill="#8dd3c7" stroke="#000000" points="205.7107,-122 202.7107,-126 181.7107,-126 178.7107,-122 120.2893,-122 120.2893,-86 205.7107,-86 205.7107,-122"/>
<text text-anchor="middle" x="163" y="-99.8" font-family="Times,serif" font-size="14.00" fill="#000000">I18nModule</text>
</g>
<!-- I18nModule&#45;&gt;ProductVariantColorSelectorModule -->
<g id="edge2" class="edge">
<title>I18nModule&#45;&gt;ProductVariantColorSelectorModule</title>
<path fill="none" stroke="#000000" d="M163,-122.1061C163,-122.1061 163,-140.991 163,-140.991"/>
<polygon fill="#000000" stroke="#000000" points="159.5001,-140.9909 163,-150.991 166.5001,-140.991 159.5001,-140.9909"/>
</g>
<!-- UrlModule -->
<g id="node4" class="node">
<title>UrlModule</title>
<polygon fill="#8dd3c7" stroke="#000000" points="102.2079,-122 99.2079,-126 78.2079,-126 75.2079,-122 23.7921,-122 23.7921,-86 102.2079,-86 102.2079,-122"/>
<text text-anchor="middle" x="63" y="-99.8" font-family="Times,serif" font-size="14.00" fill="#000000">UrlModule</text>
</g>
<!-- UrlModule&#45;&gt;ProductVariantColorSelectorModule -->
<g id="edge3" class="edge">
<title>UrlModule&#45;&gt;ProductVariantColorSelectorModule</title>
<path fill="none" stroke="#000000" d="M76.844,-122.1061C76.844,-122.1061 76.844,-140.991 76.844,-140.991"/>
<polygon fill="#000000" stroke="#000000" points="73.344,-140.9909 76.844,-150.991 80.344,-140.991 73.344,-140.9909"/>
</g>
</g>
</svg>
