<?xml version="1.0" encoding="UTF-8" standalone="no"?>
<!DOCTYPE svg PUBLIC "-//W3C//DTD SVG 1.1//EN"
 "http://www.w3.org/Graphics/SVG/1.1/DTD/svg11.dtd">
<!-- Generated by graphviz version 2.40.1 (20161225.0304)
 -->
<!-- Title: dependencies Pages: 1 -->
<svg width="504pt" height="284pt"
 viewBox="0.00 0.00 504.00 284.00" xmlns="http://www.w3.org/2000/svg" xmlns:xlink="http://www.w3.org/1999/xlink">
<g id="graph0" class="graph" transform="scale(1 1) rotate(0) translate(4 280)">
<title>dependencies</title>
<polygon fill="#ffffff" stroke="transparent" points="-4,4 -4,-280 500,-280 500,4 -4,4"/>
<text text-anchor="start" x="227.0091" y="-42.4" font-family="sans-serif" font-weight="bold" font-size="14.00" fill="#000000">Legend</text>
<polygon fill="#ffffb3" stroke="transparent" points="14,-10 14,-30 34,-30 34,-10 14,-10"/>
<text text-anchor="start" x="37.629" y="-15.4" font-family="sans-serif" font-size="14.00" fill="#000000"> &#160;Declarations</text>
<polygon fill="#8dd3c7" stroke="transparent" points="127,-10 127,-30 147,-30 147,-10 127,-10"/>
<text text-anchor="start" x="150.7251" y="-15.4" font-family="sans-serif" font-size="14.00" fill="#000000"> &#160;Module</text>
<polygon fill="#80b1d3" stroke="transparent" points="213,-10 213,-30 233,-30 233,-10 213,-10"/>
<text text-anchor="start" x="236.7812" y="-15.4" font-family="sans-serif" font-size="14.00" fill="#000000"> &#160;Bootstrap</text>
<polygon fill="#fdb462" stroke="transparent" points="310,-10 310,-30 330,-30 330,-10 310,-10"/>
<text text-anchor="start" x="333.6732" y="-15.4" font-family="sans-serif" font-size="14.00" fill="#000000"> &#160;Providers</text>
<polygon fill="#fb8072" stroke="transparent" points="406,-10 406,-30 426,-30 426,-10 406,-10"/>
<text text-anchor="start" x="429.7258" y="-15.4" font-family="sans-serif" font-size="14.00" fill="#000000"> &#160;Exports</text>
<g id="clust1" class="cluster">
<title>cluster_LoginModule</title>
<polygon fill="none" stroke="#000000" stroke-dasharray="1,5" points="8.5,-70 8.5,-268 487.5,-268 487.5,-70 8.5,-70"/>
</g>
<g id="clust2" class="cluster">
<title>cluster_LoginModule_declarations</title>
<polygon fill="none" stroke="#000000" points="349.5,-78 349.5,-130 479.5,-130 479.5,-78 349.5,-78"/>
</g>
<g id="clust4" class="cluster">
<title>cluster_LoginModule_imports</title>
<polygon fill="none" stroke="#000000" points="16.5,-78 16.5,-130 341.5,-130 341.5,-78 16.5,-78"/>
</g>
<g id="clust5" class="cluster">
<title>cluster_LoginModule_exports</title>
<polygon fill="none" stroke="#000000" points="165.5,-208 165.5,-260 299.5,-260 299.5,-208 165.5,-208"/>
</g>
<!-- LoginComponent -->
<g id="node1" class="node">
<title>LoginComponent</title>
<polygon fill="#ffffb3" stroke="#000000" points="471.7758,-122 357.2242,-122 357.2242,-86 471.7758,-86 471.7758,-122"/>
<text text-anchor="middle" x="414.5" y="-99.8" font-family="Times,serif" font-size="14.00" fill="#000000">LoginComponent</text>
</g>
<!-- LoginModule -->
<g id="node2" class="node">
<title>LoginModule</title>
<polygon fill="#8dd3c7" stroke="#000000" points="278.993,-187 275.993,-191 254.993,-191 251.993,-187 186.007,-187 186.007,-151 278.993,-151 278.993,-187"/>
<text text-anchor="middle" x="232.5" y="-164.8" font-family="Times,serif" font-size="14.00" fill="#000000">LoginModule</text>
</g>
<!-- LoginComponent&#45;&gt;LoginModule -->
<g id="edge1" class="edge">
<title>LoginComponent&#45;&gt;LoginModule</title>
<path fill="none" stroke="#000000" d="M414.5,-122.1061C414.5,-141.3391 414.5,-169 414.5,-169 414.5,-169 289.3695,-169 289.3695,-169"/>
<polygon fill="#000000" stroke="#000000" points="289.3696,-165.5001 279.3695,-169 289.3695,-172.5001 289.3696,-165.5001"/>
</g>
<!-- LoginComponent  -->
<g id="node6" class="node">
<title>LoginComponent </title>
<polygon fill="#fb8072" stroke="#000000" points="291.7759,-252 173.2241,-252 173.2241,-216 291.7759,-216 291.7759,-252"/>
<text text-anchor="middle" x="232.5" y="-229.8" font-family="Times,serif" font-size="14.00" fill="#000000">LoginComponent </text>
</g>
<!-- LoginModule&#45;&gt;LoginComponent  -->
<g id="edge5" class="edge">
<title>LoginModule&#45;&gt;LoginComponent </title>
<path fill="none" stroke="#000000" stroke-dasharray="5,2" d="M232.5,-187.1061C232.5,-187.1061 232.5,-205.991 232.5,-205.991"/>
<polygon fill="#000000" stroke="#000000" points="229.0001,-205.9909 232.5,-215.991 236.0001,-205.991 229.0001,-205.9909"/>
</g>
<!-- I18nModule -->
<g id="node3" class="node">
<title>I18nModule</title>
<polygon fill="#8dd3c7" stroke="#000000" points="333.2107,-122 330.2107,-126 309.2107,-126 306.2107,-122 247.7893,-122 247.7893,-86 333.2107,-86 333.2107,-122"/>
<text text-anchor="middle" x="290.5" y="-99.8" font-family="Times,serif" font-size="14.00" fill="#000000">I18nModule</text>
</g>
<!-- I18nModule&#45;&gt;LoginModule -->
<g id="edge2" class="edge">
<title>I18nModule&#45;&gt;LoginModule</title>
<path fill="none" stroke="#000000" d="M263.4457,-122.1061C263.4457,-122.1061 263.4457,-140.991 263.4457,-140.991"/>
<polygon fill="#000000" stroke="#000000" points="259.9457,-140.9909 263.4457,-150.991 266.9457,-140.991 259.9457,-140.9909"/>
</g>
<!-- PageSlotModule -->
<g id="node4" class="node">
<title>PageSlotModule</title>
<polygon fill="#8dd3c7" stroke="#000000" points="230.3259,-122 227.3259,-126 206.3259,-126 203.3259,-122 120.6741,-122 120.6741,-86 230.3259,-86 230.3259,-122"/>
<text text-anchor="middle" x="175.5" y="-99.8" font-family="Times,serif" font-size="14.00" fill="#000000">PageSlotModule</text>
</g>
<!-- PageSlotModule&#45;&gt;LoginModule -->
<g id="edge3" class="edge">
<title>PageSlotModule&#45;&gt;LoginModule</title>
<path fill="none" stroke="#000000" d="M208.0831,-122.1061C208.0831,-122.1061 208.0831,-140.991 208.0831,-140.991"/>
<polygon fill="#000000" stroke="#000000" points="204.5832,-140.9909 208.0831,-150.991 211.5832,-140.991 204.5832,-140.9909"/>
</g>
<!-- UrlModule -->
<g id="node5" class="node">
<title>UrlModule</title>
<polygon fill="#8dd3c7" stroke="#000000" points="102.7079,-122 99.7079,-126 78.7079,-126 75.7079,-122 24.2921,-122 24.2921,-86 102.7079,-86 102.7079,-122"/>
<text text-anchor="middle" x="63.5" y="-99.8" font-family="Times,serif" font-size="14.00" fill="#000000">UrlModule</text>
</g>
<!-- UrlModule&#45;&gt;LoginModule -->
<g id="edge4" class="edge">
<title>UrlModule&#45;&gt;LoginModule</title>
<path fill="none" stroke="#000000" d="M63.5,-122.1061C63.5,-141.3391 63.5,-169 63.5,-169 63.5,-169 175.8726,-169 175.8726,-169"/>
<polygon fill="#000000" stroke="#000000" points="175.8727,-172.5001 185.8726,-169 175.8726,-165.5001 175.8727,-172.5001"/>
</g>
</g>
</svg>
