<?xml version="1.0" encoding="UTF-8" standalone="no"?>
<!DOCTYPE svg PUBLIC "-//W3C//DTD SVG 1.1//EN"
 "http://www.w3.org/Graphics/SVG/1.1/DTD/svg11.dtd">
<!-- Generated by graphviz version 2.40.1 (20161225.0304)
 -->
<!-- Title: dependencies Pages: 1 -->
<svg width="619pt" height="284pt"
 viewBox="0.00 0.00 619.00 284.00" xmlns="http://www.w3.org/2000/svg" xmlns:xlink="http://www.w3.org/1999/xlink">
<g id="graph0" class="graph" transform="scale(1 1) rotate(0) translate(4 280)">
<title>dependencies</title>
<polygon fill="#ffffff" stroke="transparent" points="-4,4 -4,-280 615,-280 615,4 -4,4"/>
<text text-anchor="start" x="284.5091" y="-42.4" font-family="sans-serif" font-weight="bold" font-size="14.00" fill="#000000">Legend</text>
<polygon fill="#ffffb3" stroke="transparent" points="71.5,-10 71.5,-30 91.5,-30 91.5,-10 71.5,-10"/>
<text text-anchor="start" x="95.129" y="-15.4" font-family="sans-serif" font-size="14.00" fill="#000000"> &#160;Declarations</text>
<polygon fill="#8dd3c7" stroke="transparent" points="184.5,-10 184.5,-30 204.5,-30 204.5,-10 184.5,-10"/>
<text text-anchor="start" x="208.2251" y="-15.4" font-family="sans-serif" font-size="14.00" fill="#000000"> &#160;Module</text>
<polygon fill="#80b1d3" stroke="transparent" points="270.5,-10 270.5,-30 290.5,-30 290.5,-10 270.5,-10"/>
<text text-anchor="start" x="294.2812" y="-15.4" font-family="sans-serif" font-size="14.00" fill="#000000"> &#160;Bootstrap</text>
<polygon fill="#fdb462" stroke="transparent" points="367.5,-10 367.5,-30 387.5,-30 387.5,-10 367.5,-10"/>
<text text-anchor="start" x="391.1732" y="-15.4" font-family="sans-serif" font-size="14.00" fill="#000000"> &#160;Providers</text>
<polygon fill="#fb8072" stroke="transparent" points="463.5,-10 463.5,-30 483.5,-30 483.5,-10 463.5,-10"/>
<text text-anchor="start" x="487.2258" y="-15.4" font-family="sans-serif" font-size="14.00" fill="#000000"> &#160;Exports</text>
<g id="clust1" class="cluster">
<title>cluster_LoginModule</title>
<polygon fill="none" stroke="#000000" stroke-dasharray="1,5" points="8,-70 8,-268 603,-268 603,-70 8,-70"/>
</g>
<g id="clust2" class="cluster">
<title>cluster_LoginModule_declarations</title>
<polygon fill="none" stroke="#000000" points="465,-78 465,-130 595,-130 595,-78 465,-78"/>
</g>
<g id="clust4" class="cluster">
<title>cluster_LoginModule_imports</title>
<polygon fill="none" stroke="#000000" points="16,-78 16,-130 457,-130 457,-78 16,-78"/>
</g>
<g id="clust5" class="cluster">
<title>cluster_LoginModule_exports</title>
<polygon fill="none" stroke="#000000" points="223,-208 223,-260 357,-260 357,-208 223,-208"/>
</g>
<!-- LoginComponent -->
<g id="node1" class="node">
<title>LoginComponent</title>
<polygon fill="#ffffb3" stroke="#000000" points="587.2758,-122 472.7242,-122 472.7242,-86 587.2758,-86 587.2758,-122"/>
<text text-anchor="middle" x="530" y="-99.8" font-family="Times,serif" font-size="14.00" fill="#000000">LoginComponent</text>
</g>
<!-- LoginModule -->
<g id="node2" class="node">
<title>LoginModule</title>
<polygon fill="#8dd3c7" stroke="#000000" points="336.493,-187 333.493,-191 312.493,-191 309.493,-187 243.507,-187 243.507,-151 336.493,-151 336.493,-187"/>
<text text-anchor="middle" x="290" y="-164.8" font-family="Times,serif" font-size="14.00" fill="#000000">LoginModule</text>
</g>
<!-- LoginComponent&#45;&gt;LoginModule -->
<g id="edge1" class="edge">
<title>LoginComponent&#45;&gt;LoginModule</title>
<path fill="none" stroke="#000000" d="M530,-122.2843C530,-143.3211 530,-175 530,-175 530,-175 346.559,-175 346.559,-175"/>
<polygon fill="#000000" stroke="#000000" points="346.559,-171.5001 336.559,-175 346.559,-178.5001 346.559,-171.5001"/>
</g>
<!-- LoginComponent  -->
<g id="node7" class="node">
<title>LoginComponent </title>
<polygon fill="#fb8072" stroke="#000000" points="349.2759,-252 230.7241,-252 230.7241,-216 349.2759,-216 349.2759,-252"/>
<text text-anchor="middle" x="290" y="-229.8" font-family="Times,serif" font-size="14.00" fill="#000000">LoginComponent </text>
</g>
<!-- LoginModule&#45;&gt;LoginComponent  -->
<g id="edge6" class="edge">
<title>LoginModule&#45;&gt;LoginComponent </title>
<path fill="none" stroke="#000000" stroke-dasharray="5,2" d="M290,-187.1061C290,-187.1061 290,-205.991 290,-205.991"/>
<polygon fill="#000000" stroke="#000000" points="286.5001,-205.9909 290,-215.991 293.5001,-205.991 286.5001,-205.9909"/>
</g>
<!-- ConfigModule -->
<g id="node3" class="node">
<title>ConfigModule</title>
<polygon fill="#8dd3c7" stroke="#000000" points="449.4386,-122 446.4386,-126 425.4386,-126 422.4386,-122 350.5614,-122 350.5614,-86 449.4386,-86 449.4386,-122"/>
<text text-anchor="middle" x="400" y="-99.8" font-family="Times,serif" font-size="14.00" fill="#000000">ConfigModule</text>
</g>
<!-- ConfigModule&#45;&gt;LoginModule -->
<g id="edge2" class="edge">
<title>ConfigModule&#45;&gt;LoginModule</title>
<path fill="none" stroke="#000000" d="M400,-122.0225C400,-139.3734 400,-163 400,-163 400,-163 346.6499,-163 346.6499,-163"/>
<polygon fill="#000000" stroke="#000000" points="346.6499,-159.5001 336.6499,-163 346.6499,-166.5001 346.6499,-159.5001"/>
</g>
<!-- I18nModule -->
<g id="node4" class="node">
<title>I18nModule</title>
<polygon fill="#8dd3c7" stroke="#000000" points="332.7107,-122 329.7107,-126 308.7107,-126 305.7107,-122 247.2893,-122 247.2893,-86 332.7107,-86 332.7107,-122"/>
<text text-anchor="middle" x="290" y="-99.8" font-family="Times,serif" font-size="14.00" fill="#000000">I18nModule</text>
</g>
<!-- I18nModule&#45;&gt;LoginModule -->
<g id="edge3" class="edge">
<title>I18nModule&#45;&gt;LoginModule</title>
<path fill="none" stroke="#000000" d="M290,-122.1061C290,-122.1061 290,-140.991 290,-140.991"/>
<polygon fill="#000000" stroke="#000000" points="286.5001,-140.9909 290,-150.991 293.5001,-140.991 286.5001,-140.9909"/>
</g>
<!-- PageSlotModule -->
<g id="node5" class="node">
<title>PageSlotModule</title>
<polygon fill="#8dd3c7" stroke="#000000" points="229.8259,-122 226.8259,-126 205.8259,-126 202.8259,-122 120.1741,-122 120.1741,-86 229.8259,-86 229.8259,-122"/>
<text text-anchor="middle" x="175" y="-99.8" font-family="Times,serif" font-size="14.00" fill="#000000">PageSlotModule</text>
</g>
<!-- PageSlotModule&#45;&gt;LoginModule -->
<g id="edge4" class="edge">
<title>PageSlotModule&#45;&gt;LoginModule</title>
<path fill="none" stroke="#000000" d="M175,-122.0225C175,-139.3734 175,-163 175,-163 175,-163 233.2251,-163 233.2251,-163"/>
<polygon fill="#000000" stroke="#000000" points="233.2251,-166.5001 243.2251,-163 233.2251,-159.5001 233.2251,-166.5001"/>
</g>
<!-- UrlModule -->
<g id="node6" class="node">
<title>UrlModule</title>
<polygon fill="#8dd3c7" stroke="#000000" points="102.2079,-122 99.2079,-126 78.2079,-126 75.2079,-122 23.7921,-122 23.7921,-86 102.2079,-86 102.2079,-122"/>
<text text-anchor="middle" x="63" y="-99.8" font-family="Times,serif" font-size="14.00" fill="#000000">UrlModule</text>
</g>
<!-- UrlModule&#45;&gt;LoginModule -->
<g id="edge5" class="edge">
<title>UrlModule&#45;&gt;LoginModule</title>
<path fill="none" stroke="#000000" d="M63,-122.2843C63,-143.3211 63,-175 63,-175 63,-175 233.2407,-175 233.2407,-175"/>
<polygon fill="#000000" stroke="#000000" points="233.2407,-178.5001 243.2407,-175 233.2407,-171.5001 233.2407,-178.5001"/>
</g>
</g>
</svg>
