<?xml version="1.0" encoding="UTF-8" standalone="no"?>
<!DOCTYPE svg PUBLIC "-//W3C//DTD SVG 1.1//EN"
 "http://www.w3.org/Graphics/SVG/1.1/DTD/svg11.dtd">
<!-- Generated by graphviz version 2.47.3 (20210619.1520)
 -->
<!-- Title: dependencies Pages: 1 -->
<svg width="350pt" height="174pt"
 viewBox="0.00 0.00 350.00 173.80" xmlns="http://www.w3.org/2000/svg" xmlns:xlink="http://www.w3.org/1999/xlink">
<g id="graph0" class="graph" transform="scale(1 1) rotate(0) translate(4 169.8)">
<title>dependencies</title>
<polygon fill="white" stroke="transparent" points="-4,4 -4,-169.8 346,-169.8 346,4 -4,4"/>
<text text-anchor="middle" x="171" y="-8.2" font-family="sans-serif" font-size="14.00">dependencies</text>
<g id="clust1" class="cluster">
<title>cluster_CheckoutModule</title>
<polygon fill="none" stroke="black" stroke-dasharray="1,5" points="8,-32.8 8,-157.8 334,-157.8 334,-32.8 8,-32.8"/>
</g>
<g id="clust3" class="cluster">
<title>cluster_CheckoutModule_imports</title>
<polygon fill="none" stroke="black" points="16,-40.8 16,-92.8 326,-92.8 326,-40.8 16,-40.8"/>
</g>
<!-- CheckoutCoreModule -->
<g id="node1" class="node">
<title>CheckoutCoreModule</title>
<polygon fill="#8dd3c7" stroke="black" points="318.42,-84.8 315.42,-88.8 294.42,-88.8 291.42,-84.8 177.58,-84.8 177.58,-48.8 318.42,-48.8 318.42,-84.8"/>
<text text-anchor="middle" x="248" y="-62.6" font-family="Times,serif" font-size="14.00">CheckoutCoreModule</text>
</g>
<!-- CheckoutModule -->
<g id="node3" class="node">
<title>CheckoutModule</title>
<polygon fill="#8dd3c7" stroke="black" points="226.71,-149.8 223.71,-153.8 202.71,-153.8 199.71,-149.8 113.29,-149.8 113.29,-113.8 226.71,-113.8 226.71,-149.8"/>
<text text-anchor="middle" x="170" y="-127.6" font-family="Times,serif" font-size="14.00">CheckoutModule</text>
</g>
<!-- CheckoutCoreModule&#45;&gt;CheckoutModule -->
<g id="edge1" class="edge">
<title>CheckoutCoreModule&#45;&gt;CheckoutModule</title>
<path fill="none" stroke="black" d="M202.2,-84.91C202.2,-84.91 202.2,-103.79 202.2,-103.79"/>
<polygon fill="black" stroke="black" points="198.7,-103.79 202.2,-113.79 205.7,-103.79 198.7,-103.79"/>
</g>
<!-- CheckoutOccModule -->
<g id="node2" class="node">
<title>CheckoutOccModule</title>
<polygon fill="#8dd3c7" stroke="black" points="159.74,-84.8 156.74,-88.8 135.74,-88.8 132.74,-84.8 24.26,-84.8 24.26,-48.8 159.74,-48.8 159.74,-84.8"/>
<text text-anchor="middle" x="92" y="-62.6" font-family="Times,serif" font-size="14.00">CheckoutOccModule</text>
</g>
<!-- CheckoutOccModule&#45;&gt;CheckoutModule -->
<g id="edge2" class="edge">
<title>CheckoutOccModule&#45;&gt;CheckoutModule</title>
<path fill="none" stroke="black" d="M136.63,-84.91C136.63,-84.91 136.63,-103.79 136.63,-103.79"/>
<polygon fill="black" stroke="black" points="133.13,-103.79 136.63,-113.79 140.13,-103.79 133.13,-103.79"/>
</g>
</g>
</svg>
