<?xml version="1.0" encoding="UTF-8" standalone="no"?>
<!DOCTYPE svg PUBLIC "-//W3C//DTD SVG 1.1//EN"
 "http://www.w3.org/Graphics/SVG/1.1/DTD/svg11.dtd">
<!-- Generated by graphviz version 2.47.3 (20210619.1520)
 -->
<!-- Title: dependencies Pages: 1 -->
<svg width="362pt" height="174pt"
 viewBox="0.00 0.00 362.00 173.80" xmlns="http://www.w3.org/2000/svg" xmlns:xlink="http://www.w3.org/1999/xlink">
<g id="graph0" class="graph" transform="scale(1 1) rotate(0) translate(4 169.8)">
<title>dependencies</title>
<polygon fill="white" stroke="transparent" points="-4,4 -4,-169.8 358,-169.8 358,4 -4,4"/>
<text text-anchor="middle" x="177" y="-8.2" font-family="sans-serif" font-size="14.00">dependencies</text>
<g id="clust1" class="cluster">
<title>cluster_CheckoutModule</title>
<polygon fill="none" stroke="black" stroke-dasharray="1,5" points="8,-32.8 8,-157.8 346,-157.8 346,-32.8 8,-32.8"/>
</g>
<g id="clust3" class="cluster">
<title>cluster_CheckoutModule_imports</title>
<polygon fill="none" stroke="black" points="16,-40.8 16,-92.8 338,-92.8 338,-40.8 16,-40.8"/>
</g>
<!-- CheckoutEventModule -->
<g id="node1" class="node">
<title>CheckoutEventModule</title>
<polygon fill="#8dd3c7" stroke="black" points="329.86,-84.8 326.86,-88.8 305.86,-88.8 302.86,-84.8 184.14,-84.8 184.14,-48.8 329.86,-48.8 329.86,-84.8"/>
<text text-anchor="middle" x="257" y="-62.6" font-family="Times,serif" font-size="14.00">CheckoutEventModule</text>
</g>
<!-- CheckoutModule -->
<g id="node3" class="node">
<title>CheckoutModule</title>
<polygon fill="#8dd3c7" stroke="black" points="232.71,-149.8 229.71,-153.8 208.71,-153.8 205.71,-149.8 119.29,-149.8 119.29,-113.8 232.71,-113.8 232.71,-149.8"/>
<text text-anchor="middle" x="176" y="-127.6" font-family="Times,serif" font-size="14.00">CheckoutModule</text>
</g>
<!-- CheckoutEventModule&#45;&gt;CheckoutModule -->
<g id="edge1" class="edge">
<title>CheckoutEventModule&#45;&gt;CheckoutModule</title>
<path fill="none" stroke="black" d="M208.34,-84.91C208.34,-84.91 208.34,-103.79 208.34,-103.79"/>
<polygon fill="black" stroke="black" points="204.84,-103.79 208.34,-113.79 211.84,-103.79 204.84,-103.79"/>
</g>
<!-- CheckoutStoreModule -->
<g id="node2" class="node">
<title>CheckoutStoreModule</title>
<polygon fill="#8dd3c7" stroke="black" points="166.25,-84.8 163.25,-88.8 142.25,-88.8 139.25,-84.8 23.75,-84.8 23.75,-48.8 166.25,-48.8 166.25,-84.8"/>
<text text-anchor="middle" x="95" y="-62.6" font-family="Times,serif" font-size="14.00">CheckoutStoreModule</text>
</g>
<!-- CheckoutStoreModule&#45;&gt;CheckoutModule -->
<g id="edge2" class="edge">
<title>CheckoutStoreModule&#45;&gt;CheckoutModule</title>
<path fill="none" stroke="black" d="M142.89,-84.91C142.89,-84.91 142.89,-103.79 142.89,-103.79"/>
<polygon fill="black" stroke="black" points="139.39,-103.79 142.89,-113.79 146.39,-103.79 139.39,-103.79"/>
</g>
</g>
</svg>
