<?xml version="1.0" encoding="UTF-8" standalone="no"?>
<!DOCTYPE svg PUBLIC "-//W3C//DTD SVG 1.1//EN"
 "http://www.w3.org/Graphics/SVG/1.1/DTD/svg11.dtd">
<!-- Generated by graphviz version 2.44.1 (20200629.0846)
 -->
<!-- Title: dependencies Pages: 1 -->
<svg width="504pt" height="211pt"
 viewBox="0.00 0.00 504.00 211.00" xmlns="http://www.w3.org/2000/svg" xmlns:xlink="http://www.w3.org/1999/xlink">
<g id="graph0" class="graph" transform="scale(1 1) rotate(0) translate(4 207)">
<title>dependencies</title>
<polygon fill="white" stroke="transparent" points="-4,4 -4,-207 500,-207 500,4 -4,4"/>
<text text-anchor="start" x="227.01" y="-42.4" font-family="sans-serif" font-weight="bold" font-size="14.00">Legend</text>
<polygon fill="#ffffb3" stroke="transparent" points="14,-10 14,-30 34,-30 34,-10 14,-10"/>
<text text-anchor="start" x="37.63" y="-15.4" font-family="sans-serif" font-size="14.00"> &#160;Declarations</text>
<polygon fill="#8dd3c7" stroke="transparent" points="127,-10 127,-30 147,-30 147,-10 127,-10"/>
<text text-anchor="start" x="150.73" y="-15.4" font-family="sans-serif" font-size="14.00"> &#160;Module</text>
<polygon fill="#80b1d3" stroke="transparent" points="213,-10 213,-30 233,-30 233,-10 213,-10"/>
<text text-anchor="start" x="236.78" y="-15.4" font-family="sans-serif" font-size="14.00"> &#160;Bootstrap</text>
<polygon fill="#fdb462" stroke="transparent" points="310,-10 310,-30 330,-30 330,-10 310,-10"/>
<text text-anchor="start" x="333.67" y="-15.4" font-family="sans-serif" font-size="14.00"> &#160;Providers</text>
<polygon fill="#fb8072" stroke="transparent" points="406,-10 406,-30 426,-30 426,-10 406,-10"/>
<text text-anchor="start" x="429.73" y="-15.4" font-family="sans-serif" font-size="14.00"> &#160;Exports</text>
<g id="clust1" class="cluster">
<title>cluster_CheckoutModule</title>
<polygon fill="none" stroke="black" stroke-dasharray="1,5" points="79,-70 79,-195 417,-195 417,-70 79,-70"/>
</g>
<g id="clust3" class="cluster">
<title>cluster_CheckoutModule_imports</title>
<polygon fill="none" stroke="black" points="87,-78 87,-130 409,-130 409,-78 87,-78"/>
</g>
<!-- CheckoutEventModule -->
<g id="node1" class="node">
<title>CheckoutEventModule</title>
<polygon fill="#8dd3c7" stroke="black" points="400.86,-122 397.86,-126 376.86,-126 373.86,-122 255.14,-122 255.14,-86 400.86,-86 400.86,-122"/>
<text text-anchor="middle" x="328" y="-99.8" font-family="Times,serif" font-size="14.00">CheckoutEventModule</text>
</g>
<!-- CheckoutModule -->
<g id="node3" class="node">
<title>CheckoutModule</title>
<polygon fill="#8dd3c7" stroke="black" points="303.71,-187 300.71,-191 279.71,-191 276.71,-187 190.29,-187 190.29,-151 303.71,-151 303.71,-187"/>
<text text-anchor="middle" x="247" y="-164.8" font-family="Times,serif" font-size="14.00">CheckoutModule</text>
</g>
<!-- CheckoutEventModule&#45;&gt;CheckoutModule -->
<g id="edge1" class="edge">
<title>CheckoutEventModule&#45;&gt;CheckoutModule</title>
<path fill="none" stroke="black" d="M279.34,-122.11C279.34,-122.11 279.34,-140.99 279.34,-140.99"/>
<polygon fill="black" stroke="black" points="275.84,-140.99 279.34,-150.99 282.84,-140.99 275.84,-140.99"/>
</g>
<!-- CheckoutStoreModule -->
<g id="node2" class="node">
<title>CheckoutStoreModule</title>
<polygon fill="#8dd3c7" stroke="black" points="237.25,-122 234.25,-126 213.25,-126 210.25,-122 94.75,-122 94.75,-86 237.25,-86 237.25,-122"/>
<text text-anchor="middle" x="166" y="-99.8" font-family="Times,serif" font-size="14.00">CheckoutStoreModule</text>
</g>
<!-- CheckoutStoreModule&#45;&gt;CheckoutModule -->
<g id="edge2" class="edge">
<title>CheckoutStoreModule&#45;&gt;CheckoutModule</title>
<path fill="none" stroke="black" d="M213.89,-122.11C213.89,-122.11 213.89,-140.99 213.89,-140.99"/>
<polygon fill="black" stroke="black" points="210.39,-140.99 213.89,-150.99 217.39,-140.99 210.39,-140.99"/>
</g>
</g>
</svg>
