<?xml version="1.0" encoding="UTF-8" standalone="no"?>
<!DOCTYPE svg PUBLIC "-//W3C//DTD SVG 1.1//EN"
 "http://www.w3.org/Graphics/SVG/1.1/DTD/svg11.dtd">
<!-- Generated by graphviz version 2.47.3 (20210619.1520)
 -->
<!-- Title: dependencies Pages: 1 -->
<svg width="627pt" height="174pt"
 viewBox="0.00 0.00 627.00 173.80" xmlns="http://www.w3.org/2000/svg" xmlns:xlink="http://www.w3.org/1999/xlink">
<g id="graph0" class="graph" transform="scale(1 1) rotate(0) translate(4 169.8)">
<title>dependencies</title>
<polygon fill="white" stroke="transparent" points="-4,4 -4,-169.8 623,-169.8 623,4 -4,4"/>
<text text-anchor="middle" x="309.5" y="-8.2" font-family="sans-serif" font-size="14.00">dependencies</text>
<g id="clust1" class="cluster">
<title>cluster_ConfiguratorCartEntryBundleInfoModule</title>
<polygon fill="none" stroke="black" stroke-dasharray="1,5" points="8,-32.8 8,-157.8 611,-157.8 611,-32.8 8,-32.8"/>
</g>
<g id="clust2" class="cluster">
<title>cluster_ConfiguratorCartEntryBundleInfoModule_declarations</title>
<polygon fill="none" stroke="black" points="315,-40.8 315,-92.8 603,-92.8 603,-40.8 315,-40.8"/>
</g>
<g id="clust4" class="cluster">
<title>cluster_ConfiguratorCartEntryBundleInfoModule_imports</title>
<polygon fill="none" stroke="black" points="16,-40.8 16,-92.8 307,-92.8 307,-40.8 16,-40.8"/>
</g>
<!-- ConfiguratorCartEntryBundleInfoComponent -->
<g id="node1" class="node">
<title>ConfiguratorCartEntryBundleInfoComponent</title>
<polygon fill="#ffffb3" stroke="black" points="595.12,-84.8 322.88,-84.8 322.88,-48.8 595.12,-48.8 595.12,-84.8"/>
<text text-anchor="middle" x="459" y="-62.6" font-family="Times,serif" font-size="14.00">ConfiguratorCartEntryBundleInfoComponent</text>
</g>
<!-- ConfiguratorCartEntryBundleInfoModule -->
<g id="node2" class="node">
<title>ConfiguratorCartEntryBundleInfoModule</title>
<polygon fill="#8dd3c7" stroke="black" points="338.33,-149.8 335.33,-153.8 314.33,-153.8 311.33,-149.8 87.67,-149.8 87.67,-113.8 338.33,-113.8 338.33,-149.8"/>
<text text-anchor="middle" x="213" y="-127.6" font-family="Times,serif" font-size="14.00">ConfiguratorCartEntryBundleInfoModule</text>
</g>
<!-- ConfiguratorCartEntryBundleInfoComponent&#45;&gt;ConfiguratorCartEntryBundleInfoModule -->
<g id="edge1" class="edge">
<title>ConfiguratorCartEntryBundleInfoComponent&#45;&gt;ConfiguratorCartEntryBundleInfoModule</title>
<path fill="none" stroke="black" d="M330.55,-84.91C330.55,-84.91 330.55,-103.79 330.55,-103.79"/>
<polygon fill="black" stroke="black" points="327.05,-103.79 330.55,-113.79 334.05,-103.79 327.05,-103.79"/>
</g>
<!-- ConfigureCartEntryModule -->
<g id="node3" class="node">
<title>ConfigureCartEntryModule</title>
<polygon fill="#8dd3c7" stroke="black" points="298.52,-84.8 295.52,-88.8 274.52,-88.8 271.52,-84.8 127.48,-84.8 127.48,-48.8 298.52,-48.8 298.52,-84.8"/>
<text text-anchor="middle" x="213" y="-62.6" font-family="Times,serif" font-size="14.00">ConfigureCartEntryModule</text>
</g>
<!-- ConfigureCartEntryModule&#45;&gt;ConfiguratorCartEntryBundleInfoModule -->
<g id="edge2" class="edge">
<title>ConfigureCartEntryModule&#45;&gt;ConfiguratorCartEntryBundleInfoModule</title>
<path fill="none" stroke="black" d="M213,-84.91C213,-84.91 213,-103.79 213,-103.79"/>
<polygon fill="black" stroke="black" points="209.5,-103.79 213,-113.79 216.5,-103.79 209.5,-103.79"/>
</g>
<!-- I18nModule -->
<g id="node4" class="node">
<title>I18nModule</title>
<polygon fill="#8dd3c7" stroke="black" points="109.71,-84.8 106.71,-88.8 85.71,-88.8 82.71,-84.8 24.29,-84.8 24.29,-48.8 109.71,-48.8 109.71,-84.8"/>
<text text-anchor="middle" x="67" y="-62.6" font-family="Times,serif" font-size="14.00">I18nModule</text>
</g>
<!-- I18nModule&#45;&gt;ConfiguratorCartEntryBundleInfoModule -->
<g id="edge3" class="edge">
<title>I18nModule&#45;&gt;ConfiguratorCartEntryBundleInfoModule</title>
<path fill="none" stroke="black" d="M98.59,-84.91C98.59,-84.91 98.59,-103.79 98.59,-103.79"/>
<polygon fill="black" stroke="black" points="95.09,-103.79 98.59,-113.79 102.09,-103.79 95.09,-103.79"/>
</g>
</g>
</svg>
