<?xml version="1.0" encoding="UTF-8" standalone="no"?>
<!DOCTYPE svg PUBLIC "-//W3C//DTD SVG 1.1//EN"
 "http://www.w3.org/Graphics/SVG/1.1/DTD/svg11.dtd">
<!-- Generated by graphviz version 2.47.0 (20210316.0004)
 -->
<!-- Title: dependencies Pages: 1 -->
<svg width="627pt" height="211pt"
 viewBox="0.00 0.00 627.00 211.00" xmlns="http://www.w3.org/2000/svg" xmlns:xlink="http://www.w3.org/1999/xlink">
<g id="graph0" class="graph" transform="scale(1 1) rotate(0) translate(4 207)">
<title>dependencies</title>
<polygon fill="white" stroke="transparent" points="-4,4 -4,-207 623,-207 623,4 -4,4"/>
<text text-anchor="start" x="288.51" y="-42.4" font-family="sans-serif" font-weight="bold" font-size="14.00">Legend</text>
<polygon fill="#ffffb3" stroke="transparent" points="75.5,-10 75.5,-30 95.5,-30 95.5,-10 75.5,-10"/>
<text text-anchor="start" x="99.13" y="-15.4" font-family="sans-serif" font-size="14.00"> &#160;Declarations</text>
<polygon fill="#8dd3c7" stroke="transparent" points="188.5,-10 188.5,-30 208.5,-30 208.5,-10 188.5,-10"/>
<text text-anchor="start" x="212.23" y="-15.4" font-family="sans-serif" font-size="14.00"> &#160;Module</text>
<polygon fill="#80b1d3" stroke="transparent" points="274.5,-10 274.5,-30 294.5,-30 294.5,-10 274.5,-10"/>
<text text-anchor="start" x="298.28" y="-15.4" font-family="sans-serif" font-size="14.00"> &#160;Bootstrap</text>
<polygon fill="#fdb462" stroke="transparent" points="371.5,-10 371.5,-30 391.5,-30 391.5,-10 371.5,-10"/>
<text text-anchor="start" x="395.17" y="-15.4" font-family="sans-serif" font-size="14.00"> &#160;Providers</text>
<polygon fill="#fb8072" stroke="transparent" points="467.5,-10 467.5,-30 487.5,-30 487.5,-10 467.5,-10"/>
<text text-anchor="start" x="491.23" y="-15.4" font-family="sans-serif" font-size="14.00"> &#160;Exports</text>
<g id="clust1" class="cluster">
<title>cluster_ConfiguratorCartEntryBundleInfoModule</title>
<polygon fill="none" stroke="black" stroke-dasharray="1,5" points="8,-70 8,-195 611,-195 611,-70 8,-70"/>
</g>
<g id="clust4" class="cluster">
<title>cluster_ConfiguratorCartEntryBundleInfoModule_imports</title>
<polygon fill="none" stroke="black" points="312,-78 312,-130 603,-130 603,-78 312,-78"/>
</g>
<g id="clust2" class="cluster">
<title>cluster_ConfiguratorCartEntryBundleInfoModule_declarations</title>
<polygon fill="none" stroke="black" points="16,-78 16,-130 304,-130 304,-78 16,-78"/>
</g>
<!-- ConfiguratorCartEntryBundleInfoComponent -->
<g id="node1" class="node">
<title>ConfiguratorCartEntryBundleInfoComponent</title>
<polygon fill="#ffffb3" stroke="black" points="296.12,-122 23.88,-122 23.88,-86 296.12,-86 296.12,-122"/>
<text text-anchor="middle" x="160" y="-99.8" font-family="Times,serif" font-size="14.00">ConfiguratorCartEntryBundleInfoComponent</text>
</g>
<!-- ConfiguratorCartEntryBundleInfoModule -->
<g id="node2" class="node">
<title>ConfiguratorCartEntryBundleInfoModule</title>
<polygon fill="#8dd3c7" stroke="black" points="488.33,-187 485.33,-191 464.33,-191 461.33,-187 237.67,-187 237.67,-151 488.33,-151 488.33,-187"/>
<text text-anchor="middle" x="363" y="-164.8" font-family="Times,serif" font-size="14.00">ConfiguratorCartEntryBundleInfoModule</text>
</g>
<!-- ConfiguratorCartEntryBundleInfoComponent&#45;&gt;ConfiguratorCartEntryBundleInfoModule -->
<g id="edge1" class="edge">
<title>ConfiguratorCartEntryBundleInfoComponent&#45;&gt;ConfiguratorCartEntryBundleInfoModule</title>
<path fill="none" stroke="black" d="M266.95,-122.11C266.95,-122.11 266.95,-140.99 266.95,-140.99"/>
<polygon fill="black" stroke="black" points="263.45,-140.99 266.95,-150.99 270.45,-140.99 263.45,-140.99"/>
</g>
<!-- ConfigureCartEntryModule -->
<g id="node3" class="node">
<title>ConfigureCartEntryModule</title>
<polygon fill="#8dd3c7" stroke="black" points="594.52,-122 591.52,-126 570.52,-126 567.52,-122 423.48,-122 423.48,-86 594.52,-86 594.52,-122"/>
<text text-anchor="middle" x="509" y="-99.8" font-family="Times,serif" font-size="14.00">ConfigureCartEntryModule</text>
</g>
<!-- ConfigureCartEntryModule&#45;&gt;ConfiguratorCartEntryBundleInfoModule -->
<g id="edge2" class="edge">
<title>ConfigureCartEntryModule&#45;&gt;ConfiguratorCartEntryBundleInfoModule</title>
<path fill="none" stroke="black" d="M455.83,-122.11C455.83,-122.11 455.83,-140.99 455.83,-140.99"/>
<polygon fill="black" stroke="black" points="452.33,-140.99 455.83,-150.99 459.33,-140.99 452.33,-140.99"/>
</g>
<!-- I18nModule -->
<g id="node4" class="node">
<title>I18nModule</title>
<polygon fill="#8dd3c7" stroke="black" points="405.71,-122 402.71,-126 381.71,-126 378.71,-122 320.29,-122 320.29,-86 405.71,-86 405.71,-122"/>
<text text-anchor="middle" x="363" y="-99.8" font-family="Times,serif" font-size="14.00">I18nModule</text>
</g>
<!-- I18nModule&#45;&gt;ConfiguratorCartEntryBundleInfoModule -->
<g id="edge3" class="edge">
<title>I18nModule&#45;&gt;ConfiguratorCartEntryBundleInfoModule</title>
<path fill="none" stroke="black" d="M363,-122.11C363,-122.11 363,-140.99 363,-140.99"/>
<polygon fill="black" stroke="black" points="359.5,-140.99 363,-150.99 366.5,-140.99 359.5,-140.99"/>
</g>
</g>
</svg>
