<?xml version="1.0" encoding="UTF-8" standalone="no"?>
<!DOCTYPE svg PUBLIC "-//W3C//DTD SVG 1.1//EN"
 "http://www.w3.org/Graphics/SVG/1.1/DTD/svg11.dtd">
<!-- Generated by graphviz version 2.47.3 (20210619.1520)
 -->
<!-- Title: dependencies Pages: 1 -->
<svg width="3088pt" height="174pt"
 viewBox="0.00 0.00 3088.00 173.80" xmlns="http://www.w3.org/2000/svg" xmlns:xlink="http://www.w3.org/1999/xlink">
<g id="graph0" class="graph" transform="scale(1 1) rotate(0) translate(4 169.8)">
<title>dependencies</title>
<polygon fill="white" stroke="transparent" points="-4,4 -4,-169.8 3084,-169.8 3084,4 -4,4"/>
<text text-anchor="middle" x="1540" y="-8.2" font-family="sans-serif" font-size="14.00">dependencies</text>
<g id="clust1" class="cluster">
<title>cluster_CheckoutCoreModule</title>
<polygon fill="none" stroke="black" stroke-dasharray="1,5" points="8,-32.8 8,-157.8 3072,-157.8 3072,-32.8 8,-32.8"/>
</g>
<g id="clust3" class="cluster">
<title>cluster_CheckoutCoreModule_imports</title>
<polygon fill="none" stroke="black" points="2742,-40.8 2742,-92.8 3064,-92.8 3064,-40.8 2742,-40.8"/>
</g>
<g id="clust6" class="cluster">
<title>cluster_CheckoutCoreModule_providers</title>
<polygon fill="none" stroke="black" points="16,-40.8 16,-92.8 2734,-92.8 2734,-40.8 16,-40.8"/>
</g>
<!-- CheckoutEventModule -->
<g id="node1" class="node">
<title>CheckoutEventModule</title>
<polygon fill="#8dd3c7" stroke="black" points="3055.86,-84.8 3052.86,-88.8 3031.86,-88.8 3028.86,-84.8 2910.14,-84.8 2910.14,-48.8 3055.86,-48.8 3055.86,-84.8"/>
<text text-anchor="middle" x="2983" y="-62.6" font-family="Times,serif" font-size="14.00">CheckoutEventModule</text>
</g>
<!-- CheckoutCoreModule -->
<g id="node3" class="node">
<title>CheckoutCoreModule</title>
<polygon fill="#8dd3c7" stroke="black" points="1719.42,-149.8 1716.42,-153.8 1695.42,-153.8 1692.42,-149.8 1578.58,-149.8 1578.58,-113.8 1719.42,-113.8 1719.42,-149.8"/>
<text text-anchor="middle" x="1649" y="-127.6" font-family="Times,serif" font-size="14.00">CheckoutCoreModule</text>
</g>
<!-- CheckoutEventModule&#45;&gt;CheckoutCoreModule -->
<g id="edge1" class="edge">
<title>CheckoutEventModule&#45;&gt;CheckoutCoreModule</title>
<path fill="none" stroke="black" d="M2983,-84.89C2983,-107.93 2983,-144.8 2983,-144.8 2983,-144.8 1729.31,-144.8 1729.31,-144.8"/>
<polygon fill="black" stroke="black" points="1729.31,-141.3 1719.31,-144.8 1729.31,-148.3 1729.31,-141.3"/>
</g>
<!-- CheckoutStoreModule -->
<g id="node2" class="node">
<title>CheckoutStoreModule</title>
<polygon fill="#8dd3c7" stroke="black" points="2892.25,-84.8 2889.25,-88.8 2868.25,-88.8 2865.25,-84.8 2749.75,-84.8 2749.75,-48.8 2892.25,-48.8 2892.25,-84.8"/>
<text text-anchor="middle" x="2821" y="-62.6" font-family="Times,serif" font-size="14.00">CheckoutStoreModule</text>
</g>
<!-- CheckoutStoreModule&#45;&gt;CheckoutCoreModule -->
<g id="edge2" class="edge">
<title>CheckoutStoreModule&#45;&gt;CheckoutCoreModule</title>
<path fill="none" stroke="black" d="M2821,-84.84C2821,-106.46 2821,-139.8 2821,-139.8 2821,-139.8 1729.24,-139.8 1729.24,-139.8"/>
<polygon fill="black" stroke="black" points="1729.24,-136.3 1719.24,-139.8 1729.24,-143.3 1729.24,-136.3"/>
</g>
<!-- CheckoutConnector -->
<g id="node4" class="node">
<title>CheckoutConnector</title>
<ellipse fill="#fdb462" stroke="black" cx="2638" cy="-66.8" rx="88.05" ry="18"/>
<text text-anchor="middle" x="2638" y="-62.6" font-family="Times,serif" font-size="14.00">CheckoutConnector</text>
</g>
<!-- CheckoutConnector&#45;&gt;CheckoutCoreModule -->
<g id="edge3" class="edge">
<title>CheckoutConnector&#45;&gt;CheckoutCoreModule</title>
<path fill="none" stroke="black" d="M2638,-85.02C2638,-105.17 2638,-134.8 2638,-134.8 2638,-134.8 1729.33,-134.8 1729.33,-134.8"/>
<polygon fill="black" stroke="black" points="1729.33,-131.3 1719.33,-134.8 1729.33,-138.3 1729.33,-131.3"/>
</g>
<!-- CheckoutCostCenterConnector -->
<g id="node5" class="node">
<title>CheckoutCostCenterConnector</title>
<ellipse fill="#fdb462" stroke="black" cx="2400" cy="-66.8" rx="131.94" ry="18"/>
<text text-anchor="middle" x="2400" y="-62.6" font-family="Times,serif" font-size="14.00">CheckoutCostCenterConnector</text>
</g>
<!-- CheckoutCostCenterConnector&#45;&gt;CheckoutCoreModule -->
<g id="edge4" class="edge">
<title>CheckoutCostCenterConnector&#45;&gt;CheckoutCoreModule</title>
<path fill="none" stroke="black" d="M2400,-85.02C2400,-103.63 2400,-129.8 2400,-129.8 2400,-129.8 1729.31,-129.8 1729.31,-129.8"/>
<polygon fill="black" stroke="black" points="1729.31,-126.3 1719.31,-129.8 1729.31,-133.3 1729.31,-126.3"/>
</g>
<!-- CheckoutDeliveryConnector -->
<g id="node6" class="node">
<title>CheckoutDeliveryConnector</title>
<ellipse fill="#fdb462" stroke="black" cx="2128" cy="-66.8" rx="122.12" ry="18"/>
<text text-anchor="middle" x="2128" y="-62.6" font-family="Times,serif" font-size="14.00">CheckoutDeliveryConnector</text>
</g>
<!-- CheckoutDeliveryConnector&#45;&gt;CheckoutCoreModule -->
<g id="edge5" class="edge">
<title>CheckoutDeliveryConnector&#45;&gt;CheckoutCoreModule</title>
<path fill="none" stroke="black" d="M2128,-84.83C2128,-101.86 2128,-124.8 2128,-124.8 2128,-124.8 1729.42,-124.8 1729.42,-124.8"/>
<polygon fill="black" stroke="black" points="1729.42,-121.3 1719.42,-124.8 1729.42,-128.3 1729.42,-121.3"/>
</g>
<!-- CheckoutEventBuilder -->
<g id="node7" class="node">
<title>CheckoutEventBuilder</title>
<ellipse fill="#fdb462" stroke="black" cx="1888" cy="-66.8" rx="99.58" ry="18"/>
<text text-anchor="middle" x="1888" y="-62.6" font-family="Times,serif" font-size="14.00">CheckoutEventBuilder</text>
</g>
<!-- CheckoutEventBuilder&#45;&gt;CheckoutCoreModule -->
<g id="edge6" class="edge">
<title>CheckoutEventBuilder&#45;&gt;CheckoutCoreModule</title>
<path fill="none" stroke="black" d="M1888,-85.04C1888,-100.37 1888,-119.8 1888,-119.8 1888,-119.8 1729.42,-119.8 1729.42,-119.8"/>
<polygon fill="black" stroke="black" points="1729.42,-116.3 1719.42,-119.8 1729.42,-123.3 1729.42,-116.3"/>
</g>
<!-- CheckoutPageMetaResolver -->
<g id="node8" class="node">
<title>CheckoutPageMetaResolver</title>
<ellipse fill="#fdb462" stroke="black" cx="1649" cy="-66.8" rx="120.97" ry="18"/>
<text text-anchor="middle" x="1649" y="-62.6" font-family="Times,serif" font-size="14.00">CheckoutPageMetaResolver</text>
</g>
<!-- CheckoutPageMetaResolver&#45;&gt;CheckoutCoreModule -->
<g id="edge7" class="edge">
<title>CheckoutPageMetaResolver&#45;&gt;CheckoutCoreModule</title>
<path fill="none" stroke="black" d="M1649,-84.91C1649,-84.91 1649,-103.79 1649,-103.79"/>
<polygon fill="black" stroke="black" points="1645.5,-103.79 1649,-113.79 1652.5,-103.79 1645.5,-103.79"/>
</g>
<!-- CheckoutPaymentConnector -->
<g id="node9" class="node">
<title>CheckoutPaymentConnector</title>
<ellipse fill="#fdb462" stroke="black" cx="1388" cy="-66.8" rx="122.14" ry="18"/>
<text text-anchor="middle" x="1388" y="-62.6" font-family="Times,serif" font-size="14.00">CheckoutPaymentConnector</text>
</g>
<!-- CheckoutPaymentConnector&#45;&gt;CheckoutCoreModule -->
<g id="edge8" class="edge">
<title>CheckoutPaymentConnector&#45;&gt;CheckoutCoreModule</title>
<path fill="none" stroke="black" d="M1388,-85.04C1388,-100.37 1388,-119.8 1388,-119.8 1388,-119.8 1568.71,-119.8 1568.71,-119.8"/>
<polygon fill="black" stroke="black" points="1568.71,-123.3 1578.71,-119.8 1568.71,-116.3 1568.71,-123.3"/>
</g>
<!-- CheckoutReplenishmentOrderConnector -->
<g id="node10" class="node">
<title>CheckoutReplenishmentOrderConnector</title>
<ellipse fill="#fdb462" stroke="black" cx="1079" cy="-66.8" rx="168.95" ry="18"/>
<text text-anchor="middle" x="1079" y="-62.6" font-family="Times,serif" font-size="14.00">CheckoutReplenishmentOrderConnector</text>
</g>
<!-- CheckoutReplenishmentOrderConnector&#45;&gt;CheckoutCoreModule -->
<g id="edge9" class="edge">
<title>CheckoutReplenishmentOrderConnector&#45;&gt;CheckoutCoreModule</title>
<path fill="none" stroke="black" d="M1079,-84.83C1079,-101.86 1079,-124.8 1079,-124.8 1079,-124.8 1568.54,-124.8 1568.54,-124.8"/>
<polygon fill="black" stroke="black" points="1568.54,-128.3 1578.54,-124.8 1568.54,-121.3 1568.54,-128.3"/>
</g>
<!-- OrderReturnRequestService -->
<g id="node11" class="node">
<title>OrderReturnRequestService</title>
<ellipse fill="#fdb462" stroke="black" cx="772" cy="-66.8" rx="119.8" ry="18"/>
<text text-anchor="middle" x="772" y="-62.6" font-family="Times,serif" font-size="14.00">OrderReturnRequestService</text>
</g>
<!-- OrderReturnRequestService&#45;&gt;CheckoutCoreModule -->
<g id="edge10" class="edge">
<title>OrderReturnRequestService&#45;&gt;CheckoutCoreModule</title>
<path fill="none" stroke="black" d="M772,-85.02C772,-103.63 772,-129.8 772,-129.8 772,-129.8 1568.71,-129.8 1568.71,-129.8"/>
<polygon fill="black" stroke="black" points="1568.71,-133.3 1578.71,-129.8 1568.71,-126.3 1568.71,-133.3"/>
</g>
<!-- OrderService -->
<g id="node12" class="node">
<title>OrderService</title>
<ellipse fill="#fdb462" stroke="black" cx="572" cy="-66.8" rx="62.52" ry="18"/>
<text text-anchor="middle" x="572" y="-62.6" font-family="Times,serif" font-size="14.00">OrderService</text>
</g>
<!-- OrderService&#45;&gt;CheckoutCoreModule -->
<g id="edge11" class="edge">
<title>OrderService&#45;&gt;CheckoutCoreModule</title>
<path fill="none" stroke="black" d="M572,-85.02C572,-105.17 572,-134.8 572,-134.8 572,-134.8 1568.75,-134.8 1568.75,-134.8"/>
<polygon fill="black" stroke="black" points="1568.75,-138.3 1578.75,-134.8 1568.75,-131.3 1568.75,-138.3"/>
</g>
<!-- PaymentTypeConnector -->
<g id="node13" class="node">
<title>PaymentTypeConnector</title>
<ellipse fill="#fdb462" stroke="black" cx="387" cy="-66.8" rx="104.8" ry="18"/>
<text text-anchor="middle" x="387" y="-62.6" font-family="Times,serif" font-size="14.00">PaymentTypeConnector</text>
</g>
<!-- PaymentTypeConnector&#45;&gt;CheckoutCoreModule -->
<g id="edge12" class="edge">
<title>PaymentTypeConnector&#45;&gt;CheckoutCoreModule</title>
<path fill="none" stroke="black" d="M387,-84.84C387,-106.46 387,-139.8 387,-139.8 387,-139.8 1568.45,-139.8 1568.45,-139.8"/>
<polygon fill="black" stroke="black" points="1568.45,-143.3 1578.45,-139.8 1568.45,-136.3 1568.45,-143.3"/>
</g>
<!-- ReplenishmentOrderService -->
<g id="node14" class="node">
<title>ReplenishmentOrderService</title>
<ellipse fill="#fdb462" stroke="black" cx="144" cy="-66.8" rx="120.38" ry="18"/>
<text text-anchor="middle" x="144" y="-62.6" font-family="Times,serif" font-size="14.00">ReplenishmentOrderService</text>
</g>
<!-- ReplenishmentOrderService&#45;&gt;CheckoutCoreModule -->
<g id="edge13" class="edge">
<title>ReplenishmentOrderService&#45;&gt;CheckoutCoreModule</title>
<path fill="none" stroke="black" d="M144,-84.89C144,-107.93 144,-144.8 144,-144.8 144,-144.8 1568.43,-144.8 1568.43,-144.8"/>
<polygon fill="black" stroke="black" points="1568.43,-148.3 1578.43,-144.8 1568.43,-141.3 1568.43,-148.3"/>
</g>
</g>
</svg>
