<?xml version="1.0" encoding="UTF-8" standalone="no"?>
<!DOCTYPE svg PUBLIC "-//W3C//DTD SVG 1.1//EN"
 "http://www.w3.org/Graphics/SVG/1.1/DTD/svg11.dtd">
<!-- Generated by graphviz version 2.47.3 (20210619.1520)
 -->
<!-- Title: dependencies Pages: 1 -->
<svg width="296pt" height="174pt"
 viewBox="0.00 0.00 296.00 173.80" xmlns="http://www.w3.org/2000/svg" xmlns:xlink="http://www.w3.org/1999/xlink">
<g id="graph0" class="graph" transform="scale(1 1) rotate(0) translate(4 169.8)">
<title>dependencies</title>
<polygon fill="white" stroke="transparent" points="-4,4 -4,-169.8 292,-169.8 292,4 -4,4"/>
<text text-anchor="middle" x="144" y="-8.2" font-family="sans-serif" font-size="14.00">dependencies</text>
<g id="clust1" class="cluster">
<title>cluster_AsmModule</title>
<polygon fill="none" stroke="black" stroke-dasharray="1,5" points="8,-32.8 8,-157.8 280,-157.8 280,-32.8 8,-32.8"/>
</g>
<g id="clust3" class="cluster">
<title>cluster_AsmModule_imports</title>
<polygon fill="none" stroke="black" points="16,-40.8 16,-92.8 272,-92.8 272,-40.8 16,-40.8"/>
</g>
<!-- AsmCoreModule -->
<g id="node1" class="node">
<title>AsmCoreModule</title>
<polygon fill="#8dd3c7" stroke="black" points="263.7,-84.8 260.7,-88.8 239.7,-88.8 236.7,-84.8 150.3,-84.8 150.3,-48.8 263.7,-48.8 263.7,-84.8"/>
<text text-anchor="middle" x="207" y="-62.6" font-family="Times,serif" font-size="14.00">AsmCoreModule</text>
</g>
<!-- AsmModule -->
<g id="node3" class="node">
<title>AsmModule</title>
<polygon fill="#8dd3c7" stroke="black" points="184.99,-149.8 181.99,-153.8 160.99,-153.8 157.99,-149.8 99.01,-149.8 99.01,-113.8 184.99,-113.8 184.99,-149.8"/>
<text text-anchor="middle" x="142" y="-127.6" font-family="Times,serif" font-size="14.00">AsmModule</text>
</g>
<!-- AsmCoreModule&#45;&gt;AsmModule -->
<g id="edge1" class="edge">
<title>AsmCoreModule&#45;&gt;AsmModule</title>
<path fill="none" stroke="black" d="M167.7,-84.91C167.7,-84.91 167.7,-103.79 167.7,-103.79"/>
<polygon fill="black" stroke="black" points="164.2,-103.79 167.7,-113.79 171.2,-103.79 164.2,-103.79"/>
</g>
<!-- AsmOccModule -->
<g id="node2" class="node">
<title>AsmOccModule</title>
<polygon fill="#8dd3c7" stroke="black" points="132.03,-84.8 129.03,-88.8 108.03,-88.8 105.03,-84.8 23.97,-84.8 23.97,-48.8 132.03,-48.8 132.03,-84.8"/>
<text text-anchor="middle" x="78" y="-62.6" font-family="Times,serif" font-size="14.00">AsmOccModule</text>
</g>
<!-- AsmOccModule&#45;&gt;AsmModule -->
<g id="edge2" class="edge">
<title>AsmOccModule&#45;&gt;AsmModule</title>
<path fill="none" stroke="black" d="M115.63,-84.91C115.63,-84.91 115.63,-103.79 115.63,-103.79"/>
<polygon fill="black" stroke="black" points="112.13,-103.79 115.63,-113.79 119.13,-103.79 112.13,-103.79"/>
</g>
</g>
</svg>
