<?xml version="1.0" encoding="UTF-8" standalone="no"?>
<!DOCTYPE svg PUBLIC "-//W3C//DTD SVG 1.1//EN"
 "http://www.w3.org/Graphics/SVG/1.1/DTD/svg11.dtd">
<!-- Generated by graphviz version 2.40.1 (20161225.0304)
 -->
<!-- Title: dependencies Pages: 1 -->
<svg width="504pt" height="211pt"
 viewBox="0.00 0.00 504.00 211.00" xmlns="http://www.w3.org/2000/svg" xmlns:xlink="http://www.w3.org/1999/xlink">
<g id="graph0" class="graph" transform="scale(1 1) rotate(0) translate(4 207)">
<title>dependencies</title>
<polygon fill="#ffffff" stroke="transparent" points="-4,4 -4,-207 500,-207 500,4 -4,4"/>
<text text-anchor="start" x="227.0091" y="-42.4" font-family="sans-serif" font-weight="bold" font-size="14.00" fill="#000000">Legend</text>
<polygon fill="#ffffb3" stroke="transparent" points="14,-10 14,-30 34,-30 34,-10 14,-10"/>
<text text-anchor="start" x="37.629" y="-15.4" font-family="sans-serif" font-size="14.00" fill="#000000"> &#160;Declarations</text>
<polygon fill="#8dd3c7" stroke="transparent" points="127,-10 127,-30 147,-30 147,-10 127,-10"/>
<text text-anchor="start" x="150.7251" y="-15.4" font-family="sans-serif" font-size="14.00" fill="#000000"> &#160;Module</text>
<polygon fill="#80b1d3" stroke="transparent" points="213,-10 213,-30 233,-30 233,-10 213,-10"/>
<text text-anchor="start" x="236.7812" y="-15.4" font-family="sans-serif" font-size="14.00" fill="#000000"> &#160;Bootstrap</text>
<polygon fill="#fdb462" stroke="transparent" points="310,-10 310,-30 330,-30 330,-10 310,-10"/>
<text text-anchor="start" x="333.6732" y="-15.4" font-family="sans-serif" font-size="14.00" fill="#000000"> &#160;Providers</text>
<polygon fill="#fb8072" stroke="transparent" points="406,-10 406,-30 426,-30 426,-10 406,-10"/>
<text text-anchor="start" x="429.7258" y="-15.4" font-family="sans-serif" font-size="14.00" fill="#000000"> &#160;Exports</text>
<g id="clust1" class="cluster">
<title>cluster_AsmModule</title>
<polygon fill="none" stroke="#000000" stroke-dasharray="1,5" points="116,-70 116,-195 380,-195 380,-70 116,-70"/>
</g>
<g id="clust3" class="cluster">
<title>cluster_AsmModule_imports</title>
<polygon fill="none" stroke="#000000" points="124,-78 124,-130 372,-130 372,-78 124,-78"/>
</g>
<!-- AsmStoreModule -->
<g id="node1" class="node">
<title>AsmStoreModule</title>
<polygon fill="#8dd3c7" stroke="#000000" points="363.5409,-122 360.5409,-126 339.5409,-126 336.5409,-122 248.4591,-122 248.4591,-86 363.5409,-86 363.5409,-122"/>
<text text-anchor="middle" x="306" y="-99.8" font-family="Times,serif" font-size="14.00" fill="#000000">AsmStoreModule</text>
</g>
<!-- AsmModule -->
<g id="node3" class="node">
<title>AsmModule</title>
<polygon fill="#8dd3c7" stroke="#000000" points="285.9916,-187 282.9916,-191 261.9916,-191 258.9916,-187 200.0084,-187 200.0084,-151 285.9916,-151 285.9916,-187"/>
<text text-anchor="middle" x="243" y="-164.8" font-family="Times,serif" font-size="14.00" fill="#000000">AsmModule</text>
</g>
<!-- AsmStoreModule&#45;&gt;AsmModule -->
<g id="edge1" class="edge">
<title>AsmStoreModule&#45;&gt;AsmModule</title>
<path fill="none" stroke="#000000" d="M267.1129,-122.1061C267.1129,-122.1061 267.1129,-140.991 267.1129,-140.991"/>
<polygon fill="#000000" stroke="#000000" points="263.613,-140.9909 267.1129,-150.991 270.613,-140.991 263.613,-140.9909"/>
</g>
<!-- ConfigModule -->
<g id="node2" class="node">
<title>ConfigModule</title>
<polygon fill="#8dd3c7" stroke="#000000" points="230.4386,-122 227.4386,-126 206.4386,-126 203.4386,-122 131.5614,-122 131.5614,-86 230.4386,-86 230.4386,-122"/>
<text text-anchor="middle" x="181" y="-99.8" font-family="Times,serif" font-size="14.00" fill="#000000">ConfigModule</text>
</g>
<!-- ConfigModule&#45;&gt;AsmModule -->
<g id="edge2" class="edge">
<title>ConfigModule&#45;&gt;AsmModule</title>
<path fill="none" stroke="#000000" d="M215.1115,-122.1061C215.1115,-122.1061 215.1115,-140.991 215.1115,-140.991"/>
<polygon fill="#000000" stroke="#000000" points="211.6116,-140.9909 215.1115,-150.991 218.6116,-140.991 211.6116,-140.9909"/>
</g>
</g>
</svg>
