<?xml version="1.0" encoding="UTF-8" standalone="no"?>
<!DOCTYPE svg PUBLIC "-//W3C//DTD SVG 1.1//EN"
 "http://www.w3.org/Graphics/SVG/1.1/DTD/svg11.dtd">
<!-- Generated by graphviz version 2.40.1 (20161225.0304)
 -->
<!-- Title: dependencies Pages: 1 -->
<svg width="504pt" height="284pt"
 viewBox="0.00 0.00 504.00 284.00" xmlns="http://www.w3.org/2000/svg" xmlns:xlink="http://www.w3.org/1999/xlink">
<g id="graph0" class="graph" transform="scale(1 1) rotate(0) translate(4 280)">
<title>dependencies</title>
<polygon fill="#ffffff" stroke="transparent" points="-4,4 -4,-280 500,-280 500,4 -4,4"/>
<text text-anchor="start" x="227.0091" y="-42.4" font-family="sans-serif" font-weight="bold" font-size="14.00" fill="#000000">Legend</text>
<polygon fill="#ffffb3" stroke="transparent" points="14,-10 14,-30 34,-30 34,-10 14,-10"/>
<text text-anchor="start" x="37.629" y="-15.4" font-family="sans-serif" font-size="14.00" fill="#000000"> &#160;Declarations</text>
<polygon fill="#8dd3c7" stroke="transparent" points="127,-10 127,-30 147,-30 147,-10 127,-10"/>
<text text-anchor="start" x="150.7251" y="-15.4" font-family="sans-serif" font-size="14.00" fill="#000000"> &#160;Module</text>
<polygon fill="#80b1d3" stroke="transparent" points="213,-10 213,-30 233,-30 233,-10 213,-10"/>
<text text-anchor="start" x="236.7812" y="-15.4" font-family="sans-serif" font-size="14.00" fill="#000000"> &#160;Bootstrap</text>
<polygon fill="#fdb462" stroke="transparent" points="310,-10 310,-30 330,-30 330,-10 310,-10"/>
<text text-anchor="start" x="333.6732" y="-15.4" font-family="sans-serif" font-size="14.00" fill="#000000"> &#160;Providers</text>
<polygon fill="#fb8072" stroke="transparent" points="406,-10 406,-30 426,-30 426,-10 406,-10"/>
<text text-anchor="start" x="429.7258" y="-15.4" font-family="sans-serif" font-size="14.00" fill="#000000"> &#160;Exports</text>
<g id="clust1" class="cluster">
<title>cluster_ResetNewPasswordLayoutModule</title>
<polygon fill="none" stroke="#000000" stroke-dasharray="1,5" points="19,-70 19,-268 477,-268 477,-70 19,-70"/>
</g>
<g id="clust2" class="cluster">
<title>cluster_ResetNewPasswordLayoutModule_declarations</title>
<polygon fill="none" stroke="#000000" points="221,-78 221,-130 469,-130 469,-78 221,-78"/>
</g>
<g id="clust4" class="cluster">
<title>cluster_ResetNewPasswordLayoutModule_imports</title>
<polygon fill="none" stroke="#000000" points="27,-78 27,-130 213,-130 213,-78 27,-78"/>
</g>
<g id="clust5" class="cluster">
<title>cluster_ResetNewPasswordLayoutModule_exports</title>
<polygon fill="none" stroke="#000000" points="122,-208 122,-260 374,-260 374,-208 122,-208"/>
</g>
<!-- ResetNewPasswordLayoutComponent -->
<g id="node1" class="node">
<title>ResetNewPasswordLayoutComponent</title>
<polygon fill="#ffffb3" stroke="#000000" points="461.1727,-122 228.8273,-122 228.8273,-86 461.1727,-86 461.1727,-122"/>
<text text-anchor="middle" x="345" y="-99.8" font-family="Times,serif" font-size="14.00" fill="#000000">ResetNewPasswordLayoutComponent</text>
</g>
<!-- ResetNewPasswordLayoutModule -->
<g id="node2" class="node">
<title>ResetNewPasswordLayoutModule</title>
<polygon fill="#8dd3c7" stroke="#000000" points="353.3904,-187 350.3904,-191 329.3904,-191 326.3904,-187 142.6096,-187 142.6096,-151 353.3904,-151 353.3904,-187"/>
<text text-anchor="middle" x="248" y="-164.8" font-family="Times,serif" font-size="14.00" fill="#000000">ResetNewPasswordLayoutModule</text>
</g>
<!-- ResetNewPasswordLayoutComponent&#45;&gt;ResetNewPasswordLayoutModule -->
<g id="edge1" class="edge">
<title>ResetNewPasswordLayoutComponent&#45;&gt;ResetNewPasswordLayoutModule</title>
<path fill="none" stroke="#000000" d="M291.0544,-122.1061C291.0544,-122.1061 291.0544,-140.991 291.0544,-140.991"/>
<polygon fill="#000000" stroke="#000000" points="287.5544,-140.9909 291.0544,-150.991 294.5544,-140.991 287.5544,-140.9909"/>
</g>
<!-- ResetNewPasswordLayoutComponent  -->
<g id="node4" class="node">
<title>ResetNewPasswordLayoutComponent </title>
<polygon fill="#fb8072" stroke="#000000" points="365.6728,-252 130.3272,-252 130.3272,-216 365.6728,-216 365.6728,-252"/>
<text text-anchor="middle" x="248" y="-229.8" font-family="Times,serif" font-size="14.00" fill="#000000">ResetNewPasswordLayoutComponent </text>
</g>
<!-- ResetNewPasswordLayoutModule&#45;&gt;ResetNewPasswordLayoutComponent  -->
<g id="edge3" class="edge">
<title>ResetNewPasswordLayoutModule&#45;&gt;ResetNewPasswordLayoutComponent </title>
<path fill="none" stroke="#000000" stroke-dasharray="5,2" d="M248,-187.1061C248,-187.1061 248,-205.991 248,-205.991"/>
<polygon fill="#000000" stroke="#000000" points="244.5001,-205.9909 248,-215.991 251.5001,-205.991 244.5001,-205.9909"/>
</g>
<!-- ResetNewPasswordModule -->
<g id="node3" class="node">
<title>ResetNewPasswordModule</title>
<polygon fill="#8dd3c7" stroke="#000000" points="205.2324,-122 202.2324,-126 181.2324,-126 178.2324,-122 34.7676,-122 34.7676,-86 205.2324,-86 205.2324,-122"/>
<text text-anchor="middle" x="120" y="-99.8" font-family="Times,serif" font-size="14.00" fill="#000000">ResetNewPasswordModule</text>
</g>
<!-- ResetNewPasswordModule&#45;&gt;ResetNewPasswordLayoutModule -->
<g id="edge2" class="edge">
<title>ResetNewPasswordModule&#45;&gt;ResetNewPasswordLayoutModule</title>
<path fill="none" stroke="#000000" d="M174.0855,-122.1061C174.0855,-122.1061 174.0855,-140.991 174.0855,-140.991"/>
<polygon fill="#000000" stroke="#000000" points="170.5856,-140.9909 174.0855,-150.991 177.5856,-140.991 170.5856,-140.9909"/>
</g>
</g>
</svg>
