<?xml version="1.0" encoding="UTF-8" standalone="no"?>
<!DOCTYPE svg PUBLIC "-//W3C//DTD SVG 1.1//EN"
 "http://www.w3.org/Graphics/SVG/1.1/DTD/svg11.dtd">
<!-- Generated by graphviz version 2.40.1 (20161225.0304)
 -->
<!-- Title: dependencies Pages: 1 -->
<svg width="540pt" height="284pt"
 viewBox="0.00 0.00 540.00 284.00" xmlns="http://www.w3.org/2000/svg" xmlns:xlink="http://www.w3.org/1999/xlink">
<g id="graph0" class="graph" transform="scale(1 1) rotate(0) translate(4 280)">
<title>dependencies</title>
<polygon fill="#ffffff" stroke="transparent" points="-4,4 -4,-280 536,-280 536,4 -4,4"/>
<text text-anchor="start" x="245.0091" y="-42.4" font-family="sans-serif" font-weight="bold" font-size="14.00" fill="#000000">Legend</text>
<polygon fill="#ffffb3" stroke="transparent" points="32,-10 32,-30 52,-30 52,-10 32,-10"/>
<text text-anchor="start" x="55.629" y="-15.4" font-family="sans-serif" font-size="14.00" fill="#000000"> &#160;Declarations</text>
<polygon fill="#8dd3c7" stroke="transparent" points="145,-10 145,-30 165,-30 165,-10 145,-10"/>
<text text-anchor="start" x="168.7251" y="-15.4" font-family="sans-serif" font-size="14.00" fill="#000000"> &#160;Module</text>
<polygon fill="#80b1d3" stroke="transparent" points="231,-10 231,-30 251,-30 251,-10 231,-10"/>
<text text-anchor="start" x="254.7812" y="-15.4" font-family="sans-serif" font-size="14.00" fill="#000000"> &#160;Bootstrap</text>
<polygon fill="#fdb462" stroke="transparent" points="328,-10 328,-30 348,-30 348,-10 328,-10"/>
<text text-anchor="start" x="351.6732" y="-15.4" font-family="sans-serif" font-size="14.00" fill="#000000"> &#160;Providers</text>
<polygon fill="#fb8072" stroke="transparent" points="424,-10 424,-30 444,-30 444,-10 424,-10"/>
<text text-anchor="start" x="447.7258" y="-15.4" font-family="sans-serif" font-size="14.00" fill="#000000"> &#160;Exports</text>
<g id="clust1" class="cluster">
<title>cluster_CheckoutOrderSummaryModule</title>
<polygon fill="none" stroke="#000000" stroke-dasharray="1,5" points="8,-70 8,-268 524,-268 524,-70 8,-70"/>
</g>
<g id="clust2" class="cluster">
<title>cluster_CheckoutOrderSummaryModule_declarations</title>
<polygon fill="none" stroke="#000000" points="278,-78 278,-130 516,-130 516,-78 278,-78"/>
</g>
<g id="clust4" class="cluster">
<title>cluster_CheckoutOrderSummaryModule_imports</title>
<polygon fill="none" stroke="#000000" points="16,-78 16,-130 270,-130 270,-78 16,-78"/>
</g>
<g id="clust5" class="cluster">
<title>cluster_CheckoutOrderSummaryModule_exports</title>
<polygon fill="none" stroke="#000000" points="80,-208 80,-260 322,-260 322,-208 80,-208"/>
</g>
<!-- CheckoutOrderSummaryComponent -->
<g id="node1" class="node">
<title>CheckoutOrderSummaryComponent</title>
<polygon fill="#ffffb3" stroke="#000000" points="508.0702,-122 285.9298,-122 285.9298,-86 508.0702,-86 508.0702,-122"/>
<text text-anchor="middle" x="397" y="-99.8" font-family="Times,serif" font-size="14.00" fill="#000000">CheckoutOrderSummaryComponent</text>
</g>
<!-- CheckoutOrderSummaryModule -->
<g id="node2" class="node">
<title>CheckoutOrderSummaryModule</title>
<polygon fill="#8dd3c7" stroke="#000000" points="301.2878,-187 298.2878,-191 277.2878,-191 274.2878,-187 100.7122,-187 100.7122,-151 301.2878,-151 301.2878,-187"/>
<text text-anchor="middle" x="201" y="-164.8" font-family="Times,serif" font-size="14.00" fill="#000000">CheckoutOrderSummaryModule</text>
</g>
<!-- CheckoutOrderSummaryComponent&#45;&gt;CheckoutOrderSummaryModule -->
<g id="edge1" class="edge">
<title>CheckoutOrderSummaryComponent&#45;&gt;CheckoutOrderSummaryModule</title>
<path fill="none" stroke="#000000" d="M293.5544,-122.1061C293.5544,-122.1061 293.5544,-140.991 293.5544,-140.991"/>
<polygon fill="#000000" stroke="#000000" points="290.0544,-140.9909 293.5544,-150.991 297.0544,-140.991 290.0544,-140.9909"/>
</g>
<!-- CheckoutOrderSummaryComponent  -->
<g id="node5" class="node">
<title>CheckoutOrderSummaryComponent </title>
<polygon fill="#fb8072" stroke="#000000" points="313.5706,-252 88.4294,-252 88.4294,-216 313.5706,-216 313.5706,-252"/>
<text text-anchor="middle" x="201" y="-229.8" font-family="Times,serif" font-size="14.00" fill="#000000">CheckoutOrderSummaryComponent </text>
</g>
<!-- CheckoutOrderSummaryModule&#45;&gt;CheckoutOrderSummaryComponent  -->
<g id="edge4" class="edge">
<title>CheckoutOrderSummaryModule&#45;&gt;CheckoutOrderSummaryComponent </title>
<path fill="none" stroke="#000000" stroke-dasharray="5,2" d="M201,-187.1061C201,-187.1061 201,-205.991 201,-205.991"/>
<polygon fill="#000000" stroke="#000000" points="197.5001,-205.9909 201,-215.991 204.5001,-205.991 197.5001,-205.9909"/>
</g>
<!-- CartSharedModule -->
<g id="node3" class="node">
<title>CartSharedModule</title>
<polygon fill="#8dd3c7" stroke="#000000" points="262.0255,-122 259.0255,-126 238.0255,-126 235.0255,-122 139.9745,-122 139.9745,-86 262.0255,-86 262.0255,-122"/>
<text text-anchor="middle" x="201" y="-99.8" font-family="Times,serif" font-size="14.00" fill="#000000">CartSharedModule</text>
</g>
<!-- CartSharedModule&#45;&gt;CheckoutOrderSummaryModule -->
<g id="edge2" class="edge">
<title>CartSharedModule&#45;&gt;CheckoutOrderSummaryModule</title>
<path fill="none" stroke="#000000" d="M201,-122.1061C201,-122.1061 201,-140.991 201,-140.991"/>
<polygon fill="#000000" stroke="#000000" points="197.5001,-140.9909 201,-150.991 204.5001,-140.991 197.5001,-140.9909"/>
</g>
<!-- ConfigModule -->
<g id="node4" class="node">
<title>ConfigModule</title>
<polygon fill="#8dd3c7" stroke="#000000" points="122.4386,-122 119.4386,-126 98.4386,-126 95.4386,-122 23.5614,-122 23.5614,-86 122.4386,-86 122.4386,-122"/>
<text text-anchor="middle" x="73" y="-99.8" font-family="Times,serif" font-size="14.00" fill="#000000">ConfigModule</text>
</g>
<!-- ConfigModule&#45;&gt;CheckoutOrderSummaryModule -->
<g id="edge3" class="edge">
<title>ConfigModule&#45;&gt;CheckoutOrderSummaryModule</title>
<path fill="none" stroke="#000000" d="M111.5375,-122.1061C111.5375,-122.1061 111.5375,-140.991 111.5375,-140.991"/>
<polygon fill="#000000" stroke="#000000" points="108.0376,-140.9909 111.5375,-150.991 115.0376,-140.991 108.0376,-140.9909"/>
</g>
</g>
</svg>
