<?xml version="1.0" encoding="UTF-8" standalone="no"?>
<!DOCTYPE svg PUBLIC "-//W3C//DTD SVG 1.1//EN"
 "http://www.w3.org/Graphics/SVG/1.1/DTD/svg11.dtd">
<!-- Generated by graphviz version 2.44.1 (20200629.0846)
 -->
<!-- Title: dependencies Pages: 1 -->
<svg width="504pt" height="284pt"
 viewBox="0.00 0.00 504.00 284.00" xmlns="http://www.w3.org/2000/svg" xmlns:xlink="http://www.w3.org/1999/xlink">
<g id="graph0" class="graph" transform="scale(1 1) rotate(0) translate(4 280)">
<title>dependencies</title>
<polygon fill="white" stroke="transparent" points="-4,4 -4,-280 500,-280 500,4 -4,4"/>
<text text-anchor="start" x="227.01" y="-42.4" font-family="sans-serif" font-weight="bold" font-size="14.00">Legend</text>
<polygon fill="#ffffb3" stroke="transparent" points="14,-10 14,-30 34,-30 34,-10 14,-10"/>
<text text-anchor="start" x="37.63" y="-15.4" font-family="sans-serif" font-size="14.00"> &#160;Declarations</text>
<polygon fill="#8dd3c7" stroke="transparent" points="127,-10 127,-30 147,-30 147,-10 127,-10"/>
<text text-anchor="start" x="150.73" y="-15.4" font-family="sans-serif" font-size="14.00"> &#160;Module</text>
<polygon fill="#80b1d3" stroke="transparent" points="213,-10 213,-30 233,-30 233,-10 213,-10"/>
<text text-anchor="start" x="236.78" y="-15.4" font-family="sans-serif" font-size="14.00"> &#160;Bootstrap</text>
<polygon fill="#fdb462" stroke="transparent" points="310,-10 310,-30 330,-30 330,-10 310,-10"/>
<text text-anchor="start" x="333.67" y="-15.4" font-family="sans-serif" font-size="14.00"> &#160;Providers</text>
<polygon fill="#fb8072" stroke="transparent" points="406,-10 406,-30 426,-30 426,-10 406,-10"/>
<text text-anchor="start" x="429.73" y="-15.4" font-family="sans-serif" font-size="14.00"> &#160;Exports</text>
<g id="clust1" class="cluster">
<title>cluster_CheckoutOrderSummaryModule</title>
<polygon fill="none" stroke="black" stroke-dasharray="1,5" points="48,-70 48,-268 448,-268 448,-70 48,-70"/>
</g>
<g id="clust2" class="cluster">
<title>cluster_CheckoutOrderSummaryModule_declarations</title>
<polygon fill="none" stroke="black" points="202,-78 202,-130 440,-130 440,-78 202,-78"/>
</g>
<g id="clust5" class="cluster">
<title>cluster_CheckoutOrderSummaryModule_exports</title>
<polygon fill="none" stroke="black" points="127,-208 127,-260 369,-260 369,-208 127,-208"/>
</g>
<g id="clust4" class="cluster">
<title>cluster_CheckoutOrderSummaryModule_imports</title>
<polygon fill="none" stroke="black" points="56,-78 56,-130 194,-130 194,-78 56,-78"/>
</g>
<!-- CheckoutOrderSummaryComponent -->
<g id="node1" class="node">
<title>CheckoutOrderSummaryComponent</title>
<polygon fill="#ffffb3" stroke="black" points="432.07,-122 209.93,-122 209.93,-86 432.07,-86 432.07,-122"/>
<text text-anchor="middle" x="321" y="-99.8" font-family="Times,serif" font-size="14.00">CheckoutOrderSummaryComponent</text>
</g>
<!-- CheckoutOrderSummaryModule -->
<g id="node2" class="node">
<title>CheckoutOrderSummaryModule</title>
<polygon fill="#8dd3c7" stroke="black" points="348.29,-187 345.29,-191 324.29,-191 321.29,-187 147.71,-187 147.71,-151 348.29,-151 348.29,-187"/>
<text text-anchor="middle" x="248" y="-164.8" font-family="Times,serif" font-size="14.00">CheckoutOrderSummaryModule</text>
</g>
<!-- CheckoutOrderSummaryComponent&#45;&gt;CheckoutOrderSummaryModule -->
<g id="edge1" class="edge">
<title>CheckoutOrderSummaryComponent&#45;&gt;CheckoutOrderSummaryModule</title>
<path fill="none" stroke="black" d="M279.05,-122.11C279.05,-122.11 279.05,-140.99 279.05,-140.99"/>
<polygon fill="black" stroke="black" points="275.55,-140.99 279.05,-150.99 282.55,-140.99 275.55,-140.99"/>
</g>
<!-- CheckoutOrderSummaryComponent  -->
<g id="node4" class="node">
<title>CheckoutOrderSummaryComponent </title>
<polygon fill="#fb8072" stroke="black" points="360.57,-252 135.43,-252 135.43,-216 360.57,-216 360.57,-252"/>
<text text-anchor="middle" x="248" y="-229.8" font-family="Times,serif" font-size="14.00">CheckoutOrderSummaryComponent </text>
</g>
<!-- CheckoutOrderSummaryModule&#45;&gt;CheckoutOrderSummaryComponent  -->
<g id="edge3" class="edge">
<title>CheckoutOrderSummaryModule&#45;&gt;CheckoutOrderSummaryComponent </title>
<path fill="none" stroke="black" stroke-dasharray="5,2" d="M248,-187.11C248,-187.11 248,-205.99 248,-205.99"/>
<polygon fill="black" stroke="black" points="244.5,-205.99 248,-215.99 251.5,-205.99 244.5,-205.99"/>
</g>
<!-- CartSharedModule -->
<g id="node3" class="node">
<title>CartSharedModule</title>
<polygon fill="#8dd3c7" stroke="black" points="186.03,-122 183.03,-126 162.03,-126 159.03,-122 63.97,-122 63.97,-86 186.03,-86 186.03,-122"/>
<text text-anchor="middle" x="125" y="-99.8" font-family="Times,serif" font-size="14.00">CartSharedModule</text>
</g>
<!-- CartSharedModule&#45;&gt;CheckoutOrderSummaryModule -->
<g id="edge2" class="edge">
<title>CartSharedModule&#45;&gt;CheckoutOrderSummaryModule</title>
<path fill="none" stroke="black" d="M167.06,-122.11C167.06,-122.11 167.06,-140.99 167.06,-140.99"/>
<polygon fill="black" stroke="black" points="163.56,-140.99 167.06,-150.99 170.56,-140.99 163.56,-140.99"/>
</g>
</g>
</svg>
