<?xml version="1.0" encoding="UTF-8" standalone="no"?>
<!DOCTYPE svg PUBLIC "-//W3C//DTD SVG 1.1//EN"
 "http://www.w3.org/Graphics/SVG/1.1/DTD/svg11.dtd">
<!-- Generated by graphviz version 2.40.1 (20161225.0304)
 -->
<!-- Title: dependencies Pages: 1 -->
<svg width="1695pt" height="211pt"
 viewBox="0.00 0.00 1695.00 211.00" xmlns="http://www.w3.org/2000/svg" xmlns:xlink="http://www.w3.org/1999/xlink">
<g id="graph0" class="graph" transform="scale(1 1) rotate(0) translate(4 207)">
<title>dependencies</title>
<polygon fill="#ffffff" stroke="transparent" points="-4,4 -4,-207 1691,-207 1691,4 -4,4"/>
<text text-anchor="start" x="822.5091" y="-42.4" font-family="sans-serif" font-weight="bold" font-size="14.00" fill="#000000">Legend</text>
<polygon fill="#ffffb3" stroke="transparent" points="609.5,-10 609.5,-30 629.5,-30 629.5,-10 609.5,-10"/>
<text text-anchor="start" x="633.129" y="-15.4" font-family="sans-serif" font-size="14.00" fill="#000000"> &#160;Declarations</text>
<polygon fill="#8dd3c7" stroke="transparent" points="722.5,-10 722.5,-30 742.5,-30 742.5,-10 722.5,-10"/>
<text text-anchor="start" x="746.2251" y="-15.4" font-family="sans-serif" font-size="14.00" fill="#000000"> &#160;Module</text>
<polygon fill="#80b1d3" stroke="transparent" points="808.5,-10 808.5,-30 828.5,-30 828.5,-10 808.5,-10"/>
<text text-anchor="start" x="832.2812" y="-15.4" font-family="sans-serif" font-size="14.00" fill="#000000"> &#160;Bootstrap</text>
<polygon fill="#fdb462" stroke="transparent" points="905.5,-10 905.5,-30 925.5,-30 925.5,-10 905.5,-10"/>
<text text-anchor="start" x="929.1732" y="-15.4" font-family="sans-serif" font-size="14.00" fill="#000000"> &#160;Providers</text>
<polygon fill="#fb8072" stroke="transparent" points="1001.5,-10 1001.5,-30 1021.5,-30 1021.5,-10 1001.5,-10"/>
<text text-anchor="start" x="1025.2258" y="-15.4" font-family="sans-serif" font-size="14.00" fill="#000000"> &#160;Exports</text>
<g id="clust1" class="cluster">
<title>cluster_BaseCoreModule</title>
<polygon fill="none" stroke="#000000" stroke-dasharray="1,5" points="8,-70 8,-195 1679,-195 1679,-70 8,-70"/>
</g>
<g id="clust3" class="cluster">
<title>cluster_BaseCoreModule_imports</title>
<polygon fill="none" stroke="#000000" points="16,-78 16,-130 1671,-130 1671,-78 16,-78"/>
</g>
<!-- BaseOccModule -->
<g id="node1" class="node">
<title>BaseOccModule</title>
<polygon fill="#8dd3c7" stroke="#000000" points="1662.7964,-122 1659.7964,-126 1638.7964,-126 1635.7964,-122 1553.2036,-122 1553.2036,-86 1662.7964,-86 1662.7964,-122"/>
<text text-anchor="middle" x="1608" y="-99.8" font-family="Times,serif" font-size="14.00" fill="#000000">BaseOccModule</text>
</g>
<!-- BaseCoreModule -->
<g id="node13" class="node">
<title>BaseCoreModule</title>
<polygon fill="#8dd3c7" stroke="#000000" points="876.972,-187 873.972,-191 852.972,-191 849.972,-187 763.028,-187 763.028,-151 876.972,-151 876.972,-187"/>
<text text-anchor="middle" x="820" y="-164.8" font-family="Times,serif" font-size="14.00" fill="#000000">BaseCoreModule</text>
</g>
<!-- BaseOccModule&#45;&gt;BaseCoreModule -->
<g id="edge1" class="edge">
<title>BaseOccModule&#45;&gt;BaseCoreModule</title>
<path fill="none" stroke="#000000" d="M1608,-122.0908C1608,-145.1328 1608,-182 1608,-182 1608,-182 886.988,-182 886.988,-182"/>
<polygon fill="#000000" stroke="#000000" points="886.988,-178.5001 876.988,-182 886.988,-185.5001 886.988,-178.5001"/>
</g>
<!-- CmsModule -->
<g id="node2" class="node">
<title>CmsModule</title>
<polygon fill="#8dd3c7" stroke="#000000" points="1535.7219,-122 1532.7219,-126 1511.7219,-126 1508.7219,-122 1450.2781,-122 1450.2781,-86 1535.7219,-86 1535.7219,-122"/>
<text text-anchor="middle" x="1493" y="-99.8" font-family="Times,serif" font-size="14.00" fill="#000000">CmsModule</text>
</g>
<!-- CmsModule&#45;&gt;BaseCoreModule -->
<g id="edge2" class="edge">
<title>CmsModule&#45;&gt;BaseCoreModule</title>
<path fill="none" stroke="#000000" d="M1493,-122.2843C1493,-143.3211 1493,-175 1493,-175 1493,-175 887.0893,-175 887.0893,-175"/>
<polygon fill="#000000" stroke="#000000" points="887.0893,-171.5001 877.0893,-175 887.0892,-178.5001 887.0893,-171.5001"/>
</g>
<!-- ConfigInitializerModule -->
<g id="node3" class="node">
<title>ConfigInitializerModule</title>
<polygon fill="#8dd3c7" stroke="#000000" points="1432.3557,-122 1429.3557,-126 1408.3557,-126 1405.3557,-122 1279.6443,-122 1279.6443,-86 1432.3557,-86 1432.3557,-122"/>
<text text-anchor="middle" x="1356" y="-99.8" font-family="Times,serif" font-size="14.00" fill="#000000">ConfigInitializerModule</text>
</g>
<!-- ConfigInitializerModule&#45;&gt;BaseCoreModule -->
<g id="edge3" class="edge">
<title>ConfigInitializerModule&#45;&gt;BaseCoreModule</title>
<path fill="none" stroke="#000000" d="M1356,-122.1061C1356,-141.3391 1356,-169 1356,-169 1356,-169 887.1074,-169 887.1074,-169"/>
<polygon fill="#000000" stroke="#000000" points="887.1075,-165.5001 877.1074,-169 887.1074,-172.5001 887.1075,-165.5001"/>
</g>
<!-- ConfigModule -->
<g id="node4" class="node">
<title>ConfigModule</title>
<polygon fill="#8dd3c7" stroke="#000000" points="1261.4386,-122 1258.4386,-126 1237.4386,-126 1234.4386,-122 1162.5614,-122 1162.5614,-86 1261.4386,-86 1261.4386,-122"/>
<text text-anchor="middle" x="1212" y="-99.8" font-family="Times,serif" font-size="14.00" fill="#000000">ConfigModule</text>
</g>
<!-- ConfigModule&#45;&gt;BaseCoreModule -->
<g id="edge4" class="edge">
<title>ConfigModule&#45;&gt;BaseCoreModule</title>
<path fill="none" stroke="#000000" d="M1212,-122.0225C1212,-139.3734 1212,-163 1212,-163 1212,-163 887.0002,-163 887.0002,-163"/>
<polygon fill="#000000" stroke="#000000" points="887.0002,-159.5001 877.0002,-163 887.0001,-166.5001 887.0002,-159.5001"/>
</g>
<!-- ConfigValidatorModule -->
<g id="node5" class="node">
<title>ConfigValidatorModule</title>
<polygon fill="#8dd3c7" stroke="#000000" points="1144.8061,-122 1141.8061,-126 1120.8061,-126 1117.8061,-122 993.1939,-122 993.1939,-86 1144.8061,-86 1144.8061,-122"/>
<text text-anchor="middle" x="1069" y="-99.8" font-family="Times,serif" font-size="14.00" fill="#000000">ConfigValidatorModule</text>
</g>
<!-- ConfigValidatorModule&#45;&gt;BaseCoreModule -->
<g id="edge5" class="edge">
<title>ConfigValidatorModule&#45;&gt;BaseCoreModule</title>
<path fill="none" stroke="#000000" d="M1069,-122.2396C1069,-137.5706 1069,-157 1069,-157 1069,-157 887.1256,-157 887.1256,-157"/>
<polygon fill="#000000" stroke="#000000" points="887.1257,-153.5001 877.1256,-157 887.1256,-160.5001 887.1257,-153.5001"/>
</g>
<!-- FeaturesConfigModule -->
<g id="node6" class="node">
<title>FeaturesConfigModule</title>
<polygon fill="#8dd3c7" stroke="#000000" points="974.8599,-122 971.8599,-126 950.8599,-126 947.8599,-122 829.1401,-122 829.1401,-86 974.8599,-86 974.8599,-122"/>
<text text-anchor="middle" x="902" y="-99.8" font-family="Times,serif" font-size="14.00" fill="#000000">FeaturesConfigModule</text>
</g>
<!-- FeaturesConfigModule&#45;&gt;BaseCoreModule -->
<g id="edge6" class="edge">
<title>FeaturesConfigModule&#45;&gt;BaseCoreModule</title>
<path fill="none" stroke="#000000" d="M853.0281,-122.1061C853.0281,-122.1061 853.0281,-140.991 853.0281,-140.991"/>
<polygon fill="#000000" stroke="#000000" points="849.5281,-140.9909 853.0281,-150.991 856.5281,-140.991 849.5281,-140.9909"/>
</g>
<!-- GlobalMessageModule -->
<g id="node7" class="node">
<title>GlobalMessageModule</title>
<polygon fill="#8dd3c7" stroke="#000000" points="811.1303,-122 808.1303,-126 787.1303,-126 784.1303,-122 664.8697,-122 664.8697,-86 811.1303,-86 811.1303,-122"/>
<text text-anchor="middle" x="738" y="-99.8" font-family="Times,serif" font-size="14.00" fill="#000000">GlobalMessageModule</text>
</g>
<!-- GlobalMessageModule&#45;&gt;BaseCoreModule -->
<g id="edge7" class="edge">
<title>GlobalMessageModule&#45;&gt;BaseCoreModule</title>
<path fill="none" stroke="#000000" d="M787.1645,-122.1061C787.1645,-122.1061 787.1645,-140.991 787.1645,-140.991"/>
<polygon fill="#000000" stroke="#000000" points="783.6645,-140.9909 787.1645,-150.991 790.6645,-140.991 783.6645,-140.9909"/>
</g>
<!-- I18nModule -->
<g id="node8" class="node">
<title>I18nModule</title>
<polygon fill="#8dd3c7" stroke="#000000" points="646.7107,-122 643.7107,-126 622.7107,-126 619.7107,-122 561.2893,-122 561.2893,-86 646.7107,-86 646.7107,-122"/>
<text text-anchor="middle" x="604" y="-99.8" font-family="Times,serif" font-size="14.00" fill="#000000">I18nModule</text>
</g>
<!-- I18nModule&#45;&gt;BaseCoreModule -->
<g id="edge8" class="edge">
<title>I18nModule&#45;&gt;BaseCoreModule</title>
<path fill="none" stroke="#000000" d="M604,-122.2396C604,-137.5706 604,-157 604,-157 604,-157 752.966,-157 752.966,-157"/>
<polygon fill="#000000" stroke="#000000" points="752.966,-160.5001 762.966,-157 752.966,-153.5001 752.966,-160.5001"/>
</g>
<!-- MetaTagConfigModule -->
<g id="node9" class="node">
<title>MetaTagConfigModule</title>
<polygon fill="#8dd3c7" stroke="#000000" points="543.4692,-122 540.4692,-126 519.4692,-126 516.4692,-122 394.5308,-122 394.5308,-86 543.4692,-86 543.4692,-122"/>
<text text-anchor="middle" x="469" y="-99.8" font-family="Times,serif" font-size="14.00" fill="#000000">MetaTagConfigModule</text>
</g>
<!-- MetaTagConfigModule&#45;&gt;BaseCoreModule -->
<g id="edge9" class="edge">
<title>MetaTagConfigModule&#45;&gt;BaseCoreModule</title>
<path fill="none" stroke="#000000" d="M469,-122.0225C469,-139.3734 469,-163 469,-163 469,-163 752.8246,-163 752.8246,-163"/>
<polygon fill="#000000" stroke="#000000" points="752.8246,-166.5001 762.8246,-163 752.8246,-159.5001 752.8246,-166.5001"/>
</g>
<!-- ProcessModule -->
<g id="node10" class="node">
<title>ProcessModule</title>
<polygon fill="#8dd3c7" stroke="#000000" points="376.3119,-122 373.3119,-126 352.3119,-126 349.3119,-122 273.6881,-122 273.6881,-86 376.3119,-86 376.3119,-122"/>
<text text-anchor="middle" x="325" y="-99.8" font-family="Times,serif" font-size="14.00" fill="#000000">ProcessModule</text>
</g>
<!-- ProcessModule&#45;&gt;BaseCoreModule -->
<g id="edge10" class="edge">
<title>ProcessModule&#45;&gt;BaseCoreModule</title>
<path fill="none" stroke="#000000" d="M325,-122.1061C325,-141.3391 325,-169 325,-169 325,-169 752.7336,-169 752.7336,-169"/>
<polygon fill="#000000" stroke="#000000" points="752.7337,-172.5001 762.7336,-169 752.7336,-165.5001 752.7337,-172.5001"/>
</g>
<!-- SiteContextModule -->
<g id="node11" class="node">
<title>SiteContextModule</title>
<polygon fill="#8dd3c7" stroke="#000000" points="255.6611,-122 252.6611,-126 231.6611,-126 228.6611,-122 130.3389,-122 130.3389,-86 255.6611,-86 255.6611,-122"/>
<text text-anchor="middle" x="193" y="-99.8" font-family="Times,serif" font-size="14.00" fill="#000000">SiteContextModule</text>
</g>
<!-- SiteContextModule&#45;&gt;BaseCoreModule -->
<g id="edge11" class="edge">
<title>SiteContextModule&#45;&gt;BaseCoreModule</title>
<path fill="none" stroke="#000000" d="M193,-122.2843C193,-143.3211 193,-175 193,-175 193,-175 752.9742,-175 752.9742,-175"/>
<polygon fill="#000000" stroke="#000000" points="752.9742,-178.5001 762.9742,-175 752.9742,-171.5001 752.9742,-178.5001"/>
</g>
<!-- StateModule -->
<g id="node12" class="node">
<title>StateModule</title>
<polygon fill="#8dd3c7" stroke="#000000" points="111.544,-122 108.544,-126 87.544,-126 84.544,-122 24.456,-122 24.456,-86 111.544,-86 111.544,-122"/>
<text text-anchor="middle" x="68" y="-99.8" font-family="Times,serif" font-size="14.00" fill="#000000">StateModule</text>
</g>
<!-- StateModule&#45;&gt;BaseCoreModule -->
<g id="edge12" class="edge">
<title>StateModule&#45;&gt;BaseCoreModule</title>
<path fill="none" stroke="#000000" d="M68,-122.0908C68,-145.1328 68,-182 68,-182 68,-182 752.8606,-182 752.8606,-182"/>
<polygon fill="#000000" stroke="#000000" points="752.8606,-185.5001 762.8606,-182 752.8605,-178.5001 752.8606,-185.5001"/>
</g>
</g>
</svg>
