<?xml version="1.0" encoding="UTF-8" standalone="no"?>
<!DOCTYPE svg PUBLIC "-//W3C//DTD SVG 1.1//EN"
 "http://www.w3.org/Graphics/SVG/1.1/DTD/svg11.dtd">
<!-- Generated by graphviz version 2.46.0 (20210119.1425)
 -->
<!-- Title: dependencies Pages: 1 -->
<svg width="504pt" height="211pt"
 viewBox="0.00 0.00 504.00 211.00" xmlns="http://www.w3.org/2000/svg" xmlns:xlink="http://www.w3.org/1999/xlink">
<g id="graph0" class="graph" transform="scale(1 1) rotate(0) translate(4 207)">
<title>dependencies</title>
<polygon fill="white" stroke="transparent" points="-4,4 -4,-207 500,-207 500,4 -4,4"/>
<text text-anchor="start" x="227.01" y="-42.4" font-family="sans-serif" font-weight="bold" font-size="14.00">Legend</text>
<polygon fill="#ffffb3" stroke="transparent" points="14,-10 14,-30 34,-30 34,-10 14,-10"/>
<text text-anchor="start" x="37.63" y="-15.4" font-family="sans-serif" font-size="14.00"> &#160;Declarations</text>
<polygon fill="#8dd3c7" stroke="transparent" points="127,-10 127,-30 147,-30 147,-10 127,-10"/>
<text text-anchor="start" x="150.73" y="-15.4" font-family="sans-serif" font-size="14.00"> &#160;Module</text>
<polygon fill="#80b1d3" stroke="transparent" points="213,-10 213,-30 233,-30 233,-10 213,-10"/>
<text text-anchor="start" x="236.78" y="-15.4" font-family="sans-serif" font-size="14.00"> &#160;Bootstrap</text>
<polygon fill="#fdb462" stroke="transparent" points="310,-10 310,-30 330,-30 330,-10 310,-10"/>
<text text-anchor="start" x="333.67" y="-15.4" font-family="sans-serif" font-size="14.00"> &#160;Providers</text>
<polygon fill="#fb8072" stroke="transparent" points="406,-10 406,-30 426,-30 426,-10 406,-10"/>
<text text-anchor="start" x="429.73" y="-15.4" font-family="sans-serif" font-size="14.00"> &#160;Exports</text>
<g id="clust1" class="cluster">
<title>cluster_OrderApprovalModule</title>
<polygon fill="none" stroke="black" stroke-dasharray="1,5" points="53,-70 53,-195 443,-195 443,-70 53,-70"/>
</g>
<g id="clust3" class="cluster">
<title>cluster_OrderApprovalModule_imports</title>
<polygon fill="none" stroke="black" points="61,-78 61,-130 435,-130 435,-78 61,-78"/>
</g>
<!-- OrderApprovalCoreModule -->
<g id="node1" class="node">
<title>OrderApprovalCoreModule</title>
<polygon fill="#8dd3c7" stroke="black" points="427.28,-122 424.28,-126 403.28,-126 400.28,-122 254.72,-122 254.72,-86 427.28,-86 427.28,-122"/>
<text text-anchor="middle" x="341" y="-99.8" font-family="Times,serif" font-size="14.00">OrderApprovalCoreModule</text>
</g>
<!-- OrderApprovalModule -->
<g id="node3" class="node">
<title>OrderApprovalModule</title>
<polygon fill="#8dd3c7" stroke="black" points="319.56,-187 316.56,-191 295.56,-191 292.56,-187 174.44,-187 174.44,-151 319.56,-151 319.56,-187"/>
<text text-anchor="middle" x="247" y="-164.8" font-family="Times,serif" font-size="14.00">OrderApprovalModule</text>
</g>
<!-- OrderApprovalCoreModule&#45;&gt;OrderApprovalModule -->
<g id="edge1" class="edge">
<title>OrderApprovalCoreModule&#45;&gt;OrderApprovalModule</title>
<path fill="none" stroke="black" d="M287.2,-122.11C287.2,-122.11 287.2,-140.99 287.2,-140.99"/>
<polygon fill="black" stroke="black" points="283.7,-140.99 287.2,-150.99 290.7,-140.99 283.7,-140.99"/>
</g>
<!-- OrderApprovalOccModule -->
<g id="node2" class="node">
<title>OrderApprovalOccModule</title>
<polygon fill="#8dd3c7" stroke="black" points="236.6,-122 233.6,-126 212.6,-126 209.6,-122 69.4,-122 69.4,-86 236.6,-86 236.6,-122"/>
<text text-anchor="middle" x="153" y="-99.8" font-family="Times,serif" font-size="14.00">OrderApprovalOccModule</text>
</g>
<!-- OrderApprovalOccModule&#45;&gt;OrderApprovalModule -->
<g id="edge2" class="edge">
<title>OrderApprovalOccModule&#45;&gt;OrderApprovalModule</title>
<path fill="none" stroke="black" d="M205.63,-122.11C205.63,-122.11 205.63,-140.99 205.63,-140.99"/>
<polygon fill="black" stroke="black" points="202.13,-140.99 205.63,-150.99 209.13,-140.99 202.13,-140.99"/>
</g>
</g>
</svg>
