<?xml version="1.0" encoding="UTF-8" standalone="no"?>
<!DOCTYPE svg PUBLIC "-//W3C//DTD SVG 1.1//EN"
 "http://www.w3.org/Graphics/SVG/1.1/DTD/svg11.dtd">
<!-- Generated by graphviz version 2.47.3 (20210619.1520)
 -->
<!-- Title: dependencies Pages: 1 -->
<svg width="414pt" height="174pt"
 viewBox="0.00 0.00 414.00 173.80" xmlns="http://www.w3.org/2000/svg" xmlns:xlink="http://www.w3.org/1999/xlink">
<g id="graph0" class="graph" transform="scale(1 1) rotate(0) translate(4 169.8)">
<title>dependencies</title>
<polygon fill="white" stroke="transparent" points="-4,4 -4,-169.8 410,-169.8 410,4 -4,4"/>
<text text-anchor="middle" x="203" y="-8.2" font-family="sans-serif" font-size="14.00">dependencies</text>
<g id="clust1" class="cluster">
<title>cluster_OrderApprovalModule</title>
<polygon fill="none" stroke="black" stroke-dasharray="1,5" points="8,-32.8 8,-157.8 398,-157.8 398,-32.8 8,-32.8"/>
</g>
<g id="clust3" class="cluster">
<title>cluster_OrderApprovalModule_imports</title>
<polygon fill="none" stroke="black" points="16,-40.8 16,-92.8 390,-92.8 390,-40.8 16,-40.8"/>
</g>
<!-- OrderApprovalCoreModule -->
<g id="node1" class="node">
<title>OrderApprovalCoreModule</title>
<polygon fill="#8dd3c7" stroke="black" points="382.28,-84.8 379.28,-88.8 358.28,-88.8 355.28,-84.8 209.72,-84.8 209.72,-48.8 382.28,-48.8 382.28,-84.8"/>
<text text-anchor="middle" x="296" y="-62.6" font-family="Times,serif" font-size="14.00">OrderApprovalCoreModule</text>
</g>
<!-- OrderApprovalModule -->
<g id="node3" class="node">
<title>OrderApprovalModule</title>
<polygon fill="#8dd3c7" stroke="black" points="274.56,-149.8 271.56,-153.8 250.56,-153.8 247.56,-149.8 129.44,-149.8 129.44,-113.8 274.56,-113.8 274.56,-149.8"/>
<text text-anchor="middle" x="202" y="-127.6" font-family="Times,serif" font-size="14.00">OrderApprovalModule</text>
</g>
<!-- OrderApprovalCoreModule&#45;&gt;OrderApprovalModule -->
<g id="edge1" class="edge">
<title>OrderApprovalCoreModule&#45;&gt;OrderApprovalModule</title>
<path fill="none" stroke="black" d="M242.2,-84.91C242.2,-84.91 242.2,-103.79 242.2,-103.79"/>
<polygon fill="black" stroke="black" points="238.7,-103.79 242.2,-113.79 245.7,-103.79 238.7,-103.79"/>
</g>
<!-- OrderApprovalOccModule -->
<g id="node2" class="node">
<title>OrderApprovalOccModule</title>
<polygon fill="#8dd3c7" stroke="black" points="191.6,-84.8 188.6,-88.8 167.6,-88.8 164.6,-84.8 24.4,-84.8 24.4,-48.8 191.6,-48.8 191.6,-84.8"/>
<text text-anchor="middle" x="108" y="-62.6" font-family="Times,serif" font-size="14.00">OrderApprovalOccModule</text>
</g>
<!-- OrderApprovalOccModule&#45;&gt;OrderApprovalModule -->
<g id="edge2" class="edge">
<title>OrderApprovalOccModule&#45;&gt;OrderApprovalModule</title>
<path fill="none" stroke="black" d="M160.63,-84.91C160.63,-84.91 160.63,-103.79 160.63,-103.79"/>
<polygon fill="black" stroke="black" points="157.13,-103.79 160.63,-113.79 164.13,-103.79 157.13,-103.79"/>
</g>
</g>
</svg>
