<?xml version="1.0" encoding="UTF-8" standalone="no"?>
<!DOCTYPE svg PUBLIC "-//W3C//DTD SVG 1.1//EN"
 "http://www.w3.org/Graphics/SVG/1.1/DTD/svg11.dtd">
<!-- Generated by graphviz version 2.47.3 (20210619.1520)
 -->
<!-- Title: dependencies Pages: 1 -->
<svg width="754pt" height="247pt"
 viewBox="0.00 0.00 754.00 246.80" xmlns="http://www.w3.org/2000/svg" xmlns:xlink="http://www.w3.org/1999/xlink">
<g id="graph0" class="graph" transform="scale(1 1) rotate(0) translate(4 242.8)">
<title>dependencies</title>
<polygon fill="white" stroke="transparent" points="-4,4 -4,-242.8 750,-242.8 750,4 -4,4"/>
<text text-anchor="middle" x="373" y="-8.2" font-family="sans-serif" font-size="14.00">dependencies</text>
<g id="clust1" class="cluster">
<title>cluster_CartCouponModule</title>
<polygon fill="none" stroke="black" stroke-dasharray="1,5" points="8,-32.8 8,-230.8 738,-230.8 738,-32.8 8,-32.8"/>
</g>
<g id="clust2" class="cluster">
<title>cluster_CartCouponModule_declarations</title>
<polygon fill="none" stroke="black" points="370,-40.8 370,-92.8 730,-92.8 730,-40.8 370,-40.8"/>
</g>
<g id="clust6" class="cluster">
<title>cluster_CartCouponModule_exports</title>
<polygon fill="none" stroke="black" points="115,-170.8 115,-222.8 482,-222.8 482,-170.8 115,-170.8"/>
</g>
<g id="clust5" class="cluster">
<title>cluster_CartCouponModule_imports</title>
<polygon fill="none" stroke="black" points="16,-40.8 16,-92.8 362,-92.8 362,-40.8 16,-40.8"/>
</g>
<!-- AppliedCouponsComponent -->
<g id="node1" class="node">
<title>AppliedCouponsComponent</title>
<polygon fill="#ffffb3" stroke="black" points="722.22,-84.8 545.78,-84.8 545.78,-48.8 722.22,-48.8 722.22,-84.8"/>
<text text-anchor="middle" x="634" y="-62.6" font-family="Times,serif" font-size="14.00">AppliedCouponsComponent</text>
</g>
<!-- CartCouponModule -->
<g id="node3" class="node">
<title>CartCouponModule</title>
<polygon fill="#8dd3c7" stroke="black" points="355.99,-149.8 352.99,-153.8 331.99,-153.8 328.99,-149.8 228.01,-149.8 228.01,-113.8 355.99,-113.8 355.99,-149.8"/>
<text text-anchor="middle" x="292" y="-127.6" font-family="Times,serif" font-size="14.00">CartCouponModule</text>
</g>
<!-- AppliedCouponsComponent&#45;&gt;CartCouponModule -->
<g id="edge1" class="edge">
<title>AppliedCouponsComponent&#45;&gt;CartCouponModule</title>
<path fill="none" stroke="black" d="M634,-85.08C634,-106.12 634,-137.8 634,-137.8 634,-137.8 366.33,-137.8 366.33,-137.8"/>
<polygon fill="black" stroke="black" points="366.33,-134.3 356.33,-137.8 366.33,-141.3 366.33,-134.3"/>
</g>
<!-- CartCouponComponent -->
<g id="node2" class="node">
<title>CartCouponComponent</title>
<polygon fill="#ffffb3" stroke="black" points="527.77,-84.8 378.23,-84.8 378.23,-48.8 527.77,-48.8 527.77,-84.8"/>
<text text-anchor="middle" x="453" y="-62.6" font-family="Times,serif" font-size="14.00">CartCouponComponent</text>
</g>
<!-- CartCouponComponent&#45;&gt;CartCouponModule -->
<g id="edge2" class="edge">
<title>CartCouponComponent&#45;&gt;CartCouponModule</title>
<path fill="none" stroke="black" d="M425.99,-84.82C425.99,-102.17 425.99,-125.8 425.99,-125.8 425.99,-125.8 366.25,-125.8 366.25,-125.8"/>
<polygon fill="black" stroke="black" points="366.25,-122.3 356.25,-125.8 366.25,-129.3 366.25,-122.3"/>
</g>
<!-- AppliedCouponsComponent  -->
<g id="node7" class="node">
<title>AppliedCouponsComponent </title>
<polygon fill="#fb8072" stroke="black" points="473.72,-214.8 294.28,-214.8 294.28,-178.8 473.72,-178.8 473.72,-214.8"/>
<text text-anchor="middle" x="384" y="-192.6" font-family="Times,serif" font-size="14.00">AppliedCouponsComponent </text>
</g>
<!-- CartCouponModule&#45;&gt;AppliedCouponsComponent  -->
<g id="edge6" class="edge">
<title>CartCouponModule&#45;&gt;AppliedCouponsComponent </title>
<path fill="none" stroke="black" stroke-dasharray="5,2" d="M325.07,-149.91C325.07,-149.91 325.07,-168.79 325.07,-168.79"/>
<polygon fill="black" stroke="black" points="321.57,-168.79 325.07,-178.79 328.57,-168.79 321.57,-168.79"/>
</g>
<!-- CartCouponComponent  -->
<g id="node8" class="node">
<title>CartCouponComponent </title>
<polygon fill="#fb8072" stroke="black" points="276.77,-214.8 123.23,-214.8 123.23,-178.8 276.77,-178.8 276.77,-214.8"/>
<text text-anchor="middle" x="200" y="-192.6" font-family="Times,serif" font-size="14.00">CartCouponComponent </text>
</g>
<!-- CartCouponModule&#45;&gt;CartCouponComponent  -->
<g id="edge7" class="edge">
<title>CartCouponModule&#45;&gt;CartCouponComponent </title>
<path fill="none" stroke="black" stroke-dasharray="5,2" d="M252.32,-149.91C252.32,-149.91 252.32,-168.79 252.32,-168.79"/>
<polygon fill="black" stroke="black" points="248.82,-168.79 252.32,-178.79 255.82,-168.79 248.82,-168.79"/>
</g>
<!-- FormErrorsModule -->
<g id="node4" class="node">
<title>FormErrorsModule</title>
<polygon fill="#8dd3c7" stroke="black" points="354.36,-84.8 351.36,-88.8 330.36,-88.8 327.36,-84.8 229.64,-84.8 229.64,-48.8 354.36,-48.8 354.36,-84.8"/>
<text text-anchor="middle" x="292" y="-62.6" font-family="Times,serif" font-size="14.00">FormErrorsModule</text>
</g>
<!-- FormErrorsModule&#45;&gt;CartCouponModule -->
<g id="edge3" class="edge">
<title>FormErrorsModule&#45;&gt;CartCouponModule</title>
<path fill="none" stroke="black" d="M292,-84.91C292,-84.91 292,-103.79 292,-103.79"/>
<polygon fill="black" stroke="black" points="288.5,-103.79 292,-113.79 295.5,-103.79 288.5,-103.79"/>
</g>
<!-- I18nModule -->
<g id="node5" class="node">
<title>I18nModule</title>
<polygon fill="#8dd3c7" stroke="black" points="211.71,-84.8 208.71,-88.8 187.71,-88.8 184.71,-84.8 126.29,-84.8 126.29,-48.8 211.71,-48.8 211.71,-84.8"/>
<text text-anchor="middle" x="169" y="-62.6" font-family="Times,serif" font-size="14.00">I18nModule</text>
</g>
<!-- I18nModule&#45;&gt;CartCouponModule -->
<g id="edge4" class="edge">
<title>I18nModule&#45;&gt;CartCouponModule</title>
<path fill="none" stroke="black" d="M169,-84.82C169,-102.17 169,-125.8 169,-125.8 169,-125.8 217.98,-125.8 217.98,-125.8"/>
<polygon fill="black" stroke="black" points="217.98,-129.3 227.98,-125.8 217.98,-122.3 217.98,-129.3"/>
</g>
<!-- IconModule -->
<g id="node6" class="node">
<title>IconModule</title>
<polygon fill="#8dd3c7" stroke="black" points="108.43,-84.8 105.43,-88.8 84.43,-88.8 81.43,-84.8 23.57,-84.8 23.57,-48.8 108.43,-48.8 108.43,-84.8"/>
<text text-anchor="middle" x="66" y="-62.6" font-family="Times,serif" font-size="14.00">IconModule</text>
</g>
<!-- IconModule&#45;&gt;CartCouponModule -->
<g id="edge5" class="edge">
<title>IconModule&#45;&gt;CartCouponModule</title>
<path fill="none" stroke="black" d="M66,-85.08C66,-106.12 66,-137.8 66,-137.8 66,-137.8 217.84,-137.8 217.84,-137.8"/>
<polygon fill="black" stroke="black" points="217.84,-141.3 227.84,-137.8 217.84,-134.3 217.84,-141.3"/>
</g>
</g>
</svg>
