<?xml version="1.0" encoding="UTF-8" standalone="no"?>
<!DOCTYPE svg PUBLIC "-//W3C//DTD SVG 1.1//EN"
 "http://www.w3.org/Graphics/SVG/1.1/DTD/svg11.dtd">
<!-- Generated by graphviz version 2.40.1 (20161225.0304)
 -->
<!-- Title: dependencies Pages: 1 -->
<svg width="728pt" height="284pt"
 viewBox="0.00 0.00 728.00 284.00" xmlns="http://www.w3.org/2000/svg" xmlns:xlink="http://www.w3.org/1999/xlink">
<g id="graph0" class="graph" transform="scale(1 1) rotate(0) translate(4 280)">
<title>dependencies</title>
<polygon fill="#ffffff" stroke="transparent" points="-4,4 -4,-280 724,-280 724,4 -4,4"/>
<text text-anchor="start" x="339.0091" y="-42.4" font-family="sans-serif" font-weight="bold" font-size="14.00" fill="#000000">Legend</text>
<polygon fill="#ffffb3" stroke="transparent" points="126,-10 126,-30 146,-30 146,-10 126,-10"/>
<text text-anchor="start" x="149.629" y="-15.4" font-family="sans-serif" font-size="14.00" fill="#000000"> &#160;Declarations</text>
<polygon fill="#8dd3c7" stroke="transparent" points="239,-10 239,-30 259,-30 259,-10 239,-10"/>
<text text-anchor="start" x="262.7251" y="-15.4" font-family="sans-serif" font-size="14.00" fill="#000000"> &#160;Module</text>
<polygon fill="#80b1d3" stroke="transparent" points="325,-10 325,-30 345,-30 345,-10 325,-10"/>
<text text-anchor="start" x="348.7812" y="-15.4" font-family="sans-serif" font-size="14.00" fill="#000000"> &#160;Bootstrap</text>
<polygon fill="#fdb462" stroke="transparent" points="422,-10 422,-30 442,-30 442,-10 422,-10"/>
<text text-anchor="start" x="445.6732" y="-15.4" font-family="sans-serif" font-size="14.00" fill="#000000"> &#160;Providers</text>
<polygon fill="#fb8072" stroke="transparent" points="518,-10 518,-30 538,-30 538,-10 518,-10"/>
<text text-anchor="start" x="541.7258" y="-15.4" font-family="sans-serif" font-size="14.00" fill="#000000"> &#160;Exports</text>
<g id="clust1" class="cluster">
<title>cluster_CartCouponModule</title>
<polygon fill="none" stroke="#000000" stroke-dasharray="1,5" points="8,-70 8,-268 712,-268 712,-70 8,-70"/>
</g>
<g id="clust2" class="cluster">
<title>cluster_CartCouponModule_declarations</title>
<polygon fill="none" stroke="#000000" points="344,-78 344,-130 704,-130 704,-78 344,-78"/>
</g>
<g id="clust5" class="cluster">
<title>cluster_CartCouponModule_imports</title>
<polygon fill="none" stroke="#000000" points="16,-78 16,-130 336,-130 336,-78 16,-78"/>
</g>
<g id="clust6" class="cluster">
<title>cluster_CartCouponModule_exports</title>
<polygon fill="none" stroke="#000000" points="105,-208 105,-260 472,-260 472,-208 105,-208"/>
</g>
<!-- AppliedCouponsComponent -->
<g id="node1" class="node">
<title>AppliedCouponsComponent</title>
<polygon fill="#ffffb3" stroke="#000000" points="696.2161,-122 519.7839,-122 519.7839,-86 696.2161,-86 696.2161,-122"/>
<text text-anchor="middle" x="608" y="-99.8" font-family="Times,serif" font-size="14.00" fill="#000000">AppliedCouponsComponent</text>
</g>
<!-- CartCouponModule -->
<g id="node3" class="node">
<title>CartCouponModule</title>
<polygon fill="#8dd3c7" stroke="#000000" points="342.9888,-187 339.9888,-191 318.9888,-191 315.9888,-187 215.0112,-187 215.0112,-151 342.9888,-151 342.9888,-187"/>
<text text-anchor="middle" x="279" y="-164.8" font-family="Times,serif" font-size="14.00" fill="#000000">CartCouponModule</text>
</g>
<!-- AppliedCouponsComponent&#45;&gt;CartCouponModule -->
<g id="edge1" class="edge">
<title>AppliedCouponsComponent&#45;&gt;CartCouponModule</title>
<path fill="none" stroke="#000000" d="M608,-122.1061C608,-141.3391 608,-169 608,-169 608,-169 353.2155,-169 353.2155,-169"/>
<polygon fill="#000000" stroke="#000000" points="353.2156,-165.5001 343.2155,-169 353.2155,-172.5001 353.2156,-165.5001"/>
</g>
<!-- CartCouponComponent -->
<g id="node2" class="node">
<title>CartCouponComponent</title>
<polygon fill="#ffffb3" stroke="#000000" points="501.7716,-122 352.2284,-122 352.2284,-86 501.7716,-86 501.7716,-122"/>
<text text-anchor="middle" x="427" y="-99.8" font-family="Times,serif" font-size="14.00" fill="#000000">CartCouponComponent</text>
</g>
<!-- CartCouponComponent&#45;&gt;CartCouponModule -->
<g id="edge2" class="edge">
<title>CartCouponComponent&#45;&gt;CartCouponModule</title>
<path fill="none" stroke="#000000" d="M351.9459,-104C342.2461,-104 335.6066,-104 335.6066,-104 335.6066,-104 335.6066,-140.8939 335.6066,-140.8939"/>
<polygon fill="#000000" stroke="#000000" points="332.1067,-140.8938 335.6066,-150.8939 339.1067,-140.8939 332.1067,-140.8938"/>
</g>
<!-- AppliedCouponsComponent  -->
<g id="node7" class="node">
<title>AppliedCouponsComponent </title>
<polygon fill="#fb8072" stroke="#000000" points="463.7162,-252 284.2838,-252 284.2838,-216 463.7162,-216 463.7162,-252"/>
<text text-anchor="middle" x="374" y="-229.8" font-family="Times,serif" font-size="14.00" fill="#000000">AppliedCouponsComponent </text>
</g>
<!-- CartCouponModule&#45;&gt;AppliedCouponsComponent  -->
<g id="edge6" class="edge">
<title>CartCouponModule&#45;&gt;AppliedCouponsComponent </title>
<path fill="none" stroke="#000000" stroke-dasharray="5,2" d="M313.5682,-187.1061C313.5682,-187.1061 313.5682,-205.991 313.5682,-205.991"/>
<polygon fill="#000000" stroke="#000000" points="310.0683,-205.9909 313.5682,-215.991 317.0683,-205.991 310.0683,-205.9909"/>
</g>
<!-- CartCouponComponent  -->
<g id="node8" class="node">
<title>CartCouponComponent </title>
<polygon fill="#fb8072" stroke="#000000" points="266.7716,-252 113.2284,-252 113.2284,-216 266.7716,-216 266.7716,-252"/>
<text text-anchor="middle" x="190" y="-229.8" font-family="Times,serif" font-size="14.00" fill="#000000">CartCouponComponent </text>
</g>
<!-- CartCouponModule&#45;&gt;CartCouponComponent  -->
<g id="edge7" class="edge">
<title>CartCouponModule&#45;&gt;CartCouponComponent </title>
<path fill="none" stroke="#000000" stroke-dasharray="5,2" d="M240.8207,-187.1061C240.8207,-187.1061 240.8207,-205.991 240.8207,-205.991"/>
<polygon fill="#000000" stroke="#000000" points="237.3207,-205.9909 240.8207,-215.991 244.3207,-205.991 237.3207,-205.9909"/>
</g>
<!-- ConfigModule -->
<g id="node4" class="node">
<title>ConfigModule</title>
<polygon fill="#8dd3c7" stroke="#000000" points="328.4386,-122 325.4386,-126 304.4386,-126 301.4386,-122 229.5614,-122 229.5614,-86 328.4386,-86 328.4386,-122"/>
<text text-anchor="middle" x="279" y="-99.8" font-family="Times,serif" font-size="14.00" fill="#000000">ConfigModule</text>
</g>
<!-- ConfigModule&#45;&gt;CartCouponModule -->
<g id="edge3" class="edge">
<title>ConfigModule&#45;&gt;CartCouponModule</title>
<path fill="none" stroke="#000000" d="M279,-122.1061C279,-122.1061 279,-140.991 279,-140.991"/>
<polygon fill="#000000" stroke="#000000" points="275.5001,-140.9909 279,-150.991 282.5001,-140.991 275.5001,-140.9909"/>
</g>
<!-- I18nModule -->
<g id="node5" class="node">
<title>I18nModule</title>
<polygon fill="#8dd3c7" stroke="#000000" points="211.7107,-122 208.7107,-126 187.7107,-126 184.7107,-122 126.2893,-122 126.2893,-86 211.7107,-86 211.7107,-122"/>
<text text-anchor="middle" x="169" y="-99.8" font-family="Times,serif" font-size="14.00" fill="#000000">I18nModule</text>
</g>
<!-- I18nModule&#45;&gt;CartCouponModule -->
<g id="edge4" class="edge">
<title>I18nModule&#45;&gt;CartCouponModule</title>
<path fill="none" stroke="#000000" d="M211.8446,-104C218.0518,-104 222.3934,-104 222.3934,-104 222.3934,-104 222.3934,-140.8939 222.3934,-140.8939"/>
<polygon fill="#000000" stroke="#000000" points="218.8935,-140.8938 222.3934,-150.8939 225.8935,-140.8939 218.8935,-140.8938"/>
</g>
<!-- IconModule -->
<g id="node6" class="node">
<title>IconModule</title>
<polygon fill="#8dd3c7" stroke="#000000" points="108.4261,-122 105.4261,-126 84.4261,-126 81.4261,-122 23.5739,-122 23.5739,-86 108.4261,-86 108.4261,-122"/>
<text text-anchor="middle" x="66" y="-99.8" font-family="Times,serif" font-size="14.00" fill="#000000">IconModule</text>
</g>
<!-- IconModule&#45;&gt;CartCouponModule -->
<g id="edge5" class="edge">
<title>IconModule&#45;&gt;CartCouponModule</title>
<path fill="none" stroke="#000000" d="M66,-122.1061C66,-141.3391 66,-169 66,-169 66,-169 204.8041,-169 204.8041,-169"/>
<polygon fill="#000000" stroke="#000000" points="204.8042,-172.5001 214.8041,-169 204.8041,-165.5001 204.8042,-172.5001"/>
</g>
</g>
</svg>
