<?xml version="1.0" encoding="UTF-8" standalone="no"?>
<!DOCTYPE svg PUBLIC "-//W3C//DTD SVG 1.1//EN"
 "http://www.w3.org/Graphics/SVG/1.1/DTD/svg11.dtd">
<!-- Generated by graphviz version 2.47.3 (20210619.1520)
 -->
<!-- Title: dependencies Pages: 1 -->
<svg width="512pt" height="247pt"
 viewBox="0.00 0.00 512.00 246.80" xmlns="http://www.w3.org/2000/svg" xmlns:xlink="http://www.w3.org/1999/xlink">
<g id="graph0" class="graph" transform="scale(1 1) rotate(0) translate(4 242.8)">
<title>dependencies</title>
<polygon fill="white" stroke="transparent" points="-4,4 -4,-242.8 508,-242.8 508,4 -4,4"/>
<text text-anchor="middle" x="252" y="-8.2" font-family="sans-serif" font-size="14.00">dependencies</text>
<g id="clust1" class="cluster">
<title>cluster_ConfiguratorAttributeHeaderModule</title>
<polygon fill="none" stroke="black" stroke-dasharray="1,5" points="8,-32.8 8,-230.8 496,-230.8 496,-32.8 8,-32.8"/>
</g>
<g id="clust5" class="cluster">
<title>cluster_ConfiguratorAttributeHeaderModule_exports</title>
<polygon fill="none" stroke="black" points="37,-170.8 37,-222.8 301,-222.8 301,-170.8 37,-170.8"/>
</g>
<g id="clust2" class="cluster">
<title>cluster_ConfiguratorAttributeHeaderModule_declarations</title>
<polygon fill="none" stroke="black" points="228,-40.8 228,-92.8 488,-92.8 488,-40.8 228,-40.8"/>
</g>
<g id="clust4" class="cluster">
<title>cluster_ConfiguratorAttributeHeaderModule_imports</title>
<polygon fill="none" stroke="black" points="16,-40.8 16,-92.8 220,-92.8 220,-40.8 16,-40.8"/>
</g>
<!-- ConfiguratorAttributeHeaderComponent -->
<g id="node1" class="node">
<title>ConfiguratorAttributeHeaderComponent</title>
<polygon fill="#ffffb3" stroke="black" points="480.1,-84.8 235.9,-84.8 235.9,-48.8 480.1,-48.8 480.1,-84.8"/>
<text text-anchor="middle" x="358" y="-62.6" font-family="Times,serif" font-size="14.00">ConfiguratorAttributeHeaderComponent</text>
</g>
<!-- ConfiguratorAttributeHeaderModule -->
<g id="node2" class="node">
<title>ConfiguratorAttributeHeaderModule</title>
<polygon fill="#8dd3c7" stroke="black" points="280.32,-149.8 277.32,-153.8 256.32,-153.8 253.32,-149.8 57.68,-149.8 57.68,-113.8 280.32,-113.8 280.32,-149.8"/>
<text text-anchor="middle" x="169" y="-127.6" font-family="Times,serif" font-size="14.00">ConfiguratorAttributeHeaderModule</text>
</g>
<!-- ConfiguratorAttributeHeaderComponent&#45;&gt;ConfiguratorAttributeHeaderModule -->
<g id="edge1" class="edge">
<title>ConfiguratorAttributeHeaderComponent&#45;&gt;ConfiguratorAttributeHeaderModule</title>
<path fill="none" stroke="black" d="M258.05,-84.91C258.05,-84.91 258.05,-103.79 258.05,-103.79"/>
<polygon fill="black" stroke="black" points="254.55,-103.79 258.05,-113.79 261.55,-103.79 254.55,-103.79"/>
</g>
<!-- ConfiguratorAttributeHeaderComponent  -->
<g id="node5" class="node">
<title>ConfiguratorAttributeHeaderComponent </title>
<polygon fill="#fb8072" stroke="black" points="293.1,-214.8 44.9,-214.8 44.9,-178.8 293.1,-178.8 293.1,-214.8"/>
<text text-anchor="middle" x="169" y="-192.6" font-family="Times,serif" font-size="14.00">ConfiguratorAttributeHeaderComponent </text>
</g>
<!-- ConfiguratorAttributeHeaderModule&#45;&gt;ConfiguratorAttributeHeaderComponent  -->
<g id="edge4" class="edge">
<title>ConfiguratorAttributeHeaderModule&#45;&gt;ConfiguratorAttributeHeaderComponent </title>
<path fill="none" stroke="black" stroke-dasharray="5,2" d="M169,-149.91C169,-149.91 169,-168.79 169,-168.79"/>
<polygon fill="black" stroke="black" points="165.5,-168.79 169,-178.79 172.5,-168.79 165.5,-168.79"/>
</g>
<!-- I18nModule -->
<g id="node3" class="node">
<title>I18nModule</title>
<polygon fill="#8dd3c7" stroke="black" points="211.71,-84.8 208.71,-88.8 187.71,-88.8 184.71,-84.8 126.29,-84.8 126.29,-48.8 211.71,-48.8 211.71,-84.8"/>
<text text-anchor="middle" x="169" y="-62.6" font-family="Times,serif" font-size="14.00">I18nModule</text>
</g>
<!-- I18nModule&#45;&gt;ConfiguratorAttributeHeaderModule -->
<g id="edge2" class="edge">
<title>I18nModule&#45;&gt;ConfiguratorAttributeHeaderModule</title>
<path fill="none" stroke="black" d="M169,-84.91C169,-84.91 169,-103.79 169,-103.79"/>
<polygon fill="black" stroke="black" points="165.5,-103.79 169,-113.79 172.5,-103.79 165.5,-103.79"/>
</g>
<!-- IconModule -->
<g id="node4" class="node">
<title>IconModule</title>
<polygon fill="#8dd3c7" stroke="black" points="108.43,-84.8 105.43,-88.8 84.43,-88.8 81.43,-84.8 23.57,-84.8 23.57,-48.8 108.43,-48.8 108.43,-84.8"/>
<text text-anchor="middle" x="66" y="-62.6" font-family="Times,serif" font-size="14.00">IconModule</text>
</g>
<!-- IconModule&#45;&gt;ConfiguratorAttributeHeaderModule -->
<g id="edge3" class="edge">
<title>IconModule&#45;&gt;ConfiguratorAttributeHeaderModule</title>
<path fill="none" stroke="black" d="M82.9,-84.91C82.9,-84.91 82.9,-103.79 82.9,-103.79"/>
<polygon fill="black" stroke="black" points="79.4,-103.79 82.9,-113.79 86.4,-103.79 79.4,-103.79"/>
</g>
</g>
</svg>
