<?xml version="1.0" encoding="UTF-8" standalone="no"?>
<!DOCTYPE svg PUBLIC "-//W3C//DTD SVG 1.1//EN"
 "http://www.w3.org/Graphics/SVG/1.1/DTD/svg11.dtd">
<!-- Generated by graphviz version 2.47.0 (20210316.0004)
 -->
<!-- Title: dependencies Pages: 1 -->
<svg width="512pt" height="284pt"
 viewBox="0.00 0.00 512.00 284.00" xmlns="http://www.w3.org/2000/svg" xmlns:xlink="http://www.w3.org/1999/xlink">
<g id="graph0" class="graph" transform="scale(1 1) rotate(0) translate(4 280)">
<title>dependencies</title>
<polygon fill="white" stroke="transparent" points="-4,4 -4,-280 508,-280 508,4 -4,4"/>
<text text-anchor="start" x="231.01" y="-42.4" font-family="sans-serif" font-weight="bold" font-size="14.00">Legend</text>
<polygon fill="#ffffb3" stroke="transparent" points="18,-10 18,-30 38,-30 38,-10 18,-10"/>
<text text-anchor="start" x="41.63" y="-15.4" font-family="sans-serif" font-size="14.00"> &#160;Declarations</text>
<polygon fill="#8dd3c7" stroke="transparent" points="131,-10 131,-30 151,-30 151,-10 131,-10"/>
<text text-anchor="start" x="154.73" y="-15.4" font-family="sans-serif" font-size="14.00"> &#160;Module</text>
<polygon fill="#80b1d3" stroke="transparent" points="217,-10 217,-30 237,-30 237,-10 217,-10"/>
<text text-anchor="start" x="240.78" y="-15.4" font-family="sans-serif" font-size="14.00"> &#160;Bootstrap</text>
<polygon fill="#fdb462" stroke="transparent" points="314,-10 314,-30 334,-30 334,-10 314,-10"/>
<text text-anchor="start" x="337.67" y="-15.4" font-family="sans-serif" font-size="14.00"> &#160;Providers</text>
<polygon fill="#fb8072" stroke="transparent" points="410,-10 410,-30 430,-30 430,-10 410,-10"/>
<text text-anchor="start" x="433.73" y="-15.4" font-family="sans-serif" font-size="14.00"> &#160;Exports</text>
<g id="clust1" class="cluster">
<title>cluster_ConfiguratorAttributeHeaderModule</title>
<polygon fill="none" stroke="black" stroke-dasharray="1,5" points="8,-70 8,-268 496,-268 496,-70 8,-70"/>
</g>
<g id="clust5" class="cluster">
<title>cluster_ConfiguratorAttributeHeaderModule_exports</title>
<polygon fill="none" stroke="black" points="37,-208 37,-260 301,-260 301,-208 37,-208"/>
</g>
<g id="clust2" class="cluster">
<title>cluster_ConfiguratorAttributeHeaderModule_declarations</title>
<polygon fill="none" stroke="black" points="228,-78 228,-130 488,-130 488,-78 228,-78"/>
</g>
<g id="clust4" class="cluster">
<title>cluster_ConfiguratorAttributeHeaderModule_imports</title>
<polygon fill="none" stroke="black" points="16,-78 16,-130 220,-130 220,-78 16,-78"/>
</g>
<!-- ConfiguratorAttributeHeaderComponent -->
<g id="node1" class="node">
<title>ConfiguratorAttributeHeaderComponent</title>
<polygon fill="#ffffb3" stroke="black" points="480.1,-122 235.9,-122 235.9,-86 480.1,-86 480.1,-122"/>
<text text-anchor="middle" x="358" y="-99.8" font-family="Times,serif" font-size="14.00">ConfiguratorAttributeHeaderComponent</text>
</g>
<!-- ConfiguratorAttributeHeaderModule -->
<g id="node2" class="node">
<title>ConfiguratorAttributeHeaderModule</title>
<polygon fill="#8dd3c7" stroke="black" points="280.32,-187 277.32,-191 256.32,-191 253.32,-187 57.68,-187 57.68,-151 280.32,-151 280.32,-187"/>
<text text-anchor="middle" x="169" y="-164.8" font-family="Times,serif" font-size="14.00">ConfiguratorAttributeHeaderModule</text>
</g>
<!-- ConfiguratorAttributeHeaderComponent&#45;&gt;ConfiguratorAttributeHeaderModule -->
<g id="edge1" class="edge">
<title>ConfiguratorAttributeHeaderComponent&#45;&gt;ConfiguratorAttributeHeaderModule</title>
<path fill="none" stroke="black" d="M258.05,-122.11C258.05,-122.11 258.05,-140.99 258.05,-140.99"/>
<polygon fill="black" stroke="black" points="254.55,-140.99 258.05,-150.99 261.55,-140.99 254.55,-140.99"/>
</g>
<!-- ConfiguratorAttributeHeaderComponent  -->
<g id="node5" class="node">
<title>ConfiguratorAttributeHeaderComponent </title>
<polygon fill="#fb8072" stroke="black" points="293.1,-252 44.9,-252 44.9,-216 293.1,-216 293.1,-252"/>
<text text-anchor="middle" x="169" y="-229.8" font-family="Times,serif" font-size="14.00">ConfiguratorAttributeHeaderComponent </text>
</g>
<!-- ConfiguratorAttributeHeaderModule&#45;&gt;ConfiguratorAttributeHeaderComponent  -->
<g id="edge4" class="edge">
<title>ConfiguratorAttributeHeaderModule&#45;&gt;ConfiguratorAttributeHeaderComponent </title>
<path fill="none" stroke="black" stroke-dasharray="5,2" d="M169,-187.11C169,-187.11 169,-205.99 169,-205.99"/>
<polygon fill="black" stroke="black" points="165.5,-205.99 169,-215.99 172.5,-205.99 165.5,-205.99"/>
</g>
<!-- I18nModule -->
<g id="node3" class="node">
<title>I18nModule</title>
<polygon fill="#8dd3c7" stroke="black" points="211.71,-122 208.71,-126 187.71,-126 184.71,-122 126.29,-122 126.29,-86 211.71,-86 211.71,-122"/>
<text text-anchor="middle" x="169" y="-99.8" font-family="Times,serif" font-size="14.00">I18nModule</text>
</g>
<!-- I18nModule&#45;&gt;ConfiguratorAttributeHeaderModule -->
<g id="edge2" class="edge">
<title>I18nModule&#45;&gt;ConfiguratorAttributeHeaderModule</title>
<path fill="none" stroke="black" d="M169,-122.11C169,-122.11 169,-140.99 169,-140.99"/>
<polygon fill="black" stroke="black" points="165.5,-140.99 169,-150.99 172.5,-140.99 165.5,-140.99"/>
</g>
<!-- IconModule -->
<g id="node4" class="node">
<title>IconModule</title>
<polygon fill="#8dd3c7" stroke="black" points="108.43,-122 105.43,-126 84.43,-126 81.43,-122 23.57,-122 23.57,-86 108.43,-86 108.43,-122"/>
<text text-anchor="middle" x="66" y="-99.8" font-family="Times,serif" font-size="14.00">IconModule</text>
</g>
<!-- IconModule&#45;&gt;ConfiguratorAttributeHeaderModule -->
<g id="edge3" class="edge">
<title>IconModule&#45;&gt;ConfiguratorAttributeHeaderModule</title>
<path fill="none" stroke="black" d="M82.9,-122.11C82.9,-122.11 82.9,-140.99 82.9,-140.99"/>
<polygon fill="black" stroke="black" points="79.4,-140.99 82.9,-150.99 86.4,-140.99 79.4,-140.99"/>
</g>
</g>
</svg>
