<?xml version="1.0" encoding="UTF-8" standalone="no"?>
<!DOCTYPE svg PUBLIC "-//W3C//DTD SVG 1.1//EN"
 "http://www.w3.org/Graphics/SVG/1.1/DTD/svg11.dtd">
<!-- Generated by graphviz version 2.40.1 (20161225.0304)
 -->
<!-- Title: dependencies Pages: 1 -->
<svg width="512pt" height="284pt"
 viewBox="0.00 0.00 512.00 284.00" xmlns="http://www.w3.org/2000/svg" xmlns:xlink="http://www.w3.org/1999/xlink">
<g id="graph0" class="graph" transform="scale(1 1) rotate(0) translate(4 280)">
<title>dependencies</title>
<polygon fill="#ffffff" stroke="transparent" points="-4,4 -4,-280 508,-280 508,4 -4,4"/>
<text text-anchor="start" x="231.0091" y="-42.4" font-family="sans-serif" font-weight="bold" font-size="14.00" fill="#000000">Legend</text>
<polygon fill="#ffffb3" stroke="transparent" points="18,-10 18,-30 38,-30 38,-10 18,-10"/>
<text text-anchor="start" x="41.629" y="-15.4" font-family="sans-serif" font-size="14.00" fill="#000000"> &#160;Declarations</text>
<polygon fill="#8dd3c7" stroke="transparent" points="131,-10 131,-30 151,-30 151,-10 131,-10"/>
<text text-anchor="start" x="154.7251" y="-15.4" font-family="sans-serif" font-size="14.00" fill="#000000"> &#160;Module</text>
<polygon fill="#80b1d3" stroke="transparent" points="217,-10 217,-30 237,-30 237,-10 217,-10"/>
<text text-anchor="start" x="240.7812" y="-15.4" font-family="sans-serif" font-size="14.00" fill="#000000"> &#160;Bootstrap</text>
<polygon fill="#fdb462" stroke="transparent" points="314,-10 314,-30 334,-30 334,-10 314,-10"/>
<text text-anchor="start" x="337.6732" y="-15.4" font-family="sans-serif" font-size="14.00" fill="#000000"> &#160;Providers</text>
<polygon fill="#fb8072" stroke="transparent" points="410,-10 410,-30 430,-30 430,-10 410,-10"/>
<text text-anchor="start" x="433.7258" y="-15.4" font-family="sans-serif" font-size="14.00" fill="#000000"> &#160;Exports</text>
<g id="clust1" class="cluster">
<title>cluster_ConfiguratorAttributeHeaderModule</title>
<polygon fill="none" stroke="#000000" stroke-dasharray="1,5" points="8,-70 8,-268 496,-268 496,-70 8,-70"/>
</g>
<g id="clust2" class="cluster">
<title>cluster_ConfiguratorAttributeHeaderModule_declarations</title>
<polygon fill="none" stroke="#000000" points="228,-78 228,-130 488,-130 488,-78 228,-78"/>
</g>
<g id="clust4" class="cluster">
<title>cluster_ConfiguratorAttributeHeaderModule_imports</title>
<polygon fill="none" stroke="#000000" points="16,-78 16,-130 220,-130 220,-78 16,-78"/>
</g>
<g id="clust5" class="cluster">
<title>cluster_ConfiguratorAttributeHeaderModule_exports</title>
<polygon fill="none" stroke="#000000" points="37,-208 37,-260 301,-260 301,-208 37,-208"/>
</g>
<!-- ConfiguratorAttributeHeaderComponent -->
<g id="node1" class="node">
<title>ConfiguratorAttributeHeaderComponent</title>
<polygon fill="#ffffb3" stroke="#000000" points="480.1021,-122 235.8979,-122 235.8979,-86 480.1021,-86 480.1021,-122"/>
<text text-anchor="middle" x="358" y="-99.8" font-family="Times,serif" font-size="14.00" fill="#000000">ConfiguratorAttributeHeaderComponent</text>
</g>
<!-- ConfiguratorAttributeHeaderModule -->
<g id="node2" class="node">
<title>ConfiguratorAttributeHeaderModule</title>
<polygon fill="#8dd3c7" stroke="#000000" points="280.3193,-187 277.3193,-191 256.3193,-191 253.3193,-187 57.6807,-187 57.6807,-151 280.3193,-151 280.3193,-187"/>
<text text-anchor="middle" x="169" y="-164.8" font-family="Times,serif" font-size="14.00" fill="#000000">ConfiguratorAttributeHeaderModule</text>
</g>
<!-- ConfiguratorAttributeHeaderComponent&#45;&gt;ConfiguratorAttributeHeaderModule -->
<g id="edge1" class="edge">
<title>ConfiguratorAttributeHeaderComponent&#45;&gt;ConfiguratorAttributeHeaderModule</title>
<path fill="none" stroke="#000000" d="M258.0544,-122.1061C258.0544,-122.1061 258.0544,-140.991 258.0544,-140.991"/>
<polygon fill="#000000" stroke="#000000" points="254.5544,-140.9909 258.0544,-150.991 261.5544,-140.991 254.5544,-140.9909"/>
</g>
<!-- ConfiguratorAttributeHeaderComponent  -->
<g id="node5" class="node">
<title>ConfiguratorAttributeHeaderComponent </title>
<polygon fill="#fb8072" stroke="#000000" points="293.1018,-252 44.8982,-252 44.8982,-216 293.1018,-216 293.1018,-252"/>
<text text-anchor="middle" x="169" y="-229.8" font-family="Times,serif" font-size="14.00" fill="#000000">ConfiguratorAttributeHeaderComponent </text>
</g>
<!-- ConfiguratorAttributeHeaderModule&#45;&gt;ConfiguratorAttributeHeaderComponent  -->
<g id="edge4" class="edge">
<title>ConfiguratorAttributeHeaderModule&#45;&gt;ConfiguratorAttributeHeaderComponent </title>
<path fill="none" stroke="#000000" stroke-dasharray="5,2" d="M169,-187.1061C169,-187.1061 169,-205.991 169,-205.991"/>
<polygon fill="#000000" stroke="#000000" points="165.5001,-205.9909 169,-215.991 172.5001,-205.991 165.5001,-205.9909"/>
</g>
<!-- I18nModule -->
<g id="node3" class="node">
<title>I18nModule</title>
<polygon fill="#8dd3c7" stroke="#000000" points="211.7107,-122 208.7107,-126 187.7107,-126 184.7107,-122 126.2893,-122 126.2893,-86 211.7107,-86 211.7107,-122"/>
<text text-anchor="middle" x="169" y="-99.8" font-family="Times,serif" font-size="14.00" fill="#000000">I18nModule</text>
</g>
<!-- I18nModule&#45;&gt;ConfiguratorAttributeHeaderModule -->
<g id="edge2" class="edge">
<title>I18nModule&#45;&gt;ConfiguratorAttributeHeaderModule</title>
<path fill="none" stroke="#000000" d="M169,-122.1061C169,-122.1061 169,-140.991 169,-140.991"/>
<polygon fill="#000000" stroke="#000000" points="165.5001,-140.9909 169,-150.991 172.5001,-140.991 165.5001,-140.9909"/>
</g>
<!-- IconModule -->
<g id="node4" class="node">
<title>IconModule</title>
<polygon fill="#8dd3c7" stroke="#000000" points="108.4261,-122 105.4261,-126 84.4261,-126 81.4261,-122 23.5739,-122 23.5739,-86 108.4261,-86 108.4261,-122"/>
<text text-anchor="middle" x="66" y="-99.8" font-family="Times,serif" font-size="14.00" fill="#000000">IconModule</text>
</g>
<!-- IconModule&#45;&gt;ConfiguratorAttributeHeaderModule -->
<g id="edge3" class="edge">
<title>IconModule&#45;&gt;ConfiguratorAttributeHeaderModule</title>
<path fill="none" stroke="#000000" d="M82.9015,-122.1061C82.9015,-122.1061 82.9015,-140.991 82.9015,-140.991"/>
<polygon fill="#000000" stroke="#000000" points="79.4015,-140.9909 82.9015,-150.991 86.4015,-140.991 79.4015,-140.9909"/>
</g>
</g>
</svg>
