<?xml version="1.0" encoding="UTF-8" standalone="no"?>
<!DOCTYPE svg PUBLIC "-//W3C//DTD SVG 1.1//EN"
 "http://www.w3.org/Graphics/SVG/1.1/DTD/svg11.dtd">
<!-- Generated by graphviz version 2.47.3 (20210619.1520)
 -->
<!-- Title: dependencies Pages: 1 -->
<svg width="488pt" height="174pt"
 viewBox="0.00 0.00 488.00 173.80" xmlns="http://www.w3.org/2000/svg" xmlns:xlink="http://www.w3.org/1999/xlink">
<g id="graph0" class="graph" transform="scale(1 1) rotate(0) translate(4 169.8)">
<title>dependencies</title>
<polygon fill="white" stroke="transparent" points="-4,4 -4,-169.8 484,-169.8 484,4 -4,4"/>
<text text-anchor="middle" x="240" y="-8.2" font-family="sans-serif" font-size="14.00">dependencies</text>
<g id="clust1" class="cluster">
<title>cluster_RulebasedConfiguratorModule</title>
<polygon fill="none" stroke="black" stroke-dasharray="1,5" points="8,-32.8 8,-157.8 472,-157.8 472,-32.8 8,-32.8"/>
</g>
<g id="clust3" class="cluster">
<title>cluster_RulebasedConfiguratorModule_imports</title>
<polygon fill="none" stroke="black" points="16,-40.8 16,-92.8 464,-92.8 464,-40.8 16,-40.8"/>
</g>
<!-- RulebasedConfiguratorCoreModule -->
<g id="node1" class="node">
<title>RulebasedConfiguratorCoreModule</title>
<polygon fill="#8dd3c7" stroke="black" points="455.89,-84.8 452.89,-88.8 431.89,-88.8 428.89,-84.8 238.11,-84.8 238.11,-48.8 455.89,-48.8 455.89,-84.8"/>
<text text-anchor="middle" x="347" y="-62.6" font-family="Times,serif" font-size="14.00">RulebasedConfiguratorCoreModule</text>
</g>
<!-- RulebasedConfiguratorModule -->
<g id="node3" class="node">
<title>RulebasedConfiguratorModule</title>
<polygon fill="#8dd3c7" stroke="black" points="329.18,-149.8 326.18,-153.8 305.18,-153.8 302.18,-149.8 138.82,-149.8 138.82,-113.8 329.18,-113.8 329.18,-149.8"/>
<text text-anchor="middle" x="234" y="-127.6" font-family="Times,serif" font-size="14.00">RulebasedConfiguratorModule</text>
</g>
<!-- RulebasedConfiguratorCoreModule&#45;&gt;RulebasedConfiguratorModule -->
<g id="edge1" class="edge">
<title>RulebasedConfiguratorCoreModule&#45;&gt;RulebasedConfiguratorModule</title>
<path fill="none" stroke="black" d="M283.7,-84.91C283.7,-84.91 283.7,-103.79 283.7,-103.79"/>
<polygon fill="black" stroke="black" points="280.2,-103.79 283.7,-113.79 287.2,-103.79 280.2,-103.79"/>
</g>
<!-- VariantConfiguratorOccModule -->
<g id="node2" class="node">
<title>VariantConfiguratorOccModule</title>
<polygon fill="#8dd3c7" stroke="black" points="220.38,-84.8 217.38,-88.8 196.38,-88.8 193.38,-84.8 23.62,-84.8 23.62,-48.8 220.38,-48.8 220.38,-84.8"/>
<text text-anchor="middle" x="122" y="-62.6" font-family="Times,serif" font-size="14.00">VariantConfiguratorOccModule</text>
</g>
<!-- VariantConfiguratorOccModule&#45;&gt;RulebasedConfiguratorModule -->
<g id="edge2" class="edge">
<title>VariantConfiguratorOccModule&#45;&gt;RulebasedConfiguratorModule</title>
<path fill="none" stroke="black" d="M179.55,-84.91C179.55,-84.91 179.55,-103.79 179.55,-103.79"/>
<polygon fill="black" stroke="black" points="176.05,-103.79 179.55,-113.79 183.05,-103.79 176.05,-103.79"/>
</g>
</g>
</svg>
