<?xml version="1.0" encoding="UTF-8" standalone="no"?>
<!DOCTYPE svg PUBLIC "-//W3C//DTD SVG 1.1//EN"
 "http://www.w3.org/Graphics/SVG/1.1/DTD/svg11.dtd">
<!-- Generated by graphviz version 2.44.1 (20200629.0846)
 -->
<!-- Title: dependencies Pages: 1 -->
<svg width="536pt" height="284pt"
 viewBox="0.00 0.00 536.00 284.00" xmlns="http://www.w3.org/2000/svg" xmlns:xlink="http://www.w3.org/1999/xlink">
<g id="graph0" class="graph" transform="scale(1 1) rotate(0) translate(4 280)">
<title>dependencies</title>
<polygon fill="white" stroke="transparent" points="-4,4 -4,-280 532,-280 532,4 -4,4"/>
<text text-anchor="start" x="243.01" y="-42.4" font-family="sans-serif" font-weight="bold" font-size="14.00">Legend</text>
<polygon fill="#ffffb3" stroke="transparent" points="30,-10 30,-30 50,-30 50,-10 30,-10"/>
<text text-anchor="start" x="53.63" y="-15.4" font-family="sans-serif" font-size="14.00"> &#160;Declarations</text>
<polygon fill="#8dd3c7" stroke="transparent" points="143,-10 143,-30 163,-30 163,-10 143,-10"/>
<text text-anchor="start" x="166.73" y="-15.4" font-family="sans-serif" font-size="14.00"> &#160;Module</text>
<polygon fill="#80b1d3" stroke="transparent" points="229,-10 229,-30 249,-30 249,-10 229,-10"/>
<text text-anchor="start" x="252.78" y="-15.4" font-family="sans-serif" font-size="14.00"> &#160;Bootstrap</text>
<polygon fill="#fdb462" stroke="transparent" points="326,-10 326,-30 346,-30 346,-10 326,-10"/>
<text text-anchor="start" x="349.67" y="-15.4" font-family="sans-serif" font-size="14.00"> &#160;Providers</text>
<polygon fill="#fb8072" stroke="transparent" points="422,-10 422,-30 442,-30 442,-10 422,-10"/>
<text text-anchor="start" x="445.73" y="-15.4" font-family="sans-serif" font-size="14.00"> &#160;Exports</text>
<g id="clust1" class="cluster">
<title>cluster_AddToWishListModule</title>
<polygon fill="none" stroke="black" stroke-dasharray="1,5" points="8,-70 8,-268 520,-268 520,-70 8,-70"/>
</g>
<g id="clust5" class="cluster">
<title>cluster_AddToWishListModule_exports</title>
<polygon fill="none" stroke="black" points="212,-208 212,-260 404,-260 404,-208 212,-208"/>
</g>
<g id="clust4" class="cluster">
<title>cluster_AddToWishListModule_imports</title>
<polygon fill="none" stroke="black" points="212,-78 212,-130 512,-130 512,-78 212,-78"/>
</g>
<g id="clust2" class="cluster">
<title>cluster_AddToWishListModule_declarations</title>
<polygon fill="none" stroke="black" points="16,-78 16,-130 204,-130 204,-78 16,-78"/>
</g>
<!-- AddToWishListComponent -->
<g id="node1" class="node">
<title>AddToWishListComponent</title>
<polygon fill="#ffffb3" stroke="black" points="196.32,-122 23.68,-122 23.68,-86 196.32,-86 196.32,-122"/>
<text text-anchor="middle" x="110" y="-99.8" font-family="Times,serif" font-size="14.00">AddToWishListComponent</text>
</g>
<!-- AddToWishListModule -->
<g id="node2" class="node">
<title>AddToWishListModule</title>
<polygon fill="#8dd3c7" stroke="black" points="383.04,-187 380.04,-191 359.04,-191 356.04,-187 232.96,-187 232.96,-151 383.04,-151 383.04,-187"/>
<text text-anchor="middle" x="308" y="-164.8" font-family="Times,serif" font-size="14.00">AddToWishListModule</text>
</g>
<!-- AddToWishListComponent&#45;&gt;AddToWishListModule -->
<g id="edge1" class="edge">
<title>AddToWishListComponent&#45;&gt;AddToWishListModule</title>
<path fill="none" stroke="black" d="M110,-122.11C110,-141.34 110,-169 110,-169 110,-169 222.86,-169 222.86,-169"/>
<polygon fill="black" stroke="black" points="222.86,-172.5 232.86,-169 222.86,-165.5 222.86,-172.5"/>
</g>
<!-- AddToWishListComponent  -->
<g id="node6" class="node">
<title>AddToWishListComponent </title>
<polygon fill="#fb8072" stroke="black" points="395.82,-252 220.18,-252 220.18,-216 395.82,-216 395.82,-252"/>
<text text-anchor="middle" x="308" y="-229.8" font-family="Times,serif" font-size="14.00">AddToWishListComponent </text>
</g>
<!-- AddToWishListModule&#45;&gt;AddToWishListComponent  -->
<g id="edge5" class="edge">
<title>AddToWishListModule&#45;&gt;AddToWishListComponent </title>
<path fill="none" stroke="black" stroke-dasharray="5,2" d="M308,-187.11C308,-187.11 308,-205.99 308,-205.99"/>
<polygon fill="black" stroke="black" points="304.5,-205.99 308,-215.99 311.5,-205.99 304.5,-205.99"/>
</g>
<!-- I18nModule -->
<g id="node3" class="node">
<title>I18nModule</title>
<polygon fill="#8dd3c7" stroke="black" points="503.71,-122 500.71,-126 479.71,-126 476.71,-122 418.29,-122 418.29,-86 503.71,-86 503.71,-122"/>
<text text-anchor="middle" x="461" y="-99.8" font-family="Times,serif" font-size="14.00">I18nModule</text>
</g>
<!-- I18nModule&#45;&gt;AddToWishListModule -->
<g id="edge2" class="edge">
<title>I18nModule&#45;&gt;AddToWishListModule</title>
<path fill="none" stroke="black" d="M461,-122.11C461,-141.34 461,-169 461,-169 461,-169 393.16,-169 393.16,-169"/>
<polygon fill="black" stroke="black" points="393.16,-165.5 383.16,-169 393.16,-172.5 393.16,-165.5"/>
</g>
<!-- IconModule -->
<g id="node4" class="node">
<title>IconModule</title>
<polygon fill="#8dd3c7" stroke="black" points="400.43,-122 397.43,-126 376.43,-126 373.43,-122 315.57,-122 315.57,-86 400.43,-86 400.43,-122"/>
<text text-anchor="middle" x="358" y="-99.8" font-family="Times,serif" font-size="14.00">IconModule</text>
</g>
<!-- IconModule&#45;&gt;AddToWishListModule -->
<g id="edge3" class="edge">
<title>IconModule&#45;&gt;AddToWishListModule</title>
<path fill="none" stroke="black" d="M349.53,-122.11C349.53,-122.11 349.53,-140.99 349.53,-140.99"/>
<polygon fill="black" stroke="black" points="346.03,-140.99 349.53,-150.99 353.03,-140.99 346.03,-140.99"/>
</g>
<!-- UrlModule -->
<g id="node5" class="node">
<title>UrlModule</title>
<polygon fill="#8dd3c7" stroke="black" points="298.21,-122 295.21,-126 274.21,-126 271.21,-122 219.79,-122 219.79,-86 298.21,-86 298.21,-122"/>
<text text-anchor="middle" x="259" y="-99.8" font-family="Times,serif" font-size="14.00">UrlModule</text>
</g>
<!-- UrlModule&#45;&gt;AddToWishListModule -->
<g id="edge4" class="edge">
<title>UrlModule&#45;&gt;AddToWishListModule</title>
<path fill="none" stroke="black" d="M265.42,-122.11C265.42,-122.11 265.42,-140.99 265.42,-140.99"/>
<polygon fill="black" stroke="black" points="261.92,-140.99 265.42,-150.99 268.92,-140.99 261.92,-140.99"/>
</g>
</g>
</svg>
