<?xml version="1.0" encoding="UTF-8" standalone="no"?>
<!DOCTYPE svg PUBLIC "-//W3C//DTD SVG 1.1//EN"
 "http://www.w3.org/Graphics/SVG/1.1/DTD/svg11.dtd">
<!-- Generated by graphviz version 2.46.0 (20210119.1425)
 -->
<!-- Title: dependencies Pages: 1 -->
<svg width="536pt" height="284pt"
 viewBox="0.00 0.00 536.00 284.00" xmlns="http://www.w3.org/2000/svg" xmlns:xlink="http://www.w3.org/1999/xlink">
<g id="graph0" class="graph" transform="scale(1 1) rotate(0) translate(4 280)">
<title>dependencies</title>
<polygon fill="white" stroke="transparent" points="-4,4 -4,-280 532,-280 532,4 -4,4"/>
<text text-anchor="start" x="243.01" y="-42.4" font-family="sans-serif" font-weight="bold" font-size="14.00">Legend</text>
<polygon fill="#ffffb3" stroke="transparent" points="30,-10 30,-30 50,-30 50,-10 30,-10"/>
<text text-anchor="start" x="53.63" y="-15.4" font-family="sans-serif" font-size="14.00"> &#160;Declarations</text>
<polygon fill="#8dd3c7" stroke="transparent" points="143,-10 143,-30 163,-30 163,-10 143,-10"/>
<text text-anchor="start" x="166.73" y="-15.4" font-family="sans-serif" font-size="14.00"> &#160;Module</text>
<polygon fill="#80b1d3" stroke="transparent" points="229,-10 229,-30 249,-30 249,-10 229,-10"/>
<text text-anchor="start" x="252.78" y="-15.4" font-family="sans-serif" font-size="14.00"> &#160;Bootstrap</text>
<polygon fill="#fdb462" stroke="transparent" points="326,-10 326,-30 346,-30 346,-10 326,-10"/>
<text text-anchor="start" x="349.67" y="-15.4" font-family="sans-serif" font-size="14.00"> &#160;Providers</text>
<polygon fill="#fb8072" stroke="transparent" points="422,-10 422,-30 442,-30 442,-10 422,-10"/>
<text text-anchor="start" x="445.73" y="-15.4" font-family="sans-serif" font-size="14.00"> &#160;Exports</text>
<g id="clust1" class="cluster">
<title>cluster_AddToWishListModule</title>
<polygon fill="none" stroke="black" stroke-dasharray="1,5" points="8,-70 8,-268 520,-268 520,-70 8,-70"/>
</g>
<g id="clust2" class="cluster">
<title>cluster_AddToWishListModule_declarations</title>
<polygon fill="none" stroke="black" points="324,-78 324,-130 512,-130 512,-78 324,-78"/>
</g>
<g id="clust5" class="cluster">
<title>cluster_AddToWishListModule_exports</title>
<polygon fill="none" stroke="black" points="117,-208 117,-260 309,-260 309,-208 117,-208"/>
</g>
<g id="clust4" class="cluster">
<title>cluster_AddToWishListModule_imports</title>
<polygon fill="none" stroke="black" points="16,-78 16,-130 316,-130 316,-78 16,-78"/>
</g>
<!-- AddToWishListComponent -->
<g id="node1" class="node">
<title>AddToWishListComponent</title>
<polygon fill="#ffffb3" stroke="black" points="504.32,-122 331.68,-122 331.68,-86 504.32,-86 504.32,-122"/>
<text text-anchor="middle" x="418" y="-99.8" font-family="Times,serif" font-size="14.00">AddToWishListComponent</text>
</g>
<!-- AddToWishListModule -->
<g id="node2" class="node">
<title>AddToWishListModule</title>
<polygon fill="#8dd3c7" stroke="black" points="288.04,-187 285.04,-191 264.04,-191 261.04,-187 137.96,-187 137.96,-151 288.04,-151 288.04,-187"/>
<text text-anchor="middle" x="213" y="-164.8" font-family="Times,serif" font-size="14.00">AddToWishListModule</text>
</g>
<!-- AddToWishListComponent&#45;&gt;AddToWishListModule -->
<g id="edge1" class="edge">
<title>AddToWishListComponent&#45;&gt;AddToWishListModule</title>
<path fill="none" stroke="black" d="M418,-122.11C418,-141.34 418,-169 418,-169 418,-169 298.17,-169 298.17,-169"/>
<polygon fill="black" stroke="black" points="298.17,-165.5 288.17,-169 298.17,-172.5 298.17,-165.5"/>
</g>
<!-- AddToWishListComponent  -->
<g id="node6" class="node">
<title>AddToWishListComponent </title>
<polygon fill="#fb8072" stroke="black" points="300.82,-252 125.18,-252 125.18,-216 300.82,-216 300.82,-252"/>
<text text-anchor="middle" x="213" y="-229.8" font-family="Times,serif" font-size="14.00">AddToWishListComponent </text>
</g>
<!-- AddToWishListModule&#45;&gt;AddToWishListComponent  -->
<g id="edge5" class="edge">
<title>AddToWishListModule&#45;&gt;AddToWishListComponent </title>
<path fill="none" stroke="black" stroke-dasharray="5,2" d="M213,-187.11C213,-187.11 213,-205.99 213,-205.99"/>
<polygon fill="black" stroke="black" points="209.5,-205.99 213,-215.99 216.5,-205.99 209.5,-205.99"/>
</g>
<!-- I18nModule -->
<g id="node3" class="node">
<title>I18nModule</title>
<polygon fill="#8dd3c7" stroke="black" points="307.71,-122 304.71,-126 283.71,-126 280.71,-122 222.29,-122 222.29,-86 307.71,-86 307.71,-122"/>
<text text-anchor="middle" x="265" y="-99.8" font-family="Times,serif" font-size="14.00">I18nModule</text>
</g>
<!-- I18nModule&#45;&gt;AddToWishListModule -->
<g id="edge2" class="edge">
<title>I18nModule&#45;&gt;AddToWishListModule</title>
<path fill="none" stroke="black" d="M255.33,-122.11C255.33,-122.11 255.33,-140.99 255.33,-140.99"/>
<polygon fill="black" stroke="black" points="251.83,-140.99 255.33,-150.99 258.83,-140.99 251.83,-140.99"/>
</g>
<!-- IconModule -->
<g id="node4" class="node">
<title>IconModule</title>
<polygon fill="#8dd3c7" stroke="black" points="204.43,-122 201.43,-126 180.43,-126 177.43,-122 119.57,-122 119.57,-86 204.43,-86 204.43,-122"/>
<text text-anchor="middle" x="162" y="-99.8" font-family="Times,serif" font-size="14.00">IconModule</text>
</g>
<!-- IconModule&#45;&gt;AddToWishListModule -->
<g id="edge3" class="edge">
<title>IconModule&#45;&gt;AddToWishListModule</title>
<path fill="none" stroke="black" d="M170.97,-122.11C170.97,-122.11 170.97,-140.99 170.97,-140.99"/>
<polygon fill="black" stroke="black" points="167.47,-140.99 170.97,-150.99 174.47,-140.99 167.47,-140.99"/>
</g>
<!-- UrlModule -->
<g id="node5" class="node">
<title>UrlModule</title>
<polygon fill="#8dd3c7" stroke="black" points="102.21,-122 99.21,-126 78.21,-126 75.21,-122 23.79,-122 23.79,-86 102.21,-86 102.21,-122"/>
<text text-anchor="middle" x="63" y="-99.8" font-family="Times,serif" font-size="14.00">UrlModule</text>
</g>
<!-- UrlModule&#45;&gt;AddToWishListModule -->
<g id="edge4" class="edge">
<title>UrlModule&#45;&gt;AddToWishListModule</title>
<path fill="none" stroke="black" d="M63,-122.11C63,-141.34 63,-169 63,-169 63,-169 127.56,-169 127.56,-169"/>
<polygon fill="black" stroke="black" points="127.56,-172.5 137.56,-169 127.56,-165.5 127.56,-172.5"/>
</g>
</g>
</svg>
