<?xml version="1.0" encoding="UTF-8" standalone="no"?>
<!DOCTYPE svg PUBLIC "-//W3C//DTD SVG 1.1//EN"
 "http://www.w3.org/Graphics/SVG/1.1/DTD/svg11.dtd">
<!-- Generated by graphviz version 2.40.1 (20161225.0304)
 -->
<!-- Title: dependencies Pages: 1 -->
<svg width="536pt" height="284pt"
 viewBox="0.00 0.00 536.00 284.00" xmlns="http://www.w3.org/2000/svg" xmlns:xlink="http://www.w3.org/1999/xlink">
<g id="graph0" class="graph" transform="scale(1 1) rotate(0) translate(4 280)">
<title>dependencies</title>
<polygon fill="#ffffff" stroke="transparent" points="-4,4 -4,-280 532,-280 532,4 -4,4"/>
<text text-anchor="start" x="243.0091" y="-42.4" font-family="sans-serif" font-weight="bold" font-size="14.00" fill="#000000">Legend</text>
<polygon fill="#ffffb3" stroke="transparent" points="30,-10 30,-30 50,-30 50,-10 30,-10"/>
<text text-anchor="start" x="53.629" y="-15.4" font-family="sans-serif" font-size="14.00" fill="#000000"> &#160;Declarations</text>
<polygon fill="#8dd3c7" stroke="transparent" points="143,-10 143,-30 163,-30 163,-10 143,-10"/>
<text text-anchor="start" x="166.7251" y="-15.4" font-family="sans-serif" font-size="14.00" fill="#000000"> &#160;Module</text>
<polygon fill="#80b1d3" stroke="transparent" points="229,-10 229,-30 249,-30 249,-10 229,-10"/>
<text text-anchor="start" x="252.7812" y="-15.4" font-family="sans-serif" font-size="14.00" fill="#000000"> &#160;Bootstrap</text>
<polygon fill="#fdb462" stroke="transparent" points="326,-10 326,-30 346,-30 346,-10 326,-10"/>
<text text-anchor="start" x="349.6732" y="-15.4" font-family="sans-serif" font-size="14.00" fill="#000000"> &#160;Providers</text>
<polygon fill="#fb8072" stroke="transparent" points="422,-10 422,-30 442,-30 442,-10 422,-10"/>
<text text-anchor="start" x="445.7258" y="-15.4" font-family="sans-serif" font-size="14.00" fill="#000000"> &#160;Exports</text>
<g id="clust1" class="cluster">
<title>cluster_AddToWishListModule</title>
<polygon fill="none" stroke="#000000" stroke-dasharray="1,5" points="8,-70 8,-268 520,-268 520,-70 8,-70"/>
</g>
<g id="clust2" class="cluster">
<title>cluster_AddToWishListModule_declarations</title>
<polygon fill="none" stroke="#000000" points="324,-78 324,-130 512,-130 512,-78 324,-78"/>
</g>
<g id="clust4" class="cluster">
<title>cluster_AddToWishListModule_imports</title>
<polygon fill="none" stroke="#000000" points="16,-78 16,-130 316,-130 316,-78 16,-78"/>
</g>
<g id="clust5" class="cluster">
<title>cluster_AddToWishListModule_exports</title>
<polygon fill="none" stroke="#000000" points="117,-208 117,-260 309,-260 309,-208 117,-208"/>
</g>
<!-- AddToWishListComponent -->
<g id="node1" class="node">
<title>AddToWishListComponent</title>
<polygon fill="#ffffb3" stroke="#000000" points="504.3201,-122 331.6799,-122 331.6799,-86 504.3201,-86 504.3201,-122"/>
<text text-anchor="middle" x="418" y="-99.8" font-family="Times,serif" font-size="14.00" fill="#000000">AddToWishListComponent</text>
</g>
<!-- AddToWishListModule -->
<g id="node2" class="node">
<title>AddToWishListModule</title>
<polygon fill="#8dd3c7" stroke="#000000" points="288.0379,-187 285.0379,-191 264.0379,-191 261.0379,-187 137.9621,-187 137.9621,-151 288.0379,-151 288.0379,-187"/>
<text text-anchor="middle" x="213" y="-164.8" font-family="Times,serif" font-size="14.00" fill="#000000">AddToWishListModule</text>
</g>
<!-- AddToWishListComponent&#45;&gt;AddToWishListModule -->
<g id="edge1" class="edge">
<title>AddToWishListComponent&#45;&gt;AddToWishListModule</title>
<path fill="none" stroke="#000000" d="M418,-122.1061C418,-141.3391 418,-169 418,-169 418,-169 298.1704,-169 298.1704,-169"/>
<polygon fill="#000000" stroke="#000000" points="298.1704,-165.5001 288.1704,-169 298.1703,-172.5001 298.1704,-165.5001"/>
</g>
<!-- AddToWishListComponent  -->
<g id="node6" class="node">
<title>AddToWishListComponent </title>
<polygon fill="#fb8072" stroke="#000000" points="300.8199,-252 125.1801,-252 125.1801,-216 300.8199,-216 300.8199,-252"/>
<text text-anchor="middle" x="213" y="-229.8" font-family="Times,serif" font-size="14.00" fill="#000000">AddToWishListComponent </text>
</g>
<!-- AddToWishListModule&#45;&gt;AddToWishListComponent  -->
<g id="edge5" class="edge">
<title>AddToWishListModule&#45;&gt;AddToWishListComponent </title>
<path fill="none" stroke="#000000" stroke-dasharray="5,2" d="M213,-187.1061C213,-187.1061 213,-205.991 213,-205.991"/>
<polygon fill="#000000" stroke="#000000" points="209.5001,-205.9909 213,-215.991 216.5001,-205.991 209.5001,-205.9909"/>
</g>
<!-- I18nModule -->
<g id="node3" class="node">
<title>I18nModule</title>
<polygon fill="#8dd3c7" stroke="#000000" points="307.7107,-122 304.7107,-126 283.7107,-126 280.7107,-122 222.2893,-122 222.2893,-86 307.7107,-86 307.7107,-122"/>
<text text-anchor="middle" x="265" y="-99.8" font-family="Times,serif" font-size="14.00" fill="#000000">I18nModule</text>
</g>
<!-- I18nModule&#45;&gt;AddToWishListModule -->
<g id="edge2" class="edge">
<title>I18nModule&#45;&gt;AddToWishListModule</title>
<path fill="none" stroke="#000000" d="M255.3317,-122.1061C255.3317,-122.1061 255.3317,-140.991 255.3317,-140.991"/>
<polygon fill="#000000" stroke="#000000" points="251.8318,-140.9909 255.3317,-150.991 258.8318,-140.991 251.8318,-140.9909"/>
</g>
<!-- IconModule -->
<g id="node4" class="node">
<title>IconModule</title>
<polygon fill="#8dd3c7" stroke="#000000" points="204.4261,-122 201.4261,-126 180.4261,-126 177.4261,-122 119.5739,-122 119.5739,-86 204.4261,-86 204.4261,-122"/>
<text text-anchor="middle" x="162" y="-99.8" font-family="Times,serif" font-size="14.00" fill="#000000">IconModule</text>
</g>
<!-- IconModule&#45;&gt;AddToWishListModule -->
<g id="edge3" class="edge">
<title>IconModule&#45;&gt;AddToWishListModule</title>
<path fill="none" stroke="#000000" d="M170.972,-122.1061C170.972,-122.1061 170.972,-140.991 170.972,-140.991"/>
<polygon fill="#000000" stroke="#000000" points="167.472,-140.9909 170.972,-150.991 174.472,-140.991 167.472,-140.9909"/>
</g>
<!-- UrlModule -->
<g id="node5" class="node">
<title>UrlModule</title>
<polygon fill="#8dd3c7" stroke="#000000" points="102.2079,-122 99.2079,-126 78.2079,-126 75.2079,-122 23.7921,-122 23.7921,-86 102.2079,-86 102.2079,-122"/>
<text text-anchor="middle" x="63" y="-99.8" font-family="Times,serif" font-size="14.00" fill="#000000">UrlModule</text>
</g>
<!-- UrlModule&#45;&gt;AddToWishListModule -->
<g id="edge4" class="edge">
<title>UrlModule&#45;&gt;AddToWishListModule</title>
<path fill="none" stroke="#000000" d="M63,-122.1061C63,-141.3391 63,-169 63,-169 63,-169 127.5605,-169 127.5605,-169"/>
<polygon fill="#000000" stroke="#000000" points="127.5606,-172.5001 137.5605,-169 127.5605,-165.5001 127.5606,-172.5001"/>
</g>
</g>
</svg>
