<?xml version="1.0" encoding="UTF-8" standalone="no"?>
<!DOCTYPE svg PUBLIC "-//W3C//DTD SVG 1.1//EN"
 "http://www.w3.org/Graphics/SVG/1.1/DTD/svg11.dtd">
<!-- Generated by graphviz version 2.40.1 (20161225.0304)
 -->
<!-- Title: dependencies Pages: 1 -->
<svg width="568pt" height="211pt"
 viewBox="0.00 0.00 568.00 211.00" xmlns="http://www.w3.org/2000/svg" xmlns:xlink="http://www.w3.org/1999/xlink">
<g id="graph0" class="graph" transform="scale(1 1) rotate(0) translate(4 207)">
<title>dependencies</title>
<polygon fill="#ffffff" stroke="transparent" points="-4,4 -4,-207 564,-207 564,4 -4,4"/>
<text text-anchor="start" x="259.0091" y="-42.4" font-family="sans-serif" font-weight="bold" font-size="14.00" fill="#000000">Legend</text>
<polygon fill="#ffffb3" stroke="transparent" points="46,-10 46,-30 66,-30 66,-10 46,-10"/>
<text text-anchor="start" x="69.629" y="-15.4" font-family="sans-serif" font-size="14.00" fill="#000000"> &#160;Declarations</text>
<polygon fill="#8dd3c7" stroke="transparent" points="159,-10 159,-30 179,-30 179,-10 159,-10"/>
<text text-anchor="start" x="182.7251" y="-15.4" font-family="sans-serif" font-size="14.00" fill="#000000"> &#160;Module</text>
<polygon fill="#80b1d3" stroke="transparent" points="245,-10 245,-30 265,-30 265,-10 245,-10"/>
<text text-anchor="start" x="268.7812" y="-15.4" font-family="sans-serif" font-size="14.00" fill="#000000"> &#160;Bootstrap</text>
<polygon fill="#fdb462" stroke="transparent" points="342,-10 342,-30 362,-30 362,-10 342,-10"/>
<text text-anchor="start" x="365.6732" y="-15.4" font-family="sans-serif" font-size="14.00" fill="#000000"> &#160;Providers</text>
<polygon fill="#fb8072" stroke="transparent" points="438,-10 438,-30 458,-30 458,-10 438,-10"/>
<text text-anchor="start" x="461.7258" y="-15.4" font-family="sans-serif" font-size="14.00" fill="#000000"> &#160;Exports</text>
<g id="clust1" class="cluster">
<title>cluster_ProductTabsModule</title>
<polygon fill="none" stroke="#000000" stroke-dasharray="1,5" points="8,-70 8,-195 552,-195 552,-70 8,-70"/>
</g>
<g id="clust3" class="cluster">
<title>cluster_ProductTabsModule_imports</title>
<polygon fill="none" stroke="#000000" points="16,-78 16,-130 544,-130 544,-78 16,-78"/>
</g>
<!-- ProductAttributesModule -->
<g id="node1" class="node">
<title>ProductAttributesModule</title>
<polygon fill="#8dd3c7" stroke="#000000" points="535.587,-122 532.587,-126 511.587,-126 508.587,-122 376.413,-122 376.413,-86 535.587,-86 535.587,-122"/>
<text text-anchor="middle" x="456" y="-99.8" font-family="Times,serif" font-size="14.00" fill="#000000">ProductAttributesModule</text>
</g>
<!-- ProductTabsModule -->
<g id="node4" class="node">
<title>ProductTabsModule</title>
<polygon fill="#8dd3c7" stroke="#000000" points="341.3104,-187 338.3104,-191 317.3104,-191 314.3104,-187 210.6896,-187 210.6896,-151 341.3104,-151 341.3104,-187"/>
<text text-anchor="middle" x="276" y="-164.8" font-family="Times,serif" font-size="14.00" fill="#000000">ProductTabsModule</text>
</g>
<!-- ProductAttributesModule&#45;&gt;ProductTabsModule -->
<g id="edge1" class="edge">
<title>ProductAttributesModule&#45;&gt;ProductTabsModule</title>
<path fill="none" stroke="#000000" d="M456,-122.1061C456,-141.3391 456,-169 456,-169 456,-169 351.2386,-169 351.2386,-169"/>
<polygon fill="#000000" stroke="#000000" points="351.2387,-165.5001 341.2386,-169 351.2386,-172.5001 351.2387,-165.5001"/>
</g>
<!-- ProductDetailsTabModule -->
<g id="node2" class="node">
<title>ProductDetailsTabModule</title>
<polygon fill="#8dd3c7" stroke="#000000" points="358.0183,-122 355.0183,-126 334.0183,-126 331.0183,-122 193.9817,-122 193.9817,-86 358.0183,-86 358.0183,-122"/>
<text text-anchor="middle" x="276" y="-99.8" font-family="Times,serif" font-size="14.00" fill="#000000">ProductDetailsTabModule</text>
</g>
<!-- ProductDetailsTabModule&#45;&gt;ProductTabsModule -->
<g id="edge2" class="edge">
<title>ProductDetailsTabModule&#45;&gt;ProductTabsModule</title>
<path fill="none" stroke="#000000" d="M276,-122.1061C276,-122.1061 276,-140.991 276,-140.991"/>
<polygon fill="#000000" stroke="#000000" points="272.5001,-140.9909 276,-150.991 279.5001,-140.991 272.5001,-140.9909"/>
</g>
<!-- ProductReviewsModule -->
<g id="node3" class="node">
<title>ProductReviewsModule</title>
<polygon fill="#8dd3c7" stroke="#000000" points="175.8061,-122 172.8061,-126 151.8061,-126 148.8061,-122 24.1939,-122 24.1939,-86 175.8061,-86 175.8061,-122"/>
<text text-anchor="middle" x="100" y="-99.8" font-family="Times,serif" font-size="14.00" fill="#000000">ProductReviewsModule</text>
</g>
<!-- ProductReviewsModule&#45;&gt;ProductTabsModule -->
<g id="edge3" class="edge">
<title>ProductReviewsModule&#45;&gt;ProductTabsModule</title>
<path fill="none" stroke="#000000" d="M100,-122.1061C100,-141.3391 100,-169 100,-169 100,-169 200.4641,-169 200.4641,-169"/>
<polygon fill="#000000" stroke="#000000" points="200.4641,-172.5001 210.4641,-169 200.4641,-165.5001 200.4641,-172.5001"/>
</g>
</g>
</svg>
