<?xml version="1.0" encoding="UTF-8" standalone="no"?>
<!DOCTYPE svg PUBLIC "-//W3C//DTD SVG 1.1//EN"
 "http://www.w3.org/Graphics/SVG/1.1/DTD/svg11.dtd">
<!-- Generated by graphviz version 2.44.1 (20200629.0846)
 -->
<!-- Title: dependencies Pages: 1 -->
<svg width="568pt" height="211pt"
 viewBox="0.00 0.00 568.00 211.00" xmlns="http://www.w3.org/2000/svg" xmlns:xlink="http://www.w3.org/1999/xlink">
<g id="graph0" class="graph" transform="scale(1 1) rotate(0) translate(4 207)">
<title>dependencies</title>
<polygon fill="white" stroke="transparent" points="-4,4 -4,-207 564,-207 564,4 -4,4"/>
<text text-anchor="start" x="259.01" y="-42.4" font-family="sans-serif" font-weight="bold" font-size="14.00">Legend</text>
<polygon fill="#ffffb3" stroke="transparent" points="46,-10 46,-30 66,-30 66,-10 46,-10"/>
<text text-anchor="start" x="69.63" y="-15.4" font-family="sans-serif" font-size="14.00"> &#160;Declarations</text>
<polygon fill="#8dd3c7" stroke="transparent" points="159,-10 159,-30 179,-30 179,-10 159,-10"/>
<text text-anchor="start" x="182.73" y="-15.4" font-family="sans-serif" font-size="14.00"> &#160;Module</text>
<polygon fill="#80b1d3" stroke="transparent" points="245,-10 245,-30 265,-30 265,-10 245,-10"/>
<text text-anchor="start" x="268.78" y="-15.4" font-family="sans-serif" font-size="14.00"> &#160;Bootstrap</text>
<polygon fill="#fdb462" stroke="transparent" points="342,-10 342,-30 362,-30 362,-10 342,-10"/>
<text text-anchor="start" x="365.67" y="-15.4" font-family="sans-serif" font-size="14.00"> &#160;Providers</text>
<polygon fill="#fb8072" stroke="transparent" points="438,-10 438,-30 458,-30 458,-10 438,-10"/>
<text text-anchor="start" x="461.73" y="-15.4" font-family="sans-serif" font-size="14.00"> &#160;Exports</text>
<g id="clust1" class="cluster">
<title>cluster_ProductTabsModule</title>
<polygon fill="none" stroke="black" stroke-dasharray="1,5" points="8,-70 8,-195 552,-195 552,-70 8,-70"/>
</g>
<g id="clust3" class="cluster">
<title>cluster_ProductTabsModule_imports</title>
<polygon fill="none" stroke="black" points="16,-78 16,-130 544,-130 544,-78 16,-78"/>
</g>
<!-- ProductAttributesModule -->
<g id="node1" class="node">
<title>ProductAttributesModule</title>
<polygon fill="#8dd3c7" stroke="black" points="535.59,-122 532.59,-126 511.59,-126 508.59,-122 376.41,-122 376.41,-86 535.59,-86 535.59,-122"/>
<text text-anchor="middle" x="456" y="-99.8" font-family="Times,serif" font-size="14.00">ProductAttributesModule</text>
</g>
<!-- ProductTabsModule -->
<g id="node4" class="node">
<title>ProductTabsModule</title>
<polygon fill="#8dd3c7" stroke="black" points="341.31,-187 338.31,-191 317.31,-191 314.31,-187 210.69,-187 210.69,-151 341.31,-151 341.31,-187"/>
<text text-anchor="middle" x="276" y="-164.8" font-family="Times,serif" font-size="14.00">ProductTabsModule</text>
</g>
<!-- ProductAttributesModule&#45;&gt;ProductTabsModule -->
<g id="edge1" class="edge">
<title>ProductAttributesModule&#45;&gt;ProductTabsModule</title>
<path fill="none" stroke="black" d="M456,-122.11C456,-141.34 456,-169 456,-169 456,-169 351.24,-169 351.24,-169"/>
<polygon fill="black" stroke="black" points="351.24,-165.5 341.24,-169 351.24,-172.5 351.24,-165.5"/>
</g>
<!-- ProductDetailsTabModule -->
<g id="node2" class="node">
<title>ProductDetailsTabModule</title>
<polygon fill="#8dd3c7" stroke="black" points="358.02,-122 355.02,-126 334.02,-126 331.02,-122 193.98,-122 193.98,-86 358.02,-86 358.02,-122"/>
<text text-anchor="middle" x="276" y="-99.8" font-family="Times,serif" font-size="14.00">ProductDetailsTabModule</text>
</g>
<!-- ProductDetailsTabModule&#45;&gt;ProductTabsModule -->
<g id="edge2" class="edge">
<title>ProductDetailsTabModule&#45;&gt;ProductTabsModule</title>
<path fill="none" stroke="black" d="M276,-122.11C276,-122.11 276,-140.99 276,-140.99"/>
<polygon fill="black" stroke="black" points="272.5,-140.99 276,-150.99 279.5,-140.99 272.5,-140.99"/>
</g>
<!-- ProductReviewsModule -->
<g id="node3" class="node">
<title>ProductReviewsModule</title>
<polygon fill="#8dd3c7" stroke="black" points="175.81,-122 172.81,-126 151.81,-126 148.81,-122 24.19,-122 24.19,-86 175.81,-86 175.81,-122"/>
<text text-anchor="middle" x="100" y="-99.8" font-family="Times,serif" font-size="14.00">ProductReviewsModule</text>
</g>
<!-- ProductReviewsModule&#45;&gt;ProductTabsModule -->
<g id="edge3" class="edge">
<title>ProductReviewsModule&#45;&gt;ProductTabsModule</title>
<path fill="none" stroke="black" d="M100,-122.11C100,-141.34 100,-169 100,-169 100,-169 200.46,-169 200.46,-169"/>
<polygon fill="black" stroke="black" points="200.46,-172.5 210.46,-169 200.46,-165.5 200.46,-172.5"/>
</g>
</g>
</svg>
