<?xml version="1.0" encoding="UTF-8" standalone="no"?>
<!DOCTYPE svg PUBLIC "-//W3C//DTD SVG 1.1//EN"
 "http://www.w3.org/Graphics/SVG/1.1/DTD/svg11.dtd">
<!-- Generated by graphviz version 2.40.1 (20161225.0304)
 -->
<!-- Title: dependencies Pages: 1 -->
<svg width="504pt" height="211pt"
 viewBox="0.00 0.00 504.00 211.00" xmlns="http://www.w3.org/2000/svg" xmlns:xlink="http://www.w3.org/1999/xlink">
<g id="graph0" class="graph" transform="scale(1 1) rotate(0) translate(4 207)">
<title>dependencies</title>
<polygon fill="#ffffff" stroke="transparent" points="-4,4 -4,-207 500,-207 500,4 -4,4"/>
<text text-anchor="start" x="227.0091" y="-42.4" font-family="sans-serif" font-weight="bold" font-size="14.00" fill="#000000">Legend</text>
<polygon fill="#ffffb3" stroke="transparent" points="14,-10 14,-30 34,-30 34,-10 14,-10"/>
<text text-anchor="start" x="37.629" y="-15.4" font-family="sans-serif" font-size="14.00" fill="#000000"> &#160;Declarations</text>
<polygon fill="#8dd3c7" stroke="transparent" points="127,-10 127,-30 147,-30 147,-10 127,-10"/>
<text text-anchor="start" x="150.7251" y="-15.4" font-family="sans-serif" font-size="14.00" fill="#000000"> &#160;Module</text>
<polygon fill="#80b1d3" stroke="transparent" points="213,-10 213,-30 233,-30 233,-10 213,-10"/>
<text text-anchor="start" x="236.7812" y="-15.4" font-family="sans-serif" font-size="14.00" fill="#000000"> &#160;Bootstrap</text>
<polygon fill="#fdb462" stroke="transparent" points="310,-10 310,-30 330,-30 330,-10 310,-10"/>
<text text-anchor="start" x="333.6732" y="-15.4" font-family="sans-serif" font-size="14.00" fill="#000000"> &#160;Providers</text>
<polygon fill="#fb8072" stroke="transparent" points="406,-10 406,-30 426,-30 426,-10 406,-10"/>
<text text-anchor="start" x="429.7258" y="-15.4" font-family="sans-serif" font-size="14.00" fill="#000000"> &#160;Exports</text>
<g id="clust1" class="cluster">
<title>cluster_SharedOrganizationModule</title>
<polygon fill="none" stroke="#000000" stroke-dasharray="1,5" points="76.5,-70 76.5,-195 419.5,-195 419.5,-70 76.5,-70"/>
</g>
<g id="clust3" class="cluster">
<title>cluster_SharedOrganizationModule_imports</title>
<polygon fill="none" stroke="#000000" points="84.5,-78 84.5,-130 411.5,-130 411.5,-78 84.5,-78"/>
</g>
<!-- FormModule -->
<g id="node1" class="node">
<title>FormModule</title>
<polygon fill="#8dd3c7" stroke="#000000" points="403.3837,-122 400.3837,-126 379.3837,-126 376.3837,-122 313.6163,-122 313.6163,-86 403.3837,-86 403.3837,-122"/>
<text text-anchor="middle" x="358.5" y="-99.8" font-family="Times,serif" font-size="14.00" fill="#000000">FormModule</text>
</g>
<!-- SharedOrganizationModule -->
<g id="node4" class="node">
<title>SharedOrganizationModule</title>
<polygon fill="#8dd3c7" stroke="#000000" points="340.0057,-187 337.0057,-191 316.0057,-191 313.0057,-187 168.9943,-187 168.9943,-151 340.0057,-151 340.0057,-187"/>
<text text-anchor="middle" x="254.5" y="-164.8" font-family="Times,serif" font-size="14.00" fill="#000000">SharedOrganizationModule</text>
</g>
<!-- FormModule&#45;&gt;SharedOrganizationModule -->
<g id="edge1" class="edge">
<title>FormModule&#45;&gt;SharedOrganizationModule</title>
<path fill="none" stroke="#000000" d="M326.9054,-122.1061C326.9054,-122.1061 326.9054,-140.991 326.9054,-140.991"/>
<polygon fill="#000000" stroke="#000000" points="323.4054,-140.9909 326.9054,-150.991 330.4054,-140.991 323.4054,-140.9909"/>
</g>
<!-- ListModule -->
<g id="node2" class="node">
<title>ListModule</title>
<polygon fill="#8dd3c7" stroke="#000000" points="295.3289,-122 292.3289,-126 271.3289,-126 268.3289,-122 213.6711,-122 213.6711,-86 295.3289,-86 295.3289,-122"/>
<text text-anchor="middle" x="254.5" y="-99.8" font-family="Times,serif" font-size="14.00" fill="#000000">ListModule</text>
</g>
<!-- ListModule&#45;&gt;SharedOrganizationModule -->
<g id="edge2" class="edge">
<title>ListModule&#45;&gt;SharedOrganizationModule</title>
<path fill="none" stroke="#000000" d="M254.5,-122.1061C254.5,-122.1061 254.5,-140.991 254.5,-140.991"/>
<polygon fill="#000000" stroke="#000000" points="251.0001,-140.9909 254.5,-150.991 258.0001,-140.991 251.0001,-140.9909"/>
</g>
<!-- SubListModule -->
<g id="node3" class="node">
<title>SubListModule</title>
<polygon fill="#8dd3c7" stroke="#000000" points="196.1109,-122 193.1109,-126 172.1109,-126 169.1109,-122 92.8891,-122 92.8891,-86 196.1109,-86 196.1109,-122"/>
<text text-anchor="middle" x="144.5" y="-99.8" font-family="Times,serif" font-size="14.00" fill="#000000">SubListModule</text>
</g>
<!-- SubListModule&#45;&gt;SharedOrganizationModule -->
<g id="edge3" class="edge">
<title>SubListModule&#45;&gt;SharedOrganizationModule</title>
<path fill="none" stroke="#000000" d="M182.4015,-122.1061C182.4015,-122.1061 182.4015,-140.991 182.4015,-140.991"/>
<polygon fill="#000000" stroke="#000000" points="178.9015,-140.9909 182.4015,-150.991 185.9015,-140.991 178.9015,-140.9909"/>
</g>
</g>
</svg>
