<?xml version="1.0" encoding="UTF-8" standalone="no"?>
<!DOCTYPE svg PUBLIC "-//W3C//DTD SVG 1.1//EN"
 "http://www.w3.org/Graphics/SVG/1.1/DTD/svg11.dtd">
<!-- Generated by graphviz version 2.47.3 (20210619.1520)
 -->
<!-- Title: dependencies Pages: 1 -->
<svg width="672pt" height="247pt"
 viewBox="0.00 0.00 672.00 246.80" xmlns="http://www.w3.org/2000/svg" xmlns:xlink="http://www.w3.org/1999/xlink">
<g id="graph0" class="graph" transform="scale(1 1) rotate(0) translate(4 242.8)">
<title>dependencies</title>
<polygon fill="white" stroke="transparent" points="-4,4 -4,-242.8 668,-242.8 668,4 -4,4"/>
<text text-anchor="middle" x="332" y="-8.2" font-family="sans-serif" font-size="14.00">dependencies</text>
<g id="clust1" class="cluster">
<title>cluster_ConfiguratorConflictAndErrorMessagesModule</title>
<polygon fill="none" stroke="black" stroke-dasharray="1,5" points="8,-32.8 8,-230.8 656,-230.8 656,-32.8 8,-32.8"/>
</g>
<g id="clust4" class="cluster">
<title>cluster_ConfiguratorConflictAndErrorMessagesModule_imports</title>
<polygon fill="none" stroke="black" points="348,-40.8 348,-92.8 648,-92.8 648,-40.8 348,-40.8"/>
</g>
<g id="clust5" class="cluster">
<title>cluster_ConfiguratorConflictAndErrorMessagesModule_exports</title>
<polygon fill="none" stroke="black" points="275,-170.8 275,-222.8 603,-222.8 603,-170.8 275,-170.8"/>
</g>
<g id="clust2" class="cluster">
<title>cluster_ConfiguratorConflictAndErrorMessagesModule_declarations</title>
<polygon fill="none" stroke="black" points="16,-40.8 16,-92.8 340,-92.8 340,-40.8 16,-40.8"/>
</g>
<!-- ConfiguratorConflictAndErrorMessagesComponent -->
<g id="node1" class="node">
<title>ConfiguratorConflictAndErrorMessagesComponent</title>
<polygon fill="#ffffb3" stroke="black" points="331.59,-84.8 24.41,-84.8 24.41,-48.8 331.59,-48.8 331.59,-84.8"/>
<text text-anchor="middle" x="178" y="-62.6" font-family="Times,serif" font-size="14.00">ConfiguratorConflictAndErrorMessagesComponent</text>
</g>
<!-- ConfiguratorConflictAndErrorMessagesModule -->
<g id="node2" class="node">
<title>ConfiguratorConflictAndErrorMessagesModule</title>
<polygon fill="#8dd3c7" stroke="black" points="581.81,-149.8 578.81,-153.8 557.81,-153.8 554.81,-149.8 296.19,-149.8 296.19,-113.8 581.81,-113.8 581.81,-149.8"/>
<text text-anchor="middle" x="439" y="-127.6" font-family="Times,serif" font-size="14.00">ConfiguratorConflictAndErrorMessagesModule</text>
</g>
<!-- ConfiguratorConflictAndErrorMessagesComponent&#45;&gt;ConfiguratorConflictAndErrorMessagesModule -->
<g id="edge1" class="edge">
<title>ConfiguratorConflictAndErrorMessagesComponent&#45;&gt;ConfiguratorConflictAndErrorMessagesModule</title>
<path fill="none" stroke="black" d="M313.95,-84.91C313.95,-84.91 313.95,-103.79 313.95,-103.79"/>
<polygon fill="black" stroke="black" points="310.45,-103.79 313.95,-113.79 317.45,-103.79 310.45,-103.79"/>
</g>
<!-- ConfiguratorConflictAndErrorMessagesComponent  -->
<g id="node6" class="node">
<title>ConfiguratorConflictAndErrorMessagesComponent </title>
<polygon fill="#fb8072" stroke="black" points="594.59,-214.8 283.41,-214.8 283.41,-178.8 594.59,-178.8 594.59,-214.8"/>
<text text-anchor="middle" x="439" y="-192.6" font-family="Times,serif" font-size="14.00">ConfiguratorConflictAndErrorMessagesComponent </text>
</g>
<!-- ConfiguratorConflictAndErrorMessagesModule&#45;&gt;ConfiguratorConflictAndErrorMessagesComponent  -->
<g id="edge5" class="edge">
<title>ConfiguratorConflictAndErrorMessagesModule&#45;&gt;ConfiguratorConflictAndErrorMessagesComponent </title>
<path fill="none" stroke="black" stroke-dasharray="5,2" d="M439,-149.91C439,-149.91 439,-168.79 439,-168.79"/>
<polygon fill="black" stroke="black" points="435.5,-168.79 439,-178.79 442.5,-168.79 435.5,-168.79"/>
</g>
<!-- I18nModule -->
<g id="node3" class="node">
<title>I18nModule</title>
<polygon fill="#8dd3c7" stroke="black" points="639.71,-84.8 636.71,-88.8 615.71,-88.8 612.71,-84.8 554.29,-84.8 554.29,-48.8 639.71,-48.8 639.71,-84.8"/>
<text text-anchor="middle" x="597" y="-62.6" font-family="Times,serif" font-size="14.00">I18nModule</text>
</g>
<!-- I18nModule&#45;&gt;ConfiguratorConflictAndErrorMessagesModule -->
<g id="edge2" class="edge">
<title>I18nModule&#45;&gt;ConfiguratorConflictAndErrorMessagesModule</title>
<path fill="none" stroke="black" d="M568.15,-84.91C568.15,-84.91 568.15,-103.79 568.15,-103.79"/>
<polygon fill="black" stroke="black" points="564.65,-103.79 568.15,-113.79 571.65,-103.79 564.65,-103.79"/>
</g>
<!-- IconModule -->
<g id="node4" class="node">
<title>IconModule</title>
<polygon fill="#8dd3c7" stroke="black" points="536.43,-84.8 533.43,-88.8 512.43,-88.8 509.43,-84.8 451.57,-84.8 451.57,-48.8 536.43,-48.8 536.43,-84.8"/>
<text text-anchor="middle" x="494" y="-62.6" font-family="Times,serif" font-size="14.00">IconModule</text>
</g>
<!-- IconModule&#45;&gt;ConfiguratorConflictAndErrorMessagesModule -->
<g id="edge3" class="edge">
<title>IconModule&#45;&gt;ConfiguratorConflictAndErrorMessagesModule</title>
<path fill="none" stroke="black" d="M494,-84.91C494,-84.91 494,-103.79 494,-103.79"/>
<polygon fill="black" stroke="black" points="490.5,-103.79 494,-113.79 497.5,-103.79 490.5,-103.79"/>
</g>
<!-- UrlModule -->
<g id="node5" class="node">
<title>UrlModule</title>
<polygon fill="#8dd3c7" stroke="black" points="434.21,-84.8 431.21,-88.8 410.21,-88.8 407.21,-84.8 355.79,-84.8 355.79,-48.8 434.21,-48.8 434.21,-84.8"/>
<text text-anchor="middle" x="395" y="-62.6" font-family="Times,serif" font-size="14.00">UrlModule</text>
</g>
<!-- UrlModule&#45;&gt;ConfiguratorConflictAndErrorMessagesModule -->
<g id="edge4" class="edge">
<title>UrlModule&#45;&gt;ConfiguratorConflictAndErrorMessagesModule</title>
<path fill="none" stroke="black" d="M395,-84.91C395,-84.91 395,-103.79 395,-103.79"/>
<polygon fill="black" stroke="black" points="391.5,-103.79 395,-113.79 398.5,-103.79 391.5,-103.79"/>
</g>
</g>
</svg>
