<?xml version="1.0" encoding="UTF-8" standalone="no"?>
<!DOCTYPE svg PUBLIC "-//W3C//DTD SVG 1.1//EN"
 "http://www.w3.org/Graphics/SVG/1.1/DTD/svg11.dtd">
<!-- Generated by graphviz version 2.47.3 (20210619.1520)
 -->
<!-- Title: dependencies Pages: 1 -->
<svg width="672pt" height="247pt"
 viewBox="0.00 0.00 672.00 246.80" xmlns="http://www.w3.org/2000/svg" xmlns:xlink="http://www.w3.org/1999/xlink">
<g id="graph0" class="graph" transform="scale(1 1) rotate(0) translate(4 242.8)">
<title>dependencies</title>
<polygon fill="white" stroke="transparent" points="-4,4 -4,-242.8 668,-242.8 668,4 -4,4"/>
<text text-anchor="middle" x="332" y="-8.2" font-family="sans-serif" font-size="14.00">dependencies</text>
<g id="clust1" class="cluster">
<title>cluster_ConfiguratorConflictAndErrorMessagesModule</title>
<polygon fill="none" stroke="black" stroke-dasharray="1,5" points="8,-32.8 8,-230.8 656,-230.8 656,-32.8 8,-32.8"/>
</g>
<g id="clust2" class="cluster">
<title>cluster_ConfiguratorConflictAndErrorMessagesModule_declarations</title>
<polygon fill="none" stroke="black" points="324,-40.8 324,-92.8 648,-92.8 648,-40.8 324,-40.8"/>
</g>
<g id="clust4" class="cluster">
<title>cluster_ConfiguratorConflictAndErrorMessagesModule_imports</title>
<polygon fill="none" stroke="black" points="16,-40.8 16,-92.8 316,-92.8 316,-40.8 16,-40.8"/>
</g>
<g id="clust5" class="cluster">
<title>cluster_ConfiguratorConflictAndErrorMessagesModule_exports</title>
<polygon fill="none" stroke="black" points="58,-170.8 58,-222.8 386,-222.8 386,-170.8 58,-170.8"/>
</g>
<!-- ConfiguratorConflictAndErrorMessagesComponent -->
<g id="node1" class="node">
<title>ConfiguratorConflictAndErrorMessagesComponent</title>
<polygon fill="#ffffb3" stroke="black" points="639.59,-84.8 332.41,-84.8 332.41,-48.8 639.59,-48.8 639.59,-84.8"/>
<text text-anchor="middle" x="486" y="-62.6" font-family="Times,serif" font-size="14.00">ConfiguratorConflictAndErrorMessagesComponent</text>
</g>
<!-- ConfiguratorConflictAndErrorMessagesModule -->
<g id="node2" class="node">
<title>ConfiguratorConflictAndErrorMessagesModule</title>
<polygon fill="#8dd3c7" stroke="black" points="364.81,-149.8 361.81,-153.8 340.81,-153.8 337.81,-149.8 79.19,-149.8 79.19,-113.8 364.81,-113.8 364.81,-149.8"/>
<text text-anchor="middle" x="222" y="-127.6" font-family="Times,serif" font-size="14.00">ConfiguratorConflictAndErrorMessagesModule</text>
</g>
<!-- ConfiguratorConflictAndErrorMessagesComponent&#45;&gt;ConfiguratorConflictAndErrorMessagesModule -->
<g id="edge1" class="edge">
<title>ConfiguratorConflictAndErrorMessagesComponent&#45;&gt;ConfiguratorConflictAndErrorMessagesModule</title>
<path fill="none" stroke="black" d="M348.55,-84.91C348.55,-84.91 348.55,-103.79 348.55,-103.79"/>
<polygon fill="black" stroke="black" points="345.05,-103.79 348.55,-113.79 352.05,-103.79 345.05,-103.79"/>
</g>
<!-- ConfiguratorConflictAndErrorMessagesComponent  -->
<g id="node6" class="node">
<title>ConfiguratorConflictAndErrorMessagesComponent </title>
<polygon fill="#fb8072" stroke="black" points="377.59,-214.8 66.41,-214.8 66.41,-178.8 377.59,-178.8 377.59,-214.8"/>
<text text-anchor="middle" x="222" y="-192.6" font-family="Times,serif" font-size="14.00">ConfiguratorConflictAndErrorMessagesComponent </text>
</g>
<!-- ConfiguratorConflictAndErrorMessagesModule&#45;&gt;ConfiguratorConflictAndErrorMessagesComponent  -->
<g id="edge5" class="edge">
<title>ConfiguratorConflictAndErrorMessagesModule&#45;&gt;ConfiguratorConflictAndErrorMessagesComponent </title>
<path fill="none" stroke="black" stroke-dasharray="5,2" d="M222,-149.91C222,-149.91 222,-168.79 222,-168.79"/>
<polygon fill="black" stroke="black" points="218.5,-168.79 222,-178.79 225.5,-168.79 218.5,-168.79"/>
</g>
<!-- I18nModule -->
<g id="node3" class="node">
<title>I18nModule</title>
<polygon fill="#8dd3c7" stroke="black" points="307.71,-84.8 304.71,-88.8 283.71,-88.8 280.71,-84.8 222.29,-84.8 222.29,-48.8 307.71,-48.8 307.71,-84.8"/>
<text text-anchor="middle" x="265" y="-62.6" font-family="Times,serif" font-size="14.00">I18nModule</text>
</g>
<!-- I18nModule&#45;&gt;ConfiguratorConflictAndErrorMessagesModule -->
<g id="edge2" class="edge">
<title>I18nModule&#45;&gt;ConfiguratorConflictAndErrorMessagesModule</title>
<path fill="none" stroke="black" d="M265,-84.91C265,-84.91 265,-103.79 265,-103.79"/>
<polygon fill="black" stroke="black" points="261.5,-103.79 265,-113.79 268.5,-103.79 261.5,-103.79"/>
</g>
<!-- IconModule -->
<g id="node4" class="node">
<title>IconModule</title>
<polygon fill="#8dd3c7" stroke="black" points="204.43,-84.8 201.43,-88.8 180.43,-88.8 177.43,-84.8 119.57,-84.8 119.57,-48.8 204.43,-48.8 204.43,-84.8"/>
<text text-anchor="middle" x="162" y="-62.6" font-family="Times,serif" font-size="14.00">IconModule</text>
</g>
<!-- IconModule&#45;&gt;ConfiguratorConflictAndErrorMessagesModule -->
<g id="edge3" class="edge">
<title>IconModule&#45;&gt;ConfiguratorConflictAndErrorMessagesModule</title>
<path fill="none" stroke="black" d="M162,-84.91C162,-84.91 162,-103.79 162,-103.79"/>
<polygon fill="black" stroke="black" points="158.5,-103.79 162,-113.79 165.5,-103.79 158.5,-103.79"/>
</g>
<!-- UrlModule -->
<g id="node5" class="node">
<title>UrlModule</title>
<polygon fill="#8dd3c7" stroke="black" points="102.21,-84.8 99.21,-88.8 78.21,-88.8 75.21,-84.8 23.79,-84.8 23.79,-48.8 102.21,-48.8 102.21,-84.8"/>
<text text-anchor="middle" x="63" y="-62.6" font-family="Times,serif" font-size="14.00">UrlModule</text>
</g>
<!-- UrlModule&#45;&gt;ConfiguratorConflictAndErrorMessagesModule -->
<g id="edge4" class="edge">
<title>UrlModule&#45;&gt;ConfiguratorConflictAndErrorMessagesModule</title>
<path fill="none" stroke="black" d="M90.6,-84.91C90.6,-84.91 90.6,-103.79 90.6,-103.79"/>
<polygon fill="black" stroke="black" points="87.1,-103.79 90.6,-113.79 94.1,-103.79 87.1,-103.79"/>
</g>
</g>
</svg>
