<?xml version="1.0" encoding="UTF-8" standalone="no"?>
<!DOCTYPE svg PUBLIC "-//W3C//DTD SVG 1.1//EN"
 "http://www.w3.org/Graphics/SVG/1.1/DTD/svg11.dtd">
<!-- Generated by graphviz version 2.47.3 (20210619.1520)
 -->
<!-- Title: dependencies Pages: 1 -->
<svg width="406pt" height="247pt"
 viewBox="0.00 0.00 406.00 246.80" xmlns="http://www.w3.org/2000/svg" xmlns:xlink="http://www.w3.org/1999/xlink">
<g id="graph0" class="graph" transform="scale(1 1) rotate(0) translate(4 242.8)">
<title>dependencies</title>
<polygon fill="white" stroke="transparent" points="-4,4 -4,-242.8 402,-242.8 402,4 -4,4"/>
<text text-anchor="middle" x="199" y="-8.2" font-family="sans-serif" font-size="14.00">dependencies</text>
<g id="clust1" class="cluster">
<title>cluster_VisualViewerToolbarButtonModule</title>
<polygon fill="none" stroke="black" stroke-dasharray="1,5" points="8,-32.8 8,-230.8 390,-230.8 390,-32.8 8,-32.8"/>
</g>
<g id="clust2" class="cluster">
<title>cluster_VisualViewerToolbarButtonModule_declarations</title>
<polygon fill="none" stroke="black" points="124,-40.8 124,-92.8 382,-92.8 382,-40.8 124,-40.8"/>
</g>
<g id="clust4" class="cluster">
<title>cluster_VisualViewerToolbarButtonModule_imports</title>
<polygon fill="none" stroke="black" points="16,-40.8 16,-92.8 116,-92.8 116,-40.8 16,-40.8"/>
</g>
<g id="clust5" class="cluster">
<title>cluster_VisualViewerToolbarButtonModule_exports</title>
<polygon fill="none" stroke="black" points="68,-170.8 68,-222.8 330,-222.8 330,-170.8 68,-170.8"/>
</g>
<!-- VisualViewerToolbarButtonComponent -->
<g id="node1" class="node">
<title>VisualViewerToolbarButtonComponent</title>
<polygon fill="#ffffb3" stroke="black" points="373.51,-84.8 132.49,-84.8 132.49,-48.8 373.51,-48.8 373.51,-84.8"/>
<text text-anchor="middle" x="253" y="-62.6" font-family="Times,serif" font-size="14.00">VisualViewerToolbarButtonComponent</text>
</g>
<!-- VisualViewerToolbarButtonModule -->
<g id="node2" class="node">
<title>VisualViewerToolbarButtonModule</title>
<polygon fill="#8dd3c7" stroke="black" points="308.73,-149.8 305.73,-153.8 284.73,-153.8 281.73,-149.8 89.27,-149.8 89.27,-113.8 308.73,-113.8 308.73,-149.8"/>
<text text-anchor="middle" x="199" y="-127.6" font-family="Times,serif" font-size="14.00">VisualViewerToolbarButtonModule</text>
</g>
<!-- VisualViewerToolbarButtonComponent&#45;&gt;VisualViewerToolbarButtonModule -->
<g id="edge1" class="edge">
<title>VisualViewerToolbarButtonComponent&#45;&gt;VisualViewerToolbarButtonModule</title>
<path fill="none" stroke="black" d="M220.55,-84.91C220.55,-84.91 220.55,-103.79 220.55,-103.79"/>
<polygon fill="black" stroke="black" points="217.05,-103.79 220.55,-113.79 224.05,-103.79 217.05,-103.79"/>
</g>
<!-- VisualViewerToolbarButtonComponent  -->
<g id="node4" class="node">
<title>VisualViewerToolbarButtonComponent </title>
<polygon fill="#fb8072" stroke="black" points="321.51,-214.8 76.49,-214.8 76.49,-178.8 321.51,-178.8 321.51,-214.8"/>
<text text-anchor="middle" x="199" y="-192.6" font-family="Times,serif" font-size="14.00">VisualViewerToolbarButtonComponent </text>
</g>
<!-- VisualViewerToolbarButtonModule&#45;&gt;VisualViewerToolbarButtonComponent  -->
<g id="edge3" class="edge">
<title>VisualViewerToolbarButtonModule&#45;&gt;VisualViewerToolbarButtonComponent </title>
<path fill="none" stroke="black" stroke-dasharray="5,2" d="M199,-149.91C199,-149.91 199,-168.79 199,-168.79"/>
<polygon fill="black" stroke="black" points="195.5,-168.79 199,-178.79 202.5,-168.79 195.5,-168.79"/>
</g>
<!-- IconModule -->
<g id="node3" class="node">
<title>IconModule</title>
<polygon fill="#8dd3c7" stroke="black" points="108.43,-84.8 105.43,-88.8 84.43,-88.8 81.43,-84.8 23.57,-84.8 23.57,-48.8 108.43,-48.8 108.43,-84.8"/>
<text text-anchor="middle" x="66" y="-62.6" font-family="Times,serif" font-size="14.00">IconModule</text>
</g>
<!-- IconModule&#45;&gt;VisualViewerToolbarButtonModule -->
<g id="edge2" class="edge">
<title>IconModule&#45;&gt;VisualViewerToolbarButtonModule</title>
<path fill="none" stroke="black" d="M98.67,-84.91C98.67,-84.91 98.67,-103.79 98.67,-103.79"/>
<polygon fill="black" stroke="black" points="95.17,-103.79 98.67,-113.79 102.17,-103.79 95.17,-103.79"/>
</g>
</g>
</svg>
