<?xml version="1.0" encoding="UTF-8" standalone="no"?>
<!DOCTYPE svg PUBLIC "-//W3C//DTD SVG 1.1//EN"
 "http://www.w3.org/Graphics/SVG/1.1/DTD/svg11.dtd">
<!-- Generated by graphviz version 2.47.3 (20210619.1520)
 -->
<!-- Title: dependencies Pages: 1 -->
<svg width="385pt" height="247pt"
 viewBox="0.00 0.00 385.00 246.80" xmlns="http://www.w3.org/2000/svg" xmlns:xlink="http://www.w3.org/1999/xlink">
<g id="graph0" class="graph" transform="scale(1 1) rotate(0) translate(4 242.8)">
<title>dependencies</title>
<polygon fill="white" stroke="transparent" points="-4,4 -4,-242.8 381,-242.8 381,4 -4,4"/>
<text text-anchor="middle" x="188.5" y="-8.2" font-family="sans-serif" font-size="14.00">dependencies</text>
<g id="clust1" class="cluster">
<title>cluster_I18nModule</title>
<polygon fill="none" stroke="black" stroke-dasharray="1,5" points="8,-32.8 8,-230.8 369,-230.8 369,-32.8 8,-32.8"/>
</g>
<g id="clust2" class="cluster">
<title>cluster_I18nModule_declarations</title>
<polygon fill="none" stroke="black" points="21,-40.8 21,-92.8 356,-92.8 356,-40.8 21,-40.8"/>
</g>
<g id="clust7" class="cluster">
<title>cluster_I18nModule_exports</title>
<polygon fill="none" stroke="black" points="16,-170.8 16,-222.8 361,-222.8 361,-170.8 16,-170.8"/>
</g>
<!-- CxDatePipe -->
<g id="node1" class="node">
<title>CxDatePipe</title>
<polygon fill="#ffffb3" stroke="black" points="347.65,-84.8 264.35,-84.8 264.35,-48.8 347.65,-48.8 347.65,-84.8"/>
<text text-anchor="middle" x="306" y="-62.6" font-family="Times,serif" font-size="14.00">CxDatePipe</text>
</g>
<!-- I18nModule -->
<g id="node4" class="node">
<title>I18nModule</title>
<polygon fill="#8dd3c7" stroke="black" points="235.71,-149.8 232.71,-153.8 211.71,-153.8 208.71,-149.8 150.29,-149.8 150.29,-113.8 235.71,-113.8 235.71,-149.8"/>
<text text-anchor="middle" x="193" y="-127.6" font-family="Times,serif" font-size="14.00">I18nModule</text>
</g>
<!-- CxDatePipe&#45;&gt;I18nModule -->
<g id="edge1" class="edge">
<title>CxDatePipe&#45;&gt;I18nModule</title>
<path fill="none" stroke="black" d="M320.36,-84.82C320.36,-102.17 320.36,-125.8 320.36,-125.8 320.36,-125.8 245.76,-125.8 245.76,-125.8"/>
<polygon fill="black" stroke="black" points="245.76,-122.3 235.76,-125.8 245.76,-129.3 245.76,-122.3"/>
</g>
<!-- CxNumericPipe -->
<g id="node2" class="node">
<title>CxNumericPipe</title>
<polygon fill="#ffffb3" stroke="black" points="246.2,-84.8 139.8,-84.8 139.8,-48.8 246.2,-48.8 246.2,-84.8"/>
<text text-anchor="middle" x="193" y="-62.6" font-family="Times,serif" font-size="14.00">CxNumericPipe</text>
</g>
<!-- CxNumericPipe&#45;&gt;I18nModule -->
<g id="edge2" class="edge">
<title>CxNumericPipe&#45;&gt;I18nModule</title>
<path fill="none" stroke="black" d="M193,-84.91C193,-84.91 193,-103.79 193,-103.79"/>
<polygon fill="black" stroke="black" points="189.5,-103.79 193,-113.79 196.5,-103.79 189.5,-103.79"/>
</g>
<!-- TranslatePipe -->
<g id="node3" class="node">
<title>TranslatePipe</title>
<polygon fill="#ffffb3" stroke="black" points="121.47,-84.8 28.53,-84.8 28.53,-48.8 121.47,-48.8 121.47,-84.8"/>
<text text-anchor="middle" x="75" y="-62.6" font-family="Times,serif" font-size="14.00">TranslatePipe</text>
</g>
<!-- TranslatePipe&#45;&gt;I18nModule -->
<g id="edge3" class="edge">
<title>TranslatePipe&#45;&gt;I18nModule</title>
<path fill="none" stroke="black" d="M89.66,-84.82C89.66,-102.17 89.66,-125.8 89.66,-125.8 89.66,-125.8 140.37,-125.8 140.37,-125.8"/>
<polygon fill="black" stroke="black" points="140.37,-129.3 150.37,-125.8 140.37,-122.3 140.37,-129.3"/>
</g>
<!-- CxDatePipe  -->
<g id="node5" class="node">
<title>CxDatePipe </title>
<polygon fill="#fb8072" stroke="black" points="352.65,-214.8 265.35,-214.8 265.35,-178.8 352.65,-178.8 352.65,-214.8"/>
<text text-anchor="middle" x="309" y="-192.6" font-family="Times,serif" font-size="14.00">CxDatePipe </text>
</g>
<!-- I18nModule&#45;&gt;CxDatePipe  -->
<g id="edge4" class="edge">
<title>I18nModule&#45;&gt;CxDatePipe </title>
<path fill="none" stroke="black" stroke-dasharray="5,2" d="M235.65,-137.8C262.8,-137.8 292.89,-137.8 292.89,-137.8 292.89,-137.8 292.89,-168.78 292.89,-168.78"/>
<polygon fill="black" stroke="black" points="289.39,-168.78 292.89,-178.78 296.39,-168.78 289.39,-168.78"/>
</g>
<!-- CxNumericPipe  -->
<g id="node6" class="node">
<title>CxNumericPipe </title>
<polygon fill="#fb8072" stroke="black" points="247.7,-214.8 138.3,-214.8 138.3,-178.8 247.7,-178.8 247.7,-214.8"/>
<text text-anchor="middle" x="193" y="-192.6" font-family="Times,serif" font-size="14.00">CxNumericPipe </text>
</g>
<!-- I18nModule&#45;&gt;CxNumericPipe  -->
<g id="edge5" class="edge">
<title>I18nModule&#45;&gt;CxNumericPipe </title>
<path fill="none" stroke="black" stroke-dasharray="5,2" d="M193,-149.91C193,-149.91 193,-168.79 193,-168.79"/>
<polygon fill="black" stroke="black" points="189.5,-168.79 193,-178.79 196.5,-168.79 189.5,-168.79"/>
</g>
<!-- TranslatePipe  -->
<g id="node7" class="node">
<title>TranslatePipe </title>
<polygon fill="#fb8072" stroke="black" points="120.47,-214.8 23.53,-214.8 23.53,-178.8 120.47,-178.8 120.47,-214.8"/>
<text text-anchor="middle" x="72" y="-192.6" font-family="Times,serif" font-size="14.00">TranslatePipe </text>
</g>
<!-- I18nModule&#45;&gt;TranslatePipe  -->
<g id="edge6" class="edge">
<title>I18nModule&#45;&gt;TranslatePipe </title>
<path fill="none" stroke="black" stroke-dasharray="5,2" d="M150.26,-137.8C111.07,-137.8 59.09,-137.8 59.09,-137.8 59.09,-137.8 59.09,-168.78 59.09,-168.78"/>
<polygon fill="black" stroke="black" points="55.59,-168.78 59.09,-178.78 62.59,-168.78 55.59,-168.78"/>
</g>
</g>
</svg>
