<?xml version="1.0" encoding="UTF-8" standalone="no"?>
<!DOCTYPE svg PUBLIC "-//W3C//DTD SVG 1.1//EN"
 "http://www.w3.org/Graphics/SVG/1.1/DTD/svg11.dtd">
<!-- Generated by graphviz version 2.44.1 (20200629.0846)
 -->
<!-- Title: dependencies Pages: 1 -->
<svg width="504pt" height="284pt"
 viewBox="0.00 0.00 504.00 284.00" xmlns="http://www.w3.org/2000/svg" xmlns:xlink="http://www.w3.org/1999/xlink">
<g id="graph0" class="graph" transform="scale(1 1) rotate(0) translate(4 280)">
<title>dependencies</title>
<polygon fill="white" stroke="transparent" points="-4,4 -4,-280 500,-280 500,4 -4,4"/>
<text text-anchor="start" x="227.01" y="-42.4" font-family="sans-serif" font-weight="bold" font-size="14.00">Legend</text>
<polygon fill="#ffffb3" stroke="transparent" points="14,-10 14,-30 34,-30 34,-10 14,-10"/>
<text text-anchor="start" x="37.63" y="-15.4" font-family="sans-serif" font-size="14.00"> &#160;Declarations</text>
<polygon fill="#8dd3c7" stroke="transparent" points="127,-10 127,-30 147,-30 147,-10 127,-10"/>
<text text-anchor="start" x="150.73" y="-15.4" font-family="sans-serif" font-size="14.00"> &#160;Module</text>
<polygon fill="#80b1d3" stroke="transparent" points="213,-10 213,-30 233,-30 233,-10 213,-10"/>
<text text-anchor="start" x="236.78" y="-15.4" font-family="sans-serif" font-size="14.00"> &#160;Bootstrap</text>
<polygon fill="#fdb462" stroke="transparent" points="310,-10 310,-30 330,-30 330,-10 310,-10"/>
<text text-anchor="start" x="333.67" y="-15.4" font-family="sans-serif" font-size="14.00"> &#160;Providers</text>
<polygon fill="#fb8072" stroke="transparent" points="406,-10 406,-30 426,-30 426,-10 406,-10"/>
<text text-anchor="start" x="429.73" y="-15.4" font-family="sans-serif" font-size="14.00"> &#160;Exports</text>
<g id="clust1" class="cluster">
<title>cluster_I18nModule</title>
<polygon fill="none" stroke="black" stroke-dasharray="1,5" points="131,-70 131,-268 365,-268 365,-70 131,-70"/>
</g>
<g id="clust2" class="cluster">
<title>cluster_I18nModule_declarations</title>
<polygon fill="none" stroke="black" points="143,-78 143,-130 353,-130 353,-78 143,-78"/>
</g>
<g id="clust6" class="cluster">
<title>cluster_I18nModule_exports</title>
<polygon fill="none" stroke="black" points="139,-208 139,-260 357,-260 357,-208 139,-208"/>
</g>
<!-- CxDatePipe -->
<g id="node1" class="node">
<title>CxDatePipe</title>
<polygon fill="#ffffb3" stroke="black" points="344.65,-122 261.35,-122 261.35,-86 344.65,-86 344.65,-122"/>
<text text-anchor="middle" x="303" y="-99.8" font-family="Times,serif" font-size="14.00">CxDatePipe</text>
</g>
<!-- I18nModule -->
<g id="node3" class="node">
<title>I18nModule</title>
<polygon fill="#8dd3c7" stroke="black" points="240.71,-187 237.71,-191 216.71,-191 213.71,-187 155.29,-187 155.29,-151 240.71,-151 240.71,-187"/>
<text text-anchor="middle" x="198" y="-164.8" font-family="Times,serif" font-size="14.00">I18nModule</text>
</g>
<!-- CxDatePipe&#45;&gt;I18nModule -->
<g id="edge1" class="edge">
<title>CxDatePipe&#45;&gt;I18nModule</title>
<path fill="none" stroke="black" d="M317.03,-122.02C317.03,-139.37 317.03,-163 317.03,-163 317.03,-163 250.63,-163 250.63,-163"/>
<polygon fill="black" stroke="black" points="250.63,-159.5 240.63,-163 250.63,-166.5 250.63,-159.5"/>
</g>
<!-- TranslatePipe -->
<g id="node2" class="node">
<title>TranslatePipe</title>
<polygon fill="#ffffb3" stroke="black" points="243.47,-122 150.53,-122 150.53,-86 243.47,-86 243.47,-122"/>
<text text-anchor="middle" x="197" y="-99.8" font-family="Times,serif" font-size="14.00">TranslatePipe</text>
</g>
<!-- TranslatePipe&#45;&gt;I18nModule -->
<g id="edge2" class="edge">
<title>TranslatePipe&#45;&gt;I18nModule</title>
<path fill="none" stroke="black" d="M198,-122.11C198,-122.11 198,-140.99 198,-140.99"/>
<polygon fill="black" stroke="black" points="194.5,-140.99 198,-150.99 201.5,-140.99 194.5,-140.99"/>
</g>
<!-- CxDatePipe  -->
<g id="node4" class="node">
<title>CxDatePipe </title>
<polygon fill="#fb8072" stroke="black" points="348.65,-252 261.35,-252 261.35,-216 348.65,-216 348.65,-252"/>
<text text-anchor="middle" x="305" y="-229.8" font-family="Times,serif" font-size="14.00">CxDatePipe </text>
</g>
<!-- I18nModule&#45;&gt;CxDatePipe  -->
<g id="edge3" class="edge">
<title>I18nModule&#45;&gt;CxDatePipe </title>
<path fill="none" stroke="black" stroke-dasharray="5,2" d="M240.67,-175C264.42,-175 289.22,-175 289.22,-175 289.22,-175 289.22,-205.98 289.22,-205.98"/>
<polygon fill="black" stroke="black" points="285.72,-205.98 289.22,-215.98 292.72,-205.98 285.72,-205.98"/>
</g>
<!-- TranslatePipe  -->
<g id="node5" class="node">
<title>TranslatePipe </title>
<polygon fill="#fb8072" stroke="black" points="243.47,-252 146.53,-252 146.53,-216 243.47,-216 243.47,-252"/>
<text text-anchor="middle" x="195" y="-229.8" font-family="Times,serif" font-size="14.00">TranslatePipe </text>
</g>
<!-- I18nModule&#45;&gt;TranslatePipe  -->
<g id="edge4" class="edge">
<title>I18nModule&#45;&gt;TranslatePipe </title>
<path fill="none" stroke="black" stroke-dasharray="5,2" d="M198,-187.11C198,-187.11 198,-205.99 198,-205.99"/>
<polygon fill="black" stroke="black" points="194.5,-205.99 198,-215.99 201.5,-205.99 194.5,-205.99"/>
</g>
</g>
</svg>
