<?xml version="1.0" encoding="UTF-8" standalone="no"?>
<!DOCTYPE svg PUBLIC "-//W3C//DTD SVG 1.1//EN"
 "http://www.w3.org/Graphics/SVG/1.1/DTD/svg11.dtd">
<!-- Generated by graphviz version 2.47.3 (20210619.1520)
 -->
<!-- Title: dependencies Pages: 1 -->
<svg width="212pt" height="247pt"
 viewBox="0.00 0.00 212.00 246.80" xmlns="http://www.w3.org/2000/svg" xmlns:xlink="http://www.w3.org/1999/xlink">
<g id="graph0" class="graph" transform="scale(1 1) rotate(0) translate(4 242.8)">
<title>dependencies</title>
<polygon fill="white" stroke="transparent" points="-4,4 -4,-242.8 208,-242.8 208,4 -4,4"/>
<text text-anchor="middle" x="102" y="-8.2" font-family="sans-serif" font-size="14.00">dependencies</text>
<g id="clust1" class="cluster">
<title>cluster_GenericLinkModule</title>
<polygon fill="none" stroke="black" stroke-dasharray="1,5" points="8,-32.8 8,-230.8 196,-230.8 196,-32.8 8,-32.8"/>
</g>
<g id="clust2" class="cluster">
<title>cluster_GenericLinkModule_declarations</title>
<polygon fill="none" stroke="black" points="18,-40.8 18,-92.8 186,-92.8 186,-40.8 18,-40.8"/>
</g>
<g id="clust5" class="cluster">
<title>cluster_GenericLinkModule_exports</title>
<polygon fill="none" stroke="black" points="16,-170.8 16,-222.8 188,-222.8 188,-170.8 16,-170.8"/>
</g>
<!-- GenericLinkComponent -->
<g id="node1" class="node">
<title>GenericLinkComponent</title>
<polygon fill="#ffffb3" stroke="black" points="178.08,-84.8 25.92,-84.8 25.92,-48.8 178.08,-48.8 178.08,-84.8"/>
<text text-anchor="middle" x="102" y="-62.6" font-family="Times,serif" font-size="14.00">GenericLinkComponent</text>
</g>
<!-- GenericLinkModule -->
<g id="node2" class="node">
<title>GenericLinkModule</title>
<polygon fill="#8dd3c7" stroke="black" points="167.29,-149.8 164.29,-153.8 143.29,-153.8 140.29,-149.8 36.71,-149.8 36.71,-113.8 167.29,-113.8 167.29,-149.8"/>
<text text-anchor="middle" x="102" y="-127.6" font-family="Times,serif" font-size="14.00">GenericLinkModule</text>
</g>
<!-- GenericLinkComponent&#45;&gt;GenericLinkModule -->
<g id="edge1" class="edge">
<title>GenericLinkComponent&#45;&gt;GenericLinkModule</title>
<path fill="none" stroke="black" d="M102,-84.91C102,-84.91 102,-103.79 102,-103.79"/>
<polygon fill="black" stroke="black" points="98.5,-103.79 102,-113.79 105.5,-103.79 98.5,-103.79"/>
</g>
<!-- GenericLinkComponent  -->
<g id="node3" class="node">
<title>GenericLinkComponent </title>
<polygon fill="#fb8072" stroke="black" points="179.58,-214.8 24.42,-214.8 24.42,-178.8 179.58,-178.8 179.58,-214.8"/>
<text text-anchor="middle" x="102" y="-192.6" font-family="Times,serif" font-size="14.00">GenericLinkComponent </text>
</g>
<!-- GenericLinkModule&#45;&gt;GenericLinkComponent  -->
<g id="edge2" class="edge">
<title>GenericLinkModule&#45;&gt;GenericLinkComponent </title>
<path fill="none" stroke="black" stroke-dasharray="5,2" d="M102,-149.91C102,-149.91 102,-168.79 102,-168.79"/>
<polygon fill="black" stroke="black" points="98.5,-168.79 102,-178.79 105.5,-168.79 98.5,-168.79"/>
</g>
</g>
</svg>
