<?xml version="1.0" encoding="UTF-8" standalone="no"?>
<!DOCTYPE svg PUBLIC "-//W3C//DTD SVG 1.1//EN"
 "http://www.w3.org/Graphics/SVG/1.1/DTD/svg11.dtd">
<!-- Generated by graphviz version 2.46.0 (20210119.1425)
 -->
<!-- Title: dependencies Pages: 1 -->
<svg width="965pt" height="211pt"
 viewBox="0.00 0.00 965.00 211.00" xmlns="http://www.w3.org/2000/svg" xmlns:xlink="http://www.w3.org/1999/xlink">
<g id="graph0" class="graph" transform="scale(1 1) rotate(0) translate(4 207)">
<title>dependencies</title>
<polygon fill="white" stroke="transparent" points="-4,4 -4,-207 961,-207 961,4 -4,4"/>
<text text-anchor="start" x="457.51" y="-42.4" font-family="sans-serif" font-weight="bold" font-size="14.00">Legend</text>
<polygon fill="#ffffb3" stroke="transparent" points="244.5,-10 244.5,-30 264.5,-30 264.5,-10 244.5,-10"/>
<text text-anchor="start" x="268.13" y="-15.4" font-family="sans-serif" font-size="14.00"> &#160;Declarations</text>
<polygon fill="#8dd3c7" stroke="transparent" points="357.5,-10 357.5,-30 377.5,-30 377.5,-10 357.5,-10"/>
<text text-anchor="start" x="381.23" y="-15.4" font-family="sans-serif" font-size="14.00"> &#160;Module</text>
<polygon fill="#80b1d3" stroke="transparent" points="443.5,-10 443.5,-30 463.5,-30 463.5,-10 443.5,-10"/>
<text text-anchor="start" x="467.28" y="-15.4" font-family="sans-serif" font-size="14.00"> &#160;Bootstrap</text>
<polygon fill="#fdb462" stroke="transparent" points="540.5,-10 540.5,-30 560.5,-30 560.5,-10 540.5,-10"/>
<text text-anchor="start" x="564.17" y="-15.4" font-family="sans-serif" font-size="14.00"> &#160;Providers</text>
<polygon fill="#fb8072" stroke="transparent" points="636.5,-10 636.5,-30 656.5,-30 656.5,-10 636.5,-10"/>
<text text-anchor="start" x="660.23" y="-15.4" font-family="sans-serif" font-size="14.00"> &#160;Exports</text>
<g id="clust1" class="cluster">
<title>cluster_VariantsComponentsModule</title>
<polygon fill="none" stroke="black" stroke-dasharray="1,5" points="8,-70 8,-195 949,-195 949,-70 8,-70"/>
</g>
<g id="clust3" class="cluster">
<title>cluster_VariantsComponentsModule_imports</title>
<polygon fill="none" stroke="black" points="16,-78 16,-130 941,-130 941,-78 16,-78"/>
</g>
<!-- ProductVariantsModule -->
<g id="node1" class="node">
<title>ProductVariantsModule</title>
<polygon fill="#8dd3c7" stroke="black" points="933.02,-122 930.02,-126 909.02,-126 906.02,-122 782.98,-122 782.98,-86 933.02,-86 933.02,-122"/>
<text text-anchor="middle" x="858" y="-99.8" font-family="Times,serif" font-size="14.00">ProductVariantsModule</text>
</g>
<!-- VariantsComponentsModule -->
<g id="node6" class="node">
<title>VariantsComponentsModule</title>
<polygon fill="#8dd3c7" stroke="black" points="570.75,-187 567.75,-191 546.75,-191 543.75,-187 393.25,-187 393.25,-151 570.75,-151 570.75,-187"/>
<text text-anchor="middle" x="482" y="-164.8" font-family="Times,serif" font-size="14.00">VariantsComponentsModule</text>
</g>
<!-- ProductVariantsModule&#45;&gt;VariantsComponentsModule -->
<g id="edge1" class="edge">
<title>ProductVariantsModule&#45;&gt;VariantsComponentsModule</title>
<path fill="none" stroke="black" d="M858,-122.28C858,-143.32 858,-175 858,-175 858,-175 581.11,-175 581.11,-175"/>
<polygon fill="black" stroke="black" points="581.11,-171.5 571.11,-175 581.11,-178.5 581.11,-171.5"/>
</g>
<!-- VariantColorSelectorModule -->
<g id="node2" class="node">
<title>VariantColorSelectorModule</title>
<polygon fill="#8dd3c7" stroke="black" points="764.78,-122 761.78,-126 740.78,-126 737.78,-122 585.22,-122 585.22,-86 764.78,-86 764.78,-122"/>
<text text-anchor="middle" x="675" y="-99.8" font-family="Times,serif" font-size="14.00">VariantColorSelectorModule</text>
</g>
<!-- VariantColorSelectorModule&#45;&gt;VariantsComponentsModule -->
<g id="edge2" class="edge">
<title>VariantColorSelectorModule&#45;&gt;VariantsComponentsModule</title>
<path fill="none" stroke="black" d="M675,-122.02C675,-139.37 675,-163 675,-163 675,-163 580.87,-163 580.87,-163"/>
<polygon fill="black" stroke="black" points="580.87,-159.5 570.87,-163 580.87,-166.5 580.87,-159.5"/>
</g>
<!-- VariantSizeSelectorModule -->
<g id="node3" class="node">
<title>VariantSizeSelectorModule</title>
<polygon fill="#8dd3c7" stroke="black" points="568,-122 565,-126 544,-126 541,-122 396,-122 396,-86 568,-86 568,-122"/>
<text text-anchor="middle" x="482" y="-99.8" font-family="Times,serif" font-size="14.00">VariantSizeSelectorModule</text>
</g>
<!-- VariantSizeSelectorModule&#45;&gt;VariantsComponentsModule -->
<g id="edge3" class="edge">
<title>VariantSizeSelectorModule&#45;&gt;VariantsComponentsModule</title>
<path fill="none" stroke="black" d="M482,-122.11C482,-122.11 482,-140.99 482,-140.99"/>
<polygon fill="black" stroke="black" points="478.5,-140.99 482,-150.99 485.5,-140.99 478.5,-140.99"/>
</g>
<!-- VariantStyleIconsModule -->
<g id="node4" class="node">
<title>VariantStyleIconsModule</title>
<polygon fill="#8dd3c7" stroke="black" points="378.13,-122 375.13,-126 354.13,-126 351.13,-122 217.87,-122 217.87,-86 378.13,-86 378.13,-122"/>
<text text-anchor="middle" x="298" y="-99.8" font-family="Times,serif" font-size="14.00">VariantStyleIconsModule</text>
</g>
<!-- VariantStyleIconsModule&#45;&gt;VariantsComponentsModule -->
<g id="edge4" class="edge">
<title>VariantStyleIconsModule&#45;&gt;VariantsComponentsModule</title>
<path fill="none" stroke="black" d="M298,-122.02C298,-139.37 298,-163 298,-163 298,-163 383.23,-163 383.23,-163"/>
<polygon fill="black" stroke="black" points="383.23,-166.5 393.23,-163 383.23,-159.5 383.23,-166.5"/>
</g>
<!-- VariantStyleSelectorModule -->
<g id="node5" class="node">
<title>VariantStyleSelectorModule</title>
<polygon fill="#8dd3c7" stroke="black" points="200.17,-122 197.17,-126 176.17,-126 173.17,-122 23.83,-122 23.83,-86 200.17,-86 200.17,-122"/>
<text text-anchor="middle" x="112" y="-99.8" font-family="Times,serif" font-size="14.00">VariantStyleSelectorModule</text>
</g>
<!-- VariantStyleSelectorModule&#45;&gt;VariantsComponentsModule -->
<g id="edge5" class="edge">
<title>VariantStyleSelectorModule&#45;&gt;VariantsComponentsModule</title>
<path fill="none" stroke="black" d="M112,-122.28C112,-143.32 112,-175 112,-175 112,-175 382.9,-175 382.9,-175"/>
<polygon fill="black" stroke="black" points="382.9,-178.5 392.9,-175 382.9,-171.5 382.9,-178.5"/>
</g>
</g>
</svg>
