<?xml version="1.0" encoding="UTF-8" standalone="no"?>
<!DOCTYPE svg PUBLIC "-//W3C//DTD SVG 1.1//EN"
 "http://www.w3.org/Graphics/SVG/1.1/DTD/svg11.dtd">
<!-- Generated by graphviz version 2.44.1 (20200629.0846)
 -->
<!-- Title: dependencies Pages: 1 -->
<svg width="504pt" height="211pt"
 viewBox="0.00 0.00 504.00 211.00" xmlns="http://www.w3.org/2000/svg" xmlns:xlink="http://www.w3.org/1999/xlink">
<g id="graph0" class="graph" transform="scale(1 1) rotate(0) translate(4 207)">
<title>dependencies</title>
<polygon fill="white" stroke="transparent" points="-4,4 -4,-207 500,-207 500,4 -4,4"/>
<text text-anchor="start" x="227.01" y="-42.4" font-family="sans-serif" font-weight="bold" font-size="14.00">Legend</text>
<polygon fill="#ffffb3" stroke="transparent" points="14,-10 14,-30 34,-30 34,-10 14,-10"/>
<text text-anchor="start" x="37.63" y="-15.4" font-family="sans-serif" font-size="14.00"> &#160;Declarations</text>
<polygon fill="#8dd3c7" stroke="transparent" points="127,-10 127,-30 147,-30 147,-10 127,-10"/>
<text text-anchor="start" x="150.73" y="-15.4" font-family="sans-serif" font-size="14.00"> &#160;Module</text>
<polygon fill="#80b1d3" stroke="transparent" points="213,-10 213,-30 233,-30 233,-10 213,-10"/>
<text text-anchor="start" x="236.78" y="-15.4" font-family="sans-serif" font-size="14.00"> &#160;Bootstrap</text>
<polygon fill="#fdb462" stroke="transparent" points="310,-10 310,-30 330,-30 330,-10 310,-10"/>
<text text-anchor="start" x="333.67" y="-15.4" font-family="sans-serif" font-size="14.00"> &#160;Providers</text>
<polygon fill="#fb8072" stroke="transparent" points="406,-10 406,-30 426,-30 426,-10 406,-10"/>
<text text-anchor="start" x="429.73" y="-15.4" font-family="sans-serif" font-size="14.00"> &#160;Exports</text>
<g id="clust1" class="cluster">
<title>cluster_TextfieldConfiguratorModule</title>
<polygon fill="none" stroke="black" stroke-dasharray="1,5" points="127,-70 127,-195 369,-195 369,-70 127,-70"/>
</g>
<g id="clust3" class="cluster">
<title>cluster_TextfieldConfiguratorModule_imports</title>
<polygon fill="none" stroke="black" points="135,-78 135,-130 361,-130 361,-78 135,-78"/>
</g>
<!-- TextfieldConfiguratorCoreModule -->
<g id="node1" class="node">
<title>TextfieldConfiguratorCoreModule</title>
<polygon fill="#8dd3c7" stroke="black" points="353.39,-122 350.39,-126 329.39,-126 326.39,-122 142.61,-122 142.61,-86 353.39,-86 353.39,-122"/>
<text text-anchor="middle" x="248" y="-99.8" font-family="Times,serif" font-size="14.00">TextfieldConfiguratorCoreModule</text>
</g>
<!-- TextfieldConfiguratorModule -->
<g id="node2" class="node">
<title>TextfieldConfiguratorModule</title>
<polygon fill="#8dd3c7" stroke="black" points="339.68,-187 336.68,-191 315.68,-191 312.68,-187 156.32,-187 156.32,-151 339.68,-151 339.68,-187"/>
<text text-anchor="middle" x="248" y="-164.8" font-family="Times,serif" font-size="14.00">TextfieldConfiguratorModule</text>
</g>
<!-- TextfieldConfiguratorCoreModule&#45;&gt;TextfieldConfiguratorModule -->
<g id="edge1" class="edge">
<title>TextfieldConfiguratorCoreModule&#45;&gt;TextfieldConfiguratorModule</title>
<path fill="none" stroke="black" d="M248,-122.11C248,-122.11 248,-140.99 248,-140.99"/>
<polygon fill="black" stroke="black" points="244.5,-140.99 248,-150.99 251.5,-140.99 244.5,-140.99"/>
</g>
</g>
</svg>
