<?xml version="1.0" encoding="UTF-8" standalone="no"?>
<!DOCTYPE svg PUBLIC "-//W3C//DTD SVG 1.1//EN"
 "http://www.w3.org/Graphics/SVG/1.1/DTD/svg11.dtd">
<!-- Generated by graphviz version 2.40.1 (20161225.0304)
 -->
<!-- Title: dependencies Pages: 1 -->
<svg width="504pt" height="211pt"
 viewBox="0.00 0.00 504.00 211.00" xmlns="http://www.w3.org/2000/svg" xmlns:xlink="http://www.w3.org/1999/xlink">
<g id="graph0" class="graph" transform="scale(1 1) rotate(0) translate(4 207)">
<title>dependencies</title>
<polygon fill="#ffffff" stroke="transparent" points="-4,4 -4,-207 500,-207 500,4 -4,4"/>
<text text-anchor="start" x="227.0091" y="-42.4" font-family="sans-serif" font-weight="bold" font-size="14.00" fill="#000000">Legend</text>
<polygon fill="#ffffb3" stroke="transparent" points="14,-10 14,-30 34,-30 34,-10 14,-10"/>
<text text-anchor="start" x="37.629" y="-15.4" font-family="sans-serif" font-size="14.00" fill="#000000"> &#160;Declarations</text>
<polygon fill="#8dd3c7" stroke="transparent" points="127,-10 127,-30 147,-30 147,-10 127,-10"/>
<text text-anchor="start" x="150.7251" y="-15.4" font-family="sans-serif" font-size="14.00" fill="#000000"> &#160;Module</text>
<polygon fill="#80b1d3" stroke="transparent" points="213,-10 213,-30 233,-30 233,-10 213,-10"/>
<text text-anchor="start" x="236.7812" y="-15.4" font-family="sans-serif" font-size="14.00" fill="#000000"> &#160;Bootstrap</text>
<polygon fill="#fdb462" stroke="transparent" points="310,-10 310,-30 330,-30 330,-10 310,-10"/>
<text text-anchor="start" x="333.6732" y="-15.4" font-family="sans-serif" font-size="14.00" fill="#000000"> &#160;Providers</text>
<polygon fill="#fb8072" stroke="transparent" points="406,-10 406,-30 426,-30 426,-10 406,-10"/>
<text text-anchor="start" x="429.7258" y="-15.4" font-family="sans-serif" font-size="14.00" fill="#000000"> &#160;Exports</text>
<g id="clust1" class="cluster">
<title>cluster_TextfieldConfiguratorModule</title>
<polygon fill="none" stroke="#000000" stroke-dasharray="1,5" points="15,-70 15,-195 481,-195 481,-70 15,-70"/>
</g>
<g id="clust3" class="cluster">
<title>cluster_TextfieldConfiguratorModule_imports</title>
<polygon fill="none" stroke="#000000" points="23,-78 23,-130 473,-130 473,-78 23,-78"/>
</g>
<!-- TextfieldConfiguratorCoreModule -->
<g id="node1" class="node">
<title>TextfieldConfiguratorCoreModule</title>
<polygon fill="#8dd3c7" stroke="#000000" points="465.3904,-122 462.3904,-126 441.3904,-126 438.3904,-122 254.6096,-122 254.6096,-86 465.3904,-86 465.3904,-122"/>
<text text-anchor="middle" x="360" y="-99.8" font-family="Times,serif" font-size="14.00" fill="#000000">TextfieldConfiguratorCoreModule</text>
</g>
<!-- TextfieldConfiguratorModule -->
<g id="node3" class="node">
<title>TextfieldConfiguratorModule</title>
<polygon fill="#8dd3c7" stroke="#000000" points="338.6783,-187 335.6783,-191 314.6783,-191 311.6783,-187 155.3217,-187 155.3217,-151 338.6783,-151 338.6783,-187"/>
<text text-anchor="middle" x="247" y="-164.8" font-family="Times,serif" font-size="14.00" fill="#000000">TextfieldConfiguratorModule</text>
</g>
<!-- TextfieldConfiguratorCoreModule&#45;&gt;TextfieldConfiguratorModule -->
<g id="edge1" class="edge">
<title>TextfieldConfiguratorCoreModule&#45;&gt;TextfieldConfiguratorModule</title>
<path fill="none" stroke="#000000" d="M296.6971,-122.1061C296.6971,-122.1061 296.6971,-140.991 296.6971,-140.991"/>
<polygon fill="#000000" stroke="#000000" points="293.1971,-140.9909 296.6971,-150.991 300.1971,-140.991 293.1971,-140.9909"/>
</g>
<!-- TextfieldConfiguratorOccModule -->
<g id="node2" class="node">
<title>TextfieldConfiguratorOccModule</title>
<polygon fill="#8dd3c7" stroke="#000000" points="236.7142,-122 233.7142,-126 212.7142,-126 209.7142,-122 31.2858,-122 31.2858,-86 236.7142,-86 236.7142,-122"/>
<text text-anchor="middle" x="134" y="-99.8" font-family="Times,serif" font-size="14.00" fill="#000000">TextfieldConfiguratorOccModule</text>
</g>
<!-- TextfieldConfiguratorOccModule&#45;&gt;TextfieldConfiguratorModule -->
<g id="edge2" class="edge">
<title>TextfieldConfiguratorOccModule&#45;&gt;TextfieldConfiguratorModule</title>
<path fill="none" stroke="#000000" d="M196.1339,-122.1061C196.1339,-122.1061 196.1339,-140.991 196.1339,-140.991"/>
<polygon fill="#000000" stroke="#000000" points="192.634,-140.9909 196.1339,-150.991 199.634,-140.991 192.634,-140.9909"/>
</g>
</g>
</svg>
