<?xml version="1.0" encoding="UTF-8" standalone="no"?>
<!DOCTYPE svg PUBLIC "-//W3C//DTD SVG 1.1//EN"
 "http://www.w3.org/Graphics/SVG/1.1/DTD/svg11.dtd">
<!-- Generated by graphviz version 2.46.0 (20210119.1425)
 -->
<!-- Title: dependencies Pages: 1 -->
<svg width="504pt" height="211pt"
 viewBox="0.00 0.00 504.00 211.00" xmlns="http://www.w3.org/2000/svg" xmlns:xlink="http://www.w3.org/1999/xlink">
<g id="graph0" class="graph" transform="scale(1 1) rotate(0) translate(4 207)">
<title>dependencies</title>
<polygon fill="white" stroke="transparent" points="-4,4 -4,-207 500,-207 500,4 -4,4"/>
<text text-anchor="start" x="227.01" y="-42.4" font-family="sans-serif" font-weight="bold" font-size="14.00">Legend</text>
<polygon fill="#ffffb3" stroke="transparent" points="14,-10 14,-30 34,-30 34,-10 14,-10"/>
<text text-anchor="start" x="37.63" y="-15.4" font-family="sans-serif" font-size="14.00"> &#160;Declarations</text>
<polygon fill="#8dd3c7" stroke="transparent" points="127,-10 127,-30 147,-30 147,-10 127,-10"/>
<text text-anchor="start" x="150.73" y="-15.4" font-family="sans-serif" font-size="14.00"> &#160;Module</text>
<polygon fill="#80b1d3" stroke="transparent" points="213,-10 213,-30 233,-30 233,-10 213,-10"/>
<text text-anchor="start" x="236.78" y="-15.4" font-family="sans-serif" font-size="14.00"> &#160;Bootstrap</text>
<polygon fill="#fdb462" stroke="transparent" points="310,-10 310,-30 330,-30 330,-10 310,-10"/>
<text text-anchor="start" x="333.67" y="-15.4" font-family="sans-serif" font-size="14.00"> &#160;Providers</text>
<polygon fill="#fb8072" stroke="transparent" points="406,-10 406,-30 426,-30 426,-10 406,-10"/>
<text text-anchor="start" x="429.73" y="-15.4" font-family="sans-serif" font-size="14.00"> &#160;Exports</text>
<g id="clust1" class="cluster">
<title>cluster_TextfieldConfiguratorModule</title>
<polygon fill="none" stroke="black" stroke-dasharray="1,5" points="15,-70 15,-195 481,-195 481,-70 15,-70"/>
</g>
<g id="clust3" class="cluster">
<title>cluster_TextfieldConfiguratorModule_imports</title>
<polygon fill="none" stroke="black" points="23,-78 23,-130 473,-130 473,-78 23,-78"/>
</g>
<!-- TextfieldConfiguratorCoreModule -->
<g id="node1" class="node">
<title>TextfieldConfiguratorCoreModule</title>
<polygon fill="#8dd3c7" stroke="black" points="465.39,-122 462.39,-126 441.39,-126 438.39,-122 254.61,-122 254.61,-86 465.39,-86 465.39,-122"/>
<text text-anchor="middle" x="360" y="-99.8" font-family="Times,serif" font-size="14.00">TextfieldConfiguratorCoreModule</text>
</g>
<!-- TextfieldConfiguratorModule -->
<g id="node3" class="node">
<title>TextfieldConfiguratorModule</title>
<polygon fill="#8dd3c7" stroke="black" points="338.68,-187 335.68,-191 314.68,-191 311.68,-187 155.32,-187 155.32,-151 338.68,-151 338.68,-187"/>
<text text-anchor="middle" x="247" y="-164.8" font-family="Times,serif" font-size="14.00">TextfieldConfiguratorModule</text>
</g>
<!-- TextfieldConfiguratorCoreModule&#45;&gt;TextfieldConfiguratorModule -->
<g id="edge1" class="edge">
<title>TextfieldConfiguratorCoreModule&#45;&gt;TextfieldConfiguratorModule</title>
<path fill="none" stroke="black" d="M296.7,-122.11C296.7,-122.11 296.7,-140.99 296.7,-140.99"/>
<polygon fill="black" stroke="black" points="293.2,-140.99 296.7,-150.99 300.2,-140.99 293.2,-140.99"/>
</g>
<!-- TextfieldConfiguratorOccModule -->
<g id="node2" class="node">
<title>TextfieldConfiguratorOccModule</title>
<polygon fill="#8dd3c7" stroke="black" points="236.71,-122 233.71,-126 212.71,-126 209.71,-122 31.29,-122 31.29,-86 236.71,-86 236.71,-122"/>
<text text-anchor="middle" x="134" y="-99.8" font-family="Times,serif" font-size="14.00">TextfieldConfiguratorOccModule</text>
</g>
<!-- TextfieldConfiguratorOccModule&#45;&gt;TextfieldConfiguratorModule -->
<g id="edge2" class="edge">
<title>TextfieldConfiguratorOccModule&#45;&gt;TextfieldConfiguratorModule</title>
<path fill="none" stroke="black" d="M196.13,-122.11C196.13,-122.11 196.13,-140.99 196.13,-140.99"/>
<polygon fill="black" stroke="black" points="192.63,-140.99 196.13,-150.99 199.63,-140.99 192.63,-140.99"/>
</g>
</g>
</svg>
