<?xml version="1.0" encoding="UTF-8" standalone="no"?>
<!DOCTYPE svg PUBLIC "-//W3C//DTD SVG 1.1//EN"
 "http://www.w3.org/Graphics/SVG/1.1/DTD/svg11.dtd">
<!-- Generated by graphviz version 2.47.3 (20210619.1520)
 -->
<!-- Title: dependencies Pages: 1 -->
<svg width="1456pt" height="247pt"
 viewBox="0.00 0.00 1456.00 246.80" xmlns="http://www.w3.org/2000/svg" xmlns:xlink="http://www.w3.org/1999/xlink">
<g id="graph0" class="graph" transform="scale(1 1) rotate(0) translate(4 242.8)">
<title>dependencies</title>
<polygon fill="white" stroke="transparent" points="-4,4 -4,-242.8 1452,-242.8 1452,4 -4,4"/>
<text text-anchor="middle" x="724" y="-8.2" font-family="sans-serif" font-size="14.00">dependencies</text>
<g id="clust1" class="cluster">
<title>cluster_ConfiguratorAttributeProductCardModule</title>
<polygon fill="none" stroke="black" stroke-dasharray="1,5" points="8,-32.8 8,-230.8 1440,-230.8 1440,-32.8 8,-32.8"/>
</g>
<g id="clust4" class="cluster">
<title>cluster_ConfiguratorAttributeProductCardModule_imports</title>
<polygon fill="none" stroke="black" points="314,-40.8 314,-92.8 1432,-92.8 1432,-40.8 314,-40.8"/>
</g>
<g id="clust2" class="cluster">
<title>cluster_ConfiguratorAttributeProductCardModule_declarations</title>
<polygon fill="none" stroke="black" points="16,-40.8 16,-92.8 306,-92.8 306,-40.8 16,-40.8"/>
</g>
<g id="clust5" class="cluster">
<title>cluster_ConfiguratorAttributeProductCardModule_exports</title>
<polygon fill="none" stroke="black" points="526,-170.8 526,-222.8 820,-222.8 820,-170.8 526,-170.8"/>
</g>
<!-- ConfiguratorAttributeProductCardComponent -->
<g id="node1" class="node">
<title>ConfiguratorAttributeProductCardComponent</title>
<polygon fill="#ffffb3" stroke="black" points="298.45,-84.8 23.55,-84.8 23.55,-48.8 298.45,-48.8 298.45,-84.8"/>
<text text-anchor="middle" x="161" y="-62.6" font-family="Times,serif" font-size="14.00">ConfiguratorAttributeProductCardComponent</text>
</g>
<!-- ConfiguratorAttributeProductCardModule -->
<g id="node2" class="node">
<title>ConfiguratorAttributeProductCardModule</title>
<polygon fill="#8dd3c7" stroke="black" points="799.67,-149.8 796.67,-153.8 775.67,-153.8 772.67,-149.8 546.33,-149.8 546.33,-113.8 799.67,-113.8 799.67,-149.8"/>
<text text-anchor="middle" x="673" y="-127.6" font-family="Times,serif" font-size="14.00">ConfiguratorAttributeProductCardModule</text>
</g>
<!-- ConfiguratorAttributeProductCardComponent&#45;&gt;ConfiguratorAttributeProductCardModule -->
<g id="edge1" class="edge">
<title>ConfiguratorAttributeProductCardComponent&#45;&gt;ConfiguratorAttributeProductCardModule</title>
<path fill="none" stroke="black" d="M161,-85.09C161,-107.01 161,-140.8 161,-140.8 161,-140.8 536.11,-140.8 536.11,-140.8"/>
<polygon fill="black" stroke="black" points="536.11,-144.3 546.11,-140.8 536.11,-137.3 536.11,-144.3"/>
</g>
<!-- ConfiguratorAttributeProductCardComponent  -->
<g id="node10" class="node">
<title>ConfiguratorAttributeProductCardComponent </title>
<polygon fill="#fb8072" stroke="black" points="812.45,-214.8 533.55,-214.8 533.55,-178.8 812.45,-178.8 812.45,-214.8"/>
<text text-anchor="middle" x="673" y="-192.6" font-family="Times,serif" font-size="14.00">ConfiguratorAttributeProductCardComponent </text>
</g>
<!-- ConfiguratorAttributeProductCardModule&#45;&gt;ConfiguratorAttributeProductCardComponent  -->
<g id="edge9" class="edge">
<title>ConfiguratorAttributeProductCardModule&#45;&gt;ConfiguratorAttributeProductCardComponent </title>
<path fill="none" stroke="black" stroke-dasharray="5,2" d="M673,-149.91C673,-149.91 673,-168.79 673,-168.79"/>
<polygon fill="black" stroke="black" points="669.5,-168.79 673,-178.79 676.5,-168.79 669.5,-168.79"/>
</g>
<!-- ConfiguratorAttributeQuantityModule -->
<g id="node3" class="node">
<title>ConfiguratorAttributeQuantityModule</title>
<polygon fill="#8dd3c7" stroke="black" points="1423.9,-84.8 1420.9,-88.8 1399.9,-88.8 1396.9,-84.8 1192.1,-84.8 1192.1,-48.8 1423.9,-48.8 1423.9,-84.8"/>
<text text-anchor="middle" x="1308" y="-62.6" font-family="Times,serif" font-size="14.00">ConfiguratorAttributeQuantityModule</text>
</g>
<!-- ConfiguratorAttributeQuantityModule&#45;&gt;ConfiguratorAttributeProductCardModule -->
<g id="edge2" class="edge">
<title>ConfiguratorAttributeQuantityModule&#45;&gt;ConfiguratorAttributeProductCardModule</title>
<path fill="none" stroke="black" d="M1308,-85.09C1308,-107.01 1308,-140.8 1308,-140.8 1308,-140.8 809.59,-140.8 809.59,-140.8"/>
<polygon fill="black" stroke="black" points="809.6,-137.3 799.59,-140.8 809.59,-144.3 809.6,-137.3"/>
</g>
<!-- ConfiguratorPriceModule -->
<g id="node4" class="node">
<title>ConfiguratorPriceModule</title>
<polygon fill="#8dd3c7" stroke="black" points="1174.13,-84.8 1171.13,-88.8 1150.13,-88.8 1147.13,-84.8 1013.87,-84.8 1013.87,-48.8 1174.13,-48.8 1174.13,-84.8"/>
<text text-anchor="middle" x="1094" y="-62.6" font-family="Times,serif" font-size="14.00">ConfiguratorPriceModule</text>
</g>
<!-- ConfiguratorPriceModule&#45;&gt;ConfiguratorAttributeProductCardModule -->
<g id="edge3" class="edge">
<title>ConfiguratorPriceModule&#45;&gt;ConfiguratorAttributeProductCardModule</title>
<path fill="none" stroke="black" d="M1094,-84.91C1094,-104.14 1094,-131.8 1094,-131.8 1094,-131.8 809.6,-131.8 809.6,-131.8"/>
<polygon fill="black" stroke="black" points="809.6,-128.3 799.6,-131.8 809.6,-135.3 809.6,-128.3"/>
</g>
<!-- ConfiguratorShowMoreModule -->
<g id="node5" class="node">
<title>ConfiguratorShowMoreModule</title>
<polygon fill="#8dd3c7" stroke="black" points="996.07,-84.8 993.07,-88.8 972.07,-88.8 969.07,-84.8 801.93,-84.8 801.93,-48.8 996.07,-48.8 996.07,-84.8"/>
<text text-anchor="middle" x="899" y="-62.6" font-family="Times,serif" font-size="14.00">ConfiguratorShowMoreModule</text>
</g>
<!-- ConfiguratorShowMoreModule&#45;&gt;ConfiguratorAttributeProductCardModule -->
<g id="edge4" class="edge">
<title>ConfiguratorShowMoreModule&#45;&gt;ConfiguratorAttributeProductCardModule</title>
<path fill="none" stroke="black" d="M807.09,-84.83C807.09,-101.2 807.09,-122.8 807.09,-122.8 807.09,-122.8 806.37,-122.8 806.37,-122.8"/>
<polygon fill="black" stroke="black" points="809.89,-119.3 799.88,-122.8 809.88,-126.3 809.89,-119.3"/>
</g>
<!-- I18nModule -->
<g id="node6" class="node">
<title>I18nModule</title>
<polygon fill="#8dd3c7" stroke="black" points="783.71,-84.8 780.71,-88.8 759.71,-88.8 756.71,-84.8 698.29,-84.8 698.29,-48.8 783.71,-48.8 783.71,-84.8"/>
<text text-anchor="middle" x="741" y="-62.6" font-family="Times,serif" font-size="14.00">I18nModule</text>
</g>
<!-- I18nModule&#45;&gt;ConfiguratorAttributeProductCardModule -->
<g id="edge5" class="edge">
<title>I18nModule&#45;&gt;ConfiguratorAttributeProductCardModule</title>
<path fill="none" stroke="black" d="M741,-84.91C741,-84.91 741,-103.79 741,-103.79"/>
<polygon fill="black" stroke="black" points="737.5,-103.79 741,-113.79 744.5,-103.79 737.5,-103.79"/>
</g>
<!-- KeyboardFocusModule -->
<g id="node7" class="node">
<title>KeyboardFocusModule</title>
<polygon fill="#8dd3c7" stroke="black" points="680.19,-84.8 677.19,-88.8 656.19,-88.8 653.19,-84.8 531.81,-84.8 531.81,-48.8 680.19,-48.8 680.19,-84.8"/>
<text text-anchor="middle" x="606" y="-62.6" font-family="Times,serif" font-size="14.00">KeyboardFocusModule</text>
</g>
<!-- KeyboardFocusModule&#45;&gt;ConfiguratorAttributeProductCardModule -->
<g id="edge6" class="edge">
<title>KeyboardFocusModule&#45;&gt;ConfiguratorAttributeProductCardModule</title>
<path fill="none" stroke="black" d="M613.25,-84.91C613.25,-84.91 613.25,-103.79 613.25,-103.79"/>
<polygon fill="black" stroke="black" points="609.75,-103.79 613.25,-113.79 616.75,-103.79 609.75,-103.79"/>
</g>
<!-- MediaModule -->
<g id="node8" class="node">
<title>MediaModule</title>
<polygon fill="#8dd3c7" stroke="black" points="513.81,-84.8 510.81,-88.8 489.81,-88.8 486.81,-84.8 418.19,-84.8 418.19,-48.8 513.81,-48.8 513.81,-84.8"/>
<text text-anchor="middle" x="466" y="-62.6" font-family="Times,serif" font-size="14.00">MediaModule</text>
</g>
<!-- MediaModule&#45;&gt;ConfiguratorAttributeProductCardModule -->
<g id="edge7" class="edge">
<title>MediaModule&#45;&gt;ConfiguratorAttributeProductCardModule</title>
<path fill="none" stroke="black" d="M466,-84.83C466,-101.2 466,-122.8 466,-122.8 466,-122.8 536.33,-122.8 536.33,-122.8"/>
<polygon fill="black" stroke="black" points="536.33,-126.3 546.33,-122.8 536.33,-119.3 536.33,-126.3"/>
</g>
<!-- UrlModule -->
<g id="node9" class="node">
<title>UrlModule</title>
<polygon fill="#8dd3c7" stroke="black" points="400.21,-84.8 397.21,-88.8 376.21,-88.8 373.21,-84.8 321.79,-84.8 321.79,-48.8 400.21,-48.8 400.21,-84.8"/>
<text text-anchor="middle" x="361" y="-62.6" font-family="Times,serif" font-size="14.00">UrlModule</text>
</g>
<!-- UrlModule&#45;&gt;ConfiguratorAttributeProductCardModule -->
<g id="edge8" class="edge">
<title>UrlModule&#45;&gt;ConfiguratorAttributeProductCardModule</title>
<path fill="none" stroke="black" d="M361,-84.91C361,-104.14 361,-131.8 361,-131.8 361,-131.8 536.1,-131.8 536.1,-131.8"/>
<polygon fill="black" stroke="black" points="536.1,-135.3 546.1,-131.8 536.1,-128.3 536.1,-135.3"/>
</g>
</g>
</svg>
