<?xml version="1.0" encoding="UTF-8" standalone="no"?>
<!DOCTYPE svg PUBLIC "-//W3C//DTD SVG 1.1//EN"
 "http://www.w3.org/Graphics/SVG/1.1/DTD/svg11.dtd">
<!-- Generated by graphviz version 2.47.3 (20210619.1520)
 -->
<!-- Title: dependencies Pages: 1 -->
<svg width="551pt" height="174pt"
 viewBox="0.00 0.00 551.00 173.80" xmlns="http://www.w3.org/2000/svg" xmlns:xlink="http://www.w3.org/1999/xlink">
<g id="graph0" class="graph" transform="scale(1 1) rotate(0) translate(4 169.8)">
<title>dependencies</title>
<polygon fill="white" stroke="transparent" points="-4,4 -4,-169.8 547,-169.8 547,4 -4,4"/>
<text text-anchor="middle" x="271.5" y="-8.2" font-family="sans-serif" font-size="14.00">dependencies</text>
<g id="clust1" class="cluster">
<title>cluster_LoginRegisterModule</title>
<polygon fill="none" stroke="black" stroke-dasharray="1,5" points="8,-32.8 8,-157.8 535,-157.8 535,-32.8 8,-32.8"/>
</g>
<g id="clust2" class="cluster">
<title>cluster_LoginRegisterModule_declarations</title>
<polygon fill="none" stroke="black" points="349,-40.8 349,-92.8 527,-92.8 527,-40.8 349,-40.8"/>
</g>
<g id="clust4" class="cluster">
<title>cluster_LoginRegisterModule_imports</title>
<polygon fill="none" stroke="black" points="16,-40.8 16,-92.8 341,-92.8 341,-40.8 16,-40.8"/>
</g>
<!-- LoginRegisterComponent -->
<g id="node1" class="node">
<title>LoginRegisterComponent</title>
<polygon fill="#ffffb3" stroke="black" points="518.93,-84.8 357.07,-84.8 357.07,-48.8 518.93,-48.8 518.93,-84.8"/>
<text text-anchor="middle" x="438" y="-62.6" font-family="Times,serif" font-size="14.00">LoginRegisterComponent</text>
</g>
<!-- LoginRegisterModule -->
<g id="node2" class="node">
<title>LoginRegisterModule</title>
<polygon fill="#8dd3c7" stroke="black" points="301.65,-149.8 298.65,-153.8 277.65,-153.8 274.65,-149.8 162.35,-149.8 162.35,-113.8 301.65,-113.8 301.65,-149.8"/>
<text text-anchor="middle" x="232" y="-127.6" font-family="Times,serif" font-size="14.00">LoginRegisterModule</text>
</g>
<!-- LoginRegisterComponent&#45;&gt;LoginRegisterModule -->
<g id="edge1" class="edge">
<title>LoginRegisterComponent&#45;&gt;LoginRegisterModule</title>
<path fill="none" stroke="black" d="M438,-84.91C438,-104.14 438,-131.8 438,-131.8 438,-131.8 311.74,-131.8 311.74,-131.8"/>
<polygon fill="black" stroke="black" points="311.74,-128.3 301.74,-131.8 311.74,-135.3 311.74,-128.3"/>
</g>
<!-- I18nModule -->
<g id="node3" class="node">
<title>I18nModule</title>
<polygon fill="#8dd3c7" stroke="black" points="332.71,-84.8 329.71,-88.8 308.71,-88.8 305.71,-84.8 247.29,-84.8 247.29,-48.8 332.71,-48.8 332.71,-84.8"/>
<text text-anchor="middle" x="290" y="-62.6" font-family="Times,serif" font-size="14.00">I18nModule</text>
</g>
<!-- I18nModule&#45;&gt;LoginRegisterModule -->
<g id="edge2" class="edge">
<title>I18nModule&#45;&gt;LoginRegisterModule</title>
<path fill="none" stroke="black" d="M274.61,-84.91C274.61,-84.91 274.61,-103.79 274.61,-103.79"/>
<polygon fill="black" stroke="black" points="271.11,-103.79 274.61,-113.79 278.11,-103.79 271.11,-103.79"/>
</g>
<!-- PageSlotModule -->
<g id="node4" class="node">
<title>PageSlotModule</title>
<polygon fill="#8dd3c7" stroke="black" points="229.83,-84.8 226.83,-88.8 205.83,-88.8 202.83,-84.8 120.17,-84.8 120.17,-48.8 229.83,-48.8 229.83,-84.8"/>
<text text-anchor="middle" x="175" y="-62.6" font-family="Times,serif" font-size="14.00">PageSlotModule</text>
</g>
<!-- PageSlotModule&#45;&gt;LoginRegisterModule -->
<g id="edge3" class="edge">
<title>PageSlotModule&#45;&gt;LoginRegisterModule</title>
<path fill="none" stroke="black" d="M195.92,-84.91C195.92,-84.91 195.92,-103.79 195.92,-103.79"/>
<polygon fill="black" stroke="black" points="192.42,-103.79 195.92,-113.79 199.42,-103.79 192.42,-103.79"/>
</g>
<!-- UrlModule -->
<g id="node5" class="node">
<title>UrlModule</title>
<polygon fill="#8dd3c7" stroke="black" points="102.21,-84.8 99.21,-88.8 78.21,-88.8 75.21,-84.8 23.79,-84.8 23.79,-48.8 102.21,-48.8 102.21,-84.8"/>
<text text-anchor="middle" x="63" y="-62.6" font-family="Times,serif" font-size="14.00">UrlModule</text>
</g>
<!-- UrlModule&#45;&gt;LoginRegisterModule -->
<g id="edge4" class="edge">
<title>UrlModule&#45;&gt;LoginRegisterModule</title>
<path fill="none" stroke="black" d="M63,-84.91C63,-104.14 63,-131.8 63,-131.8 63,-131.8 152.29,-131.8 152.29,-131.8"/>
<polygon fill="black" stroke="black" points="152.29,-135.3 162.29,-131.8 152.29,-128.3 152.29,-135.3"/>
</g>
</g>
</svg>
