<?xml version="1.0" encoding="UTF-8" standalone="no"?>
<!DOCTYPE svg PUBLIC "-//W3C//DTD SVG 1.1//EN"
 "http://www.w3.org/Graphics/SVG/1.1/DTD/svg11.dtd">
<!-- Generated by graphviz version 2.40.1 (20161225.0304)
 -->
<!-- Title: dependencies Pages: 1 -->
<svg width="682pt" height="284pt"
 viewBox="0.00 0.00 682.00 284.00" xmlns="http://www.w3.org/2000/svg" xmlns:xlink="http://www.w3.org/1999/xlink">
<g id="graph0" class="graph" transform="scale(1 1) rotate(0) translate(4 280)">
<title>dependencies</title>
<polygon fill="#ffffff" stroke="transparent" points="-4,4 -4,-280 678,-280 678,4 -4,4"/>
<text text-anchor="start" x="316.0091" y="-42.4" font-family="sans-serif" font-weight="bold" font-size="14.00" fill="#000000">Legend</text>
<polygon fill="#ffffb3" stroke="transparent" points="103,-10 103,-30 123,-30 123,-10 103,-10"/>
<text text-anchor="start" x="126.629" y="-15.4" font-family="sans-serif" font-size="14.00" fill="#000000"> &#160;Declarations</text>
<polygon fill="#8dd3c7" stroke="transparent" points="216,-10 216,-30 236,-30 236,-10 216,-10"/>
<text text-anchor="start" x="239.7251" y="-15.4" font-family="sans-serif" font-size="14.00" fill="#000000"> &#160;Module</text>
<polygon fill="#80b1d3" stroke="transparent" points="302,-10 302,-30 322,-30 322,-10 302,-10"/>
<text text-anchor="start" x="325.7812" y="-15.4" font-family="sans-serif" font-size="14.00" fill="#000000"> &#160;Bootstrap</text>
<polygon fill="#fdb462" stroke="transparent" points="399,-10 399,-30 419,-30 419,-10 399,-10"/>
<text text-anchor="start" x="422.6732" y="-15.4" font-family="sans-serif" font-size="14.00" fill="#000000"> &#160;Providers</text>
<polygon fill="#fb8072" stroke="transparent" points="495,-10 495,-30 515,-30 515,-10 495,-10"/>
<text text-anchor="start" x="518.7258" y="-15.4" font-family="sans-serif" font-size="14.00" fill="#000000"> &#160;Exports</text>
<g id="clust1" class="cluster">
<title>cluster_LoginRegisterModule</title>
<polygon fill="none" stroke="#000000" stroke-dasharray="1,5" points="8,-70 8,-268 666,-268 666,-70 8,-70"/>
</g>
<g id="clust2" class="cluster">
<title>cluster_LoginRegisterModule_declarations</title>
<polygon fill="none" stroke="#000000" points="480,-78 480,-130 658,-130 658,-78 480,-78"/>
</g>
<g id="clust4" class="cluster">
<title>cluster_LoginRegisterModule_imports</title>
<polygon fill="none" stroke="#000000" points="16,-78 16,-130 472,-130 472,-78 16,-78"/>
</g>
<g id="clust5" class="cluster">
<title>cluster_LoginRegisterModule_exports</title>
<polygon fill="none" stroke="#000000" points="200,-208 200,-260 380,-260 380,-208 200,-208"/>
</g>
<!-- LoginRegisterComponent -->
<g id="node1" class="node">
<title>LoginRegisterComponent</title>
<polygon fill="#ffffb3" stroke="#000000" points="649.9284,-122 488.0716,-122 488.0716,-86 649.9284,-86 649.9284,-122"/>
<text text-anchor="middle" x="569" y="-99.8" font-family="Times,serif" font-size="14.00" fill="#000000">LoginRegisterComponent</text>
</g>
<!-- LoginRegisterModule -->
<g id="node2" class="node">
<title>LoginRegisterModule</title>
<polygon fill="#8dd3c7" stroke="#000000" points="359.6456,-187 356.6456,-191 335.6456,-191 332.6456,-187 220.3544,-187 220.3544,-151 359.6456,-151 359.6456,-187"/>
<text text-anchor="middle" x="290" y="-164.8" font-family="Times,serif" font-size="14.00" fill="#000000">LoginRegisterModule</text>
</g>
<!-- LoginRegisterComponent&#45;&gt;LoginRegisterModule -->
<g id="edge1" class="edge">
<title>LoginRegisterComponent&#45;&gt;LoginRegisterModule</title>
<path fill="none" stroke="#000000" d="M569,-122.1061C569,-141.3391 569,-169 569,-169 569,-169 369.6838,-169 369.6838,-169"/>
<polygon fill="#000000" stroke="#000000" points="369.6838,-165.5001 359.6838,-169 369.6837,-172.5001 369.6838,-165.5001"/>
</g>
<!-- LoginRegisterComponent  -->
<g id="node7" class="node">
<title>LoginRegisterComponent </title>
<polygon fill="#fb8072" stroke="#000000" points="372.4278,-252 207.5722,-252 207.5722,-216 372.4278,-216 372.4278,-252"/>
<text text-anchor="middle" x="290" y="-229.8" font-family="Times,serif" font-size="14.00" fill="#000000">LoginRegisterComponent </text>
</g>
<!-- LoginRegisterModule&#45;&gt;LoginRegisterComponent  -->
<g id="edge6" class="edge">
<title>LoginRegisterModule&#45;&gt;LoginRegisterComponent </title>
<path fill="none" stroke="#000000" stroke-dasharray="5,2" d="M290,-187.1061C290,-187.1061 290,-205.991 290,-205.991"/>
<polygon fill="#000000" stroke="#000000" points="286.5001,-205.9909 290,-215.991 293.5001,-205.991 286.5001,-205.9909"/>
</g>
<!-- CheckoutModule -->
<g id="node3" class="node">
<title>CheckoutModule</title>
<polygon fill="#8dd3c7" stroke="#000000" points="463.7064,-122 460.7064,-126 439.7064,-126 436.7064,-122 350.2936,-122 350.2936,-86 463.7064,-86 463.7064,-122"/>
<text text-anchor="middle" x="407" y="-99.8" font-family="Times,serif" font-size="14.00" fill="#000000">CheckoutModule</text>
</g>
<!-- CheckoutModule&#45;&gt;LoginRegisterModule -->
<g id="edge2" class="edge">
<title>CheckoutModule&#45;&gt;LoginRegisterModule</title>
<path fill="none" stroke="#000000" d="M355.1097,-122.1061C355.1097,-122.1061 355.1097,-140.991 355.1097,-140.991"/>
<polygon fill="#000000" stroke="#000000" points="351.6098,-140.9909 355.1097,-150.991 358.6098,-140.991 351.6098,-140.9909"/>
</g>
<!-- I18nModule -->
<g id="node4" class="node">
<title>I18nModule</title>
<polygon fill="#8dd3c7" stroke="#000000" points="332.7107,-122 329.7107,-126 308.7107,-126 305.7107,-122 247.2893,-122 247.2893,-86 332.7107,-86 332.7107,-122"/>
<text text-anchor="middle" x="290" y="-99.8" font-family="Times,serif" font-size="14.00" fill="#000000">I18nModule</text>
</g>
<!-- I18nModule&#45;&gt;LoginRegisterModule -->
<g id="edge3" class="edge">
<title>I18nModule&#45;&gt;LoginRegisterModule</title>
<path fill="none" stroke="#000000" d="M290,-122.1061C290,-122.1061 290,-140.991 290,-140.991"/>
<polygon fill="#000000" stroke="#000000" points="286.5001,-140.9909 290,-150.991 293.5001,-140.991 286.5001,-140.9909"/>
</g>
<!-- PageSlotModule -->
<g id="node5" class="node">
<title>PageSlotModule</title>
<polygon fill="#8dd3c7" stroke="#000000" points="229.8259,-122 226.8259,-126 205.8259,-126 202.8259,-122 120.1741,-122 120.1741,-86 229.8259,-86 229.8259,-122"/>
<text text-anchor="middle" x="175" y="-99.8" font-family="Times,serif" font-size="14.00" fill="#000000">PageSlotModule</text>
</g>
<!-- PageSlotModule&#45;&gt;LoginRegisterModule -->
<g id="edge4" class="edge">
<title>PageSlotModule&#45;&gt;LoginRegisterModule</title>
<path fill="none" stroke="#000000" d="M224.9201,-122.1061C224.9201,-122.1061 224.9201,-140.991 224.9201,-140.991"/>
<polygon fill="#000000" stroke="#000000" points="221.4201,-140.9909 224.9201,-150.991 228.4201,-140.991 221.4201,-140.9909"/>
</g>
<!-- UrlModule -->
<g id="node6" class="node">
<title>UrlModule</title>
<polygon fill="#8dd3c7" stroke="#000000" points="102.2079,-122 99.2079,-126 78.2079,-126 75.2079,-122 23.7921,-122 23.7921,-86 102.2079,-86 102.2079,-122"/>
<text text-anchor="middle" x="63" y="-99.8" font-family="Times,serif" font-size="14.00" fill="#000000">UrlModule</text>
</g>
<!-- UrlModule&#45;&gt;LoginRegisterModule -->
<g id="edge5" class="edge">
<title>UrlModule&#45;&gt;LoginRegisterModule</title>
<path fill="none" stroke="#000000" d="M63,-122.1061C63,-141.3391 63,-169 63,-169 63,-169 210.3498,-169 210.3498,-169"/>
<polygon fill="#000000" stroke="#000000" points="210.3499,-172.5001 220.3498,-169 210.3498,-165.5001 210.3499,-172.5001"/>
</g>
</g>
</svg>
