<?xml version="1.0" encoding="UTF-8" standalone="no"?>
<!DOCTYPE svg PUBLIC "-//W3C//DTD SVG 1.1//EN"
 "http://www.w3.org/Graphics/SVG/1.1/DTD/svg11.dtd">
<!-- Generated by graphviz version 2.47.0 (20210316.0004)
 -->
<!-- Title: dependencies Pages: 1 -->
<svg width="551pt" height="211pt"
 viewBox="0.00 0.00 551.00 211.00" xmlns="http://www.w3.org/2000/svg" xmlns:xlink="http://www.w3.org/1999/xlink">
<g id="graph0" class="graph" transform="scale(1 1) rotate(0) translate(4 207)">
<title>dependencies</title>
<polygon fill="white" stroke="transparent" points="-4,4 -4,-207 547,-207 547,4 -4,4"/>
<text text-anchor="start" x="250.51" y="-42.4" font-family="sans-serif" font-weight="bold" font-size="14.00">Legend</text>
<polygon fill="#ffffb3" stroke="transparent" points="37.5,-10 37.5,-30 57.5,-30 57.5,-10 37.5,-10"/>
<text text-anchor="start" x="61.13" y="-15.4" font-family="sans-serif" font-size="14.00"> &#160;Declarations</text>
<polygon fill="#8dd3c7" stroke="transparent" points="150.5,-10 150.5,-30 170.5,-30 170.5,-10 150.5,-10"/>
<text text-anchor="start" x="174.23" y="-15.4" font-family="sans-serif" font-size="14.00"> &#160;Module</text>
<polygon fill="#80b1d3" stroke="transparent" points="236.5,-10 236.5,-30 256.5,-30 256.5,-10 236.5,-10"/>
<text text-anchor="start" x="260.28" y="-15.4" font-family="sans-serif" font-size="14.00"> &#160;Bootstrap</text>
<polygon fill="#fdb462" stroke="transparent" points="333.5,-10 333.5,-30 353.5,-30 353.5,-10 333.5,-10"/>
<text text-anchor="start" x="357.17" y="-15.4" font-family="sans-serif" font-size="14.00"> &#160;Providers</text>
<polygon fill="#fb8072" stroke="transparent" points="429.5,-10 429.5,-30 449.5,-30 449.5,-10 429.5,-10"/>
<text text-anchor="start" x="453.23" y="-15.4" font-family="sans-serif" font-size="14.00"> &#160;Exports</text>
<g id="clust1" class="cluster">
<title>cluster_LoginRegisterModule</title>
<polygon fill="none" stroke="black" stroke-dasharray="1,5" points="8,-70 8,-195 535,-195 535,-70 8,-70"/>
</g>
<g id="clust2" class="cluster">
<title>cluster_LoginRegisterModule_declarations</title>
<polygon fill="none" stroke="black" points="349,-78 349,-130 527,-130 527,-78 349,-78"/>
</g>
<g id="clust4" class="cluster">
<title>cluster_LoginRegisterModule_imports</title>
<polygon fill="none" stroke="black" points="16,-78 16,-130 341,-130 341,-78 16,-78"/>
</g>
<!-- LoginRegisterComponent -->
<g id="node1" class="node">
<title>LoginRegisterComponent</title>
<polygon fill="#ffffb3" stroke="black" points="518.93,-122 357.07,-122 357.07,-86 518.93,-86 518.93,-122"/>
<text text-anchor="middle" x="438" y="-99.8" font-family="Times,serif" font-size="14.00">LoginRegisterComponent</text>
</g>
<!-- LoginRegisterModule -->
<g id="node2" class="node">
<title>LoginRegisterModule</title>
<polygon fill="#8dd3c7" stroke="black" points="301.65,-187 298.65,-191 277.65,-191 274.65,-187 162.35,-187 162.35,-151 301.65,-151 301.65,-187"/>
<text text-anchor="middle" x="232" y="-164.8" font-family="Times,serif" font-size="14.00">LoginRegisterModule</text>
</g>
<!-- LoginRegisterComponent&#45;&gt;LoginRegisterModule -->
<g id="edge1" class="edge">
<title>LoginRegisterComponent&#45;&gt;LoginRegisterModule</title>
<path fill="none" stroke="black" d="M438,-122.11C438,-141.34 438,-169 438,-169 438,-169 311.74,-169 311.74,-169"/>
<polygon fill="black" stroke="black" points="311.74,-165.5 301.74,-169 311.74,-172.5 311.74,-165.5"/>
</g>
<!-- I18nModule -->
<g id="node3" class="node">
<title>I18nModule</title>
<polygon fill="#8dd3c7" stroke="black" points="332.71,-122 329.71,-126 308.71,-126 305.71,-122 247.29,-122 247.29,-86 332.71,-86 332.71,-122"/>
<text text-anchor="middle" x="290" y="-99.8" font-family="Times,serif" font-size="14.00">I18nModule</text>
</g>
<!-- I18nModule&#45;&gt;LoginRegisterModule -->
<g id="edge2" class="edge">
<title>I18nModule&#45;&gt;LoginRegisterModule</title>
<path fill="none" stroke="black" d="M274.61,-122.11C274.61,-122.11 274.61,-140.99 274.61,-140.99"/>
<polygon fill="black" stroke="black" points="271.11,-140.99 274.61,-150.99 278.11,-140.99 271.11,-140.99"/>
</g>
<!-- PageSlotModule -->
<g id="node4" class="node">
<title>PageSlotModule</title>
<polygon fill="#8dd3c7" stroke="black" points="229.83,-122 226.83,-126 205.83,-126 202.83,-122 120.17,-122 120.17,-86 229.83,-86 229.83,-122"/>
<text text-anchor="middle" x="175" y="-99.8" font-family="Times,serif" font-size="14.00">PageSlotModule</text>
</g>
<!-- PageSlotModule&#45;&gt;LoginRegisterModule -->
<g id="edge3" class="edge">
<title>PageSlotModule&#45;&gt;LoginRegisterModule</title>
<path fill="none" stroke="black" d="M195.92,-122.11C195.92,-122.11 195.92,-140.99 195.92,-140.99"/>
<polygon fill="black" stroke="black" points="192.42,-140.99 195.92,-150.99 199.42,-140.99 192.42,-140.99"/>
</g>
<!-- UrlModule -->
<g id="node5" class="node">
<title>UrlModule</title>
<polygon fill="#8dd3c7" stroke="black" points="102.21,-122 99.21,-126 78.21,-126 75.21,-122 23.79,-122 23.79,-86 102.21,-86 102.21,-122"/>
<text text-anchor="middle" x="63" y="-99.8" font-family="Times,serif" font-size="14.00">UrlModule</text>
</g>
<!-- UrlModule&#45;&gt;LoginRegisterModule -->
<g id="edge4" class="edge">
<title>UrlModule&#45;&gt;LoginRegisterModule</title>
<path fill="none" stroke="black" d="M63,-122.11C63,-141.34 63,-169 63,-169 63,-169 152.29,-169 152.29,-169"/>
<polygon fill="black" stroke="black" points="152.29,-172.5 162.29,-169 152.29,-165.5 152.29,-172.5"/>
</g>
</g>
</svg>
