<?xml version="1.0" encoding="UTF-8" standalone="no"?>
<!DOCTYPE svg PUBLIC "-//W3C//DTD SVG 1.1//EN"
 "http://www.w3.org/Graphics/SVG/1.1/DTD/svg11.dtd">
<!-- Generated by graphviz version 2.47.0 (20210316.0004)
 -->
<!-- Title: dependencies Pages: 1 -->
<svg width="757pt" height="284pt"
 viewBox="0.00 0.00 757.00 284.00" xmlns="http://www.w3.org/2000/svg" xmlns:xlink="http://www.w3.org/1999/xlink">
<g id="graph0" class="graph" transform="scale(1 1) rotate(0) translate(4 280)">
<title>dependencies</title>
<polygon fill="white" stroke="transparent" points="-4,4 -4,-280 753,-280 753,4 -4,4"/>
<text text-anchor="start" x="353.51" y="-42.4" font-family="sans-serif" font-weight="bold" font-size="14.00">Legend</text>
<polygon fill="#ffffb3" stroke="transparent" points="140.5,-10 140.5,-30 160.5,-30 160.5,-10 140.5,-10"/>
<text text-anchor="start" x="164.13" y="-15.4" font-family="sans-serif" font-size="14.00"> &#160;Declarations</text>
<polygon fill="#8dd3c7" stroke="transparent" points="253.5,-10 253.5,-30 273.5,-30 273.5,-10 253.5,-10"/>
<text text-anchor="start" x="277.23" y="-15.4" font-family="sans-serif" font-size="14.00"> &#160;Module</text>
<polygon fill="#80b1d3" stroke="transparent" points="339.5,-10 339.5,-30 359.5,-30 359.5,-10 339.5,-10"/>
<text text-anchor="start" x="363.28" y="-15.4" font-family="sans-serif" font-size="14.00"> &#160;Bootstrap</text>
<polygon fill="#fdb462" stroke="transparent" points="436.5,-10 436.5,-30 456.5,-30 456.5,-10 436.5,-10"/>
<text text-anchor="start" x="460.17" y="-15.4" font-family="sans-serif" font-size="14.00"> &#160;Providers</text>
<polygon fill="#fb8072" stroke="transparent" points="532.5,-10 532.5,-30 552.5,-30 552.5,-10 532.5,-10"/>
<text text-anchor="start" x="556.23" y="-15.4" font-family="sans-serif" font-size="14.00"> &#160;Exports</text>
<g id="clust1" class="cluster">
<title>cluster_ConfiguratorOverviewBundleAttributeModule</title>
<polygon fill="none" stroke="black" stroke-dasharray="1,5" points="8,-70 8,-268 741,-268 741,-70 8,-70"/>
</g>
<g id="clust4" class="cluster">
<title>cluster_ConfiguratorOverviewBundleAttributeModule_imports</title>
<polygon fill="none" stroke="black" points="340,-78 340,-130 733,-130 733,-78 340,-78"/>
</g>
<g id="clust2" class="cluster">
<title>cluster_ConfiguratorOverviewBundleAttributeModule_declarations</title>
<polygon fill="none" stroke="black" points="16,-78 16,-130 332,-130 332,-78 16,-78"/>
</g>
<g id="clust5" class="cluster">
<title>cluster_ConfiguratorOverviewBundleAttributeModule_exports</title>
<polygon fill="none" stroke="black" points="290,-208 290,-260 610,-260 610,-208 290,-208"/>
</g>
<!-- ConfiguratorOverviewBundleAttributeComponent -->
<g id="node1" class="node">
<title>ConfiguratorOverviewBundleAttributeComponent</title>
<polygon fill="#ffffb3" stroke="black" points="323.83,-122 24.17,-122 24.17,-86 323.83,-86 323.83,-122"/>
<text text-anchor="middle" x="174" y="-99.8" font-family="Times,serif" font-size="14.00">ConfiguratorOverviewBundleAttributeComponent</text>
</g>
<!-- ConfiguratorOverviewBundleAttributeModule -->
<g id="node2" class="node">
<title>ConfiguratorOverviewBundleAttributeModule</title>
<polygon fill="#8dd3c7" stroke="black" points="589.04,-187 586.04,-191 565.04,-191 562.04,-187 310.96,-187 310.96,-151 589.04,-151 589.04,-187"/>
<text text-anchor="middle" x="450" y="-164.8" font-family="Times,serif" font-size="14.00">ConfiguratorOverviewBundleAttributeModule</text>
</g>
<!-- ConfiguratorOverviewBundleAttributeComponent&#45;&gt;ConfiguratorOverviewBundleAttributeModule -->
<g id="edge1" class="edge">
<title>ConfiguratorOverviewBundleAttributeComponent&#45;&gt;ConfiguratorOverviewBundleAttributeModule</title>
<path fill="none" stroke="black" d="M317.45,-122.11C317.45,-122.11 317.45,-140.99 317.45,-140.99"/>
<polygon fill="black" stroke="black" points="313.95,-140.99 317.45,-150.99 320.95,-140.99 313.95,-140.99"/>
</g>
<!-- ConfiguratorOverviewBundleAttributeComponent  -->
<g id="node6" class="node">
<title>ConfiguratorOverviewBundleAttributeComponent </title>
<polygon fill="#fb8072" stroke="black" points="601.83,-252 298.17,-252 298.17,-216 601.83,-216 601.83,-252"/>
<text text-anchor="middle" x="450" y="-229.8" font-family="Times,serif" font-size="14.00">ConfiguratorOverviewBundleAttributeComponent </text>
</g>
<!-- ConfiguratorOverviewBundleAttributeModule&#45;&gt;ConfiguratorOverviewBundleAttributeComponent  -->
<g id="edge5" class="edge">
<title>ConfiguratorOverviewBundleAttributeModule&#45;&gt;ConfiguratorOverviewBundleAttributeComponent </title>
<path fill="none" stroke="black" stroke-dasharray="5,2" d="M450,-187.11C450,-187.11 450,-205.99 450,-205.99"/>
<polygon fill="black" stroke="black" points="446.5,-205.99 450,-215.99 453.5,-205.99 446.5,-205.99"/>
</g>
<!-- ConfiguratorPriceModule -->
<g id="node3" class="node">
<title>ConfiguratorPriceModule</title>
<polygon fill="#8dd3c7" stroke="black" points="725.13,-122 722.13,-126 701.13,-126 698.13,-122 564.87,-122 564.87,-86 725.13,-86 725.13,-122"/>
<text text-anchor="middle" x="645" y="-99.8" font-family="Times,serif" font-size="14.00">ConfiguratorPriceModule</text>
</g>
<!-- ConfiguratorPriceModule&#45;&gt;ConfiguratorOverviewBundleAttributeModule -->
<g id="edge2" class="edge">
<title>ConfiguratorPriceModule&#45;&gt;ConfiguratorOverviewBundleAttributeModule</title>
<path fill="none" stroke="black" d="M576.85,-122.11C576.85,-122.11 576.85,-140.99 576.85,-140.99"/>
<polygon fill="black" stroke="black" points="573.35,-140.99 576.85,-150.99 580.35,-140.99 573.35,-140.99"/>
</g>
<!-- I18nModule -->
<g id="node4" class="node">
<title>I18nModule</title>
<polygon fill="#8dd3c7" stroke="black" points="546.71,-122 543.71,-126 522.71,-126 519.71,-122 461.29,-122 461.29,-86 546.71,-86 546.71,-122"/>
<text text-anchor="middle" x="504" y="-99.8" font-family="Times,serif" font-size="14.00">I18nModule</text>
</g>
<!-- I18nModule&#45;&gt;ConfiguratorOverviewBundleAttributeModule -->
<g id="edge3" class="edge">
<title>I18nModule&#45;&gt;ConfiguratorOverviewBundleAttributeModule</title>
<path fill="none" stroke="black" d="M504,-122.11C504,-122.11 504,-140.99 504,-140.99"/>
<polygon fill="black" stroke="black" points="500.5,-140.99 504,-150.99 507.5,-140.99 500.5,-140.99"/>
</g>
<!-- MediaModule -->
<g id="node5" class="node">
<title>MediaModule</title>
<polygon fill="#8dd3c7" stroke="black" points="443.81,-122 440.81,-126 419.81,-126 416.81,-122 348.19,-122 348.19,-86 443.81,-86 443.81,-122"/>
<text text-anchor="middle" x="396" y="-99.8" font-family="Times,serif" font-size="14.00">MediaModule</text>
</g>
<!-- MediaModule&#45;&gt;ConfiguratorOverviewBundleAttributeModule -->
<g id="edge4" class="edge">
<title>MediaModule&#45;&gt;ConfiguratorOverviewBundleAttributeModule</title>
<path fill="none" stroke="black" d="M396,-122.11C396,-122.11 396,-140.99 396,-140.99"/>
<polygon fill="black" stroke="black" points="392.5,-140.99 396,-150.99 399.5,-140.99 392.5,-140.99"/>
</g>
</g>
</svg>
