<?xml version="1.0" encoding="UTF-8" standalone="no"?>
<!DOCTYPE svg PUBLIC "-//W3C//DTD SVG 1.1//EN"
 "http://www.w3.org/Graphics/SVG/1.1/DTD/svg11.dtd">
<!-- Generated by graphviz version 2.47.3 (20210619.1520)
 -->
<!-- Title: dependencies Pages: 1 -->
<svg width="757pt" height="247pt"
 viewBox="0.00 0.00 757.00 246.80" xmlns="http://www.w3.org/2000/svg" xmlns:xlink="http://www.w3.org/1999/xlink">
<g id="graph0" class="graph" transform="scale(1 1) rotate(0) translate(4 242.8)">
<title>dependencies</title>
<polygon fill="white" stroke="transparent" points="-4,4 -4,-242.8 753,-242.8 753,4 -4,4"/>
<text text-anchor="middle" x="374.5" y="-8.2" font-family="sans-serif" font-size="14.00">dependencies</text>
<g id="clust1" class="cluster">
<title>cluster_ConfiguratorOverviewBundleAttributeModule</title>
<polygon fill="none" stroke="black" stroke-dasharray="1,5" points="8,-32.8 8,-230.8 741,-230.8 741,-32.8 8,-32.8"/>
</g>
<g id="clust4" class="cluster">
<title>cluster_ConfiguratorOverviewBundleAttributeModule_imports</title>
<polygon fill="none" stroke="black" points="340,-40.8 340,-92.8 733,-92.8 733,-40.8 340,-40.8"/>
</g>
<g id="clust2" class="cluster">
<title>cluster_ConfiguratorOverviewBundleAttributeModule_declarations</title>
<polygon fill="none" stroke="black" points="16,-40.8 16,-92.8 332,-92.8 332,-40.8 16,-40.8"/>
</g>
<g id="clust5" class="cluster">
<title>cluster_ConfiguratorOverviewBundleAttributeModule_exports</title>
<polygon fill="none" stroke="black" points="290,-170.8 290,-222.8 610,-222.8 610,-170.8 290,-170.8"/>
</g>
<!-- ConfiguratorOverviewBundleAttributeComponent -->
<g id="node1" class="node">
<title>ConfiguratorOverviewBundleAttributeComponent</title>
<polygon fill="#ffffb3" stroke="black" points="323.83,-84.8 24.17,-84.8 24.17,-48.8 323.83,-48.8 323.83,-84.8"/>
<text text-anchor="middle" x="174" y="-62.6" font-family="Times,serif" font-size="14.00">ConfiguratorOverviewBundleAttributeComponent</text>
</g>
<!-- ConfiguratorOverviewBundleAttributeModule -->
<g id="node2" class="node">
<title>ConfiguratorOverviewBundleAttributeModule</title>
<polygon fill="#8dd3c7" stroke="black" points="589.04,-149.8 586.04,-153.8 565.04,-153.8 562.04,-149.8 310.96,-149.8 310.96,-113.8 589.04,-113.8 589.04,-149.8"/>
<text text-anchor="middle" x="450" y="-127.6" font-family="Times,serif" font-size="14.00">ConfiguratorOverviewBundleAttributeModule</text>
</g>
<!-- ConfiguratorOverviewBundleAttributeComponent&#45;&gt;ConfiguratorOverviewBundleAttributeModule -->
<g id="edge1" class="edge">
<title>ConfiguratorOverviewBundleAttributeComponent&#45;&gt;ConfiguratorOverviewBundleAttributeModule</title>
<path fill="none" stroke="black" d="M317.45,-84.91C317.45,-84.91 317.45,-103.79 317.45,-103.79"/>
<polygon fill="black" stroke="black" points="313.95,-103.79 317.45,-113.79 320.95,-103.79 313.95,-103.79"/>
</g>
<!-- ConfiguratorOverviewBundleAttributeComponent  -->
<g id="node6" class="node">
<title>ConfiguratorOverviewBundleAttributeComponent </title>
<polygon fill="#fb8072" stroke="black" points="601.83,-214.8 298.17,-214.8 298.17,-178.8 601.83,-178.8 601.83,-214.8"/>
<text text-anchor="middle" x="450" y="-192.6" font-family="Times,serif" font-size="14.00">ConfiguratorOverviewBundleAttributeComponent </text>
</g>
<!-- ConfiguratorOverviewBundleAttributeModule&#45;&gt;ConfiguratorOverviewBundleAttributeComponent  -->
<g id="edge5" class="edge">
<title>ConfiguratorOverviewBundleAttributeModule&#45;&gt;ConfiguratorOverviewBundleAttributeComponent </title>
<path fill="none" stroke="black" stroke-dasharray="5,2" d="M450,-149.91C450,-149.91 450,-168.79 450,-168.79"/>
<polygon fill="black" stroke="black" points="446.5,-168.79 450,-178.79 453.5,-168.79 446.5,-168.79"/>
</g>
<!-- ConfiguratorPriceModule -->
<g id="node3" class="node">
<title>ConfiguratorPriceModule</title>
<polygon fill="#8dd3c7" stroke="black" points="725.13,-84.8 722.13,-88.8 701.13,-88.8 698.13,-84.8 564.87,-84.8 564.87,-48.8 725.13,-48.8 725.13,-84.8"/>
<text text-anchor="middle" x="645" y="-62.6" font-family="Times,serif" font-size="14.00">ConfiguratorPriceModule</text>
</g>
<!-- ConfiguratorPriceModule&#45;&gt;ConfiguratorOverviewBundleAttributeModule -->
<g id="edge2" class="edge">
<title>ConfiguratorPriceModule&#45;&gt;ConfiguratorOverviewBundleAttributeModule</title>
<path fill="none" stroke="black" d="M576.85,-84.91C576.85,-84.91 576.85,-103.79 576.85,-103.79"/>
<polygon fill="black" stroke="black" points="573.35,-103.79 576.85,-113.79 580.35,-103.79 573.35,-103.79"/>
</g>
<!-- I18nModule -->
<g id="node4" class="node">
<title>I18nModule</title>
<polygon fill="#8dd3c7" stroke="black" points="546.71,-84.8 543.71,-88.8 522.71,-88.8 519.71,-84.8 461.29,-84.8 461.29,-48.8 546.71,-48.8 546.71,-84.8"/>
<text text-anchor="middle" x="504" y="-62.6" font-family="Times,serif" font-size="14.00">I18nModule</text>
</g>
<!-- I18nModule&#45;&gt;ConfiguratorOverviewBundleAttributeModule -->
<g id="edge3" class="edge">
<title>I18nModule&#45;&gt;ConfiguratorOverviewBundleAttributeModule</title>
<path fill="none" stroke="black" d="M504,-84.91C504,-84.91 504,-103.79 504,-103.79"/>
<polygon fill="black" stroke="black" points="500.5,-103.79 504,-113.79 507.5,-103.79 500.5,-103.79"/>
</g>
<!-- MediaModule -->
<g id="node5" class="node">
<title>MediaModule</title>
<polygon fill="#8dd3c7" stroke="black" points="443.81,-84.8 440.81,-88.8 419.81,-88.8 416.81,-84.8 348.19,-84.8 348.19,-48.8 443.81,-48.8 443.81,-84.8"/>
<text text-anchor="middle" x="396" y="-62.6" font-family="Times,serif" font-size="14.00">MediaModule</text>
</g>
<!-- MediaModule&#45;&gt;ConfiguratorOverviewBundleAttributeModule -->
<g id="edge4" class="edge">
<title>MediaModule&#45;&gt;ConfiguratorOverviewBundleAttributeModule</title>
<path fill="none" stroke="black" d="M396,-84.91C396,-84.91 396,-103.79 396,-103.79"/>
<polygon fill="black" stroke="black" points="392.5,-103.79 396,-113.79 399.5,-103.79 392.5,-103.79"/>
</g>
</g>
</svg>
