<?xml version="1.0" encoding="UTF-8" standalone="no"?>
<!DOCTYPE svg PUBLIC "-//W3C//DTD SVG 1.1//EN"
 "http://www.w3.org/Graphics/SVG/1.1/DTD/svg11.dtd">
<!-- Generated by graphviz version 2.47.3 (20210619.1520)
 -->
<!-- Title: dependencies Pages: 1 -->
<svg width="583pt" height="247pt"
 viewBox="0.00 0.00 583.00 246.80" xmlns="http://www.w3.org/2000/svg" xmlns:xlink="http://www.w3.org/1999/xlink">
<g id="graph0" class="graph" transform="scale(1 1) rotate(0) translate(4 242.8)">
<title>dependencies</title>
<polygon fill="white" stroke="transparent" points="-4,4 -4,-242.8 579,-242.8 579,4 -4,4"/>
<text text-anchor="middle" x="287.5" y="-8.2" font-family="sans-serif" font-size="14.00">dependencies</text>
<g id="clust1" class="cluster">
<title>cluster_BulkPricingTableModule</title>
<polygon fill="none" stroke="black" stroke-dasharray="1,5" points="8,-32.8 8,-230.8 567,-230.8 567,-32.8 8,-32.8"/>
</g>
<g id="clust4" class="cluster">
<title>cluster_BulkPricingTableModule_imports</title>
<polygon fill="none" stroke="black" points="220,-40.8 220,-92.8 559,-92.8 559,-40.8 220,-40.8"/>
</g>
<g id="clust2" class="cluster">
<title>cluster_BulkPricingTableModule_declarations</title>
<polygon fill="none" stroke="black" points="16,-40.8 16,-92.8 212,-92.8 212,-40.8 16,-40.8"/>
</g>
<g id="clust5" class="cluster">
<title>cluster_BulkPricingTableModule_exports</title>
<polygon fill="none" stroke="black" points="236,-170.8 236,-222.8 436,-222.8 436,-170.8 236,-170.8"/>
</g>
<!-- BulkPricingTableComponent -->
<g id="node1" class="node">
<title>BulkPricingTableComponent</title>
<polygon fill="#ffffb3" stroke="black" points="204.37,-84.8 23.63,-84.8 23.63,-48.8 204.37,-48.8 204.37,-84.8"/>
<text text-anchor="middle" x="114" y="-62.6" font-family="Times,serif" font-size="14.00">BulkPricingTableComponent</text>
</g>
<!-- BulkPricingTableModule -->
<g id="node2" class="node">
<title>BulkPricingTableModule</title>
<polygon fill="#8dd3c7" stroke="black" points="415.59,-149.8 412.59,-153.8 391.59,-153.8 388.59,-149.8 256.41,-149.8 256.41,-113.8 415.59,-113.8 415.59,-149.8"/>
<text text-anchor="middle" x="336" y="-127.6" font-family="Times,serif" font-size="14.00">BulkPricingTableModule</text>
</g>
<!-- BulkPricingTableComponent&#45;&gt;BulkPricingTableModule -->
<g id="edge1" class="edge">
<title>BulkPricingTableComponent&#45;&gt;BulkPricingTableModule</title>
<path fill="none" stroke="black" d="M114,-84.91C114,-104.14 114,-131.8 114,-131.8 114,-131.8 246.17,-131.8 246.17,-131.8"/>
<polygon fill="black" stroke="black" points="246.17,-135.3 256.17,-131.8 246.17,-128.3 246.17,-135.3"/>
</g>
<!-- BulkPricingTableComponent  -->
<g id="node6" class="node">
<title>BulkPricingTableComponent </title>
<polygon fill="#fb8072" stroke="black" points="428.37,-214.8 243.63,-214.8 243.63,-178.8 428.37,-178.8 428.37,-214.8"/>
<text text-anchor="middle" x="336" y="-192.6" font-family="Times,serif" font-size="14.00">BulkPricingTableComponent </text>
</g>
<!-- BulkPricingTableModule&#45;&gt;BulkPricingTableComponent  -->
<g id="edge5" class="edge">
<title>BulkPricingTableModule&#45;&gt;BulkPricingTableComponent </title>
<path fill="none" stroke="black" stroke-dasharray="5,2" d="M336,-149.91C336,-149.91 336,-168.79 336,-168.79"/>
<polygon fill="black" stroke="black" points="332.5,-168.79 336,-178.79 339.5,-168.79 332.5,-168.79"/>
</g>
<!-- ConfigModule -->
<g id="node3" class="node">
<title>ConfigModule</title>
<polygon fill="#8dd3c7" stroke="black" points="551.44,-84.8 548.44,-88.8 527.44,-88.8 524.44,-84.8 452.56,-84.8 452.56,-48.8 551.44,-48.8 551.44,-84.8"/>
<text text-anchor="middle" x="502" y="-62.6" font-family="Times,serif" font-size="14.00">ConfigModule</text>
</g>
<!-- ConfigModule&#45;&gt;BulkPricingTableModule -->
<g id="edge2" class="edge">
<title>ConfigModule&#45;&gt;BulkPricingTableModule</title>
<path fill="none" stroke="black" d="M502,-84.91C502,-104.14 502,-131.8 502,-131.8 502,-131.8 425.6,-131.8 425.6,-131.8"/>
<polygon fill="black" stroke="black" points="425.6,-128.3 415.6,-131.8 425.6,-135.3 425.6,-128.3"/>
</g>
<!-- I18nModule -->
<g id="node4" class="node">
<title>I18nModule</title>
<polygon fill="#8dd3c7" stroke="black" points="434.71,-84.8 431.71,-88.8 410.71,-88.8 407.71,-84.8 349.29,-84.8 349.29,-48.8 434.71,-48.8 434.71,-84.8"/>
<text text-anchor="middle" x="392" y="-62.6" font-family="Times,serif" font-size="14.00">I18nModule</text>
</g>
<!-- I18nModule&#45;&gt;BulkPricingTableModule -->
<g id="edge3" class="edge">
<title>I18nModule&#45;&gt;BulkPricingTableModule</title>
<path fill="none" stroke="black" d="M382.47,-84.91C382.47,-84.91 382.47,-103.79 382.47,-103.79"/>
<polygon fill="black" stroke="black" points="378.97,-103.79 382.47,-113.79 385.97,-103.79 378.97,-103.79"/>
</g>
<!-- SpinnerModule -->
<g id="node5" class="node">
<title>SpinnerModule</title>
<polygon fill="#8dd3c7" stroke="black" points="331.6,-84.8 328.6,-88.8 307.6,-88.8 304.6,-84.8 228.4,-84.8 228.4,-48.8 331.6,-48.8 331.6,-84.8"/>
<text text-anchor="middle" x="280" y="-62.6" font-family="Times,serif" font-size="14.00">SpinnerModule</text>
</g>
<!-- SpinnerModule&#45;&gt;BulkPricingTableModule -->
<g id="edge4" class="edge">
<title>SpinnerModule&#45;&gt;BulkPricingTableModule</title>
<path fill="none" stroke="black" d="M294,-84.91C294,-84.91 294,-103.79 294,-103.79"/>
<polygon fill="black" stroke="black" points="290.5,-103.79 294,-113.79 297.5,-103.79 290.5,-103.79"/>
</g>
</g>
</svg>
