<?xml version="1.0" encoding="UTF-8" standalone="no"?>
<!DOCTYPE svg PUBLIC "-//W3C//DTD SVG 1.1//EN"
 "http://www.w3.org/Graphics/SVG/1.1/DTD/svg11.dtd">
<!-- Generated by graphviz version 2.40.1 (20161225.0304)
 -->
<!-- Title: dependencies Pages: 1 -->
<svg width="580pt" height="284pt"
 viewBox="0.00 0.00 580.00 284.00" xmlns="http://www.w3.org/2000/svg" xmlns:xlink="http://www.w3.org/1999/xlink">
<g id="graph0" class="graph" transform="scale(1 1) rotate(0) translate(4 280)">
<title>dependencies</title>
<polygon fill="#ffffff" stroke="transparent" points="-4,4 -4,-280 576,-280 576,4 -4,4"/>
<text text-anchor="start" x="265.0091" y="-42.4" font-family="sans-serif" font-weight="bold" font-size="14.00" fill="#000000">Legend</text>
<polygon fill="#ffffb3" stroke="transparent" points="52,-10 52,-30 72,-30 72,-10 52,-10"/>
<text text-anchor="start" x="75.629" y="-15.4" font-family="sans-serif" font-size="14.00" fill="#000000"> &#160;Declarations</text>
<polygon fill="#8dd3c7" stroke="transparent" points="165,-10 165,-30 185,-30 185,-10 165,-10"/>
<text text-anchor="start" x="188.7251" y="-15.4" font-family="sans-serif" font-size="14.00" fill="#000000"> &#160;Module</text>
<polygon fill="#80b1d3" stroke="transparent" points="251,-10 251,-30 271,-30 271,-10 251,-10"/>
<text text-anchor="start" x="274.7812" y="-15.4" font-family="sans-serif" font-size="14.00" fill="#000000"> &#160;Bootstrap</text>
<polygon fill="#fdb462" stroke="transparent" points="348,-10 348,-30 368,-30 368,-10 348,-10"/>
<text text-anchor="start" x="371.6732" y="-15.4" font-family="sans-serif" font-size="14.00" fill="#000000"> &#160;Providers</text>
<polygon fill="#fb8072" stroke="transparent" points="444,-10 444,-30 464,-30 464,-10 444,-10"/>
<text text-anchor="start" x="467.7258" y="-15.4" font-family="sans-serif" font-size="14.00" fill="#000000"> &#160;Exports</text>
<g id="clust1" class="cluster">
<title>cluster_PaymentDetailsPageModule</title>
<polygon fill="none" stroke="#000000" stroke-dasharray="1,5" points="8,-70 8,-268 564,-268 564,-70 8,-70"/>
</g>
<g id="clust2" class="cluster">
<title>cluster_PaymentDetailsPageModule_declarations</title>
<polygon fill="none" stroke="#000000" points="342,-78 342,-130 556,-130 556,-78 342,-78"/>
</g>
<g id="clust4" class="cluster">
<title>cluster_PaymentDetailsPageModule_imports</title>
<polygon fill="none" stroke="#000000" points="16,-78 16,-130 334,-130 334,-78 16,-78"/>
</g>
<g id="clust5" class="cluster">
<title>cluster_PaymentDetailsPageModule_exports</title>
<polygon fill="none" stroke="#000000" points="155,-208 155,-260 371,-260 371,-208 155,-208"/>
</g>
<!-- PaymentDetailsPageComponent -->
<g id="node1" class="node">
<title>PaymentDetailsPageComponent</title>
<polygon fill="#ffffb3" stroke="#000000" points="547.6895,-122 350.3105,-122 350.3105,-86 547.6895,-86 547.6895,-122"/>
<text text-anchor="middle" x="449" y="-99.8" font-family="Times,serif" font-size="14.00" fill="#000000">PaymentDetailsPageComponent</text>
</g>
<!-- PaymentDetailsPageModule -->
<g id="node2" class="node">
<title>PaymentDetailsPageModule</title>
<polygon fill="#8dd3c7" stroke="#000000" points="350.9073,-187 347.9073,-191 326.9073,-191 323.9073,-187 175.0927,-187 175.0927,-151 350.9073,-151 350.9073,-187"/>
<text text-anchor="middle" x="263" y="-164.8" font-family="Times,serif" font-size="14.00" fill="#000000">PaymentDetailsPageModule</text>
</g>
<!-- PaymentDetailsPageComponent&#45;&gt;PaymentDetailsPageModule -->
<g id="edge1" class="edge">
<title>PaymentDetailsPageComponent&#45;&gt;PaymentDetailsPageModule</title>
<path fill="none" stroke="#000000" d="M357.0241,-122.1061C357.0241,-141.3391 357.0241,-169 357.0241,-169 357.0241,-169 356.4071,-169 356.4071,-169"/>
<polygon fill="#000000" stroke="#000000" points="360.8549,-165.5002 350.8549,-169 360.8548,-172.5002 360.8549,-165.5002"/>
</g>
<!-- PaymentDetailsPageComponent  -->
<g id="node5" class="node">
<title>PaymentDetailsPageComponent </title>
<polygon fill="#fb8072" stroke="#000000" points="363.1896,-252 162.8104,-252 162.8104,-216 363.1896,-216 363.1896,-252"/>
<text text-anchor="middle" x="263" y="-229.8" font-family="Times,serif" font-size="14.00" fill="#000000">PaymentDetailsPageComponent </text>
</g>
<!-- PaymentDetailsPageModule&#45;&gt;PaymentDetailsPageComponent  -->
<g id="edge4" class="edge">
<title>PaymentDetailsPageModule&#45;&gt;PaymentDetailsPageComponent </title>
<path fill="none" stroke="#000000" stroke-dasharray="5,2" d="M263,-187.1061C263,-187.1061 263,-205.991 263,-205.991"/>
<polygon fill="#000000" stroke="#000000" points="259.5001,-205.9909 263,-215.991 266.5001,-205.991 259.5001,-205.9909"/>
</g>
<!-- PageLayoutModule -->
<g id="node3" class="node">
<title>PageLayoutModule</title>
<polygon fill="#8dd3c7" stroke="#000000" points="326.4201,-122 323.4201,-126 302.4201,-126 299.4201,-122 199.5799,-122 199.5799,-86 326.4201,-86 326.4201,-122"/>
<text text-anchor="middle" x="263" y="-99.8" font-family="Times,serif" font-size="14.00" fill="#000000">PageLayoutModule</text>
</g>
<!-- PageLayoutModule&#45;&gt;PaymentDetailsPageModule -->
<g id="edge2" class="edge">
<title>PageLayoutModule&#45;&gt;PaymentDetailsPageModule</title>
<path fill="none" stroke="#000000" d="M263,-122.1061C263,-122.1061 263,-140.991 263,-140.991"/>
<polygon fill="#000000" stroke="#000000" points="259.5001,-140.9909 263,-150.991 266.5001,-140.991 259.5001,-140.9909"/>
</g>
<!-- PaymentMethodsModule -->
<g id="node4" class="node">
<title>PaymentMethodsModule</title>
<polygon fill="#8dd3c7" stroke="#000000" points="181.5379,-122 178.5379,-126 157.5379,-126 154.5379,-122 24.4621,-122 24.4621,-86 181.5379,-86 181.5379,-122"/>
<text text-anchor="middle" x="103" y="-99.8" font-family="Times,serif" font-size="14.00" fill="#000000">PaymentMethodsModule</text>
</g>
<!-- PaymentMethodsModule&#45;&gt;PaymentDetailsPageModule -->
<g id="edge3" class="edge">
<title>PaymentMethodsModule&#45;&gt;PaymentDetailsPageModule</title>
<path fill="none" stroke="#000000" d="M168.976,-122.1061C168.976,-141.3391 168.976,-169 168.976,-169 168.976,-169 169.5929,-169 169.5929,-169"/>
<polygon fill="#000000" stroke="#000000" points="165.1452,-172.5002 175.1451,-169 165.1451,-165.5002 165.1452,-172.5002"/>
</g>
</g>
</svg>
