<?xml version="1.0" encoding="UTF-8" standalone="no"?>
<!DOCTYPE svg PUBLIC "-//W3C//DTD SVG 1.1//EN"
 "http://www.w3.org/Graphics/SVG/1.1/DTD/svg11.dtd">
<!-- Generated by graphviz version 2.47.3 (20210619.1520)
 -->
<!-- Title: dependencies Pages: 1 -->
<svg width="192pt" height="174pt"
 viewBox="0.00 0.00 192.00 173.80" xmlns="http://www.w3.org/2000/svg" xmlns:xlink="http://www.w3.org/1999/xlink">
<g id="graph0" class="graph" transform="scale(1 1) rotate(0) translate(4 169.8)">
<title>dependencies</title>
<polygon fill="white" stroke="transparent" points="-4,4 -4,-169.8 188,-169.8 188,4 -4,4"/>
<text text-anchor="middle" x="92" y="-8.2" font-family="sans-serif" font-size="14.00">dependencies</text>
<g id="clust1" class="cluster">
<title>cluster_DigitalPaymentsModule</title>
<polygon fill="none" stroke="black" stroke-dasharray="1,5" points="8,-32.8 8,-157.8 176,-157.8 176,-32.8 8,-32.8"/>
</g>
<g id="clust3" class="cluster">
<title>cluster_DigitalPaymentsModule_imports</title>
<polygon fill="none" stroke="black" points="19,-40.8 19,-92.8 165,-92.8 165,-40.8 19,-40.8"/>
</g>
<!-- DpCheckoutModule -->
<g id="node1" class="node">
<title>DpCheckoutModule</title>
<polygon fill="#8dd3c7" stroke="black" points="157.31,-84.8 154.31,-88.8 133.31,-88.8 130.31,-84.8 26.69,-84.8 26.69,-48.8 157.31,-48.8 157.31,-84.8"/>
<text text-anchor="middle" x="92" y="-62.6" font-family="Times,serif" font-size="14.00">DpCheckoutModule</text>
</g>
<!-- DigitalPaymentsModule -->
<g id="node2" class="node">
<title>DigitalPaymentsModule</title>
<polygon fill="#8dd3c7" stroke="black" points="168.37,-149.8 165.37,-153.8 144.37,-153.8 141.37,-149.8 15.63,-149.8 15.63,-113.8 168.37,-113.8 168.37,-149.8"/>
<text text-anchor="middle" x="92" y="-127.6" font-family="Times,serif" font-size="14.00">DigitalPaymentsModule</text>
</g>
<!-- DpCheckoutModule&#45;&gt;DigitalPaymentsModule -->
<g id="edge1" class="edge">
<title>DpCheckoutModule&#45;&gt;DigitalPaymentsModule</title>
<path fill="none" stroke="black" d="M92,-84.91C92,-84.91 92,-103.79 92,-103.79"/>
<polygon fill="black" stroke="black" points="88.5,-103.79 92,-113.79 95.5,-103.79 88.5,-103.79"/>
</g>
</g>
</svg>
