<?xml version="1.0" encoding="UTF-8" standalone="no"?>
<!DOCTYPE svg PUBLIC "-//W3C//DTD SVG 1.1//EN"
 "http://www.w3.org/Graphics/SVG/1.1/DTD/svg11.dtd">
<!-- Generated by graphviz version 2.47.0 (20210316.0004)
 -->
<!-- Title: dependencies Pages: 1 -->
<svg width="632pt" height="211pt"
 viewBox="0.00 0.00 632.00 211.00" xmlns="http://www.w3.org/2000/svg" xmlns:xlink="http://www.w3.org/1999/xlink">
<g id="graph0" class="graph" transform="scale(1 1) rotate(0) translate(4 207)">
<title>dependencies</title>
<polygon fill="white" stroke="transparent" points="-4,4 -4,-207 628,-207 628,4 -4,4"/>
<text text-anchor="start" x="291.01" y="-42.4" font-family="sans-serif" font-weight="bold" font-size="14.00">Legend</text>
<polygon fill="#ffffb3" stroke="transparent" points="78,-10 78,-30 98,-30 98,-10 78,-10"/>
<text text-anchor="start" x="101.63" y="-15.4" font-family="sans-serif" font-size="14.00"> &#160;Declarations</text>
<polygon fill="#8dd3c7" stroke="transparent" points="191,-10 191,-30 211,-30 211,-10 191,-10"/>
<text text-anchor="start" x="214.73" y="-15.4" font-family="sans-serif" font-size="14.00"> &#160;Module</text>
<polygon fill="#80b1d3" stroke="transparent" points="277,-10 277,-30 297,-30 297,-10 277,-10"/>
<text text-anchor="start" x="300.78" y="-15.4" font-family="sans-serif" font-size="14.00"> &#160;Bootstrap</text>
<polygon fill="#fdb462" stroke="transparent" points="374,-10 374,-30 394,-30 394,-10 374,-10"/>
<text text-anchor="start" x="397.67" y="-15.4" font-family="sans-serif" font-size="14.00"> &#160;Providers</text>
<polygon fill="#fb8072" stroke="transparent" points="470,-10 470,-30 490,-30 490,-10 470,-10"/>
<text text-anchor="start" x="493.73" y="-15.4" font-family="sans-serif" font-size="14.00"> &#160;Exports</text>
<g id="clust1" class="cluster">
<title>cluster_NotificationMessageModule</title>
<polygon fill="none" stroke="black" stroke-dasharray="1,5" points="8,-70 8,-195 616,-195 616,-70 8,-70"/>
</g>
<g id="clust2" class="cluster">
<title>cluster_NotificationMessageModule_declarations</title>
<polygon fill="none" stroke="black" points="394,-78 394,-130 608,-130 608,-78 394,-78"/>
</g>
<g id="clust4" class="cluster">
<title>cluster_NotificationMessageModule_imports</title>
<polygon fill="none" stroke="black" points="16,-78 16,-130 386,-130 386,-78 16,-78"/>
</g>
<!-- NotificationMessageComponent -->
<g id="node1" class="node">
<title>NotificationMessageComponent</title>
<polygon fill="#ffffb3" stroke="black" points="599.96,-122 402.04,-122 402.04,-86 599.96,-86 599.96,-122"/>
<text text-anchor="middle" x="501" y="-99.8" font-family="Times,serif" font-size="14.00">NotificationMessageComponent</text>
</g>
<!-- NotificationMessageModule -->
<g id="node2" class="node">
<title>NotificationMessageModule</title>
<polygon fill="#8dd3c7" stroke="black" points="371.18,-187 368.18,-191 347.18,-191 344.18,-187 194.82,-187 194.82,-151 371.18,-151 371.18,-187"/>
<text text-anchor="middle" x="283" y="-164.8" font-family="Times,serif" font-size="14.00">NotificationMessageModule</text>
</g>
<!-- NotificationMessageComponent&#45;&gt;NotificationMessageModule -->
<g id="edge1" class="edge">
<title>NotificationMessageComponent&#45;&gt;NotificationMessageModule</title>
<path fill="none" stroke="black" d="M501,-122.11C501,-141.34 501,-169 501,-169 501,-169 381.35,-169 381.35,-169"/>
<polygon fill="black" stroke="black" points="381.35,-165.5 371.35,-169 381.35,-172.5 381.35,-165.5"/>
</g>
<!-- I18nModule -->
<g id="node3" class="node">
<title>I18nModule</title>
<polygon fill="#8dd3c7" stroke="black" points="377.71,-122 374.71,-126 353.71,-126 350.71,-122 292.29,-122 292.29,-86 377.71,-86 377.71,-122"/>
<text text-anchor="middle" x="335" y="-99.8" font-family="Times,serif" font-size="14.00">I18nModule</text>
</g>
<!-- I18nModule&#45;&gt;NotificationMessageModule -->
<g id="edge2" class="edge">
<title>I18nModule&#45;&gt;NotificationMessageModule</title>
<path fill="none" stroke="black" d="M331.74,-122.11C331.74,-122.11 331.74,-140.99 331.74,-140.99"/>
<polygon fill="black" stroke="black" points="328.24,-140.99 331.74,-150.99 335.24,-140.99 328.24,-140.99"/>
</g>
<!-- IconModule -->
<g id="node4" class="node">
<title>IconModule</title>
<polygon fill="#8dd3c7" stroke="black" points="274.43,-122 271.43,-126 250.43,-126 247.43,-122 189.57,-122 189.57,-86 274.43,-86 274.43,-122"/>
<text text-anchor="middle" x="232" y="-99.8" font-family="Times,serif" font-size="14.00">IconModule</text>
</g>
<!-- IconModule&#45;&gt;NotificationMessageModule -->
<g id="edge3" class="edge">
<title>IconModule&#45;&gt;NotificationMessageModule</title>
<path fill="none" stroke="black" d="M234.56,-122.11C234.56,-122.11 234.56,-140.99 234.56,-140.99"/>
<polygon fill="black" stroke="black" points="231.06,-140.99 234.56,-150.99 238.06,-140.99 231.06,-140.99"/>
</g>
<!-- KeyboardFocusModule -->
<g id="node5" class="node">
<title>KeyboardFocusModule</title>
<polygon fill="#8dd3c7" stroke="black" points="172.19,-122 169.19,-126 148.19,-126 145.19,-122 23.81,-122 23.81,-86 172.19,-86 172.19,-122"/>
<text text-anchor="middle" x="98" y="-99.8" font-family="Times,serif" font-size="14.00">KeyboardFocusModule</text>
</g>
<!-- KeyboardFocusModule&#45;&gt;NotificationMessageModule -->
<g id="edge4" class="edge">
<title>KeyboardFocusModule&#45;&gt;NotificationMessageModule</title>
<path fill="none" stroke="black" d="M98,-122.11C98,-141.34 98,-169 98,-169 98,-169 184.83,-169 184.83,-169"/>
<polygon fill="black" stroke="black" points="184.83,-172.5 194.83,-169 184.83,-165.5 184.83,-172.5"/>
</g>
</g>
</svg>
