<?xml version="1.0" encoding="UTF-8" standalone="no"?>
<!DOCTYPE svg PUBLIC "-//W3C//DTD SVG 1.1//EN"
 "http://www.w3.org/Graphics/SVG/1.1/DTD/svg11.dtd">
<!-- Generated by graphviz version 2.46.0 (20210119.1425)
 -->
<!-- Title: dependencies Pages: 1 -->
<svg width="632pt" height="211pt"
 viewBox="0.00 0.00 632.00 211.00" xmlns="http://www.w3.org/2000/svg" xmlns:xlink="http://www.w3.org/1999/xlink">
<g id="graph0" class="graph" transform="scale(1 1) rotate(0) translate(4 207)">
<title>dependencies</title>
<polygon fill="white" stroke="transparent" points="-4,4 -4,-207 628,-207 628,4 -4,4"/>
<text text-anchor="start" x="291.01" y="-42.4" font-family="sans-serif" font-weight="bold" font-size="14.00">Legend</text>
<polygon fill="#ffffb3" stroke="transparent" points="78,-10 78,-30 98,-30 98,-10 78,-10"/>
<text text-anchor="start" x="101.63" y="-15.4" font-family="sans-serif" font-size="14.00"> &#160;Declarations</text>
<polygon fill="#8dd3c7" stroke="transparent" points="191,-10 191,-30 211,-30 211,-10 191,-10"/>
<text text-anchor="start" x="214.73" y="-15.4" font-family="sans-serif" font-size="14.00"> &#160;Module</text>
<polygon fill="#80b1d3" stroke="transparent" points="277,-10 277,-30 297,-30 297,-10 277,-10"/>
<text text-anchor="start" x="300.78" y="-15.4" font-family="sans-serif" font-size="14.00"> &#160;Bootstrap</text>
<polygon fill="#fdb462" stroke="transparent" points="374,-10 374,-30 394,-30 394,-10 374,-10"/>
<text text-anchor="start" x="397.67" y="-15.4" font-family="sans-serif" font-size="14.00"> &#160;Providers</text>
<polygon fill="#fb8072" stroke="transparent" points="470,-10 470,-30 490,-30 490,-10 470,-10"/>
<text text-anchor="start" x="493.73" y="-15.4" font-family="sans-serif" font-size="14.00"> &#160;Exports</text>
<g id="clust1" class="cluster">
<title>cluster_NotificationMessageModule</title>
<polygon fill="none" stroke="black" stroke-dasharray="1,5" points="8,-70 8,-195 616,-195 616,-70 8,-70"/>
</g>
<g id="clust4" class="cluster">
<title>cluster_NotificationMessageModule_imports</title>
<polygon fill="none" stroke="black" points="238,-78 238,-130 608,-130 608,-78 238,-78"/>
</g>
<g id="clust2" class="cluster">
<title>cluster_NotificationMessageModule_declarations</title>
<polygon fill="none" stroke="black" points="16,-78 16,-130 230,-130 230,-78 16,-78"/>
</g>
<!-- NotificationMessageComponent -->
<g id="node1" class="node">
<title>NotificationMessageComponent</title>
<polygon fill="#ffffb3" stroke="black" points="221.96,-122 24.04,-122 24.04,-86 221.96,-86 221.96,-122"/>
<text text-anchor="middle" x="123" y="-99.8" font-family="Times,serif" font-size="14.00">NotificationMessageComponent</text>
</g>
<!-- NotificationMessageModule -->
<g id="node2" class="node">
<title>NotificationMessageModule</title>
<polygon fill="#8dd3c7" stroke="black" points="475.18,-187 472.18,-191 451.18,-191 448.18,-187 298.82,-187 298.82,-151 475.18,-151 475.18,-187"/>
<text text-anchor="middle" x="387" y="-164.8" font-family="Times,serif" font-size="14.00">NotificationMessageModule</text>
</g>
<!-- NotificationMessageComponent&#45;&gt;NotificationMessageModule -->
<g id="edge1" class="edge">
<title>NotificationMessageComponent&#45;&gt;NotificationMessageModule</title>
<path fill="none" stroke="black" d="M123,-122.11C123,-141.34 123,-169 123,-169 123,-169 288.72,-169 288.72,-169"/>
<polygon fill="black" stroke="black" points="288.72,-172.5 298.72,-169 288.72,-165.5 288.72,-172.5"/>
</g>
<!-- I18nModule -->
<g id="node3" class="node">
<title>I18nModule</title>
<polygon fill="#8dd3c7" stroke="black" points="599.71,-122 596.71,-126 575.71,-126 572.71,-122 514.29,-122 514.29,-86 599.71,-86 599.71,-122"/>
<text text-anchor="middle" x="557" y="-99.8" font-family="Times,serif" font-size="14.00">I18nModule</text>
</g>
<!-- I18nModule&#45;&gt;NotificationMessageModule -->
<g id="edge2" class="edge">
<title>I18nModule&#45;&gt;NotificationMessageModule</title>
<path fill="none" stroke="black" d="M557,-122.11C557,-141.34 557,-169 557,-169 557,-169 485.49,-169 485.49,-169"/>
<polygon fill="black" stroke="black" points="485.49,-165.5 475.49,-169 485.49,-172.5 485.49,-165.5"/>
</g>
<!-- IconModule -->
<g id="node4" class="node">
<title>IconModule</title>
<polygon fill="#8dd3c7" stroke="black" points="496.43,-122 493.43,-126 472.43,-126 469.43,-122 411.57,-122 411.57,-86 496.43,-86 496.43,-122"/>
<text text-anchor="middle" x="454" y="-99.8" font-family="Times,serif" font-size="14.00">IconModule</text>
</g>
<!-- IconModule&#45;&gt;NotificationMessageModule -->
<g id="edge3" class="edge">
<title>IconModule&#45;&gt;NotificationMessageModule</title>
<path fill="none" stroke="black" d="M443.44,-122.11C443.44,-122.11 443.44,-140.99 443.44,-140.99"/>
<polygon fill="black" stroke="black" points="439.94,-140.99 443.44,-150.99 446.94,-140.99 439.94,-140.99"/>
</g>
<!-- KeyboardFocusModule -->
<g id="node5" class="node">
<title>KeyboardFocusModule</title>
<polygon fill="#8dd3c7" stroke="black" points="394.19,-122 391.19,-126 370.19,-126 367.19,-122 245.81,-122 245.81,-86 394.19,-86 394.19,-122"/>
<text text-anchor="middle" x="320" y="-99.8" font-family="Times,serif" font-size="14.00">KeyboardFocusModule</text>
</g>
<!-- KeyboardFocusModule&#45;&gt;NotificationMessageModule -->
<g id="edge4" class="edge">
<title>KeyboardFocusModule&#45;&gt;NotificationMessageModule</title>
<path fill="none" stroke="black" d="M346.5,-122.11C346.5,-122.11 346.5,-140.99 346.5,-140.99"/>
<polygon fill="black" stroke="black" points="343,-140.99 346.5,-150.99 350,-140.99 343,-140.99"/>
</g>
</g>
</svg>
