<?xml version="1.0" encoding="UTF-8" standalone="no"?>
<!DOCTYPE svg PUBLIC "-//W3C//DTD SVG 1.1//EN"
 "http://www.w3.org/Graphics/SVG/1.1/DTD/svg11.dtd">
<!-- Generated by graphviz version 2.47.3 (20210619.1520)
 -->
<!-- Title: dependencies Pages: 1 -->
<svg width="632pt" height="174pt"
 viewBox="0.00 0.00 632.00 173.80" xmlns="http://www.w3.org/2000/svg" xmlns:xlink="http://www.w3.org/1999/xlink">
<g id="graph0" class="graph" transform="scale(1 1) rotate(0) translate(4 169.8)">
<title>dependencies</title>
<polygon fill="white" stroke="transparent" points="-4,4 -4,-169.8 628,-169.8 628,4 -4,4"/>
<text text-anchor="middle" x="312" y="-8.2" font-family="sans-serif" font-size="14.00">dependencies</text>
<g id="clust1" class="cluster">
<title>cluster_NotificationMessageModule</title>
<polygon fill="none" stroke="black" stroke-dasharray="1,5" points="8,-32.8 8,-157.8 616,-157.8 616,-32.8 8,-32.8"/>
</g>
<g id="clust2" class="cluster">
<title>cluster_NotificationMessageModule_declarations</title>
<polygon fill="none" stroke="black" points="394,-40.8 394,-92.8 608,-92.8 608,-40.8 394,-40.8"/>
</g>
<g id="clust4" class="cluster">
<title>cluster_NotificationMessageModule_imports</title>
<polygon fill="none" stroke="black" points="16,-40.8 16,-92.8 386,-92.8 386,-40.8 16,-40.8"/>
</g>
<!-- NotificationMessageComponent -->
<g id="node1" class="node">
<title>NotificationMessageComponent</title>
<polygon fill="#ffffb3" stroke="black" points="599.96,-84.8 402.04,-84.8 402.04,-48.8 599.96,-48.8 599.96,-84.8"/>
<text text-anchor="middle" x="501" y="-62.6" font-family="Times,serif" font-size="14.00">NotificationMessageComponent</text>
</g>
<!-- NotificationMessageModule -->
<g id="node2" class="node">
<title>NotificationMessageModule</title>
<polygon fill="#8dd3c7" stroke="black" points="371.18,-149.8 368.18,-153.8 347.18,-153.8 344.18,-149.8 194.82,-149.8 194.82,-113.8 371.18,-113.8 371.18,-149.8"/>
<text text-anchor="middle" x="283" y="-127.6" font-family="Times,serif" font-size="14.00">NotificationMessageModule</text>
</g>
<!-- NotificationMessageComponent&#45;&gt;NotificationMessageModule -->
<g id="edge1" class="edge">
<title>NotificationMessageComponent&#45;&gt;NotificationMessageModule</title>
<path fill="none" stroke="black" d="M501,-84.91C501,-104.14 501,-131.8 501,-131.8 501,-131.8 381.35,-131.8 381.35,-131.8"/>
<polygon fill="black" stroke="black" points="381.35,-128.3 371.35,-131.8 381.35,-135.3 381.35,-128.3"/>
</g>
<!-- I18nModule -->
<g id="node3" class="node">
<title>I18nModule</title>
<polygon fill="#8dd3c7" stroke="black" points="377.71,-84.8 374.71,-88.8 353.71,-88.8 350.71,-84.8 292.29,-84.8 292.29,-48.8 377.71,-48.8 377.71,-84.8"/>
<text text-anchor="middle" x="335" y="-62.6" font-family="Times,serif" font-size="14.00">I18nModule</text>
</g>
<!-- I18nModule&#45;&gt;NotificationMessageModule -->
<g id="edge2" class="edge">
<title>I18nModule&#45;&gt;NotificationMessageModule</title>
<path fill="none" stroke="black" d="M331.74,-84.91C331.74,-84.91 331.74,-103.79 331.74,-103.79"/>
<polygon fill="black" stroke="black" points="328.24,-103.79 331.74,-113.79 335.24,-103.79 328.24,-103.79"/>
</g>
<!-- IconModule -->
<g id="node4" class="node">
<title>IconModule</title>
<polygon fill="#8dd3c7" stroke="black" points="274.43,-84.8 271.43,-88.8 250.43,-88.8 247.43,-84.8 189.57,-84.8 189.57,-48.8 274.43,-48.8 274.43,-84.8"/>
<text text-anchor="middle" x="232" y="-62.6" font-family="Times,serif" font-size="14.00">IconModule</text>
</g>
<!-- IconModule&#45;&gt;NotificationMessageModule -->
<g id="edge3" class="edge">
<title>IconModule&#45;&gt;NotificationMessageModule</title>
<path fill="none" stroke="black" d="M234.56,-84.91C234.56,-84.91 234.56,-103.79 234.56,-103.79"/>
<polygon fill="black" stroke="black" points="231.06,-103.79 234.56,-113.79 238.06,-103.79 231.06,-103.79"/>
</g>
<!-- KeyboardFocusModule -->
<g id="node5" class="node">
<title>KeyboardFocusModule</title>
<polygon fill="#8dd3c7" stroke="black" points="172.19,-84.8 169.19,-88.8 148.19,-88.8 145.19,-84.8 23.81,-84.8 23.81,-48.8 172.19,-48.8 172.19,-84.8"/>
<text text-anchor="middle" x="98" y="-62.6" font-family="Times,serif" font-size="14.00">KeyboardFocusModule</text>
</g>
<!-- KeyboardFocusModule&#45;&gt;NotificationMessageModule -->
<g id="edge4" class="edge">
<title>KeyboardFocusModule&#45;&gt;NotificationMessageModule</title>
<path fill="none" stroke="black" d="M98,-84.91C98,-104.14 98,-131.8 98,-131.8 98,-131.8 184.83,-131.8 184.83,-131.8"/>
<polygon fill="black" stroke="black" points="184.83,-135.3 194.83,-131.8 184.83,-128.3 184.83,-135.3"/>
</g>
</g>
</svg>
