<?xml version="1.0" encoding="UTF-8" standalone="no"?>
<!DOCTYPE svg PUBLIC "-//W3C//DTD SVG 1.1//EN"
 "http://www.w3.org/Graphics/SVG/1.1/DTD/svg11.dtd">
<!-- Generated by graphviz version 2.47.0 (20210316.0004)
 -->
<!-- Title: dependencies Pages: 1 -->
<svg width="558pt" height="284pt"
 viewBox="0.00 0.00 558.00 284.00" xmlns="http://www.w3.org/2000/svg" xmlns:xlink="http://www.w3.org/1999/xlink">
<g id="graph0" class="graph" transform="scale(1 1) rotate(0) translate(4 280)">
<title>dependencies</title>
<polygon fill="white" stroke="transparent" points="-4,4 -4,-280 554,-280 554,4 -4,4"/>
<text text-anchor="start" x="254.01" y="-42.4" font-family="sans-serif" font-weight="bold" font-size="14.00">Legend</text>
<polygon fill="#ffffb3" stroke="transparent" points="41,-10 41,-30 61,-30 61,-10 41,-10"/>
<text text-anchor="start" x="64.63" y="-15.4" font-family="sans-serif" font-size="14.00"> &#160;Declarations</text>
<polygon fill="#8dd3c7" stroke="transparent" points="154,-10 154,-30 174,-30 174,-10 154,-10"/>
<text text-anchor="start" x="177.73" y="-15.4" font-family="sans-serif" font-size="14.00"> &#160;Module</text>
<polygon fill="#80b1d3" stroke="transparent" points="240,-10 240,-30 260,-30 260,-10 240,-10"/>
<text text-anchor="start" x="263.78" y="-15.4" font-family="sans-serif" font-size="14.00"> &#160;Bootstrap</text>
<polygon fill="#fdb462" stroke="transparent" points="337,-10 337,-30 357,-30 357,-10 337,-10"/>
<text text-anchor="start" x="360.67" y="-15.4" font-family="sans-serif" font-size="14.00"> &#160;Providers</text>
<polygon fill="#fb8072" stroke="transparent" points="433,-10 433,-30 453,-30 453,-10 433,-10"/>
<text text-anchor="start" x="456.73" y="-15.4" font-family="sans-serif" font-size="14.00"> &#160;Exports</text>
<g id="clust1" class="cluster">
<title>cluster_AddToSavedCartModule</title>
<polygon fill="none" stroke="black" stroke-dasharray="1,5" points="8,-70 8,-268 542,-268 542,-70 8,-70"/>
</g>
<g id="clust2" class="cluster">
<title>cluster_AddToSavedCartModule_declarations</title>
<polygon fill="none" stroke="black" points="338,-78 338,-130 534,-130 534,-78 338,-78"/>
</g>
<g id="clust5" class="cluster">
<title>cluster_AddToSavedCartModule_exports</title>
<polygon fill="none" stroke="black" points="119,-208 119,-260 317,-260 317,-208 119,-208"/>
</g>
<g id="clust4" class="cluster">
<title>cluster_AddToSavedCartModule_imports</title>
<polygon fill="none" stroke="black" points="16,-78 16,-130 330,-130 330,-78 16,-78"/>
</g>
<!-- AddToSavedCartComponent -->
<g id="node1" class="node">
<title>AddToSavedCartComponent</title>
<polygon fill="#ffffb3" stroke="black" points="525.81,-122 346.19,-122 346.19,-86 525.81,-86 525.81,-122"/>
<text text-anchor="middle" x="436" y="-99.8" font-family="Times,serif" font-size="14.00">AddToSavedCartComponent</text>
</g>
<!-- AddToSavedCartModule -->
<g id="node2" class="node">
<title>AddToSavedCartModule</title>
<polygon fill="#8dd3c7" stroke="black" points="296.52,-187 293.52,-191 272.52,-191 269.52,-187 139.48,-187 139.48,-151 296.52,-151 296.52,-187"/>
<text text-anchor="middle" x="218" y="-164.8" font-family="Times,serif" font-size="14.00">AddToSavedCartModule</text>
</g>
<!-- AddToSavedCartComponent&#45;&gt;AddToSavedCartModule -->
<g id="edge1" class="edge">
<title>AddToSavedCartComponent&#45;&gt;AddToSavedCartModule</title>
<path fill="none" stroke="black" d="M436,-122.11C436,-141.34 436,-169 436,-169 436,-169 306.7,-169 306.7,-169"/>
<polygon fill="black" stroke="black" points="306.7,-165.5 296.7,-169 306.7,-172.5 306.7,-165.5"/>
</g>
<!-- AddToSavedCartComponent  -->
<g id="node6" class="node">
<title>AddToSavedCartComponent </title>
<polygon fill="#fb8072" stroke="black" points="309.31,-252 126.69,-252 126.69,-216 309.31,-216 309.31,-252"/>
<text text-anchor="middle" x="218" y="-229.8" font-family="Times,serif" font-size="14.00">AddToSavedCartComponent </text>
</g>
<!-- AddToSavedCartModule&#45;&gt;AddToSavedCartComponent  -->
<g id="edge5" class="edge">
<title>AddToSavedCartModule&#45;&gt;AddToSavedCartComponent </title>
<path fill="none" stroke="black" stroke-dasharray="5,2" d="M218,-187.11C218,-187.11 218,-205.99 218,-205.99"/>
<polygon fill="black" stroke="black" points="214.5,-205.99 218,-215.99 221.5,-205.99 214.5,-205.99"/>
</g>
<!-- ConfigModule -->
<g id="node3" class="node">
<title>ConfigModule</title>
<polygon fill="#8dd3c7" stroke="black" points="322.44,-122 319.44,-126 298.44,-126 295.44,-122 223.56,-122 223.56,-86 322.44,-86 322.44,-122"/>
<text text-anchor="middle" x="273" y="-99.8" font-family="Times,serif" font-size="14.00">ConfigModule</text>
</g>
<!-- ConfigModule&#45;&gt;AddToSavedCartModule -->
<g id="edge2" class="edge">
<title>ConfigModule&#45;&gt;AddToSavedCartModule</title>
<path fill="none" stroke="black" d="M260.27,-122.11C260.27,-122.11 260.27,-140.99 260.27,-140.99"/>
<polygon fill="black" stroke="black" points="256.77,-140.99 260.27,-150.99 263.77,-140.99 256.77,-140.99"/>
</g>
<!-- I18nModule -->
<g id="node4" class="node">
<title>I18nModule</title>
<polygon fill="#8dd3c7" stroke="black" points="205.71,-122 202.71,-126 181.71,-126 178.71,-122 120.29,-122 120.29,-86 205.71,-86 205.71,-122"/>
<text text-anchor="middle" x="163" y="-99.8" font-family="Times,serif" font-size="14.00">I18nModule</text>
</g>
<!-- I18nModule&#45;&gt;AddToSavedCartModule -->
<g id="edge3" class="edge">
<title>I18nModule&#45;&gt;AddToSavedCartModule</title>
<path fill="none" stroke="black" d="M172.42,-122.11C172.42,-122.11 172.42,-140.99 172.42,-140.99"/>
<polygon fill="black" stroke="black" points="168.92,-140.99 172.42,-150.99 175.92,-140.99 168.92,-140.99"/>
</g>
<!-- UrlModule -->
<g id="node5" class="node">
<title>UrlModule</title>
<polygon fill="#8dd3c7" stroke="black" points="102.21,-122 99.21,-126 78.21,-126 75.21,-122 23.79,-122 23.79,-86 102.21,-86 102.21,-122"/>
<text text-anchor="middle" x="63" y="-99.8" font-family="Times,serif" font-size="14.00">UrlModule</text>
</g>
<!-- UrlModule&#45;&gt;AddToSavedCartModule -->
<g id="edge4" class="edge">
<title>UrlModule&#45;&gt;AddToSavedCartModule</title>
<path fill="none" stroke="black" d="M63,-122.11C63,-141.34 63,-169 63,-169 63,-169 129.14,-169 129.14,-169"/>
<polygon fill="black" stroke="black" points="129.14,-172.5 139.14,-169 129.14,-165.5 129.14,-172.5"/>
</g>
</g>
</svg>
