<?xml version="1.0" encoding="UTF-8" standalone="no"?>
<!DOCTYPE svg PUBLIC "-//W3C//DTD SVG 1.1//EN"
 "http://www.w3.org/Graphics/SVG/1.1/DTD/svg11.dtd">
<!-- Generated by graphviz version 2.40.1 (20161225.0304)
 -->
<!-- Title: dependencies Pages: 1 -->
<svg width="558pt" height="284pt"
 viewBox="0.00 0.00 558.00 284.00" xmlns="http://www.w3.org/2000/svg" xmlns:xlink="http://www.w3.org/1999/xlink">
<g id="graph0" class="graph" transform="scale(1 1) rotate(0) translate(4 280)">
<title>dependencies</title>
<polygon fill="#ffffff" stroke="transparent" points="-4,4 -4,-280 554,-280 554,4 -4,4"/>
<text text-anchor="start" x="254.0091" y="-42.4" font-family="sans-serif" font-weight="bold" font-size="14.00" fill="#000000">Legend</text>
<polygon fill="#ffffb3" stroke="transparent" points="41,-10 41,-30 61,-30 61,-10 41,-10"/>
<text text-anchor="start" x="64.629" y="-15.4" font-family="sans-serif" font-size="14.00" fill="#000000"> &#160;Declarations</text>
<polygon fill="#8dd3c7" stroke="transparent" points="154,-10 154,-30 174,-30 174,-10 154,-10"/>
<text text-anchor="start" x="177.7251" y="-15.4" font-family="sans-serif" font-size="14.00" fill="#000000"> &#160;Module</text>
<polygon fill="#80b1d3" stroke="transparent" points="240,-10 240,-30 260,-30 260,-10 240,-10"/>
<text text-anchor="start" x="263.7812" y="-15.4" font-family="sans-serif" font-size="14.00" fill="#000000"> &#160;Bootstrap</text>
<polygon fill="#fdb462" stroke="transparent" points="337,-10 337,-30 357,-30 357,-10 337,-10"/>
<text text-anchor="start" x="360.6732" y="-15.4" font-family="sans-serif" font-size="14.00" fill="#000000"> &#160;Providers</text>
<polygon fill="#fb8072" stroke="transparent" points="433,-10 433,-30 453,-30 453,-10 433,-10"/>
<text text-anchor="start" x="456.7258" y="-15.4" font-family="sans-serif" font-size="14.00" fill="#000000"> &#160;Exports</text>
<g id="clust1" class="cluster">
<title>cluster_AddToSavedCartModule</title>
<polygon fill="none" stroke="#000000" stroke-dasharray="1,5" points="8,-70 8,-268 542,-268 542,-70 8,-70"/>
</g>
<g id="clust2" class="cluster">
<title>cluster_AddToSavedCartModule_declarations</title>
<polygon fill="none" stroke="#000000" points="338,-78 338,-130 534,-130 534,-78 338,-78"/>
</g>
<g id="clust4" class="cluster">
<title>cluster_AddToSavedCartModule_imports</title>
<polygon fill="none" stroke="#000000" points="16,-78 16,-130 330,-130 330,-78 16,-78"/>
</g>
<g id="clust5" class="cluster">
<title>cluster_AddToSavedCartModule_exports</title>
<polygon fill="none" stroke="#000000" points="119,-208 119,-260 317,-260 317,-208 119,-208"/>
</g>
<!-- AddToSavedCartComponent -->
<g id="node1" class="node">
<title>AddToSavedCartComponent</title>
<polygon fill="#ffffb3" stroke="#000000" points="525.8061,-122 346.1939,-122 346.1939,-86 525.8061,-86 525.8061,-122"/>
<text text-anchor="middle" x="436" y="-99.8" font-family="Times,serif" font-size="14.00" fill="#000000">AddToSavedCartComponent</text>
</g>
<!-- AddToSavedCartModule -->
<g id="node2" class="node">
<title>AddToSavedCartModule</title>
<polygon fill="#8dd3c7" stroke="#000000" points="296.5239,-187 293.5239,-191 272.5239,-191 269.5239,-187 139.4761,-187 139.4761,-151 296.5239,-151 296.5239,-187"/>
<text text-anchor="middle" x="218" y="-164.8" font-family="Times,serif" font-size="14.00" fill="#000000">AddToSavedCartModule</text>
</g>
<!-- AddToSavedCartComponent&#45;&gt;AddToSavedCartModule -->
<g id="edge1" class="edge">
<title>AddToSavedCartComponent&#45;&gt;AddToSavedCartModule</title>
<path fill="none" stroke="#000000" d="M436,-122.1061C436,-141.3391 436,-169 436,-169 436,-169 306.703,-169 306.703,-169"/>
<polygon fill="#000000" stroke="#000000" points="306.703,-165.5001 296.703,-169 306.703,-172.5001 306.703,-165.5001"/>
</g>
<!-- AddToSavedCartComponent  -->
<g id="node6" class="node">
<title>AddToSavedCartComponent </title>
<polygon fill="#fb8072" stroke="#000000" points="309.3059,-252 126.6941,-252 126.6941,-216 309.3059,-216 309.3059,-252"/>
<text text-anchor="middle" x="218" y="-229.8" font-family="Times,serif" font-size="14.00" fill="#000000">AddToSavedCartComponent </text>
</g>
<!-- AddToSavedCartModule&#45;&gt;AddToSavedCartComponent  -->
<g id="edge5" class="edge">
<title>AddToSavedCartModule&#45;&gt;AddToSavedCartComponent </title>
<path fill="none" stroke="#000000" stroke-dasharray="5,2" d="M218,-187.1061C218,-187.1061 218,-205.991 218,-205.991"/>
<polygon fill="#000000" stroke="#000000" points="214.5001,-205.9909 218,-215.991 221.5001,-205.991 214.5001,-205.9909"/>
</g>
<!-- ConfigModule -->
<g id="node3" class="node">
<title>ConfigModule</title>
<polygon fill="#8dd3c7" stroke="#000000" points="322.4386,-122 319.4386,-126 298.4386,-126 295.4386,-122 223.5614,-122 223.5614,-86 322.4386,-86 322.4386,-122"/>
<text text-anchor="middle" x="273" y="-99.8" font-family="Times,serif" font-size="14.00" fill="#000000">ConfigModule</text>
</g>
<!-- ConfigModule&#45;&gt;AddToSavedCartModule -->
<g id="edge2" class="edge">
<title>ConfigModule&#45;&gt;AddToSavedCartModule</title>
<path fill="none" stroke="#000000" d="M260.2714,-122.1061C260.2714,-122.1061 260.2714,-140.991 260.2714,-140.991"/>
<polygon fill="#000000" stroke="#000000" points="256.7715,-140.9909 260.2714,-150.991 263.7715,-140.991 256.7715,-140.9909"/>
</g>
<!-- I18nModule -->
<g id="node4" class="node">
<title>I18nModule</title>
<polygon fill="#8dd3c7" stroke="#000000" points="205.7107,-122 202.7107,-126 181.7107,-126 178.7107,-122 120.2893,-122 120.2893,-86 205.7107,-86 205.7107,-122"/>
<text text-anchor="middle" x="163" y="-99.8" font-family="Times,serif" font-size="14.00" fill="#000000">I18nModule</text>
</g>
<!-- I18nModule&#45;&gt;AddToSavedCartModule -->
<g id="edge3" class="edge">
<title>I18nModule&#45;&gt;AddToSavedCartModule</title>
<path fill="none" stroke="#000000" d="M172.4218,-122.1061C172.4218,-122.1061 172.4218,-140.991 172.4218,-140.991"/>
<polygon fill="#000000" stroke="#000000" points="168.9219,-140.9909 172.4218,-150.991 175.9219,-140.991 168.9219,-140.9909"/>
</g>
<!-- UrlModule -->
<g id="node5" class="node">
<title>UrlModule</title>
<polygon fill="#8dd3c7" stroke="#000000" points="102.2079,-122 99.2079,-126 78.2079,-126 75.2079,-122 23.7921,-122 23.7921,-86 102.2079,-86 102.2079,-122"/>
<text text-anchor="middle" x="63" y="-99.8" font-family="Times,serif" font-size="14.00" fill="#000000">UrlModule</text>
</g>
<!-- UrlModule&#45;&gt;AddToSavedCartModule -->
<g id="edge4" class="edge">
<title>UrlModule&#45;&gt;AddToSavedCartModule</title>
<path fill="none" stroke="#000000" d="M63,-122.1061C63,-141.3391 63,-169 63,-169 63,-169 129.1378,-169 129.1378,-169"/>
<polygon fill="#000000" stroke="#000000" points="129.1378,-172.5001 139.1378,-169 129.1377,-165.5001 129.1378,-172.5001"/>
</g>
</g>
</svg>
