<?xml version="1.0" encoding="UTF-8" standalone="no"?>
<!DOCTYPE svg PUBLIC "-//W3C//DTD SVG 1.1//EN"
 "http://www.w3.org/Graphics/SVG/1.1/DTD/svg11.dtd">
<!-- Generated by graphviz version 2.47.3 (20210619.1520)
 -->
<!-- Title: dependencies Pages: 1 -->
<svg width="1608pt" height="247pt"
 viewBox="0.00 0.00 1608.00 246.80" xmlns="http://www.w3.org/2000/svg" xmlns:xlink="http://www.w3.org/1999/xlink">
<g id="graph0" class="graph" transform="scale(1 1) rotate(0) translate(4 242.8)">
<title>dependencies</title>
<polygon fill="white" stroke="transparent" points="-4,4 -4,-242.8 1604,-242.8 1604,4 -4,4"/>
<text text-anchor="middle" x="800" y="-8.2" font-family="sans-serif" font-size="14.00">dependencies</text>
<g id="clust1" class="cluster">
<title>cluster_AsmComponentsModule</title>
<polygon fill="none" stroke="black" stroke-dasharray="1,5" points="8,-32.8 8,-230.8 1592,-230.8 1592,-32.8 8,-32.8"/>
</g>
<g id="clust2" class="cluster">
<title>cluster_AsmComponentsModule_declarations</title>
<polygon fill="none" stroke="black" points="268,-40.8 268,-92.8 1584,-92.8 1584,-40.8 268,-40.8"/>
</g>
<g id="clust11" class="cluster">
<title>cluster_AsmComponentsModule_exports</title>
<polygon fill="none" stroke="black" points="43,-170.8 43,-222.8 1383,-222.8 1383,-170.8 43,-170.8"/>
</g>
<g id="clust10" class="cluster">
<title>cluster_AsmComponentsModule_imports</title>
<polygon fill="none" stroke="black" points="16,-40.8 16,-92.8 260,-92.8 260,-40.8 16,-40.8"/>
</g>
<!-- AsmMainUiComponent -->
<g id="node1" class="node">
<title>AsmMainUiComponent</title>
<polygon fill="#ffffb3" stroke="black" points="1575.82,-84.8 1424.18,-84.8 1424.18,-48.8 1575.82,-48.8 1575.82,-84.8"/>
<text text-anchor="middle" x="1500" y="-62.6" font-family="Times,serif" font-size="14.00">AsmMainUiComponent</text>
</g>
<!-- AsmComponentsModule -->
<g id="node8" class="node">
<title>AsmComponentsModule</title>
<polygon fill="#8dd3c7" stroke="black" points="791.27,-149.8 788.27,-153.8 767.27,-153.8 764.27,-149.8 634.73,-149.8 634.73,-113.8 791.27,-113.8 791.27,-149.8"/>
<text text-anchor="middle" x="713" y="-127.6" font-family="Times,serif" font-size="14.00">AsmComponentsModule</text>
</g>
<!-- AsmMainUiComponent&#45;&gt;AsmComponentsModule -->
<g id="edge1" class="edge">
<title>AsmMainUiComponent&#45;&gt;AsmComponentsModule</title>
<path fill="none" stroke="black" d="M1500,-84.91C1500,-104.14 1500,-131.8 1500,-131.8 1500,-131.8 801.34,-131.8 801.34,-131.8"/>
<polygon fill="black" stroke="black" points="801.34,-128.3 791.34,-131.8 801.34,-135.3 801.34,-128.3"/>
</g>
<!-- AsmSessionTimerComponent -->
<g id="node2" class="node">
<title>AsmSessionTimerComponent</title>
<polygon fill="#ffffb3" stroke="black" points="1406.26,-84.8 1221.74,-84.8 1221.74,-48.8 1406.26,-48.8 1406.26,-84.8"/>
<text text-anchor="middle" x="1314" y="-62.6" font-family="Times,serif" font-size="14.00">AsmSessionTimerComponent</text>
</g>
<!-- AsmSessionTimerComponent&#45;&gt;AsmComponentsModule -->
<g id="edge2" class="edge">
<title>AsmSessionTimerComponent&#45;&gt;AsmComponentsModule</title>
<path fill="none" stroke="black" d="M1272.88,-85.1C1272.88,-103.07 1272.88,-127.8 1272.88,-127.8 1272.88,-127.8 801.44,-127.8 801.44,-127.8"/>
<polygon fill="black" stroke="black" points="801.44,-124.3 791.44,-127.8 801.44,-131.3 801.44,-124.3"/>
</g>
<!-- AsmToggleUiComponent -->
<g id="node3" class="node">
<title>AsmToggleUiComponent</title>
<polygon fill="#ffffb3" stroke="black" points="1203.93,-84.8 1042.07,-84.8 1042.07,-48.8 1203.93,-48.8 1203.93,-84.8"/>
<text text-anchor="middle" x="1123" y="-62.6" font-family="Times,serif" font-size="14.00">AsmToggleUiComponent</text>
</g>
<!-- AsmToggleUiComponent&#45;&gt;AsmComponentsModule -->
<g id="edge3" class="edge">
<title>AsmToggleUiComponent&#45;&gt;AsmComponentsModule</title>
<path fill="none" stroke="black" d="M1122.21,-84.83C1122.21,-101.2 1122.21,-122.8 1122.21,-122.8 1122.21,-122.8 801.42,-122.8 801.42,-122.8"/>
<polygon fill="black" stroke="black" points="801.42,-119.3 791.42,-122.8 801.42,-126.3 801.42,-119.3"/>
</g>
<!-- CSAgentLoginFormComponent -->
<g id="node4" class="node">
<title>CSAgentLoginFormComponent</title>
<polygon fill="#ffffb3" stroke="black" points="1024.44,-84.8 827.56,-84.8 827.56,-48.8 1024.44,-48.8 1024.44,-84.8"/>
<text text-anchor="middle" x="926" y="-62.6" font-family="Times,serif" font-size="14.00">CSAgentLoginFormComponent</text>
</g>
<!-- CSAgentLoginFormComponent&#45;&gt;AsmComponentsModule -->
<g id="edge4" class="edge">
<title>CSAgentLoginFormComponent&#45;&gt;AsmComponentsModule</title>
<path fill="none" stroke="black" d="M885.51,-84.99C885.51,-99.98 885.51,-118.8 885.51,-118.8 885.51,-118.8 801.43,-118.8 801.43,-118.8"/>
<polygon fill="black" stroke="black" points="801.43,-115.3 791.43,-118.8 801.43,-122.3 801.43,-115.3"/>
</g>
<!-- CustomerEmulationComponent -->
<g id="node5" class="node">
<title>CustomerEmulationComponent</title>
<polygon fill="#ffffb3" stroke="black" points="810.1,-84.8 615.9,-84.8 615.9,-48.8 810.1,-48.8 810.1,-84.8"/>
<text text-anchor="middle" x="713" y="-62.6" font-family="Times,serif" font-size="14.00">CustomerEmulationComponent</text>
</g>
<!-- CustomerEmulationComponent&#45;&gt;AsmComponentsModule -->
<g id="edge5" class="edge">
<title>CustomerEmulationComponent&#45;&gt;AsmComponentsModule</title>
<path fill="none" stroke="black" d="M713,-84.91C713,-84.91 713,-103.79 713,-103.79"/>
<polygon fill="black" stroke="black" points="709.5,-103.79 713,-113.79 716.5,-103.79 709.5,-103.79"/>
</g>
<!-- CustomerSelectionComponent -->
<g id="node6" class="node">
<title>CustomerSelectionComponent</title>
<polygon fill="#ffffb3" stroke="black" points="597.87,-84.8 410.13,-84.8 410.13,-48.8 597.87,-48.8 597.87,-84.8"/>
<text text-anchor="middle" x="504" y="-62.6" font-family="Times,serif" font-size="14.00">CustomerSelectionComponent</text>
</g>
<!-- CustomerSelectionComponent&#45;&gt;AsmComponentsModule -->
<g id="edge6" class="edge">
<title>CustomerSelectionComponent&#45;&gt;AsmComponentsModule</title>
<path fill="none" stroke="black" d="M533.22,-84.99C533.22,-99.98 533.22,-118.8 533.22,-118.8 533.22,-118.8 624.67,-118.8 624.67,-118.8"/>
<polygon fill="black" stroke="black" points="624.67,-122.3 634.67,-118.8 624.67,-115.3 624.67,-122.3"/>
</g>
<!-- FormatTimerPipe -->
<g id="node7" class="node">
<title>FormatTimerPipe</title>
<polygon fill="#ffffb3" stroke="black" points="391.54,-84.8 276.46,-84.8 276.46,-48.8 391.54,-48.8 391.54,-84.8"/>
<text text-anchor="middle" x="334" y="-62.6" font-family="Times,serif" font-size="14.00">FormatTimerPipe</text>
</g>
<!-- FormatTimerPipe&#45;&gt;AsmComponentsModule -->
<g id="edge7" class="edge">
<title>FormatTimerPipe&#45;&gt;AsmComponentsModule</title>
<path fill="none" stroke="black" d="M385.73,-84.83C385.73,-101.2 385.73,-122.8 385.73,-122.8 385.73,-122.8 624.61,-122.8 624.61,-122.8"/>
<polygon fill="black" stroke="black" points="624.61,-126.3 634.61,-122.8 624.61,-119.3 624.61,-126.3"/>
</g>
<!-- AsmMainUiComponent  -->
<g id="node11" class="node">
<title>AsmMainUiComponent </title>
<polygon fill="#fb8072" stroke="black" points="1375.32,-214.8 1220.68,-214.8 1220.68,-178.8 1375.32,-178.8 1375.32,-214.8"/>
<text text-anchor="middle" x="1298" y="-192.6" font-family="Times,serif" font-size="14.00">AsmMainUiComponent </text>
</g>
<!-- AsmComponentsModule&#45;&gt;AsmMainUiComponent  -->
<g id="edge10" class="edge">
<title>AsmComponentsModule&#45;&gt;AsmMainUiComponent </title>
<path fill="none" stroke="black" stroke-dasharray="5,2" d="M791.33,-136.8C956.24,-136.8 1324.15,-136.8 1324.15,-136.8 1324.15,-136.8 1324.15,-168.8 1324.15,-168.8"/>
<polygon fill="black" stroke="black" points="1320.65,-168.8 1324.15,-178.8 1327.65,-168.8 1320.65,-168.8"/>
</g>
<!-- AsmSessionTimerComponent  -->
<g id="node12" class="node">
<title>AsmSessionTimerComponent </title>
<polygon fill="#fb8072" stroke="black" points="1202.26,-214.8 1013.74,-214.8 1013.74,-178.8 1202.26,-178.8 1202.26,-214.8"/>
<text text-anchor="middle" x="1108" y="-192.6" font-family="Times,serif" font-size="14.00">AsmSessionTimerComponent </text>
</g>
<!-- AsmComponentsModule&#45;&gt;AsmSessionTimerComponent  -->
<g id="edge11" class="edge">
<title>AsmComponentsModule&#45;&gt;AsmSessionTimerComponent </title>
<path fill="none" stroke="black" stroke-dasharray="5,2" d="M791.42,-140.8C882.09,-140.8 1019.05,-140.8 1019.05,-140.8 1019.05,-140.8 1019.05,-168.77 1019.05,-168.77"/>
<polygon fill="black" stroke="black" points="1015.55,-168.77 1019.05,-178.77 1022.55,-168.77 1015.55,-168.77"/>
</g>
<!-- AsmToggleUiComponent  -->
<g id="node13" class="node">
<title>AsmToggleUiComponent </title>
<polygon fill="#fb8072" stroke="black" points="995.43,-214.8 830.57,-214.8 830.57,-178.8 995.43,-178.8 995.43,-214.8"/>
<text text-anchor="middle" x="913" y="-192.6" font-family="Times,serif" font-size="14.00">AsmToggleUiComponent </text>
</g>
<!-- AsmComponentsModule&#45;&gt;AsmToggleUiComponent  -->
<g id="edge12" class="edge">
<title>AsmComponentsModule&#45;&gt;AsmToggleUiComponent </title>
<path fill="none" stroke="black" stroke-dasharray="5,2" d="M791.29,-145.8C857.09,-145.8 940.49,-145.8 940.49,-145.8 940.49,-145.8 940.49,-168.68 940.49,-168.68"/>
<polygon fill="black" stroke="black" points="936.99,-168.68 940.49,-178.68 943.99,-168.68 936.99,-168.68"/>
</g>
<!-- CSAgentLoginFormComponent  -->
<g id="node14" class="node">
<title>CSAgentLoginFormComponent </title>
<polygon fill="#fb8072" stroke="black" points="812.94,-214.8 613.06,-214.8 613.06,-178.8 812.94,-178.8 812.94,-214.8"/>
<text text-anchor="middle" x="713" y="-192.6" font-family="Times,serif" font-size="14.00">CSAgentLoginFormComponent </text>
</g>
<!-- AsmComponentsModule&#45;&gt;CSAgentLoginFormComponent  -->
<g id="edge13" class="edge">
<title>AsmComponentsModule&#45;&gt;CSAgentLoginFormComponent </title>
<path fill="none" stroke="black" stroke-dasharray="5,2" d="M713,-149.91C713,-149.91 713,-168.79 713,-168.79"/>
<polygon fill="black" stroke="black" points="709.5,-168.79 713,-178.79 716.5,-168.79 709.5,-168.79"/>
</g>
<!-- CustomerEmulationComponent  -->
<g id="node15" class="node">
<title>CustomerEmulationComponent </title>
<polygon fill="#fb8072" stroke="black" points="594.6,-214.8 397.4,-214.8 397.4,-178.8 594.6,-178.8 594.6,-214.8"/>
<text text-anchor="middle" x="496" y="-192.6" font-family="Times,serif" font-size="14.00">CustomerEmulationComponent </text>
</g>
<!-- AsmComponentsModule&#45;&gt;CustomerEmulationComponent  -->
<g id="edge14" class="edge">
<title>AsmComponentsModule&#45;&gt;CustomerEmulationComponent </title>
<path fill="none" stroke="black" stroke-dasharray="5,2" d="M634.64,-145.8C564.16,-145.8 471.64,-145.8 471.64,-145.8 471.64,-145.8 471.64,-168.68 471.64,-168.68"/>
<polygon fill="black" stroke="black" points="468.14,-168.68 471.64,-178.68 475.14,-168.68 468.14,-168.68"/>
</g>
<!-- CustomerSelectionComponent  -->
<g id="node16" class="node">
<title>CustomerSelectionComponent </title>
<polygon fill="#fb8072" stroke="black" points="379.87,-214.8 188.13,-214.8 188.13,-178.8 379.87,-178.8 379.87,-214.8"/>
<text text-anchor="middle" x="284" y="-192.6" font-family="Times,serif" font-size="14.00">CustomerSelectionComponent </text>
</g>
<!-- AsmComponentsModule&#45;&gt;CustomerSelectionComponent  -->
<g id="edge15" class="edge">
<title>AsmComponentsModule&#45;&gt;CustomerSelectionComponent </title>
<path fill="none" stroke="black" stroke-dasharray="5,2" d="M634.62,-140.8C522.04,-140.8 327.96,-140.8 327.96,-140.8 327.96,-140.8 327.96,-168.77 327.96,-168.77"/>
<polygon fill="black" stroke="black" points="324.46,-168.77 327.96,-178.77 331.46,-168.77 324.46,-168.77"/>
</g>
<!-- FormatTimerPipe  -->
<g id="node17" class="node">
<title>FormatTimerPipe </title>
<polygon fill="#fb8072" stroke="black" points="170.54,-214.8 51.46,-214.8 51.46,-178.8 170.54,-178.8 170.54,-214.8"/>
<text text-anchor="middle" x="111" y="-192.6" font-family="Times,serif" font-size="14.00">FormatTimerPipe </text>
</g>
<!-- AsmComponentsModule&#45;&gt;FormatTimerPipe  -->
<g id="edge16" class="edge">
<title>AsmComponentsModule&#45;&gt;FormatTimerPipe </title>
<path fill="none" stroke="black" stroke-dasharray="5,2" d="M634.58,-136.8C479.62,-136.8 149.04,-136.8 149.04,-136.8 149.04,-136.8 149.04,-168.8 149.04,-168.8"/>
<polygon fill="black" stroke="black" points="145.54,-168.8 149.04,-178.8 152.54,-168.8 145.54,-168.8"/>
</g>
<!-- FormErrorsModule -->
<g id="node9" class="node">
<title>FormErrorsModule</title>
<polygon fill="#8dd3c7" stroke="black" points="252.36,-84.8 249.36,-88.8 228.36,-88.8 225.36,-84.8 127.64,-84.8 127.64,-48.8 252.36,-48.8 252.36,-84.8"/>
<text text-anchor="middle" x="190" y="-62.6" font-family="Times,serif" font-size="14.00">FormErrorsModule</text>
</g>
<!-- FormErrorsModule&#45;&gt;AsmComponentsModule -->
<g id="edge8" class="edge">
<title>FormErrorsModule&#45;&gt;AsmComponentsModule</title>
<path fill="none" stroke="black" d="M220.37,-85.1C220.37,-103.07 220.37,-127.8 220.37,-127.8 220.37,-127.8 624.67,-127.8 624.67,-127.8"/>
<polygon fill="black" stroke="black" points="624.67,-131.3 634.67,-127.8 624.67,-124.3 624.67,-131.3"/>
</g>
<!-- I18nModule -->
<g id="node10" class="node">
<title>I18nModule</title>
<polygon fill="#8dd3c7" stroke="black" points="109.71,-84.8 106.71,-88.8 85.71,-88.8 82.71,-84.8 24.29,-84.8 24.29,-48.8 109.71,-48.8 109.71,-84.8"/>
<text text-anchor="middle" x="67" y="-62.6" font-family="Times,serif" font-size="14.00">I18nModule</text>
</g>
<!-- I18nModule&#45;&gt;AsmComponentsModule -->
<g id="edge9" class="edge">
<title>I18nModule&#45;&gt;AsmComponentsModule</title>
<path fill="none" stroke="black" d="M80.54,-84.91C80.54,-104.14 80.54,-131.8 80.54,-131.8 80.54,-131.8 624.5,-131.8 624.5,-131.8"/>
<polygon fill="black" stroke="black" points="624.5,-135.3 634.5,-131.8 624.5,-128.3 624.5,-135.3"/>
</g>
</g>
</svg>
