<?xml version="1.0" encoding="UTF-8" standalone="no"?>
<!DOCTYPE svg PUBLIC "-//W3C//DTD SVG 1.1//EN"
 "http://www.w3.org/Graphics/SVG/1.1/DTD/svg11.dtd">
<!-- Generated by graphviz version 2.40.1 (20161225.0304)
 -->
<!-- Title: dependencies Pages: 1 -->
<svg width="1608pt" height="211pt"
 viewBox="0.00 0.00 1608.00 211.00" xmlns="http://www.w3.org/2000/svg" xmlns:xlink="http://www.w3.org/1999/xlink">
<g id="graph0" class="graph" transform="scale(1 1) rotate(0) translate(4 207)">
<title>dependencies</title>
<polygon fill="#ffffff" stroke="transparent" points="-4,4 -4,-207 1604,-207 1604,4 -4,4"/>
<text text-anchor="start" x="779.0091" y="-42.4" font-family="sans-serif" font-weight="bold" font-size="14.00" fill="#000000">Legend</text>
<polygon fill="#ffffb3" stroke="transparent" points="566,-10 566,-30 586,-30 586,-10 566,-10"/>
<text text-anchor="start" x="589.629" y="-15.4" font-family="sans-serif" font-size="14.00" fill="#000000"> &#160;Declarations</text>
<polygon fill="#8dd3c7" stroke="transparent" points="679,-10 679,-30 699,-30 699,-10 679,-10"/>
<text text-anchor="start" x="702.7251" y="-15.4" font-family="sans-serif" font-size="14.00" fill="#000000"> &#160;Module</text>
<polygon fill="#80b1d3" stroke="transparent" points="765,-10 765,-30 785,-30 785,-10 765,-10"/>
<text text-anchor="start" x="788.7812" y="-15.4" font-family="sans-serif" font-size="14.00" fill="#000000"> &#160;Bootstrap</text>
<polygon fill="#fdb462" stroke="transparent" points="862,-10 862,-30 882,-30 882,-10 862,-10"/>
<text text-anchor="start" x="885.6732" y="-15.4" font-family="sans-serif" font-size="14.00" fill="#000000"> &#160;Providers</text>
<polygon fill="#fb8072" stroke="transparent" points="958,-10 958,-30 978,-30 978,-10 958,-10"/>
<text text-anchor="start" x="981.7258" y="-15.4" font-family="sans-serif" font-size="14.00" fill="#000000"> &#160;Exports</text>
<g id="clust1" class="cluster">
<title>cluster_AsmComponentsModule</title>
<polygon fill="none" stroke="#000000" stroke-dasharray="1,5" points="8,-70 8,-195 1592,-195 1592,-70 8,-70"/>
</g>
<g id="clust2" class="cluster">
<title>cluster_AsmComponentsModule_declarations</title>
<polygon fill="none" stroke="#000000" points="268,-78 268,-130 1584,-130 1584,-78 268,-78"/>
</g>
<g id="clust10" class="cluster">
<title>cluster_AsmComponentsModule_imports</title>
<polygon fill="none" stroke="#000000" points="16,-78 16,-130 260,-130 260,-78 16,-78"/>
</g>
<!-- AsmMainUiComponent -->
<g id="node1" class="node">
<title>AsmMainUiComponent</title>
<polygon fill="#ffffb3" stroke="#000000" points="1575.8215,-122 1424.1785,-122 1424.1785,-86 1575.8215,-86 1575.8215,-122"/>
<text text-anchor="middle" x="1500" y="-99.8" font-family="Times,serif" font-size="14.00" fill="#000000">AsmMainUiComponent</text>
</g>
<!-- AsmComponentsModule -->
<g id="node8" class="node">
<title>AsmComponentsModule</title>
<polygon fill="#8dd3c7" stroke="#000000" points="791.2688,-187 788.2688,-191 767.2688,-191 764.2688,-187 634.7312,-187 634.7312,-151 791.2688,-151 791.2688,-187"/>
<text text-anchor="middle" x="713" y="-164.8" font-family="Times,serif" font-size="14.00" fill="#000000">AsmComponentsModule</text>
</g>
<!-- AsmMainUiComponent&#45;&gt;AsmComponentsModule -->
<g id="edge1" class="edge">
<title>AsmMainUiComponent&#45;&gt;AsmComponentsModule</title>
<path fill="none" stroke="#000000" d="M1500,-122.0109C1500,-144.4852 1500,-180 1500,-180 1500,-180 801.3378,-180 801.3378,-180"/>
<polygon fill="#000000" stroke="#000000" points="801.3378,-176.5001 791.3378,-180 801.3378,-183.5001 801.3378,-176.5001"/>
</g>
<!-- AsmSessionTimerComponent -->
<g id="node2" class="node">
<title>AsmSessionTimerComponent</title>
<polygon fill="#ffffb3" stroke="#000000" points="1406.2604,-122 1221.7396,-122 1221.7396,-86 1406.2604,-86 1406.2604,-122"/>
<text text-anchor="middle" x="1314" y="-99.8" font-family="Times,serif" font-size="14.00" fill="#000000">AsmSessionTimerComponent</text>
</g>
<!-- AsmSessionTimerComponent&#45;&gt;AsmComponentsModule -->
<g id="edge2" class="edge">
<title>AsmSessionTimerComponent&#45;&gt;AsmComponentsModule</title>
<path fill="none" stroke="#000000" d="M1314,-122.1289C1314,-142.5724 1314,-173 1314,-173 1314,-173 801.5703,-173 801.5703,-173"/>
<polygon fill="#000000" stroke="#000000" points="801.5703,-169.5001 791.5703,-173 801.5702,-176.5001 801.5703,-169.5001"/>
</g>
<!-- AsmToggleUiComponent -->
<g id="node3" class="node">
<title>AsmToggleUiComponent</title>
<polygon fill="#ffffb3" stroke="#000000" points="1203.9298,-122 1042.0702,-122 1042.0702,-86 1203.9298,-86 1203.9298,-122"/>
<text text-anchor="middle" x="1123" y="-99.8" font-family="Times,serif" font-size="14.00" fill="#000000">AsmToggleUiComponent</text>
</g>
<!-- AsmToggleUiComponent&#45;&gt;AsmComponentsModule -->
<g id="edge3" class="edge">
<title>AsmToggleUiComponent&#45;&gt;AsmComponentsModule</title>
<path fill="none" stroke="#000000" d="M1123,-122.2667C1123,-140.5552 1123,-166 1123,-166 1123,-166 801.567,-166 801.567,-166"/>
<polygon fill="#000000" stroke="#000000" points="801.567,-162.5001 791.567,-166 801.567,-169.5001 801.567,-162.5001"/>
</g>
<!-- CSAgentLoginFormComponent -->
<g id="node4" class="node">
<title>CSAgentLoginFormComponent</title>
<polygon fill="#ffffb3" stroke="#000000" points="1024.4409,-122 827.5591,-122 827.5591,-86 1024.4409,-86 1024.4409,-122"/>
<text text-anchor="middle" x="926" y="-99.8" font-family="Times,serif" font-size="14.00" fill="#000000">CSAgentLoginFormComponent</text>
</g>
<!-- CSAgentLoginFormComponent&#45;&gt;AsmComponentsModule -->
<g id="edge4" class="edge">
<title>CSAgentLoginFormComponent&#45;&gt;AsmComponentsModule</title>
<path fill="none" stroke="#000000" d="M926,-122.0091C926,-138.0494 926,-159 926,-159 926,-159 801.4059,-159 801.4059,-159"/>
<polygon fill="#000000" stroke="#000000" points="801.4059,-155.5001 791.4059,-159 801.4059,-162.5001 801.4059,-155.5001"/>
</g>
<!-- CustomerEmulationComponent -->
<g id="node5" class="node">
<title>CustomerEmulationComponent</title>
<polygon fill="#ffffb3" stroke="#000000" points="810.0996,-122 615.9004,-122 615.9004,-86 810.0996,-86 810.0996,-122"/>
<text text-anchor="middle" x="713" y="-99.8" font-family="Times,serif" font-size="14.00" fill="#000000">CustomerEmulationComponent</text>
</g>
<!-- CustomerEmulationComponent&#45;&gt;AsmComponentsModule -->
<g id="edge5" class="edge">
<title>CustomerEmulationComponent&#45;&gt;AsmComponentsModule</title>
<path fill="none" stroke="#000000" d="M713,-122.1061C713,-122.1061 713,-140.991 713,-140.991"/>
<polygon fill="#000000" stroke="#000000" points="709.5001,-140.9909 713,-150.991 716.5001,-140.991 709.5001,-140.9909"/>
</g>
<!-- CustomerSelectionComponent -->
<g id="node6" class="node">
<title>CustomerSelectionComponent</title>
<polygon fill="#ffffb3" stroke="#000000" points="597.8682,-122 410.1318,-122 410.1318,-86 597.8682,-86 597.8682,-122"/>
<text text-anchor="middle" x="504" y="-99.8" font-family="Times,serif" font-size="14.00" fill="#000000">CustomerSelectionComponent</text>
</g>
<!-- CustomerSelectionComponent&#45;&gt;AsmComponentsModule -->
<g id="edge6" class="edge">
<title>CustomerSelectionComponent&#45;&gt;AsmComponentsModule</title>
<path fill="none" stroke="#000000" d="M504,-122.0091C504,-138.0494 504,-159 504,-159 504,-159 624.5815,-159 624.5815,-159"/>
<polygon fill="#000000" stroke="#000000" points="624.5815,-162.5001 634.5815,-159 624.5815,-155.5001 624.5815,-162.5001"/>
</g>
<!-- FormatTimerPipe -->
<g id="node7" class="node">
<title>FormatTimerPipe</title>
<polygon fill="#ffffb3" stroke="#000000" points="391.5367,-122 276.4633,-122 276.4633,-86 391.5367,-86 391.5367,-122"/>
<text text-anchor="middle" x="334" y="-99.8" font-family="Times,serif" font-size="14.00" fill="#000000">FormatTimerPipe</text>
</g>
<!-- FormatTimerPipe&#45;&gt;AsmComponentsModule -->
<g id="edge7" class="edge">
<title>FormatTimerPipe&#45;&gt;AsmComponentsModule</title>
<path fill="none" stroke="#000000" d="M334,-122.2667C334,-140.5552 334,-166 334,-166 334,-166 624.471,-166 624.471,-166"/>
<polygon fill="#000000" stroke="#000000" points="624.471,-169.5001 634.471,-166 624.4709,-162.5001 624.471,-169.5001"/>
</g>
<!-- FormErrorsModule -->
<g id="node9" class="node">
<title>FormErrorsModule</title>
<polygon fill="#8dd3c7" stroke="#000000" points="252.3627,-122 249.3627,-126 228.3627,-126 225.3627,-122 127.6373,-122 127.6373,-86 252.3627,-86 252.3627,-122"/>
<text text-anchor="middle" x="190" y="-99.8" font-family="Times,serif" font-size="14.00" fill="#000000">FormErrorsModule</text>
</g>
<!-- FormErrorsModule&#45;&gt;AsmComponentsModule -->
<g id="edge8" class="edge">
<title>FormErrorsModule&#45;&gt;AsmComponentsModule</title>
<path fill="none" stroke="#000000" d="M190,-122.1289C190,-142.5724 190,-173 190,-173 190,-173 624.7016,-173 624.7016,-173"/>
<polygon fill="#000000" stroke="#000000" points="624.7017,-176.5001 634.7016,-173 624.7016,-169.5001 624.7017,-176.5001"/>
</g>
<!-- I18nModule -->
<g id="node10" class="node">
<title>I18nModule</title>
<polygon fill="#8dd3c7" stroke="#000000" points="109.7107,-122 106.7107,-126 85.7107,-126 82.7107,-122 24.2893,-122 24.2893,-86 109.7107,-86 109.7107,-122"/>
<text text-anchor="middle" x="67" y="-99.8" font-family="Times,serif" font-size="14.00" fill="#000000">I18nModule</text>
</g>
<!-- I18nModule&#45;&gt;AsmComponentsModule -->
<g id="edge9" class="edge">
<title>I18nModule&#45;&gt;AsmComponentsModule</title>
<path fill="none" stroke="#000000" d="M67,-122.0109C67,-144.4852 67,-180 67,-180 67,-180 624.4336,-180 624.4336,-180"/>
<polygon fill="#000000" stroke="#000000" points="624.4336,-183.5001 634.4336,-180 624.4335,-176.5001 624.4336,-183.5001"/>
</g>
</g>
</svg>
