<?xml version="1.0" encoding="UTF-8" standalone="no"?>
<!DOCTYPE svg PUBLIC "-//W3C//DTD SVG 1.1//EN"
 "http://www.w3.org/Graphics/SVG/1.1/DTD/svg11.dtd">
<!-- Generated by graphviz version 2.40.1 (20161225.0304)
 -->
<!-- Title: dependencies Pages: 1 -->
<svg width="504pt" height="211pt"
 viewBox="0.00 0.00 504.00 211.00" xmlns="http://www.w3.org/2000/svg" xmlns:xlink="http://www.w3.org/1999/xlink">
<g id="graph0" class="graph" transform="scale(1 1) rotate(0) translate(4 207)">
<title>dependencies</title>
<polygon fill="#ffffff" stroke="transparent" points="-4,4 -4,-207 500,-207 500,4 -4,4"/>
<text text-anchor="start" x="227.0091" y="-42.4" font-family="sans-serif" font-weight="bold" font-size="14.00" fill="#000000">Legend</text>
<polygon fill="#ffffb3" stroke="transparent" points="14,-10 14,-30 34,-30 34,-10 14,-10"/>
<text text-anchor="start" x="37.629" y="-15.4" font-family="sans-serif" font-size="14.00" fill="#000000"> &#160;Declarations</text>
<polygon fill="#8dd3c7" stroke="transparent" points="127,-10 127,-30 147,-30 147,-10 127,-10"/>
<text text-anchor="start" x="150.7251" y="-15.4" font-family="sans-serif" font-size="14.00" fill="#000000"> &#160;Module</text>
<polygon fill="#80b1d3" stroke="transparent" points="213,-10 213,-30 233,-30 233,-10 213,-10"/>
<text text-anchor="start" x="236.7812" y="-15.4" font-family="sans-serif" font-size="14.00" fill="#000000"> &#160;Bootstrap</text>
<polygon fill="#fdb462" stroke="transparent" points="310,-10 310,-30 330,-30 330,-10 310,-10"/>
<text text-anchor="start" x="333.6732" y="-15.4" font-family="sans-serif" font-size="14.00" fill="#000000"> &#160;Providers</text>
<polygon fill="#fb8072" stroke="transparent" points="406,-10 406,-30 426,-30 426,-10 406,-10"/>
<text text-anchor="start" x="429.7258" y="-15.4" font-family="sans-serif" font-size="14.00" fill="#000000"> &#160;Exports</text>
<g id="clust1" class="cluster">
<title>cluster_AsmCoreModule</title>
<polygon fill="none" stroke="#000000" stroke-dasharray="1,5" points="92,-70 92,-195 404,-195 404,-70 92,-70"/>
</g>
<g id="clust3" class="cluster">
<title>cluster_AsmCoreModule_imports</title>
<polygon fill="none" stroke="#000000" points="264,-78 264,-130 396,-130 396,-78 264,-78"/>
</g>
<g id="clust6" class="cluster">
<title>cluster_AsmCoreModule_providers</title>
<polygon fill="none" stroke="#000000" points="100,-78 100,-130 256,-130 256,-78 100,-78"/>
</g>
<!-- AsmStoreModule -->
<g id="node1" class="node">
<title>AsmStoreModule</title>
<polygon fill="#8dd3c7" stroke="#000000" points="387.5409,-122 384.5409,-126 363.5409,-126 360.5409,-122 272.4591,-122 272.4591,-86 387.5409,-86 387.5409,-122"/>
<text text-anchor="middle" x="330" y="-99.8" font-family="Times,serif" font-size="14.00" fill="#000000">AsmStoreModule</text>
</g>
<!-- AsmCoreModule -->
<g id="node2" class="node">
<title>AsmCoreModule</title>
<polygon fill="#8dd3c7" stroke="#000000" points="310.7036,-187 307.7036,-191 286.7036,-191 283.7036,-187 197.2964,-187 197.2964,-151 310.7036,-151 310.7036,-187"/>
<text text-anchor="middle" x="254" y="-164.8" font-family="Times,serif" font-size="14.00" fill="#000000">AsmCoreModule</text>
</g>
<!-- AsmStoreModule&#45;&gt;AsmCoreModule -->
<g id="edge1" class="edge">
<title>AsmStoreModule&#45;&gt;AsmCoreModule</title>
<path fill="none" stroke="#000000" d="M291.4159,-122.1061C291.4159,-122.1061 291.4159,-140.991 291.4159,-140.991"/>
<polygon fill="#000000" stroke="#000000" points="287.9159,-140.9909 291.4159,-150.991 294.9159,-140.991 287.9159,-140.9909"/>
</g>
<!-- AsmConnector -->
<g id="node3" class="node">
<title>AsmConnector</title>
<ellipse fill="#fdb462" stroke="#000000" cx="178" cy="-104" rx="69.5032" ry="18"/>
<text text-anchor="middle" x="178" y="-99.8" font-family="Times,serif" font-size="14.00" fill="#000000">AsmConnector</text>
</g>
<!-- AsmConnector&#45;&gt;AsmCoreModule -->
<g id="edge2" class="edge">
<title>AsmConnector&#45;&gt;AsmCoreModule</title>
<path fill="none" stroke="#000000" d="M222.4499,-118.104C222.4499,-118.104 222.4499,-140.7209 222.4499,-140.7209"/>
<polygon fill="#000000" stroke="#000000" points="218.95,-140.7209 222.4499,-150.7209 225.95,-140.7209 218.95,-140.7209"/>
</g>
</g>
</svg>
