<?xml version="1.0" encoding="UTF-8" standalone="no"?>
<!DOCTYPE svg PUBLIC "-//W3C//DTD SVG 1.1//EN"
 "http://www.w3.org/Graphics/SVG/1.1/DTD/svg11.dtd">
<!-- Generated by graphviz version 2.47.3 (20210619.1520)
 -->
<!-- Title: dependencies Pages: 1 -->
<svg width="336pt" height="174pt"
 viewBox="0.00 0.00 336.00 173.80" xmlns="http://www.w3.org/2000/svg" xmlns:xlink="http://www.w3.org/1999/xlink">
<g id="graph0" class="graph" transform="scale(1 1) rotate(0) translate(4 169.8)">
<title>dependencies</title>
<polygon fill="white" stroke="transparent" points="-4,4 -4,-169.8 332,-169.8 332,4 -4,4"/>
<text text-anchor="middle" x="164" y="-8.2" font-family="sans-serif" font-size="14.00">dependencies</text>
<g id="clust1" class="cluster">
<title>cluster_AsmCoreModule</title>
<polygon fill="none" stroke="black" stroke-dasharray="1,5" points="8,-32.8 8,-157.8 320,-157.8 320,-32.8 8,-32.8"/>
</g>
<g id="clust3" class="cluster">
<title>cluster_AsmCoreModule_imports</title>
<polygon fill="none" stroke="black" points="180,-40.8 180,-92.8 312,-92.8 312,-40.8 180,-40.8"/>
</g>
<g id="clust6" class="cluster">
<title>cluster_AsmCoreModule_providers</title>
<polygon fill="none" stroke="black" points="16,-40.8 16,-92.8 172,-92.8 172,-40.8 16,-40.8"/>
</g>
<!-- AsmStoreModule -->
<g id="node1" class="node">
<title>AsmStoreModule</title>
<polygon fill="#8dd3c7" stroke="black" points="303.54,-84.8 300.54,-88.8 279.54,-88.8 276.54,-84.8 188.46,-84.8 188.46,-48.8 303.54,-48.8 303.54,-84.8"/>
<text text-anchor="middle" x="246" y="-62.6" font-family="Times,serif" font-size="14.00">AsmStoreModule</text>
</g>
<!-- AsmCoreModule -->
<g id="node2" class="node">
<title>AsmCoreModule</title>
<polygon fill="#8dd3c7" stroke="black" points="226.7,-149.8 223.7,-153.8 202.7,-153.8 199.7,-149.8 113.3,-149.8 113.3,-113.8 226.7,-113.8 226.7,-149.8"/>
<text text-anchor="middle" x="170" y="-127.6" font-family="Times,serif" font-size="14.00">AsmCoreModule</text>
</g>
<!-- AsmStoreModule&#45;&gt;AsmCoreModule -->
<g id="edge1" class="edge">
<title>AsmStoreModule&#45;&gt;AsmCoreModule</title>
<path fill="none" stroke="black" d="M207.42,-84.91C207.42,-84.91 207.42,-103.79 207.42,-103.79"/>
<polygon fill="black" stroke="black" points="203.92,-103.79 207.42,-113.79 210.92,-103.79 203.92,-103.79"/>
</g>
<!-- AsmConnector -->
<g id="node3" class="node">
<title>AsmConnector</title>
<ellipse fill="#fdb462" stroke="black" cx="94" cy="-66.8" rx="69.5" ry="18"/>
<text text-anchor="middle" x="94" y="-62.6" font-family="Times,serif" font-size="14.00">AsmConnector</text>
</g>
<!-- AsmConnector&#45;&gt;AsmCoreModule -->
<g id="edge2" class="edge">
<title>AsmConnector&#45;&gt;AsmCoreModule</title>
<path fill="none" stroke="black" d="M138.45,-80.9C138.45,-80.9 138.45,-103.52 138.45,-103.52"/>
<polygon fill="black" stroke="black" points="134.95,-103.52 138.45,-113.52 141.95,-103.52 134.95,-103.52"/>
</g>
</g>
</svg>
