<?xml version="1.0" encoding="UTF-8" standalone="no"?>
<!DOCTYPE svg PUBLIC "-//W3C//DTD SVG 1.1//EN"
 "http://www.w3.org/Graphics/SVG/1.1/DTD/svg11.dtd">
<!-- Generated by graphviz version 2.40.1 (20161225.0304)
 -->
<!-- Title: dependencies Pages: 1 -->
<svg width="504pt" height="211pt"
 viewBox="0.00 0.00 504.00 211.00" xmlns="http://www.w3.org/2000/svg" xmlns:xlink="http://www.w3.org/1999/xlink">
<g id="graph0" class="graph" transform="scale(1 1) rotate(0) translate(4 207)">
<title>dependencies</title>
<polygon fill="#ffffff" stroke="transparent" points="-4,4 -4,-207 500,-207 500,4 -4,4"/>
<text text-anchor="start" x="227.0091" y="-42.4" font-family="sans-serif" font-weight="bold" font-size="14.00" fill="#000000">Legend</text>
<polygon fill="#ffffb3" stroke="transparent" points="14,-10 14,-30 34,-30 34,-10 14,-10"/>
<text text-anchor="start" x="37.629" y="-15.4" font-family="sans-serif" font-size="14.00" fill="#000000"> &#160;Declarations</text>
<polygon fill="#8dd3c7" stroke="transparent" points="127,-10 127,-30 147,-30 147,-10 127,-10"/>
<text text-anchor="start" x="150.7251" y="-15.4" font-family="sans-serif" font-size="14.00" fill="#000000"> &#160;Module</text>
<polygon fill="#80b1d3" stroke="transparent" points="213,-10 213,-30 233,-30 233,-10 213,-10"/>
<text text-anchor="start" x="236.7812" y="-15.4" font-family="sans-serif" font-size="14.00" fill="#000000"> &#160;Bootstrap</text>
<polygon fill="#fdb462" stroke="transparent" points="310,-10 310,-30 330,-30 330,-10 310,-10"/>
<text text-anchor="start" x="333.6732" y="-15.4" font-family="sans-serif" font-size="14.00" fill="#000000"> &#160;Providers</text>
<polygon fill="#fb8072" stroke="transparent" points="406,-10 406,-30 426,-30 426,-10 406,-10"/>
<text text-anchor="start" x="429.7258" y="-15.4" font-family="sans-serif" font-size="14.00" fill="#000000"> &#160;Exports</text>
<g id="clust1" class="cluster">
<title>cluster_CartOccModule</title>
<polygon fill="none" stroke="#000000" stroke-dasharray="1,5" points="107,-70 107,-195 389,-195 389,-70 107,-70"/>
</g>
<g id="clust3" class="cluster">
<title>cluster_CartOccModule_imports</title>
<polygon fill="none" stroke="#000000" points="283,-78 283,-130 381,-130 381,-78 283,-78"/>
</g>
<g id="clust6" class="cluster">
<title>cluster_CartOccModule_providers</title>
<polygon fill="none" stroke="#000000" points="115,-78 115,-130 275,-130 275,-78 115,-78"/>
</g>
<!-- OccModule -->
<g id="node1" class="node">
<title>OccModule</title>
<polygon fill="#8dd3c7" stroke="#000000" points="373.0856,-122 370.0856,-126 349.0856,-126 346.0856,-122 290.9144,-122 290.9144,-86 373.0856,-86 373.0856,-122"/>
<text text-anchor="middle" x="332" y="-99.8" font-family="Times,serif" font-size="14.00" fill="#000000">OccModule</text>
</g>
<!-- CartOccModule -->
<g id="node2" class="node">
<title>CartOccModule</title>
<polygon fill="#8dd3c7" stroke="#000000" points="314.1882,-187 311.1882,-191 290.1882,-191 287.1882,-187 207.8118,-187 207.8118,-151 314.1882,-151 314.1882,-187"/>
<text text-anchor="middle" x="261" y="-164.8" font-family="Times,serif" font-size="14.00" fill="#000000">CartOccModule</text>
</g>
<!-- OccModule&#45;&gt;CartOccModule -->
<g id="edge1" class="edge">
<title>OccModule&#45;&gt;CartOccModule</title>
<path fill="none" stroke="#000000" d="M302.5256,-122.1061C302.5256,-122.1061 302.5256,-140.991 302.5256,-140.991"/>
<polygon fill="#000000" stroke="#000000" points="299.0257,-140.9909 302.5256,-150.991 306.0257,-140.991 299.0257,-140.9909"/>
</g>
<!-- OccCartService -->
<g id="node3" class="node">
<title>OccCartService</title>
<ellipse fill="#fdb462" stroke="#000000" cx="195" cy="-104" rx="72.3245" ry="18"/>
<text text-anchor="middle" x="195" y="-99.8" font-family="Times,serif" font-size="14.00" fill="#000000">OccCartService</text>
</g>
<!-- OccCartService&#45;&gt;CartOccModule -->
<g id="edge2" class="edge">
<title>OccCartService&#45;&gt;CartOccModule</title>
<path fill="none" stroke="#000000" d="M237.534,-118.7495C237.534,-118.7495 237.534,-140.5882 237.534,-140.5882"/>
<polygon fill="#000000" stroke="#000000" points="234.0341,-140.5881 237.534,-150.5882 241.0341,-140.5882 234.0341,-140.5881"/>
</g>
</g>
</svg>
