<?xml version="1.0" encoding="UTF-8" standalone="no"?>
<!DOCTYPE svg PUBLIC "-//W3C//DTD SVG 1.1//EN"
 "http://www.w3.org/Graphics/SVG/1.1/DTD/svg11.dtd">
<!-- Generated by graphviz version 2.47.3 (20210619.1520)
 -->
<!-- Title: dependencies Pages: 1 -->
<svg width="1034pt" height="285pt"
 viewBox="0.00 0.00 1034.00 285.39" xmlns="http://www.w3.org/2000/svg" xmlns:xlink="http://www.w3.org/1999/xlink">
<g id="graph0" class="graph" transform="scale(1 1) rotate(0) translate(4 281.39)">
<title>dependencies</title>
<polygon fill="white" stroke="transparent" points="-4,4 -4,-281.39 1030,-281.39 1030,4 -4,4"/>
<text text-anchor="middle" x="513" y="-8.2" font-family="sans-serif" font-size="14.00">dependencies</text>
<g id="clust1" class="cluster">
<title>cluster_UnitAddressFormModule</title>
<polygon fill="none" stroke="black" stroke-dasharray="1,5" points="8,-32.8 8,-269.39 1018,-269.39 1018,-32.8 8,-32.8"/>
</g>
<g id="clust3" class="cluster">
<title>cluster_UnitAddressFormModule_UnitAddressFormComponent_providers</title>
<polygon fill="none" stroke="black" points="472,-40.8 472,-204.39 1010,-204.39 1010,-40.8 472,-40.8"/>
</g>
<g id="clust4" class="cluster">
<title>cluster_UnitAddressFormModule_imports</title>
<polygon fill="none" stroke="black" points="16,-152.39 16,-204.39 464,-204.39 464,-152.39 16,-152.39"/>
</g>
<!-- UnitAddressFormComponent -->
<g id="node1" class="node">
<title>UnitAddressFormComponent</title>
<polygon fill="#ffffb3" stroke="black" points="747.43,-196.39 564.57,-196.39 564.57,-160.39 747.43,-160.39 747.43,-196.39"/>
<text text-anchor="middle" x="656" y="-174.19" font-family="Times,serif" font-size="14.00">UnitAddressFormComponent</text>
</g>
<!-- UnitAddressFormModule -->
<g id="node2" class="node">
<title>UnitAddressFormModule</title>
<polygon fill="#8dd3c7" stroke="black" points="349.14,-261.39 346.14,-265.39 325.14,-265.39 322.14,-261.39 188.86,-261.39 188.86,-225.39 349.14,-225.39 349.14,-261.39"/>
<text text-anchor="middle" x="269" y="-239.19" font-family="Times,serif" font-size="14.00">UnitAddressFormModule</text>
</g>
<!-- UnitAddressFormComponent&#45;&gt;UnitAddressFormModule -->
<g id="edge1" class="edge">
<title>UnitAddressFormComponent&#45;&gt;UnitAddressFormModule</title>
<path fill="none" stroke="black" d="M656,-196.5C656,-215.73 656,-243.39 656,-243.39 656,-243.39 359.19,-243.39 359.19,-243.39"/>
<polygon fill="black" stroke="black" points="359.19,-239.89 349.19,-243.39 359.19,-246.89 359.19,-239.89"/>
</g>
<!-- {
 &#160;&#160;&#160;provide: ItemService, useExisting: UnitAddressItemService,
} -->
<g id="node3" class="node">
<title>{
 &#160;&#160;&#160;provide: ItemService, useExisting: UnitAddressItemService,
}</title>
<ellipse fill="#fdb462" stroke="black" cx="741" cy="-90.1" rx="261.41" ry="41.09"/>
<text text-anchor="middle" x="741" y="-102.7" font-family="Times,serif" font-size="14.00">{</text>
<text text-anchor="middle" x="741" y="-85.9" font-family="Times,serif" font-size="14.00"> &#160;&#160;&#160;provide: ItemService, useExisting: UnitAddressItemService,</text>
<text text-anchor="middle" x="741" y="-69.1" font-family="Times,serif" font-size="14.00">}</text>
</g>
<!-- {
 &#160;&#160;&#160;provide: ItemService, useExisting: UnitAddressItemService,
}&#45;&gt;UnitAddressFormComponent -->
<g id="edge2" class="edge">
<title>{
 &#160;&#160;&#160;provide: ItemService, useExisting: UnitAddressItemService,
}&#45;&gt;UnitAddressFormComponent</title>
<path fill="none" stroke="black" d="M656,-129.34C656,-129.34 656,-150.01 656,-150.01"/>
<polygon fill="black" stroke="black" points="652.5,-150.01 656,-160.01 659.5,-150.01 652.5,-150.01"/>
</g>
<!-- FormErrorsModule -->
<g id="node4" class="node">
<title>FormErrorsModule</title>
<polygon fill="#8dd3c7" stroke="black" points="456.36,-196.39 453.36,-200.39 432.36,-200.39 429.36,-196.39 331.64,-196.39 331.64,-160.39 456.36,-160.39 456.36,-196.39"/>
<text text-anchor="middle" x="394" y="-174.19" font-family="Times,serif" font-size="14.00">FormErrorsModule</text>
</g>
<!-- FormErrorsModule&#45;&gt;UnitAddressFormModule -->
<g id="edge3" class="edge">
<title>FormErrorsModule&#45;&gt;UnitAddressFormModule</title>
<path fill="none" stroke="black" d="M340.44,-196.5C340.44,-196.5 340.44,-215.38 340.44,-215.38"/>
<polygon fill="black" stroke="black" points="336.95,-215.38 340.44,-225.38 343.95,-215.38 336.95,-215.38"/>
</g>
<!-- FormModule -->
<g id="node5" class="node">
<title>FormModule</title>
<polygon fill="#8dd3c7" stroke="black" points="313.88,-196.39 310.88,-200.39 289.88,-200.39 286.88,-196.39 224.12,-196.39 224.12,-160.39 313.88,-160.39 313.88,-196.39"/>
<text text-anchor="middle" x="269" y="-174.19" font-family="Times,serif" font-size="14.00">FormModule</text>
</g>
<!-- FormModule&#45;&gt;UnitAddressFormModule -->
<g id="edge4" class="edge">
<title>FormModule&#45;&gt;UnitAddressFormModule</title>
<path fill="none" stroke="black" d="M269,-196.5C269,-196.5 269,-215.38 269,-215.38"/>
<polygon fill="black" stroke="black" points="265.5,-215.38 269,-225.38 272.5,-215.38 265.5,-215.38"/>
</g>
<!-- I18nModule -->
<g id="node6" class="node">
<title>I18nModule</title>
<polygon fill="#8dd3c7" stroke="black" points="205.71,-196.39 202.71,-200.39 181.71,-200.39 178.71,-196.39 120.29,-196.39 120.29,-160.39 205.71,-160.39 205.71,-196.39"/>
<text text-anchor="middle" x="163" y="-174.19" font-family="Times,serif" font-size="14.00">I18nModule</text>
</g>
<!-- I18nModule&#45;&gt;UnitAddressFormModule -->
<g id="edge5" class="edge">
<title>I18nModule&#45;&gt;UnitAddressFormModule</title>
<path fill="none" stroke="black" d="M197.14,-196.5C197.14,-196.5 197.14,-215.38 197.14,-215.38"/>
<polygon fill="black" stroke="black" points="193.64,-215.38 197.14,-225.38 200.64,-215.38 193.64,-215.38"/>
</g>
<!-- UrlModule -->
<g id="node7" class="node">
<title>UrlModule</title>
<polygon fill="#8dd3c7" stroke="black" points="102.21,-196.39 99.21,-200.39 78.21,-200.39 75.21,-196.39 23.79,-196.39 23.79,-160.39 102.21,-160.39 102.21,-196.39"/>
<text text-anchor="middle" x="63" y="-174.19" font-family="Times,serif" font-size="14.00">UrlModule</text>
</g>
<!-- UrlModule&#45;&gt;UnitAddressFormModule -->
<g id="edge6" class="edge">
<title>UrlModule&#45;&gt;UnitAddressFormModule</title>
<path fill="none" stroke="black" d="M63,-196.5C63,-215.73 63,-243.39 63,-243.39 63,-243.39 178.77,-243.39 178.77,-243.39"/>
<polygon fill="black" stroke="black" points="178.77,-246.89 188.77,-243.39 178.77,-239.89 178.77,-246.89"/>
</g>
</g>
</svg>
