<?xml version="1.0" encoding="UTF-8" standalone="no"?>
<!DOCTYPE svg PUBLIC "-//W3C//DTD SVG 1.1//EN"
 "http://www.w3.org/Graphics/SVG/1.1/DTD/svg11.dtd">
<!-- Generated by graphviz version 2.47.0 (20210316.0004)
 -->
<!-- Title: dependencies Pages: 1 -->
<svg width="1034pt" height="323pt"
 viewBox="0.00 0.00 1034.00 322.59" xmlns="http://www.w3.org/2000/svg" xmlns:xlink="http://www.w3.org/1999/xlink">
<g id="graph0" class="graph" transform="scale(1 1) rotate(0) translate(4 318.59)">
<title>dependencies</title>
<polygon fill="white" stroke="transparent" points="-4,4 -4,-318.59 1030,-318.59 1030,4 -4,4"/>
<text text-anchor="start" x="492.01" y="-42.4" font-family="sans-serif" font-weight="bold" font-size="14.00">Legend</text>
<polygon fill="#ffffb3" stroke="transparent" points="279,-10 279,-30 299,-30 299,-10 279,-10"/>
<text text-anchor="start" x="302.63" y="-15.4" font-family="sans-serif" font-size="14.00"> &#160;Declarations</text>
<polygon fill="#8dd3c7" stroke="transparent" points="392,-10 392,-30 412,-30 412,-10 392,-10"/>
<text text-anchor="start" x="415.73" y="-15.4" font-family="sans-serif" font-size="14.00"> &#160;Module</text>
<polygon fill="#80b1d3" stroke="transparent" points="478,-10 478,-30 498,-30 498,-10 478,-10"/>
<text text-anchor="start" x="501.78" y="-15.4" font-family="sans-serif" font-size="14.00"> &#160;Bootstrap</text>
<polygon fill="#fdb462" stroke="transparent" points="575,-10 575,-30 595,-30 595,-10 575,-10"/>
<text text-anchor="start" x="598.67" y="-15.4" font-family="sans-serif" font-size="14.00"> &#160;Providers</text>
<polygon fill="#fb8072" stroke="transparent" points="671,-10 671,-30 691,-30 691,-10 671,-10"/>
<text text-anchor="start" x="694.73" y="-15.4" font-family="sans-serif" font-size="14.00"> &#160;Exports</text>
<g id="clust1" class="cluster">
<title>cluster_UnitAddressFormModule</title>
<polygon fill="none" stroke="black" stroke-dasharray="1,5" points="8,-70 8,-306.59 1018,-306.59 1018,-70 8,-70"/>
</g>
<g id="clust3" class="cluster">
<title>cluster_UnitAddressFormModule_UnitAddressFormComponent_providers</title>
<polygon fill="none" stroke="black" points="472,-78 472,-241.59 1010,-241.59 1010,-78 472,-78"/>
</g>
<g id="clust4" class="cluster">
<title>cluster_UnitAddressFormModule_imports</title>
<polygon fill="none" stroke="black" points="16,-189.59 16,-241.59 464,-241.59 464,-189.59 16,-189.59"/>
</g>
<!-- UnitAddressFormComponent -->
<g id="node1" class="node">
<title>UnitAddressFormComponent</title>
<polygon fill="#ffffb3" stroke="black" points="747.43,-233.59 564.57,-233.59 564.57,-197.59 747.43,-197.59 747.43,-233.59"/>
<text text-anchor="middle" x="656" y="-211.39" font-family="Times,serif" font-size="14.00">UnitAddressFormComponent</text>
</g>
<!-- UnitAddressFormModule -->
<g id="node2" class="node">
<title>UnitAddressFormModule</title>
<polygon fill="#8dd3c7" stroke="black" points="349.14,-298.59 346.14,-302.59 325.14,-302.59 322.14,-298.59 188.86,-298.59 188.86,-262.59 349.14,-262.59 349.14,-298.59"/>
<text text-anchor="middle" x="269" y="-276.39" font-family="Times,serif" font-size="14.00">UnitAddressFormModule</text>
</g>
<!-- UnitAddressFormComponent&#45;&gt;UnitAddressFormModule -->
<g id="edge1" class="edge">
<title>UnitAddressFormComponent&#45;&gt;UnitAddressFormModule</title>
<path fill="none" stroke="black" d="M656,-233.7C656,-252.93 656,-280.59 656,-280.59 656,-280.59 359.19,-280.59 359.19,-280.59"/>
<polygon fill="black" stroke="black" points="359.19,-277.09 349.19,-280.59 359.19,-284.09 359.19,-277.09"/>
</g>
<!-- {
 &#160;&#160;&#160;provide: ItemService, useExisting: UnitAddressItemService,
} -->
<g id="node3" class="node">
<title>{
 &#160;&#160;&#160;provide: ItemService, useExisting: UnitAddressItemService,
}</title>
<ellipse fill="#fdb462" stroke="black" cx="741" cy="-127.3" rx="261.41" ry="41.09"/>
<text text-anchor="middle" x="741" y="-139.9" font-family="Times,serif" font-size="14.00">{</text>
<text text-anchor="middle" x="741" y="-123.1" font-family="Times,serif" font-size="14.00"> &#160;&#160;&#160;provide: ItemService, useExisting: UnitAddressItemService,</text>
<text text-anchor="middle" x="741" y="-106.3" font-family="Times,serif" font-size="14.00">}</text>
</g>
<!-- {
 &#160;&#160;&#160;provide: ItemService, useExisting: UnitAddressItemService,
}&#45;&gt;UnitAddressFormComponent -->
<g id="edge2" class="edge">
<title>{
 &#160;&#160;&#160;provide: ItemService, useExisting: UnitAddressItemService,
}&#45;&gt;UnitAddressFormComponent</title>
<path fill="none" stroke="black" d="M656,-166.54C656,-166.54 656,-187.21 656,-187.21"/>
<polygon fill="black" stroke="black" points="652.5,-187.21 656,-197.21 659.5,-187.21 652.5,-187.21"/>
</g>
<!-- FormErrorsModule -->
<g id="node4" class="node">
<title>FormErrorsModule</title>
<polygon fill="#8dd3c7" stroke="black" points="456.36,-233.59 453.36,-237.59 432.36,-237.59 429.36,-233.59 331.64,-233.59 331.64,-197.59 456.36,-197.59 456.36,-233.59"/>
<text text-anchor="middle" x="394" y="-211.39" font-family="Times,serif" font-size="14.00">FormErrorsModule</text>
</g>
<!-- FormErrorsModule&#45;&gt;UnitAddressFormModule -->
<g id="edge3" class="edge">
<title>FormErrorsModule&#45;&gt;UnitAddressFormModule</title>
<path fill="none" stroke="black" d="M340.44,-233.7C340.44,-233.7 340.44,-252.58 340.44,-252.58"/>
<polygon fill="black" stroke="black" points="336.95,-252.58 340.44,-262.58 343.95,-252.58 336.95,-252.58"/>
</g>
<!-- FormModule -->
<g id="node5" class="node">
<title>FormModule</title>
<polygon fill="#8dd3c7" stroke="black" points="313.88,-233.59 310.88,-237.59 289.88,-237.59 286.88,-233.59 224.12,-233.59 224.12,-197.59 313.88,-197.59 313.88,-233.59"/>
<text text-anchor="middle" x="269" y="-211.39" font-family="Times,serif" font-size="14.00">FormModule</text>
</g>
<!-- FormModule&#45;&gt;UnitAddressFormModule -->
<g id="edge4" class="edge">
<title>FormModule&#45;&gt;UnitAddressFormModule</title>
<path fill="none" stroke="black" d="M269,-233.7C269,-233.7 269,-252.58 269,-252.58"/>
<polygon fill="black" stroke="black" points="265.5,-252.58 269,-262.58 272.5,-252.58 265.5,-252.58"/>
</g>
<!-- I18nModule -->
<g id="node6" class="node">
<title>I18nModule</title>
<polygon fill="#8dd3c7" stroke="black" points="205.71,-233.59 202.71,-237.59 181.71,-237.59 178.71,-233.59 120.29,-233.59 120.29,-197.59 205.71,-197.59 205.71,-233.59"/>
<text text-anchor="middle" x="163" y="-211.39" font-family="Times,serif" font-size="14.00">I18nModule</text>
</g>
<!-- I18nModule&#45;&gt;UnitAddressFormModule -->
<g id="edge5" class="edge">
<title>I18nModule&#45;&gt;UnitAddressFormModule</title>
<path fill="none" stroke="black" d="M197.14,-233.7C197.14,-233.7 197.14,-252.58 197.14,-252.58"/>
<polygon fill="black" stroke="black" points="193.64,-252.58 197.14,-262.58 200.64,-252.58 193.64,-252.58"/>
</g>
<!-- UrlModule -->
<g id="node7" class="node">
<title>UrlModule</title>
<polygon fill="#8dd3c7" stroke="black" points="102.21,-233.59 99.21,-237.59 78.21,-237.59 75.21,-233.59 23.79,-233.59 23.79,-197.59 102.21,-197.59 102.21,-233.59"/>
<text text-anchor="middle" x="63" y="-211.39" font-family="Times,serif" font-size="14.00">UrlModule</text>
</g>
<!-- UrlModule&#45;&gt;UnitAddressFormModule -->
<g id="edge6" class="edge">
<title>UrlModule&#45;&gt;UnitAddressFormModule</title>
<path fill="none" stroke="black" d="M63,-233.7C63,-252.93 63,-280.59 63,-280.59 63,-280.59 178.77,-280.59 178.77,-280.59"/>
<polygon fill="black" stroke="black" points="178.77,-284.09 188.77,-280.59 178.77,-277.09 178.77,-284.09"/>
</g>
</g>
</svg>
