<?xml version="1.0" encoding="UTF-8" standalone="no"?>
<!DOCTYPE svg PUBLIC "-//W3C//DTD SVG 1.1//EN"
 "http://www.w3.org/Graphics/SVG/1.1/DTD/svg11.dtd">
<!-- Generated by graphviz version 2.47.3 (20210619.1520)
 -->
<!-- Title: dependencies Pages: 1 -->
<svg width="694pt" height="174pt"
 viewBox="0.00 0.00 694.00 173.80" xmlns="http://www.w3.org/2000/svg" xmlns:xlink="http://www.w3.org/1999/xlink">
<g id="graph0" class="graph" transform="scale(1 1) rotate(0) translate(4 169.8)">
<title>dependencies</title>
<polygon fill="white" stroke="transparent" points="-4,4 -4,-169.8 690,-169.8 690,4 -4,4"/>
<text text-anchor="middle" x="343" y="-8.2" font-family="sans-serif" font-size="14.00">dependencies</text>
<g id="clust1" class="cluster">
<title>cluster_UnitAddressFormModule</title>
<polygon fill="none" stroke="black" stroke-dasharray="1,5" points="8,-32.8 8,-157.8 678,-157.8 678,-32.8 8,-32.8"/>
</g>
<g id="clust2" class="cluster">
<title>cluster_UnitAddressFormModule_declarations</title>
<polygon fill="none" stroke="black" points="472,-40.8 472,-92.8 670,-92.8 670,-40.8 472,-40.8"/>
</g>
<g id="clust4" class="cluster">
<title>cluster_UnitAddressFormModule_imports</title>
<polygon fill="none" stroke="black" points="16,-40.8 16,-92.8 464,-92.8 464,-40.8 16,-40.8"/>
</g>
<!-- UnitAddressFormComponent -->
<g id="node1" class="node">
<title>UnitAddressFormComponent</title>
<polygon fill="#ffffb3" stroke="black" points="662.43,-84.8 479.57,-84.8 479.57,-48.8 662.43,-48.8 662.43,-84.8"/>
<text text-anchor="middle" x="571" y="-62.6" font-family="Times,serif" font-size="14.00">UnitAddressFormComponent</text>
</g>
<!-- UnitAddressFormModule -->
<g id="node2" class="node">
<title>UnitAddressFormModule</title>
<polygon fill="#8dd3c7" stroke="black" points="349.14,-149.8 346.14,-153.8 325.14,-153.8 322.14,-149.8 188.86,-149.8 188.86,-113.8 349.14,-113.8 349.14,-149.8"/>
<text text-anchor="middle" x="269" y="-127.6" font-family="Times,serif" font-size="14.00">UnitAddressFormModule</text>
</g>
<!-- UnitAddressFormComponent&#45;&gt;UnitAddressFormModule -->
<g id="edge1" class="edge">
<title>UnitAddressFormComponent&#45;&gt;UnitAddressFormModule</title>
<path fill="none" stroke="black" d="M571,-84.91C571,-104.14 571,-131.8 571,-131.8 571,-131.8 359.53,-131.8 359.53,-131.8"/>
<polygon fill="black" stroke="black" points="359.53,-128.3 349.53,-131.8 359.53,-135.3 359.53,-128.3"/>
</g>
<!-- FormErrorsModule -->
<g id="node3" class="node">
<title>FormErrorsModule</title>
<polygon fill="#8dd3c7" stroke="black" points="456.36,-84.8 453.36,-88.8 432.36,-88.8 429.36,-84.8 331.64,-84.8 331.64,-48.8 456.36,-48.8 456.36,-84.8"/>
<text text-anchor="middle" x="394" y="-62.6" font-family="Times,serif" font-size="14.00">FormErrorsModule</text>
</g>
<!-- FormErrorsModule&#45;&gt;UnitAddressFormModule -->
<g id="edge2" class="edge">
<title>FormErrorsModule&#45;&gt;UnitAddressFormModule</title>
<path fill="none" stroke="black" d="M340.44,-84.91C340.44,-84.91 340.44,-103.79 340.44,-103.79"/>
<polygon fill="black" stroke="black" points="336.95,-103.79 340.44,-113.79 343.95,-103.79 336.95,-103.79"/>
</g>
<!-- FormModule -->
<g id="node4" class="node">
<title>FormModule</title>
<polygon fill="#8dd3c7" stroke="black" points="313.88,-84.8 310.88,-88.8 289.88,-88.8 286.88,-84.8 224.12,-84.8 224.12,-48.8 313.88,-48.8 313.88,-84.8"/>
<text text-anchor="middle" x="269" y="-62.6" font-family="Times,serif" font-size="14.00">FormModule</text>
</g>
<!-- FormModule&#45;&gt;UnitAddressFormModule -->
<g id="edge3" class="edge">
<title>FormModule&#45;&gt;UnitAddressFormModule</title>
<path fill="none" stroke="black" d="M269,-84.91C269,-84.91 269,-103.79 269,-103.79"/>
<polygon fill="black" stroke="black" points="265.5,-103.79 269,-113.79 272.5,-103.79 265.5,-103.79"/>
</g>
<!-- I18nModule -->
<g id="node5" class="node">
<title>I18nModule</title>
<polygon fill="#8dd3c7" stroke="black" points="205.71,-84.8 202.71,-88.8 181.71,-88.8 178.71,-84.8 120.29,-84.8 120.29,-48.8 205.71,-48.8 205.71,-84.8"/>
<text text-anchor="middle" x="163" y="-62.6" font-family="Times,serif" font-size="14.00">I18nModule</text>
</g>
<!-- I18nModule&#45;&gt;UnitAddressFormModule -->
<g id="edge4" class="edge">
<title>I18nModule&#45;&gt;UnitAddressFormModule</title>
<path fill="none" stroke="black" d="M197.14,-84.91C197.14,-84.91 197.14,-103.79 197.14,-103.79"/>
<polygon fill="black" stroke="black" points="193.64,-103.79 197.14,-113.79 200.64,-103.79 193.64,-103.79"/>
</g>
<!-- UrlModule -->
<g id="node6" class="node">
<title>UrlModule</title>
<polygon fill="#8dd3c7" stroke="black" points="102.21,-84.8 99.21,-88.8 78.21,-88.8 75.21,-84.8 23.79,-84.8 23.79,-48.8 102.21,-48.8 102.21,-84.8"/>
<text text-anchor="middle" x="63" y="-62.6" font-family="Times,serif" font-size="14.00">UrlModule</text>
</g>
<!-- UrlModule&#45;&gt;UnitAddressFormModule -->
<g id="edge5" class="edge">
<title>UrlModule&#45;&gt;UnitAddressFormModule</title>
<path fill="none" stroke="black" d="M63,-84.91C63,-104.14 63,-131.8 63,-131.8 63,-131.8 178.77,-131.8 178.77,-131.8"/>
<polygon fill="black" stroke="black" points="178.77,-135.3 188.77,-131.8 178.77,-128.3 178.77,-135.3"/>
</g>
</g>
</svg>
