<?xml version="1.0" encoding="UTF-8" standalone="no"?>
<!DOCTYPE svg PUBLIC "-//W3C//DTD SVG 1.1//EN"
 "http://www.w3.org/Graphics/SVG/1.1/DTD/svg11.dtd">
<!-- Generated by graphviz version 2.47.0 (20210316.0004)
 -->
<!-- Title: dependencies Pages: 1 -->
<svg width="694pt" height="323pt"
 viewBox="0.00 0.00 694.00 322.59" xmlns="http://www.w3.org/2000/svg" xmlns:xlink="http://www.w3.org/1999/xlink">
<g id="graph0" class="graph" transform="scale(1 1) rotate(0) translate(4 318.59)">
<title>dependencies</title>
<polygon fill="white" stroke="transparent" points="-4,4 -4,-318.59 690,-318.59 690,4 -4,4"/>
<text text-anchor="start" x="322.01" y="-42.4" font-family="sans-serif" font-weight="bold" font-size="14.00">Legend</text>
<polygon fill="#ffffb3" stroke="transparent" points="109,-10 109,-30 129,-30 129,-10 109,-10"/>
<text text-anchor="start" x="132.63" y="-15.4" font-family="sans-serif" font-size="14.00"> &#160;Declarations</text>
<polygon fill="#8dd3c7" stroke="transparent" points="222,-10 222,-30 242,-30 242,-10 222,-10"/>
<text text-anchor="start" x="245.73" y="-15.4" font-family="sans-serif" font-size="14.00"> &#160;Module</text>
<polygon fill="#80b1d3" stroke="transparent" points="308,-10 308,-30 328,-30 328,-10 308,-10"/>
<text text-anchor="start" x="331.78" y="-15.4" font-family="sans-serif" font-size="14.00"> &#160;Bootstrap</text>
<polygon fill="#fdb462" stroke="transparent" points="405,-10 405,-30 425,-30 425,-10 405,-10"/>
<text text-anchor="start" x="428.67" y="-15.4" font-family="sans-serif" font-size="14.00"> &#160;Providers</text>
<polygon fill="#fb8072" stroke="transparent" points="501,-10 501,-30 521,-30 521,-10 501,-10"/>
<text text-anchor="start" x="524.73" y="-15.4" font-family="sans-serif" font-size="14.00"> &#160;Exports</text>
<g id="clust1" class="cluster">
<title>cluster_UnitAddressFormModule</title>
<polygon fill="none" stroke="black" stroke-dasharray="1,5" points="8,-70 8,-306.59 678,-306.59 678,-70 8,-70"/>
</g>
<g id="clust4" class="cluster">
<title>cluster_UnitAddressFormModule_imports</title>
<polygon fill="none" stroke="black" points="222,-189.59 222,-241.59 670,-241.59 670,-189.59 222,-189.59"/>
</g>
<g id="clust2" class="cluster">
<title>cluster_UnitAddressFormModule_declarations</title>
<polygon fill="none" stroke="black" points="16,-189.59 16,-241.59 214,-241.59 214,-189.59 16,-189.59"/>
</g>
<g id="clust3" class="cluster">
<title>cluster_UnitAddressFormModule_UnitAddressFormComponent_providers</title>
<polygon fill="none" stroke="black" points="16,-78 16,-176.59 554,-176.59 554,-78 16,-78"/>
</g>
<!-- UnitAddressFormComponent -->
<g id="node1" class="node">
<title>UnitAddressFormComponent</title>
<polygon fill="#ffffb3" stroke="black" points="206.43,-233.59 23.57,-233.59 23.57,-197.59 206.43,-197.59 206.43,-233.59"/>
<text text-anchor="middle" x="115" y="-211.39" font-family="Times,serif" font-size="14.00">UnitAddressFormComponent</text>
</g>
<!-- UnitAddressFormModule -->
<g id="node2" class="node">
<title>UnitAddressFormModule</title>
<polygon fill="#8dd3c7" stroke="black" points="449.14,-298.59 446.14,-302.59 425.14,-302.59 422.14,-298.59 288.86,-298.59 288.86,-262.59 449.14,-262.59 449.14,-298.59"/>
<text text-anchor="middle" x="369" y="-276.39" font-family="Times,serif" font-size="14.00">UnitAddressFormModule</text>
</g>
<!-- UnitAddressFormComponent&#45;&gt;UnitAddressFormModule -->
<g id="edge1" class="edge">
<title>UnitAddressFormComponent&#45;&gt;UnitAddressFormModule</title>
<path fill="none" stroke="black" d="M115,-233.7C115,-252.93 115,-280.59 115,-280.59 115,-280.59 278.63,-280.59 278.63,-280.59"/>
<polygon fill="black" stroke="black" points="278.63,-284.09 288.63,-280.59 278.63,-277.09 278.63,-284.09"/>
</g>
<!-- {
 &#160;&#160;&#160;provide: ItemService, useExisting: UnitAddressItemService,
} -->
<g id="node3" class="node">
<title>{
 &#160;&#160;&#160;provide: ItemService, useExisting: UnitAddressItemService,
}</title>
<ellipse fill="#fdb462" stroke="black" cx="285" cy="-127.3" rx="261.41" ry="41.09"/>
<text text-anchor="middle" x="285" y="-139.9" font-family="Times,serif" font-size="14.00">{</text>
<text text-anchor="middle" x="285" y="-123.1" font-family="Times,serif" font-size="14.00"> &#160;&#160;&#160;provide: ItemService, useExisting: UnitAddressItemService,</text>
<text text-anchor="middle" x="285" y="-106.3" font-family="Times,serif" font-size="14.00">}</text>
</g>
<!-- {
 &#160;&#160;&#160;provide: ItemService, useExisting: UnitAddressItemService,
}&#45;&gt;UnitAddressFormComponent -->
<g id="edge2" class="edge">
<title>{
 &#160;&#160;&#160;provide: ItemService, useExisting: UnitAddressItemService,
}&#45;&gt;UnitAddressFormComponent</title>
<path fill="none" stroke="black" d="M115,-158.67C115,-158.67 115,-187.42 115,-187.42"/>
<polygon fill="black" stroke="black" points="111.5,-187.42 115,-197.42 118.5,-187.42 111.5,-187.42"/>
</g>
<!-- FormErrorsModule -->
<g id="node4" class="node">
<title>FormErrorsModule</title>
<polygon fill="#8dd3c7" stroke="black" points="662.36,-233.59 659.36,-237.59 638.36,-237.59 635.36,-233.59 537.64,-233.59 537.64,-197.59 662.36,-197.59 662.36,-233.59"/>
<text text-anchor="middle" x="600" y="-211.39" font-family="Times,serif" font-size="14.00">FormErrorsModule</text>
</g>
<!-- FormErrorsModule&#45;&gt;UnitAddressFormModule -->
<g id="edge3" class="edge">
<title>FormErrorsModule&#45;&gt;UnitAddressFormModule</title>
<path fill="none" stroke="black" d="M600,-233.7C600,-252.93 600,-280.59 600,-280.59 600,-280.59 459.14,-280.59 459.14,-280.59"/>
<polygon fill="black" stroke="black" points="459.14,-277.09 449.14,-280.59 459.14,-284.09 459.14,-277.09"/>
</g>
<!-- FormModule -->
<g id="node5" class="node">
<title>FormModule</title>
<polygon fill="#8dd3c7" stroke="black" points="519.88,-233.59 516.88,-237.59 495.88,-237.59 492.88,-233.59 430.12,-233.59 430.12,-197.59 519.88,-197.59 519.88,-233.59"/>
<text text-anchor="middle" x="475" y="-211.39" font-family="Times,serif" font-size="14.00">FormModule</text>
</g>
<!-- FormModule&#45;&gt;UnitAddressFormModule -->
<g id="edge4" class="edge">
<title>FormModule&#45;&gt;UnitAddressFormModule</title>
<path fill="none" stroke="black" d="M439.69,-233.7C439.69,-233.7 439.69,-252.58 439.69,-252.58"/>
<polygon fill="black" stroke="black" points="436.19,-252.58 439.69,-262.58 443.19,-252.58 436.19,-252.58"/>
</g>
<!-- I18nModule -->
<g id="node6" class="node">
<title>I18nModule</title>
<polygon fill="#8dd3c7" stroke="black" points="411.71,-233.59 408.71,-237.59 387.71,-237.59 384.71,-233.59 326.29,-233.59 326.29,-197.59 411.71,-197.59 411.71,-233.59"/>
<text text-anchor="middle" x="369" y="-211.39" font-family="Times,serif" font-size="14.00">I18nModule</text>
</g>
<!-- I18nModule&#45;&gt;UnitAddressFormModule -->
<g id="edge5" class="edge">
<title>I18nModule&#45;&gt;UnitAddressFormModule</title>
<path fill="none" stroke="black" d="M369,-233.7C369,-233.7 369,-252.58 369,-252.58"/>
<polygon fill="black" stroke="black" points="365.5,-252.58 369,-262.58 372.5,-252.58 365.5,-252.58"/>
</g>
<!-- UrlModule -->
<g id="node7" class="node">
<title>UrlModule</title>
<polygon fill="#8dd3c7" stroke="black" points="308.21,-233.59 305.21,-237.59 284.21,-237.59 281.21,-233.59 229.79,-233.59 229.79,-197.59 308.21,-197.59 308.21,-233.59"/>
<text text-anchor="middle" x="269" y="-211.39" font-family="Times,serif" font-size="14.00">UrlModule</text>
</g>
<!-- UrlModule&#45;&gt;UnitAddressFormModule -->
<g id="edge6" class="edge">
<title>UrlModule&#45;&gt;UnitAddressFormModule</title>
<path fill="none" stroke="black" d="M298.39,-233.7C298.39,-233.7 298.39,-252.58 298.39,-252.58"/>
<polygon fill="black" stroke="black" points="294.89,-252.58 298.39,-262.58 301.89,-252.58 294.89,-252.58"/>
</g>
</g>
</svg>
