<?xml version="1.0" encoding="UTF-8" standalone="no"?>
<!DOCTYPE svg PUBLIC "-//W3C//DTD SVG 1.1//EN"
 "http://www.w3.org/Graphics/SVG/1.1/DTD/svg11.dtd">
<!-- Generated by graphviz version 2.40.1 (20161225.0304)
 -->
<!-- Title: dependencies Pages: 1 -->
<svg width="1005pt" height="211pt"
 viewBox="0.00 0.00 1005.00 211.00" xmlns="http://www.w3.org/2000/svg" xmlns:xlink="http://www.w3.org/1999/xlink">
<g id="graph0" class="graph" transform="scale(1 1) rotate(0) translate(4 207)">
<title>dependencies</title>
<polygon fill="#ffffff" stroke="transparent" points="-4,4 -4,-207 1001,-207 1001,4 -4,4"/>
<text text-anchor="start" x="477.5091" y="-42.4" font-family="sans-serif" font-weight="bold" font-size="14.00" fill="#000000">Legend</text>
<polygon fill="#ffffb3" stroke="transparent" points="264.5,-10 264.5,-30 284.5,-30 284.5,-10 264.5,-10"/>
<text text-anchor="start" x="288.129" y="-15.4" font-family="sans-serif" font-size="14.00" fill="#000000"> &#160;Declarations</text>
<polygon fill="#8dd3c7" stroke="transparent" points="377.5,-10 377.5,-30 397.5,-30 397.5,-10 377.5,-10"/>
<text text-anchor="start" x="401.2251" y="-15.4" font-family="sans-serif" font-size="14.00" fill="#000000"> &#160;Module</text>
<polygon fill="#80b1d3" stroke="transparent" points="463.5,-10 463.5,-30 483.5,-30 483.5,-10 463.5,-10"/>
<text text-anchor="start" x="487.2812" y="-15.4" font-family="sans-serif" font-size="14.00" fill="#000000"> &#160;Bootstrap</text>
<polygon fill="#fdb462" stroke="transparent" points="560.5,-10 560.5,-30 580.5,-30 580.5,-10 560.5,-10"/>
<text text-anchor="start" x="584.1732" y="-15.4" font-family="sans-serif" font-size="14.00" fill="#000000"> &#160;Providers</text>
<polygon fill="#fb8072" stroke="transparent" points="656.5,-10 656.5,-30 676.5,-30 676.5,-10 656.5,-10"/>
<text text-anchor="start" x="680.2258" y="-15.4" font-family="sans-serif" font-size="14.00" fill="#000000"> &#160;Exports</text>
<g id="clust1" class="cluster">
<title>cluster_UserProfileComponentsModule</title>
<polygon fill="none" stroke="#000000" stroke-dasharray="1,5" points="8,-70 8,-195 989,-195 989,-70 8,-70"/>
</g>
<g id="clust3" class="cluster">
<title>cluster_UserProfileComponentsModule_imports</title>
<polygon fill="none" stroke="#000000" points="16,-78 16,-130 981,-130 981,-78 16,-78"/>
</g>
<!-- CloseAccountModule -->
<g id="node1" class="node">
<title>CloseAccountModule</title>
<polygon fill="#8dd3c7" stroke="#000000" points="973.3627,-122 970.3627,-126 949.3627,-126 946.3627,-122 834.6373,-122 834.6373,-86 973.3627,-86 973.3627,-122"/>
<text text-anchor="middle" x="904" y="-99.8" font-family="Times,serif" font-size="14.00" fill="#000000">CloseAccountModule</text>
</g>
<!-- UserProfileComponentsModule -->
<g id="node7" class="node">
<title>UserProfileComponentsModule</title>
<polygon fill="#8dd3c7" stroke="#000000" points="594.3529,-187 591.3529,-191 570.3529,-191 567.3529,-187 399.6471,-187 399.6471,-151 594.3529,-151 594.3529,-187"/>
<text text-anchor="middle" x="497" y="-164.8" font-family="Times,serif" font-size="14.00" fill="#000000">UserProfileComponentsModule</text>
</g>
<!-- CloseAccountModule&#45;&gt;UserProfileComponentsModule -->
<g id="edge1" class="edge">
<title>CloseAccountModule&#45;&gt;UserProfileComponentsModule</title>
<path fill="none" stroke="#000000" d="M904,-122.2843C904,-143.3211 904,-175 904,-175 904,-175 604.4866,-175 604.4866,-175"/>
<polygon fill="#000000" stroke="#000000" points="604.4867,-171.5001 594.4866,-175 604.4866,-178.5001 604.4867,-171.5001"/>
</g>
<!-- ForgotPasswordModule -->
<g id="node2" class="node">
<title>ForgotPasswordModule</title>
<polygon fill="#8dd3c7" stroke="#000000" points="816.0379,-122 813.0379,-126 792.0379,-126 789.0379,-122 665.9621,-122 665.9621,-86 816.0379,-86 816.0379,-122"/>
<text text-anchor="middle" x="741" y="-99.8" font-family="Times,serif" font-size="14.00" fill="#000000">ForgotPasswordModule</text>
</g>
<!-- ForgotPasswordModule&#45;&gt;UserProfileComponentsModule -->
<g id="edge2" class="edge">
<title>ForgotPasswordModule&#45;&gt;UserProfileComponentsModule</title>
<path fill="none" stroke="#000000" d="M741,-122.0225C741,-139.3734 741,-163 741,-163 741,-163 604.4872,-163 604.4872,-163"/>
<polygon fill="#000000" stroke="#000000" points="604.4872,-159.5001 594.4872,-163 604.4872,-166.5001 604.4872,-159.5001"/>
</g>
<!-- ResetPasswordModule -->
<g id="node3" class="node">
<title>ResetPasswordModule</title>
<polygon fill="#8dd3c7" stroke="#000000" points="648.3047,-122 645.3047,-126 624.3047,-126 621.3047,-122 503.6953,-122 503.6953,-86 648.3047,-86 648.3047,-122"/>
<text text-anchor="middle" x="576" y="-99.8" font-family="Times,serif" font-size="14.00" fill="#000000">ResetPasswordModule</text>
</g>
<!-- ResetPasswordModule&#45;&gt;UserProfileComponentsModule -->
<g id="edge3" class="edge">
<title>ResetPasswordModule&#45;&gt;UserProfileComponentsModule</title>
<path fill="none" stroke="#000000" d="M549.1371,-122.1061C549.1371,-122.1061 549.1371,-140.991 549.1371,-140.991"/>
<polygon fill="#000000" stroke="#000000" points="545.6372,-140.9909 549.1371,-150.991 552.6372,-140.991 545.6372,-140.9909"/>
</g>
<!-- UpdateEmailModule -->
<g id="node4" class="node">
<title>UpdateEmailModule</title>
<polygon fill="#8dd3c7" stroke="#000000" points="485.9158,-122 482.9158,-126 461.9158,-126 458.9158,-122 352.0842,-122 352.0842,-86 485.9158,-86 485.9158,-122"/>
<text text-anchor="middle" x="419" y="-99.8" font-family="Times,serif" font-size="14.00" fill="#000000">UpdateEmailModule</text>
</g>
<!-- UpdateEmailModule&#45;&gt;UserProfileComponentsModule -->
<g id="edge4" class="edge">
<title>UpdateEmailModule&#45;&gt;UserProfileComponentsModule</title>
<path fill="none" stroke="#000000" d="M442.6406,-122.1061C442.6406,-122.1061 442.6406,-140.991 442.6406,-140.991"/>
<polygon fill="#000000" stroke="#000000" points="439.1407,-140.9909 442.6406,-150.991 446.1407,-140.991 439.1407,-140.9909"/>
</g>
<!-- UpdatePasswordModule -->
<g id="node5" class="node">
<title>UpdatePasswordModule</title>
<polygon fill="#8dd3c7" stroke="#000000" points="333.6302,-122 330.6302,-126 309.6302,-126 306.6302,-122 180.3698,-122 180.3698,-86 333.6302,-86 333.6302,-122"/>
<text text-anchor="middle" x="257" y="-99.8" font-family="Times,serif" font-size="14.00" fill="#000000">UpdatePasswordModule</text>
</g>
<!-- UpdatePasswordModule&#45;&gt;UserProfileComponentsModule -->
<g id="edge5" class="edge">
<title>UpdatePasswordModule&#45;&gt;UserProfileComponentsModule</title>
<path fill="none" stroke="#000000" d="M257,-122.0225C257,-139.3734 257,-163 257,-163 257,-163 389.3828,-163 389.3828,-163"/>
<polygon fill="#000000" stroke="#000000" points="389.3828,-166.5001 399.3828,-163 389.3828,-159.5001 389.3828,-166.5001"/>
</g>
<!-- UpdateProfileModule -->
<g id="node6" class="node">
<title>UpdateProfileModule</title>
<polygon fill="#8dd3c7" stroke="#000000" points="162.0758,-122 159.0758,-126 138.0758,-126 135.0758,-122 23.9242,-122 23.9242,-86 162.0758,-86 162.0758,-122"/>
<text text-anchor="middle" x="93" y="-99.8" font-family="Times,serif" font-size="14.00" fill="#000000">UpdateProfileModule</text>
</g>
<!-- UpdateProfileModule&#45;&gt;UserProfileComponentsModule -->
<g id="edge6" class="edge">
<title>UpdateProfileModule&#45;&gt;UserProfileComponentsModule</title>
<path fill="none" stroke="#000000" d="M93,-122.2843C93,-143.3211 93,-175 93,-175 93,-175 389.4604,-175 389.4604,-175"/>
<polygon fill="#000000" stroke="#000000" points="389.4605,-178.5001 399.4604,-175 389.4604,-171.5001 389.4605,-178.5001"/>
</g>
</g>
</svg>
