<?xml version="1.0" encoding="UTF-8" standalone="no"?>
<!DOCTYPE svg PUBLIC "-//W3C//DTD SVG 1.1//EN"
 "http://www.w3.org/Graphics/SVG/1.1/DTD/svg11.dtd">
<!-- Generated by graphviz version 2.47.3 (20210619.1520)
 -->
<!-- Title: dependencies Pages: 1 -->
<svg width="956pt" height="312pt"
 viewBox="0.00 0.00 956.00 311.80" xmlns="http://www.w3.org/2000/svg" xmlns:xlink="http://www.w3.org/1999/xlink">
<g id="graph0" class="graph" transform="scale(1 1) rotate(0) translate(4 307.8)">
<title>dependencies</title>
<polygon fill="white" stroke="transparent" points="-4,4 -4,-307.8 952,-307.8 952,4 -4,4"/>
<text text-anchor="middle" x="474" y="-8.2" font-family="sans-serif" font-size="14.00">dependencies</text>
<g id="clust1" class="cluster">
<title>cluster_VisualPickingTabModule</title>
<polygon fill="none" stroke="black" stroke-dasharray="1,5" points="8,-32.8 8,-295.8 940,-295.8 940,-32.8 8,-32.8"/>
</g>
<g id="clust4" class="cluster">
<title>cluster_VisualPickingTabModule_imports</title>
<polygon fill="none" stroke="black" points="222,-105.8 222,-157.8 932,-157.8 932,-105.8 222,-105.8"/>
</g>
<g id="clust2" class="cluster">
<title>cluster_VisualPickingTabModule_declarations</title>
<polygon fill="none" stroke="black" points="16,-105.8 16,-157.8 214,-157.8 214,-105.8 16,-105.8"/>
</g>
<g id="clust3" class="cluster">
<title>cluster_VisualPickingTabModule_VisualPickingTabComponent_providers</title>
<polygon fill="none" stroke="black" points="16,-40.8 16,-92.8 252,-92.8 252,-40.8 16,-40.8"/>
</g>
<g id="clust5" class="cluster">
<title>cluster_VisualPickingTabModule_exports</title>
<polygon fill="none" stroke="black" points="387,-235.8 387,-287.8 589,-287.8 589,-235.8 387,-235.8"/>
</g>
<!-- VisualPickingTabComponent -->
<g id="node1" class="node">
<title>VisualPickingTabComponent</title>
<polygon fill="#ffffb3" stroke="black" points="206.43,-149.8 23.57,-149.8 23.57,-113.8 206.43,-113.8 206.43,-149.8"/>
<text text-anchor="middle" x="115" y="-127.6" font-family="Times,serif" font-size="14.00">VisualPickingTabComponent</text>
</g>
<!-- VisualPickingTabModule -->
<g id="node2" class="node">
<title>VisualPickingTabModule</title>
<polygon fill="#8dd3c7" stroke="black" points="568.14,-214.8 565.14,-218.8 544.14,-218.8 541.14,-214.8 407.86,-214.8 407.86,-178.8 568.14,-178.8 568.14,-214.8"/>
<text text-anchor="middle" x="488" y="-192.6" font-family="Times,serif" font-size="14.00">VisualPickingTabModule</text>
</g>
<!-- VisualPickingTabComponent&#45;&gt;VisualPickingTabModule -->
<g id="edge1" class="edge">
<title>VisualPickingTabComponent&#45;&gt;VisualPickingTabModule</title>
<path fill="none" stroke="black" d="M115,-150.08C115,-171.12 115,-202.8 115,-202.8 115,-202.8 397.52,-202.8 397.52,-202.8"/>
<polygon fill="black" stroke="black" points="397.52,-206.3 407.52,-202.8 397.52,-199.3 397.52,-206.3"/>
</g>
<!-- VisualPickingTabComponent  -->
<g id="node8" class="node">
<title>VisualPickingTabComponent </title>
<polygon fill="#fb8072" stroke="black" points="580.93,-279.8 395.07,-279.8 395.07,-243.8 580.93,-243.8 580.93,-279.8"/>
<text text-anchor="middle" x="488" y="-257.6" font-family="Times,serif" font-size="14.00">VisualPickingTabComponent </text>
</g>
<!-- VisualPickingTabModule&#45;&gt;VisualPickingTabComponent  -->
<g id="edge7" class="edge">
<title>VisualPickingTabModule&#45;&gt;VisualPickingTabComponent </title>
<path fill="none" stroke="black" stroke-dasharray="5,2" d="M488,-214.91C488,-214.91 488,-233.79 488,-233.79"/>
<polygon fill="black" stroke="black" points="484.5,-233.79 488,-243.79 491.5,-233.79 484.5,-233.79"/>
</g>
<!-- VisualPickingTabService -->
<g id="node3" class="node">
<title>VisualPickingTabService</title>
<ellipse fill="#fdb462" stroke="black" cx="134" cy="-66.8" rx="109.95" ry="18"/>
<text text-anchor="middle" x="134" y="-62.6" font-family="Times,serif" font-size="14.00">VisualPickingTabService</text>
</g>
<!-- VisualPickingTabService&#45;&gt;VisualPickingTabComponent -->
<g id="edge2" class="edge">
<title>VisualPickingTabService&#45;&gt;VisualPickingTabComponent</title>
<path fill="none" stroke="black" d="M115.24,-84.56C115.24,-84.56 115.24,-103.61 115.24,-103.61"/>
<polygon fill="black" stroke="black" points="111.74,-103.61 115.24,-113.61 118.74,-103.61 111.74,-103.61"/>
</g>
<!-- I18nModule -->
<g id="node4" class="node">
<title>I18nModule</title>
<polygon fill="#8dd3c7" stroke="black" points="923.71,-149.8 920.71,-153.8 899.71,-153.8 896.71,-149.8 838.29,-149.8 838.29,-113.8 923.71,-113.8 923.71,-149.8"/>
<text text-anchor="middle" x="881" y="-127.6" font-family="Times,serif" font-size="14.00">I18nModule</text>
</g>
<!-- I18nModule&#45;&gt;VisualPickingTabModule -->
<g id="edge3" class="edge">
<title>I18nModule&#45;&gt;VisualPickingTabModule</title>
<path fill="none" stroke="black" d="M881,-150.08C881,-171.12 881,-202.8 881,-202.8 881,-202.8 578.48,-202.8 578.48,-202.8"/>
<polygon fill="black" stroke="black" points="578.48,-199.3 568.48,-202.8 578.48,-206.3 578.48,-199.3"/>
</g>
<!-- VisualPickingProductFilterModule -->
<g id="node5" class="node">
<title>VisualPickingProductFilterModule</title>
<polygon fill="#8dd3c7" stroke="black" points="820.25,-149.8 817.25,-153.8 796.25,-153.8 793.25,-149.8 607.75,-149.8 607.75,-113.8 820.25,-113.8 820.25,-149.8"/>
<text text-anchor="middle" x="714" y="-127.6" font-family="Times,serif" font-size="14.00">VisualPickingProductFilterModule</text>
</g>
<!-- VisualPickingProductFilterModule&#45;&gt;VisualPickingTabModule -->
<g id="edge4" class="edge">
<title>VisualPickingProductFilterModule&#45;&gt;VisualPickingTabModule</title>
<path fill="none" stroke="black" d="M714,-149.82C714,-167.17 714,-190.8 714,-190.8 714,-190.8 578.32,-190.8 578.32,-190.8"/>
<polygon fill="black" stroke="black" points="578.32,-187.3 568.32,-190.8 578.32,-194.3 578.32,-187.3"/>
</g>
<!-- VisualPickingProductListModule -->
<g id="node6" class="node">
<title>VisualPickingProductListModule</title>
<polygon fill="#8dd3c7" stroke="black" points="590.2,-149.8 587.2,-153.8 566.2,-153.8 563.2,-149.8 385.8,-149.8 385.8,-113.8 590.2,-113.8 590.2,-149.8"/>
<text text-anchor="middle" x="488" y="-127.6" font-family="Times,serif" font-size="14.00">VisualPickingProductListModule</text>
</g>
<!-- VisualPickingProductListModule&#45;&gt;VisualPickingTabModule -->
<g id="edge5" class="edge">
<title>VisualPickingProductListModule&#45;&gt;VisualPickingTabModule</title>
<path fill="none" stroke="black" d="M488,-149.91C488,-149.91 488,-168.79 488,-168.79"/>
<polygon fill="black" stroke="black" points="484.5,-168.79 488,-178.79 491.5,-168.79 484.5,-168.79"/>
</g>
<!-- VisualViewerModule -->
<g id="node7" class="node">
<title>VisualViewerModule</title>
<polygon fill="#8dd3c7" stroke="black" points="367.79,-149.8 364.79,-153.8 343.79,-153.8 340.79,-149.8 230.21,-149.8 230.21,-113.8 367.79,-113.8 367.79,-149.8"/>
<text text-anchor="middle" x="299" y="-127.6" font-family="Times,serif" font-size="14.00">VisualViewerModule</text>
</g>
<!-- VisualViewerModule&#45;&gt;VisualPickingTabModule -->
<g id="edge6" class="edge">
<title>VisualViewerModule&#45;&gt;VisualPickingTabModule</title>
<path fill="none" stroke="black" d="M299,-149.82C299,-167.17 299,-190.8 299,-190.8 299,-190.8 397.85,-190.8 397.85,-190.8"/>
<polygon fill="black" stroke="black" points="397.85,-194.3 407.85,-190.8 397.85,-187.3 397.85,-194.3"/>
</g>
</g>
</svg>
