<?xml version="1.0" encoding="UTF-8" standalone="no"?>
<!DOCTYPE svg PUBLIC "-//W3C//DTD SVG 1.1//EN"
 "http://www.w3.org/Graphics/SVG/1.1/DTD/svg11.dtd">
<!-- Generated by graphviz version 2.44.1 (20200629.0846)
 -->
<!-- Title: dependencies Pages: 1 -->
<svg width="838pt" height="284pt"
 viewBox="0.00 0.00 838.00 284.00" xmlns="http://www.w3.org/2000/svg" xmlns:xlink="http://www.w3.org/1999/xlink">
<g id="graph0" class="graph" transform="scale(1 1) rotate(0) translate(4 280)">
<title>dependencies</title>
<polygon fill="white" stroke="transparent" points="-4,4 -4,-280 834,-280 834,4 -4,4"/>
<text text-anchor="start" x="394.01" y="-42.4" font-family="sans-serif" font-weight="bold" font-size="14.00">Legend</text>
<polygon fill="#ffffb3" stroke="transparent" points="181,-10 181,-30 201,-30 201,-10 181,-10"/>
<text text-anchor="start" x="204.63" y="-15.4" font-family="sans-serif" font-size="14.00"> &#160;Declarations</text>
<polygon fill="#8dd3c7" stroke="transparent" points="294,-10 294,-30 314,-30 314,-10 294,-10"/>
<text text-anchor="start" x="317.73" y="-15.4" font-family="sans-serif" font-size="14.00"> &#160;Module</text>
<polygon fill="#80b1d3" stroke="transparent" points="380,-10 380,-30 400,-30 400,-10 380,-10"/>
<text text-anchor="start" x="403.78" y="-15.4" font-family="sans-serif" font-size="14.00"> &#160;Bootstrap</text>
<polygon fill="#fdb462" stroke="transparent" points="477,-10 477,-30 497,-30 497,-10 477,-10"/>
<text text-anchor="start" x="500.67" y="-15.4" font-family="sans-serif" font-size="14.00"> &#160;Providers</text>
<polygon fill="#fb8072" stroke="transparent" points="573,-10 573,-30 593,-30 593,-10 573,-10"/>
<text text-anchor="start" x="596.73" y="-15.4" font-family="sans-serif" font-size="14.00"> &#160;Exports</text>
<g id="clust1" class="cluster">
<title>cluster_ConsentManagementModule</title>
<polygon fill="none" stroke="black" stroke-dasharray="1,5" points="8,-70 8,-268 822,-268 822,-70 8,-70"/>
</g>
<g id="clust2" class="cluster">
<title>cluster_ConsentManagementModule_declarations</title>
<polygon fill="none" stroke="black" points="350,-78 350,-130 814,-130 814,-78 350,-78"/>
</g>
<g id="clust6" class="cluster">
<title>cluster_ConsentManagementModule_exports</title>
<polygon fill="none" stroke="black" points="91,-208 91,-260 563,-260 563,-208 91,-208"/>
</g>
<g id="clust5" class="cluster">
<title>cluster_ConsentManagementModule_imports</title>
<polygon fill="none" stroke="black" points="16,-78 16,-130 342,-130 342,-78 16,-78"/>
</g>
<!-- ConsentManagementComponent -->
<g id="node1" class="node">
<title>ConsentManagementComponent</title>
<polygon fill="#ffffb3" stroke="black" points="806.3,-122 605.7,-122 605.7,-86 806.3,-86 806.3,-122"/>
<text text-anchor="middle" x="706" y="-99.8" font-family="Times,serif" font-size="14.00">ConsentManagementComponent</text>
</g>
<!-- ConsentManagementModule -->
<g id="node3" class="node">
<title>ConsentManagementModule</title>
<polygon fill="#8dd3c7" stroke="black" points="380.02,-187 377.02,-191 356.02,-191 353.02,-187 201.98,-187 201.98,-151 380.02,-151 380.02,-187"/>
<text text-anchor="middle" x="291" y="-164.8" font-family="Times,serif" font-size="14.00">ConsentManagementModule</text>
</g>
<!-- ConsentManagementComponent&#45;&gt;ConsentManagementModule -->
<g id="edge1" class="edge">
<title>ConsentManagementComponent&#45;&gt;ConsentManagementModule</title>
<path fill="none" stroke="black" d="M706,-122.11C706,-141.34 706,-169 706,-169 706,-169 390.03,-169 390.03,-169"/>
<polygon fill="black" stroke="black" points="390.03,-165.5 380.03,-169 390.03,-172.5 390.03,-165.5"/>
</g>
<!-- ConsentManagementFormComponent -->
<g id="node2" class="node">
<title>ConsentManagementFormComponent</title>
<polygon fill="#ffffb3" stroke="black" points="588.14,-122 357.86,-122 357.86,-86 588.14,-86 588.14,-122"/>
<text text-anchor="middle" x="473" y="-99.8" font-family="Times,serif" font-size="14.00">ConsentManagementFormComponent</text>
</g>
<!-- ConsentManagementFormComponent&#45;&gt;ConsentManagementModule -->
<g id="edge2" class="edge">
<title>ConsentManagementFormComponent&#45;&gt;ConsentManagementModule</title>
<path fill="none" stroke="black" d="M368.97,-122.11C368.97,-122.11 368.97,-140.99 368.97,-140.99"/>
<polygon fill="black" stroke="black" points="365.47,-140.99 368.97,-150.99 372.47,-140.99 365.47,-140.99"/>
</g>
<!-- ConsentManagementComponent  -->
<g id="node7" class="node">
<title>ConsentManagementComponent </title>
<polygon fill="#fb8072" stroke="black" points="554.8,-252 351.2,-252 351.2,-216 554.8,-216 554.8,-252"/>
<text text-anchor="middle" x="453" y="-229.8" font-family="Times,serif" font-size="14.00">ConsentManagementComponent </text>
</g>
<!-- ConsentManagementModule&#45;&gt;ConsentManagementComponent  -->
<g id="edge6" class="edge">
<title>ConsentManagementModule&#45;&gt;ConsentManagementComponent </title>
<path fill="none" stroke="black" stroke-dasharray="5,2" d="M365.68,-187.11C365.68,-187.11 365.68,-205.99 365.68,-205.99"/>
<polygon fill="black" stroke="black" points="362.18,-205.99 365.68,-215.99 369.18,-205.99 362.18,-205.99"/>
</g>
<!-- ConsentManagementFormComponent  -->
<g id="node8" class="node">
<title>ConsentManagementFormComponent </title>
<polygon fill="#fb8072" stroke="black" points="333.14,-252 98.86,-252 98.86,-216 333.14,-216 333.14,-252"/>
<text text-anchor="middle" x="216" y="-229.8" font-family="Times,serif" font-size="14.00">ConsentManagementFormComponent </text>
</g>
<!-- ConsentManagementModule&#45;&gt;ConsentManagementFormComponent  -->
<g id="edge7" class="edge">
<title>ConsentManagementModule&#45;&gt;ConsentManagementFormComponent </title>
<path fill="none" stroke="black" stroke-dasharray="5,2" d="M267.4,-187.11C267.4,-187.11 267.4,-205.99 267.4,-205.99"/>
<polygon fill="black" stroke="black" points="263.9,-205.99 267.4,-215.99 270.9,-205.99 263.9,-205.99"/>
</g>
<!-- I18nModule -->
<g id="node4" class="node">
<title>I18nModule</title>
<polygon fill="#8dd3c7" stroke="black" points="333.71,-122 330.71,-126 309.71,-126 306.71,-122 248.29,-122 248.29,-86 333.71,-86 333.71,-122"/>
<text text-anchor="middle" x="291" y="-99.8" font-family="Times,serif" font-size="14.00">I18nModule</text>
</g>
<!-- I18nModule&#45;&gt;ConsentManagementModule -->
<g id="edge3" class="edge">
<title>I18nModule&#45;&gt;ConsentManagementModule</title>
<path fill="none" stroke="black" d="M291,-122.11C291,-122.11 291,-140.99 291,-140.99"/>
<polygon fill="black" stroke="black" points="287.5,-140.99 291,-150.99 294.5,-140.99 287.5,-140.99"/>
</g>
<!-- IconModule -->
<g id="node5" class="node">
<title>IconModule</title>
<polygon fill="#8dd3c7" stroke="black" points="230.43,-122 227.43,-126 206.43,-126 203.43,-122 145.57,-122 145.57,-86 230.43,-86 230.43,-122"/>
<text text-anchor="middle" x="188" y="-99.8" font-family="Times,serif" font-size="14.00">IconModule</text>
</g>
<!-- IconModule&#45;&gt;ConsentManagementModule -->
<g id="edge4" class="edge">
<title>IconModule&#45;&gt;ConsentManagementModule</title>
<path fill="none" stroke="black" d="M215.98,-122.11C215.98,-122.11 215.98,-140.99 215.98,-140.99"/>
<polygon fill="black" stroke="black" points="212.48,-140.99 215.98,-150.99 219.48,-140.99 212.48,-140.99"/>
</g>
<!-- SpinnerModule -->
<g id="node6" class="node">
<title>SpinnerModule</title>
<polygon fill="#8dd3c7" stroke="black" points="127.6,-122 124.6,-126 103.6,-126 100.6,-122 24.4,-122 24.4,-86 127.6,-86 127.6,-122"/>
<text text-anchor="middle" x="76" y="-99.8" font-family="Times,serif" font-size="14.00">SpinnerModule</text>
</g>
<!-- SpinnerModule&#45;&gt;ConsentManagementModule -->
<g id="edge5" class="edge">
<title>SpinnerModule&#45;&gt;ConsentManagementModule</title>
<path fill="none" stroke="black" d="M113.24,-122.11C113.24,-141.34 113.24,-169 113.24,-169 113.24,-169 191.86,-169 191.86,-169"/>
<polygon fill="black" stroke="black" points="191.86,-172.5 201.86,-169 191.86,-165.5 191.86,-172.5"/>
</g>
</g>
</svg>
