<?xml version="1.0" encoding="UTF-8" standalone="no"?>
<!DOCTYPE svg PUBLIC "-//W3C//DTD SVG 1.1//EN"
 "http://www.w3.org/Graphics/SVG/1.1/DTD/svg11.dtd">
<!-- Generated by graphviz version 2.40.1 (20161225.0304)
 -->
<!-- Title: dependencies Pages: 1 -->
<svg width="851pt" height="284pt"
 viewBox="0.00 0.00 851.00 284.00" xmlns="http://www.w3.org/2000/svg" xmlns:xlink="http://www.w3.org/1999/xlink">
<g id="graph0" class="graph" transform="scale(1 1) rotate(0) translate(4 280)">
<title>dependencies</title>
<polygon fill="#ffffff" stroke="transparent" points="-4,4 -4,-280 847,-280 847,4 -4,4"/>
<text text-anchor="start" x="400.5091" y="-42.4" font-family="sans-serif" font-weight="bold" font-size="14.00" fill="#000000">Legend</text>
<polygon fill="#ffffb3" stroke="transparent" points="187.5,-10 187.5,-30 207.5,-30 207.5,-10 187.5,-10"/>
<text text-anchor="start" x="211.129" y="-15.4" font-family="sans-serif" font-size="14.00" fill="#000000"> &#160;Declarations</text>
<polygon fill="#8dd3c7" stroke="transparent" points="300.5,-10 300.5,-30 320.5,-30 320.5,-10 300.5,-10"/>
<text text-anchor="start" x="324.2251" y="-15.4" font-family="sans-serif" font-size="14.00" fill="#000000"> &#160;Module</text>
<polygon fill="#80b1d3" stroke="transparent" points="386.5,-10 386.5,-30 406.5,-30 406.5,-10 386.5,-10"/>
<text text-anchor="start" x="410.2812" y="-15.4" font-family="sans-serif" font-size="14.00" fill="#000000"> &#160;Bootstrap</text>
<polygon fill="#fdb462" stroke="transparent" points="483.5,-10 483.5,-30 503.5,-30 503.5,-10 483.5,-10"/>
<text text-anchor="start" x="507.1732" y="-15.4" font-family="sans-serif" font-size="14.00" fill="#000000"> &#160;Providers</text>
<polygon fill="#fb8072" stroke="transparent" points="579.5,-10 579.5,-30 599.5,-30 599.5,-10 579.5,-10"/>
<text text-anchor="start" x="603.2258" y="-15.4" font-family="sans-serif" font-size="14.00" fill="#000000"> &#160;Exports</text>
<g id="clust1" class="cluster">
<title>cluster_ConsentManagementModule</title>
<polygon fill="none" stroke="#000000" stroke-dasharray="1,5" points="8,-70 8,-268 835,-268 835,-70 8,-70"/>
</g>
<g id="clust2" class="cluster">
<title>cluster_ConsentManagementModule_declarations</title>
<polygon fill="none" stroke="#000000" points="363,-78 363,-130 827,-130 827,-78 363,-78"/>
</g>
<g id="clust5" class="cluster">
<title>cluster_ConsentManagementModule_imports</title>
<polygon fill="none" stroke="#000000" points="16,-78 16,-130 355,-130 355,-78 16,-78"/>
</g>
<g id="clust6" class="cluster">
<title>cluster_ConsentManagementModule_exports</title>
<polygon fill="none" stroke="#000000" points="95,-208 95,-260 567,-260 567,-208 95,-208"/>
</g>
<!-- ConsentManagementComponent -->
<g id="node1" class="node">
<title>ConsentManagementComponent</title>
<polygon fill="#ffffb3" stroke="#000000" points="819.3032,-122 618.6968,-122 618.6968,-86 819.3032,-86 819.3032,-122"/>
<text text-anchor="middle" x="719" y="-99.8" font-family="Times,serif" font-size="14.00" fill="#000000">ConsentManagementComponent</text>
</g>
<!-- ConsentManagementModule -->
<g id="node3" class="node">
<title>ConsentManagementModule</title>
<polygon fill="#8dd3c7" stroke="#000000" points="387.021,-187 384.021,-191 363.021,-191 360.021,-187 208.979,-187 208.979,-151 387.021,-151 387.021,-187"/>
<text text-anchor="middle" x="298" y="-164.8" font-family="Times,serif" font-size="14.00" fill="#000000">ConsentManagementModule</text>
</g>
<!-- ConsentManagementComponent&#45;&gt;ConsentManagementModule -->
<g id="edge1" class="edge">
<title>ConsentManagementComponent&#45;&gt;ConsentManagementModule</title>
<path fill="none" stroke="#000000" d="M719,-122.1061C719,-141.3391 719,-169 719,-169 719,-169 397.0259,-169 397.0259,-169"/>
<polygon fill="#000000" stroke="#000000" points="397.026,-165.5001 387.0259,-169 397.0259,-172.5001 397.026,-165.5001"/>
</g>
<!-- ConsentManagementFormComponent -->
<g id="node2" class="node">
<title>ConsentManagementFormComponent</title>
<polygon fill="#ffffb3" stroke="#000000" points="601.1371,-122 370.8629,-122 370.8629,-86 601.1371,-86 601.1371,-122"/>
<text text-anchor="middle" x="486" y="-99.8" font-family="Times,serif" font-size="14.00" fill="#000000">ConsentManagementFormComponent</text>
</g>
<!-- ConsentManagementFormComponent&#45;&gt;ConsentManagementModule -->
<g id="edge2" class="edge">
<title>ConsentManagementFormComponent&#45;&gt;ConsentManagementModule</title>
<path fill="none" stroke="#000000" d="M378.9709,-122.1061C378.9709,-122.1061 378.9709,-140.991 378.9709,-140.991"/>
<polygon fill="#000000" stroke="#000000" points="375.471,-140.9909 378.9709,-150.991 382.471,-140.991 375.471,-140.9909"/>
</g>
<!-- ConsentManagementComponent  -->
<g id="node7" class="node">
<title>ConsentManagementComponent </title>
<polygon fill="#fb8072" stroke="#000000" points="558.8031,-252 355.1969,-252 355.1969,-216 558.8031,-216 558.8031,-252"/>
<text text-anchor="middle" x="457" y="-229.8" font-family="Times,serif" font-size="14.00" fill="#000000">ConsentManagementComponent </text>
</g>
<!-- ConsentManagementModule&#45;&gt;ConsentManagementComponent  -->
<g id="edge6" class="edge">
<title>ConsentManagementModule&#45;&gt;ConsentManagementComponent </title>
<path fill="none" stroke="#000000" stroke-dasharray="5,2" d="M371.1794,-187.1061C371.1794,-187.1061 371.1794,-205.991 371.1794,-205.991"/>
<polygon fill="#000000" stroke="#000000" points="367.6794,-205.9909 371.1794,-215.991 374.6794,-205.991 367.6794,-205.9909"/>
</g>
<!-- ConsentManagementFormComponent  -->
<g id="node8" class="node">
<title>ConsentManagementFormComponent </title>
<polygon fill="#fb8072" stroke="#000000" points="337.1368,-252 102.8632,-252 102.8632,-216 337.1368,-216 337.1368,-252"/>
<text text-anchor="middle" x="220" y="-229.8" font-family="Times,serif" font-size="14.00" fill="#000000">ConsentManagementFormComponent </text>
</g>
<!-- ConsentManagementModule&#45;&gt;ConsentManagementFormComponent  -->
<g id="edge7" class="edge">
<title>ConsentManagementModule&#45;&gt;ConsentManagementFormComponent </title>
<path fill="none" stroke="#000000" stroke-dasharray="5,2" d="M272.9041,-187.1061C272.9041,-187.1061 272.9041,-205.991 272.9041,-205.991"/>
<polygon fill="#000000" stroke="#000000" points="269.4042,-205.9909 272.9041,-215.991 276.4042,-205.991 269.4042,-205.9909"/>
</g>
<!-- ConfigModule -->
<g id="node4" class="node">
<title>ConfigModule</title>
<polygon fill="#8dd3c7" stroke="#000000" points="347.4386,-122 344.4386,-126 323.4386,-126 320.4386,-122 248.5614,-122 248.5614,-86 347.4386,-86 347.4386,-122"/>
<text text-anchor="middle" x="298" y="-99.8" font-family="Times,serif" font-size="14.00" fill="#000000">ConfigModule</text>
</g>
<!-- ConfigModule&#45;&gt;ConsentManagementModule -->
<g id="edge3" class="edge">
<title>ConfigModule&#45;&gt;ConsentManagementModule</title>
<path fill="none" stroke="#000000" d="M298,-122.1061C298,-122.1061 298,-140.991 298,-140.991"/>
<polygon fill="#000000" stroke="#000000" points="294.5001,-140.9909 298,-150.991 301.5001,-140.991 294.5001,-140.9909"/>
</g>
<!-- I18nModule -->
<g id="node5" class="node">
<title>I18nModule</title>
<polygon fill="#8dd3c7" stroke="#000000" points="230.7107,-122 227.7107,-126 206.7107,-126 203.7107,-122 145.2893,-122 145.2893,-86 230.7107,-86 230.7107,-122"/>
<text text-anchor="middle" x="188" y="-99.8" font-family="Times,serif" font-size="14.00" fill="#000000">I18nModule</text>
</g>
<!-- I18nModule&#45;&gt;ConsentManagementModule -->
<g id="edge4" class="edge">
<title>I18nModule&#45;&gt;ConsentManagementModule</title>
<path fill="none" stroke="#000000" d="M219.6725,-122.1061C219.6725,-122.1061 219.6725,-140.991 219.6725,-140.991"/>
<polygon fill="#000000" stroke="#000000" points="216.1726,-140.9909 219.6725,-150.991 223.1726,-140.991 216.1726,-140.9909"/>
</g>
<!-- SpinnerModule -->
<g id="node6" class="node">
<title>SpinnerModule</title>
<polygon fill="#8dd3c7" stroke="#000000" points="127.5982,-122 124.5982,-126 103.5982,-126 100.5982,-122 24.4018,-122 24.4018,-86 127.5982,-86 127.5982,-122"/>
<text text-anchor="middle" x="76" y="-99.8" font-family="Times,serif" font-size="14.00" fill="#000000">SpinnerModule</text>
</g>
<!-- SpinnerModule&#45;&gt;ConsentManagementModule -->
<g id="edge5" class="edge">
<title>SpinnerModule&#45;&gt;ConsentManagementModule</title>
<path fill="none" stroke="#000000" d="M115.2404,-122.1061C115.2404,-141.3391 115.2404,-169 115.2403,-169 115.2403,-169 198.7617,-169 198.7617,-169"/>
<polygon fill="#000000" stroke="#000000" points="198.7618,-172.5001 208.7617,-169 198.7617,-165.5001 198.7618,-172.5001"/>
</g>
</g>
</svg>
