<?xml version="1.0" encoding="UTF-8" standalone="no"?>
<!DOCTYPE svg PUBLIC "-//W3C//DTD SVG 1.1//EN"
 "http://www.w3.org/Graphics/SVG/1.1/DTD/svg11.dtd">
<!-- Generated by graphviz version 2.40.1 (20161225.0304)
 -->
<!-- Title: dependencies Pages: 1 -->
<svg width="504pt" height="211pt"
 viewBox="0.00 0.00 504.00 211.00" xmlns="http://www.w3.org/2000/svg" xmlns:xlink="http://www.w3.org/1999/xlink">
<g id="graph0" class="graph" transform="scale(1 1) rotate(0) translate(4 207)">
<title>dependencies</title>
<polygon fill="#ffffff" stroke="transparent" points="-4,4 -4,-207 500,-207 500,4 -4,4"/>
<text text-anchor="start" x="227.0091" y="-42.4" font-family="sans-serif" font-weight="bold" font-size="14.00" fill="#000000">Legend</text>
<polygon fill="#ffffb3" stroke="transparent" points="14,-10 14,-30 34,-30 34,-10 14,-10"/>
<text text-anchor="start" x="37.629" y="-15.4" font-family="sans-serif" font-size="14.00" fill="#000000"> &#160;Declarations</text>
<polygon fill="#8dd3c7" stroke="transparent" points="127,-10 127,-30 147,-30 147,-10 127,-10"/>
<text text-anchor="start" x="150.7251" y="-15.4" font-family="sans-serif" font-size="14.00" fill="#000000"> &#160;Module</text>
<polygon fill="#80b1d3" stroke="transparent" points="213,-10 213,-30 233,-30 233,-10 213,-10"/>
<text text-anchor="start" x="236.7812" y="-15.4" font-family="sans-serif" font-size="14.00" fill="#000000"> &#160;Bootstrap</text>
<polygon fill="#fdb462" stroke="transparent" points="310,-10 310,-30 330,-30 330,-10 310,-10"/>
<text text-anchor="start" x="333.6732" y="-15.4" font-family="sans-serif" font-size="14.00" fill="#000000"> &#160;Providers</text>
<polygon fill="#fb8072" stroke="transparent" points="406,-10 406,-30 426,-30 426,-10 406,-10"/>
<text text-anchor="start" x="429.7258" y="-15.4" font-family="sans-serif" font-size="14.00" fill="#000000"> &#160;Exports</text>
<g id="clust1" class="cluster">
<title>cluster_MultiCartStoreModule</title>
<polygon fill="none" stroke="#000000" stroke-dasharray="1,5" points="130,-70 130,-195 366,-195 366,-70 130,-70"/>
</g>
<g id="clust3" class="cluster">
<title>cluster_MultiCartStoreModule_imports</title>
<polygon fill="none" stroke="#000000" points="138,-78 138,-130 358,-130 358,-78 138,-78"/>
</g>
<!-- ConfigModule -->
<g id="node1" class="node">
<title>ConfigModule</title>
<polygon fill="#8dd3c7" stroke="#000000" points="350.4386,-122 347.4386,-126 326.4386,-126 323.4386,-122 251.5614,-122 251.5614,-86 350.4386,-86 350.4386,-122"/>
<text text-anchor="middle" x="301" y="-99.8" font-family="Times,serif" font-size="14.00" fill="#000000">ConfigModule</text>
</g>
<!-- MultiCartStoreModule -->
<g id="node3" class="node">
<title>MultiCartStoreModule</title>
<polygon fill="#8dd3c7" stroke="#000000" points="320.3173,-187 317.3173,-191 296.3173,-191 293.3173,-187 175.6827,-187 175.6827,-151 320.3173,-151 320.3173,-187"/>
<text text-anchor="middle" x="248" y="-164.8" font-family="Times,serif" font-size="14.00" fill="#000000">MultiCartStoreModule</text>
</g>
<!-- ConfigModule&#45;&gt;MultiCartStoreModule -->
<g id="edge1" class="edge">
<title>ConfigModule&#45;&gt;MultiCartStoreModule</title>
<path fill="none" stroke="#000000" d="M285.9699,-122.1061C285.9699,-122.1061 285.9699,-140.991 285.9699,-140.991"/>
<polygon fill="#000000" stroke="#000000" points="282.4699,-140.9909 285.9699,-150.991 289.4699,-140.991 282.4699,-140.9909"/>
</g>
<!-- StateModule -->
<g id="node2" class="node">
<title>StateModule</title>
<polygon fill="#8dd3c7" stroke="#000000" points="233.544,-122 230.544,-126 209.544,-126 206.544,-122 146.456,-122 146.456,-86 233.544,-86 233.544,-122"/>
<text text-anchor="middle" x="190" y="-99.8" font-family="Times,serif" font-size="14.00" fill="#000000">StateModule</text>
</g>
<!-- StateModule&#45;&gt;MultiCartStoreModule -->
<g id="edge2" class="edge">
<title>StateModule&#45;&gt;MultiCartStoreModule</title>
<path fill="none" stroke="#000000" d="M204.8064,-122.1061C204.8064,-122.1061 204.8064,-140.991 204.8064,-140.991"/>
<polygon fill="#000000" stroke="#000000" points="201.3065,-140.9909 204.8064,-150.991 208.3065,-140.991 201.3065,-140.9909"/>
</g>
</g>
</svg>
