<?xml version="1.0" encoding="UTF-8" standalone="no"?>
<!DOCTYPE svg PUBLIC "-//W3C//DTD SVG 1.1//EN"
 "http://www.w3.org/Graphics/SVG/1.1/DTD/svg11.dtd">
<!-- Generated by graphviz version 2.47.3 (20210619.1520)
 -->
<!-- Title: dependencies Pages: 1 -->
<svg width="184pt" height="174pt"
 viewBox="0.00 0.00 184.00 173.80" xmlns="http://www.w3.org/2000/svg" xmlns:xlink="http://www.w3.org/1999/xlink">
<g id="graph0" class="graph" transform="scale(1 1) rotate(0) translate(4 169.8)">
<title>dependencies</title>
<polygon fill="white" stroke="transparent" points="-4,4 -4,-169.8 180,-169.8 180,4 -4,4"/>
<text text-anchor="middle" x="88" y="-8.2" font-family="sans-serif" font-size="14.00">dependencies</text>
<g id="clust1" class="cluster">
<title>cluster_MultiCartStoreModule</title>
<polygon fill="none" stroke="black" stroke-dasharray="1,5" points="8,-32.8 8,-157.8 168,-157.8 168,-32.8 8,-32.8"/>
</g>
<g id="clust3" class="cluster">
<title>cluster_MultiCartStoreModule_imports</title>
<polygon fill="none" stroke="black" points="36,-40.8 36,-92.8 140,-92.8 140,-40.8 36,-40.8"/>
</g>
<!-- StateModule -->
<g id="node1" class="node">
<title>StateModule</title>
<polygon fill="#8dd3c7" stroke="black" points="131.54,-84.8 128.54,-88.8 107.54,-88.8 104.54,-84.8 44.46,-84.8 44.46,-48.8 131.54,-48.8 131.54,-84.8"/>
<text text-anchor="middle" x="88" y="-62.6" font-family="Times,serif" font-size="14.00">StateModule</text>
</g>
<!-- MultiCartStoreModule -->
<g id="node2" class="node">
<title>MultiCartStoreModule</title>
<polygon fill="#8dd3c7" stroke="black" points="160.32,-149.8 157.32,-153.8 136.32,-153.8 133.32,-149.8 15.68,-149.8 15.68,-113.8 160.32,-113.8 160.32,-149.8"/>
<text text-anchor="middle" x="88" y="-127.6" font-family="Times,serif" font-size="14.00">MultiCartStoreModule</text>
</g>
<!-- StateModule&#45;&gt;MultiCartStoreModule -->
<g id="edge1" class="edge">
<title>StateModule&#45;&gt;MultiCartStoreModule</title>
<path fill="none" stroke="black" d="M88,-84.91C88,-84.91 88,-103.79 88,-103.79"/>
<polygon fill="black" stroke="black" points="84.5,-103.79 88,-113.79 91.5,-103.79 84.5,-103.79"/>
</g>
</g>
</svg>
