<?xml version="1.0" encoding="UTF-8" standalone="no"?>
<!DOCTYPE svg PUBLIC "-//W3C//DTD SVG 1.1//EN"
 "http://www.w3.org/Graphics/SVG/1.1/DTD/svg11.dtd">
<!-- Generated by graphviz version 2.40.1 (20161225.0304)
 -->
<!-- Title: dependencies Pages: 1 -->
<svg width="504pt" height="284pt"
 viewBox="0.00 0.00 504.00 284.00" xmlns="http://www.w3.org/2000/svg" xmlns:xlink="http://www.w3.org/1999/xlink">
<g id="graph0" class="graph" transform="scale(1 1) rotate(0) translate(4 280)">
<title>dependencies</title>
<polygon fill="#ffffff" stroke="transparent" points="-4,4 -4,-280 500,-280 500,4 -4,4"/>
<text text-anchor="start" x="227.0091" y="-42.4" font-family="sans-serif" font-weight="bold" font-size="14.00" fill="#000000">Legend</text>
<polygon fill="#ffffb3" stroke="transparent" points="14,-10 14,-30 34,-30 34,-10 14,-10"/>
<text text-anchor="start" x="37.629" y="-15.4" font-family="sans-serif" font-size="14.00" fill="#000000"> &#160;Declarations</text>
<polygon fill="#8dd3c7" stroke="transparent" points="127,-10 127,-30 147,-30 147,-10 127,-10"/>
<text text-anchor="start" x="150.7251" y="-15.4" font-family="sans-serif" font-size="14.00" fill="#000000"> &#160;Module</text>
<polygon fill="#80b1d3" stroke="transparent" points="213,-10 213,-30 233,-30 233,-10 213,-10"/>
<text text-anchor="start" x="236.7812" y="-15.4" font-family="sans-serif" font-size="14.00" fill="#000000"> &#160;Bootstrap</text>
<polygon fill="#fdb462" stroke="transparent" points="310,-10 310,-30 330,-30 330,-10 310,-10"/>
<text text-anchor="start" x="333.6732" y="-15.4" font-family="sans-serif" font-size="14.00" fill="#000000"> &#160;Providers</text>
<polygon fill="#fb8072" stroke="transparent" points="406,-10 406,-30 426,-30 426,-10 406,-10"/>
<text text-anchor="start" x="429.7258" y="-15.4" font-family="sans-serif" font-size="14.00" fill="#000000"> &#160;Exports</text>
<g id="clust1" class="cluster">
<title>cluster_DeliveryModeModule</title>
<polygon fill="none" stroke="#000000" stroke-dasharray="1,5" points="35.5,-70 35.5,-268 460.5,-268 460.5,-70 35.5,-70"/>
</g>
<g id="clust2" class="cluster">
<title>cluster_DeliveryModeModule_declarations</title>
<polygon fill="none" stroke="#000000" points="274.5,-78 274.5,-130 452.5,-130 452.5,-78 274.5,-78"/>
</g>
<g id="clust4" class="cluster">
<title>cluster_DeliveryModeModule_imports</title>
<polygon fill="none" stroke="#000000" points="43.5,-78 43.5,-130 266.5,-130 266.5,-78 43.5,-78"/>
</g>
<g id="clust5" class="cluster">
<title>cluster_DeliveryModeModule_exports</title>
<polygon fill="none" stroke="#000000" points="124.5,-208 124.5,-260 306.5,-260 306.5,-208 124.5,-208"/>
</g>
<!-- DeliveryModeComponent -->
<g id="node1" class="node">
<title>DeliveryModeComponent</title>
<polygon fill="#ffffb3" stroke="#000000" points="444.9692,-122 282.0308,-122 282.0308,-86 444.9692,-86 444.9692,-122"/>
<text text-anchor="middle" x="363.5" y="-99.8" font-family="Times,serif" font-size="14.00" fill="#000000">DeliveryModeComponent</text>
</g>
<!-- DeliveryModeModule -->
<g id="node2" class="node">
<title>DeliveryModeModule</title>
<polygon fill="#8dd3c7" stroke="#000000" points="286.1867,-187 283.1867,-191 262.1867,-191 259.1867,-187 144.8133,-187 144.8133,-151 286.1867,-151 286.1867,-187"/>
<text text-anchor="middle" x="215.5" y="-164.8" font-family="Times,serif" font-size="14.00" fill="#000000">DeliveryModeModule</text>
</g>
<!-- DeliveryModeComponent&#45;&gt;DeliveryModeModule -->
<g id="edge1" class="edge">
<title>DeliveryModeComponent&#45;&gt;DeliveryModeModule</title>
<path fill="none" stroke="#000000" d="M292.414,-122.1061C292.414,-141.3391 292.414,-169 292.414,-169 292.414,-169 291.7845,-169 291.7845,-169"/>
<polygon fill="#000000" stroke="#000000" points="296.1198,-165.5002 286.1198,-169 296.1197,-172.5002 296.1198,-165.5002"/>
</g>
<!-- DeliveryModeComponent  -->
<g id="node5" class="node">
<title>DeliveryModeComponent </title>
<polygon fill="#fb8072" stroke="#000000" points="298.9699,-252 132.0301,-252 132.0301,-216 298.9699,-216 298.9699,-252"/>
<text text-anchor="middle" x="215.5" y="-229.8" font-family="Times,serif" font-size="14.00" fill="#000000">DeliveryModeComponent </text>
</g>
<!-- DeliveryModeModule&#45;&gt;DeliveryModeComponent  -->
<g id="edge4" class="edge">
<title>DeliveryModeModule&#45;&gt;DeliveryModeComponent </title>
<path fill="none" stroke="#000000" stroke-dasharray="5,2" d="M215.5,-187.1061C215.5,-187.1061 215.5,-205.991 215.5,-205.991"/>
<polygon fill="#000000" stroke="#000000" points="212.0001,-205.9909 215.5,-215.991 219.0001,-205.991 212.0001,-205.9909"/>
</g>
<!-- I18nModule -->
<g id="node3" class="node">
<title>I18nModule</title>
<polygon fill="#8dd3c7" stroke="#000000" points="258.2107,-122 255.2107,-126 234.2107,-126 231.2107,-122 172.7893,-122 172.7893,-86 258.2107,-86 258.2107,-122"/>
<text text-anchor="middle" x="215.5" y="-99.8" font-family="Times,serif" font-size="14.00" fill="#000000">I18nModule</text>
</g>
<!-- I18nModule&#45;&gt;DeliveryModeModule -->
<g id="edge2" class="edge">
<title>I18nModule&#45;&gt;DeliveryModeModule</title>
<path fill="none" stroke="#000000" d="M215.5,-122.1061C215.5,-122.1061 215.5,-140.991 215.5,-140.991"/>
<polygon fill="#000000" stroke="#000000" points="212.0001,-140.9909 215.5,-150.991 219.0001,-140.991 212.0001,-140.9909"/>
</g>
<!-- SpinnerModule -->
<g id="node4" class="node">
<title>SpinnerModule</title>
<polygon fill="#8dd3c7" stroke="#000000" points="155.0982,-122 152.0982,-126 131.0982,-126 128.0982,-122 51.9018,-122 51.9018,-86 155.0982,-86 155.0982,-122"/>
<text text-anchor="middle" x="103.5" y="-99.8" font-family="Times,serif" font-size="14.00" fill="#000000">SpinnerModule</text>
</g>
<!-- SpinnerModule&#45;&gt;DeliveryModeModule -->
<g id="edge3" class="edge">
<title>SpinnerModule&#45;&gt;DeliveryModeModule</title>
<path fill="none" stroke="#000000" d="M149.9779,-122.1061C149.9779,-122.1061 149.9779,-140.991 149.9779,-140.991"/>
<polygon fill="#000000" stroke="#000000" points="146.478,-140.9909 149.9779,-150.991 153.478,-140.991 146.478,-140.9909"/>
</g>
</g>
</svg>
