<?xml version="1.0" encoding="UTF-8" standalone="no"?>
<!DOCTYPE svg PUBLIC "-//W3C//DTD SVG 1.1//EN"
 "http://www.w3.org/Graphics/SVG/1.1/DTD/svg11.dtd">
<!-- Generated by graphviz version 2.40.1 (20161225.0304)
 -->
<!-- Title: dependencies Pages: 1 -->
<svg width="608pt" height="284pt"
 viewBox="0.00 0.00 608.00 284.00" xmlns="http://www.w3.org/2000/svg" xmlns:xlink="http://www.w3.org/1999/xlink">
<g id="graph0" class="graph" transform="scale(1 1) rotate(0) translate(4 280)">
<title>dependencies</title>
<polygon fill="#ffffff" stroke="transparent" points="-4,4 -4,-280 604,-280 604,4 -4,4"/>
<text text-anchor="start" x="279.0091" y="-42.4" font-family="sans-serif" font-weight="bold" font-size="14.00" fill="#000000">Legend</text>
<polygon fill="#ffffb3" stroke="transparent" points="66,-10 66,-30 86,-30 86,-10 66,-10"/>
<text text-anchor="start" x="89.629" y="-15.4" font-family="sans-serif" font-size="14.00" fill="#000000"> &#160;Declarations</text>
<polygon fill="#8dd3c7" stroke="transparent" points="179,-10 179,-30 199,-30 199,-10 179,-10"/>
<text text-anchor="start" x="202.7251" y="-15.4" font-family="sans-serif" font-size="14.00" fill="#000000"> &#160;Module</text>
<polygon fill="#80b1d3" stroke="transparent" points="265,-10 265,-30 285,-30 285,-10 265,-10"/>
<text text-anchor="start" x="288.7812" y="-15.4" font-family="sans-serif" font-size="14.00" fill="#000000"> &#160;Bootstrap</text>
<polygon fill="#fdb462" stroke="transparent" points="362,-10 362,-30 382,-30 382,-10 362,-10"/>
<text text-anchor="start" x="385.6732" y="-15.4" font-family="sans-serif" font-size="14.00" fill="#000000"> &#160;Providers</text>
<polygon fill="#fb8072" stroke="transparent" points="458,-10 458,-30 478,-30 478,-10 458,-10"/>
<text text-anchor="start" x="481.7258" y="-15.4" font-family="sans-serif" font-size="14.00" fill="#000000"> &#160;Exports</text>
<g id="clust1" class="cluster">
<title>cluster_PaymentMethodsModule</title>
<polygon fill="none" stroke="#000000" stroke-dasharray="1,5" points="8,-70 8,-268 592,-268 592,-70 8,-70"/>
</g>
<g id="clust2" class="cluster">
<title>cluster_PaymentMethodsModule_declarations</title>
<polygon fill="none" stroke="#000000" points="388,-78 388,-130 584,-130 584,-78 388,-78"/>
</g>
<g id="clust4" class="cluster">
<title>cluster_PaymentMethodsModule_imports</title>
<polygon fill="none" stroke="#000000" points="156,-78 156,-130 380,-130 380,-78 156,-78"/>
</g>
<g id="clust5" class="cluster">
<title>cluster_PaymentMethodsModule_exports</title>
<polygon fill="none" stroke="#000000" points="173,-208 173,-260 371,-260 371,-208 173,-208"/>
</g>
<g id="clust7" class="cluster">
<title>cluster_PaymentMethodsModule_providers</title>
<polygon fill="none" stroke="#000000" points="16,-78 16,-130 148,-130 148,-78 16,-78"/>
</g>
<!-- PaymentMethodsComponent -->
<g id="node1" class="node">
<title>PaymentMethodsComponent</title>
<polygon fill="#ffffb3" stroke="#000000" points="575.8201,-122 396.1799,-122 396.1799,-86 575.8201,-86 575.8201,-122"/>
<text text-anchor="middle" x="486" y="-99.8" font-family="Times,serif" font-size="14.00" fill="#000000">PaymentMethodsComponent</text>
</g>
<!-- PaymentMethodsModule -->
<g id="node2" class="node">
<title>PaymentMethodsModule</title>
<polygon fill="#8dd3c7" stroke="#000000" points="350.5379,-187 347.5379,-191 326.5379,-191 323.5379,-187 193.4621,-187 193.4621,-151 350.5379,-151 350.5379,-187"/>
<text text-anchor="middle" x="272" y="-164.8" font-family="Times,serif" font-size="14.00" fill="#000000">PaymentMethodsModule</text>
</g>
<!-- PaymentMethodsComponent&#45;&gt;PaymentMethodsModule -->
<g id="edge1" class="edge">
<title>PaymentMethodsComponent&#45;&gt;PaymentMethodsModule</title>
<path fill="none" stroke="#000000" d="M486,-122.1061C486,-141.3391 486,-169 486,-169 486,-169 360.774,-169 360.774,-169"/>
<polygon fill="#000000" stroke="#000000" points="360.774,-165.5001 350.774,-169 360.774,-172.5001 360.774,-165.5001"/>
</g>
<!-- PaymentMethodsComponent  -->
<g id="node5" class="node">
<title>PaymentMethodsComponent </title>
<polygon fill="#fb8072" stroke="#000000" points="363.3199,-252 180.6801,-252 180.6801,-216 363.3199,-216 363.3199,-252"/>
<text text-anchor="middle" x="272" y="-229.8" font-family="Times,serif" font-size="14.00" fill="#000000">PaymentMethodsComponent </text>
</g>
<!-- PaymentMethodsModule&#45;&gt;PaymentMethodsComponent  -->
<g id="edge4" class="edge">
<title>PaymentMethodsModule&#45;&gt;PaymentMethodsComponent </title>
<path fill="none" stroke="#000000" stroke-dasharray="5,2" d="M272,-187.1061C272,-187.1061 272,-205.991 272,-205.991"/>
<polygon fill="#000000" stroke="#000000" points="268.5001,-205.9909 272,-215.991 275.5001,-205.991 268.5001,-205.9909"/>
</g>
<!-- CardModule -->
<g id="node3" class="node">
<title>CardModule</title>
<polygon fill="#8dd3c7" stroke="#000000" points="372.2619,-122 369.2619,-126 348.2619,-126 345.2619,-122 285.7381,-122 285.7381,-86 372.2619,-86 372.2619,-122"/>
<text text-anchor="middle" x="329" y="-99.8" font-family="Times,serif" font-size="14.00" fill="#000000">CardModule</text>
</g>
<!-- CardModule&#45;&gt;PaymentMethodsModule -->
<g id="edge2" class="edge">
<title>CardModule&#45;&gt;PaymentMethodsModule</title>
<path fill="none" stroke="#000000" d="M318.1939,-122.1061C318.1939,-122.1061 318.1939,-140.991 318.1939,-140.991"/>
<polygon fill="#000000" stroke="#000000" points="314.694,-140.9909 318.1939,-150.991 321.694,-140.991 314.694,-140.9909"/>
</g>
<!-- SpinnerModule -->
<g id="node4" class="node">
<title>SpinnerModule</title>
<polygon fill="#8dd3c7" stroke="#000000" points="267.5982,-122 264.5982,-126 243.5982,-126 240.5982,-122 164.4018,-122 164.4018,-86 267.5982,-86 267.5982,-122"/>
<text text-anchor="middle" x="216" y="-99.8" font-family="Times,serif" font-size="14.00" fill="#000000">SpinnerModule</text>
</g>
<!-- SpinnerModule&#45;&gt;PaymentMethodsModule -->
<g id="edge3" class="edge">
<title>SpinnerModule&#45;&gt;PaymentMethodsModule</title>
<path fill="none" stroke="#000000" d="M230.3903,-122.1061C230.3903,-122.1061 230.3903,-140.991 230.3903,-140.991"/>
<polygon fill="#000000" stroke="#000000" points="226.8903,-140.9909 230.3903,-150.991 233.8903,-140.991 226.8903,-140.9909"/>
</g>
<!-- UserService -->
<g id="node6" class="node">
<title>UserService</title>
<ellipse fill="#fdb462" stroke="#000000" cx="82" cy="-104" rx="58.4415" ry="18"/>
<text text-anchor="middle" x="82" y="-99.8" font-family="Times,serif" font-size="14.00" fill="#000000">UserService</text>
</g>
<!-- UserService&#45;&gt;PaymentMethodsModule -->
<g id="edge5" class="edge">
<title>UserService&#45;&gt;PaymentMethodsModule</title>
<path fill="none" stroke="#000000" d="M82,-122.1061C82,-141.3391 82,-169 82,-169 82,-169 183.3482,-169 183.3482,-169"/>
<polygon fill="#000000" stroke="#000000" points="183.3482,-172.5001 193.3482,-169 183.3482,-165.5001 183.3482,-172.5001"/>
</g>
</g>
</svg>
